<?xml version="1.0" encoding="UTF-8"?>
<!DOCTYPE svg PUBLIC "-//W3C//DTD SVG 1.1//EN" "http://www.w3.org/Graphics/SVG/1.1/DTD/svg11.dtd">
<!-- Creator: CorelDRAW 2019 (64-Bit) -->
<svg xmlns="http://www.w3.org/2000/svg" xml:space="preserve" width="152.503mm" height="202.37mm" version="1.1" style="shape-rendering:geometricPrecision; text-rendering:geometricPrecision; image-rendering:optimizeQuality; fill-rule:evenodd; clip-rule:evenodd"
viewBox="0 0 152.2086 201.9791"
 xmlns:xlink="http://www.w3.org/1999/xlink"
 xmlns:xodm="http://www.corel.com/coreldraw/odm/2003">
 <defs>
  <style type="text/css">
   <![CDATA[
    .fil3 {fill:#231F20}
    .fil2 {fill:#EC1B24}
    .fil1 {fill:black}
    .fil0 {fill:white}
   ]]>
  </style>
 </defs>
 <g id="Layer_x0020_1">
  <metadata id="CorelCorpID_0Corel-Layer"/>
  <g id="_740190176">
   <path class="fil0" d="M2.1353 32.593l73.6372 -30.5046 72.8955 30.5046c0,0 18.7223,104.4973 -72.6785,167.1534 0.0026,-0.0028 -78.6637,-38.9965 -73.8541,-167.1534z"/>
   <path class="fil1" d="M17.1 67.333l0 -0.663 0.5243 -1.4634 2.2839 -5.1542c0.2874,-0.6564 0.5692,-1.324 0.7806,-2.0128 0.2933,-0.9384 0.113,-1.8879 -0.0786,-2.8221 -0.1974,-0.9832 -0.1832,-1.9272 0.2678,-2.8473l0.1999 -0.592 -0.0926 0.0323 -0.293 -0.4714c-0.1183,-0.641 -0.2312,-1.2847 -0.2734,-1.9314 -0.0878,-1.3872 0.1068,-2.7604 0.3183,-4.1294 0.4032,-2.651 1.4099,-5.0761 2.8705,-7.3217 0.2536,-0.3899 0.4705,-0.8121 0.6454,-1.2469l0.8541 -2.3059c0.4061,-1.1082 1.0712,-2.0072 2.0696,-2.6511l1.1812 -0.7686 2.3033 -1.5288 0.3412 -0.2722 0.3156 0.404c0.5074,0.5905 0.919,0.6859 1.6153,0.3366l1.1479 -0.6536c0.7468,-0.3844 1.4771,-0.8037 2.2525,-1.1151 0.8398,-0.3353 1.7028,-0.453 2.5849,-0.0098 0.7615,0.3774 0.8406,0.3156 1.2745,-0.4138 0.1775,-0.2959 0.3664,-0.6101 0.7159,-0.6943 0.5639,-0.1346 1.1305,-0.2342 1.7058,-0.31 0.2876,-0.0421 0.533,0.0855 0.7105,0.3534 0.2252,0.3325 0.5666,0.505 0.967,0.5359l0.7469 -0.0322c0.7134,-0.1095 1.4126,-0.0856 2.1035,0.1472l1.4886 0.4587c0.527,0.15 1.0738,0.2834 1.5954,0.0855 0.7419,-0.2623 1.4322,-0.1487 2.0811,0.2118 0.6793,0.3773 1.3362,0.8037 1.9817,1.2399 0.3945,0.2708 0.8119,0.3732 1.2745,0.3408l0.778 -0.0743 0.8431 0.1472c0.2084,0.0533 0.2538,0.2398 0.1972,0.4432l-0.1775 0.5415c-0.1014,0.2707 -0.0514,0.4923 0.1913,0.6536 0.9336,0.6199 1.6464,1.4658 2.4133,2.2526 0.6059,0.6256 1.28,1.1501 2.0973,1.4741l1.4777 0.6634c0.468,0.209 0.4735,0.2273 0.2676,0.6845l-0.2564 0.6369c-0.1069,0.3843 0.1183,0.5849 0.499,0.46l0.3495 -0.1698c0.4373,-0.2482 0.6712,-0.1318 0.6768,0.376 0.0055,0.3858 0.0055,0.7981 -0.0993,1.1614 -0.1917,0.6536 -0.053,1.2203 0.3522,1.7197l1.331 1.5162 0.5781 0.6803c0.2421,0.3493 0.1999,0.6846 -0.0876,0.9833l-0.5218 0.453c-0.5834,0.4826 -0.6141,0.7055 -0.1631,1.3031l0.51 0.5933 0.6344 0.6985 -1.7226 1.4153 1.1473 1.268 -0.3693 0.2272 -0.9222 0.6144c-0.3665,0.2973 -0.3917,0.5414 -0.1659,0.944l0.589 1.0337 -0.434 0.1164 -1.2491 0.4909c-0.4034,0.2146 -0.4231,0.5456 -0.1266,0.9047 0.7554,0.8822 1.9307,1.0071 2.8556,0.3072 0.5863,-0.4517 0.9758,-1.0577 1.2996,-1.7057 1.5621,-3.1082 1.7709,-6.3469 0.9337,-9.6768 -0.8093,-3.2078 -2.2244,-6.1632 -3.8376,-9.0385l-0.5971 -1.2035c-0.1694,-0.3927 -0.1524,-0.8065 0.0362,-1.1895l0.5215 -0.9818c0.4027,-0.655 0.9188,-1.2091 1.5024,-1.7056 1.3364,-1.1277 2.8194,-1.2638 4.4237,-0.6958 0.5609,0.2006 0.5638,0.188 0.5638,0.7841l0 3.3354c-0.6455,0.2904 -1.2743,0.5275 -1.8608,0.8473 -1.0654,0.5863 -1.934,1.4208 -2.7739,2.2919 -0.1469,0.1473 -0.1497,0.2525 -0.0598,0.4363 0.5243,1.073 1.0629,2.1474 1.5391,3.2527 1.167,2.7085 1.9988,5.5081 2.1005,8.4859 0.0445,1.3255 -0.0672,2.6076 -0.7022,3.8251 -0.2876,0.5469 -0.4368,1.1767 -0.6142,1.7771 -0.0909,0.3212 -0.0619,0.6564 0.1237,0.9608 0.1892,0.3001 0.4511,0.3394 0.691,0.0744l0.3665 -0.5751 1.0149 -2.4392 0.1184 -0.2497c0.0509,0.822 0.0595,1.6271 0.0448,2.4266l-0.1468 0.5961 -1.0235 2.1053 -0.0169 0.2735c0.2059,0.3703 0.7358,0.4629 1.0628,0.1935l0.0991 -0.0645c0.1212,0.5765 0.0876,1.0646 -0.5359,1.3143l-0.1776 0.1165 -0.7553 0.6115 0.0508 0.0855 1.4384 -0.3576 0 0.8653 -0.2993 0.0744 -2.0606 0.1768c-0.984,0.0435 -1.7791,0.3297 -2.2048,1.3003 -0.31,0.7041 -0.2482,1.3762 0.3101,1.9032 0.3441,0.3305 0.7528,0.6061 1.1698,0.8257 0.8827,0.468 1.8382,0.7128 2.825,0.8568l0.2598 0.1919 0.0135 1.7533 -0.1719 -0.0318 -5.2863 -1.3391 -0.3727 0.1321 -1.581 1.8518 -0.2116 0.2849 0.2877 0.0427c0.6453,0.166 1.373,0.2055 1.911,0.5382 0.6603,0.4108 1.2098,1.0465 1.7341,1.6463 0.4032,0.4625 0.2509,0.8909 -0.3074,1.1561l-0.6904 0.2619c1.5112,0.6318 2.9828,1.3452 4.6768,1.2433l0 0.8481 -1.1948 -0.4706c-0.7448,-0.1748 -1.5059,-0.3222 -2.2701,-0.4148 -1.9396,-0.2422 -3.2335,-1.2683 -3.9355,-3.0786 -0.4762,-1.2376 -0.6598,-2.5374 -0.7555,-3.8452l-0.1919 -3.1834c-0.0443,-0.6679 -0.3298,-1.1925 -0.9078,-1.5838l-0.5583 0.6144 -0.2509 0.4881c-0.0305,0.3942 -0.0422,0.8035 0,1.1982 0.0651,0.533 0.2822,1.0005 0.8377,1.2267l0.1946 0.211 0.1604 1.1186 -0.3636 -0.0848 -2.0465 -0.4624 -0.5645 0.1063 0.1722 0.5073 0.942 1.3248 0.259 0.5446c-0.9894,-0.1885 -1.7227,0.144 -2.0891,0.8651l1.3253 0.4351c0.3776,0.1775 0.4116,0.4591 0.1523,0.7807l-0.44 0.4542 -0.9529 0.874c-0.1408,0.1523 -0.2732,0.3693 -0.2901,0.5686 -0.0396,0.4368 -0.045,0.8855 0.0136,1.3167 0.3047,2.0524 1.2771,3.7526 2.7685,5.1705 1.0712,1.0208 2.3034,1.8329 3.5554,2.6081 0.3863,0.2428 0.7638,0.5157 1.0936,0.8345 0.3584,0.3463 0.2536,0.6455 -0.2224,0.7808l-1.0405 0.2931c-1.6043,0.6597 -3.0113,1.6241 -4.2627,2.8135 -1.4607,1.3819 -2.512,3.0617 -3.3719,4.8633 -1.607,3.3493 -3.8995,6.1491 -6.8733,8.3708 -1.8302,1.3643 -3.8343,2.3626 -6.1349,2.6442 -0.8174,0.0958 -1.2629,-0.1917 -1.4377,-0.9983l-0.361 -2.0382c-0.4205,-1.8947 -1.0543,-3.7104 -2.0838,-5.3739 -0.5919,-0.9506 -1.3532,-1.6436 -2.4722,-1.8945 -1.1307,-0.2538 -1.9735,-0.9387 -2.6698,-1.8295l-1.4718 -1.9429c-1.0996,-1.4941 -2.5596,-2.2354 -4.4203,-2.1253l-2.6394 0.211c-1.5873,0.1379 -3.0727,-0.1546 -4.4007,-1.0602 -0.5978,-0.4093 -1.0515,-0.9221 -1.1671,-1.6778 -0.0674,-0.4728 0.0477,-0.9133 0.2367,-1.3336l0.7134 -1.5559c0.3408,-0.8942 0.1687,-1.3874 -0.6373,-1.92l-0.922 -0.5637c-0.4598,-0.3156 -0.5893,-0.68 -0.468,-1.2235l0.138 -0.6427c0.0925,-0.5671 -0.0843,-1.0657 -0.3664,-1.5397 -0.4599,-0.7841 -0.3864,-1.5334 0.1692,-2.2354l0.7018 -0.8257 0.3775 -0.4986c0.1639,-0.2795 0.1074,-0.4935 -0.183,-0.6513l-0.5807 -0.2314 -1.6185 -0.3101c-0.8569,-0.1883 -1.6995,-0.3917 -1.9846,-1.3927l0.0016 0.017zm4.2743 -22.6395l0 0 -0.0652 0.1809c-0.1525,0.8149 -0.3271,1.6257 -0.44,2.4518 -0.172,1.2694 -0.138,2.5346 0.1324,3.7928l0.2906 0.2146 0.7188 -0.0645c2.5543,-0.1066 5.0916,0.122 7.5785,0.7055 2.7258,0.634 5.4214,1.3816 8.1277,2.0941 1.9626,0.519 3.9022,1.1361 5.9293,1.3731 0.6651,0.0758 1.3562,0.1277 1.9621,-0.2426 1.0882,-0.6592 2.2585,-1.0548 3.5215,-1.1923 1.4627,-0.1613 2.7005,0.5456 3.2927,1.8936 0.4905,1.1263 0.5441,2.3072 0.4456,3.5051 -0.0428,0.4937 -0.226,0.9047 -0.5334,1.2834l-0.3072 0.5415c-0.104,0.2806 0.0258,0.5116 0.3243,0.4979l1.4182 -0.1823 0.1324 -0.136c0.1157,-0.5498 0.5299,-0.756 1.0038,-0.8739 0.6456,-0.1641 1.3193,-0.1655 1.9675,-0.0322l3.8879 0.8767c0.1722,0.0434 0.4177,0.0084 0.5501,-0.0954 0.313,-0.2315 0.589,-0.5106 0.8454,-0.8037l0.7163 -0.9664 -3.2115 -0.85 -0.3691 -0.007 -0.0172 0.0967c0.6713,0.7069 1.641,0.693 2.4981,0.9973 -0.3184,0.0646 -0.6428,0.136 -0.953,0.0856 -1.6069,-0.2483 -3.0785,-0.857 -4.4094,-1.7758 -0.3639,-0.2539 -0.6735,-0.6017 -0.9754,-0.9285 -0.1495,-0.1614 -0.2365,-0.3885 -0.1211,-0.6312 2.5512,0.9748 5.2693,1.3886 7.7896,2.5331 0.8201,-2.2484 0.933,-4.4337 -0.5045,-6.4409 -0.8828,-1.2357 -1.92,-2.3648 -2.9129,-3.5164 -0.3774,-0.4418 -0.8311,-0.8177 -1.2568,-1.2091 -0.2371,-0.223 -0.5163,-0.3184 -0.8515,-0.2846l-1.0799 0.0196 -7.8943 -0.4166c-0.2142,-0.0098 -0.2929,-0.1613 -0.1407,-0.3226l0.6318 -0.4896 1.2826 -0.5891 0.217 -0.1179 -4.1921 -1.4755 -0.8826 -0.1515 -0.3046 0.0842 0.1522 0.3057c0.3946,0.411 0.9195,0.5498 1.4607,0.634l1.5364 0.1866 0.0284 0.0743 -0.5019 0.2708c-0.3693,0.0743 -0.7582,0.1318 -1.1221,0.0953 -1.7226,-0.1515 -3.2812,-0.7784 -4.7388,-1.6776 -0.7159,-0.4502 -1.3756,-0.972 -1.7932,-1.7392l-0.2734 -0.1515c-1.4858,-0.3759 -2.9745,-0.742 -4.5137,-0.8177 -1.0234,-0.0533 -2.0497,-0.0744 -2.9296,0.6115l-0.2339 -0.0098 -0.0055 -0.2581 0.8516 -1.2035 0.1494 -0.2426c-1.6098,-0.0435 -3.1547,-0.2287 -4.6489,-0.7167 -1.5111,-0.4896 -2.8928,-1.2063 -4.0402,-2.3705 -1.2323,2.1769 -2.281,4.4071 -3.0168,6.7776l0.1747 0.2735 1.7315 0.5947 7.7188 2.2358c1.8892,0.5582 3.7273,1.261 5.4528,2.2414 0.4877,0.2764 0.7298,0.7337 0.9329,1.2092 0.0994,0.2341 -0.0202,0.3646 -0.2591,0.2846l-0.8064 -0.3801c-0.4176,-0.3044 -0.857,-0.5387 -1.3534,-0.6972 -1.9621,-0.6227 -3.8961,-1.3423 -5.9261,-1.728l-0.6059 0.0532 0.3917 0.4896c0.5977,0.4629 1.3139,0.6775 2.03,0.8598l2.2074 0.5021 -0.423 0.2118c-0.6454,0.007 -1.3051,0.0744 -1.9367,-0.0322 -2.6782,-0.4854 -5.1231,-1.5654 -7.3782,-3.0592 -0.8739,-0.5723 -1.6716,-1.2329 -2.1537,-2.261l0 0.0014zm44.6431 11.4974l0 0c-0.5215,0.108 -0.8964,0.4544 -1.2151,0.8541 -0.6651,0.8233 -1.0767,1.7702 -1.1813,2.8193 -0.1633,1.6776 0.3611,2.0049 1.5085,2.2728l0.0843 0.0098c0.995,0.1633 1.5614,-0.2734 1.5757,-1.2825 0.0055,-0.62 -0.0508,-1.2428 -0.1577,-1.8487 -0.1606,-0.9369 -0.4006,-1.8556 -0.6148,-2.8277l0.0005 0.0029zm-40.6851 3.1433l0 0c-0.1748,0.223 -0.2421,0.4376 -0.0257,0.634 0.1666,0.1472 0.3358,0.1094 0.5162,-0.0099l0.7668 -0.4362 1.5195 -0.5554c0.5162,-0.2315 0.5609,-0.5864 0.1551,-0.9791 -0.9841,-0.944 -2.1933,-1.2735 -3.5215,-1.2399l-0.3013 0.2315 0.0565 0.3829 0.1802 0.446c0.1014,0.5526 0.1891,1.1108 0.6542,1.5275l0 -0.0014zm4.1024 -2.8082l0 0 -0.1355 -0.2342 -0.6066 -0.5863c-1.5674,-1.2287 -3.3798,-1.4461 -5.286,-1.2371 -0.2394,0.0322 -0.3945,0.2426 -0.3436,0.4488 0.0614,0.2342 0.228,0.3353 0.4761,0.31l0.7755 -0.0533c1.7,-0.0323 3.2649,0.3212 4.4516,1.6663l0.1184 0.0954c0.251,0.1249 0.5556,-0.0631 0.5502,-0.4025l0 -0.0071zm16.4392 11.4128l0 0c0.7753,0.0029 1.7926,-0.4263 2.3205,-0.9867l0.0592 -0.3102 -0.3214 0.0428 -0.8485 0.5605c-0.4931,0.2619 -1.029,0.4004 -1.5901,0.2673 -0.6848,-0.1659 -1.2433,-0.4985 -1.5029,-1.1983 -0.2537,-0.6936 -0.0614,-1.2995 0.406,-1.8327 0.4147,-0.4849 0.9447,-0.7929 1.5227,-1.0548l0.2256 -0.2827 -0.3555 -0.0637c-0.5072,0.2965 -1.0317,0.5777 -1.4854,0.9387 -0.4624,0.3699 -0.7498,0.8908 -0.7896,1.5001 -0.0956,1.3534 0.953,2.4218 2.3599,2.4245l-0.0005 -0.005z"/>
   <path class="fil1" d="M67.2212 101.8069l-0.6624 -0.161c-1.407,-0.3748 -2.447,-1.2404 -3.2533,-2.4189 -0.7276,-1.0685 -1.1929,-2.2382 -1.418,-3.5099 -0.0844,-0.4882 0.008,-0.9304 0.4365,-1.2317 1.8017,-1.2546 3.2902,-2.8731 4.9367,-4.3027l2.134 -1.9395c0.5278,-0.4795 0.612,-0.8766 0.3101,-1.5281l-0.5298 -0.9725 -0.6316 -1.458c-0.1804,-0.5189 -0.0816,-1.0229 0.2821,-1.4377l1.263 -1.3702 1.7873 -1.8941 0.0225 0.217 0 2.5265 -0.1945 0.4262c-0.595,0.4229 -1.1869,0.8515 -1.8213,1.2093 -0.7386,0.4197 -0.9134,0.8514 -0.4258,1.5478 0.3863,0.5467 0.8541,1.0316 1.3056,1.5335l0.6851 0.6734c0.3917,0.2985 0.5161,0.663 0.4706,1.1479l-0.0082 1.2941 -0.623 -0.3392c-0.2536,-0.1544 -0.519,-0.1604 -0.7699,-0.0202l-0.8289 0.5413 -5.1789 4.5816 -1.2716 1.0991c-0.279,0.2313 -0.3666,0.5139 -0.3326,0.8516l0.0444 0.2087c0.5473,1.6327 1.4294,3.0195 2.9432,3.913 0.2428,0.1441 0.5727,0.2037 0.8602,0.1973 0.5273,-0.0051 0.7529,-0.4482 0.4454,-0.8733l-0.7921 -0.8515 -0.8237 -0.7929c-0.3073,-0.3528 -0.2279,-0.6065 0.2171,-0.7194l1.035 -0.1803c0.2789,-0.0745 0.5809,-0.1885 0.7868,-0.3803 0.2898,-0.2651 0.5209,-0.6032 0.7441,-0.9368 0.389,-0.5803 0.8541,-1.085 1.4404,-1.4744 0.7814,-0.5211 1.4744,-1.1359 2.002,-1.9226l0.104 -0.0636 0 4.7136c0,2.0246 -1.4688,3.7268 -3.4675,4.0402l-0.1917 0.0636 -1.0319 0 0.0006 -0.0067z"/>
   <path class="fil0" d="M21.3743 44.6935c0.4848,1.0295 1.2798,1.6888 2.1423,2.261 2.2611,1.4938 4.6998,2.5767 7.3753,3.0592 0.6318,0.1165 1.2941,0.0533 1.9394,0.0322l0.4204 -0.2118 -2.2047 -0.4993c-0.7161,-0.1823 -1.4322,-0.3969 -2.03,-0.8598l-0.3917 -0.4895 0.6147 -0.0534c2.0356,0.383 3.9636,1.1054 5.926,1.7253 0.4905,0.1586 0.9386,0.3913 1.3562,0.6958l0.8031 0.3801c0.2399,0.0744 0.3612,-0.0532 0.2624,-0.2819 -0.2059,-0.4826 -0.448,-0.9328 -0.9357,-1.212 -1.7228,-0.979 -3.5637,-1.6802 -5.4501,-2.2414l-7.7194 -2.2358 -1.7309 -0.5975 -0.1747 -0.275c0.7331,-2.3676 1.7791,-4.6006 3.0168,-6.7775 1.1391,1.167 2.5258,1.8865 4.0402,2.3747 1.4942,0.4881 3.0391,0.6732 4.6463,0.7125l-0.1468 0.2426 -0.8489 1.2035 0.0028 0.2581 0.2339 0.0098c0.8766,-0.6887 1.9034,-0.6578 2.9264,-0.6101 1.5396,0.0743 3.0281,0.4404 4.5108,0.8177l0.274 0.1529c0.4197,0.7672 1.0767,1.2904 1.7927,1.7392 1.4576,0.902 3.0197,1.5274 4.7393,1.6776 0.3694,0.0322 0.7583,-0.0322 1.125,-0.0968l0.5017 -0.2735 -0.0306 -0.0744 -1.5369 -0.1865c-0.5413,-0.0744 -1.0656,-0.2202 -1.4572,-0.634l-0.1552 -0.3044 0.3074 -0.0758 0.882 0.1585 4.19 1.4686 -0.2171 0.1179 -1.2798 0.5891 -0.6318 0.4909c-0.1497,0.1613 -0.0708,0.3072 0.1409,0.3212l7.8913 0.418 1.0826 -0.0196c0.3354,-0.0323 0.6142,0.0631 0.851,0.2875 0.4291,0.3912 0.8799,0.7686 1.2574,1.2063 0.9929,1.1501 2.0247,2.2806 2.9102,3.5164 1.4375,2.0071 1.3274,4.191 0.5072,6.4408 -2.5236,-1.1417 -5.2386,-1.5583 -7.7929,-2.5345 -0.1155,0.2398 -0.0253,0.4713 0.1217,0.6326 0.304,0.3296 0.6116,0.6718 0.9752,0.9285 1.3337,0.9187 2.8053,1.5303 4.4123,1.7786 0.3075,0.042 0.6346,-0.0211 0.9503,-0.0855 -0.8598,-0.3016 -1.8269,-0.2889 -2.5007,-0.9959l0.017 -0.0954 0.3719 0.0028 3.2115 0.8486 -0.7162 0.9678c-0.2536,0.2932 -0.5381,0.5709 -0.8427,0.8023 -0.1352,0.1066 -0.3782,0.1318 -0.5528,0.0968l-3.888 -0.8767c-0.6481,-0.1332 -1.3193,-0.1304 -1.9704,0.0309 -0.4738,0.1192 -0.8854,0.324 -1.0009,0.8738l-0.1353 0.136 -1.4179 0.186c-0.2938,0.0104 -0.426,-0.2197 -0.3273,-0.5016l0.31 -0.5386c0.3016,-0.376 0.4906,-0.7912 0.53,-1.2849 0.0958,-1.1978 0.0427,-2.3802 -0.4482,-3.5051 -0.5922,-1.3508 -1.8299,-2.0549 -3.2901,-1.8935 -1.2628,0.1374 -2.436,0.533 -3.5242,1.195 -0.606,0.3661 -1.2941,0.3184 -1.9653,0.2398 -2.0268,-0.237 -3.9634,-0.857 -5.9261,-1.3759 -2.706,-0.7111 -5.4045,-1.4574 -8.1304,-2.0927 -2.4842,-0.5849 -5.0215,-0.8107 -7.5785,-0.7041l-0.7216 0.0631 -0.2848 -0.2146c-0.2734,-1.2568 -0.3042,-2.5233 -0.1353,-3.7913 0.1184,-0.8234 0.2935,-1.6355 0.4426,-2.4533l0.0789 -0.1865zm30.1659 5.1967l0 0 1.63 0.3492c0.7554,0.1768 1.4969,0.4012 2.0662,0.9608l0.3156 0.5751 -0.6536 0.0435c-1.8498,-0.4124 -3.6174,-1.0857 -5.368,-1.7996 -2.0271,-0.8247 -4.1306,-1.1614 -6.3013,-1.1641l-0.4284 0.136 0.3072 0.338c0.6088,0.2987 1.2152,0.6059 1.8464,0.8541 3.8628,1.4938 7.8294,2.6777 11.779,3.9106 1.717,0.5386 3.4763,0.9677 5.1229,1.7112 0.07,-0.4882 -0.0395,-0.9734 -0.3244,-1.3564 -0.4369,-0.5933 -0.8938,-1.1922 -1.4376,-1.6859 -1.3957,-1.2456 -3.0169,-2.1405 -4.7731,-2.7688 -0.8682,-0.3128 -1.751,-0.5835 -2.6957,-0.5302 -0.3829,0.0197 -0.7385,0.1178 -1.0853,0.4264zm14.4772 6.3007l0 0 0.0006 0.0042c-0.5216,0.1094 -0.8909,0.453 -1.2097,0.8541 -0.6651,0.8234 -1.0799,1.7702 -1.1813,2.8193 -0.1661,1.6776 0.361,2.0045 1.5084,2.2718l0.0842 0.0106c0.9978,0.1633 1.5676,-0.2741 1.5758,-1.2823 0.006,-0.62 -0.0504,-1.247 -0.1578,-1.8501 -0.1694,-0.9355 -0.406,-1.8542 -0.6203,-2.8276zm-40.6851 3.1433l0 0 0.0005 -0.0015c-0.1725,0.2231 -0.2432,0.4363 -0.0289,0.6341 0.1638,0.1472 0.3359,0.1108 0.5161,-0.0099l0.7671 -0.4377 1.5193 -0.554c0.5161,-0.2314 0.5637,-0.5905 0.1551,-0.979 -0.9894,-0.944 -2.1959,-1.2721 -3.5242,-1.2399l-0.3013 0.2315 0.0565 0.3829 0.1802 0.446c0.1069,0.5526 0.189,1.1096 0.6597,1.5275zm0.9753 -1.672l0 0 -1.2404 -0.188 -0.087 0.0744 0.4196 1.2512 0.2822 0.2062 0.2822 -0.2567 0.3435 -1.087zm0.3665 0.1444l0 0 -0.2734 0.9664 1.1166 -0.3619 0.017 -0.0841 -0.8602 -0.5204zm2.7606 -1.2806l0 0 -0.1273 -0.2412 -0.6031 -0.5849c-1.5704,-1.2301 -3.383,-1.4475 -5.289,-1.2385 -0.2396,0.028 -0.4005,0.2426 -0.3441,0.4488 0.0591,0.2356 0.2284,0.331 0.4739,0.31l0.7754 -0.0534c1.7002,-0.0279 3.2616,0.3213 4.4516,1.6664l0.1156 0.0954c0.2539,0.1276 0.5524,-0.0575 0.547,-0.4026zm16.4392 11.4128l0 0c-1.4071,-0.0026 -2.4585,-1.0683 -2.368,-2.4189 0.0442,-0.6114 0.3266,-1.1308 0.7923,-1.5002 0.4536,-0.3632 0.978,-0.6421 1.4852,-0.9386l0.3524 0.0641 -0.2252 0.2823c-0.5727,0.2592 -1.1052,0.567 -1.52,1.0548 -0.4678,0.533 -0.6623,1.1418 -0.4087,1.8327 0.2597,0.6991 0.8235,1.0379 1.5029,1.1983 0.5664,0.1353 1.0964,-0.0049 1.5927,-0.2674l0.8489 -0.5616 0.3211 -0.0427 -0.0592 0.3101c-0.5163,0.5584 -1.5342,0.9868 -2.315,0.9835l0.0006 0.0038z"/>
   <path class="fil1" d="M51.5402 49.8902c0.3468,-0.3072 0.7024,-0.4067 1.0853,-0.432 0.942,-0.0533 1.8246,0.2146 2.6926,0.5302 1.7593,0.634 3.3805,1.5219 4.7732,2.7702 0.5468,0.4936 0.9978,1.094 1.4378,1.6831 0.2876,0.3858 0.3949,0.8738 0.3272,1.3563 -1.6493,-0.7448 -3.4086,-1.1725 -5.1226,-1.7084 -3.9471,-1.2315 -7.9138,-2.4153 -11.7793,-3.9105 -0.6312,-0.2482 -1.2404,-0.5582 -1.8464,-0.8541l-0.3072 -0.338 0.4284 -0.1346c2.1735,0.0028 4.2797,0.3408 6.3013,1.1669 1.7506,0.7125 3.5156,1.39 5.368,1.7982l0.6536 -0.0421 -0.3156 -0.5779c-0.5721,-0.5596 -1.3139,-0.7813 -2.0662,-0.958l-1.63 -0.3492zm-25.2327 7.7721l0 0 -0.3435 1.0884 -0.2822 0.2567 -0.2822 -0.2048 -0.4196 -1.2526 0.087 -0.0744 1.2404 0.1866zm0.3665 0.1444l0 0 0.863 0.5162 -0.017 0.0841 -1.1166 0.3633 0.2706 -0.9636z"/>
   <path class="fil1" d="M131.7068 72.2466c-0.6542,0.3222 -2.4782,1.2661 -2.7263,1.4636 1.2634,0.2109 2.4814,0.4929 3.5891,1.1302l0.9354 0.6148 -0.0317 0.0964 -1.1195 0.0746 -2.7683 -0.0642c-2.6021,-0.0635 -5.1904,0.0428 -7.7189,0.7611 -1.9007,0.5461 -3.6683,1.3756 -5.3203,2.4891l0.3716 -0.4986 0.4262 -0.5156c1.754,-2.1626 3.9051,-3.8627 6.2561,-5.3229 1.1873,-0.7364 2.3236,-1.5336 3.2282,-2.6189 1.0854,-1.3001 1.8212,-2.7916 2.3177,-4.3898 0.4399,-1.4097 0.7807,-2.8502 1.1758,-4.2764l0.0744 -0.3142c1.4521,3.7753 1.2379,9.1887 -4.1586,12.7433l0.211 0.0324 2.1707 0.0636 0.3668 -0.1716c0.3977,-0.4027 4.1047,-4.0708 4.6856,-6.1119 0.5687,-1.9538 0.761,-3.9586 0.7329,-5.9822l-0.0744 -2.2779 -0.0532 -0.432 -1.0487 1.3339 -0.2054 0.2188c-0.1869,0.1977 -0.3891,0.2259 -0.6032,0.0744 -0.2087,-0.1656 -0.2087,-0.383 -0.0849,-0.6017l0.4816 -0.8837c0.5294,-1.2119 0.634,-2.4827 0.5187,-3.7829 -0.1521,-1.7786 -0.6887,-3.4505 -1.4408,-5.0635l-0.132 -0.2399 -0.1468 0.2035c-0.2708,0.5119 -0.7588,0.8303 -1.125,1.2455l-0.9187 1.0828 -0.9024 1.0127 -0.442 0.453c-1.9255,2.766 -3.3836,5.7718 -4.3703,8.9936 -0.5156,1.7056 -0.9658,3.4369 -1.4685,5.148 -0.127,0.4263 -0.2848,0.846 -0.4627,1.2521 -0.4845,1.0399 -1.2203,1.4207 -2.3062,1.0568 -0.75,-0.2482 -1.4656,-0.6147 -2.1286,-1.0294 -1.2065,-0.7469 -2.3028,-1.6772 -3.3067,-2.6727l-0.2093 -0.4399c-0.0745,-1.1589 -0.1468,-2.3116 -0.1776,-3.4677 -0.053,-2.0421 -0.1238,-4.083 -0.1095,-6.1237 0.0099,-2.0549 0.0636,-4.1209 0.2089,-6.1744 0.2108,-2.9202 1.4717,-5.4043 3.4194,-7.5616 1.8611,-2.0605 4.1279,-3.4982 6.8032,-4.2599 0.978,-0.2791 1.9708,-0.4839 2.9998,-0.467 1.6295,0.0322 2.87,0.7588 3.7635,2.0969 0.8065,1.1936 1.1841,2.5542 1.39,3.9609 0.1298,0.8655 0.1885,1.7491 0.2844,2.6931l0.4198 -0.6817c1.0316,-1.8584 1.6469,-3.8572 1.9232,-5.957 0.0958,-0.7813 0.1297,-1.5765 0.1775,-2.3606l-0.1525 -0.3071c-1.8151,-0.9075 -2.7486,-2.4574 -3.2589,-4.3384l-0.1184 -0.5638 -0.0958 -0.5892 -0.2675 0.1543c-0.9729,0.6115 -1.9509,1.2231 -3.0731,1.5093 -0.3544,0.0841 -0.7582,0.1318 -1.116,0.0841 -0.7419,-0.1066 -1.2349,-0.7602 -1.1873,-1.5612l0.1781 -1.8472c-4.1224,1.6943 -7.5507,4.2906 -10.0173,8.1311 -2.4612,3.8362 -3.4794,8.0006 -3.0337,12.555l-0.138 -0.2792c-1.4776,-3.7395 -1.3791,-7.413 0.4419,-11.0135 1.0635,-2.1109 2.6082,-3.8362 4.4098,-5.3455l0.3044 -0.2707 -1.2376 0.0028c-1.9483,0.0758 -3.8907,0.209 -5.8052,0.634 -1.522,0.3506 -3.0134,0.8065 -4.2143,1.8613l-1.0214 1.1193c-0.8683,-0.4713 -1.8151,-0.8037 -2.8161,-0.9959 -2.1033,-0.3942 -4.1639,-0.1543 -6.1858,0.4825 -1.3785,0.4363 -2.689,1.0478 -3.9328,1.7814l-0.2791 0.0646 1.3392 -1.1768c1.4547,-1.1866 3.0196,-2.1587 4.8408,-2.6692 1.5253,-0.4321 3.0308,-0.411 4.5082,0.1711 0.6064,0.237 1.1501,0.6256 1.7537,0.9622l0.5414 -0.6494c1.246,-1.3002 2.8109,-1.9959 4.5504,-2.3466 1.2399,-0.2525 2.5033,-0.3913 3.7548,-0.2132 1.362,0.1963 2.6983,0.5288 4.0516,0.8163l0.4966 -0.0954c2.557,-1.9594 5.3397,-3.5472 8.311,-4.8012 0.2875,-0.1179 0.6339,-0.1346 0.9507,-0.1557 1.2743,-0.0631 2.5319,-0.0322 3.7723,0.3156 2.3904,0.655 3.8451,2.1544 4.2905,4.6091 0.2488,1.3564 0.3755,2.7267 0.3495,4.1111 -0.0634,2.5261 -0.5379,4.9583 -1.5784,7.2573 -0.423,0.9299 -0.9923,1.7925 -1.5,2.6803 -0.1804,0.3157 -0.5075,0.6116 -0.5293,0.9356 -0.021,0.3044 0.2789,0.6228 0.4004,0.9483 0.2739,0.7756 0.783,1.4054 1.2152,2.0857 0.5665,0.8991 1.057,1.8613 1.4547,2.8417 0.8203,2.0381 1.057,4.1953 0.9812,6.3834 -0.0202,0.673 0.451,7.1661 -4.7141,11.1725l0.0056 -0.0022zm-8.0829 -29.5602l0 0 0.138 -0.1656 0.7726 -1.0183 0.2932 -0.1795 0.1321 0.338 0.0055 0.5526 0.7329 -0.5695 0.2564 -0.0744 0.1239 0.2763 0 0.3774 0.7387 -0.5681 0.2789 -0.0743 0.1161 0.2833 0.0049 0.5667 0.3668 -0.0028c0.2739,-0.0323 0.3888,0.0855 0.3664,0.3675l-0.0049 1.0084 1.1901 -1.1053c0.2482,-0.2259 0.2733,-0.3478 0.0202,-0.5639 -0.2761,-0.2341 -0.5841,-0.4487 -0.9112,-0.6002 -1.0908,-0.5162 -2.2692,-0.7532 -3.445,-0.9734l-1.1759 -0.2034 0.0005 2.3284zm-6.6871 18.0294l0 0 -0.0752 -0.0322 -0.2508 0.3226c-0.3018,0.6087 -0.612,1.2117 -0.8466,1.8433 -0.2142,0.5277 -0.1776,0.5582 0.3639,0.7671 1.6293,0.6258 3.3519,0.8772 5.0575,1.1391l0.2144 -0.1063 0.5444 -1.6892 -0.0744 -0.0428 -0.5245 0.5777 -0.5444 0.2536 -1.5533 0.0028 -0.4319 -0.1578c-0.3045,-0.4142 -0.699,-0.4964 -1.1785,-0.3699l-0.2652 0.0104c-0.4059,0.0099 -0.567,-0.1693 -0.538,-0.5775l0.1024 -1.9408zm3.0475 -16.3547l0 0c1.1472,-0.8345 1.9619,-2.9399 1.4233,-3.7955l-1.9396 1.4082 -0.0847 0.2273 0.601 2.16zm9.1992 2.2582l0 0 0.1069 -0.0322 1.0378 -1.0225 0.1951 -0.4067 0.0531 -0.9664c0.0075,-0.6915 -0.2877,-0.9622 -0.9665,-0.9047l-0.4181 0.0744 0 3.264 -0.005 0 -0.0033 -0.0057zm-37.288 22.7349l0 0 0 0.0038c2.4864,-1.8918 4.2822,-4.2965 5.7851,-6.9469 1.4941,-2.6421 2.5797,-5.4543 3.3549,-8.3873l-0.1014 0.1178c-1.8775,3.581 -4.4373,6.6374 -7.3754,9.3862 -3.0023,2.8053 -6.3007,5.2127 -9.8193,7.3155 -1.3814,0.8235 -2.7966,1.5742 -4.201,2.3571l-0.2283 0.2345 -0.0084 1.3336 0.9222 -0.0747c1.9734,-0.1868 3.958,-0.3495 5.9261,-0.5671 2.351,-0.2624 4.6742,-0.6508 6.9804,-1.2092 1.6381,-0.4005 3.2649,-0.8909 4.7842,-1.6579l0.4256 -0.2449c-2.2637,-0.1414 -4.3783,-0.7051 -6.4448,-1.6608zm-12.5937 -5.21l0 0 0.1135 0.0789 0.1689 -0.2504c1.4409,-1.4968 2.9662,-2.9062 4.7026,-4.0887 1.407,-0.9607 2.8814,-1.7757 4.5844,-2.094 0.5724,-0.1066 1.1587,-0.1642 1.7932,-0.0421 -2.1457,3.5402 -5.089,6.0047 -9.0279,7.256 0.4488,0.0373 0.8941,0.0752 1.3424,0.0324 1.7335,-0.1578 3.318,-0.8038 4.821,-1.669 2.4415,-1.4097 4.4995,-3.2826 6.4111,-5.3291 1.7872,-1.916 3.3858,-3.9919 4.8882,-6.1435l0.6292 -0.9159 -0.0428 -0.1081 -0.8181 0.0085c-0.9806,0.1725 -1.9593,0.3605 -2.9263,0.5751 -3.2112,0.7252 -6.2864,1.8444 -9.134,3.5065 -2.9011,1.693 -5.3794,3.8489 -7.2965,6.6205l-0.2004 0.4623 -0.0084 2.1006zm23.9017 17.6995l0 0c-0.4876,1.0515 -1.1445,1.9254 -1.9422,2.7094 -1.3675,1.3473 -2.997,2.2864 -4.7674,2.9882 -2.4442,0.9698 -5.0012,1.4886 -7.6148,1.7961 -2.5263,0.2931 -5.0609,0.3835 -7.5956,0.3292l-1.9395 -0.0641c-0.099,-0.4898 -0.0755,-0.4898 0.406,-0.5325 3.172,-0.2514 6.3179,-0.6181 9.3855,-1.4997 1.4011,-0.4093 2.7544,-0.9133 3.9247,-1.8217l0.5692 -0.5013 -0.8174 -0.4263c-0.9529,-0.3528 -1.9483,-0.4598 -2.9577,-0.5446 -2.4862,-0.2264 -4.9874,-0.2006 -7.4908,-0.1781l-2.5544 0.0855 -0.2116 -0.0747 1.314 -0.5671c1.7593,-0.6902 3.586,-1.0798 5.4554,-1.294 2.704,-0.3102 5.416,-0.2565 8.1283,-0.2339 2.0495,0.0202 4.105,-0.0029 6.16,-0.021l2.5483 -0.1495zm26.8233 5.9064l0 0 0.0028 0c5.0379,-4.1471 7.7753,-9.1993 6.6843,-15.8558l-0.0958 0.2367c-0.3189,1.5056 -0.7978,2.9603 -1.4295,4.3586 -1.6408,3.5554 -4.0906,6.4791 -7.0849,8.9544 -3.1351,2.5911 -6.628,4.5865 -10.3663,6.1316l-2.3514 0.9112 0.3922 0 2.3231 -0.2538c3.5324,-0.4564 7.0311,-1.1132 10.4452,-2.179 2.4415,-0.7643 4.7957,-1.7028 6.919,-3.1637 1.2827,-0.8793 2.3904,-1.9171 3.1461,-3.2956l0.2928 -0.5922c-1.3306,1.0683 -2.6922,2.06 -4.1638,2.8841 -1.4744,0.8168 -3.0026,1.4936 -4.7137,1.8634zm-36.5468 -13.098l0 0 0.1664 0.2558c0.8208,1.1675 1.7484,2.2333 2.8366,3.1635 2.3402,2.0098 5.072,3.1012 8.1255,3.3603 2.774,0.2339 5.4746,-0.1862 8.0967,-1.1161l0.2281 -0.1101 -1.4465 -0.1434c-2.024,-0.2198 -3.9804,-0.7024 -5.8105,-1.5989 -2.7434,-1.35 -4.9312,-3.2473 -6.0023,-6.2389 -1.703,1.6208 -3.7553,2.4481 -6.194,2.4279zm17.7279 8.0628l0 0 -0.6176 0.9523c-0.899,1.2093 -2.0776,2.1122 -3.3349,2.9039 -2.9659,1.8744 -6.194,3.1549 -9.4925,4.2764l-1.7483 0.5638c4.3388,0.1694 8.5116,-0.3354 12.2808,-2.8842 -0.234,4.1926 -1.714,7.5391 -5.7207,9.366 0.6318,0.0372 1.2744,0.0854 1.9061,0.0316 2.3177,-0.1911 4.043,-1.3527 5.2271,-3.3236 1.1057,-1.8639 1.5029,-3.9273 1.6347,-6.0505 0.0753,-1.0262 0.0753,-2.0518 0.0428,-3.0727 -0.0196,-0.8942 -0.1029,-1.7932 -0.1775,-2.7631zm7.3666 3.9076l0 0 0 0.0023c2.9377,-4.5871 7.327,-6.9354 12.5036,-8.1025 -1.2009,-0.0214 -2.4024,0 -3.5946,0.0636 -1.8384,0.1019 -3.6372,0.4598 -5.3767,1.097 -1.9986,0.7358 -3.7465,1.8634 -5.1114,3.5126 -1.5479,1.8749 -2.3429,4.0545 -2.5259,6.468l0 0.8224 0.2516 -0.0854c1.1697,-0.5079 2.3429,-1.0011 3.5099,-1.5308 2.1796,-0.9951 4.3333,-2.0409 6.3374,-3.3746l0.5468 -0.4005c-2.289,0.1101 -4.4829,0.5243 -6.5407,1.528zm1.1729 -12.4248l0 0 -0.029 -0.0986 -0.7555 0c-0.9248,0.0566 -1.8585,0.1897 -2.7856,0.1694 -2.2129,-0.0483 -4.1638,-0.829 -5.7797,-2.3653 -1.401,-1.3307 -2.2974,-2.9855 -2.974,-4.7618 -0.8629,-2.2524 -1.2553,-4.5953 -1.4575,-6.9753 -0.0876,-1.0828 -0.0772,-2.1741 -0.1303,-3.2527l-0.0959 -0.7728 -0.1233 0 -0.1472 0.5105 -0.2122 1.6284c-0.2086,2.1713 -0.4707,4.3422 -0.3046,6.5272 0.1457,1.6696 0.3122,3.3356 0.8088,4.9481 0.4282,1.4235 1.0547,2.7489 2.0863,3.8425 1.6773,1.7987 3.8226,2.4169 6.2111,2.2782 1.6377,-0.0986 3.2278,-0.5217 4.7448,-1.167l0.944 -0.5107zm-40.4485 -16.3488l0 0 0 0.0042c4.1867,-3.2682 8.8981,-5.2837 13.9102,-6.6737l-0.3351 -0.0435 -5.5344 -0.0954c-1.6153,-0.0126 -3.2311,-0.0042 -4.8437,-0.0028 -0.3748,0 -0.4425,-0.0225 -0.3719,-0.4025 0.093,-0.5807 0.2169,-1.153 0.3834,-1.7169l0.5245 -1.4433 -0.8291 0.3549c-1.0969,0.5751 -1.9341,1.4348 -2.6868,2.3985l-0.2088 0.6003c-0.011,2.2162 -0.0083,4.4267 -0.0083,6.6386l0 0.3816zm14.7788 -12.5522l0 0 0.0006 0.0042c1.7843,-2.1152 3.8648,-3.8236 6.5007,-4.804 -2.1707,-1.5064 -5.1929,-1.7322 -7.6454,-0.641 -1.8641,0.8261 -3.3581,2.1207 -4.6774,3.6398 -1.7199,1.9876 -3.0168,4.2458 -4.1728,6.591l0.0026 0.0744 0.0598 -0.0519 0.4877 -0.7393c1.4827,-2.226 3.1549,-4.285 5.2577,-5.9626 1.7002,-1.3578 3.5608,-2.3733 5.7404,-2.7085 0.6509,-0.0982 1.3078,-0.1318 1.9904,0.0631l-0.1582 0.1235c-1.5506,1.1502 -2.7203,2.6187 -3.5521,4.3482 -0.2763,0.5666 -0.8541,0.6929 -1.2771,1.0436 0.259,-1.1068 0.8317,-2.0507 1.3446,-3.0339l-0.2314 0.1879c-0.7385,0.7841 -1.4996,1.5457 -2.2129,2.355 -1.0432,1.1894 -2.0185,2.4378 -2.738,3.8642l-0.5127 1.2119 0.0787 0.0533c3.4707,-2.9062 7.0143,-5.7115 11.1024,-7.7326 -1.9621,0.2819 -3.6765,1.1837 -5.3876,2.1137zm-14.776 35.0018l0 0 0.0055 -1.7987 0.1551 -0.2339 0.4399 -0.3412c-0.6033,-0.1491 -0.6033,-0.1491 -0.6033,-0.7671l0 -1.1391 13.1037 0.3972 -1.3926 0.8262c-1.8409,0.9523 -3.8113,1.5731 -5.8189,2.007 -1.8661,0.4093 -3.758,0.7045 -5.6473,1.052l-0.2421 0 0 -0.0023zm12.7207 -40.7358l0 0c-1.0009,-0.2987 -2.0667,-0.6592 -3.1603,-0.9285 -1.1589,-0.2875 -2.3373,-0.3577 -3.5268,-0.115 -1.7905,0.3576 -2.8787,1.4714 -3.4316,3.177 -0.3463,1.0856 -0.4256,2.2105 -0.3693,3.341l0.2116 2.7576 -0.651 -1.6494c-0.4541,-1.2442 -0.7812,-2.5149 -0.9364,-3.8293 -0.1157,-1.0267 -0.0904,-2.0492 0.2115,-3.0451 0.623,-1.9959 2.2416,-3.1124 4.3192,-2.9371 1.5506,0.1263 3.0365,0.4812 4.3646,1.3676 0.9357,0.6284 1.9084,1.1923 2.8699,1.7898l0.0985 0.0715zm14.4291 63.3495l0 0 0.7864 -0.8312c1.8578,-1.8633 3.8709,-3.5267 6.1437,-4.8658 1.9197,-1.1309 3.9551,-1.9708 6.1485,-2.3768l1.1928 -0.1267 -0.1273 0.096c-1.9395,0.8717 -3.6228,2.1088 -5.2269,3.4847 -1.5839,1.3643 -3.025,2.8785 -4.3867,4.474l-0.471 0.2087 -4.0228 -0.0021 -0.0367 -0.0609zm-2.3286 -46.8334l0 0 -0.001 0c0.9581,-0.7223 1.9395,-1.1993 3.0277,-1.4755 -0.2351,2.5037 -0.2351,3.0199 0.0321,4.4632 0.2511,1.39 1.0516,3.8145 1.3874,4.1672l-0.0209 -0.1949c-0.3512,-1.8291 -0.3512,-3.6764 -0.1401,-5.5208 0.3156,-2.6945 1.0229,-5.2879 2.0211,-7.8057l1.0152 -2.4139 -0.8853 0.8234c-1.8044,1.7168 -3.5494,3.4967 -5.0294,5.5039 -0.5352,0.7336 -1.0404,1.5022 -1.407,2.4532zm-5.261 46.8981l0 0 -2.9631 0 -5.9404 -0.0049 -0.6256 -0.0856 -6.4336 -1.8123 -0.2004 -0.0854c5.6105,-1.2377 10.9837,-0.411 16.1686,1.9143l-0.0055 0.074zm-19.5629 -9.4611l0 0c6.0955,2.2749 12.3823,2.6021 18.7482,2.3285l-1.9088 0.2965c-1.6942,0.1917 -3.3802,0.3917 -5.0748,0.5326 -2.4945,0.2142 -4.9924,0.2142 -7.4848,-0.0531 -1.3363,-0.1408 -2.6529,-0.4231 -3.9867,-0.6341 -0.2509,-0.0427 -0.3127,-0.1489 -0.3072,-0.3808l0.0141 -2.0897zm23.9951 -53.8169l0 0 -1.1221 0.9552c-0.8231,0.7406 -1.5928,1.5359 -2.0777,2.5626l-0.2679 0.7925c1.751,-2.2722 4.2544,-2.7772 6.8905,-3.0704l-0.1218 -0.1487c-0.854,-0.634 -1.677,-1.3157 -2.5679,-1.909 -0.8568,-0.5638 -1.8103,-0.9579 -2.8562,-1.0548 -0.6877,-0.0645 -1.3168,0.0842 -1.937,0.5387 1.5423,-0.0435 2.825,0.5091 4.06,1.3339zm6.2308 2.1053l0 0 0.1445 0.0266c0.2963,-1.3451 1.097,-2.355 2.1878,-3.1334 0.88,-0.6312 1.7846,-1.2344 2.6842,-1.8459 0.1907,-0.1277 0.3495,-0.2595 0.3068,-0.5078 -0.0394,-0.2397 -0.2258,-0.3352 -0.4454,-0.3884 -0.9528,-0.2398 -1.8837,-0.1304 -2.7319,0.3071 -0.8486,0.4391 -1.6321,1.0072 -2.4468,1.522l-0.2932 0.3927c-0.0482,0.2496 -0.0482,0.446 0.1661,0.5863 0.2258,0.1416 0.4125,0.0463 0.601,-0.1164l1.1107 -0.944 0.2175 0.3099 -0.9133 1.0828 -0.3464 0.6874 -0.064 0.5021 -0.1775 1.5191zm7.7105 29.4815l0 0 -0.9862 -0.5217c-1.3167,-0.6175 -2.5258,-1.3922 -3.5636,-2.4129 -2.2748,-2.2217 -3.3569,-4.9707 -3.5043,-8.1177l-0.0849 -0.9243c-0.5896,1.5428 -0.4653,5.509 1.5024,8.0799 1.4975,1.951 5.072,4.1307 6.6367,3.8968zm-37.9336 -0.8378l0 0 0.0028 -1.5817 0.1244 -0.2055 4.4287 -1.6745c-0.4368,0.7978 -3.3126,2.9604 -4.5559,3.4623l0 -0.0006zm48.7203 -15.9401l0 0c-2.1599,3.5319 -3.8963,7.3611 -4.6292,11.5816l4.6292 -11.5816zm-15.9656 -4.2794l0 0c-0.2343,2.0858 -0.378,4.1911 -1.5845,6.0299 1.5524,-0.8907 2.3347,-4.1308 1.5845,-6.0299zm-31.0292 36.3119l0 0 0.0026 -0.0756 -1.7138 -0.1555 0 0.4849 1.7112 -0.2538z"/>
   <path class="fil2" d="M71.724 196.7407l4.268 3.0026 3.3297 -2.3425 0.1013 -20.6515 -7.699 0 0 19.9914zm7.9838 -93.6619l0 0 63.6118 -0.004 -5.9316 17.9531 -0.8516 0.5775 -13.6565 0 0.005 27.9481 -0.3972 1.3419 -7.5304 10.5609 -0.0635 -39.7319 -15.4416 -0.0322 -0.0176 56.0927 -0.4937 1.133 -7.491 6.5212 0 -63.7049 -11.7366 -0.0202 -0.0758 13.4845 -7.9132 0 0 -13.4764 -11.748 0 0 64.6977 -7.4829 -6.4844 -0.5018 -1.1928 0.0087 -56.9946 -15.4722 -0.0322 0 39.9071 -0.11 0.0323 -7.5054 -11.0742 -0.383 -1.3506 0.0082 -27.5612 -13.8708 -0.0532 -6.0165 -18.4945 63.0818 -0.0426 0 -99.1865 8.018 0 -0.0428 99.1865z"/>
   <path class="fil3" d="M76.1526 201.9791l-1.0202 -0.4986c-0.8234,-0.4092 -20.302,-10.2567 -39.4221,-36.1095 -11.2014,-15.1343 -19.9159,-32.6391 -25.9039,-52.0274 -7.4712,-24.1865 -10.7023,-51.3811 -9.5938,-80.8291l0.0475 -1.2343 75.515 -31.2802 74.6153 31.2156 0.1865 1.0338c0.1949,1.08 4.6595,26.8744 -2.0689,60.8038 -3.9638,19.9299 -11.0127,38.4864 -20.9424,55.1373 -12.4189,20.823 -29.4022,38.7027 -50.4796,53.1575l-0.9335 0.6312zm-72.1344 -168.0831l0 0c-2.1652,64.8046 17.6151,105.895 34.6522,128.9968 16.1884,21.9479 33.0107,32.2441 37.1917,34.5924 45.9406,-31.9285 62.8056,-74.7702 68.8474,-105.1903 5.8603,-29.5013 2.9708,-53.2232 2.2163,-58.3428l-71.1649 -29.7766 -71.7427 29.7204z"/>
   <path class="fil0" d="M28.1656 106.5035l-9.2443 11.4041 9.5829 0 1.2631 -1.2179 7.2085 0 0.925 0.903 9.986 0 -8.9992 -11.0857 -10.7219 0 0 -0.0034zm3.2057 7.5026l0 0 1.8492 -3.6935 1.847 3.6935 -3.6962 0zm92.061 -7.5026l0 0 -10.7275 0 -9.2413 11.4041 9.5828 0 1.2629 -1.2179 7.2203 0 0.9161 0.903 9.9774 0 -8.9906 -11.0891zm-7.525 7.5026l0 0 1.8497 -3.6935 1.8493 3.6935 -3.699 0zm-50.648 -2.1511l0 0c0,7.508 20.8317,5.478 20.8317,5.478l0 -3.6908c0,0 -10.8489,2.3851 -10.8489,-1.7845 0,-4.1613 10.8489,-1.7818 10.8489,-1.7818l0 -3.6961c0,0.005 -20.8317,-2.013 -20.8317,5.4752z"/>
   <path class="fil3" d="M62.6008 163.8287c1.4797,0 1.8097,-0.7162 2.1055,-1.5308l1.2913 0 0 12.2018 -1.9171 0 0 -9.315 -1.4797 0 0 -1.356zm11.3443 7.6372l0 0c0,2.0551 -0.9387,3.1691 -2.9264,3.1691 -1.8804,0 -2.8585,-1.1166 -2.8585,-3.0645l0 -0.3156 1.8125 0 0 0.44c0,0.8717 0.3837,1.1982 0.9957,1.1982 0.6821,0 1.0629,-0.3305 1.0629,-1.4969l0 -2.23c-0.33,0.6954 -0.925,1.0795 -1.7764,1.0795 -1.4098,0 -2.1258,-0.9918 -2.1258,-2.7851l0 -2.2273c0,-1.9571 1.0261,-3.0758 2.9154,-3.0758 1.8804,0 2.9065,1.1161 2.9065,3.0758l-0.0059 6.2325zm-1.9138 -4.1696l0 0 0 -2.1965c0,-0.8712 -0.3809,-1.1868 -0.9929,-1.1868 -0.6143,0 -0.9951,0.3156 -0.9951,1.1868l0 2.1939c0,0.8766 0.3808,1.2064 0.9951,1.2064 0.612,0 0.9929,-0.3303 0.9929,-1.2037zm4.372 -3.4676l0 0c1.4831,0 1.8131,-0.7162 2.1062,-1.5308l1.2969 0 0 12.2018 -1.9172 0 0 -9.315 -1.4831 0 -0.0028 -1.356zm5.5684 1.4009l0 0c0,-1.9565 1.0261,-3.0759 2.9011,-3.0759 1.8832,0 2.9177,1.1166 2.9177,3.0759l0 6.3409c0,1.9478 -1.0373,3.0645 -2.9177,3.0645 -1.8777,0 -2.9011,-1.1166 -2.9011,-3.0645l0 -6.3409zm1.9116 6.4648l0 0c0,0.8717 0.3803,1.1983 0.9922,1.1983 0.6203,0 0.9951,-0.3305 0.9951,-1.1983l0 -6.5946c0,-0.8712 -0.3748,-1.1977 -0.9951,-1.1977 -0.6119,0 -0.9922,0.332 -0.9922,1.1977l0 6.5946z"/>
   <path class="fil1" d="M73.012 145.8666l1.9314 -3.7465 0 -1.0854 -2.5093 0 0 -1.9232 2.5121 0 0 -2.4102 1.8299 0 0 2.6049 2.4158 -0.096 0 2.0723 -2.515 0 0.0992 0.8377 1.6383 3.7465 -0.0926 10.9028 -5.1113 0 -0.1984 -10.9028zm-4.8236 10.9023l0 0 1.7226 -0.3831c-4.8408,-11.5794 3.101,-10.5192 3.101,-10.5192l0.674 -1.2996c-12.7459,-3.0475 -5.4976,12.2019 -5.4976,12.2019zm14.9504 0l0 0c0,0 7.2482,-15.2494 -5.4949,-12.2019l0.6712 1.2996c0,0 7.9364,-1.0601 3.11,10.5192l1.7137 0.3831zm-15.7259 0l0 0 0 2.6052 16.3156 0 0 -2.6052c-8.4015,-1.8324 -16.3156,0 -16.3156,0zm14.8859 -12.4107l0 0c0,0 14.5501,0.9304 1.4297,12.4107l-0.7755 -0.085c0,0 10.7187,-9.9352 -0.6712,-11.3844l0.017 -0.9413zm-13.4142 0l0 0 0.017 0.9413c-11.3898,1.4492 -0.6766,11.3844 -0.6766,11.3844l-0.7698 0.085c-13.1234,-11.4803 1.4294,-12.4107 1.4294,-12.4107z"/>
  </g>
 </g>
</svg>
