<?xml version="1.0" encoding="UTF-8" standalone="no"?>
<!-- Created with Inkscape (http://www.inkscape.org/) -->

<svg
   xmlns:dc="http://purl.org/dc/elements/1.1/"
   xmlns:cc="http://creativecommons.org/ns#"
   xmlns:rdf="http://www.w3.org/1999/02/22-rdf-syntax-ns#"
   xmlns:svg="http://www.w3.org/2000/svg"
   xmlns="http://www.w3.org/2000/svg"
   xmlns:sodipodi="http://sodipodi.sourceforge.net/DTD/sodipodi-0.dtd"
   xmlns:inkscape="http://www.inkscape.org/namespaces/inkscape"
   width="71.971764mm"
   height="79.375031mm"
   viewBox="0 0 71.971764 79.375031"
   version="1.1"
   id="svg1854"
   inkscape:version="0.92.4 (5da689c313, 2019-01-14)"
   sodipodi:docname="Gazelec Ajaccio logo.svg">
  <defs
     id="defs1848">
    <radialGradient
       id="SVGID_1_"
       cx="-312.12259"
       cy="-595.29102"
       r="0.1218"
       gradientTransform="matrix(-186.25501,339.34367,334.66121,183.6837,141233.69,215395.25)"
       gradientUnits="userSpaceOnUse">
      <stop
         offset="0"
         style="stop-color:#0079C0"
         id="stop1758" />
      <stop
         offset="1"
         style="stop-color:#002C63"
         id="stop1760" />
    </radialGradient>
  </defs>
  <sodipodi:namedview
     id="base"
     pagecolor="#ffffff"
     bordercolor="#666666"
     borderopacity="1.0"
     inkscape:pageopacity="0.0"
     inkscape:pageshadow="2"
     inkscape:zoom="0.98994949"
     inkscape:cx="-1.1418413"
     inkscape:cy="166.1123"
     inkscape:document-units="mm"
     inkscape:current-layer="layer1"
     showgrid="false"
     inkscape:window-width="1366"
     inkscape:window-height="705"
     inkscape:window-x="-8"
     inkscape:window-y="-8"
     inkscape:window-maximized="1" />
  <metadata
     id="metadata1851">
    <rdf:RDF>
      <cc:Work
         rdf:about="">
        <dc:format>image/svg+xml</dc:format>
        <dc:type
           rdf:resource="http://purl.org/dc/dcmitype/StillImage" />
        <dc:title></dc:title>
      </cc:Work>
    </rdf:RDF>
  </metadata>
  <g
     inkscape:label="Layer 1"
     inkscape:groupmode="layer"
     id="layer1"
     transform="translate(-92.906279,-113.40885)">
    <path
       inkscape:connector-curvature="0"
       style="fill:#b0301f;stroke-width:1.24699557"
       d="m 164.4077,124.31759 -0.19088,-1.76075 -0.19088,-1.76202 -0.0485,-0.44774 -0.41663,-0.17203 -1.65598,-0.68462 -1.6573,-0.68084 c -0.5362,-0.22199 -13.31042,-5.40074 -31.42302,-5.40074 -18.12758,0 -30.783334,5.18997 -31.312064,5.40946 l -1.647278,0.68706 -1.647283,0.68712 -0.415267,0.17203 -0.04864,0.44632 -0.189559,1.75331 -0.190785,1.75453 c -0.694577,6.4295 -0.614766,12.99742 0.238198,19.5192 0.895344,6.84972 2.609962,13.33913 5.092729,19.28851 5.782319,13.85412 15.303129,23.78396 27.537409,28.71212 0.0636,0.0236 1.67348,0.68706 2.36432,0.88407 l 0.20548,0.0613 0.20832,-0.0599 c 0.61727,-0.17344 2.19473,-0.81177 2.3743,-0.88285 12.27915,-4.92561 21.84359,-14.84923 27.65087,-28.70457 2.49774,-5.95193 4.21857,-12.44378 5.1189,-19.29477 0.86169,-6.52179 0.94398,-13.09348 0.24319,-19.52421 z"
       id="path1750" />
    <path
       inkscape:connector-curvature="0"
       style="fill:#d43b23;stroke-width:1.24699557"
       d="m 94.365217,143.74452 c 0.887859,6.78119 2.583776,13.20447 5.040357,19.09277 5.702516,13.66333 15.079916,23.45098 27.122176,28.30057 0,0 1.63104,0.67213 2.28946,0.85919 0.59356,-0.16825 2.292,-0.85669 2.292,-0.85669 12.0921,-4.84832 21.51189,-14.63224 27.24061,-28.29435 2.46903,-5.88953 4.17369,-12.31531 5.06653,-19.09899 0.8492,-6.46815 0.92777,-12.97622 0.23565,-19.34714 l -0.19087,-1.76075 -0.19324,-1.76197 -1.65475,-0.6834 -1.65725,-0.68334 c -0.52999,-0.21822 -13.172,-5.34211 -31.13374,-5.34211 -17.97669,0 -30.496521,5.13261 -31.021508,5.3521 l -1.647278,0.68584 -1.647284,0.68712 -0.190784,1.75326 -0.189559,1.75452 c -0.684599,6.37088 -0.604793,12.87649 0.239423,19.34337 z"
       id="path1752" />
    <path
       inkscape:connector-curvature="0"
       style="fill:#f5c229;stroke-width:1.24699557"
       d="m 161.0882,124.66923 -0.19465,-1.76075 -0.0283,-0.26958 -0.24791,-0.10369 -1.65725,-0.68335 c -0.51127,-0.20973 -12.68815,-5.14387 -30.13362,-5.14387 -17.46045,0 -29.510167,4.93937 -30.015199,5.15137 l -1.647284,0.68707 -0.248142,0.10368 -0.02875,0.26818 -0.189559,1.75452 c -0.668222,6.17387 -0.590904,12.48116 0.228394,18.74731 0.857932,6.5617 2.496486,12.77049 4.86952,18.45307 5.43316,13.01986 14.32424,22.32494 25.71179,26.91512 0.0283,0.0141 0.74819,0.30164 1.17717,0.43643 l 0.13857,0.0424 0.13715,-0.0424 c 0.43266,-0.13479 1.14848,-0.42276 1.1809,-0.43407 11.43745,-4.58769 20.36718,-13.89527 25.82528,-26.9114 2.38551,-5.6863 4.02782,-11.89509 4.89196,-18.45802 0.82054,-6.27114 0.89784,-12.57843 0.22811,-18.75235 z m -0.68335,18.69249 c -0.85669,6.52301 -2.49151,12.69565 -4.86076,18.34081 -5.412,12.90264 -14.25567,22.12671 -25.57591,26.66326 0,0 -0.72576,0.29032 -1.1472,0.42417 -0.41758,-0.13479 -1.14726,-0.42747 -1.14726,-0.42747 -11.2691,-4.54032 -20.07414,-13.76061 -25.45867,-26.66453 -2.355571,-5.64516 -3.985393,-11.8178 -4.838338,-18.33831 -0.815537,-6.23122 -0.891601,-12.50364 -0.226933,-18.63886 l 0.189559,-1.75325 1.647283,-0.68712 c 0.500046,-0.20926 12.471199,-5.1164 29.839339,-5.1164 17.35945,0 29.45405,4.90318 29.9591,5.1114 l 1.65975,0.6809 0.18946,1.76325 c 0.66714,6.13771 0.59107,12.41008 -0.22952,18.64258 z"
       id="path1754" />
    <path
       inkscape:connector-curvature="0"
       style="fill:#b0301f;stroke-width:1.24699557"
       d="m 157.61534,125.03958 0.11594,-0.28042 c -0.0283,-0.009 -11.89637,-4.90191 -28.90663,-4.90318 -17.01025,0 -28.74822,4.89323 -28.77441,4.90318 l -0.164623,0.0688 -0.0198,0.17815 c -0.283066,2.62244 -0.428982,5.30846 -0.428982,8.0269 0,10.68426 2.230865,21.83242 7.000625,31.34822 4.77101,9.50962 12.09461,17.3931 22.27012,21.4945 l 0.11358,0.0424 0.11359,-0.0424 c 10.22535,-4.1014 17.58389,-11.98238 22.37735,-21.4945 4.79345,-9.51457 7.03305,-20.66396 7.03305,-31.34822 0,-2.71595 -0.14328,-5.40324 -0.42889,-8.02563 l -0.0236,-0.17815 -0.1659,-0.0683 -0.11217,0.27949 -0.30163,0.033 c 0.28042,2.59995 0.42653,5.26603 0.42653,7.96082 0,10.59942 -2.22838,21.6628 -6.97197,31.0751 -4.74605,9.41234 -11.99609,17.16866 -22.06058,21.20266 l 0.11452,0.28184 0.11218,-0.28184 c -10.01447,-4.03649 -17.23084,-11.79032 -21.95321,-21.20262 -4.72113,-9.41107 -6.93704,-20.47567 -6.93704,-31.07514 0,-2.69601 0.14342,-5.36082 0.42522,-7.96205 l -0.30301,-0.033 0.11599,0.28043 0.0325,-0.0141 c 0.67837,-0.27666 12.14199,-4.84337 28.50757,-4.84337 8.44466,0 15.62109,1.21582 20.6814,2.43165 2.52766,0.60728 4.53037,1.2146 5.89829,1.67097 0.68462,0.22717 1.20961,0.41663 1.56375,0.54869 l 0.40012,0.15223 0.0971,0.0377 0.033,0.0141 0.12113,-0.27949 -0.30164,0.033 z"
       id="path1756" />
    <path
       inkscape:connector-curvature="0"
       style="fill:url(#SVGID_1_);stroke-width:1.24699557"
       d="m 157.61534,125.03958 c 0,0 -11.83901,-4.87947 -28.79064,-4.87947 -16.95291,0 -28.65596,4.87947 -28.65596,4.87947 -2.50397,23.14925 5.89704,51.38498 28.65596,60.55413 22.86491,-9.17038 31.30458,-37.4061 28.79064,-60.55413 z"
       id="path1763" />
    <path
       inkscape:connector-curvature="0"
       style="fill:#d43b23;stroke-width:1.24699557"
       d="m 110.49511,159.34322 v 11.31025 l 2.075,2.67979 v -13.99131 h -2.075 z"
       id="path1765" />
    <path
       inkscape:connector-curvature="0"
       style="fill:#b0301f;stroke-width:1.24699557"
       d="m 112.57011,173.33449 2.0725,2.45159 v -16.44286 h -2.0725 z"
       id="path1767" />
    <path
       inkscape:connector-curvature="0"
       style="fill:#d43b23;stroke-width:1.24699557"
       d="m 118.61928,159.34322 v 20.11404 l 2.07501,1.51883 v -21.63287 z"
       id="path1769" />
    <path
       inkscape:connector-curvature="0"
       style="fill:#b0301f;stroke-width:1.24699557"
       d="m 120.69429,180.97487 2.0725,1.53377 v -23.16542 h -2.0725 z"
       id="path1771" />
    <path
       inkscape:connector-curvature="0"
       style="fill:#d43b23;stroke-width:1.24699557"
       d="m 142.99304,159.34322 v 16.45907 l 2.07629,-2.29196 v -14.16711 z"
       id="path1773" />
    <path
       inkscape:connector-curvature="0"
       style="fill:#b0301f;stroke-width:1.24699557"
       d="m 145.06933,173.46169 2.06997,-2.67979 v -11.43868 h -2.06997 z"
       id="path1775" />
    <path
       inkscape:connector-curvature="0"
       style="fill:#d43b23;stroke-width:1.24699557"
       d="m 134.87013,159.34322 v 23.16669 l 2.07252,-1.35675 v -21.80994 z"
       id="path1777" />
    <path
       inkscape:connector-curvature="0"
       style="fill:#b0301f;stroke-width:1.24699557"
       d="m 136.94265,181.15194 2.07125,-1.57496 v -20.23376 h -2.07125 z"
       id="path1779" />
    <path
       inkscape:connector-curvature="0"
       style="fill:#d43b23;stroke-width:1.24699557"
       d="m 126.74346,159.34322 h 2.07375 V 172.398 h -2.07375 z m 0,18.67251 v 6.6652 l 2.07375,0.91155 v -7.57802 z"
       id="path1781" />
    <path
       inkscape:connector-curvature="0"
       style="fill:#b0301f;stroke-width:1.24699557"
       d="m 128.81721,159.34322 h 2.07251 V 172.398 h -2.07251 z m 0,18.67251 v 7.57675 l 2.07374,-0.97518 v -6.60034 z m 29.17597,-53.01979 -0.0283,-0.2234 -0.2069,-0.0858 c -0.0283,-0.009 -11.91008,-4.90695 -28.93655,-4.90818 -17.02523,0.001 -28.77317,4.89696 -28.80185,4.90818 l -0.205777,0.0872 -0.02498,0.2234 c -0.284338,2.62493 -0.42771,5.31467 -0.42771,8.03439 0,10.69425 2.232127,21.85485 7.009367,31.38187 2.38924,4.76103 5.4157,9.11806 9.12302,12.79792 3.70607,3.67741 8.0905,6.67769 13.18822,8.73645 l 0.14092,0.0561 0.14092,-0.0561 c 5.1214,-2.05753 9.52702,-5.05654 13.25057,-8.73645 5.5853,-5.51917 9.63551,-12.5585 12.28915,-20.21754 2.65608,-7.65904 3.91678,-15.93908 3.91678,-23.96103 0,-2.72216 -0.14469,-5.41068 -0.42889,-8.03689 z m -7.29246,39.07462 c -2.3668,4.70245 -5.36204,8.98586 -9.01824,12.59841 -3.62128,3.58013 -7.89475,6.49808 -12.85778,8.51197 -4.93936,-2.01139 -9.19036,-4.93184 -12.79543,-8.50947 -5.46059,-5.42194 -9.43851,-12.3565 -12.04971,-19.92698 -2.61246,-7.56926 -3.85697,-15.772 -3.85697,-23.71411 0,-2.61622 0.13593,-5.20123 0.40028,-7.72639 1.63232,-0.6422 12.75303,-4.76853 28.30183,-4.76603 8.43839,0 15.60864,1.21455 20.66269,2.42915 2.52893,0.60728 4.5266,1.21456 5.89457,1.66725 0.68461,0.22811 1.20583,0.41522 1.56124,0.54992 l 0.32049,0.12112 c 0.26582,2.52516 0.40155,5.11145 0.40155,7.72517 -0.001,10.58948 -2.22588,21.64282 -6.96448,31.04017 z"
       id="path1783" />
    <path
       inkscape:connector-curvature="0"
       style="fill:#f5c229;stroke-width:1.24699557"
       d="m 117.61795,127.86779 c 0.17457,0.32945 0.32548,0.66963 0.48134,1.00756 0.26063,-0.26205 0.48632,-0.55491 0.72325,-0.83921 0.16708,0.31154 0.31177,0.63721 0.45641,0.96142 0.38285,-0.23424 0.74072,-0.505 1.11108,-0.75692 -0.20078,0.55369 -0.43021,1.75576 -0.85794,2.16231 -0.30927,0.41899 -1.46646,0.36761 -1.90291,0.36761 -0.4427,0 -1.5974,0.0537 -1.91414,-0.36761 -0.41149,-0.55369 -0.62599,-1.51511 -0.87289,-2.16103 0.37162,0.25167 0.74196,0.50377 1.11356,0.75691 0.16458,-0.3153 0.3055,-0.64097 0.45641,-0.96146 0.24192,0.27948 0.48384,0.55991 0.72451,0.83925 0.16957,-0.3318 0.32798,-0.6684 0.48134,-1.00883 0.17335,0.32426 -0.15463,0.34311 0,0 z m -0.20577,-4.64754 c -0.20578,0.44161 -0.52374,0.82677 -0.85794,1.17713 0.33048,0.0141 0.59108,0.18193 0.79184,0.43266 -0.36285,0.0236 -0.64095,0.19842 -0.96392,0.33651 0.10599,0.065 0.18456,0.18334 0.29555,0.23943 -0.39528,-0.0872 -0.76316,0.033 -1.12604,0.16825 0.0349,0.0424 0.0724,0.0886 0.10723,0.13244 -0.56115,-0.13102 -0.96393,0.15082 -1.39414,0.45622 0.0948,-0.005 0.18706,-0.009 0.28184,-0.0141 -0.18579,0.1659 -0.36536,0.39025 -0.41527,0.63726 0.16957,-0.0848 0.30427,-0.20832 0.40278,-0.37139 0.0335,0.34641 -0.0848,0.67835 -0.28057,0.96141 0.92278,-0.34028 1.88171,-0.55863 2.86684,-0.61349 -0.52623,1.10483 1.29189,1.13848 0.76441,0 0.97889,0.0561 1.93659,0.26675 2.85437,0.61349 -0.17457,-0.29786 -0.30177,-0.6085 -0.28184,-0.96141 0.11222,0.15082 0.24814,0.27948 0.40278,0.38553 -0.0288,-0.27807 -0.21821,-0.47763 -0.41527,-0.64847 0.0973,0.009 0.19701,0.0141 0.29429,0.0236 -0.41527,-0.31813 -0.82552,-0.59479 -1.37919,-0.46753 0.0363,-0.0377 0.0724,-0.0797 0.10723,-0.11971 -0.35791,-0.1447 -0.73199,-0.26676 -1.12604,-0.18193 0.0736,-0.0985 0.16586,-0.17061 0.28184,-0.21586 -0.29428,-0.18333 -0.6023,-0.32048 -0.95145,-0.36055 -0.0524,-0.22811 0.65965,-0.4303 0.7644,-0.43265 -0.31177,-0.37516 -0.60978,-0.74071 -0.85793,-1.16469 0.55367,0.26298 1.12978,0.47036 1.68843,0.72199 -0.0935,-0.20596 -0.17084,-0.41899 -0.2282,-0.63598 0.45264,0.21963 0.8704,0.50632 1.24699,0.83925 -0.0886,-0.22952 -0.16957,-0.45999 -0.24192,-0.69583 0.43148,0.21586 0.8305,0.50255 1.13851,0.87663 -0.016,-0.19324 0.0611,-0.39543 0.041,-0.58857 0.5412,0.43643 0.96019,1.10856 0.88412,1.8256 0.24065,-0.19465 0.27934,-0.58484 0.26808,-0.86541 0.32049,0.36055 0.50129,0.82427 0.41527,1.31061 0.12343,-0.1348 0.3292,-0.19324 0.45514,-0.32568 0.0848,0.54743 -0.10972,1.34553 -0.37658,1.8381 -0.21571,0.67085 -1.21457,0.90405 -0.60354,1.80189 0.68335,1.01383 0.35291,-0.98512 0.32793,-0.94398 0.19328,-0.32426 0.26686,-0.60355 0.3417,-0.96891 0.0748,-0.36526 0.85169,0.14234 1.0587,0.15978 0.34419,0.0721 2.1785,-0.0141 1.71337,0.82049 -0.17834,0.3219 0.0424,0.92027 -0.36163,1.07868 -0.24942,0.0985 -1.23204,-0.0283 -1.05496,0.5412 0.12093,0.39401 1.45524,-0.94026 2.05007,-0.0961 0.27949,0.39401 -0.14714,0.72949 -0.0335,1.08363 0.15214,0.4714 0.73822,-0.3007 0.86665,-0.33793 -0.0424,0.26299 0.0599,0.45905 0.2941,0.58861 -0.38883,0.15695 -1.4465,0.36668 -1.46271,-0.31813 -0.016,-0.63348 -0.47137,-0.95269 -1.04499,-0.46753 -0.4452,0.38034 -1.13976,0.21209 -1.14848,-0.46377 -0.01,-0.52249 0.84172,-0.91405 0.81678,-1.18835 -0.016,-0.16825 -1.42158,-0.78312 -1.35299,0.15601 0.0836,1.03249 -1.12354,1.7271 -1.61985,0.61599 -0.0288,-0.0622 -0.35042,-1.08612 -0.40778,-0.46282 -0.0524,0.57985 0.35165,1.14848 0.77564,1.4964 0.47884,0.39259 1.12853,0.60482 1.74704,0.5412 0.69333,-0.0698 1.08114,-0.58857 1.63481,-0.009 0.30927,0.32284 -0.50254,1.05497 -0.66589,1.47519 -0.26563,0.68834 -0.22449,1.38917 -0.0386,2.09 0.35541,1.32927 0.99884,2.65981 0.98513,4.06143 -0.0151,1.38917 -0.95646,2.52893 -2.02389,3.32077 -0.82427,0.61105 -2.95288,1.22332 -3.31825,2.22088 0.45391,-0.55614 1.66847,-0.17579 1.45524,0.61477 -0.19701,0.72577 -0.92028,0.54497 -1.45524,0.51377 -0.45764,-0.0283 -0.90657,-0.0622 -1.36297,-0.11358 -0.30677,-0.033 -0.69707,0.10086 -0.98388,-0.0537 -0.27684,-0.15082 -0.26685,-0.91155 -0.48259,-0.91155 -0.2045,0 -0.23815,0.59728 -0.34292,0.75941 -0.21821,0.34688 -0.73448,0.18476 -1.06369,0.19937 -0.41527,0.0283 -0.828,0.11971 -1.24574,0.11971 -0.52374,0 -1.13477,0.2644 -1.52758,-0.25686 -0.6235,-0.82677 0.76566,-1.53382 1.34177,-0.86047 -0.18956,-0.64842 -1.40661,-1.07863 -1.93284,-1.35797 -0.81304,-0.43266 -1.58992,-0.919 -2.22963,-1.59362 -1.58244,-1.66974 -1.20335,-3.53649 -0.54244,-5.54416 0.31549,-0.95896 0.70205,-1.91416 0.40777,-2.93043 -0.20327,-0.70583 -1.26819,-1.41411 -0.55242,-1.9366 0.37535,-0.27571 0.56365,-0.009 0.98264,0.10982 0.54119,0.15223 1.11107,0.10604 1.62608,-0.1183 0.73448,-0.31908 1.51385,-1.15597 1.27443,-2.02266 -0.33421,0.10086 -0.98513,2.22838 -1.85304,0.86296 -0.17457,-0.27571 0.0561,-1.24325 -0.23819,-1.35424 -0.1085,-0.0424 -1.20211,0.25309 -1.23079,0.34782 -0.0549,0.16354 0.86791,0.83298 0.80431,1.33304 -0.11971,0.89534 -0.92651,0.45764 -1.3505,0.19323 -0.6185,-0.38411 -0.80805,0.20314 -0.82925,0.65342 -0.0325,0.6447 -1.1173,0.42653 -1.46397,0.28184 0.22821,-0.12442 0.33048,-0.31153 0.29429,-0.56486 0.10599,0.11359 0.31176,0.29693 0.44269,0.37045 0.63223,0.35301 0.29678,-0.48884 0.28057,-0.69456 -0.0302,-0.41145 0.29556,-0.70206 0.67462,-0.77068 0.67962,-0.12207 0.69209,0.53997 1.18839,0.58861 0.45142,0.05 0.29801,-0.51999 0.0137,-0.61227 -0.31799,-0.21303 -1.03501,0.19936 -1.0188,-0.50755 0.01,-0.48884 -0.36286,-0.93276 0.16213,-1.2557 0.41772,-0.25828 0.85918,-0.24084 1.32431,-0.23188 0.85793,0.0189 0.91904,-0.68957 1.26321,0.33792 0.101,0.27195 0.37657,0.50001 0.20949,0.78685 -0.10227,0.17344 -0.36036,0.6372 -0.096,0.79306 0.32421,0.19324 0.5387,-0.26298 0.60604,-0.48756 0.16462,-0.55492 -0.21072,-0.77191 -0.52249,-1.10733 -0.41776,-0.4501 -0.6634,-1.61983 -0.60978,-2.18597 0.11722,-0.0141 0.38407,0.23189 0.45514,0.31154 -0.0636,-0.47385 0.0848,-0.97014 0.42898,-1.30811 -0.0113,0.30446 0.0387,0.64097 0.26936,0.86418 -0.0761,-0.79061 0.36912,-1.31932 0.88287,-1.8493 -0.025,0.19559 0.0511,0.40532 0.0264,0.60105 0.32299,-0.35913 0.70954,-0.65841 1.13975,-0.87785 -0.0561,0.23047 -0.13092,0.45528 -0.2282,0.67213 0.39156,-0.30824 0.79433,-0.60106 1.24574,-0.81682 -0.0561,0.21444 -0.1322,0.42135 -0.22693,0.62354 0.54743,-0.24461 1.12479,-0.43785 1.65851,-0.72577 -0.19701,0.42276 -0.51002,0.2743 0,0 z m -3.99289,12.98244 c -0.13715,0.16731 -0.31549,0.23801 -0.5362,0.21586 0.14092,-0.17062 0.21199,-0.36668 0.21449,-0.58862 -0.0923,0.19088 -0.24815,0.26676 -0.46763,0.22953 0.31426,-0.22576 0.0372,-0.70955 0.0536,-0.99634 -0.0499,0.31295 -0.1995,0.52499 -0.54992,0.50378 0.32671,-0.26299 -0.0611,-0.77813 0.17457,-1.0799 -0.12094,0.22198 -0.47885,0.31671 -0.6846,0.156 0.29056,-0.0787 0.39778,-0.49629 0.65592,-0.65964 -0.25936,0.0985 -0.63223,0.009 -0.65717,-0.32426 0.17834,0.0825 0.35291,0.0749 0.52249,-0.0236 -0.0236,-0.11595 -0.3392,-0.32426 -0.0699,-0.41381 0.48384,-0.16354 0.0198,-0.70078 0.55367,-0.1494 0.0549,-0.13197 0.21821,-0.21822 0.28057,-0.34783 0.15463,0.0896 0.22071,0.22576 0.20077,0.4091 0.25192,0.0188 0.62724,-0.0872 0.85669,0.0613 0.0448,0.0283 0.84547,0.32048 0.84671,0.3219 0.19206,0.51004 -0.94148,0.5749 -0.93899,0.63598 0.15836,-0.0141 1.3692,-0.10369 1.42158,-0.0476 -0.22694,0.49129 -1.06993,-0.23046 -0.97764,0.56486 -0.12721,-0.09 -0.32799,-0.0787 -0.45514,-0.16825 -0.34542,0.31153 0.67587,0.25309 0.78186,0.21586 0.30178,-0.10369 0.31427,0.31671 0.621,0.43784 0.2095,0.0811 0.64595,-0.48512 0.68211,-0.71328 0.0486,-0.30069 0.50129,-0.62975 0.50129,-0.69211 0,-0.32048 0.0198,-0.64719 0,-0.96641 -0.42771,0.065 -0.0948,-0.55991 -0.23942,-0.77063 -0.1347,-0.19559 -0.92527,-0.73076 -0.28184,-0.87913 0.7033,-0.16213 1.4939,-0.12112 2.20843,-0.091 0.28556,0.009 1.12853,-0.0749 1.16469,0.33274 0.0264,0.28797 -0.37035,0.41899 -0.5362,0.67091 -0.11222,0.17061 0.21199,0.83048 -0.21072,0.7357 -0.0198,0.31908 0,0.6472 0,0.96646 0,0.13338 0.4402,0.26441 0.48258,0.59979 0.0424,0.33934 0.31422,0.5387 0.53372,0.78434 0.20577,0.22953 0.46385,-0.16448 0.48633,-0.32567 0.0127,-0.0848 1.42905,0.033 1.08363,-0.30682 -0.1322,0.091 -0.3367,0.0787 -0.46885,0.16826 0.1297,-0.81555 -0.81554,-0.0622 -0.95146,-0.56491 0.0349,-0.0424 1.24949,0.033 1.40537,0.033 -0.0836,-0.14469 -0.20823,-0.18192 -0.37408,-0.10604 -0.30927,0.0773 -0.48384,-0.19324 -0.56364,-0.53126 0.24691,-0.0537 0.49755,-0.0933 0.74944,-0.12112 0.0325,-0.18193 0.14342,-0.26676 0.33421,-0.25309 0.20699,0 0.41277,0.001 0.6185,0 -0.0174,-0.18711 0.0549,-0.32945 0.21572,-0.42041 0.0786,0.13102 0.17207,0.25215 0.28057,0.36055 0.0861,-0.091 0.13592,-0.19936 0.14592,-0.32426 0.44142,0.18852 0.38156,0.58979 0.32171,0.88907 0.16957,0.091 0.34292,0.10369 0.52374,0.033 -0.0297,0.33322 -0.41527,0.38789 -0.67089,0.33557 0.33543,0.10369 0.35791,0.51872 0.67089,0.64965 -0.26064,0.12961 -0.49631,0.0613 -0.6846,-0.13102 0.21199,0.29456 -0.13593,0.80683 0.16085,1.04498 -0.35663,0.0236 -0.46763,-0.21303 -0.54868,-0.50378 0.0212,0.27194 -0.2307,0.7794 0.0524,0.99634 -0.2145,0.0283 -0.36913,-0.0486 -0.46763,-0.22953 0.025,0.21445 0.096,0.41051 0.21571,0.58862 -0.22198,0.0188 -0.40277,-0.0561 -0.53621,-0.22953 0.0724,0.26676 0.14215,0.67962 0.44143,0.80556 -0.15214,0.0141 -0.30428,0.0141 -0.45641,-0.0141 0.31177,0.35772 0.0998,0.7769 0.40277,1.08489 0.21822,0.22057 0.52748,0.63099 0.68336,0.90906 0.97266,0.0377 0.68834,-1.04248 0.37535,-1.5687 -0.36036,-0.60977 -0.64095,-1.90666 0.44269,-2.00017 0.69707,-0.0613 1.25573,1.72083 0.93775,2.20967 -0.0273,-0.5362 -0.79309,-0.53498 -0.87041,-1.03254 -0.0438,-0.26958 0.12843,-0.51249 0.36163,-0.62471 -0.11599,-0.53748 -0.74819,-0.2333 -0.86791,0.12961 -0.21322,0.64597 0.34792,1.14353 0.59607,1.67224 0.12221,0.26298 0.15963,0.54492 0.0798,0.82549 -0.11849,0.41428 0.37285,0.46376 0.21949,0.9066 -0.15091,-0.19559 -0.35164,-0.27571 -0.60355,-0.23942 0.24942,0.18192 0.101,0.64592 -0.17334,0.72077 0.091,-0.20078 0.0649,-0.38035 -0.0811,-0.5412 0.0264,0.26298 -0.14841,0.40532 -0.33543,0.5412 0.0748,-0.24838 -0.13342,-0.46141 -0.3342,-0.56491 0.17085,0.34547 -0.28434,0.63221 -0.0748,0.94148 0.14092,0.2069 0.56364,0.0547 0.37784,0.3728 -0.22071,0.37516 0.1322,0.49629 0.12843,0.83299 -0.0524,0.16213 -0.44269,0.38788 -0.57611,0.50377 0.0349,0.05 0.091,0.1348 0.13465,0.19324 2.02886,-1.04748 3.01274,-2.70845 2.50647,-4.95926 -0.50878,-2.25209 -1.53256,-4.22111 0.30799,-6.16143 -0.37657,-0.36667 -0.93899,0.15459 -1.41534,0.23424 -0.70829,0.1183 -1.52507,-0.0735 -2.11615,-0.48007 -0.88911,-0.60982 -1.97773,-2.99156 -0.15463,-3.09384 -1.16844,-0.29174 -2.18474,-0.80178 -3.41802,-0.92526 0.45764,1.1834 -1.65725,1.06618 -1.19212,0 -1.1859,0.10981 -2.31942,0.45528 -3.4043,0.93653 1.69965,0.0283 0.8517,2.17347 0.12098,2.85809 -0.53621,0.50255 -1.29812,0.73325 -2.02387,0.73198 -0.4776,0 -1.45649,-0.66214 -1.78196,-0.28797 1.72709,1.9291 0.93525,3.68363 0.38657,5.922 -0.5811,2.37303 0.24941,4.07642 2.43912,5.23611 0.0599,-0.0848 0.10227,-0.14563 0.14714,-0.20549 -10e-4,-0.35677 -0.59981,-0.13856 -0.58983,-0.51749 0.01,-0.35536 0.29305,-0.47885 0.096,-0.87668 -0.12593,-0.25073 0.47137,-0.14704 0.46636,-0.50377 0.0499,-0.17816 -0.18456,-0.53743 -0.14842,-0.77935 -0.15336,0.21067 -0.42148,0.27194 -0.32171,0.59978 -0.20822,-0.12584 -0.32298,-0.30918 -0.34914,-0.55242 -0.13593,0.1758 -0.15464,0.36432 -0.0536,0.56491 -0.28806,-0.19324 -0.38534,-0.45528 -0.21449,-0.74448 -0.25314,-0.0584 -0.40155,0.09 -0.57736,0.22812 -0.12221,-0.32049 0.14715,-0.45528 0.29556,-0.67213 -0.10472,-0.25545 -0.15713,-0.515 -0.0861,-0.78934 0.15836,-0.61105 0.79184,-1.0562 0.72825,-1.7321 -0.0611,-0.67213 -1.20211,-0.83798 -0.6447,-0.1084 0.43643,0.57113 -0.59482,0.98762 -0.78935,1.44154 -0.24442,-0.48385 0.2095,-1.51883 0.40777,-1.9366 0.47636,-1.00628 1.5363,0.45528 1.247,1.22705 -0.17335,0.46282 -1.15347,1.78445 -0.16585,2.04136 0.93774,0.24555 1.02253,-1.55003 1.3667,-1.98024 -0.15586,0.0377 -0.31049,0.0471 -0.46763,0.0236 0.31427,-0.10463 0.37285,-0.51627 0.4402,-0.78934 -0.0923,0.1494 0,0 0,0 z m 0.44143,-2.67852 h -0.36163 c 0.0212,0.20219 0.31671,0.1461 0.36163,0 z m 7.64034,0 h -0.36163 c 0.041,0.14327 0.34415,0.2069 0.36163,0 z m -7.159,0.73321 h -0.44143 c 0.0474,0.12866 0.39779,0.13102 0.44143,0 z m 6.75497,0 h -0.44142 c 0.0448,0.13102 0.39528,0.12866 0.44142,0 z m -5.22491,1.51138 c 0.0462,0.28797 0.28434,0.42512 0.26686,0.79306 0.0372,0.0924 -0.36663,0.60106 0.30799,0.57863 0,-0.78063 0,-1.56248 0,-2.3431 -0.5599,0.001 -0.24192,0.74198 -0.57486,0.97141 0.009,0.0561 0.31177,-0.21586 0,0 z m 2.67979,1.37169 c 0.70331,0.0141 0.14842,-0.83549 0.57736,-1.21333 -0.16835,0.009 -0.0748,-1.12727 -0.57736,-1.12854 0,0.77939 0,1.56124 0,2.34187 0.16463,0.004 0,0 0,0 z m -3.67239,0.98389 c 0.0736,-0.353 -0.83923,0.79307 -0.93899,0.57613 0.52872,-0.11359 2.29073,-0.33793 1.66224,0.7457 -0.0761,0.12961 -0.63721,0.42417 -0.18456,0.52871 0.62474,0.14469 0.59856,-0.43643 1.02503,-0.43502 0.15963,-0.33934 0,-1.12477 0,-1.50139 0,-0.29409 0.0811,-0.38788 -0.29429,-0.48634 -0.33919,-0.19182 -0.49131,-0.10746 -0.45641,0.25309 -0.1322,0.37045 -0.36286,0.67713 -0.41399,0.0189 -0.0574,0.22953 -0.16958,0.43031 -0.33543,0.59856 -0.0524,-0.091 -0.0736,-0.18946 -0.0636,-0.29692 0,0 -0.01,0.11123 0,0 z m 5.15882,0.29787 c -0.14715,-0.18098 -0.25936,-0.37893 -0.33543,-0.59856 0.0424,0.46754 -0.0474,0.54497 -0.26813,0.22576 -0.24065,-0.31437 0.004,-0.59229 -0.45641,-0.52372 -0.55491,0.0848 -0.42898,0.41522 -0.42898,0.85792 0,0.29174 -0.12344,0.89161 0,1.15597 0.23443,-0.0141 0.828,0.96019 1.19212,0.34782 0.0363,-0.42276 -0.63471,-0.51876 -0.38534,-1.08739 0.212,-0.47885 1.34053,-0.13338 1.71213,-0.10228 -0.31177,-0.40155 -0.64969,-0.11217 -0.99261,-0.73325 0.0736,0.16213 0.0599,0.31436 -0.0372,0.45763 -0.14342,-0.16967 0.10849,-0.0797 0,0 z m 1.07366,1.66974 c -0.0923,-0.0688 -0.14592,-0.15977 -0.16213,-0.27571 0.0212,0.12206 -0.005,0.22952 -0.0811,0.32425 -0.0861,-0.0674 -0.13842,-0.156 -0.15963,-0.2644 0.0198,0.0886 -0.006,0.15695 -0.0811,0.20313 -0.0686,-0.0646 -0.10972,-0.14563 -0.11971,-0.24083 0.0236,0.34546 -0.24942,0.2479 -0.32172,0.033 0.0462,0.19465 0.59731,0.97141 -0.0823,0.74942 -0.27934,-0.091 -1.46023,0.0424 -1.5525,-0.0759 -0.0349,0.12584 -0.041,0.40391 0,0.52749 0.27807,-0.004 0.98886,0.32661 0.34914,0.50377 0.27185,0.0377 0.54743,-0.0236 0.81927,-0.004 0.30678,0.0236 0.51626,0.45905 0.106,0.49629 0.3105,0 0.62101,0 0.93151,0 0.0761,0 0.53371,-0.3926 0.72949,-0.46754 0.35414,-0.13479 0.88287,-0.0236 0.75069,-0.67218 -0.0511,-0.24696 -0.48758,-0.35913 -0.67462,-0.45009 -0.32172,-0.156 -0.2095,-0.39778 -0.26436,-0.69207 -0.001,0.14328 -0.0648,0.2432 -0.18706,0.30305 -0.11721,-0.009 0,0 0,0 z m -6.63527,-0.23942 c 0.004,0.0961 -0.0325,0.17202 -0.10599,0.22811 -0.0674,-0.0509 -0.0985,-0.1183 -0.0935,-0.20314 -0.008,0.11453 -0.0586,0.20691 -0.14837,0.27666 -0.0636,-0.10369 -0.0935,-0.21303 -0.0935,-0.33651 0.002,0.12867 -0.0511,0.22057 -0.16213,0.27571 -0.10228,-0.0688 -0.16463,-0.1659 -0.18706,-0.28796 -0.0486,0.61971 -0.16336,0.61971 -0.69582,0.89284 -0.39656,0.20454 -0.24815,0.84919 0.18706,0.88285 0.32298,0.0236 0.44769,0.16354 0.74819,0.22339 0.16586,0.009 0.24692,0.0999 0.24192,0.27053 0.33543,-0.009 0.67088,0.0189 1.00633,-0.0141 -0.37658,-0.0622 -0.26436,-0.42417 0.0226,-0.46894 0.30055,-0.0485 0.60479,0.0236 0.90407,-0.0236 -0.65841,-0.30918 0.5225,-0.39637 0.34665,-0.99756 -0.29179,0.17721 -1.15721,-0.0834 -1.59865,0.0811 -0.54618,0.20313 -0.18207,-0.61604 -0.0636,-0.76568 -0.0561,0.24696 -0.32421,0.23706 -0.308,-0.0377 -0.0151,0.0933 -0.016,0.28703 0,0 z m 1.97026,0.30069 h -0.0935 z m 2.10492,0.009 0.0935,-0.0236 z"
       id="path1785" />
    <path
       inkscape:connector-curvature="0"
       style="fill:#d43b23;stroke-width:1.24699557"
       d="m 99.287111,147.09272 5.261079,17.65373 h 48.56048 l 4.98424,-17.65373 z"
       id="path1787" />
    <path
       inkscape:connector-curvature="0"
       style="fill:#b0301f;stroke-width:1.24699557"
       d="m 108.43382,162.53551 c -1.46147,-0.0636 -2.61869,-0.6347 -3.47039,-1.71461 -0.8517,-1.0799 -1.27817,-2.58751 -1.27817,-4.52283 v -0.58484 c 0.0611,-1.32183 0.30301,-2.42544 0.72825,-3.31455 0.42271,-0.89284 0.98886,-1.55376 1.69591,-1.98024 0.70829,-0.42889 1.51884,-0.64343 2.43788,-0.64343 0.92652,0.0189 1.73208,0.2234 2.41543,0.6185 0.12593,0.0825 0.24065,0.12489 0.34419,0.12489 0.12721,0 0.21322,-0.0377 0.25936,-0.12489 0.11722,-0.12113 0.17834,-0.2842 0.17834,-0.48757 h 0.60355 l 0.26063,3.93927 h -0.51999 c -0.009,-0.16967 -0.14342,-0.50505 -0.4065,-1.00756 -0.26186,-0.50133 -0.61727,-0.95519 -1.06369,-1.35924 -0.44765,-0.40297 -0.96393,-0.60478 -1.54877,-0.60478 -0.79184,0 -1.43155,0.46517 -1.92162,1.39162 -0.49007,0.93026 -0.74072,2.05131 -0.75318,3.36691 0,1.71961 0.15214,3.09379 0.45891,4.12378 0.30677,1.02632 0.90033,1.59994 1.78071,1.70467 0.44892,0 0.80555,-0.0834 1.07117,-0.25451 0.26435,-0.17061 0.39655,-0.30163 0.39655,-0.40673 v -3.14498 c 0,-0.46282 -0.0549,-0.78062 -0.16957,-0.95147 -0.12594,-0.21963 -0.38657,-0.3318 -0.77938,-0.3318 h -0.37407 v -0.79311 h 4.77475 v 0.71827 h -0.20578 c -0.24314,0 -0.40777,0.0947 -0.49256,0.28184 -0.13093,0.18852 -0.19578,0.47757 -0.19578,0.86664 v 3.55519 c -0.20577,0.25074 -0.65218,0.57485 -1.33678,0.96019 -0.68585,0.3827 -1.64978,0.57613 -2.88929,0.57486 z m 10.02086,-7.33605 v -3.27836 c 0,-0.47385 -0.0786,-0.82426 -0.23193,-1.04875 -0.16708,-0.20454 -0.42648,-0.30399 -0.77189,-0.30399 h -0.46513 v -0.66218 h 8.91976 l 0.17584,2.8095 h -0.38034 l -0.0549,-0.45623 c -0.0462,-0.41899 -0.19828,-0.7457 -0.45642,-0.9739 -0.2307,-0.20219 -0.6235,-0.30305 -1.1809,-0.30305 h -2.85063 v 4.21856 h 1.90166 c 0.26186,0 0.49257,-0.0825 0.68834,-0.25309 0.22944,-0.27053 0.3442,-0.50378 0.3442,-0.69207 v -0.66091 h 0.49256 v 4.3682 h -0.49256 v -0.56236 c 0,-0.23801 -0.0674,-0.50255 -0.20328,-0.79434 -0.19205,-0.23707 -0.46885,-0.35772 -0.82925,-0.35772 h -1.90166 v 3.95798 c 0,0.50755 0.0873,0.86291 0.25936,1.0749 0.18828,0.22434 0.4377,0.33793 0.75193,0.33793 h 0.45641 v 0.61105 h -5.64015 v -0.61105 h 0.4639 c 0.33293,0 0.58983,-0.11453 0.77189,-0.33793 0.15464,-0.24696 0.23193,-0.60228 0.23193,-1.0749 z m 18.91568,-1.35425 c -0.0377,-0.23424 -0.16967,-0.58607 -0.39024,-1.06369 -0.22198,-0.47385 -0.54492,-0.90906 -0.96641,-1.31061 -0.4204,-0.39919 -0.91655,-0.59856 -1.4864,-0.59856 -0.81428,0 -1.45153,0.46 -1.90667,1.37669 -0.45764,0.91654 -0.68462,2.04758 -0.68462,3.38312 0,1.13099 0.0485,2.08124 0.14611,2.84937 0.0985,0.76691 0.3054,1.4191 0.62599,1.95281 0.31813,0.5362 0.79061,0.8779 1.41782,1.02504 l 0.48512,0.0514 c 0.7145,0 1.30184,-0.30682 1.75076,-0.92276 0.45151,-0.61605 0.73076,-1.20339 0.84048,-1.7608 l 0.7719,0.58734 -0.20926,0.59106 c -0.12725,0.35301 -0.33416,0.71827 -0.62226,1.09989 -0.28939,0.38411 -0.69457,0.717 -1.22205,1.00383 -0.52626,0.28561 -1.1834,0.42653 -1.96902,0.42653 -1.49267,-0.033 -2.66981,-0.63602 -3.52028,-1.79694 -0.85419,-1.16097 -1.28313,-2.83693 -1.28313,-5.02539 0.10228,-1.98274 0.58357,-3.46669 1.44649,-4.45553 0.86046,-0.9864 2.00017,-1.48146 3.41178,-1.48146 0.85796,0.0188 1.58867,0.2234 2.19223,0.61727 0.15317,0.0825 0.27807,0.12584 0.37044,0.12584 0.12584,0 0.20691,-0.0377 0.26064,-0.12584 0.11217,-0.14328 0.16825,-0.30682 0.16825,-0.48757 h 0.57858 l 0.28702,3.94177 h -0.49256 z m 2.8768,8.38353 v -0.611 h 0.3992 c 0.31813,0 0.58734,-0.16354 0.80683,-0.49006 0.16354,-0.19182 0.28702,-0.41381 0.37044,-0.66591 l 3.68736,-10.55705 h 1.57995 l 3.73599,10.55705 c 0.11595,0.32661 0.24461,0.54742 0.37893,0.66591 0.21303,0.32661 0.46377,0.49006 0.74443,0.49006 h 0.42889 v 0.611 h -5.57404 v -0.611 h 0.28797 c 0.28184,0 0.5125,-0.0726 0.69079,-0.20596 0.1348,-0.091 0.20078,-0.22057 0.20078,-0.38788 l -0.0547,-0.30447 -0.75192,-2.22465 h -3.51156 l -0.7432,1.99395 -0.14705,0.58984 0.0636,0.19936 c 0.0141,0.0811 0.0825,0.15317 0.19936,0.22953 0.11971,0.0735 0.22434,0.10981 0.31153,0.10981 h 0.37799 v 0.611 z m 3.70734,-4.68247 h 2.90673 l -1.43904,-4.03899 z"
       id="path1789" />
    <path
       inkscape:connector-curvature="0"
       style="fill:#f5c229;stroke-width:1.24699557"
       d="m 109.04111,162.08037 c -1.46148,-0.0636 -2.61869,-0.63348 -3.47039,-1.7146 -0.8517,-1.07868 -1.27817,-2.58752 -1.27817,-4.52162 v -0.58861 c 0.0611,-1.32055 0.303,-2.42538 0.727,-3.3145 0.42271,-0.89162 0.98887,-1.55126 1.69591,-1.98024 0.70705,-0.42889 1.51884,-0.64342 2.43788,-0.64342 0.92652,0.0188 1.73207,0.22434 2.41543,0.61849 0.12593,0.0834 0.24192,0.12584 0.34419,0.12584 0.12721,0 0.21322,-0.0424 0.25936,-0.12584 0.11722,-0.12113 0.17707,-0.28325 0.17707,-0.48507 h 0.6023 l 0.26063,3.938 h -0.52125 c -0.009,-0.17062 -0.14465,-0.50628 -0.4065,-1.00883 -0.26313,-0.50128 -0.61852,-0.9552 -1.06494,-1.3567 -0.44765,-0.40533 -0.96518,-0.60606 -1.54752,-0.60606 -0.79185,0 -1.43155,0.46518 -1.92162,1.3929 -0.49007,0.92777 -0.74072,2.05004 -0.75319,3.36314 0,1.72088 0.15336,3.09506 0.45891,4.12383 0.30677,1.02999 0.90158,1.59989 1.78071,1.70839 0.44769,0 0.80556,-0.0834 1.07117,-0.25451 0.26435,-0.17202 0.39656,-0.3054 0.39656,-0.40768 v -3.14615 c 0,-0.45999 -0.0549,-0.77812 -0.16708,-0.94897 -0.12593,-0.22057 -0.38657,-0.33039 -0.77937,-0.33039 h -0.37163 v -0.79311 h 4.776 v 0.71827 h -0.20328 c -0.24314,0 -0.40777,0.0924 -0.49256,0.27948 -0.13093,0.18853 -0.19578,0.47758 -0.19578,0.86664 v 3.55397 c -0.20577,0.25309 -0.65218,0.57363 -1.33678,0.95892 -0.68959,0.38647 -1.65227,0.57862 -2.89303,0.57862 z m 10.02086,-7.33733 v -3.27712 c 0,-0.47508 -0.0773,-0.8255 -0.23071,-1.04993 -0.16835,-0.20455 -0.42648,-0.30541 -0.77314,-0.30541 h -0.46513 v -0.66091 h 8.91976 l 0.1758,2.81073 h -0.38035 l -0.0549,-0.45764 c -0.0462,-0.42041 -0.19828,-0.7457 -0.45641,-0.97264 -0.2307,-0.20313 -0.6235,-0.3054 -1.18091,-0.3054 h -2.85063 v 4.21983 h 1.90292 c 0.26313,0 0.49256,-0.0848 0.68834,-0.25545 0.22943,-0.26817 0.34419,-0.5 0.34419,-0.69206 v -0.66091 h 0.49256 v 4.37074 h -0.49256 v -0.56118 c 0,-0.23801 -0.0674,-0.50128 -0.20327,-0.79434 -0.19206,-0.23801 -0.46886,-0.35678 -0.82925,-0.35678 h -1.90292 v 3.95548 c 0,0.51005 0.0873,0.86918 0.26063,1.07491 0.18707,0.22811 0.43771,0.33792 0.75194,0.33792 h 0.45641 v 0.61228 h -5.64016 v -0.61228 h 0.46513 c 0.33171,0 0.58983,-0.11122 0.77314,-0.33792 0.15464,-0.24697 0.23071,-0.60356 0.23071,-1.07491 v -5.00668 z m 18.91444,-1.35297 c -0.0377,-0.23424 -0.16731,-0.58734 -0.38882,-1.06247 -0.22199,-0.47507 -0.54497,-0.91028 -0.96646,-1.31305 -0.42041,-0.3992 -0.9165,-0.59734 -1.48763,-0.59734 -0.81305,0 -1.45025,0.45764 -1.90544,1.37546 -0.45764,0.91778 -0.68584,2.04632 -0.68584,3.38185 0,1.12977 0.0485,2.08369 0.14704,2.84938 0.0971,0.7669 0.30447,1.41782 0.62599,1.9553 0.31672,0.53243 0.79062,0.87663 1.4191,1.02627 l 0.48257,0.0485 c 0.71455,0 1.30189,-0.30682 1.75081,-0.92526 0.45245,-0.61355 0.73448,-1.20212 0.84048,-1.75953 l 0.77313,0.58734 -0.20926,0.59229 c -0.12726,0.3516 -0.33416,0.71455 -0.62227,1.09989 -0.28938,0.3827 -0.69456,0.71699 -1.22205,1.00256 -0.52621,0.28561 -1.18462,0.42794 -1.96902,0.42794 -1.49262,-0.033 -2.66858,-0.6347 -3.5215,-1.7969 -0.85297,-1.16219 -1.28068,-2.83692 -1.28068,-5.02666 0.0999,-1.98146 0.58362,-3.46664 1.44526,-4.45426 0.86169,-0.98762 2.00022,-1.48268 3.41178,-1.48268 0.85797,0.0189 1.58868,0.22434 2.19101,0.61977 0.15459,0.0825 0.27948,0.1249 0.37044,0.1249 0.12584,0 0.20926,-0.0424 0.26064,-0.1249 0.11358,-0.14611 0.16825,-0.30918 0.16825,-0.48757 h 0.57858 l 0.28796,3.94049 h -0.49378 z m 2.87803,8.3848 v -0.61227 h 0.40014 c 0.31672,0 0.58734,-0.16354 0.80683,-0.48634 0.16448,-0.19088 0.28702,-0.41381 0.37044,-0.66963 l 3.68736,-10.5546 h 1.57995 l 3.73477,10.5546 c 0.11735,0.32662 0.24555,0.54742 0.37893,0.66963 0.21303,0.32285 0.46612,0.48634 0.74692,0.48634 h 0.42653 v 0.61227 h -5.5753 v -0.61227 h 0.28796 c 0.28185,0 0.51128,-0.0683 0.68962,-0.2069 0.13715,-0.0886 0.20313,-0.21963 0.20313,-0.38789 l -0.0561,-0.30305 -0.75197,-2.22338 h -3.51028 l -0.7457,1.99395 -0.1447,0.59107 0.0622,0.19936 c 0.0141,0.0787 0.0825,0.156 0.19936,0.22952 0.12112,0.0721 0.22434,0.10841 0.312,0.10841 h 0.37893 v 0.61227 h -3.48162 z m 3.70734,-4.68124 h 2.90673 l -1.43904,-4.04154 z"
       id="path1791" />
    <path
       style="fill:#f5c229;stroke-width:1.24699557"
       inkscape:connector-curvature="0"
       id="path1793"
       d="m 125.15479,176.47569 v -0.16354 h 0.27557 v -1.91289 l -0.016,0.0141 -0.11598,0.0834 -0.15337,0.0947 -0.18956,0.10228 -0.0372,0.0189 -0.0673,-0.2069 0.0287,-0.0141 c 0.15713,-0.0712 0.31299,-0.16449 0.46391,-0.28043 0.15213,-0.11594 0.3055,-0.25922 0.45763,-0.4303 l 0.0113,-0.0141 h 0.27062 v 2.54387 h 0.27684 v 0.16354 z m 2.46657,0.0471 c -0.30446,0 -0.54869,-0.0622 -0.72454,-0.18334 l -0.0141,-0.009 v -0.64098 h 0.15458 l 0.009,0.0283 c 0.11736,0.41664 0.30823,0.63099 0.56613,0.63099 0.25074,-0.0141 0.38553,-0.35773 0.39778,-1.02627 -0.10981,0.11358 -0.26063,0.17202 -0.45151,0.17202 l -0.27571,-0.0499 -0.25168,-0.14705 -0.18334,-0.24461 c 0,0 -0.0712,-0.21444 -0.0712,-0.34547 0,-0.15458 0.0236,-0.29409 0.0683,-0.4138 0.0471,-0.1249 0.10981,-0.22576 0.19088,-0.30776 0.0797,-0.0825 0.17721,-0.14847 0.28796,-0.19324 0.10982,-0.0424 0.23047,-0.065 0.35914,-0.065 0.65342,0 0.9839,0.47385 0.9839,1.40661 l -0.0283,0.3516 -0.0947,0.32567 -0.15081,0.28561 -0.20691,0.22811 -0.25827,0.15082 z m 0.0599,-2.61122 -0.11359,0.0509 -0.091,0.15223 -0.0547,0.21963 -0.0189,0.25168 0.0189,0.25828 0.0537,0.21962 0.0924,0.14611 0.12348,0.05 0.11971,-0.0514 0.0924,-0.1494 0.0561,-0.21963 0.0189,-0.25309 -0.0189,-0.2545 -0.0575,-0.21963 -0.0933,-0.14988 z m 1.56247,2.56508 v -0.16354 h 0.27666 v -1.91289 l -0.0189,0.0141 -0.11452,0.0834 -0.15459,0.0947 -0.18947,0.10228 -0.0377,0.0189 -0.0683,-0.2069 0.0283,-0.0141 c 0.15694,-0.0712 0.31295,-0.16449 0.46612,-0.28043 0.15365,-0.11594 0.30541,-0.25922 0.45905,-0.4303 l 0.009,-0.0141 h 0.27053 v 2.54387 h 0.27807 v 0.16354 z m 2.56381,0.0523 -0.31295,-0.0547 -0.25545,-0.15459 -0.197,-0.2333 -0.13951,-0.29032 -0.0834,-0.32803 -0.0283,-0.34405 0.0283,-0.33793 0.0834,-0.32662 0.13574,-0.29032 0.19559,-0.23707 0.25686,-0.16071 0.31813,-0.0561 0.30682,0.0537 0.25451,0.15318 0.197,0.23046 0.14469,0.28797 0.0858,0.32944 0.0283,0.35396 -0.0236,0.33415 -0.0825,0.32284 -0.13951,0.2908 -0.19701,0.23942 -0.26063,0.16072 z m 0,-2.62122 c -0.23424,0 -0.35914,0.42135 -0.35914,1.2171 0,0.76941 0.1249,1.17841 0.35914,1.17841 0.23424,0 0.35913,-0.40909 0.35913,-1.17841 0,-0.79683 -0.12489,-1.2171 -0.35913,-1.2171 z" />
    <path
       inkscape:connector-curvature="0"
       style="fill:#2e2a25;stroke-width:1.24699557"
       d="m 135.04098,130.32311 c -1.19589,-0.66087 -1.93537,-0.44869 -2.58379,-0.43125 0.616,0.0283 1.58868,0.1659 2.31817,0.63221 0.83548,0.53498 2.46907,0.43643 2.85186,0.13338 -0.28938,0.0825 -1.81061,0.20596 -2.58624,-0.33415 z"
       id="path1797" />
    <path
       inkscape:connector-curvature="0"
       style="fill:#2e2a25;stroke-width:1.24699557"
       d="m 143.73252,132.04149 c -0.81678,-0.61228 -1.61484,-1.03004 -2.5738,-1.16097 1.30311,0.38176 2.39423,1.27069 2.52143,1.4166 -0.12112,-0.0636 -0.55741,-0.11735 -0.83048,-0.11594 -0.25168,10e-4 -0.46,-0.0471 -0.5412,-0.14092 -0.73076,-0.83303 -2.02388,-1.37918 -3.2472,-1.63109 0.8006,0.28561 2.52765,1.04248 3.06513,1.77196 0.18852,0.25545 0.36903,0.20832 1.16719,0.23943 0.80183,0.033 1.59862,0.4105 1.77197,0.67213 -0.0985,-0.47885 -0.85542,-0.69207 -1.33304,-1.0512 z"
       id="path1799" />
    <path
       inkscape:connector-curvature="0"
       style="fill:#ffffff;stroke-width:1.24699557"
       d="m 133.96231,126.41504 c -0.89407,0.30776 -0.97641,0.57862 -0.97641,0.57862 l -0.73321,0.41758 v 0.86419 l -0.33792,1.56869 0.3054,1.57623 1.49512,3.78586 5.34338,2.16353 5.80107,-3.16986 0.67212,-0.36668 c 0,0 0.27666,2.4678 1.15843,2.89801 0.88289,0.4303 2.57257,1.57996 2.00644,2.47153 -0.56863,0.89161 -2.23338,1.56497 -2.23338,1.56497 l 0.52999,1.61365 -1.51883,1.53504 c 0,0 0.24178,0.87164 0.96641,0.97513 1.2794,0.0622 0.66341,-1.55002 2.3643,-2.35558 0.39166,-0.33416 0.23188,-1.21455 0.65092,-1.97024 0.41899,-0.7557 0.84798,-1.11106 0.28938,-2.64115 l -0.12583,-1.79813 -2.10867,-1.1161 -0.76191,-1.03376 c 0,0 1.63354,0.24932 2.60372,-1.0537 0.32285,-0.43124 0.42889,-1.26818 0.74693,-2.14981 0.63975,-1.78695 1.40911,-3.86569 1.40911,-3.86569 l 0.41145,-0.41145 -0.78935,-0.60233 -0.19229,0.55119 -0.009,0.51127 -1.22204,-0.009 0.30163,-0.78934 -0.69833,-0.3417 -0.26063,-1.08612 -0.59856,-0.45246 -0.45151,0.58107 0.10227,0.95397 -1.51011,0.27666 c 0,0 1.48768,3.7834 1.31933,4.90818 -0.16967,1.12481 -0.54106,1.81938 -1.90403,1.79694 -1.35797,-0.0189 -6.05293,-5.43194 -12.0435,-6.37964 z"
       id="path1801" />
    <path
       inkscape:connector-curvature="0"
       style="fill:#2e2a25;stroke-width:1.24699557"
       d="m 149.874,136.51945 c -0.005,-0.35536 -0.19229,-0.58484 -0.49506,-0.78811 -0.75319,-0.43879 -1.55875,-0.49756 -1.95657,-0.9527 -0.12584,-0.1461 -0.27666,-0.42135 -0.39025,-0.61977 0.14847,0.0283 0.24178,0.0424 0.43125,-0.004 0.20078,-0.0471 1.21832,-0.3992 1.66102,-0.74198 0.57862,-0.52371 0.74198,-1.54753 0.82926,-1.89045 0.38789,-1.45398 1.94532,-4.69618 1.97397,-5.04782 0.033,-0.34924 -0.58484,-0.65842 -0.70206,-0.70705 -0.11735,-0.05 -0.29786,0.0189 -0.29786,0.0189 l 0.0599,0.45386 c 0,0.25922 -0.21963,0.47885 -0.21963,0.47885 l -1.12727,0.13951 c -0.18098,0.44538 -0.46895,0.65968 -0.74198,0.65591 -0.091,0.005 -0.40532,-0.0189 -0.41899,-0.23706 -0.0283,-0.46 0.71577,-0.42276 0.95647,-0.44774 0.23424,-0.0236 0.6372,-0.09 0.61477,-0.49007 -0.009,-0.47639 -0.57108,-0.52998 -0.73943,-0.52498 v -0.96147 c -0.0283,-0.77313 -0.9839,-0.57235 -1.31433,-0.51749 l 0.002,1.21705 c 0,0 -0.34783,0.13197 -0.81682,0.20313 -0.46754,0.0721 -0.66963,0.32662 -0.64842,0.55864 0.0236,0.13715 0.0424,0.2743 0.17438,0.40674 0.12584,0.21067 0.85297,2.70595 0.95519,3.05387 0.32803,1.12105 0.0141,2.22093 -0.42276,2.61622 -0.3629,0.35536 -0.92399,0.30305 -1.14598,0.25309 -0.0499,-0.0971 -0.0933,-0.19088 -0.10604,-0.29693 0.45764,0.17816 0.80433,0 0.66841,-0.1084 -0.12961,-0.1084 -0.30447,-0.56613 -0.33557,-0.86291 0.21303,-0.0141 0.73071,-0.11735 0.84919,-0.24696 l -0.42134,-0.55991 0.41899,-0.17816 c 0.10981,-0.033 0.14092,-0.11735 0.12961,-0.23094 -0.0523,-0.23329 -0.20691,-0.21303 -0.3318,-0.35913 -0.1183,-0.15223 -0.14611,-0.72327 -0.15836,-0.85297 l 0.21821,-0.3728 -0.76441,-0.74443 0.36903,-0.40674 c -0.0848,-0.30446 -1.09738,-0.6347 -1.31065,-1.14598 -0.197,-0.48134 -0.40909,-0.50999 -0.52371,-0.55241 l 0.13479,-0.33416 c -0.27053,-0.23329 -0.69084,-0.13715 -0.93026,-0.25309 l -1.43654,-0.60228 -0.0561,-0.32284 c 0,0 -0.82554,0 -0.9739,-0.0283 -0.38035,-0.0424 -0.58112,-0.36526 -0.74448,-0.37799 -0.16731,-0.009 -0.1395,0.0999 -0.46376,0.0283 -0.95647,-0.31908 -1.82065,-0.21445 -2.02515,-0.0947 l -0.033,-0.39401 c -0.0377,-0.20219 -0.22812,-0.14093 -0.24791,-0.0486 -0.24461,0.64592 -1.31556,0.56613 -1.71089,0.76564 l -0.45999,-0.23189 c 0,0 -0.29551,0.42512 -0.45764,0.53871 -0.16071,0.10981 -0.54869,0.26063 -0.87663,0.39024 -0.3219,0.13243 -0.61104,0.38411 -0.70083,0.53747 h -0.42747 v 0.28561 c 0.009,0.27666 -0.20219,0.41381 -0.35301,0.6497 -0.32284,0.50251 -0.33934,0.74443 -0.77563,1.18213 -0.10368,0.0872 -0.16354,0.45009 -0.16354,0.55868 l 0.0674,0.25828 c 0,0.0283 0.009,0.17344 -0.10228,0.26581 -0.15977,0.1447 -0.26676,0.29787 -0.23424,0.56114 0.0236,0.2234 -0.091,0.41522 -0.10368,0.53498 -0.0189,0.1758 0.0537,0.40909 0.0999,0.48384 0.0283,0.0377 0.0796,0.14234 0.0377,0.25686 -0.19229,0.50505 -0.34783,1.10861 -0.0985,1.61988 l 0.009,0.2644 c -0.0188,0.0377 -1.19589,2.19968 -1.35924,2.55009 -0.0999,0.18099 -0.2267,0.48635 -0.21209,0.722 0.0236,0.48384 0.35913,0.56118 0.53125,0.57612 h 0.63594 l -0.005,0.31908 c -0.009,0.31294 -0.54614,0.36054 -0.55241,0.78189 0,0.3153 0.29786,0.52998 0.45763,0.60355 -0.10604,0.23566 -0.15835,0.29928 -0.10981,0.62972 0.0636,0.41522 0.64347,0.39919 0.87413,0.39165 0.36668,0.88912 -0.0796,1.0512 0,1.65226 0.17815,1.0799 1.93909,1.32182 3.66369,0.88289 0.46283,1.89918 2.14232,0.90778 2.68479,4.18241 3.12368,0.92527 4.53656,-2.58873 6.05289,-4.02282 0.55114,-0.60351 1.8493,-1.24698 1.87296,-1.27564 l 0.0141,-0.13573 c -1.27328,-1.07246 -1.77083,-3.115 -1.81075,-3.46669 l 0.5387,-0.0773 c 0.0547,-0.0141 0.18098,-0.0499 0.0749,-0.19323 -0.0773,-0.0872 -0.48007,-0.68957 -0.5437,-0.68957 0.26063,0 0.56118,0.0141 0.81682,-0.0598 -0.0674,-0.35678 -0.33793,-0.64098 -0.30446,-1.0126 0.002,-0.0575 0,-0.19088 0.10227,-0.40014 0.05,0.0523 0.11735,0.0811 0.19229,0.0924 0.611,1.00261 0.45905,1.70839 0.98263,2.44165 0.55241,0.76686 1.60361,0.70206 1.90167,1.09362 0.29928,0.38882 0.39024,0.95142 0.42747,1.39784 -0.65342,1.01133 -2.02638,1.42782 -2.23215,1.56375 0.20596,0.38882 0.50006,1.32304 0.52876,1.6136 l -1.44776,1.35425 -0.0712,0.18098 c 0.0283,0.25687 0.26298,1.11733 1.01999,1.13477 0.75697,0.0141 0.99262,-0.78558 1.02132,-1.01628 0.45764,-0.8829 1.38913,-1.43282 1.67097,-1.68968 0.0283,-0.57862 0.12113,-1.55997 0.35301,-1.96652 0.15836,-0.24696 0.5362,-0.78812 0.60355,-1.3829 0.0683,-0.51005 -0.066,-0.89284 -0.24461,-1.10983 z m 1.32927,-10.49097 c 0.13574,0.002 0.50505,0.29692 0.50255,0.45763 -0.009,0.15978 -0.62226,0.20078 -0.62226,0.20078 0.0471,-0.0471 0.18805,-0.35536 0.11971,-0.65841 z m -2.96786,-1.46275 c 0.12961,-0.0377 0.83549,-0.15835 0.84298,0.30305 0.009,0.41758 -0.84298,0.62349 -0.84298,0.62349 z m -1.44276,1.76702 c 0.002,-0.14705 0.13857,-0.2842 0.53748,-0.33934 0.30446,-0.033 1.39412,-0.29928 1.74704,-0.61976 v 0.46282 c -0.81682,0.0598 -1.07491,0.92032 -1.82688,0.96396 -0.30163,10e-4 -0.45764,-0.32049 -0.45764,-0.46754 z m 1.13849,3.519 -0.82299,-2.84065 c 1.02876,0.1249 1.24698,-0.9452 2.14481,-0.9502 0.12961,0 0.55991,-0.0283 0.56491,0.29033 0.004,0.31907 -0.50628,0.2743 -0.92527,0.31294 -0.42276,0.0424 -0.66218,0.35772 -0.65469,0.5412 0.005,0.18334 0.0424,0.26064 0.14092,0.3516 0.31908,0.68834 0.16826,2.60245 0.0825,2.94914 0.25074,-0.44161 0.35772,-1.96774 0.11359,-2.807 0.80555,0.24461 1.20583,-0.45999 1.27818,-0.64719 l 1.65975,-0.14092 c 0,0 -1.63982,3.92804 -1.78569,4.58396 -0.14233,0.64597 -0.22198,0.92654 -0.47762,1.38291 -0.29692,0.52625 -1.24825,0.82926 -1.55875,0.97018 -0.31059,0.13573 -0.75691,0.10604 -1.01754,-0.0896 -0.10605,-0.0796 -0.25451,-0.17721 -0.39637,-0.25922 0.0141,-0.05 0.033,-0.10463 0.033,-0.1494 0.6447,0.21303 0.38788,0.0971 0.009,-0.12348 -0.002,-0.033 -0.0188,-0.0721 -0.0283,-0.10746 1.24203,0.0547 1.82187,-0.36432 1.90294,-0.56986 -0.45622,0.49878 -1.55875,0.50628 -1.94286,0.4303 -0.005,-0.0283 -0.0141,-0.0476 -0.0283,-0.0697 2.24836,0.1183 1.80317,-2.82194 1.70589,-3.05764 z m -14.26062,3.94427 c -0.18192,-0.1857 0.17203,-0.55369 0.7432,-0.59606 -0.21303,-0.0377 -0.60355,-0.22435 -0.71699,-0.31908 0.0188,0.23565 -0.11453,0.5412 -0.40768,0.49384 -0.28939,-0.0283 -0.30682,-0.74321 -0.13951,-0.84298 -0.001,10e-4 -0.38176,-0.35678 -0.15223,-0.58607 0.20313,0.26299 0.77567,0.93771 1.89795,1.07363 -0.002,0.47513 -1.04871,0.35301 -1.22455,0.7769 z m 11.45989,-0.31154 -0.90656,-0.38176 c -0.64969,0.0424 -1.22082,-0.31153 -1.65852,-0.15081 0.43878,0.0189 0.60105,0.18852 1.04498,0.33934 0.38882,0.17579 0.71577,-0.10086 0.93775,0.22575 -0.24084,0.11971 -0.83176,0.14705 -1.10111,0.13103 -0.53121,-0.0236 -0.62971,-0.25545 -0.80306,-0.33557 -0.23424,-0.10605 -0.42653,-0.05 -0.48134,0.0759 -0.0773,0.20077 -0.32426,0.51127 -0.54992,0.63598 -0.19936,0.11452 -0.52499,0.29032 -0.68462,0.67212 -0.16213,0.3827 -0.49751,1.17341 -1.09484,1.13599 -0.59978,-0.0377 -0.67213,-0.46282 -0.66091,-0.505 0.0683,0.1084 0.15694,0.28561 0.61477,0.29174 0.46518,0.004 0.7694,-0.67341 0.99384,-1.26819 0.2234,-0.39401 0.47885,-0.42512 0.7457,-0.61854 0.26205,-0.19701 0.48761,-0.66586 0.41051,-1.18835 -0.0424,-0.33322 -0.54992,-1.17346 -1.6236,-0.93899 -0.68208,0.20832 -1.16469,0.76314 -1.25071,0.89285 -0.59483,0.005 -1.73709,-0.49883 -1.82937,-0.54248 0.60483,-0.0424 0.91033,-0.19936 0.91033,-0.19936 -0.39778,-0.0424 -1.74331,0.0188 -2.5788,-0.2168 -0.82926,-0.23565 -1.83059,-0.7457 -2.09995,-0.83921 -0.43265,-0.17579 -1.37918,-0.26958 -1.37168,-0.88911 0.0189,-0.31436 0.13102,-0.38883 0.13102,-0.38883 l 0.64098,0.0547 c 0,0 -0.58612,-0.29174 -0.63471,-0.39919 -0.0735,-0.10228 0.0188,-0.3417 0.0377,-0.38176 0.0236,-0.0377 0.0599,-0.22576 0.31436,-0.20691 l 0.39024,0.065 c 0,0 -0.52376,-0.41144 -0.54497,-0.52998 -0.0622,-0.0561 -0.0848,-0.34028 0.13574,-0.44161 0.11594,-0.0523 0.53371,-0.26205 0.5774,-0.51877 0.0188,-0.11217 0.10745,-0.10227 0.15317,-0.0834 0.25686,0.0236 3.69357,1.4964 4.31961,2.01889 0.62471,0.52871 -2.71349,-0.4501 -3.33698,-0.65969 0.2955,0.25922 2.71222,1.10111 3.83949,1.14848 0.3153,0.0141 0.88412,-0.0759 1.42409,0.2069 0.46,0.23942 1.09734,0.40014 1.53005,0.43878 -0.18098,0.0797 -0.53498,0.0858 -0.62849,0.0797 0.38035,0.19087 0.89534,0.29315 1.13726,0.34311 1.1522,0.28561 2.02761,1.27068 2.51022,1.53254 0.37186,0.25545 1.27564,0.51127 1.29934,1.1884 0.002,0.17721 -0.19936,0.20973 -0.26063,0.2069 z m -4.22856,-1.16591 c -0.57862,-0.36668 -1.53631,0.95142 -1.53631,0.58484 0.0575,-0.38176 1.11233,-1.17346 1.68845,-0.81805 0.50378,0.31154 0.3728,0.87414 0.30447,1.05747 -0.0787,0.23189 -0.32945,0.39166 -0.30447,0.16967 0.0424,-0.15459 0.23943,-0.74692 -0.15223,-0.99384 z m -0.62975,0.88162 c 0.0141,-0.1494 0.50627,-0.197 0.50627,0.25922 0,0.44397 -0.43643,0.42889 -0.49378,0.59856 -0.0999,0.32284 -0.0575,0.71827 -0.51627,0.6347 -0.3219,-0.0721 -0.31531,-0.45999 -0.14234,-0.47385 l 0.22953,0.20832 c 0.18475,-0.005 0.0825,-0.44633 0.24319,-0.59356 0.15601,-0.14611 0.41287,-0.23707 0.40627,-0.3827 z m 6.31356,3.423 c -0.46377,-0.56863 -0.35678,-1.40412 -0.96019,-2.38052 0.20596,-0.065 0.42888,-0.22952 0.58856,-0.52249 0.002,-0.002 0.002,-0.005 0.005,-0.0141 0.0999,0.0834 0.21208,0.15459 0.3219,0.22199 0.23942,0.28938 0.53375,0.72322 0.6684,0.93521 0.44774,0.60355 1.55875,0.78812 1.99895,1.04248 0.30305,0.14987 0.39166,0.42795 0.42653,0.63226 0,0 0.05,0.97263 0.0283,1.29561 l -0.76191,1.10112 c -0.0976,-2.08501 -1.6426,-1.4914 -2.31595,-2.31195 z m 0.3629,8.03811 c -0.23329,0.22057 -1.08362,0.31295 -1.22332,-0.77935 l 1.30934,-1.18217 c 0.033,0.30917 0.53625,1.4141 -0.0863,1.96152 z m 2.44414,-4.48169 c -0.34028,0.57113 -0.41899,1.80317 -0.42653,2.06752 -0.39778,0.17816 -1.29439,1.03499 -1.53509,1.38668 -0.0584,-1.30062 -0.62598,-2.69351 -0.712,-2.77208 2.08996,-0.79061 2.50895,-2.11493 3.06137,-2.73343 0.34546,0.89784 -0.0486,1.54753 -0.38789,2.05131 z"
       id="path1803" />
  </g>
</svg>
