<?xml version="1.0" encoding="UTF-8"?>
<!DOCTYPE svg PUBLIC "-//W3C//DTD SVG 1.1//EN" "http://www.w3.org/Graphics/SVG/1.1/DTD/svg11.dtd">
<!-- Creator: CorelDRAW 2019 (64-Bit) -->
<svg xmlns="http://www.w3.org/2000/svg" xml:space="preserve" width="190.206mm" height="189.732mm" version="1.1" style="shape-rendering:geometricPrecision; text-rendering:geometricPrecision; image-rendering:optimizeQuality; fill-rule:evenodd; clip-rule:evenodd"
viewBox="0 0 189.9942 189.521"
 xmlns:xlink="http://www.w3.org/1999/xlink"
 xmlns:xodm="http://www.corel.com/coreldraw/odm/2003">
 <defs>
  <style type="text/css">
   <![CDATA[
    .fil0 {fill:#0132A0}
    .fil3 {fill:#082E86}
    .fil2 {fill:#D9DFE7}
    .fil1 {fill:white}
   ]]>
  </style>
 </defs>
 <g id="Layer_x0020_1">
  <metadata id="CorelCorpID_0Corel-Layer"/>
  <g id="_839666704">
   <path class="fil0" d="M94.9969 0c25.1952,0 49.3584,9.9832 67.173,27.7553 17.8161,17.7708 27.8243,41.873 27.8243,67.0052 0,25.132 -10.0083,49.2348 -27.8243,67.006 -17.8147,17.7706 -41.9779,27.7544 -67.173,27.7544 -25.1947,0 -49.3576,-9.9838 -67.1729,-27.7544 -17.8153,-17.7712 -27.8239,-41.874 -27.8239,-67.006 0,-25.1322 10.0087,-49.2344 27.8239,-67.0052 17.8154,-17.7721 41.9783,-27.7553 67.1729,-27.7553z"/>
   <path class="fil1" d="M94.9969 2.5157c24.5277,0 48.05,9.7189 65.3945,27.0181 17.3431,17.2993 27.0873,40.7617 27.0873,65.2267 0,24.4648 -9.7442,47.9273 -27.0873,65.2263 -17.3445,17.2991 -40.8668,27.0177 -65.3945,27.0177 -24.5269,0 -48.0501,-9.7186 -65.3933,-27.0177 -17.3435,-17.299 -27.0873,-40.7615 -27.0873,-65.2263 0,-24.465 9.7438,-47.9274 27.0873,-65.2267 17.3432,-17.2992 40.8664,-27.0181 65.3933,-27.0181z"/>
   <path class="fil0" d="M95.0426 5.0328c23.818,0 46.6614,9.4452 63.5025,26.2584 16.8423,16.8131 26.3034,39.6172 26.3034,63.3945 0,23.7774 -9.4612,46.581 -26.3034,63.3943 -16.8412,16.8134 -39.6845,26.2586 -63.5025,26.2586 -23.8183,0 -46.6612,-9.4452 -63.5033,-26.2586 -16.8418,-16.8134 -26.3035,-39.6169 -26.3035,-63.3943 0,-23.7773 9.4618,-46.5815 26.3035,-63.3945 16.8422,-16.8132 39.685,-26.2584 63.5033,-26.2584z"/>
   <path class="fil1" d="M95.0624 32.1798c16.6163,0 32.5523,6.5869 44.3012,18.3087 11.7499,11.7234 18.3514,27.6226 18.3514,44.2015 0,16.5781 -6.6015,32.4779 -18.3514,44.2003 -11.7489,11.723 -27.6849,18.3087 -44.3012,18.3087 -16.6166,0 -32.5523,-6.5858 -44.3022,-18.3087 -11.7493,-11.7225 -18.3501,-27.6222 -18.3501,-44.2003 0,-16.5789 6.6008,-32.4782 18.3501,-44.2015 11.7499,-11.7219 27.6856,-18.3087 44.3022,-18.3087z"/>
   <path class="fil0" d="M94.9327 34.8044c15.9147,0 31.1776,6.3066 42.4307,17.5331 11.2542,11.2255 17.5754,26.4508 17.5754,42.3265 0,15.8753 -6.3213,31.101 -17.5754,42.3268 -11.2531,11.2254 -26.516,17.5322 -42.4307,17.5322 -15.9147,0 -31.1774,-6.3068 -42.4306,-17.5326 -11.254,-11.2254 -17.5757,-26.4511 -17.5757,-42.3264 0,-15.8757 6.3223,-31.101 17.5757,-42.3265 11.2532,-11.2265 26.5159,-17.5331 42.4306,-17.5331z"/>
   <path class="fil1" d="M94.9343 37.1276c15.2854,0 29.9449,6.0622 40.7526,16.8516 10.8096,10.7906 16.8809,25.4249 16.8809,40.6847 0,15.2594 -6.0713,29.8941 -16.8809,40.6841 -10.8078,10.7902 -25.4673,16.8518 -40.7526,16.8518 -15.2855,0 -29.9451,-6.0617 -40.7533,-16.8518 -10.8086,-10.79 -16.8807,-25.4247 -16.8807,-40.6841 0,-15.2598 6.0721,-29.8941 16.8807,-40.6847 10.8083,-10.7895 25.4679,-16.8516 40.7533,-16.8516z"/>
   <path class="fil1" d="M108.3465 120.4581c-7.5269,2.3806 -14.754,5.5979 -21.445,9.8183 -8.3708,5.2798 -14.8355,10.8036 -20.4133,19.0962l-2.9771 4.4263 -37.277 -94.243 2.9327 -0.8758c12.7797,-3.8163 26.4168,-4.6411 39.6386,-3.1708 9.5837,1.0666 18.9278,3.3612 27.9365,6.7954l1.1232 0.428 1.4679 3.4982c6.0701,1.9083 12.248,3.5827 18.484,4.8345 5.6596,1.1363 11.5367,1.9701 17.3174,2.0391 9.1729,0.1095 15.2816,-1.228 19.6171,-6.0487 2.0429,-2.2717 3.5266,-4.8384 4.8229,-9.4244 2.4878,5.1734 3.8799,10.5445 3.9968,16.5197 0.1407,7.2219 -1.7147,14.6721 -5.0979,20.7186 -3.7815,6.7632 -9.0626,12.1588 -15.356,16.6236 -8.9563,6.3558 -19.6893,10.5932 -30.1882,13.6217l-2.4423 0.7047 -2.1403 -5.3618z"/>
   <path class="fil0" d="M29.9698 61.3692l34.1893 86.4371c5.9579,-8.8588 12.742,-14.5408 21.2449,-19.9036 7.1763,-4.5266 15.3362,-8.1906 24.594,-10.8778l2.1532 5.3935c11.6919,-3.3725 21.5779,-7.7049 29.3416,-13.2142 6.2336,-4.4222 11.0831,-9.539 14.5312,-15.7039 4.4257,-7.912 6.2813,-19.0585 3.294,-28.3792 -3.9078,7.9686 -12.6571,10.9286 -24.2182,10.7902 -10.8599,-0.1299 -24.0839,-2.9881 -37.8531,-7.3979l-1.5047 -3.5858c-9.0305,-3.4426 -18.1038,-5.6115 -27.2469,-6.6283 -12.6829,-1.4107 -25.9817,-0.676 -38.5254,3.07z"/>
   <path class="fil1" d="M153.9758 73.9073c-1.8622,1.6676 -4.2782,2.6835 -7.2655,3.3969 -3.5092,0.8386 -7.6162,1.171 -11.6408,1.1233 -6.1142,-0.0732 -12.7397,-0.8873 -18.7279,-2.0894 -7.2542,-1.457 -13.3912,-2.8325 -21.2337,-5.2478l-1.6938 -4.2961c-8.2772,-3.0648 -16.4165,-4.5368 -25.1972,-5.5133 -11.6015,-1.2905 -23.6669,-0.1427 -33.5987,2.559l6.7964 17.0252c5.8714,-2.1829 12.8464,-3.5242 20.9289,-4.1633 10.1109,-0.7997 21.9071,-0.465 35.4936,1.2815l1.4617 3.7337c14.7389,1.5996 27.4881,1.8155 37.3087,-0.068 7.3984,-1.4191 14.1593,-3.8857 17.3683,-7.7418zm-99.7485 39.0533l0 0 10.9841 27.5159c5.2149,-6.2886 10.1005,-10.4176 17.9954,-15.397 8.987,-5.6685 19.8798,-9.8136 28.572,-11.8334l2.0033 5.0125c9.3705,-2.4323 17.9414,-5.5512 25.7716,-11.1065 5.6423,-4.0029 10.7842,-8.9589 14.1777,-15.0258 1.4187,-2.5379 2.6047,-5.2845 3.3819,-8.2374 -5.4168,5.9217 -12.1896,10.1846 -19.204,13.3598 -8.9462,4.0492 -18.7748,6.4306 -29.4207,7.662l-1.5617 -3.9365c-11.7236,-0.1707 -20.3113,0.6153 -29.779,2.7432 -8.0878,1.818 -16.9606,4.9913 -22.9207,9.2432z"/>
   <path class="fil2" d="M101.6969 72.991c-2.0957,-0.5619 -4.2675,-1.1855 -6.589,-1.9005l4.2049 10.6278c2.1548,0.2338 4.2669,0.4377 6.3336,0.61l-3.9495 -9.3373zm6.7922 31.9198l0 0 5.2929 13.3479c2.1423,-0.5562 4.2426,-1.1481 6.3025,-1.7972l-5.2616 -12.4395c-2.0781,0.346 -4.1892,0.6407 -6.3338,0.8887z"/>
   <path class="fil3" d="M99.3098 81.7182l9.1789 23.1925c2.1444,-0.248 4.2562,-0.5427 6.3342,-0.8887l-9.1765 -21.6938c-2.068,-0.1723 -4.181,-0.3762 -6.3366,-0.61z"/>
   <polygon class="fil1" points="177.1115,90.2864 175.6838,90.2864 173.4534,91.018 173.7962,92.4402 175.3382,92.0142 175.3382,99.3402 177.1115,99.3402 "/>
   <polygon class="fil1" points="15.9666,90.2382 14.5388,90.2382 12.3081,90.9699 12.6511,92.392 14.1932,91.9654 14.1932,99.2921 15.9666,99.2921 "/>
   <path class="fil1" d="M25.4134 94.5726c-0.0006,-1.3152 -0.1993,-2.3712 -0.8189,-3.2043 -0.5821,-0.7825 -1.5379,-1.3086 -2.8671,-1.3086 -1.814,0 -3.3436,1.3413 -3.3436,3.246 0,1.8185 1.5411,2.8282 3.2434,2.8302 0.8842,0.0016 1.565,-0.3345 1.9832,-0.776 -0.0602,1.3598 -0.7964,2.4323 -1.979,2.4872 -0.7881,0.037 -1.4455,-0.291 -2.0797,-0.909l-0.9094 1.3407c0.9797,0.7145 1.805,1.1015 3.0036,1.1005 0.9769,-0.001 1.9131,-0.4742 2.5651,-1.1897 0.8758,-0.9614 1.2033,-2.3806 1.2024,-3.6169zm-3.5443 0.1432l0 0c-0.8345,-0.0332 -1.6827,-0.512 -1.7274,-1.4622 -0.0483,-1.0325 0.6101,-1.6375 1.6183,-1.6416 1.2161,-0.0052 1.8286,0.7425 1.7927,1.5618 -0.0359,0.8213 -0.673,1.5825 -1.6836,1.542z"/>
   <path class="fil1" d="M168.2348 97.736c1.0825,-0.977 2.6101,-1.9415 3.407,-3.1878 0.2829,-0.441 0.5061,-1.0138 0.5033,-1.5368 -0.0066,-1.0792 -0.5831,-2.0017 -1.4412,-2.4693 -0.5125,-0.2807 -1.1595,-0.3975 -1.7571,-0.386 -0.5791,0.0114 -1.2406,0.2376 -1.7587,0.55 -0.5685,0.3424 -0.9842,0.8473 -1.3932,1.4715l1.2325 0.9381c0.4929,-0.7259 1.0826,-1.3885 1.9658,-1.3864 0.7532,0.002 1.3457,0.5526 1.3523,1.3735 0.0067,0.7003 -0.4755,1.3073 -0.9737,1.7256l-3.7205 3.125 0 1.3386 6.5631 0 0 -1.5561 -3.9796 0z"/>
   <path class="fil1" d="M93.1677 24.5781l2.9392 0.105 0.1441 -4.0327 2.1631 0.0584 2.5912 4.1482 3.4497 0.1236 -3.02 -4.6981c1.6391,-0.4436 2.8152,-1.9419 2.8895,-3.8759 0.057,-1.4996 -0.4738,-2.5834 -1.2287,-3.2821 -1.0351,-0.9576 -2.5762,-1.2405 -4.364,-1.3042l-5.1018 -0.1821 -0.4622 12.94zm5.6168 -10.0909l0 0c1.3632,0.0492 2.5876,0.4197 2.5346,1.8995 -0.0529,1.4876 -1.3024,1.7639 -2.6636,1.7161l-2.3104 -0.0837 0.1292 -3.6142 2.3103 0.0823z"/>
   <path class="fil1" d="M64.0055 32.0788l2.7133 -1.1343 -1.5 -3.5889 1.4532 -0.627c2.323,-1.0028 3.2341,-1.9831 3.6521,-3.0643 0.4178,-1.0812 0.3612,-2.2221 -0.1214,-3.4056 -0.5671,-1.3894 -1.6831,-2.1824 -2.6605,-2.5011 -1.3403,-0.4357 -2.7251,-0.1036 -4.3751,0.5857l-4.1745 1.7454 5.0129 11.9902zm0.6565 -11.4204l0 0c1.2587,-0.5273 2.2877,-0.3932 2.7847,0.7956 0.5178,1.2379 -0.0524,2.0868 -1.3967,2.6486l-1.8652 0.7797 -1.4325 -3.4256 1.9098 -0.7983z"/>
   <path class="fil1" d="M40.9924 50.1232l3.2013 -3.2768c1.0423,-1.0666 1.925,-2.2022 2.2616,-3.6953 0.4734,-2.0987 0.0126,-4.3341 -1.7547,-6.0609 -1.6893,-1.651 -3.6411,-2.1251 -5.5771,-1.7984 -1.7084,0.2882 -2.9273,1.2127 -4.0978,2.4107l-3.2946 3.3711 9.2614 9.0494zm-3.7871 -10.8931l0 0c1.4969,-1.5315 3.809,-1.5261 5.3753,0.004 1.5851,1.5488 1.6298,3.8109 0.1152,5.3609l-1.54 1.5765 -5.4904 -5.3648 1.5399 -1.5766z"/>
   <path class="fil1" d="M80.0137 13.0169c3.8322,-0.9165 7.4408,1.319 8.3053,4.9318 0.8639,3.6143 -1.3757,7.2205 -5.1756,8.1569 -3.7995,0.9365 -7.4407,-1.319 -8.3046,-4.9332 -0.864,-3.6142 1.3431,-7.2403 5.1749,-8.1555zm0.6382 2.6685l0 0c-2.1461,0.5127 -3.2793,2.6087 -2.7701,4.7365 0.509,2.1292 2.4852,3.4973 4.6135,2.9727 2.1285,-0.5247 3.2797,-2.6087 2.7709,-4.7379 -0.5092,-2.1278 -2.4679,-3.4853 -4.6143,-2.9713z"/>
   <path class="fil1" d="M155.0583 35.9215c2.5411,3.0111 2.1679,7.239 -0.672,9.6365 -2.8385,2.3975 -7.0664,2.019 -9.6114,-0.9536 -2.545,-2.974 -2.1691,-7.239 0.6708,-9.6366 2.8385,-2.3975 7.0704,-2.0561 9.6126,0.9537zm-2.0973 1.7705l0 0c-1.4226,-1.6869 -3.8054,-1.7559 -5.4763,-0.344 -1.6737,1.4119 -2.0072,3.7922 -0.5805,5.4578 1.4264,1.6656 3.8054,1.7559 5.4777,0.344 1.6723,-1.4119 2.003,-3.7722 0.5791,-5.4578z"/>
   <polygon class="fil1" points="120.3693,15.2617 109.9182,12.7779 109.2914,15.4131 113.0598,16.3096 110.6922,26.2704 113.5896,26.9584 115.957,16.9978 119.7432,17.897 "/>
   <polygon class="fil1" points="128.7785,18.4654 126.0554,17.3537 121.1611,29.3412 123.8842,30.453 "/>
   <polygon class="fil1" points="53.2488,23.1291 45.0862,28.5669 52.2635,39.3431 60.5345,33.8347 59.0676,31.6325 53.2451,35.5111 51.8328,33.3898 56.875,30.032 55.4264,27.8576 50.3841,31.2155 48.9998,29.1368 54.715,25.3312 "/>
   <polygon class="fil1" points="145.2479,27.5388 142.4983,25.8532 135.0535,31.7388 136.8917,22.417 134.1011,20.7063 131.7458,34.5069 133.9908,35.8816 "/>
   <path class="fil1" d="M130.228 155.1486c-1.1107,0.732 -1.9741,1.7085 -2.1769,2.9516 -0.1386,0.8506 -0.0028,1.8228 0.6309,2.8264 0.5541,0.8773 1.3901,1.3874 2.3021,1.5336 0.7667,0.123 1.5394,-0.0317 2.3599,-0.2102 1.0573,-0.2303 3.3034,-1.2675 3.9409,-0.1618 0.4091,0.7103 -0.2218,1.4222 -0.781,1.7905 -1.3229,0.8727 -2.9446,0.878 -4.2766,0.7025l-0.477 2.625c2.578,0.5229 4.9091,-0.2237 6.2094,-1.1451 1.0401,-0.7368 1.8676,-1.5939 2.1758,-2.7634 0.2391,-0.9096 0.1607,-2.0307 -0.5752,-3.1531 -0.7519,-1.1472 -1.8622,-1.5618 -3.0072,-1.5477 -1.0413,0.0124 -2.1637,0.3777 -3.1361,0.6356 -0.63,0.167 -2.1896,0.7186 -2.561,-0.3679 -0.2246,-0.6574 0.2697,-1.2208 0.7653,-1.5499 1.1057,-0.7331 2.266,-0.7518 3.7005,-0.6397l0.1673 -2.6494c-1.8928,-0.2978 -3.8871,0.217 -5.2611,1.123z"/>
   <polygon class="fil1" points="123.3735,158.9948 114.1063,162.205 118.3443,174.4394 127.734,171.1874 126.868,168.6879 120.2574,170.9776 119.4236,168.5698 125.148,166.5867 124.2929,164.1185 118.5683,166.101 117.7512,163.7419 124.2395,161.4942 "/>
   <polygon class="fil1" points="117.3025,160.1452 119.4323,159.4073 121.27,156.7456 118.4434,156.5836 "/>
   <polygon class="fil1" points="110.8915,163.1368 107.6912,163.5295 105.5272,172.7704 101.1631,164.3308 97.9151,164.7293 104.6616,176.9954 107.2751,176.6747 "/>
   <path class="fil1" d="M94.4819 177.645l-3.0993 -0.2973 -0.8778 -2.9398 -5.31 -0.509 -1.445 2.7178 -3.0048 -0.288 6.8022 -12.4042 2.622 0.2512 4.3126 13.4693zm-4.7802 -5.9254l0 0 -1.2043 -4.0319 -1.9815 3.7265 3.1858 0.3055z"/>
   <path class="fil1" d="M61.2483 170.2304l-2.7131 -1.5259 0.3877 -3.044 -4.6489 -2.615 -2.422 1.8994 -2.6307 -1.4797 11.2426 -8.5874 2.2953 1.2913 -1.5109 14.0613zm-1.9712 -7.353l0 0 0.532 -4.1738 -3.3212 2.6048 2.7892 1.569z"/>
   <polygon class="fil1" points="73.5903,160.8985 70.7849,160.0148 66.8951,172.3646 75.8134,175.1741 76.6084,172.6515 70.4948,170.7255 "/>
   <path class="fil1" d="M57.6884 84.3762l2.2042 5.5585 3.2173 -0.7689 -1.2337 -3.1203 1.9488 -0.343c0.9478,-0.1733 2.0597,-0.3098 3.0218,-0.1629 1.033,0.1577 1.9496,0.5313 2.6833,1.0133 1.9152,1.2597 3.4162,3.9979 2.7153,6.315 -0.3274,1.0828 -1.1295,1.9498 -2.5896,2.4177l-3.6625 1.1742 -1.3947 -3.5276 -3.1588 0.9039 2.4412 6.1555 7.0399 -2.1372c2.3068,-0.6994 4.3193,-2.6306 4.3661,-5.1909l0.1287 -7.0382 4.3859 4.9097 -1.87 0.2092 0 2.4522 3.6865 -0.4707 2.1953 2.5691 2.4375 -0.3252 -10.9321 -12.2292 -2.2487 0.2137 -0.1122 3.549c-1.1315,-1.6022 -2.7147,-2.4595 -4.609,-2.8833 -2.9554,-0.662 -6.7181,-0.1043 -10.6604,0.7565z"/>
  </g>
 </g>
</svg>
