<?xml version="1.0" encoding="UTF-8"?>
<!DOCTYPE svg PUBLIC "-//W3C//DTD SVG 1.1//EN" "http://www.w3.org/Graphics/SVG/1.1/DTD/svg11.dtd">
<!-- Creator: CorelDRAW 2019 (64-Bit) -->
<svg xmlns="http://www.w3.org/2000/svg" xml:space="preserve" width="165.45mm" height="224.15mm" version="1.1" style="shape-rendering:geometricPrecision; text-rendering:geometricPrecision; image-rendering:optimizeQuality; fill-rule:evenodd; clip-rule:evenodd"
viewBox="0 0 171.2304 231.9824"
 xmlns:xlink="http://www.w3.org/1999/xlink"
 xmlns:xodm="http://www.corel.com/coreldraw/odm/2003">
 <defs>
  <style type="text/css">
   <![CDATA[
    .fil5 {fill:#0073BD}
    .fil4 {fill:#CC8600}
    .fil3 {fill:#E30411}
    .fil0 {fill:#FFCF00}
    .fil1 {fill:black}
    .fil2 {fill:white}
   ]]>
  </style>
 </defs>
 <g id="Layer_x0020_1">
  <metadata id="CorelCorpID_0Corel-Layer"/>
  <g id="_1097900128">
   <path class="fil0" d="M78.1775 226.1501c3.2907,2.8042 5.571,4.524 6.5428,5.2338 9.197,-6.3928 17.6089,-14.6927 25.049,-22.9176 14.543,-16.0387 32.5262,-40.9007 46.2846,-76.0437 10.7672,-27.5912 15.067,-66.285 14.6175,-96.3074l-50.172 0 0 -0.8974c-0.112,-19.1788 -15.7027,-34.7313 -34.919,-34.7313 -19.2166,0 -34.7695,15.5525 -34.8815,34.7313l0 0.8974 -50.1351 0c-0.4485,30.0224 3.8507,68.7162 14.6557,96.3074 13.3096,34.1335 34.8441,69.4261 62.9581,93.7275z"/>
   <path class="fil1" d="M78.1775 226.1501l-0.3365 0.3744c3.2899,2.8412 5.608,4.5612 6.5796,5.271l0.299 0.1869 0.2982 -0.1869c9.2349,-6.393 17.6468,-14.7299 25.1612,-22.9924 14.5434,-16.0759 32.5634,-40.975 46.3216,-76.1936 10.3188,-26.4321 14.7298,-62.8827 14.7298,-92.3058 0,-1.4209 0,-2.8047 -0.0372,-4.1885l0 -0.4865 -50.2099 0 0 -0.4109c-0.0768,-19.4784 -15.8896,-35.2178 -35.4053,-35.2178 -19.4777,0 -35.2924,15.7394 -35.4045,35.2178l0 0.4109 -50.1352 0 0 0.4865c0,1.3838 -0.0383,2.7676 -0.0383,4.1885 0,29.3845 4.4113,65.8737 14.7306,92.3058 13.3466,34.209 34.881,69.5388 63.1079,93.915l0.3368 -0.3744 0.3371 -0.4116c-28.0399,-24.2265 -49.5372,-59.4442 -62.8467,-93.5034 -10.2438,-26.2452 -14.6557,-62.6596 -14.6179,-91.9329 0,-1.4209 0,-2.8031 0,-4.1499l-0.4865 -0.0371 0 0.5219 50.6588 0 0 -1.4193c0.0761,-18.9178 15.4403,-34.2093 34.358,-34.2093 18.9549,0 34.3205,15.2916 34.3953,34.2093l0 1.421 50.6965 0 0 -0.5236 -0.4865 0.0371c0,1.3468 0,2.729 0,4.1499 0,29.3103 -4.3754,65.7254 -14.6185,91.9329 -13.7204,35.0687 -31.6659,59.8559 -46.1717,75.8947 -7.4402,8.2248 -15.8148,16.4873 -24.9741,22.8426l0.2984 0.4116 0.299 -0.4116c-0.9724,-0.6725 -3.2529,-2.3925 -6.5057,-5.2338l-0.3329 0.4116z"/>
   <path class="fil1" d="M85.6548 10.3184c14.5437,0 24.8623,11.6282 24.9369,25.684l-49.8731 0c0.0767,-14.0558 10.3933,-25.684 24.9362,-25.684z"/>
   <path class="fil2" d="M85.6548 12.113c-12.4119,0 -22.5059,9.7964 -23.1043,22.0577l46.1723 0c-0.5235,-12.2612 -10.6552,-22.0577 -23.068,-22.0577z"/>
   <path class="fil1" d="M55.1852 83.9325l-43.1065 0c-1.3085,-9.6081 -2.7664,-26.5813 -2.2807,-38.0226l70.1744 0 0 15.1046 -24.7872 22.9179z"/>
   <path class="fil1" d="M116.1622 83.9325l-24.7872 -22.9179 0 -15.1046 70.1749 0c0,0 0.6718,16.1518 -2.1689,37.2373l-0.112 0.7847 -43.1067 0.0006z"/>
   <path class="fil1" d="M86.0292 217.8503l-0.9722 0.4859c-27.3295,-20.0386 -51.9297,-62.8085 -62.0614,-89.5773l125.3562 0c-9.8698,26.0583 -34.9937,69.5387 -62.3226,89.0914z"/>
   <path class="fil1" d="M13.7984 94.5878l-0.2239 -1.0843 44.5646 0 27.1424 -25.3103 27.9273 25.3103 44.5646 0c-1.7571,9.4212 -3.7007,17.7209 -6.5429,26.8429l-131.0759 0c-2.6548,-8.4865 -4.7478,-17.0103 -6.3558,-25.7586l-0.0006 0z"/>
   <path class="fil2" d="M85.2066 216.2054c8.0382,-5.982 15.3656,-13.6084 21.9082,-21.1234 12.3751,-14.132 27.4415,-35.5168 38.5825,-64.4912l-120.0474 0c11.4029,29.6095 29.984,59.2197 53.7617,80.7169 2.879,2.5795 4.8976,4.2245 5.7949,4.8978z"/>
   <path class="fil3" d="M40.8991 130.5907l0 31.9511c5.0807,8.8547 10.8243,17.3785 17.0902,25.4177l0 -57.3688 -17.0902 0z"/>
   <path class="fil3" d="M76.1589 130.5907l0 77.5296c1.0924,1.0415 2.1378,2.1483 3.2528,3.1546 2.8784,2.6172 4.8928,4.2622 5.79,4.9349 2.7752,-2.0654 5.4428,-4.3723 8.0475,-6.7574l0 -78.8616 -17.0903 0z"/>
   <path class="fil3" d="M111.447 130.5907l0 59.1775c5.534,-6.7877 11.3353,-14.6745 17.0903,-24.1983l0 -34.9792 -17.0903 0z"/>
   <path class="fil1" d="M62.3635 163.304c0,-12.4871 10.0944,-22.6194 22.5815,-22.6194 12.4871,0 22.5809,10.1324 22.5809,22.6194 0,12.4493 -10.0939,22.5807 -22.5809,22.5807 -12.4871,0 -22.5815,-10.1314 -22.5815,-22.5807z"/>
   <path class="fil1" d="M62.3635 163.304c0,-6.2439 2.5424,-11.8893 6.617,-15.9646 4.0752,-4.0747 9.7207,-6.617 15.9645,-6.617 6.2432,0 11.8514,2.5423 15.964,6.617 4.0747,4.0753 6.5798,9.7207 6.5798,15.9646 0,6.206 -2.5052,11.8508 -6.5798,15.9261 -4.1125,4.1123 -9.7208,6.6176 -15.964,6.6176 -6.2438,0 -11.8893,-2.5053 -15.9645,-6.6176 -4.0746,-4.0753 -6.617,-9.7201 -6.617,-15.9261l-0.0384 0c0,12.487 10.1317,22.6186 22.6185,22.6186 12.4872,0 22.6187,-10.1317 22.6187,-22.6186 0,-12.525 -10.1315,-22.6565 -22.6187,-22.6565 -12.4869,0 -22.6185,10.1315 -22.6185,22.6565l0.0384 0z"/>
   <path class="fil4" d="M69.5042 149.433c0,0 -0.8969,2.1686 -0.0762,3.8513 0.8217,1.6449 1.5322,1.9068 2.0936,2.4675 0.5606,0.5606 1.9438,1.1962 3.2151,-0.5615 1.3082,-1.7191 4.1495,-5.8322 8.1874,-8.1499 3.6638,-2.1307 4.7853,-2.2056 6.617,-2.5794 1.4212,-0.299 3.0283,-0.3745 3.0283,-0.3745 0,0 -5.0471,-2.2433 -10.9161,-1.2711 -7.4773,1.1964 -12.1511,6.6176 -12.1511,6.6176l0.002 0z"/>
   <path class="fil4" d="M67.2983 152.3492c0,0 0.299,2.5051 4.1504,5.87 3.8505,3.402 6.8787,3.7009 8.7106,3.9627 1.8317,0.2989 3.4018,0.9344 3.9632,3.1408 0.5606,2.1679 0,4.1873 -0.6358,5.1218 -0.6731,0.9339 -1.6825,1.3083 -4.5239,1.0093 -2.841,-0.2625 -7.3273,-1.9438 -10.4681,-5.2338 -3.4768,-3.6644 -3.9255,-6.2438 -3.9255,-6.2438 0,0 0.2611,-2.0188 0.8968,-3.8506 0.6355,-1.8319 1.8317,-3.7764 1.8317,-3.7764l0.0006 0z"/>
   <path class="fil4" d="M64.2702 164.1263c0,0 1.7569,4.4864 7.4397,7.2526 5.6831,2.7293 7.5522,2.0189 8.6363,2.0938 1.0844,0.112 2.9538,0 2.4675,2.1307 -0.4485,2.0936 -2.2058,5.0476 -3.8508,5.6083 -1.6448,0.5236 -3.3647,0.336 -3.3647,0.336 0,0 -4.4491,-2.0566 -7.5522,-6.505 -3.8506,-5.5334 -3.7758,-10.9171 -3.7758,-10.9171l0 0.0006z"/>
   <path class="fil4" d="M80.0844 183.2305c0,0 2.8412,-1.5701 4.6736,-7.814 1.8318,-6.2432 1.3832,-9.9069 1.0838,-11.2159 -0.2614,-1.2712 -0.5231,-2.6544 0.5611,-4.0376 1.1215,-1.3832 2.3927,-2.7663 3.7009,-3.215 1.2711,-0.4486 2.0938,-0.8967 3.2158,1.0844 1.0837,2.0559 3.1773,6.3552 1.9063,13.2346 -1.2706,6.9165 -4.0377,9.6457 -4.4864,10.2065 -0.4859,0.5606 -2.5795,2.0937 -2.5795,2.0937 0,0 -2.0937,0.3737 -4.1502,0.2982 -2.3548,-0.1119 -3.9254,-0.6356 -3.9254,-0.6356l0 0.0007z"/>
   <path class="fil4" d="M92.3845 182.2959c0,0 5.4213,-6.2439 5.4213,-13.2346 0,-6.9543 -1.8319,-10.7302 -2.4674,-11.9263 -0.6733,-1.1963 -0.6733,-2.5795 1.5329,-3.5896 2.2058,-1.0093 3.4769,-0.8967 4.4114,-0.7099 0.9351,0.1492 1.7569,0.2625 2.2804,1.645 0.5609,1.3459 2.3927,5.4206 1.8692,10.4682 -0.5607,5.0471 -1.3832,7.3276 -4.7853,11.6647 -3.402,4.2992 -8.2625,5.6824 -8.2625,5.6824z"/>
   <path class="fil4" d="M95.8612 145.7321c0,0 -5.4954,-0.8225 -10.7293,2.3177 -5.2345,3.1031 -7.6269,6.3187 -8.2627,7.627 -0.6728,1.2711 -1.6449,2.8412 0.6358,3.6638 2.2804,0.8224 6.5048,1.6449 8.0008,-0.3744 1.4578,-2.0189 4.2242,-4.4863 7.888,-6.0564 3.6639,-1.57 4.7858,-1.6449 6.1689,-1.7569 1.3463,-0.0769 2.3927,0.2982 2.3927,0.2982 0,0 -1.5701,-2.0188 -3.1401,-3.5138 -1.5708,-1.4581 -2.954,-2.2065 -2.954,-2.2065l0 0.0013z"/>
   <path class="fil2" d="M54.4748 82.1007l23.6657 -21.8707 0 -12.5254 -66.585 0c-0.0766,3.4781 -0.1868,16.8251 2.1309,34.396l40.7883 0z"/>
   <path class="fil3" d="M22.7716 51.9674l0 18.1703c0,1.7564 1.9069,6.5045 15.6272,6.5045 13.721,0 15.0294,-5.1595 15.0294,-7.1038l0 -17.7209 -8.9352 0 0 17.7579c0,1.4963 -0.5608,4.0758 -6.169,4.0758 -5.6078,0 -6.7299,-1.6822 -6.7299,-3.5893l0 -18.0946 -8.8226 0z"/>
   <path class="fil2" d="M116.8729 82.1007l40.7881 0c2.3554,-17.5709 2.2062,-30.9179 2.1314,-34.396l-66.5856 0 0 12.5254 23.6661 21.8707z"/>
   <path class="fil3" d="M114.966 51.7047l0 24.227 13.1226 0c6.3558,0 19.8523,-1.3832 19.8523,-12.0012 0,-10.6551 -13.0479,-12.2259 -20.9366,-12.2259l-12.0383 0zm8.7112 3.0286l0 0 0 0.0017c0,0 3.9628,-0.1128 6.617,0.1853 3.365,0.3367 8.8235,1.1969 8.8235,8.8234 0,7.6276 -5.3087,8.4502 -8.5245,9.0107 -3.215,0.5223 -6.916,0.2612 -6.916,0.2612l0 -18.2822z"/>
   <path class="fil5" d="M15.7801 95.3353c1.4209,7.4023 3.2528,15.2535 5.7202,23.217l128.3846 0c2.4304,-7.9636 4.2621,-15.8147 5.6824,-23.217l-43.0688 0 -27.1798 -24.6757 -26.4697 24.6757 -43.0688 0z"/>
   <polygon class="fil2" points="121.5459,115.1875 125.8452,115.1875 125.8452,97.8029 121.5459,97.8029 "/>
   <path class="fil2" d="M27.5568 115.4864l-4.3366 0 6.5421 -17.5339 4.7108 0 6.393 17.5339 -4.3363 0 -1.2712 -3.8505 -6.356 0 -1.3458 3.8505zm6.9537 -6.0563l0 0 -2.3927 -7.1782 -2.4674 7.1782 4.8601 0z"/>
   <polygon class="fil2" points="44.2311,98.0268 48.4933,98.0268 48.4933,113.1687 57.0921,113.1687 57.0921,115.3744 44.2311,115.3744 "/>
   <polygon class="fil2" points="88.3468,113.0939 96.2729,113.0939 96.2729,115.4115 84.0476,115.4115 84.0476,98.0268 96.2729,98.0268 96.2729,100.308 88.3468,100.308 88.3468,105.3921 95.3756,105.3921 95.3756,107.6726 88.3468,107.6726 "/>
   <path class="fil2" d="M102.8899 98.0268l4.2999 0c0.4115,0 2.9906,-0.0761 4.935,0.6358 2.0936,0.7853 3.7009,2.4302 3.7009,4.5239 0,2.2805 -3.5141,3.6637 -3.5141,3.6637 0,0 2.0187,0.6356 3.5141,3.2528 1.5329,2.6171 2.3181,5.2715 2.3181,5.2715l-4.6732 0c0,0 -0.935,-2.7293 -1.9815,-4.5611 -1.0472,-1.8695 -2.0188,-2.6921 -2.9162,-2.8041 -0.4117,-0.0767 -0.9344,-0.112 -1.3832,-0.0767l0 7.4399 -4.2999 0 0 -17.3457zm4.2999 2.2434l0 0 0 5.4213 0.9715 0c0.5985,0 3.1032,-0.4493 3.1032,-2.6921 0,-2.2433 -2.6165,-2.7292 -3.5518,-2.7292l-0.5229 0z"/>
   <path class="fil2" d="M133.7341 115.4864l-4.337 0 6.5056 -17.5339 4.7102 0 6.4307 17.5339 -4.3372 0 -1.2712 -3.8505 -6.3928 0 -1.3083 3.8505zm6.9537 -6.0563l0 0 -2.3927 -7.1782 -2.4674 7.1782 4.8601 0z"/>
   <polygon class="fil2" points="74.0281,98.0268 78.3275,98.0268 78.3275,115.3744 74.0281,115.3744 74.0281,102.8498 69.6539,108.6078 68.7187,108.6078 64.4565,102.9624 64.4565,115.3744 60.1573,115.3744 60.1573,98.0268 64.4565,98.0268 64.4565,98.2137 69.2795,104.27 74.0275,98.0268 74.0275,98.0653 "/>
   <path class="fil1" d="M85.5058 15.4398c5.6823,0 10.2811,4.5623 10.2811,10.2443 0,5.6836 -4.5988,10.2443 -10.2811,10.2443 -5.6455,0 -10.2444,-4.5607 -10.2444,-10.2443 0,-5.6819 4.5989,-10.2443 10.2444,-10.2443z"/>
   <path class="fil0" d="M85.5058 17.2343c-4.6739,0 -8.4496,3.7777 -8.4496,8.4497 0,4.6735 3.7757,8.4497 8.4496,8.4497 4.6729,0 8.4495,-3.7762 8.4495,-8.4497 0,-4.6719 -3.7766,-8.4497 -8.4495,-8.4497z"/>
  </g>
 </g>
</svg>
