<?xml version="1.0" encoding="UTF-8"?>
<!DOCTYPE svg PUBLIC "-//W3C//DTD SVG 1.1//EN" "http://www.w3.org/Graphics/SVG/1.1/DTD/svg11.dtd">
<!-- Creator: CorelDRAW 2019 (64-Bit) -->
<svg xmlns="http://www.w3.org/2000/svg" xml:space="preserve" width="177.692mm" height="212.57mm" version="1.1" style="shape-rendering:geometricPrecision; text-rendering:geometricPrecision; image-rendering:optimizeQuality; fill-rule:evenodd; clip-rule:evenodd"
viewBox="0 0 177.5973 212.4564"
 xmlns:xlink="http://www.w3.org/1999/xlink"
 xmlns:xodm="http://www.corel.com/coreldraw/odm/2003">
 <defs>
  <style type="text/css">
   <![CDATA[
    .fil0 {fill:black}
    .fil1 {fill:white}
   ]]>
  </style>
 </defs>
 <g id="Layer_x0020_1">
  <metadata id="CorelCorpID_0Corel-Layer"/>
  <g id="_748006240">
   <path class="fil0" d="M-0 0l0 100.3451c0.377,17.5571 10.1974,44.9112 22.6386,62.4823 17.5022,24.718 40.4568,41.1398 66.1596,49.629 25.7029,-8.4893 48.6574,-24.9111 66.1592,-49.629 12.4419,-17.5711 22.2621,-44.9252 22.6399,-62.4823l0 -100.3451 -177.5973 0z"/>
   <path class="fil1" d="M7.1475 7.1468l163.3015 0 0 87.1499c1.0696,18.6532 -6.8561,43.7476 -19.9694,63.3299 -14.1505,21.131 -38.5866,39.9232 -61.6814,47.6823 -23.0943,-7.759 -47.5306,-26.5513 -61.681,-47.6823 -13.1137,-19.5823 -21.0394,-44.6767 -19.9697,-63.3299l0 -87.1499z"/>
   <path class="fil0" d="M73.7326 25.8887c0.2207,-0.0133 0.4294,0.0324 0.5654,-0.0458 0.5273,-0.3054 0.7471,0.034 1.0074,0.3954 1.3653,1.9003 2.744,3.7918 4.1203,5.6833 0.0403,0.0546 0.1035,0.0915 0.211,0.1829 0.5537,-2.1157 1.0959,-4.1783 1.6307,-6.2424 0.1062,-0.4087 0.1939,-0.8233 0.2733,-1.2364 0.0525,-0.2641 0.2086,-0.3836 0.4618,-0.4234 0.272,-0.0443 0.5411,-0.1062 0.8402,-0.1667 1.0668,3.3461 2.1405,6.713 3.2131,10.0843 -0.7411,0.1549 -1.4904,0.3112 -2.2564,0.4735 -0.6496,-2.2544 -1.3083,-4.5413 -1.9673,-6.8281 -0.0354,0.0045 -0.0688,0.0075 -0.1039,0.0119 -0.4138,1.6509 -0.8334,3.3019 -1.242,4.9543 -0.1884,0.7642 -0.3469,1.5359 -0.5475,2.2957 -0.0396,0.1505 -0.1871,0.3143 -0.3289,0.3895 -0.2075,0.1077 -0.3523,-0.0206 -0.4927,-0.2169 -1.3568,-1.8885 -2.7301,-3.7652 -4.0994,-5.6448 -0.0324,-0.0458 -0.071,-0.0871 -0.1062,-0.1313 -0.0495,0.0074 -0.0984,0.0162 -0.1468,0.0236 0.223,2.3046 0.4467,4.6091 0.6697,6.9078 -0.3695,0.0664 -0.7845,0.1387 -1.2373,0.2184 -0.0076,-0.0768 -0.0237,-0.1845 -0.026,-0.2921 -0.0324,-1.223 -0.0387,-2.4447 -0.0997,-3.6663 -0.0923,-1.8324 -0.2271,-3.6634 -0.3343,-5.4959 -0.0236,-0.3954 -0.0034,-0.7923 -0.0034,-1.2304l-0.0006 0z"/>
   <path class="fil0" d="M108.7553 27.3007c0.4133,0.1372 0.755,0.2523 1.114,0.3718 -0.9641,3.3993 -1.9191,6.772 -2.8821,10.1728 -0.373,-0.118 -0.7136,-0.2006 -1.0311,-0.3378 -0.124,-0.0546 -0.2248,-0.2169 -0.287,-0.3526 -0.9741,-2.0936 -1.9318,-4.1931 -2.9092,-6.2837 -0.4006,-0.8557 -0.837,-1.6952 -1.2951,-2.6173 -0.6932,2.4462 -1.3613,4.8083 -2.0362,7.1881 -0.375,-0.115 -0.7346,-0.2257 -1.1226,-0.3437 0.9556,-3.3713 1.9106,-6.7441 2.8788,-10.1611 0.4601,0.1446 0.8777,0.2642 1.2881,0.4087 0.0795,0.0281 0.1508,0.1313 0.1919,0.2154 1.2472,2.6277 2.4893,5.2569 3.734,7.886 0.1106,0.2346 0.2255,0.4677 0.3867,0.8012 0.6743,-2.3783 1.3204,-4.6578 1.9699,-6.9476z"/>
   <path class="fil0" d="M73.3373 36.8125c-0.7635,0.3688 -1.4817,0.7156 -2.2449,1.0844 -0.7207,-0.7967 -1.4677,-1.6214 -2.2324,-2.4639 -1.0099,0.4765 -2.0017,0.9383 -2.9844,1.4193 -0.0997,0.0487 -0.2104,0.2198 -0.2016,0.3245 0.0836,1.0328 0.1919,2.0656 0.2956,3.1278 -0.3729,0.1756 -0.7637,0.3615 -1.2258,0.5814 -0.1274,-3.8729 -0.2548,-7.7149 -0.3832,-11.5789 0.0922,-0.034 0.1845,-0.0443 0.2461,-0.0915 0.6132,-0.4958 1.0075,-0.1978 1.4811,0.2861 2.2985,2.3547 4.6353,4.6726 6.9592,7.0038 0.0922,0.0944 0.1803,0.1918 0.2903,0.3068zm-7.6674 -0.8808l0 0c0.8529,-0.4042 1.6615,-0.7864 2.5072,-1.1862 -0.8957,-0.9295 -1.7487,-1.8162 -2.6004,-2.7015 -0.029,0.0221 -0.0578,0.0458 -0.0847,0.0708 0.0587,1.2512 0.1169,2.5038 0.1779,3.8169z"/>
   <path class="fil0" d="M92.2931 23.8129c1.8857,0.1977 3.7075,0.3895 5.5684,0.5842 -0.0362,0.425 -0.0725,0.8498 -0.1071,1.2688 -0.8859,-0.1548 -1.7648,-0.2994 -2.6401,-0.4618 -0.7112,-0.1328 -0.747,-0.0944 -0.796,0.602 -0.0537,0.7731 -0.1567,1.5418 -0.2357,2.312 -0.011,0.1135 -0.0012,0.2287 -0.0012,0.4028 1.1123,0.0782 2.2085,0.1563 3.3133,0.2361 -0.0472,0.3703 -0.0973,0.7672 -0.1493,1.1774 -1.0626,-0.1402 -2.1312,-0.2848 -3.2752,-0.4368 -0.1285,1.3219 -0.2543,2.6232 -0.3879,3.9939 1.1676,0.0679 2.276,0.1328 3.3837,0.1977 -0.0323,0.3954 -0.0653,0.785 -0.1036,1.2364 -1.8443,-0.1933 -3.6755,-0.3851 -5.5807,-0.5858 0.3355,-3.4966 0.6708,-6.983 1.0115,-10.5269z"/>
   <path class="fil0" d="M109.7691 36.5897c0.0121,0.1269 0.0524,0.2568 0.0334,0.3807 -0.2027,1.319 0.8518,2.4742 2.115,2.4964 1.124,0.0206 1.8385,-1.2939 1.2921,-2.3621 -0.3105,-0.6064 -0.7328,-1.1582 -1.1334,-1.7159 -1.106,-1.5403 -1.1101,-3.0098 0.0484,-4.4143 0.7832,-0.9502 1.9669,-1.2984 3.4285,-0.7628 0.9538,0.3482 1.8905,1.1803 2.2823,2.0345 -0.3578,0.3733 -0.721,0.7525 -1.16,1.2128 -0.0623,-0.4101 -0.0935,-0.7317 -0.1632,-1.046 -0.1649,-0.7273 -0.808,-1.316 -1.5226,-1.4045 -0.4939,-0.062 -0.9418,0.031 -1.2646,0.4486 -0.3768,0.4912 -0.5129,1.0489 -0.2045,1.5963 0.449,0.8012 0.9839,1.5536 1.4576,2.3399 0.6246,1.0387 0.8022,2.1217 0.2385,3.2533 -0.6961,1.4016 -2.1065,2.0375 -3.6481,1.6805 -1.2396,-0.2877 -2.2448,-0.9074 -2.995,-1.9372 -0.1286,-0.1756 -0.1835,-0.301 -0.0118,-0.4928 0.3694,-0.4146 0.7125,-0.8527 1.0664,-1.2806 0.0478,-0.0089 0.0939,-0.0177 0.1411,-0.0266z"/>
   <path class="fil0" d="M87.3483 23.8129l2.1836 0c0.0688,3.4774 0.1372,7.0022 0.2069,10.5815l-2.2031 0c-0.0623,-3.4819 -0.1233,-6.9964 -0.1874,-10.5815z"/>
   <path class="fil0" d="M77.6729 76.8483c0.6696,1.6628 1.3066,3.2223 1.9269,4.7875 0.6207,1.5683 1.1422,3.2022 2.1586,4.56 0.788,1.0518 1.7073,2.0309 2.6922,2.9006 1.1215,0.9878 2.3462,1.8748 3.5904,2.7087 2.6241,1.7602 5.3017,3.4403 7.9366,5.1835 2.0979,1.3866 4.0366,2.975 5.7194,4.8434 1.5435,1.7128 2.5438,3.7208 2.8333,6.0215 0.1348,1.0712 0.211,2.1628 0.1705,3.2401 -0.0558,1.5006 -0.3965,2.9611 -1.0114,4.3449 -0.1394,0.3151 -0.2863,0.6265 -0.4387,0.9596 -1.2632,-0.4652 -2.3495,-1.1083 -3.2948,-1.959 -0.6502,-0.5855 -1.2184,-1.2593 -1.8386,-1.8782 -0.4103,-0.4103 -0.257,-0.9469 -0.3214,-1.4161 -0.2134,-1.5208 -0.7809,-2.881 -1.6598,-4.1253 -1.0489,-1.485 -2.4945,-2.5444 -3.9536,-3.5667 -2.0512,-1.4351 -4.1489,-2.8062 -6.2319,-4.1964 -1.6106,-1.0747 -3.2531,-2.1036 -4.8397,-3.2129 -2.2461,-1.5724 -4.1439,-3.4735 -5.2976,-6.0089 -0.5148,-1.1313 -0.8425,-2.3087 -0.9487,-3.5582 -0.2272,-2.6805 0.2392,-5.2198 1.5197,-7.5913 0.3642,-0.6737 0.8195,-1.3002 1.2886,-2.0368z"/>
   <path class="fil0" d="M90.7243 92.944c-0.8132,-0.5279 -1.6241,-1.0605 -2.4418,-1.5809 -1.756,-1.1199 -3.375,-2.4009 -4.8452,-3.8821 -0.8678,-0.8736 -1.5429,-1.869 -2.0714,-2.9507 -0.5761,-1.1788 -1.0327,-2.416 -1.5323,-3.6322 -0.7113,-1.7307 -1.4132,-3.463 -2.1163,-5.1966 -0.2186,-0.5383 -0.4196,-1.0811 -0.6387,-1.6195 -0.064,-0.1551 -0.1596,-0.2972 -0.3157,-0.5775 -2.5877,6.5252 -5.1254,12.927 -7.6894,19.3923 0.2179,0.0103 0.3728,0.0242 0.5262,0.0242 2.3369,0.0016 4.674,-0.0064 7.0109,0.0143 0.2163,0.0012 0.48,0.1268 0.6351,0.2807 0.6548,0.6484 1.2755,1.3295 1.9228,2.0136 -0.1285,0.0063 -0.2808,0.0196 -0.4342,0.0196 -3.417,0.0012 -6.834,0.0024 -10.2509,-0.0039 -0.2806,-0.0018 -0.4178,0.0524 -0.5285,0.3583 -0.6428,1.7579 -1.3446,3.4955 -1.9865,5.2533 -0.4433,1.208 -0.8484,2.4314 -1.2139,3.6654 -0.2197,0.7382 -0.3077,1.5157 -0.1171,2.2793 0.2853,1.148 1.1061,1.7336 2.2184,1.9514 0.6714,0.132 1.3532,0.2128 2.0627,0.3216l0 0.744 -12.2947 0 0 -0.7123c0.5774,-0.1867 1.1786,-0.3458 1.7509,-0.5774 1.0898,-0.4421 1.8829,-1.2432 2.3853,-2.2822 0.9742,-2.0126 1.9124,-4.0419 2.8311,-6.0802 0.5192,-1.1481 0.9813,-2.3233 1.4539,-3.4914 0.6289,-1.5555 1.2351,-3.1185 1.8663,-4.6728 0.4396,-1.0876 0.9163,-2.1611 1.3566,-3.2505 0.6174,-1.5284 1.2021,-3.0684 1.8246,-4.5945 0.9562,-2.3455 1.9416,-4.6792 2.8977,-7.0247 0.5578,-1.3672 1.0754,-2.7509 1.6276,-4.119 0.4455,-1.1032 0.9317,-2.1883 1.3769,-3.2915 0.616,-1.5249 1.205,-3.0608 1.8234,-4.5839 0.0995,-0.2444 0.2433,-0.4981 0.6173,-0.4421 0.2944,0.0428 0.5475,-0.0369 0.7145,0.3827 0.6647,1.6695 1.4126,3.3046 2.1025,4.9632 0.8295,1.9941 1.6201,4.0044 2.4472,5.9991 0.3729,0.8967 0.808,1.7681 1.1883,2.6625 0.4997,1.1746 0.969,2.3635 1.4604,3.5421 1.2131,2.9162 2.4303,5.8296 3.6486,8.7434 0.2624,0.6254 0.5365,1.2466 0.8046,1.8691 -0.0265,0.0282 -0.0513,0.0577 -0.0773,0.0859z"/>
   <path class="fil0" d="M119.8724 112.1032c0.1799,0.249 0.3631,0.5026 0.5926,0.8202 -0.6545,0.6932 -1.2569,1.417 -1.9515,2.0413 -0.7458,0.6697 -1.5451,1.295 -2.3808,1.85 -1.7572,1.1671 -3.6666,2.0126 -5.7291,2.5047 -1.6397,0.392 -3.3048,0.5111 -4.9782,0.4305 -1.9147,-0.0938 -3.8049,-0.4305 -5.6019,-1.08 -2.0046,-0.7238 -3.8349,-1.7785 -5.4515,-3.2095 -1.5751,-1.3954 -2.8196,-3.0379 -3.8288,-4.851 -0.9279,-1.6656 -1.469,-3.4925 -1.9139,-5.3446 -0.156,-0.6461 -0.3866,-1.2725 -0.5377,-1.9198 -0.182,-0.77 -0.315,-1.5515 -0.4885,-2.4211 0.5411,0.355 1.0499,0.6696 1.5387,1.012 1.5,1.0506 2.9917,2.1151 4.4918,3.1687 0.7435,0.5209 1.0617,1.2464 1.2848,2.1162 0.47,1.8234 1.2985,3.4872 2.3923,5.0469 1.2852,1.831 2.8994,3.2285 4.8894,4.2025 1.2247,0.6006 2.5381,0.9135 3.8994,1.0604 1.9319,0.2092 3.8314,0.064 5.6992,-0.4536 1.9584,-0.5406 3.7515,-1.4194 5.3328,-2.7018 0.8966,-0.7279 1.7784,-1.4719 2.7408,-2.2719z"/>
   <path class="fil0" d="M76.1721 123.6401l-1.1849 0c-0.1263,-0.955 -0.2496,-1.9013 -0.3791,-2.8471 -0.1371,-1.0086 -0.2829,-2.0154 -0.4191,-3.0223 -0.1296,-0.9659 -0.2479,-1.9336 -0.3792,-2.8983 -0.1395,-1.0224 -0.2956,-2.0407 -0.431,-3.0632 -0.1316,-0.9959 -0.2624,-1.9911 -0.3621,-2.9905 -0.0773,-0.7724 -0.0558,-0.7573 0.7373,-0.7688 0.3192,-0.0042 0.4315,0.1434 0.5272,0.4051 0.8334,2.2419 1.828,4.4048 3.1865,6.3869 1.5578,2.2742 3.4707,4.1575 5.9973,5.3516 1.3267,0.6277 2.7212,1.0069 4.1905,1.1453 1.4124,0.1318 2.8018,0.1411 4.1799,-0.264 1.8472,-0.5418 3.3462,-1.5671 4.512,-3.085 0.0538,-0.0693 0.0997,-0.1424 0.1558,-0.2086 0.0275,-0.0324 0.0697,-0.0514 0.0254,-0.0197 1.4701,0.615 2.888,1.2097 4.372,1.8309 -0.7567,0.5908 -1.4969,1.2518 -2.3168,1.7913 -1.8,1.1837 -3.7868,1.915 -5.9327,2.179 -0.8992,0.1118 -1.8046,0.2554 -2.7065,0.2502 -2.4292,-0.0133 -4.7737,-0.5205 -7.0571,-1.3378 -1.1908,-0.4253 -2.3904,-0.8317 -3.6003,-1.2015 -0.7393,-0.2261 -1.5054,-0.2168 -2.1141,0.3365 -0.2862,0.2604 -0.4863,0.6368 -0.6621,0.9918 -0.1565,0.3188 -0.2271,0.6819 -0.3389,1.038z"/>
   <path class="fil0" d="M84.2281 76.0271c-0.404,-0.966 -0.7943,-1.9025 -1.2344,-2.9559 1.0276,-0.1983 2.0176,-0.396 3.0107,-0.5775 0.2864,-0.0525 0.5797,-0.0756 0.8714,-0.0913 2.1857,-0.1128 4.2624,0.3846 6.3054,1.0992 1.2772,0.4461 2.56,0.8736 3.8458,1.2956 0.9855,0.3226 2.1698,0.0599 2.684,-0.6818 0.3476,-0.502 0.552,-1.1053 0.8455,-1.714 0.0345,0 0.1369,0.001 0.2379,0 0.7608,-0.0081 0.7481,-0.0063 0.8261,0.7469 0.1669,1.6374 0.3589,3.2724 0.5209,4.908 0.136,1.3658 0.2305,2.7329 0.3665,4.0976 0.1625,1.6386 0.3492,3.2736 0.5215,4.9097 0.0225,0.2191 0.0334,0.4433 0.0098,0.6611 -0.011,0.0946 -0.1157,0.2473 -0.1918,0.2559 -0.2618,0.0323 -0.5443,0.0617 -0.7919,-0.0052 -0.1499,-0.0409 -0.3205,-0.242 -0.3619,-0.4022 -0.5101,-1.978 -1.2047,-3.8856 -2.1896,-5.6793 -1.1475,-2.0897 -2.7248,-3.7656 -4.8117,-4.9574 -1.1296,-0.6455 -2.2858,-1.2069 -3.5513,-1.5434 -2.296,-0.6126 -4.5322,-0.5805 -6.6835,0.5376 -0.0646,0.0347 -0.1354,0.0577 -0.2294,0.0963z"/>
   <path class="fil0" d="M103.1431 83.6986c-0.075,-0.6116 -0.1395,-1.1891 -0.2186,-1.7671 -0.0311,-0.2294 0.0525,-0.3832 0.2773,-0.4086 1.5428,-0.1781 3.0754,-0.3153 4.6428,-0.2231 2.2684,0.1348 4.402,0.8075 6.5685,1.3723 0.5475,0.1423 1.0876,0.3278 1.6437,0.4178 0.8754,0.1424 2.1611,-0.6282 2.4667,-1.4852 0.1411,-0.3971 0.404,-0.3792 0.6943,-0.3481 0.3448,0.0357 0.2283,0.325 0.2347,0.5227 0.0375,1.1891 0.0576,2.3779 0.0986,3.567 0.0511,1.4644 0.11,2.9299 0.1768,4.3932 0.0451,0.9492 0.1164,1.8974 0.1672,2.8465 0.0149,0.2767 0.0018,0.555 0.0018,0.8639l-0.852 0c-0.555,-1.7492 -1.1675,-3.4788 -2.1634,-5.048 -1.6701,-2.6293 -3.9537,-4.4307 -7.0416,-5.0677 -1.0373,-0.2138 -2.1237,-0.2869 -3.1847,-0.2652 -1.0553,0.0208 -2.1278,0.1233 -3.1241,0.5574 -0.117,0.0512 -0.2567,0.049 -0.3879,0.0721z"/>
   <path class="fil0" d="M100.4649 85.1084c-3.4677,2.5771 -5.1255,6.1544 -5.9195,10.3202 -0.5192,-0.3256 -0.9833,-0.6138 -1.4444,-0.9049 -0.0737,-0.0462 -0.1323,-0.1215 -0.2108,-0.155 -1.0887,-0.4777 -1.5324,-1.4183 -2.0316,-2.4356 -0.4565,-0.9312 -0.1106,-1.5208 0.318,-2.1974 0.9454,-1.4857 2.0306,-2.8673 3.3498,-4.0395 1.2868,-1.144 2.68,-2.1474 4.2936,-2.8032 0.0813,-0.0335 0.1647,-0.072 0.2282,-0.1296 0.2183,-0.2023 0.3353,-0.0727 0.4254,0.1256 0.3331,0.7382 0.6609,1.4788 0.9914,2.2195z"/>
   <path class="fil0" d="M70.6189 131.3669c-0.2509,2.7658 -1.1937,4.825 -3.6654,5.9113 -1.1747,0.5164 -2.3885,0.5354 -3.6079,0.1706 -1.6223,-0.4858 -2.9743,-1.3648 -3.9657,-2.7548 -1.0064,-1.412 -1.1821,-2.9687 -0.7319,-4.5984 0.4039,-1.4645 1.1657,-2.7312 2.4419,-3.6027 1.4005,-0.9544 2.9511,-1.1711 4.5753,-0.6547 1.9642,0.6225 3.5917,1.7003 4.4574,3.639 0.2892,0.6507 0.37,1.3925 0.4963,1.8898zm-7.025 5.0324l0 0c0.5176,-0.1844 1.0773,-0.2962 1.5453,-0.5648 1.4175,-0.8178 2.288,-2.1094 2.8994,-3.5865 0.3751,-0.907 0.5251,-1.8627 0.3249,-2.8314 -0.4385,-2.1233 -3.1633,-3.4654 -5.1886,-1.559 -1.3746,1.2926 -2.3646,2.8366 -2.6355,4.735 -0.2938,2.0668 1.2011,3.6539 3.0545,3.8067z"/>
   <path class="fil0" d="M71.1363 137.3209c0.0836,-1.9139 0.5574,-3.5755 1.9543,-4.8689 0.928,-0.858 2.0339,-1.3105 3.2875,-1.3768 1.798,-0.095 3.4602,0.3186 4.9107,1.4309 1.0404,0.7972 1.6311,1.8784 1.8385,3.1451 0.2991,1.8183 -0.0062,3.5328 -1.1313,5.0354 -0.9817,1.3122 -2.307,2.0395 -3.9559,2.1628 -1.8119,0.1355 -3.462,-0.3089 -4.9085,-1.4097 -1.0727,-0.8142 -1.6985,-1.9099 -1.8917,-3.2435 -0.0461,-0.318 -0.076,-0.6386 -0.1036,-0.8754zm9.6425 -1.613l0 0c-0.0514,-0.3189 -0.0814,-0.8674 -0.2316,-1.3799 -0.6814,-2.3128 -3.219,-2.7288 -4.617,-1.7296 -0.7993,0.5711 -1.291,1.3902 -1.6298,2.3025 -0.5413,1.454 -0.9469,2.9288 -0.5614,4.493 0.3053,1.239 1.0552,2.0759 2.3261,2.3693 1.2493,0.2892 2.2418,-0.1695 3.0378,-1.1239 1.137,-1.3648 1.5975,-2.9657 1.676,-4.9315z"/>
   <path class="fil0" d="M93.8717 132.5628c0.7695,-0.1781 1.5041,-0.3574 2.2437,-0.5164 0.8564,-0.1827 1.7112,-0.4034 2.5791,-0.5031 0.8603,-0.1003 1.6943,0.0923 2.2309,0.8507 0.5059,0.7135 0.657,1.5168 0.3392,2.3715 -0.2908,0.7774 -0.8694,1.2695 -1.5843,1.6344 -0.107,0.0542 -0.2104,0.1118 -0.2925,0.2733 0.3462,0.0167 0.6932,0.0294 1.0384,0.0524 1.5589,0.1089 2.2412,1.148 2.3357,2.4806 0.1211,1.695 -0.9964,2.8609 -2.6102,3.353 -1.2408,0.3781 -2.5265,0.6098 -3.7973,0.8812 -0.0893,0.0197 -0.3055,-0.1584 -0.3303,-0.2739 -0.3452,-1.639 -0.6674,-3.2838 -0.9976,-4.9275 -0.3781,-1.8696 -0.7608,-3.7375 -1.155,-5.6763zm4.3064 9.4823l0 0c0.9415,-0.041 1.6723,-0.3615 2.0475,-1.1976 0.429,-0.9545 0.2283,-1.8784 -0.3705,-2.6881 -0.6685,-0.9048 -1.5958,-0.7164 -2.564,-0.4766 0.2967,1.4593 0.5889,2.8943 0.887,4.3623zm-1.065 -5.2757l0 0c0.2467,-0.0502 0.4489,-0.0796 0.6448,-0.1321 1.2171,-0.3214 1.7509,-1.4516 1.3244,-2.7933 -0.3429,-1.0783 -1.2258,-1.431 -2.4441,-1.0122 -0.2461,0.0849 -0.3021,0.2064 -0.26,0.4151 0.2375,1.1521 0.4806,2.3023 0.7349,3.5225z"/>
   <path class="fil0" d="M114.9484 136.6218c-0.726,0.355 -1.3658,0.6468 -1.9843,0.9763 -0.4902,0.2612 -0.5,0.2549 -0.8903,-0.1999 -0.6311,-0.7367 -1.2933,-1.4466 -1.9428,-2.1676 -1.1504,0.5556 -2.2436,1.0835 -3.3727,1.6293 0.0686,0.7791 0.1313,1.563 0.2075,2.3473 0.0312,0.3192 0.1118,0.634 0.1321,0.9532 0.0074,0.1205 -0.0602,0.3089 -0.1522,0.3585 -0.3429,0.1874 -0.7095,0.3308 -1.0974,0.5037 -0.0264,-0.0847 -0.0674,-0.1626 -0.0698,-0.241 -0.0363,-1.1335 -0.0599,-2.266 -0.1025,-3.3991 -0.0847,-2.2189 -0.178,-4.4377 -0.2704,-6.6571 -0.0225,-0.5291 -0.0449,-1.0582 -0.0876,-1.5861 -0.0196,-0.26 0.0802,-0.3792 0.3168,-0.487 0.7759,-0.3532 0.7674,-0.3637 1.3742,0.2346 2.5146,2.4765 5.0284,4.9535 7.5464,7.4289 0.1146,0.1122 0.2542,0.1993 0.393,0.3059zm-5.637 -2.0679l0 0c-0.9515,-0.9364 -1.8759,-1.8448 -2.7646,-2.7189 0.0593,1.2453 0.1245,2.5744 0.192,3.9593 0.914,-0.441 1.7543,-0.8461 2.5726,-1.2403z"/>
   <path class="fil0" d="M61.6478 123.0799c-0.2475,0.2703 -0.5315,0.5826 -0.8134,0.8916 -0.8108,-0.9021 -1.6223,-1.8068 -2.4557,-2.733 -0.8041,0.884 -1.5613,1.7169 -2.3668,2.6009 0.8753,0.83 1.7357,1.646 2.6124,2.4777 -0.264,0.2899 -0.5545,0.6074 -0.8466,0.9267 -0.7983,-0.8598 -1.6073,-1.7301 -2.4581,-2.6458 -1.2217,1.3427 -2.4054,2.6406 -3.504,3.8445 -0.5712,-0.5775 -1.1175,-1.1284 -1.6863,-1.7013 2.3531,-2.5841 4.8088,-5.2827 7.2283,-7.9394 1.4441,1.4395 2.8706,2.862 4.2902,4.278z"/>
   <path class="fil0" d="M89.672 143.9704l-2.3029 0 0 -10.1035c-1.0391,0.0889 -1.982,0.1694 -2.9393,0.2525l0 -1.3325 7.9882 0 0 1.2738c-0.8891,-0.0629 -1.8043,-0.1269 -2.746,-0.1926l0 10.1023z"/>
   <path class="fil0" d="M124.5938 128.7158c-2.5964,-2.556 -5.169,-5.089 -7.7459,-7.6248 0.5326,-0.5994 1.0466,-1.1786 1.5752,-1.7756 2.3123,2.2638 4.6267,4.5305 6.9937,6.8478 0.7637,-0.9532 1.5118,-1.8857 2.2511,-2.8107 0.2882,0.3164 0.5799,0.6369 0.8858,0.9723 -1.2662,1.4045 -2.5952,2.8788 -3.9599,4.391z"/>
   <path class="fil0" d="M111.0589 125.8134c0.6437,-0.506 1.2373,-0.9729 1.8609,-1.4621 1.8871,2.6563 3.7785,5.3184 5.7176,8.0461 0.929,-0.8161 1.8218,-1.6005 2.7225,-2.3906 0.2531,0.355 0.4985,0.6997 0.7685,1.0772 -1.5643,1.2148 -3.1319,2.432 -4.7219,3.6682 -2.1326,-3.0032 -4.2359,-5.9656 -6.3477,-8.9388z"/>
   <g>
    <path class="fil0" d="M117.1995 48.9535c-0.5151,0.0473 -1.0298,0.1298 -1.5462,0.1402 -1.212,0.028 -2.4258,0.0354 -3.6377,0.0251 -0.3759,-0.003 -0.7499,-0.1136 -1.1262,-0.1328 -1.1511,-0.0664 -2.2996,-0.1549 -3.4471,0.121 -0.6611,0.1578 -1.3308,0.2876 -1.7722,0.8365 -0.2829,0.3526 -0.46,0.7909 -0.6823,1.1922 -0.0611,0.1091 -0.0808,0.2656 -0.1706,0.329 -0.3481,0.2493 -0.6998,0.503 -1.0813,0.6934 -1.9963,0.9944 -4.0147,1.9461 -5.996,2.9685 -0.5326,0.2759 -1.0264,0.6963 -1.4155,1.1537 -0.2454,0.2892 -0.3289,0.7643 -0.3728,1.1686 -0.06,0.568 -0.0151,1.1464 -0.0151,1.738 -0.6098,0.0768 -1.1982,0.152 -1.7858,0.2287 -0.403,0.0531 -0.8051,0.1077 -1.2081,0.1638 -0.2121,0.028 -0.3469,0.0014 -0.4116,-0.2612 -0.1284,-0.5164 -0.0762,-1.0062 0.0997,-1.4931 0.3366,-0.9295 0.7608,-1.828 1.5123,-2.4816 0.4178,-0.3645 0.9739,-0.571 1.473,-0.8381 1.4715,-0.7908 2.9704,-1.5315 4.4123,-2.3709 2.1284,-1.2364 4.2165,-2.5406 6.323,-3.814 0.809,-0.4898 1.7058,-0.3658 2.5737,-0.3083 0.9441,0.0635 1.8796,0.2228 2.8205,0.3172 0.5551,0.0561 1.1152,0.1017 1.6716,0.0871 1.455,-0.0369 2.9091,-0.1092 4.3632,-0.1741 0.3211,-0.0133 0.6415,-0.0502 0.9608,-0.0886 0.0785,-0.0103 0.1879,-0.0502 0.2208,-0.1106 0.4321,-0.8026 1.1856,-1.2806 1.899,-1.7646 0.6771,-0.4574 1.4206,-0.8542 2.1876,-1.1316 1.0162,-0.3674 2.079,-0.6212 3.1352,-0.8587 0.3516,-0.0797 0.5298,-0.2626 0.6944,-0.5222 0.4986,-0.782 0.9937,-1.5684 1.4916,-2.3518 0.1532,-0.242 0.3043,-0.4883 0.4715,-0.7199 0.2731,-0.3777 0.6057,-0.4427 1.1768,-0.248 0.1463,-0.5694 -0.0773,-0.9088 -0.6604,-0.9309 -0.3482,-0.0148 -0.6986,0.0531 -1.0477,0.0812 -0.4381,0.031 -0.8829,0.118 -1.3119,0.0723 -0.6414,-0.0679 -1.0886,0.1578 -1.4839,0.6389 -0.483,0.5872 -0.9728,1.1803 -1.5319,1.6938 -0.8392,0.7686 -1.4327,1.7144 -2.0909,2.6173 -0.0675,0.0915 -0.3192,0.1475 -0.423,0.0959 -0.3452,-0.1712 -0.6612,-0.3984 -0.989,-0.6035 0.0127,-0.0414 0.0236,-0.0827 0.0351,-0.1239 0.121,-0.0295 0.2491,-0.0428 0.3579,-0.0944 0.0985,-0.0472 0.2305,-0.1224 0.2519,-0.208 0.1556,-0.6286 0.6226,-0.9915 1.095,-1.3604 0.1856,-0.1446 0.3462,-0.3216 0.4996,-0.5001 0.1626,-0.1903 0.09,-0.3378 -0.1429,-0.3585 -0.3682,-0.0325 -0.7112,0.0074 -1.0079,0.3009 -0.3615,0.3556 -0.8106,0.6315 -1.1486,1.0063 -0.2543,0.2817 -0.3927,0.6639 -0.5823,1.0033 -0.0236,0.0428 -0.0479,0.0886 -0.0865,0.1579 -0.5694,-0.8116 -1.1208,-1.5905 -1.6598,-2.3769 -0.042,-0.062 -0.0184,-0.1815 -0.0033,-0.27 0.2322,-1.4297 0.8915,-2.6956 1.594,-3.929 0.8714,-1.5344 1.8067,-3.0335 2.7461,-4.5265 0.4887,-0.7776 1.0546,-1.5064 1.571,-2.2677 0.3903,-0.5754 0.7557,-1.1686 1.1349,-1.7528 0.2496,-0.3851 0.2024,-0.5193 -0.1959,-0.7658 -0.5348,-0.3334 -1.0726,-0.6698 -1.5787,-1.046 -1.9192,-1.4281 -3.8274,-2.8726 -5.7368,-4.314 -1.0309,-0.7791 -2.055,-1.5655 -3.0786,-2.3518 -0.0403,-0.031 -0.0567,-0.093 -0.1521,-0.2626 0.6293,0.329 1.1508,0.5872 1.661,0.8675 1.3128,0.7214 2.6188,1.4547 3.9282,2.1791 2.2274,1.229 4.4584,2.4506 6.6807,3.6884 0.3089,0.1712 0.5135,0.1195 0.7146,-0.1445 0.9216,-1.2172 1.8406,-2.4359 2.7761,-3.6413 0.5845,-0.7554 0.7533,-0.7422 1.1469,0.1002 0.3073,0.6551 0.554,1.3382 0.8442,2.0007 0.0526,0.1179 0.1823,0.2154 0.2946,0.295 0.378,0.2656 0.7878,0.4898 1.1433,0.7805 1.2536,1.0225 2.4159,2.1673 3.1942,3.5749 0.778,1.4045 1.5301,2.8711 1.6684,4.5235 0.1008,1.2084 0.2219,2.43 0.1596,3.6354 -0.0812,1.561 -0.3953,3.1013 -0.9152,4.584 -0.869,2.4832 -1.7981,4.9456 -2.6477,7.436 -0.5561,1.6303 -0.974,3.3019 -1.1185,5.0281 -0.086,1.0313 -0.2485,2.0626 -0.252,3.0924 -0.0086,2.4285 0.7729,4.5649 2.4304,6.3944 1.2662,1.3978 2.7013,2.5971 4.1143,3.8299 1.7048,1.4874 3.6079,2.6598 5.6578,3.5807 1.5728,0.706 3.1829,1.344 4.8088,1.9147 1.4428,0.5059 2.812,1.1117 3.8169,2.2869 1.3662,1.5985 2.3679,3.4043 2.7634,5.4953 0.1402,0.7387 0.2271,1.4885 0.3423,2.2712l-0.4973 0c0.4383,2.9716 -0.4675,5.6232 -1.89,8.0565 -0.211,0.0588 -0.4278,0.06 -0.5621,0.1654 -0.5031,0.3959 -0.9796,0.8248 -1.4871,1.2581 -0.0915,-0.1348 -0.1682,-0.2502 -0.2465,-0.3665 -1.3972,0.6316 -2.7899,1.262 -4.2387,1.9157 -0.0577,-1.6916 -1.2581,-2.7138 -1.9739,-3.9813 -0.3216,-0.5671 -0.6921,-1.1083 -0.9966,-1.6824 -0.2743,-0.5174 -0.1457,-0.8979 0.3216,-1.2298 1.7534,-1.2465 3.5031,-2.4955 5.2514,-3.746 0.0768,-0.0538 0.1401,-0.1245 0.2715,-0.245 -0.208,-0.041 -0.3377,-0.0674 -0.5356,-0.1072 0.1521,-0.1872 0.2701,-0.3625 0.4192,-0.5112 0.5385,-0.5424 0.6211,-1.2598 0.7376,-1.9504 0.0828,-0.5019 0.0708,-1.0195 0.0989,-1.5295 0.0161,-0.3447 0.0502,-0.7099 -0.5621,-0.5458 0.0456,-0.2398 0.1149,-0.4085 0.1003,-0.5687 -0.0665,-0.751 -0.1255,-1.5032 -0.2451,-2.246 -0.1253,-0.7752 -0.7848,-0.8858 -1.3958,-0.9072 -0.5635,-0.0207 -1.13,0.1187 -1.6951,0.1459 -0.3511,0.0166 -0.3291,0.2155 -0.3615,0.4663 -0.1312,1.0338 -0.2229,2.0794 -0.459,3.0901 -0.3252,1.3953 -1.0622,2.6188 -1.8178,3.8275 -0.6749,1.077 -1.4464,2.1025 -1.8144,3.3542 -0.3415,1.1658 -0.1658,2.2511 0.4474,3.2592 0.634,1.0402 1.3447,2.0332 1.9895,3.0672 0.9226,1.48 0.7532,2.9547 -0.1124,4.395 -0.6782,1.1295 -1.4154,2.2264 -2.0453,3.3819 -0.5401,0.9907 -0.9603,2.0477 -1.4426,3.07 -0.1284,0.2757 -0.3308,0.5217 -0.4265,0.8048 -0.3982,1.1849 -0.2761,2.3725 0.0399,3.5551 0.1106,0.4178 0.2081,0.8393 0.3266,1.3221 -1.5939,0.506 -3.1842,1.011 -4.7914,1.521 -0.0935,-1.0863 0.5301,-1.8823 1.0511,-2.6777 0.9071,-1.3797 1.6177,-2.8458 2.2488,-4.3627 0.1984,-0.4749 0.5285,-0.9031 0.8393,-1.3221 0.9704,-1.3082 1.5214,-2.7866 1.8742,-4.3576 0.0759,-0.3406 0.227,-0.6645 0.3446,-0.9965 0.1071,-0.3048 -0.2121,-0.8916 -0.6204,-1.1226 -0.6705,-0.3804 -1.4111,-0.3828 -2.0787,-0.1239 -1.364,0.529 -1.9864,-0.1581 -2.8908,-1.0663 -0.1758,-0.1751 -0.3053,-0.2956 -0.5596,-0.1561 -0.5343,0.2933 -1.0715,0.5781 -1.6167,0.8494 -1.0949,0.5429 -1.5613,1.5325 -1.8967,2.6188 -0.1006,0.3252 -0.3526,0.2998 -0.5998,0.2358 -0.2756,-0.0721 -0.2329,-0.264 -0.1107,-0.4381 0.389,-0.556 0.7707,-1.1196 1.1855,-1.6557 0.9792,-1.2633 1.9843,-2.5059 2.9571,-3.7731 0.1073,-0.1384 0.0986,-0.3828 0.1037,-0.5787 0.0048,-0.2324 0.0744,-0.3516 0.328,-0.3666 0.2155,-0.0127 0.434,-0.0576 0.642,-0.1204 0.4898,-0.1487 0.9556,-0.1152 1.3256,0.2484 0.8034,0.789 1.5899,1.5953 2.3658,2.4113 0.3814,0.4024 0.7187,0.8465 1.0852,1.2634 0.0559,0.0639 0.1654,0.0818 0.2507,0.1215 0.0357,-0.0271 0.072,-0.0536 0.1094,-0.0819 -0.1532,-0.2962 -0.2721,-0.619 -0.465,-0.8852 -0.6898,-0.9521 -1.3717,-1.9145 -2.1251,-2.8136 -0.4281,-0.5112 -1.0069,-0.8945 -1.4914,-1.3608 -0.4531,-0.4381 -0.9054,-0.8852 -1.2998,-1.3763 -0.6448,-0.8057 -1.2654,-1.6332 -1.8545,-2.4804 -0.8742,-1.2582 -1.2904,-2.6944 -1.6247,-4.1756 -0.4517,-1.9986 -0.9728,-3.9818 -1.5076,-5.9614 -0.1295,-0.4801 -0.3856,-0.939 -0.6523,-1.3654 -0.3246,-0.5215 -0.8818,-0.7371 -1.4479,-0.9163 -1.7549,-0.5533 -3.5156,-1.0853 -5.2566,-1.6795 -1.5515,-0.5308 -3.0988,-1.092 -4.4734,-2.0171 -1.6822,-1.1296 -2.9058,-2.62 -3.6205,-4.5317 -0.3281,-0.88 -0.7781,-1.7158 -1.1394,-2.5847 -0.6622,-1.5861 -1.3308,-3.1736 -1.9384,-4.7832 -0.4466,-1.1818 -0.9405,-2.3194 -1.9253,-3.1647 -1.3823,-1.1877 -2.8096,-2.309 -4.5681,-2.908 -0.1222,-0.0428 -0.3382,-0.0354 -0.4156,0.0428 -1.1036,1.1331 -2.1226,2.3312 -2.5738,3.8906 -0.1488,0.512 -0.2047,1.0166 0.1458,1.5256 0.2219,0.3216 0.2709,0.7598 0.419,1.136 0.4864,1.2335 1.4229,2.0996 2.4857,2.8122 0.9637,0.6462 1.8927,1.3721 3.0304,1.7306 0.0738,0.0236 0.1648,0.2243 0.1372,0.3025 -0.3343,0.9383 -0.686,1.8713 -1.0403,2.8039 -0.0967,0.2565 -0.2658,0.2103 -0.4526,0.0848 -0.662,-0.4433 -1.1046,-1.0674 -1.499,-1.7412 -0.156,-0.2668 -0.3942,-0.4836 -0.5514,-0.7507 -0.1354,-0.2302 -0.1897,-0.5045 -0.313,-0.7436 -0.8576,-1.6509 -2.1934,-2.8239 -3.7813,-3.7519 -0.374,-0.2198 -0.7071,-0.5134 -1.0372,-0.7967 -0.4526,-0.3895 -0.5264,-0.9118 -0.3452,-1.4385 0.167,-0.4898 0.446,-0.9383 0.6409,-1.4193 0.5411,-1.3412 1.0564,-2.6926 1.5963,-4.0337 0.2207,-0.5518 0.4939,-1.08 0.7147,-1.6318 0.268,-0.6697 0.8753,-0.6889 1.42,-0.6845 1.424,0.0148 2.8481,0.093 4.2728,0.1638 1.0472,0.0502 2.0714,-0.0709 3.0903,-0.3025 0.6921,-0.1578 1.394,-0.2715 2.0897,-0.4101 0.0877,-0.0177 0.1648,-0.0812 0.2473,-0.1239 -0.0139,-0.0458 -0.0266,-0.0915 -0.0399,-0.1387l-0.0006 0zm11.0696 -18.2269l0 0c0.0127,-0.0532 0.0236,-0.1048 0.0363,-0.1579 -0.2816,-0.1475 -0.5561,-0.3984 -0.8467,-0.4175 -0.4988,-0.034 -0.9704,0.1652 -1.3382,0.5355 -0.8408,0.8439 -0.8954,1.9343 -0.9526,3.0467 0.1419,-0.0472 0.2594,-0.1135 0.3174,-0.2154 0.2261,-0.3895 0.4296,-0.7908 0.6474,-1.1848 0.3459,-0.6271 0.6835,-1.2644 1.4644,-1.4547 0.2231,-0.0546 0.4478,-0.1018 0.672,-0.1519z"/>
   </g>
   <path class="fil0" d="M122.2857 110.9817c0.4927,-0.8933 0.737,-1.8541 1.5204,-2.5716 0.8766,-0.8033 1.545,-1.8396 2.4506,-2.6031 1.0286,-0.8685 1.6707,-2.0258 2.5536,-2.9957 0.3781,-0.4161 0.4828,-1.0709 0.7457,-1.5999 0.7146,-1.4327 0.2422,-2.7755 -0.303,-4.1063 -0.7183,-1.7566 -1.4638,-3.5017 -2.1937,-5.2532 -0.5785,-1.3901 -0.3866,-2.7496 0.1736,-4.0959 0.6513,-1.5659 1.6649,-2.9133 2.578,-4.3219 0.8667,-1.336 1.3751,-2.8045 1.6019,-4.3686 0.1091,-0.7499 0.1638,-1.5071 0.2508,-2.341 0.2968,0.3049 0.6001,0.5804 0.8633,0.8903 0.7844,0.9239 1.1025,2.0322 1.3193,3.2032 0.344,1.8605 0.6397,3.7474 1.7573,5.3594 0.166,0.238 0.3388,0.4713 0.5389,0.748 -0.5378,0.355 -1.0905,0.6984 -1.6202,1.0748 -1.469,1.0472 -2.8907,2.1502 -3.9483,3.639 -0.5736,0.8075 -0.7586,1.6824 -0.4962,2.6753 0.4213,1.59 0.778,3.1981 1.1573,4.799 0.1319,0.5602 0.2903,1.1198 0.3641,1.6887 0.1083,0.8484 -0.2236,1.6004 -0.8004,2.1784 -1.2548,1.2519 -2.567,2.4459 -3.8551,3.6624 -0.626,0.5926 -0.9364,1.3262 -1.1296,2.1607 -0.1251,0.5394 -0.4154,1.0506 -0.6939,1.5388 -0.0773,0.1342 -0.3711,0.1636 -0.5746,0.2057 -0.7347,0.1505 -1.4731,0.2835 -2.2597,0.4335z"/>
   <g>
    <path class="fil0" d="M59.2058 49.6927c0.0825,0.0413 0.1596,0.1047 0.2473,0.1224 0.6956,0.1401 1.3977,0.2523 2.0897,0.4102 1.019,0.2317 2.0442,0.3526 3.0903,0.3009 1.4246,-0.0693 2.8488,-0.149 4.2728,-0.1623 0.5447,-0.0059 1.1522,0.0148 1.4206,0.6846 0.2219,0.5503 0.4933,1.0799 0.7141,1.6303 0.54,1.3426 1.0563,2.6941 1.5964,4.0336 0.1948,0.4825 0.4735,0.9325 0.6409,1.4208 0.1809,0.5267 0.1076,1.049 -0.3452,1.4385 -0.3302,0.2832 -0.6634,0.5784 -1.0373,0.7953 -1.5879,0.9295 -2.9233,2.1024 -3.7813,3.7548 -0.1233,0.2361 -0.177,0.5134 -0.313,0.7422 -0.1573,0.2657 -0.3954,0.4835 -0.5514,0.7499 -0.3943,0.6754 -0.837,1.2979 -1.4993,1.741 -0.1865,0.1257 -0.3549,0.1729 -0.4523,-0.0847 -0.3544,-0.9313 -0.706,-1.8639 -1.0402,-2.8032 -0.0271,-0.0782 0.0641,-0.2788 0.1371,-0.3023 1.1377,-0.3586 2.0667,-1.0845 3.0303,-1.7322 1.0628,-0.7126 1.9993,-1.5757 2.4858,-2.8106 0.1482,-0.3763 0.1972,-0.8145 0.419,-1.1361 0.3502,-0.5089 0.2945,-1.0136 0.1458,-1.527 -0.4513,-1.5581 -1.4702,-2.756 -2.5739,-3.8891 -0.0773,-0.0783 -0.2934,-0.0856 -0.4156,-0.0443 -1.7584,0.6005 -3.186,1.7218 -4.5679,2.9094 -0.986,0.8469 -1.4789,1.9829 -1.9257,3.1647 -0.6086,1.6096 -1.2759,3.1957 -1.938,4.7847 -0.3615,0.8689 -0.8116,1.7025 -1.1395,2.5831 -0.7147,1.9111 -1.9383,3.4026 -3.6205,4.5327 -1.3745,0.9239 -2.9219,1.4847 -4.4734,2.0155 -1.7394,0.5942 -3.5019,1.1272 -5.2567,1.6805 -0.5659,0.1781 -1.1233,0.3948 -1.4477,0.9152 -0.2668,0.4265 -0.5222,0.8864 -0.6525,1.3671 -0.5336,1.9778 -1.0557,3.9617 -1.5075,5.9603 -0.3344,1.4807 -0.7505,2.9168 -1.6247,4.1755 -0.5891,0.8477 -1.2098,1.6755 -1.8547,2.48 -0.3942,0.491 -0.8466,0.9382 -1.3008,1.3763 -0.4835,0.4673 -1.0608,0.8507 -1.4902,1.3608 -0.7534,0.9007 -1.4352,1.8627 -2.125,2.8136 -0.193,0.2674 -0.3118,0.589 -0.4653,0.8864 0.0377,0.027 0.074,0.0553 0.1096,0.0817 0.0853,-0.0391 0.1948,-0.0575 0.2506,-0.1215 0.3673,-0.4172 0.705,-0.8622 1.0866,-1.2644 0.7745,-0.8161 1.5612,-1.6217 2.3645,-2.4102 0.3688,-0.3648 0.8356,-0.3982 1.3256,-0.2484 0.2079,0.0628 0.4264,0.1077 0.642,0.1205 0.2537,0.0154 0.3233,0.133 0.3296,0.3664 0.0035,0.196 -0.0051,0.4393 0.102,0.5793 0.9741,1.2667 1.978,2.5099 2.9572,3.772 0.416,0.5366 0.7981,1.0991 1.1861,1.6564 0.1221,0.1741 0.1642,0.3653 -0.1112,0.4381 -0.2473,0.0639 -0.4992,0.0899 -0.6002,-0.2358 -0.3353,-1.0875 -0.8015,-2.0753 -1.8966,-2.62 -0.5451,-0.2704 -1.084,-0.5551 -1.6164,-0.8483 -0.2544,-0.1394 -0.3839,-0.0202 -0.5597,0.155 -0.9042,0.91 -1.5268,1.5963 -2.891,1.0663 -0.6672,-0.2589 -1.4078,-0.2549 -2.0787,0.1243 -0.4081,0.2306 -0.7272,0.8184 -0.6202,1.1233 0.1176,0.332 0.2685,0.6558 0.3446,0.997 0.3528,1.5694 0.9037,3.0494 1.8743,4.356 0.3106,0.4201 0.6408,0.8483 0.8391,1.3221 0.6311,1.5174 1.3423,2.9829 2.2489,4.3627 0.5209,0.796 1.1445,1.5923 1.0512,2.6793 -1.6074,-0.5112 -3.1975,-1.0161 -4.7916,-1.522 0.1187,-0.4836 0.2161,-0.9049 0.3267,-1.3227 0.3159,-1.1827 0.4381,-2.3687 0.0398,-3.5541 -0.0955,-0.2841 -0.2979,-0.5303 -0.4264,-0.8046 -0.4823,-1.0237 -0.9026,-2.0794 -1.4425,-3.0708 -0.6288,-1.156 -1.3672,-2.251 -2.0455,-3.3813 -0.8655,-1.4412 -1.0349,-2.9149 -0.1123,-4.3954 0.645,-1.0328 1.3556,-2.0259 1.9894,-3.0662 0.6133,-1.0097 0.7892,-2.0949 0.4472,-3.2597 -0.3676,-1.2518 -1.1393,-2.2765 -1.814,-3.3543 -0.7557,-1.2091 -1.4929,-2.4326 -1.8185,-3.8267 -0.2356,-1.011 -0.3267,-2.0576 -0.4587,-3.0903 -0.0324,-0.2513 -0.0104,-0.4512 -0.3607,-0.468 -0.5661,-0.0264 -1.132,-0.1648 -1.6958,-0.1457 -0.6125,0.022 -1.2707,0.132 -1.3959,0.9082 -0.1196,0.7418 -0.1779,1.495 -0.2442,2.2448 -0.015,0.1614 0.0547,0.3292 0.0997,0.5701 -0.6121,-0.1637 -0.5787,0.2 -0.5615,0.5446 0.0266,0.5112 0.0151,1.0287 0.0985,1.5313 0.1165,0.6904 0.1983,1.4079 0.7372,1.9498 0.1487,0.1475 0.268,0.3244 0.419,0.5112 -0.1971,0.0397 -0.3291,0.0669 -0.5348,0.1076 0.1309,0.1194 0.1948,0.1896 0.2709,0.2444 1.7492,1.2495 3.4989,2.4984 5.2515,3.7456 0.4674,0.3331 0.5959,0.7123 0.3217,1.2298 -0.3044,0.5751 -0.675,1.1157 -0.9955,1.6823 -0.7169,1.2679 -1.917,2.2892 -1.975,3.9819 -1.4483,-0.6547 -2.8414,-1.2842 -4.2389,-1.9158 -0.0779,0.1152 -0.1549,0.2312 -0.2461,0.3666 -0.5071,-0.434 -0.9839,-0.8633 -1.4876,-1.2582 -0.1347,-0.1048 -0.3503,-0.1076 -0.5623,-0.1653 -1.423,-2.4327 -2.3285,-5.0862 -1.8893,-8.0576l-0.4979 0c0.1158,-0.7827 0.2023,-1.5319 0.3419,-2.2714 0.3964,-2.0909 1.3981,-3.8965 2.7646,-5.4941 1.0037,-1.1746 2.3732,-1.7807 3.8164,-2.2869 1.6262,-0.5699 3.236,-1.2079 4.8089,-1.914 2.0499,-0.9215 3.9529,-2.095 5.6577,-3.5825 1.4132,-1.2326 2.8488,-2.4304 4.1144,-3.8279 1.6575,-1.8306 2.439,-3.9685 2.4304,-6.3956 -0.0035,-1.0297 -0.166,-2.0611 -0.2519,-3.0923 -0.1447,-1.7263 -0.5626,-3.3979 -1.1187,-5.0282 -0.8488,-2.489 -1.7784,-4.9514 -2.6477,-7.4359 -0.5185,-1.4813 -0.834,-3.0246 -0.9151,-4.584 -0.0623,-1.2069 0.0588,-2.4256 0.1596,-3.6354 0.1384,-1.651 0.8904,-3.119 1.6684,-4.5251 0.778,-1.4045 1.9406,-2.5494 3.193,-3.5734 0.3567,-0.2891 0.7665,-0.5163 1.1433,-0.779 0.1135,-0.0812 0.2433,-0.1771 0.2955,-0.298 0.2906,-0.6609 0.5372,-1.3441 0.8444,-1.9977 0.3943,-0.8438 0.5626,-0.8556 1.1475,-0.1032 0.9347,1.2069 1.854,2.4255 2.7756,3.6413 0.201,0.2656 0.4057,0.3172 0.7146,0.1461 2.2223,-1.2378 4.4531,-2.4595 6.6808,-3.69 1.3105,-0.7229 2.6164,-1.4561 3.9282,-2.1776 0.5089,-0.2789 1.0316,-0.5385 1.6616,-0.866 -0.0964,0.1682 -0.1124,0.2287 -0.1522,0.2597 -1.0242,0.7864 -2.0483,1.5743 -3.0795,2.3532 -1.9092,1.4414 -3.8175,2.8844 -5.7367,4.3141 -0.5059,0.3762 -1.0436,0.7111 -1.5785,1.046 -0.3995,0.2464 -0.4454,0.3806 -0.1959,0.7657 0.3791,0.5843 0.7446,1.1759 1.1348,1.7528 0.5164,0.7613 1.0822,1.4902 1.5716,2.2662 0.9399,1.4946 1.8742,2.9951 2.7456,4.528 0.7025,1.2319 1.362,2.4994 1.594,3.929 0.0151,0.0886 0.0387,0.208 -0.0034,0.2715 -0.5388,0.7849 -1.0898,1.564 -1.6598,2.3754 -0.0387,-0.0709 -0.0613,-0.1136 -0.0865,-0.1594 -0.1896,-0.3363 -0.3278,-0.7214 -0.5822,-1.0018 -0.3383,-0.3747 -0.7872,-0.6492 -1.1485,-1.0077 -0.2968,-0.2921 -0.6399,-0.3319 -1.0081,-0.2995 -0.2329,0.0207 -0.3053,0.1682 -0.1429,0.3585 0.1532,0.1786 0.314,0.3571 0.4996,0.5016 0.4725,0.3689 0.9395,0.7318 1.095,1.3574 0.0213,0.0871 0.1534,0.1638 0.252,0.2096 0.1088,0.0516 0.2367,0.0649 0.3579,0.0943 0.0115,0.0413 0.0224,0.0827 0.0351,0.1239 -0.328,0.2051 -0.645,0.4323 -0.9889,0.602 -0.1038,0.0517 -0.3556,-0.0029 -0.4231,-0.0944 -0.6581,-0.9029 -1.2518,-1.8486 -2.0909,-2.6173 -0.559,-0.512 -1.049,-1.1051 -1.532,-1.6938 -0.3954,-0.4809 -0.8426,-0.7067 -1.4841,-0.6389 -0.4298,0.0458 -0.8734,-0.0413 -1.3116,-0.0738 -0.3492,-0.0251 -0.6995,-0.093 -1.0477,-0.0797 -0.5832,0.0222 -0.808,0.3615 -0.661,0.9295 0.5718,-0.1933 0.9053,-0.1298 1.1775,0.2494 0.167,0.2331 0.318,0.4765 0.4714,0.72 0.498,0.7834 0.993,1.5683 1.4914,2.3517 0.1648,0.2582 0.343,0.4426 0.6946,0.5208 1.0562,0.239 2.119,0.4942 3.135,0.8601 0.7671,0.2774 1.5107,0.6757 2.1878,1.1331 0.7134,0.481 1.4663,0.9605 1.899,1.7631 0.0329,0.0621 0.1423,0.1003 0.2208,0.1092 0.3192,0.0398 0.6396,0.0753 0.9607,0.09 1.454,0.065 2.9082,0.1357 4.3633,0.1741 0.5562,0.0162 1.1165,-0.0325 1.6713,-0.0871 0.9412,-0.093 1.8767,-0.2553 2.8208,-0.3157 0.8678,-0.0575 1.7645,-0.1829 2.5738,0.3069 2.1064,1.2732 4.1946,2.5775 6.3228,3.8139 1.4419,0.8381 2.9409,1.5802 4.4124,2.3709 0.4988,0.2686 1.0551,0.475 1.473,0.8381 0.7532,0.655 1.1758,1.5506 1.5123,2.4816 0.1756,0.4869 0.2282,0.9768 0.0997,1.4931 -0.0647,0.2627 -0.1995,0.2906 -0.4115,0.2597 -0.403,-0.0546 -0.8052,-0.1106 -1.2082,-0.1623 -0.5877,-0.0767 -1.1764,-0.1504 -1.7858,-0.2287 0,-0.5916 0.0448,-1.17 -0.0151,-1.738 -0.0439,-0.4028 -0.1273,-0.8778 -0.3728,-1.1685 -0.3892,-0.456 -0.883,-0.8778 -1.4155,-1.1523 -1.9814,-1.024 -3.9997,-1.9741 -5.9961,-2.97 -0.3815,-0.1903 -0.7331,-0.4441 -1.0812,-0.6919 -0.09,-0.0635 -0.1112,-0.2199 -0.1705,-0.3305 -0.2225,-0.4013 -0.3995,-0.8395 -0.6823,-1.1921 -0.4415,-0.5489 -1.11,-0.6787 -1.7723,-0.8381 -1.1474,-0.2745 -2.2962,-0.1874 -3.4471,-0.121 -0.3764,0.0222 -0.7509,0.1313 -1.1261,0.1343 -1.2121,0.0103 -2.4257,0.0029 -3.6378,-0.0236 -0.5164,-0.0133 -1.0309,-0.093 -1.5464,-0.1417 -0.0137,0.0458 -0.0264,0.0944 -0.0397,0.1402l-0.0006 0zm-10.3565 -18.2153l0 0c0.782,0.1904 1.1185,0.8292 1.4639,1.4547 0.2183,0.394 0.4217,0.7968 0.647,1.1863 0.0589,0.0988 0.1759,0.1667 0.3182,0.2125 -0.0577,-1.1095 -0.1124,-2.2013 -0.9516,-3.0438 -0.3694,-0.3718 -0.842,-0.571 -1.3394,-0.5385 -0.2904,0.0207 -0.5647,0.273 -0.8465,0.419 0.0121,0.0532 0.0237,0.1062 0.0358,0.1579 0.2248,0.0502 0.4489,0.0973 0.6726,0.1519z"/>
   </g>
   <path class="fil0" d="M54.1601 111.5804c-0.4939,-0.8931 -0.7372,-1.8539 -1.5205,-2.5714 -0.8765,-0.8035 -1.5462,-1.8396 -2.4505,-2.6033 -1.0287,-0.8684 -1.6707,-2.0256 -2.5537,-2.9957 -0.3791,-0.4161 -0.4827,-1.0707 -0.7467,-1.5987 -0.7136,-1.4338 -0.2411,-2.7767 0.3023,-4.1073 0.7198,-1.7568 1.4657,-3.5018 2.1952,-5.2533 0.5787,-1.3902 0.3868,-2.7497 -0.1734,-4.096 -0.6512,-1.5659 -1.665,-2.9133 -2.5779,-4.3219 -0.8668,-1.3358 -1.3751,-2.8043 -1.602,-4.3685 -0.1091,-0.7498 -0.1637,-1.5054 -0.2508,-2.3398 -0.2967,0.3036 -0.6,0.5792 -0.8633,0.8892 -0.7854,0.9239 -1.1038,2.0322 -1.3193,3.2033 -0.3441,1.8602 -0.6398,3.7471 -1.7571,5.3591 -0.1661,0.2386 -0.339,0.4725 -0.539,0.7482 0.5377,0.355 1.0904,0.6984 1.62,1.0764 1.4691,1.0455 2.8909,2.1487 3.9485,3.6374 0.5734,0.8073 0.7585,1.6822 0.4962,2.6753 -0.4213,1.59 -0.778,3.1979 -1.1573,4.799 -0.1319,0.5614 -0.2903,1.1198 -0.3643,1.6892 -0.1084,0.8477 0.2221,1.5998 0.8007,2.1779 1.2547,1.2517 2.5669,2.4459 3.855,3.663 0.6258,0.5919 0.9364,1.3272 1.1296,2.1601 0.1248,0.5393 0.4154,1.0505 0.6939,1.5387 0.0771,0.1342 0.3712,0.1647 0.5744,0.2058 0.7349,0.1503 1.4731,0.2835 2.2599,0.4333z"/>
   <path class="fil0" d="M62.1653 145.3179l-5.7207 10.458c9.4248,5.7886 22.4601,8.0582 31.8478,8.0173 9.3877,0.0409 22.4225,-2.2287 31.8465,-8.0173l-5.7204 -10.458c-6.1576,3.6298 -15.2462,6.6422 -26.126,6.6698 -10.88,-0.0276 -19.9696,-3.0401 -26.127,-6.6698z"/>
   <path class="fil0" d="M47.7581 150.203c-1.5607,-0.0221 -2.8834,0.1272 -3.9091,0.4886 2.3233,2.7778 4.4307,4.5535 4.2208,6.7027 -0.2269,2.3226 -3.9787,4.6572 -6.8211,6.6443 4.7015,-0.7619 9.1392,-0.3359 13.2249,1.6743 5.0982,2.1058 9.8355,2.768 14.1632,1.7929l1.2713 -5.7783 0.0012 -0.0057c-4.9951,-1.2886 -9.9158,-3.1681 -14.1182,-5.7488l1.9652 -3.5924c-3.1133,-0.9953 -5.991,-1.9186 -8.3602,-2.1006 -0.571,-0.0439 -1.1174,-0.0699 -1.638,-0.0772z"/>
   <path class="fil0" d="M42.4181 145.518c1.2268,0.5094 1.7239,1.5353 2.2978,2.6349 -0.2762,-0.1037 -0.4612,-0.1678 -0.642,-0.2438 -0.7043,-0.295 -1.4079,-0.2807 -2.1072,0.0109 -0.3268,0.1372 -0.6224,0.8876 -0.4386,1.3188 0.2869,0.6706 0.6024,1.3427 1.0039,1.9513 0.9228,1.3989 1.9071,2.7589 2.8622,4.1369 0.1527,0.2208 0.2836,0.4554 0.4218,0.6778 -0.3019,0.4 -0.4092,0.4317 -0.7007,0.0819 -0.3384,-0.4069 -0.7821,-0.5406 -1.2697,-0.6197 -0.5342,-0.0869 -1.0638,-0.2328 -1.5998,-0.2593 -0.8034,-0.0416 -1.1324,0.268 -1.1065,1.0316 0.0109,0.3141 0.0012,0.6304 0.0012,1.0361 -0.3719,-0.3659 -0.6899,-0.6794 -1.0087,-0.9935 -0.6128,-0.6053 -0.6022,-0.5943 -1.2222,-0.0167 -0.2555,0.2374 -0.5683,0.4125 -0.9119,0.6579 -0.0744,-0.5358 -0.1348,-0.9647 -0.1977,-1.421 -1.5076,-0.441 -2.8783,-1.1891 -4.1858,-2.1054 0.789,0.1648 1.5405,0.396 2.3077,0.4593 0.7751,0.0629 1.564,-0.0415 2.4009,-0.0738 0.0242,-0.5077 0.0466,-0.9537 0.0679,-1.3993 0.3708,0.068 0.6273,0.3044 1.2697,1.1913 0.399,-0.401 0.8238,-0.7647 1.4102,-0.7441 -0.0425,0.4133 -0.0967,0.8399 -0.1197,1.2679 -0.0042,0.082 0.1037,0.2278 0.1838,0.2474 0.5669,0.14 1.1399,0.2536 1.7105,0.3757 0.4264,0.0917 0.8535,0.1839 1.3238,0.2846 -0.0281,-0.1152 -0.0269,-0.1844 -0.0587,-0.2328 -1.057,-1.6194 -2.1169,-3.2361 -3.1778,-4.8538 -0.0554,-0.0843 -0.1153,-0.1654 -0.1829,-0.2398 -0.1675,-0.1832 -0.3469,-0.5141 -0.5112,-0.5084 -0.3387,0.0111 -0.7087,0.1471 -0.9981,0.3332 -0.687,0.4414 -1.1568,1.0938 -1.5643,1.8235 -0.3324,-0.2962 -0.405,-0.6765 -0.3988,-1.0432 0.015,-0.865 0.0738,-1.7312 0.133,-2.595 0.0181,-0.2618 -0.0697,-0.399 -0.326,-0.449 -0.2535,-0.0502 -0.5042,-0.1182 -0.7579,-0.1656 -0.7388,-0.1394 -1.2488,-0.6513 -1.7889,-1.0966 -0.3243,-0.267 -0.5786,-0.619 -0.8603,-0.9273 0.601,-0.0283 1.1526,-0.0305 1.6967,-0.0963 0.1613,-0.019 0.3428,-0.1902 0.442,-0.3383 0.3613,-0.5358 0.2606,-1.1059 0.1445,-1.7058 -0.1859,-0.9509 -0.3145,-1.9163 -0.4039,-2.8811 -0.06,-0.6565 -0.0588,-1.3274 -0.0006,-1.9844 0.0973,-1.1093 0.117,-2.2331 0.4731,-3.3081 0.0242,-0.0731 0.0599,-0.1421 0.128,-0.3007 0.1614,0.5221 0.329,0.9619 0.4317,1.4166 0.2696,1.1913 0.7924,2.2724 1.4678,3.2781 0.4928,0.733 1.0213,1.4459 1.5828,2.1279 0.4672,0.5676 1.1197,0.8713 1.8631,0.9134 0.5753,0.0329 1.1538,0.0057 1.7521,0.0057 0.17,1.2275 -0.3504,2.2782 -0.8362,3.3405l0 -0.0006z"/>
   <path class="fil0" d="M35.856 134.3078c-0.0646,0.1516 -0.102,0.2201 -0.1372,0.3262l-0.0005 0c-0.3763,1.1359 -0.3924,2.288 -0.4893,3.3819 -0.0593,0.6766 -0.0599,1.3665 0.0024,2.0431 0.0898,0.9729 0.2195,1.9498 0.4081,2.9127 0.1151,0.5965 0.1901,1.0384 -0.0947,1.4615 -0.0628,0.0928 -0.246,0.2011 -0.2085,0.1965 -0.0012,0 -0.0018,0 -0.0025,0 -0.5185,0.0629 -1.0625,0.0659 -1.6724,0.0945 -0.2773,0.0127 -0.4136,0.3435 -0.2259,0.5475 0.264,0.2899 0.5262,0.6552 0.8944,0.9585 0.5228,0.4311 1.0806,1.0046 1.9354,1.1653 0.0006,0 0.0006,0.0005 0.0006,0.0011 0.2363,0.0439 0.4864,0.1106 0.7549,0.1642 0,0 0,0 0.0006,0 0.0387,0.0076 0.0549,0.0139 0.0617,0.0169 0.0006,0.0034 0.0063,0.0201 0.0018,0.0881 0,0.0006 0,0.0012 0,0.0018 -0.0594,0.8639 -0.1188,1.7359 -0.1337,2.6119 -0.0076,0.4138 0.0893,0.9198 0.5084,1.2927 0.156,0.1394 0.4009,0.0979 0.503,-0.0848 0.3953,-0.7089 0.8328,-1.3094 1.454,-1.7082 0.0006,0 0.0006,0 0.0012,0 0.2288,-0.1469 0.5291,-0.2433 0.7798,-0.2635 0.0139,0.0151 0.023,0.022 0.0431,0.0462 0.0715,0.0871 0.157,0.2167 0.2677,0.3377 0,0.0006 0.0003,0.0011 0.0003,0.0011 0.0514,0.0566 0.1021,0.1234 0.1511,0.1978 0.9711,1.4811 1.9406,2.9611 2.9082,4.4434 -0.2163,-0.0462 -0.4428,-0.0951 -0.6543,-0.14 -0.549,-0.1181 -1.0943,-0.2289 -1.6291,-0.3585 0.0242,-0.3896 0.0703,-0.7855 0.1112,-1.1798 0.0191,-0.1879 -0.1245,-0.3527 -0.313,-0.3596 -0.585,-0.0207 -1.0108,0.2817 -1.3775,0.6109 -0.2004,-0.2634 -0.3987,-0.533 -0.5578,-0.6817 -0.2225,-0.2081 -0.4594,-0.3274 -0.6973,-0.3712 -0.1949,-0.0357 -0.3763,0.1084 -0.3855,0.3059 -0.0168,0.3488 -0.0352,0.7171 -0.0537,1.0968 -0.7308,0.0405 -1.427,0.117 -2.0628,0.0657 -0.7185,-0.0593 -1.4591,-0.284 -2.2677,-0.453 -0.3463,-0.0698 -0.5418,0.3833 -0.2531,0.5874 1.2657,0.8869 2.6078,1.6084 4.0753,2.0689 0.0542,0.3925 0.107,0.7689 0.1717,1.2345 0.034,0.2427 0.3135,0.3637 0.5135,0.2213 0.3274,-0.2334 0.65,-0.4115 0.944,-0.6851l0.0006 0c0.1555,-0.1447 0.2703,-0.2509 0.3417,-0.305 0.0271,-0.0206 0.0375,-0.0259 0.0478,-0.0317 0.0094,0.0058 0.0185,0.0105 0.0445,0.0312 0.0703,0.0553 0.1821,0.1643 0.3354,0.3152 0.3186,0.3147 0.6368,0.6283 1.0085,0.9948 0.094,0.0922 0.234,0.1199 0.3556,0.0686 0.1222,-0.0508 0.2017,-0.17 0.2012,-0.3026 0,-0.4006 0.0103,-0.718 -0.0006,-1.0464 -0.0115,-0.3338 0.0519,-0.4876 0.1376,-0.5678 0.0859,-0.0801 0.2671,-0.1453 0.6244,-0.1267 0.0006,0 0.0012,0 0.0015,0 0.4876,0.0243 1.006,0.1648 1.5631,0.2553 0.4611,0.0744 0.7995,0.1805 1.0708,0.5066 0.0807,0.0968 0.1546,0.1781 0.2514,0.2478 0.0973,0.0698 0.2432,0.1279 0.3913,0.1072 0.1486,-0.0208 0.2554,-0.0997 0.3377,-0.1775 0.083,-0.0779 0.1528,-0.1654 0.2329,-0.2715 0.0813,-0.1078 0.0882,-0.2548 0.0167,-0.3694 -0.1324,-0.2138 -0.2664,-0.4542 -0.4311,-0.6921 -0.9578,-1.3822 -1.9406,-2.7393 -2.8575,-4.1301 -0.3845,-0.5826 -0.6927,-1.2362 -0.9763,-1.9001 -0.0404,-0.0938 -0.0381,-0.3267 0.0346,-0.5313 0.072,-0.2041 0.2289,-0.3562 0.2289,-0.3568 0.6305,-0.2628 1.2252,-0.2749 1.8545,-0.0109 0.1938,0.0812 0.3815,0.1457 0.6541,0.2477 0.2807,0.1055 0.5428,-0.1912 0.4047,-0.4569 -0.5251,-1.0052 -1.0606,-2.0235 -2.1796,-2.6172 0.4511,-0.9809 0.9231,-2.0176 0.752,-3.2511 -0.0224,-0.1612 -0.1602,-0.2817 -0.3239,-0.2817 -0.6074,0 -1.181,0.0253 -1.7335,-0.0058 -0.6657,-0.0381 -1.2202,-0.2984 -1.6294,-0.7948 -0.5544,-0.6731 -1.0759,-1.3785 -1.5635,-2.1031 -0.6582,-0.9808 -1.1614,-2.0229 -1.4207,-3.1667 -0.1094,-0.4858 -0.28,-0.9303 -0.4379,-1.4415 -0.09,-0.2904 -0.4934,-0.3117 -0.6133,-0.0323z"/>
   <path class="fil0" d="M128.8258 150.203c1.5607,-0.0221 2.8828,0.1272 3.9093,0.4886 -2.3233,2.7778 -4.4309,4.5535 -4.2211,6.7027 0.2272,2.3226 3.9791,4.6572 6.8214,6.6443 -4.7017,-0.7619 -9.1394,-0.3359 -13.2249,1.6743 -5.0981,2.1058 -9.8356,2.768 -14.1632,1.7929l-1.2713 -5.7783 -0.0012 -0.0057c4.9951,-1.2886 9.9156,-3.1681 14.1182,-5.7488l-1.9652 -3.5924c3.1127,-0.9953 5.9904,-1.9186 8.3596,-2.1006 0.5717,-0.0439 1.118,-0.0699 1.6384,-0.0772z"/>
   <path class="fil0" d="M134.166 145.518c-1.2276,0.5094 -1.7238,1.5353 -2.2979,2.6349 0.2761,-0.1037 0.4605,-0.1678 0.6417,-0.2438 0.7047,-0.295 1.4083,-0.2807 2.1076,0.0109 0.3266,0.1372 0.6219,0.8876 0.438,1.3188 -0.2865,0.6706 -0.6017,1.3427 -1.0035,1.9513 -0.9226,1.3989 -1.9071,2.7589 -2.862,4.1369 -0.1533,0.2208 -0.2835,0.4554 -0.4226,0.6778 0.3021,0.4 0.4099,0.4317 0.7009,0.0819 0.3388,-0.4069 0.7821,-0.5406 1.2702,-0.6197 0.5342,-0.0869 1.0634,-0.2328 1.5997,-0.2593 0.8035,-0.0416 1.1326,0.268 1.1061,1.0316 -0.0104,0.3141 -0.0006,0.6304 -0.0006,1.0361 0.3718,-0.3659 0.6897,-0.6794 1.0085,-0.9935 0.6128,-0.6053 0.6018,-0.5943 1.2225,-0.0167 0.2552,0.2374 0.5682,0.4125 0.9116,0.6579 0.0744,-0.5358 0.1344,-0.9647 0.1971,-1.421 1.5084,-0.441 2.8788,-1.1891 4.1866,-2.1054 -0.789,0.1648 -1.5411,0.396 -2.3076,0.4593 -0.7751,0.0629 -1.5643,-0.0415 -2.401,-0.0738 -0.0242,-0.5077 -0.0467,-0.9537 -0.0681,-1.3993 -0.3705,0.068 -0.627,0.3044 -1.2695,1.1913 -0.3988,-0.401 -0.8243,-0.7647 -1.4104,-0.7441 0.0428,0.4133 0.0967,0.8399 0.12,1.2679 0.0039,0.082 -0.1037,0.2278 -0.1838,0.2474 -0.5673,0.14 -1.1406,0.2536 -1.7106,0.3757 -0.4266,0.0917 -0.8536,0.1839 -1.324,0.2846 0.0278,-0.1152 0.0272,-0.1844 0.059,-0.2328 1.0569,-1.6194 2.1168,-3.2361 3.1778,-4.8538 0.0554,-0.0843 0.1153,-0.1654 0.1826,-0.2398 0.1678,-0.1832 0.3465,-0.5141 0.5112,-0.5084 0.339,0.0111 0.7083,0.1471 0.9978,0.3332 0.6874,0.4414 1.1565,1.0938 1.564,1.8235 0.3332,-0.2962 0.4059,-0.6765 0.3988,-1.0432 -0.0142,-0.865 -0.0732,-1.7312 -0.1324,-2.595 -0.0185,-0.2618 0.0696,-0.399 0.3262,-0.449 0.2535,-0.0502 0.5043,-0.1182 0.7577,-0.1656 0.739,-0.1394 1.249,-0.6513 1.7889,-1.0966 0.324,-0.267 0.5786,-0.619 0.8605,-0.9273 -0.6012,-0.0283 -1.1526,-0.0305 -1.6968,-0.0963 -0.1617,-0.019 -0.3429,-0.1902 -0.4427,-0.3383 -0.3607,-0.5358 -0.2598,-1.1059 -0.1439,-1.7058 0.1862,-0.9509 0.3147,-1.9163 0.4033,-2.8811 0.0602,-0.6565 0.0596,-1.3274 0.0012,-1.9844 -0.0979,-1.1093 -0.1168,-2.2331 -0.4731,-3.3081 -0.0242,-0.0731 -0.0599,-0.1421 -0.1278,-0.3007 -0.1614,0.5221 -0.3292,0.9619 -0.4317,1.4166 -0.2699,1.1913 -0.7925,2.2724 -1.4685,3.2781 -0.4921,0.733 -1.0208,1.4459 -1.582,2.1279 -0.4681,0.5676 -1.1204,0.8713 -1.8634,0.9134 -0.575,0.0329 -1.1538,0.0057 -1.7521,0.0057 -0.1705,1.2275 0.3504,2.2782 0.8364,3.3405l0 -0.0006z"/>
   <path class="fil0" d="M140.728 134.3078c0.0645,0.1516 0.1019,0.2201 0.1373,0.3262 0,0 0,0 0.0006,0 0.3762,1.1359 0.3925,2.288 0.4886,3.3819 0.0599,0.6766 0.0599,1.3665 -0.0018,2.0431 -0.0899,0.9729 -0.2195,1.9498 -0.408,2.9127 -0.1154,0.5965 -0.1902,1.0384 0.0944,1.4615 0.0628,0.0928 0.2461,0.2011 0.2086,0.1965 0.0006,0 0.0017,0 0.0023,0 0.5183,0.0629 1.0628,0.0659 1.6725,0.0945 0.2773,0.0127 0.4139,0.3435 0.2259,0.5475 -0.2644,0.2899 -0.526,0.6552 -0.8943,0.9585 -0.5226,0.4311 -1.0807,1.0046 -1.9355,1.1653 -0.0003,0 -0.0003,0.0005 -0.0009,0.0011 -0.2364,0.0439 -0.4858,0.1106 -0.7546,0.1642l-0.0004 0c-0.0386,0.0076 -0.0549,0.0139 -0.0617,0.0169 -0.0006,0.0034 -0.0064,0.0201 -0.0017,0.0881 0,0.0006 0,0.0012 0,0.0018 0.0593,0.8639 0.1185,1.7359 0.1336,2.6119 0.0074,0.4138 -0.0894,0.9198 -0.5083,1.2927 -0.1563,0.1394 -0.4012,0.0979 -0.503,-0.0848 -0.396,-0.7089 -0.8335,-1.3094 -1.4541,-1.7082 -0.0007,0 -0.0012,0 -0.0012,0 -0.2287,-0.1469 -0.5291,-0.2433 -0.7798,-0.2635 -0.0145,0.0151 -0.0236,0.022 -0.0434,0.0462 -0.0714,0.0871 -0.1566,0.2167 -0.2673,0.3377 -0.0006,0.0006 -0.0006,0.0011 -0.0006,0.0011 -0.052,0.0566 -0.1021,0.1234 -0.1511,0.1978 -0.9711,1.4811 -1.9404,2.9611 -2.9086,4.4434 0.2167,-0.0462 0.4432,-0.0951 0.6547,-0.14 0.5494,-0.1181 1.0945,-0.2289 1.6293,-0.3585 -0.0248,-0.3896 -0.0711,-0.7855 -0.1112,-1.1798 -0.0197,-0.1879 0.1239,-0.3527 0.3128,-0.3596 0.5844,-0.0207 1.0111,0.2817 1.3775,0.6109 0.2,-0.2634 0.3989,-0.533 0.5578,-0.6817 0.2225,-0.2081 0.4589,-0.3274 0.6975,-0.3712 0.1941,-0.0357 0.3758,0.1084 0.3855,0.3059 0.0166,0.3488 0.0352,0.7171 0.0535,1.0968 0.731,0.0405 1.4264,0.117 2.0628,0.0657 0.7187,-0.0593 1.4593,-0.284 2.2673,-0.453 0.3463,-0.0698 0.5423,0.3833 0.2537,0.5874 -1.2656,0.8869 -2.608,1.6084 -4.0753,2.0689 -0.0546,0.3925 -0.1072,0.7689 -0.1717,1.2345 -0.034,0.2427 -0.3134,0.3637 -0.5135,0.2213 -0.3274,-0.2334 -0.6502,-0.4115 -0.944,-0.6851 -0.0006,0 -0.0006,0 -0.0006,0 -0.1563,-0.1447 -0.2703,-0.2509 -0.3419,-0.305 -0.0274,-0.0206 -0.0378,-0.0259 -0.0478,-0.0317 -0.0098,0.0058 -0.0184,0.0105 -0.0449,0.0312 -0.0697,0.0553 -0.1815,0.1643 -0.3348,0.3152 -0.3186,0.3147 -0.6375,0.6283 -1.0087,0.9948 -0.0938,0.0922 -0.234,0.1199 -0.3555,0.0686 -0.1221,-0.0508 -0.2018,-0.17 -0.2011,-0.3026 0,-0.4006 -0.0105,-0.718 0.0006,-1.0464 0.0116,-0.3338 -0.0519,-0.4876 -0.1378,-0.5678 -0.0859,-0.0801 -0.2669,-0.1453 -0.6246,-0.1267 0,0 -0.0007,0 -0.0013,0 -0.4876,0.0243 -1.0058,0.1648 -1.5637,0.2553 -0.4611,0.0744 -0.7987,0.1805 -1.0702,0.5066 -0.0807,0.0968 -0.1544,0.1781 -0.2518,0.2478 -0.0967,0.0698 -0.2427,0.1279 -0.3914,0.1072 -0.1481,-0.0208 -0.2547,-0.0997 -0.3376,-0.1775 -0.0826,-0.0779 -0.1521,-0.1654 -0.2322,-0.2715 -0.0814,-0.1078 -0.0883,-0.2548 -0.0175,-0.3694 0.1332,-0.2138 0.2669,-0.4542 0.4318,-0.6921 0.9578,-1.3822 1.9405,-2.7393 2.8573,-4.1301 0.3845,-0.5826 0.6928,-1.2362 0.9766,-1.9001 0.0396,-0.0938 0.0378,-0.3267 -0.0348,-0.5313 -0.0727,-0.2041 -0.2288,-0.3562 -0.2294,-0.3568 -0.6305,-0.2628 -1.2245,-0.2749 -1.8545,-0.0109 -0.1937,0.0812 -0.3811,0.1457 -0.6538,0.2477 -0.2805,0.1055 -0.5428,-0.1912 -0.4045,-0.4569 0.5245,-1.0052 1.0604,-2.0235 2.1796,-2.6172 -0.4513,-0.9809 -0.9233,-2.0176 -0.752,-3.2511 0.0219,-0.1612 0.1602,-0.2817 0.3233,-0.2817 0.6081,0 1.1813,0.0253 1.7341,-0.0058 0.6657,-0.0381 1.22,-0.2984 1.6292,-0.7948 0.5538,-0.6731 1.076,-1.3785 1.5631,-2.1031 0.6587,-0.9808 1.1618,-2.0229 1.4211,-3.1667 0.1096,-0.4858 0.2802,-0.9303 0.4381,-1.4415 0.0894,-0.2904 0.4928,-0.3117 0.6126,-0.0323l0.0006 0z"/>
   <path class="fil1" d="M78.7236 160.9866c0.0711,-0.1747 0.1315,-0.3585 0.1822,-0.5517 0.0564,-0.1914 0.1129,-0.4086 0.1699,-0.653l1.2011 -5.1719 -0.4086 -0.0951c-0.159,-0.0369 -0.3082,-0.0651 -0.4472,-0.0841 -0.1319,-0.0242 -0.2801,-0.045 -0.4432,-0.0635l0.2767 -1.1919c0.125,0.0554 0.2462,0.0997 0.3642,0.1337 0.1175,0.0341 0.2761,0.0744 0.4748,0.1205l0.7839 0.1821c0.1077,0.0248 0.1988,0.0462 0.2726,0.0634 0.0794,0.0185 0.1509,0.0318 0.2149,0.0397 0.064,0.0087 0.1244,0.0191 0.1811,0.0324 0.0582,0.0069 0.1284,0.0133 0.211,0.0196 -0.0924,0.2686 -0.1717,0.5203 -0.2387,0.7556 -0.0606,0.2363 -0.1239,0.4955 -0.1892,0.7775l-1.1036 4.7495c-0.0582,0.2501 -0.1059,0.4697 -0.144,0.6587 -0.0312,0.1844 -0.0548,0.3764 -0.0714,0.5769l-1.2865 -0.2984z"/>
   <path class="fil1" d="M84.0292 159.8695c0.0404,0.1453 0.075,0.2577 0.1038,0.3371 0.0346,0.0739 0.0755,0.1453 0.1227,0.2134 0.1988,0.2806 0.5221,0.4397 0.9695,0.4765 0.4183,0.0352 0.7572,-0.0692 1.0172,-0.3117 0.2402,-0.2122 0.427,-0.4933 0.5614,-0.8431 0.1348,-0.3562 0.2373,-0.8185 0.3083,-1.3862 -0.093,0.1274 -0.1741,0.2272 -0.2446,0.2985 -0.0696,0.0652 -0.1572,0.1355 -0.2634,0.2105 -0.2098,0.1307 -0.4312,0.2253 -0.6639,0.2835 -0.2321,0.0512 -0.4938,0.0651 -0.7842,0.0415 -0.3604,-0.03 -0.6837,-0.1146 -0.9706,-0.2549 -0.2808,-0.1457 -0.5163,-0.3359 -0.7071,-0.5711 -0.1856,-0.2346 -0.3204,-0.5128 -0.4048,-0.8363 -0.0847,-0.3226 -0.1106,-0.676 -0.0789,-1.0603 0.041,-0.4928 0.17,-0.9239 0.3878,-1.2928 0.2238,-0.3682 0.5256,-0.6587 0.906,-0.8725 0.4301,-0.2479 0.9498,-0.3464 1.5601,-0.2962 0.5637,0.0468 1.0431,0.2577 1.4397,0.6323 0.3964,0.3676 0.6634,0.854 0.8006,1.4587 0.125,0.5387 0.1544,1.2085 0.0876,2.0084 -0.03,0.3654 -0.0819,0.7123 -0.1562,1.0414 -0.0679,0.3296 -0.1549,0.6352 -0.26,0.9164 -0.0997,0.2817 -0.2172,0.533 -0.3522,0.7538 -0.1295,0.2213 -0.273,0.4029 -0.4316,0.5447 -0.2535,0.2368 -0.5331,0.4004 -0.8392,0.491 -0.2996,0.0916 -0.6593,0.1197 -1.0777,0.0846 -0.3658,-0.0299 -0.6788,-0.1008 -0.9387,-0.2126 -0.2594,-0.1117 -0.4922,-0.2732 -0.6968,-0.4835 -0.0703,-0.0703 -0.1319,-0.1395 -0.1844,-0.2087 -0.0526,-0.0749 -0.1044,-0.1567 -0.1556,-0.2449 -0.0451,-0.0877 -0.0929,-0.185 -0.1424,-0.2923 -0.0437,-0.1064 -0.0917,-0.2334 -0.144,-0.3791l1.2315 -0.2462zm1.3872 -1.703l0 0c0.2151,0.0178 0.4157,-0.004 0.6019,-0.0663 0.1929,-0.0675 0.362,-0.163 0.5065,-0.2863 0.1452,-0.1303 0.264,-0.2877 0.3549,-0.4737 0.0917,-0.1856 0.1466,-0.3909 0.1654,-0.615 0.0184,-0.2243 -0.0023,-0.4317 -0.0628,-0.6237 -0.0537,-0.1983 -0.1389,-0.3694 -0.2553,-0.5146 -0.1164,-0.1515 -0.261,-0.2733 -0.4351,-0.3648 -0.1735,-0.0917 -0.3684,-0.1464 -0.5833,-0.1642 -0.2092,-0.0173 -0.4039,0.0051 -0.5844,0.0674 -0.1811,0.0629 -0.3413,0.1591 -0.4806,0.2893 -0.1336,0.1308 -0.2433,0.2893 -0.3285,0.4755 -0.0859,0.186 -0.1384,0.3947 -0.1573,0.6253 -0.0387,0.4674 0.0552,0.8517 0.2816,1.1543 0.2272,0.2963 0.5527,0.4618 0.9769,0.4968z"/>
   <path class="fil1" d="M92.8695 161.9825c-0.7481,0.0742 -1.3832,-0.1245 -1.9048,-0.5955 -0.2957,-0.268 -0.5194,-0.5717 -0.6702,-0.9117 -0.2934,-0.6553 -0.4796,-1.3792 -0.5585,-2.1715 -0.0253,-0.2559 -0.0386,-0.5094 -0.0404,-0.7613 0.0036,-0.2589 0.0173,-0.5055 0.0411,-0.7401 0.023,-0.241 0.0563,-0.4639 0.1007,-0.6685 0.0438,-0.2046 0.0991,-0.3844 0.1659,-0.5394 0.195,-0.4583 0.4697,-0.8178 0.8242,-1.0789 0.3545,-0.268 0.7751,-0.426 1.2628,-0.4743 0.7544,-0.075 1.3917,0.1233 1.9134,0.5949 0.296,0.2674 0.5191,0.5712 0.6702,0.9111 0.1497,0.3273 0.2697,0.6771 0.359,1.0489 0.0952,0.3653 0.1619,0.7457 0.2011,1.1423 0.0595,0.5947 0.0553,1.144 -0.012,1.6477 -0.0612,0.5031 -0.1782,0.9215 -0.35,1.2546 -0.4183,0.8034 -1.0856,1.2505 -2.0025,1.3418zm-0.1014 -1.1135l0 0c0.1913,-0.0191 0.3648,-0.0716 0.5203,-0.158 0.1552,-0.0865 0.2818,-0.1993 0.3792,-0.3383 0.1753,-0.2432 0.2939,-0.5844 0.3557,-1.0229 0.0616,-0.4387 0.0652,-0.9394 0.0092,-1.502 -0.0559,-0.5624 -0.1568,-1.046 -0.3026,-1.4511 -0.1463,-0.4121 -0.3296,-0.7262 -0.5502,-0.9428 -0.1171,-0.1176 -0.2636,-0.2035 -0.4388,-0.2572 -0.1693,-0.0542 -0.3526,-0.0715 -0.5499,-0.0518 -0.4063,0.0402 -0.7151,0.2356 -0.9261,0.586 -0.3337,0.5366 -0.4477,1.3326 -0.3434,2.3872 0.0502,0.5048 0.1324,0.9521 0.2479,1.3405 0.1204,0.3885 0.2611,0.6875 0.4231,0.8973 0.3076,0.3891 0.6995,0.5602 1.1757,0.513z"/>
   <path class="fil1" d="M98.6697 160.8926c-0.0226,-0.1873 -0.0584,-0.3775 -0.1073,-0.5705 -0.0426,-0.1949 -0.0985,-0.4127 -0.1671,-0.6537l-1.4482 -5.1085 -0.4042 0.1146c-0.1567,0.0444 -0.3007,0.0916 -0.4322,0.1423 -0.1269,0.0427 -0.2662,0.0957 -0.4184,0.1585l-0.3337 -1.1775c0.136,-0.0115 0.264,-0.0311 0.3833,-0.0582 0.1191,-0.0277 0.2773,-0.0687 0.4737,-0.1244l0.774 -0.2197c0.1065,-0.03 0.1966,-0.0554 0.2692,-0.076 0.0789,-0.0226 0.1481,-0.0456 0.2081,-0.0692 0.0599,-0.0237 0.118,-0.0433 0.1741,-0.0594 0.054,-0.022 0.1186,-0.0502 0.194,-0.0849 0.049,0.2797 0.1009,0.539 0.1562,0.777 0.0613,0.2364 0.1309,0.4933 0.21,0.7716l1.33 4.6913c0.0703,0.2474 0.1343,0.4629 0.1926,0.6467 0.0623,0.1759 0.1342,0.3556 0.2166,0.5394l-1.2706 0.3603z"/>
  </g>
 </g>
</svg>
