<?xml version="1.0" encoding="UTF-8" standalone="no"?>
<!-- Created with Inkscape (http://www.inkscape.org/) -->

<svg
   xmlns:dc="http://purl.org/dc/elements/1.1/"
   xmlns:cc="http://creativecommons.org/ns#"
   xmlns:rdf="http://www.w3.org/1999/02/22-rdf-syntax-ns#"
   xmlns:svg="http://www.w3.org/2000/svg"
   xmlns="http://www.w3.org/2000/svg"
   xmlns:sodipodi="http://sodipodi.sourceforge.net/DTD/sodipodi-0.dtd"
   xmlns:inkscape="http://www.inkscape.org/namespaces/inkscape"
   version="1.1"
   width="581.34375"
   height="708.66125"
   id="svg2"
   xml:space="preserve"
   inkscape:version="0.48.0 r9654"
   sodipodi:docname="ac_arles-avignon.svg"><metadata
     id="metadata74"><rdf:RDF><cc:Work
         rdf:about=""><dc:format>image/svg+xml</dc:format><dc:type
           rdf:resource="http://purl.org/dc/dcmitype/StillImage" /></cc:Work></rdf:RDF></metadata><sodipodi:namedview
     pagecolor="#ffffff"
     bordercolor="#666666"
     borderopacity="1"
     objecttolerance="10"
     gridtolerance="10"
     guidetolerance="10"
     inkscape:pageopacity="0"
     inkscape:pageshadow="2"
     inkscape:window-width="1920"
     inkscape:window-height="1018"
     id="namedview72"
     showgrid="false"
     fit-margin-top="0"
     fit-margin-left="0"
     fit-margin-right="0"
     fit-margin-bottom="0"
     inkscape:zoom="0.28028504"
     inkscape:cx="371.875"
     inkscape:cy="526.25"
     inkscape:window-x="-5"
     inkscape:window-y="-5"
     inkscape:window-maximized="1"
     inkscape:current-layer="svg2" /><defs
     id="defs6"><clipPath
       id="clipPath20"><path
         d="m 2321.06,5669.29 c -480.12,0 -883.1,-81.26 -1354.119,-207.02 -445.222,-118.89 -885.0308,-323.4 -885.0308,-323.4 0,0 -81.8359812,-564.39 -81.9102,-1192.35 0,-181.8 6.91406,-368.9 24.582,-549.2 78.82,-802.81 300.285,-1549 1103.698,-2358.11 C 1947.29,214.621 2318.16,0 2318.16,0 l 14.51,0 c 0,0 370.81,214.621 1189.73,1039.21 803.6,808.97 1024.95,1555.23 1103.7,2358.11 17.78,180.3 24.65,367.47 24.65,549.2 0,627.96 -81.9,1192.35 -81.9,1192.35 0,0 -439.85,204.51 -885.07,323.4 -470.95,125.76 -872.53,207.02 -1352.58,207.02 l -10.14,0 z M 1175.4,1089.52 C 405.559,1864.59 220.746,2579.54 144.574,3348.3 l -0.07,0.86 -0.613,5.74 c -16.95,173.27 -23.539,353.14 -23.539,527.84 0,603.16 78.648,1145.34 78.648,1145.34 l 0.07,0.07 0.145,0.08 0.07,0.06 0.828,0.37 0.141,0.21 c 14.976,7.38 167.258,82.05 379.297,164.17 l 0.754,0.29 1.144,0.5 1.035,0.5 1.039,0.36 c 126.665,48.94 274.426,100.32 426.847,141.53 l 0.21,0.07 4.55,1.36 0.61,0.15 4.52,1.14 c 93.3,24.94 183.77,48.01 272.7,68.86 342.53,80.84 662.1,130 1028.28,130 l 9.75,0 c 419.78,0 777.08,-64.64 1179.09,-167.4 39.7,-10.1 79.69,-20.71 120.38,-31.53 l 2.72,-0.72 0.58,-0.14 c 31.24,-8.38 62.34,-17.2 93.15,-26.37 l 3.3,-1.01 0.29,-0.07 c 32.11,-9.52 63.92,-19.63 95.1,-29.67 l 0.28,-0.07 2.36,-0.78 0.51,-0.15 2.07,-0.86 0.72,-0.21 2.3,-0.72 0.43,-0.14 0.71,-0.22 3.58,-1.15 0.58,-0.35 c 173.41,-56.97 329.63,-120.68 440.99,-169.19 l 0.14,-0.07 c 102.04,-44.43 166.25,-76.32 171.13,-78.83 l 0.14,0 0.15,-0.07 0,-0.07 c 0,0 1.85,-12.76 5.01,-36.62 17.34,-131.42 73.67,-598.21 73.67,-1108.72 0.14,-174.78 -6.52,-354.57 -23.5,-527.85 l -0.58,-6.16 c -11.32,-113.36 -24.8,-225.58 -42.42,-336.94 l -0.43,-3.44 -0.15,-1.15 C 4363.4,2374.3 4137.25,1767.34 3504.7,1119.19 l -0.5,-0.51 -4.73,-4.8 -1.15,-1.15 -5.16,-5.3 -1.57,-1.57 -3.45,-3.59 -2.43,-2.22 -3,-3.23 -2.16,-2 -5.16,-5.23 c -10.6,-10.68 -21.21,-21.28 -31.6,-31.75 C 3066.36,679.699 2790.75,439.211 2608.45,292.879 2421.28,142.391 2332.38,91.082 2332.38,91.082 l -13.93,0 c -3.02,1.7188 -359.59,209.457 -1143.05,998.438"
         id="path22"
         inkscape:connector-curvature="0" /></clipPath><linearGradient
       x1="0"
       y1="0"
       x2="1"
       y2="0"
       id="linearGradient24"
       gradientUnits="userSpaceOnUse"
       gradientTransform="matrix(465.041,-566.966,-566.966,-465.041,42.8867,602.172)"
       spreadMethod="pad"><stop
         id="stop26"
         style="stop-color:#d0d2d3;stop-opacity:1"
         offset="0" /><stop
         id="stop28"
         style="stop-color:#eeeef0;stop-opacity:1"
         offset="1" /></linearGradient><clipPath
       id="clipPath36"><path
         d="M 0,5669.29 0,0 l 4650.75,0 0,5669.29 -4650.75,0 z"
         id="path38"
         inkscape:connector-curvature="0" /></clipPath><clipPath
       id="clipPath46"><path
         d="m 2321.96,5537.29 c -461.28,0 -849.96,-78.61 -1302.49,-199.49 -25.908,-6.96 -49.982,-13.26 -75.677,-20.64 l -2.289,0 -6.879,-2.3 -4.586,-2.29 -4.59,0 -6.879,-2.29 -2.293,0 c -33.539,-10.04 -66.066,-21.29 -98.601,-32.11 l -2.293,0 -6.848,-2.29 -6.875,-2.29 c -27.519,-9.18 -56.008,-18.13 -82.555,-27.52 -25.043,-49.16 -53.671,-110.43 -84.843,-181.16 C 538.773,4848.36 426.699,4539.22 382.016,4202.7 l 0,-9.17 0,-2.29 -2.289,-4.59 0,-4.59 0,-4.58 0,-4.59 -2.293,-4.58 0,-4.59 0,-4.59 0,-6.88 0,-2.29 -2.293,-6.88 0,-9.17 c -5.739,-54.53 -11.86,-106.91 -16.055,-160.52 l 0,-4.58 0,-6.88 0,-11.47 -2.289,-11.46 c -6.235,-87.64 -9.176,-174.35 -11.469,-259.13 l 0,-4.58 0,-4.59 c -1.183,-44.35 -2.223,-89.36 -2.293,-133 l 0,-29.81 c 0,-25.37 -0.285,-50.38 0,-75.68 l 0,-2.21 0,-6.88 0,-4.59 0,-4.59 c 0.145,-7.23 -0.144,-15.69 0,-22.93 l 0,-2.29 2.293,-6.88 0,-4.59 0,-6.88 0,-2.29 0,-11.47 2.293,-9.17 0,-2.29 0,-6.88 2.297,-2.29 2.289,-9.18 0,-2.29 0,-6.88 2.297,-2.29 0,-6.88 2.293,-4.59 0,-6.87 2.258,-2.3 0,-6.88 2.289,-2.29 0,-9.17 2.293,-2.23 0,-6.88 2.297,-2.29 0,-6.88 2.289,-6.88 0,-4.58 2.297,-4.59 0,-2.29 2.292,-4.59 0,-9.17 2.29,-4.59 0,-4.58 2.296,-4.59 0,-4.59 2.254,-4.58 2.297,-6.88 0,-4.59 0,-4.58 2.289,-4.59 2.293,-6.88 0,-4.58 2.297,-4.59 0,-4.58 2.289,-6.88 0,-4.59 2.297,-4.59 2.293,-4.58 0,-4.59 0,-4.59 2.289,-6.87 2.258,-4.59 0,-6.88 2.297,-2.29 2.293,-9.18 0,-2.29 2.289,-6.88 0,-2.29 2.297,-6.81 0,-2.3 2.293,-9.17 2.293,-2.29 0,-9.17 2.293,0 4.586,-20.64 0,-2.29 c 1.757,-6.74 5.05,-11.76 6.878,-18.35 l 2.293,-11.46 c 1.903,-6.88 2.579,-13.98 4.586,-20.64 4.91,-17.27 10.821,-35.55 16.051,-52.74 90.152,-302.2 215.121,-609.19 392.125,-896.61 l 0,1089.23 570.982,0 c 0,-654.11 0,-1159.45 0,-1770.28 64.78,-63.28 126.05,-120.33 183.45,-174.28 l 0,-2.3 6.85,-4.58 0,-2.29 6.87,-4.59 2.3,-2.3 4.58,-4.58 2.3,-2.29 4.58,-4.59 2.3,-2.3 2.29,-2.28 4.59,-2.3 0,-2.29 9.17,-6.88 2.29,-2.29 4.59,-4.59 4.58,-4.59 2.3,-2.29 13.76,-11.46 0,-2.3 4.58,-2.29 2.3,-2.23 18.34,-18.34 2.29,0 4.59,-4.59 0,-2.29 16.05,-11.47 2.26,-4.58 2.29,-2.29 4.59,-2.3 2.29,-2.29 11.47,-11.47 2.29,-2.29 2.29,-2.29 2.3,-2.29 4.58,-2.3 0,-2.29 11.46,-9.17 4.59,-2.3 2.29,-2.29 2.3,-4.58 2.29,0 4.59,-4.59 2.29,-2.3 9.17,-9.17 2.29,0 c 94.63,-84.05 174.89,-153.71 243.08,-208.671 0,778.161 0,1556.311 0,2334.391 l 286.64,0 0,2410.06 -2.15,-0.29 z"
         id="path48"
         inkscape:connector-curvature="0" /></clipPath><linearGradient
       x1="0"
       y1="0"
       x2="1"
       y2="0"
       id="linearGradient50"
       gradientUnits="userSpaceOnUse"
       gradientTransform="matrix(-2.074e-5,-474.445,-474.445,2.074e-5,133.351,553.758)"
       spreadMethod="pad"><stop
         id="stop52"
         style="stop-color:#418bd1;stop-opacity:1"
         offset="0" /><stop
         id="stop54"
         style="stop-color:#315db0;stop-opacity:1"
         offset="1" /></linearGradient><clipPath
       id="clipPath62"><path
         d="m 2324.25,5537.29 0,-2410.06 284.34,0 c 0,-758.23 0,-1516.53 0,-2274.761 47.45,44.57 100.9,96.09 162.82,153.631 122.97,114.51 275.74,254.61 463.21,426.52 0,564.9 0,1129.72 0,1694.61 l 570.98,0 0,-1089.22 c 56.9,77.89 109.5,157.08 155.93,236.19 l 9.17,16.04 2.3,2.3 2.29,6.88 2.3,2.3 2.28,6.87 4.59,4.59 0,2.29 2.3,4.59 2.29,2.29 9.17,18.34 c 144.25,262.49 235.4,531.72 288.94,802.59 l 2.28,4.59 0,2.29 0,4.59 2.3,6.81 0,4.59 0,4.58 2.29,4.59 0,6.88 c 6.17,106.2 11.18,215.98 11.47,327.91 l 0,29.81 0,2.29 0,11.47 0,4.58 0,11.47 0,4.59 0,11.46 0,2.3 c -0.15,11.46 -2.15,22.79 -2.3,34.39 l 0,9.18 0,6.87 0,11.47 0,4.59 0,11.46 0,4.59 0,16.05 c -3.72,134.01 -13.46,271.31 -27.52,412.76 l 0,2.3 0,2.29 -2.28,13.76 0,2.29 0,2.29 0,6.88 0,2.3 -2.3,11.46 c -1.72,15.69 -2.57,30.39 -4.59,45.86 l 0,2.29 -2.29,4.59 c -3.15,24.58 -5.3,49.16 -9.17,73.38 -13.47,83.84 -30.67,166.61 -50.45,245.37 l -2.3,6.87 0,2.29 -2.28,4.59 0,2.29 -2.3,6.88 0,2.3 0,2.22 -4.59,13.76 c -71.94,269.44 -172.34,500.9 -245.36,649.09 -7.45,15.19 -13.82,27.81 -20.63,41.28 l -11.47,4.59 -2.29,0 -6.89,2.29 -4.58,2.29 -6.88,2.3 c -84.41,29.01 -172.7,56.03 -263.7,80.26 -452.54,120.74 -839,199.49 -1300.2,199.49 l -6.88,0 z"
         id="path64"
         inkscape:connector-curvature="0" /></clipPath><linearGradient
       x1="0"
       y1="0"
       x2="1"
       y2="0"
       id="linearGradient66"
       gradientUnits="userSpaceOnUse"
       gradientTransform="matrix(198.125,0,0,-198.125,232.425,319.488)"
       spreadMethod="pad"><stop
         id="stop68"
         style="stop-color:#3a77c5;stop-opacity:1"
         offset="0" /><stop
         id="stop70"
         style="stop-color:#2c5491;stop-opacity:1"
         offset="1" /></linearGradient><clipPath
       id="clipPath78"><path
         d="m 3926.71,5246.57 c 13.47,-26.51 28.3,-56.54 44.14,-89.72 l 2.36,-5.08 c 67.29,-142.39 150.06,-341.47 213.26,-570.56 l 0.14,-0.43 2.08,-7.81 0.72,-2.51 0.86,-3.23 1.15,-4 1.14,-4.23 1.22,-4.66 0.51,-1.79 1.78,-7.1 0.07,-0.21 2.01,-7.45 0,-0.15 c 22.44,-85.99 42,-176 56.62,-268.36 l 0.13,-0.43 0,-0.29 c 3.45,-21.57 6.6,-43.21 9.61,-65.07 l 0,-0.93 0.86,-5.73 0.71,-6.17 0.15,-0.93 c 2,-15.62 3.8,-31.24 5.45,-46.93 l 1.07,-9.97 0.07,-0.85 c 1.14,-9.75 2.08,-19.57 3.09,-29.38 l 0,-0.51 1.5,-14.69 0,0 1.29,-13.75 0.5,-5.17 0.79,-7.88 0.57,-6.23 0.57,-6.16 c 0.79,-9.54 1.72,-19.28 2.44,-28.81 l 0.14,-0.65 c 14.34,-166.96 21.08,-328.84 21.36,-485.21 l 0,-1.5 0,-8.31 0,-3.8 0,-7.89 0,-5.51 0,-9.89 0,-7.81 0,-4.95 -0.15,-8.74 0,-3.58 -0.13,-12.76 0,-0.64 -0.15,-12.62 0,-1.86 -0.15,-12.75 0,-0.22 c -0.13,-9.17 -0.28,-18.2 -0.43,-27.3 l 0,-0.93 c -1.64,-78.11 -4.72,-154.79 -9.17,-230.03 l -0.36,-3.87 -0.14,-2.43 -1.07,-18.28 -0.29,-3.73 0,-0.57 c -9.32,-143.46 -23.51,-281.12 -41.49,-412.47 l -0.14,-1.5 -1.22,-8.75 -0.43,-2.51 -1.15,-8.45 -0.29,-2.16 -1.43,-10.52 -0.14,-0.65 -1.29,-9.1 -0.58,-4.01 -0.86,-6.24 -0.71,-4.65 -0.64,-4.1 c -1.08,-7.66 -2.37,-15.54 -3.52,-23.21 l -0.07,-0.64 -1.22,-7.96 -0.28,-1.36 c -44.29,-289.08 -106.13,-545.61 -171.27,-763.68 l 0,-0.07 c -2.58,-8.67 -5.09,-17.2 -7.75,-25.87 l -0.13,-0.57 -1.58,-5.02 -0.72,-2.07 -1.29,-4.59 -1.15,-3.87 -0.93,-3.01 -2.21,-7.25 c 140.16,236.49 237.4,470.52 306.41,705.93 l 0,0.07 5.09,17.48 0.07,0.44 1.65,5.37 0.14,0.71 1.51,4.96 0.28,1.21 1.36,4.8 0.29,1.08 1.36,4.72 0.29,1.29 1.36,4.74 0.28,1.07 1.23,4.66 0.57,1.5 1.21,4.66 0.3,1.08 1.22,4.65 0.56,1.66 1.01,4.15 0.5,1.86 1.07,4.08 0.58,1.87 1.07,4.16 0.51,1.85 1,3.88 0.64,2.15 0.86,3.72 0.79,2.59 0.71,2.79 0.87,3.29 0.71,3.01 0.86,2.87 0.58,2.87 0.86,3.22 0.71,2.65 1.01,3.73 0.43,1.93 1,4.02 0.5,2.08 1.08,4.01 0.43,1.64 1,4.31 0.43,1.86 1.14,4.16 0.3,1.65 1.14,4.44 0.36,1.57 1.08,4.51 0.28,1.22 1.22,5.02 0.28,0.79 1.22,5.38 0.15,0.42 1.29,5.59 0.07,0.36 1.35,5.8 0,0.08 4.16,17.91 c 47.66,207.46 76.97,416.49 97.9,629.75 l 1.35,14.69 0.29,3.15 1.08,11.4 0.57,6.73 0.72,7.6 c 10.89,123.9 16.62,250.52 18.7,375.92 l 0,5.02 0.15,6.88 c 0.43,32.32 0.64,64.35 0.64,96.39 0,376.35 -30.53,728.99 -53.6,940.88 l -0.15,1.73 c -2.36,20.92 -4.58,40.27 -6.59,58.33 l 0,0.29 c -1.14,9.02 -2.08,17.7 -3.15,25.86 l -0.29,3.23 -0.14,1.22 -0.29,2.79 -0.21,1 -0.36,3.01 -0.07,0.43 -0.3,2.51 -0.21,2.15 -1.29,10.03 0,0.08 -0.28,2.57 -0.65,4.88 -0.28,2.29 -0.15,1.58 -0.71,5.73 -0.08,0.29 -1.43,12.32 -0.14,0.51 -1.44,11.03 0,0.14 -1.14,8.46 -0.43,3.51 -0.44,3.01 -0.5,4.37 -0.06,0.22 -1.01,7.74 -0.15,0.64 -1.5,11.18 -0.21,1.44 -0.86,5.73 0,0.21 -0.14,1.29 0,0.29 0,0.35 -0.15,0.15 -0.14,1.28 0,0.15 -0.14,0.43 0,0.14 -0.58,0.37 -0.64,0.21 c -2.08,1.22 -6.81,3.44 -14.12,7.02 -25.08,12.18 -80.12,38.2 -156.08,71.38 l -0.14,0.07 c -66.21,28.88 -148.26,63.06 -240.49,98.02 l -1,0.51 -4.52,1.72 c -33.25,12.54 -67.86,25.22 -103.33,37.77 l -3.94,1.5 -0.14,0 0,0.14 0,0 z M 648.52,5219.27 C 545.078,5180.79 452.602,5142.74 378.867,5110.71 326.77,5088.13 284.059,5068.5 253.316,5054.23 218.383,5037.82 199,5028.15 199,5028.15 l 0,-0.07 0,-0.07 -0.074,-0.21 0,-0.22 -0.071,-0.22 -0.21,-1.57 c -5.594,-39.2 -78.508,-564.61 -78.293,-1145.77 l 0,-11.32 0,-4.01 0.074,-13.98 0,-1.58 0.14,-15.26 0,-0.57 c 1.114,-159.01 7.918,-321.47 23.325,-478.33 25.621,-260.2 63.566,-514.3 132.254,-766.62 68.683,-252.24 168.109,-502.77 316.625,-755.86 l -1.969,6.44 -0.254,0.65 -1.684,5.73 -0.215,0.65 c -160.41,528.2 -304.66,1290.01 -223.144,2196.58 1.25,13.55 2.578,27.23 3.898,40.85 1.903,19.92 3.95,39.7 6.094,59.69 l 0.789,7.88 0.285,2.15 0.828,7.31 0.29,2.65 0.75,6.02 0.429,3.8 0.571,4.8 0.464,3.73 0.719,5.66 0.609,4.8 0.215,2.08 1.223,8.88 0.176,0.8 c 23.324,175.99 64.777,344.18 112.824,495.59 l 0.543,1.51 0.141,0.5 c 48.046,151.27 102.437,285.64 151.523,394.13 l 0.504,1.22 0.68,1.36 1.144,2.51 0.324,0.78 c 25.082,55.19 48.657,103.63 69.258,143.97 -24.219,-8.74 -47.973,-17.27 -71.265,-25.94 m 2586.88,-3527.6 0,-838.701 c 65.86,63.273 135.08,131.351 208.39,204.801 10.39,10.46 21,21.07 31.6,31.75 l 5.16,5.22 2.16,2.08 3,3.23 0.86,0.79 4.45,4.44 0.57,0.65 0.86,1 2.43,2.43 3.44,3.59 1.01,1 c 115.08,117.59 216.7,233.9 306.7,349.12 l 0,1663.52 -570.7,0 0,-0.07 0,-327.06 m -1821.66,-0.07 0,327.05 -570.596,0 0,0 0,-1661.29 c 96.637,-123.96 206.496,-249.09 332.326,-375.63 84.45,-85.07 163.63,-162.891 238.27,-234.981 l 0,837.131 m 624.08,1434.77 0,-2829.768 c 148.52,-119.52 236.16,-177.723 267.47,-197.4923 l 0.65,-0.4297 0.61,-0.2891 c 7.63,-4.8711 11.57,-7.0898 11.97,-7.3789 l 13.93,0 c 0,0 88.9,51.309 276.07,201.648 l 0,2833.71"
         id="path80"
         inkscape:connector-curvature="0" /></clipPath><clipPath
       id="clipPath84"><path
         d="m 120.137,5246.57 4410.233,0 0,-5155.6286 -4410.233,0 0,5155.6286 z"
         id="path86"
         inkscape:connector-curvature="0" /></clipPath><linearGradient
       x1="0"
       y1="0"
       x2="1"
       y2="0"
       id="linearGradient88"
       gradientUnits="userSpaceOnUse"
       gradientTransform="matrix(441.029,0,0,441.029,12.001,266.859)"
       spreadMethod="pad"><stop
         id="stop90"
         style="stop-color:#fadb41;stop-opacity:1"
         offset="0" /><stop
         id="stop92"
         style="stop-color:#fbd21a;stop-opacity:1"
         offset="0.45050001" /><stop
         id="stop94"
         style="stop-color:#fbd21a;stop-opacity:1"
         offset="0.45050001" /><stop
         id="stop96"
         style="stop-color:#eeba1a;stop-opacity:1"
         offset="1" /></linearGradient><clipPath
       id="clipPath104"><path
         d="M 0,5669.29 0,0 l 4650.75,0 0,5669.29 -4650.75,0 z"
         id="path106"
         inkscape:connector-curvature="0" /></clipPath></defs><g
     transform="matrix(1.25,0,0,-1.25,0,708.66125)"
     id="g12"><g
       transform="scale(0.1,0.1)"
       id="g14"><g
         id="g16"><g
           clip-path="url(#clipPath20)"
           id="g18"><path
             d="m 2321.06,5669.29 c -480.12,0 -883.1,-81.26 -1354.119,-207.02 -445.222,-118.89 -885.0308,-323.4 -885.0308,-323.4 0,0 -81.8359812,-564.39 -81.9102,-1192.35 0,-181.8 6.91406,-368.9 24.582,-549.2 78.82,-802.81 300.285,-1549 1103.698,-2358.11 C 1947.29,214.621 2318.16,0 2318.16,0 l 14.51,0 c 0,0 370.81,214.621 1189.73,1039.21 803.6,808.97 1024.95,1555.23 1103.7,2358.11 17.78,180.3 24.65,367.47 24.65,549.2 0,627.96 -81.9,1192.35 -81.9,1192.35 0,0 -439.85,204.51 -885.07,323.4 -470.95,125.76 -872.53,207.02 -1352.58,207.02 l -10.14,0 z M 1175.4,1089.52 C 405.559,1864.59 220.746,2579.54 144.574,3348.3 l -0.07,0.86 -0.613,5.74 c -16.95,173.27 -23.539,353.14 -23.539,527.84 0,603.16 78.648,1145.34 78.648,1145.34 l 0.07,0.07 0.145,0.08 0.07,0.06 0.828,0.37 0.141,0.21 c 14.976,7.38 167.258,82.05 379.297,164.17 l 0.754,0.29 1.144,0.5 1.035,0.5 1.039,0.36 c 126.665,48.94 274.426,100.32 426.847,141.53 l 0.21,0.07 4.55,1.36 0.61,0.15 4.52,1.14 c 93.3,24.94 183.77,48.01 272.7,68.86 342.53,80.84 662.1,130 1028.28,130 l 9.75,0 c 419.78,0 777.08,-64.64 1179.09,-167.4 39.7,-10.1 79.69,-20.71 120.38,-31.53 l 2.72,-0.72 0.58,-0.14 c 31.24,-8.38 62.34,-17.2 93.15,-26.37 l 3.3,-1.01 0.29,-0.07 c 32.11,-9.52 63.92,-19.63 95.1,-29.67 l 0.28,-0.07 2.36,-0.78 0.51,-0.15 2.07,-0.86 0.72,-0.21 2.3,-0.72 0.43,-0.14 0.71,-0.22 3.58,-1.15 0.58,-0.35 c 173.41,-56.97 329.63,-120.68 440.99,-169.19 l 0.14,-0.07 c 102.04,-44.43 166.25,-76.32 171.13,-78.83 l 0.14,0 0.15,-0.07 0,-0.07 c 0,0 1.85,-12.76 5.01,-36.62 17.34,-131.42 73.67,-598.21 73.67,-1108.72 0.14,-174.78 -6.52,-354.57 -23.5,-527.85 l -0.58,-6.16 c -11.32,-113.36 -24.8,-225.58 -42.42,-336.94 l -0.43,-3.44 -0.15,-1.15 C 4363.4,2374.3 4137.25,1767.34 3504.7,1119.19 l -0.5,-0.51 -4.73,-4.8 -1.15,-1.15 -5.16,-5.3 -1.57,-1.57 -3.45,-3.59 -2.43,-2.22 -3,-3.23 -2.16,-2 -5.16,-5.23 c -10.6,-10.68 -21.21,-21.28 -31.6,-31.75 C 3066.36,679.699 2790.75,439.211 2608.45,292.879 2421.28,142.391 2332.38,91.082 2332.38,91.082 l -13.93,0 c -3.02,1.7188 -359.59,209.457 -1143.05,998.438"
             id="path30"
             style="fill:url(#linearGradient24);fill-opacity:1;fill-rule:nonzero;stroke:none"
             inkscape:connector-curvature="0" /></g></g><g
         id="g32"><g
           clip-path="url(#clipPath36)"
           id="g34"><path
             d="m 2330.91,5537.8 c 461.28,0 847.1,-78.11 1299.55,-198.93 427.67,-114.3 821.23,-310.72 821.23,-310.72 0,0 130.85,-901.98 55.18,-1673.25 C 4431.12,2583.69 4247.38,1866.8 3475.39,1089.52 2688.64,297.18 2332.38,91.082 2332.38,91.082 l -13.93,0 c 0,0 -356.26,206.227 -1143.05,998.438 C 403.375,1866.8 219.707,2583.69 143.891,3354.9 68.2578,4126.17 199,5028.15 199,5028.15 c 0,0 393.629,196.49 821.29,310.72 452.53,120.75 839.75,198.93 1300.95,198.93 l 9.67,0"
             id="path40"
             style="fill:#4085ce;fill-opacity:1;fill-rule:nonzero;stroke:none"
             inkscape:connector-curvature="0" /></g></g><g
         id="g42"><g
           clip-path="url(#clipPath46)"
           id="g44"><path
             d="m 2321.96,5537.29 c -461.28,0 -849.96,-78.61 -1302.49,-199.49 -25.908,-6.96 -49.982,-13.26 -75.677,-20.64 l -2.289,0 -6.879,-2.3 -4.586,-2.29 -4.59,0 -6.879,-2.29 -2.293,0 c -33.539,-10.04 -66.066,-21.29 -98.601,-32.11 l -2.293,0 -6.848,-2.29 -6.875,-2.29 c -27.519,-9.18 -56.008,-18.13 -82.555,-27.52 -25.043,-49.16 -53.671,-110.43 -84.843,-181.16 C 538.773,4848.36 426.699,4539.22 382.016,4202.7 l 0,-11.46 -2.289,-4.59 0,-13.76 -2.293,-4.58 0,-18.35 -2.293,-6.88 0,-9.17 c -5.739,-54.53 -11.86,-106.91 -16.055,-160.52 l 0,-22.93 -2.289,-11.46 c -6.235,-87.64 -9.176,-174.35 -11.469,-259.13 l 0,-9.17 c -1.183,-44.35 -2.223,-89.36 -2.293,-133 l 0,-29.81 c 0,-25.37 -0.285,-50.38 0,-75.68 l 0,-18.27 c 0.145,-7.23 -0.144,-15.69 0,-22.93 l 0,-2.29 2.293,-6.88 0,-25.23 2.293,-9.17 0,-9.17 2.297,-2.29 2.289,-9.18 0,-9.17 2.297,-2.29 0,-6.88 2.293,-4.59 0,-6.87 2.258,-2.3 0,-6.88 2.289,-2.29 0,-9.17 2.293,-2.23 0,-6.88 2.297,-2.29 0,-6.88 2.289,-6.88 0,-4.58 2.297,-4.59 0,-2.29 2.292,-4.59 0,-9.17 2.29,-4.59 0,-4.58 2.296,-4.59 0,-4.59 2.254,-4.58 2.297,-6.88 0,-9.17 2.289,-4.59 2.293,-6.88 0,-4.58 2.297,-4.59 0,-4.58 2.289,-6.88 0,-4.59 2.297,-4.59 2.293,-4.58 0,-9.18 2.289,-6.87 2.258,-4.59 0,-6.88 2.297,-2.29 2.293,-9.18 0,-2.29 2.289,-6.88 0,-2.29 2.297,-6.81 0,-2.3 2.293,-9.17 2.293,-2.29 0,-9.17 2.293,0 4.586,-20.64 0,-2.29 c 1.757,-6.74 5.05,-11.76 6.878,-18.35 l 2.293,-11.46 c 1.903,-6.88 2.579,-13.98 4.586,-20.64 4.91,-17.27 10.821,-35.55 16.051,-52.74 90.152,-302.2 215.121,-609.19 392.125,-896.61 l 0,1089.23 570.982,0 c 0,-654.11 0,-1159.45 0,-1770.28 64.78,-63.28 126.05,-120.33 183.45,-174.28 l 0,-2.3 6.85,-4.58 0,-2.29 6.87,-4.59 2.3,-2.3 4.58,-4.58 2.3,-2.29 4.58,-4.59 2.3,-2.3 2.29,-2.28 4.59,-2.3 0,-2.29 9.17,-6.88 2.29,-2.29 4.59,-4.59 4.58,-4.59 2.3,-2.29 13.76,-11.46 0,-2.3 4.58,-2.29 2.3,-2.23 18.34,-18.34 2.29,0 4.59,-4.59 0,-2.29 16.05,-11.47 2.26,-4.58 2.29,-2.29 4.59,-2.3 2.29,-2.29 11.47,-11.47 2.29,-2.29 2.29,-2.29 2.3,-2.29 4.58,-2.3 0,-2.29 11.46,-9.17 4.59,-2.3 2.29,-2.29 2.3,-4.58 2.29,0 4.59,-4.59 2.29,-2.3 9.17,-9.17 2.29,0 c 94.63,-84.05 174.89,-153.71 243.08,-208.671 0,778.161 0,1556.311 0,2334.391 l 286.64,0 0,2410.06 -2.15,-0.29"
             id="path56"
             style="fill:url(#linearGradient50);fill-opacity:1;fill-rule:nonzero;stroke:none"
             inkscape:connector-curvature="0" /></g></g><g
         id="g58"><g
           clip-path="url(#clipPath62)"
           id="g60"><path
             d="m 2324.25,5537.29 0,-2410.06 284.34,0 c 0,-758.23 0,-1516.53 0,-2274.761 47.45,44.57 100.9,96.09 162.82,153.631 122.97,114.51 275.74,254.61 463.21,426.52 0,564.9 0,1129.72 0,1694.61 l 570.98,0 0,-1089.22 c 56.9,77.89 109.5,157.08 155.93,236.19 l 9.17,16.04 2.3,2.3 2.29,6.88 2.3,2.3 2.28,6.87 4.59,4.59 0,2.29 2.3,4.59 2.29,2.29 9.17,18.34 c 144.25,262.49 235.4,531.72 288.94,802.59 l 2.28,4.59 0,6.88 2.3,6.81 0,9.17 2.29,4.59 0,6.88 c 6.17,106.2 11.18,215.98 11.47,327.91 l 0,77.97 c -0.15,11.46 -2.15,22.79 -2.3,34.39 l 0,64.21 c -3.72,134.01 -13.46,271.31 -27.52,412.76 l 0,4.59 -2.28,13.76 0,13.76 -2.3,11.46 c -1.72,15.69 -2.57,30.39 -4.59,45.86 l 0,2.29 -2.29,4.59 c -3.15,24.58 -5.3,49.16 -9.17,73.38 -13.47,83.84 -30.67,166.61 -50.45,245.37 l -2.3,6.87 0,2.29 -2.28,4.59 0,2.29 -2.3,6.88 0,4.52 -4.59,13.76 c -71.94,269.44 -172.34,500.9 -245.36,649.09 -7.45,15.19 -13.82,27.81 -20.63,41.28 l -11.47,4.59 -2.29,0 -6.89,2.29 -4.58,2.29 -6.88,2.3 c -84.41,29.01 -172.7,56.03 -263.7,80.26 -452.54,120.74 -839,199.49 -1300.2,199.49 l -6.88,0"
             id="path72"
             style="fill:url(#linearGradient66);fill-opacity:1;fill-rule:nonzero;stroke:none"
             inkscape:connector-curvature="0" /></g></g><g
         id="g74"><g
           clip-path="url(#clipPath78)"
           id="g76"><g
             clip-path="url(#clipPath84)"
             id="g82"><path
               d="m 2316,91 0,1 -1,0 0,1 -2,0 0,1 -1,0 0,1 -2,0 0,1 -2,0 0,1 -1,0 0,1 -2,0 0,1 -2,0 0,1 -1,0 0,1 -2,0 0,1 -1,0 0,1 -2,0 0,1 -1,0 0,1 -2,0 0,1 -1,0 0,1 -2,0 0,1 -2,0 0,1 -1,0 0,1 -2,0 0,1 -1,0 0,1 -2,0 0,1 -1,0 0,1 -2,0 0,1 -1,0 0,1 -2,0 0,1 -1,0 0,1 -2,0 0,1 -1,0 0,1 -2,0 0,1 -1,0 0,1 -1,0 0,1 -2,0 0,1 -1,0 0,1 -2,0 0,1 -1,0 0,1 -2,0 0,1 -1,0 0,1 -2,0 0,1 -1,0 0,1 -2,0 0,1 -1,0 0,1 -2,0 0,1 -1,0 0,1 -1,0 0,1 -2,0 0,1 -1,0 0,1 -2,0 0,1 -1,0 0,1 -2,0 0,1 -1,0 0,1 -1,0 0,1 -2,0 0,1 -1,0 0,1 -2,0 0,1 -1,0 0,1 -2,0 0,1 -1,0 0,1 -1,0 0,1 -2,0 0,1 -1,0 0,1 -2,0 0,1 -1,0 0,1 -1,0 0,1 -2,0 0,1 -1,0 0,1 -2,0 0,1 -1,0 0,1 -1,0 0,1 -2,0 0,1 -1,0 0,1 -1,0 0,1 -2,0 0,1 -1,0 0,1 -2,0 0,1 -1,0 0,1 -1,0 0,1 -2,0 0,1 -1,0 0,1 -2,0 0,1 -1,0 0,1 -1,0 0,1 -2,0 0,1 -1,0 0,1 -1,0 0,1 -2,0 0,1 -1,0 0,1 -1,0 0,1 -2,0 0,1 -1,0 0,1 -1,0 0,1 -2,0 0,1 -1,0 0,1 -2,0 0,1 -1,0 0,1 -1,0 0,1 -2,0 0,1 -1,0 0,1 -1,0 0,1 -2,0 0,1 -1,0 0,1 -1,0 0,1 -2,0 0,1 -1,0 0,1 -1,0 0,1 -2,0 0,1 -1,0 0,1 -1,0 0,1 -2,0 0,1 -1,0 0,1 -1,0 0,1 -2,0 0,1 -1,0 0,1 -1,0 0,1 -2,0 0,1 -1,0 0,1 -1,0 0,1 -2,0 0,1 -1,0 0,1 -1,0 0,1 -2,0 0,1 -1,0 0,1 -1,0 0,1 -2,0 0,1 -1,0 0,1 -1,0 0,1 -1,0 0,1 -2,0 0,1 -1,0 0,1 -1,0 0,1 -2,0 0,1 -1,0 0,1 -1,0 0,1 -2,0 0,1 -1,0 0,1 -1,0 0,1 -1,0 0,1 -2,0 0,1 -1,0 0,1 -1,0 0,1 -2,0 0,1 -1,0 0,1 -1,0 0,1 -2,0 0,1 -1,0 0,1 -1,0 0,1 -1,0 0,1 -2,0 0,1 -1,0 0,1 -1,0 0,1 -2,0 0,1 -1,0 0,1 -1,0 0,1 -1,0 0,1 -2,0 0,1 -1,0 0,1 -1,0 0,1 -2,0 0,1 -1,0 0,1 -1,0 0,1 -1,0 0,1 -2,0 0,1 -1,0 0,1 -1,0 0,1 -2,0 0,1 -1,0 0,1 -1,0 0,1 -1,0 0,1 -2,0 0,1 -1,0 0,1 -1,0 0,1 -1,0 0,1 -2,0 0,1 -1,0 0,1 -1,0 0,1 -2,0 0,1 -1,0 0,1 -1,0 0,1 -1,0 0,1 -2,0 0,1 -1,0 0,1 -1,0 0,1 -1,0 0,1 -2,0 0,1 -1,0 0,1 -1,0 0,1 -1,0 0,1 -2,0 0,1 -1,0 0,1 -1,0 0,1 -1,0 0,1 -2,0 0,1 -1,0 0,1 -1,0 0,1 -1,0 0,1 -2,0 0,1 -1,0 0,1 -1,0 0,1 -1,0 0,1 -2,0 0,1 -1,0 0,1 -1,0 0,1 -1,0 0,1 -2,0 0,1 -1,0 0,1 -1,0 0,2831 572,0 0,-2835 -1,0 0,-1 -1,0 0,-1 -1,0 0,-1 -2,0 0,-1 -1,0 0,-1 -1,0 0,-1 -2,0 0,-1 -1,0 0,-1 -1,0 0,-1 -1,0 0,-1 -2,0 0,-1 -1,0 0,-1 -1,0 0,-1 -1,0 0,-1 -2,0 0,-1 -1,0 0,-1 -1,0 0,-1 -1,0 0,-1 -2,0 0,-1 -1,0 0,-1 -1,0 0,-1 -1,0 0,-1 -2,0 0,-1 -1,0 0,-1 -1,0 0,-1 -1,0 0,-1 -2,0 0,-1 -1,0 0,-1 -1,0 0,-1 -1,0 0,-1 -2,0 0,-1 -1,0 0,-1 -1,0 0,-1 -2,0 0,-1 -1,0 0,-1 -1,0 0,-1 -1,0 0,-1 -2,0 0,-1 -1,0 0,-1 -1,0 0,-1 -1,0 0,-1 -2,0 0,-1 -1,0 0,-1 -1,0 0,-1 -2,0 0,-1 -1,0 0,-1 -1,0 0,-1 -1,0 0,-1 -2,0 0,-1 -1,0 0,-1 -1,0 0,-1 -2,0 0,-1 -1,0 0,-1 -1,0 0,-1 -1,0 0,-1 -2,0 0,-1 -1,0 0,-1 -1,0 0,-1 -2,0 0,-1 -1,0 0,-1 -1,0 0,-1 -2,0 0,-1 -1,0 0,-1 -1,0 0,-1 -1,0 0,-1 -2,0 0,-1 -1,0 0,-1 -1,0 0,-1 -2,0 0,-1 -1,0 0,-1 -1,0 0,-1 -2,0 0,-1 -1,0 0,-1 -1,0 0,-1 -1,0 0,-1 -2,0 0,-1 -1,0 0,-1 -1,0 0,-1 -2,0 0,-1 -1,0 0,-1 -1,0 0,-1 -2,0 0,-1 -1,0 0,-1 -1,0 0,-1 -2,0 0,-1 -1,0 0,-1 -1,0 0,-1 -2,0 0,-1 -1,0 0,-1 -1,0 0,-1 -2,0 0,-1 -1,0 0,-1 -1,0 0,-1 -2,0 0,-1 -1,0 0,-1 -1,0 0,-1 -2,0 0,-1 -1,0 0,-1 -1,0 0,-1 -2,0 0,-1 -1,0 0,-1 -1,0 0,-1 -2,0 0,-1 -1,0 0,-1 -1,0 0,-1 -2,0 0,-1 -1,0 0,-1 -1,0 0,-1 -2,0 0,-1 -1,0 0,-1 -1,0 0,-1 -2,0 0,-1 -1,0 0,-1 -1,0 0,-1 -2,0 0,-1 -1,0 0,-1 -2,0 0,-1 -1,0 0,-1 -1,0 0,-1 -2,0 0,-1 -1,0 0,-1 -1,0 0,-1 -2,0 0,-1 -1,0 0,-1 -2,0 0,-1 -1,0 0,-1 -1,0 0,-1 -2,0 0,-1 -1,0 0,-1 -1,0 0,-1 -2,0 0,-1 -1,0 0,-1 -2,0 0,-1 -1,0 0,-1 -1,0 0,-1 -2,0 0,-1 -1,0 0,-1 -2,0 0,-1 -1,0 0,-1 -1,0 0,-1 -2,0 0,-1 -1,0 0,-1 -2,0 0,-1 -1,0 0,-1 -1,0 0,-1 -2,0 0,-1 -1,0 0,-1 -2,0 0,-1 -1,0 0,-1 -2,0 0,-1 -1,0 0,-1 -1,0 0,-1 -2,0 0,-1 -1,0 0,-1 -2,0 0,-1 -1,0 0,-1 -2,0 0,-1 -1,0 0,-1 -2,0 0,-1 -1,0 0,-1 -1,0 0,-1 -2,0 0,-1 -1,0 0,-1 -2,0 0,-1 -1,0 0,-1 -2,0 0,-1 -1,0 0,-1 -2,0 0,-1 -1,0 0,-1 -2,0 0,-1 -1,0 0,-1 -2,0 0,-1 -1,0 0,-1 -2,0 0,-1 -1,0 0,-1 -2,0 0,-1 -1,0 0,-1 -1,0 0,-1 -2,0 0,-1 -2,0 0,-1 -1,0 0,-1 -2,0 0,-1 -1,0 0,-1 -2,0 0,-1 -1,0 0,-1 -2,0 0,-1 -1,0 0,-1 -2,0 0,-1 -1,0 0,-1 -2,0 0,-1 -1,0 0,-1 -2,0 0,-1 -2,0 0,-1 -1,0 0,-1 -2,0 0,-1 -1,0 0,-1 -2,0 0,-1 -2,0 0,-1 -1,0 0,-1 -2,0 0,-1 -2,0 0,-1 -18,0 z m 919,761 0,2275 572,0 0,-1664 -1,0 0,-2 -1,0 0,-1 -1,0 0,-1 -1,0 0,-1 -1,0 0,-2 -1,0 0,-1 -1,0 0,-1 -1,0 0,-1 -1,0 0,-2 -1,0 0,-1 -1,0 0,-1 -1,0 0,-1 -1,0 0,-2 -1,0 0,-1 -1,0 0,-1 -1,0 0,-1 -1,0 0,-2 -1,0 0,-1 -1,0 0,-1 -1,0 0,-1 -1,0 0,-2 -1,0 0,-1 -1,0 0,-1 -1,0 0,-1 -1,0 0,-2 -1,0 0,-1 -1,0 0,-1 -1,0 0,-1 -1,0 0,-2 -1,0 0,-1 -1,0 0,-1 -1,0 0,-1 -1,0 0,-1 -1,0 0,-2 -1,0 0,-1 -1,0 0,-1 -1,0 0,-1 -1,0 0,-2 -1,0 0,-1 -1,0 0,-1 -1,0 0,-1 -1,0 0,-2 -1,0 0,-1 -1,0 0,-1 -1,0 0,-1 -1,0 0,-2 -1,0 0,-1 -1,0 0,-1 -1,0 0,-1 -1,0 0,-2 -1,0 0,-1 -1,0 0,-1 -1,0 0,-1 -1,0 0,-2 -1,0 0,-1 -1,0 0,-1 -1,0 0,-1 -1,0 0,-2 -1,0 0,-1 -1,0 0,-1 -1,0 0,-1 -1,0 0,-2 -1,0 0,-1 -1,0 0,-1 -1,0 0,-1 -1,0 0,-1 -1,0 0,-2 -1,0 0,-1 -1,0 0,-1 -1,0 0,-1 -1,0 0,-2 -1,0 0,-1 -1,0 0,-1 -1,0 0,-1 -1,0 0,-1 -1,0 0,-1 -1,0 0,-2 -1,0 0,-1 -1,0 0,-1 -1,0 0,-1 -1,0 0,-1 -1,0 0,-1 -1,0 0,-2 -1,0 0,-1 -1,0 0,-1 -1,0 0,-1 -1,0 0,-1 -1,0 0,-2 -1,0 0,-1 -1,0 0,-1 -1,0 0,-1 -1,0 0,-1 -1,0 0,-1 -1,0 0,-2 -1,0 0,-1 -1,0 0,-1 -1,0 0,-1 -1,0 0,-1 -1,0 0,-1 -1,0 0,-2 -1,0 0,-1 -1,0 0,-1 -1,0 0,-1 -1,0 0,-1 -1,0 0,-1 -1,0 0,-2 -1,0 0,-1 -1,0 0,-1 -1,0 0,-1 -1,0 0,-1 -1,0 0,-2 -1,0 0,-1 -1,0 0,-1 -1,0 0,-1 -1,0 0,-1 -1,0 0,-1 -1,0 0,-2 -1,0 0,-1 -1,0 0,-1 -1,0 0,-1 -1,0 0,-1 -1,0 0,-1 -1,0 0,-2 -1,0 0,-1 -1,0 0,-1 -1,0 0,-1 -1,0 0,-1 -1,0 0,-1 -1,0 0,-2 -1,0 0,-1 -1,0 0,-1 -1,0 0,-1 -1,0 0,-1 -1,0 0,-1 -1,0 0,-2 -1,0 0,-1 -1,0 0,-1 -1,0 0,-1 -1,0 0,-1 -1,0 0,-2 -1,0 0,-1 -1,0 0,-1 -1,0 0,-1 -1,0 0,-1 -1,0 0,-1 -1,0 0,-1 -1,0 0,-2 -1,0 0,-1 -1,0 0,-1 -1,0 0,-1 -1,0 0,-1 -1,0 0,-1 -1,0 0,-1 -1,0 0,-1 -1,0 0,-1 -1,0 0,-1 -1,0 0,-2 -1,0 0,-1 -1,0 0,-1 -1,0 0,-1 -1,0 0,-1 -1,0 0,-1 -1,0 0,-1 -1,0 0,-1 -1,0 0,-1 -1,0 0,-2 -1,0 0,-1 -1,0 0,-1 -1,0 0,-1 -1,0 0,-1 -1,0 0,-1 -1,0 0,-1 -1,0 0,-1 -1,0 0,-1 -1,0 0,-2 -1,0 0,-1 -1,0 0,-1 -1,0 0,-1 -1,0 0,-1 -1,0 0,-1 -1,0 0,-1 -1,0 0,-1 -1,0 0,-1 -1,0 0,-2 -1,0 0,-1 -1,0 0,-1 -1,0 0,-1 -1,0 0,-1 -1,0 0,-1 -1,0 0,-1 -1,0 0,-1 -1,0 0,-1 -1,0 0,-2 -1,0 0,-1 -1,0 0,-1 -1,0 0,-1 -1,0 0,-1 -1,0 0,-1 -1,0 0,-1 -1,0 0,-1 -1,0 0,-1 -1,0 0,-1 -1,0 0,-2 -1,0 0,-1 -1,0 0,-1 -1,0 0,-1 -1,0 0,-1 -1,0 0,-1 -1,0 0,-1 -1,0 0,-1 -1,0 0,-1 -1,0 0,-2 -1,0 0,-1 -1,0 0,-1 -1,0 0,-1 -1,0 0,-1 -1,0 0,-1 -1,0 0,-1 -1,0 0,-1 -1,0 0,-1 -1,0 0,-2 -1,0 0,-1 -1,0 0,-1 -1,0 0,-1 -1,0 0,-1 -1,0 0,-1 -1,0 0,-1 -1,0 0,-1 -1,0 0,-1 -1,0 0,-1 -1,0 0,-1 -1,0 0,-1 -1,0 0,-1 -1,0 0,-1 -1,0 0,-1 -1,0 0,-1 -1,0 0,-1 -1,0 0,-1 -1,0 0,-2 -1,0 0,-1 -1,0 0,-1 -1,0 0,-1 -1,0 0,-1 -1,0 0,-1 -1,0 0,-1 -1,0 0,-1 -1,0 0,-1 -1,0 0,-1 -1,0 0,-1 -1,0 0,-1 -1,0 0,-1 -1,0 0,-1 -1,0 0,-1 -1,0 0,-1 -1,0 0,-1 -1,0 0,-1 -1,0 0,-1 -1,0 0,-1 -1,0 0,-2 -1,0 0,-1 -1,0 0,-1 -1,0 0,-1 -1,0 0,-1 -1,0 0,-1 -1,0 0,-1 -1,0 0,-1 -1,0 0,-1 -1,0 0,-1 -1,0 0,-1 -1,0 0,-1 -1,0 0,-1 -1,0 0,-1 -1,0 0,-1 -1,0 0,-1 -1,0 0,-1 -1,0 0,-1 -1,0 0,-1 -1,0 0,-1 -1,0 0,-2 -1,0 0,-1 -1,0 0,-1 -1,0 0,-1 -1,0 0,-1 -1,0 0,-1 -1,0 0,-1 -1,0 0,-1 -1,0 0,-1 -1,0 0,-1 -1,0 0,-1 -1,0 0,-1 -1,0 0,-1 -1,0 0,-1 -1,0 0,-1 -1,0 0,-1 -1,0 0,-1 -1,0 0,-1 -1,0 0,-1 -1,0 0,-1 -1,0 0,-2 -1,0 0,-1 -1,0 0,-1 -1,0 0,-1 -1,0 0,-1 -1,0 0,-1 -1,0 0,-1 -1,0 0,-1 -1,0 0,-1 -1,0 0,-1 -1,0 0,-1 -1,0 0,-1 -1,0 0,-1 -1,0 0,-1 -1,0 0,-1 -1,0 0,-1 -1,0 0,-1 -1,0 0,-1 -1,0 0,-1 -1,0 0,-1 -1,0 0,-1 -1,0 0,-1 -1,0 0,-1 -1,0 0,-1 -1,0 0,-1 -1,0 0,-1 -1,0 0,-1 -1,0 0,-1 -1,0 0,-1 -1,0 0,-1 -1,0 0,-1 -1,0 0,-1 -1,0 0,-1 -1,0 0,-1 -1,0 0,-1 -1,0 0,-1 -1,0 0,-1 -1,0 0,-1 -1,0 0,-1 -1,0 0,-1 -1,0 0,-1 -1,0 0,-1 -1,0 0,-1 -1,0 0,-1 -1,0 0,-1 -1,0 0,-1 -1,0 0,-1 -1,0 0,-1 -1,0 0,-1 -1,0 0,-1 -1,0 0,-1 -1,0 0,-1 -1,0 0,-1 -1,0 0,-1 -1,0 0,-1 -1,0 0,-1 -1,0 0,-1 -1,0 0,-1 -1,0 0,-1 -1,0 0,-1 -1,0 0,-2 -1,0 0,-1 -1,0 0,-1 -1,0 0,-1 -1,0 0,-1 -1,0 0,-1 -1,0 0,-1 -1,0 0,-1 -1,0 0,-1 -1,0 0,-1 -2,0 0,-1 -1,0 0,-1 -1,0 0,-1 -1,0 0,-1 -1,0 0,-1 -1,0 0,-1 -1,0 0,-1 -1,0 0,-1 -1,0 0,-1 -1,0 0,-1 -1,0 0,-1 -1,0 0,-1 -1,0 0,-1 -1,0 0,-1 -1,0 0,-1 -1,0 0,-1 -1,0 0,-1 -1,0 0,-1 -1,0 0,-1 -1,0 0,-1 -1,0 0,-1 -1,0 0,-1 -1,0 0,-1 -1,0 0,-1 -1,0 0,-1 -1,0 0,-1 -1,0 0,-1 -1,0 0,-1 -1,0 0,-1 -1,0 0,-1 -1,0 0,-1 -1,0 0,-1 -1,0 0,-1 -1,0 0,-1 -1,0 0,-1 -1,0 0,-1 -1,0 0,-1 -1,0 0,-1 -1,0 0,-1 -1,0 0,-1 -1,0 0,-1 -1,0 0,-1 -1,0 0,-1 -1,0 0,-1 -1,0 0,-1 -1,0 0,-1 -1,0 0,-1 -1,0 0,-1 -1,0 0,-1 -1,0 0,-1 -1,0 0,-1 -1,0 0,-1 -1,0 0,-1 -1,0 0,-1 -1,0 0,-1 -1,0 0,-1 -1,0 0,-1 -1,0 0,-1 -1,0 0,-1 -1,0 0,-1 -1,0 0,-1 -1,0 0,-1 -1,0 0,-1 -1,0 0,-1 -1,0 0,-1 -1,0 0,-1 -1,0 0,-1 -1,0 0,-1 -1,0 0,-1 -1,0 0,-1 -1,0 0,-1 -1,0 0,-1 -1,0 0,-1 -1,0 0,-1 -1,0 0,-1 -1,0 0,-1 -1,0 0,-1 -1,0 0,-1 -1,0 0,-1 -1,0 0,-1 -1,0 0,-1 -1,0 0,-1 -1,0 0,-1 -1,0 0,-1 -1,0 0,-1 -1,0 0,-1 -1,0 0,-1 -1,0 0,-1 -1,0 0,-1 -1,0 0,-1 -1,0 0,-1 -1,0 0,-1 -1,0 0,-1 -1,0 0,-1 -1,0 0,-1 -1,0 0,-1 -1,0 0,-1 -1,0 0,-1 -1,0 0,-1 -1,0 0,-1 -1,0 0,-1 -1,0 0,-1 -1,0 0,-1 -1,0 0,-1 -1,0 0,-1 -1,0 0,-1 -1,0 0,-1 -1,0 0,-1 -1,0 0,-1 -1,0 0,-1 -1,0 0,-1 -2,0 0,-1 -1,0 0,-1 -1,0 0,-1 -1,0 0,-1 -1,0 0,-1 -1,0 0,-1 -1,0 0,-1 -1,0 0,-1 -1,0 0,-1 -1,0 0,-1 -1,0 0,-1 -1,0 0,-1 -1,0 0,-1 -1,0 0,-1 -1,0 0,-1 -1,0 0,-1 -1,0 0,-1 -1,0 0,-1 -1,0 0,-1 -1,0 0,-1 -1,0 0,-1 -1,0 0,-1 -1,0 0,-1 -1,0 0,-1 -1,0 0,-1 -1,0 0,-1 -1,0 0,-1 -1,0 0,-1 -1,0 0,-1 -1,0 0,-1 -1,0 0,-1 -1,0 0,-1 -1,0 0,-1 -1,0 0,-1 -1,0 0,-1 -1,0 0,-1 -1,0 0,-1 -1,0 0,-1 -1,0 0,-1 -1,0 0,-1 -1,0 0,-1 -1,0 0,-1 -2,0 0,-1 -1,0 0,-1 -1,0 0,-1 -1,0 0,-1 -1,0 0,-1 -1,0 0,-1 -1,0 0,-1 -1,0 0,-1 -1,0 0,-1 -1,0 0,-1 -1,0 0,-1 -1,0 0,-1 -1,0 0,-1 -1,0 0,-1 -1,0 0,-1 -1,0 0,-1 -1,0 0,-1 -1,0 0,-1 -1,0 0,-1 -1,0 0,-1 -1,0 0,-1 -1,0 0,-1 -1,0 0,-1 -1,0 0,-1 -1,0 0,-1 -1,0 0,-1 -1,0 0,-1 -1,0 0,-1 -1,0 0,-1 -2,0 0,-1 -1,0 0,-1 -1,0 0,-1 -1,0 0,-1 -1,0 0,-1 -1,0 0,-1 -1,0 0,-1 -1,0 0,-1 -1,0 0,-1 -1,0 0,-1 -1,0 0,-1 -1,0 0,-1 -1,0 0,-1 -1,0 0,-1 -1,0 0,-1 -1,0 0,-1 -1,0 0,-1 -1,0 z m -1822,2 0,1 -1,0 0,1 -1,0 0,1 -1,0 0,1 -1,0 0,1 -1,0 0,1 -1,0 0,1 -2,0 0,1 -1,0 0,1 -1,0 0,1 -1,0 0,1 -1,0 0,1 -1,0 0,1 -1,0 0,1 -1,0 0,1 -1,0 0,1 -1,0 0,1 -1,0 0,1 -1,0 0,1 -1,0 0,1 -1,0 0,1 -1,0 0,1 -1,0 0,1 -1,0 0,1 -1,0 0,1 -1,0 0,1 -1,0 0,1 -1,0 0,1 -1,0 0,1 -1,0 0,1 -1,0 0,1 -1,0 0,1 -1,0 0,1 -1,0 0,1 -1,0 0,1 -1,0 0,1 -1,0 0,1 -1,0 0,1 -1,0 0,1 -1,0 0,1 -2,0 0,1 -1,0 0,1 -1,0 0,1 -1,0 0,1 -1,0 0,1 -1,0 0,1 -1,0 0,1 -1,0 0,1 -1,0 0,1 -1,0 0,1 -1,0 0,1 -1,0 0,1 -1,0 0,1 -1,0 0,1 -1,0 0,1 -1,0 0,1 -1,0 0,1 -1,0 0,1 -1,0 0,1 -1,0 0,1 -1,0 0,1 -1,0 0,1 -1,0 0,1 -1,0 0,1 -1,0 0,1 -1,0 0,1 -1,0 0,1 -1,0 0,1 -1,0 0,1 -1,0 0,1 -1,0 0,1 -1,0 0,1 -1,0 0,1 -1,0 0,1 -1,0 0,1 -1,0 0,1 -1,0 0,1 -1,0 0,1 -1,0 0,1 -1,0 0,1 -1,0 0,1 -1,0 0,1 -2,0 0,1 -1,0 0,1 -1,0 0,1 -1,0 0,1 -1,0 0,1 -1,0 0,1 -1,0 0,1 -1,0 0,1 -1,0 0,1 -1,0 0,1 -1,0 0,1 -1,0 0,1 -1,0 0,1 -1,0 0,1 -1,0 0,1 -1,0 0,1 -1,0 0,1 -1,0 0,1 -1,0 0,1 -1,0 0,1 -1,0 0,1 -1,0 0,1 -1,0 0,1 -1,0 0,1 -1,0 0,1 -1,0 0,1 -1,0 0,1 -1,0 0,1 -1,0 0,1 -1,0 0,1 -1,0 0,1 -1,0 0,1 -1,0 0,1 -1,0 0,1 -1,0 0,1 -1,0 0,1 -1,0 0,1 -1,0 0,1 -1,0 0,1 -1,0 0,1 -1,0 0,1 -1,0 0,1 -1,0 0,1 -1,0 0,1 -1,0 0,1 -1,0 0,1 -1,0 0,1 -1,0 0,1 -1,0 0,1 -1,0 0,1 -1,0 0,1 -1,0 0,1 -1,0 0,1 -1,0 0,1 -1,0 0,1 -1,0 0,1 -1,0 0,1 -1,0 0,1 -1,0 0,1 -1,0 0,1 -1,0 0,1 -1,0 0,1 -1,0 0,1 -1,0 0,1 -1,0 0,1 -1,0 0,1 -1,0 0,1 -1,0 0,1 -1,0 0,1 -1,0 0,1 -1,0 0,1 -2,0 0,1 -1,0 0,1 -1,0 0,1 -1,0 0,1 -1,0 0,1 -1,0 0,1 -1,0 0,1 -1,0 0,1 -1,0 0,1 -1,0 0,1 -1,0 0,1 -1,0 0,1 -1,0 0,1 -1,0 0,1 -1,0 0,1 -1,0 0,1 -1,0 0,1 -1,0 0,1 -1,0 0,1 -1,0 0,1 -1,0 0,1 -1,0 0,1 -1,0 0,1 -1,0 0,1 -1,0 0,1 -1,0 0,1 -1,0 0,1 -1,0 0,1 -1,0 0,1 -1,0 0,1 -1,0 0,1 -1,0 0,1 -1,0 0,1 -1,0 0,1 -1,0 0,1 -1,0 0,1 -1,0 0,1 -1,0 0,1 -1,0 0,1 -1,0 0,1 -1,0 0,1 -1,0 0,1 -1,0 0,1 -1,0 0,1 -1,0 0,1 -1,0 0,1 -1,0 0,1 -1,0 0,1 -1,0 0,1 -1,0 0,1 -1,0 0,1 -1,0 0,1 -1,0 0,1 -1,0 0,1 -1,0 0,1 -1,0 0,1 -1,0 0,1 -1,0 0,1 -1,0 0,1 -1,0 0,1 -1,0 0,1 -1,0 0,1 -1,0 0,1 -1,0 0,1 -1,0 0,1 -1,0 0,1 -1,0 0,1 -1,0 0,1 -1,0 0,1 -1,0 0,1 -1,0 0,1 -1,0 0,1 -1,0 0,1 -1,0 0,1 -1,0 0,1 -1,0 0,1 -1,0 0,1 -1,0 0,1 -1,0 0,1 -1,0 0,1 -1,0 0,1 -1,0 0,1 -1,0 0,1 -1,0 0,2 -1,0 0,1 -1,0 0,1 -1,0 0,1 -1,0 0,1 -1,0 0,1 -1,0 0,1 -1,0 0,1 -1,0 0,1 -1,0 0,1 -1,0 0,1 -1,0 0,1 -1,0 0,1 -1,0 0,1 -1,0 0,1 -1,0 0,1 -1,0 0,1 -1,0 0,1 -1,0 0,1 -1,0 0,1 -1,0 0,1 -1,0 0,1 -1,0 0,1 -1,0 0,1 -1,0 0,1 -1,0 0,1 -1,0 0,1 -1,0 0,1 -1,0 0,1 -1,0 0,2 -1,0 0,1 -1,0 0,1 -1,0 0,1 -1,0 0,1 -1,0 0,1 -1,0 0,1 -1,0 0,1 -1,0 0,1 -1,0 0,1 -1,0 0,1 -1,0 0,1 -1,0 0,1 -1,0 0,1 -1,0 0,1 -1,0 0,1 -1,0 0,1 -1,0 0,1 -1,0 0,1 -1,0 0,1 -1,0 0,1 -1,0 0,1 -1,0 0,1 -1,0 0,1 -1,0 0,1 -1,0 0,1 -1,0 0,1 -1,0 0,1 -1,0 0,2 -1,0 0,1 -1,0 0,1 -1,0 0,1 -1,0 0,1 -1,0 0,1 -1,0 0,1 -1,0 0,1 -1,0 0,1 -1,0 0,1 -1,0 0,1 -1,0 0,1 -1,0 0,1 -1,0 0,1 -1,0 0,1 -1,0 0,1 -1,0 0,1 -1,0 0,1 -1,0 0,1 -1,0 0,1 -1,0 0,1 -1,0 0,1 -1,0 0,1 -1,0 0,1 -1,0 0,1 -1,0 0,1 -1,0 0,1 -1,0 0,1 -1,0 0,2 -1,0 0,1 -1,0 0,1 -1,0 0,1 -1,0 0,1 -1,0 0,1 -1,0 0,1 -1,0 0,1 -1,0 0,1 -1,0 0,1 -1,0 0,1 -1,0 0,1 -1,0 0,1 -1,0 0,2 -1,0 0,1 -1,0 0,1 -1,0 0,1 -1,0 0,1 -1,0 0,1 -1,0 0,1 -1,0 0,1 -1,0 0,1 -1,0 0,1 -1,0 0,2 -1,0 0,1 -1,0 0,1 -1,0 0,1 -1,0 0,1 -1,0 0,1 -1,0 0,1 -1,0 0,1 -1,0 0,1 -1,0 0,1 -1,0 0,2 -1,0 0,1 -1,0 0,1 -1,0 0,1 -1,0 0,1 -1,0 0,1 -1,0 0,1 -1,0 0,1 -1,0 0,1 -1,0 0,1 -1,0 0,1 -1,0 0,2 -1,0 0,1 -1,0 0,1 -1,0 0,1 -1,0 0,1 -1,0 0,1 -1,0 0,1 -1,0 0,1 -1,0 0,1 -1,0 0,1 -1,0 0,2 -1,0 0,1 -1,0 0,1 -1,0 0,1 -1,0 0,1 -1,0 0,1 -1,0 0,1 -1,0 0,1 -1,0 0,1 -1,0 0,1 -1,0 0,2 -1,0 0,1 -1,0 0,1 -1,0 0,1 -1,0 0,1 -1,0 0,1 -1,0 0,1 -1,0 0,1 -1,0 0,1 -1,0 0,1 -1,0 0,2 -1,0 0,1 -1,0 0,1 -1,0 0,1 -1,0 0,1 -1,0 0,1 -1,0 0,1 -1,0 0,1 -1,0 0,1 -1,0 0,1 -1,0 0,2 -1,0 0,1 -1,0 0,1 -1,0 0,1 -1,0 0,1 -1,0 0,1 -1,0 0,1 -1,0 0,1 -1,0 0,1 -1,0 0,2 -1,0 0,1 -1,0 0,1 -1,0 0,1 -1,0 0,1 -1,0 0,1 -1,0 0,2 -1,0 0,1 -1,0 0,1 -1,0 0,1 -1,0 0,1 -1,0 0,1 -1,0 0,2 -1,0 0,1 -1,0 0,1 -1,0 0,1 -1,0 0,1 -1,0 0,1 -1,0 0,2 -1,0 0,1 -1,0 0,1 -1,0 0,1 -1,0 0,1 -1,0 0,2 -1,0 0,1 -1,0 0,1 -1,0 0,1 -1,0 0,1 -1,0 0,1 -1,0 0,2 -1,0 0,1 -1,0 0,1 -1,0 0,1 -1,0 0,1 -1,0 0,1 -1,0 0,2 -1,0 0,1 -1,0 0,1 -1,0 0,1 -1,0 0,1 -1,0 0,1 -1,0 0,2 -1,0 0,1 -1,0 0,1 -1,0 0,1 -1,0 0,1 -1,0 0,1 -1,0 0,2 -1,0 0,1 -1,0 0,1 -1,0 0,1 -1,0 0,1 -1,0 0,1 -1,0 0,2 -1,0 0,1 -1,0 0,1 -1,0 0,1 -1,0 0,1 -1,0 0,1 -1,0 0,2 -1,0 0,1 -1,0 0,1 -1,0 0,1 -1,0 0,1 -1,0 0,1 -1,0 0,2 -1,0 0,1 -1,0 0,1 -1,0 0,1 -1,0 0,1 -1,0 0,1 -1,0 0,2 -1,0 0,1 -1,0 0,1 -1,0 0,1 -1,0 0,1 -1,0 0,1 -1,0 0,2 -1,0 0,1 -1,0 0,1 -1,0 0,1 -1,0 0,2 -1,0 0,1 -1,0 0,1 -1,0 0,1 -1,0 0,1 -1,0 0,2 -1,0 0,1 -1,0 0,1 -1,0 0,1 -1,0 0,2 -1,0 0,1 -1,0 0,1 -1,0 0,1 -1,0 0,2 -1,0 0,1 -1,0 0,1 -1,0 0,1 -1,0 0,2 -1,0 0,1 -1,0 0,1 -1,0 0,1 -1,0 0,2 -1,0 0,1 -1,0 0,1 -1,0 0,1 -1,0 0,2 -1,0 0,1 -1,0 0,1 -1,0 0,1 -1,0 0,2 -1,0 0,1 -1,0 0,1 -1,0 0,1 -1,0 0,2 -1,0 0,1 -1,0 0,1 -1,0 0,1 -1,0 0,1 -1,0 0,2 -1,0 0,1 -1,0 0,1 -1,0 0,1 -1,0 0,2 -1,0 0,1 -1,0 0,1 -1,0 0,1 -1,0 0,2 -1,0 0,1 -1,0 0,1 -1,0 0,1 -1,0 0,2 -1,0 0,1 -1,0 0,1 -1,0 0,1 -1,0 0,2 -1,0 0,1 -1,0 0,1 -1,0 0,1 -1,0 0,2 -1,0 0,1 -1,0 0,1 -1,0 0,1 -1,0 0,2 -1,0 0,1 -1,0 0,1 -1,0 0,1 -1,0 0,2 -1,0 0,1 -1,0 0,1 -1,0 0,1 -1,0 0,2 -1,0 0,1663 571,0 0,-2273 -1,0 z m 2637,965 0,2 1,0 0,4 1,0 0,3 1,0 0,3 1,0 0,4 1,0 0,3 1,0 0,3 1,0 0,3 1,0 0,4 1,0 0,3 1,0 0,3 1,0 0,4 1,0 0,3 1,0 0,3 1,0 0,4 1,0 0,3 1,0 0,4 1,0 0,3 1,0 0,3 1,0 0,4 1,0 0,3 1,0 0,4 1,0 0,3 1,0 0,4 1,0 0,3 1,0 0,4 1,0 0,3 1,0 0,3 1,0 0,4 1,0 0,3 1,0 0,4 1,0 0,3 1,0 0,4 1,0 0,3 1,0 0,4 1,0 0,3 1,0 0,3 1,0 0,4 1,0 0,3 1,0 0,4 1,0 0,3 1,0 0,4 1,0 0,4 1,0 0,3 1,0 0,4 1,0 0,4 1,0 0,3 1,0 0,4 1,0 0,4 1,0 0,3 1,0 0,4 1,0 0,4 1,0 0,3 1,0 0,4 1,0 0,4 1,0 0,3 1,0 0,4 1,0 0,4 1,0 0,3 1,0 0,4 1,0 0,4 1,0 0,3 1,0 0,4 1,0 0,4 1,0 0,3 1,0 0,4 1,0 0,4 1,0 0,4 1,0 0,4 1,0 0,4 1,0 0,4 1,0 0,4 1,0 0,4 1,0 0,4 1,0 0,4 1,0 0,4 1,0 0,3 1,0 0,4 1,0 0,4 1,0 0,4 1,0 0,4 1,0 0,4 1,0 0,4 1,0 0,4 1,0 0,4 1,0 0,4 1,0 0,4 1,0 0,4 1,0 0,4 1,0 0,4 1,0 0,4 1,0 0,5 1,0 0,4 1,0 0,4 1,0 0,4 1,0 0,4 1,0 0,5 1,0 0,4 1,0 0,4 1,0 0,4 1,0 0,4 1,0 0,5 1,0 0,4 1,0 0,4 1,0 0,4 1,0 0,4 1,0 0,5 1,0 0,4 1,0 0,4 1,0 0,4 1,0 0,5 1,0 0,5 1,0 0,4 1,0 0,5 1,0 0,4 1,0 0,5 1,0 0,4 1,0 0,5 1,0 0,4 1,0 0,5 1,0 0,5 1,0 0,4 1,0 0,5 1,0 0,4 1,0 0,5 1,0 0,4 1,0 0,5 1,0 0,5 1,0 0,4 1,0 0,5 1,0 0,4 1,0 0,5 1,0 0,5 1,0 0,5 1,0 0,5 1,0 0,5 1,0 0,5 1,0 0,5 1,0 0,5 1,0 0,5 1,0 0,5 1,0 0,5 1,0 0,5 1,0 0,5 1,0 0,5 1,0 0,5 1,0 0,5 1,0 0,5 1,0 0,5 1,0 0,5 1,0 0,5 1,0 0,5 1,0 0,6 1,0 0,5 1,0 0,6 1,0 0,5 1,0 0,6 1,0 0,5 1,0 0,6 1,0 0,5 1,0 0,6 1,0 0,5 1,0 0,6 1,0 0,5 1,0 0,6 1,0 0,5 1,0 0,6 1,0 0,5 1,0 0,6 1,0 0,5 1,0 0,6 1,0 0,6 1,0 0,6 1,0 0,6 1,0 0,7 1,0 0,6 1,0 0,6 1,0 0,6 1,0 0,6 1,0 0,6 1,0 0,6 1,0 0,7 1,0 0,6 1,0 0,6 1,0 0,6 1,0 0,6 1,0 0,6 1,0 0,6 1,0 0,7 1,0 0,6 1,0 0,7 1,0 0,7 1,0 0,6 1,0 0,7 1,0 0,7 1,0 0,7 1,0 0,7 1,0 0,7 1,0 0,7 1,0 0,7 1,0 0,7 1,0 0,8 1,0 0,8 1,0 0,8 1,0 0,8 1,0 0,7 1,0 0,8 1,0 0,8 1,0 0,8 1,0 0,8 1,0 0,7 1,0 0,8 1,0 0,8 1,0 0,8 1,0 0,9 1,0 0,9 1,0 0,9 1,0 0,9 1,0 0,9 1,0 0,9 1,0 0,9 1,0 0,9 1,0 0,9 1,0 0,9 1,0 0,9 1,0 0,10 1,0 0,11 1,0 0,11 1,0 0,11 1,0 0,11 1,0 0,11 1,0 0,10 1,0 0,11 1,0 0,11 1,0 0,11 1,0 0,13 1,0 0,14 1,0 0,13 1,0 0,14 1,0 0,13 1,0 0,14 1,0 0,13 1,0 0,14 1,0 0,16 1,0 0,15 1,0 0,20 1,0 0,21 1,0 0,20 1,0 0,20 1,0 0,20 1,0 0,26 1,0 0,33 1,0 0,33 1,0 0,33 1,0 0,79 1,0 0,59 -1,0 0,82 -1,0 0,50 -1,0 0,30 -1,0 0,30 -1,0 0,30 -1,0 0,23 -1,0 0,18 -1,0 0,19 -1,0 0,19 -1,0 0,18 -1,0 0,19 -1,0 0,18 -1,0 0,13 -1,0 0,13 -1,0 0,14 -1,0 0,13 -1,0 0,13 -1,0 0,14 -1,0 0,13 -1,0 0,13 -1,0 0,13 -1,0 0,12 -1,0 0,11 -1,0 0,12 -1,0 0,11 -1,0 0,10 -1,0 0,11 -1,0 0,10 -1,0 0,10 -1,0 0,10 -1,0 0,9 -1,0 0,10 -1,0 0,9 -1,0 0,9 -1,0 0,9 -1,0 0,8 -1,0 0,9 -1,0 0,9 -1,0 0,8 -1,0 0,8 -1,0 0,7 -1,0 0,7 -1,0 0,7 -1,0 0,7 -1,0 0,7 -1,0 0,6 -1,0 0,7 -1,0 0,7 -1,0 0,7 -1,0 0,6 -1,0 0,6 -1,0 0,6 -1,0 0,6 -1,0 0,6 -1,0 0,5 -1,0 0,6 -1,0 0,6 -1,0 0,6 -1,0 0,6 -1,0 0,5 -1,0 0,6 -1,0 0,6 -1,0 0,5 -1,0 0,5 -1,0 0,5 -1,0 0,5 -1,0 0,5 -1,0 0,5 -1,0 0,5 -1,0 0,5 -1,0 0,5 -1,0 0,5 -1,0 0,5 -1,0 0,5 -1,0 0,5 -1,0 0,5 -1,0 0,5 -1,0 0,4 -1,0 0,4 -1,0 0,5 -1,0 0,4 -1,0 0,5 -1,0 0,4 -1,0 0,5 -1,0 0,4 -1,0 0,5 -1,0 0,4 -1,0 0,4 -1,0 0,5 -1,0 0,4 -1,0 0,5 -1,0 0,4 -1,0 0,4 -1,0 0,4 -1,0 0,4 -1,0 0,4 -1,0 0,4 -1,0 0,4 -1,0 0,4 -1,0 0,4 -1,0 0,4 -1,0 0,4 -1,0 0,4 -1,0 0,4 -1,0 0,4 -1,0 0,4 -1,0 0,4 -1,0 0,4 -1,0 0,3 -1,0 0,4 -1,0 0,4 -1,0 0,4 -1,0 0,4 -1,0 0,3 -1,0 0,4 -1,0 0,3 -1,0 0,4 -1,0 0,4 -1,0 0,3 -1,0 0,4 -1,0 0,3 -1,0 0,4 -1,0 0,3 -1,0 0,4 -1,0 0,3 -1,0 0,3 -1,0 0,4 -1,0 0,3 -1,0 0,4 -1,0 0,3 -1,0 0,4 -1,0 0,3 -1,0 0,3 -1,0 0,4 -1,0 0,3 -1,0 0,4 -1,0 0,3 -1,0 0,4 -1,0 0,3 -1,0 0,4 -1,0 0,3 -1,0 0,3 -1,0 0,4 -1,0 0,3 -1,0 0,3 -1,0 0,3 -1,0 0,3 -1,0 0,4 -1,0 0,3 -1,0 0,3 -1,0 0,3 -1,0 0,3 -1,0 0,3 -1,0 0,3 -1,0 0,3 -1,0 0,4 -1,0 0,3 -1,0 0,3 -1,0 0,3 -1,0 0,3 -1,0 0,3 -1,0 0,3 -1,0 0,4 -1,0 0,3 -1,0 0,3 -1,0 0,3 -1,0 0,3 -1,0 0,3 -1,0 0,3 -1,0 0,3 -1,0 0,3 -1,0 0,3 -1,0 0,3 -1,0 0,3 -1,0 0,3 -1,0 0,3 -1,0 0,2 -1,0 0,3 -1,0 0,3 -1,0 0,3 -1,0 0,3 -1,0 0,3 -1,0 0,3 -1,0 0,3 -1,0 0,3 -1,0 0,2 -1,0 0,3 -1,0 0,3 -1,0 0,3 -1,0 0,3 -1,0 0,3 -1,0 0,3 -1,0 0,3 -1,0 0,2 -1,0 0,3 -1,0 0,3 -1,0 0,3 -1,0 0,3 -1,0 0,2 -1,0 0,3 -1,0 0,3 -1,0 0,2 -1,0 0,3 -1,0 0,3 -1,0 0,2 -1,0 0,3 -1,0 0,3 -1,0 0,3 -1,0 0,2 -1,0 0,3 -1,0 0,3 -1,0 0,2 -1,0 0,3 -1,0 0,3 -1,0 0,2 -1,0 0,3 -1,0 0,3 -1,0 0,2 -1,0 0,3 -1,0 0,3 -1,0 0,2 -1,0 0,3 -1,0 0,3 -1,0 0,2 -1,0 0,3 -1,0 0,2 -1,0 0,3 -1,0 0,3 -1,0 0,2 -1,0 0,3 -1,0 0,2 -1,0 0,3 -1,0 0,2 -1,0 0,3 -1,0 0,2 -1,0 0,3 -1,0 0,2 -1,0 0,3 -1,0 0,2 -1,0 0,3 -1,0 0,2 -1,0 0,3 -1,0 0,2 -1,0 0,3 -1,0 0,2 -1,0 0,3 -1,0 0,2 -1,0 0,3 -1,0 0,3 -1,0 0,2 -1,0 0,3 -1,0 0,2 -1,0 0,2 -1,0 0,3 -1,0 0,2 -1,0 0,3 -1,0 0,2 -1,0 0,2 -1,0 0,3 -1,0 0,2 -1,0 0,2 -1,0 0,3 -1,0 0,2 -1,0 0,3 -1,0 0,2 -1,0 0,2 -1,0 0,3 -1,0 0,2 -1,0 0,3 -1,0 0,2 -1,0 0,2 -1,0 0,3 -1,0 0,2 -1,0 0,2 -1,0 0,3 -1,0 0,2 -1,0 0,3 -1,0 0,2 -1,0 0,2 -1,0 0,3 -1,0 0,2 -1,0 0,2 -1,0 0,2 -1,0 0,3 -1,0 0,2 -1,0 0,2 -1,0 0,2 -1,0 0,3 -1,0 0,2 -1,0 0,2 -1,0 0,3 -1,0 0,2 -1,0 0,2 -1,0 0,2 -1,0 0,3 -1,0 0,2 -1,0 0,2 -1,0 0,2 -1,0 0,3 -1,0 0,2 -1,0 0,2 -1,0 0,2 -1,0 0,3 -1,0 0,2 -1,0 0,2 -1,0 0,2 -1,0 0,3 -1,0 0,2 -1,0 0,2 -1,0 0,2 -1,0 0,2 -1,0 0,2 -1,0 0,3 -1,0 0,2 -1,0 0,2 -1,0 0,2 -1,0 0,2 -1,0 0,2 -1,0 0,3 -1,0 0,2 -1,0 0,2 -1,0 0,2 -1,0 0,2 -1,0 0,2 -1,0 0,3 -1,0 0,2 -1,0 0,2 -1,0 0,2 -1,0 0,2 -1,0 0,2 -1,0 0,3 -1,0 0,2 -1,0 0,2 -1,0 0,2 -1,0 0,2 -1,0 0,2 -1,0 0,2 -1,0 0,2 -1,0 0,2 -1,0 0,2 -1,0 0,2 -1,0 0,3 -1,0 0,2 -1,0 0,2 -1,0 0,2 -1,0 0,2 -1,0 0,2 -1,0 0,2 -1,0 0,2 -1,0 0,2 -1,0 0,2 -1,0 0,2 -1,0 0,2 -1,0 0,2 -1,0 0,2 -1,0 0,2 -1,0 0,2 -1,0 0,3 -1,0 0,2 -1,0 0,2 -1,0 0,2 -1,0 0,2 -1,0 0,2 -1,0 0,2 -1,0 0,2 -1,0 0,2 -1,0 0,2 -1,0 0,2 -1,0 0,2 -1,0 0,2 -1,0 0,2 -1,0 0,2 -1,0 0,2 -1,0 0,2 -1,0 0,2 -1,0 0,2 -1,0 0,2 -1,0 0,2 -1,0 0,1 2,0 0,-1 3,0 0,-1 3,0 0,-1 3,0 0,-1 2,0 0,-1 3,0 0,-1 3,0 0,-1 3,0 0,-1 3,0 0,-1 2,0 0,-1 3,0 0,-1 3,0 0,-1 3,0 0,-1 2,0 0,-1 3,0 0,-1 3,0 0,-1 3,0 0,-1 3,0 0,-1 2,0 0,-1 3,0 0,-1 3,0 0,-1 3,0 0,-1 2,0 0,-1 3,0 0,-1 3,0 0,-1 2,0 0,-1 3,0 0,-1 3,0 0,-1 2,0 0,-1 3,0 0,-1 3,0 0,-1 3,0 0,-1 2,0 0,-1 3,0 0,-1 3,0 0,-1 2,0 0,-1 3,0 0,-1 3,0 0,-1 2,0 0,-1 3,0 0,-1 3,0 0,-1 2,0 0,-1 3,0 0,-1 2,0 0,-1 3,0 0,-1 2,0 0,-1 3,0 0,-1 2,0 0,-1 3,0 0,-1 3,0 0,-1 2,0 0,-1 3,0 0,-1 2,0 0,-1 3,0 0,-1 3,0 0,-1 2,0 0,-1 3,0 0,-1 2,0 0,-1 3,0 0,-1 2,0 0,-1 3,0 0,-1 3,0 0,-1 2,0 0,-1 3,0 0,-1 2,0 0,-1 3,0 0,-1 3,0 0,-1 2,0 0,-1 3,0 0,-1 2,0 0,-1 3,0 0,-1 2,0 0,-1 3,0 0,-1 2,0 0,-1 3,0 0,-1 2,0 0,-1 2,0 0,-1 3,0 0,-1 2,0 0,-1 3,0 0,-1 2,0 0,-1 3,0 0,-1 2,0 0,-1 3,0 0,-1 2,0 0,-1 3,0 0,-1 2,0 0,-1 3,0 0,-1 2,0 0,-1 3,0 0,-1 2,0 0,-1 3,0 0,-1 2,0 0,-1 3,0 0,-1 2,0 0,-1 2,0 0,-1 3,0 0,-1 2,0 0,-1 3,0 0,-1 2,0 0,-1 2,0 0,-1 3,0 0,-1 2,0 0,-1 3,0 0,-1 2,0 0,-1 2,0 0,-1 3,0 0,-1 2,0 0,-1 3,0 0,-1 2,0 0,-1 2,0 0,-1 3,0 0,-1 2,0 0,-1 3,0 0,-1 2,0 0,-1 2,0 0,-1 3,0 0,-1 2,0 0,-1 3,0 0,-1 2,0 0,-1 2,0 0,-1 3,0 0,-1 2,0 0,-1 2,0 0,-1 3,0 0,-1 2,0 0,-1 2,0 0,-1 2,0 0,-1 3,0 0,-1 2,0 0,-1 2,0 0,-1 3,0 0,-1 2,0 0,-1 2,0 0,-1 3,0 0,-1 2,0 0,-1 2,0 0,-1 3,0 0,-1 2,0 0,-1 2,0 0,-1 3,0 0,-1 2,0 0,-1 2,0 0,-1 2,0 0,-1 3,0 0,-1 2,0 0,-1 2,0 0,-1 3,0 0,-1 2,0 0,-1 2,0 0,-1 2,0 0,-1 3,0 0,-1 2,0 0,-1 2,0 0,-1 2,0 0,-1 3,0 0,-1 2,0 0,-1 2,0 0,-1 2,0 0,-1 3,0 0,-1 2,0 0,-1 2,0 0,-1 2,0 0,-1 3,0 0,-1 2,0 0,-1 2,0 0,-1 2,0 0,-1 2,0 0,-1 3,0 0,-1 2,0 0,-1 2,0 0,-1 2,0 0,-1 2,0 0,-1 3,0 0,-1 2,0 0,-1 2,0 0,-1 2,0 0,-1 2,0 0,-1 3,0 0,-1 2,0 0,-1 2,0 0,-1 2,0 0,-1 2,0 0,-1 2,0 0,-1 3,0 0,-1 2,0 0,-1 2,0 0,-1 2,0 0,-1 2,0 0,-1 2,0 0,-1 3,0 0,-1 2,0 0,-1 2,0 0,-1 2,0 0,-1 2,0 0,-1 2,0 0,-1 2,0 0,-1 2,0 0,-1 3,0 0,-1 2,0 0,-1 2,0 0,-1 2,0 0,-1 2,0 0,-1 2,0 0,-1 2,0 0,-1 2,0 0,-1 2,0 0,-1 3,0 0,-1 2,0 0,-1 2,0 0,-1 2,0 0,-1 2,0 0,-1 2,0 0,-1 2,0 0,-1 2,0 0,-1 2,0 0,-1 2,0 0,-1 2,0 0,-1 2,0 0,-3 1,0 0,-7 1,0 0,-7 1,0 0,-7 1,0 0,-8 1,0 0,-7 1,0 0,-8 1,0 0,-8 1,0 0,-7 1,0 0,-8 1,0 0,-8 1,0 0,-9 1,0 0,-8 1,0 0,-8 1,0 0,-8 1,0 0,-9 1,0 0,-8 1,0 0,-8 1,0 0,-9 1,0 0,-9 1,0 0,-9 1,0 0,-9 1,0 0,-8 1,0 0,-9 1,0 0,-9 1,0 0,-9 1,0 0,-10 1,0 0,-9 1,0 0,-10 1,0 0,-9 1,0 0,-10 1,0 0,-10 1,0 0,-9 1,0 0,-10 1,0 0,-10 1,0 0,-11 1,0 0,-10 1,0 0,-10 1,0 0,-11 1,0 0,-10 1,0 0,-11 1,0 0,-11 1,0 0,-11 1,0 0,-11 1,0 0,-12 1,0 0,-11 1,0 0,-12 1,0 0,-12 1,0 0,-12 1,0 0,-12 1,0 0,-13 1,0 0,-12 1,0 0,-13 1,0 0,-13 1,0 0,-13 1,0 0,-14 1,0 0,-13 1,0 0,-15 1,0 0,-14 1,0 0,-15 1,0 0,-15 1,0 0,-16 1,0 0,-16 1,0 0,-16 1,0 0,-16 1,0 0,-18 1,0 0,-19 1,0 0,-18 1,0 0,-20 1,0 0,-21 1,0 0,-21 1,0 0,-22 1,0 0,-25 1,0 0,-25 1,0 0,-30 1,0 0,-31 1,0 0,-38 1,0 0,-43 1,0 0,-69 1,0 0,-128 -1,0 0,-77 -1,0 0,-41 -1,0 0,-36 -1,0 0,-25 -1,0 0,-25 -1,0 0,-25 -1,0 0,-21 -1,0 0,-17 -1,0 0,-18 -1,0 0,-17 -1,0 0,-17 -1,0 0,-17 -1,0 0,-13 -1,0 0,-13 -1,0 0,-13 -1,0 0,-13 -1,0 0,-13 -1,0 0,-13 -1,0 0,-13 -1,0 0,-11 -1,0 0,-11 -1,0 0,-11 -1,0 0,-10 -1,0 0,-10 -1,0 0,-10 -1,0 0,-10 -1,0 0,-9 -1,0 0,-10 -1,0 0,-10 -1,0 0,-9 -1,0 0,-10 -1,0 0,-9 -1,0 0,-9 -1,0 0,-8 -1,0 0,-9 -1,0 0,-9 -1,0 0,-8 -1,0 0,-9 -1,0 0,-9 -1,0 0,-8 -1,0 0,-9 -1,0 0,-7 -1,0 0,-8 -1,0 0,-8 -1,0 0,-8 -1,0 0,-7 -1,0 0,-8 -1,0 0,-8 -1,0 0,-8 -1,0 0,-7 -1,0 0,-8 -1,0 0,-7 -1,0 0,-7 -1,0 0,-7 -1,0 0,-7 -1,0 0,-7 -1,0 0,-7 -1,0 0,-7 -1,0 0,-7 -1,0 0,-7 -1,0 0,-7 -1,0 0,-7 -1,0 0,-6 -1,0 0,-6 -1,0 0,-6 -1,0 0,-7 -1,0 0,-6 -1,0 0,-6 -1,0 0,-6 -1,0 0,-7 -1,0 0,-6 -1,0 0,-6 -1,0 0,-6 -1,0 0,-7 -1,0 0,-6 -1,0 0,-5 -1,0 0,-6 -1,0 0,-5 -1,0 0,-6 -1,0 0,-6 -1,0 0,-5 -1,0 0,-6 -1,0 0,-5 -1,0 0,-6 -1,0 0,-6 -1,0 0,-5 -1,0 0,-6 -1,0 0,-5 -1,0 0,-6 -1,0 0,-5 -1,0 0,-5 -1,0 0,-5 -1,0 0,-5 -1,0 0,-5 -1,0 0,-5 -1,0 0,-5 -1,0 0,-5 -1,0 0,-5 -1,0 0,-5 -1,0 0,-6 -1,0 0,-5 -1,0 0,-5 -1,0 0,-5 -1,0 0,-5 -1,0 0,-4 -1,0 0,-5 -1,0 0,-4 -1,0 0,-5 -1,0 0,-5 -1,0 0,-4 -1,0 0,-5 -1,0 0,-4 -1,0 0,-5 -1,0 0,-4 -1,0 0,-5 -1,0 0,-5 -1,0 0,-4 -1,0 0,-5 -1,0 0,-4 -1,0 0,-5 -1,0 0,-4 -1,0 0,-5 -1,0 0,-4 -1,0 0,-4 -1,0 0,-5 -1,0 0,-4 -1,0 0,-4 -1,0 0,-5 -1,0 0,-4 -1,0 0,-4 -1,0 0,-4 -1,0 0,-4 -1,0 0,-4 -1,0 0,-5 -1,0 0,-3 -1,0 0,-5 -1,0 0,-4 -1,0 0,-3 -1,0 0,-4 -1,0 0,-5 -1,0 0,-3 -1,0 0,-4 -1,0 0,-4 -1,0 0,-4 -1,0 0,-4 -1,0 0,-4 -1,0 0,-3 -1,0 0,-4 -1,0 0,-4 -1,0 0,-4 -1,0 0,-4 -1,0 0,-3 -1,0 0,-4 -1,0 0,-4 -1,0 0,-3 -1,0 0,-4 -1,0 0,-4 -1,0 0,-3 -1,0 0,-4 -1,0 0,-4 -1,0 0,-3 -1,0 0,-4 -1,0 0,-3 -1,0 0,-4 -1,0 0,-4 -1,0 0,-3 -1,0 0,-3 -1,0 0,-4 -1,0 0,-3 -1,0 0,-4 -1,0 0,-3 -1,0 0,-4 -1,0 0,-3 -1,0 0,-3 -1,0 0,-4 -1,0 0,-3 -1,0 0,-3 -1,0 0,-3 -1,0 0,-4 -1,0 0,-3 -1,0 0,-3 -1,0 0,-3 -1,0 0,-4 -1,0 0,-3 -1,0 0,-3 -1,0 0,-3 -1,0 0,-3 -1,0 0,-4 -1,0 0,-3 -1,0 0,-3 -1,0 0,-3 -1,0 0,-4 -1,0 0,-3 -1,0 0,-3 -1,0 0,-3 -1,0 0,-4 -1,0 0,-3 -1,0 0,-3 -1,0 0,-3 -1,0 0,-4 -1,0 0,-3 -1,0 0,-3 -1,0 0,-2 -1,0 0,-3 -1,0 0,-3 -1,0 0,-3 -1,0 0,-3 -1,0 0,-3 -1,0 0,-3 -1,0 0,-3 -1,0 0,-3 -1,0 0,-3 -1,0 0,-3 -1,0 0,-3 -1,0 0,-3 -1,0 0,-3 -1,0 0,-3 -1,0 0,-2 -1,0 0,-3 -1,0 0,-3 -1,0 0,-3 -1,0 0,-3 -1,0 0,-3 -1,0 0,-3 -1,0 0,-3 -1,0 0,-3 -1,0 0,-3 -1,0 0,-3 -1,0 0,-3 -1,0 0,-3 -1,0 0,-2 -1,0 0,-3 -1,0 0,-3 -1,0 0,-2 -1,0 0,-3 -1,0 0,-3 -1,0 0,-2 -1,0 0,-3 -1,0 0,-3 -1,0 0,-2 -1,0 0,-3 -1,0 0,-3 -1,0 0,-2 -1,0 0,-3 -1,0 0,-3 -1,0 0,-2 -1,0 0,-3 -1,0 0,-3 -1,0 0,-2 -1,0 0,-3 -1,0 0,-3 -1,0 0,-2 -1,0 0,-3 -1,0 0,-3 -1,0 0,-2 -1,0 0,-3 -1,0 0,-3 -1,0 0,-2 -1,0 0,-3 -1,0 0,-3 -1,0 0,-2 -1,0 0,-3 -1,0 0,-3 -1,0 0,-2 -1,0 0,-3 -1,0 0,-2 -1,0 0,-3 -1,0 0,-2 -1,0 0,-2 -1,0 0,-3 -1,0 0,-2 -1,0 0,-3 -1,0 0,-2 -1,0 0,-3 -1,0 0,-2 -1,0 0,-2 -1,0 0,-3 -1,0 0,-2 -1,0 0,-3 -1,0 0,-2 -1,0 0,-3 -1,0 0,-2 -1,0 0,-3 -1,0 0,-2 -1,0 0,-2 -1,0 0,-3 -1,0 0,-2 -1,0 0,-3 -1,0 0,-2 -1,0 0,-3 -1,0 0,-2 -1,0 0,-2 -1,0 0,-3 -1,0 0,-2 -1,0 0,-3 -1,0 0,-2 -1,0 0,-3 -1,0 0,-2 -1,0 0,-2 -1,0 0,-3 -1,0 0,-2 -1,0 0,-2 -1,0 0,-2 -1,0 0,-3 -1,0 0,-2 -1,0 0,-2 -1,0 0,-2 -1,0 0,-3 -1,0 0,-2 -1,0 0,-2 -1,0 0,-2 -1,0 0,-3 -1,0 0,-2 -1,0 0,-2 -1,0 0,-2 -1,0 0,-2 -1,0 0,-3 -1,0 0,-2 -1,0 0,-2 -1,0 0,-2 -1,0 0,-3 -1,0 0,-2 -1,0 0,-2 -1,0 0,-2 -1,0 0,-3 -1,0 0,-2 -1,0 0,-2 -1,0 0,-2 -1,0 0,-2 -1,0 0,-3 -1,0 0,-2 -1,0 0,-2 -1,0 0,-2 -1,0 0,-3 -1,0 0,-2 -1,0 0,-2 -1,0 0,-2 -1,0 0,-3 -1,0 0,-2 -1,0 0,-2 -1,0 0,-2 -1,0 0,-2 -1,0 0,-2 -1,0 0,-2 -1,0 0,-2 -1,0 0,-2 -1,0 0,-2 -1,0 0,-2 -1,0 0,-2 -1,0 0,-2 -1,0 0,-2 -1,0 0,-2 -1,0 0,-2 -1,0 0,-3 -1,0 0,-2 -1,0 0,-2 -1,0 0,-2 -1,0 0,-2 -1,0 0,-2 -1,0 0,-2 -1,0 0,-2 -1,0 0,-2 -1,0 0,-2 -1,0 0,-2 -1,0 0,-2 -1,0 0,-2 -1,0 0,-2 -1,0 0,-2 -1,0 0,-2 -1,0 0,-2 -1,0 0,-2 -1,0 0,-2 -1,0 0,-2 -1,0 0,-3 -1,0 0,-2 -1,0 0,-2 -1,0 0,-2 -1,0 0,-2 -1,0 0,-2 -1,0 0,-2 -1,0 0,-2 -1,0 0,-2 -1,0 0,-2 -1,0 0,-2 -1,0 0,-2 -1,0 0,-2 -1,0 0,-1 -1,0 0,-2 -1,0 0,-2 -1,0 0,-2 -1,0 0,-2 -1,0 0,-2 -1,0 0,-2 -1,0 0,-2 -1,0 0,-2 -1,0 0,-1 -1,0 0,-2 -1,0 0,-2 -1,0 0,-2 -1,0 0,-2 -1,0 0,-2 -1,0 0,-2 -1,0 0,-2 -1,0 0,-2 -1,0 0,-1 -1,0 0,-2 -1,0 0,-2 -1,0 0,-2 -1,0 0,-2 -1,0 0,-2 -1,0 0,-2 -1,0 0,-2 -1,0 0,-2 -1,0 0,-1 -1,0 0,-2 -1,0 0,-2 -1,0 0,-2 -1,0 0,-2 -1,0 0,-2 -1,0 0,-2 -1,0 0,-2 -1,0 0,-2 -1,0 0,-1 -1,0 0,-2 -1,0 0,-2 -1,0 0,-2 -1,0 0,-2 -1,0 0,-2 -1,0 0,-2 -1,0 0,-2 -1,0 0,-1 -1,0 0,-2 -1,0 0,-2 -1,0 0,-2 -1,0 0,-1 -1,0 0,-2 -1,0 0,-2 -1,0 0,-2 -1,0 0,-1 -1,0 0,-2 -1,0 0,-2 -1,0 0,-2 -1,0 0,-1 -1,0 0,-2 -1,0 0,-2 -1,0 0,-2 -1,0 0,-1 -1,0 0,-2 -1,0 0,-2 -1,0 0,-2 -1,0 0,-1 -1,0 0,-2 -1,0 0,-2 -1,0 0,-2 -1,0 0,-1 -1,0 0,-2 -1,0 0,-2 -1,0 0,-2 -1,0 0,-1 -1,0 0,-2 -1,0 0,-2 -1,0 0,-2 -1,0 0,-1 -1,0 0,-2 -1,0 0,-2 -1,0 0,-2 -1,0 0,-1 -1,0 0,-2 -1,0 0,-2 -1,0 0,-2 -1,0 0,-1 -1,0 0,-2 -1,0 0,-2 -1,0 0,-2 -1,0 0,-1 -1,0 0,-2 -1,0 0,-2 -1,0 0,-2 -1,0 0,-1 -1,0 0,-1 -1,0 z m -3458,13 0,1 -1,0 0,2 -1,0 0,2 -1,0 0,2 -1,0 0,1 -1,0 0,2 -1,0 0,2 -1,0 0,2 -1,0 0,2 -1,0 0,1 -1,0 0,2 -1,0 0,2 -1,0 0,2 -1,0 0,1 -1,0 0,2 -1,0 0,2 -1,0 0,2 -1,0 0,2 -1,0 0,1 -1,0 0,2 -1,0 0,2 -1,0 0,2 -1,0 0,1 -1,0 0,2 -1,0 0,2 -1,0 0,2 -1,0 0,1 -1,0 0,2 -1,0 0,2 -1,0 0,2 -1,0 0,2 -1,0 0,1 -1,0 0,2 -1,0 0,2 -1,0 0,2 -1,0 0,1 -1,0 0,2 -1,0 0,2 -1,0 0,2 -1,0 0,2 -1,0 0,1 -1,0 0,2 -1,0 0,2 -1,0 0,2 -1,0 0,1 -1,0 0,2 -1,0 0,2 -1,0 0,2 -1,0 0,2 -1,0 0,1 -1,0 0,2 -1,0 0,2 -1,0 0,2 -1,0 0,1 -1,0 0,2 -1,0 0,2 -1,0 0,2 -1,0 0,2 -1,0 0,2 -1,0 0,2 -1,0 0,2 -1,0 0,2 -1,0 0,2 -1,0 0,2 -1,0 0,2 -1,0 0,2 -1,0 0,2 -1,0 0,1 -1,0 0,2 -1,0 0,2 -1,0 0,2 -1,0 0,2 -1,0 0,2 -1,0 0,2 -1,0 0,2 -1,0 0,2 -1,0 0,2 -1,0 0,2 -1,0 0,2 -1,0 0,2 -1,0 0,2 -1,0 0,1 -1,0 0,2 -1,0 0,2 -1,0 0,2 -1,0 0,2 -1,0 0,2 -1,0 0,2 -1,0 0,2 -1,0 0,2 -1,0 0,2 -1,0 0,2 -1,0 0,2 -1,0 0,2 -1,0 0,2 -1,0 0,1 -1,0 0,2 -1,0 0,2 -1,0 0,2 -1,0 0,2 -1,0 0,2 -1,0 0,2 -1,0 0,2 -1,0 0,2 -1,0 0,2 -1,0 0,2 -1,0 0,2 -1,0 0,3 -1,0 0,2 -1,0 0,2 -1,0 0,2 -1,0 0,2 -1,0 0,2 -1,0 0,2 -1,0 0,2 -1,0 0,2 -1,0 0,3 -1,0 0,2 -1,0 0,2 -1,0 0,2 -1,0 0,2 -1,0 0,2 -1,0 0,2 -1,0 0,2 -1,0 0,2 -1,0 0,2 -1,0 0,3 -1,0 0,2 -1,0 0,2 -1,0 0,2 -1,0 0,2 -1,0 0,2 -1,0 0,2 -1,0 0,2 -1,0 0,2 -1,0 0,3 -1,0 0,2 -1,0 0,2 -1,0 0,2 -1,0 0,2 -1,0 0,2 -1,0 0,2 -1,0 0,2 -1,0 0,2 -1,0 0,2 -1,0 0,3 -1,0 0,2 -1,0 0,2 -1,0 0,2 -1,0 0,2 -1,0 0,3 -1,0 0,2 -1,0 0,2 -1,0 0,3 -1,0 0,2 -1,0 0,2 -1,0 0,3 -1,0 0,2 -1,0 0,2 -1,0 0,3 -1,0 0,2 -1,0 0,2 -1,0 0,2 -1,0 0,3 -1,0 0,2 -1,0 0,2 -1,0 0,3 -1,0 0,2 -1,0 0,2 -1,0 0,3 -1,0 0,2 -1,0 0,2 -1,0 0,3 -1,0 0,2 -1,0 0,2 -1,0 0,2 -1,0 0,3 -1,0 0,2 -1,0 0,2 -1,0 0,3 -1,0 0,2 -1,0 0,2 -1,0 0,3 -1,0 0,2 -1,0 0,2 -1,0 0,3 -1,0 0,2 -1,0 0,2 -1,0 0,3 -1,0 0,2 -1,0 0,3 -1,0 0,2 -1,0 0,3 -1,0 0,2 -1,0 0,3 -1,0 0,2 -1,0 0,3 -1,0 0,2 -1,0 0,3 -1,0 0,2 -1,0 0,3 -1,0 0,3 -1,0 0,2 -1,0 0,3 -1,0 0,2 -1,0 0,3 -1,0 0,2 -1,0 0,3 -1,0 0,2 -1,0 0,3 -1,0 0,2 -1,0 0,3 -1,0 0,2 -1,0 0,3 -1,0 0,3 -1,0 0,2 -1,0 0,3 -1,0 0,2 -1,0 0,3 -1,0 0,2 -1,0 0,3 -1,0 0,2 -1,0 0,3 -1,0 0,2 -1,0 0,3 -1,0 0,3 -1,0 0,2 -1,0 0,3 -1,0 0,3 -1,0 0,3 -1,0 0,3 -1,0 0,2 -1,0 0,3 -1,0 0,3 -1,0 0,3 -1,0 0,3 -1,0 0,2 -1,0 0,3 -1,0 0,3 -1,0 0,3 -1,0 0,3 -1,0 0,2 -1,0 0,3 -1,0 0,3 -1,0 0,3 -1,0 0,3 -1,0 0,2 -1,0 0,3 -1,0 0,3 -1,0 0,3 -1,0 0,3 -1,0 0,2 -1,0 0,3 -1,0 0,3 -1,0 0,3 -1,0 0,3 -1,0 0,3 -1,0 0,2 -1,0 0,3 -1,0 0,3 -1,0 0,3 -1,0 0,3 -1,0 0,3 -1,0 0,4 -1,0 0,3 -1,0 0,3 -1,0 0,3 -1,0 0,3 -1,0 0,3 -1,0 0,3 -1,0 0,3 -1,0 0,3 -1,0 0,4 -1,0 0,3 -1,0 0,3 -1,0 0,3 -1,0 0,3 -1,0 0,3 -1,0 0,3 -1,0 0,3 -1,0 0,4 -1,0 0,3 -1,0 0,3 -1,0 0,3 -1,0 0,3 -1,0 0,3 -1,0 0,3 -1,0 0,3 -1,0 0,3 -1,0 0,4 -1,0 0,3 -1,0 0,4 -1,0 0,3 -1,0 0,4 -1,0 0,3 -1,0 0,3 -1,0 0,4 -1,0 0,3 -1,0 0,4 -1,0 0,3 -1,0 0,4 -1,0 0,3 -1,0 0,4 -1,0 0,3 -1,0 0,4 -1,0 0,3 -1,0 0,4 -1,0 0,3 -1,0 0,4 -1,0 0,3 -1,0 0,4 -1,0 0,3 -1,0 0,3 -1,0 0,4 -1,0 0,3 -1,0 0,4 -1,0 0,3 -1,0 0,4 -1,0 0,4 -1,0 0,4 -1,0 0,4 -1,0 0,4 -1,0 0,4 -1,0 0,4 -1,0 0,4 -1,0 0,3 -1,0 0,4 -1,0 0,4 -1,0 0,4 -1,0 0,4 -1,0 0,4 -1,0 0,4 -1,0 0,4 -1,0 0,4 -1,0 0,3 -1,0 0,4 -1,0 0,4 -1,0 0,4 -1,0 0,4 -1,0 0,4 -1,0 0,4 -1,0 0,4 -1,0 0,4 -1,0 0,5 -1,0 0,4 -1,0 0,5 -1,0 0,4 -1,0 0,4 -1,0 0,5 -1,0 0,4 -1,0 0,4 -1,0 0,5 -1,0 0,4 -1,0 0,5 -1,0 0,4 -1,0 0,4 -1,0 0,5 -1,0 0,4 -1,0 0,4 -1,0 0,5 -1,0 0,4 -1,0 0,5 -1,0 0,4 -1,0 0,5 -1,0 0,5 -1,0 0,5 -1,0 0,5 -1,0 0,5 -1,0 0,5 -1,0 0,5 -1,0 0,5 -1,0 0,5 -1,0 0,5 -1,0 0,4 -1,0 0,5 -1,0 0,5 -1,0 0,5 -1,0 0,5 -1,0 0,5 -1,0 0,5 -1,0 0,5 -1,0 0,5 -1,0 0,6 -1,0 0,5 -1,0 0,6 -1,0 0,5 -1,0 0,6 -1,0 0,6 -1,0 0,5 -1,0 0,6 -1,0 0,6 -1,0 0,5 -1,0 0,6 -1,0 0,5 -1,0 0,6 -1,0 0,6 -1,0 0,5 -1,0 0,6 -1,0 0,5 -1,0 0,7 -1,0 0,6 -1,0 0,7 -1,0 0,6 -1,0 0,6 -1,0 0,7 -1,0 0,6 -1,0 0,7 -1,0 0,6 -1,0 0,6 -1,0 0,7 -1,0 0,6 -1,0 0,7 -1,0 0,6 -1,0 0,6 -1,0 0,8 -1,0 0,7 -1,0 0,7 -1,0 0,7 -1,0 0,8 -1,0 0,7 -1,0 0,7 -1,0 0,8 -1,0 0,7 -1,0 0,7 -1,0 0,8 -1,0 0,7 -1,0 0,7 -1,0 0,8 -1,0 0,9 -1,0 0,8 -1,0 0,8 -1,0 0,9 -1,0 0,8 -1,0 0,8 -1,0 0,9 -1,0 0,8 -1,0 0,8 -1,0 0,9 -1,0 0,8 -1,0 0,10 -1,0 0,9 -1,0 0,10 -1,0 0,9 -1,0 0,10 -1,0 0,9 -1,0 0,10 -1,0 0,9 -1,0 0,10 -1,0 0,9 -1,0 0,12 -1,0 0,12 -1,0 0,12 -1,0 0,12 -1,0 0,12 -1,0 0,11 -1,0 0,12 -1,0 0,12 -1,0 0,12 -1,0 0,12 -1,0 0,16 -1,0 0,17 -1,0 0,18 -1,0 0,17 -1,0 0,17 -1,0 0,17 -1,0 0,17 -1,0 0,26 -1,0 0,27 -1,0 0,28 -1,0 0,28 -1,0 0,45 -1,0 0,61 -1,0 0,170 1,0 0,60 1,0 0,42 1,0 0,35 1,0 0,32 1,0 0,27 1,0 0,26 1,0 0,23 1,0 0,23 1,0 0,21 1,0 0,20 1,0 0,19 1,0 0,19 1,0 0,18 1,0 0,17 1,0 0,17 1,0 0,16 1,0 0,16 1,0 0,15 1,0 0,15 1,0 0,15 1,0 0,14 1,0 0,14 1,0 0,14 1,0 0,13 1,0 0,14 1,0 0,13 1,0 0,12 1,0 0,13 1,0 0,12 1,0 0,13 1,0 0,11 1,0 0,12 1,0 0,12 1,0 0,11 1,0 0,12 1,0 0,11 1,0 0,11 1,0 0,11 1,0 0,11 1,0 0,10 1,0 0,11 1,0 0,10 1,0 0,10 1,0 0,11 1,0 0,10 1,0 0,10 1,0 0,9 1,0 0,10 1,0 0,10 1,0 0,9 1,0 0,10 1,0 0,9 1,0 0,9 1,0 0,10 1,0 0,9 1,0 0,9 1,0 0,9 1,0 0,8 1,0 0,9 1,0 0,9 1,0 0,8 1,0 0,9 1,0 0,8 1,0 0,9 1,0 0,8 1,0 0,8 1,0 0,8 1,0 0,8 1,0 0,8 1,0 0,8 1,0 0,8 1,0 0,7 1,0 0,8 1,0 0,8 1,0 0,7 1,0 0,7 1,0 0,8 1,0 0,7 2,0 0,1 2,0 0,1 2,0 0,1 2,0 0,1 2,0 0,1 2,0 0,1 2,0 0,1 3,0 0,1 2,0 0,1 2,0 0,1 2,0 0,1 2,0 0,1 2,0 0,1 2,0 0,1 2,0 0,1 2,0 0,1 2,0 0,1 2,0 0,1 3,0 0,1 2,0 0,1 2,0 0,1 2,0 0,1 2,0 0,1 2,0 0,1 2,0 0,1 2,0 0,1 2,0 0,1 3,0 0,1 2,0 0,1 2,0 0,1 2,0 0,1 2,0 0,1 2,0 0,1 3,0 0,1 2,0 0,1 2,0 0,1 2,0 0,1 2,0 0,1 2,0 0,1 3,0 0,1 2,0 0,1 2,0 0,1 2,0 0,1 2,0 0,1 3,0 0,1 2,0 0,1 2,0 0,1 2,0 0,1 2,0 0,1 3,0 0,1 2,0 0,1 2,0 0,1 2,0 0,1 2,0 0,1 3,0 0,1 2,0 0,1 2,0 0,1 2,0 0,1 3,0 0,1 2,0 0,1 2,0 0,1 2,0 0,1 3,0 0,1 2,0 0,1 2,0 0,1 2,0 0,1 3,0 0,1 2,0 0,1 2,0 0,1 2,0 0,1 3,0 0,1 2,0 0,1 2,0 0,1 3,0 0,1 2,0 0,1 2,0 0,1 2,0 0,1 3,0 0,1 2,0 0,1 2,0 0,1 2,0 0,1 3,0 0,1 2,0 0,1 2,0 0,1 3,0 0,1 2,0 0,1 2,0 0,1 3,0 0,1 2,0 0,1 2,0 0,1 3,0 0,1 2,0 0,1 2,0 0,1 3,0 0,1 2,0 0,1 2,0 0,1 3,0 0,1 2,0 0,1 2,0 0,1 3,0 0,1 2,0 0,1 2,0 0,1 3,0 0,1 2,0 0,1 3,0 0,1 2,0 0,1 2,0 0,1 3,0 0,1 2,0 0,1 2,0 0,1 3,0 0,1 2,0 0,1 3,0 0,1 2,0 0,1 2,0 0,1 3,0 0,1 2,0 0,1 3,0 0,1 2,0 0,1 2,0 0,1 3,0 0,1 2,0 0,1 3,0 0,1 2,0 0,1 3,0 0,1 2,0 0,1 3,0 0,1 2,0 0,1 2,0 0,1 3,0 0,1 2,0 0,1 3,0 0,1 2,0 0,1 3,0 0,1 2,0 0,1 3,0 0,1 2,0 0,1 3,0 0,1 2,0 0,1 3,0 0,1 2,0 0,1 3,0 0,1 2,0 0,1 3,0 0,1 2,0 0,1 3,0 0,1 2,0 0,1 3,0 0,1 2,0 0,1 3,0 0,1 2,0 0,1 3,0 0,1 2,0 0,1 3,0 0,1 2,0 0,1 3,0 0,1 2,0 0,1 3,0 0,1 3,0 0,1 2,0 0,1 3,0 0,1 2,0 0,1 3,0 0,1 2,0 0,1 3,0 0,1 3,0 0,1 2,0 0,1 3,0 0,1 2,0 0,1 3,0 0,1 3,0 0,1 2,0 0,1 3,0 0,1 2,0 0,1 3,0 0,1 3,0 0,1 2,0 0,1 3,0 0,1 2,0 0,1 3,0 0,1 3,0 0,1 2,0 0,1 3,0 0,1 3,0 0,1 2,0 0,1 3,0 0,1 3,0 0,1 2,0 0,1 3,0 0,1 3,0 0,1 2,0 0,1 3,0 0,1 3,0 0,1 3,0 0,1 2,0 0,1 3,0 0,1 3,0 0,1 3,0 0,1 2,0 0,1 3,0 0,1 3,0 0,1 3,0 0,1 2,0 0,1 3,0 0,1 3,0 0,1 2,0 0,1 3,0 0,1 3,0 0,1 3,0 0,1 2,0 0,1 3,0 0,1 3,0 0,1 3,0 0,1 2,0 0,1 3,0 0,1 3,0 0,1 3,0 0,1 1,0 0,-3 -1,0 0,-2 -1,0 0,-2 -1,0 0,-2 -1,0 0,-2 -1,0 0,-2 -1,0 0,-2 -1,0 0,-2 -1,0 0,-2 -1,0 0,-2 -1,0 0,-2 -1,0 0,-2 -1,0 0,-2 -1,0 0,-2 -1,0 0,-2 -1,0 0,-2 -1,0 0,-2 -1,0 0,-2 -1,0 0,-2 -1,0 0,-2 -1,0 0,-2 -1,0 0,-2 -1,0 0,-2 -1,0 0,-2 -1,0 0,-2 -1,0 0,-2 -1,0 0,-2 -1,0 0,-2 -1,0 0,-2 -1,0 0,-2 -1,0 0,-2 -1,0 0,-2 -1,0 0,-2 -1,0 0,-2 -1,0 0,-3 -1,0 0,-2 -1,0 0,-2 -1,0 0,-2 -1,0 0,-2 -1,0 0,-2 -1,0 0,-2 -1,0 0,-2 -1,0 0,-2 -1,0 0,-2 -1,0 0,-3 -1,0 0,-2 -1,0 0,-2 -1,0 0,-2 -1,0 0,-2 -1,0 0,-2 -1,0 0,-2 -1,0 0,-2 -1,0 0,-3 -1,0 0,-2 -1,0 0,-2 -1,0 0,-2 -1,0 0,-2 -1,0 0,-2 -1,0 0,-3 -1,0 0,-2 -1,0 0,-2 -1,0 0,-2 -1,0 0,-2 -1,0 0,-2 -1,0 0,-3 -1,0 0,-2 -1,0 0,-2 -1,0 0,-2 -1,0 0,-2 -1,0 0,-2 -1,0 0,-3 -1,0 0,-2 -1,0 0,-2 -1,0 0,-2 -1,0 0,-3 -1,0 0,-2 -1,0 0,-2 -1,0 0,-2 -1,0 0,-3 -1,0 0,-2 -1,0 0,-2 -1,0 0,-2 -1,0 0,-3 -1,0 0,-2 -1,0 0,-2 -1,0 0,-2 -1,0 0,-3 -1,0 0,-2 -1,0 0,-2 -1,0 0,-2 -1,0 0,-3 -1,0 0,-2 -1,0 0,-2 -1,0 0,-3 -1,0 0,-2 -1,0 0,-2 -1,0 0,-3 -1,0 0,-2 -1,0 0,-2 -1,0 0,-3 -1,0 0,-2 -1,0 0,-2 -1,0 0,-2 -1,0 0,-3 -1,0 0,-2 -1,0 0,-2 -1,0 0,-3 -1,0 0,-2 -1,0 0,-2 -1,0 0,-3 -1,0 0,-2 -1,0 0,-3 -1,0 0,-2 -1,0 0,-2 -1,0 0,-3 -1,0 0,-2 -1,0 0,-3 -1,0 0,-2 -1,0 0,-3 -1,0 0,-2 -1,0 0,-2 -1,0 0,-3 -1,0 0,-2 -1,0 0,-3 -1,0 0,-2 -1,0 0,-2 -1,0 0,-3 -1,0 0,-2 -1,0 0,-3 -1,0 0,-2 -1,0 0,-3 -1,0 0,-2 -1,0 0,-3 -1,0 0,-2 -1,0 0,-3 -1,0 0,-2 -1,0 0,-3 -1,0 0,-2 -1,0 0,-3 -1,0 0,-2 -1,0 0,-3 -1,0 0,-2 -1,0 0,-3 -1,0 0,-2 -1,0 0,-3 -1,0 0,-2 -1,0 0,-3 -1,0 0,-2 -1,0 0,-3 -1,0 0,-3 -1,0 0,-2 -1,0 0,-3 -1,0 0,-3 -1,0 0,-2 -1,0 0,-3 -1,0 0,-2 -1,0 0,-3 -1,0 0,-3 -1,0 0,-2 -1,0 0,-3 -1,0 0,-3 -1,0 0,-2 -1,0 0,-3 -1,0 0,-2 -1,0 0,-3 -1,0 0,-3 -1,0 0,-2 -1,0 0,-3 -1,0 0,-3 -1,0 0,-2 -1,0 0,-3 -1,0 0,-3 -1,0 0,-3 -1,0 0,-2 -1,0 0,-3 -1,0 0,-3 -1,0 0,-3 -1,0 0,-2 -1,0 0,-3 -1,0 0,-3 -1,0 0,-3 -1,0 0,-2 -1,0 0,-3 -1,0 0,-3 -1,0 0,-3 -1,0 0,-2 -1,0 0,-3 -1,0 0,-3 -1,0 0,-3 -1,0 0,-3 -1,0 0,-3 -1,0 0,-3 -1,0 0,-3 -1,0 0,-2 -1,0 0,-3 -1,0 0,-3 -1,0 0,-3 -1,0 0,-3 -1,0 0,-3 -1,0 0,-3 -1,0 0,-3 -1,0 0,-3 -1,0 0,-3 -1,0 0,-2 -1,0 0,-3 -1,0 0,-3 -1,0 0,-3 -1,0 0,-3 -1,0 0,-3 -1,0 0,-4 -1,0 0,-3 -1,0 0,-3 -1,0 0,-3 -1,0 0,-3 -1,0 0,-3 -1,0 0,-3 -1,0 0,-3 -1,0 0,-3 -1,0 0,-3 -1,0 0,-3 -1,0 0,-3 -1,0 0,-3 -1,0 0,-3 -1,0 0,-3 -1,0 0,-3 -1,0 0,-4 -1,0 0,-3 -1,0 0,-3 -1,0 0,-3 -1,0 0,-4 -1,0 0,-3 -1,0 0,-3 -1,0 0,-3 -1,0 0,-4 -1,0 0,-3 -1,0 0,-3 -1,0 0,-3 -1,0 0,-4 -1,0 0,-3 -1,0 0,-3 -1,0 0,-3 -1,0 0,-4 -1,0 0,-3 -1,0 0,-4 -1,0 0,-3 -1,0 0,-4 -1,0 0,-3 -1,0 0,-4 -1,0 0,-3 -1,0 0,-4 -1,0 0,-3 -1,0 0,-4 -1,0 0,-3 -1,0 0,-4 -1,0 0,-3 -1,0 0,-4 -1,0 0,-3 -1,0 0,-4 -1,0 0,-3 -1,0 0,-4 -1,0 0,-4 -1,0 0,-3 -1,0 0,-4 -1,0 0,-4 -1,0 0,-4 -1,0 0,-3 -1,0 0,-4 -1,0 0,-4 -1,0 0,-4 -1,0 0,-3 -1,0 0,-4 -1,0 0,-4 -1,0 0,-4 -1,0 0,-3 -1,0 0,-4 -1,0 0,-4 -1,0 0,-4 -1,0 0,-5 -1,0 0,-4 -1,0 0,-4 -1,0 0,-4 -1,0 0,-4 -1,0 0,-4 -1,0 0,-4 -1,0 0,-4 -1,0 0,-4 -1,0 0,-4 -1,0 0,-5 -1,0 0,-4 -1,0 0,-4 -1,0 0,-4 -1,0 0,-5 -1,0 0,-4 -1,0 0,-5 -1,0 0,-4 -1,0 0,-5 -1,0 0,-4 -1,0 0,-5 -1,0 0,-5 -1,0 0,-4 -1,0 0,-5 -1,0 0,-4 -1,0 0,-5 -1,0 0,-4 -1,0 0,-5 -1,0 0,-5 -1,0 0,-5 -1,0 0,-6 -1,0 0,-5 -1,0 0,-5 -1,0 0,-5 -1,0 0,-5 -1,0 0,-5 -1,0 0,-5 -1,0 0,-5 -1,0 0,-5 -1,0 0,-6 -1,0 0,-6 -1,0 0,-5 -1,0 0,-6 -1,0 0,-6 -1,0 0,-6 -1,0 0,-6 -1,0 0,-5 -1,0 0,-6 -1,0 0,-6 -1,0 0,-6 -1,0 0,-6 -1,0 0,-7 -1,0 0,-7 -1,0 0,-7 -1,0 0,-7 -1,0 0,-6 -1,0 0,-7 -1,0 0,-7 -1,0 0,-7 -1,0 0,-7 -1,0 0,-7 -1,0 0,-7 -1,0 0,-8 -1,0 0,-8 -1,0 0,-9 -1,0 0,-9 -1,0 0,-8 -1,0 0,-10 -1,0 0,-10 -1,0 0,-10 -1,0 0,-10 -1,0 0,-9 -1,0 0,-10 -1,0 0,-10 -1,0 0,-11 -1,0 0,-10 -1,0 0,-11 -1,0 0,-11 -1,0 0,-12 -1,0 0,-12 -1,0 0,-12 -1,0 0,-12 -1,0 0,-13 -1,0 0,-12 -1,0 0,-13 -1,0 0,-15 -1,0 0,-14 -1,0 0,-15 -1,0 0,-15 -1,0 0,-14 -1,0 0,-18 -1,0 0,-19 -1,0 0,-18 -1,0 0,-19 -1,0 0,-21 -1,0 0,-25 -1,0 0,-25 -1,0 0,-27 -1,0 0,-39 -1,0 0,-40 -1,0 0,-207 1,0 0,-48 1,0 0,-34 1,0 0,-31 1,0 0,-24 1,0 0,-24 1,0 0,-23 1,0 0,-18 1,0 0,-18 1,0 0,-19 1,0 0,-18 1,0 0,-14 1,0 0,-15 1,0 0,-15 1,0 0,-15 1,0 0,-14 1,0 0,-13 1,0 0,-12 1,0 0,-12 1,0 0,-13 1,0 0,-12 1,0 0,-12 1,0 0,-11 1,0 0,-11 1,0 0,-11 1,0 0,-10 1,0 0,-11 1,0 0,-11 1,0 0,-10 1,0 0,-10 1,0 0,-9 1,0 0,-9 1,0 0,-10 1,0 0,-9 1,0 0,-10 1,0 0,-9 1,0 0,-9 1,0 0,-8 1,0 0,-9 1,0 0,-8 1,0 0,-9 1,0 0,-8 1,0 0,-9 1,0 0,-8 1,0 0,-8 1,0 0,-8 1,0 0,-7 1,0 0,-8 1,0 0,-8 1,0 0,-7 1,0 0,-8 1,0 0,-8 1,0 0,-8 1,0 0,-7 1,0 0,-7 1,0 0,-7 1,0 0,-7 1,0 0,-7 1,0 0,-7 1,0 0,-7 1,0 0,-7 1,0 0,-7 1,0 0,-7 1,0 0,-6 1,0 0,-7 1,0 0,-6 1,0 0,-7 1,0 0,-6 1,0 0,-7 1,0 0,-6 1,0 0,-7 1,0 0,-6 1,0 0,-7 1,0 0,-6 1,0 0,-6 1,0 0,-6 1,0 0,-6 1,0 0,-6 1,0 0,-6 1,0 0,-6 1,0 0,-6 1,0 0,-6 1,0 0,-6 1,0 0,-6 1,0 0,-6 1,0 0,-5 1,0 0,-6 1,0 0,-6 1,0 0,-5 1,0 0,-6 1,0 0,-6 1,0 0,-5 1,0 0,-6 1,0 0,-5 1,0 0,-6 1,0 0,-5 1,0 0,-6 1,0 0,-5 1,0 0,-5 1,0 0,-6 1,0 0,-5 1,0 0,-5 1,0 0,-5 1,0 0,-6 1,0 0,-5 1,0 0,-5 1,0 0,-6 1,0 0,-5 1,0 0,-5 1,0 0,-5 1,0 0,-5 1,0 0,-5 1,0 0,-5 1,0 0,-5 1,0 0,-5 1,0 0,-4 1,0 0,-5 1,0 0,-5 1,0 0,-5 1,0 0,-5 1,0 0,-5 1,0 0,-5 1,0 0,-5 1,0 0,-4 1,0 0,-5 1,0 0,-5 1,0 0,-4 1,0 0,-5 1,0 0,-5 1,0 0,-5 1,0 0,-4 1,0 0,-5 1,0 0,-5 1,0 0,-4 1,0 0,-5 1,0 0,-4 1,0 0,-4 1,0 0,-5 1,0 0,-4 1,0 0,-5 1,0 0,-4 1,0 0,-5 1,0 0,-4 1,0 0,-5 1,0 0,-4 1,0 0,-5 1,0 0,-4 1,0 0,-4 1,0 0,-5 1,0 0,-4 1,0 0,-4 1,0 0,-4 1,0 0,-5 1,0 0,-4 1,0 0,-4 1,0 0,-4 1,0 0,-5 1,0 0,-4 1,0 0,-4 1,0 0,-4 1,0 0,-4 1,0 0,-5 1,0 0,-4 1,0 0,-4 1,0 0,-4 1,0 0,-4 1,0 0,-4 1,0 0,-4 1,0 0,-4 1,0 0,-4 1,0 0,-4 1,0 0,-4 1,0 0,-4 1,0 0,-4 1,0 0,-4 1,0 0,-4 1,0 0,-4 1,0 0,-4 1,0 0,-4 1,0 0,-4 1,0 0,-4 1,0 0,-4 1,0 0,-3 1,0 0,-4 1,0 0,-4 1,0 0,-4 1,0 0,-4 1,0 0,-4 1,0 0,-4 1,0 0,-3 1,0 0,-4 1,0 0,-4 1,0 0,-4 1,0 0,-3 1,0 0,-4 1,0 0,-4 1,0 0,-4 1,0 0,-3 1,0 0,-4 1,0 0,-4 1,0 0,-4 1,0 0,-3 1,0 0,-4 1,0 0,-4 1,0 0,-3 1,0 0,-4 1,0 0,-3 1,0 0,-4 1,0 0,-4 1,0 0,-3 1,0 0,-4 1,0 0,-3 1,0 0,-4 1,0 0,-4 1,0 0,-3 1,0 0,-4 1,0 0,-3 1,0 0,-4 1,0 0,-3 1,0 0,-4 1,0 0,-3 1,0 0,-4 1,0 0,-3 1,0 0,-4 1,0 0,-3 1,0 0,-4 1,0 0,-3 1,0 0,-4 1,0 0,-3 1,0 0,-4 1,0 0,-3 1,0 0,-3 1,0 0,-4 1,0 0,-3 1,0 0,-4 1,0 0,-3 1,0 0,-3 1,0 0,-4 1,0 0,-3 1,0 0,-3 1,0 0,-4 1,0 0,-3 1,0 0,-3 1,0 0,-4 1,0 0,-3 1,0 0,-3 1,0 0,-4 1,0 0,-3 1,0 0,-3 1,0 0,-3 1,0 0,-4"
               id="path98"
               style="fill:url(#linearGradient88);fill-opacity:1;fill-rule:nonzero;stroke:none"
               inkscape:connector-curvature="0" /></g></g></g><g
         id="g100"><g
           clip-path="url(#clipPath104)"
           id="g102"><path
             d="m 3256.4,4100.73 34.9,-98.17 -69.94,0 35.04,98.17 z m -1864.37,0 34.83,-98.17 -69.91,0 35.08,98.17 z m 87.75,-135.29 -12.26,8.09 0,0.15 12.26,-8.24 z m 2356.27,-412.05 -1.93,5.81 -401.94,995.14 c -7.95,20.06 -26.15,33.68 -47.51,35.83 l -8.46,0.21 -242.49,0 c -23.93,-0.21 -44.14,-14.33 -52.89,-36.04 l -0.07,0 -346.69,-857.91 0,22.5 c -0.07,23.22 -8.31,45.07 -24,62.27 -15.69,17.27 -38.27,27.88 -62.35,27.88 l -314.4,0 c -53.25,0 -87.68,7.38 -110.07,17.7 -22.29,10.6 -34.83,23.07 -47.69,42.99 -24.73,39.41 -40.49,103.76 -40.56,164.96 l 0.14,1.01 -0.14,2.65 c -0.29,61.98 15.55,126.62 40.56,166.25 14.33,22.07 23.79,32.96 42.99,42.57 19.38,9.53 53.82,17.12 114.77,17.05 l 314.4,0 c 24.22,0 46.58,10.61 62.35,27.73 15.69,17.41 23.79,39.13 24,62.49 l 0,153.99 c -0.21,23.22 -8.31,44.94 -24,62.42 -15.77,17.06 -38.13,27.66 -62.35,27.73 l -357.33,0 c -71.91,-0.07 -135.9,-6.52 -195.49,-28.23 -59.48,-21.5 -112.9,-58.62 -161.2,-113.94 -96.84,-108.78 -140.45,-238.56 -139.63,-417.78 l 0,-1.93 c -0.07,-15.26 0.29,-30.1 0.87,-44.72 l -227.24,562.46 c -7.95,20.21 -26.3,33.9 -47.87,35.9 l -8.06,0.22 -242.53,0 c -24.26,-0.22 -44.68,-14.76 -53.24,-36.98 L 814.234,3559.34 c -3.082,-8.17 -4.046,-15.47 -4.046,-21.21 -0.145,-11.18 3.761,-23.36 9.992,-32.32 10.175,-15.33 29.707,-25.08 46.297,-24.79 l 1.105,0 266.648,0.07 1.54,0 c 22.82,0.57 43.75,16.12 51.31,36.91 l 62.67,174.05 284.63,0 62.31,-173.19 c 7.45,-21.86 29.56,-37.34 51.05,-37.77 l 2.05,0 266.61,-0.07 1.97,0 c 17.3,0 35.72,10.39 44.82,23.93 7.42,10.46 10.43,22.14 10.57,32.25 l -2.4,17.49 -1.61,4.65 -14.19,35.12 c 42.42,-42.71 88.71,-72.52 139.52,-91.01 59.66,-21.93 123.94,-28.45 196.14,-28.53 l 356.5,0 c 18.77,0.08 36.26,6.45 50.67,17.35 9.96,-7.1 21.71,-11.54 32.53,-11.32 l 1.07,0 266.72,0.07 1.5,0 c 22.87,0.57 43.72,16.05 51.25,36.9 l 62.69,174.07 284.64,0 62.27,-173.21 c 7.46,-21.85 29.59,-37.33 51.17,-37.76 l 2,0 266.58,-0.07 2,0 c 17.35,0 35.69,10.39 44.87,23.93 7.37,10.32 10.39,22.21 10.52,32.39 l -2.15,16.12"
             id="path108"
             style="fill:#2d5496;fill-opacity:1;fill-rule:nonzero;stroke:none"
             inkscape:connector-curvature="0" /><path
             d="m 2333.32,4307.9 314.4,0 c 11.32,0 22.29,4.87 30.1,13.54 7.95,8.68 12.61,20.71 12.61,32.83 l 0,154.06 c 0,12.11 -4.66,24.15 -12.61,32.75 -7.81,8.67 -18.78,13.54 -30.1,13.54 l -355.79,0 c -139.42,0.22 -235.97,-25.08 -325.33,-126.98 -89.69,-101.97 -128.96,-216.12 -128.81,-390.11 -0.15,-173.92 39.12,-288.58 128.63,-390.83 89.32,-102.26 185.52,-127.99 324.8,-127.99 l 356.5,0 c 11.32,0 22.29,4.8 30.1,13.54 7.95,8.6 12.61,20.57 12.61,32.75 l 0,154 c 0,12.18 -4.66,24.15 -12.61,32.75 -7.81,8.74 -18.78,13.61 -30.1,13.61 l -314.4,0 c -114.09,0 -163.11,30.89 -194.74,81.26 -31.03,50.24 -47.4,122.04 -47.26,190.98 -0.14,69.15 16.23,140.23 47.12,190.04 31.56,49.66 66.46,80.26 194.88,80.26"
             id="path110"
             style="fill:#ffffff;fill-opacity:1;fill-rule:nonzero;stroke:none"
             inkscape:connector-curvature="0" /><path
             d="m 1955.42,3637.02 c -91.8,104.55 -132.43,224.3 -132.22,399.51 l 0,1.86 c -0.21,175.49 40.42,294.73 132.36,398.71 91.65,105.27 194.91,132.57 334.76,132.14 l 357.4,0 c 15.62,0 30.39,-6.81 40.84,-18.27 10.61,-11.54 16.34,-26.8 16.34,-42.64 l 0,-154.06 c 0,-15.77 -5.73,-31.03 -16.34,-42.57 -10.45,-11.54 -25.22,-18.35 -40.84,-18.35 l -314.4,0 0,29.03 314.4,0 c 7.03,0 14.12,3.08 19.42,8.88 5.23,5.74 8.75,14.48 8.67,23.01 l 0,154.06 c 0.08,8.46 -3.44,17.2 -8.67,23.01 -5.3,5.73 -12.39,8.74 -19.42,8.74 l -357.4,0 c -137.26,-0.43 -226.3,-24.01 -312.8,-122.11 -87.03,-99.25 -124.97,-208.1 -125.19,-379.58 l 0,-1.8 c 0.22,-171.33 38.16,-280.62 125.05,-380.43 86.78,-98.61 175.89,-122.62 313.84,-123.12 l 356.5,0 c 7.03,0 14.12,3.09 19.42,8.89 5.23,5.73 8.75,14.4 8.67,23 l 0,153.93 c 0.08,8.67 -3.44,17.27 -8.74,22.93 -5.23,5.8 -12.32,8.88 -19.35,8.88 l -314.4,0 c -116.06,-0.71 -173.39,33.25 -207.21,88.15 -32.82,53.53 -49.3,126.91 -49.37,197.92 l 0,1.43 c 0.07,71.31 16.55,144.11 49.37,197.21 32.21,52.88 77.5,88.57 207.21,87.14 l 0,-29.03 c -127.17,-1.5 -151.6,-27.01 -182.56,-73.52 -28.84,-46.29 -45.04,-115.08 -44.9,-181.72 l 0,-1.44 c -0.14,-66.43 16.06,-135.94 45.04,-182.59 29.56,-45.79 70.3,-73.59 182.42,-74.31 l 314.4,0 c 15.62,0 30.39,-6.81 40.84,-18.34 10.47,-11.54 16.34,-26.81 16.34,-42.71 l 0,-153.93 c 0,-15.98 -5.87,-31.1 -16.34,-42.64 -10.45,-11.46 -25.22,-18.27 -40.84,-18.27 l -359.8,0 c -138.92,-0.07 -241.43,28.02 -332.5,133"
             id="path112"
             style="fill:#2d5496;fill-opacity:1;fill-rule:nonzero;stroke:none"
             inkscape:connector-curvature="0" /><path
             d="m 3344.26,3965.36 -12.33,-6.51 -151.34,0 -12.19,6.51 -1.72,13.91 75.82,212.54 13.9,9.82 13.97,-9.82 75.61,-212.54 -1.72,-13.91 m 449.44,-422.57 -402.01,995.21 -12.39,8.81 0,0.07 -1.51,-0.14 -244.07,0 -12.32,-8.67 -402.23,-995.28 -0.79,-4.73 2.43,-7.81 10.75,-5.52 267.15,0 12.04,8.67 69.22,192.55 13.91,9.82 325.19,0 13.9,-9.82 69.3,-192.55 11.96,-8.67 267.29,0 10.61,5.52 2.43,7.81 -0.86,4.73"
             id="path114"
             style="fill:#ffffff;fill-opacity:1;fill-rule:nonzero;stroke:none"
             inkscape:connector-curvature="0" /><path
             d="m 3180.16,3973.96 0.28,-0.5 0.15,-0.07 151.34,0 0.14,0.07 0.15,0.58 0,0.5 -75.53,212.25 -0.15,0.29 -0.28,-0.07 -76.1,-213.05 z m 0.43,-29.66 c -9.75,0 -18.92,4.73 -24.22,12.83 l -5.31,16.76 1.86,10.32 75.97,212.55 c 4.23,11.6 15.33,19.41 27.65,19.41 12.18,0 23.22,-7.73 27.52,-19.56 l 75.53,-212.32 1.79,-10.4 -5.09,-16.76 -12.18,8.17 12.18,-8.17 c -5.44,-8.17 -14.47,-12.98 -24.36,-12.98 l -151.34,0 0,0.15 z m 613.11,-401.44 0,14.55 0,-14.55 z m -14.32,-3.73 -401.16,992.99 -243.5,0 -401.29,-992.99 263.85,0 68.93,191.77 c 4.38,11.53 15.34,19.2 27.67,19.2 l 325.19,0 c 12.33,0 23.22,-7.6 27.66,-19.35 l 68.93,-191.62 263.72,0 z m 2.14,-29.09 -0.79,0 -267.21,0.07 c -10.82,0.29 -21.22,7.52 -24.95,18.28 l -69.21,192.33 -0.29,0.28 -325.34,0 -0.15,-0.06 -69.36,-192.77 c -3.72,-10.54 -13.83,-17.77 -25.51,-18.13 l -267.36,0 c -8.53,-0.07 -17.56,4.37 -22.72,12.04 l -4.87,15.83 1.87,10.33 402.01,994.85 c 4.01,10.82 14.19,18.13 26.08,18.13 l 243.07,-0.07 1.43,0.28 2.43,-0.21 c 10.76,-0.65 20.43,-7.38 24.52,-17.7 l 402.01,-995.22 -0.15,-0.06 0.15,0.06 0.64,-2.22 1.22,-8.38 -5.16,-16.05 c -4.73,-6.95 -13.33,-11.61 -21.93,-11.61 l -0.43,0"
             id="path116"
             style="fill:#2d5496;fill-opacity:1;fill-rule:nonzero;stroke:none"
             inkscape:connector-curvature="0" /><path
             d="m 1479.78,3965.36 -12.26,-6.51 -151.38,0 -12.18,6.51 -1.68,13.91 75.81,212.54 13.94,9.82 13.94,-9.82 75.49,-212.54 -1.68,-13.91 m 449.44,-422.57 -402.04,995.21 -12.4,8.81 0,0.07 -1.4,-0.14 -244.14,0 -12.33,-8.67 -402.187,-995.35 -0.785,-4.73 2.394,-7.82 10.785,-5.58 267.113,0 12.04,8.74 69.19,192.55 13.93,9.82 325.31,0 13.86,-9.82 69.26,-192.55 11.97,-8.74 267.25,0 10.65,5.58 2.43,7.82 -0.9,4.8"
             id="path118"
             style="fill:#ffffff;fill-opacity:1;fill-rule:nonzero;stroke:none"
             inkscape:connector-curvature="0" /><path
             d="m 1479.78,3965.44 -12.05,8.09 0.08,0.36 -0.08,0.58 -75.34,212.25 -0.29,0.29 -0.22,-0.07 -76.1,-212.83 0.22,-0.65 0.21,-0.07 151.38,0 0.08,0.07 12.11,-8.02 z m -163.57,-21.14 c -9.75,0 -18.92,4.73 -24.29,12.83 l -5.27,16.76 1.83,10.32 75.96,212.55 c 4.23,11.68 15.34,19.49 27.66,19.41 12.25,0.08 23.25,-7.81 27.59,-19.56 l 75.49,-212.26 1.83,-10.53 -5.27,-16.77 c -5.45,-8.02 -14.37,-12.82 -24.15,-12.82 l -151.38,0 0,0.07 z m 613.01,-401.44 0,14.55 0,-14.55 z m -14.22,-3.8 -401.19,993.06 -243.6,0 -401.226,-993.06 263.926,0.07 68.9,191.77 c 4.33,11.53 15.33,19.2 27.58,19.2 l 325.31,0 c 12.25,0 23.25,-7.6 27.59,-19.35 l 68.9,-191.62 263.81,-0.07 z m 2.04,-29.09 -0.71,0 -267.19,0.07 c -10.85,0.36 -21.21,7.59 -25.01,18.35 l -69.15,192.33 -0.28,0.28 -325.45,0 -0.07,-0.06 -69.33,-192.77 c -3.83,-10.54 -13.87,-17.77 -25.62,-18.13 l -266.648,-0.07 -0.605,0 c -8.563,-0.07 -17.59,4.44 -22.68,12.03 l -4.981,15.91 1.899,10.33 401.975,994.92 c 4.12,10.75 14.26,18.06 26.05,18.06 l 243.1,-0.07 1.4,0.28 2.8,-0.21 c 10.64,-0.72 20.1,-7.46 24.14,-17.7 l 402.05,-995.28 -0.07,0 0.07,0 0.65,-1.8 1.25,-8.74 -5.12,-15.98 c -4.77,-7.02 -13.44,-11.68 -22.04,-11.68 l -0.43,0"
             id="path120"
             style="fill:#2d5496;fill-opacity:1;fill-rule:nonzero;stroke:none"
             inkscape:connector-curvature="0" /><path
             d="m 3494.74,2189.78 c -14.91,14.84 -35.54,23.43 -56.61,23.43 l -88.14,0 c -17.92,0 -35.55,-6.16 -49.59,-17.26 -13.76,10.82 -31.17,17.26 -49.66,17.26 l -117.02,0 c -21.21,0 -41.85,-8.59 -56.76,-23.43 l -12.32,-16.76 c -44.86,32.67 -97.38,46.43 -146.48,46.35 -49.01,0 -101.54,-13.68 -146.47,-46.35 l -12.32,16.76 c -14.91,14.84 -35.54,23.43 -56.62,23.43 l -88.13,0 c -17.92,0 -35.55,-6.38 -49.59,-17.26 -13.84,10.82 -31.25,17.26 -49.74,17.26 l -117.02,0 c -14.97,0 -29.48,-4.58 -42.13,-12.39 l -0.08,0.21 c -20.67,6.88 -63.45,18.49 -122.25,18.34 -71.23,0.3 -135.58,-17.56 -185.42,-53.6 -3.97,8.89 -9.31,17.13 -16.23,24.01 -14.87,14.84 -35.57,23.43 -56.64,23.43 l -100.97,0 -16.05,-1.72 -15.8,1.72 -102.51,0 c -24.12,0 -46.37,-10.89 -61.2,-28.51 -14.8,17.54 -36.98,28.51 -61.27,28.51 l -106.85,0 c -16.12,0 -31.67,-4.94 -44.75,-13.83 -12.9,8.61 -28.23,13.83 -44.46,13.83 l -111.18,0 c -34.11,0 -64.43,-21.64 -75.64,-53.74 l -124.62,-357.08 c -8.56,-24.58 -4.69,-51.67 10.36,-72.81 15.05,-21.13 39.34,-33.68 65.32,-33.68 l 96.63,0 c 34.86,0 65.75,22.72 76.32,55.89 l 0.72,2.15 c 9.85,-34.39 41.16,-58.04 77.07,-58.04 l 104.19,0 c 14.55,0 28.48,4.22 40.66,11.26 12.01,-7.1 25.91,-11.26 40.57,-11.26 l 109.56,0 c 30.74,0 58.26,17.49 71.7,44.36 3.79,-7.67 8.49,-14.76 14.58,-20.86 14.91,-14.9 35.51,-23.43 56.65,-23.43 l 100.97,0 c 21.35,0 41.56,8.32 56.64,23.43 6.99,7.1 12.44,15.2 16.38,24.02 51.81,-37.2 115.19,-53.61 180.44,-53.61 49.09,0.78 90.33,7.02 125.76,19.35 12.94,-8.39 28.05,-13.19 43.53,-13.19 l 88.08,0 c 18.05,0 35.11,5.87 49.08,16.84 13.83,-10.75 30.89,-16.84 49.16,-16.84 l 118.16,0 c 21.36,0 41.5,8.32 56.62,23.43 l 12.4,16.7 c 44.85,-32.61 97.38,-46.29 146.39,-46.29 l 0.37,0 c 48.94,0 101.32,13.83 146.11,46.29 l 12.32,-16.7 c 14.98,-14.9 35.55,-23.43 56.76,-23.43 l 88,0 c 17.99,0 35.11,5.87 49.16,16.84 13.68,-10.75 30.81,-16.84 49.15,-16.84 l 118.1,0 c 21.35,0 41.56,8.32 56.61,23.43 15.19,15.13 23.43,35.33 23.43,56.55 l 0,357.14 c 0,21.08 -8.52,41.71 -23.43,56.69 m -1926.4,88.71 96.64,0 c 34.86,0 65.75,22.58 76.32,55.76 l 0.82,2.36 c 9.75,-34.4 41.02,-58.12 76.96,-58.12 l 104.2,0 14.9,1.51 15.34,-1.51 100.97,0 c 13.43,0 26.33,3.3 37.87,9.47 11.28,-6.1 24.22,-9.47 37.8,-9.47 l 104.19,0 c 7.35,0 14.51,1.08 21.43,3.01 6.73,-1.79 13.58,-3.01 20.53,-3.01 l 224.51,0 c 6.59,0 13.12,1.08 19.41,2.66 l 19.28,-2.66 236.77,0 c 11.75,0 22.86,2.66 33.1,7.39 22.37,-5.24 60.91,-13.55 107.64,-13.55 l 0.65,0 c 55.53,0.15 109.7,12.11 155,46.37 45.57,33.75 72.8,93.01 71.66,151.98 0.56,41 -13.19,82.13 -37.2,110.51 l -5.8,6.59 c 9.96,12.69 16.05,28.23 17.05,44.79 l 4.37,70.07 c 2.08,34.76 -18.7,67.22 -51.24,79.62 -46.35,17.35 -90,19.43 -123.25,19.71 -43.28,-0.15 -85.49,-8.52 -122.82,-29.02 -14.9,14.4 -35.25,22.86 -56.04,22.86 l -229.89,0 c -21.06,0 -41.7,-8.6 -56.61,-23.36 -14.9,-14.91 -23.5,-35.55 -23.5,-56.69 l 0,-204.38 -2.01,0 0,204.38 c 0,21.14 -8.59,41.78 -23.5,56.69 -14.91,14.76 -35.47,23.36 -56.61,23.36 l -100.97,0 c -21.14,0 -41.74,-8.6 -56.65,-23.36 l -1.9,-2.37 c -35.83,19.63 -75.06,25.58 -114.47,25.8 l -149.77,0 c -21.14,0 -41.74,-8.6 -56.72,-23.29 -7.99,-8.1 -14.01,-17.85 -17.99,-28.45 -11.75,30.89 -41.45,51.74 -74.78,51.74 l -111.07,0 c -34.14,0 -64.45,-21.5 -75.67,-53.61 l -124.51,-357.08 c -8.6,-24.58 -4.8,-51.66 10.25,-72.8 15.05,-21.36 39.34,-33.9 65.31,-33.9"
             id="path122"
             style="fill:#305aad;fill-opacity:1;fill-rule:nonzero;stroke:none"
             inkscape:connector-curvature="0" /><path
             d="m 1747.68,2643.03 -1.01,0 -40.31,-140.17 74.13,0 -32.81,140.17 z m 51.59,-208.68 -110.07,0 -24.22,-75.81 -96.64,0 124.62,357.15 111.15,0 119.17,-357.15 -104.12,0"
             id="path124"
             style="fill:#ffffff;fill-opacity:1;fill-rule:nonzero;stroke:none"
             inkscape:connector-curvature="0" /><path
             d="m 2079.67,2566.79 c 21.5,0 41.39,15.33 41.39,38.4 0,24.58 -13.44,42 -43.03,42 l -27.88,0 0,-80.48 29.52,0 0,0.08 z m 22.58,-106.93 c -9.68,34.26 -26.34,38.42 -42.39,38.42 l -5.37,0 0,-139.67 -100.97,0 0,357.08 149.77,0 c 75.7,0 118.74,-30.16 118.74,-96.17 0,-52.81 -39.27,-74.31 -71.99,-81.84 l 0,-1.57 c 21.43,-6.66 35.44,-16.34 50.49,-65.93 l 33.82,-111.57 -104.19,0"
             id="path126"
             style="fill:#ffffff;fill-opacity:1;fill-rule:nonzero;stroke:none"
             inkscape:connector-curvature="0" /><path
             d="m 2276.31,2715.69 100.97,0 0,-284.41 123.54,0 0,-72.67 -224.51,0"
             id="path128"
             style="fill:#ffffff;fill-opacity:1;fill-rule:nonzero;stroke:none"
             inkscape:connector-curvature="0" /><path
             d="m 2539.51,2715.69 229.89,0 0,-70.58 -130.99,0 0,-68.66 124.47,0 0,-70.5 -124.47,0 0,-76.75 137.87,0 0,-70.59 -236.77,0"
             id="path130"
             style="fill:#ffffff;fill-opacity:1;fill-rule:nonzero;stroke:none"
             inkscape:connector-curvature="0" /><path
             d="m 2823.64,2444.53 c 12.4,-6.66 48.88,-21.49 84.86,-21.49 38.19,0 51.52,15.83 51.52,38.4 0,23.43 -16.63,30.17 -45.58,40.92 l -22.08,8.17 c -61.62,22.93 -80.47,54.75 -80.47,105.42 0,67.5 56.9,105.9 136.37,105.9 28.45,0 63.93,-2.57 94.52,-14.33 l -4.37,-70.15 c -17.63,8.74 -48.3,17.98 -77.25,17.98 -30.1,0 -48.37,-11.82 -48.37,-33.82 0,-18.42 9.67,-26.58 43.07,-40.92 l 45,-19.49 c 33.83,-14.9 63.42,-37.33 63.42,-90.44 0,-78.32 -59.12,-118.23 -146.61,-118.23 -45.15,0 -81.05,9.17 -99.9,13.83"
             id="path132"
             style="fill:#ffffff;fill-opacity:1;fill-rule:nonzero;stroke:none"
             inkscape:connector-curvature="0" /><path
             d="m 1365.22,2060.44 -1,0 -40.38,-140.17 74.21,0 -32.83,140.17 z m 51.6,-208.75 -110.14,0 -24.15,-75.53 -96.63,0 124.58,356.93 111.18,0 119.17,-356.93 -104.19,0"
             id="path134"
             style="fill:#ffffff;fill-opacity:1;fill-rule:nonzero;stroke:none"
             inkscape:connector-curvature="0" /><path
             d="m 1510.87,2133.03 106.85,0 60.2,-255.76 1.07,0 61.2,255.76 102.61,0 -111.18,-357.02 -109.56,0"
             id="path136"
             style="fill:#ffffff;fill-opacity:1;fill-rule:nonzero;stroke:none"
             inkscape:connector-curvature="0" /><path
             d="m 1874.55,1775.95 100.969,0 0,357.082 -100.969,0 0,-357.082 z"
             id="path138"
             style="fill:#ffffff;fill-opacity:1;fill-rule:nonzero;stroke:none"
             inkscape:connector-curvature="0" /><path
             d="m 2196.77,1982.62 145.51,0 0,-192.85 c -21.51,-10.24 -65.47,-19.84 -113.3,-19.84 -115.41,0 -202.37,63.2 -202.37,182.44 0,108.14 66.53,186.75 207.2,186.75 48.88,0 81.62,-9.25 97.24,-14.27 l -5.44,-76.17 c -19.28,11.76 -47.76,19.85 -82.08,19.85 -77.87,0 -112.8,-47.08 -112.8,-116.66 0,-69.58 37.05,-109.5 84.31,-109.5 12.9,0 24.72,1.58 32.71,6.16 l 0,67.58 -50.98,0"
             id="path140"
             style="fill:#ffffff;fill-opacity:1;fill-rule:nonzero;stroke:none"
             inkscape:connector-curvature="0" /><path
             d="m 2488.5,2023.6 -2.15,0 0,-247.59 -88.08,0 0,357.02 117.02,0 98.32,-246.01 1.01,0 0,246.01 88.13,0 0,-357.02 -118.16,0"
             id="path142"
             style="fill:#ffffff;fill-opacity:1;fill-rule:nonzero;stroke:none"
             inkscape:connector-curvature="0" /><path
             d="m 2917.16,1838.36 0.51,0 c 42.35,0 62.84,45.57 62.84,116.16 0,69.58 -20.49,116.09 -62.84,116.09 -42.93,0 -63.35,-46.51 -63.35,-116.09 0,-70.59 20.42,-116.16 62.84,-116.16 m 1,300.83 c 81.69,0 166.55,-52.17 166.55,-184.67 0,-132.5 -84.86,-184.74 -166.55,-184.74 -81.54,0 -166.39,52.24 -166.39,184.74 0,132.5 84.85,184.67 166.39,184.67"
             id="path144"
             style="fill:#ffffff;fill-opacity:1;fill-rule:nonzero;stroke:none"
             inkscape:connector-curvature="0" /><path
             d="m 3223.87,2023.6 -2.15,0 0,-247.59 -88,0 0,357.02 117.02,0 98.24,-246.01 1.15,0 0,246.01 88,0 0,-357.02 -118.1,0"
             id="path146"
             style="fill:#ffffff;fill-opacity:1;fill-rule:nonzero;stroke:none"
             inkscape:connector-curvature="0" /></g></g></g></g></svg>