<?xml version="1.0" encoding="UTF-8" standalone="no"?>
<svg
   width="2500"
   height="2500"
   viewBox="0 0 192.756 192.756"
   version="1.1"
   id="svg19"
   sodipodi:docname="Arsenal.svg"
   xmlns:inkscape="http://www.inkscape.org/namespaces/inkscape"
   xmlns:sodipodi="http://sodipodi.sourceforge.net/DTD/sodipodi-0.dtd"
   xmlns="http://www.w3.org/2000/svg"
   xmlns:svg="http://www.w3.org/2000/svg">
  <defs
     id="defs19" />
  <sodipodi:namedview
     id="namedview19"
     pagecolor="#ffffff"
     bordercolor="#000000"
     borderopacity="0.25"
     inkscape:showpageshadow="2"
     inkscape:pageopacity="0.0"
     inkscape:pagecheckerboard="0"
     inkscape:deskcolor="#d1d1d1" />
  <g
     fill-rule="evenodd"
     clip-rule="evenodd"
     id="g19">
    <path
       fill="#ffffff"
       fill-opacity="0"
       d="M 0,0 H 192.756 V 192.756 H 0 Z"
       id="path1" />
    <path
       d="m 96.378,12.677 c 22.282,0 43.854,4.584 64.131,13.617 4.215,17.152 6.871,35.043 6.932,46.767 0.002,0.211 0.002,0.423 0.002,0.635 0,11.554 -1.662,22.842 -4.941,33.563 a 109.644,109.644 0 0 1 -14.258,29.67 c -6.133,9.001 -13.695,17.261 -22.479,24.551 -9.322,7.739 -20.283,14.697 -29.387,18.667 -9.104,-3.97 -20.065,-10.928 -29.39,-18.667 -8.782,-7.29 -16.346,-15.55 -22.477,-24.551 A 109.64,109.64 0 0 1 30.254,107.259 C 26.974,96.537 25.312,85.249 25.312,73.693 l 0.002,-0.632 C 25.375,61.339 28.029,43.447 32.245,26.294 52.521,17.261 74.096,12.677 96.378,12.677 Z"
       fill="#ffffff"
       id="path2" />
    <path
       d="m 96.381,78.662 c 4.931,0 9.582,1.271 13.599,3.522 h 41.406 c 0.084,-2.895 0.033,-6.146 -0.025,-9.22 -0.242,-12.679 -3.928,-34.082 -7.541,-48.929 -14.686,-4.753 -30.445,-7.536 -47.431,-7.536 z"
       fill="#c42333"
       id="path3" />
    <path
       d="m 96.39,16.548 c -16.607,0 -31.899,2.478 -47.397,7.467 -3.812,15.386 -6.965,35.759 -7.438,45.539 -0.692,14.323 0.345,24.674 3.213,36.006 1.611,6.369 3.751,12.358 6.477,18.422 2.943,-1.549 6.004,-3.487 9.088,-5.79 3.243,-2.419 6.058,-5.508 8.363,-8.441 a 28.014,28.014 0 0 1 0.245,-8.134 c -5.728,0.2 -8.982,0.274 -11.536,0.274 -3.081,0 -5.891,-2.145 -7.254,-5.429 h -1.442 c -1.088,0 -2.932,-0.929 -2.932,-4.414 0,-3.483 1.844,-4.413 2.932,-4.413 h 1.438 c 1.363,-3.294 4.176,-5.446 7.259,-5.446 h 25.389 a 27.75,27.75 0 0 1 13.592,-3.532 z"
       fill="#c9222e"
       id="path4" />
    <path
       d="m 71.172,156.024 c -7.827,-7.795 -14.291,-16.41 -19.406,-25.606 -5.191,-9.334 -8.877,-19.729 -11.054,-30.12 -2.239,-10.689 -2.943,-21.487 -2.191,-32.93 0.707,-10.775 3.55,-27.094 7.062,-42.192 a 154.079,154.079 0 0 0 -9.991,3.905 c -3.694,14.833 -6.288,33.651 -6.341,43.939 -0.06,11.467 1.572,22.577 4.767,33.025 3.352,10.954 7.795,19.869 13.746,28.604 5.924,8.695 13.238,16.681 21.738,23.736 7.942,6.594 17,12.392 26.867,17.281 -0.001,0.001 0.001,-0.001 0,0 -9.384,-5.761 -17.883,-12.358 -25.197,-19.642 z m 50.4,0.004 c 7.826,-7.795 14.291,-16.411 19.404,-25.607 5.191,-9.334 8.877,-19.729 11.055,-30.119 2.238,-10.689 2.943,-21.487 2.191,-32.93 -0.707,-10.776 -3.559,-27.111 -7.07,-42.208 a 154.505,154.505 0 0 1 10.008,3.914 c 3.695,14.832 6.279,33.658 6.332,43.946 0.061,11.468 -1.572,22.578 -4.768,33.025 a 105.704,105.704 0 0 1 -13.746,28.604 c -5.924,8.694 -13.238,16.682 -21.738,23.737 -7.941,6.592 -16.998,12.391 -26.866,17.28 0,0.001 -10e-4,-10e-4 0,0 9.386,-5.762 17.884,-12.358 25.198,-19.642 z"
       fill="#3b5694"
       id="path5" />
    <path
       d="m 96.358,80.054 c -14.628,0 -26.487,11.858 -26.487,26.484 0,14.629 11.859,26.487 26.487,26.487 14.626,0 26.486,-11.858 26.486,-26.487 0,-14.626 -11.86,-26.484 -26.486,-26.484 z"
       fill="#b9a75b"
       id="path6" />
    <path
       d="m 96.378,134.408 c -9,0 -17.019,-4.269 -22.116,-10.889 -6.224,3.553 -12.758,6.355 -19.015,8.274 4.937,8.679 11.075,16.792 18.45,24.217 6.655,6.702 14.272,12.824 22.681,18.272 z"
       fill="#c9222e"
       id="path7" />
    <path
       d="m 57.38,100.511 c -2.865,0 -5.316,-2.257 -6.288,-5.429 h -2.408 c -0.623,0 -1.546,-0.754 -1.546,-3.028 0,-2.274 0.923,-3.028 1.546,-3.028 h 2.405 c 0.972,-3.178 3.424,-5.446 6.291,-5.446 h 23.163 c -5.623,3.882 -9.749,9.778 -11.339,16.642 -5.13,0.178 -9.065,0.289 -11.824,0.289 z"
       fill="#b9a75b"
       id="path8" />
    <path
       d="M 161.09,25.742 C 141.418,16.929 119.77,11.934 96.379,11.934 c -23.391,0 -45.042,4.995 -64.713,13.808 -4.537,18.361 -6.973,36.172 -7.03,47.251 -0.062,11.846 1.609,23.417 4.969,34.398 a 110.363,110.363 0 0 0 14.345,29.854 c 6.168,9.051 13.774,17.359 22.606,24.69 8.308,6.896 19.56,14.462 29.823,18.888 10.262,-4.426 21.514,-11.992 29.821,-18.888 8.834,-7.331 16.439,-15.64 22.607,-24.69 a 110.33,110.33 0 0 0 14.344,-29.854 c 3.361,-10.98 5.033,-22.552 4.971,-34.398 -0.06,-11.079 -2.495,-28.89 -7.032,-47.251 z m -16.102,108.901 c -5.924,8.696 -13.238,16.682 -21.738,23.737 -7.943,6.593 -17.012,12.395 -26.879,17.284 -9.867,-4.89 -18.922,-10.691 -26.865,-17.284 -8.5,-7.056 -15.814,-15.041 -21.739,-23.737 -0.469,-0.688 -0.927,-1.384 -1.379,-2.083 8.655,-1.461 18.222,-5.134 27.054,-10.168 a 27.707,27.707 0 0 1 -4.495,-10.773 c -2.213,2.719 -4.851,5.478 -7.861,7.725 -4.883,3.646 -10.78,7.264 -17.158,9.226 A 105.411,105.411 0 0 1 34.022,106.04 C 30.827,95.597 29.195,84.486 29.255,73.019 c 0.054,-10.288 2.647,-29.107 6.34,-43.94 19.234,-8.303 39.672,-12.523 60.783,-12.523 21.11,0 41.549,4.221 60.782,12.523 3.695,14.833 6.287,33.652 6.342,43.94 a 115.16,115.16 0 0 1 -0.43,10.567 l -50.92,-0.002 c 6.299,4.346 10.719,11.217 11.801,19.154 l 9.709,-2.313 c 2.168,-0.488 3.064,-1.951 3.289,-3.29 l 24.43,-1.653 a 108.269,108.269 0 0 1 -2.646,10.559 105.767,105.767 0 0 1 -13.747,28.602 z"
       fill="#b9a75b"
       id="path9" />
    <path
       d="m 98.117,113.862 v 14.271 c 6.66,-0.534 12.469,-4.08 16.068,-9.275 l -12.357,-7.135 a 7.526,7.526 0 0 1 -3.711,2.139 z M 94.608,84.943 c -6.665,0.534 -12.478,4.083 -16.076,9.282 l 12.334,7.117 a 7.514,7.514 0 0 1 3.742,-2.162 z m 1.747,17.738 a 3.851,3.851 0 1 0 0,7.702 3.85,3.85 0 0 0 3.848,-3.852 3.849,3.849 0 0 0 -3.848,-3.85 z M 98.117,84.943 V 99.18 a 7.516,7.516 0 0 1 3.738,2.162 l 12.334,-7.116 c -3.597,-5.199 -9.408,-8.747 -16.072,-9.283 z m -3.509,28.92 a 7.5,7.5 0 0 1 -3.714,-2.14 l -12.357,7.135 c 0.283,0.408 0.582,0.807 0.891,1.193 3.629,4.54 9.043,7.59 15.181,8.082 v -14.27 z m 8.986,-5.174 12.35,7.131 c 2.432,-4.987 3.109,-12.12 0.004,-18.556 l -12.344,7.12 a 7.5,7.5 0 0 1 -0.01,4.305 z"
       fill="#ffffff"
       id="path10" />
    <path
       d="m 80.584,93.823 10.064,5.801 a 8.627,8.627 0 0 1 2.577,-1.478 L 93.22,86.526 a 19.923,19.923 0 0 0 -12.636,7.297 z m 18.939,-7.286 -0.02,11.646 c 0.939,0.344 1.777,0.798 2.545,1.439 l 10.088,-5.798 A 19.854,19.854 0 0 0 99.523,86.537 Z m 17.024,17.899 a 19.76,19.76 0 0 0 -1.266,-5.176 l -10.102,5.808 a 7.729,7.729 0 0 1 0.104,2.041 157.803,157.803 0 0 1 8.908,-2.166 329.85,329.85 0 0 0 2.356,-0.507 z"
       fill="#b9a75b"
       id="path11" />
    <path
       d="m 96.378,174.283 c 8.411,-5.448 16.043,-11.589 22.698,-18.29 7.799,-7.854 14.23,-16.521 19.303,-25.764 5.15,-9.384 8.787,-19.817 10.91,-30.241 0.164,-0.806 0.318,-1.575 0.463,-2.38 l -11.732,0.84 c -0.621,1.646 -2.023,2.864 -3.994,3.307 l 0.02,-0.004 c -0.08,0.019 -4.379,1.088 -9.926,2.365 0.068,0.797 0.104,1.604 0.104,2.418 0,15.396 -12.461,27.874 -27.844,27.874 v 39.875 z"
       fill="#c42333"
       id="path12" />
    <path
       d="m 98.834,106.53 a 2.483,2.483 0 0 0 -2.479,-2.479 2.483,2.483 0 0 0 -2.48,2.479 2.484,2.484 0 0 0 2.48,2.482 2.484,2.484 0 0 0 2.479,-2.482 z"
       fill="#b9a75b"
       id="path13" />
    <path
       d="m 99.5,126.549 a 19.947,19.947 0 0 0 12.646,-7.286 l -10.133,-5.83 a 8.5,8.5 0 0 1 -2.514,1.467 c 0.001,-0.001 0.019,11.65 0.001,11.649 z"
       fill="#c42333"
       id="path14" />
    <path
       d="m 80.59,119.265 10.089,-5.84 a 8.632,8.632 0 0 0 2.545,1.457 L 93.2,126.545 a 19.869,19.869 0 0 1 -12.61,-7.28 z"
       fill="#c9222e"
       id="path15" />
    <path
       d="m 116.643,106.552 c 0,-0.273 -0.006,-0.549 -0.018,-0.822 -0.762,0.167 -1.494,0.324 -2.184,0.47 a 152.887,152.887 0 0 0 -8.723,2.13 l 9.547,5.511 a 19.807,19.807 0 0 0 1.378,-7.289 z"
       fill="#c42333"
       id="path16" />
    <path
       d="m 76.763,97.283 c -2.858,6.045 -2.677,12.854 0.04,18.564 l 12.315,-7.149 a 7.526,7.526 0 0 1 -0.011,-4.322 z"
       fill="#ffffff"
       id="path17" />
    <path
       d="m 77.477,113.868 10.044,-5.837 a 8.587,8.587 0 0 1 0.002,-2.97 L 77.444,99.276 a 19.922,19.922 0 0 0 0.033,14.592 z m 28.972,-52.691 c -0.027,0.546 -0.166,2.371 -0.213,2.916 h 8.025 c -0.469,-2.149 -0.66,-5.122 -0.744,-7.342 l -0.123,-4.631 c -0.016,-0.443 0.109,-0.809 0.363,-1.075 a 1.23,1.23 0 0 1 0.873,-0.386 c 0.375,-0.005 1.004,-0.012 1.053,1.296 l 0.174,4.925 c 0.082,2.217 0.113,5.327 -0.18,7.213 h 7.824 c -0.129,-0.673 -0.352,-2.288 -0.404,-2.732 0.982,2.081 3.084,3.147 5.902,3.147 1.668,0 2.969,-0.6 3.92,-1.193 l 0.404,0.778 h 14.451 c -0.643,-2.174 -1.039,-5.189 -1.293,-7.431 0,-0.011 -1.977,-16.19 -1.977,-16.19 l -7.445,-1.201 c 0.6,2.022 1.047,5.122 1.299,7.352 l 1.115,10.344 c 0.213,1.886 0.406,3.905 0.389,5.936 l -0.002,0.251 -0.297,-0.731 c -0.514,-1.261 -0.848,-3.034 -1.021,-5.421 l -0.311,-3.321 c -0.391,-5.255 -3.285,-7.653 -9.562,-7.653 -1.068,0 -3.734,0.267 -5.352,0.73 l 0.436,5.987 1.672,-1.028 c 1.371,-0.841 2.475,-1.2 3.691,-1.2 0.996,0 1.645,0.374 1.947,1.053 a 15.78,15.78 0 0 0 -4.023,1.183 c -2.219,0.994 -3.67,2.425 -4.252,4.143 l -0.006,-0.145 -0.256,-5.487 c -0.133,-3.546 -2.342,-5.757 -5.764,-5.757 -1.578,0 -2.98,0.452 -4.199,1.326 a 4.606,4.606 0 0 0 -0.225,-0.596 l -0.303,-0.636 -6.428,-0.295 c 0.291,1.156 0.688,4.382 0.773,5.647 -0.342,-1.745 -1.252,-3.605 -2.98,-4.809 -1.311,-0.913 -2.957,-1.396 -4.762,-1.396 -2.388,0 -4.795,1.001 -6.442,2.68 -1.627,1.658 -2.522,3.929 -2.614,6.599 -0.607,-0.665 -1.411,-1.233 -2.416,-1.701 l -2.954,-1.407 -0.147,-0.071 c -0.709,-0.331 -0.734,-0.446 -0.718,-0.636 0.024,-0.303 0.705,-0.628 1.677,-0.628 1.213,0 2.97,0.612 4.392,1.522 l 0.119,-5.285 c -1.051,-0.477 -2.521,-0.864 -4.621,-0.864 -1.095,0 -3.204,0.153 -5.02,1.181 -0.501,0.284 -0.956,0.61 -1.356,0.968 l 0.081,-1.553 C 76.91,45.36 75.076,45.309 72.838,47.382 A 9.001,9.001 0 0 0 72.521,46.1 l -6.942,0.425 c 0.517,1.859 0.579,4.679 0.439,7.193 a 3618.279,3618.279 0 0 0 -0.15,2.951 c -0.078,1.385 -0.157,2.799 -0.297,4.123 -0.578,-1.793 -1.216,-4.24 -1.697,-6.276 l -3.428,-15.431 -9.79,1.4 c 0.084,0.197 0.223,0.697 0.288,1.185 0.085,0.646 0.059,1.983 -0.873,4.696 -1.571,4.576 -3.834,11.334 -5.992,16 -0.302,0.653 -0.818,1.726 -0.818,1.726 h 7.626 c 0.098,-1.194 0.601,-3.167 1.092,-4.601 l 5.094,-0.134 c 0.238,1.107 0.553,2.678 0.62,3.594 l 0.083,1.141 H 73.12 c -0.363,-2.408 -0.223,-5.738 -0.117,-7.626 0.119,-2.146 0.568,-3.516 1.456,-4.44 0.688,-0.715 1.509,-0.887 2.083,-0.904 -0.079,2.871 1.81,4.209 3.489,5.052 l 2.999,1.527 c 1.079,0.564 1.056,0.854 1.042,1.045 -0.044,0.576 -0.911,0.8 -1.708,0.782 -1.563,-0.034 -3.724,-1.113 -6.162,-3.633 l -0.13,6.834 c 1.932,1.086 4.272,1.477 6.402,1.477 3.477,0 7.209,-1.512 8.215,-4.754 1.713,3.275 5.138,4.787 8.512,4.787 3.02,-0.001 5.276,-0.972 7.248,-3.062 z m -52.597,-6.843 1.386,-3.99 c 0.408,1.936 0.621,2.951 0.823,3.917 z m 42.854,-1.715 -0.001,-0.056 c 0,-2.326 0.87,-3.238 1.69,-3.313 0.246,-0.023 0.902,-0.084 1.203,1.007 0.115,0.424 0.166,0.742 0.166,0.984 0,0.632 -0.34,0.754 -0.742,0.897 l -0.023,0.009 -2.277,0.874 c -0.006,-0.134 -0.016,-0.267 -0.016,-0.402 z m 7.98,4.749 c -1.443,1.234 -2.52,2.055 -4.271,2.02 -1.377,-0.028 -2.227,-0.955 -2.75,-1.995 l 8.768,-3.293 0.043,2.769 v 0.014 c 0.035,0.935 0.045,1.851 0.029,2.756 v 0.034 z m 26.123,2.194 c -1.334,0.049 -1.623,-0.857 -1.643,-1.514 0.006,-0.688 0.234,-1.712 2.359,-2.286 l 0.105,1.456 0.045,0.659 c 0.031,0.469 0.061,0.895 0.107,1.359 -0.278,0.189 -0.6,0.312 -0.973,0.326 z"
       fill="#b9a75b"
       id="path18" />
    <path
       d="m 88.34,46.649 c -0.676,-0.249 -1.765,-0.49 -3.409,-0.49 -1.353,0 -3.072,0.257 -4.434,1.027 -1.554,0.88 -2.646,2.287 -2.745,3.775 -0.148,2.214 1.078,3.269 2.813,4.14 1.181,0.593 2.306,1.164 3.016,1.536 0.953,0.499 1.776,1.109 1.693,2.213 -0.084,1.121 -1.119,1.879 -2.894,1.879 -1.468,0 -3.585,-0.862 -5.024,-2.176 L 77.293,62 c 1.257,0.63 3.312,1.005 5.173,1.005 3.229,0 7.22,-1.478 7.291,-5.251 0.051,-2.685 -1.919,-3.796 -3.084,-4.338 a 229.488,229.488 0 0 1 -2.971,-1.415 c -0.533,-0.259 -1.648,-0.674 -1.55,-1.897 0.095,-1.165 1.424,-1.719 2.863,-1.719 1.211,0 2.38,0.334 3.278,0.82 z m -28.815,-6.212 -7.393,1.058 c 0.183,1.06 -0.1,2.9 -0.907,5.251 -1.558,4.539 -4.06,11.835 -6.049,16.146 h 4.662 c 0.229,-1.377 0.622,-2.779 1.28,-4.579 l 6.914,-0.182 c 0.305,1.361 0.773,3.532 0.862,4.761 h 6.172 C 64.308,61.12 63.32,57.354 62.709,54.768 Z m -7.393,15.157 3.385,-9.738 2.008,9.558 z m 25.231,-8.919 -0.161,3.28 c -1.087,-0.141 -2.516,0.099 -3.608,1.236 -1.01,1.052 -1.639,2.583 -1.786,5.198 -0.12,2.156 -0.197,4.515 -0.018,6.502 h -5.288 c 0.348,-1.958 0.466,-4.296 0.587,-6.454 l 0.132,-2.642 c 0.121,-2.15 0.129,-4.188 -0.202,-6.152 l 4.612,-0.284 c 0.214,0.77 0.32,1.812 0.271,2.96 2.017,-3.028 3.989,-3.712 5.461,-3.644 z m 66.057,-5.159 -4.764,-0.77 c 0.469,1.994 0.654,3.577 0.896,5.724 l 1.117,10.347 c 0.242,2.157 0.412,4.118 0.395,6.075 h 5.158 c -0.459,-1.958 -0.691,-3.918 -0.934,-6.075 z m -21.328,21.376 c -0.312,-1.958 -0.428,-3.918 -0.508,-6.075 l -0.258,-5.476 c -0.107,-2.907 -1.781,-4.632 -4.582,-4.632 -1.535,0 -3.357,0.495 -4.916,2.465 -0.047,-0.415 -0.285,-1.796 -0.574,-2.405 l -4.195,-0.193 c 0.361,2.03 0.475,4.066 0.555,6.214 l 0.062,4.027 a 48.786,48.786 0 0 1 -0.135,6.075 h 5.285 c -0.312,-1.958 -0.428,-3.918 -0.508,-6.075 l -0.125,-4.645 c -0.061,-1.65 1.172,-2.698 2.443,-2.714 1.469,-0.02 2.193,0.953 2.248,2.431 l 0.172,4.928 c 0.082,2.157 0.113,4.118 -0.053,6.075 z m 16.357,0 c -0.633,-1.557 -0.947,-3.625 -1.105,-5.781 l -0.307,-3.306 c -0.293,-3.902 -1.934,-6.576 -8.387,-6.576 -1.115,0 -2.75,0.179 -4.059,0.472 l 0.217,2.997 c 1.311,-0.803 2.664,-1.382 4.328,-1.382 1.719,0 3.211,0.705 3.354,3.273 -1.668,0.185 -3.229,0.477 -4.975,1.26 -1.967,0.88 -3.994,2.468 -3.801,5.169 0.213,2.987 2.467,4.29 5.307,4.29 2.139,0 3.635,-1.11 4.443,-1.941 0.146,0.551 0.357,1.105 0.598,1.526 h 4.387 z m -7.648,-2.145 c -1.488,0.067 -2.781,-0.723 -2.834,-2.636 -0.047,-1.717 1.129,-3.235 4.656,-3.816 l 0.205,2.816 c 0.07,0.969 0.098,1.654 0.219,2.584 -0.508,0.608 -1.34,1.011 -2.246,1.052 z M 102.717,47.13 c -1.17,-0.814 -2.582,-1.18 -4.076,-1.18 -3.417,0 -7.982,2.425 -7.863,8.772 0.121,6.37 4.993,8.314 8.429,8.314 3.016,0 4.844,-1.066 6.334,-2.646 l -1.059,-1.34 c -0.807,0.632 -2.047,1.579 -4.092,1.537 -2.164,-0.042 -3.588,-1.654 -4.294,-3.89 l 9.491,-3.564 c -0.294,-3.136 -1.366,-4.956 -2.87,-6.003 z m -3.289,6.139 -3.774,1.448 a 15.746,15.746 0 0 1 -0.15,-2.091 c -0.022,-3.92 2.088,-4.508 2.779,-4.572 1.168,-0.108 2.102,0.533 2.473,1.886 0.418,1.529 0.314,2.741 -1.328,3.329 z"
       fill="#ffffff"
       id="path19" />
  </g>
</svg>
