<?xml version="1.0" encoding="UTF-8" standalone="no"?>
<svg
   xmlns:dc="http://purl.org/dc/elements/1.1/"
   xmlns:cc="http://creativecommons.org/ns#"
   xmlns:rdf="http://www.w3.org/1999/02/22-rdf-syntax-ns#"
   xmlns:svg="http://www.w3.org/2000/svg"
   xmlns="http://www.w3.org/2000/svg"
   xmlns:sodipodi="http://sodipodi.sourceforge.net/DTD/sodipodi-0.dtd"
   xmlns:inkscape="http://www.inkscape.org/namespaces/inkscape"
   inkscape:version="1.0 (4035a4f, 2020-05-01)"
   height="329.98642"
   width="200.00014"
   sodipodi:docname="ascoli-logo@logotyp.us.svg"
   id="svg953"
   version="1.1"
   viewBox="0 0 200.00014 329.98642"
   stroke-miterlimit="2"
   stroke-linejoin="round"
   fill-rule="evenodd"
   clip-rule="evenodd">
  <metadata
     id="metadata959">
    <rdf:RDF>
      <cc:Work
         rdf:about="">
        <dc:format>image/svg+xml</dc:format>
        <dc:type
           rdf:resource="http://purl.org/dc/dcmitype/StillImage" />
        <dc:title></dc:title>
      </cc:Work>
    </rdf:RDF>
  </metadata>
  <defs
     id="defs957" />
  <sodipodi:namedview
     inkscape:current-layer="svg953"
     inkscape:window-maximized="1"
     inkscape:window-y="25"
     inkscape:window-x="0"
     inkscape:cy="70.892036"
     inkscape:cx="16.703196"
     inkscape:zoom="2.0291224"
     fit-margin-bottom="0"
     fit-margin-right="0"
     fit-margin-left="0"
     fit-margin-top="0"
     showgrid="false"
     id="namedview955"
     inkscape:window-height="793"
     inkscape:window-width="1440"
     inkscape:pageshadow="2"
     inkscape:pageopacity="0"
     guidetolerance="10"
     gridtolerance="10"
     objecttolerance="10"
     borderopacity="1"
     bordercolor="#666666"
     pagecolor="#ffffff" />
  <g
     id="g951"
     transform="matrix(0.488371,0,0,0.488371,-45.357457,-40.584118)">
    <g
       id="g869"
       fill="#1b1918">
      <path
         style="fill:#1c1e1c;fill-opacity:1"
         id="path833"
         d="m 321.473,169.483 c -2.191,2.144 -5.964,3.641 -8.404,3.641 -9.148,0 -12.776,-5.325 -12.776,-12.82 0,-5.491 4.435,-11.747 11.989,-11.653 7.32,0.091 13.057,7.115 13.082,17.035 0.03,12.008 -10.983,24.694 -23.795,26.873 l -4.961,5.213 c 18.216,-0.478 37.139,-13.206 37.139,-32.813 0,-11.854 -9.69,-22.432 -21.718,-22.432 -12.55,0 -20.252,10.258 -20.346,20.151 -0.087,9.151 7.393,16.111 17.416,16.111 1.729,0 3.834,-0.182 6.332,-1.163 2.243,-1.532 5.573,-6.861 6.042,-8.143 z" />
      <path
         style="fill:#1c1e1c;fill-opacity:1"
         id="path835"
         d="m 265.528,192.364 c -4.619,0 -13.371,-2.362 -13.371,-10.642 0,-4.619 4.275,-8.16 8.772,-10.526 8.548,3.252 17.502,5.618 17.453,12.169 -0.044,5.962 -7.712,8.999 -12.854,8.999 z m -0.918,-44.222 c 3.66,0 10.663,2.023 10.637,8.718 -0.02,5.056 -4.004,7.409 -6.219,9.042 -6.818,-2.583 -15.128,-4.779 -15.128,-11.02 0,-5.135 6.178,-6.74 10.71,-6.74 z m 0.483,-5.615 c -12.929,0.077 -19.346,6.416 -19.346,14.347 0,6.363 4.371,10.071 9.688,12.05 -4.25,2.171 -11.632,4.258 -11.679,14.138 -0.043,9.064 10.689,14.73 21.322,14.73 8.106,0 21.664,-4.735 21.552,-15.367 -0.094,-8.889 -6.616,-11.455 -12.717,-14.767 8.621,-4.247 9.513,-8.624 9.513,-11.696 0,-7.495 -7.213,-13.502 -18.333,-13.435 z" />
      <path
         style="fill:#1c1e1c;fill-opacity:1"
         id="path837"
         d="m 234.472,197.787 v -0.828 c -2.727,-1.648 -3.769,-2.681 -3.759,-8.767 0.023,-15.258 0.035,-30.375 0.059,-45.633 l -2.024,0.001 c -3.696,4.806 -9.168,10.654 -15.166,12.069 l -0.375,1.477 6.983,-0.066 c 1.089,-0.01 2.133,-0.612 2.127,3.394 l -0.046,29.18 c -0.01,6.172 -1.823,7.447 -5.113,8.415 v 0.756 z" />
      <path
         style="fill:#1c1e1c;fill-opacity:1"
         id="path839"
         d="m 296.719,314.027 v -1.76 c -2.127,-0.305 -2.165,-1.583 -2.181,-5.806 l -0.071,-18.271 c -0.016,-4.273 -0.297,-5.164 2.369,-5.704 v -1.759 l -10.955,0.023 v 1.76 c 1.54,0.446 2.576,0.518 2.576,4.79 v 18.552 c 0,4.327 0.558,6.175 -2.553,6.433 v 1.759 z" />
      <path
         style="fill:#1c1e1c;fill-opacity:1"
         id="path841"
         d="m 275.513,309.299 c -1.558,0.027 -4.144,-0.029 -5.271,-0.149 -1.088,-0.115 -1.678,-0.208 -1.678,-2.571 v -18.388 c 0,-4.324 -0.274,-5.071 2.917,-5.634 v -1.76 l -11.329,-0.023 v 1.759 c 2.695,0.024 2.481,1.78 2.425,6.103 l -0.235,18.059 c -0.054,4.219 0.107,5.56 -2.157,5.537 v 1.759 h 21.53 c 0.613,-2.271 2.302,-6.01 2.985,-7.98 l -0.912,-0.085 c -1.392,1.193 -4.22,3.302 -8.275,3.373 z" />
      <path
         style="fill:#1c1e1c;fill-opacity:1"
         id="path843"
         d="m 239.714,284.686 c 5.782,0 11.827,4.674 11.729,13.272 -0.094,8.219 -6.613,12.309 -11.389,12.309 -6.435,0 -12.662,-5.156 -12.671,-13.097 -0.009,-8.416 7.253,-12.484 12.331,-12.484 z m 0.202,-3.987 c -11.513,0 -19.287,8.356 -19.287,17.004 0,9.653 9.543,16.293 19.598,16.293 9.451,0 18.205,-5.977 18.205,-16.836 0,-9.955 -9.366,-16.461 -18.516,-16.461 z" />
      <path
         style="fill:#1c1e1c;fill-opacity:1"
         id="path845"
         d="m 209.943,309.383 c -6.835,-0.161 -12.47,-4.818 -12.236,-12.756 0.218,-7.387 4.163,-11.206 11.452,-11.278 4.583,-0.046 6.468,1.479 8.965,3.359 l 0.179,-6.863 c -1.287,-0.442 -5.389,-1.109 -9.46,-1.093 -11.781,0.047 -18.313,7.371 -18.266,16.224 0.042,7.994 4.924,17.113 18.297,17.113 3.419,0 7.764,-0.677 9.07,-1.119 0.793,-1.391 2.365,-4.078 3.199,-6.872 l -0.671,-0.34 c -1.915,1.267 -5.54,3.743 -10.529,3.625 z" />
      <path
         style="fill:#1c1e1c;fill-opacity:1"
         id="path847"
         d="m 186.612,288.965 -0.158,-7.354 c -0.905,-0.352 -5.329,-0.853 -8.547,-0.853 -8.732,0 -12.72,3.655 -12.673,8.412 0.048,4.826 3.837,7.614 9.217,9.781 4.171,1.681 8.288,3.547 8.444,6.509 0.116,2.229 -3.767,4.258 -6.833,4.248 -4.388,-0.015 -8.771,-2.132 -12.409,-5.178 0.72,2.638 1.44,5.275 2.161,7.913 1.604,1.737 8.486,1.59 9.363,1.589 9.029,-0.008 14.232,-4.417 14.232,-10.148 0,-4.978 -5.422,-7.171 -10.996,-9.665 -4.436,-1.985 -6.219,-3.365 -6.292,-5.661 -0.079,-2.466 3.256,-3.688 6.072,-3.688 4.122,0 7.108,2.267 7.694,4.075 z" />
      <path
         style="fill:#1c1e1c;fill-opacity:1"
         id="path849"
         d="m 150.324,297.173 -8.265,-0.023 4.008,-9.7 h 0.15 z m 14.651,16.866 v -1.76 c -1.972,-0.262 -2.859,-1.865 -4.71,-6.23 l -10.048,-23.687 0.011,-1.51 -9.104,-0.08 -0.769,1.222 c 2.03,0.644 2.129,1.797 1.439,3.46 l -8.9,21.459 c -1.737,4.187 -2.06,4.94 -4.3,5.366 l -0.051,1.76 h 10.309 v -1.76 c -2.24,-0.336 -2.671,-0.66 -1.661,-2.96 l 3.31,-7.536 11.435,0.047 2.949,7.509 c 0.86,2.19 0.822,2.78 -1.148,2.94 v 1.76 z" />
      <path
         style="fill:#1c1e1c;fill-opacity:1"
         id="path851"
         d="m 323.613,309.383 c -5.992,-0.114 -11.721,-4.631 -11.487,-12.569 0.218,-7.387 3.413,-11.393 10.702,-11.465 4.583,-0.045 6.374,1.948 8.872,3.828 l 0.273,-7.332 c -1.287,-0.442 -5.389,-1.109 -9.461,-1.093 -11.781,0.046 -16.953,7.559 -16.906,16.412 0.042,7.993 4.83,16.925 16.938,16.925 3.418,0 7.763,-0.677 9.07,-1.119 0.345,-1.41 1.16,-3.417 2.674,-6.353 l -0.809,-0.616 c -1.993,1.294 -5.171,3.471 -9.867,3.382 z" />
      <path
         style="fill:#1c1e1c;fill-opacity:1"
         id="path853"
         d="m 353.568,297.173 -8.264,-0.023 4.007,-9.7 h 0.15 z m 14.651,16.866 v -1.76 c -1.972,-0.262 -2.859,-1.865 -4.71,-6.23 l -10.048,-23.687 0.011,-1.51 -9.104,-0.08 -0.769,1.222 c 2.03,0.644 2.129,1.797 1.439,3.46 l -8.9,21.459 c -1.737,4.187 -2.06,4.94 -4.3,5.366 l -0.051,1.76 h 10.309 v -1.76 c -2.24,-0.336 -2.671,-0.66 -1.66,-2.96 l 3.31,-7.536 11.434,0.047 2.949,7.509 c 0.86,2.19 0.822,2.78 -1.148,2.94 v 1.76 z" />
      <path
         style="fill:#1c1e1c;fill-opacity:1"
         id="path855"
         d="m 382.662,309.299 c -1.557,0.026 -3.886,0.111 -5.012,-0.008 -1.088,-0.116 -1.937,-0.349 -1.937,-2.712 v -18.388 c 0,-4.324 -0.257,-5.353 2.067,-5.634 v -1.76 l -10.195,-0.023 v 1.759 c 2.695,0.024 2.715,0.562 2.704,4.884 l -0.047,18.013 c -0.011,4.217 0.069,6.731 -1.774,6.802 v 1.759 h 19.546 c 0.613,-2.271 2.302,-6.01 2.985,-7.98 l -0.912,-0.085 c -1.392,1.193 -3.369,3.303 -7.425,3.373 z" />
      <path
         style="fill:#1c1e1c;fill-opacity:1"
         id="path857"
         d="m 408.935,309.383 c -5.991,-0.114 -11.72,-4.631 -11.486,-12.569 0.218,-7.387 3.413,-11.393 10.702,-11.465 4.583,-0.045 6.374,1.948 8.871,3.828 l 0.274,-7.332 c -1.288,-0.442 -5.39,-1.109 -9.461,-1.093 -11.781,0.046 -16.953,7.559 -16.906,16.412 0.042,7.993 4.83,16.925 16.937,16.925 3.419,0 7.764,-0.677 9.07,-1.119 0.346,-1.41 1.161,-3.417 2.675,-6.353 l -0.809,-0.616 c -1.993,1.294 -5.171,3.471 -9.867,3.382 z" />
      <path
         style="fill:#1c1e1c;fill-opacity:1"
         id="path859"
         d="m 429.947,314.027 v -1.76 c -2.127,-0.305 -2.164,-1.583 -2.18,-5.806 l -0.071,-18.271 c -0.016,-4.273 -0.298,-5.164 2.368,-5.704 v -1.759 l -10.955,0.023 v 1.76 c 1.541,0.446 2.577,0.518 2.577,4.79 l -10e-4,18.552 c 0,4.327 0.558,6.175 -2.553,6.433 v 1.759 z" />
      <path
         style="fill:#1c1e1c;fill-opacity:1"
         id="path861"
         d="m 448.914,284.639 c 5.631,0.225 11.076,4.581 10.978,13.179 -0.093,8.218 -6.032,12.073 -11.933,12.073 -6.435,0 -10.712,-5.015 -10.72,-12.956 -0.008,-8.415 6.601,-12.499 11.675,-12.296 z m -0.935,-3.94 c -11.513,0.049 -17.167,8.356 -17.167,17.004 0,9.653 7.493,16.289 18.086,16.334 9.029,0.038 17.423,-7.145 17.468,-17.065 0.045,-9.952 -7.315,-16.32 -18.387,-16.273 z" />
      <path
         style="fill:#1c1e1c;fill-opacity:1"
         id="path863"
         d="m 361.056,192.364 c -4.62,0 -13.371,-2.362 -13.371,-10.642 0,-4.619 4.275,-8.16 8.772,-10.526 8.547,3.252 17.501,5.618 17.453,12.169 -0.044,5.962 -7.712,8.999 -12.854,8.999 z m -0.919,-44.222 c 3.661,0 10.663,2.023 10.637,8.718 -0.02,5.056 -4.003,7.409 -6.219,9.042 -6.818,-2.583 -15.127,-4.779 -15.127,-11.02 0,-5.135 6.177,-6.74 10.709,-6.74 z m 0.484,-5.615 c -12.93,0.077 -19.346,6.416 -19.346,14.347 0,6.363 4.371,10.071 9.687,12.05 -4.249,2.171 -11.632,4.258 -11.679,14.138 -0.042,9.064 10.69,14.73 21.323,14.73 8.105,0 21.663,-4.735 21.551,-15.367 -0.093,-8.889 -6.616,-11.455 -12.716,-14.767 8.62,-4.247 9.513,-8.624 9.513,-11.696 0,-7.495 -7.213,-13.502 -18.333,-13.435 z" />
      <path
         style="fill:#1c1e1c;fill-opacity:1"
         id="path865"
         d="m 158.284,218.884 h 278.421 v 39.92 H 158.284 Z m 186.884,3.827 v 32.266 h 87.71 v -32.266 z m -3.826,32.266 v -32.266 h -88.016 v 32.266 z M 249.499,222.711 H 162.11 v 32.266 h 87.389 z" />
      <path
         id="path867"
         d="m 185.192,468.107 h -11.656 v 27.976 h 67.266 v -27.976 h -10.329 m -60.696,-84.971 -0.005,12.732 h -7.018 v -12.707 m 60.421,84.946 h -11.682 m -7.285,-0.001 -11.707,0.001 z m 53.494,-52.032 -16.577,30.444 33.297,0.001 z M 152.531,383.162 v 12.706 h -7.493 v -12.706 h -7.453 v 19.795 l 7.185,8.47 0.743,0.876 V 556.851 H 167.3 v -95.83 h 0.012 l -0.023,-47.624 v -1.063 l 0.645,-0.837 8.04,-10.418 v -17.917 z m 21.005,119.158 v 54.531 h 5.299 v -30.27 c 0,-3.667 1.498,-6.998 3.911,-9.411 2.414,-2.413 5.745,-3.911 9.412,-3.911 h 0.028 c 3.667,0 6.999,1.498 9.412,3.911 2.413,2.413 3.911,5.744 3.911,9.411 v 30.27 h 5.074 v -30.27 c 0,-3.667 1.498,-6.998 3.911,-9.411 2.414,-2.413 5.745,-3.911 9.412,-3.911 h 0.028 c 3.667,0 6.999,1.498 9.412,3.911 2.413,2.413 3.911,5.744 3.911,9.411 v 30.27 h 3.545 V 502.32 Z m -0.012,-41.583 h 67.561 v -8.007 h -5.189 l -5.228,-0.001 2.5,-4.591 21.798,-40.031 2.72,-4.995 2.736,4.983 21.985,40.031 2.529,4.604 h -11.834 v 104.121 h 0.005 v 6.236 H 139.276 V 414.571 l -7.184,-8.47 -0.743,-0.876 v -28.299 h 50.861 v 26.249 l -0.657,0.852 -8.052,10.433 z m 25.749,96.114 v -30.27 c 0,-1.945 -0.799,-3.716 -2.084,-5.002 -1.286,-1.286 -3.057,-2.084 -5.003,-2.084 h -0.028 c -1.946,0 -3.717,0.798 -5.003,2.084 -1.285,1.286 -2.084,3.057 -2.084,5.002 v 30.27 z M 247.322,452.73 v 104.121 h 19.544 V 452.73 Z M 216.82,556.851 h 14.201 v -30.27 c 0,-1.945 -0.798,-3.716 -2.084,-5.002 -1.286,-1.286 -3.057,-2.084 -5.003,-2.084 h -0.028 c -1.946,0 -3.717,0.798 -5.002,2.084 -1.286,1.286 -2.084,3.057 -2.084,5.002 z" />
    </g>
    <path
       id="path871"
       fill="none"
       d="m 151.786,426.571 h 10.266 v 18.375 h -10.266 z" />
    <path
       id="path873"
       fill="none"
       d="m 151.786,511.611 h 10.266 v 20.43 h -10.266 z" />
    <path
       id="path875"
       fill="none"
       d="m 252.132,511.611 h 10.833 v 20.43 h -10.833 z" />
    <path
       id="path877"
       fill="#191e18"
       d="m 252.132,511.611 h 10.833 v 20.43 h -10.833 z" />
    <path
       id="path879"
       fill="#191e18"
       d="m 252.132,464.272 h 11.683 v 20.43 h -11.683 z" />
    <path
       id="path881"
       fill="#191e18"
       d="m 151.786,511.611 h 10.266 v 20.43 h -10.266 z" />
    <path
       id="path883"
       fill="#191e18"
       d="m 151.786,426.571 h 10.266 v 18.375 h -10.266 z" />
    <path
       style="fill:#e5bb5c;fill-opacity:1"
       id="path885"
       fill="#e6b455"
       d="m 162.052,444.946 h -10.266 v -18.375 h 10.266 z m 5.248,111.905 v -95.83 h 0.012 l -0.023,-47.624 v -1.063 l 0.645,-0.837 8.04,-10.418 v -17.917 h -6.197 l -0.005,12.706 h -7.018 V 383.16 l -10.223,0.002 v 12.707 h -7.493 v -12.707 h -7.453 v 19.795 l 7.185,8.471 0.743,0.876 v 144.547 z m -15.514,-45.24 h 10.266 v 20.43 h -10.266 z" />
    <path
       style="fill:#e5bb5c;fill-opacity:1"
       id="path887"
       fill="#e6b455"
       d="m 240.802,502.32 h -67.266 v 54.531 h 5.299 v -30.27 c 0,-3.667 1.498,-6.998 3.912,-9.411 2.413,-2.413 5.744,-3.911 9.411,-3.911 h 0.028 c 3.667,0 6.999,1.498 9.412,3.911 2.413,2.413 3.911,5.744 3.911,9.411 v 30.27 h 5.074 v -30.27 c 0,-3.667 1.498,-6.998 3.911,-9.411 2.414,-2.413 5.745,-3.911 9.412,-3.911 h 0.028 c 3.667,0 6.999,1.498 9.412,3.911 2.413,2.413 3.911,5.744 3.911,9.411 v 30.27 h 3.545 z" />
    <path
       style="fill:#e5bb5c;fill-opacity:1"
       id="path889"
       fill="#e6b455"
       d="m 247.322,452.73 v 104.121 h 19.544 V 452.73 Z m 16.493,31.972 h -11.683 v -20.43 h 11.683 z m -11.683,26.909 h 10.833 v 20.43 h -10.833 z" />
    <path
       style="fill:#e5bb5c;fill-opacity:1"
       id="path891"
       fill="#e6b455"
       d="m 241.125,446.518 33.297,0.001 -16.72,-30.445 z" />
    <path
       id="path893"
       fill="none"
       d="m 185.188,467.616 h 7.35 v 19.8 h -7.35 z" />
    <path
       id="path895"
       fill="none"
       d="m 204.201,467.841 h 7.313 v 19.425 h -7.313 z" />
    <path
       id="path897"
       fill="none"
       d="m 223.176,467.691 h 7.313 v 19.65 h -7.313 z" />
    <path
       id="path899"
       fill="#191e18"
       d="m 192.538,487.416 v -19.8 h -7.35 l 0.001,0.486 -0.001,19.314 z" />
    <path
       id="path901"
       fill="#191e18"
       d="m 204.201,467.841 v 19.425 h 7.312 v -19.425 z" />
    <path
       id="path903"
       fill="#191e18"
       d="m 223.173,468.107 0.003,19.234 h 7.312 l -0.001,-19.224 0.001,-0.426 h -7.312 z" />
    <path
       style="fill:#e5bb5c;fill-opacity:1"
       id="path905"
       fill="#e6b455"
       d="m 192.538,487.416 h -7.35 l 0.003,-19.309 h -11.656 v 27.976 h 67.267 v -27.976 h -10.314 v 19.234 h -7.312 l -10e-4,-19.234 h -11.662 v 19.159 H 204.2 v -19.16 l -11.662,0.001 z" />
    <path
       id="path907"
       fill="#e20612"
       d="m 192.158,519.495 c -1.946,0 -3.717,0.798 -5.003,2.084 -1.285,1.286 -2.084,3.057 -2.084,5.002 v 30.27 h 14.202 v -30.27 c 0,-1.945 -0.799,-3.716 -2.084,-5.002 -1.286,-1.286 -3.057,-2.084 -5.003,-2.084 z" />
    <path
       id="path909"
       fill="#e20612"
       d="m 216.82,526.581 v 30.27 h 14.201 v -30.27 c 0,-1.945 -0.798,-3.716 -2.084,-5.002 -1.286,-1.286 -3.057,-2.084 -5.003,-2.084 h -0.028 c -1.946,0 -3.717,0.798 -5.002,2.084 -1.286,1.286 -2.084,3.057 -2.084,5.002 z" />
    <path
       style="fill:#e5bb5c;fill-opacity:1"
       id="path911"
       fill="#e6b559"
       d="m 491.062,420.045 c 0,-90.695 -22.047,-172.469 -57.772,-231.511 -35.209,-58.192 -83.628,-94.095 -137.002,-94.095 -53.167,0 -100.765,35.674 -135.278,93.519 -35.27,59.113 -56.796,141.189 -56.796,232.237 0,91.155 21.569,173.708 56.912,233.234 34.482,58.078 82.003,94.022 135.087,94.022 53.297,0 101.678,-36.257 136.902,-94.767 35.825,-59.507 57.947,-141.823 57.947,-232.639 z M 442.99,182.687 c 36.738,60.718 59.41,144.571 59.41,237.358 0,92.897 -22.747,177.296 -59.585,238.485 -37.266,61.902 -89.038,100.259 -146.602,100.259 -57.391,0 -108.303,-38.077 -144.832,-99.603 -36.332,-61.193 -58.506,-145.797 -58.506,-238.991 0,-93.077 22.148,-177.22 58.435,-238.039 36.557,-61.27 87.533,-99.055 144.978,-99.055 57.625,0 109.437,37.998 146.702,99.586 z" />
    <path
       style="fill:#e5bb5c;fill-opacity:1"
       id="path913"
       fill="#e6b559"
       d="m 108.406,326.649 378.526,0.075 v 11.294 l -378.526,-0.075 z" />
    <path
       style="fill:#1c1e1c;fill-opacity:1"
       id="path915"
       fill="#1d1d1b"
       d="M 342.779,737.978 V 337.99 l -47.1,-0.009 V 747.45 c 0.178,10e-4 0.356,10e-4 0.534,10e-4 16.042,0 31.639,-3.285 46.566,-9.473 z" />
    <path
       style="fill:#1c1e1c;fill-opacity:1"
       id="path917"
       fill="#1d1d1b"
       d="m 371.931,337.995 v 383.666 c 17.073,-12.166 32.911,-28.31 47.1,-47.73 V 338.005 Z" />
    <path
       style="fill:#1c1e1c;fill-opacity:1"
       id="path919"
       fill="#1d1d1b"
       d="m 447.332,338.01 v 288.38 c 27.368,-56.427 43.729,-128.242 43.729,-206.345 0,-28.355 -2.154,-55.838 -6.209,-82.027 z" />
    <path
       id="path921"
       fill="#ffffff"
       d="M 371.931,721.661 V 337.995 l -29.152,-0.006 v 399.989 c 10.043,-4.164 19.784,-9.641 29.152,-16.317 z" />
    <path
       id="path923"
       fill="#ffffff"
       d="m 419.031,338.005 v 335.926 c 4.897,-6.702 9.597,-13.794 14.084,-21.247 5.016,-8.331 9.762,-17.109 14.217,-26.294 V 338.01 Z" />
    <path
       id="path925"
       fill="#ffffff"
       d="m 253.326,222.711 h 88.016 v 32.266 h -88.016 z" />
    <path
       style="fill:#ffffff"
       id="path927"
       fill="#ffffff"
       d="m 158.284,218.884 h 278.421 v 39.92 H 158.284 Z m 58.874,-21.855 c 3.29,-0.968 5.103,-2.243 5.113,-8.415 l 0.046,-29.18 c 0.006,-4.006 -1.038,-3.404 -2.127,-3.394 l -6.983,0.066 0.374,-1.477 c 5.999,-1.415 11.471,-7.263 15.167,-12.069 l 2.024,-0.001 -0.059,45.633 c -0.009,6.086 1.032,7.119 3.759,8.767 v 0.828 l -17.314,-0.002 z m 47.92,0.763 c -10.633,0 -21.365,-5.666 -21.322,-14.73 0.046,-9.88 7.429,-11.967 11.679,-14.138 -5.317,-1.979 -9.688,-5.687 -9.688,-12.05 0,-7.931 6.417,-14.27 19.346,-14.347 11.12,-0.067 18.333,5.94 18.333,13.435 0,3.072 -0.892,7.449 -9.513,11.696 6.101,3.312 12.623,5.878 12.717,14.767 0.112,10.632 -13.446,15.367 -21.552,15.367 z m 44.021,-19.003 c -10.023,0 -17.503,-6.96 -17.416,-16.111 0.094,-9.893 7.796,-20.151 20.346,-20.151 12.028,0 21.718,10.578 21.718,22.432 0,19.606 -18.923,32.335 -37.139,32.813 l 4.961,-5.213 c 12.812,-2.179 23.825,-14.865 23.795,-26.873 -0.025,-9.92 -5.762,-16.944 -13.082,-17.035 -7.554,-0.094 -11.989,6.162 -11.989,11.653 0,7.495 3.628,12.82 12.776,12.82 2.44,0 6.213,-1.497 8.404,-3.641 -0.469,1.282 -3.799,6.611 -6.042,8.143 -2.498,0.98 -4.602,1.163 -6.332,1.163 z M 177.907,280.758 c 3.218,0 7.642,0.501 8.547,0.853 l 0.158,7.354 -0.725,-0.02 c -0.587,-1.808 -3.572,-4.075 -7.694,-4.075 -2.816,0 -6.151,1.222 -6.073,3.688 0.074,2.296 1.857,3.676 6.293,5.661 5.574,2.494 10.996,4.687 10.996,9.665 0,5.731 -5.203,10.14 -14.232,10.148 -0.877,0.001 -7.759,0.148 -9.363,-1.589 l -2.161,-7.913 c 3.638,3.046 8.021,5.163 12.409,5.178 3.066,0.01 6.949,-2.019 6.832,-4.248 -0.155,-2.962 -4.273,-4.829 -8.443,-6.509 -5.38,-2.167 -9.169,-4.955 -9.217,-9.781 -0.047,-4.757 3.94,-8.412 12.673,-8.412 z m -65.799,45.892 370.864,0.073 C 473.528,273.726 456.228,226.444 433.29,188.534 398.081,130.342 349.662,94.439 296.288,94.439 c -53.167,0 -100.765,35.674 -135.278,93.519 -22.664,37.986 -39.653,85.454 -48.902,138.692 z m 78.469,-29.674 c -0.047,-8.853 6.485,-16.177 18.266,-16.224 4.071,-0.016 8.173,0.651 9.46,1.093 l -0.179,6.863 c -2.497,-1.88 -4.382,-3.405 -8.965,-3.359 -7.289,0.072 -11.234,3.891 -11.452,11.278 -0.235,7.938 5.401,12.595 12.236,12.756 4.99,0.118 8.614,-2.358 10.529,-3.625 l 0.671,0.34 c -0.834,2.794 -2.406,5.481 -3.199,6.872 -1.307,0.442 -5.651,1.119 -9.07,1.119 -13.373,0 -18.255,-9.119 -18.297,-17.113 z m -25.602,15.303 v 1.76 h -11.238 v -1.76 c 1.97,-0.16 2.008,-0.75 1.148,-2.94 l -2.949,-7.509 -11.434,-0.047 -3.31,7.536 c -1.011,2.3 -0.58,2.624 1.66,2.96 v 1.76 h -10.309 l 0.051,-1.76 c 2.24,-0.426 2.563,-1.179 4.3,-5.366 l 8.9,-21.459 c 0.69,-1.663 0.591,-2.816 -1.439,-3.46 l 0.769,-1.222 9.104,0.08 -0.011,1.51 10.048,23.687 c 1.851,4.365 2.738,5.968 4.71,6.23 z m 265.837,-14.576 c 0,-8.648 5.654,-16.955 17.167,-17.004 11.072,-0.047 18.432,6.321 18.387,16.273 -0.045,9.92 -8.439,17.103 -17.468,17.065 -10.593,-0.045 -18.086,-6.682 -18.086,-16.334 z m -70.206,-99.911 c -10.633,0 -21.365,-5.666 -21.323,-14.73 0.047,-9.88 7.43,-11.967 11.679,-14.138 -5.316,-1.979 -9.687,-5.687 -9.687,-12.05 0,-7.931 6.416,-14.27 19.346,-14.347 11.12,-0.067 18.333,5.94 18.333,13.435 0,3.072 -0.893,7.449 -9.514,11.696 6.101,3.312 12.623,5.878 12.717,14.767 0.112,10.632 -13.446,15.367 -21.551,15.367 z m -120.69,82.907 c 9.15,0 18.516,6.506 18.516,16.461 0,10.859 -8.754,16.836 -18.205,16.836 -10.055,0 -19.598,-6.64 -19.598,-16.293 0,-8.648 7.774,-17.004 19.287,-17.004 z m 127.669,1.834 v -1.759 l 10.195,0.023 v 1.76 c -2.324,0.281 -2.067,1.31 -2.067,5.634 v 18.388 c 0,2.363 0.849,2.596 1.937,2.712 1.126,0.119 3.455,0.034 5.012,0.008 4.056,-0.07 6.033,-2.18 7.425,-3.373 l 0.912,0.085 c -0.683,1.97 -2.372,5.709 -2.985,7.98 h -19.546 v -1.759 c 1.842,-0.071 1.763,-2.585 1.774,-6.802 l 0.047,-18.013 c 0.011,-4.322 -0.008,-4.86 -2.704,-4.884 z m 23.344,14.631 c -0.047,-8.853 5.125,-16.366 16.906,-16.412 4.071,-0.016 8.173,0.651 9.461,1.093 l -0.274,7.332 c -2.497,-1.88 -4.288,-3.873 -8.871,-3.828 -7.289,0.072 -10.485,4.078 -10.702,11.465 -0.234,7.938 5.495,12.455 11.486,12.569 4.696,0.089 7.874,-2.088 9.867,-3.382 l 0.809,0.616 c -1.514,2.936 -2.329,4.943 -2.675,6.353 -1.306,0.442 -5.651,1.119 -9.07,1.119 -12.107,0 -16.895,-8.932 -16.938,-16.925 z m 28.203,15.121 c 3.111,-0.258 2.553,-2.106 2.553,-6.433 l 10e-4,-18.552 c 0,-4.272 -1.036,-4.344 -2.577,-4.79 v -1.76 l 10.955,-0.023 v 1.759 c -2.666,0.54 -2.384,1.431 -2.368,5.704 l 0.071,18.271 c 0.016,4.223 0.053,5.501 2.18,5.806 v 1.76 l -10.815,0.017 z m -96.62,-31.533 c 4.071,-0.016 8.174,0.651 9.461,1.093 l -0.273,7.332 c -2.498,-1.88 -4.289,-3.873 -8.872,-3.828 -7.289,0.072 -10.484,4.078 -10.702,11.465 -0.234,7.938 5.495,12.455 11.486,12.569 4.696,0.089 7.874,-2.088 9.867,-3.382 l 0.809,0.616 c -1.514,2.936 -2.329,4.943 -2.674,6.353 -1.307,0.442 -5.652,1.119 -9.07,1.119 -12.108,0 -16.896,-8.932 -16.938,-16.925 -0.047,-8.853 5.125,-16.366 16.906,-16.412 z m 13.626,26.161 8.9,-21.459 c 0.69,-1.663 0.592,-2.816 -1.439,-3.46 l 0.769,-1.222 9.104,0.08 -0.011,1.51 10.048,23.687 c 1.851,4.365 2.738,5.968 4.71,6.23 v 1.76 h -11.238 v -1.76 c 1.97,-0.16 2.008,-0.75 1.148,-2.94 l -2.949,-7.509 -11.434,-0.047 -3.31,7.536 c -1.011,2.3 -0.58,2.624 1.66,2.96 v 1.76 h -10.309 l 0.051,-1.76 c 2.24,-0.426 2.563,-1.179 4.3,-5.366 z m -73.796,-0.218 0.235,-18.059 c 0.056,-4.322 0.27,-6.079 -2.425,-6.103 v -1.759 l 11.329,0.023 v 1.76 c -3.191,0.563 -2.917,1.31 -2.917,5.634 v 18.388 c 0,2.363 0.59,2.456 1.678,2.571 1.127,0.12 3.713,0.176 5.271,0.149 4.055,-0.071 6.883,-2.18 8.275,-3.373 l 0.912,0.085 c -0.683,1.97 -2.372,5.709 -2.985,7.98 h -21.531 v -1.759 c 2.265,0.023 2.103,-1.318 2.158,-5.537 z m 26.115,-0.843 V 287.3 c 0,-4.272 -1.036,-4.344 -2.576,-4.79 v -1.76 l 10.955,-0.023 v 1.759 c -2.666,0.54 -2.385,1.431 -2.369,5.704 l 0.071,18.271 c 0.016,4.223 0.054,5.501 2.181,5.806 v 1.76 l -10.815,0.017 v -1.759 c 3.111,-0.258 2.553,-2.106 2.553,-6.433 z" />
    <path
       id="path929"
       fill="#ffffff"
       d="m 253.9,154.882 c 0,6.241 8.31,8.438 15.128,11.02 2.215,-1.633 6.199,-3.986 6.219,-9.042 0.026,-6.695 -6.977,-8.718 -10.637,-8.718 -4.532,0 -10.71,1.606 -10.71,6.74 z" />
    <path
       id="path931"
       fill="#ffffff"
       d="m 260.929,171.196 c -4.497,2.367 -8.772,5.907 -8.772,10.526 0,8.28 8.752,10.642 13.371,10.642 5.142,0 12.81,-3.037 12.854,-8.999 0.049,-6.551 -8.905,-8.917 -17.453,-12.169 z" />
    <path
       id="path933"
       fill="#ffffff"
       d="m 349.428,154.882 c 0,6.241 8.309,8.438 15.127,11.02 2.216,-1.633 6.199,-3.986 6.219,-9.042 0.026,-6.695 -6.976,-8.718 -10.637,-8.718 -4.532,0 -10.709,1.606 -10.709,6.74 z" />
    <path
       id="path935"
       fill="#ffffff"
       d="m 356.457,171.196 c -4.497,2.367 -8.772,5.907 -8.772,10.526 0,8.28 8.751,10.642 13.371,10.642 5.142,0 12.81,-3.037 12.854,-8.999 0.048,-6.551 -8.906,-8.917 -17.453,-12.169 z" />
    <path
       id="path937"
       fill="#ffffff"
       d="m 150.324,297.173 -4.107,-9.723 h -0.15 l -4.008,9.7 z" />
    <path
       id="path939"
       fill="#ffffff"
       d="m 227.383,297.17 c 0.008,7.941 6.235,13.097 12.671,13.097 4.776,0 11.295,-4.09 11.389,-12.309 0.098,-8.598 -5.947,-13.272 -11.729,-13.272 -5.078,0 -12.34,4.068 -12.331,12.483 z" />
    <path
       id="path941"
       fill="#ffffff"
       d="m 349.311,287.45 -4.007,9.7 8.265,0.023 -4.108,-9.723 z" />
    <path
       id="path943"
       fill="#ffffff"
       d="m 437.239,296.935 c 0.008,7.941 4.285,12.956 10.72,12.956 5.901,0 11.84,-3.855 11.933,-12.073 0.098,-8.598 -5.347,-12.954 -10.978,-13.179 -5.074,-0.203 -11.683,3.881 -11.675,12.296 z" />
    <path
       style="fill:#ee212e;fill-opacity:1"
       id="path945"
       fill="#e20612"
       d="M 295.679,747.45 V 337.98 l -185.404,-0.037 c -3.961,26.259 -6.061,53.818 -6.061,82.252 0,91.155 21.569,173.708 56.912,233.234 34.366,57.883 81.684,93.78 134.553,94.021 z m -62.511,-299.312 21.798,-40.031 2.72,-4.995 2.736,4.983 21.985,40.031 2.529,4.604 h -11.833 v 104.121 h 0.004 v 6.236 H 139.276 V 414.571 l -7.184,-8.47 -0.743,-0.876 v -28.299 h 50.861 v 26.249 l -0.657,0.852 -8.052,10.433 0.022,46.277 h 67.562 v -8.007 h -5.189 -5.228 z" />
    <path
       style="fill:#ce2b37;fill-opacity:1"
       id="path947"
       fill="#e20612"
       d="m 345.168,222.711 h 87.71 v 32.266 h -87.71 z" />
    <path
       style="fill:#009246;fill-opacity:1"
       id="path949"
       fill="#019541"
       d="m 162.11,222.711 h 87.389 v 32.266 H 162.11 Z" />
  </g>
</svg>
