<?xml version="1.0" encoding="UTF-8" standalone="no"?>
<svg
   id="svg2817"
   viewBox="0 0 549 767.703"
   width="1787"
   height="2499.0332"
   version="1.1"
   sodipodi:docname="Aston-Villa.svg"
   xmlns:inkscape="http://www.inkscape.org/namespaces/inkscape"
   xmlns:sodipodi="http://sodipodi.sourceforge.net/DTD/sodipodi-0.dtd"
   xmlns:xlink="http://www.w3.org/1999/xlink"
   xmlns="http://www.w3.org/2000/svg"
   xmlns:svg="http://www.w3.org/2000/svg">
  <defs
     id="defs2" />
  <sodipodi:namedview
     id="namedview1"
     pagecolor="#ffffff"
     bordercolor="#000000"
     borderopacity="0.25"
     inkscape:showpageshadow="2"
     inkscape:pageopacity="0.0"
     inkscape:pagecheckerboard="0"
     inkscape:deskcolor="#d1d1d1" />
  <style
     id="style1">.st0{clip-path:url(#SVGID_2_)}.st1{fill:#fff}.st2{fill:#94bee5}.st3{fill:none;stroke:#7a003c;stroke-width:2.2437;stroke-miterlimit:6}.st4{fill:#7a003c}.st5{fill:#ffe600}</style>
  <g
     id="layer1"
     transform="translate(-342.336,-486.62049)">
    <g
       transform="matrix(1.25,0,0,-1.25,248.586,1193.972)"
       id="g2714">
      <defs
         id="defs1">
        <path
           id="SVGID_1_"
           d="M -207.3,-124.9 H 2615.8 V 642.6 H -207.3 Z" />
      </defs>
      <clipPath
         id="SVGID_2_">
        <use
           xlink:href="#SVGID_1_"
           overflow="visible"
           id="use1" />
      </clipPath>
      <g
         id="g2716"
         class="st0"
         clip-path="url(#SVGID_2_)">
        <path
           id="path2722"
           class="st1"
           d="m 293.7,-48.3 -14.1,15.2 c 0,0 -7.3,7.3 -12,10.5 -0.3,0.2 -11.6,5.4 -13.3,6.3 C 227.3,-7.4 185.2,1.2 148,18 129.4,26.4 111.7,37.1 98,52.3 84.3,67.5 75,88 75,111.5 V 565.9 H 514.2 V 111.4 c 0,-23.9 -9.3,-44.5 -23.3,-59.7 -14,-15.2 -32,-25.8 -50.8,-34 C 402.4,1.2 359.6,-7.2 334,-16.6 c -9.8,-3.6 -10.7,-4.3 -16,-8.4 v 0.3 c -2,-1.6 -9.7,-8.9 -9.7,-8.9 z" />
      </g>
    </g>
    <path
       id="path2724"
       class="st2"
       d="m 630.6,1205.2 c 7.9,-6.2 13.7,-9.3 26.9,-14.1 70.9,-26 208.6,-41.4 208.6,-136.4 V 511.9 H 367.5 v 542.8 c 0,93.3 134.2,111.8 206.8,135.7 0,0 16.2,6.5 22.9,11.1 9.5,6.5 19.1,16.7 19.1,16.7 0,0 9,-8.9 14.3,-13" />
    <path
       id="path2726"
       class="st3"
       d="m 630.6,1205.2 c 7.9,-6.2 13.7,-9.3 26.9,-14.1 70.9,-26 208.6,-41.4 208.6,-136.4 V 511.9 H 367.5 v 542.8 c 0,93.3 134.2,111.8 206.8,135.7 0,0 16.2,6.5 22.9,11.1 9.5,6.5 19.1,16.7 19.1,16.7 0,0 9,-8.9 14.3,-13 z" />
    <path
       id="path2728"
       class="st1"
       d="m 480.7,683.1 8.1,16.6 18,2.7 -13,12.9 3.1,18.2 -16.1,-8.6 -16.1,8.6 3.1,-18.2 -13,-12.9 18,-2.7 7.9,-16.6" />
    <path
       id="path2730"
       class="st4"
       d="m 464.6,545.5 c -0.4,0 -1.2,0.5 -2.1,1.3 l -7.1,5.2 c -1.5,1.1 -2.7,3.2 -3.7,6.3 -0.9,3.1 -1.7,6 -2.4,8.6 L 431,621.1 c -2.5,7.2 -4.8,12.4 -6.8,15.4 -2,3 -5,4.4 -8.9,4.4 -1.4,0 -2.4,0.8 -2.4,2.1 v 2.4 c 0,0.8 0.6,1.3 1.6,1.3 0.6,0 2.9,-0.3 6.5,-0.5 3.7,-0.2 6.4,-0.3 8.1,-0.3 1.7,0 4.2,0 7.6,0.3 3.5,0.2 5.8,0.5 6.8,0.5 1.7,0 2.6,-0.5 2.6,-1.3 v -2.6 c 0,-1.1 -0.6,-1.8 -1.8,-1.8 -6.5,0 -9.7,-1.8 -9.7,-5.5 0,-1.5 0.5,-3.8 1.6,-6.8 l 6.5,-19.6 h 28.5 l 6.8,16 c 1.5,3.8 2.5,6.4 2.9,7.6 0.4,1.1 0.8,2.1 0.8,3.1 0,3.5 -2.8,5.2 -8.4,5.2 -1.5,0 -2.4,0.8 -2.4,2.1 v 2.4 c 0,0.7 0.5,1.3 1.3,1.3 1.1,0 4.2,-0.3 9.7,-0.5 5.5,-0.2 9.3,-0.3 11.3,-0.3 2.4,0 5.5,0 9.4,0.3 4,0.2 6.8,0.5 8.4,0.5 1,0 1.6,-0.6 1.6,-1.8 v -2.4 c 0,-0.8 -0.6,-1.4 -1.8,-1.6 -3.5,-0.5 -6,-1.2 -7.3,-2.6 -1.4,-1.4 -3,-4.4 -4.7,-8.6 l -33,-82.2 c -0.5,-1.3 -0.9,-2.1 -1.2,-2.1 z m 316,2.1 c -15.5,0 -28.7,4.6 -39.3,14.1 -10.6,9.5 -15.7,21.1 -15.7,34.5 0,16.9 5.4,29.9 16,39 10.6,9.1 23.5,13.6 39.3,13.6 12.1,0 22.9,-2.3 32.2,-7.1 l 4.2,-17.3 c 0.3,-1.1 0.5,-1.8 0.5,-2.1 0,-0.5 -0.7,-1.1 -2.1,-1.6 -1.4,-0.5 -2.5,-0.8 -3.1,-0.8 -0.5,0 -1,1 -1.8,2.9 -3,6.7 -6.4,11.6 -10.2,14.7 -3.7,3 -9.4,4.4 -17.3,4.4 -10.8,0 -19.8,-4.3 -27,-12.8 -7.2,-8.6 -10.7,-19.1 -10.7,-31.7 0,-12.5 3.3,-22.7 9.9,-30.9 6.6,-8.2 15.2,-12.3 25.9,-12.3 7.2,0 13,2 17.5,6 4.5,4 7.7,8.6 9.4,13.9 0.2,0.8 0.4,1.5 0.5,1.8 0.2,0.3 0.3,0.3 0.8,0.3 0.7,0 1.9,0 3.1,-0.3 1.3,-0.3 2.1,-0.7 2.1,-1 0,-0.6 -0.4,-3.6 -1,-8.9 -0.7,-5.4 -1.3,-8.2 -1.6,-8.9 -0.7,-1.6 -4.2,-3.6 -11,-6 -6.7,-2.2 -13.6,-3.5 -20.6,-3.5 z M 512,550 c -1.1,0 -1.6,0.5 -1.6,1.6 v 2.4 c 0,1 0.6,1.6 2.1,1.6 3.7,0 6.6,0.6 8.6,2.1 2,1.5 4,4.7 5.8,8.9 l 32.5,80.4 c 0.4,0.9 0.6,1.5 1,1.8 0.4,0.3 1.2,0.3 2.4,0.3 h 2.4 c 0.8,0 1.4,0 1.8,-0.3 0.4,-0.3 0.7,-0.8 1,-1.6 l 32.2,-79.8 c 1.9,-4.8 3.3,-8.2 4.4,-9.7 1.1,-1.5 3.4,-2.1 6.5,-2.1 1.2,0 1.6,-0.7 1.6,-1.8 v -2.1 c 0,-1.1 -0.6,-1.6 -1.6,-1.6 -1,0 -2.7,0 -5.5,0.3 -2.8,0.2 -4.9,0.3 -6.3,0.3 -1.8,0 -5.1,0 -9.4,-0.3 -4.3,-0.2 -6.7,-0.3 -7.6,-0.3 -1.1,0 -1.6,0.5 -1.6,1.6 v 2.1 c 0,1.2 0.6,1.8 2.1,1.8 3.8,0 6.5,0.2 7.9,0.8 1.4,0.6 2.1,1.9 2.1,3.9 0,2.1 -0.3,4.6 -1.3,7.1 L 569.8,624.2 546,565.7 c -1.2,-3.1 -1.6,-5.3 -1.6,-6.5 0,-1.2 0.7,-2.3 2.1,-2.9 1.4,-0.6 3.9,-0.8 7.3,-0.8 1.3,0 1.8,-0.5 1.8,-1.6 v -2.4 c 0,-1.1 -0.6,-1.6 -2.1,-1.6 -1.1,0 -4.7,0 -10.7,0.3 -6,0.2 -10.3,0.3 -12.6,0.3 -2.7,0 -6.1,0 -10.5,-0.3 C 515.6,550 513,550 512,550 Z m 123.6,0 c -1.6,0 -2.6,0.4 -2.6,1.3 v 2.6 c 0,1 1.1,1.6 2.9,1.6 4,0 6.5,0.9 7.9,2.9 1.4,2 2.1,5.7 2.1,11 v 59.9 c 0,3.9 -0.9,6.9 -2.6,8.9 -1.7,2 -4.3,2.9 -7.9,2.9 -1.5,0 -2.4,0.6 -2.4,1.6 v 2.6 c 0,1 0.8,1.6 2.4,1.6 0.9,0 4.4,-0.3 10.2,-0.5 5.9,-0.2 9.5,-0.3 11.3,-0.3 1.9,0 5.2,0 9.7,0.3 4.6,0.2 7.4,0.5 8.1,0.5 1.5,0 2.1,-0.5 2.1,-1.3 v -3.1 c 0,-0.7 -0.6,-1.3 -2.1,-1.3 -3.7,0 -6.4,-0.9 -8.1,-2.6 -1.7,-1.7 -2.6,-4.8 -2.6,-9.2 v -31.7 h 18.8 c 4,0 7,0.9 8.9,2.6 2,1.7 3.5,4.6 4.4,8.6 0.2,1.2 0.8,1.6 1.6,1.6 h 2.9 c 0.7,0 0.8,-0.5 0.8,-1.8 0,-0.9 0,-3 -0.3,-6 -0.2,-3 -0.3,-5 -0.3,-6.3 0,-1.8 0.1,-4.6 0.3,-7.9 0.2,-3.3 0.3,-5.2 0.3,-6 0,-1 -0.4,-1.6 -1.3,-1.6 h -2.6 c -0.7,0 -1.1,0.3 -1.3,1.3 -0.8,3.8 -2,6.4 -3.4,7.6 -1.4,1.2 -4.2,1.8 -8.4,1.8 H 664 v -27 c 0,-3.4 1.1,-5.6 2.9,-6.8 1.9,-1.2 5.3,-1.6 10.5,-1.6 h 4.2 c 7.3,0 12.2,0.7 14.7,2.1 2.5,1.4 4.4,3.9 5.8,7.6 l 1.6,3.9 c 0.5,1.4 0.9,2.1 1.8,2.1 h 2.1 c 0.9,0 1.3,-0.4 1.3,-1.6 v -19.1 c 0,-1 -0.3,-1.3 -1.3,-1.3 -1.3,0 -8.6,0 -21.5,0.3 -12.8,0.2 -20.8,0.3 -24.1,0.3 -4,0 -9.1,0 -15.4,-0.3 -6.6,-0.2 -10.2,-0.2 -11,-0.2 z m -180.1,21.2 12.8,31.1 h -22.8 z m 65.4,534.2 c -4.8,-0.3 -9.4,0.5 -9.4,0.5 v 35.1 h 5 v -18.3 c 0,0 14.1,-3.3 14.1,-11.5 0,-4.2 -4.9,-5.5 -9.7,-5.8 z m 25.7,0 c -4.8,-0.3 -9.7,0.5 -9.7,0.5 v 35.1 h 5.2 v -18.3 c 0,0 2.6,-0.8 5.5,-2.1 0.4,0.6 2,3.4 4.4,9.2 2.7,6.4 3.4,11.3 3.4,11.3 h 5 c 0,0 -1.2,-6.4 -3.4,-12 -1.9,-4.8 -4.7,-8.9 -5.5,-10.2 2.6,-1.8 4.7,-4.4 4.7,-7.6 0.1,-4.3 -4.8,-5.6 -9.6,-5.9 z m 54.9,0 c -4.8,-0.3 -9.7,0.5 -9.7,0.5 v 35.1 h 5.2 v -18.3 c 0,0 14.1,-3.3 14.1,-11.5 0.1,-4.2 -4.8,-5.5 -9.6,-5.8 z m 52.4,0 c -4.8,-0.3 -9.7,0.5 -9.7,0.5 v 35.1 h 5 v -18.3 c 0,0 2.6,-0.8 5.5,-2.1 0.4,0.6 2.3,3.4 4.7,9.2 2.7,6.4 3.1,11.3 3.1,11.3 h 5 c 0,0 -1.2,-6.4 -3.4,-12 -2,-5 -4.5,-9.4 -5.2,-10.5 2.5,-1.8 4.4,-4.2 4.4,-7.3 0,-4.3 -4.6,-5.6 -9.4,-5.9 z m 47.1,0 c -2.1,0.1 -3.7,0.5 -3.7,0.5 v 35.1 h 5.2 c 0,0 17,0.3 17,-21.5 0.1,-13.4 -12.3,-14.5 -18.5,-14.1 z m -133,0.5 v 35.1 h 15.4 v -4.2 H 573 v -16 h 7.1 v -3.9 H 573 v -7.1 h 10.5 v -3.9 z m 53.2,0 -11,35.1 h 5.5 l 5.8,-20.2 h 6.8 l 5.8,20.2 h 5.2 l -10.7,-35.1 z m 52.3,0 V 1141 H 689 v -4.2 h -10.2 v -16 h 6.8 v -3.9 h -6.8 v -7.1 H 689 v -3.9 z m -48.7,2.9 2.4,8.1 h -4.7 z m -103.9,0.5 c 2.2,0.1 4.4,0.6 4.4,1.8 0,4.7 -8.9,6.5 -8.9,6.5 v -8.1 c 0.1,0.1 2.3,-0.2 4.5,-0.2 z m 25.7,0 c 2.2,0.1 4.2,0.6 4.2,1.8 0,4.7 -8.6,6.5 -8.6,6.5 v -8.1 c -0.1,0.1 2.2,-0.2 4.4,-0.2 z m 54.9,0 c 2.2,0.1 4.4,0.6 4.4,1.8 0,4.7 -8.9,6.5 -8.9,6.5 v -8.1 c 0.1,0.1 2.3,-0.2 4.5,-0.2 z m 52.1,0 c 2.2,0.1 4.4,0.6 4.4,1.8 0,4.7 -8.9,6.5 -8.9,6.5 v -8.1 c 0.1,0.1 2.3,-0.2 4.5,-0.2 z m 50.3,0.5 c 3.5,-0.2 10.5,0.5 10.5,9.9 0,15.7 -8.8,17.6 -11.8,17.8 V 1110 c 0.3,0 0.5,-0.1 1.3,-0.2 z" />
    <path
       id="path2776"
       class="st5"
       d="m 631.3,697.7 c -2.9,4.5 -10.4,7.3 -10.4,7.3 0,0 -1.7,-0.1 -0.4,-3.2 1.2,-2.8 1.7,-4.2 1.7,-4.2 l -6.1,2.2 c 0,0 2.1,-1.9 3,-5 0.8,-3.1 0.6,-5.1 0.6,-5.1 0,0 -0.8,2.6 -3.8,3.9 -2.4,1 -7.2,1.5 -7.2,1.5 0,0 5.8,-12 14.8,-11.2 9,0.9 10.7,9.3 7.8,13.8 z m -40.7,13.2 c -1.1,2.6 -3.7,5.3 -6.7,6.1 -2.5,0.6 -4.7,0.6 -6.5,-0.1 -4.5,-1.6 -5.4,-4.8 -5.4,-4.8 l 4.8,-2.3 c 0.8,2.4 2.5,3.8 4.5,3.9 2,0.1 3.5,-0.9 4.1,-2.6 0.3,-1 0.1,-2.5 0.1,-2.5 0,0 -0.6,1.4 -1.8,1.4 -0.9,0 -2.3,-0.6 -1.8,-2.7 l 10.8,-5.2 c 0,0.1 -0.3,4.6 -2.1,8.8 z m 215.9,36.3 c 0,0 -10,13.7 -20.7,15.9 -7.5,1.6 -12.7,0.8 -12.7,0.8 0,0 2.8,-0.2 4.9,-1.9 2.5,-1.9 3.9,-5.2 3.9,-5.2 0,0 -4.5,2.3 -12,0.3 -3.4,-0.9 -10.8,-1.6 -16.7,0.6 -4.5,1.6 -9.8,6.2 -9.8,6.2 0,0 1.7,-1.8 2.6,-3.9 1.1,-2.7 0.5,-5.7 0.5,-5.7 0,0 -0.6,2.9 -4.3,4.5 -2.2,0.9 -7,3 -9.1,6.2 -2.8,4.2 -2.5,9.3 -3.6,10.5 -0.9,1 -28.1,13.3 -30,38.4 -1.8,25 16.8,44.3 22.9,51.4 6.1,7.1 32,37.3 36.2,44.1 3.4,5.4 6.2,11.1 3,18.1 -1.9,4.1 -8.4,8.9 -18,4.4 -9.8,-4.6 -16.4,-11 -26.7,-15.5 -8.2,-3.7 -17.8,-6.3 -19.9,-7.7 -1.6,-1.1 -15.9,-10.2 -17.2,-26.8 -1.1,-12.9 4.1,-33.1 4.9,-47.1 1.1,-19.3 -4.5,-27.6 -4.6,-28.4 -0.2,-1.3 4.9,0.3 7,4.1 3,5.3 2.6,7.4 2.6,7.4 0,0 6.6,-12.3 3.8,-27.9 -3.2,-17.7 -14.1,-19.9 -14.2,-21.2 -0.1,-1 3.3,-1.7 6.7,-0.6 9.6,3 11.3,12.3 11.3,12.3 0,0 4.1,-13 -1.6,-26.2 -5.2,-12.1 -13,-13.2 -13.2,-14.6 -0.1,-0.7 2.4,-1.9 7.6,-0.6 8,2 9.8,8.8 9.8,8.8 0,0 1.9,-11.3 -1.5,-20.9 -6.1,-17.2 -18.5,-19 -18.6,-20.3 0,-0.8 3.5,-1.8 7.1,-0.8 6,1.7 6.8,3.4 6.8,3.4 0,0 -0.3,-4.2 -3.6,-10.5 -3.6,-6.9 -12.4,-16.1 -16,-18.2 -20.2,-12.1 -31.2,-9.7 -34.8,-9.9 -1,-0.1 -3.1,-1.8 -2.1,-4.8 1.4,-4.5 4.5,-6.1 4.5,-6.1 0,0 -8.5,-0.3 -16.2,2.6 -9,3.4 -13.6,8.4 -14.7,8.4 -0.9,0 -2,-1.6 -2,-3.8 0.1,-3.3 1.2,-4.3 1.2,-4.3 0,0 -10.6,3.5 -15.7,7.3 -3.6,2.6 -9,6.8 -11.8,13.3 -2.2,5.1 -3.3,11.7 -3.3,11.7 0,0 -2.4,-1.8 -5.8,0.6 -3.5,2.5 -7.3,7.4 -9.3,10.3 -1.8,2.8 -4.6,5.7 -6.4,6.4 -2.1,0.8 -14,5 -16.4,6.4 -2.1,1.3 -3,5.7 -2.6,7.5 0.2,0.8 1,2.8 2.9,4.9 1,1.1 1.7,0.2 2.3,-1.1 0.3,-0.7 0.8,-1.1 1.2,-0.9 2.5,1.3 0.3,7 0.9,8.6 0.8,2 2.6,3.7 4.7,5.1 2.7,1.8 8.2,3.5 8.2,3.5 0,0 -0.8,-2.5 0.2,-4 0.8,-1.2 3.1,-3 5.4,-3.3 4.3,-0.6 10.9,-0.2 14.3,2.7 4.8,4.1 4.1,9.5 4.1,9.5 0,0 -8.5,3.3 -12.6,3.9 -4.1,0.6 -7.2,0.6 -10.2,-0.5 -3,-1.1 -5.6,-4.2 -5.6,-4.2 0,0 -0.9,4.8 -1.3,5.4 -0.3,0.4 -2.5,1.5 -2.3,2.9 0.4,2.7 4.2,2.9 4.6,3.7 0.5,0.9 -2.4,3.7 -0.4,7.9 1.1,2.3 3.4,4.2 5.6,5.4 2.4,1.3 4.6,1.8 4.6,1.8 0,0 -0.8,-3.3 1.1,-5.7 1,-1.4 3.1,-1.8 3.4,-1.6 0.6,0.3 0.6,1.5 3,2.8 2.5,1.4 5.7,0.9 5.7,0.9 0,0 -2.4,-3 -0.3,-5.6 1.5,-1.8 4.6,-2.5 5.2,-2.3 0.7,0.2 3.4,3.4 10,5.3 3,0.9 7.8,1.3 10.1,0 5.5,-3 5.6,-5.4 11.2,-6.5 0,0 -3,1.4 -5.9,8.6 -2.6,6.4 -9.6,8.8 -14,10.2 -5.4,1.7 -11.4,2.9 -16.8,5.4 -3.6,1.7 -8.2,4.6 -12.3,8.3 -4.1,3.7 -7.9,9.6 -9.9,10.8 -2.1,1.2 -20.3,3.5 -37.4,-2.3 -17.1,-5.7 -23.5,-14.4 -30.7,-23.7 -7.5,-9.7 -14.4,-16.8 -19.2,-18.5 -4.4,-1.6 -7.3,-2.4 -11.3,-1.6 -3,0.6 -5.4,2.5 -6.2,5.3 -1.3,4.5 -0.4,6.7 0.7,8.1 1.3,1.6 5.1,2.9 5.1,2.9 0,0 -4.6,-0.8 -7.2,1.7 -2.5,2.4 -3.2,10.4 0.4,13.4 3,2.5 5.9,2.5 5.9,2.5 0,0 -1.9,0.1 -2.6,1.4 -1.2,2.3 -2.2,6 -0.5,8.5 4.3,6.3 8.6,3.9 13.3,4.8 6.5,1.4 9,1.8 13.7,4.1 7.3,3.6 14.4,10.4 21.4,17.3 8.3,8.2 15.4,12.6 17.7,14.4 19,15.2 38.3,13.4 38.3,13.4 0,0 -1.5,-0.7 -4,-2.1 -1.8,-1 -3.3,-2.3 -2.6,-2.4 1.3,-0.2 5.7,1.2 11.8,0.9 6,-0.3 8.7,-1.8 9.3,-1.6 1,0.2 -0.6,10.1 -7.1,16 -6.4,5.8 -10.4,7 -17.5,7.5 -5.9,0.4 -26.9,2.9 -31.5,2.2 -4.6,-0.7 -12.2,-4.2 -15.2,-4.7 -3.1,-0.5 -5.4,-1.1 -8.7,1.8 -3.3,2.9 -6.4,10.2 -4.7,13.9 1.6,3.6 6.9,4 6.9,4 0,0 -7.2,0 -9.8,3.8 -2.2,3.2 -3.5,7.3 -0.6,13.7 1.6,3.7 5.9,6.8 8.8,6.4 2.8,-0.4 6.3,-3.3 6.3,-3.3 0,0 -4,4.9 -2.2,7.7 1.8,2.8 7.2,5.3 11.7,5 4.4,-0.2 8.9,-6.8 11.8,-11 3.1,-4.6 7.6,-6.2 12.5,-8.3 5.6,-2.3 40.1,-6.6 45.4,-5.7 5.5,0.9 5.4,1.2 8.5,1.9 0,0 -0.3,-1.7 -1.6,-3.8 -1.6,-2.6 -3.2,-4 -2.8,-4.4 0.5,-0.7 7.9,-0.7 13.9,0.6 7,1.6 12.6,6.1 12.6,6.1 0,0 -5,-1.5 -10.1,-1.1 -3.4,0.3 -6.3,1.2 -6.3,1.2 0.5,0.8 0.6,1.3 1,2.4 0.9,2.4 1.6,5.6 1.2,5.6 -0.7,0 -3.5,-0.9 -6.9,-1.6 -4.2,-0.8 -5.7,-1.5 -9.3,-1.2 -2.2,0.2 -26.3,6.2 -33.7,20.2 -7,13.2 -3.4,20.8 -1.2,24.8 2.2,4.1 8.9,9.9 11.1,11.6 3.4,2.7 15.4,8.1 15.3,9.3 -0.1,1.1 -7.9,3.9 -16.7,4.9 -8.9,1 -21.7,-2.2 -25.7,-6.7 -2.6,-2.9 -7.9,-12.1 -11.2,-15.7 -3.2,-3.6 -11.4,-7.4 -16.7,-5.3 -3.5,1.4 -5.3,4.3 -6.7,7.2 -1.4,2.9 -0.1,5.4 0.9,6.3 0.7,0.6 2.8,1.9 2.8,1.9 0,0 -2.2,-0.6 -4.7,1.5 -2.1,1.8 -3.5,3.9 -3.9,8.9 -0.4,4.4 1,7 3,8.7 2,1.7 4.7,1.3 4.7,1.3 0,0 -4.1,1.3 -4.2,4.3 -0.1,3 1.7,7.8 5.5,9.7 3.8,1.8 17.3,-0.4 23.4,-1.1 4.5,-0.5 12.6,0.6 16.9,3.4 2.9,1.9 4.9,5.1 7.5,7.1 1.9,1.5 5.4,1.9 7.7,0.2 2,-1.4 2.1,-3.1 3.3,-4.1 1.2,-1 2,-1.6 11,-2.3 7.5,-0.6 10.5,2.4 11.6,4.2 0.5,0.7 0.7,-0.1 1,2.3 0.4,3.4 -0.7,4.7 -0.7,4.7 0,0 4.2,-0.2 7.3,-2.2 1.8,-1.1 4.1,-2.9 4.6,-3.3 0.5,-0.5 1.8,-1.1 2.2,0.6 0.5,2.1 -0.3,2.7 -0.3,2.7 0,0 4.1,-0.5 7.1,-2.5 3.4,-2.2 4.4,-3.4 5.5,-3.6 0.7,-0.1 1.1,0.7 0.5,3.1 0,0 13.3,-2.6 11.9,-17.2 -1.9,-19.2 -3.9,-26.9 -2,-34.6 1.9,-7.7 8.8,-15.2 8.8,-15.2 l 2.9,4.4 c 0,0 -5.2,7.1 -5.8,16.4 -0.4,5.6 1.4,16.8 3.1,22 2.1,6.2 5.5,11.5 7.2,13.5 3.4,4.2 6,4.5 6,4.5 0,0 0,-1.1 0.6,-2.9 0.4,-1.4 1.6,-1.5 1.8,-1.4 0.6,0.2 1,2.2 3.3,4.2 2.6,2.2 9.4,3.2 9.4,3.2 0,0 -0.5,-1 -0.4,-2.6 0.1,-1.5 1,-2.6 1.5,-2.5 0.7,0.2 0,1.3 4.1,3.3 3.9,1.9 8,1 8,1 0,0 -0.8,-1.1 -0.8,-2.2 0,-1.4 0.8,-2.5 1.2,-2.6 0.6,-0.1 -0.2,0.5 4.7,1.5 4.6,1 7.6,-2 7.6,-2 0,0 -2,-2 -3.1,-4.1 -0.7,-1.2 -0.3,-2.6 0.3,-3.3 0.7,-0.8 6.8,-0.9 9.8,3.2 2.6,3.6 4.6,20.2 3.7,29.4 -0.6,6.8 -7,19 -16.2,24.6 -8,4.9 -10.8,2.8 -13.6,0.8 -3.3,-2.4 -9,-7.3 -12.7,-7.8 -3.7,-0.6 -7.5,-0.6 -10.4,0.1 -2.4,0.6 -1.3,0.1 -5.7,1.3 -3,0.8 -8,2.4 -10,6.3 -1.8,3.4 -1.6,9.5 1.3,11.6 2.7,2.1 5.3,2.6 6.6,1.3 0,0 -1.5,1.2 -2.6,3.3 -1.7,2.9 -1.7,5.5 1.1,9.8 2.4,3.7 6.3,5.2 8.2,5.3 3,0.2 4.8,-0.6 4.8,-0.6 0,0 0.7,-0.2 2.3,-2.2 0,0 -3.5,5.2 -1.4,8.8 1,1.7 4.2,3.6 7.8,3.6 5,0 9.6,-0.8 11.8,-2.1 3.5,-2 6.6,-4.3 9.2,-6.6 4.7,-4.1 8.9,-9 15.2,-13 3.4,-2.2 17.1,-9.4 23.5,-10.7 3.7,-0.7 5.4,-1.1 7.6,-3.2 2.2,-2 4.2,-7.3 2.1,-12 -2.2,-4.7 -0.4,-11.3 1.4,-20.3 1.8,-9 4,-14.9 6.9,-17 2.8,-2.1 6.1,-1.8 11.8,-5.5 6.1,-3.9 5.4,-10.6 5.4,-10.6 0,0 -1.7,0.8 -6.3,-1.6 -3.9,-2 -3.4,-4.4 -3.3,-5.3 0.2,-1.1 1.2,-1 4.6,-4 3.9,-3.5 2.8,-12 2.8,-12 0,0 -1.3,1.8 -5.4,1.8 -2.9,-0.1 -5.7,-0.3 -6.2,-2.8 -0.6,-2.6 1.6,-3.1 2.1,-6.6 0.6,-4.4 -1.7,-7.3 -1.7,-7.3 0,0 -1.7,3 -9,3.5 -4.6,0.3 -6.9,-0.4 -8.9,-1.2 -2.8,-1.2 -6,-4.6 -6.7,-8.2 -1.3,-7 1.2,-10.3 1.9,-11.1 2.7,-3 9.1,-1.7 17.1,3.9 9,6.3 26.6,15.1 40.8,9.2 13.2,-5.4 25.3,-29.2 11.4,-49.3 -12.3,-17.9 -47.7,-55.9 -51.6,-62.2 -3.5,-5.5 -9.2,-14.9 -7.9,-24.1 1,-7.8 4.6,-13 8.2,-16 3.5,-3 7.9,-5.1 9.2,-5.2 1.2,-0.2 10.9,5.6 19.2,6.6 7.9,0.9 15,-2.6 20.6,-5.7 4.5,-2.5 8.5,-2 8.5,-2 -2,-1.2 -1.4,-1.3 -3.6,-2.2 -1.3,-0.5 -4.3,-0.4 -4.3,-0.4 0,0 12.3,-3.7 18.8,-11 11,-12.2 12.8,-32.2 12.8,-32.2" />
  </g>
</svg>
