<?xml version="1.0" encoding="utf-8"?>
<!-- Generator: Adobe Illustrator 16.0.3, SVG Export Plug-In . SVG Version: 6.00 Build 0)  -->
<svg version="1.2" baseProfile="tiny" id="Layer_1" xmlns="http://www.w3.org/2000/svg" xmlns:xlink="http://www.w3.org/1999/xlink"
	 x="0px" y="0px" width="182.331px" height="299.951px" viewBox="0 0 182.331 299.951" overflow="scroll" xml:space="preserve">
<g>
	<path fill-rule="evenodd" fill="#FFFFFF" d="M18.976,241.415C35.67,277.002,61.836,300,91.165,300
		c50.212,0,91.166-67.383,91.166-150.002c0-32.539-6.355-62.714-17.127-87.34l-1.714-3.786C146.802,23.12,120.573,0,91.165,0
		C40.953,0,0,67.383,0,149.998c0,32.672,6.408,62.954,17.256,87.633L18.976,241.415L18.976,241.415z"/>
	<linearGradient id="SVGID_1_" gradientUnits="userSpaceOnUse" x1="100.6528" y1="68.8872" x2="100.6528" y2="299.7947">
		<stop  offset="0" style="stop-color:#565555"/>
		<stop  offset="1" style="stop-color:#171616"/>
	</linearGradient>
	<path fill-rule="evenodd" fill="url(#SVGID_1_)" d="M165.204,62.658c10.771,24.627,17.127,54.801,17.127,87.34
		c0,82.619-40.954,150.002-91.166,150.002c-29.329,0-55.495-22.998-72.189-58.585l19.11-23.364
		c14.79,11.309,33.237,18.043,53.206,18.043c48.439,0,87.946-39.587,87.946-88.126c0-26.239-11.549-49.857-29.809-66.025
		L165.204,62.658L165.204,62.658z M43.521,211.408L143.994,88.586c16.345,14.586,26.669,35.813,26.669,59.381
		c0,43.803-35.654,79.532-79.371,79.532C73.382,227.5,56.827,221.499,43.521,211.408L43.521,211.408z"/>
	<linearGradient id="SVGID_2_" gradientUnits="userSpaceOnUse" x1="81.7446" y1="3.3398" x2="81.7446" y2="237.2161">
		<stop  offset="0" style="stop-color:#378ECD"/>
		<stop  offset="1" style="stop-color:#416FA6"/>
	</linearGradient>
	<path fill-rule="evenodd" fill="url(#SVGID_2_)" d="M91.165,0c29.408,0,55.637,23.12,72.325,58.872l-16.901,20.659
		c-15.124-12.301-34.376-19.688-55.297-19.688c-48.439,0-87.946,39.587-87.946,88.125c0,27.191,12.402,51.573,31.827,67.763
		l-17.917,21.901C6.408,212.952,0,182.67,0,149.998C0,67.383,40.953,0,91.165,0L91.165,0z M141.158,86.172L40.604,209.091
		c-17.507-14.61-28.684-36.6-28.684-61.123c0-43.806,35.655-79.533,79.371-79.533C110.154,68.435,127.513,75.091,141.158,86.172
		L141.158,86.172z"/>
	<path fill-rule="evenodd" fill="#FFFFFF" d="M30.109,64.649l-2.038-8.823l0.046-0.03l7.028,5.581L30.109,64.649L30.109,64.649z
		 M37.197,62.806l4.669,3.677l2.394-1.555L27.858,52.529l-2.485,1.615l4.43,20.176l2.259-1.467l-1.371-5.82L37.197,62.806
		L37.197,62.806z"/>
	<polygon fill-rule="evenodd" fill="#FFFFFF" points="33.767,47.943 48.008,41.34 48.983,43.44 43.048,46.193 50.214,61.637 
		47.844,62.735 40.678,47.292 34.742,50.044 33.767,47.943 	"/>
	<path fill-rule="evenodd" fill="#FFFFFF" d="M58.258,49.878l0.673-9.031l0.053-0.015l5.055,7.416L58.258,49.878L58.258,49.878z
		 M65.574,50.223l3.367,4.898l2.747-0.775L59.707,37.635l-2.853,0.805l-1.757,20.585l2.593-0.73l0.418-5.966L65.574,50.223
		L65.574,50.223z"/>
	<polygon fill-rule="evenodd" fill="#FFFFFF" points="76.608,50.809 86.338,49.62 86.621,51.919 74.299,53.424 71.938,34.23 
		74.53,33.914 76.608,50.809 	"/>
	<path fill-rule="evenodd" fill="#FFFFFF" d="M95.047,44.337l3.86-8.194l0.053,0.006l2.067,8.735L95.047,44.337L95.047,44.337z
		 M101.756,47.277l1.391,5.78l2.844,0.26l-5.212-19.896l-2.95-0.271l-9.002,18.595l2.681,0.245l2.524-5.422L101.756,47.277
		L101.756,47.277z"/>
	<polygon fill-rule="evenodd" fill="#FFFFFF" points="126.454,38.442 128.878,39.166 123.347,57.698 120.535,56.86 115.583,39.085 
		115.531,39.069 111.063,54.039 108.637,53.316 114.169,34.784 117.136,35.668 121.933,53.398 121.984,53.414 126.454,38.442 	"/>
	<polygon fill-rule="evenodd" fill="#FFFFFF" points="132.142,40.204 146.381,46.827 145.405,48.927 139.47,46.166 132.296,61.6 
		129.927,60.497 137.101,45.065 131.164,42.304 132.142,40.204 	"/>
	<path fill-rule="evenodd" fill="#FFFFFF" d="M144.453,59.35l7.315-5.336l0.044,0.03l-2.373,8.655L144.453,59.35L144.453,59.35z
		 M148.931,65.148l-1.548,5.737l2.371,1.592l4.961-19.955l-2.46-1.653L135.44,62.866l2.236,1.502l4.814-3.545L148.931,65.148
		L148.931,65.148z"/>
	<path fill-rule="evenodd" fill="#FFFFFF" d="M55.455,261.211l-3.018-0.961l5.099-16.023l-5.266-1.678l0.715-2.246
		c3.743,0.908,5.364,1.037,7.438-2.371l2.215,0.708L55.455,261.211L55.455,261.211z"/>
	<path fill-rule="evenodd" fill="#FFFFFF" d="M75.33,255.499c-1.972-0.241-4.709-1.153-4.16-5.663
		c0.384-3.141,2.449-5.058,5.188-4.726c3.375,0.414,4.461,2.919,4.134,5.594C79.926,255.349,76.866,255.687,75.33,255.499
		L75.33,255.499z M74.572,258.086c2.172,0.266,4.635-0.451,5.723-2.152l0.059,0.075c-1.477,5.991-3.511,8.491-6.719,8.099
		c-2.405-0.294-3.63-1.936-3.508-4.328l-2.941-0.357c-0.276,2.271,0.705,6.461,6.219,7.135c8.086,0.986,9.829-9.687,10.135-12.192
		c0.465-3.812,0.594-10.984-6.893-11.898c-4.946-0.605-8.012,2.853-8.534,7.131C67.542,254.277,70.229,257.556,74.572,258.086
		L74.572,258.086z"/>
	<path fill-rule="evenodd" fill="#FFFFFF" d="M104.346,255.066c0.366,5.913-0.958,9.571-4.352,9.784
		c-3.394,0.21-5.16-3.257-5.528-9.17c-0.366-5.913,0.957-9.571,4.352-9.781C102.21,245.689,103.976,249.153,104.346,255.066
		L104.346,255.066z M107.503,254.872c-0.304-4.907-2.064-12.048-8.851-11.625c-6.787,0.419-7.649,7.727-7.344,12.631
		c0.306,4.904,2.063,12.048,8.851,11.625C106.945,267.084,107.807,259.777,107.503,254.872L107.503,254.872z"/>
	<path fill-rule="evenodd" fill="#FFFFFF" d="M111.347,241.774l15.73-4.491l0.712,2.494c-1.589,3.01-4.952,11.814-3.694,22.449
		l-3.14,0.896c-1.01-6.471,0.797-15.81,3.713-22.14l-12.524,3.577L111.347,241.774L111.347,241.774z"/>
	<path fill-rule="evenodd" fill="#FFFFFF" d="M155.565,97.686c0,0-11.776,8.198-22.186,5.966
		c-15.825-3.395-26.841-10.285-33.192-12.601c-6.354-2.314-20.31-6.052-30.085-0.721c-6.917,3.772-9.55,8.425-10.262,11.608
		c-0.56,2.501-2.093,5.366-4.823,7.782c-3.25,2.878-6.455,7.67-8.304,12.755c-1.851,5.085-3.07,9.026-10.804,16.508
		c-4.838,4.682-7.257,7.021-5.907,9.456c1.509,2.72,3.808,4.154,3.453,5.745c-0.356,1.592-2.426,4.484-2.73,5.849
		c-0.306,1.364,1.746,4.902,1.746,4.902s-1.674,0.602-1.765,1.527c-0.18,1.867,1.001,1.883,1.594,5.585
		c0.383,2.393-2.584,7.309-1.685,9.646c1,2.602,4.825,4.995,12.852,6.093c9.196,1.257,17.669,3.25,26.755,13.84
		c11.274,13.142,15.998,22.734,15.998,22.734s31.002,5.457,58.497-21.053c4.629-4.463,8.52-9.223,11.752-14.168
		c0.118-0.18,0.35-0.539,0.35-0.539l2.559-0.011c0,0,4.687-1.293,4.802-1.491C183.406,153.995,169.399,112.483,155.565,97.686z"/>
	<path fill="#2F2E2E" d="M156.944,114.453c-3.526,5.723-15.775,12.923-43.177-0.727c-30.541-15.213-43.734-6.752-46.155-5.262
		c2.823-3.851,14.525-14.132,42.04-2.321C130.384,115.042,142.452,121.997,156.944,114.453z"/>
	<path fill="#2F2E2E" d="M162.522,127.542c-5.814,10.738-25.202,12.042-44.217,2.817c-7.177-3.481-12.976-6.089-18.248-7.472
		c-15.439-4.048-23.681-0.267-27.644,1.682c2.823-3.851,18.042-13.229,42.496-1.866
		C135.134,132.101,150.449,137.505,162.522,127.542z"/>
	<path fill="#2F2E2E" d="M166.743,132.569c-4.014,18.229-28.922,20.29-48.87,13.468c-12.334-4.219-25.162-15.102-42.295-9.267
		c3.42-3.254,14.611-8.342,39.064,3.021C134.868,149.188,161.073,146.743,166.743,132.569z"/>
	<path fill="#2F2E2E" d="M166.989,146.912c-4.012,15.308-24.574,20.345-43.687,14.553c-11.91-3.608-19.17-11.153-36.459-10.586
		c14.724-4.995,16.896-0.231,36.434,6.147C131.558,159.73,161.991,161.086,166.989,146.912z"/>
	<path fill="#2F2E2E" d="M167.86,162.8c-10.168,14.413-27.063,17.132-44.341,11.876c-11.56-3.517-21.637-10.513-33.708-9.425
		c10.842-3.554,18.418-0.031,28.805,3.174c3.23,0.997,6.913,1.994,11.399,2.796C138.634,172.76,157.427,173.201,167.86,162.8z"/>
	<path fill="#2F2E2E" d="M107.535,176.279c0,0,10.667,13.46,27.178,14.701c16.512,1.241,30.424-12.299,30.424-12.299
		s-11.895,8.078-30.393,6.34S107.535,176.279,107.535,176.279z"/>
</g>
</svg>
