<svg xmlns:inkscape="http://www.inkscape.org/namespaces/inkscape" xmlns:sodipodi="http://sodipodi.sourceforge.net/DTD/sodipodi-0.dtd" xmlns="http://www.w3.org/2000/svg" xmlns:svg="http://www.w3.org/2000/svg" version="1.1" id="svg2" xml:space="preserve" width="291.57355200023596" height="342.9666350530966" viewBox="0 0 1685.3343 1982.2746" sodipodi:docname="f2828499bfd6d36d0b8141602d327393.ai"><defs id="defs6"><clipPath clipPathUnits="userSpaceOnUse" id="clipPath16"><path d="M 0,2000 H 2000 V 0 H 0 Z" id="path14"/></clipPath></defs><sodipodi:namedview id="namedview4" pagecolor="#ffffff" bordercolor="#666666" borderopacity="1.0" inkscape:pageshadow="2" inkscape:pageopacity="0.0" inkscape:pagecheckerboard="0"/><g id="g8" inkscape:groupmode="layer" inkscape:label="f2828499bfd6d36d0b8141602d327393" transform="matrix(1.3333333,0,0,-1.3333333,-490.66612,2324.4706)"><g id="g10"><g id="g12" clip-path="url(#clipPath16)"><g id="g18" transform="translate(1612.8676,1020.919)"><path d="m 0,0 c -1.54,-9.292 -2.981,-16.099 -3.925,-20.422 -1.193,-5.317 -2.336,-10.634 -3.429,-15.95 -2.882,-14.112 -6.062,-28.025 -9.49,-41.64 -14.361,-57.093 -33.292,-110.012 -55.653,-159.006 -171.229,-375.95 -540.371,-517.813 -540.371,-517.813 0,0 -369.143,141.863 -540.372,517.813 -22.361,48.994 -41.292,101.913 -55.652,159.006 -3.429,13.615 -6.609,27.528 -9.491,41.64 -1.093,5.316 -2.236,10.633 -3.429,15.95 -0.944,4.323 -2.385,11.13 -3.925,20.422 -4.87,28.273 -11.18,79.503 -11.131,152.894 0,12.075 0.199,24.745 0.597,38.063 2.931,98.533 17.341,229.962 57.739,392.844 0,0 211.478,126.707 565.664,129.192 C -258.683,710.508 -47.205,583.801 -47.205,583.801 -14.062,450.186 1.59,337.689 7.801,247.204 c 2.336,-34.683 3.28,-66.136 3.33,-94.31 C 11.18,79.503 4.87,28.273 0,0 m 15.851,248.844 c -6.162,91.976 -22.012,206.46 -55.801,342.708 0,0 -214.211,128.348 -572.918,130.882 -358.708,-2.534 -572.919,-130.882 -572.919,-130.882 -40.994,-165.267 -55.602,-298.583 -58.484,-398.409 -0.398,-14.112 -0.597,-27.528 -0.597,-40.249 0.05,-73.391 6.46,-124.621 11.329,-152.894 1.541,-9.292 2.982,-16.099 3.926,-20.422 1.193,-5.367 2.335,-10.783 3.429,-16.149 2.882,-14.062 6.012,-27.876 9.44,-41.441 14.261,-57.044 33.044,-109.963 55.255,-159.006 172.919,-382.906 548.621,-527.254 548.621,-527.254 0,0 375.701,144.348 548.62,527.254 22.211,49.043 40.993,101.962 55.254,159.006 3.429,13.565 6.559,27.379 9.441,41.441 1.093,5.366 2.236,10.782 3.429,16.149 0.994,4.323 2.385,11.13 3.975,20.422 4.869,28.273 11.23,79.503 11.28,152.894 0.049,28.621 -0.895,60.621 -3.28,95.95" style="fill:#000000;fill-opacity:1;fill-rule:nonzero;stroke:none" id="path20"/></g><g id="g22" transform="translate(1581.1163,1020.919)"><path d="m 0,0 c -1.391,-8.199 -2.683,-14.261 -3.528,-18.136 -1.143,-5.069 -2.186,-10.137 -3.23,-15.205 -3.081,-15.205 -6.509,-30.062 -10.286,-44.671 -14.708,-57.392 -34.285,-110.311 -57.341,-159.006 -164.919,-348.273 -506.732,-480.049 -506.732,-480.049 0,0 -341.814,131.776 -506.733,480.049 -23.055,48.695 -42.633,101.614 -57.341,159.006 -3.777,14.609 -7.205,29.466 -10.286,44.671 -0.994,5.068 -2.087,10.136 -3.229,15.205 -0.845,3.875 -2.137,9.937 -3.528,18.136 -4.721,27.379 -11.131,78.609 -10.684,152.894 0.05,9.392 0.199,19.23 0.497,29.367 2.733,93.863 16.398,219.179 54.807,374.558 0,0 200.547,120.596 536.497,122.981 335.95,-2.385 536.496,-122.981 536.496,-122.981 C -13.714,431.751 1.192,326.211 7.254,240.845 9.54,208.646 10.534,179.279 10.683,152.894 11.13,78.609 4.72,27.379 0,0 m 39.552,247.204 c -6.211,90.485 -21.863,202.982 -55.006,336.597 0,0 -211.478,126.707 -565.663,129.192 -354.186,-2.485 -565.664,-129.192 -565.664,-129.192 -40.398,-162.882 -54.807,-294.311 -57.739,-392.844 -0.398,-13.318 -0.596,-25.988 -0.596,-38.063 -0.05,-73.391 6.261,-124.621 11.13,-152.894 1.54,-9.292 2.981,-16.099 3.926,-20.422 1.192,-5.317 2.335,-10.634 3.428,-15.95 2.882,-14.112 6.062,-28.025 9.491,-41.64 14.36,-57.093 33.292,-110.012 55.652,-159.006 171.229,-375.95 540.372,-517.813 540.372,-517.813 0,0 369.142,141.863 540.372,517.813 22.36,48.994 41.292,101.913 55.652,159.006 3.428,13.615 6.608,27.528 9.49,41.64 1.094,5.316 2.236,10.633 3.429,15.95 0.944,4.323 2.385,11.13 3.925,20.422 4.87,28.273 11.18,79.503 11.131,152.894 -0.05,28.174 -0.994,59.627 -3.33,94.31" style="fill:#ffffff;fill-opacity:1;fill-rule:nonzero;stroke:none" id="path24"/></g><g id="g26" transform="translate(1329.0917,1104.7947)"><path d="m 0,0 c 17.888,-25.739 31.553,-54.062 40.596,-83.876 h 181.317 c -0.348,-1.937 -0.696,-3.826 -0.994,-5.515 -0.994,-5.516 -1.888,-9.739 -2.534,-12.671 -1.093,-4.77 -2.087,-9.59 -3.081,-14.41 -0.596,-3.031 -1.242,-6.012 -1.888,-8.994 -1.193,-5.664 -2.485,-11.229 -3.777,-16.795 -0.646,-2.832 -1.341,-5.664 -2.037,-8.447 -0.894,-3.776 -1.888,-7.503 -2.832,-11.18 H 54.161 c 4.87,-61.267 0.448,-113.888 -10.385,-159.006 h 101.913 c -0.496,-0.994 -0.994,-1.987 -1.49,-2.981 -0.696,-1.391 -1.392,-2.733 -2.087,-4.124 -1.988,-4.025 -4.025,-7.951 -6.112,-11.876 -1.044,-2.037 -2.137,-4.075 -3.23,-6.112 -1.193,-2.286 -2.435,-4.571 -3.677,-6.857 -1.938,-3.528 -3.876,-7.006 -5.864,-10.485 -3.477,-6.211 -7.055,-12.372 -10.682,-18.385 -1.839,-3.13 -3.727,-6.211 -5.665,-9.292 -8.248,-13.515 -16.845,-26.583 -25.64,-39.204 -1.441,-2.137 -2.932,-4.274 -4.472,-6.361 -2.683,-3.826 -5.416,-7.602 -8.149,-11.378 -8.348,-11.479 -16.894,-22.56 -25.54,-33.292 -0.945,-1.143 -1.889,-2.286 -2.783,-3.429 -9.292,-11.428 -18.683,-22.46 -28.224,-33.093 -3.875,-4.323 -7.701,-8.547 -11.577,-12.671 -3.876,-4.174 -7.752,-8.298 -11.677,-12.323 -3.876,-4.074 -7.752,-8.049 -11.677,-11.975 -3.926,-3.975 -7.851,-7.801 -11.727,-11.578 -6.857,-6.608 -13.665,-13.068 -20.521,-19.279 -1.193,-1.143 -2.386,-2.236 -3.578,-3.279 -8.05,-7.305 -16.05,-14.311 -24,-21.118 -3.528,-2.982 -7.056,-5.913 -10.534,-8.795 -1.839,-1.541 -3.727,-3.081 -5.565,-4.572 -2.584,-2.137 -5.118,-4.174 -7.702,-6.211 -4.423,-3.528 -8.845,-6.957 -13.168,-10.335 -2.683,-2.087 -5.366,-4.125 -8.05,-6.162 -2.186,-1.689 -4.372,-3.379 -6.559,-4.969 -2.236,-1.64 -4.422,-3.28 -6.559,-4.82 -2.335,-1.739 -4.67,-3.428 -6.956,-5.068 -2.087,-1.491 -4.125,-2.982 -6.211,-4.422 -3.826,-2.733 -7.603,-5.417 -11.33,-7.951 -5.763,-4.025 -11.478,-7.851 -17.043,-11.528 -3.528,-2.335 -6.956,-4.621 -10.385,-6.807 -11.081,-7.106 -21.714,-13.714 -31.851,-19.677 -1.292,-0.795 -2.633,-1.59 -3.925,-2.336 -2.584,-1.54 -5.168,-3.031 -7.652,-4.471 -2.485,-1.442 -4.92,-2.833 -7.355,-4.175 -0.496,-0.298 -0.993,-0.596 -1.49,-0.844 -2.932,-1.64 -5.715,-3.23 -8.497,-4.77 -12.522,-6.858 -23.801,-12.671 -33.64,-17.541 -1.093,-0.596 -2.186,-1.143 -3.23,-1.59 -4.372,-2.136 -8.397,-4.074 -12.074,-5.813 -1.69,-0.796 -3.28,-1.541 -4.82,-2.236 -2.981,-1.392 -5.714,-2.584 -8.099,-3.628 -0.895,-0.397 -1.74,-0.795 -2.584,-1.143 -1.193,-0.546 -2.336,-1.043 -3.329,-1.441 -0.994,-0.447 -1.938,-0.844 -2.733,-1.192 -0.845,-0.348 -1.59,-0.646 -2.187,-0.895 -1.888,-0.745 -2.882,-1.143 -2.882,-1.143 0,0 -0.993,0.398 -2.882,1.143 -0.596,0.249 -1.341,0.547 -2.186,0.895 -0.795,0.348 -1.739,0.745 -2.733,1.192 -0.994,0.398 -2.136,0.895 -3.329,1.441 -0.845,0.348 -1.69,0.746 -2.584,1.143 -0.398,0.149 -0.845,0.348 -1.292,0.547 -1.391,0.646 -2.832,1.292 -4.422,1.987 -0.745,0.348 -1.59,0.696 -2.385,1.094 -1.541,0.695 -3.131,1.44 -4.82,2.236 -3.677,1.739 -7.702,3.677 -12.075,5.813 -1.043,0.447 -2.136,0.994 -3.229,1.59 -9.839,4.87 -21.118,10.683 -33.64,17.541 -2.783,1.54 -5.565,3.13 -8.497,4.77 -0.497,0.248 -0.994,0.546 -1.491,0.844 -2.435,1.342 -4.869,2.733 -7.354,4.175 -2.484,1.44 -5.068,2.931 -7.652,4.471 -1.292,0.746 -2.634,1.541 -3.925,2.336 -2.286,1.341 -4.671,2.733 -7.007,4.174 -3.23,1.938 -6.459,3.925 -9.739,5.962 -4.969,3.081 -9.987,6.261 -15.105,9.541 -3.429,2.186 -6.857,4.472 -10.385,6.807 -5.566,3.677 -11.28,7.503 -17.044,11.528 -3.727,2.534 -7.503,5.218 -11.329,7.951 -2.087,1.44 -4.124,2.931 -6.211,4.422 -6.609,4.72 -13.317,9.689 -20.075,14.857 -2.683,2.037 -5.366,4.075 -8.049,6.162 -4.323,3.378 -8.746,6.807 -13.168,10.335 -2.584,2.037 -5.118,4.074 -7.702,6.211 -1.838,1.491 -3.727,3.031 -5.565,4.572 -3.478,2.882 -7.006,5.813 -10.534,8.795 -7.951,6.807 -15.95,13.813 -24,21.118 -1.193,1.043 -2.385,2.136 -3.578,3.279 -6.857,6.211 -13.664,12.671 -20.522,19.279 -3.875,3.777 -7.801,7.603 -11.726,11.578 -3.926,3.926 -7.801,7.901 -11.677,11.975 -3.926,4.025 -7.801,8.149 -11.677,12.323 -3.876,4.124 -7.702,8.348 -11.578,12.671 -9.54,10.633 -18.932,21.665 -28.224,33.093 -0.894,1.143 -1.838,2.286 -2.782,3.429 -8.646,10.732 -17.192,21.813 -25.541,33.292 -2.732,3.776 -5.465,7.552 -8.148,11.378 -1.541,2.087 -3.032,4.224 -4.472,6.361 -8.796,12.621 -17.392,25.689 -25.64,39.204 -1.938,3.081 -3.826,6.162 -5.665,9.292 -3.627,6.013 -7.205,12.174 -10.683,18.385 -1.987,3.479 -3.925,6.957 -5.863,10.485 -1.243,2.286 -2.485,4.571 -3.677,6.857 -1.093,2.037 -2.187,4.075 -3.23,6.112 -2.087,3.925 -4.124,7.851 -6.112,11.876 -0.696,1.391 -1.391,2.733 -2.087,4.124 -0.497,0.994 -0.994,1.987 -1.49,2.981 h 61.763 c -20.323,66.733 -14.31,130.683 -14.31,130.683 l -21.118,-21.615 c 4.074,8 8.795,22.311 11.925,32.348 1.739,5.764 2.982,11.627 3.628,17.59 h -100.969 c -0.944,3.677 -1.938,7.404 -2.832,11.18 -0.696,2.783 -1.392,5.615 -2.038,8.447 -1.292,5.566 -2.584,11.131 -3.776,16.795 -0.646,2.982 -1.292,5.963 -1.888,8.994 -0.944,4.82 -1.988,9.64 -3.081,14.41 -0.646,2.932 -1.54,7.155 -2.534,12.671 -0.298,1.689 -0.646,3.528 -0.994,5.515 h 132.472 c 10.882,32.796 23.354,44.622 23.354,44.622 l -13.516,-2.137 c 11.677,50.832 34.783,86.211 58.435,110.409 h -210.633 c 0.149,10.535 0.447,21.566 0.894,33.045 100.721,45.713 647.751,273.539 1116.371,58.385 1.392,-16.796 2.435,-32.796 3.131,-48.051 0.199,-3.727 0.347,-7.404 0.497,-11.031 0.149,-3.627 0.298,-7.205 0.397,-10.732 0.249,-7.404 0.398,-14.609 0.497,-21.616 H -57.043 C -34.186,46.012 -15.105,21.665 0,0 m -837.614,442.931 c 0,0 190.112,114.285 508.521,116.571 318.41,-2.286 508.521,-116.571 508.521,-116.571 23.255,-94.062 36.969,-176.497 44.522,-246.956 -543.105,202.484 -1018.384,15.95 -1108.421,-23.553 6.907,75.428 20.969,165.764 46.857,270.509 M 262.708,69.018 c -0.149,26.386 -1.143,55.752 -3.429,87.951 -6.062,85.366 -20.969,190.907 -51.876,315.974 0,0 -200.546,120.597 -536.496,122.982 -335.949,-2.385 -536.496,-122.982 -536.496,-122.982 -38.41,-155.378 -52.074,-280.695 -54.807,-374.558 -0.298,-10.136 -0.447,-19.975 -0.497,-29.367 -0.447,-74.285 5.963,-125.515 10.683,-152.894 1.392,-8.198 2.683,-14.26 3.528,-18.136 1.143,-5.069 2.236,-10.137 3.23,-15.205 3.081,-15.205 6.509,-30.062 10.286,-44.671 14.708,-57.391 34.285,-110.31 57.341,-159.006 164.919,-348.273 506.732,-480.049 506.732,-480.049 0,0 341.813,131.776 506.732,480.049 23.056,48.696 42.634,101.615 57.342,159.006 3.776,14.609 7.205,29.466 10.286,44.671 1.043,5.068 2.087,10.136 3.23,15.205 0.844,3.876 2.136,9.938 3.528,18.136 4.72,27.379 11.13,78.609 10.683,152.894" style="fill:#cf132e;fill-opacity:1;fill-rule:nonzero;stroke:none" id="path28"/></g><g id="g30" transform="translate(1419.7074,1380.1731)"><path d="m 0,0 c 0,0 -9.74,3.826 -28.721,9.391 l 41.54,166.311 c 10.286,-3.329 20.522,-6.758 30.758,-10.385 z m -77.913,96.994 -15.503,2.832 -13.069,-71.751 c -8.894,1.739 -18.385,3.478 -28.373,5.217 l 13.069,71.702 18.584,101.913 0.05,0.248 28.422,-5.217 15.453,-2.832 c 6.509,-1.193 12.423,-3.677 17.54,-7.255 14.262,-9.789 22.261,-27.379 18.932,-45.516 l -2.285,-12.819 c -4.522,-24.597 -28.125,-40.944 -52.82,-36.522 m -75.826,75.627 -1.441,-12.919 c -1.889,-16.795 -12.671,-30.46 -27.18,-36.671 8.943,-20.273 16.447,-67.18 19.13,-85.366 -9.64,1.441 -19.627,2.782 -30.062,4.024 -5.963,51.23 -12.323,70.907 -15.95,78.361 l -11.727,1.292 -8.448,-75.727 c -9.291,0.895 -18.881,1.689 -28.769,2.435 l 8.547,76.472 11.478,103.205 28.72,-3.23 15.652,-1.739 c 24.895,-2.783 42.832,-25.243 40.05,-50.137 m -157.267,-121.59 -5.764,44.422 -30.261,0.249 -7.602,-42.931 c -9.988,0.745 -20.075,1.39 -30.211,1.937 l 40.795,178.882 c 0,0 12.571,0.398 35.229,-0.149 L -280.596,49.59 c -9.888,0.547 -20.025,0.994 -30.41,1.441 m -128.298,0.348 -14.509,-0.447 c -20.423,-0.547 -37.417,15.503 -37.963,35.925 l -3.081,108.472 c -0.596,20.422 15.503,37.416 35.925,38.012 l 14.51,0.398 c 20.422,0.596 37.416,-15.503 38.012,-35.925 l 0.646,-23.255 -29.068,-0.845 -0.596,22.211 c -0.199,7.206 -6.211,12.82 -13.367,12.621 l -4.372,-0.099 c -7.156,-0.248 -12.87,-6.212 -12.621,-13.416 l 2.931,-106.235 c 0.249,-7.206 6.211,-12.87 13.416,-12.672 l 4.373,0.15 c 7.205,0.149 12.82,6.161 12.621,13.366 l -0.596,22.161 29.018,0.845 0.646,-23.305 c 0.547,-20.421 -15.503,-37.416 -35.925,-37.962 m -145.143,-4.174 -1.391,28.969 28.969,1.392 1.391,-28.97 z m -56.745,-11.578 -14.311,-2.534 c -20.124,-3.478 -39.254,9.988 -42.732,30.112 l -18.584,106.931 c -3.528,20.125 9.938,39.255 30.062,42.734 l 14.31,2.484 c 20.125,3.528 39.255,-9.938 42.783,-30.062 l 3.975,-22.957 -28.621,-4.969 -3.776,21.864 c -1.242,7.105 -8,11.825 -15.056,10.583 l -4.323,-0.745 c -7.056,-1.242 -11.826,-7.95 -10.584,-15.056 l 18.186,-104.745 c 1.243,-7.106 8,-11.826 15.056,-10.584 l 4.323,0.745 c 7.106,1.193 11.826,7.951 10.584,15.056 l -3.777,21.864 28.622,4.969 3.975,-22.957 c 3.478,-20.124 -9.988,-39.254 -30.112,-42.733 m -105.043,-14.061 -6.361,28.273 28.274,6.36 6.36,-28.273 z m -49.143,-18.187 -19.379,41.292 -28.273,-8.795 5.664,-42.286 c -9.49,-2.286 -19.08,-4.671 -28.72,-7.155 l -15.205,178.882 c 0,0 11.578,4.124 32.895,10.385 L -765.863,9.739 c -9.739,-2.037 -19.577,-4.124 -29.515,-6.36 M 88.794,167.552 c 0,0 -190.111,114.286 -508.521,116.572 -318.409,-2.286 -508.52,-116.572 -508.52,-116.572 -25.889,-104.745 -39.951,-195.08 -46.857,-270.508 90.037,39.503 565.315,226.037 1108.42,23.552 -7.553,70.46 -21.267,152.895 -44.522,246.956" style="fill:#ffffff;fill-opacity:1;fill-rule:nonzero;stroke:none" id="path32"/></g><g id="g34" transform="translate(573.348,1441.0426)"><path d="m 0,0 -8.795,65.739 c -0.149,0.994 1.242,1.441 1.689,0.497 L 21.168,6.062 Z m -2.037,114.833 c -21.317,-6.261 -32.895,-10.386 -32.895,-10.386 l 15.205,-178.882 c 9.64,2.485 19.23,4.87 28.721,7.155 l -5.665,42.286 28.273,8.795 19.379,-41.291 c 9.938,2.236 19.777,4.323 29.516,6.359 z" style="fill:#000000;fill-opacity:1;fill-rule:nonzero;stroke:none" id="path36"/></g><g id="g38" transform="translate(594.5157,1447.1045)"><path d="m 0,0 -21.168,-6.062 -8.795,65.739 c -0.149,0.994 1.242,1.441 1.69,0.497 z" style="fill:#ffffff;fill-opacity:1;fill-rule:nonzero;stroke:none" id="path40"/></g><g id="g42" transform="translate(701.7455,1408.0991)"><path d="m 0,0 -28.273,-6.36 -6.361,28.273 28.274,6.36 z" style="fill:#000000;fill-opacity:1;fill-rule:nonzero;stroke:none" id="path44"/></g><g id="g46" transform="translate(778.5153,1415.8005)"><path d="m 0,0 -14.311,-2.534 c -20.124,-3.479 -39.254,9.987 -42.732,30.111 l -18.584,106.932 c -3.528,20.124 9.938,39.255 30.062,42.733 l 14.31,2.485 C -11.13,183.255 8,169.789 11.528,149.664 l 3.975,-22.956 -28.621,-4.969 -3.776,21.863 c -1.242,7.106 -8,11.826 -15.056,10.584 l -4.323,-0.745 c -7.056,-1.242 -11.826,-7.951 -10.584,-15.056 L -28.671,33.64 c 1.243,-7.106 8,-11.826 15.056,-10.584 l 4.323,0.745 c 7.106,1.192 11.826,7.951 10.584,15.056 L -2.484,60.72 26.137,65.689 30.112,42.733 C 33.59,22.608 20.124,3.479 0,0" style="fill:#000000;fill-opacity:1;fill-rule:nonzero;stroke:none" id="path48"/></g><g id="g50" transform="translate(864.2295,1428.7694)"><path d="m 0,0 -28.969,-1.391 -1.391,28.969 28.969,1.391 z" style="fill:#000000;fill-opacity:1;fill-rule:nonzero;stroke:none" id="path52"/></g><g id="g54" transform="translate(1016.3289,1469.5145)"><path d="m 0,0 c 0.547,-20.422 -15.503,-37.416 -35.926,-37.962 l -14.509,-0.448 c -20.422,-0.546 -37.416,15.504 -37.963,35.926 l -3.08,108.472 c -0.597,20.422 15.503,37.416 35.925,38.012 l 14.51,0.398 c 20.422,0.596 37.415,-15.503 38.012,-35.926 l 0.646,-23.254 -29.068,-0.846 -0.597,22.212 c -0.199,7.205 -6.211,12.82 -13.366,12.621 l -4.373,-0.1 c -7.155,-0.248 -12.87,-6.211 -12.621,-13.416 l 2.932,-106.235 c 0.248,-7.205 6.211,-12.87 13.416,-12.671 l 4.373,0.149 c 7.205,0.149 12.819,6.162 12.621,13.366 l -0.597,22.162 29.019,0.845 z" style="fill:#000000;fill-opacity:1;fill-rule:nonzero;stroke:none" id="path56"/></g><g id="g58" transform="translate(1077.1984,1501.2169)"><path d="m 0,0 11.875,66.733 c 0.15,1.043 1.69,1.043 1.79,-0.05 l 8.794,-67.379 z m 33.689,112.397 c -22.658,0.547 -35.229,0.149 -35.229,0.149 L -42.335,-66.336 c 10.136,-0.546 20.223,-1.192 30.211,-1.937 l 7.602,42.931 30.261,-0.249 5.764,-44.422 c 10.385,-0.447 20.522,-0.894 30.41,-1.441 z" style="fill:#000000;fill-opacity:1;fill-rule:nonzero;stroke:none" id="path60"/></g><g id="g62" transform="translate(1099.6577,1500.5206)"><path d="m 0,0 -22.459,0.696 11.875,66.733 c 0.149,1.043 1.69,1.043 1.789,-0.05 z" style="fill:#ffffff;fill-opacity:1;fill-rule:nonzero;stroke:none" id="path64"/></g><g id="g66" transform="translate(1238.1422,1555.9249)"><path d="M 0,0 -1.441,-12.92 C -2.683,-24.199 -12.87,-32.348 -24.15,-31.056 l -12.472,1.391 6.013,53.764 12.472,-1.391 C -6.858,21.466 1.292,11.279 0,0 m -12.223,47.006 -15.653,1.739 -28.72,3.23 -11.478,-103.205 -8.547,-76.472 c 9.888,-0.746 19.478,-1.54 28.77,-2.435 l 8.447,75.727 11.727,-1.292 c 3.627,-7.454 9.987,-27.131 15.95,-78.36 10.435,-1.243 20.423,-2.584 30.062,-4.025 -2.683,18.186 -10.186,65.093 -19.13,85.366 14.509,6.211 25.292,19.876 27.18,36.671 l 1.441,12.919 c 2.782,24.894 -15.155,47.354 -40.049,50.137" style="fill:#000000;fill-opacity:1;fill-rule:nonzero;stroke:none" id="path68"/></g><g id="g70" transform="translate(1238.1422,1555.9249)"><path d="M 0,0 -1.441,-12.92 C -2.683,-24.199 -12.87,-32.348 -24.15,-31.056 l -12.472,1.391 6.013,53.764 12.472,-1.391 C -6.858,21.466 1.292,11.279 0,0" style="fill:#ffffff;fill-opacity:1;fill-rule:nonzero;stroke:none" id="path72"/></g><g id="g74" transform="translate(1369.3715,1531.5764)"><path d="M 0,0 -2.335,-12.82 C -4.322,-24 -15.056,-31.403 -26.236,-29.316 l -12.323,2.236 9.69,53.217 12.372,-2.236 C -5.317,21.864 2.087,11.13 0,0 m 8.596,40.448 c -5.117,3.577 -11.031,6.062 -17.54,7.254 l -15.453,2.832 -28.422,5.218 -0.05,-0.249 -18.584,-101.912 -13.069,-71.703 c 9.988,-1.738 19.479,-3.478 28.373,-5.217 l 13.069,71.752 15.503,-2.833 c 24.695,-4.421 48.298,11.926 52.82,36.523 l 2.285,12.819 c 3.329,18.137 -4.67,35.727 -18.932,45.516" style="fill:#000000;fill-opacity:1;fill-rule:nonzero;stroke:none" id="path76"/></g><g id="g78" transform="translate(1369.3715,1531.5764)"><path d="M 0,0 -2.335,-12.82 C -4.322,-24 -15.056,-31.403 -26.236,-29.316 l -12.323,2.236 9.69,53.217 12.372,-2.236 C -5.317,21.864 2.087,11.13 0,0" style="fill:#ffffff;fill-opacity:1;fill-rule:nonzero;stroke:none" id="path80"/></g><g id="g82" transform="translate(1463.2844,1545.4897)"><path d="m 0,0 -43.577,-165.317 c 0,0 -9.74,3.827 -28.721,9.392 l 41.54,166.31 C -20.472,7.056 -10.236,3.627 0,0" style="fill:#000000;fill-opacity:1;fill-rule:nonzero;stroke:none" id="path84"/></g><g id="g86" transform="translate(1550.9863,1020.919)"><path d="m 0,0 c -0.348,-1.938 -0.696,-3.826 -0.994,-5.515 -0.994,-5.516 -1.888,-9.739 -2.534,-12.671 -1.093,-4.77 -2.087,-9.59 -3.081,-14.41 -0.596,-3.031 -1.242,-6.012 -1.888,-8.994 -1.192,-5.664 -2.484,-11.23 -3.776,-16.795 -0.646,-2.832 -1.342,-5.664 -2.038,-8.447 -0.894,-3.776 -1.888,-7.503 -2.832,-11.18 h -150.608 c -0.547,7.702 -1.342,15.503 -2.236,23.503 -2.087,18.534 -5.864,36.77 -11.329,54.509 z" style="fill:#ffffff;fill-opacity:1;fill-rule:nonzero;stroke:none" id="path88"/></g><g id="g90" transform="translate(631.7015,783.901)"><path d="m 0,0 h -12.919 c 0.099,10.733 1.242,21.068 4.024,30.211 0,0 2.535,-11.578 8.895,-30.211" style="fill:#cf132e;fill-opacity:1;fill-rule:nonzero;stroke:none" id="path92"/></g><g id="g94" transform="translate(1474.7809,783.901)"><path d="m 0,0 c -0.497,-0.994 -0.994,-1.988 -1.491,-2.982 -0.695,-1.391 -1.391,-2.732 -2.087,-4.124 -1.987,-4.025 -4.025,-7.95 -6.111,-11.875 -1.044,-2.038 -2.137,-4.075 -3.23,-6.112 -1.193,-2.286 -2.435,-4.572 -3.677,-6.857 -1.938,-3.528 -3.876,-7.007 -5.864,-10.485 -3.478,-6.211 -7.056,-12.373 -10.683,-18.385 -1.838,-3.13 -3.726,-6.211 -5.664,-9.292 -8.249,-13.515 -16.845,-26.584 -25.64,-39.205 -1.441,-2.136 -2.932,-4.273 -4.472,-6.36 -2.683,-3.826 -5.416,-7.602 -8.149,-11.379 -8.348,-11.478 -16.894,-22.559 -25.541,-33.292 -0.944,-1.142 -1.888,-2.285 -2.782,-3.428 -9.292,-11.429 -18.683,-22.46 -28.224,-33.093 -3.875,-4.324 -7.702,-8.547 -11.577,-12.671 -3.876,-4.174 -7.752,-8.298 -11.677,-12.323 -3.876,-4.075 -7.752,-8.05 -11.677,-11.975 -3.926,-3.876 -7.802,-7.752 -11.727,-11.578 -6.857,-6.609 -13.665,-13.068 -20.522,-19.279 -1.192,-1.143 -2.385,-2.236 -3.577,-3.28 -8.05,-7.304 -16.05,-14.31 -24,-21.118 -3.528,-2.981 -7.056,-5.913 -10.534,-8.795 -1.839,-1.54 -3.727,-3.081 -5.566,-4.571 -2.583,-2.137 -5.118,-4.174 -7.701,-6.211 -4.423,-3.528 -8.845,-6.957 -13.168,-10.336 -2.683,-2.087 -5.367,-4.124 -8.05,-6.161 -2.186,-1.69 -4.373,-3.379 -6.559,-4.969 -2.236,-1.64 -4.422,-3.28 -6.559,-4.82 -2.335,-1.739 -4.671,-3.429 -6.956,-5.068 -2.087,-1.491 -4.125,-2.982 -6.212,-4.423 -3.826,-2.733 -7.602,-5.416 -11.329,-7.95 -5.764,-3.975 -11.428,-7.851 -17.043,-11.528 -3.528,-2.335 -6.957,-4.572 -10.385,-6.808 -11.081,-7.105 -21.714,-13.714 -31.851,-19.676 -1.292,-0.796 -2.634,-1.591 -3.926,-2.336 -2.584,-1.54 -5.167,-3.031 -7.652,-4.472 -2.484,-1.441 -4.919,-2.832 -7.354,-4.174 -0.497,-0.298 -0.994,-0.596 -1.491,-0.845 -2.931,-1.639 -5.714,-3.229 -8.496,-4.77 -12.522,-6.857 -23.802,-12.671 -33.64,-17.54 -1.093,-0.547 -2.137,-1.093 -3.23,-1.59 -4.373,-2.137 -8.397,-4.075 -12.074,-5.814 -1.69,-0.795 -3.28,-1.54 -4.82,-2.236 -2.982,-1.391 -5.714,-2.584 -8.1,-3.627 -0.894,-0.398 -1.739,-0.795 -2.583,-1.143 -1.193,-0.547 -2.286,-0.994 -3.33,-1.441 -0.993,-0.447 -1.938,-0.845 -2.733,-1.192 -0.844,-0.348 -1.59,-0.646 -2.186,-0.895 -1.888,-0.745 -2.882,-1.143 -2.882,-1.143 0,0 -0.994,0.398 -2.882,1.143 -0.596,0.249 -1.342,0.547 -2.186,0.895 -0.795,0.347 -1.739,0.745 -2.733,1.192 -1.044,0.447 -2.137,0.894 -3.329,1.441 -0.845,0.348 -1.69,0.745 -2.584,1.143 -0.398,0.149 -0.845,0.348 -1.292,0.547 -1.391,0.646 -2.832,1.291 -4.423,1.987 -0.745,0.348 -1.59,0.696 -2.385,1.093 -1.54,0.696 -3.13,1.441 -4.819,2.236 -3.678,1.739 -7.702,3.677 -12.075,5.814 -1.093,0.497 -2.137,1.043 -3.23,1.59 -9.838,4.869 -21.118,10.683 -33.639,17.54 -2.783,1.541 -5.566,3.131 -8.497,4.77 -0.497,0.249 -0.994,0.547 -1.491,0.845 -2.435,1.342 -4.869,2.733 -7.354,4.174 -2.484,1.441 -5.068,2.932 -7.652,4.472 -1.292,0.745 -2.634,1.54 -3.926,2.336 -2.285,1.341 -4.671,2.732 -7.006,4.173 -3.23,1.938 -6.459,3.926 -9.739,5.963 -4.969,3.081 -9.988,6.261 -15.105,9.54 -3.429,2.236 -6.858,4.473 -10.386,6.808 -5.615,3.677 -11.279,7.553 -17.043,11.528 -3.727,2.534 -7.503,5.217 -11.329,7.95 -2.087,1.441 -4.124,2.932 -6.211,4.423 -6.609,4.72 -13.317,9.689 -20.075,14.857 -2.683,2.037 -5.366,4.074 -8.05,6.161 -4.323,3.379 -8.745,6.808 -13.167,10.336 -2.584,2.037 -5.118,4.074 -7.702,6.211 -1.839,1.49 -3.727,3.031 -5.565,4.571 -3.478,2.882 -7.006,5.814 -10.535,8.795 -7.95,6.808 -15.95,13.814 -23.999,21.118 -1.193,1.044 -2.386,2.137 -3.578,3.28 -6.857,6.211 -13.665,12.67 -20.522,19.279 -3.925,3.826 -7.801,7.702 -11.726,11.578 -3.926,3.925 -7.802,7.9 -11.678,11.975 -3.925,4.025 -7.801,8.149 -11.676,12.323 -3.876,4.124 -7.702,8.347 -11.578,12.671 -9.54,10.633 -18.932,21.664 -28.224,33.093 -0.894,1.143 -1.838,2.286 -2.782,3.428 -8.646,10.733 -17.193,21.814 -25.541,33.292 -2.733,3.777 -5.465,7.553 -8.149,11.379 -1.54,2.087 -3.031,4.224 -4.472,6.36 -8.795,12.621 -17.391,25.69 -25.639,39.205 -1.938,3.081 -3.826,6.162 -5.665,9.292 -3.627,6.012 -7.205,12.174 -10.683,18.385 -1.988,3.478 -3.926,6.957 -5.864,10.485 -1.242,2.285 -2.484,4.571 -3.677,6.857 -1.093,2.037 -2.186,4.074 -3.229,6.112 -2.087,3.925 -4.124,7.85 -6.112,11.875 -0.696,1.392 -1.391,2.733 -2.087,4.124 -0.497,0.994 -0.994,1.988 -1.491,2.982 h 61.764 c 9.143,-30.112 23.702,-60.87 46.609,-86.509 0,0 -15.106,45.764 -14.808,86.509 h 12.92 c 28.67,-84.323 135.254,-313.441 436.62,-269.814 0,0 246.012,26.535 304.546,269.814 z" style="fill:#ffffff;fill-opacity:1;fill-rule:nonzero;stroke:none" id="path96"/></g><g id="g98" transform="translate(581.4653,1020.919)"><path d="m 0,0 c -5.962,-18.087 -11.429,-42.583 -14.062,-75.031 -0.099,-0.994 -0.149,-1.987 -0.298,-2.981 h -100.969 c -0.944,3.677 -1.938,7.404 -2.832,11.18 -0.696,2.783 -1.392,5.615 -2.037,8.447 -1.292,5.565 -2.584,11.131 -3.777,16.795 -0.646,2.982 -1.292,5.963 -1.888,8.994 -0.944,4.82 -1.988,9.64 -3.081,14.41 -0.646,2.932 -1.54,7.155 -2.534,12.671 -0.298,1.689 -0.646,3.528 -0.994,5.515 z" style="fill:#ffffff;fill-opacity:1;fill-rule:nonzero;stroke:none" id="path100"/></g><g id="g102" transform="translate(1077.8622,1020.919)"><path d="M 0,0 H -47.851 L -4.472,14.609 C -4.472,14.609 0.05,10.982 0,0" style="fill:#cf132e;fill-opacity:1;fill-rule:nonzero;stroke:none" id="path104"/></g><g id="g106" transform="translate(1272.0483,1173.813)"><path d="m 0,0 c -31.255,31.653 -69.515,60.671 -113.888,76.721 0,0 44.472,-26.485 89.49,-76.721 H -219.13 c -10.335,20.473 -47.602,78.858 -139.329,84.224 -16.547,0.944 -33.143,-0.447 -49.441,-3.33 -32.05,-5.713 -112.944,-16.446 -189.962,2.833 l 49.142,-35.875 c 0,0 -37.466,-10.833 -73.59,-47.852 h -210.633 c 0.149,10.535 0.447,21.566 0.895,33.044 100.72,45.714 647.75,273.54 1116.37,58.385 1.392,-16.795 2.435,-32.795 3.131,-48.05 0.199,-3.727 0.348,-7.404 0.497,-11.031 0.149,-3.627 0.298,-7.205 0.397,-10.733 0.249,-7.403 0.398,-14.608 0.497,-21.615 z" style="fill:#ffffff;fill-opacity:1;fill-rule:nonzero;stroke:none" id="path108"/></g><g id="g110" transform="translate(1125.5144,1020.919)"><path d="m 0,0 c 5.317,11.23 8.646,24.894 8.596,41.391 -0.099,34.634 -16.397,66.932 -44.77,86.708 -9.043,6.311 -20.025,12.422 -33.292,17.789 0,0 -0.944,2.634 -3.13,7.006 H 122.136 C 156.124,115.031 190.459,63.652 206.26,0 Z" style="fill:#cf132e;fill-opacity:1;fill-rule:nonzero;stroke:none" id="path112"/></g><g id="g114" transform="translate(1219.9736,942.907)"><path d="m 0,0 c 0.745,9.938 0.696,19.925 -0.298,29.814 0,0 -1.739,-11.678 -6.608,-29.814 h -243.23 c 1.242,2.137 2.683,4.174 4.323,6.062 8.795,10.136 22.012,24.845 32.348,33.988 5.118,4.521 9.292,10.086 12.422,16.198 l 11.081,21.764 h 47.851 c -0.1,-9.987 -3.976,-26.037 -18.435,-50.981 0,0 46.459,9.242 66.087,50.981 h 206.26 C 117.863,53.764 121.193,27.726 120.845,0 Z" style="fill:#ffffff;fill-opacity:1;fill-rule:nonzero;stroke:none" id="path116"/></g><g id="g118" transform="translate(769.0924,783.901)"><path d="m 0,0 h -25.838 c -4.572,14.459 -7.653,30.012 -8.845,46.708 0,0 12.472,-20.572 34.683,-46.708" style="fill:#cf132e;fill-opacity:1;fill-rule:nonzero;stroke:none" id="path120"/></g><g id="g122" transform="translate(1116.8188,783.901)"><path d="m 0,0 c -28.621,-22.112 -64.795,-37.516 -110.46,-39.106 -21.863,-0.745 -42.832,11.081 -52.024,30.957 -1.193,2.534 -2.236,5.217 -3.081,8.149 z" style="fill:#ffffff;fill-opacity:1;fill-rule:nonzero;stroke:none" id="path124"/></g><g id="g126" transform="translate(1213.0671,942.907)"><path d="m 0,0 c -10.981,-40.696 -37.764,-113.839 -96.248,-159.006 h -165.565 c -3.479,11.13 -4.522,25.193 -0.944,42.683 0,0 31.304,-26.186 76.571,-4.223 0,0 -52.422,12.124 -61.466,56.347 -0.596,2.882 -0.696,5.863 -0.696,8.795 v 36.124 c 0,6.858 1.789,13.466 5.118,19.28 z" style="fill:#cf132e;fill-opacity:1;fill-rule:nonzero;stroke:none" id="path128"/></g><g id="g130" transform="translate(1340.8,942.907)"><path d="m 0,0 c -0.397,-34.137 -6.509,-70.907 -20.124,-110.112 -1.689,-4.869 -3.379,-9.739 -4.969,-14.658 -2.137,-6.658 -6.41,-18.882 -13.615,-34.236 h -149.813 c 7.503,9.192 15.106,19.329 22.609,30.41 14.161,20.919 25.39,43.677 32.943,67.776 5.417,17.342 10.535,38.758 12.125,60.82 z" style="fill:#cf132e;fill-opacity:1;fill-rule:nonzero;stroke:none" id="path132"/></g><g id="g134" transform="translate(1302.1104,783.901)"><path d="m 0,0 c -33.441,-71.205 -129.49,-209.689 -360.546,-169.043 -26.335,4.621 -51.776,13.664 -74.932,27.031 C -476.272,-118.46 -535.999,-72.994 -558.856,0 h 25.838 c 43.081,-50.633 122.882,-122.186 219.727,-104.894 0,0 -62.609,11.428 -66.833,33.838 0,0 114.683,-69.962 230.31,71.056 z" style="fill:#ffffff;fill-opacity:1;fill-rule:nonzero;stroke:none" id="path136"/></g><g id="g138" transform="translate(661.4654,783.901)"><path d="M 0,0 C -32.745,64 -26.633,115.876 -26.633,115.876 L -52.621,76.521 c -5.764,30.112 -7.354,57.591 -6.112,82.485 1.54,29.714 7.205,55.702 14.857,78.012 22.907,66.733 63.652,100.621 65.392,102.062 l -50.237,-18.137 c 10.187,30.162 31.106,52.572 54.112,68.969 43.776,31.155 95.155,40.596 95.155,40.596 l -13.515,13.516 c 11.925,-3.826 37.813,-3.031 56.546,-1.839 9.541,0.647 18.982,1.939 28.125,4.77 28.273,8.795 104.347,-2.931 104.347,-2.931 -3.379,-8.894 -31.304,-10.136 -31.304,-10.136 33.043,0.596 53.466,-20.125 61.913,-31.106 2.782,-3.627 3.826,-8.397 2.733,-12.87 -0.099,-0.546 -0.249,-1.043 -0.447,-1.59 -12.125,-35.13 -45.268,-21.018 -60.87,-11.925 -5.217,3.031 -11.23,4.174 -17.192,3.279 -11.528,-1.739 -22.41,0.696 -28.92,2.783 -3.826,1.192 -7.851,1.242 -11.677,0.049 -8.844,-2.732 -25.242,-5.614 -35.627,-7.254 -5.814,-0.944 -11.776,-1.093 -17.689,-0.596 -52.472,4.721 -52.472,-6.758 -52.472,-6.758 55.354,1.292 54.509,-14.36 54.509,-14.36 0.447,-29.218 14.41,-38.062 14.41,-38.062 l 2.932,13.962 17.788,-35.975 c -17.788,-2.534 -28.372,-11.478 -34.037,-18.186 -2.932,-3.578 -5.018,-7.702 -6.758,-11.975 -5.167,-12.422 -13.764,-20.77 -22.012,-26.286 -11.429,-7.702 -22.211,-9.938 -22.211,-9.938 10.981,-16.496 66.385,2.982 66.385,2.982 -15.453,-31.702 -3.777,-66.733 -2.236,-71.056 0.099,-0.298 0.149,-0.447 0.149,-0.447 0,0.149 0.049,0.298 0.099,0.447 6.211,42.782 59.081,54.559 59.081,54.559 -11.379,-38.659 -4.919,-44.82 -0.199,-45.168 1.988,-0.099 3.578,1.59 3.727,3.578 2.882,43.08 61.615,58.484 61.615,58.484 -14.41,-24.348 -20.423,-49.242 -22.062,-71.453 -3.23,-42.981 9.788,-76.025 9.788,-76.025 -9.441,-4.422 -31.999,25.54 -33.341,27.28 6.708,-15.653 5.863,-46.013 5.863,-46.013 -2.285,-26.782 -0.099,-47.95 3.975,-64.248 8.597,-34.733 25.64,-47.801 25.64,-47.801 C 255.155,-52.373 232.844,-26.634 218.683,0 204.77,26.186 198.757,53.267 198.757,53.267 193.59,39.304 194.633,19.428 198.062,0 203.726,-32.944 216.099,-64.696 216.099,-64.696 191.801,-43.429 173.515,-21.217 159.751,0 121.242,59.23 118.012,110.36 118.012,110.36 108.273,93.863 115.031,36.373 115.031,36.373 80.795,64.248 57.739,122.186 57.739,122.186 50.335,73.49 51.23,32.994 56.248,0 68.025,-77.565 102.459,-113.391 104.596,-115.578 50.882,-78.162 18.932,-37.068 0,0 m 216.497,352.149 c 15.552,17.142 19.18,-7.951 19.18,-7.951 -2.733,-15.702 -15.404,-5.863 -16.299,-5.118 5.566,-13.565 22.013,-9.789 22.013,-9.789 10.633,-1.739 26.484,20.174 26.484,20.174 8.249,-4.273 -4.77,-17.142 -4.77,-17.142 -15.006,-16.199 -28.919,-14.063 -38.36,-8.845 -8.845,4.869 -15.056,13.764 -16.795,23.702 -2.335,13.217 5.516,14.31 5.516,14.31 -1.094,-5.366 3.031,-9.341 3.031,-9.341 m 128.645,18.434 c 3.23,4.075 4.025,9.739 1.491,14.36 -1.093,1.988 -1.292,3.677 -1.044,4.969 0.348,2.236 1.839,3.379 1.839,3.379 3.429,1.392 5.863,-0.546 7.503,-3.379 2.286,-3.875 3.081,-9.341 3.081,-9.341 1.441,-20.472 33.391,-25.243 33.391,-25.243 60.919,-18.732 53.615,-83.13 53.615,-83.13 -2.435,-4.323 -9.441,-0.099 -9.441,-0.099 -15.851,33.441 -28.522,10.584 -28.522,10.584 -5.515,-8.895 -13.963,-5.267 -13.963,-5.267 -25.987,18.683 -67.825,2.435 -85.813,-6.112 -5.714,-2.733 -12.174,-3.081 -18.186,-1.242 -39.752,11.925 -62.211,-0.249 -62.211,-0.249 -4.572,14.41 9.391,16 16.646,15.901 4.024,-0.1 8.099,0.049 12.074,0.596 39.652,5.267 41.938,23.255 41.938,23.255 -33.342,-15.106 -57.093,-15.752 -73.342,-11.678 -19.677,4.92 -34.335,22.112 -36.323,42.286 -2.136,21.367 14.709,19.677 14.709,19.677 -2.684,-11.577 -0.696,-20.521 2.683,-27.08 5.018,-9.789 14.658,-16.298 25.341,-18.932 38.311,-9.292 53.168,37.565 53.168,37.565 l 18.981,-8.099 c 3.876,-1.64 8.298,-1.491 11.975,0.546 13.566,7.454 24.15,18.833 30.41,26.733 M 721.788,159.006 c -0.547,7.702 -1.342,15.503 -2.236,23.503 -2.087,18.534 -5.864,36.77 -11.33,54.509 -9.043,29.814 -22.707,58.137 -40.596,83.876 -15.105,21.664 -34.186,46.012 -57.043,69.018 -31.255,31.653 -69.515,60.671 -113.888,76.721 0,0 44.472,-26.485 89.49,-76.721 33.988,-37.863 68.323,-89.242 84.124,-152.894 6.063,-24.248 9.392,-50.286 9.044,-78.012 C 678.956,124.869 672.844,88.099 659.229,48.894 657.539,44.025 655.85,39.155 654.26,34.236 652.123,27.578 647.85,15.354 640.645,0 607.204,-71.205 511.154,-209.689 280.099,-169.043 c -26.335,4.621 -51.776,13.664 -74.932,27.031 C 164.372,-118.46 104.646,-72.994 81.789,0 c -4.572,14.459 -7.653,30.012 -8.845,46.708 0,0 12.472,-20.572 34.683,-46.708 43.081,-50.633 122.882,-122.186 219.727,-104.894 0,0 -62.609,11.428 -66.833,33.838 0,0 114.683,-69.962 230.31,71.056 7.504,9.192 15.106,19.329 22.609,30.41 14.162,20.919 25.391,43.677 32.944,67.776 5.416,17.342 10.535,38.758 12.124,60.82 0.746,9.938 0.696,19.925 -0.298,29.814 0,0 -1.739,-11.678 -6.608,-29.814 C 540.62,118.31 513.838,45.167 455.353,0 426.732,-22.112 390.558,-37.516 344.894,-39.106 c -21.863,-0.745 -42.832,11.081 -52.025,30.957 -1.192,2.534 -2.236,5.217 -3.081,8.149 -3.478,11.13 -4.521,25.193 -0.944,42.683 0,0 31.305,-26.186 76.571,-4.223 0,0 -52.422,12.124 -61.465,56.347 -0.596,2.882 -0.696,5.863 -0.696,8.795 v 36.124 c 0,6.858 1.789,13.466 5.118,19.28 1.242,2.137 2.683,4.174 4.323,6.062 8.795,10.136 22.013,24.845 32.348,33.988 5.118,4.521 9.292,10.086 12.422,16.198 l 11.081,21.764 43.379,14.609 c 0,0 4.522,-3.627 4.472,-14.609 -0.1,-9.987 -3.975,-26.037 -18.435,-50.981 0,0 46.46,9.242 66.087,50.981 5.317,11.23 8.646,24.894 8.596,41.391 -0.099,34.634 -16.397,66.932 -44.77,86.708 -9.043,6.311 -20.025,12.422 -33.292,17.789 0,0 -0.944,2.634 -3.13,7.006 -10.336,20.473 -47.603,78.858 -139.329,84.224 -16.547,0.944 -33.143,-0.447 -49.441,-3.33 -32.05,-5.713 -112.944,-16.446 -189.963,2.833 l 49.143,-35.875 c 0,0 -37.466,-10.833 -73.59,-47.852 -23.652,-24.198 -46.757,-59.577 -58.434,-110.409 l 13.515,2.136 c 0,0 -12.472,-11.826 -23.354,-44.621 -5.963,-18.087 -11.429,-42.583 -14.062,-75.031 -0.099,-0.994 -0.149,-1.987 -0.298,-2.981 -0.646,-5.963 -1.888,-11.826 -3.628,-17.59 -3.13,-10.037 -7.85,-24.348 -11.925,-32.348 l 21.118,21.615 c 0,0 -6.012,-63.95 14.311,-130.683 9.142,-30.112 23.701,-60.87 46.608,-86.509 0,0 -15.105,45.764 -14.807,86.509 0.099,10.733 1.242,21.068 4.025,30.211 0,0 2.534,-11.578 8.894,-30.211 28.671,-84.323 135.254,-313.441 436.621,-269.814 0,0 246.012,26.535 304.546,269.814 10.832,45.118 15.254,97.739 10.385,159.006" style="fill:#000000;fill-opacity:1;fill-rule:nonzero;stroke:none" id="path140"/></g><g id="g142" transform="translate(990.8561,1173.813)"><path d="m 0,0 c -0.099,-0.546 -0.248,-1.043 -0.447,-1.59 -12.124,-35.13 -45.267,-21.018 -60.869,-11.925 -5.218,3.031 -11.23,4.174 -17.193,3.279 -11.528,-1.739 -22.41,0.696 -28.919,2.783 -3.827,1.192 -7.851,1.242 -11.677,0.049 -8.845,-2.732 -25.243,-5.614 -35.628,-7.254 -5.813,-0.944 -11.776,-1.093 -17.689,-0.596 -52.472,4.721 -52.472,-6.758 -52.472,-6.758 55.354,1.292 54.509,-14.36 54.509,-14.36 0.447,-29.218 14.41,-38.062 14.41,-38.062 l 2.932,13.962 17.789,-35.975 c -17.789,-2.534 -28.373,-11.478 -34.038,-18.186 -2.931,-3.578 -5.018,-7.702 -6.757,-11.975 -5.168,-12.422 -13.764,-20.77 -22.013,-26.286 -11.428,-7.702 -22.211,-9.938 -22.211,-9.938 10.981,-16.496 66.385,2.982 66.385,2.982 -15.453,-31.702 -3.776,-66.733 -2.236,-71.056 0.1,-0.298 0.149,-0.447 0.149,-0.447 0,0.149 0.05,0.298 0.1,0.447 6.211,42.782 59.08,54.559 59.08,54.559 -11.379,-38.659 -4.919,-44.82 -0.198,-45.168 1.987,-0.099 3.577,1.59 3.726,3.578 2.882,43.08 61.615,58.484 61.615,58.484 -14.41,-24.348 -20.422,-49.242 -22.062,-71.453 -3.23,-42.981 9.789,-76.025 9.789,-76.025 -9.441,-4.422 -32,25.54 -33.342,27.28 6.708,-15.653 5.863,-46.013 5.863,-46.013 -2.285,-26.782 -0.099,-47.95 3.976,-64.248 8.596,-34.733 25.639,-47.801 25.639,-47.801 -32.447,-4.572 -54.757,21.167 -68.919,47.801 -13.913,26.186 -19.925,53.267 -19.925,53.267 -5.168,-13.963 -4.125,-33.839 -0.696,-53.267 5.665,-32.944 18.037,-64.696 18.037,-64.696 -24.298,21.267 -42.583,43.479 -56.348,64.696 -38.509,59.23 -41.738,110.36 -41.738,110.36 -9.74,-16.497 -2.982,-73.987 -2.982,-73.987 -34.236,27.875 -57.292,85.813 -57.292,85.813 -7.403,-48.696 -6.509,-89.192 -1.49,-122.186 11.776,-77.565 46.211,-113.391 48.347,-115.578 -53.714,37.416 -85.664,78.51 -104.596,115.578 -32.745,64 -26.633,115.876 -26.633,115.876 l -25.988,-39.355 c -5.764,30.112 -7.354,57.591 -6.112,82.485 1.541,29.714 7.205,55.702 14.858,78.012 22.906,66.733 63.652,100.621 65.391,102.062 l -50.236,-18.137 c 10.186,30.162 31.105,52.572 54.111,68.969 43.777,31.155 95.156,40.596 95.156,40.596 l -13.516,13.516 c 11.926,-3.826 37.814,-3.031 56.547,-1.839 9.54,0.647 18.981,1.939 28.124,4.77 28.273,8.795 104.348,-2.931 104.348,-2.931 C -36.721,45.218 -64.646,43.976 -64.646,43.976 -31.602,44.572 -11.18,23.851 -2.733,12.87 0.05,9.243 1.093,4.473 0,0" style="fill:#fefefe;fill-opacity:1;fill-rule:nonzero;stroke:none" id="path144"/></g><g id="g146" transform="translate(924.5706,1116.2235)"><path d="m 0,0 c -15.006,-16.199 -28.919,-14.062 -38.36,-8.845 -8.845,4.87 -15.056,13.764 -16.795,23.702 -2.336,13.217 5.515,14.311 5.515,14.311 -1.093,-5.367 3.031,-9.342 3.031,-9.342 15.553,17.143 19.18,-7.951 19.18,-7.951 -2.732,-15.701 -15.403,-5.863 -16.298,-5.117 5.566,-13.566 22.013,-9.789 22.013,-9.789 C -11.081,-4.77 4.77,17.143 4.77,17.143 13.019,12.869 0,0 0,0" style="fill:#fefefe;fill-opacity:1;fill-rule:nonzero;stroke:none" id="path148"/></g><g id="g150" transform="translate(1030.3094,1113.3911)"><path d="m 0,0 c -1.689,0.695 -3.677,0.547 -4.969,-0.745 -1.739,-1.69 -4.273,-2.833 -6.807,-3.628 -3.628,-1.143 -7.056,2.187 -6.013,5.814 l 0.199,0.646 c 0.497,1.789 1.987,3.081 3.826,3.379 l 6.012,0.944 c 1.143,0.199 2.137,0.845 2.932,1.689 4.273,4.77 8.05,3.876 10.336,2.435 C 7.155,9.54 8.05,7.702 7.851,5.814 7.056,-1.391 2.982,-1.192 0,0 m 22.559,25.838 c 0,0 -31.95,4.771 -33.391,25.243 0,0 -0.795,5.466 -3.081,9.341 -1.64,2.833 -4.074,4.771 -7.503,3.379 0,0 -1.491,-1.143 -1.839,-3.379 -0.248,-1.292 -0.049,-2.981 1.044,-4.969 2.534,-4.621 1.739,-10.286 -1.491,-14.36 -6.261,-7.9 -16.844,-19.28 -30.41,-26.733 -3.677,-2.037 -8.099,-2.186 -11.975,-0.546 l -18.981,8.099 c 0,0 -14.857,-46.857 -53.168,-37.565 -10.683,2.633 -20.323,9.143 -25.341,18.931 -3.379,6.56 -5.367,15.503 -2.683,27.081 0,0 -16.845,1.689 -14.709,-19.677 1.988,-20.174 16.646,-37.366 36.323,-42.286 16.249,-4.074 40,-3.428 73.342,11.678 0,0 -2.286,-17.988 -41.938,-23.255 -3.975,-0.547 -8.05,-0.696 -12.074,-0.596 -7.255,0.099 -21.218,-1.491 -16.647,-15.901 0,0 22.46,12.174 62.212,0.248 6.012,-1.838 12.472,-1.49 18.186,1.243 17.988,8.546 59.826,24.795 85.813,6.111 0,0 8.448,-3.627 13.963,5.268 0,0 12.671,22.857 28.522,-10.584 0,0 7.006,-4.224 9.441,0.099 0,0 7.304,64.398 -53.615,83.13" style="fill:#fefefe;fill-opacity:1;fill-rule:nonzero;stroke:none" id="path152"/></g><g id="g154" transform="translate(1038.1422,1119.2047)"><path d="m 0,0 c -0.795,-7.205 -4.869,-7.006 -7.851,-5.814 -1.689,0.696 -3.677,0.547 -4.969,-0.745 -1.739,-1.689 -4.273,-2.832 -6.807,-3.627 -3.628,-1.143 -7.056,2.186 -6.013,5.813 l 0.199,0.646 c 0.497,1.789 1.988,3.081 3.826,3.379 l 6.013,0.944 c 1.143,0.199 2.136,0.845 2.931,1.69 4.274,4.77 8.05,3.875 10.336,2.435 C -0.695,3.727 0.199,1.888 0,0" style="fill:#000000;fill-opacity:1;fill-rule:nonzero;stroke:none" id="path156"/></g></g></g></g></svg>