<?xml version="1.0" encoding="UTF-8"?>
<!DOCTYPE svg PUBLIC "-//W3C//DTD SVG 1.1//EN" "http://www.w3.org/Graphics/SVG/1.1/DTD/svg11.dtd">
<!-- Creator: CorelDRAW 2019 (64-Bit) -->
<svg xmlns="http://www.w3.org/2000/svg" xml:space="preserve" width="180.557mm" height="236.316mm" version="1.1" style="shape-rendering:geometricPrecision; text-rendering:geometricPrecision; image-rendering:optimizeQuality; fill-rule:evenodd; clip-rule:evenodd"
viewBox="0 0 180.2675 235.9377"
 xmlns:xlink="http://www.w3.org/1999/xlink"
 xmlns:xodm="http://www.corel.com/coreldraw/odm/2003">
 <defs>
  <style type="text/css">
   <![CDATA[
    .fil4 {fill:#211F1F}
    .fil3 {fill:#45704D}
    .fil1 {fill:#B93733}
    .fil0 {fill:#FFD42E}
    .fil2 {fill:white}
   ]]>
  </style>
 </defs>
 <g id="Layer_x0020_1">
  <metadata id="CorelCorpID_0Corel-Layer"/>
  <g id="_829883104">
   <path class="fil0" d="M-0 0l0 145.753c0,49.7729 40.3526,90.1847 90.1425,90.1847 49.7714,0 90.1249,-40.4118 90.1249,-90.1847l0 -145.753 -180.2675 0z"/>
   <path class="fil1" d="M178.2759 1.932c0,3.8609 0,143.821 0,143.821 0,48.5816 -39.5357,88.1042 -88.1333,88.1042 -48.5991,0 -88.1507,-39.5226 -88.1507,-88.1042 0,0 0,-139.9601 0,-143.821 3.8608,0 172.4188,0 176.2841,0z"/>
   <path class="fil0" d="M4.7243 145.753c0,47.0986 38.3196,85.4299 85.4182,85.4299 47.081,0 85.3996,-38.3313 85.3996,-85.4299 0,0 0,-38.7804 0,-75.7723 -46.683,0 -106.4553,0 -170.8178,0 0,36.9919 0,75.7723 0,75.7723z"/>
   <path class="fil0" d="M175.5421 4.6059c-8.7205,0 -162.0962,0 -170.8178,0 0,4.0129 0,32.3902 0,62.5481 64.4684,0 124.1945,0 170.8178,0 0,-30.1578 0,-58.5352 0,-62.5481z"/>
   <path class="fil2" d="M173.5506 6.6868c-3.8478,0 -162.974,0 -166.8346,0 0,1.6359 0,28.6747 0,58.5395l166.8346 0c0,-29.8648 0,-56.9036 0,-58.5395z"/>
   <path class="fil2" d="M90.1425 71.9085l0 157.3427c45.9832,0 83.4081,-37.442 83.4081,-83.4982 0,0 0,-37.7381 0,-73.8446 -24.6786,0 -52.8916,0 -83.4081,0z"/>
   <polygon class="fil1" points="24.4542,16.6407 59.4761,16.6407 59.4761,24.5138 34.56,24.5138 34.56,30.607 58.2849,30.607 58.2849,38.3316 34.56,38.3316 34.56,49.7726 24.4542,49.7726 "/>
   <path class="fil1" d="M93.5281 36.9962l10.101 0c0.0773,1.6316 0.1064,2.674 0.1064,3.1189 0,2.5263 -0.3727,4.6069 -1.1312,5.9454 -0.8428,1.6316 -2.496,2.8216 -4.9325,3.4151 -2.4495,0.5934 -6.6693,0.7419 -12.6862,0.7419 -6.3145,0 -10.8012,0 -13.4927,-0.2961 -2.6739,-0.1488 -4.6948,-0.7419 -6.0466,-1.3355 -1.216,-0.7453 -2.1225,-1.4873 -2.7333,-2.6782 -0.5924,-1.0381 -0.9783,-2.5254 -1.1563,-4.3043 -0.149,-1.4883 -0.2245,-4.3099 -0.2245,-8.1751 0,-3.8593 0.0756,-6.6865 0.2245,-8.318 0.1481,-1.7832 0.4282,-2.9744 0.8428,-4.0126 0.9243,-2.0805 2.7975,-3.419 5.619,-4.0125 2.8096,-0.5934 8.4961,-1.0381 17.0429,-1.0381 4.2632,0 7.3688,0.1486 9.3138,0.2961 1.9449,0.2974 3.4918,0.5934 4.6352,1.1866 1.5175,0.7463 2.573,1.7847 3.1785,3.1233 0.6267,1.4827 0.9243,3.4159 0.9243,6.2375 0,0.1486 0,0.5974 -0.0175,1.6356l-10.1015 0c-0.0464,-1.1866 -0.119,-1.932 -0.208,-2.229 -0.0891,-0.445 -0.2671,-0.7411 -0.5513,-0.8896 -0.3853,-0.4447 -1.3636,-0.5934 -2.9276,-0.7463 -1.5721,-0.1476 -3.9487,-0.2961 -7.1442,-0.2961 -3.1526,0 -5.3352,0.1486 -6.5508,0.2961 -1.2205,0.1529 -2.0806,0.3016 -2.5722,0.7463 -0.6098,0.4446 -1.0253,1.3342 -1.2626,2.3766 -0.2249,1.1869 -0.3429,3.1189 -0.3429,5.644 0,2.3779 0.1047,4.1613 0.3133,5.1995 0.2073,1.0424 0.6098,1.7843 1.2161,2.2293 0.5676,0.4489 1.474,0.7463 2.7075,0.8939 1.2334,0.1486 3.4322,0.1486 6.564,0.1486 3.8641,0 6.4489,0 7.741,-0.1486 1.28,-0.1476 2.1575,-0.445 2.6024,-0.8939 0.6051,-0.445 0.9185,-1.7801 0.9491,-3.8609z"/>
   <path class="fil1" d="M6.716 71.9085c0,36.1065 0,73.8446 0,73.8446 0,46.0561 37.4245,83.4982 83.4265,83.4982l0 -157.3427c-26.3565,0 -54.4249,0 -83.4265,0z"/>
   <path class="fil1" d="M121.7148 36.8489l6.0887 -12.4837 1.3981 0 6.1368 12.4837 -13.6235 0zm15.1706 -20.2082l0 0 -16.4202 0 -18.3054 35.6573 -26.0607 0 0 7.8777 34.3058 0 7.7713 -16.0472 20.7258 0 7.818 16.0472 13.309 0 -23.1435 -43.535z"/>
   <polygon class="fil3" points="50.2773,60.1757 76.1003,60.1757 76.1003,52.298 50.2773,52.298 "/>
   <polygon class="fil1" points="24.4542,60.1757 50.2773,60.1757 50.2773,52.298 24.4542,52.298 "/>
   <path class="fil2" d="M76.9342 53.1919c0,1.1866 0,4.9033 0,6.0886 0.9956,0 14.3648,0 24.4365,0l0 -6.0886c-7.962,0 -23.2628,0 -24.4365,0z"/>
   <path class="fil2" d="M81.0313 211.2766c-1.5292,0 -2.703,-1.0424 -2.703,-4.0137 0,-2.0806 0.7884,-3.5679 2.4538,-3.5679 2.1814,0 3.1058,2.5254 3.1058,4.6059 0,0.8949 -0.1065,1.6356 -0.2844,2.3776 -0.7288,0.4449 -1.6185,0.598 -2.5722,0.598zm0.0599 -9.3604l0 0c-2.9116,0 -5.4067,2.2277 -5.4067,5.6437 0,3.2674 1.9616,5.4955 4.9783,5.4955 0.8481,0 1.5728,-0.1476 2.3007,-0.4446 -1.2454,2.6736 -3.5928,4.3098 -6.0759,5.1994l0.6987 1.6356c2.2887,-0.742 4.1318,-1.6356 5.9282,-3.4159 1.4711,-1.487 3.0177,-4.3083 3.0177,-7.4319 0,-4.4541 -2.6912,-6.6818 -5.441,-6.6818z"/>
   <polygon class="fil2" points="69.6251,204.144 71.7175,203.399 71.7175,202.3605 64.9,202.3605 64.9,203.399 66.9764,204.144 66.9764,211.8689 64.9,212.462 64.9,213.5005 71.7175,213.5005 71.7175,212.462 69.6251,211.8689 "/>
   <path class="fil1" d="M99.9478 211.8689c-1.6957,0 -3.6569,-1.3386 -3.6569,-4.0128 0,-2.6737 1.9613,-4.0123 3.6569,-4.0123 1.7074,0 3.6693,1.3386 3.6693,4.0123 0,2.6742 -1.962,4.0128 -3.6693,4.0128zm0 -9.9526l0 0c-3.403,0 -6.2125,2.5249 -6.2125,5.9399 0,3.4205 2.8095,5.946 6.2125,5.946 3.415,0 6.2244,-2.5254 6.2244,-5.946 0,-3.415 -2.8094,-5.9399 -6.2244,-5.9399z"/>
   <path class="fil1" d="M107.2571 202.3605l0 2.0806 7.3091 0c-1.7542,2.6742 -4.9196,9.0594 -5.8817,14.1155l2.1661 0c0.8767,-4.3101 4.1018,-10.7004 6.5673,-14.5641l0 -1.6319 -10.1608 0z"/>
   <path class="fil4" d="M122.1127 159.1229l-9.906 -8.9115c-4.5048,0.7411 -9.111,1.3346 -13.7766,1.6316l-0.1008 -6.9835c8.2879,-0.742 12.2536,-2.9701 15.8811,-6.3864 4.3518,-4.161 6.3903,-9.5078 6.3903,-17.2369 0,-13.0724 -7.6997,-25.4033 -14.28,-31.9421 -6.183,-6.2419 -12.6743,-8.0253 -16.0002,-8.7673l-0.3731 0c-3.3142,0.742 -9.8228,2.5254 -16.0005,8.7673 -6.5799,6.5388 -14.2628,18.8696 -14.2628,31.9421 0,7.7291 2.0209,13.0758 6.3733,17.2369 3.6266,3.4162 7.5935,5.6443 15.8987,6.3864l-0.1194 6.9835c-4.6646,-0.297 -9.2586,-0.8905 -13.7755,-1.6316l-9.9073 8.9115 4.0386 4.4572c-0.3983,0.8942 -0.5932,1.9323 -0.5932,2.9746 0,3.119 2.4956,5.6444 5.5854,5.6444 0.9234,0 2.6479,-0.2964 3.7619,-1.6362 0.3266,-0.445 0.5639,-0.8893 0.7244,-1.4828 2.5561,5.3476 4.0895,13.8179 4.7548,26.2969l0.0466 0.8909 27.323 0 0.0588 -0.8909c0.6528,-12.479 2.1998,-20.9493 4.7545,-26.2969 0.1485,0.5935 0.3862,1.0378 0.7115,1.4828 1.1152,1.3398 2.84,1.6362 3.7764,1.6362 3.0762,0 5.5843,-2.5254 5.5843,-5.6444 0,-1.0423 -0.2074,-2.0805 -0.5934,-2.9746l4.0254 -4.4572z"/>
   <path class="fil3" d="M91.7608 143.0791l5.987 -3.5679 -7.6053 -4.4572 -7.6239 4.4572 5.9878 3.5679c0.534,0 1.0676,0 1.6361,0 0.5466,0 1.0848,0 1.6183,0z"/>
   <path class="fil3" d="M101.2223 95.2355l7.6106 4.6059 2.1825 -1.3345c-1.5002,-2.3776 -3.1056,-4.4583 -4.7371,-6.2416l-5.056 2.9701z"/>
   <path class="fil3" d="M71.4347 135.0541l-3.6536 2.2293c2.0936,1.7828 4.3988,3.2703 7.8146,4.3086l3.4614 -2.0808 -7.6224 -4.4572z"/>
   <path class="fil3" d="M78.0615 142.1851c1.9157,0.445 4.1318,0.5978 6.7752,0.7466l-4.0546 -2.3781 -2.7206 1.6315z"/>
   <path class="fil3" d="M95.4307 142.9317c2.644,-0.1488 4.8726,-0.3016 6.7757,-0.7466l-2.7211 -1.6315 -4.0546 2.3781z"/>
   <path class="fil3" d="M113.7787 135.9476c1.5457,-1.7831 2.69,-3.5673 3.4614,-5.9442l-6.6693 4.0125 3.2079 1.9317z"/>
   <path class="fil3" d="M118.1176 116.333c-0.4154,-2.674 -1.1152,-5.1991 -2.034,-7.7245l-5.5128 3.2674 7.5468 4.4572z"/>
   <path class="fil3" d="M118.2533 118.4138l-0.0772 0 -7.6053 4.4583 7.398 4.4571c0.3733,-1.7843 0.5509,-3.8649 0.5509,-6.0929 0,-0.8906 -0.0755,-1.9286 -0.1656,-2.8225l-0.1008 0z"/>
   <path class="fil3" d="M101.2223 139.5112l3.4499 2.0808c3.4316,-1.0383 5.7205,-2.5257 7.8132,-4.3086l-3.6524 -2.2293 -7.6106 4.4572z"/>
   <path class="fil3" d="M63.0395 130.0035c0.7759,2.3769 1.9029,4.161 3.4497,5.9442l3.2075 -1.9317 -6.6571 -4.0125z"/>
   <path class="fil3" d="M96.6165 84.8367c-2.6146,-1.191 -4.9024,-1.932 -6.474,-2.229 -1.5895,0.297 -3.878,1.038 -6.4966,2.229l6.4966 3.8652 6.474 -3.8652z"/>
   <path class="fil3" d="M88.4007 89.74l-6.5805 -3.8652c-2.0512,1.1913 -4.2504,2.8272 -6.4034,4.9033 -0.0584,0 -0.1182,0.152 -0.1648,0.152l5.5302 3.2674 7.6186 -4.4575z"/>
   <path class="fil3" d="M99.4853 94.1974l5.5424 -3.2674c-0.0589,0 -0.1185,-0.152 -0.1781,-0.152 -2.1522,-2.0762 -4.3391,-3.712 -6.4024,-4.9033l-6.5843 3.8652 7.6225 4.4575z"/>
   <path class="fil3" d="M79.0571 95.2355l-5.0506 -2.9701c-1.6362,1.7832 -3.2541,3.864 -4.7416,6.2416l2.1698 1.3345 7.6224 -4.6059z"/>
   <path class="fil3" d="M62.0901 118.4138l-0.1779 0c-0.0886,0.8939 -0.1473,1.9319 -0.1473,2.8225 0,2.228 0.1779,4.3086 0.5338,6.0929l7.3978 -4.4571 -7.6065 -4.4583z"/>
   <path class="fil3" d="M64.1839 108.6085c-0.92,2.5254 -1.6182,5.0505 -2.0209,7.7245l7.5336 -4.4572 -5.5128 -3.2674z"/>
   <path class="fil3" d="M68.3277 99.99c-0.4738,0.745 -0.9492,1.6359 -1.3809,2.3766l2.7498 -1.6316 -1.3689 -0.745z"/>
   <path class="fil3" d="M71.4347 110.8378l7.6224 -4.4586 -7.6224 -4.6057 -5.899 3.5676c-0.2497,0.4459 -0.4741,1.0381 -0.699,1.6316l6.598 3.8652z"/>
   <polygon class="fil3" points="82.5186,117.3757 90.1425,121.9816 97.7478,117.3757 90.1425,112.9183 "/>
   <polygon class="fil3" points="71.4347,123.9133 63.8278,128.5162 71.4347,132.9732 79.0571,128.5162 "/>
   <polygon class="fil3" points="73.1713,134.0159 80.7821,138.4731 88.4007,134.0159 80.7821,129.5585 "/>
   <polygon class="fil3" points="79.0571,117.3757 71.4347,112.9183 63.8278,117.3757 71.4347,121.9816 "/>
   <polygon class="fil3" points="88.4007,100.735 80.7821,96.278 73.1713,100.735 80.7821,105.341 "/>
   <polygon class="fil3" points="88.4007,111.8759 80.7821,107.4218 73.1713,111.8759 80.7821,116.333 "/>
   <polygon class="fil3" points="90.1425,123.9133 82.5186,128.5162 90.1425,132.9732 97.7478,128.5162 "/>
   <polygon class="fil3" points="91.8629,134.0159 99.4853,138.4731 107.0918,134.0159 99.4853,129.5585 "/>
   <polygon class="fil3" points="91.8629,111.8759 99.4853,116.333 107.0918,111.8759 99.4853,107.4218 "/>
   <polygon class="fil3" points="108.8329,121.9816 116.4394,117.3757 108.8329,112.9183 101.2223,117.3757 "/>
   <polygon class="fil3" points="101.2223,128.5162 108.8329,132.9732 116.4394,128.5162 108.8329,123.9133 "/>
   <polygon class="fil3" points="91.8629,100.735 99.4853,105.341 107.0918,100.735 99.4853,96.278 "/>
   <polygon class="fil3" points="97.7478,95.2355 90.1425,90.7781 82.5186,95.2355 90.1425,99.8415 "/>
   <path class="fil3" d="M113.3337 102.3666c-0.446,-0.7407 -0.9068,-1.6316 -1.3983,-2.3766l-1.3646 0.745 2.7629 1.6316z"/>
   <path class="fil3" d="M108.8329 101.7735l-7.6106 4.6057 7.6106 4.4586 6.5932 -3.8652c-0.2073,-0.5934 -0.4447,-1.1857 -0.6823,-1.6316l-5.9109 -3.5676z"/>
   <polygon class="fil3" points="73.1713,122.8721 80.7821,127.478 88.4007,122.8721 80.7821,118.4138 "/>
   <polygon class="fil3" points="90.1425,101.7735 82.5186,106.3792 90.1425,110.8378 97.7478,106.3792 "/>
   <polygon class="fil3" points="107.0918,122.8721 99.4853,118.4138 91.8629,122.8721 99.4853,127.478 "/>
   <path class="fil0" d="M73.129 158.2327l8.6185 0 0.0727 -4.6063c-4.4703,-0.2961 -8.8865,-0.741 -13.2082,-1.6359 -3.2368,2.9744 -6.0933,5.6484 -7.9492,7.2842l2.4655 2.674c1.844,-2.3766 5.3057,-3.716 10.0007,-3.716z"/>
   <path class="fil0" d="M111.6557 151.9905c-4.3274,0.7466 -8.7205,1.3398 -13.1951,1.6359l0.0756 4.6063 8.6025 0c4.6948,0 8.1562,1.3395 10.0123,3.716l2.4538 -2.674c-1.8603,-1.6358 -4.712,-4.3098 -7.9491,-7.2842z"/>
   <path class="fil0" d="M90.1425 158.3809l-6.628 0 0.2086 -13.3729c1.9143,0.1519 4.0417,0.1519 6.4194,0.1519 2.3767,0 4.4996,0 6.4153,-0.1519l0.2115 13.3729 -6.6268 0z"/>
   <path class="fil0" d="M70.9596 160.0167c-4.8556,0.5934 -7.5936,2.9701 -7.5936,6.5379 0,2.0763 1.7122,3.8606 3.8186,3.8606 0.6096,0 1.7409,-0.1485 2.3942,-0.8905 0.5804,-0.7407 0.6986,-1.932 0.372,-3.4193l1.5888 -0.742c3.2545,4.6072 5.2166,12.0347 6.2255,23.9205l5.2161 -12.7757c-3.6104,-7.8774 -7.6693,-14.4107 -12.0215,-16.4915z"/>
   <path class="fil0" d="M83.9007 174.2796l5.856 -14.1152 -15.5137 -0.1477c3.1493,2.5251 6.2843,7.1312 9.6577,14.2628z"/>
   <path class="fil0" d="M106.0232 160.0167l-15.4958 0.1477 5.8525 14.1152c3.3594,-7.1317 6.4954,-11.7377 9.6433,-14.2628z"/>
   <path class="fil0" d="M84.8968 176.5083c1.6779,3.86 3.415,8.1698 5.2457,13.2204 1.8255,-5.0506 3.5506,-9.3604 5.2285,-13.2204 -2.4656,-5.9454 -4.6656,-11.2921 -5.2285,-12.6321 -0.5814,1.3401 -2.7627,6.6868 -5.2457,12.6321z"/>
   <path class="fil0" d="M83.9768 178.7376c-2.199,5.3467 -4.4747,10.8435 -5.9153,14.4113 0.0173,0.4447 0.0464,0.8896 0.076,1.3346 0.7415,0 6.2372,0 11.7966,0l-0.6267 -1.7794c-1.6318,-4.6069 -3.4149,-9.5089 -5.3306,-13.9664z"/>
   <path class="fil0" d="M109.3083 160.0167c-4.3394,2.0809 -8.4112,8.6142 -12.0215,16.4915l5.2157 12.7757c1.0087,-11.8858 2.9874,-19.3133 6.2243,-23.9205l1.5892 0.742c-0.3254,1.4873 -0.1897,2.6786 0.3863,3.4193 0.656,0.742 1.7714,0.8905 2.3942,0.8905 2.1097,0 3.8172,-1.7843 3.8172,-3.8606 0,-3.5678 -2.75,-5.9445 -7.6053,-6.5379z"/>
   <path class="fil0" d="M90.9722 192.704l-0.64 1.7794c5.5596,0 11.0692,0 11.797,0 0.0306,-0.445 0.0597,-0.8899 0.0889,-1.3346 -1.4525,-3.5678 -3.7284,-9.0646 -5.9108,-14.4113 -1.932,4.4575 -3.7165,9.3595 -5.335,13.9664z"/>
  </g>
 </g>
</svg>
