<?xml version="1.0" encoding="utf-8"?>
<!-- Generator: $$$/GeneralStr/196=Adobe Illustrator 27.6.0, SVG Export Plug-In . SVG Version: 6.00 Build 0)  -->
<svg version="1.1" id="Livello_1" xmlns="http://www.w3.org/2000/svg" xmlns:xlink="http://www.w3.org/1999/xlink" x="0px" y="0px"
	 viewBox="0 0 339.5 567" style="enable-background:new 0 0 339.5 567;" xml:space="preserve">
<style type="text/css">
	.st0{fill-rule:evenodd;clip-rule:evenodd;fill:#111111;}
	.st1{fill-rule:evenodd;clip-rule:evenodd;fill:#FFFFFF;}
	.st2{fill-rule:evenodd;clip-rule:evenodd;fill:#CE282A;}
</style>
<g id="surface1">
	<path class="st0" d="M169.8,0c93.8,0,169.8,126.9,169.8,283.5c0,156.6-76,283.5-169.8,283.5S0.1,440,0.1,283.4
		C0.1,126.9,76.1,0,169.8,0z"/>
	<path class="st1" d="M169.8,8.4c89.1,0,161.3,123.1,161.3,275s-72.2,275-161.3,275c-89.1,0-161.3-123.1-161.3-275
		S80.7,8.4,169.8,8.4z"/>
	<path class="st2" d="M169.8,20.6c80.7,0,151.6,117.1,151.6,262.8c0,145.7-70.8,262.7-151.6,262.7h0V214.6c6,0.2,12,0.8,18,0.4
		c13.1-1,26.9-4.5,38.4-10.8c9-4.9,17.8-12.2,23.9-20.5c3.9-5.2,7.1-11,9-17.3c3-9.7,2.6-20,0.2-29.8c-3-12-8.8-21.7-16.5-31.1
		c-3.7-4.5-8.5-8.5-12.5-11.7c3,9.5,3.9,13.2,4.9,19.9c0.8,5.4,0.7,10,0.2,14.9c-0.6,4.8-2.1,9-4.5,13.2c-4.8,8.5-10.8,13.3-19.8,17
		c-2.9,1.2-6.3,2.1-9.4,2.6c-2.9,0.5-6.2,0.8-9.2,0.5c-0.4,0-1-0.1-1.7-0.3c8.1-6.3,15-15.2,14-26c-0.3-3.5-1.5-6.8-3.2-9.9
		c-1.6-2.7-5.3-6.5-6.7-7.6c-1.1,4.3-2.4,7.7-4.9,11.3c-5.1,7.4-12.2,12.8-20.3,16.6L169.8,20.6L169.8,20.6z"/>
	<path class="st0" d="M149,221c-11.5,43.2-14.6,86.3-14.7,130.5c-0.1,50.6,5.6,102,15.7,153.9c-18.8-25.2-49.2-65.7-73.9-106.6
		c-18.4-30.5-33.1-61.2-32.5-86c0.6-21,14.2-40.6,33.3-55.6C97.9,240.7,125.4,228.1,149,221z M122.7,237.5c7.7,0,14,6.3,14,14
		c0,7.7-6.3,14-14,14c-7.1,0-12.9-5.3-13.9-12.1c1.8,3,5,5,8.7,5c5.6,0,10.1-4.5,10.1-10.1c0-5.3-4.1-9.7-9.3-10.1
		C119.7,237.7,121.1,237.5,122.7,237.5z"/>
	<path class="st2" d="M100.5,233.6c-22.1,13.8-39.8,27.4-50.9,43.3c-10.8,15.4-16.5,29.6-11.5,51.3c-13.2-15.7-18.7-37.2-15.1-50.5
		c1.5-5.8,3.6-10.8,7.9-15.6c4-4.6,10.8-10,19.5-12.4c3.3-0.9,6.6-1.2,12.4-0.2l-20.4-13.9c9.8-1.5,16.9-3.1,23.8-4.3
		c4.7-0.8,9.2-1.8,14.4-1.6C87.1,229.9,93.8,231.3,100.5,233.6z"/>
	<path class="st2" d="M106.6,227.3c10.8-5.3,21.4-9.6,31.8-12.5c7.4-2.1,15.4-4.1,23.1-4.4c9.2-0.5,17.6,1,26,0.4
		c14-1,26.9-4.9,36.7-10.3c9.4-5.1,17.4-12.3,22.5-19.3c3.5-4.8,6.6-10.2,8.4-16c2.6-8.4,2.6-17.8,0.1-27.5
		c-2.5-10.1-7.1-19.8-17-31.3c1,6.6,1.7,12.1,1.7,16.9c-0.1,9.1-2.2,15.3-5.3,20.9c-5.3,9.3-12,14.7-21.8,18.8
		c-9.3,3.9-27.1,6.2-28.2-1.8c16.8-11.1,19.8-24.1,12.3-34.8c-8.1,16.5-25.5,26.9-47.7,30.3c4.2-11.4,2.5-22.2-4.8-32.2
		c-5.2,16.9-14.9,27.8-25.8,38.1c-3.7,3.5-7.6,6.7-11.3,9.6c-4.2,3.2-8.2,6.1-11.6,9.7c-9,9.6-12.8,21.1-11.1,29.2
		C86.2,218.1,90.6,227.7,106.6,227.3z"/>
	<path class="st1" d="M191.1,300.1h9c3.4,0,6.9,1.6,6.9,5.3v7.1c0,1.7-0.8,3.3-2.7,4.2c2.8,0.9,3.4,2.9,3.4,4.8v7
		c0,4.3-3.4,6.1-6.9,6.1h-9.6V300.1z M197,314.6h2.1c0.8,0,2.1-0.5,2.1-2.2v-5.1c0-0.9-0.3-2.2-2.2-2.2H197V314.6z M199.4,319.3H197
		v10.6h2.1c1.9,0,2.7-1.1,2.7-2.3V322C201.7,320.3,200.8,319.3,199.4,319.3z"/>
	<path class="st1" d="M257.6,300.1h8.3c5.1,0,7.9,2.5,7.9,6.1v8c0,3.3-1,5.4-3.5,6.1c2.6,3.1,3.6,6.9,3.6,10.6v3.7H268v-5
		c0-2.8-1.6-6.2-3.2-8.4l-1.4,0l0,13.4h-5.9V300.1z M263.5,316.4h2.7c0.8,0,2.1-0.5,2.1-2.2v-6.8c0-0.9-0.3-2.2-2.2-2.2h-2.6V316.4z
		"/>
	<path class="st1" d="M229.5,300.1h6.2c3.9,11.7,6.3,24.3,7,34.6h-6.1c-0.2-2.8-0.5-5.6-0.8-8.1h-6.6c-0.3,2.6-0.6,5.3-0.8,8.1h-5.9
		C223.1,324.4,225.6,311.7,229.5,300.1z M235,321.6c-0.7-5.3-1.5-9.9-2.5-13.9c-1.1,4-1.9,8.6-2.6,13.9H235z"/>
	<path class="st1" d="M288.6,265.2c4.2,0,5.6,2.6,5.6,4.5v3.9h-4.5v-2.6c0-1.5-0.5-2.1-1.5-2.1s-1.5,0.5-1.5,1.9v14.7
		c0,1.4,0.6,1.9,1.5,1.9s1.5-0.6,1.5-2.1v-3.5h4.5v4.8c0,2-1.4,4.5-5.6,4.5c-4.1,0-6.3-1.9-6.3-4.6v-16.6
		C282.3,267.1,284.5,265.2,288.6,265.2z"/>
	<path class="st1" d="M243.2,265.2c4.2,0,5.8,2.6,5.8,4.5v3.7h-4.3v-2.4c0-1.5-0.9-2.1-1.9-2.1s-1.7,0.5-1.7,1.9v0.9
		c0,1,0.6,1.6,1.3,2.4c1.5,1.6,3.8,3.1,5.2,4.8c0.9,1.1,1.6,2.2,1.6,3.7v4c0,2.8-2.6,4.7-6.7,4.7c-4.2,0-5.9-2.6-5.9-4.5v-4.6h4.4
		v3.3c0,1.5,0.9,2.1,1.9,2.1s2.1-0.5,2.1-1.9v-2c0-2.9-4.9-5.4-6.7-7.6c-0.9-1.1-1.4-2.5-1.4-3.9v-2.2
		C236.7,267.1,239.1,265.2,243.2,265.2z"/>
	<path class="st1" d="M197.2,265.2c4.2,0,5.8,2.6,5.8,4.5v3.7h-4.3v-2.4c0-1.5-0.9-2.1-1.9-2.1s-1.7,0.5-1.7,1.9v0.9
		c0,1,0.6,1.6,1.3,2.4c1.5,1.6,3.8,3.1,5.2,4.8c0.9,1.1,1.6,2.2,1.6,3.7v4c0,2.8-2.6,4.7-6.7,4.7c-4.2,0-5.9-2.6-5.9-4.5v-4.6h4.4
		v3.3c0,1.5,0.9,2.1,1.9,2.1s2.1-0.5,2.1-1.9v-2c0-2.9-4.9-5.4-6.7-7.6c-0.9-1.1-1.4-2.5-1.4-3.9v-2.2
		C190.7,267.1,193.1,265.2,197.2,265.2z"/>
	<path class="st1" d="M288.5,334.6h5.9v-34.6h-5.9V334.6z"/>
</g>
</svg>
