<?xml version="1.0"?>
<svg
   viewBox="0 0 771.09998 975.20001"
   width="237.212871"
   height="300"
   xmlns:inkscape="http://www.inkscape.org/namespaces/inkscape"
   xmlns:sodipodi="http://sodipodi.sourceforge.net/DTD/sodipodi-0.dtd"
   xmlns="http://www.w3.org/2000/svg"
   xmlns:svg="http://www.w3.org/2000/svg">
  <defs
     id="defs1">
    <style
       id="style1">&#10;      .cls-1 {&#10;        fill: #000;&#10;      }&#10;&#10;      .cls-1, .cls-2, .cls-3 {&#10;        stroke-width: 0px;&#10;      }&#10;&#10;      .cls-2 {&#10;        fill: #fff;&#10;      }&#10;&#10;      .cls-3 {&#10;        fill: #0053db;&#10;      }&#10;    </style>
  </defs>
  <path
     d="m 18.2,479.2 c -1.8,-8 -3.5,-16.2 -5,-24.5 1.5,8.3 3.2,16.4 5,24.5 z"
     class="cls-2"
     id="path1" />
  <polygon
     points="499.8,6 885.3,84.7 499.8,6 114.2,84.7 "
     class="cls-2"
     id="polygon1"
     transform="translate(-114.2,-6)" />
  <path
     d="M 6.7,412.8 C 4.9,398.4 3.5,383.6 2.5,368.3 c 1,15.3 2.4,30.1 4.2,44.5 z"
     class="cls-2"
     id="path2" />
  <path
     d="m 13.2,454.8 c -2.5,-13.6 -4.7,-27.6 -6.5,-42 1.8,14.4 3.9,28.4 6.5,42 z"
     class="cls-2"
     id="path3" />
  <path
     d="m 423.6,952.4 c -2.4,1.6 -4.7,3 -6.9,4.4 2.2,-1.4 4.5,-2.9 6.9,-4.4 z"
     class="cls-2"
     id="path4" />
  <path
     d="m 460.7,926.5 c -4.6,3.4 -9.1,6.6 -13.4,9.7 4.3,-3.1 8.8,-6.3 13.4,-9.7 z"
     class="cls-2"
     id="path5" />
  <path
     d="m 382.7,973.5 c 1.3,0.7 2.2,1.2 2.9,1.5 0.7,-0.3 1.6,-0.8 2.9,-1.5 -1.3,0.7 -2.2,1.2 -2.9,1.5 -0.7,-0.3 -1.6,-0.8 -2.9,-1.5 z"
     class="cls-2"
     id="path6" />
  <path
     d="m 439,942.1 c -4.1,2.8 -8,5.5 -11.7,7.9 3.7,-2.5 7.6,-5.1 11.7,-7.9 z"
     class="cls-2"
     id="path7" />
  <path
     d="m 410.4,960.8 c -4,2.5 -7.7,4.7 -10.8,6.5 3.2,-1.8 6.8,-4 10.8,-6.5 z"
     class="cls-2"
     id="path8" />
  <path
     d="m 542.5,856.9 c -3.6,3.5 -7.2,7 -10.8,10.4 3.6,-3.4 7.2,-6.8 10.8,-10.4 z"
     class="cls-2"
     id="path9" />
  <path
     d="m 558.8,840.5 c -3.6,3.8 -7.3,7.4 -10.9,11.1 3.6,-3.6 7.2,-7.3 10.9,-11.1 z"
     class="cls-2"
     id="path10" />
  <path
     d="m 399.5,967.3 c -4.8,2.8 -8.5,4.8 -11,6.2 2.5,-1.3 6.3,-3.4 11,-6.2 z"
     class="cls-2"
     id="path11" />
  <path
     d="m 474.9,915.8 c -3.2,2.5 -6.4,4.9 -9.5,7.3 3.1,-2.4 6.3,-4.8 9.5,-7.3 z"
     class="cls-2"
     id="path12" />
  <path
     d="m 323.8,936.2 c -4.3,-3.1 -8.8,-6.3 -13.4,-9.7 4.6,3.4 9.1,6.6 13.4,9.7 z"
     class="cls-2"
     id="path13" />
  <path
     d="m 305.8,923.1 c -3.1,-2.4 -6.3,-4.8 -9.5,-7.3 3.2,2.5 6.4,4.9 9.5,7.3 z"
     class="cls-2"
     id="path14" />
  <path
     d="m 382.7,973.5 c -2.5,-1.3 -6.3,-3.4 -11,-6.2 4.8,2.8 8.5,4.8 11,6.2 z"
     class="cls-2"
     id="path15" />
  <path
     d="m 223.3,851.5 c -2.7,-2.7 -5.4,-5.4 -8.1,-8.2 2.7,2.8 5.4,5.5 8.1,8.2 z"
     class="cls-2"
     id="path16" />
  <path
     d="m 25.2,507.6 c -2,-7.5 -3.9,-15.2 -5.7,-22.9 1.8,7.7 3.7,15.4 5.7,22.9 z"
     class="cls-2"
     id="path17" />
  <path
     d="m 236.9,864.7 c -2.7,-2.6 -5.4,-5.2 -8.2,-7.9 2.7,2.7 5.5,5.3 8.2,7.9 z"
     class="cls-2"
     id="path18" />
  <path
     d="m 371.7,967.3 c -3.2,-1.8 -6.8,-4 -10.8,-6.5 4,2.5 7.7,4.7 10.8,6.5 z"
     class="cls-2"
     id="path19" />
  <path
     d="m 343.9,950 c -3.7,-2.5 -7.6,-5.1 -11.7,-7.9 4.1,2.8 8,5.5 11.7,7.9 z"
     class="cls-2"
     id="path20" />
  <path
     d="m 354.5,956.9 c -2.2,-1.4 -4.5,-2.9 -6.9,-4.4 2.4,1.6 4.7,3 6.9,4.4 z"
     class="cls-2"
     id="path21" />
  <path
     d="M 2.5,368.3 C 1.8,358.1 1.3,347.7 0.9,337.1 c 0.3,10.6 0.9,21 1.6,31.2 z"
     class="cls-2"
     id="path22" />
  <path
     d="M 765,287.7 765.5,83.3 385.6,5.7 5.6,83.3 6.1,287.6 c -3,183.8 41.2,297.7 113.4,421.9 94.4,162.4 245.3,248 266.1,259.2 20.7,-11.2 171.6,-96.8 266.1,-259.2 72.2,-124.2 116.4,-238 113.4,-421.8 z m -15.8,0.2 C 752.1,468 708.8,579.6 638,701.4 588.8,786 522.9,849.2 476.2,887.3 434.7,921.1 401.1,941.8 385.6,950.5 370.2,941.7 336.5,921.1 295,887.3 248.4,849.2 182.5,786.1 133.2,701.4 62.4,579.6 19,467.9 22,287.9 v -0.2 c 0,0 0,-0.2 0,-0.2 L 21.5,96.2 385.6,21.8 749.7,96.2 749.2,287.5 v 0.2 z"
     class="cls-2"
     id="path23" />
  <path
     d="M 731.8,287.5 732.2,110.4 385.6,39.5 38.9,110.4 39.3,287.5 v 0.2 c 0,0 0,0.2 0,0.2 v 0.2 c 0,0 0,0.2 0,0.2 -2.9,176 39.5,285.3 108.9,404.5 47.9,82.4 112.2,144 157.7,181.1 33.8,27.6 62.1,46.1 79.6,56.6 17.5,-10.5 45.8,-29 79.6,-56.6 45.5,-37.2 109.8,-98.7 157.7,-181.1 69.3,-119.2 111.7,-228.5 108.9,-404.5 v -0.2 c 0,0 0,-0.2 0,-0.2 v -0.4 z M 586.9,718.7 c -89.1,128.9 -201.3,193 -201.3,193 0,0 -111.9,-63.8 -200.9,-192.2 V 462.1 c 0,0 -32.8,-50.7 -39.2,-60.7 v -68.1 c 12.3,-2.3 22.9,-4.2 30.7,-5.7 1.4,-0.3 2.8,-0.5 4,-0.7 v 28.7 l 10.6,-1.9 c 5.8,-1 13.9,-2.4 24.8,-4 v 0 c 16.7,-2.4 27.8,-3.6 34.4,-4.2 l 8,-0.7 V 317 c 24,-2.9 47.6,-4.8 65.8,-5.9 10,-0.6 18.4,-1 24.2,-1.3 v 30.1 l 9.3,-0.4 c 6.2,-0.3 21.4,-0.6 28.2,-0.6 6.8,0 22.4,0.3 28.6,0.6 l 9.3,0.4 v -30.1 c 16.5,0.7 52.7,2.6 90,7.2 v 27.8 l 8,0.7 c 6.6,0.6 17.8,1.8 34.4,4.2 v 0 c 10.9,1.6 19,2.9 24.8,4 l 10.6,1.9 v -28.7 c 8,1.4 20.1,3.7 34.7,6.4 v 68.1 c -6.4,9.9 -39.2,60.7 -39.2,60.7 V 718.6 Z M 715.6,287.6 c 0,121.9 -12.1,239.4 -106.3,396.5 -1.5,2.5 -3.1,5 -4.6,7.5 v -225 C 607.6,462 644,405.8 644,405.8 v -85.3 l -7.1,-1.3 c -30.9,-5.8 -52.6,-9.7 -52.7,-9.7 l -10.6,-1.9 v 28.8 c -4.2,-0.7 -9.1,-1.4 -14.7,-2.3 v 0 c -11.6,-1.7 -20.7,-2.8 -27.5,-3.6 v -27.3 l -7.6,-1 C 469.3,295 415.1,293.5 414.9,293.5 l -9.2,-0.3 v 30 c -7,-0.2 -15.3,-0.3 -20.1,-0.3 -4.8,0 -12.8,0.1 -19.7,0.3 v -30 l -9.2,0.3 c -0.2,0 -54.4,1.5 -108.9,8.7 l -7.6,1 v 27.3 c -6.8,0.7 -15.9,1.9 -27.5,3.6 v 0 c -5.6,0.8 -10.5,1.6 -14.7,2.3 v -28.8 l -10.6,1.9 c 0,0 -21.8,3.8 -52.7,9.7 l -7.1,1.3 v 85.3 c 0,0 33.6,52 39.3,60.8 v 226 c -1.7,-2.8 -3.5,-5.6 -5.2,-8.5 C 67.5,527.1 55.4,409.5 55.4,287.6 55.4,165.7 55.1,123.5 55.1,123.5 l 330.5,-67.6 330.5,67.5 c 0,0 -0.5,42.3 -0.5,164.1 z"
     class="cls-2"
     id="path24" />
  <path
     d="m 626.1,333.4 c -14.6,-2.7 -26.7,-4.9 -34.7,-6.4 v 28.7 l -10.6,-1.9 c -5.8,-1 -13.9,-2.4 -24.8,-4 v 0 c -16.7,-2.4 -27.8,-3.6 -34.4,-4.2 l -8,-0.7 v -27.8 c -37.3,-4.6 -73.6,-6.5 -90,-7.2 V 340 l -9.3,-0.4 c -6.2,-0.3 -21.9,-0.6 -28.6,-0.6 -6.8,0 -22,0.3 -28.2,0.6 l -9.3,0.4 v -30.1 c -5.8,0.2 -14.2,0.7 -24.2,1.3 -18.2,1.1 -41.8,3 -65.8,5.9 v 27.8 l -8,0.7 c -6.6,0.6 -17.8,1.8 -34.4,4.2 v 0 c -10.9,1.6 -19,2.9 -24.8,4 l -10.6,1.9 V 327 c -1.2,0.2 -2.6,0.5 -4,0.7 -7.8,1.4 -18.4,3.4 -30.7,5.7 v 68.1 c 6.4,9.9 39.2,60.7 39.2,60.7 v 257.4 c 89,128.4 200.9,192.2 200.9,192.2 0,0 112.2,-64.1 201.3,-193 V 462.3 c 0,0 32.8,-50.7 39.2,-60.7 V 333.5 Z M 339.9,825.2 h -8.3 v -38.3 c -1.3,0.4 -3,0.6 -4.7,0.5 v -8 c 4.3,0 5.4,-0.9 5.4,-4 h 7.6 z m 35.7,-29.5 c 0,4.8 -1,8.7 -2.8,12.7 l -7.6,16.9 h -8.9 l 7.4,-15.8 c -1.2,0.3 -2.4,0.4 -3.5,0.4 -8.1,0 -12.1,-5.3 -12.1,-13.3 v -7.4 c 0,-8.6 5.5,-14.3 13.8,-14.3 8.3,0 13.8,5.8 13.8,14.3 v 6.6 z m 34.4,15.8 c 0,8.4 -5.7,14.3 -13.9,14.3 -8.2,0 -13.8,-5.9 -13.8,-14.3 v -22.4 c 0,-8.5 5.7,-14.4 13.8,-14.4 8.1,0 13.9,5.9 13.9,14.4 z m 34.3,-1.6 c 0,9.5 -4.7,16 -13.9,16 -9.2,0 -13.8,-5.8 -13.8,-14.3 h 8.3 c 0,4.7 2.5,6.3 5.7,6.3 3.2,0 5.4,-2.2 5.4,-6.3 v -5.8 c 0,-4.6 -1.7,-7.3 -5.6,-7.3 -3.9,0 -4.7,2.5 -5.2,3.8 l -7.8,-1.3 3.9,-25.7 h 21 v 8 h -14.4 l -1.7,10.9 c 0.6,-0.7 2.8,-2.5 6.6,-2.5 7.6,0 11.5,4.5 11.5,14 z m 68,-192.9 c -11.5,20.3 -23.8,37.9 -36.7,53.3 -20.6,24.6 -42.6,43.4 -64.9,58.2 -2.8,1.9 -5.6,3.6 -8.4,5.4 -5.6,3.5 -11.2,6.7 -16.7,9.7 v 0 c -5.6,-3 -11.2,-6.2 -16.7,-9.7 -8.4,-5.2 -16.7,-10.9 -25,-17.2 -8.3,-6.3 -16.5,-13.3 -24.5,-21 -21.5,-20.5 -42,-46.1 -60.4,-78.6 -37.3,-65.7 -48.7,-133.8 -47.5,-192.4 29.1,-16.6 62.9,-29.7 101,-37.2 7.6,-1.5 15.4,-2.8 23.4,-3.8 8,-1 16.1,-1.8 24.4,-2.4 8.3,-0.6 16.8,-0.8 25.4,-0.8 v 0 c 25.9,0 50.3,2.5 73.2,7 38.1,7.5 71.9,20.6 101,37.2 1.2,58.6 -10.3,126.7 -47.5,192.4 z"
     class="cls-3"
     id="path25" />
  <path
     d="m 396.1,782.7 c -3,0 -5.5,1.6 -5.5,6.4 v 22.2 c 0,4.9 2.6,6.5 5.5,6.5 2.9,0 5.6,-1.6 5.6,-6.4 v -22.3 c 0,-4.9 -2.6,-6.4 -5.6,-6.4 z"
     class="cls-3"
     id="path26" />
  <path
     d="m 361.9,782.7 c -3.1,0 -5.5,1.4 -5.5,6.9 v 7.3 c 0,4.6 2.5,5.9 5.5,5.9 3,0 5.5,-1.4 5.5,-5.9 v -7.3 c 0,-5.4 -2.3,-6.9 -5.5,-6.9 z"
     class="cls-3"
     id="path27" />
  <polygon
     points="494.3,208.4 513.5,208.5 504.1,162.8 "
     class="cls-3"
     id="polygon27"
     transform="translate(-114.2,-6)" />
  <path
     d="m 330.7,205.4 c -0.7,-9.8 -5.2,-12.2 -12.8,-11.6 l -10.6,0.7 2,30.8 10,-0.7 c 8.2,-0.5 12.5,-2.9 11.8,-13.6 z"
     class="cls-3"
     id="path28" />
  <polygon
     points="739,237.2 740.2,190.5 720.4,232.8 "
     class="cls-3"
     id="polygon28"
     transform="translate(-114.2,-6)" />
  <path
     d="m 55.2,123.5 c 0,0 0.3,42.3 0.3,164.1 0,121.8 12.1,239.4 106.3,396.5 1.7,2.9 3.5,5.7 5.2,8.5 v -226 c -5.6,-8.7 -39.3,-60.8 -39.3,-60.8 v -85.3 l 7.1,-1.3 c 30.9,-5.8 52.6,-9.7 52.7,-9.7 l 10.6,-1.9 v 28.8 c 4.2,-0.7 9.1,-1.4 14.7,-2.3 v 0 c 11.6,-1.7 20.7,-2.8 27.5,-3.6 v -27.3 l 7.6,-1 c 54.5,-7.2 108.7,-8.7 108.9,-8.7 l 9.2,-0.3 v 30 c 6.9,-0.2 14.9,-0.3 19.7,-0.3 4.8,0 13.1,0.1 20.1,0.3 v -30 l 9.2,0.3 c 0.2,0 54.4,1.5 108.9,8.7 l 7.6,1 v 27.3 c 6.8,0.7 15.9,1.9 27.5,3.6 v 0 c 5.6,0.8 10.5,1.6 14.7,2.3 v -28.8 l 10.6,1.9 c 0,0 21.8,3.8 52.7,9.7 l 7.1,1.3 v 85.3 c 0,0 -36.4,56.2 -39.3,60.8 v 225 c 1.6,-2.5 3.1,-5 4.6,-7.5 94.2,-157 106.3,-274.6 106.3,-396.5 0,-121.9 0.5,-164.1 0.5,-164.1 L 385.6,55.9 55.2,123.4 Z m 108.3,143.4 c -17.8,4.2 -33.2,-4.5 -37.7,-23.7 l 17.6,-4.1 c 2.4,10.2 9.2,12.6 16.2,10.9 6.8,-1.6 10.9,-6.9 9.2,-14 -4.3,-18.5 -47.6,-18 -53.9,-44.7 -3.9,-16.7 4.9,-30.3 22.4,-34.4 16.8,-3.9 31.5,4.8 35.8,23.2 l -17.5,4.1 c -2.2,-9.4 -8.1,-12.2 -14.7,-10.7 -6.5,1.5 -10,6.4 -8.5,12.7 4.4,19 46.8,16.1 53.5,44.5 4.1,17.6 -3.8,31.8 -22.4,36.2 z m 65.2,-13 c -17.7,2.9 -32.1,-8 -35.1,-26.3 l -8,-48.6 c -3,-18.5 7.2,-33.4 24.9,-36.3 17.7,-2.9 32.3,8 35.3,26.4 l 0.9,5.7 -18,2.9 -1.1,-6.5 c -1.6,-9.8 -7.9,-12.3 -14.3,-11.2 -6.2,1 -11.5,5.2 -9.8,15.2 l 8.2,50 c 1.6,9.8 7.9,12.3 14.2,11.3 6,-1 11.6,-5.2 10,-15.2 l -1.3,-7.8 18,-2.9 1.2,7.2 c 3,18.3 -7.3,33.3 -25,36.2 z m 92.4,-12 -28.8,1.9 -7.3,-109.7 27.8,-1.9 c 17.9,-1.2 30.7,5.9 32,25.8 l 0.3,5.1 c 0.8,12 -2.8,18.5 -9.6,21.9 7.7,2.8 12.6,8.4 13.4,21.3 l 0.4,6.4 c 1.3,19.4 -10.5,27.9 -28.4,29.1 z m 320.5,-81.3 0.4,112.9 -18.1,-4.2 0.3,-22 -24.9,-5.8 -9.6,19.9 -18.1,-4.2 50.8,-101 19.1,4.5 z m -56.1,-12.1 -19.4,108.2 -18,-3.2 19.4,-108.2 z m -84.9,-12.8 55,7.3 -2.3,17.6 -18.5,-2.5 -12.1,91.3 -18.1,-2.4 12.1,-91.3 -18.4,-2.4 z m -74.1,74.4 18,1.3 c -0.7,10.4 5,14.7 12.2,15.3 7,0.5 12.4,-3.3 13,-10.6 1.4,-19 -40.1,-31.3 -38.1,-58.7 1.2,-17.1 13.7,-27.5 31.6,-26.2 17.3,1.2 28.7,13.9 27.3,32.8 l -17.9,-1.3 c 0.7,-9.6 -4.2,-14.1 -10.8,-14.5 -6.7,-0.5 -11.5,3.1 -11.9,9.6 -1.4,19.4 39.9,29.3 37.9,58.4 -1.3,18 -13,29.2 -32.2,27.9 -18.2,-1.3 -30.4,-14.2 -29,-33.8 z m -1,29.9 h -18.6 c 0,0 -4.6,-21.6 -4.6,-21.6 h -25.6 c 0,-0.1 -4.9,21.4 -4.9,21.4 h -18.6 c 0,0 27,-109.9 27,-109.9 h 19.6 c 0,0 25.6,110.1 25.6,110.1 z"
     class="cls-3"
     id="path29" />
  <path
     d="M 327.3,166.2 327,162 c -0.7,-11.2 -5.8,-12.6 -13.6,-12.1 l -9,0.6 2,29.6 10.3,-0.7 c 6.8,-0.5 11.4,-2.5 10.7,-13.2 z"
     class="cls-3"
     id="path30" />
  <path
     d="M 771.1,78.7 385.6,0 0,78.7 0.5,287.6 c -0.3,17.1 -0.2,33.5 0.4,49.5 0.3,10.6 0.9,21 1.6,31.2 1,15.3 2.4,30.1 4.2,44.5 1.8,14.4 3.9,28.4 6.5,42 1.5,8.3 3.2,16.4 5,24.5 0.4,1.8 0.8,3.7 1.2,5.5 1.8,7.7 3.7,15.4 5.7,22.9 6.9,25.6 15.2,50.2 24.7,74.3 1.6,4 3.2,8 4.9,12 5,12 10.3,23.8 15.9,35.6 1.9,3.9 3.8,7.9 5.7,11.8 11.6,23.6 24.4,47 38.3,70.9 22.8,39.2 49.1,74.2 76,104.7 1.8,2 3.6,4.1 5.4,6.1 6.3,7 12.7,13.8 19,20.3 2.7,2.8 5.4,5.5 8.1,8.2 1.8,1.8 3.6,3.6 5.4,5.4 2.7,2.7 5.5,5.3 8.2,7.9 2.7,2.5 5.3,5 8,7.5 12.5,11.5 24.8,22.1 36.5,31.7 3.4,2.7 6.7,5.4 10,8 1.6,1.3 3.3,2.6 4.9,3.8 3.2,2.5 6.4,4.9 9.5,7.3 1.6,1.2 3.1,2.3 4.6,3.5 4.6,3.4 9.1,6.6 13.4,9.7 2.9,2 5.7,4 8.4,5.9 4.1,2.8 8,5.5 11.7,7.9 1.2,0.8 2.5,1.6 3.7,2.4 2.4,1.6 4.7,3 6.9,4.4 2.2,1.4 4.3,2.7 6.3,4 4,2.5 7.7,4.7 10.8,6.5 4.8,2.8 8.5,4.8 11,6.2 1.3,0.7 2.2,1.2 2.9,1.5 0.7,-0.3 1.6,-0.8 2.9,-1.5 2.5,-1.3 6.3,-3.4 11,-6.2 3.2,-1.8 6.8,-4 10.8,-6.5 2,-1.2 4.1,-2.6 6.3,-4 2.2,-1.4 4.5,-2.9 6.9,-4.4 1.2,-0.8 2.4,-1.6 3.7,-2.4 3.7,-2.5 7.6,-5.1 11.7,-7.9 2.7,-1.9 5.5,-3.8 8.4,-5.9 4.3,-3.1 8.8,-6.3 13.4,-9.7 1.5,-1.1 3.1,-2.3 4.6,-3.5 3.1,-2.4 6.3,-4.8 9.5,-7.3 17.7,-13.8 37,-30 56.7,-48.5 3.6,-3.4 7.2,-6.8 10.8,-10.4 1.8,-1.8 3.6,-3.5 5.4,-5.4 3.6,-3.6 7.2,-7.3 10.9,-11.1 34.4,-35.7 68.8,-78.5 97.7,-128.2 9.3,-15.9 18.1,-31.7 26.3,-47.4 4.1,-7.9 8.1,-15.7 12,-23.6 1.9,-3.9 3.8,-7.9 5.7,-11.8 33.6,-70.8 56.4,-143.2 65.6,-231.3 1,-9.8 1.9,-19.8 2.6,-29.9 0.7,-10.2 1.2,-20.6 1.6,-31.2 0.5,-15.9 0.6,-32.4 0.4,-49.5 L 770.7,78.7 Z M 651.7,709.4 C 557.3,871.8 406.4,957.4 385.6,968.6 364.9,957.4 214,871.8 119.5,709.4 47.3,585.2 3.1,471.4 6.1,287.5 L 5.6,83.2 l 380,-77.5 380,77.6 -0.5,204.4 c 3,183.7 -41.2,297.6 -113.4,421.8 z"
     class="cls-1"
     id="path31" />
  <path
     d="M 749.7,96.2 385.6,21.8 21.5,96.2 22,287.5 v 0.2 c 0,0 0,0.2 0,0.2 -2.9,180.1 40.4,291.7 111.2,413.5 49.2,84.6 115.1,147.8 161.8,185.9 41.5,33.8 75.1,54.5 90.6,63.2 15.4,-8.8 49.1,-29.4 90.6,-63.2 C 522.8,849.2 588.7,786.1 638,701.4 708.8,579.6 752.2,467.9 749.2,287.9 v -0.2 c 0,0 0,-0.2 0,-0.2 z M 731.8,288 v 0.2 c 2.9,176 -39.5,285.3 -108.9,404.5 -47.9,82.4 -112.2,144 -157.7,181.1 -33.8,27.6 -62.1,46.1 -79.6,56.6 C 368.1,919.9 339.8,901.4 306,873.8 260.5,836.6 196.2,775.1 148.3,692.7 79,573.5 36.6,464.2 39.4,288.2 V 288 c 0,0 0,-0.2 0,-0.2 v -0.2 c 0,0 0,-0.2 0,-0.2 L 39,110.3 385.6,39.5 l 346.7,70.8 -0.4,177.1 v 0.2 c 0,0 0,0.2 0,0.2 v 0.2 z"
     class="cls-1"
     id="path32" />
  <path
     d="m 326.9,779.4 v 8 c 1.7,0.1 3.5,0 4.7,-0.5 v 38.3 h 8.3 v -49.8 h -7.6 c 0,3.1 -1.1,4 -5.4,4 z"
     class="cls-2"
     id="path33" />
  <path
     d="m 361.9,774.7 c -8.3,0 -13.8,5.8 -13.8,14.3 v 7.4 c 0,8 4,13.3 12.1,13.3 8.1,0 2.3,-0.1 3.5,-0.4 l -7.4,15.8 h 8.9 l 7.6,-16.9 c 1.8,-4 2.8,-7.8 2.8,-12.7 v -6.6 c 0,-8.6 -5.5,-14.3 -13.8,-14.3 z m 5.5,22.2 c 0,4.5 -2.4,5.9 -5.5,5.9 -3.1,0 -5.5,-1.3 -5.5,-5.9 v -7.3 c 0,-5.4 2.4,-6.9 5.5,-6.9 3.1,0 5.5,1.4 5.5,6.9 z"
     class="cls-2"
     id="path34" />
  <path
     d="m 396.1,774.7 c -8.1,0 -13.8,5.9 -13.8,14.4 v 22.4 c 0,8.4 5.7,14.3 13.8,14.3 8.1,0 13.9,-5.9 13.9,-14.3 v -22.4 c 0,-8.5 -5.7,-14.4 -13.9,-14.4 z m 5.6,36.7 c 0,4.9 -2.7,6.4 -5.6,6.4 -2.9,0 -5.5,-1.6 -5.5,-6.5 v -22.2 c 0,-4.9 2.5,-6.4 5.5,-6.4 3,0 5.6,1.6 5.6,6.4 z"
     class="cls-2"
     id="path35" />
  <path
     d="m 432.7,791.7 c -3.8,0 -6,1.8 -6.6,2.5 l 1.7,-10.9 h 14.4 v -8 h -21 l -3.9,25.7 7.8,1.3 c 0.6,-1.3 1.7,-3.8 5.2,-3.8 3.5,0 5.6,2.7 5.6,7.3 v 5.8 c 0,4.1 -2.3,6.3 -5.4,6.3 -3.1,0 -5.7,-1.6 -5.7,-6.3 h -8.3 c 0,8.5 5.7,14.3 13.8,14.3 8.1,0 13.9,-6.4 13.9,-16 v -4.2 c 0,-9.5 -4,-14 -11.5,-14 z"
     class="cls-2"
     id="path36" />
  <path
     d="m 132.5,186.3 c -1.5,-6.4 2,-11.2 8.5,-12.7 6.5,-1.5 12.5,1.2 14.7,10.7 l 17.5,-4.1 c -4.3,-18.4 -19,-27.1 -35.8,-23.2 -17.5,4.1 -26.3,17.7 -22.4,34.4 6.3,26.7 49.5,26.2 53.9,44.7 1.7,7.1 -2.4,12.4 -9.2,14 -7,1.6 -13.8,-0.8 -16.2,-10.9 l -17.6,4.1 c 4.5,19.1 20,27.8 37.7,23.7 18.7,-4.4 26.6,-18.5 22.4,-36.2 -6.6,-28.4 -49,-25.5 -53.5,-44.5 z"
     class="cls-2"
     id="path37" />
  <path
     d="m 252.6,210.5 -18,2.9 1.3,7.8 c 1.6,10 -4,14.2 -10,15.2 -6.3,1 -12.6,-1.4 -14.2,-11.3 l -8.2,-50 c -1.6,-10 3.7,-14.2 9.8,-15.2 6.5,-1.1 12.7,1.4 14.3,11.2 l 1.1,6.5 18,-2.9 -0.9,-5.7 c -3,-18.5 -17.6,-29.3 -35.3,-26.4 -17.7,2.9 -27.9,17.8 -24.9,36.3 l 8,48.6 c 3,18.3 17.4,29.2 35.1,26.3 17.7,-2.9 28,-17.9 25,-36.2 l -1.2,-7.2 z"
     class="cls-2"
     id="path38" />
  <path
     d="m 349,206.5 c -0.9,-12.9 -5.8,-18.5 -13.4,-21.3 6.8,-3.4 10.4,-9.9 9.6,-21.9 l -0.3,-5.1 c -1.3,-19.9 -14.1,-27 -32,-25.8 l -27.8,1.9 7.3,109.7 28.8,-1.9 c 17.9,-1.2 29.7,-9.6 28.4,-29.1 l -0.4,-6.4 z m -44.6,-56 9,-0.6 c 7.8,-0.5 12.9,0.9 13.6,12.1 l 0.3,4.2 c 0.7,10.7 -3.8,12.8 -10.7,13.2 l -10.3,0.7 -2,-29.6 z m 14.9,74.1 -10,0.7 -2,-30.8 10.6,-0.7 c 7.6,-0.5 12.2,1.8 12.8,11.6 l 0.4,5.6 c 0.7,10.7 -3.5,13 -11.8,13.6 z"
     class="cls-2"
     id="path39" />
  <path
     d="m 353.3,239.7 h 18.6 c 0,0 4.9,-21.4 4.9,-21.4 h 25.6 c 0,0.1 4.6,21.6 4.6,21.6 h 18.6 C 425.6,239.9 400,130 400,130 h -19.6 c 0,0 -27,109.7 -27,109.7 z m 46,-37.2 h -19.2 c 0,0 9.9,-45.7 9.9,-45.7 z"
     class="cls-2"
     id="path40" />
  <path
     d="m 455.5,243.9 c 19.1,1.4 30.9,-9.8 32.2,-27.9 2.1,-29.1 -39.3,-38.9 -37.9,-58.4 0.5,-6.5 5.3,-10.1 11.9,-9.6 6.7,0.5 11.5,4.9 10.8,14.5 l 17.9,1.3 c 1.4,-18.8 -10.1,-31.5 -27.3,-32.8 -17.9,-1.3 -30.4,9.1 -31.6,26.2 -2,27.4 39.5,39.7 38.1,58.7 -0.5,7.3 -6,11.1 -13,10.6 -7.2,-0.5 -12.9,-4.8 -12.2,-15.3 l -18,-1.3 c -1.4,19.6 10.8,32.5 29,33.8 z"
     class="cls-2"
     id="path41" />
  <polygon
     points="667.5,166.7 669.9,149 614.8,141.7 612.5,159.4 630.9,161.8 618.8,253.1 636.9,255.5 649,164.2 "
     class="cls-2"
     id="polygon41"
     transform="translate(-114.2,-6)" />
  <rect
     transform="rotate(-79.8)"
     height="18.200001"
     width="109.9"
     y="584.79144"
     x="-152.49265"
     class="cls-2"
     id="rect41" />
  <path
     d="m 589.8,261.4 9.6,-19.9 24.9,5.8 -0.3,22 18.1,4.2 -0.4,-112.9 -19.1,-4.5 -50.8,101 18.1,4.2 z m 36.2,-76.9 -1.1,46.6 -18.7,-4.4 19.8,-42.3 z"
     class="cls-2"
     id="path42" />
  <path
     d="m 443.1,548.3 c -0.6,-5 -3.3,-8.3 -4.6,-9.5 -0.3,0.4 -0.6,0.7 -1,1 v 0 c 0.6,3.7 3.5,13.9 9.7,19.1 -4.7,-2.6 -9.5,-11.7 -11,-18.2 -0.5,0.4 -1,0.6 -1.6,0.8 5.8,9.3 4.7,17.3 9.1,22.9 5.8,7 18.2,3.3 21.4,16.7 0.3,-2.7 0.3,-5.9 -0.2,-8.9 1.4,3.1 1.6,7.6 1.8,10.8 0,0.3 0,1.3 0,2.4 l 0.7,-1 c 0.5,-2.6 1,-6.8 0.3,-10.6 0.9,1.9 1.3,5.4 1.4,8.1 l 1.1,-1.6 c 0,-2 0,-4.1 -0.4,-6.2 0.6,1.2 1,3.1 1.2,4.9 l 2.1,-3 c 0.2,-3.1 -0.3,-12.4 -0.3,-12.4 -0.3,-1.9 -1.2,-4.7 -4.1,-6.1 -4.2,-2.5 -14.9,-4.2 -19.2,-10 -1.2,-1.9 -3.9,-5.9 -6.2,-8.7 -0.4,-0.2 -0.8,-0.5 -1.2,-0.8 1,2.1 1.5,4.9 1.3,6.9 -0.6,-4.6 -2.7,-7.1 -3.7,-8.1 -0.2,0.4 -0.5,0.9 -0.8,1.2 3.7,3.5 3.6,6.2 3.9,10.3 z"
     class="cls-2"
     id="path43" />
  <path
     d="m 431.6,539.1 c 0.6,1.6 7.3,-1 7.7,-6.2 0.4,-5.2 -4.2,-5.4 -4.8,-4.9 -0.9,0.9 1.1,1.8 0.9,5.2 -0.6,3.4 -4.5,3.7 -3.8,5.8 z"
     class="cls-2"
     id="path44" />
  <path
     d="m 362.5,495.6 c -10.8,-0.4 -34,-8.5 -36.9,-11 6,2 38.1,11.4 32,6.3 -6,-5 -39,-19.2 -41.5,-19.4 -0.4,-0.2 -1.3,-0.3 -1.5,0.8 -0.5,2.4 -4.4,4.5 -5.5,5 -2.2,1 -1.9,3.7 -1.3,4.3 0.2,1.1 4.6,4.6 5.2,5.1 -0.3,0 -1.5,-0.5 -3.7,-0.6 -2.5,-0.2 -2.8,1.6 -3,2 -0.2,0.4 -1.1,2.7 -0.4,3.7 0.5,1 6.1,3.9 6.1,3.9 l -6.2,-0.5 c 0,0 -1.1,0.7 -1.2,3.8 0,5.9 9,6.8 13.2,8.5 2.6,0.9 12.2,5.8 20.1,8.1 8,2.2 20.9,1.7 24.8,2.1 0,0 -2.9,1.5 -8.7,1.9 0.9,0.5 11.8,5.3 17.6,5.3 0.9,-1.3 5.5,-6.7 12,-8.6 10.3,-2.3 15.1,5.8 15.6,9 0.7,5.1 -1.4,9.5 -3.9,11.4 -2.5,1.9 -5,2.2 -7.2,6 -2.2,5.7 -5.1,12.2 -9.5,12.2 -4.4,0 -5.2,-1.8 -5.9,-2.8 0,0.4 0.6,4.5 6.4,4.9 5.7,0.3 9,-7.3 10.5,-10.9 1.5,-3.7 4.6,-5.3 6.6,-6.5 2.1,-1.2 4.5,-4.2 5.2,-6.1 0.6,-1.2 2.4,-1.7 4.6,-0.7 1.7,0.8 2.6,3 7.7,3.2 2.6,0.2 8.3,0 10.6,-1.2 -2.1,-3.1 -5.2,-0.5 -9,-2.2 -4.3,-1.4 -5.9,-3.1 -10,-3.2 4.2,-1.5 9.7,1.9 15.9,1.4 4,-0.1 4,3.4 8.7,3.7 0.6,0 2.5,-0.3 2.5,-2 -0.2,-6.5 -8.9,-9 -12.5,-11.4 -4.6,-2.5 -13,-12 -24.1,-14.8 -2.4,-0.5 -7.2,-1.5 -10.9,-3.3 0.9,0 4.3,0 6,-0.8 -4.1,-0.4 -10.3,-1.9 -14.6,-4.2 -5.2,-2.7 -10.7,-1.9 -13.7,-2 z m -32.2,10 c -7,-4.5 -16.4,-5.8 -22.3,-6.1 6.3,-0.2 13.4,-2.2 24.8,4.1 7.5,5.2 22.1,4 24.8,3.2 -3.7,2.9 -19.4,3.9 -27.4,-1.3 z m 61.4,3.5 c 9.2,1.3 16.9,5.3 24.7,11.1 4.6,3.5 11.9,5.5 12.8,10.1 -1.7,-2.5 -9.4,-6.2 -17,-6.5 -7.7,-0.3 -9.4,0.2 -11.2,-2.3 -5.2,-7 -21.8,-14.3 -29.5,-17 11.7,2.4 24.2,7.6 31.2,15.7 0.8,0.9 2.8,1.4 5.3,1.4 2.6,0 6.8,0.5 7.9,1.1 -1.3,-1.4 -11.7,-10 -24.2,-13.6 z"
     class="cls-2"
     id="path45" />
  <path
     d="m 381.4,537.5 c -1.5,1.4 -0.6,5.7 -2.3,5.7 -1.7,0 0,-2.3 -2.2,-2 -1.7,0.1 -1.7,3.9 1.4,4.6 4.4,0.8 4,-3 5,-6.1 0.5,-1.6 4.8,-1.5 4.8,-5.7 0,-4.2 -4.8,-3.9 -4.9,-2.5 0,1.3 2.2,1.1 2.2,2.5 0,1.4 -2.4,2.2 -3.9,3.7 z"
     class="cls-2"
     id="path46" />
  <path
     d="m 459.2,525.1 c -0.8,2 -6.2,6.1 -18.1,5.6 0,0.2 0,0.5 0.1,0.8 5.3,1.9 14.6,1.1 18.9,-2.2 -3.2,3.4 -10.1,5.9 -18.8,3.5 0,0.5 -0.1,1 -0.3,1.6 1.3,0.8 2.7,1.7 3.6,2.4 2.5,1.9 6.8,2.2 9.8,0.9 3,-1.3 12.1,-4.3 15,-9.3 2.5,-4.4 3.3,-7.1 4.6,-13.4 1.4,-6.2 17.1,-44 17.1,-44 -4.4,0.4 -15.9,1.4 -15.9,1.4 -0.7,1.8 -4.6,8.6 -12.3,6.2 2.4,8.1 1.3,22.7 -1.1,27 0.8,-3.3 2.2,-21.7 -0.8,-28.3 -0.9,-0.9 -1.3,-1.6 -1.4,-3.4 0,-1.8 2.2,-4.8 6.3,-5.2 4,-0.4 9,0 8.9,-3 0,-3.1 -4.2,-2.8 -5.4,-2.8 -8.6,0 -10.7,10.3 -20.6,9.1 0,0 7.3,25.3 8,27.3 0.9,2.3 5.4,30.8 -16.3,29.6 0,0.1 0.1,0.3 0.2,0.5 3.8,0.7 14.3,0.6 18.6,-4.2 z m 21.6,-49.7 c -2.5,0 -4.1,-0.1 -6,2.5 1.3,-3.6 4.4,-3 6,-2.5 z m -7.6,5.2 c 0,0 -1.9,7.9 1.4,12.6 -3,-0.8 -4.1,-9 -1.4,-12.6 z"
     class="cls-2"
     id="path47" />
  <path
     d="m 393.6,530.8 c 0.6,-1.8 1.9,-7.2 -2.9,-10.2 -5.6,-3.4 -15.7,4.2 -16.2,7.9 0,3.5 9.2,-9.2 14.8,-5.6 3.7,2.4 1.9,8 1.4,9.5 -0.2,2.2 2.2,0.6 2.9,-1.6 z"
     class="cls-2"
     id="path48" />
  <path
     d="m 435.5,634 c 1.1,8.2 6.3,9.5 9.6,8.6 -3,-1.4 -5.9,-4.8 -6.2,-5.8 1.1,1.7 4.9,4.4 8.1,4.9 0,0 0.1,0 0.2,-0.1 0.3,-0.3 0.6,-0.6 0.9,-0.9 -3.3,-0.8 -7.1,-5.1 -7.3,-6.2 1.1,1.7 4.9,4.5 8.2,4.9 0.2,-0.3 0.3,-0.7 0.5,-1 -3.3,-0.8 -7,-5.1 -7.3,-6.2 1,1.6 4.6,4.2 7.7,4.8 1.2,-5.3 -1.6,-11.9 -1.9,-14.2 l -12.6,11.4 z"
     class="cls-2"
     id="path49" />
  <path
     d="m 445.1,605 c 0.9,0.8 6.2,13.9 6.8,26.3 0.7,-2.4 1.6,-7.3 0.9,-11.8 1,2.4 1.2,7 1.2,9.6 0.3,-0.3 0.5,-0.6 0.8,-0.9 0.6,-2.6 1.1,-6.6 0.6,-10.3 0.9,2.1 1.1,5.9 1.2,8.6 0.5,-0.5 1,-0.9 1.5,-1.4 0.4,-2.5 0.7,-5.7 0.2,-8.8 0.8,1.8 1.1,4.9 1.2,7.5 0.6,-0.5 1.1,-1 1.6,-1.4 0.3,-2.4 0.5,-5.2 0,-7.9 0.7,1.6 1.1,4.4 1.2,6.9 0.7,-0.5 1.3,-1 1.9,-1.4 0,-2.1 0,-4.3 -0.5,-6.5 0.7,1.4 1.2,3.6 1.5,5.8 0.5,-0.3 1,-0.6 1.4,-0.8 0,-2.6 0.9,-14.4 4.1,-19.9 3.2,-4.9 7,-11.1 3.7,-19.7 -5.3,5.9 -9.3,18.7 -29.4,26.3 z"
     class="cls-2"
     id="path50" />
  <path
     d="m 448.9,469.6 c 0.4,0.1 0.8,0.2 1.3,0.2 7.2,-0.4 9.7,-8.7 17.5,-9.3 v -4.4 c -3.4,3.1 -13.8,5.6 -16.8,6 -3.8,0.5 -5.1,1.8 -5.2,3.2 0,0.4 0.1,0.9 0.3,1.4 1.3,-1 2.6,-1.9 4.9,-2.2 -2,0.7 -3.5,2.3 -4.3,3.3 0.3,0.4 0.6,0.8 1,1.1 1,-1.1 3.4,-2.8 5.2,-3 -1.6,0.8 -3.1,2.5 -3.9,3.7 z"
     class="cls-2"
     id="path51" />
  <path
     d="m 467.7,451.3 c 0,-4.4 -6.9,-3.3 -8.1,-2.9 v 8.9 c 0,0 8.2,-2 8.1,-6 z"
     class="cls-2"
     id="path52" />
  <path
     d="m 493,466.8 c 0,-1.6 -3.5,-4.4 -4.8,-4.4 0.7,2.9 -0.7,5.9 -1.1,6.3 0,0 5.9,-0.4 5.9,-1.9 z"
     class="cls-2"
     id="path53" />
  <path
     d="m 385.6,743.5 v 0 c -5.6,-3 -11.2,-6.2 -16.7,-9.7 5.6,3.5 11.2,6.7 16.7,9.7 z"
     class="cls-2"
     id="path54" />
  <path
     d="m 343.9,716.6 c -8.3,-6.3 -16.5,-13.3 -24.5,-21 8.1,7.7 16.3,14.6 24.5,21 z"
     class="cls-2"
     id="path55" />
  <path
     d="m 313.2,519.3 c -2.2,2.2 1.4,5.6 1.4,5.6 -1.6,1 -1.4,7.9 1.4,8.1 2.8,0.5 4.1,-2.5 3.9,-4.7 1.1,0.9 4.9,2.7 6.9,3 -5.5,0.4 -8.9,4 -7.1,5.7 1.7,-4.1 11.8,-2.9 11.8,-7.5 -10.8,-1.3 -16.3,-7.8 -18.2,-10.3 z"
     class="cls-2"
     id="path56" />
  <path
     d="m 312.4,387.5 c 7.6,-1.5 15.4,-2.8 23.4,-3.8 -8,1 -15.8,2.3 -23.4,3.8 z"
     class="cls-2"
     id="path57" />
  <path
     d="m 234.5,438.5 c 0.7,44.4 9.7,105.8 44.6,167.1 27.3,48.4 62.2,84.9 106.5,111.3 44.3,-26.4 79.2,-63 106.5,-111.3 C 526.9,544.2 536,482.8 536.7,438.5 492,415.7 440,403.7 385.6,403.7 c -54.4,0 -106.4,12 -151.1,34.8 z m 160.7,6.3 c 1.4,0.3 9.3,0.3 9.3,0.3 l 0.5,3.1 c 1.6,0.8 11.1,4.4 13.8,5.8 2.3,1.1 6.3,0.2 8.9,2.5 0,0.1 -1.2,3.2 -1.2,3.2 1.1,0.4 3.1,0.7 5,5.3 1.9,4.6 5.4,7.8 7.5,8.5 2.1,0.7 4.7,1.3 5,2.5 l -3.5,3.9 7.3,7.2 -2.1,3.6 c 0.1,1.2 0.4,6.7 1.5,8.2 1.1,1.4 2.7,1.2 3.2,3.5 0.2,1.1 -0.2,1.9 -1.2,2.2 -1,0.4 -4,1.2 -4,1.7 0,0.5 3.9,5 4,5.4 -1.1,1.2 -6.1,2.2 -8.1,2.4 0.3,2.9 2,7.2 3.2,8.3 1.2,1.1 -2.1,2.8 -6.5,1.1 0.1,1 0.6,1.9 1,2.9 2.3,0.5 7.6,0.9 11,-2.4 4.2,-3.8 7.2,-14.4 4,-25.2 -1,-3.3 -7.9,-27.3 -9.1,-29.3 -1.3,-1.3 -1.5,-2.6 -1.6,-3.9 -0.2,-2.2 1.7,-4.7 6.2,-5.4 4.5,-0.7 7.9,-2 7.9,-2 v -11.7 c 3.2,-0.6 12.3,-2.5 12.6,4.9 0,0.3 0,9.2 0,9.2 1.6,0 7,0.5 7.1,5.1 0.2,3.8 -3.7,4.5 -5.9,4.7 -2.3,0.2 -9.4,0 -9.2,4.3 0.2,2.1 3.2,2.3 4,2.3 2.7,0 5.4,-2 7.2,-6.3 l 10.8,-1.4 c 0,0 2.1,-2.1 2.1,-4.6 0.2,-2.1 -1,-3.7 -0.6,-4.4 0.5,-0.7 1.7,-0.6 2.9,-0.2 1.1,0.5 7,3.4 6.7,6.8 -0.3,3.4 -15.3,34.6 -19,48.5 -0.9,3.3 -2.4,13.1 -8,18.1 -4.2,3.3 -14,6.7 -15.9,7.2 -1.9,0.4 -2.7,0.3 -4.2,0 1.1,1.9 2.6,4.5 3.8,5.9 3.9,4.4 11.6,4.9 18.8,9.2 2.9,1.9 4.7,4.2 4.7,7.6 0,3.4 0.3,13.1 0.3,13.1 1.7,2.1 3,5.7 2.4,10.7 -0.6,5.7 -4.3,10.9 -5.8,13.3 -2.2,3.9 -3.2,13.3 -3.4,18.9 -2.7,2.5 -11.7,7.7 -16.1,16.2 -0.3,2.2 -2.5,9.9 -9.8,9.8 -7.3,-0.2 -9.5,-8.5 -9.7,-10.9 0,-0.7 0.3,-1.3 0.6,-1.7 0.7,-0.6 13.9,-13 13.9,-13 -0.3,-2.8 -3.1,-11.8 -5.1,-15.5 1.9,-1.3 15.1,-5.3 21.4,-15.1 -0.4,-4.3 -1.3,-9.7 -4.1,-13.4 -2.9,-3.7 -13,-3.1 -18.3,-10.5 -5.1,-7 -3.4,-13.8 -9.2,-23.4 -0.8,0 -1.6,-0.4 -2.1,-0.9 -0.9,2 -0.9,3.3 -0.9,3.9 -0.2,2 0,2.9 1.1,4.7 1.1,1.8 1.6,3.9 1.9,5 -1.5,0.4 -7.5,0.6 -7.9,0.6 -0.4,0 4.1,5.3 5.2,6.7 1,1.4 -0.2,1.7 -0.7,1.8 -0.5,0.1 -5.2,0.8 -5.2,0.8 0.4,3.4 5.2,23 17.4,33.3 0.8,0.8 0.1,1.1 0,1.3 -0.2,0.2 -12.7,6.4 -18,12.3 -14.6,13.8 -28.2,47.6 -58.2,38.7 -5.2,-31.5 -21.4,-21.9 -25.8,-40.2 -16.6,4.2 -33.5,1.9 -35.2,-8.5 -0.8,-5.8 3.5,-7.3 0,-15.9 -2.2,0 -7.8,0.2 -8.4,-3.8 -0.5,-3.2 0,-3.8 1,-6.1 -1.5,-0.7 -4.4,-2.8 -4.4,-5.8 0,-4 5.2,-4.5 5.3,-7.5 0.1,-3 0,-3 0,-3 -2.2,0 -6.1,0 -6.1,0 -1.6,-0.1 -4.9,-0.9 -5.1,-5.5 -0.1,-2.3 1.1,-5.2 2.1,-7 1.6,-3.4 12.9,-24.1 13.1,-24.5 0.2,-0.5 0.2,-1.9 0,-2.6 -0.4,-0.8 -1.3,-3 -1.4,-5.3 -0.1,-2.3 1.7,-8.8 2.3,-10.2 0.4,-1.1 -0.1,-2.1 -0.4,-2.5 -0.5,-0.7 -1.1,-2.9 -1,-4.6 0,-1.1 1.2,-3 1,-5.2 -0.3,-2.5 0.7,-4 2.3,-5.4 1.1,-0.9 1,-2.3 1,-2.6 0,-1 -0.6,-1.4 -0.6,-2.5 0,-1.1 0.6,-4.5 1.6,-5.4 2,-2 4.9,-2.3 5.2,-5 0.1,-1.1 0.8,-4.1 2.3,-6.4 1.4,-2.3 3.4,-3.6 3.4,-6.2 0,-1.7 0,-2.7 0,-2.7 h 4.1 c 0.9,-1.5 3.6,-3.9 6.7,-5.2 3.1,-1.2 6.9,-2.7 8.4,-3.8 1.6,-1.1 4.4,-5.2 4.4,-5.2 l 4.4,2.2 c 3.8,-1.9 14.1,-1.1 16.4,-7.4 0.2,-0.9 2.1,-1.5 2.4,0.5 0.2,1.6 0.4,3.8 0.4,3.8 1.9,-1.1 10.3,-2.2 19.4,0.9 3.1,0.7 2.8,-0.4 4.4,-0.2 1.6,0.1 3.5,3.2 7.2,3.6 z"
     class="cls-2"
     id="path58" />
  <path
     d="m 385.6,380.5 c -8.6,0 -17.1,0.3 -25.4,0.8 8.3,-0.5 16.8,-0.8 25.4,-0.8 z"
     class="cls-2"
     id="path59" />
  <path
     d="m 221.7,430.8 c -0.3,64.6 15.6,127.1 46.3,181.1 29.7,52.7 68.3,91.9 117.6,119.8 49.4,-27.9 87.9,-67.1 117.6,-119.8 30.7,-54 46.6,-116.5 46.3,-181.1 -48.1,-26.1 -104.6,-39.9 -163.9,-39.9 -59.3,0 -115.8,13.8 -163.9,39.9 z m 318.4,5.6 v 2.1 c -0.7,42 -9.1,105.4 -45,168.8 -27.7,49 -62.9,85.8 -107.8,112.6 l -1.7,1 -1.7,-1 C 339,693.1 303.8,656.3 276.1,607.3 c -36,-63.4 -44.3,-126.8 -45,-168.8 v -2.1 c 0,0 1.9,-1 1.9,-1 45.2,-23 97.9,-35.2 152.7,-35.2 54.8,0 107.5,12.2 152.7,35.2 l 1.9,1 z"
     class="cls-2"
     id="path60" />
  <path
     d="m 335.8,383.7 c 8,-1 16.1,-1.8 24.4,-2.4 -8.3,0.5 -16.4,1.3 -24.4,2.4 z"
     class="cls-2"
     id="path61" />
  <path
     d="m 458.8,387.5 c -22.9,-4.5 -47.3,-7 -73.2,-7 v 0 c -8.6,0 -17.1,0.3 -25.4,0.8 -8.3,0.5 -16.4,1.3 -24.4,2.4 -8,1 -15.8,2.3 -23.4,3.8 -38.1,7.5 -71.9,20.6 -101,37.2 -1.2,58.6 10.3,126.7 47.5,192.4 18.4,32.5 38.9,58.1 60.4,78.6 8.1,7.7 16.3,14.6 24.5,21 8.2,6.4 16.6,12.1 25,17.2 5.6,3.5 11.2,6.7 16.7,9.7 v 0 c 5.6,-3 11.2,-6.2 16.7,-9.7 2.8,-1.7 5.6,-3.5 8.4,-5.4 22.3,-14.8 44.3,-33.6 64.9,-58.2 12.9,-15.4 25.2,-33 36.7,-53.3 37.3,-65.7 48.7,-133.8 47.5,-192.4 -29.1,-16.6 -62.9,-29.7 -101,-37.2 z m 44.4,224.4 C 473.5,664.6 434.9,703.8 385.6,731.7 336.2,703.8 297.7,664.6 268,611.9 c -30.7,-54 -46.6,-116.5 -46.3,-181.1 48.1,-26.1 104.6,-39.9 163.9,-39.9 59.3,0 115.8,13.8 163.9,39.9 0.3,64.6 -15.6,127.1 -46.3,181.1 z"
     class="cls-1"
     id="path62" />
  <path
     d="m 232.9,435.4 -1.9,1 v 2.1 c 0.7,42 9.1,105.4 45,168.8 27.7,49 62.9,85.8 107.8,112.6 l 1.7,1 1.7,-1 c 44.9,-26.8 80.1,-63.6 107.8,-112.6 36,-63.4 44.3,-126.8 45,-168.8 v -2.1 c 0,0 -1.9,-1 -1.9,-1 -45.2,-23 -97.9,-35.2 -152.7,-35.2 -54.8,0 -107.5,12.2 -152.7,35.2 z M 492.1,605.6 C 464.8,654 429.9,690.5 385.6,716.9 341.3,690.5 306.4,653.9 279.1,605.6 244.3,544.2 235.2,482.8 234.5,438.5 c 44.7,-22.8 96.7,-34.8 151.1,-34.8 54.4,0 106.4,12 151.1,34.8 -0.7,44.4 -9.7,105.8 -44.6,167.1 z"
     class="cls-1"
     id="path63" />
  <path
     d="m 474.6,493.3 c -3.4,-4.8 -1.4,-12.6 -1.4,-12.6 -2.7,3.7 -1.6,11.9 1.4,12.6 z"
     class="cls-1"
     id="path64" />
  <path
     d="m 480.8,475.4 c -1.5,-0.5 -4.7,-1.1 -6,2.5 1.8,-2.6 3.4,-2.4 6,-2.5 z"
     class="cls-1"
     id="path65" />
  <path
     d="m 332.8,503.7 c -11.5,-6.3 -18.6,-4.3 -24.8,-4.1 5.9,0.3 15.3,1.6 22.3,6.1 8,5.2 23.7,4.2 27.4,1.3 -2.8,0.8 -17.4,2 -24.8,-3.2 z"
     class="cls-1"
     id="path66" />
  <path
     d="m 402.7,520.2 c -7,-8 -19.5,-13.3 -31.2,-15.7 7.7,2.7 24.3,10 29.5,17 1.8,2.5 3.5,2 11.2,2.3 7.7,0.3 15.3,3.9 17,6.5 -0.9,-4.6 -8.2,-6.6 -12.8,-10.1 -7.9,-5.9 -15.5,-9.9 -24.7,-11.1 12.5,3.7 23,12.2 24.2,13.6 -1.1,-0.6 -5.3,-1.2 -7.9,-1.1 -2.5,0 -4.5,-0.5 -5.3,-1.4 z"
     class="cls-1"
     id="path67" />
  <path
     d="m 383.6,441.4 c -9.2,-3.1 -17.5,-2.1 -19.4,-0.9 0,0 -0.1,-2.2 -0.4,-3.8 -0.4,-1.9 -2.2,-1.4 -2.4,-0.5 -2.3,6.2 -12.6,5.4 -16.4,7.4 l -4.4,-2.2 c 0,0 -2.9,4.1 -4.4,5.2 -1.5,1.1 -5.3,2.5 -8.4,3.8 -3.1,1.3 -5.9,3.7 -6.7,5.2 H 317 c 0,0 0,1 0,2.7 0,2.7 -1.9,4 -3.4,6.2 -1.5,2.3 -2.2,5.2 -2.3,6.4 -0.3,2.7 -3.2,3 -5.2,5 -1,0.9 -1.6,4.3 -1.6,5.4 0,1.1 0.7,1.4 0.6,2.5 0,0.3 0.1,1.7 -1,2.6 -1.5,1.4 -2.5,2.9 -2.3,5.4 0.3,2.1 -0.9,4 -1,5.2 -0.2,1.7 0.5,3.9 1,4.6 0.2,0.4 0.8,1.4 0.4,2.5 -0.5,1.4 -2.3,7.9 -2.3,10.2 0,2.3 0.9,4.5 1.4,5.3 0.3,0.6 0.3,2.1 0,2.6 -0.2,0.4 -11.5,21.1 -13.1,24.5 -0.9,1.8 -2.2,4.7 -2.1,7 0.2,4.6 3.4,5.4 5.1,5.5 0,0 4,0 6.1,0 0,0 0,0 0,3 -0.1,3 -5.3,3.5 -5.3,7.5 0,3.1 2.9,5.1 4.4,5.8 -1,2.3 -1.5,2.9 -1,6.1 0.6,4 6.2,3.8 8.4,3.8 3.5,8.5 -0.8,10.1 0,15.9 1.7,10.4 18.6,12.7 35.2,8.5 4.5,18.3 20.6,8.7 25.8,40.2 30,8.9 43.5,-24.9 58.2,-38.7 5.3,-5.8 17.8,-12 18,-12.3 0.2,-0.2 0.9,-0.5 0,-1.3 -12.2,-10.3 -17,-30 -17.4,-33.3 0,0 4.7,-0.6 5.2,-0.8 0.5,0 1.7,-0.4 0.7,-1.8 -1.2,-1.4 -5.7,-6.7 -5.2,-6.7 0.5,0 6.4,-0.1 7.9,-0.6 -0.2,-1.1 -0.8,-3.2 -1.9,-5 -1,-1.8 -1.2,-2.7 -1.1,-4.7 0,-0.6 0,-1.8 0.9,-3.9 0.5,0.6 1.3,0.9 2.1,0.9 5.9,9.7 4.2,16.4 9.2,23.4 5.3,7.4 15.4,6.7 18.3,10.5 2.9,3.8 3.8,9.2 4.1,13.4 -6.3,9.7 -19.5,13.7 -21.4,15.1 1.9,3.7 4.8,12.7 5.1,15.5 0,0 -13.1,12.3 -13.9,13 -0.4,0.4 -0.7,1 -0.6,1.7 0.2,2.5 2.5,10.8 9.7,10.9 7.3,0.1 9.5,-7.5 9.8,-9.8 4.4,-8.5 13.3,-13.8 16.1,-16.2 0.2,-5.6 1.1,-15 3.4,-18.9 1.5,-2.4 5.1,-7.6 5.8,-13.3 0.6,-4.9 -0.6,-8.6 -2.4,-10.7 0,0 -0.2,-9.7 -0.3,-13.1 0,-3.4 -1.8,-5.7 -4.7,-7.6 -7.2,-4.2 -15,-4.8 -18.8,-9.2 -1.2,-1.4 -2.7,-4 -3.8,-5.9 1.4,0.3 2.3,0.4 4.2,0 1.9,-0.5 11.7,-3.8 15.9,-7.2 5.6,-5 7.1,-14.9 8,-18.1 3.7,-14 18.7,-45.2 19,-48.5 0.3,-3.4 -5.6,-6.3 -6.7,-6.8 -1.1,-0.5 -2.4,-0.5 -2.9,0.2 -0.4,0.7 0.7,2.2 0.6,4.4 0,2.5 -2.1,4.6 -2.1,4.6 l -10.8,1.4 c -1.7,4.3 -4.5,6.3 -7.2,6.3 -0.8,0 -3.9,-0.2 -4,-2.3 -0.2,-4.4 6.9,-4.1 9.2,-4.3 2.3,-0.2 6.1,-0.9 5.9,-4.7 -0.1,-4.6 -5.5,-5.1 -7.1,-5.1 0,0 0,-8.9 0,-9.2 -0.3,-7.4 -9.5,-5.5 -12.7,-4.9 v 11.7 c 0,0 -3.3,1.3 -7.8,2 -4.5,0.7 -6.4,3.1 -6.2,5.4 0.2,1.3 0.4,2.6 1.6,3.9 1.2,2 8.2,26 9.1,29.3 3.2,10.8 0.2,21.4 -4,25.2 -3.4,3.3 -8.7,2.9 -11,2.4 -0.5,-0.9 -0.9,-1.8 -1,-2.9 4.4,1.7 7.7,0 6.5,-1.1 -1.3,-1.1 -2.9,-5.4 -3.2,-8.3 2,-0.1 7,-1.1 8.1,-2.4 -0.2,-0.4 -4,-4.9 -4,-5.4 0,-0.5 3,-1.4 4,-1.7 1.1,-0.4 1.4,-1.1 1.2,-2.2 -0.5,-2.2 -2,-2.1 -3.2,-3.5 -1.2,-1.4 -1.4,-6.9 -1.5,-8.2 l 2.1,-3.6 -7.3,-7.2 3.5,-3.9 c -0.3,-1.2 -2.9,-1.8 -5,-2.5 -2.1,-0.7 -5.6,-3.9 -7.5,-8.5 -1.9,-4.6 -3.9,-4.9 -5,-5.3 0,0 1.2,-3 1.2,-3.2 -2.6,-2.3 -6.6,-1.4 -8.9,-2.5 -2.7,-1.4 -12.3,-5 -13.8,-5.8 l -0.5,-3.1 c 0,0 -8,0 -9.3,-0.3 -3.7,-0.4 -5.6,-3.5 -7.2,-3.6 -1.6,-0.1 -1.3,0.9 -4.4,0.2 z m -63.9,95.7 c -1.8,-1.8 1.6,-5.3 7.1,-5.7 -2.1,-0.3 -5.8,-2.1 -6.9,-3 0.2,2.2 -1.1,5.2 -3.9,4.7 -2.8,-0.2 -2.9,-7.1 -1.4,-8.1 0,0 -3.7,-3.4 -1.4,-5.6 1.9,2.5 7.5,9 18.2,10.3 0,4.6 -10,3.4 -11.8,7.5 z M 450,636.8 c -3.1,-0.6 -6.7,-3.2 -7.7,-4.8 0.2,1.1 4,5.4 7.3,6.2 -0.1,0.3 -0.3,0.7 -0.5,1 -3.2,-0.4 -7.1,-3.2 -8.2,-4.9 0.2,1.1 4,5.4 7.3,6.2 -0.3,0.3 -0.6,0.6 -0.9,0.9 0,0 -0.1,0 -0.2,0.1 -3.2,-0.5 -7.1,-3.2 -8.1,-4.9 0.2,1 3.2,4.5 6.2,5.8 -3.3,0.9 -8.5,-0.3 -9.6,-8.6 l 12.6,-11.4 c 0.2,2.2 3,8.8 1.9,14.2 z m 20.8,-38.4 c -3.3,5.5 -4.1,17.3 -4.1,19.9 -0.4,0.2 -0.9,0.5 -1.4,0.8 -0.3,-2.2 -0.7,-4.4 -1.5,-5.8 0.5,2.2 0.6,4.4 0.5,6.5 -0.6,0.4 -1.2,0.9 -1.9,1.4 -0.1,-2.4 -0.4,-5.2 -1.2,-6.9 0.4,2.7 0.2,5.5 0,7.9 -0.5,0.5 -1.1,0.9 -1.6,1.4 0,-2.6 -0.4,-5.7 -1.2,-7.5 0.5,3 0.2,6.2 -0.2,8.8 -0.5,0.5 -1,0.9 -1.5,1.4 0,-2.7 -0.3,-6.5 -1.2,-8.6 0.5,3.7 0,7.7 -0.6,10.3 -0.3,0.3 -0.6,0.6 -0.8,0.9 0,-2.6 -0.2,-7.2 -1.2,-9.6 0.6,4.5 -0.2,9.4 -0.9,11.8 -0.6,-12.4 -6,-25.5 -6.8,-26.3 20.1,-7.6 24.1,-20.3 29.4,-26.3 3.3,8.6 -0.5,14.9 -3.7,19.7 z m 17.4,-136 c 1.3,0 4.8,2.9 4.8,4.4 0,1.5 -5.9,1.9 -5.9,1.9 0.4,-0.4 1.8,-3.4 1.1,-6.3 z m -28.6,-14 c 1.2,-0.4 8,-1.5 8.1,2.9 0.1,4 -8.1,6 -8.1,6 z m -12.9,19.5 c 0.8,-1 2.3,-2.6 4.3,-3.3 -2.3,0.3 -3.7,1.1 -4.9,2.2 -0.2,-0.5 -0.3,-1 -0.3,-1.4 0,-1.4 1.3,-2.7 5.2,-3.2 2.9,-0.4 13.4,-2.9 16.8,-6 v 4.4 c -7.8,0.6 -10.3,8.8 -17.5,9.3 -0.5,0 -0.9,-0.1 -1.3,-0.2 0.8,-1.2 2.3,-2.9 3.9,-3.7 -1.7,0.3 -4.2,1.9 -5.2,3 -0.4,-0.3 -0.7,-0.7 -1,-1.1 z m 10,31.3 c -0.6,-2 -8,-27.3 -8,-27.3 9.9,1.2 12,-9.1 20.6,-9.1 1.3,0 5.4,-0.3 5.4,2.8 0,3.1 -4.9,2.6 -8.9,3 -4.1,0.4 -6.3,3.4 -6.3,5.2 0,1.8 0.5,2.5 1.4,3.4 3,6.6 1.6,25 0.8,28.3 2.4,-4.2 3.4,-18.9 1.1,-27 7.7,2.4 11.6,-4.4 12.3,-6.2 0,0 11.5,-0.9 15.9,-1.4 0,0 -15.8,37.8 -17.1,44 -1.4,6.2 -2.2,9 -4.6,13.4 -2.8,5 -12,8 -15,9.3 -3,1.3 -7.3,1 -9.8,-0.9 -0.9,-0.7 -2.3,-1.6 -3.6,-2.4 0.1,-0.6 0.2,-1.1 0.3,-1.6 8.7,2.4 15.6,-0.1 18.8,-3.5 -4.2,3.3 -13.5,4.1 -18.9,2.2 0,-0.3 0,-0.5 -0.1,-0.8 11.9,0.6 17.3,-3.6 18.1,-5.6 -4.3,4.7 -14.8,4.9 -18.6,4.2 0,-0.2 -0.1,-0.4 -0.2,-0.5 21.6,1.2 17.2,-27.3 16.3,-29.6 z m -13,45.6 c 0.2,-2 -0.4,-4.8 -1.3,-6.9 0.4,0.3 0.8,0.5 1.2,0.8 2.2,2.8 4.9,6.8 6.2,8.7 4.3,5.8 15,7.6 19.2,10 2.9,1.4 3.8,4.1 4.1,6.1 0,0 0.5,9.3 0.3,12.4 l -2.1,3 c -0.2,-1.9 -0.6,-3.7 -1.2,-4.9 0.4,2.1 0.4,4.2 0.4,6.2 l -1.1,1.6 c -0.1,-2.7 -0.5,-6.2 -1.4,-8.1 0.7,3.8 0.2,8 -0.3,10.6 l -0.7,1 c 0,-1 -0.1,-2.1 0,-2.4 -0.1,-3.2 -0.4,-7.7 -1.8,-10.8 0.5,3 0.5,6.2 0.2,8.9 -3.2,-13.4 -15.7,-9.7 -21.4,-16.7 -4.5,-5.5 -3.4,-13.5 -9.1,-22.9 0.5,-0.2 1.1,-0.4 1.6,-0.8 1.5,6.6 6.3,15.6 11,18.2 -6.2,-5.3 -9,-15.4 -9.7,-19.1 v 0 c 0.4,-0.3 0.7,-0.6 1,-1 1.3,1.2 3.9,4.4 4.6,9.5 -0.3,-4.1 -0.3,-6.8 -3.9,-10.3 0.3,-0.4 0.6,-0.8 0.8,-1.2 1,1 3.2,3.5 3.7,8.1 z M 434.5,528 c 0.5,-0.6 5.1,-0.4 4.8,4.9 -0.4,5.2 -7,7.8 -7.7,6.2 -0.7,-2.1 3.2,-2.4 3.8,-5.8 0.2,-3.4 -1.8,-4.4 -0.9,-5.2 z m -43.7,-26.1 c -1.7,0.8 -5.1,0.8 -6,0.8 3.7,1.8 8.5,2.8 10.9,3.3 11.1,2.7 19.5,12.2 24.1,14.8 3.6,2.4 12.3,4.9 12.5,11.4 0,1.7 -1.9,2 -2.5,2 -4.7,-0.2 -4.7,-3.8 -8.7,-3.7 -6.2,0.4 -11.8,-3 -15.9,-1.4 4.2,0.2 5.7,1.8 10,3.2 3.8,1.7 6.9,-0.9 9,2.2 -2.3,1.1 -8,1.4 -10.6,1.2 -5.1,-0.2 -6,-2.4 -7.7,-3.2 -2.2,-1 -4.1,-0.5 -4.6,0.7 -0.7,1.9 -3.2,4.9 -5.2,6.1 -2,1.1 -5.1,2.8 -6.6,6.5 -1.6,3.7 -4.8,11.3 -10.5,10.9 -5.7,-0.4 -6.5,-4.5 -6.4,-4.9 0.7,1 1.6,2.7 5.9,2.8 4.5,0 7.4,-6.5 9.5,-12.2 2.1,-3.8 4.6,-4.1 7.2,-6 2.5,-1.9 4.7,-6.4 3.9,-11.4 -0.5,-3.2 -5.3,-11.3 -15.6,-9 -6.6,2 -11.2,7.3 -12,8.6 -5.7,0 -16.7,-4.8 -17.6,-5.3 5.8,-0.4 8.7,-1.9 8.7,-1.9 -3.8,-0.4 -16.8,0.1 -24.8,-2.1 -8,-2.2 -17.6,-7.2 -20.1,-8.1 -4.2,-1.7 -13.3,-2.6 -13.2,-8.5 0.1,-3 1.2,-3.8 1.2,-3.8 l 6.2,0.5 c 0,0 -5.7,-2.8 -6.1,-3.9 -0.7,-1 0.2,-3.3 0.4,-3.7 0.2,-0.3 0.6,-2.2 3,-2 2.2,0.1 3.4,0.5 3.7,0.6 -0.6,-0.4 -5,-4 -5.2,-5.1 -0.6,-0.6 -0.8,-3.3 1.3,-4.3 1.1,-0.5 5.1,-2.5 5.5,-5 0.2,-1.1 1,-1 1.5,-0.8 2.5,0.2 35.5,14.4 41.5,19.4 6,5 -26,-4.3 -32,-6.3 2.9,2.5 26.1,10.6 36.9,11 3,0.1 8.5,-0.7 13.7,2 4.4,2.3 10.5,3.9 14.6,4.2 z m -1.6,21 c -5.5,-3.5 -14.8,9.2 -14.8,5.6 0.5,-3.7 10.7,-11.3 16.2,-7.9 4.9,3 3.6,8.4 2.9,10.2 -0.8,2.2 -3.2,3.7 -2.9,1.6 0.4,-1.5 2.3,-7.2 -1.4,-9.5 z m -6.1,8.4 c 0.1,-1.4 4.9,-1.9 4.9,2.5 0,4.4 -4.3,4.1 -4.8,5.7 -1,3.1 -0.6,6.9 -5,6.1 -3.1,-0.7 -3,-4.4 -1.4,-4.6 2.2,-0.2 0.5,2.1 2.2,2 1.7,0 0.8,-4.3 2.3,-5.7 1.5,-1.4 4,-2.2 3.9,-3.7 0,-1.4 -2.2,-1.1 -2.2,-2.5 z"
     class="cls-1"
     id="path68" />
</svg>
