<?xml version="1.0" encoding="UTF-8"?>
<!DOCTYPE svg PUBLIC "-//W3C//DTD SVG 1.1//EN" "http://www.w3.org/Graphics/SVG/1.1/DTD/svg11.dtd">
<!-- Creator: CorelDRAW 2019 (64-Bit) -->
<svg xmlns="http://www.w3.org/2000/svg" xml:space="preserve" width="187.702mm" height="187.702mm" version="1.1" style="shape-rendering:geometricPrecision; text-rendering:geometricPrecision; image-rendering:optimizeQuality; fill-rule:evenodd; clip-rule:evenodd"
viewBox="0 0 187.7024 187.7024"
 xmlns:xlink="http://www.w3.org/1999/xlink"
 xmlns:xodm="http://www.corel.com/coreldraw/odm/2003">
 <defs>
  <style type="text/css">
   <![CDATA[
    .fil0 {fill:#0066B1}
    .fil2 {fill:#DB042D}
    .fil1 {fill:white}
   ]]>
  </style>
 </defs>
 <g id="Layer_x0020_1">
  <metadata id="CorelCorpID_0Corel-Layer"/>
  <g id="_660730096">
   <path class="fil0" d="M93.8495 0c-51.8314,0 -93.8495,42.018 -93.8495,93.8496 0,51.8315 42.0181,93.8528 93.8495,93.8528 51.8322,0 93.8529,-42.0248 93.8529,-93.8528 0,-51.829 -42.0246,-93.8496 -93.8529,-93.8496z"/>
   <path class="fil1" d="M93.8495 4.6913c-49.2391,0 -89.1581,39.9193 -89.1581,89.1583 0,49.2387 39.919,89.1612 89.1581,89.1612 49.2383,0 89.1614,-39.9189 89.1614,-89.1612 0,-49.2429 -39.9193,-89.1583 -89.1614,-89.1583z"/>
   <path class="fil2" d="M93.8495 8.9159c-46.9082,0 -84.9334,38.028 -84.9334,84.9337 0,46.9047 38.0283,84.9366 84.9334,84.9366 46.9049,0 84.9369,-38.0253 84.9369,-84.9366 0,-46.9123 -38.0254,-84.9337 -84.9369,-84.9337zm0 137.9603l0 0c-14.0637,0 -27.5509,-5.5866 -37.4956,-15.5313 -9.9442,-9.9442 -15.5314,-23.4318 -15.5314,-37.4952 0,-14.0638 5.5872,-27.5509 15.5314,-37.4959 9.9447,-9.9443 23.4319,-15.5311 37.4956,-15.5311 14.0635,0 27.5511,5.5868 37.4952,15.5311 9.9442,9.945 15.5309,23.4321 15.5309,37.4959 0.0013,14.0639 -5.5854,27.5519 -15.5297,37.4961 -9.9445,9.9447 -23.4325,15.5315 -37.4964,15.5304z"/>
   <g>
    <path class="fil0" d="M47.2296 108.2649c2.1421,6.9549 5.8193,13.3399 10.7599,18.6832l0 -21.9938 -12.4356 -18.1667c-1.0546,7.1945 -0.4824,14.5337 1.6757,21.4773zm95.4359 -15.1304l0 0 0 1.4373c-0.031,2.121 -0.2008,4.2432 -0.511,6.3529l-12.432 -18.1632 0 -22.0137c4.9395,5.3443 8.6154,11.7289 10.7571,18.6831 1.3839,4.4526 2.1167,9.068 2.1859,13.7036zm-70.3331 32.5621l0 0 10.7701 15.7533c-3.7672,-0.8549 -7.4202,-2.1518 -10.8826,-3.864l0 -11.8395 -14.237 -20.7921 0 -25.2021 -6.6875 -9.7705c1.89,-3.3707 4.1726,-6.5063 6.8,-9.3398l0 19.0737 14.237 20.7956 0 25.1854zm14.3461 -29.6386l0 0 0 -25.1888 -14.237 -20.7917 0 25.198 14.237 20.7957 0 25.1823 14.2364 20.7958 0 -25.1992 -14.2364 -20.7921zm14.3454 -4.44l0 0 -14.2364 -20.7952 0 -25.1863 14.2364 20.7957 0 25.1991 14.2371 20.7957 0 25.1985 -14.2371 -20.7952 0 -25.2123zm-21.5996 -44.3886l0 0c-7.022,2.1651 -13.4621,5.8931 -18.8354,10.9058l11.7568 17.1734 0 25.199 14.2366 20.7922 0 20.812c14.7228,2.2098 29.6507,-2.4078 40.5546,-12.5445l-11.7568 -17.1735 0 -25.2025 -14.2365 -20.7952 0 -20.8117c-7.27,-1.0975 -14.6937,-0.5318 -21.7127,1.6554l-0.0066 -0.0104zm50.2982 60.731l0 0 0 -25.2086 -14.2364 -20.7957 0 -11.8368c-3.4635,-1.7128 -7.1179,-3.0124 -10.8862,-3.8662l10.7736 15.7396 0 25.1986 14.2365 20.7956 0 19.0737c2.6263,-2.833 4.9074,-5.967 6.7974,-9.3366l-6.6849 -9.7636z"/>
   </g>
   <path class="fil1" d="M37.0816 111.3938l2.4106 5.132 -3.9204 7.4096c-0.5895,1.1023 -1.0991,2.003 -1.0991,2.003l0.0528 0.0957c0,0 1.0362,0.0632 2.2812,0.1691l8.35 0.7515 2.9796 4.8173 -18.0442 10.542 -2.8834 -4.6356 7.5551 -4.3967c1.7614,-1.0198 3.0892,-1.7383 3.0892,-1.7383l-0.0529 -0.0957c0,0 -0.9104,-0.0662 -2.8143,-0.3477l-7.6843 -1.1422 -0.0531 -0.0962 3.2114 -7.0684c0.8014,-1.7485 1.2414,-2.5493 1.2414,-2.5493l-0.053 -0.0964c0,0 -1.3242,0.722 -3.1417,1.6555l-7.8004 3.9104 -2.3179 -4.9401 18.6934 -9.3795zm13.813 22.7755l0 0 -8.5552 10.184c-3.9333,4.6884 -1.884,9.0256 2.1753,12.2206 4.0592,3.1946 8.7536,4.1652 12.3791,-0.7485l7.9063 -10.7073 -4.5656 -3.1753 -7.7014 10.4463c-1.2847,1.718 -2.9864,2.0554 -5.0586,0.4236 -2.0729,-1.6325 -2.1423,-3.3605 -0.7715,-5.016l8.35 -9.9324 -4.1584 -3.695zm8.3198 6.7608l0 0 -5.1315 3.5856 -0.0865 -0.0698 2.2884 -5.827 2.9296 2.3112zm8.8006 5.9991l0 0 5.4299 1.9867 3.0687 10.4819c0.6626,2.268 0.9339,3.4665 0.9339,3.4665l0.1589 0.0464c0,0 0.3544,-1.5596 0.8743,-3.4665l2.2281 -8.3399 5.2975 1.2547 -5.3967 20.1965 -5.6286 -1.3508 -3.4863 -10.9591c-0.6623,-2.1289 -0.9603,-3.4766 -0.9603,-3.4766l-0.1588 -0.0464c0,0 -0.4669,1.6553 -1.0559,3.4136l-2.8479 8.4991 -5.1152 -1.8875 6.6584 -19.8186zm40.6536 18.0808l0 0c0.116,4.966 -2.9797,8.3566 -8.909,8.7568 -5.5394,0.3844 -10.7241,-2.1385 -11.0287,-10.2105 -0.3082,-8.1876 4.2247,-11.2569 9.5418,-11.6112 5.7579,-0.3905 9.0884,2.8274 9.6611,7.1976l-5.5953 0.3779c-0.5133,-1.8941 -1.5265,-3.0098 -3.9931,-2.8407 -2.3176,0.1552 -3.9231,2.2776 -3.7478,6.4792 0.1888,4.3932 2.0096,6.0888 4.5891,5.9167 2.579,-0.1727 3.7046,-1.4074 3.8269,-3.6753l5.655 -0.3905zm1.2514 -14.4386l0 0 5.1887 -1.987 2.9332 7.0257 6.4758 -2.9532 -3.3938 -6.8499 4.9166 -2.6024 9.2707 18.7325 -4.9233 2.6126 -3.6686 -7.4497 -6.7771 3.0891 3.2215 7.6712 -5.1879 1.9869 -8.0558 -19.253 0 -0.0228zm19.4053 -9.8069l0 0 13.9788 15.5345 11.1904 -10.7238 -3.2182 -3.1589 -7.065 6.771 -2.6031 -2.9134 6.275 -6.0159 -3.1426 -3.0791 -6.0716 5.8168 -2.3946 -2.6487 6.2711 -6.0092 -3.2184 -3.1585 -10.0018 9.5852zm12.4981 -12.548l0 0 2.8612 -5.0165 10.8528 -1.2509c2.3475,-0.2719 3.5755,-0.3315 3.5755,-0.3315l0.0729 -0.1487c0,0 -1.4663,-0.6227 -3.2443,-1.4502l-7.8444 -3.6054 2.1325 -5.0165 18.9552 8.7309 -2.2811 5.2975 -11.3925 1.5957c-2.2119,0.3111 -3.5898,0.361 -3.5898,0.361l-0.0729 0.1492c0,0 1.5368,0.7348 3.1856,1.6187l7.8927 4.2444 -2.7242 4.7217 -18.3792 -9.8994zm-119.4951 -69.1673l0 0 4.1914 1.6553 -3.3438 9.2807 3.9135 1.2944 3.132 -8.6845 4.0887 1.6222 -3.0393 8.4264 7.3204 2.3773 -1.5728 5.3336 -20.0238 -6.5225 5.3337 -14.7829zm25.5997 -13.7933l0 0 -3.4899 4.4436c1.5332,1.559 1.8378,3.1649 0.2715,5.1514 -1.4666,1.8536 -4.0954,1.9474 -7.4626,-0.5722 -3.5193,-2.6396 -3.8701,-5.1227 -2.2845,-7.1288 1.5859,-2.0061 3.1787,-2.1116 4.8737,-1.1588l3.4762 -4.4006c-3.6254,-2.5691 -8.2772,-2.1807 -11.9189,2.4336 -3.4369,4.3576 -4.3008,10.0525 2.1915,14.8662 6.5786,4.8835 11.6576,2.8773 14.9687,-1.3045 3.6086,-4.5689 2.9863,-9.0555 -0.6257,-12.3299zm13.7336 -23.6531l0 0c3.6914,-1.705 7.3066,-2.0751 8.8992,1.6998 1.3075,3.0879 0.4765,4.4397 -1.1354,5.7927l0.056 0.1264c1.7216,-0.4002 4.0296,-0.3311 5.4995,3.1193 1.7645,4.1477 -0.9403,6.5487 -4.6355,8.2562l-7.8067 3.6094 -9.36 -18.6829 8.4829 -3.9209zm3.135 7.572l0 0c1.4469,-0.6609 1.861,-1.3439 1.2779,-2.7373 -0.5625,-1.344 -1.5164,-1.4469 -2.9135,-0.8017l-3.1187 1.4404 1.7613 3.4868 2.993 -1.3882zm3.5295 7.6358l0 0c1.5958,-0.7391 2.0326,-1.3647 1.3575,-2.9602 -0.6293,-1.4938 -1.7348,-1.5303 -3.334,-0.7912l-2.6952 1.2448 1.9002 3.771 2.7715 -1.2644zm31.3467 -1.4768l0 0 -5.9292 0 -1.7022 -3.758 -7.1743 0.6153 -1.0361 3.973 -5.8438 1.0272 5.7904 -21.8517 6.4629 -0.5566 9.4323 20.5508zm-9.2469 -7.7845l0 0 -1.7847 -4.0656c-0.6155,-1.3804 -1.0789,-2.6082 -1.0789,-2.6082l-0.1095 0c0,0 -0.2484,1.2917 -0.6191,2.7581l-1.0627 4.3029 4.6549 -0.3872zm14.5281 1.6529l0 0 -4.854 -14.8337 6.2644 1.1926 1.9002 6.2907c0.3574,1.2018 0.6626,2.4792 0.6626,2.4792l0.1059 0.0235c0,0 0.8141,-1.0324 1.6384,-1.9865l4.3342 -4.9363 6.1946 1.5133 -10.5552 11.4916 -1.6156 6.9332 -5.4792 -1.1888 1.4037 -6.9788zm20.418 -8.4493l0 0 -9.4626 18.6295 12.429 6.8238 2.2919 -3.8831 -7.9005 -4.338 1.7811 -3.4725 7.2508 3.973 2.238 -3.7879 -7.4924 -4.1125 1.6224 -3.1845 8.1015 4.4567 2.2916 -3.8831 -13.1508 -7.2214zm20.4242 12.8759l0 0 6.3807 6.8264c3.2639,3.4933 4.046,6.8642 0.159,10.2636 -2.4831,2.173 -4.3041,2.7713 -6.4796,1.9201l-3.3369 8.4235 -3.9406 -4.8168 3.0528 -6.8771 -1.8209 -1.9462 -4.9102 4.8894 -4.033 -3.831 14.9287 -14.8519zm-2.8702 10.6938l0 0 2.1586 2.3176c1.2018,1.284 2.2119,1.3244 3.5532,0.1382 1.3401,-1.1849 1.3009,-2.2667 0.0992,-3.5546l-2.2721 -2.431 -3.5389 3.5298zm8.1391 35.9922l0 0 19.5431 -7.3896 -1.7818 -5.1517 -8.3788 3.1781c-1.748,0.6824 -3.311,1.3443 -3.311,1.3443l-0.0638 -0.1522c0,0 0.8785,-1.1091 2.0804,-2.9467l6.2632 -9.6478 -2.5158 -5.2053 -19.0374 8.6086 2.3906 4.9003 7.8626 -3.5592c1.808,-0.808 3.2379,-1.5198 3.2379,-1.5198l0.0639 0.1522c0,0 -0.7691,1.0067 -2.0935,2.9206l-6.168 9.012 1.9084 5.4562z"/>
  </g>
 </g>
</svg>
