<?xml version="1.0" encoding="UTF-8" standalone="no"?>
<svg
   clip-rule="evenodd"
   fill-rule="evenodd"
   stroke-linejoin="round"
   stroke-miterlimit="2"
   viewBox="0 0 200 317.67999"
   version="1.1"
   id="svg158"
   sodipodi:docname="Birmingham.svg"
   width="200"
   height="317.67999"
   xmlns:inkscape="http://www.inkscape.org/namespaces/inkscape"
   xmlns:sodipodi="http://sodipodi.sourceforge.net/DTD/sodipodi-0.dtd"
   xmlns:xlink="http://www.w3.org/1999/xlink"
   xmlns="http://www.w3.org/2000/svg"
   xmlns:svg="http://www.w3.org/2000/svg">
  <defs
     id="defs158" />
  <sodipodi:namedview
     id="namedview158"
     pagecolor="#ffffff"
     bordercolor="#000000"
     borderopacity="0.25"
     inkscape:showpageshadow="2"
     inkscape:pageopacity="0.0"
     inkscape:pagecheckerboard="0"
     inkscape:deskcolor="#d1d1d1" />
  <linearGradient
     id="a">
    <stop
       offset="0"
       stop-color="#506ba1"
       id="stop1" />
    <stop
       offset="1"
       stop-color="#1c2d47"
       id="stop2" />
  </linearGradient>
  <linearGradient
     id="b"
     gradientTransform="matrix(0,37.969,-37.969,0,204.157,139.936)"
     gradientUnits="userSpaceOnUse"
     x1="0"
     x2="1"
     xlink:href="#a"
     y1="0"
     y2="0" />
  <linearGradient
     id="c"
     gradientTransform="matrix(0,32.9362,-32.9362,0,197.247,251.609)"
     gradientUnits="userSpaceOnUse"
     x1="0"
     x2="1"
     xlink:href="#a"
     y1="0"
     y2="0" />
  <linearGradient
     id="d">
    <stop
       offset="0"
       stop-color="#1e306c"
       id="stop3" />
    <stop
       offset="1"
       stop-color="#1c2d47"
       id="stop4" />
  </linearGradient>
  <linearGradient
     id="e"
     gradientTransform="matrix(88.1193,125.848,-125.848,88.1193,57.295,171.242)"
     gradientUnits="userSpaceOnUse"
     x1="0"
     x2="1"
     xlink:href="#d"
     y1="0"
     y2="0" />
  <linearGradient
     id="f"
     gradientTransform="matrix(88.1193,125.847,-125.847,88.1193,57.295,21.6376)"
     gradientUnits="userSpaceOnUse"
     x1="0"
     x2="1"
     xlink:href="#d"
     y1="0"
     y2="0" />
  <linearGradient
     id="g">
    <stop
       offset="0"
       stop-color="#fff"
       id="stop5" />
    <stop
       offset=".38"
       stop-color="#fdfcfc"
       id="stop6" />
    <stop
       offset=".53"
       stop-color="#f3f3f3"
       id="stop7" />
    <stop
       offset=".65"
       stop-color="#e5e4e4"
       id="stop8" />
    <stop
       offset=".74"
       stop-color="#cfcece"
       id="stop9" />
    <stop
       offset=".82"
       stop-color="#b5b5b5"
       id="stop10" />
    <stop
       offset=".9"
       stop-color="#979796"
       id="stop11" />
    <stop
       offset=".96"
       stop-color="#757878"
       id="stop12" />
    <stop
       offset="1"
       stop-color="#606666"
       id="stop13" />
  </linearGradient>
  <linearGradient
     id="h"
     gradientTransform="matrix(88.1205,125.849,-125.849,88.1205,234.542,64.7251)"
     gradientUnits="userSpaceOnUse"
     x1="0"
     x2="1"
     xlink:href="#g"
     y1="0"
     y2="0" />
  <linearGradient
     id="i"
     gradientTransform="matrix(88.1183,125.846,-125.846,88.1183,256.848,198.71)"
     gradientUnits="userSpaceOnUse"
     x1="0"
     x2="1"
     xlink:href="#g"
     y1="0"
     y2="0" />
  <linearGradient
     id="j"
     gradientTransform="matrix(88.1174,125.845,-125.845,88.1174,229.355,68.3599)"
     gradientUnits="userSpaceOnUse"
     x1="0"
     x2="1"
     xlink:href="#g"
     y1="0"
     y2="0" />
  <linearGradient
     id="k"
     gradientTransform="matrix(88.1193,125.847,-125.847,88.1193,245.063,57.3613)"
     gradientUnits="userSpaceOnUse"
     x1="0"
     x2="1"
     xlink:href="#g"
     y1="0"
     y2="0" />
  <linearGradient
     id="l"
     gradientTransform="matrix(0.00280636,0.00404116,-0.00404116,0.00280636,273.993,101.162)"
     gradientUnits="userSpaceOnUse"
     x1="0"
     x2="1"
     xlink:href="#g"
     y1="0"
     y2="0" />
  <linearGradient
     id="m"
     gradientTransform="matrix(88.1115,125.836,-125.836,88.1115,265.318,43.187)"
     gradientUnits="userSpaceOnUse"
     x1="0"
     x2="1"
     xlink:href="#g"
     y1="0"
     y2="0" />
  <linearGradient
     id="n"
     gradientTransform="matrix(88.1189,125.847,-125.847,88.1189,191.564,94.8195)"
     gradientUnits="userSpaceOnUse"
     x1="0"
     x2="1"
     xlink:href="#g"
     y1="0"
     y2="0" />
  <linearGradient
     id="o"
     gradientTransform="matrix(88.1183,125.846,-125.846,88.1183,199.925,238.574)"
     gradientUnits="userSpaceOnUse"
     x1="0"
     x2="1"
     xlink:href="#g"
     y1="0"
     y2="0" />
  <linearGradient
     id="p"
     gradientTransform="matrix(88.1191,125.847,-125.847,88.1191,253.859,200.801)"
     gradientUnits="userSpaceOnUse"
     x1="0"
     x2="1"
     xlink:href="#g"
     y1="0"
     y2="0" />
  <linearGradient
     id="q"
     gradientTransform="matrix(88.1197,125.848,-125.848,88.1197,242.367,208.849)"
     gradientUnits="userSpaceOnUse"
     x1="0"
     x2="1"
     xlink:href="#g"
     y1="0"
     y2="0" />
  <linearGradient
     id="r"
     gradientTransform="matrix(88.1197,125.848,-125.848,88.1197,191.136,244.726)"
     gradientUnits="userSpaceOnUse"
     x1="0"
     x2="1"
     xlink:href="#g"
     y1="0"
     y2="0" />
  <linearGradient
     id="s"
     gradientTransform="matrix(88.1206,125.849,-125.849,88.1206,210.109,231.438)"
     gradientUnits="userSpaceOnUse"
     x1="0"
     x2="1"
     xlink:href="#g"
     y1="0"
     y2="0" />
  <linearGradient
     id="t"
     gradientTransform="matrix(88.1195,125.848,-125.848,88.1195,223.592,221.996)"
     gradientUnits="userSpaceOnUse"
     x1="0"
     x2="1"
     xlink:href="#g"
     y1="0"
     y2="0" />
  <linearGradient
     id="u"
     gradientTransform="matrix(88.1197,125.848,-125.848,88.1197,243.029,208.387)"
     gradientUnits="userSpaceOnUse"
     x1="0"
     x2="1"
     xlink:href="#g"
     y1="0"
     y2="0" />
  <linearGradient
     id="v"
     gradientTransform="matrix(88.1226,125.852,-125.852,88.1226,241.374,59.9372)"
     gradientUnits="userSpaceOnUse"
     x1="0"
     x2="1"
     xlink:href="#g"
     y1="0"
     y2="0" />
  <linearGradient
     id="w"
     gradientTransform="matrix(88.1176,125.845,-125.845,88.1176,266.401,192.019)"
     gradientUnits="userSpaceOnUse"
     x1="0"
     x2="1"
     xlink:href="#g"
     y1="0"
     y2="0" />
  <linearGradient
     id="x">
    <stop
       offset="0"
       stop-color="#202959"
       id="stop14" />
    <stop
       offset="1"
       stop-color="#1e2651"
       id="stop15" />
  </linearGradient>
  <linearGradient
     id="y"
     gradientTransform="matrix(146.115,208.674,-208.674,146.115,194.478,12.7766)"
     gradientUnits="userSpaceOnUse"
     x1="0"
     x2="1"
     xlink:href="#x"
     y1="0"
     y2="0" />
  <linearGradient
     id="z"
     gradientTransform="matrix(146.116,208.676,-208.676,146.116,175.505,26.0628)"
     gradientUnits="userSpaceOnUse"
     x1="0"
     x2="1"
     xlink:href="#x"
     y1="0"
     y2="0" />
  <linearGradient
     id="A"
     gradientTransform="matrix(146.111,208.668,-208.668,146.111,205.309,5.19587)"
     gradientUnits="userSpaceOnUse"
     x1="0"
     x2="1"
     xlink:href="#x"
     y1="0"
     y2="0" />
  <linearGradient
     id="B"
     gradientTransform="matrix(146.112,208.67,-208.67,146.112,182.961,20.8438)"
     gradientUnits="userSpaceOnUse"
     x1="0"
     x2="1"
     xlink:href="#x"
     y1="0"
     y2="0" />
  <linearGradient
     id="C"
     gradientTransform="matrix(146.113,208.67,-208.67,146.113,251.972,-27.4821)"
     gradientUnits="userSpaceOnUse"
     x1="0"
     x2="1"
     xlink:href="#x"
     y1="0"
     y2="0" />
  <linearGradient
     id="D"
     gradientTransform="matrix(146.11,208.667,-208.667,146.11,225.51,-8.94888)"
     gradientUnits="userSpaceOnUse"
     x1="0"
     x2="1"
     xlink:href="#x"
     y1="0"
     y2="0" />
  <linearGradient
     id="E"
     gradientTransform="matrix(146.104,208.658,-208.658,146.104,217.51,-3.3394)"
     gradientUnits="userSpaceOnUse"
     x1="0"
     x2="1"
     xlink:href="#x"
     y1="0"
     y2="0" />
  <linearGradient
     id="F"
     gradientTransform="matrix(111.789,159.651,-159.651,111.789,251.605,134.589)"
     gradientUnits="userSpaceOnUse"
     x1="0"
     x2="1"
     xlink:href="#x"
     y1="0"
     y2="0" />
  <linearGradient
     id="G"
     gradientTransform="matrix(111.793,159.658,-159.658,111.793,210.89,163.099)"
     gradientUnits="userSpaceOnUse"
     x1="0"
     x2="1"
     xlink:href="#x"
     y1="0"
     y2="0" />
  <linearGradient
     id="H"
     gradientTransform="matrix(111.784,159.644,-159.644,111.784,266.717,124.015)"
     gradientUnits="userSpaceOnUse"
     x1="0"
     x2="1"
     xlink:href="#x"
     y1="0"
     y2="0" />
  <linearGradient
     id="I"
     gradientTransform="matrix(111.795,159.659,-159.659,111.795,263.617,126.17)"
     gradientUnits="userSpaceOnUse"
     x1="0"
     x2="1"
     xlink:href="#x"
     y1="0"
     y2="0" />
  <linearGradient
     id="J">
    <stop
       offset="0"
       stop-color="#caccd0"
       id="stop16" />
    <stop
       offset=".25"
       stop-color="#c5c7cb"
       id="stop17" />
    <stop
       offset=".45"
       stop-color="#b7babd"
       id="stop18" />
    <stop
       offset=".63"
       stop-color="#a1a3a5"
       id="stop19" />
    <stop
       offset=".8"
       stop-color="#838687"
       id="stop20" />
    <stop
       offset=".97"
       stop-color="#616666"
       id="stop21" />
    <stop
       offset="1"
       stop-color="#595f5f"
       id="stop22" />
  </linearGradient>
  <linearGradient
     id="K"
     gradientTransform="matrix(138.587,197.923,-197.923,138.587,208.922,10.5962)"
     gradientUnits="userSpaceOnUse"
     x1="0"
     x2="1"
     xlink:href="#J"
     y1="0"
     y2="0" />
  <linearGradient
     id="L"
     gradientTransform="matrix(138.577,197.908,-197.908,138.577,198.467,17.9276)"
     gradientUnits="userSpaceOnUse"
     x1="0"
     x2="1"
     xlink:href="#J"
     y1="0"
     y2="0" />
  <linearGradient
     id="M"
     gradientTransform="matrix(138.562,197.888,-197.888,138.562,189.702,24.0772)"
     gradientUnits="userSpaceOnUse"
     x1="0"
     x2="1"
     xlink:href="#J"
     y1="0"
     y2="0" />
  <linearGradient
     id="N"
     gradientTransform="matrix(138.569,197.897,-197.897,138.569,208.363,11.004)"
     gradientUnits="userSpaceOnUse"
     x1="0"
     x2="1"
     xlink:href="#J"
     y1="0"
     y2="0" />
  <linearGradient
     id="O"
     gradientTransform="matrix(138.565,197.892,-197.892,138.565,183.105,28.6932)"
     gradientUnits="userSpaceOnUse"
     x1="0"
     x2="1"
     xlink:href="#J"
     y1="0"
     y2="0" />
  <linearGradient
     id="P"
     gradientTransform="matrix(138.571,197.9,-197.9,138.571,241.759,-12.3809)"
     gradientUnits="userSpaceOnUse"
     x1="0"
     x2="1"
     xlink:href="#J"
     y1="0"
     y2="0" />
  <linearGradient
     id="Q"
     gradientTransform="matrix(138.563,197.889,-197.889,138.563,225.581,-1.04419)"
     gradientUnits="userSpaceOnUse"
     x1="0"
     x2="1"
     xlink:href="#J"
     y1="0"
     y2="0" />
  <linearGradient
     id="R"
     gradientTransform="matrix(138.562,197.887,-197.887,138.562,221.663,1.69914)"
     gradientUnits="userSpaceOnUse"
     x1="0"
     x2="1"
     xlink:href="#J"
     y1="0"
     y2="0" />
  <linearGradient
     id="S">
    <stop
       offset="0"
       stop-color="#caccd0"
       id="stop23" />
    <stop
       offset="1"
       stop-color="#595f5f"
       id="stop24" />
  </linearGradient>
  <linearGradient
     id="T"
     gradientTransform="matrix(91.7152,130.983,-130.983,91.7152,208.864,275.26)"
     gradientUnits="userSpaceOnUse"
     x1="0"
     x2="1"
     xlink:href="#S"
     y1="0"
     y2="0" />
  <linearGradient
     id="U"
     gradientTransform="matrix(91.7248,130.997,-130.997,91.7248,199.8,281.6)"
     gradientUnits="userSpaceOnUse"
     x1="0"
     x2="1"
     xlink:href="#S"
     y1="0"
     y2="0" />
  <linearGradient
     id="V"
     gradientTransform="matrix(91.7138,130.981,-130.981,91.7138,221.974,266.083)"
     gradientUnits="userSpaceOnUse"
     x1="0"
     x2="1"
     xlink:href="#S"
     y1="0"
     y2="0" />
  <linearGradient
     id="W"
     gradientTransform="matrix(91.7018,130.964,-130.964,91.7018,244.578,250.273)"
     gradientUnits="userSpaceOnUse"
     x1="0"
     x2="1"
     xlink:href="#S"
     y1="0"
     y2="0" />
  <linearGradient
     id="X"
     gradientTransform="matrix(91.7152,130.983,-130.983,91.7152,237.2,255.42)"
     gradientUnits="userSpaceOnUse"
     x1="0"
     x2="1"
     xlink:href="#S"
     y1="0"
     y2="0" />
  <linearGradient
     id="Y">
    <stop
       offset="0"
       stop-color="#202959"
       id="stop25" />
    <stop
       offset="1"
       stop-color="#1c2d47"
       id="stop26" />
  </linearGradient>
  <linearGradient
     id="Z"
     gradientTransform="matrix(102.395,146.236,-146.236,102.395,209.199,263.304)"
     gradientUnits="userSpaceOnUse"
     x1="0"
     x2="1"
     xlink:href="#Y"
     y1="0"
     y2="0" />
  <linearGradient
     id="aa"
     gradientTransform="matrix(102.408,146.253,-146.253,102.408,197.53,271.466)"
     gradientUnits="userSpaceOnUse"
     x1="0"
     x2="1"
     xlink:href="#Y"
     y1="0"
     y2="0" />
  <linearGradient
     id="ab"
     gradientTransform="matrix(102.407,146.252,-146.252,102.407,223.772,253.089)"
     gradientUnits="userSpaceOnUse"
     x1="0"
     x2="1"
     xlink:href="#Y"
     y1="0"
     y2="0" />
  <linearGradient
     id="ac"
     gradientTransform="matrix(102.4,146.242,-146.242,102.4,190.786,276.193)"
     gradientUnits="userSpaceOnUse"
     x1="0"
     x2="1"
     xlink:href="#Y"
     y1="0"
     y2="0" />
  <linearGradient
     id="ad"
     gradientTransform="matrix(102.39,146.228,-146.228,102.39,240.633,241.306)"
     gradientUnits="userSpaceOnUse"
     x1="0"
     x2="1"
     xlink:href="#Y"
     y1="0"
     y2="0" />
  <linearGradient
     id="ae"
     gradientTransform="matrix(102.406,146.25,-146.25,102.406,237.063,243.783)"
     gradientUnits="userSpaceOnUse"
     x1="0"
     x2="1"
     xlink:href="#Y"
     y1="0"
     y2="0" />
  <linearGradient
     id="af">
    <stop
       offset="0"
       stop-color="#194c8d"
       id="stop27" />
    <stop
       offset=".1"
       stop-color="#194c8d"
       id="stop28" />
    <stop
       offset=".18"
       stop-color="#1e4e8e"
       id="stop29" />
    <stop
       offset=".25"
       stop-color="#2d5593"
       id="stop30" />
    <stop
       offset=".31"
       stop-color="#41609a"
       id="stop31" />
    <stop
       offset=".35"
       stop-color="#506ba1"
       id="stop32" />
    <stop
       offset=".37"
       stop-color="#4a6192"
       id="stop33" />
    <stop
       offset=".42"
       stop-color="#3e4f78"
       id="stop34" />
    <stop
       offset=".47"
       stop-color="#354164"
       id="stop35" />
    <stop
       offset=".52"
       stop-color="#2b3857"
       id="stop36" />
    <stop
       offset=".57"
       stop-color="#23324e"
       id="stop37" />
    <stop
       offset=".63"
       stop-color="#1d2e48"
       id="stop38" />
    <stop
       offset=".7"
       stop-color="#1c2d47"
       id="stop39" />
    <stop
       offset="1"
       stop-color="#1c2d47"
       id="stop40" />
  </linearGradient>
  <linearGradient
     id="ag"
     gradientTransform="matrix(213.759,305.28,-305.28,213.759,173.002,161.877)"
     gradientUnits="userSpaceOnUse"
     x1="0"
     x2="1"
     xlink:href="#af"
     y1="0"
     y2="0" />
  <linearGradient
     id="ah"
     gradientTransform="matrix(211.32,301.796,-301.796,211.32,174.049,-66.0482)"
     gradientUnits="userSpaceOnUse"
     x1="0"
     x2="1"
     xlink:href="#af"
     y1="0"
     y2="0" />
  <linearGradient
     id="ai"
     gradientTransform="matrix(210.14,300.111,-300.111,210.14,174.779,51.4441)"
     gradientUnits="userSpaceOnUse"
     x1="0"
     x2="1"
     xlink:href="#af"
     y1="0"
     y2="0" />
  <g
     fill-rule="nonzero"
     id="g44"
     transform="translate(-180,-41.16)">
    <path
       d="m 380,322.181 -3.643,-0.986 -26.581,-7.101 c 7.929,-13.278 10.194,-26.94 10.194,-38.203 -0.016,-12.074 -2.609,-21.412 -3.667,-24.732 l 12.657,-9.545 0.467,-0.345 0.183,-0.537 c 0,0 2.07,-6.23 5.946,-17.888 1.086,-3.208 1.704,-5.784 1.725,-8.097 0,-1.564 -0.335,-3.056 -1.065,-4.323 -0.548,-0.954 -1.31,-1.788 -2.213,-2.446 -1.369,-1.024 -3.023,-1.755 -5.042,-2.445 -1.999,-0.67 -4.373,-1.278 -7.174,-1.938 -6.706,-1.532 -18.031,-4.452 -27.67,-6.963 -4.809,-1.268 -9.224,-2.445 -12.41,-3.303 -0.15,-0.038 -0.294,-0.076 -0.44,-0.114 7.959,-4.325 14.301,-9.682 19.304,-15.385 8.868,-10.107 13.617,-21.288 16.143,-29.928 1.992,-6.808 2.632,-12.05 2.816,-14.036 l 12.293,-9.348 0.487,-0.38 0.182,-0.604 c 0,0 3.38,-12.166 5.44,-19.949 0.446,-1.715 0.72,-3.272 0.72,-4.763 0,-1.467 -0.254,-2.862 -0.802,-4.135 -0.802,-1.903 -2.253,-3.461 -4.15,-4.668 -1.918,-1.238 -4.292,-2.162 -7.174,-2.953 -0.913,-0.284 -3.227,-0.857 -6.697,-1.745 -3.319,-0.885 -7.711,-1.979 -12.916,-3.298 -10.374,-13.653 -21.476,-22.441 -32.441,-27.776 -11.071,-5.401 -21.983,-7.273 -31.735,-7.273 -19.545,0 -34.474,7.476 -37.813,9.291 l -55.873,-14.025 -4.252,-1.08 2.172,3.813 9.863,17.311 -14.115,12.198 -2.719,2.354 3.475,0.888 30.188,7.673 c -8.588,14.805 -10.858,29.588 -10.858,41.058 0,10.035 1.725,17.504 2.487,20.286 l -17.037,14.629 -0.447,0.38 -0.146,0.573 c 0,0 -3.78,14.642 -5.515,21.411 -0.248,1.014 -0.391,1.968 -0.391,2.891 0,1.553 0.411,3.014 1.146,4.222 0.553,0.923 1.289,1.72 2.126,2.414 1.249,1.02 2.76,1.847 4.435,2.547 1.674,0.731 3.576,1.36 5.601,1.999 1.918,0.569 5.804,1.618 10.644,2.893 10.609,2.769 25.625,6.529 32.891,8.338 -13.242,8.852 -21.47,19.909 -26.453,28.983 -4.589,8.4 -6.425,15.171 -6.896,17.144 l -18.973,18.695 -0.391,0.386 -0.122,0.538 c 0,0 -0.183,0.853 -0.492,2.223 -0.426,2.03 -1.121,5.175 -1.776,8.167 -0.674,2.984 -1.309,5.805 -1.659,7.176 -0.223,0.893 -0.568,2.161 -0.878,3.651 -0.284,1.492 -0.532,3.177 -0.532,4.963 0,1.897 0.289,3.906 1.248,5.743 0.471,0.924 1.106,1.786 1.942,2.547 0.838,0.731 1.837,1.328 3.025,1.775 1.983,0.761 4.784,1.624 7.929,2.506 8.159,2.311 18.535,4.811 21.183,5.44 10.323,13.793 21.373,22.658 32.261,28.075 11.055,5.47 21.948,7.377 31.679,7.377 19.841,0 35.005,-7.821 38.407,-9.721 l 49.266,13.019 4.231,1.115 -2.13,-3.845 -9.58,-17.247 17.119,-13.254 z"
       fill="#ffffff"
       id="path40" />
    <path
       d="m 189.462,162.922 2.105,0.543 27.285,6.925 c -4.947,-6.925 -8.792,-14.738 -11.242,-23.094 z"
       fill="url(#b)"
       id="path41"
       style="fill:url(#b)" />
    <path
       d="m 355.454,119.402 15.465,3.938 -15.677,12.044 z"
       fill="#1c2d47"
       id="path42" />
    <path
       d="m 343.867,233.964 24.068,6.381 -16.285,12.298 -4.049,-9.852 z"
       fill="#1c2d47"
       id="path43" />
    <path
       d="m 187.6,275.291 2.024,0.507 15.043,3.785 c -0.082,-1.4 -0.122,-2.831 -0.122,-4.261 0,-6.515 0.817,-12.837 2.349,-18.905 z"
       fill="url(#c)"
       id="path44"
       style="fill:url(#c)" />
  </g>
  <circle
     cx="101.35501"
     cy="234.16501"
     fill="url(#e)"
     r="76.808998"
     id="circle44"
     style="fill:url(#e)" />
  <circle
     cx="101.35501"
     cy="84.560997"
     fill="url(#f)"
     r="76.808998"
     id="circle45"
     style="fill:url(#f)" />
  <g
     fill-rule="nonzero"
     id="g158"
     transform="translate(-180,-41.16)">
    <path
       d="m 263.463,125.916 0.002,0.004 c 0.065,-0.024 0.143,-0.064 0.226,-0.13 0.264,-0.158 0.609,-0.446 0.98,-0.797 0.736,-0.7 1.593,-1.618 2.45,-2.445 0.573,-0.537 1.167,-1.015 1.801,-1.365 0.366,-0.187 0.756,-0.35 1.229,-0.38 h 0.182 c 0.736,0 1.451,0.193 2.125,0.411 0.696,0.222 1.33,0.446 1.817,0.604 0.303,0.124 0.56,0.189 0.608,0.191 0.089,-0.002 0.304,-0.032 0.518,-0.095 0.223,-0.066 0.405,-0.157 0.532,-0.319 0.082,-0.092 0.163,-0.254 0.203,-0.477 0.021,-0.188 0.041,-0.381 0.041,-0.538 0,-0.603 -0.163,-1.177 -0.391,-1.715 -0.223,-0.538 -0.507,-0.984 -0.715,-1.37 -0.243,-0.441 -0.674,-1.268 -1.06,-2.252 -0.371,-0.985 -0.715,-2.101 -0.756,-3.176 v -0.351 c 0,-1.938 0.324,-5.403 0.492,-6.834 0.101,-0.76 0.183,-1.461 0.244,-1.998 0.081,-0.569 0.122,-1.015 0.101,-1.239 0.018,-0.084 -0.027,-0.287 -0.065,-0.422 l -0.015,0.006 c -0.351,0.132 -1.025,0.416 -1.696,0.766 -0.674,0.35 -1.409,0.796 -1.881,1.142 -0.305,0.253 -0.513,0.507 -0.493,0.507 -0.122,0.254 -0.202,0.573 -0.202,0.954 0,0.542 0.162,1.177 0.344,1.557 0.249,0.573 0.371,1.177 0.452,1.619 0.061,0.476 0.081,0.796 0.081,0.832 v 0.091 l -0.02,0.128 v 0.065 c -0.02,0.315 -0.122,0.665 -0.223,1.015 -0.122,0.381 -0.244,0.761 -0.411,1.146 -0.305,0.792 -0.655,1.583 -0.938,2.253 -0.183,0.446 -0.325,0.827 -0.391,1.045 -0.04,0.162 -0.101,0.446 -0.162,0.797 -0.082,0.38 -0.142,0.796 -0.224,1.273 -0.142,0.954 -0.344,2.03 -0.573,3.05 -0.162,0.664 -0.345,1.303 -0.573,1.841 -0.203,0.446 -0.467,0.827 -0.756,1.177 -0.305,0.381 -0.614,0.701 -0.939,1.015 -0.654,0.634 -1.309,1.268 -1.653,1.745 -0.23,0.35 -0.291,0.573 -0.291,0.669 z"
       fill="url(#h)"
       id="path45"
       style="fill:url(#h)" />
    <path
       d="m 322.248,214.785 c -0.145,1.908 -0.44,4.651 -1.049,7.925 -1.167,6.394 -3.501,14.773 -8.199,22.912 -3.145,5.429 -7.356,10.734 -12.998,15.18 -6.555,5.185 -15.179,9.314 -22.211,12.165 -4.932,2.029 -9.06,3.415 -11.105,4.075 0.008,0.302 0.018,0.649 0.029,1.041 0.061,1.562 0.142,3.784 0.325,6.422 0.343,4.888 0.973,11.234 2.092,17.459 0.534,-0.178 1.154,-0.389 1.875,-0.656 2.552,-0.924 6.231,-2.416 10.69,-4.577 8.868,-4.353 20.781,-11.434 32.815,-22.424 8.888,-8.107 15.231,-18.589 19.36,-27.295 3.438,-7.232 5.373,-13.198 6.027,-15.403 -2.105,-2.811 -4.408,-5.467 -6.889,-7.945 -3.292,-3.289 -6.896,-6.263 -10.762,-8.879 z"
       fill="url(#i)"
       id="path46"
       style="fill:url(#i)" />
    <path
       d="m 259.993,115.181 c 0.406,0.223 0.959,0.376 1.426,0.376 0.512,0 0.902,-0.153 1.106,-0.315 0,0 0.061,-0.061 0.102,-0.223 0.06,-0.157 0.081,-0.411 0.081,-0.7 0,-0.507 -0.102,-1.142 -0.284,-1.715 -0.183,-0.568 -0.452,-1.111 -0.675,-1.431 -0.023,-0.028 -0.04,-0.038 -0.063,-0.062 -0.153,0.133 -0.318,0.28 -0.51,0.448 -0.573,0.477 -1.269,1.177 -1.675,1.775 -0.263,0.417 -0.37,0.762 -0.37,0.894 v 0.061 c 0.147,0.319 0.431,0.639 0.862,0.892 z"
       fill="url(#j)"
       id="path47"
       style="fill:url(#j)" />
    <path
       d="m 216.579,95.639 c 0.782,-0.599 1.538,-1.045 2.294,-1.36 0.756,-0.289 1.531,-0.416 2.288,-0.416 0.918,0 1.816,0.193 2.74,0.477 0.446,0.127 0.938,0.223 1.41,0.223 0.756,0 1.491,-0.193 2.146,-0.7 0.65,-0.508 1.284,-1.334 1.755,-2.73 0.676,-1.938 1.573,-3.688 2.842,-5.023 1.268,-1.298 2.963,-2.161 4.966,-2.161 0.427,0 0.857,0.03 1.309,0.132 0.98,0.152 1.837,0.599 2.572,1.172 0.756,0.573 1.411,1.304 1.984,2.065 1.162,1.557 2.065,3.338 2.821,4.764 0.487,0.953 0.918,1.75 1.222,2.161 0.392,0.508 1.391,1.177 2.537,1.619 1.147,0.477 2.431,0.761 3.334,0.761 0.304,0 0.568,-0.031 0.756,-0.092 0.182,-0.031 0.243,-0.096 0.264,-0.127 0.979,-0.984 2.146,-2.258 2.638,-2.826 0.043,-0.045 0.062,-0.067 0.094,-0.101 0.192,-1.148 0.91,-5.306 1.864,-10.259 1.127,-5.784 2.558,-12.643 3.846,-16.864 0.386,-1.208 0.736,-2.228 1.101,-2.989 0.208,-0.41 0.391,-0.73 0.655,-1.05 0.979,-1.081 2.105,-2.095 3.374,-2.862 1.263,-0.791 2.693,-1.298 4.251,-1.298 1.04,0 2.106,0.223 3.146,0.761 0.816,0.386 1.369,0.73 1.755,1.05 0.41,0.284 0.674,0.538 0.822,0.695 0.101,0.132 0.142,0.132 0.142,0.162 l 0.222,0.031 c 0.021,0.03 0.122,0.03 0.244,0.03 0.35,0 0.964,-0.091 1.619,-0.187 0.633,-0.096 1.303,-0.193 1.937,-0.193 0.391,0 0.778,0 1.228,0.223 0.203,0.096 0.411,0.223 0.614,0.38 0.223,0.127 0.452,0.284 0.695,0.447 0.487,0.314 1.02,0.634 1.451,0.791 0.254,0.117 0.471,0.176 0.574,0.188 0.176,-0.252 0.393,-0.776 0.755,-1.426 0.365,-0.67 0.98,-1.492 1.999,-2.095 0.676,-0.381 1.538,-0.701 2.598,-0.888 2.558,-0.446 5.379,-0.417 7.25,-0.574 0.64,-0.035 1.147,-0.096 1.471,-0.188 0.182,-0.035 0.315,-0.101 0.315,-0.101 0.132,-0.134 0.316,-0.366 0.488,-0.631 0.202,-0.32 0.426,-0.668 0.629,-1.018 0.016,-0.027 0.031,-0.054 0.048,-0.082 -6.445,-1.858 -13.249,-2.873 -20.297,-2.873 -20.172,0 -38.441,8.166 -51.663,21.377 -6.363,6.376 -11.542,13.915 -15.218,22.262 0.066,0.003 0.13,0.011 0.197,0.011 0.653,0.001 1.307,-0.156 1.916,-0.668 z"
       fill="url(#k)"
       id="path48"
       style="fill:url(#k)" />
    <path
       d="m 273.997,101.158 -0.007,0.011 0.008,-0.01 z"
       fill="url(#l)"
       id="path49"
       style="fill:url(#l)" />
    <path
       d="m 321.442,128.301 c 0.122,0.031 0.264,0.062 0.467,0.062 0.497,0 1.208,-0.194 1.908,-0.569 0.689,-0.355 1.349,-0.863 1.775,-1.37 0.305,-0.314 0.467,-0.634 0.528,-0.792 0.02,-0.096 0.04,-0.192 0.04,-0.253 0,-0.223 -0.081,-0.446 -0.244,-0.731 -0.162,-0.254 -0.406,-0.543 -0.649,-0.796 -0.222,-0.213 -0.443,-0.387 -0.637,-0.529 l -3.405,2.201 c -0.043,0.069 -0.113,0.18 -0.169,0.296 -0.142,0.29 -0.265,0.664 -0.265,1.08 0.021,0.351 0.102,0.731 0.427,1.208 0.062,0.092 0.122,0.127 0.224,0.193 z"
       fill="url(#m)"
       id="path50"
       style="fill:url(#m)" />
    <path
       d="m 246.685,180.142 c -0.203,-0.411 -0.513,-1.015 -0.817,-1.685 -0.655,-1.268 -1.451,-2.79 -1.983,-3.653 -0.346,-0.568 -1.162,-1.552 -2.106,-2.602 -0.918,-1.019 -1.938,-2.095 -2.735,-2.988 -0.532,-0.568 -0.963,-1.015 -1.227,-1.365 -0.122,-0.157 -0.203,-0.319 -0.31,-0.477 -0.081,-0.157 -0.162,-0.35 -0.243,-0.573 -0.162,-0.375 -0.325,-0.853 -0.513,-1.426 -0.365,-1.08 -0.756,-2.45 -1.121,-3.81 -0.736,-2.77 -1.431,-5.591 -1.654,-6.641 -0.086,-0.381 -0.107,-0.797 -0.107,-1.304 0,-1.268 0.168,-3.018 0.391,-4.86 0.203,-1.841 0.471,-3.714 0.634,-5.175 0.122,-0.953 0.183,-1.751 0.183,-2.101 0.02,-0.35 -0.203,-1.014 -0.573,-1.745 -0.366,-0.7 -0.858,-1.491 -1.264,-2.222 -0.289,-0.512 -0.533,-0.989 -0.715,-1.461 -0.086,-0.289 -0.167,-0.578 -0.167,-0.924 0,-0.284 0.061,-0.537 0.167,-0.761 0.081,-0.223 0.203,-0.416 0.325,-0.573 0.264,-0.38 0.553,-0.7 0.898,-1.051 0.655,-0.634 1.431,-1.334 2.024,-1.968 0.411,-0.416 0.695,-0.791 0.817,-1.08 0.082,-0.127 0.082,-0.224 0.082,-0.254 0.02,-0.127 -0.082,-0.411 -0.366,-0.797 -0.269,-0.38 -0.715,-0.822 -1.268,-1.238 -1.086,-0.821 -2.557,-1.588 -3.8,-1.999 -0.838,-0.284 -1.619,-0.731 -2.35,-1.304 -0.781,-0.573 -1.496,-1.237 -2.191,-1.907 -1.41,-1.365 -2.714,-2.856 -3.779,-3.81 -1.492,-1.335 -3.618,-2.445 -5.784,-2.445 -0.878,0 -1.755,0.157 -2.674,0.568 -1.639,0.7 -3.13,0.923 -4.312,0.923 -0.522,0 -0.976,-0.041 -1.369,-0.097 -0.315,2.753 -0.493,5.548 -0.493,8.387 0,20.172 8.174,38.442 21.399,51.658 5.481,5.477 11.84,10.075 18.832,13.601 l -1.563,-10.269 c -0.056,-0.116 -0.146,-0.305 -0.268,-0.572 z"
       fill="url(#n)"
       id="path51"
       style="fill:url(#n)" />
    <path
       d="m 242.515,306.361 c -4.292,-13.88 -5.028,-30.178 -5.028,-39.999 0,-3.913 0.123,-6.782 0.188,-8.035 -0.565,-0.257 -1.126,-0.523 -1.7,-0.762 -4.552,-1.91 -9.357,-3.244 -14.209,-3.572 0.039,3.073 0.205,9.601 0.885,17.646 0.838,10.136 2.512,22.678 5.723,33.637 2.902,10.014 7.727,18.742 11.913,25.032 3.284,4.979 6.18,8.457 7.454,9.897 5.455,2.829 11.308,4.987 17.458,6.374 -1.865,-2.356 -4.359,-5.642 -7.069,-9.594 -5.58,-8.2 -12.079,-19.189 -15.615,-30.624 z"
       fill="url(#o)"
       id="path52"
       style="fill:url(#o)" />
    <path
       d="m 317.049,277.067 c -20.789,18.921 -41.108,26.607 -47.19,28.602 0.788,3.637 1.761,7.119 2.964,10.089 3.252,8.077 8.22,16.011 12.491,21.989 2.782,3.912 5.245,6.99 6.741,8.789 0.104,-0.035 0.212,-0.074 0.326,-0.115 1.045,-0.385 2.578,-1.014 4.521,-1.938 3.861,-1.816 9.31,-4.829 15.611,-9.436 25.369,-18.74 37.018,-35.575 38.622,-37.992 2.129,-6.864 3.275,-14.162 3.275,-21.733 0,-3.582 -0.27,-7.101 -0.767,-10.546 -3.213,6.69 -10.072,18.6 -22.754,31.135 -6.097,6.036 -10.512,10.127 -13.717,12.896 -3.187,2.791 -5.176,4.252 -6.454,5.084 -0.842,0.538 -1.37,0.792 -1.826,0.954 -0.265,0.06 -0.508,0.122 -0.772,0.122 h -0.122 l 0.122,-2.249 v -0.227 l -0.406,-1.208 0.082,-0.029 c 0.04,-0.031 0.121,-0.061 0.243,-0.133 0.426,-0.222 1.289,-0.76 2.76,-1.866 2.943,-2.264 8.229,-6.87 17.453,-15.983 17.318,-17.174 23.414,-33.062 24.135,-35.023 -1.964,-8.213 -5.313,-15.883 -9.795,-22.757 -0.979,2.907 -2.589,7.248 -4.944,12.252 -4.253,9.121 -10.889,20.465 -20.599,29.323 z"
       fill="url(#p)"
       id="path53"
       style="fill:url(#p)" />
    <path
       d="m 314.715,338.03 c -3.576,2.641 -6.899,4.768 -9.841,6.471 10.71,-3.637 20.31,-9.67 28.136,-17.491 5.007,-4.999 9.285,-10.723 12.672,-16.997 -6.403,7.276 -16.5,17.35 -30.967,28.017 z"
       fill="url(#q)"
       id="path54"
       style="fill:url(#q)" />
    <path
       d="m 224.778,306.33 c -3.313,-11.374 -4.987,-24.088 -5.865,-34.377 -0.692,-8.256 -0.855,-14.91 -0.892,-18.012 -2.147,0.068 -4.826,0.242 -6.661,0.39 -1.992,6.65 -3.075,13.692 -3.075,20.99 0,20.203 8.173,38.468 21.399,51.688 2.785,2.783 5.805,5.326 9.008,7.632 -0.367,-0.524 -0.738,-1.06 -1.119,-1.624 -4.419,-6.586 -9.629,-15.829 -12.795,-26.687 z"
       fill="url(#r)"
       id="path55"
       style="fill:url(#r)" />
    <path
       d="m 269.353,317.157 c -1.578,-3.906 -2.74,-8.452 -3.643,-13.059 -0.877,-4.566 -1.492,-9.274 -1.897,-13.465 -0.675,-6.759 -0.845,-12.287 -0.886,-14.201 -0.012,-0.013 -0.021,-0.021 -0.033,-0.035 -0.37,-0.345 -0.883,-0.882 -1.577,-1.521 -1.35,-1.33 -3.329,-3.146 -5.804,-5.177 -3.763,-3.097 -8.658,-6.648 -14.179,-9.584 0,0.019 -0.001,0.036 -0.002,0.057 -0.041,1.461 -0.102,3.613 -0.102,6.19 0,9.628 0.756,25.67 4.86,38.883 3.252,10.512 9.26,20.933 14.617,28.847 4.728,7.018 8.924,12.067 10.193,13.541 3.413,0.489 6.898,0.755 10.445,0.755 2.398,0 4.766,-0.124 7.105,-0.349 -1.464,-1.792 -3.5,-4.382 -5.756,-7.534 -4.472,-6.219 -9.81,-14.581 -13.341,-23.348 z"
       fill="url(#s)"
       id="path56"
       style="fill:url(#s)" />
    <path
       d="m 219.629,250.199 h 0.263 c 6.134,0.029 12.06,1.613 17.534,3.906 5.459,2.282 10.446,5.297 14.698,8.321 6.595,4.67 11.372,9.269 13.196,11.13 0.584,-0.191 1.4,-0.457 2.395,-0.812 2.187,-0.729 5.231,-1.806 8.665,-3.237 2.73,-1.111 5.705,-2.424 8.679,-3.903 -0.169,-0.198 -0.348,-0.408 -0.547,-0.642 -1.222,-1.391 -3.002,-3.37 -5.271,-5.591 -4.515,-4.475 -10.953,-10.036 -18.533,-14.359 -18.701,-10.642 -32.354,-11.911 -37.874,-11.911 -0.419,0 -0.787,0.008 -1.11,0.02 -3.769,5.314 -6.855,11.143 -9.108,17.376 0.076,-0.005 0.147,-0.011 0.224,-0.015 2.207,-0.162 4.866,-0.283 6.789,-0.283 z"
       fill="url(#t)"
       id="path57"
       style="fill:url(#t)" />
    <path
       d="m 281.88,256.703 c 3.17,3.143 5.428,5.759 6.569,7.14 3.314,-1.805 6.509,-3.806 9.229,-5.963 2.99,-2.372 5.551,-5.006 7.752,-7.781 -0.327,-0.371 -0.746,-0.833 -1.257,-1.402 -1.411,-1.523 -3.531,-3.713 -6.231,-6.191 -5.434,-4.961 -13.302,-11.12 -22.972,-15.949 -16.82,-8.442 -32.805,-10.043 -36.586,-10.305 -3.089,2.249 -6.004,4.719 -8.7,7.412 -1.815,1.814 -3.524,3.732 -5.141,5.728 6.842,0.271 20.359,2.313 38.022,12.384 7.971,4.546 14.632,10.289 19.315,14.927 z"
       fill="url(#u)"
       id="path58"
       style="fill:url(#u)" />
    <path
       d="m 326.516,180.365 c -0.518,-0.127 -0.964,-0.223 -1.228,-0.223 -0.082,0 -0.142,0.03 -0.142,0.03 l -0.006,-0.018 c -1.008,0.477 -2.742,1.229 -3.738,1.672 -0.345,0.163 -0.61,0.284 -0.69,0.319 -0.173,0.067 -0.315,0.127 -0.436,0.127 -0.122,0.031 -0.223,0.061 -0.345,0.061 -0.243,0.036 -0.487,0.036 -0.74,0.036 -0.568,0 -1.157,-0.036 -1.573,-0.036 h -0.284 c -0.264,0.066 -0.589,0.132 -0.934,0.254 -0.355,0.132 -0.7,0.32 -0.903,0.477 -0.121,0.101 -0.345,0.32 -0.619,0.609 -0.264,0.284 -0.588,0.598 -0.953,0.953 -0.721,0.665 -1.513,1.36 -2.456,1.776 -0.386,0.162 -0.71,0.284 -1.045,0.381 -0.305,0.096 -0.609,0.157 -0.954,0.157 -0.284,0 -0.578,-0.061 -0.822,-0.122 -0.264,-0.101 -0.507,-0.193 -0.75,-0.319 -0.356,-0.193 -0.66,-0.381 -0.903,-0.513 -0.264,-0.122 -0.467,-0.187 -0.508,-0.187 l -0.06,0.03 c -0.061,0.035 -0.193,0.158 -0.335,0.446 -0.102,0.188 -0.183,0.29 -0.264,0.381 -0.082,0.127 -0.183,0.223 -0.305,0.35 -0.223,0.223 -0.527,0.478 -0.862,0.796 -0.67,0.599 -1.512,1.33 -2.344,2.03 -1.674,1.462 -3.319,2.765 -3.319,2.796 L 297.7,191.04 c 0,0 0.284,-0.254 0.751,-0.634 0.466,-0.381 1.085,-0.919 1.775,-1.497 1.37,-1.142 2.942,-2.506 3.704,-3.237 0.202,-0.223 0.366,-0.381 0.386,-0.381 0.22,-0.447 0.517,-0.841 0.883,-1.11 0.385,-0.285 0.852,-0.447 1.288,-0.417 0.589,0 1.056,0.223 1.451,0.386 0.365,0.219 0.69,0.411 0.872,0.507 0.204,0.092 0.376,0.158 0.457,0.188 0.102,0.035 0.163,0.035 0.203,0.035 0.081,0 0.182,0 0.386,-0.066 0.182,-0.035 0.467,-0.158 0.822,-0.289 0.345,-0.158 0.852,-0.507 1.34,-0.955 0.497,-0.441 0.984,-0.917 1.39,-1.359 0.294,-0.29 0.537,-0.512 0.782,-0.731 0.486,-0.416 1.044,-0.639 1.511,-0.832 0.467,-0.152 0.903,-0.254 1.126,-0.314 0.163,-0.031 0.285,-0.031 0.406,-0.031 0.123,-0.03 0.244,-0.03 0.387,-0.03 0.497,0 1.086,0.03 1.572,0.03 h 0.477 c 0.082,-0.02 0.141,-0.025 0.179,-0.027 0.164,-0.089 0.399,-0.18 0.694,-0.322 0.355,-0.158 0.781,-0.351 1.228,-0.543 0.903,-0.376 1.906,-0.822 2.536,-1.111 0.345,-0.188 0.67,-0.219 0.984,-0.219 0.589,0.031 1.177,0.158 1.797,0.315 0.609,0.193 1.228,0.416 1.775,0.639 0.681,0.291 1.276,0.572 1.634,0.744 0.857,-0.78 1.696,-1.579 2.516,-2.398 8.019,-8.003 14.156,-17.868 17.764,-28.879 -0.024,-0.01 -0.044,-0.018 -0.068,-0.03 -0.426,-0.192 -1.016,-0.446 -1.674,-0.7 -1.329,-0.538 -3.004,-1.146 -4.192,-1.431 -0.385,-0.091 -0.79,-0.127 -1.206,-0.127 -1.35,0 -2.761,0.442 -3.471,0.731 -0.154,0.061 -0.27,0.117 -0.338,0.153 l -0.027,0.019 -0.102,0.117 c -0.101,0.122 -0.274,0.284 -0.477,0.508 -0.386,0.441 -0.874,1.045 -1.43,1.684 -1.076,1.299 -2.263,2.791 -2.863,3.622 -0.162,0.255 -0.264,0.442 -0.264,0.472 -0.243,0.478 -0.73,1.528 -1.248,2.603 -0.507,1.116 -1.035,2.258 -1.268,2.862 -0.039,0.123 -0.064,0.202 -0.082,0.256 -10e-4,0.13 -0.021,0.191 -0.021,0.251 l -0.06,0.223 c -0.039,0.162 -0.081,0.32 -0.142,0.507 -0.101,0.386 -0.244,0.827 -0.426,1.339 -0.325,0.984 -0.761,2.126 -1.086,3.014 -0.223,0.604 -0.406,1.08 -0.528,1.334 -0.081,0.157 -0.141,0.289 -0.243,0.446 -0.102,0.157 -0.233,0.35 -0.376,0.573 -0.264,0.381 -0.608,0.853 -0.994,1.365 -0.76,1.05 -1.653,2.222 -2.415,3.146 -0.507,0.603 -0.924,1.11 -1.228,1.425 -0.081,0.066 -0.142,0.132 -0.263,0.223 -0.062,0.066 -0.123,0.097 -0.285,0.163 -0.081,0.03 -0.203,0.091 -0.406,0.091 -0.173,0 -0.213,-0.031 -0.294,-0.031 l -0.182,-0.03 c -0.143,-0.03 -0.325,-0.096 -0.528,-0.127 -0.426,-0.127 -0.964,-0.289 -1.532,-0.446 -1.126,-0.351 -2.415,-0.797 -3.277,-1.142 -0.244,-0.126 -0.447,-0.222 -0.65,-0.35 -0.324,-0.223 -0.568,-0.507 -0.822,-0.796 -0.243,-0.315 -0.467,-0.635 -0.71,-1.015 -0.467,-0.731 -0.964,-1.522 -1.391,-2.192 -0.264,-0.446 -0.528,-0.857 -0.711,-1.08 -0.11,-0.127 -0.456,-0.411 -0.943,-0.731 -0.487,-0.32 -1.126,-0.665 -1.837,-1.02 -1.43,-0.665 -3.257,-1.33 -5.012,-1.715 -0.609,-0.121 -1.065,-0.187 -1.391,-0.187 -0.345,0 -0.506,0.066 -0.568,0.096 -0.04,0.031 -0.04,0.031 -0.101,0.127 -0.021,0.066 -0.041,0.188 -0.081,0.32 -0.021,0.219 -0.021,0.477 -0.021,0.792 v 0.857 c 0,0.036 0.021,0.188 0.203,0.477 0.182,0.254 0.467,0.573 0.812,0.888 0.739,0.67 1.724,1.401 2.577,2.131 0.578,0.477 1.106,0.984 1.491,1.522 0.223,0.319 0.427,0.7 0.487,1.177 0.071,0.603 0.193,1.238 0.193,1.968 0,0.604 -0.102,1.274 -0.376,2.004 -0.263,0.696 -0.71,1.462 -1.369,2.349 -0.873,1.147 -1.958,2.065 -3.044,2.699 -1.076,0.64 -2.162,1.02 -3.186,1.05 -0.508,0 -1.025,-0.126 -1.492,-0.441 -0.244,-0.193 -0.386,-0.446 -0.467,-0.639 -0.06,-0.223 -0.081,-0.381 -0.081,-0.538 0.02,-0.386 0.081,-0.669 0.183,-1.02 0.081,-0.319 0.202,-0.664 0.344,-0.984 0.244,-0.664 0.527,-1.334 0.701,-1.745 0,0 0.019,-0.126 0.019,-0.319 0,-0.538 -0.193,-1.522 -0.456,-2.445 -0.264,-0.954 -0.608,-1.908 -0.893,-2.572 -0.121,-0.29 -0.456,-0.797 -0.862,-1.395 -0.426,-0.609 -0.979,-1.274 -1.553,-1.938 -1.182,-1.34 -2.592,-2.639 -3.638,-3.182 -0.466,-0.253 -0.979,-0.38 -1.532,-0.38 -0.836,0 -1.796,0.284 -2.76,0.731 -0.959,0.446 -1.918,1.045 -2.754,1.714 -0.31,0.254 -0.757,0.797 -1.188,1.492 -0.431,0.7 -0.857,1.563 -1.247,2.481 -0.818,1.811 -1.533,3.749 -2.127,5.018 -0.162,0.35 -0.304,0.669 -0.486,0.954 -0.102,0.127 -0.188,0.253 -0.331,0.416 -0.303,0.314 -0.714,0.629 -1.181,0.984 -0.472,0.345 -1.025,0.761 -1.558,1.172 -1.1,0.796 -2.227,1.75 -2.775,2.415 -0.451,0.542 -0.802,1.527 -0.984,2.384 -0.183,0.858 -0.223,1.588 -0.223,1.745 l -2.065,-0.066 c 0,-0.031 0.041,-0.852 0.244,-1.902 0.229,-1.081 0.573,-2.38 1.431,-3.466 0.613,-0.731 1.41,-1.43 2.268,-2.095 0.862,-0.665 1.74,-1.334 2.415,-1.841 0.446,-0.315 0.817,-0.635 0.979,-0.792 l 0.122,-0.193 c 0.086,-0.162 0.187,-0.381 0.31,-0.639 0.243,-0.538 0.532,-1.268 0.856,-2.03 0.634,-1.588 1.411,-3.495 2.289,-5.052 0.573,-1.045 1.206,-1.969 1.984,-2.604 0.938,-0.73 2.023,-1.43 3.166,-1.973 1.146,-0.538 2.349,-0.882 3.617,-0.882 0.836,0 1.719,0.152 2.496,0.599 1.101,0.573 2.186,1.527 3.206,2.576 1.04,1.016 1.983,2.157 2.694,3.146 0.477,0.665 0.842,1.268 1.065,1.806 0.325,0.731 0.711,1.745 1.005,2.801 0.284,1.045 0.527,2.09 0.527,3.014 0,0.35 -0.04,0.669 -0.163,1.014 -0.141,0.416 -0.324,0.863 -0.527,1.34 -0.191,0.471 -0.37,0.907 -0.473,1.256 0.464,-0.031 1.24,-0.275 2.047,-0.749 0.852,-0.507 1.755,-1.273 2.444,-2.192 0.579,-0.73 0.903,-1.339 1.086,-1.811 0.183,-0.512 0.223,-0.857 0.223,-1.273 0,-0.508 -0.081,-1.046 -0.162,-1.745 l -0.041,-0.096 c -0.04,-0.067 -0.101,-0.158 -0.202,-0.285 -0.203,-0.258 -0.528,-0.543 -0.903,-0.857 -0.771,-0.67 -1.776,-1.4 -2.638,-2.192 -0.568,-0.507 -1.075,-1.051 -1.451,-1.715 -0.203,-0.355 -0.365,-0.796 -0.365,-1.273 v -0.858 c 0,-0.416 0,-0.791 0.081,-1.207 0.06,-0.416 0.203,-0.857 0.538,-1.268 0.203,-0.254 0.487,-0.477 0.791,-0.64 0.447,-0.187 0.924,-0.253 1.431,-0.253 0.538,0 1.127,0.066 1.816,0.223 2.943,0.67 5.784,1.877 7.53,3.018 0.588,0.351 1.054,0.731 1.43,1.142 0.426,0.543 0.853,1.238 1.329,2.004 0.447,0.761 0.914,1.527 1.299,2.065 0.273,0.345 0.538,0.604 0.558,0.604 0.02,0 0.122,0.065 0.264,0.127 0.142,0.061 0.324,0.157 0.528,0.223 0.415,0.157 0.943,0.345 1.47,0.538 1.025,0.336 2.138,0.643 2.745,0.806 0.068,-0.077 0.142,-0.164 0.218,-0.269 0.376,-0.411 0.843,-1.014 1.37,-1.649 1.025,-1.304 2.172,-2.856 2.74,-3.719 0.163,-0.223 0.284,-0.41 0.304,-0.477 0.132,-0.253 0.436,-1.075 0.782,-1.999 0.324,-0.923 0.721,-1.968 0.984,-2.795 0.163,-0.508 0.305,-0.985 0.325,-1.111 v -0.03 h 0.001 c 0.003,-0.197 0.022,-0.295 0.059,-0.386 0.021,-0.091 0.062,-0.187 0.082,-0.284 0.082,-0.223 0.163,-0.446 0.284,-0.7 0.223,-0.538 0.518,-1.177 0.822,-1.842 0.608,-1.334 1.289,-2.734 1.532,-3.272 0.102,-0.223 0.203,-0.411 0.365,-0.634 0.162,-0.224 0.325,-0.477 0.548,-0.766 0.416,-0.538 0.924,-1.208 1.461,-1.872 1.076,-1.335 2.222,-2.669 2.851,-3.365 0.193,-0.222 0.316,-0.354 0.436,-0.476 0.041,-0.03 0.082,-0.066 0.183,-0.132 0.101,-0.061 0.182,-0.091 0.284,-0.157 0.102,-0.066 0.224,-0.127 0.365,-0.188 0.294,-0.096 0.68,-0.253 1.106,-0.385 0.883,-0.284 2.029,-0.538 3.247,-0.538 0.559,0 1.127,0.061 1.705,0.193 1.39,0.345 3.085,0.984 4.454,1.522 0.625,0.246 1.178,0.475 1.601,0.655 1.953,-6.593 3.017,-13.57 3.017,-20.797 0,-20.202 -8.158,-38.436 -21.4,-51.688 -6.135,-6.132 -13.364,-11.157 -21.357,-14.803 0.153,0.733 0.359,1.535 0.638,2.195 0.223,0.604 0.507,1.08 0.751,1.335 0.345,0.315 0.965,0.857 1.715,1.492 0.72,0.638 1.573,1.369 2.435,2.191 1.695,1.684 3.41,3.718 4.09,6.068 0.487,1.811 1.451,3.815 2.313,5.433 0.873,1.618 1.674,2.857 1.836,3.11 l 0.04,0.036 -1.715,1.141 c -0.019,0 -0.821,-1.237 -1.786,-2.953 -0.953,-1.78 -2.059,-4.038 -2.668,-6.194 -0.375,-1.304 -1.268,-2.669 -2.394,-3.942 -1.107,-1.269 -2.417,-2.415 -3.501,-3.334 -0.731,-0.634 -1.36,-1.177 -1.816,-1.618 -0.549,-0.573 -0.913,-1.273 -1.207,-2.004 -0.305,-0.761 -0.528,-1.558 -0.69,-2.288 -0.14,-0.63 -0.238,-1.205 -0.306,-1.667 -1.866,-0.775 -3.772,-1.472 -5.713,-2.093 -0.264,0.47 -0.58,0.999 -0.912,1.477 -0.264,0.411 -0.548,0.791 -0.852,1.106 -0.295,0.289 -0.599,0.446 -0.924,0.542 -0.305,0.097 -0.64,0.158 -0.985,0.223 -0.71,0.097 -1.552,0.158 -2.45,0.188 -1.796,0.097 -3.921,0.163 -5.738,0.477 -1.329,0.254 -2.004,0.639 -2.475,1.051 -0.452,0.41 -0.696,0.887 -0.98,1.461 -0.182,0.38 -0.37,0.797 -0.715,1.207 -0.182,0.254 -0.451,0.442 -0.715,0.573 -0.269,0.092 -0.553,0.158 -0.797,0.158 -0.39,-0.036 -0.736,-0.096 -1.086,-0.223 -0.324,-0.127 -0.634,-0.254 -0.938,-0.411 -0.614,-0.319 -1.188,-0.731 -1.634,-1.015 -0.289,-0.192 -0.532,-0.355 -0.634,-0.385 h -0.041 c -0.061,-0.031 -0.147,-0.031 -0.269,-0.031 -0.385,0 -0.999,0.096 -1.633,0.193 -0.654,0.091 -1.309,0.223 -1.922,0.223 -0.223,0 -0.426,-0.036 -0.655,-0.066 -0.284,-0.066 -0.528,-0.127 -0.776,-0.254 -0.223,-0.127 -0.406,-0.289 -0.528,-0.411 -0.248,-0.258 -0.35,-0.385 -0.775,-0.7 -0.29,-0.193 -0.716,-0.446 -1.371,-0.761 -0.776,-0.416 -1.511,-0.578 -2.227,-0.578 -1.065,0 -2.126,0.386 -3.171,1.02 -1.04,0.634 -2.045,1.527 -2.943,2.511 -0.02,0.031 -0.142,0.188 -0.263,0.447 -0.122,0.218 -0.269,0.568 -0.411,0.949 -0.304,0.796 -0.634,1.842 -0.979,3.049 -0.675,2.445 -1.411,5.56 -2.085,8.766 -1.37,6.454 -2.598,13.283 -3.065,15.982 -0.142,0.761 -0.207,1.207 -0.207,1.207 l -0.062,0.285 -0.182,0.223 c 0,0.03 -1.593,1.846 -3.003,3.242 -0.346,0.35 -0.756,0.543 -1.167,0.634 -0.427,0.127 -0.858,0.193 -1.304,0.193 -1.289,0 -2.74,-0.386 -4.11,-0.924 -1.349,-0.537 -2.577,-1.268 -3.374,-2.288 -0.365,-0.472 -0.715,-1.05 -1.08,-1.745 -0.35,-0.665 -0.736,-1.431 -1.146,-2.192 -0.838,-1.557 -1.816,-3.146 -2.902,-4.196 -0.716,-0.7 -1.451,-1.142 -2.187,-1.268 -0.345,-0.031 -0.675,-0.062 -0.98,-0.062 -1.43,0 -2.516,0.538 -3.495,1.522 -0.98,1.015 -1.781,2.476 -2.35,4.221 -0.573,1.72 -1.43,2.959 -2.496,3.755 -1.04,0.792 -2.247,1.106 -3.368,1.075 -0.695,0 -1.37,-0.091 -2.004,-0.283 -0.817,-0.255 -1.512,-0.381 -2.146,-0.381 -0.533,0 -1.025,0.097 -1.532,0.284 -0.533,0.223 -1.106,0.543 -1.761,1.05 -1.02,0.822 -2.207,1.112 -3.206,1.081 -0.368,0 -0.707,-0.036 -1.025,-0.086 -2.189,5.393 -3.755,11.103 -4.602,17.05 0.31,0.055 0.678,0.097 1.111,0.097 0.939,-0.035 2.121,-0.192 3.491,-0.766 1.167,-0.543 2.354,-0.73 3.495,-0.73 2.862,0 5.399,1.334 7.154,2.922 0.918,0.827 1.862,1.872 2.862,2.892 0.979,1.015 2.003,2.004 2.963,2.735 0.634,0.477 1.248,0.822 1.78,1.014 1.121,0.346 2.288,0.924 3.369,1.589 1.066,0.695 2.024,1.461 2.699,2.349 0.431,0.573 0.776,1.237 0.776,2.034 0,0.573 -0.223,1.081 -0.471,1.492 -0.264,0.446 -0.589,0.827 -0.939,1.208 -0.695,0.73 -1.512,1.461 -2.106,2.064 -0.406,0.386 -0.715,0.762 -0.775,0.924 l -0.031,0.046 c 0.018,0.078 0.063,0.252 0.152,0.461 0.147,0.285 0.329,0.67 0.573,1.045 0.472,0.832 1.066,1.751 1.492,2.735 0.289,0.664 0.512,1.334 0.512,2.065 0,0.573 -0.081,1.37 -0.203,2.354 -0.106,0.984 -0.269,2.156 -0.411,3.363 -0.304,2.385 -0.613,4.957 -0.613,6.419 0,0.415 0.04,0.73 0.061,0.857 0.289,1.304 1.369,5.718 2.308,8.924 0.329,1.05 0.614,1.974 0.862,2.577 0.125,0.303 0.229,0.528 0.269,0.582 l 0.016,-0.013 c 0.122,0.193 0.411,0.507 0.756,0.893 0.35,0.38 0.776,0.822 1.228,1.334 0.918,0.984 1.963,2.096 2.821,3.11 0.573,0.67 1.06,1.304 1.39,1.847 0.614,0.954 1.411,2.506 2.065,3.81 0.67,1.335 1.182,2.415 1.182,2.415 l 0.061,0.127 0.02,0.157 1.819,11.836 c 8.042,3.715 16.867,6.016 26.165,6.571 1.462,-0.082 2.934,-0.129 4.417,-0.129 1.483,0 2.953,0.047 4.414,0.129 16.39,-0.98 31.305,-7.372 43.023,-17.39 -0.67,-0.289 -1.529,-0.637 -2.277,-0.89 z m -7.327,-55.432 c 0.235,-0.447 0.457,-0.731 0.498,-0.797 l 0.102,-0.127 0.142,-0.092 4.129,-2.668 0.527,-0.355 0.538,0.289 c 0.041,0.031 0.427,0.254 0.934,0.665 0.517,0.386 1.126,0.953 1.593,1.684 0.315,0.508 0.558,1.146 0.578,1.847 0,0.253 -0.061,0.537 -0.142,0.821 -0.294,0.893 -0.903,1.624 -1.644,2.289 -0.751,0.634 -1.654,1.177 -2.588,1.527 -0.639,0.254 -1.268,0.411 -1.948,0.411 -0.426,0 -0.852,-0.066 -1.268,-0.254 -0.405,-0.158 -0.791,-0.477 -1.076,-0.857 -0.598,-0.792 -0.842,-1.655 -0.822,-2.416 10e-4,-0.826 0.225,-1.491 0.447,-1.967 z M 287.805,99.87 v 0.03 l 0.041,0.092 c 0.02,0.132 0.061,0.254 0.101,0.446 0.102,0.35 0.248,0.858 0.431,1.461 0.387,1.147 1,2.542 1.696,3.496 0.471,0.634 0.964,1.05 1.349,1.141 0.163,0.031 0.345,0.067 0.553,0.067 0.487,0 1.101,-0.127 1.755,-0.411 0.655,-0.254 1.329,-0.609 1.943,-0.985 1.228,-0.731 2.208,-1.562 2.41,-1.72 l 0.02,-0.065 1.349,1.562 c -0.039,0.031 -2.267,1.999 -4.804,3.08 -0.857,0.35 -1.756,0.603 -2.674,0.603 -0.37,0 -0.735,-0.061 -1.126,-0.162 -1.04,-0.315 -1.816,-1.045 -2.43,-1.872 -0.614,-0.858 -1.106,-1.811 -1.472,-2.735 -0.776,-1.872 -1.146,-3.551 -1.146,-3.586 z m -22.602,20.649 c 0.243,-0.578 0.488,-1.497 0.675,-2.481 0.183,-0.954 0.345,-2.004 0.487,-2.826 0.106,-0.574 0.187,-1.051 0.31,-1.431 0.142,-0.538 0.446,-1.238 0.756,-1.969 0.325,-0.761 0.654,-1.557 0.877,-2.192 0.142,-0.446 0.243,-0.796 0.243,-0.923 v -0.158 c -0.02,-0.096 -0.02,-0.258 -0.061,-0.446 -0.04,-0.35 -0.141,-0.796 -0.283,-1.08 -0.304,-0.665 -0.513,-1.522 -0.513,-2.415 0,-0.599 0.101,-1.238 0.411,-1.872 0.263,-0.508 0.634,-0.858 1.06,-1.177 0.432,-0.35 0.918,-0.665 1.431,-0.949 1.025,-0.608 2.065,-1.086 2.74,-1.339 0.243,-0.061 0.512,-0.122 0.776,-0.122 0.391,0 0.796,0.122 1.106,0.345 0.284,0.223 0.467,0.507 0.608,0.761 0.269,0.507 0.33,0.984 0.33,1.4 0,0.416 -0.041,0.893 -0.122,1.462 -0.061,0.603 -0.142,1.268 -0.248,1.999 -0.142,1.37 -0.467,4.896 -0.467,6.61 v 0.29 c 0.02,0.629 0.284,1.614 0.614,2.506 0.344,0.858 0.736,1.654 0.938,1.999 0.163,0.289 0.513,0.863 0.797,1.527 0.304,0.7 0.573,1.557 0.573,2.542 0,0.284 -0.021,0.568 -0.081,0.857 -0.082,0.574 -0.33,1.08 -0.614,1.462 -0.33,0.381 -0.695,0.634 -1.045,0.796 -0.715,0.345 -1.345,0.375 -1.634,0.375 h -0.162 l -0.021,-0.03 h -0.02 c -0.289,-0.031 -0.512,-0.091 -0.796,-0.187 -0.249,-0.067 -0.533,-0.158 -0.817,-0.29 -0.594,-0.187 -1.228,-0.411 -1.781,-0.568 -0.365,-0.061 -0.695,-0.127 -0.938,-0.127 h -0.082 c -0.04,0 -0.268,0.066 -0.573,0.254 -0.284,0.187 -0.675,0.476 -1.045,0.827 -0.776,0.73 -1.613,1.618 -2.45,2.415 -0.553,0.538 -1.081,1.015 -1.675,1.329 -0.33,0.193 -0.715,0.355 -1.187,0.355 -0.304,0 -0.634,-0.101 -0.898,-0.254 -0.284,-0.162 -0.513,-0.415 -0.675,-0.67 -0.223,-0.385 -0.329,-0.791 -0.329,-1.207 0,-0.538 0.187,-1.015 0.411,-1.431 0.222,-0.416 0.532,-0.792 0.837,-1.111 0.613,-0.7 1.329,-1.334 1.862,-1.907 0.345,-0.381 0.594,-0.731 0.675,-0.949 z m -7.417,-8.326 c 0.385,-0.573 0.877,-1.08 1.344,-1.557 0.943,-0.923 1.841,-1.588 1.862,-1.588 l 0.325,-0.254 0.431,0.066 c 0.304,0.03 0.573,0.152 0.817,0.314 0.244,0.162 0.431,0.315 0.614,0.538 0.345,0.386 0.634,0.827 0.857,1.339 0.452,1.016 0.736,2.192 0.736,3.268 0,0.446 -0.041,0.893 -0.183,1.304 -0.121,0.446 -0.35,0.857 -0.735,1.176 -0.715,0.604 -1.573,0.797 -2.435,0.797 -0.838,0 -1.674,-0.223 -2.431,-0.639 -0.756,-0.417 -1.43,-1.045 -1.775,-1.938 -0.082,-0.254 -0.147,-0.538 -0.147,-0.792 0.02,-0.796 0.349,-1.43 0.72,-2.034 z m 11.973,39.071 c -0.102,0.893 -0.243,1.938 -0.553,2.861 -0.203,0.604 -0.426,1.177 -0.918,1.655 -0.386,0.344 -0.857,0.669 -1.391,0.983 -0.532,0.315 -1.121,0.635 -1.735,0.924 -1.248,0.634 -2.557,1.208 -3.556,1.649 -0.655,0.289 -1.187,0.507 -1.37,0.603 -0.101,0.031 -0.37,0.254 -0.594,0.574 -0.222,0.319 -0.431,0.73 -0.532,1.05 -0.071,0.164 -0.092,0.291 -0.097,0.343 0.068,0.159 0.247,0.486 0.446,0.799 0.203,0.319 0.427,0.634 0.508,0.761 l 0.045,0.035 0.183,0.254 0.02,0.284 0.065,0.936 c 0.297,0.492 1.002,1.698 1.529,2.94 0.452,1.076 1.289,3.049 1.862,4.222 0.183,0.386 0.345,0.7 0.405,0.766 0.123,0.219 0.392,0.665 0.736,1.268 0.35,0.604 0.756,1.365 1.188,2.096 0.837,1.496 1.674,3.024 1.963,3.501 0.304,0.568 0.609,1.36 0.878,2.06 0.264,0.7 0.446,1.238 0.446,1.238 l -1.959,0.669 c 0,0 -0.04,-0.126 -0.126,-0.35 -0.062,-0.219 -0.163,-0.507 -0.285,-0.827 -0.243,-0.634 -0.552,-1.431 -0.776,-1.776 -0.39,-0.73 -2.106,-3.815 -3.105,-5.591 -0.35,-0.573 -0.614,-1.05 -0.695,-1.177 -0.162,-0.254 -0.33,-0.573 -0.533,-0.984 -0.203,-0.416 -0.431,-0.924 -0.655,-1.43 -0.446,-1.015 -0.938,-2.162 -1.247,-2.892 -0.488,-1.208 -1.284,-2.507 -1.472,-2.796 l -0.04,-0.06 -0.122,-0.224 -0.04,-0.253 -0.063,-0.911 c -0.196,-0.282 -0.512,-0.738 -0.774,-1.185 -0.142,-0.254 -0.264,-0.508 -0.37,-0.797 -0.062,-0.187 -0.082,-0.38 -0.082,-0.542 0,-0.284 0.061,-0.538 0.122,-0.822 0.086,-0.254 0.187,-0.508 0.309,-0.761 0.244,-0.543 0.574,-1.051 0.98,-1.497 0.269,-0.284 0.573,-0.573 0.963,-0.761 0.224,-0.127 0.569,-0.253 1,-0.446 0.451,-0.187 0.979,-0.441 1.532,-0.695 1.146,-0.477 2.475,-1.116 3.516,-1.684 0.675,-0.386 1.248,-0.761 1.511,-0.984 0.04,-0.035 0.244,-0.355 0.37,-0.796 0.142,-0.442 0.264,-1.02 0.345,-1.589 0.163,-1.147 0.223,-2.319 0.223,-2.638 0,-0.381 -0.02,-1.142 -0.06,-1.872 -0.039,-0.713 -0.078,-1.411 -0.099,-1.685 h -0.003 l -0.04,-0.096 c -0.021,-0.061 -0.061,-0.193 -0.122,-0.35 -0.122,-0.254 -0.309,-0.635 -0.492,-1.015 -0.426,-0.828 -0.939,-1.781 -1.41,-2.511 -0.304,-0.508 -0.594,-0.924 -0.756,-1.112 -0.467,-0.573 -0.715,-1.172 -0.696,-1.715 -0.02,-0.411 0.102,-0.73 0.249,-0.954 0.122,-0.222 0.244,-0.35 0.304,-0.41 l 0.122,-0.097 0.162,-0.066 c 0.087,-0.03 2.598,-1.111 7.647,-1.745 1.532,-0.193 2.963,-1.081 4.251,-2.318 1.289,-1.274 2.43,-2.826 3.414,-4.227 0.655,-0.923 1.243,-1.775 1.837,-2.414 0.675,-0.761 1.553,-2.065 2.43,-3.491 0.883,-1.4 1.76,-2.891 2.537,-4.099 0.533,-0.828 1,-1.492 1.471,-1.938 0.391,-0.417 0.878,-0.609 1.35,-0.701 0.472,-0.096 0.959,-0.127 1.471,-0.127 0.999,0 2.145,0.097 3.394,0.097 2.046,0 4.292,-0.254 6.372,-1.491 1.735,-1.051 3.785,-3.212 5.418,-5.18 1.613,-1.974 2.841,-3.78 3.085,-4.166 l 0.06,-0.061 1.715,1.111 c 0,0.036 -1.228,1.841 -2.963,4.034 -1.734,2.161 -3.987,4.637 -6.249,6.007 -2.578,1.522 -5.231,1.806 -7.439,1.806 -1.349,0 -2.516,-0.092 -3.394,-0.092 -0.451,0 -0.817,0.031 -1.044,0.061 -0.245,0.066 -0.325,0.132 -0.325,0.132 -0.183,0.188 -0.492,0.568 -0.817,1.076 -0.35,0.507 -0.736,1.116 -1.147,1.78 -0.837,1.335 -1.755,2.892 -2.633,4.257 -0.614,0.923 -1.187,1.714 -1.781,2.354 -0.674,0.73 -1.613,2.192 -2.74,3.713 -1.141,1.522 -2.491,3.146 -4.164,4.353 -1.127,0.792 -2.415,1.4 -3.866,1.553 -3.521,0.456 -5.7,1.106 -6.605,1.416 0.032,0.062 0.073,0.132 0.146,0.208 0.269,0.314 0.533,0.7 0.821,1.146 0.285,0.477 0.589,0.984 0.878,1.522 0.594,1.045 1.142,2.13 1.41,2.826 0.082,0.223 0.142,0.35 0.183,0.634 0.04,0.417 0.081,1.117 0.122,1.907 0.02,0.731 0.04,1.492 0.04,1.938 0.003,0.319 -0.018,1.08 -0.099,1.999 z"
       fill="url(#v)"
       id="path59"
       style="fill:url(#v)" />
    <path
       d="m 277.134,202.413 c -12.382,0.704 -23.941,4.484 -33.918,10.597 7.046,0.924 19.912,3.437 33.433,10.178 16.03,8.05 27.131,19.45 31.04,23.827 0.625,-0.923 1.226,-1.853 1.78,-2.793 2.922,-4.922 4.921,-10.006 6.271,-14.642 2.419,-8.223 2.812,-15.046 2.885,-17.079 -9.776,-5.809 -21.02,-9.403 -33.057,-10.088 -1.395,0.076 -2.8,0.117 -4.213,0.117 -1.417,0 -2.823,-0.041 -4.221,-0.117 z"
       fill="url(#w)"
       id="path60"
       style="fill:url(#w)" />
    <path
       d="m 253.819,96.404 c -0.021,0.031 -0.082,0.097 -0.264,0.128 -0.188,0.06 -0.452,0.091 -0.756,0.091 -0.903,0 -2.187,-0.284 -3.334,-0.76 -1.146,-0.442 -2.145,-1.112 -2.537,-1.619 -0.304,-0.411 -0.735,-1.207 -1.222,-2.162 -0.249,-0.41 -0.472,-0.888 -0.736,-1.364 l -2.76,-0.701 c 0.305,0.478 0.594,1.016 0.878,1.528 0.411,0.761 0.797,1.527 1.146,2.192 0.366,0.695 0.715,1.273 1.081,1.745 0.101,0.127 0.203,0.259 0.309,0.35 l 9.234,2.354 c 0.147,-0.101 0.289,-0.193 0.41,-0.32 1.411,-1.395 3.004,-3.211 3.004,-3.242 l 0.182,-0.222 0.061,-0.285 -2.08,-0.507 c -0.511,0.567 -1.637,1.81 -2.616,2.794 z"
       fill="url(#y)"
       id="path61"
       style="fill:url(#y)" />
    <path
       d="m 215.539,86.11 c -0.162,0.285 -1.08,1.877 -1.08,1.877 l 3.759,0.919 c 0.837,-1.461 1.755,-2.887 2.694,-4.287 l -3.779,-0.954 c -0.001,0 -1.432,2.161 -1.594,2.445 z"
       fill="url(#z)"
       id="path62"
       style="fill:url(#z)" />
    <path
       d="m 275.218,99.484 c -0.309,-0.223 -0.715,-0.345 -1.105,-0.345 -0.265,0 -0.534,0.061 -0.777,0.122 -0.674,0.254 -1.714,0.731 -2.739,1.339 -0.513,0.284 -1,0.599 -1.432,0.949 -0.081,0.066 -0.162,0.127 -0.243,0.193 l 2.638,0.664 c 0.244,-0.157 0.508,-0.284 0.756,-0.41 0.671,-0.351 1.345,-0.635 1.696,-0.767 v -0.03 c 0.06,0.132 0.101,0.35 0.081,0.446 0.021,0.223 -0.021,0.67 -0.102,1.239 0,0.03 0,0.096 -0.02,0.126 l 2.025,0.513 c 0.02,-0.132 0.04,-0.289 0.04,-0.416 0.081,-0.569 0.121,-1.045 0.121,-1.462 0,-0.416 -0.06,-0.893 -0.329,-1.4 -0.143,-0.254 -0.326,-0.538 -0.61,-0.761 z"
       fill="url(#A)"
       id="path63"
       style="fill:url(#A)" />
    <path
       d="m 229.212,91.133 c -0.06,0.188 -0.121,0.345 -0.182,0.508 l 1.999,0.507 c 0.066,-0.127 0.106,-0.254 0.147,-0.386 0.527,-1.613 1.263,-3.013 2.146,-3.998 l -2.187,-0.543 c -0.796,1.112 -1.43,2.451 -1.923,3.912 z"
       fill="url(#B)"
       id="path64"
       style="fill:url(#B)" />
    <path
       d="m 357.9,119.245 -3.856,-0.984 c 0.162,1.679 0.285,3.363 0.345,5.078 l 3.754,0.954 c -0.02,-1.426 -0.081,-2.857 -0.182,-4.252 -0.021,-0.253 -0.041,-0.543 -0.061,-0.796 z"
       fill="url(#C)"
       id="path65"
       style="fill:url(#C)" />
    <path
       d="m 306.566,109.748 c -0.354,0.411 -0.699,0.827 -1.064,1.238 l 2.232,0.573 c 0.264,-0.319 0.508,-0.609 0.731,-0.893 1.086,-1.365 1.959,-2.572 2.476,-3.303 l -2.151,-0.543 c -0.549,0.797 -1.331,1.847 -2.224,2.928 z"
       fill="url(#D)"
       id="path66"
       style="fill:url(#D)" />
    <path
       d="m 297.47,103.964 c -0.446,0.35 -1.081,0.796 -1.796,1.243 -0.614,0.375 -1.288,0.73 -1.943,0.984 -0.654,0.284 -1.268,0.411 -1.755,0.411 -0.208,0 -0.39,-0.035 -0.553,-0.066 -0.386,-0.092 -0.878,-0.507 -1.349,-1.141 -0.695,-0.954 -1.309,-2.35 -1.696,-3.496 -0.019,-0.092 -0.039,-0.158 -0.06,-0.254 l -2.333,-0.568 c 0.188,0.664 0.491,1.714 0.963,2.82 0.366,0.923 0.858,1.877 1.472,2.735 0.02,0 0.02,0.036 0.04,0.036 l 5.905,1.491 c 0.103,-0.03 0.183,-0.066 0.285,-0.097 2.537,-1.08 4.764,-3.048 4.804,-3.079 l -0.578,-0.669 z"
       fill="url(#E)"
       id="path67"
       style="fill:url(#E)" />
    <path
       d="m 315.74,229.58 c -0.102,0.344 -0.203,0.689 -0.304,1.044 l 3.612,0.924 c 0.436,-1.339 0.781,-2.668 1.106,-3.937 l -3.632,-0.924 c -0.235,0.955 -0.498,1.909 -0.782,2.893 z"
       fill="url(#F)"
       id="path68"
       style="fill:url(#F)" />
    <path
       d="m 243.54,208.453 c -0.512,0.316 -1.573,0.954 -1.903,1.137 -0.426,0.255 -2.719,1.716 -2.719,1.716 l 5.008,1.279 c 1.719,-1.057 3.495,-2.009 5.317,-2.892 l -5.439,-1.371 c -0.082,0.03 -0.183,0.092 -0.264,0.131 z"
       fill="url(#G)"
       id="path69"
       style="fill:url(#G)" />
    <path
       d="m 346.231,234.216 -5.439,-1.4 c 0.619,0.893 1.228,1.745 1.806,2.669 0.508,0.792 1.016,1.584 1.512,2.416 l 5.003,1.237 c -0.811,-1.521 -1.675,-3.013 -2.597,-4.474 -0.102,-0.163 -0.204,-0.325 -0.285,-0.448 z"
       fill="url(#H)"
       id="path70"
       style="fill:url(#H)" />
    <path
       d="m 339.636,232.533 c -0.315,0.983 -0.761,2.282 -1.33,3.875 l 3.634,0.924 c 0.243,-0.669 0.476,-1.279 0.658,-1.847 -0.577,-0.924 -1.187,-1.776 -1.806,-2.669 z"
       fill="url(#I)"
       id="path71"
       style="fill:url(#I)" />
    <path
       d="m 315.436,230.625 -55.549,-14.013 c -3.309,-1.014 -6.414,-1.744 -9.194,-2.344 l -6.767,-1.683 c 1.719,-1.057 3.495,-2.009 5.317,-2.892 l 67.279,16.994 c -0.234,0.955 -0.498,1.909 -0.782,2.893 -0.102,0.344 -0.203,0.689 -0.304,1.045 m 22.87,5.783 -19.259,-4.86 c 0.437,-1.339 0.782,-2.668 1.106,-3.937 l 19.483,4.922 c -0.315,0.983 -0.761,2.282 -1.33,3.875 m 5.804,1.492 -2.17,-0.569 c 0.243,-0.669 0.476,-1.278 0.658,-1.847 0.508,0.793 1.015,1.585 1.512,2.416"
       fill="#caccd0"
       id="path72" />
    <path
       d="m 274.011,101.199 v 0.03 c -0.35,0.132 -1.025,0.417 -1.695,0.767 -0.248,0.126 -0.513,0.253 -0.756,0.41 l 2.41,0.604 c 0.02,-0.03 0.02,-0.096 0.02,-0.126 0.081,-0.569 0.122,-1.015 0.102,-1.239 0.021,-0.096 -0.02,-0.314 -0.081,-0.446 z"
       fill="url(#K)"
       id="path73"
       style="fill:url(#K)" />
    <path
       d="m 244.97,90.717 c 0.264,0.477 0.487,0.954 0.736,1.365 0.487,0.953 0.918,1.75 1.222,2.161 0.392,0.508 1.391,1.177 2.537,1.619 1.147,0.477 2.431,0.761 3.334,0.761 0.304,0 0.568,-0.031 0.756,-0.092 0.182,-0.031 0.243,-0.096 0.264,-0.127 0.979,-0.984 2.105,-2.227 2.617,-2.795 z"
       fill="url(#L)"
       id="path74"
       style="fill:url(#L)" />
    <path
       d="m 244.235,93.736 c -0.35,-0.665 -0.736,-1.431 -1.146,-2.192 -0.285,-0.512 -0.574,-1.051 -0.878,-1.528 l -8.888,-2.252 c -0.883,0.984 -1.619,2.385 -2.147,3.998 -0.04,0.132 -0.081,0.259 -0.147,0.386 l 14.597,3.684 c -0.106,-0.092 -0.209,-0.224 -0.31,-0.351 -0.366,-0.472 -0.716,-1.05 -1.081,-1.745 z"
       fill="url(#M)"
       id="path75"
       style="fill:url(#M)" />
    <path
       d="m 286.948,103.898 c -0.472,-1.106 -0.776,-2.156 -0.964,-2.821 l -27.468,-6.961 -0.061,0.285 -0.182,0.223 c 0,0.03 -1.593,1.846 -3.004,3.242 -0.121,0.127 -0.263,0.218 -0.41,0.32 l 14.063,3.556 c 0.081,-0.066 0.163,-0.127 0.243,-0.193 0.432,-0.35 0.919,-0.665 1.432,-0.949 1.025,-0.608 2.065,-1.086 2.739,-1.339 0.244,-0.061 0.513,-0.122 0.777,-0.122 0.39,0 0.796,0.122 1.105,0.345 0.284,0.223 0.467,0.507 0.609,0.761 0.269,0.507 0.329,0.984 0.329,1.4 0,0.416 -0.04,0.893 -0.121,1.462 0,0.127 -0.021,0.284 -0.041,0.416 l 12.465,3.146 c -0.019,0 -0.019,-0.036 -0.04,-0.036 -0.614,-0.858 -1.106,-1.812 -1.471,-2.735 z"
       fill="url(#N)"
       id="path76"
       style="fill:url(#N)" />
    <path
       d="m 220.912,84.619 c -0.938,1.401 -1.857,2.826 -2.694,4.287 l 10.812,2.735 c 0.061,-0.163 0.122,-0.32 0.182,-0.508 0.493,-1.461 1.127,-2.8 1.923,-3.911 z"
       fill="url(#O)"
       id="path77"
       style="fill:url(#O)" />
    <path
       d="m 310.94,107.363 c -0.517,0.731 -1.39,1.938 -2.476,3.303 -0.222,0.284 -0.467,0.573 -0.731,0.893 l 46.656,11.781 c -0.06,-1.716 -0.183,-3.399 -0.345,-5.079 z"
       fill="url(#P)"
       id="path78"
       style="fill:url(#P)" />
    <path
       d="m 298.876,104.314 0.577,0.67 c -0.039,0.03 -2.267,1.999 -4.804,3.079 -0.102,0.031 -0.182,0.066 -0.284,0.097 l 11.136,2.826 c 0.365,-0.411 0.711,-0.828 1.065,-1.239 0.893,-1.08 1.675,-2.131 2.223,-2.927 z"
       fill="url(#Q)"
       id="path79"
       style="fill:url(#Q)" />
    <path
       d="m 297.47,103.964 -9.152,-2.319 c 0.02,0.097 0.04,0.163 0.06,0.254 0.386,1.147 0.999,2.542 1.695,3.496 0.472,0.634 0.964,1.05 1.35,1.141 0.162,0.031 0.344,0.067 0.552,0.067 0.487,0 1.101,-0.127 1.756,-0.411 0.655,-0.254 1.329,-0.609 1.943,-0.985 0.715,-0.447 1.35,-0.893 1.796,-1.243 z"
       fill="url(#R)"
       id="path80"
       style="fill:url(#R)" />
    <path
       d="m 235.199,321.825 c 0.943,1.755 1.882,3.399 2.82,4.932 l 16.124,4.099 c -1,-1.624 -1.978,-3.278 -2.943,-4.992 z"
       fill="url(#T)"
       id="path81"
       style="fill:url(#T)" />
    <path
       d="m 222.47,318.619 c 1.345,1.845 2.795,3.592 4.312,5.306 l 6.17,1.564 c -0.878,-1.564 -1.736,-3.188 -2.573,-4.861 z"
       fill="url(#U)"
       id="path82"
       style="fill:url(#U)" />
    <path
       d="m 256.269,327.162 c 1.065,1.757 2.126,3.44 3.171,5.022 l 21.151,5.339 c -1.08,-1.583 -2.186,-3.268 -3.313,-5.054 z"
       fill="url(#V)"
       id="path83"
       style="fill:url(#V)" />
    <path
       d="m 305.887,343.904 0.436,0.133 c 2.141,-0.792 4.242,-1.685 6.311,-2.639 l -1.957,-0.507 c -1.685,1.147 -3.278,2.13 -4.79,3.013 z"
       fill="url(#W)"
       id="path84"
       style="fill:url(#W)" />
    <path
       d="m 285.314,337.746 c 0.284,0.415 0.569,0.791 0.858,1.177 l 14.469,3.683 c 1.553,-0.863 3.247,-1.806 5.084,-2.953 l -23.13,-5.846 c 0.918,1.402 1.837,2.7 2.719,3.939 z"
       fill="url(#X)"
       id="path85"
       style="fill:url(#X)" />
    <path
       d="m 251.2,325.864 c 0.965,1.714 1.943,3.368 2.943,4.992 l 5.297,1.328 c -1.045,-1.582 -2.106,-3.265 -3.171,-5.022 z"
       fill="url(#Z)"
       id="path86"
       style="fill:url(#Z)" />
    <path
       d="m 230.379,320.628 c 0.837,1.673 1.695,3.297 2.573,4.861 l 5.068,1.268 c -0.939,-1.533 -1.877,-3.177 -2.821,-4.932 z"
       fill="url(#aa)"
       id="path87"
       style="fill:url(#aa)" />
    <path
       d="m 282.595,333.807 -5.317,-1.338 c 1.126,1.786 2.232,3.471 3.313,5.053 l 5.58,1.4 c -0.289,-0.386 -0.573,-0.761 -0.857,-1.176 -0.882,-1.239 -1.801,-2.537 -2.719,-3.939 z"
       fill="url(#ab)"
       id="path88"
       style="fill:url(#ab)" />
    <path
       d="m 217.011,317.227 c 0,0 1.674,2.508 2.004,2.954 0.345,0.476 1.654,2.192 1.654,2.192 l 6.113,1.552 c -1.517,-1.714 -2.968,-3.461 -4.312,-5.306 z"
       fill="url(#ac)"
       id="path89"
       style="fill:url(#ac)" />
    <path
       d="m 306.323,344.037 6.068,1.521 c 0,0 3.674,-1.775 4.008,-1.937 0.305,-0.193 1.472,-0.924 1.472,-0.924 l -5.236,-1.299 c -2.07,0.954 -4.171,1.847 -6.312,2.639 z"
       fill="url(#ad)"
       id="path90"
       style="fill:url(#ad)" />
    <path
       d="m 305.725,339.653 c -1.836,1.147 -3.531,2.09 -5.084,2.953 l 5.246,1.298 c 1.512,-0.882 3.105,-1.866 4.79,-3.013 z"
       fill="url(#ae)"
       id="path91"
       style="fill:url(#ae)" />
    <path
       d="m 187.62,275.291 c 0,0 -2.653,11.243 -4.962,22.009 -2.313,10.776 4.145,12.268 11.076,14.044 6.946,1.755 174.364,44.383 174.364,44.383 l -10.523,-18.235 18.721,-14.712 z"
       fill="url(#ag)"
       id="path92"
       style="fill:url(#ag)" />
    <path
       d="M 370.269,90.18 C 366.281,88.84 188.949,44.336 188.949,44.336 l 10.3,18.584 -15.267,12.962 186.937,47.493 c 0,0 4.656,-16.616 5.986,-22.237 1.33,-5.657 -2.648,-9.66 -6.636,-10.958 z"
       fill="url(#ah)"
       id="path93"
       style="fill:url(#ah)" />
    <path
       d="m 365.277,206.547 c -10.604,-2.73 -175.795,-43.655 -175.795,-43.655 0,0 -4.637,18.396 -5.824,23.033 -1.187,4.607 3.206,7.559 12.689,10.258 9.487,2.735 171.588,44.223 171.588,44.223 l 6.525,-20.141 c 1.654,-5.997 2.242,-10.796 -9.183,-13.718 z"
       fill="url(#ai)"
       id="path94"
       style="fill:url(#ai)" />
    <path
       d="m 208.898,59.333 5.434,1.395 c 2.537,0.634 3.927,2.257 3.293,4.734 -0.431,1.715 -1.695,2.861 -3.186,2.765 v 0.031 c 1.06,0.446 2.572,1.364 1.796,4.383 -0.452,1.781 -1.816,3.942 -5.966,2.892 l -5.17,-1.334 z m 0.366,13.181 1.065,0.284 c 1.41,0.354 2.126,-0.411 2.39,-1.462 0.37,-1.461 -0.224,-2.283 -1.31,-2.537 l -1.121,-0.319 z m 1.618,-6.352 0.958,0.254 c 1.208,0.283 1.877,-0.254 2.146,-1.335 0.203,-0.766 0,-1.714 -1.268,-2.034 l -0.98,-0.254 z"
       id="path95" />
    <path
       d="m 220.871,62.377 3.496,0.893 -3.78,14.896 -3.515,-0.883 z"
       id="path96" />
    <path
       d="m 226.554,63.838 5.885,1.497 c 2.988,0.76 3.536,2.856 3.008,4.896 -0.553,2.156 -1.7,3.013 -3.414,2.983 l -0.02,0.03 c 2.166,0.893 1.917,2.318 1.45,4.323 -0.675,2.953 -0.655,3.267 -0.203,3.622 l -0.04,0.188 -3.785,-0.954 c -0.142,-0.573 -0.04,-1.426 0.391,-3.11 0.675,-2.608 0.446,-3.242 -0.655,-3.531 l -1.329,-0.315 -1.573,6.128 -3.496,-0.888 z m 1.923,7.153 1.08,0.284 c 1.41,0.351 2.045,-0.603 2.273,-1.491 0.284,-1.116 0.061,-1.969 -1.329,-2.324 l -1.066,-0.284 z"
       id="path97" />
    <path
       d="m 238.06,66.766 5.13,1.303 -0.655,10.259 h 0.041 l 4.272,-9.34 5.048,1.304 -3.78,14.895 -3.247,-0.852 2.942,-11.568 -0.04,-0.03 -5.215,11.025 -2.715,-0.7 0.548,-12.202 h -0.04 l -2.943,11.598 -3.125,-0.827 z"
       id="path98" />
    <path
       d="m 253.981,70.829 3.516,0.893 -3.8,14.866 -3.496,-0.893 z"
       id="path99" />
    <path
       d="m 259.48,72.229 4.004,1.015 0.431,10.421 h 0.04 l 2.451,-9.69 3.252,0.857 -3.78,14.871 -3.967,-1.02 -0.447,-11.025 h -0.045 l -2.613,10.233 -3.126,-0.796 z"
       id="path100" />
    <path
       d="m 276.933,81.504 c 0.244,-0.984 0.533,-2.507 -0.756,-2.862 -1.451,-0.344 -1.984,1.051 -3.004,5.023 -1.025,4.069 -1.146,5.429 0.244,5.784 1.187,0.314 1.882,-0.67 2.389,-2.699 l 0.127,-0.513 -1.639,-0.411 0.594,-2.323 4.906,1.242 -2.044,7.971 -2.39,-0.598 0.264,-1.431 -0.04,-0.03 c -0.878,1.207 -2.289,1.238 -3.638,0.918 -3.739,-0.954 -3.658,-3.906 -2.471,-8.549 1.243,-4.86 2.39,-7.97 7.356,-6.697 4.515,1.172 3.901,4.317 3.475,6.033 z"
       id="path101" />
    <path
       d="m 283.432,78.328 3.516,0.893 -1.431,5.555 2.801,0.731 1.41,-5.555 3.516,0.882 -3.805,14.87 -3.496,-0.887 1.619,-6.353 -2.8,-0.699 -1.615,6.351 -3.495,-0.893 z"
       id="path102" />
    <path
       d="m 298.328,82.143 4.372,1.107 -0.081,15.824 -3.642,-0.924 0.193,-2.988 -3.557,-0.882 -1.248,2.699 -3.638,-0.924 z m 1.43,3.237 h -0.04 l -2.922,6.29 2.537,0.671 z"
       id="path103" />
    <path
       d="m 307.582,84.492 5.134,1.304 -0.65,10.228 0.041,0.031 4.272,-9.341 5.043,1.304 -3.785,14.866 -3.247,-0.823 2.943,-11.567 -0.041,-0.031 -5.205,11.02 -2.72,-0.695 0.549,-12.202 h -0.041 l -2.943,11.568 -3.125,-0.797 z"
       id="path104" />
    <path
       d="m 333.953,96.724 c 0.549,-2.191 0.549,-3.211 -0.619,-3.501 -1.41,-0.344 -1.857,0.955 -2.861,4.83 -1.127,4.42 -1.269,5.626 0.182,5.977 1.289,0.345 1.827,-1.116 2.436,-3.399 l 3.368,0.852 -0.122,0.513 c -0.811,3.211 -2.323,5.402 -6.656,4.287 -4.495,-1.142 -3.987,-4.607 -2.841,-9.082 0.954,-3.815 2.14,-7.564 7.113,-6.291 3.084,0.761 4.434,2.537 3.531,6.038 l -0.162,0.629 z"
       id="path105" />
    <path
       d="m 340.244,92.818 3.511,0.883 -3.795,14.87 -3.501,-0.889 z"
       id="path106" />
    <path
       d="m 347.378,97.642 -3.125,-0.796 0.73,-2.826 9.751,2.481 -0.71,2.826 -3.136,-0.797 -3.084,12.075 -3.491,-0.923 z"
       id="path107" />
    <path
       d="m 356.348,106.536 -1.472,-10.004 3.887,0.984 0.263,5.971 h 0.041 l 3.105,-5.078 3.764,0.948 -6.087,8.072 -1.493,5.845 -3.5,-0.893 z"
       id="path108" />
    <g
       fill="#ffffff"
       id="g122">
      <path
         d="m 208.366,58.79 5.438,1.395 c 2.532,0.64 3.922,2.258 3.288,4.739 -0.426,1.745 -1.695,2.856 -3.186,2.76 v 0.066 c 1.06,0.441 2.572,1.334 1.796,4.383 -0.446,1.751 -1.816,3.907 -5.966,2.857 l -5.17,-1.299 z m 0.37,13.186 1.06,0.284 c 1.411,0.35 2.126,-0.416 2.39,-1.462 0.37,-1.461 -0.223,-2.252 -1.304,-2.541 l -1.127,-0.289 z m 1.613,-6.352 0.959,0.254 c 1.208,0.315 1.882,-0.254 2.146,-1.309 0.203,-0.792 0,-1.715 -1.268,-2.029 l -0.979,-0.254 z"
         id="path109" />
      <path
         d="m 220.344,61.839 3.49,0.893 -3.779,14.895 -3.496,-0.887 z"
         id="path110" />
      <path
         d="m 226.046,63.3 5.866,1.492 c 2.983,0.766 3.536,2.862 3.023,4.896 -0.553,2.191 -1.715,3.019 -3.435,2.988 l -0.02,0.061 c 2.166,0.858 1.923,2.288 1.451,4.322 -0.675,2.954 -0.655,3.268 -0.203,3.587 l -0.04,0.188 -3.78,-0.949 c -0.147,-0.573 -0.021,-1.43 0.406,-3.114 0.654,-2.603 0.431,-3.207 -0.675,-3.496 l -1.329,-0.345 -1.573,6.16 -3.496,-0.924 z m 1.898,7.185 1.086,0.253 c 1.41,0.375 2.065,-0.609 2.288,-1.461 0.284,-1.147 0.061,-2.005 -1.35,-2.354 l -1.06,-0.254 z"
         id="path111" />
      <path
         d="m 237.528,66.223 5.134,1.304 -0.654,10.263 h 0.04 l 4.272,-9.31 5.068,1.273 -3.805,14.896 -3.247,-0.826 2.943,-11.594 h -0.041 l -5.21,10.99 -2.719,-0.7 0.552,-12.197 h -0.04 l -2.943,11.598 -3.13,-0.796 z"
         id="path112" />
      <path
         d="m 253.473,70.292 3.491,0.887 -3.8,14.901 -3.496,-0.893 z"
         id="path113" />
      <path
         d="m 258.948,71.691 4.028,1.016 0.406,10.42 h 0.041 l 2.455,-9.659 3.247,0.827 -3.78,14.865 -3.967,-0.985 -0.447,-11.054 h -0.04 l -2.618,10.258 -3.125,-0.791 z"
         id="path114" />
      <path
         d="m 276.4,80.966 c 0.248,-0.953 0.533,-2.511 -0.756,-2.831 -1.451,-0.375 -1.984,1.05 -3.004,4.993 -1.019,4.063 -1.146,5.428 0.244,5.779 1.187,0.319 1.882,-0.665 2.395,-2.699 l 0.122,-0.478 -1.634,-0.41 0.589,-2.354 4.906,1.238 -2.045,8.006 -2.389,-0.634 0.263,-1.425 h -0.04 c -0.878,1.171 -2.288,1.238 -3.637,0.882 -3.739,-0.948 -3.658,-3.876 -2.471,-8.544 1.248,-4.86 2.389,-7.94 7.356,-6.666 4.515,1.141 3.901,4.317 3.476,6.002 z"
         id="path115" />
      <path
         d="m 282.899,77.79 3.516,0.918 -1.431,5.561 2.801,0.695 1.411,-5.556 3.515,0.888 -3.8,14.866 -3.496,-0.883 1.614,-6.357 -2.801,-0.701 -1.613,6.358 -3.495,-0.893 z"
         id="path116" />
      <path
         d="m 297.8,81.6 4.373,1.111 -0.081,15.819 -3.642,-0.918 0.182,-2.988 -3.551,-0.888 -1.249,2.699 -3.637,-0.918 z m 1.431,3.242 h -0.041 l -2.922,6.322 2.526,0.634 z"
         id="path117" />
      <path
         d="m 307.054,83.949 5.135,1.304 -0.66,10.264 h 0.041 l 4.271,-9.31 5.074,1.274 -3.806,14.895 -3.247,-0.827 2.943,-11.593 h -0.04 l -5.216,10.989 -2.72,-0.7 0.558,-12.196 h -0.04 l -2.943,11.597 -3.135,-0.796 z"
         id="path118" />
      <path
         d="m 333.415,96.181 c 0.558,-2.162 0.558,-3.176 -0.608,-3.496 -1.41,-0.344 -1.857,0.954 -2.862,4.861 -1.126,4.414 -1.268,5.591 0.183,5.976 1.288,0.315 1.816,-1.116 2.435,-3.434 l 3.369,0.857 -0.122,0.538 c -0.822,3.211 -2.333,5.373 -6.666,4.262 -4.496,-1.147 -3.978,-4.576 -2.842,-9.056 0.965,-3.81 2.151,-7.595 7.113,-6.321 3.085,0.796 4.434,2.541 3.542,6.037 l -0.163,0.634 z"
         id="path119" />
      <path
         d="m 339.717,92.274 3.51,0.888 -3.805,14.901 -3.49,-0.887 z"
         id="path120" />
      <path
         d="m 346.85,97.135 -3.135,-0.827 0.741,-2.826 9.75,2.476 -0.72,2.861 -3.125,-0.796 -3.065,12.044 -3.521,-0.893 z"
         id="path121" />
      <path
         d="m 355.82,105.999 -1.471,-9.975 3.876,0.984 0.274,5.941 h 0.04 l 3.106,-5.083 3.753,0.953 -6.067,8.068 -1.492,5.849 -3.51,-0.893 z"
         id="path122" />
    </g>
    <path
       d="m 215.195,177.889 8.497,2.162 -0.715,2.825 -5.048,-1.304 -0.736,2.953 4.744,1.207 -0.715,2.801 -4.744,-1.208 -1.573,6.16 -3.475,-0.888 z"
       id="path123" />
    <path
       d="m 226.087,196.63 c -4.561,-1.141 -4.414,-4.256 -3.232,-8.959 1.188,-4.668 2.577,-7.499 7.133,-6.322 4.906,1.238 4.252,4.891 3.206,8.96 -1.039,4.099 -2.206,7.59 -7.107,6.321 m 0.569,-2.283 c 1.39,0.345 1.942,-0.893 2.962,-4.962 1.025,-4.027 1.146,-5.367 -0.243,-5.712 -1.37,-0.356 -1.898,0.888 -2.923,4.921 -1.04,4.033 -1.166,5.398 0.204,5.753 z"
       id="path124" />
    <path
       d="m 237.877,199.649 c -4.555,-1.141 -4.414,-4.287 -3.226,-8.954 1.182,-4.673 2.572,-7.499 7.128,-6.326 4.906,1.242 4.251,4.86 3.211,8.959 -1.044,4.063 -2.207,7.558 -7.113,6.321 m 0.575,-2.318 c 1.39,0.35 1.917,-0.893 2.962,-4.922 1.02,-4.038 1.142,-5.403 -0.249,-5.753 -1.364,-0.35 -1.897,0.893 -2.922,4.957 -1.04,4.033 -1.162,5.367 0.209,5.718 z"
       id="path125" />
    <path
       d="m 250.079,189.771 -3.084,-0.797 0.694,-2.795 9.666,2.445 -0.715,2.801 -3.105,-0.766 -3.03,11.91 -3.469,-0.883 z"
       id="path126" />
    <path
       d="m 258.496,188.909 5.378,1.4 c 2.511,0.639 3.882,2.222 3.268,4.668 -0.447,1.719 -1.695,2.831 -3.166,2.734 v 0.066 c 1.045,0.447 2.557,1.329 1.801,4.315 -0.452,1.756 -1.821,3.918 -5.911,2.861 l -5.129,-1.298 z m 0.371,13.061 1.04,0.284 c 1.41,0.355 2.105,-0.415 2.374,-1.463 0.365,-1.426 -0.229,-2.253 -1.288,-2.506 l -1.127,-0.284 z m 1.593,-6.293 0.958,0.253 c 1.187,0.289 1.862,-0.253 2.126,-1.299 0.187,-0.761 0,-1.684 -1.264,-2.004 l -0.963,-0.254 z"
       id="path127" />
    <path
       d="m 273.011,192.627 4.333,1.111 -0.086,15.629 -3.597,-0.883 0.187,-2.953 -3.516,-0.892 -1.228,2.668 -3.597,-0.924 z m 1.426,3.212 h -0.04 l -2.902,6.222 2.516,0.67 z"
       id="path128" />
    <path
       d="m 282.083,194.946 3.455,0.893 -3.024,11.914 5.007,1.268 -0.715,2.792 -8.483,-2.151 z"
       id="path129" />
    <path
       d="m 291.586,197.361 3.454,0.893 -3.024,11.915 5.008,1.269 -0.715,2.789 -8.483,-2.151 z"
       id="path130" />
    <path
       d="m 311.265,207.815 c 0.548,-2.132 0.548,-3.146 -0.609,-3.429 -1.39,-0.356 -1.847,0.923 -2.821,4.798 -1.126,4.353 -1.269,5.521 0.183,5.907 1.268,0.314 1.795,-1.116 2.385,-3.401 l 3.357,0.863 -0.141,0.508 c -0.802,3.175 -2.294,5.295 -6.586,4.22 -4.434,-1.146 -3.946,-4.545 -2.8,-8.96 0.964,-3.774 2.131,-7.495 7.032,-6.259 3.044,0.8 4.373,2.547 3.49,6.007 l -0.162,0.608 z"
       id="path131" />
    <path
       d="m 317.434,203.94 3.46,0.891 -3.023,11.912 5.002,1.269 -0.71,2.832 -8.484,-2.161 z"
       id="path132" />
    <path
       d="m 333.933,218.652 c -0.74,2.891 -2.151,4.95 -6.159,3.906 -4.019,-1.015 -4.272,-3.5 -3.531,-6.392 l 2.516,-9.843 3.45,0.893 -2.761,10.857 c -0.304,1.147 -0.019,1.937 0.903,2.192 0.934,0.223 1.573,-0.345 1.858,-1.492 l 2.759,-10.867 3.471,0.894 z"
       id="path133" />
    <path
       d="m 338.367,209.276 5.368,1.369 c 2.516,0.661 3.886,2.254 3.257,4.698 -0.437,1.716 -1.674,2.83 -3.146,2.729 v 0.072 c 1.036,0.405 2.547,1.298 1.777,4.313 -0.437,1.755 -1.807,3.906 -5.906,2.861 l -5.114,-1.299 z m 0.345,13.058 1.066,0.254 c 1.41,0.376 2.099,-0.416 2.363,-1.43 0.376,-1.431 -0.222,-2.254 -1.288,-2.506 l -1.116,-0.296 z m 1.613,-6.291 0.945,0.255 c 1.207,0.283 1.857,-0.255 2.14,-1.299 0.183,-0.772 -0.02,-1.714 -1.268,-2.04 l -0.974,-0.223 z"
       id="path134" />
    <path
       d="m 214.661,177.352 8.504,2.191 -0.716,2.79 -5.047,-1.298 -0.736,2.952 4.739,1.208 -0.716,2.795 -4.739,-1.207 -1.578,6.164 -3.47,-0.858 z"
       fill="#ffffff"
       id="path135" />
    <path
       d="m 225.555,196.123 c -4.556,-1.177 -4.414,-4.287 -3.232,-8.959 1.187,-4.699 2.577,-7.499 7.132,-6.352 4.907,1.268 4.252,4.89 3.212,8.99 -1.045,4.068 -2.207,7.559 -7.112,6.321 m 0.573,-2.319 c 1.39,0.35 1.918,-0.888 2.963,-4.926 1.019,-4.034 1.141,-5.399 -0.248,-5.749 -1.366,-0.35 -1.898,0.889 -2.923,4.927 -1.041,4.033 -1.162,5.398 0.208,5.748 z"
       fill="#ffffff"
       id="path136" />
    <path
       d="m 237.345,199.106 c -4.556,-1.141 -4.414,-4.281 -3.227,-8.955 1.182,-4.672 2.572,-7.498 7.133,-6.321 4.901,1.238 4.246,4.891 3.206,8.955 -1.039,4.099 -2.206,7.595 -7.112,6.321 m 0.573,-2.283 c 1.391,0.345 1.923,-0.893 2.963,-4.957 1.025,-4.033 1.146,-5.367 -0.243,-5.748 -1.37,-0.35 -1.903,0.918 -2.943,4.952 -1.025,4.038 -1.147,5.403 0.223,5.753 z"
       fill="#ffffff"
       id="path137" />
    <path
       d="m 249.547,189.228 -3.085,-0.791 0.695,-2.796 9.665,2.476 -0.716,2.795 -3.105,-0.796 -3.023,11.915 -3.476,-0.883 z"
       fill="#ffffff"
       id="path138" />
    <path
       d="m 257.969,188.401 5.373,1.37 c 2.516,0.634 3.885,2.253 3.272,4.698 -0.452,1.714 -1.7,2.83 -3.171,2.735 v 0.03 c 1.045,0.446 2.557,1.334 1.801,4.351 -0.451,1.715 -1.821,3.876 -5.905,2.83 l -5.13,-1.298 z m 0.364,13.031 1.046,0.284 c 1.409,0.346 2.105,-0.416 2.369,-1.433 0.37,-1.461 -0.224,-2.253 -1.289,-2.537 l -1.121,-0.289 z m 1.594,-6.263 0.964,0.224 c 1.182,0.314 1.857,-0.255 2.126,-1.299 0.183,-0.766 0,-1.685 -1.269,-2.005 l -0.959,-0.253 z"
       fill="#ffffff"
       id="path139" />
    <path
       d="m 272.479,192.089 4.332,1.112 -0.081,15.658 -3.597,-0.913 0.182,-2.962 -3.516,-0.883 -1.227,2.669 -3.598,-0.924 z m 1.43,3.207 h -0.04 l -2.902,6.258 2.511,0.639 z"
       fill="#ffffff"
       id="path140" />
    <path
       d="m 281.55,194.408 3.455,0.888 -3.025,11.92 5.009,1.268 -0.715,2.791 -8.483,-2.161 z"
       fill="#ffffff"
       id="path141" />
    <path
       d="m 291.058,196.823 3.449,0.888 -3.023,11.91 5.007,1.278 -0.716,2.821 -8.483,-2.161 z"
       fill="#ffffff"
       id="path142" />
    <path
       d="m 310.737,207.307 c 0.549,-2.161 0.549,-3.175 -0.619,-3.459 -1.391,-0.355 -1.836,0.913 -2.821,4.788 -1.126,4.354 -1.268,5.531 0.183,5.917 1.269,0.315 1.806,-1.116 2.395,-3.401 l 3.348,0.854 -0.141,0.506 c -0.792,3.176 -2.284,5.337 -6.576,4.231 -4.434,-1.115 -3.946,-4.545 -2.8,-8.959 0.954,-3.785 2.121,-7.502 7.031,-6.261 3.045,0.792 4.373,2.547 3.491,6.007 l -0.162,0.598 z"
       fill="#ffffff"
       id="path143" />
    <path
       d="m 316.907,203.431 3.449,0.853 -3.023,11.952 5.012,1.269 -0.72,2.791 -8.483,-2.151 z"
       fill="#ffffff"
       id="path144" />
    <path
       d="m 333.395,218.104 c -0.73,2.892 -2.14,4.961 -6.148,3.947 -4.029,-1.055 -4.272,-3.531 -3.531,-6.394 l 2.506,-9.872 3.46,0.882 -2.76,10.868 c -0.304,1.176 -0.02,1.968 0.893,2.191 0.944,0.224 1.583,-0.314 1.867,-1.491 l 2.76,-10.868 3.471,0.894 z"
       fill="#ffffff"
       id="path145" />
    <path
       d="m 337.829,208.769 5.378,1.369 c 2.517,0.63 3.886,2.223 3.247,4.698 -0.426,1.685 -1.674,2.791 -3.146,2.699 v 0.061 c 1.046,0.446 2.558,1.339 1.777,4.323 -0.427,1.744 -1.796,3.906 -5.906,2.861 l -5.103,-1.299 z m 0.356,13.027 1.055,0.286 c 1.39,0.344 2.111,-0.417 2.374,-1.462 0.365,-1.431 -0.223,-2.223 -1.289,-2.516 l -1.126,-0.285 z m 1.613,-6.29 0.934,0.254 c 1.207,0.314 1.866,-0.254 2.15,-1.309 0.183,-0.762 -0.02,-1.685 -1.268,-2 l -0.984,-0.252 z"
       fill="#ffffff"
       id="path146" />
    <path
       d="m 245.706,308.554 4.926,1.207 -0.532,2.222 -4.947,-1.209 z"
       id="path147" />
    <path
       d="m 259.825,307.345 -2.841,-0.7 0.553,-2.221 0.431,0.121 c 2.654,0.639 3.617,-0.569 4.023,-1.492 l 2.456,0.61 -3.638,14.804 -3.495,-0.864 z"
       id="path148" />
    <path
       d="m 275.624,310.461 c -0.406,1.644 -1.431,2.668 -2.861,2.598 v 0.07 c 1.491,0.63 2.125,2.091 1.653,4.099 -0.629,2.508 -2.019,4.384 -6.048,3.401 -4.023,-0.995 -4.434,-3.188 -3.779,-5.814 0.406,-1.655 1.491,-3.085 3.313,-2.892 v -0.031 c -1.167,-0.669 -1.679,-1.907 -1.268,-3.623 0.547,-2.231 2.166,-3.53 5.433,-2.74 3.293,0.832 4.13,2.608 3.557,4.932 m -7.539,5.235 c -0.309,1.341 -0.309,2.445 0.817,2.699 1.142,0.294 1.675,-0.699 1.984,-1.999 0.325,-1.329 0.304,-2.385 -0.822,-2.668 -1.122,-0.285 -1.655,0.669 -1.979,1.968 z m 4.211,-5.784 c 0.263,-1.014 0.183,-1.937 -0.761,-2.151 -0.939,-0.223 -1.451,0.538 -1.695,1.552 -0.345,1.431 -0.061,2 0.756,2.192 0.817,0.224 1.35,-0.131 1.7,-1.593 z"
       id="path149" />
    <path
       d="m 276.852,310.167 0.715,-2.954 9.422,2.324 -0.635,2.608 c -3.124,2.882 -5.966,7.65 -6.93,10.887 l -3.638,-0.883 c 1.045,-3.369 4.313,-8.229 7.113,-10.482 z"
       id="path150" />
    <path
       d="m 288.724,320.719 -0.142,0.537 c -0.223,0.986 -0.223,1.938 0.796,2.193 1.127,0.254 1.634,-0.824 2.146,-2.862 0.411,-1.716 0.244,-2.669 -0.674,-2.892 -0.635,-0.152 -1.264,0.041 -1.574,0.862 l -3.266,-0.792 2.43,-7.884 8.295,2.041 -0.676,2.699 -5.595,-1.369 -0.837,2.728 0.019,0.072 c 0.549,-0.669 1.796,-0.803 2.735,-0.579 2.7,0.669 3.496,2.516 2.618,6.098 -0.918,3.754 -2.842,4.901 -6.154,4.07 -3.125,-0.761 -4.266,-2.639 -3.637,-5.205 l 0.127,-0.578 z"
       id="path151" />
    <path
       d="m 299.86,321.866 4.92,1.207 -0.547,2.223 -4.921,-1.209 z"
       id="path152" />
    <path
       d="m 245.173,308.044 4.927,1.209 -0.533,2.221 -4.947,-1.206 z"
       fill="#ffffff"
       id="path153" />
    <path
       d="m 259.298,306.807 -2.841,-0.7 0.548,-2.192 0.431,0.092 c 2.658,0.669 3.617,-0.568 4.028,-1.461 l 2.451,0.609 -3.618,14.764 -3.515,-0.854 z"
       fill="#ffffff"
       id="path154" />
    <path
       d="m 275.091,309.953 c -0.405,1.644 -1.43,2.628 -2.856,2.597 v 0.031 c 1.512,0.64 2.141,2.13 1.654,4.1 -0.614,2.516 -2.024,4.414 -6.052,3.4 -4.023,-0.986 -4.435,-3.147 -3.78,-5.815 0.411,-1.644 1.492,-3.044 3.313,-2.892 v -0.03 c -1.167,-0.628 -1.679,-1.907 -1.248,-3.623 0.532,-2.221 2.146,-3.52 5.413,-2.7 3.293,0.802 4.129,2.609 3.556,4.932 m -7.539,5.236 c -0.304,1.299 -0.304,2.414 0.838,2.7 1.126,0.252 1.654,-0.7 1.963,-2.03 0.325,-1.299 0.304,-2.385 -0.817,-2.668 -1.127,-0.255 -1.659,0.668 -1.984,1.998 z m 4.231,-5.814 c 0.244,-1.015 0.163,-1.907 -0.776,-2.162 -0.943,-0.223 -1.45,0.548 -1.7,1.562 -0.345,1.462 -0.04,1.999 0.757,2.223 0.821,0.193 1.349,-0.162 1.719,-1.623 z"
       fill="#ffffff"
       id="path155" />
    <path
       d="m 276.319,309.629 0.736,-2.954 9.421,2.324 -0.654,2.598 c -3.126,2.892 -5.967,7.66 -6.926,10.897 l -3.637,-0.882 c 1.04,-3.338 4.312,-8.229 7.112,-10.492 z"
       fill="#ffffff"
       id="path156" />
    <path
       d="m 288.196,320.181 -0.147,0.538 c -0.222,0.985 -0.222,1.937 0.796,2.192 1.127,0.283 1.639,-0.824 2.146,-2.831 0.432,-1.746 0.249,-2.67 -0.674,-2.892 -0.608,-0.152 -1.263,0 -1.573,0.831 l -3.267,-0.792 2.43,-7.883 8.299,2.029 -0.674,2.74 -5.601,-1.399 -0.837,2.758 0.021,0.031 c 0.573,-0.659 1.795,-0.792 2.74,-0.568 2.693,0.669 3.49,2.547 2.613,6.097 -0.919,3.755 -2.842,4.892 -6.129,4.102 -3.151,-0.762 -4.293,-2.64 -3.659,-5.247 l 0.122,-0.538 z"
       fill="#ffffff"
       id="path157" />
    <path
       d="m 299.332,321.318 4.921,1.238 -0.527,2.202 -4.952,-1.209 z"
       fill="#ffffff"
       id="path158" />
  </g>
</svg>
