<?xml version="1.0" encoding="UTF-8" standalone="no"?>
<svg
   clip-rule="evenodd"
   fill-rule="evenodd"
   stroke-linejoin="round"
   stroke-miterlimit="2"
   viewBox="0 0 261.146 270"
   version="1.1"
   id="svg77"
   sodipodi:docname="Blackburn.svg"
   width="261.146"
   height="270"
   xmlns:inkscape="http://www.inkscape.org/namespaces/inkscape"
   xmlns:sodipodi="http://sodipodi.sourceforge.net/DTD/sodipodi-0.dtd"
   xmlns="http://www.w3.org/2000/svg"
   xmlns:svg="http://www.w3.org/2000/svg">
  <defs
     id="defs77" />
  <sodipodi:namedview
     id="namedview77"
     pagecolor="#ffffff"
     bordercolor="#000000"
     borderopacity="0.25"
     inkscape:showpageshadow="2"
     inkscape:pageopacity="0.0"
     inkscape:pagecheckerboard="0"
     inkscape:deskcolor="#d1d1d1" />
  <g
     fill-rule="nonzero"
     id="g77"
     transform="translate(-149.427,-65)">
    <path
       d="m 381.919,272.179 c 17.333,-22.403 26.73,-49.747 26.73,-78.54 C 408.649,122.707 350.939,65 280.003,65 c -70.939,0 -128.652,57.707 -128.652,128.639 0,28.793 9.396,56.138 26.73,78.54 l -28.654,19.013 V 335 h 261.146 v -43.808 z"
       id="path1" />
    <path
       d="m 156.318,293.123 25.135,-16.782 c -0.608,-0.722 -1.213,-1.447 -1.804,-2.181 -15.924,10.567 -27.371,18.162 -27.703,18.382 v 3.489 h 50.132 c -1.236,-0.944 -2.454,-1.916 -3.66,-2.908 z"
       fill="#ffed00"
       id="path2" />
    <path
       d="m 380.351,274.16 c -0.583,0.726 -1.182,1.441 -1.783,2.156 l 25.143,16.807 h -42.128 c -1.206,0.992 -2.424,1.964 -3.659,2.908 h 50.131 v -3.489 c -0.333,-0.219 -11.78,-7.815 -27.704,-18.382 z"
       fill="#ffed00"
       id="path3" />
    <path
       d="m 182.256,277.304 c -2.688,1.795 -19.111,12.76 -21.828,14.574 h 36.492 c -2.71,-2.3 -5.343,-4.715 -7.884,-7.255 -2.366,-2.365 -4.624,-4.808 -6.78,-7.319 z"
       fill="#e2001a"
       id="path4" />
    <path
       d="m 377.766,277.279 c -2.162,2.52 -4.428,4.971 -6.801,7.343 -2.541,2.541 -5.174,4.956 -7.884,7.255 h 36.524 c -2.728,-1.823 -19.292,-12.896 -21.839,-14.598 z"
       fill="#e2001a"
       id="path5" />
    <path
       d="m 280.003,67.526 c -69.546,0 -126.126,56.574 -126.126,126.113 0,33.698 13.121,65.375 36.945,89.197 4.852,4.853 10.035,9.252 15.491,13.196 h 147.251 c 31.808,-22.921 52.558,-60.277 52.558,-102.393 0,-69.539 -56.577,-126.113 -126.119,-126.113 z"
       fill="#ffed00"
       id="path6" />
    <path
       d="m 280.002,70.411 c -67.955,0 -123.241,55.278 -123.241,123.225 0,42.62 21.746,80.254 54.722,102.396 h 137.036 c 32.974,-22.142 54.718,-59.776 54.718,-102.396 0,-67.947 -55.283,-123.225 -123.235,-123.225 z"
       id="path7" />
    <path
       d="m 280.002,71.262 c -67.486,0 -122.39,54.897 -122.39,122.374 0,42.785 22.07,80.507 55.416,102.396 h 133.945 c 33.345,-21.889 55.414,-59.611 55.414,-102.396 0,-67.477 -54.902,-122.374 -122.385,-122.374 z"
       fill="#009ee0"
       id="path8" />
    <path
       d="m 280.003,99.614 c -51.853,0 -94.038,42.179 -94.038,94.023 0,51.858 42.185,94.047 94.038,94.047 51.849,0 94.031,-42.189 94.031,-94.047 0,-51.844 -42.182,-94.023 -94.031,-94.023 z"
       id="path9" />
    <path
       d="m 280.003,100.465 c -51.384,0 -93.187,41.797 -93.187,93.172 0,51.389 41.803,93.196 93.187,93.196 51.38,0 93.18,-41.807 93.18,-93.196 0,-51.375 -41.8,-93.172 -93.18,-93.172 z"
       fill="#ffed00"
       id="path10" />
    <path
       d="m 280.003,102.992 c -49.99,0 -90.66,40.664 -90.66,90.646 0,49.995 40.67,90.668 90.66,90.668 49.987,0 90.653,-40.673 90.653,-90.668 0,-49.982 -40.666,-90.646 -90.653,-90.646 z"
       id="path11" />
    <path
       d="m 280.003,106.343 c -48.143,0 -87.309,39.161 -87.309,87.295 0,48.148 39.166,87.318 87.309,87.318 48.139,0 87.303,-39.17 87.303,-87.318 0,-48.135 -39.164,-87.295 -87.303,-87.295 z"
       fill="#ffffff"
       id="path12" />
    <path
       d="m 151.946,298.55 h 256.108 v 33.93 H 151.946 Z"
       fill="#ffed00"
       id="path13" />
    <path
       d="m 155.462,301.473 c -0.345,0 -0.623,0.279 -0.623,0.623 v 26.838 c 0,0.345 0.279,0.623 0.623,0.623 h 249.076 c 0.345,0 0.623,-0.279 0.623,-0.623 v -26.838 c 0,-0.344 -0.279,-0.623 -0.623,-0.623 z"
       id="path14" />
    <path
       d="m 156.084,302.719 h 247.831 v 25.592 H 156.084 Z"
       fill="#ffffff"
       id="path15" />
    <path
       d="m 163.773,323.275 h 2.872 l 2.178,-4.652 h 8.086 l 2.154,4.652 h 3.035 l -7.633,-15.543 h -3.089 m -1.672,9.093 3.217,-6.848 3.167,6.848 z"
       id="path16" />
    <path
       d="m 184.197,307.732 v 15.543 h 2.763 v -6.661 h 4.496 c 3.535,0 4.362,0.181 4.573,2.485 l 0.163,2.034 c 0.079,0.922 0.133,1.634 0.531,2.142 h 3.247 v -0.423 c -0.67,-0.265 -0.882,-0.845 -0.96,-1.821 l -0.21,-2.541 c -0.164,-1.665 -0.562,-2.509 -2.342,-2.909 1.834,-0.657 2.817,-1.851 2.817,-3.54 0,-1.75 -0.959,-3.042 -2.66,-3.753 -1.273,-0.531 -2.71,-0.555 -4.465,-0.555 m -5.213,1.821 h 4.76 c 3.108,0 4.706,0.422 4.706,2.534 0,2.094 -1.514,2.751 -4.706,2.751 h -4.76 z"
       id="path17" />
    <path
       d="m 207.65,323.275 h 2.794 v -13.642 h 6.492 v -1.901 h -15.748 v 1.901 h 6.462"
       id="path18" />
    <path
       d="m 219.403,323.275 h 14.843 v -1.931 h -12.072 v -5.207 H 233.1 v -1.822 h -10.926 v -4.653 h 11.862 v -1.93 h -14.633"
       id="path19" />
    <path
       d="m 245.415,323.275 h 14.867 v -1.931 h -12.104 v -5.207 h 10.957 v -1.822 h -10.957 v -4.653 h 11.863 v -1.93 h -14.626"
       id="path20" />
    <path
       d="m 268.18,323.275 h 2.794 v -13.642 h 6.462 v -1.901 h -15.742 v 1.901 h 6.486"
       id="path21" />
    <path
       d="m 287.723,323.275 h 13.033 v -1.955 h -10.209 v -13.588 h -2.824"
       id="path22" />
    <path
       d="m 300.677,323.275 h 2.897 l 2.183,-4.652 h 8.086 l 2.153,4.652 h 3.03 l -7.657,-15.543 h -3.059 m -1.701,9.093 3.215,-6.848 3.192,6.848 z"
       id="path23" />
    <path
       d="m 323.919,321.398 v -5.394 h 5.322 c 3.138,0 4.651,0.767 4.651,2.619 0,1.799 -1.489,2.775 -4.332,2.775 m -5.641,-7.138 v -4.755 h 5.104 c 2.661,0 3.965,0.737 3.965,2.323 0,1.69 -1.382,2.432 -4.199,2.432 z m -2.794,9.015 h 8.701 c 4.362,0 6.914,-1.853 6.914,-4.652 0,-2.009 -1.466,-3.384 -3.91,-3.729 1.943,-0.609 2.951,-1.743 2.951,-3.384 0,-2.51 -2.154,-3.777 -6.407,-3.777 h -8.249 z"
       id="path24" />
    <path
       d="m 339.504,315.527 c 0,5.183 3.699,8.17 9.708,8.17 6.034,0 9.708,-2.987 9.708,-8.17 0,-5.207 -3.674,-8.193 -9.708,-8.193 -6.009,0 -9.708,2.986 -9.708,8.193 m 2.872,0 c 0,-4.042 2.631,-6.371 6.836,-6.371 4.229,0 6.836,2.329 6.836,6.371 0,4.043 -2.607,6.347 -6.836,6.347 -4.205,10e-4 -6.836,-2.304 -6.836,-6.347 z"
       id="path25" />
    <path
       d="m 362.426,307.732 v 15.543 h 2.769 v -6.661 h 4.496 c 3.535,0 4.362,0.181 4.574,2.485 l 0.155,2.034 c 0.11,0.922 0.164,1.634 0.562,2.142 h 3.216 v -0.423 c -0.664,-0.265 -0.85,-0.845 -0.96,-1.821 l -0.211,-2.541 c -0.133,-1.665 -0.531,-2.509 -2.341,-2.909 1.865,-0.657 2.818,-1.851 2.818,-3.54 0,-1.75 -0.93,-3.042 -2.655,-3.753 -1.279,-0.531 -2.685,-0.555 -4.472,-0.555 m -5.211,1.821 h 4.76 c 3.114,0 4.706,0.422 4.706,2.534 0,2.094 -1.514,2.751 -4.706,2.751 h -4.76 z"
       id="path26" />
    <path
       d="m 381.366,323.275 h 14.86 v -1.931 H 384.13 v -5.207 h 10.956 v -1.822 H 384.13 v -4.653 h 11.861 v -1.93 h -14.625"
       id="path27" />
    <path
       d="m 357.749,205.45 c 0,-0.028 -0.001,-0.056 -0.001,-0.083 -0.036,-2.187 -1.482,-4.14 -4.298,-5.804 -0.097,-0.057 -0.206,-0.087 -0.318,-0.087 h -2.431 c 2.693,-6.77 3.906,-10.431 3.906,-18.233 0,-0.34 -0.271,-0.617 -0.611,-0.625 -0.927,-0.022 -1.767,-0.442 -2.656,-0.885 -0.99,-0.493 -2.013,-1.004 -3.235,-1.004 -1.848,0 -3.91,0.985 -6.092,2.028 -4.54,2.168 -9.685,4.627 -15.318,0.003 -0.148,-0.122 -0.342,-0.169 -0.529,-0.128 -0.187,0.041 -0.345,0.164 -0.429,0.335 -3.104,6.333 -7.881,9.868 -12.529,13.25 -6.729,-2.528 -13.852,-5.844 -16.487,-8.105 2.622,-1.097 4.019,-3.351 5.372,-5.547 1.49,-2.351 2.568,-4.053 3.636,-6.869 0.728,-1.681 1.49,-3.101 2.228,-4.474 1.732,-3.224 3.227,-6.007 3.227,-10.639 0,-1.968 0,-5.633 -2.436,-5.937 l -0.027,0.211 c 0,0 -0.006,0 -0.012,-0.001 l 0.022,-0.212 c -2.621,-0.27 -4.714,-0.417 -6.499,-0.362 -5.525,-3.447 -6.313,-11.032 -6.313,-18.754 v -0.739 l -0.735,-0.092 c -1.58,-0.198 -2.283,0.219 -2.904,0.588 -0.116,0.069 -0.23,0.128 -0.345,0.189 -1.235,-5.747 -1.88,-11.386 -1.88,-16.785 0,-0.395 0.003,-0.788 0.01,-1.18 l 0.008,-0.458 -0.381,-0.254 c -3.183,-2.121 -4.808,-0.511 -6.244,0.91 -0.5,0.494 -1.016,1.006 -1.617,1.4 -3.957,2.593 -5.273,5.842 -6.434,8.708 -0.696,1.717 -1.362,3.35 -2.526,4.763 -2.75,-2.735 -8.12,-6.045 -8.365,-6.196 l -1.774,-1.088 0.733,2.812 c 0.256,0.96 0.454,1.759 0.625,2.486 -0.44,-0.825 -0.879,-1.685 -1.312,-2.544 -1.915,-3.801 -3.162,-6.148 -4.614,-6.51 -0.463,-0.115 -0.914,-0.029 -1.309,0.249 -1.261,0.917 -5.472,4.868 -8.546,7.753 -1.215,1.14 -2.455,2.303 -2.953,2.749 -1.802,-0.176 -4.265,-2.137 -6.455,-3.894 -2.786,-2.236 -5.191,-4.166 -7.166,-3.594 l -0.638,0.185 0.429,8.42 c -1.436,1.01 -2.387,2.752 -2.387,4.73 0,1.575 0.893,2.461 1.681,3.244 0.512,0.507 1.04,1.031 1.411,1.781 0.025,0.051 0.144,0.292 0.144,0.292 -0.004,-0.008 0.523,1.138 0.523,1.138 0.13,0.276 0.254,0.542 0.373,0.807 -1.133,-0.423 -2.203,-0.808 -3.339,-1.085 -0.994,-0.372 -2.084,-0.634 -3.467,-0.634 -0.694,0 -1.251,0.225 -1.654,0.67 -0.855,0.941 -0.705,2.497 -0.546,4.144 l 0.114,1.69 c 0,2.079 0.067,3.767 0.246,5.365 -1.03,-0.252 -2.38,-0.678 -3.804,-1.131 -0.339,-0.109 -0.68,-0.217 -1.02,-0.325 -2.758,-0.988 -5.304,-1.85 -6.733,-1.625 l -0.689,0.109 -0.018,0.696 c -0.308,11.606 2.482,23.304 7.464,31.293 2.446,3.926 14.274,7.879 19.693,8.328 -0.199,0.604 -0.338,1.189 -0.429,1.777 -0.289,1.122 -0.403,2.215 -0.403,3.6 0,1.419 0.63,2.649 1.678,3.488 -4.726,5.389 -10.784,6.297 -15.77,7.043 -3.124,0.466 -5.823,0.87 -7.808,2.193 -0.143,0.095 -0.24,0.245 -0.269,0.415 -0.029,0.169 0.012,0.343 0.116,0.48 3.928,5.242 7.46,10.703 3.833,14.801 -0.129,0.146 -0.182,0.344 -0.145,0.534 0.036,0.192 0.161,0.354 0.336,0.44 0.65,0.323 1.425,0.594 2.245,0.881 3.655,1.279 8.203,2.873 7.461,10.654 -0.016,0.175 0.042,0.35 0.16,0.48 0.119,0.13 0.286,0.205 0.463,0.205 6.626,0 34.232,-3.212 38.512,-10.358 0.815,-1.365 2.426,-2.203 4.132,-3.088 0.359,-0.187 0.724,-0.377 1.087,-0.577 -0.025,0.179 -0.041,0.283 -0.043,0.294 l -0.183,1.137 1.053,-0.465 c 3.767,-1.667 6.956,-3.685 9.572,-6.036 0.157,0.421 0.24,0.782 0.24,1.086 0,1.02 -0.815,1.504 -2.029,2.227 -0.735,0.438 -1.569,0.934 -2.318,1.643 -0.125,0.12 -0.198,0.283 -0.198,0.454 0,0.027 0.002,0.054 0.006,0.082 0.027,0.198 0.145,0.371 0.322,0.465 l 1.788,0.952 c 2.404,1.259 4.535,2.394 6.275,4.304 -12.227,-3.345 -16.844,-0.536 -22.096,2.735 -4.15,2.585 -8.852,5.515 -18.592,5.515 -0.227,0 -0.429,0.134 -0.539,0.332 -0.052,0.092 -0.077,0.195 -0.077,0.299 0,0.121 0.034,0.241 0.098,0.345 l 1.096,1.768 c 0.922,1.557 1.906,3.131 3.411,4.28 -3.439,1.618 -4.774,3.078 -6.271,4.741 -0.899,1 -1.828,2.034 -3.349,3.267 -0.148,0.12 -0.231,0.3 -0.231,0.486 0,0.041 0.003,0.081 0.012,0.123 0.045,0.227 0.213,0.411 0.436,0.476 0.473,0.14 1.28,0.152 2.301,0.169 1.178,0.018 4.307,0.065 4.379,0.766 0,0 0.357,4.296 0.357,4.296 0.4,5.531 0.69,9.527 4.555,15.497 0.102,0.156 0.268,0.26 0.453,0.281 0.185,0.021 0.37,-0.041 0.505,-0.17 1.777,-1.71 8.008,-4.954 10.695,-5.463 v 0.119 c 0,0.125 0.038,0.248 0.108,0.351 1.707,2.513 3.353,4.228 5.033,5.241 0.192,0.116 0.431,0.12 0.627,0.011 7.088,-3.936 10.215,-7.839 11.75,-15.092 0.283,0.591 0.602,1.162 0.932,1.716 0.676,1.139 1.314,2.213 1.473,3.463 0.029,0.236 0.191,0.435 0.416,0.512 0.225,0.078 0.475,0.02 0.644,-0.147 2.625,-2.599 4.065,-7.628 4.065,-11.588 0,-0.885 -0.089,-1.697 -0.236,-2.436 1.663,-1.144 2.72,-2.477 3.72,-3.776 0.685,-0.89 1.347,-1.739 2.187,-2.518 1.076,3.607 1.743,6.621 1.743,9.644 0,1.447 -0.169,2.911 -0.488,4.447 -1.617,0.332 -3.499,0.455 -5.512,0.32 -0.19,-0.013 -0.375,0.062 -0.504,0.203 -0.129,0.141 -0.185,0.333 -0.154,0.521 0.531,3.264 1.572,14.903 0.477,17.274 -0.102,0.22 -0.066,0.48 0.091,0.665 0.157,0.186 0.407,0.264 0.641,0.2 1.89,-0.516 3.81,-1.428 5.666,-2.31 2.789,-1.325 5.672,-2.695 8.422,-2.695 0.333,0 0.607,-0.26 0.624,-0.593 0.106,-2.077 0.152,-4.164 0.152,-6.245 0,-7.564 -0.616,-15.045 -1.23,-21.7 0.591,-1.047 0.847,-2.176 1.082,-3.272 0.249,-1.166 0.486,-2.267 1.115,-3.204 2.229,-3.272 4.817,-2.558 8.734,-1.475 6.209,1.715 14.712,4.065 27.473,-7.863 10e-4,-0.001 0.876,-0.794 0.876,-0.794 1.741,-1.547 3.714,-3.3 3.714,-5.964 0,-1.851 -1.894,-2.189 -3.414,-2.461 -1.03,-0.184 -2.057,-0.393 -2.6,-0.934 0.516,-0.332 1.199,-0.773 1.199,-0.773 4.709,-3.003 12.578,-8.014 12.578,-13.144 z m -101.569,1.539 c -2.537,-1.85 -4.982,-3.757 -6.95,-5.31 0.57,0.037 1.166,0.059 1.811,0.059 h 6.842 l -0.035,0.186 c -0.188,1.131 -0.479,2.854 -1.668,5.065 z m 13.605,6.831 c -0.572,0.211 -1.374,0.133 -2.335,-0.16 2.152,-1.634 4.114,-3.584 5.708,-5.929 1.101,1.862 1.627,4.347 1.845,6.822 -1.703,-0.741 -3.861,-1.227 -5.218,-0.733 z m 29.885,5.412 c 0.172,3.054 0.888,6.139 1.58,9.121 0.786,3.384 1.593,6.858 1.593,10.296 0,0.442 -0.022,0.882 -0.05,1.322 -3.484,-5.803 -6.028,-12.247 -8.483,-18.503 -1.213,-3.088 -2.467,-6.277 -3.817,-9.345 1.463,-2.614 2.464,-5.487 2.978,-8.622 0,0 0.04,-0.213 0.079,-0.42 0.215,0.019 0.428,0.039 0.428,0.039 3.149,0.322 6.202,0.473 9.155,0.456 -2.153,3.286 -3.53,7.462 -3.53,13.342 0,0.744 0.022,1.515 0.067,2.314 z"
       id="path28" />
    <path
       d="m 342.733,218.676 1.765,-1.138 c 4.494,-2.862 12.001,-7.644 12.001,-12.086 0,-0.022 -0.001,-0.043 -0.001,-0.065 -0.029,-1.689 -1.236,-3.255 -3.559,-4.662 h -3.156 c -0.208,0 -0.402,-0.102 -0.518,-0.274 -0.071,-0.105 -0.107,-0.228 -0.107,-0.351 0,-0.079 0.014,-0.157 0.045,-0.232 2.809,-7.023 4.08,-10.572 4.142,-18.075 -0.936,-0.15 -1.763,-0.544 -2.562,-0.942 -0.9,-0.449 -1.75,-0.873 -2.678,-0.873 -1.565,0 -3.502,0.926 -5.553,1.905 -4.482,2.142 -10.029,4.737 -16.041,0.267 -3.08,5.893 -7.502,9.372 -11.894,12.586 4.973,1.801 9.532,3.09 11.628,3.09 l 0.249,1.198 c -6.428,2.805 -13.745,4.313 -21.843,4.523 -2.325,3.221 -3.799,7.324 -3.799,13.338 0,0.73 0.021,1.487 0.066,2.275 0.165,2.947 0.869,5.978 1.549,8.909 0.803,3.456 1.627,7.002 1.627,10.57 0,1.105 -0.08,2.213 -0.263,3.321 -0.042,0.255 -0.237,0.458 -0.489,0.51 -0.253,0.052 -0.512,-0.057 -0.653,-0.273 -4.056,-6.295 -6.845,-13.401 -9.543,-20.274 -1.099,-2.803 -2.244,-5.678 -3.45,-8.472 -1.02,1.581 -2.231,3.054 -3.62,4.424 0.353,0.8 0.527,1.48 0.527,2.045 0,1.686 -1.333,2.479 -2.636,3.254 -0.467,0.278 -0.936,0.583 -1.392,0.919 0.465,0.247 0.933,0.496 0.933,0.496 2.985,1.564 5.804,3.042 7.889,6.176 0.07,0.105 0.104,0.226 0.104,0.347 0,0.131 -0.041,0.262 -0.124,0.373 -0.158,0.213 -0.432,0.302 -0.684,0.224 -13.13,-4.015 -17.67,-1.188 -22.927,2.088 -4.129,2.572 -8.803,5.467 -18.144,5.683 0.272,0.438 0.545,0.877 0.545,0.877 1.069,1.805 2.079,3.51 3.88,4.483 0.203,0.11 0.328,0.321 0.328,0.55 v 0.029 c -0.011,0.239 -0.158,0.452 -0.379,0.546 -3.969,1.699 -5.234,3.106 -6.835,4.887 -0.656,0.73 -1.38,1.532 -2.355,2.423 0.2,0.005 0.407,0.008 0.614,0.011 2.539,0.039 5.417,0.083 5.603,1.889 l 0.36,4.333 c 0.386,5.338 0.679,8.949 3.99,14.295 2.595,-2.048 9.083,-5.385 11.597,-5.385 0.345,0 0.625,0.28 0.625,0.625 v 0.616 c 1.46,2.123 2.852,3.597 4.242,4.515 7.366,-4.168 10.042,-8.144 11.294,-16.767 0.047,-0.324 0.335,-0.556 0.661,-0.534 0.327,0.022 0.58,0.292 0.583,0.619 0.011,1.46 0.732,2.675 1.495,3.96 0.503,0.847 1.009,1.72 1.335,2.689 1.891,-2.517 2.939,-6.583 2.939,-9.812 0,-0.945 -0.09,-1.819 -0.274,-2.559 -0.012,-0.05 -0.018,-0.101 -0.018,-0.15 0,-0.211 0.106,-0.412 0.29,-0.528 1.698,-1.078 2.692,-2.369 3.744,-3.737 0.878,-1.141 1.786,-2.322 3.124,-3.357 0.162,-0.125 0.375,-0.163 0.571,-0.102 0.195,0.062 0.348,0.216 0.408,0.412 1.556,5.029 2.84,10.042 1.48,16.064 -0.053,0.233 -0.234,0.416 -0.467,0.471 -1.609,0.376 -3.505,0.518 -5.512,0.441 0.333,2.455 0.854,7.84 0.854,12.064 0,1.573 -0.08,2.952 -0.262,3.982 1.458,-0.504 2.951,-1.204 4.405,-1.894 2.717,-1.292 5.522,-2.577 8.347,-2.75 0.087,-1.881 0.139,-3.768 0.139,-5.654 0,-7.578 -0.624,-15.096 -1.242,-21.765 -0.002,-0.019 -0.003,-0.038 -0.003,-0.057 0,-0.116 0.033,-0.23 0.093,-0.328 0.566,-0.92 0.792,-1.971 1.03,-3.085 0.264,-1.23 0.536,-2.502 1.303,-3.642 2.734,-4.016 6.148,-3.072 10.101,-1.98 5.924,1.638 14.038,3.88 26.285,-7.569 l 0.901,-0.816 c 1.619,-1.439 3.293,-2.929 3.293,-5.03 0,-0.726 -0.763,-0.941 -2.384,-1.231 -1.521,-0.272 -3.247,-0.58 -3.852,-2.102 -0.031,-0.078 -0.046,-0.158 -0.046,-0.237 10e-4,-0.203 0.1,-0.397 0.281,-0.514 z"
       fill="#009036"
       id="path29" />
    <path
       d="m 243.166,200.873 0.086,0.012 c -0.657,-0.067 -1.265,-0.232 -1.81,-0.478 -5.016,5.873 -11.408,6.844 -16.664,7.63 -2.673,0.399 -4.984,0.78 -6.704,1.695 2.318,3.107 5.178,7.151 5.178,11.014 0,1.41 -0.417,2.79 -1.347,4.093 0.438,0.176 0.906,0.349 1.411,0.526 3.383,1.185 8.377,2.933 8.377,10.236 0,0.32 -0.03,0.674 -0.05,1.016 8.508,-0.165 33.107,-3.596 36.782,-9.733 0.997,-1.669 2.843,-2.629 4.628,-3.556 0.65,-0.338 1.275,-0.666 1.846,-1.012 0.119,-1.189 0.241,-2.851 0.241,-4.689 0,-0.537 -0.016,-1.09 -0.041,-1.648 -0.067,-0.034 -0.13,-0.07 -0.2,-0.103 -1.766,-0.855 -3.737,-1.226 -4.684,-0.882 -0.992,0.366 -2.355,0.168 -3.989,-0.451 -10.443,7.127 -24.56,7.373 -25.316,7.38 l -2.361,0.018 2.042,-1.185 c 8.618,-4.998 12.826,-9.318 14.953,-12.68 -2.657,-1.941 -5.452,-4.119 -8.238,-6.324 -0.13,-0.102 -0.261,-0.205 -0.39,-0.308 -0.652,-0.088 -1.301,-0.19 -1.98,-0.297 z"
       fill="#009036"
       id="path30" />
    <path
       d="m 294.106,201.876 -0.97,-0.087 c -0.651,0 -0.744,0.568 -0.898,1.509 -0.545,3.324 -2.211,13.265 -16.172,19.886 0.146,-1.209 0.336,-3.225 0.336,-5.536 0,-3.863 -0.535,-8.509 -2.711,-11.406 l -0.549,-0.731 -0.481,0.777 c -6.995,11.275 -23.098,13.712 -29.273,14.237 14.052,-8.701 15.162,-15.198 15.694,-18.397 0,0 0.036,-0.189 0.074,-0.391 h 4.02 l 0.156,-0.066 c 1.517,-0.639 2.639,-1.327 3.827,-2.055 0.831,-0.51 1.69,-1.037 2.72,-1.561 2.928,-1.429 5.44,-2.868 7.868,-4.261 5.387,-3.088 10.039,-5.756 17.308,-7.18 0.12,-0.023 0.23,-0.053 0.346,-0.08 3.793,3.911 20.617,10.754 28.372,12.238 -8.483,3.203 -18.445,4.253 -29.667,3.104 z"
       fill="#009036"
       id="path31" />
    <g
       fill="#e2001a"
       id="g40">
      <path
         d="m 294.245,134.345 c -0.462,0.033 -0.751,0.168 -1.109,0.381 -0.392,0.232 -0.879,0.522 -1.662,0.685 l -0.806,0.168 -0.181,-0.804 c -1.4,-6.192 -2.107,-12.27 -2.107,-18.087 0,-0.234 0.004,-0.468 0.006,-0.702 -1.739,-1.009 -2.464,-0.37 -3.759,0.912 -0.532,0.527 -1.136,1.125 -1.878,1.611 -3.519,2.307 -4.678,5.168 -5.799,7.936 -0.763,1.882 -1.557,3.818 -3.055,5.507 1.365,2.615 2.583,4.242 3.866,5.946 0.951,1.263 1.935,2.57 3.055,4.364 l 0.022,0.036 0.018,0.038 c 0.239,0.486 0.692,0.895 1.171,1.329 0.54,0.487 1.152,1.041 1.528,1.778 1.431,2.624 1.659,4.976 1.878,7.251 0.188,1.94 0.381,3.946 1.303,6.273 l 0.059,0.149 v 3.276 c 0.33,-0.336 0.667,-0.661 1.002,-0.983 0,0 1.375,-1.372 1.377,-1.374 4.367,-4.708 6.875,-6.822 10.577,-7.503 -5.224,-4.618 -5.493,-12.99 -5.506,-18.187 z"
         id="path32" />
      <path
         d="m 278.371,168.357 0.006,-0.039 0.009,-0.037 c 0.013,-0.052 1.188,-5.046 -0.378,-8.15 -0.203,0.061 -0.417,0.117 -0.646,0.167 l -0.972,0.26 c -1.199,0.331 -2.234,0.616 -3.838,0.616 -3.852,0 -6.709,-1.317 -9.471,-2.59 -2.717,-1.254 -5.285,-2.437 -8.769,-2.437 -0.336,0 -0.498,0.12 -0.6,0.223 -0.603,0.607 -0.667,2.315 -0.667,3.679 0,0.195 0.001,0.383 0.003,0.56 0,0 0.002,0.457 0.002,0.518 0.005,0.06 0.634,8.195 0.634,8.195 v 0.033 c 0,4.653 -0.201,8.003 -2.869,11.987 l -0.502,0.813 c -0.76,1.24 -1.456,2.374 -2.506,3.255 19.575,1.6 29.559,-10.178 30.564,-17.053 z"
         id="path33" />
      <path
         d="m 270.228,153.536 c 1.013,0.594 1.97,1.155 3.228,1.601 0.384,0.142 0.853,0.204 1.352,0.233 -0.416,-3.339 -1.325,-5.58 -2.548,-8.583 0,0 -0.629,-1.556 -0.629,-1.56 -0.35,-0.774 -0.821,-1.313 -1.321,-1.884 -0.618,-0.707 -1.258,-1.438 -1.626,-2.553 -1.183,-3.137 -2.176,-4.994 -3.607,-7.502 l -0.422,-0.555 c -1.146,-1.511 -2.278,-3.758 -3.373,-5.932 -1.021,-2.027 -2.719,-5.392 -3.492,-5.618 -1.216,0.9 -5.49,4.91 -8.333,7.579 -3.45,3.237 -3.45,3.237 -3.84,3.237 -2.409,0 -5.131,-2.185 -7.764,-4.298 -1.775,-1.425 -3.741,-2.994 -5.004,-3.27 0.051,0.984 0.221,4.328 0.317,6.215 0.395,-0.102 0.805,-0.162 1.228,-0.162 2.222,0 3.668,0.756 5.199,1.557 0.8,0.418 1.628,0.851 2.642,1.207 l 0.611,0.229 c 1.928,0.723 3.321,1.245 5.571,1.631 2.268,0.542 3.911,1.415 5.5,2.26 0.998,0.531 2.031,1.08 3.22,1.549 l 1.093,0.381 c 1.275,0.423 2.478,0.822 3.394,1.928 1.894,2.015 2.355,3.986 2.844,6.073 0.308,1.318 0.632,2.681 1.329,4.237 0.019,0.006 0.038,0.011 0.057,0.016 1.831,0.494 3.124,1.252 4.374,1.984 z"
         id="path34" />
      <path
         d="m 280.019,168.656 c -0.505,3.326 -2.877,8.099 -7.995,12.085 5.331,-3.067 8.264,-6.843 8.987,-9.017 0.477,-1.442 1.317,-2.726 2.129,-3.967 0.551,-0.841 1.071,-1.635 1.481,-2.468 0.206,-0.418 0.443,-0.805 0.702,-1.173 h -0.202 v -4.708 c -0.948,-2.467 -1.161,-4.547 -1.354,-6.553 -0.214,-2.205 -0.415,-4.287 -1.691,-6.63 -0.248,-0.484 -0.696,-0.889 -1.171,-1.318 -0.548,-0.496 -1.17,-1.058 -1.551,-1.832 l 0.041,0.073 c -1.08,-1.732 -2.042,-3.008 -2.972,-4.242 -1.396,-1.854 -2.718,-3.618 -4.238,-6.616 -1.531,-1.741 -4.74,-3.989 -6.765,-5.328 0.623,2.445 0.871,3.825 0.871,4.658 0,0.142 -0.008,0.264 -0.022,0.377 1.616,2.82 2.685,4.759 3.995,8.236 0.273,0.825 0.752,1.373 1.308,2.008 0.532,0.608 1.135,1.297 1.601,2.333 l 0.64,1.582 c 1.301,3.196 2.262,5.56 2.689,9.243 1.275,0.005 2.453,0.07 3.194,0.81 0.404,0.404 0.609,0.943 0.609,1.604 0,0.632 -0.271,1.159 -0.794,1.581 1.801,3.605 0.602,8.867 0.508,9.262 z"
         id="path35" />
      <path
         d="m 244.146,163.877 c -0.475,-2.053 -0.966,-4.176 -0.966,-6.891 l -0.001,-0.038 c -1.422,-1.477 -1.754,-3.076 -2.098,-4.767 l -0.526,-2.214 -0.036,-0.144 v -3.733 l 0.012,-0.07 c 0.32,-1.857 0.984,-5.722 4.181,-5.722 1.938,0 3.371,0.774 4.756,1.523 0,0 0.86,0.456 0.856,0.453 l 1.839,0.883 c 3.258,1.528 6.342,2.982 7.805,6.946 1.207,0.243 2.449,0.538 3.804,0.89 -0.438,-1.209 -0.699,-2.308 -0.934,-3.312 -0.473,-2.023 -0.848,-3.62 -2.468,-5.347 -0.644,-0.775 -1.536,-1.071 -2.667,-1.447 0,0 -1.162,-0.405 -1.171,-0.408 -1.286,-0.508 -2.361,-1.079 -3.4,-1.632 -1.566,-0.831 -3.044,-1.617 -5.05,-2.098 -2.353,-0.402 -3.885,-0.976 -5.824,-1.704 0,0 -0.608,-0.228 -0.593,-0.222 -1.112,-0.39 -2.034,-0.873 -2.848,-1.298 -1.46,-0.763 -2.613,-1.366 -4.423,-1.366 -2.141,0 -3.579,2.056 -3.579,3.976 0,0.838 0.406,1.281 1.186,2.054 0.58,0.576 1.238,1.229 1.75,2.263 0,0 0.151,0.31 0.155,0.319 l 0.507,1.102 c 0.466,0.987 0.906,1.92 1.233,3.208 0.825,2.489 0.879,4.439 0.929,6.324 0.04,1.531 0.082,3.113 0.542,5.021 0.371,1.413 0.537,2.603 0.696,3.755 0.198,1.423 0.384,2.766 0.96,4.344 0.384,1.081 1.033,1.724 1.785,2.468 0.656,0.648 1.399,1.383 1.937,2.446 0.822,1.553 1.506,3.021 2.014,4.561 0.456,-1.031 0.559,-2.082 0.559,-3.609 10e-4,-2.525 -0.447,-4.463 -0.922,-6.514 z"
         id="path36" />
      <path
         d="m 248.883,181.281 c 0,0 0.514,-0.832 0.527,-0.851 2.417,-3.611 2.596,-6.586 2.597,-11.045 -0.005,-0.07 -0.633,-8.192 -0.633,-8.192 l -0.003,-0.571 c -0.001,-0.204 -0.002,-0.412 -0.002,-0.624 0,-1.759 0.1,-3.746 1.153,-4.807 0.466,-0.47 1.085,-0.718 1.79,-0.718 3.852,0 6.708,1.316 9.47,2.59 2.718,1.254 5.285,2.437 8.769,2.437 1.378,0 2.267,-0.245 3.393,-0.556 0,0 1.005,-0.269 1.033,-0.276 1.141,-0.247 1.651,-0.608 1.651,-0.856 0,-0.3 -0.088,-0.389 -0.117,-0.418 -0.323,-0.323 -1.468,-0.322 -2.388,-0.321 -1.108,0.001 -2.253,0.002 -3.236,-0.36 -1.399,-0.496 -2.47,-1.124 -3.506,-1.731 -1.208,-0.708 -2.349,-1.377 -3.966,-1.814 -6.132,-1.688 -9.366,-2.287 -15.309,-2.287 -1.758,0 -3.419,0 -4.438,1.038 -0.9,0.887 -0.906,1.959 -0.842,3.778 l 0.03,1.289 c 0,2.523 0.448,4.461 0.923,6.513 0.475,2.053 0.966,4.176 0.966,6.891 0,2.386 -0.272,3.994 -1.635,5.874 0.265,1.309 0.41,2.71 0.41,4.286 l 0.045,1.322 c 0.053,0.98 0.097,1.924 -0.188,3.024 1.673,-0.694 2.476,-1.934 3.506,-3.615 z"
         id="path37" />
      <path
         d="m 243.557,185.1 c 0.442,-1.127 0.397,-1.995 0.335,-3.137 l -0.048,-1.413 c 0,-4.151 -1.083,-7.028 -2.836,-10.341 -0.422,-0.834 -1.007,-1.412 -1.627,-2.025 -0.823,-0.814 -1.675,-1.657 -2.184,-3.092 -0.634,-1.738 -0.832,-3.167 -1.042,-4.681 -0.153,-1.102 -0.311,-2.243 -0.662,-3.575 -0.504,-2.096 -0.549,-3.769 -0.592,-5.386 -0.047,-1.751 -0.098,-3.415 -0.742,-5.506 -1.191,-0.391 -2.168,-0.854 -3.028,-1.269 -1.53,-0.738 -2.74,-1.321 -4.664,-1.321 -0.306,0 -0.388,0.09 -0.415,0.12 -0.356,0.393 -0.219,1.817 -0.119,2.857 l 0.122,1.852 c 0,5.17 0.423,7.835 2.066,12.985 0.659,2.264 1.59,3.614 2.667,5.176 0.543,0.789 1.104,1.604 1.672,2.594 l -1.453,0.834 c -0.534,-0.931 -1.075,-1.717 -1.599,-2.477 -1.111,-1.612 -2.161,-3.135 -2.889,-5.639 -0.779,-2.439 -1.29,-4.342 -1.619,-6.205 -1.124,-0.167 -2.752,-0.735 -4.991,-1.541 -2.037,-0.733 -4.481,-1.61 -5.884,-1.774 -0.004,0.296 -0.011,0.591 -0.011,0.886 0,10.718 2.66,21.323 7.232,28.656 2.117,3.397 14.305,7.543 19.137,7.581 0.653,-1.496 1.458,-3.193 3.009,-3.831 v -0.329 c -0.001,0.001 0.065,0.001 0.165,0.001 z"
         id="path38" />
      <path
         d="m 251.451,144.673 c 0,0 -1.877,-0.901 -1.882,-0.904 l -0.898,-0.475 c -1.312,-0.709 -2.445,-1.322 -3.959,-1.322 -1.468,0 -2.071,1.705 -2.517,4.267 v 3.394 c 0.062,0.262 0.528,2.214 0.528,2.214 0.136,0.666 0.262,1.27 0.442,1.835 0.1,-1.066 0.421,-2.064 1.317,-2.948 1.501,-1.529 3.691,-1.529 5.624,-1.529 3.08,0 5.497,0.17 7.883,0.543 -1.334,-2.626 -3.678,-3.733 -6.538,-5.075 z"
         id="path39" />
      <path
         d="m 301.805,153.972 -0.011,0.018 c -0.009,-0.005 -0.017,-0.011 -0.026,-0.016 -4.373,0.264 -6.612,2.076 -11.364,7.198 l -1.446,1.445 c -1.126,1.079 -2.189,2.099 -2.834,3.411 -0.456,0.925 -1.029,1.8 -1.583,2.646 -0.787,1.204 -1.531,2.341 -1.94,3.576 -1.924,5.785 -14.062,17.489 -37.594,14.585 l 0.008,-0.062 -0.255,-0.065 v 0.133 c -1.398,0 -2.074,1.318 -2.946,3.327 0,0 -0.057,0.131 -0.065,0.147 -1.078,2.338 -1.389,3.673 -1.389,5.954 0,1.553 1.243,2.763 3.061,2.947 l 1.769,0.273 c 2.021,0.32 3.617,0.572 5.85,0.572 h 11.774 c 1.328,-0.574 2.375,-1.205 3.467,-1.874 0.859,-0.527 1.747,-1.071 2.849,-1.632 2.891,-1.41 5.378,-2.836 7.783,-4.214 5.286,-3.031 10.279,-5.894 17.822,-7.372 3.033,-0.58 4.376,-2.76 5.94,-5.297 1.439,-2.272 2.479,-3.914 3.502,-6.607 0.769,-1.781 1.584,-3.299 2.304,-4.638 1.691,-3.148 3.027,-5.635 3.027,-9.845 0,-2.755 -0.326,-4.193 -0.967,-4.274 -2.811,-0.289 -4.951,-0.44 -6.736,-0.336 z"
         id="path40" />
    </g>
    <path
       d="m 297.974,161.954 c -0.091,0.692 0.396,1.326 1.088,1.417 l 6.306,0.826 c 0.691,0.091 1.325,-0.396 1.416,-1.088 0.091,-0.692 -0.396,-1.326 -1.089,-1.417 l -6.305,-0.826 c -0.691,-0.09 -1.326,0.397 -1.416,1.088 z"
       fill="#ffed00"
       id="path41" />
    <path
       d="m 282.232,203.981 -3.089,12.788 c -0.164,0.678 0.253,1.361 0.931,1.525 0.679,0.164 1.361,-0.254 1.525,-0.932 l 3.089,-12.788 c 0.164,-0.679 -0.253,-1.361 -0.932,-1.525 -0.678,-0.164 -1.36,0.253 -1.524,0.932 z"
       fill="#ffed00"
       id="path42" />
    <path
       d="m 298.815,158.672 c -0.039,0.697 0.494,1.293 1.191,1.333 l 7.553,0.425 c 0.697,0.039 1.293,-0.494 1.332,-1.19 0.04,-0.697 -0.493,-1.293 -1.19,-1.333 l -7.553,-0.425 c -0.697,-0.039 -1.293,0.494 -1.333,1.19 z"
       fill="#ffed00"
       id="path43" />
    <path
       d="m 279.748,181.555 c -0.607,0.344 -0.82,1.116 -0.475,1.722 l 1.677,2.953 c 0.344,0.607 1.115,0.819 1.723,0.475 0.606,-0.345 0.818,-1.116 0.474,-1.723 l -1.677,-2.952 c -0.345,-0.607 -1.116,-0.82 -1.722,-0.475 z"
       fill="#ffed00"
       id="path44" />
    <path
       d="m 283.47,178.573 c -0.535,0.447 -0.606,1.244 -0.158,1.779 l 4.205,5.027 c 0.447,0.534 1.245,0.606 1.779,0.158 0.535,-0.448 0.606,-1.245 0.158,-1.78 l -4.205,-5.026 c -0.447,-0.535 -1.245,-0.606 -1.779,-0.158 z"
       fill="#ffed00"
       id="path45" />
    <path
       d="m 287.064,175.876 c -0.511,0.476 -0.539,1.275 -0.063,1.786 l 5.454,5.853 c 0.476,0.51 1.275,0.538 1.785,0.063 0.511,-0.476 0.539,-1.275 0.063,-1.786 l -5.454,-5.853 c -0.476,-0.51 -1.276,-0.538 -1.785,-0.063 z"
       fill="#ffed00"
       id="path46" />
    <path
       d="m 270.295,163.982 c -3.138,-1.251 -5.454,-1.864 -8.803,-1.864 -3.778,0 -5.454,3.564 -6.088,7.315 v 4.202 c 3.137,-3.989 3.137,-9.841 8.188,-9.841 2.497,0 4.174,0.826 6.703,0.188"
       fill="#ffed00"
       id="path47" />
    <path
       d="m 269.849,237.198 c -0.03,0.101 0.02,0.209 0.115,0.253 1.703,0.781 2.848,1.446 4.059,2.15 l 1.381,0.792 c 0.012,0.006 0.698,0.314 0.698,0.314 1.102,0.478 2.144,0.929 2.144,2.002 0,2.479 -2.85,3.776 -5.665,3.776 -4.453,0 -7.125,-0.374 -11.915,-1.668 -0.103,-0.028 -0.211,0.024 -0.252,0.123 -0.041,0.098 -0.004,0.211 0.088,0.265 2.046,1.215 3.751,1.918 6.414,1.918 l 1.292,-0.039 c 1.453,-0.065 3.099,-0.139 3.794,0.527 0.247,0.236 0.367,0.555 0.367,0.975 0,1.179 -0.808,1.94 -1.663,2.746 -0.436,0.411 -0.886,0.835 -1.247,1.331 -1.254,1.801 -2.443,3.275 -3.594,4.702 -1.91,2.368 -3.714,4.606 -5.436,7.896 0,0 0,0 -10e-4,10e-4 -0.002,0.004 -0.005,0.007 -0.007,0.011 -0.016,0.032 -0.024,0.065 -0.024,0.099 0,0.074 0.039,0.147 0.108,0.185 0.1,0.057 0.227,0.024 0.287,-0.075 1.194,-1.966 2.389,-3.006 3.9,-4.323 l 0.263,-0.229 c 2.113,-1.903 3.558,-3.727 4.955,-5.491 1.291,-1.631 2.646,-3.316 4.507,-5.055 -0.04,0.271 -0.093,0.53 -0.159,0.788 -0.108,0.424 -0.219,0.862 -0.219,1.409 0,0.963 0.165,1.664 0.325,2.341 0.162,0.688 0.315,1.336 0.315,2.26 0,0 -0.212,3.784 -0.212,3.788 0,0.091 0.059,0.166 0.147,0.195 0.09,0.03 0.191,-0.011 0.245,-0.091 l 0.297,-0.444 c 0.376,-0.554 0.802,-1.182 0.974,-1.678 0.008,-0.023 0.012,-0.046 0.012,-0.07 v -7.771 c 0.603,-3.543 2.742,-4.82 6.256,-6.754 -0.041,0.716 -0.588,10.321 -0.588,10.324 0,0.103 0.074,0.193 0.176,0.21 0.106,0.018 0.21,-0.045 0.241,-0.149 0.504,-1.696 0.638,-3.194 0.767,-4.644 0.192,-2.16 0.359,-4.025 1.702,-5.994 1.316,-1.922 3.353,-2.355 5.51,-2.814 1.524,-0.324 3.1,-0.659 4.504,-1.54 0.055,-0.034 0.091,-0.091 0.099,-0.156 0.007,-0.064 -0.016,-0.128 -0.061,-0.174 -0.12,-0.12 -0.206,-0.321 -0.298,-0.534 -0.189,-0.442 -0.425,-0.99 -1.101,-0.99 -2.468,0 -4.307,0.808 -6.084,1.589 -1.811,0.797 -3.522,1.549 -5.881,1.549 -2.41,0 -4.111,-0.935 -5.911,-1.924 -1.574,-0.866 -3.202,-1.761 -5.392,-2.062 -0.103,-0.016 -0.203,0.049 -0.232,0.15 z"
       id="path48" />
    <path
       d="m 262.293,245.679 c 2.012,0.498 3.677,0.808 5.379,0.995 -0.365,0.011 -0.756,0.023 -0.756,0.023 -1.866,0 -3.246,-0.368 -4.623,-1.018 z"
       fill="#ffed00"
       id="path49" />
    <path
       d="m 274.237,239.232 c -0.762,-0.442 -1.514,-0.873 -2.379,-1.324 1.258,0.41 2.353,0.992 3.412,1.573 1.849,1.017 3.596,1.977 6.115,1.977 2.45,0 4.281,-0.805 6.052,-1.584 1.738,-0.764 3.536,-1.554 5.913,-1.554 0.377,0 0.516,0.279 0.712,0.733 0.065,0.153 0.14,0.302 0.225,0.441 -1.293,0.755 -2.751,1.079 -4.167,1.38 -2.243,0.477 -4.361,0.927 -5.773,2.99 -1.406,2.061 -1.585,4.07 -1.775,6.197 -0.046,0.506 -0.098,1.024 -0.16,1.548 0.179,-3.124 0.434,-7.62 0.434,-7.624 0,-0.073 -0.037,-0.142 -0.099,-0.18 -0.065,-0.041 -0.148,-0.044 -0.216,-0.007 -3.703,2.035 -6.15,3.38 -6.81,7.278 0,0 -0.003,7.667 -0.003,7.76 -0.139,0.386 -0.463,0.883 -0.781,1.354 0.03,-0.53 0.168,-3.008 0.168,-3.008 0,-0.973 -0.166,-1.676 -0.326,-2.357 -0.161,-0.684 -0.313,-1.33 -0.313,-2.244 0,-0.493 0.1,-0.887 0.206,-1.304 0.109,-0.431 0.222,-0.877 0.222,-1.44 0,-0.084 -0.049,-0.16 -0.126,-0.194 -0.077,-0.034 -0.166,-0.02 -0.229,0.036 -2.115,1.902 -3.562,3.729 -4.961,5.496 -1.386,1.75 -2.82,3.56 -4.904,5.437 0.003,-0.002 -0.26,0.227 -0.26,0.227 -0.701,0.611 -1.331,1.169 -1.931,1.782 1.194,-1.837 2.428,-3.395 3.714,-4.989 1.155,-1.432 2.349,-2.913 3.609,-4.723 0.335,-0.46 0.771,-0.87 1.192,-1.267 0.883,-0.833 1.797,-1.693 1.797,-3.056 0,-0.535 -0.168,-0.967 -0.498,-1.283 -0.189,-0.18 -0.433,-0.303 -0.699,-0.403 0.325,0.004 0.641,0.011 0.984,0.011 3.026,0 6.089,-1.442 6.089,-4.201 0,-1.352 -1.275,-1.905 -2.4,-2.392 l -0.671,-0.3 c 0.011,0.003 -1.363,-0.786 -1.363,-0.786 z"
       fill="#ffed00"
       id="path50" />
    <path
       d="m 342.862,189.67 c -0.002,0.003 -0.004,0.005 -0.006,0.008 v -0.001 c -3.369,4.357 -6.173,6.269 -10.416,9.164 l -0.649,0.443 c -1.128,0.788 -1.899,1.742 -2.645,2.665 -1.009,1.248 -1.991,2.412 -3.726,3.04 v -4.491 c 0,-0.109 -0.081,-0.2 -0.19,-0.212 -0.108,-0.012 -0.208,0.06 -0.231,0.167 -0.26,1.204 -0.24,2.292 -0.221,3.344 0.029,1.493 0.055,2.904 -0.787,4.359 -1.049,1.797 -2.166,3.052 -3.35,4.38 -0.737,0.826 -1.499,1.682 -2.299,2.724 -0.532,0.675 -0.873,1.487 -1.203,2.272 -0.602,1.434 -1.123,2.672 -2.617,2.672 -0.154,0 -0.278,-0.077 -0.422,-0.166 -0.123,-0.076 -0.269,-0.143 -0.434,-0.186 v -7.388 l -1.466,-5.929 c -0.028,-0.112 -0.141,-0.181 -0.253,-0.156 -0.113,0.026 -0.185,0.137 -0.162,0.25 0.697,3.42 0.677,5.396 0.648,8.387 l -0.012,2.049 c 0,6.384 -2.275,10.087 -5.423,15.211 -0.009,0.014 -0.21,0.402 -0.21,0.402 -0.708,1.351 -1.677,3.202 -0.571,3.88 0.98,0.707 2.793,-0.456 3.449,-1.328 1.459,-1.886 2.099,-3.386 2.537,-5.944 1.018,-4.836 5.22,-5.901 10.086,-7.136 l 0.232,-0.058 c 2.873,-0.738 5.134,-1.068 7.319,-1.387 2.794,-0.407 5.432,-0.791 9.081,-1.968 0.1,-0.032 0.162,-0.132 0.145,-0.236 -0.015,-0.103 -0.104,-0.179 -0.21,-0.179 h -8.405 c -0.026,0 -0.051,0.004 -0.074,0.013 -3.891,1.451 -6.011,2.088 -9.978,2.088 -0.532,0 -0.793,-0.089 -1.155,-0.212 0,0 -0.13,-0.04 -0.24,-0.074 2.387,-1.565 3.321,-3.048 4.568,-6.18 0.952,-2.589 2.752,-5.215 4.955,-4.841 4.876,0.831 7.822,-0.408 12.096,-2.548 0.001,-0.001 0.93,-0.53 0.93,-0.53 0.293,-0.176 0.575,-0.335 0.859,-0.477 1.279,-0.251 2.639,-0.434 4.179,-0.434 0.118,0 0.213,-0.095 0.213,-0.213 0,-0.118 -0.095,-0.213 -0.213,-0.213 h -2.498 c -0.713,0 -1.283,0.193 -1.816,0.454 -1.025,0.203 -2.002,0.446 -2.954,0.693 -2.159,0.559 -4.391,1.138 -7.201,1.138 l -1.581,0.051 c -0.804,0.041 -1.538,0.057 -2.426,-0.027 1.58,-2.665 3.419,-4.143 5.37,-5.672 1.327,-1.04 2.7,-2.116 4.039,-3.626 1.379,-1.497 2.277,-2.891 3.146,-4.24 0.729,-1.13 1.481,-2.298 2.518,-3.529 0.001,-0.002 0.003,-0.004 0.005,-0.007 0.03,-0.039 0.045,-0.085 0.045,-0.13 0,-0.062 -0.028,-0.124 -0.08,-0.166 -0.09,-0.071 -0.222,-0.058 -0.296,0.03 z"
       id="path51" />
    <path
       d="m 325.27,205.516 c 2.052,-0.634 3.099,-1.929 4.206,-3.299 0.728,-0.9 1.48,-1.83 2.556,-2.582 l 0.647,-0.442 c 3.044,-2.076 5.352,-3.666 7.66,-5.991 -0.009,0.013 -0.018,0.028 -0.028,0.041 -0.859,1.334 -1.747,2.713 -3.103,4.185 -1.317,1.484 -2.674,2.548 -3.987,3.578 -2.063,1.617 -4.01,3.143 -5.672,6.09 -0.018,0.033 -0.027,0.069 -0.027,0.104 0,0.034 0.008,0.066 0.022,0.096 0.032,0.063 0.094,0.106 0.164,0.116 1.111,0.141 1.957,0.098 2.853,0.052 l 1.56,-0.051 c 2.863,0 5.123,-0.585 7.308,-1.151 0.515,-0.133 1.036,-0.268 1.567,-0.395 -0.265,0.15 -0.567,0.322 -0.567,0.322 -4.194,2.101 -7.084,3.319 -11.833,2.508 -2.459,-0.418 -4.414,2.365 -5.423,5.109 -1.274,3.2 -2.187,4.623 -4.775,6.225 -0.071,0.044 -0.105,0.126 -0.095,0.209 0.012,0.083 0.075,0.153 0.155,0.178 l 0.648,0.196 c 0.385,0.131 0.69,0.235 1.292,0.235 4.022,0 6.172,-0.641 10.089,-2.101 h 6.875 c -2.888,0.826 -5.199,1.189 -7.584,1.537 -2.198,0.321 -4.47,0.651 -7.365,1.395 l -0.23,0.059 c -5.004,1.268 -9.326,2.364 -10.4,7.467 -0.43,2.519 -1.028,3.918 -2.457,5.766 -0.638,0.848 -2.178,1.735 -2.874,1.233 -0.217,-0.133 -0.305,-0.362 -0.305,-0.648 0,-0.741 0.587,-1.861 1.016,-2.68 l 0.203,-0.392 c 3.177,-5.169 5.478,-8.915 5.478,-15.419 l 0.013,-2.046 c 0.005,-0.546 0.011,-1.063 0.011,-1.567 0,-0.966 -0.027,-1.887 -0.098,-2.85 0.209,0.84 0.476,1.912 0.476,1.912 l -0.007,7.507 c 0,0.118 0.095,0.213 0.213,0.213 0.154,0 0.278,0.077 0.422,0.166 0.174,0.107 0.372,0.229 0.645,0.229 1.777,0 2.404,-1.491 3.01,-2.932 0.319,-0.759 0.65,-1.544 1.146,-2.176 0.793,-1.031 1.55,-1.881 2.281,-2.702 1.198,-1.345 2.33,-2.615 3.401,-4.449 0.562,-0.972 0.762,-1.908 0.827,-2.852 0.03,0.003 0.058,0.006 0.086,-0.003 z"
       fill="#ffed00"
       id="path52" />
    <path
       d="m 270.83,215.887 c -0.184,-0.318 -0.417,-0.5 -0.701,-0.555 -0.676,-0.131 -1.468,0.486 -2.305,1.138 -0.5,0.39 -1.018,0.792 -1.47,0.99 -0.01,0.004 -2.736,1.316 -2.736,1.316 -1.572,0.739 -2.93,1.378 -4.839,2.471 -5.959,3.301 -9.856,4.36 -16.034,4.36 -0.093,0 -0.175,0.06 -0.203,0.149 -0.028,0.089 0.005,0.186 0.081,0.238 0.616,0.43 1.502,0.676 2.432,0.676 2.52,0 4.447,-0.303 6.488,-0.623 1.66,-0.261 3.377,-0.532 5.463,-0.628 5.096,-0.382 10.29,-1.209 12.973,-6.632 -0.002,0.004 0.27,-0.483 0.27,-0.483 0.446,-0.772 0.953,-1.648 0.581,-2.417 z"
       id="path53" />
    <g
       fill="#ffed00"
       id="g76">
      <path
         d="m 176.893,244.16 4.392,-1.942 -2.184,-4.891 c -0.398,-0.85 -0.85,-1.488 -1.436,-1.888 -0.555,-0.401 -1.273,-0.425 -2.1,-0.056 -0.929,0.425 -1.381,1.062 -1.358,1.912 0.079,0.692 0.32,1.548 0.748,2.501 m 9.601,0.959 5.292,-2.366 -2.154,-4.869 c -0.398,-0.873 -0.826,-1.511 -1.279,-1.881 -0.821,-0.692 -1.834,-0.747 -3.059,-0.219 -1.032,0.456 -1.539,1.203 -1.569,2.234 0,0.559 0.187,1.275 0.561,2.155 z m -13.829,-6.858 c 0.585,-0.984 1.436,-1.73 2.631,-2.258 1.195,-0.534 2.317,-0.668 3.325,-0.4 0.561,0.157 1.17,0.504 1.81,1.007 -0.079,-1.165 0.156,-2.209 0.717,-3.059 0.586,-0.874 1.437,-1.566 2.577,-2.077 1.17,-0.527 2.371,-0.715 3.566,-0.527 0.772,0.102 1.515,0.346 2.178,0.722 0.772,0.425 1.436,1.032 1.997,1.833 0.585,0.765 1.092,1.675 1.545,2.683 l 3.988,8.989 -19.839,8.855 -4.308,-9.651 c -1.038,-2.452 -1.116,-4.497 -0.187,-6.117 z"
         id="path54" />
      <path
         d="m 165.568,225.12 -1.014,-4.412 17.365,-4.018 -2.419,-10.476 3.807,-0.877 3.457,14.891"
         id="path55" />
      <path
         d="m 174.902,194.355 0.29,-5.505 -8.695,2.261 m -5.081,2.26 0.266,-5.104 22.101,-6.571 -0.265,4.92 -4.519,1.171 -0.429,8.003 4.386,1.73 -0.235,4.734 z"
         id="path56" />
      <path
         d="m 165.622,171.673 c -1.303,-2.127 -1.653,-4.546 -0.989,-7.208 0.905,-3.535 2.714,-5.847 5.454,-6.885 1.514,-0.586 2.95,-0.744 4.284,-0.479 l -1.092,4.388 c -1.093,0.055 -1.943,0.212 -2.582,0.531 -1.117,0.586 -1.859,1.649 -2.257,3.22 -0.398,1.621 -0.054,3.029 1.008,4.279 1.068,1.25 2.769,2.182 5.135,2.767 2.365,0.583 4.253,0.532 5.69,-0.133 1.411,-0.692 2.316,-1.782 2.684,-3.299 0.399,-1.542 0.187,-2.843 -0.634,-3.909 -0.428,-0.586 -1.146,-1.168 -2.16,-1.726 l 1.092,-4.364 c 2.184,0.959 3.832,2.394 4.869,4.336 1.038,1.914 1.273,4.094 0.664,6.54 -0.772,3.031 -2.342,5.186 -4.706,6.436 -2.396,1.25 -5.292,1.435 -8.695,0.61 -3.674,-0.928 -6.28,-2.63 -7.765,-5.104"
         id="path57" />
      <path
         d="m 170.805,147.317 1.967,-4.018 8.031,3.912 -4.362,-11.462 2.582,-5.266 4.151,11.914 15.579,-2.792 -2.552,5.239 -11.488,1.86 1.062,2.925 6.516,3.193 -1.937,4.014"
         id="path58" />
      <path
         d="m 190.62,121.549 3.614,3.138 3.512,-4.015 c 0.609,-0.72 0.983,-1.409 1.115,-2.101 0.11,-0.691 -0.186,-1.329 -0.874,-1.942 -0.748,-0.664 -1.521,-0.798 -2.263,-0.424 -0.64,0.373 -1.279,0.956 -1.967,1.754 m 3.192,9.095 4.387,3.803 3.481,-4.015 c 0.64,-0.719 1.015,-1.384 1.171,-1.943 0.296,-1.038 -0.078,-1.993 -1.086,-2.87 -0.857,-0.747 -1.756,-0.904 -2.691,-0.48 -0.501,0.24 -1.086,0.719 -1.702,1.436 z m 0.368,-15.422 c 1.116,0.106 2.184,0.586 3.167,1.408 0.984,0.877 1.569,1.835 1.756,2.874 0.079,0.558 0.024,1.247 -0.163,2.046 1.038,-0.559 2.075,-0.771 3.089,-0.638 1.038,0.158 2.021,0.638 2.974,1.462 0.96,0.823 1.623,1.833 1.968,3.005 0.241,0.744 0.35,1.515 0.296,2.284 -0.079,0.881 -0.344,1.73 -0.827,2.58 -0.453,0.853 -1.062,1.678 -1.78,2.528 l -6.462,7.416 -16.406,-14.251 6.908,-7.977 c 1.787,-1.966 3.622,-2.898 5.48,-2.737 z"
         id="path59" />
      <path
         d="m 203.513,102.883 3.699,-2.765 8.031,10.661 c 0.905,1.199 1.702,1.97 2.395,2.288 1.171,0.664 2.498,0.425 3.988,-0.692 1.461,-1.117 2.046,-2.313 1.756,-3.617 -0.133,-0.771 -0.639,-1.754 -1.544,-2.95 l -8.055,-10.664 3.692,-2.765 8.031,10.661 c 1.412,1.835 2.208,3.511 2.396,4.946 0.343,2.713 -0.96,5.187 -3.965,7.448 -3.028,2.26 -5.768,2.87 -8.265,1.781 -1.358,-0.586 -2.715,-1.809 -4.098,-3.669"
         id="path60" />
      <path
         d="m 233.941,88.365 1.991,5.505 4.839,-1.784 c 0.96,-0.343 1.654,-0.717 2.052,-1.117 0.688,-0.689 0.851,-1.621 0.422,-2.765 -0.452,-1.223 -1.171,-1.914 -2.123,-2.048 -0.561,-0.051 -1.304,0.082 -2.239,0.401 m 3.089,-4.547 c 0.905,0.052 1.726,0.292 2.498,0.716 0.64,0.374 1.195,0.798 1.678,1.329 0.476,0.534 0.875,1.224 1.171,2.021 0.343,0.959 0.452,2.021 0.319,3.138 -0.163,1.117 -0.718,2.049 -1.707,2.846 1.067,0.052 1.942,0.347 2.582,0.905 0.639,0.558 1.225,1.542 1.755,2.977 l 0.507,1.357 c 0.343,0.955 0.609,1.569 0.796,1.86 0.29,0.506 0.688,0.798 1.195,0.877 l 0.187,0.534 -4.706,1.699 c -0.295,-0.397 -0.507,-0.744 -0.663,-0.983 -0.32,-0.532 -0.586,-1.118 -0.827,-1.699 l -0.718,-1.891 c -0.477,-1.302 -1.038,-2.072 -1.677,-2.34 -0.61,-0.264 -1.539,-0.185 -2.788,0.268 l -4.417,1.62 2.926,8.005 -4.175,1.515 -7.421,-20.421 9.998,-3.645 c 1.466,-0.503 2.606,-0.716 3.487,-0.688 z"
         id="path61" />
      <path
         d="m 254.414,77.409 4.736,-0.586 10.451,14.015 -1.859,-15.052 4.2,-0.531 2.66,21.564 -4.519,0.559 -10.691,-14.227 1.888,15.319 -4.206,0.504"
         id="path62" />
      <path
         d="m 294.417,79.883 -0.936,5.741 5.105,0.826 c 1.013,0.158 1.786,0.158 2.317,0 0.96,-0.267 1.545,-1.01 1.726,-2.206 0.216,-1.306 -0.079,-2.234 -0.875,-2.82 -0.452,-0.346 -1.17,-0.585 -2.13,-0.719 m 4.893,-2.498 c 0.772,0.477 1.387,1.09 1.834,1.833 0.374,0.613 0.669,1.278 0.826,1.994 0.164,0.692 0.188,1.462 0.055,2.316 -0.157,1.01 -0.585,1.993 -1.249,2.898 -0.664,0.904 -1.647,1.462 -2.872,1.675 0.905,0.558 1.514,1.222 1.804,2.021 0.319,0.798 0.35,1.966 0.109,3.456 l -0.242,1.435 c -0.157,0.984 -0.212,1.649 -0.181,2.022 0.024,0.586 0.236,1.038 0.609,1.357 l -0.079,0.531 -4.946,-0.771 c -0.055,-0.503 -0.079,-0.904 -0.109,-1.195 -0.024,-0.613 0.031,-1.25 0.109,-1.888 l 0.289,-1.997 c 0.187,-1.381 0.084,-2.312 -0.314,-2.871 -0.428,-0.531 -1.278,-0.877 -2.606,-1.089 l -4.628,-0.747 -1.333,8.43 -4.387,-0.692 3.403,-21.485 10.535,1.675 c 1.485,0.267 2.631,0.641 3.373,1.092 z"
         id="path63" />
      <path
         d="m 325.049,102.245 c 1.546,-0.719 2.848,-2.209 3.911,-4.388 1.061,-2.206 1.406,-4.121 1.037,-5.772 -0.343,-1.675 -1.334,-2.898 -2.95,-3.696 -1.624,-0.771 -3.192,-0.823 -4.736,-0.079 -1.57,0.719 -2.873,2.182 -3.935,4.388 -1.092,2.182 -1.437,4.121 -1.037,5.772 0.367,1.675 1.381,2.895 3.004,3.693 1.593,0.774 3.162,0.798 4.706,0.082 m 1.117,4.201 c -2.232,0.824 -4.73,0.531 -7.524,-0.826 -2.793,-1.354 -4.549,-3.163 -5.291,-5.396 -1.068,-2.847 -0.749,-6.009 0.954,-9.52 1.755,-3.563 4.042,-5.772 6.913,-6.594 2.209,-0.826 4.707,-0.535 7.5,0.822 2.795,1.357 4.574,3.165 5.292,5.399 1.092,2.768 0.772,5.93 -0.954,9.52 -1.731,3.511 -4.017,5.69 -6.89,6.595 z"
         id="path64" />
      <path
         d="m 355.448,102.139 3.723,2.898 -19.23,12.552 -3.373,-2.634 7.602,-21.643 3.832,2.977 -6.462,15.901"
         id="path65" />
      <path
         d="m 371.853,124.42 -7.711,-8.561 -3.427,3.083 7.072,7.845 -2.819,2.528 -7.047,-7.845 -4.175,3.748 8.054,8.934 -2.896,2.634 -11.011,-12.26 16.141,-14.542 10.666,11.857"
         id="path66" />
      <path
         d="m 380.071,136.999 -5.237,2.552 2.232,4.628 c 0.453,0.928 0.905,1.569 1.333,1.915 0.767,0.637 1.703,0.689 2.789,0.13 1.2,-0.558 1.809,-1.353 1.84,-2.339 0,-0.559 -0.217,-1.248 -0.64,-2.152 m 4.839,2.603 c 0.054,0.881 -0.109,1.73 -0.452,2.556 -0.29,0.664 -0.664,1.25 -1.146,1.808 -0.478,0.532 -1.117,0.984 -1.889,1.353 -0.9,0.453 -1.937,0.666 -3.083,0.641 -1.117,-0.028 -2.101,-0.507 -3.005,-1.384 0.078,1.065 -0.133,1.967 -0.64,2.659 -0.477,0.691 -1.382,1.383 -2.764,2.048 l -1.303,0.637 c -0.904,0.452 -1.49,0.771 -1.78,1.011 -0.452,0.345 -0.694,0.77 -0.749,1.277 l -0.476,0.238 -2.207,-4.492 c 0.373,-0.346 0.693,-0.586 0.928,-0.771 0.507,-0.373 1.039,-0.719 1.6,-1.01 l 1.81,-0.905 c 1.218,-0.612 1.936,-1.25 2.153,-1.887 0.212,-0.64 0,-1.569 -0.585,-2.768 l -2.05,-4.227 -7.658,3.751 -1.943,-3.991 19.519,-9.52 4.682,9.575 c 0.64,1.381 0.983,2.525 1.038,3.401 z"
         id="path67" />
      <path
         d="m 378.822,162.712 c -0.93,0.373 -1.594,0.798 -1.967,1.302 -0.694,0.931 -0.827,2.288 -0.373,4.018 0.24,1.034 0.584,1.86 0.958,2.446 0.743,1.117 1.726,1.541 2.927,1.222 0.688,-0.16 1.14,-0.613 1.382,-1.304 0.212,-0.717 0.29,-1.755 0.266,-3.136 l -0.055,-2.342 c -0.055,-2.312 0.108,-3.988 0.483,-4.971 0.609,-1.651 1.967,-2.74 4.042,-3.271 1.882,-0.453 3.613,-0.158 5.207,0.904 1.599,1.062 2.715,2.925 3.379,5.584 0.561,2.206 0.453,4.254 -0.344,6.115 -0.797,1.863 -2.286,3.113 -4.519,3.75 l -1.038,-4.227 c 1.249,-0.4 1.992,-1.172 2.287,-2.34 0.187,-0.773 0.133,-1.678 -0.109,-2.685 -0.289,-1.144 -0.742,-1.997 -1.38,-2.556 -0.616,-0.558 -1.328,-0.743 -2.156,-0.531 -0.772,0.185 -1.248,0.665 -1.436,1.412 -0.163,0.503 -0.21,1.487 -0.187,2.977 l 0.024,3.857 c 0,1.675 -0.18,3.003 -0.633,3.987 -0.67,1.487 -1.973,2.473 -3.832,2.95 -1.943,0.479 -3.722,0.133 -5.37,-1.011 -1.623,-1.168 -2.794,-3.083 -3.457,-5.769 -0.694,-2.737 -0.586,-5.053 0.266,-6.94 0.874,-1.888 2.388,-3.111 4.597,-3.669"
         id="path68" />
      <path
         d="m 398.559,197.733 -1.07,15.37 -3.8,-0.267 0.741,-10.876 -4.971,-0.347 -0.663,9.523 -3.777,-0.267 0.663,-9.519 -9.093,-0.64 0.32,-4.491"
         id="path69" />
      <path
         d="m 379.703,211.136 -0.773,4.413 -4.337,-0.771 0.771,-4.388"
         id="path70" />
      <path
         d="m 391.029,229.004 c 0.982,2.313 0.982,4.735 -0.055,7.284 -1.352,3.374 -3.481,5.401 -6.33,6.094 -1.592,0.34 -3.029,0.315 -4.332,-0.134 l 1.702,-4.206 c 1.092,0.109 1.966,0.055 2.63,-0.188 1.17,-0.395 2.076,-1.353 2.692,-2.864 0.609,-1.518 0.476,-2.981 -0.404,-4.365 -0.876,-1.383 -2.445,-2.524 -4.707,-3.453 -2.256,-0.91 -4.145,-1.117 -5.636,-0.668 -1.514,0.504 -2.552,1.464 -3.137,2.902 -0.586,1.486 -0.561,2.793 0.078,3.957 0.345,0.644 0.985,1.305 1.913,2.021 l -1.671,4.146 c -2.052,-1.244 -3.458,-2.895 -4.229,-4.941 -0.773,-2.051 -0.694,-4.254 0.24,-6.596 1.195,-2.896 3.029,-4.814 5.557,-5.712 2.552,-0.911 5.449,-0.692 8.695,0.607 3.511,1.431 5.853,3.458 6.994,6.116"
         id="path71" />
      <path
         d="m 369.09,241.793 -2.288,3.83 -3.777,-2.257 2.312,-3.837"
         id="path72" />
      <path
         d="m 199.236,282.052 h 3.161 v -18.111 h -2.208 c -0.289,2.1 -1.967,3.247 -4.917,3.301 v 2.149 h 3.964"
         id="path73" />
      <path
         d="m 209.874,272.316 c -1.889,0.456 -2.638,1.942 -2.638,4.71 0,3.666 1.521,5.341 4.869,5.341 3.434,0 4.972,-1.748 4.972,-5.584 0,-2.683 -0.772,-4.066 -2.709,-4.467 1.593,-0.498 2.365,-1.724 2.365,-3.8 0,-2.95 -1.598,-4.545 -4.573,-4.545 -2.981,0 -4.574,1.572 -4.574,4.467 10e-4,2.13 0.773,3.429 2.288,3.878 m 2.256,1.201 c 1.333,0 1.653,1.033 1.653,3.163 0,2.233 -0.266,3.137 -1.653,3.137 -1.303,0 -1.618,-0.873 -1.618,-2.87 0,-2.397 0.236,-3.43 1.618,-3.43 z m -1.46,-4.758 c 0,-1.627 0.343,-2.397 1.411,-2.397 1.195,0 1.539,0.722 1.539,2.397 0,1.645 -0.369,2.391 -1.49,2.391 -1.117,0.001 -1.46,-0.746 -1.46,-2.391 z"
         id="path74" />
      <path
         d="m 344.623,282.076 h 3.434 c 0.421,-5.554 1.882,-10.658 4.308,-15.18 v -2.579 h -9.95 v 2.95 h 6.758 c -2.74,5.449 -4.23,10.45 -4.55,14.809"
         id="path75" />
      <path
         d="m 354.331,276.309 v 0.45 c 0,3.86 1.539,5.692 4.84,5.692 3.613,0 5.134,-2.123 5.134,-6.7 0,-3.993 -1.521,-5.96 -4.58,-5.96 -1.008,0 -1.75,0.291 -2.443,1.014 l 0.186,-3.618 h 6.035 v -2.871 h -8.533 l -0.483,9.414 h 2.928 c 0.077,-0.879 0.741,-1.463 1.646,-1.463 1.413,0 1.967,1.196 1.967,3.696 0,2.714 -0.477,4.013 -1.779,4.013 -1.196,0 -1.81,-1.063 -1.81,-3.193 v -0.474"
         id="path76" />
    </g>
  </g>
</svg>
