<?xml version="1.0" encoding="UTF-8" standalone="no"?>
<svg
   clip-rule="evenodd"
   fill-rule="evenodd"
   stroke-linejoin="round"
   stroke-miterlimit="2"
   viewBox="0 0 250.162 270"
   version="1.1"
   id="svg25"
   sodipodi:docname="Bolton.svg"
   width="250.162"
   height="270"
   xmlns:inkscape="http://www.inkscape.org/namespaces/inkscape"
   xmlns:sodipodi="http://sodipodi.sourceforge.net/DTD/sodipodi-0.dtd"
   xmlns="http://www.w3.org/2000/svg"
   xmlns:svg="http://www.w3.org/2000/svg">
  <defs
     id="defs25" />
  <sodipodi:namedview
     id="namedview25"
     pagecolor="#ffffff"
     bordercolor="#000000"
     borderopacity="0.25"
     inkscape:showpageshadow="2"
     inkscape:pageopacity="0.0"
     inkscape:pagecheckerboard="0"
     inkscape:deskcolor="#d1d1d1" />
  <clipPath
     id="a">
    <path
       clip-rule="evenodd"
       d="m 306.599,303.22 c -0.04,0.52 -9.719,1.582 -9.749,2.072 -0.114,1.644 2.387,26.126 2.387,26.126 44.098,-23.433 78.914,-56.248 105.84,-57.734 l -8.761,-15.677 c 0,-0.267 3.069,-20.871 3.953,-22.808 -43.889,17.702 -57.065,44.326 -93.67,68.021"
       id="path1" />
  </clipPath>
  <clipPath
     id="b">
    <path
       clip-rule="evenodd"
       d="m 163.681,258.007 -8.77,15.677 c 26.931,1.486 61.752,34.301 105.845,57.734 0,0 2.505,-24.482 2.392,-26.126 -0.035,-0.49 -9.71,-1.552 -9.749,-2.072 -36.61,-23.695 -49.786,-50.319 -93.674,-68.021 0.883,1.937 3.956,22.541 3.956,22.808"
       id="path2" />
  </clipPath>
  <clipPath
     id="c">
    <path
       clip-rule="evenodd"
       d="m 279.997,279.935 c -38.463,0 -67.352,-20.687 -84.673,-39.927 l -7.344,39.818 c 28.158,13.12 60.238,35.87 91.999,35.87 31.779,0 63.833,-22.737 92,-35.861 l -7.314,-39.827 c -17.317,19.24 -46.192,39.927 -84.668,39.927"
       id="path3" />
  </clipPath>
  <path
     d="m 245.349,170.199 c -0.883,1.936 -3.952,22.536 -3.952,22.807 l 8.765,15.682 c -26.93,1.482 -61.746,34.292 -105.84,57.729 0,0 -2.505,-24.482 -2.392,-26.126 0.031,-0.489 9.71,-1.547 9.75,-2.072 36.604,-23.695 49.781,-50.319 93.669,-68.02"
     fill="#df0024"
     id="path4" />
  <g
     clip-path="url(#a)"
     id="g5"
     transform="translate(-154.919,-65)">
    <path
       d="m 368.462,242.287 7.31,39.827 c -21.321,9.938 -41.226,29.029 -65.197,35.95 0.595,-0.525 -2.491,-4.818 -1.976,-5.584 1.347,-1.989 1.587,-3.829 1.701,-5.473 0.052,-0.721 0.074,-1.477 0.162,-2.29 0.079,-0.696 0.205,-1.452 0.454,-2.283 0.285,-0.839 0.634,-1.534 0.993,-2.164 0.406,-0.708 0.826,-1.333 1.211,-1.945 0.878,-1.395 1.762,-3.03 1.845,-5.43 0.061,-1.762 -0.285,-3.248 -0.888,-4.459 0.512,-0.368 0.979,-0.743 1.36,-1.049 1.233,-0.997 2.785,-2.698 2.133,-4.739 -0.647,-2.081 -2.938,-2.549 -4.529,-2.628 -0.489,-0.026 -1.084,-0.052 -1.718,-0.048 -0.074,-0.437 -0.184,-0.883 -0.341,-1.329 25.085,-6.746 44.522,-21.955 57.48,-36.356"
       fill="#c80024"
       id="path5" />
  </g>
  <path
     d="m 4.813,170.199 c 0.883,1.937 3.952,22.537 3.952,22.808 L 0,208.689 c 26.93,1.482 61.746,34.292 105.84,57.729 0,0 2.505,-24.482 2.392,-26.126 -0.036,-0.489 -9.71,-1.547 -9.75,-2.072 C 61.878,214.525 48.701,187.901 4.813,170.2"
     fill="#df0024"
     id="path6" />
  <g
     clip-path="url(#b)"
     id="g7"
     transform="translate(-154.919,-65)">
    <path
       d="m 191.536,242.288 -7.31,39.827 c 21.321,9.937 41.226,29.029 65.197,35.949 -0.591,-0.524 2.491,-4.818 1.976,-5.583 -1.342,-1.989 -1.587,-3.829 -1.701,-5.473 -0.053,-0.721 -0.074,-1.478 -0.162,-2.291 -0.074,-0.695 -0.201,-1.451 -0.454,-2.282 -0.285,-0.839 -0.63,-1.534 -0.988,-2.164 -0.411,-0.708 -0.831,-1.333 -1.216,-1.945 -0.874,-1.395 -1.762,-3.03 -1.845,-5.43 -0.061,-1.762 0.284,-3.248 0.888,-4.459 -0.512,-0.368 -0.98,-0.743 -1.355,-1.049 -1.233,-0.997 -2.79,-2.698 -2.138,-4.739 0.647,-2.082 2.937,-2.549 4.529,-2.628 0.49,-0.026 1.084,-0.052 1.718,-0.048 0.07,-0.437 0.188,-0.883 0.341,-1.329 -25.085,-6.746 -44.518,-21.955 -57.48,-36.356"
       fill="#c80024"
       id="path7" />
  </g>
  <path
     d="m 120.269,117.395 c 0,2.658 -2.156,4.818 -4.814,4.818 H 20.496 c -0.83,-5.338 -1.259,-10.807 -1.259,-16.377 0,-55.263 42.271,-100.642 96.21,-105.512 0.057,-0.005 0.118,0.004 0.179,0.03 2.579,0.092 4.643,2.212 4.643,4.813 z M 97.177,103.913 c 2.658,0 4.809,-2.156 4.809,-4.818 V 82.709 c -0.009,-2.653 -2.16,-4.8 -4.809,-4.8 H 42.595 c -2.797,8.184 -4.406,16.919 -4.62,26.004 z m 0,-44.304 c 2.658,0 4.809,-2.155 4.809,-4.818 V 22.27 C 80.805,27.975 62.832,41.523 51.37,59.609 Z m 50.992,39.486 c 0,2.662 2.156,4.818 4.814,4.818 H 170.78 V 10.252 c 6.488,3.112 12.608,6.868 18.283,11.187 v 77.862 c 0.105,2.566 2.216,4.612 4.805,4.612 h 17.251 C 210.918,95.23 209.435,86.863 206.86,78.989 V 38.585 c 15.031,18.292 24.058,41.72 24.058,67.251 0,5.57 -0.432,11.039 -1.259,16.377 H 134.7 c -2.658,0 -4.809,-2.16 -4.809,-4.818 L 129.887,0 c 6.251,0.28 12.359,1.102 18.282,2.422 z m -96.198,61.539 h 68.322 v 13.487 H 64.37 c 15.612,14.493 34.477,21.979 55.899,23.094 v 14.462 C 72.909,209.561 33.655,176.287 22.45,131.844 h 93.005 c 2.658,0 4.814,2.155 4.814,4.818 v 8.664 H 42.6 c 2.614,5.461 5.749,10.62 9.347,15.411 m 175.758,-28.893 c -1.163,4.625 -2.636,9.124 -4.385,13.482 h -79.96 v 50.184 c 15.59,-3.169 29.742,-10.309 41.349,-20.324 h 20.39 c -18.432,21.29 -45.196,35.149 -75.212,36.491 v -75.016 c 0,-2.662 2.155,-4.817 4.813,-4.817 z"
     fill="#263c7e"
     fill-rule="nonzero"
     id="path8" />
  <path
     d="m 101.388,238.418 6.523,4.52 c 0.039,0.097 -1.089,19.949 -2.077,23.477 -12.993,-8.022 -72.707,-51.439 -72.772,-51.587 -0.04,-0.092 57.646,16.04 68.326,23.59"
     fill="#88111e"
     id="path9" />
  <path
     d="m 142.245,242.939 c -0.044,0.096 1.089,19.948 2.077,23.476 12.993,-8.022 72.672,-51.429 72.737,-51.583 0.044,-0.083 -74.814,28.107 -74.814,28.107"
     fill="#88111e"
     id="path10" />
  <path
     d="m 209.749,175.008 7.31,39.827 c -28.167,13.124 -60.221,35.861 -92,35.861 -31.761,0 -63.841,-22.75 -91.999,-35.87 l 7.349,-39.818 c 17.316,19.24 46.205,39.927 84.668,39.927 38.476,0 67.351,-20.687 84.672,-39.927"
     fill="#df0024"
     id="path11" />
  <g
     clip-path="url(#c)"
     id="g12"
     transform="translate(-154.919,-65)">
    <path
       d="m 253.206,272.645 c 1.718,-2.199 3.681,-3.117 5.294,-3.768 0.656,-0.262 1.351,-0.512 2.077,-0.84 0.612,-0.275 1.211,-0.59 1.827,-1.027 0.564,-0.433 1.028,-0.879 1.46,-1.364 0.538,-0.586 0.988,-1.171 1.443,-1.713 1.119,-1.334 2.601,-2.921 5.22,-3.874 1.403,-0.507 2.741,-0.726 4,-0.704 l 0.223,-0.581 c 0.56,-1.46 2.042,-4.49 5.303,-4.442 3.204,0.018 4.652,3.003 5.207,4.442 l 0.219,0.581 c 1.254,-0.022 2.596,0.197 3.995,0.704 2.623,0.953 4.105,2.54 5.224,3.874 0.451,0.542 0.905,1.123 1.439,1.713 0.446,0.494 0.927,0.957 1.521,1.403 0.599,0.416 1.176,0.722 1.771,0.988 0.725,0.328 1.416,0.578 2.076,0.84 1.613,0.651 3.576,1.569 5.295,3.768 0.918,1.181 1.539,2.383 1.905,3.585 l 0.621,0.031 c 1.552,0.083 4.901,0.546 5.867,3.672 0.966,3.047 -1.412,5.347 -2.614,6.322 l -0.485,0.393 c 0.406,1.194 0.612,2.527 0.559,4.022 -0.096,2.785 -1.141,4.687 -2.068,6.16 -0.376,0.595 -0.786,1.207 -1.184,1.897 -0.315,0.551 -0.621,1.163 -0.875,1.906 -0.21,0.713 -0.314,1.356 -0.384,1.963 -0.084,0.796 -0.105,1.531 -0.158,2.239 -0.118,1.731 -0.389,3.882 -1.945,6.199 -0.835,1.237 -1.793,2.199 -2.82,2.92 l 0.166,0.603 c 0.398,1.5 0.993,4.823 -1.683,6.711 -2.601,1.862 -5.522,0.307 -6.825,-0.533 l -0.52,-0.345 c -1.001,0.756 -2.216,1.368 -3.65,1.779 -2.68,0.769 -4.809,0.363 -6.496,-0.061 -0.687,-0.175 -1.395,-0.376 -2.173,-0.542 -0.621,-0.132 -1.303,-0.232 -2.086,-0.241 -0.739,0.018 -1.385,0.118 -1.98,0.241 -0.782,0.166 -1.486,0.367 -2.177,0.542 -1.688,0.424 -3.821,0.83 -6.501,0.061 -1.43,-0.411 -2.645,-1.023 -3.646,-1.779 l -0.52,0.345 c -1.316,0.844 -4.289,2.426 -6.908,0.472 -2.575,-1.897 -1.997,-5.163 -1.6,-6.65 l 0.166,-0.603 c -1.031,-0.721 -1.984,-1.683 -2.819,-2.92 -1.557,-2.317 -1.828,-4.468 -1.95,-6.199 -0.044,-0.708 -0.07,-1.443 -0.157,-2.239 -0.066,-0.625 -0.18,-1.307 -0.412,-2.054 -0.244,-0.7 -0.542,-1.286 -0.843,-1.815 -0.398,-0.686 -0.814,-1.298 -1.185,-1.897 -0.927,-1.473 -1.972,-3.375 -2.068,-6.16 -0.052,-1.495 0.153,-2.828 0.564,-4.022 l -0.49,-0.394 c -1.215,-0.979 -3.632,-3.326 -2.583,-6.417 1.01,-3.038 4.293,-3.493 5.832,-3.576 l 0.625,-0.031 c 0.367,-1.202 0.988,-2.404 1.906,-3.585"
       fill="#c80024"
       fill-rule="nonzero"
       id="path12" />
  </g>
  <g
     fill-rule="nonzero"
     id="g21"
     transform="translate(-154.919,-65)">
    <path
       d="m 252.465,277.689 c 0.227,-1.338 0.817,-2.737 1.901,-4.132 1.478,-1.888 3.157,-2.697 4.683,-3.309 0.673,-0.267 1.385,-0.525 2.129,-0.861 0.677,-0.302 1.364,-0.665 2.072,-1.172 0.682,-0.507 1.219,-1.036 1.705,-1.569 0.551,-0.613 1.014,-1.211 1.482,-1.767 1.058,-1.259 2.334,-2.605 4.595,-3.427 1.652,-0.608 3.169,-0.73 4.516,-0.534 0.188,-0.603 0.402,-1.158 0.577,-1.617 0.572,-1.491 1.722,-3.524 3.899,-3.493 2.151,0.009 3.283,2.02 3.847,3.493 0.175,0.459 0.39,1.014 0.573,1.617 1.351,-0.196 2.864,-0.074 4.521,0.534 2.255,0.822 3.536,2.168 4.59,3.427 0.468,0.556 0.931,1.154 1.477,1.758 0.503,0.555 1.058,1.093 1.758,1.613 0.691,0.485 1.364,0.839 2.029,1.137 0.743,0.336 1.455,0.594 2.124,0.861 1.53,0.612 3.205,1.421 4.687,3.309 1.084,1.395 1.674,2.794 1.901,4.132 0.626,-0.005 1.229,0.021 1.714,0.048 1.591,0.087 3.882,0.546 4.529,2.636 0.656,2.041 -0.9,3.733 -2.133,4.734 -0.38,0.311 -0.848,0.683 -1.364,1.05 0.608,1.215 0.953,2.693 0.892,4.459 -0.083,2.4 -0.966,4.031 -1.841,5.43 -0.389,0.612 -0.809,1.233 -1.215,1.945 -0.359,0.625 -0.704,1.325 -0.997,2.169 -0.245,0.826 -0.372,1.578 -0.45,2.277 -0.088,0.813 -0.109,1.57 -0.162,2.291 -0.114,1.639 -0.358,3.48 -1.696,5.474 -0.988,1.464 -2.142,2.456 -3.345,3.09 0.202,0.595 0.359,1.172 0.486,1.644 0.411,1.539 0.682,3.865 -1.102,5.119 -1.74,1.255 -3.838,0.298 -5.167,-0.563 -0.411,-0.267 -0.914,-0.595 -1.417,-0.971 -0.97,0.953 -2.269,1.736 -3.965,2.225 -2.313,0.66 -4.136,0.324 -5.736,-0.074 -0.699,-0.179 -1.425,-0.389 -2.225,-0.555 -0.704,-0.149 -1.478,-0.258 -2.37,-0.276 -0.861,0.018 -1.617,0.131 -2.304,0.276 -0.804,0.166 -1.525,0.376 -2.233,0.555 -1.592,0.393 -3.424,0.734 -5.732,0.074 -1.696,-0.489 -2.995,-1.272 -3.965,-2.225 -0.507,0.376 -1.01,0.704 -1.421,0.971 -1.338,0.869 -3.462,1.831 -5.207,0.533 -1.735,-1.268 -1.464,-3.563 -1.058,-5.089 0.127,-0.472 0.285,-1.049 0.486,-1.644 -1.207,-0.634 -2.357,-1.626 -3.34,-3.09 -1.347,-1.994 -1.592,-3.835 -1.705,-5.47 -0.048,-0.725 -0.075,-1.477 -0.162,-2.291 -0.075,-0.716 -0.206,-1.49 -0.468,-2.338 -0.284,-0.818 -0.621,-1.5 -0.975,-2.112 -0.406,-0.708 -0.83,-1.333 -1.215,-1.945 -0.874,-1.399 -1.758,-3.03 -1.845,-5.43 -0.061,-1.766 0.288,-3.244 0.892,-4.459 -0.516,-0.367 -0.98,-0.739 -1.36,-1.049 -1.241,-1.006 -2.82,-2.729 -2.116,-4.792 0.669,-2.042 2.934,-2.492 4.512,-2.579 0.485,-0.026 1.084,-0.053 1.714,-0.048"
       fill="#ffffff"
       id="path13" />
    <g
       fill="#df0024"
       id="g19">
      <path
         d="m 258.19,285.126 c -1.194,-0.35 -2.125,-0.123 -3.178,0.354 -1.723,0.778 -4.014,-1.058 -5.273,-2.081 -1.259,-1.014 -1.609,-1.827 -1.421,-2.378 0.175,-0.555 0.932,-1.002 2.545,-1.085 1.617,-0.091 4.555,-0.227 5.495,1.417 0.568,0.997 1.189,1.731 2.357,2.146 z"
         id="path14" />
      <path
         d="m 301.807,285.126 c 1.189,-0.35 2.12,-0.123 3.174,0.354 1.727,0.778 4.018,-1.058 5.277,-2.081 1.259,-1.014 1.604,-1.827 1.416,-2.378 -0.17,-0.555 -0.927,-1.002 -2.544,-1.085 -1.618,-0.091 -4.551,-0.227 -5.491,1.417 -0.573,0.997 -1.189,1.731 -2.357,2.146 z"
         id="path15" />
      <path
         d="m 267.373,310.142 c -0.7,1.031 -0.77,1.98 -0.643,3.13 0.206,1.884 -2.251,3.493 -3.611,4.376 -1.36,0.879 -2.234,0.962 -2.702,0.612 h 0.005 c -0.481,-0.333 -0.669,-1.189 -0.249,-2.754 0.415,-1.57 1.189,-4.403 3.042,-4.787 1.128,-0.232 2.016,-0.595 2.776,-1.579 z"
         id="path16" />
      <path
         d="m 292.624,310.142 c 0.699,1.031 0.769,1.98 0.642,3.13 -0.205,1.884 2.252,3.493 3.611,4.376 1.356,0.879 2.23,0.962 2.702,0.612 h -0.004 c 0.476,-0.333 0.668,-1.189 0.249,-2.754 -0.415,-1.57 -1.189,-4.403 -3.047,-4.787 -1.128,-0.232 -2.016,-0.595 -2.772,-1.579 z"
         id="path17" />
      <path
         d="m 279.143,268.659 c -0.039,-1.242 -0.542,-2.054 -1.316,-2.907 -1.276,-1.399 -0.231,-4.149 0.346,-5.657 0.586,-1.517 1.241,-2.094 1.827,-2.09 h -0.004 c 0.585,-0.005 1.241,0.573 1.823,2.09 0.585,1.508 1.626,4.258 0.349,5.657 -0.778,0.853 -1.28,1.666 -1.315,2.907 z"
         id="path18" />
      <path
         d="m 256.544,283.695 c 0,0 -5.736,0.796 -5.522,6.842 0.127,3.651 2.589,4.949 3.935,8.919 v -0.005 c 1.237,4 0.013,6.492 2.055,9.522 3.379,5.014 8.49,2.286 8.49,2.286 h 0.004 c 0,0 -1.018,5.71 4.8,7.371 3.511,1.014 5.504,-0.931 9.693,-0.984 4.188,0.053 6.177,1.998 9.692,0.984 5.814,-1.661 4.8,-7.371 4.8,-7.371 0,0 5.111,2.728 8.494,-2.286 2.042,-3.03 0.818,-5.522 2.055,-9.522 v 0.005 c 1.347,-3.97 3.808,-5.268 3.935,-8.919 0.21,-6.046 -5.526,-6.842 -5.526,-6.842 0,0 4.171,-4.017 0.446,-8.782 -2.252,-2.882 -5.002,-2.488 -8.42,-4.901 v 0.004 c -3.353,-2.513 -3.826,-5.25 -7.262,-6.496 -5.683,-2.072 -8.214,3.139 -8.214,3.139 0,0 -2.531,-5.211 -8.219,-3.139 -3.432,1.246 -3.909,3.983 -7.262,6.496 l 0.005,-0.004 c -3.423,2.413 -6.173,2.019 -8.425,4.901 -3.724,4.765 0.446,8.782 0.446,8.782 z"
         id="path19" />
    </g>
    <path
       d="m 265.138,286.5 c 0,0 -3.694,-0.131 -4.809,2.073 -0.734,1.456 -0.498,3.995 1.172,5.241 1.066,0.796 1.635,1.592 2.063,2.842 0.385,1.259 0.394,2.234 0,3.502 -0.616,1.998 0.682,4.192 2.129,4.931 2.204,1.128 5.115,-1.149 5.115,-1.149 l 0.022,0.021 c 0,0 -1.268,3.467 0.485,5.211 1.15,1.15 3.642,1.705 5.347,0.503 1.089,-0.76 2.02,-1.058 3.336,-1.08 1.316,0.022 2.251,0.32 3.335,1.08 1.705,1.202 4.197,0.647 5.351,-0.503 1.749,-1.744 0.486,-5.211 0.486,-5.211 l 0.017,-0.021 c 0,0 2.912,2.277 5.111,1.149 1.447,-0.739 2.75,-2.933 2.133,-4.931 -0.393,-1.268 -0.385,-2.243 0,-3.502 0.429,-1.25 1.001,-2.046 2.059,-2.842 1.675,-1.246 1.911,-3.785 1.176,-5.241 -1.115,-2.204 -4.813,-2.073 -4.813,-2.073 l -0.005,-0.021 c 0,0 3.065,-2.073 2.671,-4.508 -0.257,-1.609 -1.945,-3.523 -4.035,-3.55 -1.324,-0.021 -2.251,-0.332 -3.331,-1.088 h 0.005 c -1.058,-0.792 -1.636,-1.578 -2.064,-2.837 -0.673,-1.972 -3.016,-2.986 -4.625,-2.733 -2.44,0.376 -3.458,3.935 -3.458,3.935 h -0.027 c 0,0 -1.018,-3.559 -3.458,-3.935 -1.608,-0.253 -3.952,0.761 -4.625,2.733 -0.424,1.259 -1.01,2.046 -2.059,2.837 -1.08,0.756 -2.007,1.066 -3.336,1.088 -2.089,0.027 -3.773,1.941 -4.03,3.55 -0.394,2.44 2.671,4.508 2.671,4.508 z m 2.037,0.656 c 0,0 0.262,-0.857 -0.795,-2.055 -0.801,-0.896 -1.115,-1.827 -1.019,-2.57 0.149,-1.229 1.53,-2.326 3.1,-2.61 0.935,-0.162 1.674,-0.455 2.505,-1.04 l -0.005,0.004 c 0.818,-0.607 1.32,-1.224 1.766,-2.059 0.752,-1.408 2.226,-2.387 3.441,-2.146 0.734,0.139 1.521,0.725 2.129,1.766 0.809,1.372 1.709,1.39 1.709,1.39 h -0.017 c 0,0 0.9,-0.018 1.709,-1.39 0.608,-1.041 1.395,-1.627 2.125,-1.766 1.224,-0.241 2.697,0.738 3.445,2.142 0.446,0.839 0.948,1.456 1.762,2.063 v -0.004 c 0.83,0.585 1.569,0.878 2.505,1.04 1.569,0.284 2.95,1.381 3.099,2.61 0.092,0.743 -0.218,1.674 -1.018,2.57 -1.063,1.198 -0.796,2.055 -0.796,2.055 l -0.005,-0.013 c 0,0 0.293,0.848 1.854,1.193 1.172,0.259 1.972,0.827 2.335,1.478 0.598,1.084 0.131,2.785 -0.975,3.939 -0.661,0.682 -1.089,1.351 -1.417,2.313 h 0.005 c -0.306,0.966 -0.35,1.762 -0.219,2.702 0.219,1.578 -0.398,3.23 -1.526,3.759 -0.677,0.311 -1.652,0.298 -2.758,-0.179 -1.465,-0.638 -2.204,-0.127 -2.204,-0.127 l 0.013,-0.004 c 0,0 -0.716,0.538 -0.559,2.133 0.114,1.194 -0.179,2.129 -0.682,2.671 -0.853,0.91 -2.614,0.988 -4.048,0.293 -0.853,-0.415 -1.622,-0.616 -2.637,-0.625 -1.014,0.009 -1.783,0.21 -2.636,0.625 -1.434,0.695 -3.2,0.617 -4.044,-0.293 -0.511,-0.542 -0.8,-1.477 -0.686,-2.671 0.157,-1.595 -0.564,-2.133 -0.564,-2.133 l 0.013,0.004 c 0,0 -0.734,-0.511 -2.203,0.127 -1.097,0.477 -2.081,0.49 -2.754,0.179 -1.128,-0.529 -1.745,-2.181 -1.526,-3.759 0.131,-0.94 0.083,-1.736 -0.214,-2.702 -0.328,-0.962 -0.757,-1.631 -1.417,-2.313 -1.106,-1.154 -1.578,-2.855 -0.975,-3.939 0.363,-0.651 1.159,-1.219 2.335,-1.478 1.561,-0.345 1.853,-1.193 1.853,-1.193 z"
       fill="#ffffff"
       id="path20" />
    <path
       d="m 273.514,289.224 c -0.328,0.883 -1.6,0.91 -1.582,1.819 0.03,1.456 1.158,1.416 1.477,2.413 v -0.004 c 0.328,0.996 -0.612,1.626 0.223,2.824 0.521,0.743 1.565,0.017 2.348,0.538 l 0.03,0.022 c 0.735,0.581 0.372,1.796 1.233,2.067 1.395,0.429 1.71,-0.664 2.755,-0.664 1.049,0 1.355,1.093 2.754,0.664 0.865,-0.271 0.498,-1.486 1.237,-2.067 l 0.026,-0.022 c 0.783,-0.521 1.828,0.205 2.344,-0.538 0.839,-1.198 -0.097,-1.828 0.222,-2.824 v 0.004 c 0.324,-0.997 1.452,-0.957 1.478,-2.413 0.018,-0.909 -1.25,-0.936 -1.583,-1.819 l -0.009,-0.03 c -0.253,-0.905 0.761,-1.675 0.215,-2.396 -0.875,-1.167 -1.771,-0.472 -2.615,-1.089 -0.848,-0.612 -0.459,-1.674 -1.836,-2.146 -0.861,-0.297 -1.276,0.905 -2.216,0.94 h -0.035 c -0.94,-0.035 -1.36,-1.237 -2.213,-0.94 -1.381,0.472 -0.996,1.534 -1.844,2.146 h 0.004 c -0.848,0.617 -1.735,-0.078 -2.614,1.089 -0.547,0.721 0.467,1.491 0.21,2.396 z m 9.972,2.094 c 0,1.924 -1.565,3.485 -3.488,3.485 -1.928,0 -3.489,-1.561 -3.489,-3.485 0,-1.928 1.561,-3.488 3.489,-3.488 1.923,0 3.488,1.56 3.488,3.488"
       fill="#ffffff"
       id="path21" />
  </g>
  <g
     fill="#263c7e"
     id="g25"
     transform="translate(-154.919,-65)">
    <path
       d="m 270.137,324.929 c -0.336,0.292 -0.66,0.577 -1.324,0.843 -0.656,0.254 -1.15,0.297 -1.631,0.359 v 0.647 h 1.386 v 6.212 c -0.013,1.089 -0.367,1.272 -1.486,1.29 v 0.594 h 4.782 v -0.594 c -0.424,-0.018 -1.018,-0.048 -1.285,-0.481 -0.144,-0.227 -0.157,-0.538 -0.157,-0.796 v -8.074 z"
       id="path22" />
    <path
       d="m 275.555,330.427 c 0.765,0.411 1.98,1.067 1.98,2.282 0,0.691 -0.45,1.513 -1.438,1.513 -0.966,0 -1.574,-0.892 -1.574,-1.7 0,-0.411 0.127,-0.779 0.284,-1.102 0.254,-0.494 0.508,-0.752 0.748,-0.993 m 0.962,-1.289 c -0.551,-0.324 -1.81,-1.071 -1.81,-2.151 0,-0.691 0.437,-1.368 1.272,-1.368 0.879,0 1.316,0.804 1.316,1.599 0,0.975 -0.538,1.622 -0.778,1.92 m 0.765,0.428 c 0.468,-0.267 1.513,-0.879 1.513,-2.234 0,-1.386 -1.146,-2.422 -2.698,-2.422 -1.504,0 -2.877,1.006 -2.877,2.536 0,1.368 1.032,2.077 1.627,2.487 -0.564,0.214 -1.189,0.455 -1.609,1.176 -0.214,0.337 -0.341,0.761 -0.341,1.203 0,1.429 1.285,2.658 3.126,2.658 1.74,0 3.169,-1.119 3.169,-2.672 0,-1.403 -1.062,-2.151 -1.91,-2.732"
       id="path23" />
    <path
       d="m 279.813,327.97 h 0.648 c 0.271,-0.992 0.542,-1.346 1.643,-1.39 0.293,-0.013 0.569,-0.013 0.949,-0.013 h 1.679 l -3.038,5.574 c -0.665,1.246 -0.888,1.683 -0.888,2.107 0,0.486 0.463,0.752 0.888,0.752 0.607,0 0.778,-0.441 1.005,-1.045 0.114,-0.271 0.538,-1.429 0.621,-1.674 0.411,-1.058 1.075,-2.767 1.486,-3.847 l 1.316,-3.31 h -4.853 c -0.056,0 -0.14,0 -0.196,-0.026 -0.062,-0.031 -0.114,-0.105 -0.132,-0.219 h -0.59 l -0.537,3.091 z"
       id="path24" />
    <path
       d="m 286.602,327.97 h 0.647 c 0.271,-0.992 0.538,-1.346 1.644,-1.39 0.297,-0.013 0.568,-0.013 0.949,-0.013 h 1.683 l -3.039,5.574 c -0.669,1.246 -0.892,1.683 -0.892,2.107 0,0.486 0.464,0.752 0.892,0.752 0.608,0 0.774,-0.441 1.001,-1.045 0.114,-0.271 0.538,-1.429 0.621,-1.674 0.411,-1.058 1.076,-2.767 1.487,-3.847 l 1.316,-3.31 h -4.853 c -0.057,0 -0.14,0 -0.197,-0.026 -0.057,-0.031 -0.113,-0.105 -0.127,-0.219 h -0.594 z"
       id="path25" />
  </g>
</svg>
