<?xml version="1.0" encoding="UTF-8"?>
<!DOCTYPE svg PUBLIC "-//W3C//DTD SVG 1.1//EN" "http://www.w3.org/Graphics/SVG/1.1/DTD/svg11.dtd">
<!-- Creator: CorelDRAW 2019 (64-Bit) -->
<svg xmlns="http://www.w3.org/2000/svg" xml:space="preserve" width="165.771mm" height="221.835mm" version="1.1" style="shape-rendering:geometricPrecision; text-rendering:geometricPrecision; image-rendering:optimizeQuality; fill-rule:evenodd; clip-rule:evenodd"
viewBox="0 0 165.4432 221.3965"
 xmlns:xlink="http://www.w3.org/1999/xlink"
 xmlns:xodm="http://www.corel.com/coreldraw/odm/2003">
 <defs>
  <style type="text/css">
   <![CDATA[
    .fil2 {fill:#E2001A}
    .fil0 {fill:black}
    .fil1 {fill:white}
   ]]>
  </style>
 </defs>
 <g id="Layer_x0020_1">
  <metadata id="CorelCorpID_0Corel-Layer"/>
  <g id="_733551280">
   <path class="fil0" d="M165.4432 0l0 188.0494c-7.5076,15.4361 -29.552,19.0918 -45.2416,21.538 -8.2946,1.2648 -16.8701,0.5056 -25.0523,2.2491 -5.5674,1.209 -8.8567,5.5392 -12.4279,9.56 -3.5707,-4.0207 -6.8608,-8.351 -12.4281,-9.56 -8.1818,-1.7435 -16.7579,-0.9844 -25.0524,-2.2491 -15.6895,-2.4462 -37.7337,-6.1018 -45.241,-21.538l0 -188.0494 165.4432 0z"/>
   <path class="fil1" d="M162.0685 3.3731l0 183.8889c-4.9768,10.2063 -19.6255,14.5083 -29.804,16.6457 -4.2456,0.8997 -8.5199,1.7146 -12.5966,2.3614 -8.1823,1.2655 -17.3207,0.5903 -25.2213,2.2775 -5.0894,1.0966 -8.3512,3.9933 -11.7252,7.7605 -3.3739,-3.7672 -6.6356,-6.6639 -11.7249,-7.7605 -7.8729,-1.6872 -17.0389,-1.012 -25.2213,-2.2775 -4.0771,-0.6468 -8.3509,-1.4617 -12.5964,-2.3614 -10.1786,-2.1374 -24.828,-6.4394 -29.8049,-16.6457l0 -183.8889 158.6945 0z"/>
   <path class="fil0" d="M6.748 6.7479l0 179.7268c4.5554,8.4633 18.5016,12.3437 27.1055,14.1431 4.2459,0.8996 8.4913,1.7152 12.4276,2.3338 8.2951,1.2655 17.4047,0.5903 25.4182,2.3056 4.246,0.9279 7.9577,3.0647 11.0222,6.073l0 -204.5823 -75.9734 0z"/>
   <path class="fil2" d="M158.6952 6.7479l0 179.7268c-4.5555,8.4633 -18.5021,12.3437 -27.106,14.1431 -4.2454,0.8996 -8.4916,1.7152 -12.4276,2.3338 -8.2947,1.2655 -17.4049,0.5903 -25.4183,2.3056 -4.2456,0.9279 -7.9571,3.0647 -11.0219,6.073l0 -204.5823 75.9737 0z"/>
   <path class="fil1" d="M11.1624 20.6098l0 -7.3384c0,-0.6181 0.141,-1.0962 0.4221,-1.4052 0.2812,-0.3106 0.647,-0.4782 1.0966,-0.4782 0.4781,0 0.8432,0.1676 1.1244,0.4782 0.2817,0.309 0.4222,0.7871 0.4222,1.4052l0 7.5075c0,0.844 0.1125,1.5467 0.3094,2.1371 0.1681,0.5627 0.5057,1.0117 1.0119,1.3207 0.478,0.3106 1.1532,0.4782 2.0246,0.4782 1.209,0 2.0527,-0.309 2.5584,-0.9547 0.5062,-0.6473 0.7591,-1.6313 0.7591,-2.9243l0 -7.5644c0,-0.6472 0.1405,-1.0962 0.4223,-1.4052 0.2809,-0.3106 0.6462,-0.4782 1.096,-0.4782 0.4781,0 0.8438,0.1676 1.1248,0.4782 0.3094,0.309 0.45,0.758 0.45,1.4052l0 7.3384c0,1.1809 -0.1123,2.1941 -0.3652,2.9812 -0.2253,0.7871 -0.6469,1.4898 -1.2936,2.1078 -0.5622,0.5059 -1.2089,0.8718 -1.9399,1.1255 -0.7317,0.2245 -1.6029,0.3367 -2.5873,0.3367 -1.1808,0 -2.1928,-0.1123 -3.0365,-0.3644 -0.8433,-0.2537 -1.5184,-0.6473 -2.0528,-1.1808 -0.5339,-0.5351 -0.9279,-1.21 -1.1808,-2.0541 -0.2528,-0.8148 -0.3657,-1.7988 -0.3657,-2.952z"/>
   <path class="fil1" d="M27.9484 27.161c-0.4215,0 -0.8149,-0.1399 -1.1243,-0.3936 -0.3092,-0.2813 -0.4498,-0.675 -0.4498,-1.1808 0,-0.4213 0.1406,-0.7871 0.4498,-1.0962 0.281,-0.309 0.6469,-0.4505 1.0967,-0.4505 0.4217,0 0.815,0.1415 1.1242,0.4505 0.3095,0.3091 0.4499,0.675 0.4499,1.0962 0,0.4782 -0.1404,0.8718 -0.4499,1.1531 -0.3092,0.2813 -0.6744,0.4213 -1.0966,0.4213z"/>
   <path class="fil1" d="M44.5099 22.3257c0,0.9271 -0.2253,1.7434 -0.7032,2.5014 -0.4776,0.7319 -1.1808,1.2929 -2.0803,1.7158 -0.9281,0.4213 -1.9964,0.6181 -3.2618,0.6181 -1.5182,0 -2.7554,-0.2813 -3.7399,-0.8425 -0.6743,-0.4228 -1.237,-0.9563 -1.687,-1.6313 -0.4215,-0.7026 -0.6461,-1.3499 -0.6461,-1.9957 0,-0.3951 0.1404,-0.7042 0.3932,-0.9855 0.2529,-0.2521 0.5903,-0.3935 1.0121,-0.3935 0.3092,0 0.5909,0.1137 0.8155,0.3105 0.2253,0.2245 0.4217,0.5335 0.5627,0.9272 0.1965,0.5058 0.4217,0.8994 0.6462,1.2361 0.2253,0.3106 0.5346,0.5919 0.9562,0.7887 0.394,0.2246 0.928,0.3367 1.6029,0.3367 0.9279,0 1.6588,-0.2245 2.221,-0.6472 0.5904,-0.4213 0.8721,-0.9548 0.8721,-1.6021 0,-0.5058 -0.1405,-0.9271 -0.45,-1.2362 -0.3092,-0.3105 -0.7316,-0.5642 -1.2095,-0.7318 -0.4774,-0.1399 -1.1524,-0.3367 -1.9681,-0.5059 -1.0967,-0.2813 -1.9962,-0.5627 -2.7555,-0.8994 -0.7309,-0.3659 -1.3211,-0.8164 -1.7431,-1.4067 -0.45,-0.6181 -0.6464,-1.3484 -0.6464,-2.2217 0,-0.8425 0.2247,-1.5744 0.6744,-2.2493 0.45,-0.6457 1.125,-1.1531 1.9964,-1.4898 0.8721,-0.366 1.8839,-0.5335 3.0647,-0.5335 0.9279,0 1.7434,0.1123 2.4186,0.3644 0.6743,0.226 1.237,0.535 1.687,0.9287 0.4498,0.3659 0.7872,0.7871 1.0119,1.2084 0.197,0.4229 0.3094,0.8149 0.3094,1.2377 0,0.366 -0.1406,0.7027 -0.3935,0.9841 -0.2534,0.2813 -0.5908,0.4489 -0.9844,0.4489 -0.3374,0 -0.6185,-0.083 -0.7871,-0.2798 -0.1971,-0.1691 -0.3935,-0.4504 -0.6186,-0.844 -0.2812,-0.5904 -0.5904,-1.0408 -0.9839,-1.3776 -0.394,-0.3091 -1.0127,-0.4782 -1.8841,-0.4782 -0.7872,0 -1.4342,0.1968 -1.9122,0.535 -0.5057,0.3644 -0.7592,0.7579 -0.7592,1.2653 0,0.3091 0.0848,0.5612 0.2535,0.7872 0.1682,0.2245 0.3933,0.4213 0.7028,0.5611 0.2809,0.1692 0.5903,0.3091 0.8713,0.3936 0.3094,0.0846 0.7874,0.2261 1.4906,0.3936 0.8432,0.1968 1.6307,0.4228 2.3334,0.675 0.7031,0.226 1.2934,0.535 1.7715,0.8718 0.5063,0.3382 0.8715,0.7871 1.1527,1.3222 0.2534,0.5335 0.3938,1.1808 0.3938,1.9404z"/>
   <path class="fil1" d="M48.0244 27.161c-0.4497,0 -0.8155,-0.1399 -1.1248,-0.3936 -0.3094,-0.2813 -0.4499,-0.675 -0.4499,-1.1808 0,-0.4213 0.1405,-0.7871 0.4223,-1.0962 0.3092,-0.309 0.6744,-0.4505 1.1244,-0.4505 0.4221,0 0.8155,0.1415 1.1247,0.4505 0.3095,0.3091 0.45,0.675 0.45,1.0962 0,0.4782 -0.1405,0.8718 -0.45,1.1531 -0.3092,0.2813 -0.675,0.4213 -1.0966,0.4213z"/>
   <path class="fil1" d="M64.839 26.9089l-4.6679 0c-0.6467,0 -1.1524,-0.1415 -1.4342,-0.4505 -0.281,-0.3091 -0.4215,-0.7872 -0.4215,-1.4345l0 -11.4711c0,-0.675 0.1404,-1.1532 0.4498,-1.4622 0.2811,-0.2813 0.7591,-0.4505 1.4058,-0.4505l4.9488 0c0.7311,0 1.3778,0.0569 1.9123,0.1399 0.5338,0.0861 1.0118,0.2829 1.4335,0.535 0.3659,0.1968 0.6751,0.4782 0.9562,0.8164 0.281,0.3367 0.4781,0.7026 0.6187,1.0963 0.1405,0.3935 0.2252,0.8148 0.2252,1.2653 0,1.5175 -0.7592,2.6429 -2.278,3.3456 1.9964,0.6457 3.0088,1.8834 3.0088,3.7115 0,0.8718 -0.2252,1.6313 -0.675,2.3062 -0.4217,0.7026 -1.012,1.2084 -1.7713,1.5174 -0.4496,0.1968 -0.9843,0.3382 -1.6028,0.4229 -0.5903,0.083 -1.293,0.1123 -2.1085,0.1123zm-0.2253 -6.7773l0 0 -3.2054 0 0 4.4711 3.3182 0c2.0803,0 3.1206,-0.7595 3.1206,-2.277 0,-0.7596 -0.2529,-1.3223 -0.815,-1.659 -0.5345,-0.3659 -1.3501,-0.535 -2.4185,-0.535zm-3.2054 -6.1575l0 0 0 3.9374 2.8119 0c0.7872,0 1.3778,-0.0569 1.7993,-0.2261 0.4218,-0.1398 0.7309,-0.4212 0.9561,-0.8148 0.1689,-0.2813 0.2529,-0.6196 0.2529,-0.9841 0,-0.7595 -0.2529,-1.2945 -0.815,-1.5466 -0.5346,-0.2245 -1.3778,-0.3659 -2.5025,-0.3659l-2.5027 0z"/>
   <path class="fil1" d="M84.071 21.3971c0,0.844 -0.1406,1.6313 -0.3933,2.3339 -0.2815,0.7319 -0.6467,1.3207 -1.1247,1.8557 -0.5063,0.5058 -1.0966,0.8994 -1.7719,1.1808 -0.7026,0.2537 -1.4899,0.3936 -2.3613,0.3936 -0.8439,0 -1.6314,-0.1399 -2.3055,-0.3936 -0.7034,-0.2813 -1.2942,-0.7026 -1.7999,-1.2084 -0.5058,-0.5074 -0.8715,-1.1255 -1.1244,-1.8281 -0.2817,-0.7026 -0.394,-1.4899 -0.394,-2.3339 0,-0.8718 0.1123,-1.6589 0.394,-2.3616 0.2529,-0.7303 0.6462,-1.3222 1.1244,-1.828 0.5063,-0.5059 1.0965,-0.8995 1.7999,-1.1808 0.7025,-0.2814 1.4616,-0.4214 2.3055,-0.4214 0.8715,0 1.6587,0.1399 2.3613,0.4214 0.6753,0.2812 1.2937,0.6749 1.7719,1.1808 0.478,0.535 0.8711,1.1254 1.1247,1.8557 0.2527,0.7041 0.3933,1.4913 0.3933,2.3339zm-2.8399 0l0 0c0,-1.1516 -0.2529,-2.0525 -0.7592,-2.6984 -0.5057,-0.6472 -1.1807,-0.9854 -2.0521,-0.9854 -0.5628,0 -1.0409,0.1414 -1.4624,0.4505 -0.4217,0.2813 -0.7592,0.7026 -0.9838,1.2653 -0.2252,0.5627 -0.3375,1.2085 -0.3375,1.968 0,0.7319 0.1124,1.3776 0.3375,1.9403 0.2246,0.5627 0.5621,0.984 0.9554,1.2654 0.4222,0.309 0.928,0.4489 1.4907,0.4489 0.8715,0 1.5464,-0.3091 2.0521,-0.9825 0.5063,-0.6196 0.7592,-1.519 0.7592,-2.6721z"/>
   <path class="fil1" d="M93.6869 25.559l0 -0.366c-0.3368,0.4505 -0.7026,0.7872 -1.0684,1.0962 -0.3933,0.2813 -0.7868,0.5058 -1.2373,0.6457 -0.4497,0.1415 -0.9554,0.2261 -1.5183,0.2261 -0.6743,0 -1.2929,-0.1692 -1.8556,-0.4505 -0.534,-0.2798 -0.9557,-0.675 -1.2649,-1.1531 -0.3375,-0.6181 -0.5063,-1.4899 -0.5063,-2.6137l0 -5.6241c0,-0.5904 0.1123,-1.0117 0.3657,-1.2929 0.2529,-0.2814 0.5903,-0.4214 1.0403,-0.4214 0.4215,0 0.7592,0.1399 1.0401,0.449 0.2529,0.2813 0.3934,0.7041 0.3934,1.2653l0 4.5556c0,0.6457 0.0563,1.2084 0.1687,1.6589 0.1129,0.4213 0.3094,0.7871 0.5911,1.0408 0.2809,0.2522 0.6744,0.3644 1.1807,0.3644 0.4497,0 0.8996,-0.1398 1.3495,-0.4213 0.4216,-0.2813 0.731,-0.6457 0.8995,-1.0961 0.1689,-0.4213 0.2535,-1.293 0.2535,-2.643l0 -3.4579c0,-0.5627 0.1405,-0.9854 0.3934,-1.2653 0.2529,-0.3106 0.6187,-0.4505 1.0401,-0.4505 0.4223,0 0.7591,0.1399 1.0126,0.4214 0.2528,0.2812 0.3934,0.7025 0.3934,1.2944l0 8.2379c0,0.5334 -0.1406,0.9271 -0.3934,1.2084 -0.2252,0.2537 -0.5626,0.3936 -0.9278,0.3936 -0.394,0 -0.7316,-0.1399 -0.9845,-0.4213 -0.2528,-0.2813 -0.3658,-0.675 -0.3658,-1.1808z"/>
   <path class="fil1" d="M99.1703 25.4467l0 -12.3152c0,-0.5903 0.1405,-1.0132 0.3931,-1.2945 0.2536,-0.309 0.5904,-0.4489 1.0127,-0.4489 0.4498,0 0.7872,0.1399 1.0403,0.4489 0.2808,0.2813 0.3931,0.7042 0.3931,1.2945l0 12.3152c0,0.5612 -0.1123,1.0117 -0.3931,1.293 -0.2531,0.2813 -0.6189,0.4213 -1.0403,0.4213 -0.4223,0 -0.7591,-0.1399 -1.0127,-0.449 -0.2526,-0.2813 -0.3931,-0.7041 -0.3931,-1.2653z"/>
   <path class="fil1" d="M115.5905 21.3971c0,0.844 -0.1406,1.6313 -0.3934,2.3339 -0.2808,0.7319 -0.6466,1.3207 -1.1529,1.8557 -0.5058,0.5058 -1.0967,0.8994 -1.7713,1.1808 -0.7032,0.2537 -1.4905,0.3936 -2.362,0.3936 -0.8431,0 -1.6307,-0.1399 -2.3055,-0.3936 -0.7027,-0.2813 -1.2936,-0.7026 -1.7992,-1.2084 -0.5064,-0.5074 -0.8722,-1.1255 -1.1251,-1.8281 -0.2811,-0.7026 -0.3933,-1.4899 -0.3933,-2.3339 0,-0.8718 0.1122,-1.6589 0.3933,-2.3616 0.2529,-0.7303 0.6468,-1.3222 1.1251,-1.828 0.5056,-0.5059 1.0965,-0.8995 1.7992,-1.1808 0.7031,-0.2814 1.4624,-0.4214 2.3055,-0.4214 0.8715,0 1.6588,0.1399 2.362,0.4214 0.6746,0.2812 1.2931,0.6749 1.7994,1.1808 0.4782,0.535 0.8713,1.1254 1.1248,1.8557 0.2528,0.7041 0.3934,1.4913 0.3934,2.3339zm-2.8394 0l0 0c0,-1.1516 -0.2817,-2.0525 -0.7875,-2.6984 -0.5062,-0.6472 -1.1813,-0.9854 -2.0527,-0.9854 -0.5339,0 -1.0401,0.1414 -1.4618,0.4505 -0.4223,0.2813 -0.7316,0.7026 -0.9844,1.2653 -0.2252,0.5627 -0.3375,1.2085 -0.3375,1.968 0,0.7319 0.1124,1.3776 0.3375,1.9403 0.2253,0.5627 0.5621,0.984 0.9844,1.2654 0.4217,0.309 0.8998,0.4489 1.4618,0.4489 0.8715,0 1.5465,-0.3091 2.0527,-0.9825 0.5058,-0.6196 0.7875,-1.519 0.7875,-2.6721z"/>
   <path class="fil1" d="M128.2718 17.6855l0 8.267c0,0.9564 -0.0848,1.7435 -0.3094,2.4462 -0.1969,0.675 -0.5064,1.2377 -0.9561,1.6867 -0.4497,0.4228 -1.0121,0.7595 -1.7436,0.984 -0.7308,0.1968 -1.602,0.309 -2.6707,0.309 -0.9842,0 -1.8556,-0.1399 -2.6431,-0.392 -0.7592,-0.2813 -1.3494,-0.6473 -1.7716,-1.0686 -0.4218,-0.4504 -0.6187,-0.8733 -0.6187,-1.3499 0,-0.3382 0.1129,-0.6196 0.3374,-0.844 0.2535,-0.2245 0.5346,-0.3382 0.8722,-0.3382 0.4215,0 0.7866,0.1983 1.096,0.5627 0.1411,0.1968 0.3093,0.366 0.4781,0.5628 0.1406,0.1968 0.3375,0.3659 0.5344,0.5058 0.197,0.1123 0.4217,0.2245 0.7027,0.2813 0.2812,0.0846 0.5904,0.1123 0.9562,0.1123 0.7309,0 1.3219,-0.1123 1.7152,-0.3091 0.4216,-0.1968 0.7027,-0.5058 0.8432,-0.8718 0.1686,-0.3659 0.2816,-0.7579 0.3093,-1.1808 0.0282,-0.4213 0.0282,-1.0962 0.0566,-2.0248 -0.45,0.6196 -0.9562,1.0961 -1.5184,1.4067 -0.5622,0.3091 -1.2654,0.4783 -2.0528,0.4783 -0.9555,0 -1.771,-0.2537 -2.4743,-0.732 -0.7309,-0.4782 -1.2649,-1.153 -1.6589,-2.0248 -0.3652,-0.8703 -0.562,-1.8835 -0.562,-3.0365 0,-0.8425 0.1123,-1.6313 0.3374,-2.3047 0.2529,-0.7042 0.5623,-1.2653 1.012,-1.7434 0.4217,-0.4782 0.9279,-0.8441 1.4902,-1.0686 0.5627,-0.2537 1.1812,-0.366 1.8276,-0.366 0.8155,0 1.5187,0.1692 2.109,0.4783 0.5903,0.309 1.1244,0.7871 1.6307,1.4345l0 -0.366c0,-0.5058 0.1404,-0.8718 0.3658,-1.153 0.2527,-0.2814 0.5621,-0.4214 0.9559,-0.4214 0.5339,0 0.8997,0.1968 1.0968,0.5628 0.1681,0.3366 0.2529,0.8702 0.2529,1.5174zm-8.2387 3.627l0 0c0,1.153 0.2532,1.9971 0.7589,2.5875 0.5064,0.5904 1.1532,0.8995 1.9688,0.8995 0.4498,0 0.8998,-0.14 1.3213,-0.3936 0.4217,-0.2537 0.7591,-0.6197 1.0401,-1.124 0.2535,-0.5073 0.394,-1.1254 0.394,-1.8557 0,-1.1808 -0.2536,-2.0817 -0.7592,-2.7275 -0.5343,-0.6472 -1.209,-0.9562 -2.0246,-0.9562 -0.8154,0 -1.4623,0.309 -1.9405,0.9271 -0.5057,0.6196 -0.7589,1.4898 -0.7589,2.643z"/>
   <path class="fil1" d="M133.726 17.1797l0 0.366c0.5063,-0.675 1.0409,-1.1531 1.6313,-1.4622 0.6187,-0.309 1.293,-0.4782 2.0527,-0.4782 0.7593,0 1.4336,0.1692 2.0239,0.5059 0.5911,0.309 1.0127,0.7871 1.3221,1.3776 0.1687,0.3367 0.3092,0.7319 0.3652,1.1254 0.0281,0.3936 0.0563,0.9272 0.0563,1.5451l0 5.2874c0,0.5612 -0.1123,0.984 -0.3658,1.293 -0.281,0.2813 -0.6186,0.4213 -1.04,0.4213 -0.4218,0 -0.7592,-0.1399 -1.0121,-0.449 -0.2808,-0.2813 -0.394,-0.7041 -0.394,-1.2653l0 -4.7523c0,-0.9272 -0.1405,-1.6313 -0.3931,-2.1372 -0.2536,-0.5058 -0.7875,-0.7318 -1.5467,-0.7318 -0.5061,0 -0.9843,0.1414 -1.4059,0.4504 -0.3933,0.2813 -0.7026,0.7026 -0.8996,1.2378 -0.1404,0.4213 -0.2253,1.2084 -0.2253,2.3615l0 3.5715c0,0.5612 -0.1123,1.0117 -0.3934,1.293 -0.2528,0.2813 -0.6186,0.4213 -1.04,0.4213 -0.3941,0 -0.7316,-0.1399 -1.0127,-0.449 -0.2529,-0.2813 -0.3934,-0.7041 -0.3934,-1.2653l0 -8.2102c0,-0.535 0.1405,-0.9563 0.3653,-1.2099 0.2253,-0.2814 0.5627,-0.4214 0.9561,-0.4214 0.2533,0 0.4781,0.0846 0.7032,0.1968 0.1964,0.1123 0.3369,0.2813 0.4782,0.5335 0.1123,0.2245 0.168,0.5074 0.168,0.844z"/>
   <path class="fil1" d="M151.9464 22.0997l-5.5389 0c0,0.6473 0.1122,1.21 0.3658,1.6866 0.2527,0.5074 0.5902,0.8733 1.012,1.1255 0.4215,0.2537 0.8995,0.366 1.4058,0.366 0.3375,0 0.6468,-0.0277 0.9278,-0.1123 0.2812,-0.0846 0.5624,-0.1968 0.8158,-0.3659 0.2529,-0.1692 0.5055,-0.366 0.7308,-0.5628 0.2248,-0.1968 0.5063,-0.4505 0.8715,-0.7871 0.1405,-0.1123 0.3376,-0.1968 0.6185,-0.1968 0.2812,0 0.5347,0.0845 0.7031,0.2537 0.1691,0.1676 0.2813,0.3935 0.2813,0.675 0,0.2521 -0.1123,0.5611 -0.3091,0.8993 -0.1971,0.3367 -0.5064,0.675 -0.9281,0.9841 -0.3941,0.309 -0.8996,0.5904 -1.5182,0.7871 -0.6187,0.2246 -1.3219,0.3091 -2.1093,0.3091 -1.8276,0 -3.2611,-0.5058 -4.2737,-1.5451 -1.0119,-1.0409 -1.5182,-2.4477 -1.5182,-4.2465 0,-0.8441 0.1405,-1.6021 0.394,-2.334 0.2247,-0.7303 0.5904,-1.3222 1.0685,-1.8557 0.4774,-0.5058 1.0683,-0.8994 1.7712,-1.1808 0.7026,-0.2537 1.4899,-0.3936 2.3336,-0.3936 1.1251,0 2.0805,0.2246 2.868,0.7026 0.7872,0.4505 1.3775,1.0686 1.7716,1.7988 0.3928,0.7596 0.6188,1.5191 0.6188,2.2786 0,0.7026 -0.226,1.1808 -0.6188,1.3776 -0.4217,0.2245 -0.9844,0.3367 -1.7436,0.3367zm-5.5389 -1.6298l0 0 5.1458 0c-0.0848,-0.9562 -0.3377,-1.6882 -0.7875,-2.1647 -0.4497,-0.4797 -1.0684,-0.7319 -1.7999,-0.7319 -0.7026,0 -1.293,0.2522 -1.743,0.7319 -0.4496,0.5058 -0.7308,1.2085 -0.8154,2.1647z"/>
   <path class="fil1" d="M30.254 178.4048c0,0.5346 -0.1123,1.1249 -0.3368,1.7717 -0.2535,0.6187 -0.6187,1.2373 -1.125,1.8559 -0.5062,0.5903 -1.1529,1.0966 -1.94,1.4618 -0.7872,0.3939 -1.7152,0.5902 -2.7836,0.5902 -0.7872,0 -1.5181,-0.0839 -2.165,-0.2528 -0.6468,-0.1688 -1.2655,-0.4498 -1.7717,-0.8156 -0.5339,-0.3375 -1.0402,-0.8151 -1.49,-1.4059 -0.394,-0.5339 -0.731,-1.1524 -1.0127,-1.7992 -0.2809,-0.6752 -0.5057,-1.3778 -0.6461,-2.137 -0.1405,-0.731 -0.1971,-1.5465 -0.1971,-2.3897 0,-1.3501 0.1688,-2.5873 0.5345,-3.684 0.3369,-1.0684 0.8433,-1.9962 1.5182,-2.783 0.6463,-0.7598 1.4336,-1.3502 2.3056,-1.7434 0.8998,-0.4217 1.8559,-0.6187 2.8397,-0.6187 1.2372,0 2.3338,0.281 3.29,0.8156 0.956,0.5621 1.6869,1.2373 2.1931,2.0522 0.5057,0.8155 0.7593,1.5747 0.7593,2.3056 0,0.3938 -0.113,0.7315 -0.3658,1.04 -0.2529,0.3094 -0.5622,0.4505 -0.8997,0.4505 -0.3939,0 -0.7032,-0.1129 -0.8714,-0.3093 -0.1969,-0.2252 -0.4223,-0.5628 -0.675,-1.0965 -0.394,-0.8439 -0.8714,-1.4625 -1.4061,-1.8841 -0.5339,-0.4218 -1.2089,-0.6187 -1.9961,-0.6187 -1.2655,0 -2.2492,0.5339 -3.0084,1.6029 -0.7316,1.0685 -1.1248,2.615 -1.1248,4.5831 0,1.3494 0.1688,2.4462 0.5063,3.3175 0.3368,0.8721 0.7866,1.5463 1.4052,1.9681 0.591,0.4222 1.3219,0.6468 2.1093,0.6468 0.8996,0 1.6306,-0.2529 2.2491,-0.731 0.6187,-0.4781 1.0683,-1.209 1.3778,-2.165 0.1404,-0.4499 0.2809,-0.8157 0.478,-1.0966 0.197,-0.2811 0.5062,-0.4217 0.928,-0.4217 0.3657,0 0.675,0.1405 0.956,0.4217 0.2529,0.2809 0.3652,0.6467 0.3652,1.0683z"/>
   <path class="fil1" d="M38.2676 169.0136l-1.0121 -1.3777 -1.04 1.3777c-0.2811,0.3939 -0.4781,0.6186 -0.5903,0.7033 -0.1129,0.084 -0.3094,0.1124 -0.591,0.1124l-0.8151 0c-0.2809,0 -0.4221,-0.0283 -0.4221,-0.1405 0,-0.0847 0.1129,-0.2812 0.3092,-0.5904l1.1532 -1.5465c0.084,-0.1405 0.1968,-0.281 0.3374,-0.4498 0.1124,-0.197 0.2246,-0.3092 0.3093,-0.3939 0.1125,-0.0559 0.2248,-0.1124 0.4217,-0.1689 0.1689,-0.028 0.3658,-0.0558 0.6187,-0.0558l0.562 0c0.4781,0 0.7874,0.0558 0.9562,0.1963 0.1688,0.1131 0.3939,0.3941 0.7309,0.8721l1.1814 1.5747c0.2247,0.281 0.3093,0.4499 0.3093,0.5057 0,0.1405 -0.1405,0.1971 -0.4498,0.1971l-0.7874 0c-0.2252,0 -0.3658,-0.0283 -0.5063,-0.0847 -0.1121,-0.0558 -0.2246,-0.1682 -0.3374,-0.3093 -0.1124,-0.1406 -0.2247,-0.281 -0.3375,-0.4217z"/>
   <path class="fil1" d="M40.5456 177.6175c0,-1.2929 -0.2536,-2.3055 -0.7592,-3.0081 -0.5062,-0.731 -1.1813,-1.0967 -2.0246,-1.0967 -0.5626,0 -1.0406,0.1687 -1.4623,0.5063 -0.4216,0.3092 -0.7592,0.7873 -0.9838,1.4059 -0.2254,0.6461 -0.3375,1.3777 -0.3375,2.1927 0,0.8438 0.1122,1.5464 0.3375,2.1935 0.2246,0.6185 0.5339,1.0965 0.9555,1.4058 0.4223,0.3374 0.928,0.5063 1.4905,0.5063 0.8433,0 1.5184,-0.3658 2.0246,-1.0967 0.5056,-0.7309 0.7592,-1.7152 0.7592,-3.0088zm2.8397 0l0 0c0,0.9562 -0.1406,1.8277 -0.3935,2.615 -0.281,0.8155 -0.6469,1.4905 -1.1532,2.0809 -0.4779,0.5622 -1.0682,1.012 -1.7711,1.293 -0.6749,0.3094 -1.4623,0.4781 -2.3056,0.4781 -0.8718,0 -1.631,-0.1687 -2.3056,-0.4781 -0.7031,-0.3093 -1.2652,-0.759 -1.7715,-1.3213 -0.5057,-0.5903 -0.8715,-1.2653 -1.1526,-2.0526 -0.2535,-0.7873 -0.3657,-1.6588 -0.3657,-2.615 0,-0.9555 0.1122,-1.8276 0.3939,-2.6426 0.2529,-0.7873 0.6187,-1.4623 1.1244,-2.0246 0.478,-0.5627 1.0684,-1.0125 1.7715,-1.3217 0.6747,-0.3094 1.4619,-0.4499 2.3056,-0.4499 0.8433,0 1.6024,0.1405 2.3056,0.4499 0.7029,0.3092 1.2932,0.759 1.7994,1.3494 0.478,0.5627 0.8715,1.2372 1.1249,2.0245 0.2529,0.7873 0.3935,1.6594 0.3935,2.6149z"/>
   <path class="fil1" d="M45.7472 171.4597l0.3094 0 0 -1.9115c0,-0.5063 0,-0.8997 0.028,-1.2091 0.0276,-0.2816 0.0842,-0.5343 0.1965,-0.7316 0.1129,-0.2245 0.2817,-0.3932 0.4781,-0.5337 0.2252,-0.1405 0.4498,-0.197 0.7032,-0.197 0.3652,0 0.6746,0.1405 0.9561,0.4497 0.1964,0.1971 0.3369,0.4499 0.3652,0.731 0.0565,0.2816 0.0848,0.7032 0.0848,1.2372l0 2.1651 1.04 0c0.3935,0 0.7027,0.113 0.8998,0.3094 0.2252,0.2252 0.3374,0.5062 0.3374,0.8156 0,0.4216 -0.1689,0.7308 -0.45,0.8996 -0.3092,0.1688 -0.7313,0.2535 -1.2935,0.2535l-0.5337 0 0 5.8484c0,0.4774 0.0273,0.8715 0.0557,1.1525 0.0283,0.2527 0.1129,0.478 0.2535,0.6467 0.1123,0.1687 0.3369,0.2528 0.646,0.2528 0.1689,0 0.3941,-0.0558 0.6752,-0.1122 0.2811,-0.0565 0.5064,-0.1124 0.6469,-0.1124 0.2247,0 0.4498,0.1124 0.6187,0.3093 0.1968,0.2247 0.2809,0.478 0.2809,0.7873 0,0.5057 -0.2529,0.8997 -0.7591,1.1525 -0.478,0.281 -1.1808,0.4216 -2.1369,0.4216 -0.8721,0 -1.5465,-0.1687 -1.9963,-0.5057 -0.4498,-0.3375 -0.7314,-0.7873 -0.8997,-1.3778 -0.1411,-0.5908 -0.1968,-1.3777 -0.1968,-2.362l0 -6.1011 -0.3658 0c-0.4217,0 -0.731,-0.0847 -0.9279,-0.3093 -0.2248,-0.2254 -0.3377,-0.5063 -0.3377,-0.8438 0,-0.3094 0.113,-0.5904 0.3377,-0.8156 0.2252,-0.1964 0.5627,-0.3094 0.9843,-0.3094z"/>
   <path class="fil1" d="M60.9303 178.4048l-5.5108 0c0,0.731 0.1404,1.3494 0.3933,1.9122 0.2534,0.5339 0.5908,0.9561 1.0126,1.2372 0.3933,0.2812 0.8716,0.4218 1.3776,0.4218 0.3377,0 0.6187,-0.0566 0.8997,-0.1405 0.2811,-0.084 0.5621,-0.2253 0.8158,-0.4217 0.2808,-0.1687 0.5062,-0.3939 0.7308,-0.5904 0.2254,-0.2252 0.5063,-0.5344 0.8437,-0.9002 0.1689,-0.1405 0.3652,-0.1963 0.6186,-0.1963 0.3094,0 0.534,0.0841 0.7029,0.2528 0.1969,0.1969 0.2809,0.4498 0.2809,0.7592 0,0.281 -0.1124,0.6185 -0.3093,1.0126 -0.197,0.3651 -0.478,0.759 -0.8996,1.096 -0.3935,0.3656 -0.8998,0.6468 -1.5182,0.8719 -0.5904,0.2529 -1.2938,0.3652 -2.0811,0.3652 -1.8276,0 -3.2335,-0.5902 -4.2455,-1.7429 -0.9844,-1.1813 -1.4901,-2.7553 -1.4901,-4.7518 0,-0.9279 0.1123,-1.7999 0.3652,-2.5873 0.2534,-0.815 0.6186,-1.49 1.0684,-2.0803 0.478,-0.5622 1.0685,-1.0126 1.7717,-1.322 0.7027,-0.281 1.4618,-0.4499 2.3056,-0.4499 1.0966,0 2.0528,0.2536 2.8395,0.7874 0.7874,0.5345 1.3778,1.209 1.7718,2.0245 0.3932,0.8439 0.5903,1.6871 0.5903,2.5309 0,0.815 -0.1971,1.3213 -0.6186,1.5465 -0.3935,0.2529 -0.9838,0.3651 -1.7153,0.3651zm-5.5108 -1.7992l0 0 5.1174 0c-0.0563,-1.0967 -0.3375,-1.9123 -0.7872,-2.4462 -0.45,-0.5345 -1.0403,-0.7873 -1.7718,-0.7873 -0.7027,0 -1.2929,0.2528 -1.7428,0.8155 -0.45,0.5339 -0.7032,1.3496 -0.8156,2.418z"/>
   <path class="fil1" d="M79.1224 182.257l0 -0.3093c-0.3934,0.478 -0.7591,0.8997 -1.1524,1.1814 -0.3659,0.3092 -0.7874,0.5621 -1.2095,0.7026 -0.45,0.1689 -0.928,0.2528 -1.462,0.2528 -0.6751,0 -1.3213,-0.1687 -1.9123,-0.4781 -0.562,-0.3368 -1.0965,-0.7867 -1.5181,-1.3777 -0.4218,-0.6186 -0.7592,-1.3213 -0.9838,-2.1086 -0.1969,-0.8155 -0.3094,-1.687 -0.3094,-2.6149 0,-1.9963 0.4217,-3.5429 1.3214,-4.6394 0.8714,-1.1244 2.0246,-1.6587 3.4587,-1.6587 0.815,0 1.5182,0.1405 2.1087,0.478 0.5621,0.3093 1.1247,0.7873 1.6587,1.4342l0 -4.6959c0,-0.6468 0.1123,-1.1248 0.3374,-1.4618 0.2529,-0.3375 0.5904,-0.5063 1.0121,-0.5063 0.4497,0 0.7872,0.1688 1.0124,0.4498 0.2248,0.3094 0.3652,0.7592 0.3652,1.3778l0 13.9742c0,0.6186 -0.1404,1.0684 -0.3931,1.3778 -0.2529,0.281 -0.5904,0.4497 -0.9845,0.4497 -0.3934,0 -0.7026,-0.1687 -0.9554,-0.4781 -0.2818,-0.3093 -0.3941,-0.759 -0.3941,-1.3494zm-5.6796 -4.6672l0 0c0,0.8715 0.1405,1.6024 0.3657,2.2211 0.2529,0.5902 0.5903,1.04 1.0121,1.3494 0.4215,0.3093 0.8712,0.478 1.3776,0.478 0.5063,0 0.956,-0.1687 1.3777,-0.4498 0.4217,-0.281 0.7591,-0.7308 1.0125,-1.3495 0.2529,-0.5903 0.3652,-1.3213 0.3652,-2.2491 0,-0.8155 -0.1123,-1.5463 -0.3652,-2.165 -0.2534,-0.6186 -0.5908,-1.0684 -1.0125,-1.4059 -0.4217,-0.3094 -0.8996,-0.4782 -1.4059,-0.4782 -0.5338,0 -0.9839,0.1688 -1.4059,0.5063 -0.4217,0.3094 -0.731,0.7867 -0.9555,1.4054 -0.2252,0.6185 -0.3657,1.35 -0.3657,2.1374z"/>
   <path class="fil1" d="M96.6112 166.4551c1.5747,0 2.9246,0.3651 4.0773,1.0685 1.1249,0.7308 1.9962,1.7433 2.5867,3.0647 0.5627,1.3213 0.8721,2.8678 0.8721,4.6678 0,1.3211 -0.1689,2.5019 -0.4783,3.5702 -0.3374,1.0967 -0.8155,2.0246 -1.4622,2.8119 -0.6187,0.7873 -1.4061,1.3778 -2.3339,1.7999 -0.9279,0.4216 -1.9965,0.6462 -3.2055,0.6462 -1.2089,0 -2.2773,-0.2247 -3.2051,-0.6462 -0.9561,-0.4222 -1.7436,-1.0407 -2.3623,-1.8281 -0.6468,-0.7868 -1.1242,-1.7147 -1.4335,-2.8112 -0.3374,-1.0967 -0.5063,-2.3057 -0.5063,-3.5711 0,-1.3219 0.1689,-2.5308 0.5063,-3.5992 0.3368,-1.0967 0.8432,-2.0246 1.4619,-2.8113 0.6468,-0.7598 1.4341,-1.3502 2.3339,-1.7434 0.9278,-0.4217 1.9679,-0.6187 3.1488,-0.6187zm4.3864 8.7726l0 0c0,-1.2655 -0.1686,-2.3339 -0.5343,-3.2617 -0.3652,-0.8996 -0.8715,-1.6029 -1.5458,-2.0526 -0.6753,-0.4782 -1.4344,-0.7028 -2.3062,-0.7028 -0.6181,0 -1.2089,0.1124 -1.7146,0.3658 -0.5347,0.281 -0.9845,0.6461 -1.3779,1.1524 -0.3658,0.4783 -0.675,1.125 -0.8721,1.8841 -0.2246,0.7873 -0.3374,1.6588 -0.3374,2.6149 0,0.9562 0.1129,1.8276 0.3374,2.615 0.1971,0.7872 0.5063,1.4341 0.928,1.9398 0.3941,0.5344 0.8438,0.9279 1.3777,1.1814 0.5063,0.2528 1.0684,0.3652 1.6872,0.3652 0.7872,0 1.5182,-0.2247 2.1932,-0.6468 0.6468,-0.4498 1.1809,-1.1244 1.5747,-2.0522 0.3934,-0.9279 0.5903,-2.0528 0.5903,-3.4023z"/>
   <path class="fil1" d="M109.2084 172.9503l0 0.3935c0.5336,-0.731 1.0965,-1.293 1.6586,-1.6305 0.5904,-0.3376 1.2373,-0.5063 1.9681,-0.5063 0.8715,0 1.6871,0.2527 2.418,0.759 0.7316,0.478 1.3218,1.2372 1.7434,2.1934 0.4216,0.9837 0.6467,2.1086 0.6467,3.4304 0,0.9839 -0.1405,1.8835 -0.3657,2.6991 -0.253,0.8156 -0.5904,1.5183 -1.0119,2.0527 -0.45,0.5622 -0.9563,0.9838 -1.5466,1.2931 -0.5904,0.281 -1.209,0.4497 -1.884,0.4497 -0.8155,0 -1.4901,-0.1963 -2.0527,-0.5621 -0.534,-0.3658 -1.0683,-0.8996 -1.574,-1.603l0 4.78c0,1.3778 -0.4499,2.081 -1.3779,2.081 -0.5344,0 -0.8721,-0.1687 -1.0407,-0.5344 -0.1965,-0.3651 -0.2811,-0.8714 -0.2811,-1.5741l0 -13.6938c0,-0.618 0.1406,-1.0684 0.3658,-1.3494 0.2246,-0.3094 0.5621,-0.4499 0.9561,-0.4499 0.4217,0 0.731,0.1405 0.9838,0.4499 0.2535,0.3092 0.3941,0.759 0.3941,1.3217zm5.5673 4.6114l0 0c0,-0.8156 -0.113,-1.5465 -0.3377,-2.1369 -0.2252,-0.6186 -0.5343,-1.0684 -0.9561,-1.4059 -0.3938,-0.3094 -0.8438,-0.4782 -1.3493,-0.4782 -0.7874,0 -1.4343,0.3652 -1.9963,1.0402 -0.5346,0.7033 -0.7872,1.7152 -0.7872,3.0365 0,1.2654 0.2526,2.2498 0.7872,2.9525 0.5338,0.7032 1.2089,1.0684 1.9963,1.0684 0.4782,0 0.9279,-0.1687 1.3213,-0.478 0.3938,-0.3094 0.731,-0.7592 0.9561,-1.3778 0.2528,-0.6187 0.3658,-1.3494 0.3658,-2.2209z"/>
   <path class="fil1" d="M127.1186 182.2851c-0.7027,0.5904 -1.3778,1.0402 -1.9963,1.3496 -0.6462,0.281 -1.3777,0.4497 -2.1651,0.4497 -0.731,0 -1.3777,-0.1687 -1.9399,-0.4781 -0.5343,-0.3368 -0.9562,-0.759 -1.2652,-1.3213 -0.3095,-0.5621 -0.4499,-1.1525 -0.4499,-1.7992 0,-0.8438 0.2527,-1.603 0.731,-2.2215 0.5062,-0.5904 1.1812,-1.012 2.0525,-1.209 0.1688,-0.0565 0.6187,-0.1688 1.3497,-0.3093 0.7032,-0.1689 1.3217,-0.3375 1.8273,-0.4499 0.5064,-0.1405 1.0687,-0.3093 1.6594,-0.5063 -0.028,-0.8431 -0.1969,-1.4618 -0.4497,-1.8276 -0.2815,-0.3932 -0.8156,-0.5902 -1.6594,-0.5902 -0.7309,0 -1.2649,0.1123 -1.6305,0.3374 -0.3659,0.2247 -0.6751,0.5622 -0.9563,1.012 -0.2526,0.4499 -0.4215,0.731 -0.5337,0.8721 -0.113,0.1405 -0.3375,0.2247 -0.7032,0.2247 -0.3094,0 -0.5905,-0.1124 -0.8157,-0.3376 -0.2529,-0.2245 -0.3652,-0.5338 -0.3652,-0.8996 0,-0.5339 0.1689,-1.0966 0.5339,-1.6029 0.3657,-0.534 0.9003,-0.9838 1.6594,-1.3214 0.7591,-0.3374 1.687,-0.5063 2.8112,-0.5063 1.2374,0 2.2216,0.1689 2.9526,0.5063 0.7032,0.3094 1.2089,0.8439 1.4899,1.5465 0.3095,0.731 0.4506,1.6588 0.4506,2.8403 0,0.759 0,1.3777 0,1.8834 0,0.5344 0,1.1249 0,1.7433 0,0.5903 0.084,1.2091 0.2528,1.8559 0.1687,0.6468 0.2529,1.0684 0.2529,1.2653 0,0.3094 -0.1123,0.6187 -0.3935,0.8715 -0.281,0.281 -0.5902,0.4216 -0.928,0.4216 -0.3092,0 -0.5903,-0.1687 -0.8713,-0.4781 -0.2816,-0.281 -0.5911,-0.7309 -0.9003,-1.3213zm-0.1965 -4.5829l0 0c-0.4222,0.1687 -1.0124,0.3375 -1.828,0.5338 -0.7868,0.1971 -1.3495,0.3376 -1.6307,0.4222 -0.3091,0.0841 -0.6186,0.2529 -0.8995,0.534 -0.2529,0.2529 -0.394,0.6187 -0.394,1.0683 0,0.4783 0.1411,0.8998 0.4781,1.2373 0.3374,0.3376 0.7591,0.5063 1.2936,0.5063 0.5622,0 1.0684,-0.1405 1.5463,-0.4216 0.4783,-0.2816 0.8158,-0.6186 1.0403,-1.0684 0.2534,-0.4782 0.3938,-1.2655 0.3938,-2.3622l0 -0.4497z"/>
   <path class="fil1" d="M132.6019 182.1446l0 -13.7495c0,-0.647 0.1123,-1.1244 0.3652,-1.4618 0.2534,-0.3094 0.5909,-0.4782 1.0406,-0.4782 0.4218,0 0.7592,0.1688 1.0403,0.4782 0.2529,0.3374 0.3933,0.8148 0.3933,1.4618l0 13.7495c0,0.6468 -0.1404,1.125 -0.3933,1.4618 -0.2811,0.3094 -0.6186,0.4781 -1.0403,0.4781 -0.4222,0 -0.7591,-0.1687 -1.0126,-0.5057 -0.2527,-0.3375 -0.3932,-0.8155 -0.3932,-1.4342z"/>
   <path class="fil1" d="M146.3233 178.4048l-5.5673 0c0,0.731 0.1403,1.3494 0.3933,1.9122 0.2533,0.5339 0.5902,0.9561 1.0126,1.2372 0.4217,0.2812 0.8714,0.4218 1.3775,0.4218 0.3377,0 0.6464,-0.0566 0.9282,-0.1405 0.281,-0.084 0.5621,-0.2253 0.8148,-0.4217 0.2817,-0.1687 0.5346,-0.3939 0.7316,-0.5904 0.2247,-0.2252 0.534,-0.5344 0.8715,-0.9002 0.1405,-0.1405 0.3658,-0.1963 0.6187,-0.1963 0.3091,0 0.5337,0.0841 0.731,0.2528 0.1686,0.1969 0.2534,0.4498 0.2534,0.7592 0,0.281 -0.0848,0.6185 -0.2817,1.0126 -0.2246,0.3651 -0.5057,0.759 -0.9278,1.096 -0.3935,0.3656 -0.8998,0.6468 -1.5184,0.8719 -0.6187,0.2529 -1.3213,0.3652 -2.1369,0.3652 -1.8275,0 -3.2336,-0.5902 -4.2454,-1.7429 -1.0127,-1.1813 -1.5184,-2.7553 -1.5184,-4.7518 0,-0.9279 0.1126,-1.7999 0.3652,-2.5873 0.2537,-0.815 0.6186,-1.49 1.0967,-2.0803 0.478,-0.5622 1.0683,-1.0126 1.7717,-1.322 0.7027,-0.281 1.4618,-0.4499 2.3332,-0.4499 1.0968,0 2.0529,0.2536 2.8684,0.7874 0.7872,0.5345 1.3777,1.209 1.7711,2.0245 0.3939,0.8439 0.5903,1.6871 0.5903,2.5309 0,0.815 -0.1964,1.3213 -0.6187,1.5465 -0.3931,0.2529 -0.9836,0.3651 -1.7145,0.3651zm-5.5673 -1.7992l0 0 5.145 0c-0.0557,-1.0967 -0.3093,-1.9123 -0.7872,-2.4462 -0.45,-0.5345 -1.0403,-0.7873 -1.7713,-0.7873 -0.7309,0 -1.2935,0.2528 -1.7715,0.8155 -0.4498,0.5339 -0.731,1.3496 -0.815,2.418z"/>
   <path class="fil1" d="M86.4889 172.7816l-1.9116 0c-0.2817,-1.153 -0.7315,-2.3619 -0.7032,-3.571 0.0282,-0.8996 0.0563,-1.7152 0.0846,-2.5584l3.1488 0c0.0283,0.8432 0.0567,1.6588 0.0846,2.5584 0.0277,1.2091 -0.4221,2.418 -0.7032,3.571z"/>
   <path class="fil1" d="M106.4803 73.6114c3.8804,-0.7032 8.2954,-0.7309 10.7415,2.9243 2.4462,0.1969 4.4424,1.1249 6.4389,2.4744 1.5181,1.0401 3.3174,0.956 5.0326,0.4781 1.3219,-0.3941 1.8558,1.4618 0.5346,1.8556 -2.2782,0.6463 -4.6679,0.6463 -6.664,-0.7315 -1.5466,-1.0684 -3.1213,-1.8275 -5.0053,-2.0804 -0.3368,4.4707 -5.0892,2.7554 -7.6195,1.6307 -1.2655,-0.5623 -0.5062,-2.3339 0.7591,-1.7712 1.7712,0.7592 5.1175,2.5585 4.9489,-0.759 -1.9681,-2.9243 -5.7925,-2.6714 -8.8291,-2.1093 -1.3777,0.2253 -1.7153,-1.6871 -0.3377,-1.9117z"/>
   <path class="fil1" d="M131.5893 55.4199c0.5627,0.5903 1.0684,1.0961 1.5184,1.602 0.4504,0.5058 0.9001,1.0408 1.3499,1.6035 0.8434,1.0671 -0.6185,2.2201 -1.4624,1.1808 -0.3932,-0.4781 -0.8155,-0.984 -1.293,-1.519 -0.478,-0.5627 -0.956,-1.0685 -1.4341,-1.5467 -0.9562,-0.9271 0.3657,-2.2492 1.3212,-1.3206z"/>
   <path class="fil1" d="M128.2718 59.3282c-0.2529,2.8673 0.028,5.7916 1.884,8.1255 0.3651,0.4498 -0.3093,0.9839 -0.6751,0.5063 -1.9681,-2.5019 -2.3056,-5.6246 -2.0529,-8.6887 0.0566,-0.5904 0.8997,-0.5335 0.844,0.0569z"/>
   <path class="fil1" d="M110.5859 63.2072c2.9525,-5.0321 10.4596,1.21 13.4122,3.487 0.3368,0.2537 0.7026,0.535 1.0119,0.7595 -0.3658,-2.6706 -0.7027,-5.455 -0.7027,-8.1824 0,-1.3776 1.9399,-1.3776 1.9399,0 0,3.3455 0.4781,6.8048 0.9844,10.0941 0.1124,0.7873 -0.7591,1.3784 -1.4341,0.9843 -0.731,-0.4216 -1.7717,-1.2089 -2.9808,-2.1368 -1.7711,-1.3496 -8.7161,-7.1689 -10.5718,-4.0201 -0.7029,1.1792 -2.3622,0.1967 -1.6589,-0.9855z"/>
   <path class="fil1" d="M116.7435 70.7154c1.743,0.9839 3.4023,1.8276 5.0612,2.5302 2.2774,1.0409 10.4032,4.8648 10.4315,0.0847 0.0563,-1.3777 1.9961,-1.3219 1.9405,0.0559 -0.1411,7.0856 -9.4196,3.29 -13.1311,1.6593 -1.7151,-0.759 -3.4586,-1.6311 -5.2579,-2.6713 -1.2091,-0.675 -0.2529,-2.362 0.9559,-1.6588z"/>
   <path class="fil1" d="M110.5578 68.3818c0.8431,0.0558 0.9842,-0.0847 1.2652,-0.9281 0.169,-0.5627 0.2812,-1.0686 0.815,-0.7026 0.6189,0.3935 0.9281,1.4618 0.8721,2.2774 -0.1128,2.699 -5.3704,0.7591 -6.6074,0.0275 -0.3375,-0.2247 -3.8521,-2.5863 -3.1211,-3.0922 0.2809,-0.1691 1.0119,-0.0569 1.7151,0.3367 1.5184,0.8718 3.5145,1.9964 5.0612,2.0812z"/>
   <path class="fil1" d="M101.0259 64.6985c0.4217,-0.0845 0.9837,0.309 0.9837,0.7871 0,0.4505 -0.4215,0.6457 -1.012,0.6457 -0.6184,0 -0.9842,-0.2798 -0.8995,-0.7026 0.0841,-0.4213 0.5064,-0.675 0.9279,-0.7303z"/>
   <path class="fil1" d="M131.3364 68.5787c0.3935,-0.113 0.9845,0.3933 0.9845,0.9279 0,0.5339 -0.394,0.9279 -0.9845,0.9279 -0.5902,0 -1.012,-0.4781 -0.956,-0.9843 0.0845,-0.5063 0.5345,-0.7874 0.956,-0.8715z"/>
   <path class="fil1" d="M63.5734 96.8928c0.1124,1.7152 1.0684,4.1332 3.2617,3.7117 2.6714,-0.5063 2.6151,-4.8083 0.928,-6.2989 -1.6869,-1.4618 -4.1897,-1.7429 -6.5236,-0.9555 -4.5829,1.5465 -5.7636,5.1451 -5.9888,9.3065 -0.1688,2.896 0.3093,6.0455 2.6714,6.917 -0.3375,-2.4464 0.0558,-6.1297 0.7872,-8.5475 0.5058,-1.6313 2.3057,-5.0893 4.8641,-4.1332z"/>
   <path class="fil1" d="M39.3083 103.641c0.1405,1.9679 -0.4221,4.78 -3.318,4.1614 -2.7273,-0.5904 -2.6151,-5.2299 -0.8715,-6.8887 2.643,-2.5309 7.5071,-1.8841 9.7287,0.8997 1.5464,1.9399 1.2371,5.595 0.084,8.688 -0.5064,1.3216 -0.9838,2.8681 -2.4463,3.318 0.253,-1.5465 1.9964,-8.2386 0,-10.2632 -0.8431,-0.8433 -2.3619,-0.7592 -3.177,0.0847z"/>
   <path class="fil1" d="M42.0074 114.7756c0.5628,0 1.0684,0.4496 1.0684,0.9837 0,0.5621 -0.5056,0.9843 -1.0684,0.9843 -0.5338,0 -0.9839,-0.4222 -0.9839,-0.9843 0,-0.534 0.45,-0.9837 0.9839,-0.9837z"/>
   <path class="fil1" d="M61.7177 101.2507c0.5621,0 1.0401,0.478 1.0401,1.0406 0,0.5623 -0.4781,1.0402 -1.0401,1.0402 -0.5622,0 -1.0403,-0.478 -1.0403,-1.0402 0,-0.5627 0.4782,-1.0406 1.0403,-1.0406z"/>
   <path class="fil1" d="M98.9451 118.0366c0.5627,0 1.0407,0.4782 1.0407,1.0408 0,0.5621 -0.4781,1.0403 -1.0407,1.0403 -0.5623,0 -1.0403,-0.4783 -1.0403,-1.0403 0,-0.5627 0.4781,-1.0408 1.0403,-1.0408z"/>
   <path class="fil1" d="M70.1529 126.0502c4.9487,-3.1489 11.1063,-6.4388 17.6017,-8.7444 7.5072,-2.6433 15.4924,-3.9363 22.3533,-1.3213 -2.7836,6.5793 -8.0134,13.4677 -13.5526,20.3564 3.1771,-1.1242 7.5355,-3.6833 12.5125,-11.331 1.8558,-2.8961 3.5145,-6.8046 4.9765,-12.2031 -11.4719,-1.6588 -23.8719,-1.2089 -34.1627,4.6395 -3.571,2.0245 -7.8729,4.9206 -9.7286,8.6039z"/>
   <path class="fil1" d="M49.8803 101.9257c0.8155,13.6366 1.9399,40.8824 22.4939,35.7931 4.3586,-2.5867 8.885,-4.4424 13.0746,-6.0447 3.571,-1.3495 7.0575,-2.1934 8.8291,-1.3219 -0.7592,1.4905 -1.8558,1.6029 -3.2058,2.362 -2.9802,1.6029 -5.9045,3.9927 -7.5073,7.0292 -1.2371,2.4462 -1.5181,5.5115 0.8156,6.861 1.8557,1.0402 4.5548,0.8431 7.198,0.3093 5.5108,-1.1531 11.2752,-3.5993 17.0113,-6.1577 4.4707,-1.9682 8.9413,-3.9645 13.1585,-5.7079 -1.996,4.9486 -17.1512,9.3629 -22.2404,11.4716 -2.5309,1.0408 -5.1459,1.884 -7.6484,2.4461 -3.2054,0.7599 -6.8603,1.4344 -9.391,-0.0558 -5.4264,-3.1494 -2.2211,-9.4759 0.7588,-12.8216 -7.0856,3.9644 -13.8335,5.9048 -19.288,5.6796 -6.2142,-0.281 -9.7569,-3.0647 -11.7815,-7.1414 -4.6394,-9.279 -4.2736,-22.8315 -2.2774,-32.7008z"/>
   <path class="fil1" d="M51.4267 78.1944l5.4826 -3.9926 -2.0804 -6.4388 -6.8045 0 -2.0803 6.4388 5.4825 3.9926zm0 -23.1405l0 0c2.2492,0 4.3861,0.4213 6.3831,1.1808l-2.0528 1.7158 2.0805 5.9317 6.298 0.1691 0.9845 -2.5029c2.4744,3.0657 3.9646,6.9457 3.9646,11.1636 0,0.3374 0,0.6468 -0.0283,0.9837l-2.2773 -1.4336 -4.9764 3.8238 1.7992 6.0173 2.6714 0.1687c-2.362,3.6552 -6.0455,6.3824 -10.3192,7.5073l0.6463 -2.5868 -5.1736 -3.571 -5.1734 3.571 0.6463 2.5868c-4.2737,-1.125 -7.9572,-3.8522 -10.3191,-7.5073l2.6714 -0.1687 1.7992 -6.0173 -5.0047 -3.8238 -2.2496 1.4336c-0.0276,-0.3368 -0.0276,-0.6462 -0.0276,-0.9837 0,-4.218 1.4901,-8.0979 3.9644,-11.1636l0.9844 2.5029 6.2982 -0.1691 2.0804 -5.9317 -2.0527 -1.7158c1.9687,-0.7595 4.1338,-1.1808 6.3829,-1.1808z"/>
  </g>
 </g>
</svg>
