<?xml version="1.0" encoding="UTF-8" standalone="no"?>
<svg
   clip-rule="evenodd"
   fill-rule="evenodd"
   stroke-linejoin="round"
   stroke-miterlimit="2"
   viewBox="0 0 199.99956 263.12936"
   version="1.1"
   id="svg19"
   sodipodi:docname="Bournemouth.svg"
   width="199.99956"
   height="263.12936"
   xmlns:inkscape="http://www.inkscape.org/namespaces/inkscape"
   xmlns:sodipodi="http://sodipodi.sourceforge.net/DTD/sodipodi-0.dtd"
   xmlns="http://www.w3.org/2000/svg"
   xmlns:svg="http://www.w3.org/2000/svg">
  <defs
     id="defs19" />
  <sodipodi:namedview
     id="namedview19"
     pagecolor="#ffffff"
     bordercolor="#000000"
     borderopacity="0.25"
     inkscape:showpageshadow="2"
     inkscape:pageopacity="0.0"
     inkscape:pagecheckerboard="0"
     inkscape:deskcolor="#d1d1d1" />
  <linearGradient
     id="a"
     gradientUnits="userSpaceOnUse"
     x1="25.211"
     x2="126.892"
     y1="13.168"
     y2="13.168">
    <stop
       offset="0"
       stop-color="#a8996e"
       id="stop1" />
    <stop
       offset=".5"
       stop-color="#fce3c4"
       id="stop2" />
    <stop
       offset="1"
       stop-color="#a8996e"
       id="stop3" />
  </linearGradient>
  <linearGradient
     id="b"
     gradientTransform="matrix(0,-133.905,133.905,0,76,159.806)"
     gradientUnits="userSpaceOnUse"
     x1="0"
     x2="1"
     y1="0"
     y2="0">
    <stop
       offset="0"
       stop-color="#970608"
       id="stop4" />
    <stop
       offset="1"
       stop-color="#db181e"
       id="stop5" />
  </linearGradient>
  <g
     fill-rule="nonzero"
     transform="matrix(1.3157,0,0,1.3157,0,-0.0106361)"
     id="g19">
    <path
       d="M 69.33,0.08 C 68.08,0.11 66.45,0.17 65.71,0.2 64.97,0.23 63.66,0.29 62.79,0.33 61.93,0.37 60.29,0.47 59.14,0.53 58,0.6 56.3,0.72 55.36,0.79 54.43,0.86 52.91,0.99 51.99,1.07 51.07,1.15 49.53,1.3 48.57,1.4 47.61,1.5 45.92,1.68 44.82,1.81 43.72,1.93 41.61,2.2 40.13,2.4 c -1.48,0.19 -3.59,0.49 -4.69,0.66 -1.1,0.17 -3.16,0.5 -4.56,0.73 -1.41,0.24 -3.66,0.64 -5,0.89 -1.34,0.25 -2.82,0.54 -3.29,0.63 -0.48,0.1 -1.57,0.33 -2.44,0.51 C 19.29,6 17.65,6.36 16.5,6.61 15.36,6.87 13.29,7.35 11.91,7.69 10.53,8.02 8.62,8.5 7.66,8.76 6.69,9.01 5.28,9.38 4.51,9.59 3.75,9.8 2.43,10.17 1.6,10.41 0.76,10.65 0.06,10.87 0.04,10.9 0.02,10.93 0,22.66 0,36.95 c 0,15.57 0.02,26.94 0.05,28.36 0.03,1.3 0.07,2.94 0.1,3.64 0.03,0.7 0.09,1.86 0.13,2.59 0.04,0.73 0.12,1.95 0.18,2.72 0.05,0.77 0.15,1.95 0.2,2.62 0.06,0.67 0.16,1.75 0.23,2.39 0.07,0.65 0.19,1.77 0.28,2.5 0.08,0.72 0.24,1.99 0.35,2.82 0.11,0.82 0.29,2.11 0.41,2.85 0.11,0.74 0.31,1.95 0.43,2.69 0.13,0.74 0.36,2.04 0.51,2.88 0.15,0.84 0.43,2.23 0.6,3.1 0.18,0.87 0.49,2.31 0.69,3.2 0.2,0.9 0.52,2.27 0.71,3.06 0.19,0.78 0.54,2.15 0.78,3.05 0.23,0.89 0.61,2.28 0.84,3.07 0.23,0.8 0.63,2.18 0.89,3.06 0.27,0.88 0.72,2.3 1,3.15 0.28,0.85 0.78,2.35 1.13,3.33 0.34,0.98 0.94,2.63 1.33,3.66 0.39,1.04 0.91,2.4 1.17,3.03 0.25,0.63 0.65,1.63 0.89,2.21 0.25,0.59 0.68,1.61 0.97,2.27 0.28,0.65 0.73,1.65 0.98,2.21 0.26,0.56 0.78,1.67 1.15,2.47 0.37,0.79 1.2,2.48 1.84,3.73 0.64,1.26 1.52,2.96 1.96,3.77 0.44,0.81 1.12,2.03 1.51,2.72 0.39,0.69 0.98,1.72 1.32,2.29 0.34,0.57 0.99,1.66 1.45,2.41 0.47,0.76 1.16,1.87 1.55,2.47 0.38,0.6 1.04,1.61 1.46,2.24 0.42,0.63 1.15,1.7 1.62,2.39 0.48,0.69 1.26,1.8 1.75,2.47 0.49,0.67 1.3,1.77 1.81,2.44 0.5,0.67 1.38,1.81 1.95,2.54 0.58,0.73 1.48,1.85 2,2.49 0.53,0.65 1.42,1.71 1.98,2.37 0.55,0.66 1.46,1.7 2,2.31 0.55,0.62 1.6,1.77 2.34,2.57 0.74,0.8 2.14,2.26 3.12,3.25 0.97,0.99 2.35,2.37 3.06,3.05 0.71,0.69 1.87,1.78 2.56,2.42 0.7,0.64 1.91,1.73 2.69,2.42 0.78,0.69 1.99,1.73 2.69,2.32 0.69,0.59 1.86,1.55 2.58,2.14 0.73,0.59 1.94,1.55 2.69,2.13 0.75,0.59 2.07,1.58 2.92,2.21 0.85,0.63 2.24,1.64 3.09,2.25 0.85,0.6 2.18,1.53 2.96,2.06 0.79,0.53 2.02,1.34 2.74,1.81 l 1.32,0.85 h 2.05 c 2.03,-1.27 3.06,-1.94 3.6,-2.31 0.55,-0.36 1.59,-1.07 2.31,-1.57 0.73,-0.51 1.84,-1.3 2.48,-1.76 0.65,-0.46 1.72,-1.25 2.39,-1.75 0.67,-0.51 1.66,-1.26 2.2,-1.68 0.55,-0.42 1.45,-1.13 2.01,-1.58 0.55,-0.45 1.58,-1.28 2.28,-1.86 0.69,-0.57 1.78,-1.49 2.41,-2.04 0.63,-0.54 1.56,-1.36 2.08,-1.82 0.51,-0.46 1.57,-1.43 2.35,-2.15 0.78,-0.72 2.18,-2.05 3.1,-2.95 0.93,-0.91 2.18,-2.16 2.79,-2.79 0.61,-0.63 1.48,-1.54 1.92,-2.01 0.45,-0.48 1.26,-1.36 1.8,-1.96 0.55,-0.6 1.31,-1.46 1.7,-1.91 0.39,-0.44 1.07,-1.22 1.5,-1.73 0.43,-0.5 1.21,-1.43 1.72,-2.06 0.52,-0.63 1.34,-1.64 1.83,-2.26 0.48,-0.62 1.18,-1.51 1.55,-1.98 l 1.47,-1.96 c 0.44,-0.6 1.17,-1.61 1.62,-2.24 0.45,-0.63 1.1,-1.56 1.45,-2.06 0.35,-0.5 1.17,-1.73 1.82,-2.72 0.66,-0.99 1.48,-2.27 1.83,-2.82 0.35,-0.56 0.93,-1.51 1.29,-2.12 0.37,-0.6 0.92,-1.54 1.24,-2.08 0.33,-0.55 0.83,-1.42 1.12,-1.93 0.29,-0.52 0.86,-1.55 1.27,-2.29 0.4,-0.74 1.15,-2.16 1.66,-3.16 0.51,-0.99 1.18,-2.32 1.48,-2.95 0.31,-0.63 0.81,-1.68 1.12,-2.34 0.3,-0.65 0.92,-2.03 1.38,-3.05 0.45,-1.02 1.08,-2.5 1.41,-3.28 0.32,-0.78 0.77,-1.89 1,-2.47 0.23,-0.57 0.62,-1.58 0.87,-2.23 0.25,-0.66 0.65,-1.74 0.89,-2.39 0.23,-0.66 0.67,-1.9 0.96,-2.75 0.29,-0.85 0.75,-2.25 1.03,-3.1 0.27,-0.86 0.67,-2.13 0.88,-2.83 0.21,-0.7 0.51,-1.73 0.67,-2.29 0.15,-0.56 0.44,-1.59 0.63,-2.28 0.19,-0.7 0.54,-2.04 0.78,-2.98 0.24,-0.94 0.63,-2.57 0.87,-3.64 0.24,-1.06 0.51,-2.31 0.61,-2.77 0.1,-0.46 0.27,-1.28 0.38,-1.83 0.11,-0.55 0.31,-1.61 0.45,-2.37 0.14,-0.75 0.38,-2.12 0.53,-3.05 0.15,-0.92 0.35,-2.13 0.43,-2.69 0.08,-0.56 0.25,-1.8 0.38,-2.75 0.13,-0.95 0.31,-2.43 0.41,-3.28 0.1,-0.85 0.24,-2.26 0.33,-3.13 0.08,-0.87 0.21,-2.33 0.28,-3.25 0.07,-0.93 0.16,-2.3 0.2,-3.06 0.04,-0.75 0.11,-1.88 0.14,-2.51 0.04,-0.85 0.06,-8.66 0.08,-29.73 l 0.02,-28.59 C 149.19,10.05 147.87,9.68 147.26,9.52 146.65,9.35 145.36,9.01 144.39,8.76 143.43,8.5 141.52,8.02 140.14,7.69 138.76,7.35 136.69,6.87 135.55,6.61 134.4,6.36 133.04,6.06 132.51,5.95 131.98,5.83 130.88,5.61 130.07,5.44 129.26,5.27 127.45,4.92 126.04,4.66 124.63,4.39 122.39,3.99 121.05,3.77 119.71,3.55 117.7,3.22 116.59,3.05 115.47,2.89 113.45,2.6 112.1,2.42 110.75,2.24 109.06,2.02 108.35,1.94 107.64,1.85 106.32,1.7 105.43,1.61 104.54,1.51 102.98,1.35 101.96,1.25 100.94,1.15 98.97,0.98 97.57,0.87 96.18,0.76 94.09,0.61 92.93,0.54 91.78,0.47 90.12,0.37 89.26,0.33 88.39,0.29 87.13,0.23 86.44,0.2 85.76,0.18 83.96,0.12 82.44,0.08 80.74,0.03 78.13,0 75.65,0.01 c -2.22,0 -5.06,0.03 -6.32,0.07 z"
       id="path5" />
    <path
       d="m 69.13,0.09 c 0.08,0.01 0.24,0.01 0.35,0 0.12,-0.01 0.05,-0.02 -0.15,-0.02 -0.19,0 -0.28,0.01 -0.2,0.02 z m 13.39,0 c 0.08,0.01 0.24,0.01 0.35,0 0.11,-0.01 0.04,-0.02 -0.15,-0.02 -0.2,0 -0.29,0.01 -0.2,0.02 z m -12.3,7.57 c -0.13,0.01 -0.58,0.06 -1.01,0.1 -0.44,0.04 -0.89,0.1 -1.02,0.13 -0.12,0.03 -0.29,0.09 -0.37,0.13 -0.07,0.04 -0.16,0.12 -0.2,0.18 -0.05,0.09 -0.07,1.22 -0.08,5.02 -0.01,4.89 -0.01,4.91 0.09,5.05 l 0.11,0.14 c 2.02,-0.06 2.05,-0.06 2.16,-0.18 0.12,-0.12 0.12,-0.12 0.12,-1.95 v -1.83 h 1.14 c 1.49,2.81 1.97,3.68 2.03,3.74 l 0.1,0.13 c 2.38,-0.08 2.43,-0.09 2.45,-0.19 0.01,-0.06 -0.46,-0.97 -1.09,-2.13 -0.6,-1.12 -1.07,-2.04 -1.05,-2.05 0.02,-0.01 0.18,-0.1 0.36,-0.2 0.17,-0.11 0.42,-0.3 0.55,-0.42 0.13,-0.13 0.33,-0.37 0.44,-0.54 0.11,-0.17 0.24,-0.46 0.3,-0.66 0.1,-0.3 0.12,-0.47 0.12,-1.09 0,-0.45 -0.03,-0.85 -0.07,-1.02 C 75.26,9.87 75.15,9.57 75.06,9.37 74.94,9.12 74.79,8.91 74.57,8.68 74.35,8.46 74.12,8.3 73.82,8.15 73.58,8.03 73.22,7.89 73.01,7.84 72.8,7.78 72.41,7.72 72.13,7.69 71.86,7.65 71.37,7.63 71.04,7.64 c -0.32,0 -0.69,0.02 -0.82,0.02 z m 7.2,0.21 c -0.09,0.09 -0.15,0.22 -0.17,0.37 -0.02,0.13 -0.03,2.4 -0.02,5.05 0.01,4.54 0.02,4.82 0.1,4.91 0.08,0.07 0.21,0.09 1.02,0.1 0.76,0.01 0.94,0 1.03,-0.06 l 0.12,-0.08 c 0.02,-4.92 0.04,-5.98 0.07,-5.99 0.03,-0.01 0.28,0.37 0.54,0.84 0.27,0.47 1.03,1.79 1.69,2.94 0.66,1.14 1.24,2.12 1.29,2.18 0.05,0.05 0.15,0.12 0.22,0.16 0.1,0.05 0.43,0.08 0.99,0.11 0.69,0.02 0.89,0.02 1.02,-0.04 0.1,-0.04 0.21,-0.14 0.24,-0.21 0.06,-0.12 0.07,-1.02 0.07,-5.12 0,-3.11 -0.02,-5 -0.05,-5.04 -0.02,-0.05 -0.16,-0.1 -0.29,-0.12 -0.13,-0.01 -0.58,-0.03 -1,-0.04 -0.56,0 -0.78,0.02 -0.82,0.06 -0.05,0.05 -0.07,0.83 -0.08,3.17 -0.01,2.42 -0.03,3.11 -0.08,3.11 -0.03,0 -0.83,-1.35 -1.77,-3.01 C 80.59,9.51 79.78,8.1 79.72,8.02 79.67,7.94 79.56,7.84 79.49,7.8 79.38,7.75 79.11,7.73 78.46,7.73 h -0.9 z M 63.79,7.98 c -0.39,0.03 -0.49,0.05 -0.55,0.13 -0.06,0.09 -0.07,0.64 -0.07,3.56 0,2.9 -0.01,3.52 -0.08,3.82 -0.04,0.19 -0.12,0.44 -0.18,0.56 -0.07,0.11 -0.21,0.27 -0.32,0.36 -0.14,0.11 -0.33,0.18 -0.61,0.25 -0.28,0.06 -0.52,0.08 -0.78,0.06 -0.21,-0.01 -0.48,-0.06 -0.59,-0.11 -0.11,-0.05 -0.25,-0.13 -0.32,-0.2 -0.06,-0.06 -0.15,-0.18 -0.2,-0.26 -0.04,-0.08 -0.11,-0.28 -0.15,-0.43 -0.06,-0.23 -0.08,-1.01 -0.1,-3.84 -0.02,-3 -0.03,-3.58 -0.1,-3.64 -0.06,-0.07 -0.19,-0.07 -1.07,-0.01 -0.8,0.05 -1.02,0.09 -1.12,0.16 l -0.13,0.09 c -0.03,5.52 -0.01,6.87 0.02,7.19 0.03,0.26 0.09,0.62 0.14,0.78 0.04,0.17 0.15,0.48 0.25,0.68 0.11,0.23 0.29,0.49 0.47,0.69 0.18,0.19 0.43,0.38 0.65,0.5 0.19,0.1 0.53,0.24 0.75,0.31 0.37,0.1 0.51,0.11 1.44,0.11 0.67,0 1.15,-0.02 1.35,-0.06 0.17,-0.04 0.47,-0.13 0.68,-0.19 0.21,-0.07 0.51,-0.2 0.68,-0.29 0.16,-0.09 0.38,-0.25 0.5,-0.34 0.12,-0.1 0.31,-0.29 0.43,-0.43 0.12,-0.15 0.3,-0.42 0.39,-0.62 0.1,-0.2 0.23,-0.54 0.28,-0.76 0.06,-0.23 0.13,-0.7 0.16,-1.04 0.02,-0.35 0.04,-2.03 0.04,-3.72 0.01,-2.38 -0.01,-3.1 -0.06,-3.2 -0.06,-0.13 -0.07,-0.13 -0.69,-0.13 -0.35,-0.01 -0.85,0 -1.11,0.02 z m 25.75,0.08 c -0.18,0.03 -0.49,0.14 -0.68,0.24 -0.21,0.1 -0.44,0.27 -0.59,0.42 -0.13,0.14 -0.3,0.37 -0.37,0.51 -0.07,0.14 -0.17,0.41 -0.22,0.59 -0.09,0.3 -0.09,0.56 -0.09,3.35 0,2.7 0,3.07 0.08,3.41 0.05,0.21 0.17,0.53 0.26,0.71 0.09,0.19 0.28,0.45 0.41,0.59 0.14,0.14 0.42,0.34 0.61,0.44 0.2,0.1 0.54,0.23 0.76,0.29 0.23,0.06 0.68,0.13 1.02,0.16 0.33,0.03 1.17,0.05 1.85,0.04 1.08,-0.01 1.26,-0.03 1.38,-0.1 l 0.14,-0.09 c 0,-1.49 -0.01,-1.54 -0.11,-1.65 -0.11,-0.11 -0.17,-0.12 -1.28,-0.18 -0.65,-0.04 -1.4,-0.08 -1.68,-0.1 -0.28,-0.02 -0.57,-0.07 -0.66,-0.11 -0.08,-0.04 -0.19,-0.16 -0.25,-0.28 -0.09,-0.18 -0.1,-0.32 -0.11,-1.16 l -0.02,-0.95 c 0.65,0.04 1.31,0.08 1.88,0.1 0.57,0.03 1.23,0.07 1.47,0.09 0.4,0.03 0.44,0.02 0.54,-0.08 0.11,-0.1 0.12,-0.15 0.12,-0.85 0,-0.69 -0.01,-0.74 -0.12,-0.86 l -0.11,-0.13 c -2.87,-0.16 -3.72,-0.2 -3.74,-0.2 -0.02,0 -0.03,-0.38 -0.02,-0.85 0.01,-0.69 0.03,-0.89 0.1,-1.02 0.05,-0.1 0.16,-0.2 0.28,-0.25 0.16,-0.07 0.3,-0.08 0.9,-0.05 0.39,0.02 1.13,0.06 1.65,0.1 0.92,0.06 0.95,0.06 1.06,-0.04 0.1,-0.1 0.1,-0.16 0.1,-0.87 C 94.1,8.62 94.09,8.51 94.01,8.43 93.96,8.39 93.75,8.31 93.54,8.27 93.33,8.22 92.91,8.15 92.6,8.11 92.3,8.07 91.56,8.02 90.96,8.01 c -0.79,-0.02 -1.18,0 -1.42,0.05 z m 6.6,0.37 -0.26,0.26 c -0.01,9.17 0,10.17 0.06,10.22 0.03,0.03 0.38,0.08 0.82,0.11 0.42,0.03 0.89,0.07 1.04,0.08 0.2,0.02 0.3,0.01 0.35,-0.04 0.05,-0.05 0.06,-0.68 0.06,-3.13 0,-1.68 0.01,-3.07 0.03,-3.09 0.03,-0.01 0.08,0.02 0.12,0.07 0.05,0.05 0.36,0.62 0.71,1.28 0.34,0.66 0.67,1.25 0.74,1.32 0.11,0.12 0.18,0.14 0.82,0.19 0.38,0.03 0.75,0.04 0.82,0.02 0.07,-0.01 0.15,-0.07 0.19,-0.13 0.04,-0.06 0.36,-0.6 0.72,-1.22 0.35,-0.61 0.67,-1.12 0.7,-1.13 0.05,-0.01 0.06,0.62 0.06,3.05 0,2.87 0.01,3.07 0.09,3.17 0.08,0.1 0.19,0.12 1.03,0.2 0.52,0.05 1,0.09 1.06,0.09 0.07,-0.01 0.15,-0.04 0.17,-0.07 0.02,-0.04 0.04,-2.3 0.04,-5.02 0,-4.06 -0.01,-4.97 -0.07,-5.11 -0.04,-0.09 -0.11,-0.21 -0.17,-0.25 -0.06,-0.07 -0.27,-0.12 -0.7,-0.17 -0.33,-0.04 -0.75,-0.07 -0.93,-0.07 -0.27,-0.01 -0.33,0.01 -0.47,0.13 -0.08,0.08 -0.66,1.05 -1.28,2.15 -0.64,1.14 -1.16,2.01 -1.2,2.01 -0.05,0 -0.55,-0.92 -1.23,-2.24 C 98.83,9.88 98.24,8.81 98.17,8.73 98.06,8.63 97.95,8.58 97.73,8.55 97.56,8.52 97.13,8.49 96.78,8.47 Z M 51.33,8.65 c -0.19,0.02 -0.54,0.09 -0.78,0.15 -0.24,0.06 -0.59,0.18 -0.79,0.27 -0.19,0.09 -0.47,0.25 -0.61,0.34 -0.14,0.1 -0.37,0.29 -0.52,0.43 -0.15,0.14 -0.35,0.36 -0.44,0.49 -0.09,0.12 -0.25,0.38 -0.34,0.58 -0.1,0.2 -0.23,0.51 -0.29,0.69 -0.05,0.18 -0.14,0.53 -0.18,0.79 -0.06,0.34 -0.08,0.84 -0.08,2 0,1.19 0.02,1.67 0.08,2.04 0.05,0.27 0.16,0.68 0.25,0.91 0.09,0.24 0.24,0.56 0.34,0.72 0.1,0.15 0.32,0.4 0.48,0.56 0.17,0.15 0.47,0.36 0.68,0.46 0.21,0.11 0.52,0.23 0.68,0.27 0.17,0.04 0.51,0.09 0.76,0.11 0.26,0.02 0.7,0.01 0.99,-0.02 0.3,-0.03 0.72,-0.11 0.94,-0.16 0.22,-0.06 0.64,-0.22 0.94,-0.37 0.37,-0.19 0.63,-0.36 0.88,-0.6 0.19,-0.18 0.44,-0.47 0.56,-0.63 0.11,-0.17 0.27,-0.47 0.36,-0.67 0.09,-0.19 0.21,-0.53 0.27,-0.76 0.06,-0.22 0.13,-0.6 0.16,-0.84 0.03,-0.24 0.05,-0.95 0.05,-1.57 0,-0.63 -0.03,-1.4 -0.06,-1.71 -0.03,-0.31 -0.11,-0.75 -0.17,-0.98 -0.07,-0.23 -0.2,-0.56 -0.28,-0.74 C 55.12,10.24 54.95,9.97 54.84,9.83 54.72,9.68 54.49,9.45 54.33,9.32 54.16,9.2 53.94,9.05 53.84,9 53.75,8.95 53.51,8.86 53.31,8.81 53.12,8.75 52.76,8.68 52.53,8.65 52.29,8.62 52,8.6 51.89,8.6 51.78,8.61 51.53,8.63 51.33,8.65 Z m -9.65,1 c -0.1,0.01 -0.5,0.06 -0.89,0.12 -0.39,0.06 -1.02,0.17 -1.4,0.25 -0.37,0.09 -0.77,0.21 -0.88,0.27 -0.11,0.06 -0.25,0.19 -0.32,0.29 l -0.12,0.18 c 0,7.7 0.02,9.42 0.06,9.52 0.03,0.11 0.11,0.2 0.21,0.25 0.09,0.05 0.34,0.09 0.55,0.11 0.21,0.01 0.73,0 1.16,-0.04 0.44,-0.03 1.06,-0.09 1.4,-0.13 0.33,-0.03 0.81,-0.11 1.06,-0.17 0.25,-0.05 0.66,-0.17 0.91,-0.26 0.26,-0.09 0.55,-0.21 0.66,-0.27 0.12,-0.05 0.34,-0.19 0.51,-0.31 0.17,-0.12 0.42,-0.34 0.55,-0.49 0.14,-0.15 0.32,-0.43 0.41,-0.61 0.1,-0.18 0.21,-0.49 0.26,-0.68 0.06,-0.28 0.08,-0.51 0.06,-1.02 C 45.86,16.14 45.83,15.93 45.74,15.72 45.69,15.56 45.53,15.31 45.39,15.16 45.25,15 45.03,14.82 44.91,14.75 l -0.23,-0.13 c 0.58,-0.54 0.7,-0.7 0.86,-1.01 0.1,-0.23 0.22,-0.54 0.24,-0.69 0.03,-0.15 0.05,-0.46 0.05,-0.69 0,-0.22 -0.03,-0.56 -0.07,-0.76 -0.05,-0.2 -0.13,-0.46 -0.19,-0.58 C 45.5,10.77 45.35,10.55 45.22,10.41 45.08,10.25 44.87,10.1 44.64,9.99 44.45,9.9 44.15,9.78 43.98,9.74 43.77,9.68 43.41,9.65 42.77,9.64 42.26,9.63 41.77,9.63 41.68,9.65 Z m 68.26,0.14 c -0.19,0.04 -0.49,0.12 -0.66,0.18 -0.16,0.06 -0.41,0.19 -0.55,0.28 -0.14,0.09 -0.39,0.31 -0.55,0.48 -0.18,0.19 -0.36,0.46 -0.49,0.73 -0.11,0.23 -0.26,0.6 -0.32,0.82 -0.1,0.38 -0.11,0.56 -0.13,2.17 -0.01,1.43 0,1.84 0.07,2.26 0.04,0.28 0.14,0.69 0.22,0.91 0.07,0.23 0.24,0.59 0.36,0.81 0.13,0.22 0.35,0.54 0.51,0.71 0.15,0.17 0.41,0.4 0.58,0.52 0.17,0.12 0.45,0.29 0.63,0.38 0.19,0.09 0.49,0.22 0.69,0.29 0.19,0.06 0.56,0.16 0.81,0.2 0.25,0.04 0.73,0.08 1.06,0.08 0.45,0 0.72,-0.03 0.99,-0.1 0.21,-0.06 0.52,-0.17 0.69,-0.25 0.2,-0.09 0.43,-0.27 0.71,-0.55 0.27,-0.27 0.45,-0.51 0.55,-0.71 0.08,-0.17 0.19,-0.42 0.23,-0.56 0.05,-0.14 0.13,-0.48 0.18,-0.76 0.07,-0.44 0.08,-0.76 0.06,-2.17 -0.02,-1.41 -0.04,-1.72 -0.12,-2.11 -0.06,-0.25 -0.17,-0.64 -0.26,-0.86 -0.09,-0.23 -0.25,-0.56 -0.37,-0.74 -0.12,-0.18 -0.29,-0.43 -0.39,-0.55 -0.1,-0.12 -0.35,-0.35 -0.54,-0.5 -0.2,-0.16 -0.56,-0.38 -0.81,-0.5 -0.25,-0.12 -0.64,-0.27 -0.86,-0.33 -0.23,-0.06 -0.6,-0.13 -0.84,-0.15 -0.24,-0.03 -0.58,-0.05 -0.76,-0.05 -0.18,0 -0.49,0.03 -0.69,0.07 z m 7.37,1.05 c -0.04,0.08 -0.05,0.94 -0.03,3.7 0.02,3.39 0.03,3.62 0.13,4.05 0.06,0.25 0.16,0.62 0.24,0.81 0.07,0.2 0.18,0.44 0.24,0.54 0.06,0.1 0.2,0.3 0.32,0.45 0.11,0.14 0.36,0.39 0.56,0.55 0.19,0.16 0.56,0.39 0.81,0.51 0.25,0.12 0.67,0.27 0.94,0.34 0.26,0.07 0.71,0.16 1,0.21 0.28,0.04 0.7,0.08 0.92,0.08 0.22,0 0.58,-0.04 0.8,-0.08 0.22,-0.05 0.54,-0.15 0.71,-0.23 0.17,-0.09 0.44,-0.26 0.58,-0.4 0.15,-0.14 0.34,-0.38 0.43,-0.55 0.09,-0.16 0.2,-0.41 0.24,-0.55 0.05,-0.14 0.12,-0.45 0.16,-0.69 0.06,-0.34 0.07,-1.17 0.07,-3.95 v -3.52 c -0.19,-0.15 -0.56,-0.24 -1.23,-0.35 -0.81,-0.13 -1.01,-0.15 -1.08,-0.1 -0.07,0.06 -0.07,0.44 -0.07,3.27 0,1.76 -0.02,3.43 -0.05,3.71 -0.04,0.36 -0.09,0.59 -0.18,0.78 -0.1,0.2 -0.18,0.3 -0.37,0.4 -0.21,0.13 -0.28,0.14 -0.67,0.14 -0.24,0 -0.56,-0.05 -0.73,-0.09 -0.17,-0.05 -0.42,-0.15 -0.55,-0.23 -0.16,-0.08 -0.31,-0.23 -0.42,-0.39 -0.09,-0.14 -0.21,-0.39 -0.26,-0.56 -0.08,-0.27 -0.09,-0.69 -0.11,-3.92 -0.03,-3.55 -0.03,-3.63 -0.13,-3.7 -0.06,-0.04 -0.5,-0.13 -0.99,-0.2 -0.49,-0.08 -0.96,-0.14 -1.05,-0.14 -0.11,0 -0.18,0.04 -0.23,0.11 z M 31.1,11.12 c -0.08,0.01 -0.32,0.04 -0.53,0.07 -0.21,0.03 -0.54,0.1 -0.73,0.15 -0.2,0.05 -0.53,0.16 -0.74,0.25 -0.21,0.08 -0.53,0.25 -0.71,0.37 -0.18,0.12 -0.45,0.32 -0.6,0.45 -0.15,0.12 -0.39,0.39 -0.54,0.59 -0.15,0.19 -0.35,0.51 -0.44,0.71 -0.1,0.19 -0.24,0.54 -0.31,0.76 -0.07,0.22 -0.16,0.58 -0.19,0.79 -0.05,0.28 -0.07,0.84 -0.07,2.06 0.01,1.51 0.02,1.73 0.11,2.19 0.07,0.33 0.19,0.66 0.34,0.96 0.16,0.33 0.31,0.55 0.52,0.76 0.16,0.16 0.43,0.37 0.6,0.47 0.17,0.09 0.49,0.22 0.71,0.28 0.3,0.08 0.55,0.1 0.99,0.1 0.32,0 0.79,-0.04 1.04,-0.08 0.25,-0.04 0.72,-0.15 1.04,-0.24 0.32,-0.08 0.7,-0.21 0.86,-0.29 0.16,-0.07 0.3,-0.19 0.34,-0.26 0.04,-0.08 0.06,-0.37 0.06,-0.8 0,-0.37 -0.02,-0.73 -0.04,-0.79 -0.02,-0.06 -0.07,-0.13 -0.11,-0.15 -0.04,-0.02 -0.41,0.05 -0.81,0.14 -0.4,0.1 -0.99,0.21 -1.29,0.26 -0.49,0.08 -0.6,0.08 -0.86,0.02 -0.23,-0.05 -0.36,-0.12 -0.5,-0.25 -0.11,-0.1 -0.24,-0.27 -0.3,-0.37 -0.05,-0.11 -0.13,-0.34 -0.17,-0.51 -0.05,-0.25 -0.07,-0.68 -0.07,-1.9 0,-1.38 0.01,-1.62 0.09,-1.96 0.05,-0.21 0.15,-0.48 0.2,-0.59 0.06,-0.12 0.19,-0.3 0.28,-0.41 0.09,-0.1 0.28,-0.25 0.42,-0.33 0.13,-0.07 0.41,-0.18 0.6,-0.22 0.2,-0.04 0.81,-0.12 1.37,-0.17 0.77,-0.08 1.03,-0.12 1.09,-0.18 0.06,-0.06 0.08,-0.25 0.1,-0.76 0,-0.37 0,-0.74 -0.02,-0.83 -0.02,-0.1 -0.07,-0.19 -0.14,-0.23 -0.07,-0.04 -0.38,-0.07 -0.77,-0.07 -0.37,-0.01 -0.73,0 -0.82,0.01 z m 95.64,1.28 c -0.04,0.09 -0.05,0.39 -0.04,0.89 0.02,0.66 0.04,0.76 0.13,0.85 0.08,0.08 0.36,0.15 1.28,0.32 l 1.18,0.21 c 0,7.34 0.01,8.3 0.06,8.4 0.03,0.07 0.12,0.15 0.19,0.17 0.07,0.03 0.5,0.12 0.96,0.21 0.46,0.09 0.9,0.16 0.97,0.16 0.07,0 0.15,-0.04 0.19,-0.09 0.05,-0.08 0.06,-0.98 0.06,-4.23 0,-3.9 0,-4.13 0.09,-4.13 0.05,0 0.57,0.1 1.15,0.22 0.64,0.13 1.11,0.21 1.17,0.19 0.09,-0.04 0.1,-0.09 0.11,-0.91 0.01,-0.78 0,-0.89 -0.07,-0.97 -0.06,-0.06 -0.36,-0.14 -0.88,-0.25 -0.43,-0.09 -1.99,-0.4 -3.47,-0.68 -1.48,-0.27 -2.76,-0.5 -2.85,-0.5 -0.14,0 -0.18,0.03 -0.23,0.14 z M 23.8,12.47 c -0.3,0.02 -0.87,0.09 -1.26,0.15 -0.39,0.06 -0.94,0.16 -1.22,0.22 -0.28,0.07 -0.69,0.19 -0.91,0.28 -0.23,0.09 -0.52,0.24 -0.66,0.33 -0.14,0.09 -0.35,0.24 -0.45,0.34 -0.11,0.09 -0.3,0.31 -0.43,0.48 -0.12,0.17 -0.26,0.43 -0.32,0.58 -0.06,0.16 -0.14,0.41 -0.19,0.56 -0.06,0.24 -0.08,0.88 -0.09,4.38 -0.02,3.9 -0.02,4.1 0.07,4.18 0.09,0.09 0.13,0.09 1.08,-0.1 0.74,-0.14 1.03,-0.22 1.11,-0.29 0.11,-0.11 0.11,-0.11 0.11,-2.23 0,-1.17 0.01,-2.13 0.03,-2.14 0.02,-0.02 0.79,-0.16 1.71,-0.33 0.92,-0.17 1.76,-0.34 1.87,-0.36 0.1,-0.03 0.22,-0.11 0.26,-0.17 0.06,-0.09 0.08,-0.28 0.08,-0.87 0,-0.59 -0.02,-0.76 -0.08,-0.82 -0.04,-0.04 -0.09,-0.08 -0.11,-0.08 -0.02,0 -0.65,0.11 -1.41,0.25 -0.75,0.14 -1.58,0.3 -1.84,0.36 -0.44,0.1 -0.47,0.1 -0.5,0.01 -0.02,-0.04 -0.02,-0.44 -0.01,-0.87 0.02,-0.58 0.05,-0.83 0.11,-0.94 0.04,-0.09 0.15,-0.22 0.23,-0.3 0.09,-0.07 0.25,-0.16 0.35,-0.18 0.11,-0.03 0.85,-0.17 1.66,-0.32 1.2,-0.21 1.49,-0.28 1.59,-0.37 0.11,-0.1 0.11,-0.14 0.11,-0.87 0,-0.42 -0.02,-0.79 -0.04,-0.82 -0.02,-0.03 -0.09,-0.07 -0.16,-0.08 -0.07,-0.02 -0.38,-0.01 -0.69,0.02 z m 111.85,1.55 c -0.02,0.02 -0.04,2.35 -0.04,5.18 0.01,4.86 0.02,5.14 0.1,5.22 0.06,0.06 0.46,0.17 1.05,0.3 0.53,0.11 0.99,0.2 1.03,0.2 0.03,0 0.09,-0.03 0.14,-0.07 0.07,-0.07 0.08,-0.33 0.08,-2.16 V 20.6 c 0.17,0.04 0.94,0.21 1.81,0.41 0.87,0.19 1.6,0.35 1.61,0.35 0.01,0 0.02,0.96 0.02,2.13 v 2.12 c 0.2,0.18 0.51,0.28 1.15,0.42 0.5,0.12 0.95,0.22 1.01,0.22 0.06,0 0.13,-0.03 0.17,-0.07 0.04,-0.05 0.06,-1.22 0.06,-5.15 0,-5.03 0,-5.09 -0.1,-5.2 -0.08,-0.08 -0.24,-0.14 -0.6,-0.22 -0.27,-0.06 -0.72,-0.16 -1,-0.23 -0.35,-0.08 -0.54,-0.1 -0.6,-0.07 -0.08,0.05 -0.09,0.2 -0.09,1.98 0,1.52 -0.01,1.94 -0.06,1.94 -0.03,-0.01 -0.8,-0.17 -1.71,-0.38 l -1.65,-0.37 c -0.04,-3.62 -0.06,-3.94 -0.12,-4.01 -0.05,-0.04 -0.49,-0.16 -1.01,-0.28 -0.5,-0.11 -0.99,-0.2 -1.06,-0.2 -0.08,0 -0.17,0.01 -0.19,0.03 z M 13.16,14.53 c -0.09,0.01 -0.31,0.05 -0.5,0.1 -0.19,0.04 -0.49,0.13 -0.68,0.2 -0.19,0.07 -0.46,0.21 -0.6,0.3 -0.14,0.09 -0.34,0.27 -0.45,0.39 -0.11,0.12 -0.28,0.38 -0.37,0.58 -0.13,0.29 -0.36,1.25 -1.23,5.12 -0.59,2.63 -1.07,4.83 -1.07,4.9 0,0.07 0.03,0.14 0.07,0.15 0.03,0.01 0.53,-0.09 1.1,-0.22 0.58,-0.13 1.08,-0.27 1.13,-0.31 0.05,-0.04 0.11,-0.15 0.14,-0.23 0.02,-0.09 0.15,-0.67 0.28,-1.3 0.13,-0.63 0.24,-1.15 0.24,-1.16 0.01,0 0.65,-0.15 1.43,-0.33 0.78,-0.18 1.42,-0.32 1.43,-0.32 0,0 0.12,0.52 0.27,1.15 0.14,0.63 0.28,1.18 0.32,1.21 0.05,0.06 0.24,0.03 1.14,-0.15 0.6,-0.12 1.12,-0.24 1.16,-0.27 0.04,-0.03 0.08,-0.12 0.08,-0.2 0,-0.09 -0.47,-2.05 -1.05,-4.35 -0.72,-2.89 -1.09,-4.3 -1.2,-4.52 -0.08,-0.17 -0.22,-0.38 -0.32,-0.46 -0.09,-0.07 -0.27,-0.17 -0.39,-0.21 -0.12,-0.03 -0.35,-0.07 -0.5,-0.08 -0.16,-0.01 -0.35,0 -0.43,0.01 z"
       fill="#a8996e"
       id="path6" />
    <path
       d="m 69.13,0.09 c 0.08,0.01 0.24,0.01 0.35,0 0.12,-0.01 0.05,-0.02 -0.15,-0.02 -0.19,0 -0.28,0.01 -0.2,0.02 z m 13.39,0 c 0.08,0.01 0.24,0.01 0.35,0 0.11,-0.01 0.04,-0.02 -0.15,-0.02 -0.2,0 -0.29,0.01 -0.2,0.02 z m -12.3,7.57 c -0.13,0.01 -0.58,0.06 -1.01,0.1 -0.44,0.04 -0.89,0.1 -1.02,0.13 -0.12,0.03 -0.29,0.09 -0.37,0.13 -0.07,0.04 -0.16,0.12 -0.2,0.18 -0.05,0.09 -0.07,1.22 -0.08,5.02 -0.01,4.89 -0.01,4.91 0.09,5.05 l 0.11,0.14 c 2.02,-0.06 2.05,-0.06 2.16,-0.18 0.12,-0.12 0.12,-0.12 0.12,-1.95 v -1.83 h 1.14 c 1.49,2.81 1.97,3.68 2.03,3.74 l 0.1,0.13 c 2.38,-0.08 2.43,-0.09 2.45,-0.19 0.01,-0.06 -0.46,-0.97 -1.09,-2.13 -0.6,-1.12 -1.07,-2.04 -1.05,-2.05 0.02,-0.01 0.18,-0.1 0.36,-0.2 0.17,-0.11 0.42,-0.3 0.55,-0.42 0.13,-0.13 0.33,-0.37 0.44,-0.54 0.11,-0.17 0.24,-0.46 0.3,-0.66 0.1,-0.3 0.12,-0.47 0.12,-1.09 0,-0.45 -0.03,-0.85 -0.07,-1.02 C 75.26,9.87 75.15,9.57 75.06,9.37 74.94,9.12 74.79,8.91 74.57,8.68 74.35,8.46 74.12,8.3 73.82,8.15 73.58,8.03 73.22,7.89 73.01,7.84 72.8,7.78 72.41,7.72 72.13,7.69 71.86,7.65 71.37,7.63 71.04,7.64 c -0.32,0 -0.69,0.02 -0.82,0.02 z m 7.2,0.21 c -0.09,0.09 -0.15,0.22 -0.17,0.37 -0.02,0.13 -0.03,2.4 -0.02,5.05 0.01,4.54 0.02,4.82 0.1,4.91 0.08,0.07 0.21,0.09 1.02,0.1 0.76,0.01 0.94,0 1.03,-0.06 l 0.12,-0.08 c 0.02,-4.92 0.04,-5.98 0.07,-5.99 0.03,-0.01 0.28,0.37 0.54,0.84 0.27,0.47 1.03,1.79 1.69,2.94 0.66,1.14 1.24,2.12 1.29,2.18 0.05,0.05 0.15,0.12 0.22,0.16 0.1,0.05 0.43,0.08 0.99,0.11 0.69,0.02 0.89,0.02 1.02,-0.04 0.1,-0.04 0.21,-0.14 0.24,-0.21 0.06,-0.12 0.07,-1.02 0.07,-5.12 0,-3.11 -0.02,-5 -0.05,-5.04 -0.02,-0.05 -0.16,-0.1 -0.29,-0.12 -0.13,-0.01 -0.58,-0.03 -1,-0.04 -0.56,0 -0.78,0.02 -0.82,0.06 -0.05,0.05 -0.07,0.83 -0.08,3.17 -0.01,2.42 -0.03,3.11 -0.08,3.11 -0.03,0 -0.83,-1.35 -1.77,-3.01 C 80.59,9.51 79.78,8.1 79.72,8.02 79.67,7.94 79.56,7.84 79.49,7.8 79.38,7.75 79.11,7.73 78.46,7.73 h -0.9 z M 63.79,7.98 c -0.39,0.03 -0.49,0.05 -0.55,0.13 -0.06,0.09 -0.07,0.64 -0.07,3.56 0,2.9 -0.01,3.52 -0.08,3.82 -0.04,0.19 -0.12,0.44 -0.18,0.56 -0.07,0.11 -0.21,0.27 -0.32,0.36 -0.14,0.11 -0.33,0.18 -0.61,0.25 -0.28,0.06 -0.52,0.08 -0.78,0.06 -0.21,-0.01 -0.48,-0.06 -0.59,-0.11 -0.11,-0.05 -0.25,-0.13 -0.32,-0.2 -0.06,-0.06 -0.15,-0.18 -0.2,-0.26 -0.04,-0.08 -0.11,-0.28 -0.15,-0.43 -0.06,-0.23 -0.08,-1.01 -0.1,-3.84 -0.02,-3 -0.03,-3.58 -0.1,-3.64 -0.06,-0.07 -0.19,-0.07 -1.07,-0.01 -0.8,0.05 -1.02,0.09 -1.12,0.16 l -0.13,0.09 c -0.03,5.52 -0.01,6.87 0.02,7.19 0.03,0.26 0.09,0.62 0.14,0.78 0.04,0.17 0.15,0.48 0.25,0.68 0.11,0.23 0.29,0.49 0.47,0.69 0.18,0.19 0.43,0.38 0.65,0.5 0.19,0.1 0.53,0.24 0.75,0.31 0.37,0.1 0.51,0.11 1.44,0.11 0.67,0 1.15,-0.02 1.35,-0.06 0.17,-0.04 0.47,-0.13 0.68,-0.19 0.21,-0.07 0.51,-0.2 0.68,-0.29 0.16,-0.09 0.38,-0.25 0.5,-0.34 0.12,-0.1 0.31,-0.29 0.43,-0.43 0.12,-0.15 0.3,-0.42 0.39,-0.62 0.1,-0.2 0.23,-0.54 0.28,-0.76 0.06,-0.23 0.13,-0.7 0.16,-1.04 0.02,-0.35 0.04,-2.03 0.04,-3.72 0.01,-2.38 -0.01,-3.1 -0.06,-3.2 -0.06,-0.13 -0.07,-0.13 -0.69,-0.13 -0.35,-0.01 -0.85,0 -1.11,0.02 z m 25.75,0.08 c -0.18,0.03 -0.49,0.14 -0.68,0.24 -0.21,0.1 -0.44,0.27 -0.59,0.42 -0.13,0.14 -0.3,0.37 -0.37,0.51 -0.07,0.14 -0.17,0.41 -0.22,0.59 -0.09,0.3 -0.09,0.56 -0.09,3.35 0,2.7 0,3.07 0.08,3.41 0.05,0.21 0.17,0.53 0.26,0.71 0.09,0.19 0.28,0.45 0.41,0.59 0.14,0.14 0.42,0.34 0.61,0.44 0.2,0.1 0.54,0.23 0.76,0.29 0.23,0.06 0.68,0.13 1.02,0.16 0.33,0.03 1.17,0.05 1.85,0.04 1.08,-0.01 1.26,-0.03 1.38,-0.1 l 0.14,-0.09 c 0,-1.49 -0.01,-1.54 -0.11,-1.65 -0.11,-0.11 -0.17,-0.12 -1.28,-0.18 -0.65,-0.04 -1.4,-0.08 -1.68,-0.1 -0.28,-0.02 -0.57,-0.07 -0.66,-0.11 -0.08,-0.04 -0.19,-0.16 -0.25,-0.28 -0.09,-0.18 -0.1,-0.32 -0.11,-1.16 l -0.02,-0.95 c 0.65,0.04 1.31,0.08 1.88,0.1 0.57,0.03 1.23,0.07 1.47,0.09 0.4,0.03 0.44,0.02 0.54,-0.08 0.11,-0.1 0.12,-0.15 0.12,-0.85 0,-0.69 -0.01,-0.74 -0.12,-0.86 l -0.11,-0.13 c -2.87,-0.16 -3.72,-0.2 -3.74,-0.2 -0.02,0 -0.03,-0.38 -0.02,-0.85 0.01,-0.69 0.03,-0.89 0.1,-1.02 0.05,-0.1 0.16,-0.2 0.28,-0.25 0.16,-0.07 0.3,-0.08 0.9,-0.05 0.39,0.02 1.13,0.06 1.65,0.1 0.92,0.06 0.95,0.06 1.06,-0.04 0.1,-0.1 0.1,-0.16 0.1,-0.87 C 94.1,8.62 94.09,8.51 94.01,8.43 93.96,8.39 93.75,8.31 93.54,8.27 93.33,8.22 92.91,8.15 92.6,8.11 92.3,8.07 91.56,8.02 90.96,8.01 c -0.79,-0.02 -1.18,0 -1.42,0.05 z m 6.6,0.37 -0.26,0.26 c -0.01,9.17 0,10.17 0.06,10.22 0.03,0.03 0.38,0.08 0.82,0.11 0.42,0.03 0.89,0.07 1.04,0.08 0.2,0.02 0.3,0.01 0.35,-0.04 0.05,-0.05 0.06,-0.68 0.06,-3.13 0,-1.68 0.01,-3.07 0.03,-3.09 0.03,-0.01 0.08,0.02 0.12,0.07 0.05,0.05 0.36,0.62 0.71,1.28 0.34,0.66 0.67,1.25 0.74,1.32 0.11,0.12 0.18,0.14 0.82,0.19 0.38,0.03 0.75,0.04 0.82,0.02 0.07,-0.01 0.15,-0.07 0.19,-0.13 0.04,-0.06 0.36,-0.6 0.72,-1.22 0.35,-0.61 0.67,-1.12 0.7,-1.13 0.05,-0.01 0.06,0.62 0.06,3.05 0,2.87 0.01,3.07 0.09,3.17 0.08,0.1 0.19,0.12 1.03,0.2 0.52,0.05 1,0.09 1.06,0.09 0.07,-0.01 0.15,-0.04 0.17,-0.07 0.02,-0.04 0.04,-2.3 0.04,-5.02 0,-4.06 -0.01,-4.97 -0.07,-5.11 -0.04,-0.09 -0.11,-0.21 -0.17,-0.25 -0.06,-0.07 -0.27,-0.12 -0.7,-0.17 -0.33,-0.04 -0.75,-0.07 -0.93,-0.07 -0.27,-0.01 -0.33,0.01 -0.47,0.13 -0.08,0.08 -0.66,1.05 -1.28,2.15 -0.64,1.14 -1.16,2.01 -1.2,2.01 -0.05,0 -0.55,-0.92 -1.23,-2.24 C 98.83,9.88 98.24,8.81 98.17,8.73 98.06,8.63 97.95,8.58 97.73,8.55 97.56,8.52 97.13,8.49 96.78,8.47 Z M 51.33,8.65 c -0.19,0.02 -0.54,0.09 -0.78,0.15 -0.24,0.06 -0.59,0.18 -0.79,0.27 -0.19,0.09 -0.47,0.25 -0.61,0.34 -0.14,0.1 -0.37,0.29 -0.52,0.43 -0.15,0.14 -0.35,0.36 -0.44,0.49 -0.09,0.12 -0.25,0.38 -0.34,0.58 -0.1,0.2 -0.23,0.51 -0.29,0.69 -0.05,0.18 -0.14,0.53 -0.18,0.79 -0.06,0.34 -0.08,0.84 -0.08,2 0,1.19 0.02,1.67 0.08,2.04 0.05,0.27 0.16,0.68 0.25,0.91 0.09,0.24 0.24,0.56 0.34,0.72 0.1,0.15 0.32,0.4 0.48,0.56 0.17,0.15 0.47,0.36 0.68,0.46 0.21,0.11 0.52,0.23 0.68,0.27 0.17,0.04 0.51,0.09 0.76,0.11 0.26,0.02 0.7,0.01 0.99,-0.02 0.3,-0.03 0.72,-0.11 0.94,-0.16 0.22,-0.06 0.64,-0.22 0.94,-0.37 0.37,-0.19 0.63,-0.36 0.88,-0.6 0.19,-0.18 0.44,-0.47 0.56,-0.63 0.11,-0.17 0.27,-0.47 0.36,-0.67 0.09,-0.19 0.21,-0.53 0.27,-0.76 0.06,-0.22 0.13,-0.6 0.16,-0.84 0.03,-0.24 0.05,-0.95 0.05,-1.57 0,-0.63 -0.03,-1.4 -0.06,-1.71 -0.03,-0.31 -0.11,-0.75 -0.17,-0.98 -0.07,-0.23 -0.2,-0.56 -0.28,-0.74 C 55.12,10.24 54.95,9.97 54.84,9.83 54.72,9.68 54.49,9.45 54.33,9.32 54.16,9.2 53.94,9.05 53.84,9 53.75,8.95 53.51,8.86 53.31,8.81 53.12,8.75 52.76,8.68 52.53,8.65 52.29,8.62 52,8.6 51.89,8.6 51.78,8.61 51.53,8.63 51.33,8.65 Z m -9.65,1 c -0.1,0.01 -0.5,0.06 -0.89,0.12 -0.39,0.06 -1.02,0.17 -1.4,0.25 -0.37,0.09 -0.77,0.21 -0.88,0.27 -0.11,0.06 -0.25,0.19 -0.32,0.29 l -0.12,0.18 c 0,7.7 0.02,9.42 0.06,9.52 0.03,0.11 0.11,0.2 0.21,0.25 0.09,0.05 0.34,0.09 0.55,0.11 0.21,0.01 0.73,0 1.16,-0.04 0.44,-0.03 1.06,-0.09 1.4,-0.13 0.33,-0.03 0.81,-0.11 1.06,-0.17 0.25,-0.05 0.66,-0.17 0.91,-0.26 0.26,-0.09 0.55,-0.21 0.66,-0.27 0.12,-0.05 0.34,-0.19 0.51,-0.31 0.17,-0.12 0.42,-0.34 0.55,-0.49 0.14,-0.15 0.32,-0.43 0.41,-0.61 0.1,-0.18 0.21,-0.49 0.26,-0.68 0.06,-0.28 0.08,-0.51 0.06,-1.02 C 45.86,16.14 45.83,15.93 45.74,15.72 45.69,15.56 45.53,15.31 45.39,15.16 45.25,15 45.03,14.82 44.91,14.75 l -0.23,-0.13 c 0.58,-0.54 0.7,-0.7 0.86,-1.01 0.1,-0.23 0.22,-0.54 0.24,-0.69 0.03,-0.15 0.05,-0.46 0.05,-0.69 0,-0.22 -0.03,-0.56 -0.07,-0.76 -0.05,-0.2 -0.13,-0.46 -0.19,-0.58 C 45.5,10.77 45.35,10.55 45.22,10.41 45.08,10.25 44.87,10.1 44.64,9.99 44.45,9.9 44.15,9.78 43.98,9.74 43.77,9.68 43.41,9.65 42.77,9.64 42.26,9.63 41.77,9.63 41.68,9.65 Z m 68.26,0.14 c -0.19,0.04 -0.49,0.12 -0.66,0.18 -0.16,0.06 -0.41,0.19 -0.55,0.28 -0.14,0.09 -0.39,0.31 -0.55,0.48 -0.18,0.19 -0.36,0.46 -0.49,0.73 -0.11,0.23 -0.26,0.6 -0.32,0.82 -0.1,0.38 -0.11,0.56 -0.13,2.17 -0.01,1.43 0,1.84 0.07,2.26 0.04,0.28 0.14,0.69 0.22,0.91 0.07,0.23 0.24,0.59 0.36,0.81 0.13,0.22 0.35,0.54 0.51,0.71 0.15,0.17 0.41,0.4 0.58,0.52 0.17,0.12 0.45,0.29 0.63,0.38 0.19,0.09 0.49,0.22 0.69,0.29 0.19,0.06 0.56,0.16 0.81,0.2 0.25,0.04 0.73,0.08 1.06,0.08 0.45,0 0.72,-0.03 0.99,-0.1 0.21,-0.06 0.52,-0.17 0.69,-0.25 0.2,-0.09 0.43,-0.27 0.71,-0.55 0.27,-0.27 0.45,-0.51 0.55,-0.71 0.08,-0.17 0.19,-0.42 0.23,-0.56 0.05,-0.14 0.13,-0.48 0.18,-0.76 0.07,-0.44 0.08,-0.76 0.06,-2.17 -0.02,-1.41 -0.04,-1.72 -0.12,-2.11 -0.06,-0.25 -0.17,-0.64 -0.26,-0.86 -0.09,-0.23 -0.25,-0.56 -0.37,-0.74 -0.12,-0.18 -0.29,-0.43 -0.39,-0.55 -0.1,-0.12 -0.35,-0.35 -0.54,-0.5 -0.2,-0.16 -0.56,-0.38 -0.81,-0.5 -0.25,-0.12 -0.64,-0.27 -0.86,-0.33 -0.23,-0.06 -0.6,-0.13 -0.84,-0.15 -0.24,-0.03 -0.58,-0.05 -0.76,-0.05 -0.18,0 -0.49,0.03 -0.69,0.07 z m 7.37,1.05 c -0.04,0.08 -0.05,0.94 -0.03,3.7 0.02,3.39 0.03,3.62 0.13,4.05 0.06,0.25 0.16,0.62 0.24,0.81 0.07,0.2 0.18,0.44 0.24,0.54 0.06,0.1 0.2,0.3 0.32,0.45 0.11,0.14 0.36,0.39 0.56,0.55 0.19,0.16 0.56,0.39 0.81,0.51 0.25,0.12 0.67,0.27 0.94,0.34 0.26,0.07 0.71,0.16 1,0.21 0.28,0.04 0.7,0.08 0.92,0.08 0.22,0 0.58,-0.04 0.8,-0.08 0.22,-0.05 0.54,-0.15 0.71,-0.23 0.17,-0.09 0.44,-0.26 0.58,-0.4 0.15,-0.14 0.34,-0.38 0.43,-0.55 0.09,-0.16 0.2,-0.41 0.24,-0.55 0.05,-0.14 0.12,-0.45 0.16,-0.69 0.06,-0.34 0.07,-1.17 0.07,-3.95 v -3.52 c -0.19,-0.15 -0.56,-0.24 -1.23,-0.35 -0.81,-0.13 -1.01,-0.15 -1.08,-0.1 -0.07,0.06 -0.07,0.44 -0.07,3.27 0,1.76 -0.02,3.43 -0.05,3.71 -0.04,0.36 -0.09,0.59 -0.18,0.78 -0.1,0.2 -0.18,0.3 -0.37,0.4 -0.21,0.13 -0.28,0.14 -0.67,0.14 -0.24,0 -0.56,-0.05 -0.73,-0.09 -0.17,-0.05 -0.42,-0.15 -0.55,-0.23 -0.16,-0.08 -0.31,-0.23 -0.42,-0.39 -0.09,-0.14 -0.21,-0.39 -0.26,-0.56 -0.08,-0.27 -0.09,-0.69 -0.11,-3.92 -0.03,-3.55 -0.03,-3.63 -0.13,-3.7 -0.06,-0.04 -0.5,-0.13 -0.99,-0.2 -0.49,-0.08 -0.96,-0.14 -1.05,-0.14 -0.11,0 -0.18,0.04 -0.23,0.11 z M 31.1,11.12 c -0.08,0.01 -0.32,0.04 -0.53,0.07 -0.21,0.03 -0.54,0.1 -0.73,0.15 -0.2,0.05 -0.53,0.16 -0.74,0.25 -0.21,0.08 -0.53,0.25 -0.71,0.37 -0.18,0.12 -0.45,0.32 -0.6,0.45 -0.15,0.12 -0.39,0.39 -0.54,0.59 -0.15,0.19 -0.35,0.51 -0.44,0.71 -0.1,0.19 -0.24,0.54 -0.31,0.76 -0.07,0.22 -0.16,0.58 -0.19,0.79 -0.05,0.28 -0.07,0.84 -0.07,2.06 0.01,1.51 0.02,1.73 0.11,2.19 0.07,0.33 0.19,0.66 0.34,0.96 0.16,0.33 0.31,0.55 0.52,0.76 0.16,0.16 0.43,0.37 0.6,0.47 0.17,0.09 0.49,0.22 0.71,0.28 0.3,0.08 0.55,0.1 0.99,0.1 0.32,0 0.79,-0.04 1.04,-0.08 0.25,-0.04 0.72,-0.15 1.04,-0.24 0.32,-0.08 0.7,-0.21 0.86,-0.29 0.16,-0.07 0.3,-0.19 0.34,-0.26 0.04,-0.08 0.06,-0.37 0.06,-0.8 0,-0.37 -0.02,-0.73 -0.04,-0.79 -0.02,-0.06 -0.07,-0.13 -0.11,-0.15 -0.04,-0.02 -0.41,0.05 -0.81,0.14 -0.4,0.1 -0.99,0.21 -1.29,0.26 -0.49,0.08 -0.6,0.08 -0.86,0.02 -0.23,-0.05 -0.36,-0.12 -0.5,-0.25 -0.11,-0.1 -0.24,-0.27 -0.3,-0.37 -0.05,-0.11 -0.13,-0.34 -0.17,-0.51 -0.05,-0.25 -0.07,-0.68 -0.07,-1.9 0,-1.38 0.01,-1.62 0.09,-1.96 0.05,-0.21 0.15,-0.48 0.2,-0.59 0.06,-0.12 0.19,-0.3 0.28,-0.41 0.09,-0.1 0.28,-0.25 0.42,-0.33 0.13,-0.07 0.41,-0.18 0.6,-0.22 0.2,-0.04 0.81,-0.12 1.37,-0.17 0.77,-0.08 1.03,-0.12 1.09,-0.18 0.06,-0.06 0.08,-0.25 0.1,-0.76 0,-0.37 0,-0.74 -0.02,-0.83 -0.02,-0.1 -0.07,-0.19 -0.14,-0.23 -0.07,-0.04 -0.38,-0.07 -0.77,-0.07 -0.37,-0.01 -0.73,0 -0.82,0.01 z m 95.64,1.28 c -0.04,0.09 -0.05,0.39 -0.04,0.89 0.02,0.66 0.04,0.76 0.13,0.85 0.08,0.08 0.36,0.15 1.28,0.32 l 1.18,0.21 c 0,7.34 0.01,8.3 0.06,8.4 0.03,0.07 0.12,0.15 0.19,0.17 0.07,0.03 0.5,0.12 0.96,0.21 0.46,0.09 0.9,0.16 0.97,0.16 0.07,0 0.15,-0.04 0.19,-0.09 0.05,-0.08 0.06,-0.98 0.06,-4.23 0,-3.9 0,-4.13 0.09,-4.13 0.05,0 0.57,0.1 1.15,0.22 0.64,0.13 1.11,0.21 1.17,0.19 0.09,-0.04 0.1,-0.09 0.11,-0.91 0.01,-0.78 0,-0.89 -0.07,-0.97 -0.06,-0.06 -0.36,-0.14 -0.88,-0.25 -0.43,-0.09 -1.99,-0.4 -3.47,-0.68 -1.48,-0.27 -2.76,-0.5 -2.85,-0.5 -0.14,0 -0.18,0.03 -0.23,0.14 z M 23.8,12.47 c -0.3,0.02 -0.87,0.09 -1.26,0.15 -0.39,0.06 -0.94,0.16 -1.22,0.22 -0.28,0.07 -0.69,0.19 -0.91,0.28 -0.23,0.09 -0.52,0.24 -0.66,0.33 -0.14,0.09 -0.35,0.24 -0.45,0.34 -0.11,0.09 -0.3,0.31 -0.43,0.48 -0.12,0.17 -0.26,0.43 -0.32,0.58 -0.06,0.16 -0.14,0.41 -0.19,0.56 -0.06,0.24 -0.08,0.88 -0.09,4.38 -0.02,3.9 -0.02,4.1 0.07,4.18 0.09,0.09 0.13,0.09 1.08,-0.1 0.74,-0.14 1.03,-0.22 1.11,-0.29 0.11,-0.11 0.11,-0.11 0.11,-2.23 0,-1.17 0.01,-2.13 0.03,-2.14 0.02,-0.02 0.79,-0.16 1.71,-0.33 0.92,-0.17 1.76,-0.34 1.87,-0.36 0.1,-0.03 0.22,-0.11 0.26,-0.17 0.06,-0.09 0.08,-0.28 0.08,-0.87 0,-0.59 -0.02,-0.76 -0.08,-0.82 -0.04,-0.04 -0.09,-0.08 -0.11,-0.08 -0.02,0 -0.65,0.11 -1.41,0.25 -0.75,0.14 -1.58,0.3 -1.84,0.36 -0.44,0.1 -0.47,0.1 -0.5,0.01 -0.02,-0.04 -0.02,-0.44 -0.01,-0.87 0.02,-0.58 0.05,-0.83 0.11,-0.94 0.04,-0.09 0.15,-0.22 0.23,-0.3 0.09,-0.07 0.25,-0.16 0.35,-0.18 0.11,-0.03 0.85,-0.17 1.66,-0.32 1.2,-0.21 1.49,-0.28 1.59,-0.37 0.11,-0.1 0.11,-0.14 0.11,-0.87 0,-0.42 -0.02,-0.79 -0.04,-0.82 -0.02,-0.03 -0.09,-0.07 -0.16,-0.08 -0.07,-0.02 -0.38,-0.01 -0.69,0.02 z m 111.85,1.55 c -0.02,0.02 -0.04,2.35 -0.04,5.18 0.01,4.86 0.02,5.14 0.1,5.22 0.06,0.06 0.46,0.17 1.05,0.3 0.53,0.11 0.99,0.2 1.03,0.2 0.03,0 0.09,-0.03 0.14,-0.07 0.07,-0.07 0.08,-0.33 0.08,-2.16 V 20.6 c 0.17,0.04 0.94,0.21 1.81,0.41 0.87,0.19 1.6,0.35 1.61,0.35 0.01,0 0.02,0.96 0.02,2.13 v 2.12 c 0.2,0.18 0.51,0.28 1.15,0.42 0.5,0.12 0.95,0.22 1.01,0.22 0.06,0 0.13,-0.03 0.17,-0.07 0.04,-0.05 0.06,-1.22 0.06,-5.15 0,-5.03 0,-5.09 -0.1,-5.2 -0.08,-0.08 -0.24,-0.14 -0.6,-0.22 -0.27,-0.06 -0.72,-0.16 -1,-0.23 -0.35,-0.08 -0.54,-0.1 -0.6,-0.07 -0.08,0.05 -0.09,0.2 -0.09,1.98 0,1.52 -0.01,1.94 -0.06,1.94 -0.03,-0.01 -0.8,-0.17 -1.71,-0.38 l -1.65,-0.37 c -0.04,-3.62 -0.06,-3.94 -0.12,-4.01 -0.05,-0.04 -0.49,-0.16 -1.01,-0.28 -0.5,-0.11 -0.99,-0.2 -1.06,-0.2 -0.08,0 -0.17,0.01 -0.19,0.03 z M 13.16,14.53 c -0.09,0.01 -0.31,0.05 -0.5,0.1 -0.19,0.04 -0.49,0.13 -0.68,0.2 -0.19,0.07 -0.46,0.21 -0.6,0.3 -0.14,0.09 -0.34,0.27 -0.45,0.39 -0.11,0.12 -0.28,0.38 -0.37,0.58 -0.13,0.29 -0.36,1.25 -1.23,5.12 -0.59,2.63 -1.07,4.83 -1.07,4.9 0,0.07 0.03,0.14 0.07,0.15 0.03,0.01 0.53,-0.09 1.1,-0.22 0.58,-0.13 1.08,-0.27 1.13,-0.31 0.05,-0.04 0.11,-0.15 0.14,-0.23 0.02,-0.09 0.15,-0.67 0.28,-1.3 0.13,-0.63 0.24,-1.15 0.24,-1.16 0.01,0 0.65,-0.15 1.43,-0.33 0.78,-0.18 1.42,-0.32 1.43,-0.32 0,0 0.12,0.52 0.27,1.15 0.14,0.63 0.28,1.18 0.32,1.21 0.05,0.06 0.24,0.03 1.14,-0.15 0.6,-0.12 1.12,-0.24 1.16,-0.27 0.04,-0.03 0.08,-0.12 0.08,-0.2 0,-0.09 -0.47,-2.05 -1.05,-4.35 -0.72,-2.89 -1.09,-4.3 -1.2,-4.52 -0.08,-0.17 -0.22,-0.38 -0.32,-0.46 -0.09,-0.07 -0.27,-0.17 -0.39,-0.21 -0.12,-0.03 -0.35,-0.07 -0.5,-0.08 -0.16,-0.01 -0.35,0 -0.43,0.01 z"
       fill="url(#a)"
       id="path7"
       style="fill:url(#a)" />
    <path
       d="m 41.3,15.83 -0.82,0.12 -0.02,2.64 c 0.96,-0.1 1.42,-0.16 1.65,-0.21 0.22,-0.04 0.52,-0.13 0.66,-0.2 0.14,-0.06 0.34,-0.2 0.44,-0.31 0.12,-0.12 0.22,-0.29 0.27,-0.45 0.04,-0.14 0.07,-0.34 0.07,-0.44 0,-0.11 -0.03,-0.31 -0.06,-0.46 -0.03,-0.15 -0.12,-0.33 -0.19,-0.42 -0.07,-0.08 -0.22,-0.19 -0.33,-0.24 -0.12,-0.06 -0.34,-0.11 -0.53,-0.12 -0.18,-0.01 -0.7,0.03 -1.14,0.09 z m -28.75,0.88 c -0.05,0.05 -0.08,0.1 -0.08,0.12 0,0.02 -0.19,0.96 -0.43,2.09 -0.23,1.13 -0.42,2.07 -0.41,2.07 0,0 0.46,-0.1 1.02,-0.22 0.56,-0.13 1.02,-0.23 1.03,-0.24 0,0 -0.19,-0.88 -0.44,-1.94 -0.34,-1.51 -0.46,-1.93 -0.52,-1.95 -0.05,-0.01 -0.12,0.02 -0.17,0.07 z"
       id="path8" />
    <path
       d="m 41.73,11.62 c -0.05,0.01 -0.28,0.05 -0.54,0.08 -0.25,0.03 -0.51,0.07 -0.59,0.08 l -0.14,0.02 c 0,2.16 0.01,2.44 0.06,2.44 0.04,0 0.43,-0.04 0.88,-0.1 0.44,-0.05 0.96,-0.14 1.15,-0.2 0.27,-0.08 0.4,-0.16 0.59,-0.35 0.21,-0.2 0.26,-0.28 0.31,-0.54 0.04,-0.18 0.05,-0.43 0.03,-0.59 -0.02,-0.15 -0.07,-0.35 -0.12,-0.43 -0.05,-0.09 -0.2,-0.21 -0.34,-0.28 -0.21,-0.1 -0.35,-0.12 -0.74,-0.13 -0.26,-0.01 -0.51,-0.01 -0.55,0 z m 68.82,0.36 c -0.11,0.04 -0.28,0.16 -0.38,0.26 -0.1,0.11 -0.23,0.32 -0.29,0.48 -0.06,0.15 -0.13,0.46 -0.16,0.68 -0.05,0.28 -0.06,0.87 -0.04,1.83 0.02,1.12 0.04,1.49 0.11,1.73 0.04,0.17 0.13,0.41 0.19,0.54 0.06,0.12 0.22,0.34 0.35,0.47 0.2,0.19 0.32,0.26 0.62,0.35 0.24,0.08 0.5,0.12 0.77,0.12 0.33,0 0.45,-0.03 0.65,-0.13 0.14,-0.07 0.31,-0.21 0.4,-0.33 0.08,-0.11 0.19,-0.36 0.26,-0.56 0.1,-0.34 0.11,-0.44 0.11,-2.01 0,-1.42 -0.02,-1.7 -0.09,-2.01 -0.05,-0.19 -0.16,-0.47 -0.23,-0.6 -0.08,-0.14 -0.24,-0.34 -0.37,-0.46 -0.13,-0.12 -0.35,-0.25 -0.51,-0.3 -0.16,-0.06 -0.46,-0.11 -0.73,-0.12 -0.32,-0.01 -0.52,0 -0.66,0.06 z"
       id="path9" />
    <path
       d="m 70.23,9.75 -0.21,0.02 v 2.77 c 1.23,-0.06 1.72,-0.1 1.87,-0.13 0.16,-0.04 0.37,-0.11 0.47,-0.16 0.11,-0.05 0.25,-0.16 0.32,-0.23 0.07,-0.08 0.16,-0.26 0.2,-0.4 0.05,-0.14 0.08,-0.39 0.08,-0.56 0,-0.16 -0.03,-0.39 -0.05,-0.49 -0.03,-0.11 -0.14,-0.29 -0.24,-0.4 C 72.55,10.04 72.37,9.92 72.2,9.86 71.97,9.77 71.79,9.75 71.18,9.74 c -0.4,-0.01 -0.83,0 -0.95,0.01 z"
       id="path10" />
    <path
       d="m 50.97,10.89 c -0.25,0.07 -0.38,0.16 -0.59,0.36 -0.19,0.19 -0.3,0.36 -0.38,0.58 -0.07,0.16 -0.15,0.43 -0.18,0.58 -0.04,0.18 -0.06,0.82 -0.05,1.81 0,1.25 0.01,1.58 0.08,1.87 0.05,0.18 0.13,0.43 0.19,0.53 0.05,0.1 0.18,0.27 0.29,0.37 0.1,0.1 0.27,0.21 0.37,0.24 0.1,0.03 0.28,0.07 0.41,0.09 0.13,0.02 0.38,0 0.6,-0.05 0.21,-0.04 0.5,-0.14 0.63,-0.22 0.14,-0.08 0.31,-0.21 0.38,-0.29 0.07,-0.08 0.17,-0.26 0.24,-0.38 0.06,-0.13 0.15,-0.4 0.2,-0.61 0.07,-0.33 0.08,-0.63 0.06,-2.04 -0.01,-1.61 -0.02,-1.66 -0.14,-1.98 -0.07,-0.18 -0.19,-0.42 -0.28,-0.53 -0.08,-0.1 -0.25,-0.24 -0.38,-0.3 -0.17,-0.08 -0.33,-0.11 -0.68,-0.12 -0.34,-0.01 -0.54,0.01 -0.77,0.09 z"
       id="path11" />
    <path
       d="m 73.06,25.92 c -0.71,0.01 -2.37,0.04 -3.68,0.07 -1.31,0.03 -3.41,0.1 -4.66,0.16 -1.26,0.05 -2.91,0.13 -3.68,0.17 -0.76,0.05 -1.95,0.11 -2.63,0.16 -0.69,0.04 -1.74,0.11 -2.34,0.15 -0.59,0.04 -1.8,0.13 -2.68,0.2 -0.88,0.07 -2.32,0.2 -3.2,0.28 -0.87,0.09 -2.36,0.24 -3.29,0.33 -0.94,0.1 -2.2,0.24 -2.82,0.31 -0.61,0.07 -1.83,0.22 -2.71,0.33 -0.88,0.11 -2.34,0.3 -3.24,0.43 -0.91,0.13 -2.28,0.32 -3.05,0.43 -0.76,0.12 -2.03,0.31 -2.81,0.44 -0.78,0.12 -2.03,0.33 -2.79,0.46 -0.75,0.12 -2.47,0.43 -3.83,0.68 -1.35,0.25 -3.2,0.61 -4.1,0.79 -0.91,0.19 -2.23,0.46 -2.94,0.61 -0.71,0.16 -2.05,0.45 -2.97,0.66 -0.92,0.21 -2.35,0.54 -3.17,0.74 -0.82,0.2 -2.04,0.5 -2.71,0.66 -0.67,0.17 -1.3,0.33 -1.41,0.36 l -0.19,0.04 c 0,30.18 0.02,33.12 0.08,34.57 0.04,0.95 0.11,2.3 0.15,3 0.04,0.7 0.13,1.85 0.18,2.57 0.06,0.71 0.17,1.99 0.25,2.85 0.09,0.85 0.23,2.15 0.31,2.89 0.08,0.75 0.25,2.13 0.38,3.08 0.13,0.95 0.36,2.53 0.51,3.51 0.15,0.98 0.42,2.61 0.6,3.61 0.18,1.01 0.46,2.51 0.63,3.33 0.17,0.83 0.5,2.41 0.74,3.51 0.24,1.11 0.7,3.04 1.02,4.3 0.31,1.26 0.69,2.71 0.83,3.23 0.14,0.52 0.4,1.42 0.57,2.01 0.16,0.59 0.4,1.41 0.53,1.83 0.12,0.42 0.48,1.54 0.78,2.49 0.3,0.96 0.83,2.52 1.16,3.49 0.33,0.96 0.73,2.1 0.88,2.52 0.15,0.42 0.48,1.29 0.72,1.93 0.24,0.64 0.68,1.75 0.97,2.47 0.3,0.71 0.72,1.73 0.94,2.26 0.23,0.53 0.62,1.47 0.89,2.09 0.26,0.61 0.84,1.89 1.27,2.84 0.44,0.96 1.41,2.98 2.17,4.51 0.76,1.52 1.7,3.34 2.08,4.04 0.38,0.7 1.03,1.88 1.45,2.62 0.42,0.74 1.03,1.79 1.35,2.34 0.32,0.54 0.93,1.55 1.34,2.24 0.42,0.68 1.12,1.79 1.55,2.46 0.43,0.67 1.13,1.74 1.55,2.37 0.42,0.63 1.16,1.72 1.65,2.41 0.48,0.7 1.23,1.75 1.64,2.32 0.42,0.57 1.15,1.56 1.63,2.19 0.47,0.63 1.29,1.69 1.82,2.35 0.54,0.67 0.98,1.2 0.99,1.2 0.01,-0.01 -0.01,-0.11 -0.04,-0.22 -0.03,-0.11 -0.07,-0.96 -0.1,-1.88 -0.03,-0.93 -0.09,-2.35 -0.13,-3.16 -0.05,-0.81 -0.12,-2.19 -0.18,-3.07 -0.06,-0.89 -0.15,-2.17 -0.2,-2.85 -0.06,-0.69 -0.15,-1.72 -0.21,-2.29 -0.05,-0.58 -0.16,-1.55 -0.23,-2.16 -0.07,-0.62 -0.18,-1.54 -0.25,-2.04 -0.07,-0.5 -0.21,-1.39 -0.31,-1.98 -0.1,-0.59 -0.26,-1.45 -0.35,-1.91 -0.1,-0.46 -0.27,-1.17 -0.39,-1.58 -0.11,-0.4 -0.31,-1.03 -0.45,-1.4 -0.14,-0.36 -0.49,-1.11 -0.77,-1.67 -0.29,-0.56 -0.71,-1.35 -0.94,-1.76 -0.24,-0.4 -0.71,-1.22 -1.06,-1.8 -0.35,-0.59 -0.98,-1.62 -1.39,-2.29 -0.42,-0.67 -1.37,-2.16 -2.11,-3.31 -0.74,-1.15 -1.88,-2.89 -2.54,-3.87 -0.65,-0.97 -1.59,-2.36 -2.07,-3.07 -0.49,-0.72 -1.51,-2.18 -2.26,-3.26 -0.76,-1.07 -1.48,-2.16 -1.61,-2.41 -0.14,-0.26 -0.3,-0.63 -0.37,-0.83 -0.07,-0.2 -0.18,-0.56 -0.23,-0.79 -0.05,-0.23 -0.12,-0.64 -0.15,-0.91 -0.03,-0.28 -0.06,-0.71 -0.06,-0.97 0,-0.26 0.04,-0.71 0.08,-1.01 0.04,-0.29 0.11,-0.7 0.15,-0.91 0.05,-0.21 0.16,-0.57 0.24,-0.79 0.08,-0.22 0.24,-0.59 0.36,-0.81 0.12,-0.23 0.34,-0.58 0.5,-0.78 0.16,-0.2 0.44,-0.47 0.61,-0.6 0.18,-0.13 0.43,-0.3 0.57,-0.38 0.14,-0.08 0.51,-0.25 0.81,-0.37 0.31,-0.12 0.84,-0.3 1.17,-0.38 0.33,-0.09 0.88,-0.21 1.22,-0.27 0.33,-0.05 0.88,-0.13 1.21,-0.17 0.34,-0.04 0.81,-0.09 1.06,-0.1 l 0.44,-0.03 c 0,-0.73 0.04,-1.15 0.08,-1.4 0.04,-0.25 0.14,-0.61 0.21,-0.79 0.06,-0.18 0.19,-0.44 0.28,-0.58 0.09,-0.14 0.27,-0.34 0.39,-0.45 0.13,-0.1 0.33,-0.24 0.45,-0.29 0.11,-0.06 0.47,-0.16 0.78,-0.23 0.32,-0.06 0.85,-0.15 1.19,-0.2 0.35,-0.04 0.99,-0.08 1.44,-0.08 h 0.81 c 0,-0.27 0.03,-0.52 0.07,-0.72 0.05,-0.21 0.13,-0.52 0.19,-0.7 0.06,-0.18 0.18,-0.48 0.27,-0.66 0.09,-0.19 0.27,-0.46 0.4,-0.61 0.13,-0.16 0.33,-0.35 0.45,-0.43 0.12,-0.07 0.34,-0.19 0.49,-0.24 0.2,-0.08 0.5,-0.12 1.02,-0.16 0.4,-0.02 1.54,-0.04 2.52,-0.03 0.98,0.01 1.79,0.02 1.79,0.02 0,0 0.07,-1.39 0.15,-3.08 0.08,-1.69 0.15,-3.08 0.16,-3.09 0.01,0 3.22,0.09 7.14,0.19 3.92,0.11 7.41,0.2 7.76,0.2 h 0.63 c 0.47,-0.6 0.93,-1.1 1.32,-1.49 0.39,-0.4 0.95,-0.91 1.24,-1.15 0.29,-0.23 0.77,-0.58 1.05,-0.77 l 0.52,-0.35 c -0.81,-1.01 -1.25,-1.58 -1.5,-1.93 -0.25,-0.35 -0.64,-0.91 -0.86,-1.25 -0.23,-0.34 -0.6,-0.94 -0.84,-1.35 -0.24,-0.4 -0.61,-1.06 -0.81,-1.45 -0.21,-0.39 -0.54,-1.05 -0.74,-1.47 -0.2,-0.42 -0.47,-1.02 -0.6,-1.33 -0.13,-0.3 -0.34,-0.83 -0.46,-1.17 -0.13,-0.33 -0.37,-1.01 -0.53,-1.5 -0.17,-0.49 -0.39,-1.22 -0.5,-1.62 -0.11,-0.41 -0.29,-1.13 -0.4,-1.61 -0.11,-0.47 -0.27,-1.27 -0.36,-1.78 -0.08,-0.5 -0.2,-1.27 -0.25,-1.7 -0.06,-0.43 -0.13,-1.15 -0.17,-1.6 -0.04,-0.5 -0.06,-1.62 -0.06,-2.88 0,-1.57 0.02,-2.27 0.09,-2.97 0.05,-0.51 0.14,-1.32 0.21,-1.81 0.07,-0.49 0.22,-1.35 0.33,-1.9 0.11,-0.56 0.27,-1.3 0.36,-1.63 0.08,-0.34 0.24,-0.92 0.35,-1.3 0.11,-0.38 0.33,-1.06 0.48,-1.53 0.16,-0.46 0.4,-1.11 0.53,-1.44 0.14,-0.34 0.4,-0.96 0.59,-1.38 0.18,-0.42 0.49,-1.07 0.68,-1.45 0.19,-0.38 0.55,-1.04 0.8,-1.47 0.25,-0.44 0.64,-1.09 0.87,-1.45 0.23,-0.37 0.62,-0.94 0.86,-1.27 0.24,-0.34 0.63,-0.87 0.86,-1.17 0.24,-0.31 0.67,-0.85 0.97,-1.2 0.29,-0.35 0.98,-1.09 1.52,-1.65 0.55,-0.55 1.3,-1.28 1.68,-1.6 0.37,-0.33 0.96,-0.82 1.31,-1.1 0.35,-0.28 0.99,-0.76 1.42,-1.06 0.44,-0.3 1.07,-0.73 1.42,-0.94 0.35,-0.22 0.98,-0.59 1.4,-0.82 0.42,-0.24 1.1,-0.59 1.52,-0.79 0.42,-0.21 1.04,-0.49 1.39,-0.64 0.35,-0.14 1,-0.4 1.45,-0.57 0.44,-0.16 1.23,-0.42 1.75,-0.57 0.51,-0.15 1.21,-0.34 1.54,-0.43 0.34,-0.08 0.91,-0.21 1.27,-0.28 0.36,-0.07 1.06,-0.18 1.55,-0.25 0.48,-0.07 1.28,-0.17 1.77,-0.22 0.62,-0.06 1.37,-0.09 2.49,-0.09 0.93,0 1.87,0.03 2.25,0.07 0.36,0.03 0.97,0.11 1.35,0.16 0.37,0.06 0.98,0.16 1.34,0.22 0.36,0.07 1.02,0.21 1.47,0.31 0.45,0.1 1.14,0.28 1.55,0.39 0.4,0.11 1.11,0.32 1.57,0.46 0.46,0.14 1.26,0.41 1.77,0.59 0.52,0.18 1.2,0.43 1.51,0.55 0.31,0.12 0.59,0.22 0.62,0.22 0.03,0 0.05,-0.86 0.05,-2.48 v -2.48 c -2.1,-0.17 -3.3,-0.27 -4.03,-0.33 -0.72,-0.05 -2.18,-0.15 -3.24,-0.22 -1.06,-0.07 -2.63,-0.16 -3.48,-0.21 -0.85,-0.04 -2.08,-0.1 -2.73,-0.12 -0.66,-0.03 -1.96,-0.08 -2.89,-0.11 -0.94,-0.03 -3.03,-0.07 -4.64,-0.1 -1.62,-0.03 -3.65,-0.04 -4.52,-0.04 -0.86,0.01 -2.15,0.02 -2.86,0.02 z m 39.9,8.46 v 6.06 c 0.81,0.96 1.26,1.53 1.53,1.88 0.26,0.35 0.68,0.92 0.91,1.27 0.24,0.35 0.62,0.93 0.84,1.3 0.22,0.36 0.58,0.98 0.79,1.37 0.21,0.39 0.49,0.93 0.62,1.2 0.13,0.26 0.39,0.82 0.57,1.24 0.18,0.42 0.46,1.12 0.62,1.55 0.16,0.44 0.4,1.12 0.52,1.53 0.13,0.41 0.33,1.07 0.44,1.48 0.11,0.4 0.28,1.09 0.38,1.52 0.09,0.43 0.23,1.1 0.3,1.48 0.07,0.37 0.18,1.01 0.23,1.42 0.06,0.41 0.14,1.05 0.18,1.42 0.04,0.38 0.12,1.21 0.16,1.84 0.07,0.9 0.08,1.58 0.06,3.25 -0.02,1.57 -0.06,2.39 -0.13,3.21 -0.06,0.6 -0.15,1.42 -0.21,1.83 -0.06,0.4 -0.15,1 -0.21,1.32 -0.05,0.32 -0.17,0.9 -0.25,1.3 -0.09,0.39 -0.25,1.06 -0.36,1.5 -0.11,0.43 -0.32,1.15 -0.46,1.6 -0.14,0.45 -0.42,1.27 -0.63,1.83 -0.21,0.56 -0.52,1.32 -0.69,1.68 -0.16,0.36 -0.51,1.08 -0.78,1.6 -0.27,0.52 -0.62,1.17 -0.79,1.45 -0.17,0.28 -0.6,0.94 -0.96,1.48 -0.35,0.53 -0.93,1.32 -1.28,1.75 -0.34,0.43 -0.8,0.98 -1.01,1.22 l -0.39,0.43 v 36.55 c 8.51,9.54 10.99,12.31 11.02,12.31 0.02,0 0.03,-23.65 0.02,-52.56 l -0.01,-52.55 c -2.83,-0.49 -4.54,-0.78 -5.63,-0.97 -1.09,-0.18 -2.74,-0.44 -3.66,-0.58 -0.93,-0.14 -1.7,-0.26 -1.71,-0.26 -0.02,0 -0.03,2.73 -0.03,6.05 z m 22.25,38.96 c 0,22.6 0.02,41.07 0.03,41.05 0.01,-0.01 0.21,-0.56 0.43,-1.22 0.23,-0.65 0.69,-2.07 1.02,-3.15 0.33,-1.08 0.81,-2.69 1.06,-3.59 0.26,-0.89 0.68,-2.45 0.95,-3.45 0.26,-1.01 0.65,-2.56 0.86,-3.44 0.21,-0.88 0.55,-2.38 0.75,-3.33 0.21,-0.95 0.51,-2.45 0.68,-3.33 0.17,-0.88 0.42,-2.27 0.56,-3.08 0.14,-0.81 0.37,-2.19 0.51,-3.08 0.14,-0.88 0.33,-2.19 0.43,-2.92 0.1,-0.73 0.25,-1.91 0.33,-2.62 0.09,-0.71 0.23,-1.93 0.31,-2.7 0.08,-0.77 0.2,-2.08 0.27,-2.92 0.07,-0.84 0.16,-2.05 0.21,-2.7 0.04,-0.64 0.11,-1.82 0.15,-2.62 0.07,-1.24 0.08,-3.84 0.08,-18.64 0,-9.45 -0.02,-17.2 -0.04,-17.22 -0.02,-0.02 -1.33,-0.36 -2.9,-0.75 -1.58,-0.4 -3.51,-0.86 -4.29,-1.04 l -1.41,-0.32 z"
       fill="#b20d11"
       id="path12" />
    <path
       d="m 73.06,25.92 c -0.71,0.01 -2.37,0.04 -3.68,0.07 -1.31,0.03 -3.41,0.1 -4.66,0.16 -1.26,0.05 -2.91,0.13 -3.68,0.17 -0.76,0.05 -1.95,0.11 -2.63,0.16 -0.69,0.04 -1.74,0.11 -2.34,0.15 -0.59,0.04 -1.8,0.13 -2.68,0.2 -0.88,0.07 -2.32,0.2 -3.2,0.28 -0.87,0.09 -2.36,0.24 -3.29,0.33 -0.94,0.1 -2.2,0.24 -2.82,0.31 -0.61,0.07 -1.83,0.22 -2.71,0.33 -0.88,0.11 -2.34,0.3 -3.24,0.43 -0.91,0.13 -2.28,0.32 -3.05,0.43 -0.76,0.12 -2.03,0.31 -2.81,0.44 -0.78,0.12 -2.03,0.33 -2.79,0.46 -0.75,0.12 -2.47,0.43 -3.83,0.68 -1.35,0.25 -3.2,0.61 -4.1,0.79 -0.91,0.19 -2.23,0.46 -2.94,0.61 -0.71,0.16 -2.05,0.45 -2.97,0.66 -0.92,0.21 -2.35,0.54 -3.17,0.74 -0.82,0.2 -2.04,0.5 -2.71,0.66 -0.67,0.17 -1.3,0.33 -1.41,0.36 l -0.19,0.04 c 0,30.18 0.02,33.12 0.08,34.57 0.04,0.95 0.11,2.3 0.15,3 0.04,0.7 0.13,1.85 0.18,2.57 0.06,0.71 0.17,1.99 0.25,2.85 0.09,0.85 0.23,2.15 0.31,2.89 0.08,0.75 0.25,2.13 0.38,3.08 0.13,0.95 0.36,2.53 0.51,3.51 0.15,0.98 0.42,2.61 0.6,3.61 0.18,1.01 0.46,2.51 0.63,3.33 0.17,0.83 0.5,2.41 0.74,3.51 0.24,1.11 0.7,3.04 1.02,4.3 0.31,1.26 0.69,2.71 0.83,3.23 0.14,0.52 0.4,1.42 0.57,2.01 0.16,0.59 0.4,1.41 0.53,1.83 0.12,0.42 0.48,1.54 0.78,2.49 0.3,0.96 0.83,2.52 1.16,3.49 0.33,0.96 0.73,2.1 0.88,2.52 0.15,0.42 0.48,1.29 0.72,1.93 0.24,0.64 0.68,1.75 0.97,2.47 0.3,0.71 0.72,1.73 0.94,2.26 0.23,0.53 0.62,1.47 0.89,2.09 0.26,0.61 0.84,1.89 1.27,2.84 0.44,0.96 1.41,2.98 2.17,4.51 0.76,1.52 1.7,3.34 2.08,4.04 0.38,0.7 1.03,1.88 1.45,2.62 0.42,0.74 1.03,1.79 1.35,2.34 0.32,0.54 0.93,1.55 1.34,2.24 0.42,0.68 1.12,1.79 1.55,2.46 0.43,0.67 1.13,1.74 1.55,2.37 0.42,0.63 1.16,1.72 1.65,2.41 0.48,0.7 1.23,1.75 1.64,2.32 0.42,0.57 1.15,1.56 1.63,2.19 0.47,0.63 1.29,1.69 1.82,2.35 0.54,0.67 0.98,1.2 0.99,1.2 0.01,-0.01 -0.01,-0.11 -0.04,-0.22 -0.03,-0.11 -0.07,-0.96 -0.1,-1.88 -0.03,-0.93 -0.09,-2.35 -0.13,-3.16 -0.05,-0.81 -0.12,-2.19 -0.18,-3.07 -0.06,-0.89 -0.15,-2.17 -0.2,-2.85 -0.06,-0.69 -0.15,-1.72 -0.21,-2.29 -0.05,-0.58 -0.16,-1.55 -0.23,-2.16 -0.07,-0.62 -0.18,-1.54 -0.25,-2.04 -0.07,-0.5 -0.21,-1.39 -0.31,-1.98 -0.1,-0.59 -0.26,-1.45 -0.35,-1.91 -0.1,-0.46 -0.27,-1.17 -0.39,-1.58 -0.11,-0.4 -0.31,-1.03 -0.45,-1.4 -0.14,-0.36 -0.49,-1.11 -0.77,-1.67 -0.29,-0.56 -0.71,-1.35 -0.94,-1.76 -0.24,-0.4 -0.71,-1.22 -1.06,-1.8 -0.35,-0.59 -0.98,-1.62 -1.39,-2.29 -0.42,-0.67 -1.37,-2.16 -2.11,-3.31 -0.74,-1.15 -1.88,-2.89 -2.54,-3.87 -0.65,-0.97 -1.59,-2.36 -2.07,-3.07 -0.49,-0.72 -1.51,-2.18 -2.26,-3.26 -0.76,-1.07 -1.48,-2.16 -1.61,-2.41 -0.14,-0.26 -0.3,-0.63 -0.37,-0.83 -0.07,-0.2 -0.18,-0.56 -0.23,-0.79 -0.05,-0.23 -0.12,-0.64 -0.15,-0.91 -0.03,-0.28 -0.06,-0.71 -0.06,-0.97 0,-0.26 0.04,-0.71 0.08,-1.01 0.04,-0.29 0.11,-0.7 0.15,-0.91 0.05,-0.21 0.16,-0.57 0.24,-0.79 0.08,-0.22 0.24,-0.59 0.36,-0.81 0.12,-0.23 0.34,-0.58 0.5,-0.78 0.16,-0.2 0.44,-0.47 0.61,-0.6 0.18,-0.13 0.43,-0.3 0.57,-0.38 0.14,-0.08 0.51,-0.25 0.81,-0.37 0.31,-0.12 0.84,-0.3 1.17,-0.38 0.33,-0.09 0.88,-0.21 1.22,-0.27 0.33,-0.05 0.88,-0.13 1.21,-0.17 0.34,-0.04 0.81,-0.09 1.06,-0.1 l 0.44,-0.03 c 0,-0.73 0.04,-1.15 0.08,-1.4 0.04,-0.25 0.14,-0.61 0.21,-0.79 0.06,-0.18 0.19,-0.44 0.28,-0.58 0.09,-0.14 0.27,-0.34 0.39,-0.45 0.13,-0.1 0.33,-0.24 0.45,-0.29 0.11,-0.06 0.47,-0.16 0.78,-0.23 0.32,-0.06 0.85,-0.15 1.19,-0.2 0.35,-0.04 0.99,-0.08 1.44,-0.08 h 0.81 c 0,-0.27 0.03,-0.52 0.07,-0.72 0.05,-0.21 0.13,-0.52 0.19,-0.7 0.06,-0.18 0.18,-0.48 0.27,-0.66 0.09,-0.19 0.27,-0.46 0.4,-0.61 0.13,-0.16 0.33,-0.35 0.45,-0.43 0.12,-0.07 0.34,-0.19 0.49,-0.24 0.2,-0.08 0.5,-0.12 1.02,-0.16 0.4,-0.02 1.54,-0.04 2.52,-0.03 0.98,0.01 1.79,0.02 1.79,0.02 0,0 0.07,-1.39 0.15,-3.08 0.08,-1.69 0.15,-3.08 0.16,-3.09 0.01,0 3.22,0.09 7.14,0.19 3.92,0.11 7.41,0.2 7.76,0.2 h 0.63 c 0.47,-0.6 0.93,-1.1 1.32,-1.49 0.39,-0.4 0.95,-0.91 1.24,-1.15 0.29,-0.23 0.77,-0.58 1.05,-0.77 l 0.52,-0.35 c -0.81,-1.01 -1.25,-1.58 -1.5,-1.93 -0.25,-0.35 -0.64,-0.91 -0.86,-1.25 -0.23,-0.34 -0.6,-0.94 -0.84,-1.35 -0.24,-0.4 -0.61,-1.06 -0.81,-1.45 -0.21,-0.39 -0.54,-1.05 -0.74,-1.47 -0.2,-0.42 -0.47,-1.02 -0.6,-1.33 -0.13,-0.3 -0.34,-0.83 -0.46,-1.17 -0.13,-0.33 -0.37,-1.01 -0.53,-1.5 -0.17,-0.49 -0.39,-1.22 -0.5,-1.62 -0.11,-0.41 -0.29,-1.13 -0.4,-1.61 -0.11,-0.47 -0.27,-1.27 -0.36,-1.78 -0.08,-0.5 -0.2,-1.27 -0.25,-1.7 -0.06,-0.43 -0.13,-1.15 -0.17,-1.6 -0.04,-0.5 -0.06,-1.62 -0.06,-2.88 0,-1.57 0.02,-2.27 0.09,-2.97 0.05,-0.51 0.14,-1.32 0.21,-1.81 0.07,-0.49 0.22,-1.35 0.33,-1.9 0.11,-0.56 0.27,-1.3 0.36,-1.63 0.08,-0.34 0.24,-0.92 0.35,-1.3 0.11,-0.38 0.33,-1.06 0.48,-1.53 0.16,-0.46 0.4,-1.11 0.53,-1.44 0.14,-0.34 0.4,-0.96 0.59,-1.38 0.18,-0.42 0.49,-1.07 0.68,-1.45 0.19,-0.38 0.55,-1.04 0.8,-1.47 0.25,-0.44 0.64,-1.09 0.87,-1.45 0.23,-0.37 0.62,-0.94 0.86,-1.27 0.24,-0.34 0.63,-0.87 0.86,-1.17 0.24,-0.31 0.67,-0.85 0.97,-1.2 0.29,-0.35 0.98,-1.09 1.52,-1.65 0.55,-0.55 1.3,-1.28 1.68,-1.6 0.37,-0.33 0.96,-0.82 1.31,-1.1 0.35,-0.28 0.99,-0.76 1.42,-1.06 0.44,-0.3 1.07,-0.73 1.42,-0.94 0.35,-0.22 0.98,-0.59 1.4,-0.82 0.42,-0.24 1.1,-0.59 1.52,-0.79 0.42,-0.21 1.04,-0.49 1.39,-0.64 0.35,-0.14 1,-0.4 1.45,-0.57 0.44,-0.16 1.23,-0.42 1.75,-0.57 0.51,-0.15 1.21,-0.34 1.54,-0.43 0.34,-0.08 0.91,-0.21 1.27,-0.28 0.36,-0.07 1.06,-0.18 1.55,-0.25 0.48,-0.07 1.28,-0.17 1.77,-0.22 0.62,-0.06 1.37,-0.09 2.49,-0.09 0.93,0 1.87,0.03 2.25,0.07 0.36,0.03 0.97,0.11 1.35,0.16 0.37,0.06 0.98,0.16 1.34,0.22 0.36,0.07 1.02,0.21 1.47,0.31 0.45,0.1 1.14,0.28 1.55,0.39 0.4,0.11 1.11,0.32 1.57,0.46 0.46,0.14 1.26,0.41 1.77,0.59 0.52,0.18 1.2,0.43 1.51,0.55 0.31,0.12 0.59,0.22 0.62,0.22 0.03,0 0.05,-0.86 0.05,-2.48 v -2.48 c -2.1,-0.17 -3.3,-0.27 -4.03,-0.33 -0.72,-0.05 -2.18,-0.15 -3.24,-0.22 -1.06,-0.07 -2.63,-0.16 -3.48,-0.21 -0.85,-0.04 -2.08,-0.1 -2.73,-0.12 -0.66,-0.03 -1.96,-0.08 -2.89,-0.11 -0.94,-0.03 -3.03,-0.07 -4.64,-0.1 -1.62,-0.03 -3.65,-0.04 -4.52,-0.04 -0.86,0.01 -2.15,0.02 -2.86,0.02 z m 39.9,8.46 v 6.06 c 0.81,0.96 1.26,1.53 1.53,1.88 0.26,0.35 0.68,0.92 0.91,1.27 0.24,0.35 0.62,0.93 0.84,1.3 0.22,0.36 0.58,0.98 0.79,1.37 0.21,0.39 0.49,0.93 0.62,1.2 0.13,0.26 0.39,0.82 0.57,1.24 0.18,0.42 0.46,1.12 0.62,1.55 0.16,0.44 0.4,1.12 0.52,1.53 0.13,0.41 0.33,1.07 0.44,1.48 0.11,0.4 0.28,1.09 0.38,1.52 0.09,0.43 0.23,1.1 0.3,1.48 0.07,0.37 0.18,1.01 0.23,1.42 0.06,0.41 0.14,1.05 0.18,1.42 0.04,0.38 0.12,1.21 0.16,1.84 0.07,0.9 0.08,1.58 0.06,3.25 -0.02,1.57 -0.06,2.39 -0.13,3.21 -0.06,0.6 -0.15,1.42 -0.21,1.83 -0.06,0.4 -0.15,1 -0.21,1.32 -0.05,0.32 -0.17,0.9 -0.25,1.3 -0.09,0.39 -0.25,1.06 -0.36,1.5 -0.11,0.43 -0.32,1.15 -0.46,1.6 -0.14,0.45 -0.42,1.27 -0.63,1.83 -0.21,0.56 -0.52,1.32 -0.69,1.68 -0.16,0.36 -0.51,1.08 -0.78,1.6 -0.27,0.52 -0.62,1.17 -0.79,1.45 -0.17,0.28 -0.6,0.94 -0.96,1.48 -0.35,0.53 -0.93,1.32 -1.28,1.75 -0.34,0.43 -0.8,0.98 -1.01,1.22 l -0.39,0.43 v 36.55 c 8.51,9.54 10.99,12.31 11.02,12.31 0.02,0 0.03,-23.65 0.02,-52.56 l -0.01,-52.55 c -2.83,-0.49 -4.54,-0.78 -5.63,-0.97 -1.09,-0.18 -2.74,-0.44 -3.66,-0.58 -0.93,-0.14 -1.7,-0.26 -1.71,-0.26 -0.02,0 -0.03,2.73 -0.03,6.05 z m 22.25,38.96 c 0,22.6 0.02,41.07 0.03,41.05 0.01,-0.01 0.21,-0.56 0.43,-1.22 0.23,-0.65 0.69,-2.07 1.02,-3.15 0.33,-1.08 0.81,-2.69 1.06,-3.59 0.26,-0.89 0.68,-2.45 0.95,-3.45 0.26,-1.01 0.65,-2.56 0.86,-3.44 0.21,-0.88 0.55,-2.38 0.75,-3.33 0.21,-0.95 0.51,-2.45 0.68,-3.33 0.17,-0.88 0.42,-2.27 0.56,-3.08 0.14,-0.81 0.37,-2.19 0.51,-3.08 0.14,-0.88 0.33,-2.19 0.43,-2.92 0.1,-0.73 0.25,-1.91 0.33,-2.62 0.09,-0.71 0.23,-1.93 0.31,-2.7 0.08,-0.77 0.2,-2.08 0.27,-2.92 0.07,-0.84 0.16,-2.05 0.21,-2.7 0.04,-0.64 0.11,-1.82 0.15,-2.62 0.07,-1.24 0.08,-3.84 0.08,-18.64 0,-9.45 -0.02,-17.2 -0.04,-17.22 -0.02,-0.02 -1.33,-0.36 -2.9,-0.75 -1.58,-0.4 -3.51,-0.86 -4.29,-1.04 l -1.41,-0.32 z"
       fill="url(#b)"
       id="path13"
       style="fill:url(#b)" />
    <path
       d="m 76.35,35.67 c -0.37,0.18 -1.03,0.51 -1.47,0.74 -0.43,0.24 -1.08,0.61 -1.44,0.84 -0.36,0.22 -0.89,0.57 -1.17,0.76 -0.28,0.2 -0.79,0.58 -1.14,0.84 -0.35,0.27 -0.94,0.75 -1.32,1.07 -0.37,0.33 -1.02,0.94 -1.45,1.36 -0.42,0.42 -0.97,1 -1.23,1.29 l -0.46,0.54 c 0.04,0.55 0.19,3.09 0.36,6 0.16,2.91 0.31,5.53 0.33,5.82 l 0.03,0.54 c -1.6,2.1 -2.98,3.92 -4.09,5.39 -1.12,1.47 -2.33,3.07 -2.69,3.55 l -0.66,0.87 c 0.1,0.87 0.2,1.54 0.28,2.04 0.09,0.5 0.23,1.26 0.33,1.68 0.09,0.42 0.27,1.13 0.4,1.57 0.13,0.45 0.35,1.18 0.51,1.63 0.15,0.45 0.4,1.13 0.55,1.5 0.16,0.38 0.42,1 0.59,1.38 0.17,0.37 0.46,0.97 0.65,1.32 0.18,0.35 0.45,0.83 0.59,1.08 l 0.26,0.44 c 0.55,0.15 1.54,0.44 2.56,0.73 1.02,0.3 2.21,0.64 2.64,0.77 0.43,0.12 1.95,0.56 3.37,0.97 1.42,0.41 2.7,0.79 2.84,0.83 l 0.25,0.07 c 1.48,2.26 3.04,4.62 4.42,6.71 1.37,2.08 2.54,3.8 2.59,3.82 0.05,0.02 0.39,0.09 0.75,0.17 0.36,0.07 1,0.19 1.42,0.26 0.42,0.06 1.18,0.17 1.7,0.22 0.51,0.06 1.45,0.12 2.08,0.13 0.69,0.02 1.52,0.01 2.13,-0.02 0.54,-0.03 1.29,-0.09 1.67,-0.14 0.37,-0.04 1.01,-0.13 1.42,-0.2 0.4,-0.07 0.94,-0.17 1.19,-0.22 0.25,-0.06 0.47,-0.12 0.48,-0.15 0.02,-0.02 1.32,-2.09 2.91,-4.59 1.59,-2.5 3.04,-4.79 3.23,-5.08 l 0.34,-0.54 c 1.01,-0.28 1.89,-0.53 2.6,-0.73 0.71,-0.2 1.8,-0.51 2.43,-0.69 0.63,-0.18 2.33,-0.66 3.78,-1.07 1.45,-0.42 2.7,-0.77 2.78,-0.78 0.08,-0.02 0.19,-0.09 0.25,-0.16 0.05,-0.07 0.39,-0.72 0.75,-1.45 0.36,-0.73 0.79,-1.68 0.96,-2.11 0.17,-0.43 0.42,-1.12 0.56,-1.53 0.14,-0.4 0.35,-1.1 0.48,-1.55 0.12,-0.45 0.29,-1.12 0.37,-1.5 0.09,-0.38 0.21,-1.02 0.28,-1.42 0.07,-0.41 0.16,-1.03 0.2,-1.38 0.05,-0.35 0.1,-0.81 0.12,-1.04 l 0.03,-0.41 c -1.72,-2.2 -2.83,-3.63 -3.59,-4.6 -0.75,-0.96 -1.95,-2.5 -2.66,-3.41 -0.7,-0.91 -1.3,-1.67 -1.33,-1.7 -0.02,-0.03 0.02,-2.61 0.12,-6.33 l 0.17,-6.29 c -0.18,-0.23 -0.49,-0.58 -0.8,-0.93 -0.31,-0.34 -0.95,-0.98 -1.41,-1.4 -0.46,-0.43 -1.13,-1.03 -1.49,-1.33 -0.36,-0.3 -0.91,-0.74 -1.22,-0.97 -0.3,-0.23 -0.95,-0.68 -1.44,-1 -0.49,-0.32 -1.27,-0.8 -1.73,-1.06 -0.46,-0.26 -1.19,-0.64 -1.62,-0.84 L 99.91,35.6 c -3.38,1.28 -4.78,1.8 -5.28,1.99 -0.5,0.19 -1.71,0.64 -2.68,1.01 -0.98,0.37 -1.86,0.7 -1.96,0.74 -0.09,0.04 -0.44,0.17 -0.76,0.28 -0.47,0.18 -0.6,0.21 -0.71,0.17 -0.07,-0.03 -0.64,-0.25 -1.26,-0.5 -0.63,-0.24 -1.58,-0.61 -2.11,-0.81 -0.53,-0.2 -1.48,-0.57 -2.1,-0.81 -0.63,-0.25 -1.28,-0.5 -1.45,-0.56 -0.16,-0.07 -1.02,-0.4 -1.9,-0.74 -0.88,-0.34 -1.82,-0.71 -2.1,-0.82 -0.28,-0.11 -0.52,-0.2 -0.54,-0.2 -0.01,0.01 -0.33,0.15 -0.71,0.32 z"
       fill="#ffffff"
       id="path14" />
    <path
       d="m 88.65,50.28 c -0.08,0.06 -1.02,0.76 -2.08,1.55 -1.06,0.8 -2.78,2.09 -3.83,2.87 -1.04,0.78 -2.75,2.06 -3.8,2.84 -1.05,0.79 -2,1.5 -2.11,1.58 -0.13,0.1 -0.22,0.21 -0.22,0.26 0,0.06 1.11,3.47 2.47,7.59 l 2.47,7.49 c 7.59,0.04 11.03,0.07 12.55,0.09 l 2.76,0.03 c 1.37,-4.52 2.02,-6.68 2.34,-7.72 0.31,-1.03 0.92,-3.06 1.36,-4.5 0.43,-1.44 0.79,-2.69 0.79,-2.77 0,-0.14 -0.13,-0.25 -1.66,-1.39 -0.91,-0.68 -3.12,-2.32 -4.91,-3.65 -1.78,-1.33 -3.84,-2.86 -4.57,-3.41 -0.73,-0.54 -1.35,-0.99 -1.37,-0.99 -0.02,0.01 -0.11,0.06 -0.19,0.13 z"
       id="path15" />
    <path
       d="m 63.98,85.05 c -0.29,0.2 -0.75,0.54 -1.01,0.75 -0.26,0.21 -0.8,0.71 -1.19,1.11 -0.39,0.39 -0.85,0.89 -1.02,1.1 l -0.3,0.39 c -0.98,0 -4.47,-0.09 -8.39,-0.2 -3.92,-0.1 -7.13,-0.19 -7.14,-0.19 -0.01,0.01 -0.08,1.4 -0.16,3.09 -0.08,1.69 -0.15,3.08 -0.15,3.08 0,0 -0.81,-0.01 -1.79,-0.02 -0.98,-0.01 -2.12,0.01 -2.52,0.03 -0.52,0.04 -0.82,0.08 -1.02,0.16 -0.15,0.05 -0.37,0.17 -0.49,0.24 -0.12,0.08 -0.32,0.27 -0.45,0.43 -0.13,0.15 -0.31,0.42 -0.4,0.61 -0.09,0.18 -0.21,0.48 -0.27,0.66 -0.06,0.18 -0.14,0.49 -0.19,0.7 -0.04,0.2 -0.07,0.45 -0.07,0.54 v 0.18 c -1.26,0 -1.9,0.04 -2.25,0.08 -0.34,0.05 -0.87,0.14 -1.19,0.2 -0.31,0.07 -0.67,0.17 -0.78,0.23 -0.12,0.05 -0.32,0.19 -0.45,0.29 -0.12,0.11 -0.3,0.31 -0.39,0.45 -0.09,0.14 -0.22,0.4 -0.28,0.58 -0.07,0.18 -0.17,0.54 -0.21,0.79 -0.04,0.25 -0.08,0.67 -0.08,0.93 v 0.47 c -0.69,0.04 -1.16,0.09 -1.5,0.13 -0.33,0.04 -0.88,0.12 -1.21,0.17 -0.34,0.06 -0.89,0.18 -1.22,0.27 -0.33,0.08 -0.86,0.26 -1.17,0.38 -0.3,0.12 -0.67,0.29 -0.81,0.37 -0.14,0.08 -0.39,0.25 -0.57,0.38 -0.17,0.13 -0.45,0.4 -0.61,0.6 -0.16,0.2 -0.38,0.55 -0.5,0.78 -0.12,0.22 -0.28,0.59 -0.36,0.81 -0.08,0.22 -0.19,0.58 -0.24,0.79 -0.04,0.21 -0.11,0.62 -0.15,0.91 -0.04,0.3 -0.08,0.75 -0.08,1.01 0,0.26 0.03,0.69 0.06,0.97 0.03,0.27 0.1,0.68 0.15,0.91 0.05,0.23 0.16,0.59 0.23,0.79 0.07,0.2 0.23,0.57 0.37,0.83 0.13,0.25 0.85,1.34 1.61,2.41 0.75,1.08 1.77,2.54 2.26,3.26 0.48,0.71 1.42,2.1 2.07,3.07 0.66,0.98 1.8,2.72 2.54,3.87 0.74,1.15 1.69,2.64 2.11,3.31 0.41,0.67 1.04,1.7 1.39,2.29 0.35,0.58 0.82,1.4 1.06,1.8 0.23,0.41 0.65,1.2 0.94,1.76 0.28,0.56 0.63,1.31 0.77,1.67 0.14,0.37 0.34,1 0.45,1.4 0.12,0.41 0.29,1.12 0.39,1.58 0.09,0.46 0.25,1.32 0.35,1.91 0.1,0.59 0.24,1.48 0.31,1.98 0.07,0.5 0.18,1.42 0.25,2.04 0.07,0.61 0.18,1.58 0.23,2.16 0.06,0.57 0.15,1.6 0.21,2.29 0.05,0.68 0.14,1.96 0.2,2.85 0.06,0.88 0.13,2.26 0.18,3.07 0.04,0.81 0.1,2.22 0.12,3.13 0.03,0.91 0.09,1.78 0.12,1.93 0.05,0.26 0.14,0.38 0.92,1.33 0.47,0.57 1.28,1.53 1.8,2.13 0.52,0.6 1.28,1.48 1.7,1.96 0.42,0.48 1.17,1.31 1.67,1.86 0.5,0.54 1.6,1.71 2.44,2.59 0.84,0.88 2.28,2.34 3.2,3.23 0.92,0.9 2.11,2.04 2.66,2.55 0.54,0.5 1.43,1.31 1.97,1.8 0.55,0.49 1.49,1.33 2.11,1.86 0.61,0.53 1.66,1.42 2.33,1.98 0.67,0.56 1.68,1.4 2.26,1.86 0.57,0.46 1.58,1.26 2.25,1.78 0.67,0.51 1.79,1.36 2.49,1.88 0.69,0.52 1.81,1.34 2.48,1.82 0.67,0.47 1.84,1.3 2.61,1.83 l 1.4,0.96 c 1.45,-0.99 2.5,-1.72 3.27,-2.27 0.76,-0.54 1.9,-1.36 2.53,-1.83 0.63,-0.46 1.57,-1.17 2.1,-1.57 0.53,-0.41 1.5,-1.17 2.16,-1.68 0.65,-0.52 1.66,-1.33 2.24,-1.81 L 89.39,181 c -0.23,-0.23 -5.99,-6.91 -12.96,-14.98 -6.96,-8.07 -12.69,-14.71 -12.73,-14.75 -0.06,-0.06 0.04,-0.17 0.75,-0.78 l 0.83,-0.71 c 2.55,0.07 3.66,0.09 4.1,0.09 0.45,-0.01 1.09,-0.05 1.42,-0.1 0.34,-0.04 0.85,-0.14 1.14,-0.21 0.3,-0.06 0.72,-0.18 0.94,-0.25 0.23,-0.08 0.62,-0.22 0.89,-0.33 0.26,-0.1 0.73,-0.31 1.04,-0.47 0.31,-0.15 0.69,-0.36 0.86,-0.48 0.17,-0.11 0.42,-0.31 0.56,-0.43 0.14,-0.13 0.38,-0.4 0.54,-0.61 0.16,-0.2 0.38,-0.54 0.49,-0.75 0.12,-0.21 0.28,-0.59 0.36,-0.84 0.09,-0.26 0.21,-0.69 0.27,-0.97 0.09,-0.43 0.11,-0.66 0.1,-1.5 0,-0.85 -0.02,-1.07 -0.13,-1.58 -0.07,-0.32 -0.18,-0.73 -0.26,-0.91 -0.07,-0.18 -0.2,-0.46 -0.29,-0.61 -0.1,-0.15 -0.33,-0.44 -0.52,-0.64 -0.2,-0.2 -0.55,-0.49 -0.79,-0.65 -0.24,-0.15 -0.62,-0.37 -0.86,-0.48 -0.24,-0.12 -0.66,-0.29 -0.94,-0.39 -0.28,-0.1 -0.72,-0.23 -0.99,-0.3 -0.26,-0.07 -0.74,-0.17 -1.06,-0.22 -0.32,-0.05 -0.92,-0.15 -1.33,-0.22 l -0.74,-0.13 c -3.6,-4.02 -4.68,-5.24 -4.73,-5.3 l -0.1,-0.12 c 1.79,-1.54 2.32,-1.97 2.34,-1.94 0.02,0.02 0.88,0.99 1.92,2.15 1.04,1.16 1.95,2.17 2.02,2.25 0.12,0.12 0.21,0.15 0.79,0.24 0.37,0.06 0.9,0.16 1.2,0.23 0.29,0.07 0.68,0.17 0.87,0.23 0.19,0.05 0.34,0.09 0.34,0.07 0,-0.01 -0.46,-0.57 -1.03,-1.23 -0.57,-0.66 -1.84,-2.14 -2.81,-3.27 -0.98,-1.13 -1.77,-2.07 -1.75,-2.09 0.02,-0.02 0.54,-0.47 1.16,-1.01 l 1.11,-0.97 c 0.2,0.23 7.86,9.11 17.16,19.89 l 16.91,19.59 c 0.2,-0.23 0.46,-0.54 0.72,-0.83 l 0.46,-0.52 c -2.21,-2.57 -9.81,-11.37 -18.31,-21.21 -8.5,-9.85 -15.49,-17.95 -15.53,-18 -0.06,-0.08 0.05,-0.18 1.09,-1.08 0.63,-0.55 1.17,-0.98 1.18,-0.95 0.02,0.02 7.51,8.7 16.65,19.29 9.14,10.59 16.69,19.32 16.78,19.42 l 0.16,0.16 1.13,-1.35 c -25.89,-29.98 -33.4,-38.7 -33.4,-38.72 0,-0.02 0.17,-0.18 0.38,-0.37 l 0.39,-0.33 c 0.64,0.14 1.05,0.21 1.33,0.25 0.28,0.04 0.77,0.09 1.08,0.12 l 0.58,0.04 c 21.78,25.23 28.87,33.44 29.82,34.53 0.94,1.1 1.73,1.99 1.75,1.99 0.03,0 0.28,-0.31 0.58,-0.69 l 0.53,-0.68 C 108.8,151.9 101.98,144 95.09,136.01 c -6.9,-7.98 -12.55,-14.54 -12.56,-14.57 -0.01,-0.03 0.31,-0.09 0.72,-0.14 0.4,-0.05 1,-0.15 1.32,-0.22 0.32,-0.07 0.75,-0.17 0.96,-0.23 l 0.38,-0.09 c 0.29,0.29 6.75,7.77 14.55,16.8 7.8,9.04 14.2,16.45 14.22,16.47 0.02,0.03 0.25,-0.26 0.52,-0.63 0.27,-0.37 0.5,-0.71 0.52,-0.76 0.02,-0.05 -3.25,-3.87 -10.25,-11.98 -5.65,-6.54 -11.96,-13.84 -14.01,-16.22 l -3.73,-4.32 c 0.52,-0.31 0.8,-0.5 0.97,-0.64 0.17,-0.13 0.44,-0.39 0.61,-0.57 0.17,-0.17 0.38,-0.43 0.47,-0.56 0.09,-0.13 0.18,-0.24 0.21,-0.23 0.02,0.01 6.23,7.18 13.8,15.93 7.56,8.76 13.76,15.93 13.78,15.94 0.02,0 0.25,-0.33 0.52,-0.74 0.41,-0.62 0.48,-0.76 0.43,-0.83 -0.03,-0.04 -3.36,-3.89 -7.39,-8.57 -4.03,-4.67 -10.26,-11.89 -13.85,-16.05 l -6.51,-7.55 c 0.1,-0.39 0.17,-0.72 0.22,-0.99 0.07,-0.39 0.09,-0.76 0.09,-1.89 v -1.41 c 0.25,0.29 6.81,7.89 14.75,17.08 7.94,9.19 14.45,16.72 14.47,16.72 0.02,0.01 0.25,-0.33 0.51,-0.76 0.39,-0.66 0.45,-0.78 0.4,-0.85 -0.04,-0.04 -3.59,-4.16 -7.9,-9.16 C 109,130 101.89,121.76 97.5,116.68 l -7.97,-9.23 c 0.01,-3.53 0.02,-4.55 0.05,-4.55 0.02,0 7.47,8.61 16.57,19.14 9.09,10.52 16.59,19.2 16.66,19.29 l 0.12,0.15 c 0.8,-1.42 1.04,-1.84 1.04,-1.86 0.01,-0.01 -2.56,-3.02 -5.71,-6.69 -3.15,-3.66 -11.48,-13.34 -18.5,-21.51 C 92.73,103.25 86.96,96.54 86.93,96.5 86.9,96.46 86.56,96.4 86.06,96.34 85.62,96.29 84.9,96.19 84.47,96.11 c -0.44,-0.07 -1.12,-0.19 -1.52,-0.28 -0.41,-0.09 -1.08,-0.25 -1.5,-0.36 -0.42,-0.11 -1.09,-0.31 -1.5,-0.44 -0.4,-0.13 -1.06,-0.35 -1.47,-0.5 -0.4,-0.15 -1.07,-0.42 -1.49,-0.6 -0.42,-0.18 -1.12,-0.5 -1.55,-0.72 -0.43,-0.21 -1.03,-0.53 -1.34,-0.7 -0.31,-0.17 -0.81,-0.46 -1.12,-0.65 -0.3,-0.19 -0.85,-0.53 -1.21,-0.77 -0.37,-0.24 -0.94,-0.63 -1.27,-0.88 -0.34,-0.25 -0.89,-0.68 -1.24,-0.96 -0.35,-0.28 -0.85,-0.71 -1.12,-0.94 -0.26,-0.24 -0.93,-0.88 -1.49,-1.43 -0.55,-0.55 -1.23,-1.26 -1.5,-1.59 -0.28,-0.33 -0.54,-0.6 -0.57,-0.6 -0.04,0 -0.3,0.16 -0.6,0.36 z"
       fill="#ffffff"
       id="path16" />
    <path
       d="m 101.15,94.18 c -0.1,0.04 -0.62,0.23 -1.17,0.41 -0.54,0.18 -1.49,0.48 -2.1,0.66 -0.62,0.18 -1.43,0.41 -1.8,0.5 -0.38,0.1 -0.96,0.23 -1.3,0.31 -0.33,0.07 -0.88,0.17 -1.21,0.23 -0.34,0.06 -0.93,0.13 -1.32,0.18 -0.39,0.04 -1,0.07 -1.36,0.07 -0.35,0 -0.64,0.02 -0.63,0.05 0.01,0.02 2.28,2.68 5.05,5.91 2.78,3.23 5.28,6.1 5.56,6.39 0.28,0.29 0.52,0.52 0.54,0.52 0.02,0 0.04,-3.44 0.04,-7.66 0,-6.09 -0.01,-7.65 -0.06,-7.65 -0.04,0 -0.14,0.04 -0.24,0.08 z m 33.97,20.63 c -0.03,0.1 -0.06,0.18 -0.05,0.18 0,0.01 0.03,0.02 0.07,0.02 0.06,0 0.08,-0.06 0.08,-0.18 0,-0.1 -0.01,-0.18 -0.02,-0.18 -0.02,0 -0.05,0.07 -0.08,0.16 z"
       fill="#b20d11"
       id="path17" />
    <path
       d="m 81.05,142.42 c 0.02,0.33 0.01,0.92 -0.02,1.34 l -0.06,0.75 c 0.96,1.12 1.45,1.7 1.72,2.01 0.27,0.3 1.38,1.59 2.46,2.84 1.09,1.26 2.56,2.97 3.27,3.79 0.71,0.83 2.18,2.53 3.26,3.78 1.08,1.25 2.85,3.3 3.93,4.55 1.07,1.25 2.26,2.62 2.62,3.04 0.36,0.42 0.8,0.92 0.97,1.12 0.16,0.19 0.61,0.71 0.98,1.15 0.38,0.43 0.96,1.11 1.3,1.5 0.33,0.39 0.64,0.73 0.67,0.75 0.04,0.02 0.28,-0.2 0.67,-0.61 l 0.6,-0.65 c -0.33,-0.36 -1.05,-1.2 -1.82,-2.09 -0.77,-0.89 -2.22,-2.58 -3.22,-3.74 -1,-1.16 -2.71,-3.14 -3.8,-4.4 -1.08,-1.26 -3,-3.48 -4.26,-4.93 -1.25,-1.46 -3.17,-3.68 -4.26,-4.93 -1.08,-1.26 -2.63,-3.06 -3.44,-4 -0.8,-0.93 -1.5,-1.74 -1.54,-1.78 -0.06,-0.06 -0.06,0 -0.03,0.51 z m -1.5,5.89 c -0.15,0.24 -0.39,0.58 -0.52,0.74 l -0.24,0.29 c 0.22,0.25 1.16,1.35 2.23,2.59 1.07,1.25 2.31,2.69 2.76,3.21 0.45,0.51 1.26,1.45 1.79,2.07 0.54,0.62 1.41,1.64 1.95,2.26 0.54,0.63 1.25,1.46 1.59,1.85 0.34,0.39 1.38,1.59 2.3,2.67 0.93,1.07 2.02,2.34 2.43,2.82 0.41,0.47 0.99,1.15 1.3,1.5 0.31,0.36 1.18,1.38 1.95,2.27 0.77,0.89 1.46,1.7 1.55,1.79 l 0.15,0.17 1.27,-1.27 c -1.42,-1.63 -2.22,-2.56 -2.69,-3.11 -0.47,-0.55 -1.07,-1.24 -1.32,-1.53 -0.25,-0.29 -0.92,-1.07 -1.49,-1.73 -0.57,-0.65 -1.59,-1.84 -2.28,-2.64 -0.69,-0.79 -1.47,-1.71 -1.75,-2.03 -0.28,-0.33 -1.32,-1.53 -2.31,-2.68 -0.99,-1.14 -2.39,-2.77 -3.12,-3.61 -0.72,-0.84 -2.19,-2.54 -3.26,-3.79 -1.07,-1.24 -1.96,-2.27 -1.98,-2.27 -0.02,-0.01 -0.16,0.19 -0.31,0.43 z m -3.65,3.06 c -0.21,0.1 -0.57,0.27 -0.8,0.36 -0.23,0.1 -0.42,0.19 -0.42,0.2 0,0.02 0.94,1.12 2.09,2.44 1.14,1.33 2.34,2.72 2.65,3.08 0.31,0.37 1.4,1.63 2.42,2.8 1.01,1.18 2.27,2.64 2.8,3.26 0.53,0.61 1.62,1.87 2.41,2.79 0.8,0.93 2.41,2.79 3.58,4.15 1.17,1.35 2.21,2.56 2.3,2.67 0.1,0.12 0.67,0.77 1.26,1.46 l 1.08,1.26 c 0.29,-0.24 0.59,-0.51 0.85,-0.75 l 0.47,-0.45 c -2.3,-2.68 -3.93,-4.56 -5.1,-5.92 -1.17,-1.36 -2.7,-3.13 -3.4,-3.94 -0.69,-0.82 -1.77,-2.06 -2.38,-2.77 -0.61,-0.72 -2.07,-2.41 -3.25,-3.77 -1.17,-1.36 -2.78,-3.22 -3.57,-4.15 -0.79,-0.92 -1.68,-1.95 -1.97,-2.28 -0.29,-0.34 -0.56,-0.62 -0.59,-0.63 -0.03,0 -0.22,0.08 -0.43,0.19 z m -4.92,1.45 c -0.02,0.01 -0.41,0.05 -0.89,0.08 -0.47,0.04 -0.86,0.07 -0.87,0.08 -0.01,0.01 0.64,0.78 1.44,1.71 0.8,0.93 2.41,2.79 3.57,4.14 1.16,1.34 3.36,3.89 4.89,5.67 1.53,1.77 3.83,4.43 5.09,5.9 1.27,1.47 2.67,3.09 3.12,3.61 0.45,0.52 1.61,1.86 2.58,2.99 0.96,1.12 1.77,2.04 1.79,2.04 0.03,0 0.27,-0.2 0.54,-0.44 0.28,-0.25 0.57,-0.5 0.66,-0.57 l 0.15,-0.13 c -0.86,-0.99 -1.45,-1.67 -1.87,-2.16 -0.42,-0.49 -0.94,-1.09 -1.14,-1.32 -0.21,-0.24 -1.31,-1.52 -2.45,-2.85 -1.15,-1.33 -2.67,-3.09 -3.38,-3.92 -0.71,-0.83 -2.68,-3.11 -4.38,-5.09 -1.7,-1.97 -3.67,-4.26 -4.39,-5.08 -0.71,-0.83 -1.91,-2.22 -2.66,-3.09 l -1.37,-1.59 c -0.32,0 -0.42,0.01 -0.43,0.02 z"
       fill="#ffffff"
       id="path18" />
    <path
       d="m 106.62,176.13 -0.33,0.35 c 0.53,-0.52 0.69,-0.67 0.69,-0.68 0,-0.01 -0.01,-0.01 -0.02,-0.01 0,0 -0.16,0.15 -0.34,0.34 z m -60.41,0.83 c 0.51,0.5 0.93,0.91 0.94,0.91 0.02,0 -0.38,-0.41 -0.87,-0.91 -0.5,-0.51 -0.92,-0.92 -0.94,-0.92 -0.02,0 0.37,0.41 0.87,0.92 z m 58.51,1.08 -0.51,0.52 c 0.81,-0.79 1.04,-1.02 1.04,-1.03 0,-0.01 0,-0.01 -0.01,-0.01 -0.01,0 -0.24,0.23 -0.52,0.52 z"
       fill="#a8996e"
       id="path19" />
  </g>
</svg>
