<?xml version="1.0" encoding="UTF-8" standalone="no"?>
<svg
   clip-rule="evenodd"
   fill-rule="evenodd"
   stroke-linejoin="round"
   stroke-miterlimit="2"
   viewBox="0 0 200.00006 287.03625"
   version="1.1"
   id="svg57"
   sodipodi:docname="Bradford.svg"
   width="200.00006"
   height="287.03625"
   xmlns:inkscape="http://www.inkscape.org/namespaces/inkscape"
   xmlns:sodipodi="http://sodipodi.sourceforge.net/DTD/sodipodi-0.dtd"
   xmlns="http://www.w3.org/2000/svg"
   xmlns:svg="http://www.w3.org/2000/svg">
  <defs
     id="defs57" />
  <sodipodi:namedview
     id="namedview57"
     pagecolor="#ffffff"
     bordercolor="#000000"
     borderopacity="0.25"
     inkscape:showpageshadow="2"
     inkscape:pageopacity="0.0"
     inkscape:pagecheckerboard="0"
     inkscape:deskcolor="#d1d1d1" />
  <g
     transform="matrix(0.57241,0,0,0.57241,-1278.7639,-668.20155)"
     id="g57">
    <path
       d="m 2387.2,1345.9 c -2.5,-3 0,-6.1 1.7,-7 -3,0.8 -2.7,-1 -5.1,1.3 -0.4,-4 -0.1,-4.9 3.8,-5.5 3.9,-0.6 11.1,-1.5 14,-1.1 3,0.4 4.2,0.4 5.3,0.8 l -1.3,-7.2 c 0.6,-3.6 -0.8,-17.7 -0.8,-17.7 -6.1,-1.5 -13.3,-7.4 -16.7,-12 -3.4,-4.6 0,-2.3 -7,-3.6 -7,-1.3 -14.6,-0.6 -22.8,-5.1 -8.2,-4.4 -15,-7.6 -15.2,-25.5 -0.2,-17.9 0.6,-21.5 3,-23.8 0.2,-7.8 3.4,-18.8 4.6,-20.9 1.3,-2.1 4.2,-5.3 6.5,-7.8 -5.5,1.3 -12.4,0.8 -12,-4.9 0.4,-5.7 1.9,-9.5 5.1,-11.6 -4,-0.8 -6.5,-1.3 -9.1,0.4 0.6,-3.1 3,-6.3 4.9,-6.8 0.3,-3.4 2.2,-7 5.1,-8.2 -2.2,-3.1 -3.7,-8.4 0.3,-9.6 3.9,-1.1 2.6,-1 4.7,0.1 2.1,1.1 3.7,1.1 4.9,0.3 1.2,-0.8 2.2,-0.8 3.3,-0.3 1.1,0.4 2,-0.1 3.6,-1.1 7.8,-4.9 8,1.7 7.6,4.9 3.6,0.8 3.8,3.6 3.6,6.1 3.6,3.6 1.7,8.2 -1.5,5.3 -0.6,1.3 -1.7,2.7 -0.4,4.6 2.5,3.8 3,15.2 2.7,21.7 -0.2,6.5 5.2,17.8 8.4,21.1 4.6,4.6 15,5.3 23,4.9 8,-0.4 15,-2.7 20.2,-11 5.3,-8.2 8.4,-12.9 11.2,-17.5 2.7,-4.6 12.8,-18 18.6,-21.9 10.3,-7 32,-7.5 45.9,10 -1.7,0 -1,0.8 -4.2,-0.9 0.6,4.2 -1.7,7.4 -5.3,6.1 -3.6,-1.3 -6.7,-1.8 -5.1,2.9 -7.2,-2.5 -11.6,-3.1 -9.1,2 2.2,4.5 3.2,6.3 2.7,10.3 20.2,13.3 19.4,37.5 1.9,48.5 -2.7,-3 -5,-4 -6.6,0.7 -2.9,-1.6 -4.3,-1.4 -5.8,-0.9 2.1,7.5 -2.9,14.4 -8.1,17.4 -0.6,-4.2 -3.2,-5.1 -4.9,-6.1 -2.6,4.2 -5.8,7 -7.9,8.7 -2.1,1.7 -3.6,3.7 -2.3,6.3 -3.4,-2.3 -3.4,-3 -4,-4 -3.4,1.7 -6.5,2.7 -7.6,5.3 -1.5,-0.2 -2.1,1.1 -4.4,-0.3 -2.8,3.7 -4.5,4.5 -7,5.2 l -2.6,-1.7 c -2.5,4 -5.5,6.3 -11.6,7.1 0.8,7.8 1.1,17.3 0.6,20.7 3,-2.3 5.1,-3.8 7.4,-2.1 -2.5,2.5 -8.4,9.7 -10.5,14.8 -0.6,1.5 -2.7,1.5 -4.9,1.5 -2.1,0 -8,2.7 -14.1,1.9 -1.9,1.7 -3.6,2.5 -5.7,3.8 -1.9,1.4 -1,0.6 -1,1.4 z"
       fill="#ffffff"
       id="path1" />
    <path
       d="m 2408.7,1633.4 c 89.4,0 116.1,-14.5 124.2,-17.4 4.1,-4.1 -2.9,-7 -8.7,-10.5 v -33.1 c 0,-13.3 36,-6.4 57.5,-19.7 0,0 -8.7,13.9 -18.6,20.9 7.5,7 18.6,22.6 20.3,26.1 0,0 -22.6,-12.2 -31.9,-9.3 5.8,2.3 13.9,8.1 13.9,12.8 v 31.9 c -22.6,20.3 -84.7,33.7 -156.7,33.7 -72,0 -134.1,-13.4 -156.7,-33.7 v -31.9 c 0,-4.6 8.1,-10.4 13.9,-12.8 -9.3,-2.9 -31.9,9.3 -31.9,9.3 1.7,-3.5 12.8,-19.2 20.3,-26.1 -9.9,-7 -18.6,-20.9 -18.6,-20.9 21.5,13.4 57.5,6.4 57.5,19.7 v 33.1 c -5.8,3.5 -12.8,6.4 -8.7,10.5 8.1,2.9 34.8,17.4 124.2,17.4 z"
       fill="#f7a30a"
       id="path2" />
    <path
       d="m 2293.2,1605.5 c -5.8,3.5 -12.8,6.4 -8.7,10.5 l 2.6,1.2 c -13.4,-4.6 -31.9,-11 -35.1,-13.9 0,-4.6 8.1,-10.4 13.9,-12.8 7,-3.5 27.3,-11.3 27.3,-19.7 z"
       id="path3" />
    <path
       d="m 2524.2,1605.5 c 5.8,3.5 12.8,6.4 8.7,10.5 l -2.6,1.2 c 13.4,-4.6 31.9,-11 35.1,-13.9 0,-4.6 -8.1,-10.4 -13.9,-12.8 -7,-3.5 -27.3,-11.3 -27.3,-19.7 z"
       id="path4" />
    <path
       d="m 2295.7,1648.3 -3.9,-1.2 4.5,-15.6 -5.7,-1.7 0.9,-3.4 15.5,4.5 -0.9,3.4 -5.8,-1.7 z"
       id="path5" />
    <path
       d="m 2315.6,1644 -1.7,8.7 -4.1,-0.8 3.8,-19.5 4.1,0.8 -1.5,7.4 7.6,1.5 1.5,-7.4 4,0.8 -3.8,19.5 -4.1,-0.8 1.8,-8.7 z"
       id="path6" />
    <path
       d="m 2351.9,1642.2 -10.5,-1.3 -0.5,4.1 9.6,1.2 -0.5,3.5 -9.5,-1.2 -0.7,5.1 10.9,1.4 -0.5,3.5 -14.9,-2 2.6,-19.6 14.4,1.8 z"
       id="path7" />
    <path
       d="m 2372,1660.4 1,-19.8 3.8,3.6 -0.2,4.3 4.9,0.3 c 1.6,0.1 3,-0.5 3,-2.1 0.1,-1.6 -1,-2.2 -2.9,-2.3 l -4.7,-0.2 -3.8,-3.6 9.6,0.5 c 4.9,0.3 5.9,3.3 5.8,5.4 -0.1,2.8 -1.8,3.6 -2.6,3.9 2.4,1 2.9,3 2.8,5 -0.1,1.6 -0.8,3 -1.9,4 -1.2,1 -2.3,1.7 -6.4,1.5 l -8.4,-0.5 4.1,-3.2 5.1,0.3 c 2,0.1 3.2,-0.7 3.3,-2.7 0.1,-1.7 -1.4,-2.5 -2.9,-2.6 l -5.3,-0.3 -0.3,5.3 z"
       id="path8" />
    <path
       d="m 2402.8,1654 h 5 l -2.4,-7.8 -2.6,7.8 -1.1,3.4 -1.4,4.1 h -4.4 l 7.2,-19.8 h 4.8 l 6.8,19.9 -4.5,-0.1 -1.2,-4 -7.3,-0.1 z"
       id="path9" />
    <path
       d="m 2434.3,1641.1 3.8,-0.1 0.8,19.8 -4.2,0.2 -8.6,-13.9 0.5,14.2 -3.9,0.1 -0.7,-19.8 4.3,-0.2 8.4,13.5 h 0.1 z"
       id="path10" />
    <path
       d="m 2456.8,1659.5 -4.1,0.3 -1.4,-16.2 -6,0.5 -0.3,-3.5 16.1,-1.4 0.3,3.5 -6,0.5 z"
       id="path11" />
    <path
       d="m 2475,1649.9 5.1,-0.6 -3.5,-7.5 h -0.1 l -1.5,8.1 -0.6,3.6 -0.8,4.2 -4.3,0.6 4.3,-20.6 4.7,-0.6 9.6,18.7 -4.4,0.6 -1.8,-3.9 -7.3,1 z"
       id="path12" />
    <path
       d="m 2515,1650.4 -3.8,0.8 -3.5,-16.2 -0.2,17 -3.9,0.8 -7.1,-15.4 3.5,16.2 -3.8,0.8 -4.2,-19.4 5.9,-1.3 6.8,14.6 h 0.1 l 0.2,-16.1 5.8,-1.2 z"
       id="path13" />
    <path
       d="m 2525.9,1640.9 c 0.4,1 1.6,2.9 5,1.7 1.9,-0.6 3.8,-1.8 3.1,-3.7 -0.5,-1.5 -2,-1.4 -4.2,-1.2 l -2.2,0.2 c -3.3,0.3 -6.4,0.6 -7.8,-3.5 -0.7,-2.1 -0.8,-6.2 5.3,-8.2 5.8,-1.9 8.6,1.3 9.4,3.6 l -3.8,1.3 c -0.4,-0.8 -1.4,-2.7 -4.8,-1.6 -1.5,0.5 -3.1,1.6 -2.5,3.3 0.5,1.5 1.8,1.4 2.6,1.3 l 5,-0.4 c 2.8,-0.2 5.5,0 6.6,3.4 1.9,5.7 -3.7,8.1 -5.4,8.6 -6.9,2.3 -9.4,-1.3 -10.1,-3.6 z"
       id="path14" />
    <path
       d="m 2466.8,1352.4 65.6,52.8 c -15.1,18 -27.3,40 -27.3,69.7 0,29.6 12.2,54.6 29,72 l -23.2,42.9 c -22.6,0 -68.5,14.5 -102.2,49.9 -33.7,-35.4 -79.5,-49.9 -102.2,-49.9 l -23.2,-43 c 16.8,-17.4 29,-42.4 29,-72 0,-29.6 -12.2,-51.7 -27.3,-69.7 l 65.6,-52.8 h 116.2 z"
       id="path15" />
    <path
       d="m 2354.1,1366.9 -50.7,41.4 c 12.9,17.2 23.2,41 23.2,66.7 0,25.7 -11.7,55.7 -26.2,72.5 l 14.5,28.5 c 20.8,0 65.6,15.3 93.8,44.4 27.8,-29.1 73,-44.4 93.8,-44.4 l 14.5,-28.5 c -14.5,-16.8 -26.2,-46.8 -26.2,-72.5 0,-25.7 10.4,-49.5 23.2,-66.7 l -50.7,-41.4 z"
       fill="#ffffff"
       id="path16" />
    <path
       d="m 2485.3,1475 c 0,-24.2 9.7,-48.7 21.7,-65.6 l -45,-37 h -106.5 l -45,37 c 12,16.9 21.7,41.4 21.7,65.6 0,24.2 -11.5,56.1 -25.2,72.7 l 11.2,23 c 20.1,0 64.5,15.5 90.6,42.3 25.5,-26.7 70.5,-42.3 90.6,-42.3 l 11.2,-23 c -13.8,-16.6 -25.3,-48.4 -25.3,-72.7 z"
       fill="#f7a30a"
       id="path17" />
    <path
       d="m 2510.5,1547.7 c -13.7,-16.6 -25.2,-48.4 -25.2,-72.7 0,-24.2 9.7,-48.7 21.7,-65.6 l -35.9,-29.5 v 196.3 c 11.2,-3.6 21.2,-5.5 28.2,-5.5 z"
       fill="#75263b"
       id="path18" />
    <path
       d="M 2387.8,1372.4 V 1596 c 7.6,5 14.8,10.6 20.9,16.9 6,-6.3 13.1,-11.9 20.7,-16.9 v -223.6 z"
       fill="#75263b"
       id="path19" />
    <path
       d="m 2310.4,1409.4 c 12,16.9 21.7,41.4 21.7,65.6 0,24.2 -11.5,56.1 -25.2,72.7 l 11.2,23 c 7,0 16.9,1.9 27.9,5.5 v -196 z"
       fill="#75263b"
       id="path20" />
    <path
       d="m 2384.9,1461 c 12.8,-6.4 23.8,-12.2 23.8,-32.5 0,-29.6 -24.4,-32.5 -37.7,-32.5 h -34.8 v 4.1 h 8.7 v 131.2 h -8.7 v 3.5 h 34.8 c 18,0 39.5,-11.6 39.5,-37.7 0,-19.9 -12.2,-30.3 -25.6,-36.1 z m -2.9,63.8 c 0,5.5 -2.9,6.4 -11,6.4 v -66.8 c 8.1,0 11,0.9 11,6.4 z m 0,-71.4 c 0,5.5 -2.9,6.4 -11,6.4 V 1400 c 8.1,0 11,0.9 11,6.4 z"
       fill="#ffffff"
       id="path21" />
    <path
       d="m 2444.7,1401.2 c 0,-2.3 1.7,-3.3 3.8,-3.3 13,0 22.2,21.2 25.4,50 h 4.5 v -54 h -4.4 l -8.2,9.4 c -5,-6.7 -11,-10.6 -17.3,-10.6 -21.5,0 -33.2,32.5 -33.2,72.6 0,40.1 11.8,72.6 33.2,72.6 19.3,0 29.4,-26.3 31.5,-60.9 h -5.2 c -1.9,31.6 -10.1,55.7 -26.2,55.7 -2,0 -3.8,-1.6 -3.8,-4.2 v -127.3 z"
       fill="#ffffff"
       id="path22" />
    <path
       d="m 2336.7,1543.3 h 144 v 30.3 h -144 z"
       id="path23" />
    <path
       d="m 2377.4,1546.8 h -5.6 l -8.3,23.2 h 5.1 l 1.6,-4.8 h 8.5 l 1.5,4.8 h 5.3 z m -5.9,14.4 3,-9.2 h 0.1 l 2.9,9.2 z"
       fill="#f0f5f7"
       id="path24" />
    <path
       d="m 2408.9,1570 h -4.8 v -23.2 h 16.5 v 4.1 h -11.7 v 5.3 h 10.2 v 4.1 h -10.2 z"
       fill="#f6f9fb"
       id="path25" />
    <path
       d="m 2454.1,1554.4 c -0.4,-1.4 -1.1,-4 -5.1,-4 -2.3,0 -5.7,1.5 -5.7,8.1 0,4.2 1.6,7.9 5.7,7.9 2.7,0 4.5,-1.5 5.1,-4.4 h 4.8 c -1,5 -4.3,8.5 -10.1,8.5 -6.2,0 -10.6,-4.2 -10.6,-12.2 0,-8.1 4.7,-12.2 10.6,-12.2 6.9,0 9.7,4.8 10,8.2 h -4.7 z"
       fill="#f6f9fb"
       id="path26" />
    <path
       d="m 2349.8,1181.5 c 1.7,-1.7 5.2,-2.3 10.2,-2.3 7,0 20.3,5.5 20.3,27.3 0,7 -2.6,14.8 9.9,29.3 -0.9,1.7 -5.2,-0.3 -9,-5.5 -0.9,3.8 -1.2,7.5 2.6,11 -3.8,0 -7.8,-0.3 -10.2,-4.1 -2.3,2 -6.4,2.6 -9,0.3 -1.7,1.5 -6.4,8.4 -6.7,-0.6 -0.3,-5.8 -8.4,-3.8 -8.4,-11.3 0,-11 12.2,-15.1 12.2,-21.5 0,-1.5 -2.3,-2.3 -2.3,-3.8 0,-6.4 5.5,-2.3 5.5,-10.2 0,-6.4 -5.2,-6.7 -14.2,-7.3 -1.2,0.2 -2.1,-0.4 -0.9,-1.3 z"
       id="path27" />
    <path
       d="m 2352.4,1191.4 c 0,0 -1.2,-3.2 -4.4,-3.2 -2.6,0.6 -5.5,1.5 -5.8,5.8 2.8,-2.9 6.4,0.3 10.2,-2.6 z"
       id="path28" />
    <path
       d="m 2357.3,1190.3 c 1,0 1.8,-0.8 1.8,-1.8 0,-1 -0.8,-1.8 -1.8,-1.8 -1,0 -1.8,0.8 -1.8,1.8 0,1 0.8,1.8 1.8,1.8 z"
       id="path29" />
    <path
       d="m 2353,1194 c -2.6,0 -7,4.1 -7,11.9 0,3.2 2.6,5.2 5.5,0.9 2.4,-4.4 6.7,-12.8 1.5,-12.8 z"
       id="path30" />
    <path
       d="m 2345.4,1241 c -2.3,4.9 -2,14.2 -2,25 0,30.5 38.9,25.5 43.5,29.6 3.8,4.1 7.5,11.6 16,12.2 -3.2,-4.4 -9.6,-16.3 -17.1,-17.4 -19.4,-2.9 -38,-9.3 -38,-24.7 0,-4.9 -0.6,-16 0.6,-24.1 0.5,-3.2 -2.1,-1.8 -3,-0.6 z"
       fill="#6d767a"
       id="path31" />
    <path
       d="m 2394.6,1239.4 c 0,-0.6 -0.1,-1.4 -0.4,-2.5 11,1.5 25.2,2.9 31.1,-2.3 16.5,-13.9 23.8,-51.4 51.4,-51.4 9.9,0 21.2,3.2 30.8,14.2 -5.2,0 -17.4,-10.4 -30.5,-10.4 -24.4,0 -35.4,44.7 -49.9,51.1 -5.2,2.6 -22.3,5.2 -29.6,3.2 z"
       id="path32" />
    <g
       fill="#f7a30a"
       id="g36">
      <path
         d="m 2350.4,1171.6 c 6.4,-3.5 5.8,1.2 10.7,-0.9 3.8,-1.5 2.9,1.7 8.4,-1.7 2.6,-1.5 7,-2.6 5.8,5.8 3.2,-0.3 3.8,2.3 3.8,6.1 2,1.7 2.9,8.1 -2.6,3.2 -3.2,-3.2 -5.8,-8.1 -24.1,-8.1 -2.3,0 -4.9,-2.6 -2,-4.4 z"
         id="path33" />
      <path
         d="m 2351.8,1238.7 c -1.2,8.1 -1.5,23.8 -0.6,27.6 4.6,16 21.5,13.3 25,17.7 1.5,2.3 8.1,3.8 6.1,-0.9 -6.4,-12.5 -17.7,-2.9 -22.9,-17.1 -2.9,-8.1 0.3,-13.3 0.3,-18.3 0,-4.9 -4.9,0 -4.9,-7.8 -0.9,-0.9 -3,-2.7 -3,-1.2 z"
         id="path34" />
      <path
         d="m 2393.9,1241 c -0.9,0.7 -2.2,0.6 -2,1.7 1.7,4.4 10.2,3.8 12.2,11.9 1.5,3.5 6.1,9 9.6,6.7 -2.9,-4.6 -2,-10.4 4.6,-10.4 2.9,0 9.3,6.4 9,1.5 -0.3,-4.1 7,1.5 6.7,-2.9 -0.3,-5.2 5.8,-2 6.4,-6.1 0.6,-4.1 6.4,-7.3 10.5,-7 -6.4,-7 -20.6,8.7 -38.3,8.7 -4.4,0 -10.5,-0.7 -13.9,-2.8 -0.1,-0.1 -3.4,-0.3 -4.8,-1.3 z"
         id="path35" />
      <path
         d="m 2440.1,1232.3 c 6.1,-12.2 20,-39.5 33.4,-41.5 1.7,3.2 -0.3,5.2 -6.1,8.7 -7.5,4.9 -16.8,16.3 -24.1,30.5 -0.1,0 -1.5,1.1 -3.2,2.3 z"
         id="path36" />
    </g>
    <path
       d="m 2452,1221.6 c 6.1,-10.2 21.2,-34 51.4,-22.6 -0.6,2.9 -1.7,5.5 -8.1,2.9 -2,-0.9 -3.8,1.5 -2.3,3.8 -1.4,0.6 -11.3,-4.9 -9.9,0.3 1.5,3.2 5.2,9.6 2,15.7 -7,-4.9 -10.7,-4.6 -19.7,-4.6 -4.2,-0.2 -9.1,4.5 -13.4,4.5 z"
       id="path37" />
    <path
       d="m 2379.1,1264.5 c 0.3,8.1 6.1,9.9 10.2,11.6 6.4,3.2 22.9,10.4 22.9,16.8 0,3.2 0.6,10.2 0.6,11 1.2,0.6 9.6,0.6 14.5,-7 l 2.6,1.7 c 0,0 5.2,-1.7 7,-5.2 l 4.4,0.3 c 0.6,-2 5.5,-5.5 8.1,-5.2 0,0 0.3,1.7 2.6,2.6 0,-4.6 9.9,-9.9 11,-13.6 2,0.6 6.7,3.2 4.9,6.1 2.3,-1.5 10.7,-8.7 8.1,-17.4 0,0 4.6,-1.7 5.8,0.9 0,0 1.5,-2.9 2.3,-3.2 0,0 4.1,0.3 3.8,2.3 3.8,-2.3 4.6,-7.8 4.6,-16.8 0,-8.1 -7.3,-22.3 -32.5,-21.5 -0.6,1.7 1.5,3.2 4.6,3.5 3.2,0.3 9.9,2.9 12.8,7.8 -7.8,-4.1 -24.7,-4.9 -27.6,2.3 2,-0.3 9.6,0.6 12.8,5.5 0,0 -5.5,-0.9 -6.7,-1.7 0,0 -0.6,3.2 2,5.5 -2.6,-0.3 -4.9,-2 -8.4,-4.1 -0.9,-0.6 -2,2 0,3.8 3.2,2.6 8.4,8.4 10.2,13.9 0,0 -1.2,3.5 -3.5,0 -0.3,-1.2 -7.5,-9.6 -10.7,-11.9 -3.2,-2.3 -5.2,1.2 -2,3.8 1.5,1.2 8.7,7.8 8.4,11.9 0,0 -0.3,5.2 -4.1,0.3 -3.2,-4.4 -8.4,-8.4 -11.3,-9.9 -4.4,-2.3 -3.8,1.2 -1.5,3.5 0,0 6.4,7.3 7.5,10.7 0.9,1.7 -2,3.2 -4.4,0.6 -2.9,-3.8 -11,-11.3 -15.1,-13.9 -4.4,-2.6 -5.8,0.3 -2.6,3.5 2.9,3.2 9.3,11 9.3,13.4 0,2 -5.5,3.5 -9.3,3.5 -10.7,0 -26.4,-6.7 -36.3,-13.6 -1.2,-0.9 -3,-1.8 -5,-1.8 z"
       id="path38" />
    <path
       d="m 2492.6,1223.3 c -3.2,1.7 -2.6,4.1 -0.6,6.4 2.6,3.2 7.5,12.2 4.4,28.7 6.6,-6.4 7.2,-25.5 -3.8,-35.1 z"
       id="path39" />
    <path
       d="m 2405.2,1310.1 c 0,3.5 1.7,12.2 1.2,15.4 -1.2,1.7 -0.9,3.8 3.2,2.6 0,0 0.6,-10.4 -0.9,-18.6 z"
       id="path40" />
    <path
       d="m 2410.7,1309.2 c 0,0 1.7,18.6 0.9,22.6 l -3.8,2.9 c -6.7,-1.5 -13.9,0 -20.3,0 -2.9,0 -5.2,2.6 -3.8,5.5 0,0 3.2,-2.6 5.8,-1.2 -1.2,0.6 -4.6,2.9 -2.3,6.4 0.9,-2 3.2,-1.2 6.1,-4.6 5.5,0 13.1,-2.3 17.1,-2 2,0 3.8,-3.8 4.1,-5.2 0,0 4.6,-7.5 7.5,-9.6 3.2,-1.7 -1.5,-1.4 -3.2,-0.6 l -3.2,2.6 c 0.6,-3.5 0,-12.5 -0.9,-17.4 0.1,0 -4.8,-2 -4,0.6 z"
       id="path41" />
    <path
       d="m 2524.2,1605.5 c 5.8,3.5 12.8,6.4 8.7,10.5 l -2.6,1.2 c 13.4,-4.6 31.9,-11 35.1,-13.9 0,-4.6 -8.1,-10.4 -13.9,-12.8 -7,-3.5 -27.3,-11.3 -27.3,-19.7 z"
       id="path42" />
    <path
       d="m 2386.9,1295.6 c -4.6,-4.1 -43.5,0.9 -43.5,-29.6 0,-10.7 -0.3,-20 2,-25 0.9,-1.2 3.5,-2.6 2.9,0.6 -1.2,8.1 -0.6,19.2 -0.6,24.1 0,15.4 18.6,21.8 38,24.7 7.5,1.2 13.9,13.1 17.1,17.4 -8.3,-0.6 -12.1,-8.2 -15.9,-12.2 z"
       fill="#6d767a"
       id="path43" />
    <path
       d="m 2385.8,1290.3 c -19.4,-2.9 -38,-9.3 -38,-24.7 0,-4.9 -0.6,-16 0.6,-24.1 0.6,-3.2 -2,-1.7 -2.9,-0.6 -2.3,4.9 -2,14.2 -2,25 0,30.5 38.9,25.5 43.5,29.6 3.8,4.1 7.5,11.6 16,12.2 -3.3,-4.3 -9.7,-16.2 -17.2,-17.4 z"
       fill="#6d767a"
       id="path44" />
    <path
       d="m 2386.9,1295.6 c -4.6,-4.1 -43.5,0.9 -43.5,-29.6 0,-10.7 -0.3,-20 2,-25 0.9,-1.2 3.5,-2.6 2.9,0.6 -1.2,8.1 -0.6,19.2 -0.6,24.1 0,15.4 18.6,21.8 38,24.7 7.5,1.2 13.9,13.1 17.1,17.4 -8.3,-0.6 -12.1,-8.2 -15.9,-12.2 z"
       fill="#666d71"
       id="path45" />
    <path
       d="m 2385.8,1290.3 c -19.4,-2.9 -38,-9.3 -38,-24.7 0,-4.9 -0.6,-16 0.6,-24.1 0.6,-3.2 -2,-1.7 -2.9,-0.6 -2.3,4.9 -2,14.2 -2,25 0,30.5 38.9,25.5 43.5,29.6 3.8,4.1 7.5,11.6 16,12.2 -3.3,-4.3 -9.7,-16.2 -17.2,-17.4 z"
       fill="#666d71"
       id="path46" />
    <path
       d="m 2386.9,1295.6 c -4.6,-4.1 -43.5,0.9 -43.5,-29.6 0,-10.7 -0.3,-20 2,-25 0.9,-1.2 3.5,-2.6 2.9,0.6 -1.2,8.1 -0.6,19.2 -0.6,24.1 0,15.4 18.6,21.8 38,24.7 7.5,1.2 13.9,13.1 17.1,17.4 -8.3,-0.6 -12.1,-8.2 -15.9,-12.2 z"
       fill="#5f6467"
       id="path47" />
    <path
       d="m 2385.8,1290.3 c -19.4,-2.9 -38,-9.3 -38,-24.7 0,-4.9 -0.6,-16 0.6,-24.1 0.6,-3.2 -2,-1.7 -2.9,-0.6 -2.3,4.9 -2,14.2 -2,25 0,30.5 38.9,25.5 43.5,29.6 3.8,4.1 7.5,11.6 16,12.2 -3.3,-4.3 -9.7,-16.2 -17.2,-17.4 z"
       fill="#5f6467"
       id="path48" />
    <path
       d="m 2386.9,1295.6 c -4.6,-4.1 -43.5,0.9 -43.5,-29.6 0,-10.7 -0.3,-20 2,-25 0.9,-1.2 3.5,-2.6 2.9,0.6 -1.2,8.1 -0.6,19.2 -0.6,24.1 0,15.4 18.6,21.8 38,24.7 7.5,1.2 13.9,13.1 17.1,17.4 -8.3,-0.6 -12.1,-8.2 -15.9,-12.2 z"
       fill="#595e60"
       id="path49" />
    <path
       d="m 2385.8,1290.3 c -19.4,-2.9 -38,-9.3 -38,-24.7 0,-4.9 -0.6,-16 0.6,-24.1 0.6,-3.2 -2,-1.7 -2.9,-0.6 -2.3,4.9 -2,14.2 -2,25 0,30.5 38.9,25.5 43.5,29.6 3.8,4.1 7.5,11.6 16,12.2 -3.3,-4.3 -9.7,-16.2 -17.2,-17.4 z"
       fill="#595e60"
       id="path50" />
    <path
       d="m 2385.8,1290.3 c 7.5,1.2 13.9,13.1 17.1,17.4 -8.4,-0.6 -12.2,-8.1 -16,-12.2 -4.6,-4.1 -43.5,0.9 -43.5,-29.6 0,-10.7 -0.3,-20 2,-25 0.9,-1.2 3.5,-2.6 2.9,0.6 -1.2,8.1 -0.6,19.2 -0.6,24.1 0.1,15.5 18.6,21.8 38.1,24.7 z"
       fill="#525556"
       id="path51" />
    <path
       d="m 2347.8,1265.7 c 0,-4.9 -0.6,-16 0.6,-24.1 0.6,-3.2 -2,-1.7 -2.9,-0.6 -2.3,4.9 -2,14.2 -2,25 0,30.5 38.9,25.5 43.5,29.6 3.8,4.1 7.5,11.6 16,12.2 -3.2,-4.4 -9.6,-16.3 -17.1,-17.4 -19.6,-3 -38.1,-9.3 -38.1,-24.7 z"
       id="path52" />
    <path
       d="m 2347.8,1265.7 c 0,-4.9 -0.6,-16 0.6,-24.1 0.6,-3.2 -2,-1.7 -2.9,-0.6 -2.3,4.9 -2,14.2 -2,25 0,21.1 18.6,25.2 31.6,27.1 1.5,-1.3 3.1,-2.6 4.6,-3.8 -17.1,-3.3 -31.9,-9.9 -31.9,-23.6 z"
       fill="#3f4141"
       id="path53" />
    <path
       d="m 2347.8,1265.7 c 0,-4.9 -0.6,-16 0.6,-24.1 0.6,-3.2 -2,-1.7 -2.9,-0.6 -2.3,4.9 -2,14.2 -2,25 0,12.7 6.7,19.2 14.9,22.8 1.6,-1.4 3.1,-2.9 4.7,-4.4 -9.1,-3.9 -15.3,-9.8 -15.3,-18.7 z"
       fill="#353635"
       id="path54" />
    <path
       d="m 2348.3,1241.6 c 0.6,-3.2 -2,-1.7 -2.9,-0.6 -2.3,4.9 -2,14.2 -2,25 0,5.4 1.2,9.6 3.3,13 1.3,-1.2 2.7,-2.5 4,-3.8 -1.9,-2.7 -2.9,-5.9 -2.9,-9.5 0,-5 -0.6,-16 0.5,-24.1 z"
       fill="#212121"
       id="path55" />
    <path
       d="m 2348.3,1241.6 c 0.6,-3.2 -2,-1.7 -2.9,-0.6 -1.9,4.1 -2.1,11.3 -2,19.7 1.4,-1.4 2.8,-2.7 4.2,-4.1 0,-4.8 0.1,-10.4 0.7,-15 z"
       id="path56" />
    <path
       d="m 2415.7,1326 c 0.6,-3.5 0,-12.5 -0.9,-17.4 z"
       fill="#595e60"
       id="path57" />
  </g>
</svg>
