<?xml version="1.0" encoding="UTF-8" standalone="no"?>
<svg
   clip-rule="evenodd"
   fill-rule="evenodd"
   viewBox="0 0 303.89001 303.88599"
   version="1.1"
   id="svg6"
   sodipodi:docname="Brentford.svg"
   width="303.89001"
   height="303.88599"
   xmlns:inkscape="http://www.inkscape.org/namespaces/inkscape"
   xmlns:sodipodi="http://sodipodi.sourceforge.net/DTD/sodipodi-0.dtd"
   xmlns="http://www.w3.org/2000/svg"
   xmlns:svg="http://www.w3.org/2000/svg">
  <defs
     id="defs6" />
  <sodipodi:namedview
     id="namedview6"
     pagecolor="#ffffff"
     bordercolor="#000000"
     borderopacity="0.25"
     inkscape:showpageshadow="2"
     inkscape:pageopacity="0.0"
     inkscape:pagecheckerboard="0"
     inkscape:deskcolor="#d1d1d1" />
  <g
     fill-rule="nonzero"
     id="g6"
     transform="translate(-128.055,-48.057)">
    <path
       d="M 430,200.007 C 430,117.289 362.709,50.002 279.998,50.002 197.288,50.002 130,117.289 130,200.007 c 0,82.704 67.288,149.991 149.998,149.991 82.711,0 150.002,-67.287 150.002,-149.991"
       fill="#ffffff"
       stroke="#000000"
       stroke-width="3.89"
       id="path1" />
    <path
       d="m 378.636,275.092 -1.79,1.912 3.229,3.025 1.703,-1.821 c 1.034,-1.108 1.26,-2.59 0.187,-3.59 -1.047,-0.982 -2.347,-0.577 -3.329,0.474 m -187.662,9.174 c -2.477,2.394 -2.442,5.649 -0.404,7.757 2.038,2.103 5.288,2.247 7.761,-0.148 2.494,-2.407 2.46,-5.663 0.422,-7.77 -2.034,-2.103 -5.285,-2.251 -7.779,0.161 m 185.435,-13.903 c -0.978,-0.912 -2.091,-0.438 -2.755,0.274 l -1.687,1.804 2.799,2.616 1.63,-1.747 c 0.843,-0.9 0.895,-2.121 0.013,-2.947 m 36.537,-70.437 c 0.522,-0.908 0.974,-1.903 0.974,-3.011 0,-2.942 -2.329,-5.25 -5.406,-5.25 -3.077,0 -5.41,2.308 -5.41,5.25 0,3.098 2.533,5.228 5.184,5.228 0.226,0 0.452,-0.027 0.678,-0.07 l -3.394,5.836 h 2.759 l 4.616,-7.982 z m -13.623,2.986 c 0,-1.856 -0.948,-3.373 -2.443,-4.233 0.748,-0.7 1.2,-1.673 1.2,-2.829 0,-2.329 -1.834,-4.185 -4.233,-4.185 -2.373,0 -4.185,1.856 -4.185,4.185 0,1.156 0.43,2.129 1.178,2.807 -1.495,0.861 -2.442,2.399 -2.442,4.255 0,2.916 2.372,5.18 5.449,5.18 3.125,0 5.476,-2.264 5.476,-5.18 m -15.019,69.25 c -1.56,-1.456 -3.537,-1.338 -5.136,-0.265 0.713,-1.551 0.343,-3.338 -0.895,-4.498 -1.612,-1.512 -4.194,-1.46 -6.545,1.052 l -4.18,4.467 12.35,11.555 4.315,-4.619 c 2.564,-2.738 1.912,-5.988 0.091,-7.692 m -14.592,15.253 -7.166,-8.209 -2.555,2.234 6.927,7.935 c 1.673,1.917 1.208,3.724 -0.204,4.959 -1.417,1.234 -3.303,1.416 -4.941,-0.461 l -6.932,-7.94 -2.555,2.234 7.166,8.209 c 2.807,3.211 6.783,2.568 9.338,0.339 2.556,-2.234 3.746,-6.067 0.922,-9.3 m -12.251,17.93 -1.612,-2.412 -5.619,3.755 -7.783,-11.646 -2.82,1.881 9.395,14.063 z m -17.726,5.424 -3.133,-0.213 c 0.091,2.546 -1.056,4.402 -3.077,5.297 -2.634,1.165 -5.541,0.122 -7.01,-3.194 -1.529,-3.45 -0.056,-6.097 2.573,-7.262 1.434,-0.638 3.203,-0.83 4.902,0.274 l 1.26,-3.059 c -2.564,-1.343 -5.267,-1.1 -7.383,-0.161 -3.994,1.769 -6.775,6.401 -4.402,11.759 2.229,5.028 7.122,6.432 11.211,4.62 3.055,-1.352 5.12,-4.237 5.059,-8.061 m -28.047,16.313 -0.569,-2.85 -6.627,1.325 -2.747,-13.732 -3.328,0.665 3.32,16.583 z m -17.756,3.333 -0.161,-2.898 -6.749,0.382 -0.795,-13.984 -3.385,0.191 0.956,16.883 z m 83.897,-130.41 c 0,-5.854 -0.495,-11.538 -1.508,-17.17 -0.291,-1.621 -0.869,-3.541 -0.869,-3.541 l 5.589,-19.4 c 1.199,-4.158 1.669,-5.305 1.012,-6.375 -0.26,-0.426 -0.738,-1.112 -2.677,-1.621 l -16.778,-4.183 -0.518,-0.933 c -17.482,-26.913 -47.803,-44.75 -82.217,-44.75 -34.561,0 -64.993,17.987 -82.436,45.09 l -0.339,0.626 -16.782,4.18 c -1.939,0.513 -2.417,1.2 -2.677,1.621 -0.656,1.074 -0.183,2.216 1.012,6.38 l 5.589,19.399 c 0,0 -0.5,1.716 -0.795,3.35 -0.93,5.098 -1.539,11.416 -1.539,17.326 0,54.021 43.946,97.97 97.97,97.97 54.02,0 97.969,-43.946 97.969,-97.97 m -101.805,131.19 -4.842,-17.491 -3.22,-0.326 -8.278,16.157 3.655,0.374 1.794,-3.668 6.21,0.63 1.021,3.95 3.659,0.374 z m -23.641,-20.347 -5.892,-1.642 -4.541,16.287 6.092,1.699 c 3.612,1.009 6.193,-1.073 6.863,-3.476 0.573,-2.056 -0.448,-3.75 -2.139,-4.676 1.708,-0.087 3.121,-1.239 3.577,-2.873 0.595,-2.129 -0.643,-4.393 -3.959,-5.319 m -12.22,-3.58 -12.72,-5.806 -1.204,2.642 4.815,2.199 -5.818,12.741 3.089,1.413 5.815,-12.746 4.815,2.199 z m -23.371,-12.835 c -4.141,-2.638 -9.377,-1.491 -12.111,2.803 -2.716,4.272 -1.534,9.499 2.607,12.133 4.141,2.637 9.378,1.49 12.094,-2.782 2.734,-4.293 1.552,-9.521 -2.59,-12.154 m -16.068,-0.108 c 3.659,-3.537 3.728,-8.9 0.317,-12.424 -3.411,-3.529 -8.769,-3.637 -12.428,-0.1 -3.642,3.52 -3.712,8.878 -0.3,12.407 3.411,3.528 8.774,3.637 12.411,0.117 m -18.335,-22.736 3.307,-2.438 4.077,5.519 2.338,-1.725 -6.088,-8.253 -13.611,10.039 2.017,2.733 5.623,-4.15 3.25,4.406 2.338,-1.725 -3.25,-4.406 z M 168.06,202.949 c 0,-1.856 -0.952,-3.372 -2.442,-4.233 0.747,-0.699 1.199,-1.673 1.199,-2.829 0,-2.329 -1.834,-4.185 -4.232,-4.185 -2.377,0 -4.185,1.856 -4.185,4.185 0,1.156 0.43,2.13 1.173,2.808 -1.491,0.86 -2.442,2.398 -2.442,4.254 0,2.92 2.377,5.18 5.454,5.18 3.12,0 5.475,-2.26 5.475,-5.18 m -16.222,-11.247 -2.49,1.552 v 14.697 h 2.49 z m 22.35,-69.826 17.222,14.428 5.397,-6.44 c 3.203,-3.82 2.095,-8.087 -0.443,-10.213 -2.173,-1.821 -4.789,-1.516 -6.836,0.022 0.835,-2.112 0.213,-4.455 -1.512,-5.902 -2.251,-1.886 -5.671,-1.634 -8.613,1.873 z m 19.221,-20.646 14.11,17.487 3.507,-2.833 -5.576,-6.91 1.621,-1.308 9.404,3.824 4.25,-3.433 -10.655,-4.124 c 1.482,-2.733 0.882,-5.54 -0.574,-7.348 -2.251,-2.79 -6.097,-3.42 -9.604,-0.591 l -6.484,5.236 z m 24.036,-16.783 9.699,20.268 12.537,-6.005 -1.665,-3.477 -8.469,4.055 -2.347,-4.898 6.562,-3.142 -1.664,-3.481 -6.562,3.142 -2.36,-4.928 8.222,-3.937 -1.664,-3.481 -12.29,5.884 z m 24.883,-10.234 5.015,21.902 4.393,-1.008 -3.155,-13.78 13.446,11.424 4.158,-0.951 -5.019,-21.902 -4.389,1.003 3.176,13.88 -13.463,-11.524 -4.163,0.956 z m 28.49,-1.586 7.036,0.035 -0.105,18.612 4.511,0.026 0.1,-18.612 7.036,0.039 0.017,-3.859 -18.577,-0.1 z m 24.726,19.629 4.429,0.852 1.756,-9.122 7.144,1.374 0.729,-3.791 -7.139,-1.373 1.029,-5.363 8.952,1.721 0.73,-3.789 -13.382,-2.577 -4.244,22.068 z m 27.004,8.696 c 6.015,2.52 12.616,-0.157 15.214,-6.362 2.612,-6.236 -0.108,-12.82 -6.127,-15.34 -6.014,-2.521 -12.616,0.156 -15.227,6.392 -2.599,6.206 0.121,12.79 6.14,15.31 m 29.155,-10.599 -13.545,17.93 3.598,2.716 5.35,-7.084 1.664,1.256 -1.425,10.048 4.358,3.293 1.417,-11.342 c 3.012,0.778 5.589,-0.486 6.988,-2.338 2.16,-2.863 1.843,-6.74 -1.756,-9.46 l -6.648,-5.019 z m 21.702,17.913 -16,15.77 5.224,5.306 c 5.61,5.688 12.598,4.267 16.513,0.408 3.942,-3.88 5.054,-10.538 -0.148,-15.818 l -5.584,-5.663 z m 51.157,91.73 c 0,79.701 -64.842,144.539 -144.539,144.539 -79.697,0 -144.535,-64.842 -144.535,-144.539 0,-79.704 64.842,-144.546 144.535,-144.546 79.7,0 144.539,64.842 144.539,144.546 M 324.176,97.083 c 3.589,1.503 7.635,-0.026 9.404,-4.246 1.782,-4.25 0.03,-8.204 -3.559,-9.708 -3.589,-1.508 -7.64,0.021 -9.417,4.272 -1.769,4.224 -0.018,8.174 3.572,9.682 m 32.171,5.206 c 0.969,-1.282 0.804,-2.99 -0.752,-4.163 l -2.616,-1.973 -3.538,4.684 2.478,1.873 c 1.581,1.195 3.398,0.943 4.428,-0.421 m 52.19,91.677 c -1.765,0 -2.899,1.334 -2.899,2.942 0,1.582 1.134,2.942 2.899,2.942 1.742,0 2.894,-1.36 2.894,-2.942 0,-1.608 -1.152,-2.942 -2.894,-2.942 m -14.667,6.041 c -1.742,0 -2.916,1.29 -2.916,2.898 0,1.582 1.174,2.873 2.916,2.873 1.791,0 2.968,-1.291 2.968,-2.873 0,-1.608 -1.177,-2.898 -2.968,-2.898 m 0,-2.286 c 1.113,0 1.856,-0.813 1.856,-1.878 0,-1.064 -0.743,-1.877 -1.856,-1.877 -1.082,0 -1.808,0.813 -1.808,1.877 0,1.065 0.726,1.878 1.808,1.878 M 375.792,126.69 c 2.794,-2.755 3.646,-6.805 0.456,-10.043 l -2.42,-2.455 -10.508,10.356 2.33,2.359 c 3.259,3.307 7.318,2.564 10.142,-0.217 M 206.12,99.633 c -1.008,-1.247 -2.703,-1.503 -4.22,-0.278 l -2.551,2.056 3.69,4.571 2.416,-1.951 c 1.542,-1.243 1.738,-3.068 0.665,-4.398 m -43.524,100.426 c -1.743,0 -2.92,1.29 -2.92,2.898 0,1.582 1.177,2.873 2.92,2.873 1.786,0 2.964,-1.291 2.964,-2.873 0,-1.608 -1.178,-2.898 -2.964,-2.898 m 87.115,119.988 -2.525,-0.704 -1.186,4.259 2.399,0.669 c 1.46,0.409 2.877,-0.078 3.272,-1.49 0.387,-1.387 -0.574,-2.347 -1.96,-2.734 m -34.587,-22.958 c -2.473,-1.573 -5.667,-0.956 -7.531,1.973 -1.847,2.907 -1.051,6.062 1.417,7.635 2.473,1.573 5.667,0.956 7.518,-1.951 1.86,-2.929 1.069,-6.084 -1.404,-7.657 m -52.533,-99.317 c 1.108,0 1.856,-0.813 1.856,-1.877 0,-1.065 -0.748,-1.878 -1.856,-1.878 -1.086,0 -1.812,0.813 -1.812,1.878 0,1.064 0.726,1.877 1.812,1.877 m 19.538,-79.35 -2.106,2.513 3.901,3.268 2.037,-2.435 c 1.052,-1.256 1.03,-2.881 -0.199,-3.911 -1.361,-1.143 -2.803,-0.43 -3.633,0.565 m 69.221,195.145 -2.377,-0.661 -1.03,3.686 2.303,0.643 c 1.187,0.33 2.295,-0.187 2.617,-1.352 0.36,-1.286 -0.574,-2.051 -1.513,-2.316 m 15.271,9.643 3.885,0.396 -1.413,-5.441 z m -73.162,-195.341 -2.125,2.538 -4.502,-3.773 2.234,-2.668 c 1.229,-1.469 2.916,-2.103 4.384,-0.873 1.491,1.251 1.304,3.229 0.009,4.776"
       fill="#e30613"
       id="path2" />
    <path
       d="m 204.988,149.162 c 16.323,-24.01 43.857,-39.809 75.017,-39.809 31.372,0 59.072,16.022 75.353,40.313 l 3.438,-1.439 c -16.903,-25.412 -46.059,-42.497 -78.792,-42.497 -32.675,0 -61.521,16.713 -78.439,42.036 l 3.424,1.391 z m -17.721,33.813 c -1.004,5.501 -1.53,11.242 -1.53,17.031 0,51.975 42.287,94.262 94.266,94.262 51.975,0 94.262,-42.287 94.262,-94.262 0,-5.815 -0.531,-11.551 -1.543,-17.074 l -3.65,0.004 c 1.034,5.467 1.573,11.303 1.573,17.07 0,49.977 -40.66,90.648 -90.641,90.648 -49.983,0 -90.647,-40.668 -90.647,-90.648 0,-5.815 0.548,-11.503 1.599,-17.013 z"
       fill="#140e0c"
       id="path3" />
    <path
       d="m 212.611,204.575 v 47.89 l 1.66,-0.291 v -47.481 z m 1.555,-51.445 v -11.034 l -1.66,1.521 v 8.891 z m 51.926,-17.909 v 11.947 l 1.66,-0.861 v -8.513 z m 0,126.925 v 24.801 l 1.66,0.265 v -23.671 z m 1.66,-134.403 v -14.876 l -1.66,0.357 v 13.606 l 1.66,0.912 z m -26.7,75.392 v -3.485 l -1.66,1.056 v 5.802 z m 0,-39.04 v -7.166 l -1.66,-1.951 v 8.391 z m -1.66,71.318 v 42.088 l 1.66,0.948 v -45.73 z m 1.66,-91.378 v -23.411 l -1.66,0.935 v 20.867 l 1.66,1.608 z m 105.545,60.659 v 47.481 l 1.66,0.291 v -47.889 l -1.66,0.118 z m 1.764,-52.183 v -8.891 l -1.66,-1.521 v 11.034 z m -55.243,-14.714 v 8.513 l 1.656,0.861 v -11.946 l -1.656,2.573 z m 0,125.745 v 23.67 l 1.656,-0.265 v -24.8 z m 1.656,-136.71 v -13.606 l -1.656,-0.356 v 14.875 z m 26.7,79.679 v -5.802 l -1.66,-1.056 v 3.486 z m 0,-43.141 v -8.392 l -1.66,1.952 v 7.165 l 1.66,-0.726 z m -1.66,69.354 v 45.729 l 1.66,-0.947 V 235.42 l -1.66,-2.695 z m 0,-88.685 v -23.41 l 1.66,0.934 v 20.868 z"
       fill="#e8e4d9"
       id="path4" />
    <path
       d="m 306.364,172.281 54.38,-22.037 -9.421,15.058 -44.942,10.407 z m 0.074,5.91 -0.018,2.381 h 65.627 L 350.841,169 Z m -124.392,-19.243 5.201,18.095 18.46,-9.795 c 0,0 -9.768,-16.109 -9.786,-15.991 l -11.264,2.929 c -2.177,0.586 -2.824,0.908 -3.124,1.368 -0.343,0.522 -0.126,1.061 0.513,3.394 M 209.188,169 187.977,180.546 h 65.632 l -0.022,-2.355 z m -8.969,18.542 c -0.035,0.569 0.539,1.1 1.395,2.003 l 12.25,12.151 9.86,-9.478 -18.551,-7.77 -3.633,1.825 c -0.952,0.539 -1.295,0.882 -1.321,1.269 m 53.581,-15.261 -54.381,-22.037 9.417,15.058 44.946,10.407 z m -44.321,10.764 17.039,6.809 27.291,-4.476 -0.061,-2.333 z m 18.539,9.747 c 0.269,-0.105 -10.943,10.081 -10.943,10.081 l 8.07,0.457 c 0,0 2.464,0.16 4.028,-0.196 1,-0.222 4.072,-1.951 4.072,-1.951 0,0 20.585,-11.047 20.581,-11.138 l -0.044,-2.412 c 0,0 -26.038,5.267 -25.764,5.159 m 78.363,-5.159 -0.048,2.412 c -0.004,0.091 20.581,11.138 20.581,11.138 0,0 3.072,1.729 4.076,1.951 1.56,0.356 4.024,0.196 4.024,0.196 l 8.074,-0.457 c 0,0 -11.216,-10.186 -10.942,-10.081 0.274,0.108 -25.765,-5.159 -25.765,-5.159 m 52.212,-1.36 -3.637,-1.825 -18.551,7.77 9.864,9.478 12.25,-12.151 c 0.857,-0.903 1.43,-1.434 1.391,-2.003 -0.022,-0.387 -0.365,-0.73 -1.317,-1.269 m -30.462,44.76 c -0.343,-0.461 -9.808,-25.544 -9.808,-25.544 -1.604,-4.011 -2.977,-4.697 -5.841,-6.301 l -6.505,-4.15 -0.308,0.391 7.457,10.173 0.017,14.78 24.266,30.814 c 3.32,4.124 3.433,5.497 8.248,5.497 l 2.976,-1.373 -5.61,-0.921 c 0,0 -14.549,-22.91 -14.892,-23.366 m -95.998,0 c -0.343,0.456 -14.892,23.366 -14.892,23.366 l -5.611,0.921 2.977,1.373 c 4.811,0 4.928,-1.373 8.248,-5.497 l 24.227,-30.814 0.056,-14.78 7.453,-10.173 -0.309,-0.391 -6.496,4.15 c -2.864,1.604 -4.242,2.29 -5.845,6.301 0,0 -9.465,25.083 -9.808,25.544 m 146.194,-75.522 c -0.305,-0.461 -0.952,-0.782 -3.129,-1.369 l -11.26,-2.929 c -0.021,-0.117 -9.786,15.992 -9.786,15.992 l 18.46,9.795 5.202,-18.095 c 0.639,-2.334 0.852,-2.873 0.513,-3.394 m -71.963,27.49 -0.061,2.334 27.295,4.476 17.034,-6.81 z m -0.691,-14.532 17.356,-18.816 11.168,-13.575 0.604,-3.694 -1.121,-1.03 -1.373,4.211 -29.124,26.46 c 0.083,0.256 2.49,6.444 2.49,6.444 m -68.56,-18.816 17.356,18.816 c 0,0 2.408,-6.188 2.49,-6.444 l -29.124,-26.46 -1.377,-4.211 -1.113,1.03 0.6,3.694 z m 18.039,-25.176 2.614,3.063 8.134,4.467 8.175,11.842 -2.315,3.198 c 0,0 -4.673,1.552 -5.642,2.777 -1.204,1.534 -1.46,7.476 -1.46,7.476 l -3.606,2.071 -4.298,12.704 v 20.112 l 3.063,2.037 -9.079,12.717 v 30.698 l 10.138,17.178 13.865,10.538 5.336,6.702 5.324,-6.702 13.865,-10.538 10.137,-17.178 v -30.698 l -8.901,-12.826 2.885,-1.928 v -20.112 l -4.298,-12.704 -3.612,-2.071 c 0,0 -0.245,-5.942 -1.453,-7.476 -0.969,-1.225 -5.642,-2.777 -5.642,-2.777 l -2.187,-3.015 8.311,-12.025 8.128,-4.467 2.614,-3.063 -4.006,1.263 -8.59,4.807 -8.29,11.733 -4.101,-1.072 -4.251,1.032 -8.257,-11.692 -8.589,-4.808 -4.013,-1.262 z m 16.608,23.718 1.249,5.744 -5.601,2.159 z m 16.622,0 4.352,7.903 -5.533,-2.233 z m -8.352,22.678 16.826,7.334 -5.609,12.602 v -9.853 l -11.216,-5.73 -15.903,1.772 -0.135,-0.51 16.038,-5.615 z m -20.139,57.119 10.803,3.85 h 18.753 l 10.81,-3.85 0.116,0.312 -9.805,7.496 h -20.994 l -9.805,-7.496 z"
       fill="#140e0c"
       id="path5" />
    <path
       d="m 303.365,242.157 -13.688,4.807 h -19.142 l -13.515,-4.807 4.784,8.335 11.255,4.068 -7.904,-0.192 10.764,8.179 h 8.369 l 10.764,-8.179 -7.896,0.192 11.251,-4.068 z m -43.594,-70.433 11.455,-6.07 h 17.764 l 11.455,6.07 -1.26,-3.554 -8.252,-6.871 7.335,2.521 -0.804,-2.521 c 0,0 -7.904,-3.893 -8.017,-4.237 h -18.682 c -0.113,0.344 -8.018,4.237 -8.018,4.237 l -0.804,2.521 7.336,-2.521 -8.252,6.871 z m 46.289,36.182 -0.026,-0.031 -16.131,1.977 12.259,-6.779 -4.837,-6.766 -6.962,4.646 h -20.515 l -6.779,-4.528 -4.815,6.648 12.055,6.779 -16.131,-1.977 -0.022,0.031 v 8.625 l 10.421,3.894 h 31.053 l 10.43,-3.894 z"
       fill="#fbb800"
       id="path6" />
  </g>
</svg>
