<svg xmlns="http://www.w3.org/2000/svg" xmlns:xlink="http://www.w3.org/1999/xlink" width="194.5" height="235.67" viewBox="0 0 194.5 235.67"><defs><linearGradient id="a" x1="421.25" y1="512.6" x2="603.87" y2="512.6" gradientTransform="matrix(1, 0, 0, -1, 0, 1026)" gradientUnits="userSpaceOnUse"><stop offset="0" stop-color="#ec2027"/><stop offset="0.26" stop-color="#ea2027"/><stop offset="0.35" stop-color="#e32027"/><stop offset="0.42" stop-color="#d82027"/><stop offset="0.48" stop-color="#c72026"/><stop offset="0.5" stop-color="#bc2026"/><stop offset="0.78" stop-color="#ce2027"/><stop offset="1" stop-color="#d72027"/></linearGradient><linearGradient id="b" x1="508.17" y1="560.71" x2="587.39" y2="449.58" gradientTransform="matrix(1, 0, 0, -1, 0, 1026)" gradientUnits="userSpaceOnUse"><stop offset="0.5"/><stop offset="0.71" stop-color="#070707"/><stop offset="1" stop-color="#1a1a1a"/></linearGradient><linearGradient id="c" x1="471.53" y1="626.99" x2="518.7" y2="539.33" gradientTransform="matrix(1, 0, 0, -1, 0, 1026)" gradientUnits="userSpaceOnUse"><stop offset="0.5" stop-color="#231f20"/><stop offset="1" stop-color="#666"/></linearGradient><linearGradient id="d" x1="421.2" y1="611.16" x2="480.92" y2="611.16" gradientTransform="matrix(1, 0, 0, -1, 0, 1026)" gradientUnits="userSpaceOnUse"><stop offset="0" stop-color="gray"/><stop offset="1"/></linearGradient><linearGradient id="e" x1="498.98" y1="394.8" x2="409.75" y2="589.49" gradientTransform="matrix(1, 0, 0, -1, 0, 1026)" gradientUnits="userSpaceOnUse"><stop offset="0" stop-color="#fff"/><stop offset="1" stop-color="#1a1a1a"/></linearGradient><linearGradient id="f" x1="596.31" y1="548.05" x2="525" y2="392.86" gradientTransform="matrix(1, 0, 0, -1, 0, 1026)" gradientUnits="userSpaceOnUse"><stop offset="0" stop-color="#fff"/><stop offset="1"/></linearGradient><linearGradient id="g" x1="544.12" y1="611.16" x2="603.87" y2="611.16" xlink:href="#f"/><linearGradient id="h" x1="480.79" y1="622.41" x2="544.29" y2="622.41" gradientTransform="matrix(1, 0, 0, -1, 0, 1026)" gradientUnits="userSpaceOnUse"><stop offset="0" stop-color="#ccc"/><stop offset="1"/></linearGradient></defs><title>Stade Brestois 29 logo - Brandlogos.net</title><path d="M512,402.17c-4,.13-19.92-1.29-32.52-8-24,16.65-35,22.93-64.7,30.67,1.29,25.6,0,141.07,97.49,204.83l.26.17.09-.09C610.11,566,608,450.39,609.25,424.84c-29.68-7.74-39.79-14-63.8-30.67-12.56,6.71-29.51,8.13-33.47,8" transform="translate(-414.75 -394.16)" style="fill:#231f20"/><path d="M603.83,428.75c-28.57-7.49-36.44-13.25-59.54-29.38-12.13,6.5-27.45,6.5-31.28,6.37h-.9c-3.83.13-19.14.13-31.32-6.37-23.1,16.13-31,21.9-59.54,29.38,1.25,24.74-2.75,136.81,91.08,198.5l.26.17.09-.09c93.83-61.69,90-173.85,91.21-198.59" transform="translate(-414.75 -394.16)" style="fill:url(#a)"/><path d="M588.34,423c0-1.55,0-3.05-.13-4.56-15.36-5.64-25.43-12.26-42.76-24.26-12.56,6.71-29.51,8.13-33.47,8s-19.92-1.29-32.52-8c-24,16.65-35,22.93-64.7,30.67.65,13.16.6,50.12,13.72,91.59a115,115,0,0,0,49.47,11.06c61,0,110.39-46.76,110.39-104.5Z" transform="translate(-414.75 -394.16)" style="fill:#ed1c24;opacity:0.5;isolation:isolate"/><path d="M588.26,418.43c.09,1.51.13,3.05.13,4.56v1.2c4.47,1.51,9.55,3,15.49,4.56-1.25,24.74,2.62,136.89-91.21,198.59l-.09.09-.26-.17c-45.09-29.68-67.59-71-78.94-108.63q-2.45-1-4.86-2.19c12.35,39.11,36.4,82.26,83.72,113.19l.26.17.09-.09C610.11,566,608,450.39,609.25,424.84c-8.26-2.15-15.06-4.22-21-6.41Z" transform="translate(-414.75 -394.16)" style="fill:url(#b)"/><path d="M421.25,428.75c28.52-7.49,36.44-13.25,59.54-29.38,12.13,6.5,27.49,6.5,31.32,6.37h.9c3.83.13,19.14.13,31.28-6.37,18.28,12.78,27.06,19.06,44.05,24.82V423c0-1.55,0-3.05-.13-4.56-15.36-5.64-25.43-12.26-42.76-24.26-12.56,6.71-29.51,8.13-33.47,8s-19.92-1.29-32.52-8c-24,16.65-35,22.93-64.7,30.67.65,13.16.65,50.12,13.72,91.59q2.41,1.16,4.86,2.19c-12.22-40.66-11.44-77-12.09-89.87Z" transform="translate(-414.75 -394.16)" style="fill:url(#c)"/><path d="M480.92,401.74l-.34.26c-21.77,15.19-30.16,21.08-57.26,28.31l-2.11-1.55c28.57-7.49,36.48-13.25,59.58-29.38Z" transform="translate(-414.75 -394.16)" style="fill:url(#d)"/><path d="M512.54,627.43l-.26-.17c-93.79-61.69-89.83-173.76-91-198.5l2.07,1.55c0,1.46.09,3.14.17,5,.9,32.91,3.7,132.89,89.05,189.68Z" transform="translate(-414.75 -394.16)" style="fill:url(#e)"/><path d="M512.54,625c85.31-56.87,88.11-156.81,89.05-189.77,0-1.85.09-3.48.17-4.95l2.11-1.55c-1.25,24.74,2.62,136.89-91.21,198.59l-.09.09Z" transform="translate(-414.75 -394.16)" style="fill:url(#f)"/><path d="M544.29,399.37c23.1,16.13,31,21.9,59.58,29.38l-2.15,1.55c-27.06-7.23-35.45-13.08-57.18-28.27l-.43-.3Z" transform="translate(-414.75 -394.16)" style="fill:url(#g)"/><path d="M480.79,399.37c12.13,6.5,27.49,6.5,31.32,6.37h.9c3.83.13,19.14.13,31.28-6.37l-.17,2.37c-10.76,5.38-23.36,6.07-29.17,6.07h-4.82c-5.81,0-18.41-.69-29.21-6.07Z" transform="translate(-414.75 -394.16)" style="fill:url(#h)"/><path d="M517.49,595.55c0,1.72-1.68,3-4,3-1.12,0-2.45-.39-2.45-.73s.13-.17.26-.17l.26.09a3.7,3.7,0,0,0,1.63.39,2.7,2.7,0,0,0,2.54-1.25,2.11,2.11,0,0,0,.17-.65v-.09a1.8,1.8,0,0,0-2-1.63l-1.08.09h-.26c-.26,0-.47-.13-.47-.34a3.91,3.91,0,0,1,.26-.9,11.14,11.14,0,0,0,.39-2.5c0-.3,0-.34.52-.34h2.8a1.08,1.08,0,0,0,1-.39.43.43,0,0,1,.26-.13c.09,0,.17,0,.17.13a.43.43,0,0,1-.09.22l-.43,1.08c-.09.3-.13.34-.39.34h-2.28c-.86,0-1,0-1.12.22a2.19,2.19,0,0,0-.3,1.08q0,.39.26.39h.22l.95-.09c1.94,0,3.14.82,3.14,2.19Zm-11.53.69c0-.13-.13-.22-.39-.22-1,0-1.38-.3-1.38-1.33v-2.58c0-.39,0-1,0-1.33s0-.26,0-.3a.24.24,0,0,0-.22-.17l-.26.13a3.23,3.23,0,0,1-1.63.73c-1,.17-1.16.26-1.16.47a.17.17,0,0,0,.17.17h.22l.52-.09a.82.82,0,0,1,.47.13l.13.13h0l.13,1.16v1.94a1.42,1.42,0,0,1,0,.22l-.17.39a1.08,1.08,0,0,1-.82.34c-.34,0-.47,0-.47.22s.09.17.3.17h.34l1.81-.09,1.85.09h.17c.13,0,.26-.09.26-.17Zm18.54-3a3.47,3.47,0,0,1-3.57,3.18h-.56a3.31,3.31,0,0,1-3-2.41,3,3,0,0,1,0-.52,3.38,3.38,0,0,1,3.57-3.31c2,0,3.61,1.33,3.61,3.05Zm-1.29,1a4.35,4.35,0,0,0-.9-2.45,2.58,2.58,0,0,0-2-1,1.63,1.63,0,0,0-1.72,1.51,4.22,4.22,0,0,0,.73,2.19,2.5,2.5,0,0,0,2.07,1.2C522.43,595.72,523.21,595.12,523.21,594.3Zm-11.27-.82a4.77,4.77,0,0,1-2.67,4,8.35,8.35,0,0,1-3.48,1.08c-.17,0-.3-.09-.3-.22s.09-.17.34-.22a5.48,5.48,0,0,0,3.4-1.85,3.36,3.36,0,0,0,.69-1.38.13.13,0,0,0-.13-.13l-.3.13a3.87,3.87,0,0,1-2,.6,2.4,2.4,0,0,1-2.58-2.41,2.93,2.93,0,0,1,.77-2,3.66,3.66,0,0,1,2.75-1,3.27,3.27,0,0,1,3.48,3q0,.15,0,.31Zm-1.63-.39a2.56,2.56,0,0,0-2.28-2.62c-1.2,0-1.59.77-1.59,1.85a2.46,2.46,0,0,0,2.15,2.41,1.55,1.55,0,0,0,1.76-1.68Z" transform="translate(-414.75 -394.16)" style="fill:#231f20"/><path d="M517.61,435.94v.17c.22,4.22,1.94,22.67,13.77,33-8.65-.56-13,11.14-14.07,14.46v.09l-.22.77c-2.32-12.43-8.56-15.53-12-16.31l-2.93-.13c13-9.21,15.1-27.4,15.4-31.23v-1.46s0,.3,0,.82Zm-19.36.9h-.13a41.09,41.09,0,0,0,6.32-2.41s6.75-3.31,8.48,2a3.92,3.92,0,0,1,.22.95v.22h0v.17a1.55,1.55,0,0,1-.26.77c-1.81,4.52-8.48,1-8.48,1a49.35,49.35,0,0,0-6.2-2.62Zm16.86-13.59a41.43,41.43,0,0,0,2.5-5.85v-.13a41.47,41.47,0,0,0,2.75,6.24s3.74,6.8-1.81,8.17l-.73.13h-.56a1.72,1.72,0,0,1-.73-.22c-4.82-1.94-1.42-8.3-1.42-8.3ZM522.43,438v-.09h0v-.26a3.57,3.57,0,0,1,.17-.65c1.72-5.33,8.56-1.33,8.56-1.33a44.83,44.83,0,0,0,6.28,3h-.17a45.09,45.09,0,0,0-6.2,2.11s-6.71,2.93-8.43-1.85a1.59,1.59,0,0,1-.22-.77V438Zm45.17,77.35a58.61,58.61,0,0,0-10.2-2.11c9.34-1.94,14.11-5.51,14.11-10.5s-4.69-8.95-12.48-11a77.89,77.89,0,0,0-18.41-1.81c-2.41,0-4.43.09-6.2.17-11.87.6-11.87.6-17.29.6-3.05,0-5.42-.09-6.58-.17l-3.05-.3h-.17c-2,0-2.54.77-2.54,1.59s-.17,1.12,2.5,1.42,3.66.43,4.69.9l1.33.9.9,21.6v15.23c0,4.35-1.51,6.54-5.42,7.7s-3.66,1.16-3.66,1.85.77,1.08,2,1.08a29,29,0,0,0,3.14-.22c2.67-.22,6.45-.34,11.1-.39a18.16,18.16,0,0,0-5.81,3.4,13.67,13.67,0,0,0-4.78,10.07,11,11,0,0,0,1.76,6,2.28,2.28,0,0,0-.69.47,14.14,14.14,0,0,1-4.95,3.4,35,35,0,0,1-10,1.33c-3.79,0-8.17-.6-8.17-1.2s.22-.39,3.79-2.32C507,555.19,509,553.77,509,550.16c0-4.78-6.11-8.43-14.07-8.43a28.48,28.48,0,0,0-5,.43c10-2.32,16.91-8.35,16.91-15.66s-5.76-12.26-18-15.87l-13.94-4.13c-7-2.07-10.45-4.6-10.45-7.66,0-4.39,6.24-8,13.68-8,10.11,0,21,6,23.62,13.08.65,1.51,1.29,2.07,2.41,2.07s1.68-.56,1.68-1.51a1.89,1.89,0,0,0-.13-.86c-1.29-6.24-1.55-7.4-1.55-9.64v-.82a12.3,12.3,0,0,0,.13-1.76c0-.65-.52-1.12-1.55-1.12a4.22,4.22,0,0,0-1.55.39c-1.94.82-1.94.82-2.93.82s-1.68-.09-5.38-1.2a50.08,50.08,0,0,0-14.2-2.07c-6.32,0-11.87,1.42-15.92,3.83-4.56,2.71-7.31,6.63-7.31,11.14a10.37,10.37,0,0,0,.77,4.09c1.63,3.79,5.76,6.63,12.86,8.86L487.71,522c7.36,2.32,10.15,4.47,10.45,8v1.16c-.39,5.16-7.57,9.34-15.75,9.34-10,0-22.37-7.49-24.91-15.14-.52-1.29-1.16-1.76-2.32-1.76a1.76,1.76,0,0,0-1.94,1.89c0,1.2.39,2.24,2.07,6.54a23.87,23.87,0,0,1,1.55,4.39l.77,3a69.59,69.59,0,0,0,22.76,4,43.06,43.06,0,0,0,7.83-.69,26.76,26.76,0,0,0-7.83,3.23c-2.62,1.59-4.56,3.53-4.56,4.39s.47.77,1.16.77a2.11,2.11,0,0,0,1.38-.6,18.12,18.12,0,0,1,11.53-3.87c5.42,0,9.42,2.58,9.42,6.11,0,1.55-.56,2.71-2.15,4.39s-2.62,2.45-9.59,6.45c-12.69,7.4-12.82,7.44-12.82,8.13s.47.82,1.25.82h1.76q3.05-.22,6.41-.22c1.85,0,4.73,0,8.52.22,4.47.13,6.67.22,12.3.22,1.76,0,2.15-.09,2.41-.26s1.08-1.08,3.23-4.26l2.32-3.53.9-1.46c2.71,2.88,7.1,4.65,12.39,4.65,4.17,0,7.27-.82,12.13-3.05a4.39,4.39,0,0,1,1.76-.52.65.65,0,0,1,.69.6s0,0,0,0c0,1.42-1.94,4.82-4.09,7.14-4.56,4.95-11.14,8-20.39,9.46-1.46.26-2,.52-2,1.12s.69,1,1.85,1c5.51,0,14.63-2.32,21-5.38,9.89-4.78,15.92-12.56,15.92-20.65a16.18,16.18,0,0,0-5.38-12,18,18,0,0,0-4.6-3h3.05c8.95,0,16-1,21.08-3,6.67-2.71,10.84-7.74,10.84-13.29s-3.48-8.91-10.45-10.84ZM528,497.24c0-3,3.14-4.6,9.46-4.6,12.26,0,21.21,5.42,21.21,12.73,0,4.73-4.52,7.61-11.87,7.61H536.33q-8.3,0-8.35-4.65Zm4.69,66.86c-7.18,0-12.82-5.38-12.82-12.39,0-5.59,3.87-9.46,9.59-9.46,7.36,0,13.77,6.24,13.77,13.38,0,5.12-4.13,8.48-10.54,8.48Zm11.87-24.22c-13,0-16.91-2-16.91-8.69V519.57c0-2.8,1.76-3.48,8.35-3.48,10.8,0,18.37,1.33,22.84,4a9.25,9.25,0,0,1,4.86,7.44v.34a10.65,10.65,0,0,1-3.18,7.27,15.75,15.75,0,0,1-5.85,3.31,29.51,29.51,0,0,1-10.11,1.33Zm-37-49.52C506.43,490.23,508,490.36,507.55,490.36Z" transform="translate(-414.75 -394.16)"/><path d="M543.21,405.22c-11.4,6.11-25.9,6.11-29.47,6h-.86c-3.61.13-18.07.13-29.51-6-21.81,15.19-29.25,20.65-56.19,27.71,1.16,23.32-2.58,129,85.87,187.1l.22.17h.09c88.5-58.21,84.88-164,86-187.27-26.93-7.06-34.37-12.52-56.19-27.71Zm-29.9,205v.13l-.09-.09-.22.17v-.3c-87.33-54.94-83.63-154.79-84.8-176.82,26.59-6.67,33.94-11.83,55.45-26.2,11.31,5.81,25.55,5.76,29.13,5.68h.86c3.53.09,17.81.13,29.13-5.68,21.51,14.37,28.82,19.49,55.41,26.16-1.16,22.07,2.41,122-84.88,176.95Zm2.75-175.79v.22c.22,4.22,1.94,22.67,13.77,33-8.65-.56-13,11.14-14.07,14.46v.09l-.22.77c-2.32-12.43-8.56-15.53-12-16.31l-2.93-.13c13-9.21,15.1-27.4,15.4-31.23V433.7s0,.3,0,.82Zm-19.36.9h-.13a41,41,0,0,0,6.32-2.41s6.75-3.27,8.48,2a4,4,0,0,1,.22.95V436h0v.17a1.55,1.55,0,0,1-.26.77c-1.81,4.6-8.43,1.08-8.43,1.08a49.39,49.39,0,0,0-6.2-2.71Zm16.86-13.55a41.73,41.73,0,0,0,2.5-5.94v-.13a41.56,41.56,0,0,0,2.8,6.28s3.74,6.8-1.81,8.22l-.73.13h-.56a1.72,1.72,0,0,1-.73-.22c-4.82-2-1.46-8.35-1.46-8.35Zm7.31,14.76v-.09h0c0-.09,0-.17,0-.26a3.57,3.57,0,0,1,.17-.65c1.76-5.33,8.56-1.33,8.56-1.33a44.74,44.74,0,0,0,6.28,3h-.17a44.91,44.91,0,0,0-6.2,2.11s-6.71,2.93-8.43-1.85a1.59,1.59,0,0,1-.22-.77v-.17Zm45.17,77.35a58.61,58.61,0,0,0-10.2-2.11c9.34-1.94,14.11-5.51,14.11-10.5s-4.69-8.95-12.48-11a78.21,78.21,0,0,0-18.41-1.76c-2.41,0-4.43.09-6.2.17-11.87.6-11.87.6-17.29.6-3,0-5.42-.09-6.58-.17l-3.05-.3h-.17c-2,0-2.54.77-2.54,1.59s-.17,1.12,2.5,1.42,3.66.43,4.69.9l1.33.9.9,21.6v15.23c0,4.35-1.51,6.54-5.42,7.7s-3.66,1.16-3.66,1.85.77,1.08,2,1.08a29,29,0,0,0,3.14-.22c2.67-.22,6.45-.34,11.1-.39a18.2,18.2,0,0,0-5.81,3.4,13.67,13.67,0,0,0-4.78,10.07,11,11,0,0,0,1.76,6,2.28,2.28,0,0,0-.69.47,14.14,14.14,0,0,1-4.95,3.4,35,35,0,0,1-10,1.33c-3.79,0-8.17-.6-8.17-1.2s.22-.39,3.79-2.32c14.46-7.87,16.39-9.29,16.39-12.91,0-4.78-6.11-8.43-14.07-8.43a28.48,28.48,0,0,0-5,.43c10-2.32,16.91-8.35,16.91-15.66s-5.76-12.26-18-15.87L473.3,505c-7-2.07-10.45-4.6-10.45-7.66,0-4.39,6.24-8,13.68-8,10.11,0,21,6,23.62,13.08.65,1.51,1.29,2.07,2.41,2.07s1.68-.56,1.68-1.51a1.89,1.89,0,0,0-.13-.86c-1.29-6.24-1.55-7.4-1.55-9.64v-.82a12.22,12.22,0,0,0,.13-1.76c0-.65-.52-1.12-1.55-1.12a4.26,4.26,0,0,0-1.55.39c-1.94.82-1.94.82-2.93.82s-1.68-.09-5.38-1.2a50.08,50.08,0,0,0-14.2-2.07,31.55,31.55,0,0,0-15.92,3.83c-4.56,2.71-7.31,6.63-7.31,11.14a10.37,10.37,0,0,0,.77,4.09c1.63,3.79,5.76,6.63,12.86,8.86l18.76,6c7.36,2.32,10.15,4.47,10.45,8v1.16c-.47,4.95-7.66,9.12-15.83,9.12-10,0-22.37-7.49-24.91-15.14-.52-1.29-1.16-1.76-2.32-1.76a1.76,1.76,0,0,0-1.89,1.89c0,1.2.39,2.24,2.07,6.54a23.87,23.87,0,0,1,1.55,4.39l.77,3a69.59,69.59,0,0,0,22.76,4,43,43,0,0,0,7.83-.69,26.72,26.72,0,0,0-7.83,3.23c-2.62,1.59-4.56,3.53-4.56,4.39s.47.77,1.16.77a2.11,2.11,0,0,0,1.38-.6A18.12,18.12,0,0,1,488.4,545c5.42,0,9.42,2.58,9.42,6.11,0,1.55-.56,2.71-2.15,4.39S493,558,486.08,562c-12.69,7.4-12.82,7.44-12.82,8.13s.47.82,1.25.82h1.76c2-.13,4.17-.22,6.41-.22s4.73,0,8.52.22c4.47.13,6.67.22,12.3.22,1.76,0,2.15-.09,2.41-.26s1.08-1.08,3.23-4.26l2.32-3.53.9-1.46c2.71,2.88,7.1,4.65,12.39,4.65,4.17,0,7.27-.82,12.13-3.05a4.39,4.39,0,0,1,1.76-.52.65.65,0,0,1,.69.6s0,0,0,0c0,1.42-1.94,4.82-4.09,7.14-4.56,4.95-11.14,8-20.39,9.46-1.46.26-2,.52-2,1.12s.69,1,1.85,1c5.51,0,14.63-2.32,21-5.38,9.89-4.78,15.92-12.56,15.92-20.65a16.18,16.18,0,0,0-5.33-12,18,18,0,0,0-4.6-3h3.05c8.95,0,16-1,21.08-3,6.67-2.71,10.84-7.74,10.84-13.29s-3.57-8.95-10.5-10.88Zm-39.62-18.11c0-3,3.18-4.6,9.46-4.6,12.26,0,21.21,5.42,21.21,12.73,0,4.73-4.52,7.61-11.87,7.61H534.78q-8.3,0-8.35-4.65Zm4.69,66.77c-7.18,0-12.82-5.38-12.82-12.39,0-5.59,3.87-9.46,9.59-9.46,7.36,0,13.77,6.24,13.77,13.38,0,5.21-4.13,8.52-10.54,8.52ZM543,538.29c-13,0-16.91-2-16.91-8.69V518.07c0-2.8,1.76-3.48,8.35-3.48,10.8,0,18.37,1.33,22.84,4a9.25,9.25,0,0,1,4.86,7.44v.34a10.65,10.65,0,0,1-3.18,7.27,15.75,15.75,0,0,1-5.85,3.31A30.44,30.44,0,0,1,543,538.33Zm-37-49.47C504.88,488.68,506.43,488.81,506,488.81Z" transform="translate(-414.75 -394.16)" style="fill:#fff"/><path d="M512,402.17c-4,.13-19.92-1.29-32.52-8-24,16.65-35,22.93-64.7,30.67,1.29,25.6,0,141.07,97.49,204.83l.26.17.09-.09C610.11,566,608,450.39,609.25,424.84c-29.68-7.74-39.79-14-63.8-30.67-12.56,6.71-29.51,8.13-33.47,8" transform="translate(-414.75 -394.16)" style="fill:none"/></svg>