<?xml version="1.0" encoding="UTF-8" standalone="no"?>
<svg
   clip-rule="evenodd"
   fill-rule="evenodd"
   stroke-linejoin="round"
   stroke-miterlimit="2"
   viewBox="0 0 300 300.00601"
   version="1.1"
   id="svg3"
   sodipodi:docname="Brighton.svg"
   width="300"
   height="300.00601"
   xmlns:inkscape="http://www.inkscape.org/namespaces/inkscape"
   xmlns:sodipodi="http://sodipodi.sourceforge.net/DTD/sodipodi-0.dtd"
   xmlns="http://www.w3.org/2000/svg"
   xmlns:svg="http://www.w3.org/2000/svg">
  <defs
     id="defs3" />
  <sodipodi:namedview
     id="namedview3"
     pagecolor="#ffffff"
     bordercolor="#000000"
     borderopacity="0.25"
     inkscape:showpageshadow="2"
     inkscape:pageopacity="0.0"
     inkscape:pagecheckerboard="0"
     inkscape:deskcolor="#d1d1d1" />
  <g
     fill-rule="nonzero"
     id="g3"
     transform="translate(-130,-49.997)">
    <path
       d="m 430,200.003 c 0,82.837 -67.168,150 -150,150 -82.843,0 -150,-67.163 -150,-150 0,-82.843 67.157,-150.006 150,-150.006 82.832,0 150,67.163 150,150.006"
       fill="#ffffff"
       id="path1" />
    <path
       d="m 251.603,311.725 -3.719,-0.902 -4.365,18.266 0.102,0.029 11.82,2.823 0.8,-3.351 -8.192,-1.95 z m 70.388,-4.297 3.759,10.47 -10.533,-8.055 -3.192,1.15 6.304,17.671 3.617,-1.292 -3.753,-10.505 10.522,8.09 0.062,-0.029 3.147,-1.128 -6.316,-17.665 z m -100.423,13.486 3.696,1.514 2.285,-2.625 5.964,2.449 -0.227,3.453 0.074,0.034 3.64,1.491 0.759,-19.984 -2.744,-1.117 z m 12.234,-2.057 -4.014,-1.645 4.439,-5.022 z m 73.858,-1.877 c -0.397,-1.003 -1.072,-1.848 -2.058,-2.506 -0.788,-0.567 -1.633,-0.935 -2.506,-1.134 -0.459,-0.107 -0.918,-0.153 -1.417,-0.153 -0.465,0 -0.941,0.046 -1.44,0.136 -1.026,0.176 -1.911,0.511 -2.682,0.998 -0.759,0.488 -1.434,1.123 -1.978,1.916 -0.663,0.947 -1.004,1.968 -1.026,3.062 v 0.198 c 0,1.06 0.158,2.546 0.504,4.433 0.346,2.013 0.72,3.51 1.111,4.513 0.386,1.004 1.066,1.854 2.007,2.529 0.788,0.555 1.644,0.929 2.529,1.133 0.453,0.091 0.924,0.142 1.411,0.142 0.465,0 0.953,-0.045 1.44,-0.13 1.032,-0.187 1.916,-0.516 2.682,-0.998 0.748,-0.482 1.417,-1.134 1.961,-1.916 0.686,-0.981 1.055,-2.024 1.072,-3.096 -0.006,-0.051 0,-0.09 0,-0.153 0,-1.043 -0.187,-2.534 -0.516,-4.45 -0.357,-2.024 -0.72,-3.526 -1.094,-4.524 m -2.223,8.787 c 0,0.357 -0.034,0.652 -0.113,0.907 -0.062,0.25 -0.159,0.494 -0.312,0.715 -0.436,0.731 -1.117,1.167 -2.046,1.343 -0.221,0.029 -0.425,0.051 -0.63,0.051 -0.238,0 -0.464,-0.022 -0.691,-0.073 -0.42,-0.097 -0.783,-0.267 -1.072,-0.522 -0.226,-0.164 -0.397,-0.352 -0.533,-0.556 -0.147,-0.198 -0.283,-0.487 -0.413,-0.833 -0.125,-0.357 -0.261,-0.799 -0.38,-1.338 -0.119,-0.538 -0.267,-1.27 -0.42,-2.194 -0.158,-0.93 -0.289,-1.667 -0.363,-2.228 -0.068,-0.533 -0.096,-0.958 -0.096,-1.309 v -0.074 c 0.011,-0.363 0.045,-0.68 0.108,-0.93 0.068,-0.238 0.164,-0.476 0.3,-0.669 0.199,-0.357 0.476,-0.64 0.834,-0.879 0.357,-0.238 0.759,-0.385 1.23,-0.481 0.227,-0.029 0.436,-0.057 0.646,-0.057 0.652,0.011 1.23,0.21 1.729,0.612 0.221,0.165 0.408,0.363 0.567,0.578 0.142,0.21 0.278,0.477 0.397,0.805 0.142,0.335 0.272,0.777 0.397,1.338 0.119,0.556 0.261,1.293 0.419,2.194 0.159,0.896 0.278,1.627 0.352,2.211 0.073,0.522 0.102,0.958 0.102,1.304 v 0.085 z m -21.69,-10.567 0.896,18.748 0.108,-0.006 3.719,-0.187 -0.902,-18.736 z m -11.933,-0.233 -7.523,-0.612 -1.497,18.72 7.858,0.618 c 0.238,0.022 0.464,0.028 0.686,0.028 h 0.011 c 1.406,0 2.619,-0.374 3.594,-1.128 1.14,-0.868 1.775,-2.171 1.905,-3.866 0.017,-0.199 0.023,-0.363 0.023,-0.539 0,-0.884 -0.187,-1.633 -0.584,-2.262 -0.408,-0.652 -0.93,-1.174 -1.537,-1.559 0.55,-0.249 1.055,-0.663 1.537,-1.242 0.555,-0.652 0.861,-1.451 0.929,-2.403 0.012,-0.199 0.017,-0.386 0.017,-0.579 0,-1.349 -0.402,-2.5 -1.241,-3.418 -0.953,-1.032 -2.347,-1.621 -4.178,-1.758 m 1.236,13.278 c -0.057,0.64 -0.295,1.133 -0.72,1.519 -0.369,0.317 -0.851,0.488 -1.486,0.488 -0.09,0 -0.181,0 -0.289,-0.006 l -3.673,-0.301 0.351,-4.337 3.674,0.29 c 0.765,0.056 1.309,0.306 1.672,0.737 0.323,0.385 0.482,0.839 0.482,1.389 0,0.062 -0.006,0.147 -0.011,0.221 m 0.345,-7.671 c -0.045,0.613 -0.277,1.083 -0.703,1.429 -0.368,0.283 -0.833,0.436 -1.439,0.436 -0.103,0 -0.199,-0.005 -0.301,-0.011 l -3.435,-0.278 0.317,-4.059 3.441,0.267 c 0.737,0.068 1.281,0.294 1.65,0.691 0.323,0.357 0.482,0.777 0.482,1.31 0,0.068 0,0.142 -0.012,0.215 M 280,51.902 c -81.794,0 -148.101,66.306 -148.101,148.095 0,81.789 66.307,148.107 148.101,148.107 81.789,0 148.095,-66.318 148.095,-148.107 C 428.095,118.203 361.783,51.902 280,51.902 m 0,290.499 c -78.654,0 -142.403,-63.756 -142.403,-142.41 0,-78.642 63.749,-142.403 142.403,-142.403 78.654,0 142.403,63.761 142.403,142.403 0,78.654 -63.749,142.41 -142.403,142.41 M 311.832,89.562 c 0.811,0.278 1.537,0.42 2.172,0.437 0.198,0.005 0.374,0 0.561,-0.017 0.742,-0.08 1.496,-0.267 2.262,-0.533 l 0.028,-0.017 0.748,1.848 4.332,1.446 -2.002,-4.802 c 0.783,-0.471 1.452,-1.089 2.036,-1.843 0.584,-0.788 1.088,-1.751 1.536,-2.902 l 0.04,-0.097 -3.198,-1.054 -0.039,0.091 c -0.448,1.218 -1.043,2.086 -1.746,2.607 l -1.724,-4.178 c 0.21,-0.056 0.459,-0.13 0.726,-0.221 0.306,-0.096 0.544,-0.176 0.72,-0.232 0.72,-0.233 1.315,-0.545 1.791,-0.93 0.488,-0.38 0.828,-0.901 1.049,-1.548 0.147,-0.459 0.232,-0.924 0.238,-1.36 0.011,-0.709 -0.142,-1.389 -0.51,-2.041 -0.573,-1.06 -1.565,-1.809 -2.937,-2.262 -0.686,-0.221 -1.326,-0.346 -1.944,-0.352 -0.675,-0.022 -1.321,0.091 -1.916,0.352 -1.089,0.476 -1.86,1.332 -2.251,2.551 -0.142,0.425 -0.21,0.85 -0.227,1.264 -0.006,0.301 0.017,0.595 0.085,0.89 0.131,0.641 0.357,1.321 0.652,2.03 -1.094,0.295 -2.046,0.72 -2.857,1.253 -0.839,0.561 -1.423,1.36 -1.775,2.375 -0.221,0.697 -0.345,1.349 -0.357,1.967 -0.017,0.89 0.17,1.701 0.579,2.455 0.691,1.258 2.006,2.205 3.928,2.823 M 315.2,75.701 c 0.124,-0.397 0.346,-0.675 0.669,-0.833 0.164,-0.097 0.357,-0.136 0.578,-0.131 0.164,0 0.346,0.034 0.533,0.097 0.419,0.141 0.703,0.363 0.862,0.697 0.102,0.198 0.147,0.403 0.141,0.612 0,0.142 -0.028,0.295 -0.079,0.442 -0.091,0.261 -0.244,0.46 -0.493,0.635 -0.244,0.176 -0.556,0.318 -0.919,0.414 -0.113,0.051 -0.243,0.091 -0.431,0.136 -0.136,0.046 -0.255,0.068 -0.368,0.091 -0.244,-0.561 -0.403,-0.992 -0.493,-1.304 -0.051,-0.181 -0.068,-0.346 -0.068,-0.493 0.005,-0.13 0.028,-0.255 0.068,-0.363 m -4.207,7.648 c 0.182,-0.544 0.471,-0.964 0.868,-1.242 0.385,-0.278 0.929,-0.521 1.621,-0.725 l 2.086,5.011 c -0.487,0.204 -0.935,0.301 -1.36,0.329 h -0.261 c -0.363,-0.011 -0.748,-0.079 -1.151,-0.21 -0.731,-0.238 -1.27,-0.652 -1.61,-1.247 -0.221,-0.38 -0.329,-0.771 -0.312,-1.191 0.006,-0.232 0.046,-0.476 0.119,-0.725 m -30.936,-9.309 7.137,10.896 h 3.362 V 66.602 h -3.793 v 10.862 l -7.137,-10.862 h -3.362 v 18.334 h 3.793 z m 92.917,57.797 6.724,10.221 2.812,-1.842 -4.695,-7.137 3.51,-2.308 3.991,6.078 2.806,-1.843 -3.991,-6.077 3.384,-2.223 4.689,7.132 2.806,-1.848 -6.769,-10.306 -15.318,10.062 z m -20.103,-27.11 c -0.442,0.788 -0.663,1.673 -0.663,2.625 0,0.147 0.006,0.312 0.028,0.482 0.074,0.947 0.318,1.825 0.737,2.619 0.408,0.794 1.015,1.531 1.797,2.188 0.788,0.681 1.582,1.151 2.444,1.435 0.669,0.215 1.383,0.334 2.131,0.334 0.193,0 0.369,-0.006 0.562,-0.023 1.173,-0.079 2.182,-0.448 2.999,-1.094 0.816,-0.657 1.865,-1.729 3.157,-3.243 1.31,-1.525 2.217,-2.749 2.727,-3.645 0.414,-0.759 0.635,-1.599 0.635,-2.517 0,-0.193 -0.017,-0.397 -0.04,-0.601 -0.079,-0.947 -0.328,-1.825 -0.737,-2.613 -0.396,-0.8 -1.003,-1.531 -1.774,-2.194 -0.794,-0.669 -1.599,-1.145 -2.449,-1.429 -0.692,-0.238 -1.412,-0.346 -2.177,-0.346 -0.181,0 -0.351,0.006 -0.539,0.029 -1.128,0.068 -2.114,0.447 -2.953,1.099 -0.828,0.652 -1.888,1.741 -3.186,3.255 -1.287,1.513 -2.189,2.726 -2.699,3.639 m 2.977,3.078 c 0,-0.221 0.022,-0.436 0.085,-0.629 0.068,-0.232 0.181,-0.504 0.368,-0.833 0.176,-0.306 0.437,-0.68 0.765,-1.106 0.346,-0.436 0.805,-0.992 1.395,-1.689 0.595,-0.692 1.083,-1.253 1.451,-1.644 0.38,-0.403 0.703,-0.709 0.998,-0.93 0.272,-0.227 0.522,-0.391 0.76,-0.493 0.238,-0.102 0.465,-0.17 0.708,-0.198 0.114,-0.023 0.244,-0.035 0.363,-0.035 0.261,0 0.533,0.046 0.817,0.131 0.396,0.136 0.776,0.351 1.133,0.652 0.715,0.618 1.078,1.332 1.089,2.154 v 0.125 c 0,0.227 -0.028,0.442 -0.085,0.652 -0.068,0.238 -0.182,0.516 -0.357,0.822 -0.165,0.306 -0.425,0.674 -0.766,1.111 -0.345,0.442 -0.805,1.009 -1.389,1.695 -0.572,0.658 -1.054,1.213 -1.44,1.616 -0.391,0.419 -0.714,0.731 -0.986,0.947 -0.278,0.215 -0.539,0.368 -0.765,0.481 -0.227,0.102 -0.471,0.165 -0.743,0.204 -0.13,0.017 -0.278,0.023 -0.402,0.023 -0.664,0 -1.299,-0.244 -1.9,-0.76 -0.362,-0.311 -0.629,-0.651 -0.827,-1.026 -0.176,-0.385 -0.272,-0.759 -0.272,-1.139 z m -13.969,-13.81 5.13,3.169 -3.968,6.458 0.079,0.056 3.141,1.934 9.604,-15.608 -3.221,-1.984 -3.889,6.304 -5.141,-3.163 3.9,-6.31 -3.232,-1.99 -9.609,15.602 3.232,2.001 z m 25.443,30.943 0.074,-0.034 17.755,-7.461 -2.607,-2.971 -11.089,4.944 6.287,-10.38 -2.602,-2.954 -9.683,16.724 z M 257.845,82 c 0.34,1.003 0.958,1.853 1.859,2.568 0.749,0.584 1.565,0.98 2.438,1.218 0.561,0.154 1.145,0.227 1.78,0.227 0.335,0 0.686,-0.028 1.043,-0.062 1.038,-0.13 1.922,-0.408 2.71,-0.845 0.777,-0.436 1.457,-1.032 2.047,-1.78 0.72,-0.918 1.128,-1.91 1.207,-2.959 0.012,-0.238 0.029,-0.488 0.029,-0.771 0,-0.964 -0.108,-2.211 -0.284,-3.748 -0.255,-1.989 -0.544,-3.469 -0.856,-4.467 -0.334,-1.003 -0.964,-1.848 -1.899,-2.557 -0.754,-0.584 -1.57,-0.986 -2.421,-1.224 -0.567,-0.148 -1.156,-0.227 -1.774,-0.227 -0.346,0 -0.697,0.028 -1.055,0.074 -1.037,0.125 -1.927,0.402 -2.715,0.845 -0.777,0.436 -1.468,1.026 -2.058,1.78 -0.703,0.878 -1.088,1.865 -1.174,2.925 -0.028,0.261 -0.034,0.544 -0.034,0.856 0,0.964 0.097,2.188 0.29,3.696 0.238,1.973 0.532,3.447 0.867,4.451 m 2.63,-8.459 c 0.029,-0.363 0.074,-0.657 0.154,-0.896 0.079,-0.238 0.192,-0.459 0.334,-0.657 0.204,-0.318 0.505,-0.59 0.867,-0.794 0.363,-0.215 0.788,-0.351 1.259,-0.408 0.147,-0.011 0.306,-0.028 0.465,-0.028 0.725,0 1.332,0.221 1.848,0.674 0.21,0.182 0.38,0.374 0.51,0.59 0.142,0.215 0.267,0.482 0.374,0.816 0.102,0.329 0.21,0.765 0.295,1.315 0.102,0.556 0.21,1.276 0.323,2.166 0.108,0.879 0.176,1.599 0.221,2.166 0.034,0.351 0.046,0.674 0.046,0.946 0,0.153 0,0.295 -0.012,0.42 -0.028,0.351 -0.079,0.635 -0.153,0.884 -0.079,0.238 -0.198,0.465 -0.357,0.681 -0.47,0.686 -1.156,1.088 -2.092,1.201 -0.153,0.017 -0.317,0.029 -0.453,0.029 -0.306,0 -0.59,-0.04 -0.862,-0.114 -0.408,-0.119 -0.748,-0.306 -1.037,-0.567 -0.21,-0.17 -0.369,-0.357 -0.494,-0.561 -0.119,-0.204 -0.243,-0.482 -0.357,-0.833 -0.119,-0.346 -0.221,-0.788 -0.312,-1.327 -0.096,-0.527 -0.192,-1.253 -0.311,-2.154 -0.119,-0.918 -0.188,-1.644 -0.233,-2.194 -0.028,-0.346 -0.045,-0.652 -0.045,-0.93 0.005,-0.153 0.011,-0.3 0.022,-0.425 m -66.805,50.688 -5.329,-4.887 1.627,-1.786 7.756,2.234 0.045,-0.051 2.92,-3.18 -8.589,-2.274 c 0.249,-0.629 0.374,-1.281 0.374,-1.961 0,-0.306 -0.028,-0.612 -0.079,-0.924 -0.17,-1.043 -0.72,-1.99 -1.627,-2.812 -0.567,-0.522 -1.208,-0.924 -1.888,-1.179 -0.59,-0.233 -1.219,-0.341 -1.86,-0.341 -0.096,0 -0.181,0 -0.283,0.006 -0.731,0.04 -1.474,0.244 -2.211,0.601 -0.72,0.363 -1.389,0.896 -2.024,1.576 l -4.927,5.391 13.538,12.382 z m -7.659,-7.024 -3.396,-3.101 2.223,-2.421 c 0.504,-0.55 1.065,-0.845 1.689,-0.913 0.068,0 0.142,-0.005 0.204,-0.005 0.544,0 1.026,0.198 1.491,0.629 0.51,0.465 0.76,0.992 0.76,1.621 0,0.63 -0.25,1.219 -0.76,1.775 z m -1.57,18.663 c 0.765,-1.174 1.151,-2.325 1.151,-3.481 0,-0.261 -0.017,-0.51 -0.057,-0.771 -0.215,-1.395 -1.026,-2.546 -2.421,-3.464 -0.844,-0.544 -1.644,-0.822 -2.426,-0.822 -0.091,0 -0.159,0 -0.238,0.011 -0.766,0.057 -1.457,0.261 -2.069,0.607 0.005,-0.079 0.005,-0.159 0.005,-0.244 0,-0.516 -0.125,-1.088 -0.351,-1.672 -0.289,-0.771 -0.828,-1.418 -1.627,-1.933 -0.941,-0.63 -1.905,-0.936 -2.875,-0.936 -0.362,0 -0.754,0.051 -1.133,0.148 -1.35,0.345 -2.506,1.292 -3.498,2.8 l -4.088,6.27 15.369,10.029 z m -9.536,-5.511 -1.865,2.858 -3.328,-2.166 1.86,-2.869 c 0.402,-0.618 0.867,-0.98 1.383,-1.105 0.148,-0.045 0.289,-0.062 0.437,-0.062 0.357,0 0.725,0.113 1.077,0.351 0.516,0.335 0.81,0.76 0.89,1.281 0.023,0.091 0.034,0.193 0.034,0.295 0.006,0.437 -0.159,0.907 -0.488,1.417 m 0.964,4.717 2.007,-3.061 c 0.402,-0.635 0.879,-0.998 1.423,-1.111 h 0.006 c 0.13,-0.023 0.272,-0.046 0.413,-0.046 0.397,0 0.8,0.131 1.185,0.386 0.528,0.334 0.834,0.776 0.964,1.332 0.034,0.125 0.045,0.266 0.045,0.391 0,0.431 -0.147,0.89 -0.47,1.366 l -1.996,3.067 z m 28.096,-21.373 2.801,-2.398 -11.922,-13.934 -2.886,2.46 11.928,13.946 z m 39.883,-38.703 3.985,14.434 3.651,-0.992 -3.98,-14.44 4.638,-1.281 -0.907,-3.231 -12.909,3.554 0.884,3.237 z m -38,25.313 c 1.088,1.655 2.018,2.857 2.76,3.6 0.76,0.742 1.69,1.236 2.807,1.468 0.465,0.091 0.929,0.136 1.377,0.136 1.372,0 2.693,-0.419 3.929,-1.241 1.746,-1.157 2.801,-2.716 3.163,-4.649 0.08,-0.357 0.114,-0.714 0.114,-1.066 0,-0.538 -0.085,-1.077 -0.25,-1.599 -0.266,-0.873 -0.782,-1.859 -1.525,-2.993 l -1.502,-2.234 -5.868,3.901 1.758,2.63 2.71,-1.802 0.306,0.447 c 0.261,0.386 0.442,0.794 0.584,1.219 0.079,0.284 0.124,0.567 0.124,0.839 0,0.125 -0.017,0.255 -0.034,0.374 -0.141,0.89 -0.612,1.593 -1.434,2.138 -0.567,0.374 -1.128,0.555 -1.678,0.555 -0.227,0 -0.453,-0.022 -0.68,-0.079 -0.261,-0.068 -0.488,-0.164 -0.698,-0.289 -0.192,-0.119 -0.43,-0.323 -0.685,-0.595 -0.267,-0.273 -0.556,-0.618 -0.868,-1.049 -0.334,-0.442 -0.743,-1.043 -1.247,-1.809 -0.516,-0.754 -0.907,-1.389 -1.196,-1.854 -0.289,-0.464 -0.488,-0.867 -0.624,-1.201 -0.136,-0.324 -0.227,-0.613 -0.261,-0.868 -0.022,-0.113 -0.028,-0.244 -0.028,-0.357 0,-0.125 0.011,-0.249 0.028,-0.374 0.119,-0.828 0.556,-1.491 1.333,-2.013 0.555,-0.362 1.065,-0.561 1.553,-0.612 0.108,-0.023 0.244,-0.023 0.385,-0.023 0.42,0 0.93,0.057 1.52,0.182 l 0.09,0.011 0.743,-3.543 -0.096,-0.017 c -0.692,-0.136 -1.332,-0.21 -1.933,-0.21 -0.42,0 -0.834,0.034 -1.208,0.108 -0.901,0.176 -1.882,0.612 -2.925,1.304 -1.661,1.1 -2.682,2.596 -3.067,4.473 -0.091,0.391 -0.125,0.793 -0.125,1.179 0,0.68 0.125,1.332 0.386,1.961 0.402,0.976 1.139,2.296 2.262,3.952 m 24.36,-3.957 -3.118,-6.922 5.493,-2.472 3.135,6.922 0.097,-0.04 3.356,-1.519 -7.546,-16.718 -3.464,1.559 3.062,6.752 -5.499,2.483 -3.056,-6.758 -3.453,1.559 7.552,16.724 z m 110.894,112.918 c 1.519,0 2.738,-1.758 2.738,-1.758 0,0 -1.224,-1.746 -2.738,-1.746 -1.514,0 -2.732,1.746 -2.732,1.746 0,0 1.218,1.758 2.732,1.758 m 71.556,-26.6 c -1.82,-0.975 -4.615,-2.267 -8.623,-3.951 -4.127,-1.724 -12.653,-4.445 -21.491,-6.803 C 370.219,126.814 328.993,93.667 280,93.667 c -54.883,0 -100.038,41.588 -105.707,94.958 -5.408,0.805 -10.573,1.434 -15.057,1.905 -8.878,0.924 -15.04,1.253 -15.052,1.258 -0.334,0.017 -0.589,0.272 -0.635,0.595 -0.005,0.029 -0.005,0.063 -0.005,0.114 -0.023,0.487 0.323,2.523 3.685,4.235 3.356,1.746 9.711,3.328 22.024,3.339 1.389,0 2.869,-0.04 4.416,-0.074 0,58.721 47.599,106.325 106.331,106.325 58.715,0 106.325,-47.604 106.325,-106.325 0,-6.672 -0.652,-13.203 -1.82,-19.536 10.93,2.415 24.684,5.539 29.117,5.55 0.47,-0.011 0.845,-0.028 1.168,-0.136 0.289,-0.062 0.714,-0.306 0.731,-0.805 -0.176,-0.963 -1.066,-1.343 -2.863,-2.398 m 0.958,2.325 c -6.945,0.011 -38.868,-8.272 -43.403,-8.289 -7.086,0.046 -23.034,8.799 -31.316,14.179 -2.41,1.576 -4.864,2.999 -7.262,4.252 0.606,0.034 1.23,0.085 1.819,0.164 5.04,0.601 9.508,2.551 13.119,5.199 4.654,3.469 9.467,7.721 12.359,8.288 0.136,0.011 0.294,0.023 0.459,0.045 h 0.011 c 4.116,0.386 15.891,3.3 15.522,10.267 0,0 -8.197,-2.477 -18.028,-0.793 -3.872,0.827 -9.518,1.349 -18.067,4.07 -8.096,2.551 -29.213,10.556 -45.722,10.562 -12.563,-0.012 -37.944,-7.24 -52.593,-8.481 -0.873,-0.074 -1.74,-0.12 -2.607,-0.12 -11.152,-0.011 -20.727,5.851 -25.517,5.913 -4.32,0 -11.894,-0.737 -19.309,-6.236 -5.641,-4.217 -9.808,-10.38 -9.865,-14.944 -0.011,-1.525 0.533,-2.942 1.724,-3.877 0.839,-0.641 2.018,-0.771 3.571,-0.788 5.749,0.005 17.127,2.5 30.625,2.494 8.028,0 16.764,-0.873 25.432,-3.668 2.012,-0.646 8.067,-2.058 11.967,-3.038 1.032,0.703 2.121,1.462 3.334,2.301 0.119,0.085 0.244,0.125 0.368,0.125 0.221,0 0.426,-0.108 0.562,-0.283 0.215,-0.312 0.13,-0.726 -0.159,-0.942 -7.506,-5.227 -11.072,-8.129 -23.629,-8.095 -7.999,0 -19.7,1.111 -38.647,3.384 -12.296,1.469 -21.792,2.041 -29.111,2.041 -12.2,0.006 -18.379,-1.593 -21.401,-3.18 -1.865,-0.981 -2.551,-1.905 -2.795,-2.461 4.388,-0.272 26.311,-1.808 45.677,-6.094 21.979,-4.887 56.396,-18.64 72.429,-18.612 5.975,-0.039 16.332,6.123 26.594,13.034 10.329,6.888 20.635,14.479 27.212,17.234 0.34,0.136 0.731,-0.017 0.867,-0.357 0.147,-0.34 -0.017,-0.732 -0.357,-0.879 -3.765,-1.576 -8.997,-4.932 -14.802,-8.85 7.965,-3.769 35.596,-20.357 55.376,-20.346 9.405,-0.017 37.229,7.903 45.597,11.429 3.985,1.678 6.774,2.954 8.543,3.912 0.879,0.47 1.52,0.856 1.894,1.15 0.119,0.086 0.215,0.176 0.277,0.244 -0.175,0.029 -0.425,0.046 -0.748,0.046"
       fill="#005daa"
       id="path2" />
    <path
       d="m 356.896,218.309 c 9.825,-1.684 18.028,0.793 18.028,0.793 0.386,-7.262 -12.404,-10.119 -15.992,-10.312 0,0 1.853,3.855 -8.141,4.615 0,0 -4.666,-0.108 -6.577,1.604 0,0 9.196,-0.703 12.427,2.891 z"
       fill="#fdb913"
       id="path3" />
  </g>
</svg>
