<?xml version="1.0" encoding="UTF-8" standalone="no"?>
<svg
   clip-rule="evenodd"
   fill-rule="evenodd"
   stroke-linejoin="round"
   stroke-miterlimit="2"
   viewBox="0 0 300.00012 300.00726"
   version="1.1"
   id="svg10"
   sodipodi:docname="Bristol.svg"
   width="300.00012"
   height="300.00726"
   xmlns:inkscape="http://www.inkscape.org/namespaces/inkscape"
   xmlns:sodipodi="http://sodipodi.sourceforge.net/DTD/sodipodi-0.dtd"
   xmlns="http://www.w3.org/2000/svg"
   xmlns:svg="http://www.w3.org/2000/svg">
  <defs
     id="defs10" />
  <sodipodi:namedview
     id="namedview10"
     pagecolor="#ffffff"
     bordercolor="#000000"
     borderopacity="0.25"
     inkscape:showpageshadow="2"
     inkscape:pageopacity="0.0"
     inkscape:pagecheckerboard="0"
     inkscape:deskcolor="#d1d1d1" />
  <g
     fill-rule="nonzero"
     transform="matrix(3.57143,0,0,3.57143,-1.785715,-1.785715)"
     id="g10">
    <path
       d="m 42.5,0.5 c -23.159,0 -42,18.841 -42,42.002 0,23.161 18.841,42 42,42 23.159,0 42,-18.841 42,-42 C 84.5,19.343 65.659,0.5 42.5,0.5 Z"
       id="path1" />
    <path
       d="m 44.052,82.025 c -0.514,0.02 -1.032,0.034 -1.552,0.034 -0.521,0 -1.018,-0.014 -1.523,-0.034 C 19.877,81.215 2.957,63.643 2.943,42.528 v -0.071 c 0,-21.7 17.856,-39.556 39.556,-39.556 21.317,0 38.997,17.233 39.543,38.543 0,0.353 0.014,0.706 0.014,1.061 0,0.356 0,0.749 -0.019,1.132 -0.593,20.679 -17.314,37.577 -37.986,38.389 z"
       fill="#ffffff"
       id="path2" />
    <path
       d="m 42.502,4.436 c -0.001,0 -0.001,0 -0.002,0 -20.882,0 -38.065,17.183 -38.065,38.065 0,20.882 17.183,38.065 38.065,38.065 20.882,0 38.065,-17.183 38.065,-38.065 0,-10e-4 0,-10e-4 0,-0.002 C 80.564,21.619 63.382,4.437 42.502,4.436 Z"
       fill="#e21a23"
       id="path3" />
    <path
       d="m 42.42,16.379 h 0.087 c 14.33,0 26.122,11.79 26.125,26.12 v 0.005 c 0,14.332 -11.793,26.125 -26.125,26.125 h -0.046 c -14.332,0 -26.125,-11.793 -26.125,-26.125 0,-14.316 11.768,-26.103 26.084,-26.125 z"
       fill="#ffffff"
       id="path4" />
    <path
       d="m 33.454,65.383 c 0.786,0.311 1.587,0.581 2.401,0.81 -0.27,-2.3 0.596,-4.593 2.319,-6.141 L 36.59,58.305 c -2.001,1.807 -3.142,4.382 -3.136,7.078 z M 54.221,28.886 c 0.308,-0.249 2.745,-1.683 2.745,-1.683 L 53.201,26.63 c -1.533,-2.344 -4.11,-3.806 -6.908,-3.919 h -0.028 c -5.475,-0.156 -7.951,4.388 -8.503,6.84 -0.194,0.702 -4.313,15.477 -10.257,25.265 -0.64,1.06 -1.344,2.081 -2.106,3.057 h 2.918 c 0.412,-0.59 0.815,-1.201 1.2,-1.835 6.229,-10.259 10.35,-25.261 10.522,-25.894 l 0.013,-0.054 c 0.048,-0.211 1.195,-5.159 6.134,-5.028 1.402,0.058 2.746,0.579 3.82,1.482 -0.844,0.096 -1.668,0.325 -2.44,0.679 -1.708,0.679 -2.844,1.756 -3.375,3.179 -1.001,2.672 0.531,5.657 1.036,6.639 3.342,6.505 -2.905,11.863 -8.736,15.212 l -1.095,0.679 1.104,1.443 2.826,3.799 0.523,0.679 0.812,-0.278 c 0.745,-0.253 1.526,-0.383 2.313,-0.383 3.945,0 7.191,3.247 7.191,7.191 0,0.164 -0.006,0.328 -0.017,0.491 0.801,-0.26 1.588,-0.563 2.358,-0.905 -0.039,-0.911 -0.209,-1.811 -0.502,-2.674 -1.586,-4.643 -6.511,-7.341 -11.277,-6.178 l -1.448,-1.945 c 3.249,-0.808 9.804,-2.863 12.911,-6.827 4.371,-5.577 2.115,-10.381 0.624,-13.558 -0.43,-0.916 -0.502,-1.724 -0.226,-2.473 0.559,-1.489 1.197,-2.075 1.633,-2.428 z m -1.858,12.366 c -0.036,0.37 -0.1,0.737 -0.192,1.097 -0.1,0.387 -0.229,0.765 -0.385,1.132 -0.108,0.258 -0.226,0.518 -0.375,0.783 -0.07,0.131 -0.147,0.264 -0.227,0.398 -0.256,0.425 -0.539,0.834 -0.846,1.224 -1.645,2.098 -4.575,3.609 -7.277,4.634 0.525,-0.453 1.012,-0.905 1.46,-1.358 0.301,-0.301 0.584,-0.609 0.848,-0.923 0.388,-0.449 0.75,-0.919 1.086,-1.407 0.215,-0.315 0.417,-0.631 0.598,-0.95 0.53,-0.911 0.93,-1.891 1.19,-2.913 0.103,-0.421 0.179,-0.849 0.226,-1.28 0,-0.104 0.023,-0.206 0.03,-0.306 0.025,-0.303 0.034,-0.597 0.029,-0.88 v -0.28 c 0,-0.186 -0.02,-0.367 -0.038,-0.541 0,-0.089 -0.021,-0.175 -0.03,-0.26 -0.022,-0.172 -0.05,-0.338 -0.079,-0.498 -0.045,-0.242 -0.097,-0.473 -0.154,-0.693 -0.056,-0.219 -0.118,-0.425 -0.183,-0.617 -0.043,-0.132 -0.086,-0.254 -0.129,-0.371 -0.043,-0.118 -0.091,-0.227 -0.134,-0.338 -0.11,-0.264 -0.226,-0.491 -0.307,-0.678 l -0.147,-0.29 c -0.129,-0.253 -0.249,-0.498 -0.356,-0.738 -0.106,-0.24 -0.226,-0.529 -0.316,-0.783 -0.216,-0.564 -0.358,-1.154 -0.421,-1.755 -0.054,-0.495 0.002,-0.995 0.165,-1.464 0.038,-0.098 0.081,-0.194 0.129,-0.288 0.05,-0.093 0.105,-0.184 0.165,-0.271 0.129,-0.174 0.277,-0.333 0.441,-0.473 0.396,-0.334 0.846,-0.598 1.331,-0.781 h 0.022 c 0.129,-0.054 0.263,-0.104 0.399,-0.151 0.811,-0.274 1.66,-0.418 2.516,-0.426 -0.208,0.242 -0.396,0.499 -0.564,0.77 -0.285,0.455 -0.495,0.954 -0.622,1.477 -0.06,0.238 -0.101,0.48 -0.124,0.724 -0.056,0.638 0.005,1.28 0.178,1.896 0.105,0.384 0.244,0.758 0.414,1.118 0.166,0.355 0.335,0.713 0.498,1.079 0.034,0.077 0.07,0.156 0.104,0.227 0.184,0.42 0.358,0.85 0.514,1.289 0.036,0.104 0.07,0.206 0.104,0.31 0.095,0.29 0.179,0.584 0.249,0.88 0.043,0.175 0.079,0.349 0.111,0.525 0.087,0.475 0.131,0.957 0.133,1.44 0,0.239 -0.011,0.484 -0.034,0.71 z"
       id="path5" />
    <path
       d="m 30.517,74.427 c 0.774,0.296 1.555,0.079 2.138,-0.595 l 1.132,1.072 c -1.055,1.15 -2.474,1.548 -4.003,0.962 -2.145,-0.821 -2.575,-2.844 -1.944,-4.494 0.659,-1.724 2.471,-3.036 4.709,-2.179 1.29,0.494 1.993,1.417 2.188,2.623 l -1.584,0.38 c -0.095,-0.705 -0.578,-1.299 -1.249,-1.536 -1.172,-0.453 -2.095,0.255 -2.45,1.185 -0.356,0.93 -0.109,2.138 1.052,2.582 z m 8.397,3.46 -1.663,-0.215 0.88,-6.845 1.661,0.213 z m 8.478,-0.118 -1.667,0.183 -0.577,-5.274 -2.037,0.226 -0.172,-1.584 5.725,-0.626 0.174,1.584 -2.036,0.226 z m 8.675,-2.292 -1.158,-2.693 -3.964,-2.62 1.857,-0.799 2.277,1.693 0.332,-2.817 1.858,-0.801 -0.819,4.681 1.158,2.691 z"
       fill="#ffffff"
       id="path6" />
    <path
       d="m 67.543,17.39 -3.77,3.772 1.851,1.851 -1.131,1.131 -3.048,-3.032 4.906,-4.908 z M 47.552,7.35 53.209,8.622 52.856,10.19 50.853,9.737 49.683,14.941 48.041,14.572 49.213,9.368 47.21,8.916 Z m -6.464,4.032 c -0.96,-0.226 -2.102,-0.584 -2.152,-2.009 -0.05,-1.475 1.17,-2.351 2.489,-2.396 0.911,-0.036 1.791,0.347 2.387,1.038 l -1.041,1.177 c -0.349,-0.399 -0.86,-0.619 -1.389,-0.598 -0.437,0.014 -0.786,0.195 -0.774,0.553 0.016,0.484 0.615,0.583 1.294,0.739 0.968,0.227 2.129,0.512 2.179,1.958 0.052,1.495 -1.149,2.339 -2.489,2.387 -1.039,0.041 -2.04,-0.398 -2.715,-1.188 l 1.088,-1.227 c 0.407,0.504 1.025,0.79 1.672,0.777 0.453,-0.016 0.767,-0.206 0.756,-0.523 -0.009,-0.439 -0.606,-0.527 -1.306,-0.688 z M 34.666,7.988 36.349,14.72 34.714,15.129 33.03,8.398 Z m 23.362,2.949 c -1.308,0.011 -2.506,0.749 -3.105,1.911 -1,1.806 -0.411,3.919 1.376,4.908 1.788,0.989 3.892,0.36 4.89,-1.446 0.998,-1.805 0.41,-3.919 -1.378,-4.907 -0.542,-0.311 -1.158,-0.472 -1.783,-0.466 z m 0.071,1.638 c 0.307,-10e-4 0.621,0.078 0.925,0.245 0.97,0.534 1.249,1.652 0.679,2.684 -0.571,1.031 -1.666,1.391 -2.628,0.857 -0.964,-0.543 -1.253,-1.649 -0.681,-2.681 0.394,-0.71 1.031,-1.102 1.705,-1.105 z M 28.007,10.478 c -0.375,-0.008 -0.79,0.085 -1.235,0.309 l -2.439,1.226 3.117,6.198 1.499,-0.761 -1.132,-2.249 0.398,-0.198 2.378,1.617 1.745,-0.878 -2.851,-1.871 c 0.549,-0.592 0.676,-1.466 0.319,-2.19 -0.341,-0.677 -0.973,-1.185 -1.799,-1.203 z m -0.228,1.641 c 0.226,0.01 0.415,0.135 0.534,0.373 0.205,0.407 0.04,0.801 -0.396,1.02 l -0.761,0.383 -0.633,-1.258 0.814,-0.41 c 0.156,-0.078 0.306,-0.114 0.442,-0.108 z m -7.396,3.352 c -0.465,-0.015 -0.974,0.155 -1.44,0.579 l -2.15,1.948 4.684,5.13 2.023,-1.842 c 1.097,-1.002 1.011,-2.437 0.309,-3.206 -0.468,-0.514 -1.237,-0.706 -2.106,-0.254 0.386,-0.566 0.328,-1.33 -0.14,-1.83 -0.292,-0.313 -0.714,-0.511 -1.18,-0.525 z m -0.207,1.756 c 0.146,0.003 0.278,0.071 0.382,0.184 0.102,0.116 0.158,0.265 0.158,0.419 0,0.189 -0.083,0.368 -0.228,0.488 l -0.631,0.575 -0.795,-0.871 0.646,-0.588 c 0.161,-0.147 0.322,-0.21 0.468,-0.207 z m 1.805,1.692 c 0.194,0.003 0.378,0.086 0.509,0.228 0.117,0.133 0.181,0.304 0.181,0.48 0,0.228 -0.106,0.443 -0.287,0.581 l -0.731,0.667 -0.955,-1.047 0.763,-0.695 c 0.137,-0.14 0.325,-0.217 0.52,-0.214 z"
       fill="#ffffff"
       id="path7" />
    <g
       fill="#e21a23"
       id="g9">
      <path
         d="M 31.549,34.291 H 30.673 L 28.89,36.75 v 0.758 h 1.79 v 0.872 h 0.869 v -0.872 h 0.679 v -0.812 h -0.679 z m -0.869,2.405 h -0.948 l 0.948,-1.314 z m -3.774,-2.459 c -0.86,0 -1.5,0.577 -1.5,1.446 -0.002,0.025 -0.003,0.051 -0.003,0.077 0,0.69 0.568,1.258 1.258,1.258 h 10e-4 c 0.394,0.006 0.767,-0.183 0.995,-0.505 -0.154,0.853 -0.808,1.109 -1.584,1.109 l -0.011,0.798 c 1.701,0 2.489,-1.025 2.489,-2.274 -0.005,-1.126 -0.65,-1.909 -1.645,-1.909 z m 0.006,2.023 H 26.9 c -0.335,0 -0.611,-0.276 -0.611,-0.611 0,-0.336 0.276,-0.611 0.611,-0.611 h 0.012 c 0.335,0 0.611,0.275 0.611,0.611 0,0.335 -0.276,0.611 -0.611,0.611 z m -5.821,1.423 h 3.84 v 0.683 h -3.84 z m 3.378,-1.994 c 0.247,-0.103 0.41,-0.343 0.416,-0.611 0,-0.473 -0.391,-0.742 -0.936,-0.742 -0.546,0 -0.978,0.283 -0.978,0.747 -0.001,0.262 0.158,0.499 0.401,0.597 -0.304,0.082 -0.513,0.365 -0.503,0.679 0,0.493 0.432,0.837 1.059,0.837 0.627,0 1.046,-0.348 1.046,-0.837 0.012,-0.314 -0.2,-0.595 -0.505,-0.67 z m -0.532,-0.751 c 0.177,0 0.279,0.097 0.279,0.226 -0.015,0.127 -0.104,0.233 -0.227,0.27 l -0.115,-0.037 c -0.158,-0.047 -0.24,-0.131 -0.24,-0.226 0.007,-0.149 0.134,-0.233 0.303,-0.233 z m 0.012,1.647 c -0.242,0 -0.403,-0.092 -0.403,-0.278 0.011,-0.155 0.123,-0.285 0.274,-0.319 l 0.14,0.041 c 0.226,0.063 0.339,0.165 0.339,0.31 0,0.144 -0.14,0.246 -0.35,0.246 z m -1.804,-2.208 h -1.061 v 0.629 h 0.382 v 2.156 h 0.679 z"
         id="path8" />
      <path
         d="m 51.786,43.493 c 0.156,-0.367 0.285,-0.745 0.385,-1.131 0.091,-0.361 0.156,-0.728 0.192,-1.098 0.023,-0.24 0.034,-0.477 0.034,-0.71 C 52.395,40.071 52.35,39.59 52.263,39.115 52.232,38.938 52.196,38.764 52.153,38.59 52.082,38.293 51.999,37.999 51.904,37.71 51.87,37.606 51.836,37.504 51.8,37.4 51.643,36.961 51.469,36.531 51.286,36.11 51.252,36.031 51.216,35.952 51.182,35.884 51.019,35.517 50.849,35.16 50.684,34.804 50.514,34.445 50.375,34.071 50.27,33.687 50.097,33.07 50.036,32.428 50.091,31.79 c 0.024,-0.244 0.065,-0.486 0.125,-0.724 0.126,-0.522 0.337,-1.021 0.622,-1.477 0.168,-0.271 0.356,-0.528 0.563,-0.769 -0.855,0.003 -1.704,0.142 -2.516,0.411 -0.136,0.048 -0.269,0.098 -0.398,0.152 h -0.023 c -0.484,0.183 -0.934,0.447 -1.33,0.781 -0.165,0.144 -0.312,0.308 -0.439,0.486 -0.06,0.087 -0.115,0.178 -0.165,0.272 -0.048,0.093 -0.091,0.189 -0.129,0.287 -0.163,0.47 -0.219,0.97 -0.165,1.464 0.063,0.601 0.205,1.191 0.421,1.756 0.09,0.253 0.196,0.513 0.316,0.783 0.12,0.269 0.227,0.484 0.356,0.737 l 0.147,0.29 c 0.09,0.185 0.196,0.412 0.307,0.679 0.043,0.106 0.089,0.226 0.134,0.337 0.045,0.111 0.086,0.24 0.129,0.371 0.065,0.192 0.127,0.4 0.183,0.618 0.057,0.217 0.109,0.452 0.154,0.692 0.029,0.161 0.056,0.326 0.079,0.498 0,0.086 0.021,0.172 0.03,0.26 0.018,0.174 0.031,0.355 0.038,0.541 v 0.28 c 0,0.283 0,0.577 -0.029,0.881 0,0.099 -0.018,0.201 -0.03,0.305 -0.047,0.431 -0.123,0.859 -0.226,1.281 -0.26,1.021 -0.66,2.001 -1.19,2.912 -0.181,0.319 -0.383,0.636 -0.598,0.95 -0.336,0.489 -0.698,0.959 -1.086,1.408 -0.264,0.31 -0.547,0.618 -0.848,0.923 -0.453,0.452 -0.939,0.905 -1.46,1.357 2.702,-1.025 5.632,-2.536 7.277,-4.634 0.307,-0.39 0.59,-0.799 0.846,-1.224 0.08,-0.133 0.157,-0.267 0.227,-0.398 0.14,-0.265 0.264,-0.525 0.373,-0.783 z"
         id="path9" />
    </g>
  </g>
</svg>
