<svg xmlns:dc="http://purl.org/dc/elements/1.1/" xmlns:cc="http://creativecommons.org/ns#" xmlns:rdf="http://www.w3.org/1999/02/22-rdf-syntax-ns#" xmlns:svg="http://www.w3.org/2000/svg" xmlns="http://www.w3.org/2000/svg" xmlns:sodipodi="http://sodipodi.sourceforge.net/DTD/sodipodi-0.dtd" xmlns:inkscape="http://www.inkscape.org/namespaces/inkscape" viewBox="0 0 750.00002 1000" height="365.14837167011075" width="273.8612787525831" xml:space="preserve" version="1.1" id="svg2" inkscape:version="0.91 r13725" sodipodi:docname="LIGHT_MediaGuide1617_Ligue1 2.svg"><sodipodi:namedview pagecolor="#ffffff" bordercolor="#666666" borderopacity="1" objecttolerance="10" gridtolerance="10" guidetolerance="10" inkscape:pageopacity="0" inkscape:pageshadow="2" inkscape:window-width="1280" inkscape:window-height="691" id="namedview5958" showgrid="false" inkscape:zoom="0.072462309" inkscape:cx="3538.4156" inkscape:cy="664.79559" inkscape:window-x="0" inkscape:window-y="1" inkscape:window-maximized="1" inkscape:current-layer="svg2"/><metadata id="metadata8"><rdf:RDF><cc:Work rdf:about=""><dc:format>image/svg+xml</dc:format><dc:type rdf:resource="http://purl.org/dc/dcmitype/StillImage"/><dc:title/></cc:Work></rdf:RDF></metadata><defs id="defs6"/><path d="m 236.23377,747.6279 -4.8738,-3.93391 c -13.612,-10.89658 -26.493,-21.20135 -38.5385,-31.7846 -38.3295,-31.57573 -69.8355,-59.14792 -97.442603,-102.42093 l -0.5569,-0.90515 0,-0.0348 c -9.9915,-15.90971 -15.4572,-34.74374 -17.2327,-59.28716 -0.3481,-5.15238 -0.557,-9.85218 -0.6615,-14.41274 l 0,-320.94442 -22.3153,-51.5586 10.2351,-4.14279 c 52.394103,-21.16652 107.434103,-36.97179 163.622803,-46.92841 48.1469,-8.52928 97.4775,-12.846136 146.6339,-12.846136 l 10.7922,0 0,0.0696 c 45.6403,0.62665 91.2806,4.943506 135.9114,12.880956 56.1191,9.95662 111.0894,25.76189 163.4487,46.96323 l 10.1655,4.10798 -21.8628,51.45415 0,320.94442 c -0.4177,21.58429 -2.8894,49.43498 -18.1377,73.6999 l 0,0.0349 -0.557,0.90515 c -27.1544,42.54193 -59.3917,70.91483 -92.8125,98.59145 -13.2987,11.94099 -27.6766,23.46421 -42.8901,35.64889 l -4.839,3.8991 -139.2187,99.56622 -138.8356,-99.56622 z" style="fill:#ffffff;fill-opacity:1;fill-rule:nonzero;stroke:none" id="path15510" inkscape:connector-curvature="0"/><g id="g22496" transform="matrix(1.0043975,0,0,1.0043975,-3460.741,500.38628)"><path inkscape:connector-curvature="0" id="path15512" style="fill:#cba864;fill-opacity:1;fill-rule:nonzero;stroke:none" d="m 3819.0165,-410.9292 c -49.5652,0 -99.3036,4.36728 -147.8636,12.96319 -56.6707,10.05168 -112.1975,25.96105 -165.0554,47.31219 l -20.3807,8.24931 8.7346,20.17267 8.0413,18.57827 8.9079,20.65792 0,317.078334 0,0.207965 0,0.242627 c 0,4.713889 0.3466,9.566421 0.7279,14.869546 1.837,25.857066 7.6254,45.960414 18.2316,63.152248 l 0.035,0.10398 1.1091,1.73305 c 28.2834,44.33135 60.2754,72.40671 99.0957,104.3641 12.1313,10.64091 24.9905,20.93522 38.5776,31.85341 l 4.6792,3.74339 0.4506,0.34661 0.4506,0.3466 131.7463,94.48574 12.5126,8.94253 12.4779,-8.90787 132.1275,-94.48573 0.4853,-0.34661 0.4506,-0.38127 4.5752,-3.67406 c 15.2162,-12.20066 29.6005,-23.74275 43.0143,-35.7701 33.8984,-28.07537 66.6183,-56.91327 94.451,-100.51674 l 1.1092,-1.73305 0.035,-0.10398 c 16.0826,-26.169019 18.6822,-55.388196 19.1328,-78.021794 l 0,-0.242627 0,-0.207965 0,-317.147654 16.6373,-39.16687 8.5265,-20.06869 -20.2419,-8.21464 c -52.8233,-21.35115 -108.2808,-37.29518 -164.8822,-47.34686 -41.5238,-7.38278 -83.9834,-11.68073 -126.4778,-12.78988 l 0,-0.27729 -21.4551,0 z m 0,21.45512 0,0 c 49.1839,0.0347 97.5705,4.4366 144.1895,12.72057 55.9081,9.94769 109.6672,25.54512 160.5842,46.13372 l -18.3357,43.18754 0,321.514934 c -0.5199,24.92122 -3.882,48.074732 -16.5679,68.108756 l -0.3466,0.34661 c 0,0.10399 0,0.17331 -0.3466,0.31195 -25.6491,40.17204 -55.1109,66.61834 -90.3611,95.80286 -14.3496,12.89387 -29.8777,25.23316 -47.0002,38.9589 l -132.1276,94.48574 -131.7462,-94.48574 c -15.3895,-12.37396 -29.5658,-23.60411 -42.7716,-35.18086 -37.2605,-30.7096 -68.1781,-57.67582 -94.9017,-99.5809 0,-0.13864 0,-0.20796 0,-0.31195 l -0.3466,-0.34661 c -10.2943,-16.255981 -14.2457,-34.626282 -15.6668,-54.3137 -0.3466,-4.540584 -0.5545,-9.115828 -0.6239,-13.795056 l 0,-321.514934 -10.7102,-24.74792 -8.0413,-18.57826 c 50.9862,-20.58861 104.78,-36.15137 160.7574,-46.0644 46.619,-8.28397 94.9364,-12.65125 144.1203,-12.65125"/><g id="g22485"><path d="m 3819.0165,-389.46021 0,721.22496 144.1549,-105.50792 0,-602.99647 c -46.6537,-8.28397 -94.971,-12.68591 -144.1549,-12.72057" style="fill:#24355e;fill-opacity:1;fill-rule:nonzero;stroke:none" id="path15516" inkscape:connector-curvature="0"/><path d="m 3532.8557,34.08615 c 0.4853,24.92122 3.6394,48.074732 16.3253,68.10876 l 0.3466,0.34661 c 0,0.10398 0,0.1733 0,0.31195 30.9869,48.52532 67.5195,77.01662 113.064,114.4851 l 12.2353,8.94253 0,-603.10046 c -55.9427,9.91303 -109.7712,25.47579 -160.7228,46.06439 l 18.7169,43.32618 0,321.51494 z" style="fill:#24355e;fill-opacity:1;fill-rule:nonzero;stroke:none" id="path15518" inkscape:connector-curvature="0"/><path d="m 4105.4199,-287.42185 18.3356,-43.18754 c -50.9169,-20.5886 -104.676,-36.18603 -160.5841,-46.13372 l 0,603.03114 12.2353,-8.97719 c 45.5791,-37.43382 82.1117,-65.92512 113.064,-114.45044 0,-0.13864 0,-0.20797 0.3466,-0.31195 l 0.3466,-0.34661 c 12.6512,-20.034026 16.048,-43.187538 16.5333,-68.108758" style="fill:#ec1d26;fill-opacity:1;fill-rule:nonzero;stroke:none" id="path15514" inkscape:connector-curvature="0"/><path d="m 3674.8616,-376.82976 0,603.10046 144.1895,105.47326 0,-721.22497 c -49.2185,0 -97.5705,4.40194 -144.1895,12.65125" style="fill:#ec1d26;fill-opacity:1;fill-rule:nonzero;stroke:none" id="path15520" inkscape:connector-curvature="0"/><path d="m 3618.6415,-68.513716 c -30.6402,72.4413768 -62.7016,156.424849 -26.9662,211.605076 26.0997,39.96407 57.1213,63.67216 95.5603,94.5204 l 131.7809,94.48574 132.0582,-94.48574 c 38.439,-30.84824 69.2526,-54.3137 95.3522,-94.24311 0,-0.10399 0,-0.17331 0.3467,-0.24263 l 0,-0.31195 C 4082.509,87.633845 4050.4823,3.9276608 4019.842,-68.513716 l -26.6543,-78.922974 c 24.8866,-16.98386 37.0526,-41.90508 39.0283,-66.61834 1.3864,-17.33047 -2.1837,-34.55696 -9.9477,-48.90659 -4.7139,-8.6999 -10.9182,-16.32531 -18.4743,-22.28699 -2.5303,-1.97568 -5.1992,-3.77804 -8.0067,-5.37245 -4.8525,-2.73821 -9.2891,-4.99117 -13.5178,-6.93219 -2.1143,-0.9705 -4.1939,-1.83703 -6.2043,-2.63423 -4.0553,-1.62906 -8.0067,-2.94618 -11.9233,-4.05533 -1.9757,-0.58924 -3.9514,-1.10915 -5.9617,-1.5944 -2.9809,-0.76254 -6.0657,-1.4211 -9.2545,-2.07966 -1.0398,-0.20797 -2.0797,-0.45059 -3.1888,-0.65856 -3.986,-0.7972 -7.8334,-1.73305 -11.5074,-2.80753 -25.6491,-7.48677 -42.5637,-21.87106 -50.605,-45.8911 -5.0605,9.35846 -9.7397,18.61293 -9.8437,27.52079 0,14.80023 6.6202,28.56062 20.1726,39.89475 1.6984,1.4211 3.5008,2.73822 5.2338,4.08999 6.9322,5.54576 14.0724,10.88354 21.2819,16.04802 1.837,1.31712 3.6047,2.63423 5.4417,3.91669 10.017,7.14015 14.9389,17.39979 15.1469,27.55545 0,6.10033 -1.4558,12.16599 -4.6793,17.50378 -7.972,-5.2338 -16.5332,-10.121 -25.6144,-14.69624 -18.1277,-9.08117 -38.3003,-16.81056 -60.0328,-23.22284 -10.8835,-3.22346 -20.1033,-6.10032 -31.7147,-8.66523 -11.6114,2.56491 -20.7273,5.44177 -31.6108,8.66523 -21.7671,6.41228 -41.9397,14.14167 -60.0674,23.22284 -9.0465,4.57524 -17.6078,9.46244 -25.6145,14.69624 -3.1888,-5.33779 -4.7832,-11.40345 -4.6792,-17.50378 0.3466,-10.15566 5.1298,-20.4153 15.1815,-27.55545 1.8024,-1.28246 3.6047,-2.59957 5.4071,-3.91669 7.2441,-5.16448 14.3496,-10.50226 21.2818,-16.04802 1.7331,-1.35177 3.5701,-2.66889 5.2338,-4.08999 13.5525,-11.33413 20.3113,-25.09452 20.1727,-39.89475 0,-8.90786 -4.7485,-18.16233 -9.809,-27.52079 -8.076,24.02004 -24.9906,38.40433 -50.6397,45.8911 -3.6394,1.07448 -7.4867,2.01033 -11.5074,2.80753 -1.1092,0.20797 -2.1143,0.45059 -3.1888,0.65856 -3.1542,0.65856 -6.2737,1.31712 -9.2545,2.07966 -2.0103,0.48525 -3.986,1.00516 -5.9617,1.5944 -3.9167,1.10915 -7.8334,2.42627 -11.8887,4.05533 -2.045,0.7972 -4.1246,1.66373 -6.239,2.63423 -4.2286,1.94102 -8.6652,4.19398 -13.5177,6.93219 -2.8076,1.59441 -5.4765,3.39677 -7.972,5.37245 -7.5561,5.96168 -13.7951,13.58709 -18.509,22.28699 -7.764,14.34963 -11.3341,31.57612 -9.9477,48.90659 1.9757,24.71326 14.1417,49.63448 39.0282,66.61834 l -26.273,78.922974 z" style="fill:#24355e;fill-opacity:1;fill-rule:nonzero;stroke:none" id="path15522" inkscape:connector-curvature="0"/></g></g><g id="g22422" transform="matrix(1.0043975,0,0,1.0043975,-3460.741,500.38628)"><path inkscape:connector-curvature="0" id="path15524" style="fill:#ffffff;fill-opacity:1;fill-rule:nonzero;stroke:none" d="m 3819.0165,59.232666 c 33.7944,0 61.2112,18.578267 61.2112,41.489154 l -21.1085,31.33349 -20.9006,-40.206694 0,-9.462438 -38.3696,0 0,9.462438 -20.9006,40.206694 -21.1432,-31.33349 c 0,-22.910887 27.4169,-41.489154 61.2113,-41.489154"/><path inkscape:connector-curvature="0" id="path15526" style="fill:#ffffff;fill-opacity:1;fill-rule:nonzero;stroke:none" d="m 3774.9971,-54.309661 -46.6883,8.249305 -25.2678,-20.727245 71.9561,12.47794 z"/><path inkscape:connector-curvature="0" id="path15528" style="fill:#ffffff;fill-opacity:1;fill-rule:nonzero;stroke:none" d="m 3862.412,-54.309661 46.6883,8.249305 25.2678,-20.727245 -71.9561,12.47794 z"/><path inkscape:connector-curvature="0" id="path15530" style="fill:#ffffff;fill-opacity:1;fill-rule:nonzero;stroke:none" d="m 4032.2506,-214.0481 c 1.3518,-17.33047 -2.2183,-34.55696 -9.9823,-48.90659 -4.6793,-8.6999 -10.9529,-16.32531 -18.4743,-22.28699 -2.5303,-1.97567 -5.1992,-3.77804 -7.972,-5.37245 -4.8872,-2.73821 -9.2892,-4.99117 -13.5525,-6.93219 -2.0796,-0.9705 -4.1593,-1.83703 -6.2389,-2.63423 -4.0554,-1.62906 -7.9721,-2.94618 -11.8541,-4.08999 -1.9757,-0.55457 -3.9513,-1.07449 -5.9617,-1.5944 -2.9808,-0.72788 -6.1003,-1.38644 -9.2891,-2.045 -1.0398,-0.24262 -2.045,-0.45059 -3.1541,-0.65856 -4.0554,-0.7972 -7.8681,-1.73304 -11.5075,-2.80753 -25.6837,-7.48677 -42.5983,-21.87106 -50.6743,-45.8911 -5.0258,9.35846 -9.705,18.61293 -9.7744,27.48613 0,14.83489 6.5856,28.59529 20.1034,39.92941 1.6984,1.4211 3.5701,2.70356 5.3031,4.09 6.9322,5.54575 14.0377,10.88353 21.2818,16.04801 1.7677,1.31712 3.6048,2.63424 5.4071,3.91669 10.017,7.1055 14.9736,17.3998 15.1469,27.55545 0,6.10033 -1.4558,12.166 -4.6793,17.50378 -8.0066,-5.2338 -16.4986,-10.121 -25.5797,-14.69624 -18.1624,-9.08117 -38.3004,-16.81056 -60.1021,-23.25749 -10.8489,-3.18881 -20.0687,-6.06567 -31.6801,-8.63058 -11.6114,2.56491 -20.7273,5.44177 -31.6108,8.63058 -21.7671,6.44693 -41.9051,14.17632 -60.0674,23.25749 -9.0465,4.57524 -17.6424,9.46244 -25.6145,14.69624 -3.1888,-5.33778 -4.7485,-11.40345 -4.6792,-17.50378 0.3466,-10.15565 5.1645,-20.44995 15.1815,-27.55545 1.8024,-1.28245 3.6047,-2.59957 5.4071,-3.91669 7.2441,-5.16448 14.3496,-10.50226 21.3165,-16.04801 1.6984,-1.38644 3.5354,-2.6689 5.2338,-4.09 13.5178,-11.33412 20.3113,-25.09452 20.138,-39.92941 0,-8.8732 -4.7485,-18.12767 -9.809,-27.48613 -8.0414,24.02004 -24.9559,38.40433 -50.605,45.8911 -3.6741,1.07449 -7.5214,2.01033 -11.5421,2.80753 -1.0745,0.20797 -2.0797,0.41594 -3.1542,0.65856 -3.2234,0.65856 -6.2736,1.31712 -9.2544,2.045 -2.0104,0.51991 -3.986,1.03983 -5.9964,1.5944 -3.9167,1.14381 -7.868,2.46093 -11.9233,4.08999 -2.0104,0.7972 -4.0554,1.66373 -6.1697,2.63423 -4.2286,1.94102 -8.6652,4.19398 -13.5524,6.93219 -2.7729,1.59441 -5.4418,3.39678 -8.0067,5.37245 -7.5561,5.96168 -13.7257,13.58709 -18.4396,22.28699 -7.7987,14.34963 -11.3342,31.57612 -9.9477,48.90659 1.9757,24.71326 14.107,49.59982 39.0282,66.58368 l -26.3077,78.957636 44.99,-44.088726 127.4136,35.423489 2.9808,52.060741 -80.9333,14.938868 -1.1784,-6.204309 -37.8845,-44.469994 -12.7898,25.059864 68.9406,95.005653 0.5545,3.015502 c 13.6565,-16.567932 41.8705,-32.130697 70.2231,-36.463315 l -5.0951,-19.3754688 46.411,0 -5.0605,19.3754688 c 28.2833,4.332618 56.4627,16.602593 70.1537,33.170525 l 0.5893,3.570078 68.9752,-98.298443 -12.8938,-25.059864 -37.7805,44.469994 -1.2477,6.204309 -80.9334,-14.938868 2.9462,-52.060741 127.5176,-35.423489 45.3366,44.088726 -26.6543,-78.957636 c 24.8866,-16.98386 37.0179,-41.87042 39.0282,-66.58368"/><path inkscape:connector-curvature="0" id="path15532" style="fill:#24355e;fill-opacity:1;fill-rule:nonzero;stroke:none" d="m 3682.6603,-152.37588 c 0,-7.38278 6.3083,-13.37912 14.107,-13.37912 7.7641,0 14.0724,5.99634 14.0724,13.37912 0,7.38279 -6.3083,13.37913 -14.0724,13.37913 -7.7987,0 -14.107,-5.99634 -14.107,-13.37913 m 122.2838,30.81359 c 0,-7.38279 6.3083,-13.37913 14.0724,-13.37913 7.7987,0 14.107,5.99634 14.107,13.37913 0,7.38278 -6.3083,13.37912 -14.107,13.37912 -7.7641,0 -14.0724,-5.99634 -14.0724,-13.37912 m 122.2839,-30.81359 c 0,-7.38278 6.3082,-13.37912 14.0723,-13.37912 7.7987,0 14.107,5.99634 14.107,13.37912 0,7.38279 -6.3083,13.37913 -14.107,13.37913 -7.7641,0 -14.0723,-5.99634 -14.0723,-13.37913"/></g><g id="g22505" transform="matrix(1.0043975,0,0,1.0043975,-3460.741,500.38628)"><path inkscape:connector-curvature="0" id="path15498" style="fill:#23345d;fill-opacity:1;fill-rule:nonzero;stroke:none" d="m 3818.7392,488.78924 c -104.5028,0 -206.4059,-19.72208 -302.902,-58.64632 l -6.6549,-2.6689 9.913,-24.53995 c -16.9839,-6.8282 -33.4825,-14.03768 -49.0452,-21.52444 l -10.1903,-4.8872 65.3358,-52.92726 0,-83.32492 10.2597,4.92186 c 20.6232,9.91303 42.0437,18.82089 63.6375,26.48096 l 7.1748,2.53025 -9.4624,22.183 c 71.2629,25.61444 145.8879,38.6123 221.934,38.6123 l 0,0 c 76.0114,0 150.6018,-12.9632 221.7607,-38.54297 l -9.4624,-22.18301 7.1748,-2.56491 c 21.5938,-7.62541 42.9796,-16.53327 63.6028,-26.41164 l 10.2597,-4.92185 0,83.22093 65.9944,53.93243 -10.1556,4.88719 c -15.5975,7.48677 -32.0961,14.69624 -49.1493,21.48979 l 9.5318,23.56944 -6.6202,2.6689 c -96.4961,38.92424 -198.434,58.64632 -302.9367,58.64632"/><path inkscape:connector-curvature="0" id="path15534" style="fill:#23345d;fill-opacity:1;fill-rule:nonzero;stroke:none" d="m 3818.9818,485.21569 c -104.0521,0 -205.5047,-19.65275 -301.5849,-58.40369 l -3.3274,-1.31712 54.8683,-135.83624 3.3274,1.31711 c 78.5764,31.71477 161.5893,47.76278 246.682,47.76278 l 0.035,0 c 85.1273,0 168.1403,-16.04801 246.7166,-47.76278 l 3.3275,-1.31711 54.8683,135.83624 -3.3275,1.31712 c -96.0801,38.75094 -197.5327,58.40369 -301.5849,58.40369"/><g id="g22492"><path d="m 3518.0555,228.90493 0,22.73758 0,68.52469 -53.8978,43.67279 -17.5731,14.24565 20.3807,9.77439 c 13.691,6.58558 28.0407,12.92853 42.8409,18.9942 l -4.5406,11.29946 -5.3725,13.27515 13.2752,5.33778 c 48.456,19.54878 99.0956,34.48764 150.5325,44.40067 50.9169,9.80905 103.1163,14.76557 155.0731,14.76557 51.922,0 104.1214,-4.95652 155.073,-14.76557 51.4022,-9.91303 102.0418,-24.85189 150.4979,-44.40067 l 13.2751,-5.33778 -5.4071,-13.27515 -4.09,-10.2943 c 14.7656,-6.06566 29.1845,-12.40862 42.9102,-18.9942 l 20.2767,-9.73972 -17.4345,-14.24565 -54.6603,-44.67796 0,-68.45537 0,-22.70292 -20.4846,9.80905 c -20.3806,9.77439 -41.5585,18.54361 -62.8749,26.13435 l -14.3497,5.09516 5.9617,14.00303 3.4661,8.14532 c -68.2474,23.63876 -139.545,35.59679 -212.1596,35.59679 -72.7187,0 -144.0509,-11.99269 -212.3677,-35.63145 l 3.4661,-8.17999 5.9964,-14.00302 -14.3497,-5.09516 c -21.3511,-7.59075 -42.5289,-16.39463 -62.9789,-26.16901 l -20.4846,-9.84371 z m 14.2803,22.73758 c 21.1085,10.08633 42.5636,19.02886 64.4,26.75825 l -9.4624,22.11368 c 74.5557,27.76342 152.9934,41.6278 231.5005,41.6278 78.403,0 156.8061,-13.86438 231.2924,-41.55847 l -9.4277,-22.11369 c 21.767,-7.72939 43.2568,-16.63725 64.2614,-26.72359 l 0,75.24892 59.9634,48.97591 c -18.2317,8.73456 -36.7406,16.67192 -55.3882,23.91606 l 9.5318,23.6041 c -96.1148,38.75094 -198.1913,58.16107 -300.2331,58.16107 -102.1459,0 -204.153,-19.41013 -300.2678,-58.16107 l 9.9477,-24.57461 c -18.6476,-7.2788 -37.1219,-15.21616 -55.3189,-23.95071 l 59.2009,-47.97075 0,-75.3529" style="fill:#cba864;fill-opacity:1;fill-rule:nonzero;stroke:none" id="path15500" inkscape:connector-curvature="0"/><path d="m 4071.0016,284.98981 -6.6203,2.66889 c -78.1604,31.54146 -160.7228,47.52016 -245.3995,47.52016 -84.642,0 -167.2044,-15.9787 -245.3648,-47.52016 l -6.6549,-2.66889 -2.6689,6.62024 -52.1647,129.216 -2.7036,6.6549 6.6549,2.6689 c 48.0054,19.37547 98.1945,34.17569 149.1807,43.98474 50.501,9.73972 102.2152,14.66158 153.7213,14.66158 51.5062,0 103.2203,-4.92186 153.7213,-14.66158 50.9863,-9.80905 101.1753,-24.60927 149.2154,-43.98474 l 6.6202,-2.6689 -2.6689,-6.6549 -52.1994,-129.216 -2.6688,-6.62024 z m -3.9514,9.32379 52.1647,129.18135 c -96.0801,38.75093 -198.1566,58.1264 -300.2331,58.1264 -102.0765,0 -204.153,-19.37547 -300.2331,-58.1264 l 52.1647,-129.18135 c 79.4083,31.99205 163.7383,48.00541 248.0684,48.00541 84.3301,0 168.6948,-16.01336 248.0684,-48.00541" style="fill:#cba864;fill-opacity:1;fill-rule:nonzero;stroke:none" id="path15536" inkscape:connector-curvature="0"/></g></g><g id="g22441" transform="matrix(1.0043975,0,0,1.0043975,-3460.741,500.38628)"><g id="g22407"><path d="m 3468.3863,-380.34438 c -1.4557,-3.39678 -0.3812,-6.51626 2.565,-7.76406 3.1888,-1.38643 6.2389,0.13865 7.2441,2.46093 0.4853,1.14381 0.6239,2.11432 0.5546,3.15415 2.2876,0.48525 5.3031,0.13864 8.4226,-1.17847 5.1991,-2.25297 7.5214,-5.99635 5.7884,-10.121 -1.6984,-3.88203 -6.4816,-4.05533 -11.9581,-3.70872 -10.1903,0.6239 -17.6424,0.45059 -21.4204,-8.35329 -3.2582,-7.59075 0.3466,-16.18666 9.9823,-20.31131 8.9079,-3.81271 17.7118,-2.18364 20.1727,3.53541 1.4558,3.39678 0.3466,6.23897 -2.5649,7.41745 -3.3275,1.42109 -6.239,-0.20797 -7.2788,-2.59958 -0.4853,-1.14381 -0.4853,-1.7677 -0.4506,-2.46092 -1.6291,-0.24263 -3.9514,-0.0347 -6.8975,1.24779 -4.7139,2.01034 -6.447,5.58041 -4.9566,9.04651 1.6638,3.91668 6.4123,3.95135 11.9234,3.6394 9.8437,-0.6239 17.5385,-0.41593 21.3165,8.42261 3.882,9.01184 -0.9359,17.15717 -10.7102,21.35114 -9.3932,4.05533 -19.2715,2.01033 -21.7325,-3.77804" style="fill:#cba864;fill-opacity:1;fill-rule:nonzero;stroke:none" id="path15538" inkscape:connector-curvature="0"/><path d="m 3521.6949,-398.95038 6.0656,-2.18364 -12.2699,-33.96773 -9.0465,3.25813 2.8075,7.69473 -7.9374,2.87686 -5.4071,-14.97353 42.2517,-15.28547 5.4071,14.97352 -7.9027,2.87686 -2.8075,-7.69473 -9.0118,3.22347 12.2699,34.00239 6.0657,-2.2183 2.7036,7.48676 -20.4847,7.41745 -2.7035,-7.48677 z" style="fill:#cba864;fill-opacity:1;fill-rule:nonzero;stroke:none" id="path15540" inkscape:connector-curvature="0"/><path d="m 3583.1141,-435.80536 -12.6859,-17.50378 -1.1785,21.59377 13.8644,-4.08999 z m -27.5901,24.57461 4.2979,-1.2478 2.2183,-38.12704 -5.4417,1.59441 -2.2183,-7.55609 28.0753,-8.2493 2.253,7.55608 -5.4764,1.59441 22.5296,30.84824 4.2979,-1.2478 2.253,7.62541 -19.0982,5.61507 -2.2183,-7.55608 5.7537,-1.69839 -5.1991,-7.31346 -18.5783,5.44177 -0.3813,8.97719 6.031,-1.76771 2.2183,7.52142 -19.0981,5.61508 -2.2183,-7.62541 z" style="fill:#cba864;fill-opacity:1;fill-rule:nonzero;stroke:none" id="path15542" inkscape:connector-curvature="0"/><path d="m 3632.6099,-432.08971 c 13.0672,-2.87686 18.2663,-11.40345 15.8747,-22.25233 -2.3916,-11.05684 -11.5767,-15.42412 -24.1587,-12.65124 l -4.4019,0.9705 7.6947,35.04222 4.9912,-1.10915 z m -19.4448,4.2633 5.7537,-1.2478 -7.66,-35.04221 -5.7537,1.24779 -1.6984,-7.72939 19.0981,-4.22864 c 18.2664,-3.986 31.1949,3.15415 34.557,18.43963 3.3968,15.42412 -4.5752,27.97138 -24.4013,32.33866 l -18.1623,3.98601 -1.7331,-7.76405 z" style="fill:#cba864;fill-opacity:1;fill-rule:nonzero;stroke:none" id="path15544" inkscape:connector-curvature="0"/><path d="m 3671.4995,-440.09292 5.823,-0.90119 -5.3724,-35.49281 -5.8577,0.86653 -1.1785,-7.83338 38.231,-5.82303 2.2183,14.62691 -8.4226,1.28246 -1.0398,-6.86287 -15.1815,2.32229 2.0797,13.69107 15.4934,-2.32228 1.1438,7.4521 -15.4934,2.35694 2.1836,14.48828 15.2855,-2.32228 -1.0398,-6.86287 8.3879,-1.28246 2.2183,14.62692 -38.2657,5.8577 -1.2131,-7.86803 z" style="fill:#cba864;fill-opacity:1;fill-rule:nonzero;stroke:none" id="path15554" inkscape:connector-curvature="0"/><path d="m 3740.7174,-449.69054 6.135,-0.34661 -0.3466,-35.90874 -6.447,0.38127 -0.4505,-7.93735 14.1416,-0.79721 17.4691,27.90207 14.2803,-29.63511 14.0377,-0.76254 0.4506,7.90269 -6.4469,0.38127 3.6394,35.73544 6.1003,-0.34661 0.4506,7.93736 -21.2125,1.17847 -0.4506,-7.93736 6.239,-0.34661 -2.4956,-26.58494 -13.3445,26.72359 -1.1784,0.0693 -16.1867,-25.09453 0.4159,26.68893 6.2043,-0.34661 0.4506,7.93736 -21.0392,1.14381 -0.4506,-7.93736 z" style="fill:#cba864;fill-opacity:1;fill-rule:nonzero;stroke:none" id="path15556" inkscape:connector-curvature="0"/><path d="m 3843.5564,-468.17175 -6.8282,-20.51928 -7.66,20.24199 14.4882,0.27729 z m -33.7597,15.14683 4.4712,0.10398 13.6564,-35.73543 -5.6844,-0.10399 0,-7.86803 29.2885,0.58924 0,7.86803 -5.6843,-0.10398 12.2006,36.22069 4.4713,0.10398 0,7.93736 -19.8954,-0.41594 0.3466,-7.86803 5.9617,0.13864 -2.7382,-8.56125 -19.3755,-0.38127 -3.0502,8.42261 6.2737,0.13864 0,7.86804 -19.9301,-0.41593 0,-7.93736 z" style="fill:#cba864;fill-opacity:1;fill-rule:nonzero;stroke:none" id="path15566" inkscape:connector-curvature="0"/><path d="m 3869.9681,-451.32653 5.8577,0.48525 2.9808,-35.73544 -5.8924,-0.48525 0.6586,-7.93736 21.5591,1.80237 -0.6585,7.9027 -6.7936,-0.55458 -2.9808,35.80476 14.1763,1.17847 0.6239,-7.2788 8.5266,0.72788 -1.2478,15.11218 -37.4685,-3.08483 0.6586,-7.93735 z" style="fill:#cba864;fill-opacity:1;fill-rule:nonzero;stroke:none" id="path15568" inkscape:connector-curvature="0"/><path d="m 3916.5177,-447.44104 5.8231,0.86652 5.2684,-35.45815 -5.8577,-0.86652 1.1785,-7.86803 21.0045,3.11948 -1.1784,7.83337 -6.3777,-0.93584 -1.9756,13.55243 23.6387,3.50075 2.0104,-13.55243 -6.3776,-0.93584 1.1438,-7.86804 21.0045,3.11949 -1.1438,7.83337 -5.8577,-0.83186 -5.2338,35.45815 5.823,0.86652 -1.1438,7.86804 -21.0045,-3.11949 1.1438,-7.86803 6.3776,0.9705 2.1143,-14.24565 -23.6387,-3.50075 -2.1144,14.21099 6.3777,0.9705 -1.1785,7.83338 -20.9699,-3.08483 1.1438,-7.86803 z" style="fill:#cba864;fill-opacity:1;fill-rule:nonzero;stroke:none" id="path15570" inkscape:connector-curvature="0"/><path d="m 3978.5608,-437.70478 5.7884,1.24779 7.5561,-35.04222 -5.7537,-1.24779 1.6983,-7.76405 37.7112,8.17998 -3.1195,14.45362 -8.284,-1.80237 1.4558,-6.75889 -15.0082,-3.25813 -2.9115,13.51777 15.2854,3.32745 -1.5944,7.34812 -15.2854,-3.29279 -3.1195,14.31498 15.0775,3.25812 1.4557,-6.75888 8.3187,1.80237 -3.1542,14.41895 -37.7804,-8.17998 1.6637,-7.76405 z" style="fill:#cba864;fill-opacity:1;fill-rule:nonzero;stroke:none" id="path15572" inkscape:connector-curvature="0"/><path d="m 4064.1733,-445.36139 c 1.4558,-5.2338 -2.1489,-8.94252 -9.0118,-10.88353 l -4.6446,-1.28246 -4.5059,15.94404 c 0.9012,0.34661 2.0797,0.76254 4.8179,1.52508 6.4123,1.83703 11.854,-0.0693 13.3444,-5.30313 m -37.6071,18.30098 5.6498,1.62907 9.7397,-34.5223 -5.6498,-1.59441 2.149,-7.66007 19.3062,5.44177 c 11.4034,3.22347 18.197,10.46761 15.3548,20.62326 -1.8371,6.41228 -7.1402,10.22498 -13.2058,10.88354 l 3.8127,15.70141 5.6844,1.5944 -2.149,7.66007 -11.5075,-3.25813 -4.6792,-21.73241 c -1.0745,-0.24263 -2.0796,-0.41593 -3.0502,-0.69322 -1.5944,-0.45059 -3.0501,-0.86652 -4.0899,-1.24779 l -3.1542,11.19548 6.2043,1.76771 -2.149,7.62541 -20.4153,-5.75372 2.149,-7.66007 z" style="fill:#cba864;fill-opacity:1;fill-rule:nonzero;stroke:none" id="path15574" inkscape:connector-curvature="0"/><path d="m 4103.6868,-426.36026 c 5.8577,2.045 10.0864,0.51992 11.5421,-3.70872 1.4558,-4.15931 -1.1438,-7.66007 -7.1055,-9.73972 l -5.4764,-1.90635 -4.6792,13.34446 5.719,2.01033 z m -6.3776,21.10852 c 5.7884,2.045 10.5023,1.00517 12.1313,-3.67406 1.5944,-4.54058 -1.1091,-8.28397 -7.4174,-10.50227 l -6.4123,-2.25296 -4.9218,14.14167 6.6202,2.28762 z m -20.4499,-7.2788 5.5457,1.94102 11.8541,-33.89841 -5.5805,-1.94101 2.6343,-7.52143 19.5487,6.82821 c 11.9581,4.19397 15.9094,11.75006 13.3445,19.09818 -1.9757,5.64973 -6.7589,8.076 -12.166,8.00668 5.4764,3.91668 7.9027,8.73456 5.7537,14.83488 -2.8422,8.11066 -11.2994,11.40345 -23.1881,7.24414 l -20.3807,-7.10549 2.6343,-7.48677 z" style="fill:#cba864;fill-opacity:1;fill-rule:nonzero;stroke:none" id="path15576" inkscape:connector-curvature="0"/><path d="m 4124.4834,-395.59867 5.4418,2.28763 13.8297,-33.13587 -5.4418,-2.25296 3.0502,-7.31346 35.6314,14.86955 -5.6844,13.65641 -7.8333,-3.29279 2.6689,-6.37761 -14.1417,-5.92703 -5.3378,12.78989 14.419,6.03101 -2.9116,6.96685 -14.4189,-6.03101 -5.6498,13.51777 14.211,5.92702 2.6689,-6.37761 7.8334,3.25813 -5.6844,13.65641 -35.7354,-14.9042 3.0848,-7.34813 z" style="fill:#cba864;fill-opacity:1;fill-rule:nonzero;stroke:none" id="path15578" inkscape:connector-curvature="0"/></g><g id="g22429"><path d="m 3663.0422,396.0816 c 3.5354,-20.93521 22.391,-33.30917 42.7023,-29.84307 16.1867,2.73821 25.5105,12.99785 24.124,21.35114 -0.8665,5.09516 -4.7485,8.04134 -9.0811,7.2788 -4.7486,-0.7972 -7.5215,-4.29796 -6.7589,-8.8732 0.3466,-1.35178 0.7625,-2.66889 1.3518,-3.4661 -1.7331,-1.90635 -5.5111,-4.19397 -11.8541,-5.2338 -13.5178,-2.32228 -25.6491,6.27363 -28.11,20.76191 -2.357,13.96836 5.5111,26.72359 20.2073,29.21918 8.1453,1.38643 15.3895,-1.07449 21.5245,-5.82304 l 6.5509,9.60108 c -8.0414,6.34295 -18.8556,9.18515 -29.9817,7.31346 -21.4552,-3.6394 -34.349,-20.62326 -30.675,-42.28636" style="fill:#ffffff;fill-opacity:1;fill-rule:nonzero;stroke:none" id="path15584" inkscape:connector-curvature="0"/><path d="m 3784.4249,413.98745 -8.2494,-28.31799 -11.4727,27.17418 19.7221,1.14381 z m -46.7923,18.89021 6.1003,0.34661 20.45,-47.93608 -7.7294,-0.4506 0.6239,-10.71023 39.8601,2.32228 -0.6239,10.71024 -7.7294,-0.4506 14.7309,49.98109 6.1003,0.34661 -0.6239,10.84887 -27.1049,-1.5944 0.6239,-10.71023 8.1454,0.48525 -3.2928,-11.81938 -26.377,-1.52508 -4.6099,11.33413 8.5612,0.51991 -0.6239,10.67557 -27.1048,-1.55974 0.6239,-10.81422 z" style="fill:#ffffff;fill-opacity:1;fill-rule:nonzero;stroke:none" id="path15586" inkscape:connector-curvature="0"/><path d="m 3822.8985,436.74583 8.0413,-0.31195 -1.9756,-48.9066 -8.0414,0.34661 -0.4506,-10.84887 52.65,-2.11432 0.8319,20.17267 -11.6114,0.45059 -0.3466,-9.42778 -20.9353,0.83187 0.7626,18.89021 21.3511,-0.86652 0.416,10.2943 -21.3512,0.83186 0.8319,19.93005 21.0045,-0.83187 -0.3813,-9.42777 11.5768,-0.4506 0.7972,20.13801 -52.754,2.11432 -0.4159,-10.81421 z" style="fill:#ffffff;fill-opacity:1;fill-rule:nonzero;stroke:none" id="path15588" inkscape:connector-curvature="0"/><path d="m 3906.9166,393.20128 5.4418,37.46848 8.7346,-1.24779 1.5597,10.71023 -28.3526,4.15931 -1.5598,-10.74489 7.9374,-1.14381 -7.0362,-48.42134 -7.972,1.14381 -1.5598,-10.71023 18.1624,-2.6689 40.7959,38.85492 -4.8179,-33.13586 -8.6999,1.24779 -1.5944,-10.71023 28.0754,-4.08999 1.5251,10.74489 -7.6254,1.10915 8.6305,59.27022 -6.4469,1.14381 -45.1979,-42.97957 z" style="fill:#ffffff;fill-opacity:1;fill-rule:nonzero;stroke:none" id="path15590" inkscape:connector-curvature="0"/></g><g id="g22435"><path d="m 3579.7173,388.17198 6.4123,2.04499 7.764,-23.98537 -6.3429,-0.48526 0.3466,-5.68439 11.1955,0.65856 3.0848,1.00516 -9.809,30.46698 6.3082,2.04499 -1.7677,5.51109 -18.8902,-6.10032 1.7677,-5.47643 z" style="fill:#cba864;fill-opacity:1;fill-rule:nonzero;stroke:none" id="path15580" inkscape:connector-curvature="0"/><path d="m 3632.5059,383.11494 c 0.5199,-1.87169 0,-3.77804 -0.9705,-5.37244 -1.0745,-1.66373 -2.8422,-2.98084 -5.0605,-3.57008 -4.0206,-1.10915 -7.9373,1.00517 -8.9078,4.54058 -1.0399,3.81271 1.3517,7.14016 5.927,8.42261 4.0553,1.10915 8.0413,-0.48525 9.0118,-4.02067 m -20.034,10.43295 c 2.5996,0.69322 3.2928,2.98084 2.8075,4.67923 0,0.45059 -0.3466,0.86652 -0.4852,1.17847 0.6932,0.48525 1.6984,0.93584 2.9808,1.28245 5.2338,1.45576 10.9875,-2.63423 12.9979,-9.6704 -2.7729,1.5944 -6.5856,2.045 -9.7744,1.17847 -7.4521,-2.04499 -11.6114,-8.52659 -9.8437,-15.04285 1.8717,-6.75888 9.1158,-10.4676 16.9145,-8.31863 4.194,1.14382 7.0709,3.60474 8.8039,6.62024 2.2183,3.95135 2.2876,8.73456 0.6239,14.83489 -3.5008,12.72057 -12.4779,18.197 -21.2125,15.80539 -3.1888,-0.86652 -5.8577,-2.49559 -7.3828,-4.47126 -1.2478,-1.55974 -1.733,-3.36211 -1.2478,-5.19914 0.7626,-2.80754 2.9115,-3.39678 4.8179,-2.87686" style="fill:#cba864;fill-opacity:1;fill-rule:nonzero;stroke:none" id="path15582" inkscape:connector-curvature="0"/><path d="m 3995.5447,405.24249 7.3481,-1.90635 -7.1055,-27.48613 -6.3083,3.36211 -3.1541,-5.58041 11.0221,-6.10033 3.5701,-0.93584 9.0119,34.90357 7.2441,-1.87169 1.6291,6.30829 -21.6285,5.61507 -1.629,-6.30829 z" style="fill:#cba864;fill-opacity:1;fill-rule:nonzero;stroke:none" id="path15592" inkscape:connector-curvature="0"/><path d="m 4046.4269,385.44763 c -0.7625,-2.46093 -2.6342,-4.09 -5.927,-4.29796 -1.837,-0.10398 -4.1246,0.20796 -6.9322,1.07449 l -2.5995,0.83186 -1.941,-6.20431 2.7728,-0.86652 c 2.6343,-0.83187 4.7139,-1.97568 6.1004,-3.32745 1.7677,-1.76771 2.3916,-3.84737 1.6637,-6.20431 -1.0745,-3.36211 -5.1645,-3.77805 -8.8386,-2.63423 -2.5302,0.7972 -4.2979,1.90635 -5.2338,3.11948 0.6933,0.51991 1.2825,1.35178 1.5598,2.14898 0.6932,2.28762 -0.6239,4.78321 -2.9462,5.51109 -2.2876,0.72788 -4.9912,-0.58924 -5.927,-3.60474 -0.3466,-1.10915 -0.3466,-2.63423 0.3466,-4.19397 1.1438,-3.25813 4.3673,-6.96685 10.7102,-8.94253 8.0414,-2.53025 15.6321,0.0347 17.5385,6.13499 1.0744,3.43143 0,6.96685 -2.1837,9.56642 -0.8318,1.00517 -1.9757,1.90635 -3.1195,2.53025 1.3171,0 2.7036,0.10398 4.09,0.41593 3.5701,0.7972 6.9669,2.80754 8.284,7.14016 2.2529,7.10549 -3.5008,13.62175 -11.9234,16.25598 -5.9617,1.87169 -11.7847,1.03983 -15.1815,-1.38644 -1.3171,-0.93584 -2.2876,-2.18364 -2.7382,-3.60474 -0.8318,-2.63423 0.3466,-5.33778 2.8422,-6.13498 2.3916,-0.76254 4.8179,0.48525 5.5458,2.84219 0.3466,0.86653 0.3466,1.94102 0,2.77288 2.1143,0.72788 5.1644,0.38127 7.764,-0.41593 4.2286,-1.31712 7.5561,-4.78321 6.3776,-8.52659" style="fill:#cba864;fill-opacity:1;fill-rule:nonzero;stroke:none" id="path15594" inkscape:connector-curvature="0"/></g></g></svg>