<?xml version="1.0" encoding="UTF-8" standalone="no"?>
<svg
   clip-rule="evenodd"
   fill-rule="evenodd"
   viewBox="0 0 261.97601 272.67355"
   version="1.1"
   id="svg36"
   sodipodi:docname="Cardiff.svg"
   width="261.97601"
   height="272.67355"
   xmlns:inkscape="http://www.inkscape.org/namespaces/inkscape"
   xmlns:sodipodi="http://sodipodi.sourceforge.net/DTD/sodipodi-0.dtd"
   xmlns="http://www.w3.org/2000/svg"
   xmlns:svg="http://www.w3.org/2000/svg">
  <defs
     id="defs36" />
  <sodipodi:namedview
     id="namedview36"
     pagecolor="#ffffff"
     bordercolor="#000000"
     borderopacity="0.25"
     inkscape:showpageshadow="2"
     inkscape:pageopacity="0.0"
     inkscape:pagecheckerboard="0"
     inkscape:deskcolor="#d1d1d1" />
  <path
     d="m 55.464,182.4758 c -0.099,1.119 -0.217,2.236 -0.353,3.351 v 0.088 c -0.882,8.024 -1.675,14.99 6.79,24.073 7.319,7.936 17.283,13.755 23.984,15.96 15.936,5.393 31.156,12.707 45.323,21.78 9.347,-5.997 25.572,-15.167 46.029,-21.339 5.379,-1.676 16.313,-7.231 24.425,-16.049 7.936,-8.553 6.966,-15.343 5.908,-23.102 -0.176,-1.411 -0.441,-2.822 -0.529,-4.321 -0.088,-0.529 -0.264,-1.499 -0.529,-2.645 -15.96,-84.209995 -14.196,-96.201995 -13.579,-100.081995 0.529,-3.703 2.91,-9.788 12.874,-28.305 0.441,-0.794 0.705,-1.411 0.882,-1.675 1.322,-2.646 3.703,-7.055 4.585,-9.7 -1.587,-1.499 -5.467,-4.762 -15.608,-10.846 -4.761,-2.821 -9.435,-5.29 -12.785,-6.878 -18.077,8.994 -35.801,14.55 -50.35,15.52 h -2.822 c -14.813,-1.059 -32.008,-6.437 -50.084,-15.52 -3.351,1.588 -8.025,3.968 -12.786,6.79 -10.229,6.084 -14.373,9.259 -16.049,10.846 0.97,2.822 3.439,7.671 4.762,10.14 0.176,0.353 0.529,0.97 0.97,1.852 8.553,15.784 11.992,23.279 12.609,27.688 0.618,3.88 2.381,15.872 -13.138,99.640995 v 0.088 c -0.176,0.97 -0.353,2.028 -0.529,2.645 m 75.568,88.795 -5.643,-4.056 c -4.497,-3.263 -20.987,-14.549 -45.764,-22.926 -8.73,-2.998 -21.78,-10.053 -32.009,-21.163 -14.373,-15.519 -12.786,-29.892 -11.728,-39.327 v -0.088 c 0.089,-1.147 0.618,-5.115 1.059,-7.407 v -0.089 c 13.667,-73.628 13.491,-89.763995 13.05,-93.114995 -0.353,-1.499 -2.293,-6.261 -10.493,-21.515 -0.529,-1.059 -0.97,-1.764 -1.147,-2.117 -5.467,-10.581 -8.817,-17.988 -6.613,-24.689 2.116,-6.437 8.201,-11.728 25.131,-21.78 8.112,-4.8500002 16.224,-8.5540002 19.311,-9.8760002 l 4.144,-1.764 4.232,2.205 c 17.107,9.0820002 33.067,14.3730002 46.294,15.4310002 h 0.529 c 12.962,-0.97 29.451,-6.437 46.558,-15.4310002 l 4.32,-2.293 4.233,1.852 c 2.998,1.322 10.934,5.114 19.046,9.9640002 16.049,9.611 22.486,15.343 24.69,21.78 2.381,7.23 -1.852,15.519 -6.349,24.16 -0.176,0.353 -0.529,1.059 -1.058,1.94 -8.73,16.137 -10.405,20.81 -10.758,22.045 -0.441,3.35 -0.529,19.574995 13.492,93.555995 0.44,2.381 0.969,6.437 1.146,7.848 1.234,8.818 3.262,23.632 -10.846,38.886 -10.14,10.934 -23.896,18.606 -32.978,21.428 -22.838,6.966 -39.769,17.988 -46.029,22.485 z"
     fill="#2b58ae"
     fill-rule="nonzero"
     id="path1" />
  <path
     d="m 55.464,182.4758 c -0.099,1.119 -0.217,2.236 -0.353,3.351 v 0.088 c -0.882,8.024 -1.675,14.99 6.79,24.073 7.319,7.936 17.283,13.755 23.984,15.96 15.936,5.393 31.156,12.707 45.323,21.78 9.347,-5.997 25.572,-15.167 46.029,-21.339 5.379,-1.676 16.313,-7.231 24.425,-16.049 7.936,-8.553 6.966,-15.343 5.908,-23.102 -0.176,-1.411 -0.441,-2.822 -0.529,-4.321 -0.088,-0.529 -0.264,-1.499 -0.529,-2.645 -15.96,-84.209995 -14.196,-96.201995 -13.579,-100.081995 0.529,-3.703 2.91,-9.788 12.874,-28.305 0.441,-0.794 0.705,-1.411 0.882,-1.675 1.322,-2.646 3.703,-7.055 4.585,-9.7 -1.587,-1.499 -5.467,-4.762 -15.608,-10.846 -4.761,-2.821 -9.435,-5.29 -12.785,-6.878 -18.077,8.994 -35.801,14.55 -50.35,15.52 h -2.822 c -14.813,-1.059 -32.008,-6.437 -50.084,-15.52 -3.351,1.588 -8.025,3.968 -12.786,6.79 -10.229,6.084 -14.373,9.259 -16.049,10.846 0.97,2.822 3.439,7.671 4.762,10.14 0.176,0.353 0.529,0.97 0.97,1.852 8.553,15.784 11.992,23.279 12.609,27.688 0.618,3.88 2.381,15.872 -13.138,99.640995 v 0.088 c -0.176,0.97 -0.353,2.028 -0.529,2.645 z m 75.568,88.795 -5.643,-4.056 c -4.497,-3.263 -20.987,-14.549 -45.764,-22.926 -8.73,-2.998 -21.78,-10.053 -32.009,-21.163 -14.373,-15.519 -12.786,-29.892 -11.728,-39.327 v -0.088 c 0.089,-1.147 0.618,-5.115 1.059,-7.407 v -0.089 c 13.667,-73.628 13.491,-89.763995 13.05,-93.114995 -0.353,-1.499 -2.293,-6.261 -10.493,-21.515 -0.529,-1.059 -0.97,-1.764 -1.147,-2.117 -5.467,-10.581 -8.817,-17.988 -6.613,-24.689 2.116,-6.437 8.201,-11.728 25.131,-21.78 8.112,-4.8500002 16.224,-8.5540002 19.311,-9.8760002 l 4.144,-1.764 4.232,2.205 c 17.107,9.0820002 33.067,14.3730002 46.294,15.4310002 h 0.529 c 12.962,-0.97 29.451,-6.437 46.558,-15.4310002 l 4.32,-2.293 4.233,1.852 c 2.998,1.322 10.934,5.114 19.046,9.9640002 16.049,9.611 22.486,15.343 24.69,21.78 2.381,7.23 -1.852,15.519 -6.349,24.16 -0.176,0.353 -0.529,1.059 -1.058,1.94 -8.73,16.137 -10.405,20.81 -10.758,22.045 -0.441,3.35 -0.529,19.574995 13.492,93.555995 0.44,2.381 0.969,6.437 1.146,7.848 1.234,8.818 3.262,23.632 -10.846,38.886 -10.14,10.934 -23.896,18.606 -32.978,21.428 -22.838,6.966 -39.769,17.988 -46.029,22.485 z"
     fill="none"
     stroke="#ffffff"
     stroke-width="2.29"
     id="path2" />
  <path
     d="m 83.24,234.1478 c -7.231,-2.469 -18.782,-8.729 -27.776,-18.429 -11.287,-12.168 -10.141,-22.838 -9.171,-31.391 0.177,-1.235 0.265,-2.381 0.353,-3.527 0.088,-0.265 0.265,-1.587 0.617,-3.263 9.876,-53.171 14.373,-86.237995 12.962,-95.495995 -0.793,-5.026 -11.286,-23.896 -12.521,-26.277 -3.174,-6.084 -7.054,-13.668 -5.996,-17.107 1.146,-3.527 7.143,-8.288 20.722,-16.313 7.936,-4.673 15.519,-8.2 17.9,-9.17 0.088,0 0.088,0.088 0.176,0.088 18.253,9.612 35.448,15.343 49.821,16.313 h 1.411 c 14.196,-0.97 32.008,-6.79 50.084,-16.313 0.089,0 0.089,-0.088 0.177,-0.088 2.292,0.97 9.787,4.585 17.723,9.347 12.963,7.759 19.047,12.697 20.281,16.401 1.147,3.351 -2.469,10.317 -5.731,16.577 -1.147,2.205 -11.904,21.604 -12.61,26.63 -1.41,9.259 3.263,42.412995 13.403,95.936995 0.265,1.587 0.529,2.822 0.618,3.086 0.088,1.323 0.352,2.734 0.529,4.233 1.146,8.377 2.645,18.87 -8.289,30.686 -8.73,9.435 -20.898,16.224 -28.393,18.517 -23.632,7.231 -41.267,18.517 -48.41,23.544 0,0 -22.132,-15.343 -47.88,-23.985"
     fill="#ffffff"
     fill-rule="nonzero"
     id="path3" />
  <path
     d="m 83.24,234.1478 c -7.231,-2.469 -18.782,-8.729 -27.776,-18.429 -11.287,-12.168 -10.141,-22.838 -9.171,-31.391 0.177,-1.235 0.265,-2.381 0.353,-3.527 0.088,-0.265 0.265,-1.587 0.617,-3.263 9.876,-53.171 14.373,-86.237995 12.962,-95.495995 -0.793,-5.026 -11.286,-23.896 -12.521,-26.277 -3.174,-6.084 -7.054,-13.668 -5.996,-17.107 1.146,-3.527 7.143,-8.288 20.722,-16.313 7.936,-4.673 15.519,-8.2 17.9,-9.17 0.088,0 0.088,0.088 0.176,0.088 18.253,9.612 35.448,15.343 49.821,16.313 h 1.411 c 14.196,-0.97 32.008,-6.79 50.084,-16.313 0.089,0 0.089,-0.088 0.177,-0.088 2.292,0.97 9.787,4.585 17.723,9.347 12.963,7.759 19.047,12.697 20.281,16.401 1.147,3.351 -2.469,10.317 -5.731,16.577 -1.147,2.205 -11.904,21.604 -12.61,26.63 -1.41,9.259 3.263,42.412995 13.403,95.936995 0.265,1.587 0.529,2.822 0.618,3.086 0.088,1.323 0.352,2.734 0.529,4.233 1.146,8.377 2.645,18.87 -8.289,30.686 -8.73,9.435 -20.898,16.224 -28.393,18.517 -23.632,7.231 -41.267,18.517 -48.41,23.544 0,0 -22.132,-15.343 -47.88,-23.985 z"
     fill="none"
     stroke="#b31d27"
     stroke-width="4.14"
     id="path4" />
  <path
     d="m 179.353,100.7348 7.496,-13.313995 c -4.233,-1.94 -25.925,-11.375 -55.905,-11.464 -29.892,0.089 -51.672,9.435 -55.817,11.464 l 7.496,13.313995 -59.168,30.069 -1.851,-20.457 -20.017,-12.520995 26.101,-14.814 -9.171,-17.371 0.618,-0.353 c 18.693,-11.11 38.357,-19.399 58.461,-24.69 17.46,-4.585 35.36,-6.966 53.26,-6.966 h 0.088 v 0.794 -0.794 c 17.9,0 35.8,2.381 53.259,6.966 20.105,5.291 39.768,13.58 58.462,24.69 l 0.617,0.353 -9.17,17.371 26.1,14.814 -20.016,12.520995 -1.852,20.457 z"
     fill="#2b58ae"
     id="path5" />
  <g
     fill="#ffffff"
     id="g10"
     transform="translate(-149.012,-63.729195)">
    <path
       d="m 281.719,96.479 h -3.35 c -17.459,0.177 -34.83,2.558 -51.937,7.055 -20.104,5.29 -39.856,13.667 -58.638,24.778 l -1.323,0.793 0.706,1.323 8.465,15.96 -24.337,13.844 -2.293,1.323 2.205,1.41 18.517,11.64 1.763,18.958 0.177,2.293 2.116,-1.058 57.404,-29.187 1.499,-0.794 -0.794,-1.411 -6.701,-11.816 c 2.292,-1.058 7.23,-3.086 14.108,-5.114 8.994,-2.645 23.367,-5.82 40.65,-5.908 28.305,0.088 49.115,8.465 54.758,11.022 l -6.701,11.816 -0.794,1.411 1.499,0.794 57.404,29.187 2.116,1.058 0.176,-2.293 1.764,-18.958 18.517,-11.64 2.293,-1.41 -2.293,-1.323 -24.337,-13.844 8.465,-15.96 0.706,-1.323 -1.323,-0.793 C 373.424,117.201 353.672,108.824 333.568,103.534 316.55,99.037 299.09,96.656 281.719,96.479 Z m -1.675,1.588 c 32.89,0.088 71.512,8.024 111.28,31.567 l -9.17,17.371 25.66,14.55 -19.223,11.992 -1.764,19.751 -57.403,-29.186 7.495,-13.315 c 0,0 -23.103,-11.816 -56.963,-11.904 -33.86,0.088 -56.963,11.904 -56.963,11.904 l 7.495,13.315 -57.403,29.186 -1.764,-19.751 -19.223,-11.992 25.66,-14.55 -9.17,-17.371 c 39.768,-23.631 78.478,-31.479 111.28,-31.567 z"
       fill-rule="nonzero"
       id="path6" />
    <path
       d="m 180.403,151.679 -18.429,10.14 14.461,8.465 1.588,15.519 40.738,-20.369 -28.394,3.087 z"
       id="path7" />
    <path
       d="m 218.584,153.001 c 0,0 -13.226,5.732 -24.425,11.023 l 29.099,-2.999 z m 161.101,-1.322 18.429,10.14 -14.461,8.465 -1.587,15.519 -40.738,-20.369 28.393,3.087 z"
       id="path8" />
    <path
       d="m 341.68,152.56 c 0,0 13.227,5.732 24.425,11.023 l -29.098,-2.998 z"
       id="path9" />
    <path
       d="M 369.015,159.615 C 299.708,123.55 255.707,126.372 191.778,159.35 c -5.379,-10.229 -9.258,-17.283 -14.902,-27.247 64.634,-36.77 143.113,-37.387 206.336,-0.264 -6.261,10.846 -8.906,18.341 -14.285,27.864"
       id="path10" />
  </g>
  <g
     fill-rule="nonzero"
     id="g36"
     transform="translate(-149.012,-63.729195)">
    <path
       d="m 201.125,139.598 2.557,-1.322 c 0.054,0.091 0.113,0.179 0.177,0.264 0.088,0.088 0.088,0.177 0.176,0.265 0.054,0.091 0.113,0.179 0.176,0.264 0.088,0.088 0.088,0.177 0.177,0.265 0.793,1.587 0.881,2.91 0.176,3.791 -0.705,0.97 -1.764,1.764 -3.174,2.469 l -1.852,0.882 c -1.94,0.97 -3.439,1.146 -4.497,0.529 -1.058,-0.617 -2.116,-1.852 -2.998,-3.615 -0.081,-0.18 -0.169,-0.357 -0.265,-0.529 l -0.264,-0.529 c -0.055,-0.091 -0.114,-0.179 -0.177,-0.265 l -0.176,-0.264 c -0.088,-0.265 -0.265,-0.529 -0.353,-0.794 -0.176,-0.264 -0.264,-0.529 -0.352,-0.705 -1.147,-2.293 -1.411,-4.056 -0.706,-5.203 0.706,-1.146 2.116,-2.204 4.145,-3.262 l 0.881,-0.441 c 0.088,0 0.177,-0.088 0.265,-0.088 0.088,0 0.176,-0.089 0.264,-0.177 0.62,-0.281 1.272,-0.488 1.94,-0.617 0.618,-0.088 1.323,0 1.94,0.353 0.441,0.264 0.794,0.529 1.058,0.881 0.265,0.353 0.529,0.794 0.794,1.147 0,0.088 0.088,0.176 0.088,0.176 l 0.088,0.177 c 0.05,0.093 0.109,0.182 0.177,0.264 0.088,0.088 0.088,0.176 0.176,0.265 l -2.645,1.234 c -0.089,-0.088 -0.177,-0.176 -0.177,-0.264 0,-0.089 -0.088,-0.177 -0.176,-0.353 v -0.177 c -0.201,-0.37 -0.47,-0.699 -0.794,-0.969 -0.264,-0.265 -0.793,-0.265 -1.587,0.088 -0.212,0.071 -0.419,0.16 -0.617,0.264 -0.203,0.094 -0.409,0.182 -0.617,0.265 l -0.441,0.264 c -0.111,0.097 -0.229,0.185 -0.353,0.265 -0.176,0.088 -0.264,0.176 -0.441,0.264 -0.283,0.181 -0.548,0.388 -0.793,0.618 -0.265,0.264 -0.441,0.44 -0.53,0.705 -0.088,0.265 -0.088,0.529 -0.088,0.794 0,0.264 0.088,0.529 0.177,0.793 0,0.088 0.088,0.177 0.088,0.265 0.088,0.088 0.088,0.176 0.088,0.264 0.088,0.265 0.176,0.441 0.265,0.706 0.088,0.176 0.176,0.441 0.352,0.617 0.265,0.441 0.441,0.882 0.706,1.323 0.264,0.44 0.441,0.881 0.705,1.322 0.706,1.411 1.323,2.117 1.94,2.205 0.617,0.088 1.587,-0.177 2.91,-0.882 0.793,-0.353 1.411,-0.794 1.852,-1.235 0.441,-0.44 0.529,-1.146 0,-2.028 l -0.089,-0.264 -0.088,-0.177 c -0.088,-0.088 -0.088,-0.176 -0.176,-0.176 -0.027,-0.089 -0.057,-0.177 -0.088,-0.264 z m 8.024,-11.727 0.529,8.377 4.85,-1.94 z m 0.706,10.669 0.264,3.086 -2.821,1.147 -0.97,-16.137 3.968,-1.587 10.493,12.257 -2.734,1.146 -2.028,-2.381 z m 17.371,-11.11 c 0.881,-0.265 1.411,-0.617 1.675,-1.058 0.265,-0.441 0.265,-1.058 0,-1.94 -0.264,-0.882 -0.617,-1.587 -0.97,-1.94 -0.353,-0.353 -1.058,-0.441 -2.028,-0.088 l -4.144,1.234 1.499,4.938 z m -8.906,-5.379 7.142,-2.204 c 1.675,-0.53 2.998,-0.53 3.968,-0.177 0.97,0.441 1.675,1.499 2.205,3.263 0.088,0.176 0.088,0.352 0.176,0.529 0.053,0.202 0.082,0.409 0.088,0.617 0.109,0.403 0.168,0.817 0.176,1.235 0.008,0.437 -0.115,0.867 -0.352,1.234 -0.146,0.204 -0.325,0.383 -0.529,0.529 -0.167,0.159 -0.343,0.306 -0.529,0.441 -0.094,0.05 -0.183,0.109 -0.265,0.176 -0.083,0.067 -0.171,0.126 -0.264,0.177 v 0.088 c 0.881,-0.177 1.587,-0.088 2.116,0.264 0.529,0.353 0.97,0.97 1.234,1.852 l 0.97,3.175 -2.821,0.881 -0.794,-2.645 -0.088,-0.353 c -0.265,-0.705 -0.617,-1.146 -1.058,-1.322 -0.441,-0.177 -1.058,-0.089 -1.676,0.088 l -3.968,1.234 1.499,4.85 -2.733,0.794 z m 25.836,6.261 c 1.499,-0.353 2.292,-0.882 2.469,-1.764 0.176,-0.794 0.088,-1.852 -0.177,-3.174 l -0.176,-0.794 c -0.088,-0.441 -0.176,-0.97 -0.353,-1.499 -0.093,-0.485 -0.241,-0.959 -0.441,-1.411 -0.264,-0.882 -0.705,-1.411 -1.322,-1.499 -0.617,-0.088 -1.235,-0.176 -2.028,0 l -4.233,0.882 2.205,10.052 z m -9.612,-11.023 7.407,-1.587 c 1.94,-0.441 3.439,-0.264 4.497,0.441 1.059,0.705 1.852,1.94 2.293,3.968 0.088,0.176 0.088,0.441 0.176,0.617 0.05,0.209 0.109,0.414 0.177,0.618 0.088,0.176 0.088,0.44 0.176,0.617 0.088,0.176 0.088,0.441 0.176,0.617 0.441,1.852 0.441,3.527 0.177,5.026 -0.265,1.499 -1.587,2.469 -3.88,2.998 l -7.848,1.676 z m 22.133,11.375 -2.91,0.441 -2.292,-15.166 2.909,-0.441 z m 5.732,-9.523 6.789,-0.617 0.265,2.381 -6.79,0.617 0.617,6.26 -2.91,0.265 -1.41,-15.255 10.052,-0.97 0.264,2.469 -7.142,0.706 z m 13.314,-0.882 6.79,-0.176 0.088,2.381 -6.789,0.176 0.176,6.349 -2.91,0.088 -0.353,-15.343 10.141,-0.176 0.088,2.469 -7.231,0.176 z m 25.043,4.233 2.822,0.264 v 0.618 c -0.006,0.117 -0.006,0.235 0,0.352 v 0.353 c -0.177,1.764 -0.794,2.91 -1.852,3.351 -1.058,0.441 -2.381,0.529 -3.968,0.441 l -2.028,-0.177 c -2.117,-0.176 -3.527,-0.881 -4.145,-2.028 -0.617,-1.146 -0.793,-2.645 -0.617,-4.673 0,-0.177 0,-0.353 0.088,-0.529 v -1.058 c 0,-0.265 0.088,-0.529 0.088,-0.882 0,-0.265 0.089,-0.529 0.089,-0.794 0.264,-2.557 0.97,-4.144 2.204,-4.761 1.235,-0.618 2.998,-0.794 5.291,-0.618 l 0.97,0.089 c 0.086,0.035 0.174,0.064 0.264,0.088 h 0.353 c 0.705,0.088 1.323,0.264 1.94,0.529 0.617,0.264 1.058,0.705 1.411,1.322 0.24,0.404 0.391,0.856 0.441,1.323 0.088,0.466 0.088,0.945 0,1.411 v 0.529 c -0.005,0.088 -0.005,0.176 0,0.265 v 0.264 l -2.91,-0.264 v -0.882 c 0.038,-0.414 0.008,-0.831 -0.088,-1.235 -0.089,-0.352 -0.618,-0.617 -1.323,-0.705 -0.203,-0.045 -0.41,-0.075 -0.617,-0.088 -0.177,0 -0.441,-0.088 -0.618,-0.088 l -0.529,-0.089 h -0.881 c -0.353,0 -0.706,0 -0.97,0.089 -0.265,0.088 -0.618,0.176 -0.794,0.352 -0.192,0.17 -0.343,0.381 -0.441,0.618 -0.12,0.221 -0.209,0.459 -0.264,0.705 0,0.088 -0.089,0.176 -0.089,0.353 0,0.176 0,0.176 -0.088,0.352 0,0.265 -0.088,0.441 -0.088,0.706 l -0.088,0.705 c -0.088,0.529 -0.088,0.97 -0.088,1.499 0,0.529 -0.088,0.97 -0.088,1.499 -0.177,1.499 0,2.469 0.529,2.91 0.44,0.441 1.41,0.706 2.909,0.794 0.882,0.088 1.588,0.088 2.293,-0.088 0.617,-0.089 0.97,-0.706 1.146,-1.764 v -0.529 c -0.011,-0.088 -0.011,-0.177 0,-0.265 v -0.264 z m 7.936,6.701 -2.91,-0.441 2.381,-15.078 2.91,0.441 z m 9.523,1.852 -2.91,-0.617 2.734,-12.433 -4.321,-0.97 0.529,-2.557 11.639,2.557 -0.529,2.557 -4.408,-0.97 z m 14.814,-2.116 -1.676,5.643 -2.821,-0.882 1.675,-5.643 -2.557,-10.669 3.174,0.969 1.676,7.319 5.467,-5.202 3.262,0.97 z m 16.489,2.998 6.261,2.645 -0.97,2.205 -6.261,-2.646 -2.469,5.82 -2.733,-1.146 5.908,-14.109 9.346,3.968 -0.97,2.293 -6.613,-2.822 z m 16.577,11.375 2.558,1.322 c -0.089,0.089 -0.089,0.177 -0.177,0.353 0,0.088 -0.088,0.176 -0.088,0.265 -0.062,0.086 -0.121,0.174 -0.176,0.264 0,0.088 -0.088,0.177 -0.088,0.265 -0.794,1.587 -1.852,2.381 -2.998,2.381 -1.147,0 -2.469,-0.353 -3.88,-1.059 l -1.852,-0.97 c -1.94,-0.97 -2.998,-2.116 -3.086,-3.35 -0.088,-1.235 0.264,-2.734 1.146,-4.497 l 0.529,-1.058 c 0.088,-0.089 0.088,-0.177 0.088,-0.265 0.088,-0.088 0.088,-0.176 0.088,-0.265 0.177,-0.264 0.265,-0.529 0.353,-0.793 0.088,-0.265 0.265,-0.529 0.353,-0.794 1.146,-2.292 2.469,-3.527 3.792,-3.615 1.322,-0.088 3.086,0.353 5.114,1.411 l 0.882,0.441 c 0.088,0.088 0.176,0.088 0.264,0.176 0.088,0.088 0.177,0.088 0.265,0.176 0.573,0.317 1.106,0.702 1.587,1.147 0.529,0.441 0.794,1.058 0.882,1.763 0.088,0.441 0,0.97 -0.088,1.411 -0.142,0.454 -0.319,0.896 -0.53,1.323 0,0.088 -0.088,0.176 -0.088,0.264 -0.02,0.091 -0.049,0.18 -0.088,0.265 -0.033,0.087 -0.062,0.175 -0.088,0.264 0,0.089 -0.088,0.177 -0.088,0.265 l -2.557,-1.323 c 0,-0.088 0.088,-0.176 0.088,-0.352 l 0.176,-0.353 v -0.088 c 0,0 0,-0.089 0.088,-0.089 0.177,-0.352 0.265,-0.793 0.353,-1.146 0.088,-0.353 -0.265,-0.793 -0.97,-1.146 -0.167,-0.132 -0.344,-0.25 -0.529,-0.353 -0.176,-0.088 -0.353,-0.176 -0.617,-0.264 l -0.441,-0.265 c -0.088,-0.088 -0.265,-0.088 -0.441,-0.176 -0.144,-0.067 -0.291,-0.126 -0.441,-0.177 -0.316,-0.112 -0.64,-0.2 -0.97,-0.264 -0.287,-0.089 -0.594,-0.089 -0.882,0 -0.264,0.094 -0.505,0.244 -0.705,0.441 -0.169,0.189 -0.317,0.396 -0.441,0.617 -0.061,0.087 -0.119,0.175 -0.176,0.264 0,0.089 -0.089,0.177 -0.177,0.265 -0.088,0.176 -0.264,0.441 -0.352,0.617 -0.089,0.177 -0.265,0.441 -0.353,0.618 -0.265,0.44 -0.441,0.881 -0.617,1.322 -0.265,0.441 -0.441,0.882 -0.618,1.323 -0.705,1.411 -0.881,2.292 -0.617,2.91 0.265,0.529 1.058,1.146 2.381,1.851 0.794,0.441 1.499,0.618 2.116,0.794 0.617,0.088 1.235,-0.265 1.676,-1.234 0,-0.089 0.088,-0.177 0.088,-0.177 0,-0.088 0.088,-0.176 0.088,-0.264 0,-0.089 0.088,-0.177 0.088,-0.265 0.088,-0.088 0.088,-0.176 0.088,-0.264 z m -85.708,2.381 c -8.818,0 -17.371,1.763 -25.395,5.114 -7.76,3.262 -14.726,8.024 -20.722,14.02 -5.97,5.935 -10.731,12.973 -14.02,20.722 -3.439,8.024 -5.115,16.577 -5.115,25.395 0,8.818 1.764,17.371 5.115,25.395 3.262,7.76 8.024,14.726 14.02,20.722 5.996,5.996 12.962,10.669 20.722,14.02 8.024,3.439 16.577,5.114 25.395,5.114 8.818,0 17.371,-1.763 25.395,-5.114 7.76,-3.262 14.726,-8.024 20.722,-14.02 5.976,-5.93 10.739,-12.969 14.02,-20.722 3.439,-8.024 5.114,-16.577 5.114,-25.395 0,-8.818 -1.763,-17.371 -5.114,-25.395 -3.283,-7.752 -8.045,-14.791 -14.02,-20.722 -5.927,-5.98 -12.967,-10.743 -20.722,-14.02 -8.024,-3.439 -16.577,-5.114 -25.395,-5.114 m 0,2.645 c 34.565,0 62.606,28.04 62.606,62.606 0,34.566 -28.041,62.606 -62.606,62.606 -34.566,0 -62.606,-28.04 -62.606,-62.606 0,-34.566 28.04,-62.606 62.606,-62.606"
       fill="#2b58ae"
       id="path11" />
    <path
       d="m 280.485,149.915 c -8.201,0 -16.225,1.587 -23.72,4.762 -7.251,3.051 -13.84,7.483 -19.399,13.05 -11.447,11.417 -17.864,26.952 -17.812,43.119 0,8.2 1.587,16.225 4.762,23.72 3.086,7.23 7.495,13.755 13.05,19.399 5.559,5.566 12.148,9.999 19.399,13.05 7.495,3.174 15.519,4.762 23.72,4.762 8.2,0 16.225,-1.588 23.72,-4.762 7.23,-3.086 13.755,-7.495 19.399,-13.05 11.447,-11.417 17.864,-26.952 17.812,-43.119 0,-8.201 -1.587,-16.225 -4.762,-23.72 -3.086,-7.231 -7.495,-13.756 -13.05,-19.399 -11.417,-11.447 -26.952,-17.864 -43.119,-17.812 m 0,0.617 c 33.331,0 60.313,26.983 60.313,60.314 0,33.243 -26.982,60.225 -60.313,60.225 -33.243,0 -60.314,-26.982 -60.314,-60.225 0,-33.331 26.983,-60.314 60.314,-60.314"
       fill="#2b58ae"
       id="path12" />
    <path
       d="m 289.567,170.813 c -7.407,2.734 -14.02,9.7 -15.343,18.165 -0.97,6.613 2.293,13.315 8.289,16.665 4.233,2.381 8.024,3.968 12.698,4.497 5.996,0.706 12.874,1.147 18.958,1.147 4.673,0 15.078,0 18.164,-0.088 0.441,0 -0.352,0.44 -0.529,0.44 -16.93,3.175 -19.487,2.822 -32.184,6.966 l 0.088,0.177 c 8.377,2.469 29.01,17.724 31.303,20.986 -12.61,-7.495 -34.301,-17.106 -49.468,-13.05 -3.174,0.882 -6.966,2.998 -7.495,7.054 -0.617,4.673 2.734,9.7 5.291,13.227 4.497,6.172 10.316,12.256 16.753,16.136 0.794,0.529 1.676,0.97 2.469,1.411 -1.146,0.088 -2.116,0 -2.821,-0.264 -0.088,0 -0.088,-0.089 -0.177,-0.089 -10.14,-4.585 -30.333,-18.693 -30.333,-18.693 -1.234,-0.97 -2.469,-1.94 -3.615,-2.91 0,-0.088 -0.088,-0.088 -0.088,-0.088 -0.441,-0.353 -0.882,-0.794 -1.323,-1.147 -5.026,-4.673 -8.2,-9.523 -9.611,-14.549 v -0.088 c -0.617,-2.116 -0.882,-4.233 -0.794,-6.437 -3.262,-2.998 -6.26,-6.437 -8.994,-10.405 -0.088,-0.176 -0.176,-0.265 -0.265,-0.441 -0.032,-0.026 -0.062,-0.055 -0.088,-0.088 -2.028,-3.351 -3.174,-6.613 -3.439,-9.7 -0.052,-0.389 -0.141,-0.773 -0.264,-1.146 -0.353,-1.146 -0.882,-2.293 -1.852,-3.439 l 2.116,0.265 -1.94,-2.822 3.704,0.617 c 3.615,-3.88 10.669,0.706 13.756,3.175 l 0.264,-1.499 c 0.882,-6.173 5.291,-12.169 10.405,-16.137 5.996,-4.585 10.405,-6.79 17.195,-8.73 2.116,-0.617 4.144,-1.146 6.26,-1.499 2.558,-0.44 5.203,-0.97 7.76,-1.058 1.058,0 2.557,-0.088 3.615,0.265 0,0 1.235,0.264 0.882,0.353 -0.793,0.176 -5.114,1.41 -9.17,2.821"
       fill="#e9e9e8"
       id="path13" />
    <path
       d="m 286.217,165.258 c -7.672,3.086 -14.462,10.405 -15.432,19.135 -0.793,6.877 2.91,13.579 9.435,16.93 4.498,2.292 8.642,3.879 13.58,4.232 6.437,0.529 13.667,0.794 20.016,0.617 4.938,-0.088 15.872,-0.44 19.135,-0.617 0.441,-0.088 -0.353,0.441 -0.529,0.441 -17.724,3.792 -20.369,3.439 -33.684,8.201 l 0.088,0.176 c 8.994,2.293 31.303,17.371 33.86,20.634 -13.667,-7.319 -36.858,-16.578 -52.642,-11.993 -3.351,0.97 -7.23,3.351 -7.583,7.495 -0.441,4.762 3.262,9.876 6.084,13.403 4.938,6.173 11.375,12.257 18.429,16.137 0.882,0.529 1.764,0.97 2.646,1.323 -1.005,0.193 -2.043,0.101 -2.999,-0.265 -0.088,0 -0.088,-0.088 -0.176,-0.088 -10.934,-4.409 -32.802,-18.341 -32.802,-18.341 -1.357,-0.891 -2.681,-1.832 -3.968,-2.822 h -0.088 c 0,-0.088 -0.088,-0.088 -0.088,-0.088 -0.479,-0.372 -0.949,-0.754 -1.411,-1.146 H 258 c -5.467,-4.674 -9.083,-9.523 -10.758,-14.638 v -0.088 c -0.705,-2.116 -1.058,-4.321 -1.146,-6.613 -3.527,-2.91 -7.584,-8.289 -9.347,-10.67 -0.353,-0.441 -4.497,-7.054 -4.938,-10.14 -0.088,-0.353 -0.265,-1.058 -0.441,-1.411 -0.353,-1.146 -1.675,-2.293 -2.733,-3.439 l 2.909,0.441 -3.086,-3.174 3.968,0.793 c 4.321,-2.998 12.08,0.441 15.431,2.91 0.088,-0.529 0.177,-1.058 0.177,-1.499 0.705,-6.349 5.114,-12.698 10.405,-16.93 6.172,-4.938 10.669,-7.231 17.811,-9.523 2.117,-0.706 4.321,-1.235 6.526,-1.764 2.645,-0.529 5.467,-1.146 8.2,-1.322 1.058,-0.089 2.645,-0.177 3.792,0.176 0,0 1.322,0.264 0.882,0.353 -0.794,0.176 -5.379,1.587 -9.612,3.174"
       fill="#2b58ae"
       id="path14" />
    <path
       d="m 237.454,202.469 c -2.292,-2.91 -2.381,-3.88 -3.527,-7.319 -0.432,-1.288 -0.727,-2.618 -0.882,-3.968 0.441,0 0.882,-0.088 1.323,-0.088 h 0.088 c 3.88,0 6.966,1.235 9.259,3.615 1.763,1.94 3.086,4.586 3.792,7.936 z m 17.9,18.429 c 0,0 -1.058,7.407 12.169,21.075 0,0 -17.547,-10.934 -16.313,-22.927 0,0 1.587,3.616 2.645,3.616 z m 7.055,-45.059 c 0,0 -10.934,3.88 -10.405,18.959 0,0 2.645,2.204 2.733,2.292 l 2.028,-0.264 c 0,0 -3.262,-12.522 5.644,-20.899"
       fill="#ffffff"
       id="path15" />
    <path
       d="m 246.448,213.491 c 0,0 -0.264,1.852 -0.352,3.88 0,0 -13.491,-12.257 -14.726,-22.309 0,0 -2.557,-3.439 -2.733,-3.527 l 2.998,0.441 c 0,0 -0.265,10.758 14.813,21.515 m 86.238,21.516 c 0,0 -15.872,-12.698 -47.439,-15.784 -29.187,-2.91 -8.025,23.014 -8.025,23.014 0,0 -8.729,-9.876 -2.733,-16.048 5.996,-6.173 13.844,-14.109 58.197,8.818"
       fill="#224781"
       id="path16" />
    <path
       d="m 240.805,195.767 c 0.265,-0.529 0.265,-0.881 0,-1.146 -0.441,-0.529 -1.587,-0.793 -3.527,-0.793 1.587,2.645 2.733,3.262 3.439,2.028"
       fill="#2b58ae"
       id="path17" />
    <path
       d="m 263.202,283.769 c 0,0 -1.058,1.675 -2.116,1.499 0,0 -0.088,0.617 0.793,0.353 0,0 2.293,-1.147 2.293,-1.852 0,0 0.176,-0.617 -0.353,-0.529 z"
       fill="#7f171e"
       id="path18" />
    <path
       d="m 260.38,283.945 v -0.441 c 0,-0.264 0,-0.705 -0.176,-1.234 -0.176,-0.529 -0.353,-1.058 -0.705,-1.587 -0.177,-0.265 -0.441,-0.53 -0.706,-0.706 -0.264,-0.176 -0.617,-0.353 -0.97,-0.441 -0.352,-0.176 -0.705,-0.264 -0.97,-0.529 -0.264,-0.176 -0.529,-0.529 -0.617,-0.882 -0.088,-0.352 0,-0.705 0.088,-0.97 0.127,-0.268 0.307,-0.508 0.529,-0.705 0.177,-0.176 0.441,-0.353 0.529,-0.441 0.177,-0.176 0.265,-0.264 0.353,-0.441 0.088,-0.088 0.176,-0.264 0.176,-0.352 0,-0.089 0.089,-0.089 0.089,-0.089 0,0 0,0.089 -0.089,0.089 0,0.088 -0.088,0.176 -0.176,0.352 -0.095,0.164 -0.214,0.312 -0.353,0.441 -0.176,0.176 -0.352,0.265 -0.529,0.441 -0.198,0.199 -0.349,0.44 -0.441,0.705 -0.103,0.282 -0.134,0.586 -0.088,0.882 0.088,0.353 0.265,0.617 0.529,0.794 0.265,0.176 0.618,0.353 0.97,0.441 0.353,0.088 0.706,0.264 0.97,0.441 0.353,0.176 0.529,0.44 0.794,0.705 0.372,0.501 0.641,1.07 0.793,1.675 0.12,0.431 0.179,0.876 0.177,1.323 v 0.529 z"
       fill="#b31e25"
       id="path19" />
    <path
       d="m 260.38,283.328 0.089,-0.088 c 0,-0.088 0.088,-0.177 0.088,-0.265 0.088,-0.176 0.176,-0.529 0.264,-0.882 0.037,-0.419 -0.023,-0.842 -0.176,-1.234 -0.088,-0.265 -0.176,-0.441 -0.353,-0.617 l -0.529,-0.529 c -0.192,-0.192 -0.369,-0.398 -0.529,-0.618 -0.176,-0.264 -0.264,-0.529 -0.176,-0.793 0,-0.265 0.176,-0.529 0.353,-0.617 0.176,-0.177 0.352,-0.265 0.617,-0.265 0.176,-0.088 0.352,-0.088 0.529,-0.088 0.176,0 0.264,-0.088 0.353,-0.177 0.088,-0.088 0.176,-0.088 0.176,-0.176 0,-0.088 0.088,-0.088 0.088,-0.088 l -0.264,0.264 c -0.089,0.089 -0.265,0.089 -0.353,0.177 -0.177,0.088 -0.353,0.088 -0.529,0.176 -0.194,0.047 -0.375,0.138 -0.529,0.265 -0.153,0.171 -0.246,0.388 -0.265,0.617 -0.022,0.263 0.076,0.522 0.265,0.705 l 0.529,0.529 c 0.176,0.177 0.441,0.353 0.617,0.529 0.179,0.214 0.327,0.451 0.441,0.706 0.181,0.448 0.271,0.928 0.264,1.411 0,0.176 0,0.441 -0.088,0.617 -0.088,0.176 -0.088,0.353 -0.088,0.441 -0.088,0.088 -0.088,0.176 -0.088,0.264 0,0.089 -0.088,0.089 -0.088,0.089 z"
       fill="#b31e25"
       id="path20" />
    <path
       d="m 258.441,290.999 c 0,0 -0.353,-0.176 -0.97,-0.352 l -0.265,-0.353 c 0,0 -0.794,0 -1.146,0.176 0,0 2.381,1.676 2.557,2.734 z"
       fill="#7f171e"
       id="path21" />
    <path
       d="m 264.613,295.585 h -0.882 c -0.529,0 -1.146,-0.089 -1.675,-0.177 -0.192,-0.052 -0.372,-0.142 -0.529,-0.264 -0.529,-0.353 -0.794,-1.058 -0.882,-1.588 -0.088,-0.176 -0.088,-0.44 -0.088,-0.705 0,0 -0.088,-2.645 -1.235,-3.792 l 0.089,-0.264 c 0,0 -0.618,-0.353 -1.059,-0.265 0,0 0.618,1.147 0.618,1.94 0,0.794 -0.706,-0.617 -0.882,-0.881 l -0.441,-0.441 v -0.265 c 0,0 -0.882,-0.353 -1.323,-0.264 0,0 0.353,0.352 0.882,1.146 0.97,1.411 1.323,3.527 0.882,4.497 0,0 -0.97,0.97 -1.587,1.234 -0.618,0.265 1.41,0.089 2.028,-0.176 0.617,-0.264 1.058,0.353 1.851,2.028 0.794,1.676 1.235,3.086 3.704,3.88 0.529,0.088 -0.353,-0.529 -0.529,-1.058 -0.265,-0.97 0.441,-1.235 0.793,-1.146 0.441,0.176 1.235,1.41 1.764,1.763 0,0 -1.411,-4.85 -1.499,-5.291"
       fill="#b31e25"
       id="path22" />
    <path
       d="m 257.647,295.496 -0.353,0.353 c 0,0 -0.529,0.088 -1.322,-0.176 0,0 1.322,-0.353 1.587,-0.617 z m 9.611,-18.341 c 0,0 -3.968,0.97 -4.761,3.175 0,0 0,-0.088 -0.177,0 v -0.617 c 0.089,-0.177 -0.793,0.352 -0.97,1.41 0,0 0.177,0.441 0.353,0.53 0,0 -1.146,1.058 -1.499,1.675 0,0 -0.176,-0.176 -0.264,-0.529 -0.089,-0.353 -0.618,0.617 -0.618,0.793 0,0 -0.088,0.177 0.089,0.353 0,0 0.088,0.176 0.264,0.617 0.265,0.441 0.176,-0.264 0.265,-0.352 0,0 0.793,0.352 1.058,0.264 0.264,-0.088 0.97,-0.441 1.146,-0.441 0.088,0 0.176,0.353 0.265,0.353 0.176,0 0.44,-0.529 0.44,-0.529 0,-0.176 0.441,0 0.882,-0.265 0,0 -0.529,0.97 -1.322,1.411 0,0 -0.441,-0.617 -0.53,-0.441 v 0.529 c 0,0 0,0.265 -0.529,0.265 0,0 -0.44,-0.353 -0.44,-0.441 0,-0.088 -0.177,0.088 -0.089,0.353 l 0.089,0.264 c 0,0 -0.177,0.353 0.176,0.706 0,0 0.088,0.352 0.088,0.529 0,0 0.176,-0.088 0.265,-0.529 0,0 0.176,0.529 0.264,0.529 0.088,0.088 0.265,-0.265 0.265,-0.529 0,-0.088 0.441,-0.177 0.529,-0.177 0.264,-0.088 0.441,0 0.617,0.177 0.176,0.264 0.176,0.617 -0.088,0.793 -0.177,0.089 -0.353,0 -0.529,-0.088 0,0 -0.441,-0.176 0,0.353 0.529,0.617 1.499,0 1.234,-0.882 -0.176,-0.617 -0.441,-0.705 -0.441,-0.705 0,0 0.353,-0.088 0.353,-0.177 0.088,-0.088 0.617,0.177 0.617,0.089 0,-0.089 -0.176,-0.265 -0.264,-0.441 -0.088,-0.089 0.617,0.264 0.617,0.176 0.088,-0.088 -0.088,-0.353 -0.176,-0.441 -0.089,-0.088 3.703,0.176 0.529,5.908 -1.764,3.174 -1.587,6.966 1.234,9.435 3.704,3.263 8.642,1.675 11.375,-1.94 0.794,-1.058 1.235,-2.381 2.116,-3.262 0.618,-0.618 1.499,-0.97 2.381,-0.882 2.116,0.264 3.175,2.469 4.497,3.88 1.676,1.851 3.968,3.438 6.349,4.32 4.673,1.676 10.14,0 11.375,-5.202 0.617,-2.557 -0.353,-5.908 -2.998,-6.966 -1.587,-0.617 -3.527,0 -5.203,-0.529 -0.617,-0.177 -1.058,-0.618 -1.146,-1.235 0,-0.353 0,-0.705 0.176,-0.97 0.794,-1.234 2.117,-2.292 3.263,-2.821 1.146,-0.618 1.235,-0.618 1.411,-0.97 -0.176,-0.177 -1.058,0 -2.91,1.146 -4.056,2.293 -4.409,5.555 -1.234,6.525 1.322,0.441 3.086,0.088 3.879,1.499 0.353,0.705 0.441,1.764 -0.264,2.381 -3.792,3.351 -9.259,-2.469 -9.259,-2.469 0,0 0.529,0 1.235,0.353 0.793,0.264 -1.411,-1.852 -3.087,-2.381 0,0 0.97,0.176 1.411,0.353 0.441,0.176 -0.176,-0.441 -0.97,-0.97 0,0 -1.411,-0.97 -2.91,-1.323 0,0 0.53,-0.176 1.235,0.088 0.705,0.176 0,-0.353 -0.794,-0.529 -0.793,-0.265 -2.91,-0.617 -3.35,-0.705 -0.441,-0.089 0.44,-0.265 0.793,-0.177 0.353,0.088 0,-0.176 -0.705,-0.352 -0.882,-0.265 -2.028,-0.177 -2.822,0.088 -1.681,0.3 -3.208,1.172 -4.321,2.469 -0.881,0.97 -1.763,1.94 -2.733,2.821 -0.529,0.529 -1.146,1.058 -1.764,1.499 -0.352,0.265 -0.793,0.618 -1.234,0.618 -1.499,-0.089 -1.411,-1.499 -1.058,-2.381 0,0 2.116,-4.85 2.116,-5.732 0,0 0.529,0.441 0.617,0.794 0.088,0.353 0.088,-0.353 0.088,-0.617 0,-0.353 -0.44,-1.323 -0.529,-1.499 -0.088,-0.177 0.529,0.264 0.618,0.441 0.088,0.176 0.264,-0.177 0,-0.882 0,0 -0.706,-0.97 -1.059,-1.235 0,0 0.441,-0.088 0.794,0 0.353,0 -0.176,-0.352 -0.353,-0.441 -0.176,-0.088 -0.529,-0.264 -1.058,-0.352 0,0 0.529,-0.529 0.882,-0.529 0.353,-0.089 -0.265,-0.265 -0.265,-0.265 0,0 -0.705,-0.176 -1.41,0 0,0 0.264,-0.617 0.529,-0.705 0.264,-0.089 -0.177,-0.265 -0.706,-0.089 0,0 -0.705,0.265 -0.793,0.265 -0.089,0 -0.177,0.088 -0.177,0.088 0,0 0.441,-0.882 0.97,-1.058 0,0 0,-0.353 -0.882,-0.088 l -0.176,0.088 c 0,0 0.617,-1.411 1.675,-1.852 0.706,-0.352 -1.146,-0.088 -1.41,-0.088 -0.265,0 -1.676,0.441 -2.469,1.058 0,0 0,-0.352 0.176,-0.529 0.176,-0.176 -0.353,-0.088 -0.353,-0.088 l -0.352,0.088 c 0,0 1.146,-1.234 1.675,-1.499 0.265,-0.176 -0.176,-0.088 -0.176,-0.088"
       fill="#b31e25"
       id="path23" />
    <path
       d="m 264.348,282.093 c 0,0 0.089,0 0.089,-0.088 0.176,-0.088 0.352,-0.264 0.529,-0.352 0.088,-0.089 0.352,-0.353 0.352,-0.441 0,-0.177 -0.352,0 -0.44,0 -0.331,0.096 -0.655,0.214 -0.97,0.352 -0.089,0 -0.089,0 -0.089,0.089 v 0.176 c 0.089,0.176 0.353,0.353 0.529,0.353"
       fill="#ffffff"
       id="path24" />
    <path
       d="m 286.217,297.084 c 0,0 -0.441,0.705 -1.235,1.234 -0.617,0.441 -1.058,1.146 -0.088,1.94 1.234,1.058 2.381,1.411 2.91,1.852 0,0 0,0.529 -0.794,0.529 l -1.852,-0.353 c 0,0 -1.322,-0.529 -1.41,-0.617 -0.265,0 -0.882,-0.353 -1.499,0 -0.353,0.176 -0.794,0.176 0.176,0.353 0,0 0.264,0 1.146,0.352 -1.322,-0.088 -1.322,0.265 -1.852,0.177 -0.352,-0.089 -0.881,0.176 -0.881,0.617 0,0 1.146,-0.088 1.851,0.088 1.147,0.176 1.235,0.176 1.235,0.176 0,0 -1.587,0.265 -2.028,1.147 0,0 1.322,-0.177 3.086,-0.353 1.764,-0.265 4.409,-0.176 5.203,-0.088 0.793,0.088 -0.353,-1.411 -0.353,-1.411 0,0 -0.794,-1.675 0.088,-1.764 l 0.529,-0.264 c 0,0 -0.97,-1.499 -4.144,-3.704"
       fill="#b31e25"
       id="path25" />
    <path
       d="m 283.042,301.845 0.176,-0.529 c 0,0 -1.587,0.353 -1.763,0.706 h 1.94 z m -1.234,0.794 -0.353,-0.265 c 0,0 -0.97,0.265 -1.411,0.97 0,0 1.499,-0.264 2.557,-0.088 z m 0.793,1.234 -0.352,-0.352 c 0,0 -1.235,0.529 -1.588,1.146 0,0 2.557,-0.441 3.616,-0.529 z m 3.88,2.293 -0.529,-0.265 c 0,0 -0.97,0.618 -1.323,1.323 l 2.734,-0.529 z m 0.705,1.323 -0.352,-0.265 c 0,0 -0.882,0.882 -0.882,1.587 0,0 2.822,-1.411 3.263,-1.587 z"
       fill="#b31e25"
       id="path26" />
    <path
       d="m 262.232,280.594 c 0,0 0.529,-0.176 0.706,-0.088 0,0 0.441,-0.793 0.793,-0.882 0.353,-0.088 0.088,0.089 -0.088,0.618 0,0 -0.353,0.881 0.882,-0.177 l 0.882,-0.705 c 0,0 0.529,0.264 0.97,1.587 0,0 0.617,-1.94 3.968,-2.733 0.176,-0.089 -0.089,-0.089 -0.177,-0.177 -0.353,-0.088 -0.705,0 -1.058,0.088 -0.39,0.089 -0.774,0.207 -1.146,0.353 -0.21,0.077 -0.416,0.166 -0.617,0.265 -0.177,0.088 -0.353,0.176 -0.53,0.176 -0.056,0.034 -0.115,0.064 -0.176,0.088 -0.088,0 -0.176,0 -0.264,0.088 0.088,-0.088 0.088,-0.176 0.176,-0.264 l 0.088,-0.177 c -0.176,-0.088 -0.882,0.089 -0.882,0.089 0,0 -1.763,0.705 -2.469,0.529 0,0 -0.529,0.529 -1.058,1.322 m -1.234,2.998 c 0,0 0.441,-1.234 1.411,-0.705 0,0 0.264,0.176 0,0.265 0,0 -0.882,0.352 -1.411,0.529 m 3.703,1.41 c 0.706,-0.44 1.676,-0.264 2.205,0.353 0.441,0.529 0.529,1.323 0.441,2.028 -0.265,1.587 -0.794,2.998 -1.5,4.409 -0.352,0.706 -0.617,1.499 -1.058,2.116 -0.352,0.529 -0.881,1.147 -0.705,1.852 -0.176,-0.793 -0.088,-1.587 0.088,-2.469 0.176,-0.793 0.617,-1.587 0.97,-2.381 0.617,-1.322 1.587,-2.821 1.235,-4.32 -0.177,-0.794 -0.882,-1.588 -1.764,-1.588"
       fill="#7f171e"
       id="path27" />
    <path
       d="m 266.465,290.47 c 0,0 -2.205,6.173 1.411,9.788 l 1.146,1.675 c 0,0 -4.762,-1.851 -4.938,-6.525 0,0 0.882,-3.791 2.293,-4.938 m 5.907,8.554 c 0,-0.089 -0.264,-0.882 -0.176,-0.882 0.794,-0.353 0.706,-2.646 4.144,-5.203 1.25,-1.06 2.836,-1.642 4.474,-1.642 2.625,0 5.032,1.494 6.196,3.847 1.164,2.352 3.263,5.643 6.349,6.966 0.617,0.264 0.264,0.264 0.176,0.352 -0.088,0.177 0.441,0.441 -0.441,0.177 -1.234,-0.353 -5.202,-2.469 -7.23,-5.379 -0.177,-0.353 -3.087,-5.555 -6.702,-1.235 -0.034,0.024 -0.064,0.054 -0.088,0.089 -0.176,0.441 -1.94,4.497 -6.525,5.731 -0.177,0.088 -0.353,-0.088 -0.353,-0.264 z"
       fill="#7f171e"
       id="path28" />
    <path
       d="m 264.084,303.873 -0.441,-0.176 c 0,0 -0.353,0.353 -0.441,0.882 0,0 1.146,-0.441 2.205,-0.529 z m -0.441,1.499 -0.529,-0.088 c 0,0 -0.441,0.617 -0.353,1.058 l 1.499,-0.882 z m 1.94,0.882 -0.794,0.353 c 0,0 -0.264,0.264 -0.088,1.146 0,0 1.676,-1.323 3.263,-2.204 z m 6.613,-2.293 0.353,-0.264 c 0,0 0.705,0.088 0.97,0.617 0,0 -1.146,-0.176 -1.94,0.088 z"
       fill="#b31e25"
       id="path29" />
    <path
       d="m 275.723,290.206 c -0.176,0.176 -0.529,0.088 -0.705,0.352 0,0 0.441,-0.969 0.176,-3.174 -0.088,-0.882 -0.176,0.705 -0.176,0.705 0,0 -0.088,1.147 -1.058,2.205 -0.97,1.058 -1.676,1.234 -2.028,2.204 0,0 -0.353,-0.176 0.264,-1.058 0.529,-0.705 -0.352,-0.176 -0.705,0.353 -0.353,0.529 -0.882,1.411 -1.058,2.822 -0.265,1.499 -3.351,2.821 -2.381,4.232 0.264,0.353 0.794,2.028 0.794,2.293 0,0.441 -0.53,0.882 -0.794,1.234 -0.088,0.088 -0.441,0.794 -0.529,0.794 0,0 -2.91,0.176 -3.704,0.882 -0.352,0.264 0,0.264 0,0.264 0,0 1.764,-0.353 2.117,-0.088 0.264,0.176 -0.353,0.265 -0.441,0.265 -0.177,0.088 -0.353,0.088 -0.529,0.176 -0.618,0.264 -1.235,0.529 -1.676,0.882 -0.617,0.529 -0.264,0.529 -0.264,0.529 0,0 1.675,-0.794 2.91,-0.706 0,0 -1.058,1.235 -1.058,1.94 0,0 0.264,-0.088 0.969,-0.793 0.618,-0.706 4.145,-1.852 4.85,-2.028 0.088,0 1.499,-0.265 2.028,-0.265 0.97,0 -0.617,-0.441 -0.617,-0.441 0,0 -0.705,-0.176 -1.234,-0.176 -0.529,0 0.352,-0.706 0.617,-0.794 0,0 1.146,-0.441 2.292,-0.088 0.706,0.265 -0.44,-0.97 -0.969,-1.146 0.176,-0.441 0.44,-0.882 0.529,-1.323 0.176,-0.705 0.264,-1.323 0.793,-1.852 -0.387,-0.044 -0.775,0.085 -1.058,0.353 -0.264,-0.617 -0.176,-1.323 0.265,-1.852 0.352,-0.441 0.793,-0.705 1.234,-1.058 0.617,-0.529 1.235,-1.146 1.764,-1.852 0.793,-1.058 -0.089,0 -0.794,0.089 0,0 -0.265,-0.177 0.794,-1.235 1.058,-1.058 0.176,-0.264 -0.618,-0.176 -0.793,0.088 0.177,-0.441 0.618,-0.882 1.851,-2.116 2.821,-1.235 1.675,-4.673 0,-0.089 -0.882,1.322 -2.381,2.998"
       fill="#b31e25"
       id="path30" />
    <path
       d="m 286.657,302.551 c 0,0 1.147,0.617 0.882,1.41 0,0 1.146,0 2.646,0.177 0.793,0 -0.618,-2.028 -0.618,-2.028 0,0 -0.352,-1.058 0.441,-1.235 l -3.791,-3.703 c 0,0 -0.53,0.705 -1.411,1.234 -1.058,0.706 -0.265,1.764 1.322,2.734 l 1.676,0.97 c 0,0 0.088,0.705 -1.147,0.441 m 10.582,-2.028 c 0.97,-2.558 8.465,0.969 7.054,-7.407 0,0 3.086,5.731 -4.056,9.435 0,0 -1.676,0.705 -3.704,0.617 0,0 0.353,-1.587 0.706,-2.645"
       fill="#7f171e"
       id="path31" />
    <path
       d="m 296.269,302.815 -0.353,-2.204 c -0.617,-0.353 -2.028,1.146 -2.028,1.146 0,0 -0.088,1.146 -0.97,1.852 -0.794,0.705 -2.822,1.058 -3.351,1.058 -0.617,0 -0.793,-0.088 -2.292,-0.088 -1.588,0 -1.676,0.793 -1.676,0.793 h 0.441 c 0.441,0 1.146,0 1.852,0.265 0.705,0.264 -1.235,0.353 -1.235,0.353 -1.146,0.088 -1.587,0.881 -1.587,0.881 0,0.353 0.617,0.177 0.617,0.177 0.441,0 1.764,-0.265 1.764,-0.265 0,0 2.204,-0.617 1.058,0 -1.234,0.617 -1.675,0.617 -1.499,0.97 0.088,0.265 0,0.529 0.794,0.265 0.441,-0.177 1.499,-0.794 1.499,-0.794 4.761,-2.116 6.437,-1.587 7.495,-1.94 1.058,-0.353 -0.177,-2.116 -0.177,-2.116 z"
       fill="#b31e25"
       id="path32" />
    <path
       d="m 268.052,283.063 c 0,0 0.264,-0.529 1.146,-0.881 0,0 -0.264,1.058 -0.617,1.41 -0.441,0.265 -0.882,0.265 -0.529,-0.529 m -1.235,-0.881 c 0,0 0.353,-0.618 1.235,-0.97 0,0 -0.265,1.146 -0.705,1.499 -0.441,0.352 -0.97,0.264 -0.53,-0.529 m 2.469,1.587 c 0,0 0.177,-0.265 0.529,-0.441 0,0 -0.088,0.529 -0.352,0.705 -0.265,0.177 -0.441,0.177 -0.265,-0.264 m 0.882,0.705 c 0,0 0.176,-0.264 0.529,-0.441 0,0 -0.088,0.529 -0.264,0.618 -0.177,0.176 -0.441,0.088 -0.265,-0.265 m -10.934,11.022 c 0.176,-0.088 2.733,3.704 4.938,3.616 0,0 -1.058,0.352 -0.441,1.41 0,0 0.617,0.706 0.529,0.794 0,0 -2.557,0.353 -5.026,-5.82"
       fill="#7f171e"
       id="path33" />
    <path
       d="m 286.922,304.755 -0.265,-0.353 c 0,0 -1.234,0.529 -1.499,1.058 0,0 1.852,-0.176 2.998,0 z m 12.08,-20.634 v -0.352 c 0.088,-0.177 0.088,-0.353 0.265,-0.529 0.176,-0.177 0,0 -0.088,0 -0.529,0.088 -0.882,0.793 -1.058,1.234 -0.177,0.441 0.793,-0.176 0.793,-0.353 m 0.794,-0.352 v -0.265 c 0,-0.088 0.088,-0.264 0.176,-0.352 -0.353,0.088 -0.529,0.529 -0.705,0.793 -0.089,0.265 0.529,-0.088 0.529,-0.264 m -1.764,0.705 v -0.353 c 0,-0.264 0.177,-0.529 0.353,-0.705 v -0.088 h -0.088 c -0.706,0.176 -1.147,1.146 -1.323,1.851 -0.176,0.618 1.146,-0.352 1.146,-0.705 m -1.411,0.97 v -0.441 c 0,-0.353 0.177,-0.794 0.353,-1.058 v -0.088 h -0.088 c -1.058,0.264 -1.499,1.852 -1.764,2.821 -0.264,0.97 1.499,-0.705 1.499,-1.234"
       fill="#b31e25"
       id="path34" />
    <path
       d="m 295.122,286.767 c 0,0 -0.088,-0.353 -0.176,-0.529 -0.088,-0.441 0.088,-0.97 0.176,-1.323 v -0.088 c 0,-0.088 -0.088,0 -0.088,0 -1.675,1.146 -1.146,2.381 -1.058,3.439 0,0.088 1.323,-0.97 1.146,-1.499"
       fill="#b31e25"
       id="path35" />
    <path
       d="m 262.938,286.15 h 0.352 c 0.177,0.088 0.265,0.176 0.265,0.352 0.088,0.441 -0.265,0.706 -0.706,0.618 0,0 0.353,0.088 0.441,-0.53 0,0 0,-0.352 -0.441,-0.529"
       fill="#7f181e"
       id="path36" />
  </g>
</svg>
