<?xml version="1.0" encoding="UTF-8" standalone="no"?>
<!DOCTYPE svg PUBLIC "-//W3C//DTD SVG 1.1//EN" "http://www.w3.org/Graphics/SVG/1.1/DTD/svg11.dtd">
<svg xmlns="http://www.w3.org/2000/svg" version="1.1" viewBox="0.00 0.00 600.00 900.00">
<g stroke-width="2.00" fill="none" stroke-linecap="butt">
<path stroke="#868686" vector-effect="non-scaling-stroke" d="
  M 177.58 31.28
  C 173.10 31.68 168.31 31.84 164.16 32.45
  C 86.89 43.71 29.64 104.48 24.72 182.73"
/>
<path stroke="#8e8e8d" vector-effect="non-scaling-stroke" d="
  M 24.72 182.73
  Q 24.11 195.43 24.83 207.16"
/>
<path stroke="#f18389" vector-effect="non-scaling-stroke" d="
  M 24.83 207.16
  Q 24.49 210.55 24.49 222.75
  Q 24.51 357.59 24.50 491.96
  A 0.79 0.78 90.0 0 0 25.28 492.75
  Q 78.54 492.76 131.58 492.74
  C 132.40 492.74 133.72 492.39 134.99 492.48"
/>
<path stroke="#80cff1" vector-effect="non-scaling-stroke" d="
  M 134.99 492.48
  C 135.65 492.43 136.27 492.75 137.00 492.75
  Q 191.13 492.79 245.25 492.69"
/>
<path stroke="#f18389" vector-effect="non-scaling-stroke" d="
  M 245.25 492.69
  L 355.77 492.71"
/>
<path stroke="#80cff1" vector-effect="non-scaling-stroke" d="
  M 355.77 492.71
  L 466.26 492.68"
/>
<path stroke="#f18389" vector-effect="non-scaling-stroke" d="
  M 466.26 492.68
  L 575.83 492.73
  Q 576.33 492.73 576.39 492.23
  Q 577.17 486.06 576.59 481.05"
/>
<path stroke="#8e8e8d" vector-effect="non-scaling-stroke" d="
  M 576.59 481.05
  Q 578.04 472.79 578.04 465.00
  C 578.02 325.12 577.36 185.19 578.03 45.33
  Q 578.06 38.51 577.85 31.98
  A 0.96 0.95 -0.6 0 0 576.90 31.06
  Q 538.90 30.78 502.81 31.32
  Q 500.98 31.34 494.00 31.86"
/>
<path stroke="#868686" vector-effect="non-scaling-stroke" d="
  M 494.00 31.86
  C 427.71 39.02 374.45 85.84 330.74 131.99
  Q 300.57 163.84 270.68 195.94
  C 251.72 216.31 229.67 237.88 204.54 252.31
  Q 182.60 264.90 158.51 262.04
  C 115.06 256.89 80.10 221.64 77.49 177.50
  C 74.11 120.28 118.11 71.34 175.47 68.73
  C 206.53 67.31 235.91 78.38 258.77 99.88
  C 264.41 105.19 271.47 106.33 277.45 100.45
  C 303.47 74.85 328.31 52.59 357.12 33.39
  A 1.18 1.18 0.0 0 0 357.17 31.46
  C 355.93 30.55 353.99 31.25 352.87 31.25
  Q 331.05 31.24 309.26 31.27"
/>
<path stroke="#8e8e8d" vector-effect="non-scaling-stroke" d="
  M 309.26 31.27
  Q 243.31 30.64 177.58 31.28"
/>
<path stroke="#151514" vector-effect="non-scaling-stroke" d="
  M 309.26 31.27
  L 306.17 32.25
  A 0.70 0.69 52.1 0 0 306.02 33.50
  Q 308.83 35.25 312.25 35.12
  Q 323.14 34.71 334.04 34.68
  C 336.47 34.67 338.90 34.34 341.57 35.05
  C 349.12 37.03 338.79 42.98 337.10 43.94
  C 333.49 45.97 330.97 48.99 327.30 51.45
  C 323.34 54.10 320.55 57.87 316.87 60.53
  C 310.38 65.21 304.09 71.70 298.95 76.05
  Q 287.20 85.99 275.24 97.74
  C 272.41 100.52 267.68 102.51 264.04 99.89
  C 257.64 95.27 251.27 88.95 245.65 85.10
  Q 220.46 67.87 189.50 65.31
  A 0.94 0.93 -19.8 0 1 188.92 65.04
  L 188.65 64.77
  Q 188.32 64.45 187.87 64.44
  Q 184.16 64.35 180.45 63.95
  C 176.32 63.51 172.34 65.14 168.22 65.53
  C 149.85 67.27 132.70 74.72 118.09 85.84
  C 110.64 91.51 104.01 96.38 98.69 104.29
  C 96.23 107.96 92.81 110.95 90.82 115.31
  Q 90.67 115.64 90.33 115.76
  L 89.83 115.95
  Q 89.43 116.10 89.25 116.49
  C 87.40 120.56 84.58 124.17 83.04 128.00
  Q 79.26 137.35 76.66 147.09
  C 75.07 153.08 74.70 159.67 73.85 166.07
  C 72.84 173.61 74.31 183.91 75.58 189.72
  C 80.06 210.30 90.32 226.88 105.57 241.18
  C 121.92 256.50 141.31 263.96 163.49 266.25
  C 170.69 267.00 180.37 265.69 187.48 263.18
  C 204.54 257.15 218.93 247.74 232.78 236.27
  Q 258.28 215.17 280.06 190.32
  C 289.71 179.31 300.47 168.97 309.96 157.52
  C 314.70 151.80 320.57 147.07 325.75 141.42
  C 339.99 125.86 352.32 114.35 366.14 101.27
  C 377.32 90.69 389.82 80.97 401.41 72.67
  C 428.75 53.09 459.63 39.53 494.60 35.52
  Q 495.20 35.45 495.24 34.85
  L 495.34 32.99
  Q 495.36 32.63 495.05 32.45
  L 494.00 31.86"
/>
<path stroke="#801217" vector-effect="non-scaling-stroke" d="
  M 576.59 481.05
  Q 575.07 460.93 573.00 452.26
  Q 563.20 411.33 534.80 381.46
  Q 506.58 351.78 466.26 340.13"
/>
<path stroke="#0f5e7f" vector-effect="non-scaling-stroke" d="
  M 466.26 340.13
  Q 447.88 334.96 430.75 334.47
  Q 411.77 333.93 356.46 334.31
  Q 356.10 334.31 356.02 334.66
  Q 355.95 334.99 355.76 335.00"
/>
<path stroke="#801217" vector-effect="non-scaling-stroke" d="
  M 355.76 335.00
  Q 355.80 334.79 355.63 334.53
  Q 355.35 334.10 354.84 334.09
  L 245.50 333.71"
/>
<path stroke="#0f5e7f" vector-effect="non-scaling-stroke" d="
  M 245.50 333.71
  Q 245.47 333.72 245.44 333.72
  Q 204.50 333.88 163.56 333.39
  Q 150.84 333.24 135.00 330.03"
/>
<path stroke="#801217" vector-effect="non-scaling-stroke" d="
  M 135.00 330.03
  Q 135.20 330.93 134.83 330.01
  Q 134.76 329.83 134.58 329.79
  C 80.72 316.81 38.02 274.35 27.35 219.54
  Q 26.17 213.47 24.83 207.16"
/>
<path stroke="#151514" vector-effect="non-scaling-stroke" d="
  M 24.72 182.73
  C 27.90 182.80 26.22 178.96 27.28 176.97
  Q 27.50 176.54 27.59 176.07
  C 29.02 168.38 30.88 161.94 33.11 151.38
  C 37.13 132.44 46.20 114.62 57.15 99.33
  C 60.72 94.33 65.88 88.80 70.08 83.33
  C 73.99 78.22 81.79 72.50 87.84 67.61
  C 104.88 53.86 126.10 44.41 146.34 39.63
  Q 146.55 39.58 151.60 38.23
  C 155.36 37.22 159.30 37.19 162.86 36.41
  C 167.87 35.32 172.39 35.72 177.25 35.11
  Q 177.70 35.06 177.69 34.60
  L 177.58 31.28"
/>
<path stroke="#72537b" vector-effect="non-scaling-stroke" d="
  M 245.50 333.71
  L 245.25 492.69"
/>
<path stroke="#72537b" vector-effect="non-scaling-stroke" d="
  M 466.26 340.13
  L 466.26 492.68"
/>
<path stroke="#72537b" vector-effect="non-scaling-stroke" d="
  M 135.00 330.03
  L 134.99 492.48"
/>
<path stroke="#72537b" vector-effect="non-scaling-stroke" d="
  M 355.76 335.00
  L 355.77 492.71"
/>
<path stroke="#868686" vector-effect="non-scaling-stroke" d="
  M 84.75 543.23
  C 83.30 565.61 98.77 586.46 122.10 587.04
  Q 128.61 587.20 134.04 586.47
  C 151.18 584.16 160.86 567.79 167.42 553.03
  Q 167.68 552.46 168.30 552.46
  L 191.37 552.58
  Q 191.97 552.58 192.17 553.14
  L 204.13 585.98
  Q 204.30 586.47 204.82 586.48
  L 215.17 586.73
  Q 215.81 586.75 215.59 586.14
  L 187.90 509.98
  Q 187.65 509.28 186.91 509.28
  L 176.49 509.18
  A 0.49 0.48 -5.8 0 0 176.01 509.76
  C 176.45 511.88 178.98 513.81 178.05 516.02
  Q 171.33 532.04 164.80 548.13
  C 158.45 563.76 148.57 579.50 129.64 580.31
  C 99.49 581.60 92.69 549.63 100.31 527.40
  C 107.91 505.26 135.51 504.48 147.25 522.54
  C 147.76 523.33 152.84 535.65 154.34 534.51
  A 0.64 0.63 -24.3 0 0 154.58 533.89
  Q 152.44 521.92 152.32 509.76
  A 0.30 0.30 0.0 0 0 152.08 509.47
  C 141.86 507.59 129.10 504.96 119.92 505.78
  C 100.35 507.52 85.98 524.04 84.75 543.23"
/>
<path stroke="#868686" vector-effect="non-scaling-stroke" d="
  M 308.92 552.82
  L 320.47 586.09
  Q 320.82 587.08 321.88 587.08
  L 345.27 586.99
  Q 345.77 586.99 345.77 586.48
  L 345.71 521.24
  A 0.18 0.18 0.0 0 1 346.02 521.11
  Q 375.60 551.83 399.58 587.17
  Q 400.65 588.75 403.78 588.08
  Q 404.20 587.99 404.21 587.55
  Q 404.37 556.99 404.27 526.42
  C 404.25 520.31 405.22 515.56 410.77 513.01
  C 417.18 510.07 428.97 511.01 429.45 520.51
  Q 429.95 530.35 429.72 543.09
  C 429.55 552.75 430.07 564.68 429.45 575.48
  C 429.02 582.82 424.92 584.80 418.31 585.44
  A 0.72 0.72 0.0 0 0 418.31 586.87
  C 424.05 587.47 431.50 586.99 435.56 587.02
  Q 459.81 587.21 484.07 586.92
  A 0.48 0.48 0.0 0 0 484.54 586.52
  Q 484.70 585.67 483.89 585.54
  Q 472.79 583.72 471.01 573.05
  Q 469.34 563.07 469.81 552.99
  Q 469.84 552.53 470.30 552.52
  L 489.70 552.17
  Q 490.25 552.16 490.60 552.59
  L 518.47 586.63
  Q 518.80 587.03 519.31 587.04
  L 544.30 587.22
  A 0.94 0.92 -79.2 0 0 545.18 586.61
  Q 545.63 585.39 544.23 585.14
  C 534.10 583.29 528.13 578.58 520.40 570.65
  Q 494.30 543.89 472.98 513.14
  C 471.04 510.34 470.12 508.43 465.96 509.72
  Q 465.50 509.86 465.50 510.34
  Q 465.51 541.43 465.48 572.52
  C 465.48 582.07 458.49 586.39 449.49 585.17
  Q 440.04 583.88 440.08 573.75
  Q 440.18 549.50 440.24 525.25
  C 440.27 515.45 441.80 512.61 451.80 511.26
  A 0.82 0.81 -31.4 0 0 452.16 509.78
  Q 451.25 509.15 449.75 509.22
  C 436.21 509.77 423.14 508.92 409.25 509.47
  Q 401.11 509.79 386.44 509.15
  A 0.66 0.66 0.0 0 0 385.75 509.81
  L 385.75 511.01
  A 0.58 0.58 0.0 0 0 386.34 511.59
  C 396.28 511.52 399.57 521.26 399.73 529.76
  Q 400.08 548.85 400.13 568.57
  Q 400.13 568.94 399.53 569.03
  C 399.31 569.06 391.61 559.06 390.74 557.99
  Q 371.20 533.94 351.55 509.92
  A 0.93 0.93 0.0 0 0 350.83 509.58
  L 325.55 509.30
  A 1.00 1.00 0.0 0 0 324.93 511.09
  C 325.02 511.16 326.07 511.69 326.14 511.70
  Q 334.66 513.21 341.85 518.11
  A 0.95 0.94 17.9 0 1 342.27 518.91
  Q 341.72 545.12 340.89 571.32
  C 340.77 575.09 340.84 580.28 337.11 582.08
  C 332.49 584.31 329.38 578.17 328.10 574.67
  Q 316.21 542.21 304.47 509.64
  A 0.59 0.58 80.0 0 0 303.92 509.25
  L 293.03 509.25
  A 0.70 0.70 0.0 0 0 292.40 510.27
  C 293.33 512.17 295.74 514.10 294.68 516.47
  C 284.49 539.23 275.74 562.93 266.33 586.08
  A 0.52 0.51 10.4 0 0 266.82 586.79
  L 270.82 586.67
  Q 271.31 586.66 271.48 586.20
  L 283.90 552.85
  Q 284.09 552.35 284.62 552.38
  Q 296.51 553.09 308.39 552.46
  A 0.53 0.53 0.0 0 1 308.92 552.82"
/>
<path stroke="#868686" vector-effect="non-scaling-stroke" d="
  M 248.00 513.24
  C 258.82 513.70 265.69 513.22 271.13 524.18
  Q 272.96 527.86 274.20 531.81
  Q 274.25 531.98 274.32 532.13
  A 1.04 1.04 0.0 0 0 276.32 531.63
  L 274.37 509.92
  Q 274.34 509.50 273.91 509.50
  L 209.04 509.50
  Q 208.58 509.50 208.54 509.96
  L 206.91 532.44
  A 0.68 0.67 59.2 0 0 208.20 532.77
  C 211.45 525.50 213.28 517.69 221.52 514.63
  C 225.14 513.28 230.39 513.39 234.72 513.19
  Q 236.12 513.13 236.11 514.53
  Q 235.93 541.96 235.99 570.02
  C 236.00 578.80 235.31 585.44 224.88 585.07
  A 0.73 0.72 75.1 0 0 224.24 586.18
  C 224.98 587.36 255.67 586.80 258.98 586.37
  A 0.36 0.35 -42.8 0 0 259.01 585.67
  C 252.33 584.30 247.55 584.32 247.01 575.90
  C 245.77 556.53 247.03 534.98 246.43 514.79
  A 1.51 1.51 0.0 0 1 248.00 513.24"
/>
<path stroke="#80cff1" vector-effect="non-scaling-stroke" d="
  M 134.72 750.29
  C 166.45 785.08 204.53 815.59 244.62 840.16
  C 244.86 840.30 244.98 840.25 245.25 840.25"
/>
<path stroke="#f18389" vector-effect="non-scaling-stroke" d="
  M 245.25 840.25
  Q 245.47 840.74 245.81 840.95
  Q 272.08 856.90 299.50 870.04
  A 2.48 2.45 44.7 0 0 301.63 870.04
  Q 329.55 856.70 356.05 840.53"
/>
<path stroke="#80cff1" vector-effect="non-scaling-stroke" d="
  M 356.05 840.53
  Q 357.90 839.14 359.62 838.07
  Q 418.17 801.72 465.21 751.58"
/>
<path stroke="#f18389" vector-effect="non-scaling-stroke" d="
  M 465.21 751.58
  Q 525.80 686.95 555.86 603.77
  Q 556.05 603.25 555.49 603.25
  L 467.02 603.25
  Q 466.87 603.25 466.76 603.37
  Q 466.64 603.50 466.50 603.55"
/>
<path stroke="#80cff1" vector-effect="non-scaling-stroke" d="
  M 466.50 603.55
  Q 466.13 603.20 465.75 603.20
  Q 411.89 603.25 358.03 603.25
  A 5.42 4.94 -47.7 0 0 357.07 603.34
  L 356.00 603.55"
/>
<path stroke="#f18389" vector-effect="non-scaling-stroke" d="
  M 356.00 603.55
  Q 355.28 603.25 355.00 603.25
  Q 300.53 603.25 246.06 603.25
  Q 246.02 603.57 245.26 603.54"
/>
<path stroke="#80cff1" vector-effect="non-scaling-stroke" d="
  M 245.26 603.54
  C 244.68 603.49 244.25 603.25 243.57 603.25
  Q 189.27 603.25 135.02 603.25"
/>
<path stroke="#f18389" vector-effect="non-scaling-stroke" d="
  M 135.02 603.25
  L 46.08 603.25
  A 0.69 0.68 -9.6 0 0 45.43 604.16
  Q 75.00 686.08 134.72 750.29"
/>
<path stroke="#72537b" vector-effect="non-scaling-stroke" d="
  M 135.02 603.25
  Q 134.94 674.10 135.06 744.86
  C 135.06 746.66 135.60 748.20 134.72 750.29"
/>
<path stroke="#72537b" vector-effect="non-scaling-stroke" d="
  M 245.26 603.54
  L 245.25 840.25"
/>
<path stroke="#72537b" vector-effect="non-scaling-stroke" d="
  M 356.00 603.55
  Q 355.70 603.89 355.70 604.25
  Q 355.74 716.50 355.76 828.75
  C 355.76 832.10 356.12 836.52 356.05 840.53"
/>
<path stroke="#72537b" vector-effect="non-scaling-stroke" d="
  M 466.50 603.55
  Q 466.20 603.89 466.20 604.25
  Q 466.25 675.62 466.25 747.00
  Q 466.24 748.36 465.21 751.58"
/>
<path stroke="#151514" vector-effect="non-scaling-stroke" d="
  M 395.81 193.81
  C 407.01 181.15 406.49 162.24 392.97 151.29
  A 1.12 1.12 0.0 0 0 391.32 151.56
  C 389.84 153.90 386.97 155.68 385.32 157.28
  Q 367.55 174.63 350.39 192.60
  Q 350.00 193.01 350.24 193.54
  Q 351.01 195.24 352.82 195.82
  Q 353.27 195.96 353.45 196.39
  Q 354.16 198.16 355.10 198.92
  C 368.42 209.59 385.07 205.97 395.81 193.81"
/>
<path stroke="#868686" vector-effect="non-scaling-stroke" d="
  M 392.31 154.33
  L 353.39 193.20
  Q 352.80 193.79 353.44 194.32
  C 381.84 217.76 416.84 180.58 392.44 154.33
  A 0.09 0.09 0.0 0 0 392.31 154.33"
/>
<path stroke="#868686" vector-effect="non-scaling-stroke" d="
  M 169.13 548.76
  L 190.01 548.82
  Q 190.78 548.82 190.49 548.11
  Q 185.28 534.89 181.18 521.24
  Q 180.37 518.55 179.36 521.17
  L 168.86 548.37
  A 0.29 0.29 0.0 0 0 169.13 548.76"
/>
<path stroke="#151514" vector-effect="non-scaling-stroke" d="
  M 347.79 516.98
  C 352.71 522.42 357.34 527.15 362.22 533.32
  C 365.80 537.85 370.15 542.20 373.50 546.31
  Q 376.38 549.84 379.32 553.33
  C 382.24 556.80 385.66 562.43 389.94 566.30
  Q 390.34 566.67 390.67 566.23
  Q 391.09 565.68 391.03 564.94
  Q 391.00 564.47 390.69 564.11
  Q 385.92 558.54 381.40 552.77
  C 379.71 550.61 377.29 548.42 375.50 545.90
  C 369.33 537.20 361.67 529.24 354.54 521.30
  A 1.17 1.16 -63.2 0 1 354.25 520.41
  C 354.41 518.76 350.99 515.19 349.28 513.41
  Q 348.96 513.08 348.50 513.07
  L 342.32 513.00
  A 0.83 0.82 65.8 0 0 341.77 514.45
  Q 344.05 516.43 347.02 516.61
  A 1.14 1.14 0.0 0 1 347.79 516.98"
/>
<path stroke="#151514" vector-effect="non-scaling-stroke" d="
  M 470.04 517.04
  C 469.72 521.95 473.38 523.79 475.70 527.62
  Q 477.20 530.09 478.54 531.75
  Q 485.20 539.96 491.73 548.27
  C 495.41 552.97 500.09 556.93 503.20 562.01
  C 507.39 568.88 513.75 574.77 518.97 580.85
  C 520.79 582.96 523.13 583.62 525.38 581.95
  A 0.92 0.91 42.2 0 0 525.30 580.43
  C 524.23 579.78 519.68 575.51 519.26 575.50
  Q 518.76 575.48 518.49 575.06
  C 516.32 571.68 514.39 570.44 512.48 567.96
  Q 510.56 565.47 510.02 564.99
  Q 498.70 554.86 493.48 547.52
  C 487.70 539.42 481.31 532.64 476.16 524.44
  Q 474.95 522.50 473.05 521.12
  Q 472.68 520.85 472.60 520.40
  Q 472.23 518.27 470.69 516.79
  A 0.39 0.38 -66.0 0 0 470.04 517.04"
/>
<path stroke="#868686" vector-effect="non-scaling-stroke" d="
  M 285.32 548.41
  A 0.30 0.30 0.0 0 0 285.60 548.82
  L 307.04 549.19
  A 0.30 0.30 0.0 0 0 307.33 548.79
  L 297.10 519.96
  A 0.30 0.30 0.0 0 0 296.54 519.95
  L 285.32 548.41"
/>
<path stroke="#868686" vector-effect="non-scaling-stroke" d="
  M 487.00 549.08
  A 0.28 0.28 0.0 0 0 487.22 548.63
  L 470.37 527.18
  Q 470.08 526.81 469.91 527.25
  C 469.10 529.27 469.73 531.47 469.74 533.08
  Q 469.81 540.74 469.69 548.52
  Q 469.68 549.00 470.16 549.01
  L 487.00 549.08"
/>
</g>
<path fill="#ffffff" d="
  M 3.04 170.52
  C 10.21 82.82 82.09 13.33 169.08 7.21
  Q 175.36 6.77 189.07 6.76
  Q 393.16 6.73 597.18 6.76
  A 0.58 0.58 0.0 0 1 597.76 7.34
  C 597.73 148.07 596.94 288.94 597.88 429.78
  Q 598.05 454.32 596.51 492.50
  Q 593.70 562.05 569.81 623.68
  C 521.75 747.61 419.52 840.99 300.05 895.25
  Q 299.60 895.45 299.16 895.25
  C 136.31 821.68 2.55 669.92 2.52 483.19
  Q 2.49 336.85 2.50 190.50
  Q 2.50 177.11 3.04 170.52
  Z
  M 177.58 31.28
  C 173.10 31.68 168.31 31.84 164.16 32.45
  C 86.89 43.71 29.64 104.48 24.72 182.73
  Q 24.11 195.43 24.83 207.16
  Q 24.49 210.55 24.49 222.75
  Q 24.51 357.59 24.50 491.96
  A 0.79 0.78 90.0 0 0 25.28 492.75
  Q 78.54 492.76 131.58 492.74
  C 132.40 492.74 133.72 492.39 134.99 492.48
  C 135.65 492.43 136.27 492.75 137.00 492.75
  Q 191.13 492.79 245.25 492.69
  L 355.77 492.71
  L 466.26 492.68
  L 575.83 492.73
  Q 576.33 492.73 576.39 492.23
  Q 577.17 486.06 576.59 481.05
  Q 578.04 472.79 578.04 465.00
  C 578.02 325.12 577.36 185.19 578.03 45.33
  Q 578.06 38.51 577.85 31.98
  A 0.96 0.95 -0.6 0 0 576.90 31.06
  Q 538.90 30.78 502.81 31.32
  Q 500.98 31.34 494.00 31.86
  C 427.71 39.02 374.45 85.84 330.74 131.99
  Q 300.57 163.84 270.68 195.94
  C 251.72 216.31 229.67 237.88 204.54 252.31
  Q 182.60 264.90 158.51 262.04
  C 115.06 256.89 80.10 221.64 77.49 177.50
  C 74.11 120.28 118.11 71.34 175.47 68.73
  C 206.53 67.31 235.91 78.38 258.77 99.88
  C 264.41 105.19 271.47 106.33 277.45 100.45
  C 303.47 74.85 328.31 52.59 357.12 33.39
  A 1.18 1.18 0.0 0 0 357.17 31.46
  C 355.93 30.55 353.99 31.25 352.87 31.25
  Q 331.05 31.24 309.26 31.27
  Q 243.31 30.64 177.58 31.28
  Z
  M 84.75 543.23
  C 83.30 565.61 98.77 586.46 122.10 587.04
  Q 128.61 587.20 134.04 586.47
  C 151.18 584.16 160.86 567.79 167.42 553.03
  Q 167.68 552.46 168.30 552.46
  L 191.37 552.58
  Q 191.97 552.58 192.17 553.14
  L 204.13 585.98
  Q 204.30 586.47 204.82 586.48
  L 215.17 586.73
  Q 215.81 586.75 215.59 586.14
  L 187.90 509.98
  Q 187.65 509.28 186.91 509.28
  L 176.49 509.18
  A 0.49 0.48 -5.8 0 0 176.01 509.76
  C 176.45 511.88 178.98 513.81 178.05 516.02
  Q 171.33 532.04 164.80 548.13
  C 158.45 563.76 148.57 579.50 129.64 580.31
  C 99.49 581.60 92.69 549.63 100.31 527.40
  C 107.91 505.26 135.51 504.48 147.25 522.54
  C 147.76 523.33 152.84 535.65 154.34 534.51
  A 0.64 0.63 -24.3 0 0 154.58 533.89
  Q 152.44 521.92 152.32 509.76
  A 0.30 0.30 0.0 0 0 152.08 509.47
  C 141.86 507.59 129.10 504.96 119.92 505.78
  C 100.35 507.52 85.98 524.04 84.75 543.23
  Z
  M 308.92 552.82
  L 320.47 586.09
  Q 320.82 587.08 321.88 587.08
  L 345.27 586.99
  Q 345.77 586.99 345.77 586.48
  L 345.71 521.24
  A 0.18 0.18 0.0 0 1 346.02 521.11
  Q 375.60 551.83 399.58 587.17
  Q 400.65 588.75 403.78 588.08
  Q 404.20 587.99 404.21 587.55
  Q 404.37 556.99 404.27 526.42
  C 404.25 520.31 405.22 515.56 410.77 513.01
  C 417.18 510.07 428.97 511.01 429.45 520.51
  Q 429.95 530.35 429.72 543.09
  C 429.55 552.75 430.07 564.68 429.45 575.48
  C 429.02 582.82 424.92 584.80 418.31 585.44
  A 0.72 0.72 0.0 0 0 418.31 586.87
  C 424.05 587.47 431.50 586.99 435.56 587.02
  Q 459.81 587.21 484.07 586.92
  A 0.48 0.48 0.0 0 0 484.54 586.52
  Q 484.70 585.67 483.89 585.54
  Q 472.79 583.72 471.01 573.05
  Q 469.34 563.07 469.81 552.99
  Q 469.84 552.53 470.30 552.52
  L 489.70 552.17
  Q 490.25 552.16 490.60 552.59
  L 518.47 586.63
  Q 518.80 587.03 519.31 587.04
  L 544.30 587.22
  A 0.94 0.92 -79.2 0 0 545.18 586.61
  Q 545.63 585.39 544.23 585.14
  C 534.10 583.29 528.13 578.58 520.40 570.65
  Q 494.30 543.89 472.98 513.14
  C 471.04 510.34 470.12 508.43 465.96 509.72
  Q 465.50 509.86 465.50 510.34
  Q 465.51 541.43 465.48 572.52
  C 465.48 582.07 458.49 586.39 449.49 585.17
  Q 440.04 583.88 440.08 573.75
  Q 440.18 549.50 440.24 525.25
  C 440.27 515.45 441.80 512.61 451.80 511.26
  A 0.82 0.81 -31.4 0 0 452.16 509.78
  Q 451.25 509.15 449.75 509.22
  C 436.21 509.77 423.14 508.92 409.25 509.47
  Q 401.11 509.79 386.44 509.15
  A 0.66 0.66 0.0 0 0 385.75 509.81
  L 385.75 511.01
  A 0.58 0.58 0.0 0 0 386.34 511.59
  C 396.28 511.52 399.57 521.26 399.73 529.76
  Q 400.08 548.85 400.13 568.57
  Q 400.13 568.94 399.53 569.03
  C 399.31 569.06 391.61 559.06 390.74 557.99
  Q 371.20 533.94 351.55 509.92
  A 0.93 0.93 0.0 0 0 350.83 509.58
  L 325.55 509.30
  A 1.00 1.00 0.0 0 0 324.93 511.09
  C 325.02 511.16 326.07 511.69 326.14 511.70
  Q 334.66 513.21 341.85 518.11
  A 0.95 0.94 17.9 0 1 342.27 518.91
  Q 341.72 545.12 340.89 571.32
  C 340.77 575.09 340.84 580.28 337.11 582.08
  C 332.49 584.31 329.38 578.17 328.10 574.67
  Q 316.21 542.21 304.47 509.64
  A 0.59 0.58 80.0 0 0 303.92 509.25
  L 293.03 509.25
  A 0.70 0.70 0.0 0 0 292.40 510.27
  C 293.33 512.17 295.74 514.10 294.68 516.47
  C 284.49 539.23 275.74 562.93 266.33 586.08
  A 0.52 0.51 10.4 0 0 266.82 586.79
  L 270.82 586.67
  Q 271.31 586.66 271.48 586.20
  L 283.90 552.85
  Q 284.09 552.35 284.62 552.38
  Q 296.51 553.09 308.39 552.46
  A 0.53 0.53 0.0 0 1 308.92 552.82
  Z
  M 248.00 513.24
  C 258.82 513.70 265.69 513.22 271.13 524.18
  Q 272.96 527.86 274.20 531.81
  Q 274.25 531.98 274.32 532.13
  A 1.04 1.04 0.0 0 0 276.32 531.63
  L 274.37 509.92
  Q 274.34 509.50 273.91 509.50
  L 209.04 509.50
  Q 208.58 509.50 208.54 509.96
  L 206.91 532.44
  A 0.68 0.67 59.2 0 0 208.20 532.77
  C 211.45 525.50 213.28 517.69 221.52 514.63
  C 225.14 513.28 230.39 513.39 234.72 513.19
  Q 236.12 513.13 236.11 514.53
  Q 235.93 541.96 235.99 570.02
  C 236.00 578.80 235.31 585.44 224.88 585.07
  A 0.73 0.72 75.1 0 0 224.24 586.18
  C 224.98 587.36 255.67 586.80 258.98 586.37
  A 0.36 0.35 -42.8 0 0 259.01 585.67
  C 252.33 584.30 247.55 584.32 247.01 575.90
  C 245.77 556.53 247.03 534.98 246.43 514.79
  A 1.51 1.51 0.0 0 1 248.00 513.24
  Z
  M 134.72 750.29
  C 166.45 785.08 204.53 815.59 244.62 840.16
  C 244.86 840.30 244.98 840.25 245.25 840.25
  Q 245.47 840.74 245.81 840.95
  Q 272.08 856.90 299.50 870.04
  A 2.48 2.45 44.7 0 0 301.63 870.04
  Q 329.55 856.70 356.05 840.53
  Q 357.90 839.14 359.62 838.07
  Q 418.17 801.72 465.21 751.58
  Q 525.80 686.95 555.86 603.77
  Q 556.05 603.25 555.49 603.25
  L 467.02 603.25
  Q 466.87 603.25 466.76 603.37
  Q 466.64 603.50 466.50 603.55
  Q 466.13 603.20 465.75 603.20
  Q 411.89 603.25 358.03 603.25
  A 5.42 4.94 -47.7 0 0 357.07 603.34
  L 356.00 603.55
  Q 355.28 603.25 355.00 603.25
  Q 300.53 603.25 246.06 603.25
  Q 246.02 603.57 245.26 603.54
  C 244.68 603.49 244.25 603.25 243.57 603.25
  Q 189.27 603.25 135.02 603.25
  L 46.08 603.25
  A 0.69 0.68 -9.6 0 0 45.43 604.16
  Q 75.00 686.08 134.72 750.29
  Z"
/>
<path fill="#1d1d1b" d="
  M 309.26 31.27
  L 306.17 32.25
  A 0.70 0.69 52.1 0 0 306.02 33.50
  Q 308.83 35.25 312.25 35.12
  Q 323.14 34.71 334.04 34.68
  C 336.47 34.67 338.90 34.34 341.57 35.05
  C 349.12 37.03 338.79 42.98 337.10 43.94
  C 333.49 45.97 330.97 48.99 327.30 51.45
  C 323.34 54.10 320.55 57.87 316.87 60.53
  C 310.38 65.21 304.09 71.70 298.95 76.05
  Q 287.20 85.99 275.24 97.74
  C 272.41 100.52 267.68 102.51 264.04 99.89
  C 257.64 95.27 251.27 88.95 245.65 85.10
  Q 220.46 67.87 189.50 65.31
  A 0.94 0.93 -19.8 0 1 188.92 65.04
  L 188.65 64.77
  Q 188.32 64.45 187.87 64.44
  Q 184.16 64.35 180.45 63.95
  C 176.32 63.51 172.34 65.14 168.22 65.53
  C 149.85 67.27 132.70 74.72 118.09 85.84
  C 110.64 91.51 104.01 96.38 98.69 104.29
  C 96.23 107.96 92.81 110.95 90.82 115.31
  Q 90.67 115.64 90.33 115.76
  L 89.83 115.95
  Q 89.43 116.10 89.25 116.49
  C 87.40 120.56 84.58 124.17 83.04 128.00
  Q 79.26 137.35 76.66 147.09
  C 75.07 153.08 74.70 159.67 73.85 166.07
  C 72.84 173.61 74.31 183.91 75.58 189.72
  C 80.06 210.30 90.32 226.88 105.57 241.18
  C 121.92 256.50 141.31 263.96 163.49 266.25
  C 170.69 267.00 180.37 265.69 187.48 263.18
  C 204.54 257.15 218.93 247.74 232.78 236.27
  Q 258.28 215.17 280.06 190.32
  C 289.71 179.31 300.47 168.97 309.96 157.52
  C 314.70 151.80 320.57 147.07 325.75 141.42
  C 339.99 125.86 352.32 114.35 366.14 101.27
  C 377.32 90.69 389.82 80.97 401.41 72.67
  C 428.75 53.09 459.63 39.53 494.60 35.52
  Q 495.20 35.45 495.24 34.85
  L 495.34 32.99
  Q 495.36 32.63 495.05 32.45
  L 494.00 31.86
  Q 500.98 31.34 502.81 31.32
  Q 538.90 30.78 576.90 31.06
  A 0.96 0.95 -0.6 0 1 577.85 31.98
  Q 578.06 38.51 578.03 45.33
  C 577.36 185.19 578.02 325.12 578.04 465.00
  Q 578.04 472.79 576.59 481.05
  Q 575.07 460.93 573.00 452.26
  Q 563.20 411.33 534.80 381.46
  Q 506.58 351.78 466.26 340.13
  Q 447.88 334.96 430.75 334.47
  Q 411.77 333.93 356.46 334.31
  Q 356.10 334.31 356.02 334.66
  Q 355.95 334.99 355.76 335.00
  Q 355.80 334.79 355.63 334.53
  Q 355.35 334.10 354.84 334.09
  L 245.50 333.71
  Q 245.47 333.72 245.44 333.72
  Q 204.50 333.88 163.56 333.39
  Q 150.84 333.24 135.00 330.03
  Q 135.20 330.93 134.83 330.01
  Q 134.76 329.83 134.58 329.79
  C 80.72 316.81 38.02 274.35 27.35 219.54
  Q 26.17 213.47 24.83 207.16
  Q 24.11 195.43 24.72 182.73
  C 27.90 182.80 26.22 178.96 27.28 176.97
  Q 27.50 176.54 27.59 176.07
  C 29.02 168.38 30.88 161.94 33.11 151.38
  C 37.13 132.44 46.20 114.62 57.15 99.33
  C 60.72 94.33 65.88 88.80 70.08 83.33
  C 73.99 78.22 81.79 72.50 87.84 67.61
  C 104.88 53.86 126.10 44.41 146.34 39.63
  Q 146.55 39.58 151.60 38.23
  C 155.36 37.22 159.30 37.19 162.86 36.41
  C 167.87 35.32 172.39 35.72 177.25 35.11
  Q 177.70 35.06 177.69 34.60
  L 177.58 31.28
  Q 243.31 30.64 309.26 31.27
  Z
  M 395.81 193.81
  C 407.01 181.15 406.49 162.24 392.97 151.29
  A 1.12 1.12 0.0 0 0 391.32 151.56
  C 389.84 153.90 386.97 155.68 385.32 157.28
  Q 367.55 174.63 350.39 192.60
  Q 350.00 193.01 350.24 193.54
  Q 351.01 195.24 352.82 195.82
  Q 353.27 195.96 353.45 196.39
  Q 354.16 198.16 355.10 198.92
  C 368.42 209.59 385.07 205.97 395.81 193.81
  Z"
/>
<path fill="#0d0d0c" d="
  M 494.00 31.86
  L 495.05 32.45
  Q 495.36 32.63 495.34 32.99
  L 495.24 34.85
  Q 495.20 35.45 494.60 35.52
  C 459.63 39.53 428.75 53.09 401.41 72.67
  C 389.82 80.97 377.32 90.69 366.14 101.27
  C 352.32 114.35 339.99 125.86 325.75 141.42
  C 320.57 147.07 314.70 151.80 309.96 157.52
  C 300.47 168.97 289.71 179.31 280.06 190.32
  Q 258.28 215.17 232.78 236.27
  C 218.93 247.74 204.54 257.15 187.48 263.18
  C 180.37 265.69 170.69 267.00 163.49 266.25
  C 141.31 263.96 121.92 256.50 105.57 241.18
  C 90.32 226.88 80.06 210.30 75.58 189.72
  C 74.31 183.91 72.84 173.61 73.85 166.07
  C 74.70 159.67 75.07 153.08 76.66 147.09
  Q 79.26 137.35 83.04 128.00
  C 84.58 124.17 87.40 120.56 89.25 116.49
  Q 89.43 116.10 89.83 115.95
  L 90.33 115.76
  Q 90.67 115.64 90.82 115.31
  C 92.81 110.95 96.23 107.96 98.69 104.29
  C 104.01 96.38 110.64 91.51 118.09 85.84
  C 132.70 74.72 149.85 67.27 168.22 65.53
  C 172.34 65.14 176.32 63.51 180.45 63.95
  Q 184.16 64.35 187.87 64.44
  Q 188.32 64.45 188.65 64.77
  L 188.92 65.04
  A 0.94 0.93 -19.8 0 0 189.50 65.31
  Q 220.46 67.87 245.65 85.10
  C 251.27 88.95 257.64 95.27 264.04 99.89
  C 267.68 102.51 272.41 100.52 275.24 97.74
  Q 287.20 85.99 298.95 76.05
  C 304.09 71.70 310.38 65.21 316.87 60.53
  C 320.55 57.87 323.34 54.10 327.30 51.45
  C 330.97 48.99 333.49 45.97 337.10 43.94
  C 338.79 42.98 349.12 37.03 341.57 35.05
  C 338.90 34.34 336.47 34.67 334.04 34.68
  Q 323.14 34.71 312.25 35.12
  Q 308.83 35.25 306.02 33.50
  A 0.70 0.69 52.1 0 1 306.17 32.25
  L 309.26 31.27
  Q 331.05 31.24 352.87 31.25
  C 353.99 31.25 355.93 30.55 357.17 31.46
  A 1.18 1.18 0.0 0 1 357.12 33.39
  C 328.31 52.59 303.47 74.85 277.45 100.45
  C 271.47 106.33 264.41 105.19 258.77 99.88
  C 235.91 78.38 206.53 67.31 175.47 68.73
  C 118.11 71.34 74.11 120.28 77.49 177.50
  C 80.10 221.64 115.06 256.89 158.51 262.04
  Q 182.60 264.90 204.54 252.31
  C 229.67 237.88 251.72 216.31 270.68 195.94
  Q 300.57 163.84 330.74 131.99
  C 374.45 85.84 427.71 39.02 494.00 31.86
  Z"
/>
<path fill="#0d0d0c" d="
  M 177.58 31.28
  L 177.69 34.60
  Q 177.70 35.06 177.25 35.11
  C 172.39 35.72 167.87 35.32 162.86 36.41
  C 159.30 37.19 155.36 37.22 151.60 38.23
  Q 146.55 39.58 146.34 39.63
  C 126.10 44.41 104.88 53.86 87.84 67.61
  C 81.79 72.50 73.99 78.22 70.08 83.33
  C 65.88 88.80 60.72 94.33 57.15 99.33
  C 46.20 114.62 37.13 132.44 33.11 151.38
  C 30.88 161.94 29.02 168.38 27.59 176.07
  Q 27.50 176.54 27.28 176.97
  C 26.22 178.96 27.90 182.80 24.72 182.73
  C 29.64 104.48 86.89 43.71 164.16 32.45
  C 168.31 31.84 173.10 31.68 177.58 31.28
  Z"
/>
<path fill="#0d0d0c" d="
  M 395.81 193.81
  C 385.07 205.97 368.42 209.59 355.10 198.92
  Q 354.16 198.16 353.45 196.39
  Q 353.27 195.96 352.82 195.82
  Q 351.01 195.24 350.24 193.54
  Q 350.00 193.01 350.39 192.60
  Q 367.55 174.63 385.32 157.28
  C 386.97 155.68 389.84 153.90 391.32 151.56
  A 1.12 1.12 0.0 0 1 392.97 151.29
  C 406.49 162.24 407.01 181.15 395.81 193.81
  Z
  M 392.31 154.33
  L 353.39 193.20
  Q 352.80 193.79 353.44 194.32
  C 381.84 217.76 416.84 180.58 392.44 154.33
  A 0.09 0.09 0.0 0 0 392.31 154.33
  Z"
/>
<path fill="#ffffff" d="
  M 392.31 154.33
  A 0.09 0.09 0.0 0 1 392.44 154.33
  C 416.84 180.58 381.84 217.76 353.44 194.32
  Q 352.80 193.79 353.39 193.20
  L 392.31 154.33
  Z"
/>
<path fill="#e30613" d="
  M 24.83 207.16
  Q 26.17 213.47 27.35 219.54
  C 38.02 274.35 80.72 316.81 134.58 329.79
  Q 134.76 329.83 134.83 330.01
  Q 135.20 330.93 135.00 330.03
  L 134.99 492.48
  C 133.72 492.39 132.40 492.74 131.58 492.74
  Q 78.54 492.76 25.28 492.75
  A 0.79 0.78 -90.0 0 1 24.50 491.96
  Q 24.51 357.59 24.49 222.75
  Q 24.49 210.55 24.83 207.16
  Z"
/>
<path fill="#009fe3" d="
  M 245.50 333.71
  L 245.25 492.69
  Q 191.13 492.79 137.00 492.75
  C 136.27 492.75 135.65 492.43 134.99 492.48
  L 135.00 330.03
  Q 150.84 333.24 163.56 333.39
  Q 204.50 333.88 245.44 333.72
  Q 245.47 333.72 245.50 333.71
  Z"
/>
<path fill="#e30613" d="
  M 355.76 335.00
  L 355.77 492.71
  L 245.25 492.69
  L 245.50 333.71
  L 354.84 334.09
  Q 355.35 334.10 355.63 334.53
  Q 355.80 334.79 355.76 335.00
  Z"
/>
<path fill="#009fe3" d="
  M 466.26 340.13
  L 466.26 492.68
  L 355.77 492.71
  L 355.76 335.00
  Q 355.95 334.99 356.02 334.66
  Q 356.10 334.31 356.46 334.31
  Q 411.77 333.93 430.75 334.47
  Q 447.88 334.96 466.26 340.13
  Z"
/>
<path fill="#e30613" d="
  M 576.59 481.05
  Q 577.17 486.06 576.39 492.23
  Q 576.33 492.73 575.83 492.73
  L 466.26 492.68
  L 466.26 340.13
  Q 506.58 351.78 534.80 381.46
  Q 563.20 411.33 573.00 452.26
  Q 575.07 460.93 576.59 481.05
  Z"
/>
<path fill="#0d0d0c" d="
  M 122.10 587.04
  C 98.77 586.46 83.30 565.61 84.75 543.23
  C 85.98 524.04 100.35 507.52 119.92 505.78
  C 129.10 504.96 141.86 507.59 152.08 509.47
  A 0.30 0.30 0.0 0 1 152.32 509.76
  Q 152.44 521.92 154.58 533.89
  A 0.64 0.63 -24.3 0 1 154.34 534.51
  C 152.84 535.65 147.76 523.33 147.25 522.54
  C 135.51 504.48 107.91 505.26 100.31 527.40
  C 92.69 549.63 99.49 581.60 129.64 580.31
  C 148.57 579.50 158.45 563.76 164.80 548.13
  Q 171.33 532.04 178.05 516.02
  C 178.98 513.81 176.45 511.88 176.01 509.76
  A 0.49 0.48 -5.8 0 1 176.49 509.18
  L 186.91 509.28
  Q 187.65 509.28 187.90 509.98
  L 215.59 586.14
  Q 215.81 586.75 215.17 586.73
  L 204.82 586.48
  Q 204.30 586.47 204.13 585.98
  L 192.17 553.14
  Q 191.97 552.58 191.37 552.58
  L 168.30 552.46
  Q 167.68 552.46 167.42 553.03
  C 160.86 567.79 151.18 584.16 134.04 586.47
  Q 128.61 587.20 122.10 587.04
  Z
  M 169.13 548.76
  L 190.01 548.82
  Q 190.78 548.82 190.49 548.11
  Q 185.28 534.89 181.18 521.24
  Q 180.37 518.55 179.36 521.17
  L 168.86 548.37
  A 0.29 0.29 0.0 0 0 169.13 548.76
  Z"
/>
<path fill="#0d0d0c" d="
  M 308.92 552.82
  A 0.53 0.53 0.0 0 0 308.39 552.46
  Q 296.51 553.09 284.62 552.38
  Q 284.09 552.35 283.90 552.85
  L 271.48 586.20
  Q 271.31 586.66 270.82 586.67
  L 266.82 586.79
  A 0.52 0.51 10.4 0 1 266.33 586.08
  C 275.74 562.93 284.49 539.23 294.68 516.47
  C 295.74 514.10 293.33 512.17 292.40 510.27
  A 0.70 0.70 0.0 0 1 293.03 509.25
  L 303.92 509.25
  A 0.59 0.58 80.0 0 1 304.47 509.64
  Q 316.21 542.21 328.10 574.67
  C 329.38 578.17 332.49 584.31 337.11 582.08
  C 340.84 580.28 340.77 575.09 340.89 571.32
  Q 341.72 545.12 342.27 518.91
  A 0.95 0.94 17.9 0 0 341.85 518.11
  Q 334.66 513.21 326.14 511.70
  C 326.07 511.69 325.02 511.16 324.93 511.09
  A 1.00 1.00 0.0 0 1 325.55 509.30
  L 350.83 509.58
  A 0.93 0.93 0.0 0 1 351.55 509.92
  Q 371.20 533.94 390.74 557.99
  C 391.61 559.06 399.31 569.06 399.53 569.03
  Q 400.13 568.94 400.13 568.57
  Q 400.08 548.85 399.73 529.76
  C 399.57 521.26 396.28 511.52 386.34 511.59
  A 0.58 0.58 0.0 0 1 385.75 511.01
  L 385.75 509.81
  A 0.66 0.66 0.0 0 1 386.44 509.15
  Q 401.11 509.79 409.25 509.47
  C 423.14 508.92 436.21 509.77 449.75 509.22
  Q 451.25 509.15 452.16 509.78
  A 0.82 0.81 -31.4 0 1 451.80 511.26
  C 441.80 512.61 440.27 515.45 440.24 525.25
  Q 440.18 549.50 440.08 573.75
  Q 440.04 583.88 449.49 585.17
  C 458.49 586.39 465.48 582.07 465.48 572.52
  Q 465.51 541.43 465.50 510.34
  Q 465.50 509.86 465.96 509.72
  C 470.12 508.43 471.04 510.34 472.98 513.14
  Q 494.30 543.89 520.40 570.65
  C 528.13 578.58 534.10 583.29 544.23 585.14
  Q 545.63 585.39 545.18 586.61
  A 0.94 0.92 -79.2 0 1 544.30 587.22
  L 519.31 587.04
  Q 518.80 587.03 518.47 586.63
  L 490.60 552.59
  Q 490.25 552.16 489.70 552.17
  L 470.30 552.52
  Q 469.84 552.53 469.81 552.99
  Q 469.34 563.07 471.01 573.05
  Q 472.79 583.72 483.89 585.54
  Q 484.70 585.67 484.54 586.52
  A 0.48 0.48 0.0 0 1 484.07 586.92
  Q 459.81 587.21 435.56 587.02
  C 431.50 586.99 424.05 587.47 418.31 586.87
  A 0.72 0.72 0.0 0 1 418.31 585.44
  C 424.92 584.80 429.02 582.82 429.45 575.48
  C 430.07 564.68 429.55 552.75 429.72 543.09
  Q 429.95 530.35 429.45 520.51
  C 428.97 511.01 417.18 510.07 410.77 513.01
  C 405.22 515.56 404.25 520.31 404.27 526.42
  Q 404.37 556.99 404.21 587.55
  Q 404.20 587.99 403.78 588.08
  Q 400.65 588.75 399.58 587.17
  Q 375.60 551.83 346.02 521.11
  A 0.18 0.18 0.0 0 0 345.71 521.24
  L 345.77 586.48
  Q 345.77 586.99 345.27 586.99
  L 321.88 587.08
  Q 320.82 587.08 320.47 586.09
  L 308.92 552.82
  Z
  M 347.79 516.98
  C 352.71 522.42 357.34 527.15 362.22 533.32
  C 365.80 537.85 370.15 542.20 373.50 546.31
  Q 376.38 549.84 379.32 553.33
  C 382.24 556.80 385.66 562.43 389.94 566.30
  Q 390.34 566.67 390.67 566.23
  Q 391.09 565.68 391.03 564.94
  Q 391.00 564.47 390.69 564.11
  Q 385.92 558.54 381.40 552.77
  C 379.71 550.61 377.29 548.42 375.50 545.90
  C 369.33 537.20 361.67 529.24 354.54 521.30
  A 1.17 1.16 -63.2 0 1 354.25 520.41
  C 354.41 518.76 350.99 515.19 349.28 513.41
  Q 348.96 513.08 348.50 513.07
  L 342.32 513.00
  A 0.83 0.82 65.8 0 0 341.77 514.45
  Q 344.05 516.43 347.02 516.61
  A 1.14 1.14 0.0 0 1 347.79 516.98
  Z
  M 470.04 517.04
  C 469.72 521.95 473.38 523.79 475.70 527.62
  Q 477.20 530.09 478.54 531.75
  Q 485.20 539.96 491.73 548.27
  C 495.41 552.97 500.09 556.93 503.20 562.01
  C 507.39 568.88 513.75 574.77 518.97 580.85
  C 520.79 582.96 523.13 583.62 525.38 581.95
  A 0.92 0.91 42.2 0 0 525.30 580.43
  C 524.23 579.78 519.68 575.51 519.26 575.50
  Q 518.76 575.48 518.49 575.06
  C 516.32 571.68 514.39 570.44 512.48 567.96
  Q 510.56 565.47 510.02 564.99
  Q 498.70 554.86 493.48 547.52
  C 487.70 539.42 481.31 532.64 476.16 524.44
  Q 474.95 522.50 473.05 521.12
  Q 472.68 520.85 472.60 520.40
  Q 472.23 518.27 470.69 516.79
  A 0.39 0.38 -66.0 0 0 470.04 517.04
  Z
  M 285.32 548.41
  A 0.30 0.30 0.0 0 0 285.60 548.82
  L 307.04 549.19
  A 0.30 0.30 0.0 0 0 307.33 548.79
  L 297.10 519.96
  A 0.30 0.30 0.0 0 0 296.54 519.95
  L 285.32 548.41
  Z
  M 487.00 549.08
  A 0.28 0.28 0.0 0 0 487.22 548.63
  L 470.37 527.18
  Q 470.08 526.81 469.91 527.25
  C 469.10 529.27 469.73 531.47 469.74 533.08
  Q 469.81 540.74 469.69 548.52
  Q 469.68 549.00 470.16 549.01
  L 487.00 549.08
  Z"
/>
<path fill="#0d0d0c" d="
  M 271.13 524.18
  C 265.69 513.22 258.82 513.70 248.00 513.24
  A 1.51 1.51 0.0 0 0 246.43 514.79
  C 247.03 534.98 245.77 556.53 247.01 575.90
  C 247.55 584.32 252.33 584.30 259.01 585.67
  A 0.36 0.35 -42.8 0 1 258.98 586.37
  C 255.67 586.80 224.98 587.36 224.24 586.18
  A 0.73 0.72 75.1 0 1 224.88 585.07
  C 235.31 585.44 236.00 578.80 235.99 570.02
  Q 235.93 541.96 236.11 514.53
  Q 236.12 513.13 234.72 513.19
  C 230.39 513.39 225.14 513.28 221.52 514.63
  C 213.28 517.69 211.45 525.50 208.20 532.77
  A 0.68 0.67 59.2 0 1 206.91 532.44
  L 208.54 509.96
  Q 208.58 509.50 209.04 509.50
  L 273.91 509.50
  Q 274.34 509.50 274.37 509.92
  L 276.32 531.63
  A 1.04 1.04 0.0 0 1 274.32 532.13
  Q 274.25 531.98 274.20 531.81
  Q 272.96 527.86 271.13 524.18
  Z"
/>
<path fill="#1d1d1b" d="
  M 347.02 516.61
  Q 344.05 516.43 341.77 514.45
  A 0.83 0.82 65.8 0 1 342.32 513.00
  L 348.50 513.07
  Q 348.96 513.08 349.28 513.41
  C 350.99 515.19 354.41 518.76 354.25 520.41
  A 1.17 1.16 -63.2 0 0 354.54 521.30
  C 361.67 529.24 369.33 537.20 375.50 545.90
  C 377.29 548.42 379.71 550.61 381.40 552.77
  Q 385.92 558.54 390.69 564.11
  Q 391.00 564.47 391.03 564.94
  Q 391.09 565.68 390.67 566.23
  Q 390.34 566.67 389.94 566.30
  C 385.66 562.43 382.24 556.80 379.32 553.33
  Q 376.38 549.84 373.50 546.31
  C 370.15 542.20 365.80 537.85 362.22 533.32
  C 357.34 527.15 352.71 522.42 347.79 516.98
  A 1.14 1.14 0.0 0 0 347.02 516.61
  Z"
/>
<path fill="#1d1d1b" d="
  M 475.70 527.62
  C 473.38 523.79 469.72 521.95 470.04 517.04
  A 0.39 0.38 -66.0 0 1 470.69 516.79
  Q 472.23 518.27 472.60 520.40
  Q 472.68 520.85 473.05 521.12
  Q 474.95 522.50 476.16 524.44
  C 481.31 532.64 487.70 539.42 493.48 547.52
  Q 498.70 554.86 510.02 564.99
  Q 510.56 565.47 512.48 567.96
  C 514.39 570.44 516.32 571.68 518.49 575.06
  Q 518.76 575.48 519.26 575.50
  C 519.68 575.51 524.23 579.78 525.30 580.43
  A 0.92 0.91 42.2 0 1 525.38 581.95
  C 523.13 583.62 520.79 582.96 518.97 580.85
  C 513.75 574.77 507.39 568.88 503.20 562.01
  C 500.09 556.93 495.41 552.97 491.73 548.27
  Q 485.20 539.96 478.54 531.75
  Q 477.20 530.09 475.70 527.62
  Z"
/>
<path fill="#ffffff" d="
  M 190.01 548.82
  L 169.13 548.76
  A 0.29 0.29 0.0 0 1 168.86 548.37
  L 179.36 521.17
  Q 180.37 518.55 181.18 521.24
  Q 185.28 534.89 190.49 548.11
  Q 190.78 548.82 190.01 548.82
  Z"
/>
<path fill="#ffffff" d="
  M 285.32 548.41
  L 296.54 519.95
  A 0.30 0.30 0.0 0 1 297.10 519.96
  L 307.33 548.79
  A 0.30 0.30 0.0 0 1 307.04 549.19
  L 285.60 548.82
  A 0.30 0.30 0.0 0 1 285.32 548.41
  Z"
/>
<path fill="#ffffff" d="
  M 487.00 549.08
  L 470.16 549.01
  Q 469.68 549.00 469.69 548.52
  Q 469.81 540.74 469.74 533.08
  C 469.73 531.47 469.10 529.27 469.91 527.25
  Q 470.08 526.81 470.37 527.18
  L 487.22 548.63
  A 0.28 0.28 0.0 0 1 487.00 549.08
  Z"
/>
<path fill="#e30613" d="
  M 135.02 603.25
  Q 134.94 674.10 135.06 744.86
  C 135.06 746.66 135.60 748.20 134.72 750.29
  Q 75.00 686.08 45.43 604.16
  A 0.69 0.68 -9.6 0 1 46.08 603.25
  L 135.02 603.25
  Z"
/>
<path fill="#009fe3" d="
  M 135.02 603.25
  Q 189.27 603.25 243.57 603.25
  C 244.25 603.25 244.68 603.49 245.26 603.54
  L 245.25 840.25
  C 244.98 840.25 244.86 840.30 244.62 840.16
  C 204.53 815.59 166.45 785.08 134.72 750.29
  C 135.60 748.20 135.06 746.66 135.06 744.86
  Q 134.94 674.10 135.02 603.25
  Z"
/>
<path fill="#e30613" d="
  M 356.00 603.55
  Q 355.70 603.89 355.70 604.25
  Q 355.74 716.50 355.76 828.75
  C 355.76 832.10 356.12 836.52 356.05 840.53
  Q 329.55 856.70 301.63 870.04
  A 2.48 2.45 44.7 0 1 299.50 870.04
  Q 272.08 856.90 245.81 840.95
  Q 245.47 840.74 245.25 840.25
  L 245.26 603.54
  Q 246.02 603.57 246.06 603.25
  Q 300.53 603.25 355.00 603.25
  Q 355.28 603.25 356.00 603.55
  Z"
/>
<path fill="#009fe3" d="
  M 466.50 603.55
  Q 466.20 603.89 466.20 604.25
  Q 466.25 675.62 466.25 747.00
  Q 466.24 748.36 465.21 751.58
  Q 418.17 801.72 359.62 838.07
  Q 357.90 839.14 356.05 840.53
  C 356.12 836.52 355.76 832.10 355.76 828.75
  Q 355.74 716.50 355.70 604.25
  Q 355.70 603.89 356.00 603.55
  L 357.07 603.34
  A 5.42 4.94 -47.7 0 1 358.03 603.25
  Q 411.89 603.25 465.75 603.20
  Q 466.13 603.20 466.50 603.55
  Z"
/>
<path fill="#e30613" d="
  M 465.21 751.58
  Q 466.24 748.36 466.25 747.00
  Q 466.25 675.62 466.20 604.25
  Q 466.20 603.89 466.50 603.55
  Q 466.64 603.50 466.76 603.37
  Q 466.87 603.25 467.02 603.25
  L 555.49 603.25
  Q 556.05 603.25 555.86 603.77
  Q 525.80 686.95 465.21 751.58
  Z"
/>
</svg>
