<?xml version="1.0" encoding="UTF-8"?>
<!DOCTYPE svg PUBLIC "-//W3C//DTD SVG 1.1//EN" "http://www.w3.org/Graphics/SVG/1.1/DTD/svg11.dtd">
<!-- Creator: CorelDRAW 2019 (64-Bit) -->
<svg xmlns="http://www.w3.org/2000/svg" xml:space="preserve" width="147.055mm" height="259.983mm" version="1.1" style="shape-rendering:geometricPrecision; text-rendering:geometricPrecision; image-rendering:optimizeQuality; fill-rule:evenodd; clip-rule:evenodd"
viewBox="0 0 146.8812 259.6767"
 xmlns:xlink="http://www.w3.org/1999/xlink"
 xmlns:xodm="http://www.corel.com/coreldraw/odm/2003">
 <defs>
  <style type="text/css">
   <![CDATA[
    .fil2 {fill:#8AC2ED}
    .fil3 {fill:#B09120}
    .fil0 {fill:#E4254E}
    .fil1 {fill:white}
   ]]>
  </style>
 </defs>
 <g id="Layer_x0020_1">
  <metadata id="CorelCorpID_0Corel-Layer"/>
  <g id="_900106192">
   <path class="fil0" d="M77.6888 128.1881c1.2327,-0.208 2.4861,-0.105 3.7278,-0.0656 -1.6566,4.5638 -0.9649,9.8758 1.8613,13.8177 2.2617,3.2496 5.8775,5.2994 9.6432,6.4328 -2.7829,16.1488 -5.6092,32.2863 -8.4098,48.4322 -3.6653,20.9546 -7.2402,41.9284 -10.9629,62.8716 -0.3022,-1.2708 -0.5101,-2.5598 -0.729,-3.8455 -6.2173,-35.7316 -12.4635,-71.4575 -18.6665,-107.192 3.4396,-1.0982 6.7616,-2.9086 9.0291,-5.7544 2.8438,-3.4665 3.9385,-8.1938 3.077,-12.533 1.3342,-0.498 2.7374,-0.8312 4.1696,-0.7988 0.8495,0.0486 1.6969,0.1478 2.5493,0.1762 1.6425,-0.2904 3.0655,-1.2631 4.7108,-1.5413z"/>
   <path class="fil0" d="M73.7281 53.791l-5.8495 0c-0.0105,-10.553 -0.4084,-23.5801 -2.4445,-24.4421 -2.461,-1.0423 -5.0125,0.4022 -3.2013,4.0016 1.9926,3.9618 0.8938,6.7642 -3.0382,7.1574 -3.203,0.321 -7.5677,-0.3354 -9.7703,-7.958 -2.6374,-9.1229 3.4129,-11.3609 13.2649,-20.6786 8.7128,-8.2447 11.0389,-11.8712 11.0389,-11.8712 0,0 2.326,3.6265 11.0388,11.8694 9.8521,9.3213 15.9016,11.5575 13.265,20.6804 -2.2042,7.6226 -6.5681,8.279 -9.7691,7.9598 -3.9333,-0.3931 -5.0315,-3.1973 -3.0386,-7.1591 1.8104,-3.5994 -0.7412,-5.0456 -3.2024,-4.0016 -2.0364,0.8621 -2.4322,13.8891 -2.4443,24.4439l-5.8494 -0.0018z"/>
   <path class="fil0" d="M7.9438 86.3384c-1.3813,-1.1356 -2.2366,-2.8048 -3.2846,-3.9256 -1.2252,-1.3089 -2.7556,-2.3824 -4.6592,-2.405 1.9036,-0.0233 3.434,-1.0968 4.6592,-2.4042 1.0481,-1.1217 1.9034,-2.7915 3.2846,-3.9258 0.865,-0.7863 2.0026,-1.2623 3.2502,-1.2623 2.0611,0 3.8243,1.302 4.5471,3.1432 1.0113,-0.0037 4.1834,-0.0217 5.9664,-0.1353 2.1385,-0.1352 3.7447,-0.1352 1.2039,-2.0287l-1.2257 -0.9287c-1.6829,-1.0423 -3.025,-2.6021 -3.8166,-4.4614 -0.1114,-0.2542 -0.2142,-0.5175 -0.31,-0.7934 -0.1316,-0.3806 -0.2283,-0.7719 -0.2916,-1.1722 -0.1199,-0.6203 -0.184,-1.2623 -0.1846,-1.9169 0.0006,-5.2115 4.0018,-9.4673 9.0363,-9.7361 0.6339,-0.0594 1.282,-0.036 1.9356,0.0794 0.2305,0.0415 0.4546,0.0884 0.6755,0.1425 0.9813,0.2452 1.8894,0.6257 2.965,1.246l0.2663 0.1767c4.7908,3.0548 7.0301,9.1157 7.0301,9.1157 0,0 -1.1566,-0.6204 -6.1841,-1.6302 -3.7349,-0.7483 -6.0629,1.0098 -5.4825,4.6003 0.8721,5.4027 8.0247,6.766 8.0247,6.766l12.5359 0 0 10.25 -12.5359 0c0,0 -7.1527,1.363 -8.0241,6.7646 -0.5804,3.5904 1.7486,5.3513 5.4827,4.6005 5.028,-1.0101 6.1846,-1.6301 6.1846,-1.6301 0,0 -2.2394,6.0616 -7.03,9.1166l-0.2657 0.1747c-1.0776,0.6214 -1.9843,1.0016 -2.9655,1.2454 -0.221,0.0555 -0.4465,0.1028 -0.6748,0.1437 -0.6544,0.1162 -1.3033,0.1387 -1.9371,0.0803 -5.0346,-0.2699 -9.0357,-4.5253 -9.0357,-9.7372 0,-0.6566 0.0634,-1.2983 0.1847,-1.9182 0.0633,-0.3986 0.1597,-0.7909 0.291,-1.1721 0.0964,-0.2768 0.1986,-0.5389 0.31,-0.791 0.7924,-1.8612 2.1336,-3.42 3.8164,-4.4626l1.2264 -0.9283c2.5403,-1.895 0.9356,-1.8942 -1.2038,-2.0295 -1.7822,-0.1134 -4.9551,-0.1323 -5.9671,-0.1359 -0.7221,1.8428 -2.4852,3.1432 -4.5464,3.1439 -1.2482,0.0027 -2.388,-0.474 -3.2516,-1.2589z"/>
   <path class="fil0" d="M138.9375 86.3392c1.3805,-1.1356 2.2363,-2.8056 3.2845,-3.9264 1.2252,-1.3075 2.7556,-2.3817 4.6592,-2.405 -1.9036,-0.024 -3.4333,-1.0968 -4.6592,-2.4042 -1.0475,-1.1199 -1.9041,-2.7915 -3.2845,-3.9258 -0.8651,-0.7863 -2.0034,-1.2623 -3.2503,-1.2623 -2.0618,0 -3.8249,1.302 -4.5469,3.1432 -1.0117,-0.0037 -4.1851,-0.0235 -5.9659,-0.1353 -2.1407,-0.1352 -3.7454,-0.1352 -1.2046,-2.0305l1.2257 -0.9269c1.6836,-1.0423 3.0255,-2.6021 3.8158,-4.4631 0.1122,-0.2507 0.2143,-0.514 0.3108,-0.7917 0.1308,-0.3788 0.228,-0.7719 0.2909,-1.1722 0.1219,-0.6186 0.1853,-1.2605 0.1853,-1.9169 -0.0007,-5.2115 -4.0018,-9.4691 -9.0363,-9.7378 -0.6347,-0.0577 -1.282,-0.0343 -1.937,0.0811 -0.2291,0.0415 -0.4531,0.0884 -0.6756,0.1425 -0.9812,0.2452 -1.8885,0.6257 -2.965,1.246l-0.2648 0.1767c-4.7914,3.053 -7.0315,9.1139 -7.0315,9.1139 0,0 1.1565,-0.6186 6.1847,-1.6302 3.7348,-0.7484 6.0628,1.0116 5.4839,4.6021 -0.8727,5.4009 -8.0248,6.7642 -8.0248,6.7642l-12.5364 0 0.0007 10.2496 12.5357 0.0015c0,0 7.1536,1.3631 8.0248,6.7645 0.5789,3.5905 -1.7491,5.3502 -5.4831,4.5998 -5.0282,-1.0108 -6.1841,-1.6293 -6.1841,-1.6293 0,0 2.2393,6.0609 7.0307,9.1152l0.265 0.1761c1.077,0.6206 1.9844,1.0016 2.9657,1.2468 0.221,0.0535 0.4465,0.1021 0.6755,0.143 0.6536,0.1162 1.3024,0.1394 1.9364,0.0803 5.0344,-0.2699 9.0355,-4.5246 9.0361,-9.7372 -0.0006,-0.6566 -0.064,-1.299 -0.1852,-1.9182 -0.0642,-0.3986 -0.1607,-0.7904 -0.2916,-1.1714 -0.0953,-0.2768 -0.1987,-0.5396 -0.3092,-0.7917 -0.7919,-1.8605 -2.1338,-3.42 -3.8158,-4.4618l-1.2266 -0.9291c-2.5407,-1.8935 -0.936,-1.8942 1.2039,-2.028 1.7816,-0.1135 4.9549,-0.1318 5.9673,-0.136 0.7225,1.8421 2.4851,3.1432 4.5462,3.1425 1.2461,0.0034 2.3852,-0.474 3.2496,-1.2581z"/>
   <path class="fil1" d="M91.9287 127.2484c-4.9238,6.0502 -11.1642,9.9455 -17.6548,13.4386l-0.7736 0.4171 -0.7739 -0.4171c-6.4081,-3.4488 -12.8213,-7.459 -17.6839,-13.4394 -11.7334,-14.4294 -17.8364,-35.7866 -17.6166,-54.6752l72.1788 0c0.2992,18.7625 -6.1749,40.5438 -17.676,54.676z"/>
   <path class="fil2" d="M107.7479 68.2987c1.4665,19.2739 -4.9902,42.9882 -17.0963,57.8655 -4.7076,5.7831 -10.7066,9.5533 -17.1519,13.0225 -6.3636,-3.4256 -12.5351,-7.3105 -17.1801,-13.0225 -12.3364,-15.1711 -18.3542,-38.3366 -17.0687,-57.8655l68.4969 0z"/>
   <path class="fil1" d="M51.1107 80.5566c0.5263,6.3974 1.8569,14.6083 5.4867,23.1852 5.376,12.7106 11.3798,18.7474 18.9995,24.8335 -1.3433,1.3517 -2.5887,2.5978 -3.1782,3.2256 -7.2317,-5.9734 -13.3551,-12.714 -18.9237,-24.8597 -6.2072,-13.5318 -6.8461,-24.6441 -6.9005,-30.8992l52.0355 0 0 4.516 -47.5193 -0.0014z"/>
   <path class="fil1" d="M98.6293 85.9906l-40.8408 -0.0007c0.7486,4.9823 2.0498,10.4486 4.3778,15.9416 5.3756,12.6528 8.766,15.7036 17.6047,22.3562 0.9145,-0.9616 2.076,-2.1451 2.8579,-2.9248 -9.1165,-6.6538 -11.706,-9.2116 -16.6938,-21.6974 -1.2188,-3.0855 -2.66,-9.0878 -2.66,-9.0878l35.3541 0 0 -4.5871z"/>
   <path class="fil3" d="M92.3491 62.7697c-9.98,-4.0016 -11.301,-4.8852 -18.8006,-4.8852 -8.9934,0 -9.8253,0.9215 -18.7995,4.8852 -0.851,-0.5176 -2.0359,-1.5221 -2.729,-2.4561 -0.0557,-0.7124 0.1387,-1.5545 0.6158,-2.4742 1.4341,-2.7608 4.8863,-5.1575 7.7408,-5.3883 3.2022,-2.5733 8.4608,-4.0285 12.2871,-3.3 0.3143,0.0594 0.6086,0.1334 0.8849,0.2182 0.2775,-0.0848 0.5717,-0.1588 0.8862,-0.2182 3.8256,-0.7285 9.0834,0.7267 12.2863,3.3 2.8549,0.2308 6.306,2.6275 7.7408,5.3883 0.4777,0.9197 0.6728,1.7636 0.6151,2.4742 -0.6923,0.934 -1.8766,1.9367 -2.7277,2.4561z"/>
   <path class="fil3" d="M73.5485 42.5401c9.6096,-4.3856 14.2945,-0.7899 15.2746,4.1729 11.7968,-2.916 10.7259,15.0667 3.508,17.8312l-1.0136 2.1532c-5.9976,-1.1379 -10.2066,-1.7961 -17.7689,-1.7961 -5.46,0 -13.5158,0.3426 -18.2426,0.9612l-0.4922 -1.3002c-7.2612,-2.705 -8.3613,-20.7724 3.46,-17.8492 0.9814,-4.9627 5.6664,-8.5585 15.2748,-4.1729zm-18.0027 17.4688l0 0c4.7123,0.2289 4.418,-3.1342 3.8628,-5.8374 -0.3859,-1.8808 -1.3307,-2.6057 -1.3307,-5.5613 -3.0254,-2.5517 -6.5001,2.2468 -6.7714,5.5505 -0.4854,5.8788 3.9396,5.8337 4.2393,5.8482zm16.5503 -16.3039l0 0c-15.8482,-7.2349 -12.6226,16.4625 -1.4123,10.8506 0.6599,-0.3318 0.6319,-1.0478 0.5134,-1.715 -0.4881,-2.7735 -0.0907,-6.5009 0.8989,-9.1356zm2.9055 0l0 0c0.9892,2.6365 1.3871,6.3621 0.8989,9.1356 -0.1185,0.6672 -0.1465,1.3832 0.5127,1.7132 11.2117,5.6137 14.4364,-18.0854 -1.4116,-10.8488zm16.551 16.3039l0 0c0.2989,-0.0145 4.7247,0.0306 4.2393,-5.85 -0.272,-3.3001 -3.746,-8.1023 -6.7728,-5.5487 0,2.9556 -0.9455,3.6824 -1.3307,5.5613 -0.5544,2.7032 -0.8488,6.0663 3.8642,5.8374zm-18 -17.458l0 0 -0.0225 0.0398 0.0225 -0.0398z"/>
   <path class="fil3" d="M92.7218 65.2619l-2.6577 4.492c0.0604,0.0667 0.0866,0.1497 0.0866,0.2345l0 0.0991c0,0.0992 -0.0648,0.1966 -0.1606,0.2959 -0.0649,0.0973 -0.1599,0.164 -0.2571,0.164l-0.0967 0c-0.1287,0 -0.2894,-0.0667 -0.4169,-0.164 -0.9319,-0.4599 -1.8314,-0.8856 -2.7323,-1.248 -1.285,-0.4922 -2.505,-0.9196 -3.6624,-1.2154 -1.3172,-0.3607 -2.5713,-0.6222 -3.6953,-0.7863 -1.3814,-0.1983 -2.5713,-0.2957 -3.6307,-0.2957 -0.708,-0.0344 -1.3192,-0.0344 -1.8645,0 -0.514,-0.0344 -1.1241,-0.0344 -1.8313,0 -1.0594,0 -2.3141,0.0974 -3.6624,0.2957 -1.1566,0.1641 -2.378,0.4256 -3.6954,0.7881 -1.1566,0.2958 -2.3773,0.7213 -3.6629,1.246 -0.9002,0.3625 -1.7999,0.7557 -2.7318,1.2156 -0.1605,0.0991 -0.2882,0.164 -0.417,0.164l-0.0648 0c-0.1274,0 -0.224,-0.0649 -0.2881,-0.1623 -0.2352,-0.2145 -0.2368,-0.4724 -0.0745,-0.6294l-2.6565 -4.4938c10.1498,-7.1663 28.0203,-7.1663 38.1722,0z"/>
   <path class="fil3" d="M72.065 35.8768c-0.0009,-0.0343 -0.0009,-0.0343 -0.0009,-0.0343l2.8599 0 -0.4818 1.7078 1.4144 -0.4923 0 2.9214 -1.4138 -0.4923 0.4812 2.2974 -2.859 0 0.4817 -2.2974 -1.4137 0.4923 0 -2.9214 1.4137 0.4923 -0.4817 -1.6735z"/>
   <path class="fil1" d="M78.947 55.9369c-0.2247,-0.2289 -0.3529,-0.5571 -0.3529,-0.8854 0,-0.3607 0.1281,-0.6564 0.3529,-0.9197 0.0972,-0.0992 0.1922,-0.1966 0.3219,-0.2958 0.0965,-0.0325 0.2247,-0.0974 0.3535,-0.1298 0.0959,-0.0325 0.1926,-0.0325 0.3206,-0.0325 0.1295,0 0.2253,0 0.3535,0.0325 0.0973,0.0325 0.2254,0.0649 0.3213,0.1316 0.1296,0.0974 0.2571,0.1966 0.3545,0.294 0.1922,0.2308 0.2895,0.4923 0.321,0.8205l0 0.1984c-0.0324,0.3282 -0.1274,0.5914 -0.3217,0.8205 -0.096,0.0992 -0.2246,0.1965 -0.3538,0.2614 -0.0964,0.0649 -0.224,0.1316 -0.3213,0.1316 -0.0681,0.0235 -0.1217,0.0469 -0.1808,0.0595 0.1463,1.7979 2.4907,3.3254 4.4863,2.3371 0.3897,-0.1984 0.7799,-0.5122 1.1413,-0.9522 -0.1444,-0.137 -0.2508,-0.3156 -0.3029,-0.5139l-0.1318 0.0558c-0.0632,0.0325 -0.1282,0.0325 -0.1923,0.0649l-0.1929 0.0974c-0.1274,0.0343 -0.2572,0.0992 -0.4165,0.1984 -0.0329,0 -0.0647,0.0325 -0.0972,0.0649 -0.1295,0.0649 -0.1929,0.1316 -0.2901,0.1966 -0.0966,0.0649 -0.2247,0.0992 -0.3854,0.229 -0.064,0.0343 -0.0965,0.0649 -0.1607,0.0992 -0.0646,0.0343 -0.128,0.1316 -0.2568,0.1966 -0.065,0.0325 -0.1607,0.0667 -0.2254,0.0992 -0.0968,0 -0.1283,0 -0.1599,-0.0325 -0.2898,-0.0667 -0.4819,-0.3949 -0.3538,-0.6907 0.1283,-0.229 0.0965,-0.3282 0.2572,-0.5248 0.0647,-0.0325 0.0966,-0.0992 0.0966,-0.1641 0.0322,-0.0649 0,-0.0992 0,-0.1659 0,-0.1298 -0.0642,-0.229 -0.0973,-0.3264 -0.096,-0.4923 0.0014,-0.7881 0.0965,-1.0188 0.0639,-0.1316 0.1289,-0.229 0.1611,-0.294 0.0967,-0.1316 0.1615,-0.1984 0.2255,-0.2633 0.1614,-0.1316 0.2889,-0.1966 0.417,-0.2633 0.0966,-0.0325 0.1613,-0.0992 0.1613,-0.1966 0,-0.5915 0.0966,-0.7538 0.2248,-0.853 0.0324,-0.0343 0.0648,-0.0343 0.0965,-0.0649 0.0324,-0.0325 0.1613,-0.0343 0.2888,0.0325 0.162,0.0667 0.3544,0.2633 0.3867,0.7213 0,0.0667 -0.0007,0.1641 0.0318,0.2308 0.0007,0.3282 0.064,0.5915 0.1613,0.8205 0.064,0.0992 0.128,0.1966 0.2246,0.3263 0.1042,0.1515 0.2219,0.3283 0.3015,0.5158 0.1944,-0.2705 0.5073,-0.4491 0.8551,-0.4491l-0.1274 -0.1316c-0.3859,-0.2957 -0.5142,-0.5247 -0.6431,-0.8529 -0.1281,-0.3282 -0.1925,-0.4274 -0.2882,-0.8205 -0.0331,-0.0667 -0.2253,-0.2958 -0.2894,-0.4599 -0.065,-0.1641 0,-0.3949 0.0964,-0.4599 0.1612,-0.0648 0.3537,-0.0973 0.6756,0.0992 0.1915,0.1316 0.1275,0.1316 0.321,0.3625 0.1607,0.1948 0.3212,0.0325 0.4503,-0.0343 0.1598,-0.0649 0.3529,-0.0974 0.5775,-0.0974 0.2572,-0.0343 0.3221,0.0325 0.3221,0.0325 0,0 0.3529,0.0649 0.5459,0.2615 0.1612,0.1984 0.1612,0.33 0.226,0.4941 0.064,0.1641 0.0966,0.4274 0.3854,0.4256 0.2569,-0.0325 0.2569,-0.0325 0.4824,0 0.3529,0.0992 0.6101,0.229 0.6749,0.3949 0.0634,0.0974 -0.0973,0.3589 -0.2572,0.4599 -0.1288,0.0649 -0.1288,0.0649 -0.5142,0.0325 -0.3859,-0.0343 -0.4501,0.1315 -0.772,0.2614 -0.2898,0.1317 -0.6108,0.3625 -1.092,0.2633l-0.1527 -0.0216c0.2662,0.1966 0.4416,0.5194 0.4425,0.8746 0.3529,-0.0649 0.4803,-0.1966 0.8023,-0.3931 0.2894,-0.1966 0.4501,-0.4922 0.8029,-0.6221 0.0959,-0.0343 0.3861,-0.0992 0.5461,-0.0992 0.3859,0 0.5142,0.3606 0.3542,0.6888 -0.1295,0.1966 -0.1288,0.1298 -0.3542,0.2958 -0.1923,0.1966 -0.0634,0.4581 -0.0325,0.6222 0.0966,0.7556 -0.1281,0.9864 -0.2889,1.2173 -0.321,0.458 -0.7713,0.5896 -0.7394,0.8529 0.0965,0.6564 -0.2247,1.0189 -0.3861,1.0838 -0.0958,0.0325 -0.61,-0.0343 -0.61,-0.8204 0,-0.3607 0,-0.8548 -0.129,-1.183 -0.1282,-0.3282 -0.3219,-0.3282 -0.3535,-0.7881 -0.1845,0.1352 -0.4199,0.229 -0.6742,0.2308 -0.0591,2.3083 1.8562,3.2964 3.6306,3.0187 0.4601,-0.0811 0.8973,-0.2344 1.2926,-0.4778 -0.126,-0.1695 -0.1995,-0.3788 -0.2007,-0.6042 0.0007,-0.5571 0.4508,-1.0188 1.0292,-1.017 0.5466,-0.0018 0.996,0.4581 0.9967,1.017 0,0.5572 -0.451,1.0171 -0.9967,1.0171 -0.0917,0 -0.1811,-0.0108 -0.2643,-0.0343 -0.2508,2.0035 1.3758,3.4101 3.2418,2.2505 -0.1058,-0.1298 -0.172,-0.294 -0.1803,-0.4724 -0.2932,0.1064 -1.1693,0.4237 -1.3837,0.4237 -0.2561,0 -0.3203,-0.1966 -0.3203,-0.3281 -0.0008,-0.1316 0.1274,-0.2634 0.2563,-0.3949 0.129,-0.1298 0.0647,-0.5897 0.1931,-0.8855 0.1282,-0.2615 0.193,-0.2615 0.4508,-0.3931 0.2564,-0.1316 0.2564,-0.0649 0.3854,-0.1984 0.0965,-0.0649 0.1921,-0.2615 0.1929,-0.3931 -0.0008,-0.1316 0.1274,-0.1966 0.1274,-0.1966 0,0 0.1939,-0.0667 0.3214,0.0649 0.1286,0.1334 0.1286,0.3282 0.1286,0.4599 -0.0004,0.2127 0.0341,0.7881 0.0523,1.0892 0.1162,-0.0667 0.2521,-0.1046 0.398,-0.1046l0.0881 0.0036c0.0358,-0.2579 0.1048,-0.7682 0.1041,-1.055 -0.0006,-0.3931 -0.0646,-0.3282 0.064,-0.4599 0.129,-0.1298 0.3207,-0.0649 0.4496,0.0667 0.1283,0.1316 0.4501,0.7231 0.7073,0.7231 0.3858,-0.0018 0.3212,-0.0649 0.5784,0.0649 0.2569,0.1316 0.7713,0.6889 0.7713,0.9522 0,0.2615 0,0.1316 -0.129,0.2615 -0.1281,0.1315 -0.7713,-0.0649 -1.2848,0.0666 -0.2107,0.0541 -0.3994,0.0974 -0.5489,0.128 0.0029,0.0686 -0.2541,0.2327 -0.5432,0.4617 -0.3226,0.2634 -0.4175,0.3931 -0.4175,0.3931 -0.0375,-0.0054 -0.0739,-0.0162 -0.1087,-0.0289 -0.4283,0.5429 -1.1333,0.954 -1.9801,1.0135l-0.2889 0.0018c-0.3528,-0.0343 -0.7394,-0.0992 -1.1248,-0.2633 -1.1251,-0.4599 -0.932,-2.2974 -0.932,-2.5931 -0.2573,0.2633 -0.6741,0.4274 -1.1249,0.5247 -0.7716,0.1642 -1.7033,0.0993 -2.6029,-0.2307 -1.4138,-0.5572 -1.67,-2.5264 -1.67,-3.0512 -0.065,0.1966 -0.5476,0.6222 -1.2209,0.9503 -0.7398,0.3607 -1.7351,0.624 -2.6029,0.3607 -1.4144,-0.3931 -1.8645,-1.3777 -2.507,-2.2974 -0.0964,0.1316 -0.2238,0.2958 -0.4169,0.4599 -0.6107,0.4923 -1.6384,1.0838 -2.6987,0.9845 -1.4787,-0.1316 -2.5386,-1.641 -2.7957,-2.0359 -0.2573,0.3949 -1.2855,1.9043 -2.7628,2.0359 -1.0925,0.0993 -2.1208,-0.4941 -2.7316,-1.0188 -0.1931,-0.1316 -0.3219,-0.2958 -0.4185,-0.4274 -0.6423,0.9196 -1.0926,1.906 -2.5387,2.2992 -0.8678,0.2615 -1.8308,-0.0018 -2.5711,-0.3625 -0.674,-0.3282 -1.156,-0.7555 -1.2201,-0.9503 0,0.5247 -0.2573,2.494 -1.6708,3.0512 -0.8996,0.3299 -1.8323,0.3948 -2.6036,0.2308 -0.4501,-0.0992 -0.8673,-0.2633 -1.1566,-0.5248 0.0006,0.294 0.1929,2.1333 -0.9001,2.5931 -0.3846,0.1641 -0.7708,0.2308 -1.1245,0.2615l-0.2888 0c-0.8465,-0.0613 -1.5519,-0.4724 -1.9795,-1.0135 -0.0352,0.0127 -0.0725,0.0217 -0.1083,0.0307 0,0 -0.0966,-0.1334 -0.4179,-0.3949 -0.2888,-0.2308 -0.5467,-0.3931 -0.5467,-0.3931 -0.147,-0.1009 -0.3359,-0.1442 -0.5458,-0.1965 -0.515,-0.1316 -1.1573,0.0649 -1.2864,-0.0667 -0.1281,-0.1298 -0.1281,0.0018 -0.1281,-0.2616 0,-0.2632 0.5143,-0.8204 0.7713,-0.9521 0.2571,-0.1316 0.1931,-0.0649 0.5776,-0.0667 0.2572,0 0.5782,-0.5897 0.7066,-0.7213 0.1281,-0.1298 0.3213,-0.1966 0.4501,-0.0667 0.1288,0.1316 0.0635,0.0667 0.0641,0.4599 0,0.2868 0.0677,0.7971 0.1042,1.0568l0.0881 -0.0054c0.1452,0 0.2804,0.0379 0.3979,0.1046 0.0177,-0.3029 0.0521,-0.8765 0.0521,-1.0892 0,-0.1316 0,-0.3282 0.1282,-0.4599 0.1289,-0.1316 0.3214,-0.0649 0.3214,-0.0649 0,0 0.1288,0.0649 0.1288,0.1966 0,0.1316 0.0972,0.3282 0.1931,0.3931 0.1274,0.1316 0.1281,0.0649 0.3853,0.1984 0.257,0.1298 0.3218,0.1298 0.4501,0.3931 0.1287,0.2958 0.064,0.7537 0.1929,0.8855 0.1282,0.1316 0.2572,0.2632 0.2565,0.393 0.0007,0.1335 -0.0634,0.3282 -0.3211,0.33 -0.2127,-0.0018 -1.0897,-0.3173 -1.3828,-0.4255 -0.0078,0.1785 -0.0754,0.3426 -0.1805,0.4724 1.8646,1.1613 3.4656,-0.2489 3.2369,-2.2505 -0.0832,0.0234 -0.1704,0.0361 -0.2594,0.0361 -0.5465,0.0018 -0.9958,-0.4581 -0.9958,-1.0189 0,-0.5553 0.4494,-1.0152 0.9951,-1.017 0.5475,0.0018 0.9961,0.4617 0.9968,1.017 -0.0007,0.2272 -0.0745,0.4383 -0.1979,0.6078 0.4028,0.2416 0.8621,0.3949 1.322,0.4778 1.7752,0.3065 3.6617,-0.7088 3.6596,-3.0205 -0.2965,0 -0.544,-0.1064 -0.7313,-0.2778 -0.0042,0.5086 -0.1964,0.5068 -0.3245,0.8368 -0.129,0.3264 -0.129,0.8205 -0.129,1.1811 -0.0007,0.7881 -0.5142,0.8548 -0.61,0.8205 -0.1614,-0.0649 -0.4826,-0.4274 -0.3861,-1.082 0.0326,-0.2651 -0.4175,-0.3949 -0.7394,-0.8547 -0.1607,-0.2308 -0.3854,-0.4599 -0.2882,-1.2155 0.0317,-0.1641 0.1591,-0.4274 -0.0332,-0.624 -0.2247,-0.1641 -0.2253,-0.0974 -0.3535,-0.2958 -0.1925,-0.3264 -0.0326,-0.687 0.3535,-0.6889 0.1606,0 0.4494,0.0649 0.5135,0.0993 0.3853,0.1316 0.5466,0.4273 0.8361,0.6239 0.3219,0.1966 0.4494,0.3282 0.7391,0.4256 0.064,-0.3895 0.2394,-0.7087 0.5056,-0.9088l-0.1522 0.0234c-0.4815,0.0992 -0.803,-0.1315 -1.1242,-0.2614 -0.2894,-0.1317 -0.3544,-0.2958 -0.7389,-0.2633 -0.3859,0.0325 -0.3859,0.0325 -0.5466,-0.0325 -0.129,-0.0992 -0.2888,-0.3625 -0.2254,-0.4599 0.0642,-0.1659 0.2896,-0.2958 0.6423,-0.3949 0.2573,-0.0325 0.2573,-0.0325 0.5142,0.0018 0.289,-0.0018 0.3213,-0.2633 0.3853,-0.4274 0.0647,-0.1641 0.064,-0.294 0.2254,-0.4923 0.1915,-0.1966 0.5466,-0.2615 0.5466,-0.2615 0,0 0.0635,-0.0667 0.3206,-0.0343 0.2254,0.0018 0.4178,0.0343 0.5467,0.0992 0.1605,0.0649 0.2888,0.229 0.4812,0.0325 0.1603,-0.2308 0.0971,-0.229 0.3217,-0.3607 0.2896,-0.1966 0.5137,-0.1641 0.6757,-0.0992 0.0956,0.0667 0.1599,0.2958 0.0956,0.4599 -0.064,0.1641 -0.2569,0.3931 -0.2887,0.4581 -0.0957,0.3949 -0.1614,0.4923 -0.2889,0.8223 -0.1282,0.3282 -0.2572,0.5572 -0.6422,0.8529l-0.1961 0.1335c0.4164,-0.0018 0.7306,0.1767 0.9258,0.4508 0.1392,-0.33 0.3921,-0.6185 0.4907,-0.8457 0.1615,-0.33 0.1932,-0.6582 0.2255,-1.0514 0.0642,-0.7881 0.5467,-0.8205 0.6755,-0.7556 0.1274,0.0667 0.3213,0.1984 0.3213,0.9197 0,0.2633 0.4816,0.2308 0.772,0.7231 0.16,0.2308 0.4488,0.5572 0.2564,1.3128 -0.0324,0.1641 -0.1931,0.4581 0.0008,0.6582 0.1916,0.1948 0.1597,0.294 0.2569,0.5248 0.1926,0.3282 -0.0972,0.7538 -0.4822,0.7196 -0.1925,-0.0325 -0.3847,-0.2272 -0.4819,-0.294 -0.4494,-0.2958 -0.5461,-0.33 -0.8354,-0.5266 -0.2889,-0.229 -0.4178,-0.229 -0.7067,-0.3607 -0.131,-0.045 -0.2379,-0.083 -0.3248,-0.1227 -0.052,0.2039 -0.1626,0.3841 -0.3106,0.5248 0.3552,0.4364 0.7616,0.7448 1.1497,0.9432 1.9962,0.99 4.3159,-0.5411 4.48,-2.3425 -0.6803,-0.0866 -1.1706,-0.6708 -1.1706,-1.3651 0,-0.7556 0.5782,-1.3796 1.3495,-1.3796 0.7391,0 1.3498,0.624 1.3498,1.3796 0,0.5536 -0.329,1.0369 -0.7974,1.2551 0.0915,0.1713 0.2043,0.3408 0.3161,0.4832 0.5778,0.7881 1.5743,1.3129 3.053,1.0838 1.4822,-0.2163 2.0048,-1.5905 2.1429,-2.0685 -0.4517,-0.1027 -0.8278,-0.4309 -1.0044,-0.8619 -0.0312,0.2092 -0.1065,0.5229 -0.3031,0.7628 -0.1929,0.2289 -0.4501,0.6563 -0.5782,0.9196 -0.129,0.2615 -0.2571,0.5248 -0.3859,0.6564 -0.1281,0.1298 -0.2572,0.1316 -0.386,0.1316 -0.1281,0 -0.3853,-0.2633 -0.386,-0.5266 0.0007,-0.2615 -0.064,-0.8186 -0.1283,-0.9178 -0.128,-0.2633 -0.7063,-0.4599 -0.7063,-1.2479 0.0006,-0.7881 0.4501,-0.9197 0.5782,-1.1812 0.064,-0.1316 -0.1281,-0.8205 -0.1281,-1.0837 0,-0.2633 0.1922,-0.5267 0.3218,-0.5267 0.2564,0 0.6423,0.2309 0.706,0.3949 0.1282,0.2616 0.2895,0.4257 0.5148,0.5897 0.3853,0.2958 0.4495,0.3931 0.6417,0.624 0.0936,0.1155 0.1534,0.2615 0.1923,0.413 0.1481,-0.4905 0.5347,-0.871 1.0144,-0.9936l-0.1796 -0.0433c-0.513,-0.1298 -0.7713,-0.393 -1.0285,-0.6546 -0.2565,-0.2632 -0.2572,-0.4616 -0.6415,-0.5914 -0.3853,-0.1316 -0.3853,-0.1316 -0.5144,-0.2633 -0.1275,-0.1316 -0.0957,-0.4274 0.0008,-0.5248 0.1274,-0.1316 0.3853,-0.2633 0.7712,-0.1984 0.2571,0.0667 0.2571,0.0667 0.5137,0.1984 0.257,0.1298 0.321,0.0649 0.4501,-0.0667 0.1281,-0.1316 0.2887,-0.4581 0.5141,-0.5915 0.2571,-0.1298 0.4501,-0.1298 0.4501,-0.1298 0,0 0.1924,0 0.4494,0.1316 0.2573,0.1316 0.4178,0.4581 0.5142,0.5897 0.1606,0.1316 0.2255,0.1984 0.4818,0.0667 0.2573,-0.1316 0.2573,-0.1316 0.5144,-0.1984 0.3851,-0.0649 0.6416,0.0667 0.7705,0.1984 0.0966,0.0974 0.129,0.3931 0.0007,0.5248 -0.1288,0.1316 -0.1282,0.1316 -0.5141,0.2615 -0.3854,0.1316 -0.3861,0.3281 -0.6424,0.5932 -0.2572,0.2616 -0.5141,0.5248 -1.0617,0.6546l-0.171 0.0415c0.4867,0.1191 0.8749,0.4869 1.0306,0.9685 0.0435,-0.1406 0.107,-0.276 0.2014,-0.3841 0.0332,-0.0649 0.0649,-0.0992 0.0972,-0.1316 0.0965,-0.0992 0.1925,-0.1966 0.353,-0.3281 0.0642,-0.0668 0.0964,-0.0993 0.1931,-0.166 0.0639,-0.0325 0.128,-0.0649 0.1605,-0.1298 0.1613,-0.0991 0.2572,-0.2632 0.3536,-0.4599 0.0959,-0.1315 0.2246,-0.2289 0.3869,-0.2957 0.0956,-0.0649 0.2239,-0.0993 0.3203,-0.0974 0.1614,0.0649 0.3212,0.2958 0.3212,0.5248 0,0.2632 -0.1922,0.9521 -0.1281,1.0837 0.0324,0.0667 0.1281,0.1641 0.1932,0.2308 0.1603,0.1641 0.321,0.3931 0.3536,0.853l0 0.1966c-0.0319,0.3931 -0.1933,0.6222 -0.3536,0.7881 -0.129,0.1315 -0.2572,0.2308 -0.3222,0.3607 -0.064,0.2632 -0.128,0.6906 -0.128,0.9196 0,0.1966 -0.1281,0.3931 -0.257,0.4599 -0.0325,0.0325 -0.0966,0.0649 -0.1283,0.0667 -0.1288,0 -0.1931,0 -0.2254,-0.0343 -0.0641,0 -0.1288,-0.0325 -0.1607,-0.0974 -0.0646,-0.0649 -0.1611,-0.1641 -0.2259,-0.2975 -0.0641,-0.0974 -0.096,-0.229 -0.1599,-0.3589 -0.0641,-0.101 -0.1288,-0.2308 -0.1931,-0.3282 -0.1283,-0.1983 -0.2572,-0.3948 -0.3537,-0.559 -0.2288,-0.2741 -0.305,-0.5878 -0.3345,-0.7952 -0.1796,0.4328 -0.5643,0.7627 -1.0362,0.8638 0.1401,0.4796 0.6677,1.8502 2.1744,2.0666 1.4137,0.229 2.4099,-0.2958 3.0198,-1.0856 0.1142,-0.1442 0.2289,-0.3173 0.3213,-0.4923 -0.0464,-0.0162 -0.0894,-0.0397 -0.1281,-0.0649 -0.1333,-0.0667 -0.2298,-0.1658 -0.3255,-0.2975z"/>
   <path class="fil1" d="M57.8679 52.5539c0,-0.9521 0.7391,-1.7401 1.6704,-1.7401 0.9318,0 1.6709,0.7881 1.6715,1.7401 0,0.9197 -0.7397,1.706 -1.6701,1.7078 -0.9334,0 -1.6722,-0.7899 -1.6718,-1.7078z"/>
   <path class="fil1" d="M58.607 43.0991c0.0006,-0.8855 0.7389,-1.6428 1.6386,-1.641 0.8994,-0.0018 1.6059,0.7555 1.6074,1.641 0,0.9197 -0.7073,1.6753 -1.6074,1.6735 -0.8996,0 -1.6386,-0.7538 -1.6386,-1.6735z"/>
   <path class="fil1" d="M61.2421 41.3265c0,-0.6889 0.5784,-1.2804 1.2526,-1.2804 0.7079,0 1.2539,0.5915 1.2539,1.2804 0,0.7213 -0.5461,1.2803 -1.2539,1.2803 -0.6749,0 -1.2526,-0.5589 -1.2526,-1.2803z"/>
   <path class="fil1" d="M63.6196 40.6034c0,-0.6564 0.5459,-1.2137 1.1885,-1.2137 0.6754,0 1.2214,0.5572 1.2214,1.2137 0,0.6889 -0.546,1.2155 -1.2214,1.2136 -0.6419,0.0019 -1.1885,-0.5229 -1.1885,-1.2136z"/>
   <path class="fil1" d="M66.0936 40.5384c0.0007,-0.5572 0.4501,-1.0171 0.9953,-1.0171 0.5474,0 0.9968,0.4599 0.9968,1.0171 0,0.559 -0.4508,1.0171 -0.9961,1.0171 -0.546,0 -0.996,-0.4599 -0.996,-1.0171z"/>
   <path class="fil1" d="M68.0857 40.735c0,-0.5572 0.4508,-1.0171 0.996,-1.0171 0.5466,0 0.996,0.4599 0.996,1.0171 0.0007,0.5572 -0.4495,1.017 -0.9953,1.0189 -0.546,0 -0.9961,-0.4617 -0.9967,-1.0189z"/>
   <path class="fil1" d="M70.0136 41.2598c0.0008,-0.4256 0.3218,-0.7538 0.7396,-0.7538 0.4178,0 0.7397,0.3282 0.7397,0.7556 -0.0009,0.4255 -0.3219,0.788 -0.7397,0.7863 -0.417,0 -0.7396,-0.3608 -0.7396,-0.7881z"/>
   <path class="fil1" d="M71.4281 41.8513c0,-0.3264 0.2888,-0.624 0.6106,-0.624 0.3538,0 0.6433,0.2975 0.6419,0.624 0,0.3624 -0.2896,0.6563 -0.6424,0.6563 -0.3206,0 -0.6101,-0.294 -0.6101,-0.6563z"/>
   <path class="fil1" d="M72.5847 42.5076c0,-0.5589 0.451,-1.017 0.9959,-1.017 0.5791,0 0.9961,0.4581 0.9961,1.017 0,0.5915 -0.417,1.0189 -0.9961,1.0189 -0.5458,-0.0018 -0.9959,-0.4274 -0.9959,-1.0189z"/>
   <path class="fil1" d="M72.4241 44.7077c-0.0007,-0.6564 0.5144,-1.183 1.1565,-1.1812 0.6433,0 1.1884,0.5248 1.1884,1.1812 -0.0008,0.6564 -0.5465,1.1812 -1.189,1.1812 -0.6423,0.0017 -1.1566,-0.5248 -1.1559,-1.1812z"/>
   <path class="fil1" d="M72.1669 47.3009c0.0009,-0.7881 0.6432,-1.4426 1.4144,-1.4444 0.8032,0 1.4464,0.6581 1.4456,1.4444 0.0008,0.8223 -0.6417,1.4463 -1.4463,1.4445 -0.7718,0 -1.4128,-0.6222 -1.4137,-1.4445z"/>
   <path class="fil1" d="M71.7819 50.5504c0,-1.0171 0.8029,-1.8375 1.7995,-1.8375 0.9954,0 1.8309,0.8204 1.8309,1.8393 0.0005,1.0171 -0.8348,1.8375 -1.8309,1.8375 -0.9959,0 -1.7995,-0.8204 -1.7995,-1.8393z"/>
   <path class="fil1" d="M49.5136 60.6291c0,-0.8205 0.6747,-1.5093 1.5095,-1.5093 0.8361,0 1.4788,0.6888 1.4788,1.5093 0.0006,0.853 -0.6426,1.5437 -1.4774,1.5437 -0.8362,0 -1.5109,-0.6907 -1.5109,-1.5437z"/>
   <path class="fil1" d="M47.971 57.8052c0,-0.9504 0.7713,-1.706 1.7034,-1.706 0.9,0 1.6708,0.7538 1.6701,1.7078 -0.0007,0.9522 -0.7714,1.7077 -1.6701,1.7059 -0.9321,0 -1.7034,-0.7555 -1.7034,-1.7077z"/>
   <path class="fil1" d="M47.4568 54.7197c0.0014,-0.8855 0.7073,-1.5761 1.5756,-1.5761 0.8347,0 1.542,0.6889 1.5414,1.5761 0.0013,0.8548 -0.7058,1.5761 -1.5421,1.5761 -0.867,0 -1.5749,-0.7232 -1.5749,-1.5761z"/>
   <path class="fil1" d="M48.0682 51.7334c-0.0006,-0.7899 0.6101,-1.4445 1.4139,-1.4445 0.7713,0 1.4142,0.6564 1.4136,1.4445 0.0006,0.8204 -0.6431,1.4769 -1.4144,1.4751 -0.8031,0.0018 -1.4144,-0.6546 -1.4131,-1.4751z"/>
   <path class="fil1" d="M49.2889 49.3693c0.0007,-0.7232 0.5791,-1.3146 1.2862,-1.3129 0.7067,-0.0018 1.2849,0.5915 1.2849,1.3129 0,0.7212 -0.5776,1.3128 -1.2849,1.3128 -0.7071,0.0018 -1.2862,-0.5915 -1.2862,-1.3128z"/>
   <path class="fil1" d="M51.1205 47.5966c-0.0006,-0.624 0.5134,-1.1487 1.1251,-1.1487 0.6105,0 1.1242,0.5248 1.1249,1.1487 -0.0015,0.624 -0.515,1.1505 -1.1257,1.1487 -0.6109,0 -1.1249,-0.5248 -1.1243,-1.1487z"/>
   <path class="fil1" d="M53.1766 46.612c0,-0.559 0.4502,-1.0171 0.996,-1.0171 0.5468,-0.0018 0.9954,0.4581 0.9954,1.0171 0,0.559 -0.4494,1.0171 -0.9954,1.0189 -0.5467,-0.0018 -0.996,-0.4617 -0.996,-1.0189z"/>
   <path class="fil1" d="M55.1695 46.217c0,-0.4923 0.3852,-0.8873 0.8671,-0.8854 0.4826,-0.0019 0.9008,0.393 0.9002,0.8854 -0.0007,0.4923 -0.4176,0.8873 -0.9002,0.8873 -0.4825,0 -0.8678,-0.3949 -0.8671,-0.8873z"/>
   <path class="fil1" d="M85.9517 52.5539c-0.0007,-0.9521 0.7388,-1.7401 1.6707,-1.7401 0.932,0 1.6709,0.7881 1.6709,1.7401 0,0.9197 -0.7396,1.7078 -1.6709,1.706 -0.9319,0.0018 -1.6714,-0.7881 -1.6707,-1.706z"/>
   <path class="fil1" d="M85.2769 43.0991c0,-0.8855 0.7388,-1.641 1.639,-1.641 0.8998,0 1.6064,0.7555 1.6071,1.641 -0.0007,0.9197 -0.7067,1.6753 -1.6071,1.6753 -0.9008,0 -1.639,-0.7556 -1.639,-1.6753z"/>
   <path class="fil1" d="M83.4138 41.3265c0,-0.6889 0.5458,-1.2804 1.253,-1.2804 0.6741,0 1.2532,0.5915 1.2539,1.2804 -0.0007,0.723 -0.5798,1.2803 -1.2546,1.2803 -0.7066,0 -1.2523,-0.5572 -1.2523,-1.2803z"/>
   <path class="fil1" d="M81.1313 40.6034c0.0007,-0.6564 0.5468,-1.2137 1.1892,-1.2137 0.6748,0 1.2208,0.5572 1.22,1.2137 0.0008,0.6889 -0.5461,1.2155 -1.2209,1.2155 -0.6422,0 -1.1883,-0.5266 -1.1883,-1.2155z"/>
   <path class="fil1" d="M79.0752 40.5384c0.0007,-0.559 0.4501,-1.0189 0.996,-1.0189 0.5467,0 0.9961,0.4599 0.9961,1.0189 0,0.5572 -0.4495,1.0171 -0.9961,1.0171 -0.546,0 -0.996,-0.4599 -0.996,-1.0171z"/>
   <path class="fil1" d="M77.1149 40.735c-0.0009,-0.5572 0.4175,-1.0171 0.9643,-1.0171 0.546,0 0.9954,0.4599 0.9954,1.0171 0.0006,0.559 -0.4502,1.0189 -0.9954,1.0189 -0.546,0 -0.9643,-0.4599 -0.9643,-1.0189z"/>
   <path class="fil1" d="M75.6694 41.2616c0,-0.4274 0.3535,-0.7556 0.7714,-0.7556 0.4169,0 0.7394,0.3282 0.7394,0.7556 -0.0006,0.4274 -0.3225,0.788 -0.7394,0.7863 -0.4185,0 -0.7714,-0.3608 -0.7714,-0.7863z"/>
   <path class="fil1" d="M74.5127 41.8513c0,-0.3264 0.2895,-0.624 0.6431,-0.624 0.3204,0 0.6098,0.2975 0.6098,0.624 0,0.3624 -0.2887,0.6563 -0.6098,0.6563 -0.3537,0 -0.6425,-0.294 -0.6431,-0.6563z"/>
   <path class="fil1" d="M95.8157 57.807c0,-0.9522 0.7405,-1.7078 1.6709,-1.7078 0.9313,0 1.6701,0.7538 1.6701,1.7078 0.0006,0.9522 -0.7388,1.7077 -1.6708,1.7059 -0.9297,0 -1.6695,-0.7537 -1.6702,-1.7059z"/>
   <path class="fil1" d="M96.6511 54.7197c0,-0.853 0.6763,-1.5437 1.4787,-1.5419 0.8354,0 1.5102,0.6889 1.5102,1.5419 0,0.8204 -0.6748,1.5112 -1.5102,1.5112 -0.8032,0 -1.478,-0.6889 -1.4787,-1.5112z"/>
   <path class="fil1" d="M96.2983 51.7334c0.0006,-0.7556 0.6429,-1.3796 1.3814,-1.3796 0.7711,0 1.3821,0.624 1.3821,1.3796 0,0.788 -0.611,1.4119 -1.3814,1.4119 -0.7391,0 -1.3821,-0.624 -1.3821,-1.4119z"/>
   <path class="fil1" d="M95.3339 49.3693c0.0008,-0.6889 0.5791,-1.2805 1.2538,-1.2805 0.6747,0 1.2539,0.5916 1.2539,1.2805 0,0.7212 -0.5792,1.2803 -1.2539,1.2803 -0.6755,0 -1.2538,-0.5572 -1.2538,-1.2803z"/>
   <path class="fil1" d="M93.7918 47.5966c0,-0.624 0.5137,-1.1487 1.1251,-1.1487 0.6095,0 1.1242,0.5248 1.1236,1.1487 0,0.624 -0.5141,1.1505 -1.1236,1.1487 -0.6107,0 -1.1251,-0.5248 -1.1251,-1.1487z"/>
   <path class="fil1" d="M91.9914 46.612c0.0007,-0.5572 0.4183,-1.0171 0.9967,-1.0171 0.5461,0 0.9961,0.4599 0.9954,1.0171 0.0007,0.5572 -0.4494,1.0171 -0.9954,1.0171 -0.5768,0 -0.996,-0.4599 -0.9967,-1.0171z"/>
   <path class="fil1" d="M90.2254 46.217c0,-0.4923 0.3853,-0.8854 0.8673,-0.8854 0.4815,0 0.9001,0.393 0.8994,0.8854 0.0007,0.4923 -0.417,0.8873 -0.8994,0.8873 -0.4812,0 -0.8673,-0.3931 -0.8673,-0.8873z"/>
   <path class="fil1" d="M56.8714 45.824c0,-0.9522 0.772,-1.7078 1.7038,-1.7078 0.932,0 1.6704,0.7556 1.6704,1.7078 0,0.9521 -0.7391,1.7077 -1.6704,1.7077 -0.9311,-0.0018 -1.7038,-0.7556 -1.7038,-1.7077z"/>
   <path class="fil1" d="M56.8714 45.824c0,-0.9522 0.772,-1.7078 1.7038,-1.7078 0.932,0 1.6704,0.7556 1.6704,1.7078 0,0.9521 -0.7391,1.7077 -1.6704,1.7077 -0.9311,-0.0018 -1.7038,-0.7556 -1.7038,-1.7077z"/>
   <path class="fil1" d="M56.2289 49.3044c0,-1.0838 0.8679,-1.9711 1.9597,-1.9711 1.0601,0 1.9293,0.8873 1.9286,1.9711 -0.0007,1.0819 -0.8677,1.9692 -1.9286,1.9692 -1.0918,0 -1.9591,-0.8873 -1.9597,-1.9692z"/>
   <path class="fil1" d="M86.9795 45.824c0,-0.9179 0.7064,-1.6735 1.6067,-1.6735 0.8995,-0.0018 1.6392,0.7556 1.6392,1.6735 0,0.9196 -0.7389,1.6428 -1.64,1.641 -0.8995,0 -1.6059,-0.7213 -1.6059,-1.641z"/>
   <path class="fil1" d="M87.0442 49.3693c0,-1.0838 0.8671,-1.9711 1.9281,-1.9693 1.0607,0 1.9278,0.8873 1.927,1.9693 0,1.0819 -0.8669,1.9692 -1.927,1.9692 -1.061,0 -1.9281,-0.8855 -1.9281,-1.9692z"/>
   <path class="fil1" d="M73.4941 65.3917l-3.8559 -2.429 3.8559 -2.4616 3.8559 2.4616c-1.2836,0.806 -2.598,1.5796 -3.8559,2.429z"/>
   <path class="fil1" d="M73.4949 61.1557c0.9479,0.5752 1.8453,1.2587 2.8274,1.7745l-2.8282 1.8051 -2.7951 -1.807 2.7959 -1.7726z"/>
   <polygon class="fil1" points="79.4702,65.1969 85.5432,67.3122 86.499,64.1979 80.4256,62.0808 "/>
   <polygon class="fil1" points="80.0692,64.8002 85.274,66.6251 85.9003,64.5946 80.6952,62.7679 "/>
   <polygon class="fil1" points="90.4312,68.9082 89.0095,66.2591 92.2583,66.0571 92.1604,68.1093 "/>
   <path class="fil1" d="M92.4809 66.2302l-3.4157 0.0703 1.6314 2.6797c0.1488,0.2615 -0.2099,0.5554 -0.3204,0.44l-1.7576 -3.4316c0.0253,0.0126 0.3909,-0.074 4.0025,-0.3012 0.153,-0.0144 0.1579,0.5357 -0.1401,0.5429z"/>
   <polygon class="fil1" points="67.5193,65.1969 61.4473,67.3122 60.4905,64.1979 66.5634,62.0826 "/>
   <polygon class="fil1" points="66.9206,64.8002 61.7161,66.6251 61.0902,64.5964 66.2935,62.7679 "/>
   <polygon class="fil1" points="56.8466,68.9082 58.2695,66.2573 55.0195,66.0589 55.1174,68.1093 "/>
   <path class="fil1" d="M54.7961 66.2302l3.4171 0.0703 -1.6314 2.6779c-0.1499,0.2633 0.2085,0.5572 0.3212,0.4418l1.7567 -3.4316c-0.026,0.0126 -0.3916,-0.0721 -4.0024,-0.3012 -0.1543,-0.0144 -0.1578,0.5357 0.1387,0.5429z"/>
   <path class="fil1" d="M94.6808 60.6291c0,-0.8205 0.6748,-1.5093 1.5104,-1.5093 0.8354,0 1.5102,0.6888 1.5102,1.5093 0.0007,0.8548 -0.6748,1.5455 -1.5102,1.5437 -0.8356,0 -1.5097,-0.6889 -1.5104,-1.5437z"/>
  </g>
 </g>
</svg>
