<svg width="381" height="515" viewBox="0 0 381 515" fill="none" xmlns="http://www.w3.org/2000/svg">
<path d="M190.147 514.453C234.173 496.032 380.293 397.281 380.293 206.96C380.293 127.228 354.119 71.4145 354.119 71.4145H312.864L302.119 54.7745L291.719 5.19978L190.147 -0.000172787L88.5733 5.19978L78.1733 54.7745L67.4267 71.4145H26.1747C26.1747 71.4145 0 127.228 0 206.96C0 397.281 146.12 496.032 190.147 514.453" fill="black"/>
<path d="M293.487 50.9653C291.195 40.0467 286.803 19.1173 285.431 12.5533C275.006 12.0186 190.879 7.71336 190.147 7.67602C189.414 7.71336 105.284 12.0186 94.863 12.5533C93.487 19.116 89.0963 40.0413 86.8057 50.9587L293.487 50.9653Z" fill="white"/>
<path d="M190.147 496.921C211.508 486.392 252.662 459.481 289.464 415.017C339.168 354.969 364.374 284.968 364.374 206.96C364.374 144.56 347.659 97.4157 340.774 79.0784H328.814C328.814 79.0784 353.514 132.08 353.514 206.181C353.514 381.681 220.134 470.08 190.147 482.82C160.16 470.08 26.7803 381.681 26.7803 206.181C26.7803 132.08 51.4803 79.0784 51.4803 79.0784H39.5203C32.6336 97.4157 15.9189 144.56 15.9189 206.96C15.9189 284.968 41.1216 354.969 90.8256 415.017C127.63 459.481 168.782 486.392 190.147 496.921Z" fill="white"/>
<path d="M173.852 456.214C179.746 460.354 185.24 463.889 190.147 466.793C195.051 463.889 200.548 460.354 206.439 456.214V57.1997H173.852V456.214ZM279.93 57.1997H244.574V424.518C252.714 416.625 260.958 407.848 269.026 398.098C272.824 393.513 276.448 388.858 279.934 384.146V57.2024L279.93 57.1997ZM100.36 384.148C103.844 388.858 107.47 393.514 111.266 398.098C119.332 407.848 127.579 416.625 135.72 424.518V57.1997H100.36V384.148Z" fill="white"/>
<path d="M42.4521 206.96C42.4521 246.608 49.5521 284 63.6148 318.84V93.2546H62.2268C55.9908 114.175 42.4521 146.64 42.4521 206.96ZM318.064 93.2546H316.679V318.839C330.739 283.997 337.84 246.607 337.84 206.96C337.84 146.64 324.3 114.175 318.064 93.2546Z" fill="white"/>
<path d="M193.967 84.8529C192.627 87.1263 191.955 91.1556 196.356 97.4436C199.171 101.462 200.024 106.092 198.476 108.96C196.944 111.794 193.419 112.293 190.732 112.213C190.391 112.201 182.217 111.824 180.712 104.802C180.219 102.5 178.583 100.836 176.335 100.354C173.888 99.8302 171.252 100.833 169.775 102.846C168.171 105.034 168.184 107.928 169.805 110.788C172.508 115.546 171.699 116.492 169.927 118.56C169.165 119.448 166.973 120.984 165.116 120.688C163.829 120.482 162.736 119.314 161.868 117.214C160.907 114.89 159.027 113.456 156.84 113.377C154.713 113.3 152.693 114.542 151.693 116.541C150.477 118.97 150.989 121.956 153.064 124.526C156.255 128.486 155.743 129.672 155.467 130.309C154.667 132.19 153.601 141.625 154.197 149.317C154.297 150.608 153.7 151.613 153.447 151.796C152.133 152.546 150.913 154.533 147.765 160.014L145.317 164.19C143.777 166.693 142.381 166.794 138.569 166.722L136.94 166.702C133.043 166.702 130.297 169.522 129.308 172.318C128.321 175.108 128.957 177.856 130.971 179.484C132.911 181.053 138.212 185.937 141.013 189.296C142.311 190.85 144.409 191.678 146.363 191.402C147.617 191.226 149.948 190.422 151.444 187.03C153.045 183.402 158.869 176.286 164.719 172.942C170.32 169.74 178.109 168.752 182.887 173.757C184.108 175.036 185.46 175.656 186.905 175.6C189.225 175.508 190.72 173.669 191.613 172.57L192.036 172.065C192.528 171.612 194.633 171.208 195.425 171.433C197.623 172.062 199.268 171.446 200.604 170.301C200.427 170.601 200.252 170.905 200.143 171.285C200.024 171.709 199.972 172.128 199.972 172.54C199.972 174.12 200.743 175.572 201.384 176.604C201.824 177.306 201.913 177.734 201.913 177.865V177.882C201.84 177.832 200.88 178.128 199.333 177.764C198.573 177.584 196.255 177.037 194.423 178.396C192.576 179.764 192.431 182.061 192.3 184.088L192.216 185.26C192.032 187.446 190.841 190.242 189.16 191.154C188.8 191.35 187.704 191.946 185.473 190.75C183.24 189.557 180.667 188.505 178.479 189.749C175.995 191.164 175.848 194.425 175.719 197.302C175.604 199.957 174.147 202.404 172.176 203.256C170.928 203.796 169.703 203.557 168.527 202.546C167.656 201.797 165.011 199.521 162.073 200.341C159.069 201.181 157.995 204.478 157.047 207.385L156.792 208.161C156.671 208.521 156.305 209.62 154.415 210.32C151.332 211.458 146.164 210.79 142.895 208.83C140.251 207.245 137.971 206.974 136.112 208.025C132.924 209.832 132.911 214.434 132.911 217.502C132.908 217.466 132.865 218.033 132.865 218.033C132.569 222.202 132.161 227.913 122.091 228.456C120.103 228.565 116.405 228.769 115.097 231.658C113.732 234.67 116.059 238.273 118.505 241.398C120.672 244.158 121.552 246.764 121.053 248.934C120.675 250.578 119.488 251.992 117.797 252.814C117.796 252.814 117.488 252.964 117.488 252.964C114.963 254.19 112.575 255.349 112.096 257.938C111.633 260.441 113.264 262.793 115.852 265.556C116.847 266.617 117.251 267.65 117.127 268.812C116.864 271.261 114.357 273.693 113.473 274.3C113.467 274.306 113.071 274.542 113.071 274.542C111.763 275.293 109.045 276.86 109.012 280.022C108.979 283.177 111.657 286.213 117.7 289.869C119.337 290.858 119.517 291.374 119.519 291.381C119.592 292.153 117.252 294.925 115.995 296.416C114.216 298.522 112.001 301.669 113.319 304.628C114.696 307.721 118.792 308.261 122.615 308.382C129.556 308.596 131.893 308.669 133.421 317.638C134.128 321.798 136.097 323.086 137.627 323.434C139.897 323.953 142.323 322.66 144.281 319.894C144.539 319.53 145.725 319.016 147.079 319.328C149.173 319.808 150.635 321.945 151.193 325.342C151.48 327.08 152.351 332.376 156.233 333.398C158.645 334.033 161.303 332.732 163.717 329.732C164.516 328.734 165.24 328.38 165.395 328.406C165.404 328.406 166.352 328.752 167.449 331.872C168.784 335.662 170.821 337.722 173.503 337.994C177.188 338.368 180.077 334.984 180.881 333.648C180.835 333.718 180.969 333.592 181.296 333.601C181.627 333.61 182.856 333.812 184.807 336.021C189.611 341.456 194.633 343.308 197.636 344.414C199.435 345.081 200.88 347.52 200.88 348.476C200.88 348.542 200.873 348.601 200.861 348.652C200.836 348.658 200.471 349.076 200.471 349.076C199.744 349.893 198.784 350.973 198.784 352.46C198.784 352.662 198.801 352.87 198.841 353.088C199.212 355.198 201.165 356.457 205.533 358.822C206.683 359.445 207.731 360.874 207.775 361.882V361.97C207.775 362.232 207.699 362.713 206.84 363.281C205.293 364.314 203.269 365.949 203.269 368.333C203.269 368.386 203.269 368.441 203.273 368.493C203.376 371.158 205.915 372.59 207.597 373.537C208.373 373.98 208.628 374.384 208.673 374.506C208.62 374.506 208.475 374.65 208.199 374.821C206.056 376.161 205.719 377.868 205.719 378.801C205.719 378.822 205.719 378.844 205.723 378.862C205.761 381.446 208.133 383.216 209.547 384.041C209.737 384.156 210.1 384.553 210.1 384.837V384.844C210.091 385.196 209.493 386.178 207.284 387.372C204.732 388.753 204.013 390.517 203.855 391.757C203.831 391.957 203.819 392.156 203.819 392.354C203.819 393.882 204.553 395.398 205.932 396.677C206.276 397 206.328 397.156 206.328 397.158C206.324 397.158 206.248 397.968 204.216 399.765L204.053 399.908L203.891 400.11C203.868 400.136 201.547 402.925 195.441 404.754C192.144 405.742 190.887 406.938 189.588 408.4L188.664 409.356C186.959 410.881 186.255 411.512 183.329 408.954C179.245 405.378 176.253 407.413 174.815 408.392L174.136 408.828C173.253 409.317 172.548 409.708 169.988 407.152L169.308 406.469C166.08 403.22 163.949 401.074 159.639 399.432C158.728 399.084 158.123 398.625 157.977 398.174C157.947 398.078 157.933 397.981 157.933 397.881C157.933 397.568 158.069 397.244 158.211 397.028C158.879 396.026 159.132 395.129 159.132 394.329C159.132 392.576 157.909 391.304 157.141 390.506L156.448 389.765C156.247 389.538 156.071 389.005 156.071 388.358C156.071 388.269 156.073 388.177 156.081 388.082C156.136 387.388 156.372 386.973 156.472 386.893L157.067 386.404L157.415 385.454L157.329 385.718C157.333 385.71 157.719 384.966 159.275 383.644C159.885 383.292 161.076 382.508 163.779 380.404C164.821 379.594 166.175 379.96 167.016 380.52C169.365 382.094 170.957 381.949 172.513 381.641C172.513 381.641 172.545 381.636 172.551 381.636C172.684 381.881 172.821 382.137 172.821 382.137C173.139 382.852 173.351 384.053 173.351 384.862C173.351 385.021 173.315 385.101 173.299 385.222C173.149 385.202 173.059 385.21 172.732 385.097C167.988 383.454 165.556 384.612 164.351 385.873C163.025 387.258 162.693 389.349 163.484 391.333C164.487 393.828 166.752 398.086 170.707 398.67C173.421 399.069 176.069 397.682 178.58 394.546C178.581 394.546 179.129 393.937 179.432 393.597C180.444 393.677 181.311 393.382 181.995 392.758C183.653 391.237 184.227 387.636 184.003 385.621C184.037 385.554 185.364 383.165 185.364 383.165C186.329 380.273 186.747 372.885 181.873 368.521C179.144 366.077 178.612 364.89 178.143 363.84L177.549 362.633C175.935 359.818 173.471 360.316 171.84 360.642L170.404 360.906C168.915 361.132 168.425 360.894 166.621 360.021L165.371 359.428C161.263 357.534 154.26 359.562 151.724 364.926C150.292 367.953 148.261 370.085 145.912 372.556L144.577 373.969C141.56 377.201 138.877 380.865 142.057 386.933C143.233 389.185 142.532 390.009 141.137 391.645L140.408 392.529C137.352 396.456 140.613 400.081 142.008 401.63C143.549 403.346 145.18 406.197 145.347 408.693C145.629 412.976 155.236 427.934 164.899 428.69C170.297 429.117 170.596 429.421 171.313 430.16L172.7 431.465C176.757 434.842 181.093 434.676 185.243 430.986C185.499 430.761 185.771 430.668 186.099 430.696C186.656 430.742 187.272 431.125 187.748 431.72C190.173 434.758 195.763 435.734 201.336 431.549C202.352 430.786 203.461 430.457 204.039 430.745C207.987 432.709 210.916 428.802 213.052 425.949C215.303 422.956 215.944 422.902 217.496 422.774C221.877 422.41 222.741 420.184 223.652 416.56C223.928 415.448 223.948 415.381 226.869 415.393H227.413C228.149 415.393 230.391 415.393 231.784 413.586C232.495 412.668 232.764 411.586 232.764 410.358C232.764 408.882 232.375 407.192 231.881 405.308C231.881 405.308 231.867 405.212 231.863 405.189C232.256 405.222 232.661 405.257 232.661 405.257L234.413 405.46C236.996 405.642 239.104 404.66 240.051 402.834C240.401 402.156 240.576 401.432 240.576 400.662C240.576 398.925 239.687 396.962 237.915 394.793C237.301 394.042 237.171 393.694 237.127 393.532C237.371 393.361 238.004 393.026 239.503 392.754C241.571 392.377 244.087 390.721 244.732 387.981C244.813 387.637 244.879 387.213 244.879 386.73C244.879 385.242 244.268 383.205 241.685 381.261C240.8 380.6 240.743 380.08 240.743 379.821C240.743 379.801 240.747 379.781 240.747 379.765C240.771 378.489 242.164 376.77 243.496 375.848C245.268 374.622 246.413 372.493 246.641 370.008C246.669 369.697 246.681 369.389 246.681 369.08C246.681 366.036 245.353 362.92 243.021 360.589C242.176 359.746 242.023 359.097 242.023 358.645C242.023 358.578 242.027 358.517 242.031 358.458C242.128 357.321 243.167 356.029 244.147 355.341C245.853 354.153 246.8 352.481 246.8 350.693C246.8 350.513 246.787 350.33 246.771 350.146C246.471 347.353 244.065 345.053 239.423 343.117C238.857 342.881 237.928 342.496 237.928 340.798C237.928 340.284 238.012 339.645 238.223 338.854C238.432 338.066 238.617 337.172 238.617 336.274C238.617 335.328 238.407 334.374 237.797 333.541C236.505 331.773 234.364 331.665 232.097 331.552L231.363 331.513C230.315 331.454 229.237 330.712 228.803 329.746C228.668 329.456 228.603 329.158 228.603 328.86C228.603 328.298 228.835 327.726 229.291 327.148C229.716 326.608 230.819 325.208 230.819 323.561C230.819 323.104 230.732 322.629 230.529 322.148C229.571 319.904 227.019 319.658 224.968 319.46L222.912 319.162C220.385 318.385 219.248 317.678 219.248 315.929C219.248 315.51 219.313 315.033 219.439 314.48C219.661 313.501 219.845 312.509 219.845 311.566C219.845 310.514 219.621 309.53 218.988 308.697C217.851 307.2 216.157 307.126 215.035 307.08L213.621 306.912C213.077 306.746 211.42 305.413 210.716 303.248C210.501 302.596 210.395 301.937 210.395 301.276C210.395 299.69 211.004 298.081 212.212 296.466C212.911 295.541 213.256 294.438 213.256 293.368C213.256 292.244 212.875 291.157 212.113 290.344C211.504 289.693 209.217 287.769 205.272 290.329C204.061 291.08 198.545 290.466 196.86 288.417C196.64 288.152 196.059 287.445 197.883 285.49C199.708 283.536 200.437 281.54 200.056 279.553C199.625 277.292 197.819 275.442 194.54 273.892C193.508 273.402 193.113 272.74 193.143 272.512C193.179 272.197 194.177 270.857 198.359 270.022C202.352 269.226 203.047 266.817 203.16 265.82C203.444 263.31 201.515 260.934 197.871 259.297C196.981 258.898 196.843 258.11 196.969 257.796C197.075 257.533 197.883 257.376 199.276 257.873C202.543 259.04 204.976 258.826 206.512 257.237C207.459 256.253 207.8 255.029 207.8 253.753C207.8 252.193 207.284 250.584 206.756 249.225C206.739 249.141 206.695 248.917 206.695 248.578C206.695 247.762 206.955 246.378 208.483 245.277C212.109 242.656 212.589 243.306 213.455 244.486C215.445 247.208 219.524 248.054 222.356 246.328C223.539 245.608 227.12 242.724 223.663 235.809C222.501 233.482 222.549 231.41 223.801 230.125C225.219 228.669 228.433 228.034 232.419 229.896C235.112 231.154 238.248 230.569 239.873 228.504C240.755 227.386 242.387 224.273 238.569 219.5C237.341 217.962 237.903 215.834 238.841 214.357C240.296 212.064 243.599 209.768 248.132 210.848C251.605 211.677 255.973 211.164 257.903 208.15C259.699 205.345 258.813 201.634 255.267 197.125C253.62 195.025 253.937 193.656 254.04 193.206C254.925 189.394 261.763 186.094 264.008 185.009L264.719 184.664C266.425 183.808 269.289 182.376 269.315 179.434C269.333 176.842 267.153 174.593 262.009 171.91C259.957 170.841 256.875 167.633 256.772 164.145C256.692 161.41 258.512 158.906 262.18 156.704C265.248 154.866 265.735 150.929 264.265 148.406C262.912 146.084 259.865 144.692 256.107 146.817L255.16 147.354C251.155 149.641 250.323 150.117 247.097 148.294C245.589 147.442 244.613 145.386 244.671 143.176C244.7 142.041 245.085 139.244 248.035 137.77C250.492 136.541 252.104 134.056 252.244 131.285C252.373 128.689 251.183 126.272 249.136 124.976C247.707 124.073 244.601 122.938 239.828 125.498C235.535 127.804 232.093 128.592 230.387 127.66C228.965 126.884 228.501 124.662 228.368 122.937C228.267 121.637 229.429 120.181 231.824 118.606C235.347 116.305 235.66 112.617 234.149 110.164C232.536 107.552 228.644 106.042 224.601 108.39C224.599 108.393 224.033 108.736 224.033 108.736C217.448 112.8 213.336 112.796 210.713 108.726C210.659 108.626 208.259 104.376 209.749 96.3849C210.663 91.4889 210.14 87.6876 208.193 85.0823C206.633 82.9903 204.285 81.7676 201.213 81.4476C198.171 81.1249 195.396 82.4303 193.967 84.8529" fill="white"/>
<path d="M165.287 146.776C165.575 141.672 167.607 140.172 169.252 141.138C170.898 142.106 170.556 145.952 170.556 145.952L173.774 145.421C174.574 144.041 175.783 138.72 172.611 136.206C169.447 133.689 164.464 135.166 162.672 138.841C160.884 142.517 162.24 147.28 162.24 147.28L165.287 146.776ZM179.856 376.513C179.111 374.622 177.448 373.785 176.615 374.622C175.783 375.454 174.95 377.122 175.783 377.949C177.448 378.79 179.111 379.617 179.874 376.774C179.874 376.689 179.871 376.598 179.856 376.513ZM174.398 370.789C173.192 367.717 170.492 366.37 169.142 367.717C167.796 369.069 166.444 371.77 167.796 373.114C170.492 374.469 173.192 375.816 174.426 371.22C174.426 371.077 174.418 370.933 174.398 370.789V370.789ZM153.044 380.68C153.522 378.237 151.2 377.078 150.036 378.237C148.879 379.409 146.552 381.728 147.716 384.053C150.036 385.21 153.522 384.053 153.004 381.026C153.024 380.908 153.039 380.792 153.044 380.68V380.68ZM162.224 370.488C162.798 367.561 160.006 366.161 158.608 367.561C157.211 368.958 154.418 371.753 155.814 374.546C158.608 375.942 162.798 374.546 162.175 370.908C162.199 370.769 162.218 370.625 162.224 370.488ZM151.907 395.896C150.964 393.498 148.844 392.429 147.783 393.498C146.726 394.557 145.667 396.669 146.726 397.729C148.844 398.788 150.964 399.848 151.93 396.241C151.931 396.13 151.923 396.014 151.907 395.896ZM156.776 406.125C155.83 403.713 153.714 402.657 152.655 403.713C151.595 404.776 150.536 406.897 151.595 407.953C153.714 409.012 155.83 410.07 156.798 406.462C156.798 406.346 156.791 406.234 156.776 406.125V406.125ZM163.964 413.748C162.807 410.793 160.203 409.492 158.9 410.793C157.6 412.096 156.303 414.698 157.6 415.998C160.203 417.296 162.807 418.596 163.992 414.17C163.992 414.032 163.98 413.888 163.964 413.748V413.748ZM174.066 418.373C172.904 415.418 170.304 414.117 169.002 415.418C167.702 416.717 166.4 419.316 167.702 420.62C170.304 421.918 172.904 423.22 174.088 418.794C174.092 418.65 174.086 418.513 174.066 418.373ZM180.463 419.5C179.644 425.069 183.166 424.674 185.187 424.45C187.22 424.225 188.74 422.081 187.411 420.514C186.487 419.418 181.406 413.085 180.463 419.5ZM194.894 419.285C196.295 421.112 196.722 422.956 197.315 423.585C198.188 424.522 200.212 423.78 200.699 421.813C201.051 420.376 199.59 417.925 198.546 416.949C195.88 414.888 193.675 417.7 194.894 419.285ZM203.738 414.245C205.435 415.792 206.199 417.538 206.89 418.05C207.902 418.816 209.774 417.722 209.896 415.7C209.99 414.225 208.104 412.068 206.91 411.308C203.92 409.741 202.255 412.902 203.738 414.245V414.245ZM211.106 409.234C213.34 410.328 214.654 411.906 215.539 412.233C216.831 412.716 218.435 411.012 217.948 408.873C217.602 407.31 214.991 405.638 213.503 405.208C209.926 404.492 209.154 408.288 211.106 409.234ZM216.311 402.925C218.882 403.693 220.551 405.141 221.535 405.338C222.998 405.625 224.416 403.534 223.518 401.348C222.88 399.748 219.818 398.428 218.159 398.225C214.239 398.08 214.064 402.248 216.311 402.925ZM217.25 389.054C217.054 390.878 217.794 392.004 219.532 392.405C221.271 392.805 221.722 391.881 224.83 392.576C229.1 393.538 229.77 391.993 230.054 389.969C230.343 387.905 228.62 385.625 226.488 386.157C224.355 386.685 222.055 386.36 222.055 386.36C222.055 386.36 217.675 385.024 217.25 389.054V389.054ZM218.863 375.525C219.004 377.658 220.866 379.145 223.286 379.28C226.618 379.474 227.971 380.233 230.156 380.781C232.342 381.322 236.428 376.664 231.792 372.765C228.491 369.984 223.246 371.144 223.246 371.144C221.434 371.332 218.651 372.384 218.863 375.525V375.525ZM218.306 367.561C218.306 367.561 229.392 366.244 232.106 366.63C234.824 367.02 235.88 366.021 236.267 363.305C236.652 360.596 234.324 357.492 231.806 358.27C229.282 359.048 222.835 360.476 219.919 360.285C217.014 360.09 214.836 362.014 214.747 363.498C214.634 365.257 215.539 367.792 218.306 367.561V367.561ZM219.208 349.358C219.208 349.358 212.731 348.85 213.764 353.746C213.935 354.545 214.836 356.86 217.887 355.656C221.926 354.066 224.566 352.884 228.084 352.776C231.602 352.666 232.666 348.85 230.728 346.848C229.872 345.985 227.624 345.729 224.424 347.664C222.096 349.072 221.454 349.174 219.208 349.358ZM213.638 334.15C213.638 334.15 205.099 335.128 207.467 340.697C209.055 344.426 212.671 344.041 215.676 341.949C217.794 340.48 218.082 339.909 220.682 339.27C223.111 338.669 223.436 335.892 222.531 334.902C220.979 333.202 221.396 333.392 220.59 332.17C220.134 331.476 219.046 331.274 217.38 332.477C215.807 333.62 215.868 333.529 213.638 334.15V334.15ZM206.098 321.497C206.098 321.497 199.764 328.122 198.135 329.46C195.576 331.556 197.027 334.64 197.496 335.101C198.452 336.065 200.166 336.773 203.311 333.877C206.439 330.984 208.94 328.782 210.924 327.29C213.598 325.277 213.488 322.314 212.367 320.532C211.167 318.597 207.783 319.565 206.098 321.497V321.497ZM197.663 312.796C197.663 312.796 191.579 318.585 187.827 321.801C184.208 324.906 187.228 328.382 187.899 329.049C188.56 329.714 191.658 330.642 194.158 327.138C196.66 323.641 200.166 320.804 202.835 317.798C205.504 314.797 204.968 311.533 203.676 310.63C202.344 309.702 200.503 309.632 197.663 312.796V312.796ZM191.57 147.966C191.795 146.821 190.787 145.838 190.572 145.698C190.379 145.573 188.732 144.396 187.86 146.504C186.839 148.96 182.342 154.03 180.511 157.342C179.338 159.469 181.004 160.145 181.372 160.274C181.746 160.405 182.994 160.224 184.075 158.666C185.048 157.268 191.376 148.906 191.57 147.966ZM179.186 148.608C179.236 147.357 177.966 146.504 177.706 146.397C177.474 146.3 175.466 145.357 174.876 147.732C174.19 150.501 170.148 156.649 168.724 160.465C167.81 162.917 169.75 163.329 170.174 163.4C170.604 163.47 171.942 163.056 172.851 161.218C173.67 159.573 179.14 149.626 179.186 148.608V148.608ZM176.812 126.724C175.714 125.953 174.227 126.441 173.984 126.581C173.766 126.705 171.783 127.714 173.591 129.562C175.702 131.716 178.971 138.45 181.612 141.784C183.306 143.929 184.775 142.664 185.071 142.374C185.38 142.078 185.76 140.801 184.619 139.016C183.595 137.418 177.706 127.357 176.812 126.724ZM184.055 122.902C182.959 122.129 181.474 122.617 181.228 122.757C181.007 122.884 179.028 123.89 180.836 125.738C182.948 127.89 186.214 134.625 188.858 137.961C190.554 140.106 192.016 138.841 192.319 138.552C192.626 138.257 193.004 136.978 191.866 135.19C190.836 133.593 184.951 123.533 184.055 122.902V122.902ZM173.688 318.922C172.699 320.905 173.955 323.122 174.256 323.466C174.534 323.784 176.812 326.629 179.414 323.181C182.448 319.162 192.899 311.901 197.782 306.674C200.923 303.317 198.359 301.366 197.782 300.976C197.192 300.574 194.922 300.366 192.23 302.732C189.824 304.845 174.499 317.301 173.688 318.922ZM182.307 297.508C172.727 303.862 164.119 305.404 159.768 310.588C156.066 315.002 160.06 324.413 166.071 319.086C184.252 302.994 183.852 304.188 186.416 301.897C190.047 298.642 186.332 294.832 182.307 297.508V297.508ZM140.768 311.513C143.796 313.993 151.364 311.788 153.7 309.313C156.043 306.837 164.298 300.372 167.048 299.545C169.804 298.716 169.804 295.69 168.426 294.726C167.048 293.761 164.572 294.457 163.196 295.414C161.824 296.376 159.482 296.65 155.63 297.477C151.776 298.308 142.923 303.514 142.28 303.808C138.98 305.324 137.74 309.038 140.768 311.513V311.513ZM153.78 285.373C150.716 286.401 149.059 286.652 140.514 285.758C135.524 285.24 130.439 284.993 128.395 287.672C126.892 289.642 124.564 294.942 128.519 298.642C136.944 306.521 157.095 289.966 157.095 289.966C159.52 287.542 156.842 284.357 153.78 285.373ZM124.183 266.494C125.202 268.92 125.08 271.978 123.036 274.912C120.995 277.85 119.978 281.166 125.968 280.525C131.966 279.89 144.204 281.552 150.21 281.672C156.328 281.804 155.819 280.148 156.328 278.356C156.804 276.689 155.566 274.912 154.032 274.532C151.604 273.929 148.55 274.15 146 272.876C143.656 271.704 137.196 267.512 134.518 267.137C131.838 266.752 128.519 264.332 128.519 264.332C126.224 262.668 123.16 264.07 124.183 266.494V266.494ZM127.628 245.576C128.139 248 128.519 248.514 127.628 251.826C125.687 259.044 128.139 259.48 131.455 260.114C134.774 260.752 136.032 261.584 141.787 263.181C161.178 268.537 161.303 268.406 161.942 264.453C162.267 262.433 160.411 261.778 158.627 261.645C143.951 260.6 131.966 244.936 131.966 244.936C130.816 242.514 127.12 243.15 127.628 245.576V245.576ZM137.708 225.676C136.098 228.294 135.922 228.864 134.008 231.033C126.224 239.852 146.762 248.768 150.21 249.917C153.654 251.061 159.267 254.601 159.267 254.601C172.008 261.17 172.658 251.061 167.763 248.813C163.08 246.662 154.632 241.093 151.158 235.684C147.682 230.277 141.152 220.061 137.708 225.676ZM149.322 223.72C149.322 223.72 158.222 234.413 166.376 238.85C168.966 240.258 168.695 239.638 170.694 241.733C172.816 243.958 180.704 248.218 183.663 245.337C186.698 242.378 187.058 239.821 183.663 236.209C180.632 232.98 179.339 230.682 177.18 226.84C175.02 222.998 169.134 219.362 167.574 216.272C166.491 214.138 164.452 209.549 160.607 215.314C156.766 221.076 146.372 214.673 149.322 223.72V223.72ZM182.272 203.438C180.632 205.076 180.168 206.946 177.126 208.116C174.086 209.285 172.918 212.092 175.488 213.728C178.062 215.364 182.506 219.104 187.658 224.956C192.8 230.805 194.906 226.357 196.774 225.422C198.643 224.486 200.28 221.676 197.71 219.572C189.598 212.934 186.019 204.608 186.019 204.608C185.547 202.504 183.91 201.797 182.272 203.438V203.438ZM194.536 203.236C196.327 205.213 200.828 211.145 203.339 216.354C205.863 221.565 210.172 218.872 211.254 217.793C212.33 216.716 212.578 214.84 211.776 213.692C210.883 212.405 210.039 212.212 209.267 209.884C207.142 203.458 206.56 201.965 205.314 200.177C204.444 198.926 204.57 199.389 202.982 196.582C201.04 193.153 196.864 195.506 196.864 195.506C191.834 197.665 192.738 201.26 194.536 203.236V203.236ZM204.075 190.281C206.256 196.38 213.59 202.344 214.32 202.829C215.356 203.52 216.506 204.208 217.428 206.052C220.602 212.405 222.887 207.536 223.184 206.398C223.53 205.045 223.031 204.122 224.099 202.829C225.39 201.264 226.068 199.597 224.33 198.454C223.599 197.97 222.491 197.762 220.995 196.04C217.136 191.577 207.987 186.021 207.987 186.021C207.183 185.558 201.884 184.176 204.075 190.281V190.281ZM217.38 178.34C215.031 178.34 214.17 179.944 214.064 182.237C213.862 187.433 215.668 185.64 220.02 187.912C224.371 190.182 225.5 191.882 229.478 195.662C233.45 199.45 241.418 192.217 237.984 187.241C234.406 182.054 228.255 180.817 222.694 179.714C221.65 179.505 219.634 178.34 217.38 178.34V178.34ZM221.65 175.012C225.127 176.916 231.574 176.888 235.952 179.254C239.752 181.298 241.4 181.561 242.226 180.242C243.047 178.924 243.871 178.758 245.52 177.934C247.174 177.109 247.66 175.458 246.515 174.14C245.354 172.821 245.324 173.402 244.867 170.841C244.33 167.901 245.354 166.224 239.419 166.554C233.479 166.885 221.738 169.561 221.738 169.561C220.256 170.057 216.912 172.421 221.65 175.012V175.012ZM229.912 139.626C229.092 139.296 227.604 139.897 226.02 138.261C223.903 136.077 222.158 137.121 219.898 138.617C217.806 140.018 211.635 145.67 210.587 150.21C209.21 156.213 213.056 157.913 217.103 155.382C221.304 152.764 229.092 145.637 229.092 145.637C232.984 142.493 230.939 140.038 229.912 139.626V139.626ZM230.939 149.12C223.47 154.014 223.903 154.102 218.314 159.416C215.243 162.328 218.008 168.069 224.214 165.553C227.186 164.348 229.518 163.464 232.332 162.82C234.466 162.329 236.115 162.173 238.302 160.613C241.164 158.565 239.358 157.324 237.639 155.744C235.176 153.472 235.575 153.444 234.974 150.424C234.559 148.301 232.375 148.181 230.939 149.12V149.12ZM209.4 122.069C209.4 122.069 201.795 129.825 198.156 136.196C198.156 136.196 195.271 140.6 200.431 143.03C205.595 145.462 206.208 146.828 210.315 142.726C214.41 138.625 216.843 136.498 218.964 133.006C221.098 129.512 219.578 129.208 218.212 127.232C216.843 125.258 216.843 116.598 209.4 122.069V122.069ZM136.94 169.354C141.399 169.354 144.832 170.044 147.576 165.581C149.999 161.648 153.587 154.772 154.783 154.086C155.986 153.398 157.016 151.341 156.843 149.112C156.258 141.576 157.359 132.641 157.871 131.437C158.384 130.24 159.416 128.18 155.128 122.861C150.839 117.542 157.359 113.253 159.416 118.229C162.932 126.726 169.883 122.689 171.942 120.286C173.999 117.885 175.718 115.826 172.114 109.477C168.511 103.129 177.091 100.556 178.119 105.358C180.092 114.57 190.654 114.865 190.654 114.865C203.019 115.236 204.444 104.37 198.53 95.9223C192.615 87.4743 196.926 83.6609 200.938 84.0863C204.802 84.4903 208.831 86.8303 207.142 95.8983C205.415 105.154 208.483 110.164 208.483 110.164C214.072 118.829 223.996 111.814 225.935 110.685C230.96 107.764 234.904 113.425 230.371 116.389C228.474 117.634 225.472 119.942 225.723 123.146C226.332 130.854 231.276 133.101 241.084 127.836C249.79 123.166 252.02 132.809 246.848 135.397C240.231 138.704 240.93 147.86 245.792 150.604C250.652 153.352 252.548 151.874 257.411 149.126C262.27 146.381 263.984 152.529 260.816 154.429C248.575 161.774 255.924 171.728 260.783 174.264C269.83 178.982 266.487 180.812 263.53 182.29C260.58 183.768 246.219 189.889 253.182 198.764C260.158 207.637 253.182 209.325 248.75 208.266C239.003 205.956 232.272 215.872 236.496 221.157C240.718 226.433 236.714 228.974 233.54 227.49C224.635 223.333 217.278 228.974 221.291 236.996C225.306 245.026 217.907 246.078 215.592 242.912C213.26 239.745 210.728 240.38 206.931 243.125C203.128 245.87 204.184 249.882 204.184 249.882C206.951 256.817 203.128 256.43 200.166 255.373C193.655 253.052 192.567 259.817 196.782 261.718C201.011 263.616 202.067 266.577 197.839 267.42C188.376 269.309 189.394 274.39 193.407 276.292C197.424 278.188 198.895 280.516 195.94 283.681C188.664 291.489 203.128 294.877 206.715 292.556C210.303 290.228 211.359 293.184 210.091 294.877C204.611 302.189 210.091 308.606 212.842 309.449C215.592 310.293 218.123 308.393 216.851 313.888C215.592 319.382 219.39 320.854 222.136 321.7C224.882 322.546 230.371 321.49 227.211 325.502C224.038 329.517 227.414 333.95 231.215 334.161C235.015 334.374 236.714 334.161 235.658 338.177C234.596 342.19 235.86 344.51 238.403 345.565C245.679 348.601 244.736 351.697 242.619 353.172C240.515 354.654 237.342 358.666 241.146 362.466C244.947 366.269 244.736 371.765 241.987 373.665C239.244 375.565 235.86 380.212 240.09 383.382C244.306 386.553 241.36 389.718 239.032 390.144C236.706 390.565 232.056 391.829 235.86 396.473C239.662 401.122 237.558 403.022 234.596 402.813C231.639 402.606 228.051 401.122 229.315 405.98C230.587 410.841 230.587 412.74 227.414 412.74C224.24 412.74 221.926 412.526 221.08 415.913C220.231 419.292 219.808 419.92 217.278 420.129C214.735 420.341 213.475 420.972 210.932 424.358C208.402 427.733 206.931 429.22 205.228 428.374C203.543 427.525 201.431 428.161 199.744 429.426C195.563 432.564 191.506 432.176 189.82 430.062C188.128 427.946 185.38 427.316 183.48 429.005C179.798 432.278 176.932 431.534 174.399 429.426C171.866 427.316 173.134 426.677 165.106 426.046C157.076 425.417 148.204 411.684 147.995 408.517C147.783 405.35 145.882 401.972 143.982 399.856C142.082 397.745 141.027 396.053 142.507 394.154C143.982 392.246 146.727 390.144 144.407 385.702C142.084 381.268 143.56 378.946 146.519 375.78C149.475 372.606 152.222 370.076 154.123 366.06C156.022 362.044 161.515 360.57 164.262 361.837C167.007 363.102 168.059 363.945 170.808 363.529C173.554 363.106 174.399 362.472 175.244 363.945C176.09 365.43 176.09 366.904 180.103 370.498C184.116 374.092 183.48 380.426 182.847 382.326C182.214 384.226 181.159 384.013 181.366 385.913C181.578 387.814 180.735 391.198 179.68 390.988C178.622 390.774 178.202 390.774 176.51 392.889C170.446 400.462 166.796 392.46 165.95 390.35C165.106 388.241 166.376 385.702 171.866 387.605C177.354 389.502 176.09 382.96 175.244 381.057C174.399 379.161 173.766 378.738 172.498 378.946C171.231 379.156 170.383 379.581 168.486 378.31C166.58 377.042 164.05 376.834 162.148 378.31C158.446 381.192 157.712 381.484 157.712 381.484C155.15 383.617 154.847 384.796 154.847 384.796C153.115 386.138 152.92 389.792 154.464 391.525C156 393.254 157.156 393.832 156 395.562C154.848 397.298 154.655 400.374 158.694 401.909C162.732 403.449 164.464 405.369 168.115 409.03C171.772 412.68 173.696 412.105 175.43 411.145C177.158 410.182 178.506 408.257 181.583 410.95C186.426 415.182 188.703 412.872 190.43 411.337C192.16 409.794 192.354 408.45 196.202 407.296C203.372 405.148 205.972 401.753 205.972 401.753C209.944 398.245 209.368 396.252 207.735 394.733C206.098 393.212 205.74 391.225 208.547 389.705C215.226 386.092 212.288 382.569 210.883 381.749C209.482 380.93 206.796 378.829 209.603 377.07C212.407 375.32 211.582 372.749 208.896 371.226C206.208 369.71 204.103 368.302 208.308 365.492C212.534 362.684 209.603 358.013 206.796 356.489C199.894 352.749 200.938 352.633 202.934 350.29C204.815 348.078 201.878 343.157 198.724 341.988C195.835 340.921 191.242 339.293 186.796 334.265C182.352 329.232 179.308 331.113 178.607 332.281C177.906 333.45 172.878 339.293 169.952 330.99C167.03 322.684 163.052 326.314 161.651 328.068C160.24 329.818 155.447 334.853 153.812 324.91C152.175 314.969 144.104 315.549 142.116 318.36C140.128 321.169 136.97 322.684 136.036 317.194C134.203 306.426 130.186 305.961 122.7 305.73C115.214 305.494 113.578 303.392 118.023 298.126C122.466 292.86 124.103 290.637 119.074 287.598C106.438 279.956 113.462 277.538 114.979 276.486C116.504 275.436 123.052 269.352 117.788 263.741C112.524 258.125 114.63 257.306 118.959 255.201C123.284 253.096 126.562 247.364 120.594 239.761C114.63 232.156 117.906 231.344 122.235 231.105C135.338 230.398 135.235 221.58 135.564 217.54C135.564 213.677 135.682 207.597 141.53 211.105C146.936 214.348 157.319 214.968 159.308 209C160.688 204.858 161.763 200.226 166.796 204.557C171.824 208.884 178.086 203.972 178.37 197.421C178.607 192.156 179.195 190.402 184.22 193.09C191.204 196.832 194.515 189.584 194.862 185.493C195.158 182.112 194.751 179.408 198.724 180.346C202.698 181.281 206.328 179.528 203.636 175.201C201.763 172.197 202.816 171.222 204.224 170.521C205.627 169.82 207.183 167.82 206.328 165.142C205.504 162.568 202.234 163.268 201.064 165.373C199.082 168.941 197.79 169.35 196.154 168.882C194.515 168.416 191.242 169.001 190.068 170.285C188.903 171.573 187.259 174.496 184.807 171.924C179.087 165.932 169.952 166.894 163.402 170.638C156.855 174.382 150.771 181.984 149.016 185.96C147.264 189.934 144.22 188.998 143.051 187.597C140.134 184.1 134.758 179.134 132.64 177.422C129.888 175.193 132.48 169.354 136.94 169.354" fill="black"/>
<path d="M213.572 35.4934H221.865L217.799 23.3404L213.572 35.4934ZM224.817 44.5804L222.868 38.462H212.613L210.608 44.5804H206.459L215.561 19.4194H220.136L229 44.5804H224.817Z" fill="black"/>
<path d="M200.813 41.6805C200.76 40.8735 200.722 40.086 200.695 39.3171C200.671 38.5506 200.657 37.8026 200.657 37.0743V19.4194H204.183V44.5804H199.001L187.826 21.7053C187.93 22.7855 188.012 23.7132 188.065 24.4858C188.116 25.2597 188.143 25.9129 188.143 26.4481V44.5804H184.685V19.4194H190.134L200.813 41.6805Z" fill="black"/>
<path d="M165 44.16V19H181V21.7594H169.239V29.8558H180.657V32.6743H169.239V41.4006H181V44.16H165Z" fill="black"/>
<path d="M142.647 37.2921H146.83V37.7535C146.83 39.359 147.172 40.5254 147.858 41.2611C148.546 41.9931 149.634 42.361 151.126 42.361C152.539 42.361 153.702 41.9981 154.618 41.2697C155.534 40.5414 155.992 39.626 155.992 38.5224C155.992 37.0793 154.203 35.3852 150.621 33.4401C150.111 33.1559 149.718 32.9393 149.445 32.7905C146.64 31.2353 144.86 29.9706 144.1 28.9987C143.339 28.0268 142.958 26.8358 142.958 25.4271C142.958 23.5177 143.749 21.9687 145.326 20.7815C146.905 19.5942 148.97 19 151.527 19C154.147 19 156.151 19.5659 157.54 20.6965C158.926 21.826 159.622 23.4611 159.622 25.5969V26.2268H155.646V25.699C155.646 24.358 155.288 23.3417 154.576 22.6491C153.858 21.9564 152.79 21.6082 151.373 21.6082C150.076 21.6082 148.996 21.9367 148.145 22.5888C147.292 23.2433 146.864 24.059 146.864 25.0359C146.864 26.6488 148.793 28.525 152.651 30.6608C153.36 31.0483 153.905 31.3485 154.29 31.5638C156.575 32.8618 158.083 33.9605 158.809 34.8586C159.536 35.758 159.899 36.8172 159.899 38.0352C159.899 40.2547 159.13 41.9698 157.591 43.1829C156.048 44.3947 153.875 45 151.057 45C148.252 45 146.142 44.4193 144.729 43.2567C143.317 42.0953 142.607 40.363 142.607 38.0611C142.607 37.9836 142.612 37.8568 142.626 37.687C142.639 37.516 142.647 37.3844 142.647 37.2921Z" fill="black"/>
<path d="M125.109 44.5804V19.4194H139.597V22.179H128.946V30.2756H139.284V33.0942H128.946V41.8208H139.597V44.5804H125.109Z" fill="black"/>
<path d="M120.321 36.8183V37.3806C120.321 39.7686 119.593 41.63 118.137 42.9661C116.68 44.3022 114.652 44.9703 112.053 44.9703C110.821 44.9703 109.669 44.8165 108.6 44.5101C107.53 44.2038 106.666 43.7818 106.013 43.2479C104.909 42.3719 104.132 41.1108 103.678 39.4622C103.227 37.8136 103 35.1426 103 31.448C103 28.8681 103.14 26.8848 103.424 25.4971C103.705 24.1105 104.18 22.9503 104.85 22.0178C105.505 21.0864 106.454 20.3703 107.692 19.8696C108.932 19.3701 110.371 19.1191 112.009 19.1191C114.645 19.1191 116.655 19.7601 118.037 21.0396C119.422 22.3191 120.114 24.1818 120.114 26.6289H116.033V26.2537C116.033 24.7539 115.69 23.6344 114.999 22.8962C114.311 22.158 113.27 21.7889 111.879 21.7889C111 21.7889 110.228 21.9366 109.564 22.2318C108.902 22.5271 108.367 22.9589 107.96 23.5261C107.553 24.0945 107.265 24.957 107.093 26.1085C106.923 27.2613 106.838 29.45 106.838 32.6771C106.838 36.4837 107.21 39.034 107.95 40.3296C108.695 41.6238 110.002 42.271 111.882 42.271C113.38 42.271 114.486 41.8478 115.202 41.0025C115.917 40.1549 116.276 38.8581 116.276 37.1074V36.8183H120.321Z" fill="black"/>
<path d="M276.321 36.6991V37.2614C276.321 39.6494 275.593 41.5109 274.137 42.847C272.68 44.1831 270.652 44.8512 268.053 44.8512C266.821 44.8512 265.669 44.6973 264.6 44.391C263.53 44.0847 262.666 43.6627 262.013 43.1287C260.909 42.2527 260.132 40.9916 259.678 39.343C259.227 37.6944 259 35.0235 259 31.3289C259 28.7489 259.14 26.7657 259.424 25.3779C259.705 23.9914 260.18 22.8312 260.85 21.8986C261.505 20.9673 262.454 20.2512 263.692 19.7505C264.932 19.251 266.371 19 268.009 19C270.645 19 272.655 19.641 274.037 20.9205C275.422 22.2 276.114 24.0627 276.114 26.5098H272.033V26.1345C272.033 24.6348 271.69 23.5152 270.999 22.777C270.311 22.0389 269.27 21.6697 267.879 21.6697C267 21.6697 266.228 21.8174 265.564 22.1127C264.902 22.408 264.367 22.8397 263.96 23.4069C263.553 23.9753 263.265 24.8378 263.093 25.9894C262.923 27.1422 262.838 29.3309 262.838 32.558C262.838 36.3645 263.21 38.9149 263.95 40.2104C264.695 41.5047 266.002 42.1518 267.882 42.1518C269.38 42.1518 270.486 41.7286 271.202 40.8834C271.917 40.0357 272.276 38.739 272.276 36.9882V36.6991H276.321Z" fill="black"/>
<path d="M244.5 44.5H240.5V19.5H256.5V22.5H244.5V30.5H256.5V33.5H244.5V44.5Z" fill="black"/>
</svg>
