<?xml version="1.0" encoding="UTF-8" standalone="no"?>
<svg
   clip-rule="evenodd"
   fill-rule="evenodd"
   stroke-linejoin="round"
   stroke-miterlimit="2"
   viewBox="0 0 300 300"
   version="1.1"
   id="svg25"
   sodipodi:docname="Charlton.svg"
   width="300"
   height="300"
   xmlns:inkscape="http://www.inkscape.org/namespaces/inkscape"
   xmlns:sodipodi="http://sodipodi.sourceforge.net/DTD/sodipodi-0.dtd"
   xmlns="http://www.w3.org/2000/svg"
   xmlns:svg="http://www.w3.org/2000/svg">
  <defs
     id="defs25" />
  <sodipodi:namedview
     id="namedview25"
     pagecolor="#ffffff"
     bordercolor="#000000"
     borderopacity="0.25"
     inkscape:showpageshadow="2"
     inkscape:pageopacity="0.0"
     inkscape:pagecheckerboard="0"
     inkscape:deskcolor="#d1d1d1" />
  <g
     fill-rule="nonzero"
     id="g25"
     transform="translate(-130,-50)">
    <path
       d="M 130,200 C 130,117.157 197.155,50 279.998,50 362.841,50 430,117.157 430,200 430,282.843 362.841,350 279.998,350 197.155,350 130,282.843 130,200"
       fill="#ffffff"
       id="path1" />
    <path
       d="m 135.7,200.001 c 0,-79.698 64.602,-144.302 144.298,-144.302 79.696,0 144.302,64.604 144.302,144.302 C 424.3,279.696 359.694,344.3 279.998,344.3 200.302,344.3 135.7,279.696 135.7,200.001"
       id="path2" />
    <g
       fill="#ffffff"
       id="g21">
      <path
         d="m 179.674,199.999 c 0,-55.41 44.917,-100.324 100.324,-100.324 55.411,0 100.328,44.914 100.328,100.324 0,55.41 -44.917,100.327 -100.328,100.327 -55.407,0 -100.324,-44.917 -100.324,-100.327"
         id="path3" />
      <path
         d="m 197.921,105.049 c -2.298,-0.338 -4.592,0.549 -6.228,2.19 -2.923,2.941 -2.644,7.169 0.225,10.021 2.915,2.899 7.021,2.99 9.997,-0.003 1.556,-1.569 2.358,-3.89 2.157,-6.089 l 5.761,5.728 c -1.095,2.081 -1.874,3.598 -3.362,5.091 -2.56,2.573 -5.973,4.048 -9.618,4.23 -3.86,0.207 -7.189,-1.251 -9.934,-3.984 -2.523,-2.507 -3.997,-5.878 -4.054,-9.444 -0.064,-3.669 1.421,-7.411 4.004,-10.008 1.532,-1.545 3.289,-2.625 5.291,-3.46 z"
         id="path4" />
      <path
         d="m 217.613,92.882 -5.415,-8.475 5.71,-3.647 14.025,21.963 -5.71,3.646 -5.748,-9.002 -8.241,5.263 5.745,9.004 -5.707,3.641 -14.026,-21.959 5.711,-3.647 5.413,8.475 z"
         id="path5" />
      <path
         d="m 239.415,95.055 -0.239,4.868 -6.802,2.321 1.058,-27.901 7.001,-2.389 17.713,21.489 -6.836,2.331 -3.064,-3.736 z m 0.121,-14.285 -0.065,0.02 0.034,8.758 5.331,-1.822 z"
         id="path6" />
      <path
         d="m 280.502,91.379 -8.384,0.915 -7.445,-9.275 -0.066,0.007 1.088,9.965 -6.738,0.734 -2.819,-25.91 10.068,-1.097 c 5.119,-0.554 9.268,1.462 9.87,6.993 0.389,3.574 -1.267,6.883 -4.871,7.936 z m -16.366,-12.683 0.651,-0.069 c 2.201,-0.24 4.629,-0.923 4.32,-3.739 -0.306,-2.819 -2.822,-2.963 -5.022,-2.721 l -0.651,0.069 z"
         id="path7" />
      <path
         d="m 288.525,86.607 8.102,0.551 -0.387,5.724 -14.861,-1.008 1.76,-26.002 6.759,0.457 z"
         id="path8" />
      <path
         d="m 307.797,95.534 -6.601,-1.514 4.535,-19.807 -5.456,-1.248 1.28,-5.594 17.515,4.012 -1.28,5.593 -5.455,-1.25 z"
         id="path9" />
      <path
         d="m 345.195,96.28 c -3.597,7.627 -11.603,10.42 -19.168,6.852 -7.562,-3.571 -10.494,-11.527 -6.897,-19.152 3.363,-7.129 11.976,-9.178 18.755,-5.98 6.786,3.204 10.677,11.153 7.31,18.28 m -19.702,-9.263 c -1.918,4.066 -0.319,8.448 3.336,10.175 3.661,1.727 8.059,0.171 9.981,-3.89 1.531,-3.252 -0.067,-7.638 -3.722,-9.361 -3.659,-1.727 -8.063,-0.171 -9.595,3.076 z"
         id="path10" />
      <path
         d="m 357.521,89.662 5.15,4.399 -0.904,20.172 0.05,0.044 10.343,-12.115 5.154,4.397 -16.921,19.82 -5.153,-4.395 0.933,-20.203 -0.053,-0.046 -10.367,12.148 -5.153,-4.399 z"
         id="path11" />
      <path
         d="m 207.878,310.486 -3.89,2.934 -6.141,-3.736 22.107,-17.051 6.323,3.846 -5.167,27.362 -6.168,-3.755 0.907,-4.749 z m 11.048,-9.054 -0.057,-0.035 -6.701,5.632 4.813,2.927 z"
         id="path12" />
      <path
         d="m 232.115,327.855 -6.275,-2.55 7.649,-18.83 -5.19,-2.108 2.16,-5.311 16.652,6.759 -2.16,5.314 -5.187,-2.105 z"
         id="path13" />
      <path
         d="m 261.989,319.285 1.919,-9.872 6.647,1.293 -4.971,25.579 -6.655,-1.293 2.043,-10.481 -9.602,-1.868 -2.042,10.481 -6.648,-1.294 4.978,-25.579 6.648,1.294 -1.918,9.873 z"
         id="path14" />
      <path
         d="m 279.78,330.833 8.119,0.055 -0.04,5.738 -14.895,-0.103 0.182,-26.057 6.775,0.045 z"
         id="path15" />
      <path
         d="m 296.358,315.136 0.618,4.314 7.559,-1.084 0.819,5.676 -7.565,1.088 0.641,4.448 7.973,-1.145 0.816,5.678 -14.677,2.108 -3.705,-25.799 14.676,-2.105 0.817,5.679 z"
         id="path16" />
      <path
         d="m 323.706,329.536 -6.473,1.999 -5.99,-19.422 -5.351,1.651 -1.69,-5.482 17.176,-5.294 1.69,5.479 -5.351,1.65 z"
         id="path17" />
      <path
         d="m 339.303,323.194 -6.174,2.781 -10.706,-23.758 6.174,-2.783 z"
         id="path18" />
      <path
         d="m 351.934,295.722 c -2.167,-0.831 -4.599,-0.474 -6.557,0.767 -3.497,2.222 -4.159,6.405 -1.989,9.821 2.204,3.47 6.188,4.462 9.752,2.202 1.864,-1.184 3.158,-3.275 3.446,-5.467 l 4.351,6.859 c -1.525,1.789 -2.617,3.096 -4.401,4.225 -3.06,1.947 -6.722,2.632 -10.313,2.005 -3.809,-0.649 -6.736,-2.806 -8.808,-6.075 -1.908,-3.006 -2.604,-6.614 -1.871,-10.11 0.749,-3.588 3.02,-6.91 6.11,-8.875 1.838,-1.166 3.789,-1.832 5.93,-2.207 z"
         id="path19" />
      <path
         d="m 367.293,306.427 -0.78,0.612 -4.931,-6.273 -1.693,1.326 -0.568,-0.722 4.176,-3.285 0.571,0.722 -1.71,1.346 z"
         id="path20" />
      <path
         d="m 364.572,296.561 7.306,3.601 -2.361,-7.801 7.471,6.006 -0.773,0.657 -4.776,-3.848 -0.017,0.013 1.951,6.729 -6.315,-3.017 -0.017,0.014 3.027,5.331 -0.776,0.66 z"
         id="path21" />
    </g>
    <path
       d="m 185.644,200.001 c 0,-52.113 42.246,-94.357 94.354,-94.357 52.116,0 94.358,42.244 94.358,94.357 0,52.11 -42.243,94.355 -94.358,94.355 -52.108,0 -94.354,-42.245 -94.354,-94.355"
       fill="#d4021d"
       id="path22" />
    <g
       fill="#ffffff"
       id="g24">
      <path
         d="m 270.27,257.742 c 0.685,0.458 0.776,1.232 0.826,1.736 0.202,1.962 -1.091,3.685 -1.481,5.7 -0.453,2.353 0.447,4.33 1.337,6.361 0.661,1.493 1.783,2.624 3.043,3.636 3.258,2.604 7.431,3.261 11.351,1.709 3.89,-1.541 6.017,-5.036 7.011,-9.04 0.675,-2.731 -1.179,-4.846 -1.535,-7.389 -0.027,-0.188 0.437,-0.615 0.548,-0.567 9.718,4.175 18.006,10.329 26.347,17.251 0.594,0.492 1.165,1.651 2.223,1.091 12.94,-6.822 23.347,-15.69 31.869,-28.222 0.37,-0.539 -0.155,-1.058 -0.628,-1.234 -11.421,-4.293 -22.641,-7.031 -34.939,-9.339 -8.035,-1.51 -15.506,-1.352 -23.475,-3.22 -0.813,-0.19 -1.303,-1.345 -1.71,-1.365 -8.049,-0.486 -16.117,-0.754 -24.173,0.089 -1.054,2.274 -1.538,4.723 0.161,7.175 0.528,0.762 0.111,1.955 -0.363,2.963 -0.55,1.18 -0.228,2.503 0.612,3.581 0.867,1.117 2.546,1.84 1.834,3.36 -0.588,1.246 -1.142,2.352 -0.847,3.737 0.219,1.058 1.17,1.437 1.989,1.987"
         id="path23" />
      <path
         d="m 266.884,225.823 c -5.247,0.266 -11.627,1.352 -15.302,-3.433 -1.474,-1.92 -1.128,-5.324 -3.877,-6.164 -2.543,-0.774 -5.001,0.265 -6.258,2.638 -1.162,2.206 -1.149,4.714 -0.292,6.949 1.092,2.844 3.802,5.101 6.621,5.41 21.866,2.429 43.055,-1.55 65.059,1.831 4.061,0.622 9.18,7.809 13.171,3.227 0.944,-6.912 -6.96,-9.426 -12.443,-10.32 -7.639,-1.246 -15.009,0.221 -22.49,-0.767 -1.539,-27.207 -0.098,-54.382 -1.334,-81.619 -0.446,-9.88 -4.041,-19.697 -10.423,-27.56 -5.019,7.13 -8.258,15.418 -8.932,23.89 -2.275,28.517 0.12,56.725 -2.023,85.275 -0.009,0.138 -0.883,0.615 -1.477,0.643"
         id="path24" />
    </g>
  </g>
</svg>
