<?xml version="1.0" encoding="UTF-8" standalone="no"?>
<svg
   width="2500"
   height="2499.988"
   viewBox="0 0 209.477 209.475"
   version="1.1"
   id="svg30"
   sodipodi:docname="Chelsea.svg"
   xmlns:inkscape="http://www.inkscape.org/namespaces/inkscape"
   xmlns:sodipodi="http://sodipodi.sourceforge.net/DTD/sodipodi-0.dtd"
   xmlns="http://www.w3.org/2000/svg"
   xmlns:svg="http://www.w3.org/2000/svg">
  <defs
     id="defs30" />
  <sodipodi:namedview
     id="namedview30"
     pagecolor="#ffffff"
     bordercolor="#000000"
     borderopacity="0.25"
     inkscape:showpageshadow="2"
     inkscape:pageopacity="0.0"
     inkscape:pagecheckerboard="0"
     inkscape:deskcolor="#d1d1d1" />
  <path
     fill="#dba111"
     d="m 209.477,104.7375 c 0,57.851 -46.895,104.738 -104.737,104.738 C 46.892,209.4765 0,162.5875 0,104.7375 0,46.894501 46.892,-4.9880991e-4 104.738,-4.9880991e-4 162.582,-4.9880991e-4 209.477,46.894501 209.477,104.7375"
     id="path1" />
  <path
     fill="#034694"
     d="m 205.982,104.7375 c 0,55.917 -45.327,101.244 -101.245,101.244 -55.918,0 -101.246,-45.326 -101.246,-101.244 0,-55.917999 45.329,-101.2459988 101.247,-101.2459988 55.916,0 101.244,45.3279998 101.244,101.2459988"
     id="path2" />
  <path
     fill="#dba111"
     d="m 176.889,104.7375 c 0,39.849 -32.304,72.146 -72.151,72.146 -39.85,0 -72.153,-32.298 -72.153,-72.146 0,-39.851999 32.304,-72.152999 72.153,-72.152999 39.848,-0.001 72.151,32.302 72.151,72.152999"
     id="path3" />
  <path
     fill="#ffffff"
     d="m 174.705,104.7375 c 0,38.644 -31.33,69.968 -69.968,69.968 -38.643,0 -69.967,-31.325 -69.967,-69.968 0,-38.641999 31.325,-69.967999 69.967,-69.967999 38.639,0.001 69.968,31.326 69.968,69.967999"
     id="path4" />
  <path
     fill="#dba111"
     d="m 44.787,165.1005 c 0.773,0.739 2.679,2.553 2.679,2.553 l 1.826,-1.923 -5.446,-5.19 -0.701,0.733 -7.312,7.666 2.775,2.644 c 0,0 2.346,-2.459 3.203,-3.355 l 2.438,2.321 1.827,-1.918 -2.435,-2.325 c 0.455,-0.481 0.686,-0.723 1.146,-1.206 m 13.133,8.754 c -0.246,-1.471 -1.072,-2.77 -2.32,-3.655 a 5.635,5.635 0 0 0 -4.206,-0.991 c -1.583,0.269 -3.006,1.191 -4.008,2.595 -0.999,1.411 -1.402,3.057 -1.133,4.646 0.248,1.466 1.066,2.756 2.312,3.644 1.246,0.886 2.749,1.24 4.218,0.993 1.583,-0.268 3.006,-1.19 4.004,-2.599 0.799,-1.114 1.216,-2.393 1.216,-3.67 0,-0.319 -0.027,-0.646 -0.083,-0.963 m -7.82,4.072 c -1.271,-0.9 -0.222,-2.782 0.521,-3.817 0.738,-1.043 2.173,-2.655 3.444,-1.756 1.328,0.949 0.087,3.002 -0.508,3.836 -0.599,0.841 -2.126,2.687 -3.457,1.737 z m 16.38,-1.165 c -2.931,-1.482 -6.319,-0.268 -7.877,2.818 -0.779,1.542 -0.932,3.234 -0.43,4.759 0.464,1.415 1.47,2.571 2.834,3.257 a 5.61,5.61 0 0 0 4.317,0.35 c 1.522,-0.495 2.793,-1.621 3.567,-3.162 1.564,-3.094 0.525,-6.54 -2.411,-8.022 m -3.241,8.575 c -0.344,0.112 -0.67,0.077 -1.039,-0.106 -0.582,-0.297 -0.786,-0.826 -0.786,-1.417 0,-0.817 0.394,-1.781 0.727,-2.439 0.578,-1.144 1.752,-2.948 3.146,-2.245 0.367,0.188 0.587,0.431 0.698,0.771 0.233,0.703 -0.001,1.859 -0.629,3.097 -0.626,1.232 -1.417,2.107 -2.117,2.339 z m 9.293,-4.332 -0.54,1.546 c 0,0 1.379,0.484 1.798,0.622 l -2.961,8.456 3.612,1.267 c 0,0 2.438,-6.938 2.964,-8.449 l 1.802,0.627 0.875,-2.494 -7.215,-2.531 -0.335,0.956 m 15.002,3.352 -4.884,-1.03 -0.209,0.992 -2.182,10.362 4.969,1.055 c 1.588,0.328 2.634,-0.062 3.23,-0.447 0.757,-0.493 1.288,-1.305 1.492,-2.272 0.056,-0.264 0.083,-0.519 0.083,-0.77 0,-0.699 -0.223,-1.33 -0.623,-1.872 0.56,-0.444 0.959,-1.071 1.125,-1.854 0.042,-0.203 0.066,-0.432 0.066,-0.67 0.003,-1.328 -0.755,-3.011 -3.067,-3.494 m -1.345,7.912 c -0.052,0.237 -0.146,0.55 -0.326,0.667 -0.166,0.107 -0.483,0.121 -0.896,0.032 0,0 -0.188,-0.042 -0.41,-0.085 0.158,-0.748 0.265,-1.246 0.419,-1.994 0.212,0.05 0.484,0.104 0.484,0.104 0.641,0.135 0.764,0.608 0.764,0.952 0,0.139 -0.017,0.256 -0.035,0.324 z m -0.333,-5.546 c 0.43,0.098 0.744,0.254 0.865,0.438 a 0.63,0.63 0 0 1 0.083,0.342 c 0,0.084 -0.011,0.182 -0.033,0.299 -0.065,0.304 -0.154,0.725 -1,0.552 0,0 -0.104,-0.027 -0.25,-0.059 0.134,-0.629 0.198,-0.941 0.335,-1.572 z m 10.692,-0.678 -5.304,10.859 3.028,0.232 1.147,-2.419 c 0.641,0.053 1.283,0.098 1.911,0.148 l 0.827,2.565 4.028,0.313 -4.502,-13.956 -1.135,2.258 m 11.958,8.669 -0.371,-8.812 -3.827,0.161 0.484,11.597 7.669,-0.318 -0.115,-2.783 c 0,-0.001 -2.74,0.115 -3.84,0.155 m 10.498,-1.11 c -0.248,-1.569 -1.367,-8.713 -1.367,-8.713 l -1.003,0.16 -2.784,0.434 1.797,11.472 7.586,-1.191 -0.434,-2.752 c 0,-0.002 -2.707,0.424 -3.795,0.59 m 21.961,-7.715 c -0.031,0.994 -0.617,1.851 -1.531,2.212 -0.507,0.202 -0.99,0.202 -1.476,-0.004 -0.743,-0.318 -1.434,-1.124 -1.848,-2.159 -0.485,-1.221 -0.586,-2.259 -0.267,-2.986 0.22,-0.512 0.649,-0.893 1.308,-1.155 0.714,-0.283 1.39,-0.022 2.316,0.522 l 0.85,0.502 1.413,-2.228 -0.839,-0.551 c -1.54,-1.014 -3.447,-1.219 -5.098,-0.561 -1.531,0.61 -2.719,1.752 -3.347,3.213 -0.637,1.48 -0.637,3.177 0.011,4.783 1.219,3.047 4.662,4.549 7.674,3.342 2.177,-0.868 3.408,-2.521 3.564,-4.78 l 0.071,-1.008 -2.771,-0.205 -0.03,1.063 m 8.933,-3.168 c -0.784,-1.393 -4.307,-7.711 -4.307,-7.711 l -0.881,0.498 -2.465,1.376 5.664,10.133 6.694,-3.74 -1.354,-2.433 c 0.001,0 -2.395,1.336 -3.351,1.877 m 7.448,-15.627 -0.82,0.6 -1.438,1.059 4.701,6.407 c 0.215,0.289 0.215,0.482 0.194,0.596 -0.045,0.331 -0.389,0.688 -0.692,0.908 a 1.21,1.21 0 0 1 -0.816,0.188 c -0.242,-0.035 -0.434,-0.168 -0.604,-0.397 l -4.646,-6.334 -3.096,2.266 4.623,6.304 c 0.686,0.934 1.537,1.484 2.531,1.637 1.115,0.174 2.384,-0.205 3.562,-1.076 2.424,-1.771 2.384,-4.125 1.326,-5.567 l -4.825,-6.591 m 14.103,-2.33 c -0.714,-0.738 -1.593,-1.071 -2.515,-1.021 a 3.135,3.135 0 0 0 -0.887,-1.977 c -0.969,-0.999 -3.133,-1.777 -5.126,0.161 l -3.585,3.468 8.078,8.339 3.646,-3.534 c 1.166,-1.13 1.422,-2.224 1.435,-2.93 0.02,-0.907 -0.352,-1.793 -1.046,-2.506 m -6.102,-0.282 c 0.12,0.129 0.269,0.279 0.269,0.487 0,0.171 -0.094,0.382 -0.373,0.649 l -0.179,0.18 c -0.452,-0.47 -0.667,-0.689 -1.126,-1.162 0.808,-0.74 1.144,-0.423 1.409,-0.154 z m 1.913,2.872 c 0.654,-0.631 1.285,-0.076 1.465,0.112 0.174,0.175 0.371,0.421 0.371,0.634 v 0.008 c -0.004,0.197 -0.17,0.471 -0.471,0.762 0,0 -0.14,0.136 -0.306,0.291 -0.526,-0.546 -0.885,-0.913 -1.413,-1.456 0.156,-0.158 0.354,-0.351 0.354,-0.351 z"
     id="path5" />
  <path
     fill="#ffffff"
     d="m 44.761,164.0245 c 0.316,0.304 2.675,2.554 2.675,2.554 l 0.778,-0.82 -4.346,-4.145 -0.176,0.184 -6.782,7.115 1.671,1.596 c 0,0 2.89,-3.029 3.201,-3.36 l 2.441,2.325 0.779,-0.817 -2.442,-2.323 c 0.284,-0.298 1.922,-2.018 2.201,-2.309 m 10.395,6.793 c -1.077,-0.768 -2.366,-1.073 -3.632,-0.861 -1.389,0.238 -2.635,1.05 -3.517,2.29 -0.884,1.245 -1.239,2.688 -1.003,4.071 0.212,1.27 0.925,2.39 2.003,3.152 a 4.868,4.868 0 0 0 3.649,0.859 c 1.381,-0.231 2.629,-1.046 3.509,-2.278 0.704,-0.995 1.076,-2.12 1.076,-3.235 0,-0.277 -0.024,-0.561 -0.069,-0.838 -0.215,-1.266 -0.93,-2.389 -2.016,-3.16 m -0.981,5.815 c -0.729,1.02 -2.626,3.26 -4.514,1.916 -1.883,-1.335 -0.389,-3.86 0.338,-4.887 0.728,-1.025 2.626,-3.263 4.505,-1.927 1.889,1.349 0.399,3.875 -0.329,4.898 z m 11.962,0.811 c -2.543,-1.285 -5.489,-0.216 -6.854,2.485 -0.688,1.358 -0.824,2.836 -0.388,4.177 0.401,1.219 1.272,2.213 2.455,2.809 1.186,0.604 2.513,0.713 3.737,0.311 1.331,-0.438 2.441,-1.426 3.13,-2.783 1.363,-2.703 0.47,-5.714 -2.08,-6.999 m -4.281,8.462 c -2.059,-1.036 -0.963,-3.761 -0.395,-4.88 0.566,-1.124 2.107,-3.62 4.164,-2.575 0.547,0.272 0.913,0.681 1.086,1.214 0.404,1.232 -0.251,2.827 -0.679,3.675 -0.426,0.84 -1.323,2.313 -2.559,2.719 -0.526,0.179 -1.073,0.125 -1.617,-0.153 z m 11.397,-4.652 -0.292,0.826 1.799,0.633 c -0.16,0.451 -2.964,8.448 -2.964,8.448 l 2.18,0.767 c 0,0 2.808,-7.997 2.963,-8.45 l 1.799,0.628 0.377,-1.062 -5.782,-2.029 -0.08,0.239 m 14.127,3.846 -4.139,-0.873 -0.056,0.25 -2.022,9.624 4.223,0.887 c 1.074,0.226 1.967,0.112 2.658,-0.34 0.598,-0.39 0.999,-1.013 1.163,-1.787 0.042,-0.212 0.066,-0.412 0.066,-0.609 0,-0.842 -0.417,-1.556 -1.163,-2.064 0.863,-0.248 1.481,-0.883 1.681,-1.826 0.034,-0.146 0.054,-0.32 0.054,-0.518 -0.001,-0.965 -0.508,-2.332 -2.465,-2.744 m -1.447,0.851 c 0.696,0.146 1.177,0.413 1.422,0.792 0.142,0.215 0.211,0.467 0.211,0.759 0,0.143 -0.019,0.291 -0.052,0.452 -0.269,1.28 -1.304,1.268 -1.898,1.138 0,0 -0.631,-0.13 -0.995,-0.207 0.085,-0.395 0.564,-2.679 0.647,-3.072 0.264,0.053 0.665,0.138 0.665,0.138 z m -0.318,4.296 c 1.176,0.247 1.36,1.175 1.36,1.737 0,0.241 -0.038,0.415 -0.042,0.443 -0.119,0.556 -0.331,0.933 -0.656,1.142 -0.344,0.23 -0.84,0.274 -1.467,0.146 0,0 -0.753,-0.161 -1.156,-0.241 l 0.735,-3.484 c 0.344,0.07 1.226,0.257 1.226,0.257 z m 11.619,-3.868 -4.812,9.854 1.386,0.104 c 0,0 1.02,-2.144 1.154,-2.416 l 2.938,0.229 c 0.093,0.282 0.827,2.566 0.827,2.566 l 2.389,0.185 -3.576,-11.084 -0.306,0.562 m -0.528,3.962 c 0.231,0.744 0.68,2.179 0.829,2.646 -0.477,-0.034 -1.571,-0.119 -2.042,-0.155 z m 11.069,5.167 -0.373,-8.812 -0.245,0.01 -2.061,0.084 0.423,10.081 6.149,-0.263 -0.055,-1.258 c 0.002,0 -3.393,0.143 -3.838,0.158 m 10.596,-1.026 c -0.076,-0.476 -1.37,-8.724 -1.37,-8.724 l -0.247,0.04 -2.033,0.321 1.562,9.965 6.079,-0.96 -0.194,-1.245 c 0,0.002 -3.361,0.529 -3.797,0.603 m 23.352,-8.576 c -0.036,1.312 -0.807,2.424 -2.008,2.907 -0.699,0.277 -1.389,0.269 -2.056,-0.019 -0.94,-0.397 -1.762,-1.339 -2.26,-2.575 -0.561,-1.411 -0.649,-2.646 -0.259,-3.572 0.304,-0.697 0.883,-1.221 1.729,-1.557 1.105,-0.443 2.123,0.062 2.981,0.572 l 0.215,0.125 0.619,-0.973 -0.207,-0.14 c -1.334,-0.874 -2.982,-1.057 -4.401,-0.488 -1.345,0.539 -2.39,1.533 -2.931,2.807 -0.557,1.29 -0.552,2.785 0.019,4.195 1.061,2.662 4.057,3.971 6.688,2.922 1.908,-0.766 2.944,-2.149 3.082,-4.127 l 0.02,-0.254 -1.22,-0.084 -0.011,0.261 m 7.881,-2.15 c -0.237,-0.416 -4.307,-7.706 -4.307,-7.706 l -0.224,0.125 -1.793,1.003 4.914,8.801 5.373,-3 -0.61,-1.102 c 0.001,0.002 -2.974,1.658 -3.353,1.879 m 7.576,-15.601 -0.207,0.152 -0.824,0.604 4.252,5.793 c 0.285,0.391 0.396,0.778 0.336,1.16 -0.102,0.689 -0.729,1.221 -0.993,1.407 a 1.932,1.932 0 0 1 -1.382,0.33 c -0.448,-0.065 -0.815,-0.303 -1.11,-0.698 l -4.197,-5.726 -1.859,1.371 4.171,5.686 c 0.562,0.767 1.245,1.22 2.033,1.335 1.241,0.188 2.407,-0.503 2.993,-0.931 2.012,-1.479 2.039,-3.33 1.17,-4.508 l -4.383,-5.975 m 13.722,-2.862 c -0.78,-0.808 -1.778,-0.991 -2.813,-0.593 a 2.28,2.28 0 0 0 0.131,-0.733 c 0,-0.6 -0.238,-1.184 -0.719,-1.677 -0.648,-0.668 -2.33,-1.493 -4.049,0.179 l -3.038,2.943 7.015,7.241 3.106,-3.012 c 0.781,-0.752 1.191,-1.562 1.201,-2.383 0.012,-0.715 -0.279,-1.393 -0.834,-1.965 m -4.53,-0.314 c 0,0.508 -0.33,0.924 -0.598,1.185 0,0 -0.466,0.453 -0.729,0.712 -0.283,-0.29 -1.909,-1.966 -2.188,-2.264 0.189,-0.183 0.486,-0.465 0.486,-0.465 0.949,-0.926 1.782,-0.985 2.547,-0.192 0.353,0.361 0.482,0.705 0.482,1.024 z m 1.933,5.255 c -0.288,-0.297 -2.184,-2.258 -2.475,-2.555 0.251,-0.24 0.899,-0.872 0.899,-0.872 1.237,-1.191 2.492,0.071 2.545,0.13 0.392,0.402 0.582,0.784 0.582,1.163 v 0.016 c -0.005,0.416 -0.246,0.852 -0.704,1.305 0.002,-0.001 -0.602,0.58 -0.847,0.813 z"
     id="path6" />
  <path
     fill="#dba111"
     d="m 58.205,35.739501 -4.233,1.142 0.486,1.516 c 0.585,1.839 0.056,3.765 -1.377,5.021 -0.797,0.699 -1.719,1.02 -2.733,0.95 -1.543,-0.104 -3.285,-1.103 -4.657,-2.673 -1.616,-1.853 -2.424,-3.636 -2.32,-5.146 0.07,-1.104 0.606,-2.07 1.635,-2.971 1.136,-0.995 2.576,-0.956 4.529,-0.568 l 1.448,0.286 0.938,-4.055 -1.458,-0.355 c -3.137,-0.776 -6.407,-0.014 -8.741,2.029 -4.57,3.999 -4.942,10.528 -0.867,15.189 3.788,4.33 10.359,4.803 14.644,1.056 3.085,-2.695 4.16,-6.144 3.111,-9.96 l -0.405,-1.461 m 11.496,-21.235 -4.324,2.036 c 0,0 2.414,5.116 3.244,6.879 -1.233,0.58 -2.429,1.144 -3.663,1.727 l -3.248,-6.879 -5.694,2.688 8.671,18.394 5.699,-2.687 c 0,0 -2.687,-5.689 -3.551,-7.534 1.233,-0.578 2.428,-1.143 3.665,-1.726 l 3.55,7.53 5.697,-2.688 -8.669,-18.39 -1.377,0.65 m 19.28,11.395 c -0.277,-1.369 -0.56,-2.763 -0.834,-4.131 l 6.435,-1.298 -0.822,-4.085 -6.438,1.301 c -0.253,-1.252 -0.463,-2.304 -0.718,-3.555 l 6.83,-1.379 -0.825,-4.0839998 -1.498,0.301 -11.507,2.3269998 4.023,19.935 13.108,-2.649 -0.822,-4.083 c 0,0 -5.093,1.026 -6.932,1.4 m 18.593,-17.7039998 -6.305,-0.131 -0.031,1.521 -0.394,18.8109998 13.233,0.277 0.096,-4.404 c 0,0 -5.081,-0.108 -6.938,-0.146 l 0.339,-15.9279998 m 20.43,10.2559998 c -1.636,-1.201 -2.114,-1.684 -1.949,-2.34 0.082,-0.34 0.452,-1.426 1.627,-1.135 0.707,0.182 1.41,0.555 1.725,2.075 l 0.344,1.688 4.163,-1.407 -0.261,-1.312 c -0.512,-2.573 -2.688,-4.765 -5.422,-5.447 -1.957,-0.486 -3.918,-0.227 -5.527,0.74 a 6.35,6.35 0 0 0 -2.93,3.938 c -1.045,4.169 1.767,6.176 3.623,7.506 1.904,1.362 2.39,1.895 2.1,3.033 a 1.351,1.351 0 0 1 -0.628,0.835 c -0.383,0.224 -0.86,0.305 -1.25,0.204 -1,-0.247 -1.435,-0.72 -1.855,-2.015 l -0.511,-1.551 -4.177,1.708 0.403,1.326 c 0.783,2.577 2.652,4.201 5.712,4.967 3.438,0.86 7.608,-0.721 8.647,-4.85 1.084,-4.346 -1.876,-6.525 -3.834,-7.963 m 15.039,10.846 5.856,2.961 1.881,-3.718 c 0,0 -4.256,-2.15 -5.854,-2.959 0.572,-1.141 1.059,-2.1 1.629,-3.237 l 6.222,3.143 1.876,-3.718 -11.838,-5.981 -0.684,1.354 -8.491,16.794 11.938,6.028 1.882,-3.716 -6.313,-3.188 c 0.624,-1.247 1.269,-2.515 1.896,-3.763 m 23.575,1.9 -18.969,9.813 3.629,3.156 c 0,0 3.132,-1.665 4.27,-2.263 l 2.926,2.546 c -0.408,1.21 -1.566,4.612 -1.566,4.612 l 4.998,4.351 8.109,-23.913 -3.397,1.698"
     id="path7" />
  <path
     fill="#ffffff"
     d="m 57.494,36.976501 -2.236,0.607 0.164,0.506 c 0.71,2.232 0.069,4.566 -1.678,6.094 -1.003,0.88 -2.174,1.284 -3.467,1.201 -1.833,-0.123 -3.78,-1.223 -5.354,-3.022 -1.798,-2.059 -2.69,-4.094 -2.572,-5.887 0.093,-1.36 0.76,-2.594 1.983,-3.664 1.605,-1.403 3.629,-1.146 5.395,-0.798 l 0.485,0.094 0.489,-2.118 -0.486,-0.121 c -2.818,-0.692 -5.743,-0.017 -7.831,1.812 -4.131,3.618 -4.463,9.527 -0.769,13.754 3.418,3.909 9.344,4.337 13.212,0.959 2.805,-2.46 3.748,-5.459 2.797,-8.924 l -0.132,-0.493 m 12.639,-21.559 -3.402,1.607 3.241,6.876 c -0.728,0.346 -4.769,2.252 -5.502,2.595 -0.375,-0.801 -3.238,-6.877 -3.238,-6.877 l -3.866,1.821 7.807,16.555 3.864,-1.819 -3.552,-7.531 c 0.733,-0.345 4.77,-2.247 5.502,-2.594 0.381,0.811 3.552,7.533 3.552,7.533 l 3.858,-1.824 -7.807,-16.555 -0.457,0.213 m 18.051,11.678 c -0.159,-0.795 -1.074,-5.324 -1.231,-6.12 l 6.433,-1.299 -0.422,-2.091 -6.437,1.296 c -0.154,-0.78 -0.961,-4.765 -1.114,-5.544 0.853,-0.175 6.824,-1.377 6.824,-1.377 L 91.814,9.8685012 80.8,12.089501 l 3.623,17.943 11.118,-2.245 -0.422,-2.093 -6.935,1.401 m 18.353,-17.9049998 -4.271,-0.092 -0.009,0.504 -0.377,17.7969998 11.208,0.238 0.051,-2.376 -6.938,-0.146 c 0.024,-0.949 0.336,-15.9239998 0.336,-15.9249998 m 21.391,4.8049998 c 1.357,0.34 2.142,1.247 2.474,2.853 l 0.116,0.562 2.228,-0.752 -0.084,-0.439 c -0.44,-2.193 -2.316,-4.067 -4.675,-4.66 -1.693,-0.422 -3.382,-0.201 -4.758,0.625 a 5.367,5.367 0 0 0 -2.469,3.317 c -0.877,3.497 1.402,5.125 3.23,6.432 1.85,1.323 2.965,2.228 2.489,4.104 a 2.312,2.312 0 0 1 -1.093,1.462 2.728,2.728 0 0 1 -2.016,0.317 c -1.351,-0.338 -2.044,-1.063 -2.571,-2.683 l -0.172,-0.518 -2.312,0.942 0.136,0.443 c 0.671,2.208 2.304,3.607 4.99,4.281 2.951,0.736 6.528,-0.599 7.41,-4.114 0.918,-3.687 -1.502,-5.469 -3.459,-6.9 -1.662,-1.227 -2.666,-2.047 -2.324,-3.401 0.301,-1.211 1.305,-2.261 2.86,-1.871 m 18.18,6.987 6.216,3.14 0.967,-1.907 -10.025,-5.064 -0.229,0.452 -8.027,15.888 10.119,5.113 0.964,-1.905 -6.308,-3.19 c 0.364,-0.725 2.449,-4.844 2.812,-5.57 0.771,0.391 5.855,2.959 5.855,2.959 l 0.969,-1.906 c 0,0 -5.09,-2.567 -5.861,-2.959 l 2.548,-5.051 m 20.977,11.118 -17.639,9.128 1.972,1.714 4.27,-2.263 3.97,3.454 c -0.188,0.558 -1.572,4.608 -1.572,4.608 l 3.348,2.909 6.814,-20.096 -1.163,0.546 m -9.356,7.528 c 0.835,-0.432 2.966,-1.539 4.268,-2.215 -0.484,1.382 -1.282,3.658 -1.588,4.543 a 794.885,794.885 0 0 0 -2.68,-2.328 z"
     id="path8" />
  <path
     fill="#d1d3d4"
     d="m 154.777,101.9895 c -1.446,-3.831999 -6.428,-5.495999 -11.137,-3.719999 -1.963,0.739 -3.572,1.974999 -4.668,3.431999 3.109,-8.873999 15.773,-10.756999 15.773,-19.012999 0,-13.837 -19.65,-9.961 -16.791,0.002 0,-4.521 7.193,-5.349 7.193,0 0,5.351 -12.544,8.858 -12.544,17.895999 0,9.964 9.965,10.886 8.955,19.997 -0.171,1.572 -1.859,3.637 -4.307,3.637 -15.262,0 -9.814,-18.789 -15.146,-24.506999 l 0.278,-3.86 c 3.083,1.892 11.263,-2.538 5.878,-9.289 0,3.32 -6.913,3.137 -6.913,-3.137 0,-8.487 7.936,-4.059 8.32,-2.184 -0.38,-3.092 -0.524,-5.054 -0.015,-6.834 -4.277,1.379 -4.678,-1.094 -4.137,-2.051 0.62,-1.105 1.448,-2.398 3.115,-2.398 0.9,0 1.441,0.125 1.76,0.345 0.533,0.365 0.923,-0.468 0.847,0.307 0.457,-0.696 0.273,0.174 0.717,-0.525 0.449,-0.694 1.056,-1.479 2.12,-2.525 l -0.046,-1.564 1.246,0.457 1.195,-1.936 c -1.291,-2.677 -3.043,-1.388 -4.333,-4.707 -1.079,-0.279 -17.888,1.548 -17.399,-5.157 -1.37,0 -4.616,0.752 -2.607,3.481 -1.562,0.188 -2.688,-1.586 -5.043,3.212 2.95,-0.553 1.423,2.745 1.423,3.684 0,6.078 -8.093,5.977 -8.093,3.129 -1.951,1.896 -0.844,6.04 2.105,7.061 0,0 -1.122,4.433 -3.891,7.244 -4.111,-0.164 -10.706,-0.878 -14.5,-4.464 -1.636,-1.545 -2.935,-2.389 -4.042,-2.82 v -2.009 c 1.62,-0.793 3.396,-2.196 5.242,-4.541 1.439,-1.759 2.22,-4.014 2.01,-6.409 a 9.63,9.63 0 0 0 -0.12,-0.844 c -0.016,-0.088 -0.037,-0.173 -0.058,-0.26 a 6.77,6.77 0 0 0 -0.144,-0.569 c -0.026,-0.092 -0.052,-0.188 -0.081,-0.277 a 7.654,7.654 0 0 0 -0.206,-0.556 c -0.031,-0.076 -0.054,-0.158 -0.09,-0.229 a 8.516,8.516 0 0 0 -0.341,-0.707 c -0.053,-0.094 -0.109,-0.181 -0.161,-0.268 -0.085,-0.139 -0.166,-0.28 -0.255,-0.415 a 16.073,16.073 0 0 0 -0.225,-0.322 c -0.078,-0.103 -0.161,-0.208 -0.242,-0.311 -0.089,-0.11 -0.178,-0.228 -0.273,-0.336 a 3.56,3.56 0 0 0 -0.198,-0.208 8.918,8.918 0 0 0 -1.32,-1.183 l -0.128,-0.093 c -0.17,-0.12 -0.344,-0.236 -0.526,-0.349 -0.011,-0.007 -0.021,-0.012 -0.029,-0.021 a 10,10 0 0 0 -6.02,-1.437 c -5.308,0.423 -9.254,4.857 -8.811,9.908 0.345,3.934 3.245,7.076 7.019,8.078 -1.323,0.737 -2.441,1.165 -2.694,1.165 0.042,0.026 0.097,0.058 0.156,0.097 l 0.052,0.026 c 0.052,0.033 0.112,0.067 0.174,0.101 l 0.05,0.027 0.271,0.135 0.05,0.02 a 3.95,3.95 0 0 0 0.356,0.152 c 0.23,0.096 0.491,0.183 0.775,0.264 0.041,0.012 0.083,0.021 0.117,0.031 0.115,0.029 0.232,0.056 0.354,0.085 l 0.123,0.024 c 0.151,0.026 0.312,0.054 0.472,0.073 0.014,0 0.027,0.008 0.04,0.008 v 1.143 c -0.06,0.013 -0.114,0.02 -0.17,0.028 -1.727,0.283 -2.849,0.814 -3.356,2.353 -0.504,1.543 0.015,2.102 0.823,3.184 -0.683,1.221 -2.473,1.678 -0.137,4.375 -0.17,1.019 0.045,2.642 1.528,3.134 0.483,0.164 0.887,0.251 1.312,0.325 L 75.427,108.7995 c -1.479,0.783 -2.208,1.762 -2.612,2.672 0,0 -1.187,-2.635 -1.107,2.586 1.349,-1.047 0.817,1.212 0.817,1.212 -1.837,2.38 0.496,2.251 0.496,2.251 1.582,-1.581 1.259,0.715 1.259,0.715 0,2.802 1.139,3.896 1.147,3.901 v 15.408 l -1.343,0.005 0.013,4.251 2.351,-0.004 c -1.318,0.548 -2.188,1.85 -2.062,3.288 0.16,1.813 1.835,3.163 3.744,3.016 1.907,-0.153 3.324,-1.744 3.161,-3.562 -0.108,-1.255 -0.939,-2.279 -2.07,-2.75 l 2.168,-0.006 -0.009,-4.253 -1.293,0.007 0.002,-13.67 c 0.267,0.146 0.555,0.247 0.868,0.315 0.125,0.023 0.249,0.04 0.375,0.049 0.056,0.008 0.113,0.008 0.17,0.011 -0.349,-1.798 0.726,-2.988 0.726,-2.988 0.551,-0.83 1.35,-1.478 2.256,-1.935 2.713,-1.359 6.416,-1.017 7.522,1.199 7.012,-1.848 13.037,-8.896 13.037,-8.896 l 3.451,5.874 c -7.317,2.446 -23.257,16.303 -12.192,21.102 -0.004,1.396 -0.191,11.765 -6.839,10.941 -9.574,-1.181 -11.962,2.78 -10.124,7.233 -0.864,3.756 2.028,5.06 2.028,5.06 -0.435,-2.169 0.608,-3.966 4.564,-3.943 -0.02,3.957 2.536,4.67 2.536,4.67 0.018,-3.388 2.373,-4.643 4.464,-4.633 -0.016,2.791 3.229,3.853 3.229,3.853 0,0 -0.822,-3.218 2.844,-3.853 9.283,-1.618 0.564,-11.165 14.681,-13.796 0,0 -7.028,-1.061 -7.028,-4.902 0,-3.497 6.362,-5.89 8.553,-5.89 4.493,8.584 9.375,8.652 10.653,8.713 1.988,2.223 1.322,9.714 -1.551,9.566 -10.514,-0.564 -10.13,5.832 -8.951,7.14 -0.135,2.483 1.798,3.917 1.798,3.917 0,-2.661 2.531,-3.41 5.778,-3.234 -0.17,3.252 1.9,3.737 1.9,3.737 0.057,-3.271 2.478,-3.827 4.197,-3.737 -0.126,2.293 2.149,2.97 2.149,2.97 0,0 -0.225,-2.91 2.84,-2.91 5.812,-0.004 -2.629,-12.459 8.713,-24.777 -9.963,4.613 -15.264,-6.916 -15.264,-9.129 5.121,5.992 21.726,7.189 21.726,-3.048 0,-9.779 -10.748,-13.423 -5.721,-17.164 2.925,-2.175 8.677,2.219 5.387,6.757 4.719,-1.748 7.349,-6.318 5.903,-10.146 m -63.678,0.305 c -3.756,2.208 -6.275,5.002 -9.699,6.225 -0.52,0.184 -0.935,0.234 -1.295,0.211 V 89.645501 c 0.907,0.085 3.262,0.407 6.015,1.545 2.727,1.488 2.727,4.563 -0.714,5.292 2.174,4.163999 9.708,2.125 11.351,-1.266 0.804,-0.071 1.515,1.365 2.184,2.722 -1.06,0.549 -3.223,1.64 -7.842,4.358999 z m 42.044,-31.643999 c -0.412,0.562 -0.82,1.118 -1.177,1.597 a 4.958,4.958 0 0 0 4.708,2.392 4.953,4.953 0 0 0 4.463,-5.382 c -0.017,-0.099 -0.029,-0.188 -0.042,-0.284 -0.29,1.407 -1.948,2.599 -4.059,2.792 -1.594,0.149 -3.04,-0.31 -3.893,-1.115 z"
     id="path9" />
  <path
     fill="#034694"
     d="m 72.442,59.166501 c 0,0.003 -0.007,0.01 -0.007,0.017 h -0.002 a 4.056,4.056 0 0 1 0.009,-0.017 m 0.173,80.061999 c 0.004,-0.003 0.011,-0.003 0.013,-0.008 h -0.001 c -0.003,0.007 -0.007,0.007 -0.012,0.008 z M 72.496,51.017501 h 0.005 z m -1.436,87.741999 2.351,-0.003 a 3.26,3.26 0 0 0 -0.782,0.465 c 0.232,-0.089 0.48,-0.144 0.744,-0.144 a 2.133,2.133 0 0 1 0,4.266 2.115,2.115 0 0 1 -2.022,-1.492 v 0.193 c 0.161,1.817 1.833,3.168 3.744,3.011 1.905,-0.148 3.322,-1.743 3.165,-3.558 -0.112,-1.25 -0.941,-2.275 -2.072,-2.746 l 2.167,-0.009 -0.01,-4.253 -1.293,0.008 v -13.672 a 3.297,3.297 0 0 1 -1.711,-3.552 c 0.809,0 1.533,0.21 2.017,0.541 -0.747,1.645 1.111,3.386 1.111,3.386 -0.348,-1.798 0.724,-2.984 0.724,-2.984 0.557,-0.832 1.354,-1.48 2.257,-1.938 2.717,-1.361 6.417,-1.018 7.522,1.197 7.012,-1.846 13.038,-8.896 13.038,-8.896 l 3.453,5.871 c 8.094,0 5.275,-6.062 4.748,-6.591 1.861,0 4.482,1.371 4.482,4.406 0,7.455 -21.67,8.518 -21.67,17.565 0,3.799 3.767,5.244 3.767,5.244 0,8.249 -5.665,13.149 -9.54,13.149 -6.196,0 -10.941,-1.255 -10.941,5.501 h 2.16 c -2.052,2.053 -0.137,5.062 -0.137,5.062 -0.433,-2.167 0.613,-3.961 4.569,-3.941 h 2.469 c -1.568,1.567 -0.652,3.947 0.069,4.674 0.015,-3.393 2.366,-4.646 4.46,-4.635 h 1.792 c -0.487,0.48 0.295,2.711 1.438,3.85 0,0 -0.826,-3.215 2.845,-3.85 9.279,-1.617 0.561,-11.164 14.677,-13.799 0,0 -7.024,-1.058 -7.024,-4.904 0,-3.491 6.359,-5.889 8.546,-5.889 1.725,-0.246 3.367,-0.185 4.771,0.117 0.571,5.543 6.935,5.272 8.32,5.272 5.397,5.398 -1.372,14.063 -1.372,14.063 -8.284,0 -11.562,1.144 -11.562,5.968 h 1.567 c -0.879,0.883 -0.381,3.311 0.226,3.916 0,-2.662 2.536,-3.406 5.783,-3.234 h 1.707 c -0.832,0.832 -0.687,2.857 0.196,3.736 0.048,-3.272 2.473,-3.828 4.193,-3.736 h 1.424 c -0.533,0.537 0,2.244 0.73,2.976 0,0 -0.226,-2.913 2.837,-2.916 5.812,0 -2.633,-12.459 8.718,-24.777 -9.963,4.615 -15.27,-6.918 -15.27,-9.131 5.122,5.995 21.729,7.191 21.729,-3.043 0,-8.258 -7.66,-12.139 -7.025,-15.398 a 4.886,4.886 0 0 1 4.869,-4.450999 4.889,4.889 0 0 1 4.886,4.890999 4.88,4.88 0 0 1 -3.062,4.536 c 0.004,0 0.004,-0.004 0.004,-0.004 -0.004,0.004 -0.01,0.01 -0.01,0.018 4.715,-1.748 7.348,-6.319 5.91,-10.146999 -1.451,-3.831 -6.434,-5.5 -11.139,-3.724 -1.972,0.744 -3.572,1.975 -4.669,3.435 3.104,-8.873 15.771,-10.753 15.771,-19.013 0,-13.836 -19.651,-9.959 -16.792,0.004 0,-0.149 0.009,-0.298 0.026,-0.441 0.501,-5.632 10.568,-6.783 10.568,0.559 0,6.272 -12.894,9.749 -12.894,18.188 0,8.666999 9.523,10.833999 9.523,19.954999 0,1.086 -0.574,5.763 -6.901,5.763 -6.104,0 -9.039,-3.412 -10.706,-7.866 -3.109,-6.008 -1.968,-15.386 -5.47,-19.135999 l 0.277,-3.857 c 3.085,1.894 11.268,-2.54 5.893,-9.291 0,3.324 -6.919,3.136 -6.919,-3.135 0,-8.487 7.932,-4.059 8.315,-2.186 -0.381,-3.089 -0.529,-5.057 -0.008,-6.831 -4.283,1.375 -4.678,-1.096 -4.146,-2.055 0.627,-1.108 1.455,-2.398 3.119,-2.398 2.404,0 2.252,0.883 2.125,2.126 0.919,-1.389 1.18,-2.434 3.316,-4.523 l -0.045,-1.569 1.239,0.461 1.205,-1.938 c -1.289,-2.677 -3.042,-1.383 -4.338,-4.705 -1.074,-0.281 -15.205,-1.586 -14.717,-8.293 -1.25,0 -4.654,4.312 -2.353,6.62 h -2.934 c -1.569,0.187 -5.23,-0.909 -7.582,3.887 5.787,-5.785 9.542,8.018 -1.115,8.018 v -0.004 c -1.572,0.004 -2.921,-0.652 -3.013,-1.761 -1.062,4.658 5.652,6.108 5.652,6.108 0,1.384 -3.363,8.877 -4.998,10.51 1.102,1.103 1.443,7.755 -3.65,7.755 1.837,-4.967 -3.564,-9.175 -8.812,-11.959 h 0.007 c -0.95,-0.36 -1.854,-0.8 -2.693,-1.328 -3.221,-1.473 -5.84,-2.301 -5.84,-2.301 v -3.894 c 1.62,-0.794 3.396,-2.198 5.242,-4.542 1.441,-1.757 2.218,-4.012 2.007,-6.409 a 6.692,6.692 0 0 0 -0.122,-0.845 c -0.013,-0.087 -0.033,-0.17 -0.051,-0.257 a 7.259,7.259 0 0 0 -0.146,-0.568 9.748,9.748 0 0 0 -0.287,-0.838 c -0.031,-0.077 -0.058,-0.151 -0.09,-0.228 a 9.472,9.472 0 0 0 -0.342,-0.701 c -0.049,-0.097 -0.108,-0.184 -0.159,-0.275 -0.085,-0.138 -0.167,-0.275 -0.256,-0.41 -0.074,-0.106 -0.146,-0.218 -0.226,-0.325 -0.078,-0.103 -0.157,-0.208 -0.24,-0.307 a 6.088,6.088 0 0 0 -0.275,-0.34 4.342,4.342 0 0 0 -0.196,-0.21 8.976,8.976 0 0 0 -0.771,-0.74 c -0.027,-0.021 -0.05,-0.052 -0.077,-0.071 a 7.504,7.504 0 0 0 -0.475,-0.368 c -0.043,-0.027 -0.083,-0.063 -0.126,-0.094 a 10.198,10.198 0 0 0 -0.526,-0.349 c -0.011,-0.005 -0.021,-0.014 -0.032,-0.019 a 9.977,9.977 0 0 0 -6.019,-1.438 c -0.475,0.038 -0.937,0.123 -1.388,0.22 -3.057,1.171 -5.28,4.749 -5.28,8.983 0,3.99 1.978,7.392 4.76,8.75 0.038,0.01 0.078,0.025 0.118,0.036 -1.326,0.737 -2.444,1.165 -2.698,1.165 0.043,0.026 0.1,0.058 0.16,0.099 0.017,0.007 0.032,0.016 0.049,0.025 0.054,0.03 0.109,0.062 0.177,0.098 0.017,0.009 0.031,0.018 0.05,0.024 0.079,0.042 0.172,0.092 0.268,0.139 a 0.158,0.158 0 0 1 0.049,0.022 c 0.084,0.04 0.176,0.075 0.273,0.116 a 7.79,7.79 0 0 0 0.862,0.298 l 0.118,0.032 c 0.111,0.029 0.229,0.056 0.35,0.081 0.041,0.011 0.083,0.018 0.126,0.027 0.152,0.028 0.309,0.056 0.473,0.076 a 0.06,0.06 0 0 1 0.036,0.01 c 1.012,0.083 2.209,-0.168 2.209,-0.168 v 2.259 c -0.182,0 -1.771,-0.513 -2.209,-0.949 -0.054,0.008 -0.112,0.019 -0.17,0.029 -1.723,0.282 -2.846,0.812 -3.352,2.352 -0.505,1.543 0.014,2.101 0.821,3.184 -0.688,1.217 -2.473,1.676 -0.141,4.375 -0.166,1.017 0.047,2.643 1.528,3.136 0.484,0.164 0.889,0.247 1.312,0.322 0.878,0 2.209,0.732 2.209,2.555 V 105.4735 c 0.799,0.046 1.667,0.154 2.455,0.223 V 86.604501 c 0.908,0.087 3.264,0.41 6.013,1.544 a 0.656,0.656 0 0 1 0.083,0.052 c -0.002,-0.002 -0.005,-0.002 -0.005,-0.005 0.251,0.031 0.506,0.086 0.759,0.161 1.831,0.562 2.971,2.151 2.542,3.559 -0.427,1.403 -2.265,2.088 -4.092,1.526 2.17,4.167 9.708,2.128 11.351,-1.263 0.8,-0.071 1.512,1.365 2.182,2.72 0,0 1.888,0.724 6.562,0.724 0,0 -18.929,12.084999 -24.402,12.084999 -2.339,0 -7.527,0 -7.527,1.769 -1.426,0 -3.48,2.423 -3.48,3.809 1.348,-1.053 2.445,-1.053 2.445,-1.053 1.149,0 1.796,0.344 1.796,0.344 -0.421,0.416 -2.31,2.549 -2.31,4.202 1.582,-1.584 2.272,-1.577 2.272,-1.577 0,0 1.652,-0.214 2.241,0.38 -0.397,0.396 -1.095,1.828 -1.095,3.522 0,0 0.981,-1.894 2.208,-1.894 v 18.169 c 0,0.556 -2.507,1.088 -3.54,1.088 m 0.786,-52.675999 c -0.468,0.018 -0.688,-0.589 -0.692,-0.809 -0.011,-0.222 0.164,-0.84 0.629,-0.857 1.109,-0.038 3.327,0.494 3.335,0.712 0.009,0.216 -2.164,0.913 -3.272,0.954 z m -0.715,-2.999 c -0.644,-0.045 -0.855,-0.915 -0.833,-1.221 0.02,-0.299 0.357,-1.13 1.001,-1.082 1.534,0.114 4.51,1.185 4.484,1.486 -0.019,0.307 -3.12,0.93 -4.652,0.817 z m -0.264,-3.842 c -0.681,-0.18 -0.736,-1.154 -0.655,-1.477 0.086,-0.321 0.612,-1.143 1.296,-0.965 1.623,0.425 4.604,2.17 4.521,2.49 -0.084,0.321 -3.538,0.377 -5.162,-0.048 z m 5.027,-10.826 c 0.282,-0.673 0.222,-1.591 0.047,-2.455 l -0.087,0.002 a 3.534,3.534 0 0 1 -3.535,-3.533 2.164,2.164 0 0 1 0.13,-0.954 h 0.002 c 0,-0.007 0.004,-0.014 0.007,-0.016 a 3.535,3.535 0 0 1 3.396,-2.566 3.537,3.537 0 0 1 3.533,3.537 c 0,2.252 -1.586,4.326 -3.493,5.985 z"
     id="path10" />
  <path
     fill="#ed1c24"
     d="m 128.918,69.209501 a 4.94,4.94 0 0 0 4.705,2.39 4.947,4.947 0 0 0 4.462,-5.383 c -0.01,-0.096 -0.028,-0.189 -0.04,-0.285 -0.289,1.405 -1.954,2.6 -4.06,2.794 -1.602,0.15 -3.044,-0.309 -3.896,-1.113 -0.409,0.563 -0.821,1.119 -1.171,1.597"
     id="path11" />
  <path
     fill="#ffffff"
     d="m 122.318,60.044501 1.707,0.09 -0.854,1.171 c 0,10e-4 -1.14,0.361 -0.853,-1.261 m -4.071,0 h 2.459 c 0,0 -0.089,1.983 1.707,2.162 l -0.382,0.632 c 0,0 -4.825,-1.261 -3.784,-2.794 z"
     id="path12" />
  <path
     fill="#6a7ab5"
     d="m 76.014,76.998501 c 0.085,-0.32 -2.897,-2.065 -4.521,-2.49 -0.685,-0.177 -1.21,0.645 -1.295,0.966 -0.083,0.322 -0.027,1.297 0.653,1.477 1.625,0.423 5.08,0.367 5.163,0.047 m -0.245,2.977 c 0.025,-0.302 -2.95,-1.372 -4.484,-1.486 -0.644,-0.048 -0.981,0.783 -1.001,1.082 -0.021,0.307 0.189,1.175 0.834,1.221 1.531,0.112 4.632,-0.51 4.651,-0.817 z m -3.378,-8.978 v 1.141 c 0.437,0.438 2.027,0.949 2.208,0.949 v -2.259 c 10e-4,10e-4 -1.195,0.252 -2.208,0.169 z m -0.622,11.126 c -0.466,0.019 -0.641,0.636 -0.629,0.857 0.004,0.22 0.227,0.826 0.692,0.809 1.107,-0.04 3.28,-0.737 3.271,-0.955 -0.008,-0.217 -2.226,-0.75 -3.334,-0.711 z M 69.486,112.2295 c -1.835,2.377 -0.514,4.546 -0.514,4.546 0,-1.654 1.889,-3.785 2.311,-4.201 -0.001,-0.001 -0.648,-0.345 -1.797,-0.345 z m 5.853,5.044 a 3.3,3.3 0 0 0 2.578,3.863 c 0.131,0.03 0.254,0.046 0.382,0.061 l 0.168,0.005 c 0,0 -1.858,-1.739 -1.111,-3.385 -0.485,-0.334 -1.208,-0.544 -2.017,-0.544 z M 71.981,68.750501 c -2.781,-1.357 -4.76,-4.76 -4.76,-8.75 0,-4.234 2.224,-7.812 5.28,-8.983 -4.588,1.018 -7.825,5.094 -7.42,9.69 0.343,3.895 3.188,7.008 6.9,8.043 z m 29.536,-9.765 c 2.953,-0.556 3.954,2.069 3.954,3.01 0,3.559 -2.771,4.992 -5.069,5.006 v 0.002 c 10.659,-0.001 6.903,-13.803 1.115,-8.018 z m -7.124,30.629 c 5.094,0 4.751,-6.653 3.65,-7.757 1.634,-1.633 4.998,-9.126 4.998,-10.51 0,0 -6.724,-1.45 -5.649,-6.115 -0.002,-0.003 -0.002,-0.005 -0.002,-0.009 l -0.09,-0.016 c -1.833,1.933 -0.718,5.965 2.188,6.971 0,0 -1.121,4.433 -3.891,7.245 -2.757,-0.107 -6.622,-0.47 -10.016,-1.769 5.247,2.785 10.649,6.994 8.812,11.96 z m -19.898,-31.944 c 1.316,-0.105 2.477,0.829 2.589,2.087 0.108,1.252 -0.872,2.359 -2.191,2.464 -1.322,0.106 -2.483,-0.828 -2.589,-2.085 a 3.534,3.534 0 0 0 3.535,3.532 l 0.088,-0.002 c 0.175,0.864 0.235,1.783 -0.047,2.455 1.907,-1.658 3.493,-3.732 3.493,-5.986 a 3.534,3.534 0 1 0 -6.938,-0.954 c 0.308,-0.817 1.089,-1.432 2.06,-1.511 z m 37.538,-2.571 c -2.305,-2.307 1.1,-6.62 2.352,-6.62 -1.369,0 -7.3,3.883 -5.286,6.62 z m -29.678,38.341 c 1.827,0.562 3.665,-0.123 4.092,-1.526 0.429,-1.407 -0.712,-2.995 -2.542,-3.559 a 4.916,4.916 0 0 0 -0.759,-0.161 c 2.643,1.508 2.612,4.531 -0.791,5.246 z m -5.3,-19.415 c 0,0 2.619,0.829 5.84,2.301 a 11.406,11.406 0 0 1 -1.799,-1.366 c -1.635,-1.545 -2.936,-2.388 -4.041,-2.816 z m 0.993,33.679999 c 5.475,0 24.403,-12.084999 24.403,-12.084999 -4.676,0 -6.563,-0.724 -6.563,-0.724 -1.056,0.551 -3.222,1.638 -7.838,4.356 -3.757,2.210999 -6.275,5.006999 -9.7,6.227999 -0.521,0.189 -0.937,0.233 -1.294,0.214 -0.788,-0.067 -1.656,-0.176 -2.455,-0.223 V 88.091501 c 0,-1.823 -1.331,-2.556 -2.208,-2.556 V 105.7625 c -1.48,0.785 -2.209,1.761 -2.609,2.672 0,0 -2.822,-0.376 -2.742,4.849 0,-1.387 2.056,-3.81 3.48,-3.81 -0.001,-1.768 5.187,-1.768 7.526,-1.768 z m 47.216,27.982 c -1.387,0 -7.75,0.27 -8.32,-5.272 -1.405,-0.303 -3.049,-0.362 -4.771,-0.117 4.498,8.584 9.381,8.652 10.658,8.719 1.987,2.218 1.321,9.707 -1.551,9.558 -10.516,-0.562 -10.13,5.838 -8.95,7.146 0,-4.823 3.277,-5.967 11.562,-5.967 -10e-4,-0.004 6.769,-8.669 1.372,-14.067 z m 2.162,20.712 h -1.424 c -0.12,2.299 2.154,2.976 2.154,2.976 -0.73,-0.731 -1.263,-2.438 -0.73,-2.976 z m -13.307,3.236 c -0.604,-0.606 -1.104,-3.034 -0.226,-3.918 h -1.566 c -0.131,2.487 1.792,3.918 1.792,3.918 z m 31.389,-79.865999 c 0,-7.343 -10.071,-6.188 -10.568,-0.551 0.444,-4.133 7.173,-4.743 7.173,0.434 0,5.351 -12.549,8.854 -12.549,17.896 0,9.963999 9.962,10.885999 8.954,19.993999 -0.17,1.577 -1.858,3.638 -4.306,3.638 -5.245,0 -8.052,-2.227 -9.683,-5.372 1.667,4.453 4.602,7.866 10.707,7.866 6.327,0 6.901,-4.676 6.901,-5.762 0,-9.12 -9.525,-11.289 -9.525,-19.955999 0.003,-8.438 12.896,-11.915 12.896,-18.187 z M 71.244,115.1985 c 0,2.812 1.146,3.901 1.146,3.901 0,-1.694 0.697,-3.128 1.095,-3.522 -0.588,-0.592 -2.241,-0.379 -2.241,-0.379 z m 72.772,-15.541999 a 4.885,4.885 0 0 0 -4.87,4.450999 c 0.116,-0.599 0.517,-1.181 1.295,-1.764 2.93,-2.177 8.669,2.208 5.396,6.739 a 4.882,4.882 0 0 0 3.062,-4.536 4.887,4.887 0 0 0 -4.883,-4.889999 z M 121.611,156.3995 h -1.707 c -0.176,3.248 1.903,3.736 1.903,3.736 -0.881,-0.878 -1.029,-2.904 -0.196,-3.736 z m -48.239,-17.322 c -0.265,0 -0.511,0.055 -0.745,0.145 a 3.18,3.18 0 0 0 -1.277,2.63 2.115,2.115 0 0 0 2.022,1.491 2.133,2.133 0 1 0 0,-4.266 z m 11.996,15.772 H 82.9 c -0.021,3.956 2.538,4.674 2.538,4.674 -0.723,-0.727 -1.638,-3.107 -0.07,-4.674 z m 7.654,-25.017 c 0,-9.048 21.67,-10.11 21.67,-17.565 0,-3.035 -2.62,-4.406 -4.482,-4.406 0.526,0.528 3.346,6.591 -4.748,6.591 -7.319,2.448 -23.258,16.304 -12.194,21.105 -0.005,1.394 -0.192,11.761 -6.837,10.946 -9.572,-1.186 -11.96,2.771 -10.123,7.226 0,-6.757 4.745,-5.501 10.941,-5.501 3.875,0 9.54,-4.899 9.54,-13.15 -0.001,-0.002 -3.767,-1.446 -3.767,-5.246 z m -18.422,5.546 v -18.17 c -1.228,0 -2.208,1.895 -2.208,1.895 v 15.501 -0.1 l -1.342,0.004 0.011,1.958 c 1.032,-0.001 3.539,-0.534 3.539,-1.088 z m 3.73,23.412 c 0,0 -1.916,-3.01 0.137,-5.062 h -2.16 c -0.868,3.759 2.023,5.062 2.023,5.062 z m 13.359,-3.902 h -1.792 c -0.014,2.793 3.23,3.851 3.23,3.851 -1.142,-1.139 -1.925,-3.371 -1.438,-3.851 z"
     id="path13" />
  <path
     fill="none"
     d="M 179.756,83.967501"
     id="path14" />
  <path
     fill="#ffffff"
     d="m 31.431,124.7245 -0.119,-0.367 -0.051,-0.381 c -0.175,-1.307 -0.491,-3.741 -2.37,-4.177 -0.502,-0.116 -1.021,-0.057 -1.576,0.171 0.151,-0.578 0.134,-1.102 -0.048,-1.581 -0.692,-1.802 -3.145,-1.778 -4.463,-1.762 h -0.387 l -0.382,-0.07 c -1.294,-0.238 -3.708,-0.688 -4.699,0.964 -0.267,0.441 -0.372,0.953 -0.327,1.549 -0.501,-0.323 -1.007,-0.469 -1.517,-0.443 -1.93,0.103 -2.666,2.441 -3.061,3.702 l -0.121,0.364 -0.179,0.341 c -0.632,1.16 -1.804,3.312 -0.538,4.769 0.338,0.39 0.793,0.65 1.374,0.788 -0.459,0.38 -0.756,0.813 -0.885,1.312 -0.504,1.86 1.496,3.283 2.566,4.047 l 0.314,0.23 0.271,0.273 c 0.907,0.961 2.594,2.736 4.369,1.984 0.471,-0.202 0.859,-0.553 1.171,-1.062 0.223,0.555 0.542,0.967 0.973,1.25 1.616,1.048 3.586,-0.412 4.646,-1.191 l 0.313,-0.229 0.348,-0.171 c 1.19,-0.569 3.406,-1.622 3.239,-3.544 -0.044,-0.517 -0.26,-0.988 -0.646,-1.441 0.595,-0.035 1.084,-0.216 1.483,-0.539 1.503,-1.212 0.722,-3.536 0.302,-4.786"
     id="path15" />
  <path
     fill="#ed1c24"
     d="m 22.983,126.2825 c 10.789,6.377 7.467,-0.637 7.229,-1.674 -0.239,-1.032 -0.33,-8.789 -7.229,1.674 m -0.678,1.596 c -2.729,12.227 2.912,6.904 3.822,6.361 0.909,-0.547 8.258,-3.031 -3.822,-6.361 m -1.732,-0.149 c -12.478,1.179 -5.668,4.901 -4.867,5.598 0.802,0.693 5.432,6.917 4.867,-5.598 m -0.392,-1.697 c -4.979,-11.5 -6.416,-3.874 -6.831,-2.896 -0.414,0.972 -4.903,7.304 6.831,2.896"
     id="path16" />
  <path
     fill="#ffffff"
     d="m 198.388,123.0345 -0.179,-0.341 -0.121,-0.365 c -0.396,-1.261 -1.133,-3.601 -3.055,-3.702 -0.517,-0.024 -1.021,0.119 -1.521,0.438 0.046,-0.592 -0.064,-1.103 -0.325,-1.544 -0.995,-1.653 -3.405,-1.203 -4.7,-0.965 l -0.386,0.07 h -0.386 c -1.312,-0.018 -3.767,-0.04 -4.457,1.762 -0.188,0.479 -0.202,1.004 -0.055,1.581 -0.546,-0.227 -1.065,-0.286 -1.571,-0.17 -1.877,0.434 -2.199,2.869 -2.365,4.176 l -0.059,0.381 -0.116,0.367 c -0.422,1.25 -1.2,3.574 0.301,4.789 0.398,0.322 0.886,0.502 1.483,0.538 -0.387,0.453 -0.603,0.927 -0.646,1.442 -0.166,1.922 2.047,2.974 3.239,3.543 l 0.345,0.171 0.312,0.229 c 1.062,0.78 3.034,2.238 4.646,1.191 0.437,-0.284 0.753,-0.695 0.974,-1.251 0.313,0.509 0.698,0.858 1.174,1.062 1.773,0.752 3.463,-1.023 4.369,-1.983 l 0.271,-0.273 0.311,-0.231 c 1.073,-0.763 3.071,-2.187 2.57,-4.046 -0.135,-0.498 -0.425,-0.934 -0.888,-1.312 0.578,-0.138 1.035,-0.398 1.371,-0.788 1.269,-1.458 0.099,-3.609 -0.536,-4.769"
     id="path17" />
  <path
     fill="#ed1c24"
     d="m 188.85,125.1405 c -9.395,-8.288 -1.702,-7.299 -0.645,-7.393 1.053,-0.088 8.462,-2.401 0.645,7.393 m -1.308,1.142 c -10.788,6.377 -7.474,-0.637 -7.23,-1.674 0.236,-1.032 0.325,-8.789 7.23,1.674 m 0.676,1.596 c 2.731,12.227 -2.911,6.904 -3.823,6.361 -0.909,-0.547 -8.254,-3.031 3.823,-6.361 m 1.73,-0.149 c 12.477,1.179 5.672,4.901 4.868,5.598 -0.796,0.693 -5.433,6.917 -4.868,-5.598 m 0.388,-1.697 c 4.981,-11.5 6.416,-3.874 6.832,-2.896 0.413,0.972 4.902,7.304 -6.832,2.896"
     id="path18" />
  <path
     fill="#ffffff"
     d="m 192.76,126.3915 c -0.012,-0.101 -0.044,-0.188 -0.058,-0.286 1.002,-0.735 2.084,-1.523 2.084,-1.523 l -0.104,-0.233 -2.473,0.433 a 3.74,3.74 0 0 0 -2.83,-1.787 590.14,590.14 0 0 1 -0.754,-2.286 l -0.254,0.021 c 0,0 -0.17,1.202 -0.343,2.38 a 3.726,3.726 0 0 0 -1.881,1.199 3.867,3.867 0 0 0 -0.608,1.055 c -1.221,0 -2.51,0.005 -2.51,0.005 l -0.054,0.252 c 0,0 1.201,0.585 2.312,1.129 0.004,0.102 -0.01,0.201 0,0.303 a 3.711,3.711 0 0 0 1.28,2.496 l -0.828,2.582 0.215,0.129 c 0,0 1.013,-1.048 1.914,-1.973 0.471,0.153 0.972,0.215 1.479,0.17 0.51,-0.039 0.994,-0.191 1.434,-0.42 1.045,0.752 2.224,1.604 2.224,1.604 l 0.192,-0.167 c 0,0 -0.669,-1.263 -1.264,-2.393 a 3.75,3.75 0 0 0 0.827,-2.69"
     id="path19" />
  <path
     fill="#ed1c24"
     d="m 188.831,124.5145 a 2.164,2.164 0 0 0 -1.505,0.782 2.216,2.216 0 1 0 3.905,1.229 2.21,2.21 0 0 0 -2.4,-2.011 m -167.159,0.626 c 9.397,-8.288 1.701,-7.299 0.646,-7.393 -1.057,-0.088 -8.465,-2.401 -0.646,7.393"
     id="path20" />
  <path
     fill="#ffffff"
     d="m 25.23,126.7455 c 1.118,-0.543 2.314,-1.13 2.314,-1.13 l -0.057,-0.251 c 0,0 -1.286,-0.005 -2.509,-0.005 a 3.814,3.814 0 0 0 -0.606,-1.055 3.716,3.716 0 0 0 -1.882,-1.199 l -0.339,-2.38 -0.258,-0.021 c 0,0 -0.374,1.152 -0.745,2.286 a 3.743,3.743 0 0 0 -2.838,1.786 l -2.476,-0.432 -0.099,0.233 c 0,0 1.08,0.788 2.081,1.523 -0.016,0.099 -0.045,0.188 -0.056,0.285 a 3.736,3.736 0 0 0 0.832,2.688 c -0.601,1.13 -1.269,2.393 -1.269,2.393 l 0.197,0.166 c 0,0 1.177,-0.853 2.221,-1.604 0.438,0.229 0.922,0.377 1.432,0.42 a 3.67,3.67 0 0 0 1.479,-0.171 l 1.91,1.974 0.223,-0.13 -0.832,-2.577 a 3.744,3.744 0 0 0 1.28,-2.5 c 0.013,-0.098 -0.003,-0.197 -0.003,-0.299"
     id="path21" />
  <path
     fill="#ed1c24"
     d="m 23.197,125.2965 a 2.155,2.155 0 0 0 -1.506,-0.782 2.212,2.212 0 0 0 -2.399,2.011 c -0.05,0.594 0.133,1.162 0.51,1.619 a 2.22,2.22 0 0 0 3.906,-1.234 2.22,2.22 0 0 0 -0.511,-1.614"
     id="path22" />
  <path
     fill="#ffffff"
     d="m 23.046,73.002501 c -5.252,-0.928 -10.282,2.598 -11.21,7.851 -0.927,5.256 2.595,10.285 7.848,11.212 5.257,0.928 10.289,-2.597 11.214,-7.852 0.93,-5.253 -2.594,-10.282 -7.852,-11.211"
     id="path23" />
  <path
     fill="#ed1c24"
     d="m 25.237,80.322501 a 17.88,17.88 0 0 1 -0.412,-0.268 c -0.794,-0.526 -2.351,-1.555 -2.394,-1.586 -0.215,-0.148 -0.425,-0.289 -0.632,-0.428 a 34.872,34.872 0 0 0 -1.892,-1.203 13.483,13.483 0 0 0 -0.659,-0.354 c -0.925,-0.467 -1.812,-0.749 -2.858,-0.841 a 8.591,8.591 0 0 0 -2.074,2.139 c 2.406,0.868 4.756,2.261 9.648,5.299 0.281,-0.644 1.217,-2.637 1.273,-2.758 m -2.256,5.188 c 0.099,-0.244 0.528,-1.332 0.704,-1.751 -5.014,-3.114 -7.342,-4.492 -9.753,-5.345 a 8.436,8.436 0 0 0 -0.837,2.185 c 1.376,1.89 5.065,3.746 9.886,4.911 m -0.543,-7.914 c 1.877,-1.11 4.011,-0.808 5.657,-0.246 a 8.506,8.506 0 0 0 -2.222,-2.024 c -1.556,-0.311 -3.703,-0.358 -5.413,1.001 0.622,0.364 1.264,0.79 1.978,1.269"
     id="path24" />
  <path
     fill="#ed1c24"
     d="m 14.948,86.565501 c 0.251,0.172 0.509,0.336 0.781,0.49 0.554,0.305 1.151,0.569 1.771,0.795 0.262,0.101 0.528,0.191 0.797,0.278 0.939,0.31 3.099,0.87 3.259,0.907 l 1.148,-2.843 c -3.738,-0.927 -7.831,-2.55 -9.775,-4.659 a 8.409,8.409 0 0 0 0.134,2.852 c 0.411,0.895 1.069,1.607 1.885,2.18 m 6.734,3.252 -0.78,-0.2 a 51.125,51.125 0 0 1 -2.304,-0.635 c 0.389,0.829 1,1.475 1.652,1.975 a 8.485,8.485 0 0 0 2.564,-0.049 c -0.597,-0.467 -1.132,-1.091 -1.132,-1.091 m 7.818,-9.752 a 8.605,8.605 0 0 0 -0.704,-1.667 c -1.475,-0.656 -3.718,-1.299 -5.678,-0.34 l 2.702,1.785 c 0.564,-0.05 1.083,-0.066 1.558,-0.054 0.259,0.004 0.5,0.018 0.729,0.041 0.531,0.047 0.982,0.132 1.393,0.235 m -1.384,0.495 c -0.079,4.443 -2.174,7.87 -3.979,10.015 2.825,-0.982 5.053,-3.417 5.609,-6.562 a 8.534,8.534 0 0 0 -0.042,-3.138 7.947,7.947 0 0 0 -1.588,-0.315 m -8.331,-4.611 c 1.265,-1.115 2.759,-1.492 4.138,-1.523 a 7.833,7.833 0 0 0 -1.078,-0.271 8.457,8.457 0 0 0 -5.52,0.902 c 0.869,0.171 1.655,0.476 2.46,0.892"
     id="path25" />
  <path
     fill="#ed1c24"
     d="m 25.925,80.564501 c -0.643,1.339 -1.021,2.159 -1.335,2.905 -0.097,0.226 -0.19,0.445 -0.285,0.674 -0.15,0.374 -0.612,1.537 -0.612,1.537 l -0.274,0.684 -1.194,2.956 c 0.33,0.438 0.729,0.794 1.121,1.071 1.773,-2.022 3.981,-5.423 4.048,-9.874 -0.448,-0.016 -0.939,0.001 -1.469,0.047 m -8.222,8.124 a 15.537,15.537 0 0 1 -1.751,-0.712 c 0.21,0.647 0.512,1.224 0.815,1.716 0.637,0.409 1.336,0.73 2.082,0.96 -0.482,-0.543 -0.899,-1.188 -1.146,-1.964 m -2.627,-1.19 a 8.391,8.391 0 0 1 -1.127,-0.808 8.53,8.53 0 0 0 1.464,1.915 7.052,7.052 0 0 1 -0.337,-1.107"
     id="path26" />
  <path
     fill="#ffffff"
     d="m 178.575,84.213501 c 0.929,5.255 5.956,8.779 11.21,7.852 5.256,-0.927 8.776,-5.957 7.854,-11.212 -0.928,-5.252 -5.957,-8.777 -11.213,-7.851 -5.256,0.929 -8.778,5.958 -7.851,11.211"
     id="path27" />
  <path
     fill="#ed1c24"
     d="m 184.235,80.322501 0.415,-0.268 a 498.92,498.92 0 0 0 3.026,-2.014 31.372,31.372 0 0 1 1.892,-1.203 c 0.225,-0.127 0.443,-0.247 0.657,-0.354 0.923,-0.467 1.813,-0.749 2.858,-0.841 a 8.414,8.414 0 0 1 2.068,2.139 c -2.404,0.868 -4.747,2.261 -9.646,5.299 -0.28,-0.644 -1.212,-2.637 -1.27,-2.758 m 2.257,5.188 c -0.1,-0.244 -0.532,-1.332 -0.698,-1.751 5.004,-3.114 7.339,-4.492 9.749,-5.345 0.372,0.672 0.654,1.404 0.838,2.185 -1.379,1.89 -5.069,3.746 -9.889,4.911 m 0.543,-7.914 c -1.879,-1.11 -4.011,-0.808 -5.658,-0.246 a 8.528,8.528 0 0 1 2.227,-2.024 c 1.554,-0.311 3.699,-0.358 5.407,1.001 a 40.39,40.39 0 0 0 -1.976,1.269"
     id="path28" />
  <path
     fill="#ed1c24"
     d="m 194.521,86.565501 a 8.898,8.898 0 0 1 -0.779,0.49 c -0.551,0.305 -1.147,0.569 -1.766,0.795 -0.265,0.101 -0.533,0.191 -0.801,0.278 -0.936,0.31 -3.096,0.87 -3.258,0.907 -0.037,-0.083 -0.849,-2.083 -1.148,-2.843 3.736,-0.927 7.826,-2.55 9.777,-4.659 a 8.538,8.538 0 0 1 -0.137,2.852 c -0.41,0.895 -1.067,1.607 -1.888,2.18 m -6.728,3.252 0.774,-0.2 a 50.28,50.28 0 0 0 2.312,-0.635 c -0.396,0.829 -1.004,1.475 -1.654,1.975 a 8.47,8.47 0 0 1 -2.562,-0.049 c 0.592,-0.467 1.13,-1.091 1.13,-1.091 m -7.819,-9.752 a 8.206,8.206 0 0 1 0.708,-1.667 c 1.47,-0.656 3.709,-1.299 5.67,-0.34 l -2.7,1.785 a 13.745,13.745 0 0 0 -1.559,-0.054 8.844,8.844 0 0 0 -0.731,0.041 8.864,8.864 0 0 0 -1.388,0.235 m 1.384,0.495 c 0.077,4.443 2.178,7.87 3.983,10.015 -2.833,-0.982 -5.063,-3.417 -5.613,-6.562 a 8.385,8.385 0 0 1 0.044,-3.138 7.91,7.91 0 0 1 1.586,-0.315 m 8.333,-4.611 c -1.266,-1.115 -2.764,-1.492 -4.14,-1.523 a 7.67,7.67 0 0 1 1.079,-0.271 8.449,8.449 0 0 1 5.517,0.902 c -0.866,0.171 -1.653,0.476 -2.456,0.892"
     id="path29" />
  <path
     fill="#ed1c24"
     d="m 183.55,80.564501 a 79.235,79.235 0 0 1 1.341,2.905 l 0.276,0.674 c 0.152,0.374 0.614,1.537 0.614,1.537 l 0.272,0.684 1.196,2.956 a 5.096,5.096 0 0 1 -1.12,1.071 c -1.773,-2.022 -3.984,-5.423 -4.047,-9.874 0.446,-0.016 0.939,0.001 1.468,0.047 m 8.221,8.124 a 15.706,15.706 0 0 0 1.752,-0.712 8.11,8.11 0 0 1 -0.819,1.716 8.495,8.495 0 0 1 -2.078,0.96 c 0.481,-0.543 0.898,-1.188 1.145,-1.964 m 2.629,-1.19 a 8.912,8.912 0 0 0 1.125,-0.808 8.476,8.476 0 0 1 -1.465,1.915 7.63,7.63 0 0 0 0.34,-1.107"
     id="path30" />
</svg>
