<?xml version="1.0" encoding="UTF-8"?>
<!DOCTYPE svg PUBLIC "-//W3C//DTD SVG 1.1//EN" "http://www.w3.org/Graphics/SVG/1.1/DTD/svg11.dtd">
<!-- Creator: CorelDRAW 2019 (64-Bit) -->
<svg xmlns="http://www.w3.org/2000/svg" xml:space="preserve" width="179.198mm" height="222.866mm" version="1.1" style="shape-rendering:geometricPrecision; text-rendering:geometricPrecision; image-rendering:optimizeQuality; fill-rule:evenodd; clip-rule:evenodd"
viewBox="0 0 179.1452 222.8009"
 xmlns:xlink="http://www.w3.org/1999/xlink"
 xmlns:xodm="http://www.corel.com/coreldraw/odm/2003">
 <defs>
  <style type="text/css">
   <![CDATA[
    .fil0 {fill:#1F3461}
    .fil1 {fill:#C31242}
    .fil2 {fill:white}
   ]]>
  </style>
 </defs>
 <g id="Layer_x0020_1">
  <metadata id="CorelCorpID_0Corel-Layer"/>
  <g id="_836782368">
   <path class="fil0" d="M175.1208 36.3341c-38.0128,-34.8358 -86.1912,-32.5072 -86.1912,-32.5072 -42.2488,0.4239 -84.4977,32.5072 -84.4977,32.5072 -0.8469,9.5309 -0.9533,29.5427 -0.3173,38.3315l169.1 0c2.0131,-16.624 1.9062,-38.3315 1.9062,-38.3315z"/>
   <path class="fil1" d="M4.1146 74.5594c5.9297,94.4513 85.2387,143.9001 85.2387,143.9001 61.3081,-32.0837 78.7803,-104.2985 83.8613,-143.9001l-169.1 0z"/>
   <path class="fil1" d="M7.5027 52.3231c0,-4.6587 0.2115,-9.3189 0.5295,-13.9761 3.2823,-2.3301 12.3886,-8.5778 24.5658,-14.8254 14.0828,-7.094 35.2604,-15.6703 56.3316,-15.9891l0.2115 0c0.1063,0 11.9657,-0.5291 28.1661,3.1765 14.5063,3.2832 35.5776,10.6961 54.2131,27.2141 -0.1052,3.6004 -0.4223,23.931 -2.0113,36.6363l7.6248 0c2.0114,-15.9886 2.0114,-37.5894 2.0114,-38.3305l0 -1.6942 -1.1651 -1.0583c-20.5411,-18.5311 -43.6251,-26.5782 -59.4026,-30.1785 -16.8358,-3.7056 -28.907,-3.2832 -29.8596,-3.2832l0.106 0 -0.106 0c-22.4479,0.3187 -44.7903,9.319 -59.6145,16.8369 -15.989,8.1539 -26.4713,16.0943 -27.0009,16.4115l-1.3768 1.0598 0 1.6942c-0.8468,9.3174 -0.9526,29.5427 -0.3173,38.6488l7.5179 0c-0.3179,-3.8124 -0.4237,-18.5302 -0.4237,-22.3425z"/>
   <path class="fil0" d="M169.2971 74.5594c-1.4823,11.4361 -3.9176,25.4131 -8.2591,40.3432 -6.0357,21.177 -14.5064,39.8131 -24.9889,55.5901 -12.6008,18.8483 -28.2719,33.4605 -46.5903,43.5198 -5.9295,-4.024 -25.2008,-18.1067 -43.5191,-41.6137 -12.7065,-16.4127 -22.448,-33.9894 -28.907,-52.5198 -5.1886,-14.6122 -8.2597,-29.86 -9.212,-45.3196l-7.518 0c1.059,16.4126 4.235,32.5074 9.7415,48.0726 6.7763,19.2714 16.9413,37.5897 30.1773,54.6376 22.5539,28.9071 46.0609,43.7314 47.1197,44.3667l1.7999 1.1647 1.9061 -0.9532c20.3302,-10.6946 37.6955,-26.5772 51.3551,-47.2253 10.9061,-16.4127 19.6938,-35.8957 25.9416,-57.8142 4.5536,-15.7768 7.094,-30.4952 8.5778,-42.2487l-7.6247 0z"/>
   <path class="fil2" d="M23.4917 42.475c-0.5295,0.212 -0.953,0.424 -1.271,0.6359 -2.541,1.6942 -2.4351,4.9774 -0.741,7.306 1.5884,2.1182 4.6592,3.7072 7.0944,2.013 0.3177,-0.2119 0.6356,-0.6359 0.953,-0.9546 0.741,1.0598 1.059,1.589 1.7999,2.754 -0.3174,0.424 -0.7409,0.8464 -1.1647,1.1651 -3.9176,2.7526 -9.1062,1.0584 -11.9651,-2.4353 -3.0707,-3.7072 -2.4357,-9.3174 1.5883,-12.1782 0.5294,-0.4224 1.1648,-0.7396 1.9055,-0.8464 0.7417,0.9531 1.059,1.4823 1.8006,2.5406z"/>
   <path class="fil2" d="M26.6683 36.5461c2.4352,4.0244 4.8709,8.1539 7.306,12.1766 1.271,-0.7411 1.906,-1.1651 3.1766,-1.9046 0.6359,1.1636 0.953,1.6942 1.5883,2.8578 -2.4351,1.3771 -3.5996,2.1182 -6.0354,3.6004 -3.1766,-4.8707 -6.3531,-9.7413 -9.53,-14.612 1.4827,-0.8479 2.1179,-1.2703 3.4946,-2.1182z"/>
   <path class="fil2" d="M38.9514 29.9812c0.5294,1.1651 0.8467,1.801 1.3761,2.9645 -1.3761,0.6359 -2.1178,0.9531 -3.494,1.6942 0.6353,1.377 1.0588,2.0129 1.6941,3.3884 1.1646,-0.6344 1.7999,-0.8464 2.9646,-1.4823 0.5293,1.1651 0.8473,1.801 1.3767,2.9645 -1.1648,0.5306 -1.7998,0.8479 -2.8588,1.377 0.7411,1.3771 1.059,2.1167 1.7999,3.4937 1.2705,-0.6344 1.9062,-0.9531 3.1767,-1.5874 0.5293,1.1651 0.8473,1.7994 1.3767,2.9644 -2.5415,1.1651 -3.706,1.7994 -6.1418,3.0712 -2.7528,-5.0826 -5.5059,-10.272 -8.2588,-15.3531 2.7529,-1.4838 4.1291,-2.1181 6.9885,-3.4952z"/>
   <path class="fil2" d="M48.1634 45.0172c-2.3294,-5.2946 -4.6592,-10.6945 -6.9885,-15.9891 1.4826,-0.6359 2.2234,-0.953 3.6004,-1.4822 2.9643,-1.2703 6.9884,-1.3771 8.153,2.3301 0.5295,1.7994 0.3173,3.6003 -1.0589,5.0811 1.9057,2.1181 3.7061,4.343 5.506,6.5664 -1.3767,0.424 -2.012,0.6344 -3.3881,1.1636 -1.9063,-2.2234 -3.8119,-4.34 -5.7181,-6.4582 1.1646,2.9645 1.7998,4.4468 2.965,7.518 -1.1653,0.5291 -1.8005,0.7412 -3.0708,1.2703zm-0.5295 -10.4825l0 0c0.2115,-0.1067 0.3174,-0.1067 0.6353,-0.2119 1.5882,-0.6359 1.7998,-1.801 1.3767,-3.1765 -0.4237,-1.1651 -1.3767,-1.9061 -3.1766,-1.1651 -0.2121,0.1052 -0.3179,0.1052 -0.5295,0.212 0.6352,1.6942 0.9531,2.5406 1.6941,4.3414z"/>
   <path class="fil2" d="M60.0226 22.5685c1.4827,3.1765 2.8588,6.3544 4.2355,9.5309 -0.3179,-3.4952 -0.6352,-6.8836 -0.8474,-10.3773 2.012,-0.4239 3.071,-0.6343 5.083,-1.0583 1.6941,5.6118 3.2823,11.2236 4.8707,16.8354 -1.3767,0.2119 -2.0121,0.3172 -3.3881,0.6343 -1.0589,-4.0227 -2.2242,-8.1523 -3.283,-12.1751 0.1063,1.6927 0.2121,2.6458 0.3177,4.34 0.106,2.7541 0.2116,5.6118 0.3179,8.3658 -0.953,0.2119 -1.4826,0.3172 -2.5414,0.6359 -1.1647,-2.5422 -2.4357,-5.0842 -3.7061,-7.6248 -0.6352,-1.4822 -0.9531,-2.1182 -1.5881,-3.6003 0,-0.1053 -0.1059,-0.212 -0.1059,-0.3172 0.953,4.1296 1.9054,8.1523 2.8587,12.2834 -1.3761,0.4224 -2.1178,0.6344 -3.4939,1.0584 -1.271,-5.7186 -2.4358,-11.4355 -3.6003,-17.1542 1.9056,-0.6343 2.9644,-0.8463 4.8708,-1.377z"/>
   <path class="fil2" d="M85.8587 27.5459c0.1058,3.7056 -1.0588,9.0002 -5.5059,9.4241 -4.447,0.4239 -6.6711,-4.5535 -7.2001,-8.1539 -0.6359,-4.0243 0.6353,-9.3174 5.506,-9.7413 4.8707,-0.5291 7.0942,4.3415 7.2,8.4711zm-5.7174 6.2477l0 0c2.2235,-0.2119 2.1171,-4.6586 2.0114,-6.0357 -0.1059,-1.589 -0.6353,-5.8237 -3.0702,-5.6118 -2.5416,0.2119 -2.1179,4.5535 -2.0121,6.0357 0.1059,1.4823 0.7409,5.8237 3.0709,5.6118z"/>
   <path class="fil2" d="M91.2588 18.6509c1.5883,3.4952 3.071,7.094 4.3414,10.6944 -0.2116,-0.8464 -0.2116,-1.7994 -0.2116,-2.6457 0.1058,-3.178 0.2116,-4.6602 0.3179,-7.8367 1.5883,0.1068 2.3292,0.1068 3.8119,0.2119 -0.4237,5.8238 -0.8475,11.6476 -1.2711,17.4713 -1.2704,-0.1052 -1.9054,-0.1052 -3.1767,-0.2119 -1.2702,-3.6003 -2.5409,-7.094 -4.0233,-10.5892 0.1058,0.7427 0.1058,1.0598 0.2115,1.801 0,0.3171 0,0.4239 0,0.7411 0,3.1765 0,4.7655 0,8.0471 -1.3761,0 -2.0114,0 -3.2823,0 -0.1058,-5.8238 -0.3172,-11.6475 -0.4237,-17.4713 1.4826,-0.2119 2.224,-0.2119 3.706,-0.2119z"/>
   <path class="fil2" d="M111.2718 20.3451c-0.2121,1.2718 -0.318,1.9061 -0.5295,3.1765 -1.1652,-0.2104 -1.8005,-0.3172 -2.965,-0.4224 -0.6353,4.6586 -1.3762,9.4225 -2.012,14.0828 -1.2704,-0.2119 -2.0114,-0.3187 -3.2824,-0.424 0.5295,-4.7654 1.059,-9.4241 1.5883,-14.1895 -1.1647,-0.1052 -1.7999,-0.2104 -2.9643,-0.3172 0.1057,-1.2702 0.2114,-1.9061 0.317,-3.2816 3.2825,0.5291 6.5656,0.9515 9.848,1.3755z"/>
   <path class="fil2" d="M126.9429 24.0507c-0.4237,1.2718 -0.5294,1.9076 -0.9532,3.0712 -1.4825,-0.4224 -2.2233,-0.6343 -3.706,-1.0583 -0.4238,1.4823 -0.6353,2.1182 -0.953,3.6004 1.2709,0.3171 1.9062,0.5291 3.2829,0.9515 -0.4238,1.2718 -0.5295,1.9061 -0.9532,3.0712 -1.271,-0.4239 -1.906,-0.5291 -3.1766,-0.8464 -0.7415,2.7526 -1.1646,4.2348 -1.9062,6.9888 -1.2703,-0.3187 -1.9056,-0.5291 -3.2824,-0.8479 1.3768,-5.7185 2.6473,-11.3304 4.0241,-17.0473 3.0701,0.7411 4.5527,1.1651 7.6237,2.1166z"/>
   <path class="fil2" d="M138.0612 37.4992c-1.5882,3.3884 -5.0829,7.518 -9.2128,5.929 -4.129,-1.5874 -4.0231,-6.9872 -2.8587,-10.5877 1.2704,-3.9176 4.7651,-8.0486 9.3179,-6.2477 4.5535,1.6942 4.4478,7.094 2.7536,10.9064zm-8.1538 2.9644l0 0c2.1179,0.848 3.9182,-3.1764 4.4477,-4.4467 0.6352,-1.4823 2.0113,-5.5066 -0.3178,-6.3528 -2.3294,-0.9531 -4.0234,3.0697 -4.553,4.5519 -0.4235,1.1651 -1.6946,5.4013 0.4231,6.2477z"/>
   <path class="fil2" d="M150.7672 44.1708c-2.0114,3.2816 -6.0354,6.7753 -9.9532,4.6586 -3.9182,-2.1181 -3.1766,-7.4127 -1.5882,-10.9064 1.694,-3.8123 5.7175,-7.4127 10.0592,-5.0826 4.3413,2.4354 3.7057,7.8352 1.4822,11.3304zm-8.4707 1.9046l0 0c2.0114,1.0598 4.3415,-2.6473 5.0823,-3.8108 0.7411,-1.3771 2.6473,-5.1895 0.4237,-6.3545 -2.3297,-1.1635 -4.3411,2.5421 -5.0828,3.9191 -0.6353,1.1635 -2.4349,5.1879 -0.4232,6.2462z"/>
   <path class="fil2" d="M164.8504 43.2177c-0.7411,1.0583 -1.1651,1.5874 -1.9062,2.6473 -0.9531,-0.7427 -1.4823,-1.1651 -2.5422,-1.801 -2.7525,3.9176 -5.5049,7.7299 -8.1522,11.6475 -1.1649,-0.8464 -1.6942,-1.1651 -2.8589,-1.9061 2.6472,-3.9177 5.1881,-7.9404 7.8346,-11.8579 -1.0582,-0.6359 -1.5874,-1.0599 -2.5401,-1.6958 0.6356,-1.0583 1.0594,-1.6942 1.6938,-2.7525 2.8594,1.6942 5.7169,3.6004 8.4711,5.7185z"/>
   <path class="fil2" d="M115.6865 195.4653l-2.2631 -3.8997 7.0235 -12.1022 1.6209 0c-1.297,-3.2412 -3.0254,-6.375 -5.1868,-9.0766l-0.7561 1.4046 -14.0478 0 -7.0234 -12.1021 0.7567 -1.4046c-1.7292,-0.2164 -3.4576,-0.4321 -5.1868,-0.4321 -1.7284,0 -3.5658,0.1082 -5.1869,0.4321l0.7568 1.4046 -7.0235 12.1021 -14.0473 0 -0.7565 -1.4046c-2.1614,2.7016 -3.9981,5.7272 -5.1869,9.0766l1.621 0 7.0234 12.1022 -2.0457 3.5249c10.8206,10.3815 19.8845,16.9314 23.6566,19.4913 9.4615,-5.1957 18.2305,-11.5824 26.2518,-19.1165z"/>
   <path class="fil0" d="M112.9658 191.4587l2.2176 3.8212c2.8201,-2.6487 5.5462,-5.4417 8.175,-8.378 -0.345,-2.5367 -0.9855,-4.9622 -1.9215,-7.3031l-1.5884 0 -6.8827 11.8599z"/>
   <path class="fil0" d="M101.7418 172.081l13.7656 0 0.741 -1.3762c-5.083,-6.2476 -12.2831,-10.589 -20.5419,-11.8592l-0.7417 1.3761 6.777 11.8593z"/>
   <path class="fil0" d="M79.3998 172.081l6.8827 -11.8593 -0.7411 -1.3761c-8.2595,1.2702 -15.5651,5.6117 -20.5423,11.8592l0.7415 1.3762 13.6592 0z"/>
   <path class="fil0" d="M68.1758 191.4587l-6.7764 -11.8599 -1.5884 0c-0.8188,2.2039 -1.4501,4.5202 -1.8277,6.9043 2.8201,3.0219 5.5867,5.8104 8.2455,8.363l1.947 -3.4074z"/>
   <path class="fil2" d="M122.1778 147.3036c0,-2.012 0,-4.0234 0,-5.9296 0.2115,-0.318 1.0591,0.1057 0.9532,-0.8475 0,0 0,-0.1058 0.1059,-0.1058 2.012,-0.2115 2.8586,-1.2703 4.0232,-2.2235 0,0 0,-0.1057 -0.1057,-0.1057 -1.7999,-0.741 -3.5996,-1.4826 -5.4001,-2.2235 -1.0591,-0.3179 -5.4001,1.1647 -6.3534,1.4826 -3.5996,1.0588 -6.8826,2.0114 -10.3766,3.3881 -1.2705,0.5295 -2.5416,0.9531 -3.8119,1.4826 -0.3179,0.2115 -0.6353,0.4232 -0.9532,0.6353 -0.7409,0.2114 -1.3761,-0.1059 -1.7999,-0.318 -2.8592,0.8475 -5.8237,1.3767 -9.0006,2.012 -1.906,0.1059 -3.8116,0.2115 -5.7179,0.318 -3.2823,0.741 -4.8707,3.8117 -8.0471,4.8707 -2.4353,0.8468 -6.0355,1.0589 -8.7884,0.3173 -1.4827,-0.3173 -3.6005,-1.6941 -5.4001,-0.741 -2.2236,1.1647 -0.8475,5.6117 -2.33,7.4121 -1.1646,1.3763 -3.1766,1.6941 -5.0824,2.3294 -3.8117,1.2703 -10.4831,2.6471 -15.4595,1.694 0,-0.1058 0,-0.2115 0,-0.3173 0.318,-0.4237 0.741,-0.9531 1.0588,-1.3767 -0.4235,-0.318 -0.8473,-0.741 -1.2703,-1.059 1.1646,-0.5294 2.4351,-1.0589 3.5997,-1.5883 3.8124,3.6003 6.8826,-0.5294 8.7888,-3.1766 0.4238,-0.5295 2.1179,-3.3881 1.7999,-3.9177 -1.1646,-1.3768 -2.2233,-2.7529 -3.3881,-4.1298 1.059,-0.5293 2.1178,-1.0588 3.1768,-1.5883 0.6351,0.1058 1.2703,0.2122 1.9054,0.3178 2.012,0.4239 4.5536,-0.1056 5.8239,-0.8473 3.3887,-2.012 3.4946,-5.9296 4.8709,-10.0593 0.5292,-1.482 1.3767,-2.8587 1.9062,-4.235 -4.9766,1.7999 -7.8359,5.9296 -12.0716,8.5769 -3.5996,2.1171 -7.4121,2.9645 -12.9181,2.9645 -0.3173,0.3179 -0.635,0.6351 -0.9529,0.9531 -1.0591,-0.1059 -5.9298,-0.2122 -6.4592,-0.7417 1.059,-0.5294 2.2241,-1.0589 3.2831,-1.4819 0.9524,-0.1065 1.9054,-0.2121 2.9645,-0.318 2.8585,-0.8467 5.8237,-1.4826 8.0474,-3.1766 1.0587,-0.741 1.2702,-2.3293 2.1176,-3.3881 1.2704,-1.8005 3.071,-3.4946 5.0824,-4.5535 5.9301,-3.1767 14.0833,-3.5998 21.4954,-5.1881 0.3172,-0.7416 0.6352,-1.4825 0.9525,-2.1178 0,0 0,0 0,-0.1057 -3.4939,0 -7.0943,0.1057 -10.5882,0.1057 0,0 -0.1064,0 -0.1064,-0.1057 -0.1058,-5.6125 1.3767,-12.0714 4.024,-15.1423 0.8473,-1.0588 1.7999,-2.0114 2.6471,-2.9645 -0.212,-0.5294 -0.953,-1.0589 -0.7415,-1.4826 1.0587,-0.4237 2.1177,-0.9531 3.1766,-1.3767 2.2242,0.3178 4.4477,0.6357 6.6711,0.953 0,0 0,0 0,-0.1058 -1.4826,-2.6471 -2.965,-5.4001 -4.4469,-8.0472 -0.2122,-0.6353 -0.318,-1.2704 -0.5295,-1.9063 -1.1652,-1.3761 -2.2241,-2.753 -3.3888,-4.1291 0.1058,-0.1059 0.3179,-0.2121 0.4238,-0.318 -0.2115,-0.2114 -0.4238,-0.1058 -0.318,-0.3173 0.318,-0.2121 0.6359,-0.4237 0.9533,-0.5294 -0.3174,-0.6357 -0.9533,-1.5882 -0.9533,-2.2241 0.9533,-0.3172 3.1767,-1.9055 4.1299,-1.694 1.4826,0.212 1.8004,2.4356 0.3177,2.8594 0.2116,0.6351 0.7411,1.0588 1.059,1.5882 1.0589,1.6942 2.1179,3.494 3.1766,5.1882 0.5295,0.8473 1.4822,1.5882 1.7999,2.6471l0.1058 0c0.7417,-2.3293 1.4826,-4.6591 2.2236,-6.9884 1.1651,-0.5295 2.3299,-1.1647 3.4944,-1.6941 0,0 0,0.1057 0.1058,0.1057 -0.5294,2.1179 -0.9532,4.765 -1.3761,6.459l0.1059 0.1059c0.5291,-0.2115 1.1645,-0.5294 1.694,-0.741 -0.1059,-0.2115 -0.1059,-0.4236 -0.2121,-0.5294 1.1652,-0.6351 2.2241,-1.1646 3.3887,-1.7999 1.5883,0.4232 4.4471,4.9765 3.4939,7.3059 -0.423,1.1646 -1.4819,1.5883 -2.3293,2.3299 0.1059,0.4231 0.3179,0.8467 0.4238,1.2704 0.9531,-0.4238 1.9055,-0.8474 2.8588,-1.2704 1.1647,0 3.8119,0.6352 4.7649,-0.1065 -1.1646,-0.741 -2.3294,-1.5883 -3.6002,-2.3293 0,0 0,-0.1057 0.1058,-0.1057 1.1651,-0.318 2.2241,-0.9531 3.2829,-1.4826 2.9644,0 5.9297,0 8.9999,0 -0.7409,-1.2704 -1.3761,-2.6473 -2.1178,-3.9176 0.9533,-0.3179 2.9652,-1.6942 3.7062,-1.3769 0.9532,1.271 1.8004,2.4357 2.7529,3.7061 0.8474,-0.4237 2.9651,-1.7999 3.7062,-1.4826 2.5413,6.459 5.0828,12.9187 7.6243,19.3777 -0.1066,0 -0.1066,0 -0.2121,0.1059 -0.6353,0.2115 -1.2705,0.4236 -1.9057,0.741 -0.9531,0.4236 -1.8003,1.3766 -2.9651,1.4825 -1.9055,-0.741 -4.4469,-2.8588 -6.141,-3.0709 -0.2121,0.2121 -0.5295,0.318 -0.7417,0.5295 -0.1059,1.6939 0.5295,3.3881 0.9532,4.7648 0.7408,3.071 1.2703,5.4001 2.2233,8.259 0.5294,1.5883 0.9532,3.1766 1.4826,4.765 -0.635,0.4236 -1.7999,1.6946 -2.0119,2.4356l0.1059 0.1059c3.4946,0.8473 6.1416,-2.6473 9.2126,-1.1648 0.8467,0.4238 1.482,1.3763 1.694,2.4352 0.1059,0.4236 -0.1056,0.7416 0.1059,0.9531 7.412,4.8706 14.8243,9.7414 22.236,14.7186 0,0.1056 0,0.1056 0,0.2114 -1.2705,0.5294 -2.5409,1.1647 -3.8119,1.6941 -4.2356,-1.9055 -8.3648,-3.9176 -12.6004,-5.8239 -1.906,-0.9525 -3.9175,-1.7998 -5.8237,-2.753 -1.1649,1.4827 -5.9296,6.5655 -8.577,6.8828z"/>
   <path class="fil0" d="M88.4003 85.3602c0,2.2235 -1.1649,4.1293 -1.2703,6.5649 0.9524,-0.1059 1.2703,-0.7416 2.4348,-0.7416 0.6352,0.8475 1.3767,1.6947 2.012,2.6471 0,0 0,0 0.1058,0 0.3179,-1.2704 -0.1058,-3.3881 0.3179,-4.9764 0.1059,0 0.2115,0 0.3174,0 1.2709,1.7999 5.5065,5.2944 2.965,8.2589 -0.5295,0.6359 -0.8475,1.1654 -1.8005,1.4826 0,1.1648 2.33,6.9885 2.5415,6.9885 1.0589,-0.9531 2.5415,-0.741 2.7529,-2.6472 -0.5294,-0.4232 -2.647,-3.8119 -2.647,-4.5528 2.224,0 6.4589,0.5294 7.9415,-0.5295 -1.0588,-1.0589 -2.1179,-2.1177 -3.1766,-3.1766 0,-0.2115 0,-0.318 0,-0.5294 3.4946,0 7.0948,0 10.5887,0.1058 -0.3179,-0.953 -0.5294,-5.0823 -0.2114,-5.5059 0.1057,0 0.1057,0.1057 0.2114,0.1057 1.1647,2.1178 3.0709,4.5535 4.6591,6.5649 0.106,-0.1059 0.106,-0.1059 0.2118,-0.3173 0.953,-0.6352 1.1646,-2.9651 1.1646,-4.0241 0.2121,0 0.4237,0 0.635,0.1059 0.1065,1.1653 1.2712,4.024 2.1179,5.2944 0.3179,0.4236 0.5294,2.012 0.7417,2.5415 0.953,2.4357 1.7998,4.8707 2.9643,7.4121 0.5295,1.2704 1.6947,2.8587 1.6947,4.5529 -1.1652,0.2121 -3.4946,2.647 -5.1886,2.2234 -1.6941,-0.4232 -3.0708,-1.1648 -4.2355,-2.1172 -0.4236,-0.3179 -1.2705,-1.1652 -2.012,-0.953 -0.2115,0.1058 -0.3173,0.2115 -0.5294,0.3173 0.6353,4.3411 1.5882,9.2125 3.0708,12.918 0.6353,1.5883 1.3761,3.4946 1.4826,4.8713 -0.6358,0.741 -1.3769,1.482 -2.0119,2.2235 0.5293,1.0589 4.3412,-0.2121 4.765,-0.4237 1.9055,-0.9531 4.4469,-1.4826 5.7174,0.6353 0.4237,0.741 0.318,1.3767 0.5293,2.3292 0.9532,0 5.0829,3.3888 6.2476,4.1298 5.6124,3.1767 10.3767,6.9885 15.8832,10.3773 0,0.2115 0,0.3173 0,0.5288l-0.1059 0c-1.1652,0.5294 -4.9771,0.5294 -6.5654,0.5294 -1.9056,-3.1761 -6.5648,-6.2469 -10.0586,-7.8353 -1.6947,-0.5294 -3.2831,-1.1646 -4.9772,-1.694 0.1059,3.706 -4.0234,6.3532 -6.2469,8.0474 -0.7417,0.5294 -1.9061,1.694 -3.071,1.694 0,-2.3293 0,-4.765 0,-7.0943 2.7531,-0.1063 5.1889,-1.3767 5.6118,-3.8118 -4.9764,-2.012 -9.212,0.3172 -13.6589,1.2704 -1.8005,0.4237 -4.9765,1.3761 -6.6713,2.3292 -1.3762,0.4238 -2.7529,0.9531 -4.1291,1.3769 -0.7417,0.4236 -1.9061,1.1646 -2.6472,1.2704 -0.7415,0 -1.4826,-0.1059 -2.1179,-0.1059 -2.5414,0.5294 -5.6122,1.4826 -8.1529,1.9062 -2.2241,0.2116 -4.4477,0.3173 -6.5656,0.5294 -3.1766,1.2704 -5.0821,3.9178 -8.4703,5.0823 -1.3767,0.4236 -5.7182,0.953 -7.3065,0.3179 -1.4826,-0.6358 -4.024,-1.9063 -5.9297,-1.0589 -2.2235,1.0589 -0.7415,5.8233 -2.3297,7.4115 -2.6467,2.6473 -15.3533,5.0829 -20.7534,3.9182 0,-0.1058 0,-0.2122 -0.1058,-0.3178 1.0588,-1.3763 2.2234,-2.8589 3.2823,-4.2356 0.1058,0 0.1058,0 0.2115,0 0.6353,0.3178 1.3768,0.7416 2.012,1.0587 0.6353,0.318 1.2703,0.1059 1.7999,0.1059 0.1059,0 0.318,0 0.4237,0.1065 3.4945,-1.4827 4.7649,-4.5535 6.1411,-7.6244 0.4237,-0.9525 1.0589,-2.6472 0.7417,-4.235 -0.2121,-0.7416 -0.4239,-1.4826 -0.7417,-2.1177 0.1063,0 0.1063,0 0.2121,0 0.5295,-0.1065 2.012,0.1057 2.5416,0.3172 1.2703,0.3179 3.3881,-0.2115 4.235,-0.5293 5.6122,-2.5415 3.918,-9.8473 7.3062,-14.2949 -2.329,0.4236 -4.2354,2.6471 -5.8237,3.9181 -1.7998,1.5883 -4.3413,2.9644 -6.1412,4.765 -0.3179,-0.1065 -4.1298,1.694 -4.9765,1.9055 -3.3887,1.0589 -9.2126,1.1648 -12.1771,-0.4237 0,-0.1058 0,-0.2114 0,-0.3173 3.3883,0 10.4825,-2.2235 11.8593,-4.1297 0.953,-1.3763 1.3761,-2.9645 2.4351,-4.2356 1.4826,-1.694 3.6002,-2.753 5.6122,-3.9176 0.741,-0.2116 1.4827,-0.4238 2.2235,-0.741 1.9063,-0.7416 4.2356,-1.0589 6.3534,-1.9063 2.012,-0.7409 4.7649,-0.5294 6.3531,-1.0589 1.5883,-0.5293 3.706,0 5.1882,-0.9531 0,-0.4236 0.3177,-1.2704 0.7416,-1.694 -3.4946,0 -7.0943,0 -10.5888,0 -0.1059,-6.4591 1.4824,-12.177 4.1298,-15.671 0.3171,-0.4237 2.2235,-2.5415 2.5413,-2.6471 0,0 0.4232,-0.2116 0.2115,-0.318 0.6353,-0.3173 1.5883,-0.741 2.012,-1.2704l0.2116 -1.2703c2.4357,0 4.2357,0.6351 6.5647,0.8468 0,-0.1059 0,-0.1059 0,-0.2116 -0.635,-0.4237 -0.8466,-1.5882 -1.2703,-2.2235 -1.5882,-2.5414 -3.0707,-4.8707 -3.8118,-8.6832 -0.2123,-0.8467 -0.318,-4.5529 0.2114,-5.0822 2.0121,-0.4238 2.7531,2.012 3.4946,3.2823 1.2704,2.012 2.5415,3.8119 4.0234,5.718 0.7417,0.9526 0.8473,1.9057 1.5883,2.753 -0.6353,-3.9176 0.4238,-7.5178 2.1178,-9.5298 0.5295,-0.6353 1.271,-1.0589 1.6941,-1.6942 0.1063,-0.2115 0.2121,-0.2115 0.3179,-0.2115z"/>
   <path class="fil0" d="M84.2705 181.5051c-0.2116,-0.8475 -0.6353,-1.3769 -1.0589,-1.6942 -0.5294,-0.3178 -1.0589,-0.3178 -1.5882,-0.3178 -3.0704,0 -4.3414,3.0708 -4.4471,5.6123l0.1057 0c1.1647,-1.8005 3.0709,-2.3298 5.1887,-2.3298 4.0234,0 7.2,3.2823 7.2,7.3063 0,5.2944 -4.0233,8.1533 -8.8941,8.1533 -6.5654,0 -8.8947,-5.6118 -8.8947,-11.224 0,-6.247 2.965,-11.5414 9.7415,-11.5414 3.4945,0 6.2474,1.482 7.3063,4.6585 0.2115,0.4238 -4.6591,1.3769 -4.6591,1.3769zm-3.3881 12.2828l0 0c2.2234,0 3.706,-1.5882 3.706,-3.3881 0,-2.1178 -1.3768,-3.7061 -3.8119,-3.7061 -2.012,0 -3.4946,1.6941 -3.4946,3.7061 0.1059,1.9055 1.4826,3.3881 3.6004,3.3881z"/>
   <path class="fil0" d="M98.9889 184.3638c0.5294,0 0.953,0.1058 1.4819,0 1.5883,0 3.6003,-0.4237 3.6003,-2.3292 0,-1.4826 -1.4826,-2.2236 -3.1766,-2.2236 -2.2236,0 -3.4939,1.1648 -3.3882,3.1768 0,0 -4.8707,-1.5884 -4.7651,-2.2235 0.9532,-3.4946 4.1299,-5.2944 8.1533,-5.2944 3.8118,0 8.2594,1.5882 8.2594,6.1411 0,1.9063 -1.0588,4.024 -3.0708,4.3413l0 0.1058c2.5415,0.6358 3.8119,2.4358 3.8119,5.0829 0,4.9764 -4.5528,7.0943 -9.0005,7.0943 -4.6587,0 -8.5768,-2.1179 -9.0005,-6.7764 0,-0.5294 4.977,-1.4825 4.977,-1.4825 -0.1059,2.6471 1.2705,3.9176 4.0234,3.9176 1.8005,0 3.6002,-0.8475 3.6002,-2.753 0,-2.4357 -1.7998,-3.071 -3.9177,-3.071 -0.5294,0 -0.9529,0 -1.4825,0.1059l0 -3.8119 -0.1058 0z"/>
   <polygon class="fil2" points="79.6119,52.9591 76.4352,81.8657 78.4466,81.1247 79.8233,52.9591 "/>
   <path class="fil2" d="M93.0593 135.5501c0,0 2.9645,4.5535 4.1292,5.1886 0,0 -1.9056,1.7999 -4.3413,-0.5294 -2.5408,-2.4357 0.2121,-4.6591 0.2121,-4.6591z"/>
   <path class="fil2" d="M101.5298 118.7145l-5.0824 10.9061 -0.8472 0c0,0 -0.847,-1.5884 -0.847,-2.2235 0,0 -0.5293,-1.4826 0.3173,-2.3293l1.1653 -1.9062c0,0 0.5294,-1.2704 -0.1062,-1.6942 0,0 -3.9178,-3.1766 -4.3413,-4.1297 0,0 -0.847,-1.4826 -0.2116,-2.3293 0,0 0.2116,-1.0588 2.1178,-0.3178 0,0 6.8827,2.7529 7.4123,3.0707 -0.1065,0 0.5294,0.5295 0.423,0.9533z"/>
  </g>
 </g>
</svg>
