<?xml version="1.0" encoding="UTF-8" standalone="no"?>
<svg
   clip-rule="evenodd"
   fill-rule="evenodd"
   stroke-miterlimit="22.9256"
   viewBox="0 0 199.99965 249.86766"
   version="1.1"
   id="svg89"
   sodipodi:docname="Coventry.svg"
   width="199.99965"
   height="249.86766"
   xmlns:inkscape="http://www.inkscape.org/namespaces/inkscape"
   xmlns:sodipodi="http://sodipodi.sourceforge.net/DTD/sodipodi-0.dtd"
   xmlns="http://www.w3.org/2000/svg"
   xmlns:svg="http://www.w3.org/2000/svg">
  <defs
     id="defs89" />
  <sodipodi:namedview
     id="namedview89"
     pagecolor="#ffffff"
     bordercolor="#000000"
     borderopacity="0.25"
     inkscape:showpageshadow="2"
     inkscape:pageopacity="0.0"
     inkscape:pagecheckerboard="0"
     inkscape:deskcolor="#d1d1d1" />
  <path
     d="m 148.49665,185.48289 c 1.297,0.638 2.72,1.053 4.052,1.334 0.994,0.58 2.564,1.156 2.812,2.233 -3.387,-1.487 -6.448,0.827 -9.838,0.165 0.662,0.745 1.821,0.911 2.811,0.994 0.579,0.248 1.653,0.993 1.321,1.652 -2.311,-0.41 -4.874,-0.41 -7.437,-0.576 -1.241,-0.166 -2.563,-0.911 -3.805,-0.58 0.58,0.828 1.904,1.242 2.812,2.233 1.656,2.728 4.712,3.39 6.861,5.295 0.083,0.91 0.414,1.735 0,2.563 -1.239,4.218 -5.703,2.318 -8.348,3.888 -0.993,0.413 -2.233,1.324 -1.984,2.646 1.156,3.725 1.901,7.858 1.818,11.911 -22.319,3.146 -47.616002,2.816 -70.846002,1.491 -0.327,-1.656 0,-3.889 0.332,-5.627 -0.332,-2.894 2.231,-5.871 -0.166,-8.352 -6.365,-2.897 -15.209,-1.656 -21.74,0.167 -2.232,-3.806 -8.021,-0.415 -9.839,-4.634 0,-4.219 -1.569,-9.266 1.985,-12.326 1.739,0.084 2.81,1.736 4.297,2.646 3.226,2.318 6.783,-0.083 10.585,0.91 4.381,0.497 7.192,-2.811 10.249,-5.543 2.065,0.497 0.745,3.478 2.811,4.468 1.404,0.827 4.96,0.497 4.96,0.497 10.001,10.669 23.147,15.882 38.025002,13.815 11.927,-1.527 23.908,-10.213 29.61,-21.271 h 8.662 z"
     fill="#4da332"
     id="path1" />
  <path
     d="m 64.617648,177.66989 c -0.663,-0.166 -1.322,-0.742 -1.652,-1.321 -0.084,-1.077 -0.497,-2.732 0.575,-3.478 0.58,1.407 0.745,3.146 1.077,4.799 z m 133.895002,26.848 c -6.116,-3.142 -13.557,-3.721 -20.999,-3.142 l -0.33,-0.248 c 0.662,-0.745 1.407,-1.242 2.149,-1.819 2.728,-3.97 6.534,-6.951 10.252,-9.845 2.728,-2.231 3.305,-5.706 5.044,-8.438 0.414,-0.662 1.321,-0.908 1.486,-1.486 -3.308,0.413 -5.619,3.556 -8.927,3.556 0.745,-1.739 1.901,-3.226 1.652,-5.378 -0.165,-0.662 -0.907,-0.58 -1.239,-0.58 0.908,-1.652 2.726,-2.977 3.637,-4.629 -0.824,-2.815 0.082,-6.04 0.745,-8.769 0.249,-0.745 0.99,-1.408 0.825,-2.07 l -3.802,3.229 c -0.99,-2.236 -0.746,-4.965 -0.746,-7.61 -0.082,-1.242 1.242,-2.318 0.58,-3.561 l -1.238,1.242 -0.414,-0.496 c 0.58,-1.984 2.563,-3.805 1.901,-5.954 1.652,-1.491 3.143,-2.978 2.976,-5.214 1.736,-1.569 2.15,-3.638 3.306,-5.456 0.083,-0.663 0.496,-1.822 -0.328,-2.235 0.493,-2.15 2.146,-3.64 1.98,-5.955 -0.161,-0.579 -0.742,-0.662 -1.072,-0.911 0.579,-2.152 1.9,-3.888 1.983,-6.285 -0.328,-0.993 -1.57,-0.166 -2.15,-0.911 1.571,-3.474 1.822,-7.444 1.657,-11.747 -0.579,-3.307 -0.911,1.243 -1.739,0.912 0.662,-3.312 2.48,-7.117 0.745,-10.591 -0.828,-0.249003 -1.242,0.414 -1.818,0.579 -0.083,-2.149003 0.249,-4.798003 -0.331,-6.947003 -0.331,-1.738 0.166,-3.888 -0.413,-5.378 -1.242,1.905 -2.233,3.971 -3.719,5.626 -0.828,-3.473 -0.745,-7.444 -1.819,-10.835 -0.086,0.083 -0.086,0.166 -0.251,0.166 -5.04,7.527 -6.117,16.707003 -7.19,25.890003 -1.241,0.911 -2.811,1.408 -4.132,1.821 0.576,-2.898 -0.414,-5.378 -0.331,-8.19 -0.828,0.497 -1.735,2.067 -2.977,2.646 l -0.083,-0.165 c 0.58,-2.481 0.745,-5.461003 0.413,-8.189003 l -0.413,-0.415 -2.728,2.65 c -0.577,-3.477 -0.332,-7.448 -2.481,-10.093 -0.328,1.49 -1.072,2.811 -1.653,4.301 -1.404,-4.219 -3.636,-8.853 -7.937,-11.001 1.572,2.563 1.905,5.544 2.563,8.438 0.828,8.848 -1.073,16.789003 -3.387,24.482003 -5.541,-0.414 -9.425,2.98 -13.558,5.792 v 0.415 c 1.156,0.413 2.646,0.33 3.553,1.238 -0.659,0.413 -1.238,0.993 -1.901,1.158 1.242,1.491 3.719,1.325 5.624,1.905 -2.232,1.073 -4.298,2.232 -6.696,2.728 v 0.414 c 0.907,2.646 3.802,2.978 6.282,3.143 -7.358,5.213 -8.514,14.64 -6.448,22.665 3.553,6.119 4.216,15.716 0.579,22.002 1.074,1.159 3.222,2.07 3.305,3.888 -1.486,0.662 -2.811,-0.99 -4.132,-1.488 -0.414,0.664 0.082,1.322 0.082,2.068 1.322,3.308 4.961,4.715 8.1,5.377 0.994,0.58 2.564,1.156 2.812,2.232 -3.387,-1.487 -6.448,0.828 -9.838,0.166 0.662,0.745 1.821,0.91 2.811,0.994 0.579,0.248 1.653,0.993 1.321,1.652 -2.311,-0.411 -4.874,-0.411 -7.437,-0.576 -1.242,-0.166 -2.563,-0.911 -3.805,-0.58 0.58,0.828 1.904,1.242 2.812,2.232 1.656,2.728 4.712,3.391 6.861,5.296 0.083,0.91 0.414,1.734 0,2.563 -1.239,4.218 -5.703,2.318 -8.348,3.887 -0.994,0.414 -2.233,1.325 -1.984,2.646 1.156,3.725 1.901,7.858 1.818,11.912 -22.319,3.146 -47.616002,2.815 -70.846002,1.49 -0.327,-1.655 0,-3.888 0.332,-5.627 -0.332,-2.894 2.231,-5.871 -0.166,-8.352 -6.365,-2.897 -15.209,-1.655 -21.74,0.167 -2.232,-3.805 -8.021,-0.415 -9.839,-4.634 0,-4.219 -1.569,-9.266 1.985,-12.326 1.739,0.084 2.81,1.737 4.297,2.646 3.226,2.319 6.783,-0.083 10.585,0.911 4.381,0.497 7.192,-2.812 10.248,-5.544 2.066,0.497 0.746,3.478 2.812,4.468 1.404,0.828 4.96,0.497 4.96,0.497 10.001,10.67 23.147,15.883 38.025002,13.815 14.22,-1.821 28.518,-13.815 32.158,-27.877 4.382,-15.302 -0.579,-31.434 -12.898,-41.937 l 0.249,-0.497 c 0.248,-10.338 0,-21.011 5.209,-29.281 0.331,-0.414 0.662,0.084 0.91,0.246 1.321,3.229 0.907,7.692 -1.324,10.176 -0.411,0.994 0,2.15 0.994,2.647 0.988,0.413 2.066,0.082 2.725,-0.746 -0.411,-6.617 1.324,-13.316 0.744,-20.264003 -0.907,-7.282 -4.056,-16.341 -12.492,-18.328 l 0.032,-11.449 -2.104,-6.168 v -20.525 l 2.072,-5.128 v -5.749 c -50.074002,-0.083 0.321,0.013 -49.754002,-0.069 v 6.123 l 2.974,4.712 -0.12,20.681 -2.357,5.871 -0.165,7.281 c -1.159,0.494 -2.563,-0.165 -3.723,-0.578 -4.298,-1.242 -7.52,1.818 -10.828,3.722 -1.321,1.486 0,3.556 -0.663,5.374 0.332,7.776 -4.215,14.313 -2.314,22.005003 -1.404,1.405 -2.974,2.978 -4.63,4.054 -1.734,1.156 -3.636,2.314 -5.204,3.556 l 0.248,0.249 c 3.719,-1.242 7.106,-3.395 10.414,-5.626 0.414,0.497 0.828,1.076 1.077,1.656 -2.894,3.143 -6.12,5.954 -9.673,7.693 0,0.33 -0.083,0.658 0.165,0.74 3.884,-0.906 6.861,-4.053 10.249,-6.036 3.308,6.119 1.569,17.286 11.159,17.949 1.901,-0.166 3.474,-1.239 5.209,-1.901 3.471,-1.408 -0.906,-3.64 -0.579,-5.792 -1.653,-4.137 -2.398,1.324 -4.299,1.159 -0.578,-0.084 -0.661,-0.662 -0.907,-0.994 l 0.577,-9.842 c 1.076,-1.739 3.142,-2.566 4.629,-4.054 2.149,2.812 2.066,6.203 1.735,9.843 0.496,5.047 0.993,10.424 0.745,15.302 -11.325,8.19 -17.358,20.351 -17.111,33.997 -0.248,0.58 -0.827,0.166 -1.324,0.248 -2.48,2.318 -6.033,5.048 -4.629,8.853 0.745,2.645 4.136,2.976 4.629,5.792 -0.494,0.824 -1.487,0.989 -2.398,1.321 -4.791,-0.084 -8.182,-5.872 -10.414,-9.511 4.878,-5.213 10.911,-10.421 13.723,-16.71 3.884,-8.521 -1.405,-16.545 -5.951,-23.245 -0.496,-2.231 2.315,-3.143 3.305,-4.881 -0.331,-0.248 -0.579,-0.658 -0.911,-0.742 -0.162,-0.414 -1.156,-0.993 -0.162,-1.325 2.233,-2.235 4.299,0.912 6.282,0.994 -0.083,-1.325 -0.414,-2.566 -0.91,-3.721 -1.24,-2.65 -4.216,-2.236 -6.282,-3.557 -2.481,-4.551 -7.772,-1.077 -11.409,-2.981 -4.215,-9.758 -5.701,-22.251003 -2.976,-33.169003 -3.14,1.325 -3.057,4.799 -4.465,7.114 -1.404,-1.984 -0.907,-4.799 -2.563,-6.7 -1.735,4.385 -2.149,9.262 -2.559,14.144003 -0.249,0.415 -0.663,0.58 -1.159,0.497 -2.398,1.408 -1.653,4.55 -1.818,6.782 -2.398,-0.083 -1.408,2.816 -2.066,4.219 l -0.167,-0.166 c -0.413,-0.413 -1.324,-0.413 -1.734,0 -3.723,-5.87 -6.038,-12.242003 -8.021,-18.776003 -0.166,-0.828 -0.99,-1.656 -1.984,-1.324 -1.818,1.49 -2.811,3.721 -2.811,6.288 -0.166,1.238 -1.653,0.579 -2.231,1.487 -1.404,3.146003 0.082,6.785003 0.413,9.763003 -0.907,-0.084 -2.315,-0.414 -2.9759995,0.496 -0.494,2.398 0.2479995,4.629 0.9099995,6.7 0.165,1.075 1.487,1.901 1.077,3.142 -0.828,-0.083 -1.574,-0.083 -2.0709995,0.579 -0.658,2.315 0.9109995,4.053 2.0709995,5.792 -0.746,0.494 -1.8219995,0.163 -2.3979995,0.908 0.082,2.152 1.3209995,3.887 2.5629995,5.627 -0.662,0.579 -1.573,0.579 -1.9869995,1.32 -0.331,2.154 1.6549995,3.726 2.7279995,5.379 -0.496,0.58 -1.238,0.496 -1.652,1.241 -0.414,1.653 0.497,3.144 1.735,4.302 0.165,0.742 -1.072,0.907 -0.824,1.736 1.735,4.715 6.613,6.7 10.663,8.19 -0.497,0.993 -2.15,0.91 -2.977,1.49 1.652,0.414 3.308,-0.332 4.629,0.906 -0.907,2.153 -2.811,3.889 -4.795,4.8 2.149,0.33 4.712,0.082 7.027,-0.497 0.579,0.497 0.165,1.324 0.331,1.987 0.166,1.321 1.653,1.569 2.646,2.067 -0.332,0.827 -0.497,1.738 -1.077,2.565 -7.851,10.256 -13.142,25.393 -26.8649995,29.446 -0.58000005,0.248 -1.73500005,0.248 -1.48600005,0.912 l 5.61800005,-0.332 c 6.0379995,-2.152 13.5569995,-1.242 19.6779995,-2.977 1.652,0.907 4.049,0.741 5.95,0.741 0.497,1.077 0.662,2.319 0.99,3.475 0.165,1.324 0.331,3.062 -0.162,4.301 -7.607,-0.083 -14.965,0.662 -21.412,3.557 -1.0769995,0.745 -2.6469995,1.904 -1.9009995,3.395 6.0329995,7.278 9.3419995,15.63 12.1499995,24.151 1.987,3.39 6.037,3.477 9.589,3.887 0.249,0.165 0.332,0.414 0.249,0.746 0.58,3.556 4.629,4.384 7.606,5.211 46.081,9.401 109.697002,3.889 137.804002,-3.307 l 1.736,-1.325 c 0.828,-0.993 0.414,-2.646 0.331,-3.887 l 0.414,-0.415 c 3.471,-0.579 7.193,-0.91 9.586,-3.722 1.657,-6.864 3.971,-13.32 7.855,-19.191 1.239,-2.066 2.977,-3.888 3.884,-5.954 -0.249,-0.993 -0.577,-1.903 -1.487,-2.566 z m -112.073002,-77.472 c -1.238,-2.564 -2.231,-5.541 -3.056,-8.352 l 0.083,-0.911 c 2.066,3.059 2.808,6.617 4.382,9.842 0.295,1.569 -0.553,2.601 -1.084,3.764 0.5,-1.459 -0.4,-2.97 -0.325,-4.343 z m 14.137002,-10.753 c 3.47,1.904 9.011,3.557 9.259,8.52 l 0.165,2.978 c -3.473,0 -7.358,-0.663 -10.910002,0 l -0.249,-0.331 c -0.083,-3.971 -0.166,-8.107 1.735002,-11.167 z m 16.699,11.332 c -0.082,-1.653 -1.489,-2.895 -2.069,-4.302 1.242,1.739 4.054,2.649 2.977,5.213 -0.166,2.48 -1.321,4.467 -1.818,6.864 -1.487,-2.811 1.487,-4.798 0.91,-7.775 z"
     id="path2" />
  <path
     d="m 104.29465,106.03689 v 10.752 l -3.222,-1.49 c -0.165,-2.977 -0.33,-6.285 0.165,-9.096 0.908,-0.249 2.233,-0.166 3.057,-0.166 z"
     fill="#ffffff"
     id="path3" />
  <g
     fill="#d9cfc2"
     id="g35"
     transform="translate(-180.00035,-75.066113)">
    <path
       d="m 211.139,227.26 c 1.073,0 2.149,0.58 3.221,0.165 -0.741,0.828 -1.899,1.408 -2.972,1.736 -0.084,0.331 0.165,0.413 0.33,0.661 1.736,0.083 3.305,-0.248 4.875,-0.33 -0.249,1.904 -1.653,3.394 -2.812,4.799 l 0.33,0.248 c 1.906,-0.911 4.137,-1.574 5.457,-3.557 0.498,0.994 -0.827,1.57 -0.247,2.232 1.159,-0.493 2.481,-1.238 3.143,-2.563 0.496,0.662 -0.662,2.811 0.99,2.977 1.818,-0.249 2.977,-1.901 3.473,-3.557 -0.082,-0.249 0.084,-0.579 -0.164,-0.745 -0.911,0.248 -0.746,1.656 -1.326,2.401 -0.659,0.579 -1.072,1.238 -1.983,1.159 -0.494,-1.242 0.497,-2.649 -0.907,-3.56 -0.745,0.911 -0.994,2.153 -2.233,2.566 -0.082,-0.745 0.329,-1.655 -0.414,-2.07 -0.661,0.249 -1.076,1.16 -1.652,1.739 l -2.069,1.325 c 0.496,-1.076 1.075,-2.815 1.82,-4.136 -0.497,-0.497 -1.324,0.165 -1.983,0.165 h -1.738 c 0.744,-0.911 1.572,-1.407 1.901,-2.566 -1.404,-0.414 -3.057,0.827 -4.792,0.165 -0.414,-0.331 -1.325,-0.331 -1.16,-1.158 0.173,-0.097 0.348,-0.183 0.531,-0.26 -0.565,-0.027 -1.107,-0.131 -1.593,-0.331 0.376,0.918 0.155,2.119 1.974,2.495 z"
       id="path4" />
    <path
       d="m 199.814,203.933 c 0.755,0.407 1.551,1.263 2.332,1.418 -1.091,-1.404 -3.271,-1.973 -4.399,-3.733 -0.89,-0.893 -1.708,-1.852 -2.49,-2.811 1.317,1.793 2.862,3.495 4.557,5.126 z"
       id="path5" />
    <path
       d="m 206.178,224.448 c 0.438,-0.11 1.094,-0.331 1.366,-0.731 -3.36,1.372 -7.003,0.282 -10.271,-1.194 2.624,1.518 5.763,2.163 8.905,1.925 z"
       id="path6" />
    <path
       d="m 210.759,225.096 c 1.48,0.072 3.119,-0.355 4.346,-0.813 0.205,0 0.322,-0.087 0.39,-0.208 -0.017,-0.045 -0.041,-0.083 -0.059,-0.124 -1.472,0.515 -3.207,0.511 -4.677,1.145 z"
       id="path7" />
    <path
       d="m 208.327,224.283 c 0.252,0.203 0.535,0.358 0.838,0.482 -0.141,-0.344 -0.369,-0.648 -0.817,-0.852 -0.035,0.111 -0.052,0.224 -0.021,0.37 z"
       id="path8" />
    <path
       d="m 232.337,214.106 c 0.414,0.579 0.91,0.911 1.653,1.243 0.165,-0.332 0.496,-0.167 0.745,-0.167 0,1.321 -0.332,2.729 -1.488,3.391 -0.993,0.332 -1.241,-0.58 -1.655,-0.994 0.91,-1.076 -0.576,-2.562 0.745,-3.473 z"
       id="path9" />
    <path
       d="m 210.642,255.547 c 1.403,-4.464 7.192,-1.488 8.927,-5.54 l -0.248,-0.248 c -1.238,1.241 -2.728,2.314 -4.464,1.655 -1.076,-0.331 -0.579,-1.573 -0.497,-2.235 0.579,-1.49 1.325,-2.894 2.232,-4.219 1.656,0.165 3.06,-0.58 4.381,-1.653 0.497,0.908 1.573,1.156 2.314,0.66 -0.243,0.91 -1.983,1.821 -0.74,2.814 1.734,0.083 3.304,-0.579 4.215,-2.069 0.497,0.993 1.653,0.993 2.48,0.745 1.404,-0.745 2.398,-2.232 2.892,-3.639 l -0.329,-0.249 c -0.828,1.325 -1.821,3.722 -4.053,3.226 -0.409,-0.249 -0.328,-1.073 -0.082,-1.487 0.248,-0.083 0.082,-0.414 0.082,-0.579 -0.824,-0.248 -0.907,1.155 -1.486,1.651 -0.911,0.993 -1.818,1.988 -3.222,1.822 0.162,-1.242 1.734,-2.563 1.321,-3.888 -0.662,0.415 -1.405,1.325 -2.398,1.16 -0.249,-0.497 0,-1.408 -0.745,-1.491 -0.907,1.325 -2.149,2.397 -3.884,2.232 0.828,-1.983 3.06,-2.728 4.464,-3.967 0.332,0.825 1.486,0.825 2.231,0.576 1.571,-0.576 2.978,-2.231 3.471,-3.722 2.07,-0.908 3.556,-3.143 3.723,-5.374 -1.488,-0.994 -0.249,1.486 -1.077,1.9 -0.659,1.076 -1.486,2.481 -2.808,2.729 -0.414,-1.073 1.322,-1.984 0.162,-2.563 -1.57,1.572 0,3.887 -1.983,5.212 -0.824,0.828 -1.901,1.487 -2.974,1.242 -0.083,-1.076 0.824,-1.904 1.653,-2.235 0.413,-0.249 0.908,-0.084 1.238,-0.663 -0.33,-0.658 -1.569,-0.083 -2.15,0.331 -2.727,3.143 -6.943,4.881 -8.927,8.769 -2.232,2.232 -4.878,3.309 -7.11,5.706 -0.41,0 -0.823,0 -0.907,-0.493 -0.745,-5.048 4.381,-7.611 5.044,-12.077 -0.828,-1.16 -2.646,-0.083 -3.226,-1.491 0.083,-0.993 0.496,-2.562 -0.332,-3.226 -1.321,0.083 -2.562,0.415 -3.718,0.912 0.415,-1.16 1.404,-3.229 3.139,-3.474 0.663,-0.166 1.739,0.414 1.904,-0.415 -1.076,-0.745 -2.811,0.166 -3.804,-0.745 0.745,-1.49 2.314,-1.739 3.224,-2.811 -0.745,-0.332 -1.818,0.328 -2.645,0.741 -4.878,-0.327 -9.342,-2.315 -12.402,-6.451 -0.082,-0.33 -0.162,-0.745 -0.082,-1.159 l 0.994,-0.327 c 0.896,0.455 1.848,0.935 2.834,1.383 -1.928,-1.118 -3.58,-2.708 -4.736,-4.779 -0.083,-0.41 0.414,-0.741 0.746,-0.906 2.149,-0.414 3.47,1.983 5.37,2.728 2.233,0.746 4.547,2.481 7.11,1.159 0.166,0.577 0.166,1.239 0.58,1.653 0.249,0.496 0.824,0.414 1.238,0.58 0.142,0.307 0.101,0.555 -0.037,0.758 0.014,-0.006 0.023,-0.01 0.037,-0.013 0.314,0.045 0.562,0.117 0.767,0.21 0.151,-0.452 0.803,-0.652 1.134,-1.121 1.573,-0.083 3.475,0.414 4.796,-0.414 0.496,0.166 1.075,0.496 1.323,1.076 0,0.193 -0.002,0.445 -0.106,0.621 1.445,3.181 5.02,3.281 7.71,4.261 0.082,0.248 0.414,0.082 0.579,0.082 1.077,-1.49 -1.321,-1.904 -1.983,-2.981 -5.622,-4.546 -6.944,-11.331 -7.855,-18.113 -1.486,-2.977 -4.792,-3.309 -7.023,-5.378 -7.193,-6.865 -12.981,-14.558 -13.807,-24.234 0,-0.745 -0.164,-1.822 0.743,-1.987 l 0.413,0.165 c 1.818,7.278 5.541,13.733 10.581,19.687 l 0.165,-0.167 c -5.04,-6.615 -9.421,-13.48 -9.337,-22.166 0.576,-1.574 0.327,-4.219 2.475,-4.467 2.482,9.596 7.856,17.948 11.741,26.883 2.231,5.047 7.027,8.935 6.86,14.888 1.408,5.627 2.895,11.499 8.183,15.221 0.166,0 0.496,0.083 0.58,-0.165 -0.414,-0.992 -1.652,-1.156 -2.315,-2.233 -4.712,-4.633 -5.04,-11.084 -6.117,-17.29 -2.314,-5.705 -7.358,-10.338 -7.934,-16.789 2.149,0 1.404,2.645 2.398,3.888 2.228,5.622 5.868,10.752 10,15.633 0.581,1.239 0.994,2.895 2.812,2.232 1.817,0.994 3.305,-1.735 4.795,0.249 2.397,0.331 3.056,-3.142 5.785,-1.9 0.745,1.32 1.486,2.811 2.48,4.132 0.332,0.911 0.663,2.319 0.332,3.477 -0.332,0.411 -0.58,0.99 -1.077,1.322 -0.825,0.164 -0.907,-0.332 -1.486,-0.746 -0.249,-2.48 1.652,-4.298 0.33,-6.699 -0.166,-0.084 -0.248,-0.331 -0.413,-0.331 0.083,1.325 0.579,3.639 -1.073,4.384 -2.398,-0.413 -0.332,-2.728 -1.822,-3.639 -0.165,1.324 0,3.061 -1.321,3.639 -0.332,0 -0.662,0.084 -0.911,-0.33 0,-0.912 0.828,-1.985 -0.083,-2.646 h -0.327 c 0.165,1.075 -0.165,2.314 -0.91,3.225 -0.415,0.166 -0.58,0.331 -0.994,0.166 -2.067,-0.828 0.828,-2.398 -0.742,-3.391 -0.165,1.569 -0.746,3.391 -2.398,3.969 -0.827,-0.827 0.331,-1.986 -0.165,-2.645 -0.745,0.742 -0.911,1.818 -0.581,2.812 0.497,0.745 1.156,0.579 1.736,0.165 l 0.911,-1.076 c 0.496,0.663 1.569,1.573 2.398,0.744 0.58,-1.241 1.237,-0.164 2.066,-0.248 0.99,0.828 0,1.736 -0.165,2.647 -0.249,0.496 -0.581,1.076 -1.157,1.325 -0.828,0.33 -0.91,-0.497 -1.325,-0.746 0.249,-0.745 0.746,-1.735 0.167,-2.48 h -0.331 c -0.084,1.155 -0.249,2.397 -1.073,3.391 -0.332,0.58 -1.16,0.745 -1.574,0.58 -1.072,-0.745 0.662,-2.07 -0.33,-2.402 -0.411,0.663 -0.742,1.491 -0.411,2.236 0.244,0.911 1.403,1.238 2.066,0.662 1.322,-3.147 1.901,1.239 3.719,-1.076 l 0.91,-1.159 c 0.414,1.242 1.901,0.33 2.481,1.49 0.328,1.073 0.165,2.315 -0.58,3.225 -0.331,0.415 -0.745,0.745 -1.325,0.58 -0.244,-0.165 -0.493,-0.496 -0.741,-0.58 -0.249,0.166 -0.167,0.415 -0.167,0.58 0.581,0.825 1.653,0.911 2.399,0.332 l 0.579,-0.746 c 0.576,0.662 0.163,1.9 -0.165,2.646 -0.248,0.663 -0.994,0.663 -1.49,0.496 -0.166,-0.248 -0.166,-0.745 -0.577,-0.745 -0.331,0.167 -0.331,0.497 -0.165,0.745 1.072,0.746 1.735,1.325 1.238,2.647 -0.496,0.496 -0.662,1.242 -1.404,1.325 -0.415,0 -0.828,-0.581 -1.16,-0.249 -0.165,0.414 0.331,0.745 0.58,0.91 1.157,0.166 1.902,-0.661 2.398,-1.49 0.662,-1.072 -0.249,-2.894 1.321,-3.473 0.332,-0.912 0.662,-1.984 0.332,-2.978 -1.156,-0.579 0.33,-2.728 -0.746,-3.887 -0.079,-0.58 0.331,-0.911 0.746,-1.325 0.578,1.656 2.397,-0.083 2.646,1.491 0.248,1.407 -0.249,2.646 -1.322,3.308 -0.746,0.496 -1.324,-1.243 -1.491,0 0.58,0.496 1.408,1.076 2.067,0.413 0.331,-0.248 0.497,-0.661 0.911,-0.745 0.331,0.994 0.165,2.15 -0.414,2.978 -0.332,0.248 -0.745,0.33 -1.239,0.33 l -0.58,-0.579 c -0.165,0.166 -0.413,0.331 -0.33,0.579 l 1.486,0.994 c 0.249,1.325 -0.248,2.398 -1.156,2.977 -0.745,0.249 -1.158,-0.248 -1.651,-0.579 -0.415,0.496 0.165,0.911 0.493,1.242 -0.079,0.91 0.165,2.562 -0.741,3.39 -0.497,0.414 -1.077,1.077 -1.657,0.581 -0.327,-0.249 -0.327,-0.912 -0.908,-0.912 -0.329,0.331 0,0.745 0.167,1.076 0.579,0.58 1.57,0.829 2.232,0.332 1.32,-1.077 1.652,-2.815 1.487,-4.384 0.91,0.083 1.734,-0.497 2.231,-1.325 1.077,-1.405 -0.497,-3.308 1.325,-4.464 0.248,-0.579 0.084,-1.325 0.166,-1.904 0.576,0 1.072,0.579 1.652,0.165 0.249,-0.331 0.741,-0.662 0.824,-1.076 h 0.166 c 0.249,0.827 0.248,1.987 -0.249,2.649 -0.327,0.576 -0.989,0.825 -1.486,0.494 -0.249,-0.162 -0.249,-0.659 -0.659,-0.494 -0.331,0.99 1.156,1.073 1.404,1.983 0,0.994 0.083,2.564 -1.242,3.143 -0.907,0.497 -1.735,-2.149 -1.653,-0.165 0.581,0.745 1.409,1.077 2.233,0.745 1.321,-0.414 1.076,-2.811 2.148,-1.818 0.415,-0.248 0.829,0.577 1.161,-0.166 v 0.908 c -0.166,-0.165 -0.249,-0.576 -0.581,-0.576 -0.662,1.32 0.249,3.391 -1.652,4.136 -0.993,0.327 -1.075,-0.994 -1.656,-1.325 0,-0.33 0.084,-0.662 -0.244,-0.91 -0.745,0.58 -0.415,1.821 -0.911,2.562 -0.497,0.414 -0.828,0.994 -1.491,0.745 -0.576,-0.164 -0.659,-1.568 -1.32,-0.745 0,0.745 0.661,1.242 1.32,1.49 0.912,0 1.739,-0.496 2.236,-1.324 0.083,-0.249 0.083,-0.494 0.248,-0.576 0.743,0.576 2.146,1.321 1.404,2.646 -0.496,0.993 -1.324,2.149 -2.397,2.563 -0.414,0.165 -1.159,-0.662 -1.076,0.248 0.414,0.497 1.242,0.332 1.821,0.165 l 0.166,-0.165 c -1.408,2.398 -3.309,4.55 -5.54,6.451 1.156,-1.404 2.646,-2.894 3.138,-4.629 -0.161,-0.166 -0.244,-0.415 -0.492,-0.331 -0.663,1.736 -1.984,3.887 -3.971,4.463 -0.245,-0.079 -0.163,-0.492 -0.494,-0.411 -0.083,0.163 -0.415,0.332 -0.248,0.577 0.248,0.415 0.659,0.415 0.99,0.579 l 0.166,-0.164 c -0.331,1.241 -1.984,2.98 -3.388,3.307 0.166,-0.245 0.166,-0.575 0.166,-0.907 -0.084,-0.165 -0.331,-0.165 -0.497,-0.165 0.166,-0.331 0.746,-0.746 0.331,-1.16 -0.91,0.083 -0.746,1.076 -1.325,1.491 -0.824,0.906 -2.067,1.403 -3.139,1.155 0.331,-0.493 0.99,-1.155 0.742,-1.735 -0.576,0.497 -1.404,1.156 -1.653,1.901 0.497,0.911 1.736,0.579 2.563,0.497 0.828,-0.415 1.652,-1.077 2.315,-1.818 -0.083,0.414 -0.579,0.662 -0.414,1.155 0.249,0.248 0.496,0.663 0.91,0.497 -5.209,5.213 -8.185,11.333 -12.236,16.958 -1.238,2.15 -1.818,4.551 -2.397,7.03 -1.403,-4.631 -1.238,-10.649 -0.99,-15.219 l -0.165,-0.166 c -1.818,3.888 -0.395,9.39 -0.167,13.403 0.497,0.989 1.425,2.501 1.239,3.142 0.083,1.156 -0.331,2.563 0.249,3.557 0.496,-2.152 0.165,-4.799 1.075,-6.865 0.497,3.142 0.167,6.451 0.908,9.676 -0.741,0.58 -1.735,0.249 -2.563,0.332 0.497,-8.935 -3.718,-16.379 -3.304,-25.314 z"
       id="path10" />
    <path
       d="m 206.626,269.197 c 0.994,-1.407 2.729,-2.484 3.557,-4.136 h 0.166 l 0.907,4.302 c -1.487,0.659 -3.222,0.082 -4.63,-0.166 z"
       id="path11" />
    <path
       d="m 200.344,269.363 c 2.978,-1.739 4.63,-5.378 8.021,-6.372 0.166,-0.331 -0.082,-0.414 -0.249,-0.662 -3.888,1.656 -6.529,6.206 -10.583,7.199 0.994,-3.226 4.381,-4.384 6.286,-7.199 1.321,-1.57 2.725,-3.557 2.807,-5.292 -1.156,0.91 -1.404,2.563 -2.398,3.722 -5.288,0.745 -8.596,6.285 -12.811,9.51 -0.828,0.087 -1.653,0.415 -2.48,0.415 4.794,-3.06 7.524,-8.6 12.318,-11.581 2.646,-1.404 5.371,-2.646 8.182,-3.556 -0.33,2.814 0.58,5.212 0.746,7.858 -2.149,3.557 -5.706,5.958 -9.839,5.958 z"
       id="path12" />
    <path
       d="m 193.446,270.108 c 3.141,-2.318 5.871,-6.454 9.672,-7.859 -1.735,2.978 -5.702,4.385 -6.696,7.776 -0.99,0.083 -1.983,0.166 -2.976,0.083 z"
       id="path13" />
    <path
       d="m 205.554,249.096 c 0.659,0.994 -0.662,2.563 0.579,3.473 2.48,0.166 3.636,-2.728 5.703,-3.638 0.662,-0.249 1.241,-0.828 1.901,-0.994 -1.488,1.821 1.325,4.716 -2.233,4.881 -3.47,3.226 -8.182,3.556 -11.904,6.285 z"
       id="path14" />
    <path
       d="m 191.627,210.632 c 0.332,-0.414 0.828,-0.496 1.325,-0.496 3.305,3.228 6.862,6.123 11.491,5.709 0.165,0.579 -0.497,1.324 0,1.9 0.248,1.16 1.735,0.745 1.901,1.822 -4.216,2.232 -8.269,-1.242 -11.574,-3.888 -1.404,-1.408 -2.729,-3.143 -3.143,-5.047 z"
       id="path15" />
    <path
       d="m 191.051,205.422 c 0,-0.495 -0.248,-0.91 -0.165,-1.489 3.387,-1.242 4.712,3.639 7.438,4.881 1.49,0.745 2.563,2.232 4.464,2.066 -0.495,1.656 1.406,2.647 1.655,4.22 -5.788,0.497 -11.077,-4.882 -13.392,-9.678 z"
       id="path16" />
    <path
       d="m 210.973,206.992 c -2.15,0.995 -3.805,-0.994 -5.54,-2.065 -1.404,-1.491 -2.973,-3.064 -2.315,-5.213 2.232,2.563 4.878,4.219 7.69,5.627 0.745,0.493 0.58,1.072 0.165,1.651 z"
       id="path17" />
    <path
       d="m 211.388,210.549 c -0.084,0.497 -0.664,0.663 -0.995,0.745 -3.06,-0.082 -5.375,-2.149 -6.861,-4.715 -0.331,-0.663 -0.167,-1.652 0.414,-1.983 2.066,1.817 4.05,3.721 6.862,3.638 0.413,0.663 1.072,1.487 0.58,2.315 z"
       id="path18" />
    <path
       d="m 212.045,214.188 c 0.011,0.011 0.018,0.011 0.025,0.018 0.018,-0.007 0.041,-0.011 0.059,-0.018 0,-0.316 0.152,0.201 -0.059,0.018 -1.152,0.393 -2.688,0.31 -3.909,0.065 -1.901,0.166 -3.387,-1.487 -4.215,-2.977 -0.084,-0.579 -0.414,-1.159 0.331,-1.573 1.901,0.415 3.222,2.484 5.372,2.318 1.075,-0.082 1.821,1.077 2.396,2.149 z"
       id="path19" />
    <path
       d="m 213.205,215.762 c -0.579,-0.828 0.497,-2.235 -0.414,-3.06 -1.9,-1.325 0.58,-3.308 -1.073,-4.633 l 0.743,-1.325 c 1.569,2.401 1.158,5.71 2.065,8.438 1.159,4.302 3.392,8.273 6.695,11.332 -1.072,0.165 -2.397,-0.165 -3.387,-0.745 -2.149,-1.156 -0.661,-3.805 -2.562,-5.044 -0.249,-1.904 -2.978,-2.649 -2.067,-4.963 z"
       id="path20" />
    <path
       d="m 206.096,218.076 c -0.746,-0.248 -0.994,-1.072 -0.663,-1.652 l 0.663,-0.579 5.784,0.414 c 0.497,0.579 0.911,0.993 0.746,1.817 -1.902,1.077 -4.548,0.414 -6.53,0 z"
       id="path21" />
    <path
       d="m 207.251,219.401 c 1.407,-0.331 3.557,0 4.877,-0.331 0.746,0.828 2.15,1.159 2.15,2.397 -1.818,1.325 -4.796,0.746 -6.862,0.497 -0.741,-0.745 -0.576,-1.735 -0.165,-2.563 z"
       id="path22" />
    <path
       d="m 190.886,196.901 c 0,-1.655 1.652,-0.495 2.398,-0.495 0.648,0.762 1.3,1.583 1.973,2.401 -2.294,-3.112 -3.899,-6.51 -4.371,-10.342 0.083,-0.58 -0.165,-1.16 0.332,-1.49 1.072,-0.332 1.817,0.413 2.642,0.745 2.562,4.134 4.547,8.603 8.517,12.159 -1.407,1.904 0.576,3.475 0.741,5.213 -0.317,0.269 -0.641,0.324 -0.972,0.258 0.344,0.445 0.583,0.969 0.642,1.642 0.248,0.745 0.745,1.325 0.91,2.071 -3.388,0 -5.868,-3.064 -8.513,-5.295 -1.574,-2.233 -3.806,-4.22 -4.299,-6.867 z"
       id="path23" />
    <path
       d="m 211.338,184.162 c 0.332,-0.33 0.746,0.001 0.746,0.332 2.149,8.19 6.613,15.717 12.236,22.168 0.41,-0.58 -0.497,-0.912 -0.58,-1.49 l 2.233,-0.163 c 0.413,0.411 -0.911,0.825 0,1.239 0.496,-0.911 1.652,-0.497 2.397,-0.911 0,0.662 -0.745,0.745 -1.077,1.077 -0.331,-0.084 -0.576,0 -0.741,0.248 v 0.165 c 0.658,0.332 1.486,0.084 1.9,-0.413 0.332,-0.58 1.074,-0.249 1.487,-0.332 0.662,1.077 -1.155,0.911 -1.155,1.822 1.321,0.662 1.817,-2.235 3.305,-0.745 0.082,1.324 -1.405,2.231 -2.15,2.977 -0.99,-0.084 -1.735,-1.407 -2.977,-0.746 -1.321,1.159 -2.642,-0.331 -4.298,0.084 -0.662,-2.563 -3.305,-3.889 -4.629,-6.203 -3.637,-5.792 -7.358,-11.83 -6.697,-19.109 z"
       id="path24" />
    <path
       d="m 213.323,177.464 c 0.165,-0.415 0.662,-0.166 0.993,-0.248 0.497,9.51 4.381,17.7 9.093,25.475 -3.226,-0.166 -4.133,-4.302 -5.789,-6.616 -2.807,-5.628 -5.453,-12.078 -4.297,-18.611 z"
       id="path25" />
    <path
       d="m 217.21,165.552 c 0.41,1.817 1.322,3.474 1.735,5.209 -0.331,8.189 0.248,16.296 2.398,23.575 h 0.331 c -0.911,-4.717 -1.984,-9.676 -1.984,-14.889 0.166,-4.467 0.166,-8.934 1.653,-12.823 -0.414,9.598 0.906,19.026 4.049,27.38 -1.072,0 -1.735,-0.741 -2.728,-0.907 -0.58,0.576 -0.083,1.901 -0.415,2.729 -0.327,0.579 -0.575,1.077 -0.906,1.653 -3.391,-5.955 -6.448,-12.405 -5.375,-19.85 -0.658,-4.301 0.58,-8.106 1.242,-12.077 z"
       id="path26" />
    <path
       d="m 234.735,196.075 c 1.651,1.734 3.801,2.976 6.115,3.473 0.745,0.58 1.984,0.496 2.398,1.652 -1.901,-0.162 -4.381,-0.659 -5.702,0.994 -1.735,-0.91 -1.984,-3.722 -4.299,-3.888 -3.473,-0.082 -7.855,0.662 -10.087,-2.315 l 0.084,-1.407 c 3.473,1.407 7.606,1.739 11.491,1.491 z"
       id="path27" />
    <path
       d="m 235.645,208.153 c -0.91,-0.084 -1.738,-0.416 -2.729,-0.249 0.166,-0.828 -0.083,-1.657 -0.827,-1.988 -1.156,0.166 -1.321,-1.159 -2.563,-0.907 -1.156,-1.49 -2.564,0.493 -3.719,-0.828 -1.404,-0.082 -2.729,0.828 -3.391,-0.744 0.828,-0.083 1.738,0.083 2.48,-0.166 -0.99,-1.987 -3.968,-4.053 -2.067,-6.286 1.242,1.073 2.811,1.57 4.299,1.984 0.248,1.242 0.414,3.143 1.821,3.971 2.643,0.166 5.703,-3.557 7.852,-0.166 0,0.58 -0.663,1.242 0,1.655 l 1.238,1.073 c -0.741,0.994 -1.653,1.657 -2.394,2.651 z"
       id="path28" />
    <path
       d="m 238.619,216.175 v -0.826 c 0.58,0.413 0.993,1.154 0.993,1.899 l -1.158,0.912 c 0.165,0.496 0.744,0.33 1.076,0.165 0.248,-0.165 0.331,-0.662 0.745,-0.497 0.41,0.911 1.072,1.822 0.575,2.812 -0.413,0.496 -0.331,1.49 -1.238,1.49 -0.828,0.249 -0.663,-0.911 -1.49,-0.828 0.497,-1.983 -0.99,-3.557 0.497,-5.127 z"
       id="path29" />
    <path
       d="m 242.175,227.508 c -1.407,0.162 -1.159,-1.159 -1.325,-2.07 1.325,-0.497 1.077,-1.901 1.325,-2.977 0.411,1.486 1.487,3.805 0,5.047 z"
       id="path30" />
    <path
       d="m 241.31,234.372 c -0.248,0 -0.084,-0.413 -0.166,-0.745 l 0.663,-0.413 c 0.082,0.497 -0.332,0.745 -0.497,1.158 z"
       id="path31" />
    <path
       d="m 230.696,223.723 c -0.495,0.746 -0.826,1.822 -1.819,2.071 -0.828,0.082 -1.487,-0.58 -1.652,-1.325 v -0.911 c 0.496,0.414 0.249,1.325 0.907,1.821 0.993,0.083 1.821,-0.745 2.069,-1.491 0.495,-0.989 0.328,-2.148 -0.248,-2.976 l 0.084,-0.332 c 0.907,0.664 0.907,2.071 0.659,3.143 z"
       id="path32" />
    <path
       d="m 230.201,229.929 c -0.331,0.745 -0.828,1.57 -1.655,1.984 -0.497,0.083 -0.991,-0.083 -1.156,-0.58 v -0.741 c 0,0.41 0.493,0.824 0.907,0.989 0.994,-0.165 1.076,-1.32 1.656,-1.899 v -2.236 c 0.743,0.414 0.411,1.739 0.248,2.483 z"
       id="path33" />
    <path
       d="m 237.225,235.056 c 0.249,1.739 -0.825,3.64 -2.397,4.55 -0.411,0.248 -1.073,0.248 -1.321,-0.084 0,-0.165 -0.083,-0.248 -0.167,-0.33 -0.745,0.827 -1.569,1.407 -2.646,1.324 -0.247,-0.249 -0.658,-0.497 -0.493,-0.91 0.328,0.496 1.156,0.91 1.653,0.331 1.404,-1.16 2.811,-2.812 2.231,-4.799 h 0.332 c 0.575,1.49 -0.414,2.65 -0.745,3.888 0.248,0.496 0.91,0.331 1.32,0.166 1.326,-0.99 2.067,-2.481 1.904,-4.136 z"
       id="path34" />
    <path
       d="m 230.201,239.192 c -1.158,1.159 -2.318,2.733 -3.969,2.069 -0.329,-0.33 -0.329,-0.745 -0.329,-1.159 0.08,-0.164 0.329,-0.164 0.41,-0.164 -0.165,0.413 -0.165,0.91 0.331,1.159 1.819,-0.084 3.226,-1.905 3.885,-3.392 l 0.166,-1.077 c 0.414,0.745 -0.083,1.822 -0.494,2.564 z"
       id="path35" />
  </g>
  <path
     d="m 151.91065,183.29489 c -0.576,0.911 -1.817,1.571 -2.973,1.074 -0.911,-0.411 -1.904,-1.156 -2.48,-2.067 1.155,-0.331 3.139,1.241 3.967,-0.746 0.497,-2.645 -1.736,-3.473 -3.226,-5.125 1.739,-4.054 2.398,-9.017 1.656,-13.817 0.99,0 1.735,-1.075 2.316,-1.818 0,-0.579 0.658,-1.323 0,-1.904 -0.581,0.662 -0.498,2.398 -1.739,2.977 -1.405,0.331 -0.991,-1.486 -1.488,-2.232 -0.58,-1.158 0.911,-0.745 1.325,-1.324 0.742,-0.746 1.239,-1.735 1.073,-2.728 -0.91,0.496 -0.662,2.152 -1.984,2.562 -1.407,0 -1.49,-1.901 -1.9,-2.976 0.906,0 1.404,-0.745 2.066,-1.322 -0.083,-0.828 0.908,-1.49 0.166,-2.236 -0.58,0.912 -0.58,2.398 -1.987,2.978 -1.321,-0.331 -0.99,-2.232 -1.487,-3.308 1.076,-0.084 1.984,-0.912 2.563,-1.736 0.249,-0.497 0.249,-1.076 0.414,-1.49 -1.242,-0.745 -0.497,1.325 -1.49,1.739 -0.328,0.41 -0.66,0.742 -1.156,0.575 -0.662,-0.741 -0.662,-1.9 -0.579,-2.976 1.242,0.331 2.232,-0.994 2.976,-1.901 -0.58,-2.152 3.06,-2.649 2.398,-4.798 -0.994,0.579 -1.073,2.646 -2.729,2.563 -0.165,-0.249 -0.249,-0.581 -0.579,-0.581 -0.576,0.249 0,0.581 0,0.912 1.159,0.165 0.33,1.242 0.166,1.739 -0.249,0.578 -0.66,1.072 -1.239,1.32 -0.415,0.249 -0.745,-0.248 -0.828,-0.575 l 0.083,-2.484 c 2.646,-0.331 2.149,-3.391 4.053,-4.385 0.328,0.663 1.322,0.746 1.902,0.497 0.409,-0.248 0.741,-0.413 1.073,-0.744 0,0.247 0.33,0.413 0.413,0.579 1.486,0.746 2.066,-1.984 3.305,-0.415 0.745,0 1.324,-0.497 1.904,-0.907 0.245,0.494 0.741,0.825 1.238,0.907 -0.165,1.077 -0.741,2.153 -1.651,2.816 h -0.746 c 0.082,-0.663 -0.824,-0.58 -0.331,-1.242 0.249,-0.413 0.249,-1.077 0,-1.491 -0.741,0.084 -0.414,1.16 -0.741,1.656 -0.166,0.663 -0.581,1.652 -1.491,1.652 -0.907,0.332 -0.249,-0.824 -0.825,-1.072 0,-0.497 0.576,-1.158 0,-1.573 -0.662,0.331 -0.662,1.407 -1.075,2.07 -0.497,0.411 -0.908,1.072 -1.653,0.908 0.083,-0.249 -0.165,-0.332 -0.249,-0.497 -0.248,-0.08 -0.331,0.165 -0.496,0.33 0.165,0.331 0.332,0.745 0.745,0.912 0.91,0.082 1.653,-0.664 2.066,-1.405 0.99,0.66 0.91,1.818 0.496,2.895 -0.413,0.578 -0.993,1.237 -1.817,1.155 -0.497,-0.99 -0.086,-1.404 -0.248,-2.397 -1.077,0.579 -0.91,2.728 -2.563,2.728 -0.248,-0.331 -0.084,-0.908 -0.58,-0.908 -0.58,0.249 -0.166,0.659 -0.166,0.991 0.579,0.745 1.325,0.58 1.901,0.165 l 0.911,-0.907 c 0.165,0.328 0.248,0.742 0.58,0.907 1.073,0.167 1.9,-0.497 2.396,-1.321 0.908,-0.828 -0.165,-2.732 1.653,-2.815 0.166,-0.249 0.58,-0.493 0.58,-0.741 0.162,0.741 1.238,0.907 1.983,0.575 0.742,-0.165 1.072,-1.817 1.735,-0.575 0.911,0.41 1.818,-0.58 2.398,-1.242 0.742,0.497 0.576,1.407 0.166,2.149 -0.249,0.497 -0.662,1.076 -1.242,1.324 -0.577,0 -1.156,-0.496 -0.743,-1.075 0.332,-0.167 0.166,-0.497 0.166,-0.746 l -0.248,-0.245 c -0.745,0.824 -0.828,3.226 -2.562,2.811 0,-0.248 -0.332,-0.414 -0.415,-0.579 -0.083,-0.58 0.911,-0.911 0.083,-1.408 -0.662,0.58 -0.91,1.987 -1.901,2.567 -0.662,0.414 -0.91,-0.91 -1.325,0 0.166,0.742 1.242,0.991 1.739,0.414 l 1.073,-0.994 c 0.082,0.249 0.331,0.497 0.579,0.745 1.487,0.826 1.901,-2.317 3.142,-0.745 1.322,0.249 1.653,-2.484 2.974,-0.91 1.407,-0.331 2.315,-1.818 2.563,-3.143 0,-0.249 -0.082,-0.578 -0.33,-0.745 -0.415,1.242 -0.826,2.978 -2.398,3.143 -0.907,-0.414 0.165,-1.156 0,-1.818 1.242,-0.414 1.983,-1.904 2.231,-3.063 l -0.248,-0.328 c -0.741,0.825 -0.908,2.646 -2.397,2.646 -1.487,-0.413 0.331,-1.325 -0.493,-2.235 -0.829,0.91 -0.911,2.897 -2.647,2.897 -0.827,-0.745 0.332,-1.572 -0.165,-2.4 0.331,-0.332 0.745,-0.497 1.073,-0.908 0.744,0.411 1.49,0.411 2.231,0 0.912,-2.07 1.325,0.576 2.646,-0.414 0.912,-0.083 1.077,-2.153 1.987,-0.745 h 0.742 c -0.166,1.075 -0.742,2.398 -1.983,2.647 l -0.746,-0.58 c -0.248,0.165 -0.33,0.496 -0.165,0.745 0.414,0.58 1.407,0.58 1.822,0.165 2.231,-1.076 0.906,-3.722 2.972,-4.964 10e-4,-1.238 1.408,-2.314 0.415,-3.556 -0.331,-0.415 -0.496,-0.745 -0.994,-0.745 0.084,0.745 1.159,1.572 0.579,2.566 -0.33,0 -0.579,0.496 -0.906,0.083 -1.49,-0.165 -0.415,-2.812 -1.736,-2.236 0,1.159 0.328,2.319 1.487,2.897 0.331,0.084 0.99,0.166 0.576,0.742 -0.41,0.746 -0.907,1.573 -1.984,1.573 -0.409,-0.414 -0.079,-1.242 -0.409,-1.735 -0.829,0.741 -0.911,2.315 -2.232,2.646 -0.746,0 -0.911,-0.911 -0.581,-1.49 0.167,-0.084 0.167,-0.249 0.167,-0.415 l -0.332,-0.33 c -0.661,0.91 -0.91,3.062 -2.646,2.814 -0.745,-0.745 0.991,-1.572 0,-2.484 -0.745,0.995 -0.91,3.144 -2.728,3.144 -1.404,-0.908 1.159,-2.067 -0.248,-2.729 -0.328,1.159 -1.073,2.65 -2.395,2.812 -1.324,-0.494 0.577,-1.984 -0.496,-2.481 -0.248,1.159 -1.076,2.398 -2.068,2.978 -0.496,0.165 -0.993,-0.332 -0.745,-0.743 0.167,-0.579 1.073,-1.241 0.332,-1.82 -0.745,0.993 -1.242,2.645 -2.728,2.811 -1.322,-0.662 0.165,-1.57 -0.083,-2.481 0.662,-0.165 1.159,-0.827 1.735,-1.324 0.248,0.745 1.325,1.159 2.066,0.745 l 1.408,-1.408 c 0,0.415 0.166,0.745 0.579,1.076 1.239,0.332 1.98,-0.661 2.643,-1.32 -0.083,0.576 0.579,1.072 1.076,1.155 0.742,-0.248 1.486,-0.579 2.067,-1.321 0.248,0.825 1.321,0.825 1.9,0.576 0.911,-0.494 1.652,-1.487 1.487,-2.397 l -0.083,-0.084 c -0.66,0.746 -1.073,2.071 -2.232,2.071 -0.496,-0.497 -0.331,-1.491 -1.238,-1.325 -0.166,0.662 -0.663,1.569 -1.487,1.735 -0.993,0.497 -0.58,-0.907 -1.325,-0.907 0,-0.084 0,-0.331 0.166,-0.414 l -0.331,-0.331 c -0.662,0.58 -1.073,2.231 -2.398,1.982 -0.989,-0.579 0.828,-1.321 -0.413,-1.651 -0.163,1.735 -1.404,0 -1.653,1.651 -0.331,0.249 -0.907,0.664 -1.321,0.249 -0.911,-0.911 1.155,-1.735 0,-2.231 -0.167,1.159 -1.408,0.827 -1.653,1.982 -0.331,0.415 -0.745,0.829 -1.325,0.746 -0.579,-1.486 1.736,-2.232 2.647,-3.142 0.661,-0.248 1.486,-0.745 2.149,-0.167 0.497,0.416 1.156,1.077 1.901,0.581 1.076,-2.152 1.734,1.076 3.142,-0.414 0.742,-1.987 1.652,0.414 2.808,-0.58 0.91,-0.828 1.573,-1.655 1.491,-2.811 -0.084,-0.084 -0.166,-0.249 -0.332,-0.165 -0.662,0.745 -0.414,2.066 -1.569,2.479 -0.331,0 -0.746,0.084 -0.911,-0.248 -0.58,-0.414 0.497,-1.238 -0.331,-1.652 -0.658,0.742 -0.414,2.066 -1.653,2.562 -0.495,0.167 -0.827,-0.33 -1.155,-0.662 0.08,-0.331 0.328,-0.828 0,-1.158 -0.745,0.496 -0.828,1.904 -1.905,2.068 -2.396,-3.472 -8.099,0.167 -9.834,-3.721 3.884,-0.332 8.927,-5.461 12.067,0.332 0.083,0.081 0.165,0.33 0.414,0.248 l 0.331,-0.248 c -1.487,-2.402 -5.868,-2.813 -4.629,-6.451 0.993,-2.237 3.47,-3.395 5.787,-3.809 v -0.328 c -1.903,0 -5.291,0.908 -6.368,-1.325 -0.741,0.249 0,0.746 0,1.159 l 0.083,0.166 c -0.496,0.166 -0.99,0.494 -1.486,1.073 v 0.413 c -0.828,-0.661 0.414,-1.652 -0.249,-2.23 -0.579,0.496 -0.741,1.652 -0.496,2.562 0.993,0.828 0.58,2.319 1.49,3.06 0.411,-0.58 -0.083,-1.156 -0.083,-1.735 0.166,-0.414 0.659,0.083 0.99,0.166 -0.496,0.827 -0.663,1.734 -0.579,2.811 -1.57,-0.746 -3.553,-0.497 -5.372,-0.746 0.497,-0.744 1.901,-1.32 2.068,-2.231 -1.157,-0.331 -2.482,-0.496 -3.723,-0.911 3.805,-3.06 8.351,-5.13 13.725,-4.633 l 2.974,-0.165 c -0.659,0.993 -1.901,0.91 -2.811,1.49 0.993,1.158 2.066,-0.249 3.225,-0.083 0.745,0.415 1.901,0.083 2.729,0.415 -0.662,0.661 -1.49,1.32 -1.49,2.23 l 0.248,0.332 c 0.746,-1.901 2.812,-2.646 4.216,-3.64 -1.239,-0.496 -2.891,0.497 -4.216,-0.248 0.249,-0.828 2.563,-0.91 1.242,-1.817 -2.066,0.244 -4.464,0.824 -6.53,0.165 1.818,-9.1 4.133,-19.439003 1.486,-28.871003 5.375,6.866 4.631,16.876003 3.967,25.725003 -0.248,0.662 -0.082,1.655 -0.165,2.235 0.662,0.166 0.332,-0.496 0.662,-0.745 1.901,-6.782 -0.91,-15.054003 2.315,-21.256003 2.729,6.947 0.332,14.805003 -1.57,21.421003 l 0.249,0.332 c 1.984,-3.64 2.642,-8.107 3.554,-12.243 0.827,-0.828 1.407,-1.904003 2.397,-2.563003 0.579,6.203003 -2.397,11.498003 -4.879,16.707003 l 0.249,0.33 c 2.894,-3.141 2.729,-8.355 7.027,-10.42 0.745,1.158 0.58,3.308 0.166,4.716 -1.736,6.367 -6.448,12.076 -4.63,19.356 l 0.331,-0.249 c -0.082,-6.123 1.736,-11.829 5.454,-16.544 1.243,-0.911 2.564,-1.736 4.054,-2.066 l 0.411,6.781 c -2.229,3.722 -3.886,7.609 -3.389,12.409 -0.745,1.486 -0.827,3.308 -1.817,4.711 0.165,0.167 0.248,0.415 0.494,0.332 3.308,-4.054 1.158,-10.256 4.135,-14.475 4.05,-6.45 7.521,-13.316 8.763,-20.929003 0.907,-2.315 1.9,-4.63 3.304,-6.699 l 0.249,0.414 c 0.331,2.976 0.828,6.285 0.166,9.266003 -3.388,9.427 -8.845,17.948 -13.558,26.883 0.083,0.249 -0.083,0.497 0.166,0.662 5.54,-8.935 11.325,-17.786 14.629,-27.545 0.332,-0.58 0.828,-0.663 1.326,-0.746 -0.332,14.061 -9.59,24.486 -17.442,35.404 0.082,0.165 0.328,0.165 0.493,0.165 6.368,-7.609 12.568,-15.302 16.369,-23.989 0.331,-0.496 0.828,-0.496 1.16,-1.076 0.41,7.611 -4.796,13.237 -8.601,19.273 -3.967,5.295 -9.338,10.508 -13.557,15.137 h 0.414 c 7.607,-7.113 14.965,-14.64 19.673,-23.079 0.583,-0.496 1.408,-0.578 2.236,-0.578 0,2.152 -1.242,4.136 -2.236,6.124 -4.708,8.436 -13.471,15.881 -21.408,20.842 h 0.414 c 8.183,-4.878 16.7,-11.663 21.988,-19.932 h 0.332 c 0.165,3.805 -3.227,6.616 -5.786,9.51 l -8.683,7.61 0.332,0.248 c 4.467,-3.06 8.761,-6.367 12.649,-10.669 -0.082,5.954 -7.275,8.272 -11.573,10.256 2.812,-0.165 5.702,-1.239 8.182,-2.812 0.166,0.746 -0.907,1.656 -1.403,2.315 -6.117,4.137 -10.005,10.504 -14.137,16.131 1.817,-4.385 2.646,-9.183 3.304,-13.979 l -0.409,-0.497 c -1.819,5.131 -3.558,10.256 -5.952,15.055 0,-4.799 -0.331,-9.349 -3.142,-12.988 h -0.331 c 0.166,3.395 0.497,7.527 -0.911,10.591 -2.067,-1.987 -5.785,-3.971 -4.298,-7.61 -0.083,-0.331 -0.494,-0.579 -0.745,-0.828 -1.321,0.249 -0.245,2.314 -1.652,2.977 -0.412,0.166 -0.743,0.579 -1.322,0.414 -0.579,-0.083 0,-0.911 -0.745,-0.745 -0.576,0.249 0,0.579 0,0.91 0.331,0.745 1.242,0.414 1.818,0.249 1.077,-0.662 1.822,-1.822 1.739,-3.06 0.907,1.156 -0.414,3.06 0.659,4.298 6.368,5.378 11.076,12.491 9.673,21.095 -0.58,1.491 -0.663,3.06 -1.653,4.384 -2.149,-3.639 -0.58,-8.934 -3.308,-12.408 -0.575,-0.414 -0.496,-1.407 -1.321,-1.491 -0.083,-3.06 -0.745,-6.119 -2.398,-8.434 -0.58,1.155 0.579,2.397 0.497,3.806 0.414,7.029 -3.557,12.406 -4.63,18.61 -3.887,-6.454 -2.728,-15.055 -1.075,-22.168 -0.166,-0.166 -0.084,-0.745 -0.577,-0.579 -0.414,0.993 -1.159,1.9 -2.235,2.066 -0.908,-0.58 0.662,-1.983 -0.742,-1.901 -0.497,0.494 -0.332,1.487 -0.166,2.066 0.332,0.745 1.239,0.415 1.819,0.332 l 0.413,-0.332 c 0.58,2.402 -2.48,4.054 -2.811,6.371 -1.323,4.797 -0.333,9.927 -2.565,14.31 z m -5.453,-43.427 c 1.155,0.166 0.828,1.325 0.244,1.904 -0.41,0.249 -0.575,0.99 -1.156,0.741 0.166,-0.989 0.415,-1.817 0.912,-2.645 z m 2.48,-3.888 c 0.331,0 0.494,0.414 0.742,0.58 -0.083,1.241 -0.742,2.645 -2.067,2.977 -0.249,0.082 -0.414,-0.166 -0.579,-0.332 0.165,-1.239 1.324,-2.148 1.904,-3.225 z m 19.142,9.866 c -0.576,-0.083 -1.156,0.165 -1.487,-0.332 -0.579,0.745 -1.652,2.236 -2.811,1.657 l -0.331,-0.332 c -0.826,0.746 -1.736,2.232 -3.14,1.487 l -0.248,-0.248 c -0.745,0.744 -1.487,1.573 -2.563,0.993 l -0.414,-0.579 c -0.659,0.745 -1.072,1.573 -2.149,1.656 -0.414,-0.083 -0.824,-0.331 -1.156,-0.745 -0.58,0.828 -1.49,1.076 -2.398,1.159 -0.165,-0.249 -0.578,-0.331 -0.413,-0.745 0.331,0.496 1.242,0.662 1.652,0.166 1.242,-0.664 1.076,-1.987 1.491,-2.978 0.575,0.911 -0.746,2.066 0.575,2.646 1.077,0.249 1.739,-0.994 2.232,-1.735 -0.161,-0.496 0.332,-0.745 0.166,-1.242 h 0.248 c 0,0.994 -0.742,2.397 0.911,2.232 0.824,-0.331 1.238,-0.91 1.818,-1.57 0,-0.579 0.083,-1.077 0.248,-1.49 0.746,0.662 -0.993,2.398 0.911,2.314 0.742,-0.244 1.487,-0.989 1.818,-1.734 l 0.082,-1.822 c 0.742,0.58 -0.248,1.987 0.907,2.401 1.161,0.083 1.653,-1.159 2.233,-1.904 l 0.166,-1.487 c 0.496,0.659 0,1.984 1.486,1.9 1.076,-0.578 1.49,-1.735 1.822,-2.811 0,1.077 -0.413,2.481 -1.656,3.143 z m 9.342,-10.422 c 0.331,1.488 -1.818,2.565 -0.991,4.303 -2.066,0.989 -0.248,3.557 -2.562,4.302 0.248,1.238 -0.746,2.149 -1.652,2.811 -3.061,-0.828 -3.309,4.301 -6.203,2.728 -0.659,0.912 -1.736,1.822 -2.892,1.491 l -0.248,-0.331 c -0.579,0.828 -1.652,1.901 -2.728,1.486 l -0.414,-0.575 c -0.745,0.658 -1.487,2.149 -2.812,1.735 -0.161,-0.248 -0.579,-0.331 -0.493,-0.745 l 0.165,-0.083 c 0.328,0.661 1.156,0.661 1.652,0.248 0.825,-0.745 1.487,-1.818 1.074,-2.977 l -0.166,-0.165 0.166,-0.084 c 0.744,0.166 0.082,1.242 0.828,1.573 -0.166,0.084 -0.167,0.414 0,0.497 0.33,0.824 1.075,0.249 1.486,0 0.911,-0.91 1.49,-2.235 1.241,-3.312 0.66,0.911 -0.33,2.981 1.488,2.402 0.91,-0.663 1.075,-1.573 1.652,-2.402 0.33,0.663 0.91,1.408 1.735,0.911 0.745,-3.639 6.45,-1.241 5.54,-5.623 0.746,-0.166 1.322,-0.911 1.735,-1.491 0.497,-0.745 -1.073,-1.655 0.332,-1.82 0.58,-0.576 0.993,-1.488 0.578,-2.233 l -0.247,-0.33 c 0.746,-0.581 1.404,-1.57 1.736,-2.316 z m -19.591,19.026 c 0.166,0.993 -0.248,2.065 -0.911,2.811 -0.493,0.663 -1.403,0.663 -1.983,0.58 -0.414,0 -0.414,-0.58 -0.58,-0.829 l 0.166,-0.164 c 0.331,0.496 1.242,1.159 1.818,0.413 0.827,-0.746 1.159,-1.9 1.49,-2.811 z m -3.637,0.579 c 0.246,0.907 -0.248,1.818 -0.745,2.563 -0.662,0.497 -1.237,1.158 -2.231,0.911 -0.332,-0.414 -0.496,-0.994 -0.413,-1.407 0.33,0.745 1.155,1.407 1.899,0.661 0.581,-0.827 1.653,-1.49 1.242,-2.728 z m -0.081,6.533 c -0.58,0.745 -1.574,0.828 -2.233,0.745 -0.414,-0.33 -0.579,-0.745 -0.497,-1.324 l 0.167,-0.166 c 0.33,0.249 0,0.994 0.576,1.242 1.075,0.248 1.82,-0.91 2.231,-1.656 0.415,-0.413 -0.163,-1.155 0.496,-1.486 0.498,1.073 -0.33,1.9 -0.74,2.645 z m 2.066,-9.182 c -0.58,0.994 -1.656,1.655 -2.73,1.325 -0.248,-0.084 -0.082,-0.414 -0.082,-0.58 0.331,0.249 0.827,0.662 1.321,0.249 1.242,-0.746 1.407,-1.984 1.491,-3.226 0.659,0.496 0,1.49 0,2.232 z m -3.557,-0.577 c 0,0.907 -0.41,1.653 -0.908,2.316 -0.496,0.579 -1.325,0.746 -1.817,0.662 -0.497,-0.165 -0.663,-0.662 -0.58,-1.242 h 0.332 c 0,0.331 -0.084,0.745 0.248,0.911 1.073,0.248 1.817,-0.911 2.229,-1.656 l 0.165,-0.991 z m -2.398,-1.49 c -0.492,0.415 -1.072,0.745 -1.817,0.58 -0.249,-0.249 -0.58,-0.497 -0.415,-0.91 0.25,0.413 0.912,0.827 1.49,0.413 1.156,-0.662 1.074,-1.821 1.488,-2.811 0.413,0.907 -0.084,1.983 -0.746,2.728 z m 18.022,-8.686 c -0.576,0.828 -1.322,0.911 -2.15,1.076 -0.165,-0.083 -0.082,-0.331 -0.082,-0.496 1.076,0.331 1.9,-0.745 2.314,-1.573 l 0.497,-1.818 c 0.498,1.076 -0.166,1.984 -0.579,2.811 z m 1.738,-0.248 -1.159,0.828 -0.166,-0.084 c 0.911,-0.745 1.819,-2.066 2.068,-3.308 0.164,0.828 -0.249,1.819 -0.743,2.564 z m 17.556,-54.698003 c 0.413,0.91 0.413,2.231 0.58,3.391 -0.083,2.977 2.066,6.367 -0.167,8.935 -0.74,6.036003 -2.562,11.663003 -5.619,16.707003 -0.331,-10.174 0.99,-20.347003 5.206,-29.033003 z m -32.154,32.589003 0.989,0.33 -0.576,0.58 z m -1.077,1.987 c -0.414,-0.083 -0.907,-0.331 -0.991,-0.745 -0.165,-0.496 0.167,-0.994 0.576,-1.077 0.498,-0.083 0.994,0.249 1.16,0.745 -0.083,0.414 -0.248,0.912 -0.745,1.077 z"
     fill="#f4ac20"
     id="path36" />
  <path
     d="m 190.93065,43.501887 c 2.314,-1.077 4.794,-1.818 6.86,-3.723 1.161,-1.076 0.332,-2.811 0.166,-4.053 -4.628,-7.196 -8.927,-14.641 -12.811,-22.167 -2.564,-3.8879997 -8.269,-2.563 -12.237,-2.236 -0.79,0.721 -1.652,0.786 -2.519,0.511 -6.481,-6.6339997 -62.197,-19.8259997 -121.893002,-5.2229997 -6.531,2.397 -14.137,2.646 -19.18,8.2709997 -4.132,-0.828 -9.587,-2.235 -13.392,0.497 -3.719,8.435 -8.4309995,16.542 -13.0609995,24.566 v 2.397 c 1.819,3.147 5.375,3.477 8.1859995,4.881 -1.7379995,4.633 -4.7119995,8.853 -7.0269995,13.236 l -0.248,2.067 c -0.331,2.483 1.984,4.054 3.554,5.544 9.7549995,5.871 25.3789995,7.527 35.8759995,1.9 0,-4.55 -0.576,-9.014 -0.327,-13.48 2.476,-0.829 5.37,-1.739 6.53,-4.385 0.575,-1.574 -0.497,-3.225 0.33,-4.716 5.619,0.911 11.653,0.331 16.779,-1.242 1.984,-0.742 4.879,-1.984 4.961,-4.547 -2.066,-4.963 -3.719,-10.176 -4.216,-15.55 21.161,-3.392 44.308002,-2.812 66.051002,-1.161 l 0.328,0.332 c -0.165,2.066 -0.742,4.053 -1.156,6.038 -0.746,3.64 -2.811,6.868 -2.728,10.59 0.579,0.907 1.238,1.983 2.231,2.397 5.869,2.977 13.641,2.564 20.088,1.491 0.166,1.486 -0.248,3.556 0.331,5.042 0.745,1.574 2.314,2.32 3.722,2.978 0.908,0.662 2.395,0.497 3.14,1.326 -0.331,4.218 -0.663,8.685 -0.663,12.821 8.848,4.301 21.164,3.557 30.258,0.331 3.801,-1.655 9.092,-4.301 9.671,-9.099 -2.065,-5.379 -5.952,-10.008 -7.604,-15.634 z"
     id="path37" />
  <path
     d="m 188.69765,53.511887 c -9.093,-1.407 -17.193,1.901 -26.452,0.41 -3.225,-0.74 -6.778,-1.072 -8.845,-4.052 -0.331,-2.316 2.398,-2.977 3.884,-3.806 10.332,-4.053 21.823,1.739 31.828,-2.149 2.315,3.64 3.718,7.859 6.282,11.498 -1.901,-0.662 -4.299,-1.739 -6.697,-1.901 z"
     fill="#ffffff"
     id="path38" />
  <path
     d="m 131.98865,42.589887 c -0.659,-0.578 -1.404,-1.321 -0.91,-2.231 4.546,-4.302 11.491,-4.053 17.858,-3.722 5.785,1.324 13.227,1.569 18.353,-1.325 2.477,-1.569 0.741,-4.965 1.486,-7.279 0.742,-5.047 2.066,-9.842 2.974,-14.723 3.391,-0.995 7.938,-1.49 11.328,-0.166 l 12.895,22.333 c -10.5,-3.888 -23.147,-1.652 -31.991,4.302 -9.176,4.467 -21.988,7.941 -31.993,2.811 z"
     fill="#ffffff"
     id="path39" />
  <path
     d="m 131.82365,23.068887 c -32.489002,-2.811 -65.306002,-0.328 -94.570002,8.19 -1.238,0.578 -2.397,1.241 -3.473,2.152 -0.494,-5.627 -0.824,-11.332 -3.387,-16.131 -0.083,-2.978 3.387,-4.633 5.623,-5.46 48.881,-16.9929997 111.310002,-8.4239997 125.319002,-3.4739997 3.143,1.407 6.944,2.3179997 8.762,5.5439997 -1.239,5.788 -2.973,11.332 -3.139,17.534 -10.335,-6.12 -22.982,-6.534 -35.135,-8.355 z"
     fill="#ffffff"
     id="path40" />
  <path
     d="m 69.330648,40.109887 c 0.74,0.58 0.989,1.573 0.661,2.315 -4.468,3.805 -10.252,4.053 -16.12,4.219 -8.848,-0.331 -16.286,-3.97 -23.478,-8.355 -7.442,-2.397 -17.607,-3.225 -24.8829995,0.166 3.801,-7.444 8.0169995,-14.64 11.3249995,-22.168 3.391,-2.481 8.597,-1.238 12.071,0.083 -0.166,2.069 1.487,3.308 1.735,5.13 1.321,4.55 1.9,9.427 1.818,14.557 2.563,3.639 7.192,3.473 11.491,3.557 8.017,-0.911 18.021,-4.137 25.38,0.496 z"
     fill="#ffffff"
     id="path41" />
  <path
     d="m 43.783648,54.833887 c -11.739,4.301 -25.875,-2.398 -36.9519995,3.39 l 5.7059995,-10.67 c 11.821,3.143 24.386,-4.716 34.803,2.071 l 0.742,0.989 c 0.414,2.732 -2.646,3.308 -4.299,4.22 z"
     fill="#ffffff"
     id="path42" />
  <path
     d="m 41.352648,16.044887 c -0.776,-0.372 -2.311,-0.245 -2.984,-0.027 -2.612,0.849 -3.967,3.359 -3.043,6.216 1.025,3.15 3.505,4.102 6.293,3.195 2.491,-0.811 3.567,-2.484 2.804,-4.979 l -1.252,0.411 c 0.408,1.252 0.031,2.667 -1.38,3.125 -1.886,0.614 -2.852,-0.576 -3.542,-2.705 -0.78,-2.397 -0.321,-3.735 1.173,-4.222 1.521,-0.492 2.656,0.431 3.105,1.822 l 1.251,-0.407 -1.19,-3.664 -1.21,0.393 z m 8.589,-1.707 c 1.384,-0.297 2.267,0.732 2.785,3.156 0.514,2.425 0.121,3.709 -1.263,4.006 -1.383,0.292 -2.267,-0.723 -2.78,-3.147 -0.518,-2.421 -0.125,-3.722 1.258,-4.015 z m -0.275,-1.291 c -3.042,0.649 -4.626,2.939 -3.988,5.944 0.638,3.008 3.011,4.444 6.058,3.795 3.046,-0.649 4.633,-2.925 3.991,-5.93 -0.638,-3.006 -3.016,-4.457 -6.061,-3.809 z m 5.705,-0.831 0.259,1.217 0.29,-0.062 c 0.707,-0.149 0.962,-0.031 1.345,0.612 l 3.92,6.595 2.462,-0.525 0.887,-7.616 c 0.085,-0.743 0.273,-0.956 0.883,-1.084 l 0.331,-0.072 -0.259,-1.218 -4.039,0.859 0.259,1.218 0.786,-0.166 c 0.28,-0.059 0.451,0.004 0.479,0.201 0.063,0.234 0.004,0.638 -0.024,0.917 l -0.5,4.858 -0.027,0.003 -2.423,-4.234 c -0.137,-0.244 -0.354,-0.589 -0.402,-0.824 -0.045,-0.196 0.089,-0.323 0.365,-0.382 l 0.886,-0.19 -0.258,-1.219 z m 14.016,5.071 c 0.038,0.352 -0.138,0.582 -0.489,0.621 l -0.856,0.09 0.127,1.238 9.346,-0.983 -0.4,-3.815 -1.308,0.137 c 0.238,2.267 -0.517,2.66 -1.997,2.816 l -1.715,0.179 -0.31,-2.929 0.846,-0.086 c 0.506,-0.055 0.772,0.573 0.827,1.094 l 0.035,0.337 1.17,-0.123 -0.449,-4.254 -1.166,0.124 0.031,0.311 c 0.094,0.872 -0.169,1.228 -0.987,1.314 l -0.434,0.046 -0.283,-2.692 1.394,-0.145 c 1.8,-0.189 2.622,0.039 2.831,2.064 l 1.312,-0.135 -0.377,-3.5769997 -9.359,0.983 0.131,1.2389997 0.869,-0.091 c 0.356,-0.038 0.573,0.152 0.611,0.504 z m 12.865,-8.9209997 -4.544,0.317 0.086,1.245 0.877,-0.061 c 0.352,-0.025 0.562,0.1719997 0.589,0.5269997 l 0.401,5.747 c 0.024,0.355 -0.159,0.58 -0.511,0.603 l -0.862,0.064 0.09,1.241 4.36,-0.304 -0.086,-1.245 -0.863,0.062 c -0.352,0.024 -0.567,-0.173 -0.589,-0.528 l -0.359,-5.154 0.027,-0.003 4.412,6.689 2.854,-0.201 -0.533,-7.5539997 c -0.023,-0.355 0.159,-0.579 0.515,-0.604 l 0.845,-0.061 -0.086,-1.243 -4.351,0.303 0.09,1.242 0.86,-0.058 c 0.355,-0.025 0.565,0.173 0.589,0.528 l 0.324,4.6469997 -0.027,0.003 z m 9.092,3.0319997 c -0.048,-1.4419997 0.346,-2.3619997 1.97,-2.4179997 l 0.221,6.3239997 c 0.014,0.355 -0.176,0.576 -0.531,0.585 l -0.876,0.032 0.041,1.245 5.488,-0.189 -0.042,-1.249 -0.847,0.03 c -0.356,0.014 -0.559,-0.193 -0.573,-0.544 l -0.221,-6.3269997 c 1.625,-0.059 2.083,0.831 2.131,2.2759997 l 1.319,-0.045 -0.128,-3.5929997 -9.39,0.327 0.124,3.5939997 z M 104.31265,8.7738873 h 1.021 c 1.3,0 1.908,0.242 1.908,1.2889997 0,1.132 -0.522,1.36 -1.57,1.36 h -1.359 z m -2.66,6.3289997 c 0,0.352 -0.197,0.566 -0.552,0.566 h -0.863 v 1.245 h 5.506 v -1.245 h -0.879 c -0.353,0 -0.551,-0.214 -0.551,-0.566 v -2.436 h 1.162 c 1.145,0 1.285,0.198 1.285,1.049 l 0.001,1.159 c 0,1.657 0.907,2.323 2.25,2.323 1.827,-0.001 2.308,-1.046 2.308,-2.422 v -0.48 h -0.949 v 0.565 c 0,0.439 -0.097,0.877 -0.466,0.877 -0.383,0 -0.479,-0.21 -0.479,-0.479 l -0.005,-1.488 c 0,-1.162 -0.593,-1.5 -1.655,-1.797 v -0.031 c 1.232,-0.168 2.138,-0.776 2.138,-2.1209997 0,-1.518 -1.176,-2.294 -3.156,-2.294 h -6.524 v 1.245 h 0.877 c 0.355,0 0.552,0.211 0.552,0.565 z m 9.708,-7.5029997 -0.045,1.246 0.3,0.01 c 0.763,0.027 0.98,0.234 1.342,0.842 l 2.111,3.6419997 -0.069,1.97 c -0.014,0.353 -0.217,0.559 -0.573,0.545 l -0.931,-0.032 -0.045,1.247 5.657,0.196 0.045,-1.245 -0.962,-0.035 c -0.355,-0.009 -0.545,-0.231 -0.531,-0.582 l 0.069,-1.971 2.656,-3.8869997 c 0.193,-0.276 0.479,-0.366 0.987,-0.348 l 0.301,0.01 0.04,-1.245 -4.071,-0.142 -0.044,1.245 0.579,0.02 c 0.283,0.011 0.434,0.074 0.431,0.243 -0.006,0.155 -0.155,0.362 -0.231,0.472 l -1.324,1.8979997 -1.176,-1.9829997 c -0.071,-0.118 -0.201,-0.335 -0.198,-0.491 0.007,-0.169 0.18,-0.221 0.445,-0.209 l 0.58,0.02 0.044,-1.246 z m 23.543,2.315 c -0.555,-0.655 -2.011,-1.166 -2.714,-1.239 -2.729,-0.286 -4.992,1.4529997 -5.306,4.4399997 -0.345,3.295 1.535,5.175 4.45,5.478 2.601,0.276 4.271,-0.817 4.585,-3.405 l -1.311,-0.134 c -0.138,1.308 -1.056,2.449 -2.532,2.294 -1.97,-0.207 -2.37,-1.686 -2.135,-3.912 0.262,-2.508 1.224,-3.5449997 2.786,-3.38 1.59,0.168 2.249,1.476 2.098,2.925 l 1.307,0.138 0.404,-3.8289997 -1.266,-0.135 z m 8.42,0.5349997 -5.463,-0.7699997 -0.173,1.2349997 0.87,0.121 c 0.348,0.052 0.528,0.204 0.493,0.441 l -0.828,5.906 c -0.048,0.349 -0.276,0.532 -0.624,0.484 l -0.856,-0.121 -0.175,1.235 5.44,0.766 0.172,-1.236 -0.855,-0.12 c -0.348,-0.049 -0.518,-0.287 -0.466,-0.639 l 0.801,-5.705 c 0.072,-0.507 0.276,-0.534 0.624,-0.486 l 0.869,0.124 z m 1.881,3.98 c 0.276,-1.418 0.865,-2.229 2.463,-1.917 l -1.208,6.216 c -0.068,0.348 -0.302,0.517 -0.648,0.448 l -0.862,-0.165 -0.237,1.221 5.392,1.048 0.237,-1.22 -0.835,-0.163 c -0.348,-0.069 -0.499,-0.314 -0.434,-0.662 l 1.206,-6.212 c 1.598,0.309 1.843,1.28 1.567,2.698 l 1.294,0.251 0.682,-3.53 -9.22,-1.793 -0.687,3.528 z m 10.298,-1.81 -0.345,1.196 0.286,0.084 c 0.735,0.209 0.897,0.462 1.101,1.142 l 1.165,4.046 -0.542,1.89 c -0.096,0.341 -0.344,0.49 -0.686,0.393 l -0.897,-0.258 -0.345,1.197 5.444,1.563 0.341,-1.197 -0.924,-0.266 c -0.341,-0.097 -0.472,-0.355 -0.377,-0.697 l 0.542,-1.894 3.519,-3.129 c 0.255,-0.22 0.555,-0.237 1.046,-0.096 l 0.286,0.079 0.342,-1.197 -3.92,-1.124 -0.341,1.2 0.558,0.159 c 0.27,0.079 0.404,0.176 0.359,0.338 -0.045,0.152 -0.238,0.317 -0.338,0.404 l -1.746,1.518 -0.662,-2.208 c -0.038,-0.128 -0.113,-0.373 -0.072,-0.521 0.048,-0.163 0.228,-0.172 0.486,-0.098 l 0.555,0.161 0.346,-1.198 z"
     id="path43" />
  <path
     d="m 197.46065,208.77089 c -4.713,6.782 -8.266,14.065 -10.083,22.006 -2.07,2.977 -5.706,3.473 -9.098,3.719 -1.155,-4.051 -1.155,-8.766 -0.907,-13.233 0.58,-2.977 0.663,-6.12 1.652,-8.935 -0.161,-2.563 -2.973,-2.315 -4.629,-3.225 -11.321,-3.226 -23.309,3.888 -34.059,-1.491 -0.492,-0.41 -0.662,-0.907 -0.575,-1.487 2.232,-2.069 5.454,-1.655 8.347,-2.152 14.469,-1.156 25.463,7.527 40.424,5.957 3.06,-0.33 6.198,-0.414 8.928,-1.573 z"
     fill="#ffffff"
     id="path44" />
  <path
     d="m 175.30665,240.03889 c -38.481,10.091 -105.732002,10.336 -134.664002,3.722 -3.057,-0.745 -6.532,-1.238 -8.515,-4.135 1.735,-7.61 0.746,-16.297 -0.248,-23.824 2.895,2.317 6.53,2.897 10.253,3.394 39.429,4.878 81.425002,4.547 120.358002,-1.49 4.964,-0.745 10.087,-1.159 14.303,-3.721 -0.991,7.444 -1.488,16.626 0.413,24.15 -0.082,0.994 -1.155,1.408 -1.9,1.904 z"
     fill="#ffffff"
     id="path45" />
  <path
     d="m 30.972648,237.39289 c -1.572,0.497 -3.391,-0.331 -5.043,-0.496 -2.894,-0.249 -4.051,-3.143 -4.796,-5.46 -2.397,-6.783 -5.453,-13.317 -9.507,-19.358 13.475,3.474 26.456,-1.486 38.522,-4.96 0.956,-0.348 2.233,-0.518 3.309,-0.579 4.712,-0.58 10.663,-1.077 14.878,1.073 0.58,0.33 0.828,1.158 0.249,1.572 -11.326,6.699 -26.535,-1.983 -37.777,4.633 -1.325,1.241 -0.58,2.811 -0.166,4.219 0.828,6.12 1.819,13.151 0.331,19.356 z"
     fill="#ffffff"
     id="path46" />
  <path
     d="m 54.216648,229.64889 c 1.436,0.196 1.946,1.618 1.638,4.397 -0.31,2.778 -1.114,4.006 -2.549,3.809 -1.434,-0.193 -1.948,-1.6 -1.642,-4.377 0.31,-2.78 1.118,-4.022 2.553,-3.829 z m 0.162,-1.478 c -3.157,-0.426 -5.444,1.437 -5.826,4.883 -0.383,3.443 1.432,5.85 4.588,6.279 3.156,0.427 5.444,-1.418 5.826,-4.865 0.383,-3.443 -1.432,-5.864 -4.588,-6.297 z m 59.776002,13.638 -0.069,-4.368 -1.346,0.029 c 0.028,1.727 -0.227,2.962 -1.96,2.997 l -1.575,0.031 -0.114,-7.147 c -0.007,-0.401 0.193,-0.645 0.555,-0.652 l 0.893,-0.018 -0.02,-1.406 -5.636,0.109 0.02,1.407 0.896,-0.02 c 0.363,-0.004 0.569,0.231 0.576,0.631 l 0.102,6.51 c 0.006,0.397 -0.19,0.642 -0.554,0.649 l -0.882,0.017 0.024,1.407 z m -48.340002,-10.863 c 1.434,0.197 1.945,1.617 1.638,4.399 -0.31,2.776 -1.114,4.004 -2.549,3.807 -1.435,-0.192 -1.949,-1.601 -1.642,-4.38 0.31,-2.773 1.118,-4.019 2.553,-3.826 z m 0.162,-1.476 c -3.156,-0.428 -5.444,1.434 -5.827,4.881 -0.382,3.443 1.431,5.85 4.588,6.278 3.157,0.431 5.444,-1.418 5.826,-4.863 0.384,-3.444 -1.432,-5.864 -4.587,-6.296 z m 17.852,10.317 c -0.004,0.401 -0.21,0.635 -0.573,0.628 l -0.806,-0.014 -0.025,1.408 5.841,0.11 c 2.804,0.055 3.911,-0.721 3.945,-2.77 0.032,-1.918 -1.265,-2.342 -2.486,-2.783 v -0.032 c 1.177,-0.279 2.084,-1.045 2.107,-2.47 0.021,-1.439 -0.944,-2.497 -3.025,-2.538 l -6.23,-0.122 -0.021,1.411 0.825,0.014 c 0.362,0.007 0.559,0.253 0.553,0.648 z m 2.764,-2.697 0.965,0.017 c 1.028,0.02 1.833,0.359 1.811,1.732 -0.024,1.377 -0.839,1.679 -1.863,1.658 l -0.969,-0.017 z m 0.068,-4.398 0.794,0.017 c 0.982,0.017 1.672,0.351 1.652,1.518 -0.017,1.168 -0.717,1.49 -1.701,1.473 l -0.793,-0.018 z m 10.684,-1.391 -2.542,7.948 c -0.304,0.973 -0.511,1.19 -1.014,1.18 l -0.494,-0.007 -0.021,1.408 4.25,0.079 0.02,-1.407 -0.417,-0.007 c -0.389,-0.006 -0.897,-0.066 -0.893,-0.321 0.003,-0.224 0.065,-0.462 0.235,-1.021 l 0.183,-0.635 2.949,0.059 0.283,1.155 c 0.056,0.242 0.07,0.418 0.066,0.576 -0.004,0.176 -0.366,0.236 -0.801,0.225 l -0.435,-0.007 -0.02,1.408 5.274002,0.099 0.025,-1.404 -0.494,-0.009 c -0.504,-0.011 -0.703,-0.239 -0.976,-1.219 l -2.288,-8.041 z m 0.827,2.401 h 0.032 l 0.983,3.457 -2.095,-0.041 z m 65.930002,0.397 c 0.07,0.393 -0.09,0.673 -0.445,0.749 l -0.793,0.168 0.242,1.384 5.733,-1.235 c 2.753,-0.59 3.691,-1.608 3.34,-3.618 -0.332,-1.885 -1.677,-2.002 -2.953,-2.15 l -0.007,-0.031 c 1.097,-0.545 1.842,-1.504 1.597,-2.901 -0.249,-1.412 -1.393,-2.225 -3.435,-1.787 l -6.117,1.317 0.242,1.379 0.811,-0.171 c 0.354,-0.077 0.593,0.113 0.661,0.507 z m 2.191,-3.274 0.952,-0.204 c 1.007,-0.216 1.856,-0.071 2.094,1.277 0.239,1.35 -0.503,1.836 -1.507,2.052 l -0.953,0.205 z m -0.755,-4.315 0.779,-0.169 c 0.967,-0.208 1.7,-0.038 1.901,1.107 0.203,1.145 -0.422,1.622 -1.387,1.829 l -0.78,0.169 z m -122.768002,11.049 0.242,-1.38 -0.879,-0.19 c -0.355,-0.075 -0.511,-0.354 -0.442,-0.748 l 0.462,-2.636 0.441,0.094 c 0.808,0.172 1.05,0.648 0.932,1.31 l -0.107,0.611 1.18,0.251 0.831,-4.74 -1.176,-0.251 -0.111,0.611 c -0.113,0.658 -0.496,0.999 -1.307,0.828 l -0.439,-0.097 0.525,-2.998 1.408,0.304 c 1.814,0.389 2.549,0.907 2.152,3.166 l 1.318,0.283 0.701,-3.988 -9.436,-2.028 -0.241,1.384 0.88,0.185 c 0.351,0.077 0.51,0.357 0.442,0.75 l -1.122,6.388 c -0.068,0.393 -0.311,0.583 -0.666,0.507 l -0.865,-0.183 -0.242,1.38 z m 30.569,-2.798 c 0.079,-1.628 0.558,-2.624 2.221,-2.528 l -0.338,7.137 c -0.02,0.401 -0.235,0.628 -0.594,0.607 l -0.896,-0.052 -0.066,1.404 5.599,0.325 0.069,-1.404 -0.866,-0.052 c -0.363,-0.021 -0.552,-0.273 -0.535,-0.669 l 0.339,-7.141 c 1.659,0.096 2.045,1.146 1.969,2.774 l 1.342,0.079 0.19,-4.056 -9.584,-0.556 -0.192,4.057 z m 51.420002,6.358 -0.272,-4.353 -1.342,0.103 c 0.11,1.721 -0.086,2.97 -1.818,3.105 l -1.572,0.12 -0.449,-7.13 c -0.028,-0.401 0.161,-0.652 0.52,-0.68 l 0.894,-0.069 -0.086,-1.404 -5.626,0.436 0.089,1.402 0.892,-0.068 c 0.364,-0.028 0.581,0.197 0.605,0.594 l 0.411,6.492 c 0.023,0.4 -0.162,0.655 -0.525,0.682 l -0.879,0.07 0.089,1.4 z m 11.981,-10.663 c -0.718,-0.567 -2.284,-0.725 -2.998,-0.614 -2.78,0.431 -4.588,2.956 -4.164,6.316 0.474,3.705 2.802,5.247 5.761,4.789 2.65,-0.415 4.034,-2.066 3.705,-4.985 l -1.332,0.207 c 0.186,1.472 -0.442,2.974 -1.945,3.209 -2.001,0.309 -2.764,-1.201 -3.08,-3.703 -0.359,-2.818 0.337,-4.218 1.929,-4.467 1.616,-0.252 2.593,1.001 2.8,2.632 l 1.332,-0.207 -0.549,-4.308 -1.287,0.204 z m 13.777,8.055 -0.548,-4.322 -1.334,0.206 c 0.22,1.711 0.099,2.971 -1.615,3.24 l -1.563,0.242 -0.897,-7.079 c -0.052,-0.397 0.117,-0.666 0.476,-0.72 l 0.89,-0.138 -0.179,-1.395 -5.582,0.87 0.177,1.394 0.886,-0.139 c 0.358,-0.055 0.59,0.148 0.642,0.545 l 0.817,6.444 c 0.052,0.397 -0.121,0.666 -0.48,0.721 l -0.872,0.138 0.179,1.394 z m -1.048,-8.824 0.884,-0.156 c 0.357,-0.061 0.589,0.142 0.648,0.535 l 0.748,5.23 c 0.379,2.652 2.049,3.266 4.561,2.825 2.655,-0.466 3.587,-2.021 3.253,-4.357 l -0.725,-5.071 c -0.055,-0.394 0.111,-0.666 0.466,-0.727 l 0.842,-0.149 -0.197,-1.391 -4.357,0.763 0.2,1.391 0.842,-0.149 c 0.359,-0.062 0.59,0.142 0.649,0.535 l 0.648,4.533 c 0.279,1.959 0.11,2.815 -1.545,3.104 -1.16,0.204 -1.761,-0.42 -1.905,-1.431 l -0.798,-5.575 c -0.058,-0.396 0.111,-0.67 0.467,-0.732 l 0.886,-0.154 -0.199,-1.387 -5.568,0.972 z"
     id="path47" />
  <path
     d="m 80.405648,162.20089 9.922,1.904 c 2.149,5.624 4.05,11.415 5.785,17.286 l -0.249,0.911 c -1.901,2.153 -3.801,4.302 -5.702,6.534 -6.778,-0.907 -13.723,-1.653 -20.501,-2.811 -2.149,-3.143 -2.977,-6.7 -4.049,-10.339 4.791,-4.55 9.834,-9.017 14.794,-13.485 z"
     fill="#ffffff"
     id="path48" />
  <path
     d="m 85.450648,133.99689 c 0,1.072 -0.166,2.48 0.74,3.308 3.723,2.646 8.763,1.156 13.065,1.817 l 3.304002,2.65 c 0,4.136 0.279,8.389 0.166,12.488 -3.635002,3.147 -7.772002,5.71 -11.656002,8.686 -3.471,-0.58 -6.945,-1.321 -10.249,-2.231 l -2.232,-22.665 c 2.066,-1.904 4.215,-3.478 6.862,-4.053 z"
     fill="#ffffff"
     id="path49" />
  <path
     d="m 128.59765,137.71789 0.415,0.497 c -0.415,7.279 -0.908,14.475 -1.322,21.755 -3.387,1.158 -6.944,1.817 -10.415,2.811 -4.38,-2.563 -8.516,-5.706 -12.816,-8.521 l -0.247,-0.411 v -11.501 c 4.05,-2.48 7.524,-7.196 12.732,-5.954 0.742,0.745 1.652,1.159 2.725,1.242 2.812,-0.331 6.451,-0.993 8.928,0.082 z"
     fill="#ffffff"
     id="path50" />
  <path
     d="m 142.15865,174.19489 c -0.497,3.723 -1.822,7.031 -3.473,10.342 -6.862,1.322 -13.723,2.812 -20.833,3.718 l -5.454,-6.45 c 1.817,-6.037 3.388,-12.16 5.619,-18.031 3.309,-0.662 6.452,-1.49 9.839,-2.066 z"
     fill="#ffffff"
     id="path51" />
  <path
     d="m 107.93465,205.62789 c -2.231,0 -4.547,0.663 -6.696,0 l -9.672002,-15.633 v -0.579 l 5.458,-6.7 h 14.298002 l 5.624,6.7 c -2.813,5.46 -5.873,10.835 -9.012,16.212 z"
     fill="#ffffff"
     id="path52" />
  <path
     d="m 98.858648,54.043887 c 0.532,0 0.984,-0.284 1.183002,-0.684 h 1.532 v 4.013 c -0.494,0.158 -0.849,0.572 -0.849,1.065 0,0.627 0.58,1.136 1.291,1.136 0.713,0 1.293,-0.509 1.293,-1.136 0,-0.508 -0.38,-0.931 -0.901,-1.08 v -3.998 h 1.395 c 0.223,0.338 0.636,0.569 1.113,0.569 0.714,0 1.29,-0.506 1.29,-1.134 0,-0.632 -0.576,-1.139 -1.29,-1.139 -0.562,0 -1.034,0.318 -1.215,0.76 l -1.293,-0.002 v -3.717 c 0.505,-0.156 0.863,-0.573 0.863,-1.07 0,-0.628 -0.576,-1.138 -1.29,-1.138 -0.714,0 -1.29,0.51 -1.29,1.138 0,0.5 0.369,0.921 0.883,1.073 v 3.714 h -1.553 c -0.206002,-0.378 -0.648002,-0.648 -1.162002,-0.648 -0.714,0 -1.29,0.511 -1.29,1.14 0,0.626 0.576,1.138 1.29,1.138 z m -15.461,-0.038 c 0.528,0 0.98,-0.283 1.18,-0.684 h 1.532 v 4.012 c -0.494,0.158 -0.849,0.573 -0.849,1.065 0,0.628 0.579,1.136 1.293,1.136 0.711,0 1.29,-0.508 1.29,-1.136 0,-0.51 -0.379,-0.934 -0.901,-1.079 v -3.998 h 1.398 c 0.22,0.338 0.635,0.569 1.111,0.569 0.713,0 1.293,-0.507 1.293,-1.139 0,-0.627 -0.58,-1.134 -1.293,-1.134 -0.563,0 -1.035,0.317 -1.212,0.759 h -1.297 v -3.719 c 0.504,-0.158 0.866,-0.576 0.866,-1.07 0,-0.628 -0.579,-1.138 -1.293,-1.138 -0.711,0 -1.29,0.51 -1.29,1.138 0,0.501 0.373,0.921 0.884,1.073 v 3.715 h -1.554 c -0.206,-0.383 -0.648,-0.648 -1.158,-0.648 -0.714,0 -1.294,0.511 -1.294,1.138 0,0.63 0.58,1.14 1.294,1.14 z m 31.388002,-0.042 c 0.532,0 0.984,-0.279 1.183,-0.679 l 1.533,-10e-4 v 4.012 c -0.494,0.16 -0.849,0.573 -0.849,1.063 0,0.628 0.576,1.138 1.29,1.138 0.713,0 1.293,-0.51 1.293,-1.138 0,-0.507 -0.379,-0.932 -0.9,-1.08 v -3.995 h 1.393 c 0.224,0.338 0.638,0.57 1.115,0.57 0.713,0 1.289,-0.511 1.289,-1.138 0,-0.629 -0.575,-1.14 -1.289,-1.14 -0.563,0 -1.035,0.321 -1.215,0.763 h -1.293 v -3.723 c 0.5,-0.153 0.862,-0.571 0.862,-1.068 0,-0.628 -0.576,-1.136 -1.29,-1.136 -0.714,0 -1.291,0.508 -1.291,1.136 0,0.503 0.37,0.924 0.884,1.076 v 3.716 h -1.552 c -0.208,-0.384 -0.649,-0.648 -1.163,-0.648 -0.714,0 -1.29,0.506 -1.29,1.134 0,0.631 0.576,1.138 1.29,1.138 z m -36.301002,22.378 v -5.999 c 4.96,-0.082 9.836,0.021 14.879,0.104 v 10.031 l -5.375,0.104 c -0.825,-1.822 -1.238,-3.505 -3.222,-4.661 -1.984,0.163 -4.05,0.339 -6.282,0.421 z m 2.791,-12.616 h 10.435 l 1.653,5.582 -14.444,0.084 z m 10.435,-21.301 v 20.681 h -10.435 v -20.681 c 7.545,0 9.232,0.045 9.539,0.065 0.048,-0.01 0.255,-0.031 0.896,-0.065 z m -13.315,-5.082 c 14.237,0.021 9.945,0.204 14.74,0.039 -0.494,1.569 0,0 -1.425,4.425 h -10.849 z m -0.325,-4.483 h 1.549 v 2.017 h 1.653 v -2.017 h 2.066 v 2.017 h 1.297 v -2.017 h 1.756 v 2.017 h 1.721 v -2.017 h 1.756 v 2.017 h 1.45 v -2.017 h 1.755 v 3.777 h -15.003 z m 15.878,0 h 1.55 v 2.017 h 1.652 v -2.017 h 2.066 v 2.017 h 1.298002 v -2.017 h 1.755 v 2.017 h 1.722 v -2.017 h 1.755 v 2.017 h 1.449 v -2.017 h 1.757 v 3.777 H 93.948648 Z m 18.474002,30.866 h 10.435 l 1.656,5.582 -14.447,0.084 z m -2.215,-30.866 h 1.549 v 2.017 h 1.653 v -2.017 h 2.066 v 2.017 h 1.297 v -2.017 h 1.759 v 2.017 h 1.718 v -2.017 h 1.756 v 2.017 h 1.448 v -2.017 h 1.756 v 3.777 h -15.002 z m 12.654,9.565 v 20.681 h -10.436 v -20.681 c 7.544,0 9.231,0.045 9.542,0.065 0.048,-0.01 0.255,-0.031 0.894,-0.065 z m 0.49,-0.617 h -10.85 c -0.828,-1.491 -1.386,-2.96 -1.966,-4.447 14.24,0.021 9.448,0.187 14.24,0.021 -0.493,1.569 0,0 -1.424,4.426 z m -13.168,28.484 h 14.375 v 10.394 h -14.375 z m -15.702002,0.082 h 14.257002 v 10.181 H 94.481648 Z m 2.317,-6.648 h 10.439002 l 1.653,5.582 -14.447002,0.084 z m 10.294002,-21.301 v 20.681 H 96.653648 v -20.681 c 7.549002,0 9.235002,0.045 9.542002,0.065 0.048,-0.01 0.255,-0.031 0.897,-0.065 z m -10.624002,-0.617 c -0.826,-1.491 -1.384,-2.96 -1.964,-4.447 14.241002,0.021 9.445002,0.187 14.241002,0.021 -0.497,1.57 0,0 -1.425,4.426 z"
     fill="#f3aa21"
     stroke="#000000"
     stroke-width="0.05"
     id="path53" />
  <path
     d="m 116.11665,103.80489 v 0.328 l -0.227,0.641 c -8.596,-0.248 -17.628002,0.269 -26.142002,0.187 -0.247,-0.166 -0.828,-0.808 -0.828,-1.221 27.197002,0.065 18.270002,0.065 27.197002,0.065 z M 88.971648,81.726887 c 9.094,-0.165 17.773002,0.228 27.031002,0.063 0.456,20.925003 0.29,14.225 0.456,20.925003 H 88.557648 c -0.165,-2.812003 -0.165,-5.623003 0.332,-8.353003 1.32,-1.406 3.718,-1.158 4.298,-3.311 -1.077,-3.059 -3.391,-6.098 -4.216,-9.324 z m 10.864,17.165 h 4.956002 v -3.032 h 2.459 v -3.936 h -2.479 v -3.073 h -4.961002 v 3.093 h -3.05 l -0.041,3.916 h 3.116 z"
     fill="#ffffff"
     id="path54" />
  <path
     d="m 97.579648,95.038887 -0.022,-2.273 h 3.095002 v -3.116 h 3.297 v 3.095 h 2.481 v 2.294 h -2.459 v 2.991 h -3.319 v -2.991 z"
     fill="#e54724"
     id="path55" />
  <path
     d="m 63.130648,170.05889 c 0.166,0 0.165,0.083 0.245,0.166 0.165,0.828 -0.742,0.911 -1.156,1.324 l -1.076,0.166 c 0,-0.497 1.158,-1.408 1.987,-1.656 z"
     fill="#ffffff"
     id="path56" />
  <path
     d="m 28.574648,209.51689 c 2.233,-2.232 4.796,-3.474 8.018,-3.143 0.828,-0.165 0.661,-0.994 0.91,-1.656 2.149,2.319 6.117,-0.248 7.934,2.235 -2.314,1.157 -4.794,1.818 -7.189,2.564 -0.994,-0.249 -1.159,-1.407 -2.231,-1.491 -0.415,1.242 -1.739,1.656 -2.812,2.071 -1.487,0.33 -3.143,0.082 -4.63,-0.249 z"
     fill="#e54c22"
     id="path57" />
  <path
     d="m 60.402648,186.02489 c 1.072,-0.331 2.231,-0.662 2.893,-1.818 0.08,-0.745 0.328,-1.242 0,-1.905 -1.821,-2.48 -5.953,-3.97 -4.794,-7.609 0.083,-0.829 0.989,-1.491 1.652,-1.822 0.497,0.166 0.825,-0.328 1.321,-0.161 -0.579,2.562 0.662,5.125 2.812,6.45 l 0.91,0.414 c 1.404,4.136 3.637,7.941 5.951,11.662 -1.321,0.167 -3.06,0.415 -3.885,-0.744 -0.165,-1.573 -0.082,-3.557 -1.738,-4.219 -2.643,0 -4.05,2.976 -6.116,4.219 -3.967,2.729 -8.928,0.828 -13.558,1.573 -2.148,-1.077 -3.884,-2.898 -5.95,-4.137 0.331,-1.407 1.817,-2.317 2.563,-3.559 1.321,-2.729 3.057,-5.293 5.288,-7.607 l 0.497,0.165 c 3.059,3.802 6.613,9.76 12.154,9.098 z"
     fill="#e54c22"
     id="path58" />
  <path
     d="m 66.683648,96.936887 c -0.166,0.91 -0.745,1.655 -1.321,2.4 -0.249,-0.413 -0.745,-1.075 -1.325,-1.075 0.497,-0.58 1.652,-1.16 2.646,-1.325 z"
     fill="#ffffff"
     id="path59" />
  <path
     d="m 69.330648,105.12589 c -4.464,4.633 -9.177,9.432 -14.552,12.243 4.879,-3.722 9.673,-8.52 13.723,-13.236 l 0.829,0.083 z"
     fill="#ffffff"
     id="path60" />
  <path
     d="m 158.52465,198.67989 c -0.249,1.985 -1.985,3.558 -3.719,4.468 -2.067,-0.082 -4.548,0.084 -6.697,-0.164 1.736,-4.634 7.442,-1.574 10.416,-4.304 z"
     fill="#fcdf00"
     id="path61" />
  <path
     d="m 143.31465,192.39589 c 3.884,-0.993 8.845,2.646 11.739,-0.745 -0.745,-0.497 -1.901,0.331 -2.811,-0.166 -0.742,-0.331 -1.487,-0.911 -2.066,-1.656 4.215,-1.735 6.363,3.226 9.838,4.054 -0.414,0.579 -1.077,1.325 -1.49,1.904 -0.66,1.073 -1.737,1.818 -2.395,2.563 2.808,-0.166 3.305,-5.129 6.945,-4.301 0.327,0 0.659,-0.166 0.741,0.165 -2.232,1.242 0.331,5.13 -2.977,5.46 l -1.486,0.577 c 0.165,-0.826 0.496,-2.149 -0.249,-2.812 -1.322,0.248 -2.48,1.739 -4.05,1.821 -1.818,0.165 -3.719,0.165 -5.374,0.907 0.165,-1.404 0,-2.728 -1.156,-3.639 -1.574,-1.652 -4.382,-1.569 -5.209,-4.132 z"
     fill="#fcdf00"
     id="path62" />
  <path
     d="m 170.09765,202.65189 c -1.652,0.58 -3.718,0.91 -5.537,0.332 1.156,-0.994 2.398,-2.236 3.885,-2.567 0.082,0.91 1.237,1.407 1.652,2.235 z"
     fill="#fcdf00"
     id="path63" />
  <path
     d="m 169.13465,180.37289 c 0.114,1.938 0.379,3.811 1.542,5.32 0.415,1.16 -0.828,1.905 -0.579,2.811 1.159,-0.741 2.397,-1.9 3.143,-3.142 0.742,-1.487 1.487,-2.977 2.646,-4.303 -0.332,-0.578 -0.911,0 -1.325,0 l -0.166,0.167 c -1.404,-2.563 -0.496,-6.203 -1.155,-9.097 -0.083,-1.325 -1.076,-2.567 -0.911,-3.888 5.458,-4.964 6.368,-12.076 12.649,-16.461 0.494,-0.663 1.156,-0.911 1.818,-1.242 -0.33,2.815 -3.801,4.964 -5.209,7.61 -2.976,4.549 -4.794,9.515 -5.702,14.889 l 0.576,0.579 c 0.377,-0.3 0.359,-0.635 0.283,-0.979 -0.234,0.023 -0.407,-0.16 -0.407,-0.16 0,0 0.073,-0.332 0.253,-0.954 l 0.738,2.147 -0.535,3.833 c 1.159,2.567 -1.653,4.55 -1.321,7.279 l 0.248,0.332 0.591,1.934 c -0.771,1.575 -1.282,3.242 -1.419,5.016 0.994,-2.567 1.736,-5.46 3.805,-7.695 2.147,-2.481 4.627,-4.63 7.189,-6.286 -1.072,3.06 -3.718,6.123 -6.281,8.77 -0.828,1.158 -2.15,1.651 -2.646,2.893 h 0.414 c 3.967,-3.308 7.358,-7.361 10.166,-11.331 -0.327,4.715 -4.958,8.355 -6.695,12.821 0,0.415 -0.162,0.829 0.082,1.161 1.738,-4.634 6.203,-8.522 10.915,-9.68 -0.414,2.728 -3.06,5.46 -5.375,7.444 -5.208,1.821 -6.861,12.078 -13.391,7.113 -2.398,-2.646 -5.126,-6.534 -9.093,-5.209 v 0.332 c 5.126,-1.242 6.695,5.373 10.911,6.533 -3.636,0.331 -6.282,-4.136 -10.332,-2.815 v 0.331 c 4.298,-0.245 6.778,3.971 10.911,4.136 -0.579,1.325 -2.149,1.076 -3.307,1.325 -1.984,0.083 -2.398,-2.646 -3.968,-2.481 -1.983,0.577 -3.142,3.64 -5.54,2.647 -0.576,-0.166 -1.57,-0.331 -2.066,0.166 v 0.249 c 2.066,0.082 3.473,1.651 5.457,1.817 -0.083,0.413 -0.413,0.578 -0.745,0.91 -2.646,-0.91 -5.703,-1.076 -8.431,-1.817 1.49,-3.064 5.375,-2.319 6.53,-5.213 0.332,-1.325 -0.248,-3.06 1.325,-3.723 0.576,-0.248 1.735,0.084 1.818,-0.91 -0.662,-0.496 -1.49,0.331 -2.233,0.331 v -0.414 c -3.225,0.497 -6.036,-0.662 -8.182,-2.977 0.991,-0.534 2.122,-0.787 3.395,-0.433 l 0.324,0.102 -0.109,0.955 1.562,0.751 1.596,-0.163 5.893,-4.344 0.26,-1.11 0.196,-2.384 -0.391,-0.293 z"
     fill="#fcdf00"
     id="path64" />
  <path
     d="m 166.21365,183.79289 c -0.414,0.414 -0.331,1.155 -0.994,1.321 -0.825,0.083 -1.073,-0.826 -1.404,-1.321 -0.497,-4.964 2.315,-8.934 2.563,-13.734 3.061,4.054 0.579,9.431 -0.165,13.734 z"
     fill="#fcdf00"
     id="path65" />
  <path
     d="m 169.51865,152.93789 c 2.07,3.724 0.994,8.601 1.904,12.819 h 0.327 c 1.657,-4.049 3.805,-7.937 5.044,-12.238 -0.413,3.225 -2.232,7.361 -3.387,11.001 0.658,0.579 1.321,-0.663 2.066,-0.994 -0.911,1.573 -2.066,3.225 -3.553,4.302 -1.242,-1.987 -2.071,-4.137 -3.722,-5.959 0.661,-2.893 1.734,-5.539 1.321,-8.931 z"
     fill="#fcdf00"
     id="path66" />
  <path
     d="m 173.53765,188.36389 c 0.907,0 1.403,-1.242 2.231,-0.994 -1.159,0.994 -2.479,1.821 -3.801,2.483 -0.166,-0.828 0.99,-1.49 1.322,-2.318 0.413,-1.156 0.248,-2.563 1.154,-3.473 -0.245,1.324 -0.576,3.06 -0.906,4.302 z"
     fill="#fcdf00"
     id="path67" />
  <path
     d="m 183.07965,171.96389 c -1.574,2.231 -3.475,4.218 -5.209,6.284 -0.332,-1.817 0.993,-3.638 1.321,-5.539 0.993,-0.828 2.727,-0.166 3.888,-0.745 z"
     fill="#e54c24"
     id="path68" />
  <path
     d="m 175.72065,185.11389 c 0.072,-0.166 0.141,-0.339 0.207,-0.51 0.204,-1.36 0.659,-3.082 1.632,-5.03 0.948,-1.897 5.35,-6.338 5.35,-6.338 0,0 2.087,-2.321 3.664,-3.897 0.697,-0.698 3.429,-3.836 3.429,-3.836 -0.521,2.905 0.586,5.206 -0.349,7.383 -0.348,0.813 -0.739,1.248 -1.917,2.211 -2.85,2.324 -4.151,3.825 -7.152,6.453 -1.787,1.564 -3.215,3.671 -4.013,4.989 -0.089,0.169 -0.176,0.339 -0.26,0.509 z"
     fill="#e54c24"
     id="path69" />
  <path
     d="m 176.79965,170.82589 c 0.341,-1.092 0.897,-2.687 1.75,-4.686 0.831,-1.948 2.615,-5.174 2.615,-5.174 0,0 1.278,-2.384 2.21,-3.316 0.698,-0.697 2.557,-2.907 2.557,-2.907 -0.521,2.907 -0.407,2.56 -0.638,3.432 -0.369,1.386 -0.366,1.867 -0.99,3.256 -1.001,2.233 -2.894,4.64 -4.423,6.531 -0.438,0.569 -0.892,1.138 -1.359,1.697 -0.2,0.266 -0.459,0.632 -0.786,1.136 -0.145,0.717 -0.314,1.162 -0.486,1.438 -0.022,0.282 0.041,0.555 0.289,0.804 0.255,-1.256 0.31,-2.067 1.184,-2.943 1.628,-1.628 3.314,-4.129 3.314,-4.129 0,0 1.687,-2.733 2.792,-4.419 0.338,-0.515 1.859,-3.313 1.859,-3.313 -0.231,3.023 1.049,6.048 0.525,8.083 -0.222,0.856 -0.605,2.318 -1.802,3.256 -2.676,2.091 -2.791,1.977 -6.165,2.498 -0.782,0.121 -1.098,3.319 -1.958,4.977 l -0.072,-1.021 -0.134,-2.996 z"
     fill="#e54c24"
     id="path70" />
  <path
     d="m 152.82065,184.13689 c -0.14,-1.6 0.77,-2.501 0.802,-4.202 0.024,-1.497 0.454,-2.48 0.479,-3.828 0.059,-2.953 0.108,-4.292 1.018,-7.069 0.583,-1.783 1.251,-2.249 2.194,-3.78 0.453,-0.736 -0.993,4.891 -0.804,8.034 0.141,2.377 0.5,3.698 1.101,6.002 0.048,0.179 0.1,0.369 0.156,0.559 v 0.007 c 0.838,2.887 2.496,6.716 2.496,6.716 0,0 0.183,-3.178 0.642,-5.147 0.352,-1.511 0.689,-2.328 1.215,-3.788 0.445,-1.231 0.703,-1.959 1.224,-3.118 0.085,-0.193 0.165,-0.393 0.245,-0.593 0.135,-0.379 0.269,-0.76 0.393,-1.142 1.004,-3.278 1.135,-6.927 1.297,-7.772 0.097,-0.504 0.808,3.098 0.718,5.108 -0.1,2.188 -0.825,3.326 -1.37,5.448 -0.39,1.513 -0.786,2.335 -1.018,3.882 -0.29,1.951 -0.531,3.145 -0.051,5.056 0.214,0.855 0.524,1.546 1.335,1.605 0.81,0.058 1.169,-0.66 1.553,-1.391 2.055,-3.954 1.741,-9.773 2.114,-10.363 0,0 0.635,1.86 0.714,3.094 0.055,0.835 -0.038,1.483 -0.18,2.125 0.015,0.341 0.033,0.682 0.055,1.02 l -0.035,0.01 -0.258,2.962 0.39,0.294 -0.195,2.384 -0.743,0.919 -1.614,0.996 -1.306,0.515 -2.49,3.023 -1.596,0.163 -1.562,-0.751 0.109,-0.955 c 0.08,-0.079 0.176,-0.159 0.239,-0.245 -0.035,-0.062 -0.098,-0.125 -0.198,-0.187 -1.21,-0.728 -2.167,-0.755 -2.652,-1.124 -1.391,-1.662 -4.234,-2.342 -4.417,-4.467 z"
     fill="#e54c24"
     id="path71" />
  <path
     d="m 173.07465,179.90489 c 2.066,1.818 -0.58,3.556 -1.155,5.209 -1.325,-1.901 0.907,-3.474 1.155,-5.209 z"
     fill="#e54c24"
     id="path72" />
  <g
     fill="#e74c22"
     id="g82"
     transform="translate(-180.00035,-75.066113)">
    <path
       d="m 211.815,279.939 -4.25,-0.051 c -5.929,-0.201 -11.124,0.908 -16.424,3.477 l -0.839,0.554 c -0.21,0.151 -0.368,0.353 -0.472,0.604 v 0.403 c 0,0.252 0.104,0.505 0.262,0.706 0.787,0.554 1.521,0.856 2.466,1.108 4.145,0.705 7.818,0.907 12.068,0.655 l 3.516,-0.453 2.099,-0.252 -0.105,-0.605 -1.364,-0.554 -0.997,-0.1 -1.784,0.05 -1.365,0.251 -0.367,-0.201 1.574,-0.705 1.784,-1.36 2.309,-1.763 1.627,-1.159 0.471,-0.151 z"
       id="path73" />
    <path
       d="m 247.6,295.62 0.997,-10.165 -1.521,0.622 -2.572,0.986 -2.728,0.57 c -5.299,0.415 -9.865,0.311 -15.111,-0.363 -3.831,-0.415 -7.137,-0.155 -10.862,0.726 l -3.148,1.141 -0.263,0.103 c -0.105,0 -0.21,0.052 -0.315,0.104 -0.105,0.104 -0.158,0.208 -0.158,0.312 -0.052,0.155 0,0.259 0.053,0.362 0.052,0.104 0.105,0.208 0.262,0.26 1.155,0.622 2.257,1.037 3.569,1.4 6.191,1.764 12.016,2.749 18.679,3.164 l 5.719,0.363 4.775,0.311 z"
       id="path74" />
    <path
       d="m 321.112,293.928 -0.63,-5.602 -0.892,-4.24 -0.105,-0.606 c 3.41,1.565 6.664,2.271 10.442,2.271 l 3.462,-0.252 h 3.306 c 4.302,-0.757 8.081,-1.06 12.436,-1.009 2.623,0.152 4.827,0.707 7.241,1.716 l 0.682,0.555 0.472,0.555 -0.158,0.505 c -2.046,1.362 -4.145,2.12 -6.611,2.372 -5.3,0.908 -10.179,1.514 -15.688,1.968 l -4.775,0.707 -5.352,0.656 z"
       id="path75" />
    <path
       d="m 346.507,280.542 c 1.611,-1.023 3.171,-1.704 5.041,-2.239 8.678,-1.802 16.628,-1.461 24.994,1.071 0.728,0.242 1.299,0.584 1.871,1.022 0.104,0.097 0.207,0.195 0.259,0.34 0.053,0.147 0.053,0.293 0.053,0.439 -0.053,0.146 -0.105,0.292 -0.208,0.39 -0.936,0.827 -1.871,1.314 -3.066,1.704 -7.951,1.412 -15.069,1.119 -22.812,-0.877 -2.182,-0.487 -4.053,-1.022 -6.132,-1.85 z"
       id="path76" />
    <path
       d="m 222.145,144.505 -0.515,-12.291 -2.628,0.104 -4.019,0.518 -3.091,-0.104 h -2.679 l -1.443,-0.207 -2.421,-0.363 -2.628,-0.207 h -3.4 c -3.658,-0.26 -6.853,0.311 -10.15,1.763 l -2.782,1.348 -0.67,0.882 -0.566,1.09 0.051,0.984 0.618,1.557 2.319,2.333 2.782,1.816 3.401,1.348 c 9.479,3.06 18.495,2.852 27.821,-0.571 z"
       id="path77" />
    <path
       d="m 249.174,113.574 -1.941,-4.783 -0.788,-3.457 -0.734,-3.221 -6.979,1.042 -6.139,0.994 c -4.933,0.758 -9.077,1.753 -13.8,3.221 l -2.151,0.71 c -0.735,0.19 -1.364,0.473 -1.994,0.9 -0.42,0.237 -0.682,0.521 -0.945,0.9 -0.052,0.094 -0.052,0.237 -0.105,0.379 0,0.237 0.053,0.473 0.21,0.71 1.417,1.136 2.886,1.799 4.775,2.037 2.781,0.283 5.195,0.283 7.976,-0.095 l 3.044,-0.426 5.457,-0.758 c 3.41,-0.237 6.401,-0.095 9.759,0.473 l 2.781,0.948 z"
       id="path78" />
    <path
       d="m 228.249,123.91 -0.145,-1.931 -3.216,-0.717 c -5.279,-1.501 -9.621,-3.358 -14.192,-6.179 l -2.909,-1.108 c -6.961,-1.569 -13.361,-1.502 -20.306,0.218 l -2.081,0.859 -1.037,0.648 -0.668,0.689 0.182,1.157 0.435,0.766 2.072,1.221 c 6.404,2.642 12.715,3.254 19.562,1.923 l 3.562,-0.354 c 2.618,-0.289 4.873,-0.377 7.499,-0.279 l 3.154,0.283 c 2.367,0.247 4.375,0.888 6.392,2.061 z"
       id="path79" />
    <path
       d="m 340.421,130.519 -0.577,11.424 5.352,1.844 c 5.247,1.024 9.969,1.229 15.321,0.564 l 5.667,-1.486 c 4.145,-0.973 7.451,-2.92 10.285,-6.045 l 0.682,-1.486 0.157,-1.434 -0.892,-1.639 c -2.203,-1.383 -4.302,-2.305 -6.873,-2.971 l -3.096,-0.052 -3.306,-0.051 -5.404,0.512 -5.194,0.922 c -3.779,0.564 -7.085,0.615 -10.862,0.256 z"
       id="path80" />
    <path
       d="m 333.868,121.626 -0.082,-2.041 5.529,-1.655 6.327,-2.693 4.591,-2.234 c 6.221,-2.504 12.108,-3.492 18.874,-3.191 2.726,0.264 4.975,0.902 7.376,2.016 0.365,0.241 0.623,0.528 0.725,0.909 0.1,0.38 0.096,0.76 -0.066,1.138 -0.532,0.612 -1.062,1.081 -1.749,1.549 -5.913,3.171 -12.065,4.252 -18.877,3.381 l -4.09,-0.182 -2.991,-0.076 -3.358,0.016 -3.936,0.01 -3,0.825 -2.682,0.497 z"
       id="path81" />
    <path
       d="m 310.933,113.736 1.783,-4.979 1.627,-5.29 0.263,-1.971 v -1.141 l 4.932,0.518 5.457,0.468 c 4.198,0.362 7.713,0.985 11.806,2.126 l 5.089,1.556 4.093,2.023 0.84,0.674 0.053,0.622 -0.525,0.83 c -1.627,1.088 -3.254,1.711 -5.247,1.918 -2.624,0.312 -4.933,0.364 -7.609,0.104 l -2.466,-0.415 -4.932,-0.467 c -4.408,-0.363 -8.291,0.26 -12.331,1.971 l -1.679,1.09 z"
       id="path82" />
  </g>
  <path
     d="m 91.773648,163.99289 11.648002,-8.713 12.856,8.972 -5.405,16.959 H 97.545648 Z"
     fill="#00b5e2"
     id="path83" />
  <path
     d="m 70.169648,187.58589 c 6.122,9.944 16.69,16.984 28.932,18.406 l 0.07,-1.185 -9.077,-14.625 -19.73,-2.592 z"
     fill="#00b5e2"
     id="path84" />
  <path
     d="m 103.68465,129.24589 c -1.657,0 -3.29,0.104 -4.896002,0.303 l 0.069,1.408 0.262,2.074 0.577,1.816 0.21,1.244 0.053,2.541 3.253002,2.437 3.673,-2.177 1.889,-1.66 -1.312,-1.037 -0.42,-0.985 0.21,-1.141 1.154,-1.297 0.735,-1.14 0.315,-1.141 0.146,-0.804 c -1.932,-0.29 -3.909,-0.441 -5.918,-0.441 z"
     fill="#00b5e2"
     id="path85" />
  <path
     d="m 109.47465,205.83589 c 12.225,-1.795 22.663,-9.181 28.492,-19.395 l -1.016,-0.044 -18.785,3.318 -8.761,15.144 z"
     fill="#00b5e2"
     id="path86" />
  <path
     d="m 142.58965,172.83989 c 0.225,-1.656 0.343,-3.346 0.343,-5.062 0,-11.244 -4.97,-21.394 -12.852,-28.452 l -0.529,7.501 -0.734,14.002 13.537,11.876 z"
     fill="#00b5e2"
     id="path87" />
  <path
     d="m 77.106648,139.55589 c -7.715,7.047 -12.565,17.099 -12.565,28.222 0,2.18 0.189,4.318 0.548,6.401 l 14.301,-12.416 -2.047,-22.145 z"
     fill="#00b5e2"
     id="path88" />
  <path
     d="m 91.773648,163.99289 11.648002,-8.713 12.856,8.972 -5.405,16.959 H 97.545648 Z"
     fill="#00b5e2"
     id="path89" />
</svg>
