<?xml version="1.0" encoding="UTF-8"?>
<!DOCTYPE svg PUBLIC "-//W3C//DTD SVG 1.1//EN" "http://www.w3.org/Graphics/SVG/1.1/DTD/svg11.dtd">
<!-- Creator: CorelDRAW 2019 (64-Bit) -->
<svg xmlns="http://www.w3.org/2000/svg" xml:space="preserve" width="194.278mm" height="183.86mm" version="1.1" style="shape-rendering:geometricPrecision; text-rendering:geometricPrecision; image-rendering:optimizeQuality; fill-rule:evenodd; clip-rule:evenodd"
viewBox="0 0 194.0772 183.6697"
 xmlns:xlink="http://www.w3.org/1999/xlink"
 xmlns:xodm="http://www.corel.com/coreldraw/odm/2003">
 <defs>
  <style type="text/css">
   <![CDATA[
    .fil3 {fill:#094A9A}
    .fil1 {fill:#808185}
    .fil2 {fill:#CF9C50}
    .fil0 {fill:#EC1B24}
    .fil5 {fill:black}
    .fil4 {fill:white}
   ]]>
  </style>
 </defs>
 <g id="Layer_x0020_1">
  <metadata id="CorelCorpID_0Corel-Layer"/>
  <g id="_731616528">
   <path class="fil0" d="M173.8089 90.6541c0,20.2307 -8.0365,39.6332 -22.3422,53.9384 -14.3057,14.3052 -33.7077,22.3418 -53.9391,22.3418 -20.2307,0 -39.6326,-8.0366 -53.9378,-22.3418 -14.3057,-14.3052 -22.3422,-33.7077 -22.3422,-53.9384 0,-20.2308 8.0365,-39.6333 22.3422,-53.9387 14.3052,-14.3043 33.7071,-22.3422 53.9378,-22.3422 20.2314,0 39.6334,8.0379 53.9391,22.3422 14.3057,14.3054 22.3422,33.7079 22.3422,53.9387z"/>
   <path class="fil1" d="M97.5282 26.0578c-35.6179,0 -64.5966,28.9776 -64.5966,64.5963 0,35.619 28.9786,64.5954 64.5966,64.5954 35.618,0 64.5961,-28.9763 64.5961,-64.5954 0,-35.6186 -28.978,-64.5963 -64.5961,-64.5963zm0 117.5085l0 0c-29.1752,0 -52.9119,-23.736 -52.9119,-52.9117 0,-29.1759 23.7366,-52.9122 52.9119,-52.9122 29.1757,0 52.9115,23.7357 52.9115,52.9116 0,29.1757 -23.7357,52.9123 -52.9115,52.9123z"/>
   <path class="fil2" d="M44.6158 90.6541c0,29.1757 23.7365,52.9118 52.9118,52.9118 29.1758,0 52.9121,-23.736 52.9121,-52.9118 0,-29.1758 -23.7357,-52.9116 -52.9115,-52.9116 -29.1752,0 -52.9124,23.7357 -52.9124,52.9116z"/>
   <path class="fil3" d="M97.5282 0l0 99.1224c11.2945,-8.6975 20.9673,-14.7996 20.9673,-45.9567 0,-12.594 7.0098,-16.394 11.3576,-16.394l0 -17.6993c-10.1893,0 -18.7975,-8.2278 -18.7975,-19.0725l-13.5275 0z"/>
   <path class="fil0" d="M81.2644 81.597l16.2638 0 0 -17.0076 -20.4402 0c0.7277,7.253 2.1851,12.6966 4.1764,17.0076zm-16.0611 -44.8252l0 0c3.7348,0 9.4318,2.8124 10.9636,11.5906l21.3607 0 0 -17.0073 -32.3243 0 0 5.4167zm18.7981 -36.7718l0 0c0,6.2876 -2.8979,11.693 -7.3177,15.1273l20.8445 0 0 -15.1273 -13.5268 0z"/>
   <path class="fil4" d="M76.5611 53.1658c0,4.2577 0.1862,8.0322 0.527,11.4236l20.4402 0 0 -16.227 -21.3613 0c0.2511,1.4383 0.3942,3.031 0.3942,4.8034zm20.9671 45.9567l0 0 0 -17.5255 -16.2638 0c3.8927,8.4284 9.8117,12.5568 16.2638,17.5255zm-20.8445 -83.9951l0 0c-3.2015,2.4889 -7.1996,3.9451 -11.4798,3.9451l0 12.2826 32.3244 0 0 -16.2277 -20.8445 0z"/>
   <path class="fil2" d="M105.5131 11.5299c-4.3594,0 -5.8421,4.1392 -5.8421,7.8816 0,5.5406 2.8562,11.9435 2.8562,11.9435l0 1.1691 -0.7464 0 0 0.7724 -0.8783 0 0 2.9476 0.8783 0c-1.0042,2.4439 -0.7529,25.9045 -0.7529,25.9045 0,0 -1.6939,1.7593 -1.6939,4.5798 0,3.6976 3.0733,6.5858 7.0886,6.5858 5.0177,0 7.4646,-2.6996 7.4646,-7.0897 0,-3.2003 -0.6277,-4.4533 -3.0118,-5.646 0,0 -0.1246,-22.4562 -1.3168,-24.3344l0.7525 0 0 -2.8252 -0.8151 -0.3123 0 -1.3183c0,0 2.5714,-3.8268 2.5714,-10.9769 0.0006,-6.5859 -2.948,-9.2815 -6.5543,-9.2815z"/>
   <path class="fil4" d="M101.5303 22.5039c0,-0.4389 0.753,0 0.753,0 0,0 0.9397,1.3803 2.6962,1.3803 2.7605,0 3.8889,-1.0032 5.1441,-2.2582 0.1764,3.7537 -0.759,7.5243 -2.0077,10.7251l-0.8775 0c0,0 0.0624,-2.759 1.5051,-6.7097 -0.045,-0.5066 -0.7836,-0.4713 -1.2535,0 -1.1298,2.1329 -1.2553,6.773 -1.2553,6.773l-2.3208 0c-0.0006,-3.5751 -2.3836,-7.7143 -2.3836,-9.9105zm1.0032 11.6664l0 0 0 1.4435c1.82,0 2.4461,0.5008 4.2664,0.5008 1.0651,0 2.0059,-0.4375 2.0059,-0.4375l0 -1.5687c0,0 -0.8772,-0.4389 -2.0059,-0.4389 -1.1301,0 -1.6312,0.5009 -2.6974,0.5009 -0.6277,0 -1.569,0 -1.569,0z"/>
   <path class="fil0" d="M109.4339 46.0893l0 6.6489 -6.8368 -10.0996c0,0 -0.1572,-4.2335 0.2512,-4.6415 1.348,0.5331 6.5856,8.0921 6.5856,8.0921zm-6.5862 13.8616l0 0c-0.2826,0.2825 0,3.7004 0,3.7004l2.1318 1.5691 2.195 0 0 -1.5691c0.0006,0 -2.195,-3.1359 -4.3268,-3.7004z"/>
   <path class="fil1" d="M109.4339 56.1252l0 5.5827c0,0 -5.2382,-5.5513 -6.8368,-7.7161 0,-0.5645 -0.4079,-6.1148 0,-6.5225 2.4,2.6352 6.8368,8.6558 6.8368,8.6558zm-3.2623 -18.8808l0 0 2.5089 3.0741 0 -2.9475 -2.5089 -0.1267z"/>
   <path class="fil4" d="M102.4712 66.9137c0,0.9408 0.8776,2.0698 0.8776,2.0698 0,0 0,1.0673 -0.5011,1.0673 -1.1293,0 -1.9451,-1.5059 -1.9451,-3.4503 0,-0.8163 0.4391,-2.3835 0.9404,-2.3835 0.5019,-0.0005 0.6282,0.7523 0.6282,2.6968zm2.1329 -0.8784l0 0c-0.377,0 -0.8157,0.8151 -0.8157,1.3801 0,1.4422 1.1284,3.8884 1.6934,3.8884 0.5637,0 1.0981,-0.5644 1.0981,-1.0976 -1.4587,-1.991 -0.9103,-4.1709 -1.9759,-4.1709zm2.571 0l0 0c2.4462,0 0.7528,1.6318 3.0111,3.2624 0,0.6903 -0.6896,1.3168 -1.3172,1.3168 -1.1916,0 -2.3203,-3.0732 -1.6938,-4.5793zm2.384 -1.1293l0 0c0,0.941 1.0668,3.4504 2.0698,3.4504 0.5644,0 1.0036,-1.0036 1.0036,-2.3211 0,-0.5643 -1.3794,-1.8504 -1.8506,-1.8504 -0.4702,0 -1.2227,0.4074 -1.2227,0.7211z"/>
   <path class="fil5" d="M-0 55.9044l0 15.3279c0,42.3571 30.3052,61.8954 60.1418,61.8954l0 -77.2233 -15.5626 0 0 60.8435c-16.6146,-7.0375 -28.9001,-19.6577 -28.9001,-60.8435l-15.6791 0z"/>
   <path class="fil4" d="M46.9164 58.2412c0,4.3213 0,62.0337 0,62.0337l-3.2485 -1.3756c-15.466,-6.55 -29.7876,-18.5007 -30.3014,-60.6581 -2.7738,0 -8.2329,0 -11.0302,0 0,3.3573 0,12.9911 0,12.9911 0,40.0296 27.4816,58.5389 55.4681,59.5117 0,-4.3373 0,-68.248 0,-72.5034 -2.7783,0.0006 -8.1086,0.0006 -10.888,0.0006z"/>
   <path class="fil5" d="M133.1913 55.9044l0 13.5027c0,46.275 31.8453,63.7206 60.8859,63.7206l0 -13.0924c-27.1751,0 -44.4649,-19.1568 -44.4649,-48.5133l28.7339 0 0 18.659 15.731 0 0 -34.2766 -60.8859 0z"/>
   <path class="fil4" d="M135.5281 58.2412c0,3.1964 0,11.1658 0,11.1658 0,44.0068 29.7547,60.4328 56.2122,61.3408 0,-2.5238 0,-6.0812 0,-8.4801 -27.0809,-1.08 -44.4663,-20.7216 -44.4663,-50.7458l0 -2.3375 33.4092 0c0,0 0,15.0828 0,18.6595 2.7968,0 8.26,0 11.0571,0 0,-3.7619 0,-25.8416 0,-29.6034 -4.1505,0.0006 -52.0633,0.0006 -56.2122,0.0006z"/>
   <path class="fil5" d="M123.108 104.1517c0,0 -10.5447,-0.4489 -15.5928,-0.4489 -3.6646,0 -9.7991,-0.1292 -15.0657,1.6014 -7.4683,2.4562 -13.766,9.7276 -13.766,18.1418 0,19.6301 33.6543,25.0155 33.6543,37.2449 0,5.8305 -5.4963,9.7595 -12.6768,9.7595l-20.9775 0 0 13.2192 25.6897 0c8.19,0 24.3443,-8.1723 24.3443,-23.764 0,-11.2198 -7.4683,-17.0691 -15.1343,-22.2022 -9.0462,-6.058 -18.5209,-10.1756 -18.5209,-15.1543 0,-4.4884 2.9171,-6.0579 18.6224,-6.0579 2.3561,0 9.4239,0.1125 9.4239,0.1125l0 -12.4519 -0.0006 0z"/>
   <path class="fil4" d="M93.1805 107.5241c-6.0432,1.9872 -12.1595,8.0948 -12.1595,15.9226 0,9.6704 9.4969,15.5625 18.6804,21.2601 7.7002,4.7766 14.9745,9.2891 14.9745,15.9842 0,7.0082 -6.3153,12.0958 -15.0143,12.0958 0,0 -14.9506,0 -18.6406,0 0,2.4868 0,6.0581 0,8.5468 3.8618,0 23.3529,0 23.3529,0 7.4694,0 22.0069,-7.5646 22.0069,-21.4278 0,-9.9943 -6.668,-15.2869 -14.0969,-20.2599 -2.2125,-1.4823 -4.446,-2.8419 -6.6053,-4.1571 -7.2359,-4.4076 -12.9527,-7.8877 -12.9527,-12.9395 0,-7.2275 6.1789,-8.3943 20.96,-8.3943 0,0 4.4226,0.0522 7.087,0.0841 0,-2.4127 0,-5.5245 0,-7.8421 -3.3645,-0.1308 -9.7161,-0.3572 -13.2565,-0.3572l-0.7213 -0.0004c-3.5993,-0.0078 -9.0368,-0.0199 -13.6147,1.4849z"/>
  </g>
 </g>
</svg>
