<?xml version="1.0" encoding="UTF-8"?>
<!DOCTYPE svg PUBLIC "-//W3C//DTD SVG 1.1//EN" "http://www.w3.org/Graphics/SVG/1.1/DTD/svg11.dtd">
<!-- Creator: CorelDRAW 2019 (64-Bit) -->
<svg xmlns="http://www.w3.org/2000/svg" xml:space="preserve" width="158.525mm" height="241.852mm" version="1.1" style="shape-rendering:geometricPrecision; text-rendering:geometricPrecision; image-rendering:optimizeQuality; fill-rule:evenodd; clip-rule:evenodd"
viewBox="0 0 158.3761 241.6247"
 xmlns:xlink="http://www.w3.org/1999/xlink"
 xmlns:xodm="http://www.corel.com/coreldraw/odm/2003">
 <defs>
  <style type="text/css">
   <![CDATA[
    .fil2 {fill:#003354}
    .fil1 {fill:#BA0000}
    .fil3 {fill:#FFFF99}
    .fil0 {fill:white}
   ]]>
  </style>
 </defs>
 <g id="Layer_x0020_1">
  <metadata id="CorelCorpID_0Corel-Layer"/>
  <g id="_795493136">
   <path class="fil0" d="M157.7857 105.4167c-2.3603,-28.77 -11.5756,-55.292 -25.7359,-74.6216 -14.3849,-19.8921 -33.2655,-30.7942 -52.8202,-30.7942 -19.6666,-0.1115 -38.3225,10.9021 -52.9321,30.7942 -14.1603,19.3296 -23.2629,45.8515 -25.6232,74.6216 -0.4495,5.1698 -0.6744,10.3399 -0.6744,15.3968 0,0.3371 0,0.7865 0,1.1235 0,0.2252 0,0.5624 0,0.7867 0,3.259 0.1122,6.6309 0.3372,10.002l0 0.5622c0.1122,0.5622 0.1122,1.1236 0.1122,1.798 0,0.1122 0,0.1122 0,0.225 2.3602,30.6802 12.2502,58.4387 27.7591,78.2183 9.4398,12.0251 20.9026,20.7911 33.0405,24.9494 5.9559,2.0225 11.9122,3.1461 17.8685,3.1461 5.2822,0 10.4513,-0.7866 15.6213,-2.3595 12.0251,-3.5962 23.4879,-11.5758 33.1532,-23.1514 8.3162,-9.777 15.0591,-21.6898 20.229,-35.5129 5.2814,-13.9354 8.5413,-29.2195 9.7771,-45.2901 0,-0.1128 0,-0.1128 0,-0.3372 0,-0.45 0.1122,-0.7865 0.1122,-1.2365l0 -0.6743c0.2249,-3.4833 0.3371,-7.0801 0.3371,-10.4514 0,-0.225 0,-0.5621 0,-0.7866 0,-0.3372 0,-0.7873 0,-1.1235 0.1128,-4.8327 -0.1122,-10.0027 -0.5616,-15.2847z"/>
   <path class="fil1" d="M30.6803 75.1858l-0.1123 136.6575c9.1033,11.5756 19.8918,20.0046 31.8047,24.1629l0.2242 -176.6651c-11.9121,2.696 -22.5884,8.2028 -31.9166,15.8448z"/>
   <path class="fil1" d="M94.2894 59.0032l-0.225 177.7896c11.8,-3.5962 22.7013,-11.3506 31.8047,-22.2521l0.1122 -140.7037c-9.2155,-7.305 -20.004,-12.474 -31.6919,-14.8338z"/>
   <g>
    <path class="fil2" d="M155.875 120.8135c0,-5.1698 -0.2246,-10.227 -0.6747,-15.1718 -4.8319,-58.1014 -36.9737,-103.0546 -75.9707,-103.0546 -38.9968,0 -71.138,44.9532 -75.9706,103.0546 -0.1123,1.3487 -0.2244,2.6974 -0.3372,4.1584 -0.1123,0.8987 -0.1123,1.9101 -0.1123,2.8097 0,0.6743 -0.112,1.4608 -0.112,2.1351 0,0.1122 0,0.3372 0,0.3372 -0.1129,1.9103 -0.1129,3.8207 -0.1129,5.7315 0,0.5615 0,1.2359 0,1.9102 0.3372,35.963 11.1263,67.8797 27.7591,89.2324l0.1121 -136.6575c9.3277,-7.6416 20.1169,-13.1501 31.8039,-15.8461l0 176.5536c5.5072,1.9102 11.1263,2.9219 16.9699,2.9219 5.0577,0 10.0026,-0.7867 14.8347,-2.2481l0.225 -177.7899c11.575,2.473 22.4763,7.5304 31.804,14.8347l-0.2243 140.8159c17.8686,-21.2405 29.5564,-54.3931 29.8937,-91.817 -0.1123,-0.6743 -0.1123,-0.6743 0,0 0.1123,-0.6743 0.1123,-1.3487 0.1123,-1.9102zm-6.9675 -20.5661l0 0 0 0z"/>
   </g>
   <path class="fil1" d="M2.9219 109.6872c12.4744,-33.3777 42.0314,-56.8665 76.3078,-56.8665 34.3892,0 63.8336,23.4888 76.1958,56.8665 -0.1122,-1.3481 -0.2251,-3.3711 -0.3371,-4.1576 -12.6994,-32.7034 -42.031,-57.54 -75.9709,-57.54 -33.827,0 -63.0469,25.0609 -75.8584,57.8771 -0.1123,0.7866 -0.2244,2.4724 -0.3372,3.8205z"/>
   <path class="fil0" d="M126.0933 90.5825l-0.1121 93.9517c0,6.8558 -5.5065,12.3622 -12.4746,12.3622l-70.6887 -0.1122c-6.8556,0 -12.4743,-5.507 -12.4743,-12.4744l0.1121 -93.7273 95.6375 0z"/>
   <path class="fil2" d="M78.6683 180.4887c-0.45,0.5622 -1.0114,1.0115 -1.911,1.1236 -0.1122,0 -0.1122,0 -0.2243,0 -1.2365,0 -2.4723,-1.0114 -2.5852,-2.3596l0 -0.1129c-2.809,-0.7865 -5.6187,-1.798 -8.3162,-2.5847 -0.6743,1.686 -1.2358,3.3711 -1.798,4.945 7.8666,1.0114 17.9813,3.1467 28.9947,4.1583 -0.3371,-1.0115 -0.7871,-2.0232 -1.2363,-3.1468 -3.8213,0.1122 -8.204,-0.7865 -12.9237,-2.023z"/>
   <path class="fil2" d="M51.2464 173.5208c-9.6648,0.1128 -18.9925,4.4955 -18.9925,4.4955l0 9.3276c0,0 16.1836,-6.4059 25.5112,-6.293 0.3372,0 0.5614,0 0.7864,0 0.6745,-2.0232 1.3488,-3.9333 2.1355,-5.9565 -3.7084,-0.8994 -6.968,-1.5736 -9.4405,-1.5736z"/>
   <path class="fil2" d="M96.7618 181.9496c0.5615,1.4608 1.2359,2.9219 1.6859,4.2705 0.1122,0 0.1122,0 0.1122,0 16.4078,0.5622 25.8482,-8.9903 25.8482,-8.9903l0 -9.2154c0,-0.1122 -16.0713,10.9012 -27.6463,13.9353z"/>
   <path class="fil2" d="M98.5599 194.9862c-0.2251,0.1122 -0.4493,0.1122 -0.6743,0.1122 -1.1238,0 -2.2475,-0.7865 -2.4727,-1.9104 -0.112,-0.5621 -0.3371,-1.2364 -0.562,-1.9108 -5.956,-1.236 -8.8784,-3.8205 -23.9373,-4.3828 -3.259,-0.1122 -6.1816,0.1122 -8.766,0.3373 -0.4494,1.798 -0.8988,3.3717 -1.2359,5.0569 -0.2249,1.2365 -1.2366,2.1354 -2.4725,2.1354 -0.1129,0 -0.3371,0 -0.45,-0.1121 -1.3481,-0.3374 -2.2476,-1.5732 -2.0225,-3.0347 0.1121,-1.0109 0.3372,-1.9103 0.5616,-2.9219 -9.3276,2.5854 -13.4858,7.4173 -13.4858,7.4173 0,0 59.7879,-0.1121 68.7784,0 8.878,0 11.5756,-9.3276 11.5756,-9.3276 0,0 -5.5071,5.9565 -21.8027,5.5065 -0.3372,0 -0.7867,0 -1.1238,-0.1122 0.113,1.3486 -0.6743,2.6976 -1.9101,3.1468z"/>
   <path class="fil2" d="M97.211 192.6259c-7.9788,-28.8821 -46.3011,-74.5099 -46.6383,-74.9593l1.0108 -0.7865c0.3372,0.4494 38.8846,46.3014 46.8642,75.4084l-1.2367 0.3373z"/>
   <path class="fil2" d="M59.0008 191.8393l-1.2357 -0.225c5.7315,-29.6688 40.2327,-78.5554 40.6827,-79.0046l1.0108 0.7865c-0.3372,0.4494 -34.8384,49.1109 -40.4578,78.4432z"/>
   <path class="fil2" d="M75.9707 179.1399c-2.4724,-28.9942 0.225,-60.6867 0.225,-60.9111l1.236 0.1122c0,0.3372 -2.6968,31.9169 -0.2244,60.6867l-1.2366 0.1122z"/>
   <path class="fil2" d="M48.4374 139.8058c0,0 -0.6745,3.8212 -0.2251,5.1698 0,0 5.9566,-1.573 10.7884,-0.8994 4.8329,0.5622 5.6194,1.798 5.6194,2.3604 0.112,0.5622 -0.1123,2.3602 -3.4841,4.1583 0,0 -1.0114,0.6744 -1.2358,1.4608 -0.2251,0.6744 -6.4057,3.034 -7.8667,3.5962 -1.4608,0.5622 -4.9449,2.4725 -5.1698,3.7082 -0.225,1.2367 0.7866,2.4726 0.7866,2.4726 0,0 -6.0687,-0.6737 -6.518,-6.9673 0,0 -3.8213,2.0232 -5.5072,3.1468 0,0 -0.4495,0.4494 -1.2359,0.2244 0,0 2.2475,-2.6969 6.7432,-4.7199 0,0 1.0114,-2.9219 2.9218,-5.0571 2.023,-2.1352 2.2481,-3.3718 2.2481,-3.3718 0,0 0.8987,-4.2705 2.1353,-5.282z"/>
   <path class="fil2" d="M49.3361 157.5623c0,0 2.2475,-1.6853 6.0685,-2.5847 0,0 1.0115,2.9219 1.461,3.8211 0.4501,0.8989 2.5853,4.0455 2.6975,5.7315 0,0 -3.0346,-2.4725 -3.5962,-3.1467 -0.5623,-0.5616 -2.9218,-2.6969 -2.9218,-2.6969 0,0 -1.0115,0 -1.7987,-0.225 -0.7866,-0.225 -1.9103,-0.8994 -1.9103,-0.8994z"/>
   <path class="fil2" d="M48.2123 158.2367c0,0 1.4608,1.1235 2.4725,1.2364 1.0116,0.1122 2.1351,-0.4493 2.1351,-0.4493l1.5732 1.6853c0,0 -1.4609,0.3371 -1.7981,0.6744 -0.1122,0.3371 -0.3371,4.6076 0.3372,6.4058 0,0 -3.0337,-1.7982 -3.5961,-5.3943 0,0 -0.7866,-0.7865 -1.2358,-0.8987 0,0 -1.0116,-1.3487 -0.8995,-2.1361 0.225,-0.5615 1.0115,-1.1235 1.0115,-1.1235z"/>
   <polygon class="fil2" points="59.7879,157.4501 57.6527,159.136 56.7535,158.1245 "/>
   <path class="fil0" d="M55.6297 144.7507l-0.5624 -0.2243c-0.112,0.1121 -0.112,0.3372 -0.112,0.4493 0,0.1122 0.3372,0.1122 0.4492,0.1122 0.2252,-0.1122 0.2252,-0.2243 0.2252,-0.3372z"/>
   <path class="fil0" d="M46.9759 148.684c0,0 -0.7865,0.6746 -0.8989,2.2482 0,0 0.5617,-1.7982 1.236,-2.2482l-0.3372 0z"/>
   <path class="fil0" d="M46.1894 148.684c0,0 -0.7867,0.8996 -0.5618,2.2482 0,0 0.1122,-1.5736 1.011,-2.2482l-0.4493 0z"/>
   <path class="fil0" d="M45.6277 148.7969c0,0 -0.7871,0.5617 -0.3372,2.2475 0,0 -0.1127,-2.0232 0.7866,-2.4725l-0.4494 0.225z"/>
   <path class="fil0" d="M57.3157 146.2117c-7.0801,1.5736 -10.7891,5.0576 -10.7891,5.0576 0,0 -1.0116,0.7865 -2.2475,2.4725 -2.4725,3.1468 1.6858,4.832 1.6858,4.832 -1.4615,-1.2357 -0.6744,-2.4725 0.7867,-3.1468 0.5616,-0.3371 3.9333,-0.2243 6.518,-1.0107 3.3717,-1.0115 6.1814,-2.9225 6.1814,-2.9225 0.1122,-0.3372 0.3371,-0.6743 0.5617,-0.7865 0,-0.1122 -0.1123,-0.3372 -0.2246,-0.4493l-0.1128 -0.5623 -0.1121 0.3372c-0.1122,-0.1122 -0.3372,-0.1122 -0.4494,-0.2243l-0.1129 -0.45 -0.1121 0.3371c-0.1121,-0.1121 -0.3373,-0.1121 -0.4494,-0.1121l-0.1129 -0.3374 -0.1122 0.3374c-0.2249,0 -0.4492,-0.1124 -0.5615,-0.1124l0 -0.3372 -0.3371 0.3372c-0.5622,0 -1.0116,0 -1.0116,0 0.4495,-0.3372 1.0116,-0.5622 1.461,-0.6743l0.3372 0.3371 0 -0.3371c0.112,0 0.2242,-0.1129 0.3371,-0.1129l0.2243 0.3372 0.113 -0.3372c0.1121,0 0.3371,0 0.3371,-0.1121l0.2243 0.3371 0.1129 -0.3371c0.1122,0 0.2243,0 0.3371,0l0.1123 0.3371 0.2244 -0.3371c0.1129,0 0.2251,0 0.3372,0l0.1128 0.3371 0.2243 -0.3371c0.1129,0 0.2252,0 0.3372,0l0 0.4493 0.3372 -0.4493c0.1128,0 0.3372,0 0.45,0.1121l-0.1128 0.5622 0.5623 -0.4493c0.2242,0 0.3372,0.1121 0.5614,0.1121 0.1129,0 0.3372,-0.1121 0.5625,-0.1121l0.1121 -0.1129c0.1128,-0.1121 0.1128,-0.1121 0.225,-0.1121 0.7866,-0.7866 0.7866,-1.1237 0.7866,-1.1237 0,0 -0.1123,-2.8097 -7.3045,-1.2364z"/>
   <path class="fil2" d="M108.5619 139.8058c0,0 0.6744,3.8212 0.2249,5.1698 0,0 -5.9563,-1.573 -10.789,-0.8994 -4.8323,0.5622 -5.6193,1.798 -5.6193,2.3604 -0.1122,0.5622 0.1128,2.3602 3.484,4.1583 0,0 1.0113,0.6744 1.2365,1.4608 0.2243,0.6744 6.4058,3.034 7.8668,3.5962 1.4608,0.5622 4.9447,2.4725 5.169,3.7082 0.2251,1.2367 -0.7864,2.4726 -0.7864,2.4726 0,0 6.0686,-0.6737 6.5187,-6.9673 0,0 3.8204,2.0232 5.5061,3.1468 0,0 0.4496,0.4494 1.2368,0.2244 0,0 -2.2483,-2.6969 -6.743,-4.7199 0,0 -1.0115,-2.9219 -2.9225,-5.0571 -2.0226,-2.1352 -2.2475,-3.3718 -2.2475,-3.3718 0,0 -0.8988,-4.2705 -2.1352,-5.282z"/>
   <path class="fil2" d="M107.8876 157.5623c0,0 -2.2475,-1.6853 -6.0686,-2.5847 0,0 -1.0117,2.9219 -1.4611,3.8211 -0.4492,0.8989 -2.5846,4.0455 -2.6973,5.7315 0,0 3.0345,-2.4725 3.5961,-3.1467 0.5623,-0.5616 2.9224,-2.6969 2.9224,-2.6969 0,0 1.0115,0 1.7981,-0.225 0.6743,-0.225 1.9103,-0.8994 1.9103,-0.8994z"/>
   <path class="fil2" d="M108.7868 158.2367c0,0 -1.461,1.1235 -2.4725,1.2364 -1.0113,0.1122 -2.1352,-0.4493 -2.1352,-0.4493l-1.5738 1.6853c0,0 1.4608,0.3371 1.798,0.6744 0.113,0.3371 0.3373,4.6076 -0.3372,6.4058 0,0 3.0347,-1.7982 3.5962,-5.3943 0,0 0.7874,-0.7865 1.2367,-0.8987 0,0 1.0114,-1.3487 0.8993,-2.1361 -0.225,-0.5615 -1.0115,-1.1235 -1.0115,-1.1235z"/>
   <polygon class="fil2" points="97.3233,157.4501 99.4586,159.136 100.3578,158.1245 "/>
   <path class="fil0" d="M101.4818 144.7507l0.5622 -0.2243c0.1122,0.1121 0.1122,0.3372 0.1122,0.4493 0,0.1122 -0.3372,0.1122 -0.4494,0.1122 -0.225,-0.1122 -0.225,-0.2243 -0.225,-0.3372z"/>
   <path class="fil0" d="M110.2476 148.684c0,0 0.7867,0.6746 0.8987,2.2482 0,0 -0.5615,-1.7982 -1.2357,-2.2482l0.3371 0z"/>
   <path class="fil0" d="M110.922 148.684c0,0 0.7867,0.8996 0.5618,2.2482 0,0 -0.1124,-1.5736 -1.0117,-2.2482l0.45 0z"/>
   <path class="fil0" d="M111.4838 148.7969c0,0 0.7864,0.5617 0.3372,2.2475 0,0 0.1128,-2.0232 -0.7867,-2.4725l0.4495 0.225z"/>
   <path class="fil0" d="M112.7202 153.629c-1.2364,-1.5732 -2.2482,-2.4726 -2.2482,-2.4726 0,0 -3.5962,-3.3711 -10.7884,-5.0569 -7.1923,-1.5731 -6.8552,0.7866 -6.8552,0.7866 0,0 -0.1127,0.45 0.7866,1.1235 0.1123,0.1129 0.1123,0.1129 0.2251,0.1129l0.1121 0.1121c0.1123,0.1122 0.3373,0.1122 0.5618,0.1122 0.1128,0 0.3372,-0.1122 0.5621,-0.1122l0.5623 0.4494 -0.1129 -0.5615c0.1129,0 0.3372,0 0.45,-0.1129l0.3366 0.4501 0 -0.1129c0.1127,0 0.2249,0 0.3371,0l0.2249 0.3372 0.1123 -0.3372c0.1129,0 0.2249,0 0.3372,0l0.2249 0.3372 0.1124 -0.3372c0.1127,0 0.2251,0 0.3372,0l0.1129 0.3372 0.2242 -0.3372c0.1129,0 0.3372,0 0.3372,0.1129l0.1123 0.3372 0.2249 -0.3372c0.1122,0 0.2251,0.1122 0.3372,0.1122l0 0.3371 0.3372 -0.3371c0.5622,0.1121 1.1236,0.3371 1.4609,0.6743 0,0 -0.4494,0 -1.0116,0l-0.3371 -0.3372 0 0.3372c-0.2243,0 -0.3372,0 -0.5615,0.1124l-0.1129 -0.3374 -0.1122 0.3374c-0.1121,0 -0.3372,0.1126 -0.4493,0.1126l-0.1122 -0.3372 -0.1129 0.4496c-0.112,0.1121 -0.3371,0.1121 -0.4492,0.225l-0.1124 -0.3374 -0.1127 0.5617c-0.1124,0.1129 -0.2244,0.3372 -0.2244,0.4494 0.2244,0.225 0.3371,0.45 0.5616,0.7872 0,0 2.8095,1.9103 6.1814,2.9219 2.5847,0.7865 5.9557,0.6743 6.518,1.0114 1.461,0.6744 2.2475,2.0225 0.7867,3.1468 -0.3375,0.1122 3.821,-1.5737 1.2364,-4.7205z"/>
   <path class="fil1" d="M101.819 103.1692c-0.1122,-0.4493 -0.6745,-0.6744 -1.1238,-0.4493 -2.6974,1.0114 -5.2821,3.1467 -8.4289,2.5847 -1.2357,-0.7867 -1.0114,-2.6969 -0.225,-3.5962l0.1128 -0.1121c0.1122,-0.1129 0.1122,-0.1129 0.2244,-0.2252l0.1128 -0.1122c0.2244,-0.225 0.2244,-0.5622 0.1122,-0.8994 -0.225,-0.4493 -0.6743,-0.5615 -1.1237,-0.4493l-0.3372 0.1121c0,0 0,0 0,0.1129 -2.3602,0.6737 -4.4955,2.2475 -7.08,2.0225l-0.1123 -0.1122 -0.113 -0.1122c0.113,-1.911 1.7982,-3.0346 2.8099,-4.4956 0.1127,-0.1122 0.1127,-0.1122 0.225,-0.1122l0.3371 -0.225c0.1124,-0.1122 0.2246,-0.2251 0.3373,-0.3372l0.1123 -0.1122c0.112,-0.225 0.112,-0.5622 0,-0.7865 -0.225,-0.4501 -0.7867,-0.5622 -1.2361,-0.3372l-0.2249 0.1122c-0.2251,0.225 -0.4495,0.3372 -0.6744,0.5615 -1.9103,1.5736 -3.8212,3.0346 -5.9565,4.1583 -0.3372,0.1122 -0.7865,0.1122 -1.2357,0l-0.3371 -0.3372c0,0 0,0 0,0.1129 0,-0.5622 0.3371,-1.1243 0.5614,-1.6858l0.1129 -0.1129c0.2243,-0.3367 0.2243,-0.7867 0,-1.0109 -0.3372,-0.3372 -0.7866,-0.4501 -1.2365,-0.1129l-0.1121 0.1129 -0.4495 0.4493c-2.4724,2.0232 -4.9449,3.8214 -7.9795,4.8329 -0.2243,0.1122 -0.4494,0 -0.5616,-0.1129 0.1122,-0.7865 0.4493,-1.5731 0.5616,-2.2475l0.2249 -0.5621c0.1123,-0.3372 0.1123,-0.7866 -0.2249,-1.0115 -0.3372,-0.3372 -0.8988,-0.3372 -1.2359,0.1128l-0.3372 0.1122c-1.0115,1.2365 -2.4725,2.023 -3.821,2.6976 -0.3374,0.1121 -0.5625,0.5615 -1.0118,0.7865 -2.0229,1.2358 -4.0454,2.2473 -5.9563,3.2589 -0.3372,0.225 -0.5616,0.7866 -0.3372,1.2365 0.2249,0.4494 0.7873,0.5615 1.2366,0.3372 2.023,-1.0114 3.8211,-2.023 5.8434,-3.1468 0.7873,-0.45 1.3489,-0.8994 2.0233,-1.2364 0.562,-0.3373 1.0114,-0.5616 1.4609,-0.8988 -0.1123,0.2244 -0.1123,0.4494 -0.1123,0.6744l0 0.3365c0,0.3372 0.1123,0.5622 0.4495,0.7872l0.1122 0c0.7871,0.5615 1.7985,0.6744 2.4722,0.3372 1.2367,-0.45 2.4727,-0.8994 3.597,-1.6858 1.0109,-0.6744 2.0224,-1.2366 2.9217,-1.911l0 0.1128c0,0.1122 0.1122,0.3372 0.1122,0.4494l0.1123 0.225c1.0115,1.461 3.0345,1.461 4.4955,0.5617 0.4493,-0.3372 0.8993,-0.5617 1.3487,-0.8989 -0.2251,0.7867 -0.2251,1.7982 0.4492,2.4725l0.1122 0.1122c0.113,0.1122 0.225,0.225 0.4501,0.3372l0.1122 0c0.6745,0.3372 1.461,0.3372 2.1353,0.1122 1.5736,-0.3372 3.0346,-0.7866 4.4955,-1.4609 -0.3372,1.2365 -0.1129,2.5848 0.7866,3.5962 1.4609,1.5736 3.8213,1.2365 5.7314,0.5622 0.2251,-0.1122 0.4494,-0.3372 0.6743,-0.3372 1.5733,-0.4494 2.8097,-1.5731 4.3829,-2.0232 0.2251,-0.1121 0.4501,-0.6743 0.2251,-1.1236zm-23.6007 -4.9447l0 0c0,0.1121 0,0 0,0z"/>
   <path class="fil2" d="M112.9446 103.3942c0,0 -15.0589,8.8783 -36.9739,8.316 -22.0269,-0.5615 -25.5109,-2.8095 -25.5109,-2.8095 0,0 -2.0224,-0.3372 -3.1467,0.5622 -1.1236,0.8987 -1.6854,5.3941 4.2705,6.6309 6.5187,1.2358 15.0596,1.2358 24.6121,0.5615 9.5525,-0.6744 31.4667,-6.2937 36.7489,-13.261z"/>
   <path class="fil3" d="M92.0413 110.3615c-0.1121,-0.3372 -0.3371,-0.5615 -0.3371,-0.8987 -1.4611,-0.3372 -2.472,-1.0114 -2.9219,-1.7982 -0.5616,-0.5621 -0.8988,-1.1236 -1.1236,-1.798 -0.5618,0.1122 -1.1238,0.3373 -1.7982,0.4494 -1.1236,0.225 -2.3604,0.1122 -3.3712,-0.3372 -0.5621,-0.1122 -1.2364,-0.5622 -1.6857,-1.1238l-0.113 -0.1121c-0.112,-0.1129 -0.2244,-0.225 -0.3366,-0.3372 -0.5621,0.1122 -1.0114,0.2243 -1.6857,0.2243 -1.2365,0 -2.3604,-0.3372 -3.2589,-1.0114 -0.1129,0 -0.1129,0.1128 -0.1129,0.1128 -0.3372,0.1122 -0.5615,0.3372 -0.7866,0.5615 -1.2358,0.7868 -2.5847,1.2367 -3.8211,1.7982l-0.2243 0.1129c-1.4611,0.5615 -3.1469,0.3371 -4.608,-0.4501l-0.3371 -0.1122c-0.1129,-0.1121 -0.3372,-0.225 -0.45,-0.3371 -0.3373,0.1121 -0.5616,0.3371 -0.8987,0.5621 -0.7867,0.4494 -1.5739,0.8988 -2.3604,1.2359l-3.8211 3.1468c3.8211,0.4493 9.5527,0.8993 17.8692,1.2364 6.0687,0.3367 11.463,-0.225 16.1828,-1.1243z"/>
   <path class="fil0" d="M36.075 44.8426c-1.3486,-0.3379 -2.9223,-0.1132 -4.2704,0.7872 -2.3604,1.5726 -2.9225,4.1571 -1.798,5.9561 1.2356,2.022 3.8204,2.3599 6.1808,0.7872 1.2357,-0.7872 2.2472,-2.1368 2.4723,-3.4848l2.4726 3.821c-1.0115,1.1233 -1.7982,2.0237 -3.0348,2.6977 -2.0224,1.2365 -4.4947,1.9105 -6.7429,1.7973 -2.4725,-0.2246 -4.2705,-1.3479 -5.3942,-3.1453 -1.0115,-1.6858 -1.3487,-3.8226 -0.7867,-5.9578 0.6745,-2.2467 2.2476,-4.3818 4.3829,-5.6183 1.2365,-0.7872 2.4724,-1.2365 3.9333,-1.6858l2.5852 4.0457z"/>
   <path class="fil0" d="M55.4046 46.9777l-5.2818 2.2484 -6.181 -3.4848 -0.1121 0 2.2474 5.2821 -4.1583 1.7973 -5.8437 -13.5981 6.2929 -2.696c3.1469,-1.3497 6.1816,-1.125 7.4176,1.7973 0.7872,1.9105 0.2249,4.0456 -1.9104,5.3953l7.5294 3.2584zm-12.4742 -3.4831l0 0 0.3371 -0.1131c1.3486,-0.5626 2.8096,-1.4612 2.2474,-2.9223 -0.5616,-1.5727 -2.2474,-1.0118 -3.5961,-0.4494l-0.3372 0.1132 1.3488 3.3716z"/>
   <path class="fil0" d="M71.2508 35.8509c1.0115,4.7215 -2.3602,8.767 -7.8667,10.0035 -5.507,1.1233 -10.2268,-1.3496 -11.2385,-6.0693 -0.8993,-4.3835 3.0347,-8.4292 8.0919,-9.4393 4.9447,-1.0117 10.1142,1.1233 11.0133,5.5051zm-14.3853 3.0355l0 0c0.5623,2.473 3.1469,3.821 5.7313,3.3717 2.6977,-0.5626 4.4958,-2.8109 4.0463,-5.2822 -0.3372,-2.0237 -2.9218,-3.3716 -5.7314,-2.8092 -2.6976,0.4494 -4.4957,2.6961 -4.0462,4.7197z"/>
   <polygon class="fil0" points="83.388,28.7714 83.5001,32.0317 79.6797,32.1431 79.9039,43.7193 75.2964,43.8307 75.0721,32.2546 71.2508,32.2546 71.2508,28.9961 "/>
   <path class="fil0" d="M102.9425 38.7749c-0.7864,4.7197 -5.3943,7.4157 -11.0133,6.4055 -5.6194,-0.9004 -9.1034,-4.9459 -8.3162,-9.6656 0.7867,-4.3835 5.8437,-6.7434 10.9008,-5.9561 4.9447,0.8986 9.103,4.8328 8.4287,9.2162zm-14.6095 -2.3615l0 0c-0.3372,2.473 1.4608,4.7197 4.2705,5.1706 2.6976,0.4494 5.2822,-1.0117 5.6194,-3.598 0.3371,-2.022 -1.5739,-4.2703 -4.2708,-4.7197 -2.8096,-0.3361 -5.2819,1.125 -5.6191,3.147z"/>
   <polygon class="fil0" points="111.5965,34.6161 115.9791,46.1906 115.9791,46.3037 119.4633,37.8746 123.7337,39.6736 118.0022,53.3832 113.7317,51.5858 109.4612,39.8982 105.9773,48.3274 101.7068,46.5284 107.4381,32.8171 "/>
   <polygon class="fil0" points="127.3299,48.8882 131.7124,51.6973 129.9145,54.5082 125.6439,51.6973 124.1829,53.8325 128.7909,56.7549 126.9928,59.4525 118.5638,54.0588 126.5434,41.5841 135.0843,47.0909 133.2863,49.7868 128.6786,46.7531 "/>
   <polygon class="fil0" points="70.4645,20.1177 65.4065,20.7933 66.1938,26.6363 61.6983,27.1988 59.6751,12.5889 69.677,11.1277 70.1271,14.3862 64.7322,15.1733 64.9574,17.6463 70.0143,16.8591 "/>
   <path class="fil0" d="M74.5099 23.8272c0.1122,1.2364 -1.0115,2.3598 -2.5847,2.4713 -1.4607,0.1132 -2.8097,-0.7855 -2.9219,-2.022 -0.1127,-1.2364 1.0109,-2.3598 2.5847,-2.473 1.4608,-0.1115 2.697,0.7872 2.9219,2.0237z"/>
   <path class="fil0" d="M89.4567 16.072c-0.8988,-1.0101 -2.4727,-1.7973 -3.9334,-1.7973 -2.8098,-0.1132 -4.8328,1.6858 -4.8328,3.9342 -0.112,2.3581 1.7987,4.1571 4.6077,4.1571 1.4615,0.1132 3.0347,-0.5625 4.0462,-1.4611l-0.1122 4.6082c-1.4615,0.3362 -2.6974,0.5625 -4.046,0.5625 -2.4727,-0.1132 -4.8323,-1.0118 -6.518,-2.473 -1.911,-1.5743 -2.6976,-3.4848 -2.6976,-5.7315 0.1123,-2.0237 1.0114,-3.9341 2.8097,-5.2821 1.7982,-1.4611 4.2704,-2.2484 6.855,-2.1352 1.4615,0.1115 2.8098,0.3362 4.1584,0.8987l-0.3371 4.7197z"/>
   <path class="fil0" d="M96.6489 25.2883c-0.2244,1.2365 -1.573,2.1351 -3.034,1.7973 -1.4608,-0.2247 -2.5844,-1.4611 -2.3601,-2.6977 0.2249,-1.2348 1.5735,-2.022 3.0345,-1.7973 1.4608,0.3378 2.4725,1.4611 2.3596,2.6977z"/>
  </g>
 </g>
</svg>
