<?xml version="1.0" encoding="UTF-8" standalone="no"?>
<svg
   clip-rule="evenodd"
   fill-rule="evenodd"
   stroke-linejoin="round"
   stroke-miterlimit="2"
   viewBox="0 0 200 248.60001"
   version="1.1"
   id="svg109"
   sodipodi:docname="Crystal-Palace.svg"
   width="200"
   height="248.60001"
   xmlns:inkscape="http://www.inkscape.org/namespaces/inkscape"
   xmlns:sodipodi="http://sodipodi.sourceforge.net/DTD/sodipodi-0.dtd"
   xmlns="http://www.w3.org/2000/svg"
   xmlns:svg="http://www.w3.org/2000/svg">
  <defs
     id="defs109" />
  <sodipodi:namedview
     id="namedview109"
     pagecolor="#ffffff"
     bordercolor="#000000"
     borderopacity="0.25"
     inkscape:showpageshadow="2"
     inkscape:pageopacity="0.0"
     inkscape:pagecheckerboard="0"
     inkscape:deskcolor="#d1d1d1" />
  <clipPath
     id="a">
    <path
       clip-rule="evenodd"
       d="m 290.792,128.425 h 0.839 v 5.141 h -0.839 z"
       id="path1" />
  </clipPath>
  <g
     fill-rule="nonzero"
     id="g26"
     transform="translate(-180,-75.7)">
    <path
       d="m 243.49,272.555 c 0,0 -27.82,-13.953 -41.374,-35.357 0.072,18.392 -0.836,41.334 -0.836,41.334 l 42.581,8.366 z"
       fill="#ffffff"
       id="path2" />
    <path
       d="m 317.008,272.934 c 0,0 27.82,-12.855 41.374,-34.255 -0.072,18.388 0.839,39.85 0.839,39.85 l -42.584,8.369 z"
       fill="#ffffff"
       id="path3" />
    <path
       d="m 243.3,266 h 74.008 v 33.776 H 243.3 Z"
       fill="#ffffff"
       id="path4" />
    <path
       d="m 302.324,268.5 c 0,11.968 -9.832,21.681 -21.959,21.681 -12.123,0 -21.955,-9.713 -21.955,-21.681 0,-11.976 9.832,-21.685 21.955,-21.685 12.127,0 21.959,9.709 21.959,21.685"
       fill="#ffffff"
       id="path5" />
    <path
       d="m 191.887,279.818 v -31.683 l -1.892,-0.71 v -4.283 l 1.892,-0.84 v -2.986 l -1.892,-0.706 v -5.109 l 6.215,-5.894 v -1.395 c 0,0 0.209,-1.225 1.802,-1.225 h 1.833 c 0,0 1.434,0.209 1.434,1.225 v 1.301 l 6.374,6.006 -0.062,5.109 -1.895,0.67 v 2.979 l 1.935,0.829 v 33.664 z"
       fill="#ffffff"
       id="path6" />
    <path
       d="m 369.353,279.818 v -31.683 l 1.892,-0.71 v -4.283 l -1.892,-0.84 v -2.986 l 1.892,-0.706 v -5.109 l -6.215,-5.894 v -1.395 c 0,0 -0.209,-1.225 -1.802,-1.225 h -1.837 c 0,0 -1.43,0.209 -1.43,1.225 v 1.301 l -6.374,6.006 0.058,5.109 1.895,0.67 v 2.979 l -1.931,0.829 v 33.664 z"
       fill="#ffffff"
       id="path7" />
    <path
       d="m 278.44,324.3 c -15.388,0 -25.223,-5.274 -35.585,-10.833 -5.49,-2.94 -11.165,-5.985 -17.833,-8.222 -18.865,-6.334 -31.287,1.427 -31.806,1.762 l -2.514,-3.877 c 0.59,-0.385 14.71,-9.342 35.789,-2.266 7.037,2.364 12.884,5.502 18.544,8.535 10.7,5.736 20.791,11.158 37.407,10.16 15.543,-0.933 26.225,-6.215 36.554,-11.324 4.402,-2.179 8.564,-4.236 12.973,-5.894 0.285,-0.108 0.624,-0.241 1.013,-0.392 5.526,-2.187 22.355,-8.824 36.885,2.24 l -2.799,3.675 c -12.459,-9.489 -26.938,-3.772 -32.393,-1.621 -0.411,0.162 -0.771,0.306 -1.081,0.422 -4.19,1.578 -8.254,3.584 -12.552,5.71 -10.242,5.062 -21.85,10.805 -38.319,11.795 -1.473,0.087 -2.9,0.13 -4.283,0.13"
       fill="#ffffff"
       id="path8" />
    <path
       d="m 360.855,315.953 -3.268,-2.104 c -0.731,-0.472 -2.659,-0.771 -4.615,-0.458 -0.346,0.054 -0.71,0.137 -1.07,0.216 -1.639,0.364 -3.682,0.807 -5.267,-0.464 -0.649,-0.523 -1.43,-1.531 -1.43,-3.383 -0.004,-1.409 0.605,-2.663 1.711,-3.524 3.61,-2.806 12.469,-0.846 15.099,-0.18 1.747,0.479 3.678,0.461 4.057,0.115 0.897,-9.972 4.95,-17.185 7.23,-20.535 -16.378,-9.901 -41.442,-4.522 -50.838,1.477 -14.004,8.945 -25.681,14.494 -40.592,14.559 -12.707,0.01 -23.49,-5.225 -34.871,-10.794 -6.374,-3.12 -12.96,-6.345 -20.201,-8.777 -15.225,-5.112 -32.544,0.642 -39.123,3.268 2.447,3.365 6.176,9.969 6.579,19.422 0.357,0.44 2.277,0.552 4.003,0.17 2.705,-0.551 11.648,-2.083 15.117,0.893 1.063,0.915 1.614,2.191 1.546,3.596 -0.091,1.848 -0.916,2.824 -1.593,3.314 -1.643,1.197 -3.66,0.652 -5.285,0.209 -0.36,-0.093 -0.713,-0.191 -1.052,-0.259 -1.942,-0.411 -3.88,-0.205 -4.637,0.234 l -3.358,1.938 -0.129,-5.346 c -1.326,0.256 -5.084,0.775 -7.404,-0.998 -1.12,-0.857 -1.747,-2.086 -1.809,-3.556 -0.518,-12.087 -7.248,-18.799 -7.317,-18.864 l -2.338,-2.284 2.94,-1.434 c 0.983,-0.479 24.401,-11.691 45.323,-4.669 7.529,2.529 14.259,5.825 20.759,9.01 10.84,5.307 21.079,10.319 32.677,10.319 h 0.155 c 13.798,-0.058 24.823,-5.333 38.131,-13.835 11.003,-7.018 39.782,-13.042 57.958,-0.05 l 2.057,1.473 -1.654,1.91 c -0.065,0.072 -6.593,7.8 -7.695,19.941 -0.13,1.466 -0.814,2.666 -1.974,3.466 -2.378,1.643 -6.064,0.972 -7.444,0.641 z"
       fill="#ffffff"
       id="path9" />
    <path
       d="m 213.115,305.862 c 0,0 -2.299,-2.306 -3.257,-3.999 -1.892,-3.354 -16.688,3.264 -16.688,3.264 l 4.035,0.869"
       fill="#ffffff"
       id="path10" />
    <path
       d="m 346.374,306.743 c 0,0 2.352,-2.251 3.347,-3.919 1.981,-3.308 16.608,3.656 16.608,3.656 l -4.053,0.775"
       fill="#ffffff"
       id="path11" />
    <path
       d="m 191.449,305.994 c 0,0 -0.32,-9.1 -2.36,-13.136 -2.042,-4.038 -2.86,-8.102 -2.86,-8.102 0,0 12.404,-6.244 20.489,-6.395 8.081,-0.151 28.199,3.343 34.464,6.798 6.269,3.459 23.162,12.725 31.924,14.617 8.765,1.891 23.241,-0.361 32.295,-4.086 9.054,-3.725 15.11,-10.142 18.777,-11.77 3.668,-1.628 15.503,-5.909 23.462,-6.622 7.958,-0.72 17.541,2.54 22.942,3.56 5.401,1.019 4.604,3.062 4.604,3.062 l -6.495,20.673 c 0,0 -10.387,-3.531 -17.351,-3.733 -6.964,-0.205 -18.81,5.033 -22.482,6.391 -3.664,1.362 -19.8,8.096 -24.995,10.139 -5.196,2.039 -22.745,6.73 -32.746,4.489 -9.998,-2.245 -29.424,-12.106 -34.504,-14.628 -5.083,-2.518 -23.461,-8.574 -25.896,-7.418 -2.436,1.153 -19.268,6.161 -19.268,6.161"
       fill="#ffffff"
       id="path12" />
    <path
       d="m 292.846,229.361 c 0.04,0.025 0.083,0.04 0.119,0.058 l -0.612,0.101 z m 71.839,-120.62 c -0.367,-1.124 -2.28,-1.992 -10.03,-1.992 -3.019,0 -5.833,0.122 -5.861,0.122 -0.123,0.004 -0.238,0.029 -0.353,0.061 -4.796,0.35 -9.375,1.456 -13.511,3.254 5.487,-6.619 14.033,-10.755 19.199,-12.794 0.267,-0.108 1.031,-0.457 1.193,-0.706 0.248,-0.396 0.674,-0.757 0.324,-1.401 -0.602,-1.099 -2.951,-1.384 -4.521,-1.384 -1.686,0 -4.082,0.231 -7.08,0.681 -1.427,0.162 -2.835,0.393 -4.183,0.688 -0.061,0.011 -0.122,0.025 -0.18,0.047 -5.952,1.337 -11.583,4.003 -16.284,7.71 -0.66,0.522 -1.294,1.063 -1.917,1.614 l 3.787,-6.445 c 2.05,-3.347 4.265,-6.442 6.607,-9.195 0.159,-0.183 0.263,-0.407 0.31,-0.641 0.094,-0.468 0.627,-1.203 0.324,-1.574 -0.194,-0.231 -0.627,-0.62 -1.398,-0.62 -0.684,0 -2.947,0.231 -11.626,6.824 -8.167,5.706 -15.167,13.099 -20.276,21.418 -2.05,3.675 -5.635,10.495 -6.827,15.297 -0.069,-0.486 -0.137,-0.969 -0.188,-1.437 -0.216,-1.928 -0.331,-3.927 -0.364,-6.298 -0.039,-2.835 0.087,-5.375 0.202,-7.004 0.051,-0.684 -0.079,-2.298 -0.742,-2.457 -0.667,-0.165 -1.679,1.164 -1.949,1.794 -4.244,9.717 -5.361,17.798 -5.592,22.619 l -1.552,14.176 c -0.177,0.98 -0.915,5.714 -0.915,5.714 -1.179,-2.05 -2.007,-3.57 -2.908,-5.793 -0.032,-0.075 -0.068,-0.144 -0.112,-0.216 l -1.336,-2.136 c -0.033,-0.058 -0.072,-0.116 -0.116,-0.163 -2.024,-2.406 -4.071,-3.649 -6.438,-5.079 -3.325,-2.018 -7.461,-4.522 -13.607,-11.634 -3.39,-3.927 -7.321,-11.856 -8.589,-17.315 -2.515,-10.811 -2.281,-23.738 0.609,-35.35 0.263,-0.774 0.446,-2.19 0.1,-2.673 -0.263,-0.368 -0.756,-0.62 -1.214,-0.62 -0.904,0 -1.722,0.796 -7.393,9.807 -0.014,0.025 -0.028,0.047 -0.043,0.072 -3.721,5.93 -6.351,12.711 -7.594,19.628 -0.278,1.506 -0.483,3.008 -0.627,4.5 -1.315,-3.272 -2.403,-6.658 -3.254,-10.113 -1.815,-7.404 -2.417,-14.919 -1.732,-21.725 0.043,-0.425 0.136,-1.56 -0.166,-1.863 -0.292,-0.277 -0.696,-0.439 -1.117,-0.439 -1.25,0 -3.17,1.61 -7.166,12.285 -3.801,10.16 -5.026,19.473 -3.837,29.658 -4.316,-5.616 -6.261,-13.521 -8.012,-20.636 -0.436,-1.766 -0.861,-3.499 -1.312,-5.156 -0.223,-0.832 -0.825,-2.846 -1.581,-2.464 -0.054,0.021 -0.105,0.054 -0.155,0.09 -0.004,0.003 -0.011,0.007 -0.018,0.011 -0.029,0.018 -0.054,0.039 -0.08,0.065 -0.036,0.028 -0.072,0.054 -0.1,0.082 -0.155,0.148 -0.703,1.906 -0.797,2.097 -0.241,0.454 -0.4,1.117 -0.493,2.083 -0.004,0.046 -0.007,0.09 -0.007,0.137 0,0.331 -0.022,0.662 -0.04,0.994 -0.022,0.367 -0.047,0.731 -0.047,1.099 -0.515,5.339 -0.922,19.152 6.168,33.588 l 0.162,0.375 c 0.094,0.216 0.191,0.436 0.288,0.656 0.771,1.624 1.643,3.12 2.479,4.557 0.277,0.476 0.548,0.944 0.814,1.412 0.98,1.719 1.838,2.767 2.72,3.765 -4.002,-0.818 -9.918,-1.996 -12.771,-2.424 -0.66,-0.087 -1.287,0.273 -1.524,0.89 -0.235,0.619 -0.011,1.318 0.547,1.678 2.382,1.564 6.727,5.48 11.288,9.724 l -0.065,0.018 8.092,7.526 0.738,0.692 c 2.641,2.486 5.383,5.055 8.002,7.436 l -5.548,-0.551 c -0.613,-0.072 -1.207,0.288 -1.441,0.865 -0.238,0.576 -0.069,1.239 0.417,1.632 l 12.913,10.451 -0.011,0.004 5.649,4.496 c 0.04,0.04 0.072,0.09 0.119,0.126 l 9.695,7.8 c 0.238,0.191 0.537,0.299 0.843,0.31 l 2.486,0.065 c -5.264,2.187 -10.077,2.259 -15.712,0.371 -4.341,-1.455 -8.499,-3.722 -12.019,-6.557 -0.5,-0.403 -1.779,-1.153 -2.294,-0.771 -0.516,0.386 -0.134,1.805 0.108,2.403 1.098,2.691 3.123,5.062 5.17,7.195 -6.68,-0.883 -12.776,-2.724 -19.718,-5.902 -0.573,-0.263 -1.618,-0.94 -2.029,-0.468 -0.407,0.476 -0.079,1.982 0.26,2.511 3.141,4.875 5.66,8.218 8.16,10.823 2.63,2.734 6.099,5.534 7.807,6.557 0.324,0.202 1.2,0.72 5.357,0.72 1.571,0 3.319,-0.079 4.785,-0.219 0.184,-0.018 0.364,-0.036 0.537,-0.051 -4.147,1.467 -7.973,2.011 -11.27,1.596 -0.713,-0.104 -2.338,-0.032 -2.507,0.663 -0.166,0.703 1.178,1.82 1.855,2.061 4.947,1.765 9.785,2.972 14.418,3.581 1.524,0.429 5.866,1.564 10.542,1.974 0.317,0.029 0.613,0.029 0.897,0.022 0.386,0.04 0.771,0.069 1.142,0.108 1.794,0.162 3.491,0.324 5.3,0.324 1.488,0 2.958,-0.111 4.485,-0.349 0.015,0.184 0.062,0.364 0.148,0.533 l 0.814,1.6 c -0.295,0.05 -0.583,0.194 -0.796,0.428 -0.411,0.44 -0.497,1.096 -0.212,1.625 l 1.754,3.279 c 0.04,0.075 0.087,0.151 0.141,0.216 0.014,0.011 0.054,0.065 0.129,0.155 -0.075,0.032 -0.147,0.079 -0.219,0.126 -0.476,0.331 -0.696,0.93 -0.555,1.492 0.908,3.653 2.673,4.935 3.966,5.876 0.883,0.637 1.416,1.023 1.694,2.024 0.187,0.663 0.49,1.405 0.807,2.202 0.67,1.671 1.679,4.197 1.048,5.198 -0.847,1.352 -1.427,1.741 -2.396,2.382 -0.601,0.403 -1.351,0.908 -2.266,1.726 -2.194,1.974 -2.349,4.593 -0.454,7.792 l 0.115,0.188 c 0.289,0.508 0.869,0.778 1.449,0.688 0.58,-0.097 1.037,-0.541 1.153,-1.121 0.439,-2.255 4.146,-4.042 4.871,-4.089 1.275,-0.086 2.482,-0.169 3.31,-0.998 1.352,-1.347 8.676,-1.43 8.676,-1.43 0,0 0.857,0.029 2.208,0.306 0.26,0.13 0.526,0.245 0.764,0.397 0.234,0.151 0.483,0.23 0.76,0.212 0.159,0 2.616,0.991 2.818,1.225 0.364,0.429 4.518,2.727 5,2.987 0.281,0.147 2.699,3.372 3.048,3.372 0.562,0.829 0.775,0.598 0.789,-0.249 1.575,-0.929 2.991,-3.001 3.535,-5.209 0.544,-2.202 0.216,-4.295 -0.937,-6.056 -0.065,-0.101 -0.141,-0.191 -0.231,-0.271 -0.245,-0.223 -0.882,-0.731 -1.632,-1.322 -1.023,-0.803 -2.731,-2.147 -3.076,-2.543 -1.038,-1.186 -1.542,-2.476 -2.043,-3.942 0.396,-0.025 0.767,-0.216 1.019,-0.533 0.263,-0.332 0.361,-0.775 0.267,-1.189 l -0.187,-0.811 c -0.289,-1.239 -0.616,-2.64 -0.879,-4.179 l -0.018,-0.079 c 0.061,0.007 0.118,0.011 0.176,0.011 0.004,0 0.011,-0.004 0.022,0 0.778,0 1.408,-0.631 1.408,-1.409 0,-0.263 -0.072,-0.508 -0.194,-0.717 l -1.557,-4.212 c 0.145,0.163 0.249,0.281 0.296,0.332 0.385,0.403 1.315,1.092 1.844,0.901 0.523,-0.181 0.541,-1.204 0.584,-1.759 0.22,-2.81 2.367,-5.656 4.684,-7.324 0.129,0.382 0.255,0.638 0.288,0.699 0.241,0.472 0.263,1.499 0.792,1.499 0.008,0 0.019,0 0.029,-0.004 0.534,-0.007 0.937,-0.749 1.704,-1.542 0.97,-1.009 1.784,-1.88 2.803,-2.18 l 4.86,1.957 c 0.289,0.868 0.89,2.28 1.95,3.138 0.911,0.735 1.797,1.293 3.404,2.313 0.17,0.108 0.35,0.22 0.541,0.342 -0.148,0.072 -0.307,0.144 -0.49,0.209 -0.555,0.198 -2.151,0.724 -2.155,1.315 0,0.587 1.585,1.12 2.14,1.326 1.077,0.403 2.266,0.619 3.43,0.619 2.392,0 4.485,-0.857 5.75,-2.345 1.041,-1.228 1.441,-2.785 1.157,-4.493 -0.213,-1.279 -0.717,-4.435 -0.88,-5.451 l 1.315,-4.305 c 0.04,-0.133 0.062,-0.277 0.062,-0.418 -0.011,-2.039 -0.595,-4.316 -1.73,-6.769 l -0.054,-0.162 c -0.05,-0.17 -0.137,-0.321 -0.241,-0.451 -0.061,-0.13 -0.123,-0.241 -0.177,-0.346 -0.306,-0.67 -0.68,-1.34 -1.16,-2.075 -3.484,-5.743 -8.441,-10.423 -8.65,-10.621 -0.421,-0.392 -1.25,-1.081 -1.772,-0.839 -0.523,0.245 -0.631,1.372 -0.598,1.949 l 0.018,0.306 c -0.339,-0.807 -1.636,-2.158 -1.924,-2.59 -0.627,-0.937 -1.092,-1.895 -1.261,-2.583 4.182,-19.351 16.983,-32.234 17.109,-32.364 0.231,-0.231 0.378,-0.533 0.407,-0.861 2.774,-27.687 34.396,-39.875 34.716,-39.994 0.119,-0.044 0.937,-0.299 1.038,-0.371 1.099,-0.811 1.275,-1.449 1.185,-1.726"
       fill="#ffffff"
       id="path13" />
    <path
       d="m 278.461,322.797 c -15.085,0 -24.776,-5.198 -34.99,-10.675 -5.541,-2.968 -11.262,-6.034 -18.039,-8.311 -19.585,-6.579 -32.803,1.819 -32.937,1.902 l -1.077,-1.654 c 0.569,-0.367 14.155,-8.996 34.644,-2.118 6.932,2.327 12.729,5.437 18.342,8.441 10.87,5.83 21.134,11.338 38.114,10.319 15.805,-0.952 26.606,-6.291 37.054,-11.461 4.374,-2.165 8.506,-4.208 12.858,-5.843 0.292,-0.112 0.638,-0.245 1.031,-0.4 5.926,-2.339 21.663,-8.543 35.595,2.064 l -1.196,1.571 c -13.046,-9.937 -28.033,-4.028 -33.675,-1.798 -0.404,0.155 -0.76,0.299 -1.063,0.411 -4.255,1.599 -8.348,3.62 -12.675,5.768 -10.127,5.008 -21.605,10.682 -37.811,11.655 -1.437,0.086 -2.828,0.129 -4.175,0.129"
       fill="#292d6b"
       id="path14" />
    <path
       d="m 276.411,307.233 -0.447,-0.015 -0.108,3.286 0.407,0.014 c 1.207,0.036 1.88,-0.472 1.92,-1.624 0.04,-1.067 -0.569,-1.622 -1.772,-1.661"
       fill="#1b458f"
       id="path15" />
    <path
       d="m 286.354,311.587 2.237,-0.306 -1.617,-3.686 z"
       fill="#1b458f"
       id="path16" />
    <path
       d="m 253.378,305.75 0.757,-3.952 -2.771,2.94 z"
       fill="#1b458f"
       id="path17" />
    <path
       d="m 213.239,285.814 -0.728,-0.043 -0.198,3.278 0.746,0.047 c 1.171,0.069 1.845,-0.497 1.909,-1.578 0.062,-1.027 -0.558,-1.636 -1.729,-1.704"
       fill="#1b458f"
       id="path18" />
    <path
       d="m 308.062,305.422 2.057,-0.929 -2.597,-3.077 z"
       fill="#1b458f"
       id="path19" />
    <path
       d="m 362.143,296.964 c -0.952,0.076 -1.78,-0.63 -1.863,-1.578 -0.076,-0.951 0.63,-1.783 1.585,-1.862 0.948,-0.079 1.78,0.63 1.856,1.578 0.082,0.951 -0.631,1.783 -1.578,1.862 m -2.703,-9.756 c -0.598,-0.583 -1.315,-1.052 -2.269,-1.156 -1.676,-0.18 -2.904,0.954 -3.127,3.037 -0.231,2.122 0.821,3.466 2.514,3.649 0.851,0.091 1.64,-0.126 2.558,-0.526 l 0.144,2.98 c -1.041,0.385 -2.118,0.591 -3.548,0.436 -3.726,-0.404 -5.693,-3.026 -5.275,-6.91 0.407,-3.776 3.03,-6.049 6.809,-5.639 1.236,0.134 2.216,0.49 3.03,1.024 z m -11.424,8.031 c -0.947,0.075 -1.78,-0.631 -1.859,-1.578 -0.076,-0.951 0.627,-1.784 1.582,-1.863 0.947,-0.076 1.779,0.631 1.859,1.582 0.075,0.947 -0.627,1.783 -1.582,1.859 m -5.083,0.778 -3.527,0.739 -2.519,-11.987 7.577,-1.589 0.616,2.919 -4.05,0.846 0.404,1.931 2.918,-0.609 1.095,2.796 -3.404,0.714 z m -15.744,5.516 -4.63,-11.342 7.479,-3.051 1.081,2.644 -4.193,1.708 0.662,1.628 3.175,-1.289 1.477,2.442 -3.585,1.463 0.742,1.809 4.338,-1.769 1.081,2.644 z m -4.363,2.345 c -3.369,1.643 -6.431,0.465 -8.139,-3.048 -1.664,-3.419 -0.652,-6.741 2.767,-8.398 1.117,-0.544 2.136,-0.764 3.113,-0.746 l 0.94,3.074 c -0.814,-0.173 -1.672,-0.191 -2.529,0.23 -1.52,0.739 -1.956,2.356 -1.041,4.241 0.929,1.916 2.54,2.493 4.071,1.747 0.767,-0.371 1.322,-0.976 1.888,-1.805 l 1.704,2.45 c -0.678,0.883 -1.477,1.628 -2.774,2.255 m -9.285,4.486 -1.545,-1.701 -3.513,1.589 0.295,2.122 -3.202,1.448 -1.211,-12.952 3.704,-1.675 8.585,9.137 z m -16.673,6.193 -3.617,-11.702 3.476,-1.077 2.71,8.751 3.307,-1.023 1.387,2.806 z m -6.096,1.408 -0.998,-2.068 -3.819,0.526 -0.317,2.122 -3.488,0.48 2.522,-12.772 4.028,-0.551 5.639,11.204 z m -14.404,-2.799 -0.569,-0.018 -0.123,3.675 -3.617,-0.123 0.411,-12.249 4.24,0.141 c 3.16,0.108 5.051,1.542 4.954,4.366 -0.097,2.889 -2.208,4.313 -5.296,4.208 m -11.161,2.331 -7.224,-2.338 3.761,-11.648 3.463,1.117 -2.818,8.715 3.297,1.063 z m -9.144,-3.505 -3.538,-1.146 0.346,-2.27 -3.441,-1.733 -1.466,1.571 -3.142,-1.582 9.303,-9.089 3.635,1.826 z m -16.584,-8.117 4.284,-8.179 -2.911,-1.527 1.405,-2.67 8.73,4.572 -0.962,2.904 -3.037,-1.589 -4.284,8.178 z m -3.754,-10.405 c 2.198,1.942 2.875,3.296 2.086,5.137 -1.138,2.659 -3.512,2.839 -5.797,1.859 -1.65,-0.706 -2.842,-1.621 -3.89,-2.723 l 1.657,-2.519 c 1.041,1.218 2.248,2.238 3.372,2.72 0.652,0.281 1.171,0.231 1.383,-0.255 0.202,-0.472 0.026,-0.818 -1.279,-2.018 -1.952,-1.798 -2.673,-2.997 -1.826,-4.972 0.991,-2.313 3.296,-2.695 5.516,-1.743 1.632,0.695 2.504,1.401 3.393,2.399 l -1.65,2.493 c -0.9,-1.135 -1.92,-1.96 -2.77,-2.324 -0.667,-0.284 -1.092,-0.198 -1.257,0.195 -0.191,0.439 -0.029,0.778 1.062,1.751 m -11.064,4.075 -3.509,-0.955 1.124,-4.143 -2.05,-8.431 3.859,0.548 0.994,5.145 3.376,-3.83 3.65,0.994 -6.298,6.456 z m -9.897,-1.888 -2.013,-4.053 -0.552,-0.033 -0.227,3.79 -3.599,-0.216 0.735,-12.231 4.68,0.281 c 3.156,0.191 4.878,1.7 4.723,4.323 -0.101,1.65 -0.915,2.774 -2.341,3.401 l 2.46,4.381 z m -11.312,0.371 c -3.682,0.702 -6.327,-1.232 -7.058,-5.073 -0.713,-3.732 1.131,-6.672 4.867,-7.386 1.222,-0.23 2.259,-0.176 3.2,0.098 l 0.108,3.217 c -0.743,-0.382 -1.568,-0.623 -2.511,-0.447 -1.658,0.321 -2.504,1.766 -2.112,3.823 0.4,2.093 1.802,3.077 3.477,2.756 0.836,-0.159 1.531,-0.598 2.291,-1.25 l 1.009,2.81 c -0.886,0.677 -1.859,1.185 -3.271,1.452 m 117.774,-10.855 c -13.874,8.855 -25.165,14.137 -39.364,14.195 -19.195,0.072 -34.071,-12.646 -54.329,-19.452 -20.266,-6.802 -43.583,4.558 -43.583,4.558 0,0 7.443,7.27 8.005,20.417 0,0 13.525,-8.82 33.791,-2.018 20.262,6.806 30.76,20.381 56.83,18.81 22.704,-1.362 35.616,-11.875 50.2,-17.362 4.526,-1.7 21.206,-9.457 35.635,1.492 1.315,-12.812 8.197,-20.759 8.197,-20.759 -17.268,-12.34 -45.19,-6.388 -55.382,0.119"
       fill="#1b458f"
       id="path20" />
    <path
       d="m 204.82,309.232 c 1.023,0 2.017,0.119 2.839,0.288 0.396,0.087 0.818,0.198 1.235,0.31 0.905,0.241 2.137,0.584 2.519,0.303 0.14,-0.105 0.234,-0.411 0.256,-0.836 0.018,-0.411 -0.108,-0.71 -0.415,-0.969 -1.394,-1.2 -5.584,-1.124 -9.172,-0.689 l 0.047,1.917 c 0.846,-0.234 1.779,-0.324 2.691,-0.324 m 147.861,-1.2 c -1.65,0 -3.045,0.213 -3.762,0.775 -0.317,0.245 -0.461,0.54 -0.461,0.951 0.004,0.429 0.083,0.738 0.22,0.847 0.364,0.295 1.614,0.025 2.522,-0.181 0.425,-0.09 0.85,-0.183 1.257,-0.248 1.56,-0.252 3.747,-0.278 5.52,0.299 l 0.133,-1.913 c -1.794,-0.31 -3.747,-0.53 -5.429,-0.53 m 6.993,5.559 -1.359,-0.875 c -1.113,-0.717 -3.451,-0.991 -5.559,-0.652 -0.367,0.057 -0.753,0.147 -1.142,0.23 -1.506,0.328 -3.055,0.67 -4.136,-0.194 -0.616,-0.497 -0.926,-1.283 -0.926,-2.342 -0.003,-0.998 0.407,-1.848 1.193,-2.457 3.268,-2.551 12.854,-0.213 13.939,0.061 0.947,0.263 3.884,0.8 5.141,-0.076 0.353,-0.241 0.537,-0.583 0.584,-1.077 1.001,-11.013 5.988,-18.532 7.81,-20.95 -16.626,-11.089 -43.103,-5.602 -53.5,0.731 -11.839,7.22 -24.676,14.267 -39.854,14.332 h -0.173 c -12.347,0 -22.914,-5.177 -34.1,-10.653 -6.41,-3.142 -13.039,-6.384 -20.363,-8.845 -17.128,-5.746 -36.755,1.848 -41.691,3.981 2.068,2.468 6.913,9.339 7.375,20.042 0.018,0.494 0.191,0.843 0.529,1.103 1.225,0.933 4.172,0.537 5.113,0.324 1.109,-0.227 10.793,-2.104 13.942,0.602 0.757,0.645 1.128,1.513 1.081,2.511 -0.054,1.055 -0.403,1.826 -1.038,2.288 -1.124,0.821 -2.658,0.403 -4.146,0 -0.382,-0.101 -0.764,-0.206 -1.124,-0.281 -2.094,-0.44 -4.439,-0.278 -5.588,0.381 l -1.394,0.811 -0.109,-4.669 c -0.432,0.072 -0.843,0.148 -1.225,0.227 -0.435,0.097 -4.521,0.969 -6.668,-0.67 -0.796,-0.609 -1.24,-1.485 -1.283,-2.544 -0.544,-12.617 -7.652,-19.7 -7.724,-19.772 l -0.969,-0.951 1.217,-0.591 c 0.966,-0.475 23.905,-11.453 44.311,-4.608 7.443,2.504 14.126,5.779 20.593,8.942 10.981,5.379 21.357,10.459 33.264,10.459 h 0.163 c 13.251,-0.054 24.7,-5.418 38.87,-14.051 10.952,-6.679 39.183,-12.415 56.433,-0.082 l 0.851,0.612 -0.688,0.789 c -0.062,0.083 -6.867,8.092 -8.009,20.709 -0.101,1.052 -0.58,1.906 -1.406,2.471 -2.222,1.539 -6.265,0.476 -6.719,0.35 -0.367,-0.09 -0.767,-0.188 -1.189,-0.278 z"
       fill="#c4122e"
       id="path21" />
    <path
       d="m 278.471,322.945 c -15.081,0 -24.769,-5.195 -34.979,-10.671 -5.538,-2.969 -11.27,-6.039 -18.043,-8.315 -19.541,-6.561 -32.835,1.823 -32.965,1.909 l -1.041,-1.6 c 0.565,-0.374 14.155,-8.992 34.615,-2.118 6.932,2.327 12.729,5.437 18.338,8.441 10.873,5.829 21.141,11.334 38.132,10.319 15.809,-0.948 26.617,-6.295 37.068,-11.461 4.371,-2.165 8.503,-4.208 12.852,-5.84 0.291,-0.112 0.637,-0.249 1.03,-0.403 5.923,-2.335 21.649,-8.543 35.566,2.064 l -1.156,1.517 c -13.067,-9.948 -28.066,-4.028 -33.708,-1.802 -0.407,0.155 -0.76,0.299 -1.059,0.415 -4.258,1.596 -8.351,3.62 -12.678,5.76 -10.127,5.012 -21.606,10.686 -37.804,11.659 -1.434,0.086 -2.824,0.126 -4.168,0.126"
       fill="#c4122e"
       id="path22" />
    <path
       d="m 211.6,308.625 c -4.583,-3.747 -6.359,-7.382 -6.434,-7.541 l 1.718,-0.828 c 0.022,0.039 1.693,3.429 5.927,6.892 z"
       fill="#c4122e"
       id="path23" />
    <path
       d="m 348.685,309.022 -1.124,-1.546 c 4.932,-3.584 5.52,-7.403 5.523,-7.443 l 1.895,0.267 c -0.029,0.187 -0.713,4.665 -6.294,8.722"
       fill="#c4122e"
       id="path24" />
    <path
       d="m 301.844,207.887 c 0.148,0.144 0.281,0.277 0.404,0.389 0,0 -0.061,-0.166 -0.404,-0.389"
       fill="#27409b"
       id="path25" />
    <path
       d="m 291.63,133.565 c -0.295,-1.416 -0.605,-3.177 -0.839,-5.141 0.184,1.625 0.45,3.322 0.839,5.141"
       fill="#27409b"
       id="path26" />
  </g>
  <g
     clip-path="url(#a)"
     id="g27"
     transform="translate(-180,-75.7)">
    <path
       d="m 291.63,133.565 c -0.295,-1.416 -0.605,-3.177 -0.839,-5.141 0.184,1.625 0.45,3.322 0.839,5.141"
       fill="#ffffff"
       fill-rule="nonzero"
       id="path27" />
  </g>
  <g
     fill-rule="nonzero"
     id="g109"
     transform="translate(-180,-75.7)">
    <path
       d="m 305.437,185.432 c 0.004,-0.31 0,0 0,0"
       fill="#f4f4f4"
       id="path28" />
    <path
       d="m 324.324,220.943 c -0.515,0.652 -1.336,1.225 -2.212,1.607 -0.965,0.425 -1.999,0.62 -2.777,0.425 0.018,-0.007 0.036,-0.018 0.057,-0.028 0.083,-0.04 0.155,-0.08 0.231,-0.123 0.054,-0.032 0.119,-0.061 0.173,-0.094 1.96,-1.214 0.9,-3.502 -1.135,-5.836 l -0.036,-0.007 -4.662,-4.053 -0.249,-0.22 -0.072,-0.061 0.047,-0.015 0.144,-0.047 0.036,-0.007 0.173,-0.058 0.703,0.393 2.374,1.34 0.176,0.094 1.052,0.595 1.142,0.644 c 0.004,0 0.008,-0.003 0.011,-0.003 0.008,-0.004 0.015,-0.004 0.026,-0.007 1.07,-0.249 2.273,-0.548 2.453,-0.598 0.8,-0.209 1.25,-0.436 1.495,-0.624 0.018,0.166 2.032,5.181 0.85,6.683 m -5.234,-0.994 -1.687,-1.373 -1.21,-0.983 -0.303,-0.933 -0.075,-0.245 -0.422,-1.276 -0.007,-0.039 c 1.358,0.803 2.432,2.251 3.134,3.408 0.148,0.249 0.901,1.711 0.901,1.711 z m -8.784,-11.525 -2.158,-3.884 -5.512,-2.778 4.503,5.224 c -2.37,-1.354 -6.413,-3.505 -10.794,-4.319 0,0 3.726,3.48 5.502,5.22 0.338,0.22 0.4,0.393 0.4,0.393 -0.119,-0.116 -0.256,-0.249 -0.4,-0.393 -0.526,-0.339 -1.715,-0.793 -4.439,-0.948 -2.525,-0.255 -5.519,-0.918 -8.239,-2.449 0,0 0.54,0.796 1.653,1.754 0.015,0.015 0.033,0.025 0.047,0.036 0.004,0.004 0.007,0.011 0.015,0.015 1.041,0.886 2.572,1.895 4.636,2.565 0.159,0.054 2.227,0.908 2.393,0.954 -1.488,0.595 -2.735,1.305 -3.776,2.112 -2.014,1.552 -3.261,3.422 -4.006,5.325 -1.287,3.289 -2.465,9.23 -1.557,12.616 -2.853,-3.833 -5.372,-8.772 -3.97,-14.364 -4.345,2.446 -7.144,1.647 -10.156,1.204 -1.391,1.873 -3.228,6.373 -3.462,10.231 -0.256,-0.407 -0.494,-0.85 -0.714,-1.311 -1.124,-2.396 -1.697,-5.134 -1.837,-7.764 -0.069,-1.048 -0.061,-2.061 0.021,-2.987 v -0.007 l 9.93,-7.043 -14.444,-1.211 c 0.004,-0.007 0.007,-0.007 0.007,-0.007 0.238,-0.177 0.487,-0.349 0.728,-0.526 5.559,-3.913 12.419,-6.611 19.304,-6.305 0.533,0.018 1.066,0.061 1.599,0.123 -4.435,-2.483 -12.22,-2.364 -16.835,-0.919 -6.266,1.956 -8.751,2.075 -15.456,0.886 7.04,-1.423 6.784,-1.614 10.959,-3.588 3.43,-1.92 9.944,-5.465 18.158,-3.952 -2.014,-0.883 -3.732,-1.712 -6.178,-2.295 -2.389,-0.548 -6.284,-1.081 -10.452,-0.188 0,0 2.835,-3.033 8.135,-3.779 -7.231,-6.521 -28.595,-16.753 -28.595,-16.753 30.335,7.163 43.229,21.401 45.153,23.703 0.13,0.101 0.252,0.202 0.375,0.299 -1.142,-2.601 -7.868,-18.288 -26.307,-29.773 -2.555,-1.593 -5.376,-2.717 -7.981,-4.226 -4.161,-2.421 -8.008,-5.102 -11.507,-8.038 l 0.018,0.057 C 210.762,124.09 223.53,86.6 223.53,86.6 c -1.11,8.697 0.364,17.214 2.882,24.798 1.6,4.813 3.621,9.241 5.675,13.096 2.309,4.33 4.654,7.933 6.492,10.527 4.269,5.217 9.338,9.677 15.211,12.898 0,0 -25.89,-17.632 -11.183,-55.219 -0.573,1.606 -10.755,31.729 27.499,57.964 0.739,0.498 1.276,0.48 1.496,1.016 5.087,12.253 24.689,31.762 28.343,41.147 -0.166,-1.92 -0.328,-3.84 -0.494,-5.757 2.194,2.36 3.913,5.282 4.813,8.377 0.166,-1.895 0.335,-4.774 0.497,-6.669 3.167,1.74 7.865,5.375 11.742,9.558 0,0 -0.043,-0.043 -0.105,-0.112 -0.14,-0.151 -0.266,-0.288 -0.385,-0.414 0.057,0.061 0.115,0.123 0.166,0.177 0.036,0.039 0.061,0.068 0.09,0.1 0.054,0.055 0.093,0.098 0.129,0.137 0.036,0.044 0.065,0.069 0.105,0.112 l -0.17,-2.785 -0.082,-1.297 c 0,0 5.858,7.202 7.85,12.772 0.112,0.317 0.216,0.63 0.299,0.933 -0.036,1.567 -0.259,2.619 -0.519,3.315 -0.223,0.59 -1.113,1.563 -1.308,1.707 -0.14,0.108 -0.23,0.141 -0.23,0.141 0.274,-0.209 0.331,-0.714 0.335,-1.182 0.004,-0.591 -0.123,-1.207 -0.342,-1.909 -0.206,-0.66 -0.454,-1.29 -0.66,-1.773 -0.223,-0.53 -0.396,-0.879 -0.396,-0.879 0.123,1.293 0.058,2.241 -0.094,2.925 0,0.018 -0.003,0.04 -0.01,0.062 -0.296,1.289 -0.89,1.628 -1.049,1.697 -0.021,0.01 -0.039,0.018 -0.039,0.018 -0.044,-0.209 -0.091,-0.408 -0.141,-0.588 -0.162,-0.472 -0.346,-0.933 -0.526,-1.387 -0.663,-1.657 -3.084,-6.236 -3.877,-7.832 -0.684,0.976 0.231,3.25 0.231,3.25 0.31,0.601 1.03,2.132 1.03,2.132 -0.67,1.528 0.321,3.218 1.665,3.863 -0.378,0.169 -1.636,-0.011 -2.518,-0.523 0.327,0.667 1.509,2.255 2.1,2.709 -1.701,-0.421 -5.606,-3.509 -7.746,-5.281 m 14.429,-6.438 c -0.05,-0.159 -0.079,-0.249 -0.079,-0.249 0,0 0.014,0.065 0.039,0.162 -0.129,-0.266 -0.259,-0.533 -0.396,-0.807 -0.31,-0.681 -0.684,-1.311 -1.084,-1.924 -3.426,-5.645 -8.413,-10.322 -8.413,-10.322 l 0.08,1.373 c 0.003,0 0.018,0.007 0.018,0.007 l 0.154,2.144 c 0,0 -16.071,-9.335 -22.927,-17.938 -5.315,-6.673 -11.432,-13.947 -15.056,-22.881 l -1.341,-2.14 c -4.629,-5.502 -9.457,-4.464 -20.031,-16.699 -3.624,-4.197 -7.627,-12.455 -8.895,-17.917 -2.684,-11.536 -2.205,-24.668 0.648,-36.125 0,0 1.341,-3.912 -5.98,7.721 l 0.003,-0.007 c -3.664,5.818 -6.229,12.444 -7.454,19.203 -0.623,3.455 -0.904,6.935 -0.792,10.361 -2.483,-4.946 -4.471,-10.329 -5.833,-15.884 -1.798,-7.318 -2.501,-14.923 -1.769,-22.201 0,0 -1.286,-1.253 -5.729,10.618 -4.445,11.878 -5.148,22.013 -3.105,33.365 -8.168,-6.921 -10.016,-19.599 -12.732,-29.633 0,0 -0.004,0 -0.004,0.007 h -0.004 c -0.003,0 -0.007,0.008 -0.014,0.011 h -0.004 c -0.021,0.022 -0.057,0.069 -0.1,0.155 -0.105,0.195 -0.245,0.634 -0.335,1.564 0,0.724 -0.094,1.444 -0.094,2.165 -0.494,5.026 -0.958,18.677 6.045,32.944 0.152,0.331 0.288,0.677 0.443,1.001 0.995,2.101 2.173,3.996 3.243,5.873 1.772,3.127 3.152,3.891 5.141,6.647 -0.209,-0.033 -12.228,-2.555 -16.627,-3.214 2.663,1.744 7.534,6.168 13.071,11.356 0,0 16.584,1.333 29.6,10.963 0,0 -11.269,-5.516 -24.812,-6.456 0.796,0.749 1.593,1.499 2.392,2.252 3.859,3.628 7.732,7.241 11.18,10.282 l -0.051,-0.004 -9.781,-0.969 14.061,11.374 2.526,0.087 c 0,0 4.723,-0.166 9.4,0.89 4.986,1.131 7.634,2.748 7.634,2.748 -2.785,-0.943 -7.418,-1.088 -10.214,-0.907 -1.992,0.126 -3.293,0.684 -4.741,0.886 l 0.825,0.659 8.87,7.134 7.901,0.209 c -6.669,4.15 -13.215,5.786 -21.61,2.972 -4.46,-1.495 -8.783,-3.837 -12.454,-6.791 1.484,3.642 4.932,6.773 7.612,9.533 -8.845,-0.681 -15.971,-2.728 -24.052,-6.428 3.091,4.796 5.548,8.056 7.998,10.61 2.447,2.551 5.822,5.314 7.512,6.327 1.074,0.645 6.017,0.619 9.284,0.302 0.613,-0.057 1.175,-0.122 1.632,-0.201 0.75,-0.123 1.686,-0.325 2.684,-0.555 3.362,-0.775 7.408,-1.906 7.184,-1.758 -1.459,0.947 -3.051,1.877 -4.73,2.738 -0.991,0.508 -2.01,0.994 -3.052,1.441 -4.701,2.017 -9.824,3.271 -14.494,2.68 5.221,1.867 10.686,3.232 16.22,3.754 1.902,0.184 2.594,0.155 4.251,-0.616 2.472,-1.142 4.511,-2.082 6.475,-3.019 0.994,-0.479 1.981,-0.962 2.979,-1.473 1.38,-0.699 2.799,-1.441 4.388,-2.328 -0.915,0.861 -1.837,1.665 -2.781,2.465 -0.53,0.439 -1.07,0.886 -1.618,1.34 -1.909,1.563 -3.952,3.185 -6.283,5.231 6.247,0.436 9.864,1.47 18.161,-1.124 0,0 -1.707,1.275 -4.081,2.652 l 2.46,4.827 -2.669,-1.199 1.754,3.278 c 0,0 1.247,1.546 3.023,2.836 l 0.602,1.934 c -1.373,-0.407 -3.131,-1.873 -4.003,-2.453 1.387,5.57 4.698,4.478 5.653,7.854 0.641,2.28 3.055,6.366 1.689,8.535 -1.603,2.554 -2.655,2.374 -4.914,4.409 -2.619,2.349 -0.602,5.289 -0.061,6.226 0.54,-2.749 2.59,-4.539 3.754,-4.889 1.827,-0.537 4.017,-0.126 4.817,-0.926 2.886,-2.878 9.093,-3.61 13.388,-0.922 -1.989,-3.214 -3.012,-3.117 -6.968,-4.259 6.989,0.462 7.45,1.993 10.869,5.97 0.281,-2.266 -1.599,-5.148 -3.206,-6.528 -0.501,-0.425 -6.056,-1.207 -11.453,-1.675 -1.895,-0.166 -2.663,-2.602 -2.936,-3.913 0.331,0.191 1.859,0.994 3.347,0.976 -0.379,-1.902 -0.901,-4.06 -1.215,-5.357 0.534,0.242 1.078,0.58 2.274,0.62 l -0.782,-3.192 c -0.368,-2.551 -1.196,-4.396 1.254,-8.294 1.351,0.948 1.949,1.358 2.561,2.047 0,0 0.508,2.435 1.067,3.736 0.108,0.245 2.514,2.302 2.601,2.55 l -4.143,-1.199 c 0,0 1.383,3.145 4.118,4.957 1.621,0.573 3.062,1.225 3.534,1.855 0.486,0.656 1.304,2.422 0.919,3.369 -0.31,0.764 -2.511,-2.5 -7.145,1.391 3.164,0.05 6.957,0.915 7.775,1.88 1.059,1.254 1.82,2.393 2.583,2.85 3.365,2.018 3.6,3.077 3.329,7.036 2.083,-1.606 1.499,-5.797 1.186,-6.809 2.759,3.311 2.154,7.807 1.311,9.565 2.068,-1.149 4.576,-5.721 2.209,-9.334 -0.642,-0.58 -4.14,-3.2 -4.821,-3.978 -1.755,-2.006 -2.194,-4.262 -3.055,-6.55 0.609,0.036 1.373,0.281 1.985,0.274 -0.31,-1.354 -0.746,-3.12 -1.084,-5.069 -0.029,-0.176 -0.062,-0.357 -0.09,-0.533 -0.011,-0.072 -0.022,-0.148 -0.033,-0.22 -0.043,-0.288 -0.086,-0.58 -0.126,-0.879 -0.007,-0.068 -0.014,-0.144 -0.022,-0.212 -0.039,-0.299 -0.072,-0.602 -0.101,-0.908 1.135,0.727 1.917,1.037 1.917,1.037 l -1.945,-5.274 v -0.015 c 0.036,-0.396 0.086,-0.796 0.151,-1.196 0,-0.021 0.007,-0.054 0.011,-0.075 0.057,-0.361 0.133,-0.725 0.216,-1.081 0.014,-0.058 0.029,-0.119 0.043,-0.177 0.076,-0.328 0.177,-0.652 0.285,-0.976 0.025,-0.079 0.043,-0.155 0.072,-0.234 0.137,-0.386 0.292,-0.775 0.465,-1.15 -0.879,1.888 1.707,4.616 1.707,4.616 0.325,-4.18 4.061,-8.081 7.195,-9.49 -0.173,1.16 0.429,2.327 0.429,2.327 0.926,-1.974 2.817,-2.749 4.172,-3.058 l 2.536,1.019 2.688,1.081 0.706,0.285 c 0,0 0.483,2.136 1.672,3.091 1.145,0.926 2.334,1.607 5.191,3.444 -0.212,0.71 -0.857,1.376 -2.143,1.841 4.06,1.52 9.179,-0.306 8.455,-4.669 -0.256,-1.539 -0.933,-5.786 -0.933,-5.786 v -0.015 l 0.962,-3.134 0.285,-0.937 0.028,-0.097 0.134,-0.432 c -0.011,-2.021 -0.656,-4.162 -1.636,-6.258"
       fill="#1b458f"
       id="path29" />
    <path
       d="m 348.857,108.276 0.234,0.022 c -6.532,0.396 -13.003,2.287 -18.392,5.71 4.438,-8.643 14.241,-14.497 22.91,-17.927 0,0 1.07,-1.665 -9.403,-0.098 -1.362,0.155 -2.713,0.372 -4.05,0.667 -0.022,0.004 -0.04,0.007 -0.061,0.011 h 0.018 c -5.757,1.275 -11.226,3.83 -15.845,7.472 -2.605,2.061 -4.95,4.457 -6.914,7.162 -8.83,11.742 -11.813,22.013 -11.813,22.013 0,0 -1.276,-15.157 18.089,-35.156 2.133,-3.563 4.529,-6.96 7.173,-10.062 0,0 0.447,-2.266 -10.516,6.052 -7.93,5.541 -14.854,12.823 -19.848,20.954 -1.794,3.214 -5.635,10.423 -6.748,15.193 0.011,0.14 0.018,0.288 0.029,0.429 0,0 0.119,2.857 0.645,6.658 0.638,4.597 2.522,10.945 2.522,10.945 -1.283,-2.619 -3.574,-8.395 -4.334,-11.054 -0.371,-1.3 -0.667,-2.525 -0.923,-3.703 -0.158,-0.735 -0.281,-1.438 -0.399,-2.133 -0.065,-0.371 -0.127,-0.757 -0.188,-1.153 -0.09,-0.627 -0.184,-1.25 -0.252,-1.859 -0.245,-2.219 -0.339,-4.32 -0.371,-6.431 -0.04,-2.785 0.083,-5.303 0.209,-7.122 -5.033,11.539 -5.509,20.427 -5.52,23.987 -0.248,2.269 -0.385,3.963 -0.479,5.382 1.304,3.707 3.621,8.654 7.771,14.926 0,0 -3.732,-2.078 -8.124,-9.763 -0.176,1.693 -0.486,3.621 -1.156,6.622 4.979,8.459 9.972,14.969 14.486,19.938 v -10.067 c 1.614,1.618 2.728,2.875 3.491,3.848 0.721,-3.278 1.733,-7.213 3.142,-11.399 8.776,-26.12 19.181,-34.078 19.181,-34.078 -9.576,14.962 -18.363,45.218 -17.996,59.344 1.856,1.582 3.513,2.85 4.889,3.816 -0.738,-1.117 -1.365,-2.386 -1.524,-3.376 4.262,-20.183 17.557,-33.355 17.557,-33.355 2.896,-28.915 35.62,-41.168 35.62,-41.168 2.663,-1.949 -13.11,-1.247 -13.11,-1.247"
       fill="#1b458f"
       id="path30" />
    <path
       d="m 353.764,274.844 v -16.353 c -1.715,1.315 -3.325,2.489 -4.845,3.556 v 4.82 h -2.479 v -3.134 c -10.632,7.029 -15.892,7.764 -15.892,7.764 7.166,-3.664 12.289,-7.256 15.892,-10.304 v -6.24 c -13.064,11.222 -24.794,17.001 -29.132,18.936 0,0.31 0,1.264 0.004,2.597 h 22.398 c 4.471,-0.742 9.252,-1.098 14.051,-0.893"
       fill="#d3d2d2"
       id="path31" />
    <path
       d="m 333.542,277.792 c -3.505,0.908 -6.686,2.028 -9.36,3.253 v -3.253 z"
       fill="#a7a5a6"
       id="path32" />
    <path
       d="m 305.4,291.506 c -0.872,0.389 -2.432,1.074 -3.088,1.351 l 0.011,-3.321 v -6.817 h 3.077 z"
       fill="#a7a5a6"
       id="path33" />
    <path
       d="m 302.324,273.775 h 3.073 v 7.721 h -3.073 z"
       fill="#a7a5a6"
       id="path34" />
    <path
       d="m 316.069,285.134 v -2.413 h -2.745 v 4.644 c 0.912,-0.526 1.83,-1.074 2.756,-1.64 z"
       fill="#a7a5a6"
       id="path35" />
    <path
       d="m 313.323,273.775 h 2.745 v 7.721 h -2.745 z"
       fill="#a7a5a6"
       id="path36" />
    <path
       d="m 308.739,289.885 v -7.165 h -2.115 v 5.137 l -0.004,3.088 c 0.703,-0.339 1.409,-0.699 2.119,-1.06 z"
       fill="#a7a5a6"
       id="path37" />
    <path
       d="m 306.622,273.775 h 2.115 v 7.721 h -2.115 z"
       fill="#a7a5a6"
       id="path38" />
    <path
       d="m 309.955,273.775 h 2.115 v 7.721 h -2.115 z"
       fill="#a7a5a6"
       id="path39" />
    <path
       d="m 312.067,288.08 v -5.36 h -2.118 v 6.521 c 0.706,-0.375 1.412,-0.761 2.118,-1.161 z"
       fill="#a7a5a6"
       id="path40" />
    <path
       d="m 302.324,267.225 h 13.755 v 5.328 h -13.755 z"
       fill="#a7a5a6"
       id="path41" />
    <path
       d="m 247.55,285.974 c -1.001,-0.49 -2.01,-0.983 -3.026,-1.47 l -0.004,-0.594 v -1.193 h 3.03 z"
       fill="#a7a5a6"
       id="path42" />
    <path
       d="m 244.525,273.775 h 3.073 v 7.721 h -3.073 z"
       fill="#a7a5a6"
       id="path43" />
    <path
       d="m 255.448,289.798 c 0.929,0.436 1.863,0.865 2.788,1.279 l 0.029,-5.984 v -2.374 h -2.817 z"
       fill="#a7a5a6"
       id="path44" />
    <path
       d="m 255.513,273.775 h 2.753 v 7.721 h -2.753 z"
       fill="#a7a5a6"
       id="path45" />
    <path
       d="m 248.773,273.775 h 2.111 v 7.721 h -2.111 z"
       fill="#a7a5a6"
       id="path46" />
    <path
       d="m 252.149,273.775 h 2.079 v 7.721 h -2.079 z"
       fill="#a7a5a6"
       id="path47" />
    <path
       d="m 244.521,267.225 h 13.755 v 5.328 h -13.755 z"
       fill="#a7a5a6"
       id="path48" />
    <path
       d="m 252.12,288.205 c 0.642,0.313 1.442,0.735 2.112,1.063 v -6.547 h -2.119 v 4.997 z"
       fill="#a7a5a6"
       id="path49" />
    <path
       d="m 241.185,282.931 c 0.71,0.328 1.413,0.656 2.115,0.991 v -6.129 h -2.118 v 4.09 z"
       fill="#a7a5a6"
       id="path50" />
    <path
       d="m 248.772,286.572 0.353,0.169 c 0.587,0.288 1.171,0.576 1.758,0.861 v -4.882 h -2.111 z"
       fill="#a7a5a6"
       id="path51" />
    <path
       d="m 207.428,269.069 v -10.581 c 1.711,1.318 3.322,2.493 4.842,3.559 v 4.821 h 2.479 v -3.131 c 10.632,7.025 15.892,7.757 15.892,7.757 -7.166,-3.664 -12.286,-7.253 -15.892,-10.304 v -6.237 c 12.516,10.751 23.807,16.508 28.548,18.67 v 2.868 c 0,0 -19.044,0.093 -19.52,-0.007 -5.548,-1.189 -11.15,-1.269 -16.349,-0.757"
       fill="#d3d2d2"
       id="path52" />
    <path
       d="m 236.612,280.955 c -2.666,-1.103 -6.25,-2.551 -8.246,-3.218 h 8.246 z"
       fill="#a7a5a6"
       id="path53" />
    <path
       d="m 237.842,280.773 v -2.983 h 2.118 v 2.983 l -0.007,1.592 c -0.209,-0.097 -1.009,-0.436 -2.118,-0.9 z"
       fill="#a7a5a6"
       id="path54" />
    <path
       d="m 319.626,282.72 v -4.929 h -2.321 v 7.191 c 0.764,-0.475 1.539,-0.962 2.317,-1.455 z"
       fill="#a7a5a6"
       id="path55" />
    <path
       d="m 322.967,281.623 v -3.83 h -2.119 v 3.247 l 0.022,1.711 c 0.648,-0.382 1.351,-0.76 2.097,-1.128 z"
       fill="#a7a5a6"
       id="path56" />
    <path
       d="m 301.121,272.555 v -3.772 c 0,-11.5 -9.317,-20.82 -20.817,-20.82 -11.5,0 -20.816,9.32 -20.816,20.82 v 3.772 l 3.545,-0.004 c -0.227,-1.116 -0.346,-2.276 -0.346,-3.465 0,-9.663 7.832,-17.492 17.491,-17.492 9.663,0 17.492,7.829 17.492,17.492 0,1.189 -0.119,2.356 -0.343,3.48 z"
       fill="#a7a5a6"
       id="path57" />
    <path
       d="m 212.272,258.963 v -6.243 l -4.842,-4.9 v 5.494 c 0.663,1.031 2.126,3.037 4.842,5.649 z"
       fill="#d3d2d2"
       id="path58" />
    <path
       d="m 353.764,253.314 c -0.666,1.031 -2.129,3.037 -4.845,5.649 v -6.243 l 4.845,-4.896 z"
       fill="#d3d2d2"
       id="path59" />
    <g
       fill="#a7a5a6"
       id="g103">
      <path
         d="m 276.807,289.091 c -0.558,0 -0.94,0.368 -0.94,1.006 0,0.608 0.303,0.947 0.94,0.947 0.389,0 0.739,-0.126 1.074,-0.382 v -0.032 c 0,-0.995 -0.436,-1.539 -1.074,-1.539"
         id="path60" />
      <path
         d="m 282.071,289.117 c -0.728,0 -1.127,0.699 -1.127,1.971 0,1.275 0.399,1.978 1.127,1.978 0.724,0 1.113,-0.703 1.113,-1.978 0,-1.272 -0.389,-1.971 -1.113,-1.971"
         id="path61" />
      <path
         d="m 286.897,293.883 c -0.67,0 -1.196,-0.158 -1.625,-0.389 l 0.151,-0.89 c 0.407,0.241 0.908,0.422 1.481,0.422 0.623,0 1.088,-0.314 1.088,-0.941 0,-0.533 -0.349,-0.861 -0.984,-0.861 -0.36,0 -0.616,0.069 -0.839,0.159 l -0.681,-0.152 0.191,-2.831 h 3.001 l 0.137,0.861 h -2.335 l -0.097,1.257 c 0.202,-0.058 0.454,-0.112 0.811,-0.112 1.07,0 1.769,0.613 1.769,1.629 0,1.196 -0.876,1.848 -2.068,1.848 m -4.824,0 c -1.29,0 -2.148,-0.998 -2.148,-2.792 0,-1.787 0.858,-2.796 2.148,-2.796 1.279,0 2.14,1.009 2.14,2.796 0,1.794 -0.861,2.792 -2.14,2.792 m -6.33,0.007 -0.13,-0.85 c 1.074,-0.216 1.909,-0.692 2.19,-1.614 -0.381,0.245 -0.803,0.396 -1.289,0.396 -0.97,0 -1.618,-0.58 -1.618,-1.668 0,-1.117 0.821,-1.859 1.92,-1.859 1.178,0 2.007,0.789 2.007,2.281 0,1.888 -1.286,2.961 -3.08,3.314 m -2.14,-0.111 h -1.016 v -4.392 l -1.099,0.421 -0.112,-0.803 1.326,-0.613 h 0.901 z m 23.425,-19.971 c -2.065,7.368 -8.823,12.769 -16.847,12.769 -8.027,0 -14.793,-5.408 -16.85,-12.779 l -3.844,-0.022 v 14.382 l -0.007,3.463 c 7.223,3.141 14.458,5.443 22.319,5.443 h 0.155 c 6.859,-0.025 13.031,-1.344 19.138,-3.703 l 0.028,-19.592 z"
         id="path62" />
      <path
         d="m 202.689,245.549 c 0.728,0.137 1.427,0.313 2.086,0.515 v 9.346 c -0.663,-0.206 -1.358,-0.379 -2.086,-0.516 z"
         id="path63" />
      <path
         d="m 201.48,254.707 c -0.678,-0.082 -1.377,-0.14 -2.086,-0.158 l 0.003,-9.346 c 0.339,0.011 0.678,0.026 1.016,0.051 0.361,0.029 0.717,0.065 1.067,0.108 z"
         id="path64" />
      <path
         d="m 196.093,254.707 c 0.677,-0.082 1.376,-0.14 2.09,-0.158 v -9.346 c -0.714,0.018 -1.413,0.072 -2.09,0.159 z"
         id="path65" />
      <path
         d="m 192.803,255.414 c 0.663,-0.212 1.354,-0.382 2.082,-0.519 v -9.345 c -0.728,0.137 -1.419,0.313 -2.082,0.515 z"
         id="path66" />
      <path
         d="m 190.916,237.956 c 0.451,-0.205 0.923,-0.396 1.42,-0.565 v 1.124 z"
         id="path67" />
      <path
         d="m 198.182,241.236 c -0.714,0.018 -1.413,0.072 -2.09,0.158 v -4.864 c 0.677,-0.083 1.376,-0.137 2.09,-0.162 z"
         id="path68" />
      <path
         d="m 201.48,236.531 c -0.678,-0.083 -1.377,-0.141 -2.086,-0.159 v 4.864 c 0.709,0.018 1.408,0.068 2.086,0.158 z"
         id="path69" />
      <path
         d="m 202.689,236.718 c 0.728,0.137 1.423,0.314 2.086,0.515 v 4.86 c -0.659,-0.201 -1.358,-0.378 -2.086,-0.508 z"
         id="path70" />
      <path
         d="m 194.884,241.583 c -0.724,0.134 -1.423,0.31 -2.083,0.512 v -4.86 c 0.663,-0.202 1.359,-0.379 2.083,-0.519 z"
         id="path71" />
      <path
         d="m 205.243,237.39 c 0.504,0.173 0.983,0.364 1.437,0.577 l -1.437,0.551 z"
         id="path72" />
      <path
         d="m 190.916,246.787 c 0.451,-0.209 0.923,-0.396 1.42,-0.565 v 1.124 z"
         id="path73" />
      <path
         d="m 205.243,246.221 c 0.504,0.173 0.983,0.364 1.437,0.577 l -1.437,0.551 z"
         id="path74" />
      <path
         d="m 206.681,234.804 c -2.166,-1.002 -4.911,-1.6 -7.89,-1.6 -2.976,0 -5.711,0.598 -7.876,1.593 v 2.028 c 2.165,-0.998 4.9,-1.589 7.876,-1.589 2.979,0 5.724,0.598 7.89,1.596 z"
         id="path75" />
      <path
         d="m 206.681,243.71 c -2.166,-0.998 -4.911,-1.6 -7.89,-1.6 -2.976,0 -5.711,0.595 -7.876,1.593 v 2.028 c 2.165,-0.994 4.9,-1.592 7.876,-1.592 2.979,0 5.724,0.601 7.89,1.599 z"
         id="path76" />
      <path
         d="m 206.681,233.912 c -2.166,-1.002 -4.911,-1.604 -7.89,-1.604 -2.976,0 -5.711,0.598 -7.876,1.593 l 6.254,-5.956 c 0.53,-0.043 1.07,-0.061 1.622,-0.061 0.551,0 1.088,0.018 1.621,0.058 z"
         id="path77" />
      <path
         d="m 197.168,226.279 v 0.984 c 0.529,-0.04 1.073,-0.058 1.621,-0.058 0.551,0 1.092,0.018 1.621,0.058 v -0.984 c 0,-0.371 -0.807,-0.385 -1.016,-0.392 -0.198,0 -0.403,-0.004 -0.605,-0.004 -0.205,0 -0.407,0.004 -0.609,0.004 -0.216,0.007 -1.012,0 -1.012,0.392"
         id="path78" />
      <path
         d="m 204.775,265.547 c -0.663,-0.212 -1.358,-0.382 -2.086,-0.518 v -9.09 c 0.728,0.133 1.423,0.306 2.086,0.511 z"
         id="path79" />
      <path
         d="m 201.48,264.84 c -0.674,-0.086 -1.377,-0.136 -2.086,-0.158 v -9.093 c 0.709,0.018 1.412,0.075 2.086,0.158 z"
         id="path80" />
      <path
         d="m 198.182,264.684 c -0.714,0.019 -1.413,0.069 -2.09,0.155 v -9.093 c 0.677,-0.09 1.376,-0.137 2.09,-0.162 z"
         id="path81" />
      <path
         d="m 194.884,265.031 c -0.724,0.133 -1.42,0.31 -2.083,0.515 v -9.097 c 0.663,-0.205 1.359,-0.375 2.083,-0.512 z"
         id="path82" />
      <path
         d="m 366.318,245.549 c 0.728,0.137 1.423,0.313 2.083,0.515 v 9.346 c -0.66,-0.206 -1.355,-0.379 -2.083,-0.516 z"
         id="path83" />
      <path
         d="m 365.108,254.707 c -0.677,-0.082 -1.373,-0.14 -2.086,-0.158 v -9.346 c 0.346,0.011 0.681,0.026 1.02,0.051 0.36,0.029 0.717,0.065 1.066,0.108 z"
         id="path84" />
      <path
         d="m 359.722,254.707 c 0.678,-0.082 1.373,-0.14 2.09,-0.158 v -9.346 c -0.717,0.018 -1.412,0.072 -2.09,0.159 z"
         id="path85" />
      <path
         d="m 356.43,255.414 c 0.663,-0.212 1.359,-0.382 2.083,-0.519 v -9.345 c -0.724,0.137 -1.42,0.313 -2.083,0.515 z"
         id="path86" />
      <path
         d="m 354.545,237.956 c 0.451,-0.205 0.923,-0.396 1.42,-0.565 v 1.124 z"
         id="path87" />
      <path
         d="m 361.811,241.236 c -0.714,0.018 -1.413,0.072 -2.09,0.158 v -4.864 c 0.677,-0.083 1.376,-0.137 2.09,-0.162 z"
         id="path88" />
      <path
         d="m 365.108,236.531 c -0.677,-0.083 -1.373,-0.141 -2.086,-0.159 v 4.864 c 0.713,0.018 1.409,0.068 2.086,0.158 z"
         id="path89" />
      <path
         d="m 366.318,236.718 c 0.728,0.137 1.423,0.314 2.083,0.515 v 4.86 c -0.66,-0.201 -1.355,-0.378 -2.083,-0.508 z"
         id="path90" />
      <path
         d="m 358.512,241.583 c -0.724,0.134 -1.423,0.31 -2.083,0.512 v -4.86 c 0.663,-0.202 1.359,-0.379 2.086,-0.519 z"
         id="path91" />
      <path
         d="m 368.872,237.39 c 0.501,0.173 0.984,0.364 1.438,0.577 l -1.438,0.551 z"
         id="path92" />
      <path
         d="m 354.545,246.787 c 0.451,-0.209 0.923,-0.396 1.42,-0.565 v 1.124 z"
         id="path93" />
      <path
         d="m 368.872,246.221 c 0.501,0.173 0.984,0.364 1.438,0.577 l -1.438,0.551 z"
         id="path94" />
      <path
         d="m 370.31,234.804 c -2.169,-1.002 -4.911,-1.6 -7.89,-1.6 -2.976,0 -5.711,0.598 -7.876,1.593 v 2.028 c 2.165,-0.998 4.9,-1.589 7.876,-1.589 2.979,0 5.724,0.598 7.89,1.596 z"
         id="path95" />
      <path
         d="m 370.31,243.71 c -2.169,-0.998 -4.911,-1.6 -7.89,-1.6 -2.976,0 -5.711,0.595 -7.876,1.593 v 2.028 c 2.165,-0.994 4.9,-1.592 7.876,-1.592 2.979,0 5.724,0.601 7.89,1.599 z"
         id="path96" />
      <path
         d="m 370.31,233.912 c -2.169,-1.002 -4.911,-1.604 -7.89,-1.604 -2.976,0 -5.711,0.598 -7.876,1.593 l 6.251,-5.956 c 0.533,-0.043 1.073,-0.061 1.625,-0.061 0.551,0 1.088,0.018 1.621,0.058 z"
         id="path97" />
      <path
         d="m 360.796,226.279 v 0.984 c 0.533,-0.04 1.07,-0.058 1.621,-0.058 0.548,0 1.092,0.018 1.622,0.058 v -0.984 c 0,-0.371 -0.807,-0.385 -1.016,-0.392 -0.202,0 -0.404,-0.004 -0.606,-0.004 -0.201,0 -0.407,0.004 -0.608,0.004 -0.217,0.007 -1.013,0 -1.013,0.392"
         id="path98" />
      <path
         d="m 368.403,265.547 c -0.663,-0.212 -1.359,-0.382 -2.083,-0.518 v -9.09 c 0.724,0.133 1.42,0.306 2.083,0.511 z"
         id="path99" />
      <path
         d="m 365.108,264.84 c -0.677,-0.086 -1.373,-0.136 -2.086,-0.158 v -9.093 c 0.713,0.018 1.409,0.075 2.086,0.158 z"
         id="path100" />
      <path
         d="m 361.811,264.684 c -0.714,0.019 -1.413,0.069 -2.09,0.155 v -9.093 c 0.677,-0.09 1.376,-0.137 2.09,-0.162 z"
         id="path101" />
      <path
         d="m 358.512,265.031 c -0.724,0.133 -1.42,0.31 -2.083,0.515 v -9.097 c 0.663,-0.205 1.359,-0.375 2.083,-0.512 z"
         id="path102" />
      <path
         d="m 194.869,278.029 c -0.713,0.202 -1.405,0.403 -2.064,0.609 0,-1.215 -0.004,-4.576 -0.004,-4.576 v -7.404 c 0,0 1.359,-0.381 2.083,-0.518 v 7.104 z m 3.333,-0.858 c -0.728,0.17 -1.438,0.346 -2.126,0.526 0,-0.5 0.018,-4.73 0.018,-4.73 v -7.015 c 0,0 1.373,-0.14 2.086,-0.158 l 0.025,7.173 z m 3.278,-11.219 c -0.677,-0.09 -2.086,-0.158 -2.086,-0.158 v 7.173 c 0,0 -0.01,3.35 -0.01,3.934 0.684,-0.148 1.379,-0.288 2.086,-0.421 z m 3.297,6.712 v -6.006 c -0.663,-0.209 -2.086,-0.518 -2.086,-0.518 v 6.524 l -0.018,3.599 c 0,0 1.383,-0.227 2.089,-0.324 z m 153.733,1.24 v -7.764 c -0.72,0.137 -2.079,0.518 -2.079,0.518 v 8.067 c 0,0 0.018,0.155 0.018,1.084 0.689,0.058 1.377,0.134 2.065,0.22 m 3.318,-2.525 -0.022,-7.71 c -0.713,0.018 -2.086,0.158 -2.086,0.158 v 7.552 c 0,0 -0.028,1.988 -0.028,2.687 0.72,0.108 1.433,0.227 2.143,0.361 m 3.275,0.749 c -0.695,-0.187 -1.394,-0.357 -2.1,-0.512 0,-0.529 0.007,-3.285 0.007,-3.285 v -7.71 c 0,0 1.412,0.068 2.09,0.158 v 7.552 z m 3.289,1.02 c -0.695,-0.253 -1.394,-0.476 -2.104,-0.689 0,-0.551 0.018,-4.492 0.018,-4.492 v -7 c 0,0 1.424,0.309 2.086,0.518 z"
         id="path103" />
    </g>
    <path
       d="m 273.46,275.056 c 2.813,1.539 5.512,2.259 7.277,2.584 0.04,0.007 0.072,0.014 0.105,0.014 0.126,0 0.248,-0.04 0.345,-0.122 0.13,-0.101 0.206,-0.249 0.213,-0.411 0.119,-2.998 -0.548,-5.66 -0.839,-6.665 -0.044,-0.152 -0.148,-0.278 -0.289,-0.346 -3.584,-1.737 -6.488,-3.639 -8.628,-5.664 -1.56,-1.477 -2.695,-2.986 -3.362,-4.489 -0.082,-0.183 -0.255,-0.306 -0.454,-0.328 -0.201,-0.021 -0.396,0.073 -0.511,0.235 -1.182,1.697 -2.05,3.671 -2.504,5.703 -0.025,0.115 -0.011,0.238 0.04,0.349 1.772,3.909 4.669,6.986 8.607,9.14"
       fill="#c4122e"
       id="path104" />
    <path
       d="m 272.385,263.575 c 0.104,0.097 0.241,0.152 0.385,0.152 h 0.047 c 0.159,-0.011 0.306,-0.094 0.4,-0.224 4.183,-5.645 8.766,-7.742 11.875,-8.51 0.241,-0.054 0.414,-0.27 0.425,-0.518 0.007,-0.249 -0.148,-0.472 -0.386,-0.548 -1.578,-0.515 -3.224,-0.775 -4.899,-0.775 -2.126,0 -4.205,0.422 -6.179,1.261 -1.881,0.804 -3.56,1.939 -5.001,3.38 -0.133,0.133 -0.187,0.335 -0.144,0.519 0.231,0.94 0.98,2.875 3.477,5.263"
       fill="#c4122e"
       id="path105" />
    <path
       d="m 274.02,264.306 c -0.176,0.241 -0.13,0.583 0.108,0.764 1.722,1.343 3.826,2.637 6.265,3.847 0.08,0.036 0.163,0.054 0.245,0.054 0.159,0 0.314,-0.064 0.422,-0.194 1.459,-1.69 5.599,-5.725 12.523,-6.795 0.18,-0.025 0.339,-0.14 0.422,-0.303 0.079,-0.162 0.075,-0.356 -0.018,-0.515 -1.222,-2.154 -2.955,-4.017 -5.012,-5.379 -0.086,-0.057 -0.191,-0.09 -0.295,-0.093 -0.624,-0.018 -2.973,0.021 -5.963,1.333 -3.282,1.437 -6.215,3.887 -8.697,7.281"
       fill="#c4122e"
       id="path106" />
    <path
       d="m 295.012,263.358 c -0.09,-0.241 -0.331,-0.389 -0.587,-0.357 -1.228,0.152 -2.435,0.407 -3.588,0.771 -0.141,0.044 -0.263,0.144 -0.328,0.274 -0.065,0.133 -0.079,0.285 -0.033,0.429 0.408,1.257 1.114,3.819 1.24,6.831 0.079,1.906 -0.087,3.732 -0.49,5.411 -0.27,1.117 -0.649,2.194 -1.124,3.192 -0.116,0.241 -0.043,0.533 0.169,0.688 0.101,0.076 0.213,0.108 0.332,0.108 0.136,0 0.27,-0.047 0.378,-0.144 1.718,-1.581 3.037,-3.495 3.92,-5.678 1.491,-3.7 1.531,-7.8 0.111,-11.525"
       fill="#c4122e"
       id="path107" />
    <path
       d="m 281.049,279.008 c -0.083,-0.123 -0.213,-0.209 -0.361,-0.235 -1.729,-0.317 -4.384,-0.998 -7.205,-2.446 -3.361,-1.726 -6.056,-4.082 -8.009,-7 -0.14,-0.209 -0.403,-0.299 -0.641,-0.223 -0.234,0.079 -0.389,0.306 -0.379,0.554 0.073,1.892 0.49,3.74 1.233,5.491 1.109,2.605 2.893,4.864 5.162,6.539 2.18,1.6 4.752,2.623 7.444,2.958 0.025,0.007 0.043,0.007 0.068,0.007 0.159,0 0.31,-0.072 0.418,-0.194 1.175,-1.355 1.971,-3.052 2.356,-5.03 0.029,-0.148 -0.003,-0.299 -0.086,-0.421"
       fill="#c4122e"
       id="path108" />
    <path
       d="m 289.44,264.922 c -0.05,-0.152 -0.159,-0.274 -0.303,-0.339 -0.144,-0.065 -0.313,-0.065 -0.454,0.003 -3.772,1.687 -6.088,4.129 -6.91,5.098 -0.122,0.148 -0.165,0.339 -0.111,0.519 0.313,1.045 0.839,3.174 0.9,5.714 0.036,1.593 -0.119,3.088 -0.461,4.45 -0.328,1.293 -0.836,2.489 -1.506,3.534 -0.112,0.18 -0.115,0.396 -0.011,0.584 0.105,0.165 0.281,0.27 0.48,0.27 h 0.032 c 1.585,-0.087 3.17,-0.433 4.712,-1.013 0.069,-0.021 0.134,-0.061 0.188,-0.115 1.632,-1.535 2.853,-3.376 3.624,-5.465 0.645,-1.751 0.98,-3.7 0.998,-5.786 0.022,-3.246 -0.728,-6.064 -1.178,-7.454"
       fill="#c4122e"
       id="path109" />
  </g>
</svg>
