<?xml version="1.0" encoding="UTF-8" standalone="no"?>
<svg
   clip-rule="evenodd"
   fill-rule="evenodd"
   stroke-linejoin="round"
   stroke-miterlimit="2"
   viewBox="0 0 299.55399 200"
   version="1.1"
   id="svg2"
   sodipodi:docname="Derby.svg"
   width="299.55399"
   height="200"
   xmlns:inkscape="http://www.inkscape.org/namespaces/inkscape"
   xmlns:sodipodi="http://sodipodi.sourceforge.net/DTD/sodipodi-0.dtd"
   xmlns="http://www.w3.org/2000/svg"
   xmlns:svg="http://www.w3.org/2000/svg">
  <defs
     id="defs2" />
  <sodipodi:namedview
     id="namedview2"
     pagecolor="#ffffff"
     bordercolor="#000000"
     borderopacity="0.25"
     inkscape:showpageshadow="2"
     inkscape:pageopacity="0.0"
     inkscape:pagecheckerboard="0"
     inkscape:deskcolor="#d1d1d1" />
  <g
     fill="#11100c"
     fill-rule="nonzero"
     id="g2"
     transform="translate(-130.223,-100)">
    <path
       d="m 136.464,186.181 c 0,0 11.887,-0.594 11.887,-11.59 0,-14.561 -18.128,-15.156 -18.128,-34.769 0,-14.562 16.047,-18.425 16.047,-18.425 0.298,0 0.298,0 0.298,0.297 0,0 0,0.297 -0.298,0.297 0,0 -10.995,3.269 -10.995,16.642 0,14.562 16.939,18.128 17.533,32.689 0.297,14.859 -10.401,16.345 -12.778,16.345 -2.378,0 -3.566,-0.594 -3.566,-0.594 -0.298,-0.297 -0.298,-0.595 -0.298,-0.595 0,-0.297 0.298,-0.297 0.298,-0.297 z m 252.303,98.366 c 3.269,-3.269 4.755,-5.647 5.646,-6.835 v -0.595 c -1.783,-4.754 -3.863,-9.509 -6.241,-13.075 -4.457,-3.269 -8.915,-6.241 -13.67,-8.619 h -0.297 c -0.297,0 -0.297,0 -0.297,0.298 v 0.297 c 0.297,0.297 0.594,0.891 0.891,1.486 1.189,1.486 2.675,3.863 4.458,6.835 2.972,5.052 6.241,12.481 8.618,20.208 0.297,0 0.595,0.297 0.892,0 -0.297,0.297 0,0 0,0 z"
       id="path1" />
    <path
       d="m 425.319,220.059 c 0,0 -0.297,-0.297 -0.297,-0.594 -0.297,-0.297 -0.594,-0.891 -1.188,-1.486 -1.189,-1.189 -2.675,-3.269 -4.161,-5.349 -3.269,-4.458 -7.429,-10.401 -10.698,-16.048 -5.052,-8.618 -10.104,-19.91 -12.482,-24.665 5.052,-5.052 7.43,-8.916 7.727,-9.51 v -0.297 c 0,-0.297 0,-0.297 -0.297,-0.297 l -1.486,-1.783 c -5.944,-8.024 -10.104,-15.453 -12.184,-19.02 l -0.892,-1.783 c 0,-0.297 -0.297,-0.297 -0.594,-0.297 h -2.081 c -9.806,0 -37.444,-0.594 -71.025,-4.16 -37.444,-4.161 -67.756,-11.887 -73.7,-13.67 -0.594,-0.892 -1.188,-2.081 -2.08,-2.972 -3.566,-0.297 -6.835,-1.189 -8.915,-2.378 10.104,10.699 15.75,26.746 15.75,42.497 0,6.24 -0.891,12.481 -2.972,19.019 -2.674,9.51 -8.023,17.236 -14.858,23.18 -3.567,2.972 -7.727,5.646 -12.185,7.132 -4.754,-9.807 -9.509,-17.831 -12.778,-23.18 2.08,-0.297 4.457,-0.594 7.429,-1.486 5.647,-1.486 12.482,-4.457 18.128,-10.401 3.863,-3.863 7.132,-9.212 9.212,-15.75 1.189,-3.864 1.783,-7.43 1.783,-11.293 0,-10.698 -4.754,-20.208 -11.589,-27.637 -6.835,-7.43 -15.751,-12.779 -25.558,-15.751 -4.457,-1.486 -9.509,-2.08 -14.561,-2.08 -9.213,0 -19.02,2.08 -27.043,7.132 -8.024,4.755 -14.859,12.779 -16.642,23.18 -0.595,3.566 -0.892,6.538 -0.892,9.51 0,4.16 0.595,8.023 2.08,11.292 1.486,3.269 3.567,5.944 6.538,7.727 1.783,0.892 3.566,1.486 5.647,1.783 v 0.594 c 0,0.595 0.297,1.783 0.594,2.972 0.297,1.783 0.594,4.161 0.594,6.241 0,1.783 -0.297,3.863 -0.297,5.349 0,0.892 -0.297,1.783 -0.297,2.08 h -2.377 c -2.675,0 -5.647,1.189 -5.647,1.189 0,0 8.321,5.052 17.831,14.265 8.321,8.023 11.293,14.264 12.184,15.453 0,0.297 0.297,0.297 0.297,0.297 0.892,0 3.864,-0.297 7.727,0 3.566,0.297 6.538,1.189 7.429,1.486 0,0 0.297,0 0.297,-0.297 0,-0.892 0.298,-3.864 -0.594,-6.241 -1.783,-4.755 -5.349,-5.646 -6.241,-5.646 0,0 -0.297,0 -0.297,0.297 l -0.297,3.269 c 0,0 0,0.297 0.297,0.297 0.595,0 1.783,0 3.269,0.891 2.378,1.189 2.08,3.566 2.08,3.566 0,0 -2.377,-0.891 -5.943,-1.485 -3.566,-0.595 -6.538,-0.298 -6.538,-0.298 0,0 -2.675,-5.646 -8.321,-13.373 -4.755,-6.537 -9.51,-11.589 -10.698,-12.778 0,-0.297 0.297,-1.189 0.594,-2.675 v -0.594 c 2.08,-1.189 3.566,-3.269 3.566,-5.349 0,-2.081 -1.486,-3.864 -3.566,-5.349 0,-0.595 -0.297,-1.189 -0.297,-1.784 -0.297,-1.485 -0.594,-2.674 -0.594,-3.268 1.188,-0.298 2.377,-0.892 3.566,-1.784 2.08,-1.485 3.566,-3.566 4.754,-5.349 2.081,-3.863 3.864,-8.023 6.241,-13.373 1.783,-4.457 4.161,-7.726 6.835,-9.509 2.675,-1.783 6.538,-2.972 10.104,-2.972 2.972,0 5.944,0.594 8.916,2.08 4.16,1.783 5.943,4.161 7.429,6.538 1.486,2.377 1.783,5.349 1.783,8.024 0,1.783 -0.297,3.269 -0.594,4.457 -0.297,0.595 -0.297,1.189 -0.595,1.784 -2.674,-6.241 -8.618,-10.699 -16.344,-10.699 -10.996,0 -19.317,7.43 -19.317,19.614 0,10.995 8.618,18.128 10.401,19.614 h 0.595 c 0.297,0 0.891,-0.298 1.188,-0.298 1.486,-0.594 3.269,-1.188 4.458,-2.08 l 0.297,-0.297 v -0.297 c -1.783,-1.486 -8.915,-8.916 -8.915,-16.642 0,-9.807 7.132,-12.779 11.887,-12.779 4.458,0 11.59,3.269 11.59,12.482 0,8.915 -8.618,17.83 -17.831,21.099 -9.212,3.269 -19.019,1.783 -19.019,1.783 -0.297,0 -0.297,0 -0.297,0.297 0,0 0,0.298 0.297,0.298 0,0 8.024,4.16 21.694,0.594 0.891,-0.297 1.486,-0.594 2.377,-0.594 0,2.08 -0.297,6.538 0.892,12.481 1.188,6.835 3.863,12.481 4.457,13.076 h 0.595 l 2.377,-3.566 v -0.595 c -0.594,-1.486 -2.08,-6.835 -2.377,-13.075 0.594,0.891 1.188,2.08 2.08,3.269 2.377,4.16 5.349,9.509 8.618,15.453 -0.891,0 -1.783,0.297 -2.674,0.297 1.188,2.08 2.08,4.16 3.269,6.538 0.891,0 1.783,-0.297 2.674,-0.297 1.486,2.971 2.972,6.24 4.458,9.806 8.915,21.1 13.373,38.039 13.967,39.822 v 0.297 l 0.892,3.566 c 0,0.298 0.297,0.595 0.594,0.595 h 0.297 l 3.269,-1.189 c 2.675,-0.891 5.349,-1.486 8.321,-1.486 3.566,0 7.132,0.892 10.698,2.378 4.161,2.08 7.43,5.052 9.51,9.212 2.08,4.161 3.269,9.213 3.269,14.859 0,1.486 0,3.269 -0.297,4.755 0,0.297 0.297,0.297 0.297,0.297 h 0.297 c 4.458,-2.377 6.241,-3.863 7.132,-4.755 0,0 0.298,-0.297 0.298,-0.594 v -0.297 c 0,-6.538 -1.189,-13.076 -4.161,-18.425 -2.674,-5.35 -7.132,-10.104 -13.076,-12.779 -4.457,-2.08 -9.212,-3.269 -13.967,-3.269 -2.377,0 -4.458,0.297 -6.835,0.594 -1.783,-6.537 -6.241,-20.505 -13.373,-37.444 -1.189,-2.972 -2.675,-5.943 -3.863,-8.915 5.052,-2.08 9.509,-4.755 13.373,-8.321 8.023,-6.835 13.967,-16.345 16.642,-27.043 1.783,-6.835 2.674,-13.968 2.674,-20.803 0,-9.212 -2.08,-18.425 -5.646,-26.745 10.995,2.674 36.255,8.618 68.053,11.887 31.798,3.269 57.95,4.16 69.54,4.16 2.08,3.863 5.349,9.213 9.806,15.75 -1.188,1.486 -2.971,3.567 -5.943,6.241 l -1.486,1.486 c 0,0 -0.297,0.297 -0.297,0.594 v 0.298 l 0.891,2.08 c 0,0 7.133,16.047 13.968,27.637 5.052,8.916 12.184,17.831 15.453,22.288 -1.189,1.486 -2.377,3.567 -3.863,5.944 -2.972,5.349 -5.944,12.779 -5.944,21.694 0,7.132 0.892,13.967 1.783,19.911 -3.566,-4.161 -8.024,-8.024 -13.076,-12.184 -22.882,-17.534 -49.925,-25.558 -77.563,-25.558 -10.401,0 -19.316,1.486 -26.449,3.566 -7.132,2.378 -12.778,5.35 -16.344,8.619 -2.378,2.377 -4.161,4.754 -5.052,7.726 -0.297,1.486 -0.595,2.972 -0.595,4.458 0,4.16 1.189,8.024 2.675,11.887 1.486,3.863 3.269,7.727 4.458,12.184 2.674,9.213 3.863,17.236 4.457,19.614 0,0.297 0.297,0.297 0.297,0.297 h 0.298 c 3.269,-2.08 5.349,-3.566 6.24,-4.458 0,0 0.298,-0.297 0.298,-0.594 -0.595,-3.863 -2.081,-10.104 -3.864,-16.642 -1.486,-5.052 -3.269,-9.212 -4.755,-12.779 -1.485,-3.566 -2.377,-6.537 -2.377,-8.915 0,-0.891 0,-1.783 0.297,-2.674 0.297,-0.892 1.189,-2.378 2.675,-3.864 1.783,-1.486 4.457,-3.269 7.726,-4.755 6.835,-2.971 16.939,-5.349 30.015,-5.349 26.152,0 51.709,7.43 72.809,23.774 13.67,10.402 20.802,21.992 24.368,28.827 1.783,3.269 2.377,5.052 2.972,5.943 l 0.297,0.297 h 0.297 c 3.269,-3.269 4.458,-5.052 5.052,-6.24 v -0.595 c -0.297,-0.891 -0.594,-1.188 -0.891,-2.377 -0.892,-2.08 -1.783,-4.458 -2.675,-7.132 -2.675,-8.321 -5.349,-19.911 -5.349,-32.393 0,-6.835 2.377,-12.778 4.755,-17.236 2.377,-4.458 5.052,-7.429 5.052,-7.429 l 2.377,-2.378 z M 166.181,170.728 c -0.297,3.566 -4.16,3.863 -4.755,3.863 0,-0.594 0,-1.188 0.298,-1.783 0.891,0 2.674,-0.297 2.674,-2.377 0,-2.08 -2.08,-2.972 -2.972,-3.269 0,-0.594 -0.297,-1.189 -0.297,-1.783 0.595,0 5.349,1.189 5.052,5.349 z m 46.657,-12.184 c 0.297,-0.595 0.594,-0.892 0.892,-1.189 1.188,-1.486 2.674,-4.16 3.863,-7.429 0.594,-1.783 0.891,-4.161 0.891,-6.538 0,-3.269 -0.594,-7.43 -2.674,-10.996 -2.08,-3.269 -5.052,-6.835 -10.104,-9.212 -3.864,-1.783 -7.727,-2.675 -11.59,-2.675 -4.755,0 -9.807,1.486 -13.67,4.161 -3.864,2.674 -6.835,7.132 -8.916,12.481 -2.08,5.349 -3.863,9.213 -5.646,12.482 -0.891,1.485 -1.783,2.674 -2.972,3.566 -0.891,0.891 -2.377,1.188 -3.863,1.188 -1.189,0 -2.377,-0.297 -3.269,-0.891 -1.486,-0.892 -2.972,-2.378 -3.863,-4.755 -0.892,-2.377 -1.486,-5.052 -1.486,-8.915 0,-2.378 0.297,-5.349 0.891,-8.321 1.486,-8.618 6.836,-14.859 13.968,-19.02 6.835,-4.16 15.453,-6.24 23.774,-6.24 4.458,0 8.915,0.594 12.778,1.783 8.619,2.377 16.642,7.429 22.586,13.967 5.943,6.538 9.807,14.562 9.807,23.477 0,2.972 -0.297,6.241 -1.486,9.213 -1.783,5.646 -4.458,10.104 -7.727,13.372 -4.755,4.755 -10.401,7.43 -15.156,8.916 -3.863,1.189 -7.429,1.486 -8.915,1.486 7.132,-5.052 11.887,-12.185 11.887,-19.911 z"
       id="path2" />
  </g>
</svg>
