<?xml version="1.0" encoding="UTF-8"?>
<!DOCTYPE svg PUBLIC "-//W3C//DTD SVG 1.1//EN" "http://www.w3.org/Graphics/SVG/1.1/DTD/svg11.dtd">
<!-- Creator: CorelDRAW 2019 (64-Bit) -->
<svg xmlns="http://www.w3.org/2000/svg" xml:space="preserve" width="168.56mm" height="184.085mm" version="1.1" style="shape-rendering:geometricPrecision; text-rendering:geometricPrecision; image-rendering:optimizeQuality; fill-rule:evenodd; clip-rule:evenodd"
viewBox="0 0 168.4882 184.0071"
 xmlns:xlink="http://www.w3.org/1999/xlink"
 xmlns:xodm="http://www.corel.com/coreldraw/odm/2003">
 <defs>
  <style type="text/css">
   <![CDATA[
    .fil0 {fill:#D30729}
    .fil1 {fill:white}
   ]]>
  </style>
 </defs>
 <g id="Layer_x0020_1">
  <metadata id="CorelCorpID_0Corel-Layer"/>
  <g id="_697936224">
   <path class="fil0" d="M84.2407 2.0799c-56.7075,0 -72.0622,16.4804 -72.6988,17.1882 -0.1775,0.2855 -12.1374,20.6942 -9.1304,50.7869 2.7718,27.7373 19.1637,69.5953 81.5659,111.6171l0.2628 0.1987 0.2698 -0.1987c62.399,-42.0218 78.7905,-83.8798 81.5623,-111.6171 3.0091,-30.0927 -8.9516,-50.5014 -9.0784,-50.7038 -0.6699,-0.7909 -16.0421,-17.2712 -72.753,-17.2712z"/>
   <path class="fil1" d="M158.6935 17.7519l-0.0175 -0.0205 -0.0159 -0.0204c-0.6321,-0.7253 -16.1899,-17.7111 -74.4194,-17.7111 -57.9614,0 -73.7149,16.9013 -74.3652,17.6237 -0.1571,0.2316 -12.4635,21.1985 -9.3797,52.0228 2.8299,28.3368 19.5769,71.1394 83.3075,114.0538l0.438 0.3068 0.4392 -0.3068c63.733,-42.914 80.4886,-85.717 83.3098,-114.0538 3.085,-30.7727 -9.1716,-51.6922 -9.2968,-51.8946zm7.3787 52.303l0 0c-2.7717,27.7373 -19.1632,69.5953 -81.5617,111.6171l-0.2698 0.1987 -0.2628 -0.1987c-62.4021,-42.0218 -78.7946,-83.8798 -81.5659,-111.6171 -3.007,-30.0927 8.9523,-50.5014 9.1298,-50.7869 0.6366,-0.7078 15.9913,-17.1882 72.6994,-17.1882 56.7107,0 72.0839,16.4804 72.7524,17.2712 0.1268,0.2024 12.0876,20.6111 9.0784,50.7038z"/>
   <path class="fil1" d="M84.2407 9.4221c29.6484,0 47.0717,4.8429 56.6718,9.1119l3.1359 0c0.8483,0 1.6473,0.0234 2.4193,0.0612 -8.6007,-4.821 -26.9476,-11.5675 -62.2269,-11.5675 -35.1728,0 -53.5151,6.7057 -62.1356,11.5063l5.4635 0c9.5981,-4.2617 27.033,-9.1119 56.6722,-9.1119z"/>
   <path class="fil1" d="M160.4152 45.0356l0 5.1233c0,0.9086 -0.1763,2.4511 -1.1331,4.0436 0.4572,5.1103 0.52,10.7479 -0.0861,16.8253 -2.5503,25.5269 -17.6481,64.0515 -74.9547,103.0004 -57.314,-38.9546 -72.406,-77.4741 -74.9508,-103.0004 -1.0561,-10.5909 -0.1174,-19.8363 1.4537,-27.236l0 -9.1795c-2.7503,8.4695 -5.3783,21.2151 -3.8381,36.654 2.6109,26.1879 18.109,65.765 77.0822,105.4833l0.2524 0.1701 0.2515 -0.1701c58.9741,-39.7183 74.4738,-79.2959 77.0882,-105.4833 0.9991,-10.0248 0.2402,-18.913 -1.1652,-26.2307z"/>
   <path class="fil1" d="M96.3588 110.5031c-0.1776,-0.9457 -3.1652,-2.7276 -4.3861,-2.8869 -3.2499,-0.4143 2.6809,-1.7148 2.1478,-2.133 -2.3492,-2.0761 -2.0778,-2.7001 -2.0778,-2.7001 -4.2005,-1.4515 -4.6238,-2.2685 -4.6238,-2.2685 -3.3635,-0.6981 -8.1665,0.474 -8.1842,0.4802 -1.2983,0.5805 -1.903,0.8837 -2.1495,0.9873 0.2424,0.0125 0.9279,0.0932 -1.5094,0.9187 -1.0201,0.3329 0.3744,3.4541 -0.38,4.5408 -0.8198,1.1447 -3.1855,2.9319 -3.2674,3.6094 -0.3596,3.0035 2.3325,9.0651 3.5439,10.8498 1.6688,2.4772 2.5501,4.3821 3.7225,5.3129 4.8237,4.4901 8.6116,0.9074 9.1066,0.4415 2.0425,-1.9207 2.5648,-3.0301 3.837,-4.8149 0.6752,-0.924 3.7186,-6.6682 4.067,-8.5582 0.2655,-1.3541 0.1294,-3.9121 0.1535,-3.7789zm-19.3521 -2.632l0 0c2.3002,-0.9393 1.0689,-1.2017 1.6669,-1.6449 0.9263,-0.7208 -2.3081,-0.1433 -1.6311,-0.6787 2.1608,-1.6556 0.1724,-1.869 0.1724,-1.869 -0.0068,-0.685 2.9039,0.8392 3.182,-1.3364 0.0029,-0.012 2.0602,-0.1037 3.7583,-0.4102 1.8845,-0.3685 2.1577,1.0253 3.7528,0.9513 0,0 0,0.9132 1.2989,1.3836 0,0 1.1283,-0.306 1.9414,0.2322 0.491,0.3033 -3.0029,0.4346 -1.455,1.7314 0.2856,0.2389 -2.6831,0.2827 -1.5099,1.0871 1.056,0.701 3.6065,1.0515 3.7981,1.5641 -0.8384,-0.2345 0.4708,0.8534 -0.7986,0.7361 -2.648,-0.2514 -6.204,2.6241 -6.0787,3.4114 -0.243,-1.4889 -4.1218,-3.2121 -8.2031,-3.6663 -1.0103,-0.0472 -0.7731,-0.0568 -1.7972,0.0376 0.5844,-0.6554 0.8922,-1.1213 1.9027,-1.5292zm16.9385 7.9504l0 0c0,0 -1.2925,3.0616 -2.9834,5.9392 -1.7838,3.0342 -3.8967,4.8726 -3.8967,4.8726 0,0 -2.0284,1.6817 -4.7081,0.6689 0,0 -0.6985,-0.0796 -2.7222,-1.8609 -2.0067,-1.8093 -3.2266,-4.5146 -3.2266,-4.5146 0,0 -4.3677,-9.4235 -2.0452,-9.4998 0,0 3.545,-0.4671 6.0808,0.9034 0,0 3.5604,1.2529 4.3671,3.2556 0,0 1.9932,-1.9703 4.1721,-3.0939 2.1858,-1.159 2.7467,-1.7547 5.8972,-1.378 0.0006,0 0.0382,2.554 -0.9349,4.7074z"/>
   <path class="fil1" d="M74.6365 113.3705l3.9461 1.3091c0,0 -0.6144,2.8927 1.8012,3.0377 0,0 0.4562,-0.094 0.8131,0.4187 0.5149,0.7755 1.7324,3.7152 1.7376,3.849 0,0 0.7528,-4.5994 -2.3429,-6.9332 -2.686,-2.0134 -5.9551,-1.6813 -5.9551,-1.6813z"/>
   <path class="fil1" d="M93.997 113.5691l-3.3721 1.4913c0,0 1.3621,2.6946 -2.3424,3.2019 -0.3385,0.0473 -2.6581,3.6469 -2.6809,3.8195 0,0 0.5422,-4.9676 2.4874,-6.5259 2.707,-2.0994 5.9079,-1.9868 5.9079,-1.9868z"/>
   <path class="fil1" d="M85.2295 124.1902c-0.0221,0.8694 -0.8882,2.2053 -1.0816,2.2132 -0.1933,-0.0085 -0.7132,-1.473 -0.6922,-2.344 0.0341,-0.8726 0.6512,-1.1902 0.8446,-1.1845 0.1975,0.0074 0.9623,0.446 0.9292,1.3153z"/>
   <path class="fil1" d="M78.4796 142.3721c-2.9522,0 -5.2649,9.4275 -5.0896,8.2145 0,0 6.0501,-4.5118 5.0896,-8.2145z"/>
   <path class="fil1" d="M79.4139 150.5279l2.1198 -4.9236c0,0.0006 0.6776,4.5055 -2.1198,4.9236z"/>
   <path class="fil1" d="M80.2525 164.0216c3.2896,-0.2782 4.396,-1.8997 3.0699,-3.8074 -0.2053,-0.2941 -1.124,-0.6208 -1.2859,-0.986 0.2544,-0.2754 0.0696,-2.1034 -0.0985,-2.6132 -0.2029,-0.7459 -1.4319,-1.09 -1.6669,-1.6243 -0.2373,-0.531 -0.4949,-1.522 -0.8569,-2.2997 -2.8396,-5.9886 -5.2303,-0.6901 -3.0664,0.305 -0.4427,-0.2025 0.3845,-1.0844 0.751,-1.0554 0.2024,0.4203 -0.2448,0.4027 0.157,1.622 0.7789,2.1996 1.523,1.2084 0.2394,1.4714 -1.952,0.9017 -3.9581,-2.9995 -5.669,-2.9211 -3.8249,0.1775 -1.7233,3.5183 -1.6129,3.5896 0.033,-1.8782 1.0019,-2.1468 1.2478,-2.0824 -0.2289,1.102 0.6029,1.5401 1.7478,1.7995 1.1248,0.2555 1.3801,1.5702 1.3717,1.6 -0.4978,0.1012 -2.7674,1.0637 -3.5952,1.3233 -3.0769,0.9148 -2.2785,3.6423 -2.1718,3.5303 0.0082,-0.6344 1.056,-1.5481 2.0033,-1.6427 0.4899,0.1327 0.7447,0.9793 2.0055,0.5031 1.6375,-0.6321 1.3587,-1.1743 2.2286,-1.2734 1.0877,-0.1228 1.3553,0.9087 2.2048,0.5787 1.4541,-0.074 2.4151,-0.6838 2.7697,-0.4632 0.7424,0.4665 -0.0484,0.2065 0,1.2153 0.0579,1.1999 1.1407,1.1249 1.3045,1.4458 0,0.0017 0.3339,0.5945 -1.0776,1.7847z"/>
   <path class="fil1" d="M90.2067 142.3721c2.9521,0 5.2649,9.4275 5.0896,8.2145 0,0 -6.0501,-4.5118 -5.0896,-8.2145z"/>
   <path class="fil1" d="M88.4458 148.9952l-2.1205 -4.9237c0,0 -0.6765,4.5055 2.1205,4.9237z"/>
   <path class="fil1" d="M88.4337 164.0216c-3.2896,-0.2782 -4.396,-1.8997 -3.07,-3.8074 0.2042,-0.2941 1.1237,-0.6208 1.2854,-0.986 -0.2544,-0.2754 -0.0684,-2.1034 0.099,-2.6132 0.2024,-0.7459 1.4314,-1.09 1.667,-1.6243 0.2366,-0.531 0.4957,-1.522 0.8573,-2.2997 2.8398,-5.9886 5.2299,-0.6901 3.0667,0.305 0.4427,-0.2025 -0.3846,-1.0844 -0.751,-1.0554 -0.2019,0.4203 0.2447,0.4027 -0.1571,1.622 -0.7787,2.1996 -1.5224,1.2084 -0.2388,1.4714 1.952,0.9017 3.9587,-2.9995 5.6684,-2.9211 3.8249,0.1775 1.7234,3.5183 1.6135,3.5896 -0.0331,-1.8782 -1.0025,-2.1468 -1.2484,-2.0824 0.2289,1.102 -0.6029,1.5401 -1.7478,1.7995 -1.1248,0.2555 -1.3797,1.5702 -1.3711,1.6 0.4978,0.1012 2.7672,1.0637 3.5952,1.3233 3.0769,0.9148 2.278,3.6423 2.171,3.5303 -0.008,-0.6344 -1.0553,-1.5481 -2.0026,-1.6427 -0.4899,0.1327 -0.7452,0.9793 -2.0053,0.5031 -1.6376,-0.6321 -1.3589,-1.1743 -2.2288,-1.2734 -1.0871,-0.1228 -1.3552,0.9087 -2.2047,0.5787 -1.4535,-0.074 -2.4151,-0.6838 -2.7697,-0.4632 -0.7418,0.4665 0.0484,0.2065 0,1.2153 -0.0574,1.1999 -1.1407,1.1249 -1.304,1.4458 -0.002,0.0017 -0.3356,0.5945 1.0759,1.7847z"/>
   <path class="fil1" d="M157.3929 60.3966c-0.0889,-0.008 -21.1664,-1.3848 -39.5378,5.2703 -0.5029,0.1814 -7.3734,3.4676 -11.175,5.9363l0 -2.3503c0,-0.2709 -0.0575,-0.7141 -0.3637,-1.1749 0.2368,-0.3778 0.3637,-0.8113 0.3637,-1.2722l0 -3.3072c0,-1.2632 -0.6503,-3.3808 -5.0006,-3.3808l-3.7903 0c-1.5727,0 -2.7919,0.2759 -3.6401,0.8217 -0.2629,-0.1787 -0.5587,-0.3256 -0.8927,-0.441 -0.6572,-0.2589 -1.5595,-0.3806 -2.8328,-0.3806l-3.7909 0c-1.0662,0 -1.976,0.1552 -2.7775,0.4722 -0.2878,0.1122 -0.5473,0.2441 -0.7847,0.3921 -0.2752,-0.1992 -0.5894,-0.3608 -0.9358,-0.4792 -0.6759,-0.2639 -1.5834,-0.3856 -2.8574,-0.3856l-3.7692 0c-1.0633,0 -2.0077,0.1587 -2.8134,0.4756 -0.3403,0.1359 -0.6457,0.2998 -0.9137,0.4893 -0.2612,-0.1729 -0.5559,-0.3227 -0.8755,-0.4466 -0.8093,-0.342 -1.7452,-0.5178 -2.7828,-0.5178l-7.0048 0 3.4244 5.6099 0.952 0 0 8.5678c-0.3496,-0.268 -0.6738,-0.5349 -0.9109,-0.7933 -0.9833,-1.0724 -13.1746,-7.5727 -13.8551,-7.836 -17.2175,-6.651 -39.448,-5.2783 -39.5369,-5.2703l0.5036 1.0924c-0.4681,1.894 -1.7812,6.7915 3.3075,8.6154 -0.3824,2.2242 -0.8206,6.7598 3.6388,8.3761 0,0 0.1922,0.0654 0.2743,0.1065 -0.0103,2.2228 1.1453,6.4342 7.0328,8.714 0.5381,2.9357 2.5026,8.4362 9.7549,10.3342 0.4303,3.8291 1.8952,10.2889 11.2937,11.6679 0.1525,0.3501 0.3085,0.6959 0.4661,1.0247 0.2099,0.4792 0.7231,-0.3033 0.945,0.153 1.6732,3.395 3.243,8.6441 6.0188,11.6151 0.1285,0.1229 0.2606,0.2447 0.3714,0.3903 2.2451,2.3032 4.2695,5.9081 7.3162,7.1989 0.1126,0.0445 0.2122,0.0837 0.3219,0.1484 0.1867,-0.1331 0.3654,0.0507 0.5589,-0.0854 1.7626,-1.0331 6.2259,-3.6065 7.7684,-4.3404 0.6844,1.4172 0.9615,1.6715 1.2197,3.2969 -8.3458,3.4046 -17.0466,13.5153 -17.214,13.7634 -0.7374,1.0964 0.6092,4.2677 6.6647,5.2264 0.8125,1.3353 2.7884,2.8885 6.0685,2.6605 0.4841,0.4835 1.5281,0.6127 2.4219,1.0338l2.2275 0c-0.6178,-0.1712 -1.1436,-1.4304 -1.87,-1.6597l-0.3973 -0.9251c0.2555,-1.6112 2.4553,-3.9586 3.5168,-8.9648 0,0 -6.5736,8.9826 -6.2886,9.3102 -1.4547,-0.3687 -2.0027,-0.9218 -3.4018,-2.2969l0.3483 -0.7192c2.7968,-3.9746 8.1125,-10.5801 8.7743,-12.4058 0,0 -11.7301,11.4984 -11.3227,12.3433 -1.3573,-0.7146 -3.0195,-1.2267 -4.0048,-3.4097 0,0 10.2905,-10.7559 15.0287,-12.6625 0.0457,0.4387 0.837,3.2333 0.7442,3.5776 0.1099,-0.3164 1.3399,-1.8485 1.3786,-2.438 0.346,-1.0322 -0.2275,-4.5782 -0.9251,-6.977 -0.1957,-0.6736 -2.1454,-5.1046 -2.7127,-4.2387 -0.0586,0.0895 -0.8324,3.2585 -0.8324,3.2585 -2.3298,0.8766 -5.1899,3.3829 -6.8244,3.4699 -1.0777,0.058 -2.3367,-2.0703 -5.3539,-5.4756 1.6228,-4.345 4.0169,-9.5043 9.2841,-18.0646 -3.1582,5.1336 -10.1755,10.464 -11.7619,15.1919 -2.129,-2.4862 -3.1854,-4.2072 -5.3484,-8.1859 0.1591,-0.2873 0.3152,-0.5434 0.4692,-0.8205 0.6144,0.0285 1.2534,0.0416 1.9372,0.0319 0,0 -0.698,-0.0568 -1.8005,-0.3061 4.3244,-7.7417 7.4969,-12.0059 17.6281,-17.4803 0,0 -16.1518,3.1814 -19.8983,15.3661 -0.8881,-1.7183 -0.8711,-1.9276 -1.7154,-3.9604 -0.0688,-0.19 -0.149,-0.3556 -0.2128,-0.5503 -0.6537,-1.5998 -1.2915,-3.3135 -1.8929,-5.133 0,0 0.3456,1.9504 1.208,4.8491 0.0558,0.1844 0.1246,0.3993 0.182,0.5883 0.5041,1.655 1.163,3.5457 2.002,5.5517 -3.8717,-1.3455 -7.9288,-4.0333 -9.89,-10.7725 0.3227,0.0678 0.648,0.1337 0.9804,0.1855 0,0 -0.2766,-0.133 -0.7562,-0.4169 4.9311,-3.5947 7.8719,-5.5256 11.9433,-6.7084 1.9277,0.6697 4.9978,0.7373 7.2211,1.2103 0,0 -1.8895,-0.6742 -4.7906,-2.1257 3.9679,-1.0315 6.6659,-1.1699 6.6659,-1.1699 0.2942,-1.8382 -4.1551,-1.2476 -9.6797,-0.1381 -1.0944,0.2196 -4.441,-2.7878 -8.3088,-5.8568 5.4567,-0.7594 9.2135,-0.5729 9.2135,-0.5729 1.9397,-1.6875 -4.3773,-1.5054 -10.7495,-0.5628 -0.383,0.057 -3.1533,-2.7274 -5.3612,-5.2137 6.0233,-0.0889 9.9889,0.1341 9.9889,0.1341 1.5135,-1.3284 -4.3553,-1.696 -10.9858,-1.2625 -1.5987,-1.8383 -1.6289,-2.3236 -3.6288,-5.1427 0.4587,0.6463 5.7464,0.1319 5.7464,0.1319 1.4019,-1.2288 -1.9987,-1.6846 -6.7244,-1.6419 -0.6512,-1.0588 -1.5299,-2.4141 -2.1176,-3.5474 0,0 -0.0853,1.5492 0.7199,3.561 -4.315,0.0689 -8.6955,0.3277 -11.345,0.9314 -0.0012,-0.297 -0.2542,-1.1669 -0.227,-1.4747 0,0 -0.3766,0.8288 -0.5188,1.4069l-0.0484 0.0098c-1.3872,-1.3427 -3.3426,-3.734 -3.5422,-7.1977 24.0351,0.3442 40.4401,10.117 51.4531,14.8711 6.1191,7.3287 8.0484,8.7835 18.9824,22.8267 0,0 0.4033,-7.7603 -14.783,-23.7734l5.6127 0 0 -2.5922 1.5982 2.59 4.519 0c1.0458,0 1.9647,-0.1679 2.8029,-0.5139 1.4405,-0.5701 1.9701,-1.4655 2.1482,-2.1938l1.6539 2.7076 4.5395 0c1.0424,0 1.9864,-0.1758 2.7812,-0.5128 0.3516,-0.1354 0.6638,-0.2993 0.9393,-0.4876 0.2582,0.1701 0.5525,0.3199 0.8755,0.4495 0.8306,0.3658 1.7632,0.5509 2.7696,0.5509l3.1487 0c-15.1882,16.0153 -14.7846,23.7756 -14.7846,23.7756 10.9338,-14.0432 12.8632,-15.498 18.9822,-22.8267 11.0131,-4.7541 27.4186,-14.5275 51.4542,-14.8711 -0.2009,3.4637 -2.157,5.855 -3.5437,7.1977l-0.048 -0.0098c-0.1426,-0.5775 -0.5185,-1.4069 -0.5185,-1.4069 0.0277,0.3078 -0.2257,1.1777 -0.2273,1.4747 -2.6494,-0.6037 -7.0293,-0.8619 -11.3454,-0.9314 0.8035,-2.0117 0.7204,-3.561 0.7204,-3.561 -0.5883,1.1333 -1.4663,2.4885 -2.1177,3.5474 -4.7257,-0.0427 -8.1267,0.4131 -6.7243,1.6419 0,0 5.2877,0.5144 5.7469,-0.1319 -2.001,2.8191 -2.0306,3.3044 -3.6298,5.1427 -6.6301,-0.4335 -12.4993,-0.066 -10.9852,1.2625 0,0 3.9656,-0.223 9.9889,-0.1341 -2.2082,2.4862 -4.979,5.2707 -5.3623,5.2137 -6.3705,-0.9426 -12.6887,-1.1247 -10.748,0.5628 0,0 3.7562,-0.1865 9.2147,0.5729 -3.8682,3.0696 -7.2143,6.077 -8.31,5.8568 -5.5245,-1.1094 -9.9731,-1.7001 -9.6795,0.1381 0,0 2.6979,0.1384 6.6656,1.1699 -2.901,1.4508 -4.79,2.1257 -4.79,2.1257 2.2231,-0.473 5.2929,-0.5406 7.2206,-1.2103 4.0714,1.1828 7.0122,3.1138 11.9433,6.7084 -0.4796,0.2839 -0.7562,0.4169 -0.7562,0.4169 0.3312,-0.0518 0.6566,-0.1177 0.9804,-0.1855 -1.9612,6.7398 -6.0193,9.427 -9.89,10.7725 0.8392,-2.006 1.4976,-3.8967 2.0016,-5.5517 0.0574,-0.189 0.1245,-0.4039 0.1814,-0.5883 0.862,-2.8988 1.2079,-4.8491 1.2079,-4.8491 -0.6014,1.8206 -1.2387,3.5332 -1.8928,5.1336 -0.0646,0.194 -0.143,0.3596 -0.214,0.5497 -0.8444,2.0328 -0.8267,2.2421 -1.7156,3.9604 -3.7457,-12.1846 -19.8983,-15.3661 -19.8983,-15.3661 10.1313,5.4744 13.3037,9.7386 17.6289,17.4803 -1.1025,0.2493 -1.8007,0.3061 -1.8007,0.3061 0.6838,0.0097 1.3227,-0.004 1.9374,-0.0319 0.1546,0.2766 0.3107,0.5332 0.4693,0.8205 -2.1631,3.9787 -3.2197,5.7003 -5.3487,8.1859 -1.5862,-4.7289 -8.6034,-10.0594 -11.7618,-15.1919 5.2674,8.5592 7.6614,13.719 9.2834,18.0646 -3.016,3.4057 -4.2755,5.5335 -5.3531,5.4756 -1.6345,-0.0871 -4.4947,-2.5938 -6.8246,-3.4699 0,0 -0.7739,-3.1691 -0.8322,-3.2585 -0.5673,-0.8659 -2.517,3.5645 -2.7127,4.2387 -0.6976,2.3988 -1.3324,5.4909 -0.9866,6.523 0.0392,0.5894 1.2694,2.1221 1.3779,2.4379 -0.0922,-0.3436 0.7608,-2.6848 0.8051,-3.1235 4.7382,1.9066 15.0289,12.6625 15.0289,12.6625 -0.9856,2.1831 -2.6469,2.6946 -4.0045,3.4097 0.4068,-0.8449 -11.3226,-12.3433 -11.3226,-12.3433 0.6618,1.8257 5.9774,8.4312 8.7744,12.4058l0.3483 0.7192c-1.3992,1.3741 -1.947,1.927 -3.4018,2.2969 0.285,-0.3277 -6.2885,-9.3102 -6.2885,-9.3102 1.0615,5.0062 3.2616,7.3536 3.5165,8.9648l-0.397 0.9251c-0.7272,0.2293 -1.2522,1.4885 -1.8701,1.6597l2.2274 0c0.8938,-0.4222 1.9379,-0.5503 2.4221,-1.0338 3.2806,0.228 5.256,-1.3251 6.0684,-2.6605 6.0559,-0.9575 7.4019,-4.1299 6.6647,-5.2264 -0.1667,-0.2481 -8.8682,-10.3588 -17.2142,-13.7634 0.2579,-1.6254 0.5356,-1.8797 1.2199,-3.2969 1.5424,0.7339 6.0051,3.3073 7.7684,4.3404 0.194,0.1378 0.3714,-0.0472 0.5587,0.0854 0.11,-0.066 0.209,-0.104 0.3216,-0.1484 3.0467,-1.2909 5.0709,-4.8957 7.3165,-7.1983 0.1105,-0.1462 0.2424,-0.2691 0.3709,-0.3909 2.7754,-2.9709 4.3463,-8.2189 6.0195,-11.6145 0.2202,-0.4569 0.7334,0.3256 0.9445,-0.1536 0.157,-0.3288 0.3136,-0.6741 0.466,-1.0247 9.3989,-1.379 10.8641,-7.8378 11.2941,-11.6679 7.2525,-1.8985 9.2169,-7.3984 9.7551,-10.3342 5.8868,-2.2798 7.0433,-6.4912 7.033,-8.714 0.0816,-0.0415 0.2738,-0.1065 0.2738,-0.1065 4.4599,-1.6163 4.02,-6.152 3.6398,-8.3761 5.0875,-1.8245 3.7738,-6.7214 3.3062,-8.6154l0.5084 -1.0918zm-110.8637 28.9322l0 0c-4.7781,1.6243 -5.6952,2.3007 -9.2964,6.0027l-0.4827 -0.0859c-0.1893,-0.7249 -0.4853,-0.9024 -0.5955,-1.7353 0,0 -0.3442,0.7436 -0.2453,1.9674 -2.3371,-1.4707 -5.9489,-3.5006 -8.2706,-8.1943 0.2576,0.0916 0.7226,-0.0298 0.9814,0.0574 0,0 -0.2031,-0.7483 -0.6806,-0.6167 4.5591,-1.2529 7.6866,-2.7509 11.1804,-3.4558 3.139,2.6445 3.9296,4.2119 7.4093,6.0605zm-8.8248 -7.2564l0 0c-4.0464,0.9598 -7.7399,2.1103 -10.6786,3.4158 -0.1644,-0.4015 0.1445,-0.7584 0.0074,-1.1948 0,0 -0.7818,0.6766 -0.6851,1.4088 -1.8848,-1.626 -4.2749,-3.4017 -5.4005,-6.5913 0.1123,0.0405 1.4509,-0.0859 1.5669,-0.0615 0,0 -0.5479,-0.364 -0.7937,-0.5785 -0.0244,-0.078 -0.3055,-0.2146 -0.3874,-0.2009 5.8249,-0.9206 7.5199,-1.7922 11.1598,-2.0044 1.5981,2.3116 2.5153,3.5048 5.2111,5.8067zm-9.4628 -12.3706l0 0c0.721,1.7279 1.8014,3.102 3.3835,5.4494 -4.2836,0.3782 -8.6149,1.0798 -11.2366,2.055 -0.0466,-0.2003 -0.0791,-0.4164 -0.1008,-0.6133 0,0 -0.0586,0.2629 -0.1132,0.681 -0.0803,0.0314 -0.1626,0.0786 -0.2491,0.1088 -1.3222,-1.3023 -2.9263,-3.0695 -3.2551,-6.3307 0.2305,0.0814 0.9844,-0.0404 1.25,0.016 0,0 -0.8846,-0.4916 -1.3484,-0.9127 -0.0039,-0.0358 0.0319,-0.1205 -0.0039,-0.1222 6.0412,0.302 7.9839,-0.2914 11.6736,-0.3312zm69.6476 5.45l0 0c-0.8449,0 -1.6932,-0.1497 -2.4659,-0.4922 -0.5432,-0.2139 -0.9251,-0.4694 -1.1935,-0.738 -0.267,0.2851 -0.6549,0.5537 -1.2137,0.7698 -0.7389,0.3136 -1.5731,0.4604 -2.4936,0.4604l-4.0958 0 -2.4602 -4.0259c0,0 3.8984,0 4.7278,0 0,-0.4068 0,-0.6748 0,-1.1026 -0.6729,0 -1.9617,0 -1.9617,0 -0.5319,0 -1.085,-0.0665 -1.597,-0.1877 -0.5684,-0.144 -1.0888,-0.346 -1.5173,-0.6389l0 3.3637c0,0.6593 -0.3049,1.5696 -1.7285,2.1311 -0.7643,0.3136 -1.5953,0.4604 -2.5126,0.4604l-4.077 0 -2.4862 -4.0259c0,0 3.8995,0 4.7291,0 0,-0.4068 0,-0.6748 0,-1.1026 -0.6741,0 -1.9351,0 -1.9351,0 -0.5598,0 -1.1088,-0.0665 -1.5929,-0.1877 -0.594,-0.144 -1.117,-0.3443 -1.5463,-0.6356l0 5.9525 -6.0828 0c0,0 0,-0.0969 0,-0.2646 0,-1.5083 0,-9.057 0,-9.9492 -0.4459,0 -1.2993,0 -1.2993,0l-2.4591 -4.0293 5.5956 0c0.9165,0 1.745,0.1466 2.4738,0.4546 0.5477,0.2128 0.9341,0.4722 1.2016,0.7487 0.2633,-0.2925 0.6434,-0.5657 1.1918,-0.7857 0.7283,-0.2874 1.5845,-0.4176 2.5176,-0.4176l3.7692 0c1.1187,0 1.9717,0.0984 2.5701,0.3305 0.5508,0.1913 0.9216,0.4666 1.1759,0.7767 0.2618,-0.2555 0.6214,-0.4944 1.1196,-0.6901 0.7248,-0.2874 1.5542,-0.4175 2.4891,-0.4175l3.7904 0c1.123,0 1.9801,0.0983 2.5579,0.331 0.5252,0.1793 0.895,0.4352 1.1523,0.7255 0.5791,-0.607 1.6753,-1.0564 3.6565,-1.0564l3.7903 0c3.4728,0 4.2103,1.395 4.2103,2.5892l0 3.3073c0,0.5068 -0.2253,0.9557 -0.6327,1.2807 0.5006,0.3972 0.6327,0.8392 0.6327,1.1664l0 3.3073c0,1.1617 -0.7051,2.5095 -3.9344,2.5835 -0.0927,0.0024 -0.1796,0.0074 -0.2759,0.0074l-3.7903 0 0 0.0012zm34.8861 20.3249l0 0c0.1,-1.2233 -0.2459,-1.9674 -0.2459,-1.9674 -0.1086,0.8328 -0.4056,1.0109 -0.5956,1.7347l-0.4824 0.0871c-3.6016,-3.702 -4.5186,-4.3791 -9.2965,-6.0034 3.4801,-1.8474 4.2704,-3.4153 7.4093,-6.0605 3.4933,0.7044 6.6208,2.203 11.1791,3.4553 -0.4768,-0.1308 -0.6803,0.6166 -0.6803,0.6166 0.2594,-0.087 0.7252,0.0348 0.9831,-0.0568 -2.3219,4.6943 -5.9342,6.7237 -8.2708,8.1944zm9.5616 -9.7738l0 0c0.0967,-0.7322 -0.6862,-1.4094 -0.6862,-1.4094 -0.137,0.437 0.173,0.7939 0.0086,1.1954 -2.9391,-1.3057 -6.6317,-2.4561 -10.6798,-3.4159 2.697,-2.3018 3.6153,-3.495 5.2117,-5.8066 3.6394,0.2122 5.335,1.0837 11.1589,2.0044 -0.0815,-0.0131 -0.3611,0.1227 -0.3859,0.2008 -0.2476,0.2144 -0.7938,0.5786 -0.7938,0.5786 0.115,-0.025 1.4551,0.1014 1.5671,0.0609 -1.1258,3.1902 -3.5147,4.9658 -5.4007,6.5919zm9.776 -15.5477l0 0c-0.4632,0.4215 -1.3487,0.9133 -1.3487,0.9133 0.2652,-0.0564 1.0197,0.0654 1.2497,-0.0161 -0.3291,3.2619 -1.9328,5.0285 -3.2553,6.3307 -0.0859,-0.0307 -0.1688,-0.0779 -0.249,-0.1087 -0.054,-0.4181 -0.1121,-0.6816 -0.1121,-0.6816 -0.0234,0.1975 -0.0555,0.413 -0.1021,0.6139 -2.6217,-0.9752 -6.9519,-1.6768 -11.236,-2.055 1.5821,-2.348 2.6621,-3.7215 3.3834,-5.4494 3.6891,0.0398 5.6316,0.6331 11.673,0.3317 -0.0334,0.0012 0,0.086 -0.0029,0.1211z"/>
   <path class="fil1" d="M82.4953 63.4986c0,-0.0126 0.0006,-0.0251 0.0006,-0.0382 -0.0115,-0.586 -0.2879,-0.9468 -0.9218,-1.1834 -0.4875,-0.1844 -1.2135,-0.2651 -2.1956,-0.2651l-3.7692 0c-0.8096,0 -1.5101,0.133 -2.1205,0.3465 -0.9189,0.3594 -1.0195,0.8283 -1.0195,1.1402l0 3.9752c0,0.0944 0,0.3907 0.5672,0.7659 0.3351,0.2394 0.7413,0.3981 1.2278,0.5274 0.4382,0.1001 0.8699,0.153 1.345,0.153l3.061 0 0 3.3083c0,0 -2.6809,0 -3.87,0 0.4722,0.7351 0.9291,1.5216 1.1172,1.8235 0.5191,0 3.4615,0 3.4615,0 0.7556,0 1.4496,-0.1473 2.0744,-0.4142 1.0447,-0.3954 1.0447,-0.8789 1.0447,-1.0769l0 -5.0398c0,-0.0159 -0.0029,-0.0302 -0.0029,-0.0466l0 -3.9758zm-3.825 3.6406l0 0 -2.3379 0 0 -3.3091 2.3379 0 0 3.3091z"/>
   <path class="fil1" d="M70.2891 62.3936c-0.6151,-0.2367 -1.3103,-0.3806 -2.0642,-0.3806 0,0 -2.3843,0 -3.6093,0 0.4465,0.7373 0.9303,1.5202 1.1004,1.82 0.3912,0 1.8039,0 1.8039,0 0,0 0,9.2227 0,10.2188 0.7533,0 3.0631,0 3.8211,0 0,-1.0031 0,-10.5528 0,-10.5528 0,-0.1963 0,-0.6804 -1.052,-1.1054z"/>
   <path class="fil1" d="M92.6953 62.2776c-0.4563,-0.1844 -1.1812,-0.2652 -2.1718,-0.2652l-3.7903 0c-0.7846,0 -1.4873,0.1325 -2.0921,0.3466 -0.9238,0.3594 -1.0217,0.8283 -1.0217,1.1396l0 3.9758c0,0.0944 0,0.3907 0.5671,0.7653 0.3301,0.24 0.743,0.3987 1.2199,0.528 0.4438,0.1 0.8825,0.1528 1.3274,0.1528l3.091 0 0 3.3085c0,0 -2.712,0 -3.8756,0 0.4491,0.7351 0.9326,1.5215 1.1045,1.8229 0.5363,0 3.4692,0 3.4692,0 0.7586,0 1.4561,-0.1467 2.0851,-0.4136 1.0352,-0.3954 1.0352,-0.879 1.0352,-1.0769l0 -9.0622c0.0006,-0.6099 -0.2925,-0.9798 -0.9479,-1.2215zm-2.8699 4.8616l0 0 -2.3498 0 0 -3.3091 2.3498 0 0 3.3091z"/>
   <path class="fil1" d="M103.6945 73.8027c0.7273,-0.2378 0.9679,-0.6002 1.0459,-0.892 0.0376,-0.1417 0.0393,-0.2663 0.0393,-0.3505l0 -3.3074c0,-0.0456 0,-0.1695 -0.3119,-0.38 -0.2064,-0.1747 -0.4545,-0.2624 -0.7305,-0.2965l0.0696 -1.0963c0.2753,0 0.5217,-0.0955 0.7259,-0.2429 0.1814,-0.1087 0.2469,-0.2527 0.2469,-0.4313l0 -3.3072c0,-0.3624 0,-1.4856 -3.0996,-1.4856l-3.7903 0c-3.1162,0 -3.1162,1.1235 -3.1162,1.4856l0 3.3072c0,0.1257 0.025,0.2875 0.2651,0.4256 0.1746,0.1217 0.4392,0.2224 0.7549,0.2486l0.0171 1.0963c-0.2928,0.0376 -0.537,0.1178 -0.7447,0.2886 -0.2929,0.2013 -0.2929,0.334 -0.2929,0.3879l0 3.3074c0,0.1728 0,0.636 1.0604,1.0661 0.6554,0.2731 1.3431,0.4255 2.0556,0.4255l3.7909 0c0.9183,-0.0005 1.5587,-0.1008 2.0144,-0.2492zm-2.7336 -1.5749l0 0 -2.3726 0 0 -3.3083 2.3726 0 0 3.3083zm0 -5.0885l0 0 -2.3726 0 0 -3.3091 2.3726 0 0 3.3091z"/>
   <path class="fil1" d="M88.1311 152.8788c-4.7358,-6.1145 -2.9016,-14.1992 -2.9016,-14.1992 -0.7841,1.6357 -2.2155,0 -2.2155,0 0.6072,1.4082 1.39,10.2944 -2.736,13.6121 0,0 4.2243,0.6809 4.2243,-4.2074 0.0008,3.9797 3.6288,4.7945 3.6288,4.7945z"/>
   <path class="fil1" d="M38.9811 23.422l-23.3479 0 0 31.6185 23.3479 0c1.6391,0 3.2082,-0.1434 4.7217,-0.4688 1.6749,-0.3056 3.1247,-0.7921 4.3621,-1.4378 1.2164,-0.673 1.9775,-1.3945 2.2876,-2.1643l0 -23.736c-0.7891,-2.543 -4.5715,-3.8117 -11.3715,-3.8117zm1.918 23.6634l0 0c-0.8695,0.8643 -2.3931,0.9109 -2.7134,0.9109 -0.0393,0 -0.0603,0 -0.0603,0l-9.7138 0 0 -17.586 9.555 0c0,0 0.265,-0.016 0.6399,-0.016 0.7357,0 1.8925,0.0641 2.2925,0.4529 0.5825,0.6045 0.4488,2.9465 0.4488,2.9465l0 10.8532c0,0 0.0688,1.9214 -0.4488,2.4385z"/>
   <polygon class="fil1" points="69.6456,33.8098 85.6802,33.8098 85.6802,32.3095 69.6456,32.3095 "/>
   <path class="fil1" d="M52.25 26.9439l0 28.0961 15.497 0 0 -12.3405 11.2412 0 4.5141 -6.9918 -15.7553 0 0 -5.2973 17.9332 0 0 -2.1075c0,-0.2491 0.0199,-0.5098 0.0625,-0.7778l0 -4.1031 -33.4926 0 0 3.5219z"/>
   <path class="fil1" d="M38.6066 32.2921c-0.302,0 -0.5188,0.0131 -0.5188,0.0131l-0.0609 0.0044 -7.7155 0 0 13.7881 7.8282 0 0.0455 0.0006c0.434,0 0.9189,-0.1018 1.1988,-0.24 0.0489,-0.2874 0.0786,-0.7647 0.0665,-1.1431l-0.0004 -0.0336 0 -10.9417 0.0034 -0.0553c0.0228,-0.3976 0.0091,-0.9512 -0.0335,-1.3532 -0.1998,-0.0218 -0.4695,-0.0393 -0.8133,-0.0393zm-0.1012 1.34l0 0 -0.0052 11.0148 0.0023 0.0997c0.0035,0.1211 0.0029,0.2519 -0.0029,0.3805 -0.095,0.0125 -0.1956,0.0211 -0.294,0.0227l-0.1089 -0.0022 -6.8375 0.0022 0 -11.8906 6.7073 0 0.1763 -0.0058c0.0108,0 0.1587,-0.0087 0.3715,-0.0116 0,0.1398 -0.0029,0.2738 -0.0091,0.3903z"/>
   <path class="fil1" d="M142.378 32.3096l-5.9052 0 -0.0335 -0.0014 -0.0164 0c-0.0661,0 -0.1337,0.0029 -0.197,0.0087 0.0006,0.0379 0.0045,0.0743 0.0063,0.1064l0.0348 0.1354 0 12.9269 -0.0023 0.0632c-0.0104,0.166 -0.0047,0.372 0.0126,0.5473 0.1102,0.0114 0.248,0.0194 0.4135,0.0194 0.1797,0 0.3078,-0.0091 0.3078,-0.0091l0.0814 -0.0086 4.9521 0 0.0582 -0.0062 0.1046 0.0131c0.0091,0.0017 0.0211,0.0017 0.0325,0.0017 0.1507,0 0.2817,-0.0223 0.3737,-0.0467 0.0279,-0.1768 0.0473,-0.4135 0.0438,-0.5985l0 -12.5573 -0.0045 -0.083 0.0158 -0.1296c0.0115,-0.1093 0.0144,-0.2432 0.0076,-0.367 -0.1008,-0.0088 -0.1992,-0.0146 -0.2857,-0.0146zm-0.6805 12.8402l0 0 -4.4809 0 0 -11.892 4.4809 0 0 11.892z"/>
   <path class="fil1" d="M153.7603 22.0194c-2.2866,-0.9715 -5.4662,-1.4449 -9.712,-1.4449l-11.837 0c-1.5616,0 -2.9614,0.0627 -4.234,0.1879l0.1216 -0.1879 -28.969 0c-2.9905,0 -5.7026,0.3758 -8.0456,1.1099 -0.9279,0.2738 -1.7592,0.6029 -2.4948,0.9831l0 -2.093 -39.1856 0 0 1.7508c-0.2134,-0.1078 -0.4346,-0.2112 -0.6626,-0.3073 -2.2952,-0.9715 -5.4882,-1.4435 -9.7609,-1.4435l-26.1943 0 0 37.3125 26.1949 0c1.9008,0 3.6315,-0.1707 5.2643,-0.5196 1.9124,-0.3539 3.6413,-0.9291 5.1587,-1.7228l0 2.2417 21.1901 0 0 -12.3399 9.9445 0 4.196 -6.4939 0 11.1064c0,2.112 1.1132,4.9629 6.4215,6.5549 2.4558,0.7892 5.0649,1.1726 7.9734,1.1726l16.2452 0 3.1962 -4.9658c0.8172,1.3944 2.4541,2.8276 5.6276,3.7909 2.4077,0.7801 5.1034,1.1749 8.0124,1.1749l11.8375 0c3.0587,0 5.7692,-0.3489 8.0531,-1.0401 5.4532,-1.667 6.2717,-4.9049 6.2717,-6.6875l0 -21.8561c0,-1.6167 -0.6001,-4.5822 -4.6128,-6.2834zm3.6602 28.1395l0 0c0,1.8571 -0.97,4.366 -5.5973,5.7798 -2.1936,0.6635 -4.808,1.0004 -7.7759,1.0004l-11.8371 0c-2.8099,0 -5.4084,-0.3801 -7.7228,-1.1288 -4.1903,-1.2723 -5.4387,-3.3307 -5.6661,-5.0285l-3.4024 5.2845 -0.5629 0.8721 -15.7261 0c-2.8095,0 -5.3221,-0.3686 -7.6847,-1.1282 -4.764,-1.4293 -5.7651,-3.8627 -5.7651,-5.6514l0 -14.3231 -0.5827 0.9016 -4.515 6.9908 -0.56 0.8691 -10.377 0 0 12.3417 -19.2931 0 0 -3.0455c-0.3994,0.3152 -0.8544,0.6154 -1.3693,0.8999l-0.0194 0.0114 -0.0194 0.0109c-1.4138,0.7373 -3.0525,1.2818 -4.8707,1.618 -1.5925,0.3403 -3.2579,0.5047 -5.0926,0.5047l-25.2458 0 0 -35.4143 25.2458 0c4.1419,0 7.2148,0.4472 9.3916,1.3676 0.8052,0.3409 1.4549,0.7341 1.9799,1.158l0 -2.5256 37.287 0 0 2.8868c0.8522,-0.6933 2.0454,-1.3254 3.7146,-1.8147 2.2644,-0.7123 4.8844,-1.072 7.7769,-1.072l27.2276 0 -0.2982 0.4632c1.7171,-0.3074 3.7505,-0.4632 6.1527,-0.4632l11.8375 0c4.1137,0 7.1724,0.4472 9.3426,1.3691 3.331,1.4143 4.0302,3.7213 4.0302,5.4095l0 21.8561 -0.0029 0z"/>
   <path class="fil1" d="M144.0483 23.422l-11.837 0c-3.2236,0 -5.7645,0.2899 -7.638,0.8623 -2.5886,0.7909 -3.8949,2.1264 -3.8949,4.017l0 21.8571c0,1.6556 1.4583,2.9556 4.3785,3.8386 2.1608,0.7028 4.5573,1.0431 7.1545,1.0431l11.837 0c2.7892,0 5.2027,-0.3056 7.2243,-0.919 2.8271,-0.8631 4.2515,-2.1773 4.2515,-3.9626l0 -21.8556c0,-3.2597 -3.838,-4.8808 -11.4758,-4.8808zm0.041 23.9149l0 0c-0.5763,0.5957 -1.4684,0.6651 -1.8621,0.6651 -0.123,0 -0.1969,-0.0057 -0.1969,-0.0057l-4.8673 0c0,0 -0.1951,0.017 -0.4722,0.017 -0.5634,0 -1.4748,-0.0687 -1.8661,-0.4749 -0.5576,-0.5566 -0.4558,-2.1063 -0.4558,-2.1063l0 -12.652c0,0 -0.2453,-1.2337 0.4558,-1.9329 0.4164,-0.4077 1.3371,-0.4369 1.5976,-0.4369 0.046,0 0.07,0 0.07,0l5.8681 0c0,0 0.005,0 0.0114,0 0.1161,0 1.2762,0.0117 1.717,0.4369 0.6252,0.6438 0.4541,2.0566 0.4541,2.0566l0 12.5283c0.001,0 0.0234,1.4491 -0.4535,1.9048z"/>
   <path class="fil1" d="M99.1301 23.422c-2.6843,0 -5.1029,0.322 -7.224,0.989 -2.559,0.7487 -3.9758,1.8527 -4.2665,3.3092l0 4.5894 -0.0598 0 0 17.8493c0,1.6556 1.4748,2.9557 4.4304,3.8387 2.1785,0.7027 4.5403,1.0425 7.1199,1.0425l14.6902 0 4.5366 -7.0437 -15.2808 0 0 -17.586 15.2808 0 0.4217 -0.6525 0 -1.4565c0,-1.4915 0.5514,-3.465 2.9846,-4.8793l-22.6332 0z"/>
   <path class="fil1" d="M104.9766 32.3096l0 13.7881 13.802 0 0 -13.7881 -13.802 0zm12.8518 12.8402l0 0 -11.9057 0 0 -11.892 11.9057 0 0 11.892z"/>
  </g>
 </g>
</svg>
