<?xml version="1.0" encoding="UTF-8"?>
<!DOCTYPE svg PUBLIC "-//W3C//DTD SVG 1.1//EN" "http://www.w3.org/Graphics/SVG/1.1/DTD/svg11.dtd">
<!-- Creator: CorelDRAW 2019 (64-Bit) -->
<svg xmlns="http://www.w3.org/2000/svg" xml:space="preserve" width="188.894mm" height="188.903mm" version="1.1" style="shape-rendering:geometricPrecision; text-rendering:geometricPrecision; image-rendering:optimizeQuality; fill-rule:evenodd; clip-rule:evenodd"
viewBox="0 0 188.8692 188.8784"
 xmlns:xlink="http://www.w3.org/1999/xlink"
 xmlns:xodm="http://www.corel.com/coreldraw/odm/2003">
 <defs>
  <style type="text/css">
   <![CDATA[
    .fil0 {fill:#FFD900}
    .fil1 {fill:black}
   ]]>
  </style>
 </defs>
 <g id="Layer_x0020_1">
  <metadata id="CorelCorpID_0Corel-Layer"/>
  <g id="_726127824">
   <path class="fil0" d="M-0 94.4347c0,-52.1521 42.2819,-94.4347 94.4346,-94.4347 52.1521,0 94.4347,42.2826 94.4347,94.4347 0,52.1526 -42.2826,94.4438 -94.4347,94.4438 -52.1527,0 -94.4346,-42.2819 -94.4346,-94.4438z"/>
   <path class="fil1" d="M4.5406 94.4347c0,-49.6495 40.2447,-89.8936 89.8939,-89.8936 49.6496,0 89.8937,40.2441 89.8937,89.8936 0,49.6491 -40.2441,89.9031 -89.8937,89.9031 -49.6492,0 -89.8939,-40.254 -89.8939,-89.9031z"/>
   <path class="fil0" d="M9.5281 94.4347c0,-46.8898 38.0174,-84.9068 84.9065,-84.9068 46.8884,0 84.9069,38.017 84.9069,84.9068 0,46.8983 -38.0185,84.9158 -84.9069,84.9158 -46.8891,0 -84.9065,-38.0175 -84.9065,-84.9158z"/>
   <path class="fil1" d="M108.3222 166.7856c-6.2729,0 -10.8324,-4.75 -10.8324,-10.1658 0,-0.79 -0.0569,-1.1425 -0.0191,-1.7133l5.9112 0c1.7133,0 1.4373,2.3225 1.4373,2.3225 0,1.7893 1.9319,2.5983 3.3887,2.6367 1.7704,0.0477 3.2171,-1.5801 3.2171,-3.3699l-0.0286 -3.4646c-1.1325,0.6185 -3.379,0.5995 -3.379,0.5995 -5.3589,-0.1424 -10.5942,-4.7686 -10.5942,-10.4896l0 -2.5507c0,-5.7211 4.8735,-10.2135 10.5942,-10.2135l0.2382 0c5.7205,0 10.1562,4.6257 10.1562,10.3467l0 15.62c0.0097,5.8922 -4.1595,10.3846 -10.0896,10.4419z"/>
   <path class="fil0" d="M108.0938 137.773l0.1045 0c1.7898,0 3.2365,1.4463 3.2365,3.2362l0 2.0462c0,1.7898 -1.4467,3.2367 -3.2365,3.2367l-0.1045 0c-1.7898,0 -3.2366,-1.4469 -3.2366,-3.2367l0 -2.0462c0,-1.7899 1.4468,-3.2362 3.2366,-3.2362z"/>
   <path class="fil1" d="M43.5481 116.5272l0 -16.5626 9.6519 0c7.9857,0 10.8416,14.5066 0.4564,16.5626l-10.1084 0zm0 -29.1744l0 0 0 -15.8106 10.9083 0c7.0721,0 8.5287,13.6305 0.4283,15.8106l-11.3366 0zm-13.0121 -28.9271l0 0 0 70.4947 22.2069 0.0189c17.9139,0 27.0141,-21.7402 14.5537,-35.1424 0,0 -0.0378,-0.0381 -0.0378,-0.1046 0,-0.0666 0.0855,-0.1333 0.0855,-0.1333 10.3566,-11.6988 6.0158,-32.2401 -13.2405,-35.1432l-23.5678 0 0 0.0099z"/>
   <path class="fil1" d="M135.288 116.5272l0 -16.5626 9.5856 0c7.9854,0 10.8422,14.5066 0.4564,16.5626l-10.0421 0zm0 -29.1744l0 0 0 -15.8106 10.8422 0c7.0726,0 8.5284,13.6305 0.429,15.8106l-11.2712 0zm-13.078 -28.9271l0 0 0 70.4947 22.2071 0.0189c17.9135,0 27.0136,-21.7402 14.5529,-35.1424 0,0 -0.0381,-0.0381 -0.0381,-0.1046 0,-0.0666 0.0867,-0.1333 0.0867,-0.1333 10.3567,-11.6988 6.0151,-32.2401 -13.2399,-35.1432l-23.5687 0 0 0.0099z"/>
   <path class="fil1" d="M80.5183 130.4338l0.2378 0c5.7211,0 10.3466,4.6354 10.3466,10.3565l0 15.6297c0,5.7206 -4.6353,10.3558 -10.3466,10.3558l-0.2378 0c-5.7206,0 -10.3563,-4.6353 -10.3563,-10.3558l0 -15.6297c0.0097,-5.7212 4.6449,-10.3565 10.3563,-10.3565z"/>
   <path class="fil0" d="M80.585 137.8586l0.1045 0c1.7896,0 3.2366,1.4469 3.2366,3.2361l0 15.5154c0,1.7899 -1.447,3.2367 -3.2366,3.2367l-0.1045 0c-1.7899,0 -3.2368,-1.4468 -3.2368,-3.2367l0 -15.5154c0,-1.7892 1.4569,-3.2361 3.2368,-3.2361z"/>
   <polygon class="fil1" points="66.2878,23.2164 89.3895,94.682 99.3839,94.682 122.21,23.2164 108.2268,23.2164 94.368,70.914 80.5946,23.2164 "/>
  </g>
 </g>
</svg>
