<svg xmlns="http://www.w3.org/2000/svg" enable-background="new 0 0 273.488 385.014" version="1.1" viewBox="1.28 1.44 63.56 89.48" width="266.4816741597217" height="375.26032630695187">
 <g transform="matrix(.23241 0 0 .23241 1.2816 1.4435)" fill="#fff" stroke-width="4.3027">
  <path d="m176.78 5.843c-2.433-4.481-6.331-3.409-6.331-3.409s-6.573 3.896-9.981 6.817c-3.409 2.922-9.009 4.626-11.2 17.53s-4.87 15.826-4.87 15.826-0.729-0.487-2.435-2.435c-1.704-1.948-2.191-3.652-2.191-3.652s-0.487-1.948-2.191-14.608c-1.705-12.66-9.253-21.912-9.253-21.912s-2.435 0.73-8.035 9.496c-5.6 8.765-7.548 29.46-7.548 29.46s-4.87-8.035-8.765-15.095-13.877-14.365-18.991-16.8c-5.113-2.435-11.931-3.652-11.931-3.652s-2.699 1.99-5.377 14.164 2.699 22.601 6.838 29.418 15.096 15.582 17.531 17.043c2.435 1.46-0.487 6.086-1.705 8.278s-3.165 9.739-3.165 9.739l-1.948 0.73c-1.947 0.73-1.46 2.435-1.46 3.896s0.738 2.915 0.738 2.915l-3.217 7.796 6.375-1.216s0.487 2.678 1.217 4.87 0.244 3.652-0.243 8.521c-0.487 4.87-1.948 12.417-2.191 17.53-0.244 5.113 5.356 20.938 5.113 22.156s-3.165 5.6-5.113 8.521c-1.948 2.922-1.948 11.93-1.948 11.93s-5.687-2.523-8.522-3.652c-1.631-0.649-18.991-5.843-32.626-1.461s-24.104 17.53-32.626 31.165c-8.521 13.634-10.47 32.138-10.713 42.363-0.243 10.179 3.614 21.075 3.65 21.178-0.03-0.092-0.453-1.713 1.706-15.091 2.046-12.679 7.491-25.796 16.8-40.659 8.674-13.85 22.887-21.913 22.887-21.913l-3.652 4.626c-3.652 4.626-10.106 16.435-12.904 25.564-2.505 8.175-4.008 22.92-2.521 32.818 1.346 8.961 6.66 18.798 6.66 18.798s-0.467-7.815 0.02-17.312c0.487-9.495 5.275-23.611 8.501-31.14 3.625-8.458 12.053-23.169 15.133-27.02 3.959-4.95 9.458-8.527 9.458-8.527s-9.009 11.443-13.878 21.425-11.443 25.565-12.417 45.286 7.304 35.79 7.304 35.79-0.487-2.922-0.73-7.548 0.054-12.852 0.983-21.091c0.99-8.786 6.321-31.255 14.356-46.107 8.035-14.851 16.556-18.503 16.556-18.503s-5.243 5.301-9.382 10.658-6.578 13.308-7.795 17.447-1.57 15.964-1.57 15.964 0.436 3.294-0.781 7.919c-1.124 4.271 0.036 7.295 0.221 7.734 0.18-0.206 0.026 0.062 0.026 0.062s-0.011-0.025-0.026-0.062c-0.221 0.254-0.945 1.225-3.092 4.311-3.896 5.6-3.896 18.504-3.896 18.504s2.191-3.408 5.843-9.738c3.652-6.331 13.148-11.687 16.313-12.904 3.166-1.217 18.018-11.93 18.018-11.93s-0.513 0.948-1.704 2.19c-1.878 1.958-4.65 8.172-6.955 11.609-2.852 4.253-10.937 13.337-14.602 16.458-4.288 3.652-8.163 11.646-12.287 18.923-4.139 7.304-12.904 29.46-12.904 29.46s10.86-13.956 18.018-18.504c12.473-7.926 16.773-9.298 24.873-17.258 7.05-6.929 10.74-23.257 10.889-32.049 0.107-6.329 3.019-14.833 3.019-14.833-0.565 3.317-0.565 3.27-0.993 5.629-0.872 4.807 0.993 12.582 0.993 12.582s3.756-9.003 12.472-18.763c3.091-3.753 10.193-10.059 14.128-12.804 14.238-9.934 19.315-11.037 25.717-13.355 5.251-1.901 11.368-3.09 11.368-3.09s2.717-4.908 4.664-12.943c1.947-8.034 2.922-15.338 3.408-25.321 0.487-9.982-2.678-27.269-2.434-28.486 0.242-1.218 1.217-9.252 0-15.339-1.218-6.087-2.679-10.226-3.166-11.93s-1.46-5.843-1.218-9.496c0.244-3.652-0.974-12.904-0.974-14.121s0-5.843-0.73-9.008c-0.729-3.165-2.191-7.547-2.191-7.547s1.218-1.948 1.948-3.409 0.487-4.87 0.487-4.87 4.382-2.435 5.844-3.652c1.461-1.218 8.765-4.139 11.93-17.53 3.165-13.389-2.629-29.673-4.627-33.354zm-103.66 201.92c8.676-11.176 19.552-16.458 19.552-16.458s-4.579 7.795-7.177 11.013-7.796 9.033-11.384 12.251-11.013 14.602-11.013 14.602 2.721-12.004 10.022-21.408zm21.903 1.855c-2.104 3.96-3.836 8.167-7.054 11.88s-8.786 8.414-12.993 11.508-12.497 10.023-12.497 10.023 3.341-6.188 6.063-9.776c4.789-6.312 14.385-12.952 17.324-15.591 6.063-5.444 8.91-9.652 8.91-9.652l1.98-2.104c-1e-3 0 0.37-0.248-1.733 3.712z" clip-rule="evenodd" fill-rule="evenodd" stroke-width="4.3027"/>
  <circle cx="182.31" cy="293.83" r="91.183"/>
  <circle cx="182.1" cy="294.68" r="66.297"/>
 </g>
 <circle cx="43.622" cy="69.774" r="20.555" fill="#24356e" stroke-width=".99999"/>
 <path d="m57.381 63.048c2.5616 4.7625 2.0208 11.645-1.4005 15.888-4.0423 5.322-10.706 7.3033-16.989 5.4823-5.523-1.4405-10.205-7.2035-10.706-12.826-0.70002-6.4429 2.5811-12.466 8.3045-15.367 4.6426-2.5412 11.446-2.0013 15.708 1.0005 2.1412 1.4205 3.9417 3.6014 5.0823 5.8226z" fill="#fff" stroke-width=".99999"/>
 <g transform="matrix(.23241 0 0 .23241 1.2816 1.4435)" fill="#24356e" stroke-width="4.3027">
  <path d="m202.29 245.01c-2.67 3.187-6.457 5.682-9.644 8.437-3.529-2.841-6.802-8.608-11.798-8.005-1.636 0.945-1.978 2.755-1.461 4.304 8.867 15.755 34.01 29.444 20.493 49.852-5.514 7.317-13.95 10.675-22.992 9.04-6.112-1.291-12.483-5.94-15.066-11.796-2.755-5.253-2.755-13.174-0.172-18.599l12.398 6.028c-0.086 2.326-0.261 5.165 1.377 7.06 1.463 1.637 3.187 2.669 5.166 2.841 2.325 0.173 4.131-0.772 5.596-2.496 1.638-1.81 1.722-4.821 1.034-7.232-6.284-9.815-14.638-18.855-21.095-28.669-2.322-5.168-2.065-12.056 1.465-16.532 4.132-5.51 10.245-7.403 16.96-6.457 7.061 1.29 12.573 6.8 17.739 12.224z"/>
  <path d="m222.18 248.71c16.792 15.065 24.022 35.988 19.632 58.459-2.67 11.106-7.922 21.354-16.534 29.792-4.044-1.293-7.745-3.188-11.618-4.737 14.377-13.602 20.919-33.577 14.463-52.691-1.982-5.422-4.822-10.505-8.61-15.067h-1.033l-15.5 7.579-0.323 0.168-7.94-10.242c9.124-4.48 17.991-9.472 27.463-13.261z"/>
  <path d="m163.46 259.47c5.684 7.319 11.278 14.64 16.962 21.869-11.796-5.425-24.022-11.02-35.989-16.875-2.584 2.154-4.22 5.511-5.941 8.437-8.008 14.897-6.114 36.681 3.874 50.023l8.523 9.473-11.622 4.992c-15.499-14.894-21.525-36.591-16.703-57.429 3.186-11.622 8.956-22.384 19.026-30.991z"/>
  <path d="m218.05 270.67c8.092 11.02 10.074 29.1 3.873 41.669-6.974 16.532-24.106 30.136-39.431 38.056-21.269-10.417-44.858-30.908-43.999-56.993 0.432-8.353 2.497-15.93 6.974-22.561l11.622 5.338c-1.51 2.134-2.84 4.391-3.527 6.89-6.803 17.993 4.562 34.007 17.992 45.803 3.272 2.67 6.806 4.821 10.508 6.457 16.789-7.922 31.533-25.271 30.221-44.685-0.356-5.254-2.411-10.158-6.201-14.205 3.702-2.152 7.922-4.048 11.968-5.769z"/>
 </g>
 <g transform="matrix(.23241 0 0 .23241 1.2816 1.4435)" clip-rule="evenodd" fill-rule="evenodd" stroke-width="4.3027">
  <g fill="#0064b0">
   <path d="m133.18 344.45 2.43 2.19-5.15 9.91 7.23-8.03 2.7 2.42-9.49 10.54-4.33-3.9 4.1-7.92-7.44 4.92-4.31-3.89 9.49-10.53 2.69 2.42-7.24 8.03z"/>
   <path d="m111.36 335.01 4.27 6.08 1.84-1.29-3.95-5.64 2.37-1.66 3.95 5.64 2.29-1.6-4.38-6.26 2.63-1.84 6.93 9.89-11.62 8.14-6.81-9.73z"/>
   <path transform="matrix(.4385 .8987 -.8987 .4385 357.2 83.116)" d="m109.86 320.32h4.438v14.18h-4.438z"/>
   <path d="m102.42 323.61-1.814-6.324c-0.357-1.247-0.479-2.301-0.363-3.16 0.113-0.867 0.412-1.641 0.894-2.322 0.483-0.68 1.107-1.252 1.873-1.716s1.614-0.829 2.543-1.096c1.457-0.418 2.637-0.572 3.54-0.465 0.895 0.102 1.7 0.373 2.417 0.812 0.71 0.441 1.253 0.977 1.628 1.607 0.516 0.863 0.882 1.673 1.1 2.432l1.814 6.324zm1.866-5.142 7.448-2.136-0.299-1.042c-0.255-0.891-0.532-1.495-0.833-1.816-0.306-0.318-0.731-0.516-1.276-0.59-0.55-0.072-1.371 0.048-2.462 0.36-1.444 0.414-2.364 0.936-2.761 1.564-0.396 0.63-0.436 1.495-0.12 2.598z"/>
   <path d="m100.01 294.36 0.65 7.4 2.24-0.19-0.6-6.87 2.88-0.25 0.6 6.87 2.79-0.25-0.67-7.61 3.2-0.28 1.05 12.03-14.123 1.24-1.035-11.82z"/>
   <path d="m111.14 291.38-14.042-1.974 1.027-7.309c0.19-1.355 0.451-2.375 0.781-3.059 0.331-0.685 0.84-1.202 1.527-1.554 0.681-0.351 1.468-0.464 2.362-0.339 0.779 0.109 1.429 0.372 1.95 0.788 0.515 0.414 0.907 0.939 1.175 1.576 0.171 0.406 0.284 0.945 0.339 1.617 0.246-0.498 0.472-0.854 0.678-1.069 0.138-0.145 0.417-0.343 0.835-0.593 0.42-0.257 0.74-0.423 0.959-0.498l4.369-1.547-0.696 4.956-4.621 1.739c-0.597 0.219-0.995 0.434-1.194 0.643-0.261 0.285-0.42 0.629-0.477 1.028l-0.054 0.388 5.699 0.801zm-7.734-5.578 0.26-1.85c0.028-0.2 0.019-0.597-0.028-1.188-0.017-0.298-0.13-0.555-0.341-0.769-0.21-0.22-0.468-0.352-0.775-0.395-0.453-0.064-0.822 0.031-1.105 0.288s-0.481 0.784-0.594 1.585l-0.271 1.927z"/>
   <path transform="matrix(-.2924 .9563 -.9563 -.2924 399.33 248.55)" d="m105.49 264.92h4.438v14.18h-4.438z"/>
   <path d="m114.96 258 2.745-2.979c0.854 0.706 1.482 1.469 1.886 2.289 0.403 0.821 0.587 1.687 0.552 2.598-0.032 0.904-0.33 1.935-0.893 3.088-0.683 1.4-1.441 2.448-2.275 3.144-0.837 0.687-1.92 1.104-3.249 1.254-1.328 0.15-2.784-0.161-4.366-0.933-2.109-1.029-3.454-2.384-4.033-4.066-0.582-1.69-0.367-3.572 0.645-5.646 0.791-1.622 1.737-2.737 2.837-3.347 1.104-0.615 2.438-0.82 4.002-0.615l-0.94 3.892c-0.449-0.066-0.795-0.075-1.041-0.028-0.41 0.075-0.774 0.235-1.094 0.478-0.319 0.243-0.576 0.564-0.771 0.963-0.44 0.902-0.417 1.768 0.067 2.599 0.356 0.624 1.105 1.214 2.247 1.771 1.415 0.689 2.491 0.946 3.229 0.77 0.733-0.178 1.291-0.66 1.674-1.445 0.372-0.762 0.44-1.438 0.206-2.031-0.232-0.604-0.708-1.187-1.428-1.756z"/>
   <path d="m118.43 246.56 3.11-3.71-3.8-3.19 2.86-3.4 10.86 9.11-2.86 3.41-4.39-3.69-3.11 3.71 4.39 3.68-2.85 3.4-10.86-9.12 2.85-3.39z"/>
   <path d="m135.51 227.64-5.78 4.67 1.42 1.75 5.36-4.33 1.82 2.24-5.36 4.34 1.76 2.17 5.94-4.81 2.02 2.5-9.39 7.6-8.92-11.02 9.22-7.47z"/>
   <path d="m144.26 235.37-6.216-12.744 6.634-3.236c1.23-0.6 2.221-0.953 2.973-1.062 0.752-0.107 1.466 0.024 2.142 0.398 0.672 0.368 1.206 0.958 1.602 1.769 0.346 0.707 0.491 1.394 0.438 2.058-0.057 0.658-0.272 1.277-0.649 1.855-0.241 0.369-0.625 0.765-1.152 1.186 0.551-0.075 0.974-0.087 1.267-0.036 0.196 0.033 0.517 0.153 0.959 0.361 0.448 0.204 0.764 0.377 0.948 0.517l3.727 2.756-4.499 2.194-4.026-2.857c-0.516-0.373-0.915-0.584-1.199-0.631-0.384-0.058-0.756 3e-3 -1.119 0.18l-0.352 0.171 2.523 5.173zm0.301-9.531 1.678-0.817c0.183-0.089 0.505-0.318 0.97-0.688 0.238-0.181 0.388-0.418 0.446-0.713 0.065-0.297 0.03-0.585-0.105-0.863-0.2-0.411-0.486-0.662-0.857-0.754-0.371-0.093-0.92 0.039-1.646 0.394l-1.749 0.853z"/>
   <path d="m165.31 221.96 4.15-0.772c0.172 0.66 0.42 1.15 0.741 1.468 0.522 0.514 1.204 0.72 2.046 0.616 0.627-0.077 1.091-0.28 1.393-0.609 0.306-0.336 0.436-0.696 0.389-1.081-0.045-0.364-0.247-0.671-0.605-0.92-0.358-0.247-1.143-0.427-2.352-0.539-1.98-0.192-3.424-0.593-4.334-1.203-0.914-0.608-1.439-1.463-1.574-2.563-0.09-0.724 0.036-1.431 0.379-2.122 0.348-0.699 0.923-1.282 1.725-1.752 0.809-0.476 1.953-0.805 3.436-0.987 1.817-0.223 3.242-0.057 4.275 0.499 1.039 0.548 1.739 1.54 2.1 2.977l-4.113 0.75c-0.188-0.621-0.478-1.053-0.869-1.298-0.384-0.245-0.887-0.329-1.508-0.253-0.512 0.062-0.883 0.219-1.114 0.469-0.233 0.242-0.331 0.518-0.293 0.825 0.027 0.224 0.159 0.412 0.395 0.565 0.229 0.16 0.742 0.272 1.538 0.337 1.972 0.174 3.397 0.421 4.277 0.741 0.886 0.314 1.554 0.758 2.005 1.333 0.458 0.574 0.734 1.245 0.829 2.013 0.111 0.903-0.039 1.766-0.45 2.59-0.411 0.823-1.046 1.488-1.901 1.997-0.858 0.501-1.977 0.836-3.354 1.005-2.42 0.298-4.151 0.043-5.196-0.765-1.048-0.808-1.719-1.915-2.015-3.321z"/>
   <path d="m187.25 221.54 3.88-9.96 4.48 0.31-6.29 13.77-4.79-0.33-4.41-14.52 4.62 0.32z"/>
   <path d="m204.06 221.4c0.966-2.517 2.098-4.103 3.396-4.757 1.304-0.653 2.894-0.62 4.769 0.1 0.9 0.346 1.596 0.741 2.089 1.186 0.495 0.438 0.856 0.905 1.085 1.401 0.231 0.488 0.375 0.969 0.432 1.439 0.065 0.467 0.062 0.984-8e-3 1.551-0.13 1.083-0.4 2.16-0.812 3.231-0.922 2.402-2.007 4.003-3.256 4.801-1.249 0.799-2.878 0.812-4.886 0.041-1.126-0.433-1.967-0.959-2.524-1.58s-0.927-1.36-1.106-2.217c-0.136-0.611-0.133-1.374 8e-3 -2.287 0.149-0.916 0.419-1.887 0.813-2.909zm3.683 1.423c-0.646 1.687-0.94 2.896-0.88 3.631 0.067 0.73 0.388 1.205 0.96 1.425 0.378 0.146 0.753 0.141 1.126-0.013 0.381-0.158 0.744-0.495 1.09-1.012 0.351-0.515 0.757-1.371 1.216-2.568 0.676-1.758 0.976-2.997 0.903-3.715-0.065-0.723-0.398-1.199-1.002-1.432-0.613-0.235-1.178-0.096-1.688 0.419-0.51 0.509-1.085 1.598-1.725 3.265z"/>
   <path d="m223.27 238.86-10.239-6.152c0.718-0.93 1.637-1.657 2.757-2.18 1.13-0.525 2.873-0.896 5.23-1.111 1.441-0.135 2.417-0.309 2.926-0.521 0.508-0.214 0.865-0.492 1.071-0.835 0.222-0.37 0.271-0.769 0.148-1.197-0.114-0.43-0.381-0.77-0.8-1.021-0.436-0.263-0.875-0.342-1.316-0.238-0.438 0.105-0.908 0.473-1.415 1.102l-3.255-2.328c0.705-0.869 1.396-1.463 2.072-1.778 0.68-0.321 1.428-0.428 2.246-0.32 0.826 0.105 1.814 0.503 2.966 1.194 1.2 0.723 2.053 1.418 2.555 2.088 0.507 0.674 0.781 1.407 0.823 2.199 0.05 0.79-0.134 1.532-0.553 2.229-0.444 0.741-1.091 1.316-1.938 1.726-0.841 0.412-2.082 0.675-3.723 0.786-0.97 0.058-1.629 0.109-1.977 0.156-0.342 0.051-0.761 0.133-1.256 0.25l5.33 3.202z"/>
   <path d="m240.04 234.79 4.403 4.89c0.867 0.964 1.438 1.857 1.711 2.682 0.278 0.829 0.349 1.654 0.214 2.478-0.136 0.823-0.445 1.611-0.931 2.363-0.484 0.753-1.087 1.453-1.805 2.101-1.127 1.014-2.119 1.67-2.978 1.97-0.849 0.299-1.692 0.409-2.527 0.328-0.832-0.084-1.555-0.327-2.169-0.73-0.842-0.55-1.526-1.117-2.053-1.703l-4.403-4.889zm0.577 5.439-5.758 5.184 0.727 0.808c0.619 0.688 1.134 1.109 1.545 1.267 0.414 0.152 0.883 0.143 1.404-0.029 0.527-0.176 1.213-0.645 2.056-1.403 1.117-1.005 1.716-1.877 1.796-2.616s-0.263-1.535-1.03-2.388z"/>
   <path d="m256.01 256.7 2.075 3.901-7.464 3.968c-0.74 0.395-1.504 0.648-2.289 0.764-0.777 0.118-1.547 0.059-2.309-0.179-0.752-0.235-1.374-0.573-1.863-1.014-0.684-0.611-1.308-1.449-1.874-2.514-0.327-0.616-0.643-1.312-0.946-2.088-0.299-0.771-0.455-1.467-0.464-2.089-4e-3 -0.626 0.118-1.267 0.368-1.924 0.253-0.65 0.587-1.183 1.003-1.596 0.669-0.666 1.31-1.162 1.925-1.488l7.464-3.969 2.075 3.901-7.644 4.063c-0.683 0.363-1.118 0.838-1.303 1.424-0.177 0.589-0.084 1.222 0.277 1.901 0.358 0.673 0.826 1.1 1.403 1.279 0.586 0.184 1.227 0.09 1.922-0.279z"/>
   <path transform="matrix(-.3257 -.9455 .9455 -.3257 81.824 597.34)" d="m251.71 262.4h4.438v14.18h-4.438z"/>
   <path d="m253.45 274.88 0.989 4.104c-0.651 0.208-1.127 0.479-1.428 0.817-0.486 0.55-0.655 1.241-0.508 2.076 0.109 0.621 0.337 1.074 0.682 1.358 0.352 0.288 0.719 0.398 1.1 0.332 0.361-0.063 0.657-0.282 0.887-0.653 0.229-0.371 0.368-1.163 0.416-2.376 0.088-1.987 0.412-3.451 0.974-4.39 0.56-0.947 1.386-1.516 2.479-1.709 0.717-0.126 1.43-0.036 2.14 0.269 0.716 0.312 1.328 0.854 1.839 1.632 0.518 0.781 0.906 1.907 1.165 3.378 0.318 1.803 0.228 3.235-0.273 4.297-0.493 1.066-1.447 1.817-2.863 2.252l-0.963-4.069c0.609-0.22 1.025-0.531 1.249-0.935 0.226-0.396 0.283-0.904 0.174-1.521-0.089-0.506-0.265-0.869-0.525-1.088-0.255-0.22-0.535-0.303-0.84-0.249-0.223 0.039-0.403 0.181-0.544 0.424-0.147 0.237-0.233 0.755-0.256 1.554-0.07 1.979-0.243 3.414-0.517 4.31-0.268 0.901-0.676 1.592-1.227 2.073-0.549 0.486-1.205 0.797-1.967 0.932-0.895 0.158-1.765 0.054-2.608-0.313s-1.543-0.967-2.095-1.795c-0.545-0.83-0.938-1.929-1.18-3.297-0.424-2.4-0.26-4.143 0.492-5.229 0.75-1.085 1.82-1.814 3.208-2.184z"/>
   <path d="m265.45 290.28-0.145 8.288c-0.024 1.382-0.381 2.436-1.071 3.16-0.689 0.73-1.534 1.088-2.534 1.07-0.838-0.016-1.552-0.291-2.143-0.83-0.393-0.359-0.7-0.879-0.921-1.561-0.263 1.025-0.697 1.773-1.306 2.245-0.603 0.479-1.354 0.71-2.257 0.694-0.734-0.014-1.393-0.197-1.974-0.553-0.58-0.355-1.036-0.837-1.368-1.441-0.206-0.375-0.351-0.939-0.435-1.69-0.111-0.999-0.165-1.661-0.159-1.987l0.134-7.644zm-5.639 4.37-0.033 1.925c-0.013 0.691 0.096 1.172 0.322 1.443 0.233 0.277 0.573 0.421 1.019 0.428 0.412 8e-3 0.736-0.124 0.975-0.393 0.236-0.264 0.36-0.731 0.372-1.401l0.034-1.956zm-5.57-0.097-0.04 2.258c-0.013 0.762 0.11 1.302 0.369 1.619 0.266 0.317 0.623 0.48 1.075 0.488 0.419 8e-3 0.757-0.143 1.013-0.451 0.264-0.302 0.402-0.841 0.416-1.616l0.039-2.248z"/>
   <path d="m262.33 317.1-1.069 4.287-8.202-2.045c-0.813-0.203-1.551-0.525-2.212-0.965-0.656-0.433-1.188-0.992-1.596-1.678-0.402-0.678-0.638-1.345-0.707-2-0.099-0.911-1e-3 -1.952 0.29-3.121 0.168-0.678 0.4-1.405 0.693-2.186 0.293-0.772 0.645-1.395 1.054-1.863 0.415-0.467 0.936-0.861 1.561-1.182 0.623-0.315 1.228-0.487 1.813-0.516 0.941-0.047 1.751 0.014 2.426 0.182l8.203 2.046-1.069 4.288-8.399-2.096c-0.751-0.187-1.392-0.125-1.921 0.187-0.524 0.319-0.88 0.852-1.065 1.599-0.185 0.739-0.123 1.37 0.187 1.89 0.313 0.528 0.852 0.888 1.615 1.078z"/>
   <path d="m246.8 319.89 12.634 6.438-3.351 6.576c-0.621 1.22-1.199 2.099-1.734 2.639-0.536 0.539-1.186 0.862-1.949 0.971-0.759 0.11-1.54-0.039-2.345-0.448-0.701-0.358-1.23-0.817-1.588-1.38-0.352-0.561-0.551-1.185-0.598-1.874-0.029-0.438 0.039-0.985 0.206-1.639-0.396 0.391-0.725 0.654-0.989 0.79-0.178 0.093-0.506 0.188-0.982 0.289-0.482 0.105-0.838 0.158-1.068 0.158l-4.636 0.041 2.272-4.46 4.936-0.141c0.636-0.013 1.082-0.085 1.338-0.218 0.34-0.186 0.602-0.458 0.785-0.817l0.178-0.349-5.128-2.613zm5.495 7.793-0.848 1.663c-0.092 0.181-0.211 0.558-0.36 1.134-0.081 0.287-0.057 0.566 0.073 0.838 0.127 0.276 0.327 0.484 0.604 0.625 0.408 0.208 0.787 0.237 1.14 0.087 0.351-0.15 0.71-0.586 1.077-1.306l0.883-1.733z"/>
   <path d="m239.41 341.7 2.26 1.896-4.398 5.243-4.631-3.886c0.165-1.571 0.448-2.849 0.852-3.829 0.402-0.973 1.049-1.987 1.937-3.046 1.094-1.303 2.205-2.182 3.336-2.637 1.127-0.45 2.315-0.537 3.566-0.263 1.246 0.281 2.433 0.893 3.559 1.838 1.187 0.995 2.008 2.106 2.468 3.334 0.465 1.232 0.524 2.516 0.179 3.852-0.273 1.037-0.938 2.186-1.993 3.443-1.019 1.214-1.888 2.029-2.607 2.445-0.725 0.422-1.481 0.638-2.271 0.646-0.79 0.018-1.62-0.168-2.488-0.557l2.168-3.757c0.523 0.209 1.029 0.242 1.52 0.101 0.484-0.138 0.938-0.456 1.355-0.955 0.625-0.744 0.866-1.554 0.726-2.429-0.14-0.867-0.764-1.765-1.87-2.692-1.176-0.986-2.202-1.47-3.078-1.447-0.882 0.026-1.657 0.439-2.327 1.237-0.318 0.38-0.567 0.787-0.748 1.224-0.181 0.436-0.326 0.984-0.437 1.649l1.021 0.858z"/>
  </g>
  <g fill="#fff">
   <path d="m133.18 344.45 2.43 2.19-5.15 9.91 7.23-8.03 2.7 2.42-9.49 10.54-4.33-3.9 4.1-7.92-7.44 4.92-4.31-3.89 9.49-10.53 2.69 2.42-7.24 8.03z"/>
   <path d="m111.36 335.01 4.27 6.08 1.84-1.29-3.95-5.64 2.37-1.66 3.95 5.64 2.29-1.6-4.38-6.26 2.63-1.84 6.93 9.89-11.62 8.14-6.81-9.73z"/>
   <path transform="matrix(.4385 .8987 -.8987 .4385 357.2 83.116)" d="m109.86 320.32h4.438v14.18h-4.438z"/>
   <path d="m102.42 323.61-1.814-6.324c-0.357-1.247-0.479-2.301-0.363-3.16 0.113-0.867 0.412-1.641 0.894-2.322 0.483-0.68 1.107-1.252 1.873-1.716s1.614-0.829 2.543-1.096c1.457-0.418 2.637-0.572 3.54-0.465 0.895 0.102 1.7 0.373 2.417 0.812 0.71 0.441 1.253 0.977 1.628 1.607 0.516 0.863 0.882 1.673 1.1 2.432l1.814 6.324zm1.866-5.142 7.448-2.136-0.299-1.042c-0.255-0.891-0.532-1.495-0.833-1.816-0.306-0.318-0.731-0.516-1.276-0.59-0.55-0.072-1.371 0.048-2.462 0.36-1.444 0.414-2.364 0.936-2.761 1.564-0.396 0.63-0.436 1.495-0.12 2.598z"/>
   <path d="m100.01 294.36 0.65 7.4 2.24-0.19-0.6-6.87 2.88-0.25 0.6 6.87 2.79-0.25-0.67-7.61 3.2-0.28 1.05 12.03-14.123 1.24-1.035-11.82z"/>
   <path d="m111.14 291.38-14.042-1.974 1.027-7.309c0.19-1.355 0.451-2.375 0.781-3.059 0.331-0.685 0.84-1.202 1.527-1.554 0.681-0.351 1.468-0.464 2.362-0.339 0.779 0.109 1.429 0.372 1.95 0.788 0.515 0.414 0.907 0.939 1.175 1.576 0.171 0.406 0.284 0.945 0.339 1.617 0.246-0.498 0.472-0.854 0.678-1.069 0.138-0.145 0.417-0.343 0.835-0.593 0.42-0.257 0.74-0.423 0.959-0.498l4.369-1.547-0.696 4.956-4.621 1.739c-0.597 0.219-0.995 0.434-1.194 0.643-0.261 0.285-0.42 0.629-0.477 1.028l-0.054 0.388 5.699 0.801zm-7.734-5.578 0.26-1.85c0.028-0.2 0.019-0.597-0.028-1.188-0.017-0.298-0.13-0.555-0.341-0.769-0.21-0.22-0.468-0.352-0.775-0.395-0.453-0.064-0.822 0.031-1.105 0.288s-0.481 0.784-0.594 1.585l-0.271 1.927z"/>
   <path transform="matrix(-.2924 .9563 -.9563 -.2924 399.33 248.55)" d="m105.49 264.92h4.438v14.18h-4.438z"/>
   <path d="m114.96 258 2.745-2.979c0.854 0.706 1.482 1.469 1.886 2.289 0.403 0.821 0.587 1.687 0.552 2.598-0.032 0.904-0.33 1.935-0.893 3.088-0.683 1.4-1.441 2.448-2.275 3.144-0.837 0.687-1.92 1.104-3.249 1.254-1.328 0.15-2.784-0.161-4.366-0.933-2.109-1.029-3.454-2.384-4.033-4.066-0.582-1.69-0.367-3.572 0.645-5.646 0.791-1.622 1.737-2.737 2.837-3.347 1.104-0.615 2.438-0.82 4.002-0.615l-0.94 3.892c-0.449-0.066-0.795-0.075-1.041-0.028-0.41 0.075-0.774 0.235-1.094 0.478-0.319 0.243-0.576 0.564-0.771 0.963-0.44 0.902-0.417 1.768 0.067 2.599 0.356 0.624 1.105 1.214 2.247 1.771 1.415 0.689 2.491 0.946 3.229 0.77 0.733-0.178 1.291-0.66 1.674-1.445 0.372-0.762 0.44-1.438 0.206-2.031-0.232-0.604-0.708-1.187-1.428-1.756z"/>
   <path d="m118.43 246.56 3.11-3.71-3.8-3.19 2.86-3.4 10.86 9.11-2.86 3.41-4.39-3.69-3.11 3.71 4.39 3.68-2.85 3.4-10.86-9.12 2.85-3.39z"/>
   <path d="m135.51 227.64-5.78 4.67 1.42 1.75 5.36-4.33 1.82 2.24-5.36 4.34 1.76 2.17 5.94-4.81 2.02 2.5-9.39 7.6-8.92-11.02 9.22-7.47z"/>
   <path d="m144.26 235.37-6.216-12.744 6.634-3.236c1.23-0.6 2.221-0.953 2.973-1.062 0.752-0.107 1.466 0.024 2.142 0.398 0.672 0.368 1.206 0.958 1.602 1.769 0.346 0.707 0.491 1.394 0.438 2.058-0.057 0.658-0.272 1.277-0.649 1.855-0.241 0.369-0.625 0.765-1.152 1.186 0.551-0.075 0.974-0.087 1.267-0.036 0.196 0.033 0.517 0.153 0.959 0.361 0.448 0.204 0.764 0.377 0.948 0.517l3.727 2.756-4.499 2.194-4.026-2.857c-0.516-0.373-0.915-0.584-1.199-0.631-0.384-0.058-0.756 3e-3 -1.119 0.18l-0.352 0.171 2.523 5.173zm0.301-9.531 1.678-0.817c0.183-0.089 0.505-0.318 0.97-0.688 0.238-0.181 0.388-0.418 0.446-0.713 0.065-0.297 0.03-0.585-0.105-0.863-0.2-0.411-0.486-0.662-0.857-0.754-0.371-0.093-0.92 0.039-1.646 0.394l-1.749 0.853z"/>
   <path d="m165.31 221.96 4.15-0.772c0.172 0.66 0.42 1.15 0.741 1.468 0.522 0.514 1.204 0.72 2.046 0.616 0.627-0.077 1.091-0.28 1.393-0.609 0.306-0.336 0.436-0.696 0.389-1.081-0.045-0.364-0.247-0.671-0.605-0.92-0.358-0.247-1.143-0.427-2.352-0.539-1.98-0.192-3.424-0.593-4.334-1.203-0.914-0.608-1.439-1.463-1.574-2.563-0.09-0.724 0.036-1.431 0.379-2.122 0.348-0.699 0.923-1.282 1.725-1.752 0.809-0.476 1.953-0.805 3.436-0.987 1.817-0.223 3.242-0.057 4.275 0.499 1.039 0.548 1.739 1.54 2.1 2.977l-4.113 0.75c-0.188-0.621-0.478-1.053-0.869-1.298-0.384-0.245-0.887-0.329-1.508-0.253-0.512 0.062-0.883 0.219-1.114 0.469-0.233 0.242-0.331 0.518-0.293 0.825 0.027 0.224 0.159 0.412 0.395 0.565 0.229 0.16 0.742 0.272 1.538 0.337 1.972 0.174 3.397 0.421 4.277 0.741 0.886 0.314 1.554 0.758 2.005 1.333 0.458 0.574 0.734 1.245 0.829 2.013 0.111 0.903-0.039 1.766-0.45 2.59-0.411 0.823-1.046 1.488-1.901 1.997-0.858 0.501-1.977 0.836-3.354 1.005-2.42 0.298-4.151 0.043-5.196-0.765-1.048-0.808-1.719-1.915-2.015-3.321z"/>
   <path d="m187.25 221.54 3.88-9.96 4.48 0.31-6.29 13.77-4.79-0.33-4.41-14.52 4.62 0.32z"/>
   <path d="m204.06 221.4c0.966-2.517 2.098-4.103 3.396-4.757 1.304-0.653 2.894-0.62 4.769 0.1 0.9 0.346 1.596 0.741 2.089 1.186 0.495 0.438 0.856 0.905 1.085 1.401 0.231 0.488 0.375 0.969 0.432 1.439 0.065 0.467 0.062 0.984-8e-3 1.551-0.13 1.083-0.4 2.16-0.812 3.231-0.922 2.402-2.007 4.003-3.256 4.801-1.249 0.799-2.878 0.812-4.886 0.041-1.126-0.433-1.967-0.959-2.524-1.58s-0.927-1.36-1.106-2.217c-0.136-0.611-0.133-1.374 8e-3 -2.287 0.149-0.916 0.419-1.887 0.813-2.909zm3.683 1.423c-0.646 1.687-0.94 2.896-0.88 3.631 0.067 0.73 0.388 1.205 0.96 1.425 0.378 0.146 0.753 0.141 1.126-0.013 0.381-0.158 0.744-0.495 1.09-1.012 0.351-0.515 0.757-1.371 1.216-2.568 0.676-1.758 0.976-2.997 0.903-3.715-0.065-0.723-0.398-1.199-1.002-1.432-0.613-0.235-1.178-0.096-1.688 0.419-0.51 0.509-1.085 1.598-1.725 3.265z"/>
   <path d="m223.27 238.86-10.239-6.152c0.718-0.93 1.637-1.657 2.757-2.18 1.13-0.525 2.873-0.896 5.23-1.111 1.441-0.135 2.417-0.309 2.926-0.521 0.508-0.214 0.865-0.492 1.071-0.835 0.222-0.37 0.271-0.769 0.148-1.197-0.114-0.43-0.381-0.77-0.8-1.021-0.436-0.263-0.875-0.342-1.316-0.238-0.438 0.105-0.908 0.473-1.415 1.102l-3.255-2.328c0.705-0.869 1.396-1.463 2.072-1.778 0.68-0.321 1.428-0.428 2.246-0.32 0.826 0.105 1.814 0.503 2.966 1.194 1.2 0.723 2.053 1.418 2.555 2.088 0.507 0.674 0.781 1.407 0.823 2.199 0.05 0.79-0.134 1.532-0.553 2.229-0.444 0.741-1.091 1.316-1.938 1.726-0.841 0.412-2.082 0.675-3.723 0.786-0.97 0.058-1.629 0.109-1.977 0.156-0.342 0.051-0.761 0.133-1.256 0.25l5.33 3.202z"/>
   <path d="m240.04 234.79 4.403 4.89c0.867 0.964 1.438 1.857 1.711 2.682 0.278 0.829 0.349 1.654 0.214 2.478-0.136 0.823-0.445 1.611-0.931 2.363-0.484 0.753-1.087 1.453-1.805 2.101-1.127 1.014-2.119 1.67-2.978 1.97-0.849 0.299-1.692 0.409-2.527 0.328-0.832-0.084-1.555-0.327-2.169-0.73-0.842-0.55-1.526-1.117-2.053-1.703l-4.403-4.889zm0.577 5.439-5.758 5.184 0.727 0.808c0.619 0.688 1.134 1.109 1.545 1.267 0.414 0.152 0.883 0.143 1.404-0.029 0.527-0.176 1.213-0.645 2.056-1.403 1.117-1.005 1.716-1.877 1.796-2.616s-0.263-1.535-1.03-2.388z"/>
   <path d="m256.01 256.7 2.075 3.901-7.464 3.968c-0.74 0.395-1.504 0.648-2.289 0.764-0.777 0.118-1.547 0.059-2.309-0.179-0.752-0.235-1.374-0.573-1.863-1.014-0.684-0.611-1.308-1.449-1.874-2.514-0.327-0.616-0.643-1.312-0.946-2.088-0.299-0.771-0.455-1.467-0.464-2.089-4e-3 -0.626 0.118-1.267 0.368-1.924 0.253-0.65 0.587-1.183 1.003-1.596 0.669-0.666 1.31-1.162 1.925-1.488l7.464-3.969 2.075 3.901-7.644 4.063c-0.683 0.363-1.118 0.838-1.303 1.424-0.177 0.589-0.084 1.222 0.277 1.901 0.358 0.673 0.826 1.1 1.403 1.279 0.586 0.184 1.227 0.09 1.922-0.279z"/>
   <path transform="matrix(-.3257 -.9455 .9455 -.3257 81.824 597.34)" d="m251.71 262.4h4.438v14.18h-4.438z"/>
   <path d="m253.45 274.88 0.989 4.104c-0.651 0.208-1.127 0.479-1.428 0.817-0.486 0.55-0.655 1.241-0.508 2.076 0.109 0.621 0.337 1.074 0.682 1.358 0.352 0.288 0.719 0.398 1.1 0.332 0.361-0.063 0.657-0.282 0.887-0.653 0.229-0.371 0.368-1.163 0.416-2.376 0.088-1.987 0.412-3.451 0.974-4.39 0.56-0.947 1.386-1.516 2.479-1.709 0.717-0.126 1.43-0.036 2.14 0.269 0.716 0.312 1.328 0.854 1.839 1.632 0.518 0.781 0.906 1.907 1.165 3.378 0.318 1.803 0.228 3.235-0.273 4.297-0.493 1.066-1.447 1.817-2.863 2.252l-0.963-4.069c0.609-0.22 1.025-0.531 1.249-0.935 0.226-0.396 0.283-0.904 0.174-1.521-0.089-0.506-0.265-0.869-0.525-1.088-0.255-0.22-0.535-0.303-0.84-0.249-0.223 0.039-0.403 0.181-0.544 0.424-0.147 0.237-0.233 0.755-0.256 1.554-0.07 1.979-0.243 3.414-0.517 4.31-0.268 0.901-0.676 1.592-1.227 2.073-0.549 0.486-1.205 0.797-1.967 0.932-0.895 0.158-1.765 0.054-2.608-0.313s-1.543-0.967-2.095-1.795c-0.545-0.83-0.938-1.929-1.18-3.297-0.424-2.4-0.26-4.143 0.492-5.229 0.75-1.085 1.82-1.814 3.208-2.184z"/>
   <path d="m265.45 290.28-0.145 8.288c-0.024 1.382-0.381 2.436-1.071 3.16-0.689 0.73-1.534 1.088-2.534 1.07-0.838-0.016-1.552-0.291-2.143-0.83-0.393-0.359-0.7-0.879-0.921-1.561-0.263 1.025-0.697 1.773-1.306 2.245-0.603 0.479-1.354 0.71-2.257 0.694-0.734-0.014-1.393-0.197-1.974-0.553-0.58-0.355-1.036-0.837-1.368-1.441-0.206-0.375-0.351-0.939-0.435-1.69-0.111-0.999-0.165-1.661-0.159-1.987l0.134-7.644zm-5.639 4.37-0.033 1.925c-0.013 0.691 0.096 1.172 0.322 1.443 0.233 0.277 0.573 0.421 1.019 0.428 0.412 8e-3 0.736-0.124 0.975-0.393 0.236-0.264 0.36-0.731 0.372-1.401l0.034-1.956zm-5.57-0.097-0.04 2.258c-0.013 0.762 0.11 1.302 0.369 1.619 0.266 0.317 0.623 0.48 1.075 0.488 0.419 8e-3 0.757-0.143 1.013-0.451 0.264-0.302 0.402-0.841 0.416-1.616l0.039-2.248z"/>
   <path d="m262.33 317.1-1.069 4.287-8.202-2.045c-0.813-0.203-1.551-0.525-2.212-0.965-0.656-0.433-1.188-0.992-1.596-1.678-0.402-0.678-0.638-1.345-0.707-2-0.099-0.911-1e-3 -1.952 0.29-3.121 0.168-0.678 0.4-1.405 0.693-2.186 0.293-0.772 0.645-1.395 1.054-1.863 0.415-0.467 0.936-0.861 1.561-1.182 0.623-0.315 1.228-0.487 1.813-0.516 0.941-0.047 1.751 0.014 2.426 0.182l8.203 2.046-1.069 4.288-8.399-2.096c-0.751-0.187-1.392-0.125-1.921 0.187-0.524 0.319-0.88 0.852-1.065 1.599-0.185 0.739-0.123 1.37 0.187 1.89 0.313 0.528 0.852 0.888 1.615 1.078z"/>
   <path d="m246.8 319.89 12.634 6.438-3.351 6.576c-0.621 1.22-1.199 2.099-1.734 2.639-0.536 0.539-1.186 0.862-1.949 0.971-0.759 0.11-1.54-0.039-2.345-0.448-0.701-0.358-1.23-0.817-1.588-1.38-0.352-0.561-0.551-1.185-0.598-1.874-0.029-0.438 0.039-0.985 0.206-1.639-0.396 0.391-0.725 0.654-0.989 0.79-0.178 0.093-0.506 0.188-0.982 0.289-0.482 0.105-0.838 0.158-1.068 0.158l-4.636 0.041 2.272-4.46 4.936-0.141c0.636-0.013 1.082-0.085 1.338-0.218 0.34-0.186 0.602-0.458 0.785-0.817l0.178-0.349-5.128-2.613zm5.495 7.793-0.848 1.663c-0.092 0.181-0.211 0.558-0.36 1.134-0.081 0.287-0.057 0.566 0.073 0.838 0.127 0.276 0.327 0.484 0.604 0.625 0.408 0.208 0.787 0.237 1.14 0.087 0.351-0.15 0.71-0.586 1.077-1.306l0.883-1.733z"/>
   <path d="m239.41 341.7 2.26 1.896-4.398 5.243-4.631-3.886c0.165-1.571 0.448-2.849 0.852-3.829 0.402-0.973 1.049-1.987 1.937-3.046 1.094-1.303 2.205-2.182 3.336-2.637 1.127-0.45 2.315-0.537 3.566-0.263 1.246 0.281 2.433 0.893 3.559 1.838 1.187 0.995 2.008 2.106 2.468 3.334 0.465 1.232 0.524 2.516 0.179 3.852-0.273 1.037-0.938 2.186-1.993 3.443-1.019 1.214-1.888 2.029-2.607 2.445-0.725 0.422-1.481 0.638-2.271 0.646-0.79 0.018-1.62-0.168-2.488-0.557l2.168-3.757c0.523 0.209 1.029 0.242 1.52 0.101 0.484-0.138 0.938-0.456 1.355-0.955 0.625-0.744 0.866-1.554 0.726-2.429-0.14-0.867-0.764-1.765-1.87-2.692-1.176-0.986-2.202-1.47-3.078-1.447-0.882 0.026-1.657 0.439-2.327 1.237-0.318 0.38-0.567 0.787-0.748 1.224-0.181 0.436-0.326 0.984-0.437 1.649l1.021 0.858z"/>
  </g>
 </g>
 <path d="m45.042 87.775c0 0.74162-0.60171 1.3429-1.3433 1.3429-0.74185 0-1.3436-0.60124-1.3436-1.3429 0-0.74232 0.60171-1.344 1.3436-1.344 0.74162 0 1.3433 0.60171 1.3433 1.344z" fill="#fff" stroke-width=".99999"/>
 <path d="m31.551 2.9195c0.9824 2.292 1.572 4.7163 1.6933 7.3565l1.6724 1.4512c0.50433-0.28215 0.62495-0.90686 0.82668-1.3907 0.7458-2.1765 0.62472-4.8973 3.0432-6.2074l2.4187-1.6929c0.58498 0 0.72582 0.78601 1.0279 1.209 0.9071 2.6404 1.7133 6.4296-0.20127 8.8681-0.86642 1.2697-2.1965 1.9146-3.2856 2.7413 0.18174 0.74557-0.05996 1.4107-0.52385 1.9348-0.08041 0.72535 0.40323 1.209 0.52385 1.8537-0.02022 0.74627 0.46389 1.4719 0.14107 2.177 0.48388 1.9753-0.20104 4.2526 0.78648 6.0464 0.26169 1.8742 0.94684 3.8898 0.32235 5.8444 0.7049 3.7488 1.1892 8.1427 0.16083 11.891-0.22149 0.82645-0.32189 1.7535-0.68514 2.4791h-0.14107c0.68561-3.5875 1.1695-7.5178 0.34327-11.125-0.08065-0.06089-0.12109-0.2015-0.24171-0.1413-0.4439 1.0482-0.88734 2.1163-1.3106 3.1845 0.12085-3.7488 1.7136-7.1348 1.2497-10.884l-0.28191 0.76579c0-0.86666-0.10133-1.8137-0.68561-2.4991-0.32235 0.78601-0.36302 1.7937-0.3428 2.8017 0.06066 2.7812-0.16083 5.4217-0.9071 7.8799 0.38324-3.2247-0.66469-5.9653-0.68468-9.0891-0.02022-0.22149-0.18174-0.44367-0.38324-0.5443h-0.76556c-2.1768 1.552-4.5954 3.5071-4.2122 6.4898 0.20127 1.8944 2.2976 2.9828 2.1361 5.0386 0.01975 1.4916-0.42299 2.9023-0.88688 4.2524-0.58498 1.3106-1.3505 3.1647-3.0434 3.3867-1.6324 0.34257-3.7488 0.52385-5.0791-0.72535-0.42345-0.50456-0.76579-1.0489-0.82668-1.6936-1.0275-1.7738-2.4387-3.7492-1.592-5.9455 0.36279-1.0884 1.2699-1.9557 1.592-3.0639 0.60496-1.0077 1.2697-2.0357 0.92732-3.386 0.42345-0.01999 0.42345-0.48388 0.2015-0.72558l-0.10063-0.08041c-1.4514 0.82622-1.2097 2.6799-1.6931 3.8699l-0.68584-2.7213c0.62518-0.78601 1.0689-1.6926 1.6936-2.4185 0.2015-0.01999 0.36279 0.24194 0.54407 0.14107-0.26193-0.62472-0.44367-1.4911-0.96776-1.9748-0.6045 0.92685-0.98728 2.1159-1.3701 3.0027-0.44344-2.2574 0.8462-3.9303 0.403-6.2476 0.30213 0.03998 0.76579 0 0.96706-0.34304 0-0.20196 0.16152-0.3428 0.2424-0.52432 0.26146 1.5727 1.0073 2.943 1.4505 4.4541 0.12155 1.1288 0.1011 2.3181 0.38371 3.3864 0.20127-0.08065 0.46319-0.3026 0.48318-0.5443-0.24194-2.8219-1.1483-5.3812-2.0357-7.9208-0.12085-0.16129-0.16083-0.36302-0.34234-0.48365-0.38278 0.38278-0.1413 1.6322-1.1086 1.3101-0.403-0.28238-0.22172-0.8067-0.52408-1.1288l-1.1286 0.3428c0.10087-0.36256 0.38278-0.66492 0.54407-1.008-0.1011-0.40323-0.22172-0.92708-0.1011-1.3101l0.52408-0.48365c0.42345-1.4107 1.4916-2.5395 1.6527-4.0711l-0.14107-0.52385c-3.7688-2.3583-6.3687-6.1675-5.7638-10.642 0.2015-0.96729 0.48388-1.955 1.209-2.6604 1.7131 0.16129 3.2651 0.9071 4.4946 2.0357l0.10272 0.10319c1.9753 1.8944 3.0211 4.2498 4.3514 6.467 0.54384-3.386 0.98774-6.8324 3.3458-9.4728 0.38301 0.14131 0.44762 0.58637 0.58451 0.9071z" fill="#24356e" stroke-width=".99999"/>
 <g transform="matrix(.23241 0 0 .23241 1.2816 1.4435)" fill="#fff" stroke-width="4.3027">
  <path d="m131.62 45.29-4.337-7.892c-3.294-2.515-7.022-4.249-9.8-7.458 0.694-4.423 1.908-8.499 3.382-12.487 7.806 6.937 12.227 16.735 10.755 27.837z"/>
  <path d="m137.26 40.693c5.375 7.63 13.44 10.32 19.166 16.477l2.081 7.458-0.434 0.694c-2.86-5.985-8.065-13.009-14.57-15.437-1.04 0.521-0.78 2.081-0.172 2.688 0.26 1.648 2.688 2.341 2.426 4.164 2.431 1.733 4.251 4.421 5.205 7.11 3.296 4.075 7.284 7.805 8.585 12.661l-0.434 0.434c-3.642-6.157-9.971-11.62-12.66-18.298-2.775-4.249-6.939-6.33-11.014-8.758-2.6-1.908-0.436-5.29-1.042-7.719 0.607-0.781 1.562-1.908 2.863-1.474z"/>
  <path d="m111.85 49.018c-4.162 4.422-7.89 9.279-12.489 13.182 1.474-5.29 6.072-11.187 11.274-14.222h1.646z"/>
  <path d="m113.32 54.221c-0.694 4.857-6.331 7.458-9.973 10.232l-6.07 4.77c1.82-4.162 5.809-7.196 9.019-10.58 2.34-1.474 4.335-3.815 7.024-4.422z"/>
  <path d="m150.96 71.912c3.122 2.947 5.204 6.678 9.019 8.326l1.821 2.515c-7.108 5.896 2.344 13.875-1.647 21.419l-1.214 4.162c-3.815-3.467-7.717-8.151-13.356-6.849-7.891 4.16-14.309 12.486-19.511 19.598l-5.204 8.064c-0.347-5.377 3.988-9.799 5.982-14.744 4.512-7.63 11.623-15.348 18.733-20.638 2.431-0.085 4.685 0.087 6.419 1.475 1.994 1.821 2.081 4.336 3.122 6.503 6.764-4.423 1.041-13.094 3.382-19.598-0.261-0.261-0.434-0.521-0.867-0.434-1.128 3.468-5.029 5.984-7.719 8.152 0.348-4.423 7.892-8.326 2.776-13.095-6.851-6.331-14.399-12.403-22.114-17.518 8.411 0.435 14.222 6.938 20.378 12.662z"/>
  <path d="m107.34 123.6c-1.907-10.581-0.433-22.46-2.949-32.694 0-8.41 5.031-14.654 9.368-21.246-4.683 16.909-6.505 35.816-6.419 53.94z"/>
  <path d="m143.76 85.093c-0.954 7.805-10.406 11.621-14.222 18.298l-4.944 5.983c3.294-9.02 4.596-19.86 11.013-28.097 0.607-3.729-0.608-7.285-1.647-10.579 5.376 2.774 9.973 7.977 9.8 14.395z"/>
  <path d="m116.02 113.8c0.085 4.165 0.175 8.847-1.649 12.489-1.82-19.079 2.341-38.07 7.719-55.414 1.732 14.829-1.563 29.658-6.07 42.925z"/>
  <path d="m94.592 88.995c-2.341-0.086-4.334-1.994-5.635-3.73 4.075-4.075 7.284-9.104 12.141-12.052-3.47 4.768-8.066 9.712-6.506 15.782z"/>
 </g>
 <g transform="matrix(.23241 0 0 .23241 1.2816 1.4435)" fill="#24356e" stroke-width="4.3027">
  <path d="m149.58 138.95c0.172 2.342-0.26 4.337-1.475 6.068l1.215 0.784c1.56 8.498-4.424 14.394-8.5 20.812 0.346-5.03 4.855-9.278 6.418-14.308-0.086-0.696 0.173-1.562-0.174-2.082h-0.606c-3.036 3.034-4.511 6.678-6.504 10.147 1.04-3.817 2.861-9.194 2.947-14.31-3.468-4.858-5.551-10.233-8.931-15.003-0.087-3.122 2.427-5.983 5.202-7.285 3.209 5.031 8.326 9.54 10.408 15.177z"/>
  <path d="m153.48 165.57c-1.475 13.702-2.314 30.117-9.512 41.476-1.766 1.545-4.933 2.593-8.057 4.525-20.141 10.758-28.01 22.814-34.988 33.663-0.221-0.883-0.25-1.284-0.441-2.648-0.332-18.874 20.215-29.926 31.145-45.971 3.816-5.375 7.543-10.666 9.8-16.649-2.257 0.433-4.25 2.603-6.42 3.989v-1.909c7.2-5.377 10.409-14.221 18.04-18.124z"/>
  <path d="m93.552 187.68c-11.186 7.807-24.369 17.604-28.879 30.957-1.473 3.817-2.514 7.807-3.814 11.707-0.606-20.03 11.36-38.589 29.138-48.735z"/>
  <path d="m99.796 197.05c-1.475 2.775-4.509 5.031-5.377 8.065-8.671 13.096-23.935 19.514-31.219 33.127l-3.99 6.677c2.949-21.333 26.365-34.427 35.816-53.507 1.127 2.083 2.949 3.818 4.77 5.638z"/>
  <path d="m123.73 197.48c-11.447 15.002-23.673 31.824-39.543 42.838-10.667 7.372-25.062 11.186-30.961 24.716 2.69-25.148 34.17-30.698 42.843-52.985 2.947-4.336 5.549-8.847 8.931-12.921 6.245 1.388 13.096 0.261 18.73-1.648z"/>
  <path d="m93.981 259.11s-1.802 7.802-4.349 12.817c-7.827 15.417-27.127 17.565-38.14 31.439l-4.339 5.811c5.291-12.401 11.19-25.061 19.167-36.597 7.632-9.104 17.779-17.603 22.029-28.357 3.335-5.277 5.983-7.804 9.626-11.013-3.296 7.111-2.163 16.745-3.994 25.9z"/>
  <path d="m84.901 172.33c1.746 2.134 2.132 4.652 3.293 6.978-28.493 13.568-38.7 44.563-42.837 73.074-1.193 8.221-1.316 12.552-0.579 20.933-10.276-36.051 3.682-71.521 26.554-98.66-8.916 2.328-17.252 12.214-21.904 20.548-11.047 18.608-20.74 38.379-18.608 61.832-9.303-26.943-0.192-59.312 20.159-80.052-13.179 3.682-25.781 18.027-33.146 29.849-8.334 14.15-14.148 30.818-14.925 46.909-5.233-32.759 6.399-65.903 34.893-84.514 14.147-7.558 34.115-4.65 47.1 3.103z"/>
 </g>
</svg>