<?xml version="1.0" encoding="UTF-8"?>
<!DOCTYPE svg PUBLIC "-//W3C//DTD SVG 1.1//EN" "http://www.w3.org/Graphics/SVG/1.1/DTD/svg11.dtd">
<!-- Creator: CorelDRAW 2019 (64-Bit) -->
<svg xmlns="http://www.w3.org/2000/svg" xml:space="preserve" width="184.302mm" height="184.302mm" version="1.1" style="shape-rendering:geometricPrecision; text-rendering:geometricPrecision; image-rendering:optimizeQuality; fill-rule:evenodd; clip-rule:evenodd"
viewBox="0 0 184.0063 184.0057"
 xmlns:xlink="http://www.w3.org/1999/xlink"
 xmlns:xodm="http://www.corel.com/coreldraw/odm/2003">
 <defs>
  <style type="text/css">
   <![CDATA[
    .fil1 {fill:#DF0913}
    .fil0 {fill:white}
   ]]>
  </style>
 </defs>
 <g id="Layer_x0020_1">
  <metadata id="CorelCorpID_0Corel-Layer"/>
  <g id="_855964096">
   <path class="fil0" d="M91.7639 183.0694c24.1431,0 47.2974,-9.5911 64.3686,-26.6635 17.071,-17.072 26.6599,-40.227 26.6575,-64.37 -0.0013,-24.1427 -9.5943,-47.2966 -26.6678,-64.3663 -17.0737,-17.0698 -40.2288,-26.6575 -64.3716,-26.6537 -24.1427,0.0038 -47.2956,9.598 -64.3642,26.6728 -17.0685,17.0749 -26.6547,40.2311 -26.6492,64.3742 0,24.1396 9.5906,47.2905 26.662,64.3586 17.0716,17.0674 40.2246,26.6535 64.3647,26.648z"/>
   <path class="fil1" d="M92.0029 3.0473c-23.5985,0 -46.231,9.3756 -62.917,26.0634 -16.6868,16.6865 -26.0598,39.32 -26.0583,62.9187 0.0019,23.599 9.3784,46.2304 26.0671,62.9157 16.6893,16.6847 39.3225,26.0567 62.9217,26.0531 23.5987,-0.0034 46.2298,-9.3818 62.9137,-26.0721 16.6827,-16.6901 26.0533,-39.3246 26.0481,-62.9232 -0.0268,-23.5876 -9.4102,-46.2019 -26.0901,-62.8794 -16.6814,-16.6763 -39.2975,-26.0545 -62.8851,-26.0761zm0 180.9584l0 0c-24.4004,0 -47.8021,-9.6933 -65.0558,-26.947 -17.254,-17.2536 -26.947,-40.6551 -26.947,-65.0557 0,-24.4006 9.693,-47.8028 26.947,-65.0553 17.2537,-17.255 40.6554,-26.9475 65.0558,-26.9475 24.4008,0 47.8021,9.6925 65.0559,26.9475 17.2537,17.2525 26.9474,40.6547 26.9474,65.0553 -0.0269,24.3927 -9.7281,47.7786 -26.977,65.0268 -17.2473,17.2483 -40.6337,26.9495 -65.0264,26.976z"/>
   <path class="fil1" d="M92.0029 21.3922c-18.7333,0 -36.6997,7.4425 -49.9456,20.6895 -13.2459,13.247 -20.6864,31.2142 -20.685,49.9476 0.0021,18.7334 7.446,36.6989 20.6944,49.9438 13.2486,13.245 31.2159,20.6833 49.9497,20.6799 18.7336,-0.0035 36.6983,-7.449 49.9416,-20.6989 13.2431,-13.2495 20.6805,-31.2179 20.6753,-49.9512 -0.0218,-18.724 -7.4693,-36.6742 -20.7112,-49.9123 -13.2419,-13.238 -31.1951,-20.6817 -49.9192,-20.6984zm0 155.5424l0 0c-22.5256,0 -44.1282,-8.9483 -60.0559,-24.8758 -15.9275,-15.9281 -24.8757,-37.5308 -24.8757,-60.0559 0,-22.5256 8.9482,-44.1282 24.8757,-60.0558 15.9277,-15.9276 37.5303,-24.8765 60.0559,-24.8765 22.5251,0 44.1274,8.9489 60.0564,24.8765 15.9276,15.9276 24.8751,37.5302 24.8751,60.0558 -0.0205,22.5185 -8.9758,44.1093 -24.8994,60.0324 -15.9224,15.9235 -37.5133,24.8783 -60.032,24.8992z"/>
   <path class="fil1" d="M126.9395 95.7874c7.13,3.1139 14.7909,4.8313 22.567,5.0594 8.2473,0.2985 11.5132,-4.8402 8.7841,-5.7166 -1.0747,-0.3589 -24.5979,-7.0111 -24.5979,-7.0111 0,0 -2.9081,-1.1355 -0.7372,-1.3746 2.1708,-0.239 11.9502,-0.1393 16.1332,-1.8327 5.0992,-1.9919 5.9757,-6.6923 4.8003,-6.6324 -10.2382,0.5375 -19.9179,0.3583 -20.4352,0.2786l-0.1802 0c0,0 -1.1347,-0.3784 -0.1188,-1.2747 1.0157,-0.8965 8.485,-7.1306 9.9595,-8.7042 3.9826,-3.9838 1.3134,-9.9594 0.6171,-9.4213 -4.8321,4.5317 -10.2278,8.4212 -16.0547,11.5724 -0.5181,0 -0.3784,-1.1355 0,-1.9919 1.4853,-1.9509 2.6991,-4.095 3.605,-6.3739 1.9919,-7.4099 1.4743,-12.09 -2.7087,-13.9427 -0.7563,-0.3194 -1.0355,0.0996 -1.9917,2.3906 -0.9563,2.2908 -1.3547,6.3337 -5.0993,7.9672 -1.9919,0.7965 -5.4576,3.9833 -5.517,5.3777 -0.0598,1.3945 0.7367,3.3464 -0.259,3.9837 -0.9962,0.6375 -2.1511,-0.3983 -3.4062,0.6174 -1.2549,1.0158 -4.6411,4.482 -5.836,5.3782 -1.1954,0.896 -3.6054,2.3503 -5.1192,1.5337 -3.2866,-3.2471 -1.693,-12.7878 -1.693,-12.7878 0.7785,0.1234 1.5717,0.1234 2.3502,0 1.0885,-0.2105 2.0403,-0.8648 2.6264,-1.8062 0.5859,-0.9413 0.753,-2.0836 0.461,-3.1532 -0.7136,0.7865 -1.7263,1.2348 -2.7883,1.2348 -1.3347,0.1192 -1.6929,-0.4183 -1.9919,-1.6136 -0.4233,-1.2469 -0.4233,-2.5974 0,-3.8444 0.5775,-1.9919 2.6093,-2.968 3.7647,-3.8842 1.1553,-0.9161 0.5375,-4.4208 0.5375,-4.4208 -0.308,0.6669 -0.7331,1.2739 -1.2547,1.7926 -1.1157,1.0349 -2.6294,0.7359 -5.8561,0.5366 -1.8954,0.1034 -3.7422,-0.6235 -5.0592,-1.9919 -0.518,-0.6171 -4.7404,-0.1584 -5.9756,-0.0984 -2.8234,0.3348 -5.6104,0.9289 -8.3259,1.7721 -1.8102,0.6248 -3.5521,1.4323 -5.1985,2.4097 -0.7172,0.5775 -0.4582,1.1154 -0.4582,1.1154l0.6374 1.753c1.4638,-1.0017 3.0685,-1.7798 4.7603,-2.3101 2.3507,-0.6376 2.6292,0.4383 2.9281,1.4541 0.2407,0.7282 0.4268,1.4744 0.558,2.2308 -2.4721,0.534 -5.0078,0.7079 -7.5294,0.5175 -3.6647,-0.1994 -3.8639,-1.8131 -3.8244,-2.7687 0,-0.3386 -1.0556,0 -1.4738,0.9557 -0.7372,1.6342 -0.9564,4.3827 6.5531,4.2833 2.2645,-0.1063 4.4944,-0.5978 6.5931,-1.4545 0.5774,1.992 0,2.3111 -0.9364,2.4502 -1.7926,0.4408 -3.6748,0.3509 -5.4176,-0.259 0,0 -0.4982,1.6336 -0.1392,1.9919 2.2578,1.2122 4.8137,1.7579 7.3695,1.5737 0.777,0 1.3946,-0.558 1.8126,-0.1991 0.5262,0.791 0.8916,1.6774 1.0757,2.6093 0,0.6173 -0.1197,1.0355 -1.9919,0.9955 -1.8722,-0.0393 -2.5099,0 -2.4301,0.3789 0.7331,0.8021 1.5251,1.5477 2.3702,2.2304 0.3788,0.3788 2.2709,-1.6131 2.2709,-1.6131 -0.0829,0.3469 -0.0829,0.7088 0,1.0556 0.1591,0.7965 0.6773,7.0113 -3.1873,8.804 -1.4938,0.8166 -3.9833,-0.6374 -5.0988,-1.5337 -1.1154,-0.8963 -4.6609,-4.382 -5.8564,-5.3781 -1.1948,-0.9957 -2.5493,0 -3.3458,-0.5576 -0.797,-0.5579 -0.2191,-2.7489 -0.2792,-3.9837 -0.0598,-1.2347 -3.5854,-4.5812 -5.4974,-5.3777 -3.7447,-1.5536 -4.1231,-5.5779 -5.1193,-7.9672 -0.9957,-2.3906 -1.2548,-2.7099 -1.9914,-2.3906 -4.183,1.7734 -4.681,6.4535 -2.7091,13.9427 0.8645,2.2621 2.0373,4.3935 3.4857,6.3341 0.3984,0.8764 0.5381,2.1116 0,1.9919 -5.8199,-3.1618 -11.2147,-7.0503 -16.0543,-11.5726 -0.6773,-0.6373 -3.4458,5.3384 0.6172,9.4214 1.5739,1.5737 8.9439,7.7285 10.0593,8.7042 1.1149,0.9762 -0.1198,1.2751 -0.1198,1.2751l-0.1791 0c-0.5973,0 -10.1983,0.2585 -20.4363,-0.2791 -1.1948,0 -0.2985,4.5413 4.8003,6.6331 4.1628,1.6929 13.9432,1.613 16.134,1.8321 2.1911,0.2191 -0.7371,1.3745 -0.7371,1.3745 0,0 -23.5237,6.6524 -24.6192,7.0112 -2.7085,0.8765 0.558,5.9757 8.784,5.7165 7.784,-0.2254 15.4515,-1.9435 22.5877,-5.0592 2.9679,-1.1355 1.1952,0.9557 0.5579,1.394 -4.422,3.1273 -17.4488,11.9513 -23.6036,15.9351 -0.8764,0.5774 -0.9957,1.2147 0,2.2703 4.8202,5.1193 13.9432,-0.7567 17.548,-2.7486 4.2229,-2.3501 14.2418,-9.9594 15.0388,-9.103 0.2985,0.3189 -0.279,3.1473 -6.4737,9.7803 0.6338,0.6239 1.2986,1.2158 1.9919,1.7727 0,0 -2.9477,3.5652 -4.9794,5.796 -0.8167,0.8765 -2.7291,2.789 -3.2468,2.6891 -0.518,-0.0997 -3.1673,-2.9874 -4.0834,-3.0473 -0.5776,0 -1.8124,0.8564 -2.7086,0.3383 -1.2448,-0.27 -2.5444,-0.0864 -3.6654,0.5182 -1.414,0.6571 -1.1549,3.9838 -0.7566,2.4899 0.3982,-1.4942 3.1867,-1.4144 4.6011,0.2191 0.7362,0.7706 1.6441,1.3575 2.6492,1.7128 0.8563,0.1992 1.2946,0.4781 0.9358,0.7172 -1.605,0.5535 -3.1424,1.2887 -4.5812,2.191 -0.4182,0.6968 -0.1991,0.9358 -0.3583,1.2947 -1.932,0.7766 -2.5293,1.5137 -1.932,3.5056 0.1746,0.548 0.4086,1.0756 0.6973,1.5732 0.3183,-0.5775 0.159,-2.4694 2.171,-2.9077 0.219,0 0.5775,0.259 0.9559,0.259 1.6324,-0.477 3.1367,-1.3141 4.4019,-2.45 0.538,-0.6773 0.4182,0.3983 0,1.0555 -1.693,3.1274 -1.0555,5.0394 -0.9164,5.0992 0.1399,0.0594 0.618,-0.1397 0.8571,0.4583 0.6377,1.915 1.9948,3.5072 3.784,4.4414 -0.6577,-1.4918 -0.9771,-3.1103 -0.9358,-4.7403 0.3185,-0.1593 0.5775,0 0.9557,-0.1593 0.4947,-0.7546 0.7769,-1.6285 0.8166,-2.5297 0,-1.2947 -0.7766,-1.713 -0.7567,-2.4896 0.0634,-0.5819 0.2616,-1.1409 0.5777,-1.6335 0.4632,0.9142 1.0241,1.7757 1.6732,2.5694 1.5537,1.6534 1.2747,1.9918 2.9277,1.3744 0.319,-0.1392 2.5101,3.4458 2.5101,3.4458 0.4363,-1.0651 0.574,-2.2284 0.3984,-3.3659 -0.1593,-0.6179 -0.7572,-0.8764 -1.1755,-1.4144 -0.4182,-0.5375 0.7372,-1.2147 0.1798,-1.9919 -3.1674,-3.0274 -3.4662,-1.9919 -4.2827,-3.9838 -0.5577,-1.3346 0.518,-2.2304 1.6335,-3.565 2.7684,-3.3464 2.8683,-3.3066 4.5013,-5.2784 0.6773,0.4583 1.0755,0.8964 1.9919,1.593 3.1074,-4.5412 5.7366,-8.6443 8.6449,-9.6999 2.9077,-1.0555 4.2423,0.6375 4.2423,2.4302 -0.1393,3.0873 -6.354,9.7598 -6.354,9.7598 -2.168,2.1236 -4.1664,4.4149 -5.9758,6.8521 -0.5025,0.8808 -0.8399,1.8461 -0.9957,2.8483 -0.1197,1.3869 -0.026,2.7844 0.2791,4.1428 0.2391,1.2947 0.5177,2.3104 0.5177,2.3104 0,0 0.9163,-3.3259 1.1353,-3.7247 0.5975,-1.135 0.7173,0 1.5936,2.2309 0.7781,1.7519 1.697,3.4373 2.7487,5.0393l0 -5.7166c0,-1.4737 0.1795,-3.4656 0.8563,-1.9919 0.8465,1.6062 1.7843,3.1623 2.8089,4.6611 0,0 0,-1.1753 0.1194,-2.5694 0.2814,-2.3756 0.8225,-4.7134 1.6135,-6.9713 0.4582,-0.8371 2.4695,-4.3426 4.8997,-4.7209 2.43,-0.3783 2.649,3.9837 2.49,4.9201 -0.2801,1.5765 -0.7274,3.1188 -1.3346,4.6011 -0.2393,0.4581 -2.1511,3.9838 -2.4102,4.7603 -1.8173,3.9637 -0.7281,8.6547 2.6491,11.4132 0.1876,-2.2549 0.6833,-4.4729 1.4738,-6.593 0.498,-0.7172 1.1754,-1.1754 1.6735,-0.4782 1.2602,2.3868 2.7545,4.6421 4.4612,6.7324 1.707,-2.0902 3.2017,-4.3456 4.4619,-6.7324 0.4982,-0.6972 1.175,-0.239 1.6729,0.4782 0.8016,2.1201 1.3173,4.3371 1.5338,6.593 3.4013,-2.709 4.5683,-7.3596 2.8482,-11.3533 -0.259,-0.6773 -2.171,-4.3027 -2.4101,-4.7609 -0.6068,-1.4818 -1.0544,-3.0239 -1.3346,-4.6011 -0.1792,-0.9358 0,-5.2779 2.49,-4.9196 2.4901,0.3584 4.442,3.9838 4.9,4.7205 0.7434,2.2634 1.2379,4.6012 1.4738,6.9718 0.0994,1.394 0.1193,2.5694 0.1193,2.5694 1.0247,-1.4988 1.9624,-3.055 2.8084,-4.6611 0.6574,-1.4737 0.777,0.5182 0.857,1.9919l0 5.6967c1.0496,-1.6002 1.9625,-3.2856 2.7286,-5.0395 0.8962,-2.2308 1.0157,-3.3663 1.6135,-2.2308 0.1992,0.3983 1.1353,3.7247 1.1353,3.7247 0,0 0.2787,-1.0156 0.5178,-2.3103 0.3083,-1.358 0.3963,-2.757 0.2591,-4.143 -0.1375,-1.0067 -0.4762,-1.9754 -0.9957,-2.8483 -1.8018,-2.4436 -3.8002,-4.7348 -5.9757,-6.8521 0,0 -6.2148,-6.6728 -6.354,-9.7602 0,-1.7529 1.2347,-3.4458 4.123,-2.3702 2.8883,1.0756 5.5375,5.1591 8.6248,9.7004 0.9558,-0.6973 1.3347,-1.1355 1.9919,-1.5936 1.6331,1.9919 1.7328,1.9919 4.5013,5.2784 1.1156,1.3346 2.1711,2.2309 1.6337,3.5656 -0.817,1.9919 -1.1156,0.9363 -4.2827,3.9837 -0.5575,0.8565 0.5973,1.5336 0.1791,1.9919 -0.4182,0.4582 -1.0158,0.7966 -1.1748,1.414 -0.1489,1.1148 0.0025,2.2493 0.4382,3.2864 0,0 2.1909,-3.5849 2.5094,-3.4457 1.6336,0.6572 1.3545,0.2789 2.9281,-1.3746 0.6684,-0.784 1.2499,-1.639 1.7329,-2.5493 0.3025,0.497 0.4928,1.0546 0.558,1.633 0,0.7771 -0.6972,1.1953 -0.7372,2.49 0.04,0.9013 0.3221,1.7753 0.8166,2.5294 0.3781,0.219 0.6375,0 0.957,0.1596 0.0407,1.6296 -0.2787,3.2487 -0.9367,4.7405 1.7096,-0.9459 2.9976,-2.5045 3.6044,-4.3622 0.2594,-0.5973 0.4777,-0.3189 0.8765,-0.4581 0.3987,-0.1393 0.7576,-1.9919 -0.9352,-5.0993 -0.3387,-0.6573 -0.4588,-1.7329 0,-1.0556 1.2622,1.14 2.7673,1.978 4.4016,2.4501 0.3781,0 0.7372,-0.2989 0.9365,-0.259 1.9906,0.4381 1.8718,2.3308 2.19,2.9081 0.2785,-0.5035 0.511,-1.03 0.6975,-1.5736 0.6581,-2.151 0.1394,-2.8085 -1.9919,-3.5655 -0.1596,-0.3584 0,-0.5974 -0.3576,-1.2947 -1.4413,-0.8984 -2.9783,-1.633 -4.5819,-2.1911 -0.3589,-0.239 0,-0.5175 0.9366,-0.7166 1.0056,-0.3553 1.9127,-0.9423 2.6486,-1.7133 1.4143,-1.633 4.2228,-1.673 4.6009,-0.2191 0.3782,1.4544 0.6581,-1.8322 -0.7564,-2.4894 -1.1218,-0.6024 -2.4212,-0.7861 -3.6644,-0.5182 -0.9173,0.5182 -2.1514,-0.3583 -2.7099,-0.3383 -0.916,0 -3.5851,2.9476 -3.9838,3.0473 -0.3974,0.0993 -2.4297,-1.8126 -3.2462,-2.6891 -1.992,-2.2309 -4.9995,-5.7965 -4.9995,-5.7965 0.6977,-0.5514 1.363,-1.1434 1.9919,-1.7722 -6.1748,-6.6329 -6.7524,-9.4614 -6.4538,-9.7803 0.777,-0.8166 10.8153,6.7523 15.0188,9.103 3.6248,1.9919 12.7474,7.8677 17.5668,2.7486 0.9967,-1.0556 0.8765,-1.6929 0,-2.2709 -6.1533,-3.9832 -19.1601,-12.7873 -23.5826,-15.9345 -0.6374,-0.4383 -2.4301,-2.5294 0.558,-1.3941l0.0195 -0.02z"/>
   <path class="fil1" d="M103.3564 32.1285c0,0 -6.7124,2.8276 -7.3102,3.2862 -1.1549,-0.9953 -4.5014,-3.9838 -4.8796,-4.3223 -0.3784,0.3386 -3.7247,3.327 -4.8802,4.3223 -0.5973,-0.4587 -7.2304,-3.2862 -7.3101,-3.2862 -0.0793,0 1.8526,2.7892 3.0081,4.7006 0.7385,1.422 1.0561,3.0255 0.9164,4.6214l16.5717 0c-0.1283,-1.5958 0.1887,-3.1956 0.9163,-4.6214 1.1548,-1.9919 3.0076,-4.7006 3.0076,-4.7006l-0.0398 0z"/>
   <path class="fil0" d="M85.6691 49.8155c1.5746,-0.7603 3.3699,-0.9302 5.0593,-0.4778l-4.2827 3.4459c-0.3315,-0.9684 -0.591,-1.9612 -0.7766,-2.968z"/>
   <path class="fil0" d="M104.4318 88.7363c3.7847,-0.6773 8.7243,-1.8921 13.9433,-11.015 -4.9401,-0.9363 -5.7767,-3.4258 -5.7767,-3.4258 0,0 2.6892,-0.7172 6.4339,2.2509 0.1992,-6.354 3.9834,-7.37 3.9834,-7.37 0,0 1.5736,3.5056 -3.2067,7.7085 4.7008,0.9957 5.8558,3.5256 5.8558,3.5256 0,0 -2.4894,0.9163 -6.3139,-2.2709 -5.6768,10.3577 -11.9508,12.5886 -14.8592,12.5886 0.0689,-0.6623 0.0689,-1.3297 0,-1.9919l-0.0598 0z"/>
   <path class="fil0" d="M83.498 82.3624c0.0977,3.7168 0.491,7.4201 1.1749,11.0744 0.8304,4.9929 2.5794,9.7877 5.159,14.1422 0.5841,1.0281 1.2497,2.0074 1.9919,2.9276 0.8205,-0.9142 1.5667,-1.8935 2.2309,-2.9276 2.5793,-4.3546 4.3286,-9.1494 5.1586,-14.1422 0.6842,-3.6543 1.0771,-7.3576 1.1754,-11.0744 0,0 -16.8509,0 -16.8907,0z"/>
   <path class="fil0" d="M79.4344 88.7363c-3.7841,-0.6773 -8.7042,-1.8921 -13.9428,-11.015 4.9396,-0.9363 5.7765,-3.4258 5.7765,-3.4258 0,0 -2.6892,-0.7172 -6.4337,2.2509 -0.2191,-6.354 -3.9839,-7.37 -3.9839,-7.37 0,0 -1.5736,3.5056 3.2072,7.7085 -4.701,0.9957 -5.8564,3.5256 -5.8564,3.5256 0,0 2.4901,0.9163 6.314,-2.2709 5.6773,10.3577 11.8515,12.5886 14.8395,12.5886 -0.0457,-0.6633 -0.0457,-1.3286 0,-1.9919l0.0795 0z"/>
   <polygon class="fil1" points="96.6042,100.468 96.6042,98.2569 91.1665,98.2569 91.1665,94.0546 96.0265,94.0546 96.0265,91.8437 91.1665,91.8437 91.1665,88.2782 95.9867,88.2782 95.9867,86.0671 87.8801,86.0671 87.8801,100.468 "/>
  </g>
 </g>
</svg>
