<?xml version="1.0" encoding="UTF-8" standalone="no"?>
<svg
   clip-rule="evenodd"
   fill-rule="evenodd"
   stroke-linejoin="round"
   stroke-miterlimit="2"
   viewBox="0 0 263.80051 270"
   version="1.1"
   id="svg26"
   sodipodi:docname="Everton.svg"
   width="263.80051"
   height="270"
   xmlns:inkscape="http://www.inkscape.org/namespaces/inkscape"
   xmlns:sodipodi="http://sodipodi.sourceforge.net/DTD/sodipodi-0.dtd"
   xmlns="http://www.w3.org/2000/svg"
   xmlns:svg="http://www.w3.org/2000/svg">
  <defs
     id="defs26" />
  <sodipodi:namedview
     id="namedview26"
     pagecolor="#ffffff"
     bordercolor="#000000"
     borderopacity="0.25"
     inkscape:showpageshadow="2"
     inkscape:pageopacity="0.0"
     inkscape:pagecheckerboard="0"
     inkscape:deskcolor="#d1d1d1" />
  <g
     fill-rule="nonzero"
     id="g26"
     transform="translate(-148.09975,-65)">
    <path
       d="m 411.862,235.125 c -0.051,-0.153 -0.153,-0.255 -0.307,-0.255 l -16.444,-6.333 c 0.307,-1.174 0.92,-2.758 2.043,-4.392 l 8.477,3.728 c 0.307,0.153 0.562,0.205 0.869,0.205 0.766,0 1.481,-0.409 1.889,-1.073 0.204,-0.357 0.868,-1.43 1.43,-2.809 0.817,-2.196 1.021,-4.187 0.511,-5.821 -0.511,-1.737 -1.737,-3.065 -3.575,-3.882 l -22.623,-10.367 c 0,0 -0.103,-0.051 -0.154,-0.102 -0.868,-0.357 -2.502,-0.817 -4.494,-0.153 v -2.145 c 0,-1.736 -0.051,-3.575 -0.153,-5.413 -0.102,-1.89 -0.255,-3.83 -0.46,-5.822 -1.327,-11.439 -3.983,-19.866 -5.055,-22.93 l -0.409,-1.021 c -4.443,-12.359 -7.916,-22.164 -7.813,-33.859 0.051,-8.835 11.082,-21.193 15.32,-25.228 l 3.984,-3.779 -41.826,-38.148 -3.319,2.196 c -7.66,5.056 -17.568,7.813 -27.935,7.813 -10.826,0 -21.142,-3.013 -28.905,-8.477 l -2.91,-2.043 -2.911,2.043 c -7.814,5.464 -18.079,8.477 -28.905,8.477 -10.367,0 -20.274,-2.757 -27.935,-7.813 l -3.319,-2.196 -37.791,34.471 -4.034,3.677 3.932,3.779 c 4.239,4.035 15.269,16.393 15.371,25.228 0.052,11.695 -3.421,21.5 -7.864,33.859 l -0.358,1.021 c -1.072,3.064 -3.779,11.491 -5.055,22.93 -0.205,1.992 -0.358,3.932 -0.46,5.822 -0.102,1.838 -0.204,3.677 -0.204,5.413 0,0.715 0,1.43 0.051,2.145 -1.992,-0.664 -3.626,-0.204 -4.443,0.153 h -0.051 c -0.051,0.051 -0.102,0.102 -0.153,0.102 l -22.624,10.367 c -1.838,0.817 -3.064,2.145 -3.575,3.882 -0.51,1.634 -0.306,3.625 0.511,5.821 0.562,1.379 1.226,2.452 1.481,2.809 0.357,0.664 1.072,1.073 1.838,1.073 0.307,0 0.562,-0.052 0.869,-0.205 l 8.477,-3.728 c 1.124,1.634 1.685,3.218 2.043,4.392 l -16.444,6.333 c -0.154,0 -0.256,0.102 -0.307,0.255 -0.051,0.153 -0.051,0.255 0,0.409 l 0.971,2.502 c 10.264,25.636 27.73,47.647 50.455,63.478 21.143,14.708 45.911,23.339 71.599,24.922 l 8.477,8.375 c 0.102,0.102 0.204,0.153 0.358,0.153 0.102,0 0.255,-0.051 0.357,-0.153 l 8.477,-8.375 c 25.688,-1.583 50.456,-10.214 71.548,-24.922 22.776,-15.831 40.242,-37.842 50.507,-63.478 l 0.97,-2.502 c 0.051,-0.154 0.051,-0.256 0,-0.409"
       fill="#ffffff"
       id="path1" />
    <g
       fill="#274488"
       id="g25">
      <path
         d="m 174.147,215.734 c -0.817,-2.145 -1.072,-4.341 -0.766,-6.281 0.051,-0.102 0.051,-0.256 0.103,-0.409 l 0.204,-1.021 -19.355,8.886 c -1.124,0.511 -1.839,1.225 -2.094,2.196 -0.613,2.043 0.664,4.698 1.226,5.771 l 0.255,0.408 20.632,-9.09 z"
         id="path2" />
      <path
         d="m 385.863,215.734 c 0.817,-2.145 1.072,-4.341 0.766,-6.281 -0.051,-0.102 -0.051,-0.256 -0.102,-0.409 l -0.256,-1.021 19.406,8.886 c 1.124,0.511 1.839,1.225 2.094,2.196 0.613,2.043 -0.664,4.698 -1.225,5.771 l -0.256,0.408 -20.631,-9.09 z"
         id="path3" />
      <path
         d="m 213.169,288.977 -3.013,2.4 2.604,1.685 1.022,-3.677 c 0.102,-0.459 0.204,-0.817 0.306,-1.123 -0.306,0.204 -0.613,0.46 -0.919,0.715"
         id="path4" />
      <path
         d="m 318.243,300.432 c -1.532,0.51 -2.145,2.247 -1.226,4.851 0.919,2.809 2.298,3.677 3.983,3.115 1.584,-0.51 2.196,-2.093 1.226,-4.851 -0.919,-2.86 -2.298,-3.677 -3.983,-3.115"
         id="path5" />
      <path
         d="m 330.152,295.805 -0.817,0.408 1.685,3.626 c 0.255,-0.051 0.817,-0.306 0.97,-0.408 1.226,-0.562 1.635,-1.481 1.073,-2.707 -0.613,-1.328 -1.634,-1.532 -2.911,-0.919"
         id="path6" />
      <path
         d="m 302.223,189.587 c 0,-0.051 -2.401,-0.715 -4.137,-1.021 -2.145,-0.358 -3.422,-0.409 -3.83,-0.46 -0.46,-0.102 -1.634,-0.102 -1.583,-0.766 0,-0.46 0.51,-0.562 1.021,-0.613 0.766,-0.051 2.758,0.153 3.932,0.307 2.809,0.408 4.597,0.97 4.597,0.868 v -3.524 c 0,-0.102 -3.933,-1.43 -8.171,-1.889 -2.86,-0.256 -4.188,-0.205 -5.873,-0.256 -0.307,0 -0.971,0.102 -0.971,-0.459 0,-0.562 0.613,-0.613 0.817,-0.664 2.145,-0.205 4.903,-0.256 7.763,-0.051 3.166,0.204 6.383,1.327 6.383,1.225 v -3.779 c -1.225,-0.562 -3.013,-1.123 -4.494,-1.379 -1.889,-0.306 -4.391,-0.459 -4.749,-0.459 -0.357,0 -0.511,-0.205 -0.562,-0.358 -0.051,-0.255 0.102,-0.459 0.46,-0.562 0.562,-0.102 1.941,-0.153 3.626,-0.102 1.225,0.051 4.187,0.358 5.668,0.562 l -0.051,-2.911 c -2.808,-1.481 -7.149,-2.196 -9.958,-2.604 -4.239,-0.664 -8.12,-0.766 -8.784,-0.766 -0.357,-0.051 -0.715,-0.051 -0.766,-0.409 0,-0.306 0.204,-0.562 0.766,-0.562 0.511,0 3.83,-0.102 9.039,0.358 2.503,0.204 7.456,1.174 9.703,1.634 l -0.051,-2.86 c -2.502,-1.225 -6.434,-2.145 -12.103,-2.962 -6.945,-1.021 -20.223,-0.562 -20.938,-0.459 -0.97,0.051 -1.124,-0.154 -1.175,-0.511 -0.051,-0.358 0.307,-0.562 1.022,-0.715 0.715,-0.102 9.805,-0.97 17.159,-0.613 5.566,0.255 13.584,1.839 16.035,2.298 l -0.051,-2.247 c -4.187,-2.86 -11.082,-3.166 -11.541,-3.166 -0.46,-0.051 -0.766,-0.255 -0.817,-0.511 -0.052,-0.255 0.255,-0.459 0.612,-0.51 0.358,-0.052 1.379,-0.154 3.524,0 1.736,0.102 6.384,1.072 8.222,1.481 l -0.051,-2.247 c -3.115,-1.839 -10.316,-2.911 -15.882,-3.422 0,0 -0.664,-0.051 -1.89,-0.102 l -0.102,1.481 c 0,0.459 -0.357,0.766 -0.817,0.766 -3.268,-0.153 -4.443,-0.153 -7.711,0 h -0.051 c -0.409,0 -0.766,-0.307 -0.766,-0.766 l -0.103,-1.481 c -2.962,0.102 -6.434,0.357 -10.315,0.766 -0.562,0.051 -1.124,0.204 -1.175,-0.204 -0.102,-0.256 0.051,-0.46 0.766,-0.664 0.562,-0.102 8.273,-1.175 10.214,-1.379 h 0.408 l -0.51,-9.499 c 0,-0.204 0.102,-0.409 0.204,-0.613 0.153,-0.153 0.357,-0.255 0.562,-0.255 3.983,-0.153 5.362,-0.153 9.243,0 0.204,0 0.409,0.102 0.562,0.255 0.102,0.153 0.204,0.358 0.204,0.511 1.787,0.051 3.575,0.153 5.005,0.255 3.013,0.153 10.111,1.175 12.001,1.43 v -2.196 c -0.358,-0.255 -0.868,-0.408 -1.277,-0.613 -1.991,-0.766 -9.703,-2.093 -20.683,-2.093 -11.03,0 -17.618,1.429 -18.64,1.685 -1.123,0.306 -2.349,0.715 -2.298,1.43 l 0.153,24.87 c -0.153,1.685 0.052,8.375 0.103,9.959 0.051,2.604 4.136,4.238 13.073,7.353 9.346,3.422 21.143,7.099 30.029,9.55 z"
         id="path7" />
      <path
         d="m 294.383,194.745 c -1.787,-0.511 -2.706,-0.817 -4.494,-1.379 -0.204,-0.051 -0.357,0.051 -0.357,0.256 v 7.762 c 0,0.204 0.153,0.357 0.306,0.46 1.788,0.612 2.707,0.919 4.545,1.532 0.154,0.102 0.307,-0.051 0.307,-0.205 v -7.966 c 0,-0.205 -0.153,-0.409 -0.307,-0.46"
         id="path8" />
      <path
         d="m 286.841,192.442 c -1.839,-0.562 -2.707,-0.817 -4.545,-1.43 -0.154,-0.051 -0.307,0.051 -0.307,0.204 v 7.558 c 0,0.154 0.153,0.358 0.307,0.409 1.787,0.613 2.706,0.97 4.545,1.583 0.153,0.051 0.306,0 0.306,-0.204 v -7.712 c 0,-0.153 -0.153,-0.357 -0.306,-0.408"
         id="path9" />
      <path
         d="m 271.699,187.447 c -1.839,-0.613 -2.707,-0.919 -4.545,-1.634 -0.154,-0.051 -0.307,0.051 -0.307,0.204 v 7.405 c 0,0.154 0.153,0.358 0.307,0.409 1.787,0.613 2.706,0.97 4.545,1.634 0.153,0.051 0.306,-0.051 0.306,-0.204 v -7.405 c 0,-0.153 -0.153,-0.307 -0.306,-0.409"
         id="path10" />
      <path
         d="m 297.631,132.727 c -0.153,-0.255 -0.255,-0.561 -0.459,-0.97 -1.788,-0.664 -6.282,-1.787 -9.499,-2.094 -0.613,-0.051 -1.532,-0.102 -1.532,-0.562 0,-0.408 0.357,-0.561 1.379,-0.561 2.604,0.051 6.792,0.715 8.63,1.072 -0.51,-1.123 -1.123,-2.451 -1.787,-3.881 -3.473,-1.328 -10.06,-1.736 -11.235,-1.839 -1.277,-0.153 -1.685,-0.306 -1.583,-0.715 0.051,-0.408 0.868,-0.357 2.86,-0.408 2.298,-0.051 7.354,0.357 8.783,0.511 -0.459,-1.022 -0.97,-2.094 -1.481,-3.269 -1.94,-1.328 -5.617,-1.583 -6.638,-1.634 -0.971,-0.051 -1.328,-0.409 -1.277,-0.715 0.051,-0.357 0.562,-0.46 0.97,-0.511 0.358,0 4.596,-0.051 4.954,-0.102 0.255,0 0.51,-0.153 0.306,-0.511 -0.408,-0.919 -0.664,-1.481 -1.123,-2.4 -0.664,-0.306 -1.532,-0.561 -2.247,-0.664 -0.613,-0.102 -2.605,-0.204 -3.626,-0.306 -0.562,-0.153 -0.664,-0.255 -0.664,-0.46 0,-0.255 0.153,-0.408 0.664,-0.459 1.277,-0.102 3.626,0 4.136,-0.051 0.358,0 0.766,-0.154 0.613,-0.46 -0.255,-0.613 -0.51,-1.123 -0.766,-1.685 -0.562,-0.256 -1.43,-0.409 -2.145,-0.562 -0.919,-0.204 -2.655,-0.357 -4.085,-0.409 -0.358,0 -0.664,-0.204 -0.664,-0.408 0,-0.204 0.153,-0.409 0.562,-0.46 0.97,-0.153 3.013,-0.153 3.83,-0.204 0.664,-0.051 1.481,-0.153 1.225,-0.715 -0.459,-0.919 -0.715,-1.583 -1.174,-2.451 -0.613,0 -1.685,-0.051 -2.451,-0.153 -0.307,-0.052 -0.715,-0.103 -0.715,-0.358 -0.051,-0.255 0.357,-0.408 0.715,-0.562 0.255,-0.102 1.123,-0.357 1.736,-0.51 -0.306,-0.562 -0.511,-1.073 -0.766,-1.635 -0.868,-0.051 -2.451,-0.153 -3.677,-0.153 -0.511,0 -0.766,-0.255 -0.766,-0.459 0,-0.205 0.102,-0.358 0.664,-0.46 0.919,-0.255 2.349,-0.357 3.064,-0.409 -0.817,-1.736 -1.583,-3.421 -2.298,-4.953 -5.618,12.001 -15.934,34.114 -17.619,37.637 5.822,-1.378 13.687,-1.889 17.363,-1.889 3.677,0 11.951,0.562 17.823,1.787"
         id="path11" />
      <path
         d="m 264.115,184.73 c -1.787,-0.663 -2.707,-0.97 -4.545,-1.685 -0.153,-0.051 -0.306,0 -0.306,0.204 v 7.508 c 0,0.204 0.153,0.408 0.306,0.408 1.838,0.664 2.758,0.97 4.545,1.634 0.204,0 0.307,-0.051 0.307,-0.255 v -7.405 c 0,-0.153 -0.103,-0.306 -0.307,-0.409"
         id="path12" />
      <path
         d="m 279.277,190.026 c -1.838,-0.561 -2.706,-0.919 -4.545,-1.532 -0.153,-0.051 -0.306,0.051 -0.306,0.205 v 7.404 c 0,0.154 0.153,0.358 0.306,0.409 1.788,0.664 2.707,0.97 4.545,1.583 0.154,0.102 0.307,0 0.307,-0.153 v -7.507 c 0,-0.153 -0.153,-0.358 -0.307,-0.409"
         id="path13" />
      <path
         d="m 264.61,227.705 c 0,-1.941 -1.429,-3.371 -3.319,-3.371 -2.656,0 -3.779,1.992 -3.983,5.413 l 4.8,-0.153 c 1.787,0 2.502,-0.561 2.502,-1.889"
         id="path14" />
      <path
         d="m 313.555,224.237 c -3.473,0 -4.801,3.166 -4.801,8.12 0,5.873 1.737,8.988 4.954,8.988 3.217,0 4.954,-2.758 4.954,-8.12 0,-5.822 -1.839,-8.988 -5.107,-8.988"
         id="path15" />
      <path
         d="m 291.6,148.303 c 0.409,-0.051 2.247,-0.051 4.647,0.256 1.788,0.255 4.392,0.817 5.567,1.072 v -2.043 c -2.451,-1.021 -8.069,-2.043 -11.082,-2.4 -1.838,-0.255 -3.983,-0.46 -6.077,-0.613 l -0.409,8.018 c 1.073,0.051 1.788,0.051 1.788,0.051 1.379,0.102 2.757,0.153 4.136,0.306 5.311,0.511 9.754,1.533 11.695,1.941 v -2.86 c -3.013,-2.502 -9.958,-2.706 -10.367,-2.706 -0.408,0 -0.817,-0.103 -0.817,-0.511 0,-0.409 0.511,-0.46 0.919,-0.511"
         id="path16" />
      <path
         d="m 258.972,139.984 c 0.92,-0.204 7.967,-2.758 20.836,-2.758 12.819,0 20.479,2.809 21.398,3.218 1.022,0.459 1.941,0.766 2.4,0 0.409,-0.766 -0.102,-1.737 -0.817,-2.196 -2.808,-1.788 -12.665,-4.035 -22.981,-3.881 -10.366,0.051 -20.733,2.349 -22.163,2.962 -1.481,0.561 -2.094,1.429 -1.635,2.247 0.767,1.378 2.043,0.663 2.962,0.408"
         id="path17" />
      <path
         d="m 301.916,196.982 c -1.787,-0.562 -2.707,-0.817 -4.494,-1.328 -0.204,-0.051 -0.306,0.051 -0.306,0.255 -0.051,3.371 -0.051,5.056 -0.051,8.069 0,0.205 0.153,0.358 0.306,0.46 1.838,0.613 2.758,0.919 4.545,1.583 0.153,0.051 0.307,-0.051 0.307,-0.204 v -8.376 c 0,-0.204 -0.154,-0.408 -0.307,-0.459"
         id="path18" />
      <path
         d="m 277.168,155.003 c 2.349,-0.051 5.311,0 5.311,0 l 0.562,-10.367 c -2.451,-0.153 -6.486,0.052 -6.486,0.052 z"
         id="path19" />
      <path
         d="m 335.713,295.32 c 1.277,2.706 -0.153,5.004 -2.757,6.179 -0.205,0.102 -0.766,0.357 -0.971,0.409 l 1.635,3.472 c 0.153,0.307 0.102,0.511 -0.307,0.715 l -1.685,0.766 c -0.307,0.153 -0.562,0.102 -0.715,-0.255 l -5.056,-10.725 c -0.204,-0.408 -0.102,-0.561 0.255,-0.766 l 2.707,-1.225 c 1.941,-0.92 3.473,-1.175 4.801,-0.664 0.919,0.408 1.685,1.174 2.093,2.094 m 46.83,-49.179 c -0.153,-0.307 -0.204,-0.562 0,-0.92 l 0.715,-1.123 c 0.153,-0.307 0.358,-0.358 0.664,-0.153 l 10.52,5.77 c 0.358,0.205 0.409,0.46 0.205,0.715 l -1.022,1.583 c -0.204,0.409 -0.51,0.409 -0.919,0.154 l -5.618,-3.218 h -0.051 l 4.29,5.975 c 0.255,0.307 0.153,0.562 0,0.766 l -0.357,0.562 c -0.154,0.307 -0.358,0.46 -0.766,0.409 l -7.456,-0.817 -0.051,0.051 5.566,3.574 c 0.46,0.256 0.409,0.511 0.153,0.818 l -0.817,1.327 c -0.204,0.358 -0.46,0.46 -0.817,0.205 l -9.805,-6.639 c -0.358,-0.307 -0.358,-0.511 -0.204,-0.817 l 0.715,-1.124 c 0.255,-0.408 0.459,-0.46 0.868,-0.408 l 9.396,0.97 0.051,-0.051 z m -4.749,18.282 -5.056,-4.085 c -0.255,-0.256 -0.204,-0.511 0,-0.766 l 1.175,-1.43 c 0.255,-0.256 0.459,-0.358 0.766,-0.102 l 5.158,4.238 c 3.217,2.707 3.319,5.567 0.97,8.273 -2.451,2.962 -5.209,2.962 -8.273,0.46 l -5.158,-4.239 c -0.306,-0.255 -0.204,-0.561 0,-0.817 l 1.175,-1.379 c 0.255,-0.306 0.408,-0.357 0.714,-0.102 l 5.005,4.086 c 2.298,1.889 3.575,1.634 4.699,0.306 1.072,-1.277 1.072,-2.604 -1.175,-4.443 m -14.708,6.639 c -0.102,-0.306 -0.051,-0.613 0.255,-0.919 l 0.92,-0.868 c 0.306,-0.256 0.51,-0.205 0.715,0 l 8.63,8.324 c 0,0.051 0.051,0.051 0.051,0.051 0.205,0.255 0.205,0.511 -0.051,0.715 l -1.379,1.277 c -0.357,0.357 -0.612,0.255 -0.97,-0.154 l -4.545,-4.545 2.502,6.895 c 0.154,0.357 0,0.561 -0.153,0.714 l -0.51,0.46 c -0.307,0.255 -0.46,0.358 -0.869,0.204 l -6.996,-2.757 -0.051,0.051 4.443,4.902 c 0.357,0.409 0.204,0.562 -0.102,0.868 l -1.124,1.022 c -0.306,0.306 -0.562,0.357 -0.817,0.051 l -0.051,-0.051 -7.66,-8.988 c -0.307,-0.358 -0.256,-0.562 0,-0.817 l 1.021,-0.92 c 0.307,-0.306 0.562,-0.306 0.919,-0.153 l 8.784,3.422 0.051,-0.051 z m -5.566,18.589 0.766,-0.511 c 0.255,-0.204 0.51,-0.102 0.664,0.102 l 0.561,0.818 c 0.154,0.153 0.154,0.408 -0.051,0.561 l -3.881,2.86 c -0.255,0.153 -0.511,0.102 -0.664,-0.051 l -0.562,-0.817 c -0.204,-0.255 -0.153,-0.511 0.051,-0.664 l 0.715,-0.511 -5.464,-7.353 -0.817,0.612 c -0.255,0.154 -0.511,0.051 -0.664,-0.153 l -0.562,-0.766 c -0.153,-0.204 -0.153,-0.459 0.051,-0.613 l 4.086,-2.962 c 0.204,-0.153 0.46,-0.153 0.613,0.051 l 0.613,0.817 c 0.153,0.256 0.153,0.46 -0.103,0.664 l -0.817,0.562 z m -9.601,8.222 c 0.255,0.409 0.204,0.46 -0.102,0.664 l -1.839,1.072 c -0.306,0.205 -0.357,0.154 -0.613,-0.153 l -5.209,-8.681 -2.962,1.736 c -0.306,0.204 -0.561,0.153 -0.715,-0.204 l -0.715,-1.175 c -0.204,-0.306 -0.102,-0.511 0.205,-0.664 l 7.864,-4.647 0.817,-0.511 c 0.307,-0.153 0.46,-0.102 0.613,0.102 v 0.051 l 0.664,1.379 c 0.153,0.307 0,0.511 -0.357,0.715 l -2.86,1.685 z m -30.437,0.153 c 3.779,-1.225 6.588,0.868 7.762,4.443 1.379,3.984 -0.153,7.252 -3.523,8.376 -3.575,1.174 -6.435,-0.664 -7.712,-4.495 -1.328,-3.779 -0.051,-7.149 3.473,-8.324 m -13.993,15.27 0.919,-0.153 c 0.307,0 0.511,0.153 0.562,0.408 l 0.153,0.97 c 0.051,0.256 -0.102,0.46 -0.357,0.511 l -4.75,0.817 c -0.255,0.051 -0.51,-0.102 -0.51,-0.306 l -0.205,-1.022 c -0.051,-0.306 0.103,-0.51 0.358,-0.561 l 0.868,-0.153 -1.532,-8.989 -1.021,0.154 c -0.307,0.051 -0.46,-0.154 -0.511,-0.409 l -0.204,-0.97 c 0,-0.204 0.102,-0.409 0.357,-0.46 l 5.005,-0.868 c 0.255,-0.051 0.459,0.153 0.511,0.306 l 0.153,1.022 c 0.051,0.306 -0.102,0.51 -0.358,0.562 l -1.021,0.153 z m -15.218,-5.72 c 0.102,0.613 0.868,0.868 1.327,1.073 l 2.247,0.817 c 1.532,0.51 2.554,1.43 2.707,3.166 0.204,2.655 -1.838,4.392 -4.392,4.596 -1.226,0.102 -2.707,-0.051 -3.983,-0.357 -0.307,-0.051 -0.409,-0.205 -0.409,-0.358 0,-0.102 0,-0.204 0.051,-0.306 l 0.409,-1.583 c 0,-0.154 0.102,-0.358 0.357,-0.358 0.051,0 0.205,0 0.307,0.051 0.97,0.307 2.042,0.409 2.962,0.358 0.817,-0.051 1.736,-0.562 1.685,-1.481 -0.051,-0.715 -0.664,-0.971 -1.277,-1.226 l -2.553,-0.97 c -1.481,-0.511 -2.451,-1.583 -2.605,-3.167 -0.204,-2.349 2.094,-3.932 4.29,-4.085 1.379,-0.102 2.554,0.051 3.779,0.46 0.307,0.102 0.409,0.204 0.46,0.408 0,0.051 -0.051,0.153 -0.051,0.307 l -0.511,1.481 c -0.051,0.255 -0.153,0.306 -0.306,0.357 -0.103,0 -0.205,-0.051 -0.358,-0.051 -0.817,-0.255 -1.838,-0.511 -2.604,-0.409 -0.766,0.051 -1.583,0.409 -1.532,1.277 m -114.65,-58.831 -6.23,3.83 c -0.357,0.204 -0.562,0.102 -0.766,-0.204 l -0.919,-1.481 c -0.256,-0.358 -0.256,-0.562 0.102,-0.817 l 10.163,-6.179 c 0.459,-0.256 0.612,-0.103 0.868,0.204 l 0.817,1.328 c 0.153,0.357 0.204,0.561 0.051,0.868 l -3.473,8.681 6.282,-3.83 c 0.357,-0.204 0.613,-0.102 0.766,0.205 l 0.97,1.583 c 0.255,0.408 0.051,0.561 -0.204,0.715 l -10.163,6.179 c -0.408,0.255 -0.562,0.153 -0.766,-0.153 l -0.817,-1.379 c -0.204,-0.255 -0.204,-0.562 -0.102,-0.868 l 3.421,-8.631 z m 5.516,18.385 c 0.153,0.255 0.051,0.51 -0.153,0.664 l -0.766,0.612 c -0.154,0.103 -0.46,0.103 -0.613,-0.051 l -2.911,-3.83 c -0.204,-0.255 -0.102,-0.51 0,-0.613 l 0.817,-0.612 c 0.255,-0.205 0.511,-0.154 0.664,0.051 l 0.562,0.715 7.302,-5.618 -0.612,-0.766 c -0.205,-0.255 -0.103,-0.511 0.102,-0.664 l 0.817,-0.562 c 0.153,-0.153 0.408,-0.153 0.562,0.051 l 3.064,3.984 c 0.204,0.204 0.153,0.459 0,0.613 l -0.817,0.561 c -0.256,0.256 -0.511,0.154 -0.664,-0.051 l -0.664,-0.766 -7.303,5.516 z m 9.294,9.601 c 0.256,0.255 0.205,0.51 -0.051,0.766 l -1.021,0.97 c -0.307,0.255 -0.562,0.204 -0.817,-0.051 l -4.852,-5.209 c -0.255,-0.306 -0.306,-0.511 0.051,-0.817 l 8.784,-8.069 c 0.255,-0.204 0.511,-0.204 0.766,0.051 l 1.277,1.379 c 0.255,0.306 0.306,0.511 0,0.766 l -7.354,6.741 z m 12.921,8.171 -1.226,-2.503 c -0.715,-1.379 -0.664,-2.808 0.306,-4.034 1.533,-1.89 4.239,-1.43 5.976,-0.051 1.021,0.868 1.787,1.787 2.4,2.911 0.153,0.306 0.153,0.459 0.051,0.561 -0.051,0.103 -0.153,0.154 -0.256,0.205 l -1.378,0.766 c -0.205,0.102 -0.358,0.102 -0.511,0 -0.051,-0.051 -0.102,-0.153 -0.204,-0.256 -0.358,-0.766 -0.971,-1.583 -1.583,-2.042 -0.562,-0.511 -1.43,-0.817 -1.992,-0.154 -0.358,0.511 0,1.226 0.204,1.737 l 1.073,2.094 c 0.715,1.43 0.817,2.808 -0.256,4.136 -1.685,2.094 -4.341,1.941 -6.383,0.358 -0.92,-0.766 -1.941,-1.89 -2.605,-2.962 -0.204,-0.307 -0.204,-0.46 -0.051,-0.562 0.051,-0.102 0.153,-0.153 0.255,-0.204 l 1.328,-0.869 c 0.204,-0.102 0.358,-0.204 0.562,-0.051 0.051,0.103 0.102,0.154 0.153,0.256 0.511,0.868 1.226,1.685 1.941,2.298 0.613,0.511 1.634,0.817 2.247,0.102 0.408,-0.562 0.204,-1.175 -0.051,-1.736 m 10.265,10.111 -2.758,-1.787 -0.562,-0.358 -1.838,1.481 c -0.205,0.154 -0.46,0.256 -0.766,0.051 l -1.788,-1.174 c -0.153,-0.102 -0.153,-0.256 -0.102,-0.409 0.051,-0.051 0.102,-0.102 0.153,-0.153 l 10.367,-7.609 c 0.255,-0.153 0.511,-0.204 0.766,-0.051 l 1.634,1.072 c 0.358,0.204 0.409,0.46 0.358,0.715 l -2.707,12.41 c -0.051,0.153 -0.051,0.204 -0.102,0.255 -0.153,0.204 -0.306,0.307 -0.562,0.153 l -1.736,-1.174 c -0.409,-0.256 -0.409,-0.511 -0.357,-0.817 l 0.561,-2.196 z m 8.528,-3.932 c -0.306,-0.204 -0.358,-0.409 -0.204,-0.715 l 0.664,-1.277 c 0.153,-0.255 0.357,-0.357 0.663,-0.153 l 8.12,4.188 0.869,0.459 c 0.306,0.154 0.357,0.358 0.204,0.562 v 0.051 l -0.817,1.277 c -0.256,0.306 -0.511,0.255 -0.817,0.051 l -2.962,-1.481 -4.699,8.886 c -0.204,0.357 -0.255,0.408 -0.612,0.255 l -1.89,-1.021 c -0.357,-0.153 -0.357,-0.204 -0.153,-0.562 l 4.698,-8.937 z m 13.993,16.036 c 0.255,0.102 0.306,0.357 0.255,0.612 l -0.408,0.92 c -0.051,0.204 -0.307,0.357 -0.562,0.204 l -4.443,-1.736 c -0.255,-0.154 -0.358,-0.409 -0.307,-0.562 l 0.409,-0.971 c 0.102,-0.306 0.306,-0.357 0.613,-0.255 l 0.766,0.307 3.473,-8.478 -0.92,-0.357 c -0.306,-0.154 -0.357,-0.409 -0.255,-0.613 l 0.408,-0.919 c 0.052,-0.205 0.256,-0.358 0.511,-0.256 l 4.698,1.89 c 0.256,0.102 0.358,0.306 0.307,0.562 l -0.409,0.919 c -0.153,0.306 -0.357,0.357 -0.612,0.255 l -0.971,-0.357 -3.421,8.477 z m 10.571,-3.269 1.838,1.532 c 1.226,1.073 1.839,2.349 1.328,3.984 -0.766,2.553 -3.319,3.421 -5.77,2.706 -1.175,-0.357 -2.503,-1.021 -3.575,-1.787 -0.256,-0.153 -0.307,-0.307 -0.256,-0.46 0,-0.102 0.102,-0.204 0.154,-0.306 l 0.919,-1.277 c 0.102,-0.204 0.255,-0.306 0.51,-0.255 0.052,0.051 0.154,0.051 0.256,0.204 0.817,0.562 1.736,1.072 2.655,1.379 0.766,0.204 1.839,0.102 2.094,-0.766 0.204,-0.715 -0.204,-1.175 -0.715,-1.583 l -2.094,-1.839 c -1.123,-1.021 -1.685,-2.4 -1.225,-3.881 0.715,-2.298 3.421,-2.911 5.515,-2.247 1.277,0.357 2.349,0.919 3.32,1.736 0.255,0.256 0.306,0.409 0.255,0.562 0,0.051 -0.051,0.153 -0.153,0.204 l -0.971,1.226 c -0.153,0.255 -0.255,0.306 -0.459,0.255 -0.051,-0.051 -0.153,-0.102 -0.307,-0.204 -0.612,-0.511 -1.532,-1.072 -2.247,-1.277 -0.715,-0.255 -1.634,-0.204 -1.889,0.664 -0.153,0.562 0.46,1.124 0.817,1.43 m 26.556,0.97 -1.481,11.695 c -0.051,0.46 -0.307,0.562 -0.613,0.511 l -1.583,-0.204 c -0.358,-0.052 -0.613,-0.205 -0.766,-0.511 l -4.648,-8.018 h -0.051 l -0.919,7.201 c -0.051,0.408 -0.255,0.51 -0.613,0.459 l -1.736,-0.204 c -0.409,-0.051 -0.613,-0.153 -0.511,-0.613 l 1.43,-11.745 c 0.051,-0.46 0.307,-0.562 0.715,-0.46 l 1.532,0.153 c 0.409,0.051 0.562,0.204 0.715,0.511 l 4.647,8.069 h 0.052 l 0.919,-7.252 c 0.051,-0.409 0.255,-0.511 0.613,-0.46 l 1.838,0.205 c 0.46,0.051 0.46,0.357 0.46,0.663 m 138.6,-67.206 c -10.163,25.483 -27.475,47.29 -50.047,63.019 -21.041,14.656 -45.656,23.236 -71.241,24.768 -0.153,0 -0.255,0.051 -0.357,0.153 l -8.223,8.171 -8.222,-8.171 c -0.102,-0.102 -0.204,-0.153 -0.357,-0.153 -25.534,-1.532 -50.201,-10.112 -71.241,-24.768 -22.521,-15.729 -39.884,-37.536 -50.047,-63.019 l -0.817,-1.992 31.152,-11.95 c 0.817,-0.357 1.685,-0.051 2.145,0.664 l 0.051,0.051 c 0.204,0.307 0.612,0.92 1.225,1.481 0.256,0.817 0.511,1.634 0.817,2.401 -1.634,-0.613 -2.808,-2.145 -3.268,-2.809 l -0.102,-0.205 c -0.051,-0.051 -0.153,-0.102 -0.256,-0.102 h -0.102 l -2.196,0.868 -0.97,0.409 0.153,0.409 c 0.102,0.204 0.153,0.408 0.205,0.51 0.919,2.298 1.94,4.494 2.962,6.69 0.204,0.307 0.357,0.664 0.51,0.971 l 0.971,-0.358 4.085,-1.481 c 0.255,0.511 0.511,0.97 0.715,1.43 l -4.034,1.481 -1.022,0.357 c 0.153,0.307 0.307,0.613 0.511,0.92 8.222,15.525 19.968,28.854 34.522,39.067 16.547,11.491 35.697,18.079 55.818,19.355 l 1.737,1.686 c -21.092,-0.92 -41.264,-7.712 -58.474,-19.764 -18.027,-12.563 -31.867,-29.926 -39.987,-50.252 l -0.204,-0.459 -24.819,9.55 0.204,0.459 c 10.06,25.228 27.168,46.779 49.485,62.355 20.99,14.606 45.605,23.083 71.19,24.462 l 7.303,7.252 0.357,0.357 7.661,-7.609 c 25.585,-1.379 50.2,-9.856 71.189,-24.462 22.317,-15.576 39.477,-37.127 49.537,-62.355 l 0.153,-0.459 -24.819,-9.55 -0.153,0.459 c -8.171,20.326 -22.011,37.689 -40.038,50.252 -17.261,12.052 -37.382,18.844 -58.474,19.764 l 1.737,-1.686 c 20.121,-1.276 39.271,-7.864 55.818,-19.355 14.554,-10.213 26.351,-23.542 34.522,-39.067 0.204,-0.307 0.358,-0.613 0.511,-0.92 l -1.022,-0.357 -4.034,-1.481 c 0.204,-0.46 0.46,-0.919 0.664,-1.43 l 4.136,1.481 0.971,0.358 c 0.153,-0.307 0.357,-0.664 0.51,-0.971 1.022,-2.196 2.043,-4.392 2.962,-6.69 0.051,-0.102 0.154,-0.306 0.205,-0.51 l 0.204,-0.409 -1.021,-0.409 -2.196,-0.868 h -0.154 c -0.051,0 -0.153,0.051 -0.204,0.102 l -0.102,0.205 c -0.46,0.664 -1.634,2.196 -3.268,2.86 0.255,-0.818 0.561,-1.635 0.817,-2.452 0.561,-0.51 1.021,-1.174 1.225,-1.481 l 0.051,-0.051 c 0.46,-0.715 1.328,-1.021 2.145,-0.664 l 31.152,11.95 z m -246.406,-14.401 -0.256,-0.409 -9.243,4.137 c -0.562,0.204 -1.124,0 -1.379,-0.511 -0.204,-0.255 -0.868,-1.277 -1.379,-2.604 -0.51,-1.379 -1.021,-3.371 -0.51,-5.158 0.408,-1.43 1.43,-2.554 2.962,-3.218 l 22.674,-10.367 c 0.051,0 0.102,-0.051 0.153,-0.051 0.409,-0.204 1.175,-0.459 2.043,-0.459 0.613,0 1.277,0.153 1.992,0.408 0.051,0.664 0.051,1.226 0.102,1.839 -0.715,-0.409 -1.43,-0.664 -2.145,-0.664 -0.46,0 -0.919,0.102 -1.328,0.306 l -0.153,0.051 c -1.021,0.511 -1.736,1.686 -2.043,3.269 -0.306,1.787 0,3.881 0.919,5.924 l 0.154,0.408 c 0.204,0.511 -0.051,1.073 -0.562,1.328 l -10.776,4.749 0.358,0.511 c 1.277,1.787 1.941,3.524 2.349,4.852 l -1.532,0.612 c -0.357,-1.327 -1.072,-3.166 -2.4,-4.953 m 108.623,71.445 C 252.574,293.226 234.036,286.689 218,275.505 203.65,265.496 192.006,252.32 183.835,236.999 l 4.086,-1.43 c 0.102,0.256 0.255,0.46 0.357,0.715 0.919,1.634 1.89,3.269 2.962,4.801 0.102,0.153 0.255,0.357 0.46,0.613 l 0.051,0.153 c 18.231,27.27 44.991,44.276 75.479,47.902 z m 8.528,20.836 c 0.307,0 0.46,0.204 0.46,0.459 v 1.022 c 0,0.204 -0.153,0.408 -0.409,0.408 l -4.851,-0.051 c -0.307,0 -0.46,-0.204 -0.46,-0.408 V 315.9 c 0,-0.357 0.204,-0.459 0.46,-0.459 h 0.919 l 0.102,-9.142 -0.97,-0.051 c -0.307,0 -0.46,-0.204 -0.46,-0.459 v -0.971 c 0,-0.255 0.153,-0.459 0.409,-0.459 l 5.056,0.102 c 0.306,0 0.459,0.204 0.459,0.408 v 1.022 c 0,0.306 -0.204,0.459 -0.459,0.459 h -1.022 l -0.153,9.142 z m 91.464,-79.923 4.086,1.43 c -8.12,15.321 -19.764,28.497 -34.165,38.506 -16.036,11.184 -34.574,17.721 -54.082,19.151 l 4.852,-4.903 c 30.488,-3.626 57.248,-20.632 75.428,-47.902 l 0.102,-0.153 c 0.153,-0.256 0.307,-0.46 0.46,-0.664 1.021,-1.481 2.043,-3.116 2.911,-4.75 0.153,-0.255 0.306,-0.459 0.408,-0.715 M 182.252,196.4 c 0.102,-1.89 0.255,-3.779 0.511,-5.72 1.225,-11.337 3.881,-19.559 4.953,-22.572 l 0.358,-1.022 c 4.494,-12.512 8.018,-22.419 7.916,-34.42 -0.052,-9.346 -11.44,-22.215 -15.832,-26.403 l -2.706,-2.553 2.757,-2.502 36.872,-33.655 2.247,1.481 c 7.967,5.209 18.18,8.12 28.854,8.12 11.133,0 21.755,-3.166 29.824,-8.783 l 1.991,-1.379 1.992,1.379 c 8.069,5.617 18.64,8.783 29.824,8.783 10.623,0 20.887,-2.911 28.803,-8.12 l 2.247,-1.481 39.68,36.157 -2.706,2.605 c -4.392,4.136 -15.781,17.005 -15.832,26.351 -0.102,12.001 3.422,21.908 7.916,34.42 l 0.358,1.022 c 1.072,3.013 3.728,11.235 4.953,22.572 0.204,1.941 0.409,3.83 0.511,5.72 0.051,1.787 0.153,3.626 0.153,5.362 0.051,13.073 -2.502,24.462 -7.609,33.756 -0.868,1.583 -1.839,3.167 -2.86,4.596 -0.102,0.205 -0.255,0.409 -0.46,0.715 l -0.102,0.103 c -17.976,26.964 -44.429,43.765 -74.56,47.289 h -0.255 l -12.053,12.052 -12.052,-12.052 h -0.255 c -30.131,-3.524 -56.635,-20.325 -74.611,-47.289 l -0.051,-0.103 c -0.205,-0.306 -0.358,-0.51 -0.46,-0.663 -1.021,-1.481 -1.992,-3.065 -2.86,-4.648 -5.107,-9.294 -7.66,-20.683 -7.609,-33.756 0,-1.736 0.051,-3.575 0.153,-5.362 m 197.176,8.63 c 0.766,-0.306 1.481,-0.459 2.043,-0.459 0.868,0 1.583,0.255 2.043,0.459 0.051,0 0.102,0.051 0.153,0.051 l 22.674,10.367 c 1.532,0.664 2.554,1.788 2.962,3.218 0.562,1.787 0,3.779 -0.51,5.158 -0.511,1.327 -1.175,2.349 -1.379,2.604 -0.256,0.511 -0.868,0.715 -1.328,0.511 l -9.295,-4.137 -0.255,0.409 c -1.328,1.787 -2.043,3.626 -2.4,4.953 l -1.481,-0.612 c 0.357,-1.328 1.021,-3.065 2.298,-4.852 l 0.357,-0.511 -10.775,-4.749 c -0.511,-0.255 -0.766,-0.817 -0.562,-1.328 l 0.153,-0.408 c 0.92,-2.043 1.226,-4.137 0.92,-5.924 -0.256,-1.583 -1.022,-2.758 -2.043,-3.269 l -0.102,-0.051 c -0.46,-0.204 -0.919,-0.306 -1.379,-0.306 -0.715,0 -1.43,0.255 -2.145,0.715 0.051,-0.664 0.051,-1.226 0.051,-1.839 m 32.429,30.08 c -0.051,-0.102 -0.153,-0.205 -0.256,-0.256 l -16.444,-6.332 c 0.307,-1.124 0.868,-2.758 1.992,-4.392 l 8.477,3.779 c 0.307,0.102 0.562,0.153 0.869,0.153 0.766,0 1.481,-0.408 1.889,-1.072 0.204,-0.358 0.868,-1.379 1.43,-2.809 0.817,-2.196 1.021,-4.137 0.511,-5.822 -0.511,-1.736 -1.737,-3.064 -3.575,-3.881 l -22.624,-10.316 c 0,-0.051 -0.051,-0.102 -0.153,-0.102 -0.868,-0.409 -2.502,-0.868 -4.494,-0.204 v -2.094 c 0,-1.788 -0.051,-3.626 -0.153,-5.464 -0.102,-1.89 -0.255,-3.831 -0.46,-5.771 -1.327,-11.491 -3.983,-19.866 -5.106,-22.93 l -0.358,-1.021 c -4.392,-12.41 -7.916,-22.215 -7.813,-33.859 0.051,-8.835 11.081,-21.245 15.32,-25.279 l 3.983,-3.779 -41.825,-38.097 -3.319,2.145 c -7.661,5.055 -17.568,7.813 -27.935,7.813 -10.826,0 -21.142,-3.013 -28.905,-8.477 L 279.997,65 l -2.91,2.043 c -7.814,5.464 -18.079,8.477 -28.905,8.477 -10.367,0 -20.275,-2.758 -27.935,-7.813 l -3.319,-2.145 -37.791,34.42 -4.035,3.677 3.933,3.779 c 4.238,4.034 15.269,16.444 15.371,25.279 0.051,11.644 -3.421,21.449 -7.864,33.859 l -0.358,1.021 c -1.072,3.064 -3.779,11.439 -5.055,22.93 -0.205,1.94 -0.358,3.881 -0.46,5.771 -0.102,1.838 -0.204,3.676 -0.204,5.464 0,0.715 0,1.379 0.051,2.094 -1.992,-0.664 -3.626,-0.205 -4.443,0.204 h -0.051 c -0.051,0 -0.102,0.051 -0.154,0.102 l -22.623,10.316 c -1.838,0.817 -3.064,2.145 -3.575,3.881 -0.51,1.685 -0.306,3.626 0.511,5.822 0.562,1.43 1.226,2.451 1.481,2.809 0.357,0.664 1.072,1.072 1.838,1.072 0.307,0 0.562,-0.051 0.869,-0.153 l 8.477,-3.779 c 1.123,1.634 1.685,3.268 2.043,4.392 l -16.444,6.332 c -0.154,0.051 -0.256,0.154 -0.307,0.256 -0.051,0.153 -0.051,0.306 0,0.408 l 0.97,2.503 c 10.265,25.687 27.731,47.647 50.456,63.478 21.143,14.759 45.911,23.389 71.599,24.921 l 8.477,8.427 c 0.102,0.051 0.204,0.153 0.357,0.153 0.154,0 0.307,-0.102 0.358,-0.153 l 8.477,-8.427 c 25.688,-1.532 50.456,-10.162 71.599,-24.921 22.725,-15.831 40.191,-37.791 50.455,-63.478 l 0.971,-2.503 c 0.051,-0.102 0.051,-0.255 0,-0.408"
         id="path20" />
      <path
         d="m 272.965,261.706 c 1.124,-0.664 2.298,-1.481 2.298,-3.064 0,-1.379 -1.021,-2.451 -2.451,-2.451 -1.379,0 -2.451,1.021 -2.451,2.4 0,1.481 1.174,2.298 2.604,3.115"
         id="path21" />
      <path
         d="m 349.956,118.188 c -1.327,0.817 -2.706,1.124 -3.677,0.919 0.307,-1.072 1.226,-2.247 2.554,-3.115 1.277,-0.817 2.707,-1.123 3.677,-0.919 -0.307,1.123 -1.226,2.298 -2.554,3.115 m -2.604,4.8 c -1.277,0.869 -2.656,1.175 -3.677,0.92 0.306,-1.073 1.226,-2.247 2.553,-3.064 1.328,-0.869 2.707,-1.175 3.728,-0.92 -0.357,1.073 -1.276,2.247 -2.604,3.064 m -2.502,4.239 c -1.481,0.307 -2.911,0.051 -3.78,-0.562 0.613,-0.868 1.89,-1.634 3.371,-1.94 1.481,-0.307 2.86,-0.051 3.728,0.562 -0.613,0.868 -1.838,1.634 -3.319,1.94 m -1.175,115.722 c -1.379,0 -2.758,0.051 -3.524,0.051 0.409,-2.298 0.562,-4.954 0.562,-8.069 v -3.728 c 0,-2.451 -0.204,-5.362 -3.728,-5.362 -1.226,0 -2.451,0.51 -3.422,1.43 -1.072,1.072 -1.378,1.991 -1.378,4.647 v 3.013 c 0,3.932 0.255,6.281 0.868,8.069 -0.664,0 -2.043,-0.051 -3.371,-0.051 -1.43,0 -2.758,0.051 -3.473,0.051 0.358,-2.298 0.511,-4.954 0.511,-8.069 v -5.209 c 0,-2.094 -0.204,-5.209 -0.919,-7.456 1.889,0 4.494,0 6.332,-0.153 l -0.153,3.677 1.737,-1.481 c 2.093,-1.737 3.779,-2.503 5.924,-2.503 4.902,0 6.587,2.809 6.587,7.61 v 5.515 c 0,3.932 0.256,6.281 0.869,8.069 -0.715,0 -2.094,-0.051 -3.422,-0.051 m -30.437,0.715 c -6.588,0 -10.469,-3.83 -10.469,-10.469 0,-6.537 3.983,-11.338 11.439,-11.338 6.639,0 10.418,3.779 10.418,10.265 0,7.099 -4.443,11.542 -11.388,11.542 m -10.929,-21.041 c -0.153,0.613 -0.612,2.35 -0.868,3.065 -1.634,-0.154 -2.604,-0.205 -3.728,-0.205 h -1.889 c -0.051,1.43 -0.103,3.115 -0.103,4.341 v 4.801 c 0,3.217 0.358,5.617 3.167,5.617 0.868,0 1.583,-0.204 2.706,-0.766 0.205,-0.102 0.613,-0.102 0.46,0.511 -0.255,0.919 -0.511,1.787 -0.766,2.86 -2.553,0.663 -3.626,0.817 -4.954,0.817 -3.677,0 -6.026,-1.532 -6.026,-6.741 v -6.486 c 0,-2.043 0,-3.575 -0.051,-5.005 -1.123,0 -2.349,0.153 -2.911,0.256 -0.102,0 -0.408,0 -0.255,-0.46 0,-0.153 0.562,-2.094 0.766,-2.758 0.511,0.051 1.532,0.102 2.553,0.102 0,-1.685 -0.102,-2.553 -0.153,-3.83 1.481,-0.459 4.188,-1.685 5.362,-2.4 0.46,-0.306 0.664,0.102 0.613,0.562 -0.051,0.51 -0.357,1.889 -0.408,5.668 h 2.962 c 1.021,0 2.144,-0.051 3.217,-0.306 0.204,-0.051 0.408,0.051 0.306,0.357 m -8.324,49.231 c -2.809,0 -4.749,-1.686 -4.749,-4.137 0,-2.094 1.276,-3.268 3.421,-4.494 -1.327,-0.817 -2.655,-1.89 -2.655,-3.881 0,-2.298 1.991,-4.137 4.545,-4.137 2.451,0 4.29,1.583 4.29,3.728 0,1.992 -1.379,3.013 -2.86,3.83 1.787,1.022 3.37,2.247 3.37,4.443 0,2.707 -2.247,4.648 -5.362,4.648 m -11.592,-0.562 -0.052,0.102 h -0.102 c 0,0 -1.838,0 -2.911,0.102 h -0.051 l -0.204,-0.408 7.865,-13.431 h -4.954 c -0.766,0 -1.736,0.102 -2.553,0.714 l -0.103,0.052 -0.357,-0.205 0.051,-0.102 c 0.255,-0.715 0.46,-1.94 0.562,-2.4 v -0.102 h 9.345 l 0.154,-0.051 v 0.153 c 0,0.204 0.153,1.226 0.204,1.43 l 0.051,0.051 -0.051,0.051 c -1.226,1.379 -2.656,3.932 -3.932,6.179 -2.043,3.728 -2.809,5.771 -2.962,7.865 M 278.869,243 c -0.664,0 -2.043,-0.051 -3.32,-0.051 -1.327,0 -2.655,0.051 -3.472,0.051 0.408,-2.4 0.51,-4.494 0.51,-7.507 v -5.107 c 0,-1.992 -0.153,-5.669 -0.868,-7.916 1.583,0 4.086,-0.051 5.771,-0.153 l -0.051,4.852 1.532,-1.992 c 1.89,-2.554 3.217,-3.32 5.209,-3.32 0.715,0 1.072,0.051 1.838,0.409 -0.612,2.145 -1.225,4.392 -1.583,5.72 -0.102,0.255 -0.357,0.664 -0.715,0.204 -0.817,-0.868 -0.97,-1.226 -1.94,-1.226 -1.226,0 -2.196,0.664 -2.911,1.839 -0.613,0.97 -0.817,1.787 -0.817,3.779 v 3.421 c 0,3.677 0.204,5.209 0.817,6.997 m -6.588,28.547 c -2.809,0 -4.749,-1.736 -4.749,-4.136 0,-2.094 1.327,-3.269 3.421,-4.545 -1.328,-0.767 -2.655,-1.89 -2.655,-3.831 0,-2.349 1.991,-4.136 4.596,-4.136 2.451,0 4.238,1.583 4.238,3.728 0,1.991 -1.378,3.013 -2.859,3.83 1.787,0.97 3.37,2.196 3.37,4.392 0,2.707 -2.247,4.698 -5.362,4.698 m -6.945,-0.408 c -0.256,-0.051 -0.766,-0.102 -1.277,-0.102 -0.409,0 -0.817,0.051 -1.328,0.102 h -0.204 l 0.051,-0.154 c 0.204,-1.276 0.255,-2.553 0.255,-3.983 v -7.252 c 0,-2.042 -0.153,-2.247 -0.817,-2.247 -0.153,0 -0.459,0.051 -0.817,0.102 l -1.123,0.256 c -0.358,0.102 -0.562,0.153 -0.818,0.306 h -0.051 l -0.306,-0.255 0.051,-0.102 c 0.153,-0.307 0.358,-0.817 0.46,-1.277 l 0.051,-0.102 h 0.051 c 0.613,-0.051 1.021,-0.102 1.685,-0.255 l 2.4,-0.511 c 0.46,-0.102 0.971,-0.204 1.379,-0.358 h 0.051 l 0.307,0.256 -0.051,0.051 c -0.205,1.379 -0.256,2.911 -0.256,3.779 v 7.864 c 0,1.584 0.153,2.86 0.409,3.677 l 0.051,0.205 z m -13.84,-38.2 c 0,-6.537 4.137,-11.031 10.112,-11.031 5.209,0 8.426,3.065 8.426,8.069 0,0.409 0,2.247 -0.766,2.247 h -5.311 c -2.196,0 -5.26,0.051 -6.639,0.102 0.102,5.005 2.758,7.865 7.252,7.865 1.787,0 2.859,-0.409 4.34,-1.379 0.358,-0.255 0.766,-0.051 0.562,0.613 -0.408,1.481 -0.51,1.838 -0.868,3.064 -1.89,0.664 -4.341,1.277 -6.537,1.277 -6.485,0 -10.571,-4.392 -10.571,-10.827 m -6.281,5.771 c -0.613,1.481 -0.92,2.605 -1.277,4.29 -0.46,-0.051 -1.43,-0.051 -2.4,-0.051 -0.817,0 -1.89,0.051 -2.656,0.051 -0.306,-1.839 -0.664,-2.962 -1.277,-4.852 l -2.757,-8.426 c -0.869,-2.553 -1.839,-5.311 -3.677,-7.456 2.757,0.102 4.902,0 7.558,-0.204 0.204,2.042 0.613,4.034 1.226,5.975 l 1.532,5.311 c 0.408,1.277 1.225,4.085 1.225,4.085 0.256,-0.919 0.613,-1.838 0.919,-2.604 l 2.401,-6.282 c 0.408,-1.123 0.97,-2.808 1.123,-4.494 0,-0.561 0.051,-1.123 0,-1.838 0.613,0.051 1.685,0.051 2.605,0.051 0.817,0 2.196,-0.102 2.808,-0.204 0.613,-0.051 0.511,0.306 0.307,0.51 -1.43,1.839 -2.605,4.341 -3.677,6.895 z m -12.563,-0.051 c -0.307,1.021 -1.175,4.239 -1.277,4.545 C 226.677,243 223.561,243 220.804,243 h -7.609 c 0.306,-2.196 0.561,-4.75 0.561,-7.916 V 221.96 c 0,-2.145 -0.102,-6.18 -0.817,-8.069 1.379,0.102 2.4,0.102 3.422,0.102 h 7.864 c 2.809,0 3.933,-0.102 6.997,-0.102 -0.562,1.991 -1.124,4.085 -1.379,4.902 -0.204,0.817 -0.664,0.205 -0.715,0.102 -1.277,-1.889 -3.83,-2.093 -6.179,-2.093 -0.766,0 -1.635,0.051 -2.707,0.051 -0.051,0.715 -0.153,2.706 -0.153,4.545 v 4.238 h 3.472 c 2.554,0 5.107,-0.204 6.129,-0.357 0.408,0 0.306,0.306 0.306,0.306 -0.306,1.175 -0.715,2.656 -0.97,3.626 -2.707,-0.255 -4.137,-0.306 -6.026,-0.306 h -2.962 v 5.924 c 0,3.83 0.408,5.107 5.004,5.107 2.554,0 3.984,0 6.793,-2.094 0.459,-0.409 1.072,-0.204 0.817,0.817 M 211.816,125.287 c 0.868,-0.613 2.298,-0.869 3.779,-0.562 1.481,0.306 2.706,1.072 3.37,1.94 -0.919,0.613 -2.298,0.869 -3.779,0.562 -1.481,-0.306 -2.706,-1.072 -3.37,-1.94 m -1.737,-5.363 c 1.022,-0.255 2.401,0.051 3.677,0.92 1.328,0.817 2.247,1.991 2.554,3.064 -0.971,0.255 -2.349,-0.051 -3.677,-0.92 -1.277,-0.817 -2.247,-1.991 -2.554,-3.064 m -2.604,-4.851 c 1.021,-0.204 2.4,0.102 3.728,0.919 1.328,0.868 2.247,2.043 2.553,3.115 -1.021,0.205 -2.4,-0.102 -3.728,-0.919 -1.276,-0.817 -2.196,-1.992 -2.553,-3.115 m 0.613,-11.491 c 0.97,0.409 1.991,1.481 2.706,2.962 0.715,1.481 0.971,3.013 0.715,4.137 -0.97,-0.409 -1.991,-1.481 -2.706,-2.962 -0.715,-1.481 -0.971,-3.013 -0.715,-4.137 m 2.911,-3.932 c 0.766,0.715 1.481,2.094 1.736,3.728 0.255,1.685 0,3.217 -0.511,4.188 -0.817,-0.715 -1.481,-2.094 -1.736,-3.728 -0.255,-1.686 -0.051,-3.218 0.511,-4.188 m 1.532,-0.919 c 0.051,-1.736 0.612,-3.166 1.327,-3.984 0.613,0.92 1.022,2.401 0.92,4.137 -0.102,1.634 -0.613,3.064 -1.328,3.881 -0.613,-0.868 -1.021,-2.4 -0.919,-4.034 m 1.685,13.329 c 0.766,0.715 1.43,2.094 1.685,3.728 0.256,1.685 0.051,3.217 -0.511,4.187 -0.817,-0.715 -1.481,-2.093 -1.736,-3.779 -0.204,-1.634 0,-3.166 0.562,-4.136 m -1.532,3.983 c -1.022,-0.204 -2.247,-1.021 -3.217,-2.298 -0.971,-1.328 -1.481,-2.758 -1.43,-3.881 1.021,0.153 2.247,0.97 3.166,2.247 0.97,1.328 1.481,2.758 1.481,3.932 m -0.664,-3.932 c -0.153,-1.022 0.102,-2.349 0.817,-3.626 0.715,-1.277 1.685,-2.196 2.553,-2.502 0.205,1.021 -0.102,2.4 -0.817,3.677 -0.664,1.276 -1.685,2.195 -2.553,2.451 m 3.217,-9.652 c 1.022,-0.919 2.196,-1.43 3.115,-1.379 -0.153,1.021 -0.817,2.196 -1.889,3.166 -1.021,0.92 -2.196,1.43 -3.115,1.379 0.153,-1.021 0.817,-2.196 1.889,-3.166 m 1.379,-5.413 c 0.868,-1.379 1.992,-2.299 2.962,-2.605 0.153,1.175 -0.255,2.707 -1.123,4.035 -0.817,1.429 -1.992,2.349 -2.962,2.604 -0.103,-1.124 0.255,-2.656 1.123,-4.034 m 2.962,28.904 c -0.97,-0.408 -1.94,-1.481 -2.655,-2.962 -0.715,-1.481 -0.869,-3.064 -0.613,-4.136 0.919,0.408 1.94,1.481 2.655,2.962 0.664,1.532 0.868,3.064 0.613,4.136 m 3.269,2.605 c -0.715,0.868 -1.992,1.532 -3.473,1.736 -1.532,0.205 -2.911,-0.153 -3.728,-0.817 0.664,-0.817 1.992,-1.481 3.472,-1.685 1.481,-0.204 2.86,0.102 3.729,0.766 m 1.327,-2.758 c 1.226,0.971 2.094,2.196 2.349,3.269 -1.021,0.204 -2.349,-0.205 -3.625,-1.175 -1.277,-0.868 -2.145,-2.145 -2.401,-3.268 1.022,-0.154 2.35,0.255 3.677,1.174 m 2.911,4.035 c 0.051,0 0.051,0.051 0.051,0.051 0.409,0.204 0.817,0.357 1.226,0.561 0,0 0.46,-0.306 1.328,-0.612 0.868,-0.358 2.042,-0.46 3.268,-0.102 1.481,0.357 2.656,1.174 3.268,2.093 -0.868,0.562 -2.247,0.715 -3.779,0.358 -1.378,-0.358 -2.553,-1.124 -3.166,-1.992 -0.204,0.153 -0.357,0.307 -0.562,0.46 1.584,0.97 2.86,2.196 4.137,3.83 -0.511,0.766 -0.715,1.174 -1.226,1.941 -0.97,-2.145 -1.94,-3.882 -3.268,-5.363 -1.379,1.481 -2.554,3.269 -3.473,5.363 -0.51,-0.767 -0.766,-1.124 -1.225,-1.89 1.225,-1.634 2.655,-2.911 4.289,-3.881 -0.153,-0.153 -0.357,-0.307 -0.51,-0.511 -0.664,0.919 -1.788,1.685 -3.218,2.043 -1.481,0.357 -2.911,0.204 -3.779,-0.358 0.562,-0.919 1.788,-1.736 3.269,-2.093 1.276,-0.358 2.451,-0.256 3.319,0.102 z m 5.362,-4.035 c 1.277,-0.919 2.605,-1.328 3.626,-1.174 -0.255,1.123 -1.123,2.4 -2.349,3.268 -1.277,0.97 -2.655,1.379 -3.626,1.175 0.205,-1.073 1.073,-2.298 2.349,-3.269 m 5.056,1.992 c 1.481,0.204 2.758,0.868 3.473,1.685 -0.868,0.664 -2.247,1.022 -3.779,0.817 -1.481,-0.204 -2.758,-0.868 -3.422,-1.736 0.817,-0.664 2.196,-0.97 3.728,-0.766 m 0.153,-5.975 c 0.715,-1.481 1.686,-2.554 2.656,-2.962 0.255,1.072 0.051,2.655 -0.664,4.136 -0.664,1.481 -1.685,2.554 -2.655,2.962 -0.205,-1.072 -0.052,-2.604 0.663,-4.136 m -0.663,-27.373 c 1.021,0.306 2.144,1.226 3.013,2.605 0.817,1.378 1.225,2.91 1.072,4.034 -0.97,-0.255 -2.094,-1.175 -2.962,-2.604 -0.868,-1.328 -1.226,-2.86 -1.123,-4.035 m 6.281,11.184 c -0.919,0.051 -2.094,-0.459 -3.166,-1.379 -1.073,-0.97 -1.737,-2.145 -1.89,-3.166 0.919,-0.051 2.094,0.46 3.166,1.379 1.073,0.97 1.737,2.145 1.89,3.166 m -0.562,-10.878 c 0.766,0.818 1.277,2.248 1.328,3.984 0.153,1.634 -0.255,3.166 -0.868,4.034 -0.715,-0.817 -1.277,-2.247 -1.379,-3.881 -0.051,-1.736 0.306,-3.217 0.919,-4.137 m 2.911,4.903 c 0.562,0.97 0.766,2.502 0.511,4.188 -0.256,1.634 -0.97,3.013 -1.737,3.728 -0.561,-0.971 -0.766,-2.503 -0.51,-4.188 0.255,-1.634 0.919,-3.013 1.736,-3.728 m 2.86,3.932 c 0.255,1.124 0.051,2.656 -0.664,4.137 -0.715,1.481 -1.787,2.553 -2.707,2.962 -0.255,-1.124 -0.051,-2.656 0.664,-4.137 0.715,-1.481 1.737,-2.553 2.707,-2.962 m -5.618,15.525 c 0.307,-1.072 1.226,-2.247 2.554,-3.115 1.328,-0.817 2.655,-1.123 3.677,-0.919 -0.307,1.123 -1.226,2.298 -2.554,3.115 -1.327,0.817 -2.706,1.124 -3.677,0.919 m -0.459,-7.047 c 0.51,0.97 0.766,2.502 0.51,4.136 -0.255,1.686 -0.919,3.064 -1.736,3.779 -0.511,-0.97 -0.766,-2.502 -0.511,-4.187 0.256,-1.634 0.92,-3.013 1.737,-3.728 m 2.962,0.051 c 0.97,-1.277 2.145,-2.094 3.166,-2.247 0.051,1.123 -0.46,2.553 -1.43,3.881 -0.97,1.277 -2.145,2.094 -3.166,2.298 0,-1.174 0.459,-2.604 1.43,-3.932 m -0.766,0 c -0.919,-0.256 -1.89,-1.175 -2.605,-2.451 -0.715,-1.277 -0.97,-2.656 -0.817,-3.677 0.868,0.306 1.839,1.225 2.554,2.502 0.715,1.277 1.021,2.604 0.868,3.626 m 0.153,13.176 c -0.613,0.868 -1.839,1.634 -3.371,1.94 -1.481,0.307 -2.859,0.051 -3.728,-0.562 0.613,-0.868 1.839,-1.634 3.371,-1.94 1.481,-0.307 2.86,-0.051 3.728,0.562 m -0.817,-2.299 c -1.277,0.869 -2.707,1.175 -3.677,0.92 0.306,-1.073 1.226,-2.247 2.553,-3.064 1.328,-0.869 2.707,-1.175 3.677,-0.92 -0.306,1.073 -1.225,2.247 -2.553,3.064 m 12.716,11.848 20.938,-44.48 c -0.766,-1.686 0.511,-3.779 2.145,-3.779 1.634,0 3.166,2.093 2.4,3.728 l 21.092,44.225 c 3.574,1.736 5.158,3.932 4.953,5.413 -0.153,1.583 -1.276,2.554 -2.604,3.064 0.102,8.018 -0.256,36.463 -0.153,52.703 1.787,0.409 1.787,2.298 1.634,8.427 -0.102,5.872 0.408,7.864 -3.473,7.864 -0.511,0 -1.532,-0.051 -1.532,-0.051 v -1.992 c -0.051,-1.021 -0.051,-1.327 -0.613,-1.532 -1.634,-0.664 -3.37,-1.225 -5.26,-1.991 -1.328,-0.46 -41.263,-14.759 -41.263,-14.759 0,0 -1.839,-0.511 -1.839,-2.298 0,-0.153 -0.051,-1.686 -0.051,-2.196 v -5.72 c 0,-1.481 0.97,-1.992 1.839,-1.889 0.051,0 0.051,-0.154 0.051,-0.256 -0.051,-5.26 -0.103,-32.786 -0.103,-35.697 -1.838,-0.562 -2.349,-1.838 -2.349,-1.838 -0.868,-1.89 0.051,-4.75 4.188,-6.946 m 57.963,-18.844 c 1.277,0.868 2.247,2.043 2.553,3.115 -1.021,0.205 -2.4,-0.102 -3.677,-0.919 -1.327,-0.817 -2.298,-1.992 -2.604,-3.115 1.021,-0.204 2.4,0.102 3.728,0.919 m -3.115,-12.41 c 0.97,0.409 1.991,1.481 2.706,2.962 0.715,1.481 0.971,3.013 0.715,4.137 -0.97,-0.409 -1.991,-1.481 -2.706,-2.962 -0.715,-1.481 -0.971,-3.013 -0.715,-4.137 m 2.911,-3.932 c 0.817,0.715 1.481,2.094 1.736,3.728 0.255,1.685 0.051,3.217 -0.511,4.188 -0.817,-0.715 -1.481,-2.094 -1.736,-3.728 -0.255,-1.686 -0.051,-3.218 0.511,-4.188 m 1.532,-0.919 c 0.102,-1.736 0.612,-3.166 1.327,-3.984 0.664,0.92 1.022,2.401 0.92,4.137 -0.102,1.634 -0.613,3.064 -1.328,3.881 -0.664,-0.868 -1.021,-2.4 -0.919,-4.034 m 2.655,3.728 c 1.073,-0.919 2.247,-1.43 3.218,-1.379 -0.205,1.021 -0.869,2.196 -1.89,3.166 -1.072,0.92 -2.298,1.43 -3.217,1.379 0.153,-1.021 0.868,-2.196 1.889,-3.166 m 1.43,-5.413 c 0.868,-1.379 1.992,-2.299 2.962,-2.605 0.153,1.175 -0.255,2.707 -1.072,4.035 -0.92,1.429 -1.992,2.349 -3.013,2.604 -0.102,-1.124 0.255,-2.656 1.123,-4.034 m 2.962,28.904 c -0.97,-0.408 -1.992,-1.481 -2.655,-2.962 -0.715,-1.481 -0.92,-3.064 -0.664,-4.136 0.97,0.408 1.991,1.481 2.655,2.962 0.715,1.532 0.919,3.064 0.664,4.136 m -3.983,-1.225 c 1.481,0.306 2.706,1.072 3.319,1.94 -0.868,0.613 -2.247,0.869 -3.728,0.562 -1.481,-0.306 -2.706,-1.072 -3.37,-1.94 0.919,-0.613 2.298,-0.869 3.779,-0.562 m 0.766,-0.817 c -1.022,0.255 -2.4,-0.051 -3.728,-0.92 -1.328,-0.817 -2.247,-1.991 -2.554,-3.064 1.022,-0.255 2.401,0.051 3.677,0.92 1.328,0.817 2.247,1.991 2.605,3.064 M 317.63,112.06 c 0.817,0.715 1.481,2.094 1.685,3.728 0.256,1.685 0.051,3.217 -0.51,4.187 -0.818,-0.715 -1.481,-2.093 -1.686,-3.779 -0.255,-1.634 -0.051,-3.166 0.511,-4.136 m -1.583,3.983 c -0.97,-0.204 -2.196,-1.021 -3.166,-2.298 -0.971,-1.328 -1.481,-2.758 -1.43,-3.881 1.021,0.153 2.196,0.97 3.166,2.247 0.97,1.328 1.481,2.758 1.43,3.932 m -0.613,-3.932 c -0.153,-1.022 0.102,-2.349 0.817,-3.626 0.715,-1.277 1.685,-2.196 2.605,-2.502 0.153,1.021 -0.154,2.4 -0.869,3.677 -0.715,1.276 -1.685,2.195 -2.553,2.451 m 10.775,16.444 c -0.663,0.868 -1.94,1.532 -3.421,1.736 -1.532,0.205 -2.86,-0.153 -3.728,-0.817 0.715,-0.817 1.94,-1.481 3.473,-1.685 1.481,-0.204 2.859,0.102 3.676,0.766 m 1.379,-2.758 c 1.226,0.971 2.094,2.196 2.349,3.269 -1.021,0.204 -2.349,-0.205 -3.625,-1.175 -1.277,-0.868 -2.145,-2.145 -2.401,-3.268 1.022,-0.154 2.401,0.255 3.677,1.174 m 4.086,4.647 c 0.357,-0.204 0.766,-0.357 1.174,-0.561 0.051,0 0.051,-0.051 0.103,-0.051 0.919,-0.358 2.093,-0.46 3.319,-0.102 1.481,0.357 2.707,1.174 3.319,2.093 -0.919,0.562 -2.349,0.715 -3.779,0.358 -1.43,-0.358 -2.604,-1.124 -3.217,-2.043 -0.204,0.204 -0.357,0.358 -0.562,0.511 1.686,0.97 3.115,2.247 4.341,3.881 -0.511,0.766 -0.715,1.123 -1.226,1.89 -0.919,-2.094 -2.093,-3.882 -3.472,-5.363 -1.328,1.481 -2.349,3.218 -3.32,5.363 -0.459,-0.767 -0.715,-1.175 -1.174,-1.941 1.225,-1.634 2.502,-2.86 4.085,-3.83 -0.153,-0.153 -0.357,-0.307 -0.51,-0.46 -0.664,0.868 -1.788,1.634 -3.218,1.992 -1.481,0.357 -2.86,0.204 -3.779,-0.358 0.613,-0.919 1.788,-1.736 3.269,-2.093 1.225,-0.358 2.4,-0.256 3.319,0.102 0.817,0.306 1.328,0.612 1.328,0.612 m 4.187,-4.647 c 1.277,-0.919 2.605,-1.328 3.626,-1.174 -0.255,1.123 -1.123,2.4 -2.349,3.268 -1.277,0.97 -2.655,1.379 -3.677,1.175 0.256,-1.073 1.124,-2.298 2.4,-3.269 m 5.056,1.992 c 1.481,0.204 2.758,0.868 3.422,1.685 -0.817,0.664 -2.196,1.022 -3.677,0.817 -1.532,-0.204 -2.809,-0.868 -3.473,-1.736 0.817,-0.664 2.196,-0.97 3.728,-0.766 m 0.153,-5.975 c 0.715,-1.481 1.686,-2.554 2.656,-2.962 0.255,1.072 0.051,2.655 -0.613,4.136 -0.715,1.481 -1.736,2.554 -2.655,2.962 -0.307,-1.072 -0.103,-2.604 0.612,-4.136 m -0.663,-27.373 c 1.021,0.306 2.144,1.226 3.013,2.605 0.868,1.378 1.225,2.91 1.123,4.034 -1.021,-0.255 -2.145,-1.175 -3.013,-2.604 -0.868,-1.328 -1.226,-2.86 -1.123,-4.035 m 6.281,11.184 c -0.919,0.051 -2.094,-0.459 -3.166,-1.379 -1.073,-0.97 -1.737,-2.145 -1.89,-3.166 0.919,-0.051 2.094,0.46 3.166,1.379 1.073,0.97 1.737,2.145 1.89,3.166 m -0.511,-10.878 c 0.715,0.818 1.226,2.248 1.328,3.984 0.051,1.634 -0.306,3.166 -0.919,4.034 -0.766,-0.817 -1.277,-2.247 -1.328,-3.881 -0.102,-1.736 0.255,-3.217 0.919,-4.137 m 2.86,4.903 c 0.511,0.97 0.766,2.502 0.511,4.188 -0.255,1.634 -0.97,3.013 -1.736,3.728 -0.562,-0.971 -0.767,-2.503 -0.511,-4.188 0.255,-1.634 0.919,-3.013 1.736,-3.728 m -0.255,12.461 c 0.97,-1.277 2.145,-2.094 3.166,-2.247 0.051,1.123 -0.46,2.553 -1.43,3.881 -0.97,1.277 -2.145,2.094 -3.166,2.298 -0.051,-1.174 0.46,-2.604 1.43,-3.932 m -2.451,4.085 c -0.256,1.686 -0.92,3.064 -1.737,3.779 -0.51,-0.97 -0.766,-2.502 -0.51,-4.187 0.255,-1.634 0.919,-3.013 1.736,-3.728 0.511,0.97 0.766,2.502 0.511,4.136 m -0.92,-6.536 c -0.715,-1.277 -0.97,-2.656 -0.817,-3.677 0.868,0.306 1.839,1.225 2.554,2.502 0.715,1.277 1.021,2.604 0.817,3.626 -0.868,-0.256 -1.839,-1.175 -2.554,-2.451 m 6.486,-6.078 c 0.255,1.124 0.051,2.656 -0.715,4.137 -0.715,1.481 -1.736,2.553 -2.656,2.962 -0.255,-1.124 -0.051,-2.656 0.664,-4.137 0.715,-1.481 1.737,-2.553 2.707,-2.962 m 25.534,0.154 -34.88,-31.765 c -8.222,5.362 -18.946,8.63 -30.743,8.63 -12.307,0 -23.491,-3.574 -31.816,-9.396 -8.324,5.822 -19.508,9.396 -31.815,9.396 -11.797,0 -22.522,-3.268 -30.693,-8.63 l -34.931,31.765 c 0,0 16.853,15.984 16.955,28.904 0.051,12.972 -3.779,23.441 -8.528,36.668 -1.737,4.953 -3.779,12.767 -4.75,21.806 -0.204,1.736 -0.408,3.626 -0.51,5.515 -0.103,1.686 -0.103,3.422 -0.154,5.158 -0.051,10.725 1.788,22.164 7.201,32.072 0.817,1.481 1.685,2.91 2.656,4.289 2.808,4.035 25.636,41.826 74.1,46.779 l 0.205,0.153 10.264,10.265 10.316,-10.265 0.153,-0.153 c 48.465,-4.953 71.292,-42.744 74.101,-46.779 0.97,-1.379 1.89,-2.808 2.656,-4.289 5.413,-9.908 7.251,-21.347 7.2,-32.072 0,-1.736 -0.051,-3.472 -0.153,-5.158 -0.102,-1.889 -0.306,-3.779 -0.46,-5.515 -1.021,-9.039 -3.013,-16.853 -4.8,-21.806 -4.698,-13.227 -8.58,-23.696 -8.477,-36.668 0.051,-12.92 16.903,-28.904 16.903,-28.904"
         id="path22" />
      <path
         d="m 294.654,262.028 c 1.124,-0.664 2.298,-1.481 2.298,-3.064 0,-1.379 -1.021,-2.451 -2.451,-2.451 -1.379,0 -2.4,1.021 -2.4,2.4 0,1.481 1.123,2.298 2.553,3.115"
         id="path23" />
      <path
         d="m 293.985,263.984 c -1.889,0.919 -2.809,2.145 -2.809,3.626 0,1.634 1.226,2.86 2.962,2.86 1.737,0 3.064,-1.226 3.064,-2.86 0,-1.583 -1.072,-2.451 -3.217,-3.626"
         id="path24" />
      <path
         d="m 272.291,263.667 c -1.889,0.92 -2.809,2.145 -2.809,3.626 0,1.634 1.226,2.86 2.962,2.86 1.737,0 3.065,-1.277 3.065,-2.86 0,-1.583 -1.073,-2.451 -3.218,-3.626"
         id="path25" />
    </g>
  </g>
</svg>
