<?xml version="1.0" encoding="UTF-8"?>
<!DOCTYPE svg PUBLIC "-//W3C//DTD SVG 1.1//EN" "http://www.w3.org/Graphics/SVG/1.1/DTD/svg11.dtd">
<!-- Creator: CorelDRAW 2019 (64-Bit) -->
<svg xmlns="http://www.w3.org/2000/svg" xml:space="preserve" width="183.907mm" height="208.824mm" version="1.1" style="shape-rendering:geometricPrecision; text-rendering:geometricPrecision; image-rendering:optimizeQuality; fill-rule:evenodd; clip-rule:evenodd"
viewBox="0 0 183.8964 208.8116"
 xmlns:xlink="http://www.w3.org/1999/xlink"
 xmlns:xodm="http://www.corel.com/coreldraw/odm/2003">
 <defs>
  <style type="text/css">
   <![CDATA[
    .str0 {stroke:#1C1C1B;stroke-width:0.2672;stroke-miterlimit:4}
    .fil3 {fill:none}
    .fil2 {fill:#1C1C1B}
    .fil1 {fill:#E20512}
    .fil0 {fill:white}
   ]]>
  </style>
 </defs>
 <g id="Layer_x0020_1">
  <metadata id="CorelCorpID_0Corel-Layer"/>
  <g id="_728791808">
   <path class="fil0" d="M183.1222 104.443c0.0394,-0.0713 0.0321,-0.1072 0.0744,-0.1871 0.2075,-0.4354 0.3448,-0.9614 0.3448,-1.5023 0,-0.4212 -0.0877,-0.8525 -0.2908,-1.2667 -0.1081,-0.2168 -0.295,-0.3743 -0.4528,-0.5512 0.1723,-0.4947 0.4324,-1.2502 0.4324,-1.2502 0.0584,-0.2419 0.0892,-0.4816 0.0892,-0.7172 0,-0.8815 -0.4178,-1.7043 -1.1657,-2.2179 -0.9815,-0.6751 -2.3079,-0.6562 -3.2967,0.0485 -0.7684,0.4924 -1.3015,1.3888 -1.8098,2.2807 -0.3243,-0.3447 -0.6589,-0.5723 -1.3497,-0.3995 -0.8678,0.2146 -0.7566,0.3789 -1.4635,1.4014 -2.5082,3.6523 -5.8355,9.4031 -9.6699,9.6006 -0.8297,-0.0987 -1.0837,-0.3406 -2.0785,-1.9042 -8.2865,-13.2008 -18.4696,-21.0195 -31.9525,-30.6207 -0.7852,-0.671 -2.4958,-3.3328 -4.1539,-5.9061 -2.8574,-4.45 -6.0995,-9.493 -9.382,-11.8022 -2.5038,-1.8113 -5.1803,-2.7753 -7.7641,-3.7043 -3.1268,-1.1277 -6.0892,-2.1926 -8.7448,-4.7297 -1.0601,-1.04 -2.0174,-2.4351 -3.1244,-4.0506 -2.2516,-3.2865 -5.1278,-7.3034 -10.6024,-10.8485 0.1369,-0.7962 0.3092,-1.8756 0.3092,-3.1931 0,-1.6155 -0.4479,-4.1513 -1.1758,-5.4995 -0.5536,-1.0268 -1.4224,-1.6243 -2.2391,-1.82 -1.4954,-0.3623 -3.8965,0.187 -5.5102,0.9114 3.192,-9.4273 10.6677,-15.6542 14.5641,-18.8735 2.1608,-1.7894 3.394,-2.8089 3.394,-4.1922 0,-0.2221 -0.0316,-0.4514 -0.0949,-0.6997 -0.566,-2.5446 -3.3875,-2.6775 -4.597,-2.7315l-0.2316 -0.0131c-1.6473,-0.0424 -6.9115,0.1387 -10.7265,3.044 -1.1256,0.3024 -2.1167,0.7654 -3.015,1.3321 -0.0467,-0.1592 -0.0381,-0.3272 -0.1116,-0.4849 -0.4607,-0.9933 -1.6684,-1.9676 -3.682,-1.7134 -3.7728,0.5769 -5.8982,1.5571 -7.3349,2.3459 -0.0949,0.054 -0.379,0.2293 -0.379,0.2293 -1.319,0.7888 -3.4486,2.1545 -5.0348,5.3301 -1.5108,1.1174 -3.1986,2.8278 -3.8401,5.4016 -1.6282,1.1145 -2.9646,3.0002 -3.0593,5.4338 -1.0059,1.189 -1.6182,2.4437 -1.9022,3.7598 -1.6097,-1.411 -3.524,-2.3707 -5.7905,-2.7475l-0.1619 -0.0278 -0.1639 -0.0029c-0.7116,-0.0131 -2.1888,-0.0424 -3.31,1.0867l-0.2863 0.2893 -0.1684 0.3681c-0.1724,0.3827 -0.2373,0.7464 -0.2373,1.0852 0,0.9041 0.4839,1.6082 0.6774,1.8916l0.1259 0.1899c0.0275,0.0687 0.3961,1.8405 0.3961,1.8405l0.2334 1.9456c0.5957,3.2048 1.9696,4.8773 3.7219,6.3672 -0.3766,1.1305 -0.5889,2.1735 -0.5889,3.0849 0,1.5483 0.4102,2.8177 0.7721,3.9307 0,0 0.0946,0.301 0.1598,0.5099 0.021,0.1782 0.0382,0.3666 0.0382,0.5945 0,2.2013 -0.8525,6.4898 -1.5132,9.0241 -0.0017,0.0088 -0.2585,0.8429 -0.2585,0.8429 -0.4987,1.5454 -1.3887,4.3296 -1.3887,7.3955 0,1.1046 0.1134,2.2469 0.4063,3.3812 0.5785,1.9354 2.0683,4.2502 4.1428,5.243 0.0777,0.0338 1.1658,0.4691 1.1658,0.4691 1.0436,0.3938 1.3591,0.5136 1.8048,1.2289 0.3812,0.5975 0.5433,2.5125 0.5433,4.5111 0,1.4795 -0.0864,3.0046 -0.2381,4.0734l-0.0189 0.1478c0,0 -0.0023,0.1597 -0.0023,0.1638 0,1.0755 0.682,2.066 1.6983,2.466 0.8774,0.3493 2.2051,0.3007 3.2911,-0.8753 0.7086,-0.7218 1.3167,-1.5212 1.8554,-2.3753 0.1409,0.2099 0.1724,0.4964 0.3726,0.671l0.0924 0.0822 0.1033 0.0695c0.3744,0.2609 0.8184,0.3573 1.2645,0.3933 -1.3404,0.9111 -2.9733,1.9399 -5.172,3.2551 -12.6457,1.9947 -21.0303,6.5982 -22.6041,12.2413 -20.0941,9.7779 -33.0571,30.3012 -33.0571,52.6839 0,32.3276 26.2987,58.6303 58.6199,58.6303 32.3417,0 58.6552,-26.3027 58.6552,-58.6303 0,-7.6588 -1.561,-15.0798 -4.3537,-21.9833 0.2106,-0.0964 0.48,-0.2248 0.7534,-0.3554 0.1939,0.2122 0.3937,0.4227 0.3937,0.4227 0.7367,0.8815 2.1943,1.9464 3.3727,1.9783 1.1781,0.0313 1.9211,-0.1204 1.9211,-0.1204 0,0 0.0737,-0.0211 0.1346,-0.0377 0.0989,0.1706 0.6546,1.1343 0.6546,1.1343 1.157,1.778 3.032,1.7295 4.0374,1.702 0.6253,-0.0147 1.0733,-0.0251 1.6244,0.2146 0.5707,0.2631 0.7853,1.0607 1.0607,2.8574l0.2231 1.3146c0.3305,1.4208 1.1611,2.0918 1.6097,2.4519l0.0164 0.0165c0.0908,0.4463 0.3705,1.8875 0.3705,1.8875 0.2082,1.5571 0.4462,3.3225 2.0871,4.0209 -0.0399,-0.0171 0.0446,-0.0171 0.1559,-0.0147 0.263,1.3042 0.3177,2.8887 1.8412,3.8039 0.3492,0.2106 0.7931,0.2505 1.2416,0.2906 0.0164,0.0695 0.04,0.1472 0.04,0.1472 0.3955,2.0032 1.986,2.5082 2.5859,2.7017 0,0 0.021,0.0062 0.0272,0.0084 0.0902,0.1496 0.9953,1.6285 0.9953,1.6285 0.6395,1.1491 1.2329,2.2367 2.0324,2.8888l0.3617 0.3008 0.4525 0.1306c0.2334,0.0651 0.4627,0.0924 0.6905,0.097 1.9312,2.4637 7.2278,10.3669 7.2278,17.7018 0,0.3491 -0.0117,0.6984 -0.0365,1.0435 -0.3447,4.9926 -2.3884,7.5431 -3.7411,9.2304 -1.5486,1.9313 -1.6135,4.1915 -1.6135,5.0792l0 0.1245c0.1894,2.1545 1.319,2.8677 2.1395,3.3874 0.8751,0.4668 3.3422,1.5023 6.8026,0.0588 2.8541,-1.1907 3.4632,-3.331 3.8635,-4.7488 0.1839,-0.6438 0.3067,-1.05 0.5127,-1.252 1.3204,-1.2814 2.857,-3.1352 3.0558,-6.1565 0.0232,-0.2465 0.0307,-0.4986 0.0307,-0.7594 0,-2.5484 -0.8196,-5.7527 -1.6024,-8.6061 -0.3244,-1.2119 -0.7596,-4.0689 -0.8502,-6.6718 1.1174,1.5445 2.0537,3.0947 2.6089,4.046l0.2804 0.4736c0.7376,1.2541 2.8483,4.8414 2.8483,8.3385 0,0.3852 -0.0235,0.7658 -0.0819,1.1445 -0.3855,2.3526 -1.1232,3.7094 -1.9821,5.2767 -0.8924,1.6292 -1.9018,3.4743 -2.4569,6.4534 -0.0701,0.4062 -0.1038,0.8061 -0.1038,1.1912 0,1.6262 0.6122,3.0441 1.7543,4.0142 1.6039,1.3596 4.0038,1.6227 6.5921,0.7241 3.2004,-1.1549 5.3972,-4.7866 6.0941,-9.7186 0.412,-0.2945 0.8355,-0.5998 0.8355,-0.5998 0.8326,-0.9363 1.0561,-1.9948 1.0561,-2.8804 0,-0.7514 -0.1607,-1.3784 -0.2425,-1.7025 -1.7105,-6.88 -2.0115,-10.2401 -2.0115,-12.9443 0,-0.728 0.022,-1.4093 0.0469,-2.0974l-0.1139 -5.8748c-0.2017,-1.7968 -1.0518,-3.1752 -1.8055,-3.9301 -0.3447,-0.396 -1.2693,-1.4483 -1.2693,-1.4483 -0.9246,-0.9488 -2.0756,-2.127 -2.327,-3.166 -0.3228,-1.3534 -0.4513,-3.0344 -0.4513,-4.9172 0,-3.2826 0.3827,-7.1751 0.7523,-10.9855 0.4046,-4.0929 0.7931,-8.0543 0.7931,-11.56 0,-1.5149 -0.1052,-2.9076 -0.2775,-4.2252 9.534,0.2967 13.8604,-9.523 15.3328,-12.8746l0.2498 -0.5638c0.2718,-0.7218 0.3814,-1.334 0.3814,-1.8538 -0.0016,-0.9488 -0.3741,-1.5612 -0.7742,-1.9759zm-115.712 -33.6335l0 0c0.133,-1.0161 0.2504,-1.7105 0.3702,-2.481 0.2171,0.1051 0.5183,0.141 0.7939,0.1958 0.2882,1.6118 1.273,2.4598 1.9588,2.9162 0,0.004 0.4736,1.8664 0.4736,1.8664 0.025,0.0571 0.0861,0.1284 0.1151,0.1849 -0.6286,0.5073 -1.3229,1.092 -2.2069,1.8771l-1.3106 1.1675c-1.2039,1.071 -2.178,1.9319 -3.1438,2.7353 1.4582,-2.4067 2.6131,-5.8827 2.9498,-8.4623z"/>
   <path class="fil0" d="M170.6407 157.9265c0.0276,0.021 0.0437,0.0656 0.0656,0.0884 0.0644,0.076 0.2454,0.2819 0.2454,0.2819l-0.311 -0.3703z"/>
   <path class="fil1" d="M2.2492 150.1813c0,-31.1423 25.2552,-56.3894 56.3707,-56.3894 31.1509,0 56.4083,25.2494 56.4083,56.3894 0,31.1447 -25.2557,56.381 -56.4083,56.381 -31.1155,0 -56.3707,-25.2363 -56.3707,-56.381z"/>
   <path class="fil0" d="M9.077 150.1813c0,-27.3844 22.2189,-49.5846 49.6079,-49.5846 27.3742,0 49.5911,22.2001 49.5911,49.5846 0,27.3806 -22.219,49.5683 -49.5911,49.5683 -27.3889,0 -49.6079,-22.1876 -49.6079,-49.5683z"/>
   <path class="fil1" d="M12.7571 150.1774c0,-25.363 20.5695,-45.9255 45.9278,-45.9255 25.3459,0 45.913,20.5625 45.913,45.9255 0,25.3646 -20.5671,45.917 -45.913,45.917 -25.3583,0 -45.9278,-20.5524 -45.9278,-45.917z"/>
   <path class="fil2" d="M106.9292 120.5413c-0.9488,-0.9785 -1.7991,-2.3063 -1.7991,-2.3063 -10.1666,-14.7306 -27.1847,-24.4321 -46.4684,-24.4321l-0.1011 0.1261c-0.7469,0.1517 -1.5189,0.6184 -2.5859,1.2227 -1.7147,0.8979 -3.5223,0.959 -5.2918,1.0498 -1.4199,-0.0908 -0.4335,-1.8538 -1.3001,-1.5611 -1.0014,0.2756 -3.2091,1.0373 -4.1642,1.6387 -0.0901,2.1819 -6.693,4.4584 -10.2527,2.7393 0.4205,-5.2266 9.0955,-9.7586 21.5138,-11.6312 7.7433,-4.6143 8.8371,-5.8195 13.9336,-10.335 2.2868,-2.0324 3.3389,-2.866 4.0796,-3.0171 0.328,-0.141 0.0987,-0.343 -0.1683,-0.3538 -0.6983,-0.2967 -1.0224,-0.7783 -1.2814,-1.3317 -0.408,-0.8583 -0.1371,-1.8767 -0.7157,-2.4155 -0.6795,-0.4673 -1.5166,-0.8062 -1.6032,-1.9358 -0.0418,-0.5747 -0.0817,-1.4853 -0.9089,-1.551 -1.1526,0.0383 -1.5697,0.2843 -1.6999,-2.0872 -0.0587,-1.035 -0.0211,-2.7085 -0.5598,-2.7523 -0.7765,-0.076 -1.5399,2.5231 -2.3754,8.9112 -0.6081,4.6457 -3.3709,9.9018 -4.3283,9.2349 -0.9191,-0.8016 -0.1433,-5.5967 -1.5525,-7.7326 -0.2192,-0.385 0.454,5.2602 -3.8042,9.6094 -0.5854,0.6334 -1.0903,0.2607 -1.0858,-0.0629 0.1621,-1.1765 0.7298,-8.0017 -0.6292,-10.0895 -1.0689,-1.7169 -2.2242,-1.807 -3.9053,-2.5352 -1.3887,-0.667 -2.5334,-2.4301 -2.9372,-3.7749 -1.1235,-4.3653 0.8588,-9.0029 1.2415,-10.4914 0.372,-1.4344 1.9001,-7.9213 1.5173,-10.625 -0.6193,-2.0596 -1.5657,-3.9308 -0.2026,-7.1136 0.2026,-0.3345 0.3663,-0.5785 0.0992,-0.8589 -2.0348,-1.563 -3.3961,-2.7987 -3.9707,-5.891 -0.3368,-1.8244 -0.0587,-2.6322 -0.7555,-4.2112 -0.2419,-0.6311 -0.7909,-0.9889 -0.6015,-1.4037 0.4315,-0.4324 1.0812,-0.4324 1.6707,-0.4222 3.3704,0.5595 5.3949,2.4496 6.6678,4.5047 0.4377,-0.8663 0.791,-1.3935 1.4053,-1.9968 -0.1347,-2.0858 0.8315,-3.6648 2.2157,-5.0247 -0.2334,-2.5884 1.5274,-4.1674 2.7752,-4.7356 0.1958,-2.2115 1.5195,-3.8387 3.621,-5.3095 1.4286,-3.2735 3.537,-4.3325 4.7744,-5.092 1.3146,-0.7231 3.1897,-1.5732 6.5287,-2.0874 1.4396,-0.1796 1.7487,0.7158 1.0773,1.3307 -2.1695,1.7528 -7.2231,7.1515 -9.2829,13.1374 0.6541,-1.1612 2.2282,-3.139 4.187,-4.0666 1.1068,-2.8834 3.7939,-4.369 5.4183,-5.1679 0.9488,-1.7353 3.0399,-3.9176 6.076,-4.5661 3.4111,-2.9243 8.9806,-2.8468 9.6622,-2.8322 1.1234,0.0613 2.5437,0.0482 2.7707,1.0794 0.396,1.484 -16.54,10.2014 -19.136,27.7764 -0.0949,0.783 4.1532,-4.0081 8.5968,-3.2821 0.2505,0.1081 0.4439,0.2922 0.5576,0.5449 2.0683,4.4681 0.1033,8.5742 0.6042,8.8766 8.7864,5.1664 10.6967,11.6986 14.4779,15.3985 5.3213,5.0759 11.5555,4.8831 16.7741,8.6429 4.9571,3.4993 10.6361,15.2737 13.5249,17.7039 12.4832,8.8937 23.0075,16.6918 31.3539,29.9977 1.1028,1.7317 1.7966,2.7713 3.9424,2.9647 4.6508,-0.1198 8.4837,-5.6265 11.5935,-10.6402 0.1724,-0.2629 0.3885,-0.3389 0.5756,-0.1893 0.3724,0.2841 0.1651,1.0287 0.5536,1.0709 1.0165,0.1426 1.877,-2.8934 2.9141,-3.5604 0.4103,-0.2945 1.0268,-0.0416 0.8895,0.4821 -0.3068,1.1571 -1.0312,2.5077 -1.0781,3.3894 0,0.2167 0.1886,0.1682 0.2981,0.0296 0.1928,-0.2272 0.4572,-0.3094 0.6719,-0.267 0.4354,0.0923 0.393,0.6562 0.2673,0.9276 -0.3841,0.7157 -0.7129,1.4452 -0.7626,2.2805 -0.0188,0.7117 0.5479,0.2004 0.8882,0.3978 0.4791,0.2191 0.3857,0.7914 0.1255,1.475 -1.2985,2.8722 -5.2832,13.3966 -14.7441,12.0336 -1.2124,-0.2147 -1.8332,-1.0945 -1.4681,0.2629 2.4176,8.1531 -2.3443,25.8571 -0.3256,34.2857 0.5813,2.4113 3.3186,4.3621 4.163,5.6203 0.4936,0.4752 1.0632,1.4766 1.1875,2.5961 0.6382,7.1916 -1.1875,7.8719 2.1341,21.2725 0.2819,1.0961 0.2468,1.9023 -0.3229,2.5482 -0.5901,0.6796 -1.0341,0.3846 -1.2153,1.0179 -0.4353,4.3223 -2.2158,7.7372 -4.7544,8.6546 -3.5102,1.2198 -5.8064,-0.436 -5.2966,-3.3943 0.9933,-5.3504 3.5641,-6.3728 4.4536,-11.8139 0.6763,-4.6103 -2.1135,-9.3485 -3.0616,-10.9603 -0.8793,-1.475 -3.1097,-5.4982 -5.8763,-8.0544 -0.3638,-0.4484 -0.6633,-0.3412 -0.7933,0.044 -1.0516,3.3287 0.0556,10.1524 0.526,11.9131 0.7785,2.83 1.6696,6.3123 1.5001,8.6186 -0.1461,2.2619 -1.3015,3.646 -2.3752,4.6897 -1.6432,1.5907 -0.5959,4.2525 -3.6823,5.5402 -2.2598,0.9426 -3.9278,0.5364 -4.6889,0.137 -0.7142,-0.4485 -1.0527,-0.6482 -1.1308,-1.5195 -0.0041,-1.0348 0.1072,-2.5207 1.1192,-3.7874 1.6476,-2.0599 3.8431,-4.9801 4.2272,-10.4736 0.7203,-9.9503 -8.1321,-21.2874 -8.6917,-21.4158 -0.5701,-0.1284 -0.3726,0.3727 -0.8207,0.2443 -0.8792,-0.7241 -1.9273,-3.4024 -2.8614,-4.4037 -0.505,-0.7007 -1.778,-0.396 -1.9758,-1.3927 -0.1075,-0.7726 -0.4251,-1.5492 -1.0475,-1.8773 -0.4087,-0.2397 -0.7032,0.1706 -1.0733,-0.0291 -1.0876,-0.8462 -1.1258,-3.8971 -1.4835,-4.0882 -0.3892,-0.1667 -0.7448,0.1449 -1.0247,0 -0.7887,-0.3367 -0.5952,-2.8895 -1.2286,-4.6965 -0.2942,-0.9488 -1.2604,-0.9174 -1.5273,-2.0621 -0.4233,-2.066 -0.3664,-4.7592 -2.5905,-5.7823 -2.2767,-0.9904 -3.7328,0.3703 -4.8162,-1.2706 -0.5725,-0.707 -0.4754,-1.8705 -1.9544,-2.0239 -0.7827,-0.3898 -1.0967,-1.3488 -1.8014,-1.1321 -0.3828,0.1113 -0.0631,0.8519 -0.8478,1.3507 -1.0607,0.0719 -2.1209,-2.7878 -3.5917,-2.6618 -0.4861,0.1832 -0.6756,0.7389 -1.2245,0.7726 -0.6335,0.0274 -0.6858,-3.2003 -2.7564,-3.9792 -0.3704,-0.1364 -0.6437,0.5431 -0.9614,0.0907 -0.0064,0.004 -0.8503,-0.642 -1.8328,-1.677z"/>
   <path class="fil3 str0" d="M106.9292 120.5413c-0.9488,-0.9785 -1.7991,-2.3063 -1.7991,-2.3063 -10.1666,-14.7306 -27.1847,-24.4321 -46.4684,-24.4321"/>
   <line class="fil3 str0" x1="58.6617" y1="93.8029" x2="58.5606" y2= "93.929" />
   <path class="fil3 str0" d="M58.5606 93.929c-0.7469,0.1517 -1.5189,0.6184 -2.5859,1.2227 -1.7147,0.8979 -3.5223,0.959 -5.2918,1.0498 -1.4199,-0.0908 -0.4335,-1.8538 -1.3001,-1.5611 -1.0014,0.2756 -3.2091,1.0373 -4.1642,1.6387 -0.0901,2.1819 -6.693,4.4584 -10.2527,2.7393 0.4205,-5.2266 9.0955,-9.7586 21.5138,-11.6312 7.7433,-4.6143 8.8371,-5.8195 13.9336,-10.335 2.2868,-2.0324 3.3389,-2.866 4.0796,-3.0171 0.328,-0.141 0.0987,-0.343 -0.1683,-0.3538 -0.6983,-0.2967 -1.0224,-0.7783 -1.2814,-1.3317 -0.408,-0.8583 -0.1371,-1.8767 -0.7157,-2.4155 -0.6795,-0.4673 -1.5166,-0.8062 -1.6032,-1.9358 -0.0418,-0.5747 -0.0817,-1.4853 -0.9089,-1.551 -1.1526,0.0383 -1.5697,0.2843 -1.6999,-2.0872 -0.0587,-1.035 -0.0211,-2.7085 -0.5598,-2.7523 -0.7765,-0.076 -1.5399,2.5231 -2.3754,8.9112 -0.6081,4.6457 -3.3709,9.9018 -4.3283,9.2349 -0.9191,-0.8016 -0.1433,-5.5967 -1.5525,-7.7326 -0.2192,-0.385 0.454,5.2602 -3.8042,9.6094 -0.5854,0.6334 -1.0903,0.2607 -1.0858,-0.0629 0.1621,-1.1765 0.7298,-8.0017 -0.6292,-10.0895 -1.0689,-1.7169 -2.2242,-1.807 -3.9053,-2.5352 -1.3887,-0.667 -2.5334,-2.4301 -2.9372,-3.7749 -1.1235,-4.3653 0.8588,-9.0029 1.2415,-10.4914 0.372,-1.4344 1.9001,-7.9213 1.5173,-10.625 -0.6193,-2.0596 -1.5657,-3.9308 -0.2026,-7.1136 0.2026,-0.3345 0.3663,-0.5785 0.0992,-0.8589 -2.0348,-1.563 -3.3961,-2.7987 -3.9707,-5.891 -0.3368,-1.8244 -0.0587,-2.6322 -0.7555,-4.2112 -0.2419,-0.6311 -0.7909,-0.9889 -0.6015,-1.4037 0.4315,-0.4324 1.0812,-0.4324 1.6707,-0.4222 3.3704,0.5595 5.3949,2.4496 6.6678,4.5047 0.4377,-0.8663 0.791,-1.3935 1.4053,-1.9968 -0.1347,-2.0858 0.8315,-3.6648 2.2157,-5.0247 -0.2334,-2.5884 1.5274,-4.1674 2.7752,-4.7356 0.1958,-2.2115 1.5195,-3.8387 3.621,-5.3095 1.4286,-3.2735 3.537,-4.3325 4.7744,-5.092 1.3146,-0.7231 3.1897,-1.5732 6.5287,-2.0874 1.4396,-0.1796 1.7487,0.7158 1.0773,1.3307 -2.1695,1.7528 -7.2231,7.1515 -9.2829,13.1374 0.6541,-1.1612 2.2282,-3.139 4.187,-4.0666 1.1068,-2.8834 3.7939,-4.369 5.4183,-5.1679 0.9488,-1.7353 3.0399,-3.9176 6.076,-4.5661 3.4111,-2.9243 8.9806,-2.8468 9.6622,-2.8322 1.1234,0.0613 2.5437,0.0482 2.7707,1.0794 0.396,1.484 -16.54,10.2014 -19.136,27.7764 -0.0949,0.783 4.1532,-4.0081 8.5968,-3.2821 0.2505,0.1081 0.4439,0.2922 0.5576,0.5449 2.0683,4.4681 0.1033,8.5742 0.6042,8.8766 8.7864,5.1664 10.6967,11.6986 14.4779,15.3985 5.3213,5.0759 11.5555,4.8831 16.7741,8.6429 4.9571,3.4993 10.6361,15.2737 13.5249,17.7039 12.4832,8.8937 23.0075,16.6918 31.3539,29.9977 1.1028,1.7317 1.7966,2.7713 3.9424,2.9647 4.6508,-0.1198 8.4837,-5.6265 11.5935,-10.6402 0.1724,-0.2629 0.3885,-0.3389 0.5756,-0.1893 0.3724,0.2841 0.1651,1.0287 0.5536,1.0709 1.0165,0.1426 1.877,-2.8934 2.9141,-3.5604 0.4103,-0.2945 1.0268,-0.0416 0.8895,0.4821 -0.3068,1.1571 -1.0312,2.5077 -1.0781,3.3894 0,0.2167 0.1886,0.1682 0.2981,0.0296 0.1928,-0.2272 0.4572,-0.3094 0.6719,-0.267 0.4354,0.0923 0.393,0.6562 0.2673,0.9276 -0.3841,0.7157 -0.7129,1.4452 -0.7626,2.2805 -0.0188,0.7117 0.5479,0.2004 0.8882,0.3978 0.4791,0.2191 0.3857,0.7914 0.1255,1.475 -1.2985,2.8722 -5.2832,13.3966 -14.7441,12.0336 -1.2124,-0.2147 -1.8332,-1.0945 -1.4681,0.2629 2.4176,8.1531 -2.3443,25.8571 -0.3256,34.2857 0.5813,2.4113 3.3186,4.3621 4.163,5.6203 0.4936,0.4752 1.0632,1.4766 1.1875,2.5961 0.6382,7.1916 -1.1875,7.8719 2.1341,21.2725 0.2819,1.0961 0.2468,1.9023 -0.3229,2.5482 -0.5901,0.6796 -1.0341,0.3846 -1.2153,1.0179 -0.4353,4.3223 -2.2158,7.7372 -4.7544,8.6546 -3.5102,1.2198 -5.8064,-0.436 -5.2966,-3.3943 0.9933,-5.3504 3.5641,-6.3728 4.4536,-11.8139 0.6763,-4.6103 -2.1135,-9.3485 -3.0616,-10.9603 -0.8793,-1.475 -3.1097,-5.4982 -5.8763,-8.0544 -0.3638,-0.4484 -0.6633,-0.3412 -0.7933,0.044 -1.0516,3.3287 0.0556,10.1524 0.526,11.9131 0.7785,2.83 1.6696,6.3123 1.5001,8.6186 -0.1461,2.2619 -1.3015,3.646 -2.3752,4.6897 -1.6432,1.5907 -0.5959,4.2525 -3.6823,5.5402 -2.2598,0.9426 -3.9278,0.5364 -4.6889,0.137 -0.7142,-0.4485 -1.0527,-0.6482 -1.1308,-1.5195 -0.0041,-1.0348 0.1072,-2.5207 1.1192,-3.7874 1.6476,-2.0599 3.8431,-4.9801 4.2272,-10.4736 0.7203,-9.9503 -8.1321,-21.2874 -8.6917,-21.4158 -0.5701,-0.1284 -0.3726,0.3727 -0.8207,0.2443 -0.8792,-0.7241 -1.9273,-3.4024 -2.8614,-4.4037 -0.505,-0.7007 -1.778,-0.396 -1.9758,-1.3927 -0.1075,-0.7726 -0.4251,-1.5492 -1.0475,-1.8773 -0.4087,-0.2397 -0.7032,0.1706 -1.0733,-0.0291 -1.0876,-0.8462 -1.1258,-3.8971 -1.4835,-4.0882 -0.3892,-0.1667 -0.7448,0.1449 -1.0247,0 -0.7887,-0.3367 -0.5952,-2.8895 -1.2286,-4.6965 -0.2942,-0.9488 -1.2604,-0.9174 -1.5273,-2.0621 -0.4233,-2.066 -0.3664,-4.7592 -2.5905,-5.7823 -2.2767,-0.9904 -3.7328,0.3703 -4.8162,-1.2706 -0.5725,-0.707 -0.4754,-1.8705 -1.9544,-2.0239 -0.7827,-0.3898 -1.0967,-1.3488 -1.8014,-1.1321 -0.3828,0.1113 -0.0631,0.8519 -0.8478,1.3507 -1.0607,0.0719 -2.1209,-2.7878 -3.5917,-2.6618 -0.4861,0.1832 -0.6756,0.7389 -1.2245,0.7726 -0.6335,0.0274 -0.6858,-3.2003 -2.7564,-3.9792 -0.3704,-0.1364 -0.6437,0.5431 -0.9614,0.0907 -0.0064,0.004 -0.8503,-0.642 -1.8328,-1.677"/>
   <path class="fil0" d="M57.1192 22.6031c0.8883,-1.1116 2.6788,-1.6229 2.6008,-1.9764 -0.1559,-0.3257 -0.8207,-0.0336 -1.3193,0 -0.2082,0.0322 -0.4924,-0.0189 -0.4586,-0.2644 0.8376,-2.9374 3.7052,-3.4633 4.5765,-4.3937 0.101,-0.1811 0,-0.1811 -0.2254,-0.3067 -0.4543,-0.019 -1.1805,0.4776 -1.1805,0.0467 0.3412,-2.9272 3.9057,-4.3353 4.5766,-4.566 0.1724,-0.1535 0.0166,-0.3565 -0.2059,-0.3916 -0.3032,0.0351 -0.552,0.2221 -0.5918,-0.1519 0.3452,-1.4519 2.2812,-2.6132 3.5309,-3.2339 1.2729,-0.5215 3.7915,-1.2956 3.7915,-0.9114 0,0.1533 -1.9755,1.113 -2.6298,2.0902 -0.541,0.8034 -1.0357,1.3292 -1.0756,2.5987 -2.026,0.9917 -3.0251,3.2339 -3.1598,5.3695 -1.435,0.7376 -2.5357,3.3391 -2.0645,4.4097 -1.6519,1.6068 -2.4661,3.9234 -2.3754,6.2517 -3.5793,4.68 -2.5184,6.465 1.4265,7.9169 0.5826,0.1855 1.1383,0.2206 1.2497,-0.0613 0.1392,-0.2791 -0.3407,-0.4499 -0.5175,-0.8546 -2.1461,-4.7793 0.5573,-7.1749 4.3346,-8.7846 0.2967,-0.1402 0.0735,-0.4762 -0.3704,-0.466 -1.0183,-0.0102 -1.9336,0.2528 -2.0621,-0.0789 -0.5511,-1.5599 3.5052,-4.7939 5.5023,-5.4089 0.8478,-0.2512 0.49,-0.6792 0.1409,-0.6194 -0.5346,-0.0482 -1.3613,0.2615 -1.6285,-0.4353 0.5091,-1.763 5.3716,-4.0987 6.087,-4.5178 0.4399,-0.2761 0.6249,-0.7772 -1.5256,-0.3375 -0.2021,0.0278 -0.4229,0.0278 -0.3282,-0.2659 0.4063,-1.2707 4.9556,-3.0484 7.2698,-3.8518 0.3662,-0.1709 0.4689,-0.7392 -0.6209,-0.5259 -0.3937,0.0599 -1.117,0.3228 -1.258,0.0307 0.141,-1.7192 5.1677,-3.044 6.9622,-3.4385 0.4062,-0.1344 0.4822,-0.3652 0.1284,-0.5375 -0.5723,-0.1724 -1.4773,0.2775 -1.132,-0.3229 1.3528,-0.853 4.9321,-0.8662 6.1753,-0.6646 0.343,0.0614 0.4252,0.1388 0.4611,0.2133 -0.389,0.8997 -6.403,2.6613 -7.1477,6.2794 -1.8031,0.745 -3.5662,2.4628 -3.7727,3.9337 -0.9488,0.5113 -2.8465,2.0727 -2.9584,4.2243 -1.0351,0.7728 -3.7516,3.1844 -2.8465,6.1102 -1.4517,1.3599 -2.5735,2.7518 -2.5165,6.5716 0.0212,1.3146 -1.6876,3.453 -3.4508,3.9468 -0.4988,0.2001 -0.3006,0.6018 0.0571,0.6968 2.9539,0.8706 5.6994,-0.7319 6.7727,-1.7514 3.4111,-3.2456 5.6831,-4.42 7.2151,-4.6099 0.2797,-0.0745 0.2797,0.1271 0.3259,0.2834 0.2166,0.8516 0.7468,2.9213 0.0085,5.8267 -0.97,3.6357 -3.754,5.3242 -4.5423,6.3175 -0.1394,0.1387 0.3908,1.6856 0.1072,2.4759 -0.3201,1.002 0.0417,1.6257 0.412,1.7762 1.0057,0.3725 1.7215,-3.3873 2.3251,-3.2924 0.4838,0.0263 0.4023,0.8472 0.9825,1.1437 0.3077,0.1081 0.7555,0.0146 0.8103,-0.3272 0.0736,-1.0502 0.4628,-3.6196 0.7177,-3.8957 0.185,-0.2308 0.7574,0.9304 0.7888,1.6374 0.0421,2.9257 -1.6011,5.4133 -0.6352,7.4291 0.2122,0.4339 0.6984,0.3988 1.035,0.0774 0.8839,-0.9465 1.4875,-4.3791 3.4508,-4.8129 2.647,-0.5873 5.2642,6.668 3.4001,8.6034 -0.9048,0.7698 -2.0432,0.0906 -3.1644,0.7129 -1.2077,0.707 -1.1068,3.4005 -1.9314,4.5149 -0.4907,0.4923 -1.0731,0.5756 -2.2076,0.6662 -2.4003,0.184 -1.6684,7.0393 -1.298,8.2622 0.2379,0.7257 0.7469,0.5848 1.0834,0.3388 0.3454,-0.2927 0.6084,-1.7025 0.6797,-3.0195 0.0987,-0.4166 0.825,-0.5831 1.3466,-1.0943 0.5643,-0.4382 0.2676,-0.9158 0.6082,-1.3438 0.4902,-0.5448 0.9699,-0.0657 1.37,-0.6734 1.0348,-0.8589 0.2982,-2.21 1.1335,-2.7782 1.2291,-0.8078 2.3214,-0.4061 3.4065,-1.595 0.6631,-0.7407 0.749,-2.305 1.6855,-2.5709 4.9679,-0.1198 9.9126,5.6032 10.7582,7.3049 2.4576,5.0861 -1.4749,12.764 1.2096,14.2349 3.3835,1.9651 2.6532,5.7841 2.2811,6.7437 -0.7302,1.948 -6.1438,4.4265 -6.8421,8.9399 -0.35,4.3347 1.9102,3.4361 2.0721,2.8974 0.1725,-0.5449 0.3243,-1.2542 0.5912,-1.7951 0.2129,-0.4793 0.8753,-0.2693 0.9535,0.1981 0.1277,0.4039 1.056,1.5633 2.4301,-0.9889 0.8669,-1.6221 3.2021,-3.7139 4.9526,-4.9195 1.7192,-1.2199 2.1317,-5.041 2.4326,-5.9124 0.223,-0.7532 0.8564,-0.7532 0.9509,-1.5611 0.0652,-0.8353 -1.5045,-3.6021 -0.5699,-5.5866 0.4355,-0.6607 1.4829,-1.1297 2.2679,-0.2162 0.8207,0.9488 -0.5088,4.0585 0.9788,4.1298 1.2682,0.036 1.4092,-1.4538 2.506,-1.3568 1.1188,0.2168 -0.8986,4.3177 0.2099,4.951 0.6779,0.2755 1.5279,-0.0485 1.8726,0.6287 0.3138,1.132 -1.7105,3.1919 0.0361,3.1919 18.505,-0.3259 25.2654,14.2343 24.0748,16.892 -0.5535,1.0098 -2.7837,-0.4947 -3.1055,0.5255 -1.6894,5.6978 2.127,10.0114 3.2341,10.756 0.3243,0.1854 0.9071,-0.0775 0.8619,-0.7908 -0.1842,-1.6244 -1.0868,-2.4936 -0.907,-4.1009 0.3139,-2.83 6.6344,-1.0834 6.9572,1.0711 0.1242,0.8079 0.1679,1.4663 0.8793,2.1482 0.8997,0.8502 3.0571,-0.1095 3.2675,1.7733 0.2732,3.6592 -4.2858,3.8697 -7.4423,6.1336 -1.5045,1.1572 -1.1641,1.9653 0.1097,2.3794 1.5191,0.4046 3.9453,-0.0291 5.1693,1.7678 1.7425,2.4934 -0.5449,7.7028 -0.6748,9.8995 -0.1316,2.2304 3.8619,8.7407 3.9453,12.0673 0.2878,1.6574 -0.8546,2.5539 -2.2641,1.1884 -1.3629,-1.4224 -2.7826,-3.6169 -3.8388,-5.2625 -0.3097,-0.5175 -1.1145,-0.5552 -1.0983,0.5136 -0.0162,2.8786 13.6223,20.6242 13.967,23.532 0.3097,1.5342 -0.5376,2.83 -0.1767,4.3176 0.1197,0.4359 0.6763,0.1854 0.7245,0.5347 0.0731,0.9865 -0.9303,2.4809 0.4966,3.1941 0.7072,1.9503 0,2.7627 0.3696,4.3787 0.1856,1.6095 0.945,3.8377 1.1174,5.4639 -0.3841,4.5789 -2.1398,6.3608 -3.5362,7.0427 -1.2021,0.6014 -1.7003,-0.4799 -1.5908,-1.4139 0.317,-2.769 3.3873,-7.6824 2.1619,-13.2198 -3.1477,-14.2388 -18.3873,-24.3421 -20.929,-29.7564 -0.8181,-2.0427 -3.7406,-2.2704 -3.9089,-4.6685 -0.2927,-0.7742 -1.0607,-0.5431 -1.7106,-1.254 -0.5512,-0.6232 -0.5307,-2.4912 -1.1236,-3.8589 -0.1727,-0.4297 -0.707,-0.2146 -1.0982,-0.6271 -2.1653,-2.8512 -1.7042,-16.7739 -3.6363,-18.6757 -1.4242,-0.7954 -2.5313,1.4178 -4.3045,1.6034 -1.3574,0.1386 -3.6005,-3.2324 -4.4231,-2.3823 -0.6649,0.6671 -0.3807,2.3823 -0.3242,2.6492 0.0697,0.2333 0.4064,1.4241 -0.0542,1.4241 -0.4125,0.0171 -1.0081,-0.8354 -2.729,-1.5337 -1.1445,-0.4142 -2.2304,0 -2.7606,-0.3406 -1.1742,-1.2667 0.0402,-3.9262 -1.9273,-4.6856 -0.5534,-0.2152 -0.6522,-1.6228 -0.9324,-2.1826 -0.2715,-0.3993 -0.8353,-0.3703 -1.0897,-0.6813 -0.5364,-0.804 -0.9112,-1.7927 -1.1467,-2.9247 -0.2043,-0.7767 -1.9966,0.1895 -2.1397,-1.035 -0.1729,-0.8211 -1.1343,-1.0795 -1.8767,-1.2079 -0.9113,-0.1073 -0.5262,-2.1019 -1.3152,-2.4284 -0.3366,-0.1534 -0.4628,0.234 -0.8166,0.0532 -0.3617,-0.4525 -0.2945,-0.8838 -0.753,-1.2103 -0.3939,-0.2647 -0.7728,0.181 -1.0563,-0.1386 -1.1467,-1.3928 -0.2357,-3.7327 -0.8336,-4.4248 -0.3931,-0.4314 -1.0709,0.0484 -1.6684,-0.4674 -0.5809,-0.4439 -0.6756,-1.1759 -1.0247,-1.2814 -1.0185,-0.0166 -1.3757,-0.202 -1.7945,-0.7133 -1.8562,-2.5963 -1.6478,-5.586 -2.2828,-6.6506 -0.4166,-0.6986 -1.0419,-1.1321 -1.5087,0.183 -0.9347,2.2596 -0.8353,10.6905 -3.5418,11.8374 -2.0807,1.0225 -3.9402,-2.5672 -4.9649,-3.2044 -0.4611,-0.2443 -0.5434,0.5135 -0.8714,0.5448 -0.9488,-0.3725 -0.7366,-1.4999 -1.5045,-1.9484 -0.7447,-0.3259 -0.4269,0.7257 -0.8543,0.6334 -0.7405,-0.6819 -0.7405,-2.5061 -1.3969,-2.8301 -0.5305,-0.2037 -0.8438,0.4171 -1.1467,0.154 -1.0686,-0.9282 -0.3218,-3.0029 -1.6117,-3.6551 -0.5599,-0.1808 -0.4777,0.7618 -1.0522,0.4948 -0.5514,-0.1999 -0.4565,-3.1394 -2.1734,-2.8575 -0.2546,0.0274 -0.1723,-0.3743 -0.3493,-0.5262 -0.5089,-0.065 -0.8627,0.6443 -1.3928,0.1855 -0.724,-0.9574 -1.2791,-1.4247 -1.7465,-1.7842 -0.724,-0.6146 -1.7967,0.1598 -2.6891,-0.505 -3.1392,-1.3808 -10.3331,4.1134 -13.5752,7.3325 -1.1827,-1.1023 -2.7775,0.0589 -4.1198,0.1975 -0.4843,0.1119 -1.9969,0.0468 -0.8102,-1.5885 2.9413,-3.1137 5.092,-2.9602 10.6316,-6.92 4.0529,-2.9687 7.6842,-5.8622 8.9908,-6.714 1.0772,-0.5559 2.7923,-1.0225 4.2291,0.8707 2.0268,2.643 6.5527,7.0826 8.4801,7.9517 3.9597,1.7146 4.1573,-1.3193 4.6434,-2.3715 0.4229,-1.0646 0.6858,-0.1832 0.6606,0.8246 -0.0103,0.6608 0.2358,1.5868 0.7743,1.6793 1.0876,0.1284 1.0984,-0.6923 1.2564,-1.2182 1.2371,-4.8727 6.0299,-10.7327 7.9259,-9.5293 1.3866,0.8836 2.207,0.8836 2.5375,-0.7893 0.3599,-2.1522 -1.3005,-4.1281 -1.7483,-6.3921 -0.4633,-2.6281 -0.177,-6.0783 -1.1788,-6.5573 -0.5826,-0.2498 -1.3881,0.3214 -1.8408,0.9582 -0.6037,0.8062 -0.6037,1.6557 -0.8125,2.6326 -0.0986,0.5386 -2.2846,1.1296 -2.5289,3.9615 -0.0234,0.5095 -0.8502,-0.513 -1.4453,0 -1.2165,0.9237 -0.9972,5.5216 -1.3886,5.7847 -0.455,0.0438 -1.0019,-0.4652 -1.1845,0.1973 0.0987,0.7453 -0.3138,2.5374 -0.6694,2.6783 -0.3005,0.0907 -0.6167,-0.2757 -1.0413,-0.0291 -1.0479,0.8792 -0.6253,2.0998 -1.6351,3.2632 -0.6163,0.76 -1.039,0.2276 -1.1087,-0.4377 -0.1495,-1.1337 -1.0561,-2.8426 -1.8538,-3.6483 -2.3355,-2.4114 -0.8919,-6.4345 -4.1916,-8.1068 -0.9904,-0.4925 -1.0474,-0.9746 -1.1587,-1.8663 -0.0384,-0.9785 -0.5998,-1.6559 -1.1093,-1.7843 -0.9089,-0.2631 -1.0646,-0.7578 -1.1024,-1.3951 0.0823,-1.7145 -1.1951,-1.789 -1.8788,-1.9307 -1.6096,-0.1563 -1.6644,-0.4645 -1.1571,-4.4887 0.1472,-0.9698 0.1557,-2.0902 -0.158,-3.0002 -0.8417,-1.2416 -2.6869,-0.4484 -2.4325,-2.4745 0.194,-1.3321 2.5779,-3.063 3.5958,-4.16 0.6169,-0.6954 1.0122,-2.492 -1.1172,-2.0582 -4.8329,1.2854 -8.6875,9.8509 -9.5966,11.4927 -3.4949,6.4067 -6.5355,8.9612 -9.3781,9.9483 -1.3295,0.4651 -5.9335,0.894 -6.8761,-3.617 -0.4839,-2.3715 0.0993,-4.6004 1.1766,-8.3091 4.6688,-16.2283 -0.5473,-13.1374 2.0049,-18.5405 1.6433,-1.8375 3.9786,-1.5863 6.3459,-1.8741 0.5239,-0.0686 0.3368,-0.7508 0.2084,-0.9523 -0.0947,-0.187 -0.6437,-0.4192 -1.3715,-0.5536 -0.7242,-0.1242 -2.2767,-1.5016 -2.4138,-2.9886 -0.1346,-1.6271 0.9129,-2.6335 1.6073,-3.3405 0.9911,-0.9787 1.7045,-1.0853 1.7215,-1.2986 -0.061,-0.8691 -1.8852,0.3492 -2.0457,0 -0.3828,-1.3525 0.7346,-2.5898 1.4751,-3.4603z"/>
   <path class="fil0" d="M52.0758 31.0531c-0.0609,0.5873 -0.0609,1.5001 0.7242,3.3888 -0.7851,0.1096 -1.2627,0.802 -1.9509,0.4222 -2.1483,-1.1773 -3.3539,-3.3625 -4.0499,-5.5769 -0.4503,-1.2679 -0.4064,-2.7797 -1.1155,-3.9264 3.7161,0.2483 6.4367,5.257 6.3921,5.6923z"/>
   <path class="fil2" d="M82.061 31.6404c0.198,-0.0599 0.2677,0.0745 0.2677,0.1548 -0.1558,2.6467 -2.9629,7.9388 -6.6177,8.8825 -0.2122,0.0438 -0.3491,0.016 -0.4227,-0.1856 -0.3328,-1.8419 0.8269,-4.9678 3.7979,-6.1115 1.4709,-0.5712 2.1646,-1.5498 2.9748,-2.7402z"/>
   <path class="fil2" d="M69.7604 42.0361c0.173,0.6793 0.0446,0.7289 -0.534,0.3403 -1.9109,-1.9982 -3.5394,-1.4855 -4.6965,-0.8792 -0.5637,0.2322 -0.7366,0.2147 -0.5724,-0.2966 1.7591,-2.6891 4.9658,-1.3584 5.8029,0.8356z"/>
   <path class="fil2" d="M59.838 42.4071c0.9638,1.3804 0.545,3.5305 -0.2904,5.1402 -0.6606,1.2342 -1.7465,3.2193 -2.1693,4.0856 -0.177,0.5171 -0.5557,0.5536 -0.8713,0.4134 -0.3157,-0.0614 1.1701,-2.5388 1.593,-5.4396 0.17,-1.192 -0.1472,-2.9287 0.7218,-4.2303 0.2984,-0.4309 0.7423,-0.2907 1.0161,0.0307z"/>
   <path class="fil2" d="M67.9196 43.7071c0.6986,1.6141 -1.0098,2.4029 -2.0093,2.5986 -0.6987,0.1256 -1.2245,-0.0745 -1.8158,-0.4587 -0.3303,-0.2366 -0.1535,-0.4061 -0.4124,-0.5258 -0.5348,-0.0336 -0.4064,0.3067 -0.9826,0.4411 -0.3978,0.0511 -0.4313,-0.1344 -0.1644,-0.5361 0.6506,-1.0823 1.0037,-1.8434 2.0729,-2.2743 0.997,-0.4046 2.4529,-0.821 3.3116,0.7552z"/>
   <path class="fil2" d="M62.3184 50.4847c0.8312,3.2354 0.219,4.4872 -0.5255,5.26 -0.2764,0.2497 -2.0161,0.5609 -2.243,-1.6696 0.869,-1.0487 1.403,-2.6438 1.925,-3.7759 0.364,-0.726 0.5936,-0.7742 0.8435,0.1855z"/>
   <path class="fil2" d="M55.8697 59.4285c-0.3767,2.0304 -1.208,3.0616 -2.6509,3.3854 -1.6815,0.2044 -2.397,-1.6559 -2.182,-1.6428 1.6363,0.298 3.3664,-0.634 4.3975,-1.9617 0.2459,-0.352 0.4988,-0.1067 0.4354,0.2191z"/>
   <path class="fil2" d="M138.3683 90.8678c0.9277,0.2967 1.3152,1.2496 0.9933,1.7927 -0.3851,0.8816 -1.1742,1.4852 -1.1891,2.3332 -0.0165,0.7133 -0.1409,1.1469 -0.7109,1.3317 -1.0435,0.1095 -1.6519,-2.0598 -2.5859,-0.5529 -0.5096,0.772 -1.5612,0.2436 -1.7004,-0.1877 -0.1849,-0.6672 -0.5848,-1.3466 -1.2558,-1.3757 -2.1802,-0.0634 -2.7165,-3.472 -2.3674,-4.3934 1.6748,-3.9496 5.8052,0.0102 8.8161,1.0521z"/>
   <path class="fil0" d="M52.7093 90.2132c-1.147,0.8543 -1.9189,1.9355 -2.5524,3.1144 -1.3716,0.2145 -3.5935,1.1422 -5.1802,1.8555 -0.5849,0.3069 -2.8169,0.4775 -4.8311,0.7109 -0.3071,-0.029 -0.3808,-0.2162 -0.3808,-0.4627 -0.1618,-1.5314 9.3109,-5.3989 12.9445,-5.7738 0.3303,0 0.5299,0.1581 0,0.5557z"/>
   <path class="fil0" d="M177.7132 109.8042c0.2981,0.772 -0.52,1.7465 -1.37,2.6891 -0.8399,0.9761 -4.4565,3.5284 -7.4714,3.3875 -0.8356,-0.1243 -1.7383,-1.0413 -1.4564,-2.1483 0.2921,-0.9449 3.2019,-1.1907 5.4368,-1.9651 1.6329,-0.558 2.4042,-0.9009 3.6955,-1.8898 0.8106,-0.6146 0.9991,-0.2482 1.1655,-0.0735z"/>
   <path class="fil0" d="M151.9847 166.286c0.5477,0.0189 0.4702,-0.1683 0.9435,0 0.4236,0.0189 0.4133,1.8436 0.3534,2.7839 -0.1022,0.5871 -0.2395,1.5799 0.3814,2.0301 0.5551,0.4777 -0.7348,2.2287 0.1972,3.0766 0.5141,0.711 -0.5756,2.5773 0.26,3.606 0.4032,0 0.7143,0.1182 0.9246,0.4565 -0.3521,2.1592 0.612,5.5632 0.2746,6.548 -0.9451,1.4858 -1.6564,1.3363 -2.4643,3.7813 -1.2137,2.3628 -4.6479,0.8901 -3.9745,-1.0207 2.4263,-4.1025 3.3171,-8.6707 3.4442,-10.6631 0.4033,-5.1785 -2.3224,-13.4137 -2.6263,-14.5607 -0.0629,-1.035 0.1564,-1.6559 0.9771,-0.7281 1.2008,1.8897 0.7655,4.5806 1.3089,4.6901z"/>
   <path class="fil0" d="M63.5262 122.2542l-0.1111 0.4964c0,0 -2.626,-3.9113 -3.1775,-4.734 -0.0925,1.1468 -1.3382,16.5378 -1.3382,16.5378l-0.4273 0c0,0 -1.2119,-15.3869 -1.302,-16.5378 -0.5512,0.8228 -3.1855,4.734 -3.1855,4.734 0,0 -5.4435,-25.0637 -5.8348,-26.8731 -0.3955,1.8094 -5.8388,26.8731 -5.8388,26.8731 0,0 -2.6321,-3.9158 -3.1856,-4.734 -0.0971,1.2095 -5.5968,70.2951 -5.5968,70.2951 0,0 0,0.0463 -0.0024,0.084 7.4696,4.928 16.1572,7.535 25.1355,7.535l0.0655 0c8.9884,0 17.6807,-2.607 25.1392,-7.5391l0 -0.0947c0,0 -5.0307,-63.3831 -5.5758,-70.2803 -0.5551,0.8228 -3.1854,4.734 -3.1854,4.734 0,0 -5.4581,-25.07 -5.8514,-26.8754 -0.3913,1.8076 -5.7276,26.379 -5.7276,26.379z"/>
   <path class="fil2" d="M84.0832 188.299l-5.6305 -70.9181 -3.2426 4.8271 -5.9585 -27.3513 -5.9377 27.3513 -3.2402 -4.8271 -1.3889 17.1568 -1.3488 -17.1568 -3.2443 4.8271 -5.9444 -27.3513 -5.9437 27.3513 -3.2444 -4.8271 -5.6498 70.9181 0 0.2185c7.2572,4.8146 15.9957,7.6276 25.3522,7.6276l0.0655 0c9.3861,0 18.1075,-2.8129 25.3561,-7.6276l0 -0.2185z"/>
   <polygon class="fil0" points="15.5597,173.2482 106.6012,147.6652 99.3627,122.6285 10.0319,147.7536 "/>
   <polygon class="fil1" points="26.1835,153.1987 26.8373,146.2677 38.5509,142.628 36.487,164.6828 28.302,166.9657 29.6994,151.9781 "/>
   <path class="fil1" d="M48.6781 158.0595c-0.2108,2.2869 -2.6344,4.2331 -4.8209,4.9001 -2.2282,0.5763 -4.374,-0.0589 -4.1597,-2.3668 0.2191,-2.397 2.6448,-4.4122 4.8461,-4.9846 2.1836,-0.6271 4.3444,0.0862 4.1345,2.4513z"/>
   <polygon class="fil1" points="69.2516,133.9718 68.6895,140.3366 61.7719,142.2304 61.5737,144.5508 67.6419,142.8653 67.0868,148.5443 61.0352,150.2612 60.2986,157.9772 51.9835,160.3189 54.073,138.2704 "/>
   <path class="fil1" d="M88.8048 137.2309c-1.2119,-0.8142 -2.7856,-1.3488 -4.6566,-0.8331 -2.4741,0.6984 -4.6771,3.1434 -4.9108,5.5524 -0.221,2.4051 1.7465,3.6842 4.2085,2.9881 1.9019,-0.5238 3.4801,-1.7294 4.9236,-3.375l-1.0231 8.3151c-1.3694,0.9871 -4.4664,2.1042 -5.9397,2.5185 -6.4846,1.8139 -11.0905,-1.6409 -10.4992,-7.9069 0.5957,-6.4362 6.3083,-13.043 12.9777,-14.9328 1.8539,-0.5238 3.7392,-0.7549 5.4458,-0.6163l-0.5261 8.29z"/>
   <path class="fil0" d="M53.0396 166.5805c-0.0839,0.8775 -0.7047,1.7254 -1.3825,1.98 -0.6476,0.1557 -1.1126,-0.4309 -1.0474,-1.3169 0.0421,-0.8986 0.6583,-1.7442 1.3275,-1.8812 0.682,-0.2671 1.176,0.3412 1.1024,1.2181zm3.5244 -1.0179l0 0c-0.0611,0.8941 -0.6732,1.7444 -1.351,1.9737 -0.6774,0.2185 -1.1235,-0.3978 -1.0601,-1.2502 0.0884,-0.8838 0.6562,-1.7316 1.3402,-1.9417 0.6648,-0.2276 1.161,0.3493 1.0709,1.2182zm2.3231 9.2829l0 0c0.3661,-4.5509 -2.1399,-6.7769 -5.4773,-5.8326 -3.3662,0.9472 -6.3606,4.669 -6.7373,9.2263 -0.3976,4.6628 2.1129,6.75 5.4855,5.799 3.3751,-0.9192 6.3415,-4.5236 6.7291,-9.1927zm-8.1891 2.3462l0 0c0.1431,-1.5108 1.056,-3.032 2.3102,-3.3836 1.2622,-0.3742 1.9503,0.6929 1.8244,2.2892 -0.1456,1.6245 -1.1024,3.0172 -2.3105,3.3585 -1.1931,0.3053 -1.9696,-0.5787 -1.8241,-2.2641z"/>
   <polygon class="fil0" points="59.68,181.6774 60.8964,167.1511 64.9001,166.0716 64.082,175.9209 67.4358,174.9846 67.0487,179.6701 "/>
   <path class="fil0" d="M69.3039 164.8008l3.855 -1.0224 2.9264 7.0586 0.0907 0c-0.0377,-1.2159 -0.1157,-2.4043 -0.0171,-3.6647l0.3852 -4.3474 3.8273 -1.0584 -1.2117 14.5122 -3.84 1.0562 -2.8719 -6.6365 -0.1556 0.0296c0.0479,0.9781 0.0901,1.8681 0,2.8593l-0.3916 4.7386 -3.796 1.031 1.1993 -14.5562z"/>
   <path class="fil0" d="M36.8974 173.84l3.8885 -1.0857 -0.6381 6.3414 0.0925 -0.0274c0.158,-0.6203 0.4375,-1.2119 0.7053,-1.8116l2.3166 -5.2009 4.3741 -1.2056 -4.0437 8.0223 3.2082 6.4259 -4.6392 1.2986 -1.5652 -3.9011c-0.1854,-0.4776 -0.4822,-0.9215 -0.4924,-1.4795l-0.1095 0.0275 -0.4337 6.079 -3.8879 1.056 1.2245 -14.539z"/>
  </g>
 </g>
</svg>
