<svg xmlns="http://www.w3.org/2000/svg" xmlns:xlink="http://www.w3.org/1999/xlink" version="1.0" id="Livello_1" x="0px" y="0px" style="enable-background:new 0 0 674 510;" xml:space="preserve" viewBox="137 55 400 400">
<style type="text/css">
	.st0{fill:#FFFFFF;}
	.st1{fill:#5A318C;}
	.st2{fill:#E02218;}
</style>
<g>
	<path class="st0" d="M137,255L337,55l200,200L337,455L137,255z"/>
	<path class="st1" d="M146.1,255L337,64.1L527.9,255L337,445.9L146.1,255z"/>
	<path class="st0" d="M173.4,255L337,91.4L500.7,255L337,418.6L173.4,255z"/>
	<path class="st2" d="M421.5,199.5l-21.1-21.1c-5.7-5.7-14.9-5.8-20.7-0.2c-11.7,11.2-24.1,25.1-32.3,41.3   c3.7-24.5,12.1-50.7,23.2-70.9l-30.8-30.8l-30.8,30.8c11.1,20.2,19.5,46.4,23.2,70.9c-8.3-16.3-20.6-30.1-32.3-41.3   c-5.8-5.6-15-5.5-20.7,0.2l-21.1,21.1l34.2,34.2v-31.7c10.3,3.1,31.3,15.3,38.8,31.7h-13.4v7h14.9l-12.5,10.2   c-2.9,2.4-3.3,6.7-0.9,9.6c0.1,0.2,0.3,0.3,0.4,0.5l20.2,20.3l20.1-20.3c2.7-2.7,2.6-7,0-9.6c-0.2-0.2-0.3-0.3-0.5-0.5l-12.5-10.2   H362v-7h-13.4c7.4-16.4,28.5-28.6,38.8-31.7v31.7l34.2-34.2L421.5,199.5L421.5,199.5z"/>
	<path class="st1" d="M199.9,257.9h82.3l54.9,53.7l54.9-53.7h82.3L337,392.2L199.9,257.9z"/>
</g>
</svg>