<?xml version="1.0" encoding="UTF-8" standalone="no"?>
<svg
   xmlns:dc="http://purl.org/dc/elements/1.1/"
   xmlns:cc="http://creativecommons.org/ns#"
   xmlns:rdf="http://www.w3.org/1999/02/22-rdf-syntax-ns#"
   xmlns:svg="http://www.w3.org/2000/svg"
   xmlns="http://www.w3.org/2000/svg"
   xmlns:sodipodi="http://sodipodi.sourceforge.net/DTD/sodipodi-0.dtd"
   xmlns:inkscape="http://www.inkscape.org/namespaces/inkscape"
   inkscape:version="1.0 (4035a4f, 2020-05-01)"
   height="800"
   width="697.69696"
   sodipodi:docname="Logo_Frosinone_Calcio.svg"
   version="1.1"
   viewBox="0 0 697.69698 800"
   data-name="Livello 1"
   id="Livello_1">
  <metadata
     id="metadata1002">
    <rdf:RDF>
      <cc:Work
         rdf:about="">
        <dc:format>image/svg+xml</dc:format>
        <dc:type
           rdf:resource="http://purl.org/dc/dcmitype/StillImage" />
      </cc:Work>
    </rdf:RDF>
  </metadata>
  <sodipodi:namedview
     inkscape:current-layer="Livello_1"
     inkscape:window-maximized="0"
     inkscape:window-y="25"
     inkscape:window-x="0"
     inkscape:cy="414.78534"
     inkscape:cx="204.40066"
     inkscape:zoom="0.56425297"
     showgrid="false"
     id="namedview1000"
     inkscape:window-height="780"
     inkscape:window-width="1440"
     inkscape:pageshadow="2"
     inkscape:pageopacity="0"
     guidetolerance="10"
     gridtolerance="10"
     objecttolerance="10"
     borderopacity="1"
     bordercolor="#666666"
     pagecolor="#ffffff"
     inkscape:document-rotation="0" />
  <defs
     id="defs847">
    <style
       id="style833">.cls-1{fill:none;}.cls-2{isolation:isolate;}.cls-3{fill:#ffdc3a;}.cls-4{fill:#f8d957;}.cls-11,.cls-14,.cls-15,.cls-16,.cls-17,.cls-4{fill-rule:evenodd;}.cls-5{clip-path:url(#clip-path);}.cls-6{clip-path:url(#clip-path-2);}.cls-16,.cls-7{fill:#ffdd49;}.cls-8{fill:#1a4e9b;}.cls-9{clip-path:url(#clip-path-4);}.cls-10{clip-path:url(#clip-path-5);}.cls-11{fill:#bccce6;}.cls-12{fill:#221f20;}.cls-13,.cls-15{fill:#252425;}.cls-14{fill:#808183;}.cls-17{fill:#0071b5;}</style>
  </defs>
  <title
     id="title849">logo-frosinone-calcio</title>
  <path
     style="fill:#ffdb00;fill-opacity:1;stroke-width:8.15654"
     id="path891"
     d="M 0.65252331,0 H 697.13953 c 4.81236,194.45193 -21.61483,358.31684 -76.18209,497.54899 -39.80392,101.1411 -96.98127,189.558 -179.03607,251.54771 a 360.5191,360.5191 0 0 1 -67.61772,40.13018 c -6.3621,2.93636 -22.10422,11.74542 -25.9378,10.68507 A 188.1714,188.1714 0 0 1 306.35967,776.82894 C 213.45666,718.34654 147.71495,634.00791 95.757785,536.37412 34.746864,421.69315 5.7095788,281.72692 0,116.31227 V 89.150991 C 1.386612,60.847794 0.24469628,29.526678 0.65252331,0 Z"
     class="cls-4" />
  <path
     sodipodi:nodetypes="sssssccssssscs"
     id="path910"
     d="M 212.45817,679.56554 C 174.14263,640.95885 142.77321,593.33053 116.55194,548.32301 102.36406,523.97019 90.175107,494.67749 79.50346,467.67464 66.504083,434.78187 55.756121,403.44138 46.389043,365.30372 36.801093,326.26678 29.361204,283.71492 24.318416,236.2178 19.559845,191.39767 17.063602,158.82125 17.04717,107.03239 h 661.17019 c -0.0165,51.78886 -2.51268,84.36528 -7.27124,129.18541 -5.04279,47.49712 -12.48268,90.04898 -22.07063,129.08592 -9.36708,38.13766 -20.11505,69.47815 -33.11442,102.37092 -10.67165,27.00285 -22.8606,56.29555 -37.04849,80.64837 -26.22126,45.00752 -57.59068,92.63584 -95.90622,131.24253 -61.13313,61.59767 -92.97638,76.82524 -135.17409,99.83214 -42.19772,-23.0069 -74.04097,-38.23447 -135.1741,-99.83214 z"
     style="fill:#004292;fill-opacity:1;stroke:none;stroke-width:1.00376000000000021px;stroke-linecap:butt;stroke-linejoin:miter;stroke-opacity:1" />
  <g
     id="g1019"
     transform="matrix(1.0037643,0,0,1.0037643,-0.81565404,0)">
    <polygon
       style="fill:#004292;fill-opacity:1"
       class="cls-8"
       points="7.44,15.55 7.44,8.83 11.53,8.83 11.53,9.83 8.95,9.83 8.95,11.63 10.96,11.63 10.96,12.65 8.95,12.65 8.95,15.55 "
       id="polygon903"
       transform="matrix(8.1259521,0,0,8.1259521,-40.71102,-45.017775)" />
    <path
       class="cls-8"
       d="M 97.43017,81.340781 H 85.241238 A 53.712544,53.712544 0 0 0 82.722193,62.488572 8.1259521,8.1259521 0 0 0 75.246317,56.800405 H 72.239714 V 81.178262 H 59.888267 v -54.44388 h 21.289995 a 14.951752,14.951752 0 0 1 11.132554,3.4129 11.620112,11.620112 0 0 1 3.331644,8.125952 v 2.925343 a 10.401219,10.401219 0 0 1 -2.844087,7.557136 13.732859,13.732859 0 0 1 -8.36973,3.737938 14.951752,14.951752 0 0 1 9.669883,8.125952 48.186896,48.186896 0 0 1 3.250384,20.477399 M 83.778566,42.336211 v -1.218893 a 6.0944641,6.0944641 0 0 0 -1.950228,-5.11935 8.7760283,8.7760283 0 0 0 -5.525648,-1.543931 h -4.062976 v 14.545454 h 3.331641 a 9.669883,9.669883 0 0 0 6.256983,-1.62519 5.8506855,5.8506855 0 0 0 1.950228,-4.794312"
       id="path905"
       style="stroke-width:8.12595;fill:#004292;fill-opacity:1" />
    <path
       class="cls-8"
       d="m 147.24225,55.744032 a 28.684611,28.684611 0 0 1 -6.09446,19.746063 21.046216,21.046216 0 0 1 -16.25191,6.8258 20.802437,20.802437 0 0 1 -16.2519,-6.8258 28.034535,28.034535 0 0 1 -6.17572,-19.583544 v -3.4129 a 30.634839,30.634839 0 0 1 5.76942,-19.421026 20.152361,20.152361 0 0 1 16.90198,-7.475876 18.933468,18.933468 0 0 1 16.25191,7.638395 31.447435,31.447435 0 0 1 5.85068,19.258507 z m -12.35144,-0.731336 v -1.462672 a 48.755713,48.755713 0 0 0 -1.78771,-15.033011 8.1259521,8.1259521 0 0 0 -8.12596,-4.875571 8.1259521,8.1259521 0 0 0 -8.12595,4.388014 42.092432,42.092432 0 0 0 -1.95023,15.520568 v 1.300153 a 47.374301,47.374301 0 0 0 1.70645,15.520568 8.1259521,8.1259521 0 0 0 8.12596,4.225495 8.1259521,8.1259521 0 0 0 7.63839,-4.550533 33.803961,33.803961 0 0 0 2.43779,-15.033011"
       id="path907"
       style="stroke-width:8.12595;fill:#004292;fill-opacity:1" />
    <path
       class="cls-8"
       d="m 189.00965,65.088876 a 14.626714,14.626714 0 0 1 -5.85069,12.839005 27.059421,27.059421 0 0 1 -16.2519,4.144235 67.770441,67.770441 0 0 1 -9.99492,-0.650076 39.167089,39.167089 0 0 1 -6.66329,-1.70645 v -9.426104 a 24.377856,24.377856 0 0 0 6.50077,2.356526 40.629761,40.629761 0 0 0 8.69477,1.056374 15.520569,15.520569 0 0 0 8.12595,-1.625191 6.1757236,6.1757236 0 0 0 2.27526,-5.281869 5.931945,5.931945 0 0 0 -1.70645,-4.225495 26.896902,26.896902 0 0 0 -9.26358,-4.95683 24.865413,24.865413 0 0 1 -9.42611,-6.256984 15.35805,15.35805 0 0 1 -3.33164,-10.401218 13.001523,13.001523 0 0 1 5.44439,-10.644998 22.833925,22.833925 0 0 1 14.87049,-4.388014 42.254951,42.254951 0 0 1 8.12596,0.731336 29.090909,29.090909 0 0 1 5.20061,1.381412 v 8.125952 l -6.17573,-1.300152 a 33.641442,33.641442 0 0 0 -6.58202,-0.568817 13.082783,13.082783 0 0 0 -7.06958,1.462671 4.5505332,4.5505332 0 0 0 -2.194,3.819198 5.6881665,5.6881665 0 0 0 1.62519,4.388014 38.842051,38.842051 0 0 0 9.58862,4.388014 22.590147,22.590147 0 0 1 10.48248,6.8258 15.27679,15.27679 0 0 1 3.16912,9.751142"
       id="path909"
       style="stroke-width:8.12595;fill:#004292;fill-opacity:1" />
    <rect
       class="cls-8"
       x="198.67953"
       y="26.734383"
       width="12.351447"
       height="54.687656"
       id="rect911"
       style="stroke-width:8.12595;fill:#004292;fill-opacity:1" />
    <polygon
       style="fill:#004292;fill-opacity:1"
       class="cls-8"
       points="36.46,12.8 36.46,8.83 37.55,8.83 37.55,15.55 36.89,15.55 33.53,11.32 33.53,15.55 32.45,15.55 32.45,8.83 33.27,8.83 "
       id="polygon913"
       transform="matrix(8.1259521,0,0,8.1259521,-40.71102,-45.017775)" />
    <path
       class="cls-8"
       d="m 316.34332,55.744032 a 28.359573,28.359573 0 0 1 -6.17573,19.746063 22.671406,22.671406 0 0 1 -32.50381,0 28.034535,28.034535 0 0 1 -6.25698,-19.583544 v -3.4129 a 31.203656,31.203656 0 0 1 5.76943,-19.421026 20.31488,20.31488 0 0 1 16.98324,-7.475876 19.095987,19.095987 0 0 1 16.2519,7.638395 31.447435,31.447435 0 0 1 5.93195,19.258507 z m -12.43271,-0.731336 v -1.462672 a 49.324529,49.324529 0 0 0 -1.70645,-15.033011 8.1259521,8.1259521 0 0 0 -8.12595,-4.875571 8.1259521,8.1259521 0 0 0 -8.12595,4.388014 42.092432,42.092432 0 0 0 -1.6252,15.520568 v 1.300153 a 44.611477,44.611477 0 0 0 1.78771,15.520568 8.1259521,8.1259521 0 0 0 8.12596,4.225495 8.1259521,8.1259521 0 0 0 7.63839,-4.550533 35.266632,35.266632 0 0 0 2.35653,-15.033011"
       id="path915"
       style="stroke-width:8.12595;fill:#004292;fill-opacity:1" />
    <polygon
       style="fill:#004292;fill-opacity:1"
       class="cls-8"
       points="48.78,12.8 48.78,8.83 49.86,8.83 49.86,15.55 49.21,15.55 45.85,11.32 45.85,15.55 44.77,15.55 44.77,8.83 45.58,8.83 "
       id="polygon917"
       transform="matrix(8.1259521,0,0,8.1259521,-40.71102,-45.017775)" />
    <polygon
       style="fill:#004292;fill-opacity:1"
       class="cls-8"
       points="54.6,11.63 54.6,12.65 52.6,12.65 52.6,14.55 55.36,14.55 55.36,15.55 51.08,15.55 51.08,8.83 55.17,8.83 55.17,9.83 52.6,9.83 52.6,11.63 "
       id="polygon919"
       transform="matrix(8.1259521,0,0,8.1259521,-40.71102,-45.017775)" />
    <path
       class="cls-8"
       d="m 470.00507,79.878109 a 13.895378,13.895378 0 0 1 -4.55053,1.625191 36.485525,36.485525 0 0 1 -8.12595,0.812595 24.377856,24.377856 0 0 1 -17.95836,-6.8258 26.734382,26.734382 0 0 1 -6.98832,-20.071102 v -2.194007 a 27.546978,27.546978 0 0 1 7.06958,-19.827323 23.565261,23.565261 0 0 1 17.79584,-7.475876 40.142203,40.142203 0 0 1 7.63839,0.568817 16.251904,16.251904 0 0 1 4.79431,1.381412 v 8.36973 a 16.820721,16.820721 0 0 0 -4.22549,-1.462671 23.890299,23.890299 0 0 0 -6.25699,-0.650076 12.270188,12.270188 0 0 0 -10.40121,5.11935 24.377856,24.377856 0 0 0 -3.73794,14.301675 v 0.812596 a 24.377856,24.377856 0 0 0 3.49416,14.464194 11.376333,11.376333 0 0 0 9.50736,4.631793 25.596749,25.596749 0 0 0 7.06958,-0.812595 c 1.86897,-0.568817 3.4129,-1.056374 4.55053,-1.543931 z"
       id="path921"
       style="stroke-width:8.12595;fill:#004292;fill-opacity:1" />
    <path
       class="cls-8"
       d="M 521.9299,81.340781 H 509.25342 L 505.2717,68.257998 h -17.79583 l -4.14424,13.082783 h -10.2387 l 18.36465,-54.606399 h 11.53886 z m -19.2585,-20.721178 -7.06958,-20.39614 -5.93195,20.39614 z"
       id="path923"
       style="stroke-width:8.12595;fill:#004292;fill-opacity:1" />
    <polygon
       style="fill:#004292;fill-opacity:1"
       class="cls-8"
       points="69.92,15.55 69.92,8.83 71.43,8.83 71.43,14.55 73.93,14.55 73.93,15.55 "
       id="polygon925"
       transform="matrix(8.1259521,0,0,8.1259521,-40.71102,-45.017775)" />
    <path
       class="cls-8"
       d="m 603.10817,79.878109 a 13.814119,13.814119 0 0 1 -4.6318,1.625191 35.754189,35.754189 0 0 1 -8.12595,0.812595 24.377856,24.377856 0 0 1 -18.03961,-6.8258 27.059421,27.059421 0 0 1 -6.98832,-20.071102 v -2.194007 a 27.22194,27.22194 0 0 1 7.15084,-19.827323 23.484002,23.484002 0 0 1 17.71457,-7.475876 41.036058,41.036058 0 0 1 8.12595,0.568817 17.064499,17.064499 0 0 1 4.79432,1.381412 v 8.36973 a 16.820721,16.820721 0 0 0 -4.2255,-1.462671 23.890299,23.890299 0 0 0 -6.25698,-0.650076 12.188928,12.188928 0 0 0 -10.40122,5.11935 24.377856,24.377856 0 0 0 -3.73794,14.301675 v 0.812596 a 24.377856,24.377856 0 0 0 3.49416,14.464194 11.213814,11.213814 0 0 0 9.50736,4.631793 25.027933,25.027933 0 0 0 6.98832,-0.812595 43.555103,43.555103 0 0 0 4.6318,-1.543931 z"
       id="path927"
       style="stroke-width:8.12595;fill:#004292;fill-opacity:1" />
    <rect
       class="cls-8"
       x="613.4281"
       y="26.734383"
       width="12.351447"
       height="54.687656"
       id="rect929"
       style="stroke-width:8.12595;fill:#004292;fill-opacity:1" />
    <path
       class="cls-8"
       d="m 680.46723,55.744032 a 28.684611,28.684611 0 0 1 -6.09446,19.746063 21.046216,21.046216 0 0 1 -16.25191,6.8258 20.802437,20.802437 0 0 1 -16.2519,-6.8258 28.034535,28.034535 0 0 1 -6.17573,-19.583544 v -3.4129 a 30.634839,30.634839 0 0 1 6.17573,-19.095988 20.152361,20.152361 0 0 1 16.2519,-7.475876 18.933468,18.933468 0 0 1 16.25191,7.638395 31.447435,31.447435 0 0 1 6.09446,18.933469 z m -12.35145,-0.731336 v -1.462672 a 48.755713,48.755713 0 0 0 -1.86897,-15.033011 8.1259521,8.1259521 0 0 0 -8.12595,-4.875571 8.1259521,8.1259521 0 0 0 -8.12595,4.388014 42.092432,42.092432 0 0 0 -1.95023,15.520568 v 1.300153 a 47.374301,47.374301 0 0 0 1.95023,15.520568 8.1259521,8.1259521 0 0 0 8.12595,4.225495 8.1259521,8.1259521 0 0 0 7.6384,-4.550533 33.803961,33.803961 0 0 0 2.43778,-15.033011"
       id="path931"
       style="stroke-width:8.12595;fill:#004292;fill-opacity:1" />
  </g>
  <g
     id="g1052"
     transform="matrix(1.0037643,0,0,1.0037643,-0.81565404,0)">
    <path
       class="cls-11"
       d="m 187.54697,497.87709 c 36.07923,2.51904 28.27832,34.69781 70.53327,34.29151 2.35653,-8.77602 3.25038,-17.95835 0,-21.53377 -21.94007,-23.72778 -25.67801,-40.62976 -15.68309,-54.93144 18.03962,-25.43423 79.06552,-36.323 97.51143,-36.323 30.47232,31.36617 31.85373,77.2778 -13.48908,87.43524 -7.71966,1.78771 -21.53378,6.98832 -18.93347,19.09599 1.86897,9.01981 17.30828,21.04622 6.33824,32.50381 -6.98832,7.39462 -22.42763,14.87049 -64.27628,11.53885 -25.27171,-2.11275 -36.40427,-7.63839 -48.75571,-7.63839 -4.71306,0 -28.76587,-3.4129 -28.44084,-3.33164 9.01981,4.55053 -8.53225,-7.15084 -5.93194,-13.73286 3.73794,-9.91366 18.93347,-10.48248 26.73438,-8.12595 -10.97003,-4.95684 -19.90858,2.51904 -24.37785,-5.36313 a 14.382935,14.382935 0 0 1 3.65667,-15.76435 c 4.71306,-4.63179 11.86389,-6.33824 28.1158,4.46927 a 42.092432,42.092432 0 0 0 -21.20874,-9.75114 c -4.71305,-0.48756 1.30016,-13.6516 8.12596,-13.08278"
       id="path941"
       style="stroke-width:8.12595;fill:#ccd9ef;fill-opacity:1" />
    <path
       sodipodi:nodetypes="sssssscccsssssssssssssssssssccsssssssssssscccssssssssssssssscscssssssssssssssssssssssssssscccssscccssssccssccsssssssssccssccsssssssssccssscc"
       class="cls-12"
       d="m 268.07516,572.55459 c -5.68817,0 -12.02641,0 -19.17725,-0.8126 v 0 c -25.51549,-2.11275 -36.89182,-8.12595 -48.75571,-7.63839 v 0 c -3.73794,0 -17.63332,-1.86897 -24.37786,-2.76283 v 0 c -3.53915,-1.48325 -3.93487,-1.80606 -4.55053,-3.25038 -0.54173,-0.5959 -1.08346,-1.19181 -1.62519,-1.78771 v 0 c -2.63417,-2.50795 -4.35093,-5.82702 -4.87557,-9.4261 v 0 c -0.15988,-0.69518 -0.15988,-1.41757 0,-2.11275 v 0 c 1.29383,-3.30324 3.75026,-6.01976 6.90706,-7.63839 v 0 c -1.78984,-0.79434 -3.23265,-2.20829 -4.06298,-3.98172 v 0 c -0.90343,-1.75706 -1.35052,-3.7131 -1.30015,-5.68817 v 0 c 0.0167,-4.66226 1.9224,-9.11867 5.28187,-12.35145 v 0 c 1.54739,-1.57573 3.43869,-2.77169 5.52565,-3.49415 v 0 c -0.64618,-0.76632 -0.941,-1.76869 -0.8126,-2.76283 v 0 c 0.17366,-2.97494 1.28282,-5.81895 3.16912,-8.12595 v 0 c 1.86497,-2.70994 4.84764,-4.4399 8.12595,-4.71305 h 0.65008 c 13.5092,0.90099 25.93516,7.70851 33.96648,18.60843 v 0 c 8.41418,10.53093 21.40118,16.34329 34.86034,15.60183 v 0 c 1.03139,-3.73586 1.60442,-7.58333 1.70645,-11.4576 v 0 c 0.20846,-2.40191 -0.39221,-4.80456 -1.70645,-6.8258 v 0 c -14.8705,-15.68308 -21.45252,-28.76587 -21.45252,-40.46724 v 0 c 0.0172,-6.088 1.98198,-12.01077 5.60691,-16.90198 v 0 c 19.17725,-26.4906 80.04063,-36.97308 98.9741,-37.1356 h 0.73133 l 0.32504,0.73134 c 13.38418,12.82262 21.40029,30.24894 22.42763,48.75571 v 0 c 0,19.17725 -11.62011,36.07923 -36.72931,41.60487 v 0 c -4.14212,0.88756 -8.10043,2.48188 -11.70137,4.71306 v 0 c -3.59656,1.97413 -5.92833,5.65588 -6.17572,9.75114 v 0 c -0.10452,0.83643 -0.10452,1.68261 0,2.51904 v 0 c 0.97511,5.68817 10.07618,14.13916 10.2387,23.8903 v 0 c -0.0127,3.84329 -1.59836,7.5138 -4.38802,10.15744 v 0 c -6.17572,6.74454 -18.44591,13.00153 -46.39918,13.00153 v 0 z m -18.85221,-4.55054 c 6.98832,0.56882 13.2453,0.8126 18.85221,0.8126 v 0 c 27.54698,0 38.51701,-6.09447 43.9614,-11.78263 v 0 c 2.09005,-1.96256 3.29263,-4.69036 3.33164,-7.55714 v 0 c 0,-7.31335 -8.12595,-15.52057 -10.2387,-23.15896 v 0 c -0.11621,-1.08034 -0.11621,-2.17004 0,-3.25038 v 0 c 0.25756,-5.4331 3.34046,-10.33492 8.12595,-12.92027 v 0 c 3.97532,-2.46428 8.34628,-4.22366 12.92027,-5.20061 v 0 c 23.15896,-5.52564 33.47892,-20.31488 33.56018,-38.02945 v 0 c -0.93549,-17.32279 -8.3629,-33.65729 -20.80244,-45.74911 v 0 c -18.77095,0 -78.41543,11.53885 -95.07364,35.51041 v 0 c -3.18151,4.24194 -4.89321,9.40554 -4.87557,14.70797 v 0 c 0,10.07618 6.17573,22.50889 20.39614,37.9482 v 0 c 2.03871,2.66614 2.99635,6.00335 2.68157,9.34484 v 0 c -0.10028,4.73035 -0.81039,9.428 -2.11275,13.97664 v 0 1.38141 h -2.27527 c -14.74891,0.90406 -29.0289,-5.35856 -38.35449,-16.82072 v 0 c -7.40168,-10.4201 -19.10001,-16.95564 -31.85373,-17.79583 v 0 -1.86897 1.86897 0 c -2.08244,0.27143 -3.93242,1.46496 -5.03809,3.25038 v 0 c -1.36028,1.57984 -2.21018,3.53461 -2.43779,5.60691 v 0 0.48755 0 c 8.1639,1.22886 15.82054,4.71938 22.10259,10.07618 v 0 l -2.19401,3.08786 c -5.29096,-4.39336 -11.71134,-7.20931 -18.52717,-8.12595 v 0 c -2.72119,-0.0329 -5.33625,1.05424 -7.2321,3.0066 v 0 c -2.58091,2.56542 -4.06646,6.0317 -4.14423,9.66989 v 0 c -0.0318,1.35433 0.27543,2.69513 0.89385,3.90045 v 0 c 1.38141,2.51905 2.60031,2.76283 5.52565,2.84409 v 0 h 7.47588 v 0 c 3.46494,-0.0467 6.90001,0.64587 10.07618,2.03149 v 0 l -1.38141,3.49416 c -2.62599,-0.83848 -5.36954,-1.25001 -8.12596,-1.2189 v 0 c -6.56693,-0.85555 -12.99618,2.35908 -16.2519,8.12595 v 0 c -0.0504,0.24118 -0.0504,0.49016 0,0.73134 v 0 c 0.43322,2.2584 1.50485,4.34524 3.08786,6.01321 v 0 c 1.54393,1.86896 3.25038,3.57541 4.38801,4.79431 v 0 l 9.75115,1.21889 v 0 c 6.4195,0.89385 13.48908,1.70645 15.52057,1.70645 v 0 c 13.08278,0 23.8903,5.52565 48.75571,7.63839 z"
       id="path943"
       style="fill:#231f20;fill-opacity:1;stroke-width:8.12595" />
    <path
       class="cls-11"
       d="m 195.59167,223.13865 c 9.4261,16.2519 29.41594,23.80903 42.82377,29.74098 31.60995,-0.56882 116.03859,47.45556 32.09751,51.76232 -45.83037,2.27526 -55.50026,-6.66329 -80.85323,-25.92179 a 30.391061,30.391061 0 0 0 -27.22194,-6.8258 c -4.38801,0.81259 -29.98476,3.98171 -34.04774,-14.95175 -1.05637,-4.95683 -2.6003,-16.25191 3.4129,-22.26511 -14.95175,-15.03301 -10.31996,-28.60335 1.2189,-34.61656 8.12595,-4.14423 22.10259,-9.4261 36.48552,19.66481 -3.65668,-8.12596 -4.79431,-11.0513 -6.58202,-16.25191 6.90706,-3.0066 28.35957,11.45759 33.07263,19.66481"
       id="path945"
       style="stroke-width:8.12595;fill:#ccd9ef;fill-opacity:1" />
    <path
       class="cls-12"
       d="m 188.52209,280.02031 a 28.84713,28.84713 0 0 0 -18.52717,-7.2321 v 0 a 44.692737,44.692737 0 0 0 -7.6384,0.73134 v 0 a 44.773996,44.773996 0 0 1 -9.0198,0.81259 v 0 a 38.273234,38.273234 0 0 1 -16.25191,-3.08786 v 0 a 19.746064,19.746064 0 0 1 -11.29507,-14.0579 v 0 a 52.493651,52.493651 0 0 1 -0.65008,-9.66988 v 0 a 21.208735,21.208735 0 0 1 3.65668,-13.16404 v 0 a 28.522092,28.522092 0 0 1 -8.69477,-18.85221 v 0 a 19.827323,19.827323 0 0 1 11.62011,-17.55206 v 0 a 26.328085,26.328085 0 0 1 12.10767,-3.4129 v 0 a 22.671406,22.671406 0 0 1 16.25191,8.12596 v 0 -0.73134 l 1.62519,-0.65008 a 7.3133569,7.3133569 0 0 1 3.0066,-0.56881 v 0 a 38.273234,38.273234 0 0 1 18.03961,7.55713 v 0 a 49.405789,49.405789 0 0 1 14.38294,13.40782 v 0 l -1.62519,0.97512 1.62519,-0.97512 c 8.85729,15.60183 28.11579,22.91519 41.60487,28.84713 v 0 a 114.98222,114.98222 0 0 1 61.8385,25.84053 v 0 a 20.39614,20.39614 0 0 1 8.12595,13.73286 v 0 c 0,4.55053 -3.25038,8.12595 -9.26358,10.97004 v 0 a 89.385473,89.385473 0 0 1 -28.60336,5.03809 v 0 c -4.79431,0 -9.26358,0 -13.32656,0 h -0.48755 c -34.77908,0 -45.83037,-9.50737 -68.258,-26.65313 z m 2.35653,-3.0066 c 22.83392,17.38954 31.93499,25.84053 66.38902,25.92179 v 0 c 3.98172,0 8.12596,0 13.08279,0 v 0 a 82.722193,82.722193 0 0 0 27.3032,-4.71306 v 0 c 5.44438,-2.35652 7.06957,-4.87557 7.06957,-7.47587 v 0 a 17.064499,17.064499 0 0 0 -6.90705,-10.97004 v 0 a 88.166581,88.166581 0 0 0 -17.71458,-11.94515 v 0 a 101.41188,101.41188 0 0 0 -41.11732,-12.75774 h -0.97511 v 0 c -13.32656,-6.01321 -33.80396,-13.32656 -43.71762,-30.63484 v 0 a 48.268156,48.268156 0 0 0 -13.24531,-12.18893 v 0 a 37.948196,37.948196 0 0 0 -15.68308,-6.90706 v 0 c 1.38141,3.90046 2.68156,6.74454 5.76942,14.0579 v 0 l -3.4129,1.54393 c -8.93855,-17.8771 -17.14576,-21.85881 -23.56526,-21.85881 v 0 a 22.590147,22.590147 0 0 0 -10.40122,3.08786 v 0 a 16.251904,16.251904 0 0 0 -9.58862,14.13916 v 0 a 25.596749,25.596749 0 0 0 8.93855,17.47079 v 0 l 1.30015,1.38141 -1.38141,1.30016 a 16.251904,16.251904 0 0 0 -4.14424,11.05129 v 0 a 45.099034,45.099034 0 0 0 1.05637,8.61351 v 0 a 15.520569,15.520569 0 0 0 9.18233,11.45759 v 0 a 34.128999,34.128999 0 0 0 14.30168,2.68157 v 0 a 49.324529,49.324529 0 0 0 8.12595,-0.65008 v 0 a 43.717622,43.717622 0 0 1 8.12595,-0.89385 v 0 a 33.235144,33.235144 0 0 1 20.72118,8.12595 z"
       id="path947"
       style="stroke-width:8.12595;fill:#231f20;fill-opacity:1" />
    <path
       class="cls-11"
       d="m 451.31538,435.55103 c 67.12037,2.84409 58.34434,-87.43524 48.75571,-137.24733 -6.33824,-32.50381 -11.37633,-81.25952 17.4708,-105.63738 0,-33.96648 24.37786,-33.23514 44.53022,-26.81564 12.4327,3.98172 27.95327,-3.90045 40.62976,-9.75114 a 50.380903,50.380903 0 0 1 -66.47029,52.73743 c -32.50381,9.34484 -11.78263,96.45505 -9.34484,150.16759 2.03148,41.11732 4.95683,94.09853 -65.00762,106.36872 2.68156,35.99797 -26.24683,36.24174 -26.16557,68.258 a 30.959878,30.959878 0 0 0 11.13256,27.22194 22.265109,22.265109 0 0 1 3.16912,28.44083 c -10.2387,12.18893 -27.14068,10.15744 -38.43576,27.14068 -11.29507,16.98324 -12.0264,26.81564 -22.6714,38.76079 -6.90706,8.12595 -18.85221,-0.8126 -33.15389,4.38801 a 82.478414,82.478414 0 0 1 -37.1356,3.73794 c -5.03809,0 -20.80243,0.73134 -13.97663,-16.2519 -7.39462,0.48755 -16.25191,0 -16.98324,-9.58863 a 14.789233,14.789233 0 0 1 5.76942,-14.38293 c -5.20061,1.38141 -5.85068,-6.4195 -5.03809,-9.58862 1.38141,-5.52565 2.19401,-10.97004 12.10767,-12.35145 23.56526,-3.33164 37.70442,6.90706 48.75571,3.57542 a 42.254951,42.254951 0 0 0 27.22194,-32.50381 c 4.2255,-24.37786 -38.51701,-26.97816 -50.54342,-52.73743 -8.12595,-18.77095 3.0066,-46.56171 17.95835,-62.40731 a 84.022345,84.022345 0 0 0 -32.5038,-40.62976 c -17.95836,-9.91367 -36.72931,-27.87202 -40.62977,-47.21179 -6.66328,0 -42.25495,-3.25038 -50.86846,-1.05637 -3.49416,0.89386 -12.35144,12.51397 -22.34636,12.35145 -9.99493,-0.16252 -24.94668,-3.0066 -32.50381,2.84408 -16.25191,13.08278 -34.61656,-3.08786 -21.77755,-16.6582 a 19.583545,19.583545 0 0 1 -15.76435,-21.12748 c 0.65007,-5.28187 5.03809,-17.71457 17.55206,-14.30167 -13.08279,-7.55714 13.89537,-20.0711 23.40274,-13.89538 25.35297,16.2519 44.3677,16.2519 52.24987,10.07618 a 92.554595,92.554595 0 0 1 33.56018,-12.839 c -7.15084,-20.72118 12.51397,-57.45049 35.10412,-56.88167 a 34.779075,34.779075 0 0 1 19.33976,-14.62671 c 0,-0.48756 -28.19705,5.76942 -29.9035,1.13763 -5.44439,-13.6516 9.50736,-21.28999 11.53885,-21.85881 13.73286,-4.63179 26.00305,6.09446 29.09091,8.12595 5.93194,3.25038 10.40122,-6.4195 11.70137,-12.51396 3.0066,-13.97664 1.46267,-20.15237 -1.95023,-25.27172 -11.94515,-17.47079 -34.61656,0 -43.47384,4.46928 -8.85729,4.46927 -19.66481,-8.12595 -16.25191,-22.26511 -10.56374,2.68156 -12.35144,-3.90046 -12.18893,-10.97004 2.60031,-11.05129 25.75927,-20.0711 41.68614,-18.85221 3.25038,-18.68968 28.19705,-13.89537 39.16709,-13.73285 a 196.64804,196.64804 0 0 0 21.12747,-0.48756 24.865413,24.865413 0 0 1 8.12596,-7.06958 c 6.0132,-2.92534 15.35804,3.0066 23.15896,-6.09446 a 28.359573,28.359573 0 0 0 0.65008,16.00812 38.842051,38.842051 0 0 0 16.82072,-10.07618 34.372777,34.372777 0 0 0 1.62519,24.37786 c 3.08786,4.63179 1.62519,9.8324 0.65007,16.2519 a 151.38649,151.38649 0 0 0 3.0066,-15.35805 c 10.97004,5.44439 21.12748,13.32656 21.12748,21.12748 a 25.352971,25.352971 0 0 0 16.2519,27.14068 17.470797,17.470797 0 0 1 -18.20213,7.55713 c 5.68817,9.91367 -0.65007,28.76587 23.32148,32.50381 0,4.55054 -8.12595,9.26359 -12.4327,9.26359 a 34.454037,34.454037 0 0 1 6.58202,19.58354 c 0.56882,12.83901 -9.66988,27.14068 -10.2387,38.19198 a 25.678009,25.678009 0 0 0 12.10767,24.45911 45.505332,45.505332 0 0 1 -26.81564,0 c -0.97512,20.15236 -8.85729,52.16862 -2.27527,58.18182 12.839,11.78263 26.65312,23.15896 28.60335,48.75571"
       id="path949"
       style="stroke-width:8.12595;fill:#ccd9ef;fill-opacity:1" />
    <path
       class="cls-12"
       d="m 331.62011,665.678 c -4.14424,0 -8.12596,0 -12.83901,-0.48756 v 0 a 42.092432,42.092432 0 0 1 -10.07618,-1.13763 v 0 a 9.4261045,9.4261045 0 0 1 -7.63839,-9.42611 v 0 a 17.552057,17.552057 0 0 1 0.81259,-5.11935 h -0.48756 a 22.02133,22.02133 0 0 1 -9.99492,-2.03148 v 0 a 10.970035,10.970035 0 0 1 -5.6069,-9.42611 v 0 a 19.827323,19.827323 0 0 1 0,-2.27527 v 0 a 16.820721,16.820721 0 0 1 3.57542,-11.21381 v 0 a 6.4195022,6.4195022 0 0 1 -2.03149,-2.43779 v 0 a 13.326561,13.326561 0 0 1 -1.05638,-5.52564 v 0 a 12.270188,12.270188 0 0 1 0,-3.16912 v 0 a 25.271711,25.271711 0 0 1 3.16912,-8.12596 v 0 a 14.789233,14.789233 0 0 1 10.56374,-5.36312 v 0 a 70.452005,70.452005 0 0 1 9.8324,-0.65008 v 0 c 15.27679,0 26.24683,4.95683 34.21026,4.87557 v 0 a 15.683088,15.683088 0 0 0 4.46928,-0.56882 v 0 a 40.629761,40.629761 0 0 0 25.92178,-31.28491 v 0 a 19.502285,19.502285 0 0 0 0,-3.0066 v 0 c 0,-9.42611 -8.77602,-15.35805 -20.15236,-21.94008 v 0 c -11.21381,-6.58202 -24.37785,-13.65159 -30.47232,-26.73438 v 0 a 37.216861,37.216861 0 0 1 -3.08786,-15.27679 v 0 a 77.765362,77.765362 0 0 1 20.4774,-48.26815 v 0 a 80.771964,80.771964 0 0 0 -31.44744,-38.27324 v 0 c -17.71457,-9.8324 -36.40426,-27.3032 -40.62976,-46.968 v 0 c -6.8258,0 -25.43423,-1.78771 -38.11071,-1.78771 v 0 a 53.550024,53.550024 0 0 0 -10.72626,0.73134 v 0 a 56.881665,56.881665 0 0 0 -8.12595,6.17572 v 0 a 25.109192,25.109192 0 0 1 -14.62671,6.17572 v 0 c -4.55054,0 -10.72626,-0.89385 -16.25191,-0.89385 v 0 a 23.484002,23.484002 0 0 0 -14.38293,3.25038 v 0 a 22.02133,22.02133 0 0 1 -13.73286,5.28187 v 0 a 14.545454,14.545454 0 0 1 -15.43931,-13.81412 v 0 a 14.870492,14.870492 0 0 1 3.0066,-8.77603 v 0 a 21.208735,21.208735 0 0 1 -14.70797,-19.17725 v 0 a 19.502285,19.502285 0 0 1 0,-3.0066 v 0 a 23.890299,23.890299 0 0 1 3.90045,-10.15744 v 0 a 13.732859,13.732859 0 0 1 10.72626,-6.58202 v 0 a 4.8755713,4.8755713 0 0 1 -0.48756,-2.19401 v 0 c 0,-4.06297 3.65668,-6.8258 8.12596,-9.10106 v 0 a 32.503808,32.503808 0 0 1 14.13915,-3.65668 v 0 a 14.626714,14.626714 0 0 1 8.12596,1.95023 v 0 a 75.896393,75.896393 0 0 0 38.02945,13.6516 v 0 a 19.177247,19.177247 0 0 0 12.10767,-3.4129 v 0 a 89.385473,89.385473 0 0 1 32.50381,-12.75775 v 0 a 30.878618,30.878618 0 0 1 -0.97512,-8.12595 v 0 a 58.181817,58.181817 0 0 1 11.21382,-32.50381 v 0 a 35.510411,35.510411 0 0 1 26.16556,-16.6582 v 0 a 33.235144,33.235144 0 0 1 9.01981,-9.66988 v 0 a 97.511425,97.511425 0 0 1 -13.2453,1.21889 v 0 a 19.339766,19.339766 0 0 1 -4.55053,0 v 0 a 4.3880141,4.3880141 0 0 1 -3.33165,-2.43779 v 0 a 17.795835,17.795835 0 0 1 -1.30015,-6.50076 v 0 a 17.633316,17.633316 0 0 1 6.33825,-13.00152 v 0 a 25.109192,25.109192 0 0 1 7.63839,-4.87557 v 0 a 23.565261,23.565261 0 0 1 7.6384,-1.30016 v 0 a 43.880141,43.880141 0 0 1 22.99644,9.26359 v 0 a 3.0878618,3.0878618 0 0 0 1.46267,0.48756 v 0 c 1.21889,0 3.0066,-1.30016 4.46927,-3.73794 v 0 a 28.359573,28.359573 0 0 0 3.08787,-8.12595 v 0 a 60.050786,60.050786 0 0 0 1.46267,-12.18893 v 0 a 18.68969,18.68969 0 0 0 -3.25038,-11.62011 v 0 a 14.220416,14.220416 0 0 0 -12.43271,-6.8258 v 0 c -10.07618,0 -22.34637,8.61351 -28.52209,11.86389 v 0 a 10.319959,10.319959 0 0 1 -5.03809,1.30015 v 0 a 17.552057,17.552057 0 0 1 -14.4642,-19.17725 v 0 a 19.664804,19.664804 0 0 1 0,-3.65668 v 0 h -1.95023 v 0 a 8.1259521,8.1259521 0 0 1 -8.12595,-4.30675 v 0 a 17.714576,17.714576 0 0 1 -1.78771,-8.53225 v 0 a 1.5439309,1.5439309 0 0 1 0,-0.65008 v 0 -0.40629 a 25.596749,25.596749 0 0 1 15.35805,-14.62672 v 0 a 61.838496,61.838496 0 0 1 25.02794,-5.76942 h 1.62519 a 16.90198,16.90198 0 0 1 9.66988,-11.53886 v 0 a 38.760792,38.760792 0 0 1 16.2519,-2.76282 v 0 c 5.76943,0 11.29508,0.56882 14.95175,0.65008 h 6.58203 c 4.55053,0 10.40121,0 13.57034,-0.48756 v 0 a 24.377856,24.377856 0 0 1 8.12595,-6.98832 v 0 a 14.057897,14.057897 0 0 1 6.0132,-1.05637 v 0 h 5.52565 v 0 a 13.245302,13.245302 0 0 0 11.0513,-4.71306 v 0 l 3.25038,1.78771 a 20.558659,20.558659 0 0 0 -0.89386,5.93195 v 0 a 35.835449,35.835449 0 0 0 0.89386,7.06958 v 0 a 40.629761,40.629761 0 0 0 14.22041,-9.18233 v 0 l 3.16912,1.78771 a 47.293041,47.293041 0 0 0 -1.38141,11.0513 v 0 a 22.427628,22.427628 0 0 0 2.68157,11.94515 v 0 a 1.7064499,1.7064499 0 0 1 0,0.48755 v 0 -1.78771 l 2.51904,1.2189 c 11.0513,5.68816 21.77755,13.40782 22.10259,22.83392 v 0 a 23.646521,23.646521 0 0 0 14.78923,25.43423 v 0 l 2.03149,0.73134 -1.05637,1.95023 a 18.283392,18.283392 0 0 1 -16.82072,8.61351 v 0 c 1.78771,5.03809 1.86897,10.88877 3.57542,15.8456 v 0 c 2.11274,5.93195 5.52564,10.645 17.0645,12.43271 v 0 h 1.54393 v 1.86897 0 a 10.482478,10.482478 0 0 1 -5.52565,8.12595 v 0 a 23.72778,23.72778 0 0 1 -5.44439,2.6003 v 0 a 41.523615,41.523615 0 0 1 5.03809,18.20214 v 0 1.13763 0 c 0,13.40782 -9.8324,27.38446 -10.2387,37.29812 v 0 c 0,1.05637 0,2.03149 0,3.0066 v 0 a 23.565261,23.565261 0 0 0 11.78263,20.72118 v 0 l 2.68157,2.11275 -3.25038,1.13763 a 43.555103,43.555103 0 0 1 -13.81412,2.19401 v 0 a 49.649567,49.649567 0 0 1 -11.94515,-1.46267 v 0 c -0.97512,14.30167 -4.71305,33.15388 -4.71305,44.85525 v 0 a 14.301676,14.301676 0 0 0 2.27526,9.42611 v 0 c 12.43271,11.37633 26.57187,23.15896 29.00965,48.10563 h 1.38141 a 42.173692,42.173692 0 0 0 39.89843,-22.34636 v 0 a 109.13154,109.13154 0 0 0 10.40122,-51.84358 v 0 A 325.6069,325.6069 0 0 0 497.95835,298.71 v 0 a 243.77856,243.77856 0 0 1 -4.87558,-44.93652 v 0 c 0,-23.15896 4.95684,-46.5617 22.26511,-61.59471 v 0 a 34.210258,34.210258 0 0 1 8.12596,-24.37786 v 0 a 26.084306,26.084306 0 0 1 19.09598,-6.90706 v 0 a 67.607922,67.607922 0 0 1 19.90859,3.57542 v 0 a 20.558659,20.558659 0 0 0 6.74454,0.97512 v 0 a 84.9162,84.9162 0 0 0 32.5038,-10.645 v 0 l 2.43779,-1.13764 v 2.68157 c 0,1.86897 0,3.65668 0,5.44439 v 0 a 49.24327,49.24327 0 0 1 -16.90198,38.27323 v 0 a 55.418993,55.418993 0 0 1 -36.16049,13.32656 v 0 a 51.030979,51.030979 0 0 1 -15.68308,-2.43778 v 0 a 20.39614,20.39614 0 0 0 -12.10767,14.13915 v 0 a 97.511425,97.511425 0 0 0 -3.33164,29.57847 v 0 c 0,31.52869 7.31335,73.13357 8.77602,104.25597 v 0 c 0,7.31335 0.73134,15.03301 0.73134,22.83392 v 0 a 99.542913,99.542913 0 0 1 -11.62011,52.65617 v 0 c -9.42611,15.35805 -26.16557,27.38446 -54.44388,32.50381 v 0 c 0,1.05637 0,2.03149 0,3.0066 v 0 a 47.618079,47.618079 0 0 1 -13.57034,33.3164 v 0 a 43.636363,43.636363 0 0 0 -12.75775,30.14729 v 0 a 28.92839,28.92839 0 0 0 11.13256,25.75927 v 0 a 23.565261,23.565261 0 0 1 7.55713,17.87709 v 0 a 20.639918,20.639918 0 0 1 -4.14423,13.2453 v 0 a 50.055865,50.055865 0 0 1 -19.50229,12.27019 v 0 a 39.492127,39.492127 0 0 0 -18.85221,14.70797 v 0 c -11.05129,16.25191 -11.86389,26.49061 -22.75266,39.00457 v 0 a 12.839004,12.839004 0 0 1 -10.48248,4.06298 v 0 c -4.22549,0 -8.69477,-0.89386 -13.48908,-0.89386 v 0 a 29.253428,29.253428 0 0 0 -9.99492,1.6252 v 0 a 67.201624,67.201624 0 0 1 -24.94667,4.38801 v 0 z m -25.02794,-17.4708 a 16.739461,16.739461 0 0 0 -1.54393,6.4195 v 0 c 0,3.57542 1.86897,4.79431 4.95683,5.85069 v 0 a 42.092432,42.092432 0 0 0 8.93855,0.97511 v 0 c 4.55053,0 8.69477,0 12.67649,0 v 0 a 65.007617,65.007617 0 0 0 23.72778,-4.06297 v 0 a 32.503808,32.503808 0 0 1 11.29507,-1.86897 v 0 c 5.20061,0 9.8324,0.89385 13.48908,0.89385 v 0 a 9.0198069,9.0198069 0 0 0 7.6384,-2.84408 v 0 c 10.23869,-11.53885 11.05129,-21.20874 22.42762,-38.59827 v 0 a 44.286439,44.286439 0 0 1 20.4774,-16.25191 v 0 a 46.805484,46.805484 0 0 0 18.20214,-11.21381 v 0 a 17.633316,17.633316 0 0 0 3.25038,-10.80752 v 0 a 19.989842,19.989842 0 0 0 -6.25699,-15.03301 v 0 a 32.503808,32.503808 0 0 1 -12.4327,-28.52209 v 0 0 0 a 46.642965,46.642965 0 0 1 13.57034,-32.50381 v 0 a 44.367699,44.367699 0 0 0 12.75774,-30.95988 v 0 c 0,-1.38141 0,-2.84408 0,-4.46927 v 0 -1.70645 h 1.70645 c 28.60335,-5.03809 44.44896,-16.25191 53.55003,-31.28492 v 0 a 95.479937,95.479937 0 0 0 11.05129,-50.46216 v 0 c 0,-8.12595 0,-15.35805 -0.73134,-22.59015 v 0 c -1.38141,-30.63484 -8.69476,-72.40223 -8.69476,-104.49974 v 0 a 98.649059,98.649059 0 0 1 3.81919,-30.87862 v 0 a 23.565261,23.565261 0 0 1 14.8705,-16.90198 v 0 h 0.89385 v 0 a 49.24327,49.24327 0 0 0 15.03301,2.35653 v 0 a 47.53682,47.53682 0 0 0 49.24327,-47.7806 v 0 -2.35653 0 a 82.803452,82.803452 0 0 1 -31.60995,9.8324 v 0 a 24.377856,24.377856 0 0 1 -8.12595,-1.21889 v 0 a 63.544946,63.544946 0 0 0 -18.68969,-3.4129 v 0 a 22.427628,22.427628 0 0 0 -16.25191,5.85069 v 0 a 30.309801,30.309801 0 0 0 -6.90706,22.34637 v 0 0 0 0.89385 l -0.65007,0.56882 c -16.25191,13.89538 -21.6963,36.323 -21.6963,59.31945 v 0 a 238.0904,238.0904 0 0 0 4.87558,44.20518 v 0 a 332.18892,332.18892 0 0 1 6.74454,61.59471 v 0 a 112.70696,112.70696 0 0 1 -10.88878,53.71255 v 0 a 45.992889,45.992889 0 0 1 -43.14881,24.37785 h -3.16912 v -1.86896 h 1.86897 -1.86897 v 1.86896 h -1.70645 v -1.62519 c -1.95023,-24.37785 -15.11427,-35.51041 -28.03453,-47.3743 v 0 a 17.064499,17.064499 0 0 1 -3.16912,-12.27018 v 0 c 0,-13.00153 4.22549,-33.31641 4.87557,-47.37431 v 0 -2.43778 l 2.35652,0.73133 a 43.473844,43.473844 0 0 0 13.40783,1.95023 v 0 a 40.629761,40.629761 0 0 0 9.18232,-0.97511 v 0 a 26.003047,26.003047 0 0 1 -10.40122,-21.37126 v 0 c 0,-1.05637 0,-2.11274 0,-3.25038 v 0 c 0.73134,-11.62011 10.31996,-25.35297 10.2387,-37.05434 v 0 -0.97511 0 a 32.503808,32.503808 0 0 0 -6.09446,-18.28339 v 0 l -3.16912,-3.25039 h 4.55053 a 14.220416,14.220416 0 0 0 6.74454,-2.6003 v 0 a 10.15744,10.15744 0 0 0 3.4129,-3.25038 v 0 A 21.208735,21.208735 0 0 1 435.226,223.13865 v 0 a 118.07008,118.07008 0 0 0 -4.6318,-18.03962 v 0 l -1.78771,-3.16912 h 3.57542 2.60031 a 15.520569,15.520569 0 0 0 12.59522,-4.87557 v 0 A 27.709497,27.709497 0 0 1 432.46317,169.0198 v 0 c 0,-5.6069 -8.12595,-13.00152 -17.55205,-18.20213 v 0 c -0.73134,4.87557 -2.03149,8.12595 -2.84409,12.75775 v 0 l -3.65668,-0.65008 v 0 0 0 a 58.181817,58.181817 0 0 0 1.2189,-8.69477 v 0 a 9.1823259,9.1823259 0 0 0 -1.54393,-5.52565 v 0 a 26.084306,26.084306 0 0 1 -3.4129,-14.13915 v 0 a 44.611477,44.611477 0 0 1 0.48755,-6.50076 v 0 a 35.59167,35.59167 0 0 1 -13.57034,6.98831 v 0 l -1.78771,0.4063 -0.48755,-1.70645 a 40.060944,40.060944 0 0 1 -1.46268,-9.91366 v 0 a 10.319959,10.319959 0 0 1 0,-1.62519 v 0 a 18.68969,18.68969 0 0 1 -9.75114,2.35653 v 0 h -5.52565 v 0 a 9.3448449,9.3448449 0 0 0 -4.30675,0.73133 v 0 c -3.98172,1.95023 -4.46927,3.49416 -7.63839,6.74454 v 0 l -0.48756,0.4063 h -0.56882 a 131.39665,131.39665 0 0 1 -14.70797,0.56882 h -6.66328 c -3.98172,0 -9.34485,-0.65008 -14.8705,-0.65008 v 0 a 35.754189,35.754189 0 0 0 -14.54545,2.43779 v 0 a 13.326561,13.326561 0 0 0 -8.12595,10.40121 v 0 1.70645 h -1.78771 -2.92534 v 0 a 58.263077,58.263077 0 0 0 -23.40275,5.44439 v 0 a 22.833925,22.833925 0 0 0 -13.2453,11.86389 v 0 0.4063 0 a 14.139157,14.139157 0 0 0 1.2189,6.66328 v 0 a 4.7943118,4.7943118 0 0 0 4.79431,2.35653 v 0 a 18.770949,18.770949 0 0 0 3.81919,-0.48756 v 0 l 3.16913,-0.8126 -0.8126,3.08787 a 18.852209,18.852209 0 0 0 -0.73134,5.52564 v 0 a 19.095987,19.095987 0 0 0 3.4129,11.13256 v 0 a 9.4261045,9.4261045 0 0 0 7.2321,4.22549 v 0 a 6.9070593,6.9070593 0 0 0 3.25038,-0.81259 v 0 c 5.85069,-2.92534 18.36465,-12.18893 30.3098,-12.27019 v 0 a 18.039614,18.039614 0 0 1 15.60183,8.12595 v 0 a 23.158964,23.158964 0 0 1 3.90046,13.73286 v 0 a 62.488572,62.488572 0 0 1 -1.62519,13.00152 v 0 a 28.278313,28.278313 0 0 1 -3.57542,9.10107 v 0 a 9.507364,9.507364 0 0 1 -7.6384,5.52565 v 0 a 7.5571355,7.5571355 0 0 1 -3.33164,-0.89386 v 0 a 40.629761,40.629761 0 0 0 -21.12747,-8.69476 v 0 a 21.289995,21.289995 0 0 0 -6.50076,1.05637 v 0 a 21.858811,21.858811 0 0 0 -6.25699,4.06298 v 0 a 13.976638,13.976638 0 0 0 -5.11935,10.23869 v 0 a 13.245302,13.245302 0 0 0 1.05638,4.95684 v 0 a 1.5439309,1.5439309 0 0 0 0.73133,0 v 0 a 19.421026,19.421026 0 0 0 3.65668,0 v 0 a 102.14322,102.14322 0 0 0 14.0579,-1.46268 v 0 c 4.71305,-0.73133 8.12595,-1.38141 9.58862,-1.46267 v 0 c 0,0 0.65008,0 1.38141,0.89386 v 0 l 1.05638,1.95023 -2.03149,0.81259 a 32.503808,32.503808 0 0 0 -17.55206,14.22042 v 0 l -0.56881,0.97511 h -1.54393 a 31.609954,31.609954 0 0 0 -23.72778,15.19553 v 0 a 54.606398,54.606398 0 0 0 -10.48248,30.22854 v 0 a 29.659725,29.659725 0 0 0 1.38141,9.10107 v 0 l 0.73134,2.03149 h -2.11275 a 90.441847,90.441847 0 0 0 -32.50381,12.43271 v 0 a 22.671406,22.671406 0 0 1 -14.4642,4.22549 v 0 A 79.390552,79.390552 0 0 1 167.88217,318.3748 v 0 a 10.482478,10.482478 0 0 0 -5.76943,-1.30015 v 0 a 28.197054,28.197054 0 0 0 -12.4327,3.16912 v 0 c -3.8192,1.86897 -5.93195,4.55054 -5.76943,5.76943 v 0 c 0,0.73133 0,1.78771 2.51905,3.0066 v 0 l -1.46267,3.49416 a 11.295073,11.295073 0 0 0 -3.49416,-0.48756 v 0 a 9.9136616,9.9136616 0 0 0 -8.53225,4.87557 v 0 a 20.721178,20.721178 0 0 0 -3.08787,8.12596 v 0 a 12.432707,12.432707 0 0 0 0,2.43778 v 0 a 18.60843,18.60843 0 0 0 14.70798,16.25191 v 0 l 2.84408,0.89385 -2.03149,2.19401 a 12.107669,12.107669 0 0 0 -3.81919,8.12595 v 0 a 10.807516,10.807516 0 0 0 11.70137,9.99492 v 0 a 17.958354,17.958354 0 0 0 11.29507,-4.38801 v 0 a 27.790756,27.790756 0 0 1 16.82072,-4.14424 v 0 c 6.09447,0 12.35145,0.8126 16.6582,0.89386 v 0 a 21.615033,21.615033 0 0 0 12.35145,-5.44439 v 0 a 43.311325,43.311325 0 0 1 9.34485,-6.8258 v 0 a 54.443879,54.443879 0 0 1 11.70137,-0.89386 v 0 c 14.05789,0 34.94159,1.78771 39.7359,1.86897 h 1.54393 v 1.46267 c 3.25038,18.36466 21.77755,36.24175 39.32961,45.91163 v 0 a 85.566276,85.566276 0 0 1 33.56018,41.11732 v 0 l 0.48756,1.13764 -0.81259,0.97511 a 74.6775,74.6775 0 0 0 -20.31488,48.51193 v 0 a 32.016251,32.016251 0 0 0 2.84408,13.73286 v 0 c 5.28187,11.53885 17.55206,18.36465 28.92839,25.02794 v 0 c 11.13255,6.50076 21.85881,13.00152 22.02133,25.19045 v 0 a 19.664804,19.664804 0 0 1 0,3.65668 v 0 a 44.20518,44.20518 0 0 1 -28.52209,34.21025 v 0 a 19.014728,19.014728 0 0 1 -5.60691,0.73134 v 0 c -9.34485,0 -19.6648,-4.87557 -34.21026,-4.87557 v 0 a 63.869984,63.869984 0 0 0 -9.34484,0.65007 v 0 a 10.563738,10.563738 0 0 0 -8.12596,3.90046 v 0 a 20.39614,20.39614 0 0 0 -2.6003,7.06958 v 0 a 12.757745,12.757745 0 0 0 0,2.19401 v 0 a 9.8324021,9.8324021 0 0 0 0.73133,3.90045 v 0 c 0.56882,0.97512 0.89386,1.2189 1.54394,1.2189 h 0.73133 l 1.54393,3.4129 a 11.86389,11.86389 0 0 0 -5.03809,10.72625 v 0 c 0,0.65008 0,1.38142 0,2.03149 v 0 a 7.2320974,7.2320974 0 0 0 3.65668,6.33824 v 0 a 18.039614,18.039614 0 0 0 8.12595,1.54394 h 3.08786 3.00661 l -1.13764,2.76282 z"
       id="path951"
       style="stroke-width:8.12595;fill:#231f20;fill-opacity:1" />
    <path
       class="cls-13"
       d="m 258.08024,530.21838 a 104.74352,104.74352 0 0 0 15.43931,-1.05638 v 0 l 0.48756,3.73794 a 110.43169,110.43169 0 0 1 -16.25191,1.13763 v 0 -3.81919 z"
       id="path953"
       style="stroke-width:8.12595;fill:#231f20;fill-opacity:1" />
    <path
       class="cls-13"
       d="m 303.09801,646.74453 a 17.958354,17.958354 0 0 1 16.25191,-9.10107 v 0 a 17.389538,17.389538 0 0 1 6.8258,1.38141 v 0 l -1.46267,3.49416 a 14.301676,14.301676 0 0 0 -5.36313,-1.05637 v 0 a 13.976638,13.976638 0 0 0 -12.43271,6.8258 v 0 l -3.49416,-1.54393 z"
       id="path955"
       style="stroke-width:8.12595;fill:#231f20;fill-opacity:1" />
    <path
       class="cls-13"
       d="m 292.45302,621.87912 a 19.583545,19.583545 0 0 1 11.70137,-4.14424 v 0 a 32.910106,32.910106 0 0 1 8.12595,1.30015 v 0 l -0.97511,3.65668 a 26.978161,26.978161 0 0 0 -7.39462,-1.21889 v 0 a 16.739461,16.739461 0 0 0 -9.75114,3.57542 v 0 z"
       id="path957"
       style="stroke-width:8.12595;fill:#231f20;fill-opacity:1" />
    <path
       class="cls-13"
       d="m 144.96699,332.51396 1.05638,-3.65667 c 3.57542,1.13763 11.29507,1.95022 14.78923,6.74454 v 0 l -3.08786,2.194 c -1.62519,-2.76282 -8.77603,-4.30675 -12.75775,-5.28187 z"
       id="path959"
       style="fill:#231f20;fill-opacity:1;stroke-width:8.12595" />
    <path
       class="cls-14"
       d="m 257.51142,163.16912 c 0,14.38293 -6.66328,25.92179 -4.14423,28.11579 1.13763,3.57542 14.78923,3.08786 27.3032,6.58202 -7.6384,-0.56881 -14.0579,-11.37633 -11.0513,-23.15896 -10.56374,2.68156 -12.35145,-3.90046 -12.18893,-10.97003 a 4.5505332,4.5505332 0 0 1 0,-0.56882"
       id="path961"
       style="stroke-width:8.12595;fill:#808285;fill-opacity:1" />
    <path
       class="cls-13"
       d="m 277.25749,198.76079 c -8.12596,-1.86897 -16.65821,-2.35653 -21.45252,-3.8192 v 0 a 5.8506855,5.8506855 0 0 1 -3.98171,-2.76282 v 0 a 4.0629761,4.0629761 0 0 1 -0.89386,-2.92535 v 0 c 0,-4.87557 3.90046,-13.40782 4.63179,-24.37785 v 0 a 4.6317927,4.6317927 0 0 1 0,-1.05638 v 0 a 1.5439309,1.5439309 0 0 1 0,-0.65007 v 0 a 6.5007617,6.5007617 0 0 1 0,-0.89386 v 0 h 1.30016 2.43778 a 20.558659,20.558659 0 0 1 0,2.27527 v 0 a 13.001523,13.001523 0 0 0 1.2189,5.60691 v 0 a 4.8755713,4.8755713 0 0 0 4.79431,2.35652 v 0 a 19.502285,19.502285 0 0 0 3.90045,-0.48755 v 0 l 3.08787,-0.8126 -0.8126,3.08786 a 22.02133,22.02133 0 0 0 -0.73134,5.52565 v 0 a 16.251904,16.251904 0 0 0 7.47588,14.54545 v 0 l 3.0066,0.8126 v 0 l -0.65007,3.65668 a 9.1010664,9.1010664 0 0 1 -3.33164,-0.8126 z m -21.85881,-8.12595 1.54393,0.65007 v 0 a 56.881665,56.881665 0 0 0 6.09446,1.2189 v 0 l 8.12595,1.13763 v 0 a 23.077704,23.077704 0 0 1 -4.14423,-13.16404 v 0 a 27.790756,27.790756 0 0 1 0,-3.65668 v 0 h -1.95023 v 0 a 8.9385473,8.9385473 0 0 1 -7.2321,-3.0066 v 0 c -1.38141,7.23209 -3.49416,12.839 -3.4129,15.19553 v 0 c 0,0 0,0 0,0.48755 v 0 0 0.48756 0 z"
       id="path963"
       style="stroke-width:8.12595;fill:#231f20;fill-opacity:1" />
    <path
       class="cls-15"
       d="m 324.95683,166.25698 a 73.133569,73.133569 0 0 0 -25.92179,-21.20873 82.153376,82.153376 0 0 1 20.15236,2.84408 c 6.90706,1.21889 14.0579,0 26.81564,2.6003 a 40.629761,40.629761 0 0 0 -21.04621,15.76435"
       id="path965"
       style="stroke-width:8.12595;fill:#231f20;fill-opacity:1" />
    <path
       class="cls-11"
       d="m 309.43626,224.27628 a 48.755713,48.755713 0 0 0 0,-38.76079 17.227018,17.227018 0 0 1 19.58354,6.98832 c 3.4129,5.11935 4.95683,11.29507 1.95023,25.27171 -1.30015,6.09446 -5.76943,15.76434 -11.70137,12.51396 a 69.55815,69.55815 0 0 0 -9.8324,-6.0132"
       id="path967"
       style="stroke-width:8.12595;fill:#ccd9ef;fill-opacity:1" />
    <path
       class="cls-12"
       d="m 318.29354,231.91467 a 70.370745,70.370745 0 0 0 -9.58862,-5.93194 v 0 l 0.8126,-1.70645 1.78771,0.65007 -1.78771,-0.65007 -0.8126,1.70645 -1.54393,-0.73134 0.65008,-1.70645 a 56.150329,56.150329 0 0 0 3.90045,-19.6648 v 0 a 40.629761,40.629761 0 0 0 -3.90045,-17.55206 v 0 l -0.97512,-2.11275 2.27527,-0.56881 a 29.497206,29.497206 0 0 1 5.93194,-0.65008 v 0 a 18.120873,18.120873 0 0 1 15.60183,8.12595 v 0 a 23.158964,23.158964 0 0 1 3.90046,13.73286 v 0 a 62.488572,62.488572 0 0 1 -1.62519,13.00153 v 0 a 28.278313,28.278313 0 0 1 -3.57542,9.10106 v 0 a 9.507364,9.507364 0 0 1 -7.6384,5.52565 v 0 a 7.0695783,7.0695783 0 0 1 -3.33164,-0.89385 z m 1.86897,-3.33164 a 3.0878618,3.0878618 0 0 0 1.46267,0.48756 v 0 c 1.2189,0 3.00661,-1.30015 4.46928,-3.73794 v 0 a 28.359573,28.359573 0 0 0 3.08786,-8.12595 v 0 a 60.050786,60.050786 0 0 0 1.46267,-12.18893 v 0 a 19.258507,19.258507 0 0 0 -3.16912,-11.62011 v 0 a 14.626714,14.626714 0 0 0 -12.51397,-6.8258 v 0 h -2.84408 v 0 a 43.392584,43.392584 0 0 1 3.25038,16.90198 v 0 a 58.425596,58.425596 0 0 1 -3.57542,19.66481 v 0 c 4.2255,2.194 7.39462,4.79431 8.12596,5.28186 z"
       id="path969"
       style="stroke-width:8.12595" />
    <path
       class="cls-11"
       d="m 230.8583,201.92991 c 12.27019,12.839 32.50381,4.95683 50.94972,-0.4063 a 91.416961,91.416961 0 0 1 50.7872,4.14424 66.551548,66.551548 0 0 1 -1.62519,12.10767 22.183849,22.183849 0 0 1 -0.65008,2.76282 c -16.2519,-9.10107 -44.28644,-11.94515 -61.35093,1.05637 -17.0645,13.00153 -44.20518,10.31996 -50.46217,-2.51904 -8.12595,-19.42103 4.79431,-23.0777 12.35145,-17.14576"
       id="path971"
       style="stroke-width:8.12595;fill:#ccd9ef;fill-opacity:1" />
    <path
       class="cls-12"
       d="m 216.8004,219.807 a 31.284916,31.284916 0 0 1 -2.76282,-11.53885 v 0 a 11.295073,11.295073 0 0 1 2.92534,-8.12595 v 0 a 9.3448449,9.3448449 0 0 1 6.8258,-2.68156 v 0 a 14.139157,14.139157 0 0 1 8.12595,2.92534 v 0 l -1.21889,1.54393 1.21889,-1.54393 v 0 0 a 21.696292,21.696292 0 0 0 16.25191,6.33824 v 0 a 134.15947,134.15947 0 0 0 32.50381,-7.2321 v 0 a 60.457084,60.457084 0 0 1 16.82072,-2.11274 v 0 a 107.34383,107.34383 0 0 1 35.18537,6.25698 v 0 l 1.30015,0.48756 v 1.30015 a 66.307769,66.307769 0 0 1 -0.89385,12.59523 v 0 a 19.177247,19.177247 0 0 1 -0.73134,2.92534 v 0 l -0.56881,2.43778 -2.19401,-1.21889 A 64.4388,64.4388 0 0 0 298.71,215.01269 v 0 a 46.968003,46.968003 0 0 0 -28.60335,8.12596 v 0 a 45.992889,45.992889 0 0 1 -27.54698,9.0198 v 0 A 27.546978,27.546978 0 0 1 216.8004,219.88826 Z m 6.98832,-18.60843 c -3.33164,0 -5.76942,1.70645 -5.93194,7.06958 v 0 a 26.978161,26.978161 0 0 0 2.35652,9.99492 v 0 a 24.377856,24.377856 0 0 0 22.34637,10.07618 v 0 a 42.336211,42.336211 0 0 0 25.27171,-8.12595 v 0 A 50.705941,50.705941 0 0 1 298.71,211.03098 v 0 a 69.964448,69.964448 0 0 1 30.39106,6.8258 v 0 0 a 68.664295,68.664295 0 0 0 1.62519,-10.97004 v 0 a 105.63738,105.63738 0 0 0 -32.50381,-5.60691 v 0 a 57.77552,57.77552 0 0 0 -15.76434,1.95023 v 0 a 132.12798,132.12798 0 0 1 -33.56019,7.39462 v 0 a 24.865413,24.865413 0 0 1 -19.09598,-7.39462 v 0 a 9.9136616,9.9136616 0 0 0 -5.85069,-2.11274 z"
       id="path973"
       style="stroke-width:8.12595;fill:#231f20;fill-opacity:1" />
    <path
       class="cls-13"
       d="m 311.38649,303.09801 a 15.683088,15.683088 0 0 1 13.57034,-6.0132 v 0 a 66.22651,66.22651 0 0 1 12.4327,1.70645 v 0 l -0.73133,3.73794 a 58.425596,58.425596 0 0 0 -11.70137,-1.62519 v 0 a 11.782631,11.782631 0 0 0 -10.31996,4.38801 v 0 l -3.00661,-2.27527 z"
       id="path975"
       style="stroke-width:8.12595;fill:#231f20;fill-opacity:1" />
    <path
       sodipodi:nodetypes="csssssccssssscc"
       class="cls-13"
       d="m 241.74708,316.50584 c 4.18329,-1.31799 8.44398,-2.37639 12.75774,-3.16913 v 0 c 10.9609,-3.3025 22.28733,-5.24027 33.7227,-5.76942 v 0 c 4.69277,0.004 9.37391,0.46653 13.97664,1.38141 v 0 l -0.73134,3.65668 c -4.3663,-0.8265 -8.80149,-1.23465 -13.2453,-1.21889 v 0 c -10.45881,-3.13692 -21.73448,-0.28204 -32.99136,5.6069 v 0 c -4.17189,0.79641 -8.29558,1.82733 -12.35145,3.08786 v 0 z"
       id="path977"
       style="fill:#231f20;fill-opacity:1;stroke-width:8.12595" />
    <path
       class="cls-13"
       d="m 269.13153,293.75317 -2.68156,-2.84408 3.8192,-0.4063 a 15.27679,15.27679 0 0 0 10.88877,-4.46928 v 0 a 21.452514,21.452514 0 0 0 3.98172,-13.00152 v 0 a 43.230065,43.230065 0 0 1 3.25038,-15.76435 v 0 l 3.25038,1.86897 a 39.167089,39.167089 0 0 0 -2.68156,14.30168 v 0 a 24.865413,24.865413 0 0 1 -5.11935,15.27679 v 0 a 17.470797,17.470797 0 0 1 -9.34485,5.03809 v 0 a 22.590147,22.590147 0 0 0 15.11427,7.2321 v 0 a 21.289995,21.289995 0 0 0 10.40122,-3.16912 v 0 l 1.86897,3.33164 a 25.027933,25.027933 0 0 1 -12.27019,3.57541 v 0 a 29.090909,29.090909 0 0 1 -20.4774,-10.97003 z"
       id="path979"
       style="stroke-width:8.12595;fill:#231f20;fill-opacity:1" />
    <path
       class="cls-13"
       d="m 341.37124,454.24072 c 6.90706,-8.12595 23.24022,-21.94007 23.15896,-44.69273 v 0 c 0,-1.78771 0,-3.65668 0,-5.52565 v 0 h 3.73794 a 49.24327,49.24327 0 0 1 0,5.93194 v 0 c 0,24.37786 -17.71457,39.24835 -24.37785,47.13053 v 0 l -2.92535,-2.43779 z"
       id="path981"
       style="fill:#231f20;fill-opacity:1;stroke-width:8.12595" />
    <path
       class="cls-13"
       d="m 271.16302,371.68105 v -3.8192 h 0.97512 a 183.97156,183.97156 0 0 0 51.19349,-6.50076 v 0 c 4.30676,-1.54393 6.58203,-3.65668 6.66329,-4.95683 v 0 l 3.73793,0.56882 c -0.73133,3.98171 -4.46927,6.09446 -9.10106,8.12595 v 0 a 87.679023,87.679023 0 0 1 -17.30828,4.06297 v 0 a 254.17978,254.17978 0 0 1 -35.18537,2.68157 h -0.97512 z"
       id="path983"
       style="stroke-width:8.12595" />
    <path
       class="cls-13"
       d="m 432.05687,205.99289 a 28.359573,28.359573 0 0 1 -26.65312,-15.35805 v 0 l 3.33164,-1.78771 a 24.377856,24.377856 0 0 0 23.72778,13.2453 v 0 h 2.68157 v 0 a 24.377856,24.377856 0 0 0 5.03809,-0.56882 v 0 l 0.89385,3.65668 a 27.628237,27.628237 0 0 1 -5.93194,0.65008 v 0 a 19.664804,19.664804 0 0 1 -3.08787,0 z"
       id="path985"
       style="stroke-width:8.12595;fill:#231f20;fill-opacity:1" />
    <path
       class="cls-13"
       d="m 395.81513,223.13865 3.4129,-1.6252 c 10.645,21.94008 35.75419,22.26511 43.88014,22.26511 v 0 3.73794 c -8.12595,0 -35.34789,0 -47.29304,-24.37785 z"
       id="path987"
       style="stroke-width:8.12595;fill:#231f20;fill-opacity:1" />
    <path
       class="cls-13"
       d="m 337.30827,290.66531 a 24.784154,24.784154 0 0 1 -16.2519,-5.52565 v 0 l -1.86897,-1.78771 2.19401,-1.30015 c 10.56373,-6.33824 13.48908,-12.10767 13.57034,-19.74607 v 0 a 33.722701,33.722701 0 0 0 0,-3.98171 v 0 a 59.156931,59.156931 0 0 1 -0.48756,-7.31336 v 0 a 42.49873,42.49873 0 0 1 6.33824,-22.50889 v 0 l 3.25038,1.95023 a 37.704418,37.704418 0 0 0 -5.76942,20.55866 v 0 a 51.030979,51.030979 0 0 0 0.40629,6.8258 v 0 a 42.905027,42.905027 0 0 1 0,4.46927 v 0 a 24.377856,24.377856 0 0 1 -13.08278,21.53378 v 0 a 21.371254,21.371254 0 0 0 11.53885,3.0066 v 0 a 33.153885,33.153885 0 0 0 31.44744,-26.73438 v 0 l 3.65668,0.97511 a 37.135601,37.135601 0 0 1 -35.10412,29.57847 z"
       id="path989"
       style="stroke-width:8.12595;fill:#231f20;fill-opacity:1" />
    <path
       class="cls-13"
       d="m 349.33468,318.29354 -2.19401,-1.54393 2.19401,-1.54393 c 4.55053,-2.92534 10.80752,-6.90706 10.48248,-10.80751 v 0 a 2.7628237,2.7628237 0 0 0 0,-0.8126 v 0 c 0,-1.38141 -1.78771,-2.76282 -4.06298,-4.87557 v 0 a 12.920264,12.920264 0 0 1 -4.63179,-9.8324 v 0 a 20.477399,20.477399 0 0 1 0.89386,-5.36313 v 0 l 3.57541,1.05637 a 16.251904,16.251904 0 0 0 -0.65007,4.30676 v 0 a 8.7760283,8.7760283 0 0 0 3.4129,7.06958 v 0 a 13.6516,13.6516 0 0 1 5.20061,6.98832 v 0 a 8.8572878,8.8572878 0 0 1 0,1.46267 v 0 c 0,6.09446 -5.52565,9.58862 -9.66989,12.35144 v 0 a 26.815642,26.815642 0 0 0 13.48909,3.90046 v 0 a 36.079227,36.079227 0 0 0 27.95327,-17.87709 v 0 a 68.420517,68.420517 0 0 0 11.86389,-37.13561 v 0 a 42.986287,42.986287 0 0 0 -0.97511,-10.88877 v 0 l 3.65668,-0.89386 a 46.805484,46.805484 0 0 1 1.38141,11.78263 v 0 c 0,26.73439 -18.77095,58.4256 -43.55511,58.75064 v 0 a 31.447435,31.447435 0 0 1 -18.36465,-6.09447 z"
       id="path991"
       style="stroke-width:8.12595;fill:#231f20;fill-opacity:1" />
    <path
       class="cls-13"
       d="m 398.90299,297.97866 3.57542,-0.97511 c 5.52565,20.39614 17.87709,28.35957 23.0777,29.98476 v 0 l -1.13763,3.57542 c -6.58202,-2.11275 -19.6648,-11.05129 -25.51549,-32.50381 z"
       id="path993"
       style="stroke-width:8.12595" />
  </g>
  <g
     id="g931"
     transform="matrix(1.0037643,0,0,1.0037643,-0.81565404,0)">
    <path
       d="M 671.81055,209.5957 C 308.60835,287.21449 95.075414,485.09906 89.802734,490.02539 c 5.17289,12.35888 10.661466,24.74512 16.539066,36.52539 159.3115,-134.83441 349.44618,-228.1994 553.48828,-271.82812 1.66834,-0.35673 5.22969,-3.16485 7.73828,-4.60157 0.58238,-4.88035 1.14423,-9.80088 1.67383,-14.78906 0.95687,-9.01263 1.79691,-17.45988 2.56836,-25.73633 z"
       style="fill:#006fba;fill-opacity:1;stroke:none;stroke-width:1px;stroke-linecap:butt;stroke-linejoin:miter;stroke-opacity:1"
       id="path916" />
    <path
       class="cls-16"
       d="m 662.15136,299.76456 c -73.13357,17.22702 -300.30271,59.15875 -538.47437,260.35732 l -17.71457,-33.88522 c 0,0 219.77271,-218.58811 563.41922,-276.93245"
       id="path995"
       style="stroke-width:8.12595;fill:#ffdb00;fill-opacity:1"
       sodipodi:nodetypes="cccc" />
  </g>
</svg>
