<svg xmlns="http://www.w3.org/2000/svg" enable-background="new 0 0 324 320" viewBox="56.1 18.1 212 283.9"><path d="m56.1 18.1v211.3c0 11.9 0 26.6 7.4 38.4 8.6 13.8 25 20.7 50.2 20.7 14.7 0 24.9 1.7 31.8 3.6 6.7 1.9 12.2 4.3 16.2 9.9h.8c4-5.6 9.6-8.1 16.2-9.9 6.8-2 17-3.6 31.8-3.6 25.1 0 41.5-6.7 50.2-20.7 7.4-11.8 7.4-26.5 7.4-38.4v-211.3z" fill="#ffd508"/><path d="m162 293.5s8.6-11.1 47.1-11.1c52.4 0 52.9-30.3 52.9-53.7v-144h-100z" fill="#00263e"/><path d="m162 84.8h-100v144c0 23.3-.4 53.7 51.6 53.7 38.5 0 48.3 11.1 48.3 11.1v-208.8z" fill="#ae1919"/><path d="m261.9 24h-199.9v60.8h199.8v-60.8z" fill="#fff"/><path d="m256 50.1h-89.7v-20.3h-8.7v20.3h-89.8v8.7h89.9v20.3h8.7v-20.3h89.6z" fill="#ae1919"/><path d="m125.7 190.7c-.4.8-1.9 2.7.2 3.5l-.8 2.3s3.5-.8 3.5-3.1c0-1.4-1.2-5.8-2-7.2 5.3.8 12.2 1.1 15.6.6 4.5-.4 8.2-1.7 11.9-4.1 0 0-1.9 3.9-8.9 5.1 4.4 4 9.4 7.5 14.6 10.5 0 0-19.8 3.9-22 4.3-2.3.4-4.1 1.4-5 3.7-3.9 10.9 6.6 16.1 6.6 17 0 1.2-4.3 9.7-4.3 9.7-4.1-3.5-6.6-2-7.2-1.2.6 0 1.7.6 1.7 1.2-.7-.4-1.5-.6-2.2-.6-2.3 0-2.8.8-3.3 1.9.6 0 1.4.2 1.7 1.1-.5-.3-1.2-.4-1.9-.4-4.3 0-2.7 6.2-2.7 6.2.8-.6 1.7-.8 3.3-.8h11.9c.9 0 1.7-.2 2.5-.5.8-.4 1.5-.9 2-1.5l8.4-8.6c1.2-1.4 1.4-2.7 1.1-3.9-1.2-4.5-2.3-11.1-2.3-11.1s.6.6 1.9 1.7c2.8 1.9 6.2 3.3 9.2 3.9-.2-1.4-2.7-9 .6-14.6 0 0-1.4 5.6 2 14.8 3.1 7.2 9.5 12.8 18.5 12.8 10.5 0 9.2 15 9.2 15-4.3-4.1-7-2.3-8-.8.8 0 2.3.2 2.8 1.4 0 0-1.9-.8-3.3-.8-.7 0-1.4.2-2 .6-.5.4-1 1.1-1.1 1.9.2 0 1.7.4 1.9 1.2-.7-.2-1.5-.2-2.2-.2-3.1 0-1.7 7.2-1.7 7.2l.6-.6c.4-.4.9-.6 1.4-.6h15c2 0 4.1-1.7 4.1-3.7v-19.8c0-2.5-1.7-3.1-3.9-3.1 0 0 1.2-1.1 1.2-3.3 0 0-1.2.4-6.4-1.2-3.5-1.2-5.8-4.5-5.6-13.6 8 5 17.5 7.8 21.6 2 2.5-3.3 3.1-10.3-3.9-15.9-9.4-8.2-6.4-10.3-3.6-12.8.4.4 2.2 1.1 3.9-.2 2-1.7.6-5.3 2.5-6.6 0 0-4.3-.6-6.8 1.1-2.2 1.4-1.2 3.9-.8 4.5-2.8 2.7-7.4 6.4 1.4 14.4 5.6 5.3 5.8 9 3.5 11.7-3.9 3.9-15-3.7-17.7-5.9-.2-3.1-1.7-5.9-3.5-8.2-4.3-5-9.8-12.8-12.8-22 1.6 1.4 3.5 2.5 5.5 3.1s4.2.8 6.3.6l-4.3-9.5c2.8 5.9 10.1 9.7 18.7 7.4l-10.1-11.9c5.1 7.5 15.6 10.5 26.3 3.9l-17.5-12.2c7.2 5.1 17.5 3.5 24.7-3.9l-17.7-6.4c17.7 6.4 23.4-9.7 23.4-9.7-15.6 6.6-31.7-13.1-40.9 1.9-5.1 9.7-10.9 11.9-14.4 13.1 3.1-2 6.4-3.9 11.4-12.5 5.9-10.1 11.1-10.7 20.4-7.8 2.5.6 4.3.6 5.9 0 6.4-2.7 7-7.2 7-7.2-13.4 6.6-24.7-9.7-32.7 3.7-5 8.9-8 13.6-11.7 17.5 1.1-3.3 1.7-11.4-1.9-20 3.9-.8 3.1-5.3 3.1-5.3s-1.2 1.2-4.3 1.2c-2.7 0-3.3-2.8-9.2-2.8-6.8 0-9.7 3.5-9.7 3.5-8.4.2-8.6 6.6-8.6 6.6s10.1-2 10.5 6.2c0 3.5-1.9 6.2-7.6 8.9-4.3 2-9.5 7-11.1 13.7-1.3 5.6-.7 11.5 1.9 16.7.1-1.2.4-2.4.8-3.5.8 2 3.7 6.2 4.7 7.5-1 .3-2 .7-2.8 1.2-3.9 2.5-4.7 3.1-7 3.5-.4-.6-1.7-3.5-3.5-8-2.3-5.1-7 0-7 0h2.8s-.6 2.3 1.9 2.8c2.5.6 3.7 5 3.7 5l-8.4-5.1c-2.2-1.2-4.3 1.9-5 3.5l2-.6c.3.6.8 1.2 1.4 1.5.6.4 1.3.4 2 .3 3.5-.6 7.2 2.8 7.2 2.8s-4.5-.4-6.4-.6c-2.3-.2-3.1 2.7-3.5 4.5l2-1.2s1.2 1.7 2.8 1.1c1.9-.6 4.1-3.1 7-1.1 1.8.7 2 2.3 1.5 3.2zm26.6-67.7c.2.4-.2 1.2-.8 1.4-1.2.4-2.5-.4-2.7-1.1.2-.4.4-.6.8-.8s.7-.4 1.1-.4c3.1-.6 5 .2 5 .2-2.4.3-3.4.7-3.4.7zm-42 22.6c1.7 0 4.3-2.7 6.6.2 1.4 2-.8 4.1-.8 4.1s-2.5 2.2-.8 4.3l-1.4 1.4s3.9.4 4.3-1.7l1.2-6.1 7.2 6.6c2.2-5.6 7.8-7 7.8-7-6.4-3.1-16.2-5.3-16.2-5.3l-6.2-8.2c-1.9-2.5-4.1-.2-5.1 1.2l1.9-.2c-.2.8-.4 2.7 2.5 3.3 3.3.6 5 4.5 5 4.5s-5.1-1.2-7-1.7c-2-.2-3.1 2.7-3.1 4.5l1.7-1.7c.3.5.6 1 1.1 1.2.2.5.8.6 1.3.6" fill="#ffd508"/></svg>