<?xml version="1.0" encoding="UTF-8"?>
<!DOCTYPE svg PUBLIC "-//W3C//DTD SVG 1.1//EN" "http://www.w3.org/Graphics/SVG/1.1/DTD/svg11.dtd">
<!-- Creator: CorelDRAW 2019 (64-Bit) -->
<svg xmlns="http://www.w3.org/2000/svg" xml:space="preserve" width="117.613mm" height="263.147mm" version="1.1" style="shape-rendering:geometricPrecision; text-rendering:geometricPrecision; image-rendering:optimizeQuality; fill-rule:evenodd; clip-rule:evenodd"
viewBox="0 0 117.576 263.0638"
 xmlns:xlink="http://www.w3.org/1999/xlink"
 xmlns:xodm="http://www.corel.com/coreldraw/odm/2003">
 <defs>
  <style type="text/css">
   <![CDATA[
    .fil1 {fill:#C21632}
    .fil0 {fill:white}
   ]]>
  </style>
 </defs>
 <g id="Layer_x0020_1">
  <metadata id="CorelCorpID_0Corel-Layer"/>
  <g id="_698136480">
   <path class="fil0" d="M59.2534 0.0073c15.3265,0.2776 27.7662,12.2726 28.5984,27.5436l29.7106 0 0 173.7051c-11.4953,51.423 -58.8089,61.8078 -58.8089,61.8078 0,0 -47.3138,-10.3848 -58.7535,-61.8078l0 -173.7051 29.7098 0c0.8887,-15.6052 13.8834,-27.7663 29.5436,-27.5436z"/>
   <path class="fil1" d="M55.369 204.8425l0 7.0516 6.9864 0 0 -7.1386c7.075,-0.8502 13.6566,-4.0607 18.6818,-9.1129l-4.817 -4.8603c-3.7461,3.7796 -8.6057,6.2582 -13.8648,7.0736l0 -28.207 34.2826 0 0 -6.9865 -34.2606 0 0 -14.104c5.1971,0.8039 10.0061,3.2348 13.7345,6.9432l4.7733 -4.8603c-4.9979,-4.9695 -11.511,-8.1309 -18.5078,-8.9826l0 -17.7486 34.2822 -45.4572 0 32.2214 7.0087 0 -0.1305 -52.9431 -48.1688 63.8785 0 20.0055c-16.1823,1.6984 -28.4696,15.3421 -28.4696,31.6136 0,16.2708 12.2873,29.9153 28.4696,31.6136zm0 -56.3711l0 0 0 49.4929c-12.4027,-1.6464 -21.6683,-12.2237 -21.6683,-24.7354 0,-12.5119 9.2656,-23.089 21.6683,-24.7354l0 -0.0221z"/>
   <path class="fil1" d="M63.9609 224.8472c-0.1153,-0.0955 -0.2474,-0.1688 -0.39,-0.2166 -0.2219,-1.9559 0.062,-3.9354 0.8244,-5.7498 -0.1084,0.2167 -1.6491,2.5599 -3.2113,2.5599 -2.1695,0 -2.4521,-2.0614 -2.4521,-2.0614 0,0 -0.2167,1.2154 -1.8003,1.7149 -1.5841,0.4771 -3.3851,-0.9766 -3.3851,-0.9766 0,0 1.2152,1.4537 1.2152,2.5386 0,1.085 -1.5405,2.3217 -1.7575,2.4302 -3.8652,2.4294 -6.2338,6.6529 -6.2925,11.2172 0,7.0302 5.3597,12.7372 12.0203,12.7372 6.6399,0 12.0211,-5.707 12.0211,-12.7372 0.0618,-4.7898 -2.5601,-9.2121 -6.7922,-11.4563zm-6.1831 20.8303l0 0c2.0392,-1.5629 2.2996,-3.2549 2.2996,-6.6401 0,-3.3845 -5.4459,-4.8167 -5.4459,-8.1143 0,-3.0378 4.079,-4.7954 4.5785,-4.9908l0.1084 -0.065 -0.1084 0.0436c-0.2605,0.152 -0.9764,0.7811 -0.9764,3.9275 0,3.8616 5.6626,2.9072 5.6626,8.0928 0,5.1856 -6.0313,7.8546 -6.1407,7.7243l0.0223 0.0221z"/>
   <g>
    <path class="fil1" d="M87.9155 27.529c-0.8438,-15.4408 -13.6103,-27.529 -29.0752,-27.529 -15.4638,0 -28.2302,12.0882 -29.0739,27.529l-29.7262 0 0 173.7327c11.4345,51.4239 58.7354,61.7949 58.7354,61.7949l0.0435 0c0,0 47.301,-10.371 58.7571,-61.7949l0 -173.7327 -29.6605 0zm-17.7053 12.9318l0 0c-3.4715,-1.1923 -7.5287,-1.8004 -11.5865,-1.8004 -3.8619,0 -7.7242,0.5642 -11.066,1.6708 -1.609,-2.8559 -2.51,-6.0551 -2.6249,-9.3309l27.9031 0c-0.1221,3.3234 -1.0215,6.5699 -2.6257,9.4825l0 -0.022zm3.3198 5.4471l0 0c-3.5573,3.0731 -7.9888,4.9557 -12.6717,5.3794l0 -8.9603c5.4247,0.3031 10.0682,1.627 12.6717,3.5809zm-16.3378 -3.6248l0 0 0 9.0261c-4.8639,-0.3506 -9.4796,-2.2771 -13.1489,-5.4891 2.6908,-2.0396 7.5074,-3.3415 13.1489,-3.537zm18.7245 1.2143l0 0c-0.794,-0.6245 -1.6436,-1.1777 -2.5386,-1.6489 4.3615,-6.8767 4.3832,-18.3332 0.0655,-25.168 0.9329,-0.4783 1.779,-1.0427 2.5386,-1.627 6.926,8.2244 6.8982,20.2505 -0.0655,28.4438zm-15.0583 -27.3372l0 0 0 -8.9622c4.7084,0.4346 9.1786,2.3228 12.7152,5.4251 -2.5602,1.974 -7.2471,3.2979 -12.7152,3.5572l0 -0.0201zm9.3955 1.9081l0 0c1.6241,2.8797 2.5185,6.1136 2.6034,9.4167l-27.9464 0c0.2169,-3.6665 1.1071,-7.0721 2.517,-9.4605 6.8998,2.3884 15.9692,2.3884 22.826,0.0438zm-13.0617 -1.888l0 0c-5.5765,-0.2155 -10.372,-1.5394 -13.1059,-3.5572 3.6641,-3.1864 8.2627,-5.0982 13.1059,-5.447l0 9.0042zm-12.954 0.5002l0 0c-4.2304,6.9206 -4.1656,18.2912 0.1305,24.9945 -0.9591,0.4802 -1.868,1.0536 -2.7125,1.7147 -6.8412,-8.2043 -6.8226,-20.1318 0.0434,-28.3142 0.7383,0.5623 1.5844,1.0847 2.5387,1.605zm41.3777 41.9418l0 0 -5.4459 6.9864 -66.1345 0 0.1518 75.8545 41.4421 -54.9379 -27.6864 0 0 -6.986 41.7465 0 -62.6628 83.1656 0 -104.0826 78.5892 0zm24.9736 142.705l0 0c-8.1801,44.0026 -51.7918,54.7647 -51.7918,54.7647 0,0 -43.6124,-10.7621 -51.7925,-54.7647l0 -27.1656 103.5842 -136.911 0 164.0766z"/>
   </g>
  </g>
 </g>
</svg>
