<?xml version="1.0" encoding="UTF-8"?>
<!DOCTYPE svg PUBLIC "-//W3C//DTD SVG 1.1//EN" "http://www.w3.org/Graphics/SVG/1.1/DTD/svg11.dtd">
<!-- Creator: CorelDRAW 2019 (64-Bit) -->
<svg xmlns="http://www.w3.org/2000/svg" xml:space="preserve" width="167.732mm" height="206.939mm" version="1.1" style="shape-rendering:geometricPrecision; text-rendering:geometricPrecision; image-rendering:optimizeQuality; fill-rule:evenodd; clip-rule:evenodd"
viewBox="0 0 167.4437 206.5825"
 xmlns:xlink="http://www.w3.org/1999/xlink"
 xmlns:xodm="http://www.corel.com/coreldraw/odm/2003">
 <defs>
  <style type="text/css">
   <![CDATA[
    .fil1 {fill:#003B78}
    .fil0 {fill:#B0B3B4}
    .fil3 {fill:#E2001A}
    .fil2 {fill:white}
   ]]>
  </style>
 </defs>
 <g id="Layer_x0020_1">
  <metadata id="CorelCorpID_0Corel-Layer"/>
  <g id="_743786288">
   <path class="fil0" d="M83.7202 206.5825c46.1661,0 83.7235,-37.5585 83.7235,-83.7246l0 -115.7824c-0.0072,-2.8334 -2.2265,-5.1387 -5.0181,-5.2981 -25.6533,-1.1778 -52.1149,-1.7774 -78.7054,-1.7774 -26.5901,0 -53.0527,0.5997 -78.7036,1.7774 -2.7941,0.1593 -5.0116,2.4647 -5.0166,5.2981l0 115.783c0,46.1655 37.5556,83.724 83.7202,83.724z"/>
   <path class="fil1" d="M83.7202 202.2445c43.7731,0 79.3853,-35.6112 79.3853,-79.3866l0 -115.7853 -0.0086 0.0201c0,-0.5438 -0.4347,-0.9827 -0.9828,-0.9827 -25.5441,-1.1721 -51.9043,-1.7731 -78.3933,-1.7731 -26.4891,0 -52.8505,0.6011 -78.3977,1.7731 -0.543,0 -0.9767,0.4389 -0.9767,0.9827l-0.0117 -0.0201 0 115.7853c-0.0005,43.7754 35.6135,79.3866 79.3855,79.3866z"/>
   <path class="fil2" d="M153.0747 123.2512c0,18.3944 -7.3063,36.0348 -20.313,49.0415 -13.0067,13.0068 -30.6479,20.3136 -49.0415,20.3136 -18.3944,0 -36.0353,-7.3068 -49.0415,-20.3136 -13.0068,-13.0068 -20.3136,-30.6472 -20.3136,-49.0415 0,-18.3943 7.3068,-36.0348 20.3136,-49.0413 13.0063,-13.0069 30.6472,-20.3133 49.0415,-20.3133 18.3937,0 36.0349,7.3064 49.0415,20.3133 13.0067,13.0066 20.313,30.6471 20.313,49.0413z"/>
   <path class="fil3" d="M103.8588 187.8218c-2.0931,0.3984 -4.3162,-0.5542 -5.4435,-2.505 -0.4769,-0.826 -0.6937,-1.7293 -0.685,-2.6154l0.0074 -0.5895 -0.0074 -0.004c0.003,-0.038 0,-0.0762 -0.0247,-0.1176 -0.0649,-0.102 -0.1972,-0.1396 -0.3026,-0.0797 -0.0313,0.017 -0.0519,0.0404 -0.0677,0.064l-0.0052 -0.0023 -0.2145 0.2954c-1.1447,1.4111 -4.0158,2.9157 -8.7583,3.814 -0.1103,0.0195 -0.222,0.0403 -0.3351,0.06 -0.0157,0.0038 -0.0324,0.0062 -0.0465,0.01 -0.4966,0.083 -1.0099,0.1647 -1.5399,0.2421 -0.1064,0.0169 -0.2101,0.0313 -0.321,0.0472 -1.9748,0.2739 -4.121,0.4763 -6.2971,0.5065 -20.7541,0.2796 -35.1433,-8.161 -43.9402,-15.8725 -4.1632,-4.1671 -7.7878,-8.8744 -10.7644,-14.0042 -5.9049,-10.2754 -9.0347,-21.9679 -9.0533,-33.8214 0.0067,-5.0071 0.5717,-9.985 1.6656,-14.8464 0.7082,-2.0118 2.6415,-3.4598 4.8915,-3.4598 0.9578,0 1.8499,0.2644 2.6144,0.7168l0.5077 0.3003 0.0027 -0.0056c0.0348,0.0214 0.0712,0.0392 0.1142,0.0392 0.1224,0 0.2209,-0.1014 0.2209,-0.2248 0,-0.0323 -0.0116,-0.0649 -0.0184,-0.09l0.0038 -0.004 -0.1507 -0.3306c-0.6511,-1.6969 -0.5171,-4.9364 1.0721,-9.4918 0.0426,-0.107 0.0779,-0.2129 0.1183,-0.3211 0.0061,-0.0156 0.0091,-0.0323 0.0191,-0.0476 0.1742,-0.4724 0.3587,-0.9571 0.552,-1.449 0.044,-0.1032 0.0834,-0.2013 0.1238,-0.3049 0.7491,-1.8488 1.6475,-3.8084 2.7071,-5.7084 10.1381,-18.1084 24.6426,-26.3568 35.716,-30.1125 5.6936,-1.5236 11.5844,-2.3112 17.5176,-2.3212 11.8451,0.0244 23.5319,3.1561 33.8023,9.0621 4.334,2.5129 8.3674,5.4952 12.0301,8.8762 1.3936,1.6149 1.68,4.014 0.5509,5.9641 -0.4798,0.8288 -1.15,1.4683 -1.9255,1.9025l-0.5118 0.2921 0.005 0.0038c-0.0374,0.0174 -0.0666,0.0415 -0.0878,0.0803 -0.0656,0.1047 -0.0275,0.2408 0.078,0.3053 0.0313,0.0152 0.0599,0.0231 0.087,0.0264l0.0026 0.0056 0.3575 0.0331c1.7967,0.2874 4.541,2.0208 7.6864,5.6773 0.0752,0.0857 0.1439,0.1749 0.2219,0.2649 0.0117,0.0102 0.0208,0.0242 0.0313,0.0364 0.321,0.3844 0.6468,0.7919 0.9773,1.2066 0.0662,0.0885 0.1319,0.1715 0.2024,0.2583 1.2277,1.5719 2.4753,3.3293 3.5859,5.1977 10.6157,17.8343 10.5024,34.5183 8.2301,45.9872 -1.5308,5.6942 -3.7947,11.1854 -6.7502,16.3259 -5.9463,10.2495 -14.5035,18.8107 -24.7541,24.7531 -4.3457,2.4954 -8.9382,4.4943 -13.6977,5.9749z"/>
   <polygon class="fil2" points="22.4609,25.3752 22.0883,15.686 20.0502,16.5869 19.6256,14.4191 22.6813,13.2801 24.3579,13.2141 24.8219,25.2849 "/>
   <path class="fil2" d="M30.2831 23.8388c0.0296,0.8062 -0.5981,1.4891 -1.3956,1.5163 -0.8052,0.0274 -1.49,-0.6082 -1.5164,-1.4159 -0.0331,-0.8048 0.6086,-1.4877 1.413,-1.5164 0.8062,-0.0273 1.4726,0.614 1.499,1.416z"/>
   <polygon class="fil2" points="38.5409,14.7233 38.6356,17.8378 42.5321,17.7302 42.5869,19.6425 38.6828,19.7487 38.8256,24.8301 36.4982,24.8961 36.163,12.8225 42.6217,12.6402 42.68,14.61 "/>
   <path class="fil2" d="M49.5245 24.7283c-2.8271,0.0602 -4.1957,-1.2353 -4.2394,-3.3469l-0.1261 -6.0282 2.3061 -0.0488 0.1183 5.5075c0.0296,1.4345 0.7195,2.0256 2.0279,1.9998 1.4099,-0.0301 1.953,-0.8306 1.9245,-2.172l-0.1133 -5.42 2.2675 -0.0488 0.1198 5.7055c0.0465,2.0787 -1.2204,3.7859 -4.2853,3.852z"/>
   <path class="fil2" d="M58.5748 24.5962c-0.5896,0.0101 -1.3068,-0.0703 -1.8269,-0.1879l0.0561 -2.0415c0.5412,0.2066 1.2407,0.3213 1.9719,0.3128 0.7707,-0.0129 1.4129,-0.3801 1.3994,-1.0802 -0.0224,-1.4102 -3.7496,-0.5681 -3.7939,-3.6095 -0.0264,-1.8248 1.3314,-3.0614 3.8874,-3.1016 0.5055,-0.0072 1.187,0.0545 1.7043,0.1176l-0.0386 1.9339c-0.5065,-0.1349 -1.1892,-0.2152 -1.7272,-0.2066 -0.9847,0.0158 -1.3857,0.396 -1.3825,0.9683 0.0198,1.3242 3.8241,0.7145 3.8696,3.5765 0.0291,1.9481 -1.5248,3.2795 -4.1196,3.3182z"/>
   <path class="fil2" d="M66.9347 24.4872c-0.5888,0.0058 -1.3047,-0.076 -1.8268,-0.1966l0.0684 -2.04c0.5369,0.208 1.2373,0.3271 1.9675,0.3186 0.7729,-0.0044 1.4123,-0.3716 1.4071,-1.066 -0.0135,-1.4174 -3.7444,-0.5911 -3.7787,-3.6324 -0.0157,-1.8248 1.3511,-3.0571 3.9082,-3.0815 0.506,-0.0043 1.1865,0.0588 1.7015,0.1277l-0.0482 1.9339c-0.5055,-0.1406 -1.1865,-0.2224 -1.7243,-0.218 -0.9864,0.0115 -1.3876,0.3901 -1.3864,0.964 0.0135,1.3241 3.8201,0.7316 3.8488,3.5922 0.019,1.9496 -1.5449,3.2738 -4.137,3.2981z"/>
   <path class="fil2" d="M76.8375 20.1533c-0.1972,0.0029 -0.5549,0.0029 -0.789,0.0245l0.0118 2.3771c0.2689,0.0358 0.6237,0.0502 0.9823,0.0502 1.1286,-0.0057 1.6447,-0.5265 1.6398,-1.2926 0,-0.8235 -0.6847,-1.162 -1.8448,-1.1592zm0.1635 -3.6854l0 0c-0.2891,0.0014 -0.6612,0.0201 -0.9666,0.0201l0.0119 2.2222c0.266,0.0158 0.534,0.0144 0.664,0.0144 1.0883,-0.0043 1.8201,-0.4002 1.8134,-1.2065 -0.0011,-0.6269 -0.3586,-1.0559 -1.5226,-1.0501zm0.1026 7.7842l0 0c-0.6769,0.0028 -1.8986,-0.0288 -3.3265,-0.0231l-0.0375 -9.3048c0.9471,0 2.4668,-0.0603 3.7024,-0.0689 2.505,-0.0086 3.5306,0.8449 3.5344,2.3097 0.0024,0.8967 -0.4942,1.6871 -1.4228,2.0472l0 0.0201c1.0379,0.2826 1.5601,1.0674 1.5658,2.0687 0.0028,1.3973 -0.9522,2.9395 -4.0158,2.951z"/>
   <path class="fil2" d="M87.7599 18.7129c-0.1607,-0.429 -0.3379,-0.9683 -0.4443,-1.3801l-0.0169 0c-0.1108,0.4118 -0.2549,0.8938 -0.4145,1.3227l-0.8268 2.2566 2.5061 0.0029 -0.8036 -2.2021zm1.9188 5.4988l0 0 -0.5677 -1.6326 -3.5927 -0.0057 -0.5951 1.6268 -2.3255 -0.0072 3.4699 -9.2991 2.7374 0.0087 3.4145 9.3119 -2.5408 -0.0029z"/>
   <polygon class="fil2" points="94.3574,24.2347 94.4292,14.9285 96.7373,14.9457 96.6792,22.2105 99.7092,22.2349 99.6885,24.2748 "/>
   <polygon class="fil2" points="101.907,24.2979 102.0213,14.9944 104.3307,15.0246 104.241,22.288 107.2633,22.3253 107.2358,24.3653 "/>
   <path class="fil2" d="M114.3146 24.645c-4.2179,-0.0746 -5.5277,-2.9108 -5.4761,-5.9134 0.0701,-3.8318 2.1245,-6.4772 6.1677,-6.4055 0.8574,0.0172 1.7641,0.142 2.5555,0.3716l-0.2926 2.106c-0.7846,-0.2454 -1.6033,-0.3873 -2.4255,-0.4017 -2.2561,-0.0401 -3.3954,1.6383 -3.4397,3.981 -0.0464,2.6297 1.0187,4.1202 3.4537,4.1603 0.7301,0.0144 1.7187,-0.1822 2.3524,-0.4591l0.2266 2.0816c-0.8974,0.3071 -1.9911,0.5007 -3.1221,0.4792z"/>
   <polygon class="fil2" points="120.0279,24.602 120.2475,15.3 122.5536,15.3559 122.3861,22.6151 125.4037,22.6882 125.3572,24.7283 "/>
   <path class="fil2" d="M131.4873 25.061c-2.8216,-0.0817 -4.1289,-1.446 -4.0589,-3.5563l0.1764 -6.0268 2.3062 0.066 -0.1665 5.5118c-0.0399,1.4288 0.6236,2.0572 1.9271,2.0959 1.4124,0.0416 1.9917,-0.7287 2.0302,-2.0687l0.1611 -5.4214 2.2713 0.0675 -0.1677 5.7069c-0.0628,2.073 -1.4157,3.7185 -4.4792,3.6251z"/>
   <path class="fil2" d="M142.6319 17.5179c-0.2909,-0.01 -0.6615,-0.0057 -0.968,-0.0187l-0.0829 2.218c0.2662,0.0273 0.5353,0.0386 0.6613,0.043 1.0951,0.0401 1.8404,-0.3271 1.8648,-1.1319 0.0272,-0.6269 -0.3113,-1.0674 -1.4752,-1.1104zm-0.3173 3.6798l0 0c-0.1984,-0.0101 -0.5564,-0.0215 -0.7856,-0.0143l-0.0924 2.3799c0.2677,0.0445 0.628,0.0761 0.9823,0.0875 1.1287,0.0459 1.6681,-0.4576 1.694,-1.2252 0.0329,-0.822 -0.6342,-1.1878 -1.7982,-1.228zm0.1002 4.1015l0 0c-0.6781,-0.0273 -1.894,-0.1061 -3.326,-0.1578l0.343 -9.2991c0.95,0.0358 2.4697,0.0373 3.7024,0.0818 2.5035,0.0918 3.4933,0.9899 3.4418,2.4547 -0.0387,0.8952 -0.5638,1.6627 -1.505,1.9855l-0.0043 0.0215c1.0271,0.3228 1.5165,1.1277 1.4804,2.1304 -0.0531,1.3944 -1.073,2.895 -4.1324,2.7831z"/>
   <polygon class="fil2" points="20.9217,44.6505 20.7026,39.41 15.5923,39.6223 15.812,44.8615 13.4814,44.9547 12.9869,32.8911 15.3055,32.7936 15.5088,37.6167 20.6218,37.4072 20.4251,32.5812 22.747,32.4851 23.2433,44.5515 "/>
   <polygon class="fil2" points="26.3462,44.4454 26.0251,35.1449 31.7485,34.9483 31.8106,36.753 28.3978,36.8721 28.46,38.7313 31.7131,38.6195 31.7781,40.3711 28.5211,40.4845 28.5888,42.5216 32.0015,42.4025 32.0684,44.2474 "/>
   <polygon class="fil2" points="35.0624,44.1556 34.7822,34.8551 37.0962,34.7862 37.368,44.0867 "/>
   <path class="fil2" d="M43.9329 36.4303c-0.3406,0.0086 -0.7704,0.0372 -1.0915,0.0775l0.13 5.493c0.2196,0.0301 0.6317,0.0387 1.043,0.0274 1.6603,-0.0388 2.8388,-1.0157 2.7952,-2.8951 -0.047,-1.8248 -1.0166,-2.7487 -2.8766,-2.7027zm-0.1028 7.5345l0 0c-1.2566,0.0315 -2.2568,0.0216 -3.1158,0.0072l-0.2249 -9.2848c0.8385,-0.0372 2.4814,-0.1147 3.6264,-0.142 3.0233,-0.0747 5.0592,1.1663 5.137,4.4185 0.0824,3.3829 -2.2953,4.9265 -5.4228,5.0011z"/>
   <polygon class="fil2" points="51.8323,43.7324 51.6641,34.4289 57.3864,34.3243 57.4217,36.1333 54.0022,36.195 54.0368,38.0557 57.2915,37.9969 57.3264,39.7485 54.0653,39.8088 54.1079,41.8487 57.5225,41.7857 57.5566,43.6277 "/>
   <path class="fil2" d="M66.404 43.5101l-2.8479 -4.5133c-0.3231,-0.5136 -0.6522,-1.1706 -0.8921,-1.6871l-0.0167 0c0.0374,0.4476 0.0621,0.9124 0.066,1.6427l0.0599 4.6008 -2.2202 0.0244 -0.1104 -9.302 3.0972 -0.0373 2.7554 4.4042c0.3598,0.5537 0.69,1.1376 0.9881,1.7632l0.0169 0c-0.0471,-0.5537 -0.0718,-1.3255 -0.082,-2.291l-0.064 -3.9179 2.24 -0.0273 0.1042 9.3078 -3.0946 0.033z"/>
   <polygon class="fil2" points="79.0975,43.4239 79.0824,39.6653 75.1266,39.6825 75.1405,43.4383 72.8369,43.4498 72.7981,34.1435 75.1013,34.1363 75.121,37.6942 79.0746,37.6784 79.0578,34.1163 81.3665,34.1077 81.4057,43.4124 "/>
   <polygon class="fil2" points="84.7513,43.4153 84.7731,34.1077 90.4975,34.1206 90.4975,35.931 87.0764,35.921 87.0764,37.7832 90.3299,37.7888 90.3271,39.5433 87.0702,39.5361 87.0645,41.5747 90.483,41.5834 90.4779,43.4268 "/>
   <polygon class="fil2" points="93.4586,43.4469 93.5218,34.1406 95.8308,34.1535 95.7718,43.457 "/>
   <path class="fil2" d="M108.8099 43.6033l-0.5676 -4.4803c-0.0992,-0.789 -0.1777,-1.5063 -0.2208,-2.0444l-0.0207 0c-0.134,0.5911 -0.3015,1.231 -0.4887,1.8392l-1.564 4.6495 -2.3974 -0.0315 -1.285 -4.331c-0.2091,-0.6643 -0.4121,-1.4906 -0.5493,-2.172l-0.0146 -0.0029c-0.0455,0.7001 -0.1249,1.3786 -0.2431,2.1289l-0.6121 4.3396 -2.307 -0.0287 1.568 -9.2862 2.8998 0.0387 1.4616 4.7413c0.1564,0.5208 0.3055,1.1334 0.4238,1.7603l0.0185 0c0.1323,-0.6614 0.2831,-1.1591 0.4695,-1.7114l1.6376 -4.737 2.9505 0.0358 1.2956 9.3221 -2.4546 -0.0301z"/>
   <polygon class="fil2" points="119.756,43.8113 119.9757,34.1163 117.8789,34.8938 117.5908,32.7017 120.7069,31.7535 122.3881,31.7922 122.1169,43.8659 "/>
   <path class="fil2" d="M129.1045 33.5567c-1.0693,-0.0287 -1.697,0.5093 -1.7193,1.2941 -0.0207,0.789 0.6294,1.3097 1.7019,1.9123 1.0541,-0.6183 1.5854,-1.1548 1.6112,-1.8377 0.0198,-0.6958 -0.4636,-1.3356 -1.5938,-1.3686zm-0.3447 5.308l0 0c-0.9105,0.5466 -1.6548,1.0802 -1.6833,1.9396 -0.0236,0.9139 0.6574,1.5222 1.8022,1.5537 1.0355,0.0273 1.8393,-0.4849 1.8638,-1.3815 0.0276,-0.9455 -0.9079,-1.5279 -1.9827,-2.1118zm-0.1479 5.3826l0 0c-2.5441,-0.0703 -3.9916,-1.3829 -3.9395,-3.2981 0.0414,-1.3916 1.0871,-2.3471 2.2702,-3.0471 -1.2171,-0.7344 -1.9233,-1.667 -1.885,-2.8821 0.057,-2.093 1.8476,-3.3684 4.2796,-3.2995 2.3234,0.0645 3.755,1.3757 3.7091,3.0743 -0.0386,1.3601 -0.9936,2.2093 -2.1407,2.9294 1.2823,0.7704 2.2619,1.7287 2.2192,3.1605 -0.0638,2.3082 -2.1524,3.4273 -4.5128,3.3627z"/>
   <path class="fil2" d="M140.1947 34.5151l-0.0197 0 -3.1976 4.8661c0.7912,-0.0086 2.4686,0.0488 3.0413,0.0675l0.176 -4.9336zm1.9709 7.0683l0 0 -0.0986 2.8777 -2.2545 -0.0789 0.0992 -2.8763 -4.8974 -0.1693 -0.261 -1.8348 4.8345 -7.2089 2.8959 0.1003 -0.2415 7.097 1.8045 0.0632 -0.0761 2.0917 -1.8051 -0.0617z"/>
   <path class="fil2" d="M150.2112 38.9452c-1.1821,-0.0488 -1.9682,0.7776 -2.017,1.8678 -0.0488,1.218 0.5739,2.1563 1.7545,2.2065 1.3099,0.0545 2.0386,-0.812 2.0888,-2.0099 0.0518,-1.1964 -0.5753,-2.0113 -1.8263,-2.0643zm-0.5049 6.0152l0 0c-2.5019,-0.1047 -4.113,-1.8707 -3.9682,-5.3052 0.2052,-4.935 3.04,-7.1801 6.5219,-7.0367 0.5938,0.0258 1.0716,0.0645 1.3943,0.132l-0.086 2.0357c-0.4779,-0.1263 -0.8881,-0.1808 -1.4217,-0.2037 -1.8449,-0.0746 -3.1748,0.8737 -3.7573,2.8176 -0.0545,0.1606 -0.1017,0.3716 -0.1793,0.604l0.0144 0.0158c0.6126,-0.6341 1.4905,-0.9942 2.6539,-0.944 2.3026,0.096 3.6568,1.654 3.5708,3.7113 -0.112,2.664 -2.04,4.2837 -4.7428,4.1732z"/>
   <path class="fil2" d="M84.2419 151.5c-17.6478,0 -19.5889,-12.4507 -19.5889,-25.7747 0,-16.3679 3.7254,-28.8662 21.6518,-28.8662 3.8084,0 4.6775,0.4725 8.1643,1.4273l-1.1096 9.3591c-3.4829,-1.03 -3.962,-1.5894 -7.6118,-1.5894 -8.9803,0 -9.7547,8.6911 -9.7547,17.9259 0,10.0158 0.9011,18.1611 10.469,18.1611 3.252,0 4.4407,-0.9511 7.2185,-2.222l1.1876 9.2011c-3.9653,1.429 -5.6271,2.3777 -10.6262,2.3777z"/>
   <path class="fil2" d="M121.5464 150.785l0.2796 0c8.253,-0.0364 10.012,-5.7945 10.0294,-13.3492l0 -40.1793 -10.3084 0 0 21.4141 -11.9783 0 0 -21.4141 -10.3123 0 0 53.5285 10.3123 0 0 -23.2355 11.9777 0 0 23.2355z"/>
   <path class="fil2" d="M47.797 110.0512c0.005,-2.311 0.5459,-4.0746 3.0832,-4.0746l11.7402 0 0 -8.7201 -15.0236 0c-8.3257,0 -10.0908,5.7725 -10.1105,13.3506l0 40.1779 10.3107 0 0 -22.5239 12.5268 0 0 -8.4815 -12.5268 0 0 -9.7285z"/>
  </g>
 </g>
</svg>
