<svg xmlns="http://www.w3.org/2000/svg" viewBox="0.0 0.0 3304.49 3873.45" width="292.1186973360886" height="342.3265984407288">
  <defs>
    <style>
      .cls-1 {
        fill: #fff;
      }

      .cls-2 {
        fill: #428037;
      }

      .cls-3 {
        fill: #457d3f;
      }

      .cls-4 {
        fill: #013893;
      }

      .cls-5 {
        fill: #af923a;
      }
    </style>
  </defs>
  <g>
    <g>
      <g>
        <path class="cls-5" d="M1652.25,3304.49c-223.02,0-439.4-43.69-643.15-129.88-196.76-83.22-373.45-202.34-525.16-354.05-151.71-151.71-270.84-328.4-354.06-525.16C43.7,2091.65,0,1875.26,0,1652.25s43.7-439.4,129.87-643.15c83.22-196.76,202.34-373.45,354.06-525.16,151.71-151.71,328.4-270.84,525.16-354.06C1212.84,43.7,1429.23,0,1652.25,0s439.41,43.7,643.16,129.87c196.76,83.22,373.45,202.34,525.16,354.06,151.71,151.71,270.83,328.4,354.05,525.16,86.18,203.75,129.88,420.14,129.88,643.15s-43.69,439.41-129.88,643.15c-83.22,196.76-202.34,373.45-354.05,525.16-151.71,151.71-328.4,270.83-525.16,354.05-203.75,86.18-420.14,129.88-643.15,129.88Z"/>
        <circle class="cls-4" cx="1652.25" cy="1652.25" r="1569.56"/>
        <circle class="cls-1" cx="1652.25" cy="1652.25" r="1313.72"/>
        <circle class="cls-5" cx="1652.25" cy="1652.25" r="1072.06"/>
      </g>
      <path class="cls-3" d="M2176.36,1720.17s95.53,6.98,114.27,8.23c18.73,1.25,29.99,5.98,100.54-78.68,15.61-18.73-148.2,53.98-215.44,64.32-50.58,3.75.63,6.14.63,6.14Z"/>
      <path class="cls-3" d="M2260.05,1908.94s7.13-90.41,8.41-108.14c1.28-17.73,6.11-28.38-80.43-95.15-19.15-14.77,55.18,140.25,65.75,203.89,3.83,47.87,6.27-.6,6.27-.6Z"/>
      <path d="M2256.74,2343.53l-174.29-384.4s-13.43-8.4,10.07-35.26,85.63-112.5,85.63-112.5v-82.27l52.05-92.35,13.43-112.5,25.31-39.38v-72.07l-8.89-111.44-15.26-83.9-50.34-53.39-30.51-114.41-85.32-93.06-56.56-16.78-54.92-35.09-53.39-57.97-57.97-16.78-59.5-30.51s-86.96,10.68-158.66-16.78c-71.7-27.46-137.3,48.82-158.66,47.29-21.36-1.53-109.84-24.41-144.93,9.15-35.09,33.56-62.55,38.14-90.01,67.12-27.46,28.99-61.02,68.65-125.09,86.96-41.19,12.2-50.34,88.48-41.19,105.26,9.15,16.78-28.99,76.28-10.68,93.06,18.31,16.78,41.19,35.09,25.93,93.06-15.26,57.97-35.09,117.47-39.66,134.25-4.58,16.78-1.53,36.61,13.73,59.5,15.26,22.88-67.12,215.1-77.8,245.61-10.68,30.51-25.93,68.65,13.73,70.17s75.39,6.62,72.74,35.85-16.61,51.81,9.96,72.4c9.96,7.97-2.66,43.18,3.32,52.47,5.98,9.3,41.85,29.89,41.85,53.8v97.9l47.5,40.43s170.69-14.97,244.05-10.48c16.47,2.99,71.87,196.14,71.87,196.14l762.43,10.91Z"/>
      <path class="cls-2" d="M1089.62,939.5s9.38,159.4,157.05,151.19c0,0,19.92-132.44-157.05-151.19Z"/>
      <path class="cls-3" d="M1741.38,1467.2l-3.96,4.61c-98.54,135.8-221.65,36.95-221.65,36.95,67.17-104.07,164.31-62.88,210.2-46.39.13.13.26.22.39.3.44.26.91.44,1.44.44,1.44,0,2.57-1.13,2.57-2.52,0-.7-.3-1.35-.74-1.83-.13-.13-.26-.22-.39-.3-118.83-87.33-28.4-209.91-28.4-209.91,125.2,89.07,40.54,218.66,40.54,218.66Z"/>
      <path class="cls-3" d="M1934.77,1579.83l-3.71,5.18c-90.3,150.91-228.57,59.6-228.57,59.6,60.47-114.85,166.08-81.17,215.69-68.36.15.12.29.2.44.28.48.23,1,.37,1.54.32,1.5-.14,2.58-1.42,2.45-2.87-.07-.73-.45-1.38-.95-1.83-.15-.12-.29-.2-.44-.28-132.69-79.7-49.62-216.07-49.62-216.07,139.53,80.92,63.16,224.03,63.16,224.03Z"/>
      <path class="cls-3" d="M2136.1,1675.64l-3.4,5.66c-80.53,163.07-234.13,84.14-234.13,84.14,52.63-123.27,166.56-99.73,219.8-91.74.17.11.33.18.49.24.53.19,1.08.27,1.65.16,1.56-.29,2.57-1.72,2.3-3.18-.14-.73-.6-1.36-1.17-1.77-.17-.11-.33-.18-.49-.24-146.66-67.68-72.34-215.19-72.34-215.19,153.94,68.22,87.29,221.92,87.29,221.92Z"/>
      <path class="cls-3" d="M1560.14,1335.64l-4.01,4.21c-100.73,124.78-213.38,24.37-213.38,24.37,69.23-96.03,159.93-51.93,202.92-33.94.12.13.24.22.36.31.4.27.85.46,1.35.49,1.37.07,2.51-.95,2.58-2.28.03-.66-.22-1.3-.62-1.78-.12-.13-.24-.22-.36-.31-109.13-89.2-16.78-201.76-16.78-201.76,115.13,91.18,27.94,210.71,27.94,210.71Z"/>
      <path class="cls-3" d="M1381.2,1207.44l-4.15,3.68c-105.8,110.49-204.79,5.97-204.79,5.97,73.54-85.7,156.2-36.48,195.61-15.92.1.13.21.23.32.32.36.29.77.51,1.24.57,1.3.18,2.46-.7,2.63-1.96.09-.63-.11-1.26-.44-1.74-.1-.13-.21-.23-.32-.32-96.55-93.58.3-193.13.3-193.13,102.09,95.94,9.59,202.53,9.59,202.53Z"/>
      <g>
        <path class="cls-5" d="M1581.85,3839.22c-321.86-156.45-558.32-423.32-568.23-434.61l-40.02-45.59v-677.74l-125.28-141.67v-217.08l78.17-4.28c257.24-14.08,720.47-17.74,725.12-17.77h1.26c4.65.03,467.88,3.69,725.12,17.77l78.17,4.28v217.08l-125.28,141.67v677.74l-40.01,45.58c-9.92,11.29-246.37,278.16-568.23,434.61l-70.4,34.22-70.4-34.22Z"/>
        <path class="cls-1" d="M1652.25,2383.18s-462.96,3.51-721.23,17.65v107.48l125.28,141.67v677.91l19.47,22.17c9.46,10.77,235.09,265.5,542.24,414.8l34.25,16.65,34.25-16.65c307.15-149.3,532.78-404.03,542.24-414.8l19.47-22.17v-677.91l125.28-141.67v-107.48c-258.27-14.14-721.23-17.65-721.23-17.65Z"/>
        <path class="cls-4" d="M1652.25,2461.51s-386.38,0-645.5,14.18l127.88,144.62v678.07s221.14,251.91,517.62,396.03c296.47-144.12,517.62-396.03,517.62-396.03v-678.07l127.88-144.62c-259.12-14.18-645.5-14.18-645.5-14.18Z"/>
      </g>
      <polygon class="cls-1" points="1481.6 2556.77 1481.6 3490.2 1403.27 3429.27 1403.27 3005.34 1292.81 3005.34 1292.81 3353.85 1214.48 3275.51 1214.48 2556.77 1292.81 2556.77 1292.81 2927 1403.27 2927 1403.27 2556.77 1481.6 2556.77"/>
      <path class="cls-1" d="M1728.49,2896.75v-261.64h-110.45v848.86l30.9,19.45,79.56-43.87v-105.71h78.34v129.3c0,15.35-8.09,29.57-21.29,37.41l-130.03,77.26-115.81-77.16v-920.37c0-24.04,19.48-43.52,43.52-43.52h180.09c24.04,0,43.52,19.48,43.52,43.52v296.46h-78.34Z"/>
      <polygon class="cls-1" points="1940.61 2635.11 1940.61 2927 2059.99 2927 2059.99 3005.34 1940.61 3005.34 1940.61 3414.78 1862.28 3475.71 1862.28 2556.77 2080.79 2556.77 2080.79 2635.11 1940.61 2635.11"/>
    </g>
  </g>
</svg>