<?xml version="1.0" encoding="UTF-8"?>
<!DOCTYPE svg PUBLIC "-//W3C//DTD SVG 1.1//EN" "http://www.w3.org/Graphics/SVG/1.1/DTD/svg11.dtd">
<!-- Creator: CorelDRAW 2019 (64-Bit) -->
<svg xmlns="http://www.w3.org/2000/svg" xml:space="preserve" width="177.733mm" height="197.909mm" version="1.1" style="shape-rendering:geometricPrecision; text-rendering:geometricPrecision; image-rendering:optimizeQuality; fill-rule:evenodd; clip-rule:evenodd"
viewBox="0 0 177.4293 197.5701"
 xmlns:xlink="http://www.w3.org/1999/xlink"
 xmlns:xodm="http://www.corel.com/coreldraw/odm/2003">
 <defs>
  <style type="text/css">
   <![CDATA[
    .fil2 {fill:#DE0013}
    .fil1 {fill:black}
    .fil0 {fill:white}
   ]]>
  </style>
 </defs>
 <g id="Layer_x0020_1">
  <metadata id="CorelCorpID_0Corel-Layer"/>
  <g id="_910059552">
   <path class="fil0" d="M177.4084 18.2676l0 -1.76 -1.5981 -0.7182c-22.3833,-10.1926 -50.8418,-15.3895 -86.9738,-15.7894l-0.082 0c-36.2525,0.3999 -64.7505,5.556 -87.1334,15.7486l-1.5989 0.7195 0 1.7587c-0.2793,36.2127 1.9189,59.3554 15.7087,100.8037 12.4301,37.4916 41.9681,68.9477 73.4239,78.2999l0.7595 0.2398 0.7993 -0.2398c30.3772,-8.9932 58.2754,-39.6894 71.0657,-78.2597 13.7084,-41.4488 15.9077,-64.5903 15.6275,-100.803l0.0014 0z"/>
   <path class="fil1" d="M3.7684 18.9829c-0.2395,35.4129 1.9986,58.2358 15.5078,98.925 12.0314,36.2926 40.409,66.6689 70.6266,75.782 29.1376,-8.7533 55.9167,-38.4509 68.2677,-75.7021 13.4704,-40.6894 15.7092,-63.5511 15.4685,-98.9641 -21.8228,-9.7927 -49.6014,-14.7898 -84.8953,-15.1897 -35.3727,0.3999 -63.192,5.3561 -84.9754,15.1488zm86.1344 176.8635l0 0 -0.2799 -0.0815c-14.5095,-4.317 -29.5375,-14.0294 -42.2877,-27.3798 -13.4696,-14.0289 -23.8219,-31.2562 -30.0177,-49.8419 -13.6686,-41.2079 -15.8675,-64.2306 -15.5877,-100.2433l0 -0.6392 0.6001 -0.2802c22.1433,-10.1138 50.4015,-15.1897 86.4139,-15.6289 35.9325,0.4407 64.1509,5.556 86.3342,15.6684l0.5999 0.2788 0 0.6392c0.2788,36.0128 -1.8783,59.0353 -15.5488,100.2845 -12.5903,38.0103 -40.0491,68.3078 -69.9057,77.1415l-0.3206 0.0824z"/>
   <path class="fil1" d="M168.3028 23.6898l0 -0.7997 -0.7195 -0.3183c-20.2248,-9.3125 -45.9655,-14.0294 -78.7804,-14.4307 -32.8143,0.3605 -58.6353,5.0773 -78.859,14.349l-0.7195 0.3605 0 0.7603c-0.2397,33.1348 1.7583,54.3177 14.2286,92.2487 11.1514,33.854 37.6913,62.2722 66.0693,70.7863l0.3601 0.082 0.3592 -0.082c27.3792,-8.1941 52.4803,-35.9323 63.8713,-70.7466 12.4706,-37.9304 14.4701,-59.1155 14.1899,-92.2095z"/>
   <path class="fil2" d="M89.9236 111.4823l0 72.9443c-2.5182,-1.0791 -20.1042,-6.1155 -36.2925,-23.1024 -7.8341,-8.1939 -13.7891,-16.7069 -17.2667,-22.4627 0,0 36.4519,-18.7058 53.5592,-27.3792z"/>
   <path class="fil0" d="M63.627 143.9182l0 -10.2323 3.2776 0 0.0405 10.2323 -3.3181 0zm6.275 -11.7106l0 0c-0.5198,-0.4802 -0.9587,-0.9588 -1.3988,-1.3993 -2.1982,-0.0407 -4.357,-0.0407 -6.5153,-0.0407 -0.5195,0.4797 -0.9993,1 -1.4387,1.5191 -0.0412,4.3567 -0.0412,8.7133 -0.0412,13.1502 0.4004,0.4004 0.7992,0.7991 1.2391,1.2392l6.7552 0c0.44,-0.4796 0.8789,-0.9191 1.3986,-1.3592l0.0012 -13.1092z"/>
   <path class="fil0" d="M35.3858 137.0624c-3.1977,-5.6754 -4.5962,-8.1934 -6.9546,-13.6687 -2.1182,-4.9567 -4.7163,-12.8702 -4.7163,-12.99 47.4834,-24.1417 95.1677,-48.4031 142.6477,-72.545 0.1589,7.6751 -0.4802,12.9509 -1.3193,21.1846 -0.5196,5.076 -1.1194,9.3127 -1.6784,12.9499 -42.4879,21.5437 -85.5757,43.447 -127.9851,65.0703l0.0061 -0.0011z"/>
   <polygon class="fil0" points="32.3164,104.0126 32.5555,97.1383 44.1864,91.862 43.7867,98.2173 "/>
   <path class="fil0" d="M21.061 101.7615c-0.6797,-2.2781 -0.6797,-2.2781 -0.8393,-3.3175 0.3602,-9.2725 0.4398,-9.2329 0.5198,-10.0321 3.7971,-1.7589 7.6344,-3.5173 11.5115,-5.2763 -0.1998,4.5569 -0.3591,9.1131 -0.5598,13.6693 -3.5575,1.6391 -7.1143,3.3176 -10.6322,4.9566z"/>
   <path class="fil0" d="M56.4643 91.6315c0.0407,-1.9579 0.0822,-3.9165 0.1594,-5.8355 3.8374,-1.7984 7.6744,-3.5569 11.5118,-5.3158 -0.0414,1.7589 -0.082,3.5174 -0.12,5.2763 -3.8771,1.9184 -7.7144,3.9171 -11.5512,5.875z"/>
   <polygon class="fil0" points="44.5952,90.9154 45.1946,77.1269 56.7057,71.8105 56.0265,85.5606 "/>
   <path class="fil0" d="M17.684 89.0735c-0.8387,-3.9969 -1.7986,-8.3936 -2.5975,-12.39 0,-0.0407 3.6773,-1.639 5.4756,-2.398 -0.1595,4.5562 -0.3601,9.1526 -0.4801,13.7897 -0.8387,0.3191 -1.6385,0.6396 -2.398,0.9999l0 -0.0016z"/>
   <polygon class="fil0" points="32.9302,82.2182 33.49,68.4279 44.8812,63.1121 44.4017,76.8623 "/>
   <polygon class="fil0" points="68.8456,79.3532 69.445,65.684 80.9165,60.4077 80.4764,73.9973 "/>
   <path class="fil0" d="M88.1842 71.2698l0 4.3164c-2.4383,1.199 -4.8363,2.4383 -7.2347,3.7176 0.0412,-1.6391 0.0818,-3.2381 0.1595,-4.8368 2.3583,-1.039 4.6766,-2.1582 7.0746,-3.1972l0.0006 0z"/>
   <path class="fil2" d="M99.4393 42.3122c14.629,0.5603 29.6969,1.4799 44.0077,5.0365 -17.7878,9.0338 -35.8135,18.1857 -53.56,27.2597 -0.0413,-10.7923 -0.12,-21.6643 -0.12,-32.4159l9.6723 0.1197z"/>
   <path class="fil0" d="M21.2657 73.4187c0.1193,-4.597 0.319,-9.1532 0.4796,-13.7502 3.8372,-1.7984 7.6741,-3.5971 11.5512,-5.3967 -0.1595,4.3573 -0.4399,13.5501 -0.4796,13.8305 -3.7973,1.7589 -7.794,3.5173 -11.5512,5.3159l0 0.0005z"/>
   <polygon class="fil0" points="57.385,70.7583 57.8652,56.9681 69.3365,51.6121 68.8564,65.3622 "/>
   <path class="fil0" d="M13.0799 63.0841c-0.3195,-2.9177 -0.7991,-8.7939 -0.7991,-8.7939 0,0 3.4771,-1.3982 9.1928,-3.3566 -0.12,2.7976 -0.2391,5.5953 -0.3998,8.3935 -2.678,1.2387 -5.356,2.5178 -7.9943,3.7571l0.0005 0z"/>
   <path class="fil0" d="M45.7205 62.0606c0.1595,-4.6366 0.3592,-9.2333 0.5197,-13.8305 3.1176,-1.4389 6.1954,-2.8766 9.3127,-4.3155 0.7194,-0.0817 1.4395,-0.1605 2.1984,-0.2 -0.2392,4.3169 -0.4,8.6339 -0.5996,12.9903 -3.7972,1.758 -7.6339,3.5565 -11.4313,5.3556z"/>
   <path class="fil0" d="M88.1842 43.3359l0 13.0297c-2.1982,0.9996 -4.3969,1.9985 -6.555,3.0374 0.1595,-4.596 0.3603,-8.7131 0.5199,-13.3102 1.998,-0.9589 3.9968,-1.8375 6.0351,-2.7583l0 0.0014z"/>
   <polygon class="fil0" points="33.9537,53.261 34.2326,47.4655 45.7041,45.2268 45.5043,47.9851 "/>
   <path class="fil0" d="M11.3403 23.9968c4.8361,-1.8783 34.5739,-14.0295 77.5407,-13.669 45.2858,0.3999 68.9476,10.1517 77.4211,13.6295l0 11.8301c0,0.0408 -13.5493,6.5543 -20.1854,9.9519 -6.5549,-1.3588 -27.459,-5.7545 -59.2347,-5.7545 -43.6066,0 -73.0243,10.8713 -74.8628,11.6302 -0.9593,-14.2689 -0.7992,-27.0987 -0.6798,-27.6182l0.0011 0z"/>
   <path class="fil0" d="M75.2915 139.1091l2.3584 -4.1966 0 4.1966 -2.3584 0zm6.9549 4.7564l0 0 -1.4791 0.0407 0 -2.0785c0.3197,-0.0406 1.1593,-0.0406 1.4791,-0.0406l0 -2.6378 -1.5991 0 0 -8.314c-0.9998,0 -2.4783,0 -3.4769,0.0407 -1.7589,2.6779 -3.7974,5.3559 -5.3165,8.1538l0 2.7583c1.3195,0 4.1971,0 5.5161,0.0407l0 2.1186 -1.6391 0 0 2.7578 6.5154 0.0407 0 -2.8805z"/>
   <path class="fil2" d="M19.4236 30.751l0 -2.0388c-0.3999,0.0817 -0.7194,0.1986 -1.0792,0.2788l-0.0406 -2.7174c3.3573,-0.6801 6.8343,-1.639 10.1921,-2.1585l0.0407 4.2761c-1,0.1591 -2.0384,0.4013 -2.9976,0.6407l0 -1.5996c-1.0394,0.1591 -2.0784,0.3999 -3.0779,0.6393l0.0408 3.358c0.7596,-0.2 1.5592,-0.3196 2.3181,-0.4801l0.0414 2.5977c-0.7595,0.1591 -1.5593,0.3197 -2.3183,0.5196l0.0408 3.5172c0.3195,-0.0817 0.6792,-0.1197 1.0387,-0.1591l0.0413 2.5978c-1.759,0.359 -3.4777,0.6786 -5.1959,1.1193l-0.0412 -2.5977c0.3604,-0.0817 0.6798,-0.2 1.0791,-0.2394l-0.0825 -7.554z"/>
   <path class="fil2" d="M147.9399 38.2191l0 -2.5977c0.2395,0.0408 0.8393,0.1604 1.1194,0.1999l-0.0817 -9.6322 -0.9997 -0.2 0 1.8389c0,0 -1.6388,-0.3197 -2.4386,-0.5196l-0.0408 -4.3577c3.3173,0.6392 6.6754,1.2798 10.0321,1.9584l0.0409 4.3578 -2.398 -0.5195 0 -1.7994 -0.9588 -0.1605 0.0816 9.6336c0,0 0.5999,0.0817 0.9997,0.1591l0.0422 2.5977c-1.7192,-0.3182 -3.6777,-0.6786 -5.3969,-0.9575l-0.0015 -0.0014z"/>
   <path class="fil2" d="M30.1675 37.401l-0.12 -12.3496c0.6396,-0.7195 1.3591,-1.4799 1.3591,-1.4799 2.0785,-0.359 6.1155,-1.0391 6.1155,-1.0391l1.8783 0.959 0 3.9564 -2.9975 0.4407 -0.0408 -2.4386 -3.3175 0.5209 0.082 9.5519c1.1587,-0.2393 2.118,-0.3998 3.3175,-0.5603 -0.0411,-0.8786 -0.0411,-1.7178 0,-2.5978 0.9984,-0.1985 1.9982,-0.359 3.0372,-0.4801l0 3.8382c-0.4797,0.5196 -0.9994,1.0786 -1.5187,1.6375 -2.2385,0.3605 -4.2365,0.6801 -6.435,1.0405 -0.4802,-0.3196 -0.9201,-0.6392 -1.3591,-0.9997l-0.001 0z"/>
   <path class="fil2" d="M45.7205 35.8664l-0.0406 -2.5977c0.3592,-0.0409 0.7188,-0.1197 1.0791,-0.1591l-0.0819 -9.5534c-0.4005,0 -0.7195,0 -1.0792,0.0818l-0.0412 -2.5978c1.7588,-0.2394 3.477,-0.4393 5.236,-0.68l0.0406 2.678c-0.3586,0.0422 -0.6792,0.0817 -0.9981,0.1197l0.0819 9.5533c0.319,-0.0408 0.6391,-0.0817 0.9982,-0.1591l0.0412 2.6766c-1.7985,0.2001 -3.5173,0.3999 -5.236,0.6407l0 -0.0028z"/>
   <path class="fil2" d="M54.213 32.2843l-0.1197 -9.5519 -1.159 0.0817 0 -2.5977 4.2367 -0.3998 3.5976 9.0732 -0.082 -6.7556 -0.9587 0.1197 -0.0414 -2.678c0,0 2.958,-0.2394 4.7567,-0.3999l0 2.6386 -0.9588 0.0817 0.1199 9.5126c0,0 0.5593,-0.0818 0.9588,-0.0818l0.0405 2.6781 -3.917 0.2802 -3.6767 -8.7142 0.0814 6.436 0.7193 -0.0817 0.0412 2.6372c-1.7187,0.2 -2.9178,0.2802 -4.5968,0.4802l-0.0406 -2.6781 0.9986 -0.0803z"/>
   <path class="fil2" d="M138.0151 33.9219l-0.0821 -9.5928c0.9184,0.1197 1.8388,0.2787 2.798,0.4801l0.0817 9.5533c-0.9589,-0.1604 -1.8787,-0.3196 -2.7976,-0.4406zm5.8361 -9.8716l0 0 -1.8388 -1.6797c-2.8786,-0.4393 -5.7161,-0.9181 -8.5138,-1.3588l0 2.7174c0.3591,0.0408 0.6791,0.0817 1.079,0.1605l0.0821 9.5928c-0.4004,-0.0422 -0.7195,-0.0817 -1.0793,-0.1197l0.0408 2.557c2.718,0.3998 5.4758,0.7997 8.2335,1.2404 0.7996,-0.1604 1.4388,-0.5998 2.1191,-1.0798l-0.1225 -12.0301z"/>
   <path class="fil2" d="M114.6855 33.7177l-0.0412 -2.6386 0.919 0.1196 -0.0819 -9.6322c-0.3192,-0.0408 -0.5996,-0.0408 -0.9588,-0.0817l0 1.7178c-0.8788,-0.0408 -1.6389,-0.0817 -2.4381,-0.0817l-0.0406 -4.3959c3.3169,0.2395 6.7143,0.5196 10.1123,0.7998 0.0406,1.4375 0,2.916 0.0406,4.3958 -0.8392,-0.0817 -1.5987,-0.1604 -2.438,-0.1999l0 -1.7981c-0.3192,-0.0408 -0.7591,-0.0408 -1.0792,-0.0408l0.1199 9.6716 0.9982 0.1605 0 2.4782c-1.7188,-0.1605 -3.437,-0.3197 -5.1161,-0.4802l0.0039 0.0057z"/>
   <path class="fil2" d="M100.8721 31.5691l-0.0411 -2.8781c0.9999,0.0409 3.0777,0.1591 3.0777,0.1591l0 1.7995c1.199,0.0408 3.4771,0.1196 3.4771,0.1196l-0.0406 -3.4777c-1.6391,-0.1197 -5.1564,-0.359 -5.1564,-0.359 -0.4796,-0.4407 -0.9587,-0.8787 -1.3585,-1.3193l-0.0821 -6.0348c0.44,-0.4013 0.879,-0.7997 1.2788,-1.1194 5.9956,0.1591 6.835,0.2802 6.835,0.2802 0.5198,0.5195 1.039,0.9983 1.5585,1.5192l0.0414 2.8766c-1.0798,-0.0817 -2.1185,-0.1197 -3.1581,-0.1591l0 -1.7192c-1.159,-0.0817 -2.3176,-0.1197 -3.4773,-0.1591l0.0409 3.2779 5.236 0.3999c0.4399,0.4392 0.8788,0.8392 1.3188,1.3192l0.0412 6.115c-0.4399,0.3999 -0.8394,0.7997 -1.2793,1.1982 -2.2379,-0.1183 -4.5562,-0.2394 -6.8344,-0.3183 -0.5197,-0.5195 -0.9998,-1.0391 -1.479,-1.5192l0.0011 -0.0014z"/>
   <path class="fil2" d="M66.6965 32.4899l-0.082 -12.3511 1.1991 -1.2784 7.5542 -0.3605 1.2794 1.1588 0.0407 2.9582c-1.039,0.0408 -2.0784,0.0408 -3.0778,0.1197l0 -1.5587c-1.359,0.0817 -2.6378,0.1197 -3.9568,0.1986l0.1194 9.5533c1.2794,-0.0817 2.5981,-0.159 3.9171,-0.1999l0 -2.5176c-0.8789,0.0408 -1.7188,0.0817 -2.5179,0.1197l-0.0406 -2.678c1.359,-0.0817 2.678,-0.1986 4.0767,-0.2394 0.4801,0.4407 0.9998,0.8786 1.5191,1.3587l0.0405 5.1168c-0.4796,0.4392 -0.8789,0.8391 -1.3187,1.3192 -2.4784,0.1197 -4.9166,0.2788 -7.3549,0.4393 -0.4795,-0.3999 -0.9585,-0.7984 -1.3984,-1.1588l0.0009 0z"/>
   <path class="fil2" d="M90.4353 33.0011l0 -2.6373 1.039 0 -0.1201 -9.5928 -0.998 0.0408 -0.0412 -2.7188c0,0 4.7964,0.0408 5.1964,0.0408l0 2.6386 -0.999 0 0.1195 9.5929c0.9189,0 0.8392,0.0408 1.799,0.0817l0 -1.9586c0.9185,0 1.998,0.0409 2.9573,0.0818l0.0413 4.5563c-1.8388,-0.0408 -8.9931,-0.1197 -8.9931,-0.1197l-0.0012 -0.0056z"/>
   <g>
    <path class="fil2" d="M82.2495 30.4426l-0.0819 -9.5928 3.2374 0 0.0822 9.5533c0,0 -2.7578,0.0408 -3.2377,0.0408l0 -0.0014zm6.1954 -10.9895l0 0c-0.5197,-0.4802 -1.5191,-1.3602 -1.5191,-1.3602l-6.395 0.2c-0.5994,0.5603 -0.9586,0.9589 -1.4386,1.4389 0,4.0762 0.0407,8.1933 0.0815,12.3511 0.3194,0.2787 0.6797,0.6392 1.0796,0.9589 0.9586,0 6.7145,-0.0408 6.7145,-0.0408l1.5989 -1.3996 -0.1216 -12.1483z"/>
   </g>
   <path class="fil2" d="M126.0433 29.2148l0.92 -4.476 0.9984 4.6366 -1.9184 -0.1605zm5.9552 3.9974l0 0 -0.6792 -0.1197 -2.6778 -9.9124 0.8394 0.0817 -0.0412 -2.837c-1.5187,-0.1605 -3.5175,-0.4407 -4.9963,-0.5999l0 2.7977 0.5995 0.1197c0,0 -1.3987,6.2347 -2.1182,9.3929l-0.9201 -0.1197 0.0413 2.5569c1.3188,0.1211 2.9179,0.3197 4.2763,0.4801l0 -2.5175 -0.7591 -0.0817 0.2394 -1.0391 2.3986 0.2394 0.1594 1.1194 -0.6798 -0.0817 0 2.5569c1.3993,0.1605 2.9579,0.3605 4.3171,0.521l0.0009 -2.557z"/>
   <polygon class="fil0" points="70.2776,42.6192 70.1182,50.8533 81.2691,45.5774 81.3888,42.2193 "/>
   <polygon class="fil1" points="34.8745,126.4209 38.7915,124.4227 40.0302,126.8609 44.627,124.5025 42.1085,119.6664 35.5142,123.0638 32.676,122.1848 28.4796,114.0711 29.4381,111.353 38.2311,106.8765 41.029,107.7159 43.1074,111.7523 39.0704,113.8708 37.8714,111.5125 33.3549,113.8708 35.7131,118.3876 42.3082,114.9902 45.1062,115.8691 49.3831,124.1428 48.4238,127.0204 40.0702,131.2571 36.8329,130.2182 "/>
   <polygon class="fil1" points="57.5896,113.5289 61.5067,111.4899 64.2249,116.726 63.3461,119.4843 55.0322,123.6807 52.1543,122.7618 43.681,106.3341 44.4803,103.6964 52.9537,99.3392 55.7115,100.2187 57.71,104.0958 53.7929,106.0938 52.7539,104.0556 48.5167,106.2138 55.2319,119.2037 59.4287,117.0455 "/>
   <polygon class="fil1" points="68.5385,106.3662 71.0163,111.2023 72.0163,110.7221 73.7746,114.1596 67.5794,117.3172 65.821,113.8402 67.2196,113.1603 60.4248,100.0509 59.0262,100.7703 57.2273,97.1734 63.5027,94.0153 65.3011,97.5331 64.2622,98.0924 66.5404,102.4892 70.9767,100.211 68.6986,95.8142 67.5397,96.4138 65.7406,92.8966 72.136,89.6988 73.9749,93.1766 72.6559,93.8558 79.3703,106.9254 80.6893,106.2456 82.4885,109.7233 76.1731,112.9607 74.3346,109.4834 75.4538,108.9237 72.9755,104.0874 "/>
   <path class="fil1" d="M88.5934 96.2361l-4.1966 -5.5154 1.8381 6.7947 2.3586 -1.2793zm1.9182 9.433l0 0 -5.6754 2.8375 -1.8386 -3.5174 1.1193 -0.5597 -3.5574 -14.7087 -0.9994 0.5202 -1.8789 -3.5573 7.2349 -3.5976 1.8381 3.5172 -0.9982 0.5204 9.9119 11.4708 0.999 -0.5197 1.7984 3.5172 -5.3961 2.718 -1.7984 -3.4775 0.9189 -0.4796 -1.1193 -1.3993 -3.9566 2.0784 0.44 1.6792 1.1588 -0.5599 1.7989 3.5178z"/>
   <polygon class="fil1" points="106.8066,97.2592 100.7313,100.3369 98.8926,96.8197 100.2913,96.1005 93.577,83.0311 92.138,83.75 90.2994,80.2326 95.8149,77.3953 105.5676,86.4681 101.4909,79.0337 100.491,79.5139 98.6522,75.9965 104.9278,72.8385 106.7264,76.3563 105.3271,77.0751 112.0824,90.145 113.4415,89.3859 115.28,92.9428 110.1237,95.6207 99.4514,85.6684 104.0478,94.182 105.0065,93.742 "/>
   <polygon class="fil1" points="129.5219,85.9016 117.8113,91.9368 116.0528,88.4596 116.3717,71.552 112.8547,73.3109 114.2934,76.0686 110.6166,77.9475 107.4189,71.7121 119.2092,65.7566 121.048,69.3537 121.0074,85.8214 123.8849,84.3429 122.3664,81.3448 126.163,79.3863 "/>
   <polygon class="fil1" points="144.9733,78.0228 132.0227,84.5381 130.2244,81.0209 131.4232,80.4207 124.6686,67.3115 123.3893,67.9907 121.5907,64.4733 134.5407,57.8387 137.5382,63.5944 133.6612,65.5927 132.4622,63.3145 128.5853,65.3126 131.0637,70.0295 134.0612,68.4703 135.8596,72.0278 132.8621,73.5864 135.3399,78.383 139.2971,76.3843 137.8979,73.7064 141.7349,71.7479 "/>
   <path class="fil1" d="M147.6331 55.6151l-3.1975 1.5581 2.319 4.6767 3.1566 -1.6792 -2.2781 -4.5556zm6.0362 17.9058l0 0 -6.2755 3.1972 -1.7585 -3.5574 1.3586 -0.7189 -6.5949 -13.2304 -1.1594 0.5594 -1.7585 -3.4771 10.6322 -5.3955 2.9977 1.2785 3.7567 7.5143 -1.039 3.1575 -1.1982 0.6794 5.5953 3.1977 0.9589 -0.5198 1.8388 3.5574 -5.5954 2.8374 -1.7993 -3.4369 0.5998 -0.3197 -5.276 -3.1972 -0.1999 0.1194 2.3189 4.5965 0.7983 -0.3999 1.7995 3.5579z"/>
   <g>
    <path class="fil0" d="M100.6675 116.1891l-0.3602 -0.2805c1.1188,0.2393 2.558,0.5199 3.6768,0.5199 -0.759,-0.3592 -1.9983,-0.6794 -2.3177,-1.1991 -0.0821,-0.0819 -0.16,-0.2392 -0.12,-0.2804 0.2392,0.1997 0.4797,0.2392 0.759,0.4003 1.5592,0.7189 4.0773,1.3189 4.0773,1.4388 -1.5588,-0.082 -4.3171,0.3603 -5.7158,-0.5996l0.0006 0.0006zm5.1552 -0.0826l0 0c-1.0791,-0.5196 -2.278,-1.0393 -3.0772,-2.0382 -0.6798,-2.0785 -0.9999,-2.2386 -3.2776,-2.7181 0.7195,1 1.6385,2.1582 1.7188,3.5174 -0.3601,-0.2394 -0.8392,-0.3999 -0.9998,-0.9192 -0.4801,-1.5185 -1.2794,-1.9585 -2.7978,-1.9585 0.5597,0.7992 1.079,1.4791 1.079,2.4785 -0.0818,0.0412 -0.2794,-0.0407 -0.4399,-0.12 -0.2392,-0.1194 -0.3591,-0.3597 -0.4398,-0.5996 -0.5996,-1.5185 -1.039,-1.5988 -2.6781,-1.7182 0.7992,1.0791 1.2391,2.1181 0.9988,2.3177 -0.8387,0.7194 -2.5581,1.4394 -2.5975,2.9178 2.558,-0.7189 3.3974,-0.8388 5.595,-0.7991 1.9191,0.082 2.9178,0.8789 4.8369,0.9592 1.7188,0.0408 3.9968,-0.44 4.3163,-0.5197 -0.7193,-0.2398 -1.5185,-0.5203 -2.2381,-0.7992l0.0012 -0.0006z"/>
   </g>
   <path class="fil0" d="M114.2763 115.1657c2.2381,-2.6781 3.1971,-0.5199 3.1971,-0.5199 0,0 -2.3177,0.2394 -3.1971,0.5199zm20.265 8.6333l0 0c0.759,-0.0406 0.759,-1.8386 -1.3991,-1.5185 -1.1195,0.1595 -3.2376,1.3987 -3.3178,0.8789 -0.1594,-1.479 4.7566,-2.1187 5.1161,-2.5982 1.359,-1.6786 -4.1966,-0.7991 -5.9554,0.7591 -1.7984,1.5988 -2.0785,3.9572 -1.3987,6.0357l0.1194 0.5594c-1.6787,1.0394 -3.7169,2.718 -3.8771,3.6372 -0.1594,0.799 0.1595,1.3992 0.8394,0.9998 0.6391,-0.3189 1.6385,-2.0784 3.597,-2.0784 -0.0406,0.0407 -2.9976,1.9988 -2.5179,3.597 0.1193,0.44 0.5996,0.7992 1.1193,0.0412 0.5592,-0.7595 2.558,-2.2786 4.1168,-1.5586 1.6784,0.7591 2.118,2.9178 1.239,4.5161 -0.7193,1.3194 -1.919,1.5191 -3.3577,1.7589 -3.8769,0.6793 -4.3967,-4.2769 -7.3145,-6.7947 -0.9587,-0.8394 -0.5593,-0.2795 -2.5179,-2.0785 -0.0406,-0.082 -0.2795,-0.2392 -0.44,-0.4399 -0.7194,-0.919 2.8777,0.7589 3.0377,0.5197 0.6792,-1.1193 0.1595,-2.1181 0.1997,-3.1174 0,0 0.3601,0.082 0.5996,0.1192 0.9987,0.1601 1.5587,0.1997 2.5177,0.1601 -0.0406,-0.919 -1.1192,-2.838 -1.1192,-2.838 0,0 2.0785,-0.2794 2.7583,-0.3603 -0.3603,-1.3188 -1.6791,-2.558 -1.6791,-2.558 0,0 0.5199,-0.3999 2.8782,-0.759 -0.9988,-1.479 -2.5184,-2.4382 -2.5184,-2.4382 0.7991,-0.0412 2.1587,-0.44 2.9184,-0.1997 0,0 -0.56,-1.2392 -0.7196,-1.4388 -0.9189,-1.3992 -1.9584,-0.8394 -3.3175,-0.7194 0.7193,-0.7595 2.1187,-2.1187 2.1187,-3.4776 -1.7992,0.6798 -4.6769,0.5202 -6.6353,0.919 -1.5989,-0.3602 -2.6379,-0.6397 -4.3567,-0.5197 -2.2385,0.1198 -3.757,1.2392 -5.4758,1.7584 -0.6395,-0.1195 -1.1193,-0.3999 -1.7985,-0.1992 -0.4801,0.1595 -0.7992,0.2392 -1.0395,0.6391 -0.2392,0.3603 -0.1992,0.6397 -0.1992,1.0797 1.9581,0.1991 3.8369,-0.5202 5.7552,-0.0412 0.1601,0.1595 0.1601,0.1595 0.1601,0.8789 -0.5201,1.0395 -1.9585,1.0791 -2.9981,1.1192l-1.3986 0c-0.3195,0 -0.6,0 -0.8789,0.0413 0.2789,0.879 0.9588,1.7985 2.0383,2.118 0.6792,0.2394 1.7984,0 1.7984,0 0.3192,-0.0406 10.3121,-2.8775 7.9141,0.7591 -2.798,1.7188 -6.3554,2.5981 -8.9133,4.6366 -2.518,-0.8788 -3.7171,-0.9185 -6.0354,-2.2781 0,0 -0.0819,-0.2794 -0.1595,-0.44 -0.7989,-2.1582 0.0816,-4.4764 -3.3577,-4.796 -0.2799,0 0.7595,0.7188 0.8395,0.9993 0.1996,0.6792 0.0406,0.8789 -0.2806,0.9587 -0.6395,0.16 -1.5185,-1.0791 -2.5977,-1.1192 -1.1593,-0.0407 -1.8787,0.2398 -2.718,0.9592 0.9587,-0.3603 3.4771,1.5185 3.2373,1.479 -0.8387,-0.082 -2.1179,-0.2398 -3.1575,0.0814 -0.6792,0.1997 -1.4388,1.0797 -1.7583,2.0785 0.7989,-0.7195 1.6383,-0.9186 2.6778,-0.7195 1.3189,0.3196 2.1582,0.9593 2.3981,2.5983 -0.4802,0.6396 -1.4789,0.9987 -2.7576,1.6389 -0.6002,0.2799 1.8386,0.8789 2.9975,0.6792 0.8788,-0.1198 0.919,-1.1193 2.0382,-0.9999 2.5581,0.9999 5.1959,1.8789 7.5545,3.2775 -0.0408,0.0412 -0.0408,0.1601 -0.0408,0.2398 -1.8788,1.4388 -3.7174,2.8777 -5.5556,4.3165 -1.1995,0.2793 -1.1593,-1.8783 -2.3586,-2.3981 -1.5191,-0.6396 -2.8378,-0.4801 -4.1969,0.3998 1.1192,-0.1991 3.4776,0.7992 3.0778,1.9988 -0.7195,0 -3.4771,-0.0411 -4.1965,1.1589l1.7985 0.1198c0.6395,0.0408 1.0791,0.12 1.6385,0.5599 1.7187,1.2788 -2.638,1.039 -0.7195,4.1966l0.3195 0.3998c0.319,-0.4797 0.4797,-1.7183 1.3591,-2.1978 0.9195,-0.4802 1.6385,-0.919 2.638,0.0406 0.8788,0.8388 0.7193,1.7585 -0.3192,3.0779 3.8368,0.6391 3.2776,-2.6384 2.9976,-3.5976 1.8388,-1.9184 4.157,-3.0778 6.5148,-4.1965 1.5593,0.3603 4.2769,2.4779 4.2769,4.1167 -2.2781,1.319 -6.675,0.4399 -6.675,4.2367 0.44,1.8386 1.9585,3.6773 1.9585,5.4758 -0.1997,0.3604 -0.8393,1.1588 -0.8393,1.1588 -0.6792,0.879 -1.7985,2.1187 -2.1983,2.1985 -0.3999,0.0412 -0.7986,0.0412 -0.9185,-0.3598 -0.9201,-3.1977 -2.8776,-3.1977 -4.4764,-2.1187 -0.2805,0.1595 -0.6001,0.5199 -0.6001,0.5199 2.2386,-0.3999 2.4784,0.6395 2.2386,1.6784 -0.2394,1.1595 -1.9982,-0.5197 -2.958,0.12 -0.7189,0.4796 -1.0389,0.9994 -1.1989,1.8387 1.2792,-0.6794 3.7973,-0.9192 3.6773,0.7589 -0.9587,0.7195 -2.5982,3.6372 -0.5198,4.157 0.1998,-0.5198 0.1998,-1.2787 0.6792,-1.8386 0.9594,-1.1588 2.9981,-1.1991 3.8374,-0.3999 0,0.9994 0,2.2781 -1.0394,2.7176 1.4388,0.4004 2.8782,-0.3593 3.3974,-1.7189 0.1997,-0.6391 0.082,-1.1589 0.082,-1.7182 1.9986,-2.1983 4.7563,-3.8374 6.2353,-6.435 -0.0407,-0.3197 -2.1186,-2.9185 -0.3999,-4.317 1.6787,-0.8394 3.3172,-1.7188 5.036,-2.518 -0.2794,1.1588 -0.7195,2.1582 -0.5197,3.5574 0.3602,2.4376 2.5982,3.3171 4.0765,4.8362 -0.2392,1.2787 -1.1588,2.9975 -2.278,3.6767 -1.6786,0.1997 -1.4389,-2.1181 -2.8375,-2.4375 -0.8789,-0.1997 -1.4393,-0.2805 -2.3183,0.1193 0.879,0.4399 0.9588,0.2794 1.5588,0.9587 1.0389,1.0792 -2.2387,0.5197 -3.1181,1.599 -0.2789,0.4003 -0.5198,0.7595 -0.6793,1.2792 1.0793,-0.9586 3.597,-1.1989 3.597,0.6793 -0.2788,0.4801 -2.6778,1.3991 -1.5587,3.3571 0.44,-0.3597 0.6398,-0.7189 1.199,-1.039 1.3992,-0.7589 4.3566,-1.1192 4.0371,0.2795 -0.1595,0.6792 -0.5198,0.7991 -1.0388,1.0791 0.8788,0.7992 2.5178,0.4796 3.0376,-0.6396 0.1997,-0.5197 0,-1.039 0,-1.479 3.1977,-2.7578 7.1543,-7.8739 4.7564,-12.27 -0.7193,0 -1.8386,0.6791 -1.9585,0.6791 -0.1996,-0.5995 -0.44,-1.0389 -0.5598,-1.7584 -0.1998,-1.2792 0.2392,-2.1588 0.3591,-3.2379 2.8379,0.2393 5.6757,-0.5995 6.875,-3.3176 0.8389,-1.8382 0.5594,-3.1175 -0.1996,-5.1959 -1.0395,-2.8375 -5.0766,-4.2366 -4.4368,-6.4351 0.5597,-1.7584 3.8374,-2.0784 4.836,-2.1582l0.0012 0.0005z"/>
  </g>
 </g>
</svg>
