<?xml version="1.0" encoding="UTF-8"?>
<!DOCTYPE svg PUBLIC "-//W3C//DTD SVG 1.1//EN" "http://www.w3.org/Graphics/SVG/1.1/DTD/svg11.dtd">
<!-- Creator: CorelDRAW 2019 (64-Bit) -->
<svg xmlns="http://www.w3.org/2000/svg" xml:space="preserve" width="185.798mm" height="185.798mm" version="1.1" style="shape-rendering:geometricPrecision; text-rendering:geometricPrecision; image-rendering:optimizeQuality; fill-rule:evenodd; clip-rule:evenodd"
viewBox="0 0 185.7978 185.7978"
 xmlns:xlink="http://www.w3.org/1999/xlink"
 xmlns:xodm="http://www.corel.com/coreldraw/odm/2003">
 <defs>
  <style type="text/css">
   <![CDATA[
    .fil1 {fill:#00239C}
    .fil0 {fill:black}
    .fil2 {fill:white}
   ]]>
  </style>
 </defs>
 <g id="Layer_x0020_1">
  <metadata id="CorelCorpID_0Corel-Layer"/>
  <g id="_745236288">
   <path class="fil0" d="M185.7978 92.8989c0,24.6384 -9.7879,48.2674 -27.209,65.6894 -17.4224,17.4222 -41.0515,27.2095 -65.6899,27.2095 -24.6384,0 -48.2675,-9.7873 -65.6895,-27.2095 -17.4221,-17.422 -27.2095,-41.051 -27.2095,-65.6894 0,-24.6385 9.7874,-48.2675 27.2095,-65.6899 17.422,-17.4212 41.0511,-27.2091 65.6895,-27.2091 24.6384,0 48.2675,9.7879 65.6899,27.2091 17.4211,17.4224 27.209,41.0514 27.209,65.6899z"/>
   <path class="fil1" d="M172.5263 92.8989c0,21.1184 -8.3893,41.372 -23.3216,56.3053 -14.9336,14.9328 -35.1873,23.3226 -56.3058,23.3226 -21.1185,0 -41.372,-8.3898 -56.3054,-23.3226 -14.9328,-14.9333 -23.3226,-35.1869 -23.3226,-56.3053 0,-21.1185 8.3898,-41.3723 23.3226,-56.3058 14.9334,-14.9323 35.1869,-23.3216 56.3054,-23.3216 21.1185,0 41.3722,8.3893 56.3058,23.3216 14.9323,14.9335 23.3216,35.1873 23.3216,56.3058z"/>
   <path class="fil2" d="M142.7108 49.0597l-6.2823 13.4481c6.0164,8.626 9.5556,19.0882 9.5556,30.3912 0,9.4667 -2.4773,18.3362 -6.8126,26.0336l1.7252 19.7963c11.3684,-11.8996 18.3592,-28.0465 18.3592,-45.8078 0,-16.8323 -6.2385,-32.1608 -16.5451,-43.8614zm-43.088 96.5041l0 0 0 -105.3295c5.5738,0.7071 10.8827,2.2773 15.771,4.5778l5.6183 -12.0317c-8.538,-4.0037 -18.0714,-6.2384 -28.1132,-6.2384 -10.0418,0 -19.5752,2.2347 -28.1132,6.2384l5.6182 12.0317c4.955,-2.3224 10.3298,-3.8927 15.9701,-4.5997l0 105.3736c-5.2644,-0.6417 -10.3075,-2.0792 -14.9746,-4.1365l-1.2168 13.8245c7.0785,2.5653 14.7313,3.9811 22.7163,3.9811 8.0072,0 15.7043,-1.4158 22.8044,-4.0255l-1.2167 -13.8245c-4.6228,2.0797 -9.6216,3.4948 -14.8638,4.1587zm-56.5356 -96.5041l0 0c-10.3069,11.7006 -16.5445,27.0291 -16.5445,43.8393 0,17.8055 7.0118,33.9741 18.425,45.8743l1.7253 -19.7521c-4.3801,-7.6972 -6.8793,-16.6111 -6.8793,-26.1222 0,-11.303 3.5392,-21.7652 9.5554,-30.3691l-6.2819 -13.4702zm84.6932 16.0799l0 0 6.9229 79.2963c-3.8706,3.1405 -8.0953,5.861 -12.6077,8.0732l-5.5295 -63.2818 -10.263 22.0079 0 -31.4081 20.4819 -43.972c3.9148,2.3225 7.5429,5.0205 10.8822,8.0732l-9.8868 21.2113zm-48.02 15.4173l0 0 0.0445 0 0 31.4082 -10.5511 -22.6275 -5.5294 63.1715c-4.5124,-2.2122 -8.7371,-4.9327 -12.6077,-8.0732l6.8786 -78.7649 0.0221 -0.376 -9.9309 -21.3009c3.3174,-3.0527 6.9674,-5.7726 10.8598,-8.0951l20.8141 44.6579z"/>
  </g>
 </g>
</svg>
