<?xml version="1.0" encoding="UTF-8" standalone="no"?>
<svg
   clip-rule="evenodd"
   fill-rule="evenodd"
   viewBox="0 0 200.03993 251.10255"
   version="1.1"
   id="svg101"
   sodipodi:docname="Ipswich.svg"
   width="200.03993"
   height="251.10255"
   xmlns:inkscape="http://www.inkscape.org/namespaces/inkscape"
   xmlns:sodipodi="http://sodipodi.sourceforge.net/DTD/sodipodi-0.dtd"
   xmlns="http://www.w3.org/2000/svg"
   xmlns:svg="http://www.w3.org/2000/svg">
  <defs
     id="defs101" />
  <sodipodi:namedview
     id="namedview101"
     pagecolor="#ffffff"
     bordercolor="#000000"
     borderopacity="0.25"
     inkscape:showpageshadow="2"
     inkscape:pageopacity="0.0"
     inkscape:pagecheckerboard="0"
     inkscape:deskcolor="#d1d1d1" />
  <g
     fill-rule="nonzero"
     stroke-width="0.04"
     id="g101"
     transform="translate(-179.98,-74.449182)">
    <path
       d="m 180,74.542 c 10.219,-0.041 20.439,-0.081 30.617,0 0.123,3.148 0,6.295 0.082,9.402 3.679,0.041 7.358,0 11.037,0.041 0.082,-3.148 0.041,-6.295 0,-9.402 10.424,-0.082 20.848,-0.204 31.271,0.041 -0.041,3.107 -0.081,6.213 0,9.361 3.679,-0.041 7.358,0 11.037,-0.041 -0.041,-3.147 -0.041,-6.254 0.041,-9.402 10.424,-0.081 20.889,-0.041 31.312,0 -0.081,3.107 0,6.255 -0.04,9.402 3.883,0 7.725,0.041 11.609,-0.041 -0.041,-3.066 -0.041,-6.172 0,-9.238 10.301,-0.327 20.725,-0.164 31.067,-0.082 0,3.148 -0.041,6.254 0.041,9.361 3.924,0 7.848,0.041 11.813,0 -0.122,-3.147 -0.082,-6.254 -0.041,-9.402 10.056,-0.041 20.071,-0.041 30.127,0 0.041,17.496 0.041,34.992 -0.041,52.487 -3.474,0.082 -7.112,-0.082 -10.342,1.472 -3.474,1.553 -5.886,5.232 -5.804,9.075 0.041,50.524 -0.041,101.09 0,151.615 -1.595,0.735 -3.148,1.635 -4.865,2.003 -0.204,0.122 -0.572,0.327 -0.736,0.408 -0.613,0.45 -1.349,0.736 -2.125,0.818 -0.164,0.122 -0.532,0.327 -0.736,0.409 -0.613,0.449 -1.349,0.776 -2.126,0.858 -0.163,0.082 -0.531,0.286 -0.735,0.368 -1.881,0.94 -3.802,1.921 -5.805,2.453 -0.204,0.122 -0.572,0.327 -0.736,0.408 -0.613,0.45 -1.349,0.736 -2.126,0.818 -0.163,0.123 -0.531,0.327 -0.735,0.409 -0.613,0.449 -1.349,0.776 -2.126,0.858 -0.163,0.082 -0.531,0.286 -0.736,0.368 -1.839,0.981 -3.801,1.88 -5.804,2.453 -0.205,0.122 -0.573,0.327 -0.736,0.408 -0.613,0.45 -1.349,0.736 -2.126,0.818 -0.163,0.123 -0.531,0.286 -0.736,0.409 -6.908,3.106 -13.857,6.295 -20.929,8.993 -0.204,0.122 -0.572,0.327 -0.736,0.409 -0.613,0.449 -1.349,0.735 -2.125,0.817 -0.164,0.123 -0.532,0.327 -0.736,0.409 -0.613,0.45 -1.349,0.777 -2.126,0.858 -0.163,0.082 -0.531,0.287 -0.736,0.368 -0.899,0.573 -1.88,1.022 -2.943,1.227 -0.204,0.122 -0.572,0.327 -0.736,0.408 -0.654,0.409 -1.389,0.736 -2.125,0.818 -0.205,0.123 -0.572,0.327 -0.736,0.409 -1.594,0.817 -3.229,1.635 -4.987,2.084 -0.164,0.082 -0.531,0.287 -0.736,0.368 -0.899,0.573 -1.88,1.022 -2.943,1.227 -0.204,0.122 -0.531,0.327 -0.736,0.408 -0.654,0.409 -1.39,0.736 -2.125,0.818 -0.205,0.123 -0.573,0.327 -0.736,0.409 -1.594,0.817 -3.189,1.594 -4.906,2.044 -2.003,-0.573 -3.883,-1.554 -5.722,-2.453 -0.205,-0.082 -0.573,-0.286 -0.736,-0.368 -0.777,-0.082 -1.513,-0.409 -2.126,-0.858 -0.204,-0.082 -0.572,-0.286 -0.736,-0.409 -2.943,-0.981 -5.845,-2.33 -8.666,-3.679 -0.163,-0.082 -0.531,-0.286 -0.736,-0.409 -2.003,-0.572 -3.924,-1.512 -5.804,-2.452 -0.205,-0.082 -0.572,-0.287 -0.736,-0.409 -0.777,-0.041 -1.472,-0.409 -2.126,-0.818 -0.163,-0.082 -0.531,-0.286 -0.735,-0.409 -5.151,-1.962 -10.179,-4.292 -15.207,-6.54 -0.163,-0.123 -0.531,-0.327 -0.736,-0.409 -1.062,-0.204 -2.043,-0.695 -2.943,-1.226 -0.204,-0.082 -0.572,-0.286 -0.736,-0.409 -0.776,-0.082 -1.471,-0.409 -2.125,-0.817 -0.205,-0.082 -0.532,-0.287 -0.736,-0.409 -2.003,-0.572 -3.924,-1.554 -5.805,-2.453 -0.204,-0.082 -0.572,-0.286 -0.735,-0.368 -0.777,-0.122 -1.513,-0.449 -2.126,-0.858 -0.164,-0.082 -0.531,-0.286 -0.736,-0.409 -5.15,-1.921 -10.178,-4.333 -15.206,-6.54 -0.205,-0.082 -0.532,-0.287 -0.736,-0.409 -2.003,-0.613 -3.924,-1.513 -5.805,-2.453 -0.163,-0.082 -0.531,-0.286 -0.736,-0.409 -0.286,-0.081 -0.858,-0.286 -1.144,-0.408 0.245,-18.763 0.041,-37.567 0.082,-56.33 -0.041,-4.006 0.163,-8.012 -0.082,-11.977 -0.123,-27.47 -0.082,-54.98 -0.041,-82.45 0.491,-4.415 -2.412,-8.462 -6.254,-10.342 -0.164,-0.082 -0.573,-0.245 -0.736,-0.368 -2.984,-0.695 -6.009,-0.613 -8.993,-0.654 0,-17.495 0,-34.991 -0.041,-52.487 m 3.761,3.475 c 0.081,15.043 0.081,30.127 0,45.17 3.474,0.368 7.112,0.858 9.974,3.065 3.352,2.453 6.172,6.214 6.295,10.506 0.041,49.993 0.082,99.987 0.082,149.939 26.529,11.527 53.018,23.137 79.588,34.419 26.857,-11.282 53.509,-23.178 80.366,-34.501 V 135.532 c 0.858,-7.644 8.788,-12.468 16.024,-12.264 -0.041,-15.083 0,-30.167 0,-45.251 -7.563,0.041 -15.125,0.041 -22.687,0 0,3.229 0.041,6.459 -0.041,9.688 -6.418,0 -12.836,0.082 -19.254,-0.041 0,-3.229 0.123,-6.459 -0.04,-9.688 -7.808,0.082 -15.575,0.082 -23.341,0 -0.205,3.229 -0.123,6.459 -0.082,9.688 -6.336,0.123 -12.713,0.082 -19.09,0 -0.082,-3.229 0.041,-6.459 -0.082,-9.647 -7.807,0.041 -15.656,0 -23.504,0 0.04,3.229 0.04,6.459 0,9.688 -6.296,0.041 -12.591,0.082 -18.886,-0.041 -0.041,-3.229 0.082,-6.459 -0.123,-9.647 -7.766,0 -15.533,0.041 -23.3,-0.041 -0.163,3.229 -0.081,6.459 -0.041,9.647 -6.377,0.205 -12.753,0.082 -19.13,0.082 -0.082,-3.229 0,-6.459 -0.041,-9.688 -7.563,0.041 -15.125,0 -22.687,0 z"
       fill="#de2c37"
       stroke="#de2c37"
       id="path1" />
    <path
       d="m 295.397,74.542 c 0.164,3.107 0.041,6.214 0.082,9.361 3.761,0.041 7.563,0.082 11.323,-0.041 0.123,-3.065 -0.204,-6.172 0.164,-9.197 -0.041,3.066 -0.041,6.172 0,9.238 -3.884,0.082 -7.726,0.041 -11.609,0.041 0.04,-3.147 -0.041,-6.295 0.04,-9.402 z"
       fill="#fefefe"
       stroke="#fefefe"
       id="path2" />
    <path
       d="m 183.761,78.017 c 7.562,0 15.124,0.041 22.687,0 0.041,3.229 -0.041,6.459 0.041,9.688 6.377,0 12.753,0.123 19.13,-0.082 -0.04,-3.188 -0.122,-6.418 0.041,-9.647 7.767,0.082 15.534,0.041 23.3,0.041 0.205,3.188 0.082,6.418 0.123,9.647 6.295,0.123 12.59,0.082 18.886,0.041 0.04,-3.229 0.04,-6.459 0,-9.688 7.848,0 15.697,0.041 23.504,0 0.123,3.188 0,6.418 0.082,9.647 6.377,0.082 12.754,0.123 19.09,0 -0.041,-3.229 -0.123,-6.459 0.082,-9.688 7.766,0.082 15.533,0.082 23.341,0 0.163,3.229 0.04,6.459 0.04,9.688 6.418,0.123 12.836,0.041 19.254,0.041 0.082,-3.229 0.041,-6.459 0.041,-9.688 7.562,0.041 15.124,0.041 22.687,0 0,15.084 -0.041,30.168 0,45.251 -7.236,-0.204 -15.166,4.62 -16.024,12.264 v 151.083 c -26.857,11.323 -53.509,23.219 -80.366,34.501 -26.57,-11.282 -53.059,-22.892 -79.588,-34.419 0,-49.952 -0.041,-99.946 -0.082,-149.939 -0.123,-4.292 -2.943,-8.053 -6.295,-10.506 -2.862,-2.207 -6.5,-2.697 -9.974,-3.065 0.081,-15.043 0.081,-30.127 0,-45.17 m 2.412,2.412 c -0.082,13.571 -0.041,27.142 -0.041,40.673 7.521,0.49 15.329,5.886 16.596,13.612 0.041,49.871 0,99.741 0.041,149.612 -0.082,0.613 0.122,1.226 0.776,1.349 25.426,11.037 50.73,22.237 76.155,33.234 25.917,-11.16 51.751,-22.524 77.627,-33.765 0.163,-49.462 0,-98.924 0.082,-148.427 0.286,-8.462 8.012,-15.206 16.269,-15.656 0.123,-13.53 0.082,-27.061 0,-40.632 -5.968,0.081 -11.895,0.041 -17.864,0 0,3.229 0.164,6.417 -0.081,9.606 -8.012,-0.082 -16.024,-0.041 -24.036,0 -0.041,-3.189 0.081,-6.377 -0.082,-9.606 -6.132,0.041 -12.304,0.041 -18.436,0 -0.163,3.188 -0.082,6.417 -0.082,9.606 -7.971,-0.041 -15.942,-0.082 -23.913,0 -0.123,-3.189 0.041,-6.377 -0.123,-9.606 -6.213,0.041 -12.467,0.041 -18.681,0 -0.081,3.229 0.123,6.417 -0.122,9.606 -7.89,-0.041 -15.738,-0.082 -23.628,0 -0.245,-3.189 -0.04,-6.377 -0.122,-9.606 -6.214,0.041 -12.427,0.041 -18.64,0 -0.082,3.229 0.122,6.417 -0.123,9.606 -7.848,-0.082 -15.738,-0.082 -23.627,0 -0.205,-3.189 -0.041,-6.377 -0.123,-9.606 -5.927,0.041 -11.895,0.041 -17.822,0 z"
       fill="#fefefe"
       stroke="#fefefe"
       id="path3" />
    <path
       d="m 186.173,80.429 c 5.927,0.041 11.895,0.041 17.822,0 0.082,3.229 -0.082,6.417 0.123,9.606 7.889,-0.082 15.779,-0.082 23.627,0 0.245,-3.189 0.041,-6.377 0.123,-9.606 6.213,0.041 12.426,0.041 18.64,0 0.082,3.229 -0.123,6.417 0.122,9.606 7.89,-0.082 15.738,-0.041 23.628,0 0.245,-3.189 0.041,-6.377 0.122,-9.606 6.214,0.041 12.468,0.041 18.681,0 0.164,3.229 0,6.417 0.123,9.606 7.971,-0.082 15.942,-0.041 23.913,0 0,-3.189 -0.081,-6.418 0.082,-9.606 6.132,0.041 12.304,0.041 18.436,0 0.163,3.229 0.041,6.417 0.082,9.606 8.012,-0.041 16.024,-0.082 24.036,0 0.245,-3.189 0.081,-6.377 0.081,-9.606 5.969,0.041 11.896,0.081 17.864,0 0.082,13.571 0.123,27.102 0,40.632 -8.257,0.45 -15.983,7.194 -16.269,15.656 -0.082,49.503 0.081,98.965 -0.082,148.427 -25.876,11.241 -51.71,22.605 -77.627,33.765 -25.425,-10.997 -50.729,-22.197 -76.155,-33.234 -0.654,-0.123 -0.858,-0.736 -0.776,-1.349 -0.041,-49.871 0,-99.741 -0.041,-149.612 -1.267,-7.726 -9.075,-13.122 -16.596,-13.612 0,-13.531 -0.041,-27.102 0.041,-40.673 m 13.857,15.043 c 0.041,8.012 0,16.024 0.041,23.995 53.345,-0.041 106.69,0 160.036,0 -0.082,-7.971 -0.082,-15.942 0,-23.954 -1.186,-0.041 -2.371,-0.082 -3.557,-0.082 -52.16,0.041 -104.36,-0.041 -156.52,0.041 m 9.852,29.104 c 0.04,36.259 0.04,72.476 0,108.694 46.6,0.163 93.2,0.082 139.842,0.041 0.041,-36.259 0.081,-72.517 -0.041,-108.735 -46.601,0.041 -93.201,0 -139.801,0 m -0.246,111.842 c 0,7.398 -0.122,14.879 0.082,22.278 v -0.327 c 46.723,0.163 93.446,0 140.169,0.082 0,-2.126 -0.041,-4.293 0.082,-6.459 -0.082,-5.192 0.164,-10.424 -0.164,-15.615 v 0.286 c -46.723,-0.082 -93.405,-0.123 -140.087,0.041 z m 0.246,27.061 c 0.04,6.908 0.04,13.857 0,20.765 46.6,0.082 93.2,0 139.801,0.041 0.122,-6.949 0.082,-13.898 0,-20.847 -46.601,-0.041 -93.201,-0.082 -139.801,0.041 m 15.41,25.916 c 17.659,7.767 35.564,15.043 53.305,22.646 1.144,0.736 2.33,-0.082 3.393,-0.49 17.618,-7.44 35.4,-14.553 52.936,-22.156 -36.545,-0.082 -73.089,-0.082 -109.634,0 z"
       fill="#de2c37"
       stroke="#de2c37"
       id="path4" />
    <path
       d="m 200.03,95.472 c 52.16,-0.082 104.36,0 156.52,-0.041 1.186,0 2.371,0.041 3.557,0.082 -0.082,8.012 -0.082,15.983 0,23.954 -53.346,0 -106.691,-0.041 -160.036,0 -0.041,-7.971 0,-15.983 -0.041,-23.995 m 2.534,2.493 c 0.041,6.377 0.041,12.754 -0.04,19.131 51.669,0.123 103.297,0.041 154.926,0.041 0.081,-6.418 0.081,-12.836 0,-19.254 -50.566,-0.081 -101.172,0 -151.738,-0.04 -1.063,0 -2.126,0.04 -3.148,0.122 z"
       fill="#fefefe"
       stroke="#fefefe"
       id="path5" />
    <path
       d="m 202.564,97.965 c 1.022,-0.082 2.085,-0.122 3.148,-0.122 50.566,0.04 101.172,-0.041 151.738,0.04 0.081,6.418 0.081,12.836 0,19.254 -51.629,0 -103.257,0.082 -154.926,-0.041 0.081,-6.377 0.081,-12.754 0.04,-19.131 m 24.323,5.6 c -1.39,1.022 -1.227,3.189 -0.041,4.293 1.308,1.226 3.27,1.226 4.701,2.248 0.531,0.409 0.041,1.226 -0.532,1.308 -1.717,0.49 -3.393,-0.45 -4.864,-1.186 -0.041,0.818 -0.041,1.636 -0.082,2.453 2.248,0.899 4.987,1.513 7.194,0.123 1.595,-0.818 1.84,-3.352 0.532,-4.538 -1.513,-1.43 -3.883,-1.349 -5.314,-2.902 1.758,-1.308 3.924,-0.409 5.682,0.286 v -2.289 c -2.289,-0.818 -5.192,-1.472 -7.276,0.204 m 35.686,0.941 c -2.003,1.798 -2.167,5.232 -0.205,7.071 2.535,2.617 6.745,2.494 9.852,0.981 v -2.37 c -2.044,0.817 -4.497,1.757 -6.581,0.572 -1.717,-0.859 -2.208,-3.434 -0.695,-4.701 1.921,-1.758 4.946,-1.267 7.031,-0.041 0.04,-0.899 0.04,-1.799 -0.041,-2.698 -3.066,-1.144 -6.909,-1.226 -9.361,1.186 m 46.723,-1.881 c -3.27,0.409 -6.214,3.72 -4.987,7.113 1.962,5.396 11.282,5.11 12.794,-0.531 0.941,-4.293 -3.965,-7.44 -7.807,-6.582 m -99.414,0.164 c 0.04,3.597 0.04,7.153 0,10.751 1.062,0.04 2.084,0.04 3.106,0 v -10.751 c -1.022,-0.041 -2.044,-0.041 -3.106,0 m 5.6,0 c -0.041,3.556 -0.082,7.112 0,10.669 h 2.943 c 0.082,-1.472 0.082,-2.903 0.082,-4.374 1.717,0.041 3.801,0.409 5.069,-1.063 1.675,-1.553 0.694,-4.701 -1.554,-5.11 -2.166,-0.368 -4.374,-0.122 -6.54,-0.122 m 19.703,0.041 c 1.676,3.392 3.147,6.867 4.823,10.26 0.205,0.736 1.431,0.736 1.717,0.041 1.145,-2.044 2.003,-4.17 3.229,-6.132 1.39,2.126 2.331,4.497 3.598,6.663 0.327,-0.041 0.981,-0.122 1.308,-0.163 1.512,-3.598 3.27,-7.113 4.864,-10.669 -1.022,0 -2.125,-0.327 -3.106,0.122 -0.982,1.717 -1.636,3.638 -2.576,5.355 -1.103,-1.758 -1.921,-3.679 -2.861,-5.559 -0.818,0 -1.635,0 -2.453,0.041 -0.899,1.839 -1.758,3.76 -2.82,5.518 -0.981,-1.758 -1.636,-3.638 -2.617,-5.396 -0.981,-0.368 -2.084,-0.122 -3.106,-0.081 m 20.806,-0.082 v 10.832 c 1.063,0.041 2.126,0 3.148,-0.081 -0.041,-3.557 -0.041,-7.113 0,-10.669 -1.022,-0.082 -2.085,-0.082 -3.148,-0.082 m 18.354,0 c -0.04,3.597 -0.081,7.153 0,10.71 0.982,0.041 1.922,0.041 2.862,0.041 0.041,-1.472 0.082,-2.944 0.123,-4.415 1.839,0.041 3.679,0.041 5.518,0 -0.041,1.471 0,2.943 0.041,4.374 0.94,0 1.921,0 2.861,-0.041 0,-3.556 -0.041,-7.072 0,-10.628 -0.94,-0.041 -1.921,-0.041 -2.861,-0.041 -0.041,1.39 -0.041,2.78 0,4.169 -1.88,0.164 -3.761,0.123 -5.6,0.041 0,-1.39 0,-2.82 -0.041,-4.21 z m 17.7,0.082 c 0,0.654 0.041,1.308 0.041,1.962 1.349,0 2.698,0 4.047,0.041 0.082,2.861 0.041,5.722 0,8.584 1.022,0.041 2.044,0 3.066,0 -0.082,-2.862 -0.082,-5.723 0,-8.584 1.349,-0.041 2.739,-0.041 4.088,-0.082 v -1.881 c -3.72,-0.245 -7.481,-0.163 -11.242,-0.04 m 25.549,-0.041 c 1.512,3.679 3.27,7.235 4.946,10.832 0.327,-0.041 0.981,-0.081 1.308,-0.081 1.104,-2.249 2.208,-4.497 3.393,-6.664 1.308,2.167 2.289,4.497 3.475,6.704 0.327,0 0.981,-0.04 1.308,-0.04 1.717,-3.557 3.393,-7.113 4.987,-10.71 -1.063,0 -2.208,-0.368 -3.148,0.163 -0.899,1.758 -1.512,3.638 -2.575,5.314 -1.022,-1.717 -1.717,-3.597 -2.698,-5.314 -0.858,-0.409 -2.453,-0.613 -2.861,0.532 -0.859,1.594 -1.472,3.311 -2.576,4.782 -0.858,-1.839 -1.676,-3.72 -2.575,-5.559 -0.981,0 -1.962,0 -2.984,0.041 m 20.643,0.041 c 0.082,3.515 0.041,7.031 0.041,10.587 0.94,0 1.88,0.041 2.821,0.082 0.081,-2.208 0.081,-4.374 0.04,-6.541 1.963,1.921 3.802,3.965 5.723,5.927 0.736,0.9 2.044,0.491 3.025,0.532 -0.082,-3.556 -0.082,-7.072 0,-10.587 -0.94,-0.041 -1.88,-0.082 -2.861,-0.082 -0.041,2.044 -0.041,4.128 0,6.172 -1.84,-1.798 -3.597,-3.638 -5.355,-5.477 -0.818,-1.104 -2.289,-0.613 -3.434,-0.613 z"
       fill="#3a64a3"
       stroke="#3a64a3"
       id="path6" />
    <path
       d="m 226.887,103.565 c 2.084,-1.676 4.987,-1.022 7.276,-0.204 v 2.289 c -1.758,-0.695 -3.924,-1.594 -5.682,-0.286 1.431,1.553 3.801,1.472 5.314,2.902 1.308,1.186 1.063,3.72 -0.532,4.538 -2.207,1.39 -4.946,0.776 -7.194,-0.123 0.041,-0.817 0.041,-1.635 0.082,-2.453 1.471,0.736 3.147,1.676 4.864,1.186 0.573,-0.082 1.063,-0.899 0.532,-1.308 -1.431,-1.022 -3.393,-1.022 -4.701,-2.248 -1.186,-1.104 -1.349,-3.271 0.041,-4.293 z"
       fill="#fefefe"
       stroke="#fefefe"
       id="path7" />
    <path
       d="m 262.573,104.506 c 2.452,-2.412 6.295,-2.33 9.361,-1.186 0.081,0.899 0.081,1.799 0.041,2.698 -2.085,-1.226 -5.11,-1.717 -7.031,0.041 -1.513,1.267 -1.022,3.842 0.695,4.701 2.084,1.185 4.537,0.245 6.581,-0.572 v 2.37 c -3.107,1.513 -7.317,1.636 -9.852,-0.981 -1.962,-1.839 -1.798,-5.273 0.205,-7.071 z"
       fill="#fefefe"
       stroke="#fefefe"
       id="path8" />
    <path
       d="m 309.296,102.625 c 3.842,-0.858 8.748,2.289 7.807,6.582 -1.512,5.641 -10.832,5.927 -12.794,0.531 -1.227,-3.393 1.717,-6.704 4.987,-7.113 m 0.368,2.412 c -2.208,0.204 -3.23,2.943 -2.167,4.742 1.022,1.717 3.475,2.003 5.11,1.063 1.676,-0.941 2.085,-3.516 0.736,-4.865 -0.94,-0.981 -2.412,-1.144 -3.679,-0.94 z"
       fill="#fefefe"
       stroke="#fefefe"
       id="path9" />
    <path
       d="m 209.882,102.789 c 1.062,-0.041 2.084,-0.041 3.106,0 v 10.751 c -1.022,0.04 -2.044,0.04 -3.106,0 0.04,-3.598 0.04,-7.154 0,-10.751 z"
       fill="#fefefe"
       stroke="#fefefe"
       id="path10" />
    <path
       d="m 215.482,102.789 c 2.166,0 4.374,-0.246 6.54,0.122 2.248,0.409 3.229,3.557 1.554,5.11 -1.268,1.472 -3.352,1.104 -5.069,1.063 0,1.471 0,2.902 -0.082,4.374 h -2.943 c -0.082,-3.557 -0.041,-7.113 0,-10.669 m 2.984,2.003 c 0,0.817 0.041,1.635 0.041,2.493 1.39,0 3.27,-0.163 2.943,-2.044 -0.981,-0.408 -1.962,-0.531 -2.984,-0.449 z"
       fill="#fefefe"
       stroke="#fefefe"
       id="path11" />
    <path
       d="m 235.185,102.83 c 1.022,-0.041 2.125,-0.287 3.106,0.081 0.981,1.758 1.636,3.638 2.617,5.396 1.062,-1.758 1.921,-3.679 2.82,-5.518 0.818,-0.041 1.635,-0.041 2.453,-0.041 0.94,1.88 1.758,3.801 2.861,5.559 0.94,-1.717 1.594,-3.638 2.576,-5.355 0.981,-0.449 2.084,-0.122 3.106,-0.122 -1.594,3.556 -3.352,7.071 -4.864,10.669 -0.327,0.041 -0.981,0.122 -1.308,0.163 -1.267,-2.166 -2.208,-4.537 -3.598,-6.663 -1.226,1.962 -2.084,4.088 -3.229,6.132 -0.286,0.695 -1.512,0.695 -1.717,-0.041 -1.676,-3.393 -3.147,-6.868 -4.823,-10.26 z"
       fill="#fefefe"
       stroke="#fefefe"
       id="path12" />
    <path
       d="m 255.991,102.748 c 1.063,0 2.126,0 3.148,0.082 -0.041,3.556 -0.041,7.112 0,10.669 -1.022,0.081 -2.085,0.122 -3.148,0.081 z"
       fill="#fefefe"
       stroke="#fefefe"
       id="path13" />
    <path
       d="m 274.345,102.748 h 2.903 c 0.041,1.39 0.041,2.82 0.041,4.21 1.839,0.082 3.72,0.123 5.6,-0.041 -0.041,-1.389 -0.041,-2.779 0,-4.169 0.94,0 1.921,0 2.861,0.041 -0.041,3.556 0,7.072 0,10.628 -0.94,0.041 -1.921,0.041 -2.861,0.041 -0.041,-1.431 -0.082,-2.903 -0.041,-4.374 -1.839,0.041 -3.679,0.041 -5.518,0 -0.041,1.471 -0.082,2.943 -0.123,4.415 -0.94,0 -1.88,0 -2.862,-0.041 -0.081,-3.557 -0.04,-7.113 0,-10.71 z"
       fill="#fefefe"
       stroke="#fefefe"
       id="path14" />
    <path
       d="m 292.045,102.83 c 3.761,-0.123 7.522,-0.205 11.242,0.04 v 1.881 c -1.349,0.041 -2.739,0.041 -4.088,0.082 -0.082,2.861 -0.082,5.722 0,8.584 -1.022,0 -2.044,0.041 -3.066,0 0.041,-2.862 0.082,-5.723 0,-8.584 -1.349,-0.041 -2.698,-0.041 -4.047,-0.041 0,-0.654 -0.041,-1.308 -0.041,-1.962 z"
       fill="#fefefe"
       stroke="#fefefe"
       id="path15" />
    <path
       d="m 317.594,102.789 c 1.022,-0.041 2.003,-0.041 2.984,-0.041 0.899,1.839 1.717,3.72 2.575,5.559 1.104,-1.471 1.717,-3.188 2.576,-4.782 0.408,-1.145 2.003,-0.941 2.861,-0.532 0.981,1.717 1.676,3.597 2.698,5.314 1.063,-1.676 1.676,-3.556 2.575,-5.314 0.94,-0.531 2.085,-0.163 3.148,-0.163 -1.594,3.597 -3.27,7.153 -4.987,10.71 -0.327,0 -0.981,0.04 -1.308,0.04 -1.186,-2.207 -2.167,-4.537 -3.475,-6.704 -1.185,2.167 -2.289,4.415 -3.393,6.664 -0.327,0 -0.981,0.04 -1.308,0.081 -1.676,-3.597 -3.434,-7.153 -4.946,-10.832 z"
       fill="#fefefe"
       stroke="#fefefe"
       id="path16" />
    <path
       d="m 338.237,102.83 c 1.145,0 2.616,-0.491 3.434,0.613 1.758,1.839 3.515,3.679 5.355,5.477 -0.041,-2.044 -0.041,-4.128 0,-6.172 0.981,0 1.921,0.041 2.861,0.082 -0.082,3.515 -0.082,7.031 0,10.587 -0.981,-0.041 -2.289,0.368 -3.025,-0.532 -1.921,-1.962 -3.76,-4.006 -5.723,-5.927 0.041,2.167 0.041,4.333 -0.04,6.541 -0.941,-0.041 -1.881,-0.082 -2.821,-0.082 0,-3.556 0.041,-7.072 -0.041,-10.587 z"
       fill="#fefefe"
       stroke="#fefefe"
       id="path17" />
    <path
       d="m 218.466,104.792 c 1.022,-0.082 2.003,0.041 2.984,0.449 0.327,1.881 -1.553,2.044 -2.943,2.044 0,-0.858 -0.041,-1.676 -0.041,-2.493 z"
       fill="#3a64a3"
       stroke="#3a64a3"
       id="path18" />
    <path
       d="m 309.664,105.037 c 1.267,-0.204 2.739,-0.041 3.679,0.94 1.349,1.349 0.94,3.924 -0.736,4.865 -1.635,0.94 -4.088,0.654 -5.11,-1.063 -1.063,-1.799 -0.041,-4.538 2.167,-4.742 z"
       fill="#3a64a3"
       stroke="#3a64a3"
       id="path19" />
    <path
       d="m 209.882,124.576 c 46.6,0 93.2,0.041 139.801,0 0.122,36.218 0.082,72.476 0.041,108.735 -46.642,0.041 -93.242,0.122 -139.842,-0.041 0.04,-36.218 0.04,-72.435 0,-108.694 m 3.147,2.78 c -0.082,33.111 0,66.222 -0.041,99.333 -0.041,1.308 0,2.657 0.123,3.965 44.556,-0.041 89.113,-0.041 133.629,0 0.081,-0.899 0.163,-1.84 0.163,-2.739 -0.082,-33.52 0.041,-67.039 -0.082,-100.559 z"
       fill="#fefefe"
       stroke="#fefefe"
       id="path20" />
    <path
       d="m 213.029,127.356 h 133.792 c 0.123,33.52 0,67.039 0.082,100.559 0,0.899 -0.082,1.84 -0.163,2.739 -44.516,-0.041 -89.073,-0.041 -133.629,0 -0.123,-1.308 -0.164,-2.657 -0.123,-3.965 0.041,-33.111 -0.041,-66.222 0.041,-99.333 m 19.907,2.044 c -0.122,1.472 0.041,3.188 1.472,3.965 1.676,-0.94 1.145,-2.861 0.777,-4.374 -0.736,0.164 -1.676,-0.163 -2.249,0.409 m 7.195,-0.45 c -0.245,1.635 -0.491,3.516 1.022,4.62 1.553,-1.063 1.512,-2.862 1.308,-4.538 -0.777,0 -1.553,-0.041 -2.33,-0.082 m -14.43,1.635 c -0.122,2.249 1.799,3.434 2.535,5.274 -1.513,0.817 -3.107,1.839 -4.824,2.044 -1.676,-2.29 -4.456,-3.066 -7.113,-3.557 0.736,1.962 1.349,3.965 2.33,5.846 0.613,1.43 -0.817,2.616 -0.981,3.965 -0.858,5.11 0.573,10.137 1.022,15.206 0.368,4.415 0.613,8.912 1.962,13.163 1.799,1.962 4.66,2.82 7.277,2.739 0.449,-1.472 -0.491,-3.516 0.817,-4.497 1.921,-0.082 1.431,2.535 1.88,3.802 1.145,-0.205 2.29,-0.859 2.739,-2.003 0.327,-1.349 -1.717,-2.371 -0.858,-3.72 3.515,-2.371 3.27,-7.685 7.113,-9.77 0.776,2.78 1.798,5.519 3.106,8.094 2.003,4.496 -1.063,9.116 -0.449,13.735 0.572,5.477 5.395,9.443 10.219,11.282 1.104,3.842 4.006,6.704 5.764,10.219 1.063,1.963 0.94,4.374 2.371,6.132 1.594,2.126 3.719,3.965 4.414,6.663 1.799,4.578 0.082,9.565 -2.534,13.449 2.166,0.286 4.374,0.245 6.581,0.204 1.513,-0.082 3.148,-0.817 3.475,-2.412 0.286,-1.635 1.88,-2.493 2.493,-3.924 0.368,-4.006 -3.025,-6.826 -4.823,-10.056 -1.717,-1.839 -0.409,-4.537 -1.635,-6.54 -2.862,-4.088 0.163,-9.157 -1.104,-13.653 5.232,1.88 11.037,3.147 16.555,1.512 6.418,-1.553 12.182,-4.864 18.436,-6.908 -0.286,-1.84 -3.76,-1.104 -3.72,-3.189 2.003,0.287 3.925,1.227 5.396,2.617 2.78,2.616 5.846,4.905 9.239,6.663 2.043,1.103 4.496,1.553 6.254,3.188 1.88,1.635 3.965,2.984 6.213,4.006 2.739,1.349 2.616,4.946 1.799,7.481 -1.226,3.515 -1.676,7.276 -3.107,10.751 -1.144,2.697 -4.496,3.801 -5.273,6.663 3.107,1.389 6.867,1.103 10.015,0.122 0.245,-2.371 2.085,-3.965 4.292,-4.701 0.286,-2.82 -1.104,-5.559 -0.531,-8.339 1.185,-5.763 3.597,-11.2 5.028,-16.923 -4.497,-2.289 -10.383,-5.151 -10.261,-11.037 -3.679,-0.164 -7.766,-0.531 -10.587,-3.188 -2.698,-2.249 -2.943,-7.031 -0.245,-9.402 4.578,-4.66 11.118,-6.336 16.637,-9.607 -0.981,-1.839 -3.066,-2.943 -3.638,-5.027 1.962,-0.777 4.619,-1.268 6.172,0.613 1.513,1.43 0.368,3.72 -1.062,4.741 -5.437,3.761 -12.468,4.947 -17.169,9.811 -2.003,1.962 -2.575,5.723 -0.409,7.767 3.025,3.025 7.685,3.311 11.732,3.147 -1.226,-2.411 -1.594,-5.395 0.041,-7.725 3.842,-5.478 10.955,-7.563 14.348,-13.449 1.431,-2.044 0.981,-5.151 -1.063,-6.622 -3.434,-2.698 -8.216,-2.535 -12.181,-1.227 -1.308,0.491 -2.862,1.39 -4.211,0.45 -3.76,-2.412 -8.012,-4.333 -12.549,-4.374 -10.874,-0.368 -20.602,6.05 -31.476,5.764 -4.537,0.041 -10.015,-1.145 -12.345,-5.519 -1.553,-2.575 -4.823,-3.72 -6.091,-6.458 -1.921,0.081 -3.27,-1.635 -4.742,-2.616 1.349,-1.554 3.271,-2.576 3.639,-4.824 -0.695,-0.286 -1.349,-0.572 -2.044,-0.818 -1.104,1.431 -2.085,3.107 -1.145,4.947 -2.207,0.735 -4.006,-1.349 -5.845,-2.249 0.695,-2.003 3.065,-2.861 3.229,-5.191 -0.654,-0.286 -1.349,-0.572 -2.003,-0.818 -0.981,1.308 -1.799,2.78 -1.063,4.415 -0.163,0.45 -0.449,0.859 -0.695,1.267 -1.962,-0.368 -3.76,-1.144 -5.559,-2.003 0.531,-1.921 2.698,-3.106 2.126,-5.436 -2.535,-1.063 -3.761,2.575 -2.249,4.21 -0.122,0.368 -0.286,0.777 -0.449,1.145 -1.963,-0.45 -4.66,0 -5.846,-1.963 -0.163,0.205 -0.49,0.654 -0.654,0.9 -1.839,-0.164 -4.292,0.736 -5.641,-0.9 -0.777,1.758 -3.188,1.309 -4.742,1.799 -0.981,0.491 -2.003,-0.654 -1.512,-1.594 0.695,-1.267 -0.082,-2.616 -0.45,-3.884 -0.777,0.123 -1.553,0.205 -2.371,0.327 m -11.527,6.623 c 0.204,2.044 1.512,3.965 3.311,4.905 0.736,-2.167 -0.981,-4.783 -3.311,-4.905 m 51.669,1.635 c -1.145,1.185 -2.453,2.657 -1.758,4.455 1.799,-0.286 2.903,-1.676 3.679,-3.188 -0.613,-0.409 -1.267,-0.858 -1.921,-1.267 m 63.728,42.267 c 2.575,-2.657 4.742,-6.009 5.355,-9.729 -3.352,1.84 -7.235,5.56 -5.355,9.729 m -110.288,2.739 c -0.735,0.777 -0.408,1.921 -0.122,2.821 1.39,4.7 4.251,8.829 5.518,13.612 0.818,3.106 -1.839,6.254 -0.204,9.238 2.493,-0.858 4.823,-2.166 7.031,-3.597 0.409,-1.676 0.736,-3.352 2.044,-4.619 -2.903,-3.148 -4.497,-7.604 -4.211,-11.855 2.984,0.164 5.519,1.962 8.258,2.903 4.373,1.716 9.32,2.452 13.898,1.062 -4.292,-2.616 -8.83,-5.763 -10.219,-10.873 -5.028,-0.654 -10.097,-0.981 -15.125,-0.94 -2.412,0.081 -5.151,0.327 -6.868,2.248 m 81.306,5.273 c 0.94,4.251 3.352,7.93 5.396,11.691 0.776,1.39 0.981,3.352 -0.041,4.701 -2.289,3.148 -5.028,5.927 -7.154,9.238 -1.757,2.78 -5.314,3.884 -6.867,6.909 2.657,0.286 5.314,0.245 7.93,0.368 1.921,0.163 2.085,-2.412 3.556,-3.107 0.941,-0.368 1.963,-0.491 2.944,-0.777 0.449,-6.254 4.905,-11.118 9.32,-15.165 0.613,-0.613 1.839,-1.349 1.226,-2.371 -1.104,-1.676 -1.758,-3.597 -2.371,-5.519 -3.842,-1.921 -7.358,-4.455 -10.751,-7.072 -1.144,0.164 -2.166,0.695 -3.188,1.104 m -68.47,19.417 c -1.349,0.981 -3.148,1.635 -3.597,3.434 1.635,0.94 2.575,-0.9 3.679,-1.717 2.003,-1.676 4.537,-2.371 6.785,-3.556 -2.493,-1.022 -4.864,0.531 -6.867,1.839 m -3.924,1.39 c 1.185,-0.654 2.289,-1.472 3.229,-2.412 -1.185,0.572 -2.78,1.022 -3.229,2.412 m 12.426,-2.289 c -3.597,0.695 -7.194,2.248 -9.565,5.109 0.899,0.777 2.085,0.981 3.107,0.287 2.984,-1.636 6.499,-2.903 9.32,-4.252 -0.899,-0.449 -1.758,-1.39 -2.862,-1.144 m 2.576,2.575 c -3.475,1.185 -7.072,2.371 -9.974,4.619 0.94,1.39 2.698,1.513 4.251,1.472 1.553,-0.573 2.289,-2.862 4.21,-2.535 1.717,0.205 2.984,-1.185 4.579,-1.43 -0.368,-1.349 -1.554,-2.821 -3.066,-2.126 m -16.924,3.638 c 2.371,4.415 7.072,7.113 11.732,8.462 1.349,-1.635 -0.286,-3.434 -0.817,-4.987 -1.594,-0.409 -4.088,0.122 -4.742,-1.799 -0.613,-1.758 -2.575,-2.33 -4.251,-2.412 -0.286,-0.695 -0.613,-1.43 -0.9,-2.125 -0.735,0.695 -1.716,1.798 -1.022,2.861 m 17.292,0.532 c 0.286,3.188 0.122,6.376 -0.327,9.565 0.654,-0.082 1.308,-0.164 2.003,-0.245 0.899,-3.23 0.368,-6.582 0.081,-9.852 -0.572,0.205 -1.144,0.368 -1.757,0.532 m 3.106,-0.45 c -0.204,2.78 0.205,5.518 0.123,8.298 1.267,-2.453 1.676,-5.968 -0.123,-8.298 m -21.583,0.817 c -0.736,2.044 -0.041,4.17 1.512,5.601 0.532,-0.777 0.9,-1.717 1.063,-2.657 -0.572,-1.186 -1.553,-2.167 -2.575,-2.944 m 13.244,2.535 c 0.491,1.431 1.063,2.739 1.554,4.128 -1.676,1.39 -2.371,3.475 -2.453,5.601 -0.981,0.531 -2.534,0.736 -2.494,2.166 1.472,0 3.271,0.45 4.497,-0.654 3.066,-3.842 3.679,-9.034 3.066,-13.816 -1.921,-0.45 -2.984,1.389 -4.17,2.575 m -10.383,4.333 c 2.412,2.166 5.723,2.984 8.912,3.025 0.081,-0.532 0.204,-1.063 0.286,-1.554 -3.107,-0.981 -5.887,-2.657 -8.584,-4.455 -0.287,0.981 -0.9,1.962 -0.614,2.984 m -2.657,-1.104 c 0.123,1.676 0.777,3.557 2.453,4.129 1.758,0.654 3.597,1.144 5.11,2.248 1.308,1.063 3.106,0.123 3.883,-1.104 -4.292,-0.368 -8.543,-1.921 -11.446,-5.273 m 17.332,4.251 c -0.49,1.022 -0.981,2.085 -1.348,3.189 1.594,-0.491 3.065,-1.553 3.76,-3.189 -0.817,0 -1.635,-0.04 -2.412,0 m -13.244,1.554 c 0.572,1.962 2.984,2.166 4.619,2.698 -1.144,-1.39 -3.025,-1.922 -4.619,-2.698 z"
       fill="#3a64a3"
       stroke="#3a64a3"
       id="path21" />
    <path
       d="m 189.034,127.683 c 0.163,0.123 0.572,0.286 0.736,0.368 -0.164,-0.082 -0.573,-0.245 -0.736,-0.368 z"
       fill="#3a64a3"
       stroke="#3a64a3"
       id="path22" />
    <path
       d="m 232.936,129.4 c 0.573,-0.572 1.513,-0.245 2.249,-0.409 0.368,1.513 0.899,3.434 -0.777,4.374 -1.431,-0.777 -1.594,-2.493 -1.472,-3.965 z"
       fill="#fefefe"
       stroke="#fefefe"
       id="path23" />
    <path
       d="m 240.131,128.95 c 0.777,0.041 1.553,0.082 2.33,0.082 0.204,1.676 0.245,3.475 -1.308,4.538 -1.513,-1.104 -1.267,-2.985 -1.022,-4.62 z"
       fill="#fefefe"
       stroke="#fefefe"
       id="path24" />
    <path
       d="m 225.701,130.585 c 0.818,-0.122 1.594,-0.204 2.371,-0.327 0.368,1.268 1.145,2.617 0.45,3.884 -0.491,0.94 0.531,2.085 1.512,1.594 1.554,-0.49 3.965,-0.041 4.742,-1.799 1.349,1.636 3.802,0.736 5.641,0.9 0.164,-0.246 0.491,-0.695 0.654,-0.9 1.186,1.963 3.883,1.513 5.846,1.963 0.163,-0.368 0.327,-0.777 0.449,-1.145 -1.512,-1.635 -0.286,-5.273 2.249,-4.21 0.572,2.33 -1.595,3.515 -2.126,5.436 1.799,0.859 3.597,1.635 5.559,2.003 0.246,-0.408 0.532,-0.817 0.695,-1.267 -0.736,-1.635 0.082,-3.107 1.063,-4.415 0.654,0.246 1.349,0.532 2.003,0.818 -0.164,2.33 -2.534,3.188 -3.229,5.191 1.839,0.9 3.638,2.984 5.845,2.249 -0.94,-1.84 0.041,-3.516 1.145,-4.947 0.695,0.246 1.349,0.532 2.044,0.818 -0.368,2.248 -2.29,3.27 -3.639,4.824 1.472,0.981 2.821,2.697 4.742,2.616 1.268,2.738 4.538,3.883 6.091,6.458 2.33,4.374 7.808,5.56 12.345,5.519 10.874,0.286 20.602,-6.132 31.476,-5.764 4.537,0.041 8.789,1.962 12.549,4.374 1.349,0.94 2.903,0.041 4.211,-0.45 3.965,-1.308 8.747,-1.471 12.181,1.227 2.044,1.471 2.494,4.578 1.063,6.622 -3.393,5.886 -10.506,7.971 -14.348,13.449 -1.635,2.33 -1.267,5.314 -0.041,7.725 -4.047,0.164 -8.707,-0.122 -11.732,-3.147 -2.166,-2.044 -1.594,-5.805 0.409,-7.767 4.701,-4.864 11.732,-6.05 17.169,-9.811 1.43,-1.021 2.575,-3.311 1.062,-4.741 -1.553,-1.881 -4.21,-1.39 -6.172,-0.613 0.572,2.084 2.657,3.188 3.638,5.027 -5.519,3.271 -12.059,4.947 -16.637,9.607 -2.698,2.371 -2.453,7.153 0.245,9.402 2.821,2.657 6.908,3.024 10.587,3.188 -0.122,5.886 5.764,8.748 10.261,11.037 -1.431,5.723 -3.843,11.16 -5.028,16.923 -0.573,2.78 0.817,5.519 0.531,8.339 -2.207,0.736 -4.047,2.33 -4.292,4.701 -3.148,0.981 -6.908,1.267 -10.015,-0.122 0.777,-2.862 4.129,-3.966 5.273,-6.663 1.431,-3.475 1.881,-7.236 3.107,-10.751 0.817,-2.535 0.94,-6.132 -1.799,-7.481 -2.248,-1.022 -4.333,-2.371 -6.213,-4.006 -1.758,-1.635 -4.211,-2.085 -6.254,-3.188 -3.393,-1.758 -6.459,-4.047 -9.239,-6.663 -1.471,-1.39 -3.393,-2.33 -5.396,-2.617 -0.04,2.085 3.434,1.349 3.72,3.189 -6.254,2.044 -12.018,5.355 -18.436,6.908 -5.518,1.635 -11.323,0.368 -16.555,-1.512 1.267,4.496 -1.758,9.565 1.104,13.653 1.226,2.003 -0.082,4.701 1.635,6.54 1.798,3.23 5.191,6.05 4.823,10.056 -0.613,1.431 -2.207,2.289 -2.493,3.924 -0.327,1.595 -1.962,2.33 -3.475,2.412 -2.207,0.041 -4.415,0.082 -6.581,-0.204 2.616,-3.884 4.333,-8.871 2.534,-13.449 -0.695,-2.698 -2.82,-4.537 -4.414,-6.663 -1.431,-1.758 -1.308,-4.169 -2.371,-6.132 -1.758,-3.515 -4.66,-6.377 -5.764,-10.219 -4.824,-1.839 -9.647,-5.805 -10.219,-11.282 -0.614,-4.619 2.452,-9.239 0.449,-13.735 -1.308,-2.575 -2.33,-5.314 -3.106,-8.094 -3.843,2.085 -3.598,7.399 -7.113,9.77 -0.859,1.349 1.185,2.371 0.858,3.72 -0.449,1.144 -1.594,1.798 -2.739,2.003 -0.449,-1.267 0.041,-3.884 -1.88,-3.802 -1.308,0.981 -0.368,3.025 -0.817,4.497 -2.617,0.081 -5.478,-0.777 -7.277,-2.739 -1.349,-4.251 -1.594,-8.748 -1.962,-13.163 -0.449,-5.069 -1.88,-10.096 -1.022,-15.206 0.164,-1.349 1.594,-2.535 0.981,-3.965 -0.981,-1.881 -1.594,-3.884 -2.33,-5.846 2.657,0.491 5.437,1.267 7.113,3.557 1.717,-0.205 3.311,-1.227 4.824,-2.044 -0.736,-1.84 -2.657,-3.025 -2.535,-5.274 m -5.723,19.744 c -0.449,1.268 0.246,2.535 0.818,3.679 0.817,-1.062 2.207,-2.207 1.717,-3.72 -0.286,-1.144 -2.208,-1.103 -2.535,0.041 m 1.267,20.235 c 0.082,0.49 0.164,0.981 0.287,1.471 0.735,0.695 1.676,1.063 2.575,1.472 -0.041,-1.513 -1.472,-2.575 -2.862,-2.943 z"
       fill="#fefefe"
       stroke="#fefefe"
       id="path25" />
    <path
       d="m 214.174,137.208 c 2.33,0.122 4.047,2.738 3.311,4.905 -1.799,-0.94 -3.107,-2.861 -3.311,-4.905 z"
       fill="#fefefe"
       stroke="#fefefe"
       id="path26" />
    <path
       d="m 265.843,138.843 c 0.654,0.409 1.308,0.858 1.921,1.267 -0.776,1.512 -1.88,2.902 -3.679,3.188 -0.695,-1.798 0.613,-3.27 1.758,-4.455 z"
       fill="#fefefe"
       stroke="#fefefe"
       id="path27" />
    <path
       d="m 219.978,150.329 c 0.327,-1.144 2.249,-1.185 2.535,-0.041 0.49,1.513 -0.9,2.658 -1.717,3.72 -0.572,-1.144 -1.267,-2.411 -0.818,-3.679 z"
       fill="#3a64a3"
       stroke="#3a64a3"
       id="path28" />
    <path
       d="m 221.245,170.564 c 1.39,0.368 2.821,1.43 2.862,2.943 -0.899,-0.409 -1.84,-0.777 -2.575,-1.472 -0.123,-0.49 -0.205,-0.981 -0.287,-1.471 z"
       fill="#3a64a3"
       stroke="#3a64a3"
       id="path29" />
    <g
       fill="#fefefe"
       stroke="#fefefe"
       id="g43">
      <path
         d="m 329.571,181.11 c -1.88,-4.169 2.003,-7.889 5.355,-9.729 -0.613,3.72 -2.78,7.072 -5.355,9.729 z"
         id="path30" />
      <path
         d="m 219.283,183.849 c 1.717,-1.921 4.456,-2.167 6.868,-2.248 5.028,-0.041 10.097,0.286 15.125,0.94 1.389,5.11 5.927,8.257 10.219,10.873 -4.578,1.39 -9.525,0.654 -13.898,-1.062 -2.739,-0.941 -5.274,-2.739 -8.258,-2.903 -0.286,4.251 1.308,8.707 4.211,11.855 -1.308,1.267 -1.635,2.943 -2.044,4.619 -2.208,1.431 -4.538,2.739 -7.031,3.597 -1.635,-2.984 1.022,-6.132 0.204,-9.238 -1.267,-4.783 -4.128,-8.912 -5.518,-13.612 -0.286,-0.9 -0.613,-2.044 0.122,-2.821 z"
         id="path31" />
      <path
         d="m 300.589,189.122 c 1.022,-0.409 2.044,-0.94 3.188,-1.104 3.393,2.617 6.909,5.151 10.751,7.072 0.613,1.922 1.267,3.843 2.371,5.519 0.613,1.022 -0.613,1.758 -1.226,2.371 -4.415,4.047 -8.871,8.911 -9.32,15.165 -0.981,0.286 -2.003,0.409 -2.944,0.777 -1.471,0.695 -1.635,3.27 -3.556,3.107 -2.616,-0.123 -5.273,-0.082 -7.93,-0.368 1.553,-3.025 5.11,-4.129 6.867,-6.909 2.126,-3.311 4.865,-6.09 7.154,-9.238 1.022,-1.349 0.817,-3.311 0.041,-4.701 -2.044,-3.761 -4.456,-7.44 -5.396,-11.691 z"
         id="path32" />
      <path
         d="m 232.119,208.539 c 2.003,-1.308 4.374,-2.861 6.867,-1.839 -2.248,1.185 -4.782,1.88 -6.785,3.556 -1.104,0.817 -2.044,2.657 -3.679,1.717 0.449,-1.799 2.248,-2.453 3.597,-3.434 z"
         id="path33" />
      <path
         d="m 228.195,209.929 c 0.449,-1.39 2.044,-1.84 3.229,-2.412 -0.94,0.94 -2.044,1.758 -3.229,2.412 z"
         id="path34" />
      <path
         d="m 240.621,207.64 c 1.104,-0.246 1.963,0.695 2.862,1.144 -2.821,1.349 -6.336,2.616 -9.32,4.252 -1.022,0.694 -2.208,0.49 -3.107,-0.287 2.371,-2.861 5.968,-4.414 9.565,-5.109 z"
         id="path35" />
      <path
         d="m 243.197,210.215 c 1.512,-0.695 2.698,0.777 3.066,2.126 -1.595,0.245 -2.862,1.635 -4.579,1.43 -1.921,-0.327 -2.657,1.962 -4.21,2.535 -1.553,0.041 -3.311,-0.082 -4.251,-1.472 2.902,-2.248 6.499,-3.434 9.974,-4.619 z"
         id="path36" />
      <path
         d="m 226.273,213.853 c -0.694,-1.063 0.287,-2.166 1.022,-2.861 0.287,0.695 0.614,1.43 0.9,2.125 1.676,0.082 3.638,0.654 4.251,2.412 0.654,1.921 3.148,1.39 4.742,1.799 0.531,1.553 2.166,3.352 0.817,4.987 -4.66,-1.349 -9.361,-4.047 -11.732,-8.462 z"
         id="path37" />
      <path
         d="m 243.565,214.385 c 0.613,-0.164 1.185,-0.327 1.757,-0.532 0.287,3.27 0.818,6.622 -0.081,9.852 -0.695,0.081 -1.349,0.163 -2.003,0.245 0.449,-3.189 0.613,-6.377 0.327,-9.565 z"
         id="path38" />
      <path
         d="m 246.671,213.935 c 1.799,2.33 1.39,5.845 0.123,8.298 0.082,-2.78 -0.327,-5.518 -0.123,-8.298 z"
         id="path39" />
      <path
         d="m 225.088,214.752 c 1.022,0.777 2.003,1.758 2.575,2.944 -0.163,0.94 -0.531,1.88 -1.063,2.657 -1.553,-1.431 -2.248,-3.557 -1.512,-5.601 z"
         id="path40" />
      <path
         d="m 238.332,217.287 c 1.186,-1.186 2.249,-3.025 4.17,-2.575 0.613,4.782 0,9.974 -3.066,13.816 -1.226,1.104 -3.025,0.654 -4.497,0.654 -0.04,-1.43 1.513,-1.635 2.494,-2.166 0.082,-2.126 0.777,-4.211 2.453,-5.601 -0.491,-1.389 -1.063,-2.697 -1.554,-4.128 z"
         id="path41" />
      <path
         d="m 227.949,221.62 c -0.286,-1.022 0.327,-2.003 0.614,-2.984 2.697,1.798 5.477,3.474 8.584,4.455 -0.082,0.491 -0.205,1.022 -0.286,1.554 -3.189,-0.041 -6.5,-0.859 -8.912,-3.025 z"
         id="path42" />
      <path
         d="m 225.292,220.516 c 2.903,3.352 7.154,4.905 11.446,5.273 -0.777,1.227 -2.575,2.167 -3.883,1.104 -1.513,-1.104 -3.352,-1.594 -5.11,-2.248 -1.676,-0.572 -2.33,-2.453 -2.453,-4.129 z"
         id="path43" />
    </g>
    <path
       d="m 196.065,220.843 c 0.245,3.965 0.041,7.971 0.082,11.977 -0.041,18.763 0.163,37.567 -0.082,56.33 l 0.041,0.286 c -0.205,-22.851 -0.123,-45.742 -0.041,-68.593 z"
       fill="#3a64a3"
       stroke="#3a64a3"
       id="path44" />
    <path
       d="m 242.624,224.767 c 0.777,-0.04 1.595,0 2.412,0 -0.695,1.636 -2.166,2.698 -3.76,3.189 0.367,-1.104 0.858,-2.167 1.348,-3.189 z"
       fill="#fefefe"
       stroke="#fefefe"
       id="path45" />
    <path
       d="m 229.38,226.321 c 1.594,0.776 3.475,1.308 4.619,2.698 -1.635,-0.532 -4.047,-0.736 -4.619,-2.698 z"
       fill="#fefefe"
       stroke="#fefefe"
       id="path46" />
    <path
       d="m 209.636,236.418 0.082,0.286 c 0.082,0.613 0.123,1.267 0.245,1.88 4.129,0 8.421,0.082 12.264,1.84 2.043,0.94 3.965,2.575 6.376,2.33 4.211,-0.327 7.808,-2.984 11.937,-3.639 5.232,-0.899 10.546,0.205 15.533,1.799 1.962,0.613 3.884,1.635 6.05,1.594 3.761,0.246 7.235,-1.512 10.792,-2.534 3.638,-1.186 7.644,-1.635 11.364,-0.695 4.619,1.022 8.993,3.434 13.816,3.229 2.617,0.041 4.865,-1.349 7.317,-1.962 3.475,-0.981 7.031,-1.798 10.669,-1.758 4.661,0.082 8.871,2.371 13.286,3.639 2.616,0.817 5.355,-0.123 7.685,-1.349 3.883,-2.003 8.298,-2.494 12.631,-2.453 0.041,-0.654 0.082,-1.308 0.122,-1.962 v -0.286 c 0.328,5.191 0.082,10.423 0.164,15.615 -3.352,-0.286 -6.745,0.082 -9.892,1.144 -2.576,0.859 -4.783,2.903 -7.644,2.78 -6.091,0.368 -11.078,-4.415 -17.169,-4.047 -5.437,0.164 -10.383,2.616 -15.615,3.761 -7.808,1.267 -14.757,-5.11 -22.606,-3.393 -6.213,1.431 -12.631,5.11 -19.13,2.78 -6.418,-2.616 -13.98,-4.701 -20.603,-1.635 -3.76,1.921 -8.134,2.861 -12.304,1.88 -2.166,-0.49 -3.924,-2.003 -6.05,-2.616 -2.943,-0.858 -6.05,-0.858 -9.074,-0.695 -0.041,2.126 0.204,4.292 -0.164,6.418 v 0.327 c -0.204,-7.399 -0.082,-14.88 -0.082,-22.278 m 0.246,6.622 v 4.374 c 2.534,-0.041 5.109,0.081 7.603,0.286 3.965,0.327 7.072,3.679 11.118,3.556 4.293,-0.163 7.931,-2.78 12.1,-3.474 5.151,-0.982 10.342,0.327 15.248,1.88 2.043,0.572 4.006,1.553 6.131,1.594 6.295,0.205 11.773,-3.924 18.027,-3.679 5.028,0 9.647,2.248 14.43,3.475 4.251,1.022 8.339,-0.818 12.263,-2.167 3.475,-1.226 7.195,-1.512 10.833,-1.185 4.251,0.531 8.175,2.412 12.304,3.556 2.33,0.695 4.783,-0.286 6.867,-1.39 3.925,-2.166 8.503,-2.411 12.877,-2.411 0.082,-1.39 0.082,-2.739 0.041,-4.129 -3.434,-0.082 -7.154,-0.327 -10.22,1.431 -2.33,1.267 -4.823,2.37 -7.48,2.452 -3.516,0 -6.786,-1.471 -9.974,-2.779 -5.028,-1.922 -10.588,-1.104 -15.616,0.408 -2.779,0.736 -5.355,2.33 -8.298,2.208 -6.581,0.327 -12.263,-4.17 -18.803,-3.761 -4.783,0.245 -9.034,2.739 -13.694,3.597 -6.296,0.9 -11.978,-2.575 -17.987,-3.638 -5.641,-0.736 -10.955,1.717 -16.146,3.556 -3.23,0.777 -6.704,0 -9.606,-1.553 -3.639,-2.003 -7.931,-2.453 -12.018,-2.207 z"
       fill="#fefefe"
       stroke="#fefefe"
       id="path47" />
    <path
       d="m 209.718,236.704 c 46.682,-0.164 93.364,-0.123 140.087,-0.041 -0.04,0.654 -0.081,1.308 -0.122,1.962 -4.333,-0.041 -8.748,0.45 -12.631,2.453 -2.33,1.226 -5.069,2.166 -7.685,1.349 -4.415,-1.268 -8.625,-3.557 -13.286,-3.639 -3.638,-0.04 -7.194,0.777 -10.669,1.758 -2.452,0.613 -4.7,2.003 -7.317,1.962 -4.823,0.205 -9.197,-2.207 -13.816,-3.229 -3.72,-0.94 -7.726,-0.491 -11.364,0.695 -3.557,1.022 -7.031,2.78 -10.792,2.534 -2.166,0.041 -4.088,-0.981 -6.05,-1.594 -4.987,-1.594 -10.301,-2.698 -15.533,-1.799 -4.129,0.655 -7.726,3.312 -11.937,3.639 -2.411,0.245 -4.333,-1.39 -6.376,-2.33 -3.843,-1.758 -8.135,-1.84 -12.264,-1.84 -0.122,-0.613 -0.163,-1.267 -0.245,-1.88 z"
       fill="#3a64a3"
       stroke="#3a64a3"
       id="path48" />
    <path
       d="m 209.882,243.04 c 4.087,-0.246 8.379,0.204 12.018,2.207 2.902,1.553 6.376,2.33 9.606,1.553 5.191,-1.839 10.505,-4.292 16.146,-3.556 6.009,1.063 11.691,4.538 17.987,3.638 4.66,-0.858 8.911,-3.352 13.694,-3.597 6.54,-0.409 12.222,4.088 18.803,3.761 2.943,0.122 5.519,-1.472 8.298,-2.208 5.028,-1.512 10.588,-2.33 15.616,-0.408 3.188,1.308 6.458,2.779 9.974,2.779 2.657,-0.082 5.15,-1.185 7.48,-2.452 3.066,-1.758 6.786,-1.513 10.22,-1.431 0.041,1.39 0.041,2.739 -0.041,4.129 -4.374,0 -8.952,0.245 -12.877,2.411 -2.084,1.104 -4.537,2.085 -6.867,1.39 -4.129,-1.144 -8.053,-3.025 -12.304,-3.556 -3.638,-0.327 -7.358,-0.041 -10.833,1.185 -3.924,1.349 -8.012,3.189 -12.263,2.167 -4.783,-1.227 -9.402,-3.475 -14.43,-3.475 -6.254,-0.245 -11.732,3.884 -18.027,3.679 -2.125,-0.041 -4.088,-1.022 -6.131,-1.594 -4.906,-1.553 -10.097,-2.862 -15.248,-1.88 -4.169,0.694 -7.807,3.311 -12.1,3.474 -4.046,0.123 -7.153,-3.229 -11.118,-3.556 -2.494,-0.205 -5.069,-0.327 -7.603,-0.286 z"
       fill="#3a64a3"
       stroke="#3a64a3"
       id="path49" />
    <path
       d="m 209.882,251.951 c 3.024,-0.163 6.131,-0.163 9.074,0.695 2.126,0.613 3.884,2.126 6.05,2.616 4.17,0.981 8.544,0.041 12.304,-1.88 6.623,-3.066 14.185,-0.981 20.603,1.635 6.499,2.33 12.917,-1.349 19.13,-2.78 7.849,-1.717 14.798,4.66 22.606,3.393 5.232,-1.145 10.178,-3.597 15.615,-3.761 6.091,-0.368 11.078,4.415 17.169,4.047 2.861,0.123 5.068,-1.921 7.644,-2.78 3.147,-1.062 6.54,-1.43 9.892,-1.144 -0.123,2.166 -0.082,4.333 -0.082,6.459 -46.723,-0.082 -93.446,0.081 -140.169,-0.082 0.368,-2.126 0.123,-4.292 0.164,-6.418 z"
       fill="#3a64a3"
       stroke="#3a64a3"
       id="path50" />
    <path
       d="m 209.882,263.479 c 46.6,-0.123 93.2,-0.082 139.801,-0.041 0.082,6.949 0.122,13.898 0,20.847 -46.601,-0.041 -93.201,0.041 -139.801,-0.041 0.04,-6.908 0.04,-13.857 0,-20.765 m 3.147,2.37 c -0.041,5.396 -0.082,10.751 0,16.106 44.598,0.082 89.195,0.082 133.792,0 0.082,-5.355 0.082,-10.751 0,-16.106 -44.597,-0.081 -89.194,-0.081 -133.792,0 z"
       fill="#fefefe"
       stroke="#fefefe"
       id="path51" />
    <path
       d="m 213.029,265.849 c 44.598,-0.081 89.195,-0.081 133.792,0 0.082,5.355 0.082,10.751 0,16.106 -44.597,0.082 -89.194,0.082 -133.792,0 -0.082,-5.355 -0.041,-10.71 0,-16.106 m 6.132,3.802 c -0.082,2.739 -0.082,5.478 0,8.216 0.776,0 1.594,0 2.412,-0.04 -0.041,-1.104 0,-2.167 0,-3.271 1.348,0.041 2.738,0 4.087,-0.081 v -1.513 c -1.39,-0.041 -2.739,-0.041 -4.087,-0.082 0,-0.531 0.04,-1.062 0.04,-1.553 1.349,0 2.698,0 4.047,-0.082 v -1.553 c -2.166,-0.082 -4.333,-0.041 -6.499,-0.041 m 11.241,0.164 c -2.248,0.531 -4.047,2.943 -3.148,5.273 1.554,3.352 6.5,3.72 9.198,1.553 1.553,-1.104 2.003,-3.515 0.736,-4.987 -1.513,-2.085 -4.456,-2.534 -6.786,-1.839 m 12.222,-0.041 c -2.084,0.449 -3.965,2.493 -3.474,4.741 1.267,4.824 9.974,4.62 10.792,-0.408 0.204,-3.679 -4.333,-5.314 -7.318,-4.333 m 7.685,-0.123 v 1.553 c 1.104,0 2.208,0 3.312,0.041 0.081,2.167 0.081,4.374 0.04,6.541 0.818,0.041 1.636,0.081 2.453,0.122 0.082,-2.207 0.082,-4.414 0,-6.581 1.145,-0.082 2.289,-0.163 3.434,-0.163 0,-0.491 0.041,-0.982 0.041,-1.472 -3.107,-0.082 -6.214,-0.041 -9.28,-0.041 m 10.588,0 c -0.041,2.739 -0.041,5.478 0,8.216 2.289,-0.081 4.782,0.45 6.949,-0.49 1.635,-0.94 1.104,-3.311 -0.409,-4.088 0.94,-0.94 0.94,-2.616 -0.409,-3.27 -1.921,-0.736 -4.087,-0.245 -6.131,-0.368 m 12.345,0.041 c -1.227,2.698 -2.535,5.396 -3.761,8.135 0.858,0.04 1.676,0.04 2.534,0.081 0.246,-0.572 0.491,-1.103 0.777,-1.635 h 4.006 c 0.286,0.491 0.572,1.022 0.94,1.513 0.818,0.204 1.635,0.041 2.453,0.041 -1.267,-2.821 -2.78,-5.437 -4.129,-8.176 -0.94,0 -1.88,0 -2.82,0.041 m 8.053,-0.082 c -0.082,2.78 -0.041,5.519 0,8.257 2.411,0 4.864,0.164 7.276,-0.122 v -1.472 c -1.635,0.041 -3.229,0.041 -4.824,-0.041 -0.081,-2.166 -0.081,-4.374 -0.041,-6.581 -0.817,0 -1.594,0 -2.411,-0.041 m 8.502,0.041 c -0.082,2.739 -0.082,5.478 0,8.216 2.412,0.041 4.783,0.082 7.195,-0.04 -0.082,-0.532 -0.123,-1.063 -0.123,-1.595 -1.594,0.082 -3.188,0.082 -4.783,-0.041 0.041,-2.207 0.041,-4.373 0,-6.54 z m 12.836,1.635 c -1.594,1.513 -1.227,4.333 0.531,5.559 2.208,1.595 5.192,1.227 7.644,0.491 -0.041,-0.695 0.041,-1.349 0.041,-2.003 -1.798,0.654 -3.924,1.431 -5.641,0.286 -1.226,-0.654 -1.431,-2.493 -0.368,-3.352 1.594,-1.553 4.088,-0.899 5.887,-0.163 0,-0.695 -0.041,-1.349 -0.041,-2.044 -2.657,-0.777 -6.009,-0.981 -8.053,1.226 m 10.056,-1.676 c -0.082,2.739 -0.082,5.478 0,8.257 2.411,0.041 4.823,0.082 7.235,-0.04 -0.082,-0.532 -0.123,-1.063 -0.123,-1.554 -1.553,0.041 -3.106,0.041 -4.66,-0.041 -0.041,-2.166 -0.041,-4.374 0,-6.54 -0.817,-0.041 -1.635,-0.041 -2.452,-0.082 m 8.339,0.041 c 0.081,2.126 -0.409,4.456 0.408,6.5 1.922,2.534 6.582,2.493 8.626,0.081 0.858,-2.044 0.368,-4.414 0.408,-6.622 -0.817,0.041 -1.635,0.041 -2.452,0.082 0,1.717 0.204,3.475 -0.082,5.191 -0.572,1.922 -3.843,1.84 -4.333,-0.081 -0.245,-1.717 -0.082,-3.434 -0.164,-5.151 z m 11.445,0 c -0.04,2.739 0,5.478 0,8.216 2.29,-0.081 4.742,0.45 6.909,-0.49 1.635,-0.94 1.144,-3.311 -0.409,-4.047 0.695,-0.858 1.185,-2.248 0.082,-2.984 -1.922,-1.308 -4.415,-0.491 -6.582,-0.695 z"
       fill="#3a64a3"
       stroke="#3a64a3"
       id="path52" />
    <path
       d="m 219.161,269.651 c 2.166,0 4.333,-0.041 6.499,0.041 v 1.553 c -1.349,0.082 -2.698,0.082 -4.047,0.082 0,0.491 -0.04,1.022 -0.04,1.553 1.348,0.041 2.697,0.041 4.087,0.082 v 1.513 c -1.349,0.081 -2.739,0.122 -4.087,0.081 0,1.104 -0.041,2.167 0,3.271 -0.818,0.04 -1.636,0.04 -2.412,0.04 -0.082,-2.738 -0.082,-5.477 0,-8.216 z"
       fill="#fefefe"
       stroke="#fefefe"
       id="path53" />
    <path
       d="m 230.402,269.815 c 2.33,-0.695 5.273,-0.246 6.786,1.839 1.267,1.472 0.817,3.883 -0.736,4.987 -2.698,2.167 -7.644,1.799 -9.198,-1.553 -0.899,-2.33 0.9,-4.742 3.148,-5.273 m 1.226,1.594 c -1.471,0.204 -2.493,1.839 -1.962,3.229 1.063,2.412 5.355,2.044 5.723,-0.654 0.205,-1.962 -2.085,-3.025 -3.761,-2.575 z"
       fill="#fefefe"
       stroke="#fefefe"
       id="path54" />
    <path
       d="m 242.624,269.774 c 2.985,-0.981 7.522,0.654 7.318,4.333 -0.818,5.028 -9.525,5.232 -10.792,0.408 -0.491,-2.248 1.39,-4.292 3.474,-4.741 m 0.859,1.676 c -1.431,0.286 -2.33,2.003 -1.676,3.352 1.104,2.371 5.723,1.716 5.6,-1.104 0,-1.921 -2.33,-2.739 -3.924,-2.248 z"
       fill="#fefefe"
       stroke="#fefefe"
       id="path55" />
    <path
       d="m 250.309,269.651 c 3.066,0 6.173,-0.041 9.28,0.041 0,0.49 -0.041,0.981 -0.041,1.472 -1.145,0 -2.289,0.081 -3.434,0.163 0.082,2.167 0.082,4.374 0,6.581 -0.817,-0.041 -1.635,-0.081 -2.453,-0.122 0.041,-2.167 0.041,-4.374 -0.04,-6.541 -1.104,-0.041 -2.208,-0.041 -3.312,-0.041 z"
       fill="#fefefe"
       stroke="#fefefe"
       id="path56" />
    <path
       d="m 260.897,269.651 c 2.044,0.123 4.21,-0.368 6.131,0.368 1.349,0.654 1.349,2.33 0.409,3.27 1.513,0.777 2.044,3.148 0.409,4.088 -2.167,0.94 -4.66,0.409 -6.949,0.49 -0.041,-2.738 -0.041,-5.477 0,-8.216 m 2.452,1.472 c 0,0.572 0,1.185 0.041,1.757 0.777,-0.122 2.535,0.205 2.33,-1.103 -0.531,-0.818 -1.594,-0.532 -2.371,-0.654 m 0,3.27 v 1.88 c 0.981,0 1.922,-0.041 2.903,-0.163 -0.041,-0.491 -0.041,-0.981 0,-1.513 -0.981,-0.082 -1.962,-0.163 -2.903,-0.204 z"
       fill="#fefefe"
       stroke="#fefefe"
       id="path57" />
    <path
       d="m 273.242,269.692 c 0.94,-0.041 1.88,-0.041 2.82,-0.041 1.349,2.739 2.862,5.355 4.129,8.176 -0.818,0 -1.635,0.163 -2.453,-0.041 -0.368,-0.491 -0.654,-1.022 -0.94,-1.513 h -4.006 c -0.286,0.532 -0.531,1.063 -0.777,1.635 -0.858,-0.041 -1.676,-0.041 -2.534,-0.081 1.226,-2.739 2.534,-5.437 3.761,-8.135 m 0.327,5.069 h 2.452 c -0.327,-0.981 -0.776,-1.922 -1.308,-2.78 -0.531,0.858 -0.94,1.799 -1.144,2.78 z"
       fill="#fefefe"
       stroke="#fefefe"
       id="path58" />
    <path
       d="m 281.295,269.61 c 0.817,0.041 1.594,0.041 2.411,0.041 -0.04,2.207 -0.04,4.415 0.041,6.581 1.595,0.082 3.189,0.082 4.824,0.041 v 1.472 c -2.412,0.286 -4.865,0.122 -7.276,0.122 -0.041,-2.738 -0.082,-5.477 0,-8.257 z"
       fill="#fefefe"
       stroke="#fefefe"
       id="path59" />
    <path
       d="m 289.797,269.651 h 2.289 c 0.041,2.167 0.041,4.333 0,6.54 1.595,0.123 3.189,0.123 4.783,0.041 0,0.532 0.041,1.063 0.123,1.595 -2.412,0.122 -4.783,0.081 -7.195,0.04 -0.082,-2.738 -0.082,-5.477 0,-8.216 z"
       fill="#fefefe"
       stroke="#fefefe"
       id="path60" />
    <path
       d="m 302.633,271.286 c 2.044,-2.207 5.396,-2.003 8.053,-1.226 0,0.695 0.041,1.349 0.041,2.044 -1.799,-0.736 -4.293,-1.39 -5.887,0.163 -1.063,0.859 -0.858,2.698 0.368,3.352 1.717,1.145 3.843,0.368 5.641,-0.286 0,0.654 -0.082,1.308 -0.041,2.003 -2.452,0.736 -5.436,1.104 -7.644,-0.491 -1.758,-1.226 -2.125,-4.046 -0.531,-5.559 z"
       fill="#fefefe"
       stroke="#fefefe"
       id="path61" />
    <path
       d="m 312.689,269.61 c 0.817,0.041 1.635,0.041 2.452,0.082 -0.041,2.166 -0.041,4.374 0,6.54 1.554,0.082 3.107,0.082 4.66,0.041 0,0.491 0.041,1.022 0.123,1.554 -2.412,0.122 -4.824,0.081 -7.235,0.04 -0.082,-2.779 -0.082,-5.518 0,-8.257 z"
       fill="#fefefe"
       stroke="#fefefe"
       id="path62" />
    <path
       d="m 321.028,269.651 h 2.411 c 0.082,1.717 -0.081,3.434 0.164,5.151 0.49,1.921 3.761,2.003 4.333,0.081 0.286,-1.716 0.082,-3.474 0.082,-5.191 0.817,-0.041 1.635,-0.041 2.452,-0.082 -0.04,2.208 0.45,4.578 -0.408,6.622 -2.044,2.412 -6.704,2.453 -8.626,-0.081 -0.817,-2.044 -0.327,-4.374 -0.408,-6.5 z"
       fill="#fefefe"
       stroke="#fefefe"
       id="path63" />
    <path
       d="m 332.473,269.651 c 2.167,0.204 4.66,-0.613 6.582,0.695 1.103,0.736 0.613,2.126 -0.082,2.984 1.553,0.736 2.044,3.107 0.409,4.047 -2.167,0.94 -4.619,0.409 -6.909,0.49 0,-2.738 -0.04,-5.477 0,-8.216 m 2.412,1.472 c 0.041,0.572 0.041,1.185 0.041,1.757 0.818,-0.122 2.494,0.205 2.33,-1.103 -0.49,-0.818 -1.553,-0.532 -2.371,-0.654 m 0,3.27 c 0,0.654 0,1.267 0.041,1.88 0.94,0 1.921,-0.041 2.861,-0.163 -0.04,-0.491 -0.04,-1.022 0,-1.513 -0.981,-0.082 -1.921,-0.163 -2.902,-0.204 z"
       fill="#fefefe"
       stroke="#fefefe"
       id="path64" />
    <g
       fill="#3a64a3"
       stroke="#3a64a3"
       id="g100">
      <path
         d="m 231.628,271.409 c 1.676,-0.45 3.966,0.613 3.761,2.575 -0.368,2.698 -4.66,3.066 -5.723,0.654 -0.531,-1.39 0.491,-3.025 1.962,-3.229 z"
         id="path65" />
      <path
         d="m 243.483,271.45 c 1.594,-0.491 3.924,0.327 3.924,2.248 0.123,2.82 -4.496,3.475 -5.6,1.104 -0.654,-1.349 0.245,-3.066 1.676,-3.352 z"
         id="path66" />
      <path
         d="m 263.349,271.123 c 0.777,0.122 1.84,-0.164 2.371,0.654 0.205,1.308 -1.553,0.981 -2.33,1.103 -0.041,-0.572 -0.041,-1.185 -0.041,-1.757 z"
         id="path67" />
      <path
         d="m 334.885,271.123 c 0.818,0.122 1.881,-0.164 2.371,0.654 0.164,1.308 -1.512,0.981 -2.33,1.103 0,-0.572 0,-1.185 -0.041,-1.757 z"
         id="path68" />
      <path
         d="m 273.569,274.761 c 0.204,-0.981 0.613,-1.922 1.144,-2.78 0.532,0.858 0.981,1.799 1.308,2.78 z"
         id="path69" />
      <path
         d="m 263.349,274.393 c 0.941,0.041 1.922,0.122 2.903,0.204 -0.041,0.532 -0.041,1.022 0,1.513 -0.981,0.122 -1.922,0.163 -2.903,0.163 z"
         id="path70" />
      <path
         d="m 334.885,274.393 c 0.981,0.041 1.921,0.122 2.902,0.204 -0.04,0.491 -0.04,1.022 0,1.513 -0.94,0.122 -1.921,0.163 -2.861,0.163 -0.041,-0.613 -0.041,-1.226 -0.041,-1.88 z"
         id="path71" />
      <path
         d="m 225.292,289.395 c 36.545,-0.082 73.089,-0.082 109.634,0 -17.536,7.603 -35.318,14.716 -52.936,22.156 -1.063,0.408 -2.249,1.226 -3.393,0.49 -17.741,-7.603 -35.646,-14.879 -53.305,-22.646 z"
         id="path72" />
      <path
         d="m 197.209,289.558 c 0.205,0.123 0.573,0.327 0.736,0.409 -0.163,-0.082 -0.531,-0.286 -0.736,-0.409 z"
         id="path73" />
      <path
         d="m 358.185,291.602 c 0.164,-0.081 0.532,-0.286 0.736,-0.408 -0.204,0.122 -0.572,0.327 -0.736,0.408 z"
         id="path74" />
      <path
         d="m 203.75,292.42 c 0.204,0.122 0.531,0.327 0.736,0.409 -0.205,-0.082 -0.532,-0.287 -0.736,-0.409 z"
         id="path75" />
      <path
         d="m 355.324,292.829 c 0.204,-0.082 0.572,-0.287 0.736,-0.409 -0.164,0.122 -0.532,0.327 -0.736,0.409 z"
         id="path76" />
      <path
         d="m 352.463,294.055 c 0.204,-0.082 0.572,-0.286 0.735,-0.368 -0.163,0.082 -0.531,0.286 -0.735,0.368 z"
         id="path77" />
      <path
         d="m 345.922,296.916 c 0.164,-0.081 0.532,-0.286 0.736,-0.408 -0.204,0.122 -0.572,0.327 -0.736,0.408 z"
         id="path78" />
      <path
         d="m 343.061,298.143 c 0.204,-0.082 0.572,-0.286 0.735,-0.409 -0.163,0.123 -0.531,0.327 -0.735,0.409 z"
         id="path79" />
      <path
         d="m 340.199,299.369 c 0.205,-0.082 0.573,-0.286 0.736,-0.368 -0.163,0.082 -0.531,0.286 -0.736,0.368 z"
         id="path80" />
      <path
         d="m 219.692,299.369 c 0.205,0.123 0.572,0.327 0.736,0.409 -0.164,-0.082 -0.531,-0.286 -0.736,-0.409 z"
         id="path81" />
      <path
         d="m 222.554,300.636 c 0.163,0.082 0.531,0.286 0.735,0.368 -0.204,-0.082 -0.572,-0.286 -0.735,-0.368 z"
         id="path82" />
      <path
         d="m 333.659,302.23 c 0.163,-0.081 0.531,-0.286 0.736,-0.408 -0.205,0.122 -0.573,0.327 -0.736,0.408 z"
         id="path83" />
      <path
         d="m 330.797,303.457 c 0.205,-0.123 0.573,-0.286 0.736,-0.409 -0.163,0.123 -0.531,0.286 -0.736,0.409 z"
         id="path84" />
      <path
         d="m 229.094,303.457 c 0.204,0.122 0.531,0.327 0.736,0.409 -0.205,-0.082 -0.532,-0.287 -0.736,-0.409 z"
         id="path85" />
      <path
         d="m 231.955,304.683 c 0.164,0.123 0.532,0.327 0.736,0.409 -0.204,-0.082 -0.572,-0.286 -0.736,-0.409 z"
         id="path86" />
      <path
         d="m 235.634,306.318 c 0.205,0.082 0.573,0.286 0.736,0.409 -0.163,-0.123 -0.531,-0.327 -0.736,-0.409 z"
         id="path87" />
      <path
         d="m 309.132,312.859 c 0.164,-0.082 0.532,-0.287 0.736,-0.409 -0.204,0.122 -0.572,0.327 -0.736,0.409 z"
         id="path88" />
      <path
         d="m 251.577,313.267 c 0.204,0.123 0.572,0.327 0.735,0.409 -0.163,-0.082 -0.531,-0.286 -0.735,-0.409 z"
         id="path89" />
      <path
         d="m 306.271,314.085 c 0.204,-0.082 0.572,-0.286 0.736,-0.409 -0.164,0.123 -0.532,0.327 -0.736,0.409 z"
         id="path90" />
      <path
         d="m 254.438,314.494 c 0.164,0.122 0.531,0.327 0.736,0.409 -0.205,-0.082 -0.572,-0.287 -0.736,-0.409 z"
         id="path91" />
      <path
         d="m 303.409,315.311 c 0.205,-0.081 0.573,-0.286 0.736,-0.368 -0.163,0.082 -0.531,0.287 -0.736,0.368 z"
         id="path92" />
      <path
         d="m 299.73,316.946 c 0.164,-0.081 0.532,-0.286 0.736,-0.408 -0.204,0.122 -0.572,0.327 -0.736,0.408 z"
         id="path93" />
      <path
         d="m 260.978,317.355 c 0.205,0.123 0.573,0.327 0.736,0.409 -0.163,-0.082 -0.531,-0.286 -0.736,-0.409 z"
         id="path94" />
      <path
         d="m 296.869,318.173 c 0.164,-0.082 0.531,-0.286 0.736,-0.409 -0.205,0.123 -0.572,0.327 -0.736,0.409 z"
         id="path95" />
      <path
         d="m 291.146,320.625 c 0.205,-0.081 0.572,-0.286 0.736,-0.368 -0.164,0.082 -0.531,0.287 -0.736,0.368 z"
         id="path96" />
      <path
         d="m 270.38,321.443 c 0.164,0.123 0.532,0.327 0.736,0.409 -0.204,-0.082 -0.572,-0.286 -0.736,-0.409 z"
         id="path97" />
      <path
         d="m 287.467,322.26 c 0.205,-0.081 0.532,-0.286 0.736,-0.408 -0.204,0.122 -0.531,0.327 -0.736,0.408 z"
         id="path98" />
      <path
         d="m 273.242,322.71 c 0.163,0.082 0.531,0.286 0.736,0.368 -0.205,-0.082 -0.573,-0.286 -0.736,-0.368 z"
         id="path99" />
      <path
         d="m 284.606,323.487 c 0.163,-0.082 0.531,-0.286 0.736,-0.409 -0.205,0.123 -0.573,0.327 -0.736,0.409 z"
         id="path100" />
    </g>
  </g>
</svg>
