<?xml version="1.0" encoding="UTF-8"?>
<!DOCTYPE svg PUBLIC "-//W3C//DTD SVG 1.1//EN" "http://www.w3.org/Graphics/SVG/1.1/DTD/svg11.dtd">
<!-- Creator: CorelDRAW 2019 (64-Bit) -->
<svg xmlns="http://www.w3.org/2000/svg" xml:space="preserve" width="162.17mm" height="257.916mm" version="1.1" style="shape-rendering:geometricPrecision; text-rendering:geometricPrecision; image-rendering:optimizeQuality; fill-rule:evenodd; clip-rule:evenodd"
viewBox="0 0 161.9692 257.5965"
 xmlns:xlink="http://www.w3.org/1999/xlink"
 xmlns:xodm="http://www.corel.com/coreldraw/odm/2003">
 <defs>
  <style type="text/css">
   <![CDATA[
    .fil0 {fill:black}
   ]]>
  </style>
 </defs>
 <g id="Layer_x0020_1">
  <metadata id="CorelCorpID_0Corel-Layer"/>
  <path class="fil0" d="M129.0975 135.3723c0,62.4574 -26.2979,78.2951 -80.088,104.5929 10.2154,6.6474 20.9017,12.5401 31.9751,17.6314 41.2396,-19.4246 80.9847,-45.1242 80.9847,-113.259l0 -144.3375 -32.8718 0 0 135.3723zm-31.3778 -135.3723l0 0 0 129.0973c0,47.5146 -11.9541,61.5601 -73.514,89.0527 -6.8549,-8.2677 -12.3982,-17.5398 -16.4358,-27.4926 54.3885,-24.5048 57.0774,-28.3891 57.0774,-70.2261l0 -91.7431 -64.8472 0 0 -28.6881 97.7197 0z"/>
 </g>
</svg>
