<svg xmlns="http://www.w3.org/2000/svg" xmlns:xlink="http://www.w3.org/1999/xlink" version="1.1" id="HQFL" x="0px" y="0px" style="enable-background:new 0 0 595.3 841.9;" xml:space="preserve" viewBox="10.8 232.3 570.3 382.7">
<style type="text/css">
	.st0{fill:#265D98;}
	.st1{fill:#00AEEF;}
	.st2{fill:#FFFFFF;}
	.st3{fill:#D2AD14;}
</style>
<path class="st0" d="M190.7,359.9v117.7c0,121.2,103,137.3,104.1,137.4l0.3,0l0.3,0c1-0.1,104.1-16.3,104.1-137.4V359.9H190.7z"/>
<path class="st1" d="M295.1,612.7c0,0-102.1-14.6-102.1-135.1V362.2h204.1v115.3C397.2,598.2,295.1,612.7,295.1,612.7z"/>
<path class="st0" d="M200,369.2v108.3c0,107.6,85,126.2,94.7,128l0.4,0.1l0.4-0.1c9.7-1.8,94.7-20.4,94.7-128V369.2H200z"/>
<path class="st2" d="M387.9,371.6c0,15.7,0,106,0,106c0,104.9-81,123.5-92.8,125.7c-11.8-2.1-92.7-20.8-92.7-125.7c0,0,0-90.3,0-106  C218.5,371.6,371.7,371.6,387.9,371.6z"/>
<path class="st0" d="M221,431v41.9c0,82.3,56.3,102.3,73.6,106.5l0.5,0.1l0.5-0.1c17.3-4.2,73.6-24.2,73.6-106.5V431H221z"/>
<path class="st1" d="M320.6,433.3v133.4c0.1,0,0.2-0.1,0.3-0.2V433.3C320.7,433.3,320.6,433.3,320.6,433.3z"/>
<path class="st1" d="M270.9,433.3v134.1c0.1,0,0.2,0.1,0.3,0.1V433.3C271.1,433.3,271,433.3,270.9,433.3z"/>
<path class="st1" d="M223.3,433.3c0,19,0,39.6,0,39.6c0,55.5,25.8,82,47.6,94.5V433.3C252.8,433.3,236,433.3,223.3,433.3z"/>
<path class="st2" d="M271.2,433.3v134.3c9.7,5.5,18.6,8.3,23.9,9.6c5.6-1.4,15.1-4.4,25.4-10.5V433.3  C304.5,433.3,287.3,433.3,271.2,433.3z"/>
<path class="st1" d="M366.9,472.9c0,0,0-20.7,0-39.6c-12.3,0-28.5,0-46.1,0v133.2C342.2,553.7,366.9,527.1,366.9,472.9z"/>
<path class="st0" d="M238.5,394.5l-1.9,7.9H236c-0.1-1.2-0.3-2.2-0.6-2.9c-0.5-1.1-1.1-1.9-1.8-2.5c-0.8-0.6-1.6-0.9-2.4-0.9  c-0.8,0-1.6,0.3-2.2,1c-0.6,0.7-1,1.4-1,2.3c0,0.8,0.2,1.7,0.7,2.5c0.4,0.8,1.5,2,3.2,3.7c1.3,1.3,2.2,2.4,2.7,3.4  c0.5,0.9,0.7,2,0.7,3.1c0,1.2-0.3,2.4-0.9,3.4c-0.6,1-1.6,1.8-2.8,2.4c-1.2,0.6-2.6,0.9-4.1,0.9c-0.9,0-2.1-0.1-3.6-0.4  c-1.4-0.3-2.4-0.4-2.8-0.4c-0.4,0-0.7,0.1-1,0.2c-0.3,0.1-0.7,0.4-1.1,0.7h-0.7l1.9-8.8h0.6c0.1,1.6,0.4,2.9,0.9,4  c0.5,1.1,1.1,2,2,2.6c0.9,0.6,1.8,0.9,2.9,0.9c1.1,0,2-0.4,2.7-1.1c0.7-0.7,1.1-1.6,1.1-2.6c0-0.9-0.2-1.7-0.6-2.5  c-0.4-0.8-1.4-1.9-2.8-3.4c-1.5-1.5-2.5-2.8-3.1-4c-0.4-0.9-0.6-1.8-0.6-2.8c0-1.7,0.6-3.2,1.9-4.5c1.3-1.3,3-1.9,5.1-1.9  c0.9,0,2.2,0.2,3.7,0.7c0.9,0.3,1.6,0.4,1.9,0.4c0.3,0,0.6-0.1,0.9-0.2c0.3-0.1,0.5-0.4,0.9-0.8H238.5z"/>
<path class="st0" d="M239.9,413.1c0.8,0,1.4,0.3,1.9,0.8c0.5,0.5,0.8,1.2,0.8,2c0,0.8-0.3,1.4-0.8,2c-0.5,0.5-1.2,0.8-1.9,0.8  c-0.7,0-1.4-0.3-1.9-0.8c-0.5-0.6-0.8-1.2-0.8-2c0-0.8,0.3-1.4,0.8-2C238.5,413.3,239.2,413.1,239.9,413.1z"/>
<path class="st0" d="M265.5,394.5l-1.9,7.9h-0.5c-0.1-1.2-0.3-2.2-0.6-2.9c-0.5-1.1-1.1-1.9-1.8-2.5c-0.8-0.6-1.6-0.9-2.4-0.9  c-0.8,0-1.6,0.3-2.2,1c-0.6,0.7-1,1.4-1,2.3c0,0.8,0.2,1.7,0.7,2.5c0.4,0.8,1.5,2,3.2,3.7c1.3,1.3,2.2,2.4,2.7,3.4  c0.5,0.9,0.7,2,0.7,3.1c0,1.2-0.3,2.4-0.9,3.4c-0.6,1-1.6,1.8-2.8,2.4c-1.2,0.6-2.6,0.9-4.1,0.9c-0.9,0-2.1-0.1-3.6-0.4  c-1.4-0.3-2.4-0.4-2.8-0.4c-0.4,0-0.7,0.1-1,0.2c-0.3,0.1-0.7,0.4-1.1,0.7h-0.7l1.9-8.8h0.6c0.1,1.6,0.4,2.9,0.9,4  c0.5,1.1,1.1,2,2,2.6c0.9,0.6,1.8,0.9,2.9,0.9c1.1,0,2-0.4,2.7-1.1c0.7-0.7,1.1-1.6,1.1-2.6c0-0.9-0.2-1.7-0.6-2.5  c-0.4-0.8-1.4-1.9-2.8-3.4c-1.5-1.5-2.5-2.8-3.1-4c-0.4-0.9-0.6-1.8-0.6-2.8c0-1.7,0.6-3.2,1.9-4.5c1.3-1.3,3-1.9,5.1-1.9  c0.9,0,2.2,0.2,3.7,0.7c0.9,0.3,1.6,0.4,1.9,0.4c0.3,0,0.6-0.1,0.9-0.2c0.2-0.1,0.5-0.4,0.9-0.8H265.5z"/>
<path class="st0" d="M267,413.1c0.8,0,1.4,0.3,1.9,0.8c0.5,0.5,0.8,1.2,0.8,2c0,0.8-0.3,1.4-0.8,2c-0.5,0.5-1.2,0.8-1.9,0.8  c-0.7,0-1.4-0.3-1.9-0.8c-0.5-0.6-0.8-1.2-0.8-2c0-0.8,0.3-1.4,0.8-2C265.6,413.3,266.2,413.1,267,413.1z"/>
<path class="st0" d="M289.8,418.2H272l0.2-0.6c1,0,1.8-0.2,2.3-0.6c0.5-0.4,0.9-1.4,1.3-2.9l4.1-14.9c0.2-0.8,0.3-1.5,0.3-1.9  c0-0.5-0.2-0.8-0.5-1.1c-0.3-0.3-1-0.4-1.9-0.5l0.2-0.6h10.7l-0.2,0.6c-1,0-1.8,0.3-2.3,0.7c-0.5,0.5-1,1.4-1.4,2.8l-3.8,13.6  c-0.5,1.7-0.7,2.8-0.7,3.2c0,0.2,0.1,0.4,0.4,0.6c0.2,0.2,0.6,0.3,1.2,0.3c1.8,0,3.6-0.4,5.3-1.3c1.7-0.9,3.1-2.2,4.3-3.9h0.7  L289.8,418.2z"/>
<path class="st0" d="M301.5,409.3l6-7.5l-0.4,7.5H301.5z M307,413.7c-0.1,1.3-0.2,2.2-0.5,2.7c-0.3,0.5-0.5,0.9-0.8,1  c-0.2,0.1-0.7,0.2-1.6,0.2l-0.2,0.6h9.6l0.2-0.6c-0.7-0.1-1.2-0.3-1.5-0.6c-0.3-0.4-0.4-0.9-0.4-1.7c0-0.2,0-0.8,0-1.8l0.8-18.9  h-0.8l-15.7,19.6c-1.1,1.4-2,2.4-2.6,2.8c-0.5,0.3-1,0.5-1.6,0.7l-0.2,0.6h6.6v-0.6c-0.6,0-1.1-0.2-1.4-0.4  c-0.3-0.2-0.4-0.5-0.4-0.8c0-0.3,0.1-0.5,0.2-0.8c0.1-0.3,0.4-0.7,0.7-1.1l1.6-1.9l1.4-1.8h6.8L307,413.7z"/>
<path class="st0" d="M338.7,395.7l-17,21.2h1.3c2.6,0,4.8-0.4,6.4-1.2c1.6-0.8,3.1-2.2,4.5-4.1h0.7l-2.3,6.7h-17.3v-0.7l17-21.1  h-2.1c-2.7,0-4.6,0.3-5.9,1c-1.3,0.7-2.4,1.9-3.3,3.5H320l1.9-5.9h16.8V395.7z"/>
<path class="st0" d="M341.1,395.6l0.2-0.6h10.9l-0.2,0.6c-1,0-1.7,0.2-2.3,0.7c-0.5,0.5-1,1.4-1.4,2.9l-4.1,14.8  c-0.3,1.1-0.4,1.8-0.4,2.1c0,0.4,0.2,0.7,0.5,1c0.4,0.3,1.1,0.5,2.2,0.5l-0.2,0.6h-11l0.2-0.6c1.1,0,1.9-0.2,2.4-0.7  c0.5-0.4,1-1.4,1.4-2.9l4.1-14.8c0.3-0.9,0.4-1.6,0.4-2.1c0-0.4-0.2-0.8-0.5-1C343,395.9,342.2,395.7,341.1,395.6z"/>
<path class="st0" d="M367.4,397c0.6,0.7,0.8,1.8,0.8,3.4c0,2.5-0.5,5.3-1.6,8.5c-1.1,3.2-2.4,5.6-4.1,7.2c-0.8,0.8-1.8,1.2-3,1.2  c-0.9,0-1.6-0.4-2.2-1.1c-0.6-0.7-0.9-1.8-0.9-3.1c0-1.6,0.3-3.6,0.9-6.1c0.6-2.4,1.2-4.3,1.9-5.8c0.7-1.4,1.3-2.5,2-3.3  c0.6-0.8,1.3-1.3,1.9-1.6c0.6-0.3,1.3-0.5,2.2-0.5C366.2,395.9,366.9,396.3,367.4,397z M365,417.2c2.2-1.3,4.2-3.4,5.9-6.3  c1.8-2.9,2.6-5.8,2.6-8.6c0-1.3-0.3-2.5-1-3.8c-0.7-1.3-1.6-2.2-2.8-2.9c-1.2-0.7-2.5-1.1-3.8-1.1c-2.3,0-4.6,0.8-7,2.3  c-2.3,1.5-4.2,3.6-5.6,6.1c-1.4,2.6-2.1,5.1-2.1,7.6c0,1.2,0.3,2.5,0.8,3.8c0.6,1.3,1.4,2.4,2.5,3.1c1.1,0.8,2.5,1.1,4.3,1.1  C361.3,418.7,363.3,418.2,365,417.2z"/>
<path class="st3" d="M10.8,232.3c0,0,16.2,24.7,43.7,24.7c0,0,6.8,15.7,31.7,15.7c0,0,3.9,14,24.2,14c0,0,3.5,10.5,22.7,10.5  c0,0,1.7,7,17.5,7c0,0,9.2,10.5,24.7,10.5c0,0,3.5,7,15.7,7c0,0,5.7,7,13.8,7c0,0,4.9,7,12.2,7c0,0,5.9,10.7,29.9,10.7  c0,0-5.5,6.6-15.3,6.6c0,0,0.7,3.9,4.6,5c0,0-3.1,3.9-8.7,3.9c0,0,3.7,8.7,14.2,8.7c10.5,0,7.9-3.1,15.7,0c0,0,5.2,4.4-1.5,8.5  c0,0,5,1.4,10.5-6.8c0,0,2.8,3.3-0.4,6.8c0,0,6,0.8,10.5-8.5c0,0,7,3.3,0,8.5c0,0,7.5,0.8,10.7-8.5c0,0,6.1-2.4,10.5,0  c3.9,2.2-3.7,8.3-3.7,8.3s8.3,2.8,10.7-8.3c0,0,8.1-0.2,3.3,8.5c0,0,7.2,0.2,7.2-8.5c0,0,11.4-0.3,4.8,7.9c0,0,9.6,0.2,9-14  c0,0-0.9-5.5-6.8-5.5c0,0,11.1-2.4,15.7-12.9c0,0,8.3,4.2,17.3,0c0,0,10.9,1.1,15.9-8.7c0,0,9,1.1,14-8.7c0,0,10,0.9,17.5-8.7  c0,0,9.3,0.7,14.6-7c0,0,16.9,1.1,22.1-8.7c0,0,15.3,2.2,21.2-8.7c0,0,14.2,1.7,21-10.5c0,0,16.4,1.5,26-12.2c0,0,19.9,2,29.7-14  c0,0,28.6,3.1,43.9-26.4H381.2c0,0-23.6-0.9-40.2,15.7c0,0-25.8,29.7-46.1,29.7c0,0-10.3,2.8-34.1-21c0,0-21.4-24.5-50.5-24.5H10.8z  "/>
<path class="st2" d="M255.8,365.2c0,0,4.5,1.5,4.5,4.8c0,0,2.6-3.8-1.3-6.4L255.8,365.2z"/>
<path class="st2" d="M265.9,365c0,0,6,2,6,5.4c0,0,1.2-4.4-2.8-7L265.9,365z"/>
<path class="st2" d="M297.7,365.2c0,0,3.9,1.2,3.9,4.5c0,0,3.2-3.5-0.7-6.1L297.7,365.2z"/>
<path class="st2" d="M276.6,365.3c0,0,6.6,2.3,4.1,5c0,0,7.1-3.6-0.7-6.8L276.6,365.3z"/>
<path class="st2" d="M308.1,365.2c0,0,3.8,1.3,3.8,4.5c0,0,3.8-3.6-0.3-7.9C311.6,361.8,307.9,363.1,308.1,365.2z"/>
<path class="st2" d="M316.8,365.2c0,0,5.4,1.3,5,3.1c0,0,3.1-2.6,0.1-6.4C321.9,361.8,317.8,361.2,316.8,365.2z"/>
<path class="st2" d="M281.9,361.7l5.2-5.1c0,0,2.5,1.7,12.1,1.7C299.2,358.3,299.9,361.7,281.9,361.7z"/>
<path class="st2" d="M238.2,361.7l4.5-4.1c0,0-0.7,0.9,12.8,0.9C255.5,358.5,254.5,361.7,238.2,361.7z"/>
<path class="st2" d="M245.2,354.6l14-8.4c0,0,12.7-7,19.2-7c0,0,9.6-0.3,9.6,7c0,0-0.3,8.6-20.8,8.6  C267.1,354.7,245.7,355.7,245.2,354.6z"/>
<path class="st2" d="M292.8,354.6l24.5-17.3c0,0,2.9-1.9,8-1.9c0,0,5.1,0,5.1,3.6c0,0,1.5,14.1-25.5,16.6  C304.9,355.6,297.6,356.3,292.8,354.6z"/>
<path class="st2" d="M295.8,337.5c0,0,11.9,0.7,14-7.1c0,0-0.7,2.2-9.5,2.3L295.8,337.5z"/>
<path class="st2" d="M276.6,335.3l1.9-3.2c0,0,7.3,0.6,8.6-3.5l6.8,3.5C293.9,332.1,293.9,341.2,276.6,335.3z"/>
<path class="st2" d="M255.6,335.5l3.5-5.1h6.8c0,0,0.6,1.6,5.2,1.6C271.2,332,271.5,337.2,255.6,335.5z"/>
<path class="st2" d="M314.9,332c0,0,5.2-3.3,5.2-10.3c0,0,0,0-5.1,1.7C315.1,323.4,311.4,331.4,314.9,332z"/>
<path class="st2" d="M293.9,325.1c0,0,1.2,7.9,15.6,1.6l-1.5-3.3L293.9,325.1z"/>
<path class="st2" d="M267.6,318.1c0,0,0.3,1.6,3.5,1.7c0,0-1.2,5.7-10,5.1C261,325,261.8,320.5,267.6,318.1z"/>
<path class="st2" d="M269.6,326.9c0,0,3.9,3.9,15.6-0.1l-3.5-5C281.7,321.8,272.1,322.4,269.6,326.9z"/>
<path class="st2" d="M280.4,313.2c0,0,2,1.6,6.3,1.6c0,0-7.9,8.4-13.5,1.6L280.4,313.2z"/>
<path class="st2" d="M288.8,321.5c0,0,11.8,1.5,15.6-5.1l-5.2-3.5C299.2,312.9,288.8,316.8,288.8,321.5z"/>
<path class="st2" d="M320.3,332c0,0,7.3,0.3,13.8-7c0,0-0.1-2.6-3.3-3.3c0,0-2.8-0.1-5.1,1.7C325.7,323.4,320.7,330.1,320.3,332z"/>
<path class="st2" d="M322,311.3c0,0,1.7,1.7,1.7,8.4h6.8c0,0-4.7-3.1-5.2-8.6L322,311.3z"/>
<path class="st2" d="M318.4,311.2c0,0,0.1,3.8,1.7,5.1c0,0-2.5,4.7-11.9,3.5l3.3-5.1L318.4,311.2z"/>
<path class="st2" d="M306.5,311l3.4-5.1c0,0,5,0.9,10.3-1.7C320.2,304.2,319.1,311,306.5,311z"/>
<path class="st2" d="M308.2,298.9l3.3-3.5c0,0,0.7,1.7,8.6,1.7C320.2,297.2,312.1,307.5,308.2,298.9z"/>
<path class="st2" d="M301.1,302.4l3.3,3.3c0,0-1.7,5.2-17.3,5.2l1.7-5.1C288.8,305.9,299.5,307.1,301.1,302.4z"/>
<path class="st2" d="M224.2,295.4c0,0,1,3.9,5.1,5.1h54.2c0,0,5.1,4.2,17.5,0c0,0,3.5-0.7,5.2-6.8c0,0-2,0.6-3.5-3.6  c0,0-7.7-0.1-14,5.4H224.2z"/>
<path class="st2" d="M215.3,295.4c2.5,3.9,5.4,5.1,5.4,5.1h-68.3c0,0-5.8-0.1-10.3-5.1H215.3z"/>
<path class="st2" d="M229.3,304.2c0.7,4.1,3.5,5.1,3.5,5.1H170c0,0-3.9,0.3-7-5.1H229.3z"/>
<path class="st2" d="M238.3,304.2c0,0,1,3.9,5,5.1h28.3l-1.9,3.5c0,0,11.1,1.2,13.8-8.6H238.3z"/>
<path class="st2" d="M184,312.9c0,0,3.5,4.2,7,5.1h55.8c0,0-3.2-0.9-5-5.1H184z"/>
<path class="st2" d="M248.8,312.9c0,0,0.4,3.1,5,5.1h7c3.6-1.3,3.5-5.1,3.5-5.1H248.8z"/>
<path class="st2" d="M199.7,321.6c0,0,0.7,1.9,3.3,3.3h54.2c0,0,1.7-0.9,1.7-3.3H199.7z"/>
<path class="st2" d="M211.8,328.8c0,0-0.3,1.5,1.9,3.2H252c2,0,1.9-3.3,1.9-3.3L211.8,328.8z"/>
<path class="st2" d="M224.3,335.6c0,0,1.6,2.9,5.2,3.3H245c2.2-1,1.7-3.3,1.7-3.3H224.3z"/>
<path class="st2" d="M313.3,279.6h87.2c0,0,6.1-1.6,8.9-6.8h-75.1l9-8.9h81.8c0,0,6.7-0.9,10.3-6.8h-82.1c0,0,8.9-8.9,15-8.9  l89.9,0.1c0,0,6.8-0.9,10.5-8.7h-94.4c0,0-16.6,1.2-33.1,17.5C341.3,257,327,273.6,313.3,279.6z"/>
<path class="st2" d="M477.4,239.5c0,0-1,5.4-8.6,8.7l82,0c0,0,9.2-2.2,12.2-8.8H477.4z"/>
<path class="st2" d="M444.4,257c0,0,0.1,3.3-7,6.8h78.5c0,0,7.9-0.9,10.5-6.8H444.4z"/>
<path class="st2" d="M418.2,272.7c0,0,0.3,3.6-6.8,6.8h71.5c0,0,7.9,0.9,13.8-6.8H418.2z"/>
<path class="st2" d="M385,283.2c0,0,1.7,2.8,1.7,7h69.8c0,0,10.2,1.2,15.9-7H385z"/>
<path class="st2" d="M121.1,284.9c0,0,1,4.1,7,5.1H198c0,0-2.9-1-5.4-5.1H121.1z"/>
<path class="st2" d="M96.6,272.9c0,0,3.1,6.7,10.5,6.7h73.2c0,0-5.2-2.6-6.8-6.8L96.6,272.9z"/>
<path class="st2" d="M65.2,256.8c0,0,4.1,7,10.5,7h78.5c0,0-5-1.7-7-6.8L65.2,256.8z"/>
<path class="st2" d="M30.2,239.5c0,0,3.9,8.6,12.2,8.6h80.2c0,0-6-3.3-7-8.6H30.2z"/>
<path class="st2" d="M300.9,283.2v5.1c0,0-10.3-0.1-12.1,3.5h-2.2c0,0-2.6,0.6-3.2-1.7h-73.2c0,0-5.1-0.1-7-5.1h69.9l-5.4-5.4h-74.9  c0,0-6.7-1-8.9-6.8h75.3l-9-8.9h-82c0,0-6.7-0.6-8.9-6.8h80.5c0,0-7.9-8.9-15.3-8.9h-89.6c0,0-8.7-0.6-10.5-8.6h92.6  c0,0,16.9-0.3,38.3,21c0,0,21.4,22.7,33.5,22.7H300.9z"/>
<path class="st2" d="M409.6,295.6c0,0,1.6,1,1.6,5h31.3c0,0,4.5-0.1,7-5.1L409.6,295.6z"/>
<path class="st2" d="M409.4,309.3c0,0,3.2-1.6,3.6-5.1h17.2c0,0,0.1,4.1-5.2,5.1H409.4z"/>
<path class="st2" d="M348.3,318c0,0,4.1-1,7-5.1h52.4c0,0-2.8,5.1-9,5.1H348.3z"/>
<path class="st2" d="M339.7,325c0,0,2.3-0.4,3.3-3.3h48.9c0,0-0.9,3.3-3.5,3.3H339.7z"/>
<path class="st2" d="M332.5,332c0,0,2-0.1,3.5-3.3h43.5c0,0-0.9,3.2-3.5,3.3H332.5z"/>
<path class="st2" d="M343,335.6c0,0,1.5,1,1.7,3.5h19.1c0,0,0.3-1.9,1.7-3.5H343z"/>
<path class="st2" d="M381.3,293.5c0,0,1.2-10.3-10.2-10.3h-64.7c0,0,1,10.3,14.1,10.3h11.9c0,0-7.1,2.5-8.6,7h3.5c0,0-3.5,2.8-3.5,7  h6.8c0,0-3.8,3.8,0,7c0,0,5.5,6.3,19.2-3.6c0,0,5.8-3.8,8.9-3.3c0,0,2.6-0.3,3.5,1.7H404c0,0-2.5-5.1-10-6.4h-26.6v-2.7l31.6-0.1  c0,0,5.7,0.3,7,3.9c0,0-0.8-10.3-9.5-10.3h-15.1c0,0-5.3,5.2-10.4,5.2c0,0-5.4,0.1-5.4-3.6h-13.8c0,0,0.7-1.7,3.9-1.7H381.3z"/>
</svg>