<?xml version="1.0" encoding="UTF-8"?>
<!DOCTYPE svg PUBLIC "-//W3C//DTD SVG 1.1//EN" "http://www.w3.org/Graphics/SVG/1.1/DTD/svg11.dtd">
<!-- Creator: CorelDRAW 2019 (64-Bit) -->
<svg xmlns="http://www.w3.org/2000/svg" xml:space="preserve" width="190.457mm" height="228.874mm" version="1.1" style="shape-rendering:geometricPrecision; text-rendering:geometricPrecision; image-rendering:optimizeQuality; fill-rule:evenodd; clip-rule:evenodd"
viewBox="0 0 188.5885 226.6293"
 xmlns:xlink="http://www.w3.org/1999/xlink"
 xmlns:xodm="http://www.corel.com/coreldraw/odm/2003">
 <defs>
  <style type="text/css">
   <![CDATA[
    .fil5 {fill:#FEFEFE;fill-rule:nonzero}
    .fil2 {fill:#B78744;fill-rule:nonzero}
    .fil3 {fill:#8AB8E1;fill-rule:nonzero}
    .fil1 {fill:url(#id0);fill-rule:nonzero}
    .fil0 {fill:url(#id1);fill-rule:nonzero}
    .fil4 {fill:url(#id2);fill-rule:nonzero}
   ]]>
  </style>
  <linearGradient id="id0" gradientUnits="userSpaceOnUse" x1="94.2943" y1="220.0734" x2="94.2943" y2="6.4017">
   <stop offset="0" style="stop-opacity:1; stop-color:#102A5C"/>
   <stop offset="1" style="stop-opacity:1; stop-color:#0B0F2C"/>
  </linearGradient>
  <linearGradient id="id1" gradientUnits="userSpaceOnUse" x1="94.2943" y1="226.6293" x2="94.2943" y2="0">
   <stop offset="0" style="stop-opacity:1; stop-color:#0B0F2C"/>
   <stop offset="1" style="stop-opacity:1; stop-color:#0C244F"/>
  </linearGradient>
  <linearGradient id="id2" gradientUnits="userSpaceOnUse" x1="94.2944" y1="209.6096" x2="94.2944" y2="16.6459">
   <stop offset="0" style="stop-opacity:1; stop-color:#102A5C"/>
   <stop offset="0.8" style="stop-opacity:1; stop-color:#0E1D44"/>
   <stop offset="1" style="stop-opacity:1; stop-color:#0B0F2C"/>
  </linearGradient>
 </defs>
 <g id="Layer_x0020_1">
  <metadata id="CorelCorpID_0Corel-Layer"/>
  <g id="_731255584">
   <path class="fil0" d="M160.3606 169.6196c23.8504,-36.8325 28.2279,-74.7211 28.2279,-101.1379 0,-27.4732 -3.8745,-41.7131 -3.8745,-41.7131 0,0 -16.0403,-1.9163 -42.1661,-9.5601 -27.1714,-7.9502 -48.2535,-17.2085 -48.2535,-17.2085 0,0 -21.0826,9.2583 -48.2539,17.2085 -26.1255,7.6438 -42.1659,9.5601 -42.1659,9.5601 0,0 -3.8746,14.2398 -3.8746,41.7131 0,26.4168 4.3777,64.3054 28.2282,101.1379 24.8314,38.3478 66.0662,57.0097 66.0662,57.0097 0,0 41.2347,-18.6618 66.0662,-57.0097z"/>
   <path class="fil1" d="M47.6937 22.8587c22.297,-6.5242 40.3231,-13.8182 46.6007,-16.457 6.2777,2.6388 24.303,9.9328 46.6004,16.457 18.8314,5.5097 32.4582,8.0894 38.9257,9.1401 1.0789,5.7283 2.8808,18.0509 2.8808,36.483 0,37.0299 -9.1795,69.9811 -27.2825,97.9384 -12.2565,18.9276 -28.8232,32.8024 -40.5628,41.1083 -9.13,6.4599 -16.8255,10.6429 -20.5615,12.545 -3.7364,-1.9022 -11.4322,-6.0851 -20.5616,-12.545 -11.7397,-8.3059 -28.3065,-22.1807 -40.5632,-41.1083 -18.1033,-27.9573 -27.2823,-60.9085 -27.2823,-97.9384 0,-18.4321 1.8019,-30.7547 2.881,-36.483 6.4675,-1.0507 20.0944,-3.6303 38.9255,-9.1401z"/>
   <path class="fil2" d="M94.2944 213.0434c-11.0467,-5.9639 -36.8873,-20.4596 -56.1033,-48.9085 -18.0138,-26.6681 -26.5675,-58.2963 -26.5675,-93.9971 0,-14.3849 1.6445,-26.4825 2.6164,-32.8469 7.551,-1.3737 20.8221,-3.8636 36.5305,-8.4375 20.2801,-5.9046 35.6776,-12.2608 43.5239,-15.4691 7.8463,3.2082 23.2434,9.5645 43.5236,15.4691 15.7088,4.5739 28.9797,7.0638 36.531,8.4375 0.9715,6.3645 2.6161,18.462 2.6161,32.8469 0,35.7008 -8.5542,67.329 -26.5675,93.9971 -19.2159,28.4489 -45.0573,42.9446 -56.1032,48.9085z"/>
   <path class="fil3" d="M94.2944 209.6096c-10.0073,-5.4448 -35.1709,-19.879 -53.6018,-47.1647 -11.7074,-17.3324 -19.5062,-37.1726 -23.3204,-59.2521l-0.0364 -0.177c13.8845,-4.4235 40.3258,-10.8336 76.9586,-10.8336l0 1.5088 0 22.1143 0.0026 0.2142c-1.0323,0.944 -1.9387,1.789 -2.719,2.2764 -0.897,0.5604 -2.4045,1.0104 -3.1209,1.2049 -0.2483,0.0668 -0.3527,0.2101 -0.2584,0.3026 0.5738,0.5604 2.8341,1.9741 6.0983,2.3661l-0.0026 0.3152 0 6.4215 0.0007 0.208 -0.3524 -2.2139c-4.5285,0.6535 -9.2081,3.573 -9.2081,3.573l-0.1007 -1.3591c-4.0756,0.1515 -7.8998,3.3213 -10.0633,4.7802 -2.1637,1.4593 -5.0824,3.5724 -8.4534,3.7743 -3.3714,0.2006 -6.2898,-2.4156 -7.598,-6.6422 -1.308,-4.2268 0.2014,-8.4532 3.0693,-9.7614 2.8683,-1.3085 5.1829,-0.7552 7.1955,1.107 2.013,1.8616 3.0693,1.7108 7.3969,1.6101 4.327,-0.1006 5.9875,-1.8114 5.8365,-2.4152 -0.1509,-0.6038 -1.2578,-0.3527 -3.2704,-0.9565 -2.0128,-0.6038 -2.8682,-1.4088 -2.8682,-1.4088 0,0 3.7234,0 5.5853,-0.2514 1.8618,-0.2511 3.0692,-1.0568 3.1195,-1.8115 0.0503,-0.7546 -2.7171,-2.8681 -9.6105,-4.1761 -6.8937,-1.3086 -15.196,0.7042 -19.4228,4.478 -4.2265,3.7736 -5.8365,10.064 -4.2765,17.4099 1.5595,7.3462 5.3836,11.2204 13.183,14.2896 5.5826,2.1972 11.1702,2.3149 11.1702,2.3149 0,0 0.3522,0.6543 -0.6036,2.0127 -0.956,1.3584 -2.2644,3.5218 -2.8682,4.3276 -0.6038,0.805 -1.4087,0.7044 -2.6165,1.1069 -1.2076,0.4018 -3.1195,1.2577 -4.2268,2.2641 -1.1069,1.0063 -1.1572,1.8108 -0.8048,1.9121 0.3522,0.1006 2.3144,-0.9057 3.4717,-0.8555 0,0 0.0504,1.0069 -0.2011,1.8622 -0.2516,0.8549 -0.2516,1.3082 0.1508,1.3082 0.4026,0 1.7611,-1.1076 3.0694,-1.9629 1.3082,-0.8552 1.8115,-1.2069 2.2643,-0.8552 0.4529,0.3521 0.2015,1.7105 0.5033,1.9125 0.3019,0.2012 2.7171,-1.0064 3.2201,-1.4597 0.5032,-0.4527 0.956,-2.1635 -1.0063,-3.0187 0,0 0.3019,-1.8623 1.4592,-3.1704 1.1574,-1.3082 3.2709,-2.4654 4.6796,-3.2704 1.4088,-0.8051 1.9627,-1.2584 1.3083,-2.4153 -0.6544,-1.1571 -0.5033,-4.1764 -0.5033,-4.1764 0,0 0.3524,2.4156 3.5725,4.3777 2.5849,1.575 4.9117,1.6964 7.81,1.1588l-0.0113 0.3506 0 1.5853 0.0081 0.5687c-4.5914,1.359 -6.6363,2.8754 -7.1024,3.9345 -0.5531,1.2581 -0.3522,2.7172 -0.0502,2.7172 0.3018,0 0.5533,-1.4597 1.9623,-2.4654 1.0373,-0.7417 2.6207,-1.455 5.1913,-1.9404l-0.009 0.8078 0 49.4373 0 2.1007z"/>
   <path class="fil4" d="M16.8478 99.9796c-1.4683,-9.5459 -2.2053,-19.5003 -2.2053,-29.8419 0,-9.7642 0.7523,-19.693 2.2759,-30.268 6.8933,-1.2712 19.8483,-3.7945 34.6958,-8.1179 19.5082,-5.6798 34.4127,-11.7251 42.6802,-15.106 8.2675,3.3808 23.1719,9.4261 42.6797,15.1062 14.8484,4.3232 27.8028,6.8465 34.6964,8.1177 1.5231,10.5749 2.2757,20.5038 2.2757,30.268 0,10.3422 -0.7372,20.2972 -2.2055,29.844l-0.1058 -0.037c-15.3945,-4.8254 -42.2288,-10.7816 -77.3405,-10.7816 -35.0859,0 -61.9061,5.9472 -77.3065,10.7707l-0.1401 0.0458zm77.4466 109.63l0 0c10.0077,-5.4448 35.1711,-19.879 53.6013,-47.1647 11.7397,-17.3802 19.5495,-37.2821 23.3521,-59.4348l-0.1098 -0.0312c-13.9157,-4.4221 -40.3124,-10.7967 -76.8436,-10.7967l0 1.5088 0 22.1143 0.0026 0.214c0.5651,-0.5169 1.1684,-1.0638 1.8091,-1.5978 1.8118,-1.5093 5.1828,-2.5662 7.5478,-2.8176 2.3647,-0.2516 3.8742,0 3.8742,0.352 0,0.3524 -1.0565,0.1007 -2.6162,0.7549 -0.9568,0.4012 -1.6606,0.956 -1.6606,0.956 0.805,-0.3019 4.4783,-0.8052 7.3462,-0.5533 2.8679,0.2514 4.6796,1.2576 4.5789,1.5596 -0.1006,0.3019 -1.3645,0.2316 -2.9183,0.7046 -2.3146,0.7042 -3.7238,2.0121 -6.0381,3.673 -2.3149,1.6603 -5.6859,3.2704 -10.3655,3.2206 -0.5407,-0.0061 -1.061,-0.0419 -1.5577,-0.102l-0.0026 0.3152 0 6.4215 0.0007 0.208c0,0 1.8106,-1.0063 4.4779,-1.8616 2.6666,-0.8555 3.8745,-1.1069 3.8745,-1.1069l0.4527 2.7168c0,0 4.8303,-2.4149 8.0004,-2.4647l0.3524 2.6158c0,0 4.7802,-1.761 8.2015,-1.9121l0.2013 2.3655c0,0 4.3773,-0.4534 6.491,0.0498l-0.1511 2.1137c0,0 4.0253,0.7548 5.9381,1.7107l-0.6045 1.459c0,0 2.4653,1.6101 3.7739,2.768l-0.8548 1.0056c0,0 2.3643,2.7673 3.1193,5.6358 0.7545,2.8679 0.3773,7.5884 -3.321,11.0192 -3.472,3.2206 -8.9059,2.6165 -11.9252,2.3146 -3.019,-0.3019 -6.1387,-0.7542 -6.1387,-0.7542 0,0 0.6035,-2.5667 2.9689,-4.5797 0,0 2.566,0.2521 4.8806,0.0509 2.3146,-0.2013 3.7234,-0.3019 4.7294,-1.6604 1.007,-1.359 1.0571,-2.9187 -0.1508,-4.176 -1.2072,-1.2585 -2.9685,-1.5099 -5.0818,-1.661 -2.1134,-0.1508 -3.6228,0.3019 -3.6228,0.3019 0,0 -1.9121,-0.1514 -2.8178,-4.6294 0,0 -0.5536,2.2648 0.3019,5.032 0.8555,2.768 2.667,4.478 2.667,4.478 0,0 -2.9512,2.3648 -4.8307,4.4783 -2.0127,2.2648 -2.0127,4.6295 -2.0127,4.6295 0,0 1.7613,1.0063 2.4152,2.1634 0.6543,1.1575 -1.3082,2.5159 -3.5727,3.0692 0,0 0,-1.3583 -0.2009,-1.6603 -0.2012,-0.3019 -0.9561,-0.3019 -2.2644,0.5031 -1.3082,0.8051 -3.3213,2.3146 -3.3213,2.3146 0,0 -0.2009,-0.7044 0,-1.6101 0.2016,-0.9057 0.2521,-1.5597 -0.5028,-1.5597 -0.7545,0 -2.9688,0.8051 -2.9688,0.8051 0,0 -0.3019,-1.1069 1.4088,-2.214 1.7108,-1.1069 5.1323,-2.1634 5.1323,-2.1634 0,0 1.7111,-4.9314 2.5162,-7.1955 0,0 -2.3651,-1.1069 -4.3275,-3.3717 0,0 -4.9812,2.3654 -10.9687,3.8749 -0.7944,0.1998 -1.5413,0.3721 -2.2537,0.5045l-0.0113 0.3506 0 1.5853 0.0081 0.5687c0.8616,-0.2552 1.8127,-0.5053 2.8604,-0.745 7.2459,-1.6604 12.7299,-1.6604 12.7299,-1.6604 0,0 -0.9561,2.566 -1.3078,4.1256 0,0 -6.5913,-0.3018 -11.1198,0.1007 -1.1943,0.106 -2.241,0.2514 -3.1617,0.425l-0.009 0.8078 0 49.4373 0 2.1007z"/>
   <path class="fil5" d="M146.0441 70.5057l6.2475 4.3434c-3.2363,5.451 -9.0287,8.8161 -16.5608,8.8788 -11.7485,0.0982 -20.2523,-9.2701 -20.2523,-20.7054 0,-11.4354 9.0676,-20.7056 20.2523,-20.7056 7.6508,0 12.8585,3.3659 15.9461,8.2079l-6.2041 4.4033c0,0 -2.1686,-5.0637 -9.5861,-5.1393 -7.5764,-0.0769 -12.1057,5.8697 -12.1057,13.2084 0,3.8407 1.1707,7.4288 3.5713,9.9204 2.2272,2.3119 5.1565,3.6189 8.4651,3.4896 7.0842,-0.2771 9.1924,-4.1797 10.2267,-5.9015z"/>
   <polygon class="fil5" points="61.472,83.0235 69.6235,83.0235 69.6235,42.4678 61.472,42.4678 61.4728,63.425 44.4399,63.425 44.4394,42.4678 36.2881,42.4678 36.2881,83.0235 44.4394,83.0235 44.4399,70.595 61.4728,70.595 "/>
   <polygon class="fil5" points="75.5248,188.5298 75.5248,178.1056 72.5748,180.6711 72.5748,177.2728 75.5248,174.7137 78.7052,174.7137 78.7052,188.521 75.5248,188.521 "/>
   <path class="fil5" d="M87.0099 188.642c-2.5414,0 -4.6379,-1.3747 -4.6379,-4.2453 0,-1.7265 1.0318,-2.5441 1.5539,-2.972 -0.4868,-0.4052 -1.4159,-1.2406 -1.4159,-2.7294 0,-2.626 2.1343,-4.0952 4.4998,-4.0952 2.3721,0 4.5005,1.4706 4.5005,4.0952 0,1.4888 -0.9302,2.3242 -1.416,2.7294 0.5274,0.4272 1.5504,1.2455 1.5504,2.972 -0.0028,2.8733 -2.0929,4.2453 -4.635,4.2453zm0 -5.7817l0 0c-0.7943,0 -1.4565,0.6665 -1.4565,1.4641 0,0.7979 0.6621,1.4596 1.4565,1.4596 0.7941,0 1.4544,-0.6577 1.4544,-1.4596 0,-0.7997 -0.6579,-1.4641 -1.4544,-1.4641zm0 -5.3875l0 0c-0.7389,0 -1.3193,0.5857 -1.3193,1.3246 0,0.7341 0.5771,1.3165 1.3193,1.3165 0.7339,0 1.319,-0.5823 1.319,-1.3165 0,-0.7389 -0.5859,-1.3246 -1.319,-1.3246z"/>
   <polygon class="fil5" points="101.1663,188.5305 97.6684,188.5305 101.9782,177.5843 99.0316,177.5843 99.0316,179.7624 96.006,179.7624 96.006,174.7232 105.4725,174.7232 105.4725,177.5898 "/>
   <path class="fil5" d="M107.1545 188.5305l0 -2.8733 5.0048 -5.4346c0.5069,-0.5328 0.7037,-0.8917 0.7037,-1.4747 0,-0.7618 -0.4272,-1.2844 -1.2435,-1.2844 -0.5823,0 -1.2802,0.278 -1.2802,1.3495l-3.1875 0c0,-2.7215 2.059,-4.2109 4.4589,-4.2109 2.5591,0 4.4302,1.5712 4.4302,4.1724 0,1.4593 -0.6041,2.2275 -1.7124,3.3925l-3.3035 3.4901 5.0159 0 0 2.8733 -8.8865 0z"/>
   <path class="fil5" d="M70.1927 102.9995c-0.2515,-3.824 -0.8047,-4.78 -0.2011,-4.8303 0.7672,-0.0639 1.7109,0.3522 2.7173,1.4591 1.0063,1.1068 1.9119,3.4215 1.9119,3.4215 1.1573,-4.4783 3.019,-5.2832 3.5727,-5.2832 0.5536,0 0.7044,0.5534 0.7044,1.7611 0,1.2075 0.1006,3.5221 0.1006,3.5221 1.6605,-2.1636 3.4215,-2.9686 3.8744,-2.9182 0.453,0.0503 0.453,0.503 0.302,1.308 -0.1513,0.8051 -0.2517,2.0127 -0.2517,2.0127 0.2516,-0.4023 0.7547,-0.805 1.0063,-0.7044 0.2516,0.1008 0,0.4529 -0.4528,2.1637 -0.4531,1.7108 -1.5095,5.183 -1.5095,5.183 0,0 -2.6669,-0.8054 -7.8495,-0.9058 -5.1825,-0.1007 -7.1955,0.6037 -7.1955,0.6037 0,0 -0.5028,-2.0125 -1.0059,-4.2265 -0.5035,-2.2142 -1.0449,-2.8327 -0.7046,-2.9689 0.5032,-0.2011 1.0063,0.8553 1.0063,0.8553 0,0 -0.2013,-1.308 -0.3017,-2.0127 -0.1007,-0.7045 -0.3023,-1.308 0.1004,-1.4591 0.4026,-0.1508 1.0063,0.1007 2.2142,1.1069 1.2074,1.0064 1.962,1.9121 1.962,1.9121z"/>
   <path class="fil5" d="M88.4571 119.5007c-0.2483,0.0668 -0.3527,0.2101 -0.2584,0.3026 0.6612,0.6464 3.5614,2.4241 7.656,2.4681 4.6796,0.0498 8.0506,-1.5603 10.3655,-3.2206 2.3143,-1.6606 3.7235,-2.9688 6.0381,-3.673 1.5538,-0.4728 2.8177,-0.4025 2.9183,-0.7046 0.1007,-0.302 -1.7111,-1.308 -4.5789,-1.5596 -2.8679,-0.2517 -6.5412,0.2514 -7.3462,0.5533 0,0 0.7037,-0.5548 1.6606,-0.9558 1.5596,-0.6544 2.6162,-0.4027 2.6162,-0.7549 0,-0.3522 -1.5095,-0.6038 -3.8742,-0.3522 -2.3651,0.2514 -5.7361,1.3082 -7.5478,2.8176 -1.811,1.5096 -3.3207,3.1199 -4.528,3.8744 -0.897,0.5604 -2.4045,1.0104 -3.1209,1.2049z"/>
   <path class="fil5" d="M107.5281 148.1339c0,0 -4.9812,2.3654 -10.9687,3.8749 -4.0235,1.0145 -6.8433,1.3082 -10.0637,-0.6543 -3.2201,-1.9622 -3.5725,-4.3777 -3.5725,-4.3777 0,0 -0.1511,3.0193 0.5033,4.1764 0.6543,1.1568 0.1005,1.6101 -1.3083,2.4153 -1.4087,0.805 -3.5222,1.9622 -4.6796,3.2704 -1.1573,1.3081 -1.4592,3.1704 -1.4592,3.1704 1.9624,0.8552 1.5095,2.566 1.0063,3.0187 -0.503,0.4533 -2.9182,1.6609 -3.2201,1.4597 -0.3018,-0.202 -0.0504,-1.5603 -0.5033,-1.9125 -0.4528,-0.3517 -0.956,0 -2.2643,0.8552 -1.3083,0.8552 -2.6668,1.9629 -3.0694,1.9629 -0.4024,0 -0.4024,-0.4533 -0.1508,-1.3082 0.2515,-0.8552 0.2011,-1.8622 0.2011,-1.8622 -1.1573,-0.0502 -3.1195,0.9561 -3.4717,0.8555 -0.3524,-0.1013 -0.3021,-0.9057 0.8048,-1.9121 1.1073,-1.0063 3.0192,-1.8623 4.2268,-2.2641 1.2077,-0.4025 2.0127,-0.3019 2.6165,-1.1069 0.6038,-0.8058 1.9122,-2.9692 2.8682,-4.3276 0.9558,-1.3583 0.6036,-2.0127 0.6036,-2.0127 0,0 -5.5876,-0.1176 -11.1702,-2.3149 -7.7994,-3.0692 -11.6236,-6.9434 -13.183,-14.2896 -1.5599,-7.3459 0.05,-13.6363 4.2765,-17.4099 4.2268,-3.7738 12.5291,-5.7867 19.4228,-4.478 6.8934,1.308 9.6608,3.4215 9.6105,4.1761 -0.0503,0.7546 -1.2577,1.5603 -3.1195,1.8115 -1.8619,0.2514 -5.5853,0.2514 -5.5853,0.2514 0,0 0.8554,0.805 2.8682,1.4088 2.0126,0.6038 3.1195,0.3527 3.2704,0.9565 0.151,0.6038 -1.5094,2.3146 -5.8365,2.4152 -4.3276,0.1007 -5.384,0.2515 -7.3969,-1.6101 -2.0127,-1.8623 -4.3272,-2.4156 -7.1955,-1.107 -2.8679,1.3082 -4.3773,5.5346 -3.0693,9.7614 1.3082,4.2266 4.2266,6.8428 7.598,6.6422 3.371,-0.2019 6.2897,-2.315 8.4534,-3.7743 2.1635,-1.4589 5.9877,-4.6287 10.0633,-4.7802l0.1007 1.3591c0,0 4.6795,-2.9195 9.2081,-3.573l0.3524 2.2139c0,0 1.8106,-1.0063 4.4779,-1.8616 2.6666,-0.8555 3.8745,-1.1069 3.8745,-1.1069l0.4527 2.7168c0,0 4.8303,-2.4149 8.0004,-2.4647l0.3524 2.6158c0,0 4.7802,-1.761 8.2015,-1.9121l0.2013 2.3655c0,0 4.3773,-0.4534 6.491,0.0498l-0.1511 2.1137c0,0 4.0253,0.7548 5.9381,1.7107l-0.6045 1.459c0,0 2.4653,1.6101 3.7739,2.768l-0.8548 1.0056c0,0 2.3643,2.7673 3.1193,5.6358 0.7545,2.8679 0.3773,7.5884 -3.321,11.0192 -3.472,3.2206 -8.9059,2.6165 -11.9252,2.3146 -3.019,-0.3019 -6.1387,-0.7542 -6.1387,-0.7542 0,0 0.6035,-2.5667 2.9689,-4.5797 0,0 2.566,0.2521 4.8806,0.0509 2.3146,-0.2013 3.7234,-0.3019 4.7294,-1.6604 1.007,-1.359 1.0571,-2.9187 -0.1508,-4.176 -1.2072,-1.2585 -2.9685,-1.5099 -5.0818,-1.661 -2.1134,-0.1508 -3.6228,0.3019 -3.6228,0.3019 0,0 -1.9121,-0.1514 -2.8178,-4.6294 0,0 -0.5536,2.2648 0.3019,5.032 0.8555,2.768 2.667,4.478 2.667,4.478 0,0 -2.9512,2.3648 -4.8307,4.4783 -2.0127,2.2648 -2.0127,4.6295 -2.0127,4.6295 0,0 1.7613,1.0063 2.4152,2.1634 0.6543,1.1575 -1.3082,2.5159 -3.5727,3.0692 0,0 0,-1.3583 -0.2009,-1.6603 -0.2012,-0.3019 -0.9561,-0.3019 -2.2644,0.5031 -1.3082,0.8051 -3.3213,2.3146 -3.3213,2.3146 0,0 -0.2009,-0.7044 0,-1.6101 0.2016,-0.9057 0.2521,-1.5597 -0.5028,-1.5597 -0.7545,0 -2.9688,0.8051 -2.9688,0.8051 0,0 -0.3019,-1.1069 1.4088,-2.214 1.7108,-1.1069 5.1323,-2.1634 5.1323,-2.1634 0,0 1.7111,-4.9314 2.5162,-7.1955 0,0 -2.3651,-1.1069 -4.3275,-3.3717z"/>
   <path class="fil5" d="M109.8928 152.6125c0,0 -0.9561,2.566 -1.3078,4.1256 0,0 -6.5913,-0.3018 -11.1198,0.1007 -4.5287,0.4032 -6.9441,1.359 -8.353,2.3654 -1.4089,1.0056 -1.6605,2.4654 -1.9623,2.4654 -0.302,0 -0.5029,-1.459 0.0502,-2.7172 0.5535,-1.2577 3.3346,-3.1605 9.9628,-4.6795 7.2459,-1.6604 12.7299,-1.6604 12.7299,-1.6604z"/>
   <path class="fil3" d="M70.2935 115.3274c0,0 0.1007,1.1572 1.0567,1.6602 0.9559,0.5032 1.912,0.0503 1.912,-1.006 0,0 -0.6539,-0.2014 -1.4591,-0.453 -0.8051,-0.2514 -1.5095,-0.2011 -1.5095,-0.2011z"/>
   <path class="fil5" d="M94.3539 56.8663c1.8742,4.7695 5.8218,14.7854 5.8218,14.7854l-11.4158 0c0,0 3.7665,-9.9563 5.594,-14.7854zm-8.2166 21.7292l0 0 16.7555 0 1.7363 4.4279 8.9056 0 -18.661 -41.015 -0.552 -0.0033 -17.9586 41.0183 8.0952 0 1.6791 -4.4279z"/>
  </g>
 </g>
</svg>
