<svg xmlns="http://www.w3.org/2000/svg" xmlns:xlink="http://www.w3.org/1999/xlink" viewBox="0.0 0.0 451.18 450.88" width="316.22776601683796" height="316.22776601683796">
  <defs>
    <style>
      .cls-1 {
        fill: url(#Dégradé_sans_nom_476);
      }

      .cls-2 {
        fill: url(#Dégradé_sans_nom_472);
      }

      .cls-3 {
        fill: #fff;
      }

      .cls-4 {
        fill: url(#Dégradé_sans_nom_472-4);
      }

      .cls-5 {
        fill: url(#Dégradé_sans_nom_472-3);
      }

      .cls-6 {
        fill: url(#Dégradé_sans_nom_472-2);
      }

      .cls-7 {
        fill: #ffbf00;
      }

      .cls-8 {
        fill: #130a15;
      }
    </style>
    <radialGradient id="Dégradé_sans_nom_476" cx="-312.24" cy="765.24" fx="-312.24" fy="765.24" r="1" gradientTransform="translate(126918.78 311579.52) scale(406.25 -407.1)" gradientUnits="userSpaceOnUse">
      <stop offset="0" stop-color="red"/>
      <stop offset=".32" stop-color="#ff001d"/>
      <stop offset="1" stop-color="#b30000"/>
    </radialGradient>
    <radialGradient id="Dégradé_sans_nom_472" cx="-312.12" cy="765.11" fx="-312.12" fy="765.11" r="1" gradientTransform="translate(108764.27 267079.55) scale(348.18 -348.91)" gradientUnits="userSpaceOnUse">
      <stop offset="0" stop-color="#fff"/>
      <stop offset=".28" stop-color="#ffbf00"/>
      <stop offset="1" stop-color="#ffbf00"/>
    </radialGradient>
    <radialGradient id="Dégradé_sans_nom_472-2" cx="-312.14" cy="765.05" fx="-312.14" fy="765.05" r="1" gradientTransform="translate(118826.61 255980.93) rotate(-2.75) scale(340.79 -341.5) skewX(.01)" xlink:href="#Dégradé_sans_nom_472"/>
    <radialGradient id="Dégradé_sans_nom_472-3" cx="-313.8" cy="765.2" fx="-313.8" fy="765.2" r="1" gradientTransform="translate(-121249.47 296598.99) rotate(-180) scale(386.68 387.49)" xlink:href="#Dégradé_sans_nom_472"/>
    <radialGradient id="Dégradé_sans_nom_472-4" cx="-312.1" cy="765.1" fx="-312.1" fy="765.1" r="1" gradientTransform="translate(106492.99 261515.83) scale(340.93 -341.65)" xlink:href="#Dégradé_sans_nom_472"/>
  </defs>
  <g id="svg59650">
    <g>
      <path id="path40439" class="cls-8" d="M241.19.07C128.28-1.4,43.73,22.22,43.73,22.22-3.47,129.8.06,173.77.06,173.77c0,43.36,21.76,80.1,45.27,110.45,52.45,67.62,103.61,111.32,177.24,165.68,1.04.77,1.9.96,2.89.96,1.07.1,1.93-.19,2.89-.96,73.62-54.43,124.8-98.06,177.24-165.68,23.5-30.35,45.59-67.09,45.59-110.45,0-1.93-.26-4.14-.32-6.1-.02-.54.08-1.26,0-1.93,0-.73-.29-1.44-.32-2.25-.09-.62.05-1.27,0-1.93-.09-.69-.23-1.3-.32-1.93-2.16-20.43-10.49-64.09-42.7-137.42C349.73,6.74,292.52.73,241.19.07h0ZM123.68,106.02c-17.86,1.49-35.64,3.3-52.34,5.14-16.7,1.84-32.35,3.81-45.91,5.78,13.48-1.96,29.3-3.94,45.91-5.78,16.79-1.85,34.38-3.65,52.34-5.14Z"/>
      <path id="path40473" class="cls-3" d="M315.17,57.5c-.22,0-.49.08-.71.08.22-.08.46-.08.71-.08-.44-7.37-6.28-11.88-11.8-15.64-5.59-3.75-10.83-6.92-10.97-10.6,0-.18-.01-.27-.01-.42.01-2.68,2.2-3.38,4.39-3.47.18,0,.31.03.46.09.44.03.87.12,1.4.22,2.43.54,5.93,2.18,9.58,7.46.14.26.3.57.46.72.22-.15.44-.41.67-.66,1.46-1.49,1.89-3.56,1.89-5.3v-.8c-.05-1.09-.18-1.91-.51-2.66,0-.15-.01-.18-.06-.24-.03-.08-.15-.12-.21-.17-2.2-1.45-6.29-4.15-12.68-4.65h-1.14c-4.16-.04-7.35,1.26-9.47,3.51-2.11,2.2-3.15,5.14-3.2,8.25,0,.33,0,.63.05,1.04.49,6.78,6,11.33,11.12,15.03,5.25,3.7,10.12,6.87,10.22,9.8v.49c-.1,3.29-2.81,4.03-5.81,4.11-.3,0-.57-.08-.81-.08-3.42-.21-7.4-2.3-10.4-5.79-.19-.23-.39-.5-.64-.69-.18.19-.35.54-.54.73-.64,1-.98,2.14-1,3.19,0,.05,0,.27.03.45.44,4.6,6.14,8.67,13.06,9.21.49.03.92.05,1.35.06,8.66.09,14.49-5.11,14.56-12.15.05-.37,0-.71,0-1.03"/>
      <path id="path40477" class="cls-7" d="M400.28,68.62c-.24-.54-.42-.99-.62-1.52-.26.53-.53.98-.77,1.52-1.54,3.51-6.6,5.11-10.43,5.03-.45,0-.89-.09-1.35-.18-9.11-1.32-14.49-10.7-15.59-21.26-.09-1.13-.09-2.27-.09-3.39.24-6.42,2.75-10.93,8.58-10.83h.15c.18,0,.46.05.91.1.21.08.3.08.42.1.67.03,1.32.19,2,.51,2.59.94,6.05,3.29,8.34,8.68.12.26.18.42.27.6.23-.05.42-.08.66-.18,3.51-1.08,4.98-4.83,5.07-6.69v-.39c-.01-.13-.04-.21-.06-.21-2.26-3.97-8.89-7.42-15.75-8.58-1.18-.13-2.35-.24-3.49-.24-5.65-.15-10.31,1.55-13.61,4.66-3.25,3.19-5.06,7.87-5.2,13.52-.03,1.21.01,2.56.15,3.87,1.41,13.56,10.2,24.13,24.52,26.28,1.18.14,2.44.31,3.62.31,6.92.22,12.79-2.45,13.07-7.86.01-1.22-.26-2.53-.81-3.88"/>
      <path id="path40481" class="cls-3" d="M56.85,71.86c4.05-13.95,7.96-27.88,12.1-41.39-9.68.03-12.36,4.24-13.02,6.14-2.8,8.41-15.09,46.72-15.09,46.72,7.4-1.36,19.96-3.75,27.19-5.03,0,0,3.76-.39,5.15-8.25.06-.33.1-.63.17-.92-.33.03-.62.05-.92.05-5.02.89-10.61,1.75-15.57,2.68"/>
      <path id="path40485" class="cls-3" d="M179.39,19.88c-.63-.03-1.28-.1-1.91-.1-4.48.05-10.44,1.48-13.1,7.47-5.1,9.81-10.25,19.65-15.28,29.46-1.9-7.13-4.3-17.67-6.11-25.64-.08-.1-.13-.32-.15-.48-.51-1.99-1.23-3.58-2.13-4.73-1.88-2.66-4.65-3.51-7.17-3.61-.01,0,0,0,0,0-2.68-.12-4.88.63-4.88.63l-.89,4.76v.13c-2.77,14.62-5.46,29.27-8.16,43.99,2.59-.32,5.19-.59,7.74-.87,2.07-10.27,4.16-20.5,6.18-30.72,2.21,8.64,5.82,23.13,7.56,29.14.05.23.13.33.14.59.18-.05.4-.05.59-.05,2.4-.21,4.61-.44,7.9-.69h.45c5.27-10.49,10.54-21,15.84-31.5-1.45,10.29-2.93,20.61-4.37,30.93,4.11-.31,8.22-.54,12.25-.77.03-.26.04-.49.09-.72,2-15.71,4.1-31.41,6.11-47.1-.22-.13-.48-.13-.71-.13"/>
      <path id="path40489" class="cls-3" d="M275.82,66.75c.18-16.11.26-30.67.4-46.72-8.36-.17-7.69,5.29-7.69,5.29.06,13.73.03,22.35,0,25.29v.18c-3.88-4.44-14.33-17.17-20.32-24.12-.14-.03-.27-.23-.42-.4-.6-.74-1.19-1.39-1.7-2.05-5.11-5.11-11.58-5.11-13.28-5.05.09,15.5.39,32.21.53,47.74,2.7.04,5.41.17,8.14.19-.23-10.58-.66-22.26-.87-32.83,8.53,9.88,17.22,20.91,25.7,30.88,0,0,3.31,3.92,9.52,1.61"/>
      <path id="path40493" class="cls-7" d="M326.77,23.41l6.51,49.09c3.72.48,7.49.9,11.23,1.39-.94-7.13-1.95-14.04-2.97-21.05,2.03.26,3.92.53,5.93.91h.42c.63.03,1.82.03,2.98-.51,1.13-.64,2.12-2,2-4.23,0-.12,0-.23-.04-.37l-.09-.68c-.18,0-.41-.03-.63-.13-3.81-.54-7.63-1.17-11.42-1.81-.58-3.78-1.39-8.72-1.7-11.98,3.19.48,6.45.99,9.61,1.49.33.03,2.89.41,3.15.41,1.85-.15,4.11-1.35,4.16-7.19l.04-.73-29.19-4.6Z"/>
      <path id="path40497" class="cls-3" d="M110.44,25.38l-20.99,2.88-10.49,48.7c8.52-1.22,19.17-2.72,27.69-3.94,1.91-.51,3.52-1.61,4.53-5.23.46-1.88.57-3.56.57-3.56-6.65.92-13.16,1.84-19.79,2.88.89-4.07,1.77-8.16,2.68-12.32,2.36-.35,6.55-1.04,8.98-1.5.44-.05,2.14-.21,3.47-3.16.06-.13.14-.22.22-.41.58-1.63.63-3.2.63-3.66-3.97.59-7.83,1.23-11.78,1.77.81-3.94,1.85-8.39,2.71-12.3,3.56-.69,9.2-1.63,12.7-2.25,0,0,2.3-.13,3.96-3.42.04,0,.08-.06.08-.06.06-.17.1-.24.17-.32,1-2.22,1.1-4.56,1.1-5.11-2.47.37-4.35.68-6.43,1.01"/>
      <path id="path40501" class="cls-3" d="M214.83,67.1c4.07-.03,8.17-.03,12.2-.17-.1-.28-.21-.63-.31-.95-.44-1.3-.91-2.65-1.31-3.9-.23-.63-.45-1.27-.71-2.02-.31-1.07-.6-2-.94-3.01-4.26-12.91-8.5-25.73-12.84-38.63-.14,0-.32-.03-.48-.05-.6-.03-1.17-.03-1.73-.03-4.67-.05-8.62,1.88-10.2,6.54-5.83,14.31-11.66,28.61-17.45,42.95,1.72-.14,3.49-.19,5.24-.21,1.99-.17,3.79-.69,4.96-3.22.85-2.27,1.43-3.83,2.31-6.06,2.76,0,6.02-.01,8.82-.01s4.82-1.48,4.92-5.33c.01-.31.01-.54.01-.85-3.6.04-7.78.06-11.43.06,2.38-6.28,5.34-14.01,7.78-20.38,3.74,11.7,7.45,23.54,11.15,35.27"/>
      <path id="path40461-1" class="cls-1" d="M248.56,98.05c-4.44,1.44-28.23-3.43-32.57-3.43h0c-18.12,0-45.7,2.39-66.28,7.21h0c-12.73,3.02-12.78,3.1-26.15,4.23h0c-35.73,2.98-71.1,6.87-98.24,10.8h0c-8.09,17.12-22.4,64.04,16.95,134.52h0c.4.71.77,1.43,1.16,2.14h0c15.57,22.95,41.79,55.62,83.04,91.61h0c26.47,23.12,59.09,47.57,99.11,71.73h0c26.82-16.17,50.23-32.47,70.75-48.37h0c8.71-6.76,16.91-13.52,24.54-20.02h0c43.5-37.34,70.82-71.32,86.82-94.9h0c.39-.73.81-1.49,1.18-2.2h0c39.39-70.48,25.06-117.45,16.93-134.52h0c-29.59-4.3-69.16-8.58-108.17-11.6h0c-5.95-.46-5.43-1.66-11.33-2.05h0c-14.46-8.91-37.82-17.78-53.92-18.28h0c-2.95,0,2.71,11.03-3.84,13.13"/>
      <path id="path40523-5" class="cls-2" d="M309.92,212.87c-.92,9.98,12.89,18.1,12.89,18.1h0l7.92-55.08s-19.86,27.07-20.82,36.99"/>
      <path id="path40545-3" class="cls-6" d="M149.5,326.07c-32.96-94.67,6.5-153.19,6.5-153.19h0c-63.11,67.48-6.5,153.19-6.5,153.19"/>
      <path id="path40567-3" class="cls-5" d="M392.85,206.97c-1.41,16.64-10.96,55.23-42.9,94.81h0s77.69-63.32,65.46-154.39h0c-2.8-16.44-7.37-27.77-10.12-33.32h0c-9.18-1.16-16.57-2.07-26.71-3.16h0c15.87,31.61,16.76,68.27,14.27,96.05"/>
      <path id="path40589-7" class="cls-4" d="M244.29,94.29c-14.17-2.63-30.37-4.08-48.83-3.83h0c-35.59.63-66.78,7.35-92.11,15.72h0l-7,2.3c-6.55.62-13.01,1.34-19.33,2.02h0c-15.76,31.49-19.2,66.27-16.09,98.23h0c1.99,16.58,8.66,53.48,40.67,93.06h0S23.87,238.46,36.11,147.39h0c2.72-16.11,7.53-27.77,10.26-33.38h0c-7.35.94-14.45,1.85-21.05,2.84h0c-8.09,17.12-22.4,64.04,16.95,134.52h0c.4.71.77,1.43,1.16,2.14h0c15.57,22.95,41.79,55.62,83.04,91.61h0c-26.44-55.44-17.97-114.57-8.94-136.9h0c24.4-60.74,83.7-85.78,134.25-87.84h0c-50.41-1.98-134.21,9.91-160.12,112.2h0s15.5-80.64-18.96-84.07h0s1.49-1.58,3.49-3.42h0c7.86-7.24,30.58-25.47,66.82-36.65h0c7.12-2.04,15.01-4.03,20.31-5.27h0c15.67-3.16,33.38-4.92,52.88-4.11h0c5.95.23,11.57.67,16.98,1.25h-.14s.22,0,.53.06h0c1.86.22,3.76.45,5.61.73h0c.69.1,1.41.15,2.16.3h0c2.07.14,4.35.14,6.46-.1h0c6.45-.71,11.49-3.89,6.4-13.64h0s23.9,3.54,45.68,16.25h0c13.72,8.05,26.68,19.75,32.13,36.51h0l28.02,14.13-21.56,8.35c-2.33,60.9-18.15,138.67-18.15,138.67h0l-28-5.57-17.2-55.88-3.94-.64c-5.66-1.55-15.53-6.16-18.56-20.86h0c-3.4-16.52,8.57-34.42,8.57-34.42h0s-28.52,14.36-21.46,48.39h0c1.16,5.5,3.35,9.94,6.13,13.59h0c-30.99,64.5,32.25,110.7,50.47,122.31h0c8.71-6.76,16.91-13.52,24.54-20.02h0c-22.77-8.58-41.56-22.13-53.66-38.77h0c-5.64-7.41-9.21-15.04-11.46-22.24h0c-2.25-6.97-3.43-14.17-3.43-21.55h0c0-4.21.42-8.36,1.1-12.43h0c6.69,4.8,13.94,6.94,17.79,7.62h0l16.82,43.56,39,5.86s19.07-70.15,25.38-129.22h0c5.82,3.63,7.8,15.39,7.8,15.39h0c14.45-13.45,4.58-27.93-.74-32.99h0c-.06-.1-.14-.13-.19-.14h0l14.78-9.13-28.7-15.49c-2.77-7.96-9.92-21.5-27.73-33.66h0c-14.81-10.18-37.1-19.39-70.54-23.66h0s4.56,12.05-2.83,12.69"/>
    </g>
  </g>
</svg>