<?xml version="1.0" encoding="UTF-8" standalone="no"?>
<svg
   clip-rule="evenodd"
   fill-rule="evenodd"
   stroke-linejoin="round"
   stroke-miterlimit="2"
   viewBox="0 0 199.99985 246.40187"
   version="1.1"
   id="svg23"
   sodipodi:docname="Leeds.svg"
   width="199.99985"
   height="246.40187"
   xmlns:inkscape="http://www.inkscape.org/namespaces/inkscape"
   xmlns:sodipodi="http://sodipodi.sourceforge.net/DTD/sodipodi-0.dtd"
   xmlns="http://www.w3.org/2000/svg"
   xmlns:svg="http://www.w3.org/2000/svg">
  <defs
     id="defs23" />
  <sodipodi:namedview
     id="namedview23"
     pagecolor="#ffffff"
     bordercolor="#000000"
     borderopacity="0.25"
     inkscape:showpageshadow="2"
     inkscape:pageopacity="0.0"
     inkscape:pagecheckerboard="0"
     inkscape:deskcolor="#d1d1d1" />
  <g
     fill-rule="nonzero"
     id="g23"
     transform="translate(-180,-76.799)">
    <path
       d="m 279.115,76.836 c 0.528,0.026 1.357,0.026 1.847,0 0.49,-0.012 0.063,-0.037 -0.955,-0.037 -1.017,0 -1.419,0.025 -0.892,0.037 z"
       fill="#ffffff"
       id="path1" />
    <path
       d="m 276.791,76.937 c -0.226,0.025 -1.03,0.113 -1.784,0.176 -0.754,0.075 -2.098,0.239 -2.99,0.364 -0.88,0.138 -2.576,0.427 -3.757,0.654 -1.168,0.238 -3.028,0.64 -4.108,0.892 -1.081,0.263 -2.99,0.766 -4.234,1.118 -1.244,0.352 -3.304,0.967 -4.586,1.369 -1.281,0.402 -3.53,1.169 -5,1.684 -1.483,0.527 -3.82,1.394 -5.189,1.935 -1.382,0.54 -3.556,1.432 -4.824,1.959 -1.282,0.541 -3.405,1.47 -4.712,2.061 -1.319,0.59 -3.003,1.357 -3.756,1.721 -0.754,0.365 -2.011,0.968 -2.802,1.344 -0.792,0.365 -2.689,1.332 -4.234,2.136 -1.533,0.804 -3.744,1.973 -4.887,2.601 -1.144,0.616 -3.053,1.696 -4.234,2.375 -1.181,0.691 -3.242,1.909 -4.586,2.726 -1.344,0.829 -3.468,2.161 -4.712,2.978 -1.243,0.816 -3.141,2.098 -4.234,2.864 -1.08,0.754 -2.55,1.809 -3.266,2.337 -0.729,0.528 -2.123,1.608 -3.103,2.387 -0.98,0.792 -2.375,1.935 -3.104,2.55 -0.716,0.616 -2.161,1.948 -3.203,2.965 -1.031,1.018 -2.3,2.325 -2.815,2.915 -0.628,0.729 -1.156,1.508 -1.646,2.438 -0.59,1.118 -0.804,1.708 -1.193,3.216 -0.264,1.005 -0.666,2.726 -0.905,3.807 -0.226,1.068 -0.628,3.216 -0.904,4.749 -0.264,1.545 -0.628,4.058 -0.829,5.591 -0.189,1.533 -0.453,3.97 -0.591,5.415 -0.126,1.432 -0.264,3.116 -0.301,3.744 -0.038,0.615 -0.126,2.198 -0.189,3.505 -0.063,1.307 -0.113,4.711 -0.113,7.551 0,2.852 0.05,6.244 0.113,7.551 0.063,1.306 0.151,2.889 0.189,3.505 0.037,0.628 0.15,2.098 0.238,3.279 0.101,1.168 0.314,3.367 0.478,4.875 0.163,1.507 0.465,3.832 0.653,5.176 0.201,1.332 0.515,3.392 0.716,4.573 0.201,1.181 0.653,3.581 1.005,5.352 0.352,1.759 0.917,4.36 1.257,5.767 0.326,1.407 0.929,3.757 1.319,5.227 0.402,1.482 1.143,4.07 1.658,5.766 0.515,1.709 1.319,4.197 1.797,5.541 0.465,1.332 1.168,3.292 1.558,4.335 0.402,1.042 1.206,3.103 1.796,4.573 0.591,1.482 1.521,3.668 2.061,4.887 0.54,1.206 1.394,3.078 1.909,4.159 0.503,1.08 1.571,3.216 2.35,4.749 0.791,1.545 2.098,3.982 2.89,5.415 0.804,1.445 2.173,3.794 3.04,5.239 0.867,1.432 2.086,3.417 2.714,4.397 0.628,0.98 1.759,2.689 2.512,3.807 0.754,1.106 2.048,2.952 2.865,4.096 0.817,1.143 2.161,2.965 2.978,4.045 0.816,1.081 2.437,3.141 3.605,4.573 1.156,1.445 2.777,3.393 3.594,4.347 0.816,0.943 2.01,2.312 2.651,3.028 0.64,0.729 2.098,2.3 3.228,3.518 1.131,1.206 3.732,3.857 5.792,5.88 2.061,2.035 4.624,4.498 5.704,5.478 1.081,0.98 2.827,2.538 3.87,3.442 1.055,0.917 3.015,2.588 4.36,3.694 1.344,1.118 3.216,2.651 4.171,3.405 0.942,0.754 3.04,2.362 4.648,3.555 1.608,1.206 3.933,2.928 5.189,3.807 1.244,0.88 3.656,2.551 5.352,3.694 1.709,1.156 4.071,2.701 5.252,3.455 1.181,0.741 3.141,1.96 4.347,2.701 1.684,1.03 2.249,1.319 2.387,1.231 0.101,-0.075 1.734,-1.105 3.631,-2.299 1.91,-1.193 5.126,-3.279 7.161,-4.636 2.023,-1.357 4.687,-3.178 5.893,-4.045 1.218,-0.855 3.442,-2.488 4.95,-3.619 1.508,-1.13 3.681,-2.789 4.824,-3.693 1.156,-0.905 3.317,-2.664 4.837,-3.92 1.508,-1.257 3.43,-2.89 4.285,-3.644 0.841,-0.741 2.45,-2.173 3.568,-3.191 1.118,-1.005 4.045,-3.845 6.52,-6.294 2.463,-2.463 5.352,-5.441 6.42,-6.609 1.068,-1.181 2.89,-3.241 4.046,-4.586 1.156,-1.331 3.091,-3.668 4.297,-5.163 1.206,-1.508 2.864,-3.656 3.706,-4.762 0.829,-1.118 2.136,-2.902 2.915,-3.983 0.766,-1.08 2.023,-2.902 2.802,-4.045 0.766,-1.144 2.123,-3.229 3.002,-4.636 0.88,-1.407 2.174,-3.518 2.865,-4.699 0.691,-1.181 1.822,-3.179 2.525,-4.46 0.704,-1.269 2.149,-4.058 3.216,-6.182 1.056,-2.123 2.513,-5.176 3.229,-6.784 0.704,-1.596 1.885,-4.41 2.626,-6.244 0.741,-1.822 1.797,-4.611 2.362,-6.182 0.553,-1.57 1.395,-4.058 1.847,-5.528 0.465,-1.47 1.118,-3.605 1.445,-4.749 0.339,-1.156 0.93,-3.317 1.319,-4.824 0.389,-1.508 0.917,-3.669 1.181,-4.812 0.264,-1.143 0.691,-3.154 0.955,-4.46 0.264,-1.307 0.666,-3.506 0.892,-4.875 0.226,-1.369 0.578,-3.644 0.779,-5.051 0.188,-1.407 0.49,-3.769 0.653,-5.239 0.163,-1.47 0.415,-4.146 0.54,-5.942 0.126,-1.797 0.302,-4.75 0.377,-6.546 0.076,-2.01 0.113,-5.315 0.063,-8.619 -0.038,-2.94 -0.126,-6.231 -0.201,-7.312 -0.063,-1.08 -0.226,-3.241 -0.364,-4.812 -0.126,-1.57 -0.402,-4.121 -0.591,-5.654 -0.201,-1.532 -0.515,-3.781 -0.716,-5 -0.201,-1.206 -0.578,-3.266 -0.842,-4.573 -0.263,-1.307 -0.716,-3.317 -1.005,-4.46 -0.427,-1.709 -0.641,-2.312 -1.218,-3.43 -0.428,-0.854 -0.968,-1.696 -1.458,-2.262 -0.414,-0.502 -1.357,-1.52 -2.085,-2.261 -0.717,-0.741 -2.061,-2.023 -2.978,-2.84 -0.917,-0.816 -2.375,-2.06 -3.216,-2.751 -0.855,-0.704 -2.124,-1.696 -2.802,-2.224 -0.691,-0.527 -2.111,-1.583 -3.166,-2.324 -1.043,-0.754 -2.739,-1.935 -3.757,-2.613 -1.017,-0.691 -2.726,-1.822 -3.806,-2.513 -1.081,-0.678 -3.041,-1.885 -4.36,-2.664 -1.307,-0.791 -3.342,-1.985 -4.523,-2.651 -1.181,-0.678 -3.279,-1.821 -4.649,-2.563 -1.382,-0.741 -4.171,-2.16 -6.206,-3.178 -2.023,-1.018 -5.063,-2.463 -6.734,-3.216 -1.671,-0.754 -3.996,-1.785 -5.177,-2.287 -1.181,-0.503 -3.191,-1.332 -4.472,-1.834 -1.282,-0.515 -3.367,-1.307 -4.649,-1.772 -1.281,-0.452 -3.48,-1.206 -4.887,-1.671 -1.407,-0.465 -3.455,-1.105 -4.536,-1.432 -1.08,-0.314 -3.015,-0.854 -4.284,-1.181 -1.281,-0.327 -3.38,-0.804 -4.648,-1.068 -1.282,-0.264 -3.028,-0.591 -3.883,-0.716 -0.841,-0.138 -2.274,-0.339 -3.153,-0.44 -1.043,-0.126 -2.814,-0.213 -5.013,-0.239 -1.86,-0.012 -3.581,-0.012 -3.807,0.013 z"
       fill="#0060a9"
       id="path2" />
    <path
       d="m 278.035,83.834 c -0.327,0.026 -1.256,0.101 -2.086,0.176 -0.816,0.076 -2.186,0.227 -3.04,0.352 -0.842,0.126 -2.4,0.39 -3.455,0.603 -1.043,0.201 -2.764,0.578 -3.807,0.829 -1.055,0.252 -2.852,0.729 -3.995,1.056 -1.144,0.326 -2.915,0.854 -3.933,1.181 -1.017,0.326 -2.902,0.955 -4.171,1.394 -1.281,0.428 -3.241,1.144 -4.359,1.571 -1.106,0.427 -3.091,1.218 -4.41,1.759 -1.307,0.527 -3.556,1.495 -5.001,2.136 -1.445,0.64 -3.643,1.633 -4.887,2.223 -1.244,0.578 -3.769,1.822 -5.603,2.764 -1.835,0.93 -4.31,2.224 -5.478,2.852 -1.181,0.641 -3.229,1.784 -4.536,2.538 -1.306,0.741 -3.568,2.086 -5.013,2.965 -1.432,0.892 -3.605,2.262 -4.824,3.066 -1.206,0.804 -3.166,2.136 -4.347,2.99 -1.181,0.842 -2.814,2.048 -3.644,2.676 -0.816,0.616 -2.022,1.583 -2.676,2.123 -0.653,0.541 -1.859,1.596 -2.676,2.325 -0.829,0.728 -1.972,1.834 -2.563,2.45 -0.59,0.615 -1.382,1.457 -1.759,1.884 l -0.678,0.767 c -0.829,3.228 -1.257,5.075 -1.483,6.193 -0.238,1.106 -0.578,2.953 -0.779,4.096 -0.201,1.144 -0.477,2.89 -0.603,3.87 -0.138,0.98 -0.352,2.776 -0.477,3.983 -0.126,1.206 -0.314,3.241 -0.415,4.523 -0.1,1.268 -0.238,3.681 -0.314,5.352 -0.088,1.884 -0.113,5.126 -0.075,8.618 0.037,3.066 0.151,6.785 0.251,8.267 0.101,1.47 0.239,3.292 0.314,4.033 0.063,0.754 0.226,2.362 0.352,3.568 0.138,1.219 0.352,3.041 0.477,4.046 0.139,1.018 0.44,2.99 0.666,4.397 0.226,1.407 0.628,3.681 0.892,5.063 0.264,1.37 0.716,3.569 1.018,4.875 0.289,1.307 0.829,3.531 1.181,4.938 0.352,1.394 1.005,3.781 1.432,5.289 0.427,1.508 1.282,4.234 1.897,6.056 0.603,1.834 1.608,4.648 2.211,6.244 0.604,1.608 1.571,4.045 2.149,5.415 0.565,1.369 1.369,3.241 1.784,4.159 0.415,0.917 1.432,3.065 2.261,4.761 0.83,1.696 2.061,4.134 2.739,5.415 0.679,1.269 1.772,3.254 2.425,4.397 0.653,1.144 1.809,3.091 2.563,4.335 0.754,1.244 2.299,3.656 3.43,5.352 1.118,1.709 2.814,4.171 3.744,5.478 0.942,1.307 2.299,3.153 3.015,4.096 0.729,0.955 2.136,2.739 3.129,3.982 1.005,1.244 2.688,3.28 3.756,4.523 1.068,1.244 2.425,2.789 3.016,3.443 0.59,0.666 2.11,2.286 3.367,3.631 1.256,1.344 3.492,3.618 4.962,5.05 1.47,1.445 3.631,3.506 4.812,4.586 1.169,1.081 2.99,2.714 4.046,3.631 1.043,0.917 2.877,2.463 4.058,3.455 1.168,0.98 2.814,2.312 3.631,2.978 0.816,0.653 2.513,1.96 3.756,2.914 1.244,0.955 3.066,2.312 4.046,3.041 0.992,0.716 2.789,1.998 3.995,2.852 1.219,0.842 3.443,2.362 4.95,3.367 1.508,1.005 3.631,2.387 4.712,3.066 1.809,1.143 1.985,1.218 2.261,1.093 0.163,-0.076 1.583,-0.968 3.154,-1.986 1.583,-1.017 4.309,-2.839 6.08,-4.045 1.772,-1.219 4.247,-2.953 5.491,-3.857 1.244,-0.905 3.392,-2.5 4.761,-3.556 1.382,-1.042 3.556,-2.751 4.825,-3.794 1.281,-1.03 3.48,-2.864 4.887,-4.071 1.42,-1.206 3.506,-3.04 4.661,-4.083 1.144,-1.043 3.179,-2.965 4.523,-4.284 1.345,-1.307 3.493,-3.442 4.775,-4.749 1.281,-1.307 3.128,-3.267 4.108,-4.347 0.98,-1.068 2.437,-2.701 3.229,-3.619 0.791,-0.917 2.073,-2.437 2.864,-3.392 0.792,-0.942 2.237,-2.751 3.217,-3.995 0.98,-1.256 2.525,-3.317 3.455,-4.586 0.917,-1.269 2.211,-3.078 2.877,-4.02 0.653,-0.955 1.909,-2.852 2.801,-4.222 0.88,-1.382 2.224,-3.517 2.978,-4.761 0.741,-1.244 1.872,-3.166 2.5,-4.284 0.628,-1.106 1.784,-3.254 2.576,-4.75 0.791,-1.507 2.01,-3.919 2.688,-5.352 0.679,-1.445 1.546,-3.317 1.923,-4.158 0.377,-0.855 1.156,-2.676 1.734,-4.046 0.565,-1.382 1.482,-3.681 2.022,-5.113 0.541,-1.445 1.382,-3.795 1.872,-5.239 0.49,-1.433 1.194,-3.656 1.583,-4.938 0.39,-1.269 0.917,-3.091 1.181,-4.033 0.252,-0.955 0.641,-2.374 0.842,-3.153 0.214,-0.792 0.666,-2.689 1.018,-4.222 0.352,-1.545 0.879,-4.033 1.181,-5.528 0.289,-1.508 0.716,-3.945 0.955,-5.415 0.238,-1.47 0.552,-3.719 0.716,-5 0.163,-1.269 0.402,-3.405 0.54,-4.749 0.138,-1.345 0.327,-3.568 0.427,-4.938 0.088,-1.369 0.226,-3.782 0.289,-5.352 0.075,-1.57 0.126,-4.372 0.126,-6.244 0,-1.86 -0.051,-4.586 -0.126,-6.068 -0.063,-1.47 -0.163,-3.506 -0.239,-4.511 -0.062,-1.018 -0.226,-2.94 -0.351,-4.284 -0.139,-1.344 -0.377,-3.48 -0.541,-4.762 -0.163,-1.269 -0.439,-3.141 -0.603,-4.158 -0.163,-1.018 -0.49,-2.777 -0.716,-3.92 -0.226,-1.144 -0.653,-3.028 -0.955,-4.197 -0.289,-1.155 -0.59,-2.274 -0.666,-2.462 -0.087,-0.188 -0.778,-1.043 -1.532,-1.872 -0.767,-0.842 -2.161,-2.224 -3.104,-3.078 -0.942,-0.854 -2.387,-2.111 -3.203,-2.777 -0.83,-0.678 -2.325,-1.859 -3.342,-2.626 -1.018,-0.753 -2.576,-1.884 -3.455,-2.512 -0.892,-0.628 -2.337,-1.621 -3.217,-2.199 -0.892,-0.59 -2.55,-1.671 -3.693,-2.387 -1.156,-0.716 -3.078,-1.897 -4.297,-2.613 -1.219,-0.716 -2.877,-1.684 -3.694,-2.149 -0.817,-0.465 -2.462,-1.357 -3.631,-1.997 -1.181,-0.629 -3.819,-1.998 -5.842,-3.028 -2.035,-1.03 -4.875,-2.4 -6.32,-3.066 -1.444,-0.653 -3.693,-1.658 -5.012,-2.224 -1.307,-0.577 -3.368,-1.432 -4.586,-1.934 -1.219,-0.49 -3.33,-1.307 -4.712,-1.81 -1.369,-0.515 -3.819,-1.356 -5.415,-1.884 -1.608,-0.528 -3.781,-1.206 -4.837,-1.508 -1.042,-0.301 -2.839,-0.791 -3.995,-1.068 -1.143,-0.289 -3.015,-0.716 -4.171,-0.942 -1.143,-0.239 -2.638,-0.503 -3.329,-0.603 -0.691,-0.113 -1.948,-0.264 -2.802,-0.352 -0.855,-0.1 -2.576,-0.188 -3.82,-0.226 -1.243,-0.025 -2.525,-0.038 -2.864,-0.013 z"
       fill="#ffe003"
       id="path3" />
    <path
       d="m 278.399,107.856 c -0.389,0.025 -1.382,0.101 -2.211,0.176 -0.817,0.076 -2.349,0.252 -3.392,0.415 -1.056,0.151 -2.739,0.44 -3.757,0.653 -1.017,0.201 -2.889,0.641 -4.171,0.955 -1.281,0.314 -3.392,0.892 -4.711,1.294 -1.307,0.39 -3.342,1.043 -4.523,1.445 -1.181,0.402 -3.003,1.055 -4.058,1.445 -1.043,0.389 -2.978,1.143 -4.285,1.658 -1.319,0.528 -3.354,1.395 -4.535,1.91 -1.181,0.528 -3.593,1.658 -5.365,2.525 -1.771,0.854 -4.234,2.123 -5.478,2.789 -1.243,0.679 -3.203,1.797 -4.359,2.488 -1.144,0.691 -2.865,1.759 -3.807,2.374 -0.955,0.616 -2.425,1.634 -3.279,2.262 -0.855,0.616 -2.111,1.583 -2.802,2.148 -0.691,0.553 -2.023,1.759 -2.965,2.689 -0.942,0.917 -2.01,2.06 -2.387,2.55 -0.377,0.503 -0.804,1.219 -0.955,1.609 -0.151,0.402 -0.402,1.193 -0.553,1.784 -0.15,0.59 -0.351,1.658 -0.465,2.387 -0.1,0.716 -0.238,1.809 -0.301,2.437 -0.063,0.616 -0.151,1.734 -0.201,2.488 -0.05,0.754 -0.088,3.756 -0.075,6.659 0.012,2.914 0.05,5.515 0.075,5.766 0.038,0.264 0.063,0.842 0.075,1.282 v 0.804 h 140.124 c 0.138,-1.709 0.213,-4.146 0.251,-6.533 0.05,-2.752 0.025,-5.315 -0.063,-6.961 -0.075,-1.444 -0.213,-3.316 -0.301,-4.158 -0.101,-0.855 -0.289,-2.136 -0.415,-2.865 -0.126,-0.716 -0.377,-1.721 -0.54,-2.224 -0.164,-0.502 -0.427,-1.181 -0.591,-1.482 -0.15,-0.314 -0.791,-1.156 -1.407,-1.872 -0.628,-0.729 -1.608,-1.746 -2.186,-2.274 -0.59,-0.528 -1.47,-1.294 -1.96,-1.709 -0.49,-0.427 -1.646,-1.331 -2.563,-2.01 -0.917,-0.678 -2.575,-1.847 -3.694,-2.576 -1.118,-0.741 -2.965,-1.897 -4.108,-2.588 -1.156,-0.678 -2.89,-1.683 -3.882,-2.223 -0.98,-0.541 -3.317,-1.734 -5.176,-2.664 -1.872,-0.93 -4.448,-2.161 -5.729,-2.726 -1.282,-0.566 -2.991,-1.294 -3.807,-1.634 -0.83,-0.339 -2.651,-1.055 -4.058,-1.595 -1.408,-0.553 -3.857,-1.432 -5.428,-1.96 -1.57,-0.54 -3.656,-1.206 -4.649,-1.495 -0.979,-0.289 -2.588,-0.741 -3.568,-0.993 -0.992,-0.264 -2.651,-0.666 -3.706,-0.892 -1.043,-0.238 -2.839,-0.578 -3.983,-0.779 -1.155,-0.188 -2.927,-0.439 -3.932,-0.54 -1.018,-0.088 -2.664,-0.201 -3.644,-0.226 -0.98,-0.025 -2.11,-0.025 -2.5,-0.013 z"
       fill="#0060a9"
       id="path4" />
    <path
       d="m 279.543,112.342 c -0.214,0.603 -0.604,1.721 -0.88,2.487 l -0.502,1.395 c -3.066,-0.025 -4.059,0.037 -4.775,0.163 -0.59,0.101 -1.52,0.339 -2.085,0.503 -0.553,0.176 -1.47,0.552 -2.023,0.829 -0.553,0.289 -1.382,0.779 -1.847,1.106 -0.452,0.314 -1.193,0.929 -1.621,1.344 -0.427,0.414 -1.105,1.193 -1.495,1.708 -0.377,0.528 -0.892,1.332 -1.13,1.785 -0.239,0.464 -0.604,1.256 -0.805,1.758 -0.201,0.503 -0.477,1.382 -0.615,1.935 l -0.239,1.005 c -4.246,0 -5.503,0.038 -5.528,0.088 -0.025,0.051 0.942,0.817 2.148,1.696 1.207,0.88 2.199,1.646 2.199,1.697 0,0.05 -0.176,0.502 -0.377,1.017 -0.201,0.503 -0.515,1.42 -0.678,2.048 -0.277,1.03 -0.302,1.332 -0.314,3.568 0,2.287 0.025,2.513 0.326,3.619 0.176,0.653 0.616,1.784 0.968,2.5 0.352,0.716 0.967,1.734 1.357,2.261 0.389,0.528 1.156,1.37 1.708,1.885 0.553,0.515 1.533,1.294 2.186,1.721 0.654,0.427 1.207,0.779 1.219,0.792 0.013,0 -0.377,1.206 -0.867,2.676 -0.49,1.47 -0.892,2.688 -0.879,2.713 0,0.013 0.05,0.025 0.113,0.025 0.063,0 1.118,-0.728 2.324,-1.608 1.219,-0.879 2.249,-1.595 2.299,-1.595 0.051,0 0.352,0.226 0.679,0.515 0.326,0.276 1.03,0.804 1.558,1.143 0.515,0.352 1.382,0.842 1.897,1.081 0.527,0.251 1.294,0.552 1.708,0.691 0.402,0.138 1.131,0.326 1.609,0.439 0.464,0.101 1.444,0.214 2.173,0.252 0.729,0.037 1.759,0 2.324,-0.063 0.553,-0.076 1.445,-0.251 1.96,-0.377 0.528,-0.138 1.382,-0.44 1.91,-0.666 0.528,-0.226 1.357,-0.641 1.834,-0.917 0.49,-0.277 1.332,-0.867 1.885,-1.307 0.54,-0.439 1.018,-0.804 1.055,-0.804 0.025,0 1.03,0.704 2.237,1.571 1.193,0.854 2.236,1.595 2.324,1.633 0.088,0.038 -0.063,-0.591 -0.39,-1.596 -0.289,-0.917 -0.691,-2.148 -0.892,-2.739 -0.339,-0.98 -0.351,-1.067 -0.163,-1.181 0.101,-0.062 0.653,-0.427 1.219,-0.791 0.565,-0.377 1.445,-1.068 1.972,-1.545 0.515,-0.49 1.282,-1.332 1.696,-1.885 0.415,-0.553 0.968,-1.42 1.219,-1.91 0.264,-0.49 0.666,-1.444 0.892,-2.135 0.226,-0.691 0.477,-1.709 0.565,-2.262 0.088,-0.628 0.113,-1.671 0.076,-2.789 -0.05,-1.219 -0.151,-2.098 -0.314,-2.764 -0.138,-0.54 -0.44,-1.47 -0.666,-2.061 -0.239,-0.59 -0.427,-1.118 -0.427,-1.181 0,-0.075 0.967,-0.829 2.148,-1.696 1.181,-0.867 2.123,-1.62 2.086,-1.671 -0.025,-0.05 -1.269,-0.088 -2.739,-0.088 h -2.676 c -0.113,-0.502 -0.302,-1.181 -0.503,-1.846 -0.201,-0.654 -0.54,-1.584 -0.779,-2.074 -0.226,-0.489 -0.741,-1.407 -1.156,-2.022 -0.414,-0.628 -1.181,-1.558 -1.696,-2.073 -0.515,-0.515 -1.319,-1.206 -1.771,-1.52 -0.465,-0.327 -1.269,-0.805 -1.784,-1.068 -0.528,-0.277 -1.42,-0.641 -1.973,-0.83 -0.553,-0.188 -1.495,-0.427 -2.085,-0.54 -0.691,-0.126 -1.772,-0.201 -3.028,-0.201 l -1.96,-0.012 c -1.257,-3.82 -1.671,-4.938 -1.734,-4.938 -0.063,0 -0.276,0.503 -0.477,1.106 z"
       fill="#ffffff"
       id="path5" />
    <path
       d="m 279.832,113.108 c -0.026,0.113 -0.189,1.005 -0.365,1.96 -0.163,0.967 -0.289,1.947 -0.289,2.173 0,0.227 -0.037,0.415 -0.063,0.415 -0.037,0 -0.289,-0.113 -0.565,-0.264 -0.352,-0.176 -0.779,-0.276 -1.344,-0.301 -0.616,-0.038 -1.005,0.012 -1.495,0.188 -0.39,0.151 -0.867,0.452 -1.219,0.792 -0.314,0.301 -0.704,0.816 -0.88,1.168 -0.175,0.339 -0.59,0.905 -0.929,1.256 -0.327,0.352 -1.106,1.031 -1.734,1.496 -0.628,0.477 -1.583,1.168 -2.148,1.532 -0.553,0.365 -1.307,0.792 -1.671,0.955 -0.352,0.164 -1.056,0.39 -1.546,0.49 -0.49,0.101 -1.105,0.314 -1.369,0.465 -0.264,0.151 -0.641,0.465 -0.829,0.678 -0.189,0.227 -0.478,0.704 -0.641,1.068 -0.176,0.39 -0.302,0.892 -0.302,1.244 -0.012,0.327 0.013,0.729 0.063,0.892 l 0.088,0.302 c -1.244,-0.239 -2.349,-0.402 -3.267,-0.528 -0.917,-0.113 -1.696,-0.201 -1.733,-0.176 -0.025,0.025 0,0.113 0.075,0.189 0.075,0.088 1.081,0.64 2.224,1.218 l 2.085,1.081 c -0.603,0.553 -0.904,0.98 -1.067,1.306 -0.214,0.465 -0.264,0.805 -0.264,1.546 0,0.716 0.05,1.08 0.238,1.482 0.139,0.289 0.553,0.867 0.93,1.282 0.402,0.44 0.854,1.131 1.143,1.721 0.252,0.54 0.704,1.734 1.006,2.651 0.301,0.917 0.628,2.06 0.728,2.55 0.126,0.603 0.176,1.395 0.151,2.438 -0.025,1.357 0,1.621 0.214,2.085 0.138,0.289 0.452,0.767 0.716,1.043 0.251,0.289 0.741,0.653 1.068,0.804 0.326,0.164 0.753,0.289 0.954,0.289 0.189,0 0.39,0.025 0.44,0.063 0.05,0.025 -0.125,0.452 -0.402,0.917 -0.264,0.478 -0.779,1.47 -1.131,2.199 -0.364,0.754 -0.59,1.369 -0.527,1.407 0.075,0.025 0.929,-0.716 1.909,-1.671 l 1.797,-1.721 c 0.427,0.904 0.754,1.294 1.131,1.583 0.326,0.251 0.892,0.54 1.244,0.641 0.402,0.113 0.917,0.163 1.319,0.125 0.364,-0.025 1.017,-0.213 1.482,-0.427 0.465,-0.214 1.106,-0.44 1.433,-0.503 0.326,-0.062 1.645,-0.15 2.927,-0.188 1.797,-0.05 2.588,-0.025 3.543,0.126 0.829,0.125 1.482,0.314 2.023,0.565 0.691,0.339 0.929,0.389 1.759,0.389 0.716,0 1.093,-0.062 1.495,-0.238 0.289,-0.138 0.741,-0.427 0.992,-0.654 0.251,-0.226 0.566,-0.628 0.704,-0.892 0.125,-0.251 0.251,-0.502 0.276,-0.527 0.025,-0.038 0.39,0.314 0.804,0.766 0.415,0.465 1.231,1.257 1.797,1.759 0.565,0.503 1.055,0.867 1.08,0.804 0.038,-0.063 -0.414,-1.068 -1.005,-2.236 -0.59,-1.156 -1.068,-2.136 -1.08,-2.161 0,-0.038 0.201,-0.101 0.452,-0.138 0.239,-0.038 0.628,-0.151 0.867,-0.264 0.226,-0.101 0.641,-0.39 0.93,-0.641 0.289,-0.251 0.666,-0.741 0.841,-1.106 0.289,-0.615 0.315,-0.753 0.315,-2.487 0.012,-1.508 0.05,-2.023 0.263,-2.802 0.139,-0.528 0.503,-1.671 0.804,-2.55 0.302,-0.892 0.742,-1.96 0.98,-2.387 0.227,-0.428 0.691,-1.068 1.006,-1.42 0.326,-0.364 0.703,-0.905 0.841,-1.194 0.201,-0.414 0.264,-0.754 0.264,-1.482 0.013,-0.792 -0.038,-1.068 -0.301,-1.608 -0.176,-0.365 -0.49,-0.804 -0.691,-0.98 l -0.365,-0.327 c 2.073,-1.005 3.066,-1.52 3.543,-1.784 0.478,-0.264 0.867,-0.528 0.867,-0.591 0,-0.075 -0.188,-0.1 -0.452,-0.062 -0.239,0.037 -1.169,0.163 -2.061,0.289 -0.879,0.125 -1.796,0.276 -2.048,0.326 l -0.439,0.101 c 0.188,-0.943 0.188,-1.332 0.1,-1.696 -0.063,-0.314 -0.276,-0.83 -0.452,-1.156 -0.176,-0.327 -0.578,-0.792 -0.905,-1.043 -0.326,-0.264 -0.867,-0.54 -1.193,-0.641 -0.327,-0.088 -0.704,-0.176 -0.842,-0.176 -0.126,0 -0.528,-0.113 -0.892,-0.263 -0.364,-0.151 -1.08,-0.528 -1.608,-0.855 -0.528,-0.326 -1.571,-1.055 -2.324,-1.621 -0.754,-0.565 -1.684,-1.369 -2.073,-1.784 -0.39,-0.414 -0.83,-1.017 -0.98,-1.319 -0.164,-0.314 -0.49,-0.766 -0.729,-0.992 -0.251,-0.239 -0.666,-0.541 -0.93,-0.679 -0.339,-0.176 -0.766,-0.264 -1.482,-0.301 -0.88,-0.038 -1.093,-0.013 -1.583,0.238 -0.314,0.151 -0.591,0.239 -0.629,0.214 -0.037,-0.038 -0.062,-0.214 -0.062,-0.389 0,-0.176 -0.101,-0.93 -0.227,-1.659 -0.125,-0.741 -0.276,-1.621 -0.339,-1.972 -0.063,-0.34 -0.163,-0.616 -0.238,-0.616 -0.076,0 -0.164,0.088 -0.201,0.201 z"
       fill="#0060a9"
       id="path6" />
    <path
       d="m 276.012,117.681 c -0.188,0.076 -0.578,0.289 -0.867,0.478 -0.352,0.238 -0.666,0.628 -1.068,1.306 -0.389,0.666 -0.841,1.219 -1.457,1.784 -0.49,0.453 -1.571,1.294 -2.387,1.885 -0.817,0.578 -1.948,1.294 -2.5,1.583 -0.566,0.289 -1.42,0.603 -1.91,0.716 -0.503,0.113 -1.143,0.352 -1.457,0.553 -0.327,0.201 -0.729,0.603 -0.93,0.917 -0.189,0.314 -0.402,0.804 -0.465,1.106 -0.075,0.326 -0.075,0.716 0,1.005 0.063,0.264 0.188,0.603 0.289,0.741 0.1,0.151 0.214,0.276 0.264,0.264 0.05,0 0.326,0.213 0.603,0.477 0.402,0.39 0.729,0.553 1.671,0.829 0.628,0.201 1.533,0.428 1.997,0.503 0.654,0.113 1.006,0.113 1.659,0 0.703,-0.126 0.904,-0.126 1.256,0.013 0.226,0.087 0.54,0.326 0.691,0.515 0.176,0.226 0.264,0.502 0.264,0.791 0,0.302 -0.1,0.566 -0.301,0.804 -0.176,0.214 -0.453,0.39 -0.679,0.427 -0.213,0.038 -0.553,0.026 -0.754,-0.025 -0.188,-0.037 -0.703,-0.402 -1.13,-0.804 -0.49,-0.452 -1.081,-0.854 -1.609,-1.093 -0.452,-0.213 -1.281,-0.515 -1.821,-0.691 -0.88,-0.276 -1.081,-0.301 -1.897,-0.213 -0.654,0.062 -1.043,0.175 -1.32,0.364 -0.213,0.151 -0.54,0.553 -0.716,0.892 -0.251,0.49 -0.314,0.766 -0.314,1.445 0,0.628 0.063,0.955 0.264,1.332 0.138,0.276 0.54,0.816 0.879,1.193 0.402,0.44 0.817,1.093 1.181,1.872 0.314,0.653 0.779,1.885 1.056,2.739 0.264,0.842 0.578,1.972 0.678,2.488 0.151,0.716 0.176,1.281 0.126,2.211 -0.063,0.917 -0.038,1.394 0.088,1.834 0.1,0.339 0.377,0.829 0.628,1.118 0.251,0.302 0.716,0.654 1.055,0.804 0.327,0.151 0.804,0.277 1.068,0.289 0.289,0 0.591,-0.088 0.779,-0.226 0.164,-0.125 0.528,-0.339 0.804,-0.477 0.352,-0.189 0.691,-0.528 1.169,-1.181 0.364,-0.503 0.867,-1.345 1.13,-1.872 0.302,-0.603 0.516,-1.231 0.591,-1.721 0.088,-0.666 0.163,-0.83 0.528,-1.156 0.326,-0.302 0.527,-0.39 0.904,-0.39 0.251,0 0.578,0.05 0.716,0.113 0.126,0.076 0.314,0.289 0.415,0.478 0.1,0.201 0.176,0.502 0.176,0.691 0,0.176 -0.113,0.515 -0.264,0.741 -0.176,0.264 -0.54,0.54 -0.993,0.766 -0.427,0.214 -1.017,0.654 -1.482,1.131 -0.427,0.427 -1.055,1.194 -1.407,1.696 -0.339,0.515 -0.628,1.056 -0.628,1.219 0,0.163 -0.063,0.477 -0.164,0.691 -0.113,0.276 -0.138,0.528 -0.05,0.917 0.05,0.289 0.251,0.716 0.44,0.955 0.188,0.226 0.628,0.578 0.98,0.766 0.553,0.302 0.766,0.352 1.482,0.352 0.666,-0.012 0.98,-0.088 1.608,-0.377 0.428,-0.201 1.093,-0.44 1.495,-0.528 0.503,-0.113 1.584,-0.163 3.694,-0.15 2.412,0 3.129,0.037 3.782,0.201 0.44,0.113 1.08,0.352 1.432,0.515 0.339,0.176 0.867,0.339 1.156,0.377 0.314,0.037 0.804,-0.013 1.194,-0.126 0.439,-0.126 0.854,-0.352 1.231,-0.703 0.327,-0.289 0.653,-0.717 0.754,-0.98 0.138,-0.34 0.163,-0.654 0.1,-1.081 -0.05,-0.327 -0.176,-0.804 -0.289,-1.068 -0.125,-0.264 -0.452,-0.791 -0.741,-1.181 -0.289,-0.402 -0.854,-1.055 -1.244,-1.47 -0.49,-0.527 -0.93,-0.867 -1.445,-1.105 -0.414,-0.189 -0.854,-0.49 -0.992,-0.666 -0.126,-0.189 -0.277,-0.49 -0.314,-0.691 -0.051,-0.239 0.012,-0.515 0.163,-0.829 0.176,-0.365 0.352,-0.516 0.704,-0.641 0.414,-0.138 0.515,-0.126 0.929,0.063 0.252,0.125 0.553,0.377 0.666,0.578 0.113,0.201 0.239,0.653 0.289,1.005 0.038,0.364 0.251,1.03 0.478,1.495 0.213,0.452 0.703,1.256 1.08,1.784 0.364,0.515 0.817,1.068 0.993,1.231 0.175,0.151 0.59,0.402 0.917,0.553 0.326,0.163 0.791,0.289 1.017,0.289 0.227,0 0.629,-0.101 0.892,-0.214 0.264,-0.125 0.654,-0.377 0.88,-0.565 0.226,-0.189 0.54,-0.616 0.716,-0.942 0.289,-0.566 0.314,-0.666 0.276,-2.136 -0.025,-1.093 0.026,-1.835 0.164,-2.5 0.113,-0.528 0.439,-1.671 0.716,-2.563 0.289,-0.88 0.791,-2.136 1.118,-2.79 0.352,-0.728 0.792,-1.407 1.131,-1.759 0.301,-0.301 0.653,-0.778 0.779,-1.03 0.138,-0.264 0.276,-0.703 0.314,-0.992 0.038,-0.277 0.012,-0.767 -0.063,-1.093 -0.075,-0.327 -0.289,-0.817 -0.49,-1.106 -0.214,-0.289 -0.565,-0.59 -0.867,-0.741 -0.327,-0.151 -0.766,-0.226 -1.244,-0.226 -0.49,-0.013 -1.068,0.1 -1.671,0.301 -0.515,0.163 -1.369,0.515 -1.909,0.767 -0.666,0.314 -1.169,0.653 -1.546,1.067 -0.389,0.39 -0.728,0.629 -1.042,0.717 -0.34,0.088 -0.591,0.088 -0.867,0 -0.214,-0.063 -0.503,-0.277 -0.629,-0.453 -0.163,-0.213 -0.238,-0.502 -0.238,-0.829 0,-0.402 0.075,-0.578 0.364,-0.867 0.189,-0.201 0.528,-0.389 0.741,-0.427 0.214,-0.038 0.679,-0.013 1.043,0.075 0.364,0.076 0.917,0.113 1.257,0.076 0.326,-0.038 1.118,-0.214 1.746,-0.377 0.641,-0.163 1.482,-0.452 1.859,-0.641 0.377,-0.188 0.855,-0.528 1.068,-0.766 0.214,-0.239 0.44,-0.566 0.503,-0.729 0.063,-0.163 0.125,-0.553 0.113,-0.867 0,-0.314 -0.063,-0.754 -0.151,-0.98 -0.075,-0.239 -0.289,-0.628 -0.465,-0.867 -0.176,-0.238 -0.615,-0.603 -0.955,-0.791 -0.339,-0.201 -0.942,-0.402 -1.344,-0.478 -0.415,-0.062 -1.168,-0.339 -1.784,-0.653 -0.59,-0.302 -1.746,-1.018 -2.563,-1.608 -0.817,-0.578 -1.897,-1.432 -2.387,-1.885 -0.553,-0.515 -1.068,-1.118 -1.37,-1.633 -0.263,-0.452 -0.64,-0.98 -0.829,-1.181 -0.201,-0.201 -0.578,-0.465 -0.842,-0.59 -0.351,-0.189 -0.716,-0.239 -1.432,-0.239 -0.829,0 -1.03,0.038 -1.394,0.289 -0.239,0.163 -0.578,0.515 -0.742,0.779 -0.163,0.264 -0.364,0.766 -0.439,1.13 -0.076,0.403 -0.101,1.194 -0.063,2.073 0.037,0.792 0.163,1.722 0.264,2.086 0.113,0.364 0.339,0.892 0.502,1.194 0.251,0.427 0.289,0.628 0.239,1.068 -0.05,0.389 -0.163,0.615 -0.44,0.854 -0.264,0.251 -0.49,0.327 -0.842,0.327 -0.389,0 -0.552,-0.076 -0.892,-0.415 -0.339,-0.327 -0.414,-0.503 -0.414,-0.892 0,-0.289 0.151,-0.792 0.414,-1.332 0.352,-0.741 0.428,-1.068 0.541,-2.286 0.075,-0.779 0.1,-1.747 0.05,-2.136 -0.038,-0.402 -0.189,-0.968 -0.314,-1.257 -0.126,-0.301 -0.352,-0.666 -0.49,-0.816 -0.151,-0.164 -0.478,-0.39 -0.741,-0.503 -0.289,-0.138 -0.729,-0.213 -1.131,-0.213 -0.365,0 -0.817,0.062 -1.018,0.125 z"
       fill="#ffffff"
       id="path7" />
    <path
       d="m 270.409,119.44 -1.91,0.93 c -2.4,2.387 -3.04,3.116 -2.978,3.153 0.063,0.025 0.993,-0.351 2.061,-0.854 l 1.935,-0.905 c 2.311,-2.45 2.977,-3.178 2.977,-3.216 0,-0.025 -0.037,-0.05 -0.088,-0.05 -0.05,0 -0.942,0.427 -1.997,0.942 z m 17.225,-0.741 c 0,0.05 0.678,0.804 1.52,1.658 l 1.52,1.583 c 2.777,1.269 3.618,1.621 3.669,1.596 0.05,-0.025 -0.541,-0.716 -1.307,-1.533 l -1.407,-1.495 c -3.003,-1.47 -3.895,-1.897 -3.933,-1.897 -0.037,0 -0.062,0.038 -0.062,0.088 z m -9.775,9.41 c -0.427,0.113 -1.018,0.314 -1.307,0.452 -0.301,0.126 -0.816,0.415 -1.143,0.641 -0.339,0.226 -0.791,0.566 -1.018,0.767 -0.226,0.201 -0.665,0.678 -0.992,1.067 -0.327,0.39 -0.767,1.094 -0.98,1.546 -0.214,0.465 -0.478,1.181 -0.591,1.608 -0.125,0.49 -0.201,1.244 -0.201,2.023 0,0.929 0.063,1.495 0.264,2.198 0.151,0.528 0.453,1.294 0.679,1.722 0.226,0.427 0.728,1.155 1.13,1.608 0.402,0.452 0.98,1.005 1.282,1.231 0.301,0.214 0.93,0.578 1.394,0.792 0.453,0.226 1.207,0.49 1.659,0.603 0.477,0.113 1.332,0.201 1.972,0.201 0.641,0 1.495,-0.088 1.973,-0.201 0.452,-0.113 1.281,-0.415 1.847,-0.691 0.816,-0.402 1.206,-0.691 2.085,-1.571 0.88,-0.867 1.181,-1.269 1.583,-2.085 0.277,-0.553 0.591,-1.357 0.704,-1.785 0.126,-0.489 0.188,-1.231 0.188,-2.022 0,-0.792 -0.075,-1.533 -0.201,-2.023 -0.113,-0.427 -0.427,-1.231 -0.703,-1.784 -0.402,-0.817 -0.691,-1.206 -1.571,-2.086 -0.879,-0.879 -1.256,-1.168 -2.085,-1.57 -0.566,-0.264 -1.37,-0.566 -1.797,-0.679 -0.477,-0.113 -1.269,-0.175 -2.085,-0.175 -0.867,0 -1.571,0.075 -2.086,0.213 z"
       fill="#0060a9"
       id="path8" />
    <path
       d="m 278.99,128.348 c -0.327,0.05 -0.742,0.138 -0.917,0.176 -0.289,0.063 -0.327,0.125 -0.302,0.452 0.025,0.377 0.063,0.389 1.043,0.666 0.854,0.239 1.105,0.264 1.608,0.163 0.327,-0.063 0.905,-0.201 1.282,-0.301 0.64,-0.176 0.691,-0.214 0.691,-0.541 0,-0.339 -0.051,-0.364 -0.566,-0.477 -0.314,-0.05 -0.942,-0.138 -1.407,-0.163 -0.452,-0.038 -1.106,-0.025 -1.432,0.025 z"
       fill="#ffe003"
       id="path9" />
    <path
       d="m 276.665,129.026 c -0.351,0.176 -0.892,0.478 -1.193,0.679 -0.289,0.213 -0.729,0.565 -0.98,0.791 -0.251,0.239 -0.452,0.465 -0.452,0.515 0,0.051 0.15,0.139 0.339,0.189 l 0.327,0.1 c -0.189,2.337 -0.176,2.614 -0.038,2.676 0.088,0.051 0.666,0.302 1.281,0.578 l 1.144,0.49 2.801,-1.809 -0.062,-3.028 c -0.742,-0.226 -1.269,-0.377 -1.646,-0.477 -0.666,-0.176 -0.679,-0.189 -0.679,-0.591 0,-0.226 -0.037,-0.414 -0.088,-0.414 -0.05,0 -0.389,0.138 -0.754,0.301 z m 5.943,0.088 c -0.038,0.352 -0.088,0.39 -0.691,0.578 -0.364,0.101 -0.904,0.264 -1.193,0.352 l -0.541,0.163 c -0.037,2.211 -0.012,2.915 0.038,2.99 0.05,0.076 0.704,0.553 1.457,1.068 l 1.37,0.943 2.5,-0.729 c 0.05,-1.47 0.088,-2.01 0.126,-2.161 0.037,-0.163 0.213,-0.339 0.477,-0.452 l 0.415,-0.176 c -0.792,-0.955 -1.332,-1.47 -1.734,-1.759 -0.39,-0.289 -0.93,-0.628 -1.194,-0.767 -0.251,-0.125 -0.59,-0.276 -0.741,-0.339 -0.239,-0.088 -0.264,-0.05 -0.289,0.289 z"
       fill="#ffffff"
       id="path10" />
    <path
       d="m 273.512,131.614 c -0.163,0.201 -0.477,0.779 -0.704,1.269 -0.226,0.49 -0.49,1.269 -0.578,1.722 -0.1,0.464 -0.15,0.866 -0.1,0.904 0.038,0.05 0.188,0.113 0.339,0.151 0.226,0.063 0.39,-0.075 1.018,-0.842 l 0.754,-0.93 c 0.15,-1.746 0.163,-2.311 0.138,-2.374 -0.038,-0.063 -0.176,-0.151 -0.327,-0.201 -0.201,-0.063 -0.326,0.012 -0.54,0.301 z m 12.79,0.453 c -0.314,0.113 -0.327,0.15 -0.402,1.269 l -0.088,1.155 c 1.143,1.847 1.344,2.074 1.558,2.074 0.151,0 0.352,-0.026 0.439,-0.051 0.114,-0.037 0.189,-0.213 0.189,-0.477 0,-0.239 -0.088,-0.829 -0.189,-1.344 -0.1,-0.503 -0.376,-1.332 -0.615,-1.847 -0.251,-0.503 -0.478,-0.918 -0.515,-0.905 -0.025,0 -0.201,0.063 -0.377,0.126 z m -7.601,2.236 c -0.691,0.465 -1.294,0.854 -1.357,0.867 -0.05,0.012 0.063,0.678 0.264,1.457 0.188,0.792 0.377,1.571 0.414,1.759 l 0.076,0.327 h 3.518 c 0.791,-2.726 1.017,-3.518 0.992,-3.518 -0.025,-0.013 -0.553,-0.364 -1.168,-0.791 -0.629,-0.44 -1.219,-0.817 -1.32,-0.855 -0.1,-0.05 -0.678,0.264 -1.419,0.754 z"
       fill="#ffe003"
       id="path11" />
    <path
       d="m 273.55,135.095 c -0.729,0.879 -0.767,0.904 -1.169,0.816 l -0.414,-0.075 c 0.138,1.344 0.263,2.06 0.364,2.462 0.113,0.39 0.377,1.081 0.603,1.546 l 0.415,0.829 0.64,-0.666 c 1.521,0.741 2.036,0.955 2.111,0.955 0.088,0 0.289,-0.201 0.452,-0.44 0.176,-0.251 0.528,-0.766 0.804,-1.156 l 0.503,-0.716 -0.842,-3.329 c -1.884,-0.867 -2.5,-1.131 -2.563,-1.131 -0.075,0 -0.477,0.402 -0.904,0.905 z m 10.566,0.062 c -0.654,0.189 -1.219,0.377 -1.257,0.428 -0.05,0.05 -0.301,0.829 -0.578,1.721 l -0.49,1.646 c 1.345,1.558 1.785,2.01 1.847,2.01 0.076,0 0.616,-0.201 1.219,-0.44 l 1.106,-0.44 c 0.414,0.402 0.578,0.528 0.628,0.528 0.05,0 0.276,-0.364 0.502,-0.804 0.214,-0.44 0.478,-1.093 0.578,-1.457 0.101,-0.352 0.214,-0.88 0.252,-1.156 0.062,-0.465 0.05,-0.503 -0.164,-0.44 -0.138,0.025 -0.352,0.075 -0.477,0.113 -0.201,0.05 -0.365,-0.138 -0.93,-1.005 -0.389,-0.603 -0.766,-1.068 -0.867,-1.068 -0.088,0.013 -0.703,0.176 -1.369,0.364 z"
       fill="#ffffff"
       id="path12" />
    <path
       d="m 260.735,138.148 c 0.025,0.138 0.176,1.093 0.326,2.11 l 0.264,1.835 c 1.458,2.814 1.922,3.656 1.998,3.693 0.063,0.025 0.113,-0.088 0.113,-0.264 0,-0.188 -0.101,-1.143 -0.239,-2.148 l -0.239,-1.809 c -1.57,-2.865 -2.085,-3.694 -2.161,-3.694 -0.075,0 -0.113,0.113 -0.062,0.277 z m 37.226,1.721 -1.018,1.872 c -0.377,2.852 -0.49,3.807 -0.49,3.957 0,0.139 0.051,0.264 0.088,0.264 0.051,0 0.528,-0.816 1.043,-1.809 l 0.955,-1.822 c 0.465,-3.279 0.565,-4.259 0.528,-4.284 -0.051,-0.025 -0.541,0.792 -1.106,1.822 z"
       fill="#0060a9"
       id="path13" />
    <path
       d="m 277.193,140.007 c -0.427,0.59 -0.791,1.118 -0.779,1.168 0,0.051 0.365,0.49 0.779,0.98 0.716,0.83 0.767,0.918 0.603,1.131 -0.088,0.138 -0.163,0.302 -0.163,0.39 -0.013,0.075 0.264,0.213 0.615,0.289 0.34,0.075 1.131,0.138 1.759,0.138 0.629,0 1.42,-0.063 1.759,-0.138 l 0.629,-0.139 c -0.277,-0.465 -0.365,-0.64 -0.365,-0.691 0,-0.05 0.302,-0.49 0.653,-0.98 0.365,-0.49 0.654,-0.942 0.629,-1.005 -0.025,-0.063 -0.44,-0.59 -0.93,-1.156 l -0.88,-1.03 -3.505,-0.012 z"
       fill="#ffffff"
       id="path14" />
    <path
       d="m 273.738,140.61 c -0.226,0.239 -0.226,0.251 0.138,0.691 0.201,0.239 0.691,0.691 1.081,1.005 0.377,0.314 0.992,0.729 1.357,0.917 0.364,0.201 0.753,0.352 0.867,0.352 0.113,0.013 0.263,-0.1 0.326,-0.226 0.101,-0.201 0,-0.39 -0.628,-1.143 -0.641,-0.779 -0.879,-0.968 -1.696,-1.37 -0.528,-0.264 -1.018,-0.465 -1.093,-0.465 -0.063,0 -0.226,0.113 -0.352,0.239 z m 10.993,0.226 c -1.03,0.415 -1.093,0.465 -1.759,1.357 -0.678,0.88 -0.691,0.93 -0.527,1.219 0.176,0.289 0.188,0.289 0.628,0.113 0.251,-0.101 0.741,-0.365 1.093,-0.566 0.339,-0.213 0.942,-0.665 1.332,-1.005 0.389,-0.351 0.741,-0.753 0.779,-0.892 0.037,-0.176 -0.013,-0.351 -0.151,-0.49 -0.126,-0.113 -0.239,-0.201 -0.276,-0.188 -0.038,0 -0.541,0.213 -1.119,0.452 z"
       fill="#ffe003"
       id="path15" />
    <path
       d="m 277.683,154.355 c -1.118,0.226 -2.048,0.427 -2.085,0.465 -0.038,0.037 0.025,0.088 0.113,0.113 0.1,0.025 1.068,0.201 2.148,0.377 l 1.973,0.314 c 3.329,-0.541 4.208,-0.729 4.183,-0.804 -0.012,-0.063 -0.942,-0.289 -2.048,-0.503 -1.093,-0.214 -2.06,-0.377 -2.123,-0.377 -0.075,0.013 -1.043,0.201 -2.161,0.415 z m -68.661,19.7 c 0.038,0.741 0.126,2.324 0.189,3.543 0.063,1.206 0.201,3.053 0.301,4.095 0.101,1.056 0.189,1.923 0.201,1.935 0.013,0.013 2.237,-2.399 4.925,-5.352 2.701,-2.965 4.888,-5.415 4.862,-5.465 -0.025,-0.05 -2.412,-0.088 -5.289,-0.088 h -5.252 z m 20.328,3.329 c -2.336,2.563 -4.874,5.352 -5.666,6.219 -0.791,0.855 -3.706,4.058 -6.495,7.124 -2.789,3.065 -5.139,5.691 -5.239,5.829 -0.139,0.201 -0.139,0.352 -0.013,0.892 0.075,0.365 0.44,1.835 0.792,3.28 0.351,1.432 0.929,3.63 1.281,4.874 0.364,1.244 0.955,3.179 1.319,4.31 0.365,1.13 0.716,2.073 0.792,2.11 0.063,0.038 3.455,-3.618 7.538,-8.116 4.096,-4.498 10.089,-11.094 13.33,-14.662 3.242,-3.555 7.915,-8.694 10.39,-11.408 2.463,-2.713 4.46,-4.975 4.435,-5.025 -0.037,-0.05 -4.146,-0.088 -9.146,-0.088 h -9.096 z"
       fill="#0060a9"
       id="path16" />
    <path
       d="m 265.107,225.013 -0.013,52.291 c 4.398,4.108 5.666,5.176 6.684,5.892 0.829,0.565 2.463,1.671 3.644,2.462 1.181,0.779 2.676,1.759 3.329,2.161 1.043,0.654 1.231,0.729 1.47,0.616 0.138,-0.063 1.269,-0.779 2.5,-1.57 1.231,-0.792 3.33,-2.199 4.674,-3.116 2.06,-1.42 2.827,-2.048 4.975,-4.033 l 2.538,-2.35 V 172.723 h -29.801 z"
       fill="#ffffff"
       id="path17" />
    <path
       d="m 308.213,172.811 c -0.025,0.05 1.696,2.01 3.845,4.372 2.135,2.362 6.834,7.526 10.427,11.483 3.606,3.945 9.863,10.83 13.921,15.303 4.058,4.46 7.413,8.116 7.463,8.116 0.05,0 0.452,-1.105 0.892,-2.462 0.44,-1.37 1.106,-3.543 1.47,-4.85 0.377,-1.319 0.967,-3.593 1.319,-5.063 0.352,-1.47 0.641,-2.764 0.641,-2.877 0,-0.113 -2.689,-3.166 -5.98,-6.785 -3.292,-3.605 -8.179,-8.983 -10.881,-11.948 l -4.9,-5.377 c -14.071,0 -18.179,0.038 -18.217,0.088 z m 32.301,0 c -0.025,0.05 0.591,0.779 1.382,1.633 0.779,0.855 2.965,3.242 4.837,5.315 1.885,2.073 3.468,3.731 3.518,3.681 0.051,-0.038 0.138,-0.503 0.201,-1.03 0.051,-0.516 0.139,-1.32 0.176,-1.784 0.038,-0.453 0.113,-1.734 0.176,-2.852 0.063,-1.106 0.151,-2.702 0.176,-3.543 l 0.075,-1.508 c -8.128,0 -10.503,0.038 -10.541,0.088 z m -53.358,3.367 c -0.289,0.063 -0.904,0.289 -1.369,0.503 -0.453,0.226 -1.118,0.64 -1.458,0.929 -0.339,0.289 -0.892,0.867 -1.243,1.294 -0.39,0.49 -0.98,1.521 -1.609,2.827 l -0.992,2.048 c -0.603,-0.113 -1.043,-0.251 -1.37,-0.389 -0.326,-0.126 -0.753,-0.327 -0.954,-0.453 l -0.365,-0.213 c -0.125,0.678 -0.176,0.942 -0.176,1.03 0,0.075 0.289,0.276 0.628,0.44 0.34,0.163 0.905,0.364 1.257,0.439 0.49,0.126 0.615,0.201 0.553,0.34 -0.051,0.088 -0.503,1.319 -1.031,2.726 -0.515,1.407 -1.181,3.204 -1.482,3.983 -0.302,0.791 -0.729,1.809 -0.955,2.261 l -0.389,0.842 c -1.257,-0.314 -2.048,-0.415 -2.576,-0.415 -0.515,0 -1.281,0.076 -1.696,0.176 -0.402,0.088 -1.106,0.352 -1.533,0.566 -0.44,0.201 -1.055,0.615 -1.369,0.917 -0.314,0.289 -0.679,0.779 -0.817,1.068 -0.126,0.301 -0.239,0.716 -0.239,0.917 0,0.213 0.063,0.565 0.151,0.779 0.088,0.213 0.314,0.54 0.515,0.716 0.189,0.188 0.691,0.44 1.118,0.565 0.428,0.138 1.257,0.277 1.847,0.314 0.892,0.063 1.219,0.038 1.91,-0.176 0.452,-0.138 1.181,-0.477 1.608,-0.753 0.427,-0.264 1.055,-0.792 1.407,-1.156 0.339,-0.365 0.628,-0.704 0.628,-0.754 -0.012,-0.05 0.063,-0.101 0.139,-0.101 0.088,0 0.439,0.201 0.804,0.44 0.364,0.251 1.168,0.691 1.796,1.005 0.616,0.314 1.458,0.679 1.872,0.817 0.415,0.126 1.081,0.289 1.495,0.352 0.402,0.05 1.093,0.075 1.521,0.05 0.414,-0.038 1.218,-0.163 1.784,-0.289 0.552,-0.138 1.407,-0.452 1.909,-0.704 0.49,-0.251 1.257,-0.804 1.709,-1.218 0.452,-0.402 1.068,-1.118 1.369,-1.571 0.465,-0.716 0.553,-0.929 0.553,-1.432 0,-0.465 -0.037,-0.591 -0.213,-0.616 -0.113,-0.025 -0.566,0.264 -1.005,0.641 -0.44,0.364 -1.156,0.905 -1.583,1.181 -0.428,0.264 -1.056,0.603 -1.395,0.741 -0.515,0.201 -0.892,0.252 -2.035,0.252 -0.767,0 -1.885,-0.076 -2.475,-0.176 -0.591,-0.088 -1.42,-0.277 -1.847,-0.402 -0.427,-0.139 -1.244,-0.427 -1.809,-0.666 -0.578,-0.226 -1.043,-0.465 -1.043,-0.515 0,-0.038 0.238,-0.49 0.515,-0.98 0.289,-0.49 0.942,-1.722 1.445,-2.727 0.515,-1.017 1.156,-2.412 1.432,-3.09 0.289,-0.691 0.653,-1.709 0.829,-2.262 l 0.314,-1.017 c 0.867,-0.151 1.583,-0.365 2.136,-0.553 0.553,-0.201 1.332,-0.528 1.734,-0.716 0.389,-0.201 1.03,-0.578 1.42,-0.842 0.402,-0.277 0.992,-0.754 1.331,-1.093 0.34,-0.339 0.804,-0.993 1.068,-1.495 0.44,-0.842 0.465,-0.943 0.465,-1.985 0,-1.081 0,-1.093 -0.414,-1.508 -0.227,-0.239 -0.691,-0.54 -1.018,-0.678 -0.352,-0.151 -0.93,-0.264 -1.432,-0.289 -0.453,-0.026 -1.068,0.012 -1.37,0.075 z"
       fill="#0060a9"
       id="path18" />
    <path
       d="m 287.106,177.937 c -0.201,0.05 -0.565,0.214 -0.804,0.364 -0.239,0.151 -0.591,0.478 -0.767,0.704 -0.226,0.289 -0.59,1.156 -1.042,2.513 -0.377,1.143 -0.654,2.11 -0.616,2.148 0.05,0.025 0.603,-0.126 1.231,-0.339 0.641,-0.214 1.508,-0.603 1.935,-0.842 0.427,-0.251 0.942,-0.653 1.156,-0.892 0.214,-0.239 0.503,-0.653 0.641,-0.93 0.138,-0.289 0.276,-0.754 0.301,-1.043 0.051,-0.402 0,-0.64 -0.188,-0.929 -0.138,-0.214 -0.365,-0.453 -0.515,-0.553 -0.139,-0.088 -0.427,-0.189 -0.629,-0.226 -0.188,-0.025 -0.515,-0.025 -0.703,0.025 z"
       fill="#ffffff"
       id="path19" />
    <path
       d="m 251.136,188.98 c -2.186,2.4 -8.455,9.298 -13.933,15.316 -5.466,6.018 -11.471,12.614 -13.343,14.662 -1.859,2.047 -3.405,3.794 -3.43,3.869 -0.025,0.076 0.88,1.96 1.998,4.184 1.105,2.224 2.588,5.025 3.279,6.244 0.691,1.206 1.307,2.236 1.344,2.287 0.05,0.05 1.835,-1.835 3.958,-4.171 2.136,-2.337 7.525,-8.255 11.986,-13.167 4.46,-4.9 9.058,-9.963 10.214,-11.232 l 2.111,-2.325 c 0.037,-16.533 0,-19.926 -0.088,-19.963 -0.063,-0.038 -1.91,1.897 -4.096,4.296 z m 53.547,5.654 v 10.013 c 5.289,5.805 9.95,10.918 13.757,15.102 3.807,4.184 8.619,9.473 10.679,11.747 2.865,3.154 3.782,4.096 3.882,3.983 0.076,-0.088 0.729,-1.194 1.445,-2.463 0.729,-1.281 1.885,-3.417 2.576,-4.761 0.678,-1.345 1.558,-3.116 1.947,-3.958 l 0.704,-1.52 c -0.666,-0.679 -2.676,-2.89 -4.9,-5.34 -2.224,-2.45 -6.458,-7.111 -9.41,-10.352 -2.953,-3.242 -8.757,-9.624 -12.903,-14.185 -4.146,-4.56 -7.589,-8.292 -7.664,-8.292 -0.076,0 -0.113,3.418 -0.113,10.026 z"
       fill="#0060a9"
       id="path20" />
    <path
       d="m 272.067,195.401 c -0.339,0.113 -0.791,0.376 -0.992,0.565 -0.214,0.201 -0.465,0.502 -0.553,0.691 -0.088,0.176 -0.176,0.49 -0.176,0.703 0,0.227 0.088,0.478 0.213,0.591 0.114,0.1 0.327,0.251 0.478,0.327 0.151,0.062 0.603,0.125 1.018,0.138 0.552,0 0.892,-0.076 1.331,-0.289 0.34,-0.163 0.842,-0.553 1.144,-0.88 0.289,-0.326 0.615,-0.728 0.703,-0.904 0.176,-0.289 0.164,-0.327 -0.05,-0.49 -0.138,-0.101 -0.477,-0.251 -0.779,-0.365 -0.289,-0.1 -0.804,-0.201 -1.131,-0.238 -0.402,-0.038 -0.804,0.012 -1.206,0.151 z"
       fill="#ffffff"
       id="path21" />
    <path
       d="m 275.949,205.502 c -0.351,0.1 -0.967,0.339 -1.344,0.553 -0.389,0.213 -1.018,0.716 -1.407,1.118 -0.39,0.414 -0.704,0.816 -0.704,0.892 0,0.088 0.138,0.289 0.314,0.452 l 0.302,0.289 c 0.578,-0.729 0.942,-1.131 1.168,-1.344 0.239,-0.226 0.679,-0.528 0.993,-0.691 0.402,-0.201 0.766,-0.277 1.281,-0.277 0.603,0 0.754,0.051 1.018,0.302 0.239,0.239 0.289,0.402 0.289,0.942 0,0.39 -0.101,0.942 -0.251,1.344 -0.151,0.377 -0.641,1.345 -1.093,2.161 -0.465,0.83 -1.407,2.45 -2.086,3.631 -0.691,1.181 -1.759,2.978 -2.387,3.983 -0.804,1.294 -1.256,2.186 -1.533,2.978 -0.226,0.64 -0.427,1.507 -0.465,2.022 -0.062,0.666 -0.037,1.068 0.126,1.609 0.151,0.54 0.327,0.829 0.754,1.243 0.414,0.402 0.741,0.591 1.281,0.742 0.44,0.125 1.144,0.213 1.847,0.213 0.628,0 1.432,-0.088 1.809,-0.176 0.377,-0.1 0.993,-0.339 1.37,-0.527 0.377,-0.189 1.017,-0.603 1.407,-0.93 0.389,-0.327 0.879,-0.817 1.068,-1.093 0.201,-0.264 0.402,-0.49 0.452,-0.49 0.05,0 0.126,0.201 0.176,0.452 0.038,0.239 0.276,0.741 0.515,1.093 0.226,0.365 0.641,0.829 0.892,1.03 0.264,0.214 0.792,0.528 1.181,0.704 0.666,0.302 0.817,0.314 1.86,0.264 0.867,-0.038 1.243,-0.113 1.658,-0.327 0.302,-0.151 0.691,-0.414 0.88,-0.578 0.188,-0.176 0.477,-0.59 0.653,-0.917 0.264,-0.502 0.314,-0.729 0.314,-1.545 -0.013,-0.616 -0.075,-1.106 -0.214,-1.395 -0.163,-0.352 -0.264,-0.44 -0.527,-0.44 -0.176,-0.012 -0.453,0.076 -0.591,0.176 -0.251,0.164 -0.264,0.214 -0.138,0.616 0.075,0.251 0.1,0.641 0.063,0.867 -0.038,0.239 -0.226,0.565 -0.44,0.779 -0.352,0.327 -0.427,0.352 -1.307,0.352 -0.917,0 -0.954,-0.013 -1.369,-0.415 -0.251,-0.239 -0.477,-0.616 -0.553,-0.892 -0.075,-0.264 -0.088,-0.716 -0.038,-1.018 0.038,-0.289 0.214,-0.904 0.377,-1.357 0.164,-0.464 0.804,-1.909 1.408,-3.216 0.615,-1.306 1.771,-3.744 2.588,-5.415 0.829,-1.658 1.934,-3.857 2.462,-4.875 0.528,-1.005 0.968,-1.934 0.968,-2.047 0,-0.126 -0.114,-0.227 -0.264,-0.264 -0.151,-0.025 -0.754,-0.101 -1.345,-0.176 l -1.08,-0.126 c -0.452,0.54 -1.093,1.696 -1.709,2.928 -0.615,1.243 -2.324,4.786 -3.794,7.89 -1.47,3.115 -2.839,5.917 -3.053,6.231 -0.214,0.327 -0.704,0.892 -1.093,1.257 -0.39,0.364 -1.093,0.854 -1.545,1.08 -0.704,0.339 -1.018,0.415 -1.872,0.477 -1.018,0.051 -1.031,0.051 -1.37,-0.301 -0.226,-0.226 -0.377,-0.54 -0.44,-0.892 -0.062,-0.364 -0.025,-0.817 0.114,-1.42 0.125,-0.553 0.464,-1.407 0.879,-2.211 0.377,-0.716 1.231,-2.261 1.91,-3.442 0.678,-1.181 1.733,-3.053 2.362,-4.159 0.615,-1.118 1.394,-2.563 1.708,-3.216 0.44,-0.892 0.578,-1.32 0.578,-1.722 0,-0.314 -0.125,-0.791 -0.301,-1.156 -0.189,-0.402 -0.453,-0.728 -0.742,-0.929 -0.251,-0.164 -0.753,-0.402 -1.13,-0.528 -0.377,-0.138 -1.018,-0.264 -1.433,-0.289 -0.414,-0.012 -1.042,0.038 -1.407,0.126 z m -22.539,16.534 c -0.942,1.03 -5.126,5.628 -9.285,10.201 -4.158,4.574 -7.588,8.355 -7.626,8.38 -0.025,0.038 -0.867,0.943 -1.847,2.011 l -1.784,1.934 c 0.628,0.867 1.458,1.973 2.249,3.016 0.792,1.043 2.098,2.739 2.915,3.744 0.817,1.017 1.922,2.349 2.45,2.952 0.528,0.616 0.992,1.093 1.03,1.068 0.038,-0.012 0.603,-0.615 1.256,-1.332 0.641,-0.716 3.744,-4.108 6.873,-7.55 l 5.691,-6.257 c 0,-15.642 -0.05,-20.039 -0.1,-20.039 -0.063,0 -0.88,0.841 -1.822,1.872 z m 51.273,8.154 0.012,10.013 c 4.284,4.711 6.785,7.463 8.33,9.159 1.545,1.683 3.392,3.731 4.108,4.523 0.729,0.804 1.37,1.457 1.433,1.432 0.075,-0.013 0.841,-0.879 1.721,-1.922 0.867,-1.043 2.211,-2.689 2.99,-3.681 0.766,-0.98 1.897,-2.475 2.513,-3.33 0.628,-0.842 1.168,-1.608 1.218,-1.683 0.051,-0.101 -1.671,-2.086 -4.774,-5.491 -2.676,-2.94 -7.651,-8.417 -11.056,-12.174 -3.405,-3.769 -6.269,-6.847 -6.345,-6.86 -0.125,0 -0.15,2.073 -0.15,10.014 z m -12.891,2.173 c -0.151,0.176 -0.44,0.49 -0.641,0.679 -0.201,0.188 -0.54,0.389 -0.779,0.452 -0.226,0.063 -0.866,0.176 -1.419,0.251 -0.691,0.088 -1.86,0.101 -3.581,0.05 -1.407,-0.05 -3.555,-0.113 -4.774,-0.138 -1.206,-0.012 -2.601,0.013 -3.091,0.076 -0.49,0.062 -1.332,0.238 -1.847,0.376 -0.527,0.139 -1.193,0.428 -1.495,0.616 -0.289,0.201 -0.691,0.628 -0.892,0.955 -0.301,0.502 -0.364,0.703 -0.364,1.382 0,0.703 0.05,0.867 0.364,1.319 0.264,0.364 0.603,0.641 1.181,0.93 0.691,0.352 0.943,0.414 1.608,0.414 0.553,0 0.892,-0.062 1.119,-0.201 0.276,-0.175 0.301,-0.238 0.175,-0.414 -0.087,-0.101 -0.477,-0.339 -0.866,-0.515 -0.39,-0.176 -0.805,-0.402 -0.918,-0.515 -0.125,-0.101 -0.213,-0.327 -0.213,-0.49 0,-0.164 0.075,-0.44 0.163,-0.629 0.088,-0.176 0.302,-0.414 0.478,-0.527 0.175,-0.113 0.615,-0.289 0.992,-0.39 0.377,-0.1 1.206,-0.201 1.822,-0.226 0.628,-0.025 1.319,-0.012 1.533,0.025 l 0.402,0.076 c -0.126,1.017 -0.302,1.96 -0.465,2.738 -0.164,0.792 -0.377,1.722 -0.478,2.086 -0.088,0.352 -0.301,1.068 -0.464,1.571 -0.239,0.753 -0.34,0.929 -0.553,0.98 -0.151,0.025 -0.641,0.075 -1.106,0.113 -0.465,0.037 -1.181,0.163 -1.608,0.301 -0.427,0.126 -1.043,0.402 -1.369,0.628 -0.327,0.214 -0.717,0.603 -0.867,0.867 -0.189,0.352 -0.264,0.666 -0.264,1.219 0,0.616 0.05,0.804 0.289,1.093 0.163,0.201 0.389,0.364 0.477,0.364 0.138,0 0.201,-0.188 0.264,-0.691 0.063,-0.553 0.138,-0.754 0.44,-1.043 0.213,-0.201 0.628,-0.427 0.967,-0.515 0.327,-0.088 1.005,-0.15 1.495,-0.15 0.49,0.012 0.905,0.025 0.93,0.05 0.025,0.012 -0.163,0.641 -0.402,1.394 -0.251,0.754 -0.691,1.96 -1.005,2.677 -0.302,0.716 -0.792,1.708 -1.081,2.198 -0.276,0.49 -0.766,1.143 -1.055,1.445 -0.427,0.427 -0.729,0.603 -1.382,0.804 -0.653,0.201 -0.967,0.239 -1.432,0.176 -0.34,-0.05 -0.729,-0.201 -0.917,-0.364 -0.214,-0.176 -0.403,-0.515 -0.516,-0.93 -0.113,-0.415 -0.251,-0.679 -0.389,-0.716 -0.113,-0.038 -0.289,0.025 -0.377,0.125 -0.113,0.113 -0.176,0.39 -0.176,0.742 0.013,0.314 0.113,0.741 0.214,0.955 0.113,0.201 0.364,0.577 0.578,0.816 0.213,0.239 0.666,0.566 0.992,0.741 0.528,0.277 0.729,0.302 1.897,0.302 1.206,0.013 1.382,-0.025 2.036,-0.327 0.389,-0.188 1.005,-0.578 1.369,-0.854 0.364,-0.289 0.93,-0.854 1.269,-1.269 0.327,-0.415 0.854,-1.131 1.143,-1.583 0.302,-0.465 0.817,-1.395 1.156,-2.086 0.339,-0.678 0.804,-1.834 1.043,-2.55 l 0.427,-1.307 c 1.495,0.063 2.312,0.025 2.764,-0.062 0.465,-0.076 1.056,-0.264 1.319,-0.415 0.264,-0.151 0.704,-0.528 0.98,-0.829 0.302,-0.327 0.553,-0.742 0.641,-1.043 0.063,-0.276 0.101,-0.729 0.075,-0.98 -0.025,-0.264 -0.138,-0.628 -0.251,-0.804 -0.1,-0.189 -0.276,-0.327 -0.377,-0.327 -0.113,0 -0.201,0.151 -0.238,0.44 -0.038,0.251 -0.164,0.603 -0.277,0.804 -0.125,0.201 -0.465,0.477 -0.804,0.641 -0.402,0.201 -0.879,0.301 -1.482,0.339 -0.49,0.038 -1.081,0.025 -1.307,-0.013 l -0.427,-0.075 c 0.326,-1.244 0.703,-2.94 1.055,-4.573 0.616,-2.965 0.628,-2.978 0.917,-2.94 0.164,0.012 1.156,-0.025 2.211,-0.088 1.043,-0.075 2.199,-0.214 2.564,-0.327 0.351,-0.1 0.904,-0.314 1.218,-0.465 0.314,-0.163 0.779,-0.49 1.056,-0.728 0.263,-0.252 0.59,-0.654 0.716,-0.892 0.125,-0.252 0.238,-0.628 0.251,-0.855 0.013,-0.251 -0.038,-0.452 -0.163,-0.552 -0.164,-0.113 -0.239,-0.088 -0.478,0.188 z m -39.576,26.535 c -1.595,1.746 -3.09,3.379 -3.316,3.643 l -0.428,0.478 c 2.501,2.374 4.008,3.781 4.951,4.661 0.954,0.879 1.771,1.558 1.821,1.507 0.051,-0.05 0.088,-3.09 0.088,-6.771 0,-4.109 -0.037,-6.697 -0.113,-6.697 -0.063,0 -1.42,1.432 -3.003,3.179 z m 52.467,3.518 c 0,3.681 0.037,6.721 0.088,6.771 0.05,0.051 0.515,-0.301 1.03,-0.766 0.527,-0.477 2.01,-1.872 3.317,-3.091 1.294,-1.231 2.349,-2.286 2.324,-2.349 -0.013,-0.063 -1.483,-1.721 -3.279,-3.681 -1.784,-1.973 -3.292,-3.581 -3.367,-3.581 -0.076,0 -0.113,2.312 -0.113,6.697 z m -21.334,-5.855 c -0.49,0.125 -1.432,0.502 -2.085,0.829 -0.666,0.327 -1.709,0.955 -2.325,1.395 -0.628,0.439 -1.746,1.394 -2.487,2.11 -0.754,0.716 -1.709,1.772 -2.123,2.325 -0.415,0.552 -1.056,1.57 -1.408,2.261 -0.351,0.679 -0.829,1.809 -1.067,2.488 -0.227,0.691 -0.503,1.759 -0.604,2.387 -0.1,0.615 -0.175,1.608 -0.175,2.198 0,0.591 0.075,1.445 0.175,1.898 0.101,0.464 0.377,1.269 0.629,1.784 0.289,0.603 0.716,1.231 1.181,1.721 0.389,0.427 0.98,0.955 1.294,1.156 0.326,0.213 1.005,0.49 1.545,0.628 0.653,0.176 1.319,0.239 2.136,0.239 0.93,0 1.369,-0.063 1.972,-0.264 0.428,-0.151 1.119,-0.515 1.546,-0.817 0.527,-0.377 1.055,-0.892 1.633,-1.658 0.477,-0.616 1.018,-1.433 1.219,-1.809 0.201,-0.377 0.377,-0.805 0.377,-0.943 0,-0.15 -0.076,-0.339 -0.176,-0.427 -0.101,-0.075 -0.277,-0.113 -0.402,-0.075 -0.113,0.025 -0.44,0.414 -0.742,0.854 -0.289,0.44 -0.967,1.231 -1.482,1.746 -0.716,0.704 -1.118,1.018 -1.558,1.169 -0.327,0.126 -0.942,0.251 -1.369,0.289 -0.428,0.038 -1.043,0.012 -1.37,-0.063 -0.377,-0.088 -0.779,-0.302 -1.118,-0.59 -0.289,-0.239 -0.641,-0.679 -0.792,-0.98 -0.15,-0.289 -0.351,-0.792 -0.452,-1.131 -0.1,-0.327 -0.213,-0.968 -0.264,-1.42 -0.05,-0.502 -0.025,-1.269 0.063,-1.91 0.075,-0.578 0.277,-1.52 0.44,-2.073 0.163,-0.552 0.477,-1.52 0.716,-2.148 0.226,-0.616 0.704,-1.709 1.055,-2.437 0.352,-0.717 0.943,-1.784 1.332,-2.375 0.39,-0.59 1.068,-1.457 1.533,-1.947 0.452,-0.478 1.206,-1.156 1.658,-1.508 0.465,-0.339 1.232,-0.842 1.734,-1.106 0.49,-0.263 1.269,-0.565 1.721,-0.678 0.553,-0.126 1.005,-0.151 1.319,-0.101 0.252,0.051 0.629,0.227 0.805,0.403 0.188,0.163 0.427,0.565 0.527,0.892 0.126,0.402 0.164,0.816 0.113,1.256 -0.037,0.352 -0.1,0.829 -0.138,1.03 -0.05,0.314 -0.012,0.415 0.176,0.515 0.138,0.063 0.302,0.088 0.389,0.063 0.088,-0.038 0.252,-0.264 0.377,-0.515 0.126,-0.251 0.252,-0.804 0.277,-1.282 0.038,-0.64 0,-0.967 -0.189,-1.482 -0.138,-0.352 -0.427,-0.867 -0.653,-1.131 -0.214,-0.264 -0.628,-0.578 -0.917,-0.703 -0.39,-0.164 -0.892,-0.226 -1.847,-0.264 -1.03,-0.038 -1.495,0.012 -2.199,0.201 z"
       fill="#0060a9"
       id="path22" />
    <path
       d="m 233.936,287.832 c 1.043,1.043 1.935,1.91 1.973,1.91 0.025,0 -0.792,-0.867 -1.822,-1.91 -1.03,-1.043 -1.91,-1.897 -1.96,-1.897 -0.063,0 0.754,0.854 1.809,1.897 z"
       fill="#ffffff"
       id="path23" />
  </g>
</svg>
