<?xml version="1.0" encoding="UTF-8"?>
<!DOCTYPE svg PUBLIC "-//W3C//DTD SVG 1.1//EN" "http://www.w3.org/Graphics/SVG/1.1/DTD/svg11.dtd">
<!-- Creator: CorelDRAW 2019 (64-Bit) -->
<svg xmlns="http://www.w3.org/2000/svg" xml:space="preserve" width="181.213mm" height="177.848mm" version="1.1" style="shape-rendering:geometricPrecision; text-rendering:geometricPrecision; image-rendering:optimizeQuality; fill-rule:evenodd; clip-rule:evenodd"
viewBox="0 0 181.1352 177.7718"
 xmlns:xlink="http://www.w3.org/1999/xlink"
 xmlns:xodm="http://www.corel.com/coreldraw/odm/2003">
 <defs>
  <style type="text/css">
   <![CDATA[
    .str0 {stroke:#78580A;stroke-width:1.4066;stroke-miterlimit:10}
    .str1 {stroke:#865C00;stroke-width:1.4066;stroke-miterlimit:10}
    .fil1 {fill:none}
    .fil17 {fill:#00AA2F}
    .fil12 {fill:#07174B}
    .fil11 {fill:#0A1F6F}
    .fil25 {fill:#0A3C00}
    .fil13 {fill:#205E9A}
    .fil9 {fill:#3F3300}
    .fil16 {fill:#448F00}
    .fil10 {fill:#78580A}
    .fil7 {fill:#A17300}
    .fil5 {fill:#CF9800}
    .fil8 {fill:#E3C344}
    .fil14 {fill:#E84E2A}
    .fil15 {fill:#F50504}
    .fil2 {fill:#E0E0E0}
    .fil6 {fill:white}
    .fil47 {fill:url(#id0)}
    .fil42 {fill:url(#id1)}
    .fil50 {fill:url(#id2)}
    .fil26 {fill:url(#id3)}
    .fil24 {fill:url(#id4)}
    .fil49 {fill:url(#id5)}
    .fil66 {fill:url(#id6)}
    .fil53 {fill:url(#id7)}
    .fil57 {fill:url(#id8)}
    .fil22 {fill:url(#id9)}
    .fil33 {fill:url(#id10)}
    .fil41 {fill:url(#id11)}
    .fil28 {fill:url(#id12)}
    .fil52 {fill:url(#id13)}
    .fil59 {fill:url(#id14)}
    .fil65 {fill:url(#id15)}
    .fil35 {fill:url(#id16)}
    .fil29 {fill:url(#id17)}
    .fil54 {fill:url(#id18)}
    .fil44 {fill:url(#id19)}
    .fil58 {fill:url(#id20)}
    .fil4 {fill:url(#id21)}
    .fil19 {fill:url(#id22)}
    .fil0 {fill:url(#id23)}
    .fil39 {fill:url(#id24)}
    .fil45 {fill:url(#id25)}
    .fil46 {fill:url(#id26)}
    .fil55 {fill:url(#id27)}
    .fil56 {fill:url(#id28)}
    .fil62 {fill:url(#id29)}
    .fil18 {fill:url(#id30)}
    .fil60 {fill:url(#id31)}
    .fil36 {fill:url(#id32)}
    .fil61 {fill:url(#id33)}
    .fil27 {fill:url(#id34)}
    .fil3 {fill:url(#id35)}
    .fil32 {fill:url(#id36)}
    .fil30 {fill:url(#id37)}
    .fil21 {fill:url(#id38)}
    .fil31 {fill:url(#id39)}
    .fil51 {fill:url(#id40)}
    .fil23 {fill:url(#id41)}
    .fil40 {fill:url(#id42)}
    .fil63 {fill:url(#id43)}
    .fil20 {fill:url(#id44)}
    .fil64 {fill:url(#id45)}
    .fil34 {fill:url(#id46)}
    .fil37 {fill:url(#id47)}
    .fil43 {fill:url(#id48)}
    .fil38 {fill:url(#id49)}
    .fil48 {fill:url(#id50)}
   ]]>
  </style>
  <linearGradient id="id0" gradientUnits="userSpaceOnUse" x1="163.734" y1="89.8588" x2="144.2155" y2="89.8588">
   <stop offset="0" style="stop-opacity:1; stop-color:#3BAE35"/>
   <stop offset="1" style="stop-opacity:1; stop-color:#0E2901"/>
  </linearGradient>
  <linearGradient id="id1" gradientUnits="userSpaceOnUse" xlink:href="#id0" x1="19.466" y1="112.4047" x2="45.2021" y2="112.4047">
  </linearGradient>
  <linearGradient id="id2" gradientUnits="userSpaceOnUse" xlink:href="#id0" x1="153.7922" y1="122.942" x2="125.9348" y2="122.942">
  </linearGradient>
  <linearGradient id="id3" gradientUnits="userSpaceOnUse" xlink:href="#id0" x1="24.8669" y1="122.942" x2="52.7241" y2="122.942">
  </linearGradient>
  <linearGradient id="id4" gradientUnits="userSpaceOnUse" xlink:href="#id0" x1="15.2621" y1="101.0193" x2="39.1544" y2="101.0193">
  </linearGradient>
  <linearGradient id="id5" gradientUnits="userSpaceOnUse" xlink:href="#id0" x1="163.3943" y1="101.0193" x2="139.5021" y2="101.0193">
  </linearGradient>
  <linearGradient id="id6" gradientUnits="userSpaceOnUse" xlink:href="#id0" x1="159.1929" y1="112.4047" x2="133.4561" y2="112.4047">
  </linearGradient>
  <linearGradient id="id7" gradientUnits="userSpaceOnUse" xlink:href="#id0" x1="139.968" y1="138.1138" x2="108.3463" y2="138.8776">
  </linearGradient>
  <linearGradient id="id8" gradientUnits="userSpaceOnUse" xlink:href="#id0" x1="136.2939" y1="85.6586" x2="138.8996" y2="113.8612">
  </linearGradient>
  <linearGradient id="id9" gradientUnits="userSpaceOnUse" xlink:href="#id0" x1="14.9265" y1="89.8588" x2="34.4459" y2="89.8588">
  </linearGradient>
  <linearGradient id="id10" gradientUnits="userSpaceOnUse" xlink:href="#id0" x1="42.3653" y1="85.6585" x2="39.7594" y2="113.8612">
  </linearGradient>
  <linearGradient id="id11" gradientUnits="userSpaceOnUse" xlink:href="#id0" x1="55.6373" y1="142.8949" x2="75.0847" y2="142.8949">
  </linearGradient>
  <linearGradient id="id12" gradientUnits="userSpaceOnUse" xlink:href="#id0" x1="29.2213" y1="131.0767" x2="57.5364" y2="131.0767">
  </linearGradient>
  <linearGradient id="id13" gradientUnits="userSpaceOnUse" xlink:href="#id0" x1="149.4375" y1="131.0767" x2="121.1224" y2="131.0767">
  </linearGradient>
  <linearGradient id="id14" gradientUnits="userSpaceOnUse" xlink:href="#id0" x1="125.8974" y1="96.3565" x2="130.5879" y2="124.9112">
  </linearGradient>
  <linearGradient id="id15" gradientUnits="userSpaceOnUse" xlink:href="#id0" x1="123.0215" y1="142.8949" x2="103.574" y2="142.8949">
  </linearGradient>
  <linearGradient id="id16" gradientUnits="userSpaceOnUse" xlink:href="#id0" x1="52.7613" y1="96.3564" x2="48.0707" y2="124.9113">
  </linearGradient>
  <linearGradient id="id17" gradientUnits="userSpaceOnUse" xlink:href="#id0" x1="38.6913" y1="138.1138" x2="70.313" y2="138.8776">
  </linearGradient>
  <linearGradient id="id18" gradientUnits="userSpaceOnUse" xlink:href="#id0" x1="140.0667" y1="142.4376" x2="108.4447" y2="143.2129">
  </linearGradient>
  <linearGradient id="id19" gradientUnits="userSpaceOnUse" xlink:href="#id0" x1="130.3772" y1="46.3085" x2="152.0712" y2="74.2002">
  </linearGradient>
  <linearGradient id="id20" gradientUnits="userSpaceOnUse" xlink:href="#id0" x1="126.2869" y1="86.6501" x2="129.1163" y2="114.8537">
  </linearGradient>
  <linearGradient id="id21" gradientUnits="userSpaceOnUse" x1="30.1905" y1="135.7507" x2="46.9161" y2="142.31">
   <stop offset="0" style="stop-opacity:1; stop-color:#FEFEFE"/>
   <stop offset="1" style="stop-opacity:1; stop-color:#DCDDDD"/>
  </linearGradient>
  <linearGradient id="id22" gradientUnits="userSpaceOnUse" xlink:href="#id0" x1="48.2813" y1="46.3081" x2="26.5879" y2="74.2001">
  </linearGradient>
  <linearGradient id="id23" gradientUnits="userSpaceOnUse" xlink:href="#id21" x1="151.0161" y1="139.8904" x2="134.1476" y2="146.4491">
  </linearGradient>
  <linearGradient id="id24" gradientUnits="userSpaceOnUse" xlink:href="#id0" x1="62.1006" y1="125.0338" x2="71.4647" y2="125.0338">
  </linearGradient>
  <linearGradient id="id25" gradientUnits="userSpaceOnUse" xlink:href="#id0" x1="161.7665" y1="77.3291" x2="148.5044" y2="77.3291">
  </linearGradient>
  <linearGradient id="id26" gradientUnits="userSpaceOnUse" xlink:href="#id0" x1="161.8723" y1="89.6618" x2="147.4317" y2="89.6618">
  </linearGradient>
  <linearGradient id="id27" gradientUnits="userSpaceOnUse" xlink:href="#id0" x1="137.5908" y1="64.8439" x2="152.8157" y2="93.2144">
  </linearGradient>
  <linearGradient id="id28" gradientUnits="userSpaceOnUse" xlink:href="#id0" x1="123.8094" y1="71.4494" x2="138.2024" y2="99.8214">
  </linearGradient>
  <linearGradient id="id29" gradientUnits="userSpaceOnUse" xlink:href="#id0" x1="124.8015" y1="125.0344" x2="115.4745" y2="125.0344">
  </linearGradient>
  <linearGradient id="id30" gradientUnits="userSpaceOnUse" xlink:href="#id0" x1="44.2021" y1="43.1905" x2="23.5349" y2="71.0805">
  </linearGradient>
  <linearGradient id="id31" gradientUnits="userSpaceOnUse" xlink:href="#id0" x1="117.9553" y1="97.5047" x2="122.6122" y2="126.0583">
  </linearGradient>
  <linearGradient id="id32" gradientUnits="userSpaceOnUse" xlink:href="#id0" x1="60.7035" y1="97.5047" x2="56.0466" y2="126.0583">
  </linearGradient>
  <linearGradient id="id33" gradientUnits="userSpaceOnUse" xlink:href="#id0" x1="124.9281" y1="117.4929" x2="115.8198" y2="117.4929">
  </linearGradient>
  <linearGradient id="id34" gradientUnits="userSpaceOnUse" xlink:href="#id0" x1="24.8656" y1="130.6885" x2="52.724" y2="130.6885">
  </linearGradient>
  <linearGradient id="id35" gradientUnits="userSpaceOnUse" xlink:href="#id21" x1="27.5086" y1="141.7566" x2="44.3777" y2="148.3156">
  </linearGradient>
  <linearGradient id="id36" gradientUnits="userSpaceOnUse" xlink:href="#id0" x1="54.8496" y1="71.4496" x2="40.4566" y2="99.8214">
  </linearGradient>
  <linearGradient id="id37" gradientUnits="userSpaceOnUse" xlink:href="#id0" x1="38.5942" y1="142.4377" x2="70.2161" y2="143.213">
  </linearGradient>
  <linearGradient id="id38" gradientUnits="userSpaceOnUse" xlink:href="#id0" x1="16.7881" y1="89.6618" x2="31.2298" y2="89.6618">
  </linearGradient>
  <linearGradient id="id39" gradientUnits="userSpaceOnUse" xlink:href="#id0" x1="41.0678" y1="64.8441" x2="25.8429" y2="93.2143">
  </linearGradient>
  <linearGradient id="id40" gradientUnits="userSpaceOnUse" xlink:href="#id0" x1="153.7932" y1="130.6885" x2="125.9348" y2="130.6885">
  </linearGradient>
  <linearGradient id="id41" gradientUnits="userSpaceOnUse" xlink:href="#id0" x1="14.9245" y1="100.8148" x2="34.443" y2="100.8148">
  </linearGradient>
  <linearGradient id="id42" gradientUnits="userSpaceOnUse" xlink:href="#id0" x1="68.0408" y1="132.9651" x2="74.9879" y2="132.9651">
  </linearGradient>
  <linearGradient id="id43" gradientUnits="userSpaceOnUse" xlink:href="#id0" x1="116.5582" y1="125.0338" x2="107.1943" y2="125.0338">
  </linearGradient>
  <linearGradient id="id44" gradientUnits="userSpaceOnUse" xlink:href="#id0" x1="16.8928" y1="77.3291" x2="30.1535" y2="77.3291">
  </linearGradient>
  <linearGradient id="id45" gradientUnits="userSpaceOnUse" xlink:href="#id0" x1="110.6176" y1="132.9651" x2="103.6701" y2="132.9651">
  </linearGradient>
  <linearGradient id="id46" gradientUnits="userSpaceOnUse" xlink:href="#id0" x1="52.3721" y1="86.6502" x2="49.5427" y2="114.8537">
  </linearGradient>
  <linearGradient id="id47" gradientUnits="userSpaceOnUse" xlink:href="#id0" x1="53.7309" y1="117.4929" x2="62.84" y2="117.4929">
  </linearGradient>
  <linearGradient id="id48" gradientUnits="userSpaceOnUse" xlink:href="#id0" x1="134.4569" y1="43.1901" x2="155.1238" y2="71.0807">
  </linearGradient>
  <linearGradient id="id49" gradientUnits="userSpaceOnUse" xlink:href="#id0" x1="53.8568" y1="125.0344" x2="63.1838" y2="125.0344">
  </linearGradient>
  <linearGradient id="id50" gradientUnits="userSpaceOnUse" xlink:href="#id0" x1="163.7341" y1="100.8148" x2="144.216" y2="100.8148">
  </linearGradient>
 </defs>
 <g id="Layer_x0020_1">
  <metadata id="CorelCorpID_0Corel-Layer"/>
  <g id="_667667616">
   <path class="fil0" d="M149.3829 143.9446l12.812 9.6083 -23.124 7.4089 -6.7064 -25.5256c0,0 4.9049,0.6022 8.3076,-1.9021 3.4039,-2.5009 15.3183,-11.8096 15.3183,-11.8096l-6.6076 22.2201z"/>
   <path class="fil1 str0" d="M132.3632 135.4371c0,0 4.905,0.6003 8.3101,-1.9022 3.4027,-2.5027 15.3158,-11.8099 15.3158,-11.8099"/>
   <polyline class="fil1 str0" points="155.9892,121.725 149.3817,143.9457 162.1961,153.5538 139.0696,160.9609 132.3632,135.4371 "/>
   <path class="fil2" d="M113.6424 136.0374l-0.0991 12.8122 17.6194 1.0999 5.5058 -8.9071c0,0 0.2002,-1.7021 -5.1065,-3.1025 -5.3048,-1.401 -17.9196,-1.9026 -17.9196,-1.9026z"/>
   <polyline class="fil1 str1" points="113.6424,136.0374 113.5434,148.8497 131.1627,149.9496 136.6686,141.0425 "/>
   <path class="fil1 str1" d="M136.6686 141.0425c0,0 0.2002,-1.7021 -5.1065,-3.1025 -5.3048,-1.401 -17.9196,-1.9026 -17.9196,-1.9026"/>
   <path class="fil3" d="M29.142 145.8112l-12.8126 9.6082 23.1247 7.4089 6.7067 -25.5257c0,0 -4.9057,0.6022 -8.3083,-1.9021 -3.4046,-2.5008 -15.3176,-11.81 -15.3176,-11.81l6.6072 22.2207z"/>
   <path class="fil1 str0" d="M46.1613 137.3032c0,0 -4.905,0.6006 -8.3097,-1.9022 -3.4032,-2.5023 -15.3161,-11.8095 -15.3161,-11.8095"/>
   <polyline class="fil1 str0" points="22.5354,123.5915 29.1432,145.812 16.3284,155.4202 39.4545,162.8268 46.1613,137.3032 "/>
   <path class="fil4" d="M64.8821 137.9038l0.0991 12.8124 -17.6189 1.0998 -5.5053 -8.907c0,0 -0.2006,-1.7022 5.1052,-3.1032 5.3051,-1.4008 17.9199,-1.9021 17.9199,-1.9021z"/>
   <polyline class="fil1 str1" points="64.8821,137.9038 64.9812,150.7163 47.3623,151.8161 41.857,142.9091 "/>
   <path class="fil1 str1" d="M41.857 142.9091c0,0 -0.2006,-1.7022 5.1052,-3.1032 5.3051,-1.4008 17.9199,-1.9021 17.9199,-1.9021"/>
   <path class="fil5" d="M89.5357 177.7642c-5.8263,0.0783 -9.7747,-0.4754 -9.7747,-0.4754l-0.0232 -0.0035 -42.1483 -8.7649 2.9674 -16.3883 0.7266 -11.2673 1.1493 1.6401 1.9488 2.7828c0.2283,0.0564 6.36,1.5717 13.7627,3.2654 7.539,1.7254 16.1709,3.5765 20.3342,4.0663 8.381,0.987 21.0695,0.1921 21.0849,0.1911 12.4905,-1.2455 21.3211,-3.8641 27.1773,-6.1418 2.9285,-1.1394 5.113,-2.1928 6.6508,-2.9544 0.7683,-0.3812 1.3742,-0.6888 1.8483,-0.9057 0.2385,-0.1081 0.4412,-0.1941 0.6351,-0.2575 0.194,-0.0634 0.3651,-0.1317 0.6694,-0.0808 0.4108,0.0684 0.7024,0.367 0.8608,0.6428 0.1598,0.2763 0.241,0.5681 0.3031,0.8819 0.1241,0.6284 0.1495,1.3584 0.1406,2.0775 -0.0165,1.3291 -0.1533,2.4246 -0.1749,2.6122 0.1142,0.2482 1.7255,3.7578 3.243,7.6764 0.7872,2.0289 1.5313,4.1262 1.998,5.8808 0.2332,0.8776 0.3979,1.6674 0.4601,2.3464 0.0622,0.6794 0.0786,1.2598 -0.2789,1.7956l-0.0913 0.1376 -0.1432 0.0823c-4.1747,2.3999 -11.5381,4.3737 -19.3658,6.0525 -7.8278,1.6789 -16.0925,3.0283 -21.8941,4.0282 -4.3995,0.7582 -8.5709,1.0325 -12.066,1.0796z"/>
   <path class="fil6" d="M86.3504 176.3393c3.9153,0.0987 9.2669,-0.0504 15.0126,-1.0409 5.813,-1.0019 14.0573,-2.3488 21.8377,-4.0172 7.6525,-1.6413 14.8471,-3.6279 18.7316,-5.7906 0.014,-0.0689 0.0849,-0.2967 0.0419,-0.7745 -0.0508,-0.5479 -0.1978,-1.2808 -0.4196,-2.1126 -0.4412,-1.664 -1.1727,-3.7306 -1.95,-5.7337 -1.5517,-4.0064 -3.2823,-7.7622 -3.2823,-7.7622l-0.0836 -0.1811 0.0241 -0.1992c0,0 0.1622,-1.3355 0.1788,-2.6722 0.0088,-0.668 -0.0241,-1.3385 -0.1129,-1.7882 -0.0331,-0.1698 -0.0737,-0.259 -0.1078,-0.3417 -0.104,0.0376 -0.2218,0.0832 -0.3969,0.1629 -0.4258,0.1946 -1.0332,0.5022 -1.8077,0.8864 -1.5504,0.7681 -3.783,1.8452 -6.766,3.005 -5.9647,2.3201 -14.9356,4.9745 -27.5638,6.2323l-0.0258 0.002c0,0 -12.7121,0.819 -21.3463,-0.1981 -4.345,-0.5106 -12.9319,-2.3636 -20.4844,-4.0914 -7.5525,-1.7284 -14.039,-3.331 -14.039,-3.331l-0.2565 -0.0629 -1.1052 -1.5777 -0.4744 7.3505 -2.7365 15.1191 40.7574 8.4748c0.0288,0.0045 2.4815,0.3447 6.3745,0.4421z"/>
   <polygon class="fil7" points="52.4131,154.3501 55.2175,154.4932 55.2318,154.9998 53.4559,162.6965 58.3685,163.323 58.3814,163.8331 57.8104,166.3027 50.0677,164.5164 50.0731,163.9841 "/>
   <polygon class="fil7" points="62.9682,156.6281 71.1953,157.7483 71.2028,158.2549 70.7287,160.6528 65.3022,159.5807 64.9936,161.1451 69.9027,161.6076 69.9082,162.1162 69.4655,164.3525 64.5509,163.3829 64.2296,165.0063 69.7278,165.5882 69.7297,166.0913 69.2525,168.504 60.9462,166.8643 60.9536,166.3449 "/>
   <path class="fil7" d="M72.2232 163.4647l0.0055 -0.0293c0.6285,-2.9742 3.4561,-4.8159 6.6059,-4.1514 1.6639,0.3506 2.9658,0.8023 3.8236,1.8289 0.0074,0.2074 0.0074,0.2718 0.0093,0.5175l-2.0882 1.6619c-0.6002,-0.7656 -1.2416,-1.2668 -2.2626,-1.4816 -1.4728,-0.3107 -2.8704,0.6734 -3.1988,2.2343l-0.0057 0.0292c-0.3506,1.6619 0.551,3.0868 2.171,3.4279 0.6997,0.1491 1.256,0.114 1.7225,-0.0768l0.2624 -1.2415 -1.9976 -0.4205 0.0128 -0.5249 0.4238 -1.5461 4.676 0.472 0.0053 0.516 -0.9662 4.5793c-1.2707,0.6755 -2.9034,1.0484 -4.7689,0.6537 -3.1808,-0.6705 -5.0815,-3.3567 -4.4299,-6.4487z"/>
   <path class="fil7" d="M90.5568 166.5851l-1.1627 -2.9505 -1.1787 2.9505 2.3414 0zm-2.5345 -6.3785l0 0 2.7875 0 4.4372 9.9812 0.0054 0.5269 -3.1015 0 -0.7439 -1.8784 -4.0405 0 -0.7453 1.8784 -3.0268 0 0.002 -0.5269 4.4258 -9.9812z"/>
   <polygon class="fil7" points="96.3482,160.2432 96.3469,159.7272 99.026,159.9049 103.9772,164.8388 103.2849,159.3672 103.2958,158.8512 107.4225,168.8377 107.4313,169.3612 104.9321,169.6767 99.7793,164.5581 100.4844,169.7139 100.4953,170.2367 97.6563,170.5948 "/>
   <path class="fil7" d="M116.1215 154.5928l0.0075 0.52 -1.9468 1.9022 -2.0788 0.3085 0.0163 -0.5344 4.0018 -2.1963zm-6.9949 3.8983l0 0 -0.004 -0.518 8.6575 1.1752 0.0088 0.5235 -5.4708 0.8151 0.2352 1.5773 5.2836 0.9875 0.0069 0.5308 -4.9546 0.7365 0.2442 1.6377 5.8951 1.0775 0.0114 0.529 -8.3763 1.247 -1.537 -10.319z"/>
   <path class="fil7" d="M121.3941 165.7174l0.0144 -0.5344c1.2048,0.5541 3.5131,-0.9954 4.6887,-1.2762 0.7677,-0.1837 1.1126,-0.5399 1.0087,-0.9752l-0.0078 -0.0291c-0.1027,-0.4354 -0.4887,-0.5731 -1.9597,-0.575 -2.279,0.0223 -4.0914,-0.1892 -4.5857,-2.2637l-0.0073 -0.0277c-0.4477,-1.8858 5.1533,-4.0321 7.6418,-4.3237 0.0394,0.2639 0.0202,0.2441 0.0127,0.4917l-0.9332 2.3226c-1.0868,-0.4461 -2.1817,-0.5379 -3.0817,-0.3249 -0.6808,0.1634 -0.9492,0.518 -0.859,0.8958l0.0074 0.0278c0.11,0.4645 0.5066,0.5838 2.0032,0.5656 2.4425,-0.0461 4.0714,0.3634 4.5228,2.2622l0.0075 0.0291c0.4945,2.073 -0.8493,3.6963 -3.316,4.2837 -1.7982,0.4278 -3.6289,0.2664 -5.1568,-0.5487z"/>
   <polygon class="fil5" points="52.4131,153.8326 55.2318,154.4823 53.4559,162.1796 58.3814,163.3162 57.8104,165.7852 50.0677,163.999 "/>
   <polygon class="fil5" points="62.9682,156.1106 71.2028,157.7375 70.7287,160.1353 65.3022,159.0632 64.9936,160.6276 69.9082,161.5987 69.4655,163.835 64.5509,162.866 64.2296,164.4888 69.7297,165.5738 69.2525,167.9865 60.9462,166.3469 "/>
   <path class="fil5" d="M72.2232 162.9471l0.0055 -0.0292c0.6285,-2.9748 3.4561,-4.816 6.6059,-4.1514 1.7941,0.3783 2.9494,1.186 3.8329,2.3464l-2.0882 1.6619c-0.6002,-0.7656 -1.2416,-1.2673 -2.2626,-1.4816 -1.4728,-0.3107 -2.8704,0.6734 -3.1988,2.2343l-0.0057 0.0292c-0.3506,1.6619 0.551,3.0867 2.171,3.4279 0.6997,0.149 1.256,0.114 1.7225,-0.0767l0.2624 -1.2416 -1.9976 -0.4205 0.4366 -2.071 4.6813 0.988 -0.9662 4.5788c-1.2707,0.676 -2.9034,1.0489 -4.7689,0.6537 -3.1808,-0.67 -5.0815,-3.3562 -4.4299,-6.4483z"/>
   <path class="fil5" d="M90.5568 166.0676l-1.1627 -2.9506 -1.1787 2.9506 2.3414 0zm-2.5345 -6.3785l0 0 2.7875 0 4.4426 10.508 -3.1015 0 -0.7439 -1.8783 -4.0405 0 -0.7453 1.8783 -3.0268 0 4.4278 -10.508z"/>
   <polygon class="fil5" points="96.3482,159.7257 99.026,159.3879 103.9772,164.3213 103.2849,158.8497 106.1261,158.4916 107.4313,168.8437 104.9321,169.1597 99.7793,164.0407 100.4953,169.7192 97.6563,170.0774 "/>
   <path class="fil5" d="M113.34 154.1808l2.7895 0.4135 -1.9468 1.9022 -2.0808 0.31 1.2381 -2.6257zm-4.213 3.7919l0 0 1.5366 10.3204 8.3763 -1.2485 -0.3636 -2.431 -5.5439 0.8245 -0.2446 -1.6362 4.9547 -0.738 -0.3339 -2.2547 -4.9566 0.738 -0.2333 -1.5768 5.4707 -0.8157 -0.3619 -2.4182 -8.3004 1.2361z"/>
   <path class="fil5" d="M121.3941 165.2l1.1201 -2.2438c1.2045,0.5562 2.4074,0.7141 3.583,0.4333 0.7677,-0.1837 1.1126,-0.5399 1.0087,-0.9752l-0.0078 -0.0292c-0.1027,-0.4353 -0.4887,-0.573 -1.9597,-0.5749 -2.279,0.0223 -4.0914,-0.1907 -4.5857,-2.2637l-0.0073 -0.0277c-0.4477,-1.8854 0.7199,-3.6043 3.157,-4.1841 1.7262,-0.4115 3.184,-0.2685 4.4975,0.352l-0.9332 2.3231c-1.0868,-0.4462 -2.1817,-0.5384 -3.0817,-0.3254 -0.6808,0.1634 -0.9492,0.518 -0.859,0.8963l0.0074 0.0273c0.11,0.4645 0.5066,0.5838 2.0036,0.5656 2.4421,-0.0456 4.071,0.3634 4.5224,2.2621l0.0075 0.0292c0.4945,2.073 -0.8493,3.6963 -3.316,4.2837 -1.7982,0.4279 -3.6289,0.2664 -5.1568,-0.5487z"/>
   <polygon class="fil6" points="177.8519,1.2095 3.1555,1.2095 89.5843,147.1447 "/>
   <path class="fil5" d="M18.3963 24.8203l-13.0075 -22.1833 171.3855 0 -14.3853 22.1833 -143.9926 0zm70.8487 118.8747l0 0 -69.0122 -116.1212 140.3217 0 -71.3095 116.1212zm-89.2446 -143.695l0 0 89.0425 149.5871 92.0924 -149.5871 -181.1348 0z"/>
   <polygon class="fil8" points="0.0078,0 0.4709,0.7759 180.6472,0.7759 181.1352,0 "/>
   <polygon class="fil8" points="18.371,24.7924 18.836,25.572 161.8895,25.572 162.4131,24.7975 "/>
   <polygon class="fil7" points="5.3894,2.637 5.6815,3.1428 176.4496,3.1428 176.7743,2.637 "/>
   <polygon class="fil9" points="20.195,27.5181 20.4872,28.0252 160.301,28.0252 160.6255,27.5181 "/>
   <polygon class="fil9" points="89.0429,149.5861 89.0727,150.2745 181.1352,1.3362 181.1352,0.0013 "/>
   <polygon class="fil9" points="89.0718,150.2745 0.0074,1.3527 -0,0.0013 89.0533,149.597 "/>
   <path class="fil5" d="M19.7137 14.0976l0 -0.0317c0,-3.158 2.4152,-5.6327 5.697,-5.6327 2.2128,0 3.6378,0.9292 4.5987,2.2439l-2.2607 1.7496c-0.619,-0.7582 -1.3316,-1.2704 -2.3692,-1.2704 -1.5169,0 -2.5841,1.2994 -2.5841,2.8791l0 0.0305c0,1.6252 1.0672,2.8943 2.5841,2.8943 1.1311,0 1.7961,-0.5249 2.446,-1.3146l2.2605 1.61c-1.0225,1.4085 -2.4002,2.4443 -4.7837,2.4443 -3.0963,0 -5.5886,-2.3669 -5.5886,-5.6022z"/>
   <polygon class="fil5" points="31.3874,8.65 34.3905,8.65 34.3905,16.8537 39.6387,16.8537 39.6387,19.4843 31.3874,19.4843 "/>
   <path class="fil5" d="M40.5075 14.7327l0 -6.084 3.0337 0 0 6.0206c0,1.5644 0.7899,2.306 1.9981,2.306 1.2214,0 2.0111,-0.7099 2.0111,-2.2287l0 -6.0979 3.0358 0 0 6.0066c0,3.4813 -1.9983,5.0292 -5.078,5.0292 -3.0649,0 -5.0008,-1.5631 -5.0008,-4.9519z"/>
   <path class="fil5" d="M57.5841 15.0724l-2.2905 0 0 1.9954 2.3217 0c0.9291,0 1.4395,-0.3536 1.4395,-0.9889l0 -0.0317c0,-0.5882 -0.4644,-0.9749 -1.4707,-0.9749zm1.0374 -3.0794l0 0c0,-0.6034 -0.4814,-0.9293 -1.3628,-0.9293l-1.9651 0 0 1.9042 1.8878 0c0.9133,0 1.4401,-0.3106 1.4401,-0.9445l0 -0.0304zm-6.255 -3.3431l0 0 5.5588 0c1.3609,0 2.3216,0.3397 2.9569,0.9584 0.4333,0.4501 0.6958,1.0231 0.6958,1.7647l0 0.0304c0,1.2539 -0.7125,1.998 -1.6709,2.4152 1.3147,0.4335 2.1503,1.1764 2.1503,2.6471l0 0.0317c0,1.856 -1.5169,2.9855 -4.1023,2.9855l-5.5886 0 0 -10.833z"/>
   <path class="fil5" d="M70.7287 11.2958l0 5.5249 1.2232 0c1.811,0 3.0024,-0.9902 3.0024,-2.7396l0 -0.0305c0,-1.733 -1.1914,-2.7548 -3.0024,-2.7548l-1.2232 0zm-3.0024 -2.6458l0 0 4.1945 0c3.8546,0 6.0985,2.2274 6.0985,5.3537l0 0.0317c0,3.1264 -2.2749,5.4476 -6.1611,5.4476l-4.1319 0 0 -10.833z"/>
   <polygon class="fil5" points="79.5858,8.65 88.3012,8.65 88.3012,11.1867 82.557,11.1867 82.557,12.8437 87.7594,12.8437 87.7594,15.2119 82.557,15.2119 82.557,16.9298 88.3785,16.9298 88.3785,19.4843 79.5858,19.4843 "/>
   <path class="fil5" d="M94.371 14.0354c1.0523,0 1.7189,-0.5731 1.7189,-1.425l0 -0.0291c0,-0.9293 -0.6665,-1.4085 -1.7339,-1.4085l-1.4246 0 0 2.8626 1.4396 0zm-4.4425 -5.3854l0 0 4.6594 0c2.7251,0 4.4897,1.4085 4.4897,3.7919l0 0.0317c0,2.5685 -1.9666,3.9135 -4.6442,3.9135l-1.502 0 0 3.0959 -3.0029 0 0 -10.833z"/>
   <path class="fil5" d="M108.5833 14.0976l0 -0.0317c0,-1.5784 -1.1147,-2.9247 -2.7712,-2.9247 -1.6567,0 -2.755,1.3311 -2.755,2.8943l0 0.0305c0,1.5643 1.1296,2.9247 2.7861,2.9247 1.6401,0 2.7401,-1.3312 2.7401,-2.8931zm-8.5911 0l0 0 0 -0.0317c0,-3.1099 2.5068,-5.6327 5.851,-5.6327 3.3443,0 5.8199,2.4911 5.8199,5.6022l0 0.0305c0,3.1111 -2.5067,5.6339 -5.851,5.6339 -3.3443,0 -5.8199,-2.4924 -5.8199,-5.6022z"/>
   <path class="fil5" d="M118.2143 13.8503c1.0063,0 1.6104,-0.4957 1.6104,-1.2854l0 -0.0305c0,-0.8658 -0.6353,-1.3006 -1.6273,-1.3006l-1.9793 0 0 2.6166 1.9961 0zm-5.0006 -5.2003l0 0 5.1234 0c1.6566,0 2.8024,0.4335 3.53,1.1599 0.6353,0.6352 0.9602,1.4555 0.9602,2.5241l0 0.0305c0,1.6709 -0.8834,2.77 -2.2294,3.3431l2.5854 3.7754 -3.4521 0 -2.1835 -3.2809 -1.3295 0 0 3.2809 -3.0044 0 0 -10.833z"/>
   <polygon class="fil5" points="126.9929,11.2806 123.7574,11.2806 123.7574,8.65 133.2481,8.65 133.2481,11.2806 129.9949,11.2806 129.9949,19.4843 126.9929,19.4843 "/>
   <polygon class="fil5" points="134.6414,19.4843 137.6439,19.4843 137.6439,8.6493 134.6414,8.6493 "/>
   <polygon class="fil5" points="138.7769,8.65 142.1211,8.65 144.5807,15.506 147.0579,8.65 150.34,8.65 145.9435,19.5616 143.1556,19.5616 "/>
   <path class="fil5" d="M158.933 14.0976l0 -0.0317c0,-1.5784 -1.1145,-2.9247 -2.7713,-2.9247 -1.6557,0 -2.7537,1.3311 -2.7537,2.8943l0 0.0305c0,1.5643 1.1284,2.9247 2.7854,2.9247 1.6405,0 2.7396,-1.3312 2.7396,-2.8931zm-8.5905 0l0 0 0 -0.0317c0,-3.1099 2.5065,-5.6327 5.8509,-5.6327 3.3443,0 5.8189,2.4911 5.8189,5.6022l0 0.0305c0,3.1111 -2.5062,5.6339 -5.8506,5.6339 -3.3445,0 -5.8192,-2.4924 -5.8192,-5.6022z"/>
   <path class="fil5" d="M43.6585 46.4838l0 -0.0456c0,-4.744 3.6284,-8.4662 8.5594,-8.4662 3.328,0 5.4672,1.3958 6.9087,3.3723l-3.3955 2.6281c-0.9311,-1.1397 -1.9998,-1.9067 -3.5593,-1.9067 -2.279,0 -3.8839,1.9549 -3.8839,4.3255l0 0.047c0,2.4417 1.6049,4.3484 3.8839,4.3484 1.6992,0 2.6979,-0.7899 3.6751,-1.9753l3.3969 2.4172c-1.537,2.117 -3.6066,3.6739 -7.1875,3.6739 -4.6535,0 -8.3979,-3.5581 -8.3979,-8.4187z"/>
   <path class="fil5" d="M125.1455 42.2749l0 8.3025 1.8385 0c2.7219,0 4.512,-1.4884 4.512,-4.1164l0 -0.0457c0,-2.6052 -1.79,-4.1404 -4.512,-4.1404l-1.8385 0zm-4.512 -3.977l0 0 6.3024 0c5.7924,0 9.166,3.3494 9.166,8.0478l0 0.0456c0,4.6996 -3.4192,8.1875 -9.2572,8.1875l-6.2111 0 0 -16.2808z"/>
   <polygon class="fil5" points="83.9639,117.2829 87.9634,117.2829 87.9634,128.2095 94.9548,128.2095 94.9548,131.7146 83.9639,131.7146 "/>
   <polygon class="fil8" points="82.7537,36.6142 82.7537,37.664 83.4642,37.6793 "/>
   <polygon class="fil8" points="96.9739,36.6142 96.9739,37.664 96.2631,37.6793 "/>
   <path class="fil8" d="M115.6075 38.9736c0,0 -1.2614,-1.7407 -1.928,-1.8509 -0.667,-0.1104 -1.2766,0.0558 -1.3886,0.4449 -0.11,0.3867 -0.8888,1.6646 -0.8888,1.6646 0,0 -0.5548,-0.7759 -1.2212,-0.7759 -0.6648,0 -1.8878,1.553 -1.7759,3.9947 0.1105,2.4443 0.2224,2.9437 0.2224,2.9437l-3.8312 0.2219c0,0 -1.2781,-2.6661 -1.6654,-4.0518 -0.3892,-1.3882 -0.6665,-2.3327 -0.6665,-2.3327 0,0 -2.4425,3.2759 -7.052,3.2759 -4.608,0 -3.8309,-2.8309 -3.5516,-3.0541 0.2772,-0.2218 4.3301,-1.4997 4.9397,-2.221 0.6116,-0.7214 -0.4996,-2.1641 -1.3311,-2.7193 -0.8338,-0.5541 -3.2764,-2.6091 -3.2764,-2.6091l-1.1112 0 0 -0.999 1.1057 -0.3892 0.0055 -0.9432 -1.2762 0.2218 -0.0569 -0.9178c0,0 -0.3107,-0.2206 -0.8874,-0.2688l0 -0.0089c-0.0402,0 -0.0753,0.0038 -0.112,0.0038 -0.0366,0 -0.0712,-0.0038 -0.1099,-0.0038l0 0.0089c-0.5785,0.0482 -0.8889,0.2688 -0.8889,0.2688l-0.0551 0.9178 -1.2781 -0.2218 0.0089 0.9508 1.1019 0.3816 0 0.999 -1.1108 0c0,0 -2.443,2.055 -3.2745,2.6091 -0.8338,0.5553 -1.9452,1.9979 -1.3336,2.7193 0.6117,0.7214 4.665,1.9992 4.9424,2.221 0.2768,0.2232 1.0537,3.0541 -3.5539,3.0541 -4.6074,0 -7.0519,-3.2759 -7.0519,-3.2759 0,0 -0.2772,0.9445 -0.6651,2.3327 -0.3891,1.3857 -1.6653,4.0518 -1.6653,4.0518l-3.8326 -0.2219c0,0 0.1121,-0.4995 0.2218,-2.9437 0.1121,-2.4417 -1.1092,-3.9947 -1.7757,-3.9947 -0.6666,0 -1.2211,0.7759 -1.2211,0.7759 0,0 -0.7767,-1.2779 -0.889,-1.6646 -0.1101,-0.3891 -0.7217,-0.5553 -1.3881,-0.4449 -0.6666,0.1103 -1.9319,1.8331 -1.9319,1.8331l10.26 18.873 15.4904 -1.3242 15.4905 1.3242 10.2565 -18.8552z"/>
   <polygon class="fil10" points="104.7962,45.6167 104.7962,46.5536 108.6269,46.3317 108.6269,45.3936 "/>
   <polygon class="fil10" points="71.0947,45.3936 71.0947,46.3317 74.9258,46.5548 74.9258,45.6167 "/>
   <path class="fil5" d="M115.6228 38.9482c0,0 -1.2767,-0.7759 -1.9433,-0.8887 -0.6664,-0.1103 -1.2762,0.0558 -1.3881,0.445 -0.1105,0.3892 -0.8888,1.6658 -0.8888,1.6658 0,0 -0.5548,-0.7771 -1.2212,-0.7771 -0.6665,0 -1.8878,1.5529 -1.7758,3.9973 0.1099,2.4417 0.2223,2.9411 0.2223,2.9411l-3.8312 0.2219c0,0 -1.2781,-2.6636 -1.6654,-4.0518 -0.3897,-1.3882 -0.667,-2.3315 -0.667,-2.3315 0,0 -2.4425,3.2747 -7.052,3.2747 -4.6074,0 -3.8305,-2.8309 -3.5532,-3.0528 0.2788,-0.2219 4.3322,-1.4985 4.9418,-2.2198 0.6117,-0.7213 -0.4997,-2.1654 -1.333,-2.7219 -0.8321,-0.554 -3.2745,-2.6077 -3.2745,-2.6077l-1.1112 0 0 -0.9991 0.9988 -0.3322 0.1125 -0.999 -1.2781 0.2219 -0.0555 -1.3882c0,0 -0.3101,-0.2206 -0.8889,-0.2688l0 -0.0089c-0.0381,0 -0.0734,0.0038 -0.1101,0.0038 -0.0365,0 -0.0716,-0.0038 -0.1103,-0.0038l0 0.0089c-0.5785,0.0482 -0.8884,0.2688 -0.8884,0.2688l-0.0556 1.3882 -1.2781 -0.2219 0.1125 0.999 0.9988 0.3322 0 0.9991 -1.1112 0c0,0 -2.4425,2.0537 -3.2759,2.6077 -0.8319,0.5566 -1.9433,2.0006 -1.3316,2.7219 0.6095,0.7214 4.6629,1.9979 4.9418,2.2198 0.2773,0.2219 1.0542,3.0528 -3.5533,3.0528 -4.6094,0 -7.052,-3.2747 -7.052,-3.2747 0,0 -0.2772,0.9433 -0.6669,2.3315 -0.3873,1.3882 -1.6654,4.0518 -1.6654,4.0518l-3.8312 -0.2219c0,0 0.1121,-0.4995 0.2224,-2.9411 0.1119,-2.4444 -1.1093,-3.9973 -1.7759,-3.9973 -0.6665,0 -1.2213,0.7771 -1.2213,0.7771 0,0 -0.7783,-1.2766 -0.8887,-1.6658 -0.112,-0.3892 -0.7217,-0.5553 -1.388,-0.445 -0.6672,0.1129 -1.9434,0.8887 -1.9434,0.8887l10.2713 19.8175 15.4904 -1.3222 15.4906 1.3222 10.2713 -19.8175z"/>
   <path class="fil10" d="M74.3706 58.7657l15.4904 -1.3217 15.4906 1.3217 0.3248 -0.6258c-4.6589,-2.912 -10.1575,-4.6011 -16.0464,-4.6011 -5.741,0 -11.1143,1.6011 -15.6981,4.3806l0.4388 0.8463z"/>
   <path class="fil10" d="M86.6095 37.0618c0,-1.089 1.4015,-1.9727 3.1279,-1.9727 1.7277,0 3.1271,0.8836 3.1271,1.9727 0,1.0889 -1.3994,1.9714 -3.1271,1.9714 -1.7264,0 -3.1279,-0.8824 -3.1279,-1.9714z"/>
   <path class="fil8" d="M89.6303 58.5156c-14.4178,0 -26.1491,11.7274 -26.1491,26.1442 0,14.4152 11.7313,26.1446 26.1491,26.1446 14.4182,0 26.149,-11.7294 26.149,-26.1446 0,-14.4168 -11.7308,-26.1442 -26.149,-26.1442zm0 56.5042l0 0c-16.7428,0 -30.3653,-13.6202 -30.3653,-30.36 0,-16.7414 13.6225,-30.3614 30.3653,-30.3614 16.7447,0 30.3659,13.62 30.3659,30.3614 0,16.7398 -13.6212,30.36 -30.3659,30.36z"/>
   <path class="fil10" d="M89.6303 59.9379c-14.4178,0 -26.1491,11.7269 -26.1491,26.1442 0,14.4148 11.7313,26.144 26.1491,26.144 14.4182,0 26.149,-11.7292 26.149,-26.144 0,-14.4173 -11.7308,-26.1442 -26.149,-26.1442zm0 56.504l0 0c-16.7428,0 -30.3653,-13.6205 -30.3653,-30.3598 0,-16.7419 13.6225,-30.3619 30.3653,-30.3619 16.7447,0 30.3659,13.62 30.3659,30.3619 0,16.7393 -13.6212,30.3598 -30.3659,30.3598z"/>
   <polygon class="fil11" points="84.7104,113.7867 72.7601,109.29 72.7601,61.434 84.7104,57.332 "/>
   <polygon class="fil11" points="106.4998,108.4329 94.5503,113.7867 94.5503,57.332 106.4998,61.3478 "/>
   <polygon class="fil12" points="105.3088,108.5179 106.5653,108.5179 106.5653,64.6078 105.3088,64.6078 "/>
   <polygon class="fil12" points="72.5393,108.5179 73.871,108.5179 73.871,64.6078 72.5393,64.6078 "/>
   <polygon class="fil13" points="83.4738,113.1136 84.6198,113.1136 84.6198,59.4081 83.4738,59.4081 "/>
   <polygon class="fil13" points="94.5988,113.1137 95.7081,113.1137 95.7081,59.3973 94.5988,59.3973 "/>
   <path class="fil5" d="M89.6303 59.2352c-14.4178,0 -26.1491,11.7268 -26.1491,26.1442 0,14.4147 11.7313,26.1441 26.1491,26.1441 14.4182,0 26.149,-11.7294 26.149,-26.1441 0,-14.4174 -11.7308,-26.1442 -26.149,-26.1442zm0 56.504l0 0c-16.7428,0 -30.3653,-13.6205 -30.3653,-30.3598 0,-16.7414 13.6225,-30.3619 30.3653,-30.3619 16.7447,0 30.3659,13.6205 30.3659,30.3619 0,16.7393 -13.6212,30.3598 -30.3659,30.3598z"/>
   <path class="fil7" d="M67.2746 37.3356l0 0.942c0,0 0.1342,0.2446 0.2943,0.5642 0.1592,0.3208 0.7505,1.3285 0.7505,1.3285l0 -0.9381 -0.817 -1.5087c0,0 -0.1526,-0.3714 -0.2278,-0.3879z"/>
   <path class="fil7" d="M112.4425 37.3356l0 0.942c0,0 -0.1342,0.2446 -0.2938,0.5642 -0.16,0.3208 -0.7513,1.3285 -0.7513,1.3285l0 -0.9381 0.8173 -1.5087c0,0 0.1526,-0.3714 0.2278,-0.3879z"/>
   <path class="fil14" d="M86.6095 36.466c0,-1.089 1.4015,-1.9714 3.1279,-1.9714 1.7277,0 3.1271,0.8823 3.1271,1.9714 0,1.0889 -1.3994,1.9714 -3.1271,1.9714 -1.7264,0 -3.1279,-0.8824 -3.1279,-1.9714z"/>
   <path class="fil7" d="M77.2576 39.2322l0 0.9381c0,0 -0.9567,3.5384 -1.5832,4.9025 -0.6185,1.3501 -0.7491,1.4808 -0.7491,1.4808l0 -0.9369c0,0 0.7328,-1.0814 2.3323,-6.3845z"/>
   <path class="fil7" d="M102.4674 39.2322l0 0.9381c0,0 0.9566,3.5384 1.5831,4.9025 0.6185,1.3501 0.7492,1.4808 0.7492,1.4808l0 -0.9369c0,0 -0.733,-1.0814 -2.3323,-6.3845z"/>
   <path class="fil15" d="M86.6095 36.7879c0,-1.0522 1.4015,-1.9042 3.1279,-1.9042 1.7277,0 3.1271,0.8519 3.1271,1.9042 0,1.0522 -1.3994,1.9055 -3.1271,1.9055 -1.7264,0 -3.1279,-0.8532 -3.1279,-1.9055z"/>
   <path class="fil10" d="M88.5249 47.8505c0,-0.6402 0.5196,-1.1626 1.1624,-1.1626 0.6407,0 1.1627,0.5224 1.1627,1.1626 0,0.6414 -0.522,1.1625 -1.1627,1.1625 -0.6428,0 -1.1624,-0.5211 -1.1624,-1.1625z"/>
   <path class="fil10" d="M81.5612 49.0675l3.7058 -1.0585c0.2922,-0.0824 0.5967,0.0863 0.6795,0.379l0.2276 0.7949c0.0828,0.2917 -0.0861,0.5971 -0.3782,0.6796l-3.7056 1.0572c-0.2924,0.0825 -0.5974,-0.0862 -0.6797,-0.379l-0.2278 -0.7949c-0.0826,-0.2916 0.0863,-0.5958 0.3784,-0.6783z"/>
   <polygon class="fil10" points="74.132,53.1588 75.9919,50.3125 79.5125,50.4811 77.4631,53.2911 "/>
   <path class="fil10" d="M97.8738 49.0548l-3.7065 -1.0572c-0.2921,-0.0837 -0.5966,0.0862 -0.6792,0.3777l-0.2278 0.795c-0.0827,0.2929 0.0861,0.597 0.3781,0.6795l3.7064 1.0585c0.2916,0.0824 0.5967,-0.0875 0.6793,-0.379l0.2274 -0.7949c0.0826,-0.2916 -0.0862,-0.5971 -0.3777,-0.6796z"/>
   <path class="fil8" d="M88.5249 47.337c0,-0.6415 0.5196,-1.1625 1.1624,-1.1625 0.6407,0 1.1627,0.521 1.1627,1.1625 0,0.6402 -0.522,1.1625 -1.1627,1.1625 -0.6428,0 -1.1624,-0.5223 -1.1624,-1.1625z"/>
   <path class="fil8" d="M81.3874 48.4856l3.7056 -1.0573c0.2922,-0.0824 0.5972,0.0863 0.6794,0.3778l0.2279 0.7962c0.0828,0.2916 -0.0862,0.5958 -0.3783,0.6782l-3.7058 1.0585c-0.2922,0.0825 -0.5968,-0.0862 -0.6794,-0.379l-0.2278 -0.7949c-0.0828,-0.2916 0.0863,-0.5958 0.3784,-0.6795z"/>
   <polygon class="fil8" points="73.6945,52.5716 75.8761,49.6127 79.3966,49.7813 77.2151,52.7405 "/>
   <path class="fil8" d="M98.033 48.4805l-3.7057 -1.0572c-0.2921,-0.0838 -0.5972,0.0862 -0.6794,0.3777l-0.2278 0.7949c-0.0828,0.2916 0.0862,0.5971 0.3783,0.6795l3.7057 1.0573c0.2923,0.0824 0.5966,-0.0862 0.6794,-0.3778l0.2279 -0.7949c0.0828,-0.2929 -0.0862,-0.5971 -0.3784,-0.6795z"/>
   <polygon class="fil8" points="73.6945,52.5716 73.8106,52.8653 74.0804,52.6028 74.0289,52.4854 "/>
   <polygon class="fil8" points="79.397,49.78 79.5129,50.0742 79.1841,50.1438 79.0593,49.9968 "/>
   <polygon class="fil10" points="74.1395,53.1588 73.8106,52.8653 79.5125,50.0716 79.5125,50.4811 "/>
   <path class="fil11" d="M88.5249 47.6096c0,-0.6415 0.5196,-1.1625 1.1624,-1.1625 0.6407,0 1.1627,0.521 1.1627,1.1625 0,0.6402 -0.522,1.1613 -1.1627,1.1613 -0.6428,0 -1.1624,-0.5211 -1.1624,-1.1613z"/>
   <path class="fil16" d="M81.4685 48.7734l3.7059 -1.0573c0.2921,-0.0824 0.5967,0.0863 0.6793,0.3791l0.2278 0.7949c0.0827,0.2916 -0.0862,0.5958 -0.3783,0.6795l-3.7058 1.0573c-0.2921,0.0824 -0.5966,-0.0863 -0.6793,-0.3778l-0.2279 -0.7962c-0.0828,-0.2916 0.0862,-0.5971 0.3783,-0.6795z"/>
   <polygon class="fil15" points="73.8106,52.8648 75.9919,49.9042 79.5125,50.0742 77.331,53.0336 "/>
   <polygon class="fil10" points="105.2,53.1588 103.3393,50.3125 99.8193,50.4811 101.8685,53.2911 "/>
   <polygon class="fil8" points="105.6372,52.5716 103.4553,49.6127 99.9352,49.7813 102.1166,52.7405 "/>
   <polygon class="fil8" points="105.6372,52.5716 105.5214,52.8653 105.2514,52.6028 105.3028,52.4854 "/>
   <polygon class="fil8" points="99.9347,49.78 99.8193,50.0742 100.1476,50.1438 100.2725,49.9968 "/>
   <polygon class="fil10" points="105.1926,53.1588 105.5214,52.8653 99.8193,50.0716 99.8193,50.4811 "/>
   <polygon class="fil15" points="105.5214,52.8648 103.3393,49.9042 99.8193,50.0742 102.0008,53.0336 "/>
   <path class="fil16" d="M97.9504 48.7734l-3.7057 -1.0573c-0.2921,-0.0824 -0.5967,0.0863 -0.6795,0.3791l-0.2278 0.7949c-0.0826,0.2916 0.0863,0.5958 0.3784,0.6795l3.7056 1.0573c0.2924,0.0824 0.5969,-0.0863 0.6794,-0.3778l0.2278 -0.7962c0.0829,-0.2916 -0.086,-0.5971 -0.3782,-0.6795z"/>
   <polygon class="fil7" points="91.0822,32.8439 91.6126,32.8439 91.6126,31.9055 91.0822,31.9055 "/>
   <polygon class="fil7" points="88.0833,32.8439 88.6398,32.8439 88.6398,31.9055 88.0833,31.9055 "/>
   <path class="fil9" d="M99.7153 153.2443l1.5223 -1.245c0,0 -39.869,-10.936 -58.4191,-37.7853 -18.55,-26.8508 -12.3211,-39.7235 -12.3211,-39.7235 0,0 -1.6599,17.8541 4.4319,29.2046 6.0892,11.3489 10.7834,20.7041 30.0385,33.2168 19.382,12.596 34.7474,16.3324 34.7474,16.3324z"/>
   <path class="fil8" d="M100.0079 153.0101l1.5228 -1.2451c0,0 -39.8694,-10.9358 -58.4193,-37.7853 -18.5502,-26.8506 -12.3208,-39.7234 -12.3208,-39.7234 0,0 -1.6605,17.8541 4.4313,29.2045 6.0898,11.3489 10.784,20.7041 30.0391,33.217 19.3818,12.5958 34.7468,16.3323 34.7468,16.3323z"/>
   <path class="fil5" d="M99.8758 153.1244l1.5227 -1.2449c0,0 -39.8695,-10.9355 -58.4195,-37.7849 -18.55,-26.8512 -12.3185,-39.7239 -12.3185,-39.7239 0,0 -1.6626,17.8541 4.4292,29.2049 6.0897,11.349 10.7839,20.7037 30.0389,33.217 19.382,12.5953 34.7471,16.3318 34.7471,16.3318z"/>
   <path class="fil17" d="M27.8581 76.931c0,0 -2.2642,-7.4179 -2.7325,-12.4156 -0.4701,-4.9978 0.1559,-7.4972 3.6695,-12.0251 3.5145,-4.5296 8.6698,-8.8247 8.6698,-8.8247 0,0 3.0445,9.3719 0.1559,15.7746 -2.8907,6.4022 -9.7627,17.4907 -9.7627,17.4907z"/>
   <path class="fil18" d="M28.327 52.4914c-3.515,4.5278 -4.1395,7.0267 -3.671,12.0249 0.468,4.9978 2.7325,12.4157 2.7325,12.4157 0,0 6.8718,-11.0885 9.7644,-17.4926 2.8885,-6.4027 0.3011,-15.7611 0.3011,-15.7611 0,0 -5.6123,4.2838 -9.127,8.8131z"/>
   <path class="fil19" d="M31.1519 88.3003c0,0 -10.3319,-3.9737 -12.2054,-8.7991 -1.8728,-4.8229 -2.1576,-13.2803 -2.1576,-13.2803 0,0 10.3317,4.9374 13.1709,10.7264 2.8376,5.7912 1.1921,11.353 1.1921,11.353z"/>
   <path class="fil20" d="M18.548 79.616c1.8748,4.8235 12.2067,8.7986 12.2067,8.7986 0,0 1.6456,-5.5633 -1.192,-11.3525 -2.8392,-5.7909 -12.7724,-10.8186 -12.7724,-10.8186 0,0 -0.1159,8.5475 1.7577,13.3725z"/>
   <path class="fil21" d="M34.4444 99.5952c0,0 -5.052,-12.5444 -8.7434,-15.438 -3.6896,-2.8956 -10.7857,-4.4287 -10.7857,-4.4287 0,0 2.2697,10.4436 5.9611,13.7928 3.6893,3.3491 13.5679,6.0739 13.5679,6.0739z"/>
   <path class="fil22" d="M14.9245 79.7265c0,0 2.2624,10.8438 5.952,14.1929 3.6893,3.3487 13.5675,6.0719 13.5675,6.0719 0,0 -5.0516,-12.5423 -8.743,-15.4379 -3.6879,-2.8936 -10.7765,-4.8269 -10.7765,-4.8269z"/>
   <path class="fil23" d="M39.1558 107.8252c0,0 -4.5411,-7.0946 -9.7641,-10.5006 -5.2225,-3.4062 -14.135,-3.5201 -14.135,-3.5201 0,0 4.5985,10.2179 10.3888,12.0908 5.7906,1.8728 13.5104,1.9299 13.5104,1.9299z"/>
   <path class="fil24" d="M15.2621 93.8164c0,0 4.5912,10.6036 10.3834,12.4766 5.7885,1.8724 13.509,1.9293 13.509,1.9293 0,0 -4.5397,-7.0944 -9.7621,-10.4986 -5.2231,-3.406 -14.1302,-3.9072 -14.1302,-3.9072z"/>
   <path class="fil25" d="M45.2322 117.1576c0,0 -6.7858,-5.9214 -10.0786,-7.3961 -3.2929,-1.4762 -5.7333,-2.2142 -8.6863,-2.1002 -2.9514,0.1139 -7.2029,0.2862 -7.2029,0.2862 0,0 6.7493,8.7951 11.858,9.9866 5.1092,1.1915 14.1098,-0.7765 14.1098,-0.7765z"/>
   <path class="fil17" d="M45.152 116.9976c0,0 -6.5046,-6.5622 -9.7973,-8.0369 -3.2928,-1.4758 -5.7337,-2.2142 -8.6868,-2.1003 -2.9508,0.114 -7.2099,0.9072 -7.2099,0.9072 0,0 6.7564,8.1742 11.8656,9.3658 5.1092,1.1914 13.8284,-0.1358 13.8284,-0.1358z"/>
   <path class="fil26" d="M24.8669 119.7971c0,0 7.5863,5.9694 11.1508,7.6675 3.5666,1.7007 16.7064,-1.8229 16.7064,-1.8229 -0.083,-0.1233 -9.8234,-6.7994 -14.9651,-7.5447 -0.6796,-0.0975 -1.4071,-0.1416 -2.1542,-0.1416 -4.9018,0 -10.738,1.8417 -10.738,1.8417z"/>
   <path class="fil27" d="M57.4811 129.4841c0,0 -6.8683,4.6928 -11.8029,5.8938 -4.9326,1.2028 -16.4454,-2.7084 -16.4454,-2.7084 0,0 7.781,-6.4097 12.4656,-6.8648 4.6848,-0.4556 15.7827,3.6794 15.7827,3.6794z"/>
   <path class="fil25" d="M57.5263 129.4841c0,0 -6.9142,5.6293 -11.8473,6.8322 -4.9323,1.2023 -16.4473,-3.6578 -16.4473,-3.6578 0,0 7.783,-5.4603 12.4678,-5.9159 4.6848,-0.457 15.8268,2.7415 15.8268,2.7415z"/>
   <path class="fil28" d="M41.9055 126.2033c-4.6848,0.4556 -12.6842,6.4671 -12.6842,6.4671 0,0 11.7328,4.3089 16.6638,3.1086 4.9349,-1.2049 11.6485,-6.3017 11.6485,-6.3017 0,0 -9.7182,-3.3141 -14.7595,-3.3141 -0.3066,0 -0.5967,0.0143 -0.8686,0.0401z"/>
   <path class="fil17" d="M68.9847 136.6693c0,0 -5.4803,-2.5836 -13.4855,-3.6814 -8.0046,-1.0979 -16.8216,5.7618 -16.8216,5.7618 0,0 8.242,4.6213 16.8752,5.0839 8.6331,0.4611 14.5814,-7.4619 14.5814,-7.4619l-1.1494 0.2976z"/>
   <path class="fil25" d="M69.2568 137.1759c0,0 -5.4797,-2.5831 -13.4847,-3.6809 -8.0053,-1.0984 -17.0662,5.2637 -17.0662,5.2637 0,0 8.4866,5.1191 17.1193,5.5821 8.6331,0.4605 14.5816,-7.462 14.5816,-7.462l-1.1499 0.2971z"/>
   <path class="fil29" d="M38.6805 138.7696c0,0 8.4847,4.7373 17.1159,5.1997 8.6331,0.4611 14.5818,-7.4614 14.5818,-7.4614l-1.1479 0.2971c0,0 -5.4822,-2.5835 -13.4853,-3.6815 -0.6043,-0.0826 -1.2119,-0.1192 -1.8214,-0.1192 -7.4968,-0.002 -15.243,5.7654 -15.243,5.7654z"/>
   <path class="fil30" d="M75.106 142.3568c0,0 -5.234,4.041 -9.0651,3.9182 -3.8306,-0.1228 -9.0407,-2.2255 -9.7256,-2.6147 -0.4005,-0.2259 -0.6779,-0.4918 -0.6779,-0.4918 0,0 4.6317,-3.2977 8.9104,-3.2577 4.2813,0.0407 10.5583,2.446 10.5583,2.446z"/>
   <path class="fil17" d="M74.8909 142.2559c0,0 -5.0536,3.0698 -8.8846,2.947 -3.8311,-0.1233 -9.4869,-1.6838 -10.1447,-1.9076 -0.2387,-0.0828 0.057,-0.3289 0.057,-0.3289 0,0 4.3227,-3.571 8.6039,-3.531 4.2809,0.0407 10.3684,2.8204 10.3684,2.8204z"/>
   <path class="fil17" d="M33.0079 96.0028c0,0 6.2531,-12.2778 6.2531,-19.3833 0,-7.106 -5.0779,-15.3831 -5.0779,-15.3831 0,0 -5.1528,7.6512 -6.793,14.9919 -1.6417,7.3387 4.9144,18.3681 5.6178,19.7745z"/>
   <path class="fil31" d="M27.8586 76.2269c-1.6401,7.3406 4.4459,18.4304 5.1493,19.8368 0,0 6.7215,-12.3382 6.7215,-19.4442 0,-7.1055 -5.5295,-15.3662 -5.5295,-15.3662 0,0 -4.7011,7.6343 -6.3413,14.9736z"/>
   <path class="fil32" d="M45.004 116.6407c0,0 2.0694,-10.6918 1.8342,-17.2506 -0.2347,-6.5582 -2.7325,-10.1515 -4.5301,-12.1803 -1.7962,-2.0308 -3.8332,-4.8342 -3.8332,-4.8342 0,0 -6.0857,13.8918 -3.4302,20.6851 2.6553,6.7935 9.9592,13.58 9.9592,13.58z"/>
   <path class="fil33" d="M35.5147 103.0592c2.6553,6.794 9.6962,14.0886 9.6962,14.0886 0,0 2.3306,-11.1984 2.0958,-17.7567 -0.2333,-6.5587 -2.7324,-10.152 -4.5288,-12.1808 -1.7961,-2.0308 -4.2956,-4.8417 -4.2956,-4.8417 0,0 -5.6251,13.8992 -2.9677,20.6906z"/>
   <path class="fil34" d="M52.0862 124.6681c0,0 2.9692,-8.0112 2.5598,-13.5175 -0.4097,-5.5044 -0.9955,-8.3158 -2.9881,-11.5951 -1.9904,-3.2788 -1.932,-3.5066 -1.932,-3.5066 0,0 -3.983,7.5482 -4.3946,13.2288 -0.4094,5.6811 3.6507,11.0572 6.7549,15.3904z"/>
   <path class="fil35" d="M45.8008 109.2762c-0.4095,5.6831 3.1808,11.0958 6.2858,15.4291 0,0 3.4378,-8.0479 3.0284,-13.5542 -0.4091,-5.5049 -0.9969,-8.3157 -2.9877,-11.5951 -1.9907,-3.2793 -2.4023,-3.5141 -2.4023,-3.5141 0,0 -3.5131,7.5557 -3.9242,13.2343z"/>
   <path class="fil36" d="M59.317 130.9266c0,0 3.1712,-9.263 3.1089,-14.0514 -0.0624,-4.7867 -2.5489,-8.5781 -3.9795,-10.5685 -1.4308,-1.9886 -2.0513,-2.736 -2.0513,-2.736 0,0 -4.6645,8.5179 -3.7319,14.922 0.9329,6.4047 6.6539,12.4339 6.6539,12.4339z"/>
   <path class="fil37" d="M53.1316 118.9603c0.9329,6.4062 6.6538,12.4355 6.6538,12.4355 0,0 3.1713,-9.2647 3.109,-14.0514 -0.0604,-4.7869 -2.549,-8.5802 -3.9795,-10.5686 -1.4307,-1.9902 -2.5198,-3.1857 -2.5198,-3.1857 0,0 -4.196,8.9675 -3.2634,15.3702z"/>
   <path class="fil38" d="M63.447 113.3697c0,0 -2.435,8.6569 -1.9815,12.6212 0.4537,3.9623 7.6121,10.7082 7.6121,10.7082 0,0 2.4682,-6.4063 2.2423,-10.8222 -0.2278,-4.4158 -3.4561,-9.2793 -7.873,-12.5072z"/>
   <path class="fil39" d="M61.7979 125.8819c0.4557,3.9643 7.2504,10.8146 7.2504,10.8146 0,0 2.8298,-6.5105 2.6041,-10.9279 -0.226,-4.4145 -3.7926,-9.1715 -8.2109,-12.3974 0,0 -2.0952,8.547 -1.6436,12.5107z"/>
   <path class="fil25" d="M75.0915 142.3851c0,0 0.3803,-9.7004 -1.1147,-12.5057 -1.4964,-2.804 -5.236,-5.8571 -5.236,-5.8571 0,0 -2.9931,7.6031 -0.6868,11.6535 2.3067,4.0505 7.0375,6.7093 7.0375,6.7093z"/>
   <path class="fil17" d="M74.6013 141.5858c0,0 0.3744,-9.7215 -1.122,-12.5275 -1.4967,-2.8034 -5.2361,-5.8569 -5.2361,-5.8569 0,0 -2.9929,7.603 -0.6868,11.6535 2.3067,4.0504 7.0449,6.7309 7.0449,6.7309z"/>
   <path class="fil40" d="M67.7025 135.3254c2.3082,4.0504 7.3456,6.935 7.3456,6.935 0,0 0.0719,-9.9282 -1.4232,-12.7316 -1.4967,-2.806 -5.2361,-5.859 -5.2361,-5.859 0,0 -2.9911,7.6031 -0.6863,11.6556z"/>
   <path class="fil41" d="M64.4424 139.7757c-4.2584,0 -8.8128,3.3859 -8.8128,3.3859 0,0 -0.0075,0 0.6555,0.3634 0.6077,0.3344 5.9095,2.3653 9.7425,2.4861 3.8326,0.1232 9.0571,-3.685 9.0571,-3.685 0,0 -6.2844,-2.5098 -10.565,-2.5504 -0.0258,0 -0.0516,0 -0.0774,0z"/>
   <path class="fil42" d="M26.4426 107.0309c-2.9528,0.112 -6.9766,0.7378 -6.9766,0.7378 0,0 6.5211,8.3435 11.6303,9.535 5.1106,1.1921 14.1059,-0.1852 14.1059,-0.1852 0,0 -6.7821,-6.5126 -10.0748,-7.9888 -3.0723,-1.3773 -5.4028,-2.1097 -8.0988,-2.1097 -0.1931,0 -0.3877,0.0034 -0.5859,0.0109z"/>
   <path class="fil9" d="M78.9434 153.2443l-1.5222 -1.245c0,0 39.869,-10.936 58.4196,-37.7853 18.55,-26.8508 12.32,-39.7235 12.32,-39.7235 0,0 1.6608,17.8541 -4.4308,29.2046 -6.0904,11.3489 -10.7835,20.7041 -30.039,33.2168 -19.3819,12.596 -34.7475,16.3324 -34.7475,16.3324z"/>
   <path class="fil8" d="M78.6508 153.0101l-1.5227 -1.2451c0,0 39.8694,-10.9358 58.4197,-37.7853 18.55,-26.8506 12.3202,-39.7234 12.3202,-39.7234 0,0 1.6608,17.8541 -4.4308,29.2045 -6.0904,11.3489 -10.7837,20.7041 -30.0393,33.217 -19.3819,12.5958 -34.747,16.3323 -34.747,16.3323z"/>
   <path class="fil5" d="M78.7831 153.1244l-1.5229 -1.2449c0,0 39.8697,-10.9355 58.4195,-37.7849 18.55,-26.8512 12.319,-39.7239 12.319,-39.7239 0,0 1.6619,17.8541 -4.4297,29.2049 -6.0891,11.349 -10.7836,20.7037 -30.0389,33.217 -19.3818,12.5953 -34.7469,16.3318 -34.7469,16.3318z"/>
   <path class="fil17" d="M150.8002 76.931c0,0 2.2642,-7.4179 2.7333,-12.4156 0.4703,-4.9978 -0.1559,-7.4972 -3.6688,-12.0251 -3.5156,-4.5296 -8.6703,-8.8247 -8.6703,-8.8247 0,0 -3.0451,9.3719 -0.1559,15.7746 2.8906,6.4022 9.7617,17.4907 9.7617,17.4907z"/>
   <path class="fil43" d="M150.3325 52.4914c3.5142,4.5278 4.1392,7.0267 3.6701,12.0249 -0.4678,4.9978 -2.7319,12.4157 -2.7319,12.4157 0,0 -6.8726,-11.0885 -9.7643,-17.4926 -2.8894,-6.4027 -0.3018,-15.7611 -0.3018,-15.7611 0,0 5.6123,4.2838 9.1279,8.8131z"/>
   <path class="fil44" d="M147.5066 88.3003c0,0 10.3323,-3.9737 12.2061,-8.7991 1.8724,-4.8229 2.1577,-13.2803 2.1577,-13.2803 0,0 -10.3323,4.9374 -13.1709,10.7264 -2.8371,5.7912 -1.1929,11.353 -1.1929,11.353z"/>
   <path class="fil45" d="M160.1107 79.616c-1.8751,4.8235 -12.2061,8.7986 -12.2061,8.7986 0,0 -1.6455,-5.5633 1.1918,-11.3525 2.8384,-5.7909 12.7726,-10.8186 12.7726,-10.8186 0,0 0.1155,8.5475 -1.7583,13.3725z"/>
   <path class="fil46" d="M144.2155 99.5952c0,0 5.0508,-12.5444 8.7426,-15.438 3.6892,-2.8956 10.7849,-4.4287 10.7849,-4.4287 0,0 -2.2693,10.4436 -5.961,13.7928 -3.6892,3.3491 -13.5664,6.0739 -13.5664,6.0739z"/>
   <path class="fil47" d="M163.734 79.7265c0,0 -2.2616,10.8438 -5.9521,14.1929 -3.6892,3.3487 -13.5664,6.0719 -13.5664,6.0719 0,0 5.052,-12.5423 8.7426,-15.4379 3.6879,-2.8936 10.7759,-4.8269 10.7759,-4.8269z"/>
   <path class="fil48" d="M139.5032 107.8252c0,0 4.5412,-7.0946 9.7644,-10.5006 5.2232,-3.4062 14.1343,-3.5201 14.1343,-3.5201 0,0 -4.5983,10.2179 -10.3882,12.0908 -5.7899,1.8728 -13.5106,1.9299 -13.5106,1.9299z"/>
   <path class="fil49" d="M163.3967 93.8164c0,0 -4.5918,10.6036 -10.383,12.4766 -5.7886,1.8724 -13.5093,1.9293 -13.5093,1.9293 0,0 4.5399,-7.0944 9.7631,-10.4986 5.2219,-3.406 14.1291,-3.9072 14.1291,-3.9072z"/>
   <path class="fil25" d="M133.4268 117.1576c0,0 6.7852,-5.9214 10.0788,-7.3961 3.2925,-1.4762 5.7329,-2.2142 8.6867,-2.1002 2.9501,0.1139 7.2022,0.2862 7.2022,0.2862 0,0 -6.7483,8.7951 -11.8587,9.9866 -5.1089,1.1915 -14.109,-0.7765 -14.109,-0.7765z"/>
   <path class="fil17" d="M133.5068 116.9976c0,0 6.5047,-6.5622 9.7972,-8.0369 3.2923,-1.4758 5.734,-2.2142 8.6868,-2.1003 2.9512,0.114 7.2096,0.9072 7.2096,0.9072 0,0 -6.7558,8.1742 -11.8648,9.3658 -5.1092,1.1914 -13.8288,-0.1358 -13.8288,-0.1358z"/>
   <path class="fil50" d="M153.7922 119.7971c0,0 -7.5864,5.9694 -11.1512,7.6675 -3.5662,1.7007 -16.7062,-1.8229 -16.7062,-1.8229 0.0829,-0.1233 9.8235,-6.7994 14.9655,-7.5447 0.6795,-0.0975 1.406,-0.1416 2.1541,-0.1416 4.901,0 10.7379,1.8417 10.7379,1.8417z"/>
   <path class="fil51" d="M121.1777 129.4841c0,0 6.8688,4.6928 11.8028,5.8938 4.9329,1.2028 16.4455,-2.7084 16.4455,-2.7084 0,0 -7.7802,-6.4097 -12.466,-6.8648 -4.6844,-0.4556 -15.7823,3.6794 -15.7823,3.6794z"/>
   <path class="fil25" d="M121.1326 129.4841c0,0 6.9138,5.6293 11.8466,6.8322 4.9329,1.2023 16.4481,-3.6578 16.4481,-3.6578 0,0 -7.7829,-5.4603 -12.4685,-5.9159 -4.6844,-0.457 -15.8262,2.7415 -15.8262,2.7415z"/>
   <path class="fil52" d="M136.7535 126.2033c4.6844,0.4556 12.684,6.4671 12.684,6.4671 0,0 -11.7333,4.3089 -16.6636,3.1086 -4.9342,-1.2049 -11.6486,-6.3017 -11.6486,-6.3017 0,0 9.7177,-3.3141 14.7598,-3.3141 0.3067,0 0.597,0.0143 0.8684,0.0401z"/>
   <path class="fil17" d="M109.6743 136.6693c0,0 5.48,-2.5836 13.4853,-3.6814 8.0055,-1.0979 16.8216,5.7618 16.8216,5.7618 0,0 -8.2419,4.6213 -16.8752,5.0839 -8.6331,0.4611 -14.5814,-7.4619 -14.5814,-7.4619l1.1496 0.2976z"/>
   <path class="fil25" d="M109.4019 137.1759c0,0 5.4798,-2.5831 13.4848,-3.6809 8.0047,-1.0984 17.0667,5.2637 17.0667,5.2637 0,0 -8.4865,5.1191 -17.1197,5.5821 -8.6332,0.4605 -14.5817,-7.462 -14.5817,-7.462l1.1498 0.2971z"/>
   <path class="fil53" d="M139.9788 138.7696c0,0 -8.4853,4.7373 -17.1164,5.1997 -8.6331,0.4611 -14.5813,-7.4614 -14.5813,-7.4614l1.1474 0.2971c0,0 5.4822,-2.5835 13.4853,-3.6815 0.6043,-0.0826 1.2119,-0.1192 1.8214,-0.1192 7.4974,-0.002 15.2435,5.7654 15.2435,5.7654z"/>
   <path class="fil54" d="M103.5528 142.3568c0,0 5.2342,4.041 9.065,3.9182 3.8306,-0.1228 9.0408,-2.2255 9.7257,-2.6147 0.4005,-0.2259 0.6779,-0.4918 0.6779,-0.4918 0,0 -4.6318,-3.2977 -8.9105,-3.2577 -4.2807,0.0407 -10.5582,2.446 -10.5582,2.446z"/>
   <path class="fil17" d="M103.7679 142.2559c0,0 5.0541,3.0698 8.8846,2.947 3.8311,-0.1233 9.4874,-1.6838 10.1446,-1.9076 0.2388,-0.0828 -0.0569,-0.3289 -0.0569,-0.3289 0,0 -4.3228,-3.571 -8.6034,-3.531 -4.2813,0.0407 -10.3689,2.8204 -10.3689,2.8204z"/>
   <path class="fil17" d="M145.6506 96.0028c0,0 -6.2526,-12.2778 -6.2526,-19.3833 0,-7.106 5.0773,-15.3831 5.0773,-15.3831 0,0 5.1536,7.6512 6.7927,14.9919 1.6418,7.3387 -4.9137,18.3681 -5.6174,19.7745z"/>
   <path class="fil55" d="M150.8002 76.2269c1.6405,7.3406 -4.4459,18.4304 -5.1496,19.8368 0,0 -6.7217,-12.3382 -6.7217,-19.4442 0,-7.1055 5.5299,-15.3662 5.5299,-15.3662 0,0 4.7023,7.6343 6.3414,14.9736z"/>
   <path class="fil56" d="M133.6551 116.6407c0,0 -2.0703,-10.6918 -1.8345,-17.2506 0.2345,-6.5582 2.7321,-10.1515 4.5299,-12.1803 1.7962,-2.0308 3.8336,-4.8342 3.8336,-4.8342 0,0 6.0853,13.8918 3.4307,20.6851 -2.6561,6.7935 -9.9596,13.58 -9.9596,13.58z"/>
   <path class="fil57" d="M143.1442 103.0592c-2.6559,6.794 -9.6958,14.0886 -9.6958,14.0886 0,0 -2.3314,-11.1984 -2.0956,-17.7567 0.2333,-6.5587 2.7321,-10.152 4.5286,-12.1808 1.795,-2.0308 4.2952,-4.8417 4.2952,-4.8417 0,0 5.625,13.8992 2.9677,20.6906z"/>
   <path class="fil58" d="M126.5731 124.6681c0,0 -2.9697,-8.0112 -2.5603,-13.5175 0.4097,-5.5044 0.9955,-8.3158 2.9878,-11.5951 1.9915,-3.2788 1.9321,-3.5066 1.9321,-3.5066 0,0 3.9832,7.5482 4.3953,13.2288 0.4094,5.6811 -3.6511,11.0572 -6.7549,15.3904z"/>
   <path class="fil59" d="M132.8577 109.2762c0.4093,5.6831 -3.1796,11.0958 -6.2855,15.4291 0,0 -3.4379,-8.0479 -3.0282,-13.5542 0.4094,-5.5049 0.9968,-8.3157 2.9875,-11.5951 1.9903,-3.2793 2.4024,-3.5141 2.4024,-3.5141 0,0 3.5129,7.5557 3.9238,13.2343z"/>
   <path class="fil60" d="M119.3418 130.9266c0,0 -3.1712,-9.263 -3.1089,-14.0514 0.0625,-4.7867 2.5489,-8.5781 3.9797,-10.5685 1.4306,-1.9886 2.0511,-2.736 2.0511,-2.736 0,0 4.6645,8.5179 3.7319,14.922 -0.933,6.4047 -6.6539,12.4339 -6.6539,12.4339z"/>
   <path class="fil61" d="M125.5271 118.9603c-0.9329,6.4062 -6.6538,12.4355 -6.6538,12.4355 0,0 -3.1714,-9.2647 -3.109,-14.0514 0.0604,-4.7869 2.549,-8.5802 3.9795,-10.5686 1.4307,-1.9902 2.5198,-3.1857 2.5198,-3.1857 0,0 4.1966,8.9675 3.2634,15.3702z"/>
   <path class="fil62" d="M115.2117 113.3697c0,0 2.4356,8.6569 1.9821,12.6212 -0.4537,3.9623 -7.6125,10.7082 -7.6125,10.7082 0,0 -2.4682,-6.4063 -2.2419,-10.8222 0.2273,-4.4158 3.4561,-9.2793 7.8724,-12.5072z"/>
   <path class="fil63" d="M116.8609 125.8819c-0.4557,3.9643 -7.2505,10.8146 -7.2505,10.8146 0,0 -2.8297,-6.5105 -2.6038,-10.9279 0.2257,-4.4145 3.7923,-9.1715 8.2106,-12.3974 0,0 2.0953,8.547 1.6437,12.5107z"/>
   <path class="fil25" d="M103.5671 142.3851c0,0 -0.3797,-9.7004 1.1147,-12.5057 1.4972,-2.804 5.236,-5.8571 5.236,-5.8571 0,0 2.9931,7.6031 0.6869,11.6535 -2.3067,4.0505 -7.0376,6.7093 -7.0376,6.7093z"/>
   <path class="fil17" d="M104.0574 141.5858c0,0 -0.3743,-9.7215 1.1221,-12.5275 1.4972,-2.8034 5.2361,-5.8569 5.2361,-5.8569 0,0 2.993,7.603 0.6868,11.6535 -2.3067,4.0504 -7.045,6.7309 -7.045,6.7309z"/>
   <path class="fil64" d="M110.9568 135.3254c-2.3087,4.0504 -7.3461,6.935 -7.3461,6.935 0,0 -0.0714,-9.9282 1.4234,-12.7316 1.4965,-2.806 5.2359,-5.859 5.2359,-5.859 0,0 2.9916,7.6031 0.6868,11.6556z"/>
   <path class="fil65" d="M114.2165 139.7757c4.2588,0 8.8127,3.3859 8.8127,3.3859 0,0 0.0076,0 -0.6555,0.3634 -0.6077,0.3344 -5.9095,2.3653 -9.742,2.4861 -3.8331,0.1232 -9.0576,-3.685 -9.0576,-3.685 0,0 6.2844,-2.5098 10.5651,-2.5504 0.0257,0 0.0516,0 0.0774,0z"/>
   <path class="fil66" d="M152.2163 107.0309c2.9526,0.112 6.9766,0.7378 6.9766,0.7378 0,0 -6.5214,8.3435 -11.6305,9.535 -5.1104,1.1921 -14.1064,-0.1852 -14.1064,-0.1852 0,0 6.7826,-6.5126 10.0749,-7.9888 3.0731,-1.3773 5.4032,-2.1097 8.0997,-2.1097 0.1927,0 0.388,0.0034 0.5856,0.0109z"/>
  </g>
 </g>
</svg>
