<?xml version="1.0" encoding="UTF-8" standalone="no"?>
<svg
   clip-rule="evenodd"
   fill-rule="evenodd"
   viewBox="0 0 307.73999 307.73999"
   version="1.1"
   id="svg14"
   sodipodi:docname="Leicester.svg"
   width="307.73999"
   height="307.73999"
   xmlns:inkscape="http://www.inkscape.org/namespaces/inkscape"
   xmlns:sodipodi="http://sodipodi.sourceforge.net/DTD/sodipodi-0.dtd"
   xmlns="http://www.w3.org/2000/svg"
   xmlns:svg="http://www.w3.org/2000/svg">
  <defs
     id="defs14" />
  <sodipodi:namedview
     id="namedview14"
     pagecolor="#ffffff"
     bordercolor="#000000"
     borderopacity="0.25"
     inkscape:showpageshadow="2"
     inkscape:pageopacity="0.0"
     inkscape:pagecheckerboard="0"
     inkscape:deskcolor="#d1d1d1" />
  <path
     d="m 303.87,153.868 c 0,82.847 -67.155,150.002 -149.998,150.002 C 71.029,303.87 3.8699999,236.715 3.8699999,153.868 3.8699999,71.025 71.029,3.8699999 153.872,3.8699999 236.715,3.8689999 303.87,71.025 303.87,153.868 Z"
     fill="#ffffff"
     fill-rule="nonzero"
     stroke="#0053a0"
     stroke-width="7.74"
     id="path1" />
  <g
     fill="#0053a0"
     id="g13"
     transform="translate(-126.13,-46.13)">
    <path
       d="m 141.294,201.772 c -0.97,-76.588 60.354,-139.485 136.945,-140.456 76.587,-0.97 139.485,60.358 140.456,136.945 0.967,76.588 -60.358,139.485 -136.946,140.452 -76.587,0.971 -139.484,-60.354 -140.455,-136.941 h -0.001 z M 278.217,59.586 c -77.544,0.982 -139.635,64.664 -138.653,142.208 0.982,77.544 64.663,139.631 142.207,138.653 77.544,-0.982 139.632,-64.664 138.653,-142.208 C 419.442,120.695 355.761,58.604 278.217,59.586 Z"
       id="path2" />
    <path
       d="m 274.908,107.822 c -17.029,-0.04 -36.813,6.709 -50.112,17.718 -0.044,0.029 -0.044,0.146 0.048,0.194 7.604,3.016 12.818,7.017 20.946,11.569 0.293,0.161 0.396,0.091 0.458,-0.173 3.932,-19.971 28.312,-14.43 30.588,-28.993 -0.099,-0.099 -0.085,-0.279 -0.293,-0.29 -0.539,-0.014 -1.089,-0.022 -1.635,-0.025 z m 10.14,0.025 c -0.169,0 -0.224,0.07 -0.216,0.338 -1.023,2.565 1.982,5.236 3.734,6.966 0.168,0.157 0.447,0.341 0.656,0.432 10.883,4.431 22.928,7.703 25.567,20.221 0.055,0.194 0.091,0.319 0.293,0.146 5.801,-3.847 11.554,-7.75 17.425,-11.451 0.3,-0.125 0.19,-0.264 0,-0.385 -13.266,-9.432 -29.84,-15.57 -47.459,-16.267 z m -67.87,24.032 c -10.613,9.411 -19.719,21.72 -24.462,35.549 -0.053,0.136 0.028,0.198 0.217,0.216 10.386,0.939 13.779,-12.605 21.738,-17.64 0.107,-0.063 0.202,-0.118 0.195,-0.246 -0.565,-6.171 -0.836,-11.371 2.312,-17.879 z m 128.107,2.961 c 0.586,4.79 0.139,9.333 -1.133,13.76 -0.055,0.209 -0.047,0.37 0.191,0.532 7.673,4.104 11.832,16.09 20.7,16.559 0.11,0.048 0.279,0.055 0.217,-0.091 -3.079,-10.697 -11.932,-23.354 -19.975,-30.76 z m 22.822,37.77 c -10.884,10.913 6.779,29.198 -17.183,39.404 -2.114,0.623 -4.144,1.363 -6.057,1.371 -5.328,0.025 -12.91,-4.039 -12.863,4.049 0,0.146 0.132,0.249 0.308,0.319 7.403,3.169 17.407,10.04 17.568,20.631 0.363,12.624 -12.925,21.125 -10.818,33.116 28.396,-24.556 40.075,-60.813 29.045,-98.89 z m -177.515,1.803 c -0.091,0.025 -0.158,0.124 -0.241,0.319 -10.754,29.385 -0.188,75.066 32.8,99.197 0.007,-0.623 0.37,-1.92 0.747,-2.792 0.14,-0.337 0.118,-0.77 0,-1.18 -1.209,-5.314 -4.379,-10.671 -7.395,-15.886 -10.404,-17.27 -4.628,-29.114 12.17,-36.798 0.216,-0.07 0.264,-0.191 0.147,-0.415 -0.261,-0.571 -0.517,-1.136 -0.77,-1.715 -0.077,-0.153 0,-0.461 -0.385,-0.406 -3.767,0.469 -8.007,0.802 -11.84,0.63 -5.767,-1.286 -11.276,-3.584 -15.424,-9.693 -7.425,-10.366 2.744,-24.31 -9.52,-31.184 -0.101,-0.059 -0.197,-0.099 -0.289,-0.077 z m 155.51,42.475 c 0.278,0 0.564,0.04 0.843,0.117 3.723,0.678 9.355,2.869 12.701,7.01 0.216,0.268 0.117,0.491 -0.217,0.462 -5.375,-0.161 -11.414,-0.755 -15.596,-4.049 -0.593,-0.469 -1.139,-0.935 -0.721,-2.052 0.307,-0.708 1.293,-1.25 2.118,-1.397 0.3,-0.051 0.586,-0.099 0.872,-0.091 z m -132.973,2.191 c 0.3,-0.007 0.593,0 0.894,0.022 0.249,0.029 0.502,0.029 0.67,0.194 1.034,1.232 0.829,2.954 -1.103,4.288 -4.078,2.613 -8.806,2.759 -13.161,2.946 -0.17,0.007 -0.469,-0.18 -0.168,-0.462 3.967,-3.635 8.357,-6.944 12.868,-6.988 z m 73.733,49.529 c -0.055,-0.007 -0.118,0.008 -0.169,0.048 -3.342,1.587 -8.593,2.36 -11.547,0.7 -0.355,-0.176 -0.564,-0.044 -0.703,0.161 -5.306,8.985 -17.916,8.773 -26.868,6.49 -6.651,-1.499 -13.159,-3.397 -18.535,1.927 27.989,20.184 71.135,20.815 103.518,-1.396 -6.109,-2.884 -11.653,-0.81 -18.37,0.748 -7.604,1.766 -18.279,3.364 -26.894,-8.484 -0.146,-0.04 -0.278,-0.186 -0.432,-0.194 z m -5.592,2.023 c 0.077,0.007 0.161,0.015 0.264,0.022 0.971,0.114 1.524,0.608 2.118,1.279 0.285,0.377 0.388,0.817 0.34,1.282 -0.161,4.149 -0.872,8.345 -2.268,11.976 -0.029,0.172 -0.154,0.209 -0.216,0 -1.62,-5.112 -4.386,-10.286 -0.894,-14.313 0.223,-0.195 0.41,-0.257 0.656,-0.246 z"
       id="path3" />
    <path
       d="m 290.233,69.163 c 0.832,1.098 1.664,2.321 1.371,3.639 -1.07,6.03 -2.221,12.047 -3.445,18.053 -0.216,1.341 -1.191,1.917 -2.169,2.818 6.596,1.199 18.934,3.529 25.552,4.775 -0.176,-2.613 1.821,-4.141 2.624,-6.508 -2.199,1.539 -5.006,2.103 -7.615,1.543 -2.715,-0.513 -9.44,-1.851 -12.148,-2.412 0.44,-2.099 0.718,-4.239 1.206,-6.339 2.638,0.465 6.885,1.466 9.517,1.785 2.242,0.531 3.939,-2.584 5.159,-4.05 -0.857,0.195 -2.47,0.293 -3.346,0.096 -2.763,-0.537 -7.728,-1.582 -10.491,-2.144 0.246,-2.002 0.671,-3.976 1.088,-5.93 4.735,1.245 14.633,1.709 18.147,5.689 0.117,-2.197 -1.125,-4.926 0.124,-6.387 -6.541,-1.27 -19.033,-3.408 -25.574,-4.628 z m -3.155,0.096 c -6.303,0.03 -18.381,0.693 -24.68,0.772 1.348,2.218 -0.656,4.166 -0.704,6.387 2.136,-1.939 7.468,-2.519 10.242,-2.434 -0.007,6.079 0.62,12.184 0.704,18.245 0.037,1.147 -0.858,1.877 -1.59,2.338 2.741,-0.029 7.072,-0.366 9.641,-0.41 -1.264,-1.162 -1.906,-1.257 -1.928,-2.891 -0.447,-5.596 -0.67,-12.119 -0.824,-17.693 2.836,-0.206 8.051,0.303 10.367,1.712 -0.011,-2.448 -2.379,-4.883 -1.228,-6.026 z m -27.572,1.64 c -4.027,0.878 -12.998,1.509 -16.468,4.145 -4.148,2.88 -5.104,9.27 0.271,12.074 3.386,1.385 9.81,-0.121 13.156,0.146 2.301,0.095 3.272,3.283 1.759,4.845 -3.269,2.905 -12.148,2.905 -16.025,1.733 0.949,2.224 2.012,4.144 3.016,6.339 1.319,-0.828 3.661,-1.033 5.152,-1.3 3.177,-0.462 10.704,-2.5 12.826,-5.061 2.536,-2.979 2.66,-7.296 0.19,-10.026 -2.22,-2.433 -9.098,-2.004 -12.023,-1.809 -1.667,0 -3.045,0.589 -4.628,-0.192 -1.349,-0.928 -1.272,-3.245 0.238,-4.026 2.902,-1.537 9.48,-1.775 12.511,-0.53 -0.176,-2.124 0.095,-4.215 0.025,-6.338 z m 64.876,5.422 c 0.543,1.343 0.858,2.611 0.217,3.881 -2.39,5.149 -5.105,10.261 -7.634,15.45 -0.71,1.514 -1.619,2.474 -3.301,3.108 2.242,1.147 6.094,3.07 8.358,4.217 -0.949,-3.466 1.404,-6.577 2.749,-9.373 1.293,0.707 4.764,2.327 5.614,3.734 1.139,1.927 1.418,3.906 1.663,5.903 0.11,1.807 0.257,3.17 -1.608,3.811 2.62,1.067 6.739,3.262 9.176,4.434 -1.935,-3.987 -0.741,-9.41 -3.324,-13.327 1.682,0.073 4.504,0.355 6.292,-0.748 3.232,-1.894 4.02,-4.892 2.917,-8.846 -0.609,-2.081 -2.653,-3.269 -4.39,-4.097 -4.148,-2.052 -12.577,-6.121 -16.729,-8.147 z m -94.503,2.651 c -5.782,3.247 -16.897,8.801 -22.604,12.147 1.489,0.392 2.523,0.949 3.23,2.243 2.855,5.126 5.702,10.249 8.531,15.376 0.733,1.272 0.509,2.803 -0.07,4.218 5.933,-3.295 17.04,-9.07 22.991,-12.339 -1.858,-1.055 -0.678,-4.576 -1.425,-6.892 -0.587,2.022 -2.675,3.862 -4.379,5.108 -2.763,1.854 -9.249,5.159 -12.126,6.797 -1.048,-1.857 -2.115,-3.759 -3.108,-5.665 2.243,-1.392 7.443,-3.694 9.642,-5.156 1.286,-1.612 0.531,-3.939 0.817,-5.834 -0.564,0.682 -1.297,1.298 -2.1,1.712 -2.411,1.341 -7.703,4.273 -10.147,5.592 -0.927,-1.759 -2.037,-3.427 -2.84,-5.255 4.467,-2.027 12.478,-7.45 17.568,-7.161 -1.272,-1.853 -3.317,-2.694 -3.98,-4.891 z m 99.733,4.675 c 2.206,1.103 5.445,2.543 7.449,3.639 5.318,2.763 1.536,8.542 -2.312,6.365 -2.199,-0.733 -6.046,-2.906 -8.19,-3.785 0.924,-2.148 2.103,-4.071 3.053,-6.219 z M 202.047,95 c -0.611,0.879 -1.41,1.682 -2.362,2.195 -3.18,1.48 -8.877,6.618 -10.243,9.857 -1.905,3.709 -1.884,7.12 0.361,11.448 2.559,5.105 6.187,7.472 11.738,7.472 5.513,-0.341 10.479,-5.171 12.747,-8.146 1.25,-1.44 2.463,-3.027 4.295,-3.833 -1.539,-1.708 -3.159,-3.328 -4.727,-5.013 -0.561,2.048 -1.55,3.811 -2.892,5.519 -1.982,2.25 -5.059,5.786 -8.556,5.617 -3.497,-0.172 -4.61,-1.839 -6.17,-3.543 -1.559,-1.704 -2.632,-3.694 -2.361,-6.75 0.27,-3.057 6.329,-8.7 10.702,-8.868 -1.003,-1.906 -1.528,-4.028 -2.532,-5.955 z m -21.282,20.558 c -1.596,2.059 -4.432,5.639 -6.122,7.622 1.569,-0.231 2.999,-0.099 4.194,0.839 4.59,3.573 9.173,7.182 13.738,10.777 1.172,0.887 1.702,2.213 1.855,3.731 1.689,-2.012 4.409,-5.538 6.05,-7.498 -1.421,0.187 -2.806,0.264 -3.904,-0.623 -4.662,-3.595 -9.246,-7.248 -13.883,-10.869 -1.268,-0.964 -1.975,-2.268 -1.928,-3.979 z m -10.894,13.837 c -2.908,5.976 -8.927,17.083 -11.786,23.06 1.587,-0.63 2.778,-0.516 4.218,0.216 5.173,2.591 10.372,5.109 15.545,7.666 1.27,0.642 2.381,1.913 2.892,3.233 2.884,-6.076 8.205,-16.828 11.522,-22.852 -0.684,0 -1.369,-0.572 -1.856,-1.055 -1.367,-1.298 -2.056,-2.778 -3.447,-4.05 0.387,2.411 0.039,5.299 -1.013,7.641 -1.221,2.609 -4.465,8.934 -5.687,11.546 -2.026,-0.685 -3.591,-1.85 -5.544,-2.73 0.978,-2.338 3.866,-7.636 4.868,-9.949 0.011,-1.355 -1.601,-3.646 -2.747,-5.284 -0.049,0.88 -0.428,1.774 -0.843,2.584 -1.247,2.539 -4.056,8.16 -5.327,10.674 -1.781,-0.901 -4.099,-1.773 -5.881,-2.653 1.247,-2.536 4.393,-8.883 5.688,-11.396 1.002,-1.975 2.626,-3.628 4.628,-4.629 -2.075,-0.835 -3.449,-0.579 -5.23,-2.022 z m 3.735,33.233 c 0.831,1.345 1.012,3.62 1.061,5.229 0.22,3.034 -1.561,8.787 -2.025,11.741 -5.589,-1.096 -11.208,-2.444 -16.775,-3.664 -1.537,-0.294 -2.157,-1.529 -3.06,-2.848 -0.586,2.518 -1.584,7.274 -2.121,9.814 1.123,-0.828 1.96,-1.473 3.278,-1.18 5.955,1.249 11.879,2.558 17.811,3.902 1.367,0.294 2.738,1.334 3.446,2.628 1.27,-5.761 3.648,-16.289 4.893,-22.079 -0.61,0.052 -1.246,0.154 -1.783,-0.187 -1.734,-0.956 -2.967,-2.451 -4.725,-3.356 z"
       id="path4" />
    <path
       d="m 173.676,211.992 c -0.838,1.202 -2.039,2.188 -3.471,2.459 -5.448,1.543 -11.259,2.723 -17.474,4.218 -1.247,0.447 -2.002,-0.077 -3.181,-0.986 0.551,2.521 1.4,6.633 2,9.154 2.213,-3.1 6.333,-2.983 9.592,-4.071 0.775,2.612 1.686,8.091 2.556,10.649 1.367,1.421 3.638,1.619 5.422,2.246 -0.463,-0.696 -1.335,-2.177 -1.47,-3.016 -0.633,-2.763 -1.827,-8.036 -2.458,-10.774 2.084,-0.465 4.127,-1.081 6.242,-1.374 1.119,4.372 3.741,12.511 1.712,16.681 2.128,-0.678 3.883,-3.023 5.784,-2.529 -1.253,-5.87 -4.098,-16.735 -5.254,-22.657 h -10e-4 z m 0.289,26.729 c -0.696,-0.022 -1.397,0.04 -2.097,0.117 -4.719,1.011 -9.102,3.338 -11.111,8.267 -2.647,6.875 2.581,17.447 9.593,20.03 4.509,1.612 8.968,0.403 12.316,-2.096 3.109,-2.129 5.217,-5.687 5.134,-10.458 -0.195,-5.384 -3.205,-10.723 -7.593,-13.761 -2.086,-1.465 -4.154,-2.044 -6.242,-2.099 z m -0.193,6.002 c 2.602,-0.015 5.245,0.649 7.038,3.324 2.228,2.77 2.904,6.662 1.326,8.992 -2.243,2.947 -5.858,4.706 -9.665,4.552 -4.14,-0.147 -8.334,-5.446 -7.11,-10.528 1.163,-4.141 5.861,-6.131 8.411,-6.34 z m 16.318,20.03 c -1.018,0.03 -2.008,0.231 -2.99,0.601 -4.708,1.737 -8.164,4.775 -9.543,9.979 -1.935,7.12 5.852,16.468 13.207,17.787 4.721,0.795 8.902,-0.909 11.76,-3.958 2.692,-2.638 4.365,-6.585 3.448,-11.275 -1.134,-5.266 -5.391,-9.781 -10.243,-12.001 -2.14,-0.796 -3.945,-1.195 -5.639,-1.133 z m 2.337,5.761 c 2.059,0.007 3.931,0.832 5.327,2.29 2.578,2.382 3.793,5.306 2.603,8.406 -1.639,3.643 -4.685,5.995 -8.46,6.512 -4.102,0.568 -9.403,-4.859 -8.846,-9.333 0.668,-4.104 3.345,-5.779 5.544,-6.941 1.303,-0.634 2.597,-0.942 3.832,-0.934 z m 18.32,10.627 c -0.041,2.345 -2.444,1.652 -4.344,4.606 2.852,-0.286 7.634,2.257 9.866,3.925 -3.316,5.035 -6.765,9.956 -10.128,14.94 -0.625,1.048 -1.72,1.165 -2.869,1.257 2.098,1.451 5.906,3.994 8.006,5.445 -0.418,-1.675 -0.264,-3.063 0.649,-4.434 2.968,-4.39 5.976,-8.769 8.937,-13.181 0.169,-0.18 0.308,-0.594 0.634,-0.487 2.43,1.319 6.223,4.62 7.08,7.281 1.019,-1.961 0.825,-5.09 2.697,-5.856 -5.159,-3.555 -15.347,-10.019 -20.528,-13.496 z m 21.811,14.577 c 0.755,1.374 0.56,2.946 0.121,4.39 -1.686,5.643 -3.833,10.719 -5.523,16.344 -0.377,1.363 -1.231,2.173 -2.961,2.576 5.354,1.696 11.569,3.961 17.231,5.691 5.863,1.898 11.129,0.483 11.763,-5.669 0.37,-3.533 -3.394,-5.167 -4.867,-5.955 3.877,0.48 6.486,-1.59 6.695,-5.229 0.33,-2.591 -2.03,-5.424 -7.373,-7.157 -3.833,-1.25 -11.224,-3.91 -15.086,-4.991 z m 81.128,4.434 c -2.485,0.641 -6.64,2.378 -9.085,3.21 1.364,0.586 2.305,0.986 2.767,2.36 1.744,5.299 3.851,10.242 5.662,15.526 0.494,1.664 1.103,3.548 0.194,5.182 5.629,-1.733 15.394,-5.258 20.972,-7.109 -0.319,-0.465 -0.803,-0.843 -0.773,-1.429 -0.14,-1.99 0.362,-3.602 0.194,-5.614 -1.29,2.682 -4.126,4.056 -7.014,5.181 -1.627,0.524 -6.2,2.562 -7.813,2.723 -1.781,-5.361 -3.902,-11.004 -5.705,-16.365 -0.495,-1.389 -0.132,-2.36 0.601,-3.665 z m -75.822,1.759 c 2.059,0.726 7.926,2.067 9.927,2.902 2.789,1.155 0.978,6.153 -1.931,5.512 -2.041,-0.33 -7.773,-1.935 -9.685,-2.653 0.538,-1.921 1.095,-3.855 1.689,-5.761 z m 27.3,2.902 c 0.18,0.37 0.07,1.272 -0.238,1.679 l -10.48,17.739 c -0.935,1.521 -1.814,2.214 -3.115,3.21 2.389,0.371 6.523,1.558 8.923,2.02 -0.773,-1.682 -0.704,-3.764 0.546,-5.369 3.701,0.326 10.62,0.828 14.299,1.275 0.747,1.748 1.704,3.848 0,5.446 2.437,-0.019 6.687,-0.11 9.062,0.051 -1.07,-1.271 -2.111,-2.55 -2.558,-4.196 -1.114,-3.283 -5.255,-15.479 -6.556,-19.257 -0.223,-0.685 0.077,-1.535 0.099,-1.612 z m 27.696,0.136 c -2.675,0.44 -7.226,0.967 -9.784,1.282 1.217,0.854 2.118,1.382 2.291,2.822 0.63,5.537 1.747,10.843 2.458,16.384 0.147,1.733 0.176,3.961 -1.04,5.376 5.863,-0.557 16.651,-2.309 22.489,-2.987 -0.224,-0.516 -0.601,-1.004 -0.455,-1.565 0.264,-1.982 1.004,-3.686 1.25,-5.69 -1.935,2.213 -4.735,3.4 -7.784,3.932 -1.748,0.293 -6.848,1.117 -8.435,1.081 -0.663,-5.618 -1.635,-11.547 -2.316,-17.161 -0.191,-1.466 0.348,-2.345 1.326,-3.474 z m -23.405,4.126 4.273,11.638 c -2.671,-0.153 -7.776,-0.469 -10.444,-0.769 z m -34.222,2.294 c 2.451,0.956 6.519,2.334 8.699,3.177 4.775,1.664 3.518,8.066 -2.268,6.076 -2.598,-0.825 -6.061,-1.906 -8.527,-2.844 0.593,-2.1 1.502,-4.291 2.096,-6.409 z"
       id="path5" />
    <path
       d="m 363.332,103.073 c -3.778,-0.162 -6.277,0.879 -8.916,3.111 -2.953,2.686 -4.965,5.804 -4.943,10.484 0.099,3.686 4.126,9.48 8.971,12.536 1.363,1.008 3.525,2.265 3.73,3.947 1.605,-1.642 3.28,-3.262 4.922,-4.797 -3.932,-1.18 -10.591,-4.998 -11.547,-9.396 -0.609,-3.499 0.249,-4.643 1.737,-6.556 2.777,-3.353 5.592,-4.566 9.81,-3.4 3.77,1.502 7.149,6.226 7.442,9.667 1.961,-1.026 3.818,-1.844 5.808,-2.844 -1.579,-0.978 -2.275,-2.151 -3.345,-3.569 -2.316,-3.375 -6.673,-8.194 -11.958,-9.037 -0.593,-0.069 -1.172,-0.121 -1.711,-0.146 z m 20.8,18.007 c -0.077,2.47 -1.378,3.232 -3.152,4.551 -4.306,2.946 -8.384,5.948 -12.679,8.802 -1.22,0.777 -2.8,1.774 -4.536,0.938 1.396,2.17 4.155,5.834 5.57,7.978 0.146,-2.213 1.333,-3.217 2.675,-4.097 4.642,-3.1 9.007,-6.446 13.664,-9.517 1.345,-0.908 2.115,-1.304 3.903,-0.703 -1.385,-2.118 -4.049,-5.83 -5.445,-7.952 z m 8.245,11.616 c -1.286,1.942 -4.141,0.763 -6.168,1.543 2.467,1.389 5.189,5.845 6.215,8.461 -5.515,2.584 -10.073,4.903 -15.596,7.52 -1.048,0.531 -2.704,0.194 -3.778,-0.216 1.14,2.312 3.045,6.38 4.189,8.677 0.608,-1.781 2.389,-3.294 4.049,-4.027 4.936,-2.243 9,-4.412 13.984,-6.53 1.264,2.488 3.386,7.171 2.675,9.978 1.905,-1.15 2.84,-3.657 5.013,-3.422 -2.639,-5.717 -7.919,-16.274 -10.583,-21.984 z m 11.979,24.728 c -0.524,2.397 -2.701,3.778 -4.049,5.567 -2.701,3.155 -5.948,6.709 -9.11,9.905 -0.755,0.707 -2.628,0.93 -3.764,1.187 -2.352,0.341 -3.448,0.616 -5.251,-0.894 0.565,2.536 1.488,7.058 1.997,9.593 1.004,-1.52 2.074,-2.414 4.05,-2.916 1.759,-0.316 3.316,-0.994 4.58,-0.44 5.772,3.14 16.6,7.615 17.956,9.018 l -1.975,-9.473 c -0.641,0.927 -1.396,1.375 -2.166,1.081 -3.463,-1.341 -7.574,-3.254 -10.513,-4.379 2.151,-2.499 4.665,-4.914 6.94,-7.281 0.99,-1.206 2.346,-1.682 3.548,-0.509 z"
       id="path6" />
    <path
       d="m 390.665,213.319 c -1.095,0.029 -2.337,0.421 -3.664,1.3 -1.887,1.66 -2.583,4.259 -3.206,6.582 -0.851,3.925 -2.961,11.99 -3.735,15.926 1.305,-1.048 2.43,-1.166 3.903,-0.843 5.761,1.242 11.499,2.547 17.238,3.789 1.389,0.267 2.415,1.356 3.203,2.576 0.846,-5.46 4.239,-16.56 4.148,-22.13 -0.11,-4.566 -4.343,-7.479 -8.392,-6.53 -2.297,0.645 -3.587,3.298 -4.097,5.16 -0.007,-2.771 -2.11,-5.918 -5.398,-5.83 z m 0.022,6.621 c 1.69,0.011 3.251,1.569 2.8,3.525 -0.447,2.038 -1.257,6.325 -1.755,8.341 -1.961,-0.396 -3.998,-0.836 -5.933,-1.283 0.557,-2.103 1.081,-5.09 1.634,-7.226 0.557,-2.422 1.946,-3.357 3.254,-3.357 z m 10.561,0.363 c 1.759,0.062 3.372,1.829 2.983,3.98 -0.546,2.587 -1.542,7.358 -2.019,9.905 -2.136,-0.433 -4.349,-0.949 -6.508,-1.374 0.546,-2.591 1.385,-6.325 2.074,-8.916 0.638,-2.653 2.096,-3.639 3.47,-3.595 z m -21.594,17.956 c -1.62,2.91 -3.1,5.684 -4.797,8.63 1.286,-0.616 2.558,-0.685 3.617,-0.121 3.763,1.99 6.97,3.855 10.696,5.929 1.441,0.832 3.002,2.382 3.163,4.434 -0.062,2.748 -1.961,6.072 -4.489,7.19 -1.829,0.857 -3.91,-0.022 -5.299,-0.825 -3.415,-2.052 -6.109,-3.51 -9.524,-5.592 -1.18,-0.678 -2.232,-1.18 -2.338,-3.371 -1.634,2.77 -3.107,5.801 -4.822,8.655 2.275,-1.018 3.844,-0.34 5.478,0.671 3.038,1.748 5.566,3.214 8.575,4.965 2.298,1.305 4.599,2.166 7.736,1.466 2.708,-0.626 5.005,-3.247 6.658,-5.947 1.748,-2.829 3.283,-6.124 3.107,-9.253 -0.153,-3.232 -2.121,-5.438 -4.313,-6.897 -3.576,-2.165 -6.416,-3.657 -10.026,-5.76 -1.389,-0.836 -3.378,-2.093 -3.422,-4.174 z m 1.971,33.31 c -0.077,2.723 -1.601,5.926 -3.54,8.146 -0.978,1.312 -4.126,4.881 -5.397,6.248 -4.31,-3.657 -8.231,-6.973 -12.555,-10.605 -1.143,-0.942 -2.045,-2.253 -2.1,-3.741 -1.788,1.843 -4.203,4.58 -5.859,6.556 1.48,-0.209 2.869,0.509 3.979,1.451 4.24,3.616 8.352,7.325 12.654,10.887 1.29,1.172 1.953,2.308 2.023,4.174 3.902,-4.405 11.143,-12.727 14.947,-17.205 -0.517,-0.224 -1.206,-0.304 -1.499,-0.92 -1.125,-2.052 -1.462,-3.364 -2.653,-4.991 z m -29.862,7.113 c -1.209,1.587 -3.631,2.506 -5.375,3.276 -3.771,1.799 -9.063,6.101 -10.166,11.14 -0.879,4.342 0.077,7.849 2.477,11.012 2.375,3.21 5.369,5.075 9.502,5.181 4.625,-0.044 9.554,-3.016 13.204,-6.724 1.202,-1.202 2.675,-2.855 4.434,-2.99 -1.466,-1.745 -2.69,-3.712 -4.288,-5.376 -1.033,3.184 -6.01,8.414 -9.377,9.33 -2.972,0.67 -4.962,-0.132 -7.135,-2.005 -2.415,-2.499 -3.917,-5.577 -2.917,-9.179 1.488,-4.643 7.652,-8.044 11.525,-7.373 -0.704,-2.074 -1.235,-4.295 -1.884,-6.292 z"
       id="path7" />
    <path
       d="m 280.691,108.643 c -0.491,1.414 -0.825,3.279 -1.155,4.917 -0.069,0.36 -0.249,0.605 -0.465,0.865 -10.968,11.038 -24.519,7.824 -29.569,24.01 -0.571,1.367 0.154,2.814 2.598,4.166 0.246,0.147 0.462,0.085 0.462,-0.172 -0.615,-17.575 23.13,-16.387 28.323,-28.583 0.055,-0.124 0.231,-0.091 0.286,0 4.364,8.143 11.576,9.209 18.168,13.02 4.936,2.847 8.495,5.431 9.502,13.518 0.033,0.382 0.14,0.312 0.334,0.118 0.747,-0.825 2.561,-1.25 2.506,-2.485 -1.597,-11.931 -14.738,-14.508 -25.281,-19.422 -0.44,-0.337 -0.887,-0.674 -1.327,-1.011 -2.206,-2.609 -3.888,-5.552 -4.382,-8.941 z m -0.191,14.921 c -0.117,0.008 -0.216,0.033 -0.319,0.092 -0.113,0.055 -0.223,0.172 -0.285,0.293 -0.059,0.11 -0.037,0.458 0,0.696 0.04,0.154 0.179,0.239 0.263,0.338 0.176,0.216 0.33,0.34 0.557,0.509 0.283,0.187 0.631,-0.044 0.693,-0.268 0.084,-0.388 0.084,-0.817 0,-1.158 -0.022,-0.124 -0.117,-0.201 -0.194,-0.315 -0.106,-0.117 -0.224,-0.179 -0.407,-0.187 -0.077,-0.007 -0.202,-0.014 -0.308,0 z m 3.584,3.324 c -0.037,0.007 -0.051,0.015 -0.092,0.048 -0.069,0.055 -0.124,0.146 -0.124,0.238 -0.007,0.48 -0.224,1.18 0.216,1.429 0.216,0.099 0.487,0.136 0.656,-0.055 0.084,-0.139 0.249,-0.187 0.238,-0.432 0,-0.118 -0.161,-0.154 -0.212,-0.286 -0.07,-0.194 -0.033,-0.539 -0.103,-0.678 -0.062,-0.103 -0.125,-0.202 -0.238,-0.216 -0.117,-0.022 -0.224,-0.077 -0.341,-0.048 z m -6.6,0.07 c -0.318,0.11 -0.656,0.341 -0.773,0.747 -0.139,0.242 -0.132,0.433 0,0.579 0.169,0.249 0.378,0.543 0.671,0.678 0.249,0.117 0.571,0.117 0.681,-0.414 0.121,-0.44 0.129,-1.059 -0.069,-1.227 -0.257,-0.184 -0.195,-0.44 -0.51,-0.363 z m 3.493,5.808 c -1.404,4.225 -1.767,6.354 -2.767,9.718 1.832,0.015 2.844,0.022 4.163,0.048 -1.074,-3.833 -1.125,-5.354 -1.396,-9.766 z"
       id="path8" />
    <path
       d="m 216.192,153.642 c -0.062,0 -0.139,0.033 -0.216,0.096 -9.773,6.893 -12.426,19.11 -24.995,17.091 8.922,4.17 8.706,14.423 9.616,23.933 0.769,8.01 6.894,18.802 23.408,16.556 0.183,-0.015 0.308,-0.161 0.19,-0.337 -1.055,-1.506 -4.595,-1.012 -5.474,-1.158 -13.073,-2.452 -15.287,-14.475 -18.002,-28.081 -0.632,-3.932 -3.183,-6.417 -4.749,-9.37 -0.113,-0.301 -0.215,-0.396 0.169,-0.466 8.329,-1.594 14.608,-8.82 21.285,-16.505 0.139,-0.084 0.164,-0.274 0,-0.414 -0.378,-0.377 -0.722,-0.795 -1.063,-1.249 -0.062,-0.063 -0.099,-0.103 -0.169,-0.096 z m -1.249,15.813 c -0.118,0.007 -0.242,0.033 -0.341,0.091 -0.117,0.055 -0.224,0.173 -0.293,0.293 -0.055,0.11 -0.03,0.459 0,0.697 0.047,0.154 0.209,0.238 0.293,0.337 0.176,0.216 0.333,0.341 0.557,0.509 0.282,0.187 0.608,-0.044 0.67,-0.267 0.085,-0.389 0.085,-0.817 0,-1.158 -0.025,-0.125 -0.117,-0.202 -0.194,-0.315 -0.106,-0.118 -0.223,-0.18 -0.407,-0.187 -0.08,-0.008 -0.179,-0.015 -0.285,0 z m 3.756,3.415 c -0.041,0.011 -0.077,0.026 -0.118,0.055 -0.069,0.048 -0.124,0.139 -0.124,0.238 -0.022,0.473 -0.268,1.165 0.172,1.422 0.209,0.114 0.477,0.139 0.645,-0.048 0.095,-0.139 0.264,-0.168 0.264,-0.406 0.007,-0.125 -0.139,-0.158 -0.183,-0.294 -0.063,-0.194 -0.033,-0.542 -0.103,-0.674 -0.055,-0.106 -0.121,-0.223 -0.238,-0.238 -0.117,-0.029 -0.202,-0.077 -0.315,-0.055 z m -6.651,0.509 c -0.315,0.11 -0.656,0.363 -0.77,0.774 -0.139,0.238 -0.132,0.406 0,0.553 0.161,0.249 0.4,0.542 0.693,0.674 0.249,0.121 0.571,0.147 0.681,-0.388 0.121,-0.44 0.107,-1.078 -0.102,-1.25 -0.253,-0.183 -0.183,-0.44 -0.502,-0.363 z m 3.858,5.739 c -0.516,4.265 -2.074,9.139 -3.594,12.342 1.773,-0.238 3.191,0.839 3.301,2.213 0.447,-1.557 1.642,-2.755 3.06,-2.338 -0.931,-3.869 -2.081,-8.029 -2.767,-12.217 z"
       id="path9" />
    <path
       d="m 229.857,220.666 c -0.07,0.018 -0.146,0.04 -0.238,0.077 -15.134,5.848 -18.158,19.436 -9.696,31.401 6.358,10.682 9.172,15.083 6.149,23.669 11.829,-14.083 32.786,8.699 44.809,-8.868 0.161,-0.217 -0.092,-0.363 -0.341,-0.605 -0.586,-0.407 -1.202,-0.678 -1.803,-0.916 -0.447,-0.169 -0.692,-0.07 -0.964,0.315 -4.921,5.185 -20.88,4.035 -32.947,4.071 -0.37,0 -1.473,0.194 -1.836,0.389 -1.158,0.593 -2.33,1.117 -3.565,1.007 -0.33,0 -0.832,-0.176 -0.748,-0.861 0.601,-8.776 -4.621,-14.354 -7.93,-21.595 -1.033,-2.469 -8.699,-16.321 9.737,-24.735 0.084,-0.161 0.26,-0.256 0.238,-0.502 -0.055,-0.857 -0.231,-1.704 -0.48,-2.583 -0.044,-0.217 -0.169,-0.293 -0.385,-0.264 z m 13.691,16.728 c -0.118,0.019 -0.239,0.04 -0.341,0.095 -0.114,0.063 -0.224,0.176 -0.282,0.294 -0.055,0.113 -0.041,0.461 0,0.7 0.036,0.153 0.198,0.23 0.282,0.333 0.187,0.216 0.333,0.337 0.557,0.509 0.286,0.184 0.641,-0.047 0.7,-0.271 0.077,-0.385 0.088,-0.817 0,-1.158 -0.03,-0.121 -0.147,-0.19 -0.213,-0.308 -0.117,-0.124 -0.209,-0.175 -0.388,-0.194 -0.085,-0.007 -0.198,-0.014 -0.315,0 z m 3.811,3.232 c -0.041,0.008 -0.085,0.015 -0.125,0.048 -0.062,0.055 -0.125,0.146 -0.117,0.238 -0.022,0.48 -0.268,1.165 0.165,1.429 0.216,0.107 0.454,0.128 0.63,-0.055 0.084,-0.139 0.286,-0.161 0.286,-0.41 0.007,-0.114 -0.161,-0.147 -0.216,-0.286 -0.063,-0.191 -0.008,-0.539 -0.07,-0.678 -0.062,-0.106 -0.121,-0.223 -0.246,-0.238 -0.109,-0.033 -0.194,-0.07 -0.307,-0.048 z m -6.798,0.411 c -0.315,0.106 -0.652,0.362 -0.77,0.769 -0.146,0.231 -0.131,0.411 0,0.557 0.162,0.246 0.378,0.532 0.671,0.671 0.246,0.124 0.572,0.146 0.671,-0.385 0.124,-0.44 0.139,-1.081 -0.07,-1.25 -0.253,-0.186 -0.183,-0.439 -0.502,-0.362 z m 3.474,5.489 c -0.517,4.266 -2.078,9.139 -3.595,12.342 1.774,-0.238 3.192,0.817 3.302,2.199 0.447,-1.558 1.641,-2.738 3.06,-2.316 -0.935,-3.87 -2.089,-8.029 -2.767,-12.225 z"
       id="path10" />
    <path
       d="m 330,220.644 c -0.077,0.007 -0.165,0.084 -0.194,0.168 -0.334,0.711 -0.671,1.389 -1.012,2.1 -0.3,0.803 -0.315,1.488 0.895,1.873 21.682,8.864 11.008,25.636 5.353,35.479 -0.586,1.012 -1.989,3.994 -2.096,5.306 -0.216,1.397 0,2.613 -0.033,4.072 0,0.34 -0.476,0.432 -0.74,0.384 -13.881,-2.667 -25.89,9.598 -37.268,-3.638 -1.048,-1.133 -2.305,-1.243 -2.766,-0.887 -0.502,0.377 -0.873,0.795 -1.228,1.348 -0.238,0.334 -0.231,0.524 0.048,0.865 11.829,16.589 29.315,-3.001 44.322,5.251 -3.515,-8.435 3.411,-16.618 7.328,-23.976 8.707,-14.794 -1.48,-23.885 -12.532,-28.345 -0.033,-0.015 -0.048,0 -0.077,0 z m -11.492,16.435 c -0.117,0.015 -0.216,0.04 -0.319,0.099 -0.113,0.055 -0.223,0.172 -0.285,0.286 -0.052,0.117 -0.037,0.487 0,0.725 0.04,0.154 0.179,0.217 0.263,0.316 0.176,0.208 0.33,0.34 0.554,0.502 0.286,0.194 0.634,-0.037 0.696,-0.261 0.084,-0.384 0.084,-0.824 0,-1.158 -0.022,-0.132 -0.117,-0.201 -0.187,-0.315 -0.114,-0.117 -0.231,-0.179 -0.414,-0.194 -0.077,-0.007 -0.202,-0.015 -0.308,0 z m 3.639,3.331 c -0.04,0 -0.084,0.018 -0.125,0.048 -0.069,0.047 -0.121,0.146 -0.121,0.238 -0.018,0.473 -0.263,1.165 0.169,1.418 0.216,0.117 0.476,0.139 0.656,-0.044 0.084,-0.139 0.26,-0.161 0.26,-0.41 0,-0.114 -0.135,-0.154 -0.19,-0.294 -0.063,-0.19 -0.033,-0.531 -0.092,-0.67 -0.062,-0.106 -0.103,-0.224 -0.227,-0.238 -0.106,-0.03 -0.224,-0.07 -0.33,-0.048 z m -6.724,0.502 c -0.319,0.11 -0.634,0.37 -0.748,0.773 -0.139,0.238 -0.132,0.407 0,0.554 0.169,0.249 0.378,0.538 0.671,0.67 0.245,0.125 0.568,0.147 0.678,-0.385 0.124,-0.439 0.106,-1.081 -0.103,-1.249 -0.245,-0.183 -0.183,-0.44 -0.498,-0.363 z m 3.686,5.5 c -0.509,4.266 -2.074,9.14 -3.595,12.339 1.781,-0.238 3.199,0.843 3.302,2.213 0.447,-1.557 1.642,-2.752 3.06,-2.334 -0.931,-3.874 -2.082,-8.029 -2.767,-12.218 z"
       id="path11" />
    <path
       d="m 343.163,153.419 c -0.044,0.018 -0.084,0.055 -0.121,0.103 -0.165,0.19 -0.301,1.249 -0.341,1.949 -0.007,0.147 -0.007,0.264 0.147,0.363 3.107,1.891 12.419,12.448 20.532,14.291 0.355,0.077 0.399,0.378 0.223,0.557 -9.648,11.338 1.858,29.045 -17.16,35.795 -3.533,0.971 -7.088,0.509 -7.744,2.862 -0.018,0.084 0.099,0.19 0.169,0.19 11.437,0.726 18.572,-3.129 20.708,-11.297 2.752,-9.103 -2.43,-22.035 7.329,-29.092 0.246,-0.187 0.114,-0.51 -0.103,-0.488 -9.864,1.004 -16.171,-9.461 -23.5,-15.207 -0.037,-0.026 -0.099,-0.033 -0.139,-0.026 z m 3.133,15.233 c -0.117,0.026 -0.238,0.063 -0.341,0.125 -0.113,0.055 -0.223,0.168 -0.286,0.293 -0.051,0.106 -0.036,0.454 0,0.693 0.041,0.153 0.18,0.241 0.264,0.34 0.176,0.217 0.33,0.315 0.553,0.477 0.286,0.194 0.634,-0.015 0.697,-0.238 0.084,-0.385 0.084,-0.818 0,-1.158 -0.022,-0.121 -0.118,-0.224 -0.187,-0.338 -0.114,-0.117 -0.231,-0.179 -0.414,-0.194 -0.077,0 -0.18,-0.014 -0.286,0 z m 3.346,3.72 c -0.037,0.007 -0.077,0.014 -0.114,0.044 -0.07,0.055 -0.103,0.146 -0.103,0.241 -0.022,0.477 -0.26,1.162 0.173,1.426 0.205,0.106 0.454,0.132 0.623,-0.055 0.091,-0.139 0.271,-0.161 0.271,-0.407 0,-0.117 -0.147,-0.146 -0.194,-0.286 -0.063,-0.194 -0.03,-0.542 -0.099,-0.678 -0.055,-0.109 -0.103,-0.223 -0.217,-0.241 -0.117,-0.03 -0.223,-0.07 -0.34,-0.044 z m -6.886,0.044 c -0.319,0.11 -0.634,0.362 -0.747,0.773 -0.14,0.238 -0.132,0.407 0,0.553 0.161,0.249 0.377,0.543 0.67,0.671 0.246,0.124 0.568,0.146 0.678,-0.385 0.114,-0.44 0.106,-1.055 -0.099,-1.224 -0.256,-0.187 -0.187,-0.465 -0.502,-0.388 z m 3.709,5.445 c -0.51,4.265 -2.075,9.139 -3.595,12.342 1.773,-0.238 3.202,0.839 3.301,2.221 0.447,-1.558 1.642,-2.763 3.064,-2.346 -0.935,-3.862 -2.085,-8.028 -2.77,-12.217 z"
       id="path12" />
    <path
       d="m 336.607,127.005 c -0.037,0.008 -0.077,0.008 -0.121,0.03 -8.762,2.477 -20.594,12.587 -30.342,21.448 -0.286,0.326 -0.678,0.396 -0.997,0.286 -6.478,-2.129 -14.012,-2.404 -20.29,-2.576 -8.956,-0.825 -19.722,0.271 -29.356,3.393 -0.414,0.146 -0.725,-0.231 -1.033,-0.601 -7.626,-8.483 -18.37,-15.431 -29.965,-20.268 -0.322,-0.154 -0.593,-0.293 -0.963,0.047 -5.952,5.49 -4.643,21.749 0.465,30.566 0.601,1.279 0.733,3.521 0.747,4.287 0.363,4.742 1.287,8.839 2.529,13.258 0.308,2.745 1.359,5.537 2.939,7.905 0.308,0.377 0.176,0.718 -0.048,0.963 -2.019,2.023 -3.862,3.936 -5.881,5.955 -0.147,0.139 -0.425,0.238 -0.697,0.286 -1.674,0.194 -2.198,0.74 -2.99,2.675 -0.117,0.279 -0.102,0.473 0.044,0.704 0.286,0.531 2.228,3.895 3.833,5.683 1.55,1.536 0.971,2.994 -0.337,4.39 2.474,1.851 6.9,5.391 7.164,5.929 0.279,1.426 2.793,1.906 1.294,3.951 0.396,0.091 0.634,0.238 0.942,0.483 0.223,0.242 0.271,0.473 0.293,0.726 0.201,2.221 0.619,4.236 1.85,6.362 5.013,8.501 10.631,7.189 17.308,14.438 3.994,4.342 7.937,4.514 10.652,12.173 -0.249,2.906 -0.403,4.687 0.795,7.201 1.419,3.071 4.911,3.188 9.4,5.229 0.601,0.234 0.934,0.418 1.374,0.872 1.173,1.143 2.521,1.876 4.049,2.602 1.235,0.524 2.697,0.524 3.833,-0.048 2.159,-1.235 2.613,-0.341 6.604,-3.21 3.763,-1.11 9.908,-5.746 9.253,-13.635 0.022,-0.231 0.076,-0.385 0.146,-0.587 0.117,-0.363 0.454,-0.725 0.773,-1.077 1.517,-1.814 3.254,-3.419 4.317,-5.618 0.216,-0.531 0.403,-1.048 0.887,-1.447 15.024,-12.265 9.711,-6.875 15.142,-11.038 11.136,-8.468 3.825,-18.355 16.867,-23.885 -1.766,-3.741 -1.165,-4.082 4.581,-12.049 -3.038,-1.605 -5.153,-3.448 -7.26,-4.921 -6.607,-5.182 -0.608,-9.579 -0.066,-12.122 0.378,-1.444 0.946,-3.265 1.085,-5.108 0.704,-4.247 0.308,-9.253 2.477,-11.474 1.598,-1.543 2.06,-9.989 2.313,-10.674 1.751,-5.515 1.11,-6.256 1.429,-9.719 0.051,-0.461 0.216,-0.831 0,-1.341 -1.221,-3.364 -2.716,-6.618 -4.438,-9.843 -0.154,-0.278 -0.267,-0.546 -0.484,-0.601 -0.033,-0.007 -0.077,0 -0.117,0 z m -5.204,12.973 c -0.703,6.918 -3.224,11.499 -2.436,17.3 -2.939,3.609 -1.954,10.341 -4.654,14.368 -0.176,0.231 -0.414,0.363 -0.7,0.337 -3.588,-0.593 -6.102,-5.112 -9.154,-7.666 -0.312,-0.245 -0.465,-0.476 -0.363,-0.722 1.242,-2.763 4.093,-5.533 1.88,-8.34 0.11,-8.044 9.718,-9.337 15.427,-15.277 z m -103.327,1.326 c 5.636,3.155 9.231,8.454 12.001,8.531 0.433,0.671 1.048,1.363 1.565,1.906 4.148,4.719 0.858,6.478 4.504,12.532 0.395,0.847 0.571,1.671 0,2.188 -2.437,2.122 -4.603,4.273 -6.626,6.603 -2.675,3.247 -3.979,2.052 -4.771,0 -0.495,-1.521 -1.019,-3.239 -0.333,-4.991 0.425,-0.964 0.168,-1.755 -0.557,-2.675 -0.971,-1.363 -1.763,-2.807 -2.529,-4.243 -0.271,-0.539 -0.447,-1.001 -0.553,-1.679 -0.964,-5.969 -0.788,-14.896 -2.701,-18.172 z m 70.014,59.094 c 0.41,-0.044 0.773,0.238 0.821,0.648 0.044,0.418 -0.264,0.803 -0.675,0.847 -0.414,0.04 -0.777,-0.26 -0.824,-0.678 -0.037,-0.407 0.271,-0.77 0.678,-0.817 z m -38.492,0.069 c 0.418,-0.036 0.777,0.238 0.817,0.656 0.048,0.411 -0.264,0.77 -0.67,0.817 -0.411,0.048 -0.781,-0.238 -0.818,-0.648 -0.047,-0.414 0.261,-0.777 0.671,-0.825 z m 62.018,16.754 c 0.608,0.008 0.795,0.576 0.725,1.155 -0.648,8.175 -4.459,5.925 -13.166,13.668 -2.276,1.818 -1.528,3.584 -4.599,6.171 -2.573,2.404 -4.973,4.918 -7.164,8.029 -0.356,0.531 -0.616,-0.033 -0.649,-0.271 -0.106,-0.649 -0.491,-1.382 -1.033,-1.975 -1.44,-1.62 0.857,-1.419 -1.734,-5.299 -1.073,-1.572 -2.315,0.454 -3.063,-2.096 -0.462,-1.646 -0.022,-0.836 -0.601,-4.654 l 1.521,-1.257 c 0.714,2.037 1.718,3.741 2.814,5.159 0.161,0.195 -0.139,1.913 0.531,3.427 0.14,-2.39 2.276,-3.764 -0.769,-8.051 -0.396,-0.557 -0.601,-1.103 -0.748,-1.759 -0.018,-0.07 -0.033,-0.125 -0.047,-0.194 5.768,-3.749 12.224,-6.809 18.318,-9.334 -0.311,0.348 -0.612,0.697 -0.919,1.067 -0.14,0.168 0.132,0.23 0.216,0.194 0.37,-0.103 0.546,-0.055 0.839,0 0.194,0.113 0.172,0.315 0.172,0.498 0.044,0.711 -0.524,0.751 -0.355,1.543 1.004,-1.286 1.96,-2.536 2.983,-3.708 0.242,-0.301 0.557,-0.656 1.033,-0.601 l 1.114,0.146 c 0.378,0.015 0.74,-0.055 1.154,-0.172 0.982,-0.385 1.715,-0.861 2.653,-1.495 0.308,-0.147 0.565,-0.191 0.774,-0.191 z m -81.901,1.301 c 0.036,0 0.098,0.026 0.146,0.048 2.891,1.451 6.834,2.36 8.846,3.206 1.056,0.495 2.192,1.228 3.009,1.352 0.337,0.022 0.337,-0.161 0.168,-0.362 -0.216,-0.341 -0.432,-0.664 -0.648,-0.964 4.969,2.305 9.571,4.98 14.438,8.197 -0.015,0.041 -0.037,0.077 -0.044,0.118 -0.14,0.414 -0.279,0.791 -0.418,1.132 -0.077,0.194 -0.161,0.41 -0.238,0.579 -0.062,0.146 -0.132,0.3 -0.194,0.432 -0.114,0.246 -0.231,0.517 -0.338,0.726 -0.139,0.267 -0.293,0.582 -0.41,0.817 -0.037,0.092 -0.077,0.176 -0.117,0.268 -0.077,0.172 -0.161,0.34 -0.213,0.502 -0.04,0.117 -0.069,0.223 -0.102,0.34 -0.015,0.052 -0.037,0.107 -0.044,0.169 -0.033,0.154 -0.041,0.308 -0.055,0.476 -0.008,0.158 -0.008,0.319 0,0.488 0.014,0.179 0.022,0.355 0.055,0.557 0.058,0.483 0.198,0.67 0.359,0.747 0.047,0.022 0.117,0.03 0.172,0.044 0.114,0.026 0.337,0.062 0.407,-0.121 0.055,-0.172 0.139,-0.341 0.216,-0.502 0.077,-0.168 0.147,-0.322 0.242,-0.487 0.176,-0.323 0.385,-0.645 0.601,-0.964 0.044,-0.07 0.091,-0.146 0.146,-0.216 0.392,-0.553 0.825,-1.085 1.224,-1.634 0.041,-0.055 0.063,-0.099 0.103,-0.147 0.161,-0.238 0.308,-0.484 0.454,-0.726 0.055,-0.084 0.114,-0.176 0.169,-0.26 0.139,-0.242 0.278,-0.48 0.385,-0.725 l 3.111,2.312 c -0.517,1.264 -1.18,2.979 -1.374,4.196 -0.363,2.737 -2.045,2.121 -3.302,1.081 0.077,2.821 0.293,4.034 -1.279,6.508 -0.209,0.355 -0.403,0.231 -0.531,0 -3.804,-7.333 -7.476,-5.585 -12.287,-13.397 -0.433,-1.133 -1.25,-2.214 -2.826,-2.8 -5.929,-2.334 -10.165,-3.939 -10.026,-10.752 0.008,-0.121 0.07,-0.238 0.195,-0.238 z m 52.299,24.49 c 0.246,0.014 0.462,0.223 0.553,0.484 1.199,2.7 2.686,7.449 2.199,8.985 -1.759,6.742 -6.508,7.86 -10.92,7.281 -3.309,-0.432 -3.324,-1.209 -3.379,-3.422 0.008,-0.242 0.341,-0.334 0.609,-0.411 3.997,-1.257 6.401,-3.433 6.504,-7.589 0.022,-0.564 0.092,-1.158 -0.194,-1.667 1.117,-0.715 2.151,-1.455 3.162,-2.382 0.03,-0.03 0.07,-0.063 0.092,-0.099 0.308,-0.488 0.656,-0.88 1.136,-1.136 0.084,-0.03 0.161,-0.051 0.238,-0.044 z m -22.221,0.509 c 0.132,-0.04 0.249,0.03 0.388,0.191 0.099,0.11 0.238,0.454 0.553,0.454 0.539,0.682 1.29,1.268 1.998,1.785 -0.217,0.212 -0.349,0.461 -0.433,0.722 -0.223,0.641 -0.183,1.729 0,2.722 0.077,0.587 0.279,1.103 0.579,1.613 1.444,2.246 2.47,3.254 4.097,4.364 0.678,0.411 1.425,0.766 2.29,0.682 0.238,-0.033 0.378,0.128 0.337,0.33 -0.26,3.309 -1.766,3.532 -5.566,3.063 -8.421,-1.682 -9.165,-7.168 -4.606,-15.449 0.102,-0.294 0.242,-0.44 0.363,-0.477 z m 10.923,17.901 c 1.162,-0.025 2.397,0.015 3.61,0.169 0.183,0.036 0.198,0.19 0.146,0.315 -0.172,0.454 -0.681,1.033 -0.941,1.257 -0.162,0.124 -0.411,0.172 -0.627,0.238 -0.909,0.242 -2.327,0.348 -2.576,0.311 -0.224,-0.047 -0.447,-0.131 -0.656,-0.263 -0.791,-0.447 -1.532,-0.964 -2.312,-1.44 -0.169,-0.132 -0.176,-0.334 0.022,-0.363 1.051,-0.103 2.162,-0.194 3.334,-0.224 z"
       id="path13" />
  </g>
  <path
     d="m 209.539,86.999 c -0.048,0 -0.095,0.007 -0.147,0.022 -9.571,3.481 -21.444,10.407 -27.619,19.597 -2.492,2.008 -5.046,3.965 -7.692,5.684 5.501,-7.311 -5.474,-7.794 -18.703,-9.231 -9.092,-0.777 -19.942,2.067 -23.475,4.005 -0.319,0.184 -0.516,0.546 -0.264,0.869 0.986,1.403 1.29,3.056 1.873,4.606 0.081,0.169 -0.084,0.183 -0.213,0.07 -11.51,-10.305 -28.707,-24.204 -34.438,-25.575 -0.272,-0.047 -0.517,0.044 -0.656,0.294 -0.407,0.853 -0.502,1.103 -0.817,1.949 -0.224,0.748 -0.634,1.213 -0.84,1.418 -3.279,3.218 2.467,9.249 3.324,20.279 0.572,4.658 1.697,6.747 2.767,9.949 0.165,0.433 0.271,0.803 0.341,1.232 1.487,5.137 2.458,10.374 4.434,15.134 2.352,7.644 -6.871,6.387 -7.249,12.727 -0.216,4.302 4.834,6.662 3.973,9.81 -0.055,0.197 -0.426,0.414 -0.217,0.67 3.888,4.035 5.391,3.093 6.963,6.439 3.65,6.394 7.615,-0.601 14.222,8.725 4.969,2.305 9.571,4.98 14.438,8.197 0.348,-1.088 0.67,-2.437 0.963,-4.196 0.579,-3.477 0.466,-6.988 -1.733,-11.839 -0.403,-0.708 -0.161,-1.906 0.554,-2.474 0.362,-0.271 0.516,-0.377 0.557,0.183 0.615,6.45 5.899,10.799 2.645,16.901 -0.117,0.223 -0.256,0.407 -0.216,0.769 0.07,0.825 -0.099,1.565 -0.41,2.269 l 3.111,2.312 c 0.205,-0.502 0.392,-0.924 0.509,-1.224 1.385,-7.168 2.474,-18.736 3.514,-20.177 0.096,-0.139 0.209,-0.355 0,-0.509 -1.209,-1.25 -2.568,-3.324 -1.949,-3.95 0.663,-0.502 4.526,1.059 4.504,3.858 -0.162,2.507 -2.606,25.714 -5.662,28.99 -0.147,0.169 -0.092,0.286 0,0.411 1.334,1.879 1.048,2.345 0.579,2.583 -0.425,0.161 -1.312,0.092 -1.711,0.238 -0.07,0.022 -0.14,0.022 -0.195,0.022 0.539,0.682 1.29,1.268 1.998,1.785 0.425,-0.418 1.143,-0.726 2.246,-0.891 4.309,-0.747 8.421,-0.623 11.569,0.865 0.421,0.216 0.685,0.473 0.839,0.748 1.117,-0.715 2.151,-1.455 3.162,-2.382 -0.293,0.216 -0.916,0.007 -1.011,-0.488 -1.726,-9.406 -3.569,-10.857 -4.658,-17.952 -0.439,-2.407 -0.648,-4.929 -0.194,-7.237 0.147,-0.748 0.194,-1.426 0,-2.236 -0.623,-2.319 -0.586,-4.741 -0.066,-7.039 0.352,-0.773 1.257,-1.807 1.902,-2.679 0.535,-0.7 0.912,-1.517 1.206,-2.404 0.3,-0.919 3.283,-5.375 5.83,-6.079 0.216,-0.055 0.245,-0.183 0.271,-0.385 0.022,-0.223 -0.396,-0.231 -0.363,-0.572 0.092,-1.773 11.243,-0.817 17.113,-0.271 2.236,-0.198 4.467,-0.546 6.578,-0.938 0.37,-0.069 0.396,0.059 0.172,0.293 -1.751,1.928 -4.273,2.983 -6.556,3.276 -0.432,0.063 -0.549,0.301 -0.633,0.627 -1.305,6.545 -10.774,9.707 -14.893,8.938 -0.264,-0.048 -0.271,0.139 -0.264,0.271 0.301,3.353 -1.139,3.694 -2.389,13.496 -0.077,0.546 -0.055,1.034 0.029,1.587 0.195,1.59 0.656,3.1 1.012,4.775 5.768,-3.749 12.224,-6.809 18.318,-9.334 1.232,-1.392 2.452,-2.653 3.731,-4.071 0.355,-0.469 1.041,-0.755 1.689,-0.986 4.852,-2.037 9.766,-5.207 13.453,-9.209 0.106,-0.131 0.329,-0.348 0.26,-0.601 -1.125,-5.262 2.345,-6.819 4.529,-10.722 0.33,-0.509 -0.026,-0.641 -0.385,-0.824 -2.4,-1.514 -4.584,-3.602 -6.262,-5.563 -0.396,-0.586 -0.565,-1.327 -0.704,-1.982 -1.737,-8.172 1.858,-8.77 2.507,-13.497 -0.048,-2.352 0.586,-5.119 1.326,-7.563 0.872,-2.848 1.264,-5.16 2.268,-6.75 0.495,-14.237 4.914,-11.023 3.709,-18.612 -0.315,-1.517 -1.118,-4.273 -2.074,-6.167 -0.077,-0.18 -0.194,-0.257 -0.33,-0.264 z m -2.723,2.777 c 0.077,-0.018 0.161,-0.007 0.238,0 0.51,0.037 0.909,0.414 0.964,0.887 0.092,0.924 0.293,1.774 0.477,2.628 -3.291,7.867 -1.378,18.667 -5.684,25.285 -0.216,5.797 -0.942,9.494 -4.386,11.807 -0.14,0.106 -0.294,0.091 -0.458,0 -5.497,-2.687 -10.411,-8.286 -15.208,-12.68 7.464,-4.859 0.704,-9.963 6.024,-15.541 6.193,-6.541 11.646,-7.189 17.308,-12.056 0.238,-0.201 0.483,-0.308 0.725,-0.33 z M 99.802,90.183 c 0.678,0.007 1.459,0.37 2.02,0.913 5.515,2.411 5.02,4.617 9.326,6.779 0.916,0.476 2.484,1.334 3.693,1.609 0.557,1.931 1.466,1.876 3.493,5.331 0.487,0.847 2.268,2.236 2.429,3.394 0.125,0.725 0.11,1.356 0.055,2.052 -0.055,1.964 -0.865,3.84 0.216,4.72 0.887,0.454 0.301,0.901 1.906,1.711 0.81,0.392 1.228,0.795 0.795,1.642 -1.282,2.246 -2.854,4.097 -4.287,6.149 -0.374,0.476 -0.92,0.854 -1.473,1.18 -3.112,1.865 -5.695,4.489 -8.487,6.962 -0.176,0.132 -0.261,0 -0.385,-0.044 -2.675,-1.521 -3.386,-4.174 -3.742,-7.79 -0.923,-9.656 -2.862,-1.305 -6.116,-30.057 -0.439,-1.297 -0.916,-3.609 -0.509,-4.14 0.279,-0.286 0.649,-0.418 1.066,-0.411 z m 62.975,18.726 c -2.478,4.591 -3.735,4.159 -5.23,5.954 -0.11,0.125 -0.223,0.279 -0.34,0.433 -0.107,0.154 -0.224,0.315 -0.33,0.502 -0.118,0.183 -0.202,0.348 -0.249,0.509 0,0.008 0.007,0.015 0,0.022 -0.037,0.154 -0.063,0.326 -0.07,0.462 0.07,1.499 -0.176,2.107 0.216,2.602 0.026,0.036 0.04,0.077 0.048,0.121 0.022,0.047 0.022,0.095 0.029,0.139 0.007,0.103 -0.015,0.201 -0.051,0.271 -0.279,-0.176 -0.711,-0.509 -1.081,-0.839 -0.286,-0.257 -0.524,-0.495 -0.634,-0.704 0,-0.007 0.007,-0.014 0,-0.022 -0.03,-0.069 -0.044,-0.139 -0.044,-0.194 0,-0.154 -0.015,-0.253 -0.026,-0.341 -0.036,-0.344 -0.135,-0.293 -0.216,-0.67 -0.037,-0.191 -0.084,-0.491 -0.099,-1.015 -0.007,-0.257 0,-0.579 0,-0.968 -0.029,-0.245 -0.007,-0.37 0.055,-0.476 0.022,-0.048 0.055,-0.099 0.092,-0.147 0.04,-0.047 0.077,-0.091 0.124,-0.146 2.236,-2.298 5.204,-3.819 7.806,-5.493 z m -17.832,0.557 c 2.342,1.59 4.973,3.715 7.542,5.852 0.055,0.062 0.091,0.124 0.146,0.194 0.147,0.224 0.257,0.487 0.194,0.817 -0.153,0.971 -0.619,1.906 -0.989,2.892 -0.015,0.047 -0.044,0.069 -0.077,0.102 -0.029,0.022 -0.055,0.055 -0.092,0.07 -0.076,0.029 -0.168,0.022 -0.216,-0.026 -0.461,-0.586 -0.963,-1.18 -1.381,-1.781 -0.139,-0.183 -0.286,-0.385 -0.286,-0.63 0.018,-0.194 0.026,-0.389 0.026,-0.55 0,-0.168 -0.008,-0.315 -0.026,-0.462 -0.037,-0.271 -0.121,-0.509 -0.238,-0.696 -0.008,-0.007 0,-0.022 0,-0.022 -0.246,-0.392 -0.671,-0.623 -1.349,-0.802 -0.557,-0.162 -1.04,-0.407 -1.451,-0.693 -0.007,-0.007 -0.015,0 -0.022,0 -0.601,-0.432 -1.033,-1.011 -1.326,-1.711 0,-0.008 -0.022,-0.019 -0.022,-0.026 -0.294,-0.714 -0.426,-1.55 -0.433,-2.528 z m 31.02,22.558 c 0.63,-0.029 1.294,0.048 1.949,0.194 0.649,0.147 1.298,0.371 1.851,0.671 0.172,0.106 0.216,0.315 0.026,0.385 -0.927,0.249 -1.869,0.564 -2.818,0.942 -0.477,0.183 -0.938,0.392 -1.426,0.601 -2.389,1.055 -4.826,2.374 -7.248,3.594 -0.257,0.107 -0.425,0.07 -0.535,-0.077 -0.037,-0.055 -0.066,-0.109 -0.092,-0.194 -0.055,-0.26 -0.044,-0.516 -0.022,-0.769 0.015,-0.25 0.063,-0.502 0.07,-0.774 0.022,-0.37 0.253,-0.392 0.385,-0.579 0.454,-0.175 0.839,-0.329 1.158,-0.476 0.949,-0.44 1.334,-0.747 1.656,-1.033 0.224,-0.194 0.425,-0.37 0.704,-0.587 0.285,-0.208 0.663,-0.447 1.278,-0.74 0.371,-0.168 0.741,-0.322 1.103,-0.487 0.371,-0.154 0.733,-0.308 1.089,-0.433 0.278,-0.146 0.601,-0.23 0.872,-0.238 z m -47.026,0.502 c 0.047,0 0.11,0.015 0.146,0 0.154,0.055 0.279,0.117 0.389,0.169 0.106,0.062 0.183,0.124 0.26,0.194 0.286,0.246 0.403,0.524 1.136,0.872 0.176,0.084 0.407,0.191 0.67,0.286 0.268,0.092 0.587,0.183 0.964,0.293 0.909,0.293 1.558,0.462 2.166,0.693 0.015,0.007 0.015,0.022 0.033,0.022 0.601,0.242 1.18,0.535 1.894,1.04 0.25,0.173 0.51,0.374 0.803,0.605 0.286,0.231 0.612,0.491 0.964,0.792 0.146,0.117 0.278,0.194 0.311,0.41 0.008,0.07 0,0.139 -0.025,0.216 v 0.022 c -0.022,0.077 -0.055,0.147 -0.092,0.224 -0.092,0.161 -0.216,0.3 -0.341,0.41 -0.044,0.029 -0.084,0.055 -0.121,0.07 -0.033,0.007 -0.095,0.007 -0.172,0 -0.231,-0.048 -0.414,-0.077 -0.601,-0.147 -0.169,-0.062 -0.315,-0.139 -0.454,-0.216 -0.147,-0.077 -0.272,-0.147 -0.385,-0.238 -0.117,-0.095 -0.209,-0.194 -0.315,-0.293 -0.216,-0.202 -0.44,-0.411 -0.726,-0.627 -0.132,-0.106 -0.278,-0.209 -0.458,-0.315 -0.176,-0.103 -0.377,-0.209 -0.601,-0.308 -0.231,-0.103 -0.414,-0.125 -0.601,-0.077 -0.062,0.022 -0.132,0.037 -0.19,0.077 -0.25,0.099 -0.48,-0.018 -0.726,-0.077 -0.187,-0.04 -0.396,-0.11 -0.601,-0.187 -0.011,-0.007 -0.018,0 -0.026,0 -1.502,-0.593 -3.371,-2.059 -3.378,-3.811 0,-0.029 0.018,-0.058 0.025,-0.077 0.015,-0.007 0.03,-0.022 0.052,-0.022 z m 3.202,16.776 c 0.4,0 0.818,0.022 1.235,0.044 0.422,0.041 0.854,0.077 1.294,0.147 0.333,0.055 0.656,0.124 0.997,0.194 0.106,0.029 0.216,0.048 0.329,0.077 0.202,0.048 0.404,0.106 0.601,0.169 0.264,0.069 0.517,0.146 0.774,0.241 0.377,0.129 0.74,0.268 1.11,0.429 0.322,0.139 0.649,0.293 0.964,0.458 0.315,0.169 0.634,0.363 0.942,0.554 0.26,0.161 0.516,0.333 0.769,0.509 0.117,0.077 0.231,0.132 0.341,0.216 0.183,0.139 0.37,0.286 0.553,0.432 0.041,0.03 0.077,0.063 0.117,0.099 0.03,0.026 0.07,0.048 0.099,0.07 0.055,0.048 0.118,0.103 0.173,0.147 0.238,0.209 0.476,0.447 0.714,0.67 0.312,0.293 0.605,0.594 0.898,0.92 0.022,0.022 0.044,0.044 0.077,0.07 0.26,0.3 0.506,0.615 0.77,0.938 0.146,0.201 0.3,0.403 0.454,0.604 0.125,0.176 0.238,0.33 0.363,0.51 0.271,0.399 0.516,0.817 0.773,1.257 0.099,0.168 0.176,0.392 0.168,0.575 -0.007,0.062 -0.022,0.11 -0.054,0.172 -0.239,0.51 -0.385,1.026 -0.503,1.613 -0.014,0.084 -0.091,0.154 -0.168,0.168 -0.029,0 -0.077,-0.007 -0.099,-0.022 -0.418,-0.256 -0.803,-0.502 -1.18,-0.773 -0.363,-0.26 -0.704,-0.546 -1.033,-0.825 -0.008,0 -0.026,0.008 -0.026,0 -0.337,-0.278 -0.645,-0.571 -0.964,-0.864 -2.829,-2.613 -4.819,-5.453 -8.63,-6.215 -0.007,-0.008 -0.014,0 -0.022,0 -1.704,-0.341 -3.748,-0.257 -6.409,0.432 -0.887,0.092 -1.869,0.092 -2.869,0.022 -1.004,-0.07 -2.023,-0.209 -2.994,-0.385 -0.469,-0.084 -0.956,-0.187 -1.396,-0.293 -0.007,0 -0.015,0.007 -0.022,0 -0.44,-0.102 -0.85,-0.223 -1.228,-0.333 -0.014,-0.008 -0.022,0 -0.029,0 -0.781,-0.231 -1.411,-0.477 -1.851,-0.7 1.99,0.036 4.178,0.014 6.069,-0.07 1.891,-0.084 3.463,-0.209 4.218,-0.363 0.256,-0.124 0.564,-0.231 0.897,-0.34 0.308,-0.099 0.664,-0.209 1.034,-0.286 0.029,-0.008 0.069,0 0.099,0 0.33,-0.07 0.678,-0.129 1.055,-0.169 0.062,-0.007 0.11,-0.022 0.172,-0.022 0.455,-0.047 0.924,-0.069 1.418,-0.077 z m 42.01,3.232 c -1.682,0.099 -3.525,0.741 -5.614,2.551 -3.162,3.107 -5.823,6.973 -7.86,10.63 -0.238,0.447 -0.315,0.854 -0.216,1.327 2.316,10.656 3.309,15.962 3.741,18.777 l 1.521,-1.257 c -0.913,-2.565 -1.382,-5.669 -1.067,-9.4 1.096,-2.854 1.668,-6.225 2.17,-9.447 1.663,-3.532 1.836,-5.031 3.444,-4.936 1.444,0.077 2.939,0.147 4.291,-0.146 0.525,-0.103 0.957,-0.312 1.426,-0.605 2.276,-1.37 4.218,-3.228 5.878,-5.328 0.201,-0.216 0.322,-0.678 0.216,-0.887 -0.062,-0.161 -0.161,-0.245 -0.363,-0.245 -2.393,0.146 -4.753,-1.199 -7.567,-1.034 z m -0.769,0.26 c 0.447,-0.007 0.908,0.092 1.348,0.272 0.887,0.348 1.535,1.026 1.884,1.828 0.175,0.407 0.274,0.832 0.293,1.279 0.007,0.447 -0.07,0.909 -0.249,1.349 -0.176,0.439 -0.433,0.817 -0.748,1.136 -0.942,0.949 -2.415,1.293 -3.734,0.769 -0.224,-0.091 -0.432,-0.183 -0.623,-0.315 -0.194,-0.125 -0.348,-0.278 -0.509,-0.432 -0.95,-0.942 -1.298,-2.39 -0.774,-3.709 0.07,-0.179 0.147,-0.333 0.242,-0.487 0.015,-0.015 0.037,-0.03 0.052,-0.048 0.04,-0.066 0.069,-0.128 0.117,-0.19 0.091,-0.125 0.194,-0.231 0.293,-0.341 l 0.092,-0.092 c 0.146,-0.146 0.293,-0.293 0.465,-0.41 0.128,-0.099 0.282,-0.169 0.429,-0.246 0.025,-0.007 0.047,-0.007 0.069,-0.022 0.048,-0.014 0.077,-0.055 0.125,-0.069 0.187,-0.077 0.377,-0.132 0.579,-0.169 0.209,-0.048 0.432,-0.095 0.649,-0.103 z m -38.463,0.055 c 0.447,-0.014 0.876,0.063 1.327,0.239 0.212,0.084 0.428,0.187 0.623,0.315 0.194,0.124 0.348,0.271 0.502,0.432 0.168,0.165 0.307,0.319 0.439,0.502 0.246,0.37 0.433,0.781 0.532,1.213 0.139,0.638 0.091,1.334 -0.169,1.997 -0.095,0.224 -0.194,0.407 -0.319,0.601 0,0.008 0.011,0.015 0,0.022 -0.498,0.755 -1.286,1.265 -2.143,1.451 -0.433,0.092 -0.88,0.099 -1.327,0.022 -0.223,-0.036 -0.454,-0.106 -0.67,-0.19 -0.224,-0.095 -0.44,-0.194 -0.631,-0.319 -0.377,-0.245 -0.689,-0.572 -0.942,-0.942 -0.619,-0.909 -0.795,-2.096 -0.355,-3.199 0.084,-0.216 0.209,-0.418 0.333,-0.601 0.114,-0.179 0.224,-0.341 0.36,-0.487 0.033,-0.03 0.069,-0.044 0.102,-0.07 0.147,-0.146 0.286,-0.3 0.455,-0.407 0.139,-0.102 0.285,-0.172 0.432,-0.249 0.007,0 0.015,-0.014 0.022,-0.022 0.139,-0.062 0.293,-0.091 0.44,-0.139 0.139,-0.044 0.286,-0.099 0.432,-0.121 h 0.048 c 0.161,-0.033 0.337,-0.048 0.509,-0.048 z m -10.946,1.682 c 0.085,0 0.176,0.015 0.264,0.03 0.015,0 0.037,-0.008 0.051,0 0.154,0.014 0.308,0.069 0.481,0.139 0.183,0.077 0.377,0.169 0.579,0.293 0.205,0.125 0.421,0.264 0.655,0.433 l 0.066,0.047 c 0.202,0.154 0.404,0.308 0.627,0.484 0.238,0.187 0.462,0.348 0.726,0.557 0.483,0.377 1.018,0.791 1.586,1.202 0.286,0.209 0.579,0.399 0.894,0.601 0.242,0.154 0.488,0.333 0.752,0.487 0.106,0.063 0.223,0.121 0.329,0.183 0.301,0.173 0.62,0.334 0.942,0.488 0.315,0.154 0.649,0.293 0.986,0.432 0.11,0.044 0.209,0.107 0.319,0.147 0.337,0.128 0.692,0.231 1.055,0.337 0.433,0.125 0.872,0.249 1.327,0.341 0.461,0.084 0.934,0.146 1.425,0.183 0.495,0.048 1.012,0.077 1.543,0.077 0.103,0 0.18,0.026 0.242,0.07 0.058,0.04 0.106,0.095 0.121,0.194 0.014,0.832 -0.748,1.125 -1.572,1.18 -0.488,0.007 -0.971,-0.008 -1.466,-0.022 -1.451,-0.041 -2.891,-0.154 -4.343,-0.389 -0.153,-0.014 -0.285,-0.051 -0.432,-0.113 -0.139,-0.063 -0.26,-0.147 -0.407,-0.246 -0.447,-0.304 -0.919,-0.648 -1.396,-1.033 -0.48,-0.389 -0.934,-0.788 -1.374,-1.18 -0.454,-0.403 -0.872,-0.773 -1.235,-1.114 -0.355,-0.33 -0.638,-0.616 -0.839,-0.817 -0.209,-0.184 -0.37,-0.337 -0.509,-0.484 -0.132,-0.139 -0.246,-0.279 -0.341,-0.385 -0.176,-0.216 -0.253,-0.363 -0.352,-0.502 -0.055,-0.069 -0.11,-0.132 -0.172,-0.194 -0.191,-0.202 -0.502,-0.418 -1.202,-0.795 -0.085,-0.037 -0.14,-0.07 -0.147,-0.121 -0.007,-0.033 -0.007,-0.055 0.022,-0.095 0.026,-0.037 0.048,-0.085 0.092,-0.121 0.077,-0.063 0.172,-0.11 0.249,-0.147 0.07,-0.04 0.139,-0.077 0.216,-0.095 0.077,-0.022 0.154,-0.044 0.238,-0.052 z"
     fill="#fdbe11"
     id="path14" />
</svg>
