<?xml version="1.0" encoding="UTF-8"?>
<!DOCTYPE svg PUBLIC "-//W3C//DTD SVG 1.1//EN" "http://www.w3.org/Graphics/SVG/1.1/DTD/svg11.dtd">
<!-- Creator: CorelDRAW 2019 (64-Bit) -->
<svg xmlns="http://www.w3.org/2000/svg" xml:space="preserve" width="187.333mm" height="227.731mm" version="1.1" style="shape-rendering:geometricPrecision; text-rendering:geometricPrecision; image-rendering:optimizeQuality; fill-rule:evenodd; clip-rule:evenodd"
viewBox="0 0 187.1733 227.5379"
 xmlns:xlink="http://www.w3.org/1999/xlink"
 xmlns:xodm="http://www.corel.com/coreldraw/odm/2003">
 <defs>
  <style type="text/css">
   <![CDATA[
    .fil4 {fill:#005CA2}
    .fil2 {fill:#B3013C}
    .fil3 {fill:#DBA23A}
    .fil6 {fill:#FAC200}
    .fil0 {fill:black}
    .fil5 {fill:#BBBBBB}
    .fil1 {fill:white}
   ]]>
  </style>
 </defs>
 <g id="Layer_x0020_1">
  <metadata id="CorelCorpID_0Corel-Layer"/>
  <g id="_852443888">
   <path class="fil0" d="M153.4448 113.3573l0 -3.0757 3.0393 -0.5858 0 3.0386 -3.0393 0.6229zm-116.1033 23.0666l0 0 0 -18.6362 3.1856 -0.6229 0 15.8543 5.0528 -1.0251 0 2.7824 -8.2384 1.6474zm10.216 -2.014l0 0 0 -18.6363 8.5671 -1.7208 0 2.7824 -5.3822 1.0617 0 4.8336 4.1373 -0.8419 0 2.7824 -4.1373 0.8419 0 5.4559 5.7483 -1.1351 0 2.7824 -8.9332 1.7938zm17.9769 -22.2242l0 0 3.1492 -0.6228 -3.8814 19.4059 -3.2219 0.6585 -3.8811 -17.8677 3.1491 -0.6586 2.3066 12.4854 2.3794 -13.4007zm7.8358 10.1782l0 0 2.5628 -0.5125 -1.2451 -7.7623 -1.3177 8.2748zm-1.0252 7.1032l0 0 -3.1123 0.6227 3.4418 -19.3324 3.954 -0.8048 3.4417 17.9768 -3.0756 0.6229 -0.5859 -4.0275 -3.5145 0.6957 -0.5492 4.2466zm9.593 -1.9036l0 0 0 -18.6369 2.9651 -0.5857 3.9184 9.8856 0.037 -10.691 2.8924 -0.5494 0 18.6369 -2.7824 0.5492 -4.101 -10.8381 -0.0371 11.6436 -2.8923 0.5858zm14.7551 -18.783l0 0 -3.0757 0.6221 0 -2.8189 9.3731 -1.8677 0 2.8196 -3.0756 0.5857 0 15.8536 -3.2219 0.6592 0 -15.8536zm8.2018 14.2061l0 0 0 -18.6367 8.5677 -1.7208 0 2.8195 -5.3823 1.0616 0 4.7965 4.1375 -0.8055 0 2.7832 -4.1375 0.8047 0 5.4921 5.7485 -1.135 0 2.7831 -8.9339 1.7572zm17.2085 -22.0413l0 0 3.1856 -0.6592 0 14.0597c0,1.3914 0.5856,1.9407 1.7208,1.7209 1.1349,-0.2198 1.6837,-1.0251 1.6837,-2.38l0 -14.0599 3.2221 -0.6586 0 13.9495c0,1.6114 -0.4395,2.9292 -1.3177,3.9546 -0.8785,1.0251 -2.0507,1.6844 -3.588,1.9768 -1.5382,0.3303 -2.7461,0.11 -3.6252,-0.5492 -0.8782,-0.6585 -1.2812,-1.7938 -1.2812,-3.4047l0 -13.9499zm12.7051 16.1097l0 0 0 -3.0388 3.0387 -0.6226 0 3.0391 -3.0387 0.6223zm9.1167 -4.4669l0 0 1.1349 -0.219 1.7572 -0.916c0.3668,-0.4395 0.5129,-1.1715 0.5129,-2.1234l0 -8.1655c0,-0.9881 -0.1461,-1.6473 -0.5129,-1.9399l-1.7572 -0.2198 -1.1349 0.2198 0 13.3637zm-3.1855 -15.3414l0 0 4.7235 -0.9882c1.6839,-0.3302 2.966,-0.11 3.8079,0.6221 0.8418,0.7684 1.2812,2.0869 1.2812,4.0275l0 7.3594c0,1.9405 -0.4394,3.4416 -1.2812,4.5402 -0.8419,1.0616 -2.124,1.7942 -3.8079,2.1232l-4.7235 0.9159 0 -18.6002z"/>
   <g>
    <path class="fil0" d="M72.9308 10.2883c0,-10.2883 0.0377,-10.2883 10.3252,-10.2883 3.8076,0 7.1765,2.0873 8.9338,5.1986l2.7824 0c1.7942,-3.1113 5.126,-5.1986 8.9702,-5.1986 10.2889,0 10.3252,0 10.3252,10.2883 0,5.4198 -4.1739,9.8488 -9.4824,10.2882 -0.5859,1.648 -0.916,3.4051 -0.916,5.2728 0,8.5311 6.9204,15.4505 15.4513,15.4505 8.5676,0 15.4874,-6.9193 15.4874,-15.4505 0,-5.8211 -3.2218,-10.9107 -7.982,-13.5464l3.625 -7.3239c53.6763,14.9401 75.7189,71.7274 37.529,140.9282 1.9783,2.5992 3.1492,5.8216 3.1492,9.3364 0,8.5313 -6.9573,15.4513 -15.4874,15.4513 -1.1352,0 -2.2702,-0.11 -3.3319,-0.3668 -11.2042,15.3051 -25.3005,31.0125 -42.5825,46.8661 -15.0481,13.8039 -17.2449,13.7669 -32.2202,0.0377 -17.282,-15.8543 -31.4149,-31.598 -42.619,-46.9025 -1.0617,0.2555 -2.1968,0.3661 -3.332,0.3661 -8.5306,0 -15.4505,-6.9198 -15.4505,-15.4508 0,-3.5151 1.1343,-6.737 3.112,-9.3368 -38.2253,-69.2009 -16.1833,-125.9888 37.5293,-140.9273l3.5879 7.3223c-4.7596,2.6373 -7.945,7.7252 -7.945,13.548 0,8.5311 6.9198,15.4505 15.4513,15.4505 8.5307,0 15.4512,-6.9193 15.4512,-15.4505 0,-1.8677 -0.3301,-3.6248 -0.9159,-5.2729 -5.2724,-0.4392 -9.4462,-4.8699 -9.4462,-10.2882l0.0006 -0.0015zm26.1418 173.9911l0 0c2.1967,-0.6228 4.2101,-1.6479 6.0409,-2.9658 -1.5375,1.0987 -3.6244,2.1973 -6.0409,2.9658zm6.0409 -2.9658l0 0 1.6115 -1.3184 -1.6115 1.3184z"/>
   </g>
   <path class="fil1" d="M153.4448 113.3573l3.0393 -0.6229 0 -3.0386 -3.0393 0.5858 0 3.0757zm-116.1033 23.0666l0 0 8.2384 -1.6474 0 -2.7831 -5.0528 1.0252 0 -15.8537 -3.1856 0.6223 0 18.6368zm10.216 -2.014l0 0 8.9332 -1.7938 0 -2.7824 -5.7483 1.1351 0 -5.4559 4.1373 -0.8419 0 -2.7824 -4.1373 0.8419 0 -4.8336 5.3822 -1.0617 0 -2.7824 -8.5671 1.7208 0 18.6363zm17.9769 -22.2242l0 0 -2.3794 13.4007 -2.3066 -12.4854 -3.1491 0.6586 3.8811 17.8677 3.2219 -0.6585 3.8814 -19.4059 -3.1492 0.6228zm6.8106 17.2814l0 0 0.5492 -4.2472 3.5145 -0.6958 0.5859 4.0276 3.0756 -0.6223 -3.4417 -17.9774 -3.954 0.8054 -3.4418 19.3318 3.1123 -0.6221zm9.593 -1.9036l0 0 2.8923 -0.5858 0.0371 -11.6436 4.101 10.8381 2.7824 -0.5492 0 -18.6369 -2.8924 0.5494 -0.037 10.691 -3.9184 -9.8856 -2.9651 0.5857 0 18.6369zm14.7551 -18.783l0 0 0 15.8536 3.2219 -0.6586 0 -15.8542 3.0756 -0.5857 0 -2.819 -9.3731 1.8671 0 2.8189 3.0757 -0.6221zm8.2018 14.2061l0 0 8.9339 -1.7578 0 -2.7825 -5.7485 1.135 0 -5.4921 4.1375 -0.8047 0 -2.7832 -4.1375 0.8055 0 -4.7965 5.3823 -1.0616 0 -2.8195 -8.5677 1.7208 0 18.6367zm17.2085 -22.0413l0 0 0 13.9493c0,1.6109 0.4031,2.7461 1.2812,3.4053 0.8785,0.6586 2.087,0.8783 3.6252,0.5492 1.5374,-0.2925 2.709,-0.9523 3.588,-1.9768 0.8782,-1.026 1.3177,-2.3437 1.3177,-3.9546l0 -13.9501 -3.2221 0.6592 0 14.0594c0,1.3546 -0.5487,2.1601 -1.6837,2.3799 -1.1352,0.2191 -1.7208,-0.3296 -1.7208,-1.7209l0 -14.0591 -3.1856 0.6592zm12.7051 16.1097l0 0 3.0387 -0.6223 0 -3.0391 -3.0387 0.6226 0 3.0388zm5.9313 -19.8083l0 0 0 18.5996 4.7235 -0.9153c1.6839,-0.3301 2.966,-1.0616 3.8079,-2.1238 0.8418,-1.0981 1.2812,-2.5991 1.2812,-4.5396l0 -7.36c0,-1.9406 -0.4394,-3.2584 -1.2812,-4.0275 -0.8419,-0.7321 -2.124,-0.9517 -3.8079,-0.6221l-4.7235 0.9888zm25.6662 -7.7253l0 0c0.6589,7.5426 0.1471,15.7439 -1.7208,24.4579l-132.9819 26.4356c-3.698,-7.7624 -6.4076,-15.268 -8.2383,-22.4446l142.941 -28.4489zm-93.0357 32.8425l0 0 1.3177 -8.2748 1.2451 7.7623 -2.5628 0.5125zm70.555 -9.7758l0 0 0 -13.3637 1.1349 -0.2198 1.7572 0.2198c0.3668,0.292 0.5129,0.9518 0.5129,1.9399l0 8.1655c0,0.9519 -0.1461,1.6839 -0.5129,2.1234l-1.7572 0.916 -1.1349 0.219z"/>
   <path class="fil2" d="M139.0189 167.8388c-7.7617,10.6546 -17.3185,21.6025 -28.7786,32.7333l0 -20.98c3.2225,-3.8083 5.1624,-8.7141 5.1624,-14.1334 0,-5.3824 -1.94,-10.3252 -5.1624,-14.1328l0 -24.2384 28.7786 -5.7489 0 46.5002zm-28.7786 -95.7456l0 0c1.2448,0.4394 2.6363,0.6955 4.0644,0.6955 1.3547,0 2.6362,-0.2925 3.954,-0.6227 1.6109,3.7349 4.9064,6.5543 8.9709,7.4327l11.7893 2.3437 0 10.7639 -28.7786 5.749 0 -26.3622zm-33.2455 128.4418l0 0c-11.5332,-11.1306 -21.0527,-22.0779 -28.8152,-32.7327l0 -28.3762 28.8152 -5.7118 0 17.6849c-3.222,3.8079 -5.1626,8.7143 -5.1626,14.0595 0,5.3823 1.9406,10.2887 5.1626,14.0964l0 20.9799zm-28.8152 -118.5197l0 0c6.8101,-1.3541 11.8263,-2.4165 11.8263,-2.4165 4.0646,-0.8784 7.3593,-3.6978 8.9703,-7.4321 1.3185,0.3296 2.5999,0.6221 3.9546,0.6221 1.4277,0 2.7824,-0.2561 4.0639,-0.6591l0 32.916 -28.8152 5.7118 0 -28.7422z"/>
   <g>
    <path class="fil3" d="M111.119 174.2827c-0.1825,-3.4781 -3.6612,-5.6749 -8.1284,-4.4298 -0.0375,-3.9911 -4.5403,-6.078 -9.1163,-5.1626 -3.991,-4.467 -2.6362,-9.9227 4.7958,-8.7877 4.3205,0.6958 10.838,3.9911 14.4996,10.6913 -0.1828,2.7461 -0.8785,5.3459 -2.0507,7.6889zm-33.7949 2.0141l0 0c1.4649,2.2332 3.4054,4.1372 5.6756,5.6019 7.5792,0.1464 13.6205,-3.8078 16.366,-7.2129 4.7236,-5.8583 0.6592,-9.7394 -5.199,-8.5315 -1.501,4.431 -5.5649,7.2865 -9.0801,5.3095 -1.1351,4.4298 -4.6868,6.334 -7.7625,4.833zm4.9064 -26.7652l0 0c-2.8921,6.3346 -2.4163,12.9249 -0.8781,16.916 0.6955,1.7942 1.538,3.1121 2.4527,4.0274 -1.1345,5.9317 -6.8833,6.9569 -9.1164,0 -0.4031,-1.6109 -0.6223,-3.2583 -0.6223,-5.0162 0,-6.5539 3.222,-12.3756 8.1648,-15.9272l-0.0007 0zm10.2524 -3.588l0 0 0.0019 -0.0006c-2.7826,0.1469 -5.3823,0.8791 -7.7254,2.0875 -3.9911,6.5174 -3.5886,13.8033 -2.014,17.8677 2.7096,7.0303 8.1283,5.4559 9.9955,-0.2197 -3.0775,-3.5146 -3.5169,-8.458 -0.0746,-10.5078 -3.2953,-3.259 -3.1122,-7.3599 -0.1833,-9.2272zm20.6157 17.7573l0 0c-0.3667,-4.1738 -2.0505,-7.9821 -4.6503,-10.9844 -3.0757,-3.3682 -6.8469,-5.3088 -9.19,-5.9311 -7.579,-1.9405 -9.7756,3.7343 -5.0897,7.7618 1.2448,-0.329 2.8195,-0.4019 4.7238,-0.1092 4.2106,0.6585 10.2151,3.5515 14.2062,9.2628zm-7.9822 17.6115l0 0 1.6111 -1.3184 -1.6111 1.3184zm-6.0414 2.966l0 0 0.0007 -0.0006c2.1965,-0.623 4.2472,-1.6481 6.0413,-2.966l1.6109 -1.3185 0.2557 -0.2189c5.492,-5.602 1.6479,-10.3622 -4.2101,-8.3118 -0.3297,1.282 -1.0252,2.6733 -2.2338,4.1745 -2.6726,3.2948 -8.1283,6.9933 -15.0117,7.6525 2.4536,1.135 5.1996,1.7572 8.0918,1.7572 1.9036,0 3.7343,-0.2561 5.4553,-0.7683zm0.0007 -0.0006l0 0c2.4163,-0.7692 4.5033,-1.8679 6.0413,-2.966 -1.7941,1.3179 -3.8447,2.343 -6.0413,2.966z"/>
   </g>
   <path class="fil4" d="M79.1921 149.1291l0 -15.8907 28.815 -5.712 0 21.5664c-3.8448,-3.369 -8.8975,-5.4194 -14.3896,-5.4194 -5.5287,0 -10.5813,2.0504 -14.4254,5.4558zm-33.2462 15.5241l0 0c-5.2724,-7.5792 -9.6659,-14.9748 -13.2538,-22.1514l13.2538 -2.6363 0 24.7876zm62.0612 38.0421l0 0c-1.3185,1.245 -2.6363,2.49 -3.9911,3.7349 -1.0981,0.9883 -8.458,8.4945 -10.2153,8.5673 -1.904,0.0377 -9.483,-7.5791 -10.5811,-8.5673 -1.3547,-1.2449 -2.7097,-2.5263 -4.0275,-3.7713l0 -20.8336c3.8441,3.3683 8.8967,5.4557 14.4254,5.4557 5.492,0 10.5447,-2.0504 14.3896,-5.4192l0 20.8335zm56.1661 -86.3358l0 0c-3.5156,14.8655 -10.9109,31.195 -22.9205,48.3672l0 -43.8268 22.9205 -4.5403zm-141.257 -0.5494l0 0c-2.7462,-11.936 -3.0393,-22.9203 -1.2086,-32.6596 1.7209,-9.1902 6.481,-13.6929 9.8493,-13.6929 1.6473,0 2.9657,1.3172 2.9657,2.9653 0,1.6109 -1.2814,2.9287 -3.0392,2.9287l-2.2333 0 0.11 9.666c-0.0377,0.0376 3.2585,-0.037 6.7,-0.6586 3.4054,-0.6221 6.7735,-1.2813 9.8857,-1.9042l0 28.7786 -23.0296 4.5767zm118.3365 -33.4288l0 0 9.8856 1.9776c2.5263,0.476 4.76,0.6956 6.7372,0.6586l0.1097 -9.666 -2.2338 0c-1.7573,0 -3.0385,-1.3178 -3.0385,-2.9294 0,-1.6474 1.3179,-2.9646 2.9288,-2.9646 3.4057,0 8.165,4.5027 9.8857,13.6929 0.2561,1.3548 0.4393,2.746 0.6228,4.1745l-24.898 4.9427 0.0006 -9.8863zm-62.0606 -11.2769l0 0c1.1715,-0.6586 2.1967,-1.5011 3.0752,-2.4526 3.0757,2.5626 7.0301,4.0637 11.3502,4.1 4.3204,0 8.2753,-1.5374 11.3502,-4.1 0.8782,0.9515 1.9042,1.7934 3.0393,2.4526l0 27.7535 -28.815 5.7483 0 -33.5018z"/>
   <path class="fil5" d="M136.5294 13.2904c28.9254,11.1684 46.4631,37.0903 44.4485,71.9475 -0.4393,-24.2388 -11.6059,-43.352 -30.0223,-54.5551l-1.282 -0.7694c-2.4164,11.8999 -12.1924,21.1278 -24.7878,21.1278 -7.4689,0 -13.9864,-3.1129 -18.4169,-7.9828 3.5516,2.6357 7.9819,4.211 12.7422,4.211 11.8263,0 21.4188,-9.5929 21.4188,-21.4202 0,-4.6866 -1.5376,-9.043 -4.1004,-12.5588zm-86.043 0l0 0c-2.5628,3.5158 -4.064,7.8722 -4.064,12.5588 0,11.8272 9.5924,21.4202 21.4194,21.4202 4.7596,0 9.19,-1.5754 12.7416,-4.211 -4.4306,4.87 -10.9479,7.9828 -18.4169,7.9828 -12.5954,0 -22.3713,-9.228 -24.7877,-21.1278l-1.2813 0.7694c-18.4171,11.2031 -29.6213,30.3163 -30.0606,54.5551 -1.977,-34.8573 15.5612,-60.7791 44.4497,-71.9475z"/>
   <g>
    <path class="fil6" d="M93.6175 70.5185c-4.6496,0 -8.787,-2.0502 -11.643,-5.272 -1.7579,3.1492 -5.126,5.3086 -9.0437,5.3086l-2.5265 -0.3296c0.2192,-0.9528 0.3292,-1.9767 0.3292,-3.0402l-0.2192 -2.4159 2.4529 0.6226c2.8559,0 5.1625,-2.3054 5.1625,-5.1623l0 -3.4778 5.3089 0c0.8426,4.87 5.0898,8.5674 10.1788,8.5674 5.1259,0 9.3363,-3.6975 10.1787,-8.5674l5.3088 0 0 3.4778c0,2.8569 2.3066,5.1623 5.1626,5.1623l2.4164 -0.6226 -0.1826 2.4159c0,1.0635 0.1097,2.0874 0.3289,3.0402l-2.5264 0.3296c-3.8811,0 -7.2859,-2.1594 -9.0438,-5.3086 -2.8188,3.2219 -6.9931,5.272 -11.6427,5.272zm-56.8616 1.9043l0 0 -0.0038 0c0,2.8559 -2.3066,5.1625 -5.2723,5.1625l0.0751 5.199c5.7114,0 10.3616,-4.6496 10.3616,-10.3615 0,-5.7115 -4.6501,-10.3619 -10.3985,-10.3619 -10.2887,0.0364 -14.792,10.4347 -16.5858,20.687 -6.0415,34.4904 12.1188,81.2096 63.7815,128.5881 15.927,14.6457 13.8767,14.6457 29.8039,0 51.6628,-47.3784 69.8232,-94.0977 63.7809,-128.5881 -1.8299,-10.2523 -6.2968,-20.649 -16.5853,-20.687 -5.7482,0 -10.3985,4.6503 -10.3985,10.3619 0,5.7118 4.6502,10.3615 10.3616,10.3615l0.0751 -5.199c-2.9658,0 -5.2723,-2.3066 -5.2723,-5.1625 0,-2.856 2.3065,-5.1996 5.1626,-5.1996 5.1628,0 10.325,6.1513 12.0821,15.5247 6.0787,32.5128 -10.5076,77.9142 -62.2068,125.3297 -12.998,11.8996 -10.2158,12.449 -23.7993,0 -51.699,-47.4155 -68.2854,-92.817 -62.2074,-125.3297 1.7578,-9.3734 6.8834,-15.5247 12.0459,-15.5247 2.893,0 5.1997,2.3436 5.1997,5.1996zm19.475 -15.5605l0 0 1.0987 -0.1106c5.7482,0 10.4349,4.6867 10.4349,10.4351 0,5.0161 -3.5151,9.1905 -8.2017,10.2152l-0.3667 0.0752 -17.3913 3.4417c1.9037,-2.3065 3.0757,-5.2724 3.0757,-8.4943 0,-5.162 -2.9294,-9.629 -7.213,-11.8633l18.5634 -3.6991zm74.7293 0l0 0 18.5999 3.6975c-4.2838,2.2328 -7.2131,6.6998 -7.2131,11.863 0,3.222 1.172,6.1877 3.0757,8.4944l-17.3919 -3.4418 -0.3661 -0.0752c-4.6866,-1.0252 -8.2017,-5.1989 -8.2017,-10.2149 0,-5.7485 4.6503,-10.4351 10.4349,-10.4351l1.0623 0.1122z"/>
   </g>
  </g>
 </g>
</svg>
