<?xml version="1.0" encoding="UTF-8"?>
<!DOCTYPE svg PUBLIC "-//W3C//DTD SVG 1.1//EN" "http://www.w3.org/Graphics/SVG/1.1/DTD/svg11.dtd">
<!-- Creator: CorelDRAW 2019 (64-Bit) -->
<svg xmlns="http://www.w3.org/2000/svg" xml:space="preserve" width="191.892mm" height="150.007mm" version="1.1" style="shape-rendering:geometricPrecision; text-rendering:geometricPrecision; image-rendering:optimizeQuality; fill-rule:evenodd; clip-rule:evenodd"
viewBox="0 0 191.8448 149.9704"
 xmlns:xlink="http://www.w3.org/1999/xlink"
 xmlns:xodm="http://www.corel.com/coreldraw/odm/2003">
 <defs>
  <style type="text/css">
   <![CDATA[
    .fil3 {fill:#1B171B}
    .fil2 {fill:#E22625}
    .fil1 {fill:#F2E304}
    .fil0 {fill:white}
   ]]>
  </style>
 </defs>
 <g id="Layer_x0020_1">
  <metadata id="CorelCorpID_0Corel-Layer"/>
  <g id="_744958768">
   <path class="fil0" d="M148.6545 0l-2.5199 0c-2.9828,0.3534 -4.9228,2.0182 -5.3689,4.3995 -2.369,0.8114 -3.3163,2.1651 -3.9251,3.7893 -1.0166,-1.0832 -3.2496,-3.2483 -7.4454,-3.1137 -2.5715,-1.2178 -5.6167,-0.7435 -6.6998,-0.0667 0,0 -1.895,-0.0679 -3.1129,0.541 -7.4447,-2.5035 -15.43,-3.8573 -23.6866,-3.8573 -8.2565,0 -16.2424,1.3538 -23.6866,3.8573 -1.2185,-0.6089 -3.1133,-0.541 -3.1133,-0.541 -1.0825,-0.6768 -4.0606,-1.1511 -6.6998,0.0667 -4.1961,-0.1346 -6.4293,2.0305 -7.4447,3.1137 -0.5415,-1.5562 -1.5562,-2.9099 -3.9247,-3.7227 -0.4939,-2.6319 -2.7877,-4.3888 -6.3192,-4.4661l-0.4645 0c-2.1902,0.0417 -4.8196,0.7042 -7.7669,2.1652 -3.587,-3.2484 -8.8655,0.2039 -10.5576,4.8724 -2.6392,-0.6754 -6.8351,1.7601 -6.5645,9.6105 -2.707,0.2035 -3.7224,2.978 -2.9782,7.5123 -1.6238,-0.3383 -9.4066,-1.8274 -15.024,5.279 -0.9486,1.2159 -1.3551,2.5456 -1.3518,3.8507 0.0061,2.3264 1.3149,4.5748 3.1789,5.9621 0.1355,0.5418 1.3539,5.279 4.9408,7.1739 0.2031,2.3687 -3.9928,7.4441 -5.5496,10.8282 -4.399,9.4745 -2.2334,25.5139 14.0769,28.2208 -0.677,0.6766 -2.3691,2.9099 -2.9103,4.8049 -0.6765,2.4362 -0.1354,4.7377 1.083,6.768 1.3532,2.2334 6.4292,5.3462 7.647,6.9028 -2.3009,1.3533 -5.0079,4.1961 -3.7899,9.4745l4.6702 20.709c0.7441,3.3841 2.9774,6.2263 6.6998,6.9706 1.8948,0.3383 3.8577,0 5.008,-0.3383 8.1212,-2.098 14.0091,-0.4736 23.0099,2.4363 4.6696,1.489 9.7457,3.181 15.836,4.4665 6.1586,1.3538 13.3327,2.301 22.0628,2.301 8.6625,0 15.8361,-0.9473 22.0623,-2.301 6.0233,-1.2855 11.1664,-2.9775 15.8355,-4.4665 9.0015,-2.9099 14.8893,-4.6019 23.0101,-2.4363 1.1513,0.3383 3.1137,0.7443 5.0084,0.3383 3.6548,-0.7443 5.9558,-3.5865 6.7006,-6.9706l4.67 -20.709c1.2178,-5.2784 -1.4894,-8.1212 -3.7905,-9.4745 1.2858,-1.5566 6.2941,-4.6695 7.6477,-6.9028 1.2859,-1.9627 1.7589,-4.3318 1.0818,-6.768 -0.5408,-1.895 -2.1651,-4.1283 -2.9098,-4.8049 16.3109,-2.7746 18.4761,-18.814 14.0767,-28.2885 -1.6243,-3.3164 -5.7521,-8.4595 -5.5495,-10.8281 3.5867,-1.9627 4.7379,-6.6323 4.9405,-7.174 2.8433,-2.098 4.3996,-6.4292 1.6921,-9.8128 -5.6173,-7.0387 -13.3996,-5.6173 -15.0238,-5.279 0.7435,-4.602 -0.2704,-7.3766 -2.9779,-7.5125 0.2704,-7.8504 -3.9251,-10.286 -6.5645,-9.6092 -1.6922,-4.67 -6.9711,-8.1222 -10.5578,-4.8725 -2.4583,-1.2294 -4.7049,-1.8936 -6.6609,-2.0985z"/>
   <path class="fil1" d="M75.4576 139.1422c-5.7528,-1.2178 -10.6253,-2.8422 -15.0918,-4.2636 -8.7302,-2.8423 -16.3778,-5.1431 -26.4612,-2.8423 -2.0303,0.4737 -2.775,0.4737 -3.2488,-1.5565l-4.1959 -18.6789c-0.4059,-1.7592 0.1353,-2.098 1.8275,-2.5039 12.4524,-2.6392 22.6718,-0.8119 32.958,1.7597 5.4144,1.3538 10.7606,2.9099 16.3779,4.1283 5.6848,1.2184 11.7082,2.1657 18.205,2.1657 6.5645,0 12.5202,-0.8797 18.2046,-2.1657 5.6174,-1.2184 10.9637,-2.7745 16.378,-4.1283 10.2871,-2.6393 20.573,-4.4666 32.9574,-1.7597 1.6921,0.4059 2.1665,0.7447 1.828,2.5039l-4.1955 18.6789c-0.4745,2.0979 -1.1512,2.0979 -3.2485,1.5565 -10.0833,-2.3685 -17.7313,0 -26.4619,2.8423 -4.4665,1.4214 -9.3391,3.0458 -15.0918,4.2636 -5.752,1.2184 -12.3849,2.098 -20.4379,2.098 -7.9181,0 -14.5503,-0.8796 -20.3029,-2.098zm-0.2031 -106.9959l0 0 -0.5413 -0.3384 0.1355 -0.6089c0.3381,-1.6243 0.1351,-3.1133 -2.3688,-3.181l-0.6095 0 -1.8944 -6.0233 0.5413 -0.406c1.7597,-1.2178 1.3532,-2.7745 -1.0155,-3.587l-0.609 -0.2029 0 -0.609c0,-1.0148 0.609,-1.557 1.015,-1.962 0.1359,-0.068 0.2035,-0.2039 0.3388,-0.2718 0.1353,-0.0667 0.203,-0.2026 0.3384,-0.3384 0.203,-0.2026 0.4057,-0.473 0.6089,-0.8794l0.1354 -0.2704 0.2705 -0.136c7.5125,-2.9779 15.7688,-4.5341 24.3637,-4.5341 8.5948,0 16.7837,1.6242 24.3633,4.5341l0.2705 0.136 0.1354 0.2704c0.203,0.3384 0.4063,0.6089 0.6095,0.8794 0.1353,0.1359 0.203,0.2039 0.3382,0.3384 0.1353,0.1359 0.203,0.2039 0.3384,0.2718 0.4058,0.405 1.0148,0.9473 1.0148,1.962l0 0.609 -0.609 0.2029c-2.3685,0.8125 -2.7745,2.3692 -1.0148,3.587l0.5412 0.406 -1.8949 6.0233 -0.609 0c-2.504,0.0677 -2.775,1.5567 -2.3686,3.181l0.1353 0.6089 -0.5417 0.3384c-0.7443,0.4736 -1.4209,2.3009 -1.0151,3.5869l0.6766 1.9627 -1.8949 -0.8802c-5.5491,-2.6392 -11.8431,-4.1959 -18.4753,-4.1959 -6.6321,0 -12.8586,1.489 -18.4757,4.1959l-1.8949 0.8802 0.6765 -1.9627c0.4064,-1.3537 -0.2707,-3.181 -1.015,-3.5869z"/>
   <path class="fil2" d="M165.0603 49.6066c-0.0667,0.0677 -0.1345,0.1354 -0.2026,0.2031 -0.6767,0.7448 -2.0304,1.4214 -3.2482,1.4214l-1.0153 0 0.0679 1.0154c0.4063,4.2637 2.9778,10.0158 5.5492,12.9938 2.6397,3.0453 3.9933,6.294 3.8574,9.2714l-0.0679 0.8119 0.8127 0.0677c5.0083,0.4741 8.4592,-1.8949 9.745,-5.2784 1.8945,-5.1437 -1.8268,-10.6929 -4.3316,-14.483 -3.3149,-4.9402 -2.774,-10.6252 -2.0305,-14.1444l0.136 -0.609 -0.4731 -0.3383c-1.0154,-0.6765 -1.5576,-1.8274 -1.5576,-3.1128 0,-1.4214 0.3385,-2.9781 1.8282,-4.4671 1.4881,-1.4885 3.1803,-1.6915 5.4815,-1.6915 1.1498,0 4.0609,1.2855 4.8725,2.5039l0 0.1355c0,0.0675 -0.0681,0.1352 -0.2706,0.2705 -0.9472,0.5412 -1.4896,1.3537 -1.8945,2.2334 -0.3384,0.7441 -0.541,1.6243 -0.8795,2.4362 -0.5423,1.4215 -1.219,2.4363 -3.5201,2.4363l-0.6767 0 -0.2026 0.6771c-0.3384,1.1502 -0.4744,2.3685 -0.5423,3.5864 -0.1347,3.6547 0.8127,6.1586 2.1665,8.3918 0.4742,0.7448 1.2177,1.8274 1.9626,3.0459 0.7448,1.1501 1.4881,2.5039 2.097,3.79 3.2497,6.9704 1.0832,15.4975 -6.8349,17.9338 -1.2859,0.406 -4.1277,0.8119 -7.1057,0.2707l-0.473 -0.0677 -0.3398 0.406c-0.2025,0.2029 -0.3384,0.4059 -0.541,0.6089 -0.2704,0.2711 -0.6767,0.6095 -1.0818,0.9477l-0.2038 0.1354 -0.0681 0.2706c-0.6768,2.2334 -0.473,4.8049 1.7602,7.377 0.8793,1.015 1.6921,1.8269 2.2331,2.5716 0.6089,0.7443 0.8807,1.218 1.0152,1.6245 0.1361,0.5412 0.0681,1.2178 -2.097,2.7745 -5.4829,3.9253 -7.7159,7.3087 -8.9336,9.6774 -0.5423,1.0831 -0.8808,1.9626 -1.2191,2.5721 -0.2706,0.406 -0.4051,0.4736 -0.6756,0.4736 -1.0831,-0.0676 -2.6394,-0.2029 -3.8586,-0.7447l-0.7434 -0.2706 -0.4063 0.6771c-0.6769,1.1502 -3.5188,1.4209 -4.67,0.6765l-0.4064 -0.2706 -0.4051 0.1353c-2.3009,0.8797 -3.9265,0.7443 -4.8738,0.4737 -0.4731,-0.1353 -0.8114,-0.3383 -1.0154,-0.4737 -0.0666,-0.0676 -0.2026,-0.1353 -0.2026,-0.1353 -4.1277,-0.3382 -4.466,-4.5342 -2.6394,-6.8352 0.4063,-0.4742 1.6241,-2.0302 4.2637,-2.0302 1.7601,0 10.1512,-5.2114 10.1512,-7.986 0,-0.6089 -0.4063,-1.083 -0.7446,-1.3537 -0.3385,-0.3383 -0.8115,-0.609 -1.2859,-0.8795 -0.9473,-0.5414 -2.233,-1.2185 -3.4508,-2.0304 -2.5035,-1.6243 -4.67,-3.7223 -4.67,-6.6999 0,-2.4363 0.6767,-6.6321 7.5797,-6.6321l0.8795 0 0 -0.8802c0,-4.9402 -5.0085,-9.8804 -7.444,-11.7077 -1.0833,-0.8124 -2.3011,-2.1657 -3.1125,-3.9253l-0.136 -0.3383 -0.3382 -0.1352c-2.5717,-0.8802 -4.8059,-3.7901 -6.9711,-7.1064 -1.0826,-1.6916 -2.0302,-3.3836 -2.9777,-4.8727 -0.9471,-1.4889 -1.8272,-2.9098 -2.7745,-3.8576l-0.2705 -0.2706 -0.4066 0c-1.1501,0 -2.5715,-0.406 -3.7893,-0.8797l-0.4742 -0.2029 -0.4061 0.2705c-2.1657,1.4886 -4.6018,0.5414 -4.6695,-0.7447l-0.0677 -0.8119 -0.8119 0c-1.2184,0 -1.7596,-0.7442 -1.8273,-1.8949 -0.0677,-1.2855 0.5412,-2.504 1.1501,-2.8423l0.5418 -0.3383 -0.1357 -0.6094c-0.3384,-1.5562 -0.9474,-6.1581 12.1817,-0.406 0.3383,0.1353 0.7448,0.3383 1.1507,0.5413l1.6921 0.8124 -0.4065 -1.8274c-0.5413,-2.3008 -1.5562,-4.4665 -3.7218,-6.2939l-0.4743 -0.406 -0.5412 0.2706c-0.8797,0.406 -1.489,0.3383 -2.2334,0 -0.4059,-0.203 -0.8794,-0.4735 -1.3537,-0.8795 -0.5412,-0.4065 -1.1502,-0.8125 -1.8268,-1.2862 -1.8274,-1.286 -1.4215,-2.8422 0.9472,-3.6545l0.6091 -0.2032 0 -0.6089c0,-0.4737 -0.1354,-0.8802 -0.4061,-1.2184 -0.1354,-0.1353 -0.203,-0.2706 -0.3381,-0.406 -0.1355,-0.1353 -0.2032,-0.203 -0.3384,-0.3383 -0.1353,-0.0676 -0.203,-0.2031 -0.3382,-0.3389 -0.1354,-0.1346 -0.2032,-0.2026 -0.3389,-0.3371 -0.203,-0.2718 -0.4059,-0.5423 -0.6091,-0.9487 -0.6765,-1.3524 0.8803,-2.9099 2.7747,-2.0972l1.2183 -0.6768c0,0 0.0677,-0.068 0.2031,-0.068 0.2707,-0.1359 0.7443,-0.2025 1.2183,-0.1359 1.1503,0 1.9629,0.4064 2.098,0.6103l1.4885 0c-0.0677,0 -0.0677,0.0666 -0.1353,0.1346 0,0 0.0676,0 0.203,-0.068 0.2036,0 0.4742,0 0.8802,0.1359 0.7442,0.3385 1.8949,1.2178 2.7746,3.451l0.2707 0.7449 0.7447 -0.203c0.6769,-0.2031 1.3537,-0.3381 1.9627,-0.4061 0.4063,-0.068 1.9624,-0.1359 2.3008,-0.2026 0.4064,-0.0679 0.8115,-0.2704 1.082,-0.4743 0.2717,-0.2026 0.4743,-0.4744 0.6767,-0.609 0.0681,-0.0679 0.2039,-0.2025 0.2719,-0.2704 0.0666,-0.068 0.1345,-0.1359 0.2704,-0.2705 0.1346,-0.1359 0.3384,-0.2717 0.4729,-0.3383 0.0681,0 0.5424,-0.136 1.3538,-0.204l1.0153 -0.1346 -0.2705 -0.9473c-0.0678,-0.2718 -0.1359,-0.6103 -0.2025,-0.9487 0,-0.1346 -0.0679,-0.2704 -0.0679,-0.405 0,-0.068 0,-0.068 0,-0.136 0.0679,-0.1359 0.2026,-0.3384 0.8793,-0.541 0.6769,-0.2038 1.4218,-0.3383 1.8947,-0.4743 0.2703,-0.068 0.6089,-0.2026 0.8793,-0.2704 0.2718,-0.136 0.6104,-0.2705 0.8808,-0.473 0.6089,-0.4744 0.9474,-1.2192 0.541,-2.0985 0.2039,0 0.4064,0.0679 0.7446,0.1346 0.6091,0.1359 1.2859,0.2717 1.8269,0.5423 0.2704,0.0679 0.4742,0.2025 0.6102,0.2704 0.0666,0 0.0666,0.068 0.0666,0.068 0,0.068 0,0.1346 -0.0666,0.2704 -0.0679,0.2026 -1.0152,1.8946 -1.0152,1.8946 0,0 1.8266,-0.2025 2.0291,-0.2025 0.2717,0 0.5424,0 0.8808,0.0679 0.473,0.0667 0.8793,0.2026 1.2856,0.2026 0.4051,0.0679 0.8795,0.1346 1.2859,0 0.5409,-0.1359 1.0153,-0.4744 1.1497,-1.1498 0.0681,-0.3384 0.0681,-0.6782 0,-1.0832 0.3384,0.068 0.8128,0.2026 1.2871,0.405 1.4883,0.6782 2.0292,1.5576 1.8267,2.1665 -0.2024,0.4744 -0.8806,0.9473 -0.8806,0.9473l-1.014 0.6768 1.0818 0.8128c0.0681,0.0667 0.136,0.0667 0.2039,0.2026 0.2025,0.2025 0.4065,0.473 0.6089,0.8114 0.6091,1.1511 1.9627,0.7448 2.5036,0.4743 0.5423,-0.3384 1.1511,-0.9473 1.3537,-1.7601 0.6769,0.7448 1.3537,1.9626 1.4217,2.8433 0.0681,0.7439 -0.1359,1.6241 -0.4743,1.8946 -0.1346,0.0677 -0.8114,0.2031 -0.9474,0.2031l-1.2857 0.1353c0,0 0.6768,1.2856 0.7447,1.5568 0.0667,0.2705 0.1347,0.7442 0.1347,1.2854 -0.068,1.4891 1.3537,1.7597 2.0985,1.6244 0.609,-0.0676 1.2178,-0.4059 1.7601,-0.9478 0.0666,0.1359 0.1345,0.2036 0.2026,0.4065 0.4064,0.9473 0.6089,2.2333 0.3384,3.1805 -0.1359,0.5414 -0.9473,1.2861 -1.1498,1.3537 -0.0681,0 -0.136,0 -0.3385,0 -0.136,0 -0.3384,0 -0.4742,-0.0676 -0.2041,0 -0.4065,-0.0677 -0.541,-0.0677 -0.8128,0.0677 -1.0154,0.5413 -0.9475,1.0825 0,0.203 0.0666,0.406 0.0666,0.609 0,0.2035 0,0.4065 -0.0666,0.8125 -0.2038,2.7068 2.0973,2.7068 3.6535,1.8949 0.0679,0.4059 0.1358,0.8796 0.0679,1.4209 0,0.7447 -0.136,1.489 -0.4063,2.0304 -0.2706,0.5417 -0.5411,0.7447 -0.8114,0.8123 -0.609,0.1354 -0.8795,0 -0.9474,-0.0676 -1.1512,-0.6096 -1.4897,-0.2031 -1.6242,0.4736 0,0.1354 -0.068,0.2031 -0.068,0.406 -0.0679,0.1354 -0.1358,0.3382 -0.2026,0.6089 -0.6781,1.3538 -0.0679,2.4369 1.1498,2.7075 0.5411,0.1352 1.2178,0.0677 1.8268,-0.1354 0,0.3382 -0.0666,0.8119 -0.2026,1.2856 -0.4064,1.4214 -1.1512,2.3008 -2.1651,2.1655 0,0 -0.068,0 -0.1359,-0.0675 -0.1347,-0.0677 -0.2026,-0.1354 -0.3384,-0.2031 -0.1347,-0.1353 -0.3385,-0.203 -0.4744,-0.3383 -0.2026,-0.1353 -0.473,-0.203 -0.8114,-0.203 -0.2704,0 -0.8114,0.203 -1.0154,0.8795 -0.0678,0.2707 -0.1346,0.542 -0.1346,0.8125 -0.0679,0.609 -0.0679,1.3532 0.0668,2.098 0.1359,0.7443 0.2717,1.5562 0.6767,2.2334 0.3385,0.6765 1.0153,1.3532 2.0306,1.3532 0.4064,-0.203 0.4742,-0.1354 0.5409,-0.1354zm-121.6813 -41.9587l0 0c-0.3384,0.8114 -0.0677,1.5562 0.609,2.0306 0.2705,0.2025 0.6095,0.3384 0.88,0.473 0.2707,0.1359 0.5412,0.2025 0.8797,0.2704 0.4735,0.1359 1.2183,0.2704 1.8948,0.4744 0.6766,0.2025 0.812,0.405 0.8797,0.5409l0 0.136c0,0.1346 0,0.2704 -0.0677,0.4064 -0.0677,0.337 -0.1354,0.6754 -0.2029,0.9473l-0.2707 0.9474 1.0154 0.1346c0.8119,0.1359 1.2857,0.2038 1.3534,0.2038 0.2028,0.068 0.3382,0.2026 0.474,0.3385 0.0676,0.0666 0.2032,0.1346 0.2705,0.2704 0.0677,0.0679 0.2032,0.2026 0.2708,0.2704 0.203,0.2026 0.4059,0.4064 0.6765,0.609 0.2707,0.2026 0.6089,0.4063 1.083,0.4743 0.3384,0.068 1.8949,0.1346 2.301,0.2026 0.609,0.068 1.2855,0.2026 1.9626,0.4064l0.7442 0.2028 0.2707 -0.7437c0.9476,-2.2344 2.0303,-3.1817 2.7745,-3.4522 0.4065,-0.136 0.6771,-0.2026 0.8801,-0.136 0.0676,0 0.1353,0 0.203,0.068 0,-0.068 -0.0677,-0.068 -0.1354,-0.1346l1.4891 0c0.1354,-0.2039 0.9473,-0.6089 2.098,-0.6089 0.5413,0 0.9473,0.0666 1.2178,0.1346 0.1354,0.0679 0.2031,0.1359 0.2031,0.1359 3.1809,-0.2039 4.6695,1.3524 3.9929,2.706 -0.2029,0.4064 -0.4059,0.6768 -0.609,0.9474 -0.1354,0.1359 -0.2031,0.2717 -0.3383,0.3397 -0.1353,0.1346 -0.203,0.2026 -0.3388,0.3371 -0.1354,0.1359 -0.2704,0.2039 -0.3383,0.3389 -0.1353,0.1354 -0.2706,0.2707 -0.3382,0.406 -0.2031,0.3383 -0.4059,0.7442 -0.4059,1.2184l0 0.609 0.6089 0.2031c2.3685,0.8795 2.7751,2.4362 0.9477,3.6546 -0.6771,0.4736 -1.286,0.8796 -1.8272,1.2856 -0.5414,0.4063 -0.9479,0.6771 -1.3538,0.88 -0.7443,0.406 -1.3532,0.4737 -2.2334,0l-0.5413 -0.2706 -0.4736 0.406c-2.1656,1.8949 -3.1812,3.993 -3.7224,6.294l-0.4059 1.8273 1.6919 -0.8124c0.4061,-0.203 0.7443,-0.3383 1.1504,-0.5413 13.1967,-5.7526 12.52,-1.0825 12.1819,0.406l-0.1355 0.6095 0.5413 0.3382c0.609,0.3383 1.1507,1.5563 1.1507,2.8423 -0.0681,1.1507 -0.5418,1.895 -1.8273,1.895l-0.7448 0 -0.0677 0.8118c-0.1353,1.2862 -2.5039,2.2334 -4.6696,0.7448l-0.4059 -0.2706 -0.4738 0.203c-1.2183,0.4737 -2.6397,0.8796 -3.7899,0.8796l-0.4059 0 -0.2706 0.2706c-0.9479,0.9478 -1.8274,2.3685 -2.7751,3.8577 -0.9473,1.489 -1.895,3.2482 -2.9777,4.8726 -2.1657,3.384 -4.3987,6.2262 -6.9703,7.1064l-0.339 0.1353 -0.1354 0.3382c-0.8119,1.7597 -2.0302,3.1128 -3.1126,3.9253 -2.4364,1.895 -7.4447,6.8352 -7.4447,11.7077l0 0.8802 0.8799 0c6.8352,0 7.5795,4.1959 7.5795,6.6321 0,3.0453 -2.1657,5.0756 -4.6696,6.6999 -1.2855,0.812 -2.5039,1.4885 -3.4512,2.0304 -0.4741,0.2706 -0.9477,0.6089 -1.286,0.8795 -0.3382,0.2706 -0.7443,0.7448 -0.7443,1.3537 0,2.7746 8.3919,7.986 10.151,7.986 2.5723,0 3.8578,1.4885 4.2636,2.0297 1.8274,2.3015 1.4891,6.4975 -1.9625,6.4975l-0.3382 0 -0.3384 0.3383c-0.0677,0.0677 -0.1354,0.0677 -0.2031,0.1353 -0.2029,0.1353 -0.5412,0.3382 -1.0148,0.4736 -0.9479,0.2706 -2.5046,0.406 -4.8731,-0.4736l-0.406 -0.1353 -0.4059 0.2705c-1.1508,0.7443 -3.993,0.5414 -4.6696,-0.6765l-0.4061 -0.6771 -0.7448 0.2706c-1.1501,0.4742 -2.7745,0.6771 -3.8576,0.7448 -0.2705,0 -0.4735,-0.0677 -0.6766,-0.4743 -0.3383,-0.6089 -0.6765,-1.4883 -1.2183,-2.5715 -1.2179,-2.3687 -3.4512,-5.7521 -8.9331,-9.6774 -2.1658,-1.5567 -2.2335,-2.2333 -2.0981,-2.775 0.1354,-0.406 0.4064,-0.8797 1.0156,-1.6239 0.6089,-0.7448 1.3532,-1.5566 2.2331,-2.5722 2.2335,-2.5715 2.504,-5.2108 1.7597,-7.3765l-0.0675 -0.2705 -0.203 -0.1354c-0.4065,-0.3383 -0.7449,-0.6771 -1.0831,-0.9478 -0.203,-0.203 -0.4061,-0.4059 -0.5413,-0.6089l-0.3382 -0.406 -0.4742 0.0677c-2.9776,0.5413 -5.8199,0.1352 -7.1059,-0.2707 -7.9185,-2.1656 -10.0838,-10.7604 -6.8352,-17.6638 0.609,-1.2855 1.3532,-2.5716 2.098,-3.7894 0.7442,-1.2185 1.489,-2.301 1.9627,-3.0459 1.3531,-2.2332 2.3007,-4.7371 2.1657,-8.3918 -0.0677,-1.2179 -0.2032,-2.4362 -0.5414,-3.5864l-0.2036 -0.6771 -0.6765 0c-2.2334,0 -2.9777,-1.0149 -3.5193,-2.4363 -0.3382,-0.8119 -0.5414,-1.692 -0.8797,-2.4362 -0.3382,-0.812 -0.8794,-1.6922 -1.8949,-2.2334 -0.2031,-0.1354 -0.2707,-0.2029 -0.2707,-0.2706 0,-0.0677 0,-0.0677 0,-0.1354 0.812,-1.286 3.7224,-2.5039 4.8726,-2.5039 2.3686,0 3.993,0.2031 5.482,1.6915 1.4214,1.4214 1.8275,2.9781 1.8275,4.4671 0,1.2855 -0.5418,2.4363 -1.5567,3.1128l-0.4735 0.3383 0.1351 0.609c0.7442,3.5869 1.2857,9.2045 -2.0303,14.1446 -2.5039,3.7899 -6.2261,9.339 -4.3311,14.4828 1.2178,3.3835 4.7372,5.7526 9.7451,5.2784l0.8124 -0.0677 0.0675 -0.8794c-0.1351,-2.9782 1.2181,-6.2264 3.8577,-9.2715 2.5718,-2.9782 5.1432,-8.7308 5.5493,-12.9944l0.0677 -1.0149 -1.015 0c-1.2184,0.0677 -2.5716,-0.6765 -3.2486,-1.4214 -0.0678,-0.0677 -0.1355,-0.1353 -0.2032,-0.203l0.2708 0c1.0153,0 1.6242,-0.6765 2.0302,-1.3532 0.3382,-0.6772 0.5418,-1.489 0.6771,-2.2334 0.1352,-0.6094 0.1352,-1.4214 0.0677,-1.9627 0,-0.2711 -0.0677,-0.6095 -0.1354,-0.8123 -0.2036,-0.6766 -0.7448,-0.8797 -1.0155,-0.8797 -0.3382,0 -0.609,0.1354 -0.812,0.2031 -0.1352,0.0676 -0.3382,0.203 -0.4741,0.3383 -0.1354,0.0676 -0.2031,0.1353 -0.3381,0.203 -0.0677,0.0677 -0.1355,0.0677 -0.1355,0.0677 -1.015,0.0677 -1.7598,-0.7443 -2.1656,-2.1657 -0.1355,-0.4737 -0.2031,-0.9472 -0.2031,-1.2855 0.6089,0.203 1.286,0.2706 1.8273,0.1353 1.2185,-0.2706 1.8275,-1.2861 1.1508,-2.7074 -0.1359,-0.2705 -0.2036,-0.4059 -0.2036,-0.6089 -0.0677,-0.1354 -0.0677,-0.2707 -0.0677,-0.406 -0.1354,-0.6765 -0.4736,-1.083 -1.6239,-0.4737 -0.0675,0.0677 -0.3382,0.1354 -0.9477,0.0677 -0.2706,-0.0677 -0.5412,-0.2705 -0.812,-0.8125 -0.2704,-0.5412 -0.4057,-1.2855 -0.4057,-2.0302 0,-0.5414 0,-1.0149 0.0674,-1.4209 1.4887,0.8119 3.8573,0.8119 3.6542,-1.895 0,-0.3383 -0.0677,-0.609 -0.0677,-0.8125 0,-0.203 0,-0.3383 0.0677,-0.6089 0.0677,-0.5413 -0.1351,-1.015 -0.9471,-1.0826 -0.1354,0 -0.3384,0 -0.5415,0.0677 -0.2028,0 -0.3381,0 -0.5418,0 -0.1352,0 -0.2704,0 -0.3381,0 -0.2707,-0.0677 -1.015,-0.8125 -1.1502,-1.3537 -0.2706,-0.9474 -0.0677,-2.2334 0.3382,-3.1805 0.0677,-0.1359 0.1354,-0.2711 0.203,-0.4065 0.4736,0.5418 1.1508,0.8125 1.7597,0.9478 0.7442,0.1354 2.1657,-0.1353 2.098,-1.6243 0,-0.609 0.0677,-1.015 0.1354,-1.2862 0.0677,-0.203 0.7442,-1.5561 0.7442,-1.5561l-1.2855 -0.1354c-0.1354,0 -0.8125,-0.1352 -0.9479,-0.2029 -0.3383,-0.2711 -0.5412,-1.1508 -0.4735,-1.8956 0.0677,-0.8794 0.7443,-2.0972 1.4214,-2.774 0.2029,0.8114 0.8117,1.4204 1.3532,1.6922 0.5418,0.337 1.895,0.7434 2.5039,-0.4744 0.2036,-0.4064 0.4065,-0.6768 0.6095,-0.8114 0.0677,-0.0679 0.1354,-0.1359 0.2032,-0.2039 0,-1.4882 -0.6772,-1.9626 -0.8126,-2.5036 -0.203,-0.6089 0.3389,-1.4895 1.8274,-2.1664 0.4742,-0.2026 0.9478,-0.3384 1.286,-0.4051 -0.0677,0.4051 -0.0677,0.7435 0,1.0819 0.1354,0.6768 0.6091,1.0153 1.1503,1.1512 0.4064,0.0679 0.9477,0.0679 1.286,0 0.4059,-0.068 0.812,-0.136 1.2861,-0.204 0.3384,-0.0666 0.6766,-0.0666 0.8796,-0.0666 0.2031,0 2.0303,0.2026 2.0303,0.2026 0,0 -0.8796,-1.6242 -1.015,-1.8946 -0.068,-0.136 -0.068,-0.2039 -0.068,-0.2705l0.068 0c0.2031,-0.1359 0.406,-0.2039 0.609,-0.2717 0.5414,-0.2026 1.2179,-0.4051 1.8274,-0.541 0.4059,-0.1346 0.6767,-0.2026 0.812,-0.2026z"/>
   <path class="fil3" d="M10.8945 37.8988c0.6089,1.6244 1.0148,2.0979 4.0605,2.0304 0.5413,1.692 0.8797,3.7217 0.8797,4.9402 0.1353,3.8576 -0.8119,6.4968 -2.2334,8.8655 -0.4737,0.7447 -1.2179,1.8274 -1.9626,3.0457 -0.7442,1.1502 -1.489,2.4362 -2.0304,3.6542 -3.1128,6.6321 -0.9473,14.5504 6.3616,16.8512 1.083,0.3385 3.4518,0.6773 6.0232,0.3385 -0.4059,-0.6767 -0.6765,-1.421 -0.8118,-2.1657 -5.3467,0.5417 -9.3397,-1.8944 -10.7606,-5.7521 -1.0831,-2.8427 -0.5417,-5.7526 0.5413,-8.3243 1.0149,-2.5717 2.5715,-4.9407 3.8577,-6.9028 3.1129,-4.6701 2.7068,-10.2193 1.6238,-14.8888 1.0154,-0.5419 2.098,-0.9479 2.098,-2.8427 0,-1.3534 -0.2706,-2.707 -1.5562,-3.8578 -2.7751,-2.6393 -7.1738,-0.9473 -8.7301,0.2036 0.8796,0.6089 1.3531,1.4885 1.6913,2.2334 0.4066,0.8118 0.6096,1.6914 0.948,2.5715zm36.2744 16.7838l0 0c0.5412,0.5414 1.2855,0.8797 2.3009,0.8797 2.3009,0 4.6019,-2.1657 7.0381,-5.9557 1.2186,-1.7597 2.301,-3.7218 3.3165,-5.4138 1.0148,-1.6921 2.0979,-3.3841 3.1805,-4.5343l0.5417 -0.6095c2.0299,0.2706 5.1433,-1.1502 5.1433,-1.1502l0.8118 0.5413c0.6771,0.4736 1.6244,0.609 2.3686,0.5413 0.6095,-0.0677 0.8126,-0.406 0.8803,-0.8795 0.1351,-0.9479 -0.6767,-1.6244 -1.2185,-1.895 -1.0826,-0.5413 -0.2706,-2.098 0.7447,-1.6243 0,0 1.2179,0.4735 2.0303,2.1657 0.8796,0.0675 0.9473,-0.406 1.015,-0.9474 0.1354,-1.0831 -0.5412,-2.9104 -3.3841,-2.9104 -1.1501,0.0677 -1.2855,-1.6915 -0.1354,-1.7592 0,0 1.2184,-0.0676 2.0304,0.2707 0.1353,-0.8125 -0.2031,-1.2185 -0.5413,-1.3539 -1.015,-0.4058 -3.7901,-0.4058 -10.4224,2.504 -1.4889,0.6771 -4.6018,2.5716 -7.647,3.6547 0.6765,0.8119 1.6916,1.2184 2.7068,0.406 1.6245,-1.2855 1.2857,5.4144 -1.2183,5.8203 -0.9474,0.1353 -1.6239,-0.4059 -1.6239,-0.4059 0,0 -0.1357,0.8118 -0.3387,1.2854 -0.5413,1.0831 -0.3384,2.3686 1.4214,2.2334 0,2.098 -1.8275,5.0085 -4.8725,3.9253 -2.1658,-0.7443 -1.2861,-3.993 -3.6548,-3.5865 -0.0677,0 -0.3381,1.1502 -0.2028,2.6392 0.3381,4.399 2.0979,3.3836 2.2331,3.8578 0.3384,1.015 -0.9471,2.0303 -2.5038,2.3009zm1.8949 2.6393l0 0c-0.6771,1.0826 -1.4891,1.9626 -2.098,2.504 -2.5039,1.8273 -7.8506,7.0382 -7.8506,12.4526 -2.9099,0.3383 -4.0605,1.1501 -4.0605,1.1501 -1.0151,0.677 0,2.0303 1.0829,1.489 2.098,-1.0825 5.3462,-0.7442 6.294,-0.6765 4.4665,0.4059 5.143,3.3835 5.143,5.5489 0,2.5045 -1.7596,4.2636 -4.2635,5.8881 -1.2861,0.8125 -2.5041,1.489 -3.4517,2.0302 -0.4738,0.2706 -1.015,0.609 -1.4209,1.0155 -0.3384,0.3383 -1.0832,1.0149 -1.0832,2.098 0,3.5188 9.1368,8.9331 11.0989,8.9331 2.0979,0 3.1134,1.218 3.4517,1.6245 0.5415,0.6765 1.0154,2.1656 0.812,3.3834 -0.1355,0.8125 -0.4736,1.4215 -1.4886,1.5568 0,-1.4891 -0.5417,-3.1134 -1.3537,-4.196 -0.7443,-0.9479 -2.2334,0.1353 -1.489,1.1501 0.6095,0.8125 1.0831,2.0304 0.8802,3.7901 -1.1507,0.6771 -2.5716,0.7448 -4.2637,0.1353 0.2031,-1.4885 -0.4736,-3.3158 -1.2861,-4.4665 -0.7443,-1.0149 -2.2333,0.0677 -1.5565,1.083 0.6093,0.8795 1.0154,1.9626 0.9477,2.9775 -1.5568,1.2185 -3.6548,0.4737 -3.9253,0 -0.3383,-0.7441 -0.7442,-1.5566 -1.1503,-2.4362 -0.4741,-0.9472 -1.0154,-1.9626 -1.8273,-3.0452 -1.6244,-2.2339 -3.9928,-4.7378 -8.0535,-7.58 -0.9479,-0.6765 -1.6921,-1.0831 -0.609,-2.3009 0.4736,-0.5413 0.9472,-1.1507 1.556,-1.7597 2.4364,-2.6393 1.3538,-5.3461 -0.0675,-7.1734 -0.6768,-0.8802 -1.5562,-1.6245 -2.301,-2.301 -0.6765,-0.6095 -1.4208,-1.2183 -1.8949,-1.692 -3.4512,-3.4516 -2.8423,-8.5271 1.4213,-13.3996 2.504,-2.8428 5.6849,-9.4074 5.8204,-14.4153 1.8274,-1.6243 1.6921,-5.4142 2.7068,-5.4142 1.4891,0 0.0677,2.6392 -0.0676,4.0605 -0.5413,4.9402 4.4666,5.279 5.9555,3.587 0.8796,-1.0155 -1.4213,0.2706 -0.4059,-4.4665 0.203,-0.7448 0.5412,-2.301 0.8796,-2.301 2.0304,0 0.8796,2.5716 1.0829,4.5342 0.2032,2.098 1.2181,3.2482 2.504,3.7224 0.6765,1.5561 1.9628,2.7745 4.3313,2.9099zm-22.3334 25.3108l0 0c0.0677,1.8951 -0.6089,3.9253 -2.3686,5.9557 -0.8795,1.0149 -1.6919,1.8269 -2.2333,2.5715 -1.0826,1.3534 -1.1503,1.5562 0.9477,3.113 5.6169,4.0605 7.9179,7.4447 9.2039,10.0162 0.812,1.6921 1.0824,2.6393 1.4215,2.6393 0.6766,-0.0677 1.3533,-0.1354 2.1655,-0.3383 0.4061,-0.0677 0.7443,-0.2029 1.015,-0.3382 -1.286,-2.7746 -3.1804,-6.294 -9.6779,-10.8283 -3.5864,-2.504 -1.8267,-4.1283 0.6771,-6.8351 1.9626,-2.2334 0.609,-4.2636 -1.1507,-5.9557zm29.7775 -54.8177l0 0 -5.7521 0 0 -4.4667c0,0 4.602,0 5.9551,-0.1353 0.3384,-0.0676 0.8802,-0.0676 1.5567,0.0676 0.0677,0 0.3382,0 0.3382,-0.1352 0.1354,-0.8125 0.0677,-2.5717 0.0677,-2.5717 0,0 1.0155,-1.0155 1.0155,-2.775 -1.5567,-0.609 -3.1811,-1.0827 -4.3989,-1.2186 -0.4741,-0.0667 -1.9626,-0.1346 -2.301,-0.2026 -0.6093,-0.068 -1.0154,-0.3384 -1.3536,-0.541 -0.2706,-0.2039 -1.0832,-1.2857 -1.5567,-1.4217 -3.3835,-0.8127 -7.106,-0.4063 -7.9858,-0.2704 -1.1504,0.2704 -1.4211,1.2857 -1.4211,1.2857 -0.6093,0 -2.0301,0 -2.5716,0.1346 -0.6771,0.136 -0.9476,0.204 -0.9476,0.6103 0,0.8117 1.9625,2.0302 1.9625,2.0302 0,0 -0.406,2.3685 -1.1503,4.3988 -0.1357,0.4737 -0.1357,0.8119 0.2031,1.6916 0.5413,1.2183 1.827,1.8948 3.5865,2.1657 1.286,0.2035 2.9105,2.2332 3.7222,2.572 0.4738,0.2031 3.5871,0.1354 4.7374,0.1354 2.3684,-0.0677 4.8052,-0.2706 5.6171,-0.4742 0.3384,0 0.5415,-0.5413 0.6766,-0.8795zm-4.9401 2.9775l0 0c1.2179,0.9479 1.3536,2.3015 1.4213,3.3841 0.0677,1.6243 0.7443,2.4363 1.015,2.8422 0.5413,0.7448 2.0304,2.3009 3.3164,1.6243 0.6089,-0.3383 0,2.0304 -0.5418,2.2334 -0.7442,0.203 -2.2334,-0.8797 -2.5039,-1.1502 -0.2031,1.0825 -0.4737,2.0303 -0.8119,2.7069 -0.7448,1.4889 -0.6771,3.79 0.9471,4.2637 -0.3382,0.9472 -1.7597,1.5566 -2.5039,0.9472 -0.3382,-0.2706 -0.6089,-1.2179 -0.8794,-1.7592 -1.0832,-2.1657 -2.8428,-2.0979 -4.6026,-1.5567 -0.2031,0.0677 -0.7443,2.1657 -0.5413,4.1959 0.2705,2.504 0.7448,3.7901 1.6245,4.1961 0.7442,0.3383 -3.5871,1.2178 -3.5871,-2.1656 0,-0.406 0.1353,-2.4363 0.1353,-2.9105 0,-1.1502 -0.406,-3.1128 -2.9099,-3.1128 -0.4737,0 -1.2183,0.2706 -1.7598,1.1501 -0.3382,0.6096 -0.744,2.0981 -0.8117,2.5045 -0.4061,1.8268 -0.4738,3.5188 0,4.0606 0.3382,0.3383 -2.8428,0.2706 -2.2334,-2.6398 0.0677,-0.2706 0.5412,-1.8949 0.6089,-2.3686 0.1355,-0.4059 0.2708,-1.1502 0.0677,-1.8274 -0.2706,-1.0149 -1.1503,-1.6915 -2.2334,-1.6915 -0.7442,0 -1.6242,0.406 -2.1657,1.6915 -0.203,0.406 -0.8118,3.7224 -1.6919,4.196 -1.0826,0.677 -3.2483,-0.3383 -2.4363,-0.5413 0.4737,-0.1354 0.9478,-0.6089 1.2185,-1.0825 0.4736,-0.8125 0.6089,-1.6243 0.7441,-2.4368 0.203,-1.2856 0.1353,-2.5716 -0.0677,-3.1805 -0.4059,-1.1507 -0.9472,-1.489 -1.8273,-1.489 -0.5413,0 -1.1502,0.4737 -1.5568,0.6766 -1.2178,0.4742 -2.0301,-2.1657 -1.4209,-1.8945 0.812,0.4059 3.2483,-0.2711 2.91,-2.7074 -0.1355,-1.0825 -0.609,-1.2855 -0.9472,-3.4512 -0.0677,-0.4059 -1.3537,0.8796 -2.775,0.7443 -0.7443,-0.0677 -1.1503,-2.7746 -0.7443,-2.5716 1.5565,0.8119 3.8576,-0.1354 3.7222,-2.2334 -0.1352,-1.895 -0.1352,-3.0457 -0.0677,-3.79 0,-0.2706 -0.7445,0 -2.098,0.0677 -0.8799,0 -1.2183,-0.2707 -1.4213,-0.812 -0.203,-0.5419 0,-2.4362 0.2706,-2.1656 0.8802,0.8796 2.3686,0.6765 2.9781,0.2706 0.9471,-0.5413 1.2856,-0.9478 1.2856,-2.098 0,-1.2183 0.0676,-1.895 0.8124,-3.3164 -1.8275,-0.1353 -2.2339,-0.0676 -2.572,-0.609 -0.6768,-1.0834 0.474,-3.1126 0.6094,-2.5718 0.1352,0.8794 1.8949,1.3538 2.5039,1.3538 2.1658,-0.068 1.5567,-1.8268 4.0606,-3.3164 -1.4891,-0.9473 -2.0303,-1.6241 -2.098,-2.0305 -0.0678,-0.473 1.6921,-1.7588 1.624,-1.2857 -0.0678,0.7447 0.677,1.7601 1.9625,1.8946 1.083,0.1359 2.0303,-0.2705 3.587,-0.3385 1.083,-0.0666 2.8422,0.068 2.8422,0.068 0,0 -1.2856,-1.8946 -1.0149,-2.3689 0.203,-0.2705 1.6919,-0.7435 1.4891,-0.2705 -0.1355,0.4744 0.3381,1.3537 1.2177,1.8281 1.0154,0.541 1.8273,0.8114 3.2487,1.0819 0.6765,0.1359 0.6765,0.2704 0.5415,0.6768 -0.0677,0.2039 -0.1354,0.4743 -0.2031,0.7447 -3.0459,-0.2025 -7.1736,-0.1359 -7.58,1.4896 -1.4209,0 -2.9776,0.2704 -3.4512,0.6755 -1.1507,1.0153 -1.286,2.6399 1.0148,4.3995 -0.6765,3.1129 -1.6919,3.6547 -0.6765,6.0234 0.8796,2.0302 2.9776,2.7745 4.8049,3.1127 0.8123,0.203 1.6921,1.5566 3.3163,2.4363 0.8119,0.4065 3.9931,0.3388 6.8353,0.203zm7.5794 1.6244l0 0c-1.3531,0.6771 -2.8422,1.4214 -4.3989,1.9626 -0.1354,-0.9473 -0.2031,-2.5717 -1.015,-3.8577 1.0826,-0.0677 1.9628,-0.203 2.4363,-0.2706 1.6245,-0.3382 2.6393,-3.5187 2.0303,-4.1284l-5.8202 0 0 -1.2855c1.0154,0 3.1133,0.0677 4.5342,-0.1354 0.4064,0 1.1506,0.0677 1.5567,0.1354 1.9626,0.2706 1.8274,-2.1656 1.8274,-3.8576 0.9472,-1.1508 1.286,-2.7745 0.9472,-4.3996 -0.6089,-0.2026 -1.218,-0.4731 -1.8946,-0.6768 0.8797,-1.9613 1.8946,-3.0446 2.7746,-2.9766 -0.2705,0.541 -0.4058,1.0819 -0.4058,1.0819 -0.2031,1.2191 1.6238,1.5561 1.8272,0.3383 0.1355,-0.4729 0.4737,-1.2857 0.8797,-1.8267 0.4736,-0.3384 1.9626,-0.4743 2.0303,-0.068 -0.6765,0.7448 -1.1506,1.8281 -1.1506,1.8281 -0.5415,1.1498 1.2183,1.8946 1.6919,0.7435 0.2707,-0.541 0.8802,-1.6922 1.6244,-1.8947 0,0 1.6919,-0.2704 1.8949,0.541 0.2031,0.6768 -1.0155,1.6242 -1.1507,1.7601 -0.6089,0.541 -1.3532,1.2178 -1.3532,2.8427l0 1.0149 1.2855 0.4735c1.4891,0.542 2.0304,1.2185 0.6771,2.098 -0.7448,0.406 -1.3537,0.8802 -1.895,1.2862 -0.5418,0.4059 -0.9477,0.6089 -1.2861,0.8119 -0.5412,0.2706 -0.8117,0.2706 -1.4213,0l-1.0826 -0.5414 -0.8801 0.812c-2.8421,2.4368 -3.8571,5.279 -4.2636,8.1889zm73.5643 0l0 0c1.3535,0.6771 2.7751,1.4891 4.3994,2.098 0.0666,-0.9473 0.2026,-2.5717 1.014,-3.8577 -1.082,-0.0677 -1.9613,-0.2031 -2.4357,-0.2707 -1.6242,-0.2706 -2.6394,-3.4512 -2.0305,-4.1282l5.8199 0 0 -1.2855c-1.014,0 -3.1124,0 -4.5342,-0.1355 -0.4049,-0.0677 -1.1497,0.0677 -1.5561,0.1355 -1.8952,0.2705 -1.8276,-2.1657 -1.8276,-3.8577 -0.9472,-1.1508 -1.2178,-2.8422 -0.9472,-4.3991 0.6089,-0.2704 1.2183,-0.473 1.8948,-0.6768 -0.8799,-1.9626 -1.8948,-3.0459 -2.7744,-2.9779 0.2705,0.541 0.4059,1.0832 0.4059,1.0832 0.2031,1.2178 -1.6242,1.5562 -1.8273,0.3384 -0.0677,-0.4743 -0.4061,-1.2858 -0.8801,-1.8281 -0.4737,-0.3384 -2.0298,-0.473 -2.0298,-0.0666 0.6765,0.7434 1.1501,1.8267 1.1501,1.8267 0.4737,1.1498 -1.2183,1.8281 -1.6919,0.7448 -0.2031,-0.5423 -0.8119,-1.6921 -1.6239,-1.8946 0,0 -1.692,-0.2718 -1.8949,0.541 -0.2032,0.6768 1.0824,1.6921 1.1502,1.7587 0.6765,0.5423 1.3537,1.2867 1.3537,2.8433l0 1.0149 -1.2862 0.4737c-1.4889,0.4742 -2.0303,1.1508 -0.6765,2.098 0.6765,0.4742 1.2856,0.9478 1.895,1.286 0.5412,0.406 0.9473,0.6767 1.2855,0.812 0.542,0.2705 0.8124,0.2705 1.4214,0l1.0831 -0.5413 0.8797 0.8118c2.8421,2.3016 3.8576,5.1438 4.2636,8.0537zm7.5119 -1.6244l0 0c2.8432,0.1359 6.0903,0.1359 6.9709,0 1.6241,-0.8795 2.5036,-2.3009 3.3163,-2.4363 1.8947,-0.3382 3.9251,-1.0825 4.8046,-3.1128 1.0153,-2.3685 -0.0681,-2.8422 -0.6769,-6.0232 2.2331,-1.7597 2.1665,-3.4514 1.0153,-4.3987 -0.4742,-0.4064 -2.0304,-0.6768 -3.4508,-0.6768 -0.4064,-1.6242 -4.5341,-1.6922 -7.5799,-1.4896 -0.0679,-0.2704 -0.136,-0.5409 -0.2038,-0.7434 -0.1347,-0.4064 -0.1347,-0.5424 0.5423,-0.6769 1.4203,-0.2704 2.233,-0.5423 3.2482,-1.0831 0.8795,-0.473 1.3537,-1.3538 1.2179,-1.8268 -0.1346,-0.5423 1.3536,0 1.4882,0.2705 0.2718,0.473 -1.014,2.3689 -1.014,2.3689 0,0 1.7588,-0.1359 2.8419,-0.0679 1.5562,0.0679 2.5035,0.4729 3.5868,0.3383 1.3537,-0.1359 2.0305,-1.1511 1.9626,-1.8959 -0.0681,-0.473 1.692,0.7448 1.6241,1.2871 -0.0679,0.4051 -0.6767,1.0819 -2.0971,2.0292 2.5034,1.4896 1.8945,3.2484 4.0596,3.3163 0.609,0.068 2.3011,-0.4064 2.5049,-1.3537 0.1347,-0.541 1.2844,1.5575 0.6089,2.5723 -0.4063,0.5413 -0.7447,0.4736 -2.5714,0.609 0.6754,1.4214 0.8114,2.0979 0.8114,3.3164 0,1.1501 0.4063,1.5566 1.2858,2.0979 0.6089,0.406 2.0305,0.609 2.9779,-0.2706 0.2704,-0.2706 0.4729,1.6244 0.2704,2.1656 -0.2026,0.5414 -0.5409,0.812 -1.4204,0.812 -1.3538,-0.0677 -2.0985,-0.3383 -2.0985,-0.0677 0,0.6765 0.068,1.8274 -0.0679,3.7901 -0.1347,2.098 2.1664,3.0452 3.7227,2.2332 0.4063,-0.2029 0,2.504 -0.7449,2.5717 -1.4216,0.1354 -2.7074,-1.0826 -2.774,-0.7443 -0.3384,2.1657 -0.8126,2.4363 -0.9486,3.4512 -0.3385,2.4369 2.0305,3.0459 2.9112,2.7075 0.609,-0.2706 -0.2038,2.3685 -1.4216,1.8949 -0.4064,-0.1353 -1.0153,-0.6771 -1.5576,-0.6771 -0.8794,0 -1.4883,0.3383 -1.8268,1.489 -0.1358,0.6089 -0.2704,1.895 -0.0679,3.1805 0.136,0.8125 0.3385,1.6244 0.7449,2.4368 0.2703,0.4736 0.7447,0.9473 1.2177,1.0825 0.8127,0.2031 -1.3524,1.1508 -2.4355,0.5414 -0.8795,-0.4737 -1.4896,-3.7219 -1.6922,-4.196 -0.5411,-1.2856 -1.4217,-1.6916 -2.1665,-1.6916 -1.0819,0 -1.9625,0.6766 -2.2332,1.6916 -0.1345,0.6771 0,1.4214 0.0681,1.8273 0.0679,0.406 0.5423,2.0981 0.6089,2.3687 0.6102,2.9104 -2.5715,2.978 -2.2332,2.6397 0.4744,-0.5418 0.4065,-2.2332 0,-4.0605 -0.1345,-0.4742 -0.4743,-1.9627 -0.8114,-2.504 -0.5422,-0.8802 -1.2857,-1.1507 -1.7601,-1.1507 -2.5715,0 -2.9098,1.9627 -2.9098,3.1128 0,0.4742 0.1345,2.5045 0.1345,2.9104 0,3.3836 -4.3302,2.504 -3.5866,2.1657 0.8126,-0.3383 1.3537,-1.692 1.624,-4.196 0.2039,-2.0979 -0.405,-4.1283 -0.5408,-4.1959 -1.7602,-0.5414 -3.5188,-0.6091 -4.6021,1.5566 -0.2704,0.5414 -0.5411,1.4885 -0.8795,1.7592 -0.7447,0.6096 -2.1665,0 -2.5048,-0.9472 1.5575,-0.609 1.6254,-2.91 0.8806,-4.399 -0.3384,-0.6765 -0.6101,-1.6243 -0.8126,-2.7068 -0.2704,0.2705 -1.7601,1.4209 -2.5036,1.1502 -0.5409,-0.2031 -1.1512,-2.5717 -0.5409,-2.2334 1.2178,0.6766 2.774,-0.8795 3.3148,-1.6243 0.2706,-0.4059 0.9487,-1.2856 1.0155,-2.8422 0.0679,-1.0825 0.1358,-2.5039 1.3537,-3.4518zm-4.9406 -2.9775l0 0 5.7533 0 0 -4.4667c0,0 -4.6021,0 -5.9557,-0.1353 -0.3385,0 -0.8793,-0.0676 -1.5576,0.0676 -0.1345,0.0677 -0.3376,0 -0.3376,-0.1352 -0.1353,-0.8125 -0.0676,-2.5717 -0.0676,-2.5717 0,0 -1.0151,-1.0155 -1.0151,-2.775 1.5562,-0.609 3.1803,-1.0827 4.3995,-1.2186 0.4051,0 1.9626,-0.1346 2.3009,-0.2026 0.541,-0.068 1.014,-0.2705 1.3524,-0.541 0.2719,-0.2039 1.1512,-1.3537 1.5576,-1.4217 3.3829,-0.7448 7.1055,-0.4063 7.9849,-0.2026 1.1512,0.2026 1.4216,1.2858 1.4216,1.2858 0.609,0 1.9626,0 2.5715,0.1346 0.677,0.136 0.9474,0.136 0.9474,0.6103 0.0681,0.7437 -1.9626,2.0299 -1.9626,2.0299 0,0 0.4064,2.3685 1.1512,4.3988 0.2026,0.406 0.2026,0.8119 -0.2038,1.6914 -0.5411,1.2185 -1.8268,1.8951 -3.5868,2.1657 -1.2858,0.2037 -2.9099,2.2334 -3.7226,2.5722 -0.4732,0.2031 -3.5188,0.2031 -4.7367,0.1354 -2.3689,-0.1354 -4.8044,-0.2707 -5.6172,-0.4742 -0.2705,-0.0677 -0.541,-0.609 -0.6769,-0.9472zm29.8453 54.8177l0 0c-1.7601,1.7598 -3.1123,3.7901 -1.1498,5.8881 2.5036,2.7068 4.2637,4.3313 0.6768,6.8352 -6.5646,4.5342 -8.3926,8.1212 -9.6783,10.8282 0.2703,0.1354 0.6089,0.2031 1.0152,0.3382 0.8128,0.2032 1.5563,0.2706 2.1665,0.3383 0.3372,0 0.5411,-0.9472 1.4203,-2.6392 1.2859,-2.5039 3.5869,-5.9557 9.2042,-10.0163 2.0985,-1.4891 1.9627,-1.7597 0.9473,-3.1128 -0.6089,-0.7448 -1.3537,-1.5568 -2.233,-2.5717 -1.7601,-1.9627 -2.437,-3.9929 -2.369,-5.8881zm-22.3332 -25.3108l0 0c0.6767,1.0826 1.4895,1.8949 2.2343,2.4363 2.4356,1.8949 7.7826,7.0382 7.8491,12.4526 2.9112,0.2705 4.0612,1.1502 4.0612,1.1502 1.0152,0.7446 0,2.0979 -1.082,1.4889 -2.0984,-1.0825 -5.3468,-0.7443 -6.2942,-0.6765 -4.4674,0.4059 -5.1441,3.3834 -5.1441,5.549 0,2.5045 1.7601,4.3311 4.2636,5.888 1.2857,0.8124 2.5049,1.489 3.4522,2.0302 0.4731,0.2708 1.0154,0.6091 1.4217,1.0155 0.3383,0.3384 1.0818,1.015 1.0818,2.0981 0,3.5864 -9.136,8.933 -11.0987,8.933 -2.1652,0 -3.1123,1.218 -3.4521,1.6245 -0.5411,0.6765 -1.0141,2.1656 -0.8115,3.3834 0.1359,0.7443 0.4743,1.4215 1.4895,1.5568 0,-1.4891 0.4731,-3.1134 1.3524,-4.196 0.7448,-1.0155 2.2331,0.1353 1.4897,1.1502 -0.609,0.7447 -1.0833,2.0303 -0.8796,3.79 1.1499,0.6771 2.5717,0.7448 4.2637,0.1353 -0.2038,-1.4209 0.473,-3.3158 1.2859,-4.4665 0.6767,-1.015 2.233,0.0677 1.5562,1.083 -0.609,0.812 -1.0155,1.9626 -0.9474,2.9777 1.4882,1.2183 3.6546,0.4735 3.9252,0 0.4063,-0.7443 0.7447,-1.5568 1.1498,-2.4364 0.4742,-0.9478 1.0831,-1.9626 1.8279,-3.0458 1.6242,-2.2333 3.9933,-4.7372 8.0529,-7.5794 0.9474,-0.6765 1.6922,-1.0831 0.6089,-2.3009 -0.4729,-0.5413 -1.0152,-1.083 -1.5561,-1.7597 -2.4356,-2.6393 -1.3538,-5.4143 0.068,-7.1734 0.6767,-0.8802 1.5562,-1.692 2.3009,-2.301 0.6769,-0.6095 1.4218,-1.1506 1.8946,-1.692 3.4523,-3.3839 2.8421,-8.4594 -1.4216,-13.3996 -2.5036,-2.8428 -5.6839,-9.4074 -5.8199,-14.4151 -1.8267,-1.5568 -1.6922,-5.4144 -2.7074,-5.4144 -1.4204,0 -0.0679,2.6392 0.0681,4.0605 0.5423,4.9402 -4.4661,5.279 -5.9558,3.587 -0.8793,-1.0155 1.4217,0.2031 0.4064,-4.4665 -0.1345,-0.7448 -0.5409,-2.301 -0.8793,-2.301 -2.0307,0 -0.8808,2.5716 -1.0833,4.5344 -0.2026,2.0979 -1.2856,3.248 -2.5034,3.7217 -0.8129,1.692 -2.0986,2.9104 -4.4675,2.9781zm1.896 -2.6393l0 0c-0.5425,0.4737 -1.2858,0.812 -2.437,0.8797 -2.2332,0 -4.5341,-2.2334 -7.0389,-5.9557 -1.2178,-1.8273 -2.3005,-3.7218 -3.3155,-5.4138 -1.0154,-1.6921 -2.098,-3.3841 -3.181,-4.5343l-0.5412 -0.6095c-2.0304,0.2706 -5.1438,-1.1502 -5.1438,-1.1502l-0.812 0.5413c-0.6764,0.4736 -1.6242,0.6766 -2.3685,0.5413 -0.6089,-0.1353 -0.8119,-0.4736 -0.8797,-0.8795 -0.1357,-0.9479 0.6767,-1.6244 1.2181,-1.895 1.083,-0.5413 0.3381,-2.1657 -0.7443,-1.6243 0,0 -1.2183,0.5412 -2.0303,2.1657 -0.8801,0.0675 -0.9478,-0.406 -1.0155,-0.9474 -0.0677,-1.0155 0.5418,-2.9104 3.384,-2.9104 1.2179,0.0677 1.2856,-1.6915 0.1354,-1.7592 0,0 -1.2184,-0.0676 -2.0303,0.2707 -0.1354,-0.8125 0.2031,-1.2185 0.5412,-1.3539 1.0156,-0.4058 3.79,-0.4058 10.4224,2.504 1.489,0.6096 4.6689,2.5039 7.6481,3.6547 -0.6781,0.7442 -1.6921,1.2184 -2.7073,0.406 -1.6245,-1.2855 -1.2863,5.482 1.2178,5.8203 0.8793,0.1353 1.624,-0.4059 1.624,-0.4059 0,0 0.1361,0.8118 0.3386,1.2854 0.5409,1.0155 0.3384,2.301 -1.4217,2.2334 0,2.098 1.828,5.0085 4.8738,3.9253 2.1651,-0.7443 1.2857,-3.993 3.6532,-3.5865 0.068,0 0.3386,1.1502 0.204,2.6392 -0.4064,4.399 -2.1665,3.3836 -2.2344,3.8578 -0.2025,1.0826 1.0831,2.0303 2.6409,2.3009zm36.2739 -16.7838l0 0c-0.6769,1.6244 -1.0833,2.0979 -4.1277,2.0979 -0.5424,1.6922 -0.8129,3.6542 -0.8808,4.9404 -0.2026,3.8577 0.8127,6.4968 2.233,8.8655 0.4745,0.7446 1.2193,1.8272 1.9626,3.0457 0.6769,1.1502 1.4218,2.4362 2.0307,3.6541 3.0457,6.6322 0.9473,14.5505 -6.3609,16.8513 -1.083,0.3383 -3.4521,0.6771 -6.0235,0.3383 0.3383,-0.6765 0.6089,-1.4209 0.8127,-2.1656 5.4134,0.6095 9.3385,-1.8943 10.7604,-5.752 1.0152,-2.8427 0.4729,-5.7526 -0.5424,-8.3243 -1.0153,-2.5717 -2.5715,-4.9402 -3.8573,-6.9029 -3.1124,-4.7376 -2.7074,-10.2192 -1.6241,-14.8888 -1.0153,-0.5418 -2.0973,-0.9478 -2.0973,-2.8428 0,-1.3532 0.3372,-2.7068 1.5562,-3.8576 2.774,-2.6393 7.1736,-0.9473 8.7299,0.2036 -0.8795,0.6089 -1.3537,1.4883 -1.6922,2.2332 -0.3384,0.812 -0.541,1.6916 -0.8793,2.504zm-85.0691 103.3413l0 0c7.9853,0 14.5505,-0.8796 20.2349,-2.098 5.7527,-1.2178 10.5576,-2.8422 15.0242,-4.2636 8.7302,-2.8423 16.6483,-5.2785 26.9357,-2.8423 1.8267,0.4737 1.8267,0.4737 2.1652,-0.8795l4.1955 -18.6788c0.2719,-1.0831 0.2719,-1.0831 -1.1498,-1.4214 -12.2497,-2.6393 -22.3333,-0.8119 -32.5526,1.7596 -5.4142,1.3539 -10.7603,2.91 -16.3778,4.1961 -5.7519,1.2855 -11.843,2.1657 -18.4075,2.1657 -6.6321,0 -12.6555,-0.8802 -18.408,-2.1657 -5.6174,-1.2184 -10.9635,-2.7746 -16.3779,-4.1961 -10.2865,-2.5715 -20.3704,-4.3988 -32.5521,-1.7596 -1.3538,0.3382 -1.3538,0.3382 -1.1502,1.4214l4.196 18.6788c0.2704,1.3532 0.3382,1.3532 2.1656,0.8795 10.354,-2.4362 18.2047,0 26.9347,2.8423 4.4668,1.4214 9.2721,3.0458 15.0242,4.2636 5.5496,1.2184 12.1143,2.098 20.1001,2.098zm-21.318 -27.612l0 0c-7.6476,-1.8948 -14.8888,-4.1959 -22.4686,-5.4814 3.587,-0.8802 2.9779,-5.8204 1.4214,-7.783 -0.4738,-0.6091 -1.895,-2.3686 -4.9408,-2.3686 -1.5562,0 -9.2714,-5.0757 -9.2714,-7.1059 0,-1.8274 10.2192,-3.993 10.2192,-11.0317 0,-2.7068 -0.8796,-7.5118 -8.4595,-7.5118 0,-4.4665 4.6696,-9.1361 7.1059,-11.0311 1.2183,-0.9477 2.5039,-2.4363 3.384,-4.3311 5.6172,-2.098 9.5421,-12.5879 12.8585,-16.0396 1.2861,0 2.8423,-0.4737 4.0607,-0.9474 0.6089,0.406 1.3531,0.6767 2.0302,0.812 -10.9634,7.8506 -18.0697,20.6415 -18.0697,35.1241 0,16.1744 8.933,30.2513 22.1303,37.6954zm64.8342 -37.6954l0 0c0,16.1744 -8.9336,30.2513 -22.1305,37.6954 7.6472,-1.8274 14.8888,-4.1282 22.5355,-5.4814 -3.5854,-0.8802 -2.9765,-5.8204 -1.4204,-7.783 0.4732,-0.6091 1.9626,-2.3686 4.9405,-2.3686 1.5562,0 9.2708,-5.0757 9.2708,-7.1059 0,-1.8274 -10.2195,-3.993 -10.2195,-11.0317 0,-2.6392 0.8807,-7.5118 8.4607,-7.5118 0,-4.4665 -4.67,-9.1361 -7.107,-11.0311 -1.2178,-0.9477 -2.5035,-2.4363 -3.383,-4.3311 -5.6852,-2.098 -9.5427,-12.5879 -12.8586,-16.0396 -1.286,0 -2.8427,-0.4737 -4.0605,-0.9474 -0.6095,0.406 -1.2862,0.6767 -2.0303,0.812 10.8957,7.8506 18.0021,20.6415 18.0021,35.1241zm-82.9717 0l0 0c0,-21.7244 17.6636,-39.2523 39.4556,-39.2523 21.7916,0 39.4552,17.5956 39.4552,39.2523 0,21.6564 -17.6636,39.2521 -39.4552,39.2521 -21.792,0 -39.4556,-17.5957 -39.4556,-39.2521zm66.7287 -51.0955l0 0c1.4214,1.015 2.5046,1.4886 4.1959,0.7443 1.9626,1.692 2.9106,3.6547 3.384,5.8204 -0.4058,-0.2031 -0.7442,-0.406 -1.1505,-0.5419 -3.1807,-1.4209 -5.6169,-2.1657 -7.5119,-2.5717l1.0825 -3.4512zm-53.3965 3.4512l0 0c-1.8943,0.3383 -4.3312,1.1508 -7.444,2.504 -0.3384,0.1359 -0.7443,0.3388 -1.1508,0.5419 0.4742,-2.1657 1.4215,-4.1284 3.3841,-5.8204 1.5566,0.812 2.7069,0.3383 4.1283,-0.6766l1.0824 3.4512zm50.1483 -13.1967l0 0c0.9473,1.6922 2.2333,1.8273 2.1657,2.9775 -2.504,0.8802 -3.9252,3.2488 -1.2184,5.1437l-1.5562 4.8049c-3.384,0.1353 -3.6547,2.4362 -3.2486,4.2636 -1.1503,0.6766 -1.8951,2.9782 -1.3534,4.6019 -5.6849,-2.7068 -12.0466,-4.2636 -18.814,-4.2636 -6.6998,0 -13.1291,1.5567 -18.8141,4.2636 0.5415,-1.6237 -0.1352,-3.8577 -1.3538,-4.6019 0.4062,-1.8274 0.1355,-4.1283 -3.2481,-4.2636l-1.5565 -4.8049c2.7744,-1.8949 1.2859,-4.2636 -1.2186,-5.1437 0,-1.1502 1.2186,-1.2853 2.1657,-2.9775 7.4447,-2.9099 15.5659,-4.5341 24.0254,-4.5341 8.4596,0 16.5803,1.6242 24.0249,4.5341zm-48.118 -2.8419l0 0c7.5124,-2.8433 15.6336,-4.3315 24.1608,-4.3315 8.5271,0 16.6483,1.5561 24.1603,4.3315 0.8795,-0.9487 2.5716,-1.2191 3.7223,-0.6768 0.2031,-1.4896 4.3313,-1.2192 5.1431,-0.068 0.4059,-0.6089 3.3164,-0.9474 5.3464,3.8573 0.7448,-0.2026 1.4218,-0.3384 2.0985,-0.4064 0.4064,-0.0667 1.8947,-0.1346 2.301,-0.2026 1.0153,-0.1359 1.4203,-1.4217 2.5715,-1.8946 0.2026,-0.0679 0.7435,-0.2039 1.5562,-0.2704 -0.1347,-0.6089 -0.4063,-1.5575 -0.2704,-1.9626 0.3383,-1.2191 2.369,-1.2871 3.3163,-1.6241 1.0831,-0.3385 2.369,-0.7448 1.692,-1.8281 -1.2869,-2.0306 4.3983,-0.541 5.0073,0.3384 0.3383,0.541 -0.2706,1.5562 -0.2706,1.5562 0,0 0.7448,-0.0666 1.4896,0.068 1.8947,0.2704 3.315,0.8807 2.5715,-1.4883 -0.4742,-1.5575 5.9558,0.541 4.9404,3.3163 -0.2704,0.8114 -1.2177,1.4204 -1.2177,1.4204 0,0 0.6089,0.4064 1.1498,1.3537 0.4743,0.8794 2.2331,-0.1359 2.2331,-1.2858 0,-2.3689 2.978,0.8794 3.1818,3.1804 0.0666,0.8128 -0.0681,2.0983 -0.8127,2.7076 -0.3385,0.2707 -1.3538,0.406 -1.3538,0.406 0,0 0.4742,0.7442 0.4064,2.098 -0.0681,1.2179 2.0971,0.8796 2.7059,-0.4736 0.5423,-1.083 2.3691,2.504 1.6921,4.9402 -0.2025,0.7443 -1.2177,1.7597 -1.8266,1.9626 -0.6769,0.1354 -1.6241,-0.203 -1.6241,0.0677 0.0679,0.5414 0.0679,0.8119 0,1.5567 -0.136,1.6915 1.556,1.9621 2.8418,0.6766 1.0153,-0.9479 1.6242,5.8202 -1.0832,6.2262 -1.6228,0.2706 -1.8267,-0.5412 -1.8945,-0.2706 -0.0681,0.2706 -0.0681,0.5413 -0.405,1.1503 -0.8809,1.8273 1.4203,1.6919 2.5715,1.083 1.0152,-0.5419 0.6089,5.7521 -2.7754,5.4814 -0.6769,-0.0677 -1.0819,-0.7442 -1.6921,-0.7442 -0.541,0 -0.6089,5.5497 1.5574,5.5497 3.1804,0 -0.3383,3.5865 -3.3162,3.3835 0.3385,4.1284 2.842,9.6779 5.3455,12.5202 2.7073,3.1127 4.2636,6.6322 4.1291,9.8809 4.7366,0.4737 7.8504,-1.692 8.9335,-4.6702 1.6922,-4.6696 -1.6254,-9.8127 -4.1969,-13.6703 -3.5188,-5.2785 -2.91,-11.2343 -2.0973,-14.8212 -1.2858,-0.8796 -1.8959,-2.301 -1.8959,-3.7901 0,-1.6237 0.3385,-3.4512 2.0306,-5.0756 4.2635,-3.9928 10.7603,-0.6089 11.7768,0.9474 0.3385,0.4741 0.2026,1.2183 -0.5423,1.6243 -2.91,1.5567 -1.1499,7.2417 -6.7005,7.2417 -0.3372,1.0825 -0.4731,2.2334 -0.5411,3.3834 -0.1346,3.5193 0.7449,5.8204 2.0305,7.9184 0.9474,1.489 2.91,4.3312 4.0611,6.9029 3.3829,7.241 1.1499,16.4453 -7.3772,19.1523 -1.4205,0.4735 -4.4662,0.8795 -7.6465,0.2706 -0.204,0.2029 -0.4065,0.4736 -0.6104,0.6765 -0.2704,0.2711 -0.6089,0.5419 -0.9474,0.8802 -0.6767,1.9625 -0.5408,4.2636 1.5577,6.6999 3.5867,4.1282 5.2774,5.2107 1.014,8.2565 -8.2556,5.888 -8.8657,10.3546 -10.0157,12.1142 1.7601,0.2707 3.5188,0.609 5.347,1.015 0.8792,0.203 2.706,0.6766 2.097,3.3163l-4.6699 20.7763c-0.6755,3.0457 -2.9765,2.3008 -4.0597,2.0302 -20.1004,-5.2784 -29.778,9.0014 -62.6007,9.0014 -32.8233,0 -42.5007,-14.2798 -62.6009,-9.0014 -1.0826,0.2706 -3.3835,1.0155 -4.0601,-2.0302l-4.67 -20.7763c-0.6091,-2.6397 1.2183,-3.1133 2.098,-3.3163 1.8273,-0.406 3.5868,-0.7442 5.3467,-1.015 -1.1508,-1.7597 -1.7599,-6.2263 -10.0165,-12.1142 -4.2635,-3.0458 -2.5716,-4.1283 1.0156,-8.2565 2.098,-2.4363 2.2333,-4.7373 1.5562,-6.6999 -0.3384,-0.2707 -0.6767,-0.6091 -0.9474,-0.8802 -0.203,-0.203 -0.4061,-0.4737 -0.6089,-0.6765 -3.181,0.5412 -6.2264,0.1353 -7.6478,-0.2706 -8.5272,-2.707 -10.7603,-11.9113 -7.3764,-19.1523 1.2179,-2.5717 3.1805,-5.3462 4.1279,-6.9029 1.286,-2.098 2.1657,-4.399 2.0302,-7.9184 -0.0677,-1.15 -0.203,-2.3008 -0.5413,-3.3834 -5.549,0 -3.7901,-5.685 -6.7,-7.2417 -0.7441,-0.406 -0.8794,-1.0825 -0.5413,-1.6243 1.0151,-1.5562 7.5119,-4.9402 11.7755,-0.9474 1.6921,1.5567 2.0302,3.4519 2.0302,5.0756 0,1.5567 -0.6089,2.9782 -1.8949,3.7901 0.7448,3.6546 1.3538,9.5427 -2.098,14.8212 -2.5716,3.9252 -5.955,9.0684 -4.196,13.6703 1.0832,2.9782 4.196,5.1438 8.9337,4.6702 -0.1354,-3.2487 1.3532,-6.7005 4.1284,-9.8809 2.5038,-2.8423 4.9402,-8.3918 5.346,-12.5202 -2.9774,0.2031 -6.4968,-3.3835 -3.3163,-3.3835 2.1662,0 2.098,-5.5497 1.5567,-5.5497 -0.5412,0 -1.015,0.6765 -1.6921,0.7442 -3.4511,0.2707 -3.857,-6.0232 -2.7745,-5.4814 1.1506,0.6089 3.4517,0.7442 2.5718,-1.083 -0.5415,-0.6091 -0.5415,-0.8797 -0.6092,-1.1503 -0.0677,-0.3382 -0.2705,0.5413 -1.8949,0.2706 -2.707,-0.4735 -2.0981,-7.174 -1.0824,-6.2262 1.2855,1.2178 2.9774,1.0149 2.8422,-0.6766 -0.0677,-0.7448 -0.0677,-0.9478 0,-1.5567 0,-0.2706 -0.9473,0.0677 -1.6245,-0.0677 -0.6765,-0.1353 -1.6242,-1.1508 -1.8273,-1.9626 -0.6766,-2.3686 1.1507,-6.0232 1.692,-4.9402 0.6089,1.2855 2.7068,1.6238 2.7068,0.4736 -0.0677,-1.3538 0.4066,-2.098 0.4066,-2.098 0,0 -1.0155,-0.1353 -1.3537,-0.406 -0.7443,-0.6094 -0.8796,-1.8948 -0.8119,-2.7076 0.2028,-2.301 3.1804,-5.5493 3.1804,-3.1804 0,1.1499 1.7597,2.1652 2.2334,1.2858 0.4735,-0.9473 1.1505,-1.3537 1.1505,-1.3537 0,0 -0.9476,-0.609 -1.2183,-1.4204 -1.0148,-2.7753 5.4144,-4.8738 4.9403,-3.3163 -0.7442,2.369 0.6771,1.7588 2.5721,1.4883 0.7443,-0.1346 1.4885,-0.068 1.4885,-0.068 0,0 -0.5413,-1.0153 -0.2707,-1.5562 0.5415,-0.9474 6.2263,-2.4369 5.0085,-0.3384 -0.6771,1.0832 0.6089,1.4895 1.6914,1.8281 0.9479,0.337 2.9781,0.405 3.3165,1.6241 0.1354,0.4051 -0.1354,1.4204 -0.2707,1.9626 0.812,0.0666 1.3532,0.2026 1.5567,0.2704 1.1502,0.473 1.5563,1.7588 2.5717,1.8946 0.3383,0.068 1.8273,0.1359 2.301,0.2026 0.6765,0.068 1.3532,0.2039 2.098,0.4064 2.0302,-4.8046 4.9402,-4.4661 5.3461,-3.8573 0.8124,-1.2178 4.9407,-1.4882 5.1435,0.068 1.015,-0.4744 2.7071,-0.204 3.5865,0.6768zm35.7332 11.775l0 0 3.0457 0.8124 0.812 -2.9104c0.203,-0.6765 0.4061,-1.4209 0.6765,-2.098l-0.0677 0c-0.6089,0.6771 -1.0824,1.2185 -1.6919,1.8274l-2.7746 2.3686zm4.1961 6.2263l0 0 0.6765 -2.9776 1.4891 0.406 0.5412 -1.895 -1.4886 -0.4059 1.895 -6.9029 -3.2487 -0.8801 -6.6998 5.888 -0.4738 1.692 5.5493 1.4891 -0.7443 2.9099 2.504 0.6765zm-13.2647 -4.1284l0 0c1.3537,0.0677 2.098,-1.4209 2.3011,-4.1959 0.1353,-2.7745 -0.4736,-4.3312 -1.8274,-4.3988 -1.218,-0.0677 -2.098,1.3537 -2.2334,4.1282 -0.203,2.9105 0.5413,4.399 1.7596,4.4665zm-0.1351 1.9628l0 0c3.248,0.1353 4.8724,-2.3686 5.0754,-6.1587 0.2032,-3.4512 -1.0826,-6.2942 -4.3313,-6.4287 -3.1127,-0.1359 -4.8724,2.4359 -5.0753,6.0904 -0.2031,3.587 1.2178,6.3616 4.3312,6.497zm-11.3018 -9.9481l0 0c-1.1506,0.1354 -1.8275,1.2179 -1.6244,2.5039 0.1354,1.0825 0.9474,1.895 2.2334,1.7597 0.9473,-0.1359 1.489,-0.6095 1.7597,-1.1507 0.0676,-0.1353 0.0676,-0.3383 0.0676,-0.609 -0.2029,-1.4214 -0.9477,-2.775 -2.4362,-2.5039zm-1.9625 10.8957l0 0c0.3381,0 0.8794,-0.0677 1.4208,-0.3388 1.895,-0.2706 3.4517,-1.0825 4.4665,-2.3008 1.1507,-1.3532 1.6922,-3.3159 1.3537,-5.8199 -0.4058,-2.8427 -2.3007,-4.941 -5.4143,-4.5346 -2.7069,0.4064 -4.3988,2.6396 -4.06,5.0083 0.3381,2.3008 2.301,3.5193 4.4666,3.2482 1.1501,-0.1354 1.9626,-0.6091 2.504,-1.3533l0.0675 0c-0.0675,1.015 -0.5412,1.9626 -1.286,2.6393 -0.6765,0.6089 -1.5562,1.0149 -2.504,1.2185 -0.609,0.1352 -0.9471,0.2029 -1.286,0.2029l0.2712 2.0303zm-4.3314 1.2179l0 0 -2.9105 -9.3391 -0.0677 0 -1.8948 1.7597 -1.0148 -1.7597 2.6392 -2.3686 2.0979 -0.6094 3.5869 11.6406 -2.4362 0.6765zm-32.891 -13.6711l0 0c0.4061,0 0.7443,0.2713 1.0156,0.4066 -0.7448,0.2706 -1.5567,0.5414 -1.8951,0.609 0.2706,-0.5413 0.8119,-1.0156 0.8796,-1.0156zm2.7745 0.948l0 0c0,0 -3.7895,1.4889 -4.4666,0.88 -0.8117,-0.7447 0.8802,-2.7073 1.5567,-2.7073 1.7598,-0.068 2.9099,1.8274 2.9099,1.8274zm90.6188 0l0 0c0,0 3.7227,1.4214 4.3994,0.88 0.8114,-0.7447 -0.8806,-2.7073 -1.5576,-2.7073 -1.6921,0 -2.8418,1.8274 -2.8418,1.8274zm2.7072 -0.948l0 0c-0.4063,0 -0.7446,0.2039 -1.0831,0.4743 0.7449,0.2706 1.5563,0.4737 1.8947,0.609 -0.1347,-0.609 -0.677,-1.0832 -0.8116,-1.0832zm-0.9472 111.1926l0 0 0 -7.1059c0,-1.286 -0.0681,-2.3008 -0.0681,-3.2486l2.6396 0 0.1345 1.5566 0.0681 0c0.4064,-0.6771 1.5575,-1.7597 3.3842,-1.7597 2.0306,0 3.9251,1.286 3.9251,4.602l0 6.0232 -3.0458 0 0 -5.6173c0,-1.4885 -0.5409,-2.5039 -1.9625,-2.5039 -1.082,0 -1.6922,0.7447 -1.9626,1.4214 -0.0681,0.2029 -0.1346,0.5414 -0.1346,0.8119l0 5.9556 -2.9779 0 0 -0.1354zm-104.1541 0.2031l0 0 -0.4736 -14.2799 3.0452 -0.1354 0.406 11.7082 6.2263 -0.2029 0.0677 2.5039 -9.2715 0.406zm20.7091 -2.2334l0 0 -6.9712 -1.6243c-0.2704,1.4889 1.0156,2.504 2.6399,2.9104 1.2178,0.2706 2.098,0.3383 3.1129,0.203l-0.0677 2.098c-1.1506,0.203 -2.4364,0.1354 -3.9929,-0.203 -3.5189,-0.8124 -5.0757,-3.3164 -4.3313,-6.4292 0.6089,-2.5045 2.91,-5.0084 6.4968,-4.1961 3.5194,0.812 4.0608,3.8573 3.5194,6.0905 -0.1353,0.5418 -0.2706,0.9479 -0.4059,1.1507zm-6.497 -3.6547l0 0c0.2707,-0.8795 1.218,-2.0303 2.7745,-1.6238 1.6922,0.406 1.7599,1.9621 1.5568,2.6394l-4.3313 -1.0156zm9.7451 -1.6238l0 0 3.1135 1.1503 -0.2031 5.279c0,0.9472 -0.1359,1.7591 -0.2036,2.5716l0.0677 0c0.474,-0.6771 0.9478,-1.3538 1.489,-2.098l3.2486 -4.196 3.0454 1.0825 -7.4441 8.3243 -2.9105 -1.0149 -0.2031 -11.0989zm20.0326 11.9784l0 0 -7.0388 -1.3537c-0.2029,1.489 1.0831,2.5045 2.7073,2.8427 1.218,0.203 2.1657,0.2706 3.113,0.1354l0 2.098c-1.1507,0.203 -2.4364,0.203 -3.9929,-0.0677 -3.5193,-0.6765 -5.211,-3.1133 -4.6021,-6.2939 0.4737,-2.504 2.7068,-5.1437 6.3616,-4.399 3.5194,0.6766 4.196,3.7224 3.7222,5.9556 0,0.406 -0.1351,0.8796 -0.2704,1.0825zm-6.7004 -3.4512l0 0c0.3387,-0.8801 1.2183,-2.0302 2.775,-1.692 1.6919,0.2706 1.7596,1.8274 1.6239,2.5716l-4.3989 -0.8796zm9.6779 8.2561l0 0 0.6089 -6.9029c0.1354,-1.5566 0.2031,-2.5039 0.2031,-3.4511l2.6398 0.203 -0.0677 2.0303 0.0677 0c0.6765,-1.489 2.0303,-2.098 3.1804,-2.0303 0.2707,0 0.4061,0.0676 0.6766,0.1353l-0.2705 2.8422c-0.2706,-0.0677 -0.5415,-0.1353 -0.8797,-0.203 -1.3537,-0.1353 -2.2333,0.5413 -2.504,1.6244 -0.0676,0.203 -0.0676,0.4737 -0.1352,0.6765l-0.4743 5.2785 -3.0451 -0.203zm12.7229 -14.8212l0 0 0.3384 9.2045 0.0677 0c0.2705,-0.406 0.5412,-0.8802 0.812,-1.2185l2.369 -3.3158 3.7217 -0.1353 -3.8571 4.3311 4.8726 6.0228 -3.79 0.1353 -3.1129 -4.2636 -0.8802 1.083 0.1354 3.3164 -3.0451 0.1353 -0.5414 -15.0917 2.9098 -0.2036zm19.0847 2.2334l0 0 1.3537 6.9711c0.2708,1.2855 0.4738,2.3685 0.6767,3.1805l-2.5716 0.4735 -0.4741 -1.556 -0.0677 0c-0.2707,0.7442 -1.0827,2.098 -3.0453,2.4362 -1.9627,0.406 -3.993,-0.4736 -4.6019,-3.7901l-1.1507 -5.8879 2.978 -0.609 1.0827 5.4143c0.3381,1.6239 1.0829,2.5039 2.3684,2.2334 1.0156,-0.203 1.489,-1.0155 1.6244,-1.692 0.0677,-0.203 0.0677,-0.4737 0,-0.7448l-1.1506 -6.0227 2.9779 -0.4065zm4.7372 8.3919l0 0 -0.0677 -2.2334c0.6767,0.203 2.0303,0.2706 2.9777,0 1.0831,-0.3382 1.4214,-0.812 1.2183,-1.3532 -0.2029,-0.6096 -0.609,-0.7448 -1.9626,-0.8125 -2.301,0 -3.4517,-0.8796 -3.7899,-2.0979 -0.5413,-1.8269 0.6771,-3.6542 3.181,-4.399 1.2178,-0.3382 2.3686,-0.3382 3.0452,-0.203l0.0677 2.1657c-0.5414,-0.1354 -1.5561,-0.2031 -2.4363,0.0676 -0.8119,0.2707 -1.2178,0.7448 -1.0824,1.2861 0.1351,0.5413 0.7442,0.6766 2.1657,0.7443 2.098,0.0677 3.248,0.7448 3.7216,2.2332 0.5419,1.8274 -0.5412,3.587 -3.4512,4.4667 -1.4214,0.2706 -2.7068,0.3388 -3.587,0.1354zm18.2049 -9.0009l0 0 -7.039 1.3537c0.4064,1.4891 1.9639,1.895 3.5882,1.5568 1.2178,-0.2037 2.0971,-0.542 2.9098,-1.0155l0.8115 1.8949c-0.9473,0.6089 -2.1651,1.1507 -3.7213,1.4214 -3.5201,0.6766 -6.0238,-0.9477 -6.6327,-4.1283 -0.4738,-2.5039 0.6089,-5.7526 4.2636,-6.4969 3.5188,-0.677 5.2789,1.8951 5.6854,4.1283 0.1345,0.5414 0.1345,1.015 0.1345,1.2856zm-7.4442 -0.7442l0 0c-0.0677,-0.8802 0.2707,-2.301 1.8949,-2.7068 1.6921,-0.3388 2.3689,1.0825 2.5035,1.8267l-4.3984 0.8802zm-39.7938 -77.7603l0 0 5.0758 0c0.5415,0 1.0151,-0.4736 1.0151,-1.0149 0,-0.5414 -0.4736,-1.0155 -1.0151,-1.0155l-5.0758 0 0 2.0303zm0 4.8731l0 0 5.2111 0c0.609,0 1.1504,-0.5418 1.1504,-1.1508 0,-0.609 -0.5415,-1.1501 -1.1504,-1.1501l-5.2111 0 0 2.3009zm8.1211 -3.7223l0 0c0.4741,-0.6091 0.8124,-1.3539 0.8124,-2.2334 0,-1.9627 -1.5566,-3.5193 -3.5193,-3.5193l-8.3241 0 0 12.0466 8.4594 0c2.0303,0 3.6546,-1.6244 3.6546,-3.6547 0,-1.0149 -0.4059,-1.9626 -1.083,-2.6392zm1.9626 20.7089l0 0 -5.9555 -12.0465 -2.8421 0 -6.091 12.0465 3.1133 0 0.9474 -2.0302 6.7673 0 0.9479 2.0302 3.1127 0zm-7.5118 -9.0012l0 0 -2.1656 4.3988 4.2636 0 -2.098 -4.3988zm4.1283 11.5729l0 0 -4.196 5.4815 -4.1282 -5.4815 -3.4518 0 6.1587 7.8506 0 4.1954 2.9098 0 0 -4.1954 6.1586 -7.8506 -3.4512 0zm16.1742 0l0 0 -10.9634 0 0 12.046 10.9634 0 0 -2.5717 -8.1212 0 0 -2.3008 7.783 0 0 -2.5716 -7.783 0 0 -2.0303 8.1212 0 0 -2.5716zm9.1363 7.5117l0 0 -2.1657 0 0 4.6025 -2.9098 0 0 -12.0465 7.3769 0c2.098,0 3.7218,1.692 3.7218,3.7223 0,1.6915 -1.1501,3.1128 -2.7069,3.5863l3.587 4.7378 -3.4517 0 -3.4517 -4.6025zm2.0302 -4.9401l0 0c0.6095,0.0678 1.1509,0.5413 1.1509,1.1508 0,0.609 -0.5415,1.1501 -1.1509,1.1501l-4.1959 0 0 -2.3009 4.1959 0zm-37.6952 9.5426l0 0 -5.9555 -12.0465 -2.8422 0 -6.0909 12.0465 3.1126 0 0.9479 -2.0303 6.7675 0 0.9473 2.0303 3.1133 0zm-7.5124 -9.0013l0 0 -2.1657 4.3988 4.2637 0 -2.098 -4.3988zm-18.3398 1.489l0 0 5.0754 0c0.5414,0 1.015,-0.4737 1.015,-1.0149 0,-0.5419 -0.4736,-1.0155 -1.015,-1.0155l-5.0754 0 0 2.0303zm0 4.9401l0 0 5.2107 0c0.6089,0 1.1507,-0.5412 1.1507,-1.1502 0,-0.6095 -0.5419,-1.1506 -1.1507,-1.1506l-5.2107 0 0 2.3008zm8.1206 -3.7217l0 0c0.5418,-0.6096 0.8126,-1.4213 0.8126,-2.3014 0,-1.9621 -1.5568,-3.5188 -3.5195,-3.5188l-8.3242 0 0 12.1141 8.4595 0c2.0303,0 3.6546,-1.6243 3.6546,-3.6547 0,-1.0155 -0.4058,-1.9626 -1.083,-2.6392zm29.4392 8.8654l0 0 -10.9633 0 0 12.0461 10.9633 0 0 -2.5716 -8.1211 0 0 -2.3009 7.7829 0 0 -2.5716 -7.7829 0 0 -2.0304 8.1211 0 0 -2.5716zm-2.0303 18.6782l0 0c0,-0.6089 -0.5413,-1.1502 -1.1501,-1.1502l-4.9407 0 0 2.301 4.9407 0c0.6765,0 1.1501,-0.4737 1.1501,-1.1508zm-8.933 8.3244l0 0 0 -12.0461 8.121 0c2.098,0 3.7224,1.692 3.7224,3.7217 0,1.5567 -0.9478,2.9105 -2.3686,3.4517l3.6542 4.8727 -3.4511 0 -3.4519 -4.602 -3.3162 0 0 4.602 -2.9099 0z"/>
  </g>
 </g>
</svg>
