<?xml version="1.0" encoding="UTF-8" standalone="no"?>
<svg
   clip-rule="evenodd"
   fill-rule="evenodd"
   stroke-linejoin="round"
   stroke-miterlimit="2"
   viewBox="0 0 233.703 270.00015"
   version="1.1"
   id="svg98"
   sodipodi:docname="Luton-Town.svg"
   width="233.703"
   height="270.00015"
   xmlns:inkscape="http://www.inkscape.org/namespaces/inkscape"
   xmlns:sodipodi="http://sodipodi.sourceforge.net/DTD/sodipodi-0.dtd"
   xmlns="http://www.w3.org/2000/svg"
   xmlns:svg="http://www.w3.org/2000/svg">
  <defs
     id="defs98" />
  <sodipodi:namedview
     id="namedview98"
     pagecolor="#ffffff"
     bordercolor="#000000"
     borderopacity="0.25"
     inkscape:showpageshadow="2"
     inkscape:pageopacity="0.0"
     inkscape:pagecheckerboard="0"
     inkscape:deskcolor="#d1d1d1" />
  <g
     fill-rule="nonzero"
     transform="matrix(0.480171,0,0,0.480171,-78.555976,-12.9166)"
     id="g98">
    <path
       d="m 569.5,405.2 c 0,-15.5 -16.4,-13.7 -16.4,-13.7 0,-2 -1,-6 -1.7,-6 -5.5,0 -11.7,3 -11.7,3 0.3,-5 4,-9.4 5.7,-12 1.7,-2.7 2.7,-8.7 3.3,-12.7 0.7,-4 9.4,-13.4 9,-14 -3.6,-7.2 -10.7,-5.7 -10.7,-5.7 0,0 0.7,-4 4.7,-6.7 4,-2.7 11.7,1 11.7,1 0,0 2,-4.3 -1.3,-9 -0.7,-1 -1.8,-1.8 -3.1,-2.3 4.8,-2.4 5.3,-5.5 5.3,-10.1 0,-6 -5.2,-9.2 -10.7,-9.2 -2.2,0 -6.1,-1.3 -9.4,6.7 -0.1,0.1 -4.1,6.7 -4.3,-6.3 -0.2,-10 3.7,-8.5 7.2,-14.4 0,0 -3.5,-6.5 -10.5,-5 0,0 -0.8,-7 -3,-7 -0.2,0 -3.2,1.8 -5.2,3.8 0,0 4.7,-9.2 5.7,-13.7 1,-4.5 4.2,-10.8 -0.5,-10 -1,0.2 -3.3,1 -3.3,1 0,0 -1.9,-0.8 4.8,-3.5 2.5,-1 5.2,-2.7 3.9,-3.8 -1.4,-1.2 -2.7,-3.9 -10.7,-4.3 0,0 1.2,-5.4 6.9,-8.2 0.7,-0.3 1,5.5 10.2,5.2 0,0 8.5,-0.7 8,-9.9 -0.2,-3.4 -1.6,-5.6 -3.4,-7.1 0.3,0.1 0.5,0.2 0.4,0.2 -0.2,-0.1 -0.4,-0.2 -0.6,-0.4 -0.6,-0.5 -1.2,-0.8 -1.8,-1.1 -10.9,-7.6 -14.1,-22.4 -14.1,-22.4 -0.1,-0.7 -0.2,-1.1 -0.4,-1.3 -0.8,-1.5 -4.9,-8.4 -11.2,-8.7 -6.4,-0.3 -9.4,2.2 -10.4,7.5 -1,5.4 4.7,8.7 4.5,8.7 -5.7,0 -5.9,-1.3 -8.4,-4.3 -2.5,-3 -1.2,-14.6 -1.3,-14.7 -3.5,-1.5 -6.6,0.7 -6.5,0.5 0.6,-2.4 1.2,-7.2 -0.7,-7.9 -9,-3.2 -11.2,3.2 -14,3 -9.4,-0.5 -6.5,8.9 -6.5,8.9 0,0 -13.2,-12.2 -15.4,-10.4 -2.2,1.8 -1.5,8.9 -1.5,8.9 0,0 -9.7,-4.5 -20.1,-3.3 -9.3,1 -14.2,5.4 -16.8,9.3 -5.4,1.2 -10.7,1.7 -15.7,1.8 -4.9,-0.1 -10.3,-0.6 -15.7,-1.8 -2.6,-3.9 -7.5,-8.3 -16.8,-9.3 -10.4,-1.2 -20.1,3.3 -20.1,3.3 0,0 0.7,-7 -1.5,-8.9 -2.2,-2.1 -15.4,10.1 -15.4,10.1 0,0 2.8,-9.4 -6.5,-8.9 -2.8,0.2 -5.1,-6.2 -14,-3 -1.9,0.7 -1.2,5.4 -0.7,7.9 0.1,0.2 -3.1,-2 -6.5,-0.5 -0.2,0.1 1.2,11.7 -1.3,14.7 -2.5,3 -2.7,4.3 -8.4,4.3 -0.2,0 5.5,-3.3 4.5,-8.7 -1,-5.3 -4,-7.9 -10.4,-7.5 -6.4,0.3 -10.4,7.2 -11.2,8.7 -0.1,0.2 -0.2,0.7 -0.4,1.3 0,0 -3.2,14.8 -14.1,22.4 -0.6,0.3 -1.2,0.7 -1.8,1.1 -0.2,0.1 -0.4,0.2 -0.6,0.4 0,0 0.1,-0.1 0.4,-0.2 -1.8,1.5 -3.2,3.7 -3.4,7.1 -0.5,9.2 8,9.9 8,9.9 9.2,0.3 9.5,-5.5 10.2,-5.2 5.7,2.8 6.9,8.2 6.9,8.2 -8,0.5 -9.4,3.2 -10.7,4.3 -1.3,1.2 1.4,2.8 3.9,3.8 6.7,2.7 4.8,3.5 4.8,3.5 0,0 -2.3,-0.8 -3.3,-1 -4.7,-0.8 -1.5,5.5 -0.5,10 1,4.5 5.7,13.7 5.7,13.7 -2,-2 -5,-3.8 -5.2,-3.8 -2.2,0 -3,7 -3,7 -7,-1.5 -10.5,5 -10.5,5 3.5,5.9 7.4,4.3 7.2,14.4 -0.2,13 -4.3,6.5 -4.3,6.3 -3.3,-8 -7.2,-6.7 -9.4,-6.7 -5.5,0 -10.7,3.2 -10.7,9.2 0,4.7 0.5,7.7 5.3,10.1 -1.3,0.5 -2.4,1.3 -3.1,2.3 -3.3,4.7 -1.3,9 -1.3,9 0,0 7.7,-3.7 11.7,-1 4,2.7 4.7,6.7 4.7,6.7 0,0 -7.1,-1.5 -10.7,5.7 -0.3,0.7 8.4,10 9,14 0.7,4 1.7,10 3.3,12.7 1.7,2.7 5.4,7 5.7,12 0,0 -6.3,-3 -11.7,-3 -0.7,0 -1.7,4 -1.7,6 0,0 -16.4,-1.8 -16.4,13.7 0,0.7 10.4,-1 14,6.7 0,0 -7.4,3 -4,10.4 0,0 5,-1.3 7.7,0.3 2.7,1.7 4,5 9,6.3 5,1.3 11.7,2.7 13.7,4.7 0,0 -9.7,1.5 -12.1,7 -0.2,0.4 -0.7,2.7 2.7,4.7 0,0 -5.4,6 -2,13.7 0,0 7.2,2.5 12.4,-0.3 0.4,-0.2 0,8 4,8.7 4,0.7 5,-5 8.4,-5.4 3.3,-0.3 11,-1.7 14,-5.7 0.2,-0.3 3.3,2.3 12.7,2 9.4,-0.3 11.7,-2.7 11.7,-2.7 0,0 4.3,11.7 13.4,17.4 0,0 -8.4,5 -9.7,9 l 4.7,2.4 c 0,0 -5.4,6.3 -4.7,10.7 0.7,4.3 3.3,7.7 3.3,7.7 0,0 4.3,-5.7 9,-5.7 4.7,0 6.4,-1.3 6.4,-1.3 0,0 -0.5,1.5 4,6 0.3,0.3 -0.3,-5 9.4,-5 0.3,0 3.4,-1.7 5.7,-4.3 2.3,-2.7 5,-1.7 7,-0.3 2,1.3 6,4.5 7.4,6.2 0.6,0.8 1.9,3.1 3.8,5.1 -2.4,1.4 -4.1,3.6 -4.1,7.1 0,7 7.2,9 12.2,8.9 5,0.2 12.2,-1.8 12.2,-8.9 0,-3.5 -1.7,-5.7 -4.1,-7.1 1.9,-2 3.1,-4.3 3.8,-5.1 1.3,-1.7 5.3,-4.9 7.4,-6.2 2,-1.3 4.7,-2.3 7,0.3 2.3,2.7 5.3,4.3 5.7,4.3 9.7,0 9,5.3 9.4,5 4.5,-4.6 4,-6 4,-6 0,0 1.7,1.3 6.4,1.3 4.7,0 9,5.7 9,5.7 0,0 2.7,-3.3 3.3,-7.7 0.7,-4.3 -4.7,-10.7 -4.7,-10.7 l 4.7,-2.4 c -1.3,-4 -9.7,-9 -9.7,-9 9,-5.7 13.4,-17.4 13.4,-17.4 0,0 2.4,2.3 11.7,2.7 9.4,0.3 12.5,-2.3 12.7,-2 3.1,4 10.7,5.4 14,5.7 3.3,0.3 4.3,6 8.4,5.4 4,-0.7 3.6,-8.9 4,-8.7 5.2,2.9 12.4,0.3 12.4,0.3 3.3,-7.7 -2,-13.7 -2,-13.7 3.4,-2 2.9,-4.3 2.7,-4.7 -2.4,-5.6 -12.1,-7 -12.1,-7 2,-2 8.7,-3.3 13.7,-4.7 5,-1.3 6.4,-4.7 9,-6.3 2.7,-1.7 7.7,-0.3 7.7,-0.3 3.3,-7.3 -4,-10.4 -4,-10.4 3.6,-7.4 14,-5.8 14,-6.4 z"
       id="path1" />
    <g
       fill="#ffe100"
       id="g10">
      <path
         d="m 557.5,394.6 c -2.3,0 -5,3.2 -5,3.2 -1.3,-0.2 -4.7,0.8 -4.7,0.8 0,0 3.7,-5.7 0.8,-8.5 -2.9,-2.8 -13,7.2 -13.1,7 -0.8,-6.3 -0.3,-7.3 0.2,-11.7 0.5,-4.3 5.7,-11.9 7,-14.5 1.3,-2.7 1.5,-7.3 3.5,-12.7 2,-5.4 6.2,-7.7 6.2,-7.7 -3.3,-5.7 -12.4,1.8 -12.4,1.8 5.4,-25.1 19.9,-18.7 19.9,-18.7 0,0 -0.5,-4.3 -7.2,-5 -9.1,-0.9 -13.1,9.4 -16.1,14 -12.4,19.4 -8.1,38.5 -8.4,55.2 -0.7,40 -28.1,50.1 -40.8,50.5 -12.7,0.3 -18.1,-4 -18.1,-4 -2.3,9 -9.7,18.7 -17.1,24.4 -7.3,5.7 -17.4,5.7 -25.8,10 -7.7,4 -16,16.2 -17.2,18.1 -1.3,-1.9 -9.5,-14.1 -17.2,-18.1 -8.4,-4.3 -18.4,-4.3 -25.8,-10 -7.4,-5.7 -14.7,-15.4 -17.1,-24.4 0,0 -5.4,4.3 -18.1,4 -12.7,-0.3 -40.1,-10.5 -40.8,-50.5 -0.3,-16.7 4,-35.8 -8.4,-55.2 -3,-4.7 -7,-14.9 -16.1,-14 -6.7,0.7 -7.2,5 -7.2,5 0,0 14.5,-6.3 19.9,18.7 0,0 -9,-7.5 -12.4,-1.8 0,0 4.2,2.3 6.2,7.7 2,5.3 2.2,10 3.5,12.7 1.3,2.7 6.5,10.2 7,14.5 0.5,4.4 1,5.4 0.2,11.7 0,0.2 -10.2,-9.9 -13.1,-7 -2.8,2.8 0.8,8.5 0.8,8.5 0,0 -3.3,-1 -4.7,-0.8 0,0 -2.7,-3.2 -5,-3.2 -2.4,0 -5.9,0 -7.9,6 -0.2,0.5 4.2,-0.2 6.5,1.8 2.3,2 3.7,2.7 5.4,5 1.7,2.3 5.4,3.2 6,5.4 0,0 -4.2,-0.5 -6.7,1.3 -2.5,1.8 -2,4.2 -2,4.2 0,0 3.2,-0.8 6,1.2 2.9,2 5,3.7 7.7,5.4 2.7,1.7 8.5,1.3 11.9,3.3 3.4,2 6.4,5.2 7.7,8.8 0,0 -4.9,-1.5 -8,-0.2 -3.2,1.3 -5.7,3.2 -5.7,4.8 0,1.7 1,1.2 2.8,1.2 1.8,0 5.1,-1.7 9,0.3 0.2,0.1 -3.3,-1.3 -7.2,2.2 -3.9,3.5 -7.2,6.8 -4.3,9.9 2.8,3 9.6,1.5 16.2,-3.8 0.3,-0.3 -0.2,2.2 -1.8,3.3 -1.7,1.2 -4.2,4.9 -1.3,7.5 1.7,1.5 3.2,-3.5 7.5,-3.5 4.3,0 9,-1.9 13.9,-6.2 0.2,-0.2 8.7,5.4 22.9,0.7 0.4,-0.1 4.5,-3.7 7.2,2.2 2.7,5.9 9.2,15.3 15.1,18.9 0.8,0.5 1.2,2.2 -1,2.2 -2.2,0 -8.5,-0.7 -9.4,2.5 -0.8,3.2 2.7,3.5 2.7,3.5 0,0 1.3,0.3 1.2,1.3 -0.2,1 -1.2,1.3 -2.3,1.8 -1.2,0.5 -3.3,2.1 -4.3,8.5 -0.3,2 0.2,1.8 1.8,2 1.7,0.2 4.5,-2.5 7.8,-2.2 3.4,0.3 5.4,-1.6 7.2,-5.2 0.2,-0.3 -0.3,5.7 3.7,5.9 4.1,0.2 5.5,0 9.7,-3.8 4.2,-3.8 3.7,-3.8 6.2,-3.8 2.5,0 8.7,2 14.7,9.4 6,7.4 5,7.6 9.2,7.7 4.2,-0.1 3.2,-0.3 9.2,-7.7 6,-7.3 12.2,-9.4 14.7,-9.4 2.5,0 2,0 6.2,3.8 4.2,3.8 5.6,4 9.7,3.8 4,-0.2 3.5,-6.2 3.7,-5.9 1.8,3.6 3.8,5.5 7.2,5.2 3.3,-0.3 6.2,2.3 7.9,2.2 1.7,-0.2 2.2,0 1.8,-2 -1.1,-6.4 -3.2,-8 -4.3,-8.5 -1.2,-0.5 -2.2,-0.8 -2.3,-1.8 -0.2,-1 1.2,-1.3 1.2,-1.3 0,0 3.5,-0.3 2.7,-3.5 -0.8,-3.2 -7.2,-2.5 -9.4,-2.5 -2.2,0 -1.8,-1.7 -1,-2.2 5.9,-3.6 12.4,-13 15.1,-18.9 2.7,-5.8 6.8,-2.3 7.2,-2.2 14.2,4.7 22.7,-0.9 22.9,-0.7 4.8,4.3 9.5,6.2 13.9,6.2 4.3,0 5.9,5 7.5,3.5 2.9,-2.6 0.3,-6.3 -1.3,-7.5 -1.7,-1.2 -2.1,-3.6 -1.8,-3.3 6.6,5.4 13.4,6.9 16.2,3.8 2.9,-3 -0.5,-6.3 -4.3,-9.9 -3.9,-3.5 -7.4,-2.1 -7.2,-2.2 3.9,-2.1 7.2,-0.3 9,-0.3 1.8,0 2.8,0.5 2.8,-1.2 0,-1.7 -2.5,-3.5 -5.7,-4.8 -3.2,-1.3 -8,0.2 -8,0.2 1.3,-3.7 4.4,-6.8 7.7,-8.8 3.3,-2 9.2,-1.7 11.9,-3.3 2.7,-1.7 4.9,-3.3 7.7,-5.4 2.8,-2 6,-1.2 6,-1.2 0,0 0.5,-2.3 -2,-4.2 -2.5,-1.8 -6.7,-1.3 -6.7,-1.3 0.7,-2.2 4.4,-3 6,-5.4 1.7,-2.3 3,-3 5.4,-5 2.3,-2 6.7,-1.3 6.5,-1.8 -1.8,-5.9 -5.3,-6 -7.6,-6 z"
         id="path2" />
      <path
         d="m 514.7,274.2 c 1.7,37.1 24.1,53.6 32.1,53.3 8,-0.3 12.7,-3.7 13.4,-10 0.7,-6.4 -6,-6.4 -6,-6.4 -6.4,-0.3 -7,5.3 -4,6.7 3,1.3 4.2,0.7 4.2,0.7 0,0 -1.3,3.3 -6.2,3.2 -9.1,-0.3 -11.5,-9.2 -12.5,-13.2 -1,-4 0.2,-7.8 3.8,-13.2 3.7,-5.3 -3,-2.2 -3,-2.2 l -2.7,1.8 c 0,0 -0.8,-1.7 -0.8,-5 0,-3.4 -3.2,-2.2 -4.5,0.5 -1.3,2.7 -1.2,12.2 -1.2,12.2 -4.3,-4.7 -3.5,-9.8 -2.7,-15.9 0.4,-3.4 5.8,-14.4 7.2,-17.7 1.9,-4.5 0.2,-5.3 -3.8,-3 -4.5,2.6 -6.9,10.9 -6.9,10.5 0,-11.7 5.9,-15 10.9,-18.1 5,-3 2.5,-5 -0.8,-5.3 -3.4,-0.3 -10,8 -10,8 0,0 1.7,-4.7 4.4,-11.4 2.7,-6.7 4.7,-8.9 8.7,-11.2 4,-2.3 7.4,-2.7 7.4,-2.7 0,0 -3.2,2.7 -3.2,5 0,2.3 0.3,3.7 5.4,3.7 5,0 5.4,-5.5 5.4,-6.9 0,-1.3 -2.3,-7.7 -8.7,-7.5 -6.7,0.4 -27.6,7 -25.9,44.1 z"
         id="path3" />
      <path
         d="m 430.8,217 c 3.5,0.3 5.7,-1.2 6,-3.5 0.3,-2.3 -0.5,-3.7 -1.9,-4 -1.3,-0.3 -3.3,0.7 -3.3,0.7 2.3,-8.2 12.7,-8.7 12.7,-8.7 0,0 8.7,-0.7 18.2,4 9.5,4.7 31.1,16 48.5,16.7 17.4,0.7 18.6,-10 18.6,-14.7 0,-4.7 -3.8,-6.9 -7.4,-7.2 -3.5,-0.3 -6,3.2 -6,4.7 0,1.5 -0.2,4.8 3.3,5.9 3.5,1 5.2,-0.2 5.2,-0.2 0,0 0.3,6 -10.4,5.2 -13.4,-1 -10.7,-19.6 -10.7,-19.6 -4,-2.3 -10.5,11 -10.5,11 7,-21.7 1.8,-18.4 1.8,-18.4 -6.4,-0.2 -7.9,12.7 -7.9,12.7 -0.8,-8 -4,-7.2 -4.2,-7.2 -3.8,0 2.3,15.4 2.3,15.4 0,0 -12.2,-13.4 -16.2,-16.5 -4,-3.2 -4.9,-2.3 -5,-0.2 -0.2,2.2 0.8,7.3 0.8,7.3 -11.5,-5 -18.6,-5.2 -23.9,-4.3 -5.3,0.8 -13,4.5 -14.9,12 -1.6,7.6 4.9,8.9 4.9,8.9 z"
         id="path4" />
      <path
         d="m 272.1,327.5 c 8,0.3 30.4,-16.2 32.1,-53.3 1.7,-37.1 -19.2,-43.8 -25.6,-43.9 -6.4,-0.2 -8.7,6.2 -8.7,7.5 0,1.3 0.3,6.9 5.4,6.9 5,0 5.4,-1.3 5.4,-3.7 0,-2.4 -3.2,-5 -3.2,-5 0,0 3.3,0.3 7.4,2.7 4,2.3 6,4.5 8.7,11.2 2.7,6.7 4.4,11.4 4.4,11.4 0,0 -6.7,-8.4 -10,-8 -3.3,0.3 -5.8,2.3 -0.8,5.3 5,3 10.9,6.3 10.9,18.1 0,0.3 -2.4,-7.9 -6.9,-10.5 -4,-2.3 -5.7,-1.5 -3.8,3 1.3,3.4 6.7,14.3 7.2,17.7 0.8,6.1 1.7,11.2 -2.7,15.9 0,0 0.2,-9.5 -1.2,-12.2 -1.3,-2.7 -4.5,-3.8 -4.5,-0.5 0,3.3 -0.8,5 -0.8,5 l -2.7,-1.8 c 0,0 -6.7,-3.2 -3,2.2 3.7,5.3 4.9,9.2 3.8,13.2 -1,4 -3.5,12.9 -12.5,13.2 -4.8,0.2 -6.2,-3.2 -6.2,-3.2 0,0 1.2,0.7 4.2,-0.7 3,-1.3 2.4,-7 -4,-6.7 0,0 -6.7,0 -6,6.4 0.4,6.2 5.1,9.5 13.1,9.8 z"
         id="path5" />
      <path
         d="m 307.7,222.2 c 17.4,-0.7 39,-12 48.5,-16.7 9.5,-4.7 18.2,-4 18.2,-4 0,0 10.4,0.5 12.7,8.7 0,0 -2,-1 -3.3,-0.7 -1.3,0.3 -2.2,1.7 -1.8,4 0.3,2.3 2.5,3.8 6,3.5 0,0 6.5,-1.3 4.7,-8.9 -1.8,-7.5 -9.5,-11.2 -14.9,-12 -5.4,-0.8 -12.4,-0.7 -23.9,4.3 0,0 1,-5.2 0.8,-7.3 -0.2,-2.2 -1,-3 -5,0.2 -4,3.2 -16.2,16.5 -16.2,16.5 0,0 6.1,-15.4 2.3,-15.4 -0.2,0 -3.3,-0.8 -4.2,7.2 0,0 -1.5,-12.9 -7.9,-12.7 0,0 -5.2,-3.3 1.8,18.4 0,0 -6.5,-13.4 -10.5,-11 0,0 2.7,18.5 -10.7,19.6 -10.7,0.8 -10.4,-5.2 -10.4,-5.2 0,0 1.7,1.2 5.2,0.2 3.5,-1 3.3,-4.3 3.3,-5.9 0,-1.5 -2.5,-5 -6,-4.7 -3.5,0.3 -7.4,2.5 -7.4,7.2 0.2,4.7 1.3,15.4 18.7,14.7 z"
         id="path6" />
      <path
         d="m 396.2,213.8 c 2.5,-0.4 7.4,-0.9 13.2,-1 5.9,0.1 10.7,0.6 13.2,1 -0.3,-1.1 -0.4,-2.2 -0.3,-3.4 0,0 0.2,-1.8 1.2,-4.2 -2.7,0.2 -8,0.7 -14.1,0.8 -6.1,-0.2 -11.4,-0.6 -14.1,-0.8 1,2.4 1.2,4.2 1.2,4.2 0.1,1.2 0,2.4 -0.3,3.4 z"
         id="path7" />
      <path
         d="m 539.6,228.1 c -0.9,-2 -3.3,-7.3 -7.1,-11.7 -0.8,1.6 -1.9,3.2 -3.5,4.5 1.3,2.3 3.4,5.8 5,7.7 2.3,-0.5 4.3,-0.6 5.6,-0.5 z"
         id="path8" />
      <path
         d="m 289.9,220.9 c -1.6,-1.3 -2.7,-2.9 -3.5,-4.5 -3.8,4.4 -6.2,9.7 -7.1,11.7 1.3,0 3.3,0 5.6,0.5 1.6,-1.9 3.6,-5.4 5,-7.7 z"
         id="path9" />
      <path
         d="m 404.7,506 c -1.6,0.8 -2.7,2.2 -2.7,4.4 0,4.3 4.4,5.5 7.5,5.4 3.1,0.1 7.5,-1.1 7.5,-5.4 0,-2.2 -1.2,-3.6 -2.7,-4.4 -1.4,0.7 -2.9,1.2 -4.7,1.1 -2,0.1 -3.5,-0.4 -4.9,-1.1 z"
         id="path10" />
    </g>
    <path
       d="m 447.1,204.6 c 6.7,-0.7 13.9,4.8 31.6,11.9 17.7,7 23.1,9.5 40.3,8 2.6,-0.2 4.8,-0.8 6.6,-1.6 1.4,1.8 3.1,5.3 3.9,7.1 -8.4,3.8 -18.4,14.5 -18.4,44.5 0,13.5 3.5,25.7 9.1,35.3 h -84.5 v -90.2 c 2.7,-1 3.6,-3.1 3.9,-5.8 0.5,-3.8 -2.5,-6 -2.5,-6 1.6,-1.8 3.3,-2.5 10,-3.2 z"
       fill="#1b4695"
       id="path11" />
    <path
       d="m 289.3,230.1 c 0.8,-1.8 2.5,-5.3 3.9,-7.1 1.8,0.8 4,1.4 6.6,1.6 17.2,1.5 22.6,-1 40.3,-8 17.7,-7 24.9,-12.5 31.6,-11.9 6.7,0.7 8.4,1.3 9.9,3.2 0,0 -3,2.2 -2.5,6 0.3,2.7 1.3,4.8 3.9,5.8 v 90.2 h -84.5 c 5.5,-9.5 9.1,-21.8 9.1,-35.3 0.1,-30 -9.8,-40.7 -18.3,-44.5 z"
       fill="#e42916"
       id="path12" />
    <path
       d="m 362.1,458.6 c -8.7,-12.4 -11,-19.4 -11,-19.4 0,0 -1.3,6 -20.7,5.3 -10.8,-0.4 -33.1,-10.7 -35.1,-41.8 -1,-16.2 0,-31.6 -2.6,-45.2 h 90.5 v 113.4 c -8.1,-1.7 -14.1,-2.3 -21.1,-12.3 z"
       fill="#1b4695"
       id="path13" />
    <path
       d="m 409.4,488.9 c -2.6,-3.3 -10.8,-13.2 -20.2,-16.3 -0.7,-0.2 -1.3,-0.4 -1.9,-0.6 V 353.4 h -95.7 c -2.4,-9.1 -6.9,-17.4 -15.4,-24.3 7.3,-1.8 14.2,-7.2 19.8,-15.1 h 91.3 v -93.7 h 0.4 c 2.7,0 4.7,-0.9 6.1,-2.2 0,0.1 0,0.2 0.1,0.2 5.4,-2 10.8,-2.8 15.6,-2.8 4.8,0.1 10.2,0.8 15.6,2.8 0,0 0.1,-0.1 0.1,-0.2 1.4,1.3 3.4,2.2 6.1,2.2 h 0.4 V 314 H 523 c 5.5,7.9 12.5,13.3 19.8,15.1 -8.5,7 -13,15.2 -15.4,24.3 h -95.7 v 118.7 c -0.6,0.2 -1.3,0.4 -1.9,0.6 -9.5,3 -17.8,12.9 -20.4,16.2 z"
       fill="#ffffff"
       id="path14" />
    <path
       d="m 523.7,402.8 c -2,31.1 -24.3,41.4 -35.1,41.8 -19.4,0.7 -20.7,-5.3 -20.7,-5.3 0,0 -2.3,7 -11,19.4 -7,10 -13,10.6 -21,12.4 V 357.6 h 90.5 c -2.8,13.6 -1.7,29 -2.7,45.2 z"
       fill="#e42916"
       id="path15" />
    <path
       d="m 453.9,254.6 c 0,0 0.3,-5.2 8,-10.2 0,0 3.4,-7.4 10.7,-8.4 0,0 0.7,-6.3 5.2,-6.5 4.5,-0.2 6.2,3.5 6.2,6.5 0,0 10.9,2.2 12.2,8.9 0,0 16.1,8.5 12.4,35.4 -0.5,3.7 -0.5,10.2 -24.4,9.7 -23.9,-0.5 -38.1,0.9 -38.1,-12.4 0,-9.5 3.3,-12.9 3.3,-12.9 0,0 0.7,-7.8 4.5,-10.1"
       id="path16" />
    <path
       d="m 468.2,241.4 c 0,0 -2.7,2.7 1.5,2 4.2,-0.7 8,-0.5 9.4,-0.5 1.3,0 10.4,0.8 10.4,0.8 0,0 4.7,0.5 0.7,-2 -4.2,-2.5 -12.8,-5.8 -22,-0.3"
       fill="#ffe100"
       id="path17" />
    <path
       d="m 476.7,287.7 c 0,0 24.4,1 24.3,-3.5 -0.2,-4.5 -24.1,-4.3 -24.1,-4.3 0,0 -24.1,-0.2 -24.1,4.3 0,4.5 23.9,3.5 23.9,3.5"
       fill="#ffe100"
       id="path18" />
    <path
       d="m 506.5,278.6 c 0,0 -0.2,-2 -3.8,-3.8 -3.7,-1.8 -11.3,-4.5 -19.9,-4.5 -0.2,0 -2.7,-0.5 -1,2.8 1.7,3.3 1,2.8 5.5,3.5 4.5,0.7 5.8,-0.2 9.7,1.2 3.8,1.3 8.9,4.8 9.5,0.8"
       fill="#ffe100"
       id="path19" />
    <path
       d="m 449.2,278.1 c 0,0 0.2,-2 3.8,-3.8 3.7,-1.8 11.3,-4.5 19.9,-4.5 0.2,0 2.7,-0.5 1,2.8 -1.7,3.3 -1,2.8 -5.5,3.5 -4.5,0.7 -5.9,-0.2 -9.7,1.2 -3.3,1.1 -8.9,5 -9.5,0.8"
       fill="#ffe100"
       id="path20" />
    <path
       d="m 452.3,271.8 c 0,0 -3,2.2 -1.5,-2.3 1.5,-4.5 9.2,-7.2 28.3,-7.7 2.9,-0.1 24.8,2.4 25.6,9 0.2,1.3 -0.3,1.8 -2,1.6 -1.7,-0.2 -13.9,-5.7 -25.9,-5.2 -12.2,0.6 -20.4,2.4 -24.5,4.6"
       fill="#ffe100"
       id="path21" />
    <path
       d="m 460.1,254.1 c 0,0 -6,1.7 -6.7,5.7 -0.5,2.8 0.7,3.2 2,2.7 1.3,-0.5 11,-3.3 23.4,-2.7 12.4,0.7 20.9,3.2 20.9,3.2 0,0 2.3,1.8 3.8,-0.3 1.5,-2.2 -1.5,-7.4 -10.7,-9.2 -9.1,-1.9 -21.8,-1.6 -32.7,0.6"
       fill="#ffe100"
       id="path22" />
    <path
       d="m 459.9,252.3 c 0,0 -2.8,0.7 -0.7,-2 2.3,-2.8 6.2,-6 19.4,-5.4 4,0.2 13.5,-0.8 19.1,5.4 1.5,1.7 1.7,3.5 -2,2 -3.6,-1.5 -25,-3.2 -35.8,0"
       fill="#ffe100"
       id="path23" />
    <path
       d="m 380.6,321 c 0,0 4,-6.2 12.6,-6.2 2.3,0 3.3,1.7 6.2,2.2 2.9,0.5 3.3,0.3 3.3,0.3 0,0 1.3,-5 -0.3,-7 -0.1,-0.1 1.5,-0.8 2.5,3.3 0,0 3,2.5 3,-4.5 0,-0.2 3.3,8.4 5,-1.2 0,-0.2 0.3,9.2 7.4,0.2 0,0 -6.7,8.9 1,8.2 7.7,-0.7 14.3,1.9 16.9,6.5 0.7,1.3 -5.3,4 -6.8,3.9 -1.5,-0.2 3.2,3.3 2.7,6 -0.5,2.7 -8.3,4.2 -13.8,1.5 -0.3,-0.2 3.9,6.7 2.9,7.7 -0.2,0.2 -2,-2.8 -4.2,-2.5 -0.3,0 -3,14.2 -8.4,14.5 -7.2,0.4 -8.5,-11.5 -9,-15.1 0,0 -2.2,-0.5 -3,2.8 -0.1,0.4 0.2,-4.9 2.7,-4.9 0.3,0 -0.3,-1.6 -0.2,-2.9 0,0 -5.1,2.7 -5.2,3.5 -1,5.1 -2.9,-1 -2.2,0 -1.8,-2.5 -10.8,-1.3 -11.5,-5 -0.3,-1.7 2.8,-3.3 3.7,-4.3 0.8,-1 0.7,-2 -0.8,-3 -1.6,-1.1 -2,-0.8 -4.5,-4"
       id="path24" />
    <path
       d="m 425.5,323 c 0,0 0.5,3 1.8,3.3 1.3,0.3 2.3,0 2.2,-0.8 -0.2,-0.8 -2.7,-1.1 -4,-2.5"
       fill="#ffffff"
       id="path25" />
    <path
       d="m 417.8,324.6 c 0,0 7,4 11.4,3.3 0,0 3.3,5.9 -2.5,5.5 -5.9,-0.3 -10.1,-2.3 -8.9,-8.8"
       fill="#ffffff"
       id="path26" />
    <path
       d="m 416.9,319.9 c 0,0 10.4,-6.7 16.2,2.8 0,0 -3.3,3.3 -9,-2 0,0 -1.2,1.7 0.3,4 0,0 -5.2,0.5 -7,-1.3 -0.1,-0.2 -0.6,-2.2 -0.5,-3.5"
       fill="#ffffff"
       id="path27" />
    <path
       d="m 385.3,332.1 c 0,0 0.7,-5.2 11.7,-4.5 0,0 -2.3,2.2 -1.8,4.3 0.1,0.2 2.7,-4.7 6.2,-4.7 0.2,0 -3.2,-1.3 -3.2,-1.3 0,0 0.6,-2.3 2,-2.3 0.2,0 -2.8,0.7 -3.3,2 l -6.4,0.5 c 0,0 -3.5,-0.4 -5,-4.5 -0.1,-0.2 2.2,-4.3 5.7,-3.7 0,0 0,4.2 1.3,5.5 0,0 0.1,-3.7 3.5,-3.3 0.2,0 -1.5,-2.5 -1.5,-2.5 0,0 4.3,2.5 8.5,1.5 0,0 -1,4.3 2.3,5.9 0,0 -0.7,1.7 -3.9,6.2 0,0 -3.7,6.1 -7.5,2.3 -0.1,-0.3 -1.9,4.1 -8.6,-1.4"
       fill="#ffffff"
       id="path28" />
    <path
       d="m 398.5,319.5 -2.8,2.9 4.8,-3 z"
       id="path29" />
    <path
       d="m 406.2,320 c 0,0 2.2,1 5.2,1.2 3,0.2 4.2,-0.8 4.3,-2.2 0.2,-1.3 -1,-4 -4,-4.2 -3,-0.1 -6.5,1.4 -5.5,5.2"
       fill="#ffe100"
       id="path30" />
    <path
       d="m 408.1,323.5 c 0,0 0.7,1.7 3,1.9 2.3,0.2 3.8,-0.7 4.2,-1.7 0.3,-1 -1.9,-1.8 -7.2,-0.2"
       fill="#ffe100"
       id="path31" />
    <path
       d="m 403.4,333.2 c 0,4.1 6.4,2.4 6.3,3.8 -0.1,1.4 -5.6,-0.3 -5.5,2.4 0.1,1.7 2.2,2.5 6.2,2.7 4,0.2 6.4,-0.8 6.5,-2.2 0.3,-2.8 -6.6,-2.1 -6.6,-3.1 0,-1.1 8,-0.2 7.7,-4.1 -0.2,-2.3 -10.3,-1 -10.4,-2.1 -0.1,-1.2 8.2,-0.4 8,-1.9 -0.2,-1.5 -3.7,-2 -5.2,-2.2 -1.5,-0.2 -9.8,1.6 -4.3,3.9 2.1,0.8 -2.7,0.5 -2.7,2.8"
       fill="#ffe100"
       id="path32" />
    <path
       d="m 405.7,343.6 c 0,0 4,2 9.6,0.4 0,0 -0.9,6.1 -5.2,6.1 -4.3,0 -4.4,-6.5 -4.4,-6.5"
       fill="#ffe100"
       id="path33" />
    <path
       d="m 321.4,242 c 0,0 5.3,3.2 5.3,-2.8 0,-0.3 4.8,0.3 1.7,-3.7 0,0 4.4,-0.5 1.2,-3.5 0,0 2.8,-0.8 4,-4.7 1.2,-3.8 2.3,-3.7 4.2,-2.7 1.8,1 1.8,-1 2,-2.7 0.2,-1.7 2.2,-0.5 2.2,-0.5 0,0 1.5,-2.7 2.7,-2.3 1.2,0.3 1.5,3.2 3.3,3.2 1.8,0 3,-4 3,-4 0,0 1.5,-1.2 3,0.8 1.5,2 2,4.8 2,4.8 0,0 1.2,1.5 2,1.7 0.8,0.2 1,1.3 2.2,1.5 1.2,0.2 1.7,-2 3,-2 1.3,0 3.2,0.2 3,2.5 -0.2,2.3 -0.3,5.3 -0.3,5.3 0,0 1.3,0.3 2.7,1.3 1.3,1 2.7,1 2.5,2.2 -0.2,1.2 -0.7,1.5 -2.2,2.8 -1.5,1.3 -3.5,3.3 -1.2,3.2 2.3,-0.2 5.7,0.3 4.8,2 -0.8,1.7 -2.3,3.2 -1.7,4.3 0.7,1.2 2.7,2 2.7,2 0,0 1.2,1 -0.5,1.8 -1.7,0.8 -4.2,2.2 -5,3.5 -0.8,1.3 -1.8,2.7 -2.3,3.3 -0.5,0.7 -1.8,1.8 -1.8,1.8 0,0 -1.3,2.3 0.5,1.2 1.8,-1.2 3.2,-2 3.2,-3.2 0,-1.2 1.2,-1.5 1.8,-1 0.7,0.5 2.8,1.8 0.7,3 -2.2,1.2 -3.5,2 -4,3 -0.5,1 -1.8,2 -2.7,2.5 -0.8,0.5 -1,1.8 0,3 1,1.2 3.5,3 2.7,5.2 -0.8,2.2 -2.2,2.2 -2.5,5.2 -0.3,3 1,7.9 2.3,9.5 1.3,1.7 3.3,4.7 0.8,6 -2.5,1.3 -21.1,9.9 -39,-1 -3.4,-2.1 -0.3,-4.7 0.7,-6.7 1,-2 4.7,-8.4 3.5,-10.2 -1.2,-1.8 -2.3,-2.5 -1.7,-4.5 0.7,-2 2.8,-2.7 2.3,-4.5 -0.5,-1.8 -2,-5.7 -4.4,-7.3 -2.3,-1.7 -5,-3 -4.3,-4.7 0.7,-1.7 1.2,-2.5 2.3,-1.5 1.2,1 1.3,2.5 2.7,2.5 1.3,0 2.3,-1.3 2.2,-2.3 -0.2,-1 -0.5,-0.7 -2,-1.7 -1.5,-1 -2.3,-2.7 -3.3,-4 -1,-1.3 0.2,-2.5 -1.7,-3.9 -1.8,-1 -2.6,-2.9 -2.6,-3.7"
       id="path34" />
    <path
       d="m 329.3,246.5 c 0,0 -0.3,0.8 -0.2,1.7 0.2,0.8 -0.3,3 -0.3,3 0,0 1.2,0.8 2,-1 0.8,-1.8 1,-3.5 -1.5,-3.7"
       fill="#ffe100"
       id="path35" />
    <path
       d="m 332.9,243.2 c 0,0 -1.7,1.5 -0.5,2 1.2,0.5 2.2,0 2.2,0 l -0.2,-2.2 z"
       fill="#ffe100"
       id="path36" />
    <path
       d="m 329.4,242.3 c 0,0 -1.8,2.2 -0.3,2.5 1.5,0.3 1.5,-0.3 1.5,-1.2 0,-0.8 -0.3,-1.3 -1.2,-1.3"
       fill="#ffe100"
       id="path37" />
    <path
       d="m 345.2,222.8 c 0,0 0.8,1 1.8,2.2 1,1.2 1.3,0.8 2.2,-1 0.8,-1.8 2,-2.7 2.8,-2.2 0.8,0.5 1.8,0.8 1.8,2.8 0,2 -0.8,4.3 0.3,5.5 1.2,1.2 2.7,1.2 2.7,0 0,-1.2 0.7,-1.5 2,-0.7 1.3,0.8 3.9,1.7 2.3,2.7 -1.5,1 -3.8,3 -1.8,4.2 2,1.2 3.3,1.5 4.3,0.2 1,-1.3 0,-1.7 0.5,-2.5 0.5,-0.8 2,0.2 2.7,1.7 0.7,1.5 0.2,2 -0.7,2.8 -0.8,0.8 -2.2,-0.2 -2.5,0.7 -0.3,0.8 0.3,2.2 -0.3,3 -0.7,0.8 -3.2,1.3 -3.5,2.3 -0.3,1 -1.7,1.5 -0.7,2.5 1,1 1.3,2 2,1.3 0.7,-0.7 0,-1.7 -0.3,-2.5 -0.3,-0.8 -0.7,-0.7 1,-1 1.7,-0.3 2.3,-1.2 2.8,-0.5 0.5,0.7 0.8,1.5 2.7,1.2 1.8,-0.3 1.8,0.5 2,1.5 0.2,1 0.5,1 -1,2.2 -1.5,1.2 -4.2,2.3 -4.7,3.7 -0.5,1.3 -1.5,3.7 -1.3,4.3 0.2,0.7 0.3,0.7 1,0.5 0.7,-0.2 0.5,-1.2 0.7,-2.2 0.2,-1 -0.2,-2 1,-1.7 1.2,0.3 1.2,1 1,1.8 -0.2,0.8 -0.7,2 -1.3,2.7 -0.7,0.7 -1,1.8 -1,1.8 0,0 -0.2,1.2 -1,1.5 -0.8,0.3 -1.5,0.3 -1.7,-0.3 -0.2,-0.7 -0.3,-1.3 -0.3,-1.3 0,0 -1.2,0.3 -0.8,1.3 0.3,1 1.5,0.8 1.5,1.8 0,1 0,2 -0.8,1.8 -0.8,-0.2 -2.3,0.2 -2.3,0.2 0,0 0.2,-2.8 -0.3,-3.5 -0.5,-0.7 -1.7,-1.3 -2.2,-0.3 -0.5,1 0,1.5 0.7,2 0.7,0.5 0.8,1.7 0.7,2.5 -0.2,0.8 -1.2,0.7 -2.5,0.2 -1.3,-0.5 -2.8,-2.2 -3.3,-5.3 -0.5,-3.2 -1.8,-3.2 -1.8,-3.2 0,0 -1.7,-0.5 -2.3,-1.5 -0.7,-1 -1.3,-1.5 -0.3,-2.8 1,-1.3 1.7,-2.2 1.7,-3.3 0,-1.2 -1.5,-1.8 -2.5,-0.5 -1,1.3 -1.5,3 -0.8,5.5 0.7,2.5 1.5,2.8 1.7,4.5 0.2,1.7 -0.7,1.7 0.3,4 1,2.3 2,3.2 4,3.7 2,0.5 2.7,0.5 3.7,1 1,0.5 2.8,1.7 1,1.8 -1.8,0.2 -3.9,0.3 -6,0.7 -2.2,0.3 -8.9,0.8 -8.9,0.8 0,0 -4.4,2.2 -6.9,-6.3 -0.1,-0.2 -3,-1.2 -3,-3.3 0,-2.2 -0.3,-2.8 0.8,-3.8 1.2,-1 1.8,-1.5 1.8,-2.7 0,-1.2 -1.3,-3 -1.3,-3 0,0 -0.7,-0.5 0.5,-2 1.2,-1.5 1.5,-0.7 2.7,-3.3 1.2,-2.7 1.3,-3.2 0.8,-4.2 -0.5,-1 -1.8,-1.5 -2.7,-2.7 -0.8,-1.2 -1.5,-1.2 -1,-2.3 0.5,-1.2 0.5,-3 2.3,-4.2 1.8,-1.2 2.5,-2 2.3,-4 -0.2,-2 -0.8,-2.3 0.3,-2.5 1.2,-0.2 0.5,0.8 1.5,0.8 1,0 0.2,-1.5 1.3,-1.3 1.2,0.2 0.7,0.5 1.3,2 0.7,1.5 1.3,3 2,0.8 0.6,-2.3 -0.7,-6.3 1.3,-6.6"
       fill="#ffe100"
       id="path38" />
    <path
       d="m 335.3,273.4 c 0,0 -0.8,3.3 4.2,3.3 5,0 4.7,-0.7 7.2,-0.5 2.5,0.2 4,0 6.7,-0.3 2.7,-0.3 3.3,0.2 4.5,-0.7 1.2,-0.8 1.3,-0.8 2.2,-0.8 0.8,0 2.3,1.5 2.5,0.2 0.2,-1.3 -2,-3 -4.3,-3.3 -2.3,-0.3 -4.2,0.8 -7.2,1 -3,0.2 -4.7,1 -8.5,0.8 -4,-0.2 -5.5,-0.7 -7.3,0.3"
       fill="#ffe100"
       id="path39" />
    <path
       d="m 331.1,291.8 c 0,0 1.2,0.2 2.2,-2.8 1,-3 2.8,-6.2 2.8,-6.2 0,0 -1.2,7 -2.2,8.9 -1,1.8 -0.5,4.5 1,4.8 1.5,0.3 2.5,-0.5 2.9,-2.7 0.3,-2.2 0.7,-4.7 0.7,-4.7 0,0 1.2,-2.7 1.7,0.7 0.5,3.3 -0.3,6.9 0.7,7.5 1,0.7 2,0.5 3.7,0.8 1.7,0.3 3.7,1 3.3,-3.2 -0.3,-4.2 0.2,-5.9 0.2,-5.9 l 1.8,0.7 c 0,0 0,-2.8 -1.5,-3.8 -1.5,-1 1.3,-1.3 2.7,0.5 1.3,1.8 0.5,3 0.3,5.2 -0.2,2.2 -0.2,6.3 1.8,6.2 2,-0.1 2.7,-1.6 2.7,-4.2 0,-0.2 0.3,3.2 2.2,3.2 1.9,0 1.5,-3.5 -0.7,-7.9 -0.2,-0.3 2.7,2.5 4.8,0.5 0.1,-0.1 1.6,-10.7 -1.5,-10.7 -0.2,0 -5.5,-0.5 -9,-0.7 -3.5,-0.2 -4.8,-1 -6.5,-0.8 -1.7,0.2 -1.3,1.7 -3.3,2.2 -2,0.5 -4.7,-1.2 -6.2,-0.3 -1.5,0.8 -1.2,2.3 -1.5,3.8 -0.4,1.6 -5.1,7.1 -3.1,8.9"
       fill="#ffe100"
       id="path40" />
    <path
       d="m 357.5,255.5 c 0,0 -2,2.3 -0.3,2.2 1.7,-0.2 1.8,-0.5 2.7,-1.2 0.8,-0.7 1.2,-2.5 0,-2.7 -1.2,-0.1 -2.4,1.7 -2.4,1.7"
       id="path41" />
    <path
       d="m 358.2,251 c 0,0 -1.3,0.2 -1,1 0.3,0.8 0.7,1.2 1.3,1 0.7,-0.2 1.5,-0.5 1.5,-1.2 0.1,-0.6 -1.1,-0.8 -1.8,-0.8"
       id="path42" />
    <path
       d="m 353.2,252 c 0,0 -2.2,-0.2 -2,-1.8 0.2,-1.7 0.3,-1.3 1.3,-2.5 1,-1.2 1.2,-1 2.2,-0.8 1,0.2 1.5,0.8 1.5,1.7 0,0.8 -1.2,1.5 -1.5,2.2 -0.3,0.6 -0.5,1.4 -1.5,1.2"
       id="path43" />
    <path
       d="m 337.6,250.7 c 0,0 -1,1.8 0,2.5 1,0.7 1,0.8 1,2.3 0,1.5 -0.5,2.3 1.7,2.2 2.2,-0.2 3.5,-0.3 3.5,0.3 0,0.7 -1.5,0.3 -1.2,2 0.3,1.7 0.8,8.2 -0.3,8.4 -1.2,0.2 -0.5,-1.3 -1.5,-3.2 -1,-1.8 -1.5,-2 -1,-3.8 0.5,-1.8 -0.5,-2.2 -0.5,-2.2 0,0 0.2,1.2 -0.8,1.2 -1,0 -1.2,-0.8 -2.2,-2 -1,-1.2 -1.7,-1.2 -1.7,-1.2 0,0 0,-0.7 1.3,-1 1.3,-0.3 1,-1 0.8,-2.2 -0.2,-1.2 -1.7,-1.7 -1.5,-2.7 0.3,-0.9 1.3,-1.3 2.4,-0.6"
       id="path44" />
    <path
       d="m 338.6,246.5 c 0,0 -0.7,1.5 0.5,2.8 1.2,1.3 1,3 1.2,3.8 0.2,0.8 0.3,2.5 1.3,2.5 1,0 1,-2.7 0.5,-4.5 -0.5,-1.8 -0.3,-1.3 -1.3,-2.3 -1,-0.9 -1.3,-2.6 -2.2,-2.3"
       id="path45" />
    <path
       d="m 347.8,241.3 c 0,0 -1.7,0.3 -1.3,2.5 0.3,2.2 0.8,3.8 1.8,3.5 1,-0.3 1.3,-2.3 1.2,-3.3 -0.2,-1 0.2,-2.7 -1.7,-2.7"
       id="path46" />
    <path
       d="m 346.5,233.2 c 0,0 -1.5,1.8 -0.7,2.5 0.8,0.7 1.3,0.3 2.2,-1 0.8,-1.3 1.5,-1 2.3,0.2 0.8,1.2 0.3,2.2 0.5,3.3 0.2,1.2 0.7,2 1.7,0.2 1,-1.8 2.2,-3.5 0.5,-5.2 -1.6,-1.7 -5.3,-1.2 -6.5,0"
       id="path47" />
    <path
       d="m 336.8,236.5 c -0.4,1.8 0.7,4 2,4.9 1.3,0.8 1.2,1.7 1.7,3 0.5,1.3 0.8,2.7 2,2.3 1.2,-0.3 0.5,-0.7 0,-3 -0.5,-2.3 -0.7,-2.3 -0.5,-4.2 0.2,-1.8 0.3,-3.2 -0.5,-4 -0.8,-0.8 -1.2,-1.3 -2,-0.3 -0.9,1 -2.5,0.5 -2.7,1.3"
       id="path48" />
    <path
       d="m 356.5,282.1 c 0,0 -1,4 0.2,4.7 1.2,0.7 2,1 2.3,-0.8 0.4,-1.9 -1.1,-3.6 -2.5,-3.9"
       id="path49" />
    <path
       d="m 355.2,236.7 c 1.5,0.3 2.3,3.4 0,2.7 0,-0.1 -1.9,-3.1 0,-2.7"
       id="path50" />
    <path
       d="m 379.5,417.5 c -1,-1 -2,-3.5 -4.7,-5.7 -1.9,-1.5 -5.6,-2.5 -7.7,-3 0.7,-1.4 1,-2.5 1,-2.5 0,0 0.5,-4.2 1,-10 0.5,-5.9 -4,-3.7 -7.4,-1.9 -3.3,1.9 -9.4,5.7 -13,10.7 -2.6,3.5 -1.4,9.7 -0.4,13.1 -1.8,-2.1 -4.5,-5.5 -5.6,-7.7 -1,-2.1 -0.4,-6.1 0,-7.7 3.9,-0.8 5.4,-2.1 5.4,-2.1 0,0 3.9,0.3 3.9,-2.7 0,-0.2 10.7,-1.8 7.9,-18.4 0,0 1.8,-3.4 -1.7,-4 -0.6,-0.1 0.4,-8.2 -6.4,-11.9 -7,-3.8 -10.4,-2.3 -11,-2.2 -0.7,0.2 -2.7,-3.5 -10.9,-1.3 -8.2,2.2 -13,8.7 -13,12.5 0,0.2 -2.8,0 -3.2,6 -0.3,6 -0.3,10.4 2.2,12.5 2.5,2.2 3.7,4.5 6.5,3.8 0,0 -0.3,2.2 3.2,2.2 0.2,0 0.5,5.9 10,6 h 2.5 v 8.6 c 0,0.5 0,0.9 0.1,1.3 -2.5,-5.5 -9.3,-15.4 -26.2,-16 0,0 -0.8,27.5 27.1,19.6 0.5,1.2 1,2.3 1.7,3.4 l -4.5,0.9 c -21.4,-6.9 -21.1,13.7 -21.1,13.7 22.9,9.7 21.6,-9.9 21.6,-9.9 l 7.1,-0.7 c 2.6,3 5.4,5.4 6.7,7.1 2.7,3.5 4.3,5.4 10.2,11.9 5.9,6.5 7.7,6 7.7,6 0,0 0,-9.5 -0.3,-9.7 -8.1,-4 -9.9,-10.4 -11.9,-12 -1.3,-1.1 -3.1,-3.5 -4.6,-5.5 0.7,0.1 1.4,-0.1 2,-0.3 1.7,1 3.6,0.7 5,0.8 1.7,0.2 2,-0.5 4.5,0.5 2.5,1 5.2,2.5 6.9,2.7 1.7,0.2 2.8,-0.7 4.3,-1.3 1.5,-0.7 2.8,-1.7 5.4,-2.3 2.2,-0.9 0.7,-3.5 -0.3,-4.5 z"
       id="path51" />
    <path
       d="m 343,398.8 c -5.2,0 -5.5,-1.2 -7.4,-1.2 -1.8,0 -2.8,0.7 -5.2,0.5 -1.5,-0.1 -3.2,-1 -3.6,-2.6 0,2.2 1.7,4.7 8.3,5.6 11.8,1.7 12.7,-3.8 12.5,-6.1 -0.1,1.3 -0.9,3.8 -4.6,3.8 z"
       fill="#ffffff"
       id="path52" />
    <path
       d="m 354.6,379.2 c 0.8,0.7 1.4,1.9 0.8,4.2 -0.7,2.6 -1.5,2.5 -2.2,4.2 -0.7,1.7 -0.2,2.7 -1,5.2 -0.8,2.5 -4.7,1.2 -4.5,1.2 2,0 3,-1 3.5,-2.7 0.5,-1.7 0,-3.5 0.3,-4.8 0.3,-1.3 2.2,-2.8 2.3,-4 0.1,-0.7 -0.3,-2.1 -0.6,-3 -2.2,0.1 -4.4,-0.7 -4.2,-0.7 7.4,0 6.5,-4.2 6.2,-5.7 -0.3,-1.5 -2.7,-4.7 -4,-5.8 -1.3,-1.2 -4,-3.8 -7.2,-4.5 -3.2,-0.7 -5.7,4 -5.7,4 1.8,-2.2 4.4,-1.8 6,-1.2 1.7,0.7 2.3,2.7 3.3,3.5 1,0.8 1.2,0.8 3.5,1.8 2.3,1 1.5,5.5 1.5,5.5 0,0 -0.5,-2.5 -1.7,-3.5 -1.2,-1 -3.3,-0.7 -4.9,-1.7 -1.5,-1 -1.3,-3.5 -2.9,-4.7 -1.5,-1.2 -5,0.2 -5,0.2 0.5,-2.9 -2.2,-5.2 -3.5,-5.4 -1.3,-0.2 -5.2,2.2 -8.2,3.7 -3,1.5 -3.5,0.8 -6,4.9 -2.5,4 2,7.2 2,7.2 0,0 -7,-4.2 -6.4,6.5 0.5,7.4 3.7,9.3 6.7,9.4 -0.3,-1.7 -0.7,-3.7 -1,-4.6 -0.7,-1.7 -1.5,-3.2 -1.7,-4.3 -0.2,-1.2 -0.8,-4.3 1.2,-1.5 2,2.8 1,1.7 1.5,3.7 0.5,2 0,3 0.7,4.2 0.6,1 1.7,2.5 3.5,1.8 0.3,-0.1 0.5,-0.2 0.8,-0.4 l -0.2,0.2 c 0.2,-0.1 0.3,-0.2 0.3,-0.2 0,0 -0.2,0.2 -0.4,0.6 -0.1,1.1 -0.2,4 1.6,4.2 2.2,0.3 4.2,-0.7 6.5,-0.3 2.3,0.3 4.2,1.3 6.2,1.3 2,0 4.1,0.8 5.6,-3.3 0,-0.3 -0.1,-0.4 -0.1,-0.4 l 0.2,0.2 v 0.1 c 4,5.5 8.2,-2.8 8.5,-4.6 0.3,-1.8 0.7,-2.3 1.5,-6.2 1.1,-3.9 -0.3,-5 -2.8,-4.3 z m -24.3,-9 c 0,0 -4.7,-0.3 -8.4,2.3 0,0 1.8,-3.2 6,-4.2 0,0 2,-4 7.7,-4.3 0,0 -5.5,3.3 -5.3,6.2 z"
       fill="#ffffff"
       id="path53" />
    <path
       d="m 329.8,375.5 c 0,0 5.2,5.2 -2,8.2 0,0 8.7,0.5 8.7,7.4 0,0 1.8,-8.2 9,-4.9 0,0 -6.9,-6.2 -1.5,-11.5 0,0 -8.2,3.3 -14.2,0.8"
       id="path54" />
    <path
       d="m 336.8,377.9 c 0,0 3.3,0.7 3.2,3.8 -0.2,3.2 -1.8,3 -3.5,3 -1.7,0 -3.3,-1.8 -3.3,-3.2 -0.1,-1.3 1.1,-3.6 3.6,-3.6"
       fill="#ffe100"
       id="path55" />
    <path
       d="m 318.2,433.2 c 0,0 1,-14.5 14.2,-11.5 0,0 -2,3.2 -6.5,3.2 -0.2,0 0.8,2.7 -4.2,4.5 l 2.8,3 c 0,0 0.3,-5.8 5.4,-5.8 0.2,0 1.7,-4 3.7,-4.2 0,-0.1 1.4,17.6 -15.4,10.8"
       fill="#00a17f"
       id="path56" />
    <path
       d="m 314.7,400.9 c 0,0 18.2,0.2 20.2,14.4 0.1,0 -19,4.8 -20.2,-14.4"
       fill="#00a17f"
       id="path57" />
    <path
       d="m 363.6,415 c 0,0 -1,-2.9 0.3,-3.8 1.3,-1 2,-0.3 3.7,0 1.7,0.3 4,1 6.4,2.8 2.3,1.8 6.2,5.3 2.5,6.7 -3.7,1.3 -6,3.7 -11,1.3 -4.7,-2.2 -6,-2 -7,-1.7 -1,0.3 -4,-0.7 -0.2,-2 3.9,-1.3 4.5,-1.7 6.5,-1.3 2,0.3 3,1.2 3.7,1.8 0.7,0.7 3,0.8 1.3,-0.8 -1.7,-1.7 1.5,-0.5 1.5,-0.5 0,0 3.2,-0.2 0.2,-1.5 -3.1,-1.4 -5.3,-1.2 -7.9,-1"
       fill="#00a17f"
       id="path58" />
    <path
       d="m 350.2,418.8 c 0,0 -2.5,-4.8 0,-9.7 2.5,-4.9 5.5,-7.5 10.2,-10.5 4.7,-3 6.4,-5.1 6,-0.5 -0.3,4.3 -0.8,6.7 -0.8,6.7 0,0 -1,3.2 -3.3,6 -2.3,2.8 -8.5,8.5 -8.5,8.5 0,0 -1.6,3 -3.6,-0.5"
       fill="#00a17f"
       id="path59" />
    <path
       d="m 339.3,403.9 c 0,0 -1,8 1,11.9 2,3.8 5.5,7.5 7.5,9.4 2,1.8 4.4,5.4 6.2,7.4 1.8,2 1.7,3.5 4.2,5.3 2.5,1.9 6.9,6.2 6.9,6.2 l 0.2,-3.8 c 0,0 -2.3,-1.7 -5.4,-5 -3,-3.3 -4,-5.9 -5.9,-7.5 -1.8,-1.7 -3,-4.8 -5.7,-7.2 -2.7,-2.3 -4.5,-5.2 -6.2,-7.8 -1.7,-2.7 -1.8,-6.5 -1.2,-9.2 z"
       fill="#00a17f"
       id="path60" />
    <path
       d="m 319.9,405.8 c 0,0 1.2,3 -0.8,3.2 -2,0.2 7,-0.8 9.2,3.5 0,0 4.8,-0.3 6.2,2 0,0 -3.8,-3.3 -4.5,-5.7 -0.1,-0.2 -1,2.3 -4.9,-0.5 -3.9,-2.9 -5.2,-2.5 -5.2,-2.5"
       id="path61" />
    <path
       d="m 351.5,417.1 c 0,0 -1,-2 0.2,-3.5 1.2,-1.5 2.7,-2 2.7,-2 0,0 -0.5,-4.9 0.5,-5.9 1,-1 3.5,-0.8 3.5,-0.8 0,0 1.8,-2.8 2.3,-3.7 0.5,-0.8 3.5,-1.3 2.5,0.7 -1,2 -1.5,2.7 -3,3.8 -1.5,1.2 -3.7,3.7 -3.7,3.7 0,0 -0.8,1.8 -0.3,2.7 0.5,0.8 -0.2,1.8 -1.2,2.9 -1,1 -1.5,1.8 -3.5,2.1"
       id="path62" />
    <path
       d="m 450.8,394.3 c 0,0 -2.3,-12.1 3.3,-17.7 0.2,-0.2 -1.7,5.7 0.3,12 0,0 4,-2.5 6,-2.5 0,0 -1.2,5.9 0,9.4 0,0 2.5,-3 3.5,-2.5 0.1,0.1 0.5,7.3 1.3,9.9 0.1,0.2 2.8,-3 5,-2.3 2.2,0.7 1,5 1,5 0,0 2.8,1.3 2.3,4.7 -0.5,3.4 -0.5,3.8 0.8,4.7 1.3,0.8 1,1.8 0.7,3.8 -0.3,2 -0.7,5 -0.7,5 0,0 3.8,-0.7 5.2,0.7 0.2,0.2 0.3,-6 -2.2,-13.5 -2.5,-7.5 0.3,-8.8 -0.8,-10 -0.2,-0.2 -11.9,-5 -10.9,-14.2 0.7,-6 4.5,-8.2 4.5,-8.2 0,0 -0.2,-4.2 -3.8,-8.7 0,0 -2.2,-1.7 -0.8,-3.5 1.3,-1.8 -0.2,-2.5 3,-3.2 3.2,-0.7 9.5,-1.8 12.4,-1.8 2.8,0 6.2,0 14.4,4.7 0,0 3.5,2 0.3,5.7 -3.2,3.7 -4.3,7.9 -4.3,7.9 0,0 2.7,3.2 2.5,7.4 -0.2,4.2 -2.7,11.9 -10.2,13.5 0,0 -0.7,5.5 0.5,8.7 l 0.8,-3 c 0,0 0.3,-2.2 2.5,0 0.2,0.2 2.7,-5.9 2.7,-5.9 0,0 1,-2.3 2.7,-0.2 1.7,2.2 2.2,0.3 2.5,-1.3 0.3,-1.7 1.3,-5.9 3.3,-8.5 2,-2.7 2.8,-0.8 2.7,0.3 -0.2,1.2 0.8,3.3 1.7,-0.3 0.8,-3.7 2.5,-3.3 2.5,-3.3 0,0 1.7,0.2 1,3.2 -0.7,3 0.5,3.2 1.8,2.8 1.3,-0.3 5.9,-2.8 7,-3.2 1.2,-0.3 2.8,-0.7 3.2,0.5 0.3,1.2 -4.2,3.7 -5.2,5.7 -1,2 -4.2,6.9 1.8,4.8 0,0 -4.9,5.9 -1,10.9 0,0 -10.9,-2.5 -6.9,8.2 0,0 -5.2,-6.8 -5,2.5 0,0 -4.7,-4.3 -3.4,1.8 0,0 -5.7,-3.7 -5.5,1.8 0,0 -4.7,-4.9 -6,3.5 -1.3,8.4 -5.7,11.5 -11,10 0,0 4,-2.4 3,-5.7 -1,-3.3 -3.7,-5.7 -7.2,-5.3 -3.5,0.3 -7.4,4.7 -7.4,4.7 0,0 1.7,-5.4 -3.5,-4 0,0 2.5,-5.6 -7.7,-0.5 -0.3,0.2 6.2,-7.4 -6.5,-4.3 0,0 5.7,-6.8 8.4,-8 0,0 -3.3,-5.2 -12.5,-4.5 -0.2,0 1.5,-2.7 6.4,-5 0,0 -1,-4 -6.2,-4.7 0,0 2,-1.5 4,-1.5 0.2,0 -1,-5.5 0.2,-7.5 0.1,-0.3 1.9,1 3.5,1"
       id="path63" />
    <path
       d="m 450.4,409.5 c 0,0 5.9,1.7 8,6 0.1,0.1 -3.5,4.5 -3.5,4.5 0,0 3.7,1 3.9,2.8 0,0 5.9,-0.7 7.4,3.7 0,0 3.8,-0.8 5.8,-0.8 0.2,0 -8,-10.4 -8,-10.4 l 7.9,5.1 c 0,0 1.7,-1.3 0.3,-6.5 -1.3,-5 -2.8,-5 -2.8,-9.2 0,-0.2 -2.7,0.8 -3,2.8 0,0 -4.5,-3.7 -4.2,-8.5 0,0 -2,0.7 -2.2,2.3 0,0 -4.4,-3.9 -2.2,-11.9 0.1,-0.2 -1.7,0 -2.5,2.3 0,0 -1.7,-0.2 -2.7,0.2 0,0 -0.8,3 1,6.5 0.1,0.1 -3.2,-0.3 -4.7,-0.2 0,0 3.4,4.3 3.7,6.7 0.3,2.4 -0.2,3.8 -2.2,4.6"
       fill="#00a17f"
       id="path64" />
    <path
       d="m 481.4,435.1 c 0,0 3.9,-2.9 4,-7.7 0.2,-4.8 1,-3.9 2.3,-6.4 1.3,-2.5 4.2,-5.2 4.2,-9 0,-3.8 -0.2,-10.2 -3,-5.4 -2.9,4.8 -2.5,5.2 -2.9,7.7 -0.3,2.5 -1.3,3.2 -2.5,5.7 -1.2,2.5 -2.2,6.3 -2.2,8.2 0.1,1.9 0.1,6.9 0.1,6.9"
       fill="#00a17f"
       id="path65" />
    <path
       d="m 490.7,420 c 0,0 0.5,2 4.2,-0.2 5.4,-3.2 6.5,-1.7 9.4,-5 0,0 -1.1,-3.1 0.8,-5 0.2,-0.2 2.2,-1.3 5.4,-0.7 0,0 -1,-3.8 0.3,-5.8 0.1,-0.1 -5.7,-2.5 1.2,-9.4 0.2,-0.2 -6.3,1.7 -7.4,-1.2 -0.1,-0.1 -0.7,1.7 -2.8,1.3 -0.2,0 0.1,3.5 -1.9,5.5 -0.2,0.2 -2.7,-2 -3,1.3 -0.3,3.3 -2.7,4.8 -2.7,4.8 0,0 -1,3.3 0.8,3.7 1.8,0.3 2.2,-1.5 3.5,-4.2 1.3,-2.7 0.8,-0.5 2.7,-1.8 1.8,-1.3 2.7,-2.8 3.3,-2.3 0.7,0.5 0.3,1.8 -1.3,3 -1.7,1.2 -3.4,1.3 -3.2,2.8 0.2,1.5 0.3,1.5 -2.5,3.2 -2.8,1.7 -3,3 -2.8,4.2 0.2,1.2 -0.3,2 -2,2.8 -1.6,1 -2.3,2.4 -2,3"
       fill="#00a17f"
       id="path66" />
    <path
       d="m 481.9,415.4 c 0,0 -4.5,-8.5 -2.7,-16.7 0,0 -11.5,-2.3 -10.9,-10.9 0.7,-8.5 5,-1.5 5,-1.5 0,0 -0.8,-5.5 4.2,-2.3 0.1,0.1 -0.7,-3.8 2.5,-4.3 3.2,-0.5 3.5,2.7 3.5,2.7 0,0 3,-4.3 3.9,0.2 0,0 4.5,-3 4,4 -0.5,7 -1,8.4 -9.4,12 -0.2,0.1 -1.2,7.5 -0.2,10.9 1.1,3.2 1.2,3.5 0.1,5.9"
       fill="#00a17f"
       id="path67" />
    <path
       d="m 457.3,407 c 0,0 0.8,2.5 2,3.5 1.2,1 2.4,2 3.2,1 0.8,-1 -0.2,-2.2 -1.5,-3.2 -1.4,-1 -3.7,-1.3 -3.7,-1.3"
       id="path68" />
    <path
       d="m 470.7,381.1 c 0,0 -0.5,2.3 1.8,1.8 0,0 0.6,-1.5 2.5,-1.5 0.2,0 -1,-3.8 -4.3,-0.3"
       fill="#00a17f"
       id="path69" />
    <path
       d="m 472.8,377.1 c 0,0 2.5,0.5 4.3,0 1.9,-0.5 2.7,-0.7 4.9,-0.3 2.2,0.3 3.2,-0.4 4.2,-0.3 2.7,0.3 3.2,0.7 4.3,-1.7 1.2,-2.3 1.3,-6 1.2,-7.3 -0.2,-1.3 -4,2 -4.7,2.8 -0.7,0.8 0.8,-4.8 -2,-6.2 0,0 -3.3,1.2 -4.3,3.2 0,0 -3.2,-5.7 -6.9,1.7 -0.1,0.2 -7,-5.2 -4.5,1.3 2.5,6.4 3.5,6.8 3.5,6.8"
       fill="#8379b6"
       id="path70" />
    <path
       d="M 506.3,117.1 506,115 c 0,0 -15.2,-0.5 -32,-0.9 0.6,-0.4 1.2,-0.8 1.9,-1.2 2.9,-1.8 5.6,-3.5 7.9,-4.7 2.2,-1.2 4,-2 4.6,-2.1 l -0.2,-2.1 -9.4,-0.1 -3.6,-4.5 -0.8,0.5 c 0,0 -6.1,3.5 -12.2,7 -0.9,0.5 -1.7,1 -2.6,1.5 -3,-1 -6.4,-1.7 -10,-2.2 -1.1,-3.9 -4.3,-6.9 -8.8,-8.8 -4.7,-2.1 -10.9,-3.1 -17.9,-3.1 -6.5,0 -13.8,0.9 -21.4,2.9 -11.1,2.9 -20.8,7.4 -27.8,12.6 -6.9,5.2 -11.3,11.1 -11.3,16.9 0,0.8 0.1,1.6 0.3,2.4 -10.1,7.7 -16.3,16.3 -16.3,24.6 0,1.2 0.1,2.3 0.4,3.5 1.4,6 6.2,10.6 13.2,13.7 7,3.1 16.2,4.6 26.8,4.6 9.8,0 20.8,-1.4 32.1,-4.3 16.7,-4.3 31.2,-11.1 41.7,-18.9 10.4,-7.8 16.8,-16.5 16.9,-25 v -0.6 h 1.2 c 8.5,0 17.9,0.7 25.9,2.9 l 1,-1.9 -7.9,-6.9 z"
       id="path71" />
    <path
       d="m 457.1,109.9 c -1.2,0.7 -2.3,1.3 -3.3,1.9 -1,0.6 -1.9,1.1 -2.5,1.5 l -1.1,-4.8 c 2.4,0.3 4.8,0.8 6.9,1.4 z"
       fill="#ffe100"
       id="path72" />
    <path
       d="m 475.3,127 c 0,7.3 -5.8,15.7 -16,23.3 -10.1,7.6 -24.5,14.3 -40.9,18.5 -11.2,2.9 -22,4.2 -31.6,4.2 -10.3,0 -19.3,-1.6 -25.9,-4.5 -6.6,-2.9 -10.8,-7 -12,-12.2 -0.2,-1 -0.3,-2 -0.3,-3 0,-7 5.3,-14.9 14.7,-22.2 l 3.7,16.4 c 0.9,4.2 4.3,7.3 9,9.3 4.7,2.1 10.9,3.1 17.9,3.1 6.6,0 13.8,-0.9 21.4,-2.9 11.1,-2.9 20.8,-7.4 27.7,-12.6 6.8,-5.1 11.1,-10.8 11.3,-16.5 1.2,-0.2 3.5,-0.5 6.6,-0.8 3.8,-0.4 8.9,-0.7 14.4,-0.9 z"
       fill="#ffe100"
       id="path73" />
    <path
       d="m 364.2,128.6 0.6,-0.1 c -0.1,-0.6 -0.2,-1.2 -0.2,-1.9 0,-4.6 3.8,-10.2 10.5,-15.2 6.7,-5 16.1,-9.4 27,-12.2 7.4,-1.9 14.5,-2.8 20.8,-2.8 6.8,0 12.7,1 17,2.9 4.3,1.9 7,4.6 7.7,7.8 0.1,0.6 0.2,1.2 0.2,1.8 0,4.6 -3.8,10.2 -10.5,15.2 -6.7,5 -16.1,9.4 -27,12.2 -7.4,1.9 -14.5,2.8 -20.9,2.8 -6.8,0 -12.7,-1 -17,-2.9 -4.3,-1.9 -7,-4.6 -7.7,-7.8 z"
       fill="#ffe100"
       id="path74" />
    <path
       d="m 441.6,142.8 c -6.7,5 -16.1,9.4 -27,12.2 -7.4,1.9 -14.5,2.8 -20.9,2.8 -6.8,0 -12.7,-1 -17,-2.9 -4.3,-1.9 -7,-4.6 -7.7,-7.8 l -2.8,-12.3 c 1.5,1.4 3.3,2.5 5.4,3.4 4.7,2.1 10.9,3.1 17.9,3.1 6.6,0 13.8,-0.9 21.4,-2.9 11.1,-2.8 20.8,-7.4 27.8,-12.6 5.1,-3.8 8.8,-8 10.4,-12.3 l 0.3,1.6 1.2,5.4 1.4,6.5 v 0.7 c 0.1,4.6 -3.7,10.1 -10.4,15.1 z"
       fill="#1b4695"
       id="path75" />
    <path
       d="m 500.8,126.2 -7.3,-6.4 7.1,-2.8 c -3.4,-0.1 -8.3,-0.3 -13.9,-0.4 -4.9,-0.1 -10.4,-0.3 -15.9,-0.4 -4.3,2.8 -8.5,5.6 -11.6,7.8 -0.7,0.5 -1.4,1 -2,1.4 4.6,-0.5 12.5,-1.3 21.5,-1.3 7.1,0.1 14.9,0.6 22.1,2.1 z"
       fill="#1b4695"
       id="path76" />
    <path
       d="m 453.9,125.2 c 0.4,-0.3 0.9,-0.7 1.5,-1.1 1.8,-1.2 4.2,-2.9 7,-4.8 5.5,-3.8 12.4,-8.3 17.7,-11.4 1.1,-0.7 2.2,-1.3 3.2,-1.8 l -5.5,-0.1 -3.1,-3.8 c -1.8,1 -6.4,3.7 -11,6.4 -5,2.9 -10.1,5.9 -11.9,6.9 z"
       fill="#f2922f"
       id="path77" />
    <path
       d="m 233.4,136.8 -24.6,25.5 -1.9,-1.8 0.6,-0.6 c 3.3,-3.4 3.2,-4.9 -0.1,-8.1 l -17.6,-16.9 c -3.4,-3.3 -4.9,-3.2 -8.1,0.2 l -0.5,0.5 -1.9,-1.8 15.6,-16.2 1.9,1.8 -0.8,0.8 c -3.3,3.4 -3.2,4.9 0.2,8.1 l 17.8,17.2 c 2.9,2.8 3.4,2.8 5.5,0.6 l 5,-5.2 c 2.4,-2.5 3.1,-3.9 3.1,-5.8 0,-1.9 -0.3,-5.5 -0.8,-7.9 l 1.9,-2 z"
       id="path78" />
    <path
       d="m 238.5,80.8 13.8,-10.1 1.5,2.1 -0.4,0.3 c -3.9,2.9 -4.1,4.7 -0.6,9.5 l 7.2,9.9 c 4.1,5.6 5.2,7.9 5.4,11.6 0.4,5.6 -2.7,11 -8.8,15.5 -8.9,6.5 -17.4,6.9 -22.9,1.2 -0.9,-1 -1.8,-2.2 -3.1,-3.9 l -9.5,-13 c -3,-4.1 -3.9,-4.3 -7.7,-1.5 l -0.4,0.3 -1.5,-2.1 16.7,-12.2 1.5,2.1 -0.3,0.2 c -3.6,2.6 -3.8,4.2 -1.1,7.9 l 9.6,13.2 c 3.2,4.4 4.7,5.5 7.6,6.1 3.1,0.6 6.5,-0.4 9.9,-2.8 5.8,-4.3 7.4,-10 4.4,-15.5 -0.8,-1.3 -1,-1.7 -3.2,-4.7 l -6.8,-9.3 c -3.8,-5.2 -5.7,-5.8 -9.6,-2.9 l -0.4,0.3 z"
       id="path79" />
    <path
       d="m 296.2,85.5 c 2.1,4.2 3.4,4.7 7.7,2.6 l 1.4,-0.7 1.1,2.3 -21.4,10.6 -1.1,-2.3 1.5,-0.7 c 4.2,-2.1 4.7,-3.5 2.6,-7.7 l -12.9,-26.4 -6.2,3 c -5.3,2.6 -5.7,3.6 -3.7,10.5 l -2.4,1.2 -4.4,-11.6 1.9,-0.9 c 1.3,0.5 1.7,0.4 3.4,-0.4 l 1.5,-0.7 26.6,-13 0.9,-0.5 c 1,-0.5 1.4,-1.1 1.6,-2.1 l 1.9,-0.9 6.4,10.6 -2.3,1.1 c -4.4,-5.7 -5.3,-6.1 -10,-3.8 l -7,3.4 z"
       id="path80" />
    <path
       d="m 326.5,38.1 c 13.4,-3.9 25.1,1.8 28.5,13.8 3.5,12.3 -3.9,24.3 -17.7,28.2 -13.5,3.9 -25.6,-1.8 -28.9,-13.5 -3.6,-12.5 4,-24.5 18.1,-28.5 m 11.4,38.8 c 7.9,-2.3 11.2,-10.2 8.3,-20.4 -0.9,-3.2 -2.4,-6.1 -4.4,-8.8 -4.4,-6 -9.9,-8.2 -16,-6.5 -8.1,2.3 -11.5,10 -8.7,19.6 3.4,12.2 11.8,18.7 20.8,16.1 z"
       id="path81" />
    <path
       d="m 371.4,62.7 c 0.4,4.8 1.6,5.8 7,5.4 l 0.2,2.6 -16,1.3 -0.2,-2.6 h 0.6 c 3.9,-0.3 4.7,-1.4 4.4,-5.8 l -2.4,-29 c -1.5,-0.8 -3.4,-1.1 -5.4,-1 L 359.4,31 373,29.9 402.2,55.7 400.6,35.8 c -0.4,-4.7 -1.4,-5.5 -6.7,-5 l -0.7,0.1 -0.2,-2.6 17,-1.4 0.2,2.6 -0.7,0.1 c -4.7,0.4 -5.3,1 -4.9,5.6 l 2.7,33.4 -3.6,0.3 -34.4,-30.5 z"
       id="path82" />
    <path
       d="m 455.7,64.8 c -0.7,4.6 0.1,5.8 4.8,6.6 l 1.6,0.3 -0.4,2.5 -23.7,-3.8 0.4,-2.5 1.6,0.3 c 4.7,0.7 5.9,-0.2 6.6,-4.8 l 4.5,-29 -6.9,-1.1 c -5.8,-0.9 -6.7,-0.3 -9,6.5 l -2.7,-0.4 3,-12 2.1,0.3 c 0.8,1.1 1.1,1.3 3,1.6 l 1.6,0.3 29.3,4.6 1.1,0.2 c 1,0.2 1.8,-0.1 2.5,-0.8 l 2.1,0.3 -0.8,12.4 -2.6,-0.4 c -0.3,-7.2 -0.9,-8 -6,-8.8 l -7.7,-1.2 z"
       id="path83" />
    <path
       d="m 511.2,44.4 c 13.2,4.7 19.3,16.1 15.2,27.8 C 522,84.3 509,89.7 495.5,84.8 482.2,80.1 475.7,68.5 479.8,57 484.2,44.8 497.3,39.5 511.2,44.4 m -13.4,38.3 c 7.8,2.8 15,-1.8 18.6,-11.8 1.1,-3.1 1.6,-6.4 1.6,-9.7 -0.1,-7.5 -3.3,-12.5 -9.3,-14.6 -7.9,-2.8 -15.1,1.4 -18.5,10.8 -4.2,12 -1.2,22.1 7.6,25.3 z"
       id="path84" />
    <path
       d="m 538.1,64.8 0.2,-1.7 c 0.3,-3.2 -0.3,-4.7 -2.6,-6.2 l -0.5,-0.3 1.3,-2.2 15.1,9.1 -1.3,2.2 c -1.5,-0.8 -2.4,-0.7 -3,0.3 -0.2,0.4 -0.5,1 -0.5,1.5 l -0.1,1 -2.8,27.9 8.1,-5.2 1.8,-18.1 c 0.4,-3.8 0.1,-5.1 -1.5,-6.1 l 1.3,-2.2 24.8,15 -1.3,2.2 c -2.4,-0.8 -3.6,-0.6 -6.8,1.5 l -9.2,5.9 -1.4,15.7 20.2,-15.2 c 0.9,-0.6 1.4,-1.2 1.7,-1.7 1,-1.6 0.4,-2.9 -2,-4.4 l 1.3,-2.2 11.4,6.9 -1.3,2.2 c -2.8,-1.5 -4.8,-1 -8.5,1.7 l -28.7,21.6 -3.7,-2.3 1.5,-16.1 -13.4,8.9 -3.8,-2.3 z m 30.5,15.5 c 0.7,-0.5 1.2,-0.8 1.4,-1.2 0.4,-0.7 0,-1.5 -1.6,-2.4 l -3,-1.8 c -1.5,-0.9 -2.4,-1 -2.8,-0.2 -0.1,0.2 -0.2,0.3 -0.2,0.4 l -0.2,1.2 -0.7,8.5 z"
       id="path85" />
    <path
       d="m 582.6,123.8 c -3.3,3.5 -3.2,5 0.6,8.8 l -1.8,1.9 -11.6,-11 1.8,-1.9 0.4,0.4 c 2.8,2.7 4.2,2.6 7.2,-0.6 l 20.1,-21.1 c -0.4,-1.7 -1.4,-3.2 -2.9,-4.7 l 1.8,-1.9 9.9,9.4 0.1,39 13.8,-14.5 c 3.2,-3.4 3.2,-4.7 -0.7,-8.3 l -0.5,-0.5 1.8,-1.9 12.4,11.8 -1.8,1.9 -0.5,-0.5 c -3.4,-3.3 -4.3,-3.3 -7.5,0.1 l -23.1,24.2 -2.6,-2.5 -0.1,-45.9 z"
       id="path86" />
    <path
       d="m 176.9,424.8 c -4.6,2 -5,2.9 -3.2,7.2 l 0.1,0.3 -2.4,1 -7.8,-18.2 2.4,-1 0.2,0.4 c 1.4,3.3 2.5,3.8 5.3,2.7 l 1.5,-0.7 23.1,-9.9 c 3.8,-1.7 4.5,-3 3.1,-6.3 l -0.1,-0.3 2.4,-1 13.2,30.6 -8.5,3.7 -0.9,-2.2 0.8,-0.4 c 3.4,-1.8 3.9,-2.8 2.6,-6 l -1,-2.2 -3.9,-9.1 -13.9,6 3.2,7.4 c 2.3,5.4 3.3,6 7.2,4.5 l 1,2.4 -12.1,5.2 -1,-2.4 0.3,-0.1 c 3.3,-1.4 3.5,-2.8 1.5,-7.7 l -3.4,-7.8 z"
       id="path87" />
    <path
       d="m 231,453 c 8,11.5 6.4,24.3 -3.9,31.5 -10.5,7.3 -24.2,4.1 -32.4,-7.7 -8,-11.6 -6.6,-24.8 3.4,-31.7 10.8,-7.5 24.6,-4.2 32.9,7.9 m -33.1,23.3 c 4.7,6.8 13.3,7.3 22,1.2 2.7,-1.9 5,-4.2 6.9,-7 4.3,-6.1 4.6,-12.1 1,-17.3 -4.8,-6.9 -13.1,-7.6 -21.3,-1.9 -10.5,7.3 -13.9,17.3 -8.6,25 z"
       id="path88" />
    <path
       d="m 264.6,490.6 c 10.4,9.3 11.8,22.2 3.5,31.5 -8.6,9.6 -22.6,9.6 -33.3,0 -10.5,-9.4 -12.1,-22.6 -3.9,-31.7 8.6,-9.7 22.7,-9.6 33.7,0.2 m -26.9,30.3 c 6.2,5.5 14.6,4 21.7,-3.8 2.2,-2.5 3.9,-5.3 5.1,-8.4 2.8,-7 1.7,-12.8 -3,-17 -6.3,-5.6 -14.5,-4.4 -21.2,3 -8.5,9.5 -9.6,20 -2.6,26.2 z"
       id="path89" />
    <path
       d="m 290,549.9 c -2.3,4.1 -2,5.5 2.2,7.8 l 1.4,0.8 -1.3,2.2 -20.8,-11.7 1.3,-2.2 1.4,0.8 c 4.1,2.3 5.5,1.9 7.8,-2.2 l 14.4,-25.6 -6,-3.4 c -5.1,-2.9 -6.2,-2.7 -10.8,2.9 l -2.4,-1.3 7.1,-10.2 1.8,1 c 0.4,1.3 0.6,1.6 2.2,2.5 l 1.4,0.9 25.8,14.6 0.9,0.5 c 0.9,0.5 1.8,0.5 2.6,0.1 l 1.8,1 -5.1,11.3 -2.2,-1.3 c 2.2,-6.9 2,-7.8 -2.5,-10.4 l -6.7,-3.8 z"
       id="path90" />
    <path
       d="m 326.3,531.8 c 10.3,2.2 11.2,2.4 16.1,3.8 l 1.1,0.3 c 5.9,1.8 9.1,3.1 12.2,5.3 4.1,2.8 5.9,7 4.8,10.9 -1.2,3.9 -4.3,5.6 -10,5.2 v 0.1 c 5.7,3.1 8.4,8.5 6.9,13.6 -1.8,6 -8.2,9.1 -15.9,7.9 -1.5,-0.2 -3.5,-0.6 -5.9,-1.3 l -22.6,-6.8 0.7,-2.5 0.3,0.1 c 5.4,1.6 7.8,0.7 8.9,-3.2 l 7,-23.6 c 1.4,-4.8 1,-5.7 -3.9,-7.2 l -1.5,-0.4 0.7,-2.5 z m 5.7,34.7 c -1.5,5.1 -0.7,6.7 3.9,8.1 5.7,1.7 9.8,-0.6 11.5,-6.2 1.3,-4.5 -0.1,-8.9 -3.6,-10.8 -1.5,-0.8 -2.7,-1.3 -5.6,-2.2 -1.1,-0.3 -1.5,-0.4 -2.6,-0.7 z m 4.3,-14.5 c 1.5,0.5 2.4,0.8 3.6,1.2 2.3,0.7 4.3,1 5.7,0.9 2.5,-0.1 4.8,-2.1 5.6,-5 1.5,-5.1 -1.2,-8.7 -7.8,-10.7 -1,-0.3 -1.5,-0.4 -2.9,-0.6 z"
       id="path91" />
    <path
       d="m 374.9,570.6 -3.5,7.4 c -0.5,1 -0.8,1.9 -0.9,2.4 -0.2,1.7 1.5,2.7 5.5,3.1 l 0.9,0.1 -0.3,2.6 -17.5,-1.8 0.3,-2.6 1,0.1 c 3.2,0.3 4.9,-1 7.1,-5.5 l 14.4,-30.2 -0.5,-2 9.7,1 9.8,34.8 c 1.3,4.5 2.7,5.9 6.1,6.6 l -0.2,2.6 -21.5,-2.1 0.3,-2.6 2.2,0.2 c 2.8,0.3 4,-0.3 4.2,-2.1 0.1,-0.6 -0.1,-1.7 -0.4,-2.9 l -2.3,-7.6 z m 8.7,-18.4 -7,14.8 11.5,1.1 z"
       id="path92" />
    <path
       d="m 448.2,585.6 -35.3,3.1 -0.2,-2.6 0.9,-0.1 c 4.7,-0.4 5.6,-1.6 5.2,-6.2 l -2.1,-24.3 c -0.4,-4.7 -1.6,-5.6 -6.2,-5.2 l -0.7,0.1 -0.2,-2.6 22.4,-2 0.2,2.6 -1.1,0.1 c -4.7,0.4 -5.7,1.6 -5.2,6.2 l 2.2,24.7 c 0.3,4 0.7,4.3 3.8,4.1 l 7.1,-0.6 c 3.4,-0.3 4.9,-0.9 6.2,-2.3 1.3,-1.4 3.3,-4.3 4.5,-6.5 l 2.7,-0.2 z"
       id="path93" />
    <path
       d="m 491.5,575.2 -34.3,9.1 -0.7,-2.5 0.8,-0.2 c 4.5,-1.2 5.3,-2.5 4.1,-7 L 455.1,551 c -1.2,-4.5 -2.5,-5.3 -7,-4.1 l -0.7,0.2 -0.7,-2.5 21.7,-5.8 0.7,2.5 -1.1,0.3 c -4.5,1.2 -5.3,2.5 -4.1,7 l 6.3,23.9 c 1,3.8 1.5,4.1 4.4,3.3 l 6.9,-1.8 c 3.3,-0.9 4.7,-1.7 5.7,-3.4 1,-1.6 2.6,-4.8 3.4,-7.2 l 2.6,-0.7 z"
       id="path94" />
    <path
       d="m 554.6,530.1 c 1.3,3.3 2.5,8.5 2.9,12.3 -1.1,0.3 -2.3,0.8 -3.6,1.6 -0.8,0.5 -1.7,1.2 -2.8,2.1 l -1.7,1.4 c -1.5,1.3 -3.1,2.5 -4.7,3.4 -11.6,6.9 -25.5,4.3 -31.6,-6 -6.2,-10.5 -1.5,-24.4 10.7,-31.7 3.2,-1.9 5.8,-2.9 10.2,-3.5 1.3,-0.3 1.7,-0.3 2.1,-0.6 0.5,-0.3 0.6,-0.6 0.8,-1.3 l 1.4,-0.8 6.4,9.6 -2.2,1.3 c -5.2,-4.5 -11.1,-5.3 -16.6,-2.1 -8.1,4.9 -10,14.3 -4.7,23.3 5.5,9.1 15.9,12.4 24.1,7.6 5.2,-3.1 7.7,-8.6 6.9,-15.2 z"
       id="path95" />
    <path
       d="m 595.9,509.3 -26.2,23.9 -1.7,-1.9 0.6,-0.6 c 3.5,-3.2 3.5,-4.7 0.4,-8.1 l -16.5,-18 c -3.2,-3.5 -4.7,-3.5 -8.1,-0.4 l -0.5,0.5 -1.7,-1.9 16.6,-15.1 1.7,1.9 -0.8,0.8 c -3.5,3.2 -3.5,4.7 -0.4,8.1 l 16.7,18.3 c 2.7,2.9 3.2,3 5.4,1 l 5.3,-4.8 c 2.5,-2.3 3.4,-3.7 3.5,-5.6 0.1,-1.9 0,-5.5 -0.3,-7.9 l 2,-1.8 z"
       id="path96" />
    <path
       d="m 589.3,452 10.2,-13.8 2.1,1.5 -0.3,0.4 c -2.9,3.9 -2.5,5.7 2.2,9.2 l 9.8,7.3 c 5.6,4.1 7.3,6 8.6,9.5 2,5.3 0.7,11.3 -3.8,17.4 -6.6,8.8 -14.5,11.8 -21.5,7.9 -1.1,-0.7 -2.4,-1.5 -4.1,-2.8 l -13,-9.6 c -4,-3 -5,-2.9 -7.8,0.8 l -0.3,0.4 -2.1,-1.5 12.4,-16.6 2.1,1.5 -0.2,0.3 c -2.6,3.6 -2.4,5.1 1.3,7.9 l 13.1,9.7 c 4.4,3.2 6.1,3.9 9,3.6 3.1,-0.4 6.1,-2.3 8.6,-5.6 4.3,-5.8 4.1,-11.8 -0.4,-16.1 -1.1,-1 -1.5,-1.3 -4.4,-3.5 l -9.2,-6.9 c -5.2,-3.9 -7.1,-3.8 -10.1,0.1 l -0.3,0.4 z"
       id="path97" />
    <path
       d="m 600.8,434.9 c 3.4,-9.9 3.7,-10.8 5.7,-15.6 l 0.5,-1 c 2.5,-5.6 4.2,-8.6 6.7,-11.5 3.3,-3.8 7.7,-5 11.4,-3.4 3.8,1.6 5,5 4,10.5 l 0.1,0.1 c 3.8,-5.3 9.4,-7.3 14.4,-5.2 5.7,2.5 8.1,9.2 5.9,16.8 -0.4,1.5 -1,3.4 -2,5.7 l -9.4,21.6 -2.4,-1 0.1,-0.2 c 2.2,-5.2 1.7,-7.6 -2,-9.2 l -22.6,-9.8 c -4.6,-2 -5.5,-1.7 -7.6,3 l -0.6,1.5 -2.4,-1 z m 21.3,-7.6 c 0.7,-1.4 1.1,-2.3 1.6,-3.4 1,-2.2 1.5,-4.2 1.6,-5.6 0.2,-2.5 -1.5,-5 -4.3,-6.2 -4.9,-2.1 -8.8,0.2 -11.5,6.5 -0.4,1 -0.6,1.5 -1,2.8 z m 13.9,6 c 4.9,2.1 6.6,1.5 8.5,-2.9 2.4,-5.5 0.6,-9.8 -4.8,-12.2 -4.3,-1.9 -8.8,-0.9 -11.2,2.3 -1,1.4 -1.6,2.5 -2.8,5.4 -0.4,1 -0.6,1.5 -1,2.5 z"
       id="path98" />
  </g>
</svg>
