<?xml version="1.0" encoding="utf-8"?>
<!-- Generator: Adobe Illustrator 26.3.1, SVG Export Plug-In . SVG Version: 6.00 Build 0)  -->
<svg version="1.1" id="Calque_1" xmlns="http://www.w3.org/2000/svg" xmlns:xlink="http://www.w3.org/1999/xlink" x="0px" y="0px"
	 viewBox="0 0 1318.8 1537.8" style="enable-background:new 0 0 1318.8 1537.8;" xml:space="preserve">
<style type="text/css">
	.st0{fill:#FFFFFF;}
	.st1{fill:#C88C28;}
	.st2{fill:#F40043;}
	.st3{fill:#0F23AA;}
</style>
<g id="ol-logo-Calque_1-2-62beae5c989f9">
	<path class="st0" d="M1301.2,19.6H17.6l-0.1,1071.9c0,72.7,20.3,129.8,60.5,169.7c38.7,38.4,93.6,58.1,167.8,60.2
		c177.4,5,283.1,44.3,364.9,135.9l48.7,59.4l48.7-59.4c81.8-91.5,187.5-130.9,364.9-135.9c74.3-2.1,129.2-21.8,167.8-60.2
		c40.1-39.8,60.5-96.9,60.5-169.7L1301.2,19.6L1301.2,19.6z"/>
	<path class="st1" d="M1318.6,0H0.1L0,1101.1c0,74.7,20.9,133.4,62.1,174.3c39.7,39.4,96.1,59.7,172.4,61.8
		c182.2,5.1,290.8,45.5,374.8,139.6l50.1,61l50.1-61c84-94,192.6-134.5,374.8-139.6c76.3-2.2,132.7-22.4,172.4-61.8
		c41.2-40.9,62.1-99.6,62.1-174.3L1318.6,0L1318.6,0z M1233.6,1252.1c-34.5,34.3-85.1,50.4-150.2,52.3
		c-187.7,5.2-306,46.8-398.8,151.1l-25.1,30.6l-25.1-30.6c-92.8-104.2-211.1-145.8-398.8-151.1c-65.1-1.8-115.7-18-150.2-52.3
		c-34.8-34.5-52.4-85.3-52.4-151L32.9,32.8h1252.9l0.1,1068.3C1286,1166.8,1268.3,1217.6,1233.6,1252.1"/>
	<path class="st2" d="M440,314.4c-27.5,0-47.8,20.9-47.8,48.4s20.3,48,47.8,48s47-20.5,47-48S466.9,314.4,440,314.4 M692.1,139H674
		v45h18.1c17.2,0,26.7-10,26.7-22.2S709,139,692.1,139 M914,382.9H958l-21.9-52.6L914,382.9z M194.1,220.4
		c22.9,0,39.9-17.4,39.9-40.8s-17-41.1-39.9-41.1s-40.6,17.8-40.6,41.1S170.7,220.4,194.1,220.4 M879,220.4
		c22.9,0,39.9-17.6,39.9-40.8s-17-41.1-39.9-41.1s-40.6,17.9-40.6,41.1S855.6,220.4,879,220.4"/>
	<path class="st2" d="M1253.3,65.3H65.4l-0.1,422.5h1188L1253.3,65.3L1253.3,65.3z M878.9,116c37.5,0,64.7,27.1,64.7,63.6
		c0,21.6-9.7,40.1-25.7,51.2l23,20.9l-15,17.4L894.9,241c-5.1,1.2-10.4,1.7-16,1.7c-37.8,0-65.4-27.4-65.4-63.1S841.1,116,878.9,116
		 M765.2,117.5h24.2v123.6h-24.3L765.2,117.5L765.2,117.5z M491,117.5h15.3l46.8,81.2l47.8-81.2H616l3.7,123.6h-23.9l-1-74.2
		l-34.1,59.8h-15.1l-33.4-59.8l-1.2,74.2h-23.7L491,117.5L491,117.5z M384.1,117.5l29.5,51.5l29.5-51.5h27.4L424.7,193v48.2h-24.3
		V193l-45.4-75.4H384.1L384.1,117.5z M283,117.5h24.2v102.3H367v21.3h-84V117.5L283,117.5z M194.1,116c37.5,0,64.7,27.1,64.7,63.6
		s-27.2,63.1-64.7,63.1s-65.4-27.4-65.4-63.1S156.3,116,194.1,116 M236.7,435.3h-99V289.7h28.6v120.5h70.4V435.3L236.7,435.3z
		 M304.6,378.5v56.7H276v-56.7l-53.4-88.8h34.1l34.8,60.6l34.8-60.6h32.3L304.6,378.5L304.6,378.5z M440,437.1
		c-44.5,0-77-32.3-77-74.3s32.5-74.9,77-74.9s76.2,31.9,76.2,74.9S484.1,437.1,440,437.1 M675.7,436.9h-16.2l-86.7-97.3v95.6h-28
		v-147h16.2l86.5,97.1v-95.6h28.2L675.7,436.9L675.7,436.9z M674,205.6v35.5h-24.2V117.6h43.6c29.9,0,50.5,17.4,50.5,44.7
		s-20.9,43.2-51.5,43.4L674,205.6L674,205.6z M844,436.9h-16.2l-86.7-97.3v95.6h-28v-147h16.2l86.5,97.1v-95.6H844L844,436.9
		L844,436.9z M978.8,435.3l-11.6-28.1h-62.3l-11.6,28.1H863l63.8-145.5h18.8l63.3,145.5H978.8L978.8,435.3z M1057,435.3h-28.6V289.7
		h28.6V435.3z M1074.8,188c0,35.7-21.6,54.7-54.3,54.7s-54.3-19-54.3-54.7v-70.5h24.3V190c0,16.7,9.8,30.8,30.2,30.8
		s30.1-14.1,30.1-30.8v-72.4h24.1V188L1074.8,188z M1138.5,437.1c-24.2,0-42.2-6.4-56.7-17.6l14.3-22.8
		c13.1,10.5,27.5,15.5,42.8,15.5c13,0,22.8-5.6,22.8-17.4s-8.3-16.8-30-22.8c-24.6-6.8-43.9-16.4-43.9-41.8s21.1-42.4,52.4-42.4
		c21.3,0,37.2,6,48.6,14.9l-13.1,21.5c-9.9-7.3-21.1-11.6-35.8-11.6c-13.2,0-23.2,5-23.2,15.7s9.5,13.9,29.6,19.9
		c24.6,7.2,43.7,16.8,43.7,44.7S1169.6,437.1,1138.5,437.1 M1190.1,241.1h-85.3V117.6h84.7V139h-60.5v29h53.3v21.5h-53.3v30.4h61
		V241.1L1190.1,241.1z"/>
	<path class="st3" d="M1253.4,520.3H65.4l-0.1,580.8c0,114.3,57.5,166.6,170.1,170.1c196.1,6.3,330.4,50.7,424,158.3
		c93.5-107.6,227.9-152,424-158.3c112.6-3.6,170.1-55.8,170.1-170.1L1253.4,520.3L1253.4,520.3z M442.5,1173.9
		c-159,0-288.4-129.4-288.4-288.4s129.4-288.4,288.4-288.4s288.4,129.4,288.4,288.4S601.5,1173.9,442.5,1173.9 M1143.1,1160.8H811
		V610.2h160.3v411.1h171.8L1143.1,1160.8L1143.1,1160.8z"/>
	<path class="st1" d="M384.9,770.5c11.9-3.6,21.9-8.7,33.6-4.8c-4.3-8.7-14.4-12.7-23.6-10.1c-4.8,1.3-9.1,3.5-13,4.8
		c-11.9,5.3-23.1,5.3-35.3,1.7C355.6,773.2,372.3,774.8,384.9,770.5"/>
	<path class="st1" d="M628.5,806.3c-16.6,33.2-82.1,27.1-78.2,65l-4.8-8.7c-5.6-10.5-1.3-23.6,9.2-29.2l60.2-31.8
		c19.2-10.1,26.2-35.4,13.5-54.2c-10.1-14.8-29.3-20-45.9-13.9c0,0-17.5,7.8-24.9-12.7c-8.7,9.2-4.3,21.8,1.3,25.4
		c-5.6,0.8-16.6,8.6-17,24c12.7,3.5,26.6-1.3,29.2-5.3c-0.8,4.8,7.4,14.8,19.3,12.7c-10.1-10.5-7.4-22.3,0-25.3
		c6.9-2.6,15.7-0.5,20.5,5.6c6.6,8.7,3.5,21-5.8,25.7l-60.2,31.8c-20.5,10.5-28.4,36.3-17.4,56.8l27.1,51.1c3,5.6,2.2,13.1-2.6,17.5
		c-6.1,6.5-16.6,5.2-21.9-2.3c-16.5-24-30.5-49.7-41.4-77.2c9.2,3.5,16.2-2.6,16.2-2.6s-10.5-7.4-4.8-22.6c3-9.2,4-17.1,2.6-24.5
		c2.6,2.3,6.6,4,11.4,3.6c-4-18,0.8-18.8,2.2-34.5c0.3-7.1-1.3-12.3-3.5-16.2c3.8,0.4,8.3,0,12.2-4c-17.1-7.1-14-31-34.5-33.7
		c7.8-3.5,8.3-10.4,8.3-11.7c-17.5,1.3-30.2-11.4-49-11.4c-20.5,0-26.1,5.3-33.5,5.3c-10.5,0-15.7,5.2-14.4,10.4l-17.5,4.8
		c-2.6,4.8,0,8.7,2.2,10.1c0,0-3,2.6-1.8,7c1.3,4.9,4.4,13.5,4.4,13.5l3.5-3.5c1.8-1.7,4.3-3,7.4-3.5l5.6-0.5
		c7.1-0.8,13.5,2.6,17.1,9.2l7.4,14.8h-37.6c0,0,2.6,8.3,3.5,10.9c1.8,4,5.3,5.8,11.9,5.8c7,0,10.9-1,10.9-1v10.1
		c0,5.6-4.4,13-19.6,8.7l-31.9-9.2c-18.8-4.8-28-13.5-40.7-29.2l-3.8-6.1c-3.1-4-4.4-8.7-4-13.5c0.4-4,0.4-9.1-0.5-14
		c-1.7-11.7-10.4-15.7-12.7-16.2c0.5,1.3,4.4,11.9,0,21.4c-3.5-10.4-10.4-18.3-26.6-19.6c0,0,11.9,10.1,12.2,23.1
		c-14.4-9.6-31.9-3-31.9-3s27.9,5.6,27.9,27.9c0,8.3-4.3,19.3-17.4,26.7c0,0,13.9,3,23.1-2.3c2.6-1.7,6.1-1.7,8.7,0.5
		c9.1,9.2,29.2,28.9,32.2,35c6.6,13.1-2.2,23.6-2.2,23.6s14-1,18.8-9.2c0.8-1.3,2.6-1.8,4-1.3l26.1,15.7L363,867.9
		c-15.7,10.4-34,15.7-52.5,15.7h-17.8c-5.6,0-11.4-1.3-16.2-4c-4.8-2.2-12.2-5.3-19.6-5.3c-15.7,0-20.5,7.9-20.5,7.9
		s15.7-0.8,21.8,5.3c-9.6-1.3-27.1,3-28.9,18.8c0,0,11.4-6.6,22.3-4.9c-7.8,3.6-16.5,14-6.1,30.7c0,0,1-17.5,22.8-17.5
		s18.8,19.2,18.8,19.2s9.6-2.2,11.7-14.4c0.5-2.6,2.2-4.8,4.8-4.8h45.9c1.8,0,3,1.3,3,2.6c2.3,9.6,15,12.2,15,12.2
		s-6.2-11.4,3.5-15.7l33.5-14.5l15.3,20.1c-25.3,14.4-61.1,30.5-70.8,34.5c-20,7.9-25.8,7.9-34.5,7.4c0,0,10.5,9.6,30.2,7.4
		c1.8,0,3.5-0.5,5.6-1.3c1.8-0.8,4,0,4.8,1.8c3.1,6.1,7.9,15.7,9.2,19.6c3.1,8.3-2.6,10.4-8.7,13.1c-8.3,4-17,7.9-31,12.7
		c-21.3-12.2-37.5-0.8-37.5-0.8s12.6,2.2,18.7,9.6c-12.2-1-25.3,6.1-29.7,20c3.1-1.3,16.6-6.9,28.4-5.2c-3.5,3-8.3,9.6-8.3,18.3
		c0.5,4.3,1.3,6.5,1.3,6.5s10.5-16.5,29.7-16.5c8.3,0,12.2,4.3,12.2,8.7c0,3.5-2.6,7.8-2.6,7.8s25.4-2.2,17.1-24.8l46.2-16.6
		c2.2-0.8,4.8-0.5,6.1,1.3c3.1,2.6,8.7,6.1,16.6,5.3l-13.5-30.5c-3.6-7.9,0.8-16.6,9.9-19.3l24.1-7.8c0,0,6.5,5.2,27.5,22.6
		c13.9,11.4,13.9,31.5,13.9,31.5s12.2-4.8,12.2-15.8c2.3,1,4.9,1.8,7.4,2.3c12.2,3,20.6,13.5,12.2,30.5l-7.8,14.4
		c-3.1,5.3-6.1,6.6-10.5,6.6c-4.8-0.5-10.9-0.8-17,0c-22.6,2.2-23.1,17.5-23.1,17.5s7.4-4.4,16.5-4.4c3.6,0,7.1,1,10.1,1.8
		c0,0-18.8,3-18.8,19.2c0,6.6,5.3,10.1,5.3,10.1s4.8-17,24.1-17c0,0-10.5,4.8-10.5,14.8s9.2,13.1,9.2,13.1s-6.1-15.2,23.1-15.2h7.9
		c5.2,0,9.6-3.1,11.4-7.9l5.6-15.7c3.5-9.2,9.2-9.2,12.7-8.4c5.6,1.3,5.6,9.2,5.6,9.2s9.6-14.4-1.8-27.5c-2.2-2.6-3-6.9-1.7-10.4
		l7.9-21.8c17.4,4.3,25.8-10.1,25.8-10.1c-18.5-4-27.5-9.7-54.1-31.5c-11.8-9.6-19.3-21.8-19.3-24c6.6,7,15.7,10.9,25.3,10.9
		c7.4,0,14.8-2.6,21.4-7.4c5.8-4.8,9.6-10.9,11.4-17.5c9.2-15.7,31-3.1,34.5-35.3c-9.2,13-29.2,4.3-33.2,20.5
		c-8.3-35.8,43.2-12.2,43.7-66.3c-12.7,21.8-57.7,14.4-54.6,41.4l-0.5-0.4C547.7,844.2,633.3,880.4,628.5,806.3 M416.7,730.2
		c-6.5,0-8.3-9.6,1.8-9.6c7.1,0,13.5,2.2,13.5,2.2S422.9,730.2,416.7,730.2"/>
</g>
</svg>
