<?xml version="1.0" encoding="UTF-8"?>
<!DOCTYPE svg PUBLIC "-//W3C//DTD SVG 1.1//EN" "http://www.w3.org/Graphics/SVG/1.1/DTD/svg11.dtd">
<!-- Creator: CorelDRAW 2019 (64-Bit) -->
<svg xmlns="http://www.w3.org/2000/svg" xml:space="preserve" width="191.195mm" height="178.112mm" version="1.1" style="shape-rendering:geometricPrecision; text-rendering:geometricPrecision; image-rendering:optimizeQuality; fill-rule:evenodd; clip-rule:evenodd"
viewBox="0 0 191.1524 178.0728"
 xmlns:xlink="http://www.w3.org/1999/xlink"
 xmlns:xodm="http://www.corel.com/coreldraw/odm/2003">
 <defs>
  <style type="text/css">
   <![CDATA[
    .fil1 {fill:#E30512}
    .fil0 {fill:white}
   ]]>
  </style>
 </defs>
 <g id="Layer_x0020_1">
  <metadata id="CorelCorpID_0Corel-Layer"/>
  <g id="_870575456">
   <path class="fil0" d="M95.5763 178.0728c52.7853,0 95.5761,-39.8618 95.5761,-89.0365 0,-49.1744 -42.7908,-89.0362 -95.5761,-89.0362 -52.7856,0 -95.5763,39.8618 -95.5763,89.0362 0,49.1747 42.7907,89.0365 95.5763,89.0365z"/>
   <path class="fil1" d="M79.731 89.7333c-1.8539,-19.5231 -12.4349,-34.6121 -23.6458,-33.7071 -11.2038,0.9044 -18.7893,17.4612 -16.9425,36.9769 0.3631,3.826 1.06,7.4814 2.0316,10.8775 3.9888,13.9394 12.5977,23.5493 21.6063,22.8228 8.3489,-0.6749 14.6814,-10.0322 16.6089,-22.8228 0.6751,-4.382 0.8161,-9.1721 0.3414,-14.1474zm-18.7301 17.4768l0 0c-2.3056,0.1853 -4.5673,-1.068 -6.4656,-3.3222 -2.5578,-3.0327 -4.4784,-7.867 -5.0046,-13.4281 -0.9194,-9.6907 2.7287,-17.8991 8.1413,-18.3365 5.4125,-0.4378 10.551,7.066 11.4708,16.7498 0.5779,6.1321 -0.6673,11.6635 -3.0328,15.0148 -1.3715,1.9501 -3.1218,3.1585 -5.1091,3.3222z"/>
   <path class="fil1" d="M95.7542 167.9218l-0.3414 0c-6.8655,-0.0298 -14.2802,-1.0749 -20.6346,-2.5433 10.9589,-18.9074 12.731,-37.5257 12.731,-37.5257l0 -61.1867 -36.073 -31.7198c-14.2141,11.4851 -23.1783,28.376 -23.1783,47.2094 0,25.6254 16.6386,47.7287 40.4996,57.4492l-7.5709 21.251c-29.859,-12.3533 -50.6795,-40.0397 -50.6795,-72.2049 0,-38.0748 29.1695,-69.8246 67.9709,-77.3581 0.3558,-0.06 0.7047,-0.0887 1.0899,-0.0887 3.1959,0 5.7838,2.2458 5.7838,5.0274 0,2.1121 -1.4977,3.9147 -3.6187,4.6634 -6.9846,1.3867 -13.5689,3.7593 -19.5675,6.9622l33.2406 29.155 33.5517 -29.17c-5.9911,-3.1961 -12.568,-5.5687 -19.5455,-6.9472 -2.1204,-0.7418 -3.6181,-2.5512 -3.6181,-4.6634 0,-2.7748 2.5874,-5.0274 5.7833,-5.0274 0.3779,0 0.7263,0.0287 1.0897,0.0887 38.8021,7.5253 67.9711,39.2833 67.9711,77.3581 0,32.1722 -20.8131,59.8589 -50.6795,72.2049l-7.5705 -21.251c23.8602,-9.7206 40.4995,-31.8169 40.4995,-57.4492 0,-18.8333 -8.9571,-35.7243 -23.1707,-47.2094l-36.0582 31.7198 0 61.1867c0,0 1.7721,18.6183 12.731,37.5257 -6.3543,1.4685 -13.7691,2.5135 -20.6353,2.5433z"/>
   <path class="fil1" d="M148.4652 83.5123c2.4177,12.8871 -6.0869,30.6455 -22.5405,42.6719 -2.662,1.943 -3.2399,3.0254 -5.1607,4.0411l-3.7669 -10.9217c2.2765,-1.0828 3.1218,-1.5867 6.11,-3.7668 7.7414,-5.6577 11.9081,-13.2653 10.7144,-19.6639 -0.8155,-4.3526 -4.1967,-8.6604 -9.8468,-4.5305 -4.2786,3.1217 -6.8438,5.5831 -10.4252,9.4611l0.0816 -31.3347 26.0107 -22.2886 -0.2372 13.9096 -13.784 10.8924 0.1262 9.2242c1.0158,-0.9343 1.8909,-1.6682 3.8261,-3.0844 9.0394,-6.6142 17.1061,-4.1674 18.8924,5.3902z"/>
   <path class="fil1" d="M95.5763 173.5497c-50.0051,0 -90.6899,-37.9118 -90.6899,-84.5134 0,-46.6018 40.6848,-84.5133 90.6899,-84.5133 50.0052,0 90.6905,37.9115 90.6905,84.5133 0,46.6016 -40.6853,84.5134 -90.6905,84.5134zm0 -168.2851l0 0c-49.5972,0 -89.9485,37.5777 -89.9485,83.7716 0,46.1942 40.3514,83.772 89.9485,83.772 49.5973,0 89.9487,-37.5778 89.9487,-83.772 0,-46.1939 -40.3515,-83.7716 -89.9487,-83.7716z"/>
  </g>
 </g>
</svg>
