<?xml version="1.0" encoding="UTF-8"?>
<!DOCTYPE svg PUBLIC "-//W3C//DTD SVG 1.1//EN" "http://www.w3.org/Graphics/SVG/1.1/DTD/svg11.dtd">
<!-- Creator: CorelDRAW 2019 (64-Bit) -->
<svg xmlns="http://www.w3.org/2000/svg" xml:space="preserve" width="191.393mm" height="216.41mm" version="1.1" style="shape-rendering:geometricPrecision; text-rendering:geometricPrecision; image-rendering:optimizeQuality; fill-rule:evenodd; clip-rule:evenodd"
viewBox="0 0 191.2301 216.2254"
 xmlns:xlink="http://www.w3.org/1999/xlink"
 xmlns:xodm="http://www.corel.com/coreldraw/odm/2003">
 <defs>
  <style type="text/css">
   <![CDATA[
    .fil1 {fill:#004899}
    .fil6 {fill:#1C1C1B}
    .fil4 {fill:#4B291F}
    .fil0 {fill:#A6D5F5}
    .fil3 {fill:#C29400}
    .fil5 {fill:#C76605}
    .fil7 {fill:#FFF16A}
    .fil2 {fill:white}
   ]]>
  </style>
 </defs>
 <g id="Layer_x0020_1">
  <metadata id="CorelCorpID_0Corel-Layer"/>
  <g id="_732908560">
   <path class="fil0" d="M95.6153 9.0485c0,0 -33.9531,34.5465 -82.2559,2.3454 0,0 -14.1834,38.5091 10.2246,95.6743l72.0313 -55.4849 34.7945 -26.8044c-21.6149,-2.3244 -34.7945,-15.7304 -34.7945,-15.7304z"/>
   <polygon class="fil1" points="9.0994,76.7453 65.2267,76.7453 23.5846,110.3732 14.6111,101.3991 "/>
   <path class="fil1" d="M181.7646 34.3078l-86.1505 68.4286 -51.9566 41.2677c12.5294,18.955 29.3784,39.1945 51.9566,60.2058 78.8304,-73.3538 88.0169,-137.3216 86.1505,-169.9021z"/>
   <polygon class="fil2" points="97.0746,206.8816 104.2464,206.8816 104.2464,100.4489 97.0746,100.4489 "/>
   <polygon class="fil2" points="115.0013,187.4159 122.1731,187.4159 122.1731,79.6288 115.0013,79.6288 "/>
   <polygon class="fil2" points="131.6904,167.7418 138.8622,167.7418 138.8622,64.596 131.6904,64.596 "/>
   <polygon class="fil2" points="149.122,143.3455 156.2937,143.3455 156.2937,51.2686 149.122,51.2686 "/>
   <polygon class="fil2" points="166.0597,114.1465 173.2314,114.1465 173.2314,38.0517 166.0597,38.0517 "/>
   <path class="fil3" d="M86.0734 53.226l-16.1331 0.7868c0,0 -4.5434,0.0946 -4.7751,0.0946 -0.231,0 -3.7549,1.4835 -4.3109,1.4835 -0.5578,0 -4.7066,4.1489 -4.7066,4.1489l-1.9702 3.5001 -0.695 1.6217 0 2.5968 1.1126 5.7963c0,0 1.7614,2.1092 2.1094,2.1092 0.347,0 6.7452,5.2151 6.7452,5.2151l24.5716 -15.438 -0.3724 -10.7092 -1.5755 -1.2058z"/>
   <path class="fil4" d="M65.666 62.2504c-0.0017,0 -0.0035,-0.0014 -0.0035,-0.0014 0,-0.0151 0.0018,-0.0271 0.0035,-0.0421l0 0.0435zm-6.2379 4.3905l0 0c-0.0034,0.0035 -0.0088,0.0069 -0.0124,0.0087 0.0036,-0.0034 0.0072,-0.007 0.0124,-0.0105l0 0.0018zm3.3956 -4.6517l0 0c-0.0352,0.0346 -0.067,0.0706 -0.1021,0.1066 0.0053,-0.0645 0.0422,-0.0961 0.1021,-0.1066zm13.4589 -4.5002l0 0c-1.1426,-0.2673 -1.9497,-0.3649 -2.5198,-0.9204 -0.5724,-0.5571 -0.5515,-0.9596 -2.0864,-0.4986 -1.5374,0.4595 -2.8377,0.4595 -3.5463,0.4595 -0.7091,0 -1.0634,-0.2688 -2.0094,0 -0.9438,0.2688 -1.3773,-0.0361 -1.3773,0.6922 0,0.7283 -0.4053,0.8229 0.1527,1.1201 0.1383,0.0766 0.3682,0.1397 0.6491,0.1952 -0.1162,0.0391 -0.2052,0.1051 -0.379,0.1832l-0.1841 0c-0.1108,0 -0.1881,0.0555 -0.2528,0.1441 -0.8089,0.1997 -0.725,0.0436 -1.0459,0.3634 -0.3231,0.3258 -0.2316,0.5345 -0.7426,1.4626 -0.5085,0.9265 -0.9718,0.0451 -1.3191,-0.3018 -0.3495,-0.3469 -0.1409,0.6712 -0.1409,0.928l0 0.6952c0,0.3468 -0.2544,0.2553 -0.2544,0.7642 0,0.5091 -0.3015,0.3003 -0.3015,0.5571 0,0.1952 -0.0018,0.3754 -0.0844,0.5435 -0.4981,0.3228 -1.6671,1.7133 -1.6758,2.0932 -0.1456,0.0571 -0.2893,0.1073 -0.3947,0.2147 -0.1983,0.1964 -0.4406,0.1613 -0.8583,0.1613 -0.4175,0 -0.4405,0.0457 -0.6019,0.2087 -0.163,0.1614 0,0.4406 0,0.6951 0,0.2546 0,0.3719 0.4616,0.1631 0.2928,-0.1314 0.3086,-0.0979 0.3737,-0.0892 -0.7243,0.4141 -0.6124,1.3421 -0.6124,1.3421l0.1473 2.1708 1.009 0c0.0597,0 0.1054,-0.0052 0.1495,-0.0105 0.0139,0.0668 0.0246,0.1401 0.0246,0.2281 0,0.6176 0.4423,0 0.742,-0.3003 0.2985,-0.2997 0.6195,-0.1578 0.9548,-0.4927 0.335,-0.3372 0.1755,-0.9566 0.1755,-1.3444 0,0 -0.5108,0.3348 -0.6703,0.4951 -0.0616,0.0609 -0.1895,0.0945 -0.3473,0.1349 0.0821,-0.0985 0.1824,-0.2087 0.3243,-0.3508 0.772,-0.7707 0.5304,-0.5302 1.0617,-0.5302 0.5297,0 0.5789,-0.5788 0.5789,-1.4476 0,-0.1737 -0.028,-0.3243 -0.0645,-0.4616 0.0452,-0.0388 0.1051,-0.0785 0.2018,-0.1173 0.5473,-0.2176 0.4036,-0.4036 0.7914,-0.4036 0.1646,0 0.3243,0.1367 0.4667,0.2928 -0.065,0.2333 -0.1197,0.4246 0.0785,0.6211 0.3091,0.3091 0.6547,0.3895 1.0776,0.3895 0.3349,0 0.7144,0.481 0.9267,0.6148 0.1737,0.2592 0.4752,0.7595 0.3297,0.9049 -0.1964,0.1966 -0.2997,0.881 -0.2997,1.297 0,0.2193 -0.03,0.607 0.047,0.9037 -0.0336,0.0283 -0.0663,0.0564 -0.0996,0.0839l-0.2548 0c-0.1331,0 -0.2492,0.2475 -0.672,0.2475 -0.4229,0 -0.3491,0.2125 -0.5174,0.6565 -0.1708,0.4456 0.4072,0.7876 0.6441,1.0262 0.2382,0.2388 0.3489,0.4864 0.3489,0.9638 0,0.4751 0.444,0.3772 0.5209,0.3772l0.3127 -0.2404c0.0967,0.0053 0.2209,-0.0036 0.3912,-0.0336 1.1143,-0.1929 1.6793,0.1948 2.5093,-1.5895 0.8316,-1.7849 0.8316,-2.1725 0.8316,-2.5267 0,-0.3532 0.1057,-0.9902 0.1057,-0.9902 0,0 -0.2282,-0.04 -0.5372,-0.0751 0.4846,-0.4862 0.5408,-0.5895 0.5408,-1.4686 0,-0.9039 0.0697,-1.599 0.0697,-2.2023 0,-0.3424 0.0809,-0.7419 0.1056,-1.0271 0.0423,-0.0406 0.089,-0.087 0.1208,-0.1201 0.4423,-0.4429 1.0774,-0.0886 1.0774,-0.7238 0,-0.6367 0.3545,-0.9895 0,-0.9895 -0.3524,0 -0.9172,0.5645 -1.235,0.8828 -0.209,0.2087 -0.3421,0.1472 -0.4936,0.2929 -0.0381,-0.1487 -0.0854,0.0075 -0.5137,-0.2282 -0.5109,-0.2764 -0.081,-0.2644 -0.5109,-0.6938 -0.4282,-0.4294 0.1179,-0.4865 -0.4856,-0.7433 -0.6025,-0.2553 -1.2061,-0.2553 -1.4148,-0.2553 -0.128,0 -0.2559,-0.069 -0.3351,-0.03 0.0371,-0.1201 0.084,-0.2508 0.1632,-0.4219 0.4405,-0.949 0.5667,-0.3349 1.2741,-0.6247 0.4052,-0.1667 0.6757,-0.6111 0.837,-0.961 0.1331,-0.0151 0.2828,-0.0586 0.414,-0.0586 0.2333,0 0.5788,0 0.7197,0.1396 0.0088,0.0075 0.0282,0.006 0.0381,0.0135 -0.0678,-0.0029 -0.1455,-0.0089 -0.2434,-0.03 -0.2811,-0.0586 -0.6827,0 -0.6827,0 0,0 0.058,0.0586 0.1858,0.1861 0.1263,0.1262 0.4581,0.5212 0.7649,0.6368 0.3056,0.1141 0.4001,0.2477 0.6352,0.4835 0.2354,0.2357 0.2423,0.2673 0.7655,0.2673 0.5209,0 0.2422,0.078 0.4581,0.2928 0.2151,0.2162 0.349,0.0856 1.4529,-0.0765 0.7808,-0.1141 0.2681,-0.1817 0.2681,-0.1817 0,0 0.0755,-0.0735 -0.0787,-0.0735 -0.1513,0 -0.33,-0.0615 -0.5723,-0.0615 -0.2417,0 -0.3949,-0.0781 -0.7139,-0.1292 -0.3179,-0.051 -0.2582,-0.1876 -0.6001,-0.3378 -0.3426,-0.1517 -0.2352,-0.2267 -0.4244,-0.4565 -0.1896,-0.2327 -0.1656,-0.1951 -0.3039,-0.3318 -0.0945,-0.0961 -0.2458,-0.1502 -0.3878,-0.1757 0.0968,-0.0136 0.1859,-0.0256 0.2493,-0.0256 0.2087,0 0.2439,0.2433 0.3472,0.3469 0.1056,0.1036 0.2565,0.2538 0.3595,0.3589 0.1056,0.1036 0.2318,0.2327 0.3831,0.3829 0.1509,0.1517 0.5102,0 0.6717,0.1622 0.1637,0.1622 0.4175,0 0.7197,0 0.3003,0 0.4756,0.0796 0.672,-0.1171 0.1965,-0.1952 0.393,0 0.6248,0 0.2315,0 0.3947,-0.6262 0.3947,-0.6262 0,0 0.0962,-0.1862 0.1649,-0.4249 0.0652,0.009 0.1232,0.015 0.1666,0.015 0.3948,0 0.867,-0.2703 0.867,-0.2703 0,0 1.1619,-1.1322 1.5568,-1.5166 0.3929,-0.3814 0.5313,-0.479 -0.6107,-0.7478z"/>
   <path class="fil4" d="M58.3924 63.4712c0.3019,-0.3018 0.2051,-0.3499 0.4897,-0.6353 0.2828,-0.2838 0.2527,-0.6847 0.0194,-0.9174 0,0 -0.6019,-0.0451 -1.251,0.5106 -0.6494,0.557 -0.4405,0.2072 -0.8336,0.6021 -0.214,0.2147 -0.2545,0.3739 -0.2036,0.5196 -0.0563,0.0241 -0.1107,0.0496 -0.2949,0.2343 -0.4071,0.4039 -0.4176,0.2086 -0.8107,0.6036 -0.3948,0.3919 0.114,0.3469 0.114,0.949 0,0.6037 0.2315,0.2312 0.6265,0.3949 0.3935,0.1622 0.4632,0 0.7882,-0.5345 0.3243,-0.533 0.2317,-0.2312 0.637,-1.2043 0.0157,-0.039 0.03,-0.069 0.0422,-0.1021 0.1703,-0.0465 0.4348,-0.1771 0.677,-0.4203z"/>
   <path class="fil4" d="M70.1742 55.0114c-0.0609,-0.009 -0.1524,-0.0165 -0.2855,-0.0165 -0.2828,0 -1.9991,0.0165 -2.5992,0.0165l-0.6 0c0,0 -0.2967,0.0766 -0.356,0.3559 -0.0089,0.0406 -0.0193,0.0735 -0.0301,0.1036 -0.3283,0.081 -0.8774,0.9114 -0.7265,0.7613 0.1601,-0.1592 1.2023,-0.2838 1.8721,-0.2838l1.9093 0c0.2212,0 0.3914,-0.1036 0.5285,-0.2373l0.007 0c1.2265,0 1.2651,-0.4669 2.3232,-0.2342 1.0581,0.2327 1.3561,0.4399 2.1562,0.2327 0.8023,-0.2056 0.1303,-0.7478 1.5497,-0.2703 1.4213,0.4775 1.7567,0.6187 2.1954,0.3349 0.4389,-0.2839 0.7227,-0.4911 1.3438,-0.4911 0.6194,0 1.5638,-0.2718 1.5638,-0.2718l-10.8517 0z"/>
   <path class="fil4" d="M63.7668 73.9932c-0.0627,0.1795 0.0212,0.1689 -0.2538,0.6353 -0.2742,0.4652 -0.2742,0.4652 -0.4441,0.6352 -0.1685,0.169 -0.1057,0.2 -0.3655,0.3655 -0.2593,0.1631 -0.4486,0.4698 -0.5667,0.5859 -0.1155,0.1157 0.023,0.1702 -0.2104,0.4019 -0.2335,0.2335 -0.4757,0.4775 -0.5191,0.5191 -0.0423,0.0422 0.0328,0.1267 0.0328,0.1267 0,0 0.0739,-0.2123 0.4652,-0.3701 0.3913,-0.1584 0.4545,-0.3918 0.7982,-0.5671 0.3443,-0.1738 0.3813,-0.2424 0.6934,-0.5544 0.3125,-0.3126 0.3178,-0.3595 0.3805,-0.5612 0.0634,-0.2 -0.0311,-0.1478 0.1374,-0.5813 0.1701,-0.4335 0.2962,-0.593 0.2962,-0.6981 0,-0.1055 -0.3807,-0.1178 -0.4441,0.0628z"/>
   <polygon class="fil5" points="39.1049,62.3225 43.8635,62.3225 43.8635,57.3984 39.1049,57.3984 "/>
   <path class="fil6" d="M39.2397 62.1858l4.4872 0 0 -4.6518 -4.4872 0 0 4.6518zm4.7592 0.2733l0 0 -5.0292 0 0 -5.1954 5.0292 0 0 5.1954z"/>
   <polygon class="fil5" points="39.8127,62.0177 43.2363,62.0807 43.2363,63.6349 40.0831,63.6349 "/>
   <path class="fil6" d="M40.1987 63.4982l2.9022 0 0 -1.2853 -3.1269 -0.0572 0.2247 1.3425zm3.1744 0.2718l0 0 -3.4027 0 -0.3178 -1.892 3.7205 0.0706 0 1.8213z"/>
   <path class="fil5" d="M44.3493 62.1033c0,0 -0.8108,-0.7419 -1.3216,-0.3695 -0.5105,0.3695 0.0352,0.7974 -0.8581,1.2058 -0.8916,0.4055 -1.6108,-0.5225 -2.039,-0.952 -0.4281,-0.4279 -1.1373,-0.3018 -1.1373,-0.3018l0 5.5878c0,0 3.5239,-1.4149 5.0538,-1.4839l0.2316 0 0.0705 -3.6864z"/>
   <path class="fil6" d="M39.13 61.8075l0 5.2667c0.7544,-0.295 3.5605,-1.3581 4.9111,-1.4197l0.1057 0 0.0651 -3.4896c-0.1303,-0.1066 -0.5146,-0.401 -0.8512,-0.401 -0.0985,0 -0.1813,0.0271 -0.2528,0.0796 -0.172,0.1246 -0.1913,0.2432 -0.216,0.4084 -0.0386,0.2433 -0.0861,0.5451 -0.6649,0.8094 -0.1649,0.075 -0.3333,0.1111 -0.504,0.1111 -0.6505,0 -1.1612,-0.536 -1.535,-0.9295 -0.0547,-0.0571 -0.1054,-0.1126 -0.1531,-0.1592 -0.2716,-0.2703 -0.6926,-0.2898 -0.905,-0.2763zm-0.2722 5.6668l0 0 0 -5.901 0.1125 -0.0196c0.0048,-0.0015 0.1122,-0.0195 0.2665,-0.0195 0.2881,0 0.6932,0.0615 0.99,0.3573 0.0488,0.0497 0.1015,0.1067 0.1579,0.1668 0.3403,0.3558 0.8052,0.8454 1.3385,0.8454 0.1319,0 0.2617,-0.0301 0.3919,-0.0886 0.4452,-0.2027 0.4752,-0.3889 0.5086,-0.6052 0.0281,-0.1757 0.0633,-0.3949 0.3249,-0.5856 0.1191,-0.087 0.2575,-0.1306 0.4123,-0.1306 0.5155,0 1.058,0.4895 1.0786,0.5106l0.0459 0.0406 -0.0732 3.88 -0.3655 0c-1.4827,0.069 -4.9675,1.4599 -5.0026,1.4738l-0.186 0.0756z"/>
   <path class="fil3" d="M64.2841 31.4248c0,0.7237 -0.5876,1.3094 -1.3089,1.3094 -0.7228,0 -1.3106,-0.5857 -1.3106,-1.3094 0,-0.7238 0.5878,-1.3109 1.3106,-1.3109 0.7213,0 1.3089,0.5871 1.3089,1.3109z"/>
   <path class="fil6" d="M62.9752 30.2506c-0.6477,0 -1.1745,0.5255 -1.1745,1.1742 0,0.6471 0.5268,1.1742 1.1745,1.1742 0.6473,0 1.1735,-0.5271 1.1735,-1.1742 0,-0.6487 -0.5262,-1.1742 -1.1735,-1.1742zm0 2.6202l0 0c-0.7973,0 -1.4459,-0.6486 -1.4459,-1.446 0,-0.7973 0.6485,-1.446 1.4459,-1.446 0.7964,0 1.4441,0.6486 1.4441,1.446 0,0.7973 -0.6476,1.446 -1.4441,1.446z"/>
   <polygon class="fil3" points="65.1189,34.6351 65.1189,31.2506 60.83,31.2506 60.83,34.8903 65.141,34.8903 "/>
   <path class="fil6" d="M60.9661 34.7552l4.0273 0 -0.0089 -0.1081 -0.0017 -3.2599 -4.0167 0 0 3.368zm4.3234 0.2688l0 0 -4.5939 0 0 -3.9086 4.5587 0 0 3.5197 0.0352 0.3889z"/>
   <polygon class="fil3" points="63.5662,42.6565 70.6183,42.6565 70.6183,34.497 63.5662,34.497 "/>
   <path class="fil6" d="M63.701 42.5198l6.7807 0 0 -7.8907 -6.7807 0 0 7.8907zm7.0521 0.2718l0 0 -7.3224 0 0 -8.4313 7.3224 0 0 8.4313z"/>
   <polygon class="fil3" points="58.4439,45.4839 67.6456,45.4839 67.6456,33.0831 58.4439,33.0831 "/>
   <path class="fil6" d="M58.5787 45.3473l8.9321 0 0 -12.1297 -8.9321 0 0 12.1297zm9.2024 0.2718l0 0 -9.4738 0 0 -12.6732 9.4738 0 0 12.6732z"/>
   <polygon class="fil5" points="27.7579,66.1047 27.7579,63.4442 24.8904,61.1603 22.2303,63.2805 22.2303,65.8557 17.0366,65.8557 12.1316,68.2244 12.1316,71.3407 16.4955,75.7048 24.2257,72.9222 "/>
   <path class="fil6" d="M12.2672 71.2851l4.2625 4.2637 7.601 -2.7376 3.4924 -6.7392 0 -2.5617 -2.7322 -2.1787 -2.5252 2.0136 0 2.6457 -5.2993 0 -4.7992 2.3181 0 2.9762zm4.192 4.5763l0 0 -4.4643 -4.4643 0 -3.2582 5.0416 -2.4183 5.0589 0 0 -2.5076 2.7955 -2.2269 3.0019 2.3936 -0.0141 2.7866 -3.5568 6.8643 -0.0505 0.0176 -7.8123 2.8132z"/>
   <polygon class="fil5" points="11.5498,72.3801 19.2395,72.3801 19.2395,68.1407 11.5498,68.1407 "/>
   <path class="fil6" d="M11.6847 72.2447l7.4176 0 0 -3.9674 -7.4176 0 0 3.9674zm7.6897 0.2722l0 0 -7.9595 0 0 -4.5094 7.9595 0 0 4.5094z"/>
   <polygon class="fil5" points="13.2949,70.3026 18.2816,70.3026 18.9891,71.7151 14.583,72.338 12.0069,71.7151 "/>
   <path class="fil6" d="M12.2601 71.6382l2.3305 0.5631 4.1937 -0.593 -0.586 -1.1708 -4.8449 0 -1.0934 1.2007zm2.3162 0.8388l0 0 -0.0239 -0.007 -2.7992 -0.6757 1.4812 -1.6265 5.1322 0 0.8265 1.6564 -4.6169 0.6528z"/>
   <polygon class="fil5" points="10.6777,77.3688 19.4483,77.3688 19.4483,71.7168 10.6777,71.7168 "/>
   <path class="fil6" d="M10.8132 77.2321l8.4978 0 0 -5.3821 -8.4978 0 0 5.3821zm8.77 0.2716l0 0 -9.0404 0 0 -5.9235 9.0404 0 0 5.9235z"/>
   <path class="fil4" d="M61.8736 44.4404l-5.2627 0 0 2.7809 -2.5251 0 0 1.6697c0,0 -2.2599,1.0541 -2.6898,1.4835 -0.4282,0.4294 -2.8043,1.5767 -2.8043,2.5047l0 1.5991 -2.7586 0 0 1.5061c0,0 -1.7161,0.6021 -1.9701,1.4129 -0.2563,0.8124 -0.6493,3.4776 -0.6493,3.5933 0,0.1171 4.6361,1.0195 4.6361,1.0195l2.0388 -1.389c0,0 2.6442,-3.3395 3.513,-3.5136 0.8686,-0.1743 2.0282,-0.3574 2.237,-1.7493 0.2089,-1.3905 2.1093,-2.3876 2.6887,-2.9672 0.579,-0.5781 1.1597,-1.5976 2.2476,-2.6877 1.0899,-1.0902 1.5304,-1.4371 2.0635,-1.9716 0.5338,-0.533 1.7163,-1.8544 1.2988,-2.2719 -0.4176,-0.4174 -2.0634,-1.0195 -2.0634,-1.0195z"/>
   <path class="fil6" d="M43.3572 60.911c0.4599,0.1517 2.8971,0.6501 4.4625,0.9565l1.9756 -1.3469c0.3284,-0.4144 2.6987,-3.3696 3.5796,-3.5453l0.0844 -0.018c0.8704,-0.1712 1.8564,-0.3679 2.0443,-1.6187 0.1631,-1.0901 1.2756,-1.922 2.0879,-2.5286 0.2669,-0.1997 0.4986,-0.3739 0.6388,-0.515 0.2389,-0.2388 0.481,-0.5571 0.7602,-0.925 0.3809,-0.503 0.8524,-1.1277 1.4892,-1.7628 0.6406,-0.6428 1.0635,-1.0316 1.4025,-1.344 0.2387,-0.2207 0.4422,-0.41 0.6599,-0.6262 0.1437,-0.1441 0.637,-0.6471 0.9896,-1.1622 0.3136,-0.455 0.4298,-0.7988 0.3083,-0.9189 -0.319,-0.3198 -1.5244,-0.8079 -1.9911,-0.9791l-5.103 0 0 2.7809 -2.525 0 0 1.6202 -0.0787 0.036c-0.6228,0.2899 -2.3127,1.1187 -2.6499,1.4566 -0.135,0.1336 -0.4193,0.3168 -0.7789,0.548 -0.7913,0.5061 -1.9867,1.2734 -1.9867,1.8605l0 1.7343 -2.7578 0 0 1.4669 -0.0917 0.0316c-0.4579,0.1622 -1.6932,0.7147 -1.8861,1.3274 -0.2318,0.7358 -0.5737,2.9971 -0.6337,3.4716zm4.5216 1.2447l0 0 -0.0557 -0.012c-4.7452,-0.9249 -4.7452,-1.012 -4.7452,-1.1531 0,-0.1397 0.3983,-2.817 0.6545,-3.6323 0.2407,-0.7628 1.5955,-1.3259 1.9655,-1.4685l0 -1.5482 2.7586 0 0 -1.4625c0,-0.7343 1.2195,-1.5166 2.111,-2.0887 0.3315,-0.2147 0.6194,-0.3994 0.7315,-0.5106 0.4001,-0.4009 2.2406,-1.2808 2.6498,-1.4744l0 -1.7193 2.5268 0 0 -2.7809 5.4433 0.0075c0.0698,0.0256 1.6793,0.6187 2.1129,1.0511 0.2381,0.2373 0.1472,0.6516 -0.2775,1.2658 -0.3667,0.5315 -0.8741,1.0511 -1.0194,1.1983 -0.223,0.2222 -0.4264,0.4114 -0.6687,0.6337 -0.3384,0.3108 -0.7566,0.6982 -1.3947,1.3364 -0.623,0.6232 -1.0706,1.2133 -1.4652,1.7343 -0.2863,0.3769 -0.5339,0.7042 -0.783,0.955 -0.1561,0.1547 -0.3948,0.3333 -0.6688,0.539 -0.7753,0.5781 -1.8352,1.3709 -1.9825,2.353 -0.2158,1.44 -1.3971,1.6743 -2.26,1.8454l-0.0845 0.0165c-0.6738,0.1352 -2.7057,2.5452 -3.4323,3.4626l-0.0301 0.0286 -2.0864 1.4234z"/>
   <path class="fil5" d="M68.4423 45.7287l-7.0087 0c0,0 -0.3737,1.0015 -0.6354,1.2643 -0.2616,0.2613 -1.1911,0.8048 -1.1911,1.1908 0,0.3859 -0.3162,0.7012 -0.667,1.0511 -0.3506,0.3513 -1.4897,1.3498 -1.7885,1.6487 -0.2979,0.2972 -0.017,1.3499 -0.4557,1.7869 -0.4369,0.4384 -2.2793,1.895 -2.2793,1.895 -0.2441,0.7717 -0.3849,1.6487 -1.5075,1.6487 -1.1214,0 -2.1531,-0.0631 -2.3832,0.1652 -0.2264,0.2282 -0.281,0.1141 -0.7021,0.5345 -0.421,0.4219 -1.0158,0.6667 -1.0158,1.5091 0,0.8409 -0.458,1.5782 -0.7366,1.5782 -0.281,0 -1.4025,2.1037 -0.4563,2.7359 0.9471,0.6306 2.9796,0.069 2.9796,0.069 0,0 4.3128,-1.0872 4.8044,-2.5241 0.4909,-1.437 0.8756,-1.8229 1.8581,-2.4205 0.9825,-0.5946 4.557,-3.9972 4.557,-4.1728 0,-0.1758 0.5966,-0.7703 1.1919,-1.3664 0.5964,-0.5946 2.0863,-2.0151 2.7004,-2.6293 0.6142,-0.6141 1.8583,-1.7523 2.2795,-2.1742 0.4209,-0.4204 1.6123,-1.5151 1.6123,-1.6472 0,-0.1337 -1.156,-0.1427 -1.156,-0.1427z"/>
   <path class="fil6" d="M51.7802 56.3402c-0.2793,0 -1.0247,0 -1.1586,0.1337 -0.1102,0.1111 -0.1911,0.1547 -0.2679,0.1967 -0.0969,0.0525 -0.2054,0.1111 -0.4336,0.3408 -0.0985,0.0976 -0.2069,0.1876 -0.3144,0.2763 -0.3559,0.2943 -0.6634,0.5481 -0.6634,1.1337 0,0.9069 -0.4873,1.7147 -0.8714,1.7147 -0.1233,0.06 -0.62,0.8725 -0.6864,1.6262 -0.0351,0.4114 0.0682,0.7012 0.3068,0.8605 0.2757,0.1846 0.6879,0.2763 1.223,0.2763 0.82,0 1.6358,-0.2222 1.6447,-0.2238 0.0452,-0.012 4.2495,-1.0856 4.7111,-2.437 0.4952,-1.4475 0.8933,-1.8724 1.9164,-2.4926 0.9671,-0.5856 4.2835,-3.7599 4.4958,-4.0903 0.0354,-0.2162 0.3948,-0.5946 1.2161,-1.4159 0.312,-0.3138 0.8388,-0.8214 1.3648,-1.329 0.5214,-0.5045 1.0422,-1.0075 1.3478,-1.3124 0.3384,-0.3393 0.8706,-0.8393 1.3409,-1.2823 0.3912,-0.3679 0.7491,-0.7027 0.9385,-0.8934 0.1127,-0.1111 0.2791,-0.2718 0.4634,-0.4489 0.3348,-0.3214 0.8598,-0.8244 1.0493,-1.0451 -0.1948,-0.0376 -0.6071,-0.0615 -0.9613,-0.063l-6.9161 0c-0.1015,0.2628 -0.3947,0.9865 -0.6317,1.2223 -0.0821,0.0825 -0.2171,0.1846 -0.3719,0.3002 -0.2928,0.2208 -0.7807,0.5902 -0.7807,0.7959 0,0.4429 -0.342,0.7853 -0.7057,1.1471 -0.1839,0.1832 -0.5771,0.5375 -0.956,0.8829 -0.3542,0.3198 -0.6897,0.6247 -0.8317,0.7643 -0.0984,0.0991 -0.1145,0.3814 -0.1303,0.6531 -0.0223,0.404 -0.0488,0.8589 -0.3261,1.1367 -0.4105,0.4113 -2.0001,1.6742 -2.2582,1.8784 -0.0194,0.0616 -0.0388,0.1261 -0.0581,0.1907 -0.2123,0.7072 -0.4545,1.512 -1.5656,1.512 -0.2071,0 -0.4104,-0.0029 -0.607,-0.0045 -0.1824,-0.0015 -0.3577,-0.0045 -0.5226,-0.0045zm-2.866 6.8292l0 0c-0.5914,0 -1.053,-0.1066 -1.3738,-0.3198 -0.4404,-0.2958 -0.5489,-0.8934 -0.3089,-1.6863 0.1601,-0.53 0.5512,-1.2974 0.8394,-1.2974 0.1454,0 0.6018,-0.6006 0.6018,-1.4445 0,-0.7133 0.4035,-1.0466 0.7596,-1.3425 0.102,-0.084 0.2035,-0.1682 0.2967,-0.2613 0.2557,-0.2552 0.3895,-0.3273 0.4961,-0.3859 0.0705,-0.0391 0.1233,-0.066 0.2054,-0.1487 0.1788,-0.1786 0.6301,-0.2147 1.3497,-0.2147 0.1665,0 0.3419,0.0045 0.5243,0.006 0.1966,0.0015 0.3982,0.003 0.6053,0.003 0.911,0 1.0935,-0.6111 1.3057,-1.3199 0.0248,-0.078 0.0476,-0.1562 0.0721,-0.2327l0.0124 -0.0406 0.0334 -0.024c0.0194,-0.0166 1.8388,-1.4566 2.2671,-1.8845 0.2035,-0.2042 0.2264,-0.6067 0.2476,-0.961 0.0209,-0.3529 0.0388,-0.6562 0.2086,-0.8274 0.1456,-0.1457 0.484,-0.4519 0.8406,-0.7748 0.3772,-0.3423 0.7684,-0.6952 0.9474,-0.8739 0.3354,-0.3349 0.6265,-0.6262 0.6265,-0.955 0,-0.3409 0.4721,-0.6967 0.8879,-1.0121 0.1401,-0.1051 0.274,-0.2072 0.3437,-0.2748 0.1982,-0.1981 0.5021,-0.9445 0.6042,-1.2148l0.031 -0.0886 7.1038 0c1.2926,0.0106 1.2926,0.1593 1.2926,0.2779 0,0.1216 -0.1489,0.2972 -1.1929,1.2988 -0.1824,0.1743 -0.3491,0.3334 -0.4599,0.4445 -0.1912,0.1907 -0.5508,0.53 -0.9438,0.8979 -0.4687,0.4429 -0.9999,0.94 -1.3355,1.2763 -0.3051,0.3048 -0.8301,0.8124 -1.3508,1.3154 -0.5252,0.5076 -1.0495,1.015 -1.3497,1.3139 -0.4792,0.482 -1.1197,1.1216 -1.1513,1.2778 0,0.3228 -3.8442,3.8094 -4.6239,4.2825 -0.9737,0.5916 -1.3279,0.97 -1.8002,2.3469 -0.5091,1.491 -4.7188,2.5661 -4.8976,2.6112 -0.0316,0.009 -0.8581,0.2328 -1.7144,0.2328z"/>
   <path class="fil4" d="M67.4968 45.7302l-2.3499 2.7013 -2.4533 0 0 2.8034 -2.1739 0 0 2.2795 -3.2606 0 0 2.2073 -2.7357 2.0691 -1.6828 0 0 2.2433 -1.9983 2.1398 0 2.9806 3.6441 0c0,0 0.4916,-1.6472 1.5074,-1.9625 1.0177,-0.3168 -0.2441,-1.1231 0.7021,-1.6833 0.9456,-0.5615 1.2987,-0.5271 1.5427,-1.1577 0.247,-0.6307 1.0176,-2.1742 1.6829,-2.4535 0.6663,-0.2808 1.2809,-0.8949 1.474,-1.0872 0.1929,-0.1921 1.051,-1.5075 2.1736,-1.5075 1.1215,0 3.9621,-0.2809 3.9621,-0.2809l3.785 -2.7013 0 -4.7314 -0.2104 -1.9641 -1.8212 -0.5271 -1.639 0 -0.1488 0.6322z"/>
   <path class="fil6" d="M50.9772 65.0193l3.4113 0c0.1267,-0.3709 0.6283,-1.6653 1.5655,-1.9565 0.3913,-0.1232 0.356,-0.2794 0.284,-0.5947 -0.0699,-0.3168 -0.1667,-0.7478 0.3901,-1.0766 0.2804,-0.1667 0.5121,-0.2823 0.6979,-0.3769 0.4475,-0.2222 0.6317,-0.3168 0.7867,-0.7133 0.2169,-0.5555 1.0051,-2.2132 1.7579,-2.5301 0.4264,-0.1786 0.9072,-0.5345 1.428,-1.0586 0.0284,-0.0255 0.0705,-0.078 0.125,-0.1472 0.3384,-0.4188 1.1298,-1.3994 2.1463,-1.3994 1.0334,0 3.5796,-0.2433 3.9128,-0.2748l3.6989 -2.6397 0 -4.6639 -0.2 -1.8589 -1.7162 -0.494 -1.5122 0 -0.1547 0.5841 -2.3897 2.7464 -2.3797 0 0 2.8049 -2.1744 0 0 2.2779 -3.2601 0 0 2.1413 -2.8254 2.1367 -1.5928 0 0 2.1623 -1.999 2.1383 0 2.7929zm3.6112 0.2703l0 0 -3.8828 0 0 -3.1698 2 -2.1383 0 -2.3259 1.7727 0 2.6441 -2.0016 0 -2.2764 3.2605 0 0 -2.2794 2.1736 0 0 -2.8049 2.5286 0 2.2865 -2.6278 0.1672 -0.7043 1.7825 0.0061 1.911 0.551 0.2194 2.0541 0.0016 4.8185 -3.8745 2.7629 -0.0348 0.003c-0.1161,0.0105 -2.8607,0.2808 -3.9744,0.2808 -0.8863,0 -1.6217,0.9085 -1.9355,1.2989 -0.0633,0.078 -0.1109,0.1381 -0.1425,0.1682 -0.2054,0.2057 -0.8248,0.8243 -1.5176,1.1156 -0.6088,0.2583 -1.3601,1.7418 -1.6094,2.38 -0.1912,0.4956 -0.4645,0.6322 -0.9173,0.8574 -0.1824,0.0916 -0.4089,0.2042 -0.6827,0.365 -0.386,0.2312 -0.3315,0.476 -0.2616,0.7852 0.0685,0.3018 0.1613,0.7178 -0.4688,0.9115 -0.9366,0.2928 -1.4122,1.8574 -1.4177,1.8724l-0.0282 0.0976z"/>
   <path class="fil3" d="M88.6007 35.1562c0,0.7237 -0.5877,1.3108 -1.3092,1.3108 -0.7231,0 -1.3109,-0.5871 -1.3109,-1.3108 0,-0.7223 0.5878,-1.3094 1.3109,-1.3094 0.7215,0 1.3092,0.5871 1.3092,1.3094z"/>
   <path class="fil6" d="M87.2909 33.9835c-0.6473,0 -1.1742,0.5255 -1.1742,1.1727 0,0.6471 0.5269,1.1742 1.1742,1.1742 0.647,0 1.1737,-0.5271 1.1737,-1.1742 0,-0.6472 -0.5267,-1.1727 -1.1737,-1.1727zm0 2.6187l0 0c-0.7971,0 -1.4464,-0.6486 -1.4464,-1.446 0,-0.7959 0.6492,-1.4461 1.4464,-1.4461 0.7966,0 1.4459,0.6501 1.4459,1.4461 0,0.7973 -0.6492,1.446 -1.4459,1.446z"/>
   <polygon class="fil3" points="89.4353,38.3681 89.4353,34.982 85.1467,34.982 85.1467,38.6217 89.4583,38.6217 "/>
   <path class="fil6" d="M85.282 38.4867l4.0273 0 -0.0088 -0.1066 0 -3.2599 -4.0185 0 0 3.3665zm4.3235 0.2703l0 0 -4.5957 0 0 -3.9101 4.5605 0 0 3.5212 0.0352 0.3889z"/>
   <path class="fil5" d="M34.1544 53.9708c0,0.7238 -0.5866,1.3094 -1.3093,1.3094 -0.7232,0 -1.3108,-0.5856 -1.3108,-1.3094 0,-0.7222 0.5876,-1.3093 1.3108,-1.3093 0.7227,0 1.3093,0.5871 1.3093,1.3093z"/>
   <path class="fil6" d="M32.8451 52.7966c-0.6473,0 -1.1742,0.5271 -1.1742,1.1742 0,0.6487 0.5269,1.1742 1.1742,1.1742 0.6471,0 1.1737,-0.5255 1.1737,-1.1742 0,-0.6471 -0.5266,-1.1742 -1.1737,-1.1742zm0 2.6203l0 0c-0.797,0 -1.4465,-0.6486 -1.4465,-1.4461 0,-0.7958 0.6494,-1.443 1.4465,-1.443 0.7965,0 1.4441,0.6471 1.4441,1.443 0,0.7974 -0.6475,1.4461 -1.4441,1.4461z"/>
   <polygon class="fil5" points="34.9883,57.1826 34.9883,53.7966 30.7,53.7966 30.7,57.4364 35.0113,57.4364 "/>
   <path class="fil6" d="M30.8361 57.3012l4.0274 0 -0.0088 -0.1065 -0.0018 -3.2629 -4.0168 0 0 3.3694zm4.3236 0.2704l0 0 -4.5957 0 0 -3.9101 4.5604 0 0 3.5211 0.0353 0.389z"/>
   <polygon class="fil3" points="91.9148,41.706 91.9148,36.6067 89.4108,36.6067 89.4108,38.0887 88.7386,38.0887 88.7386,36.6067 86.793,36.6067 86.793,38.0887 85.9349,38.0887 85.9349,36.6067 84.0345,36.6067 84.0345,38.0887 83.0832,38.0887 83.0832,36.6067 80.697,36.6067 80.697,38.0887 79.9086,38.0887 79.9086,36.6067 77.2416,36.6067 77.2416,38.0887 76.4081,38.0887 76.4081,36.6067 74.2514,36.6067 74.2514,38.0887 73.4637,38.0887 73.4637,36.6067 69.9879,36.6067 69.9879,45.1131 89.4353,45.1131 "/>
   <path class="fil6" d="M70.1222 44.9779l19.2447 0 2.4124 -3.317 0 -4.9206 -2.2318 0 0 1.485 -0.9444 0 0 -1.485 -1.6758 0 0 1.485 -1.1279 0 0 -1.485 -1.6306 0 0 1.485 -1.2213 0 0 -1.485 -2.1162 0 0 1.485 -1.0599 0 0 -1.485 -2.3933 0 0 1.485 -1.1074 0 0 -1.485 -1.8827 0 0 1.485 -1.0598 0 0 -1.485 -3.2062 0 0 8.2376zm19.3813 0.2718l0 0 -19.6529 0 0 -8.7796 3.7481 0 0 1.4835 0.5173 0 0 -1.4835 2.4271 0 0 1.4835 0.5631 0 0 -1.4835 2.9374 0 0 1.4835 0.5182 0 0 -1.4835 2.6564 0 0 1.4835 0.6809 0 0 -1.4835 2.17 0 0 1.4835 0.5884 0 0 -1.4835 2.2178 0 0 1.4835 0.4 0 0 -1.4835 2.7744 0 0 5.2794 -2.5462 3.5002z"/>
   <polygon class="fil3" points="69.43,39.5767 69.43,40.778 68.3649,40.778 68.3649,39.5767 66.5559,39.5767 66.5559,40.7075 65.3974,40.7075 65.3974,39.5767 63.5885,39.5767 63.5885,40.778 62.5234,40.778 62.5234,39.5767 60.0193,39.5948 60.0193,42.0769 61.4336,43.4914 61.4336,45.7392 70.5198,45.7392 70.5198,43.4914 71.9339,42.0769 71.9339,39.5948 "/>
   <path class="fil6" d="M61.5685 45.6026l8.8159 0 0 -2.1683 1.4141 -1.4145 0 -2.2899 -2.2335 -0.0165 0 1.2013 -1.3375 0 0 -1.2013 -1.535 0 0 1.1307 -1.43 0 0 -1.1307 -1.5391 0 0 1.2013 -1.3356 0 0 -1.2013 -2.2337 0.0165 0 2.2899 1.4143 1.4145 0 2.1683zm9.0861 0.2703l0 0 -9.3582 0 0 -2.3259 -1.4125 -1.4145 0 -2.6713 2.7742 -0.0195 0 1.1997 0.7949 0 0 -1.1997 2.0793 0 0 1.1306 0.888 0 0 -1.1306 2.0794 0 0 1.1997 0.7946 0 0 -1.1997 2.7744 0.0195 0 2.6713 -1.4143 1.4145 0 2.3259z"/>
   <polygon class="fil5" points="87.4647,43.3052 83.9412,43.3052 83.9412,44.7647 83.0375,44.7647 83.0375,43.3983 80.7896,43.3983 80.7896,44.7872 79.7456,44.7872 79.7456,43.4433 77.3343,43.4433 77.3343,44.7872 75.8971,44.7872 75.8971,43.4914 73.4179,43.4914 73.4179,44.7647 72.2125,44.7647 72.2125,43.4673 70.196,43.4673 70.196,50.4452 88.0436,50.4452 "/>
   <path class="fil6" d="M70.3315 50.3085l17.5647 0 -0.5559 -6.8681 -3.2623 0 0 1.4595 -1.1757 0 0 -1.3664 -1.9777 0 0 1.3905 -1.3144 0 0 -1.344 -2.1403 0 0 1.344 -1.7075 0 0 -1.2974 -2.2094 0 0 1.2733 -1.4776 0 0 -1.2973 -1.7438 0 0 6.706zm17.8598 0.2718l0 0 -18.1319 0 0 -7.248 2.2881 0 0 1.2988 0.9338 0 0 -1.2763 2.7511 0 0 1.2989 1.167 0 0 -1.344 2.6811 0 0 1.344 0.772 0 0 -1.392 2.5197 0 0 1.3694 0.6335 0 0 -1.4625 3.7834 0 0.6023 7.4117z"/>
   <polygon class="fil5" points="99.8496,48.8189 99.8496,53.6975 86.794,53.6975 86.794,39.5783 89.1299,39.5783 89.1299,41.1234 90.1493,41.1234 90.1493,39.5783 92.7148,39.5783 92.7148,40.9927 93.5695,40.9927 93.5695,39.5783 95.8715,39.5783 95.8715,40.9927 96.9561,40.9927 96.9561,39.5783 99.8496,39.5783 "/>
   <path class="fil6" d="M86.9297 53.5624l12.7848 0 0 -13.849 -2.623 0 0 1.4145 -1.3567 0 0 -1.4145 -2.03 0 0 1.4145 -1.1266 0 0 -1.4145 -2.2934 0 0 1.5466 -1.2915 0 0 -1.5466 -2.0635 0 0 13.849zm13.0553 0.2703l0 0 -13.3275 0 0 -14.391 2.6079 0 0 1.5451 0.7491 0 0 -1.5451 2.8359 0 0 1.4145 0.5825 0 0 -1.4145 2.5742 0 0 1.4145 0.8142 0 0 -1.4145 3.1638 0 0 14.391z"/>
   <polygon class="fil3" points="100.1047,49.0307 100.1047,48.0111 97.5708,48.0111 97.5708,49.6088 96.1812,49.6088 96.1812,48.0111 93.3055,48.0111 93.3055,49.5862 92.2403,49.5862 92.2403,48.0111 89.4114,48.0111 89.4114,49.5411 88.3215,49.5411 88.3215,48.0111 85.6107,48.0111 85.6107,49.5637 84.5437,49.5637 84.5437,48.0111 81.7628,48.0111 81.7628,49.5637 80.7884,49.5637 80.7884,48.0111 78.0758,48.0111 78.0758,49.6088 76.8951,49.6088 76.8951,48.0111 74.2052,48.0111 74.2052,49.6793 72.999,49.6793 72.999,48.0111 70.3338,48.0111 70.3338,49.5862 69.2915,49.5862 69.2915,48.0111 67.3665,48.0111 67.3665,55.0099 99.9822,55.0099 "/>
   <path class="fil6" d="M67.5026 54.8747l32.347 0 0.1191 -5.8455 0 -0.8829 -2.262 0 0 1.5991 -1.6616 0 0 -1.5991 -2.6043 0 0 1.5752 -1.3367 0 0 -1.5752 -2.5567 0 0 1.5301 -1.3601 0 0 -1.5301 -2.4407 0 0 1.5526 -1.3392 0 0 -1.5526 -2.5092 0 0 1.5526 -1.2458 0 0 -1.5526 -2.4406 0 0 1.5991 -1.4531 0 0 -1.5991 -2.4182 0 0 1.6682 -1.4756 0 0 -1.6682 -2.3951 0 0 1.5752 -1.3144 0 0 -1.5752 -1.6529 0 0 6.7285zm32.6119 0.2734l0 0 -32.8841 0 0 -7.2721 2.1972 0 0 1.5752 0.772 0 0 -1.5752 2.9356 0 0 1.6682 0.935 0 0 -1.6682 2.9585 0 0 1.5976 0.9126 0 0 -1.5976 2.9833 0 0 1.5526 0.702 0 0 -1.5526 3.0531 0 0 1.5526 0.7947 0 0 -1.5526 2.9833 0 0 1.5286 0.8176 0 0 -1.5286 3.1005 0 0 1.5752 0.7954 0 0 -1.5752 3.1445 0 0 1.5976 1.119 0 0 -1.5976 2.8061 0 0 1.1547 -0.1263 6.1174z"/>
   <polygon class="fil5" points="46.1346,57.097 44.1179,57.097 41.916,59.1602 44.071,59.1602 "/>
   <path class="fil6" d="M42.258 59.025l1.7567 0 1.7932 -1.7914 -1.637 0 -1.9129 1.7914zm1.8688 0.2703l0 0 -2.5527 0 2.49 -2.3349 2.3966 0 -2.3338 2.3349z"/>
   <polygon class="fil3" points="48.058,61.8946 48.058,59.0205 46.1346,57.097 44.071,59.1587 44.071,62.1273 48.058,62.1273 "/>
   <path class="fil6" d="M44.2066 61.9907l3.7152 0 0 -2.9146 -1.7884 -1.7869 -1.9269 1.9266 0 2.7749zm3.9874 0.2703l0 0 -4.259 0 0 -3.1578 2.1984 -2.1968 2.0605 2.0586 0 3.296z"/>
   <polygon class="fil5" points="41.916,62.0807 44.0704,62.0807 44.0704,59.1609 41.916,59.1609 "/>
   <path class="fil6" d="M42.051 61.9455l1.8846 0 0 -2.6502 -1.8846 0 0 2.6502zm2.1568 0.2704l0 0 -2.4271 0 0 -3.1909 2.4271 0 0 3.1909z"/>
   <polygon class="fil3" points="43.955,65.65 50.932,65.65 50.932,61.9407 43.955,61.9407 "/>
   <path class="fil6" d="M44.0899 65.5163l6.7067 0 0 -3.4386 -6.7067 0 0 3.4386zm6.9787 0.2689l0 0 -7.2486 0 0 -3.9792 7.2486 0 0 3.9792z"/>
   <path class="fil5" d="M39.1875 66.7283l0 -11.0127c0,0 -2.2442,-1.3304 -4.5709,-0.7897 -2.3286,0.5405 -1.6617,1.2057 -3.8237,0.8724 -1.1637,0 -1.6635,-0.0826 -1.6635,0.5001l0 9.0994c0,0 1.4142,2.6186 5.1957,2.6186 3.7814,0 4.8625,-1.288 4.8625,-1.288z"/>
   <path class="fil6" d="M29.2654 65.3616c0.1667,0.2794 1.6177,2.5185 5.059,2.5185 3.3165,0 4.524,-1.0087 4.7275,-1.2071l0 -10.8793c-0.3125,-0.1697 -1.6879,-0.8619 -3.2745,-0.8619 -0.3914,0 -0.772,0.0421 -1.1316,0.1246 -0.9301,0.2177 -1.3652,0.4475 -1.7126,0.6352 -0.5056,0.2688 -0.8844,0.4369 -2.162,0.2403 -0.1172,0.0014 -0.2458,0 -0.363,0l-0.29 -0.0015c-0.7471,0 -0.8528,0.078 -0.8528,0.3663l0 9.065zm5.059 2.7907l0 0c-3.8184,0 -5.2994,-2.663 -5.3135,-2.6901l-0.0159 -0.063 0 -9.1025c0,-0.6382 0.5707,-0.6382 1.1231,-0.6382l0.2917 0.0016c0.119,0.0014 0.2456,0.0014 0.3824,0.0014 1.2387,0.1862 1.5091,0.0586 2.0125,-0.2102 0.3443,-0.1831 0.8142,-0.4339 1.7813,-0.6576 0.3788,-0.0886 0.779,-0.1336 1.1914,-0.1336 1.8757,0 3.4148,0.9008 3.4781,0.9384l0.0681 0.0391 0 11.1406 -0.0336 0.037c-0.0451,0.0545 -1.1649,1.3373 -4.9657,1.3373z"/>
   <polygon class="fil5" points="18.9903,77.2849 24.0616,77.2849 24.0616,67.849 18.9903,67.849 "/>
   <path class="fil6" d="M19.1251 77.1495l4.7991 0 0 -9.1631 -4.7991 0 0 9.1631zm5.0696 0.2704l0 0 -5.3415 0 0 -9.7057 5.3415 0 0 9.7057z"/>
   <path class="fil3" d="M31.1247 71.7988c0,0 0.6025,-4.385 0.9989,-4.7797 0.3931,-0.3948 -0.874,-2.6605 -2.6624,-2.2025 -1.786,0.4565 -7.8643,3.9274 -8.3435,4.4043 -0.4775,0.4794 -1.2988,8.23 0.156,8.8125 1.4546,0.5812 9.4968,-5.882 9.851,-6.2346z"/>
   <path class="fil6" d="M29.9352 64.8916c-0.1453,0 -0.2926,0.0196 -0.4404,0.0557 -1.7162,0.4384 -7.7823,3.8696 -8.282,4.3694 -0.3285,0.3302 -0.9303,5.1487 -0.4476,7.4967 0.128,0.6211 0.3209,0.9982 0.5596,1.0945 0.0458,0.0176 0.1038,0.0265 0.1719,0.0265 1.7622,0.0016 8.807,-5.5606 9.5005,-6.201 0.1161,-0.8372 0.6317,-4.4114 1.0299,-4.8098 0.044,-0.0441 0.0615,-0.2194 -0.0652,-0.525 -0.2417,-0.5819 -1.0053,-1.5069 -2.0266,-1.5069zm-8.4368 13.3147l0 0 -0.0018 0c-0.1031,-0.0018 -0.1948,-0.0158 -0.2716,-0.0475 -0.3373,-0.135 -0.5742,-0.5561 -0.7251,-1.2916 -0.4685,-2.2759 0.0495,-7.2679 0.5215,-7.742 0.4717,-0.4721 6.5324,-3.9603 8.4071,-4.4394 0.1683,-0.0435 0.3384,-0.0645 0.5067,-0.0645 1.162,0 1.9974,1 2.2761,1.674 0.1565,0.3754 0.1601,0.6686 0.0068,0.8194 -0.2644,0.2651 -0.7278,3.0248 -0.9595,4.7023l-0.0052 0.0459 -0.0318 0.0317c-0.2828,0.281 -7.7066,6.3118 -9.7232,6.3118z"/>
   <path class="fil3" d="M51.3225 66.8114l0 -1.3716c0,0 -5.5277,-0.2914 -7.1911,0 -1.6599,0.2913 -7.438,1.7876 -8.9752,1.7876 -1.5373,0 -3.0777,-0.6651 -4.1553,0.4157 -1.081,1.0794 -0.9584,3.408 -0.583,4.3225 0.3743,0.9137 0.6651,1.9948 0.6651,1.9948l17.4142 0 3.3256 -1.788 0.5808 -1.5373 -1.0812 -3.8237z"/>
   <path class="fil6" d="M31.1864 73.8242l17.2756 0 3.2513 -1.7456 0.5478 -1.4499 -1.074 -3.8161 0 -1.2437c-0.5313,-0.027 -2.6255,-0.1231 -4.452,-0.1231 -1.2282,0 -2.0969,0.0436 -2.5797,0.1277 -0.5505,0.096 -1.5577,0.3258 -2.7233,0.5933 -2.3319,0.5314 -5.2377,1.1967 -6.2765,1.1967 -0.4422,0 -0.8827,-0.0546 -1.3093,-0.1068 -0.4072,-0.0493 -0.7911,-0.0967 -1.1595,-0.0967 -0.7022,0 -1.1914,0.1789 -1.5912,0.5789 -1.0389,1.0388 -0.9092,3.3029 -0.5532,4.1744 0.3091,0.7515 0.5619,1.6201 0.6441,1.911zm17.3461 0.2723l0 0 -17.5533 0 -0.0262 -0.1021c-0.0036,-0.01 -0.2928,-1.0823 -0.66,-1.9773 -0.393,-0.9549 -0.5261,-3.3322 0.6107,-4.4694 0.4494,-0.4494 1.0146,-0.6581 1.7832,-0.6581 0.3842,0 0.777,0.0475 1.193,0.0985 0.4176,0.0511 0.8494,0.1033 1.2758,0.1033 1.0088,0 3.8975,-0.6599 6.2173,-1.1892 1.1684,-0.2672 2.1772,-0.497 2.7358,-0.5946 0.498,-0.0885 1.3825,-0.1321 2.6265,-0.1321 2.1093,0 4.5693,0.1276 4.5939,0.1291l0.1285 0.0075 0 1.4811 1.0881 3.8478 -0.0141 0.0422 -0.6024 1.5849 -0.0435 0.0246 -3.3531 1.8038z"/>
   <path class="fil3" d="M22.8533 76.9934c0,0 -0.5402,-7.4399 -1.4945,-7.7719 -0.9568,-0.3331 -2.8272,3.6167 -2.3286,7.8563 0.498,4.2378 3.8231,-0.0844 3.8231,-0.0844z"/>
   <path class="fil6" d="M21.2403 69.3378c-0.1373,0 -0.3161,0.1155 -0.5038,0.3277 -0.9039,1.016 -1.9533,4.1518 -1.5727,7.3965 0.1373,1.156 0.4934,1.7425 1.0563,1.7425 0.9709,0 2.2765,-1.5795 2.4942,-1.8533 -0.2089,-2.846 -0.7708,-7.3819 -1.4007,-7.6011 -0.023,-0.0089 -0.0476,-0.0123 -0.0733,-0.0123zm-1.0201 9.7366l0 0c-0.7242,0 -1.17,-0.6668 -1.3243,-1.9807 -0.4089,-3.4748 0.7367,-6.5946 1.6388,-7.6088 0.3086,-0.3471 0.6123,-0.4791 0.8668,-0.3912 0.9896,0.3437 1.4952,6.6326 1.5861,7.8892l0.0053 0.0527 -0.0335 0.0406c-0.0609,0.0821 -1.5491,1.9983 -2.7393,1.9983z"/>
   <polygon class="fil3" points="50.9091,65.186 50.9091,66.8783 57.5388,66.8783 54.4101,64.9773 50.9319,64.9773 "/>
   <path class="fil6" d="M51.0444 66.7435l6.0105 0 -2.6828 -1.6295 -3.3187 0 -0.009 0.087 0 1.5425zm6.9789 0.2704l0 0 -7.2485 0 0 -1.8278 0.0363 -0.3423 3.6361 0 3.5761 2.1701z"/>
   <polygon class="fil3" points="48.6607,74.4119 58.1876,74.4119 58.1876,66.5545 48.6607,66.5545 "/>
   <path class="fil6" d="M48.7965 74.2771l9.2561 0 0 -7.5876 -9.2561 0 0 7.5876zm9.5267 0.2704l0 0 -9.799 0 0 -8.1302 9.799 0 0 8.1302z"/>
   <polygon class="fil3" points="56.8433,73.6014 56.8433,68.5247 53.2829,68.5247 52.439,67.6667 49.0045,67.6667 49.0045,70.1003 54.734,75.9423 "/>
   <path class="fil6" d="M49.1408 70.0462l5.5884 5.6995 1.9778 -2.1972 0 -4.8888 -3.4797 0 -0.8459 -0.8564 -3.2406 0 0 2.2429zm5.5973 6.0943l0 0 -5.8678 -5.9839 0 -2.6249 3.6254 0 0.8458 0.8581 3.6372 0 0 5.2637 -2.2406 2.487z"/>
   <path class="fil4" d="M56.4747 80.5603l-7.814 -10.1755c0,0 -3.3813,-0.2194 -5.2359,0.2159 -1.8531,0.4369 -5.3083,1.5278 -7.3788,1.5278 -2.0722,0 -5.089,-0.837 -7.4874,0.6898 -2.3989,1.5268 -5.1609,2.9446 -5.6713,4.3623 -0.5091,1.4182 2.2176,7.561 3.5639,7.561 1.3438,0 15.7014,1.3074 15.956,1.3074 0.2545,0 11.7778,-0.2908 11.7778,-0.2908l3.3252 -3.3257 -1.0353 -1.8723z"/>
   <path class="fil6" d="M32.2451 72.0346c-1.5039,0 -2.6512,0.2864 -3.613,0.8987 -0.467,0.2962 -0.9456,0.5876 -1.4196,0.8775 -1.9549,1.1912 -3.8027,2.3179 -4.1973,3.4143 -0.3315,0.9267 0.9215,4.4255 2.2722,6.347 0.6337,0.8986 1,1.0335 1.1638,1.0335 0.942,0 8.2417,0.6388 12.6025,1.0212 1.8213,0.1601 3.2619,0.2845 3.3534,0.2862 0.2468,0 10.8616,-0.2669 11.7199,-0.288l3.2149 -3.2161 -0.985 -1.7832 -7.7664 -10.111c-0.2123,-0.0123 -0.9614,-0.0504 -1.8618,-0.0504 -1.3947,0 -2.5268,0.0927 -3.2724,0.2682 -0.4473,0.1055 -0.997,0.2509 -1.5795,0.4053 -1.8898,0.5021 -4.2413,1.1249 -5.8309,1.1249 -0.5144,0 -1.0846,-0.0511 -1.6883,-0.1033 -0.6825,-0.0615 -1.3893,-0.1249 -2.1126,-0.1249zm10.162 14.1506l0 0c-0.0791,0 -1.1533,-0.0951 -3.378,-0.2899 -4.3557,-0.3806 -11.6483,-1.0194 -12.578,-1.0194 -0.3831,0 -0.8492,-0.3859 -1.3865,-1.1495 -1.3215,-1.8794 -2.7022,-5.4813 -2.304,-6.5924 0.4264,-1.1883 2.3127,-2.3373 4.3117,-3.555 0.4717,-0.288 0.9491,-0.579 1.4143,-0.8757 1.0069,-0.6407 2.2018,-0.9391 3.7585,-0.9391 0.7356,0 1.4477,0.0633 2.1374,0.1249 0.5966,0.0528 1.1613,0.1032 1.6635,0.1032 1.5532,0 3.8865,-0.6195 5.7611,-1.1155 0.584,-0.155 1.1367,-0.3021 1.5859,-0.4071 0.7773,-0.183 1.9006,-0.2757 3.3358,-0.2757 1.0722,0 1.932,0.0545 1.9409,0.0545l0.0615 0.0053 0.0364 0.0487 7.814 10.176 1.0968 1.9773 -3.436 3.4361 -0.054 0.0016c-0.4703,0.0123 -11.5292,0.2917 -11.7813,0.2917z"/>
   <polygon class="fil3" points="61.3866,77.7272 61.3866,72.6734 59.8562,72.6734 59.8562,73.8108 59.0915,73.8108 59.0915,72.721 57.3768,72.721 57.3768,73.7404 56.7188,73.7404 56.7188,72.6734 54.3393,72.6734 54.3393,75.7798 58.8827,80.3245 61.5497,78.3289 "/>
   <path class="fil6" d="M54.4753 75.7241l4.4202 4.4202 2.4986 -1.8669 -0.1436 -0.5495 0 -4.9183 -1.2581 0 0 1.1367 -1.0352 0 0 -1.0911 -1.4442 0 0 1.0212 -0.9302 0 0 -1.0669 -2.1075 0 0 2.9145zm4.3954 4.778l0 0 -0.0836 -0.0821 -4.5822 -4.5832 0 -3.2977 2.6481 0 0 1.0653 0.3879 0 0 -1.0194 1.9861 0 0 1.0897 0.4932 0 0 -1.1355 1.8019 0 0 5.17 0.183 0.675 -2.8344 2.118z"/>
   <polygon class="fil3" points="57.6544,78.3067 48.6598,66.5534 48.6598,70.9648 56.226,80.8951 "/>
   <path class="fil6" d="M48.7959 70.9191l7.4122 9.7279 1.2846 -2.3286 -8.6968 -11.3632 0 3.9639zm7.449 10.223l0 0 -7.7208 -10.1322 0 -4.8555 9.291 12.1417 -1.5702 2.8459z"/>
   <polygon class="fil3" points="56.2173,82.5732 58.3038,82.5732 58.3038,78.099 56.2173,78.099 "/>
   <path class="fil6" d="M56.3522 82.4366l1.8162 0 0 -4.2025 -1.8162 0 0 4.2025zm2.0864 0.2721l0 0 -2.3585 0 0 -4.7451 2.3585 0 0 4.7451z"/>
   <path class="fil3" d="M53.8993 83.5222c0,0 -15.2415,-0.1155 -17.5242,-0.1155 -2.2835,0 -10.8026,-3.6853 -11.2184,-3.8255 -0.4175,-0.1385 -3.6166,-1.9004 -3.6166,-1.9004 0,0 -0.4106,-1.8072 -1.253,-1.8072 -0.8404,0 -1.4827,0.254 -1.4827,1.2054l0 4.2643c0,0 4.2661,3.6864 8.7391,5.4238 4.4743,1.7391 9.156,1.437 9.4579,1.1367 0.3016,-0.3015 2.758,2.0395 7.5226,0.3354 4.7621,-1.7038 7.4979,-0.8457 7.4979,-0.8457l1.8775 -3.8713z"/>
   <path class="fil6" d="M37.0819 87.7407c0.1372,0 0.3284,0.0827 0.6182,0.2088 0.6733,0.2932 1.8037,0.7806 3.4495,0.7806 1.06,0 2.1797,-0.207 3.3269,-0.6176 2.473,-0.8839 4.394,-1.0705 5.5698,-1.0705 1.0106,0 1.6564,0.1303 1.904,0.1918l1.7334 -3.5779c-1.8601,-0.0141 -15.1993,-0.1144 -17.3085,-0.1144 -1.9515,0 -8.1823,-2.5672 -10.5286,-3.534 -0.3895,-0.1613 -0.6722,-0.2775 -0.7339,-0.2967 -0.4246,-0.142 -3.5075,-1.8389 -3.637,-1.911l-0.053 -0.0293 -0.0141 -0.0599c-0.1083,-0.4739 -0.5191,-1.7021 -1.1215,-1.7021 -0.9313,0 -1.3471,0.3297 -1.3471,1.0705l0 4.2025c0.4772,0.4037 4.5005,3.7464 8.6526,5.3606 3.1552,1.2253 6.2115,1.3584 7.3806,1.3584 1.2616,0 1.8563,-0.1332 1.9349,-0.1947 0.0423,-0.0424 0.1021,-0.0651 0.1738,-0.0651zm4.0676 1.2616l0 0c-1.7022,0 -2.8634,-0.5032 -3.5569,-0.8035 -0.2318,-0.1021 -0.43,-0.1877 -0.5108,-0.1877 -0.1841,0.1895 -1.2547,0.2598 -2.1087,0.2598 -1.1848,0 -4.2816,-0.1336 -7.4791,-1.3776 -4.4431,-1.7268 -8.7347,-5.4099 -8.7788,-5.4469l-0.0476 -0.0404 0 -4.327c0,-0.9022 0.5303,-1.3409 1.6193,-1.3409 0.8565,0 1.2883,1.5232 1.3709,1.8528 1.118,0.6148 3.2254,1.7569 3.541,1.8624 0.0703,0.0223 0.3261,0.1278 0.7507,0.3031 2.1093,0.8687 8.5284,3.5146 10.4255,3.5146 2.2581,0 17.3735,0.1144 17.526,0.1162l0.2141 0.0018 -2.0231 4.1691 -0.1101 -0.0352c-0.0071,-0.0018 -0.6881,-0.2105 -1.9358,-0.2105 -1.1547,0 -3.0412,0.1841 -5.4781,1.0545 -1.1779,0.4212 -2.327,0.6353 -3.4186,0.6353z"/>
   <path class="fil3" d="M25.5989 79.095c0,-0.0053 0.0018,-0.0105 0.0018,-0.0176 0,-0.0089 -0.0035,-0.0176 -0.0035,-0.0277l-0.0036 -0.109 -0.0086 0c-0.0717,-1.3667 -1.1933,-2.4565 -2.5798,-2.4565 -1.1683,0 -2.1457,0.779 -2.4687,1.8424l-0.0124 0c0,0 -1.6758,4.9099 -1.3052,5.7029 0.3737,0.7947 3.7234,3.3533 6.5536,1.6141l-0.1737 -6.5487z"/>
   <path class="fil6" d="M20.618 78.4731c-0.6633,1.9568 -1.5268,4.9623 -1.2759,5.4995 0.2476,0.5297 2.1738,2.1287 4.313,2.1287 0.7126,0 1.3795,-0.1788 1.9813,-0.532l-0.1736 -6.4713c0,-0.023 -0.0018,-0.0354 -0.0018,-0.0495l-0.0106 -0.0997c-0.0703,-1.3056 -1.1444,-2.3284 -2.4447,-2.3284 -1.0821,0 -2.0231,0.702 -2.3404,1.746l-0.0334 0.1086 -0.014 -0.0019zm3.0371 7.8998l0 0c-2.1685,0 -4.2309,-1.5877 -4.5586,-2.2846 -0.3843,-0.8213 1.1268,-5.2989 1.3004,-5.8062l0.0351 -0.1038 0.0089 0.0017c0.3842,-1.0999 1.3999,-1.8318 2.5649,-1.8318 1.4059,0 2.5726,1.074 2.7062,2.4653l0.0049 0.0018 0.0176 0.288 0.1775 6.6157 -0.0684 0.04c-0.6616,0.4071 -1.3983,0.6141 -2.1884,0.6141z"/>
   <path class="fil3" d="M36.6548 80.6794c-0.0194,-0.118 -0.0471,-0.23 -0.0822,-0.3409 -0.0229,-0.0838 -0.0439,-0.1508 -0.0632,-0.2035 -0.0106,-0.0276 -0.0212,-0.0575 -0.0335,-0.0857 -0.0017,-0.0034 -0.0053,-0.0139 -0.0071,-0.0176 0,-0.0016 -0.0035,-0.0016 -0.0035,-0.0034 -0.4053,-0.9021 -1.3091,-1.5339 -2.3639,-1.5339 -1.3102,0 -2.3841,0.9779 -2.5579,2.2413 -0.0017,0 -0.0104,0.0035 -0.0104,0.0035 0,0 -1.3479,5.6114 -0.8124,7.1641 0.5314,1.5532 5.1674,2.6887 7.0696,0.0476 0,0 -0.7161,-5.3553 -1.1354,-7.2714z"/>
   <path class="fil6" d="M31.6521 80.823c-0.1354,0.5753 -1.2917,5.6167 -0.8036,7.0362 0.2858,0.8317 1.8828,1.5356 3.4883,1.5356 0.8298,0 2.3549,-0.1929 3.311,-1.4811 -0.075,-0.5665 -0.7331,-5.4202 -1.1245,-7.2052 -0.0175,-0.1067 -0.0422,-0.2088 -0.079,-0.3295 -0.0228,-0.0845 -0.044,-0.1474 -0.0616,-0.1966l-0.0382 -0.0932c-0.4006,-0.8892 -1.2775,-1.46 -2.2412,-1.46 -1.2159,0 -2.2582,0.9128 -2.4247,2.1234l-0.0264 0.0704zm2.6847 8.8423l0 0c-1.7409,0 -3.4201,-0.7707 -3.7446,-1.7181 -0.5407,-1.5726 0.7544,-7.0103 0.8088,-7.2404l0.0229 -0.0837c0.2248,-1.2969 1.3595,-2.2635 2.6793,-2.2635 1.0688,0 2.0441,0.6334 2.4847,1.6123l0 0.0018 0.0089 0.0124c0.0122,0.028 0.0194,0.0493 0.0262,0.0702l0.0143 0.0311c0.0211,0.0564 0.0422,0.1267 0.0669,0.2159 0.0403,0.1284 0.0661,0.2422 0.0836,0.3548 0.4159,1.8917 1.1287,7.2204 1.1358,7.2733l0.0068 0.0546 -0.0315 0.044c-0.7579,1.0546 -2.0249,1.6354 -3.5622,1.6354z"/>
   <path class="fil3" d="M50.4832 81.5508c0,0 -0.0123,-0.0017 -0.0141,-0.0017 -0.1471,-1.5304 -1.4194,-2.7304 -2.9879,-2.7304 -1.4739,0 -2.6975,1.0575 -2.9586,2.4565 0,0.0017 -0.0036,0.0017 -0.0036,0.0053 -0.3231,0.8967 -0.6105,6.7857 -0.2157,7.1787 3.2918,2.5268 6.5816,-2.0395 6.5816,-2.0395l-0.4018 -4.8689z"/>
   <path class="fil6" d="M44.6341 81.3603c-0.3372,1.0545 -0.5301,6.652 -0.2351,7.0051 0.6211,0.4734 1.302,0.7209 2.0107,0.7209 2.2043,0 4.0818,-2.3709 4.3381,-2.7057l-0.414 -4.8203c-0.1426,-1.4863 -1.3673,-2.6078 -2.8519,-2.6078 -1.3825,0 -2.5726,0.9883 -2.8266,2.348l-0.0212 0.0597zm1.7756 7.9964l0 0 -0.0018 0c-0.7684,0 -1.5057,-0.2652 -2.1879,-0.7895 -0.4809,-0.4791 -0.1547,-6.3417 0.1632,-7.3107l0 -0.0436 0.0176 -0.0139c0.2858,-1.453 1.579,-2.5164 3.0812,-2.5164 1.5902,0 2.9093,1.1736 3.1111,2.7497l0.0229 0.0036 0.0018 0.1032 0.407 4.9206 -0.0299 0.0398c-0.0822,0.1162 -2.0882,2.8572 -4.5851,2.8572z"/>
   <path class="fil3" d="M54.3979 56.2847l-0.4633 -5.0302c0,0 -0.2558,-1.413 -1.4141,-1.413l-2.8043 0c0,0 -0.8805,0.1846 -0.9985,0.997 -0.1154,0.8108 -0.1154,2.1548 -0.1154,2.1548l1.925 0 0 3.3845 3.9165 0 -0.0458 -0.0931z"/>
   <path class="fil6" d="M50.6623 56.2426l3.5948 0 -0.4575 -4.9747c-0.0071,-0.0421 -0.2493,-1.2913 -1.2791,-1.2913l-2.8043 0c-0.0036,0.0045 -0.7615,0.1757 -0.8635,0.8798 -0.091,0.6442 -0.1104,1.6413 -0.1139,2.0016l1.9235 0 0 3.3845zm4.0008 0.2703l0 0 -4.2713 0 0 -3.3829 -1.9252 0 0 -0.1367c0,-0.0541 0.0018,-1.3619 0.1174,-2.1742 0.1285,-0.8949 1.0634,-1.1022 1.1038,-1.1112l2.8327 -0.0016c1.258,0 1.5437,1.5091 1.5471,1.5256l0.4616 5.0168 0.1339 0.2642z"/>
   <polygon class="fil5" points="92.7792,45.1115 94.9584,45.1115 94.9584,42.9795 92.7792,42.9795 "/>
   <path class="fil6" d="M92.916 44.9764l1.9092 0 0 -1.8619 -1.9092 0 0 1.8619zm2.1797 0.2718l0 0 -2.452 0 0 -2.404 2.452 0 0 2.404z"/>
   <polygon class="fil3" points="62.6465,37.0917 64.8261,37.0917 64.8261,34.9596 62.6465,34.9596 "/>
   <path class="fil6" d="M62.7813 36.9566l1.9094 0 0 -1.862 -1.9094 0 0 1.862zm2.1796 0.2703l0 0 -2.451 0 0 -2.404 2.451 0 0 2.404z"/>
   <polygon class="fil5" points="33.6898,61.4786 35.8688,61.4786 35.8688,59.3465 33.6898,59.3465 "/>
   <path class="fil6" d="M33.8263 61.3405l1.9077 0 0 -1.8619 -1.9077 0 0 1.8619zm2.1778 0.2718l0 0 -2.4498 0 0 -2.4025 2.4498 0 0 2.4025z"/>
   <path class="fil3" d="M35.0506 82.3902c0,0.5303 -0.4301,0.9584 -0.9578,0.9584 -0.5303,0 -0.9603,-0.428 -0.9603,-0.9584 0,-0.5296 0.4299,-0.9595 0.9603,-0.9595 0.5276,0 0.9578,0.4298 0.9578,0.9595z"/>
   <path class="fil6" d="M34.0922 81.5667c-0.4545,0 -0.823,0.3683 -0.823,0.8229 0,0.4546 0.3685,0.823 0.823,0.823 0.4544,0 0.8228,-0.3684 0.8228,-0.823 0,-0.4546 -0.3684,-0.8229 -0.8228,-0.8229zm0 1.918l0 0c-0.6037,0 -1.0951,-0.4915 -1.0951,-1.0951 0,-0.6035 0.4914,-1.0934 1.0951,-1.0934 0.6035,0 1.095,0.4899 1.095,1.0934 0,0.6036 -0.4915,1.0951 -1.095,1.0951z"/>
   <path class="fil3" d="M48.2786 82.3902c0,0.5303 -0.4301,0.9584 -0.9605,0.9584 -0.5294,0 -0.9578,-0.428 -0.9578,-0.9584 0,-0.5296 0.4283,-0.9595 0.9578,-0.9595 0.5303,0 0.9605,0.4298 0.9605,0.9595z"/>
   <path class="fil6" d="M47.3188 81.5667c-0.4545,0 -0.823,0.3683 -0.823,0.8229 0,0.4546 0.3685,0.823 0.823,0.823 0.4546,0 0.8246,-0.3684 0.8246,-0.823 0,-0.4546 -0.37,-0.8229 -0.8246,-0.8229zm0 1.918l0 0c-0.6037,0 -1.0951,-0.4915 -1.0951,-1.0951 0,-0.6035 0.4914,-1.0934 1.0951,-1.0934 0.6035,0 1.0952,0.4899 1.0952,1.0934 0,0.6036 -0.4917,1.0951 -1.0952,1.0951z"/>
   <path class="fil3" d="M23.7729 79.7624c0,0.5297 -0.4298,0.9579 -0.9595,0.9579 -0.5286,0 -0.9584,-0.4281 -0.9584,-0.9579 0,-0.5302 0.4297,-0.9601 0.9584,-0.9601 0.5296,0 0.9595,0.4298 0.9595,0.9601z"/>
   <path class="fil6" d="M22.814 78.9389c-0.4546,0 -0.823,0.3684 -0.823,0.8229 0,0.4547 0.3684,0.823 0.823,0.823 0.4544,0 0.8247,-0.3683 0.8247,-0.823 0,-0.4545 -0.3703,-0.8229 -0.8247,-0.8229zm0 1.918l0 0c-0.6037,0 -1.0951,-0.4915 -1.0951,-1.0951 0,-0.6035 0.4914,-1.0951 1.0951,-1.0951 0.6035,0 1.0951,0.4916 1.0951,1.0951 0,0.6036 -0.4916,1.0951 -1.0951,1.0951z"/>
   <path class="fil3" d="M52.0794 51.8145c0,0.4685 -0.334,0.8499 -0.7462,0.8499 -0.4106,0 -0.7439,-0.3814 -0.7439,-0.8499 0,-0.4714 0.3332,-0.8514 0.7439,-0.8514 0.4121,0 0.7462,0.38 0.7462,0.8514z"/>
   <path class="fil6" d="M51.3338 51.0983c-0.3367,0 -0.609,0.3198 -0.609,0.7147 0,0.395 0.2723,0.7163 0.609,0.7163 0.3366,0 0.6089,-0.3213 0.6089,-0.7163 0,-0.3949 -0.2723,-0.7147 -0.6089,-0.7147zm0 1.7027l0 0c-0.4864,0 -0.8809,-0.4429 -0.8809,-0.9881 0,-0.5435 0.3946,-0.988 0.8809,-0.988 0.4862,0 0.8809,0.4444 0.8809,0.988 0,0.5451 -0.3948,0.9881 -0.8809,0.9881z"/>
   <path class="fil4" d="M66.8128 54.6721c-0.3402,-0.0901 -1.6864,0.1592 -1.9638,0.1592 -0.068,0 -0.1455,0.006 -0.2228,0.015l0.0176 -0.015 -0.9525 0c-0.3897,0 -1.2019,0.1771 -1.5902,0.1771 -0.3877,0 -1.1313,0.9024 -1.2892,0.9024 -0.1601,0 -1.3268,1.3259 -1.3268,1.3259 0,0 0.407,0.7238 0.7596,1.0766 0.3548,0.3544 0.3372,0.3349 1.2194,0.3349 0.8846,0 0.7778,-0.3874 1.0617,-0.3874 0.1777,0 0.4107,-0.2809 0.5601,-0.5946 0.2961,0.084 0.6459,0.1411 0.837,0.1411 0.3703,0 0.6706,0.1562 1.2284,-0.1442 0.5542,-0.3032 0.5313,-0.5345 0.7561,-1.5676 0.2211,-1.0316 1.3532,-1.1923 1.3532,-1.1923 0,0 -0.1074,-0.1427 -0.4476,-0.2312z"/>
   <path class="fil2" d="M177.8711 11.3924c-12.6297,8.4223 -24.2743,12.2723 -34.5924,13.376l-47.664 36.7163 -68.7178 52.937c3.4899,7.3804 7.6193,15.0361 12.504,22.9416l56.2137 -44.6481 85.2519 -67.7081c-1.2146,-8.7796 -2.9954,-13.6147 -2.9954,-13.6147z"/>
   <path class="fil3" d="M95.6153 204.2105c-22.5804,-21.0131 -39.4296,-41.2507 -51.9584,-60.2051l51.9584 -41.27 86.1509 -68.426c1.8648,32.5802 -7.3217,96.5456 -86.1509,169.9011zm-68.7197 -89.7888l0 0c3.4918,7.3804 7.6206,15.0367 12.5059,22.9416l56.2137 -44.6475 85.253 -67.7102c-1.2163,-8.7781 -2.9957,-13.6117 -2.9957,-13.6117 -12.6311,8.4193 -24.2757,12.2708 -34.5932,13.3745l-47.664 36.7163 -68.7197 52.937zm-13.5363 -103.0278l0 0c0,0 -14.1834,38.5091 10.2246,95.6737l72.0313 -55.4843 34.7945 -26.8044c-21.6149,-2.3229 -34.7945,-15.7319 -34.7945,-15.7319 0,0 -33.9531,34.5495 -82.2559,2.3469zm169.4143 -11.0245l0 0c-51.1831,34.1216 -87.1601,-0.3694 -87.1601,-0.3694 0,0 -35.976,34.491 -87.1571,0.3694 0,0 -48.5849,99.0266 87.1571,215.856 135.7463,-116.8294 87.1601,-215.856 87.1601,-215.856z"/>
   <path class="fil7" d="M119.7013 77.8903c0,14.2695 -11.569,25.8387 -25.8386,25.8387 -14.2696,0 -25.8386,-11.5691 -25.8386,-25.8387 0,-14.2705 11.5689,-25.8386 25.8386,-25.8386 14.2695,0 25.8386,11.568 25.8386,25.8386z"/>
   <path class="fil6" d="M93.8627 52.3897c-14.0608,0 -25.4996,11.4403 -25.4996,25.5006 0,14.0606 11.4388,25.5001 25.4996,25.5001 14.0605,0 25.5,-11.4395 25.5,-25.5001 0,-14.0603 -11.4395,-25.5006 -25.5,-25.5006zm0 51.6777l0 0c-14.4344,0 -26.1772,-11.7429 -26.1772,-26.1771 0,-14.4342 11.7428,-26.178 26.1772,-26.178 14.4344,0 26.1776,11.7438 26.1776,26.178 0,14.4342 -11.7432,26.1771 -26.1776,26.1771z"/>
   <path class="fil6" d="M68.4439 73.7299l-0.0352 -0.8125c23.3876,-1.021 27.4005,-20.6359 27.4393,-20.8326l0.7965 0.1502c-0.0388,0.2057 -4.1796,20.4456 -28.2006,21.495z"/>
   <path class="fil6" d="M93.3799 103.8943l-0.7682 -0.2651c2.532,-7.3277 7.496,-16.9073 16.7593,-20.9233 5.5699,-2.4148 9.9918,-1.6687 10.176,-1.636l-0.1408 0.8006c-0.1736,-0.0299 -17.4633,-2.7601 -26.0263,22.0238z"/>
   <path class="fil6" d="M111.3916 96.5413c-0.0387,-0.3179 -1.0246,-7.7947 -8.2034,-9.0194l0.1367 -0.8018c7.7822,1.328 8.8633,9.6405 8.8739,9.7244l-0.8072 0.0968z"/>
   <path class="fil6" d="M97.1483 94.9946c-0.191,-0.0194 -19.1688,-2.1075 -18.8156,-23.5823l0.8123 0.0123c-0.1425,8.6932 2.8459,15.1629 8.8857,19.229 4.5187,3.0423 9.1494,3.5268 9.197,3.5321l-0.0793 0.8089z"/>
   <polygon class="fil1" points="36.409,113.2491 40.2452,110.2465 49.8099,116.5027 49.8451,116.4746 45.9198,105.8075 49.7537,102.8068 59.4505,115.2005 56.899,117.1953 50.0274,108.413 49.994,108.4412 53.8266,119.5979 51.7279,121.2403 41.8875,114.9213 41.8522,114.9477 48.6574,123.6445 46.1041,125.6428 "/>
   <path class="fil1" d="M61.89 105.4252l3.2096 -2.5111 -5.1189 -3.3259 -0.0351 0.0265 1.9444 5.8104zm-5.689 -7.8053l0 0 2.7953 -2.1865 14.3296 8.767 -2.829 2.2142 -3.0951 -2.0265 -4.6362 3.6249 1.1878 3.5203 -2.7602 2.158 -4.9921 -16.0714z"/>
   <polygon class="fil1" points="64.713,90.9608 67.4381,88.8305 75.3412,98.931 81.3811,94.2051 83.1727,96.495 74.4074,103.3529 "/>
   <path class="fil1" d="M84.8909 87.2533l3.2096 -2.5127 -5.1181 -3.3253 -0.0354 0.0283 1.9439 5.8096zm-5.6866 -7.8063l0 0 2.7932 -2.1849 14.3292 8.7666 -2.8281 2.213 -3.0978 -2.0253 -4.6325 3.6254 1.1867 3.5181 -2.7585 2.1604 -4.9921 -16.0733z"/>
   <path class="fil1" d="M105.9303 76.3454c0.0104,1.9795 -0.8724,3.4254 -2.0706,4.362 -3.8377,3.0025 -8.3331,1.904 -11.1302,-1.6721 -2.8775,-3.6795 -2.8624,-8.3068 0.9736,-11.3094 2.5339,-1.9828 6.1523,-2.2951 8.6457,0.2862l-2.6025 2.0372c-1.3859,-1.1267 -2.967,-1.0369 -4.2496,-0.0317 -2.4481,1.9127 -1.739,4.7171 -0.0422,6.8854 1.6158,2.0659 4.1655,3.429 6.6115,1.5145 1.7707,-1.3859 2.0482,-3.1409 0.86,-4.9816l-2.741 2.1446 -1.5895 -2.029 5.208 -4.0741 5.2395 6.6995 -1.7355 1.3562 -1.3771 -1.1877z"/>
   <path class="fil1" d="M111.6222 66.5452l3.2113 -2.5125 -5.1205 -3.326 -0.0345 0.0286 1.9437 5.8098zm-5.6871 -7.8069l0 0 2.7954 -2.1848 14.3294 8.7646 -2.8289 2.2149 -3.0989 -2.0272 -4.6323 3.626 1.1864 3.52 -2.7585 2.1603 -4.9925 -16.0738z"/>
   <path class="fil1" d="M130.6327 46.4089c-1.1384,-1.0962 -3.0512,-1.1112 -4.4043,-0.0511 -2.4476,1.9145 -1.7368,4.7164 -0.0424,6.8862 1.6185,2.0646 4.1662,3.4281 6.614,1.5135 1.6672,-1.3033 1.7058,-3.1818 0.6388,-4.9762l2.6373 -2.0631c2.1391,3.3064 1.5531,6.9553 -1.4846,9.3307 -3.8355,3.0031 -8.3316,1.9025 -11.1305,-1.6743 -2.8775,-3.6774 -2.8618,-8.3067 0.9744,-11.3069 2.7252,-2.1322 6.2644,-2.3273 8.8352,0.2764l-2.6377 2.0646z"/>
   <polygon class="fil1" points="139.3471,48.481 142.0722,46.3489 144.164,49.0201 141.4387,51.1524 "/>
   <polygon class="fil1" points="137.3728,34.4579 146.0856,27.6408 147.8784,29.9322 141.8915,34.6186 144.1303,37.4821 149.3208,33.4219 150.9781,35.5391 145.7867,39.5978 149.7947,44.7181 147.068,46.8503 "/>
   <polygon class="fil1" points="153.2829,37.389 156.0067,35.2582 158.0969,37.931 155.3746,40.0618 "/>
   <polygon class="fil6" points="89.1874,18.7831 94.1689,18.7831 94.1689,19.2951 91.9774,19.2951 91.9774,25.0686 91.3792,25.0686 91.3792,19.2951 89.1874,19.2951 "/>
   <polygon class="fil6" points="96.5028,18.7831 97.3813,18.7831 99.5574,24.2939 101.7229,18.7831 102.6016,18.7831 102.6016,25.0686 102.0033,25.0686 102.0033,19.6359 101.9857,19.6359 99.8384,25.0686 99.2747,25.0686 97.1185,19.6359 97.101,19.6359 97.101,25.0686 96.5028,25.0686 "/>
  </g>
 </g>
</svg>
