<?xml version="1.0" encoding="UTF-8" standalone="no"?>
<!-- Generator: Adobe Illustrator 19.2.1, SVG Export Plug-In . SVG Version: 6.00 Build 0)  -->

<svg
   version="1.1"
   id="Layer_1"
   x="0px"
   y="0px"
   width="409.60001"
   height="409.60001"
   viewBox="0 0 409.60001 409.60001"
   xml:space="preserve"
   sodipodi:docname="Man-City.svg"
   xmlns:inkscape="http://www.inkscape.org/namespaces/inkscape"
   xmlns:sodipodi="http://sodipodi.sourceforge.net/DTD/sodipodi-0.dtd"
   xmlns="http://www.w3.org/2000/svg"
   xmlns:svg="http://www.w3.org/2000/svg"><defs
   id="defs51" /><sodipodi:namedview
   id="namedview51"
   pagecolor="#ffffff"
   bordercolor="#000000"
   borderopacity="0.25"
   inkscape:showpageshadow="2"
   inkscape:pageopacity="0.0"
   inkscape:pagecheckerboard="0"
   inkscape:deskcolor="#d1d1d1" />
<style
   type="text/css"
   id="style1">
	.st0{fill:#00285E;}
	.st1{fill:#FFFFFF;}
	.st2{fill:#6CADDF;}
	.st3{fill-rule:evenodd;clip-rule:evenodd;fill:#00285E;}
	.st4{fill-rule:evenodd;clip-rule:evenodd;fill:#97C1E7;}
	.st5{fill-rule:evenodd;clip-rule:evenodd;fill:#FFFFFF;}
	.st6{fill:#FFC758;}
	.st7{fill:#EE3124;}
	.st8{fill:#D4A11E;}
	.st9{fill-rule:evenodd;clip-rule:evenodd;fill:#FFC758;}
	.st10{fill-rule:evenodd;clip-rule:evenodd;fill:#D4A11E;}
</style>
<g
   id="g51">
	<path
   class="st0"
   d="M 204.8,0 C 91.9,0 0,91.9 0,204.8 0,317.7 91.9,409.6 204.8,409.6 317.7,409.6 409.6,317.7 409.6,204.8 409.5,91.9 317.7,0 204.8,0"
   id="path1" />
	<path
   class="st1"
   d="M 388.2,204.8 C 388.2,103.5 306.1,21.4 204.7,21.4 103.4,21.4 21.2,103.5 21.2,204.8 c 0,101.3 82.2,183.5 183.5,183.5 101.4,-0.1 183.5,-82.2 183.5,-183.5"
   id="path2" />
	<path
   class="st2"
   d="M 321.6,204.8 C 321.6,140.3 269.3,88 204.8,88 140.3,88 88,140.3 88,204.8 c 0,64.5 52.3,116.8 116.8,116.8 64.5,0 116.8,-52.3 116.8,-116.8"
   id="path3" />
	<path
   class="st0"
   d="m 204.8,330.8 c -69.5,0 -126,-56.6 -126,-126.1 0,-69.5 56.5,-126 126,-126 69.5,0 126.1,56.5 126.1,126 -0.1,69.6 -56.6,126.1 -126.1,126.1 z m 0,-245 c -65.6,0 -119,53.4 -119,119 0,65.6 53.4,119 119,119 65.6,0 119,-53.4 119,-119 0,-65.6 -53.4,-119 -119,-119 z"
   id="path4" />
	<path
   class="st2"
   d="M 204.8,401.2 C 96.5,401.2 8.4,313.1 8.4,204.8 8.4,96.5 96.5,8.4 204.8,8.4 c 108.3,0 196.4,88.1 196.4,196.4 -0.1,108.3 -88.1,196.4 -196.4,196.4 m 0,-388.6 c -106,0 -192.1,86.2 -192.1,192.2 0,105.9 86.2,192.1 192.1,192.1 105.9,0 192.1,-86.2 192.1,-192.1 0,-106 -86.2,-192.2 -192.1,-192.2"
   id="path5" />
	<g
   id="g7">
		<path
   class="st2"
   d="m 40.9,200.3 -3.3,0.8 -0.9,-3.4 5.5,-1.6 H 45 v 19.2 h -4.1 z"
   id="path6" />
		<path
   class="st2"
   d="m 49.8,210 v 0 c 0,-2.4 1.1,-3.7 3.1,-4.6 -1.5,-0.9 -2.4,-2.1 -2.4,-4.2 v -0.1 c 0,-2.9 2.7,-5.2 6.7,-5.2 4,0 6.7,2.3 6.7,5.2 v 0.1 c 0,2 -0.9,3.3 -2.4,4.2 1.9,1 3.1,2.2 3.1,4.5 v 0.1 c 0,3.5 -3.1,5.6 -7.3,5.6 -4.2,0 -7.5,-2.3 -7.5,-5.6 z m 10.6,-0.3 v 0 c 0,-1.5 -1.4,-2.4 -3.3,-2.4 -1.9,0 -3.3,0.9 -3.3,2.3 v 0 c 0,1.3 1.2,2.4 3.3,2.4 2.1,0 3.3,-1 3.3,-2.3 z m -0.5,-8 v 0 c 0,-1.2 -1,-2.3 -2.7,-2.3 -1.7,0 -2.7,1 -2.7,2.2 v 0.1 c 0,1.3 1.1,2.3 2.7,2.3 1.6,0 2.7,-1 2.7,-2.3 z"
   id="path7" />
	</g>
	<g
   id="g9">
		<path
   class="st2"
   d="m 351.7,207.4 c -1,0.8 -2.2,1.3 -3.9,1.3 -4.1,0 -6.8,-2.3 -6.8,-6.1 v -0.1 c 0,-3.8 3,-6.7 7.3,-6.7 2.6,0 4,0.6 5.5,2.1 1.4,1.4 2.2,3.4 2.2,7.2 v 0.1 c 0,6.2 -2.9,10.4 -8.3,10.4 -2.8,0 -4.6,-0.9 -6.3,-2.3 l 2.2,-3.2 c 1.4,1.1 2.6,1.6 4.2,1.6 2.9,0 3.7,-2.7 3.9,-4.3 z m 0.1,-5 v 0 c 0,-1.7 -1.2,-3 -3.3,-3 -2.1,0 -3.2,1.2 -3.2,2.9 v 0.1 c 0,1.7 1.3,2.9 3.3,2.9 2,-0.1 3.2,-1.3 3.2,-2.9 z"
   id="path8" />
		<path
   class="st2"
   d="m 369.4,211.1 h -9.3 l -0.7,-3 10.4,-12.1 h 3.5 v 11.7 h 2.6 v 3.4 h -2.6 v 4.1 h -4 v -4.1 z m 0,-3.4 v -5.9 l -5.1,5.9 z"
   id="path9" />
	</g>
	<path
   class="st1"
   d="m 204.8,323.8 c -65.6,0 -119,-53.4 -119,-119 0,-65.6 53.4,-119 119,-119 65.6,0 119,53.4 119,119 0,65.6 -53.4,119 -119,119 m 0,-233.6 c -63.2,0 -114.6,51.4 -114.6,114.6 0,63.2 51.4,114.6 114.6,114.6 C 268,319.4 319.4,268 319.4,204.8 319.4,141.6 268,90.2 204.8,90.2"
   id="path10" />
	<path
   class="st3"
   d="m 202.6,102.3 c -58.7,0 -92.6,7.7 -92.6,7.7 0,0 -13.5,51.5 -5.8,117.4 3.2,27.7 25.7,87.2 100.3,107.6 v 0 C 279.1,314.7 301.6,255.1 304.8,227.4 312.5,161.4 299,110 299,110 c 0,0 -33.9,-7.7 -92.6,-7.7 z"
   id="path11" />
	<path
   class="st4"
   d="m 294.5,212.1 c -0.7,20 -3.8,79.8 -90.1,112.7 -85.6,-32 -90.1,-93.9 -90.1,-112.7 z"
   id="path12" />
	<path
   class="st5"
   d="m 291.9,208.8 c 2.3,-49.6 -6.1,-89.8 -6.1,-89.8 0,0 -32.2,-6.2 -81.3,-6.2 -49.2,0 -81.9,6.8 -81.9,6.8 0,0 -8.9,40.4 -6.5,89.1 h 175.8 z"
   id="path13" />
	<g
   id="g17">
		<path
   class="st2"
   d="M 207.1,323 116,212.9 c -3.3,22.7 15.1,89.6 91.1,110.1 z"
   id="path14" />
		<path
   class="st2"
   d="m 143.2,212.2 84.3,101.7 c 8.5,-4.1 14.8,-8.1 20.8,-12.9 l -73.6,-88.8 z"
   id="path15" />
		<path
   class="st2"
   d="m 201.7,212.3 62.3,75.1 c 6.1,-6.9 11.3,-13.2 15,-19.8 l -45.8,-55.3 z"
   id="path16" />
		<path
   class="st2"
   d="m 293,212.3 -31.1,-0.1 26.1,31.5 c 4.5,-9.7 5,-26 5,-31.4 z"
   id="path17" />
	</g>
	<path
   class="st0"
   d="m 241.2,253.5 c 0,0 0,0 0,0 -0.2,-0.7 -0.8,-1.3 -1.5,-1.6 l -5.2,-1.8 c -0.5,-0.2 -0.9,-0.1 -1.4,0 -0.4,-1.8 -1.4,-3.4 -2.9,-4.5 -0.2,-0.1 -0.4,-0.3 -0.6,-0.4 -0.3,-0.2 -0.7,-0.4 -1.1,-0.6 -0.7,-0.3 -1.4,-0.5 -2,-0.7 -1.5,-0.5 -3,-1 -4.9,-2.3 -1.8,-1.3 -2.6,-2.5 -3.4,-3.6 -0.2,-0.3 -0.4,-0.5 -0.6,-0.8 -0.5,-0.8 -1.2,-1.5 -1.9,-2.1 -1.3,-0.9 -2.9,-1.4 -4.5,-1.4 -0.4,0 -0.7,0.1 -1.1,0.1 0,0 0,0 0,-0.1 0.1,-0.6 -0.1,-1.3 -0.4,-1.8 l -3.2,-4.3 c -0.5,-0.6 -1.2,-1 -2,-1 0,0 0,0 0,0 -0.8,0 -1.5,0.3 -1.9,0.9 l -3.4,4.3 c -0.4,0.5 -0.6,1.2 -0.5,1.9 v 0 c -0.3,0 -0.5,-0.1 -0.8,-0.1 -1.6,0 -3.2,0.5 -4.5,1.4 -0.2,0.1 -0.4,0.3 -0.5,0.4 -0.3,0.3 -0.6,0.5 -0.9,0.9 -0.5,0.6 -0.9,1.1 -1.3,1.7 -1,1.3 -1.8,2.5 -3.8,3.9 -1.8,1.3 -3.2,1.7 -4.5,2.1 -0.3,0.1 -0.6,0.2 -0.9,0.3 -0.9,0.2 -1.8,0.6 -2.6,1.2 -1.6,1.1 -2.6,2.8 -3,4.7 -0.5,-0.2 -1.1,-0.2 -1.7,-0.1 l -5.1,1.7 c -0.7,0.2 -1.3,0.8 -1.6,1.5 0,0 0,0 0,0 -0.2,0.7 -0.1,1.5 0.3,2.1 l 3.1,4.5 c 0.4,0.5 0.9,0.8 1.5,1 -0.8,1.7 -1,3.8 -0.4,5.6 0.1,0.2 0.2,0.4 0.2,0.6 0.1,0.4 0.3,0.8 0.6,1.2 0.4,0.6 0.8,1.2 1.2,1.7 1,1.3 1.9,2.5 2.6,4.8 0.7,2.1 0.6,3.5 0.6,4.9 0,0.3 0,0.7 0,1 -0.1,1 0,1.9 0.4,2.8 0.6,1.8 1.9,3.3 3.4,4.2 -0.2,0.4 -0.4,0.8 -0.3,1.2 v 5.4 c 0,0.8 0.4,1.5 1,1.9 0,0 0,0 0,0 0.6,0.4 1.4,0.6 2.1,0.4 l 5.3,-1.5 c 0.5,-0.1 0.8,-0.5 1.1,-0.8 1.6,1.5 3.8,2.2 5.9,2.1 0.4,0 0.8,-0.1 1.3,-0.2 0.7,-0.2 1.4,-0.4 2,-0.6 1.5,-0.5 3,-1 5.4,-1 2.2,0 3.5,0.5 4.9,0.9 0.3,0.1 0.6,0.2 0.9,0.3 0.9,0.4 1.9,0.5 2.8,0.5 1.9,0 3.8,-0.8 5.2,-2.1 0.3,0.4 0.6,0.6 1.1,0.8 l 5.2,1.6 c 0.7,0.2 1.5,0.1 2.2,-0.3 0,0 0,0 0,0 0.6,-0.4 1,-1.1 1,-1.9 l 0.1,-5.4 c 0,-0.4 -0.1,-0.8 -0.3,-1.2 1.6,-0.9 2.9,-2.4 3.4,-4.2 0.1,-0.2 0.1,-0.4 0.2,-0.7 0.1,-0.4 0.2,-0.8 0.2,-1.3 0.1,-0.7 0.1,-1.4 0.1,-2.1 0,-1.6 0,-3.1 0.7,-5.4 0.7,-2.1 1.5,-3.2 2.4,-4.3 0.2,-0.3 0.4,-0.5 0.6,-0.8 0.6,-0.7 1.1,-1.6 1.4,-2.5 0.6,-1.9 0.4,-4 -0.5,-5.8 0.5,-0.2 0.9,-0.4 1.2,-0.8 l 3.2,-4.4 c 0.5,-0.5 0.7,-1.2 0.4,-2 z"
   id="path18" />
	<path
   class="st6"
   d="m 201.6,265.2 c 0,-1.7 1.4,-3 3.1,-3 1.7,0 3.1,1.4 3.1,3 0,1.7 -1.4,3 -3.1,3 -1.7,0 -3.1,-1.4 -3.1,-3 z"
   id="path19" />
	<path
   class="st7"
   d="m 204.6,239.4 c -0.5,-1.9 -1.7,-3.5 -3.2,-4.4 l 3.2,-4.1 3,4.1 c -1.5,1 -2.5,2.5 -3,4.4 m -24.5,17.8 c -1.6,-1.1 -2.7,-2.5 -3.3,-4.2 l -4.8,1.6 2.9,4.2 c 1.4,-1 3.3,-1.6 5.2,-1.6 m 9.5,28.3 c -1.5,1.2 -3.2,1.8 -5.1,1.8 v 5.1 l 5,-1.5 c -0.6,-1.6 -0.6,-3.5 0.1,-5.4 m 30,0.1 c 0.7,1.8 0.7,3.6 0.1,5.3 l 4.9,1.5 0.1,-5.1 c -1.7,0.1 -3.5,-0.5 -5.1,-1.7 m 9.3,-28.3 c 2,-0.1 3.7,0.4 5.1,1.5 l 3,-4.1 -4.9,-1.7 c -0.4,1.6 -1.6,3.2 -3.2,4.3 m -30.5,28.4 c -2.3,0 -4.1,-1.8 -4.1,-4.1 0,-0.3 -0.3,-0.4 -0.5,-0.2 -1.5,1.8 -2.6,3.4 -2.7,5.3 -0.1,2.8 2.3,5.1 5.2,5.1 0.2,0 0.4,0 0.5,0 0.3,0 0.5,0 0.9,-0.1 2,-0.5 3.8,-1.5 7.2,-1.5 2.9,0 4.4,0.8 5.9,1.2 0.6,0.2 1.3,0.4 2,0.4 2.9,0 5.2,-2.3 5.2,-5.1 0,-2 -1.2,-3.5 -2.7,-5.3 -0.1,-0.2 -0.4,0 -0.4,0.2 0,2.2 -1.9,4.1 -4.1,4.1 -1.7,0 -3.9,-1.5 -6.1,-1.5 -1.9,0 -4.6,1.5 -6.3,1.5 z m -2.7,-5.6 c 0,1.9 1.5,3.4 3.4,3.4 0.2,0 0.4,0 0.7,-0.1 0.1,0 0.2,0 0.3,-0.1 0,0 0.1,0 0.1,0 1.2,-0.4 2.3,-0.9 4.4,-0.9 2.1,0 3.1,0.6 4.3,0.9 0.4,0.1 0.8,0.2 1.2,0.2 1.9,0 3.4,-1.5 3.4,-3.4 0,-0.5 -0.1,-1 -0.3,-1.4 -0.1,-0.2 -0.2,-0.4 -0.3,-0.5 0,0 -5.8,-7.9 -6,-8.1 -0.3,-0.4 -0.7,-0.2 -0.9,-0.1 -0.3,0.1 -1,0.3 -1.5,0.3 -0.5,0 -1.1,-0.1 -1.4,-0.3 -0.4,-0.2 -0.7,-0.3 -0.9,0.1 -0.2,0.3 -4.4,6 -5.7,7.8 -0.5,0.6 -0.8,1.3 -0.8,2.2 z m 26.7,-2.6 c -0.7,2.2 -3,3.3 -5.2,2.6 -0.3,-0.1 -0.5,0.1 -0.3,0.4 1.3,1.9 2.4,3.5 4.3,4.2 2.7,0.9 5.7,-0.6 6.5,-3.3 0.1,-0.2 0.1,-0.3 0.1,-0.5 0.1,-0.2 0.1,-0.5 0.2,-0.8 0.2,-2.1 -0.3,-4 0.8,-7.3 0.9,-2.7 2.1,-3.9 3,-5.2 0.4,-0.5 0.8,-1.1 1,-1.7 0.9,-2.7 -0.6,-5.7 -3.3,-6.5 -1.9,-0.6 -3.8,0.1 -6,0.9 -0.2,0.1 -0.2,0.3 0.1,0.4 2.2,0.7 3.4,3 2.7,5.2 -0.5,1.6 -2.6,3.2 -3.3,5.3 -0.6,1.7 0,4.6 -0.6,6.3 z m -6.2,0.8 c 1.8,0.6 3.8,-0.4 4.4,-2.2 0.1,-0.2 0.1,-0.4 0.1,-0.7 0,-0.1 0,-0.2 0,-0.3 0,0 0,-0.1 0,-0.1 0,-1.2 -0.2,-2.5 0.4,-4.4 0.7,-2 1.5,-2.8 2.2,-3.8 0.2,-0.3 0.4,-0.7 0.6,-1.1 0.6,-1.8 -0.4,-3.7 -2.2,-4.3 -0.5,-0.1 -1,-0.2 -1.4,-0.1 -0.2,0 -0.4,0 -0.6,0.1 0,0 -9.4,3 -9.7,3.1 -0.4,0.2 -0.4,0.6 -0.4,0.8 0,0.3 -0.1,1 -0.2,1.5 -0.1,0.4 -0.4,1 -0.7,1.3 -0.3,0.3 -0.5,0.6 -0.2,0.9 0.3,0.3 4.3,6 5.7,7.8 0.5,0.7 1.2,1.2 2,1.5 z m 5.6,-26.2 c 1.9,1.3 2.3,3.9 0.9,5.7 -0.2,0.2 0,0.5 0.3,0.4 2.3,-0.6 4.1,-1.2 5.3,-2.8 1.7,-2.3 1.2,-5.5 -1.1,-7.2 -0.1,-0.1 -0.3,-0.2 -0.5,-0.3 -0.2,-0.2 -0.4,-0.3 -0.8,-0.4 -1.9,-0.8 -3.9,-1 -6.7,-3 -2.3,-1.7 -3.1,-3.2 -4.1,-4.5 -0.3,-0.5 -0.8,-1 -1.4,-1.5 -2.3,-1.7 -5.6,-1.2 -7.2,1.1 -1.1,1.6 -1.1,3.6 -1,5.9 0,0.2 0.3,0.3 0.4,0 1.3,-1.8 3.9,-2.2 5.8,-0.9 1.4,1 2.3,3.5 4.1,4.7 1.6,1.5 4.6,1.8 6,2.8 z m -1.1,6.2 c 1.1,-1.5 0.8,-3.7 -0.8,-4.8 -0.1,-0.1 -0.3,-0.3 -0.6,-0.4 -0.1,0 -0.2,-0.1 -0.3,-0.1 0,0 -0.1,0 -0.1,0 -1.2,-0.4 -2.4,-0.6 -4.1,-1.8 -1.7,-1.2 -2.2,-2.3 -2.9,-3.2 -0.2,-0.3 -0.5,-0.6 -0.8,-0.9 -1.5,-1.1 -3.7,-0.8 -4.8,0.8 -0.3,0.4 -0.5,0.8 -0.6,1.3 0,0.2 -0.1,0.4 -0.1,0.6 0,0 0,9.8 0,10.1 0,0.5 0.4,0.5 0.7,0.6 0.3,0.1 1,0.4 1.3,0.6 0.4,0.3 0.8,0.7 1,1 0.2,0.3 0.4,0.6 0.8,0.4 0.4,-0.2 7.1,-2.3 9.2,-3 0.9,-0.1 1.6,-0.6 2.1,-1.2 z m -23.3,-13.4 c 1.8,-1.3 4.4,-0.9 5.8,0.9 0.2,0.2 0.5,0.2 0.5,-0.1 0.1,-2.3 0.1,-4.3 -1,-5.9 -1.6,-2.3 -4.9,-2.8 -7.2,-1.1 -0.2,0.1 -0.3,0.2 -0.4,0.3 -0.2,0.1 -0.4,0.3 -0.6,0.6 -1.4,1.6 -2.2,3.4 -5,5.4 -2.3,1.7 -4,2 -5.5,2.4 -0.6,0.2 -1.3,0.4 -1.8,0.8 -2.3,1.7 -2.9,4.9 -1.1,7.2 1.2,1.6 3.1,2.2 5.3,2.8 0.2,0.1 0.3,-0.2 0.2,-0.4 -1.3,-1.8 -0.9,-4.4 0.9,-5.7 1.4,-1 4,-1.1 5.8,-2.4 1.4,-1 2.7,-3.8 4.1,-4.8 z m 5.6,3 c -1.1,-1.5 -3.3,-1.9 -4.8,-0.8 -0.2,0.1 -0.3,0.2 -0.5,0.4 -0.1,0.1 -0.1,0.1 -0.2,0.2 0,0 -0.1,0.1 -0.1,0.1 -0.7,1 -1.3,2.1 -3,3.3 -1.7,1.2 -2.9,1.3 -4,1.8 -0.4,0.1 -0.8,0.3 -1.1,0.5 -1.5,1.1 -1.9,3.2 -0.8,4.8 0.3,0.4 0.7,0.7 1.1,0.9 0.2,0.1 0.3,0.2 0.5,0.2 0,0 9.4,3 9.7,3.1 0.5,0.1 0.7,-0.2 0.8,-0.4 0.2,-0.2 0.6,-0.8 1,-1.1 0.4,-0.3 0.9,-0.5 1.3,-0.6 0.4,-0.1 0.7,-0.2 0.7,-0.6 0,-0.4 0,-7.4 0,-9.6 0.1,-0.7 -0.1,-1.5 -0.6,-2.2 z m -20,17.9 c -0.7,-2.2 0.5,-4.5 2.6,-5.2 0.3,-0.1 0.3,-0.4 0.1,-0.5 -2.2,-0.8 -4.1,-1.5 -5.9,-0.9 -2.7,0.8 -4.2,3.8 -3.3,6.5 0,0.2 0.1,0.3 0.2,0.5 0.1,0.2 0.2,0.5 0.4,0.8 1.1,1.8 2.6,3.1 3.7,6.4 0.9,2.7 0.6,4.4 0.6,6 -0.1,0.6 0,1.3 0.2,2 0.9,2.7 3.8,4.2 6.5,3.3 1.9,-0.6 3,-2.2 4.3,-4.2 0.1,-0.2 -0.1,-0.4 -0.3,-0.3 -2.2,0.7 -4.5,-0.5 -5.2,-2.6 -0.5,-1.6 0.2,-4.1 -0.5,-6.2 -0.6,-1.9 -2.9,-4 -3.4,-5.6 z m 4.5,-4.3 c -1.8,0.6 -2.8,2.5 -2.2,4.3 0,0.2 0.1,0.4 0.3,0.6 0.1,0.1 0.1,0.2 0.2,0.2 0,0 0,0.1 0.1,0.1 0.7,1 1.6,1.9 2.3,3.8 0.7,2 0.4,3.1 0.5,4.3 0,0.4 0,0.8 0.2,1.2 0.6,1.8 2.5,2.8 4.3,2.2 0.5,-0.1 0.9,-0.4 1.2,-0.7 0.1,-0.1 0.3,-0.3 0.4,-0.4 0,0 5.8,-7.9 5.9,-8.2 0.3,-0.4 0,-0.7 -0.2,-0.9 -0.2,-0.2 -0.6,-0.8 -0.7,-1.3 -0.1,-0.4 -0.2,-1 -0.2,-1.4 0,-0.4 0,-0.7 -0.4,-0.8 -0.4,-0.1 -7.1,-2.3 -9.2,-3 -0.8,-0.2 -1.6,-0.3 -2.5,0 z"
   id="path20" />
	<path
   class="st6"
   d="m 233.4,159.4 21.1,-7.3 c 0,0 -1.8,8.8 -1.3,15.6 0.6,8.8 5.7,15.5 5.7,15.5 l -26,9 z"
   id="path21" />
	<g
   id="g22">
		<path
   class="st8"
   d="m 258.9,183.2 c 0,0 -4.6,-6.6 -5.4,-14.3 -0.6,-5.8 0,-10.8 1,-16.8 -0.9,4 -4.3,15.3 -13.8,25.8 -3.8,4.2 -5.5,7.9 -6.2,10.5 l -0.4,-49.7 v 0 0 c 0,0 -5,1.8 -5.5,1.9 -0.6,0.2 -0.9,0.6 -0.9,0.7 0,0.3 -0.2,0.5 -0.6,0.6 -0.4,0.1 -3.3,1.2 -5.3,1.8 -0.4,0.1 -0.2,0.5 0,0.5 2.4,-0.1 5.8,-0.4 6.1,-0.4 0.5,-0.1 0.7,-0.3 0.7,-0.6 0,0 0,0 0,-0.1 0.1,-0.4 0.4,-0.7 0.8,-0.7 0.3,0 2.1,-0.2 3.2,-0.4 l -0.5,53.5 h 2.4 v -3.8 z"
   id="path22" />
	</g>
	<g
   id="g23">
		<path
   class="st6"
   d="m 165.4,193.6 c 0,0 -3.9,-2.9 -5,-8.4 -1.1,-5.6 1.7,-8.8 1.7,-8.8 l 25.6,-8.8 c 0,0 -1.6,5.1 -0.1,10.9 1.9,7.3 5.8,12.2 5.8,12.2 0,0 -9.4,-1.8 -18.5,-0.6 -8.6,1.1 -9.5,3.5 -9.5,3.5 z"
   id="path23" />
	</g>
	<path
   class="st6"
   d="m 136,187.2 c 0,0 3.2,-8.7 12.5,-18.2 7.1,-7.2 11.7,-9.3 11.7,-9.3 0,0 -4.1,5.9 -5.8,15.6 -1.1,6 0.1,13.6 0.1,13.6 0,0 -4.8,-1 -10.3,-1.6 -4.6,-0.5 -8.2,-0.1 -8.2,-0.1 z"
   id="path24" />
	<path
   class="st8"
   d="m 160.2,159.7 c 0,0 -4,5.9 -5.7,15.6 -1.1,6 0.1,13.6 0.1,13.6 0,0 -1.2,-0.3 -4,-0.9 -11.4,-2.6 9.6,-28.3 9.6,-28.3 z"
   id="path25" />
	<path
   class="st8"
   d="m 175.2,166.7 -0.2,-23 v 0 0 0 0 c -0.5,0.2 -5,1.7 -5.5,1.9 -0.6,0.2 -0.9,0.6 -0.9,0.8 0,0.3 -0.2,0.5 -0.6,0.6 -0.4,0.1 -3.3,1.1 -5.3,1.8 -0.4,0.1 -0.2,0.5 0,0.5 2.3,-0.1 5.8,-0.4 6.1,-0.4 0.5,-0.1 0.7,-0.3 0.8,-0.6 0,0 0,0 0,-0.1 0.1,-0.4 0.4,-0.7 0.8,-0.7 0.3,0 2,-0.2 3.2,-0.3 l -0.2,19.6 h 1.8 z"
   id="path26" />
	<path
   class="st8"
   d="m 205,145.9 h 1.8 v -22.1 0 0 c 0,0 -5,1.8 -5.5,1.9 -0.6,0.2 -0.9,0.6 -0.9,0.7 0,0.3 -0.2,0.5 -0.6,0.6 -0.4,0.1 -3.3,1.1 -5.3,1.8 -0.4,0.1 -0.2,0.5 0,0.5 2.4,-0.1 5.8,-0.4 6.1,-0.4 0.5,-0.1 0.7,-0.3 0.8,-0.6 0,0 0,0 0,0 0.1,-0.4 0.4,-0.7 0.8,-0.7 0.3,0 1.9,-0.2 3.1,-0.3 z"
   id="path27" />
	<path
   class="st6"
   d="m 200.5,129 c 0,0 0.1,0 0.1,0 0.5,-0.1 0.7,-0.3 0.7,-0.6 0,0 0,0 0,0 0,-0.3 0.2,-0.5 0.5,-0.6 l -0.6,-1.9 c -0.6,0.2 -0.8,0.6 -0.8,0.7 0,0.3 -0.2,0.4 -0.5,0.5 z"
   id="path28" />
	<path
   class="st6"
   d="m 168.7,148.8 c 0,0 0.1,0 0.1,0 0.5,-0.1 0.7,-0.3 0.7,-0.6 0,0 0,0 0,0 0.1,-0.3 0.2,-0.5 0.5,-0.6 l -0.6,-1.9 c -0.6,0.2 -0.8,0.6 -0.8,0.7 0,0.3 -0.2,0.4 -0.5,0.5 z"
   id="path29" />
	<path
   class="st6"
   d="m 227.7,143.8 c 0,0 0.1,0 0.1,0 0.5,-0.1 0.7,-0.3 0.7,-0.6 0,0 0,0 0,0 0.1,-0.3 0.2,-0.5 0.5,-0.6 l -0.6,-1.9 c -0.6,0.2 -0.8,0.6 -0.8,0.7 0,0.3 -0.2,0.4 -0.5,0.5 z"
   id="path30" />
	<path
   class="st8"
   d="m 193.4,190.7 c 0,0 -4.1,-6 -5.7,-12.4 -1.4,-5.5 0,-10.7 0,-10.7 0,0 -2.7,9.4 -9.2,14.5 -4.5,3.6 -15.6,6.9 -13,11.5 0.4,-0.6 1.5,-1.8 6,-2.9 0.5,-0.1 1.1,-0.2 1.7,-0.3 v 7.6 h 2.4 v -7.9 c 8.3,-0.9 17.8,0.6 17.8,0.6 z"
   id="path31" />
	<g
   id="g32">
		<path
   class="st6"
   d="m 162.7,174.8 c 0,0 -3,-1.8 -2.6,-7.6 0.4,-6 3.4,-8.6 3.4,-8.8 l 19.9,-6.8 c 0,0 -1.5,3 -0.4,7.5 1.2,5.4 4.7,8.5 4.7,8.5 0,0 -10,0.1 -19,3.2 -4.4,1.5 -6,4 -6,4 z"
   id="path32" />
	</g>
	<g
   id="g33">
		<path
   class="st8"
   d="m 174.5,162.3 c 5.7,-4.7 8.8,-10.7 8.8,-10.7 0,0 -0.8,3.8 -0.2,7.2 1.1,5.8 4.5,8.8 4.5,8.8 0,0 -8.1,0.1 -16.8,2.6 -5.8,1.6 -7.6,3.9 -8.1,4.7 -1.9,-4.4 6,-7.8 11.8,-12.6 z"
   id="path33" />
	</g>
	<g
   id="g34">
		<path
   class="st6"
   d="m 197.2,195.1 c 0,0 -5.5,-4.1 -6.8,-11.8 -1.1,-6.1 3,-10.5 3,-10.5 l 31.1,-10.7 c 0,0 -1.7,6.9 -0.1,13.5 1.8,7.4 8.6,16.6 8.6,16.6 0,0 -12.9,-3.7 -24.1,-2.3 -10.7,1.4 -11.7,5.2 -11.7,5.2 z"
   id="path34" />
	</g>
	<g
   id="g35">
		<path
   class="st6"
   d="m 190.9,145.8 c -0.2,-4.7 3.1,-8.5 3.2,-8.7 l 22.3,-7.8 c 0,0 -1.5,3.5 -1.1,6.5 0.7,5.7 3.9,8.7 3.9,8.7 0,0 -8.8,-0.5 -19.1,3.1 -5.7,2 -6.3,4.7 -6.3,4.7 0,0 -2.7,-0.7 -2.9,-6.5 z"
   id="path35" />
	</g>
	<g
   id="g36">
		<path
   class="st8"
   d="m 208.5,139.8 c 4,-3.5 7.9,-10.4 7.9,-10.4 0,0 -1.5,3.5 -1.1,6.5 0.7,5.7 3.9,8.7 3.9,8.7 0,0 -9.5,-0.1 -18.6,3.1 -3.9,1.4 -6.4,3.5 -6.7,4.7 -1.3,-4.4 9.1,-7.8 14.6,-12.6 z"
   id="path36" />
	</g>
	<g
   id="g37">
		<path
   class="st6"
   d="m 194.1,171.5 c 0,0 -3.2,-3.7 -3.8,-9.5 -0.6,-6 2.9,-8.4 3.2,-8.6 l 25.8,-8.9 c 0,0 -0.7,1.9 -0.1,7.1 0.6,4.4 4.9,10.4 4.9,10.4 0,0 -13.8,0.4 -22.3,3.7 -5.4,2.1 -7.7,5.8 -7.7,5.8 z"
   id="path37" />
	</g>
	<g
   id="g38">
		<path
   class="st8"
   d="m 211.2,156.6 c 5.6,-4.8 8.1,-12 8.1,-12 0,0 -0.7,4.1 0,7.3 1.3,5.6 5.3,10.3 5.3,10.3 0,0 -12,0.2 -20.7,3.1 -5.7,1.9 -9.2,5.3 -9.7,6.3 -1.3,-4.9 11.4,-10.2 17,-15 z"
   id="path38" />
	</g>
	<g
   id="g39">
		<path
   class="st8"
   d="m 233.5,192.7 c 0,0 -7,-9.1 -9.1,-17.1 -1.3,-5.3 -0.3,-11.3 0.1,-13.4 -0.8,2.8 -3.6,11.9 -10.5,18.3 -6.6,6.1 -19.6,9 -16.8,14.7 0.5,-0.9 2,-3.1 7.3,-4.4 l -0.1,7.3 h 2.5 v -7.8 c 11.5,-1.8 26.6,2.4 26.6,2.4 z"
   id="path39" />
	</g>
	<path
   class="st9"
   d="m 245.5,209.8 c 1.6,-0.3 3.2,-0.7 5.6,-1.3 -0.1,-0.1 -0.3,-0.2 -0.4,-0.3 -2.6,-2.9 -2.2,-6 -0.6,-7.5 5.8,-5.4 5.7,-9.4 5.7,-9.4 0,0 -14.1,2.9 -32.7,3.9 -1.2,0.1 -5.5,2 -6.8,2 -2.6,0.1 -5.2,0.2 -7.9,0.2 -35.1,0.3 -44.9,-2.2 -56.4,-4.3 -11.7,-2.2 -16.8,-4.5 -16.8,-4.5 l -0.4,1.2 c 0,0 9.2,3.6 15.8,6.8 1.4,0.7 6.9,8.9 8.7,11.7 h -41.7 c -2.3,-47.8 6.9,-86.9 6.9,-86.9 0,0 31.9,-6.8 79.9,-6.8 v -5.1 c -50.9,0 -84.8,7.2 -84.8,7.2 0,0 -14.8,52.2 -7,114.4 3.3,25.9 24.7,74.4 91.6,96.9 l 2.9,-4.1 -2.9,-4.1 c -63,-21.1 -81.4,-63.8 -84.6,-88.1 -0.7,-5.4 -1.2,-10.8 -1.6,-16 h 86.5 v -7.3 h -44.4 c 1,-3.2 4.1,-4 8,-3.1 4,1 8,2 11.8,1.8 9.5,-0.5 8.1,-3 9,-3 9.8,0.6 13.5,3 22,2.8 7.8,-0.1 10.5,-2.2 11.2,-2.2 9.5,-0.1 13.1,4.3 22.6,5.1 0.3,0 0.6,0 0.8,0 z"
   id="path40" />
	<path
   class="st10"
   d="m 289.1,116.7 c 0,0 -33.8,-7.2 -84.7,-7.2 v 5.1 c 48,0 79.8,6.8 79.8,6.8 0,0 9.3,39.1 6.9,86.9 h -41.8 c -3.3,-3.2 -1.4,-7.4 -0.3,-8.4 4.9,-4.4 4.9,-7.4 4.9,-7.4 0,0 -11.3,2.8 -29.9,3.6 -1.2,0 -6.4,2.4 -7.7,2.4 -2.6,0.1 -6.2,0.2 -8.9,0.2 -24.2,0 -36.1,-0.5 -57.1,-5 0.4,0.5 0.6,0.7 1,1.3 0.1,0.2 9.2,2.5 9.3,2.7 1.4,1.9 3.2,3.2 5.4,4.4 3.4,1.8 8.4,3.3 12.5,3.6 9.5,0.6 7.7,-3 8.6,-3 9.7,-0.2 16,3.3 24.5,3.2 7.8,-0.1 8,-2.6 8.8,-2.6 7.7,-0.4 15.5,2.9 22.2,5.1 h -38.2 v 7.3 h 86.2 c -0.4,5.3 -0.9,10.6 -1.6,16 -3.2,24.4 -21.6,67 -84.6,88.1 v 8.2 c 66.9,-22.5 88.4,-70.9 91.6,-96.9 7.9,-62.2 -6.9,-114.4 -6.9,-114.4 z"
   id="path41" />
	<g
   id="g50">
		<polygon
   class="st0"
   points="63,111.1 91.1,125.9 87.9,132 69.5,122.4 77.4,136.6 77.3,136.7 61.3,138.3 79.5,147.9 76.3,154 48.2,139.2 51.7,132.5 67.5,131.4 59.5,117.7 "
   id="polygon41" />
		<path
   class="st0"
   d="m 80.3,89.2 4.4,-4.7 32.6,12 -5,5.3 -7.2,-2.8 -9.2,9.8 3.2,7 -4.9,5.2 z m 18.7,7.5 -10.4,-4 4.6,10.1 z"
   id="path42" />
		<polygon
   class="st0"
   points="129.7,51.5 146.1,78.6 141,81.7 117.4,72.4 127.9,89.7 122,93.3 105.5,66.1 111,62.8 133.9,71.8 123.8,55.1 "
   id="polygon42" />
		<path
   class="st0"
   d="m 148.2,60.6 v 0 c -2.5,-8.8 1.9,-17.8 11.3,-20.5 5.7,-1.7 9.8,-0.7 13.4,1.2 l -2.9,6.2 c -3,-1.5 -5.7,-2.1 -8.8,-1.2 -5.1,1.5 -7.6,6.8 -6.1,12.1 v 0.1 c 1.5,5.2 6.4,8.5 11.6,7 3.5,-1 5.2,-3 7,-5.9 l 5.5,3.1 c -2.2,4.3 -5.1,7.4 -10.9,9.1 -8.9,2.6 -17.6,-2.4 -20.1,-11.2 z"
   id="path43" />
		<polygon
   class="st0"
   points="206.1,34.6 213.1,34.4 213.9,66.2 206.9,66.4 206.6,53.6 193.7,54 194.1,66.7 187.1,66.9 186.3,35.1 193.2,34.9 193.6,47.5 206.4,47.2 "
   id="polygon43" />
		<path
   class="st0"
   d="m 254.2,70.5 5.8,-2.8 c 1.6,3.3 3.7,6 7,7.5 2.6,1.2 4.6,0.9 5.4,-0.8 v -0.1 c 0.8,-1.6 0.1,-2.9 -4.1,-6.3 -5.1,-4.2 -8.1,-7.5 -5.5,-13.2 v -0.1 c 2.4,-5.2 8.2,-6.7 14.1,-4 4.2,1.9 7.2,4.9 9,8.6 l -5.5,3.3 c -1.7,-3 -3.8,-5.2 -6.2,-6.3 -2.4,-1.1 -4.2,-0.6 -4.9,0.8 v 0.1 c -0.9,1.9 0.1,3.1 4.5,6.7 5.1,4.2 7.5,7.9 5.1,12.9 v 0.1 c -2.6,5.7 -8.5,6.9 -14.7,4.1 -4.2,-2.2 -7.9,-5.8 -10,-10.5 z"
   id="path44" />
		<polygon
   class="st0"
   points="313.8,82.5 306.1,76.6 290.8,96.7 285.2,92.5 300.6,72.4 292.9,66.5 296.8,61.4 317.7,77.3 "
   id="polygon44" />
		<path
   class="st0"
   d="m 350.8,117.5 6.5,13 c 1.8,3.6 2.2,6.9 1.3,9.7 -0.8,2.4 -2.6,4.3 -5.3,5.7 h -0.1 c -4.6,2.3 -8.7,1.3 -11.9,-1.7 l -6.7,12 -3.7,-7.3 6,-10.7 -2.5,-4.9 -9.1,4.6 -3.1,-6.2 z m -7.5,19.5 c 1.5,3 4,4 6.4,2.8 h 0.1 c 2.7,-1.3 3.1,-3.9 1.6,-6.9 l -3.1,-6.2 -8.1,4.1 z"
   id="path45" />
		<polygon
   class="st0"
   points="235.7,44 252.3,47.6 253.7,41.6 230.2,36.5 223.5,67.5 247.2,72.7 248.5,66.6 231.6,62.9 233,56.4 244.7,58.9 248,53.3 234.4,50.3 "
   id="polygon45" />
		<polygon
   class="st0"
   points="312.2,108.5 317.3,104.2 325.1,113.5 331.4,111.4 322.1,100.2 327,96.1 337.9,109.1 342.7,105.1 327.3,86.8 302.9,107.2 318.5,125.7 323.2,121.7 "
   id="polygon46" />
		<g
   id="g49">
			<path
   class="st0"
   d="m 150.9,357.6 v 0 c 0,-9.3 6.9,-16.8 16.9,-16.8 6.1,0 9.7,2 12.8,5 l -4.5,5.2 c -2.5,-2.3 -5,-3.6 -8.3,-3.6 -5.5,0 -9.4,4.5 -9.4,10.1 v 0.1 c 0,5.5 3.8,10.2 9.4,10.2 3.7,0 6,-1.5 8.5,-3.8 l 4.5,4.6 c -3.3,3.6 -7,5.8 -13.3,5.8 -9.5,-0.2 -16.6,-7.6 -16.6,-16.8 z"
   id="path46" />
			<path
   class="st0"
   d="m 187.7,341.3 h 7.1 v 32.3 h -7.1 z"
   id="path47" />
			<path
   class="st0"
   d="m 211.3,347.9 h -9.8 v -6.6 h 26.8 v 6.6 h -9.8 v 25.8 h -7.1 v -25.8 z"
   id="path48" />
			<path
   class="st0"
   d="m 243.7,360.9 -12.4,-19.6 h 8.3 l 7.7,13 7.8,-13 h 8.1 l -12.4,19.4 v 12.9 h -7.1 z"
   id="path49" />
		</g>
	</g>
</g>
</svg>
