<?xml version="1.0" encoding="UTF-8" standalone="no"?>
<svg
   width="2500"
   height="2500"
   viewBox="0 0 192.756 192.756"
   version="1.1"
   id="svg37"
   sodipodi:docname="Man-United.svg"
   xmlns:inkscape="http://www.inkscape.org/namespaces/inkscape"
   xmlns:sodipodi="http://sodipodi.sourceforge.net/DTD/sodipodi-0.dtd"
   xmlns="http://www.w3.org/2000/svg"
   xmlns:svg="http://www.w3.org/2000/svg">
  <defs
     id="defs37" />
  <sodipodi:namedview
     id="namedview37"
     pagecolor="#ffffff"
     bordercolor="#000000"
     borderopacity="0.25"
     inkscape:showpageshadow="2"
     inkscape:pageopacity="0.0"
     inkscape:pagecheckerboard="0"
     inkscape:deskcolor="#d1d1d1" />
  <path
     fill-rule="evenodd"
     clip-rule="evenodd"
     fill="#ffffff"
     fill-opacity="0"
     d="M 0,0 H 192.756 V 192.756 H 0 Z"
     id="path1" />
  <path
     d="m 105.037,177.695 c -0.693,2.078 -2.951,7.168 -8.4,7.168 -6.189,0 -8.349,-6.705 -8.454,-6.98 l -0.177,-0.643 c 0,0 5.334,0.443 8.271,0.443 2.937,0 7.954,-0.285 8.776,-0.443 z"
     fill-rule="evenodd"
     clip-rule="evenodd"
     id="path2" />
  <path
     d="m 121.283,174.389 1.279,0.17 c -1.518,3.955 -4.242,8.389 -9.594,8.389 -5.18,0 -7.748,-3.002 -8.844,-5.021 l -0.895,-0.549 c 0.001,-10e-4 8.96,-0.296 18.054,-2.989 z m -49.108,0 -1.277,0.17 c 1.515,3.955 4.241,8.389 9.595,8.389 5.179,0 7.977,-3.17 9.125,-5.021 l 0.611,-0.549 c -0.001,-10e-4 -8.958,-0.296 -18.054,-2.989 z"
     fill-rule="evenodd"
     clip-rule="evenodd"
     id="path3" />
  <path
     d="m 100.979,178.107 c -0.838,1.215 -1.398,1.158 -2.41,1.158 -0.506,0 -1.266,0.42 -1.242,1.18 0.016,0.596 0.502,1.094 1.328,1.094 1.828,0 3.221,-2.555 3.613,-3.635 0,0 1.082,-0.047 1.398,-0.078 0,0 -1.939,5.771 -6.963,5.771 -5.035,0 -7.085,-5.709 -7.085,-5.709 0,0 4.236,0.262 6.664,0.262 2.428,0 3.97,-0.011 4.697,-0.043 z m 19.634,-2.539 c -3.285,0.885 -5.617,1.6 -11.131,2.271 0,0 0.172,0.57 1.371,0.506 0.461,-0.023 0.52,-0.137 0.691,-0.168 0.34,-0.062 0.863,0.295 0.801,0.895 -0.045,0.418 -0.404,0.947 -1.625,0.947 -1.221,0 -2.648,-1 -3.365,-1.926 0,0 -0.734,0.168 -1.492,0.211 0,0 2.346,3.287 6.975,3.287 5.094,0.001 6.974,-4.55 7.775,-6.023 z"
     fill-rule="evenodd"
     clip-rule="evenodd"
     fill="#fff22d"
     id="path4" />
  <path
     d="m 117.197,178.781 c 0,-0.797 -0.246,-1.535 -0.664,-2.146 -1.783,0.42 -3.822,0.805 -6.809,1.176 a 7.472,7.472 0 0 0 -0.059,0.268 c 0.18,0.146 0.529,0.303 1.188,0.268 0.461,-0.023 0.52,-0.137 0.691,-0.168 0.34,-0.062 0.863,0.295 0.801,0.895 -0.045,0.418 -0.404,0.947 -1.625,0.947 -0.314,0 -0.645,-0.066 -0.971,-0.182 0.16,0.555 0.443,1.057 0.818,1.475 a 9.155,9.155 0 0 0 2.27,0.279 c 1.633,0 2.934,-0.467 3.977,-1.152 a 3.77,3.77 0 0 0 0.383,-1.66 z"
     fill-rule="evenodd"
     clip-rule="evenodd"
     fill="#fade2f"
     id="path5" />
  <path
     d="m 117.145,178.781 a 3.73,3.73 0 0 0 -0.666,-2.133 c -1.76,0.41 -3.771,0.789 -6.697,1.154 a 3.182,3.182 0 0 0 -0.068,0.311 c 0.191,0.135 0.535,0.266 1.141,0.232 0.461,-0.023 0.52,-0.137 0.691,-0.168 0.34,-0.062 0.863,0.295 0.801,0.895 -0.045,0.418 -0.404,0.947 -1.625,0.947 -0.295,0 -0.604,-0.059 -0.91,-0.16 0.168,0.559 0.461,1.061 0.85,1.477 0.658,0.16 1.385,0.256 2.178,0.256 1.588,0 2.863,-0.441 3.891,-1.096 a 3.76,3.76 0 0 0 0.414,-1.715 z"
     fill-rule="evenodd"
     clip-rule="evenodd"
     fill="#fbe02f"
     id="path6" />
  <path
     d="m 117.092,178.781 c 0,-0.789 -0.246,-1.521 -0.668,-2.121 -1.734,0.404 -3.723,0.777 -6.586,1.137 -0.031,0.113 -0.059,0.23 -0.078,0.348 0.199,0.123 0.535,0.23 1.094,0.201 0.461,-0.023 0.52,-0.137 0.691,-0.168 0.34,-0.062 0.863,0.295 0.801,0.895 -0.045,0.418 -0.404,0.947 -1.625,0.947 a 2.87,2.87 0 0 1 -0.85,-0.141 c 0.174,0.561 0.479,1.066 0.881,1.479 0.635,0.146 1.33,0.234 2.086,0.234 1.543,0 2.791,-0.418 3.803,-1.041 a 3.662,3.662 0 0 0 0.451,-1.77 z"
     fill-rule="evenodd"
     clip-rule="evenodd"
     fill="#fce22f"
     id="path7" />
  <path
     d="m 72.848,175.568 c 3.283,0.885 5.616,1.6 11.13,2.271 0,0 -0.172,0.57 -1.371,0.506 -0.462,-0.023 -0.521,-0.137 -0.692,-0.168 -0.339,-0.062 -0.863,0.295 -0.799,0.895 0.044,0.418 0.402,0.947 1.623,0.947 1.221,0 2.648,-1 3.364,-1.926 0,0 0.737,0.168 1.495,0.211 0,0 -2.347,3.287 -6.976,3.287 -5.094,0.001 -6.975,-4.55 -7.774,-6.023 z m 23.369,-27.076 c 17.551,0 36.998,-10.773 50.633,-26.305 1.475,-1.678 3.979,-4.861 9.914,-4.861 5.934,0 13.824,5.408 12.895,15.256 -0.676,7.18 -10.939,23.361 -28.49,33.336 -17.551,9.975 -33.713,12.121 -44.951,12.121 -11.238,0 -27.4,-2.146 -44.952,-12.121 -17.551,-9.975 -27.813,-26.156 -28.491,-33.336 -0.929,-9.848 6.961,-15.256 12.896,-15.256 5.935,0 8.44,3.184 9.914,4.861 13.635,15.532 33.081,26.305 50.632,26.305 z"
     fill-rule="evenodd"
     clip-rule="evenodd"
     fill="#fff22d"
     id="path8" />
  <path
     d="m 96.217,147.861 c 8.504,0 17.469,-2.566 25.992,-6.994 8.881,-4.613 17.273,-11.24 24.168,-19.094 0.76,-0.863 1.781,-2.115 3.414,-3.172 1.643,-1.064 3.863,-1.906 6.973,-1.906 0.322,0 0.666,0.018 1.027,0.051 2.861,0.271 6.006,1.654 8.432,4.062 2.428,2.41 4.143,5.842 4.143,10.203 0,0.514 -0.025,1.057 -0.08,1.631 -0.389,4.123 -3.814,11.088 -9.867,18.172 -4.75,5.557 -11.129,11.213 -18.938,15.65 -8.836,5.021 -17.322,8.074 -25.012,9.869 a 88.994,88.994 0 0 1 -40.503,0 c -7.689,-1.795 -16.175,-4.848 -25.011,-9.869 -7.809,-4.438 -14.188,-10.094 -18.938,-15.65 -6.053,-7.084 -9.479,-14.049 -9.868,-18.172 a 17.425,17.425 0 0 1 -0.08,-1.631 c 0,-4.361 1.715,-7.793 4.144,-10.203 2.425,-2.408 5.569,-3.791 8.429,-4.062 0.363,-0.033 0.707,-0.051 1.029,-0.051 3.108,0 5.331,0.842 6.972,1.906 1.634,1.057 2.656,2.309 3.415,3.172 6.895,7.854 15.289,14.48 24.168,19.094 8.523,4.428 17.486,6.994 25.991,6.994 z m 0,1.262 c -8.712,0 -17.875,-2.617 -26.574,-7.135 -9.011,-4.682 -17.531,-11.412 -24.533,-19.385 -0.715,-0.814 -1.682,-1.994 -3.153,-2.947 -1.463,-0.947 -3.46,-1.697 -6.287,-1.697 A 9.91,9.91 0 0 0 34.76,118 c -2.592,0.244 -5.448,1.506 -7.66,3.701 -2.209,2.193 -3.769,5.322 -3.769,9.311 0,0.506 0.023,1.01 0.07,1.512 0.368,3.902 3.69,10.59 9.572,17.473 4.666,5.459 10.933,11.016 18.603,15.375 8.716,4.953 17.088,7.963 24.676,9.734 a 87.766,87.766 0 0 0 19.965,2.303 87.76,87.76 0 0 0 19.965,-2.303 c 7.59,-1.771 15.961,-4.781 24.676,-9.734 7.67,-4.359 13.938,-9.916 18.604,-15.377 5.883,-6.883 9.205,-13.568 9.572,-17.471 0.047,-0.5 0.07,-1.006 0.07,-1.512 0,-3.988 -1.561,-7.117 -3.77,-9.311 -2.211,-2.195 -5.068,-3.457 -7.66,-3.701 a 9.943,9.943 0 0 0 -0.91,-0.041 c -2.826,0 -4.824,0.75 -6.287,1.697 -1.471,0.953 -2.439,2.133 -3.152,2.947 -7.002,7.973 -15.521,14.703 -24.533,19.383 -8.698,4.52 -17.862,7.137 -26.575,7.137 z"
     id="path9" />
  <path
     d="m 43.613,123.73 -0.205,-0.232 c -1.397,-1.604 -3.311,-3.803 -7.882,-3.803 -2.666,0 -5.685,1.426 -7.691,3.631 -1.5,1.646 -3.201,4.541 -2.783,8.967 0.57,6.047 10.172,21.73 27.271,31.449 13.782,7.832 28.501,11.805 43.75,11.805 15.249,0 29.967,-3.973 43.75,-11.805 17.098,-9.719 26.701,-25.402 27.271,-31.449 0.416,-4.426 -1.283,-7.32 -2.785,-8.967 -2.004,-2.205 -5.025,-3.631 -7.689,-3.631 -4.57,0 -6.484,2.199 -7.883,3.803 l -0.203,0.232 c -14.695,16.736 -34.797,27.131 -52.461,27.131 -17.663,0 -37.766,-10.394 -52.46,-27.131 z"
     fill-rule="evenodd"
     clip-rule="evenodd"
     fill="#c23227"
     id="path10" />
  <path
     d="m 152.6,103.99 c 0,-8.421 6.824,-15.248 15.246,-15.248 8.422,0 15.248,6.827 15.248,15.248 0,8.42 -6.826,15.246 -15.248,15.246 -8.422,0 -15.246,-6.826 -15.246,-15.246 z"
     fill-rule="evenodd"
     clip-rule="evenodd"
     fill="#fff22d"
     id="path11" />
  <path
     d="m 151.967,103.99 c 0,-4.385 1.777,-8.355 4.652,-11.229 2.871,-2.874 6.842,-4.651 11.227,-4.651 4.385,0 8.355,1.777 11.229,4.651 2.874,2.874 4.65,6.844 4.65,11.229 0,4.385 -1.777,8.354 -4.65,11.227 -2.873,2.873 -6.844,4.65 -11.229,4.65 -4.385,0 -8.354,-1.777 -11.227,-4.65 a 15.82,15.82 0 0 1 -4.652,-11.227 z m 1.263,0 c 0,4.035 1.637,7.689 4.281,10.334 2.644,2.645 6.299,4.281 10.334,4.281 4.035,0 7.689,-1.637 10.336,-4.281 a 14.57,14.57 0 0 0 4.281,-10.334 14.57,14.57 0 0 0 -4.281,-10.335 c -2.646,-2.645 -6.301,-4.281 -10.336,-4.281 -4.035,0 -7.689,1.636 -10.334,4.281 a 14.563,14.563 0 0 0 -4.281,10.335 z"
     id="path12" />
  <path
     d="m 9.662,104.014 c 0,-8.419 6.827,-15.246 15.248,-15.246 8.42,0 15.247,6.827 15.247,15.246 0,8.422 -6.827,15.248 -15.247,15.248 -8.421,0 -15.248,-6.826 -15.248,-15.248 z"
     fill-rule="evenodd"
     clip-rule="evenodd"
     fill="#fff22d"
     id="path13" />
  <path
     d="m 9.031,104.014 c 0,-4.383 1.777,-8.353 4.651,-11.227 a 15.831,15.831 0 0 1 11.228,-4.65 c 4.384,0 8.354,1.778 11.227,4.65 a 15.828,15.828 0 0 1 4.65,11.227 c 0,4.385 -1.777,8.355 -4.65,11.229 a 15.83,15.83 0 0 1 -11.227,4.652 c -4.385,0 -8.354,-1.779 -11.228,-4.652 -2.874,-2.873 -4.651,-6.845 -4.651,-11.229 z m 1.262,0 a 14.57,14.57 0 0 0 4.281,10.336 14.57,14.57 0 0 0 10.335,4.281 c 4.036,0 7.689,-1.637 10.334,-4.281 a 14.57,14.57 0 0 0 4.281,-10.336 c 0,-4.035 -1.636,-7.689 -4.281,-10.334 -2.645,-2.645 -6.298,-4.281 -10.334,-4.281 a 14.57,14.57 0 0 0 -10.335,4.281 14.572,14.572 0 0 0 -4.281,10.334 z"
     id="path14" />
  <path
     d="m 172.02,62.98 0.084,-4.083 c 1.246,0.941 3.619,0.978 5.008,-0.506 0.639,-0.678 0.996,-1.713 0.939,-2.795 a 5.185,5.185 0 0 0 -1.516,-3.353 c -5.135,-5.004 -9.674,-10.006 -9.674,-10.006 -0.459,-0.74 -1.215,-1.287 -1.627,-1.471 -0.643,-0.286 -2.863,-1.302 -4.557,1.274 -1.535,2.335 -1.307,5.639 -1.031,6.839 l 4.818,6.546 c 1.643,2.083 6.274,6.523 7.556,7.555 z M 69.357,20.521 c 6.054,-2.029 11.579,-3.704 19.028,-4.366 z"
     fill-rule="evenodd"
     clip-rule="evenodd"
     id="path15" />
  <path
     d="m 69.357,20.538 c 6.054,-2.032 11.579,-3.704 19.028,-4.367 L 89.52,15.53 c -4.165,-3.274 -8.297,-5.501 -12.41,-5.501 -2.583,0 -7.833,1.752 -9.013,11.012 z m 53.737,0 c -6.055,-2.032 -11.578,-3.704 -19.027,-4.367 l -1.135,-0.641 c 4.164,-3.274 8.295,-5.501 12.408,-5.501 2.584,0 7.836,1.752 9.014,11.012 z M 91.257,15.24 c 1.231,-0.063 4.072,-0.126 5.209,-0.126 1.135,0 4.274,0.15 4.961,0.202 z"
     fill-rule="evenodd"
     clip-rule="evenodd"
     id="path16" />
  <path
     d="m 89.381,15.856 c 3.045,-5.837 5.835,-7.963 7.378,-7.963 1.93,0 4.19,3.072 5.961,7.025 l 0.375,0.89 -1.541,-0.127 c -1.049,-0.188 -3.953,-0.22 -5.088,-0.22 -1.137,0 -3.599,0 -5.083,0.126 z"
     fill-rule="evenodd"
     clip-rule="evenodd"
     id="path17" />
  <path
     fill-rule="evenodd"
     clip-rule="evenodd"
     fill="#fff22d"
     d="m 83.423,154.068 -2.726,10.17 -5.082,-12.261 -3.163,-0.848 -3.854,14.381 3.431,0.92 2.747,-10.252 5.163,12.371 3.082,0.826 3.853,-14.383 z m 11.846,1.817 -3.909,-0.205 -0.778,14.867 3.908,0.205 z m 3.51,-0.127 0.274,1.959 4.17,-0.588 1.797,12.785 3.876,-0.545 -1.798,-12.783 4.107,-0.578 -0.273,-1.957 z m 40.332,-6.061 c 1.893,3.318 1.512,5.732 -1.408,7.418 l -1.385,0.799 -5.475,-9.479 1.496,-0.865 c 3.495,-2.017 5.466,-0.222 6.772,2.127 z m -7.615,-3.931 -5.045,2.912 7.469,12.938 5.008,-2.891 c 5.211,-3.01 5.693,-7.551 3.65,-11.178 -2.467,-4.315 -6.517,-4.416 -11.082,-1.781 z m -9.451,18.318 -1.486,-4.572 4.412,-1.434 -0.619,-1.902 -4.411,1.433 -1.269,-3.904 4.533,-1.471 -0.611,-1.882 -8.274,2.689 4.6,14.158 9.125,-2.963 -0.619,-1.902 z m -56.642,-16.404 -4.409,7.953 c -1.33,2.398 -2.701,3.916 -4.944,2.621 -2.226,-1.232 -1.711,-3.072 -0.349,-5.531 l 4.418,-7.973 -3.56,-1.973 -4.667,8.418 c -2.574,4.645 0.672,7.506 3.188,8.9 2.709,1.502 6.643,2.619 9.195,-1.986 l 4.687,-8.457 z M 62.881,60.229 v 69.71 l 33.335,21.428 33.334,-21.428 0.043,-69.6 c -1.057,-0.946 -3.277,-3.017 -5.025,-4.087 H 67.711 c -1.453,1.018 -4.337,3.441 -4.83,3.977 z"
     id="path18" />
  <path
     d="m 63.512,60.229 v 69.367 l 32.704,21.023 32.704,-21.023 0.041,-69.257 h 1.264 l -0.043,69.6 v 0.342 l -0.291,0.188 -33.335,21.429 -0.34,0.219 -0.341,-0.219 -33.334,-21.429 -0.292,-0.188 V 60.229 Z"
     id="path19" />
  <path
     d="m 129.172,60.811 c -0.301,-0.27 -0.074,-0.069 -0.393,-0.357 h -0.004 c -1.137,-1.028 -3.043,-2.75 -4.537,-3.664 l 0.658,-1.075 c 1.613,0.989 3.564,2.751 4.729,3.802 h -0.004 l 0.395,0.352 z"
     id="path20" />
  <path
     d="M 124.568,56.883 H 67.711 v -1.262 h 56.857 z"
     id="path21" />
  <path
     d="m 68.073,56.77 c -0.681,0.478 -1.642,1.234 -2.521,1.957 -1.029,0.848 -1.958,1.656 -2.208,1.929 l -0.927,-0.853 c 0.278,-0.305 1.26,-1.162 2.336,-2.048 0.935,-0.77 1.932,-1.557 2.594,-2.021 z"
     id="path22" />
  <path
     d="m 98.572,90.046 c -0.232,-0.102 -1.062,0.567 -1.441,1.167 -0.379,0.6 -0.49,1.373 0.047,1.657 0.537,0.284 1.213,-0.084 1.375,-1.025 0.093,-0.553 0.273,-1.689 0.019,-1.799 z m -6.381,1.798 c 0.139,0.946 0.836,1.31 1.373,1.025 0.537,-0.284 0.427,-1.057 0.048,-1.657 -0.38,-0.6 -1.161,-1.269 -1.394,-1.167 -0.253,0.111 -0.106,1.263 -0.027,1.799 z m 3.346,9.273 c 1.12,-1.838 1.586,-3.748 1.586,-3.748 h -3.204 c 0,0 0.513,1.957 1.618,3.748 z m 0.552,-13.808 2.588,-4.504 2.02,4.504 h 3.348 c -2.021,1.895 -2.842,4.756 -2.842,6.651 v 2.083 c 0,0.885 -0.441,2.336 -0.441,2.336 0,0 2.898,2.215 3.346,2.588 0.189,0.158 0.389,0.25 0.252,0.633 -0.23,0.652 -2.189,1.525 -2.398,1.703 -0.441,0.379 -0.561,0.627 -0.432,1.012 0.127,0.377 0.494,0.441 1.252,0.188 0.758,-0.252 2.336,-1.072 3.664,-1.641 1.324,-0.568 3.092,-0.443 3.092,-0.443 v -2.523 h -4.986 v -8.082 l -0.885,-1.411 2.211,-3.915 2.207,3.937 -0.883,1.388 v 4.23 h 2.557 v -4.23 l -0.883,-1.388 2.209,-3.916 2.209,3.916 -0.883,1.388 v 4.23 h 2.557 v -4.23 l -0.883,-1.388 2.209,-3.916 2.209,3.916 -0.885,1.388 0.027,8.076 -5.014,0.002 v 3.711 c 1.137,1.072 2.211,3.49 2.211,4.941 0,1.453 -0.947,2.084 -0.947,2.084 0.314,1.137 0.252,1.609 0.125,2.652 -0.129,1.064 -1.453,2.713 -1.453,2.713 v 19.25 c 0,1.311 -3.029,1.186 -3.029,0.064 v -18.871 c -1.705,-1.893 -6.377,-3.346 -6.377,-3.346 -1.705,1.703 -2.777,4.672 -2.777,4.672 0.758,0.506 1.895,0 2.336,-0.506 0.441,-0.504 1.326,-0.631 1.832,-0.316 0.504,0.316 0.631,0.443 0.441,1.201 -0.189,0.756 -0.506,2.014 -0.506,2.896 0,0.885 1.012,0.693 1.768,0.758 1.516,0.127 1.768,1.83 1.643,2.777 -0.127,0.947 -0.568,2.969 -0.568,4.23 0,1.261 0.062,2.525 0.189,3.221 0.125,0.693 0.379,1.451 0.314,2.336 -0.086,1.197 -0.82,1.389 -1.578,0.631 -0.756,-0.758 -11.301,-11.996 -11.301,-11.996 -0.694,2.271 2.209,6.188 3.157,7.387 0.947,1.201 0.883,2.084 0.064,2.904 -0.822,0.82 -2.4,1.262 -2.715,2.021 -0.316,0.758 0.758,3.029 2.967,5.869 2.209,2.842 -2.526,4.736 -5.367,5.305 -2.841,0.568 -2.841,-1.391 -2.651,-2.463 0.188,-1.074 0.188,-1.705 0.126,-2.652 -0.063,-0.945 -0.947,-2.271 -2.147,-3.852 -1.2,-1.576 -1.2,-3.029 -0.694,-6.691 0.505,-3.66 0.379,-5.998 0.379,-5.998 0,0 -1.263,0.064 -3.094,0 -1.831,-0.062 -3.346,-1.129 -3.472,-5.549 -0.126,-4.42 -0.231,-14.961 -0.526,-16.057 -0.294,-1.094 -1.473,-1.305 -1.978,-1.43 -0.505,-0.127 -0.542,-0.885 -0.037,-1.137 1.315,-0.658 2.899,-2.273 2.31,-3.283 -0.589,-1.011 -2.904,-0.801 -4.461,-0.043 -1.557,0.758 -3.199,2.398 -3.62,2.863 -0.421,0.463 -0.758,0.463 -0.716,-0.043 0.042,-0.506 -0.294,-2.904 -0.504,-3.746 -0.21,-0.842 -0.969,-2.44 -1.221,-2.861 -0.252,-0.421 0,-0.589 0.421,-0.421 0.421,0.169 1.347,0.548 2.231,0.8 0.884,0.252 1.725,-0.168 2.146,-1.01 0.421,-0.842 1.22,-2.651 1.641,-3.451 0.421,-0.8 1.095,-0.632 1.642,-0.505 0.548,0.126 1.053,0.463 1.557,0.673 0.505,0.211 0.926,0.169 1.094,-0.084 0.169,-0.252 0.38,-0.337 0.674,-0.969 0.294,-0.631 0.673,-0.336 0.715,-0.084 1.509,9.055 5.43,9.471 5.43,9.471 -0.589,1.514 -1.978,3.914 -2.314,4.504 -0.337,0.588 -0.463,1.387 -0.547,2.02 -0.084,0.631 0.21,6.605 0.631,8.797 0.422,2.188 1.769,1.348 2.189,0.674 0.42,-0.674 1.726,-3.451 1.726,-3.451 0,0 0.337,-0.758 0.337,-1.391 0,-0.631 -1.095,-2.02 -1.348,-2.441 -0.252,-0.42 -1.178,-1.262 -1.178,-3.367 0,-2.104 1.894,-3.578 2.568,-4.125 0.673,-0.547 0.673,-1.303 0.589,-1.766 -0.296,-1.629 -2.021,-5.052 -2.862,-6.357 -0.842,-1.304 -2.483,-3.788 -2.483,-3.788 h 3.409 l 2.189,-4.546 2.399,4.567 z m 13.448,22.939 v -2.588 c 0,0 -0.695,-1.074 -2.4,-1.074 -1.703,0 -2.713,0.506 -2.713,0.947 0,0.696 1.515,2.715 5.113,2.715 z M 65.492,77.617 h 61.5 v 4.195 h -61.5 z m 0,-2.156 V 58.753 h 61.5 v 16.708 z"
     fill-rule="evenodd"
     clip-rule="evenodd"
     fill="#c23227"
     id="path23" />
  <path
     fill-rule="evenodd"
     clip-rule="evenodd"
     fill="#fff22d"
     d="m 114.887,75.958 v -2.852 h -4.467 v -1.839 h 3.646 v -8.081 h -3.347 l -1.137,-2.209 -1.137,2.209 H 105.1 v 8.081 h 3.644 v 1.839 h -8.75 v -1.839 h 3.645 v -8.081 h -3.346 l -1.137,-2.209 -1.136,2.209 h -3.346 v 8.081 h 3.644 v 1.839 h -8.921 v -1.839 h 3.645 v -8.081 h -3.347 l -1.136,-2.209 -1.136,2.209 h -3.347 v 8.081 h 3.644 v 1.839 l -7.053,0.019 -7.028,-1.642 1.417,4.475 z"
     id="path24" />
  <path
     fill-rule="evenodd"
     clip-rule="evenodd"
     fill="#fff22d"
     d="m 76.066,71.12 4.713,1.158 2.528,-7.096 0.001,-1.789 z M 87.439,15.704 c -7.301,0.649 -11.794,2.201 -17.728,4.19 0.441,-2.553 1.035,-4.066 2.066,-5.569 -0.083,1.32 0.995,2.726 3.14,2.726 2.145,0 3.339,-1.237 3.339,-1.98 0,-0.741 -0.451,-1.815 -1.606,-1.815 -1.155,0 -1.402,0.825 -1.32,1.155 0.083,0.331 -0.165,0.413 -0.494,0.496 -0.331,0.082 -1.238,-0.414 -0.908,-1.568 0.362,-1.269 1.897,-1.959 3.711,-1.959 -10e-4,-0.002 4.317,-0.174 9.8,4.324 z m 35.354,4.241 c -5.934,-1.991 -10.629,-3.542 -17.93,-4.192 3.361,-2.342 6.5,-4.331 9.949,-4.331 1.814,0 3.35,0.69 3.711,1.959 0.33,1.155 -0.578,1.649 -0.908,1.566 -0.328,-0.083 -0.576,-0.165 -0.494,-0.495 0.082,-0.329 -0.166,-1.155 -1.32,-1.155 -1.154,0 -1.605,1.072 -1.605,1.815 0,0.743 1.193,1.98 3.338,1.98 2.145,0 3.223,-1.407 3.141,-2.726 1.03,1.504 1.677,3.026 2.118,5.579 z M 91.938,14.347 c -0.196,0.313 -0.368,0.546 -0.578,0.895 a 143.06,143.06 0 0 1 5.104,-0.125 c 1.115,0 4.189,0.149 4.863,0.198 -1.088,-2.519 -3.141,-5.997 -4.575,-5.997 -0.283,0 -0.909,-0.147 -2.087,1.209 0,0 -0.183,0.599 0.565,0.484 0.948,-0.145 1.307,0.834 1.237,1.321 -0.166,1.133 -1.485,2.227 -2.806,2.227 -1.319,0 -1.723,-0.212 -1.723,-0.212 z"
     id="path25" />
  <path
     d="m 28.345,55.425 4.818,-6.546 c 0.277,-1.2 0.505,-4.504 -1.031,-6.839 -1.694,-2.576 -3.916,-1.56 -4.559,-1.274 -0.412,0.184 -1.166,0.731 -1.627,1.471 0,0 -4.622,5.108 -9.736,10.135 -0.711,0.698 -1.513,2.02 -1.578,3.223 -0.06,1.082 0.365,2.161 1.001,2.839 1.391,1.482 3.827,1.404 5.071,0.463 l 0.084,4.083 c 1.286,-1.032 5.915,-5.472 7.557,-7.555 z"
     fill-rule="evenodd"
     clip-rule="evenodd"
     id="path26" />
  <path
     d="m 96.217,45.886 c 27.443,0 43.07,25.77 46.467,30.297 6.062,8.081 13.465,14.634 22.055,12.458 12.625,-3.198 11.953,-21.906 11.953,-21.906 -3.029,-2.19 -8.227,-4.947 -17.678,-18.352 -9.26,-13.131 -30.221,-32.614 -62.797,-32.614 -32.578,0 -53.539,19.483 -62.798,32.614 -9.451,13.404 -14.647,16.162 -17.677,18.352 0,0 -0.673,18.708 11.954,21.906 8.589,2.176 15.994,-4.377 22.055,-12.458 3.395,-4.527 19.024,-30.297 46.466,-30.297 z"
     fill-rule="evenodd"
     clip-rule="evenodd"
     fill="#fff22d"
     id="path27" />
  <path
     d="m 96.217,45.255 c 25.518,0 40.895,21.916 45.898,29.047 0.453,0.646 0.822,1.171 1.072,1.503 2.988,3.986 6.303,7.592 9.916,9.923 3.541,2.286 7.379,3.341 11.482,2.302 11.211,-2.84 11.5,-18.567 11.479,-20.969 -0.24,-0.171 -0.506,-0.354 -0.785,-0.546 -3.176,-2.192 -8.281,-5.714 -16.781,-17.77 C 153.184,41.207 143.978,31.558 130.902,24.767 121.39,19.827 109.828,16.4 96.216,16.4 82.604,16.4 71.04,19.827 61.529,24.767 48.453,31.558 39.249,41.206 33.934,48.745 25.432,60.803 20.328,64.324 17.15,66.516 c -0.278,0.192 -0.542,0.374 -0.783,0.544 -0.021,2.401 0.268,18.128 11.48,20.969 4.104,1.04 7.94,-0.016 11.482,-2.302 3.612,-2.331 6.927,-5.937 9.917,-9.923 0.249,-0.332 0.618,-0.857 1.071,-1.502 5.005,-7.13 20.383,-29.047 45.9,-29.047 z m 0,1.263 c -24.863,0 -39.958,21.511 -44.868,28.51 a 68.697,68.697 0 0 1 -1.095,1.532 c -3.071,4.095 -6.49,7.807 -10.242,10.229 -3.823,2.467 -7.984,3.601 -12.469,2.464 C 14.417,85.928 15.109,66.773 15.111,66.717 l 0.009,-0.309 0.255,-0.185 c 0.345,-0.249 0.689,-0.487 1.062,-0.743 3.105,-2.143 8.094,-5.583 16.468,-17.46 5.403,-7.662 14.759,-17.47 28.049,-24.372 9.675,-5.025 21.433,-8.51 35.264,-8.51 13.83,0 25.588,3.485 35.264,8.51 13.289,6.902 22.646,16.709 28.049,24.372 8.373,11.874 13.361,15.317 16.465,17.458 0.373,0.257 0.719,0.496 1.064,0.745 l 0.256,0.185 0.008,0.309 c 0.002,0.055 0.693,19.211 -12.432,22.536 -4.484,1.136 -8.645,0.002 -12.467,-2.464 -3.754,-2.422 -7.172,-6.134 -10.244,-10.229 -0.309,-0.411 -0.66,-0.915 -1.096,-1.532 -4.911,-6.999 -20.005,-28.51 -44.868,-28.51 z"
     id="path28" />
  <path
     d="m 96.217,43.455 c 26.455,0 42.199,22.441 47.377,29.815 a 63.94,63.94 0 0 0 1.033,1.454 c 7,9.332 13.385,13.114 19.514,11.561 8.865,-2.246 9.955,-14.446 10.078,-18.132 l 0.004,-0.139 -0.113,-0.078 c -3.117,-2.151 -8.34,-5.75 -17.082,-18.152 -5.225,-7.409 -25.051,-31.583 -60.811,-31.583 -35.76,0 -55.585,24.174 -60.81,31.583 C 26.723,62.098 21.274,65.86 18.346,67.882 l -0.114,0.078 0.004,0.139 c 0.127,3.7 1.228,15.948 10.056,18.186 6.131,1.554 12.514,-2.229 19.512,-11.561 0.256,-0.34 0.617,-0.855 1.036,-1.453 5.175,-7.375 20.92,-29.816 47.377,-29.816 z"
     fill-rule="evenodd"
     clip-rule="evenodd"
     fill="#c23227"
     id="path29" />
  <path
     fill-rule="evenodd"
     clip-rule="evenodd"
     fill="#fff22d"
     d="m 39.297,53.792 -2.762,3.291 5.179,10.705 -11.113,-3.632 -2.379,2.834 11.406,9.57 1.723,-2.053 -8.052,-6.783 10.8,3.509 1.135,-1.352 -5.146,-10.315 8.099,6.794 2.515,-2.998 z m 14.419,-2.241 -2.583,2.769 -2.646,-5.114 z m -6.017,-6.758 -2.539,2.722 7.132,14.184 1.741,-1.866 -1.937,-3.755 3.452,-3.702 3.895,1.654 2.873,-3.08 z m 17.415,-13.476 5.58,8.929 -12.434,-4.646 -2.779,1.736 7.891,12.626 3.012,-1.881 -5.624,-9.002 12.569,4.662 2.705,-1.692 -7.889,-12.625 z m 47.12,7.311 1.565,-4.545 4.385,1.511 0.652,-1.892 -4.385,-1.509 1.334,-3.882 4.506,1.552 0.645,-1.871 -8.227,-2.831 -4.846,14.076 9.071,3.123 0.65,-1.89 z m 25.467,-0.941 -1.342,1.455 3.131,2.818 -8.638,9.596 2.908,2.618 8.638,-9.594 3.084,2.774 1.323,-1.469 z m 4.274,22.355 3.681,-3.087 2.981,3.551 1.531,-1.286 -2.979,-3.552 3.143,-2.638 3.064,3.651 1.514,-1.272 -5.59,-6.665 -11.406,9.571 6.166,7.348 1.531,-1.285 z m 17.252,3.792 c 1.037,1.153 1.041,2.525 -0.145,3.592 -1.186,1.067 -2.678,0.838 -3.816,-0.427 l -0.67,-0.743 3.762,-3.386 z m -1.983,7.336 c 0.029,0.032 2.305,1.16 4.818,-1.104 2.102,-1.893 1.395,-4.49 -0.797,-6.925 l -4.057,-4.503 -11.064,9.962 2.619,2.908 4.393,-3.957 1.297,1.438 -2.801,6.269 3.326,2.675 z m -55.996,-47.257 -0.107,6.081 -5.849,-0.101 0.107,-6.083 -3.913,-0.067 -0.259,14.885 3.912,0.069 0.119,-6.806 5.847,0.103 -0.119,6.804 3.916,0.069 0.258,-14.887 z m 21.193,22.126 c 2.775,1.667 5.809,1.4 7.221,-0.95 1.039,-1.642 1.047,-2.999 -0.189,-5.427 -0.332,-0.704 -0.74,-1.2 -1.02,-1.823 -0.541,-1.03 -1.047,-1.863 -0.568,-2.658 0.512,-0.852 1.707,-0.913 2.799,-0.257 1.146,0.689 1.619,1.83 1.85,2.623 l 1.803,-0.78 c -0.553,-1.467 -1.371,-2.79 -3.221,-3.901 -3.184,-1.913 -5.779,-1.408 -6.857,0.388 -1.09,1.813 -0.781,3.31 0.029,4.854 0,0 0.521,0.893 0.824,1.478 0.711,1.208 1.543,2.715 0.965,3.677 -0.711,1.184 -1.951,1.447 -3.145,0.705 -1.531,-0.972 -1.889,-2.093 -2.211,-3.192 l -1.975,0.853 c 0.436,1.494 1.457,3.065 3.695,4.41 z M 81.854,24.693 c -4.875,1.038 -8.068,4.615 -7.015,9.464 0.6,2.617 2.946,7.456 10.343,5.883 2.046,-0.391 3.166,-1.221 4.245,-2.242 l -1.362,-1.554 c -0.495,0.566 -1.265,1.389 -2.966,1.75 -3.572,0.76 -5.706,-2.147 -6.237,-4.648 -0.786,-3.697 1.369,-6.264 3.828,-6.786 1.724,-0.367 2.787,0.089 3.459,0.362 L 86.17,26.918 86.623,25.02 C 85.446,24.545 84.04,24.23 81.854,24.693 Z m 78.927,24.759 c -0.205,-0.883 -0.494,-4.654 0.938,-6.644 1.322,-1.834 2.527,-1.213 3.174,-0.926 0.291,0.129 1.164,0.695 1.336,1.811 0.092,0.599 -0.096,1.485 -0.559,2.135 -0.906,1.177 -2.967,1.958 -2.967,1.958 0,0 2.641,5.174 8.238,10.312 l -0.02,3.492 c -7.663,-7.39 -10.14,-12.138 -10.14,-12.138 z"
     id="path30" />
  <path
     d="m 164.625,48.384 c 0.758,1.306 2.682,4.501 7.498,9.014 0.799,0.749 2.791,1.373 3.916,0.11 0.432,-0.486 0.707,-1.179 0.664,-1.985 -0.051,-0.926 -0.621,-2.007 -1.17,-2.478 -0.961,-0.824 -5.102,-5.006 -8.07,-8.291 -0.064,0.599 -0.588,1.6 -0.588,1.6 -0.398,0.562 -0.896,1.369 -2.25,2.03 z M 21.884,61.38 21.864,58.082 c 5.599,-5.139 8.243,-10.296 8.243,-10.296 0,0 -2.061,-0.781 -2.967,-1.958 -0.464,-0.65 -0.653,-1.537 -0.56,-2.135 0.174,-1.116 1.045,-1.681 1.335,-1.811 0.647,-0.287 1.852,-0.909 3.172,0.926 1.433,1.99 1.058,5.735 0.854,6.618 0.002,0 -2.608,4.546 -10.057,11.954 z"
     fill-rule="evenodd"
     clip-rule="evenodd"
     fill="#fff22d"
     id="path31" />
  <path
     d="m 28.089,48.384 c -0.756,1.306 -2.681,4.501 -7.497,9.014 -0.799,0.749 -2.791,1.373 -3.914,0.11 -0.433,-0.486 -0.709,-1.179 -0.666,-1.985 0.05,-0.926 0.621,-2.007 1.17,-2.478 0.961,-0.824 5.102,-5.006 8.068,-8.291 0.065,0.599 0.589,1.6 0.589,1.6 0.399,0.562 0.898,1.369 2.25,2.03 z"
     fill-rule="evenodd"
     clip-rule="evenodd"
     fill="#fff22d"
     id="path32" />
  <path
     d="m 12.532,104.141 c 0,-6.85 5.553,-12.403 12.402,-12.403 6.851,0 12.403,5.553 12.403,12.403 0,6.852 -5.553,12.402 -12.403,12.402 -6.849,0 -12.402,-5.551 -12.402,-12.402 z"
     fill-rule="evenodd"
     clip-rule="evenodd"
     fill="#c23227"
     id="path33" />
  <path
     d="m 31.606,95.159 c 0.213,0.17 0.751,0.612 0.751,0.612 1.075,0.962 2.043,2.087 2.604,3.433 0.71,1.693 -1.477,4.238 -2.117,4.836 -2.893,2.699 -4.691,2.654 -5.724,2.803 -1.034,0.146 -1.685,-0.492 -1.663,-1.266 0.066,-2.277 1.68,-6.158 2.135,-6.875 0.298,-0.469 0.811,-0.768 0.811,-0.768 1.067,-0.299 2.102,-0.758 2.639,-1.366 0.539,-0.607 0.564,-1.409 0.564,-1.409 z M 21.228,93.522 a 11.585,11.585 0 0 1 3.649,-0.606 c 1.938,0 3.784,0.362 5.354,1.356 0.398,0.251 0.518,0.57 0.518,1.02 0,1.459 -2.301,1.956 -3.833,1.956 -1.53,0 -3.409,-0.609 -4.739,-1.023 -1.331,-0.417 -1.627,-1.194 -1.627,-1.537 -0.002,-0.341 0.254,-1.024 0.678,-1.166 z m -4.906,17.871 c -1.562,-1.543 -2.676,-4.316 -2.676,-7.244 0,-1.135 0.167,-2.229 0.479,-3.262 0,0 0.263,-0.471 0.519,-0.068 0.182,0.285 0.429,0.578 0.651,0.969 0.224,0.391 1.437,1.312 1.324,2.039 -0.427,2.742 -0.042,6.402 0.086,7.002 0.129,0.597 -0.059,0.884 -0.383,0.564 z m 0.298,-9.405 c -0.553,-0.305 -1.212,-1.713 -1.427,-2.133 -0.153,-0.301 -0.144,-1.141 0.065,-1.51 0.913,-1.615 2.214,-3.086 3.9,-3.867 0.193,-0.089 0.492,-0.098 0.492,0.38 0,0.266 0.132,0.686 0.137,0.945 0.006,0.254 0.121,0.805 -0.222,1.233 -0.341,0.426 -1.852,3.072 -2.22,4.568 -0.083,0.341 -0.172,0.691 -0.725,0.384 z m 8.497,13.389 c -0.08,-0.004 -0.16,0.002 -0.24,0.002 -2.067,0 -4.329,-0.783 -5.67,-1.533 -1.385,-0.775 -1.904,-4.32 -1.904,-6.133 0,-5.85 2.411,-9.367 2.795,-10.051 0.384,-0.682 1.238,-0.768 1.879,-0.598 0.641,0.172 0.888,0.301 1.623,0.523 0.398,0.121 1.195,0.287 1.793,0.416 0.598,0.129 1.237,0.256 0.854,1.367 -0.384,1.109 -1.672,3.797 -1.813,6.975 -0.128,2.869 0.256,5.73 0.907,7.484 0.423,1.138 0.416,1.569 -0.224,1.548 z m 2.945,-0.455 c -0.642,0.207 -0.938,-0.25 -1.237,-0.594 -1.153,-1.316 -1.451,-4.859 -1.451,-5.328 0,-0.473 0.17,-0.984 0.498,-0.992 2.803,-0.07 4.796,-0.889 6.623,-2.391 1.827,-1.502 2.618,-3.199 2.785,-3.531 0.166,-0.332 0.526,-0.273 0.613,0.207 0.071,0.391 0.216,1.1 0.216,1.855 -0.001,5.096 -3.434,9.278 -8.047,10.774 z"
     fill-rule="evenodd"
     clip-rule="evenodd"
     fill="#fff22d"
     id="path34" />
  <path
     d="m 180.387,104.141 c 0,-6.85 -5.553,-12.403 -12.402,-12.403 -6.852,0 -12.402,5.553 -12.402,12.403 0,6.852 5.551,12.402 12.402,12.402 6.849,0 12.402,-5.551 12.402,-12.402 z"
     fill-rule="evenodd"
     clip-rule="evenodd"
     fill="#c23227"
     id="path35" />
  <path
     d="m 161.875,96.567 c 0.537,0.608 1.572,1.067 2.639,1.366 0,0 0.514,0.299 0.811,0.768 0.455,0.717 2.068,4.598 2.137,6.875 0.021,0.773 -0.629,1.412 -1.664,1.266 -1.033,-0.148 -2.832,-0.104 -5.723,-2.803 -0.641,-0.598 -2.828,-3.143 -2.117,-4.836 0.559,-1.346 1.529,-2.471 2.605,-3.433 0,0 0.535,-0.442 0.75,-0.612 -10e-4,0.001 0.025,0.803 0.562,1.409 z m 10.496,-1.879 c 0,0.343 -0.297,1.12 -1.627,1.537 -1.332,0.414 -3.209,1.023 -4.74,1.023 -1.533,0 -3.834,-0.496 -3.834,-1.956 0,-0.45 0.121,-0.769 0.518,-1.02 1.57,-0.994 3.416,-1.356 5.354,-1.356 1.279,0 2.502,0.226 3.65,0.606 0.421,0.142 0.679,0.825 0.679,1.166 z m 3.842,16.14 c 0.127,-0.6 0.512,-4.26 0.086,-7.002 -0.113,-0.727 1.1,-1.648 1.324,-2.039 0.223,-0.391 0.469,-0.684 0.65,-0.969 0.256,-0.402 0.52,0.068 0.52,0.068 a 11.26,11.26 0 0 1 0.48,3.262 c 0,2.928 -1.115,5.701 -2.678,7.244 -0.322,0.321 -0.511,0.034 -0.382,-0.564 z m -0.641,-9.223 c -0.367,-1.496 -1.879,-4.143 -2.221,-4.568 -0.342,-0.428 -0.227,-0.979 -0.223,-1.233 0.008,-0.259 0.139,-0.679 0.139,-0.945 0,-0.478 0.299,-0.469 0.49,-0.38 1.688,0.78 2.99,2.251 3.902,3.867 0.209,0.369 0.219,1.209 0.064,1.51 -0.213,0.42 -0.873,1.828 -1.426,2.133 -0.551,0.306 -0.641,-0.044 -0.725,-0.384 z m -7.994,12.225 c 0.65,-1.754 1.035,-4.615 0.906,-7.484 -0.141,-3.178 -1.428,-5.865 -1.812,-6.975 -0.385,-1.111 0.256,-1.238 0.854,-1.367 0.598,-0.129 1.395,-0.295 1.795,-0.416 0.732,-0.223 0.979,-0.352 1.621,-0.523 0.639,-0.17 1.494,-0.084 1.879,0.598 0.385,0.684 2.795,4.201 2.795,10.051 0,1.812 -0.518,5.357 -1.904,6.133 -1.34,0.75 -3.602,1.533 -5.67,1.533 -0.08,0 -0.16,-0.006 -0.238,-0.002 -0.642,0.02 -0.65,-0.411 -0.226,-1.548 z m -10.767,-9.682 c 0,-0.756 0.145,-1.465 0.217,-1.855 0.086,-0.48 0.445,-0.539 0.611,-0.207 0.168,0.332 0.959,2.029 2.785,3.531 1.828,1.502 3.82,2.32 6.623,2.391 0.326,0.008 0.498,0.52 0.498,0.992 0,0.469 -0.297,4.012 -1.451,5.328 -0.299,0.344 -0.594,0.801 -1.238,0.594 -4.614,-1.496 -8.045,-5.678 -8.045,-10.774 z"
     fill-rule="evenodd"
     clip-rule="evenodd"
     fill="#fff22d"
     id="path36" />
  <path
     d="m 155.635,104.076 a 12.43,12.43 0 0 1 3.652,-8.815 c 2.256,-2.256 5.373,-3.651 8.814,-3.651 3.441,0 6.559,1.395 8.814,3.651 2.256,2.255 3.65,5.372 3.65,8.815 0,3.443 -1.395,6.559 -3.65,8.814 -2.255,2.255 -5.371,3.65 -8.814,3.65 a 12.437,12.437 0 0 1 -8.816,-3.65 12.431,12.431 0 0 1 -3.65,-8.814 z m 0.127,0 c 0,3.408 1.381,6.492 3.613,8.725 2.234,2.234 5.318,3.615 8.727,3.615 3.409,0 6.492,-1.381 8.727,-3.613 2.232,-2.234 3.613,-5.318 3.613,-8.727 0,-3.409 -1.381,-6.492 -3.615,-8.726 a 12.3,12.3 0 0 0 -8.725,-3.614 12.303,12.303 0 0 0 -8.725,3.615 12.3,12.3 0 0 0 -3.615,8.725 z"
     fill="#fde62f"
     id="path37" />
</svg>
