<svg data-name="Raggruppa 2" xmlns="http://www.w3.org/2000/svg" width="121.656" height="166.199"><defs><clipPath id="a"><path data-name="Rettangolo 8" fill="none" d="M0 0h121.656v166.199H0z"/></clipPath></defs><g data-name="Raggruppa 1" clip-path="url(#a)"><path data-name="Tracciato 1" d="M119.466 2.045v88.689q0 4.766-.011 9.518a43.835 43.835 0 0 1-4.056 17.9 65.859 65.859 0 0 1-15.139 20.711c-8.708 8.321-19.292 15.486-32.358 21.906-1.884.926-3.83 1.8-5.783 2.611-.093.039-.185.08-.278.121a5.054 5.054 0 0 1-1.07.366c-1.877-.715-3.942-1.617-6.308-2.758a135.649 135.649 0 0 1-26.7-16.646 80.549 80.549 0 0 1-17.179-18.437A49.647 49.647 0 0 1 2.9 107.363a47.047 47.047 0 0 1-.736-7.333V2.045h59.013c8.392-.006 16.773-.006 24.463 0Z" fill="#fff"/><path data-name="Rettangolo 1" fill="#ca0814" d="M6.81 75.96h108.032v10.564H6.81z"/><path data-name="Rettangolo 2" fill="#fed330" d="M6.81 63.76h108.032v10.564H6.81z"/><path data-name="Tracciato 2" d="M102.835 12.513v38.164l-8.5 8.724-1.557 1.6-1.557-1.6-8.5-8.724V12.513Z" fill="#ca0814"/><path data-name="Rettangolo 3" fill="#fed330" d="M82.714 22.715h20.121v3.115H82.714z"/><path data-name="Tracciato 3" d="M94.331 12.513v46.888l-1.557 1.6-1.557-1.6V12.513Z" fill="#fed330"/><path data-name="Tracciato 4" d="m26.286 90.929-1.182 11.225q-.255 2.445-.413 4.965t-.237 5.2h-.237q-.116-4.666-.413-9.238c-.039-.6-.058-.952-.058-1.042v-.179l-1.262-10.93h-6.538v29.051h3.722v-16.212q0-.494-.1-4.256-.077-2.341-.1-3.78h.235q.239 4.037.788 9.69t1.6 14.556h4.118l1.929-16.782q.139-1.279.295-3.249t.276-4.215h.217q-.077 2.974-.127 5.4t-.05 3.328v.394l-.1 15.126h3.959V90.929Z" fill="#bfa471"/><path data-name="Tracciato 5" d="M44.388 94.886v-3.957h-9.572v29.051h9.572v-4h-5.26v-9.966h5.141v-3.821h-5.141v-7.309Z" fill="#bfa471"/><path data-name="Tracciato 6" d="M56.481 101.663v-5.772a5.6 5.6 0 0 0-1.417-4.146 5.72 5.72 0 0 0-4.2-1.408 4.951 4.951 0 0 0-5.554 5.554v3.152a7.777 7.777 0 0 0 .286 2.245 6.3 6.3 0 0 0 .915 1.832l4.924 6.853a4.035 4.035 0 0 1 .551 1.085 3.7 3.7 0 0 1 .179 1.141v3.014a2.337 2.337 0 0 1-.306 1.369 1.17 1.17 0 0 1-.995.4 1.1 1.1 0 0 1-.956-.394 2.462 2.462 0 0 1-.286-1.38v-6.519h-4.308v6.362a5.6 5.6 0 1 0 11.167 0v-3.821a6.5 6.5 0 0 0-.344-2.166 8.865 8.865 0 0 0-1.231-2.207l-4.706-6.441a2.768 2.768 0 0 1-.433-1.064 8.607 8.607 0 0 1-.14-1.733v-2.088a2.357 2.357 0 0 1 .286-1.348 1.112 1.112 0 0 1 .956-.385 1.183 1.183 0 0 1 .995.394 2.246 2.246 0 0 1 .306 1.339v6.127Z" fill="#bfa471"/><path data-name="Tracciato 7" d="M69.915 101.663v-5.772a5.6 5.6 0 0 0-1.419-4.146 5.717 5.717 0 0 0-4.2-1.408 4.951 4.951 0 0 0-5.554 5.554v3.152a7.853 7.853 0 0 0 .286 2.245 6.3 6.3 0 0 0 .915 1.832l4.933 6.853a4.1 4.1 0 0 1 .551 1.085 3.7 3.7 0 0 1 .177 1.141v3.014a2.32 2.32 0 0 1-.306 1.369 1.165 1.165 0 0 1-.995.4 1.1 1.1 0 0 1-.954-.394 2.444 2.444 0 0 1-.286-1.38v-6.519h-4.317v6.362a5.6 5.6 0 1 0 11.169 0v-3.821a6.556 6.556 0 0 0-.344-2.166 8.935 8.935 0 0 0-1.231-2.207l-4.708-6.441a2.837 2.837 0 0 1-.433-1.064 8.631 8.631 0 0 1-.138-1.733v-2.088a2.339 2.339 0 0 1 .286-1.348 1.11 1.11 0 0 1 .954-.385 1.178 1.178 0 0 1 .995.394 2.23 2.23 0 0 1 .306 1.339v6.127Z" fill="#bfa471"/><path data-name="Rettangolo 4" fill="#bfa471" d="M71.569 90.929h4.314v29.051h-4.314z"/><path data-name="Tracciato 8" d="m87.799 90.929.118 15.421q0 .946.039 3.694t.118 6.293l-.237.019q-.313-3.526-.689-6.913t-.807-6.6l-1.615-11.916h-6.578v29.051h3.526l-.138-18.278c0-.327-.011-1.094-.03-2.295s-.05-2.866-.088-4.993h.295q.139 1.379.383 3.378t.779 6.136l2.088 16.052h6.42V90.929Z" fill="#bfa471"/><path data-name="Tracciato 9" d="M102.551 90.929h-6.577l-3.466 29.051h4.273l.926-7.819h2.7l.887 7.819h4.411ZM98.082 108.4l.51-7.171q.081-1.062.2-2.8.158-2.5.217-3.13h.2q.216 2.4.306 3.662c.058.842.1 1.576.127 2.207l.454 7.229Z" fill="#bfa471"/><path data-name="Tracciato 10" d="M23.858 35.998h-5.177l-2.728 22.864h3.363l.73-6.153h2.123l.7 6.153h3.473ZM20.34 49.749l.4-5.643q.061-.836.155-2.2.123-1.97.17-2.465h.155q.171 1.889.241 2.883c.045.661.08 1.24.1 1.735l.357 5.69Z" fill="#bfa471"/><path data-name="Rettangolo 5" fill="#bfa471" d="M28.461 55.252h3.07v3.61h-3.07z"/><path data-name="Tracciato 11" d="M42.132 44.446v-4.54a4.4 4.4 0 0 0-1.115-3.264 5.447 5.447 0 0 0-6.588 0 4.413 4.413 0 0 0-1.115 3.264v15.077a4.421 4.421 0 1 0 8.818 0v-5h-3.425v5.13a1.922 1.922 0 0 1-.224 1.085.867.867 0 0 1-.751.31.889.889 0 0 1-.76-.31 1.876 1.876 0 0 1-.233-1.085V39.626a1.8 1.8 0 0 1 .233-1.061.9.9 0 0 1 .76-.3.874.874 0 0 1 .751.3 1.846 1.846 0 0 1 .224 1.061v4.82Z" fill="#bfa471"/><path data-name="Rettangolo 6" fill="#bfa471" d="M43.574 55.252h3.07v3.61h-3.07z"/><path data-name="Tracciato 12" d="M57.564 57.228a18.2 18.2 0 0 1-.146-2.551v-4.665a3.049 3.049 0 0 0-.837-2.334 3.7 3.7 0 0 0-2.527-.814v-.123a4.189 4.189 0 0 0 2.581-1.2 4 4 0 0 0 .784-2.674v-2.665a4.058 4.058 0 0 0-1.132-3.216A5.549 5.549 0 0 0 52.614 36h-4.03v22.864h3.393V48.198h.14a2.34 2.34 0 0 1 1.419.349 1.269 1.269 0 0 1 .456 1.076v6a15.364 15.364 0 0 0 .1 1.931 4.977 4.977 0 0 0 .334 1.309h3.6a5.419 5.419 0 0 1-.456-1.634m-3.574-13.354a1.711 1.711 0 0 1-.316 1.13 1.181 1.181 0 0 1-.954.372h-.745v-6.743h.745a1.188 1.188 0 0 1 .954.372 1.717 1.717 0 0 1 .316 1.132Z" fill="#bfa471"/><path data-name="Rettangolo 7" fill="#bfa471" d="M59.633 55.252h3.07v3.61h-3.07z"/><path data-name="Tracciato 13" d="M51.093 142.478a1.7 1.7 0 0 0-1.21-.364c-.534 0-.8 0-1.333-.009v7.554c.521.164.781.243 1.3.39a1.418 1.418 0 0 0 1.2-.041 1.288 1.288 0 0 0 .377-1.079c.011-2.11.017-3.167.03-5.277a1.584 1.584 0 0 0-.368-1.175m-.784 6.187a.508.508 0 0 1-.105.368.3.3 0 0 1-.31.056l-.241-.06.017-6.009c.1 0 .146.006.245.009a.4.4 0 0 1 .312.142.633.633 0 0 1 .1.4l-.022 5.092" fill="#bfa471"/><path data-name="Tracciato 14" d="m54.32 142.133-1.709-.006q-.468 4.195-.949 8.385c.439.1.661.151 1.1.241.1-.911.153-1.367.254-2.286l.7.1.215 2.409c.459.078.689.114 1.15.181q-.381-4.511-.766-9.021m-1.195 5.221.146-2.133c.015-.213.034-.493.056-.837.032-.5.052-.812.062-.939h.052c.034.482.058.853.073 1.107s.022.476.028.667c.041.876.062 1.315.1 2.194-.209-.024-.312-.034-.521-.06" fill="#bfa471"/><path data-name="Tracciato 15" d="m56.525 150.067.039-7.927h-1.122l-.052 9.057c1 .136 1.5.187 2.508.261v-1.281a35.492 35.492 0 0 1-1.378-.108" fill="#bfa471"/><path data-name="Tracciato 16" d="M61.896 142.145h-.928v.032a1.286 1.286 0 0 1-.258.855 1.058 1.058 0 0 1-.766.344v1.033h.818v7.15c.461 0 .691 0 1.152-.013l-.013-9.4" fill="#bfa471"/><path data-name="Tracciato 17" d="M66.205 143.684a1.96 1.96 0 0 0-.377-1.29 1.356 1.356 0 0 0-1.092-.441 1.325 1.325 0 0 0-1.087.452 2.064 2.064 0 0 0-.366 1.335c0 1.3 0 1.944.009 3.242a1.64 1.64 0 0 0 .267.982.775.775 0 0 0 .7.334.95.95 0 0 0 .441-.138 1.542 1.542 0 0 0 .4-.372c0 .816.006 1.223.009 2.039a.882.882 0 0 1-.078.441.305.305 0 0 1-.254.151.255.255 0 0 1-.254-.1.878.878 0 0 1-.08-.435v-1.3a48.42 48.42 0 0 1-1.141.06v1.259a1.971 1.971 0 0 0 .379 1.313 1.21 1.21 0 0 0 1.1.36 1.489 1.489 0 0 0 1.1-.568 2.164 2.164 0 0 0 .364-1.343c-.013-2.392-.019-3.587-.034-5.979m-1.188 3.176a.294.294 0 0 1-.256.142.263.263 0 0 1-.254-.11.826.826 0 0 1-.078-.426c-.006-1.117-.009-1.675-.013-2.792a.866.866 0 0 1 .075-.431.321.321 0 0 1 .508 0 .84.84 0 0 1 .077.422l.015 2.775a.882.882 0 0 1-.075.424" fill="#bfa471"/><path data-name="Tracciato 18" d="M69.659 143.57a1.755 1.755 0 0 0-.379-1.2 1.406 1.406 0 0 0-1.092-.413 1.339 1.339 0 0 0-1.085.433 1.927 1.927 0 0 0-.364 1.285l.037 5.927a1.72 1.72 0 0 0 .379 1.232 1.153 1.153 0 0 0 1.094.243 1.679 1.679 0 0 0 1.081-.639 2.061 2.061 0 0 0 .362-1.287l-.032-5.576m-1.167 6.241a.337.337 0 0 1-.252.166.235.235 0 0 1-.252-.08.757.757 0 0 1-.08-.4l-.037-5.964a.779.779 0 0 1 .073-.411.284.284 0 0 1 .25-.121.277.277 0 0 1 .256.112.726.726 0 0 1 .08.4l.039 5.882a.825.825 0 0 1-.078.422" fill="#bfa471"/><path data-name="Tracciato 19" d="M72.729 142.323a1.5 1.5 0 0 0-1.089-.37 1.393 1.393 0 0 0-1.085.4 1.688 1.688 0 0 0-.364 1.193l.03 5.5a1.4 1.4 0 0 0 .375 1.1 1.121 1.121 0 0 0 1.074.114 1.956 1.956 0 0 0 1.068-.693 1.923 1.923 0 0 0 .362-1.191v-4.983a1.44 1.44 0 0 0-.37-1.074m-.814 6.769a.379.379 0 0 1-.248.172.229.229 0 0 1-.25-.049.611.611 0 0 1-.075-.364c-.011-2.183-.015-3.272-.024-5.455a.658.658 0 0 1 .075-.377.287.287 0 0 1 .25-.114.282.282 0 0 1 .256.1.622.622 0 0 1 .078.36l.015 5.337a.787.787 0 0 1-.078.392" fill="#bfa471"/><path data-name="Tracciato 20" d="M61.701 126.291c-1.475 2.549-1.673 3.3-1.518 5.722v.073l-.041.06a3.146 3.146 0 0 1-2.043 1.384l-.168.037-.071-.155a6.607 6.607 0 0 1 1.3-7.023 2.533 2.533 0 0 1 2.237-.439l.469.054Z" fill="#bfa471"/><path data-name="Tracciato 21" d="m66.014 135.255-.2.2-.14-.25a7.322 7.322 0 0 0-4.291-3.335l-.125-.043-.017-.131a6.2 6.2 0 0 1 .032-2.3l.037-.164h.17a5.684 5.684 0 0 1 4.995 3.6 2.029 2.029 0 0 1-.461 2.422" fill="#bfa471"/><path data-name="Tracciato 22" d="m63.379 133.867-.112.172a5.989 5.989 0 0 1-4.467 2.375 5.512 5.512 0 0 1-.381.013 3.268 3.268 0 0 1-2.54-.967l-.248-.284.37-.069a8.057 8.057 0 0 0 4.743-2.263l.073-.08.108.013a4.576 4.576 0 0 1 2.289.969Z" fill="#bfa471"/><path data-name="Tracciato 23" d="m67.026 131.593-.534-.637a8.849 8.849 0 0 0-4.592-2.786l-.243-.071.11-.228a3.088 3.088 0 0 1 1.371-1.537l.093-.049.1.043a5.813 5.813 0 0 1 3.542 4.45Z" fill="#bfa471"/><path data-name="Tracciato 24" d="m65.176 136.228-.039.071c-.59 1.12-2.441 1.836-4.209 1.836a5.181 5.181 0 0 1-2.009-.37l-.706-.3.76-.11a8.377 8.377 0 0 0 5-2.583l.153-.161.155.159a2.907 2.907 0 0 1 .874 1.38Z" fill="#bfa471"/><path data-name="Tracciato 25" d="M57.315 127.533a7.806 7.806 0 0 0-.508 6.011l.034.118-.086.09a1.244 1.244 0 0 1-.926.431 1.585 1.585 0 0 1-.428-.065l-.088-.026-.043-.08c-1.068-1.989-.334-4.885 1.709-6.736l.855-.773Z" fill="#bfa471"/><path data-name="Tracciato 26" d="M121.651 22.773V0H0v99.629c0 .131 0 .265.011.4a50.38 50.38 0 0 0 6.84 24.1A77.238 77.238 0 0 0 24.81 144.87a134.8 134.8 0 0 0 29.111 18.384l.183.088a58.836 58.836 0 0 0 6.568 2.8l.172.058.172-.06a57.569 57.569 0 0 0 5.492-2.321l.043-.019A134.11 134.11 0 0 0 98.2 143.7a77.078 77.078 0 0 0 15.766-18.164 49.408 49.408 0 0 0 7.675-25.953c.022-25.6.017-51.637.011-76.813m-2.185 67.96q0 4.766-.011 9.518a43.835 43.835 0 0 1-4.056 17.9 65.858 65.858 0 0 1-15.139 20.711c-8.708 8.321-19.292 15.486-32.358 21.906-1.884.926-3.83 1.8-5.783 2.611-.093.039-.185.08-.278.121a5.053 5.053 0 0 1-1.07.366c-1.877-.715-3.942-1.617-6.308-2.758a135.65 135.65 0 0 1-26.7-16.646 80.549 80.549 0 0 1-17.178-18.44A49.647 49.647 0 0 1 2.9 107.358a47.047 47.047 0 0 1-.736-7.333V2.045h59.013c8.392-.006 16.773-.006 24.463 0h33.826Z" fill="#bfa471"/><path data-name="Tracciato 27" d="M117.718 4.241H3.953v1.494c0 .08.006.159.006.237q-.01 38.18-.006 76.363 0 7.56-.011 15.12a47.243 47.243 0 0 0 6.4 23.828 72.96 72.96 0 0 0 16.83 19.555 127.6 127.6 0 0 0 27.36 17.38 55.739 55.739 0 0 0 6.312 2.717 54.163 54.163 0 0 0 5.173-2.2 126.828 126.828 0 0 0 29.74-18.995 72.913 72.913 0 0 0 14.775-17.124 46.377 46.377 0 0 0 7.167-24.366v-.56q.039-46.054.006-92.107c0-.161.015-.325.015-.493Zm-1.044 1.746a1.65 1.65 0 0 1 0 .207c0 .114-.009.226-.009.336q0 24.646.009 49.29 0 21.53-.024 43.062a42.123 42.123 0 0 1-3.873 17.2 63.261 63.261 0 0 1-14.394 19.815c-9.036 8.687-19.464 15.35-30.655 20.883q-2.7 1.337-5.486 2.493a5.952 5.952 0 0 1-1.518.515c-2.03-.771-4.088-1.7-6.121-2.682a129.36 129.36 0 0 1-25.291-15.859A77.155 77.155 0 0 1 13 123.628a48.162 48.162 0 0 1-7.324-17.908 45.452 45.452 0 0 1-.715-8.028v-20.6q-.006-35.174 0-70.35V5.16h111.713Z" fill="#5f554c"/></g></svg>