<?xml version="1.0" encoding="UTF-8" standalone="no"?>
<svg
   clip-rule="evenodd"
   fill-rule="evenodd"
   stroke-miterlimit="3.8637"
   viewBox="0 0 260.82495 271.82501"
   version="1.1"
   id="svg88"
   sodipodi:docname="Middlesbrough.svg"
   width="260.82495"
   height="271.82501"
   xmlns:inkscape="http://www.inkscape.org/namespaces/inkscape"
   xmlns:sodipodi="http://sodipodi.sourceforge.net/DTD/sodipodi-0.dtd"
   xmlns:xlink="http://www.w3.org/1999/xlink"
   xmlns="http://www.w3.org/2000/svg"
   xmlns:svg="http://www.w3.org/2000/svg">
  <defs
     id="defs88" />
  <sodipodi:namedview
     id="namedview88"
     pagecolor="#ffffff"
     bordercolor="#000000"
     borderopacity="0.25"
     inkscape:showpageshadow="2"
     inkscape:pageopacity="0.0"
     inkscape:pagecheckerboard="0"
     inkscape:deskcolor="#d1d1d1" />
  <radialGradient
     id="a"
     cx="279.47101"
     cy="194.17101"
     gradientUnits="userSpaceOnUse"
     r="113.662">
    <stop
       offset="0"
       stop-color="#e11b22"
       id="stop1" />
    <stop
       offset=".73"
       stop-color="#e11b22"
       id="stop2" />
    <stop
       offset="1"
       stop-color="#942923"
       id="stop3" />
  </radialGradient>
  <linearGradient
     id="b">
    <stop
       offset="0"
       stop-color="#942923"
       id="stop4" />
    <stop
       offset=".51"
       stop-color="#e11b22"
       id="stop5" />
    <stop
       offset="1"
       stop-color="#942923"
       id="stop6" />
  </linearGradient>
  <linearGradient
     id="c"
     gradientUnits="userSpaceOnUse"
     x1="211.386"
     x2="338.22101"
     xlink:href="#b"
     y1="186.291"
     y2="186.291"
     gradientTransform="translate(-149.58752,-63.843)" />
  <linearGradient
     id="d"
     gradientTransform="matrix(10.1911,-28.0242,28.0242,10.1911,239.972,306.859)"
     gradientUnits="userSpaceOnUse"
     x1="0"
     x2="1"
     xlink:href="#b"
     y1="0"
     y2="0" />
  <linearGradient
     id="e"
     gradientTransform="matrix(18.8393,-10.7676,10.7676,18.8393,151.671,296.571)"
     gradientUnits="userSpaceOnUse"
     x1="0"
     x2="1"
     xlink:href="#b"
     y1="0"
     y2="0" />
  <linearGradient
     id="f">
    <stop
       offset="0"
       stop-color="#fff"
       id="stop7" />
    <stop
       offset="1"
       stop-color="#6d6e71"
       id="stop8" />
  </linearGradient>
  <linearGradient
     id="g"
     gradientUnits="userSpaceOnUse"
     x1="392.58401"
     x2="399.25323"
     xlink:href="#f"
     y1="292.25699"
     y2="292.25699" />
  <linearGradient
     id="h"
     gradientTransform="matrix(-6.66896,0,0,-6.66896,167.455,292.257)"
     gradientUnits="userSpaceOnUse"
     x1="0"
     x2="1"
     xlink:href="#f"
     y1="0"
     y2="0" />
  <linearGradient
     id="i"
     gradientUnits="userSpaceOnUse"
     x1="395.66"
     x2="403.1503"
     xlink:href="#f"
     y1="307.80099"
     y2="307.80099" />
  <linearGradient
     id="j"
     gradientTransform="matrix(18.8394,10.7677,-10.7677,18.8394,389.422,285.805)"
     gradientUnits="userSpaceOnUse"
     x1="0"
     x2="1"
     xlink:href="#b"
     y1="0"
     y2="0" />
  <linearGradient
     id="k"
     gradientTransform="matrix(10.1912,28.0247,-28.0247,10.1912,309.804,278.834)"
     gradientUnits="userSpaceOnUse"
     x1="0"
     x2="1"
     xlink:href="#b"
     y1="0"
     y2="0" />
  <linearGradient
     id="l"
     gradientTransform="matrix(-0.0574115,-17.6422,17.6422,-0.0574115,306.484,282.703)"
     gradientUnits="userSpaceOnUse"
     x1="0"
     x2="1"
     xlink:href="#f"
     y1="0"
     y2="0" />
  <linearGradient
     id="m"
     gradientTransform="matrix(0.0574115,-17.6422,17.6422,0.0574115,253.573,282.703)"
     gradientUnits="userSpaceOnUse"
     x1="0"
     x2="1"
     xlink:href="#f"
     y1="0"
     y2="0" />
  <linearGradient
     id="n"
     gradientUnits="userSpaceOnUse"
     x1="319.88"
     x2="328.7392"
     xlink:href="#f"
     y1="312.12"
     y2="312.12" />
  <linearGradient
     id="o"
     gradientTransform="matrix(-8.85908,0,0,-8.85908,240.147,312.12)"
     gradientUnits="userSpaceOnUse"
     x1="0"
     x2="1"
     xlink:href="#f"
     y1="0"
     y2="0" />
  <linearGradient
     id="p"
     gradientTransform="matrix(-7.49071,0,0,-7.49071,164.225,307.801)"
     gradientUnits="userSpaceOnUse"
     x1="0"
     x2="1"
     xlink:href="#f"
     y1="0"
     y2="0" />
  <clipPath
     id="q">
    <path
       clip-rule="evenodd"
       d="m 193.287,123.208 4.592,71.585 c 3.242,36.604 11.616,60.376 25.393,75.503 12.561,12.156 27.553,22.151 39.574,29.04 7.429,4.322 13.507,7.293 17.154,9.049 3.647,-1.756 9.725,-4.727 17.154,-9.049 12.021,-6.889 27.013,-16.884 39.574,-29.04 13.777,-15.127 22.151,-38.899 25.393,-75.503 l 4.592,-71.585 c -4.322,-1.891 -10.535,-4.458 -18.504,-7.024 -16.478,-5.268 -39.98,-10.67 -68.209,-10.67 -28.229,0 -51.731,5.267 -68.209,10.67 -7.969,2.431 -14.182,4.998 -18.504,7.024 z M 348.074,84.173 c -16.478,-5.268 -39.98,-10.67 -68.209,-10.67 -28.229,0 -51.731,5.267 -68.209,10.67 -9.185,2.972 -16.208,5.943 -20.395,7.969 l 1.891,28.634 c 4.322,-1.891 10.67,-4.592 18.639,-7.158 16.478,-5.268 39.98,-10.671 68.209,-10.671 28.229,0 51.731,5.268 68.209,10.671 8.104,2.566 14.452,5.132 18.639,7.158 l 1.891,-28.634 c -4.322,-2.026 -11.345,-4.997 -20.665,-7.969 z M 280,64.993 c 58.619,0 97.654,22.016 97.654,22.016 l -7.024,108.325 c -3.241,37.413 -12.021,63.616 -27.824,80.77 C 316.198,302.037 280,317.705 280,317.705 c 0,0 -36.198,-15.668 -62.806,-41.601 -15.803,-17.154 -24.583,-43.357 -27.824,-80.77 L 182.346,87.009 c 0,0 39.035,-22.016 97.654,-22.016 z"
       id="path8" />
  </clipPath>
  <clipPath
     id="r">
    <path
       clip-rule="evenodd"
       d="m 237.454,284.883 c 0,0 1.891,1.216 0.945,2.837 l -5.673,7.699 c 0,0 -2.026,2.431 -0.135,4.052 0,0 4.052,3.782 11.346,7.834 l 16.613,-24.448 c 0,0 -0.54,-0.945 -5.402,-0.945 -6.078,0 -12.021,1.216 -17.694,2.971 z"
       id="path9" />
  </clipPath>
  <clipPath
     id="s">
    <path
       clip-rule="evenodd"
       d="m 151.416,295.013 -0.541,-0.945 c -0.675,-1.621 -1.485,-3.917 1.756,-7.969 5.403,-5.808 13.372,-7.699 14.858,-5.133 1.08,2.297 -1.216,5.268 -4.322,7.699 -2.567,2.026 -4.998,2.837 -4.998,2.837 l 7.159,8.779 c -2.026,0.405 -3.647,0.405 -4.998,0.54 -6.213,-0.81 -7.834,-3.646 -8.914,-5.808 z"
       id="path10" />
  </clipPath>
  <clipPath
     id="t">
    <path
       clip-rule="evenodd"
       d="m 392.646,286.234 c 0,0 2.972,2.972 6.213,5.133 0.541,0.405 0.271,0.81 0.271,0.81 l -5.133,5.943 c 0.675,-0.81 3.107,-5.403 3.107,-5.403 0,0 0.27,-0.675 -0.136,-1.215 -0.945,-1.216 -3.781,-4.593 -4.322,-5.268 z"
       id="path11" />
  </clipPath>
  <clipPath
     id="u">
    <path
       clip-rule="evenodd"
       d="m 167.354,286.234 c 0,0 -2.972,2.972 -6.213,5.133 -0.541,0.405 -0.271,0.81 -0.271,0.81 l 5.133,5.943 c -0.675,-0.81 -3.107,-5.403 -3.107,-5.403 0,0 -0.27,-0.675 0.136,-1.215 0.945,-1.216 3.781,-4.593 4.322,-5.268 z"
       id="path12" />
  </clipPath>
  <clipPath
     id="v">
    <path
       clip-rule="evenodd"
       d="m 395.753,301.902 c 2.026,0.54 2.971,0.405 4.727,0.27 1.081,-0.135 3.107,-1.216 2.567,0.135 -1.486,3.917 -3.917,7.834 -5.673,11.616 -0.541,1.08 0.405,-1.486 1.35,-4.322 0.406,-1.216 0.946,-2.567 1.351,-3.782 0.135,-0.675 0.405,-1.621 -0.27,-1.891 -0.675,-0.27 -3.512,-1.621 -4.052,-2.026 z"
       id="path13" />
  </clipPath>
  <clipPath
     id="w">
    <path
       clip-rule="evenodd"
       d="m 408.584,295.013 0.541,-1.08 c 0.675,-1.621 1.485,-3.917 -1.756,-7.969 -5.403,-5.808 -13.372,-7.699 -14.858,-5.133 -1.08,2.297 1.216,5.268 4.322,7.699 2.567,2.026 4.998,2.837 4.998,2.837 l -7.159,8.779 c 2.026,0.405 3.647,0.405 4.998,0.54 6.078,-0.675 7.834,-3.511 8.914,-5.673 z"
       id="path14" />
  </clipPath>
  <clipPath
     id="x">
    <path
       clip-rule="evenodd"
       d="m 322.411,284.883 c 0,0 -1.891,1.216 -0.945,2.837 l 5.673,7.699 c 0,0 2.026,2.431 0.135,4.052 0,0 -4.052,3.782 -11.346,7.834 L 299.45,282.857 c 0,0 0.54,-0.945 5.402,-0.945 5.943,0 11.886,1.216 17.559,2.971 z"
       id="path15" />
  </clipPath>
  <clipPath
     id="y">
    <path
       clip-rule="evenodd"
       d="m 313.227,267.054 c -0.406,0 -2.702,0.811 -3.242,0.946 -1.081,0.27 -1.756,0.945 -2.431,1.756 -0.811,0.945 -1.351,2.026 -2.026,2.971 -0.946,1.351 -4.728,6.484 -5.403,7.834 0.675,-1.215 3.917,-6.888 4.727,-8.509 0.676,-1.486 1.351,-2.836 2.432,-3.917 1.485,-1.486 4.052,-1.216 5.943,-1.081 z"
       id="path16" />
  </clipPath>
  <clipPath
     id="z">
    <path
       clip-rule="evenodd"
       d="m 246.908,267.054 c 0.406,0 2.702,0.811 3.242,0.946 1.081,0.27 1.756,0.945 2.431,1.756 0.811,0.945 1.351,2.026 2.026,2.971 0.946,1.351 4.728,6.484 5.403,7.834 -0.675,-1.215 -3.917,-6.888 -4.727,-8.509 -0.676,-1.486 -1.351,-2.836 -2.432,-3.917 -1.62,-1.486 -4.052,-1.216 -5.943,-1.081 z"
       id="path17" />
  </clipPath>
  <clipPath
     id="A">
    <path
       clip-rule="evenodd"
       d="m 324.977,320.946 3.647,-16.343 c 0.676,-2.566 -1.485,-1.08 -1.485,-1.08 l -7.024,3.511 3.782,-0.405 c 2.161,0 1.891,2.296 1.891,2.296 z"
       id="path18" />
  </clipPath>
  <clipPath
     id="B">
    <path
       clip-rule="evenodd"
       d="m 235.023,320.946 -3.647,-16.343 c -0.676,-2.566 1.485,-1.08 1.485,-1.08 l 7.024,3.511 -3.782,-0.405 c -2.161,0 -1.891,2.296 -1.891,2.296 z"
       id="path19" />
  </clipPath>
  <clipPath
     id="C">
    <path
       clip-rule="evenodd"
       d="m 164.112,301.902 c -2.026,0.54 -2.971,0.405 -4.727,0.27 -1.081,-0.135 -3.107,-1.216 -2.567,0.135 1.486,3.917 3.917,7.834 5.673,11.616 0.541,1.08 -0.405,-1.486 -1.35,-4.322 -0.406,-1.216 -0.946,-2.567 -1.351,-3.782 -0.135,-0.675 -0.405,-1.621 0.27,-1.891 0.675,-0.27 3.512,-1.621 4.052,-2.026 z"
       id="path20" />
  </clipPath>
  <path
     d="m 43.293478,53.151 -1.62,-24.852 c 4.187,-2.026 11.21,-4.997 20.53,-7.969 16.478,-5.268 39.980002,-10.67 68.209002,-10.67 28.229,0 51.731,5.267 68.209,10.67 9.32,2.972 16.343,5.943 20.53,7.969 l -1.891,28.634 -4.727,73.882 c -3.242,36.604 -11.616,60.375 -25.393,75.503 -12.561,12.156 -27.553,22.151 -39.574,29.04 -7.429,4.322 -13.507,7.293 -17.154,9.049 -3.647,-1.756 -9.725,-4.727 -17.154,-9.049 -12.021,-6.889 -27.013002,-16.884 -39.574002,-29.04 -13.777,-15.128 -22.151,-38.899 -25.393,-75.503 z"
     fill="#ffffff"
     fill-rule="nonzero"
     id="path21" />
  <path
     d="m 43.293478,53.151 -1.62,-24.852 c 4.187,-2.026 11.21,-4.997 20.53,-7.969 16.478,-5.268 39.980002,-10.67 68.209002,-10.67 28.229,0 51.731,5.267 68.209,10.67 9.32,2.972 16.343,5.943 20.53,7.969 l -1.891,28.634 -4.727,73.882 c -3.242,36.604 -11.616,60.375 -25.393,75.503 -12.561,12.156 -27.553,22.151 -39.574,29.04 -7.429,4.322 -13.507,7.293 -17.154,9.049 -3.647,-1.756 -9.725,-4.727 -17.154,-9.049 -12.021,-6.889 -27.013002,-16.884 -39.574002,-29.04 -13.777,-15.128 -22.151,-38.899 -25.393,-75.503 z"
     fill="none"
     stroke="#bcbec0"
     stroke-width="2.7"
     id="path22" />
  <g
     clip-path="url(#q)"
     id="g23"
     transform="translate(-149.58752,-63.843)">
    <path
       d="M 162.626,47.57 H 396.563 V 333.103 H 162.626 Z"
       fill="#942923"
       id="path23" />
    <circle
       cx="279.45999"
       cy="194.118"
       fill="url(#a)"
       r="113.592"
       id="circle23"
       style="fill:url(#a)" />
  </g>
  <path
     d="m 85.840478,104.477 c -0.405,-0.135 -0.676,-0.27 -0.27,-2.296 0.27,-0.675 0,-1.216 -1.081,-1.216 0,0 -0.945,0.135 -2.296,0.135 -4.592,0 -5.673,-2.161 -5.673,-2.161 0,0 -1.216,-2.161 0.81,-1.756 1.486,0.271 6.214,-1.62 6.214,-2.161 0,-0.81 -1.351,-0.405 -2.432,-0.405 -0.945,-0.135 -2.431,-0.675 -4.592,-1.621 -1.621,-0.54 -2.836,-0.405 -4.592,0.271 0,0 -1.486,1.755 -0.811,-0.811 0.676,-2.431 3.917,-4.457 5.808,-4.997 0.541,-0.135 -0.27,-2.026 -0.945,-1.891 -0.946,0.135 -1.891,1.08 -3.377,1.08 0,0 -2.026,-0.135 -2.836,-1.215 -0.27,-0.406 -0.27,-0.676 -0.406,-0.946 -0.405,-0.675 -0.675,-1.215 -0.54,-1.756 0.135,-0.54 0.405,-0.81 0.676,-1.215 0.27,-0.406 0.675,-1.081 0.945,-1.351 0.81,-0.54 2.431,0 2.566,-0.405 0.406,-1.351 -3.376,-0.946 -4.457,-1.351 -0.54,-0.27 -0.81,-0.81 -1.216,-1.216 -0.27,-0.405 -0.675,-1.08 -0.81,-1.35 0,-0.676 0,-1.216 0.405,-2.296 0.676,-2.567 2.431,-4.187 3.242,-4.187 0.945,0 2.026,0 3.106,-0.136 1.081,-0.135 -0.54,-3.241 0.676,-4.052 1.486,-0.945 2.701,0.271 3.241,0.406 0.406,0.135 1.081,0.27 2.432,0.27 0.81,0 1.891,0.27 1.62,1.35 0,0 -0.27,2.702 0.135,3.107 0.406,0.135 1.351,-1.351 1.756,-1.891 0.27,-0.54 1.351,-1.216 2.026,-0.135 0,0 0.676,1.216 1.621,2.026 1.351,0.946 0.405,2.161 0.405,2.161 0,0 -1.215,1.756 -3.511,1.621 -0.406,0 -0.946,0.27 -1.351,0.945 -0.405,0.811 -0.405,7.159 1.08,8.104 1.756,1.081 5.268,2.162 8.105,3.647 3.106,1.756 4.187,3.242 5.672,5.268 1.216,1.486 5.673002,1.756 6.349002,2.296 0.27,0.27 0,2.701 -6.349002,6.348 -6.483,3.107 -8.644,2.296 -9.184,2.567 -0.27,0.405 -1.081,1.62 -2.161,1.215 z M 118.93148,81.651 c 1.216,0.405 2.567,-1.756 2.567,-1.756 0,0 -0.541,-0.946 -2.026,-0.946 -1.891,0.135 -2.297,0.676 -2.297,0.676 0,0 0.135,1.485 1.756,2.026 z m -2.836,-6.484 c 1.891,-0.81 3.106,-1.08 3.106,-1.08 0,0 -0.405,-0.54 -1.215,-0.27 -1.486,0.54 -1.891,1.35 -1.891,1.35 z m 14.182,-12.561 c 0,0 -1.486,-0.54 -3.377,0 -1.891,0.676 -2.431,1.486 -2.296,1.621 0.135,0.405 1.486,0.27 2.566,0.27 1.891,-0.135 3.107,-1.891 3.107,-1.891 z m -10.941,28.094 c -2.701,0.541 -6.078,1.351 -8.779,2.296 -2.566,1.081 -4.457,2.026 -6.888,4.728 -1.891,1.756 -3.917002,4.322 -7.969002,5.943 -2.837,1.08 -4.593,2.836 -4.593,3.376 0,0 -0.405,0.946 0.27,0.541 0,0 1.081,-0.811 3.107,-1.081 2.026,-0.135 3.782,-0.135 3.782,-0.135 l 0.405,0.405 c 0,0 -2.431,1.621 -3.917,3.917 -1.215,1.891 -2.026,3.782 -2.026,6.213 0,0.541 0.54,1.486 1.081,0.676 0,0 2.701,-3.647 4.052,-3.647 1.215,0 2.836002,0.945 4.997002,0.945 3.647,0 4.863,-0.27 4.863,-0.27 l 0.135,0.54 c 0,0 -1.351,1.351 -2.702,3.647 -0.81,1.486 -1.485,3.242 -1.756,5.403 0,0.945 0.406,1.351 1.216,0.675 0,0 2.026,-2.431 2.972,-2.971 1.08,-0.54 2.971,-0.811 4.997,-1.621 2.566,-0.81 4.052,-1.891 4.052,-1.891 l 0.54,0.54 c 0,0 -0.54,2.567 -0.27,4.323 0.405,1.485 1.216,2.566 1.216,4.457 0,2.431 -2.296,6.078 -2.296,6.078 v 0.81 c 0,0 2.701,-1.215 5.808,-2.296 2.161,-0.81 4.457,-2.701 5.402,-4.457 1.486,-2.702 2.161,-2.702 2.161,-2.702 0,0 0.541,0.946 0.135,2.702 -0.81,2.431 -1.62,4.322 -1.62,5.538 0,0 0.27,0.135 0.675,0.405 2.566,-3.512 5.268,-3.512 8.374,-7.564 4.052,-5.808 3.242,-12.156 3.242,-12.156 l 0.27,-0.27 c 0,0 1.08,0.405 1.891,0.54 1.08,0.135 2.161,0 3.377,0.27 1.215,0.405 1.62,1.216 1.755,2.026 0.136,0.811 0.271,2.566 0.811,4.592 0.135,0.811 0.675,0.946 1.215,0.406 0.541,-0.541 2.972,-3.377 4.188,-9.185 0.54,-2.701 0.135,-4.457 -1.486,-6.618 -0.946,-1.216 -3.242,-3.242 -4.998,-5.403 -1.215,-1.486 -1.891,-3.242 -1.485,-5.268 0.135,-0.945 0.81,-0.81 1.485,-0.54 0.406,0.27 0.811,0.27 0.811,0.27 0,0 2.161,0.406 4.187,-0.81 3.241,-2.161 3.782,-4.998 3.782,-4.998 0,0 -0.541,-0.405 -1.756,0.271 -0.405,0.27 -0.946,0.675 -1.891,0.405 -0.675,-0.135 -2.837,-1.216 -2.837,-3.242 0,0 -0.135,-2.026 -0.675,-4.997 -0.54,-3.107 -0.945,-4.458 -0.945,-4.458 0,0 -0.27,-0.945 0.405,-0.945 0.945,0.135 2.566,0.135 3.512,-0.27 0,0 2.836,-1.081 4.187,-4.052 0.405,-0.811 1.08,-2.296 0.54,-3.107 -0.27,-0.405 -1.756,0.676 -3.242,0.946 -1.08,0.135 -2.161,0 -2.836,-0.946 -0.27,-0.54 -1.081,-1.35 -1.621,-2.566 -0.54,-1.486 -0.135,-2.431 -0.135,-2.431 0,0 2.566,-0.27 4.457,-2.026 0.946,-0.946 5.133,-7.294 5.133,-9.455 0,-0.27 -0.405,-0.81 -1.351,-0.405 0,0 -4.592,4.457 -7.969,5.943 -2.836,0.945 -4.727,-1.081 -4.727,-1.081 0,0 2.161,-1.215 4.592,-2.971 1.621,-1.216 2.837,-2.702 2.837,-4.593 0,-0.675 -0.136,-1.215 -1.081,-0.54 0,0 -3.377,2.026 -5.808,2.837 -4.322,1.35 -7.294,1.215 -7.294,1.215 0,0 0.136,-1.35 2.837,-2.701 1.756,-0.811 2.701,-0.675 2.566,-1.621 -0.135,-0.405 -0.54,-0.945 -1.215,-1.216 0,0 -3.242,-1.215 -6.889,2.162 -3.106,3.241 -4.187,5.672 -4.187,5.672 0,0 -2.971,0.27 -6.078,1.351 -4.727,1.756 -6.078,3.107 -6.618,3.512 0,0 -1.756,1.621 -2.702,2.026 -1.621,0.54 -2.836,0.405 -4.592,0.405 -1.351,0 -3.242,0.135 -3.917,0.54 -0.54,0.27 -1.351,0.676 -2.296,2.296 -0.27,0.676 -0.27,1.081 -0.135,1.216 0.54,0.405 1.351,0.81 1.756,1.351 0.405,0.675 0.54,1.891 1.485,3.511 0.811,1.216 2.026,2.972 3.242,3.647 0.946,0.405 2.161,0.405 2.566,0.946 0,0 -2.161,1.485 -4.322,1.08 -1.215,-0.27 -2.971,-1.35 -4.187,-4.592 -0.675,-1.756 -1.756,-2.972 -3.106,-3.377 -1.081,-0.135 -2.837002,-0.135 -4.728002,1.216 -1.35,1.08 -1.891,1.621 -2.431,2.296 -0.54,0.675 -1.351,2.026 -1.081,2.836 0.271,0.541 0.946,1.216 2.162,1.216 0.81,0 1.755,-0.405 2.971,-1.351 0.675,-0.54 1.756002,-0.945 2.431002,-0.945 1.081,0.135 1.756,4.457 5.133,6.348 2.296,1.216 5.402,0.946 5.402,0.946 0,0 0.811,0.405 0.811,1.62 0,0.676 0.27,1.621 0.54,2.026 -0.135,0.946 -0.81,1.756 -2.026,2.567 -0.54,0.405 -0.81,0.945 -0.81,0.945 0,0 0.945,1.216 4.052,0.54 1.756,-0.405 3.782,-1.891 3.782,-1.891 0,0 0.405,0.271 0.135,0.946 -0.135,0.27 -0.135,0.405 0.135,0.675 0.405,0.27 0.81,0.405 1.621,0.405 0.945,0 2.971,-1.08 4.052,-2.026 0.405,-0.27 0.675,0.136 0.135,0.676 0.405,0.27 -1.486,2.161 -4.458,2.836 z M 76.520478,63.957 c 0.675,0.27 0.675,0.405 1.216,0.54 0.675,0.135 0.945,0.135 1.08,0 0.27,-0.81 0.54,-2.431 0,-3.106 -1.08,-1.081 -3.376,-1.351 -3.782,-0.811 -0.135,0.405 0,0.811 0.406,1.216 1.485,0.81 1.08,2.161 1.08,2.161 z m -11.751,11.886 c 1.081,0 1.216,-0.54 1.216,-0.811 0.135,-0.405 0.135,-0.945 0.405,-2.026 0,-0.27 0.405,-1.215 -0.81,-0.81 -2.026,0.675 -3.782,3.917 -3.782,3.917 0,0 -0.541,0.81 0.27,0.81 1.756,-0.405 2.296,-1.215 2.701,-1.08 z m 4.322,10.535 c 0.406,0 0.541,-0.27 0.406,-0.675 -0.136,-0.27 -0.541,-0.676 -1.351,-0.811 -0.811,0 -1.081,0.541 -1.081,0.541 -0.135,0.27 -0.135,0.54 -0.135,0.945 0,0.54 -0.27,0.81 -0.27,1.756 0,0.54 0.54,0.81 0.946,0.27 0.54,-0.675 0.54,-1.621 0.675,-1.891 0.135,-0.135 0.405,-0.135 0.81,-0.135 z m 17.154,-19.315 c -0.135,0.135 0,0.406 0.27,0.946 0.27,0.405 1.216,1.08 1.216,1.08 0.54,-0.135 1.215,-0.675 1.08,-1.485 -0.135,-1.621 -0.405,-2.296 -0.54,-2.702 -0.135,-0.405 -0.675,-1.215 -1.216,-1.08 -0.135,0.135 -0.135,1.08 -0.135,1.08 0,0 0.135,0.676 0,1.216 -0.27,0.405 -0.675,0.945 -0.675,0.945 z m 55.243002,48.355 c 0,0 0.81,3.511 -1.756,8.914 -2.161,4.187 -5.808,6.483 -5.808,6.483 0,0 0.54,2.296 2.431,3.107 2.971,1.08 5.808,6.618 5.808,8.779 -0.135,4.593 -0.54,5.673 -1.891,9.32 -1.486,3.512 -2.296,7.699 -2.296,9.32 0,2.701 2.566,5.807 2.566,8.104 0,3.511 -1.08,4.997 -2.431,9.049 -2.161,5.808 -0.405,8.915 -0.405,8.915 0.405,0.81 0.675,0.54 0.945,0 2.296,-6.078 5.673,-8.24 5.673,-8.24 1.08,-0.81 1.08,0.136 0.81,1.081 -1.215,3.917 -1.62,7.294 -1.62,7.294 l 0.675,-0.135 c 4.322,-4.863 5.132,-6.619 5.673,-8.24 0.81,-3.106 0.81,-6.078 0.81,-6.078 0,0 0.405,-1.755 2.701,-1.485 2.297,0.405 3.782,-0.27 5.673,-1.216 2.296,-1.621 3.917,-3.377 3.917,-3.377 0,0 1.081,-0.945 2.431,0 2.297,2.161 2.297,5.268 1.081,7.699 -1.756,3.242 -3.242,3.782 -4.052,3.782 -1.081,0 -2.161,-1.621 -3.782,-1.621 -2.161,0 -3.106,1.351 -3.106,1.891 0,1.216 0.945,1.216 1.08,2.161 0.405,2.161 1.486,3.917 1.486,3.917 -0.27,0.541 -2.161,1.486 -2.702,2.161 -0.405,0.541 -0.54,1.621 -0.54,1.621 0,0 -0.405,0.676 1.486,1.621 1.486,0.675 1.621,2.161 3.242,3.377 1.215,0.81 2.296,-0.406 2.296,-0.406 1.215,-1.62 1.485,-2.836 1.485,-2.836 0.271,-0.675 1.081,-0.405 1.081,0 0.135,1.081 0.945,1.486 1.351,1.486 1.621,0.135 2.701,-0.811 2.701,-0.811 0,0 1.351,0.135 2.296,-0.54 1.756,-1.08 2.431,-2.296 2.431,-2.296 0,0 0.406,-0.81 -0.27,-2.161 -0.405,-0.54 -1.08,-0.946 -1.08,-0.946 0,0 0.405,-1.35 1.485,-1.35 1.216,0 2.432,-1.216 2.972,-2.431 0.54,-1.486 0.675,-2.837 0.675,-2.837 0.135,-0.405 -0.405,-1.891 0.946,-2.161 1.621,-0.405 2.296,-0.81 2.971,-1.891 0.811,-1.486 0.676,-2.431 0.676,-2.431 -0.135,-0.27 -0.676,-0.405 -0.676,-0.405 -0.405,-0.135 -0.27,-0.406 -0.135,-0.541 1.351,-1.215 3.512,-3.241 3.782,-4.592 0.135,-0.81 0,-1.351 -0.675,-2.026 -2.702,1.486 -4.322,1.216 -4.457,0.811 0,-0.406 1.755,-1.216 1.755,-1.216 2.161,-1.351 3.107,-3.377 3.512,-4.998 0.675,-3.106 0.27,-4.727 0.27,-4.727 h -0.54 c -2.431,4.322 -6.213,5.808 -6.213,5.808 -0.675,0.27 -0.81,-0.54 -0.54,-0.946 1.756,-2.161 2.431,-3.511 2.701,-5.672 0.27,-2.161 0.135,-3.242 -0.54,-4.998 -0.135,-0.405 -0.405,-0.27 -0.541,0 -1.08,2.431 -1.62,2.701 -2.701,4.457 -1.486,2.026 -3.242,2.837 -3.917,2.432 -1.08,-0.946 -0.945,-3.107 -1.756,-4.052 -1.35,-1.216 -3.376,-0.946 -4.997,-0.136 -1.216,0.676 -3.512,2.837 -3.512,2.837 l -0.27,-0.27 c 0.54,-3.647 -0.675,-6.619 -0.675,-6.619 l 0.405,-0.54 c 1.621,-0.135 2.701,0.405 2.701,0.405 2.701,1.081 4.322,1.216 7.834,1.216 4.592,0 10.535,-3.107 13.507,-7.699 4.187,-7.023 2.431,-13.372 1.485,-15.803 -1.215,-2.836 -2.026,-3.782 -2.431,-4.187 -0.54,-0.405 -0.81,-0.135 -0.675,0.405 0.54,1.891 0.81,4.728 0.135,9.32 -0.135,0.945 -0.675,0.81 -1.081,0.27 -0.81,-1.486 -2.296,-3.782 -3.376,-4.862 -1.756,-1.756 -3.377,-2.837 -3.377,-2.837 -0.81,-0.675 -0.54,-1.621 -0.405,-2.701 0.81,-3.512 0.405,-5.403 -0.27,-8.239 -0.811,-2.972 -3.917,-6.348 -5.268,-7.159 -0.54,-0.405 -0.945,0 -0.54,0.541 0.81,0.945 1.486,2.701 1.621,5.943 0,2.161 -0.541,4.052 -0.541,4.052 -1.62,-1.081 -3.917,-4.863 -5.402,-8.375 -1.216,-2.566 -1.756,-6.078 -0.946,-8.779 0.811,-2.296 2.567,-3.917 4.052,-4.862 2.567,-1.756 4.998,-5.133 5.673,-7.834 0.946,-5.133 -1.216,-5.808 -1.216,-5.808 -1.755,5.267 -5.807,7.699 -6.213,7.969 -0.54,0.27 -0.675,0.135 -0.54,-0.406 0.675,-2.701 2.701,-6.078 2.701,-9.319 0,-2.296 -1.62,-4.052 -3.106,-5.943 -1.621,-2.431 -1.621,-5.133 1.08,-8.374 2.026,-2.161 3.917,-3.107 5.133,-3.377 0.945,-0.27 1.621,-0.54 1.351,-1.081 -0.27,-0.675 -0.676,-0.675 -1.621,-0.27 -3.377,1.216 -5.943,2.432 -8.374,3.782 -2.296,1.216 -2.702,1.351 -3.647,2.161 -1.891,2.161 -2.026,3.647 -1.891,7.159 0.27,3.106 1.486,7.429 1.486,7.429 l -0.27,0.54 c 0,0 -2.297,-1.756 -4.593,-2.161 -3.376,-0.405 -3.376,0.675 -3.376,0.675 0,0 5.132,5.133 5.943,8.915 0.54,3.646 0.54,5.943 0.54,11.075 0,8.374 1.08,12.021 4.187,15.398 2.701,2.566 6.348,6.348 6.753,8.779 0.135,0.54 0,0.676 -0.405,0.676 -1.08,0.27 -1.486,0.405 -2.566,0.675 -1.216,0.405 -1.756,0.81 -3.377,0.135 -2.431,-1.081 -3.647,-3.512 -4.052,-4.727 -0.135,-0.811 -0.27,-1.216 -0.27,-1.216 -0.135,-1.081 -1.216,-1.081 -1.216,-0.135 -0.135,2.026 -0.135,2.701 0.406,4.862 1.215,3.782 6.348,5.943 8.914,6.754 3.107,0.81 7.564,1.215 9.32,2.161 2.431,1.756 3.241,4.187 2.431,6.888 -1.216,2.431 -3.107,3.107 -5.538,3.512 -3.512,0.405 -4.862,-0.27 -7.834,-2.161 -5.132,-3.242 -9.725,-7.564 -12.291,-11.481 -2.836,-4.862 -6.618,-8.914 -6.618,-8.914 l -3.647,-4.593 z m 35.928,67.398 c -0.946,0.541 -1.216,2.296 -0.811,2.702 0.811,0.54 1.756,0.27 2.972,-0.27 2.161,-1.081 2.566,-3.107 2.566,-3.107 0.135,-1.216 -1.081,-0.405 -1.621,0.135 -0.945,0.675 -1.756,0.945 -2.296,0.945 -0.54,-0.135 -0.81,-0.405 -0.81,-0.405 z m -7.159,9.455 c -1.756,0.405 -2.431,0.675 -2.161,1.351 0.54,2.026 2.431,2.161 2.971,2.161 1.621,0 3.242,-1.621 3.242,-1.621 1.216,-1.621 -0.27,-1.216 -0.675,-1.081 -1.486,0.541 -1.486,0.406 -1.891,0.406 -0.541,0 -1.486,-1.216 -1.486,-1.216 z m -12.426,1.081 c -0.541,-0.946 -0.811,-1.216 -1.216,-1.486 -1.08,-0.811 -1.486,0 -1.756,0.27 -0.81,1.756 -0.81,2.566 -0.81,3.377 0,1.62 1.35,2.161 1.35,2.161 0.406,0.135 1.351,0.135 1.621,-0.27 0.135,-0.406 -0.405,-0.676 -0.54,-1.216 -0.27,-0.945 0.54,-1.621 0.54,-1.621 0.811,-0.675 0.811,-1.215 0.811,-1.215 z m -2.296,-10.941 c 0.405,0 0.81,-0.405 0.27,-1.216 -0.406,-0.405 -1.081,-0.54 -1.756,-0.27 -1.216,0.27 -1.756,1.081 -2.296,2.026 -0.946,1.621 -0.406,2.026 0,2.432 0.945,0.675 1.485,0.54 1.485,0.54 0,0 -0.405,-1.081 0.271,-1.756 1.215,-0.946 1.485,-1.486 1.485,-1.486 0.135,-0.27 0.541,-0.27 0.541,-0.27 z m -17.424,-32.011 c 0.135,-0.135 3.106,-2.701 2.566,-7.834 -0.945,-5.403 -3.241,-6.618 -3.241,-6.618 0,0 -4.728,4.187 -7.969,3.512 -4.188,-1.081 -6.619,-1.486 -10.671,-1.486 -2.566,0 -4.862,1.756 -6.213,3.241 -2.026,2.702 -2.431,7.564 -2.431,7.564 0,0 0,1.891 -2.566,1.891 -2.026,-0.135 -2.972,0.135 -4.052,0.405 -2.162,0.676 -3.107,2.297 -3.377,3.107 -1.081002,3.377 0.135,4.862 0.135,4.862 0.945,-0.945 1.351,-2.161 2.566,-3.376 1.216,-1.081 2.702,-0.811 3.377,0 1.08,1.35 2.161,2.161 3.106,2.296 1.486,0.135 2.972,-0.54 4.052,0.27 0.271,2.836 1.216,5.133 1.216,5.133 0,0 0,4.052 -3.512,7.563 -2.161,2.026 -3.511,2.567 -5.267,2.567 -1.621,0 -2.296,-2.026 -2.702,-3.107 -0.405,-1.351 -1.215,-2.566 -2.566,-2.296 -1.621002,0.405 -2.836002,1.486 -2.971002,3.106 -2.432,0.676 -3.512,1.216 -3.917,2.162 -0.541,1.215 0.135,1.891 0.135,1.891 0,0 -2.972,2.026 -2.972,3.511 0,2.431 1.216,4.593 2.972,4.593 1.891,0 2.971,-2.026 4.592,-1.891 -1.216,1.08 -1.756,2.296 -1.756,3.241 0,0.811 0.811,1.621 2.972,2.972 1.755002,0.81 4.187002,1.08 5.132002,0.135 0.811,-0.946 0.946,-2.161 1.621,-2.296 0.405,0.81 1.486,1.756 2.026,1.756 2.026,0 2.026,-0.406 4.457,-0.676 1.891,-0.27 3.782,-1.08 3.782,-2.161 0,-1.08 -2.161,-1.891 -2.161,-3.106 0,-0.406 0.81,-1.621 1.486,-2.297 0.675,-0.945 1.35,-0.27 1.35,-0.27 0,0 0.946,4.322 2.837,5.943 2.296,1.756 4.187,1.486 6.078,-0.675 -4.457,-0.405 -2.701,-3.107 -2.701,-3.107 0,0 2.161,1.621 6.888,1.621 2.026,0 3.647,-2.161 3.647,-2.161 v -0.81 c 0,0 -2.296,0.405 -3.377,-1.486 -1.351,-2.026 -1.486,-2.972 -1.486,-2.972 -0.27,-0.405 0.135,-0.54 0.406,-0.54 1.35,-0.135 1.35,0.811 3.646,-0.675 2.026,-1.351 2.297,-3.377 2.297,-3.377 0.135,-0.675 -0.271,-0.945 -0.406,-0.81 -1.215,1.621 -2.296,1.215 -3.241,0.675 -1.486,-1.216 -1.891,-2.701 -1.891,-2.701 0,0 -0.27,-1.081 0.81,-1.486 3.107,-1.216 5.538,-4.862 5.808,-8.374 0,-0.135 -0.405,-0.27 -0.405,-0.27 -0.54,0.675 -2.566,1.891 -4.052,2.026 -1.486,0 -2.296,-0.811 -2.566,-1.621 -0.541,-1.891 0,-2.701 0.675,-3.647 2.296,-2.971 4.862,-3.647 7.834,-3.917 z m -27.284,39.98 c 0,0 2.026,1.351 3.242,1.756 1.08,0.405 1.486,0.135 1.08,-0.675 0,0 -0.675,-1.081 -0.945,-2.297 -0.135,-0.54 -0.27,-0.675 -0.54,-0.81 0,0 -0.676,-0.405 -1.621,0 0,0 -0.54,0.135 -1.216,0.675 -0.54,0.135 -0.54,0.811 0,1.351 z m -14.047002,-0.54 c 0,0.405 0.54,0.945 0.811,1.756 0.27,0.675 1.35,0.945 1.62,0.675 0.135,-0.27 0.676,-1.756 0.541,-3.242 0,0 -0.811,-0.27 -1.216,-0.675 -0.405,-0.405 -0.675,-0.405 -1.216,-0.54 0.136,-0.135 -0.54,0.135 -0.54,2.026 z m -9.455,-8.239 c -0.405,1.35 0.946,2.566 0.946,2.566 0,0 0.135,-0.675 1.08,-1.216 0.811,-0.54 0.946,-1.35 0.946,-1.35 0,0 -0.135,-0.135 -0.135,-0.406 -0.135,-0.675 0.27,-1.485 0,-2.026 -0.27,-0.405 -0.811,-0.27 -0.811,-0.27 0,0 -1.485,1.081 -2.026,2.702 z m 6.484,-13.642 c -1.351,0.54 -2.702,1.351 -2.702,1.621 0,0.405 0.406,0.54 0.406,0.54 0,0 0.54,-0.405 1.89,0 1.351,0.405 1.891,0.135 1.891,0.135 0,0 0.136,-0.54 1.081,-0.945 0.945,-0.406 0.405,-1.486 0.405,-1.486 0,0 -1.486,-0.405 -2.971,0.135 z m -12.291,-46.463 c -0.271,-1.351 -0.406,-2.161 -1.756,-2.161 -2.026,0 -1.081,1.485 -4.187,2.836 -4.323,1.216 -2.972,3.782 -2.972,3.782 0,0 -1.216,-0.27 -2.701,0.54 -1.351,0.811 -2.702,4.457 -0.135,7.564 0.27,0.27 0,0.54 1.35,0.675 0.27,0 0.406,0.27 0.135,0.676 0,0 -2.026,2.431 -0.81,4.592 0.54,0.81 1.891,2.026 7.969,2.431 1.891,0.135 1.891,-1.621 2.431,-1.621 0.946,0 0.676,0.946 2.702,0.946 1.35,0 2.026,-2.431 3.241,-3.242 1.351,-0.81 2.972,-0.54 3.917,-1.891 0.946,-1.486 -0.81,-2.836 -0.81,-2.836 0,0 0.675,-0.54 2.026,-0.135 0,0 3.647,4.322 6.483,4.322 3.917002,0 6.348002,-1.756 6.348002,-1.756 0,0 1.891,-1.081 0.135,-1.351 0,0 -3.106,-0.27 -4.322,-1.756 0,0 -0.945002,-1.215 -0.27,-1.891 0.945,-0.81 1.486,-0.135 1.756,0.136 1.215,1.891 2.296,2.431 3.106,2.836 0.811,0.27 1.486,0.405 3.107,0.405 1.216,0 1.756,-0.675 1.756,-0.81 -1.216,-1.081 -2.566,-4.457 -0.811,-7.159 1.351,-1.891 3.647,-0.54 4.052,0 0.541,0.54 1.081,1.621 2.567,1.351 1.215,-0.27 0.54,-4.727 -0.811,-6.483 0,0 -2.026,-0.541 -5.537,0.81 -2.297,0.946 -5.133,3.917 -6.079,3.782 -1.08,-0.405 -2.026,-3.242 -1.08,-5.403 0.81,-1.621 2.971,-3.917 0.54,-4.862 -3.512002,-1.351 -7.699002,2.026 -9.184002,3.376 -1.756,1.486 -3.377,3.782 -8.104,6.079 0,0 -4.052,1.755 -4.052,0.405 0.27,-1.081 0.135,-2.431 0,-4.187 z m -9.185,-2.161 c -3.647,1.215 -2.701,2.566 -2.701,2.566 0,0 2.431,-0.54 3.511,0.405 0,0 3.377,-0.81 4.323,-2.566 0.135,0 -1.351,-1.486 -5.133,-0.405 z m -7.834,12.021 c -1.08,1.35 -0.675,4.052 -0.54,4.592 0.135,0.54 0.405,1.215 0.945,0.27 0,0 1.351,-2.566 3.377,-3.242 0,0 -0.405,-0.945 -0.54,-2.836 0,-0.135 -1.621,-0.675 -3.242,1.216 z m 10.265,14.182 c 1.891,2.836 4.187,1.756 4.187,1.756 0,0 -1.08,-1.756 -0.81,-3.242 0.135,-0.54 0.54,-0.405 0.54,-0.946 0,0 -2.566,0 -4.592,-0.54 0,-0.135 -0.675,0.54 0.675,2.972 z m 13.642,-6.078 c -1.351,0.135 -2.431,2.026 -2.431,2.026 2.026,3.241 5.402,1.35 5.402,1.35 0,0 0.271,-0.675 -0.135,-0.675 -1.215,-0.27 -1.485,-0.405 -1.62,-0.54 -0.676,-1.621 -1.216,-2.161 -1.216,-2.161 z"
     fill="url(#c)"
     id="path24"
     style="fill:url(#c)" />
  <path
     d="m 130.41248,1.15 c 58.619,0 97.654,22.016 97.654,22.016 l -7.024,108.325 c -3.241,37.413 -12.021,63.616 -27.824,80.77 -26.608,25.933 -62.806,41.601 -62.806,41.601 0,0 -36.198002,-15.668 -62.806002,-41.601 -15.803,-17.154 -24.583,-43.357 -27.824,-80.77 l -7.024,-108.325 c 0,0 39.035,-22.016 97.654002,-22.016 z"
     fill="none"
     stroke="#000000"
     stroke-width="2.3"
     id="path25" />
  <path
     d="m 15.740478,236.303 -7.1589995,-8.779 c 0,0 2.4309995,-0.811 4.9979995,-2.837 3.106,-2.431 5.267,-5.538 4.187,-7.834 0.945,2.026 1.215,3.917 1.215,6.213 0.541,6.889 2.702,11.751 2.702,11.751 -2.297,0.676 -4.323,1.216 -5.943,1.486 z"
     fill="#ffffff"
     stroke="#000000"
     stroke-miterlimit="4"
     stroke-width="1.35"
     id="path26" />
  <path
     d="m 15.740478,236.303 -7.1589995,-8.779 c 0,0 2.4309995,-0.811 4.9979995,-2.837 3.106,-2.431 5.267,-5.538 4.187,-7.834 0.945,2.026 1.215,3.917 1.215,6.213 0.541,6.889 2.702,11.751 2.702,11.751 -2.297,0.676 -4.323,1.216 -5.943,1.486 z"
     fill="#ffffff"
     stroke="#000000"
     stroke-width="1.35"
     id="path27" />
  <path
     d="m 243.05848,216.853 c -0.945,2.026 -1.215,3.917 -1.215,6.213 -0.541,6.889 -2.702,11.751 -2.702,11.751"
     fill="none"
     id="path28" />
  <path
     d="m 239.14148,234.817 c 2.297,0.676 4.187,1.081 5.808,1.351 l 7.159,-8.779 c 0,0 -2.431,-0.811 -4.998,-2.837 -2.836,-2.161 -4.997,-4.862 -4.592,-7.023 -0.675,1.756 -0.945,3.376 -0.81,5.402 -0.27,7.024 -2.567,11.886 -2.567,11.886 z"
     fill="#ffffff"
     id="path29" />
  <path
     d="m 239.14148,234.817 c 2.297,0.676 4.187,1.081 5.808,1.351 l 7.159,-8.779 c 0,0 -2.431,-0.811 -4.998,-2.837 -2.836,-2.161 -4.997,-4.862 -4.592,-7.023 -0.675,1.756 -0.945,3.376 -0.81,5.402 -0.27,7.024 -2.567,11.886 -2.567,11.886 z"
     fill="none"
     stroke="#000000"
     stroke-width="1.35"
     id="path30" />
  <path
     d="m 94.349478,243.462 16.613002,-24.448 c 0,0 -0.54,-0.945 -5.402,-0.945 -16.073002,0 -31.876002,8.239 -44.032002,16.073 -26.744,17.964 -35.928,20.53 -41.871,20.665 -2.702,-0.27 -5.943,-0.27 -8.645,-5.943 -0.945,-1.891 -7.1579995,-13.912 -9.0489995,-17.694 h 0.135 c 1.08,2.026 2.701,4.998 8.9139995,5.538 5.943,-0.135 17.424,-1.486 44.167,-19.449 12.156,-7.699 27.824,-16.074 44.032,-16.074 4.863002,0 6.349002,2.567 6.349002,2.567 l 7.969,14.182 -17.694002,25.933 z"
     fill="#ffffff"
     id="path31" />
  <path
     d="m 95.565478,244.002 17.693002,-25.933 -7.969,-14.182 c 0,0 -1.485,-2.566 -6.348002,-2.566 -16.073,0 -31.876,8.239 -44.032,16.073 -26.743,17.828 -38.224,19.179 -44.167,19.314 -6.2129995,-0.54 -7.6989995,-3.376 -8.9139995,-5.538"
     fill="none"
     stroke="#000000"
     stroke-width="1.35"
     id="path32" />
  <path
     d="m 174.84948,221.716 c 0,0 -1.486,0.945 -0.945,1.621 l 6.618,8.239 c 0,0 1.621,1.756 1.216,4.457 l -4.593,21.07 c 0,0 -0.81,2.837 -3.782,3.917 -7.023,3.242 -24.582,10.13 -42.951,10.13 -18.639,0 -36.333002,-7.158 -43.222002,-10.265 -2.971,-1.62 -3.511,-4.052 -3.511,-4.052 l -4.593,-20.8 c -0.405,-2.701 1.216,-4.457 1.216,-4.457 l 6.618,-8.239 c 0.541,-0.676 -1.08,-1.621 -1.08,-1.621 l 2.026,-0.676 c 0,0 1.891,1.216 0.945,2.837 l -5.673,7.699 c 0,0 -2.026,2.431 -0.135,4.052 0,0 19.180002,17.558 47.409002,17.558 28.229,0 47.409,-17.558 47.409,-17.558 1.891,-1.621 -0.135,-4.052 -0.135,-4.052 l -5.673,-7.699 c -0.946,-1.621 0.945,-2.837 0.945,-2.837 z"
     fill="#ffffff"
     stroke="#000000"
     stroke-miterlimit="4"
     stroke-width="1.35"
     id="path33" />
  <path
     d="m 174.84948,221.716 c 0,0 -1.486,0.945 -0.945,1.621 l 6.618,8.239 c 0,0 1.621,1.756 1.216,4.457 l -4.593,21.07 c 0,0 -0.81,2.837 -3.782,3.917 -7.023,3.242 -24.582,10.13 -42.951,10.13 -18.639,0 -36.333002,-7.158 -43.222002,-10.265 -2.971,-1.62 -3.511,-4.052 -3.511,-4.052 l -4.593,-20.8 c -0.405,-2.701 1.216,-4.457 1.216,-4.457 l 6.618,-8.239 c 0.541,-0.676 -1.08,-1.621 -1.08,-1.621 l 2.026,-0.676 c 0,0 1.891,1.216 0.945,2.837 l -5.673,7.699 c 0,0 -2.026,2.431 -0.135,4.052 0,0 19.180002,17.558 47.409002,17.558 28.229,0 47.409,-17.558 47.409,-17.558 1.891,-1.621 -0.135,-4.052 -0.135,-4.052 l -5.673,-7.699 c -0.946,-1.621 0.945,-2.837 0.945,-2.837 z"
     fill="none"
     id="path34" />
  <g
     clip-path="url(#r)"
     id="g35"
     transform="translate(-149.58752,-63.843)">
    <path
       d="m 239.48,274.888 -10.265,28.094 21.475,7.699 10.13,-27.959 z"
       fill="url(#d)"
       fill-rule="nonzero"
       stroke="#000000"
       stroke-miterlimit="4"
       stroke-width="1.35"
       id="path35"
       style="fill:url(#d)" />
  </g>
  <path
     d="m 87.866478,221.04 c 0,0 1.891,1.216 0.945,2.837 l -5.673,7.699 c 0,0 -2.026,2.431 -0.135,4.052 0,0 4.052,3.782 11.346,7.834 l 16.613002,-24.448 c 0,0 -0.54,-0.945 -5.402,-0.945 -6.078002,0 -12.021002,1.216 -17.694002,2.971 z"
     fill="none"
     stroke="#000000"
     stroke-miterlimit="4"
     stroke-width="1.35"
     id="path36" />
  <path
     d="m 87.866478,221.04 c 0,0 1.891,1.216 0.945,2.837 l -5.673,7.699 c 0,0 -2.026,2.431 -0.135,4.052 0,0 4.052,3.782 11.346,7.834 l 16.613002,-24.448 c 0,0 -0.54,-0.945 -5.402,-0.945 -6.078002,0 -12.021002,1.216 -17.694002,2.971 z"
     fill="none"
     stroke="#000000"
     stroke-miterlimit="4"
     stroke-width="1.35"
     id="path37" />
  <path
     d="m 165.25948,244.002 -17.693,-25.933 7.969,-14.182 c 0,0 1.485,-2.566 6.348,-2.566 16.073,0 31.876,8.239 44.032,16.073 26.743,17.964 38.224,19.179 44.167,19.449 6.213,-0.54 7.699,-3.376 8.914,-5.537 -1.891,3.646 -7.969,15.667 -9.049,17.693 -2.702,5.538 -5.808,5.673 -8.645,5.943 -5.943,-0.135 -15.127,-2.836 -41.87,-20.665 -12.157,-7.699 -27.824,-16.073 -44.033,-16.073 -4.862,0 -5.402,0.945 -5.402,0.945 l 16.613,24.448 z"
     fill="#ffffff"
     id="path38" />
  <g
     fill="none"
     id="g41"
     transform="translate(-149.58752,-63.843)">
    <path
       d="m 314.847,307.845 -17.693,-25.933 7.969,-14.182 c 0,0 1.485,-2.566 6.348,-2.566 16.073,0 31.876,8.239 44.032,16.073 26.743,17.964 38.224,19.179 44.167,19.449 6.213,-0.54 7.699,-3.376 8.914,-5.537"
       stroke="#000000"
       stroke-width="1.35"
       id="path39" />
    <path
       d="m 243.937,307.305 16.613,-24.448 c 0,0 -0.54,-0.945 -5.402,-0.945 -16.073,0 -31.876,8.239 -44.032,16.073 -26.744,17.964 -35.928,20.53 -41.871,20.665 -2.702,-0.27 -5.943,-0.27 -8.645,-5.943 -1.35,-2.161 -9.725,-18.639 -9.725,-18.639 -0.675,-1.621 -1.485,-3.917 1.756,-7.969 5.403,-5.808 13.372,-7.699 14.858,-5.133 1.08,2.297 -1.216,5.268 -4.322,7.699 -2.567,2.026 -4.998,2.837 -4.998,2.837 l 7.294,8.779"
       stroke="#000000"
       stroke-width="1.35"
       id="path40" />
    <path
       d="M 316.063,307.305 299.45,282.857 c 0,0 0.54,-0.945 5.402,-0.945 16.073,0 31.876,8.239 44.032,16.073 26.744,17.964 35.928,20.53 41.871,20.665 2.702,-0.27 5.943,-0.27 8.645,-5.943 1.215,-2.296 9.725,-18.774 9.725,-18.774 0.675,-1.621 1.485,-3.917 -1.756,-7.969 -5.403,-5.808 -13.372,-7.699 -14.858,-5.133 -1.08,2.297 1.216,5.268 4.322,7.699 2.567,2.026 4.998,2.837 4.998,2.837 l -7.159,8.779"
       stroke="#000000"
       stroke-width="1.35"
       id="path41" />
  </g>
  <g
     clip-path="url(#s)"
     id="g42"
     transform="translate(-149.58752,-63.843)">
    <path
       d="m 165.598,277.185 -18.775,10.805 9.725,17.154 18.91,-10.806 z"
       fill="url(#e)"
       fill-rule="nonzero"
       stroke="#000000"
       stroke-miterlimit="4"
       stroke-width="1.35"
       id="path42"
       style="fill:url(#e)" />
  </g>
  <path
     d="m 1.8284785,231.17 -0.541,-0.945 c -0.67500004,-1.621 -1.48500004,-3.917 1.756,-7.969 5.403,-5.808 13.3719995,-7.699 14.8579995,-5.133 1.08,2.297 -1.216,5.268 -4.322,7.699 -2.567,2.026 -4.9979995,2.837 -4.9979995,2.837 l 7.1589995,8.779 c -2.026,0.405 -3.647,0.405 -4.998,0.54 -6.2129995,-0.81 -7.8339995,-3.646 -8.9139995,-5.808 z"
     fill="none"
     stroke="#000000"
     stroke-miterlimit="4"
     stroke-width="1.35"
     id="path43" />
  <path
     d="m 130.27748,268.584 c -16.884,0 -33.227002,-6.078 -40.655002,-9.455 0,0 -0.271,-0.135 -0.271,0.541 0,0.27 0.271,0.405 0.271,0.405 7.698,3.377 23.771002,9.32 40.655002,9.32 16.883,0 33.091,-5.943 40.79,-9.32 0,0 0.27,-0.135 0.27,-0.405 0,-0.676 -0.27,-0.541 -0.27,-0.541 -7.428,3.377 -23.772,9.455 -40.79,9.455 z"
     fill="#bcbec0"
     id="path44" />
  <path
     d="m 105.83048,216.448 h -0.27 c -16.614002,0 -32.822002,8.509 -44.978002,16.343 -26.608,17.829 -35.523,20.26 -40.925,20.395 h -0.541 c 0,0 -1.08,-0.135 -0.405,-0.945 0.27,0 0.675,0.135 1.081,0.135 5.132,-0.27 13.912,-2.566 40.385,-20.26 12.156,-7.699 28.364,-16.343 45.248002,-16.478 0.81,-0.135 0.945,0.81 0.405,0.81 z"
     fill="#bcbec0"
     id="path45" />
  <path
     d="m 154.99448,216.448 h 0.27 c 16.614,0 32.822,8.509 44.978,16.343 26.608,17.829 35.523,20.26 40.925,20.395 h 0.541 c 0,0 1.08,-0.135 0.405,-0.945 -0.27,0 -0.675,0.135 -1.081,0.135 -5.132,-0.27 -13.912,-2.566 -40.385,-20.26 -12.156,-7.699 -28.364,-16.343 -45.248,-16.478 -0.945,-0.135 -0.945,0.81 -0.405,0.81 z"
     fill="#bcbec0"
     id="path46" />
  <g
     fill="#e11b22"
     stroke="#942923"
     stroke-width="0.68"
     id="g75"
     transform="translate(-149.58752,-63.843)">
    <path
       d="m 199.5,96.464 c 0.27,0.405 0.81,0.811 1.485,1.621 0.676,0.675 1.351,1.486 2.162,2.161 0.675,0.675 1.485,1.486 2.296,2.296 0.675,0.676 1.08,0.946 1.215,1.081 0.27,-4.052 0.406,-7.294 0.406,-9.725 1.35,-0.54 2.701,-0.946 3.916,-1.486 0.136,0 0.136,-0.135 0.271,-0.135 0.27,-0.135 0.405,0 0.405,0.135 0,0.135 0,0.27 -0.135,0.405 -0.676,0.271 -1.081,0.676 -1.081,1.216 0,0.54 0.27,1.756 0.946,3.647 l 1.621,4.727 c 0.27,0.946 0.675,1.621 1.08,1.891 0.405,0.27 0.81,0.405 1.351,0.27 0.27,-0.135 0.405,0 0.54,0.135 0,0.135 0,0.135 -0.135,0.27 l -2.431,0.811 c -0.811,0.27 -1.756,0.675 -3.107,1.215 -0.135,0 -0.27,-0.135 -0.27,-0.27 0,-0.135 0.135,-0.27 0.405,-0.405 0.27,-0.135 0.54,-0.27 0.54,-0.54 0.136,-0.135 0.136,-0.405 0.136,-0.675 0,-0.271 -0.136,-0.811 -0.271,-1.351 l -1.485,-4.322 c -0.811,-2.161 -1.216,-3.377 -1.351,-3.782 -0.27,4.592 -0.27,7.429 -0.405,8.644 v 2.837 c 0,0.27 0,0.54 -0.135,0.54 -0.135,0 -0.27,-0.135 -0.541,-0.405 -0.81,-0.811 -3.376,-3.512 -7.969,-8.104 0.541,1.62 1.216,3.646 2.162,6.348 0.54,1.35 0.81,2.296 1.08,2.566 0.27,0.27 0.811,0.405 1.486,0.27 0.27,0 0.405,0 0.405,0.135 0,0.135 0,0.27 -0.135,0.405 h -0.27 c -0.675,0.135 -1.216,0.406 -1.486,0.406 -0.81,0.27 -1.486,0.54 -1.891,0.81 -0.135,0 -0.135,0.135 -0.135,0.135 -0.27,0.135 -0.405,0 -0.405,-0.135 v -0.27 c 0,0 0.135,-0.135 0.405,-0.27 0.54,-0.27 0.81,-0.676 0.946,-1.081 0,-0.405 0,-0.945 -0.271,-1.621 l -1.891,-5.402 c -0.405,-1.216 -0.675,-2.026 -0.945,-2.432 -0.135,-0.405 -0.405,-0.675 -0.81,-0.81 -0.271,-0.135 -0.676,-0.135 -1.351,-0.135 -0.27,0 -0.405,0 -0.405,-0.27 0,-0.135 0,-0.27 0.27,-0.405 h 0.135 c 0.54,0.135 1.891,-0.27 3.647,-0.946 z"
       id="path47" />
    <path
       d="m 213.547,91.737 c 0.27,0 0.675,-0.135 1.35,-0.27 0.541,-0.135 0.946,-0.27 1.216,-0.27 l 2.701,-0.811 c 0.271,0 0.406,0 0.406,0.135 0,0.135 0,0.27 -0.271,0.405 -0.405,0.135 -0.81,0.406 -0.81,0.541 -0.135,0.135 -0.135,0.54 -0.135,1.08 0,0.541 0.405,1.621 0.81,3.512 0.541,2.026 1.081,3.647 1.486,4.727 0.405,1.081 0.675,1.756 0.946,1.891 0.27,0.27 0.54,0.27 1.08,0.135 0.27,-0.135 0.405,0 0.54,0.135 0,0.271 0,0.406 -0.405,0.541 -0.135,0 -0.27,0 -0.405,0.135 -1.216,0.27 -1.891,0.405 -2.296,0.54 -0.946,0.27 -1.621,0.54 -2.026,0.675 -0.27,0.135 -0.405,0.135 -0.54,0.135 -0.271,0 -0.406,0 -0.406,-0.135 0,-0.135 0,-0.27 0.271,-0.405 0.54,-0.27 0.81,-0.405 0.945,-0.81 0.135,-0.27 0,-0.946 -0.135,-1.756 -0.27,-0.946 -0.54,-2.296 -1.081,-4.187 -0.54,-2.026 -0.945,-3.377 -1.215,-3.917 -0.27,-0.675 -0.54,-1.081 -0.676,-1.216 -0.135,-0.135 -0.54,-0.135 -0.945,0 -0.27,0 -0.405,0 -0.405,-0.135 -0.27,-0.405 -0.135,-0.54 0,-0.675 z"
       id="path48" />
    <path
       d="m 230.565,101.327 c -0.27,0 -1.35,0.27 -3.241,0.675 l -2.026,0.405 -1.216,0.27 c -0.27,0 -0.405,0.135 -0.54,0 -0.135,0 -0.135,-0.135 -0.135,-0.27 0,-0.135 0,-0.27 0.27,-0.405 0.54,-0.135 0.81,-0.27 1.08,-0.54 0.135,-0.27 0.271,-0.541 0.271,-1.081 0,-0.54 -0.271,-1.486 -0.541,-2.971 -0.27,-1.486 -0.54,-2.837 -0.81,-4.052 -0.405,-1.756 -0.675,-2.837 -0.946,-3.107 -0.27,-0.405 -0.675,-0.54 -1.35,-0.405 -0.27,0 -0.406,0 -0.406,-0.27 0,-0.135 0,-0.27 0.271,-0.27 0.135,0 0.54,-0.135 1.215,-0.135 0.811,-0.136 1.216,-0.136 1.621,-0.271 l 3.377,-0.81 c 1.215,-0.27 2.296,-0.27 3.511,0 1.216,0.27 2.162,0.81 3.107,1.756 0.946,0.945 1.486,2.026 1.756,3.377 0.27,0.945 0.27,2.026 0.135,2.971 -0.135,0.946 -0.54,1.756 -1.081,2.566 -0.54,0.811 -1.215,1.351 -1.755,1.621 -0.811,0.54 -1.621,0.811 -2.567,0.946 z m -0.81,-0.541 c 1.215,-0.27 2.161,-0.945 2.701,-2.161 0.54,-1.08 0.54,-2.566 0.135,-4.322 -0.405,-1.756 -1.215,-3.242 -2.296,-4.187 -1.08,-0.945 -2.296,-1.351 -3.782,-0.945 -0.54,0.135 -0.81,0.27 -0.945,0.27 -0.135,0.135 -0.135,0.135 -0.135,0.27 0,0.135 0.135,0.81 0.405,2.161 l 0.675,3.377 c 0.135,0.81 0.405,1.891 0.676,3.106 0.27,0.946 0.405,1.486 0.54,1.891 0.135,0.27 0.405,0.54 0.675,0.675 0.405,0 0.811,0 1.351,-0.135 z"
       id="path49" />
    <path
       d="m 243.937,98.76 c -0.27,0 -1.351,0.135 -3.377,0.406 l -2.026,0.27 -1.215,0.135 h -0.541 c -0.135,0 -0.135,-0.135 -0.135,-0.27 0,-0.135 0.135,-0.271 0.406,-0.406 0.54,-0.135 0.81,-0.27 1.08,-0.405 0.27,-0.27 0.27,-0.54 0.27,-1.08 0,-0.541 -0.135,-1.486 -0.27,-2.972 -0.135,-1.486 -0.405,-2.836 -0.54,-4.052 -0.27,-1.756 -0.54,-2.836 -0.811,-3.241 -0.27,-0.406 -0.675,-0.541 -1.215,-0.406 -0.27,0 -0.405,0 -0.405,-0.27 0,-0.135 0,-0.27 0.27,-0.27 0.135,0 0.54,0 1.215,-0.135 0.811,0 1.351,-0.135 1.621,-0.135 l 3.512,-0.675 c 1.215,-0.135 2.296,-0.135 3.512,0.135 1.215,0.27 2.161,0.945 2.971,1.891 0.811,0.945 1.351,2.161 1.486,3.511 0.135,1.081 0.135,2.026 -0.135,2.972 -0.27,0.945 -0.676,1.756 -1.216,2.431 -0.675,0.675 -1.215,1.216 -1.891,1.486 -0.81,0.675 -1.621,0.945 -2.566,1.08 z m -0.675,-0.54 c 1.35,-0.27 2.296,-0.81 2.836,-1.891 0.54,-1.08 0.81,-2.566 0.405,-4.322 -0.27,-1.891 -0.945,-3.242 -1.891,-4.322 -0.945,-1.081 -2.296,-1.486 -3.782,-1.216 -0.54,0.135 -0.81,0.135 -0.945,0.27 -0.135,0.135 -0.135,0.135 -0.135,0.27 0,0.136 0,0.811 0.27,2.297 l 0.405,3.376 c 0.135,0.811 0.27,1.891 0.405,3.107 0.135,0.945 0.271,1.486 0.406,1.891 0.135,0.27 0.27,0.54 0.675,0.675 0.27,-0.135 0.81,-0.135 1.351,-0.135 z"
       id="path50" />
    <path
       d="m 261.091,96.599 c -1.621,0.135 -3.917,0.27 -7.294,0.676 -1.081,0.135 -2.026,0.27 -2.837,0.405 h -0.405 c -0.27,0 -0.405,0 -0.405,-0.27 0,-0.135 0,-0.135 0.135,-0.135 0,0 0.27,-0.135 0.405,-0.135 0.406,-0.136 0.676,-0.271 0.811,-0.406 0.135,-0.27 0.27,-0.54 0.405,-0.81 0,-0.405 0,-1.351 -0.135,-2.836 -0.135,-1.486 -0.27,-3.242 -0.54,-5.268 -0.135,-0.811 -0.271,-1.351 -0.406,-1.756 -0.135,-0.405 -0.405,-0.675 -0.54,-0.81 -0.27,-0.135 -0.54,-0.271 -0.945,-0.135 -0.27,0 -0.406,-0.136 -0.406,-0.271 0,-0.135 0.136,-0.27 0.406,-0.405 l 3.106,-0.27 c 0.54,0 1.081,-0.135 2.026,-0.27 0.27,0 0.541,-0.135 0.676,-0.135 0.27,0 0.405,0 0.405,0.27 0,0.135 0,0.135 -0.135,0.27 -0.135,0 -0.27,0.135 -0.676,0.27 -0.405,0.135 -0.675,0.27 -0.81,0.405 -0.135,0.136 -0.27,0.541 -0.27,0.946 0,0.405 0,1.351 0.27,2.836 l 0.675,6.078 c 0.135,0.946 0.27,1.486 0.406,1.621 0.135,0.135 0.405,0.27 0.81,0.135 1.08,-0.135 1.756,-0.27 2.296,-0.54 0.54,-0.27 0.946,-0.54 1.351,-1.081 0.405,-0.54 0.81,-1.35 1.215,-2.431 0.135,-0.27 0.135,-0.405 0.27,-0.405 0.136,0 0.271,0.135 0.271,0.27 0.135,0.27 0.135,1.756 -0.135,4.187 z"
       id="path51" />
    <path
       d="m 271.761,82.552 c 0.27,1.081 0.54,2.026 0.81,3.107 0,0.135 -0.135,0.27 -0.27,0.27 -0.135,0 -0.27,-0.135 -0.405,-0.27 -0.675,-0.946 -1.351,-1.621 -1.891,-1.891 -0.54,-0.27 -1.351,-0.405 -2.296,-0.405 -0.54,0 -1.081,0.135 -1.621,0.27 v 3.917 c 0,0.27 0,0.675 0.135,1.215 h 0.675 c 0.406,0 0.811,-0.135 1.081,-0.27 0.27,-0.135 0.54,-0.405 0.81,-0.81 0.135,-0.405 0.271,-0.676 0.406,-0.811 0,-0.27 0.135,-0.27 0.27,-0.27 0.135,0 0.27,0 0.27,0.27 v 0.135 c 0,0.406 0,1.621 0.135,3.782 0,0.27 0,0.541 0.135,0.811 v 0.135 c 0,0.135 -0.135,0.27 -0.27,0.27 -0.135,0 -0.27,-0.135 -0.405,-0.54 -0.135,-0.676 -0.406,-1.081 -0.946,-1.351 -0.405,-0.27 -1.215,-0.405 -2.161,-0.405 0,1.08 0,1.891 0.135,2.161 0.135,1.486 0.135,2.431 0.27,2.701 0,0.27 0.27,0.541 0.541,0.676 0.27,0.135 0.81,0.27 1.35,0.135 2.431,-0.135 3.917,-1.081 4.593,-2.702 0.135,-0.27 0.27,-0.405 0.27,-0.405 0.135,0 0.27,0 0.27,0.27 v 0.405 l -0.405,2.972 -3.512,0.135 c -0.946,0 -1.891,0 -2.701,0.135 h -1.891 c -0.541,0 -1.351,0.135 -2.297,0.27 h -0.27 c -0.27,0 -0.405,-0.135 -0.405,-0.27 0,-0.135 0.135,-0.27 0.405,-0.27 0.541,0 0.946,-0.27 1.216,-0.54 0.135,-0.406 0.27,-1.081 0.27,-2.161 l -0.27,-5.133 c -0.135,-1.756 -0.135,-2.836 -0.27,-3.242 0,-0.405 -0.135,-0.675 -0.405,-0.81 -0.136,-0.135 -0.541,-0.27 -0.946,-0.27 -0.135,0 -0.27,-0.135 -0.27,-0.27 0,-0.135 0.135,-0.27 0.27,-0.27 h 2.296 z"
       id="path52" />
    <path
       d="m 281.486,82.822 c 0.135,-0.135 0.135,-0.27 0.27,-0.405 0.135,-0.27 0.135,-0.27 0.27,-0.27 0.135,0 0.27,0.135 0.27,0.405 l 0.27,2.702 v 0.27 c 0,0.135 -0.135,0.27 -0.27,0.27 -0.135,0 -0.27,0 -0.27,-0.135 0,0 -0.135,-0.27 -0.27,-0.676 -0.27,-0.54 -0.675,-1.08 -1.351,-1.62 -0.675,-0.541 -1.215,-0.676 -1.891,-0.676 -0.54,0 -1.08,0.135 -1.485,0.541 -0.406,0.405 -0.541,0.81 -0.541,1.35 0,0.405 0.135,0.811 0.541,1.216 0.405,0.405 1.08,0.675 2.161,1.08 1.62,0.541 2.836,1.081 3.376,1.891 0.541,0.811 0.946,1.621 0.946,2.567 0,0.945 -0.27,1.756 -0.676,2.296 -0.405,0.675 -0.945,1.08 -1.485,1.486 -0.541,0.405 -1.351,0.54 -2.296,0.54 -0.541,0 -1.081,-0.135 -1.621,-0.27 -0.541,-0.135 -1.216,-0.406 -1.756,-0.811 -0.135,0.135 -0.27,0.405 -0.27,0.541 -0.135,0.27 -0.27,0.405 -0.405,0.405 -0.136,0 -0.271,-0.135 -0.271,-0.541 l -0.27,-3.646 v -0.271 c 0,-0.135 0.135,-0.27 0.27,-0.27 0.135,0 0.271,0.135 0.406,0.541 0.405,0.945 0.945,1.891 1.485,2.566 0.676,0.675 1.351,0.945 2.296,0.945 0.676,0 1.351,-0.27 1.756,-0.675 0.406,-0.405 0.676,-0.945 0.676,-1.621 0,-0.54 -0.27,-1.08 -0.676,-1.486 -0.405,-0.405 -1.215,-0.81 -2.296,-1.215 -1.08,-0.405 -1.891,-0.675 -2.296,-1.081 -0.54,-0.27 -0.945,-0.81 -1.216,-1.35 -0.27,-0.541 -0.405,-1.216 -0.405,-1.756 0,-1.081 0.405,-1.891 1.081,-2.702 0.81,-0.675 1.756,-1.08 3.106,-1.08 0.811,0.27 1.621,0.54 2.837,0.945 z"
       id="path53" />
    <path
       d="m 291.481,88.765 c 1.215,0.406 2.296,0.811 2.836,1.486 0.675,0.675 0.946,1.351 0.946,2.296 0,0.811 -0.271,1.486 -0.811,2.026 -0.54,0.541 -1.08,0.946 -1.756,1.216 -0.675,0.135 -1.62,0.27 -2.971,0.27 -0.27,0 -0.811,0 -1.486,-0.135 -0.54,0 -0.945,-0.135 -1.351,-0.135 h -2.431 c -0.27,0 -0.405,-0.135 -0.405,-0.27 0,-0.135 0.135,-0.27 0.27,-0.27 0.405,0 0.675,-0.135 0.811,-0.135 0.135,-0.136 0.27,-0.271 0.405,-0.406 0.135,-0.27 0.135,-0.54 0.27,-1.08 l 0.27,-4.728 c 0,-1.485 0.135,-2.566 0.135,-3.511 0,-0.946 0,-1.486 -0.135,-1.756 0,-0.27 -0.135,-0.405 -0.27,-0.54 -0.135,-0.136 -0.405,-0.136 -0.675,-0.271 -0.271,0 -0.406,0 -0.541,-0.135 0,0 -0.135,-0.135 -0.135,-0.27 0,-0.135 0.135,-0.27 0.27,-0.27 h 6.213 c 1.081,0 2.026,0.405 2.702,0.946 0.675,0.54 0.945,1.35 0.945,2.161 0.27,1.755 -0.945,2.836 -3.106,3.511 z m -2.567,-0.27 c 2.162,0.135 3.242,-0.945 3.377,-2.836 0,-0.811 -0.135,-1.486 -0.54,-2.026 -0.405,-0.405 -0.811,-0.676 -1.351,-0.676 -0.405,0 -0.81,0 -1.35,0.271 -0.136,0.675 -0.136,1.35 -0.136,2.161 z m 0,0.676 c -0.135,1.35 -0.135,2.566 -0.135,3.511 v 2.161 c 0.135,0.135 0.406,0.271 0.946,0.271 0.945,0 1.621,-0.271 2.026,-0.676 0.405,-0.54 0.675,-1.215 0.81,-2.161 0,-0.945 -0.135,-1.621 -0.675,-2.296 -0.405,-0.54 -1.081,-0.946 -2.026,-0.946 -0.405,0.136 -0.675,0.136 -0.946,0.136 z"
       id="path54" />
    <path
       d="m 303.637,90.116 c 0.81,0.27 1.486,0.54 2.026,1.081 0.54,0.405 0.81,1.35 0.945,2.566 0.135,1.215 0.27,2.026 0.541,2.431 0.27,0.405 0.675,0.675 1.215,0.675 0.27,0 0.405,0.135 0.405,0.406 0,0.135 -0.27,0.27 -0.675,0.27 l -3.512,-0.405 c -0.27,-0.406 -0.54,-1.216 -0.54,-2.162 0,-1.35 -0.135,-2.296 -0.27,-2.836 -0.135,-0.54 -0.405,-0.945 -0.675,-1.216 -0.406,-0.27 -0.811,-0.405 -1.216,-0.54 h -0.54 c -0.27,2.296 -0.406,3.782 -0.406,4.322 0,0.541 0,0.946 0.136,1.216 0.135,0.27 0.54,0.405 1.08,0.54 0.27,0 0.405,0.135 0.405,0.405 0,0.135 -0.135,0.271 -0.405,0.271 l -2.836,-0.406 c -0.406,0 -0.946,-0.135 -1.486,-0.135 h -1.081 c -0.27,0 -0.405,-0.135 -0.405,-0.27 0,-0.135 0.135,-0.27 0.405,-0.27 0.406,0 0.676,0 0.946,-0.135 0.27,-0.135 0.54,-0.946 0.675,-2.296 l 0.135,-1.891 0.405,-3.647 c 0.136,-1.891 0.271,-2.971 0.136,-3.377 -0.136,-0.405 -0.541,-0.675 -1.216,-0.81 -0.27,0 -0.405,-0.135 -0.405,-0.27 0,-0.135 0.27,-0.27 0.54,-0.27 1.756,0.135 3.242,0.27 4.457,0.405 0.54,0 1.081,0 1.486,0.135 1.351,0.135 2.431,0.54 3.242,1.216 0.675,0.675 1.08,1.485 0.945,2.431 -0.135,0.675 -0.27,1.215 -0.81,1.756 -0.406,0.54 -0.946,0.81 -1.486,0.945 -0.811,-0.135 -1.486,-0.135 -2.161,-0.135 z m -2.566,-0.675 h 0.405 c 0.54,0 1.08,0 1.621,-0.135 0.54,-0.135 0.945,-0.406 1.215,-0.946 0.27,-0.405 0.405,-0.945 0.54,-1.486 0.135,-0.81 -0.135,-1.485 -0.54,-2.026 -0.405,-0.54 -0.945,-0.81 -1.756,-0.945 -0.27,0 -0.675,0 -1.08,0.135 z"
       id="path55" />
    <path
       d="m 316.873,85.119 c 1.216,0.135 2.297,0.675 3.107,1.35 0.81,0.676 1.486,1.621 1.891,2.702 0.405,1.08 0.54,2.296 0.27,3.511 -0.27,1.891 -1.216,3.377 -2.701,4.593 -1.486,1.215 -3.242,1.755 -5.133,1.35 -1.756,-0.27 -3.106,-1.08 -4.187,-2.431 -1.08,-1.351 -1.351,-3.106 -1.08,-5.133 0.27,-1.89 1.215,-3.376 2.701,-4.592 1.621,-1.215 3.241,-1.756 5.132,-1.35 z m 2.162,7.158 c 0.27,-2.026 0.27,-3.512 -0.271,-4.727 -0.54,-1.081 -1.215,-1.756 -2.161,-1.891 -0.945,-0.135 -1.891,0.27 -2.701,1.215 -0.81,0.946 -1.351,2.432 -1.621,4.323 -0.27,1.891 -0.27,3.511 0.135,4.592 0.405,1.215 1.216,1.756 2.161,2.026 0.946,0.135 1.756,-0.27 2.567,-1.081 0.945,-0.81 1.62,-2.296 1.891,-4.457 z"
       id="path56" />
    <path
       d="m 324.032,86.334 2.972,0.675 c 0.27,0 0.54,0.136 0.945,0.136 0.54,0.135 1.081,0.135 1.351,0.27 0.27,0 0.405,0.135 0.405,0.405 0,0.135 -0.135,0.27 -0.405,0.27 -0.406,0 -0.811,0 -1.081,0.27 -0.27,0.27 -0.54,0.811 -0.81,1.891 -0.27,0.946 -0.541,2.026 -0.811,3.107 -0.405,1.891 -0.54,3.106 -0.54,3.782 0,0.675 0.27,1.215 0.675,1.755 0.406,0.541 1.081,0.811 2.026,1.081 0.946,0.135 1.621,0.135 2.161,-0.135 0.541,-0.27 0.946,-0.946 1.351,-1.756 0.405,-0.81 0.811,-2.431 1.351,-4.862 0.27,-1.486 0.405,-2.432 0.27,-2.972 -0.135,-0.54 -0.405,-0.945 -0.81,-1.08 -0.406,-0.136 -0.541,-0.271 -0.406,-0.406 0,-0.135 0.27,-0.27 0.541,-0.135 0.135,0 0.405,0.135 0.675,0.27 0.27,0.135 0.675,0.135 1.08,0.271 0.406,0.135 0.676,0.135 1.216,0.135 0.27,0 0.54,0.135 0.675,0.135 0.271,0 0.406,0.135 0.406,0.405 0,0.135 -0.135,0.27 -0.406,0.135 -0.27,0 -0.675,0 -0.945,0.27 -0.27,0.27 -0.54,0.675 -0.81,1.216 -0.136,0.675 -0.541,2.161 -1.081,4.862 -0.405,1.756 -0.81,2.972 -1.216,3.647 -0.54,0.675 -1.215,1.216 -2.026,1.486 -0.81,0.27 -1.891,0.27 -3.106,0 -0.946,-0.135 -1.621,-0.406 -2.296,-0.811 -0.676,-0.27 -1.081,-0.675 -1.486,-1.08 -0.27,-0.405 -0.54,-0.946 -0.54,-1.486 -0.135,-0.54 0,-1.216 0.135,-2.161 l 1.215,-5.268 c 0.135,-0.675 0.27,-1.35 0.27,-1.891 0,-0.54 0,-0.81 -0.135,-0.945 -0.135,-0.135 -0.405,-0.405 -0.675,-0.405 -0.27,-0.135 -0.27,-0.135 -0.405,-0.135 v -0.271 c -0.135,-0.675 0,-0.81 0.27,-0.675 z"
       id="path57" />
    <path
       d="m 349.425,93.763 -0.541,2.836 c 0,0.135 0,0.27 -0.135,0.27 0,0.135 -0.135,0.271 -0.27,0.271 -0.135,0 -0.27,-0.136 -0.27,-0.406 -0.135,-1.215 -0.54,-2.161 -1.08,-3.106 -0.541,-0.811 -1.351,-1.486 -2.297,-1.756 -1.215,-0.405 -2.431,-0.135 -3.511,0.81 -1.081,0.946 -1.756,2.161 -2.296,3.782 -0.541,1.756 -0.541,3.242 0,4.592 0.54,1.351 1.215,2.162 2.296,2.432 0.405,0.135 0.945,0.135 1.485,0 0.541,-0.135 0.946,-0.27 1.081,-0.405 0.27,-0.271 0.405,-0.541 0.54,-1.081 0.27,-1.081 0.405,-1.756 0.405,-2.026 0,-0.27 -0.135,-0.54 -0.27,-0.675 -0.135,-0.135 -0.54,-0.406 -1.08,-0.541 -0.27,-0.135 -0.27,-0.27 -0.27,-0.405 0,-0.135 0.135,-0.27 0.405,-0.135 l 1.35,0.405 4.188,1.081 c 0.135,0 0.27,0.135 0.27,0.27 0,0.135 -0.135,0.135 -0.135,0.135 h -0.811 c -0.405,0 -0.54,0 -0.675,0.135 -0.135,0.135 -0.54,1.081 -1.081,2.837 -0.135,0.405 -0.27,0.675 -0.27,0.675 0,0 -0.405,0.135 -1.215,0.405 -0.811,0.135 -1.621,0.27 -2.432,0.27 -0.81,0 -1.485,-0.135 -2.296,-0.405 -1.215,-0.405 -2.296,-0.945 -3.106,-1.756 -0.811,-0.81 -1.351,-1.756 -1.756,-2.836 -0.27,-1.081 -0.27,-2.296 0.135,-3.647 0.54,-1.891 1.621,-3.242 3.106,-4.322 1.621,-0.946 3.377,-1.216 5.538,-0.676 0.676,0.27 1.351,0.541 1.891,0.811 0.54,0.405 1.081,0.81 1.756,1.35 0.135,0.136 0.27,0.136 0.405,0.271 0.135,0 0.27,0 0.405,-0.135 0.136,-0.271 0.271,-0.271 0.406,-0.271 0.135,0.271 0.135,0.541 0.135,0.946 z"
       id="path58" />
    <path
       d="m 358.879,102.407 1.081,-2.836 c 0.27,-0.811 0.405,-1.351 0.405,-1.756 0,-0.405 -0.27,-0.675 -0.81,-0.946 -0.405,-0.135 -0.54,-0.27 -0.54,-0.54 0.135,-0.135 0.27,-0.27 0.405,-0.135 0.27,0.135 0.675,0.27 1.215,0.54 0.676,0.27 1.081,0.406 1.216,0.541 0.945,0.405 1.891,0.675 2.701,0.81 0.135,0 0.27,0.135 0.27,0.135 0.271,0.135 0.271,0.27 0.271,0.405 -0.136,0.135 -0.271,0.27 -0.541,0.135 -0.405,-0.135 -0.675,-0.135 -0.945,-0.135 -0.27,0 -0.405,0.135 -0.54,0.405 -0.136,0.271 -0.541,1.081 -1.081,2.432 -0.54,1.35 -0.945,2.431 -1.081,2.971 -0.81,2.161 -1.35,3.647 -1.485,4.052 -0.135,0.54 -0.135,0.946 0,1.216 0.135,0.27 0.405,0.54 0.81,0.675 0.27,0.135 0.405,0.27 0.27,0.405 0,0.135 -0.135,0.27 -0.405,0.135 -0.135,0 -0.27,-0.135 -0.405,-0.135 l -2.431,-0.945 c -0.135,0 -0.406,-0.135 -0.811,-0.27 -0.81,-0.27 -1.35,-0.405 -1.621,-0.541 -0.27,-0.135 -0.27,-0.27 -0.27,-0.405 0,-0.135 0.135,-0.27 0.405,-0.135 0.406,0.135 0.811,0.135 0.946,0.135 0.27,-0.135 0.54,-0.405 0.81,-0.945 0.27,-0.54 0.811,-1.621 1.351,-3.377 0,-0.135 0.135,-0.405 0.27,-0.81 -1.08,-0.405 -1.891,-0.811 -2.701,-1.081 -0.946,-0.27 -1.621,-0.54 -2.161,-0.675 -0.541,1.215 -0.946,2.431 -1.351,3.377 -0.27,0.675 -0.405,1.215 -0.27,1.62 0,0.406 0.27,0.541 0.81,0.811 0.27,0.135 0.27,0.27 0.27,0.405 0,0.135 -0.27,0.27 -0.405,0.135 -0.135,0 -0.27,-0.135 -0.405,-0.135 -0.675,-0.27 -1.351,-0.675 -2.161,-0.946 -0.405,-0.135 -0.81,-0.27 -1.486,-0.405 -0.405,-0.135 -0.675,-0.27 -0.81,-0.27 -0.27,-0.135 -0.405,-0.27 -0.405,-0.405 0,-0.135 0.27,-0.135 0.405,-0.135 0.405,0.135 0.81,0.135 1.08,0 0.271,-0.135 0.406,-0.405 0.676,-0.811 0.27,-0.405 0.81,-1.62 1.485,-3.646 0.811,-2.026 1.216,-3.242 1.216,-3.377 0.405,-0.946 0.54,-1.621 0.675,-2.026 0.135,-0.405 0.135,-0.81 0,-0.946 -0.135,-0.135 -0.27,-0.405 -0.54,-0.54 -0.27,-0.135 -0.405,-0.27 -0.405,-0.27 v -0.27 c 0.135,-0.135 0.27,-0.27 0.405,-0.135 0.27,0.135 0.675,0.27 1.216,0.54 0.27,0.135 0.675,0.27 1.08,0.405 l 2.567,0.811 c 0.27,0.135 0.405,0.27 0.27,0.405 -0.135,0.135 -0.27,0.27 -0.406,0.135 -0.405,-0.135 -0.675,-0.135 -0.81,-0.135 -0.135,0 -0.405,0.27 -0.54,0.54 -0.135,0.27 -0.405,0.811 -0.676,1.621 l -0.945,2.701 c 0.675,0.406 1.486,0.676 2.296,0.946 0.946,0.27 1.756,0.54 2.566,0.675 z"
       id="path59" />
    <path
       d="m 263.252,317.705 v 8.374 c 0,1.216 0.135,1.891 0.27,2.296 0.135,0.405 0.54,0.54 1.08,0.675 0.406,0.136 0.676,0.136 0.676,0.271 0.135,0 0.135,0.135 0.135,0.27 0,0.135 -0.135,0.27 -0.405,0.27 h -0.271 c -1.215,-0.27 -2.161,-0.54 -2.701,-0.675 -0.675,-0.136 -1.486,-0.271 -2.701,-0.406 -0.406,0 -0.676,-0.135 -0.811,-0.135 -0.27,0 -0.405,-0.135 -0.405,-0.405 0,-0.135 0,-0.135 0.135,-0.27 h 0.675 c 0.541,0 0.811,0 1.081,-0.135 0.27,-0.135 0.405,-0.27 0.405,-0.54 0,-0.135 0.135,-0.676 0.135,-1.351 v -4.998 c 0,-0.81 0,-1.485 -0.135,-1.755 -0.135,-0.406 -0.27,-0.676 -0.54,-0.811 -0.27,-0.135 -0.54,-0.405 -1.081,-0.54 -0.405,-0.135 -0.675,-0.27 -0.675,-0.27 -0.135,0 -0.135,-0.135 -0.135,-0.27 0,-0.135 0,-0.271 0.135,-0.271 h 0.675 c 1.486,0.136 2.702,0.136 3.917,-0.135 h 0.27 c 0.136,0.135 0.271,0.271 0.271,0.811 z"
       id="path60" />
    <path
       d="m 276.353,324.458 c 0.811,0.405 1.486,0.946 2.026,1.486 0.405,0.54 0.676,1.216 0.676,1.891 0,1.08 -0.541,1.891 -1.486,2.431 -0.946,0.675 -2.161,0.946 -3.647,0.811 -1.351,-0.136 -2.431,-0.541 -3.242,-1.081 -0.81,-0.675 -1.35,-1.351 -1.35,-2.026 0,-0.54 0.27,-0.946 0.675,-1.486 0.405,-0.54 1.081,-0.945 2.026,-1.215 -0.81,-0.406 -1.351,-0.811 -1.756,-1.351 -0.405,-0.54 -0.54,-1.081 -0.54,-1.621 0,-1.08 0.405,-1.891 1.351,-2.431 0.945,-0.54 2.026,-0.811 3.376,-0.675 1.216,0.135 2.296,0.405 2.972,0.945 0.81,0.54 1.08,1.216 1.08,1.891 0,0.405 -0.135,0.945 -0.54,1.216 -0.27,0.27 -0.81,0.675 -1.621,1.215 z m -0.945,-0.54 c 0.405,-0.27 0.675,-0.54 0.945,-0.81 0.27,-0.406 0.405,-0.811 0.405,-1.216 0,-0.405 -0.27,-0.946 -0.675,-1.351 -0.405,-0.54 -1.08,-0.81 -1.891,-0.81 -0.81,0 -1.351,0.135 -1.756,0.405 -0.405,0.405 -0.675,0.81 -0.675,1.216 0,0.27 0.135,0.675 0.405,0.945 0.27,0.405 1.081,0.811 2.161,1.216 0.676,0.27 0.946,0.405 1.081,0.405 z m -2.567,1.621 c -0.54,0.27 -0.945,0.675 -1.215,1.08 -0.27,0.405 -0.405,0.811 -0.405,1.351 0,0.675 0.27,1.216 0.81,1.621 0.54,0.405 1.216,0.675 1.891,0.81 0.945,0.135 1.486,-0.135 2.026,-0.54 0.405,-0.405 0.675,-0.811 0.675,-1.486 0,-0.405 -0.135,-0.81 -0.54,-1.215 -0.27,-0.271 -1.351,-0.811 -3.242,-1.621 z"
       id="path61" />
    <path
       d="m 290.4,320.541 -4.187,0.541 c -1.08,0.135 -1.756,0.27 -2.161,0.405 -0.27,0.135 -0.675,0.54 -1.081,0.945 -0.27,0.405 -0.54,0.676 -0.675,0.676 -0.27,0 -0.27,0 -0.27,-0.271 0,-0.27 0.135,-0.945 0.405,-2.026 0.27,-1.08 0.54,-1.891 0.676,-2.026 0.135,-0.27 0.27,-0.405 0.405,-0.405 0.135,0 0.27,0 0.405,0.27 0.135,0.135 0.27,0.27 0.405,0.27 0.135,0 0.811,0 1.756,-0.135 0.946,-0.135 1.486,-0.135 1.621,-0.27 l 4.727,-0.675 c -0.135,0.27 -0.27,0.675 -0.54,1.215 -1.081,1.891 -1.756,3.377 -2.026,4.593 -0.405,1.215 -0.54,2.566 -0.675,4.052 0,0.945 -0.135,1.756 -0.406,2.161 -0.27,0.405 -0.675,0.675 -1.35,0.81 -0.405,0 -0.811,0 -1.081,-0.27 -0.27,-0.27 -0.405,-0.54 -0.405,-0.945 0,-0.406 0.135,-0.946 0.405,-1.621 0.27,-0.675 0.811,-1.756 1.621,-3.107 z"
       id="path62" />
    <path
       d="m 297.964,321.892 c 0.405,-0.405 0.945,-0.675 1.351,-0.81 0.54,-0.271 0.945,-0.406 1.485,-0.541 1.216,-0.27 2.297,-0.135 3.242,0.405 0.945,0.541 1.351,1.351 1.351,2.432 0,1.215 -0.541,2.296 -1.486,3.241 -0.946,0.946 -2.296,1.621 -3.782,1.891 -1.756,0.405 -3.106,0.135 -4.052,-0.675 -0.945,-0.811 -1.486,-2.026 -1.486,-3.512 0,-1.891 0.676,-3.782 2.026,-5.403 1.351,-1.62 3.107,-2.701 5.268,-3.106 1.216,-0.27 2.161,-0.27 2.701,0 0.676,0.27 0.946,0.675 0.946,1.351 0,0.405 -0.135,0.81 -0.541,1.08 -0.27,0.405 -0.675,0.54 -1.08,0.675 -0.405,0.135 -0.81,0 -1.081,-0.135 -0.27,-0.27 -0.405,-0.54 -0.405,-0.945 v -0.675 c 0,-0.406 -0.27,-0.676 -0.945,-0.541 -0.811,0.135 -1.621,0.676 -2.296,1.621 -0.541,0.81 -0.946,2.026 -1.216,3.647 z m 4.322,2.296 c 0,-1.08 -0.135,-1.756 -0.54,-2.296 -0.405,-0.405 -0.946,-0.54 -1.621,-0.405 -0.81,0.135 -1.351,0.54 -1.756,1.215 -0.405,0.676 -0.675,1.351 -0.675,2.296 0,1.081 0.27,1.756 0.675,2.297 0.405,0.54 0.946,0.675 1.621,0.54 0.675,-0.135 1.216,-0.54 1.621,-1.216 0.405,-0.675 0.675,-1.485 0.675,-2.431 z"
       id="path63" />
    <path
       d="m 177.754,300.686 1.215,2.026 v 0.406 c 0,0 -0.135,0 -0.27,-0.136 -0.54,-0.405 -1.215,-0.675 -1.756,-0.81 -0.54,-0.135 -1.35,0 -2.431,0.405 -0.675,0.27 -1.08,0.541 -1.08,0.676 0,0.135 0.405,1.35 1.35,3.511 0.541,-0.27 0.946,-0.405 1.216,-0.54 0.27,-0.135 0.405,-0.405 0.54,-0.675 0.135,-0.27 0.135,-0.676 0,-1.216 0,-0.135 0,-0.27 0.135,-0.27 0.135,0 0.27,0 0.27,0.135 l 0.811,2.296 c 0.27,0.811 0.405,1.216 0.405,1.351 0,0.135 0,0.135 -0.135,0.135 -0.135,0 -0.27,0 -0.27,-0.135 -0.27,-0.405 -0.54,-0.675 -0.811,-0.811 -0.405,-0.135 -0.945,0 -1.89,0.271 l 1.08,2.701 c 0.27,0.54 0.405,0.81 0.54,1.081 0.135,0.135 0.27,0.27 0.541,0.27 0.135,0 0.405,0 0.81,-0.135 0.27,-0.135 0.405,-0.135 0.405,-0.135 0.135,0 0.135,0 0.135,0.135 0,0.135 0,0.27 -0.27,0.405 -0.135,0.135 -0.54,0.27 -1.08,0.405 -0.541,0.135 -0.811,0.27 -1.081,0.405 l -2.161,0.946 c -0.27,0.135 -0.405,0.135 -0.405,-0.135 0,-0.135 0,-0.271 0.27,-0.406 0.54,-0.27 0.675,-0.54 0.675,-0.945 -0.135,-0.405 -0.675,-2.026 -1.621,-4.592 -0.675,-1.621 -1.08,-2.702 -1.35,-2.972 -0.27,-0.27 -0.676,-0.27 -1.081,-0.135 l -0.135,0.135 c -0.135,0.135 -0.27,0 -0.405,-0.135 0,-0.135 0,-0.27 0.27,-0.405 z"
       id="path64" />
    <path
       d="m 182.616,297.715 c 0.946,-0.54 1.756,-0.811 2.702,-0.811 0.945,0 1.756,0.271 2.566,0.676 0.81,0.405 1.351,1.08 1.891,1.891 0.675,1.215 0.81,2.566 0.405,4.187 -0.405,1.486 -1.351,2.566 -2.701,3.376 -1.216,0.676 -2.567,0.946 -3.917,0.541 -1.351,-0.27 -2.431,-1.081 -3.107,-2.567 -0.675,-1.35 -0.81,-2.701 -0.405,-4.052 0.27,-1.35 1.081,-2.431 2.566,-3.241 z m 4.863,3.377 c -0.811,-1.351 -1.486,-2.297 -2.431,-2.702 -0.811,-0.405 -1.621,-0.405 -2.297,0 -0.675,0.405 -1.08,1.081 -1.215,2.026 -0.135,0.946 0.27,2.026 0.945,3.377 0.676,1.351 1.486,2.161 2.296,2.701 0.811,0.405 1.621,0.54 2.432,0.135 0.675,-0.405 1.08,-0.945 1.215,-1.891 0.135,-1.08 -0.135,-2.296 -0.945,-3.646 z"
       id="path65" />
    <path
       d="m 192.341,292.042 c 0.946,-0.54 1.756,-0.81 2.566,-0.945 0.946,0 1.756,0.135 2.567,0.54 0.81,0.405 1.485,1.08 2.026,1.756 0.81,1.215 0.945,2.566 0.675,4.052 -0.27,1.485 -1.216,2.701 -2.431,3.511 -1.216,0.811 -2.566,1.081 -3.917,0.811 -1.351,-0.27 -2.431,-1.081 -3.242,-2.296 -0.81,-1.216 -0.945,-2.567 -0.675,-4.052 0.27,-1.351 1.08,-2.567 2.431,-3.377 z m 4.998,2.971 c -0.811,-1.35 -1.621,-2.161 -2.567,-2.566 -0.81,-0.405 -1.62,-0.405 -2.296,0 -0.675,0.405 -1.08,1.081 -1.08,2.026 0,0.946 0.405,2.026 1.215,3.377 0.811,1.215 1.621,2.161 2.432,2.566 0.81,0.405 1.62,0.405 2.431,0 0.675,-0.405 0.945,-1.08 1.08,-2.026 0,-0.81 -0.405,-1.891 -1.215,-3.377 z"
       id="path66" />
    <path
       d="m 197.339,288.8 c 2.296,-1.35 3.917,-2.431 4.997,-3.106 0.811,-0.54 1.756,-1.081 2.702,-1.756 0.405,-0.27 0.675,-0.405 0.81,-0.54 0.135,0 0.27,-0.135 0.405,-0.27 0.135,0.135 0.405,0.54 0.811,1.08 l 0.81,0.946 c 0.135,0.135 0.135,0.27 0,0.405 -0.135,0.135 -0.27,0 -0.54,-0.135 -0.406,-0.27 -0.811,-0.406 -1.216,-0.541 -0.405,-0.135 -0.81,0 -1.216,0.135 -0.405,0.136 -0.945,0.406 -1.755,0.946 0.405,0.675 0.81,1.621 1.485,2.566 0.676,1.081 1.351,2.026 1.891,2.972 0.676,0.945 1.081,1.485 1.216,1.621 0.135,0.135 0.405,0.27 0.54,0.27 0.135,0 0.54,-0.135 1.081,-0.406 0.135,-0.135 0.27,-0.135 0.405,0 0.135,0.136 0,0.271 -0.135,0.271 l -0.135,0.135 -1.351,0.81 c -1.08,0.675 -1.621,1.081 -1.891,1.216 l -0.81,0.54 c 0,0 -0.135,0.135 -0.405,0.27 h -0.271 c -0.135,-0.135 0,-0.27 0.135,-0.405 0.406,-0.27 0.676,-0.54 0.676,-0.811 0.135,-0.27 0,-0.675 -0.135,-0.945 -0.135,-0.405 -0.676,-1.216 -1.351,-2.296 -1.216,-1.891 -2.161,-3.242 -2.971,-4.322 -0.676,0.405 -1.216,0.81 -1.486,1.08 -0.27,0.27 -0.54,0.676 -0.676,1.081 -0.135,0.405 -0.135,0.945 -0.135,1.486 0,0.27 0,0.405 -0.135,0.405 -0.135,0.135 -0.27,0.135 -0.405,0 0,0 -0.135,-0.405 -0.405,-0.946 -0.135,-0.945 -0.405,-1.35 -0.54,-1.756 z"
       id="path67" />
    <path
       d="m 214.762,283.668 c 1.081,-0.27 1.891,-0.405 2.567,-0.27 0.675,0.135 1.215,0.54 1.485,1.215 0.271,0.541 0.406,1.081 0.271,1.621 -0.136,0.54 -0.406,1.081 -0.811,1.486 -0.405,0.405 -1.08,0.81 -2.026,1.35 -0.27,0.136 -0.54,0.271 -1.08,0.541 -0.406,0.135 -0.676,0.405 -0.946,0.54 -0.27,0.135 -0.675,0.405 -1.215,0.81 -0.136,0.136 -0.406,0.271 -0.406,0.271 -0.135,0.135 -0.27,0.135 -0.405,0 0,-0.135 0,-0.135 0.135,-0.271 0.27,-0.135 0.405,-0.405 0.54,-0.54 0.136,-0.135 0.136,-0.27 0.136,-0.54 0,-0.135 -0.136,-0.405 -0.271,-0.811 l -1.62,-3.106 c -0.541,-0.946 -0.946,-1.756 -1.351,-2.296 -0.405,-0.54 -0.54,-0.946 -0.811,-1.081 -0.135,-0.135 -0.27,-0.27 -0.405,-0.27 -0.135,0 -0.27,0 -0.54,0.135 -0.135,0.135 -0.27,0.135 -0.405,0.135 0,0 -0.135,0 -0.135,-0.135 v -0.27 c 0.135,-0.135 0.405,-0.27 0.81,-0.54 0.946,-0.54 1.756,-0.946 2.431,-1.486 0.406,-0.27 0.811,-0.54 1.081,-0.675 0.81,-0.405 1.621,-0.676 2.296,-0.541 0.675,0.136 1.216,0.406 1.486,1.081 0.945,1.216 0.54,2.296 -0.811,3.647 z m -1.891,0.945 c 1.486,-0.81 1.891,-1.891 1.216,-3.241 -0.27,-0.541 -0.675,-0.946 -1.08,-1.081 -0.406,-0.135 -0.811,-0.135 -1.216,0.135 -0.27,0.135 -0.54,0.405 -0.811,0.676 0.271,0.405 0.406,0.945 0.676,1.485 0.27,0.405 0.675,1.081 1.215,2.026 z m 0.271,0.541 c 0.54,0.945 0.945,1.755 1.215,2.431 0.405,0.81 0.811,1.35 0.946,1.35 0.135,0.135 0.405,0 0.675,-0.135 0.675,-0.405 1.081,-0.81 1.216,-1.35 0.135,-0.541 0,-1.081 -0.271,-1.756 -0.27,-0.54 -0.81,-0.946 -1.35,-1.216 -0.54,-0.27 -1.216,-0.135 -1.891,0.27 0,0.135 -0.27,0.27 -0.54,0.406 z"
       id="path68" />
    <path
       d="m 220.3,275.294 0.54,-0.271 c 1.216,1.081 3.107,2.702 5.538,4.998 1.081,1.081 1.891,1.756 2.161,1.891 0.27,0.135 0.676,0.27 1.216,0.135 0.135,0 0.27,0 0.27,0.135 0,0.135 0,0.27 -0.135,0.405 -0.135,0 -0.405,0.135 -0.81,0.27 -0.541,0.135 -0.946,0.406 -1.216,0.541 -0.27,0.135 -0.675,0.405 -1.216,0.675 -0.405,0.27 -0.675,0.405 -0.675,0.405 -0.27,0.135 -0.405,0.135 -0.405,0 0,-0.135 0,-0.135 0.135,-0.27 0.54,-0.27 0.675,-0.675 0.54,-1.08 -0.135,-0.136 -0.27,-0.541 -0.675,-0.946 -0.405,-0.405 -0.811,-0.81 -1.216,-1.08 -0.27,0.135 -0.54,0.27 -0.675,0.27 -0.946,0.405 -1.621,0.81 -2.161,1.08 0.135,1.351 0.27,2.161 0.405,2.431 0.135,0.271 0.27,0.406 0.54,0.406 h 0.811 c 0.135,0 0.27,0 0.405,0.135 0,0.135 0,0.27 -0.135,0.27 -0.135,0 -0.27,0.135 -0.54,0.27 -0.406,0.135 -0.676,0.27 -0.946,0.405 -0.405,0.135 -0.675,0.405 -1.081,0.54 -0.135,0 -0.135,0.135 -0.135,0.135 -0.135,0.136 -0.27,0 -0.405,-0.135 0,-0.135 0,-0.135 0.135,-0.27 0.27,-0.27 0.405,-0.405 0.541,-0.54 0.135,-0.135 0.135,-0.54 0.135,-0.945 0,-0.406 0,-1.081 -0.135,-1.891 -0.406,-2.026 -0.676,-4.728 -0.811,-7.969 z m 0.675,2.701 0.271,3.647 2.431,-1.216 c -0.27,-0.27 -0.675,-0.675 -1.351,-1.215 -0.54,-0.541 -1.08,-0.946 -1.351,-1.216 z"
       id="path69" />
    <path
       d="m 238.939,279.346 c -1.215,0.27 -3.106,0.945 -5.672,1.756 -0.946,0.27 -1.621,0.54 -2.161,0.81 -0.136,0 -0.271,0.135 -0.271,0.135 -0.135,0 -0.27,0 -0.405,-0.135 v -0.135 c 0,0 0.135,-0.135 0.27,-0.27 0.27,-0.135 0.541,-0.27 0.676,-0.541 0.135,-0.135 0.135,-0.405 0.135,-0.675 0,-0.27 -0.135,-0.945 -0.541,-2.026 -0.405,-1.08 -0.81,-2.431 -1.215,-3.917 -0.135,-0.54 -0.405,-1.08 -0.54,-1.215 -0.135,-0.271 -0.406,-0.406 -0.541,-0.406 -0.135,-0.135 -0.405,-0.135 -0.81,0 -0.27,0 -0.405,0 -0.405,-0.135 0,-0.135 0,-0.27 0.27,-0.27 l 2.431,-0.675 c 0.405,-0.135 0.946,-0.27 1.621,-0.54 0.27,-0.136 0.405,-0.136 0.54,-0.136 0.27,0 0.27,0 0.405,0.136 v 0.135 c 0,0 -0.27,0.135 -0.405,0.27 -0.27,0.135 -0.54,0.27 -0.675,0.54 -0.135,0.135 -0.135,0.405 0,0.675 0,0.27 0.27,0.946 0.54,2.026 l 1.486,4.458 c 0.27,0.675 0.405,1.08 0.54,1.215 0.135,0.135 0.405,0.135 0.675,0 0.811,-0.27 1.351,-0.54 1.756,-0.81 0.406,-0.27 0.676,-0.54 0.946,-1.081 0.27,-0.405 0.405,-1.08 0.54,-2.026 0,-0.135 0.135,-0.27 0.135,-0.27 0.135,0 0.27,0 0.27,0.135 0,0 0.135,1.081 0.405,2.972 z"
       id="path70" />
    <path
       d="m 248.394,277.455 c -1.215,0.135 -3.241,0.54 -5.943,1.08 -0.945,0.135 -1.621,0.405 -2.296,0.541 -0.135,0 -0.27,0 -0.27,0.135 -0.135,0 -0.27,0 -0.27,-0.135 v -0.136 c 0,0 0.135,-0.135 0.405,-0.135 0.27,-0.135 0.54,-0.27 0.675,-0.405 0.135,-0.135 0.27,-0.405 0.27,-0.675 0,-0.27 -0.135,-0.946 -0.27,-2.161 -0.27,-1.081 -0.405,-2.431 -0.81,-4.052 -0.135,-0.676 -0.27,-1.081 -0.405,-1.351 -0.135,-0.27 -0.27,-0.405 -0.541,-0.54 -0.135,-0.135 -0.405,-0.135 -0.81,-0.135 -0.27,0 -0.405,0 -0.405,-0.135 0,-0.135 0.135,-0.27 0.27,-0.27 l 2.566,-0.406 c 0.405,-0.135 0.946,-0.135 1.621,-0.405 0.27,0 0.405,-0.135 0.54,-0.135 0.27,0 0.27,0 0.406,0.135 0,0.135 0,0.135 -0.136,0.135 0,0 -0.27,0.135 -0.54,0.27 -0.27,0.135 -0.54,0.27 -0.675,0.406 -0.135,0.135 -0.135,0.405 -0.135,0.675 0,0.27 0.135,1.08 0.405,2.161 l 0.945,4.592 c 0.136,0.676 0.271,1.081 0.406,1.216 0.135,0.135 0.405,0.135 0.675,0 0.81,-0.135 1.486,-0.405 1.756,-0.54 0.405,-0.271 0.675,-0.541 0.945,-0.946 0.271,-0.405 0.541,-1.08 0.811,-1.891 0,-0.135 0.135,-0.27 0.27,-0.27 0.135,0 0.27,0 0.27,0.135 0.27,0.27 0.27,1.351 0.27,3.242 z"
       id="path71" />
    <path
       d="m 344.157,278.94 c 0.135,-0.135 0.27,-0.135 0.54,-0.27 0.27,-0.135 0.406,-0.135 0.406,-0.135 0.135,0 0.135,0.135 0.135,0.135 0,0 0,0.27 -0.135,0.406 l -0.946,2.161 -0.135,0.27 c -0.135,0.135 -0.27,0.27 -0.405,0.135 -0.135,0 -0.135,-0.135 -0.135,-0.405 0,-0.541 0,-1.351 -0.27,-2.161 -0.135,-0.811 -0.676,-1.486 -1.351,-1.756 -0.54,-0.271 -1.081,-0.271 -1.621,-0.135 -0.54,0.135 -1.08,0.405 -1.486,0.945 -0.54,0.405 -0.945,1.081 -1.35,1.891 -0.676,1.351 -0.811,2.566 -0.676,3.647 0.27,1.08 0.676,1.756 1.621,2.296 0.946,0.405 2.026,0.27 3.377,-0.405 0.135,-0.135 0.27,-0.135 0.405,-0.135 0.135,0.135 0.135,0.135 0.135,0.27 -0.135,0.27 -0.81,0.675 -1.756,0.945 -1.08,0.27 -2.161,0.135 -3.241,-0.27 -1.486,-0.675 -2.432,-1.756 -2.837,-2.971 -0.405,-1.351 -0.27,-2.567 0.405,-3.917 0.676,-1.351 1.621,-2.161 2.972,-2.702 1.351,-0.54 2.566,-0.54 3.917,0.135 0.945,0.271 1.756,0.946 2.431,2.026 z"
       id="path72" />
    <path
       d="m 349.155,292.717 c -1.081,-0.675 -2.837,-1.756 -5.133,-3.106 -0.81,-0.405 -1.486,-0.811 -2.026,-1.081 -0.135,0 -0.27,-0.135 -0.27,-0.135 -0.135,-0.135 -0.27,-0.27 -0.135,-0.405 l 0.135,-0.135 c 0,0 0.135,0 0.405,0.135 0.27,0.135 0.54,0.135 0.81,0.135 0.271,0 0.406,-0.135 0.676,-0.405 0.27,-0.27 0.54,-0.811 1.215,-1.756 0.541,-0.946 1.216,-2.161 2.026,-3.512 0.271,-0.54 0.541,-0.945 0.541,-1.215 v -0.676 c -0.135,-0.135 -0.27,-0.405 -0.541,-0.54 -0.135,-0.135 -0.27,-0.27 -0.135,-0.405 0.135,-0.135 0.27,-0.135 0.406,0 l 2.161,1.35 c 0.405,0.136 0.81,0.406 1.485,0.811 0.271,0.135 0.406,0.135 0.406,0.27 0.135,0.135 0.27,0.27 0.135,0.405 0,0.135 -0.135,0.135 -0.135,0.135 -0.135,0 -0.271,0 -0.541,-0.135 -0.27,-0.135 -0.54,-0.135 -0.81,-0.135 -0.135,0 -0.405,0.135 -0.54,0.405 -0.135,0.27 -0.541,0.811 -1.081,1.756 l -2.296,4.052 c -0.405,0.676 -0.54,1.081 -0.54,1.216 0,0.135 0.27,0.405 0.54,0.54 0.675,0.405 1.351,0.675 1.756,0.811 0.405,0.135 0.945,0.135 1.351,0 0.54,-0.136 1.08,-0.406 1.89,-0.946 0.136,-0.135 0.271,-0.135 0.406,-0.135 0.135,0.135 0.135,0.135 0.135,0.27 -0.405,0.135 -1.081,0.946 -2.296,2.431 z"
       id="path73" />
    <path
       d="m 354.827,284.343 2.026,1.351 c 0.135,0.135 0.406,0.27 0.676,0.405 0.405,0.27 0.81,0.405 0.945,0.54 0.27,0.135 0.27,0.27 0.27,0.405 -0.135,0.136 -0.135,0.136 -0.405,0 -0.27,-0.135 -0.675,-0.27 -0.945,-0.135 -0.27,0.135 -0.676,0.406 -1.081,1.081 -0.405,0.675 -0.945,1.351 -1.351,2.026 -0.81,1.216 -1.215,2.161 -1.35,2.566 -0.135,0.541 -0.135,0.946 0.135,1.486 0.27,0.54 0.675,0.945 1.351,1.351 0.675,0.405 1.215,0.54 1.755,0.54 0.541,-0.135 0.946,-0.405 1.486,-0.946 0.54,-0.54 1.216,-1.62 2.296,-3.106 0.541,-0.946 0.946,-1.621 0.946,-2.161 0.135,-0.405 0,-0.811 -0.405,-1.081 -0.271,-0.135 -0.271,-0.405 -0.271,-0.405 0.136,-0.135 0.271,-0.135 0.406,0 0.135,0 0.27,0.135 0.54,0.405 0.27,0.135 0.54,0.405 0.675,0.541 0.27,0.135 0.541,0.27 0.811,0.405 0.27,0.135 0.405,0.27 0.54,0.27 0.27,0.135 0.27,0.27 0.27,0.405 0,0.135 -0.135,0.135 -0.405,0 -0.27,-0.135 -0.54,-0.135 -0.811,0 -0.27,0.135 -0.54,0.27 -0.945,0.675 -0.27,0.406 -0.945,1.486 -2.026,3.107 -0.675,1.081 -1.351,1.891 -1.891,2.296 -0.54,0.405 -1.216,0.54 -1.891,0.405 -0.675,-0.135 -1.486,-0.405 -2.296,-0.945 -0.675,-0.405 -1.216,-0.811 -1.621,-1.216 -0.405,-0.405 -0.675,-0.81 -0.81,-1.215 -0.135,-0.406 -0.135,-0.811 -0.135,-1.216 0.135,-0.405 0.27,-0.945 0.675,-1.486 l 2.161,-3.511 c 0.27,-0.541 0.54,-0.946 0.675,-1.216 0.135,-0.405 0.135,-0.54 0.135,-0.81 0,-0.136 -0.135,-0.406 -0.405,-0.541 -0.135,-0.135 -0.27,-0.135 -0.27,-0.27 v -0.135 c 0.27,0 0.405,0 0.54,0.135 z"
       id="path74" />
    <path
       d="m 367.524,297.985 c 0.81,0.81 1.215,1.486 1.486,2.161 0.27,0.675 0.135,1.351 -0.271,1.891 -0.27,0.54 -0.81,0.81 -1.35,1.081 -0.541,0.135 -1.081,0.27 -1.756,0 -0.54,-0.136 -1.351,-0.541 -2.161,-1.081 -0.27,-0.135 -0.541,-0.405 -1.081,-0.675 -0.405,-0.27 -0.675,-0.406 -0.945,-0.541 -0.27,-0.135 -0.676,-0.405 -1.216,-0.675 -0.27,-0.135 -0.405,-0.135 -0.405,-0.27 -0.135,-0.135 -0.27,-0.27 -0.135,-0.405 0,-0.135 0.135,-0.135 0.27,0 0.27,0.135 0.54,0.27 0.675,0.27 0.135,0 0.27,0 0.541,-0.135 0.135,-0.135 0.405,-0.27 0.54,-0.541 l 1.891,-2.971 c 0.54,-0.945 1.08,-1.756 1.35,-2.296 0.271,-0.54 0.541,-0.946 0.541,-1.216 v -0.54 c 0,-0.135 -0.135,-0.27 -0.405,-0.405 -0.136,-0.135 -0.271,-0.27 -0.271,-0.27 v -0.135 c 0,-0.135 0.135,-0.135 0.271,-0.135 0.135,0 0.405,0.27 0.945,0.54 0.81,0.54 1.756,1.08 2.431,1.486 0.405,0.27 0.811,0.405 1.081,0.675 0.81,0.54 1.35,1.08 1.621,1.756 0.27,0.675 0.135,1.215 -0.135,1.891 -0.406,0.81 -1.621,1.08 -3.512,0.54 z m -1.621,-1.216 c 1.486,0.946 2.701,0.811 3.512,-0.54 0.405,-0.54 0.54,-1.08 0.405,-1.486 -0.135,-0.405 -0.27,-0.81 -0.675,-0.945 -0.271,-0.135 -0.541,-0.27 -1.081,-0.405 -0.27,0.405 -0.675,0.81 -0.945,1.35 -0.271,0.27 -0.676,1.081 -1.216,2.026 z m -0.405,0.541 c -0.676,0.945 -1.081,1.62 -1.486,2.296 -0.54,0.81 -0.81,1.35 -0.81,1.486 0,0.135 0.135,0.405 0.54,0.54 0.675,0.405 1.215,0.54 1.756,0.405 0.54,-0.135 0.945,-0.54 1.35,-1.081 0.406,-0.54 0.541,-1.215 0.406,-1.755 -0.135,-0.541 -0.406,-1.081 -1.081,-1.486 -0.135,-0.135 -0.405,-0.27 -0.675,-0.405 z"
       id="path75" />
  </g>
  <g
     clip-path="url(#t)"
     id="g76"
     transform="translate(-149.58752,-63.843)">
    <path
       d="m 392.646,286.234 h 6.618 v 12.021 h -6.618 z"
       fill="url(#g)"
       id="path76"
       style="fill:url(#g)" />
  </g>
  <g
     clip-path="url(#u)"
     id="g77"
     transform="translate(-149.58752,-63.843)">
    <path
       d="m 160.735,286.234 h 6.618 v 12.021 h -6.618 z"
       fill="url(#h)"
       id="path77"
       style="fill:url(#h)" />
  </g>
  <g
     clip-path="url(#v)"
     id="g78"
     transform="translate(-149.58752,-63.843)">
    <path
       d="m 395.618,301.497 h 7.429 v 12.426 h -7.429 z"
       fill="url(#i)"
       id="path78"
       style="fill:url(#i)" />
  </g>
  <g
     clip-path="url(#w)"
     id="g79"
     transform="translate(-149.58752,-63.843)">
    <path
       d="m 403.317,305.144 -18.775,-10.806 9.725,-17.153 18.91,10.805 z"
       fill="url(#j)"
       fill-rule="nonzero"
       stroke="#000000"
       stroke-miterlimit="4"
       stroke-width="1.35"
       id="path79"
       style="fill:url(#j)" />
  </g>
  <path
     d="m 258.99648,231.17 0.541,-1.08 c 0.675,-1.621 1.485,-3.917 -1.756,-7.969 -5.403,-5.808 -13.372,-7.699 -14.858,-5.133 -1.08,2.297 1.216,5.268 4.322,7.699 2.567,2.026 4.998,2.837 4.998,2.837 l -7.159,8.779 c 2.026,0.405 3.647,0.405 4.998,0.54 6.078,-0.675 7.834,-3.511 8.914,-5.673 z"
     fill="none"
     stroke="#000000"
     stroke-miterlimit="4"
     stroke-width="1.35"
     id="path80" />
  <g
     clip-path="url(#x)"
     id="g81"
     transform="translate(-149.58752,-63.843)">
    <path
       d="m 309.31,310.681 -10.13,-27.959 21.34,-7.834 10.13,28.094 z"
       fill="url(#k)"
       fill-rule="nonzero"
       stroke="#000000"
       stroke-miterlimit="4"
       stroke-width="1.35"
       id="path81"
       style="fill:url(#k)" />
  </g>
  <path
     d="m 172.82348,221.04 c 0,0 -1.891,1.216 -0.945,2.837 l 5.673,7.699 c 0,0 2.026,2.431 0.135,4.052 0,0 -4.052,3.782 -11.346,7.834 l -16.478,-24.448 c 0,0 0.54,-0.945 5.402,-0.945 5.943,0 11.886,1.216 17.559,2.971 z"
     fill="none"
     stroke="#000000"
     stroke-miterlimit="4"
     stroke-width="1.35"
     id="path82" />
  <path
     d="m 172.82348,221.04 c 0,0 -1.891,1.216 -0.945,2.837 l 5.673,7.699 c 0,0 2.026,2.431 0.135,4.052 0,0 -4.052,3.782 -11.346,7.834 l -16.478,-24.448 c 0,0 0.54,-0.945 5.402,-0.945 5.943,0 11.886,1.216 17.559,2.971 z"
     fill="none"
     stroke="#000000"
     stroke-miterlimit="4"
     stroke-width="1.35"
     id="path83" />
  <g
     clip-path="url(#y)"
     id="g84"
     transform="translate(-149.58752,-63.843)">
    <path
       d="m 310.39,282.722 -10.67,-1.891 2.701,-15.803 10.806,1.891 z"
       fill="url(#l)"
       fill-rule="nonzero"
       id="path84"
       style="fill:url(#l)" />
  </g>
  <g
     clip-path="url(#z)"
     id="g85"
     transform="translate(-149.58752,-63.843)">
    <path
       d="m 249.61,282.722 10.805,-1.891 -2.836,-15.803 -10.806,1.891 z"
       fill="url(#m)"
       fill-rule="nonzero"
       id="path85"
       style="fill:url(#m)" />
  </g>
  <g
     clip-path="url(#A)"
     id="g86"
     transform="translate(-149.58752,-63.843)">
    <path
       d="m 319.845,302.982 h 8.914 v 18.234 h -8.914 z"
       fill="url(#n)"
       id="path86"
       style="fill:url(#n)" />
  </g>
  <g
     clip-path="url(#B)"
     id="g87"
     transform="translate(-149.58752,-63.843)">
    <path
       d="m 231.241,302.982 h 8.914 v 18.234 h -8.914 z"
       fill="url(#o)"
       id="path87"
       style="fill:url(#o)" />
  </g>
  <g
     clip-path="url(#C)"
     id="g88"
     transform="translate(-149.58752,-63.843)">
    <path
       d="m 156.683,301.497 h 7.429 v 12.426 h -7.429 z"
       fill="url(#p)"
       id="path88"
       style="fill:url(#p)" />
  </g>
</svg>
