<?xml version="1.0" encoding="UTF-8"?>
<!DOCTYPE svg PUBLIC "-//W3C//DTD SVG 1.1//EN" "http://www.w3.org/Graphics/SVG/1.1/DTD/svg11.dtd">
<!-- Creator: CorelDRAW 2019 (64-Bit) -->
<svg xmlns="http://www.w3.org/2000/svg" xml:space="preserve" width="177.429mm" height="277.96mm" version="1.1" style="shape-rendering:geometricPrecision; text-rendering:geometricPrecision; image-rendering:optimizeQuality; fill-rule:evenodd; clip-rule:evenodd"
viewBox="0 0 177.4178 277.9427"
 xmlns:xlink="http://www.w3.org/1999/xlink"
 xmlns:xodm="http://www.corel.com/coreldraw/odm/2003">
 <defs>
  <style type="text/css">
   <![CDATA[
    .fil0 {fill:#0F1720}
    .fil1 {fill:#E3002A}
    .fil2 {fill:white}
   ]]>
  </style>
 </defs>
 <g id="Layer_x0020_1">
  <metadata id="CorelCorpID_0Corel-Layer"/>
  <g id="_2126690320">
   <path class="fil0" d="M151.6519 40.9863c-15.9675,-25.1824 -38.1236,-40.8146 -62.9434,-40.9863 -49.638,0.2535 -88.7085,62.6494 -88.7085,139.01 0,38.134 9.7853,72.8512 25.7634,98.0236 15.9721,25.1747 38.1262,40.8168 62.9451,40.9091 24.8198,-0.0923 46.9759,-15.7343 62.9434,-40.9091 15.978,-25.1724 25.7659,-59.8896 25.7659,-98.0236 0,-38.1445 -9.7879,-72.8516 -25.7659,-98.0237z"/>
   <path class="fil1" d="M167.7602 85.8625c-4.3815,-16.3971 -10.7372,-31.1192 -18.553,-43.4055 -7.8984,-12.3048 -17.1749,-22.2545 -27.3923,-29.1163 -10.2201,-6.7649 -21.3384,-10.5297 -33.1063,-10.5297 -11.7646,0 -22.8855,3.7649 -33.1054,10.5297 -10.2182,6.8618 -19.4921,16.8115 -27.3898,29.1163 -7.8164,12.2863 -14.1719,27.0084 -18.5554,43.4055 -4.3791,16.3072 -6.7853,34.2901 -6.7853,53.1934 0,37.6378 9.7139,71.8433 25.3407,96.4352 7.8977,12.2994 17.1716,22.244 27.3898,29.1057 10.22,6.7781 21.3409,10.5349 33.1054,10.5349 11.768,0 22.8863,-3.7569 33.1063,-10.5349 10.2174,-6.8617 19.4939,-16.8063 27.3923,-29.1057 15.6269,-24.5919 25.3382,-58.7975 25.3382,-96.4352 0,-18.9033 -2.4069,-36.8862 -6.7852,-53.1934z"/>
   <path class="fil0" d="M88.7085 267.3592c-43.8809,-0.2606 -78.1893,-57.9613 -78.1893,-128.3033 0,-70.4246 34.3084,-128.1371 78.1893,-128.3852 43.8843,0.2482 78.1894,57.9606 78.1894,128.3852 0,70.342 -34.3051,128.0428 -78.1894,128.3033z"/>
   <path class="fil2" d="M88.7085 63.5288c29.4568,0 54.9967,15.9779 68.141,39.4745 -3.522,-19.1411 -9.617,-36.2975 -17.7813,-50.1804 -12.9593,-21.9983 -30.7779,-35.367 -50.3597,-35.4567 -19.5808,0.0897 -37.3972,13.4584 -50.3595,35.4567 -8.1613,13.8828 -14.2561,31.0393 -17.7805,50.1804 13.1435,-23.4965 38.6841,-39.4745 68.14,-39.4745z"/>
   <path class="fil2" d="M88.7085 214.4957c-29.4559,0 -54.9118,-15.9674 -68.0501,-39.4724 3.4345,19.1496 9.5293,36.2928 17.6906,50.1043 6.5248,10.9494 14.1668,19.9033 22.7552,26.0037 8.4994,6.1892 17.8166,9.5369 27.6043,9.5369 9.7887,0 19.1057,-3.3477 27.6071,-9.5369 8.5864,-6.1004 16.2287,-15.0543 22.7526,-26.0037 8.1643,-13.8114 14.2593,-30.9547 17.6942,-50.1043 -13.1389,23.5049 -38.5971,39.4724 -68.0539,39.4724z"/>
   <path class="fil0" d="M114.4356 215.1426c-4.7952,1.6063 -7.4802,5.2558 -5.5934,10.5965 1.2716,3.6289 5.0901,5.8568 9.7886,4.299 1.6394,-0.5674 3.4295,-1.5549 3.9998,-3.4066l0.0969 0.0486c1.5762,4.5806 0,6.4577 -1.8973,7.407 -1.8746,0.882 -3.6012,0.4297 -4.7216,-0.885l-0.0131 -0.0231 -3.156 2.1308c1.829,2.6698 5.2611,3.4857 9.0469,2.2149 4.4293,-1.481 7.9434,-5.7013 4.9898,-14.0877 -1.0692,-3.0668 -4.0541,-11.1307 -12.5406,-8.2944zm4.0237 11.1387l0 0c-1.8341,0.6038 -4.2918,0.6109 -5.435,-2.6373 -1.0896,-3.0995 1.371,-4.5648 2.6011,-4.9435 2.4985,-0.8262 4.2251,0.2809 5.1098,2.7291 0.9029,2.5929 -0.5933,4.2789 -2.276,4.8517z"/>
   <path class="fil0" d="M90.0796 57.915c5.0154,0 9.5423,-2.0894 12.6707,-5.4378l-3.7111 -3.3038c-2.2203,2.3525 -5.4096,3.8414 -8.9596,3.8414 -6.7262,0 -12.1841,-5.3023 -12.1841,-11.855 0,-6.5935 5.458,-11.9053 12.1841,-11.9053 3.5501,0 6.7394,1.4961 8.9596,3.8491l3.7008 -3.3254c-3.1488,-3.3294 -7.645,-5.4273 -12.6604,-5.4273 -9.499,0 -17.2049,7.5225 -17.2049,16.8089 0,9.2431 7.7059,16.7552 17.2049,16.7552z"/>
   <path class="fil0" d="M113.758 44.342l3.6752 18.7187c0.8748,0.3634 1.7265,0.7065 2.5987,1.0998l5.2074 -12.4657 5.4553 18.0418c2.1359,1.3401 4.2304,2.8181 6.2227,4.371l-9.4658 -31.1676 -2.9535 -2.274 -4.2689 10.2797 -3.5501 -16.4506 -4.1045 -2.6682 -8.5736 27.3896c1.6037,0.3124 3.1921,0.6575 4.7751,1.0667l4.9821 -15.9413z"/>
   <path class="fil0" d="M51.8842 59.9206l14.9492 -5.7907 1.9008 6.1508c1.5498,-0.4114 3.1402,-0.7518 4.7286,-1.0641l-8.4555 -27.3896 -6.1869 3.875 -19.4943 39.3597c2.4505,-1.9746 5.0565,-3.8139 7.7448,-5.5045l4.8133 -9.6365zm10.3069 -20.74l0 0 3.2201 10.3713 -10.3687 4.015 7.1486 -14.3862z"/>
   <path class="fil0" d="M95.1258 218.8382c-5.0462,0.4274 -8.5602,3.3124 -8.084,8.9391 0.3397,3.7854 3.4804,6.8928 8.429,6.4709 1.7469,-0.1308 3.6989,-0.6678 4.7372,-2.2916l0.0739 0.0485c0.3688,4.8181 -1.6492,6.2738 -3.7111,6.6858 -2.0357,0.4522 -3.5881,-0.384 -4.3378,-1.931l0 -0.036 -3.5958 1.3298c1.0843,2.964 4.2304,4.5728 8.202,4.261 4.6476,-0.3785 9.1233,-3.6239 8.3718,-12.4508 -0.2509,-3.2401 -1.1333,-11.7364 -10.0852,-11.0258zm1.1333 11.7219l0 0c-1.9413,0.1735 -4.3352,-0.3783 -4.6344,-3.8158 -0.261,-3.302 2.4784,-4.1 3.7925,-4.1845 2.5987,-0.2149 4.0235,1.2452 4.2486,3.8598 0.2376,2.7387 -1.6499,4.0229 -3.4067,4.1405z"/>
   <path class="fil0" d="M75.8263 218.0125c-4.4581,-0.7852 -8.361,0.9688 -9.0467,4.8721 -0.3888,2.097 0.4251,3.7187 2.2792,4.9801 -4.1641,0.9073 -4.6983,3.9356 -4.9079,5.0789 -0.5684,3.1205 1.0175,7.3306 7.5906,8.4942 6.7472,1.1456 9.6222,-2.995 10.1566,-5.87 0.5191,-2.9463 -0.5835,-4.6165 -2.8365,-6.1455 2.225,-0.5709 3.4173,-2.1181 3.7753,-4.0796 0.5494,-3.1487 -1.7442,-6.4175 -7.0105,-7.33zm1.0871 16.9033l0 0c-0.2845,1.5752 -1.8753,3.3913 -4.4918,2.918 -2.2915,-0.3909 -3.8257,-2.1332 -3.4243,-4.3555 0.4374,-2.4452 2.7597,-3.1433 4.5982,-2.7956 2.7985,0.4373 3.6222,2.6215 3.3179,4.2331zm1.209 -9.8902l0 0c-0.2965,1.6139 -1.8305,2.6005 -3.813,2.2636 -2.1661,-0.397 -3.2019,-2.0901 -2.9721,-3.4093 0.3044,-1.6986 1.9002,-2.6139 4.1635,-2.2354 1.6067,0.2886 2.9287,1.6368 2.6215,3.3811z"/>
   <path class="fil0" d="M51.5724 215.7817l-0.6855 -0.2299 -0.9723 2.7186 0.0335 0.0104 -0.4806 1.3149 0.9355 0.3397c2.4762,0.8622 4.1666,0.8622 5.2943,0.4041l-5.0973 14.5762 4.8621 1.6058 7.5041 -21.4096 -4.4194 -1.5014c-0.3406,0.9926 -3.2915,3.3759 -6.9745,2.1712z"/>
   <path class="fil2" d="M137.0994 149.7642l0 41.9017c12.1973,-10.6241 20.7013,-25.3436 23.2793,-41.9017l-23.2793 0z"/>
   <path class="fil2" d="M92.7065 209.4823c6.0127,-0.3372 11.8447,-1.4215 17.3432,-3.0124l0 -56.7057 -17.3432 0 0 59.7181z"/>
   <path class="fil2" d="M160.0308 125.9249c-3,-15.6067 -11.2048,-29.3743 -22.9314,-39.4869l0 39.4869 22.9314 0z"/>
   <path class="fil2" d="M92.7065 125.9249l17.3432 0 0 -54.3648c-5.5859,-1.5858 -11.3305,-2.67 -17.3432,-3.008l0 57.3728z"/>
   <path class="fil2" d="M137.0994 86.3658l-0.0844 0c0.0281,0.023 0.0563,0.0486 0.0844,0.0722l0 -0.0722z"/>
   <path class="fil1" d="M25.0312 172.9235l0 -67.8303c-5.5804,10.1284 -8.8412,21.6684 -8.8412,33.9627 0,12.2122 3.2608,23.7525 8.8412,33.8676z"/>
   <path class="fil1" d="M113.832 72.8132l0 56.8738 -21.1307 0 0 16.3098 21.1307 0.0899 0 59.1274c7.0316,-2.5013 13.5633,-6.1103 19.4103,-10.5349l0 -48.5925 27.73 0c0.2579,-2.3507 0.3425,-4.6855 0.3425,-7.0308 0,-3.1742 -0.2587,-6.3557 -0.6882,-9.3689l-27.3843 0 0 -46.3361c-5.847,-4.4327 -12.3787,-8.0287 -19.4103,-10.5376z"/>
   <path class="fil1" d="M65.6495 205.9656c4.3836,1.4222 8.849,2.4272 13.568,3.0976l0 -140.0993c-4.719,0.5861 -9.1843,1.6807 -13.568,3.1022l0 133.8995z"/>
   <path class="fil1" d="M38.6024 189.9884c4.1228,3.8492 8.5882,7.1074 13.4788,9.9621l0 -121.8685c-4.8906,2.7599 -9.3559,6.0997 -13.4788,9.9569l0 101.9496z"/>
  </g>
 </g>
</svg>
