<?xml version="1.0" encoding="UTF-8"?>
<svg id="Calque_2" data-name="Calque 2" xmlns="http://www.w3.org/2000/svg" xmlns:xlink="http://www.w3.org/1999/xlink" viewBox="0 0 1869.86 3256.38">
  <defs>
    <style>
      .cls-1 {
        mask: url(#mask);
      }

      .cls-2 {
        fill: #db0b34;
      }

      .cls-2, .cls-3, .cls-4 {
        stroke-width: 0px;
      }

      .cls-3 {
        fill: #9e8255;
      }

      .cls-4 {
        fill: #fff;
      }
    </style>
    <mask id="mask" x="0" y="0" width="1869.86" height="3256.63" maskUnits="userSpaceOnUse">
      <g id="mask0_101_22050" data-name="mask0 101 22050">
        <path class="cls-4" d="M1869.61.25H0v3256.38h1869.61V.25Z"/>
      </g>
    </mask>
  </defs>
  <g id="Calque_1-2" data-name="Calque 1">
    <g class="cls-1">
      <g>
        <path class="cls-3" d="M428.47,825.44c4.05,1.67,7.39,2.38,10.26,2.14,4.06-.24,6.92-2.14,9.54-5.25,4.06-5.01,3.1-11.22-1.19-16.46-1.91-2.15-50.57-50.57-98.29-103.54-53.44-59.4-79.44-110.93-68.95-142.9,8.35-25.76,26.24-42.94,54.16-51.29-10.98-20.27-19.33-39.6-24.57-58.69-18.85-1.19-36.5-.95-52.48.95-27.2,3.11-50.81,10.74-69.66,22.19-26.72,16.22-46.76,40.55-53.68,69.9-31.26,127.64,197.77,235.46,295.1,282.94"/>
        <path class="cls-3" d="M669.89,799.19c5.01,3.34,10.5,3.34,10.74,3.34,3.34,0,6.92-1.19,9.54-3.34,5.73-4.53,6.44-11.69,1.91-17.18-77.77-91.13-219.48-275.54-168.18-389.81,42.94-78.73,163.66-43.18,191.81-35.79,15.51,4.05,27.19,7.39,35.79-4.77,4.05-6.92-5.01-16.22-6.21-17.41-82.06-81.58-156.5-99.96-204.92-99.96-3.34,0-6.44,0-9.54.24-72.76,3.82-129.78,37.22-161.75,96.38-59.88,110.45,43.42,225.68,109.98,302.26,78.72,90.42,180.35,158.65,190.85,166.28"/>
        <path class="cls-3" d="M450.17,651.27l-3.82-4.06c-6.2-7.15-12.88-14.55-19.32-22.42-12.88,22.66-9.3,54.16,11.69,90.89,38.17,66.32,54.16,84.21,54.16,84.21,0,0,40.32-4.29,111.65-9.3-61.31-46.52-113.8-93.04-154.11-139.32"/>
        <path class="cls-3" d="M725.95,773.89s7.15,7.39,9.06,9.78c46.52-1.91,93.99-3.34,145.53-3.82-6.68-18.61-53.92-152.2-58.45-296.53-76.34,6.44-180.59,33.4-246.67,60.12,34.12,76.34,92.56,162.22,150.53,230.45Z"/>
        <path class="cls-3" d="M914.16,164.37c-30.78,8.59-53.44,36.26-53.44,68.95,0,39.6,33.16,71.81,73.95,71.81s73.95-32.21,73.95-71.81c0-32.68-22.66-60.36-53.44-68.95v-62.03h65.84v-38.89h-65.84V0h-41.03v63.46h-65.84v38.89h65.84v62.03Z"/>
        <path class="cls-3" d="M1813.31,1068.52c-10.26-5.25-276.73-101.39-878.63-101.39s-868.37,96.14-878.63,101.39c-7.87,8.11-56.06,287.23-56.06,567.54s55.82,643.4,252.88,930.63c196.82,286.99,609.05,649.37,682.05,689.68,72.76-40.55,485.24-402.69,682.05-689.68,196.81-287.23,252.88-650.32,252.88-930.63s-48.19-559.67-56.07-567.54"/>
        <path class="cls-3" d="M1422.3,806.09c-4.06,5.01-5.25,11.21-1.19,16.46,2.63,3.1,5.49,5.01,9.3,5.25,2.86.24,5.96-.48,10.26-2.14,97.57-47.48,326.35-155.3,295.1-282.94-6.92-29.34-26.96-53.68-53.67-69.9-18.85-11.45-42.22-19.09-69.66-22.19-16.22-1.91-33.64-2.14-52.48-.95-5.49,19.08-13.6,38.41-24.57,58.69,27.91,8.59,45.8,25.53,54.16,51.29,10.5,31.97-15.51,83.5-68.95,142.9-47.71,52.96-96.62,101.39-98.29,103.54Z"/>
        <path class="cls-3" d="M1153.46,356.17c28.15-7.39,148.87-42.94,191.81,35.79,51.29,114.27-90.42,298.68-168.18,389.81-4.53,5.49-3.82,12.64,1.9,17.18,2.87,2.14,6.21,3.34,9.54,3.34.24,0,5.73,0,10.74-3.34,10.5-7.64,112.12-75.86,190.85-166.28,66.56-76.58,169.86-191.8,109.98-302.26-31.97-59.17-88.75-92.56-161.75-96.38-3.1-.24-6.2-.24-9.54-.24-48.19,0-122.86,18.61-204.93,99.96-1.43,1.43-10.26,10.73-6.2,17.41,8.35,12.16,20.28,8.83,35.79,4.77"/>
        <path class="cls-3" d="M1442.35,624.78c-6.68,7.88-13.12,15.27-19.32,22.42l-3.82,4.06c-40.32,46.28-92.8,92.8-154.11,139.32,71.33,4.77,111.65,9.3,111.65,9.3,0,0,15.98-18.13,54.15-84.21,21-36.5,24.57-68.23,11.69-90.89"/>
        <path class="cls-3" d="M1134.37,783.92c1.91-2.38,8.11-8.83,9.07-9.78,57.97-68.23,116.42-154.11,150.53-230.45-66.08-26.72-170.33-53.68-246.67-60.12-4.53,144.33-51.53,277.92-58.44,296.53,51.53.48,99,1.91,145.52,3.82Z"/>
        <path class="cls-3" d="M934.69,329.7c-36.98,0-67.99,60.35-66.32,183.69,1.19,75.86,34.35,235.23,57.25,274.35,3.34,5.73,6.44,7.88,9.07,7.88s5.73-2.15,9.07-7.88c22.9-39.12,56.06-198.48,57.25-274.35,1.67-123.1-29.34-183.69-66.32-183.69Z"/>
        <path class="cls-3" d="M934.69,834.26c-235.7,0-418.2,18.13-418.2,18.13v77.06s180.35-18.13,418.2-18.13,418.2,18.13,418.2,18.13v-77.06s-182.26-18.13-418.2-18.13Z"/>
        <path class="cls-4" d="M1722.43,1142.95c-9.06-4.06-254.31-73-787.73-73s-778.67,68.94-787.73,73c-6.92,7.16-42.7,284.37-42.7,530.8s49.62,579.71,224.49,832.35c173.19,250.26,536.53,576.13,605.95,616.45,69.42-40.32,432.51-366.19,605.95-616.45,174.86-252.64,224.49-585.91,224.49-832.35s-35.54-523.64-42.7-530.8Z"/>
        <path class="cls-2" d="M1501.52,2446.94c-163.18,232.84-506.23,551.8-566.83,584.72-60.59-32.92-403.65-351.88-566.83-584.72-163.42-233.08-209.7-540.82-209.7-768.18s32.44-483.56,39.13-490.01c8.82-3.82,238.08-63.46,737.4-63.46s728.57,59.64,737.4,63.46c6.68,6.44,39.12,262.66,39.12,490.01s-46.52,535.1-209.7,768.18Z"/>
        <path class="cls-4" d="M1658.98,1578.8H210.42c-1.19,33.16-1.91,66.8-1.91,99.96,0,136.22,19.56,481.18,200.87,739.79,147.67,210.65,432.75,478.79,525.31,552.03,92.8-73.24,377.65-341.38,525.31-552.03,181.31-258.6,200.87-603.56,200.87-739.79,0-33.16-.72-66.8-1.91-99.96Z"/>
        <path class="cls-2" d="M1658.98,1578.81c-5.49-149.81-21-292.24-29.82-349.5-70.37-15.26-290.8-54.63-694.46-54.63s-624.08,39.36-694.46,54.63c-8.83,57.26-24.33,199.92-29.82,349.5h1448.55Z"/>
        <path class="cls-4" d="M398.87,1345.01c0-10.73,6.68-17.17,17.41-17.17,6.44,0,12.4,2.14,17.65,5.49l7.63-28.15c-9.54-5.73-19.56-8.59-30.78-8.59-30.06,0-46.05,24.09-46.05,51.77,0,25.77,12.41,38.89,32.45,52.48,9.78,6.92,20.52,12.17,20.52,25.77,0,11.69-8.83,19.09-20.04,19.09-6.2,0-11.45-1.43-16.7-3.58l-9.78,27.67c7.87,5.73,20.04,8.83,29.82,8.83,32.68,0,50.81-23.62,50.81-54.87,0-47.71-53.2-49.38-53.2-78.49"/>
        <path class="cls-4" d="M469.96,1475.52h50.34l6.2-152.44h.72v4.05l30.06,148.39h26.96l27.43-152.44h.48l10.02,152.44h48.19s-5.73-8.11-7.39-21.47c-1.43-12.64-17.65-180.12-19.8-201.11-19.09,1.19-37.93,2.38-56.78,3.58l-16.46,132.4h-.71l-20.04-129.78c-18.85,1.43-37.46,3.1-55.82,4.77-2.63,29.82-15.27,180.12-16.46,191.09-1.19,12.17-7.15,20.52-7.15,20.52"/>
        <path class="cls-4" d="M1140.81,1363.63c0,57.73,34.11,114.27,95.9,114.27,15.27,0,22.9-2.38,29.58-6.44l-9.78-38.41c-5.49,1.67-10.98,3.1-16.46,3.1-37.21,0-53.68-40.32-53.68-72.76s16.22-68.47,53.92-68.47c5.49,0,10.74.96,16.22,2.39l10.74-36.27c-6.44-3.1-15.03-5.96-23.86-7.15-3.34,0-6.44-.48-9.78-.48-57.73.71-92.8,56.3-92.8,110.45"/>
        <path class="cls-4" d="M1519.16,1331.89l10.5-32.68h-83.73v176.3h35.07v-73.24h29.34v-32.68h-29.34v-37.69h38.17Z"/>
        <path class="cls-4" d="M1606.73,1446.4c-29.82.95-46.28-28.87-47.23-58.21-.96-31.73,15.98-57.73,42.94-57.73,5.73,0,8.83,0,13.12.96l7.39-26.48c-6.68-3.1-13.84-4.77-23.62-4.53-46.28,1.43-73.48,46.28-72.05,88.98,1.43,45.33,30.06,88.74,79.21,87.32,12.16-.48,18.85-2.87,23.38-6.44l-9.3-26.48c-3.58,1.43-7.39,2.63-13.84,2.87"/>
        <path class="cls-4" d="M838.56,1475.52h47.23v-112.84l-2.14-22.66.71-.48,51.53,136.22h39.6v-207.07c0-10.02,3.58-18.61,6.44-23.62h-48.19v106.63c0,11.69.95,23.38,3.34,34.12l-.48.48-50.1-140.99c-14.08,0-28.39.24-42.23.48v209.22c0,14.31-5.25,21-5.25,21"/>
        <path class="cls-4" d="M749.8,1436.39c-27.91,0-29.82-57.02-29.82-74.91,0-20.04,1.91-74.91,29.82-74.91s29.82,54.87,29.82,74.91c0,17.9-1.91,74.91-29.82,74.91ZM749.8,1245.53c-37.45,0-74.43,31.49-74.43,115.94s36.98,115.94,74.43,115.94,74.44-31.49,74.44-115.94-36.98-115.94-74.44-115.94Z"/>
        <path class="cls-4" d="M1061.83,1336.43l4.53-28.39h.48l4.77,28.39,10.74,60.12h-29.58l9.06-60.12ZM1038.45,1475.51l7.64-43.66h42.46l7.88,43.66h47.23s-6.92-8.35-9.78-20.76c-2.86-11.45-39.84-181.55-45.56-207.79-14.79-.48-29.82-.72-44.61-1.19l-48.91,229.74h44.14-.48Z"/>
        <path class="cls-4" d="M1343.82,1440.43c-27.91,0-30.06-53.43-30.06-70.14,0-18.61,1.91-70.14,30.06-70.14s30.06,51.29,30.06,70.14c0,16.94-1.91,70.14-30.06,70.14ZM1343.82,1261.75c-37.69,0-75.15,29.58-75.15,108.54s37.45,108.79,75.15,108.79,74.91-29.58,74.91-108.79-37.21-108.54-74.91-108.54Z"/>
        <path class="cls-4" d="M285.31,1413.95l7.39-46.28,3.58-21h.48l4.05,21,8.59,46.28h-24.1ZM315.84,1302.07h-36.26l-40.08,173.43h33.88l6.2-34.36h34.83l6.44,34.36h39.84s-4.53-5.01-6.68-14.08c-1.91-9.06-38.17-159.36-38.17-159.36Z"/>
        <path class="cls-2" d="M1560.2,2091.72v-467.35h-276.97v941.61c52.01-58.69,100.68-118.33,139.56-173.68,65.37-93.28,108.79-198.72,137.41-300.82"/>
        <path class="cls-2" d="M309.18,1624.37v467.35c28.87,102.1,72.28,207.55,137.41,300.83,38.89,55.34,87.55,114.75,139.56,173.67v-941.61h-276.97v-.24Z"/>
        <path class="cls-2" d="M774.37,1624.37v1138.66c63.69,62.5,121.19,114.99,160.31,148.39,38.89-33.4,96.62-85.88,160.31-148.39v-1138.66h-320.63Z"/>
      </g>
    </g>
  </g>
</svg>