<?xml version="1.0" encoding="UTF-8"?>
<!DOCTYPE svg PUBLIC "-//W3C//DTD SVG 1.1//EN" "http://www.w3.org/Graphics/SVG/1.1/DTD/svg11.dtd">
<!-- Creator: CorelDRAW 2019 (64-Bit) -->
<svg xmlns="http://www.w3.org/2000/svg" xml:space="preserve" width="179.484mm" height="253.316mm" version="1.1" style="shape-rendering:geometricPrecision; text-rendering:geometricPrecision; image-rendering:optimizeQuality; fill-rule:evenodd; clip-rule:evenodd"
viewBox="0 0 179.2022 252.9177"
 xmlns:xlink="http://www.w3.org/1999/xlink"
 xmlns:xodm="http://www.corel.com/coreldraw/odm/2003">
 <defs>
  <style type="text/css">
   <![CDATA[
    .fil1 {fill:#EC1638}
    .fil2 {fill:#EC173A}
    .fil0 {fill:white}
   ]]>
  </style>
 </defs>
 <g id="Layer_x0020_1">
  <metadata id="CorelCorpID_0Corel-Layer"/>
  <g id="_744927760">
   <path class="fil0" d="M68.4418 21.317l0 21.6426c-7.7791,-0.9734 -14.6849,-2.4482 -20.2352,-4.2979l0 -21.6391c4.9562,1.841 11.9612,3.3335 20.2352,4.2944z"/>
   <path class="fil0" d="M106.8617 21.8045l0 21.6901c-5.293,0.4946 -10.9133,0.7621 -16.7494,0.7621 -6.4947,0 -12.7227,-0.3309 -18.5266,-0.9381l0 -21.6672c5.7268,0.549 11.9775,0.8536 18.5266,0.8536 5.8808,0 11.5107,-0.2499 16.7494,-0.7005z"/>
   <path class="fil0" d="M131.3333 17.269l0 21.6145c-5.8581,1.8849 -13.1394,3.3633 -21.3269,4.2908l0 -21.6655c8.6659,-0.9082 16.0565,-2.3813 21.3269,-4.2398z"/>
   <path class="fil1" d="M169.5644 29.9357c-0.0291,14.4653 -1.1172,48.8899 -9.5136,87.365 -5.8103,26.6233 -14.0485,50.1603 -24.4839,69.9644 -12.3502,23.434 -27.8531,41.7159 -46.1123,54.377 -2.1272,-1.3648 -5.8238,-3.9539 -10.4582,-8.0775 -6.8351,-6.0836 -17.171,-16.843 -27.5873,-33.5547 -11.7327,-18.8279 -21.1722,-41.2148 -28.0555,-66.5373 -8.2739,-30.4258 -12.8575,-65.1921 -13.6377,-103.4032 3.7738,2.6347 9.8897,6.482 18.1438,10.3329 13.1688,6.1441 34.5694,13.4709 61.726,13.4709 27.1526,0 48.3001,-7.1631 61.2566,-13.1718 8.8393,-4.099 15.1506,-8.198 18.7222,-10.7658z"/>
   <path class="fil0" d="M55.0107 15.7378c7.6397,1.8515 20.6071,2.955 34.7579,2.955 14.2649,0 27.3253,-1.1211 34.9358,-2.9991l0.095 -0.0229 0.0117 -0.0017c5.6539,-1.4116 5.7191,-2.6172 5.7191,-2.6682 0,-0.2868 -0.591,-0.9891 -2.8084,-1.7987 -6.4843,-2.3637 -21.3817,-3.8914 -37.9531,-3.8914 -16.57,0 -31.4659,1.5277 -37.949,3.8914 -2.2178,0.8095 -2.8099,1.5118 -2.8099,1.7987 0,0.4347 1.2155,1.5575 5.8127,2.6893l0.1883 0.0475zm-6.0011 22.3413l0 0 0 -19.9178c4.7994,1.6421 11.1959,2.9709 18.6291,3.8702l0 20.0147c-7.0317,-0.924 -13.4413,-2.288 -18.6291,-3.9671zm61.7998 4.1923l0 0 0 -20.0392c7.8457,-0.8588 14.6183,-2.1789 19.7206,-3.8421l0 19.9056c-5.5142,1.723 -12.3011,3.0904 -19.7206,3.9757zm-38.4199 0.3221l0 0c5.7041,0.5702 11.6618,0.8606 17.7228,0.8606 5.4286,0 10.789,-0.234 15.9471,-0.6917l0 -20.0833c-5.1685,0.4171 -10.5289,0.6301 -15.9471,0.6301 -6.091,0 -12.0489,-0.2623 -17.7228,-0.7762l0 20.0604zm-61.837 -10.977l0 0c0.8709,37.5265 5.4368,71.7156 13.5759,101.6451 6.8627,25.2483 16.2703,47.5624 27.9621,66.3236 10.3646,16.6284 20.642,27.3301 27.4392,33.3793 4.2201,3.7551 7.6532,6.2314 9.9084,7.7104 17.955,-12.571 33.2334,-30.6631 45.4186,-53.7836 10.4039,-19.745 18.6168,-43.2162 24.4097,-69.761 8.177,-37.4722 9.3863,-71.3494 9.4882,-85.6405 -3.8364,2.6575 -9.7144,6.2954 -17.574,9.9386 -13.0287,6.0439 -34.2914,13.2475 -61.5948,13.2475 -27.3032,0 -48.8218,-7.3656 -62.0659,-13.5467 -7.4647,-3.4813 -13.1854,-6.9643 -16.9673,-9.5127zm76.8092 219.06l0 0c-0.8821,-0.4587 -21.8487,-11.625 -43.0498,-45.3605 -12.2875,-19.5565 -22.1564,-42.7624 -29.332,-68.9716 -8.9215,-32.5929 -13.6914,-69.9804 -14.1769,-111.1255l0 -0.0546c0,-1.7828 0.7453,-4.1799 2.8367,-5.5615 0.5857,-0.3854 1.5632,-1.0278 3.0462,-1.0278 0.4147,0 0.8479,0.051 1.2886,0.1514 0.6756,0.1567 1.3584,0.4452 2.0287,0.8623l0.433 0.2693c0.5913,0.3678 1.1702,0.7674 1.7215,1.1915 1.8061,1.3869 8.5663,6.3096 19.7175,11.4769 2.9454,1.3657 6.0041,2.6434 9.1087,3.8033l0 -25.8807c0,-2.8741 4.9493,-5.243 14.7104,-7.0418 9.1093,-1.679 21.2113,-2.6047 34.0743,-2.6047 12.8638,0 24.9656,0.9257 34.0765,2.6047 9.7624,1.7988 14.7124,4.1677 14.7124,7.0418l0 25.8121c18.1402,-6.857 28.2133,-15.2733 28.6418,-15.6341 0.7451,-0.6635 2.7823,-2.2387 5.264,-2.2387 0.8043,0 1.5891,0.1672 2.3307,0.4963 1.3354,0.5932 3.5741,2.1982 3.5741,6.2796 0,0.0334 0.0071,0.3538 0.0071,0.3538 0.1515,10.8591 -0.102,49.7056 -9.6965,93.669 -5.9797,27.3981 -14.491,51.6874 -25.2963,72.194 -13.5184,25.6485 -30.7223,45.5116 -51.1341,59.0374l-2.3699 1.5682 -2.5168 -1.3103z"/>
   <path class="fil2" d="M89.5856 55.4784c27.4498,0 48.8301,-7.2442 61.9325,-13.3196 7.0846,-3.2859 12.5736,-6.5701 16.4188,-9.1414 -0.178,15.0497 -1.5737,47.8233 -9.455,83.9409 -5.7777,26.4755 -13.966,49.8779 -24.3355,69.5582 -12.0236,22.8146 -27.0668,40.7024 -44.7222,53.1861 -2.2262,-1.4892 -5.4506,-3.8582 -9.3611,-7.3375 -6.7573,-6.0149 -16.9778,-16.6582 -27.2915,-33.204 -11.6499,-18.6952 -21.0265,-40.9378 -27.8684,-66.1092 -8.0101,-29.4578 -12.5523,-63.0587 -13.5101,-99.913 3.7717,2.4605 9.0813,5.5898 15.7872,8.7191 13.3179,6.2145 34.9558,13.6206 62.4052,13.6206zm-16.3941 -13.6136l0 0c5.4582,0.521 11.1425,0.785 16.9208,0.785 5.1479,0 10.2355,-0.2094 15.1435,-0.623l0 -18.4799c-4.9197,0.3748 -10.0052,0.5649 -15.1435,0.5649 -5.8031,0 -11.4859,-0.2358 -16.9208,-0.7022l0 18.4552zm38.4209 -18.9146l0 0 0 18.4148c6.7711,-0.8501 12.9765,-2.105 18.1149,-3.6625l0 -18.2177c-4.8545,1.4749 -11.0413,2.6594 -18.1149,3.4654zm-61.7999 14.5428l0 0c4.814,1.51 10.6439,2.7545 17.0232,3.6344l0 -18.3867c-6.657,-0.836 -12.467,-2.0204 -17.0232,-3.4689l0 18.2212zm0.1733 -24.492l0 0c0.2771,-0.22 0.8744,-0.5949 2.1085,-1.0437 6.4027,-2.3355 21.1901,-3.8438 37.6742,-3.8438 16.4855,0 31.2749,1.5083 37.6777,3.8438 1.2334,0.4488 1.8313,0.8237 2.1072,1.0437 -0.432,0.3414 -1.6453,1.0595 -4.8346,1.8639l-0.0006 0 -0.0131 0.0035 -0.0028 0 -0.1897 0.0457c-7.5522,1.8639 -20.5404,2.9761 -34.7441,2.9761 -14.0268,0 -26.8708,-1.0859 -34.4642,-2.9074l-0.2893 -0.0722c-3.3343,-0.8202 -4.5884,-1.5593 -5.0291,-1.9096zm39.7827 -13.001l0 0c-12.9106,0 -25.0631,0.9292 -34.22,2.6171 -4.5266,0.8342 -8.1043,1.8162 -10.633,2.918 -1.4032,0.6107 -2.4592,1.2443 -3.2292,1.9378 -0.9987,0.8993 -1.5054,1.9007 -1.5054,2.9743l0 24.7192c-2.7135,-1.042 -5.3852,-2.1702 -7.9683,-3.3669 -11.0754,-5.1339 -17.7759,-10.0126 -19.5661,-11.3872 -0.5725,-0.44 -1.1736,-0.8554 -1.7868,-1.2356l-0.4332 -0.2693c-0.7458,-0.4647 -1.5103,-0.7885 -2.2728,-0.9627 -0.499,-0.1144 -0.9926,-0.1742 -1.4679,-0.1742 -1.7235,0 -2.8701,0.7568 -3.4862,1.1616 -2.3595,1.5575 -3.1997,4.2398 -3.1997,6.2321l0 0.0652c0.4869,41.2137 5.2657,78.6685 14.2051,111.3266 7.1962,26.2857 17.0974,49.5638 29.4269,69.1877 21.3154,33.9176 42.4689,45.1823 43.3593,45.645l2.0967 1.0918 0.8386 0.4371 0.7894 -0.5219 1.975 -1.3069c20.5267,-13.6021 37.8195,-33.5643 51.4016,-59.333 10.8391,-20.5712 19.3751,-44.9294 25.3707,-72.3974 9.6125,-44.0502 9.866,-82.9707 9.7145,-93.8491l-0.0035 -0.1954c-0.0017,-0.0704 -0.0035,-0.1197 -0.0035,-0.1497 0,-4.7062 -2.8318,-6.4732 -4.0493,-7.0136 -0.8472,-0.3748 -1.7409,-0.5649 -2.658,-0.5649 -2.7389,0 -4.9539,1.6931 -5.7961,2.4394 -0.581,0.4892 -10.1415,8.4022 -27.3075,15.069l0 -24.6469c0,-2.8494 -3.5641,-4.4017 -4.7354,-4.9122 -2.5287,-1.1018 -6.107,-2.0838 -10.6344,-2.918 -9.1574,-1.6878 -21.3102,-2.6171 -34.2214,-2.6171zm-0.1829 53.8733l0 0c-27.1566,0 -48.5572,-7.3268 -61.726,-13.4709 -8.2541,-3.8509 -14.3696,-7.6983 -18.1438,-10.3329 0.7803,38.2111 5.3639,72.9774 13.6377,103.4032 6.8834,25.3225 16.3228,47.7095 28.0555,66.5373 10.4163,16.7117 20.7521,27.4717 27.5865,33.5547 4.6352,4.1236 8.3319,6.7127 10.4583,8.0775 18.2598,-12.6611 33.7628,-30.943 46.113,-54.377 10.4355,-19.8048 18.6737,-43.3412 24.4839,-69.9644 8.3964,-38.4751 9.4846,-72.8997 9.5136,-87.365 -3.5716,2.5679 -9.8829,6.6668 -18.7222,10.7658 -12.9565,6.0086 -34.1039,13.1718 -61.2566,13.1718zm0.5267 -9.6166l0 0c5.8361,0 11.4572,-0.2675 16.7494,-0.7621l0 -21.6901c-5.2381,0.4506 -10.8686,0.7005 -16.7494,0.7005 -6.5491,0 -12.7998,-0.3045 -18.5259,-0.8536l0 21.6672c5.804,0.6072 12.0313,0.9381 18.5259,0.9381zm19.8941 -1.0824l0 0c8.1875,-0.9275 15.4688,-2.4059 21.3269,-4.2908l0 -21.6145c-5.2704,1.8586 -12.6611,3.3317 -21.3269,4.2398l0 21.6655zm-41.5646 -0.2147l0 0 0 -21.6426c-8.2741,-0.961 -15.279,-2.4534 -20.2352,-4.2944l0 21.6391c5.5504,1.8497 12.4562,3.3246 20.2352,4.2979zm21.3267 -23.4643l0 0c-14.7777,0 -27.7569,-1.2039 -35.1284,-3.0219 -0.0032,0 -0.0061,0 -0.0095,-0.0035 -4.0694,-1.0014 -6.4241,-2.1929 -6.4241,-3.4689 0,-0.9047 1.1886,-1.7688 3.3378,-2.5538 6.349,-2.3144 21.0726,-3.9406 38.2241,-3.9406 17.1517,0 31.8779,1.6262 38.2283,3.9406 2.1484,0.785 3.3364,1.6491 3.3364,2.5538 0,1.276 -2.354,2.4639 -6.4171,3.4689 -0.007,0 -0.0132,0.0035 -0.0193,0.0035 -7.3681,1.818 -20.3473,3.0219 -35.1284,3.0219zm0 -17.8903l0 0c-26.5008,0 -47.9818,3.96 -47.9818,8.8422l0 27.0352c-3.8452,-1.4009 -7.2689,-2.8459 -10.2493,-4.2274 -11.077,-5.1321 -17.793,-9.9757 -19.8684,-11.5685 -0.5337,-0.4101 -1.085,-0.792 -1.6569,-1.1475l-0.4331 -0.2693c-0.5528,-0.3432 -1.1509,-0.6142 -1.7849,-0.7603 -0.4037,-0.0933 -0.7714,-0.132 -1.1084,-0.132 -1.2141,0 -2.0211,0.5122 -2.6036,0.8958 -1.8245,1.2056 -2.4763,3.3141 -2.4763,4.891l0 0.0458c0.4848,41.0764 5.2451,78.3958 14.1481,110.9217 7.1562,26.1387 16.9941,49.2703 29.238,68.7573 21.0661,33.5216 41.863,44.6193 42.7402,45.0751l2.0975 1.0918 1.9752 -1.307c20.299,-13.4509 37.4116,-33.2144 50.8665,-58.7418 10.7724,-20.4434 19.2583,-44.6646 25.2229,-71.9911 9.5816,-43.8996 9.828,-82.6547 9.6767,-93.4856 -0.0037,-0.183 -0.0054,-0.308 -0.0054,-0.3661 0,-3.6291 -1.9403,-5.0318 -3.0966,-5.5457 -0.6849,-0.3045 -1.3608,-0.4277 -2.0056,-0.4277 -2.2095,0 -4.0672,1.4449 -4.7458,2.0487 -0.5395,0.4559 -11.0974,9.2347 -29.963,16.1796l0 -26.9719c0,-4.8822 -21.4843,-8.8422 -47.9859,-8.8422z"/>
   <path class="fil1" d="M131.3333 13.001c0,1.276 -2.354,2.4639 -6.4171,3.4689 -0.007,0 -0.0132,0.0035 -0.0193,0.0035 -7.3681,1.818 -20.3473,3.0219 -35.1284,3.0219 -14.7777,0 -27.7569,-1.2039 -35.1284,-3.0219 -0.0032,0 -0.0061,0 -0.0095,-0.0035 -4.0694,-1.0014 -6.4241,-2.1929 -6.4241,-3.4689 0,-0.9047 1.1886,-1.7688 3.3378,-2.5538 6.349,-2.3144 21.0726,-3.9406 38.2241,-3.9406 17.1517,0 31.8779,1.6262 38.2283,3.9406 2.1484,0.785 3.3364,1.6491 3.3364,2.5538z"/>
   <path class="fil1" d="M68.4418 21.317l0 21.6426c-7.7791,-0.9734 -14.6849,-2.4482 -20.2352,-4.2979l0 -21.6391c4.9562,1.841 11.9612,3.3335 20.2352,4.2944z"/>
   <path class="fil1" d="M106.8617 21.8045l0 21.6901c-5.293,0.4946 -10.9133,0.7621 -16.7494,0.7621 -6.4947,0 -12.7227,-0.3309 -18.5266,-0.9381l0 -21.6672c5.7268,0.549 11.9775,0.8536 18.5266,0.8536 5.8808,0 11.5107,-0.2499 16.7494,-0.7005z"/>
   <path class="fil1" d="M131.3333 17.269l0 21.6145c-5.8581,1.8849 -13.1394,3.3633 -21.3269,4.2908l0 -21.6655c8.6659,-0.9082 16.0565,-2.3813 21.3269,-4.2398z"/>
   <path class="fil0" d="M95.4068 30.4777c-1.0307,0 -1.9395,0.5122 -2.4915,1.2954 -0.4291,-0.8747 -1.1648,-1.5681 -2.0708,-1.9394 0.9049,-0.5281 1.5147,-1.5066 1.5147,-2.6295 0,-1.6843 -1.364,-3.0483 -3.0471,-3.0483 -1.6829,0 -3.0469,1.364 -3.0469,3.0483 0,1.1317 0.6179,2.1155 1.5344,2.6417 -0.9838,0.4119 -1.7639,1.2074 -2.1615,2.1982 -0.5203,-0.9345 -1.5164,-1.5664 -2.6626,-1.5664 -1.6822,0 -3.0477,1.3623 -3.0477,3.0466 0,1.6826 1.3655,3.0465 3.0477,3.0465 1.1462,0 2.1423,-0.6336 2.6626,-1.5663 0.4066,1.0137 1.2156,1.8197 2.2317,2.2228 -0.9555,0.514 -1.6046,1.5224 -1.6046,2.6841 0,1.6842 1.3641,3.0465 3.0469,3.0465 1.6831,0 3.0471,-1.3623 3.0471,-3.0465 0,-1.1528 -0.6394,-2.1543 -1.5836,-2.6717 0.9365,-0.3625 1.7003,-1.0683 2.1397,-1.9642 0.5519,0.7833 1.4608,1.2954 2.4915,1.2954 1.6835,0 3.0468,-1.364 3.0468,-3.0465 0,-1.6843 -1.3633,-3.0466 -3.0468,-3.0466z"/>
   <path class="fil0" d="M64.2832 27.6266c-1.0305,0 -1.94,0.5121 -2.4916,1.2953 -0.4283,-0.8746 -1.1653,-1.5681 -2.0715,-1.9377 0.9049,-0.528 1.5154,-1.5083 1.5154,-2.6312 0,-1.6843 -1.3641,-3.0465 -3.047,-3.0465 -1.6835,0 -3.0476,1.3622 -3.0476,3.0465 0,1.1317 0.6185,2.1173 1.5345,2.6417 -0.9831,0.4119 -1.7642,1.2074 -2.1616,2.1982 -0.5198,-0.9345 -1.5167,-1.5663 -2.6621,-1.5663 -1.6829,0 -3.0475,1.364 -3.0475,3.0483 0,1.6825 1.3647,3.0447 3.0475,3.0447 1.1454,0 2.1423,-0.6318 2.6621,-1.5663 0.4064,1.0137 1.2161,1.8216 2.2317,2.2246 -0.9558,0.5139 -1.6046,1.5224 -1.6046,2.684 0,1.6827 1.3641,3.0466 3.0476,3.0466 1.683,0 3.047,-1.364 3.047,-3.0466 0,-1.1528 -0.6401,-2.1559 -1.5839,-2.6734 0.937,-0.3625 1.7008,-1.0665 2.14,-1.9624 0.5515,0.7815 1.4611,1.2936 2.4916,1.2936 1.6831,0 3.047,-1.3623 3.047,-3.0447 0,-1.6843 -1.364,-3.0483 -3.047,-3.0483z"/>
   <path class="fil0" d="M126.8851 27.7955c-1.0306,0 -1.9393,0.5121 -2.4907,1.2954 -0.4291,-0.8747 -1.1654,-1.5699 -2.0721,-1.9395 0.9046,-0.528 1.5151,-1.5065 1.5151,-2.6312 0,-1.6826 -1.3641,-3.0448 -3.047,-3.0448 -1.6835,0 -3.0476,1.3623 -3.0476,3.0448 0,1.1334 0.6188,2.1191 1.5352,2.6435 -0.9838,0.4119 -1.7649,1.2073 -2.1614,2.1982 -0.5207,-0.9346 -1.5174,-1.5664 -2.6626,-1.5664 -1.6832,0 -3.0472,1.3622 -3.0472,3.0465 0,1.6826 1.364,3.0466 3.0472,3.0466 1.1459,0 2.1419,-0.6319 2.6626,-1.5664 0.4062,1.0138 1.2155,1.8198 2.2307,2.2229 -0.9547,0.5139 -1.6045,1.5224 -1.6045,2.684 0,1.6843 1.3641,3.0465 3.0476,3.0465 1.683,0 3.047,-1.3622 3.047,-3.0465 0,-1.1528 -0.6394,-2.1542 -1.5833,-2.6717 0.937,-0.3625 1.7002,-1.0683 2.1394,-1.9641 0.5522,0.7832 1.461,1.2954 2.4916,1.2954 1.683,0 3.0464,-1.3641 3.0464,-3.0466 0,-1.6843 -1.3635,-3.0465 -3.0464,-3.0465z"/>
   <path class="fil0" d="M77.0871 152.0344c0,1.4238 -1.1538,2.578 -2.5781,2.578 -1.4238,0 -2.5789,-1.1543 -2.5789,-2.578 0,-1.4246 1.1552,-2.578 2.5789,-2.578 1.4244,0 2.5781,1.1535 2.5781,2.578z"/>
   <path class="fil0" d="M71.9307 157.6588c0,1.4239 -1.1534,2.578 -2.5779,2.578 -1.4246,0 -2.579,-1.1542 -2.579,-2.578 0,-1.4246 1.1545,-2.578 2.579,-2.578 1.4246,0 2.5779,1.1535 2.5779,2.578z"/>
   <path class="fil0" d="M82.5733 157.6588c0,1.4239 -1.1537,2.578 -2.578,2.578 -1.4239,0 -2.5789,-1.1542 -2.5789,-2.578 0,-1.4246 1.1551,-2.578 2.5789,-2.578 1.4244,0 2.578,1.1535 2.578,2.578z"/>
   <path class="fil0" d="M77.0871 163.0942c0,1.4238 -1.1538,2.5779 -2.5781,2.5779 -1.4238,0 -2.5789,-1.1542 -2.5789,-2.5779 0,-1.4246 1.1552,-2.5782 2.5789,-2.5782 1.4244,0 2.5781,1.1537 2.5781,2.5782z"/>
   <path class="fil0" d="M77.5627 157.6415c0,1.6742 -1.3557,3.0305 -3.0297,3.0305 -1.6732,0 -3.0297,-1.3564 -3.0297,-3.0305 0,-1.6732 1.3566,-3.029 3.0297,-3.029 1.6741,0 3.0297,1.3559 3.0297,3.029z"/>
   <path class="fil0" d="M60.1175 163.3224c-3.1714,0 -5.7516,-2.5363 -5.7516,-5.6554 0,-3.1186 2.5802,-5.6561 5.7516,-5.6561 3.1708,0 5.7502,2.5375 5.7502,5.6561 0,3.1191 -2.5794,5.6554 -5.7502,5.6554zm0 -10.2616l0 0c-2.5925,0 -4.7011,2.0651 -4.7011,4.6062 0,2.539 2.1086,4.6055 4.7011,4.6055 2.5919,0 4.7004,-2.0665 4.7004,-4.6055 0,-2.5411 -2.1085,-4.6062 -4.7004,-4.6062z"/>
   <path class="fil0" d="M63.168 158.1799c-0.6374,0.7823 -2.0872,0.6546 -3.2381,-0.2827 -1.1537,-0.9384 -1.5703,-2.3325 -0.9329,-3.1158 0.6372,-0.7816 2.0864,-0.6543 3.2379,0.2842 1.1517,0.9377 1.5697,2.3319 0.9331,3.1143z"/>
   <path class="fil0" d="M83.8348 165.1167l4.7748 0 0 -15.6617 -4.7748 0 0 15.6617zm2.4833 -1.3254l0 0c-0.984,0 -1.7828,-0.6993 -1.7828,-1.56 0,-0.8606 0.7988,-1.5599 1.7828,-1.5599 0.9844,0 1.782,0.6993 1.782,1.5599 0,0.8607 -0.7975,1.56 -1.782,1.56zm0 -4.5897l0 0c-0.984,0 -1.7828,-0.6993 -1.7828,-1.5601 0,-0.8605 0.7988,-1.5591 1.7828,-1.5591 0.9844,0 1.782,0.6986 1.782,1.5591 0,0.8608 -0.7975,1.5601 -1.782,1.5601zm0 -4.5892l0 0c-0.984,0 -1.7828,-0.6977 -1.7828,-1.5599 0,-0.8613 0.7988,-1.5591 1.7828,-1.5591 0.9844,0 1.782,0.6978 1.782,1.5591 0,0.8622 -0.7975,1.5599 -1.782,1.5599z"/>
   <path class="fil0" d="M113.7457 167.6785l-48.3075 0 -0.6373 -20.4023 49.9514 0 -1.0065 20.4023zm-47.2901 -1.0499l0 0 46.2912 0 0.9026 -18.3025 -47.7642 0 0.5704 18.3025z"/>
   <path class="fil0" d="M101.7983 152.0344c0,1.4238 1.1537,2.578 2.5781,2.578 1.4246,0 2.5788,-1.1543 2.5788,-2.578 0,-1.4246 -1.1543,-2.578 -2.5788,-2.578 -1.4245,0 -2.5781,1.1535 -2.5781,2.578z"/>
   <path class="fil0" d="M106.9553 157.6588c0,1.4239 1.1529,2.578 2.5782,2.578 1.4237,0 2.5787,-1.1542 2.5787,-2.578 0,-1.4246 -1.1551,-2.578 -2.5787,-2.578 -1.4254,0 -2.5782,1.1535 -2.5782,2.578z"/>
   <path class="fil0" d="M96.3121 157.6588c0,1.4239 1.1537,2.578 2.5781,2.578 1.4239,0 2.5794,-1.1542 2.5794,-2.578 0,-1.4246 -1.1556,-2.578 -2.5794,-2.578 -1.4245,0 -2.5781,1.1535 -2.5781,2.578z"/>
   <path class="fil0" d="M101.7983 163.0942c0,1.4238 1.1537,2.5779 2.5781,2.5779 1.4246,0 2.5788,-1.1542 2.5788,-2.5779 0,-1.4246 -1.1543,-2.5782 -2.5788,-2.5782 -1.4245,0 -2.5781,1.1537 -2.5781,2.5782z"/>
   <path class="fil0" d="M101.3234 157.6415c0,1.6742 1.3557,3.0305 3.029,3.0305 1.6742,0 3.0298,-1.3564 3.0298,-3.0305 0,-1.6732 -1.3557,-3.029 -3.0298,-3.029 -1.6734,0 -3.029,1.3559 -3.029,3.029z"/>
   <path class="fil0" d="M118.7686 163.3224c-3.1715,0 -5.751,-2.5363 -5.751,-5.6554 0,-3.1186 2.5795,-5.6561 5.751,-5.6561 3.1708,0 5.7509,2.5375 5.7509,5.6561 0,3.1191 -2.5801,5.6554 -5.7509,5.6554zm0 -10.2616l0 0c-2.5925,0 -4.7011,2.0651 -4.7011,4.6062 0,2.539 2.1086,4.6055 4.7011,4.6055 2.5918,0 4.701,-2.0665 4.701,-4.6055 0,-2.5411 -2.1092,-4.6062 -4.701,-4.6062z"/>
   <path class="fil0" d="M122.173 158.7382c0.7823,-0.6373 0.6546,-2.0873 -0.2826,-3.2382 -0.9384,-1.1535 -2.3325,-1.5695 -3.115,-0.9328 -0.7825,0.6373 -0.6552,2.0865 0.2832,3.2381 0.9377,1.1523 2.3313,1.5702 3.1144,0.9329z"/>
   <path class="fil0" d="M90.2768 165.1167l4.7732 0 0 -15.6617 -4.7732 0 0 15.6617zm2.2913 -1.3254l0 0c-0.9846,0 -1.7828,-0.6993 -1.7828,-1.56 0,-0.8606 0.7981,-1.5599 1.7828,-1.5599 0.9839,0 1.782,0.6993 1.782,1.5599 0,0.8607 -0.7981,1.56 -1.782,1.56zm0 -4.5897l0 0c-0.9846,0 -1.7828,-0.6993 -1.7828,-1.5601 0,-0.8605 0.7981,-1.5591 1.7828,-1.5591 0.9839,0 1.782,0.6986 1.782,1.5591 0,0.8608 -0.7981,1.5601 -1.782,1.5601zm0 -4.5892l0 0c-0.9846,0 -1.7828,-0.6977 -1.7828,-1.5599 0,-0.8613 0.7981,-1.5591 1.7828,-1.5591 0.9839,0 1.782,0.6978 1.782,1.5591 0,0.8622 -0.7981,1.5599 -1.782,1.5599z"/>
   <path class="fil0" d="M89.2654 124.2733c-3.4988,0 -6.3447,-3.0366 -6.3447,-6.769 0,-3.7324 2.8459,-6.7697 6.3447,-6.7697 3.4979,0 6.3442,3.0373 6.3442,6.7697 0,3.7324 -2.8463,6.769 -6.3442,6.769zm0 -12.489l0 0c-2.9197,0 -5.2953,2.5665 -5.2953,5.72 0,3.1541 2.3756,5.72 5.2953,5.72 2.9189,0 5.295,-2.5659 5.295,-5.72 0,-3.1535 -2.3761,-5.72 -5.295,-5.72z"/>
   <path class="fil0" d="M92.3177 118.0391c0.7831,-0.6373 0.6559,-2.0873 -0.2819,-3.2382 -0.9391,-1.1535 -2.3333,-1.5702 -3.1151,-0.933 -0.7822,0.6375 -0.655,2.0867 0.2828,3.2383 0.9376,1.1522 2.3311,1.5695 3.1142,0.9329z"/>
   <path class="fil0" d="M95.1116 148.3261l-10.9062 0 -0.1437 -0.2942c-6.8165,-13.9569 -0.0349,-24.4688 0.0343,-24.5731l0.1554 -0.2344 10.6396 0 0.1341 0.3224c5.4271,13.0657 0.2806,24.364 0.2282,24.4762l-0.1418 0.3032zm-10.249 -1.0498l0 0 9.5699 0c0.7451,-1.8309 4.3113,-11.6888 -0.2442,-23.0029l-9.3603 0c-0.915,1.5765 -5.7349,10.8843 0.0345,23.0029z"/>
   <path class="fil0" d="M87.8664 125.8477l4.7972 0c0,0 2.9288,1.4286 2.5203,9.563 -0.4077,8.1338 -1.6025,10.203 -1.6025,10.203 0,0 -7.9014,-2.6826 -7.8718,-12.1865 0,0 -0.0315,-5.3755 2.1567,-7.5796z"/>
   <polygon class="fil0" points="89.3017,235.8493 82.0481,227.0259 82.0481,167.153 83.0978,167.153 83.0978,226.6505 89.2886,234.1813 95.4115,226.5096 96.8175,167.1407 97.8665,167.1656 96.4531,226.8878 "/>
   <polygon class="fil0" points="89.9576,168.9956 95.0505,168.9956 94.0207,225.7374 89.5864,232.0268 "/>
   <path class="fil0" d="M139.7338 94.3171l1.5145 5.9048 -4.149 0c1.1001,-4.2089 1.7111,-6.5917 1.8321,-7.1464 0.121,-0.5548 0.1919,-0.9536 0.2118,-1.1963l0.1512 0c0.0813,0.757 0.2275,1.5695 0.4394,2.438zm10.7805 14.5507l0 0 -7.0405 -21.7124 -8.1159 0 -7.4793 21.7124 7.0711 0 1.0291 -3.9971 6.4803 0 0.9544 3.9971 7.1009 0zm-23.9077 -17.155l0 0 0 -4.5574 -17.2768 0 0 5.1176 9.4029 0 -10.0236 12.0065 0 4.5883 18.2152 0 0 -5.1176 -9.812 0 9.4943 -12.0373zm-20.9556 17.155l0 0 0 -21.7124 -6.0569 0 0 9.7357c0,1.0897 0.0303,1.8576 0.091,2.3018l-0.0607 0c-0.0604,-0.1417 -0.1492,-0.3032 -0.2646,-0.4847 -0.1162,-0.1816 -0.2398,-0.3685 -0.3713,-0.5604 -0.1314,-0.1918 -0.2626,-0.3787 -0.3932,-0.5601 -0.1314,-0.1816 -0.2427,-0.3383 -0.3334,-0.4696l-7.3439 -9.9626 -6.1771 0 0 21.7124 6.0562 0 0 -9.1154c0,-1.3316 -0.0303,-2.5334 -0.0909,-3.6031l0.0606 0c0.3835,0.6662 0.8779,1.4135 1.4843,2.2405l7.6614 10.4781 5.7385 0zm-31.4185 -7.7829l0 0c-0.3327,0.8284 -0.8021,1.4643 -1.4081,1.9078 -0.6055,0.4447 -1.2868,0.6669 -2.0439,0.6669 -1.2415,0 -2.2233,-0.4951 -2.9451,-1.4844 -0.722,-0.9892 -1.083,-2.3671 -1.083,-4.1332 0,-1.8068 0.3639,-3.2051 1.0905,-4.1944 0.7268,-0.9894 1.7414,-1.4837 3.0437,-1.4837 1.1906,0 2.1296,0.515 2.816,1.5441 0.6867,1.0299 1.0297,2.4379 1.0297,4.2246 0,1.1406 -0.1662,2.125 -0.4998,2.9523zm6.0947 -8.9561l0 0c-0.8937,-1.7106 -2.16,-3.0277 -3.8005,-3.9518 -1.6403,-0.9232 -3.5,-1.3852 -5.5797,-1.3852 -2.1601,0 -4.0878,0.4818 -5.7838,1.4458 -1.6961,0.9638 -3.0135,2.3291 -3.9519,4.0961 -0.9384,1.7661 -1.408,3.7551 -1.408,5.9654 0,2.1099 0.4642,3.9998 1.3929,5.6704 0.928,1.6707 2.2281,2.968 3.8987,3.8914 1.6708,0.9239 3.5256,1.3853 5.5648,1.3853 2.0892,0 3.9764,-0.4764 5.6627,-1.4307 1.6857,-0.9536 2.9977,-2.2915 3.9368,-4.0123 0.9385,-1.7214 1.408,-3.6718 1.408,-5.8527 0,-2.1697 -0.4469,-4.1104 -1.34,-5.8216zm-23.5825 16.739l0 0 0 -21.7124 -9.6457 0 -2.7858 11.7342c-0.2418,1.2518 -0.4186,2.3367 -0.5293,3.2552l-0.0907 0c-0.0311,-0.4036 -0.1037,-0.9762 -0.2201,-1.7181 -0.1161,-0.7423 -0.2097,-1.2339 -0.2798,-1.4766l-2.983 -11.7947 -9.7961 0 0 21.7124 5.7377 0 0 -10.2354c0,-0.8483 -0.0701,-2.9678 -0.2117,-6.3594l0.182 0c0.3831,2.1396 0.621,3.3716 0.7117,3.6946l3.346 12.9002 6.147 0 3.1948 -13.052c0.1718,-0.6558 0.4192,-1.8369 0.7424,-3.5427l0.1815 0 -0.0453 0.999c-0.0708,1.3427 -0.1058,2.5739 -0.1058,3.6946l0 11.9012 6.45 0z"/>
   <path class="fil0" d="M106.6274 80.8612c-1.5855,0.7776 -3.3765,1.1661 -5.3749,1.1661 -2.5039,0 -4.5704,-0.8553 -6.2006,-2.5665 -1.6298,-1.711 -2.4453,-4.0451 -2.4453,-7.0037 0,-3.0677 0.8531,-5.5264 2.5582,-7.3726 1.7063,-1.848 3.9222,-2.7702 6.6473,-2.7702 1.6864,0 3.2912,0.3414 4.8154,1.0278l0 -1.5892c-1.5242,-0.5352 -3.1193,-0.8026 -4.7845,-0.8026 -3.1295,0 -5.7088,1.063 -7.7378,3.1874 -2.0286,2.1261 -3.0428,4.9491 -3.0428,8.4727 0,3.2084 0.9365,5.8112 2.8084,7.8041 1.8723,1.9938 4.2922,2.9908 7.2601,2.9908 1.9078,0 3.74,-0.3638 5.4966,-1.0905l0 -1.4535zm-22.1669 -5.9647l0 0 -8.3732 0 3.6495 -10.0689c0.1608,-0.4153 0.3279,-0.9557 0.4998,-1.6209l0.0604 0c0.0804,0.2517 0.156,0.5051 0.2267,0.7568 0.0711,0.2939 0.1616,0.5914 0.273,0.8941l3.6638 10.039zm4.679 8.1297l0 0 -8.1008 -21.7134 -1.4232 0 -8.1914 21.7134 1.65 0 2.4833 -6.7534 9.418 0 2.4834 6.7534 1.6808 0z"/>
  </g>
 </g>
</svg>
