<?xml version="1.0" encoding="UTF-8" standalone="no"?>
<!-- Created with Inkscape (http://www.inkscape.org/) -->

<svg
   xmlns:dc="http://purl.org/dc/elements/1.1/"
   xmlns:cc="http://creativecommons.org/ns#"
   xmlns:rdf="http://www.w3.org/1999/02/22-rdf-syntax-ns#"
   xmlns:svg="http://www.w3.org/2000/svg"
   xmlns="http://www.w3.org/2000/svg"
   xmlns:sodipodi="http://sodipodi.sourceforge.net/DTD/sodipodi-0.dtd"
   xmlns:inkscape="http://www.inkscape.org/namespaces/inkscape"
   width="606"
   height="714"
   id="svg2"
   version="1.1"
   inkscape:version="0.91 r13725"
   sodipodi:docname="Logo_AS_Nancy_Lorraine_2018.svg">
  <defs
     id="defs4" />
  <sodipodi:namedview
     id="base"
     pagecolor="#ffffff"
     bordercolor="#666666"
     borderopacity="1.0"
     inkscape:pageopacity="0.0"
     inkscape:pageshadow="2"
     inkscape:zoom="2.8276527"
     inkscape:cx="36.868032"
     inkscape:cy="682.22707"
     inkscape:document-units="px"
     inkscape:current-layer="g3336"
     showgrid="false"
     inkscape:window-width="1280"
     inkscape:window-height="691"
     inkscape:window-x="0"
     inkscape:window-y="1"
     inkscape:window-maximized="1"
     fit-margin-bottom="5"
     fit-margin-top="5"
     fit-margin-right="5"
     fit-margin-left="5" />
  <metadata
     id="metadata7">
    <rdf:RDF>
      <cc:Work
         rdf:about="">
        <dc:format>image/svg+xml</dc:format>
        <dc:type
           rdf:resource="http://purl.org/dc/dcmitype/StillImage" />
        <dc:title />
      </cc:Work>
    </rdf:RDF>
  </metadata>
  <g
     inkscape:label="Calque 1"
     inkscape:groupmode="layer"
     id="layer1"
     transform="translate(-243.23273,228.33031)">
    <g
       transform="matrix(1.25,0,0,-1.25,243.43012,1025.6972)"
       inkscape:label="clubs foot"
       id="g2993">
      <g
         transform="translate(-361.52539,52.720136)"
         inkscape:label="clubs foot"
         id="g3336">
        <path
           sodipodi:nodetypes="cccssssssscssssssccsssssssssccssc"
           inkscape:connector-curvature="0"
           id="path4424"
           d="M 601.50609,948.11814 C 513.00306,947.79393 428.10516,929.22306 385.47523,897.29711 l -0.49771,-0.35946 c -10.97989,-49.64514 -19.79057,-94.77993 -20.59939,-135.76238 -0.8107,-41.08269 2.86898,-77.9997 9.87112,-111.12608 7.00213,-33.12641 17.30281,-62.47779 29.72395,-88.39764 12.42123,-25.91984 26.96887,-48.41817 42.41537,-67.8812 15.44661,-19.46302 35.3512,-35.87613 51.42934,-49.63207 16.07825,-13.75594 31.85987,-24.85171 46.1758,-33.65027 14.31593,-8.79859 27.16774,-15.28953 37.32774,-19.88048 10.1599,-4.59095 17.62512,-7.27261 21.23535,-8.40566 5.25596,1.45015 14.00924,4.5437 25.13402,9.62227 11.12488,5.07857 24.64194,12.14277 39.37396,21.48419 14.73168,9.34143 30.67898,20.95995 46.75634,35.19868 16.07748,14.23872 35.82546,31.10588 50.98695,50.87633 15.16158,19.77046 29.29768,42.44224 41.28183,68.3789 11.9838,25.93664 21.79664,55.135 28.34133,87.87228 6.54479,32.73727 9.8105,69.01821 8.65449,109.19057 -2.69505,43.69413 -10.97889,86.79298 -19.3141,123.47563 -0.16945,0.74562 -0.33943,1.49225 -0.50998,2.23992 -0.17055,0.74766 -0.34165,1.49634 -0.5133,2.24603 -0.17165,0.7497 -0.34397,1.50042 -0.51672,2.25216 -0.0211,0.094 -0.0431,0.18796 -0.0642,0.28196 -0.0209,0.094 -0.0431,0.18801 -0.0642,0.28203 -0.021,0.094 -0.0431,0.18808 -0.0641,0.28215 -0.0209,0.094 -0.043,0.18814 -0.0642,0.28223 -0.021,0.0941 -0.0431,0.18821 -0.0642,0.28233 -0.0209,0.0941 -0.0431,0.18828 -0.0642,0.28243 -0.0221,0.0941 -0.0431,0.18833 -0.0652,0.28253 l -0.34154,0.28262 c -23.69952,17.73502 -61.45109,32.14174 -108.41724,41.03286 -35.85776,6.7882 -74.00127,9.78817 -111.51318,9.78817 z"
           style="fill:#ffffff;stroke:none" />
        <path
           inkscape:connector-curvature="0"
           id="path3741"
           d="m 612.86049,412.50986 c 0.6094,2.10597 2.68585,2.78547 4.89946,4.00233 10.76285,5.9163 41.0758,26.82146 51.4736,35.49858 6.23165,5.20047 14.02404,11.06411 14.50755,11.06411 l 0.0111,-38.39768 -14.31063,-9.75095 c -5.79894,-3.95126 -17.34094,-11.71603 -28.9529,-16.88938 l -13.23263,-6.34251 -14.15188,-5.99778 z m -31.81088,-6.17487 c -49.96703,26.05564 -98.3678,64.99877 -128.99324,103.78755 -44.45694,56.30712 -70.91491,123.28655 -77.49995,196.19427 -1.64784,18.24441 -1.54729,25.10223 0.73239,49.95033 3.91976,42.72465 9.61303,78.77322 18.55937,117.51372 l 3.36423,14.56821 14.68005,6.86003 c 41.91238,19.58577 113.48019,35.91815 168.32388,38.41298 l 21.686,0.98649 0,-12.37327 -17.37735,-1.0448 c -48.89703,-2.93992 -103.7389,-16.65143 -141.75242,-35.44083 l -16.18762,-8.00125 -4.16902,-20.85273 C 411.22267,800.90875 404.93298,737.26388 407.37998,704.748 c 8.71327,-115.782 65.93059,-214.42752 160.21353,-276.21614 8.25039,-5.40695 19.3733,-12.06922 24.65474,-14.92243 l 9.33777,-5.04455 0.42317,-11.93468 c -0.63709,0.0215 -10.76495,4.3887 -20.95958,9.70479 z m 111.89391,27.64812 -0.64657,37.63263 12.92793,14.42168 c 20.15045,22.47873 32.00317,44.5346 49.81657,70.42452 l 7.43949,10.81252 c 0.0167,-24.26717 -0.0845,-46.69581 -0.0706,-70.96298 l -12.23551,-13.59541 c -3.13666,-3.48528 -6.09505,-6.05148 -8.21523,-8.34972 -2.12017,-2.29823 -3.92923,-3.96744 -5.86108,-5.8756 -1.93185,-1.90816 -4.14897,-3.89275 -6.76025,-6.17176 -2.61127,-2.279 -4.47918,-4.3649 -8.63766,-7.77567 -0.86874,-0.6193 -3.28945,-2.94293 -5.51509,-4.89181 -2.22564,-1.94888 -4.98749,-4.17301 -7.67605,-6.54336 -2.68855,-2.37037 -5.3038,-4.39943 -7.56127,-6.28319 -2.25746,-1.88376 -4.07589,-3.7847 -5.00827,-4.27375 -0.8219,-0.42341 -1.55415,-1.28258 -1.84242,-1.02106 -0.28826,0.26152 -0.13254,1.64372 -0.15353,2.45296 z m 79.50329,156.61335 c 0.59955,5.10147 1.76477,8.4582 4.02732,14.59465 6.57376,17.8291 13.21773,43.66289 17.26165,67.11932 7.62792,44.24521 2.8311,116.19791 -12.70775,190.6175 -2.18528,10.4658 -3.89755,15.13309 -6.12402,16.69255 -1.29564,0.9075 -2.06824,1.88607 -2.51698,3.77269 l 1.45463,18.97182 33.20096,-13.34189 2.58387,-10.27128 c 7.29101,-28.98194 15.69796,-79.4388 19.4291,-116.60973 7.07798,-70.51095 -10.06786,-146.15666 -47.59818,-209.99875 -3.89336,-6.623 -7.65605,-12.39852 -8.36145,-12.83449 z m -18.12238,298.92302 c -4.97885,2.89538 -38.53279,14.7635 -50.08927,17.71669 l -11.19875,2.86175 0.45838,31.33707 c 3.10137,0 41.82578,-7.63002 55.91184,-11.8485 l 11.36438,-3.40339 -0.79046,-37.03486 c -0.8965,-2.04243 -2.5656,-1.42599 -5.65612,0.37124 z m -83.6854,25.34055 c -5.09732,1.12225 -16.56632,2.88039 -25.48668,3.90695 -8.92025,1.02656 -19.69416,2.30473 -23.94192,2.84038 l -7.72326,0.97391 -0.71591,25.44857 5.76417,-0.0398 c 3.50584,-0.0242 13.4738,-0.37183 22.64207,-1.24775 9.16827,-0.87592 17.53685,-0.75621 27.03655,-1.97451 l 14.00981,-1.79669 -1.15846,-30.30978 c -0.6372,0.087 -5.32906,1.07651 -10.42637,2.19877 z"
           style="fill:#ff3221;fill-opacity:1"
           sodipodi:nodetypes="cssccsscccssssscssccsscssssccsccssccsssscssscscccsssscccsssccssccsccscssccssscccc" />
        <g
           id="g5880">
          <path
             id="path3798"
             d="m 596.84432,755.7118 -4.95471,-6.42175 -8.5531,3.62608 -3.73679,-8.4147 -9.05134,4.78862 c -1.00789,-2.05687 -0.24115,-5.87214 -1.32863,-7.88877 l -9.41118,1.85455 -0.5536,-8.47006 -8.9683,1.16256 -0.692,-7.27982 -6.91998,-2.13136 3.04479,-6.58782 -6.67086,-3.40463 3.70911,-5.48063 -4.87167,-6.00654 5.14847,-3.70911 -5.75742,-6.31103 8.16557,-2.38047 -1.71615,-7.33518 6.97534,-2.02064 -0.11071,-6.64318 10.13085,2.57423 6.22798,-7.94414 c 2.99718,2.87144 5.99891,5.73697 8.99598,8.60846 2.93662,-2.81342 5.86561,-5.62891 8.80221,-8.44237 l 9.1067,8.24861 8.9683,-7.83342 0.16608,-0.1384 0.19377,0.1384 8.9406,7.83342 9.13438,-8.24861 c 2.93663,2.81346 5.8656,5.62895 8.80223,8.44237 2.99706,-2.87149 5.99879,-5.73702 8.99597,-8.60846 l 6.20031,7.94414 10.15853,-2.57423 -0.11072,6.64318 6.94767,2.02064 -1.68849,7.33518 8.16559,2.38047 -5.78511,6.31103 5.14847,3.70911 -4.84399,6.00654 3.70911,5.48063 -6.67086,3.40463 3.04479,6.58782 -6.91999,2.13136 -0.69199,7.27982 -8.9683,-1.16256 -0.5536,8.47006 -9.41117,-1.85455 c -1.08749,2.01663 -0.32077,5.8319 -1.32864,7.88877 l -9.05133,-3.01711 -3.7368,6.64319 -8.5531,-3.62608 -4.9547,6.42175 -6.14495,-5.39758 z m -9.96477,-43.34677 32.38551,0 c 0.89959,0 1.63312,-1.37366 1.63312,-3.10015 0,-1.7265 -0.73353,-3.12783 -1.63312,-3.12783 l -2.768,0 0,-8.29324 -5.34222,7.07532 -3.62607,-5.9958 -4.40111,6.21724 -4.37343,-6.21724 -3.62607,5.9958 -5.34223,-7.07532 0,8.29324 -2.90638,0 c -0.8995,0 -1.63313,1.40133 -1.63313,3.12783 0,1.72649 0.73363,3.10015 1.63313,3.10015 z"
             style="fill:#ff3221;fill-opacity:1"
             inkscape:connector-curvature="0"
             sodipodi:nodetypes="cccccccccccccccccccccccccccccccccccccccccccccccccccccccccsssscccccccccsss" />
          <path
             sodipodi:nodetypes="sscccsssssssccccccccccssssssscccsccccscccsssssccssccccccccccccccccccccssccssssscccsccccsccssccccsscc"
             inkscape:connector-curvature="0"
             id="path5419"
             d="m 491.42036,710.3818 c -0.90164,0.0851 -1.57171,-3.30007 -2.95266,-9.61995 -3.93708,-18.01792 -9.22887,-26.00391 -24.62135,-37.17015 l -4.40518,-3.19077 7.83407,-5.04809 c 11.85996,-7.61051 12.16004,-13.32783 0.88103,-17.4064 -2.8901,-1.04505 -5.26239,-2.37708 -5.26239,-2.95265 0,-0.57559 3.84328,-4.01363 8.54842,-7.64358 18.39775,-14.19378 20.8143,-22.00258 9.71519,-31.50295 -3.55111,-3.03963 -7.04215,-5.52432 -7.73882,-5.52432 -4.01336,0 0.2151,-3.21877 10.78673,-8.23887 26.85675,-12.75331 30.58188,-22.84977 11.90587,-32.36018 -2.54865,-1.29785 -6.60641,-4.43367 -9.00084,-6.95303 l -4.35755,-4.57185 9.00084,-1.09534 c 40.52898,-4.88262 78.33255,-19.1362 100.72372,-38.00356 l 10.19143,-8.61986 0.0714,0 10.19143,8.61986 c 22.39117,18.86736 60.19474,33.12094 100.72372,38.00356 l 9.00084,1.09534 -4.35755,4.57185 c -2.39443,2.51936 -6.45219,5.65518 -9.00084,6.95303 -18.67601,9.51041 -14.95088,19.60687 11.90587,32.36018 10.57163,5.0201 14.80009,8.23887 10.78673,8.23887 -0.69667,0 -4.18771,2.48469 -7.73882,5.52432 -11.09911,9.50037 -8.68256,17.30917 9.71519,31.50295 4.70514,3.62995 8.54842,7.06799 8.54842,7.64358 0,0.57557 -2.37229,1.9076 -5.26239,2.95265 -11.27902,4.07857 -10.97893,9.79589 0.88103,17.4064 l 7.83407,5.04809 -4.40518,3.19077 c -15.39244,11.16624 -20.68423,19.15223 -24.62131,37.17015 -2.94603,13.48241 -2.69115,13.61846 -8.23887,-4.83379 -3.96368,-13.1829 -12.3142,-23.54761 -23.5022,-29.21702 l -7.47689,-3.78607 7.02447,-6.47679 c 13.63923,-12.57218 15.61442,-24.57027 4.40517,-26.81204 -3.38471,-0.67693 -6.07052,0.12135 -10.45336,3.09553 l -5.90531,4.00037 1.07152,-12.23924 c 1.04376,-11.9647 0.97426,-12.27731 -2.92884,-14.83472 -3.29358,-2.15799 -4.8891,-2.32471 -9.19134,-0.90485 -5.64593,1.8633 -13.6212,9.5012 -16.97778,16.12056 -1.87251,3.69269 -0.27797,0.0312 0.16668,-18.0255 0.59169,-24.03085 -1.1912,-31.81242 -7.83406,-34.14605 -5.4545,-1.91611 -12.0804,2.57254 -14.21562,9.64376 -0.81279,2.69188 -1.87196,4.90712 -2.33355,4.90522 -1.57864,-0.005 -6.26249,-17.07718 -6.26249,-21.40677 0,-2.37758 1.09285,-7.50889 2.4288,-11.42964 3.06748,-9.00243 2.39192,-14.83248 -2.04782,-17.76357 l -5.00046,-2.30974 0.0238,40.74191 0,40.74191 23.97843,40.28949 5.19097,6.40536 -8.50076,8.14362 c -2.97139,-3.10143 -5.95803,-6.20896 -8.92941,-9.31039 -3.21065,3.11188 -6.40931,6.22231 -9.61995,9.33421 l -9.09609,-8.9056 -0.0238,0 -9.09609,8.9056 c -3.21063,-3.1119 -6.4093,-6.22233 -9.61995,-9.33421 -2.97138,3.10143 -5.95802,6.20896 -8.92941,9.31039 l -8.50079,-8.14362 5.19096,-6.40536 23.97844,-40.28949 0,-40.74191 0.0238,-40.74191 -5.00047,2.30974 c -4.43974,2.93109 -5.1153,8.76114 -2.04781,17.76357 1.33594,3.92075 2.4288,9.05206 2.4288,11.42964 0,4.32959 -4.68386,21.40201 -6.26249,21.40677 -0.4616,0.002 -1.52077,-2.21334 -2.33356,-4.90522 -2.13521,-7.07122 -8.76112,-11.55987 -14.21561,-9.64376 -6.64286,2.33363 -8.42575,10.1152 -7.83407,34.14605 0.44465,18.05667 2.03919,21.71819 0.16668,18.0255 -3.35658,-6.61936 -11.33185,-14.25726 -16.97778,-16.12056 -4.30224,-1.41986 -5.89776,-1.25314 -9.19134,0.90485 -3.90309,2.55741 -3.9726,2.87002 -2.92884,14.83472 l 1.07153,12.23924 -5.90532,-4.00037 c -4.38284,-2.97418 -7.06865,-3.77246 -10.45336,-3.09553 -11.20925,2.24177 -9.23405,14.23986 4.40518,26.81204 l 7.02447,6.47679 -7.4769,3.78607 c -11.188,5.66941 -19.53852,16.03412 -23.5022,29.21702 -2.94723,9.80275 -4.26435,14.35727 -5.28621,14.45374 z m 104.24786,-54.86228 0,-14.92997 -4.8576,4.8576 c -3.06948,3.06944 -4.50112,5.75712 -3.90513,7.3102 0.51817,1.35034 2.71391,2.28136 4.8576,2.45262 z m 14.07274,0 3.90513,-0.30955 c 2.14369,-0.17126 4.33943,-1.10228 4.8576,-2.45262 0.59599,-1.55308 -0.83565,-4.24076 -3.90513,-7.3102 l -4.8576,-4.8576 z"
             style="fill:#ff3221;fill-opacity:1" />
        </g>
        <g
           id="g5765"
           style="fill:#ff3221;fill-opacity:1"
           transform="matrix(1.2372898,0,0,1.2372898,-1013.3749,-704.09818)">
          <path
             sodipodi:nodetypes="cccccccc"
             d="m 1283.2685,945.1547 -4.1424,-3.64641 -2.4794,2.85879 6.7385,5.68837 4.3239,0 0,-17.81055 -4.4406,0 z"
             style="font-style:normal;font-variant:normal;font-weight:800;font-stretch:normal;font-size:70px;line-height:0%;font-family:Avenir;-inkscape-font-specification:'Avenir Ultra-Bold';text-align:end;letter-spacing:0px;word-spacing:0px;text-anchor:end;fill:#ff3221;fill-opacity:1;stroke:none;stroke-width:1px;stroke-linecap:butt;stroke-linejoin:miter;stroke-opacity:1"
             id="path4991"
             inkscape:connector-curvature="0" />
          <path
             d="m 1298.948,936.42521 q -0.35,-0.0875 -0.7001,-0.14585 -0.35,-0.0584 -0.7292,-0.0584 -1.4586,0 -2.6546,0.52507 -1.1961,0.52509 -2.0421,1.4294 -0.8458,0.9043 -1.3126,2.1295 -0.4667,1.25435 -0.4667,2.65458 0,1.60441 0.5834,2.88795 0.6126,1.31269 1.6336,2.24617 1.0502,0.93348 2.4504,1.42939 1.4001,0.52509 3.0338,0.52509 1.6044,0 3.0046,-0.52509 1.4293,-0.49591 2.4504,-1.42939 1.0501,-0.93348 1.6336,-2.24617 0.6125,-1.28354 0.6125,-2.88795 0,-1.10851 -0.2041,-2.04199 -0.2042,-0.9043 -0.5543,-1.7211 -0.3209,-0.81679 -0.7876,-1.57525 -0.4376,-0.72927 -0.9335,-1.5169 l -4.5215,-7.05943 -5.3383,0 4.8423,7.38032 z m -3.5296,6.35932 q 0,-1.40022 0.9043,-2.3337 0.9334,-0.90431 2.4212,-0.90431 1.4877,0 2.392,0.90431 0.9334,0.93348 0.9334,2.3337 0,1.40021 -0.9334,2.30452 -0.9043,0.93348 -2.392,0.93348 -1.4878,0 -2.4212,-0.93348 -0.9043,-0.90431 -0.9043,-2.30452 z"
             style="font-style:normal;font-variant:normal;font-weight:800;font-stretch:normal;font-size:70px;line-height:0%;font-family:Avenir;-inkscape-font-specification:'Avenir Ultra-Bold';text-align:end;letter-spacing:0px;word-spacing:0px;text-anchor:end;fill:#ff3221;fill-opacity:1;stroke:none;stroke-width:1px;stroke-linecap:butt;stroke-linejoin:miter;stroke-opacity:1"
             id="path4993"
             inkscape:connector-curvature="0" />
          <path
             d="m 1314.8865,945.51779 q 0.35,0.0875 0.7001,0.14585 0.35,0.0584 0.7293,0.0584 1.4586,0 2.6545,-0.52507 1.196,-0.52509 2.0421,-1.4294 0.846,-0.9043 1.3126,-2.15866 0.4668,-1.22519 0.4668,-2.62541 0,-1.60442 -0.6127,-2.91712 -0.5833,-1.28353 -1.6335,-2.21701 -1.021,-0.93348 -2.4504,-1.45856 -1.4002,-0.49592 -3.0046,-0.49592 -1.6335,0 -3.0338,0.49592 -1.4003,0.52508 -2.4505,1.45856 -1.0208,0.93348 -1.6335,2.21701 -0.5834,1.3127 -0.5834,2.91712 0,1.10851 0.2041,2.01282 0.2042,0.93346 0.5252,1.75026 0.35,0.81681 0.7876,1.54608 0.4668,0.75845 0.9626,1.54607 l 4.5215,7.05943 5.3384,0 -4.8424,-7.38031 z m 3.5297,-6.35932 q 0,1.40022 -0.9334,2.30451 -0.9044,0.93349 -2.3921,0.93349 -1.4877,0 -2.4213,-0.93349 -0.9043,-0.90429 -0.9043,-2.30451 0,-1.40022 0.9043,-2.3337 0.9336,-0.90431 2.4213,-0.90431 1.4877,0 2.3921,0.90431 0.9334,0.93348 0.9334,2.3337 z"
             style="font-style:normal;font-variant:normal;font-weight:800;font-stretch:normal;font-size:70px;line-height:0%;font-family:Avenir;-inkscape-font-specification:'Avenir Ultra-Bold';text-align:end;letter-spacing:0px;word-spacing:0px;text-anchor:end;fill:#ff3221;fill-opacity:1;stroke:none;stroke-width:1px;stroke-linecap:butt;stroke-linejoin:miter;stroke-opacity:1"
             id="path4995"
             inkscape:connector-curvature="0" />
          <path
             sodipodi:nodetypes="cccccccccc"
             d="m 1334.6137,945.69903 -6.311,0 0,-3.75716 -3.8989,0 0,7.78278 15.1106,0 0,-3.85058 -8.2554,-16.80261 -5.1049,0 z"
             style="font-style:normal;font-variant:normal;font-weight:800;font-stretch:normal;font-size:70px;line-height:0%;font-family:Avenir;-inkscape-font-specification:'Avenir Ultra-Bold';text-align:end;letter-spacing:0px;word-spacing:0px;text-anchor:end;fill:#ff3221;fill-opacity:1;stroke:none;stroke-width:1px;stroke-linecap:butt;stroke-linejoin:miter;stroke-opacity:1"
             id="path4997"
             inkscape:connector-curvature="0" />
        </g>
        <g
           id="g5736"
           style="fill:#ff3221;fill-opacity:1"
           transform="matrix(1.2372898,0,0,1.2372898,-1013.3749,-704.09818)">
          <path
             sodipodi:nodetypes="ccccccccccc"
             inkscape:connector-curvature="0"
             id="path5003"
             d="m 1180.1011,1275.798 0,-60.9754 15.3737,10e-5 0,29.6943 18.8675,-29.6944 13.6005,0 0,60.9751 -15.6406,10e-5 0.2399,-30.1474 -18.6405,30.1474 z"
             style="fill:#ff3221;fill-opacity:1;fill-rule:evenodd;stroke:none;stroke-width:0.80000001px;stroke-linecap:butt;stroke-linejoin:miter;stroke-opacity:1" />
          <path
             style="fill:#ff3221;fill-opacity:1;fill-rule:evenodd;stroke:none;stroke-width:0.80000001px;stroke-linecap:butt;stroke-linejoin:miter;stroke-opacity:1"
             d="m 1291.7011,1275.798 0,-60.9754 15.3737,10e-5 0,29.6943 18.8675,-29.6944 13.6005,0 0,60.9752 -15.6406,0 0.2399,-30.1474 -18.6405,30.1474 z"
             id="path5005"
             inkscape:connector-curvature="0"
             sodipodi:nodetypes="ccccccccccc" />
          <path
             sodipodi:nodetypes="ccccccccccccc"
             inkscape:connector-curvature="0"
             id="path5007"
             d="m 1253.9503,1275.7978 -21.9297,-60.975 15.8547,0 2.6063,8.7281 18.9875,0 2.6077,-8.7281 15.8532,0 -21.9297,60.975 z m 6.025,-23.2328 5.3266,-16.2079 -10.6531,0 z"
             style="fill:#ff3221;fill-opacity:1;fill-rule:evenodd;stroke:none;stroke-width:0.80000001px;stroke-linecap:butt;stroke-linejoin:miter;stroke-opacity:1" />
          <path
             sodipodi:nodetypes="cccccccccc"
             inkscape:connector-curvature="0"
             id="path5015"
             transform="matrix(0.8,0,0,-0.8,361.36748,950.50187)"
             d="m 1282.3164,-406.62 22.957,45.0243 0,31.1947 19.2637,0 0,-31.1947 22.957,-45.0243 -20.8164,0 -11.7735,27.3407 -11.7734,-27.3407 z"
             style="fill:#ff3221;fill-opacity:1;fill-rule:evenodd;stroke:none;stroke-width:0.80000001px;stroke-linecap:butt;stroke-linejoin:miter;stroke-opacity:1" />
          <path
             sodipodi:nodetypes="cssssssccsssscc"
             inkscape:connector-curvature="0"
             id="rect5043"
             d="m 1377.0368,1231.096 c -1.2929,-2.343 -3.1434,-3.8053 -5.2052,-3.8053 l -2.1407,0 c -3.9279,0 -7.0906,5.3072 -7.0906,11.9 l 0,11.1063 c 0,6.5928 3.1627,11.9016 7.0906,11.9016 l 2.1407,0 c 1.9064,0 3.6321,-1.2506 4.9035,-3.2915 l 10.9728,9.8739 c -4.1231,4.8315 -10.5259,7.9238 -17.7404,7.9238 -12.4951,0 -22.5547,-9.2752 -22.5547,-20.7969 l 0,-21.1937 c 0,-11.5217 10.0597,-20.7985 22.5547,-20.7985 6.7555,0 12.7992,2.7118 16.9261,7.0239 z"
             style="opacity:1;fill:#ff3221;fill-opacity:1;fill-rule:nonzero;stroke:none;stroke-width:1;stroke-linecap:round;stroke-linejoin:round;stroke-miterlimit:4;stroke-dasharray:none;stroke-dashoffset:0;stroke-opacity:1" />
        </g>
        <g
           id="g5743"
           style="fill:#ff3221;fill-opacity:1"
           transform="matrix(1.2372898,0,0,1.2372898,-1013.3749,-704.09818)">
          <path
             inkscape:connector-curvature="0"
             id="rect5045"
             d="m 1234.5795,1206.894 c -3.8888,0 -7.0196,-2.8872 -7.0196,-6.473 l 0,-6.596 c 0,-3.5858 3.1308,-6.4725 7.0196,-6.4725 3.8887,0 7.0191,2.8867 7.0191,6.4725 l 0,6.596 c 0,3.5858 -3.1304,6.473 -7.0191,6.473 z m -0.086,-4.5152 0.6657,0 c 1.2224,0 2.2068,-1.6518 2.2068,-3.7036 l 0,-3.457 c 0,-2.0518 -0.9844,-3.7035 -2.2068,-3.7035 l -0.6657,0 c -1.2225,0 -2.2068,1.6517 -2.2068,3.7035 l 0,3.457 c 0,2.0518 0.9843,3.7036 2.2068,3.7036 z"
             style="opacity:1;fill:#ff3221;fill-opacity:1;fill-rule:nonzero;stroke:none;stroke-width:4;stroke-linecap:round;stroke-linejoin:round;stroke-miterlimit:4;stroke-dasharray:none;stroke-dashoffset:0;stroke-opacity:1" />
          <path
             style="fill:#ff3221;fill-opacity:1;fill-rule:evenodd;stroke:none;stroke-width:0.80000001px;stroke-linecap:butt;stroke-linejoin:miter;stroke-opacity:1"
             d="m 1317.2667,1206.8941 -7.0281,-19.5416 5.0812,0 0.8353,2.7972 6.0852,0 0.8357,-2.7972 5.0807,0 -7.0281,19.5416 z m 1.931,-7.4458 1.7071,-5.1944 -3.4142,0 z"
             id="path5053"
             inkscape:connector-curvature="0"
             sodipodi:nodetypes="ccccccccccccc" />
          <rect
             ry="0"
             rx="0"
             transform="scale(1,-1)"
             y="-1206.894"
             x="1340.0544"
             height="19.541599"
             width="4.4808483"
             id="rect5055"
             style="opacity:1;fill:#ff3221;fill-opacity:1;fill-rule:nonzero;stroke:none;stroke-width:1;stroke-linecap:round;stroke-linejoin:round;stroke-miterlimit:4;stroke-dasharray:none;stroke-dashoffset:0;stroke-opacity:1" />
          <path
             style="fill:#ff3221;fill-opacity:1;fill-rule:evenodd;stroke:none;stroke-width:0.80000001px;stroke-linecap:butt;stroke-linejoin:miter;stroke-opacity:1"
             d="m 1359.1745,1206.8941 0,-19.5416 4.927,0 0,9.5166 6.0467,-9.5166 4.3588,0 0,19.5415 -5.0126,0 0.077,-9.6617 -5.974,9.6617 z"
             id="path5057"
             inkscape:connector-curvature="0"
             sodipodi:nodetypes="ccccccccccc" />
          <g
             transform="translate(0,-0.09544754)"
             id="g5063"
             style="fill:#ff3221;fill-opacity:1">
            <rect
               ry="0"
               rx="0"
               transform="scale(1,-1)"
               y="-1206.9895"
               x="1202.5317"
               height="19.541599"
               width="4.4808483"
               id="rect5059"
               style="opacity:1;fill:#ff3221;fill-opacity:1;fill-rule:nonzero;stroke:none;stroke-width:1;stroke-linecap:round;stroke-linejoin:round;stroke-miterlimit:4;stroke-dasharray:none;stroke-dashoffset:0;stroke-opacity:1" />
            <rect
               style="opacity:1;fill:#ff3221;fill-opacity:1;fill-rule:nonzero;stroke:none;stroke-width:1;stroke-linecap:round;stroke-linejoin:round;stroke-miterlimit:4;stroke-dasharray:none;stroke-dashoffset:0;stroke-opacity:1"
               id="rect5061"
               width="4.1408372"
               height="12.344695"
               x="-1191.5887"
               y="-1214.8765"
               transform="matrix(0,-1,-1,0,0,0)"
               rx="0"
               ry="0" />
          </g>
          <g
             transform="translate(0,-0.09544754)"
             id="g5079"
             style="fill:#ff3221;fill-opacity:1">
            <rect
               style="opacity:1;fill:#ff3221;fill-opacity:1;fill-rule:nonzero;stroke:none;stroke-width:1;stroke-linecap:round;stroke-linejoin:round;stroke-miterlimit:4;stroke-dasharray:none;stroke-dashoffset:0;stroke-opacity:1"
               id="rect5069"
               width="4.4808483"
               height="19.541599"
               x="1389.101"
               y="-1206.9895"
               transform="scale(1,-1)"
               rx="0"
               ry="0" />
            <rect
               ry="0"
               rx="0"
               transform="matrix(0,-1,-1,0,0,0)"
               y="-1401.4457"
               x="-1191.5887"
               height="12.344695"
               width="4.1408372"
               id="rect5071"
               style="opacity:1;fill:#ff3221;fill-opacity:1;fill-rule:nonzero;stroke:none;stroke-width:1;stroke-linecap:round;stroke-linejoin:round;stroke-miterlimit:4;stroke-dasharray:none;stroke-dashoffset:0;stroke-opacity:1" />
            <rect
               style="opacity:1;fill:#ff3221;fill-opacity:1;fill-rule:nonzero;stroke:none;stroke-width:1;stroke-linecap:round;stroke-linejoin:round;stroke-miterlimit:4;stroke-dasharray:none;stroke-dashoffset:0;stroke-opacity:1"
               id="rect5075"
               width="4.1408372"
               height="12.344695"
               x="-1206.9895"
               y="-1401.4457"
               transform="matrix(0,-1,-1,0,0,0)"
               rx="0"
               ry="0" />
            <rect
               ry="0"
               rx="0"
               transform="matrix(0,-1,-1,0,0,0)"
               y="-1400.4038"
               x="-1199.2891"
               height="11.302856"
               width="4.1408372"
               id="rect5077"
               style="opacity:1;fill:#ff3221;fill-opacity:1;fill-rule:nonzero;stroke:none;stroke-width:1;stroke-linecap:round;stroke-linejoin:round;stroke-miterlimit:4;stroke-dasharray:none;stroke-dashoffset:0;stroke-opacity:1" />
          </g>
          <g
             id="g5723"
             style="fill:#ff3221;fill-opacity:1">
            <rect
               transform="scale(1,-1)"
               y="-1206.894"
               x="1256.2505"
               height="19.541576"
               width="4.4808002"
               id="rect5335"
               style="opacity:1;fill:#ff3221;fill-opacity:1;fill-rule:nonzero;stroke:none;stroke-width:5;stroke-linecap:round;stroke-linejoin:round;stroke-miterlimit:4;stroke-dasharray:none;stroke-dashoffset:0;stroke-opacity:1" />
            <path
               style="fill:#ff3221;fill-opacity:1;fill-rule:evenodd;stroke:none;stroke-width:0.80000001px;stroke-linecap:butt;stroke-linejoin:miter;stroke-opacity:1"
               d="m 1261.6927,1195.1275 4.6612,-7.775 5.3977,0 -5.271,8.5294 -4.7879,0 z"
               id="path5339"
               inkscape:connector-curvature="0"
               sodipodi:nodetypes="cccccc" />
            <path
               style="opacity:1;fill:#ff3221;fill-opacity:1;fill-rule:nonzero;stroke:none;stroke-width:1;stroke-linecap:round;stroke-linejoin:round;stroke-miterlimit:4;stroke-dasharray:none;stroke-dashoffset:0;stroke-opacity:1"
               d="m 1256.6921,1206.894 0,-11.8949 8.1971,0 c 2.9382,0 5.3037,2.6524 5.3037,5.9474 0,3.295 -2.3655,5.9475 -5.3037,5.9475 z m 3.4376,-4.1856 3.9927,0 c 1.0165,0 1.8347,-0.9371 1.8347,-2.1015 0,-1.1642 -0.8182,-2.1019 -1.8347,-2.1019 l -3.9927,0 c -1.0165,0 -1.8348,0.9377 -1.8348,2.1019 0,1.1644 0.8183,2.1015 1.8348,2.1015 z"
               id="rect5343"
               inkscape:connector-curvature="0"
               sodipodi:nodetypes="ccssscsssssss" />
          </g>
          <g
             transform="translate(27.84019,0)"
             id="g5728"
             style="fill:#ff3221;fill-opacity:1">
            <rect
               style="opacity:1;fill:#ff3221;fill-opacity:1;fill-rule:nonzero;stroke:none;stroke-width:5;stroke-linecap:round;stroke-linejoin:round;stroke-miterlimit:4;stroke-dasharray:none;stroke-dashoffset:0;stroke-opacity:1"
               id="rect5730"
               width="4.4808002"
               height="19.541576"
               x="1256.2505"
               y="-1206.894"
               transform="scale(1,-1)" />
            <path
               sodipodi:nodetypes="cccccc"
               inkscape:connector-curvature="0"
               id="path5732"
               d="m 1261.6927,1195.1275 4.6612,-7.775 5.3977,0 -5.271,8.5294 -4.7879,0 z"
               style="fill:#ff3221;fill-opacity:1;fill-rule:evenodd;stroke:none;stroke-width:0.80000001px;stroke-linecap:butt;stroke-linejoin:miter;stroke-opacity:1" />
            <path
               sodipodi:nodetypes="ccssscsssssss"
               inkscape:connector-curvature="0"
               id="path5734"
               d="m 1256.6921,1206.894 0,-11.8949 8.1971,0 c 2.9382,0 5.3037,2.6524 5.3037,5.9474 0,3.295 -2.3655,5.9475 -5.3037,5.9475 z m 3.4376,-4.1856 3.9927,0 c 1.0165,0 1.8347,-0.9371 1.8347,-2.1015 0,-1.1642 -0.8182,-2.1019 -1.8347,-2.1019 l -3.9927,0 c -1.0165,0 -1.8348,0.9377 -1.8348,2.1019 0,1.1644 0.8183,2.1015 1.8348,2.1015 z"
               style="opacity:1;fill:#ff3221;fill-opacity:1;fill-rule:nonzero;stroke:none;stroke-width:1;stroke-linecap:round;stroke-linejoin:round;stroke-miterlimit:4;stroke-dasharray:none;stroke-dashoffset:0;stroke-opacity:1" />
          </g>
        </g>
        <g
           id="g5291"
           style="fill:#fe6947;fill-opacity:1;stroke:none">
          <path
             sodipodi:nodetypes="cccccccsccccscccc"
             inkscape:connector-curvature="0"
             style="fill:#fe6947;fill-opacity:1;stroke:none;stroke-width:1.24999988"
             d="m 314.25391,3.1054688 0.46679,16.5566402 c 28.74495,0.576555 57.61804,2.676105 85.70899,6.527344 L 401.07031,9.4140625 383.55859,7.1679688 C 382.74749,7.0639473 381.95689,6.9858286 381.1582,6.8964844 378.93796,6.6754509 376.71407,6.4671601 374.48828,6.265625 366.14429,5.6398661 358.22407,5.5076962 349.76172,4.6992188 345.89867,4.3301497 342.01989,4.0608432 338.27734,3.8320312 330.26836,3.4749754 322.25627,3.2346737 314.25391,3.1054688 Z m 100.90429,8.2285152 -0.24804,17.001954 c 5.33394,0.85729 10.63472,1.779558 15.89257,2.771484 25.06573,4.728791 47.91782,10.77511 68.05469,17.90039 l 0.39649,-18.609374 -14.20508,-4.253907 C 467.44125,20.871431 419.03492,11.333984 415.1582,11.333984 Z"
             transform="matrix(0.8,0,0,-0.8,361.36748,950.50187)"
             id="path5293" />
        </g>
        <path
           sodipodi:nodetypes="cssssscssccccscccssscccsccsccc"
           style="fill:none;fill-opacity:1;stroke:#ffffff;stroke-width:0.4;stroke-miterlimit:4;stroke-dasharray:none"
           d="m 602.00919,396.6302 c -0.63709,0.0215 -10.76495,4.3887 -20.95958,9.70479 -49.96703,26.05564 -98.3678,64.99877 -128.99324,103.78755 -44.45694,56.30712 -70.91491,123.28655 -77.49995,196.19427 -1.64784,18.24441 -1.54729,25.10223 0.73239,49.95033 3.91976,42.72465 9.61303,78.77322 18.55937,117.51372 l 3.36423,14.56821 14.68005,6.86003 c 41.91238,19.58577 113.48019,35.91815 168.32388,38.41298 l 21.686,0.98649 11.2417,0.16361 c 22.99596,-0.46124 46.09443,-2.14088 68.56719,-5.22187 l 11.58438,-1.71719 c 4.26715,-0.68583 8.50777,-1.42365 12.71405,-2.21719 20.05259,-3.78303 38.33426,-8.62009 54.44376,-14.32031 l 13.38824,-8.93063 33.20096,-13.34189 2.58387,-10.27128 c 7.29101,-28.98194 15.69796,-79.4388 19.4291,-116.60973 7.07798,-70.51095 -10.06786,-146.15666 -47.59818,-209.99875 -3.89336,-6.623 -7.65605,-12.39852 -8.36145,-12.83449 l -10.66283,-20.68982 c -2.43362,-3.35918 -4.93481,-6.75993 -7.10627,-9.58591 -14.43887,-18.76317 -33.24507,-34.77111 -48.55625,-48.28438 -4.71828,-4.16426 -9.41984,-8.06421 -14.08438,-11.76562 l -8.93906,-6.88281 c -7.36716,-5.47006 -14.57762,-10.37892 -21.50469,-14.75626 -14.02985,-8.86548 -26.90378,-15.56923 -37.49844,-20.38905 -4.34158,-1.97515 -8.27826,-3.61794 -11.7875,-4.98282 z"
           id="path5295"
           inkscape:connector-curvature="0" />
        <path
           style="fill:#e9e8e7;stroke:none;stroke-width:1.24999988;fill-opacity:1"
           d="M 300.80273,692.33984 C 300.00637,692.31297 287.3468,686.8541 274.60352,680.20898 212.14473,647.63943 151.64313,598.96058 113.36133,550.47461 57.790153,480.09071 24.717628,396.36512 16.486328,305.23047 c -2.0598,-22.80551 -1.933584,-31.37738 0.916016,-62.4375 4.8997,-53.40581 12.016293,-98.46695 23.199218,-146.892579 L 44.806641,77.691406 30.134766,66.505859 29.511719,66.955078 C 15.786856,129.0115 4.7746969,185.43014 3.7636719,236.6582 c -1.013375,51.35337 3.5852156,97.50023 12.3378901,138.90821 8.752663,41.40801 21.629825,78.09628 37.15625,110.49609 15.526538,32.3998 33.709454,60.52277 53.017578,84.85156 19.30826,24.32878 44.18943,44.84609 64.28711,62.04102 20.09781,17.19492 39.82579,31.0643 57.7207,42.0625 17.89492,10.99824 33.96016,19.11092 46.66016,24.84961 12.69987,5.73869 22.03018,9.0915 26.54297,10.50781 z"
           id="path5303"
           transform="matrix(0.8,0,0,-0.8,361.36748,950.50187)"
           inkscape:connector-curvature="0"
           sodipodi:nodetypes="cssssscccssssssscc" />
        <path
           id="path5306"
           d="m 301.48633,710.375 c 6.56995,-1.81269 17.51199,-5.67913 31.41797,-12.02734 13.9061,-6.34822 30.80177,-15.1787 49.21679,-26.85547 18.4146,-11.67679 38.34862,-26.19964 58.44532,-43.99805 20.09685,-17.7984 44.78251,-38.88264 63.73437,-63.5957 18.95198,-24.71308 36.62138,-53.05379 51.60156,-85.47461 14.97975,-32.4208 27.24688,-68.91825 35.42774,-109.83985 8.18099,-40.92158 12.26337,-86.27283 10.81836,-136.48828 -3.36882,-54.61766 -13.72357,-108.49043 -24.14258,-154.343747 -0.21181,-0.932025 -0.42548,-1.866194 -0.63867,-2.800781 -0.21319,-0.934575 -0.42606,-1.869528 -0.64063,-2.806641 -0.21456,-0.937125 -0.43054,-1.876731 -0.64648,-2.816406 -0.0264,-0.1175 -0.0537,-0.234062 -0.0801,-0.351563 -0.0261,-0.1175 -0.0537,-0.23599 -0.0801,-0.353515 -0.0263,-0.1175 -0.0538,-0.233975 -0.0801,-0.351563 -0.0261,-0.1175 -0.0536,-0.235903 -0.0801,-0.353515 -0.0263,-0.117625 -0.0537,-0.235866 -0.0801,-0.353516 -0.0261,-0.117625 -0.0537,-0.233875 -0.0801,-0.351562 -0.0276,-0.117625 -0.0544,-0.235766 -0.082,-0.353516 l -0.42774,-0.353516 -17.99609,10.341797 3.23047,12.839844 c 9.11376,36.22743 19.62123,99.29806 24.28516,145.76172 8.84747,88.13869 -12.5832,182.69543 -59.4961,262.49805 -4.8667,8.27875 -9.57137,15.49995 -10.45312,16.04492 l -13.32813,25.86133 c -3.04202,4.19897 -6.16849,8.44994 -8.88281,11.98242 -18.04859,23.45396 -41.55634,43.46388 -60.69531,60.35547 -5.89785,5.20532 -11.7748,10.08027 -17.60547,14.70703 l -11.17383,8.60351 c -9.20895,6.83758 -18.22202,12.97364 -26.88086,18.44532 -17.53731,11.08185 -33.62972,19.46155 -46.87305,25.48632 -5.42697,2.46894 -10.34782,4.52242 -14.73437,6.22852 l -13.6836,6.67773 z"
           style="fill:#d1d4d5;stroke:none;stroke-width:1.24999988;fill-opacity:1"
           inkscape:connector-curvature="0"
           sodipodi:nodetypes="cssssssccsccccccccccccsscccscccsccc"
           transform="matrix(0.8,0,0,-0.8,361.36748,950.50187)" />
        <g
           id="g5287"
           style="fill:#e22316;fill-opacity:1;stroke:none">
          <path
             style="fill:#e22316;fill-opacity:1;stroke:none;stroke-width:1.24999988"
             d="m 501.33203,539.85352 c -2.92421,4.08737 -5.8851,8.08693 -8.88281,11.98242 -18.04858,23.45396 -41.55633,43.46389 -60.69531,60.35547 -5.89785,5.20533 -11.7748,10.08026 -17.60547,14.70703 l 0.32226,18.75 c 0.0262,1.01155 -0.16892,2.7395 0.19141,3.0664 0.0155,0.014 0.0372,0.0125 0.0547,0.0215 3.0557,-2.33367 6.12426,-4.73093 9.21093,-7.21485 2.66503,-2.19944 5.64993,-4.5461 8.75,-7.27929 2.47814,-2.18483 4.91717,-4.21337 7.18946,-6.13477 0.2333,-0.20578 0.46587,-0.40662 0.69922,-0.61328 1.92538,-1.70518 3.92523,-3.46662 5.92578,-5.23242 0.75087,-0.68188 1.36563,-1.22628 1.88476,-1.66602 3.00681,-2.65646 6.08876,-5.40057 9.19922,-8.19336 0.77714,-0.72918 1.55143,-1.44482 2.38672,-2.17382 0.18249,-0.15927 0.32838,-0.29416 0.50781,-0.45118 2.73838,-2.48021 5.48348,-4.97216 8.24414,-7.55859 0.0157,-0.0147 0.0312,-0.0302 0.0469,-0.0449 2.28429,-2.24389 4.45729,-4.27095 6.97851,-7.00391 2.65023,-2.8728 6.34871,-6.0809 10.26954,-10.4375 l 15.07812,-16.75586 c 0.0724,-0.09 0.14259,-0.18139 0.21484,-0.27148 -0.005,-9.52391 0.0154,-18.63818 0.0293,-27.85156 z m -98.35742,95.64843 c -9.20895,6.83757 -18.22202,12.97365 -26.88086,18.44532 -17.53731,11.08185 -33.62973,19.46154 -46.87305,25.48632 -5.42697,2.46893 -10.34782,4.52242 -14.73437,6.22852 l 0.18359,20.3125 c 0.26088,-0.0982 0.54725,-0.21158 0.8125,-0.3125 l 16.87891,-7.15234 15.77734,-7.56055 c 10.21253,-5.23345 21.45013,-11.54722 33.34961,-19.06445 1.22294,-0.82093 2.62485,-1.74918 3.60352,-2.41602 l 17.88867,-12.1875 z"
             transform="matrix(0.8,0,0,-0.8,361.36748,950.50187)"
             id="path5289"
             inkscape:connector-curvature="0"
             sodipodi:nodetypes="csscccccscscccscccsccccccscccccccccc" />
          <path
             sodipodi:nodetypes="ccc"
             inkscape:connector-curvature="0"
             id="path5299"
             transform="matrix(0.8,0,0,-0.8,361.36748,950.50187)"
             d="m 287.42578,686.55273 c 15.69145,6.9716 14.17741,5.20442 -5e-5,0 z"
             style="fill:#ffd5d5;fill-opacity:1;stroke:none;stroke-width:1.24999988" />
        </g>
        <path
           style="fill:none;stroke:#808080;stroke-width:0.99999994"
           d="M 601.50609,948.11814 C 513.00306,947.79393 428.10516,929.22306 385.47523,897.29711 l -0.49771,-0.35946 c -10.97989,-49.64514 -19.79057,-94.77993 -20.59939,-135.76238 -0.8107,-41.08269 2.86898,-77.9997 9.87112,-111.12608 7.00213,-33.12641 17.30281,-62.47779 29.72395,-88.39764 12.42123,-25.91984 26.96887,-48.41817 42.41537,-67.8812 15.44661,-19.46302 35.3512,-35.87613 51.42934,-49.63207 16.07825,-13.75594 31.85987,-24.85171 46.1758,-33.65027 14.31593,-8.79859 27.16774,-15.28953 37.32774,-19.88048 10.1599,-4.59095 17.62512,-7.27261 21.23535,-8.40566 5.25596,1.45015 14.00924,4.5437 25.13402,9.62227 11.12488,5.07857 24.64194,12.14277 39.37396,21.48419 14.73168,9.34143 30.67898,20.95995 46.75634,35.19868 16.07748,14.23872 35.82546,31.10588 50.98695,50.87633 15.16158,19.77046 29.29768,42.44224 41.28183,68.3789 11.9838,25.93664 21.79664,55.135 28.34133,87.87228 6.54479,32.73727 9.8105,69.01821 8.65449,109.19057 -2.69505,43.69413 -10.97889,86.79298 -19.3141,123.47563 -0.16945,0.74562 -0.33943,1.49225 -0.50998,2.23992 -0.17055,0.74766 -0.34165,1.49634 -0.5133,2.24603 -0.17165,0.7497 -0.34397,1.50042 -0.51672,2.25216 -0.0211,0.094 -0.0431,0.18796 -0.0642,0.28196 -0.0209,0.094 -0.0431,0.18801 -0.0642,0.28203 -0.021,0.094 -0.0431,0.18808 -0.0641,0.28215 -0.0209,0.094 -0.043,0.18814 -0.0642,0.28223 -0.021,0.0941 -0.0431,0.18821 -0.0642,0.28233 -0.0209,0.0941 -0.0431,0.18828 -0.0642,0.28243 -0.0221,0.0941 -0.0431,0.18833 -0.0652,0.28253 l -0.34154,0.28262 c -23.69952,17.73502 -61.45109,32.14174 -108.41724,41.03286 -35.85776,6.7882 -74.00127,9.78817 -111.51318,9.78817 z"
           id="path3893"
           inkscape:connector-curvature="0"
           sodipodi:nodetypes="cccssssssscssssssccsssssssssccssc" />
      </g>
    </g>
  </g>
</svg>
