<?xml version="1.0" encoding="UTF-8" standalone="no"?>
<svg
   width="2500"
   height="2500"
   viewBox="0 0 192.756 192.756"
   version="1.1"
   id="svg103"
   sodipodi:docname="Newcastle.svg"
   xmlns:inkscape="http://www.inkscape.org/namespaces/inkscape"
   xmlns:sodipodi="http://sodipodi.sourceforge.net/DTD/sodipodi-0.dtd"
   xmlns="http://www.w3.org/2000/svg"
   xmlns:svg="http://www.w3.org/2000/svg">
  <defs
     id="defs103" />
  <sodipodi:namedview
     id="namedview103"
     pagecolor="#ffffff"
     bordercolor="#000000"
     borderopacity="0.25"
     inkscape:showpageshadow="2"
     inkscape:pageopacity="0.0"
     inkscape:pagecheckerboard="0"
     inkscape:deskcolor="#d1d1d1" />
  <path
     fill-rule="evenodd"
     clip-rule="evenodd"
     fill="#ffffff"
     fill-opacity="0"
     d="M 0,0 H 192.756 V 192.756 H 0 Z"
     id="path1" />
  <path
     fill-rule="evenodd"
     clip-rule="evenodd"
     fill="#ffffff"
     d="M 111.188,148.227 V 84.723 h -29.86 v 63.504 z"
     id="path2" />
  <path
     fill-rule="evenodd"
     clip-rule="evenodd"
     d="M 68.032,133.764 V 85.37 h 14.106 v 58.036 z m 56.663,0 V 85.37 h -14.107 v 58.036 z m -23.031,20.343 V 78.373 H 90.967 v 75.734 z"
     id="path3" />
  <path
     d="m 83.679,24.002 c 0,0 2.9,-2.352 7.524,-2.352 4.624,0 12.618,2.431 22.885,2.431 10.266,0 14.812,-5.567 16.928,-9.722 0,0 -3.918,2.274 -12.07,2.196 -8.697,-0.084 -12.695,-2.196 -15.518,-3.372 -2.82,-1.176 -7.21,-3.606 -12.774,-3.606 0,0 -4.938,-0.157 -7.367,1.726 z"
     fill-rule="evenodd"
     clip-rule="evenodd"
     fill="#cc2229"
     id="path4" />
  <path
     d="m 92.887,21.65 v -4.508 c 0,0 2.194,0 4.625,0.901 v 4.272 z m -9.248,-2.47 c 0,0 2.234,-2.038 5.408,-2.038 v 4.547 c 0,0 -2.821,0.039 -5.25,2 z m 9.248,-9.447 v 3.881 c 0,0 2.273,0.078 4.466,0.823 v -3.528 z m -9.404,5.88 c 0,0 2.469,-2.038 5.525,-2.038 l 0.039,-3.842 -3.135,0.588 -2.429,2.431 z"
     fill-rule="evenodd"
     clip-rule="evenodd"
     fill="#00acec"
     id="path5" />
  <path
     d="m 83.679,24.002 c 0,0 2.9,-2.352 7.524,-2.352 4.624,0 12.618,2.431 22.885,2.431 10.266,0 14.812,-5.567 16.928,-9.722 0,0 -3.918,2.274 -12.07,2.196 -8.697,-0.084 -12.695,-2.196 -15.518,-3.372 -2.82,-1.176 -7.21,-3.606 -12.774,-3.606 0,0 -4.938,-0.157 -7.367,1.726 m 0,-0.002 0.392,12.701"
     fill="none"
     stroke="#000000"
     stroke-width="0.705"
     stroke-linecap="round"
     stroke-linejoin="round"
     stroke-miterlimit="2.613"
     id="path6" />
  <path
     d="m 82.268,12.902 c 2.021,0 3.658,-1.489 3.658,-3.327 0,-1.836 -1.637,-3.326 -3.658,-3.326 -2.02,0 -3.657,1.489 -3.657,3.326 -0.001,1.839 1.637,3.327 3.657,3.327 z"
     fill-rule="evenodd"
     clip-rule="evenodd"
     fill="#ffffff"
     stroke="#000000"
     stroke-width="0.705"
     stroke-linecap="round"
     stroke-linejoin="round"
     stroke-miterlimit="2.613"
     id="path7" />
  <path
     d="m 82.268,11.439 c 1.131,0 2.048,-0.834 2.048,-1.863 0,-1.028 -0.917,-1.862 -2.048,-1.862 -1.131,0 -2.048,0.834 -2.048,1.862 0,1.029 0.917,1.863 2.048,1.863 z"
     fill-rule="evenodd"
     clip-rule="evenodd"
     id="path8" />
  <path
     d="M 84.619,71.669 83.326,9.224 c -1.175,-1.059 -2.116,0 -2.116,0 l 1.293,62.446 h 2.116 z"
     fill-rule="evenodd"
     clip-rule="evenodd"
     fill="#ffffff"
     stroke="#000000"
     stroke-width="0.705"
     stroke-linecap="round"
     stroke-linejoin="round"
     stroke-miterlimit="2.613"
     id="path9" />
  <path
     d="m 97.697,46.415 c 0,0 -0.471,-2.293 -0.441,-2.705 0.03,-0.412 0.088,-1.176 0.529,-1.617 0.441,-0.441 0.471,-1.529 0.471,-1.676 0,-0.147 -0.176,-1.705 -0.441,-2.146 0,0 3.615,-2.087 3.615,-3.969 0,-1.881 -0.559,-2.558 -0.559,-2.558 0,0 2.146,0.324 1.822,-3.763 0,0 -2.264,-2.529 -4.291,-2.705 0,0 -0.939,0.059 -1.705,0.823 -0.764,0.764 -2.262,1.528 -2.792,1.705 -0.53,0.177 -1.558,1.146 -1.587,3.469 0,0 -1.469,0.059 -2.91,1.94 0,0 -0.999,-0.882 -1.881,-1.352 -0.882,-0.471 -1.411,-0.971 -1.47,-1.206 -0.059,-0.235 -0.823,-1.117 -1.058,-1.234 v -1.676 c 0,0 -0.029,-1.029 -0.793,-1 0,0 -2.91,0.941 -2.91,2.705 0,0 -0.088,1.47 2.175,3.293 0,0 -0.029,1.293 0.47,1.911 l 2.414,2.172 c -1.47,2.094 0.819,3.502 0.819,3.502 0,0 -1.728,1.647 -3.233,0.676 0,0 -0.705,-0.412 -0.852,-0.559 0,0 -0.5,-0.059 -0.5,0.324 0,0.382 0.059,0.97 0.059,0.97 0,0 -0.617,0.441 -0.735,0.765 0,0 0,0.794 0.764,1.059 0,0 -0.029,1.499 0.706,1.499 0.735,0 0.97,-0.206 1.087,-0.294 0,0 0.793,0.529 2.498,0.529 v 3.293 h 10.786 z m 6.789,0.058 -0.029,-2.91 c 0,0 -0.146,-2.646 2.469,-2.646 0,0 2.115,0.029 2.115,1.411 0,0 0.088,0.912 -0.852,0.912 0,0 -1.117,-0.206 -1.117,-1.323 0,0 -0.734,0.559 -0.734,1.617 0,0 0.029,1.793 2.791,1.793 0,0 2.559,0 2.559,-2.617 0,0 3.525,0.97 3.525,-5.086 0,0 0.854,-0.764 1.029,-1.499 0,0 -1.41,-0.088 -2.086,-1.234 0,0 -1,0.206 -1,0.999 0,0 0.176,0.97 0.881,1.235 0,0 0.178,3.911 -1.645,3.911 0,0 -2.439,-0.294 -2.764,-1.765 0,0 -0.297,-0.94 1.088,-0.94 0.793,0 1.117,0.47 1.117,0.47 0,0 0.764,-0.323 0.764,-1.381 0,0 0.588,-2.676 -4.379,-2.676 0,0 0.676,0.5 0.676,1.294 0,0 0.234,0.97 -2.498,2.264 -2.732,1.294 -4.025,2.058 -4.057,4.675 v 3.498 h 2.147 z"
     fill-rule="evenodd"
     clip-rule="evenodd"
     fill="#ffffff"
     stroke="#000000"
     stroke-width="0.705"
     stroke-linecap="round"
     stroke-linejoin="round"
     stroke-miterlimit="2.613"
     id="path10" />
  <path
     d="m 97.873,32.332 c 0,0 1.441,0.647 1.441,2.617 m -8.435,0.646 c 0,0 1.293,-0.765 2.645,-0.823 1.353,-0.059 1.676,-0.147 2.264,-0.264 m -4.703,3.969 1.646,-2.087 m -0.676,3.027 2.146,-2.558 m 1.792,3.911 -2.851,1.94 m 0,0 c 0,0 -0.852,2.587 -6.172,2.587 m 2.058,-0.147 v 1.146 m 1.087,-7.202 c 0,0 -0.997,-0.219 -2.939,1.234 m -0.908,-3.323 c 0.801,-0.713 1.603,-0.357 1.603,-0.357 m -1.782,-1.737 0.178,1.782 -2.498,-2.336 m 6.581,0.151 -0.94,-1.294 m -5.966,-0.382 c 0,0 0.855,0.203 1.058,-2.176 0.118,-1.381 0.441,-1.352 0.441,-1.352 m 7.2,3.94 c 0,0 -0.088,-1.617 1.381,-2.323 1.47,-0.705 1.264,-1.852 1.264,-1.852 m 2.145,-1.382 c 0,0 -0.059,1.176 1.176,1.911 1.234,0.735 1.527,1.881 1.527,1.881 0,0 0.324,0.265 1.471,0.265 m -2.38,-0.941 c 0,0 0.352,1 1.293,1.353 m -1.559,-2.264 c 0,0 -1.352,1.528 -2.233,1.528 -0.882,0 -0.734,-0.059 -0.999,-0.206 0,0 0.235,1.293 1.763,1.529 0,0 -0.029,1.911 0.471,2.528 0.498,0.617 0.41,2.499 0.41,2.911"
     fill="none"
     stroke="#000000"
     stroke-width="0.705"
     stroke-linecap="round"
     stroke-linejoin="round"
     stroke-miterlimit="2.613"
     id="path11" />
  <path
     fill-rule="evenodd"
     clip-rule="evenodd"
     fill="#ffffff"
     stroke="#000000"
     stroke-width="0.705"
     stroke-linecap="round"
     stroke-linejoin="round"
     stroke-miterlimit="2.613"
     d="M 103.723,71.611 V 67.436 H 88.675 v 4.175 z"
     id="path12" />
  <path
     fill-rule="evenodd"
     clip-rule="evenodd"
     fill="#c8bc69"
     stroke="#000000"
     stroke-width="0.705"
     stroke-linecap="round"
     stroke-linejoin="round"
     stroke-miterlimit="2.613"
     d="M 102.488,67.436 V 63.79 H 89.851 v 3.646 z"
     id="path13" />
  <path
     fill-rule="evenodd"
     clip-rule="evenodd"
     fill="#ffffff"
     stroke="#000000"
     stroke-width="0.705"
     stroke-linecap="round"
     stroke-linejoin="round"
     stroke-miterlimit="2.613"
     d="M 101.477,63.731 V 53.03 H 90.838 v 10.701 z"
     id="path14" />
  <path
     d="m 82.856,77.079 c -2.41,0 -2.352,-2.646 -2.352,-2.646 0,-2.646 2.352,-2.764 2.352,-2.764 h 27.097 c 0,0 2.352,0.118 2.352,2.764 0,0 0.059,2.646 -2.352,2.646 z"
     fill-rule="evenodd"
     clip-rule="evenodd"
     fill="#c8bc69"
     stroke="#000000"
     stroke-width="0.705"
     stroke-linecap="round"
     stroke-linejoin="round"
     stroke-miterlimit="2.613"
     id="path15" />
  <path
     d="m 83.444,71.669 4.584,5.469 m 0.588,-5.469 4.584,5.469 m 0.824,-5.469 4.585,5.469 m 0.823,-5.469 4.584,5.469 m 1.058,-5.469 4.584,5.469"
     fill="none"
     stroke="#000000"
     stroke-width="0.705"
     stroke-linecap="round"
     stroke-linejoin="round"
     stroke-miterlimit="2.613"
     id="path16" />
  <path
     d="m 90.144,53.03 v -1.353 c -2.351,0 -2.41,-2.117 -2.41,-2.117 H 86.03 v -3.233 h 4.703 v 1.881 h 2.821 v -1.881 h 5.173 v 1.881 h 2.82 v -1.881 h 4.703 v 3.233 h -1.705 c 0,0 -0.059,2.117 -2.41,2.117 v 1.353 z m 6.222,109.034 c -0.627,-4.469 -13.794,-11.289 -13.794,-11.289 -6.426,-3.371 -12.226,-7.918 -12.226,-7.918 -10.581,-7.605 -7.289,-17.877 -7.289,-17.877 0,0 4.232,-23.832 4.859,-27.518 0.627,-3.685 -2.038,-4.233 -2.038,-4.233 l 2.566,-8.154 c 0,0 7.239,4.821 6.466,11.584 l -4.467,31.281 c 0,0 -1.469,6.057 9.287,12.818 0,0 16.635,9.389 16.635,11.27 h 0.008 c 0,-1.881 16.635,-11.27 16.635,-11.27 10.756,-6.762 9.287,-12.818 9.287,-12.818 L 117.83,96.66 c -1.234,-6.802 6.465,-11.584 6.465,-11.584 l 2.566,8.154 c 0,0 -2.664,0.548 -2.037,4.233 0.627,3.686 4.859,27.518 4.859,27.518 0,0 3.291,10.271 -7.289,17.877 0,0 -5.799,4.547 -12.227,7.918 0,0 -13.166,6.82 -13.793,11.289 h -0.008 z"
     fill-rule="evenodd"
     clip-rule="evenodd"
     fill="#c8bc69"
     stroke="#000000"
     stroke-width="0.705"
     stroke-linecap="round"
     stroke-linejoin="round"
     stroke-miterlimit="2.613"
     id="path17" />
  <path
     d="m 115.967,83.43 c 0,0 -2.35,1.019 -4.701,1.019 -2.351,0 -7.133,-1.489 -7.133,-4.704 0,-0.989 0.236,-2.195 0.236,-2.195 0,0 0.088,-3.557 -3.791,-3.528 0,0 -4.027,-0.118 -4.027,4.792 v 0.735 c 0,0 1.058,10.878 14.695,10.937 0,0 7.758,0.764 12.99,-5.645 L 123.59,79.02 c 0,0 -1.176,-1.294 -3.82,-1.294 0,0 -4.408,0.236 -4.041,3.896 z"
     fill-rule="evenodd"
     clip-rule="evenodd"
     fill="#c8bc69"
     stroke="#000000"
     stroke-width="0.705"
     stroke-linecap="round"
     stroke-linejoin="round"
     stroke-miterlimit="2.613"
     id="path18" />
  <path
     d="m 163.207,84.488 c 0,0 2.822,12.877 -6.936,19.815 0,0 6.523,-2.176 6.523,1.824 0,0 0.119,2.41 -3.232,2.822 0,0 3.41,-3.646 -0.822,-3.646 0,0 -2.117,0.059 -3.703,0.295 0,0 0.293,1.439 2.293,2.705 0.35,0.221 -1.266,0.881 -0.854,1.998 0,0 6.201,-0.822 8.846,0.824 0,0 4.262,2.088 2.646,7.525 0,0 2.469,-2.764 -0.707,-6.525 0,0 0.178,-1.059 -0.117,-1.707 0,0 4.727,5.047 2.234,9.408 -0.354,0.617 -1.117,2.117 -1.117,2.117 0,0 3.332,-0.963 3.645,-5.35 0.117,-1.646 0.764,-1.941 0.764,-1.941 0,0 0.354,-7.703 -5.584,-8.762 0,0 2.939,-1.939 3.057,-4.057 l -3.82,-0.354 c 0,0 2.822,-1.293 2.822,-6.938 h -0.588 l 0.059,-4.086 -1.176,-0.5 v -1.293 c 0,0 -0.477,-0.178 -0.822,-0.294 l -0.5,-2.293 c -0.825,-0.47 -1.823,-0.705 -2.911,-1.587 z"
     fill-rule="evenodd"
     clip-rule="evenodd"
     fill="#c8bc69"
     id="path19" />
  <path
     d="m 142.135,56.646 c 0,0 1.352,-0.765 2.381,-0.765 0,0 1.293,0.177 1.293,-0.47 0,0 -0.559,-0.676 -1.146,-0.882 0,0 -0.441,-0.059 -0.705,0.147 -0.266,0.206 -0.441,0.617 -1.029,-0.147 0,0 -0.734,-0.529 -1.381,-0.5 0,0 -0.295,-0.029 -0.881,0.647 0,0 -1.088,1.382 -1.883,1.705 0,0 -0.439,0.382 0.324,0.676 -0.001,10e-4 1.38,0.765 3.027,-0.411 z m -5.879,4.91 c 0,0 -2.381,-0.03 -2.996,0.47 0,0 -0.795,-0.5 -0.383,0.471 0,0 -0.324,1.029 0,1.411 0,0 0.088,0.647 0.764,-0.235 0,0 0.883,-0.97 1.381,-0.97 -0.001,0 0.97,-0.119 1.234,-1.147 z"
     fill-rule="evenodd"
     clip-rule="evenodd"
     id="path20" />
  <path
     d="m 110.334,78.49 c 0,0 -0.734,-0.117 -1.352,0.5 0,0 -1.322,1.235 -1.469,2.058 l 0.471,0.235 c 0,0 0.646,-1 1.674,-1.617 1.03,-0.617 0.676,-1.176 0.676,-1.176 z m 0.236,1.412 c 0,0 0.205,0.146 0,1.616 0,0 -0.295,0.941 -1.352,0.235 10e-4,0 0.294,-1.293 1.352,-1.851 z m 16.311,39.426 1.617,1.234 c 0,0 0.939,-0.471 -0.029,-1.146 0,0 -0.705,-0.854 -1.588,-0.088 z m 12.639,-3.646 c 0,0 -0.559,1.705 0.264,2.822 0,0 0.324,-0.176 1.381,-0.029 -0.001,0 -0.294,-2.471 -1.645,-2.793 z m -6.848,16.199 c 0,0 -0.178,-9.145 4.701,-10.879 0,0 0.705,-1.176 1.91,-2.115 0,0 -1.264,-1.295 -0.264,-3.734 l -0.383,-0.646 c 0,0 -3.086,3.027 -1.234,6.027 0,0 -1.969,-0.09 -1.969,-3.793 0,0 -1.793,2.059 -1.793,6.645 0,0 -0.705,-0.854 -1.029,-2.029 0,0 -1.174,2.322 -0.41,5.145 0,0 -0.705,-0.205 -1.088,-0.676 l -0.971,1.205 v 2.264 c 0.001,-0.002 1.883,2.644 2.53,2.586 z m 16.928,5.381 c 0,0 2.027,-1.793 2.586,-2.734 0,0 -2.41,-0.146 -3.938,-1.412 0,0 -0.766,0.354 -0.854,1.383 0,0 0,-1 -1.086,-0.971 0,0 -3.762,0.059 -6.789,2.381 0,0 -2.264,2.088 0.205,3.939 0,0 2.674,2.176 6.348,0 0,0 1.764,-0.91 2.822,-2.176 0,0 -1.059,-0.617 -1.646,-1.793 0,0 -1.176,1 -1.969,1.205 l -0.266,-0.559 c 0,0 1.617,-0.852 2.293,-1.615 10e-4,0 0.706,1.645 2.294,2.352 z m -1.176,-4.735 c 0,0 1.029,1.207 4.379,1.207 0,0 1.205,-1.295 1.5,-2.324 0,0 -2.205,0.646 -5.35,-0.234 0,0 -0.558,0.617 -0.529,1.351 z m 0.764,-2.056 c 0,0 3.439,1.234 5.115,0.205 0,0 1.145,-0.295 1.439,-2.676 0,0 -1.998,1.941 -6.318,0.588 0,0 -0.266,0.207 -0.236,1.883 z"
     fill-rule="evenodd"
     clip-rule="evenodd"
     fill="#b5b6b5"
     id="path21" />
  <path
     d="m 149.158,127.854 c 0,0 2.939,1.293 6.055,-0.236 0,0 1.205,-0.381 1.205,-2.969 0,0 -2.174,3.027 -7.965,1.352 0,-0.001 -0.029,0.735 0.705,1.853 z"
     fill-rule="evenodd"
     clip-rule="evenodd"
     fill="#b5b6b5"
     id="path22" />
  <path
     d="m 148.219,125.266 c 0,0 4.33,1.062 6.289,0 2.057,-1.117 1.939,-2.205 1.939,-2.205 0,0 -0.059,-1.322 -0.822,-1.969 0,0 -1.764,4.232 -8.111,2.322 0,0 0.117,0.971 0.705,1.852 z"
     fill-rule="evenodd"
     clip-rule="evenodd"
     fill="#b5b6b5"
     id="path23" />
  <path
     d="m 146.838,122.678 c 0,0 5.055,1.5 7.436,-0.705 0,0 2.145,-2.027 0.705,-4.381 0,0 -2.469,4.469 -9.111,3.471 z"
     fill-rule="evenodd"
     clip-rule="evenodd"
     fill="#b5b6b5"
     id="path24" />
  <path
     d="m 145.221,120.326 c 0,0 4.967,1.354 8.641,-2.352 0,0 2.027,-1.941 0.117,-4.41 0,0 -2.791,5.557 -11.227,4.381 z"
     fill-rule="evenodd"
     clip-rule="evenodd"
     fill="#b5b6b5"
     id="path25" />
  <path
     d="m 142.135,117.299 c 0,0 5.936,1.381 9.963,-2.441 0,0 3.791,-3.232 -0.029,-5.057 0,0 -1.588,4.498 -7.818,4.498 0,0 -1.822,0.236 -5.436,-0.764 z"
     fill-rule="evenodd"
     clip-rule="evenodd"
     fill="#b5b6b5"
     id="path26" />
  <path
     d="m 137.961,112.742 c 0,0 8.641,2.852 12.109,-1.117 0,0 3.879,-3.646 0.559,-5.381 0,0 -2.939,6.732 -13.697,4.205 0,0 -0.028,1.645 1.029,2.293 z"
     fill-rule="evenodd"
     clip-rule="evenodd"
     fill="#b5b6b5"
     id="path27" />
  <path
     d="m 137.814,110.037 c 0,0 7.436,1.764 11.314,-2.705 0,0 3.174,-3.498 0.059,-5.293 0,0 -4.643,6.645 -13.959,4.852 v -0.676 c 0,0 5.701,1.264 10.404,-1.881 0,0 6.201,-3.705 2.145,-6.557 0,0 -5.143,6.291 -15.547,4.203 0,0 -0.266,3.617 2.762,4.617 0,0 -0.764,0.117 -0.764,0.939 0.001,0.001 -0.117,1.677 3.586,2.501 z M 113.215,82.224 c 0,0 1.5,0.382 1.822,-2.146 0,0 1.293,-4.674 6.877,-5.351 0,0 2.088,0.059 2.088,2.234 0,2.175 -0.236,0.706 -0.236,3.352 0,0 0,1.999 1.764,8.996 0,0 -0.088,-2.852 2.91,-8.526 0,0 0.234,-3.205 -2.117,-7.203 0,0 -1.146,-2.411 -3.174,-2.381 0,0 -1.264,0 -2.293,0.441 -1.027,0.441 -2.271,1.228 -5.201,2.205 -0.617,0.206 -1.088,0.853 -1.088,0.853 0,0 0.383,0.147 -4.143,2.94 l 1.117,-0.324 v 1.382 c 0,0 0.205,-0.03 0.41,-0.147 0.205,-0.118 0.324,-0.294 0.588,-0.294 0,0 0.734,0.147 1.322,-0.235 0,0 -0.646,1.587 -0.646,4.204 z"
     fill-rule="evenodd"
     clip-rule="evenodd"
     fill="#b5b6b5"
     id="path28" />
  <path
     d="m 139.754,47.679 c 0,0 -0.971,2.381 1.381,3.969 l 0.471,-0.471 c 0,0 -0.264,-1.058 -0.234,-2.293 -0.001,0 -0.825,-0.882 -1.618,-1.205 z m 2.351,-2.117 v 5.204 c 0,0 0.5,-0.294 2.234,-0.294 l 0.557,-0.97 c 0,-0.001 -0.556,-2.734 -2.791,-3.94 z m 3.057,4.91 c 0,0 8.934,0.353 8.934,11.29 0,0 -0.059,3.293 -0.676,4.233 0,0 2.381,-0.382 4.82,4.47 0,0 0.354,-2.911 -2.086,-5.233 l 0.381,-0.5 c 0,0 1.471,1.353 3.32,1.587 l -1.381,-2.146 c 0,0 0.588,-0.323 1.234,-0.353 0,0 -0.529,-1.529 -2.469,-2.764 l 0.324,-0.618 c 0,0 0.588,0.382 2.057,0.382 0,0 -1.645,-2.852 -3.115,-2.205 v -0.617 c 0,0 0.5,-0.794 2.734,0.706 0,0 -0.295,-1.059 -1.471,-1.617 0,0 -0.381,0.441 -1.586,0.5 v -0.529 c 0,0 1.439,-0.324 1.439,-1.117 v 0.088 c 0,0 0.088,-0.5 -0.441,-1.147 -0.529,-0.647 -0.529,-1.587 -0.529,-1.587 0,0 -1.232,-0.029 -1.852,2.058 0,0 0.266,-0.146 0.678,-0.146 v 0.735 c 0,0 -0.588,0.03 -1.029,0.412 0,0 -1.293,-1.029 1.264,-3.763 h -0.734 c 0,0 -0.471,0.029 -1.088,0.764 l -0.412,-0.412 c 0,0 0.736,-1.176 1.322,-1.705 0,0 -1.115,0 -1.791,0.941 l -0.354,-0.294 c 0,0 0.029,-0.97 0.971,-2.087 0,0 -1.088,-0.059 -1.883,0.47 0,0 0.412,-0.941 0.441,-2.587 0,0 -1.676,0.853 -2.174,1.44 l 0.059,-1.911 c 0,0 -1.764,1.146 -2.588,2.352 0,0 0.941,-3.146 -0.676,-3.998 0,0 0.031,1.617 -0.705,2.734 -0.733,1.116 -0.938,2.174 -0.938,2.174 z"
     fill-rule="evenodd"
     clip-rule="evenodd"
     fill="#c8bc69"
     id="path29" />
  <path
     d="m 153.186,66.466 c 0,0 -0.207,2.146 -3.322,4.116 0,0 1.646,2.528 6.613,2.499 0,0 2.41,-0.088 0.883,-2.734 -0.001,-10e-4 -1.53,-3.088 -4.174,-3.881 z"
     fill-rule="evenodd"
     clip-rule="evenodd"
     fill="#c8bc69"
     id="path30" />
  <path
     d="m 147.748,71.463 c 0,0 2.412,2.869 5.701,3.234 0.795,0.088 1.059,0.235 1.059,0.235 0,0 1.527,0.999 1.939,-1.059 0,0 -4.85,-0.088 -7.111,-2.911 0,0.002 -0.559,0.325 -1.588,0.501 z"
     fill-rule="evenodd"
     clip-rule="evenodd"
     fill="#c8bc69"
     id="path31" />
  <path
     d="m 145.133,73.051 c 0,0 1.998,0.823 2.35,2.117 0,0 -1.645,0.059 -0.676,1.206 0,0 0.707,0.382 0.824,0.646 0.234,0.529 0.969,0.529 0.969,0.529 0,0 1.5,0.353 2.088,0.97 l 0.852,-0.676 c 0,0 -0.352,-0.647 -1.117,-0.882 0,0 -0.793,-0.294 -1.293,-0.353 -0.5,-0.059 -1.676,-0.765 -1.646,-1.353 0,0 0.207,-0.147 0.502,-0.059 0,0 0.586,0.294 0.822,0.618 0.234,0.323 0.969,0.294 1.117,0.294 0.146,0 0.998,0.147 1.498,0.705 0.5,0.559 1.146,0.735 2.174,0 0,0 0.883,-0.47 0.941,-1.322 0,0 -3.938,0 -7.699,-3.793 -0.001,0.001 -1.296,0.618 -1.706,1.353 z m -4.615,7.762 c 0,0 0.646,-0.471 1.822,-0.471 1.176,0 1.705,0.618 4.82,-0.029 0,0 0.824,-0.294 0.824,-1 0,0 0.381,-1.088 -3.352,-1.088 0.001,0.001 -4.056,-0.146 -4.114,2.588 z"
     fill-rule="evenodd"
     clip-rule="evenodd"
     fill="#c8bc69"
     id="path32" />
  <path
     d="m 148.512,78.255 c 0,0 1,1.999 -1.469,2.646 0,0 0.176,0.706 -0.588,1.352 0,0 0.471,0.471 0.617,1.147 0,0 0.529,-0.206 1.234,-0.235 0,0 2.027,-1.059 2.027,-4.205 0.001,0 -0.704,-0.617 -1.821,-0.705 z m -2.352,3.087 c 0,0 -2.057,0.059 -3.115,-0.235 0,0 -4.025,4.292 -0.469,6.086 0,0 -0.734,-2.999 0.822,-4.028 0,0 1.911,-0.941 2.762,-1.823 z"
     fill-rule="evenodd"
     clip-rule="evenodd"
     fill="#c8bc69"
     id="path33" />
  <path
     d="m 145.809,82.724 c 0,0 -2.764,0.706 -2.764,2.881 0,0 -0.117,1.559 1.205,2.234 0,0 -0.176,-2.822 2.293,-3.998 z"
     fill-rule="evenodd"
     clip-rule="evenodd"
     fill="#c8bc69"
     id="path34" />
  <path
     d="m 146.926,84.4 c 0,0 -2,0.705 -2,3.234 l 1.383,0.706 c 0,-0.001 2.144,-2.735 0.617,-3.94 z"
     fill-rule="evenodd"
     clip-rule="evenodd"
     fill="#c8bc69"
     id="path35" />
  <path
     d="m 148.453,83.9 -0.705,0.235 c 0,0 0.971,2.646 -0.91,4.645 0,0 1.85,1.676 0.469,4.175 0,0 2.059,2.264 1.176,4.322 0,0 1.939,1.088 1.146,4.232 0,0 2.205,0.824 1.439,4.234 0,0 2.322,1.322 1.441,3.293 0,0 2.35,1.146 1.852,4.057 0,0 1.703,1.824 0.969,3.91 0,0 1.264,1.383 0.646,3.529 0,0 0.766,0.352 1.029,1.498 0,0 0.234,-1.439 1.234,-2.057 0,0 -3.908,-2.883 -0.852,-5.998 0,0 -4.145,-2.029 -1.471,-5.498 0,0 -4.496,-2.381 -2.557,-7.262 0,0 -3.438,-1.793 -0.91,-5.086 0,0 -3.732,-1.853 -1.793,-6.998 0,0 -1.588,-1.146 -2.234,-2.176 0.002,0.003 0.56,-1.556 0.031,-3.055 z"
     fill-rule="evenodd"
     clip-rule="evenodd"
     fill="#c8bc69"
     id="path36" />
  <path
     d="m 171.23,117.975 c 0,0 1.146,-6.82 -1.969,-9.672 0,0 -1.498,-1.383 -2.205,-1.383 0,0 -0.91,-0.088 -0.881,0.912 0,0 0,0.734 1.146,1.352 0.001,0 3.644,2.441 3.909,8.791 z m -4.203,-25.637 c 0,0 1.234,2.028 -0.205,3.292 0,0 0.44,-1.705 0.205,-3.292 z m -0.5,4.439 c 0,0 0.412,4.645 -2.938,5.469 z m -2.468,-10.731 c 0,0 5.584,8.644 -2.379,14.934 0,0 3.703,-3.91 2.379,-14.934 z"
     fill-rule="evenodd"
     clip-rule="evenodd"
     id="path37" />
  <path
     d="m 138.637,68.788 c 3.881,-1.646 5.408,-3.057 5.408,-3.057 -1.646,-0.118 -1.822,-0.353 -1.822,-0.353 -0.529,0.588 -1.881,0.882 -1.881,0.882 -1.059,1.47 -3.232,2 -3.232,2 -0.646,0 -0.766,-0.118 -1.881,0.411 -1.117,0.529 -2.469,0.765 -2.469,0.765 -1.764,0 -1.412,-1.529 -1.412,-1.529 0,-1.058 2.176,-1 2.176,-1 l 0.059,-0.588 c -2.703,0.824 -2.82,-2.822 -2.82,-2.822 0,-2.352 3.879,-5.468 3.879,-5.468 1.41,-0.765 3.232,-3.117 3.645,-3.646 0.41,-0.529 2.115,-2.293 2.115,-2.293 -2.352,-1.529 -1.059,-5.468 -1.059,-5.468 0.588,0.177 2.059,1.234 2.059,1.234 v -3.881 c 2.057,0.941 3.879,4.293 3.879,4.293 1.469,-2 0.354,-4.587 0.354,-4.587 2.703,1.412 2.938,3.822 2.938,3.822 0.471,-0.471 1.939,-1.353 1.939,-1.353 0.178,0.765 0.295,1.646 0.295,1.646 0.822,-0.412 1.939,-1.234 1.939,-1.234 0.412,0.823 0.176,2.763 0.176,2.763 1.234,-0.294 2.176,0.059 2.176,0.059 -0.822,0.353 -1.352,1.352 -1.352,1.352 0.881,-0.294 2.41,-0.059 2.41,-0.059 -0.824,0.47 -0.766,1.235 -0.766,1.235 1.295,-0.177 1.646,0 1.646,0 -0.293,0.176 -0.412,0.646 -0.412,0.646 0.471,-0.117 1.822,0 1.822,0 -1.762,0.882 -0.939,1.411 -0.469,2.235 0.469,0.823 0.41,1.764 0.41,1.764 2.176,1.94 2.586,4.704 2.586,4.704 a 14.386,14.386 0 0 0 -0.586,-0.353 c 0.293,0.235 0.469,0.823 0.469,0.823 -0.469,-0.235 -1.822,-0.117 -1.822,-0.117 1.117,0.999 1.822,2.469 1.822,2.469 -1.059,0.294 -1.176,0.529 -1.176,0.529 0.412,1.059 2.117,2.529 2.117,2.529 -2.527,0.117 -3.879,-0.765 -3.879,-0.765 1.352,2.587 0.939,4.645 0.939,4.645 l -0.295,0.177 c 0.354,2.47 -1.586,2.705 -1.586,2.705 0.176,1.588 -1.705,1.999 -1.705,1.999 -0.471,1.588 -3.232,2.176 -3.232,2.176 -0.117,0.411 -1.059,1.176 -1.059,1.176 0.059,2.528 -1.822,4.292 -1.822,4.292 0.295,1.411 0.059,3.116 0.059,3.116 1.176,1.764 2.527,1.94 2.527,1.94 -3.115,5.057 1.471,7.41 1.471,7.41 -2.939,3.35 1.059,4.82 1.059,4.82 -1,1.293 -0.588,3.176 -0.588,3.176 9.756,-6.291 8.641,-14.054 8.641,-14.054 0,-2.117 -0.707,-10.525 -0.707,-10.525 1.471,1.235 3.057,3.939 3.057,3.939 l -0.059,-2.058 c 1.939,1.999 2.234,3.704 2.234,3.704 l 0.822,-0.47 c 0.059,0.882 -0.176,1.881 -0.176,1.881 l 0.705,-0.47 0.059,1.706 c 0.883,-0.706 1.234,-1.529 1.234,-1.529 0.059,1.47 -0.176,2.822 -0.176,2.822 0.764,-0.294 0.998,-0.471 0.998,-0.471 0,1.647 -0.352,3.293 -0.352,3.293 0.705,-0.588 0.939,-1.176 0.939,-1.176 0,7.938 -1.939,9.702 -1.939,9.702 1.822,0.354 2.764,1.059 2.764,1.059 -0.354,1.529 -2.469,3.998 -2.469,3.998 1.469,0.236 2.879,0.941 2.879,0.941 l -0.822,0.588 c 3.115,3.234 3.527,5.586 3.527,5.586 -0.471,-0.176 -0.941,-0.234 -0.941,-0.234 0.705,2.234 0.883,4.998 0.883,4.998 -0.471,-0.471 -1.822,-0.883 -1.822,-0.883 -0.766,2.352 -0.354,5.234 -0.354,5.234 -5.23,1.881 -5.818,5.645 -5.818,5.645 -0.883,-1.764 -0.883,-4.41 -0.883,-4.41 0.049,-5.41 1.922,-4.207 1.471,-7.469 -0.646,-4.674 -7.289,-4.41 -7.289,-4.41 -4.057,0 -3.879,0.707 -3.879,0.707 0.117,0.881 1.998,2.234 1.998,2.234 -3.469,2.939 1,6.115 1,6.115 -3.117,1.939 -1.176,4.469 -1.176,4.469 0,0 -0.766,0 -1.059,1.234 -1.26,5.293 -3.762,8.643 -3.762,8.643 -5.584,7.41 -10.229,7.057 -10.229,7.057 -14.4,-1.471 -13.754,-14.229 -13.754,-14.229 0,-10.35 7.877,-14.289 7.877,-14.289 -7.818,-8.174 -8.053,-12.408 -8.053,-12.408 -3.41,1 -3.41,8.41 -3.41,8.41 -0.234,6.645 4.291,7.996 4.291,7.996 0.354,4.234 -1.881,5.881 -1.881,5.881 -1.057,1.234 -3.467,2.057 -3.467,2.057 -0.707,0.295 -1.117,-0.176 -1.117,-0.176 -2.881,-3.527 -2.822,-17.992 -2.822,-17.992 0.059,-8.82 5.996,-11.996 5.996,-11.996 -3.352,-8.761 -3.586,-14.347 -3.586,-14.347 0,-1.059 0.295,-1.588 0.295,-3.293 0,-1.705 -1.588,-1.587 -1.588,-1.587 -1.41,-0.117 -5.701,1.881 -6.113,4.763 -0.412,2.882 -3.057,2.764 -3.057,2.764 -6.23,0.059 -6.113,-2.47 -6.113,-2.47 1,-2.234 6.525,-4.881 7.172,-5.88 0.647,-0.999 2.174,-1.587 2.174,-1.587 3.586,-1 3.762,-1.764 4.879,-2.117 1.117,-0.353 2.881,-0.471 2.881,-0.471 3.645,0 5.467,8.761 5.467,8.761 3.233,-6.466 5.702,-8.759 9.581,-10.406 z m 4.732,62.181 c 0,0 4.615,-0.088 4.615,-3.352 0,0 0.045,-2.893 -2.352,-5.379 -0.795,-0.824 0.264,-0.412 -2.029,-2.322 0,0 -2.85,-2.705 -5.496,1.205 0,0 -2.557,3.469 0.031,7.174 0.001,0 2.38,2.674 5.231,2.674 z"
     fill-rule="evenodd"
     clip-rule="evenodd"
     id="path38" />
  <path
     d="m 140.225,93.073 0.117,0.676 c 0,0 -0.939,-0.235 -3.879,3.116 -2.939,3.352 -5.379,3.293 -5.379,3.293 l 0.646,1.117 c 0,0 10.287,2.029 15.752,-3.998 0,0 1.646,-1.559 -0.881,-3.734 0,0 -2.703,2.968 -7.023,3.439 l -0.059,-0.646 c 0,0 4.26,-0.706 6.789,-3.469 2.426,-2.652 -1.412,-4.498 -1.412,-4.498 v 0.706 c 0,0 -0.588,-0.5 -0.969,-0.647 -0.383,-0.147 -0.824,-0.499 -0.824,-0.499 v 0.47 c 0,0 -5.318,-1.5 -0.998,-7.321 0,0 -1.293,-0.147 -2.352,0.97 0,0 -0.939,-5.91 7.494,-4.233 0,0 -1.881,-3.617 -5.789,-1.647 0,0 0.117,-1.676 2.027,-2.881 1.91,-1.206 2.615,-2.087 2.615,-2.087 0,0 7.348,-0.588 7.289,-9.232 0,0 0.412,-7.173 -5.348,-10.055 0,0 -4.41,-2.705 -7.877,1.47 -3.469,4.175 -4.938,5.057 -4.938,5.057 0,0 -3.703,3.117 -3.762,5.116 0,0 0.059,2.117 1.527,2.117 0,0 0.295,0.176 1.293,-0.706 1,-0.882 2.527,-0.588 2.527,-0.588 0,0 -0.176,1.234 -2.703,3.058 0,0 -0.529,0.235 -1.529,0.235 0,0 -0.588,0.03 -0.588,0.5 0,0 -0.117,0.646 0.529,0.646 0,0 1.592,-0.042 2.734,-0.735 0.969,-0.588 1.293,-0.441 1.293,-0.441 0,0 2.115,-0.264 3.145,-3.234 0,0 2.586,-0.559 1.439,-2.734 0,0 1.264,0.588 1.969,2.382 0,0 5.938,0.235 6.76,-3.999 0,0 0.5,4.175 -3.525,5.027 0,0 1.293,0.353 1.793,0.706 0,0 -3.146,1.646 -5.145,1.676 0,0 -7.465,2.822 -9.521,5.851 0,0 -5.408,6.998 -7.172,15.523 0,0 0.354,4.233 1.059,5.292 l 0.588,-0.353 c 0,0 -0.236,-6.233 0.234,-7.115 l 0.766,0.059 c 0,0 -0.529,3.587 -0.354,6.174 0,0 1.764,-0.706 1.881,-4.939 0.117,-4.234 0.412,-2.823 0.412,-2.823 h 0.646 c 0,0 -0.471,0.412 -0.471,4.175 0,3.763 -2.764,5.174 -2.764,5.174 0,0 -3.057,1.44 -4.76,4.174 0,0 -2.703,3.91 -2.117,10.055 0,0 0.236,13.643 2.705,15.523 0,0 1.645,-0.471 2.881,-1.293 l -2.293,-2.529 -0.178,3 -1.174,-6.645 1.469,1.352 0.117,-1.705 4.115,1.764 v -0.939 c 0,0 -4.115,-1.236 -4.115,-7.82 0,0 -0.234,-6.645 2.822,-8.998 0,0 1.234,-1.117 1.998,-1.293 0.764,-0.176 3.174,-1.352 5.408,-3.352 0.005,-0.001 2.767,-2.411 5.06,-2.705 z"
     fill-rule="evenodd"
     clip-rule="evenodd"
     fill="#b5b6b5"
     id="path39" />
  <path
     d="m 163.207,84.488 c 0,0 2.822,12.877 -6.936,19.815 0,0 6.523,-2.176 6.523,1.824 0,0 0.119,2.41 -3.232,2.822 0,0 3.41,-3.646 -0.822,-3.646 0,0 -2.117,0.059 -3.703,0.295 0,0 0.293,1.439 2.293,2.705 0.35,0.221 -1.266,0.881 -0.854,1.998 0,0 6.201,-0.822 8.846,0.824 0,0 4.262,2.088 2.646,7.525 0,0 2.469,-2.764 -0.707,-6.525 0,0 0.178,-1.059 -0.117,-1.707 0,0 4.727,5.047 2.234,9.408 -0.354,0.617 -1.117,2.117 -1.117,2.117 0,0 3.332,-0.963 3.645,-5.35 0.117,-1.646 0.764,-1.941 0.764,-1.941 0,0 0.354,-7.703 -5.584,-8.762 0,0 2.939,-1.939 3.057,-4.057 l -3.82,-0.354 c 0,0 2.822,-1.293 2.822,-6.938 h -0.588 l 0.059,-4.086 -1.176,-0.5 v -1.293 c 0,0 -0.477,-0.178 -0.822,-0.294 l -0.5,-2.293 c -0.825,-0.47 -1.823,-0.705 -2.911,-1.587 z"
     fill-rule="evenodd"
     clip-rule="evenodd"
     fill="#c8bc69"
     id="path40" />
  <path
     d="m 142.135,56.646 c 0,0 1.352,-0.765 2.381,-0.765 0,0 1.293,0.177 1.293,-0.47 0,0 -0.559,-0.676 -1.146,-0.882 0,0 -0.441,-0.059 -0.705,0.147 -0.266,0.206 -0.441,0.617 -1.029,-0.147 0,0 -0.734,-0.529 -1.381,-0.5 0,0 -0.295,-0.029 -0.881,0.647 0,0 -1.088,1.382 -1.883,1.705 0,0 -0.439,0.382 0.324,0.676 -0.001,10e-4 1.38,0.765 3.027,-0.411 z m -5.879,4.91 c 0,0 -2.381,-0.03 -2.996,0.47 0,0 -0.795,-0.5 -0.383,0.471 0,0 -0.324,1.029 0,1.411 0,0 0.088,0.647 0.764,-0.235 0,0 0.883,-0.97 1.381,-0.97 -0.001,0 0.97,-0.119 1.234,-1.147 z"
     fill-rule="evenodd"
     clip-rule="evenodd"
     id="path41" />
  <path
     d="m 110.334,78.49 c 0,0 -0.734,-0.117 -1.352,0.5 0,0 -1.322,1.235 -1.469,2.058 l 0.471,0.235 c 0,0 0.646,-1 1.674,-1.617 1.03,-0.617 0.676,-1.176 0.676,-1.176 z m 0.236,1.412 c 0,0 0.205,0.146 0,1.616 0,0 -0.295,0.941 -1.352,0.235 10e-4,0 0.294,-1.293 1.352,-1.851 z m 16.311,39.426 1.617,1.234 c 0,0 0.939,-0.471 -0.029,-1.146 0,0 -0.705,-0.854 -1.588,-0.088 z m 12.639,-3.646 c 0,0 -0.559,1.705 0.264,2.822 0,0 0.324,-0.176 1.381,-0.029 -0.001,0 -0.294,-2.471 -1.645,-2.793 z m -6.848,16.199 c 0,0 -0.178,-9.145 4.701,-10.879 0,0 0.705,-1.176 1.91,-2.115 0,0 -1.264,-1.295 -0.264,-3.734 l -0.383,-0.646 c 0,0 -3.086,3.027 -1.234,6.027 0,0 -1.969,-0.09 -1.969,-3.793 0,0 -1.793,2.059 -1.793,6.645 0,0 -0.705,-0.854 -1.029,-2.029 0,0 -1.174,2.322 -0.41,5.145 0,0 -0.705,-0.205 -1.088,-0.676 l -0.971,1.205 v 2.264 c 0.001,-0.002 1.883,2.644 2.53,2.586 z m 16.928,5.381 c 0,0 2.027,-1.793 2.586,-2.734 0,0 -2.41,-0.146 -3.938,-1.412 0,0 -0.766,0.354 -0.854,1.383 0,0 0,-1 -1.086,-0.971 0,0 -3.762,0.059 -6.789,2.381 0,0 -2.264,2.088 0.205,3.939 0,0 2.674,2.176 6.348,0 0,0 1.764,-0.91 2.822,-2.176 0,0 -1.059,-0.617 -1.646,-1.793 0,0 -1.176,1 -1.969,1.205 l -0.266,-0.559 c 0,0 1.617,-0.852 2.293,-1.615 10e-4,0 0.706,1.645 2.294,2.352 z m -1.176,-4.735 c 0,0 1.029,1.207 4.379,1.207 0,0 1.205,-1.295 1.5,-2.324 0,0 -2.205,0.646 -5.35,-0.234 0,0 -0.558,0.617 -0.529,1.351 z m 0.764,-2.056 c 0,0 3.439,1.234 5.115,0.205 0,0 1.145,-0.295 1.439,-2.676 0,0 -1.998,1.941 -6.318,0.588 0,0 -0.266,0.207 -0.236,1.883 z"
     fill-rule="evenodd"
     clip-rule="evenodd"
     fill="#b5b6b5"
     id="path42" />
  <path
     d="m 149.158,127.854 c 0,0 2.939,1.293 6.055,-0.236 0,0 1.205,-0.381 1.205,-2.969 0,0 -2.174,3.027 -7.965,1.352 0,-0.001 -0.029,0.735 0.705,1.853 z"
     fill-rule="evenodd"
     clip-rule="evenodd"
     fill="#b5b6b5"
     id="path43" />
  <path
     d="m 148.219,125.266 c 0,0 4.33,1.062 6.289,0 2.057,-1.117 1.939,-2.205 1.939,-2.205 0,0 -0.059,-1.322 -0.822,-1.969 0,0 -1.764,4.232 -8.111,2.322 0,0 0.117,0.971 0.705,1.852 z"
     fill-rule="evenodd"
     clip-rule="evenodd"
     fill="#b5b6b5"
     id="path44" />
  <path
     d="m 146.838,122.678 c 0,0 5.055,1.5 7.436,-0.705 0,0 2.145,-2.027 0.705,-4.381 0,0 -2.469,4.469 -9.111,3.471 z"
     fill-rule="evenodd"
     clip-rule="evenodd"
     fill="#b5b6b5"
     id="path45" />
  <path
     d="m 145.221,120.326 c 0,0 4.967,1.354 8.641,-2.352 0,0 2.027,-1.941 0.117,-4.41 0,0 -2.791,5.557 -11.227,4.381 z"
     fill-rule="evenodd"
     clip-rule="evenodd"
     fill="#b5b6b5"
     id="path46" />
  <path
     d="m 142.135,117.299 c 0,0 5.936,1.381 9.963,-2.441 0,0 3.791,-3.232 -0.029,-5.057 0,0 -1.588,4.498 -7.818,4.498 0,0 -1.822,0.236 -5.436,-0.764 z"
     fill-rule="evenodd"
     clip-rule="evenodd"
     fill="#b5b6b5"
     id="path47" />
  <path
     d="m 137.961,112.742 c 0,0 8.641,2.852 12.109,-1.117 0,0 3.879,-3.646 0.559,-5.381 0,0 -2.939,6.732 -13.697,4.205 0,0 -0.028,1.645 1.029,2.293 z"
     fill-rule="evenodd"
     clip-rule="evenodd"
     fill="#b5b6b5"
     id="path48" />
  <path
     d="m 137.814,110.037 c 0,0 7.436,1.764 11.314,-2.705 0,0 3.174,-3.498 0.059,-5.293 0,0 -4.643,6.645 -13.959,4.852 v -0.676 c 0,0 5.701,1.264 10.404,-1.881 0,0 6.201,-3.705 2.145,-6.557 0,0 -5.143,6.291 -15.547,4.203 0,0 -0.266,3.617 2.762,4.617 0,0 -0.764,0.117 -0.764,0.939 0.001,0.001 -0.117,1.677 3.586,2.501 z M 113.215,82.224 c 0,0 1.5,0.382 1.822,-2.146 0,0 1.293,-4.674 6.877,-5.351 0,0 2.088,0.059 2.088,2.234 0,2.175 -0.236,0.706 -0.236,3.352 0,0 0,1.999 1.764,8.996 0,0 -0.088,-2.852 2.91,-8.526 0,0 0.234,-3.205 -2.117,-7.203 0,0 -1.146,-2.411 -3.174,-2.381 0,0 -1.264,0 -2.293,0.441 -1.027,0.441 -2.271,1.228 -5.201,2.205 -0.617,0.206 -1.088,0.853 -1.088,0.853 0,0 0.383,0.147 -4.143,2.94 l 1.117,-0.324 v 1.382 c 0,0 0.205,-0.03 0.41,-0.147 0.205,-0.118 0.324,-0.294 0.588,-0.294 0,0 0.734,0.147 1.322,-0.235 0,0 -0.646,1.587 -0.646,4.204 z"
     fill-rule="evenodd"
     clip-rule="evenodd"
     fill="#b5b6b5"
     id="path49" />
  <path
     d="m 139.754,47.679 c 0,0 -0.971,2.381 1.381,3.969 l 0.471,-0.471 c 0,0 -0.264,-1.058 -0.234,-2.293 -0.001,0 -0.825,-0.882 -1.618,-1.205 z m 2.351,-2.117 v 5.204 c 0,0 0.5,-0.294 2.234,-0.294 l 0.557,-0.97 c 0,-0.001 -0.556,-2.734 -2.791,-3.94 z m 3.057,4.91 c 0,0 8.934,0.353 8.934,11.29 0,0 -0.059,3.293 -0.676,4.233 0,0 2.381,-0.382 4.82,4.47 0,0 0.354,-2.911 -2.086,-5.233 l 0.381,-0.5 c 0,0 1.471,1.353 3.32,1.587 l -1.381,-2.146 c 0,0 0.588,-0.323 1.234,-0.353 0,0 -0.529,-1.529 -2.469,-2.764 l 0.324,-0.618 c 0,0 0.588,0.382 2.057,0.382 0,0 -1.645,-2.852 -3.115,-2.205 v -0.617 c 0,0 0.5,-0.794 2.734,0.706 0,0 -0.295,-1.059 -1.471,-1.617 0,0 -0.381,0.441 -1.586,0.5 v -0.529 c 0,0 1.439,-0.324 1.439,-1.117 v 0.088 c 0,0 0.088,-0.5 -0.441,-1.147 -0.529,-0.647 -0.529,-1.587 -0.529,-1.587 0,0 -1.232,-0.029 -1.852,2.058 0,0 0.266,-0.146 0.678,-0.146 v 0.735 c 0,0 -0.588,0.03 -1.029,0.412 0,0 -1.293,-1.029 1.264,-3.763 h -0.734 c 0,0 -0.471,0.029 -1.088,0.764 l -0.412,-0.412 c 0,0 0.736,-1.176 1.322,-1.705 0,0 -1.115,0 -1.791,0.941 l -0.354,-0.294 c 0,0 0.029,-0.97 0.971,-2.087 0,0 -1.088,-0.059 -1.883,0.47 0,0 0.412,-0.941 0.441,-2.587 0,0 -1.676,0.853 -2.174,1.44 l 0.059,-1.911 c 0,0 -1.764,1.146 -2.588,2.352 0,0 0.941,-3.146 -0.676,-3.998 0,0 0.031,1.617 -0.705,2.734 -0.733,1.116 -0.938,2.174 -0.938,2.174 z"
     fill-rule="evenodd"
     clip-rule="evenodd"
     fill="#c8bc69"
     id="path50" />
  <path
     d="m 153.186,66.466 c 0,0 -0.207,2.146 -3.322,4.116 0,0 1.646,2.528 6.613,2.499 0,0 2.41,-0.088 0.883,-2.734 -0.001,-10e-4 -1.53,-3.088 -4.174,-3.881 z"
     fill-rule="evenodd"
     clip-rule="evenodd"
     fill="#c8bc69"
     id="path51" />
  <path
     d="m 147.748,71.463 c 0,0 2.412,2.869 5.701,3.234 0.795,0.088 1.059,0.235 1.059,0.235 0,0 1.527,0.999 1.939,-1.059 0,0 -4.85,-0.088 -7.111,-2.911 0,0.002 -0.559,0.325 -1.588,0.501 z"
     fill-rule="evenodd"
     clip-rule="evenodd"
     fill="#c8bc69"
     id="path52" />
  <path
     d="m 145.133,73.051 c 0,0 1.998,0.823 2.35,2.117 0,0 -1.645,0.059 -0.676,1.206 0,0 0.707,0.382 0.824,0.646 0.234,0.529 0.969,0.529 0.969,0.529 0,0 1.5,0.353 2.088,0.97 l 0.852,-0.676 c 0,0 -0.352,-0.647 -1.117,-0.882 0,0 -0.793,-0.294 -1.293,-0.353 -0.5,-0.059 -1.676,-0.765 -1.646,-1.353 0,0 0.207,-0.147 0.502,-0.059 0,0 0.586,0.294 0.822,0.618 0.234,0.323 0.969,0.294 1.117,0.294 0.146,0 0.998,0.147 1.498,0.705 0.5,0.559 1.146,0.735 2.174,0 0,0 0.883,-0.47 0.941,-1.322 0,0 -3.938,0 -7.699,-3.793 -0.001,0.001 -1.296,0.618 -1.706,1.353 z m -4.615,7.762 c 0,0 0.646,-0.471 1.822,-0.471 1.176,0 1.705,0.618 4.82,-0.029 0,0 0.824,-0.294 0.824,-1 0,0 0.381,-1.088 -3.352,-1.088 0.001,0.001 -4.056,-0.146 -4.114,2.588 z"
     fill-rule="evenodd"
     clip-rule="evenodd"
     fill="#c8bc69"
     id="path53" />
  <path
     d="m 148.512,78.255 c 0,0 1,1.999 -1.469,2.646 0,0 0.176,0.706 -0.588,1.352 0,0 0.471,0.471 0.617,1.147 0,0 0.529,-0.206 1.234,-0.235 0,0 2.027,-1.059 2.027,-4.205 0.001,0 -0.704,-0.617 -1.821,-0.705 z m -2.352,3.087 c 0,0 -2.057,0.059 -3.115,-0.235 0,0 -4.025,4.292 -0.469,6.086 0,0 -0.734,-2.999 0.822,-4.028 0,0 1.911,-0.941 2.762,-1.823 z"
     fill-rule="evenodd"
     clip-rule="evenodd"
     fill="#c8bc69"
     id="path54" />
  <path
     d="m 145.809,82.724 c 0,0 -2.764,0.706 -2.764,2.881 0,0 -0.117,1.559 1.205,2.234 0,0 -0.176,-2.822 2.293,-3.998 z"
     fill-rule="evenodd"
     clip-rule="evenodd"
     fill="#c8bc69"
     id="path55" />
  <path
     d="m 146.926,84.4 c 0,0 -2,0.705 -2,3.234 l 1.383,0.706 c 0,-0.001 2.144,-2.735 0.617,-3.94 z"
     fill-rule="evenodd"
     clip-rule="evenodd"
     fill="#c8bc69"
     id="path56" />
  <path
     d="m 148.453,83.9 -0.705,0.235 c 0,0 0.971,2.646 -0.91,4.645 0,0 1.85,1.676 0.469,4.175 0,0 2.059,2.264 1.176,4.322 0,0 1.939,1.088 1.146,4.232 0,0 2.205,0.824 1.439,4.234 0,0 2.322,1.322 1.441,3.293 0,0 2.35,1.146 1.852,4.057 0,0 1.703,1.824 0.969,3.91 0,0 1.264,1.383 0.646,3.529 0,0 0.766,0.352 1.029,1.498 0,0 0.234,-1.439 1.234,-2.057 0,0 -3.908,-2.883 -0.852,-5.998 0,0 -4.145,-2.029 -1.471,-5.498 0,0 -4.496,-2.381 -2.557,-7.262 0,0 -3.438,-1.793 -0.91,-5.086 0,0 -3.732,-1.853 -1.793,-6.998 0,0 -1.588,-1.146 -2.234,-2.176 0.002,0.003 0.56,-1.556 0.031,-3.055 z"
     fill-rule="evenodd"
     clip-rule="evenodd"
     fill="#c8bc69"
     id="path57" />
  <path
     d="m 171.23,117.975 c 0,0 1.146,-6.82 -1.969,-9.672 0,0 -1.498,-1.383 -2.205,-1.383 0,0 -0.91,-0.088 -0.881,0.912 0,0 0,0.734 1.146,1.352 0.001,0 3.644,2.441 3.909,8.791 z m -4.203,-25.637 c 0,0 1.234,2.028 -0.205,3.292 0,0 0.44,-1.705 0.205,-3.292 z m -0.5,4.439 c 0,0 0.412,4.645 -2.938,5.469 z m -2.468,-10.731 c 0,0 5.584,8.644 -2.379,14.934 0,0 3.703,-3.91 2.379,-14.934 z"
     fill-rule="evenodd"
     clip-rule="evenodd"
     id="path58" />
  <path
     d="m 76.773,83.43 c 0,0 2.351,1.019 4.702,1.019 2.352,0 7.132,-1.489 7.132,-4.704 0,-0.989 -0.235,-2.195 -0.235,-2.195 0,0 -0.088,-3.557 3.792,-3.528 0,0 4.026,-0.118 4.026,4.792 v 0.735 c 0,0 -1.058,10.878 -14.695,10.937 0,0 -7.759,0.764 -12.99,-5.645 l 0.646,-5.821 c 0,0 1.175,-1.294 3.821,-1.294 0,0 4.394,0.25 4.041,3.896 z"
     fill-rule="evenodd"
     clip-rule="evenodd"
     fill="#c8bc69"
     stroke="#000000"
     stroke-width="0.705"
     stroke-linecap="round"
     stroke-linejoin="round"
     stroke-miterlimit="2.613"
     id="path59" />
  <path
     d="m 29.534,84.488 c 0,0 -2.821,12.877 6.936,19.815 0,0 -6.524,-2.176 -6.524,1.824 0,0 -0.118,2.41 3.233,2.822 0,0 -3.409,-3.646 0.823,-3.646 0,0 2.116,0.059 3.703,0.295 0,0 -0.293,1.439 -2.292,2.705 -0.35,0.221 1.264,0.881 0.853,1.998 0,0 -6.201,-0.822 -8.846,0.824 0,0 -4.261,2.088 -2.645,7.525 0,0 -2.469,-2.764 0.706,-6.525 0,0 -0.177,-1.059 0.117,-1.707 0,0 -4.725,5.047 -2.234,9.408 0.353,0.617 1.117,2.117 1.117,2.117 0,0 -3.331,-0.963 -3.645,-5.35 -0.117,-1.646 -0.764,-1.941 -0.764,-1.941 0,0 -0.353,-7.703 5.584,-8.762 0,0 -2.939,-1.939 -3.057,-4.057 l 3.82,-0.354 c 0,0 -2.821,-1.293 -2.821,-6.938 h 0.588 l -0.059,-4.086 1.175,-0.5 v -1.293 c 0,0 0.476,-0.178 0.823,-0.294 l 0.5,-2.293 c 0.822,-0.47 1.822,-0.705 2.909,-1.587 z"
     fill-rule="evenodd"
     clip-rule="evenodd"
     fill="#c8bc69"
     id="path60" />
  <path
     d="m 50.606,56.646 c 0,0 -1.352,-0.765 -2.38,-0.765 0,0 -1.293,0.177 -1.293,-0.47 0,0 0.559,-0.676 1.146,-0.882 0,0 0.441,-0.059 0.706,0.147 0.265,0.206 0.441,0.617 1.029,-0.147 0,0 0.734,-0.529 1.381,-0.5 0,0 0.294,-0.029 0.882,0.647 0,0 1.088,1.382 1.881,1.705 0,0 0.441,0.382 -0.324,0.676 -10e-4,10e-4 -1.382,0.765 -3.028,-0.411 z m 5.878,4.91 c 0,0 2.381,-0.03 2.998,0.47 0,0 0.794,-0.5 0.382,0.471 0,0 0.323,1.029 0,1.411 0,0 -0.088,0.647 -0.764,-0.235 0,0 -0.882,-0.97 -1.381,-0.97 0,0 -0.97,-0.119 -1.235,-1.147 z"
     fill-rule="evenodd"
     clip-rule="evenodd"
     id="path61" />
  <path
     d="m 82.406,78.49 c 0,0 0.735,-0.117 1.352,0.5 0,0 1.323,1.235 1.47,2.058 l -0.47,0.235 c 0,0 -0.647,-1 -1.676,-1.617 -1.029,-0.617 -0.676,-1.176 -0.676,-1.176 z m -0.235,1.412 c 0,0 -0.206,0.146 0,1.616 0,0 0.294,0.941 1.352,0.235 -10e-4,0 -0.294,-1.293 -1.352,-1.851 z m -16.311,39.426 -1.616,1.234 c 0,0 -0.941,-0.471 0.029,-1.146 -10e-4,0 0.705,-0.854 1.587,-0.088 z m -12.638,-3.646 c 0,0 0.558,1.705 -0.265,2.822 0,0 -0.323,-0.176 -1.381,-0.029 0,0 0.294,-2.471 1.646,-2.793 z m 6.848,16.199 c 0,0 0.176,-9.145 -4.703,-10.879 0,0 -0.706,-1.176 -1.91,-2.115 0,0 1.264,-1.295 0.264,-3.734 l 0.382,-0.646 c 0,0 3.086,3.027 1.234,6.027 0,0 1.969,-0.09 1.969,-3.793 0,0 1.793,2.059 1.793,6.645 0,0 0.705,-0.854 1.029,-2.029 0,0 1.175,2.322 0.411,5.145 0,0 0.706,-0.205 1.087,-0.676 l 0.97,1.205 v 2.264 c 0.002,-0.002 -1.88,2.644 -2.526,2.586 z m -16.929,5.381 c 0,0 -2.027,-1.793 -2.586,-2.734 0,0 2.41,-0.146 3.938,-1.412 0,0 0.765,0.354 0.853,1.383 0,0 0,-1 1.087,-0.971 0,0 3.762,0.059 6.789,2.381 0,0 2.263,2.088 -0.206,3.939 0,0 -2.674,2.176 -6.348,0 0,0 -1.764,-0.91 -2.822,-2.176 0,0 1.058,-0.617 1.646,-1.793 0,0 1.176,1 1.969,1.205 l 0.265,-0.559 c 0,0 -1.617,-0.852 -2.292,-1.615 0,0 -0.706,1.645 -2.293,2.352 z m 1.176,-4.735 c 0,0 -1.028,1.207 -4.379,1.207 0,0 -1.205,-1.295 -1.499,-2.324 0,0 2.204,0.646 5.349,-0.234 0,0 0.558,0.617 0.529,1.351 z m -0.764,-2.056 c 0,0 -3.438,1.234 -5.114,0.205 0,0 -1.146,-0.295 -1.44,-2.676 0,0 1.999,1.941 6.319,0.588 0,0 0.265,0.207 0.235,1.883 z"
     fill-rule="evenodd"
     clip-rule="evenodd"
     fill="#b5b6b5"
     id="path62" />
  <path
     d="m 43.583,127.854 c 0,0 -2.939,1.293 -6.054,-0.236 0,0 -1.205,-0.381 -1.205,-2.969 0,0 2.174,3.027 7.964,1.352 0,-0.001 0.029,0.735 -0.705,1.853 z"
     fill-rule="evenodd"
     clip-rule="evenodd"
     fill="#b5b6b5"
     id="path63" />
  <path
     d="m 44.523,125.266 c 0,0 -4.332,1.062 -6.29,0 -2.057,-1.117 -1.94,-2.205 -1.94,-2.205 0,0 0.059,-1.322 0.823,-1.969 0,0 1.764,4.232 8.112,2.322 0,0 -0.118,0.971 -0.705,1.852 z"
     fill-rule="evenodd"
     clip-rule="evenodd"
     fill="#b5b6b5"
     id="path64" />
  <path
     d="m 45.904,122.678 c 0,0 -5.055,1.5 -7.436,-0.705 0,0 -2.145,-2.027 -0.705,-4.381 0,0 2.469,4.469 9.111,3.471 z"
     fill-rule="evenodd"
     clip-rule="evenodd"
     fill="#b5b6b5"
     id="path65" />
  <path
     d="m 47.521,120.326 c 0,0 -4.967,1.354 -8.64,-2.352 0,0 -2.028,-1.941 -0.118,-4.41 0,0 2.792,5.557 11.227,4.381 z"
     fill-rule="evenodd"
     clip-rule="evenodd"
     fill="#b5b6b5"
     id="path66" />
  <path
     d="m 50.606,117.299 c 0,0 -5.937,1.381 -9.963,-2.441 0,0 -3.791,-3.232 0.03,-5.057 0,0 1.587,4.498 7.817,4.498 0,0 1.823,0.236 5.437,-0.764 z"
     fill-rule="evenodd"
     clip-rule="evenodd"
     fill="#b5b6b5"
     id="path67" />
  <path
     d="m 54.78,112.742 c 0,0 -8.641,2.852 -12.108,-1.117 0,0 -3.88,-3.646 -0.559,-5.381 0,0 2.939,6.732 13.695,4.205 0,0 0.03,1.645 -1.028,2.293 z"
     fill-rule="evenodd"
     clip-rule="evenodd"
     fill="#b5b6b5"
     id="path68" />
  <path
     d="m 54.927,110.037 c 0,0 -7.436,1.764 -11.315,-2.705 0,0 -3.174,-3.498 -0.059,-5.293 0,0 4.644,6.645 13.96,4.852 v -0.676 c 0,0 -5.702,1.264 -10.404,-1.881 0,0 -6.201,-3.705 -2.145,-6.557 0,0 5.143,6.291 15.547,4.203 0,0 0.264,3.617 -2.763,4.617 0,0 0.764,0.117 0.764,0.939 0,0.001 0.117,1.677 -3.585,2.501 z M 79.526,82.224 c 0,0 -1.499,0.382 -1.822,-2.146 0,0 -1.293,-4.674 -6.877,-5.351 0,0 -2.087,0.059 -2.087,2.234 0,2.175 0.235,0.706 0.235,3.352 0,0 0,1.999 -1.763,8.996 0,0 0.088,-2.852 -2.91,-8.526 0,0 -0.235,-3.205 2.116,-7.203 0,0 1.146,-2.411 3.174,-2.381 0,0 1.264,0 2.292,0.441 1.029,0.441 2.272,1.228 5.202,2.205 0.617,0.206 1.087,0.853 1.087,0.853 0,0 -0.382,0.147 4.144,2.94 L 81.2,77.314 v 1.382 c 0,0 -0.206,-0.03 -0.412,-0.147 -0.206,-0.118 -0.323,-0.294 -0.588,-0.294 0,0 -0.734,0.147 -1.322,-0.235 0.001,0 0.648,1.587 0.648,4.204 z"
     fill-rule="evenodd"
     clip-rule="evenodd"
     fill="#b5b6b5"
     id="path69" />
  <path
     d="m 52.987,47.679 c 0,0 0.97,2.381 -1.381,3.969 l -0.47,-0.471 c 0,0 0.265,-1.058 0.235,-2.293 0,0 0.822,-0.882 1.616,-1.205 z m -2.351,-2.117 v 5.204 c 0,0 -0.5,-0.294 -2.233,-0.294 l -0.559,-0.97 c 0,-0.001 0.558,-2.734 2.792,-3.94 z m -3.056,4.91 c 0,0 -8.935,0.353 -8.935,11.29 0,0 0.059,3.293 0.676,4.233 0,0 -2.381,-0.382 -4.82,4.47 0,0 -0.353,-2.911 2.086,-5.233 l -0.382,-0.5 c 0,0 -1.47,1.353 -3.321,1.587 l 1.382,-2.146 c 0,0 -0.588,-0.323 -1.235,-0.353 0,0 0.529,-1.529 2.469,-2.764 l -0.323,-0.618 c 0,0 -0.587,0.382 -2.057,0.382 0,0 1.646,-2.852 3.115,-2.205 v -0.617 c 0,0 -0.5,-0.794 -2.733,0.706 0,0 0.294,-1.059 1.47,-1.617 0,0 0.382,0.441 1.587,0.5 v -0.529 c 0,0 -1.44,-0.324 -1.44,-1.117 v 0.088 c 0,0 -0.088,-0.5 0.441,-1.147 0.528,-0.647 0.528,-1.587 0.528,-1.587 0,0 1.235,-0.029 1.852,2.058 0,0 -0.265,-0.146 -0.676,-0.146 v 0.735 c 0,0 0.588,0.03 1.029,0.412 0,0 1.293,-1.029 -1.264,-3.763 h 0.735 c 0,0 0.47,0.029 1.087,0.764 l 0.412,-0.412 c 0,0 -0.735,-1.176 -1.323,-1.705 0,0 1.117,0 1.792,0.941 l 0.353,-0.294 c 0,0 -0.029,-0.97 -0.97,-2.087 0,0 1.088,-0.059 1.881,0.47 0,0 -0.412,-0.941 -0.441,-2.587 0,0 1.675,0.853 2.175,1.44 L 42.671,47.21 c 0,0 1.763,1.146 2.586,2.352 0,0 -0.941,-3.146 0.676,-3.998 0,0 -0.03,1.617 0.706,2.734 0.735,1.116 0.941,2.174 0.941,2.174 z"
     fill-rule="evenodd"
     clip-rule="evenodd"
     fill="#c8bc69"
     id="path70" />
  <path
     d="m 39.556,66.466 c 0,0 0.205,2.146 3.321,4.116 0,0 -1.646,2.528 -6.613,2.499 0,0 -2.41,-0.088 -0.881,-2.734 0,-10e-4 1.528,-3.088 4.173,-3.881 z"
     fill-rule="evenodd"
     clip-rule="evenodd"
     fill="#c8bc69"
     id="path71" />
  <path
     d="m 44.993,71.463 c 0,0 -2.411,2.869 -5.701,3.234 -0.794,0.088 -1.058,0.235 -1.058,0.235 0,0 -1.528,0.999 -1.94,-1.059 0,0 4.85,-0.088 7.112,-2.911 0,0.002 0.558,0.325 1.587,0.501 z"
     fill-rule="evenodd"
     clip-rule="evenodd"
     fill="#c8bc69"
     id="path72" />
  <path
     d="m 47.608,73.051 c 0,0 -1.999,0.823 -2.351,2.117 0,0 1.646,0.059 0.676,1.206 0,0 -0.706,0.382 -0.823,0.646 -0.235,0.529 -0.97,0.529 -0.97,0.529 0,0 -1.499,0.353 -2.086,0.97 l -0.853,-0.676 c 0,0 0.353,-0.647 1.117,-0.882 0,0 0.793,-0.294 1.293,-0.353 0.5,-0.059 1.675,-0.765 1.646,-1.353 0,0 -0.206,-0.147 -0.5,-0.059 0,0 -0.588,0.294 -0.823,0.618 -0.235,0.323 -0.97,0.294 -1.117,0.294 -0.147,0 -1,0.147 -1.499,0.705 -0.5,0.559 -1.146,0.735 -2.175,0 0,0 -0.881,-0.47 -0.94,-1.322 0,0 3.938,0 7.7,-3.793 0.001,0.001 1.294,0.618 1.705,1.353 z m 4.615,7.762 c 0,0 -0.646,-0.471 -1.822,-0.471 -1.176,0 -1.705,0.618 -4.82,-0.029 0,0 -0.823,-0.294 -0.823,-1 0,0 -0.382,-1.088 3.351,-1.088 -0.001,0.001 4.055,-0.146 4.114,2.588 z m -7.994,-2.558 c 0,0 -0.999,1.999 1.47,2.646 0,0 -0.177,0.706 0.587,1.352 0,0 -0.47,0.471 -0.617,1.147 0,0 -0.53,-0.206 -1.235,-0.235 0,0 -2.028,-1.059 -2.028,-4.205 10e-4,0 0.706,-0.617 1.823,-0.705 z m 2.351,3.087 c 0,0 2.057,0.059 3.115,-0.235 0,0 4.026,4.292 0.47,6.086 0,0 0.734,-2.999 -0.823,-4.028 0.001,0 -1.909,-0.941 -2.762,-1.823 z"
     fill-rule="evenodd"
     clip-rule="evenodd"
     fill="#c8bc69"
     id="path73" />
  <path
     d="m 46.933,82.724 c 0,0 2.763,0.706 2.763,2.881 0,0 0.118,1.559 -1.205,2.234 0,0 0.177,-2.822 -2.292,-3.998 z"
     fill-rule="evenodd"
     clip-rule="evenodd"
     fill="#c8bc69"
     id="path74" />
  <path
     d="m 45.816,84.4 c 0,0 1.999,0.705 1.999,3.234 L 46.434,88.34 C 46.433,88.339 44.288,85.605 45.816,84.4 Z"
     fill-rule="evenodd"
     clip-rule="evenodd"
     fill="#c8bc69"
     id="path75" />
  <path
     d="m 44.288,83.9 0.705,0.235 c 0,0 -0.97,2.646 0.911,4.645 0,0 -1.851,1.676 -0.47,4.175 0,0 -2.058,2.264 -1.176,4.322 0,0 -1.94,1.088 -1.146,4.232 0,0 -2.204,0.824 -1.44,4.234 0,0 -2.322,1.322 -1.44,3.293 0,0 -2.351,1.146 -1.852,4.057 0,0 -1.705,1.824 -0.97,3.91 0,0 -1.264,1.383 -0.647,3.529 0,0 -0.764,0.352 -1.028,1.498 0,0 -0.235,-1.439 -1.234,-2.057 0,0 3.909,-2.883 0.852,-5.998 0,0 4.144,-2.029 1.47,-5.498 0,0 4.497,-2.381 2.557,-7.262 0,0 3.439,-1.793 0.912,-5.086 0,0 3.732,-1.853 1.792,-6.998 0,0 1.587,-1.146 2.233,-2.176 0,0.003 -0.559,-1.556 -0.029,-3.055 z"
     fill-rule="evenodd"
     clip-rule="evenodd"
     fill="#c8bc69"
     id="path76" />
  <path
     d="m 21.511,117.975 c 0,0 -1.146,-6.82 1.969,-9.672 0,0 1.499,-1.383 2.204,-1.383 0,0 0.911,-0.088 0.881,0.912 0,0 0,0.734 -1.146,1.352 0,0 -3.644,2.441 -3.908,8.791 z m 4.202,-25.637 c 0,0 -1.234,2.028 0.206,3.292 0,0 -0.44,-1.705 -0.206,-3.292 z m 0.5,4.439 c 0,0 -0.412,4.645 2.939,5.469 z m 2.469,-10.731 c 0,0 -5.583,8.644 2.38,14.934 0,0 -3.703,-3.91 -2.38,-14.934 z"
     fill-rule="evenodd"
     clip-rule="evenodd"
     id="path77" />
  <path
     d="m 63.685,79.196 c 0,0 1.823,-8.761 5.467,-8.761 0,0 1.763,0.118 2.88,0.471 1.117,0.353 1.293,1.117 4.878,2.117 0,0 1.528,0.588 2.175,1.587 0.646,1 6.172,3.646 7.171,5.88 0,0 0.117,2.528 -6.113,2.47 0,0 -2.645,0.117 -3.057,-2.764 -0.411,-2.881 -4.703,-4.88 -6.113,-4.763 0,0 -1.587,-0.117 -1.587,1.587 0,1.706 0.294,2.235 0.294,3.293 0,0 -0.235,5.586 -3.585,14.347 0,0 5.937,3.175 5.996,11.996 0,0 0.059,14.465 -2.821,17.992 0,0 -0.412,0.471 -1.117,0.176 0,0 -2.41,-0.822 -3.468,-2.057 0,0 -2.233,-1.646 -1.881,-5.881 0,0 4.526,-1.352 4.291,-7.996 0,0 0,-7.41 -3.41,-8.41 0,0 -0.235,4.234 -8.053,12.408 0,0 7.876,3.939 7.876,14.289 0,0 0.646,12.758 -13.754,14.229 0,0 -4.644,0.354 -10.228,-7.057 0,0 -2.502,-3.35 -3.762,-8.643 -0.294,-1.234 -1.058,-1.234 -1.058,-1.234 0,0 1.94,-2.529 -1.175,-4.469 0,0 4.467,-3.176 1,-6.115 0,0 1.88,-1.354 1.998,-2.234 0,0 0.176,-0.707 -3.88,-0.707 0,0 -6.642,-0.264 -7.289,4.41 -0.451,3.262 1.421,2.059 1.47,7.469 0,0 0,2.646 -0.882,4.41 0,0 -0.588,-3.764 -5.819,-5.645 0,0 0.411,-2.883 -0.353,-5.234 0,0 -1.352,0.412 -1.823,0.883 0,0 0.177,-2.764 0.882,-4.998 0,0 -0.471,0.059 -0.941,0.234 0,0 0.412,-2.352 3.527,-5.586 l -0.823,-0.588 c 0,0 1.411,-0.705 2.881,-0.941 0,0 -2.116,-2.469 -2.469,-3.998 0,0 0.94,-0.705 2.763,-1.059 0,0 -1.94,-1.764 -1.94,-9.702 0,0 0.235,0.588 0.94,1.176 0,0 -0.353,-1.646 -0.353,-3.293 0,0 0.235,0.177 0.999,0.471 0,0 -0.235,-1.353 -0.176,-2.822 0,0 0.353,0.823 1.234,1.529 l 0.059,-1.706 0.706,0.47 c 0,0 -0.235,-1 -0.176,-1.881 l 0.823,0.47 c 0,0 0.293,-1.705 2.234,-3.704 l -0.059,2.058 c 0,0 1.587,-2.705 3.057,-3.939 0,0 -0.706,8.408 -0.706,10.525 0,0 -1.117,7.763 8.641,14.054 0,0 0.412,-1.883 -0.588,-3.176 0,0 3.997,-1.471 1.059,-4.82 0,0 4.584,-2.353 1.469,-7.41 0,0 1.352,-0.177 2.527,-1.94 0,0 -0.234,-1.705 0.06,-3.116 0,0 -1.881,-1.764 -1.822,-4.292 0,0 -0.94,-0.765 -1.058,-1.176 0,0 -2.763,-0.588 -3.233,-2.176 0,0 -1.881,-0.411 -1.705,-1.999 0,0 -1.939,-0.235 -1.587,-2.705 l -0.294,-0.177 c 0,0 -0.412,-2.058 0.94,-4.645 0,0 -1.352,0.882 -3.879,0.765 0,0 1.704,-1.47 2.116,-2.529 0,0 -0.118,-0.235 -1.176,-0.529 0,0 0.705,-1.47 1.822,-2.469 0,0 -1.353,-0.118 -1.822,0.117 0,0 0.176,-0.588 0.47,-0.823 0,0 -0.411,0.235 -0.587,0.353 0,0 0.412,-2.764 2.586,-4.704 0,0 -0.059,-0.941 0.411,-1.764 0.471,-0.824 1.293,-1.353 -0.47,-2.235 0,0 1.352,-0.117 1.822,0 0,0 -0.118,-0.47 -0.412,-0.646 0,0 0.353,-0.177 1.646,0 0,0 0.059,-0.765 -0.764,-1.235 0,0 1.528,-0.235 2.41,0.059 0,0 -0.529,-1 -1.352,-1.352 0,0 0.94,-0.354 2.175,-0.059 0,0 -0.235,-1.94 0.176,-2.763 0,0 1.117,0.823 1.94,1.234 0,0 0.118,-0.882 0.294,-1.646 0,0 1.469,0.882 1.939,1.353 0,0 0.235,-2.411 2.939,-3.822 0,0 -1.117,2.587 0.353,4.587 0,0 1.822,-3.352 3.88,-4.293 v 3.881 c 0,0 1.469,-1.058 2.057,-1.234 0,0 1.293,3.939 -1.058,5.468 0,0 1.705,1.764 2.116,2.293 0.412,0.529 2.233,2.881 3.645,3.646 0,0 3.879,3.116 3.879,5.468 0,0 -0.117,3.646 -2.821,2.822 l 0.059,0.588 c 0,0 2.175,-0.059 2.175,1 0,0 0.353,1.529 -1.411,1.529 0,0 -1.352,-0.235 -2.468,-0.765 -1.117,-0.529 -1.234,-0.411 -1.881,-0.411 0,0 -2.174,-0.529 -3.232,-2 0,0 -1.352,-0.294 -1.881,-0.882 0,0 -0.176,0.235 -1.822,0.353 0,0 1.528,1.411 5.408,3.057 3.877,1.645 6.346,3.938 9.579,10.406 z m -9.082,49.099 c 2.587,-3.705 0.03,-7.174 0.03,-7.174 -2.645,-3.91 -5.496,-1.205 -5.496,-1.205 -2.293,1.91 -1.235,1.498 -2.028,2.322 -2.397,2.486 -2.351,5.379 -2.351,5.379 0,3.264 4.614,3.352 4.614,3.352 2.851,0 5.231,-2.674 5.231,-2.674 z"
     fill-rule="evenodd"
     clip-rule="evenodd"
     id="path78" />
  <path
     d="M 52.517,93.073 52.4,93.749 c 0,0 0.94,-0.235 3.879,3.116 2.938,3.352 5.378,3.293 5.378,3.293 l -0.646,1.117 c 0,0 -10.286,2.029 -15.752,-3.998 0,0 -1.646,-1.559 0.881,-3.734 0,0 2.704,2.968 7.024,3.439 l 0.059,-0.646 c 0,0 -4.262,-0.706 -6.789,-3.469 -2.426,-2.652 1.411,-4.498 1.411,-4.498 v 0.706 c 0,0 0.587,-0.5 0.97,-0.647 0.382,-0.147 0.823,-0.499 0.823,-0.499 v 0.47 c 0,0 5.319,-1.5 0.999,-7.321 0,0 1.293,-0.147 2.351,0.97 0,0 0.94,-5.91 -7.494,-4.233 0,0 1.881,-3.617 5.79,-1.647 0,0 -0.118,-1.676 -2.028,-2.881 -1.91,-1.206 -2.615,-2.087 -2.615,-2.087 0,0 -7.348,-0.588 -7.289,-9.232 0,0 -0.411,-7.173 5.349,-10.055 0,0 4.409,-2.705 7.876,1.47 3.468,4.175 4.938,5.057 4.938,5.057 0,0 3.703,3.117 3.762,5.116 0,0 -0.059,2.117 -1.528,2.117 0,0 -0.294,0.176 -1.293,-0.706 -0.999,-0.882 -2.528,-0.588 -2.528,-0.588 0,0 0.177,1.234 2.704,3.058 0,0 0.529,0.235 1.528,0.235 0,0 0.588,0.03 0.588,0.5 0,0 0.117,0.646 -0.529,0.646 0,0 -1.59,-0.042 -2.733,-0.735 -0.97,-0.588 -1.293,-0.441 -1.293,-0.441 0,0 -2.116,-0.264 -3.145,-3.234 0,0 -2.586,-0.559 -1.44,-2.734 0,0 -1.264,0.588 -1.969,2.382 0,0 -5.937,0.235 -6.76,-3.999 0,0 -0.5,4.175 3.527,5.027 0,0 -1.293,0.353 -1.793,0.706 0,0 3.145,1.646 5.144,1.676 0,0 7.465,2.822 9.522,5.851 0,0 5.408,6.998 7.171,15.523 0,0 -0.353,4.233 -1.059,5.292 l -0.587,-0.353 c 0,0 0.235,-6.233 -0.235,-7.115 l -0.764,0.059 c 0,0 0.529,3.587 0.353,6.174 0,0 -1.763,-0.706 -1.881,-4.939 -0.117,-4.234 -0.411,-2.823 -0.411,-2.823 h -0.647 c 0,0 0.47,0.412 0.47,4.175 0,3.763 2.763,5.174 2.763,5.174 0,0 3.057,1.44 4.762,4.174 0,0 2.704,3.91 2.116,10.055 0,0 -0.235,13.643 -2.704,15.523 0,0 -1.646,-0.471 -2.881,-1.293 l 2.293,-2.529 0.176,3 1.175,-6.645 -1.469,1.352 -0.118,-1.705 -4.115,1.764 v -0.939 c 0,0 4.115,-1.236 4.115,-7.82 0,0 0.235,-6.645 -2.821,-8.998 0,0 -1.234,-1.117 -1.999,-1.293 -0.765,-0.176 -3.174,-1.352 -5.408,-3.352 -0.002,-0.001 -2.765,-2.411 -5.057,-2.705 z"
     fill-rule="evenodd"
     clip-rule="evenodd"
     fill="#b5b6b5"
     id="path79" />
  <path
     d="m 29.534,84.488 c 0,0 -2.821,12.877 6.936,19.815 0,0 -6.524,-2.176 -6.524,1.824 0,0 -0.118,2.41 3.233,2.822 0,0 -3.409,-3.646 0.823,-3.646 0,0 2.116,0.059 3.703,0.295 0,0 -0.293,1.439 -2.292,2.705 -0.35,0.221 1.264,0.881 0.853,1.998 0,0 -6.201,-0.822 -8.846,0.824 0,0 -4.261,2.088 -2.645,7.525 0,0 -2.469,-2.764 0.706,-6.525 0,0 -0.177,-1.059 0.117,-1.707 0,0 -4.725,5.047 -2.234,9.408 0.353,0.617 1.117,2.117 1.117,2.117 0,0 -3.331,-0.963 -3.645,-5.35 -0.117,-1.646 -0.764,-1.941 -0.764,-1.941 0,0 -0.353,-7.703 5.584,-8.762 0,0 -2.939,-1.939 -3.057,-4.057 l 3.82,-0.354 c 0,0 -2.821,-1.293 -2.821,-6.938 h 0.588 l -0.059,-4.086 1.175,-0.5 v -1.293 c 0,0 0.476,-0.178 0.823,-0.294 l 0.5,-2.293 c 0.822,-0.47 1.822,-0.705 2.909,-1.587 z"
     fill-rule="evenodd"
     clip-rule="evenodd"
     fill="#c8bc69"
     id="path80" />
  <path
     d="m 50.606,56.646 c 0,0 -1.352,-0.765 -2.38,-0.765 0,0 -1.293,0.177 -1.293,-0.47 0,0 0.559,-0.676 1.146,-0.882 0,0 0.441,-0.059 0.706,0.147 0.265,0.206 0.441,0.617 1.029,-0.147 0,0 0.734,-0.529 1.381,-0.5 0,0 0.294,-0.029 0.882,0.647 0,0 1.088,1.382 1.881,1.705 0,0 0.441,0.382 -0.324,0.676 -10e-4,10e-4 -1.382,0.765 -3.028,-0.411 z m 5.878,4.91 c 0,0 2.381,-0.03 2.998,0.47 0,0 0.794,-0.5 0.382,0.471 0,0 0.323,1.029 0,1.411 0,0 -0.088,0.647 -0.764,-0.235 0,0 -0.882,-0.97 -1.381,-0.97 0,0 -0.97,-0.119 -1.235,-1.147 z"
     fill-rule="evenodd"
     clip-rule="evenodd"
     id="path81" />
  <path
     d="m 82.406,78.49 c 0,0 0.735,-0.117 1.352,0.5 0,0 1.323,1.235 1.47,2.058 l -0.47,0.235 c 0,0 -0.647,-1 -1.676,-1.617 -1.029,-0.617 -0.676,-1.176 -0.676,-1.176 z m -0.235,1.412 c 0,0 -0.206,0.146 0,1.616 0,0 0.294,0.941 1.352,0.235 -10e-4,0 -0.294,-1.293 -1.352,-1.851 z m -16.311,39.426 -1.616,1.234 c 0,0 -0.941,-0.471 0.029,-1.146 -10e-4,0 0.705,-0.854 1.587,-0.088 z m -12.638,-3.646 c 0,0 0.558,1.705 -0.265,2.822 0,0 -0.323,-0.176 -1.381,-0.029 0,0 0.294,-2.471 1.646,-2.793 z m 6.848,16.199 c 0,0 0.176,-9.145 -4.703,-10.879 0,0 -0.706,-1.176 -1.91,-2.115 0,0 1.264,-1.295 0.264,-3.734 l 0.382,-0.646 c 0,0 3.086,3.027 1.234,6.027 0,0 1.969,-0.09 1.969,-3.793 0,0 1.793,2.059 1.793,6.645 0,0 0.705,-0.854 1.029,-2.029 0,0 1.175,2.322 0.411,5.145 0,0 0.706,-0.205 1.087,-0.676 l 0.97,1.205 v 2.264 c 0.002,-0.002 -1.88,2.644 -2.526,2.586 z m -16.929,5.381 c 0,0 -2.027,-1.793 -2.586,-2.734 0,0 2.41,-0.146 3.938,-1.412 0,0 0.765,0.354 0.853,1.383 0,0 0,-1 1.087,-0.971 0,0 3.762,0.059 6.789,2.381 0,0 2.263,2.088 -0.206,3.939 0,0 -2.674,2.176 -6.348,0 0,0 -1.764,-0.91 -2.822,-2.176 0,0 1.058,-0.617 1.646,-1.793 0,0 1.176,1 1.969,1.205 l 0.265,-0.559 c 0,0 -1.617,-0.852 -2.292,-1.615 0,0 -0.706,1.645 -2.293,2.352 z m 1.176,-4.735 c 0,0 -1.028,1.207 -4.379,1.207 0,0 -1.205,-1.295 -1.499,-2.324 0,0 2.204,0.646 5.349,-0.234 0,0 0.558,0.617 0.529,1.351 z m -0.764,-2.056 c 0,0 -3.438,1.234 -5.114,0.205 0,0 -1.146,-0.295 -1.44,-2.676 0,0 1.999,1.941 6.319,0.588 0,0 0.265,0.207 0.235,1.883 z"
     fill-rule="evenodd"
     clip-rule="evenodd"
     fill="#b5b6b5"
     id="path82" />
  <path
     d="m 43.583,127.854 c 0,0 -2.939,1.293 -6.054,-0.236 0,0 -1.205,-0.381 -1.205,-2.969 0,0 2.174,3.027 7.964,1.352 0,-0.001 0.029,0.735 -0.705,1.853 z"
     fill-rule="evenodd"
     clip-rule="evenodd"
     fill="#b5b6b5"
     id="path83" />
  <path
     d="m 44.523,125.266 c 0,0 -4.332,1.062 -6.29,0 -2.057,-1.117 -1.94,-2.205 -1.94,-2.205 0,0 0.059,-1.322 0.823,-1.969 0,0 1.764,4.232 8.112,2.322 0,0 -0.118,0.971 -0.705,1.852 z"
     fill-rule="evenodd"
     clip-rule="evenodd"
     fill="#b5b6b5"
     id="path84" />
  <path
     d="m 45.904,122.678 c 0,0 -5.055,1.5 -7.436,-0.705 0,0 -2.145,-2.027 -0.705,-4.381 0,0 2.469,4.469 9.111,3.471 z"
     fill-rule="evenodd"
     clip-rule="evenodd"
     fill="#b5b6b5"
     id="path85" />
  <path
     d="m 47.521,120.326 c 0,0 -4.967,1.354 -8.64,-2.352 0,0 -2.028,-1.941 -0.118,-4.41 0,0 2.792,5.557 11.227,4.381 z"
     fill-rule="evenodd"
     clip-rule="evenodd"
     fill="#b5b6b5"
     id="path86" />
  <path
     d="m 50.606,117.299 c 0,0 -5.937,1.381 -9.963,-2.441 0,0 -3.791,-3.232 0.03,-5.057 0,0 1.587,4.498 7.817,4.498 0,0 1.823,0.236 5.437,-0.764 z"
     fill-rule="evenodd"
     clip-rule="evenodd"
     fill="#b5b6b5"
     id="path87" />
  <path
     d="m 54.78,112.742 c 0,0 -8.641,2.852 -12.108,-1.117 0,0 -3.88,-3.646 -0.559,-5.381 0,0 2.939,6.732 13.695,4.205 0,0 0.03,1.645 -1.028,2.293 z"
     fill-rule="evenodd"
     clip-rule="evenodd"
     fill="#b5b6b5"
     id="path88" />
  <path
     d="m 54.927,110.037 c 0,0 -7.436,1.764 -11.315,-2.705 0,0 -3.174,-3.498 -0.059,-5.293 0,0 4.644,6.645 13.96,4.852 v -0.676 c 0,0 -5.702,1.264 -10.404,-1.881 0,0 -6.201,-3.705 -2.145,-6.557 0,0 5.143,6.291 15.547,4.203 0,0 0.264,3.617 -2.763,4.617 0,0 0.764,0.117 0.764,0.939 0,0.001 0.117,1.677 -3.585,2.501 z M 79.526,82.224 c 0,0 -1.499,0.382 -1.822,-2.146 0,0 -1.293,-4.674 -6.877,-5.351 0,0 -2.087,0.059 -2.087,2.234 0,2.175 0.235,0.706 0.235,3.352 0,0 0,1.999 -1.763,8.996 0,0 0.088,-2.852 -2.91,-8.526 0,0 -0.235,-3.205 2.116,-7.203 0,0 1.146,-2.411 3.174,-2.381 0,0 1.264,0 2.292,0.441 1.029,0.441 2.272,1.228 5.202,2.205 0.617,0.206 1.087,0.853 1.087,0.853 0,0 -0.382,0.147 4.144,2.94 L 81.2,77.314 v 1.382 c 0,0 -0.206,-0.03 -0.412,-0.147 -0.206,-0.118 -0.323,-0.294 -0.588,-0.294 0,0 -0.734,0.147 -1.322,-0.235 0.001,0 0.648,1.587 0.648,4.204 z"
     fill-rule="evenodd"
     clip-rule="evenodd"
     fill="#b5b6b5"
     id="path89" />
  <path
     d="m 52.987,47.679 c 0,0 0.97,2.381 -1.381,3.969 l -0.47,-0.471 c 0,0 0.265,-1.058 0.235,-2.293 0,0 0.822,-0.882 1.616,-1.205 z m -2.351,-2.117 v 5.204 c 0,0 -0.5,-0.294 -2.233,-0.294 l -0.559,-0.97 c 0,-0.001 0.558,-2.734 2.792,-3.94 z m -3.056,4.91 c 0,0 -8.935,0.353 -8.935,11.29 0,0 0.059,3.293 0.676,4.233 0,0 -2.381,-0.382 -4.82,4.47 0,0 -0.353,-2.911 2.086,-5.233 l -0.382,-0.5 c 0,0 -1.47,1.353 -3.321,1.587 l 1.382,-2.146 c 0,0 -0.588,-0.323 -1.235,-0.353 0,0 0.529,-1.529 2.469,-2.764 l -0.323,-0.618 c 0,0 -0.587,0.382 -2.057,0.382 0,0 1.646,-2.852 3.115,-2.205 v -0.617 c 0,0 -0.5,-0.794 -2.733,0.706 0,0 0.294,-1.059 1.47,-1.617 0,0 0.382,0.441 1.587,0.5 v -0.529 c 0,0 -1.44,-0.324 -1.44,-1.117 v 0.088 c 0,0 -0.088,-0.5 0.441,-1.147 0.528,-0.647 0.528,-1.587 0.528,-1.587 0,0 1.235,-0.029 1.852,2.058 0,0 -0.265,-0.146 -0.676,-0.146 v 0.735 c 0,0 0.588,0.03 1.029,0.412 0,0 1.293,-1.029 -1.264,-3.763 h 0.735 c 0,0 0.47,0.029 1.087,0.764 l 0.412,-0.412 c 0,0 -0.735,-1.176 -1.323,-1.705 0,0 1.117,0 1.792,0.941 l 0.353,-0.294 c 0,0 -0.029,-0.97 -0.97,-2.087 0,0 1.088,-0.059 1.881,0.47 0,0 -0.412,-0.941 -0.441,-2.587 0,0 1.675,0.853 2.175,1.44 L 42.671,47.21 c 0,0 1.763,1.146 2.586,2.352 0,0 -0.941,-3.146 0.676,-3.998 0,0 -0.03,1.617 0.706,2.734 0.735,1.116 0.941,2.174 0.941,2.174 z"
     fill-rule="evenodd"
     clip-rule="evenodd"
     fill="#c8bc69"
     id="path90" />
  <path
     d="m 39.556,66.466 c 0,0 0.205,2.146 3.321,4.116 0,0 -1.646,2.528 -6.613,2.499 0,0 -2.41,-0.088 -0.881,-2.734 0,-10e-4 1.528,-3.088 4.173,-3.881 z"
     fill-rule="evenodd"
     clip-rule="evenodd"
     fill="#c8bc69"
     id="path91" />
  <path
     d="m 44.993,71.463 c 0,0 -2.411,2.869 -5.701,3.234 -0.794,0.088 -1.058,0.235 -1.058,0.235 0,0 -1.528,0.999 -1.94,-1.059 0,0 4.85,-0.088 7.112,-2.911 0,0.002 0.558,0.325 1.587,0.501 z"
     fill-rule="evenodd"
     clip-rule="evenodd"
     fill="#c8bc69"
     id="path92" />
  <path
     d="m 47.608,73.051 c 0,0 -1.999,0.823 -2.351,2.117 0,0 1.646,0.059 0.676,1.206 0,0 -0.706,0.382 -0.823,0.646 -0.235,0.529 -0.97,0.529 -0.97,0.529 0,0 -1.499,0.353 -2.086,0.97 l -0.853,-0.676 c 0,0 0.353,-0.647 1.117,-0.882 0,0 0.793,-0.294 1.293,-0.353 0.5,-0.059 1.675,-0.765 1.646,-1.353 0,0 -0.206,-0.147 -0.5,-0.059 0,0 -0.588,0.294 -0.823,0.618 -0.235,0.323 -0.97,0.294 -1.117,0.294 -0.147,0 -1,0.147 -1.499,0.705 -0.5,0.559 -1.146,0.735 -2.175,0 0,0 -0.881,-0.47 -0.94,-1.322 0,0 3.938,0 7.7,-3.793 0.001,0.001 1.294,0.618 1.705,1.353 z m 4.615,7.762 c 0,0 -0.646,-0.471 -1.822,-0.471 -1.176,0 -1.705,0.618 -4.82,-0.029 0,0 -0.823,-0.294 -0.823,-1 0,0 -0.382,-1.088 3.351,-1.088 -0.001,0.001 4.055,-0.146 4.114,2.588 z m -7.994,-2.558 c 0,0 -0.999,1.999 1.47,2.646 0,0 -0.177,0.706 0.587,1.352 0,0 -0.47,0.471 -0.617,1.147 0,0 -0.53,-0.206 -1.235,-0.235 0,0 -2.028,-1.059 -2.028,-4.205 10e-4,0 0.706,-0.617 1.823,-0.705 z m 2.351,3.087 c 0,0 2.057,0.059 3.115,-0.235 0,0 4.026,4.292 0.47,6.086 0,0 0.734,-2.999 -0.823,-4.028 0.001,0 -1.909,-0.941 -2.762,-1.823 z"
     fill-rule="evenodd"
     clip-rule="evenodd"
     fill="#c8bc69"
     id="path93" />
  <path
     d="m 46.933,82.724 c 0,0 2.763,0.706 2.763,2.881 0,0 0.118,1.559 -1.205,2.234 0,0 0.177,-2.822 -2.292,-3.998 z"
     fill-rule="evenodd"
     clip-rule="evenodd"
     fill="#c8bc69"
     id="path94" />
  <path
     d="m 45.816,84.4 c 0,0 1.999,0.705 1.999,3.234 L 46.434,88.34 C 46.433,88.339 44.288,85.605 45.816,84.4 Z"
     fill-rule="evenodd"
     clip-rule="evenodd"
     fill="#c8bc69"
     id="path95" />
  <path
     d="m 44.288,83.9 0.705,0.235 c 0,0 -0.97,2.646 0.911,4.645 0,0 -1.851,1.676 -0.47,4.175 0,0 -2.058,2.264 -1.176,4.322 0,0 -1.94,1.088 -1.146,4.232 0,0 -2.204,0.824 -1.44,4.234 0,0 -2.322,1.322 -1.44,3.293 0,0 -2.351,1.146 -1.852,4.057 0,0 -1.705,1.824 -0.97,3.91 0,0 -1.264,1.383 -0.647,3.529 0,0 -0.764,0.352 -1.028,1.498 0,0 -0.235,-1.439 -1.234,-2.057 0,0 3.909,-2.883 0.852,-5.998 0,0 4.144,-2.029 1.47,-5.498 0,0 4.497,-2.381 2.557,-7.262 0,0 3.439,-1.793 0.912,-5.086 0,0 3.732,-1.853 1.792,-6.998 0,0 1.587,-1.146 2.233,-2.176 0,0.003 -0.559,-1.556 -0.029,-3.055 z"
     fill-rule="evenodd"
     clip-rule="evenodd"
     fill="#c8bc69"
     id="path96" />
  <path
     d="m 21.511,117.975 c 0,0 -1.146,-6.82 1.969,-9.672 0,0 1.499,-1.383 2.204,-1.383 0,0 0.911,-0.088 0.881,0.912 0,0 0,0.734 -1.146,1.352 0,0 -3.644,2.441 -3.908,8.791 z m 4.202,-25.637 c 0,0 -1.234,2.028 0.206,3.292 0,0 -0.44,-1.705 -0.206,-3.292 z m 0.5,4.439 c 0,0 -0.412,4.645 2.939,5.469 z m 2.469,-10.731 c 0,0 -5.583,8.644 2.38,14.934 0,0 -3.703,-3.91 -2.38,-14.934 z"
     fill-rule="evenodd"
     clip-rule="evenodd"
     id="path97" />
  <path
     d="m 96.375,186.492 c 0,0 30.807,1.014 67.014,-13.922 0,0 4.703,-1.529 5.408,-5.996 l -1.176,-4.234 c 0,0 19.398,-5.174 18.223,-16.582 l -5.645,-14.348 c 0,0 -1.645,-7.645 -17.279,1.059 0,0 4.23,7.762 3.408,10.35 0,0 -1.998,1.059 -4.35,1.293 0,0 -2.82,-3.998 -9.053,1.529 0,0 -3.525,-0.471 -8.111,-0.236 0,0 -7.523,0.236 -8.111,3.412 l -0.117,7.643 c 0,0 -16.928,5.527 -40.205,5.527 h -0.006 c -23.276,0 -40.205,-5.527 -40.205,-5.527 l -0.118,-7.643 c -0.588,-3.176 -8.111,-3.412 -8.111,-3.412 -4.585,-0.234 -8.112,0.236 -8.112,0.236 -6.23,-5.527 -9.052,-1.529 -9.052,-1.529 -2.351,-0.234 -4.35,-1.293 -4.35,-1.293 -0.823,-2.588 3.409,-10.35 3.409,-10.35 -15.635,-8.703 -17.281,-1.059 -17.281,-1.059 l -5.643,14.348 c -1.175,11.408 18.222,16.582 18.222,16.582 l -1.176,4.234 c 0.706,4.467 5.408,5.996 5.408,5.996 36.208,14.936 67.002,13.922 67.002,13.922 z"
     fill-rule="evenodd"
     clip-rule="evenodd"
     fill="#00acec"
     id="path98" />
  <path
     d="m 29.778,147.17 c 0,0 -15.067,-3.451 -17.575,-11.604 0,0 -1.411,-7.213 6.113,-7.213 0,0 5.016,0.312 11.599,3.92 0,0 -3.821,6.684 -3.664,10.604 0,0 -0.823,-0.059 -3.351,-1.354 0,0 1.215,-5.801 2.468,-7.525 0,0 -2.978,-1.881 -7.053,-2.666 0,0 -4.232,-0.156 -2.352,4.076 0,0 3.243,6.605 14.842,8.645 z"
     fill-rule="evenodd"
     clip-rule="evenodd"
     fill="#c8bc69"
     stroke="#000000"
     stroke-width="0.705"
     stroke-linecap="round"
     stroke-linejoin="round"
     stroke-miterlimit="2.613"
     id="path99" />
  <path
     d="m 96.393,165.516 c 0,0 30.251,0.627 61.289,-12.389 0,0 5.016,-1.881 5.328,-5.801 l -0.939,-2.979 c 0,0 -2.883,-5.08 -10.502,2.508 -4.389,4.371 -7.564,3.9 -7.564,3.9 0,0 -2.82,-0.059 -2.938,-1.234 0,0 -0.941,-2.195 8.875,-1.309 l 2.881,-2.611 c 0,0 -3.605,-0.785 -9.248,-0.158 0,0 -7.211,0.785 -7.211,3.92 0,0 0.039,4.098 6.936,4.098 0,0 3.018,0.383 7.846,-2.795 1.561,-1.027 3.381,-3.027 5.283,-4.594 0,0 1.41,-1.568 2.35,0.156 0,0 1.254,3.293 -11.285,7.057 0,0 -23.668,8.779 -51.099,8.779 h -0.019 c -27.43,0 -51.099,-8.779 -51.099,-8.779 -12.539,-3.764 -11.285,-7.057 -11.285,-7.057 0.94,-1.725 2.351,-0.156 2.351,-0.156 1.9,1.566 3.723,3.566 5.283,4.594 4.827,3.178 7.845,2.795 7.845,2.795 6.896,0 6.936,-4.098 6.936,-4.098 0,-3.135 -7.21,-3.92 -7.21,-3.92 -5.643,-0.627 -9.248,0.158 -9.248,0.158 l 2.88,2.611 c 9.816,-0.887 8.875,1.309 8.875,1.309 -0.117,1.176 -2.939,1.234 -2.939,1.234 0,0 -3.174,0.471 -7.563,-3.9 -7.62,-7.588 -10.502,-2.508 -10.502,-2.508 l -0.94,2.979 c 0.313,3.92 5.329,5.801 5.329,5.801 31.036,13.016 61.287,12.389 61.287,12.389 z M 162.99,147.17 c 0,0 15.066,-3.451 17.576,-11.604 0,0 1.41,-7.213 -6.113,-7.213 0,0 -5.016,0.312 -11.6,3.92 0,0 3.82,6.684 3.664,10.604 0,0 0.822,-0.059 3.35,-1.354 0,0 -1.215,-5.801 -2.469,-7.525 0,0 2.979,-1.881 7.055,-2.666 0,0 4.232,-0.156 2.352,4.076 0,0 -3.135,6.586 -14.734,8.625 -0.001,0 0.919,2.352 0.919,3.137 z"
     fill-rule="evenodd"
     clip-rule="evenodd"
     fill="#c8bc69"
     stroke="#000000"
     stroke-width="0.705"
     stroke-linecap="round"
     stroke-linejoin="round"
     stroke-miterlimit="2.613"
     id="path100" />
  <path
     d="m 56.405,149.6 v 6.898 m -43.996,-24.617 -5.378,13.76 m -10e-4,0 c 0,0 -2.195,10.779 18.182,16.816 M 136.346,149.6 v 6.898 m 26.629,-9.328 5.623,18.854 m 0,-0.001 c 0,0 1.135,4.588 -8.309,7.92 0,0 -29,12.426 -63.915,12.426 m 0.001,0 h -0.001 m -10e-4,0 c -34.915,0 -63.911,-12.426 -63.911,-12.426 -9.444,-3.332 -8.308,-7.92 -8.308,-7.92 m 0.001,0 5.623,-18.854 m 150.566,-15.288 5.377,13.76 m 0,0 c 0,0 2.195,10.779 -18.182,16.816"
     fill="none"
     stroke="#000000"
     stroke-width="0.705"
     stroke-linecap="round"
     stroke-linejoin="round"
     stroke-miterlimit="2.613"
     id="path101" />
  <path
     d="m 36.516,159.232 1.564,7.301 1.604,-3.975 c 0.224,-0.555 0.307,-0.957 0.25,-1.209 -0.08,-0.338 -0.34,-0.59 -0.78,-0.758 l 0.102,-0.252 2.597,1.049 -0.102,0.252 c -0.353,-0.084 -0.601,-0.109 -0.747,-0.076 -0.146,0.035 -0.287,0.129 -0.422,0.281 -0.137,0.154 -0.292,0.449 -0.469,0.887 l -3.106,7.697 -0.198,-0.08 -2.21,-9.844 -2.372,5.877 c -0.215,0.531 -0.257,0.932 -0.125,1.203 0.131,0.27 0.331,0.459 0.6,0.566 l 0.184,0.074 -0.102,0.252 -2.788,-1.125 0.102,-0.252 c 0.433,0.17 0.776,0.186 1.029,0.051 0.253,-0.137 0.479,-0.449 0.677,-0.939 l 2.633,-6.527 -0.071,-0.312 c -0.064,-0.312 -0.145,-0.533 -0.241,-0.662 -0.096,-0.127 -0.263,-0.246 -0.5,-0.352 l 0.103,-0.252 z m 8.362,3.766 -1.286,3.846 0.16,0.055 c 0.506,0.17 0.938,0.105 1.293,-0.195 0.355,-0.299 0.689,-0.805 1,-1.518 l 0.223,0.074 -1.655,4.949 -0.223,-0.074 c 0.128,-0.557 0.175,-1.031 0.139,-1.426 -0.036,-0.395 -0.135,-0.686 -0.297,-0.871 -0.162,-0.185 -0.434,-0.342 -0.815,-0.471 l -0.89,2.662 c -0.174,0.521 -0.262,0.846 -0.264,0.975 -0.002,0.129 0.036,0.246 0.113,0.355 0.077,0.107 0.229,0.201 0.458,0.277 l 0.48,0.16 c 0.752,0.252 1.422,0.248 2.01,-0.01 0.588,-0.258 1.121,-0.771 1.601,-1.541 l 0.215,0.072 -1.359,2.885 -6.947,-2.324 0.087,-0.258 0.271,0.092 c 0.232,0.076 0.434,0.09 0.606,0.039 0.124,-0.031 0.24,-0.115 0.349,-0.256 0.083,-0.096 0.205,-0.381 0.363,-0.854 l 2.079,-6.217 c 0.143,-0.428 0.219,-0.695 0.229,-0.801 a 0.702,0.702 0 0 0 -0.09,-0.447 c -0.105,-0.18 -0.288,-0.314 -0.548,-0.4 l -0.271,-0.092 0.086,-0.258 6.724,2.25 -0.935,2.795 -0.223,-0.074 c 0.112,-0.723 0.114,-1.266 0.007,-1.633 -0.107,-0.367 -0.328,-0.684 -0.662,-0.951 -0.19,-0.156 -0.59,-0.336 -1.199,-0.539 z m 16.81,4.234 -0.069,0.264 a 0.713,0.713 0 0 0 -0.423,0.047 1.118,1.118 0 0 0 -0.38,0.318 c -0.043,0.049 -0.268,0.383 -0.674,1 l -4.658,7.275 -0.234,-0.062 -0.397,-6.744 -3.873,5.621 -0.22,-0.059 -0.621,-8.576 c -0.066,-0.863 -0.132,-1.393 -0.197,-1.586 -0.065,-0.195 -0.222,-0.34 -0.47,-0.436 l 0.069,-0.264 3.552,0.936 -0.07,0.264 c -0.291,-0.066 -0.496,-0.066 -0.615,0.002 a 0.468,0.468 0 0 0 -0.232,0.307 c -0.048,0.18 -0.049,0.588 -0.003,1.223 l 0.374,5.098 2.248,-3.312 -0.064,-1.111 c -0.042,-0.609 -0.089,-1.02 -0.139,-1.234 a 1.06,1.06 0 0 0 -0.238,-0.492 c -0.109,-0.113 -0.292,-0.205 -0.547,-0.273 l 0.069,-0.262 3.971,1.045 -0.069,0.264 c -0.281,-0.068 -0.489,-0.096 -0.625,-0.08 a 0.428,0.428 0 0 0 -0.24,0.115 0.501,0.501 0 0 0 -0.145,0.246 c -0.029,0.109 -0.026,0.467 0.006,1.074 l 0.291,4.955 2.423,-3.777 c 0.254,-0.389 0.418,-0.658 0.493,-0.805 0.074,-0.148 0.128,-0.287 0.164,-0.42 0.051,-0.195 0.035,-0.363 -0.05,-0.504 -0.085,-0.141 -0.284,-0.258 -0.599,-0.352 l 0.069,-0.264 z m 8.159,1.293 -0.663,3.393 -0.238,-0.047 c -0.005,-0.92 -0.208,-1.664 -0.606,-2.232 -0.399,-0.566 -0.909,-0.912 -1.529,-1.033 -0.52,-0.102 -1.03,-0.018 -1.532,0.248 a 3.122,3.122 0 0 0 -1.222,1.193 c -0.402,0.678 -0.689,1.461 -0.863,2.352 a 9.567,9.567 0 0 0 -0.183,2.449 c 0.05,0.756 0.238,1.357 0.566,1.803 0.327,0.447 0.812,0.732 1.452,0.857 0.524,0.102 1.031,0.062 1.519,-0.123 0.488,-0.185 1.037,-0.559 1.647,-1.125 l -0.165,0.846 c -0.579,0.48 -1.145,0.801 -1.701,0.961 -0.556,0.158 -1.17,0.172 -1.844,0.041 -0.89,-0.176 -1.639,-0.539 -2.245,-1.092 -0.606,-0.553 -1.021,-1.258 -1.243,-2.115 a 5.849,5.849 0 0 1 -0.074,-2.617 5.984,5.984 0 0 1 1.142,-2.533 c 0.58,-0.758 1.267,-1.299 2.062,-1.623 0.796,-0.324 1.59,-0.408 2.385,-0.254 0.587,0.115 1.176,0.385 1.768,0.811 0.341,0.246 0.562,0.379 0.664,0.398 a 0.44,0.44 0 0 0 0.373,-0.104 c 0.118,-0.094 0.215,-0.26 0.292,-0.5 z m 1.861,7.174 1.763,-3.219 0.776,3.574 z m 2.946,2.215 c 0.072,0.338 0.107,0.527 0.106,0.572 a 0.912,0.912 0 0 1 0.006,0.275 c -0.021,0.145 -0.082,0.25 -0.185,0.314 -0.146,0.09 -0.384,0.109 -0.714,0.064 l -0.16,-0.023 -0.037,0.27 4.053,0.566 0.037,-0.27 c -0.254,-0.061 -0.438,-0.176 -0.553,-0.344 -0.162,-0.225 -0.332,-0.742 -0.511,-1.549 l -1.896,-8.516 -0.116,-0.016 -4.098,7.455 c -0.391,0.713 -0.701,1.174 -0.928,1.389 a 1.21,1.21 0 0 1 -0.804,0.336 l -0.037,0.27 2.788,0.389 0.037,-0.27 c -0.432,-0.1 -0.697,-0.195 -0.798,-0.289 -0.171,-0.156 -0.237,-0.375 -0.198,-0.65 0.029,-0.209 0.124,-0.465 0.286,-0.77 l 0.49,-0.91 2.961,0.414 z m 10.237,-7.57 -0.229,3.316 -0.256,-0.023 c -0.047,-0.84 -0.282,-1.535 -0.707,-2.082 -0.425,-0.549 -0.911,-0.848 -1.457,-0.898 -0.425,-0.039 -0.772,0.064 -1.043,0.309 a 1.311,1.311 0 0 0 -0.453,0.885 c -0.021,0.219 0.006,0.418 0.078,0.598 0.101,0.24 0.273,0.484 0.516,0.732 0.18,0.18 0.603,0.506 1.269,0.98 0.938,0.662 1.556,1.262 1.851,1.799 0.295,0.539 0.413,1.137 0.354,1.789 -0.075,0.83 -0.415,1.52 -1.018,2.066 -0.603,0.549 -1.33,0.783 -2.178,0.707 a 2.881,2.881 0 0 1 -0.741,-0.164 4.96,4.96 0 0 1 -0.857,-0.439 c -0.192,-0.115 -0.35,-0.18 -0.477,-0.191 -0.107,-0.01 -0.227,0.029 -0.357,0.115 a 0.99,0.99 0 0 0 -0.333,0.42 l -0.227,-0.021 0.341,-3.748 0.227,0.021 c 0.084,1.07 0.362,1.906 0.834,2.508 0.472,0.602 1.007,0.93 1.607,0.984 0.463,0.043 0.846,-0.072 1.149,-0.346 a 1.48,1.48 0 0 0 0.508,-1.002 1.588,1.588 0 0 0 -0.095,-0.695 2.077,2.077 0 0 0 -0.423,-0.668 c -0.197,-0.219 -0.556,-0.51 -1.079,-0.879 -0.726,-0.514 -1.243,-0.941 -1.551,-1.285 a 3.395,3.395 0 0 1 -0.681,-1.117 2.959,2.959 0 0 1 -0.154,-1.299 c 0.071,-0.791 0.38,-1.441 0.927,-1.953 a 2.412,2.412 0 0 1 1.946,-0.664 2.7,2.7 0 0 1 0.78,0.189 c 0.189,0.076 0.417,0.207 0.684,0.391 0.267,0.184 0.456,0.281 0.568,0.291 a 0.313,0.313 0 0 0 0.267,-0.094 c 0.07,-0.072 0.146,-0.254 0.228,-0.547 z m 8.738,0.685 -0.12,2.693 -0.228,-0.01 c -0.104,-0.627 -0.231,-1.08 -0.38,-1.357 a 1.793,1.793 0 0 0 -0.638,-0.68 c -0.153,-0.096 -0.427,-0.152 -0.823,-0.17 l -0.631,-0.027 -0.34,7.674 c -0.023,0.508 -0.014,0.826 0.027,0.957 a 0.704,0.704 0 0 0 0.265,0.346 c 0.135,0.102 0.325,0.158 0.569,0.168 l 0.279,0.014 -0.012,0.27 -4.429,-0.195 0.012,-0.271 0.286,0.012 c 0.244,0.012 0.441,-0.031 0.593,-0.127 a 0.638,0.638 0 0 0 0.272,-0.342 c 0.054,-0.115 0.092,-0.422 0.114,-0.92 l 0.341,-7.674 -0.616,-0.027 c -0.567,-0.025 -0.986,0.098 -1.258,0.371 -0.379,0.379 -0.632,0.934 -0.757,1.664 l -0.242,-0.012 0.12,-2.691 z m 8.226,6.432 -0.299,3.5 -7.517,0.053 -0.002,-0.271 0.279,-0.002 c 0.245,-0.002 0.442,-0.055 0.594,-0.158 0.107,-0.07 0.19,-0.188 0.248,-0.355 0.043,-0.117 0.063,-0.426 0.059,-0.926 l -0.046,-6.557 c -0.003,-0.51 -0.029,-0.828 -0.077,-0.955 -0.048,-0.127 -0.142,-0.238 -0.282,-0.332 -0.14,-0.096 -0.328,-0.141 -0.563,-0.139 l -0.279,0.002 -0.002,-0.273 4.511,-0.031 0.002,0.271 -0.367,0.002 c -0.244,0.002 -0.443,0.057 -0.594,0.16 -0.107,0.068 -0.189,0.188 -0.248,0.354 -0.049,0.119 -0.07,0.428 -0.066,0.928 l 0.045,6.35 c 0.004,0.51 0.031,0.834 0.084,0.975 a 0.541,0.541 0 0 0 0.293,0.309 c 0.107,0.045 0.359,0.064 0.756,0.061 l 0.705,-0.004 c 0.451,-0.004 0.826,-0.1 1.123,-0.287 0.297,-0.189 0.555,-0.484 0.773,-0.889 0.217,-0.402 0.422,-0.996 0.611,-1.781 z m 3.504,-6.09 0.24,4.049 0.168,-0.01 c 0.533,-0.031 0.908,-0.252 1.127,-0.664 0.219,-0.41 0.34,-1.004 0.363,-1.781 l 0.234,-0.014 0.309,5.209 -0.234,0.014 c -0.088,-0.564 -0.223,-1.021 -0.402,-1.375 -0.182,-0.352 -0.381,-0.584 -0.602,-0.695 -0.219,-0.113 -0.529,-0.156 -0.93,-0.133 l 0.166,2.801 c 0.031,0.549 0.072,0.883 0.117,1.002 a 0.571,0.571 0 0 0 0.238,0.287 c 0.111,0.072 0.289,0.102 0.527,0.088 l 0.506,-0.031 c 0.793,-0.047 1.412,-0.299 1.861,-0.758 0.449,-0.457 0.752,-1.135 0.91,-2.027 l 0.227,-0.014 -0.184,3.183 -7.312,0.436 -0.016,-0.271 0.287,-0.018 c 0.244,-0.014 0.438,-0.078 0.578,-0.189 0.102,-0.074 0.178,-0.197 0.229,-0.367 0.041,-0.119 0.047,-0.428 0.018,-0.928 l -0.389,-6.543 c -0.025,-0.451 -0.055,-0.727 -0.084,-0.828 a 0.71,0.71 0 0 0 -0.252,-0.381 c -0.166,-0.129 -0.385,-0.184 -0.658,-0.168 l -0.285,0.018 -0.016,-0.271 7.076,-0.42 0.174,2.941 -0.234,0.014 c -0.166,-0.711 -0.365,-1.217 -0.602,-1.518 a 1.888,1.888 0 0 0 -0.969,-0.635 c -0.234,-0.074 -0.672,-0.092 -1.312,-0.055 z m 7.793,-1.121 4.33,-0.58 0.035,0.27 -0.211,0.027 c -0.33,0.045 -0.549,0.115 -0.66,0.211 -0.111,0.096 -0.182,0.219 -0.213,0.365 -0.033,0.148 -0.012,0.502 0.064,1.066 l 0.646,4.832 c 0.119,0.883 0.254,1.461 0.406,1.73 0.152,0.271 0.371,0.484 0.656,0.639 0.283,0.154 0.623,0.205 1.016,0.152 0.457,-0.061 0.828,-0.232 1.117,-0.516 0.287,-0.283 0.482,-0.646 0.582,-1.09 0.102,-0.443 0.082,-1.188 -0.059,-2.236 l -0.539,-4.025 c -0.059,-0.441 -0.141,-0.752 -0.242,-0.93 -0.104,-0.18 -0.221,-0.297 -0.352,-0.354 -0.199,-0.088 -0.469,-0.107 -0.807,-0.062 l -0.037,-0.27 2.902,-0.389 0.037,0.27 -0.174,0.023 c -0.234,0.031 -0.422,0.113 -0.564,0.246 -0.142,0.133 -0.234,0.314 -0.271,0.547 -0.033,0.162 -0.021,0.445 0.033,0.848 l 0.502,3.748 c 0.154,1.16 0.201,2.006 0.139,2.537 -0.062,0.533 -0.314,1.049 -0.76,1.547 -0.443,0.5 -1.104,0.809 -1.977,0.924 -0.723,0.098 -1.297,0.059 -1.725,-0.115 -0.58,-0.238 -1.016,-0.586 -1.303,-1.041 -0.289,-0.455 -0.486,-1.094 -0.598,-1.914 l -0.646,-4.832 c -0.076,-0.568 -0.15,-0.916 -0.223,-1.049 -0.07,-0.131 -0.18,-0.229 -0.324,-0.293 -0.144,-0.064 -0.393,-0.07 -0.746,-0.018 z"
     fill-rule="evenodd"
     clip-rule="evenodd"
     id="path102" />
  <path
     d="m 124.721,168.49 5.283,5.277 -0.814,-4.209 c -0.115,-0.588 -0.264,-0.971 -0.447,-1.15 -0.252,-0.24 -0.607,-0.311 -1.068,-0.213 l -0.051,-0.268 2.75,-0.531 0.053,0.268 c -0.342,0.121 -0.564,0.236 -0.668,0.342 -0.105,0.109 -0.172,0.264 -0.203,0.467 -0.029,0.203 -0.002,0.535 0.088,0.998 l 1.576,8.152 -0.209,0.039 -7.205,-7.062 1.203,6.225 c 0.109,0.564 0.291,0.924 0.549,1.078 0.256,0.156 0.527,0.205 0.811,0.15 l 0.195,-0.039 0.053,0.268 -2.953,0.572 -0.051,-0.268 c 0.455,-0.094 0.752,-0.266 0.891,-0.518 0.139,-0.252 0.158,-0.637 0.059,-1.156 l -1.34,-6.912 -0.23,-0.225 c -0.223,-0.227 -0.41,-0.367 -0.561,-0.424 -0.15,-0.055 -0.354,-0.062 -0.611,-0.023 l -0.051,-0.266 z m 12.386,7.227 0.062,0.266 -4.309,1.033 -0.064,-0.266 0.279,-0.066 c 0.238,-0.057 0.418,-0.152 0.535,-0.287 0.09,-0.092 0.145,-0.225 0.162,-0.402 0.02,-0.125 -0.027,-0.432 -0.145,-0.918 L 132.1,168.7 c -0.119,-0.494 -0.217,-0.799 -0.291,-0.912 -0.074,-0.113 -0.191,-0.199 -0.35,-0.26 -0.159,-0.061 -0.352,-0.064 -0.58,-0.01 l -0.279,0.068 -0.062,-0.266 4.309,-1.033 0.064,0.266 -0.271,0.064 c -0.238,0.057 -0.42,0.154 -0.543,0.289 -0.09,0.092 -0.145,0.227 -0.168,0.402 -0.016,0.125 0.035,0.432 0.15,0.916 l 1.529,6.377 c 0.117,0.496 0.215,0.801 0.289,0.914 0.074,0.113 0.191,0.199 0.35,0.26 0.159,0.061 0.354,0.062 0.588,0.006 z m 5.446,-11.567 0.736,2.596 -0.219,0.061 c -0.297,-0.561 -0.561,-0.951 -0.791,-1.168 -0.23,-0.217 -0.504,-0.365 -0.82,-0.443 -0.176,-0.043 -0.453,-0.008 -0.836,0.1 l -0.607,0.172 2.102,7.396 c 0.141,0.49 0.25,0.789 0.328,0.9 0.08,0.109 0.201,0.191 0.361,0.244 0.16,0.055 0.357,0.049 0.594,-0.02 l 0.268,-0.076 0.074,0.262 -4.268,1.213 -0.074,-0.26 0.275,-0.08 c 0.234,-0.066 0.408,-0.17 0.523,-0.309 0.09,-0.098 0.139,-0.232 0.15,-0.41 0.016,-0.125 -0.047,-0.43 -0.182,-0.91 l -2.102,-7.395 -0.594,0.168 c -0.547,0.156 -0.906,0.404 -1.078,0.75 -0.24,0.48 -0.305,1.088 -0.193,1.82 l -0.234,0.066 -0.736,-2.596 z m 3.56,-0.595 1.312,3.84 0.16,-0.055 c 0.506,-0.174 0.809,-0.486 0.908,-0.941 0.102,-0.453 0.059,-1.059 -0.127,-1.812 l 0.223,-0.076 1.689,4.938 -0.223,0.076 c -0.234,-0.52 -0.486,-0.926 -0.754,-1.217 -0.268,-0.291 -0.523,-0.463 -0.766,-0.512 -0.243,-0.049 -0.553,-0.008 -0.934,0.121 l 0.91,2.658 c 0.178,0.518 0.305,0.83 0.381,0.932 0.076,0.104 0.18,0.176 0.307,0.215 0.127,0.039 0.305,0.02 0.531,-0.059 l 0.48,-0.164 c 0.75,-0.256 1.281,-0.666 1.59,-1.229 0.311,-0.561 0.424,-1.293 0.336,-2.195 l 0.217,-0.074 0.67,3.119 -6.932,2.371 -0.088,-0.256 0.271,-0.094 c 0.23,-0.078 0.4,-0.191 0.506,-0.336 0.08,-0.1 0.121,-0.238 0.123,-0.414 0.008,-0.127 -0.068,-0.428 -0.23,-0.9 l -2.123,-6.205 c -0.145,-0.426 -0.246,-0.684 -0.303,-0.773 a 0.71,0.71 0 0 0 -0.344,-0.303 c -0.193,-0.078 -0.42,-0.074 -0.68,0.016 l -0.27,0.092 -0.09,-0.256 6.711,-2.297 0.953,2.789 -0.223,0.076 c -0.35,-0.643 -0.678,-1.076 -0.984,-1.303 a 1.887,1.887 0 0 0 -1.104,-0.352 c -0.246,-0.01 -0.674,0.09 -1.281,0.297 z m 9.037,-3.145 c 0.477,0.039 0.951,0.287 1.424,0.74 0.605,0.582 1.146,1.465 1.625,2.65 0.594,1.473 0.801,2.654 0.621,3.541 -0.133,0.656 -0.52,1.115 -1.166,1.375 -0.195,0.078 -0.359,0.105 -0.49,0.078 -0.096,-0.014 -0.176,-0.059 -0.24,-0.133 -0.064,-0.074 -0.174,-0.303 -0.328,-0.684 l -2.912,-7.215 c 0.644,-0.264 1.132,-0.381 1.466,-0.352 z m 2.571,8.865 c 0.51,-0.205 0.871,-0.383 1.086,-0.533 0.484,-0.332 0.867,-0.682 1.148,-1.047 a 3.76,3.76 0 0 0 0.627,-1.252 c 0.139,-0.471 0.186,-1.016 0.145,-1.637 A 6.142,6.142 0 0 0 160.27,162.9 c -0.379,-0.939 -0.9,-1.711 -1.562,-2.311 -0.662,-0.6 -1.418,-0.941 -2.266,-1.027 -0.693,-0.068 -1.512,0.088 -2.451,0.467 l -3.518,1.42 0.102,0.254 0.266,-0.107 c 0.219,-0.088 0.41,-0.115 0.576,-0.078 a 0.71,0.71 0 0 1 0.383,0.205 c 0.092,0.102 0.232,0.389 0.424,0.861 l 2.455,6.082 c 0.191,0.477 0.289,0.771 0.291,0.881 0,0.17 -0.043,0.32 -0.129,0.453 -0.088,0.133 -0.244,0.246 -0.471,0.338 l -0.266,0.105 0.102,0.254 z"
     fill-rule="evenodd"
     clip-rule="evenodd"
     id="path103" />
</svg>
