<?xml version="1.0" encoding="UTF-8" standalone="no"?>
<svg
   clip-rule="evenodd"
   fill-rule="evenodd"
   viewBox="0 0 249.7271 278.29001"
   version="1.1"
   id="svg35"
   sodipodi:docname="Norwich.svg"
   width="249.7271"
   height="278.29001"
   xmlns:inkscape="http://www.inkscape.org/namespaces/inkscape"
   xmlns:sodipodi="http://sodipodi.sourceforge.net/DTD/sodipodi-0.dtd"
   xmlns="http://www.w3.org/2000/svg"
   xmlns:svg="http://www.w3.org/2000/svg">
  <defs
     id="defs35" />
  <sodipodi:namedview
     id="namedview35"
     pagecolor="#ffffff"
     bordercolor="#000000"
     borderopacity="0.25"
     inkscape:showpageshadow="2"
     inkscape:pageopacity="0.0"
     inkscape:pagecheckerboard="0"
     inkscape:deskcolor="#d1d1d1" />
  <g
     fill-rule="nonzero"
     id="g35"
     transform="translate(-155.13645,-60.855)">
    <path
       d="m 400.341,141.106 v -0.027 L 400.699,65 H 159.301 l 0.358,76.079 v 0.027 C 159.659,237.658 218.989,335 280,335 c 61.011,0 120.341,-97.342 120.341,-193.894 z"
       fill="#00a650"
       stroke="#000000"
       stroke-width="8.29"
       id="path1" />
    <g
       stroke-width="0.03"
       id="g34">
      <path
         d="m 172.913,75.521 c 4.511,-0.112 9.022,-0.112 13.505,-0.028 0.056,1.793 0.028,3.558 0.056,5.323 2.83,0.056 5.688,0.056 8.546,0 -0.028,-1.765 -0.057,-3.53 0.056,-5.295 4.763,-0.112 9.554,-0.112 14.345,0 0.084,1.765 0.056,3.53 0.056,5.295 2.746,0.056 5.492,0.056 8.238,0 -0.028,-1.765 -0.056,-3.53 0.028,-5.323 4.987,-0.084 9.974,-0.084 14.962,0 0.084,1.793 0.056,3.558 0.028,5.323 2.549,0.056 5.127,0.056 7.677,0 0,-1.765 -0.028,-3.53 0.056,-5.323 4.483,-0.084 8.994,-0.084 13.505,0.028 0.056,1.765 0.028,3.53 0.028,5.295 3.222,0.056 6.444,0.056 9.666,0 -0.028,-1.765 -0.056,-3.53 0.028,-5.295 5.352,-0.112 10.731,-0.112 16.083,-0.028 0.084,9.834 0.084,19.641 0,29.447 -16.251,0.028 -32.502,0.056 -48.753,0 -0.084,-3.25 0.085,-6.472 -0.084,-9.694 -3.81,0.028 -7.593,0.028 -11.375,0 -0.028,3.222 0.084,6.472 -0.056,9.694 -15.523,0.028 -31.045,0.028 -46.595,0 -0.084,-9.806 -0.084,-19.613 0,-29.419 m 1.793,1.373 c -0.028,8.826 -0.028,17.623 -0.028,26.449 14.346,0.056 28.691,0.112 43.037,-0.028 0.028,-3.334 -0.112,-6.696 0.056,-10.03 5.015,0.056 10.03,0.028 15.046,0.028 0.028,3.334 -0.056,6.696 0.056,10.03 15.046,0.056 30.092,0.084 45.138,0 0,-8.826 0,-17.623 -0.028,-26.449 -4.147,-0.056 -8.322,-0.084 -12.469,0.028 0,1.849 0.028,3.726 -0.056,5.575 -4.399,0.028 -8.826,0.028 -13.224,0 -0.113,-1.849 -0.056,-3.726 -0.056,-5.575 -3.307,-0.112 -6.641,-0.112 -9.947,0 0,1.849 0.028,3.726 -0.084,5.575 -3.699,0.028 -7.425,0.028 -11.124,0 -0.028,-1.877 0.028,-3.726 -0.056,-5.603 -3.81,-0.084 -7.621,-0.084 -11.431,0.028 0.028,1.849 0.056,3.726 -0.028,5.575 -3.951,0.028 -7.901,0.028 -11.852,0 -0.084,-1.849 -0.056,-3.698 -0.028,-5.575 -3.586,-0.14 -7.201,-0.112 -10.787,0 0,1.849 0.028,3.726 -0.056,5.575 -4.035,0.028 -8.07,0.028 -12.104,0 -0.084,-1.849 -0.028,-3.698 -0.028,-5.575 -3.307,-0.14 -6.641,-0.084 -9.947,-0.028 z"
         fill="#241f20"
         stroke="#241f20"
         id="path2" />
      <path
         d="m 174.706,76.894 c 3.306,-0.056 6.64,-0.112 9.947,0.028 0,1.877 -0.056,3.726 0.028,5.575 4.034,0.028 8.069,0.028 12.104,0 0.084,-1.849 0.056,-3.726 0.056,-5.575 3.586,-0.112 7.201,-0.14 10.787,0 -0.028,1.877 -0.056,3.726 0.028,5.575 3.951,0.028 7.901,0.028 11.852,0 0.084,-1.849 0.056,-3.726 0.028,-5.575 3.81,-0.112 7.621,-0.112 11.431,-0.028 0.084,1.877 0.028,3.726 0.056,5.603 3.699,0.028 7.425,0.028 11.124,0 0.112,-1.849 0.084,-3.726 0.084,-5.575 3.306,-0.112 6.64,-0.112 9.947,0 0,1.849 -0.057,3.726 0.056,5.575 4.398,0.028 8.825,0.028 13.224,0 0.084,-1.849 0.056,-3.726 0.056,-5.575 4.147,-0.112 8.322,-0.084 12.469,-0.028 0.028,8.826 0.028,17.623 0.028,26.449 -15.046,0.084 -30.092,0.056 -45.138,0 -0.112,-3.334 -0.028,-6.696 -0.056,-10.03 -5.016,0 -10.031,0.028 -15.046,-0.028 -0.168,3.334 -0.028,6.696 -0.056,10.03 -14.346,0.14 -28.691,0.084 -43.037,0.028 0,-8.826 0,-17.623 0.028,-26.449 m 15.354,10.899 c -0.028,2.522 -0.084,5.043 0.028,7.593 0.645,-0.028 1.261,-0.028 1.906,0 0.084,-2.55 0.056,-5.071 0.028,-7.593 z m 67.861,0.028 c 0,2.522 -0.028,5.043 0,7.537 h 1.934 c 0.112,-2.522 0.084,-5.043 0.028,-7.565 -0.645,0 -1.317,0 -1.962,0.028 z"
         fill="#fff200"
         stroke="#fff200"
         id="path3" />
      <path
         d="m 341.053,87.008 c 4.427,-4.987 10.366,-9.022 17.147,-9.722 2.55,-0.196 5.267,-0.476 7.649,0.672 5.408,2.774 11.824,1.569 17.344,3.951 1.653,0.729 3.166,1.793 4.342,3.166 -2.689,4.707 -9.162,4.959 -12.216,9.33 -1.148,1.597 -1.092,3.643 -0.98,5.52 1.064,21.126 -1.962,42.56 -9.611,62.313 -4.09,11.208 -11.964,20.762 -21.49,27.823 -11.011,8.181 -24.152,13.421 -37.741,15.242 -1.289,0.112 -2.045,1.289 -2.774,2.242 -3.642,4.959 -3.642,11.879 -1.149,17.315 15.411,0.757 29.924,9.891 37.657,23.171 2.13,3.559 3.727,7.453 4.455,11.516 2.242,11.376 0.084,23.648 -6.22,33.426 -7.873,12.048 -22.191,19.193 -36.452,19.249 -3.586,0.056 -7.229,0.056 -10.675,-1.009 -13.925,-3.866 -26.198,-14.289 -31.045,-28.074 -4.483,-13.169 -2.073,-28.383 5.828,-39.815 4.595,-6.668 11.32,-11.768 18.801,-14.85 1.036,-6.22 -3.251,-11.907 -2.214,-18.128 0.28,-1.989 1.653,-3.53 2.83,-5.071 -3.951,-1.989 -8.49,-0.644 -12.636,-1.709 -18.128,17.736 -34.211,37.405 -50.77,56.598 -3.558,5.239 -6.977,10.675 -8.994,16.727 -3.082,-6.613 -0.813,-13.982 -0.28,-20.874 -5.408,-0.701 -10.675,1.149 -16.027,1.401 1.765,-1.653 3.811,-2.998 5.66,-4.567 17.371,-14.318 30.932,-32.446 45.782,-49.201 1.709,-1.849 3.334,-3.755 4.932,-5.716 22.078,-26.562 44.185,-53.123 66.264,-79.713 2.157,-2.606 4.398,-5.155 6.444,-7.817 5.351,-7.817 9.722,-16.363 16.139,-23.396 m 4.258,-1.344 c -14.793,14.849 -23.143,34.855 -38.273,49.396 -1.009,0.897 -2.101,1.822 -2.466,3.194 -1.905,5.828 -2.914,12.02 -6.108,17.372 4.763,1.961 10.031,1.009 14.822,-0.308 5.66,-1.597 11.18,-4.791 14.122,-10.059 2.745,0.561 5.547,1.037 8.349,0.953 8.378,-0.168 16.419,-3.979 22.359,-9.807 0.224,0.28 0.448,0.533 0.7,0.813 -1.793,2.493 -3.95,4.847 -6.808,6.136 -0.729,0.336 -1.681,0.616 -1.821,1.541 -2.102,8.013 -6.192,15.466 -11.628,21.714 -11.18,12.749 -27.29,20.09 -43.625,23.676 -1.289,0.364 -2.746,0.336 -3.867,1.121 -4.875,4.539 -10.254,9.078 -16.979,10.395 9.666,1.961 19.613,2.521 29.42,1.513 11.459,-1.093 22.807,-4.455 32.613,-10.563 8.21,-4.735 15.298,-11.376 20.51,-19.277 5.015,-7.453 8.434,-15.887 10.787,-24.516 4.427,-16.335 5.296,-33.343 5.464,-50.182 -1.906,6.164 -5.912,11.684 -11.432,15.046 -2.998,1.485 -6.584,1.681 -9.778,0.729 -3.643,-1.009 -6.473,-4.539 -6.473,-8.35 -0.224,-3.894 -1.176,-8.517 1.653,-11.74 1.233,-1.653 3.447,-1.765 5.156,-2.661 1.205,-0.785 0.672,-2.522 1.429,-3.615 1.233,-1.765 3.39,-2.493 5.407,-3.026 2.886,-0.98 6.052,0.112 8.574,1.597 2.802,1.793 2.914,6.192 0.532,8.378 -2.101,2.045 -5.239,2.437 -8.041,2.213 -1.961,-0.084 -3.979,-0.756 -5.295,-2.241 -0.645,-0.673 -1.233,-1.737 -2.326,-1.429 -2.606,0.448 -5.099,2.69 -5.211,5.435 -0.449,3.895 -0.309,8.126 1.709,11.6 2.017,2.214 5.295,3.026 8.181,2.606 4.147,-0.981 7.761,-3.783 10.059,-7.341 1.821,-2.886 3.67,-5.884 4.399,-9.246 1.233,-5.128 0.28,-10.703 -2.466,-15.186 -0.981,-1.597 -2.97,-2.102 -4.651,-2.578 -6.921,-1.345 -14.261,1.597 -18.997,6.697 m 26.338,-4.175 c 0.336,1.569 0.756,3.11 1.177,4.651 3.082,-0.729 6.192,-1.373 9.218,-2.298 -3.25,-1.485 -6.837,-2.185 -10.395,-2.353 m 1.989,7.032 c 0.28,1.289 0.673,2.578 1.121,3.839 2.41,-3.11 6.416,-3.951 9.302,-6.388 -3.586,0.084 -7.341,0.588 -10.423,2.549 m -13.393,-1.709 c -2.129,0.449 -4.399,1.289 -5.743,3.082 -0.169,1.906 0.784,4.147 2.717,4.848 2.046,0.812 4.399,0.84 6.557,0.392 1.373,-0.701 2.746,-1.513 3.81,-2.634 0.869,-1.709 -0.448,-4.007 -2.213,-4.539 -1.681,-0.476 -3.362,-1.317 -5.128,-1.149 m -62.061,58.475 c -19.193,23.003 -38.273,46.119 -57.634,69.01 -1.093,1.261 -2.27,2.494 -3.194,3.895 2.465,-1.009 4.735,-2.382 7.06,-3.671 5.072,-2.998 10.059,-6.808 12.693,-12.216 -0.336,-0.336 -0.645,-0.672 -0.981,-0.981 4.427,-5.015 9.078,-9.834 13.449,-14.877 8.77,-10.031 18.773,-19.109 25.777,-30.541 2.83,-4.595 5.072,-9.582 6.444,-14.794 -1.288,1.289 -2.409,2.774 -3.614,4.175 m 44.942,1.485 c -1.065,0.561 -1.261,1.849 -1.681,2.858 -3.25,8.91 -9.975,16.223 -17.904,21.294 -8.546,5.492 -18.296,8.826 -28.215,10.815 -6.052,1.682 -12.3,-1.821 -18.352,0.056 -2.662,0.785 -4.511,3.11 -5.352,5.66 6.249,0.533 12.441,2.354 18.745,1.513 13.785,-1.989 27.29,-7.061 38.273,-15.746 8.826,-6.949 15.887,-16.475 18.913,-27.402 -1.485,0.196 -3.082,0.252 -4.427,0.952 m -20.314,6.052 c -7.088,5.772 -16.979,7.341 -25.693,4.847 -2.353,2.662 -4.679,5.352 -6.892,8.154 1.065,1.457 2.97,1.401 4.567,1.681 1.373,0.168 2.662,0.728 4.035,0.672 13.364,-1.148 26.589,-8.349 33.286,-20.201 -1.289,-0.308 -2.578,-0.56 -3.895,-0.729 -1.625,2.018 -3.334,3.979 -5.408,5.576 m 11.824,-4.175 c -2.213,1.682 -2.746,4.651 -4.847,6.389 -3.979,3.558 -8.125,6.948 -12.72,9.722 -5.604,3.334 -11.936,5.912 -18.577,5.688 -3.474,0.112 -6.892,-0.785 -10.086,-2.073 -3.11,3.474 -6.136,7.004 -9.106,10.619 7.424,1.26 15.214,1.597 22.527,-0.421 8.517,-3.222 17.091,-6.724 24.432,-12.216 6.276,-4.651 11.459,-11.151 13.421,-18.8 -1.766,-0.281 -3.671,-0.112 -5.044,1.092 m -64.639,40.403 c -3.418,3.699 -6.892,7.313 -10.17,11.152 10.114,1.541 21.266,-1.457 28.354,-9.106 -6.136,0.364 -12.216,-0.645 -18.184,-2.046 m -11.375,14.178 c -1.962,2.101 -2.774,5.127 -5.072,6.976 -0.56,0.505 -1.26,0.953 -1.316,1.793 -0.365,2.718 -0.113,5.632 1.428,7.986 5.156,-5.912 10.507,-11.684 16.055,-17.26 -1.597,0 -3.166,0.14 -4.735,0.196 -1.429,0.113 -2.578,-1.036 -4.007,-0.952 -0.924,0.056 -1.737,0.588 -2.353,1.261 m 27.766,2.858 c -1.905,1.793 -2.886,4.427 -2.746,7.032 0.169,4.791 2.326,9.274 2.326,14.094 1.037,-0.169 2.045,-0.393 3.054,-0.673 -0.757,-3.39 -2.69,-6.528 -2.774,-10.059 0,-4.034 2.69,-7.312 3.979,-10.983 -1.261,0.028 -2.83,-0.448 -3.839,0.589 m 10.647,-0.337 c -1.12,2.046 -0.56,4.707 -2.213,6.501 -0.589,0.616 -0.785,1.429 -0.757,2.241 -0.336,7.929 5.548,14.542 5.464,22.443 0.028,1.037 -0.448,1.989 -1.093,2.718 -2.998,3.53 -8.686,3.278 -11.179,7.341 3.614,-1.877 7.145,-4.175 11.263,-4.819 1.569,-0.197 2.858,1.008 3.839,2.101 2.578,3.082 2.886,7.285 4.791,10.703 0.672,-2.886 -1.065,-5.66 -0.644,-8.574 2.801,-0.98 4.707,1.569 7.116,2.354 -2.493,-3.138 -6.528,-4.371 -9.358,-7.145 1.933,-2.942 5.828,-2.185 8.826,-2.325 -3.446,-0.701 -7.005,-0.645 -10.507,-1.261 -0.728,-7.957 -5.548,-15.13 -5.071,-23.256 0.112,-3.446 1.905,-6.444 4.09,-8.994 -1.513,-0.084 -3.054,-0.056 -4.567,-0.028 m -4.343,0.477 c -1.26,2.297 -2.689,4.483 -3.67,6.92 -1.233,4.343 0.756,8.714 2.578,12.609 0.924,-0.112 1.821,-0.393 2.633,-0.841 -1.12,-1.681 -2.073,-3.502 -2.269,-5.548 -0.644,-4.511 1.009,-8.825 1.765,-13.196 -0.336,0.028 -0.7,0.028 -1.037,0.056 m -44.157,9.078 c -9.078,14.681 -20.538,27.962 -33.958,38.862 -0.981,0.756 -0.841,2.129 -1.065,3.194 -0.645,4.483 -2.102,9.078 -0.869,13.561 1.345,-2.102 2.466,-4.343 3.867,-6.417 10.002,-15.774 23.62,-28.719 35.443,-43.036 -1.317,-2.438 -2.045,-5.1 -2.297,-7.817 -0.364,0.532 -0.757,1.064 -1.121,1.653 m -12.692,5.744 c -1.373,0.196 -2.27,1.26 -3.11,2.241 -10.031,10.927 -19.333,22.751 -31.269,31.689 3.138,-1.037 6.5,-0.168 9.694,-0.897 1.485,-0.308 2.578,-1.485 3.699,-2.437 11.964,-10.227 22.611,-22.135 30.652,-35.724 -3.026,2.045 -6.024,4.343 -9.666,5.128 m 66.572,5.855 c 0.308,3.082 0.953,6.108 1.457,9.162 4.063,0.505 8.181,0.561 12.244,1.261 1.373,0.281 2.634,0.981 3.811,1.737 0.616,0.281 0.56,1.009 0.644,1.57 -4.119,1.204 -8.434,0.112 -12.608,0.924 2.213,1.989 4.819,3.474 6.92,5.604 2.046,1.961 3.811,4.595 3.643,7.565 -3.671,-1.345 -5.66,-5.464 -9.667,-6.192 1.261,4.034 0.476,8.742 -2.55,11.824 -1.148,-3.026 -1.905,-6.164 -2.941,-9.247 -0.757,-2.297 -1.149,-5.043 -3.279,-6.5 -1.541,-1.121 -3.39,-0.112 -4.931,0.476 -3.895,1.57 -7.145,4.483 -11.235,5.66 -0.056,-1.989 0.448,-4.034 1.877,-5.491 2.97,-3.026 7.509,-3.615 10.619,-6.473 1.093,-1.036 0.953,-2.718 1.009,-4.09 -0.112,-2.578 -0.673,-5.436 -2.69,-7.201 -1.261,-0.112 -2.466,0.336 -3.671,0.616 -6.08,1.513 -11.88,4.231 -16.783,8.154 -10.395,8.349 -16.195,21.882 -15.466,35.163 0.812,17.848 14.906,34.183 32.417,37.741 13.225,2.914 28.383,0.168 38.162,-9.666 10.899,-10.535 15.998,-26.982 11.768,-41.692 -3.419,-11.236 -11.208,-21.294 -21.771,-26.646 -5.239,-2.662 -11.123,-4.062 -16.979,-4.259 z"
         fill="#241f20"
         stroke="#241f20"
         id="path4" />
      <path
         d="m 345.311,85.664 c 4.736,-5.1 12.076,-8.042 18.997,-6.697 1.681,0.476 3.67,0.981 4.651,2.578 2.746,4.483 3.699,10.058 2.466,15.186 -0.729,3.362 -2.578,6.36 -4.399,9.246 -2.298,3.558 -5.912,6.36 -10.059,7.341 -2.886,0.42 -6.164,-0.392 -8.181,-2.606 -2.018,-3.474 -2.158,-7.705 -1.709,-11.6 0.112,-2.745 2.605,-4.987 5.211,-5.435 1.093,-0.308 1.681,0.756 2.326,1.429 1.316,1.485 3.334,2.157 5.295,2.241 2.802,0.224 5.94,-0.168 8.041,-2.213 2.382,-2.186 2.27,-6.585 -0.532,-8.378 -2.522,-1.485 -5.688,-2.577 -8.574,-1.597 -2.017,0.533 -4.174,1.261 -5.407,3.026 -0.757,1.093 -0.224,2.83 -1.429,3.615 -1.709,0.896 -3.923,1.008 -5.156,2.661 -2.829,3.223 -1.877,7.846 -1.653,11.74 0,3.811 2.83,7.341 6.473,8.35 3.194,0.952 6.78,0.756 9.778,-0.729 5.52,-3.362 9.526,-8.882 11.432,-15.046 -0.168,16.839 -1.037,33.847 -5.464,50.182 -2.353,8.629 -5.772,17.063 -10.787,24.516 -5.212,7.901 -12.3,14.542 -20.51,19.277 -9.806,6.108 -21.154,9.47 -32.613,10.563 -9.807,1.008 -19.754,0.448 -29.42,-1.513 6.725,-1.317 12.104,-5.856 16.979,-10.395 1.121,-0.785 2.578,-0.757 3.867,-1.121 16.335,-3.586 32.445,-10.927 43.625,-23.676 5.436,-6.248 9.526,-13.701 11.628,-21.714 0.14,-0.925 1.092,-1.205 1.821,-1.541 2.858,-1.289 5.015,-3.643 6.808,-6.136 -0.252,-0.28 -0.476,-0.533 -0.7,-0.813 -5.94,5.828 -13.981,9.639 -22.359,9.807 -2.802,0.084 -5.604,-0.392 -8.349,-0.953 -2.942,5.268 -8.462,8.462 -14.122,10.059 -4.791,1.317 -10.059,2.269 -14.822,0.308 3.194,-5.352 4.203,-11.544 6.108,-17.372 0.365,-1.372 1.457,-2.297 2.466,-3.194 15.13,-14.541 23.48,-34.547 38.273,-49.396 z"
         fill="#fff200"
         stroke="#fff200"
         id="path5" />
      <path
         d="m 371.649,81.489 c 3.558,0.168 7.145,0.868 10.395,2.353 -3.026,0.925 -6.136,1.569 -9.218,2.298 -0.421,-1.541 -0.841,-3.082 -1.177,-4.651 z"
         fill="#fff200"
         stroke="#fff200"
         id="path6" />
      <path
         d="m 373.638,88.521 c 3.082,-1.961 6.837,-2.465 10.423,-2.549 -2.886,2.437 -6.892,3.278 -9.302,6.388 -0.448,-1.261 -0.841,-2.55 -1.121,-3.839 z"
         fill="#fff200"
         stroke="#fff200"
         id="path7" />
      <path
         d="m 360.245,86.812 c 1.766,-0.168 3.447,0.673 5.128,1.149 1.765,0.532 3.082,2.83 2.213,4.539 -1.064,1.121 -2.437,1.933 -3.81,2.634 -2.158,0.448 -4.511,0.42 -6.557,-0.392 -1.933,-0.701 -2.886,-2.942 -2.717,-4.848 1.344,-1.793 3.614,-2.633 5.743,-3.082 m -0.868,1.149 c -1.625,0.42 -3.082,2.045 -2.634,3.811 0.476,1.793 2.55,2.297 4.147,2.633 1.569,0.449 3.026,-0.616 4.034,-1.709 1.065,-1.261 0.617,-3.278 -0.7,-4.119 -1.429,-0.924 -3.25,-0.98 -4.847,-0.616 z"
         fill="#fff200"
         stroke="#fff200"
         id="path8" />
      <path
         d="m 190.06,87.793 h 1.962 c 0.028,2.522 0.056,5.043 -0.028,7.593 -0.645,-0.028 -1.261,-0.028 -1.906,0 -0.112,-2.55 -0.056,-5.071 -0.028,-7.593 z"
         fill="#241f20"
         stroke="#241f20"
         id="path9" />
      <path
         d="m 257.921,87.821 c 0.645,-0.028 1.317,-0.028 1.962,-0.028 0.056,2.522 0.084,5.043 -0.028,7.565 h -1.934 c -0.028,-2.494 0,-5.015 0,-7.537 z"
         fill="#241f20"
         stroke="#241f20"
         id="path10" />
      <path
         d="m 359.377,87.961 c 1.597,-0.364 3.418,-0.308 4.847,0.616 1.317,0.841 1.765,2.858 0.7,4.119 -1.008,1.093 -2.465,2.158 -4.034,1.709 -1.597,-0.336 -3.671,-0.84 -4.147,-2.633 -0.448,-1.766 1.009,-3.391 2.634,-3.811 z"
         fill="#241f20"
         stroke="#241f20"
         id="path11" />
      <path
         d="m 192.302,116.736 c 1.653,-3.194 4.034,-6.024 6.976,-8.125 0.617,1.008 1.093,2.409 2.382,2.662 1.961,0.224 3.754,-1.149 5.716,-0.925 1.429,0.14 1.177,2.382 2.605,2.55 1.317,-0.028 2.578,-0.533 3.867,-0.729 -1.093,6.024 -5.436,10.675 -7.817,16.139 6.416,-0.757 12.86,-1.485 19.333,-1.401 5.8,0 11.627,-0.028 17.427,0.336 8.07,0 16.195,0.364 24.264,-0.252 2.018,0.084 2.942,-3.446 0.897,-4.091 -5.239,-2.297 -11.039,-0.588 -16.503,-0.392 -3.67,-0.084 -7.257,0.616 -10.871,1.065 -6.36,0.896 -12.889,1.485 -19.249,0.308 -2.045,-0.28 -3.138,-2.27 -3.839,-3.979 -1.4,-3.922 1.654,-8.321 5.576,-9.134 12.581,-3.446 25.721,0.813 38.414,-1.905 3.838,-0.897 8.013,-0.28 11.375,1.849 2.634,1.457 4.539,4.399 4.455,7.453 -1.513,0.448 -3.082,0.476 -4.623,0.561 2.55,1.428 4.735,3.782 5.324,6.724 0.336,3.054 -2.326,5.492 -4.96,6.472 -4.286,1.457 -9.274,0.757 -13,3.671 0.448,1.233 1.317,2.381 2.633,2.661 3.055,0.645 6.081,-1.148 9.135,-0.448 1.26,0.28 2.073,1.373 2.885,2.298 1.598,-1.009 3.475,-0.953 5.296,-0.869 0.897,4.371 -2.298,7.845 -3.642,11.712 -0.813,2.073 -0.084,4.231 0.588,6.248 -3.334,0.056 -4.931,-3.166 -7.061,-5.127 -1.205,-1.289 -3.25,-0.841 -4.511,-1.934 -0.644,-1.849 1.653,-3.894 0.28,-5.659 -2.998,-0.869 -5.603,1.457 -8.097,2.773 -1.765,1.093 -3.895,1.205 -5.884,0.869 -0.42,1.233 -0.56,2.522 -0.672,3.811 -0.168,2.353 -1.906,4.23 -3.783,5.435 -1.513,1.093 -2.942,-0.756 -4.455,-0.896 -5.323,-1.093 -9.582,3.894 -14.85,3.39 -2.185,-0.308 -4.875,-1.513 -4.763,-4.119 -1.345,0.196 -2.662,0.476 -4.006,0.645 -0.337,-1.261 -0.253,-2.718 0.672,-3.727 0.953,-1.429 2.606,-1.961 4.063,-2.718 -0.056,-0.84 -0.813,-1.429 -1.289,-2.073 1.513,-1.289 3.502,-1.961 5.463,-1.569 4.259,0.868 8.154,4.511 12.749,2.942 -1.513,-2.13 -3.895,-3.447 -5.324,-5.632 -1.204,-1.793 -0.588,-4.595 1.457,-5.492 2.466,-0.98 5.212,0 7.677,-0.924 -0.168,-0.701 -0.392,-1.737 -1.344,-1.541 -2.242,0.14 -4.539,-0.729 -6.697,0.112 -6.304,1.989 -10.059,8.153 -16.223,10.423 -2.241,0.896 -4.707,0.56 -7.004,1.092 -3.194,0.701 -6.473,0.701 -9.723,1.121 0.224,1.709 0.449,3.531 -0.336,5.128 -0.756,1.681 -2.185,3.446 -4.203,3.53 -1.064,-0.672 -1.849,-1.681 -2.802,-2.494 -1.961,2.046 -4.791,3.11 -7.593,2.998 -1.036,-0.196 -1.709,-1.317 -2.83,-1.233 -2.073,-0.14 -4.763,0.673 -6.192,-1.372 0.449,-0.561 1.037,-1.065 1.233,-1.794 -0.224,-0.952 -1.317,-1.373 -2.185,-1.513 -2.102,-0.308 -4.231,0.14 -6.333,0.056 -1.905,0 -3.39,-1.429 -4.707,-2.661 1.738,-1.878 -0.308,-4.063 0.224,-6.192 6.557,0.028 12.273,4.286 18.857,3.978 0.392,-1.289 0.42,-2.662 0.196,-3.978 -3.502,-0.561 -7.117,-0.617 -10.563,-1.513 -2.129,-0.533 -4.287,-1.513 -5.66,-3.279 -1.12,-1.485 -1.709,-3.278 -2.297,-5.015 0.504,-0.42 1.009,-0.813 1.513,-1.205 -0.14,-2.157 -0.869,-4.315 -0.364,-6.472 0.224,-1.037 1.373,-1.373 2.185,-1.821 -1.093,-2.186 -2.718,-4.455 -2.129,-7.033 0.14,-1.373 1.765,-1.905 2.101,-3.138 -0.224,-1.289 -1.149,-2.354 -1.485,-3.642 1.653,-0.533 3.474,-0.337 4.931,0.56 2.158,1.093 4.231,3.474 6.865,2.634 1.485,-0.897 2.858,-2.102 4.707,-1.99 -1.345,5.352 -6.276,8.91 -7.593,14.262 -0.757,2.998 1.289,5.912 3.811,7.313 1.4,0.644 2.998,0.364 4.482,0.364 1.065,-5.52 2.158,-11.152 4.848,-16.139 m 67.833,-5.884 c -1.205,0.449 -2.326,1.373 -3.671,1.149 -7.537,-0.756 -15.102,-1.233 -22.695,-1.037 -4.287,-0.056 -8.742,0.449 -12.608,2.438 -2.83,1.541 -2.662,5.576 -0.869,7.817 0.869,0.589 1.906,0.785 2.886,1.037 8.77,2.129 17.512,-1.541 26.282,-1.261 5.8,-0.252 11.655,-2.298 17.371,-0.644 2.186,0.476 3.951,2.325 4.315,4.539 0.084,1.765 -1.513,3.166 -3.138,3.642 -2.466,0.672 -5.071,0.757 -7.621,0.588 -19.333,-1.092 -38.778,-0.952 -57.999,1.71 0.281,-0.589 0.533,-1.205 0.813,-1.822 -2.522,-0.168 -4.651,-2.381 -4.567,-4.959 2.634,-0.196 5.295,-0.14 7.929,-0.364 1.513,-2.998 3.166,-5.996 4.287,-9.19 -0.841,0.364 -1.597,0.98 -2.55,0.952 -0.924,-0.84 -0.98,-2.213 -1.401,-3.306 -1.653,0.364 -3.222,0.925 -4.763,1.541 -0.952,-0.756 -1.681,-2.045 -2.802,-2.437 -2.605,1.821 -4.595,4.511 -5.884,7.424 1.345,1.878 4.371,3.503 3.026,6.193 -1.821,0.112 -3.67,0.056 -5.491,0.084 -0.785,2.129 -1.261,4.399 -1.093,6.696 0.869,-0.784 1.569,-1.765 2.55,-2.381 2.045,-0.505 4.175,0.448 5.576,1.933 1.513,1.625 2.857,3.446 4.623,4.847 -4.511,0.28 -8.658,-2.269 -13.169,-2.045 -2.998,4.23 0.896,9.134 -0.392,13.701 -6.277,1.821 -12.329,-1.373 -18.325,-2.662 0.477,0.196 0.981,0.42 1.485,0.616 -0.588,1.205 -1.232,2.382 -1.821,3.559 3.923,1.569 8.238,0.196 12.272,1.149 0.028,1.541 0.028,3.054 0.084,4.567 2.55,0.476 4.371,-1.541 5.912,-3.223 1.261,0.841 2.074,2.074 2.634,3.447 2.55,0.168 3.39,-3.026 5.716,-3.615 0.728,1.093 1.177,2.326 1.905,3.419 0.897,0.672 1.849,-0.337 2.186,-1.121 1.316,-2.214 0.448,-4.819 -0.365,-7.061 4.175,-1.037 8.546,-0.728 12.805,-1.261 3.726,-0.504 7.453,-1.541 10.619,-3.614 4.175,-2.578 7.677,-6.304 12.3,-8.125 3.054,-1.289 6.528,-1.037 9.554,0.168 0.841,2.745 0.141,5.603 0.589,8.405 0.364,1.709 1.681,3.699 3.642,3.643 2.886,0.028 6.024,0.224 8.518,-1.429 1.625,-1.177 3.558,-1.794 5.52,-2.13 1.653,-0.28 3.474,0.925 3.67,2.606 0.168,1.317 -0.28,2.578 -0.616,3.839 1.092,-0.056 2.409,-0.393 3.25,0.504 1.429,1.597 1.653,4.231 3.922,5.015 -0.224,-0.952 -0.532,-1.933 -0.532,-2.914 0.168,-4.09 4.959,-6.5 4.371,-10.759 -1.597,0.14 -2.494,1.737 -3.979,2.073 -1.205,-0.448 -1.597,-1.989 -2.746,-2.577 -2.157,-1.205 -4.819,-0.701 -7.088,-0.196 -3.026,1.176 -6.417,-1.737 -6.501,-4.764 0.533,-1.288 1.822,-2.101 3.026,-2.689 3.587,-1.569 7.734,-0.925 11.348,-2.382 2.213,-0.868 3.642,-3.25 3.418,-5.576 -0.7,-1.401 -2.073,-2.325 -3.306,-3.222 -6.808,-4.455 -15.662,-4.483 -23.255,-2.185 -1.878,-2.914 -5.632,-3.362 -8.798,-3.11 -2.186,0.588 -2.298,3.95 -4.707,4.118 -3.531,0.533 -7.117,1.345 -10.675,0.673 -1.57,-0.42 -3.335,-1.205 -4.007,-2.774 0.168,-1.877 0.476,-4.651 2.746,-5.071 4.987,-1.121 10.17,-1.373 15.27,-0.981 12.104,0.673 23.956,4.231 36.144,4.007 -1.149,-2.494 -3.559,-4.175 -6.136,-4.932 -2.886,-0.924 -6.108,-1.428 -8.994,-0.28 m -86.522,0.477 c 0.112,0.672 0.308,1.344 0.252,2.017 -0.448,1.513 -2.493,2.185 -2.353,3.923 -0.476,3.446 3.278,5.491 3.306,8.797 -0.925,0 -1.821,-0.056 -2.746,-0.196 -0.756,1.765 -0.784,3.811 -0.112,5.576 0.561,1.037 1.793,1.429 2.634,2.185 0.168,0.421 -0.224,0.645 -0.532,0.785 -1.149,-0.056 -2.27,-0.42 -3.391,-0.112 0.869,1.989 2.158,3.979 4.175,4.931 3.586,1.317 7.481,1.261 11.292,1.205 0.112,-1.793 0.28,-3.614 0.532,-5.436 -3.026,0.028 -5.94,-1.317 -7.901,-3.642 -2.046,-1.961 -2.018,-5.099 -1.373,-7.677 1.149,-4.091 4.511,-6.893 6.752,-10.367 -1.485,0.028 -2.353,1.373 -3.642,1.793 -2.718,-0.252 -4.371,-2.886 -6.893,-3.782 m 51.611,3.306 c -1.345,0.476 -2.298,2.017 -1.794,3.418 3.138,2.157 7.145,0.981 10.591,0.364 2.522,-0.196 3.335,-2.998 5.324,-4.146 -4.679,-0.225 -9.554,-1.205 -14.121,0.364 m 21.126,0.196 c 2.241,2.353 5.856,1.905 8.741,1.205 -2.913,-0.477 -5.827,-1.009 -8.741,-1.205 m -8.49,25.021 c -0.757,0.392 -1.653,1.457 -0.869,2.241 2.186,2.55 4.511,4.959 6.725,7.509 -1.261,1.121 -2.914,1.765 -4.623,1.709 -4.259,-0.056 -7.901,-2.83 -12.104,-3.25 0.504,0.56 1.008,1.121 1.513,1.681 -2.354,1.709 -5.828,1.821 -7.453,4.483 1.289,-0.28 2.55,-0.672 3.81,-1.065 0.421,1.317 0.533,2.69 1.065,3.951 0.869,0.841 2.214,1.009 3.362,0.925 3.026,-0.309 5.408,-2.606 8.406,-2.942 2.662,-0.224 5.183,1.204 7.845,0.924 1.233,-0.112 2.298,-0.896 2.858,-1.961 0.841,-1.513 1.737,-3.362 1.009,-5.099 -1.149,-2.522 -4.007,-3.755 -5.184,-6.277 -0.532,-1.064 -0.364,-2.297 -0.252,-3.446 -2.017,0.112 -4.231,-0.364 -6.108,0.617 z"
         fill="#241f20"
         stroke="#241f20"
         id="path12" />
      <g
         fill="#fff200"
         stroke="#fff200"
         id="g26">
        <path
           d="m 260.135,110.852 c 2.886,-1.148 6.108,-0.644 8.994,0.28 2.577,0.757 4.987,2.438 6.136,4.932 -12.188,0.224 -24.04,-3.334 -36.144,-4.007 -5.1,-0.392 -10.283,-0.14 -15.27,0.981 -2.27,0.42 -2.578,3.194 -2.746,5.071 0.672,1.569 2.437,2.354 4.007,2.774 3.558,0.672 7.144,-0.14 10.675,-0.673 2.409,-0.168 2.521,-3.53 4.707,-4.118 3.166,-0.252 6.92,0.196 8.798,3.11 7.593,-2.298 16.447,-2.27 23.255,2.185 1.233,0.897 2.606,1.821 3.306,3.222 0.224,2.326 -1.205,4.708 -3.418,5.576 -3.614,1.457 -7.761,0.813 -11.348,2.382 -1.204,0.588 -2.493,1.401 -3.026,2.689 0.084,3.027 3.475,5.94 6.501,4.764 2.269,-0.505 4.931,-1.009 7.088,0.196 1.149,0.588 1.541,2.129 2.746,2.577 1.485,-0.336 2.382,-1.933 3.979,-2.073 0.588,4.259 -4.203,6.669 -4.371,10.759 0,0.981 0.308,1.962 0.532,2.914 -2.269,-0.784 -2.493,-3.418 -3.922,-5.015 -0.841,-0.897 -2.158,-0.56 -3.25,-0.504 0.336,-1.261 0.784,-2.522 0.616,-3.839 -0.196,-1.681 -2.017,-2.886 -3.67,-2.606 -1.962,0.336 -3.895,0.953 -5.52,2.13 -2.494,1.653 -5.632,1.457 -8.518,1.429 -1.961,0.056 -3.278,-1.934 -3.642,-3.643 -0.448,-2.802 0.252,-5.66 -0.589,-8.405 -3.026,-1.205 -6.5,-1.457 -9.554,-0.168 -4.623,1.821 -8.125,5.547 -12.3,8.125 -3.166,2.073 -6.893,3.11 -10.619,3.614 -4.259,0.533 -8.63,0.224 -12.805,1.261 0.813,2.242 1.681,4.847 0.365,7.061 -0.337,0.784 -1.289,1.793 -2.186,1.121 -0.728,-1.093 -1.177,-2.326 -1.905,-3.419 -2.326,0.589 -3.166,3.783 -5.716,3.615 -0.56,-1.373 -1.373,-2.606 -2.634,-3.447 -1.541,1.682 -3.362,3.699 -5.912,3.223 -0.056,-1.513 -0.056,-3.026 -0.084,-4.567 -4.034,-0.953 -8.349,0.42 -12.272,-1.149 0.589,-1.177 1.233,-2.354 1.821,-3.559 -0.504,-0.196 -1.008,-0.42 -1.485,-0.616 5.996,1.289 12.048,4.483 18.325,2.662 1.288,-4.567 -2.606,-9.471 0.392,-13.701 4.511,-0.224 8.658,2.325 13.169,2.045 -1.766,-1.401 -3.11,-3.222 -4.623,-4.847 -1.401,-1.485 -3.531,-2.438 -5.576,-1.933 -0.981,0.616 -1.681,1.597 -2.55,2.381 -0.168,-2.297 0.308,-4.567 1.093,-6.696 1.821,-0.028 3.67,0.028 5.491,-0.084 1.345,-2.69 -1.681,-4.315 -3.026,-6.193 1.289,-2.913 3.279,-5.603 5.884,-7.424 1.121,0.392 1.85,1.681 2.802,2.437 1.541,-0.616 3.11,-1.177 4.763,-1.541 0.421,1.093 0.477,2.466 1.401,3.306 0.953,0.028 1.709,-0.588 2.55,-0.952 -1.121,3.194 -2.774,6.192 -4.287,9.19 -2.634,0.224 -5.295,0.168 -7.929,0.364 -0.084,2.578 2.045,4.791 4.567,4.959 -0.28,0.617 -0.532,1.233 -0.813,1.822 19.221,-2.662 38.666,-2.802 57.999,-1.71 2.55,0.169 5.155,0.084 7.621,-0.588 1.625,-0.476 3.222,-1.877 3.138,-3.642 -0.364,-2.214 -2.129,-4.063 -4.315,-4.539 -5.716,-1.654 -11.571,0.392 -17.371,0.644 -8.77,-0.28 -17.512,3.39 -26.282,1.261 -0.98,-0.252 -2.017,-0.448 -2.886,-1.037 -1.793,-2.241 -1.961,-6.276 0.869,-7.817 3.866,-1.989 8.321,-2.494 12.608,-2.438 7.593,-0.196 15.158,0.281 22.695,1.037 1.345,0.224 2.466,-0.7 3.671,-1.149 z"
           id="path13" />
        <path
           d="m 173.613,111.329 c 2.522,0.896 4.175,3.53 6.893,3.782 1.289,-0.42 2.157,-1.765 3.642,-1.793 -2.241,3.474 -5.603,6.276 -6.752,10.367 -0.645,2.578 -0.673,5.716 1.373,7.677 1.961,2.325 4.875,3.67 7.901,3.642 -0.252,1.822 -0.42,3.643 -0.532,5.436 -3.811,0.056 -7.706,0.112 -11.292,-1.205 -2.017,-0.952 -3.306,-2.942 -4.175,-4.931 1.121,-0.308 2.242,0.056 3.391,0.112 0.308,-0.14 0.7,-0.364 0.532,-0.785 -0.841,-0.756 -2.073,-1.148 -2.634,-2.185 -0.672,-1.765 -0.644,-3.811 0.112,-5.576 0.925,0.14 1.821,0.196 2.746,0.196 -0.028,-3.306 -3.782,-5.351 -3.306,-8.797 -0.14,-1.738 1.905,-2.41 2.353,-3.923 0.056,-0.673 -0.14,-1.345 -0.252,-2.017 z"
           id="path14" />
        <path
           d="m 237.86,139.852 c 1.877,-0.981 4.091,-0.505 6.108,-0.617 -0.112,1.149 -0.28,2.382 0.252,3.446 1.177,2.522 4.035,3.755 5.184,6.277 0.728,1.737 -0.168,3.586 -1.009,5.099 -0.56,1.065 -1.625,1.849 -2.858,1.961 -2.662,0.28 -5.183,-1.148 -7.845,-0.924 -2.998,0.336 -5.38,2.633 -8.406,2.942 -1.148,0.084 -2.493,-0.084 -3.362,-0.925 -0.532,-1.261 -0.644,-2.634 -1.065,-3.951 -1.26,0.393 -2.521,0.785 -3.81,1.065 1.625,-2.662 5.099,-2.774 7.453,-4.483 -0.505,-0.56 -1.009,-1.121 -1.513,-1.681 4.203,0.42 7.845,3.194 12.104,3.25 1.709,0.056 3.362,-0.588 4.623,-1.709 -2.214,-2.55 -4.539,-4.959 -6.725,-7.509 -0.784,-0.784 0.112,-1.849 0.869,-2.241 z"
           id="path15" />
        <path
           d="m 298.184,145.287 c 1.205,-1.401 2.326,-2.886 3.614,-4.175 -1.372,5.212 -3.614,10.199 -6.444,14.794 -7.004,11.432 -17.007,20.51 -25.777,30.541 -4.371,5.043 -9.022,9.862 -13.449,14.877 0.336,0.309 0.645,0.645 0.981,0.981 -2.634,5.408 -7.621,9.218 -12.693,12.216 -2.325,1.289 -4.595,2.662 -7.06,3.671 0.924,-1.401 2.101,-2.634 3.194,-3.895 19.361,-22.891 38.441,-46.007 57.634,-69.01 z"
           id="path16" />
        <path
           d="m 343.126,146.772 c 1.345,-0.7 2.942,-0.756 4.427,-0.952 -3.026,10.927 -10.087,20.453 -18.913,27.402 -10.983,8.685 -24.488,13.757 -38.273,15.746 -6.304,0.841 -12.496,-0.98 -18.745,-1.513 0.841,-2.55 2.69,-4.875 5.352,-5.66 6.052,-1.877 12.3,1.626 18.352,-0.056 9.919,-1.989 19.669,-5.323 28.215,-10.815 7.929,-5.071 14.654,-12.384 17.904,-21.294 0.42,-1.009 0.616,-2.297 1.681,-2.858 z"
           id="path17" />
        <path
           d="m 322.812,152.824 c 2.074,-1.597 3.783,-3.558 5.408,-5.576 1.317,0.169 2.606,0.421 3.895,0.729 -6.697,11.852 -19.922,19.053 -33.286,20.201 -1.373,0.056 -2.662,-0.504 -4.035,-0.672 -1.597,-0.28 -3.502,-0.224 -4.567,-1.681 2.213,-2.802 4.539,-5.492 6.892,-8.154 8.714,2.494 18.605,0.925 25.693,-4.847 z"
           id="path18" />
        <path
           d="m 334.636,148.649 c 1.373,-1.204 3.278,-1.373 5.044,-1.092 -1.962,7.649 -7.145,14.149 -13.421,18.8 -7.341,5.492 -15.915,8.994 -24.432,12.216 -7.313,2.018 -15.103,1.681 -22.527,0.421 2.97,-3.615 5.996,-7.145 9.106,-10.619 3.194,1.288 6.612,2.185 10.086,2.073 6.641,0.224 12.973,-2.354 18.577,-5.688 4.595,-2.774 8.741,-6.164 12.72,-9.722 2.101,-1.738 2.634,-4.707 4.847,-6.389 z"
           id="path19" />
        <path
           d="m 269.997,189.052 c 5.968,1.401 12.048,2.41 18.184,2.046 -7.088,7.649 -18.24,10.647 -28.354,9.106 3.278,-3.839 6.752,-7.453 10.17,-11.152 z"
           id="path20" />
        <path
           d="m 258.622,203.23 c 0.616,-0.673 1.429,-1.205 2.353,-1.261 1.429,-0.084 2.578,1.065 4.007,0.952 1.569,-0.056 3.138,-0.196 4.735,-0.196 -5.548,5.576 -10.899,11.348 -16.055,17.26 -1.541,-2.354 -1.793,-5.268 -1.428,-7.986 0.056,-0.84 0.756,-1.288 1.316,-1.793 2.298,-1.849 3.11,-4.875 5.072,-6.976 z"
           id="path21" />
        <path
           d="m 286.388,206.088 c 1.009,-1.037 2.578,-0.561 3.839,-0.589 -1.289,3.671 -3.979,6.949 -3.979,10.983 0.084,3.531 2.017,6.669 2.774,10.059 -1.009,0.28 -2.017,0.504 -3.054,0.673 0,-4.82 -2.157,-9.303 -2.326,-14.094 -0.14,-2.605 0.841,-5.239 2.746,-7.032 z"
           id="path22" />
        <path
           d="m 297.035,205.751 c 1.513,-0.028 3.054,-0.056 4.567,0.028 -2.185,2.55 -3.978,5.548 -4.09,8.994 -0.477,8.126 4.343,15.299 5.071,23.256 3.502,0.616 7.061,0.56 10.507,1.261 -2.998,0.14 -6.893,-0.617 -8.826,2.325 2.83,2.774 6.865,4.007 9.358,7.145 -2.409,-0.785 -4.315,-3.334 -7.116,-2.354 -0.421,2.914 1.316,5.688 0.644,8.574 -1.905,-3.418 -2.213,-7.621 -4.791,-10.703 -0.981,-1.093 -2.27,-2.298 -3.839,-2.101 -4.118,0.644 -7.649,2.942 -11.263,4.819 2.493,-4.063 8.181,-3.811 11.179,-7.341 0.645,-0.729 1.121,-1.681 1.093,-2.718 0.084,-7.901 -5.8,-14.514 -5.464,-22.443 -0.028,-0.812 0.168,-1.625 0.757,-2.241 1.653,-1.794 1.093,-4.455 2.213,-6.501 z"
           id="path23" />
        <path
           d="m 248.535,215.306 c 0.364,-0.589 0.757,-1.121 1.121,-1.653 0.252,2.717 0.98,5.379 2.297,7.817 -11.823,14.317 -25.441,27.262 -35.443,43.036 -1.401,2.074 -2.522,4.315 -3.867,6.417 -1.233,-4.483 0.224,-9.078 0.869,-13.561 0.224,-1.065 0.084,-2.438 1.065,-3.194 13.42,-10.9 24.88,-24.181 33.958,-38.862 z"
           id="path24" />
        <path
           d="m 235.843,221.05 c 3.642,-0.785 6.64,-3.083 9.666,-5.128 -8.041,13.589 -18.688,25.497 -30.652,35.724 -1.121,0.952 -2.214,2.129 -3.699,2.437 -3.194,0.729 -6.556,-0.14 -9.694,0.897 11.936,-8.938 21.238,-20.762 31.269,-31.689 0.84,-0.981 1.737,-2.045 3.11,-2.241 z"
           id="path25" />
        <path
           d="m 302.415,226.905 c 5.856,0.197 11.74,1.597 16.979,4.259 10.563,5.352 18.352,15.41 21.771,26.646 4.23,14.71 -0.869,31.157 -11.768,41.692 -9.779,9.834 -24.937,12.58 -38.162,9.666 -17.511,-3.558 -31.605,-19.893 -32.417,-37.741 -0.729,-13.281 5.071,-26.814 15.466,-35.163 4.903,-3.923 10.703,-6.641 16.783,-8.154 1.205,-0.28 2.41,-0.728 3.671,-0.616 2.017,1.765 2.578,4.623 2.69,7.201 -0.056,1.372 0.084,3.054 -1.009,4.09 -3.11,2.858 -7.649,3.447 -10.619,6.473 -1.429,1.457 -1.933,3.502 -1.877,5.491 4.09,-1.177 7.34,-4.09 11.235,-5.66 1.541,-0.588 3.39,-1.597 4.931,-0.476 2.13,1.457 2.522,4.203 3.279,6.5 1.036,3.083 1.793,6.221 2.941,9.247 3.026,-3.082 3.811,-7.79 2.55,-11.824 4.007,0.728 5.996,4.847 9.667,6.192 0.168,-2.97 -1.597,-5.604 -3.643,-7.565 -2.101,-2.13 -4.707,-3.615 -6.92,-5.604 4.174,-0.812 8.489,0.28 12.608,-0.924 -0.084,-0.561 -0.028,-1.289 -0.644,-1.57 -1.177,-0.756 -2.438,-1.456 -3.811,-1.737 -4.063,-0.7 -8.181,-0.756 -12.244,-1.261 -0.504,-3.054 -1.149,-6.08 -1.457,-9.162 m -23.031,34.912 c -1.569,3.362 -1.625,7.2 -1.149,10.815 0.448,0.028 0.896,0.056 1.345,0.112 -0.056,-3.979 0.364,-7.985 1.513,-11.796 -0.645,0.084 -1.457,0.14 -1.709,0.869 m -5.184,0.98 c -1.345,2.802 -1.681,6.248 -0.336,9.106 0.42,0.028 0.84,0.056 1.261,0.084 -0.953,-3.278 -0.336,-6.696 0.728,-9.862 -0.56,0.14 -1.373,0 -1.653,0.672 m -3.95,0.252 c -0.897,2.634 -0.561,5.52 0.196,8.154 h 1.176 c -0.392,-2.774 -0.308,-5.548 -0.028,-8.322 -0.448,0.056 -0.896,0.112 -1.344,0.168 m -2.774,0.645 c -0.589,2.045 -0.561,4.203 -0.028,6.248 0.056,0.588 0.728,0.588 1.148,0.813 -0.168,-2.41 -0.252,-4.848 0,-7.285 -0.364,0.084 -0.756,0.168 -1.12,0.224 m -2.382,0.364 c -0.812,1.905 -0.42,3.951 -0.084,5.912 0.308,0.028 0.616,0.056 0.925,0.084 -0.168,-1.989 -0.196,-3.979 0.028,-5.968 -0.224,0 -0.645,-0.028 -0.869,-0.028 m -3.726,5.184 c 0.168,0.056 0.476,0.14 0.644,0.196 -0.056,-1.625 0,-3.279 -0.084,-4.904 -1.485,1.093 -0.785,3.195 -0.56,4.708 m 1.905,0.308 c 0.168,0.028 0.504,0.084 0.672,0.14 -0.168,-1.793 0,-3.559 -0.14,-5.352 -1.709,1.177 -0.868,3.559 -0.532,5.212 m -3.587,-4.399 c -0.168,1.373 -0.504,3.054 0.589,4.175 0.14,-1.457 0.084,-2.914 0.084,-4.371 -0.168,0.056 -0.504,0.14 -0.673,0.196 z"
           id="path26" />
      </g>
      <path
         d="m 279.384,261.817 c 0.252,-0.729 1.064,-0.785 1.709,-0.869 -1.149,3.811 -1.569,7.817 -1.513,11.796 -0.449,-0.056 -0.897,-0.084 -1.345,-0.112 -0.476,-3.615 -0.42,-7.453 1.149,-10.815 z"
         fill="#241f20"
         stroke="#241f20"
         id="path27" />
      <path
         d="m 274.2,262.797 c 0.28,-0.672 1.093,-0.532 1.653,-0.672 -1.064,3.166 -1.681,6.584 -0.728,9.862 -0.421,-0.028 -0.841,-0.056 -1.261,-0.084 -1.345,-2.858 -1.009,-6.304 0.336,-9.106 z"
         fill="#241f20"
         stroke="#241f20"
         id="path28" />
      <path
         d="m 270.25,263.049 1.344,-0.168 c -0.28,2.774 -0.364,5.548 0.028,8.322 h -1.176 c -0.757,-2.634 -1.093,-5.52 -0.196,-8.154 z"
         fill="#241f20"
         stroke="#241f20"
         id="path29" />
      <path
         d="m 267.476,263.694 c 0.364,-0.056 0.756,-0.14 1.12,-0.224 -0.252,2.437 -0.168,4.875 0,7.285 -0.42,-0.225 -1.092,-0.225 -1.148,-0.813 -0.533,-2.045 -0.561,-4.203 0.028,-6.248 z"
         fill="#241f20"
         stroke="#241f20"
         id="path30" />
      <path
         d="m 265.094,264.058 c 0.224,0 0.645,0.028 0.869,0.028 -0.224,1.989 -0.196,3.979 -0.028,5.968 -0.309,-0.028 -0.617,-0.056 -0.925,-0.084 -0.336,-1.961 -0.728,-4.007 0.084,-5.912 z"
         fill="#241f20"
         stroke="#241f20"
         id="path31" />
      <path
         d="m 261.368,269.242 c -0.225,-1.513 -0.925,-3.615 0.56,-4.708 0.084,1.625 0.028,3.279 0.084,4.904 -0.168,-0.056 -0.476,-0.14 -0.644,-0.196 z"
         fill="#241f20"
         stroke="#241f20"
         id="path32" />
      <path
         d="m 263.273,269.55 c -0.336,-1.653 -1.177,-4.035 0.532,-5.212 0.14,1.793 -0.028,3.559 0.14,5.352 -0.168,-0.056 -0.504,-0.112 -0.672,-0.14 z"
         fill="#241f20"
         stroke="#241f20"
         id="path33" />
      <path
         d="m 259.686,265.151 c 0.169,-0.056 0.505,-0.14 0.673,-0.196 0,1.457 0.056,2.914 -0.084,4.371 -1.093,-1.121 -0.757,-2.802 -0.589,-4.175 z"
         fill="#241f20"
         stroke="#241f20"
         id="path34" />
    </g>
  </g>
</svg>
