<?xml version="1.0" encoding="UTF-8" standalone="no"?>
<svg
   width="2500"
   height="2500"
   viewBox="0 0 192.756 192.756"
   version="1.1"
   id="svg5"
   sodipodi:docname="Nottm-Forest.svg"
   xmlns:inkscape="http://www.inkscape.org/namespaces/inkscape"
   xmlns:sodipodi="http://sodipodi.sourceforge.net/DTD/sodipodi-0.dtd"
   xmlns="http://www.w3.org/2000/svg"
   xmlns:svg="http://www.w3.org/2000/svg">
  <defs
     id="defs5" />
  <sodipodi:namedview
     id="namedview5"
     pagecolor="#ffffff"
     bordercolor="#000000"
     borderopacity="0.25"
     inkscape:showpageshadow="2"
     inkscape:pageopacity="0.0"
     inkscape:pagecheckerboard="0"
     inkscape:deskcolor="#d1d1d1" />
  <g
     fill-rule="evenodd"
     clip-rule="evenodd"
     id="g5">
    <path
       fill="#ffffff"
       fill-opacity="0"
       d="M 0,0 H 192.756 V 192.756 H 0 Z"
       id="path1" />
    <path
       d="m 145.172,118.471 c -2.621,-2.924 -7.119,-6.195 -13.42,-6.227 -12.803,-0.068 -20.859,9.834 -32.936,11.324 V 76.249 c 2.68,4.021 10.225,7.017 16.533,5.874 4.605,-0.835 8.551,-3.584 8.887,-10.039 3.971,4.842 12.422,5.855 14.533,-0.724 1.561,-4.858 -1.572,-9.731 -9.045,-9.059 4.666,-2.313 5.422,-6.295 3.912,-8.984 -1.463,-2.606 -5.057,-3.997 -9.285,-1.476 3.656,-4.319 3.729,-8.237 1.963,-11.181 -1.877,-3.133 -6.152,-4.48 -11.52,-2.164 4.291,-4.717 4.645,-10.482 2.049,-14.007 -4.25,-4.642 -9.486,-4.131 -13.43,-0.711 1.332,-6.938 -4.596,-9.387 -7.035,-9.444 -2.439,0.057 -8.369,2.505 -7.038,9.444 -3.943,-3.42 -9.179,-3.931 -13.43,0.711 -2.596,3.525 -2.242,9.29 2.05,14.007 -5.367,-2.316 -9.643,-0.969 -11.52,2.164 -1.765,2.943 -1.694,6.862 1.963,11.181 -4.228,-2.521 -7.821,-1.13 -9.285,1.476 -1.51,2.689 -0.754,6.671 3.912,8.984 -7.473,-0.673 -10.606,4.2 -9.046,9.059 2.112,6.579 10.562,5.565 14.534,0.724 0.336,6.455 4.282,9.204 8.886,10.039 6.309,1.144 13.854,-1.853 16.533,-5.874 v 47.319 c -12.076,-1.49 -20.132,-11.393 -32.935,-11.324 -6.301,0.031 -10.896,3.303 -13.495,6.266 l -0.022,16.9 c 2.622,-2.955 7.216,-6.227 13.517,-6.26 13.656,-0.072 21.877,11.193 35.375,11.5 13.498,-0.307 21.716,-11.572 35.373,-11.5 6.301,0.033 10.799,3.305 13.42,6.26 v -16.939 z"
       fill="#ffffff"
       id="path2" />
    <path
       d="m 87.529,168.891 v 11.258 H 81.825 V 150.76 h 8.82 c 2.498,0 4.353,0.631 5.569,1.895 1.217,1.264 1.825,3.336 1.825,6.217 0,1.67 -0.227,3.213 -0.686,4.291 -0.458,1.078 -3.17,2.66 -4.374,3.295 3.978,2.209 4.038,3.982 4.504,8.346 0.834,7.768 5.082,8.961 11.17,9.336 l 0.02,5.734 c -1.705,-0.105 -8.086,0.928 -12.5,-3.008 -4.211,-3.754 -3.859,-9.693 -4.501,-15.23 -0.334,-2.88 -1.962,-2.894 -4.143,-2.745 z m 0,-13.205 v 8.686 h 2.393 c 1.439,0 2.159,-1.906 2.159,-4.332 0,-1.111 -0.142,-2.344 -0.428,-2.863 -0.283,-0.514 -0.698,-1.219 -1.242,-1.334 a 9.693,9.693 0 0 0 -1.049,-0.133 c -0.451,-0.038 -1.285,-0.024 -1.833,-0.024 z m 8.85,-141.352 c 2.439,0.057 8.367,2.505 7.035,9.444 3.943,-3.42 9.18,-3.931 13.43,0.711 2.596,3.525 2.242,9.29 -2.049,14.007 5.367,-2.316 9.643,-0.969 11.52,2.164 1.766,2.943 1.693,6.862 -1.963,11.181 4.229,-2.521 7.822,-1.13 9.285,1.476 1.51,2.689 0.754,6.671 -3.912,8.984 7.473,-0.673 10.605,4.2 9.045,9.059 -2.111,6.579 -10.562,5.565 -14.533,0.724 -0.336,6.455 -4.281,9.204 -8.887,10.039 -6.309,1.144 -13.854,-1.853 -16.533,-5.874 v 47.319 c 12.076,-1.49 20.133,-11.393 32.936,-11.324 6.301,0.031 10.799,3.303 13.42,6.26 v -8.777 c -2.621,-2.955 -7.119,-6.227 -13.42,-6.26 -9.602,-0.051 -16.443,5.506 -24.395,8.916 V 90.838 c 3.777,2.599 9.135,3.524 13.578,1.771 3.455,-1.364 6.357,-4.349 7.533,-9.427 5.018,1.562 9.336,1.611 12.787,0.472 6.254,-2.064 9.576,-8.238 8.93,-14.597 -0.518,-5.081 -3.506,-10.06 -8.516,-11.152 2.285,-2.493 2.869,-6.709 1.455,-9.438 -1.248,-2.408 -3.713,-4.112 -7,-3.908 2.322,-3.179 1.844,-8.633 0.139,-10.857 -1.912,-2.495 -5.295,-3.461 -10.199,-2.75 3.73,-5.221 2.057,-12.356 -1.131,-15.446 C 121.33,12.013 114.252,10.703 108.756,12.704 107.818,7.281 103.731,2.777 96.38,2.835 89.029,2.776 84.937,7.28 84,12.703 c -5.497,-2 -12.573,-0.691 -16.177,2.802 -3.188,3.09 -4.862,10.225 -1.132,15.446 -4.904,-0.711 -8.287,0.255 -10.199,2.75 -1.705,2.225 -2.183,7.678 0.14,10.857 -3.288,-0.204 -5.752,1.5 -7.001,3.908 -1.415,2.729 -0.83,6.945 1.456,9.438 -5.011,1.093 -7.999,6.071 -8.516,11.152 -0.647,6.359 2.676,12.533 8.93,14.597 3.451,1.139 7.77,1.089 12.787,-0.472 1.175,5.079 4.078,8.063 7.533,9.427 4.443,1.753 9.801,0.828 13.578,-1.771 v 21.544 c -7.952,-3.41 -14.792,-8.967 -24.394,-8.916 -6.301,0.033 -10.896,3.305 -13.517,6.26 v 8.777 c 2.622,-2.957 7.216,-6.229 13.517,-6.26 12.802,-0.068 20.859,9.834 32.935,11.324 V 76.249 C 91.26,80.27 83.716,83.266 77.407,82.123 72.803,81.288 68.857,78.539 68.521,72.084 64.55,76.926 56.1,77.939 53.987,71.36 c -1.561,-4.858 1.573,-9.731 9.046,-9.059 -4.666,-2.313 -5.422,-6.295 -3.912,-8.984 1.463,-2.606 5.057,-3.997 9.285,-1.476 -3.657,-4.319 -3.728,-8.237 -1.963,-11.181 1.877,-3.133 6.153,-4.48 11.52,-2.164 -4.292,-4.717 -4.646,-10.482 -2.05,-14.007 4.25,-4.642 9.487,-4.131 13.43,-0.711 -1.333,-6.939 4.597,-9.387 7.036,-9.444 z m 0,113.297 c 13.498,-0.307 21.716,-11.572 35.373,-11.5 6.301,0.033 10.799,3.305 13.42,6.26 v 8.777 c -2.621,-2.957 -7.119,-6.229 -13.42,-6.26 -13.656,-0.072 -21.875,11.193 -35.373,11.5 -13.498,-0.307 -21.719,-11.572 -35.375,-11.5 -6.301,0.031 -10.896,3.303 -13.517,6.26 v -8.777 c 2.622,-2.955 7.216,-6.227 13.517,-6.26 13.656,-0.072 21.877,11.193 35.375,11.5 z m 0,13.019 c 13.498,-0.307 21.716,-11.572 35.373,-11.5 6.301,0.033 10.799,3.305 13.42,6.26 v 8.781 c -2.621,-2.959 -7.119,-6.23 -13.42,-6.264 -13.656,-0.072 -21.875,11.193 -35.373,11.5 -13.498,-0.307 -21.719,-11.572 -35.375,-11.5 -6.301,0.033 -10.896,3.305 -13.517,6.264 v -8.781 c 2.622,-2.955 7.216,-6.227 13.517,-6.26 13.656,-0.072 21.877,11.194 35.375,11.5 z m 19.545,29.662 h 5.869 v 2.066 c 0,2.117 0.836,3.174 2.508,3.174 0.715,0 1.25,-0.279 1.602,-0.842 0.352,-0.559 0.525,-1.254 0.525,-2.086 0,-1.084 -0.27,-1.9 -0.809,-2.449 -0.27,-0.266 -0.625,-0.568 -1.07,-0.906 -0.445,-0.338 -0.994,-0.725 -1.65,-1.162 -2.262,-1.4 -3.855,-2.684 -4.781,-3.844 -1.227,-1.592 -1.844,-3.553 -1.844,-5.873 0,-2.719 0.703,-4.785 2.102,-6.207 1.398,-1.424 3.35,-2.135 5.859,-2.135 2.576,0 4.555,0.848 5.945,2.537 1.389,1.689 2.082,4.021 2.082,6.994 h -5.834 c 0,-0.422 -0.014,-0.809 -0.045,-1.16 a 17.776,17.776 0 0 0 -0.121,-1.127 c -0.053,-0.402 -0.225,-0.812 -0.518,-1.234 a 1.638,1.638 0 0 0 -0.57,-0.539 c -0.23,-0.127 -0.508,-0.191 -0.836,-0.191 -1.287,0 -2.02,0.656 -2.195,1.969 0,0.867 0.148,1.559 0.445,2.068 0.297,0.509 0.787,1.023 1.461,1.533 l 2.154,1.416 c 1.025,0.65 1.799,1.16 2.32,1.537 0.518,0.377 0.992,0.771 1.408,1.195 1.553,1.58 2.479,3.924 2.479,7.023 0,1.852 -0.455,3.434 -1.07,4.756 -0.613,1.318 -1.529,2.322 -2.752,3.004 -1.219,0.68 -2.703,1.023 -4.443,1.023 -1.836,0 -3.387,-0.303 -4.602,-1.004 -3.592,-2.077 -3.447,-5.692 -3.619,-9.536 z"
       fill="#cc2229"
       id="path3" />
    <path
       fill="#cc2229"
       d="m 131.898,156.631 v -5.871 h 15.627 v 5.871 h -4.869 v 23.517 h -6.023 v -23.517 z m -70.69,9.029 c 0,-4.77 0.837,-8.482 2.509,-11.139 1.669,-2.656 3.999,-3.982 6.979,-3.982 3.059,0 5.417,1.305 7.07,3.91 1.655,2.611 2.483,6.268 2.483,10.971 0,3.41 -0.362,6.211 -1.085,8.393 -0.722,2.189 -1.768,3.887 -3.135,5.102 -1.364,1.219 -3.068,1.824 -5.106,1.824 -2.073,0 -3.79,-0.525 -5.147,-1.574 -1.357,-1.051 -2.458,-2.709 -3.302,-4.982 -0.843,-2.271 -1.266,-5.113 -1.266,-8.523 z m 6.291,0.037 c 0,3.387 0.288,5.814 0.869,7.293 0.58,1.475 1.368,2.211 2.367,2.211 1.025,0 1.822,-0.719 2.383,-2.17 0.562,-1.443 0.842,-4.041 0.842,-7.791 0,-3.152 -0.292,-5.457 -0.88,-6.906 -0.586,-1.457 -1.382,-2.182 -2.389,-2.182 -0.961,0 -1.736,0.736 -2.319,2.217 -0.582,1.473 -0.873,3.918 -0.873,7.328 z"
       id="path4" />
    <path
       fill="#cc2229"
       d="M 53.615,180.148 H 47.592 V 150.76 h 14.387 v 5.871 h -8.364 v 6.049 h 7.81 v 5.89 h -7.81 z m 56.77,-9.804 h 5.498 c -0.145,2.947 -0.883,5.521 -2.355,7.449 -1.471,1.928 -3.342,2.893 -5.621,2.893 -3,0 -5.191,-1.24 -6.568,-3.715 -1.379,-2.473 -2.066,-6.299 -2.066,-11.479 0,-4.799 0.773,-8.512 2.314,-11.141 1.541,-2.629 3.607,-3.941 6.195,-3.941 3.088,0 5.293,1.666 6.617,4.99 1.117,2.799 1.678,6.895 1.678,12.301 h -11.213 c 0,1.814 0.111,3.197 0.342,4.141 0.434,1.812 1.23,2.721 2.391,2.721 0.703,0 1.307,-0.283 1.801,-0.852 0.622,-0.713 0.905,-1.93 0.987,-3.367 z m 0.162,-8.367 c -0.125,-2.154 -0.439,-3.713 -0.947,-4.678 -0.51,-0.963 -1.178,-1.445 -2.004,-1.445 -0.764,0 -1.383,0.531 -1.848,1.588 -0.467,1.055 -0.699,2.572 -0.699,4.535 z"
       id="path5" />
  </g>
</svg>
