<?xml version="1.0" encoding="UTF-8"?>
<!DOCTYPE svg PUBLIC "-//W3C//DTD SVG 1.1//EN" "http://www.w3.org/Graphics/SVG/1.1/DTD/svg11.dtd">
<!-- Creator: CorelDRAW 2019 (64-Bit) -->
<svg xmlns="http://www.w3.org/2000/svg" xml:space="preserve" width="188.251mm" height="188.251mm" version="1.1" style="shape-rendering:geometricPrecision; text-rendering:geometricPrecision; image-rendering:optimizeQuality; fill-rule:evenodd; clip-rule:evenodd"
viewBox="0 0 188.0999 188.0991"
 xmlns:xlink="http://www.w3.org/1999/xlink"
 xmlns:xodm="http://www.corel.com/coreldraw/odm/2003">
 <defs>
  <style type="text/css">
   <![CDATA[
    .str0 {stroke:white;stroke-width:3.3814;stroke-miterlimit:3.8637}
    .fil1 {fill:none}
    .fil0 {fill:#AA1124}
    .fil2 {fill:white}
   ]]>
  </style>
 </defs>
 <g id="Layer_x0020_1">
  <metadata id="CorelCorpID_0Corel-Layer"/>
  <g id="_702962800">
   <path class="fil0" d="M0.0001 94.0468c-0.0034,-51.945 42.0992,-94.0468 94.0407,-94.0468 51.9428,0.0013 94.0524,42.1123 94.059,94.0525 0.0053,51.9419 -42.0992,94.0466 -94.041,94.0466 -51.9462,-0.0005 -94.0524,-42.1114 -94.0587,-94.0523z"/>
   <path class="fil1 str0" d="M9.8206 93.6153c-0.0031,-46.2239 37.4641,-83.6934 83.6871,-83.6934 46.2212,0.0026 83.6987,37.4735 83.6987,83.6991 0.0039,46.2245 -37.4643,83.6933 -83.6869,83.6933 -46.2218,-0.0026 -83.6928,-37.474 -83.6989,-83.699z"/>
   <polygon class="fil2" points="62.3414,112.4116 62.3414,104.5851 38.485,104.5851 38.485,90.2316 65.658,90.2394 65.658,81.9521 29.2531,81.9521 29.2608,136.7287 38.485,136.7287 38.485,112.4116 "/>
   <path class="fil2" d="M111.9321 99.3611c-1.1105,-11.8137 -10.4871,-18.6432 -22.3767,-18.7193 -15.8009,-0.0025 -25.2534,13.0414 -25.2516,28.6921 0.0006,15.6515 9.4527,28.6949 25.2562,28.6959 12.7755,0 21.7093,-9.0557 22.4474,-22.1722l-9.0098 0c-0.7381,7.9779 -5.2419,14.3462 -13.4388,14.3452 -11.2949,0 -16.0242,-10.3587 -16.0242,-20.8694 -0.0022,-10.5116 4.7256,-20.8682 16.0212,-20.8682 7.6801,0 11.5928,4.6047 13.1459,10.8954l9.2303 0 0 0.0005z"/>
   <polygon class="fil2" points="122.9202,136.7365 122.9127,96.4566 123.1392,96.4566 147.1407,136.7365 156.8852,136.7365 156.8852,81.9521 148.0993,81.9521 148.0993,122.3073 147.9481,122.3073 123.8721,81.9521 114.1268,81.9521 114.1345,136.7365 "/>
   <path class="fil2" d="M74.5378 36.6333l12.7012 0.0013 0.0037 37.9036 9.2296 0 -0.0047 -53.7068 -6.8664 0c-1.2549,6.4428 -7.974,8.9765 -15.062,8.8989l0 6.903 -0.0014 0z"/>
   <polygon class="fil2" points="99.7736,74.5413 110.0397,74.5413 110.0397,64.1842 99.7736,64.1842 "/>
  </g>
 </g>
</svg>
