<?xml version="1.0" encoding="UTF-8"?>
<!DOCTYPE svg PUBLIC "-//W3C//DTD SVG 1.1//EN" "http://www.w3.org/Graphics/SVG/1.1/DTD/svg11.dtd">
<!-- Creator: CorelDRAW 2019 (64-Bit) -->
<svg xmlns="http://www.w3.org/2000/svg" xml:space="preserve" width="186.964mm" height="250.127mm" version="1.1" style="shape-rendering:geometricPrecision; text-rendering:geometricPrecision; image-rendering:optimizeQuality; fill-rule:evenodd; clip-rule:evenodd"
viewBox="0 0 186.8507 249.9762"
 xmlns:xlink="http://www.w3.org/1999/xlink"
 xmlns:xodm="http://www.corel.com/coreldraw/odm/2003">
 <defs>
  <style type="text/css">
   <![CDATA[
    .fil1 {fill:#09336F}
    .fil0 {fill:#AC8F1F}
    .fil2 {fill:#D91A20}
    .fil3 {fill:white}
   ]]>
  </style>
 </defs>
 <g id="Layer_x0020_1">
  <metadata id="CorelCorpID_0Corel-Layer"/>
  <g id="_948199552">
   <path class="fil0" d="M136.7784 75.7521c-0.253,-0.0471 -0.4961,-0.0889 -0.7478,-0.1359 -0.3259,-4.2224 -3.8472,-7.5477 -8.1516,-7.5477 -3.3389,0 -6.2056,2.0033 -7.4779,4.8687 -6.7335,-1.019 -13.1058,-1.7488 -19.1406,-2.0815 -1.0146,-3.3689 -4.1358,-5.8232 -7.8346,-5.8232 -3.6988,0 -6.8211,2.4543 -7.8343,5.8232 -6.0349,0.3327 -12.4076,1.0626 -19.1399,2.0815 -1.2723,-2.8654 -4.1396,-4.8687 -7.4785,-4.8687 -4.3045,0 -7.825,3.3254 -8.1518,7.546 -0.2517,0.047 -0.4961,0.0905 -0.749,0.1376 -19.8163,5.0594 -38.1321,10.3342 -50.0724,13.637 8.6395,74.197 58.7928,131.8201 93.4253,160.5872 34.6326,-28.7671 84.7855,-86.3902 93.4254,-160.5872 -11.9407,-3.3028 -30.2562,-8.5775 -50.0723,-13.637z"/>
   <path class="fil1" d="M176.4446 91.8257c-11.3909,-3.1912 -25.5582,-7.1594 -40.7759,-11.0468 -0.2899,-0.0544 -0.5854,-0.1067 -0.8767,-0.1606 -1.0016,1.584 -2.529,2.7994 -4.341,3.3995l0 21.2797c3.2579,1.0791 5.6121,4.1452 5.6121,7.7665 0,3.6205 -2.3537,6.6866 -5.6121,7.765l0 5.8463c0,6.8974 -1.0044,13.284 -2.6769,19.1371 1.4712,1.4792 2.3815,3.5185 2.3815,5.77 0,4.4719 -3.5871,8.0985 -8.0398,8.1767 -6.007,11.2041 -14.179,19.3631 -20.7609,23.9751 0.1594,0.6382 0.2538,1.3031 0.2538,1.991 0,4.5194 -3.6633,8.1835 -8.1829,8.1835l0 49.3191c21.6725,-18.7173 76.9732,-73.3104 87.7201,-150.0902 -2.3481,-0.6553 -4.7015,-1.312 -4.7015,-1.312z"/>
   <path class="fil2" d="M85.2417 185.7245c0,-0.6879 0.0938,-1.3521 0.2538,-1.991 -6.5825,-4.6119 -14.7531,-12.771 -20.7599,-23.975 -4.4529,-0.0776 -8.0402,-3.7049 -8.0402,-8.1761 0,-2.2522 0.9107,-4.2908 2.3816,-5.7707 -1.6724,-5.8525 -2.6767,-12.239 -2.6767,-19.1364l0 -5.847c-3.2579,-1.0784 -5.6116,-4.1445 -5.6116,-7.765 0,-3.6212 2.3537,-6.6867 5.6116,-7.7658l0 -21.2804c-1.8112,-0.6001 -3.339,-1.8148 -4.3412,-3.3995 -0.2918,0.0539 -0.5864,0.1069 -0.8771,0.1613 -15.2172,3.8868 -29.3852,7.855 -40.777,11.0461 0,0 -2.3535,0.6566 -4.699,1.312 10.746,76.7804 66.046,131.3736 87.7191,150.0909l0 -49.3198c-4.5199,0 -8.1836,-3.6641 -8.1836,-8.1835z"/>
   <path class="fil3" d="M61.5443 84.0171l0 21.2804c3.2585,1.0791 5.6115,4.1446 5.6115,7.7658 0,3.6205 -2.353,6.6866 -5.6115,7.765l0 5.847c0,5.9776 0.848,11.5931 2.2755,16.7992 0.347,-0.045 0.6995,-0.0762 1.0594,-0.0762 4.5195,0 8.1842,3.6641 8.1842,8.1842 0,2.6754 -1.29,5.0441 -3.2761,6.5369 5.4052,9.7929 12.5341,17.1129 18.4444,21.2819 1.4125,-1.1622 3.2214,-1.8597 5.193,-1.8597 1.9719,0 3.7805,0.6975 5.1925,1.859 5.9102,-4.1684 13.0404,-11.4884 18.4472,-21.2812 -1.9869,-1.4928 -3.2777,-3.8615 -3.2777,-6.5369 0,-4.5201 3.6649,-8.1842 8.1844,-8.1842 0.3598,0 0.7125,0.0312 1.0601,0.0762 1.4268,-5.2068 2.2752,-10.8223 2.2752,-16.7999l0 -5.8463c-3.2578,-1.0784 -5.6115,-4.1445 -5.6115,-7.765 0,-3.6206 2.3537,-6.6867 5.6115,-7.7658l0 -21.2804c-2.6971,-0.8928 -4.7683,-3.1491 -5.4031,-5.9539 -6.3833,-0.9709 -12.7201,-1.7357 -18.7847,-2.0786 -1.1357,3.1559 -4.1467,5.4156 -7.6931,5.4156 -3.5484,0 -6.5599,-2.2626 -7.6942,-5.419 -6.0492,0.3408 -12.3894,1.1071 -18.7827,2.0815 -0.6342,2.8053 -2.7061,5.0609 -5.4041,5.9544z"/>
   <path class="fil0" d="M75.3429 128.3402c-1.184,0.0267 -1.9957,0.7371 -2.2366,1.3331l-1.5791 4.5384c0,0 -0.8574,3.5492 2.715,4.3548 0,0 0.6259,-2.0399 1.1907,-3.7484 0,0 0.2667,-1.6297 1.6296,-1.6297l3.5728 0.0368c0,0 0.8514,0.1266 1.0942,-0.4647l0.0027 -4.5664c0.0006,-0.0005 -5.0875,0.1185 -6.3892,0.1463z"/>
   <path class="fil0" d="M113.9034 112.1345c-1.803,-1.7861 -3.975,-3.7152 -6.7946,-3.6737 -2.2468,0.0335 -3.232,0.9166 -3.8799,2.1427 -0.6014,1.1357 -0.9104,2.8184 1.0151,4.7434 1.6555,1.6553 4.4828,3.0599 4.4828,5.5093 0,1.6829 -1.2478,1.5808 -1.2478,1.5808l-13.0425 -0.2763 1.9303 3.7069 -5.4679 0.079 -0.0708 5.623 -4.5642 -3.4197 -3.8328 4.2628 -0.7732 9.186c0,0 0.0586,0.6532 -1.0062,0.6532l-2.0705 0c0,0 -1.0663,1.4628 -1.0663,3.2919l6.6267 -0.0932c0,0 0.2906,-0.1824 1.1832,-1.8283 1.197,-2.2088 4.4452,-7.8971 4.4452,-7.8971 0,0 -0.0346,-2.5952 -0.008,-2.7185 0,0 0.9484,0.7282 1.1273,0.7464l0 1.2541c0,0 4.6903,-3.1464 9.0722,-1.5732 0,0 5.977,1.6025 6.9731,5.7981l0.4913 2.8972c0,0 -2.5776,-0.2136 -3.0267,0.7995 0,0 -0.6463,1.4513 -0.6463,2.4965 0,0 5.757,0 7.1676,0l1.448 -3.2953 -1.3078 -7.3996c0,0 -4.1261,-3.8935 -3.9519,-7.7786 0,0 4.3445,-0.3567 4.3445,-5.2788 0,-4.9215 -4.2894,-6.9819 -5.6572,-7.9964 -1.0607,-1.0602 -0.9853,-2.0455 -0.3028,-2.7279 1.0521,-1.0521 3.0478,-0.0124 3.0478,0.5742 0,0 0.3015,2.3204 3.2125,4.0045l0.6701 -0.7914c0,0 0.5083,0.8668 2.9586,0.8668 0.0007,-0.0007 0.3238,-1.6833 -1.4788,-3.4681z"/>
   <path class="fil0" d="M95.7952 133.9906l0.8574 2.7597c0,2.3809 -1.5962,5.3784 -1.5962,5.3784l-3.3048 0c0,0 -1.4194,1.0089 -1.4194,3.2951l6.7811 0 4.6134 -5.1255c0,0 0.9968,-0.8248 1.1437,-1.578 0.2138,-1.1036 0.5717,-2.6802 0.5717,-2.6802 -4.003,-2.6816 -7.6468,-2.0495 -7.6468,-2.0495z"/>
   <path class="fil0" d="M96.241 121.7335l-2.1993 -3.2913 0 -4.1256c0,-1.569 -0.6728,-2.0921 -0.6728,-2.0921 0,0 -3.3158,-3.5466 -3.9895,-4.2895 -0.6225,-0.6879 -1.6206,-0.5967 -1.7642,-0.5796 0.0205,-0.0403 0.0448,-0.1831 0.0448,-0.6574 0,-0.8247 -0.747,-0.6594 -0.747,-0.6594 0,0 -3.4389,0.0825 -3.4389,-0.3305 0,0 -0.1495,-1.2372 -1.3453,-0.6596 -1.1961,0.5765 -4.3628,4.5365 -5.8586,6.1042 -1.4948,1.5671 -0.8217,2.0618 -0.8217,2.0618l1.1962 2.01 1.9336 -1.4628c0,0 0.7609,-0.5423 1.6393,0.2523l-2.909 2.2727c0.3738,0.7424 0.9066,0.6702 0.9066,0.6702l2.5414 0 0.924 1.9426 1.8786 0 0 -3.4642 1.0458 0 0 -3.4585 0.5886 0 0 4.2363 -1.0465 0 0 3.4662 -2.5415 0 -4.6029 4.3057 3.3074 -0.0722 -1.6773 3.7368 3.6928 0.1083 -0.0272 3.9265 3.9498 -4.4322 3.9255 2.9319 0 -5.0303 5.0914 -0.0162 -2.0242 -3.3868 3.0001 -0.0175z"/>
   <path class="fil3" d="M80.5176 109.521c-0.4226,0.1198 -0.6983,0.3538 -0.7697,0.426 -0.3422,0.3421 0.3559,0.8764 0.7948,0.8764 0.4381,0 0.7947,-0.392 0.7947,-0.8764 0,-0.4846 0.0791,-0.6785 -0.8198,-0.426z"/>
   <polygon class="fil2" points="84.9534,99.9601 84.377,99.4376 83.8,99.9601 84.377,100.4822 "/>
   <path class="fil0" d="M88.4493 100.2535c0,0.2363 -0.1918,0.428 -0.4286,0.428 -0.2369,0 -0.4279,-0.1918 -0.4279,-0.428 0,-0.2367 0.1911,-0.4286 0.4279,-0.4286 0.2369,0 0.4286,0.192 0.4286,0.4286z"/>
   <path class="fil0" d="M81.1614 100.2535c0,0.2363 -0.1921,0.428 -0.4286,0.428 -0.237,0 -0.4288,-0.1918 -0.4288,-0.428 0,-0.2367 0.1919,-0.4286 0.4288,-0.4286 0.2366,0 0.4286,0.192 0.4286,0.4286z"/>
   <polygon class="fil2" points="91.1413,101.5647 91.4638,100.5726 91.5855,101.1305 "/>
   <polygon class="fil2" points="77.6107,101.5647 77.2889,100.5726 77.1664,101.1305 "/>
   <path class="fil0" d="M84.3782 100.6271c-1.0315,0.0265 -4.5628,0.1829 -6.7777,1.075l-0.0264 0.011 0.006 0.0278c0.181,0.7853 0.1845,0.7874 0.2034,0.7968l0.0137 0.0062 0.0135 -0.0049c2.5415,-0.9695 5.9144,-1.1001 6.5663,-1.1165 0.6519,0.0164 4.0233,0.147 6.5653,1.1165l0.0138 0.0049 0.0128 -0.0062c0.0199,-0.0094 0.0218,-0.0109 0.2027,-0.7975l0.0069 -0.0279 -0.0265 -0.0102c-2.2141,-0.8921 -5.7442,-1.0485 -6.7738,-1.075z"/>
   <path class="fil0" d="M91.6386 99.622c-2.3583,-0.9491 -6.39,-1.1254 -7.2615,-1.1179 -0.871,-0.0075 -4.904,0.1688 -7.2631,1.1186 -0.0305,0.0136 -0.0305,0.0136 0.1498,0.7777l0.0088 0.0375 0.036 -0.0136c2.4707,-0.9437 6.0199,-1.1336 7.0685,-1.1254l0.0012 0c1.048,-0.0082 4.597,0.1817 7.0664,1.1254l0.0361 0.0136 0.0088 -0.0375c0.1804,-0.7655 0.1804,-0.7655 0.149,-0.7784z"/>
   <path class="fil0" d="M92.3992 96.5615c-0.1612,-0.2369 -0.4334,-0.3919 -0.7382,-0.3919 -0.483,0 -0.8738,0.3905 -0.8738,0.8735 0,0.2866 0.1382,0.5282 0.3518,0.6867 0,0 0.2444,0.1525 0.2947,0.2545 0.0742,0.1531 0.0048,0.257 -0.1511,0.283 -0.1565,0.0244 -1.6337,-0.4743 -2.3822,-0.5547 -0.1708,-0.0163 -0.1544,-0.3034 0.2069,-0.2273 0.3607,0.077 0.7164,-0.1529 0.7932,-0.5156 0.0771,-0.3608 -0.1549,-0.716 -0.5156,-0.7928 0.0332,-0.0592 0.0742,-0.1217 0.089,-0.1905 0.083,-0.388 -0.1647,-0.7675 -0.5511,-0.8506 -0.3867,-0.0818 -0.7668,0.1653 -0.8499,0.5519 -0.0137,0.07 -0.0177,0.1394 -0.0123,0.2076 -0.3605,-0.0777 -0.7002,0.1571 -0.7776,0.5191 -0.0755,0.3613 0.162,0.6872 0.5157,0.7935 0.3041,0.0903 0.1879,0.3123 0.0189,0.302 -0.121,-0.0089 -2.0492,-0.1715 -2.5935,-0.1871 -0.2845,-0.0246 -0.4056,-0.5369 0.1395,-0.5369 0.5435,0 0.9852,-0.4423 0.9852,-0.988 0,-0.5437 -0.4417,-0.9859 -0.9852,-0.9859 0.0279,-0.096 0.07,-0.1974 0.07,-0.3029 0,-0.583 -0.4729,-1.056 -1.0567,-1.056 -0.5839,0 -1.0561,0.4729 -1.0561,1.056 0,0.1048 0.04,0.2069 0.0701,0.3029 -0.5452,0 -0.9874,0.4422 -0.9874,0.9859 0,0.545 0.4422,0.988 0.9874,0.988 0.5442,0 0.4231,0.5123 0.1388,0.5369 -0.5458,0.0156 -2.4734,0.1782 -2.5951,0.1871 -0.1674,0.0103 -0.2845,-0.2117 0.0204,-0.302 0.3538,-0.1063 0.5919,-0.4322 0.5151,-0.7935 -0.0768,-0.362 -0.4171,-0.5967 -0.7784,-0.5191 0.0055,-0.0682 0.0042,-0.1376 -0.0115,-0.2076 -0.0826,-0.3866 -0.4627,-0.6336 -0.8492,-0.5519 -0.3867,0.083 -0.6343,0.4626 -0.5526,0.8506 0.0149,0.0688 0.0565,0.1313 0.0898,0.1905 -0.3615,0.0769 -0.592,0.432 -0.5151,0.7928 0.0762,0.3627 0.432,0.5925 0.7925,0.5156 0.3615,-0.0762 0.377,0.211 0.2064,0.2273 -0.7479,0.0804 -2.2265,0.5791 -2.3824,0.5547 -0.1556,-0.026 -0.2251,-0.1292 -0.1503,-0.283 0.0505,-0.102 0.2953,-0.2545 0.2953,-0.2545 0.213,-0.1585 0.3512,-0.4001 0.3512,-0.6867 0,-0.483 -0.3912,-0.8735 -0.8745,-0.8735 -0.3041,0 -0.5769,0.155 -0.7375,0.3919 -0.3955,-1.5495 -1.9814,-0.7594 -1.9814,-0.7594l0.8163 1.3228c0.1853,-0.1334 0.4711,-0.1121 0.6471,0.064 0.2001,0.2008 0.2001,0.5246 0,0.7246 -0.0333,0.0342 -0.0707,0.0621 -0.1094,0.0845l0.6898 1.1165c0,0 0.2003,0.5226 1.0787,0.1885 2.2256,-0.8464 5.8964,-0.9988 6.8811,-0.9906 0.9845,-0.0082 4.6548,0.1442 6.8805,0.9906 0.8786,0.3341 1.0776,-0.1885 1.0776,-0.1885l0.6907 -1.1165c-0.0388,-0.0225 -0.0749,-0.0504 -0.1088,-0.0845 -0.2007,-0.2 -0.2007,-0.5238 0,-0.7246 0.1757,-0.1755 0.4604,-0.1974 0.6456,-0.064l0.8164 -1.3228c0.0015,0 -1.5845,-0.79 -1.9792,0.7594zm-12.2755 0.3899l0 0c-0.2383,0 -0.4315,-0.1939 -0.4315,-0.432 0,-0.2376 0.1933,-0.4314 0.4315,-0.4314 0.2382,0 0.4305,0.1939 0.4305,0.4314 0,0.2382 -0.1924,0.432 -0.4305,0.432zm4.2533 -0.7111l0 0c-0.3198,0 -0.5804,-0.2592 -0.5804,-0.5791 0,-0.3198 0.2599,-0.5803 0.5804,-0.5803 0.3196,0 0.5796,0.2605 0.5796,0.5803 -0.0007,0.3198 -0.2605,0.5791 -0.5796,0.5791zm3.822 0.279l0 0c0,-0.2376 0.1924,-0.4314 0.4292,-0.4314 0.2389,0 0.4314,0.1939 0.4314,0.4314 0,0.2382 -0.1926,0.432 -0.4314,0.432 -0.2369,0 -0.4292,-0.1939 -0.4292,-0.432z"/>
   <polygon class="fil2" points="97.3132,43.8856 93.4253,40.3669 89.5367,43.8856 93.4253,47.4042 "/>
   <path class="fil0" d="M120.8847 45.8626c0,1.5938 -1.2927,2.8882 -2.8878,2.8882 -1.5949,0 -2.8878,-1.2943 -2.8878,-2.8882 0,-1.5938 1.2928,-2.8881 2.8878,-2.8881 1.595,0 2.8878,1.2942 2.8878,2.8881z"/>
   <path class="fil0" d="M71.7419 45.8626c0,1.5956 -1.2933,2.8882 -2.8884,2.8882 -1.5956,0 -2.8885,-1.2925 -2.8885,-2.8882 0,-1.5955 1.2928,-2.8881 2.8885,-2.8881 1.595,0 2.8884,1.2925 2.8884,2.8881z"/>
   <polygon class="fil2" points="141.2167,48.0139 139.0436,54.7063 142.0387,51.7781 "/>
   <polygon class="fil2" points="47.8071,54.7063 45.6325,48.0139 44.8118,51.7781 "/>
   <path class="fil0" d="M93.4368 48.3431c-6.9579,0.1777 -30.7764,1.2263 -45.7215,7.2463l-0.2116 0.0853 0.051 0.223c1.2242,5.3268 1.2365,5.332 1.395,5.4086l0.1039 0.0505 0.109 -0.04c17.1012,-6.5235 39.8624,-7.4153 44.2674,-7.5286 4.4031,0.1132 27.1574,1.0051 44.2594,7.5286l0.1068 0.04 0.1055 -0.0488c0.1579,-0.0767 0.1701,-0.0835 1.3956,-5.4103l0.0512 -0.223 -0.2124 -0.0853c-14.9471,-6.0201 -38.7581,-7.0686 -45.6993,-7.2463z"/>
   <path class="fil0" d="M142.4247 41.5706c-15.9093,-6.4085 -43.1158,-7.5982 -48.9972,-7.5494 -5.8795,-0.0488 -33.0915,1.1409 -48.9946,7.5459 -0.2449,0.1079 -0.2456,0.1079 0.9839,5.2936l0.0708 0.2979 0.2858 -0.108c16.7005,-6.3702 40.5987,-7.6382 47.6541,-7.579l0.0032 0c7.054,-0.0592 30.9452,1.2089 47.6453,7.579l0.2863 0.108 0.0701 -0.2979c1.2304,-5.1857 1.2304,-5.1857 0.9923,-5.2901z"/>
   <path class="fil0" d="M147.5211 20.9638c-1.0847,-1.5921 -2.924,-2.6425 -4.9776,-2.6425 -3.2525,0 -5.8904,2.6373 -5.8904,5.8911 0,1.9318 0.9295,3.5604 2.3653,4.6352 0,0 1.6541,1.026 1.9916,1.7141 0.5041,1.0277 0.0362,1.7297 -1.0172,1.9004 -1.0528,0.169 -11.0175,-3.1929 -16.0644,-3.7345 -1.1519,-0.1098 -1.0437,-2.0503 1.3935,-1.533 2.4367,0.5174 4.8313,-1.0381 5.3489,-3.4733 0.5179,-2.4369 -1.0369,-4.8321 -3.4742,-5.3512 0.2205,-0.4007 0.5009,-0.8169 0.6014,-1.2872 0.5553,-2.6094 -1.111,-5.1735 -3.7201,-5.7291 -2.6093,-0.554 -5.1739,1.1113 -5.729,3.7207 -0.0986,0.4686 -0.1131,0.9372 -0.0776,1.3918 -2.4367,-0.5156 -4.7291,1.0661 -5.2473,3.5031 -0.518,2.4369 1.0858,4.6404 3.4735,5.3494 2.0563,0.6114 1.2688,2.1129 0.1366,2.0363 -0.8226,-0.054 -13.8203,-1.1497 -17.4957,-1.2594 -1.9182,-0.1654 -2.7382,-3.6214 0.9362,-3.6214 3.6749,0 6.6532,-2.9787 6.6532,-6.6541 0,-3.6736 -2.9783,-6.6523 -6.6532,-6.6523 0.1953,-0.6445 0.4722,-1.3343 0.4722,-2.0416 0,-3.9367 -3.1865,-7.1261 -7.1222,-7.1261 -3.9341,0 -7.1207,3.1894 -7.1207,7.1261 0,0.7073 0.2757,1.3971 0.471,2.0416 -3.6752,0 -6.6541,2.9787 -6.6541,6.6523 0,3.6754 2.9789,6.6541 6.6541,6.6541 3.6737,0 2.8552,3.456 0.9347,3.6214 -3.6742,0.1097 -16.6725,1.2055 -17.4944,1.2594 -1.1322,0.0767 -1.9195,-1.4248 0.136,-2.0363 2.3876,-0.709 3.9914,-2.9124 3.4735,-5.3494 -0.5176,-2.437 -2.8099,-4.0187 -5.2468,-3.5031 0.0369,-0.4545 0.0218,-0.9231 -0.0774,-1.3918 -0.5555,-2.6093 -3.1199,-4.2746 -5.7294,-3.7207 -2.6087,0.5557 -4.2744,3.1197 -3.7198,5.7291 0.0999,0.4703 0.3804,0.8866 0.6001,1.2872 -2.436,0.5191 -3.9915,2.9142 -3.4728,5.3512 0.5175,2.4352 2.912,3.9907 5.3488,3.4733 2.4365,-0.5173 2.5454,1.4231 1.3935,1.533 -5.0462,0.5417 -15.0116,3.9035 -16.0644,3.7345 -1.0518,-0.1689 -1.52,-0.8727 -1.0166,-1.9004 0.3377,-0.6881 1.9903,-1.7141 1.9903,-1.7141 1.4372,-1.0748 2.3667,-2.7034 2.3667,-4.6352 0,-3.2538 -2.6381,-5.8911 -5.8911,-5.8911 -2.053,0 -3.8921,1.0504 -4.9776,2.6425 -2.6624,-10.4445 -13.3622,-5.1212 -13.3622,-5.1212l5.5116 8.9203c1.2479,-0.8954 3.1728,-0.7525 4.3583,0.4319 1.3492,1.35 1.3492,3.5379 0,4.8878 -0.2253,0.2247 -0.4743,0.4111 -0.7385,0.5627l4.6543 7.5354c0,0 1.3506,3.5256 7.2745,1.2698 15.0068,-5.7134 39.7636,-6.7342 46.4014,-6.6803 6.6368,-0.054 31.3882,0.9668 46.3958,6.6803 5.9239,2.2557 7.2746,-1.2698 7.2746,-1.2698l4.6548 -7.5354c-0.2661,-0.1516 -0.5139,-0.338 -0.7392,-0.5627 -1.3486,-1.35 -1.3486,-3.5379 0,-4.8878 1.1855,-1.1845 3.1098,-1.3273 4.3583,-0.4319l5.5114 -8.9203c0.0007,0.0017 -10.6989,-5.3233 -13.362,5.1212zm-82.7753 2.625l0 0c-1.6051,0 -2.9068,-1.3012 -2.9068,-2.9072 0,-1.6042 1.3017,-2.9072 2.9068,-2.9072 1.6051,0 2.9068,1.303 2.9068,2.9072 0,1.606 -1.3017,2.9072 -2.9068,2.9072zm28.6795 -4.7885l0 0c-2.1589,0 -3.9084,-1.7506 -3.9084,-3.9088 0,-2.1565 1.7495,-3.907 3.9084,-3.907 2.1577,0 3.9083,1.7505 3.9083,3.907 0,2.1582 -1.7506,3.9088 -3.9083,3.9088zm25.7727 1.8813l0 0c0,-1.6042 1.3017,-2.9072 2.9067,-2.9072 1.6044,0 2.9068,1.303 2.9068,2.9072 0,1.606 -1.3017,2.9072 -2.9068,2.9072 -1.6044,0 -2.9067,-1.3012 -2.9067,-2.9072z"/>
   <path class="fil0" d="M24.1021 113.3096c0,-4.748 3.8487,-8.5972 8.5968,-8.5972l6.1005 0.0055 0 -3.5017 -6.1005 -0.0074c-6.6833,0 -12.1003,5.4176 -12.1003,12.1008 0,6.6825 5.415,12.1029 12.0974,12.1029l6.2078 0 0.0218 -3.5104 -6.2492 0c-4.7479,0 -8.5742,-3.8451 -8.5742,-8.5925z"/>
   <path class="fil0" d="M156.6429 100.0194c-4.2376,0 -9.0083,3.7792 -9.4077,10.1426l-0.0599 14.5578 3.2709 -0.0279 0 -5.0678 12.2505 0.0266 0 4.9466 3.4156 0 0 -14.3435c-0.398,-6.362 -4.984,-10.2343 -9.4695,-10.2343zm6.0238 16.1678l0 0 -12.2204 0 -0.0102 -5.9796c0.0102,-4.7074 3.349,-6.6963 6.1388,-6.6399 3.4647,0.0703 6.0918,2.9165 6.0918,6.5935l0 6.026z"/>
   <path class="fil0" d="M93.4253 203.9301c-6.6837,0 -12.1007,5.4177 -12.1007,12.1002 0,6.6832 5.417,12.1001 12.1007,12.1001 6.6819,0 12.1001,-5.4169 12.1001,-12.1001 0,-6.6825 -5.4182,-12.1002 -12.1001,-12.1002zm0 20.6968l0 0c-4.748,0 -8.5965,-3.8479 -8.5965,-8.5959 0,-4.7474 3.8485,-8.5965 8.5965,-8.5965 4.748,0 8.5966,3.8491 8.5966,8.5965 0,4.748 -3.8486,8.5959 -8.5966,8.5959z"/>
   <path class="fil3" d="M98.1046 185.7245c0,2.5842 -2.095,4.6793 -4.6793,4.6793 -2.5842,0 -4.6792,-2.095 -4.6792,-4.6793 0,-2.5843 2.0949,-4.6793 4.6792,-4.6793 2.5842,0 4.6793,2.0949 4.6793,4.6793z"/>
   <path class="fil3" d="M132.5583 113.0633c0,2.5842 -2.095,4.6793 -4.6793,4.6793 -2.585,0 -4.68,-2.095 -4.68,-4.6793 0,-2.585 2.0949,-4.68 4.68,-4.68 2.5842,0 4.6793,2.0949 4.6793,4.68z"/>
   <path class="fil3" d="M63.6525 113.0633c0,2.5849 -2.0951,4.68 -4.6793,4.68 -2.5851,0 -4.6801,-2.095 -4.6801,-4.68 0,-2.5843 2.0949,-4.6793 4.6801,-4.6793 2.5841,0 4.6793,2.0949 4.6793,4.6793z"/>
   <path class="fil3" d="M69.56 151.5819c0,2.5842 -2.0958,4.6799 -4.68,4.6799 -2.5843,0 -4.6802,-2.0956 -4.6802,-4.6799 0,-2.5843 2.0958,-4.6801 4.6802,-4.6801 2.5841,0 4.68,2.0957 4.68,4.6801z"/>
   <path class="fil3" d="M132.5583 76.2513c0,2.5849 -2.095,4.68 -4.6793,4.68 -2.585,0 -4.68,-2.095 -4.68,-4.68 0,-2.5843 2.0949,-4.6798 4.68,-4.6798 2.5842,0 4.6793,2.0954 4.6793,4.6798z"/>
   <path class="fil3" d="M63.6525 76.2513c0,2.5849 -2.0951,4.68 -4.6793,4.68 -2.5851,0 -4.6801,-2.095 -4.6801,-4.68 0,-2.5843 2.0949,-4.6798 4.6801,-4.6798 2.5841,0 4.6793,2.0954 4.6793,4.6798z"/>
   <path class="fil3" d="M98.1054 73.2158c0,2.5849 -2.0958,4.6807 -4.6801,4.6807 -2.5842,0 -4.6799,-2.0957 -4.6799,-4.6807 0,-2.5832 2.0956,-4.6788 4.6799,-4.6788 2.5842,0 4.6801,2.0955 4.6801,4.6788z"/>
   <path class="fil3" d="M126.6507 151.5819c0,2.5842 -2.0949,4.6799 -4.6799,4.6799 -2.5843,0 -4.6793,-2.0956 -4.6793,-4.6799 0,-2.5843 2.0949,-4.6801 4.6793,-4.6801 2.5849,0 4.6799,2.0957 4.6799,4.6801z"/>
  </g>
 </g>
</svg>
