<?xml version="1.0" encoding="UTF-8" standalone="no"?>
<svg
   viewBox="0 0 750.00002 679.57672"
   version="1.1"
   id="svg162"
   sodipodi:docname="logo-invert.svg"
   width="750"
   height="679.57672"
   inkscape:version="1.2 (dc2aeda, 2022-05-15)"
   xmlns:inkscape="http://www.inkscape.org/namespaces/inkscape"
   xmlns:sodipodi="http://sodipodi.sourceforge.net/DTD/sodipodi-0.dtd"
   xmlns="http://www.w3.org/2000/svg"
   xmlns:svg="http://www.w3.org/2000/svg">
  <sodipodi:namedview
     id="namedview164"
     pagecolor="#ffffff"
     bordercolor="#666666"
     borderopacity="1.0"
     inkscape:showpageshadow="2"
     inkscape:pageopacity="0.0"
     inkscape:pagecheckerboard="0"
     inkscape:deskcolor="#d1d1d1"
     showgrid="false"
     inkscape:zoom="0.57835046"
     inkscape:cx="169.44743"
     inkscape:cy="269.73265"
     inkscape:window-width="1440"
     inkscape:window-height="900"
     inkscape:window-x="0"
     inkscape:window-y="0"
     inkscape:window-maximized="0"
     inkscape:current-layer="svg162" />
  <defs
     id="defs134">
    <style
       id="style132">.cls-1{fill:#c6ad2b;}.cls-2{fill:#fff;}.cls-3{fill:#f5b3c4;}</style>
  </defs>
  <g
     id="g480"
     transform="matrix(2.4283633,0,0,2.4283633,-244.60902,551.35852)"
     style="stroke-width:0.4118">
    <path
       class="cls-1"
       d="m 125.43,10.28 h -24.7 v 9 h 3 v 32.91 h 10.77 v -11.1 h 10.9 c 8.65,0 16.09,-5.73 16.09,-15.28 0,-10.66 -7.44,-15.53 -16.09,-15.53 m -1.7,21.82 h -9.17 V 19.28 h 9.17 c 3.78,0 6.67,2.4 6.67,6.47 0,3.82 -2.89,6.35 -6.67,6.35"
       id="path136"
       style="stroke-width:0.4118" />
    <path
       class="cls-1"
       d="m 157.56,10.28 h -7 v 9 h 1.53 l -13.2,32.91 h 10.9 l 3,-7.71 h 18.27 l 3,7.71 h 10.9 L 168.38,10.28 Z m -2.07,26.63 6.61,-16.4 6.28,16.4 z"
       id="path138"
       style="stroke-width:0.4118" />
    <polygon
       class="cls-1"
       points="220.3,43.19 198.63,43.19 198.63,10.28 187.86,10.28 187.86,52.19 220.3,52.19 "
       id="polygon140"
       style="stroke-width:0.4118" />
    <polygon
       class="cls-1"
       points="234.33,35.18 254.4,35.18 254.4,26.49 234.33,26.49 234.33,19.28 259.08,19.28 259.08,10.28 224.08,10.28 224.08,52.19 259.08,52.19 259.08,43.19 234.33,43.19 "
       id="polygon142"
       style="stroke-width:0.4118" />
    <path
       class="cls-1"
       d="m 302.86,43.87 c -4,0 -7.88,-3.7 -11.8,-7.15 6.61,-1.29 11.42,-6 11.42,-12.64 0,-9.79 -8.27,-13.8 -16.74,-13.8 H 262 v 9 h 3 v 32.91 h 10.77 v -15.1 h 2.3 c 5.71,3.76 13,15.71 23,15.71 a 17.35,17.35 0 0 0 7.37,-1.6 l -1,-8.13 a 13.37,13.37 0 0 1 -4.62,0.8 M 285.55,29.63 h -9.74 V 19.28 h 9.74 c 3.53,0 5.77,2 5.77,5.17 0,3.17 -2.24,5.18 -5.77,5.18"
       id="path144"
       style="stroke-width:0.4118" />
    <polygon
       class="cls-1"
       points="311.38,52.19 322.15,52.19 322.15,26.55 335.23,41.71 337.09,41.71 350.23,26.55 350.23,52.19 361,52.19 361,10.28 351.7,10.28 336.19,27.78 320.68,10.28 311.38,10.28 "
       id="polygon146"
       style="stroke-width:0.4118" />
    <path
       class="cls-1"
       d="m 387.07,9.66 c -12.75,0 -22.37,9.25 -22.37,21.64 0,12.39 9.62,21.5 22.37,21.5 12.75,0 22.51,-9.24 22.51,-21.5 0,-12.26 -9.58,-21.64 -22.51,-21.64 m 0.07,33.41 A 11.53,11.53 0 0 1 375.28,31.3 11.86,11.86 0 0 1 399,31.3 11.42,11.42 0 0 1 387.14,43.07"
       id="path148"
       style="stroke-width:0.4118" />
  </g>
  <g
     id="g492"
     transform="matrix(8.3761446,0,0,8.3761446,-778.30833,527.40754)"
     style="stroke-width:0.119387">
    <path
       class="cls-2"
       d="m 106.22964,-41.235281 c 0,0 -4.91,-5.27 -13.310001,-0.21 0,0 1.74,-0.55 5.35,3.41 l 33.730001,36.93 a 35.28,35.28 0 0 1 1.92,-9.86 z"
       id="path150"
       style="fill:#000000;stroke-width:0.119387" />
    <path
       class="cls-3"
       d="m 112.63964,-50.895281 c 0,0 -4.9,-5.27 -13.300001,-0.21 0,0 1.730001,-0.55 5.350001,3.41 l 30.51,33.41 a 51.91,51.91 0 0 1 4.08,-7.56 z"
       id="path152"
       style="stroke-width:0.119387" />
    <path
       class="cls-2"
       d="m 119.05964,-60.555281 c 0,0 -4.91,-5.28 -13.31,-0.21 0,0 1.74,-0.55 5.35,3.41 l 30,32.84 a 66.13,66.13 0 0 1 5.2,-6.34 z"
       id="path154"
       style="fill:#000000;stroke-width:0.119387" />
    <path
       class="cls-2"
       d="m 164.64964,-39.365281 v 0 l -6.58,-2.7 1.59,1.1 -0.06,0.13 c -0.85,3 3.84,4.71 5,1.52"
       id="path156"
       style="fill:#000000;stroke-width:0.119387" />
    <path
       class="cls-2"
       d="m 182.45964,-36.475281 c 0,-14.59 -9.78,-21.25 -21.17,-21.25 h -31.59 c 7.22,2.43 24.62,8.04 30.22,9.84 0.51,0.15 1,0.31 1.52,0.49 l 0.24,0.08 v 0 a 21.33,21.33 0 0 1 5,2.57 c 2.56,1.67 2.74,3.78 4.52,6.17 2,1.8 3.84,2.16 5.2,4.39 1.87,3.44 0.76,5.06 -0.31,9.76 a 4.55,4.55 0 0 0 -2.3,-3.61 c -4.18,-2.17 -14.65,2 -16.46,2.67 -4.59,2 -16.69,8.7 -22.92,25 h 12.42 a 29.45,29.45 0 0 1 4.8,-8.31 20.89,20.89 0 0 1 11.9,-7 c 2.15,-0.51 4.06,-1 5.49,-1.45 8.49,-2.7 13.44,-10.64 13.44,-19.37"
       id="path158"
       style="fill:#000000;stroke-width:0.119387" />
  </g>
</svg>
