<?xml version="1.0" encoding="UTF-8"?>
<!DOCTYPE svg PUBLIC "-//W3C//DTD SVG 1.1//EN" "http://www.w3.org/Graphics/SVG/1.1/DTD/svg11.dtd">
<!-- Creator: CorelDRAW 2019 (64-Bit) -->
<svg xmlns="http://www.w3.org/2000/svg" xml:space="preserve" width="185.569mm" height="227.16mm" version="1.1" style="shape-rendering:geometricPrecision; text-rendering:geometricPrecision; image-rendering:optimizeQuality; fill-rule:evenodd; clip-rule:evenodd"
viewBox="0 0 185.3371 226.8769"
 xmlns:xlink="http://www.w3.org/1999/xlink"
 xmlns:xodm="http://www.corel.com/coreldraw/odm/2003">
 <defs>
  <style type="text/css">
   <![CDATA[
    .fil2 {fill:#1B1D1B}
    .fil0 {fill:#24338A}
    .fil1 {fill:#FFCF00}
    .fil3 {fill:white}
   ]]>
  </style>
 </defs>
 <g id="Layer_x0020_1">
  <metadata id="CorelCorpID_0Corel-Layer"/>
  <g id="_861053040">
   <path class="fil0" d="M0.0973 0.0646c0.0365,38.5659 -0.3816,77.1495 0.2791,115.707 0.9066,26.7077 14.3741,51.2602 32.6294,70.1605 16.4051,17.9317 36.7886,32.5447 59.672,40.9449 33.8587,-12.6813 62.4903,-38.219 80.6169,-69.3235 11.0997,-19.3152 12.6043,-42.0723 11.8938,-63.8398 0.0378,-31.2374 0.0172,-62.4756 0.022,-93.7136 -61.7038,0.0173 -123.4087,-0.0347 -185.1132,0.0646z"/>
   <polygon class="fil1" points="7.2083,36.5304 178.1473,36.5304 178.1473,7.5295 7.2083,7.5295 "/>
   <path class="fil2" d="M40.0759 43.083c-0.0948,18.0478 -0.0417,36.0969 -0.0552,54.1447 -10.9839,0 -21.9678,0 -32.9515,0 0.1017,6.4758 0.0153,12.9581 0.325,19.427 10.8754,0 21.7509,0 32.6265,0 0,22.5405 0,45.0813 0,67.6224 6.0355,6.1207 12.3444,12.0381 19.4078,16.9635 0.2185,-28.1928 0.0691,-56.3907 0.1122,-84.5859 10.9369,0 21.8747,0 32.8116,0 0,-6.4757 0,-12.9512 0,-19.427 -10.9369,0 -21.8747,0 -32.8116,0 -0.0131,-18.0478 0.0252,-36.0969 -0.0469,-54.1447 -6.4478,-0.2221 -12.9692,-0.2205 -19.4177,0z"/>
   <path class="fil3" d="M7.2083 43.0373l0 54.1903 32.8124 0 0.0461 -54.1903 -32.8586 0zm52.3132 27.0949l0 0 0.0192 27.0955 32.8116 0 0 -54.1903 -32.8586 0 0.0278 27.0949z"/>
   <path class="fil1" d="M105.9235 128.2552c0,46.8661 0.0277,85.2364 0.0645,85.2739 0.0376,0.0371 0.4278,-0.1211 0.8646,-0.3624 0.4372,-0.2326 1.3757,-0.7441 2.0915,-1.125 0.7157,-0.3809 2.1378,-1.1803 3.1602,-1.7657 1.0227,-0.5859 2.6118,-1.5338 3.5327,-2.092 0.9201,-0.5667 2.1473,-1.3379 2.7232,-1.7103l1.0408 -0.6783 0 -162.7581 -13.4775 0 0 85.2179zm27.2345 -8.9977l0 0c0,41.9208 0.0284,76.2201 0.0745,76.2201 0.0369,0 0.632,-0.4831 1.3202,-1.0784 0.6874,-0.5945 2.026,-1.7657 2.9744,-2.6119 0.9477,-0.8548 3.3645,-3.1879 5.3721,-5.2054l3.644 -3.6526 0 -139.892 -13.3852 0 0 76.2202zm26.8628 -14.4267l0 0c0,36.0379 0.0284,61.748 0.0835,61.6926 0.0379,-0.0467 0.6224,-0.8832 1.2919,-1.8593 0.6602,-0.9761 1.6464,-2.4537 2.1758,-3.2999 0.5389,-0.8457 1.3298,-2.1376 1.7663,-2.8817 0.4364,-0.7434 1.1627,-2.0167 1.618,-2.8347 0.4459,-0.8179 1.3,-2.4913 1.9048,-3.7179 0.594,-1.2272 1.3661,-2.8815 1.7112,-3.6718 0.3435,-0.7902 0.8823,-2.1104 1.2068,-2.9282 0.3166,-0.8179 0.8178,-2.1657 1.1076,-2.9929l0.52 -1.5152 0 -97.7847 -13.3858 0 0 61.7935z"/>
   <path class="fil3" d="M7.4871 117.0541c0,0.2143 0.0652,1.1251 0.1395,2.0175 0.0745,0.8918 0.2043,2.2119 0.288,2.9276 0.0745,0.7158 0.2605,2.1842 0.4187,3.2532 0.1481,1.0783 0.4177,2.77 0.6042,3.7647 0.1761,0.9945 0.5109,2.6488 0.7434,3.6718 0.232,1.0221 0.5392,2.3423 0.6968,2.9276 0.158,0.5858 0.456,1.6549 0.6604,2.3705 0.2042,0.7158 0.5852,1.9517 0.8364,2.7419 0.2604,0.7901 0.7341,2.1565 1.0506,3.0212 0.325,0.8733 0.7901,2.0635 1.022,2.6488 0.2421,0.586 0.7536,1.7848 1.1344,2.6496 0.381,0.8732 1.1989,2.5651 1.8033,3.764 0.6036,1.1994 1.5245,2.9375 2.0445,3.8577 0.5114,0.92 1.4037,2.426 1.9704,3.3461 0.5676,0.9207 1.4876,2.3615 2.0451,3.207 0.5668,0.8455 1.4224,2.1005 1.9056,2.7887 0.4928,0.688 1.4499,2.0075 2.138,2.9276 0.6972,0.9206 1.9796,2.5749 2.8536,3.6716 0.8832,1.0967 2.2864,2.7978 3.1135,3.7648 0.8371,0.976 2.0637,2.37 2.7241,3.114 0.6689,0.7435 1.9054,2.0914 2.7511,3.0021 0.8454,0.9109 1.552,1.645 1.5712,1.645 0.0091,0 0.0185,-15.1785 0.0185,-33.7411l0 -33.7417 -32.5336 0 0 0.3994zm52.0535 41.9677l0 0 -0.0098 42.3586c2.8536,2.0353 4.3689,3.0766 5.2146,3.6434 0.8456,0.5575 2.2216,1.4593 3.0673,1.9982 0.8455,0.53 2.1842,1.3669 2.9746,1.8409 0.7901,0.4739 2.1933,1.2917 3.1142,1.8124 0.92,0.5207 2.2401,1.2549 2.9276,1.6266 0.688,0.3718 2.4076,1.2456 3.8113,1.943 1.403,0.6967 3.2717,1.5891 4.1357,1.9799 0.8739,0.3901 1.9799,0.8734 2.4636,1.0782 0.4832,0.2043 1.4315,0.5947 2.0912,0.8549 0.6691,0.2696 1.6083,0.6228 2.0915,0.7994 0.4837,0.1767 0.8923,0.3164 0.9108,0.3164 0.0098,0 0.019,-23.0897 0.019,-51.3095l0 -51.3095 -32.8123 0 0.0007 42.3671z"/>
   <path class="fil0" d="M14.5758 15.4749l0.5189 0c0.7648,0 1.4202,0 1.8844,0.1639 0.8198,0.3828 0.9014,1.5834 0.9014,2.3759 0,0.7105 -0.1094,1.5298 -0.6004,2.0765 -0.7651,0.6003 -1.8027,0.4916 -2.7042,0.5184l0 -5.1347zm0 16.7968l0 0 0 -7.9753c1.8024,-0.082 3.7418,0.1638 5.4078,-0.6555 2.1847,-1.0099 2.7035,-3.496 2.7035,-5.7081 0,-1.6654 -0.2185,-3.1953 -1.3379,-4.4509 -1.3385,-1.5299 -4.015,-1.6937 -5.872,-1.6937l-5.7082 0 0 20.4835 4.8067 0z"/>
   <path class="fil0" d="M27.5904 32.2717l0.5737 -3.9877 3.769 0 0.6825 3.9877 4.8612 0 -4.4515 -20.4835 -5.7901 0 -4.4791 20.4835 4.8343 0zm3.8779 -7.5925l0 0 -2.7853 0 1.3928 -9.1775 0.0546 0 1.3379 9.1775z"/>
   <path class="fil0" d="M43.667 15.4749c2.3487,-0.0551 3.3593,0.0551 3.3593,2.4862 0,1.2557 -0.328,2.5397 -1.7209,2.5397l-1.6385 0 0 -5.0259zm0 8.7127l0 0 1.5842 0c1.1195,0.082 1.5016,0.9012 1.6384,2.1569 0.1367,1.2557 0.027,2.9494 0.1096,4.7518 0.0272,0.4097 0.1359,0.7925 0.2726,1.1754l5.2442 0 0 -0.2742c-0.2184,-0.1907 -0.3552,-0.4365 -0.4647,-0.709 -0.2732,-1.3109 -0.3002,-4.8338 -0.4369,-6.4738 -0.0818,-1.4195 -1.0377,-2.3476 -2.3762,-2.6485l0 -0.0551c2.0211,-0.928 2.5399,-2.4847 2.5399,-4.6699 0,-4.0697 -1.9663,-5.653 -5.899,-5.653l-7.019 0 0 20.4835 4.807 0 0 -8.0841z"/>
   <polygon class="fil0" points="58.815,32.2717 58.378,16.2122 58.4322,16.2122 61.7372,32.2717 65.3148,32.2717 68.7016,16.2122 68.7561,16.2122 68.2644,32.2717 72.8525,32.2717 72.8525,11.7882 66.1339,11.7882 63.5669,23.8867 63.512,23.8867 61.027,11.7882 54.2539,11.7882 54.2539,32.2717 "/>
   <path class="fil0" d="M79.2256 32.2717l0.5734 -3.9877 3.7691 0 0.6824 3.9877 4.8615 0 -4.4514 -20.4835 -5.7902 0 -4.4792 20.4835 4.8344 0zm3.8779 -7.5925l0 0 -2.7856 0 1.3929 -9.1775 0.0548 0 1.3379 9.1775z"/>
   <path class="fil0" d="M110.2408 18.9426l0 -1.7205c0,-4.1783 -2.4576,-5.9256 -6.5545,-5.9256 -4.3974,0 -6.4455,2.0749 -6.4455,6.5274l0 8.4118c0,4.1783 1.7208,6.5274 6.1451,6.5274 4.9162,0 6.9373,-2.4578 6.9373,-5.9823l0 -2.5114 -4.8073 0 0 1.8559c0,1.2573 -0.1365,2.951 -1.7749,2.951 -1.2561,0 -1.7209,-0.6837 -1.7209,-1.8307l0.0277 -10.1323c0,-1.3376 0.3547,-2.1569 1.8569,-2.13 0.9016,0 1.5294,0.9012 1.5294,2.6485l0 1.3108 4.8067 0z"/>
   <path class="fil0" d="M116.4579 32.2717l0.5737 -3.9877 3.769 0 0.6825 3.9877 4.8612 0 -4.4515 -20.4835 -5.79 0 -4.4787 20.4835 4.8338 0zm3.8785 -7.5925l0 0 -2.7859 0 1.3927 -9.1775 0.0547 0 1.3385 9.1775z"/>
   <polygon class="fil0" points="138.2698,32.2717 138.2698,28.1737 132.3979,28.1737 132.3979,11.7882 127.5912,11.7882 127.5912,32.2717 "/>
   <path class="fil0" d="M152.7542 18.9426l0 -1.7205c0,-4.1783 -2.4579,-5.9256 -6.5543,-5.9256 -4.3975,0 -6.4457,2.0749 -6.4457,6.5274l0 8.4118c0,4.1783 1.7209,6.5274 6.1454,6.5274 4.9161,0 6.9366,-2.4578 6.9366,-5.9823l0 -2.5114 -4.8067 0 0 1.8559c0,1.2573 -0.1365,2.951 -1.775,2.951 -1.2565,0 -1.7207,-0.6837 -1.7207,-1.8307l0.027 -10.1323c0,-1.3376 0.3552,-2.1569 1.8574,-2.13 0.9011,0 1.5295,0.9012 1.5295,2.6485l0 1.3108 4.8065 0z"/>
   <polygon class="fil0" points="155.2844,32.2717 160.0917,32.2717 160.0917,11.7885 155.2844,11.7885 "/>
   <path class="fil0" d="M170.7786 26.1538c0,1.1738 -0.1087,2.9226 -1.6654,2.9226 -1.5567,0 -1.7471,-1.7488 -1.7471,-2.9226l0 -8.4117c0,-1.2573 0.1905,-2.7588 1.7204,-2.7588 1.5835,0 1.6922,1.5014 1.6922,2.7588l0 8.4117zm4.8069 -8.7395l0 0c0,-3.9325 -2.2656,-6.1178 -6.4723,-6.1178 -4.2051,0 -6.5542,2.1853 -6.5542,6.1178l0 8.3299c0,4.6147 1.6937,7.019 6.5542,7.019 4.8621,0 6.4723,-2.4043 6.4723,-7.019l0 -8.3299z"/>
  </g>
 </g>
</svg>
