<?xml version="1.0" encoding="UTF-8"?>
<!DOCTYPE svg PUBLIC "-//W3C//DTD SVG 1.1//EN" "http://www.w3.org/Graphics/SVG/1.1/DTD/svg11.dtd">
<!-- Creator: CorelDRAW 2019 (64-Bit) -->
<svg xmlns="http://www.w3.org/2000/svg" xml:space="preserve" width="177.211mm" height="236.262mm" version="1.1" style="shape-rendering:geometricPrecision; text-rendering:geometricPrecision; image-rendering:optimizeQuality; fill-rule:evenodd; clip-rule:evenodd"
viewBox="0 0 177.1726 236.2098"
 xmlns:xlink="http://www.w3.org/1999/xlink"
 xmlns:xodm="http://www.corel.com/coreldraw/odm/2003">
 <defs>
  <style type="text/css">
   <![CDATA[
    .fil1 {fill:#053358}
    .fil2 {fill:#2E97D9}
    .fil0 {fill:white}
   ]]>
  </style>
 </defs>
 <g id="Layer_x0020_1">
  <metadata id="CorelCorpID_0Corel-Layer"/>
  <g id="_824603488">
   <path class="fil0" d="M168.4087 160.4371c4.254,-12.1703 6.0208,-24.0796 6.0208,-36.0306l-0.0527 -121.6685 -171.641 0.028 0.0213 121.6689c0,11.9439 1.8223,23.8563 6.1049,36.0273 4.289,12.1885 11.0312,24.6388 20.8839,37.5742 6.8446,9.0276 21.4005,20.6822 35.6841,28.1421 2.7886,1.4405 5.5494,2.7395 8.2143,3.8014 5.5029,2.1939 10.6738,3.4891 15.058,3.4891 12.7516,0 31.9436,-10.9357 45.771,-22.4371 2.7146,-2.2333 5.1987,-4.4987 7.372,-6.6926 2.2046,-2.1945 4.0948,-4.3142 5.6268,-6.3029l0.0072 -0.0109c9.9267,-12.9561 16.6864,-25.3889 20.9295,-37.5884z"/>
   <path class="fil1" d="M177.1147 0l-2.7379 0 -171.641 0.0248 -2.7358 0 0 2.7429 0.0246 121.6654c-0.0071,12.8888 2.0423,24.9785 6.2539,36.9406 4.5619,12.9633 11.5194,25.4987 21.287,38.3276 7.2518,9.5554 22.2998,21.4361 36.6007,28.8963 3.1041,1.6209 5.8784,2.9059 8.4762,3.9251 6.0132,2.4029 11.3465,3.6453 15.8303,3.6871l0.2294 0c14.581,0 34.7116,-12.4219 47.5192,-23.0672 2.7642,-2.2758 5.3018,-4.5975 7.5738,-6.8725 2.2189,-2.2087 4.158,-4.3742 5.7363,-6.4274l0.1348 -0.1556c9.8456,-12.8818 16.8316,-25.4141 21.3299,-38.3386 4.1616,-11.9085 6.1762,-23.9871 6.1762,-36.9439l-0.0579 -121.665 0 -2.7396zm-2.7379 2.7396l0 0 0.0527 121.665c0,11.9549 -1.7668,23.8602 -6.0208,36.0312 -4.2431,12.1987 -11.0028,24.635 -20.9295,37.5877l-0.0072 0.0142c-1.532,1.9856 -3.4222,4.1091 -5.6268,6.3036 -2.1733,2.1906 -4.6574,4.4586 -7.372,6.6919 -13.8274,11.4987 -33.0194,22.4377 -45.771,22.4377l-0.2011 0c-4.3464,-0.0387 -9.4386,-1.3236 -14.8569,-3.4929 -2.6649,-1.0586 -5.4257,-2.361 -8.2143,-3.8117 -14.2836,-7.4461 -28.8395,-19.1003 -35.6841,-28.1286 -9.8527,-12.9386 -16.595,-25.3849 -20.8839,-37.5735 -4.2897,-12.171 -6.1049,-24.0834 -6.0978,-36.0311l-0.0284 -121.6654 171.641 -0.0281z"/>
   <path class="fil1" d="M6.3268 6.678l0.0141 101.7768 12.3936 -5.8256c0,0 5.7759,4.1479 13.1548,4.3781 6.1366,0.2122 9.612,-1.6527 11.2647,-3.6452 0.4812,-0.4884 0.8992,-1.3837 0.9167,-1.3837l-0.0175 0c0.2083,-0.4992 0.3362,-1.0619 0.3362,-1.6243 0,-2.4635 -2.0777,-4.4521 -4.5975,-4.445 -2.566,0 -4.6257,1.9816 -4.6147,4.445 0,1.536 0.8139,2.8984 2.0423,3.6801l-0.0181 0.0071c0,0 -2.3144,0.9418 -4.7457,0.6973 -2.4314,-0.2368 -4.9516,-0.8845 -8.7555,-3.082 -3.8188,-2.1978 -4.5657,-3.3305 -4.5657,-3.3305 0,0 -1.5786,-14.3296 7.5523,-22.4767 9.2579,-8.2809 19.6311,-10.7299 31.0196,-10.2559 11.3459,0.492 18.5765,3.5883 27.3429,9.58 8.752,6.0126 13.2289,8.4618 20.9547,9.1804 7.7009,0.725 14.9241,-3.4118 24.0086,-0.2477 9.1025,3.1673 10.8899,6.2391 10.8899,6.2391 0,0 -12.1111,2.6086 -8.7697,14.3791 3.3337,11.764 10.3939,18.8241 19.7898,23.9491 4.9445,2.679 12.5532,3.3724 18.707,3.4465l-0.0313 -125.4667 -164.2717 0.0247z"/>
   <path class="fil2" d="M31.9041 194.8097c10.4862,13.7779 39.6302,34.0528 56.7273,34.0528 17.111,0 46.0781,-20.3033 56.5642,-34.0812 8.4304,-10.9673 14.4609,-21.574 18.5552,-31.9962 -2.272,0.0424 -4.7844,0.0251 -7.6193,-0.0426 -20.2113,-0.4883 -39.9315,-21.1703 -53.9461,-23.7223 -10.4118,-1.8971 -14.5627,2.1061 -16.5554,6.1018 -2.3145,4.6039 -0.2547,9.47 -0.2547,9.47 0,0 -11.8983,-0.0883 -21.9275,-16.1736 -8.5086,-13.6359 -12.03,-17.2877 -20.4491,-18.3778 -8.0195,-1.0548 -10.0934,0.9909 -28.9815,-2.8034 -3.1846,-0.6437 -5.6978,-1.1604 -7.6763,-1.5849l0 16.3393c1.4406,20.3316 8.8266,40.8407 25.5632,62.8179z"/>
   <path class="fil1" d="M167.7944 149.3878c0.1521,-0.5908 0.2939,-1.192 0.4344,-1.7798 -2.7132,0.0355 -8.0257,-0.4921 -16.2187,-3.8574 -12.5567,-5.0928 -31.0268,-20.371 -36.622,-23.9705 -8.5362,-5.4849 -29.972,-16.3148 -45.2079,-17.8894 -11.9304,-1.2385 -13.7526,-0.3503 -13.7526,-0.3503l0 1.4366c0,0 5.3224,-0.7076 14.726,1.9499 12.4252,3.5357 26.1747,11.5731 40.9181,21.4218 8.4618,5.6837 28.5105,18.0245 40.9182,20.9374 7.4323,1.7585 12.1772,2.1016 14.8045,2.1016z"/>
   <polygon class="fil0" points="25.4289,18.8073 33.8659,18.8073 33.8587,21.6988 28.7272,21.7054 28.7201,25.956 32.9461,25.956 32.9461,28.5536 28.7272,28.5536 28.7344,33.3327 34.2871,33.3359 34.2871,36.2375 25.4361,36.2375 "/>
   <path class="fil0" d="M34.9933 32.7447c1.0374,0.5912 2.2016,1.0404 3.3233,1.047 0.8774,-0.0066 2.0598,-0.3401 2.0598,-1.9288 0,-2.8056 -5.5031,-3.1062 -5.5101,-8.5887 0,-3.4959 2.2293,-4.9061 4.4096,-4.9061 1.2134,0 2.4596,0.2311 3.6593,0.5466l0 3.2945c-1.0127,-0.5103 -2.0951,-0.9413 -3.1567,-0.9347 -0.6515,0 -1.5998,0.3616 -1.5998,1.4796 0,2.6406 5.6836,2.9626 5.6836,8.6631 0,1.7553 -0.6406,5.2562 -5.0398,5.2562 -1.5888,0 -2.937,-0.2263 -3.8292,-0.4426l0 -3.486z"/>
   <path class="fil0" d="M55.1548 22.3164c-1.1753,-0.6308 -2.41,-1.0403 -3.6665,-1.0403 -2.9763,0 -3.9285,3.0004 -3.9214,6.1398 0,3.9004 1.4406,6.3775 4.2686,6.3692 1.1744,0 2.4524,-0.545 3.5354,-1.255l0 3.1838c-1.4018,0.6804 -2.9132,0.9595 -4.6116,0.9595 -4.0166,0 -6.7066,-3.3539 -6.7066,-9.1403 0,-5.7946 2.6859,-9.16 6.7066,-9.1667 1.6353,0 3.0614,0.1701 4.3883,0.5945l0.0072 3.3556z"/>
   <path class="fil0" d="M55.2095 36.2325l2.2087 0 1.207 -4.4322 4.834 0 1.2036 4.4322 3.2913 0.0066 -4.7143 -17.4367 -3.2911 0 -4.7394 17.4301zm4.1414 -7.1785l0 0 1.6841 -6.171 1.6638 6.171 -3.348 0z"/>
   <path class="fil0" d="M68.763 36.2325l3.0826 0 0 -6.9721 1.1857 -0.0082 2.6506 6.9803 3.9811 0 -3.9637 -8.0867c1.3273,-0.9066 2.2937,-2.8635 2.2937,-4.9871 0.0072,-3.1277 -1.8086,-4.3628 -3.3414,-4.3562l-5.8887 -0.0066 0 17.4367zm3.0826 -14.532l0 0 1.0193 -0.0066c1.4617,0 1.8405,0.796 1.8546,1.9916 0,1.2682 -0.6303,2.9691 -1.77,2.9691l-1.1039 0 0 -4.9541z"/>
   <path class="fil0" d="M79.2421 36.2325l2.1977 0 1.2141 -4.4388 4.8268 0 1.1856 4.4388 3.3265 0 -4.7213 -17.4301 -3.3019 0 -4.7277 17.4301zm4.1438 -7.1801l0 0 1.6777 -6.176 1.6528 6.1776 -3.3306 -0.0016z"/>
   <path class="fil0" d="M108.0658 22.3016c-1.1746,-0.6292 -2.3997,-1.0404 -3.6696,-1.0404 -2.9802,0.0066 -3.9214,3.0153 -3.9214,6.1481 0,3.9037 1.4547,6.3775 4.2748,6.3775 1.1785,0 2.4494,-0.5533 3.5324,-1.2649l-0.0111 3.1854c-1.4081,0.6738 -2.8981,0.9595 -4.5791,0.9595 -4.0279,-0.0099 -6.7067,-3.3539 -6.7067,-9.1419 0,-5.793 2.6757,-9.1717 6.6956,-9.1651 1.6281,0 3.0403,0.1767 4.382,0.5863l0.0031 3.3556z"/>
   <path class="fil0" d="M108.1245 36.2325l2.1906 -0.0083 1.2171 -4.4372 4.8381 0 1.1926 4.4372 3.3265 0 -4.7416 -17.4284 -3.3021 0.0066 -4.7214 17.4301zm4.1337 -7.1883l0 0 1.6847 -6.1678 1.67 6.1678 -3.3548 0z"/>
   <polygon class="fil0" points="121.6774,18.7941 124.9723,18.7941 124.9723,33.3178 130.529,33.3178 130.529,36.2242 121.6811,36.2308 "/>
   <path class="fil0" d="M141.6871 22.3016c-1.1642,-0.6292 -2.4035,-1.0404 -3.6665,-1.0404 -2.9977,0 -3.9252,3.0153 -3.9252,6.1398 0,3.912 1.4371,6.3709 4.2755,6.3709 1.1786,0.0083 2.4558,-0.5565 3.5356,-1.2567l-0.0109 3.1855c-1.4154,0.6722 -2.9054,0.9562 -4.6046,0.9562 -4.0167,0 -6.7027,-3.3523 -6.7027,-9.1386 0,-5.7996 2.686,-9.1651 6.7027,-9.1651 1.6352,0 3.0331,0.1833 4.3961,0.5863l0 3.3622z"/>
   <polygon class="fil0" points="142.9514,18.7941 146.2321,18.7875 146.2433,36.2242 142.9514,36.2242 "/>
   <path class="fil0" d="M147.4533 27.5183c0,5.7879 2.6719,9.1386 6.6816,9.132 4.0096,0 6.6853,-3.3441 6.6751,-9.132 0,-5.7996 -2.6655,-9.1717 -6.6751,-9.1651 -4.0097,0 -6.6816,3.3655 -6.6816,9.1651zm3.4899 0l0 0c0,-2.7991 0.8557,-6.2603 3.1917,-6.2669 2.3144,0.0066 3.1678,3.4678 3.1678,6.2669 0.0103,2.7825 -0.8534,6.2553 -3.1678,6.2619 -2.3248,0 -3.2028,-3.4579 -3.1917,-6.2619z"/>
   <path class="fil0" d="M158.9672 120.4309l0 -1.3481 1.1428 0c0.4534,0 1.1507,0 1.1507,0.6193 -0.007,0.609 -0.3651,0.7541 -0.9133,0.743l-1.3803 -0.0142zm1.9285 0.7154l0 0c0.8497,-0.0465 1.292,-0.4284 1.3025,-1.3025 0,-0.4954 -0.1239,-0.9804 -0.5658,-1.2532 -0.351,-0.1911 -0.8991,-0.2155 -1.3063,-0.2155l-2.3317 0 0 4.8166 0.9515 0 0.0213 -2.0423 0.9165 -0.0032 1.0584 2.0384 1.1148 0 -1.1611 -2.0384zm-1.0612 4.0697l0 0c2.4559,0 4.4728,-1.9959 4.4626,-4.4555 0,-2.4383 -1.9958,-4.445 -4.4626,-4.4521 -2.4563,0.0071 -4.4418,2.0204 -4.452,4.4521 0.0102,2.4526 1.9958,4.4626 4.452,4.4555zm0 -0.8385l0 0c2.0064,0 3.6241,-1.5998 3.6241,-3.617 0,-2.0068 -1.6282,-3.6206 -3.6241,-3.6136 -2.0034,0 -3.6173,1.6139 -3.6103,3.6136 -0.007,2.0172 1.6069,3.6099 3.6103,3.617z"/>
   <polygon class="fil1" points="70.3215,175.9761 68.6689,175.9761 68.6689,173.6293 73.606,172.9003 73.606,190.7581 70.3215,190.7581 "/>
   <path class="fil1" d="M83.6033 182.7808c-0.0246,1.6067 -0.5096,5.8254 -3.1815,5.8254 -1.0727,0 -2.1622,-0.4179 -3.1568,-1.0618l0 3.0718c1.1996,0.3787 2.424,0.5734 3.6768,0.5734 4.1689,0 5.9707,-4.6929 5.9707,-9.4564 0,-5.3121 -1.872,-8.8335 -5.4217,-8.8335 -3.6949,0 -4.8838,3.9708 -4.8838,6.2325 0,3.1602 1.6986,5.4359 3.9279,5.4359 1.0799,0 2.3285,-0.5167 2.8808,-1.7874l0.1877 0zm-1.9675 -7.2513l0 0c1.2384,0 1.7798,1.7727 1.7798,3.2945 0,1.4545 -0.598,3.1465 -1.7798,3.1465 -1.2596,0.0142 -1.7274,-1.819 -1.7274,-3.3407 -0.0103,-1.6069 0.4566,-3.1145 1.7274,-3.1003z"/>
   <path class="fil1" d="M89.3784 182.9897l0 -2.6009 1.1643 0c1.8584,-0.0109 2.8563,-0.9909 2.8563,-2.8524 0.0071,-1.4761 -0.8991,-2.0212 -1.8861,-2.007 -1.069,-0.0142 -2.1345,0.3187 -3.1112,0.9626l0 -2.7107c1.2283,-0.5591 2.5126,-0.881 3.8009,-0.881 2.5414,0 4.4914,1.2842 4.4914,4.1904 0,2.3918 -1.2848,3.8574 -2.8067,4.4056l0 0.0388c1.6353,0.3928 3.3867,2.1944 3.3867,4.7109 0,1.872 -0.7819,4.9436 -5.174,4.9436 -1.3096,0 -2.601,-0.1379 -3.8606,-0.5591l0 -3.0577c1.0648,0.5878 2.2045,1.0334 3.3334,1.0334 1.0619,0 2.1978,-0.6862 2.1978,-2.3886 -0.0246,-2.2933 -1.5681,-3.2279 -3.2807,-3.2279l-1.1116 0z"/>
   <path class="fil1" d="M101.3406 181.3139c0.0353,-1.5786 0.5237,-5.8004 3.1917,-5.8004 1.0727,0 2.1699,0.4173 3.1535,1.0617l0 -3.0859c-1.1895,-0.3644 -2.4311,-0.5877 -3.6522,-0.5877 -4.2006,0 -5.9636,4.7103 -5.9636,9.474 0,5.3224 1.8442,8.8154 5.4043,8.8154 3.6737,0 4.8876,-3.9386 4.8805,-6.2176 0,-3.1569 -1.7093,-5.4468 -3.9284,-5.4468 -1.0831,0 -2.3184,0.5307 -2.8666,1.7874l-0.2193 0zm1.9887 7.2795l0 0c-1.2425,0.0142 -1.7694,-1.7907 -1.7663,-3.2841 -0.0031,-1.4687 0.5703,-3.1711 1.7416,-3.1711 1.2845,0 1.7624,1.83 1.7624,3.355 0,1.5927 -0.4779,3.1002 -1.7377,3.1002z"/>
   <path class="fil0" d="M15.2629 36.2457l3.1989 0 -0.0072 -6.9638 1.8443 0c2.7745,0 4.3954,-2.6091 4.3883,-6.1629 0,-3.5356 -1.4333,-4.7527 -3.7588,-4.7527l-5.6726 0 0.007 17.8793zm3.1917 -14.7401l0 0c0.3155,-0.0925 0.6588,-0.1734 0.9703,-0.1734 1.0294,0 1.9145,0.5351 1.9075,2.1699 0.007,2.9163 -1.7165,3.1458 -2.8778,3.1458l0 -5.1424z"/>
  </g>
 </g>
</svg>
