<?xml version="1.0" encoding="UTF-8" standalone="no"?>
<svg
   xmlns:ns="&amp;ns_sfw;"
   xmlns:dc="http://purl.org/dc/elements/1.1/"
   xmlns:cc="http://creativecommons.org/ns#"
   xmlns:rdf="http://www.w3.org/1999/02/22-rdf-syntax-ns#"
   xmlns:svg="http://www.w3.org/2000/svg"
   xmlns="http://www.w3.org/2000/svg"
   xmlns:sodipodi="http://sodipodi.sourceforge.net/DTD/sodipodi-0.dtd"
   xmlns:inkscape="http://www.inkscape.org/namespaces/inkscape"
   inkscape:version="1.0 (4035a4f, 2020-05-01)"
   sodipodi:docname="20230226152029!Logo_Pisa_SC_2017.svg"
   xml:space="preserve"
   enable-background="new 0 0 393.244 500"
   viewBox="0 0 393.244 500"
   y="0px"
   x="0px"
   id="Livello_1"
   version="1.1"><defs
   id="defs5057" /><sodipodi:namedview
   inkscape:current-layer="Livello_1"
   inkscape:window-maximized="1"
   inkscape:window-y="25"
   inkscape:window-x="0"
   inkscape:cy="250"
   inkscape:cx="196.62199"
   inkscape:zoom="1.1717694"
   showgrid="false"
   id="namedview5055"
   inkscape:window-height="793"
   inkscape:window-width="1440"
   inkscape:pageshadow="2"
   inkscape:pageopacity="0"
   guidetolerance="10"
   gridtolerance="10"
   objecttolerance="10"
   borderopacity="1"
   bordercolor="#666666"
   pagecolor="#ffffff" />
<metadata
   id="metadata5014">
	<ns:sfw>
		<ns:slices />
		<ns:sliceSourceBounds
   y="289.253"
   x="762.474"
   width="393.244"
   height="500"
   bottomLeftOrigin="true" />
	</ns:sfw>
<rdf:RDF><cc:Work
     rdf:about=""><dc:format>image/svg+xml</dc:format><dc:type
       rdf:resource="http://purl.org/dc/dcmitype/StillImage" /></cc:Work></rdf:RDF></metadata>
<g
   id="g5052">
	<g
   id="g5030">
		<path
   id="path5016"
   d="M196.622,490.676C91.412,490.676,5.81,383.728,5.81,249.999S91.412,7.474,196.622,7.474    c105.21,0,190.803,108.796,190.803,242.525S301.832,490.676,196.622,490.676" />
		<path
   id="path5018"
   d="M196.622,490.677C91.412,490.677,5.81,383.729,5.81,250S91.412,7.475,196.622,7.475    c105.21,0,190.803,108.796,190.803,242.525S301.832,490.677,196.622,490.677 M196.613,0C88.201,0,0,112.145,0,250    c0,137.846,88.201,250,196.613,250c108.43,0,196.631-112.154,196.631-250C393.244,112.145,305.043,0,196.613,0"
   fill="#FFFFFF" />
		<path
   style="fill:#0761af;fill-opacity:1"
   id="path5020"
   d="M159.951,233.405v-49.691c-25.674,1.244-49.517,3.861-73.333,8.061v237.493    c-5.481-5.462-12.315-12.452-17.329-18.766c-34.384-43.341-53.314-101.916-53.314-164.965c0-51.841,11.19-100.644,34.859-140.463    c-25.17,39.343-40.239,89.527-40.239,145.175c0,131.039,83.452,231.866,186.027,231.866    c102.565,0,186.027-100.827,186.027-231.866c0-55.647-15.069-105.832-40.239-145.175c23.67,39.818,34.859,88.622,34.859,140.463    c0,63.049-18.939,121.624-53.323,164.965c-5.014,6.304-11.848,13.312-17.329,18.766V191.775    c-23.816-4.209-47.65-6.816-73.333-8.061l0.531,44.018l-0.531,183.447v60.679c-12.087,3.157-24.008,4.785-36.662,4.785    s-24.585-1.629-36.671-4.785v-72.354V233.405z"
   fill="#0063AF" />
		<path
   id="path5022"
   d="M333.425,176.341c-0.082-0.988-1.135-1.931-2.608-2.242c-1.793-0.384-2.681-0.567-4.474-0.933    c0.101,1.372,0.156,2.068,0.274,3.449c1.812,0.375,2.717,0.567,4.547,0.952C332.611,177.878,333.507,177.357,333.425,176.341     M326.169,171.154c1.665,0.339,2.498,0.512,4.163,0.869c1.519,0.32,2.297-0.201,2.214-1.144c-0.092-1.043-0.952-1.83-2.471-2.15    c-1.665-0.357-2.498-0.531-4.163-0.869C326.014,169.177,326.069,169.836,326.169,171.154 M334.056,173.514    c0.009,0.119,0.018,0.174,0.018,0.293c1.51,0.75,2.516,2.04,2.635,3.44c0.22,2.553-1.866,3.458-5.453,2.69    c-3.01-0.64-4.52-0.952-7.53-1.555c-0.43-5.416-0.64-8.116-1.061-13.532c2.91,0.586,4.364,0.878,7.274,1.501    c3.577,0.759,5.609,2.544,5.81,4.867C335.849,172.462,335.227,173.304,334.056,173.514 M305.363,172.691    c-2.534-0.43-3.888-2.214-4.007-4.081c-0.201-3.092-0.302-4.639-0.503-7.74c-1.226-0.201-1.839-0.302-3.074-0.494    c0.201,3.092,0.293,4.639,0.494,7.74c0.211,3.486,3.019,6.46,7.256,7.182c4.309,0.732,6.652-1.363,6.404-4.858    c-0.219-3.093-0.338-4.648-0.558-7.75c-1.226-0.22-1.839-0.329-3.065-0.549c0.22,3.102,0.32,4.648,0.54,7.75    C308.977,171.785,307.916,173.121,305.363,172.691 M280.248,157.832c-1.226-0.165-1.848-0.247-3.083-0.403    c0.274,5.389,0.412,8.088,0.677,13.477c4.538,0.567,6.798,0.878,11.327,1.528c-0.055-0.952-0.082-1.427-0.137-2.379    c-3.276-0.476-4.922-0.695-8.207-1.125C280.596,164.484,280.486,162.269,280.248,157.832 M261.721,157.978    c2.022,0.201,3.651,1.519,3.651,1.519c0.677-0.759,1.007-1.135,1.683-1.894c0,0-1.757-1.857-5.489-2.232    c-5.005-0.503-8.042,2.37-7.905,6.249c0.137,3.879,3.413,7.283,8.463,7.795c3.742,0.375,5.389-1.089,5.389-1.089    c-0.741-0.915-1.116-1.372-1.857-2.278c0,0-1.235,1.025-3.577,0.787c-2.955-0.293-5.115-2.37-5.206-4.932    C256.771,159.351,258.774,157.676,261.721,157.978 M224.281,155.298c2.434,0.101,3.998,1.345,3.998,1.345    c0.704-0.787,1.061-1.189,1.775-1.976c0,0-1.748-1.793-5.773-1.967c-5.069-0.21-8.134,2.845-8.088,6.716    c0.046,3.87,3.184,7.082,8.28,7.301c4.831,0.201,7.301-2.425,7.21-6.414c-0.009-0.531-0.009-0.787-0.027-1.317    c-3.083-0.165-4.621-0.238-7.704-0.366c0.009,0.888,0.018,1.327,0.037,2.214c1.766,0.073,2.653,0.11,4.428,0.201v0.174    c-0.046,1.748-1.519,3.038-4.017,2.928c-2.946-0.119-4.959-2.068-4.996-4.62C219.368,156.963,221.353,155.169,224.281,155.298     M191.26,152.452c-0.018,5.371-0.027,8.061-0.046,13.431c1.254-0.009,1.876-0.018,3.129-0.027c0-3.276,0.009-4.913,0.018-8.189    c4.126,3.257,6.194,4.904,10.376,8.225c0.302,0.009,0.448,0.009,0.75,0.009c-0.028-5.362-0.037-8.042-0.073-13.404    c-1.226-0.018-1.839-0.027-3.074-0.037c0.009,3.202,0.009,4.794,0.028,7.997c-4.154-3.239-6.222-4.84-10.339-8.015    C191.718,152.443,191.571,152.452,191.26,152.452 M179.595,152.672c-1.244,0.027-1.857,0.046-3.102,0.091    c-0.064,5.371-0.101,8.061-0.174,13.431c1.253-0.037,1.876-0.055,3.129-0.091C179.512,160.732,179.54,158.042,179.595,152.672     M161.076,166.872c0.101-4.419,0.146-6.633,0.247-11.062c2.004-0.11,3.001-0.165,5.005-0.265c0.018-0.952,0.027-1.418,0.046-2.37    c-5.243,0.256-7.868,0.403-13.111,0.769c-0.027,0.952-0.037,1.427-0.064,2.379c2.004-0.137,3.01-0.21,5.023-0.329    c-0.11,4.428-0.165,6.643-0.274,11.062C159.201,166.981,159.823,166.945,161.076,166.872 M133.491,162.663    c1.528-0.156,2.297-0.229,3.824-0.375c1.949-0.183,3.157-1.052,3.212-2.617c0.055-1.546-1.116-2.251-3.12-2.059    c-1.491,0.137-2.233,0.21-3.733,0.357C133.6,159.854,133.564,160.787,133.491,162.663 M130.682,155.911    c2.763-0.284,4.154-0.43,6.917-0.686c3.898-0.366,6.24,1.116,6.139,4.053c-0.073,2.004-1.244,3.458-3.038,4.355    c-0.009,0.082-0.009,0.119-0.009,0.201c1.409,1.574,2.113,2.37,3.541,3.943c-0.009,0.11-0.018,0.165-0.018,0.274    c-1.409,0.11-2.113,0.174-3.532,0.302c-1.308-1.519-1.967-2.278-3.276-3.797c-1.601,0.156-2.406,0.229-4.008,0.393    c-0.073,1.638-0.101,2.461-0.164,4.108c-1.244,0.119-1.867,0.183-3.12,0.32C130.343,163.99,130.453,161.3,130.682,155.911     M111.816,160.476c-2.864,0.384-5.005,2.544-5.151,5.105c-0.146,2.562,1.803,4.136,4.676,3.742c2.9-0.384,5.069-2.516,5.197-5.069    C116.665,161.693,114.689,160.083,111.816,160.476 M119.712,163.852c-0.183,3.888-3.449,7.402-8.518,8.079    c-5.032,0.686-7.951-1.995-7.722-5.883c0.229-3.888,3.486-7.503,8.482-8.18C116.967,157.191,119.895,159.973,119.712,163.852     M88.054,164.209c-1.482,0.256-2.223,0.384-3.706,0.65c-0.137,1.903-0.201,2.855-0.338,4.758c1.501-0.274,2.251-0.403,3.751-0.659    c1.985-0.348,3.23-1.29,3.339-2.937C91.202,164.465,90.04,163.861,88.054,164.209 M94.267,165.389    c-0.201,3.147-2.974,5.243-6.771,5.901c-1.455,0.256-2.187,0.384-3.641,0.64c-0.119,1.619-0.174,2.434-0.293,4.053    c-1.235,0.229-1.848,0.339-3.083,0.567c0.384-5.407,0.586-8.116,0.979-13.523c2.754-0.512,4.126-0.75,6.889-1.235    C92.172,161.135,94.45,162.443,94.267,165.389 M63.991,177.641c-2.488,0.531-4.382-0.338-4.382-0.338    c-0.741,0.979-1.107,1.473-1.848,2.452c0,0,1.903,1.272,6.094,0.384c4.172-0.887,6.185-3.147,6.377-5.517    c0.174-2.187-1.464-3.01-5.087-3.12c-2.324-0.073-3.083-0.274-3.01-1.089c0.064-0.833,0.915-1.528,2.58-1.885    c2.479-0.521,4.008,0.274,4.008,0.274c0.732-1.025,1.098-1.546,1.821-2.571c0,0-1.555-1.071-5.618-0.21    c-3.889,0.823-6.039,2.882-6.24,5.307c-0.192,2.168,1.51,2.845,4.886,2.964c2.58,0.101,3.202,0.421,3.129,1.299    C66.635,176.451,65.84,177.247,63.991,177.641 M214.601,131.106c-8.289-0.238-16.533-2.836-23.523-7.173    c-3.733,4.547-5.609,6.844-9.415,11.473c9.158,6.972,21.876,9.085,33.112,9.424c13.55,0.412,32.234-4.273,31.895-21.648    c-0.293-15.17-16.652-20.559-28.171-24.118c-5.746-1.775-15.326-3.349-15.92-9.479c-0.366-3.76,4.309-7.1,12.691-6.899    c7.329,0.183,14.676,2.489,20.659,6.716c3.284-4.465,4.913-6.679,8.125-11.071c-8.152-6.45-18.72-7.997-28.555-8.555    c-12.773-0.723-29.544,5.288-30.44,20.87c-0.796,13.871,15.59,18.875,26.167,21.538c5.663,1.436,16.817,3.824,17.1,11.208    C228.49,127.84,224.363,131.39,214.601,131.106 M168.561,72.065c-6.094,0.348-9.14,0.558-15.234,1.061    c-1.857,23.496-3.769,47.531-5.718,72.153c6.615-0.567,9.927-0.805,16.542-1.199C165.651,119.514,167.124,95.515,168.561,72.065     M83.818,120.1c7.768-1.537,11.656-2.242,19.415-3.522c8.289-1.153,16.798-6.212,17.951-15.252    c1.116-8.729-7.576-11.711-14.712-10.074c-7.493,1.226-11.245,1.894-18.729,3.358C86.444,103.036,85.136,111.526,83.818,120.1     M78.411,155.298c-6.661,1.345-9.991,2.059-16.652,3.577c4.3-25.134,8.509-49.682,12.608-73.653    c11.446-2.534,22.91-4.721,34.393-6.569c14.282-2.507,30.349,2.955,28.583,20.101c-1.876,18.326-20.047,27.888-36.314,30.514    c-7.658,1.281-11.492,1.976-19.159,3.504C80.726,140.228,79.573,147.74,78.411,155.298 M278.967,127.602l28.373,3.797    l-14.676-30.696L278.967,127.602z M268.94,147.264c-7.475-0.741-18.72-1.574-18.72-1.574l38.894-68.456l5.691,0.421l42.069,80.131    l-18.317-3.623l-5.435-10.888l-39.315-5.398C273.807,137.877,270.897,143.504,268.94,147.264 M358.714,205.336    c-48.822-17.228-103.846-27.778-162.083-27.778S83.352,188.108,34.53,205.345c48.822-14.749,103.865-21.629,162.101-21.629    S309.892,190.596,358.714,205.336 M224.491,451.878c0-0.412-0.082-0.787-0.229-1.144c-0.156-0.357-0.357-0.668-0.631-0.924    c-0.266-0.274-0.577-0.476-0.924-0.631c-0.357-0.156-0.741-0.229-1.144-0.229c-0.421,0-0.796,0.073-1.144,0.229    c-0.357,0.156-0.668,0.357-0.933,0.631c-0.274,0.256-0.476,0.567-0.631,0.924c-0.147,0.357-0.229,0.732-0.229,1.144    c0,0.412,0.082,0.796,0.229,1.144c0.156,0.357,0.357,0.668,0.631,0.933c0.265,0.265,0.576,0.476,0.933,0.631    c0.348,0.137,0.723,0.22,1.144,0.22c0.403,0,0.787-0.082,1.144-0.22c0.348-0.156,0.659-0.366,0.924-0.631    c0.274-0.265,0.476-0.576,0.631-0.933C224.409,452.673,224.491,452.289,224.491,451.878 M218.425,462.701l3.861-5.947    l-0.046-0.046c-0.165,0.091-0.393,0.165-0.668,0.201c-0.284,0.046-0.558,0.073-0.823,0.073c-0.714,0-1.363-0.137-1.958-0.412    c-0.595-0.265-1.098-0.64-1.528-1.107c-0.43-0.467-0.769-1.016-1.006-1.638c-0.229-0.613-0.348-1.272-0.348-1.967    c0-0.833,0.147-1.592,0.43-2.269c0.293-0.677,0.686-1.263,1.189-1.738c0.512-0.467,1.116-0.842,1.821-1.098    c0.704-0.256,1.464-0.384,2.278-0.384c0.823,0,1.601,0.119,2.306,0.375c0.704,0.247,1.308,0.604,1.812,1.07    c0.503,0.476,0.897,1.052,1.171,1.729c0.293,0.677,0.43,1.446,0.43,2.287c0,0.851-0.137,1.619-0.43,2.306    c-0.274,0.686-0.641,1.391-1.071,2.095l-4.108,6.469H218.425z M201.709,454.668c0,0.503,0.037,1.08,0.11,1.738    c0.064,0.659,0.201,1.281,0.412,1.866c0.22,0.586,0.531,1.089,0.933,1.501c0.412,0.412,0.952,0.613,1.638,0.613    c0.677,0,1.217-0.201,1.629-0.613c0.402-0.412,0.714-0.915,0.933-1.501c0.211-0.586,0.348-1.208,0.412-1.866    c0.073-0.659,0.11-1.235,0.11-1.738c0-0.494-0.037-1.08-0.11-1.738c-0.064-0.65-0.201-1.272-0.412-1.866    c-0.219-0.586-0.531-1.089-0.933-1.501c-0.412-0.403-0.952-0.613-1.629-0.613c-0.686,0-1.226,0.21-1.638,0.613    c-0.402,0.412-0.713,0.915-0.933,1.501c-0.211,0.595-0.348,1.217-0.412,1.866C201.746,453.588,201.709,454.174,201.709,454.668     M198.992,454.668c0-1.272,0.101-2.351,0.311-3.257c0.201-0.897,0.467-1.656,0.805-2.269c0.329-0.604,0.695-1.098,1.116-1.473    c0.421-0.366,0.833-0.65,1.272-0.833c0.43-0.192,0.842-0.311,1.244-0.375c0.403-0.055,0.75-0.091,1.061-0.091    c0.293,0,0.649,0.037,1.052,0.091c0.393,0.064,0.814,0.183,1.244,0.375c0.439,0.183,0.851,0.467,1.263,0.833    c0.43,0.375,0.796,0.869,1.134,1.473c0.329,0.613,0.604,1.372,0.796,2.269c0.21,0.906,0.311,1.985,0.311,3.257    c0,1.272-0.101,2.361-0.311,3.257c-0.192,0.897-0.467,1.656-0.796,2.26c-0.338,0.613-0.704,1.107-1.134,1.482    c-0.412,0.366-0.823,0.65-1.263,0.842c-0.43,0.192-0.851,0.311-1.244,0.366c-0.403,0.064-0.759,0.101-1.052,0.101    c-0.311,0-0.659-0.037-1.061-0.101c-0.403-0.055-0.814-0.174-1.244-0.366c-0.439-0.192-0.851-0.476-1.272-0.842    c-0.421-0.375-0.787-0.869-1.116-1.482c-0.338-0.604-0.604-1.363-0.805-2.26C199.092,457.029,198.992,455.94,198.992,454.668     M190.83,451.878c0-0.412-0.073-0.787-0.229-1.144c-0.156-0.357-0.357-0.668-0.622-0.924c-0.265-0.274-0.577-0.476-0.924-0.631    c-0.366-0.156-0.741-0.229-1.153-0.229c-0.412,0-0.796,0.073-1.144,0.229c-0.357,0.156-0.668,0.357-0.933,0.631    c-0.274,0.256-0.476,0.567-0.622,0.924c-0.146,0.357-0.238,0.732-0.238,1.144c0,0.412,0.092,0.796,0.238,1.144    c0.146,0.357,0.348,0.668,0.622,0.933c0.265,0.265,0.577,0.476,0.933,0.631c0.348,0.137,0.732,0.22,1.144,0.22    c0.412,0,0.787-0.082,1.153-0.22c0.348-0.156,0.659-0.366,0.924-0.631c0.265-0.265,0.467-0.576,0.622-0.933    C190.757,452.673,190.83,452.289,190.83,451.878 M184.774,462.701l3.852-5.947l-0.046-0.046c-0.165,0.091-0.384,0.165-0.668,0.201    c-0.284,0.046-0.558,0.073-0.823,0.073c-0.714,0-1.363-0.137-1.949-0.412c-0.595-0.265-1.107-0.64-1.528-1.107    c-0.439-0.467-0.768-1.016-1.006-1.638c-0.238-0.613-0.348-1.272-0.348-1.967c0-0.833,0.146-1.592,0.43-2.269    c0.284-0.677,0.677-1.263,1.189-1.738c0.503-0.467,1.107-0.842,1.821-1.098c0.696-0.256,1.455-0.384,2.269-0.384    c0.833,0,1.601,0.119,2.306,0.375c0.696,0.247,1.308,0.604,1.812,1.07c0.512,0.476,0.906,1.052,1.181,1.729    c0.283,0.677,0.421,1.446,0.421,2.287c0,0.851-0.137,1.619-0.421,2.306c-0.275,0.686-0.641,1.391-1.08,2.095l-4.099,6.469H184.774    z M170.51,449.773l-3.019,2.781l-1.592-1.876l4.858-4.035h2.471v16.057h-2.717V449.773z"
   fill="#FFFFFF" />
		<path
   id="path5024"
   d="M243.12,317.902c0,38.894-31.538,70.433-70.424,70.433c-38.894,0-70.423-31.538-70.423-70.433    c0-38.885,31.529-70.423,70.423-70.423C211.581,247.478,243.12,279.017,243.12,317.902"
   fill="#E30613" />
		<path
   id="path5026"
   d="M172.696,241.852c-41.941,0-76.06,34.118-76.06,76.05c0,41.941,34.118,76.06,76.06,76.06    c41.932,0,76.05-34.118,76.05-76.06C248.746,275.97,214.628,241.852,172.696,241.852 M172.696,247.478    c38.885,0,70.423,31.538,70.423,70.423c0,38.894-31.538,70.433-70.423,70.433c-38.894,0-70.424-31.538-70.424-70.433    C102.273,279.017,133.802,247.478,172.696,247.478" />
		<path
   id="path5028"
   d="M216.504,308.102c-23.258,7.036-40.679,8.024-40.679,8.024s0.979-17.411,8.024-40.669    c-7.32-2.873-11.153-6.853-11.153-6.853s-3.797,3.98-11.153,6.853c7.036,23.258,8.024,40.669,8.024,40.669    s-17.412-0.988-40.66-8.024c-2.855,7.356-6.844,11.144-6.844,11.144s3.989,3.824,6.844,11.171    c23.249-7.054,40.66-8.033,40.66-8.033s-0.988,17.421-8.024,40.679c7.356,2.882,11.153,6.862,11.153,6.862    s3.833-3.98,11.153-6.862c-7.045-23.258-8.024-40.679-8.024-40.679s17.421,0.979,40.679,8.033    c2.854-7.347,6.834-11.171,6.834-11.171S219.358,315.458,216.504,308.102 M216.247,305.604c3.038,0,5.508-2.479,5.508-5.517    c0-3.056-2.471-5.526-5.508-5.526s-5.517,2.47-5.517,5.526C210.73,303.125,213.21,305.604,216.247,305.604 M216.247,332.915    c-3.038,0-5.517,2.48-5.517,5.535c0,3.038,2.479,5.481,5.517,5.481s5.508-2.443,5.508-5.481    C221.756,335.395,219.285,332.915,216.247,332.915 M231.243,313.747c-3.038,0-5.508,2.47-5.508,5.499    c0,3.065,2.47,5.526,5.508,5.526c3.028,0,5.508-2.461,5.508-5.526C236.751,316.217,234.272,313.747,231.243,313.747     M129.163,332.915c-3.056,0-5.508,2.48-5.508,5.535c0,3.038,2.452,5.481,5.508,5.481c3.047,0,5.526-2.443,5.526-5.481    C134.689,335.395,132.21,332.915,129.163,332.915 M129.163,305.604c3.047,0,5.526-2.479,5.526-5.517    c0-3.056-2.479-5.526-5.526-5.526c-3.056,0-5.508,2.47-5.508,5.526C123.655,303.125,126.107,305.604,129.163,305.604     M114.139,313.747c-3.019,0-5.517,2.47-5.517,5.499c0,3.065,2.498,5.526,5.517,5.526c3.083,0,5.545-2.461,5.545-5.526    C119.684,316.217,117.223,313.747,114.139,313.747 M191.864,357.28c-3.029,0-5.508,2.489-5.508,5.535    c0,3.028,2.479,5.499,5.508,5.499c3.056,0,5.544-2.47,5.544-5.499C197.409,359.769,194.92,357.28,191.864,357.28 M153.519,357.28    c-3.028,0-5.499,2.489-5.499,5.535c0,3.028,2.471,5.499,5.499,5.499c3.065,0,5.526-2.47,5.526-5.499    C159.045,359.769,156.584,357.28,153.519,357.28 M172.696,372.304c-3.038,0-5.517,2.461-5.517,5.508    c0,3.038,2.479,5.517,5.517,5.517s5.517-2.479,5.517-5.517C178.213,374.765,175.734,372.304,172.696,372.304 M153.519,281.221    c3.065,0,5.526-2.461,5.526-5.508c0-3.038-2.461-5.508-5.526-5.508c-3.028,0-5.499,2.47-5.499,5.508    C148.02,278.76,150.49,281.221,153.519,281.221 M191.864,281.221c3.056,0,5.544-2.461,5.544-5.508    c0-3.038-2.489-5.508-5.544-5.508c-3.029,0-5.508,2.47-5.508,5.508C186.356,278.76,188.836,281.221,191.864,281.221     M167.179,260.717c0-3.038,2.479-5.517,5.517-5.517s5.517,2.479,5.517,5.517c0,3.038-2.479,5.535-5.517,5.535    S167.179,263.754,167.179,260.717"
   fill="#FFFFFF" />
	</g>
	<polygon
   id="polygon5032"
   points="208.443,269.158 203.027,269.158 207.546,273.669 203.027,296.241 284.311,296.241    289.736,269.158  "
   fill="#FFFFFF" />
	<path
   id="path5034"
   d="M296.607,263.531h-6.871h-81.293h-5.407H189.44l9.616,9.607l2.379,2.388l-3.916,19.607l-1.345,6.743h6.862h81.284h4.611   l0.906-4.529l5.417-27.082L296.607,263.531z M289.736,269.158l-5.417,27.082h-81.284l4.511-22.572l-4.511-4.511h5.407H289.736z" />
	<polygon
   id="polygon5036"
   points="188.964,366.675 183.547,366.657 188.067,371.176 183.557,393.748 264.813,393.748 270.23,366.657     "
   fill="#FFFFFF" />
	<path
   id="path5038"
   d="M169.905,360.997l9.662,9.644l2.388,2.388l-3.925,19.616l-1.345,6.734h6.871h81.257h4.611l0.906-4.529l5.417-27.082   l1.354-6.743l-6.871,0.009l-81.266,0.009l-5.398-0.009L169.905,360.997z M270.23,366.66l-5.417,27.082h-81.257l4.511-22.572   l-4.52-4.511l5.417,0.018L270.23,366.66z" />
	<polygon
   id="polygon5040"
   points="270.23,263.741 275.646,236.658 236.596,236.658 232.296,236.658 231.18,236.658 235.69,241.169    231.18,263.741  "
   fill="#FFFFFF" />
	<path
   id="path5042"
   d="M282.517,231.03h-6.871h-39.05h-4.3h-1.126h-13.596l9.616,9.607l2.379,2.379l-3.916,19.626l-0.869,4.044h6.862h39.05h4.621   l0.43-1.839l5.417-27.082L282.517,231.03z M275.646,236.656l-5.417,27.082H231.17l4.511-22.572l-4.511-4.511h1.126h4.3H275.646z" />
	<polygon
   id="polygon5044"
   points="195.46,334.159 190.044,334.159 194.554,338.669 190.044,361.241 271.309,361.241 276.735,334.159    195.469,334.159  "
   fill="#FFFFFF" />
	<path
   id="path5046"
   d="M283.597,328.532h-6.871H195.46h-5.417h-13.596l9.616,9.607l2.379,2.379l-3.925,19.626l-1.345,6.734h6.871h81.266h4.611   l0.906-4.529l5.417-27.082L283.597,328.532z M276.726,334.159l-5.417,27.082h-81.266l4.511-22.572l-4.511-4.511h5.407h0.009   H276.726z" />
	<polygon
   id="polygon5048"
   points="201.947,301.658 196.531,301.658 201.05,306.169 196.531,328.74 277.815,328.74 283.231,301.658     "
   fill="#FFFFFF" />
	<path
   id="path5050"
   d="M290.102,296.031h-6.871h-81.275h-5.416h-13.596l9.616,9.607l2.379,2.388l-3.916,19.616l-1.354,6.734h6.871h81.275h4.621   l0.906-4.529l5.416-27.082L290.102,296.031z M283.231,301.658l-5.417,27.082H196.54l4.511-22.572l-4.511-4.511h5.407h0.009H283.231   z" />
</g>
</svg>
