<?xml version="1.0" encoding="UTF-8" standalone="no"?>
<svg
   clip-rule="evenodd"
   fill-rule="evenodd"
   stroke-linejoin="round"
   stroke-miterlimit="2"
   viewBox="0 0 300 300"
   version="1.1"
   id="svg48"
   sodipodi:docname="Portsmouth.svg"
   width="300"
   height="300"
   xmlns:inkscape="http://www.inkscape.org/namespaces/inkscape"
   xmlns:sodipodi="http://sodipodi.sourceforge.net/DTD/sodipodi-0.dtd"
   xmlns="http://www.w3.org/2000/svg"
   xmlns:svg="http://www.w3.org/2000/svg">
  <defs
     id="defs48" />
  <sodipodi:namedview
     id="namedview48"
     pagecolor="#ffffff"
     bordercolor="#000000"
     borderopacity="0.25"
     inkscape:showpageshadow="2"
     inkscape:pageopacity="0.0"
     inkscape:pagecheckerboard="0"
     inkscape:deskcolor="#d1d1d1" />
  <g
     fill-rule="nonzero"
     id="g10"
     transform="translate(-130,-50)">
    <path
       d="M 280.002,350 C 197.288,350 130,282.706 130,199.998 130,117.294 197.288,50 280.002,50 362.712,50 430,117.294 430,199.998 430,282.706 362.712,350 280.002,350"
       fill="#e4e1f3"
       id="path1" />
    <path
       d="m 280.002,56.553 c -79.101,0 -143.453,64.351 -143.453,143.445 0,79.098 64.352,143.453 143.453,143.453 79.097,0 143.449,-64.355 143.449,-143.453 0,-79.094 -64.352,-143.445 -143.449,-143.445"
       fill="#ffffff"
       id="path2" />
    <path
       d="m 280.002,61.336 c -76.583,0 -138.667,62.083 -138.667,138.664 0,76.581 62.084,138.667 138.667,138.667 76.583,0 138.663,-62.086 138.663,-138.667 0,-76.581 -62.08,-138.664 -138.663,-138.664"
       fill="#293f9c"
       id="path3" />
    <path
       d="m 280.002,300.005 c -55.234,0 -100.008,-44.777 -100.008,-100.005 0,-55.229 44.774,-100.002 100.008,-100.002 55.23,0 100.004,44.773 100.004,100.002 0,55.228 -44.774,100.005 -100.004,100.005"
       fill="#ffffff"
       id="path4" />
    <path
       d="m 348.338,122.19 c -0.125,0.108 -14.383,13.463 -31.733,13.463 -12.283,0 -25.103,-6.545 -36.499,-20.67 -11.399,14.125 -24.216,20.67 -36.498,20.67 -17.35,0 -31.608,-13.355 -31.733,-13.463 -11.351,16.402 -18.177,42.637 -18.177,62.697 0,24.861 7.998,47.788 23.782,68.145 13.022,16.803 36.824,35.317 62.626,49.338 25.794,-14.021 49.597,-32.535 62.622,-49.338 15.788,-20.357 23.787,-43.284 23.787,-68.145 0,-20.06 -6.826,-46.295 -18.177,-62.697"
       fill="#e4e1f3"
       id="path5" />
    <path
       d="m 347.583,127.117 c 0,0 -34.455,30.66 -67.485,-7.296 -33.021,37.956 -67.472,7.296 -67.472,7.296 -10.343,17.173 -15.736,39.626 -15.736,57.77 0,24.143 7.778,46.431 23.124,66.218 13.327,17.197 35.587,34.337 60.084,47.664 24.505,-13.327 46.766,-30.467 60.101,-47.664 15.334,-19.787 23.12,-42.075 23.12,-66.218 0,-18.144 -5.397,-40.597 -15.736,-57.77"
       fill="#fcfeff"
       id="path6" />
    <path
       d="m 345.246,136.608 c 0,0 -33.118,23.911 -65.196,-7.825 -32.078,31.736 -65.2,7.825 -65.2,7.825 -7.54,14.583 -11.62,30.789 -11.62,48.295 0,48.185 32.536,82.587 76.82,106.666 44.28,-24.079 76.824,-58.481 76.824,-106.666 0,-17.506 -4.083,-33.712 -11.628,-48.295"
       fill="#293f9c"
       id="path7" />
    <path
       d="m 342.447,167.396 c 0.253,2.257 0.317,4.525 0.317,6.85 0,33.314 -27.556,61.223 -62.204,61.48 -34.648,-0.257 -62.2,-28.166 -62.2,-61.48 0,-2.325 0.064,-4.593 0.317,-6.85 -0.084,0.582 -1.257,8.681 -1.257,16.691 0,33.679 28.886,65.042 63.285,65.66 34.398,-0.618 62.999,-31.981 62.999,-65.66 0,-8.01 -1.172,-16.109 -1.257,-16.691"
       fill="#fcfeff"
       id="path8" />
    <path
       d="m 280.56,222.038 c -32.026,0 -58.398,-23.914 -61.879,-54.678 -0.257,2.268 -0.39,4.581 -0.39,6.922 0,34.024 27.878,61.612 62.269,61.612 34.395,0 62.538,-27.56 62.273,-61.612 0,-2.341 -0.133,-4.654 -0.39,-6.922 -3.481,30.764 -29.857,54.678 -61.883,54.678"
       fill="#e4e1f3"
       id="path9" />
    <path
       d="m 279.865,168.266 c 0,-0.003 0.006,-0.008 0.006,-0.008"
       fill="#fcfeff"
       id="path10" />
  </g>
  <path
     d="m 138.819,122.365 -6.287,-13.271 12.728,6.85 4.818,-21.441 4.265,21.325 13.398,-6.705 -6.882,13.185 24.429,4.549 -24.445,4.606 6.862,12.848 -13.274,-6.416 -4.345,22.228 -4.818,-22.123 -12.688,6.283 5.999,-12.82 -23.666,-4.589 z"
     fill="#ffffff"
     id="path11" />
  <path
     d="m 149.89,126.926 -4.626,-10.982 -12.712,-6.862 z"
     fill="#e4e1f3"
     id="path12" />
  <path
     d="m 149.966,126.922 0.108,-32.386 4.301,21.308 z"
     fill="#e4e1f3"
     id="path13" />
  <path
     d="m 150.038,126.913 17.619,-17.743 -6.774,13.178 z"
     fill="#e4e1f3"
     id="path14" />
  <path
     d="m 150.002,126.959 35.234,-0.076 -24.393,4.577 z"
     fill="#e4e1f3"
     id="path15" />
  <path
     d="m 167.681,144.295 -17.707,-17.321 4.433,10.905 z"
     fill="#e4e1f3"
     id="path16" />
  <path
     d="m 149.946,127.022 -4.67,10.957 4.798,22.096 z"
     fill="#e4e1f3"
     id="path17" />
  <path
     d="m 132.588,144.266 17.33,-17.301 -11.327,4.485 z"
     fill="#e4e1f3"
     id="path18" />
  <path
     d="m 114.945,126.812 23.883,-4.461 11.042,4.614 z"
     fill="#e4e1f3"
     id="path19" />
  <g
     fill-rule="nonzero"
     id="g48"
     transform="translate(-130,-50)">
    <path
       d="m 280.05,265.497 c 0,0 -0.04,-0.004 -0.044,-0.004 -0.04,0 -0.04,0.004 -0.048,0.004 z"
       fill="#fcfeff"
       id="path20" />
    <path
       d="m 280.042,259.465 -0.04,-0.004 c -0.04,0 -0.04,0.004 -0.048,0.004 z"
       fill="#fcfeff"
       id="path21" />
    <g
       fill="#ffffff"
       id="g47">
      <path
         d="m 265.611,270.973 h -1.955 v -7.284 l 0.12,-1.144 h -0.04 l -0.658,0.887 -0.731,0.731 -1.253,-1.297 2.847,-2.819 h 1.658 v 10.926 z"
         id="path22" />
      <path
         d="m 272.381,261.707 c -1.835,0 -2.293,0.795 -2.293,1.333 0,0.502 0.595,1.377 2.265,1.377 1.686,0 2.293,-0.875 2.293,-1.377 0,-0.538 -0.446,-1.333 -2.265,-1.333 m -0.04,4.344 c -1.767,0 -2.654,0.876 -2.654,1.671 0,0.606 0.726,1.606 2.666,1.606 1.931,0 2.674,-1 2.674,-1.606 0,-0.795 -0.903,-1.671 -2.686,-1.671 m 0,5.055 c -3.1,0 -4.666,-1.71 -4.666,-3.356 0,-1.189 0.823,-2.076 1.956,-2.602 v -0.028 c -0.796,-0.326 -1.562,-1.08 -1.562,-2.16 0,-1.59 1.268,-3.048 4.248,-3.048 2.967,0 4.316,1.445 4.316,3.048 0,1.039 -0.823,1.782 -1.646,2.16 v 0.028 c 1.08,0.321 2.024,1.333 2.024,2.602 0,1.646 -1.566,3.356 -4.67,3.356"
         id="path23" />
      <path
         d="m 283.062,261.693 c -1.659,0 -2.562,1.092 -2.578,2.035 0,0.904 0.731,2.052 2.481,2.052 1.687,0 2.566,-1.148 2.578,-2.076 0,-0.907 -0.755,-2.011 -2.481,-2.011 m -0.097,9.427 c -1.698,0 -2.899,-0.457 -4.071,-1.698 l 1.401,-1.401 c 0.783,0.955 1.606,1.321 2.67,1.321 1.538,0 2.55,-1.068 2.807,-2.807 h -0.04 c -0.635,0.566 -1.711,1.012 -2.803,1.012 -2.943,0 -4.465,-1.807 -4.425,-3.831 0.04,-1.903 1.47,-3.802 4.558,-3.802 3.184,0 4.79,2.317 4.734,5.541 -0.065,3.521 -2.036,5.665 -4.843,5.665"
         id="path24" />
      <path
         d="m 293.971,261.707 c -1.835,0 -2.293,0.795 -2.293,1.333 0,0.502 0.595,1.377 2.265,1.377 1.686,0 2.293,-0.875 2.293,-1.377 0,-0.538 -0.446,-1.333 -2.265,-1.333 m -0.04,4.344 c -1.767,0 -2.654,0.876 -2.654,1.671 0,0.606 0.727,1.606 2.67,1.606 1.927,0 2.67,-1 2.67,-1.606 0,-0.795 -0.903,-1.671 -2.686,-1.671 m 0,5.055 c -3.104,0 -4.67,-1.71 -4.67,-3.356 0,-1.189 0.823,-2.076 1.96,-2.602 v -0.028 c -0.799,-0.326 -1.566,-1.08 -1.566,-2.16 0,-1.59 1.268,-3.048 4.248,-3.048 2.967,0 4.316,1.445 4.316,3.048 0,1.039 -0.823,1.782 -1.646,2.16 v 0.028 c 1.08,0.321 2.024,1.333 2.024,2.602 0,1.646 -1.566,3.356 -4.666,3.356"
         id="path25" />
      <path
         d="m 172.016,137.016 -3.281,5.822 0.675,-0.188 3.758,2.12 0.189,0.674 3.268,-5.798 c 1.205,-2.132 0.639,-3.429 -0.702,-4.184 -1.39,-0.782 -2.707,-0.578 -3.907,1.554 m 8.709,4.943 -3.269,5.798 0.675,-0.189 6.159,3.469 -2.634,4.674 -19.409,-10.941 5.669,-10.062 c 2.662,-4.722 6.918,-6.111 10.681,-3.991 3.642,2.055 4.814,6.472 2.128,11.242"
         id="path26" />
      <path
         d="m 188.129,114.933 c -3.068,3.308 -2.301,6.569 0.642,9.299 2.887,2.674 6.095,3.1 9.163,-0.209 3.084,-3.328 2.381,-6.456 -0.502,-9.13 -2.883,-2.674 -6.235,-3.268 -9.303,0.04 m 13.254,12.326 c -5.252,5.67 -11.451,5.477 -16.314,0.968 -4.802,-4.453 -5.685,-10.821 -0.429,-16.49 5.292,-5.71 11.672,-5.308 16.494,-0.839 4.863,4.509 5.433,10.772 0.249,16.361"
         id="path27" />
      <path
         d="m 211.996,95.166 -5.232,3.457 0.682,0.141 2.277,3.445 -0.141,0.682 4.983,-3.288 c 2.293,-1.518 2.341,-3.196 1.703,-4.16 -0.835,-1.261 -2.297,-1.582 -4.272,-0.277 m 19.261,8.344 -5.003,3.304 -5.899,-3.192 c -1.521,-0.807 -2.858,-0.779 -4.946,0.598 l -3.421,2.261 0.646,0.132 4.232,6.404 -4.473,2.96 -12.287,-18.595 9.296,-6.139 c 3.766,-2.489 8.604,-3.047 11.303,1.036 1.2,1.815 0.983,4.63 -0.141,6.424 l 0.04,0.045 c 0.815,-0.109 1.916,0.056 3.096,0.694 l 7.565,4.067 z"
         id="path28" />
      <path
         d="m 245.21,79.523 -7.457,2.843 0.434,0.366 6.087,15.96 -5.015,1.911 -6.083,-15.964 0.08,-0.558 -7.456,2.838 -1.674,-4.392 19.409,-7.4 z"
         id="path29" />
      <path
         d="m 264.134,94.082 c -4.16,0.631 -8.151,-0.16 -11.247,-2.252 l 3.068,-4.192 c 2.055,1.47 5.408,2.104 7.938,1.723 3.212,-0.486 4.176,-1.466 4.007,-2.582 -0.068,-0.434 -0.63,-1.406 -3.562,-1.658 -0.505,-0.037 -3.718,-0.302 -4.228,-0.362 -4.063,-0.361 -8.066,-1.257 -8.652,-5.147 -0.563,-3.698 2.626,-7.103 8.99,-8.067 4.22,-0.634 7.89,0.285 10.592,2.325 l -3.128,4.172 c -1.534,-1.325 -4.425,-2.225 -6.846,-1.859 -3.132,0.445 -4.389,1.526 -4.244,2.477 0.128,0.843 1.221,1.068 4.634,1.389 0.509,0.061 3.135,0.306 3.67,0.334 4.842,0.381 7.701,2.537 8.159,5.585 0.525,3.481 -2.217,7.066 -9.151,8.114"
         id="path30" />
      <path
         d="m 302.572,94.31 -5.336,-0.506 1.116,-11.777 -0.057,-0.008 -1.284,2.229 -6.678,9.178 -0.08,-0.008 -4.83,-10.271 -0.848,-2.429 -0.06,-0.003 -1.116,11.776 -5.34,-0.506 2.112,-22.212 4.376,0.414 5.867,12.467 0.662,2.028 0.06,0.003 0.976,-1.871 8.135,-11.138 4.437,0.422 z"
         id="path31" />
      <path
         d="m 323.68,82.616 c -4.228,-1.57 -6.95,0.386 -8.348,4.152 -1.369,3.686 -0.534,6.814 3.694,8.384 4.256,1.578 6.878,-0.265 8.248,-3.955 1.369,-3.686 0.634,-7.011 -3.594,-8.581 m -6.324,16.96 c -7.248,-2.686 -9.44,-8.488 -7.131,-14.707 2.277,-6.135 7.826,-9.388 15.077,-6.697 7.3,2.706 9.368,8.757 7.079,14.92 -2.309,6.219 -7.882,9.138 -15.025,6.484"
         id="path32" />
      <path
         d="m 355.553,109.085 c -3.75,5.464 -8.858,6.733 -14.893,2.589 -6.03,-4.139 -6.737,-9.331 -2.955,-14.84 l 6.786,-9.889 4.425,3.035 -6.774,9.866 c -2.24,3.264 -2.136,5.641 1.197,7.93 3.268,2.24 5.565,1.517 7.805,-1.751 l 6.774,-9.865 4.425,3.035 z"
         id="path33" />
      <path
         d="m 378.942,122.852 -5.417,-5.858 -0.176,0.538 -12.54,11.599 -3.646,-3.938 12.544,-11.6 0.55,-0.133 -5.417,-5.858 3.454,-3.192 14.101,15.25 z"
         id="path34" />
      <path
         d="m 378.44,155.5 -2.686,-4.646 7.167,-4.147 0.679,0.18 -5.666,-9.789 -0.18,0.679 -7.168,4.147 -2.686,-4.645 19.293,-11.162 2.687,4.645 -7.172,4.148 -0.674,-0.181 5.661,9.789 0.181,-0.678 7.171,-4.148 2.686,4.646 z"
         id="path35" />
      <path
         d="m 186.595,264.542 -5.774,-9.829 -0.14,0.562 -2.57,1.506 -0.562,-0.144 5.183,8.821 -3.38,1.983 -5.184,-8.825 -0.145,0.566 -5.605,3.293 -2.257,-3.851 15.989,-9.391 7.822,13.326 z"
         id="path36" />
      <path
         d="m 194.846,274.312 c -2.465,-2.826 -5.231,-2.481 -7.749,-0.285 -2.465,2.152 -3.1,4.766 -0.634,7.597 2.485,2.847 5.131,2.538 7.596,0.389 2.47,-2.152 3.257,-4.874 0.787,-7.701 m -11.363,9.882 c -4.228,-4.847 -3.521,-9.958 0.635,-13.584 4.103,-3.577 9.452,-3.75 13.68,1.097 4.256,4.882 3.364,10.126 -0.759,13.719 -4.156,3.626 -9.388,3.546 -13.556,-1.232"
         id="path37" />
      <path
         d="m 211.739,290.086 c -2.992,-2.272 -5.626,-1.373 -7.649,1.289 -1.98,2.606 -2.072,5.3 0.919,7.569 3.007,2.284 5.537,1.449 7.521,-1.157 1.979,-2.605 2.2,-5.428 -0.791,-7.701 m -9.131,11.978 c -5.124,-3.891 -5.465,-9.039 -2.128,-13.431 3.296,-4.337 8.5,-5.585 13.624,-1.695 5.155,3.919 5.344,9.235 2.035,13.592 -3.34,4.392 -8.48,5.372 -13.531,1.534"
         id="path38" />
      <path
         d="m 237.296,305.261 -5.939,-2.959 v 0.47 l -6.34,12.72 -3.995,-1.992 6.34,-12.72 0.389,-0.265 -5.942,-2.963 1.747,-3.501 15.466,7.709 -1.746,3.501 z"
         id="path39" />
      <path
         d="m 250.538,309.378 -5.156,-1.449 0.286,0.506 -0.695,2.469 -0.506,0.285 5.152,1.45 c 2.051,0.578 2.617,-0.169 2.846,-0.984 0.241,-0.859 0,-1.731 -1.927,-2.277 m -1.457,6.698 -5.574,-1.57 0.305,0.518 -0.823,2.927 -0.51,0.285 5.574,1.57 c 2.336,0.658 2.975,-0.089 3.252,-1.08 0.261,-0.928 0,-2.024 -2.224,-2.65 m -2.088,7.496 -9.472,-2.666 5.023,-17.844 9.275,2.61 c 4.272,1.205 5.838,4.26 5.039,7.103 -0.373,1.321 -1.313,2.461 -2.586,2.839 1.221,0.911 1.915,2.489 1.365,4.449 -0.979,3.481 -4.284,4.738 -8.644,3.509"
         id="path40" />
      <path
         d="m 272.55,319.769 -0.422,-0.45 -1.176,-2.991 -0.53,-1.924 -0.84,1.811 -1.63,2.759 -0.514,0.373 z m 7.833,8.572 -4.858,-0.401 -1.654,-4.156 0.309,-0.39 -8.966,-0.738 0.241,0.429 -2.269,3.835 -4.907,-0.406 10.721,-17.719 3.767,0.314 z"
         id="path41" />
      <path
         d="m 299.729,326.626 -14.776,1.317 -1.642,-18.47 4.444,-0.397 1.261,14.161 -0.349,0.446 10.713,-0.956 z"
         id="path42" />
      <path
         d="m 319.777,321.832 -14.366,3.678 -4.602,-17.96 4.325,-1.104 3.525,13.768 -0.273,0.494 10.419,-2.666 z"
         id="path43" />
      <path
         d="m 347.611,305.031 c -0.643,2.847 -2.562,5.453 -5.417,7.003 -5.854,3.18 -10.825,1.453 -13.471,-3.413 -2.63,-4.847 -1.345,-10.155 4.425,-13.29 3.08,-1.671 5.959,-1.88 8.761,-0.747 l -1.204,4.015 c -1.719,-0.916 -3.787,-0.835 -5.658,0.181 -3.537,1.923 -3.903,4.802 -2.341,7.676 1.53,2.815 4.007,4.076 7.629,2.108 1.831,-0.991 3.152,-2.778 3.369,-4.641 z"
         id="path44" />
      <path
         d="m 366.322,294.68 -11.58,9.275 -11.592,-14.471 3.485,-2.794 8.89,11.097 -0.048,0.563 8.4,-6.726 z"
         id="path45" />
      <path
         d="m 375.417,272.155 c 4.135,3.65 4.669,7.991 0.642,12.56 -4.027,4.565 -8.384,4.629 -12.556,0.951 l -7.484,-6.6 2.955,-3.349 7.464,6.585 c 2.474,2.18 4.445,2.333 6.67,-0.189 2.18,-2.473 1.811,-4.445 -0.659,-6.625 l -7.468,-6.585 2.951,-3.344 z"
         id="path46" />
      <path
         d="m 384.852,258.551 -2.899,5.015 0.575,-0.172 2.634,1.525 0.152,0.562 2.899,-5.014 c 1.213,-2.1 0.647,-2.903 -0.245,-3.417 -0.831,-0.482 -1.959,-0.498 -3.116,1.501 m -6.131,-3.067 -2.682,4.633 0.566,-0.148 2.217,1.285 0.152,0.562 2.678,-4.638 c 1.068,-1.843 0.486,-2.574 -0.245,-2.999 -0.775,-0.446 -1.678,-0.442 -2.686,1.305 m 12.881,6.942 -4.931,8.52 -16.045,-9.279 4.823,-8.343 c 2.22,-3.843 5.569,-4.602 8.127,-3.124 1.188,0.686 2.059,1.879 2.112,3.204 1.184,-0.956 2.887,-1.241 4.649,-0.221 3.128,1.811 3.534,5.32 1.265,9.243"
         id="path47" />
    </g>
  </g>
</svg>
