<?xml version="1.0" encoding="UTF-8"?>
<!DOCTYPE svg PUBLIC "-//W3C//DTD SVG 1.1//EN" "http://www.w3.org/Graphics/SVG/1.1/DTD/svg11.dtd">
<!-- Creator: CorelDRAW 2019 (64-Bit) -->
<svg xmlns="http://www.w3.org/2000/svg" xml:space="preserve" width="186.425mm" height="186.425mm" version="1.1" style="shape-rendering:geometricPrecision; text-rendering:geometricPrecision; image-rendering:optimizeQuality; fill-rule:evenodd; clip-rule:evenodd"
viewBox="0 0 186.4248 186.4249"
 xmlns:xlink="http://www.w3.org/1999/xlink"
 xmlns:xodm="http://www.corel.com/coreldraw/odm/2003">
 <defs>
  <style type="text/css">
   <![CDATA[
    .fil2 {fill:#C3A34E}
    .fil1 {fill:white}
    .fil3 {fill:url(#id0)}
    .fil0 {fill:url(#id1)}
   ]]>
  </style>
  <linearGradient id="id0" gradientUnits="userSpaceOnUse" x1="73.4449" y1="60.5735" x2="122.6959" y2="132.8823">
   <stop offset="0" style="stop-opacity:1; stop-color:#DE4944"/>
   <stop offset="0.2" style="stop-opacity:1; stop-color:#DF5348"/>
   <stop offset="0.34902" style="stop-opacity:1; stop-color:#DE3E39"/>
   <stop offset="0.490196" style="stop-opacity:1; stop-color:#CD2C2D"/>
   <stop offset="0.74902" style="stop-opacity:1; stop-color:#AF2825"/>
   <stop offset="1" style="stop-opacity:1; stop-color:#8E241F"/>
  </linearGradient>
  <radialGradient id="id1" gradientUnits="userSpaceOnUse" gradientTransform="matrix(1.45568 1.44466 -1.30323 1.31317 37 -90)" cx="52.1989" cy="46.6063" r="72.7057" fx="52.1989" fy="46.6063">
   <stop offset="0" style="stop-opacity:1; stop-color:#1F78B8"/>
   <stop offset="0.101961" style="stop-opacity:1; stop-color:#4188C5"/>
   <stop offset="0.219608" style="stop-opacity:1; stop-color:#1774B5"/>
   <stop offset="0.541176" style="stop-opacity:1; stop-color:#104883"/>
   <stop offset="0.780392" style="stop-opacity:1; stop-color:#144174"/>
   <stop offset="1" style="stop-opacity:1; stop-color:#1D2C48"/>
  </radialGradient>
 </defs>
 <g id="Layer_x0020_1">
  <metadata id="CorelCorpID_0Corel-Layer"/>
  <g id="_721812064">
   <path class="fil0" d="M93.2124 0c-51.4008,0 -93.2124,41.8174 -93.2124,93.209 0,51.3982 41.8116,93.2159 93.2124,93.2159 51.4014,0 93.2124,-41.8177 93.2124,-93.2159 0,-51.3916 -41.811,-93.209 -93.2124,-93.209z"/>
   <path class="fil1" d="M124.7308 22.5005c-1.3544,-0.6072 -2.7158,-1.1626 -4.1065,-1.6947l-8.2202 19.7688c1.3905,0.5179 2.7596,1.0888 4.0986,1.7102l8.2281 -19.7843z"/>
   <path class="fil1" d="M92.8013 19.7222l7.9607 0c1.946,0 3.5294,1.5833 3.5294,3.5369 0,1.9458 -1.5834,3.5291 -3.5294,3.5291l-7.9607 0 0 -7.066zm0 10.8541l0 0 5.4231 0 4.6764 7.3987c1.8569,0.3327 3.677,0.7613 5.4601,1.2726l-5.6083 -8.938c3.2188,-0.8583 5.8673,-3.6923 5.8673,-7.0505 0,-4.0405 -3.8253,-7.3249 -7.8579,-7.3249l-12.2895 0 0 21.3003c1.428,-0.1113 2.8637,-0.1774 4.3212,-0.1774l0.0076 0 0 -6.4808z"/>
   <path class="fil1" d="M41.2159 40.6989l5.8307 -6.3993c1.317,-1.4422 3.5588,-1.5458 4.994,-0.2291 1.4428,1.3101 1.5464,3.5511 0.2296,4.9868l-5.8304 6.4071 -5.2239 -4.7655zm12.8743 11.728l0 0 -4.8539 -4.4173 6.0084 -6.6142c2.7229,-2.9828 2.7229,-7.7768 -0.2664,-10.4993 -2.9818,-2.7226 -7.8355,-2.3446 -10.5584,0.6369l-8.916 9.8171 15.538 14.1618c0.9694,-1.0732 1.9979,-2.0947 3.0483,-3.085z"/>
   <path class="fil1" d="M135.2435 34.4783c3.2029,-0.7548 9.0933,5.0982 10.2248,9.0636 0.9321,-0.7108 3.019,-2.241 3.019,-2.241 -2.4934,-7.088 -12.4075,-14.1761 -17.1135,-9.7368 -2.7971,2.641 -1.2144,6.7022 1.2272,9.2694l2.368 2.4948c2.4131,2.5374 4.5207,5.0671 2.5828,6.6724 -2.065,1.7102 -7.8507,-2.5737 -11.3282,-9.9284l-3.1077 2.3523c0.74,1.9316 2.42,4.7358 4.6689,7.1101 2.5534,2.6863 5.3342,4.4392 7.8289,4.9273 1.96,0.3858 3.9059,0.0893 5.1939,-1.1017 3.2107,-2.9815 2.0416,-7.3172 -3.0047,-12.6303l-2.0857 -2.197c-2.3238,-2.4494 -1.3775,-3.8398 -0.4737,-4.0547z"/>
   <g>
    <path class="fil1" d="M68.5308 24.2029l6.023 6.9107c-2.1826,0.6369 -4.3137,1.3904 -6.3927,2.2422l0.3697 -9.1529zm0.9178 -4.7124l0 0c-1.5241,0.4816 -3.0268,1.0136 -4.5063,1.5975l-1.6058 24.2677c1.4429,-0.8804 2.9232,-1.6934 4.4397,-2.4482l0.2292 -5.6523c2.923,-1.2946 5.9784,-2.3601 9.123,-3.1899l3.729 4.2774c1.6426,-0.356 3.3074,-0.637 4.9944,-0.8441l-16.4032 -18.0081z"/>
   </g>
   <path class="fil1" d="M43.1922 144.5951l0.9355 0.8804 2.7638 -1.3472 2.7794 2.4213 -0.8866 2.9872 1.0468 0.8087 2.5138 -8.8327 -0.9942 -0.8658 -8.1585 3.9481zm4.8755 -1.021l0 0 2.8188 -1.37 -0.8617 3.0727 -1.9571 -1.7027z"/>
   <polygon class="fil1" points="52.3394,152.1852 53.3214,152.8473 57.8983,145.7349 56.9141,145.074 "/>
   <polygon class="fil1" points="56.6283,154.9601 57.6388,155.5615 60.5725,149.8499 60.5907,149.8591 62.0172,157.8927 63.05,158.3741 66.8437,150.9549 65.803,150.3936 62.9178,156.0257 62.8988,156.016 61.4832,148.0729 60.4425,147.5115 "/>
   <polygon class="fil1" points="68.6977,153.0744 71.4016,154.0407 69.0805,160.8698 70.19,161.2684 72.5131,154.4346 75.2178,155.4006 75.6057,154.2627 69.0834,151.936 "/>
   <path class="fil1" d="M89.186 160.7965c-0.0456,2.8447 2.2039,4.4108 4.3818,4.4487 2.0476,0.0339 3.6736,-0.9447 3.6983,-2.4476l0.0359 -2.2231 -3.7453 -0.0611 -0.0187 1.205 2.5684 0.0425 -0.0164 0.9356c-0.0094,0.7145 -1.0322,1.3679 -2.4479,1.3447 -2.0682,-0.037 -3.3086,-1.5283 -3.2819,-3.1693 0.0273,-1.7507 1.3027,-3.1804 3.4698,-3.144 1.4811,0.0258 2.099,0.8051 2.4945,1.2111l0.8313 -0.8434c-0.4707,-0.478 -1.4792,-1.5435 -3.4277,-1.5748 -0.0292,0 -0.0581,-0.0005 -0.0873,-0.0005 -2.5679,0.0005 -4.4189,1.9156 -4.4548,4.2762z"/>
   <polygon class="fil1" points="99.6631,156.4237 100.8228,164.7087 107.6458,163.7059 107.4809,162.5129 101.8206,163.3468 101.4665,160.8158 104.2161,160.4132 104.0498,159.2167 101.2987,159.6228 100.9936,157.4456 106.4503,156.6452 106.282,155.4512 "/>
   <path class="fil1" d="M113.7022 153.3418l-4.6065 1.4201 2.3525 8.014 1.1267 -0.3287 -0.9846 -3.3626 2.9085 -0.898 2.5385 2.8521 1.233 -0.4536 -2.5528 -2.8188c0.6418,-0.2569 1.6183,-1.153 1.1081,-2.8937 -0.3592,-1.2172 -1.2215,-1.6844 -2.1554,-1.6844 -0.3198,0 -0.6484,0.0545 -0.968,0.1536zm-3.144 2.2282l0 0 3.4818 -1.0746c0.6495,-0.1988 1.3917,-0.1847 1.6587,0.7247 0.227,0.7808 -0.1189,1.3765 -0.9638,1.6369l-3.4822 1.0752 -0.6945 -2.3622z"/>
   <path class="fil1" d="M130.3057 144.6507l1.7231 9.0042 1.0487 -0.6853 -0.5747 -3.0307 2.9724 -2.1679 2.5284 1.5859 1.0227 -0.837 -7.6576 -4.6424 -1.063 0.7732zm1.3595 0.8446l0 0 2.6953 1.6101 -2.096 1.5278 -0.5993 -3.1379z"/>
   <polygon class="fil1" points="135.6189,140.5328 141.178,146.6604 142.0557,145.8604 136.4785,139.713 "/>
   <polygon class="fil1" points="142.9814,132.7179 147.5966,136.9715 147.5812,136.9867 139.7176,136.433 138.9304,137.3291 145.0216,142.9475 145.8476,142.0847 141.174,137.7776 141.1896,137.7594 149.1346,138.3166 149.8389,137.4191 143.7671,131.8204 "/>
   <polygon class="fil1" points="124.8344,148.2291 124.6579,154.1616 119.8674,150.8259 118.8145,151.3736 122.3877,158.9042 123.4549,158.4147 120.9819,153.0627 121.0016,153.0516 125.7468,156.3478 125.9283,150.477 125.9501,150.4664 128.7284,155.6697 129.7491,155.0825 125.8818,147.6814 "/>
   <path class="fil1" d="M40.5047 132.2072c-0.3842,0.2923 -0.6144,0.6837 -0.6811,1.1611 -0.1063,0.7485 0.1881,1.6906 0.791,2.5164l0.8703 1.192c0.674,0.9218 1.3239,1.8883 1.189,2.6489 -0.0526,0.3069 -0.2226,0.5542 -0.5018,0.7388 -0.1537,0.1007 -0.3303,0.1517 -0.5263,0.1517 -1.1814,0 -3.1822,-2.1578 -4.1651,-5.2503l-0.0182 -0.0566 -0.8597 0.8269 -0.0166 0.0172 0.0055 0.0197c0.1921,0.7737 0.7049,2.0228 1.5697,3.2087 0.9076,1.2431 1.9434,2.1033 2.9143,2.4234 0.3136,0.1032 0.6205,0.1568 0.9144,0.1568 0.4252,0 0.8025,-0.1122 1.0892,-0.3282 0.4734,-0.3536 0.753,-0.8046 0.8304,-1.3386 0.1457,-0.9872 -0.3671,-2.291 -1.5206,-3.8703l-0.7682 -1.0543c-0.614,-0.8406 -0.5876,-1.3888 -0.4566,-1.6983 0.1143,-0.2725 0.3595,-0.4606 0.6382,-0.4956 0.0424,-0.0035 0.0869,-0.005 0.133,-0.005 1.4013,0 3.3873,2.3828 3.903,4.2302l0.0127 0.0476 0.04 -0.0258c0.2916,-0.1714 0.6301,-0.3696 0.8373,-0.4905l0.0259 -0.0157 -0.0076 -0.0263c-0.6669,-2.5544 -3.1961,-5.0606 -5.1058,-5.0606 -0.4267,0 -0.8091,0.1274 -1.1363,0.3767z"/>
   <polygon class="fil1" points="79.7349,160.2094 82.6457,160.8653 82.9081,159.6754 80.0017,159.0048 "/>
   <path class="fil1" d="M93.2124 6.6647c-22.9541,0 -44.9678,9.118 -61.1991,25.3486 -16.2307,16.2319 -25.3491,38.245 -25.3491,61.1992 0,22.9541 9.1184,44.9677 25.3491,61.199 16.2313,16.2307 38.245,25.3491 61.1991,25.3491 22.9541,0 44.9673,-9.1184 61.1991,-25.3491 16.2306,-16.2313 25.3486,-38.2449 25.3486,-61.199 0,-22.9542 -9.118,-44.9673 -25.3486,-61.1992 -16.2318,-16.2306 -38.245,-25.3486 -61.1991,-25.3486zm0 3.4256l0 0c22.0454,0 43.1885,8.758 58.7769,24.3453 15.5873,15.5884 24.3453,36.7315 24.3453,58.7769 0,22.0453 -8.758,43.1881 -24.3453,58.7766 -15.5884,15.588 -36.7315,24.3458 -58.7769,24.3458 -22.0453,0 -43.1881,-8.7578 -58.7766,-24.3458 -15.5881,-15.5885 -24.3458,-36.7313 -24.3458,-58.7766 0,-22.0454 8.7577,-43.1885 24.3458,-58.7769 15.5885,-15.5873 36.7313,-24.3453 58.7766,-24.3453z"/>
   <path class="fil2" d="M95.0258 133.1989l-1.694 -1.9682 -1.6946 1.9682 -0.0664 0.1846c0.333,0.6736 0.91,1.502 1.6056,2.0643l0.1554 0.0814 0.1552 -0.0814c0.7029,-0.5623 1.2728,-1.3907 1.6131,-2.0643l-0.0743 -0.1846z"/>
   <path class="fil2" d="M96.6502 122.5122c0,-1.9459 -2.5452,-8.0129 -3.3149,-8.0129l-0.1922 0.0814c-0.925,0.7545 -3.1227,6.1185 -3.1227,7.9315 0,1.45 2.9301,5.275 2.9301,7.3541l0.3848 0.3849 0.3848 -0.3849 0 -0.0147c0.0146,-2.079 2.9301,-5.8894 2.9301,-7.3394z"/>
   <path class="fil2" d="M91.6802 129.6853c-1.3762,-3.6255 -3.7439,-5.6084 -6.2152,-5.6084 -1.8571,0 -3.3736,1.5095 -3.3736,3.3741 0,1.864 1.814,3.0636 3.3736,3.3736 0.5057,0.1007 1.0857,-0.2068 1.4281,-0.5917 0.2776,-0.3125 0.5604,-0.8511 0.3403,-1.2061 -0.0762,-0.1238 -0.3004,-0.0137 -0.4293,-0.0814 -0.4713,-0.2493 -1.1328,-0.5982 -1.1317,-1.1323 0.0004,-0.5315 0.6007,-1.0974 1.1317,-1.1242 1.7654,-0.09 3.0636,1.0651 4.1215,3.3366l0 0.0148 0.0072 0.0146 0.3778 0.222 0.414 -0.4217 -0.0444 -0.1699z"/>
   <path class="fil2" d="M101.0903 124.0769c-2.4638,0 -4.839,1.9829 -6.2152,5.6084l-0.0369 0.1699 0.4143 0.4292 0.3701 -0.2295 0.0071 -0.0146 0.0074 -0.0077c1.0505,-2.2786 2.3548,-3.4357 4.1211,-3.3442 0.5295,0.0278 1.1238,0.5947 1.1247,1.1247 0.0005,0.532 -0.6544,0.8835 -1.1247,1.1323 -0.1309,0.0693 -0.3584,-0.0445 -0.4364,0.0814 -0.2211,0.3575 0.0673,0.8997 0.3479,1.2132 0.3415,0.3818 0.9185,0.6853 1.4206,0.5846 1.5596,-0.312 3.3735,-1.5096 3.3735,-3.3741 0,-1.8641 -1.509,-3.3736 -3.3735,-3.3736z"/>
   <path class="fil1" d="M93.2128 42.1722c-13.5367,0 -26.5188,5.3778 -36.0907,14.9493 -9.5723,9.572 -14.9495,22.5542 -14.9495,36.091 0,13.5367 5.3772,26.5189 14.9495,36.0909 9.5719,9.5716 22.554,14.9493 36.0907,14.9488 13.5363,0 26.5186,-5.3772 36.0906,-14.9494 9.5714,-9.5714 14.9493,-22.5536 14.9493,-36.0903 0,-13.5368 -5.3779,-26.519 -14.9493,-36.0904 -9.572,-9.5721 -22.5543,-14.9499 -36.0906,-14.9499zm-6.7496 3.9084l0 0c-2.1821,30.3433 -14.8786,52.7993 -35.7169,68.4591 -3.3528,-6.6117 -5.115,-13.9146 -5.1475,-21.3272 0.0005,-11.4584 4.1333,-22.5324 11.6395,-31.1897 7.5061,-8.6574 17.8824,-14.3174 29.2249,-15.9422zm13.4984 0l0 0c11.3425,1.6248 21.7191,7.2848 29.2254,15.9422 7.5063,8.6573 11.6389,19.7313 11.6401,31.1897 -0.0324,7.4132 -1.7957,14.7161 -5.1487,21.3277 -20.8383,-15.6598 -33.5347,-38.1158 -35.7168,-68.4596zm-6.7527 62.3102l0 0c11.1205,0 20.1404,8.6588 20.1404,19.3364 0,2.9861 -0.7105,6.5625 -1.9714,9.399 -5.7539,2.4118 -11.9261,3.669 -18.1651,3.7003 -6.2407,-0.0313 -12.4146,-1.289 -18.1706,-3.7022 -1.2606,-2.8361 -1.9733,-6.411 -1.9733,-9.3971 0,-10.6776 9.0194,-19.3364 20.14,-19.3364z"/>
   <path class="fil3" d="M93.2128 45.5978c-1.4578,0.0284 -2.9138,0.1242 -4.3626,0.2861 -0.3601,17.9291 -4.7603,33.4256 -12.1705,46.4264l33.0804 0c-7.4101,-13.0008 -11.8097,-28.4968 -12.1703,-46.4252 -1.4539,-0.1631 -2.9144,-0.2589 -4.377,-0.2873zm-17.6173 48.5694l0 0c-5.7687,9.5696 -13.4544,18.0012 -22.1374,25.067 3.7902,5.8005 8.8013,10.7039 14.6828,14.3677 -0.2125,-1.2299 -0.3293,-2.4866 -0.3293,-3.773 0,-13.1181 11.3725,-23.7502 25.4083,-23.7502 14.036,0 25.4084,10.6321 25.4084,23.7502 0,1.2824 -0.1162,2.5361 -0.3271,3.7624 5.8769,-3.6643 10.8838,-8.5666 14.6715,-14.3647 -8.6789,-7.0648 -16.3617,-15.4934 -22.1282,-25.0594l-35.249 0z"/>
  </g>
 </g>
</svg>
