<?xml version="1.0" encoding="UTF-8" standalone="no"?>
<svg
   clip-rule="evenodd"
   fill-rule="evenodd"
   stroke-linejoin="round"
   stroke-miterlimit="2"
   viewBox="0 0 300 300"
   version="1.1"
   id="svg6"
   sodipodi:docname="QPR.svg"
   width="300"
   height="300"
   xmlns:inkscape="http://www.inkscape.org/namespaces/inkscape"
   xmlns:sodipodi="http://sodipodi.sourceforge.net/DTD/sodipodi-0.dtd"
   xmlns="http://www.w3.org/2000/svg"
   xmlns:svg="http://www.w3.org/2000/svg">
  <defs
     id="defs6" />
  <sodipodi:namedview
     id="namedview6"
     pagecolor="#ffffff"
     bordercolor="#000000"
     borderopacity="0.25"
     inkscape:showpageshadow="2"
     inkscape:pageopacity="0.0"
     inkscape:pagecheckerboard="0"
     inkscape:deskcolor="#d1d1d1" />
  <g
     fill-rule="nonzero"
     id="g6"
     transform="translate(-130,-50)">
    <path
       d="M 430,199.998 C 430,282.287 362.287,350 279.998,350 197.711,349.998 130,282.285 130,199.998 130.002,117.711 197.715,50 280.002,50 362.288,50.002 429.998,117.712 430,199.998 Z"
       fill="#ffffff"
       id="path1" />
    <g
       fill="#1d5ba4"
       id="g5">
      <path
         d="m 279.998,55.469 c -38.606,0 -74.898,15.037 -102.199,42.332 -27.293,27.3 -42.331,63.592 -42.331,102.199 0,38.606 15.036,74.898 42.331,102.199 27.3,27.299 63.593,42.331 102.199,42.331 38.607,0 74.899,-15.032 102.199,-42.331 27.295,-27.3 42.332,-63.593 42.332,-102.199 0,-38.607 -15.037,-74.899 -42.332,-102.199 -27.3,-27.294 -63.592,-42.332 -102.199,-42.332 z m 0,6.098 c 76.335,0 138.431,62.097 138.431,138.431 0,76.334 -62.096,138.438 -138.431,138.438 -76.334,0 -138.431,-62.104 -138.431,-138.438 0,-76.334 62.097,-138.431 138.431,-138.431 z"
         id="path2" />
      <path
         d="m 299.686,156.46 v -4.497 h -14.168 c 0,0 3.537,4.003 3.537,11.592 v 39.531 c -1.583,0.255 -3.202,0.392 -4.86,0.392 -0.388,0 -0.771,-0.018 -1.159,-0.026 0.538,-2.831 0.846,-5.883 0.846,-9.186 0,-17.598 -8.374,-28.269 -15.402,-34.125 -2.769,-2.306 -5.838,-4.29 -9.097,-5.922 l 0.009,-10.393 c 3.894,-3.806 11.712,-9.437 24.076,-9.437 11.826,0 22.515,6.65 27.798,17.48 -4.273,1.106 -8.048,2.711 -11.58,4.59 m 84.762,97.507 c -0.609,-0.243 -1.252,-0.366 -1.914,-0.375 -0.776,-0.009 -1.446,0.168 -1.446,0.168 0,0 0.357,0.26 0.476,0.348 0.988,0.723 4.096,3.612 2.491,10.442 -1.058,4.484 -6.821,12.814 -21.275,12.854 h -0.005 c -0.899,-0.005 -1.834,-0.044 -2.778,-0.119 -2.844,-0.216 -5.661,-0.851 -8.444,-1.751 0.683,-0.644 1.358,-1.296 2.024,-1.962 1.997,-1.998 3.902,-4.066 5.715,-6.195 -1.888,-0.124 -3.761,-0.552 -5.574,-1.173 -2.306,2.566 -4.745,5.009 -7.306,7.324 -5.129,-2.324 -10.804,-5.777 -16.276,-9.3 -2.192,-1.415 -5.913,-3.907 -7.893,-5.154 -6.928,-4.366 -13.881,-8.453 -22.502,-11.483 v -14.401 c 13.832,3.241 27.114,12.875 33.345,17.347 0.771,0.551 1.609,1.177 2.504,1.843 5.86,4.37 16.761,12.188 27.679,12.188 14.093,0 14.719,-9.159 14.648,-9.705 0,0 -0.256,0.304 -0.516,0.56 -0.793,0.767 -2.835,2.575 -7.721,2.407 -0.877,-0.03 -1.839,-0.163 -2.844,-0.463 11.2,-16.871 17.215,-36.655 17.215,-57.366 0,-57.373 -46.674,-104.047 -104.048,-104.047 -57.373,0 -104.047,46.674 -104.047,104.047 0,57.373 46.674,104.047 104.047,104.047 21.85,0 42.671,-6.689 60.125,-19.102 -1.918,-0.626 -3.766,-1.376 -5.565,-2.222 -15.658,10.362 -34.416,16.408 -54.558,16.408 -54.66,0 -99.13,-44.47 -99.13,-99.13 0,-54.661 44.47,-99.13 99.13,-99.13 54.661,0 99.13,44.469 99.13,99.13 0,20.57 -6.306,39.689 -17.074,55.546 -3.902,-1.804 -8.832,-4.815 -14.035,-8.008 -0.874,-0.538 -1.786,-1.12 -2.69,-1.702 -7.691,-4.992 -13.352,-8.021 -17.872,-9.573 -0.467,-0.159 -1.623,-0.49 -2.218,-0.582 v -0.349 c 24.05,-0.423 43.034,-18.679 43.034,-43.263 0,-24.795 -19.261,-41.823 -43.715,-41.823 -0.582,0 -1.151,0.013 -1.715,0.026 -6.83,-14.101 -21.593,-22.859 -39.277,-22.859 -9.216,0 -17.422,2.32 -24.217,5.781 v -4.325 h -14.172 c 0,0 3.497,3.197 3.497,10.786 l -0.009,10.666 c -3.642,-0.868 -7.382,-1.336 -11.103,-1.336 -11.253,0 -22.538,4.07 -30.951,11.161 -6.914,5.825 -15.155,16.474 -15.155,34.121 0,17.506 8.501,28.137 15.636,33.975 5.829,4.771 13.118,8.211 20.636,9.882 1.041,-1.905 1.954,-3.982 2.373,-5.719 -1.213,-0.252 -2.174,-0.573 -3.224,-0.944 -3.999,-1.578 -6.358,-4.564 -6.358,-8.131 0,-5.252 3.792,-7.122 6.354,-7.122 3.602,0 7.368,2.417 7.514,9.454 0.392,18.556 -19.984,31.282 -21.823,32.398 1.821,2.107 3.739,4.131 5.746,6.063 0.485,-0.256 1.208,-0.644 1.697,-0.909 6.928,-3.783 23.04,-12.875 46.255,-12.725 7.28,0.048 13.815,1.093 19.693,2.703 v -9.018 c -4.176,-0.635 -8.735,-1.005 -13.78,-1.036 -19.464,-0.123 -35.449,5.737 -45.263,10.808 l -0.128,-0.19 c 2.567,-2.323 7.624,-7.774 11.073,-14.494 1.168,0 2.548,-0.057 3.73,-0.154 0.45,-0.41 0.909,-0.935 1.314,-1.473 0.56,-0.754 1.782,-2.637 2.223,-5.15 -1.557,0.352 -3.158,0.599 -4.798,0.718 0.635,-2.121 1.041,-4.303 1.107,-6.504 0.167,-5.781 -1.292,-10.636 -4.229,-13.656 -2.513,-2.588 -6.019,-3.955 -10.129,-3.955 -5.366,0 -12.104,3.607 -12.545,11.584 -0.039,0.719 0.093,2.319 0.366,2.989 l -0.255,0.133 c -7.188,-7.087 -11.593,-17.603 -11.593,-29.742 0,-22.083 14.944,-38.734 34.765,-38.734 19.966,0 34.465,16.289 34.465,38.734 0,2.553 -0.199,5.035 -0.569,7.429 -4.771,-1.609 -8.881,-4.078 -12.307,-7.019 v -26.542 c -3.021,-3.205 -6.632,-5.666 -10.715,-7.236 v 67.974 c 0,6.883 -3.51,10.923 -3.51,10.927 h 17.197 c 0,0 -1.574,-1.962 -2.452,-5.865 3.003,-1.547 5.838,-3.377 8.392,-5.476 3.99,-3.285 8.409,-8.083 11.517,-14.763 -3.752,-0.221 -7.443,-0.768 -11.045,-1.649 -2.236,5.26 -5.459,9.793 -9.437,13.316 v -20.05 c 6.87,3.131 14.953,5.212 24.217,5.212 7.598,0 12.391,-1.415 16.214,-2.778 15.5,-5.516 27.136,-20.147 27.136,-38.871 0,-2.628 -0.22,-5.159 -0.635,-7.598 -3.752,-0.229 -9.334,0.547 -11.778,1.323 0.314,2.046 0.481,4.176 0.481,6.381 0,13.661 -6.072,24.535 -15.204,30.267 v -32.511 c 6.989,-5.45 13.683,-9.018 25.139,-9.018 17.4,0 31.228,14.164 31.228,34.787 0,20.685 -14.111,35.982 -32.684,35.982 -9.379,0 -16.641,-2.527 -23.683,-6.764 v -10.526 c -3.413,1.142 -6.994,1.918 -10.676,2.31 V 253.2 c 0,6.883 -3.536,10.927 -3.536,10.927 h 17.612 c 0,0 -2.038,-2.077 -2.783,-5.472 4.617,2.033 10.57,5.71 14.583,8.307 1.825,1.178 3.435,2.306 4.987,3.307 11.95,7.739 22.89,14.596 38.945,14.596 10.574,0 17.281,-3.32 21.501,-6.447 4.881,-3.616 7.734,-8.585 8.418,-13.003 1.349,-8.718 -3.418,-11.059 -4.388,-11.447"
         id="path3" />
      <path
         d="m 286.362,313.052 c 0.309,-0.697 0.895,-1.076 1.759,-1.134 0.75,-0.053 1.323,0.238 1.72,0.865 0.401,0.63 0.635,1.472 0.71,2.526 0.075,1.151 -0.079,2.06 -0.467,2.734 -0.388,0.67 -0.926,1.032 -1.619,1.076 -0.555,0.04 -1.08,-0.207 -1.578,-0.745 -0.503,-0.534 -0.789,-1.358 -0.864,-2.469 -0.084,-1.209 0.03,-2.161 0.339,-2.853 m 4.529,15.08 c -0.459,0.772 -1.014,1.182 -1.667,1.226 -0.75,0.053 -1.38,-0.287 -1.892,-1.01 -0.511,-0.727 -0.82,-1.847 -0.921,-3.364 -0.11,-1.632 0.035,-2.805 0.436,-3.528 0.406,-0.719 0.97,-1.107 1.702,-1.155 0.746,-0.053 1.385,0.26 1.914,0.939 0.525,0.675 0.842,1.79 0.948,3.347 0.11,1.592 -0.066,2.774 -0.52,3.545 m 4.268,-6.041 c -0.278,-0.551 -0.617,-1.014 -1.018,-1.393 -0.402,-0.375 -0.847,-0.666 -1.332,-0.878 -0.489,-0.207 -0.952,-0.335 -1.402,-0.379 l -0.013,-0.203 c 0.436,-0.123 0.846,-0.317 1.234,-0.573 0.388,-0.26 0.719,-0.573 0.993,-0.948 0.269,-0.379 0.476,-0.811 0.617,-1.301 0.141,-0.489 0.189,-1.045 0.145,-1.658 -0.039,-0.595 -0.202,-1.151 -0.489,-1.671 -0.287,-0.52 -0.697,-0.966 -1.23,-1.332 -0.538,-0.37 -1.204,-0.648 -1.993,-0.833 -0.794,-0.19 -1.711,-0.247 -2.743,-0.177 -0.887,0.062 -1.689,0.217 -2.412,0.468 -0.723,0.251 -1.345,0.6 -1.865,1.041 -0.521,0.436 -0.913,0.961 -1.182,1.565 -0.265,0.608 -0.375,1.283 -0.322,2.033 0.035,0.516 0.159,0.996 0.37,1.433 0.216,0.441 0.481,0.82 0.803,1.146 0.322,0.322 0.692,0.596 1.111,0.807 0.419,0.212 0.851,0.34 1.296,0.388 l 0.014,0.199 c -0.512,0.154 -0.997,0.383 -1.456,0.692 -0.463,0.313 -0.855,0.697 -1.181,1.151 -0.322,0.454 -0.578,0.988 -0.754,1.596 -0.186,0.613 -0.247,1.301 -0.194,2.068 0.066,0.939 0.291,1.755 0.67,2.439 0.388,0.688 0.891,1.248 1.517,1.675 0.626,0.428 1.353,0.723 2.187,0.878 0.829,0.154 1.72,0.198 2.681,0.132 0.979,-0.066 1.883,-0.242 2.712,-0.529 0.824,-0.287 1.525,-0.706 2.094,-1.257 0.569,-0.547 1.001,-1.212 1.297,-1.993 0.291,-0.78 0.405,-1.671 0.335,-2.668 -0.049,-0.732 -0.212,-1.371 -0.49,-1.918 m -48.498,-14.344 c -1.455,0.185 -2.98,0.331 -4.568,0.432 0.128,0.177 0.282,0.454 0.463,0.838 0.177,0.384 0.331,0.741 0.454,1.076 0.287,-0.035 0.613,-0.084 0.975,-0.15 0.357,-0.066 0.714,-0.137 1.063,-0.203 0.348,-0.07 0.674,-0.132 0.97,-0.185 0.295,-0.053 0.516,-0.093 0.661,-0.11 l -2.262,7.814 c -0.225,0.776 -0.463,1.534 -0.71,2.284 -0.247,0.749 -0.481,1.459 -0.705,2.125 -0.225,0.666 -0.433,1.27 -0.631,1.812 -0.198,0.543 -0.348,0.962 -0.454,1.253 0.379,0.066 0.749,0.154 1.111,0.26 0.362,0.106 0.723,0.207 1.094,0.317 0.37,0.106 0.732,0.212 1.08,0.313 0.353,0.102 0.705,0.225 1.063,0.366 0.339,-1.362 0.639,-2.566 0.912,-3.607 0.274,-1.04 0.552,-2.05 0.834,-3.033 l 0.608,-2.104 0.494,-1.689 c 0.203,-0.701 0.419,-1.419 0.653,-2.151 0.233,-0.732 0.467,-1.456 0.701,-2.17 0.238,-0.71 0.467,-1.402 0.692,-2.068 0.221,-0.666 0.432,-1.27 0.631,-1.812 l -0.463,-0.375 c -1.654,0.322 -3.21,0.578 -4.666,0.767 m 71.209,15.438 c -0.079,-0.318 -0.145,-0.622 -0.189,-0.922 -0.049,-0.295 -0.102,-0.604 -0.164,-0.926 -1.318,0.437 -2.619,0.829 -3.911,1.182 -1.288,0.348 -2.602,0.705 -3.938,1.067 l -0.044,-0.048 c 1.27,-1.795 2.289,-3.343 3.052,-4.653 0.767,-1.305 1.34,-2.451 1.715,-3.43 0.375,-0.979 0.586,-1.826 0.644,-2.545 0.053,-0.718 0,-1.384 -0.155,-2.002 -0.136,-0.538 -0.379,-1.067 -0.718,-1.587 -0.34,-0.516 -0.82,-0.948 -1.433,-1.296 -0.618,-0.349 -1.385,-0.565 -2.311,-0.644 -0.922,-0.084 -2.028,0.039 -3.312,0.37 -1.64,0.419 -2.848,1.094 -3.62,2.024 -0.776,0.935 -1.199,1.945 -1.278,3.038 0.449,0.203 0.89,0.402 1.318,0.6 0.423,0.198 0.869,0.428 1.336,0.688 l 0.256,-0.159 c -0.097,-0.37 -0.163,-0.798 -0.212,-1.283 -0.044,-0.485 -0.017,-0.966 0.084,-1.438 0.097,-0.467 0.278,-0.895 0.551,-1.269 0.269,-0.375 0.666,-0.631 1.186,-0.768 0.358,-0.088 0.719,-0.106 1.09,-0.053 0.37,0.053 0.732,0.203 1.084,0.45 0.349,0.251 0.671,0.609 0.957,1.08 0.291,0.472 0.534,1.09 0.728,1.852 0.233,0.913 0.33,1.861 0.282,2.849 -0.044,0.983 -0.26,2.05 -0.639,3.197 -0.38,1.151 -0.931,2.408 -1.654,3.77 -0.723,1.367 -1.636,2.889 -2.734,4.555 l 0.3,1.178 c 0.997,-0.296 1.997,-0.574 3.003,-0.829 1.005,-0.261 2.011,-0.516 3.016,-0.772 1.063,-0.274 2.103,-0.538 3.131,-0.803 1.023,-0.26 2.072,-0.511 3.139,-0.745 -0.083,-0.256 -0.176,-0.529 -0.282,-0.82 -0.106,-0.291 -0.198,-0.591 -0.278,-0.908 m -49.03,-7.986 c -0.137,1.146 -0.454,2.01 -0.961,2.601 -0.503,0.591 -1.103,0.843 -1.786,0.763 -0.556,-0.066 -1.028,-0.405 -1.42,-1.023 -0.393,-0.617 -0.525,-1.481 -0.393,-2.588 0.141,-1.204 0.428,-2.117 0.86,-2.743 0.432,-0.626 1.081,-0.891 1.94,-0.789 0.741,0.088 1.253,0.476 1.531,1.168 0.277,0.688 0.352,1.561 0.229,2.611 m -0.86,9.277 c -0.185,1.583 -0.578,2.717 -1.169,3.391 -0.59,0.675 -1.212,0.975 -1.86,0.895 -0.75,-0.083 -1.306,-0.533 -1.676,-1.34 -0.366,-0.811 -0.463,-1.967 -0.287,-3.475 0.194,-1.622 0.552,-2.751 1.081,-3.386 0.529,-0.635 1.159,-0.909 1.883,-0.825 0.745,0.088 1.314,0.512 1.71,1.274 0.393,0.763 0.499,1.919 0.318,3.466 m 3.594,-12.382 c -0.463,-0.463 -1.063,-0.855 -1.808,-1.186 -0.745,-0.33 -1.636,-0.555 -2.663,-0.679 -0.882,-0.101 -1.698,-0.097 -2.456,0.018 -0.759,0.114 -1.434,0.339 -2.024,0.674 -0.596,0.34 -1.076,0.781 -1.451,1.328 -0.375,0.547 -0.604,1.19 -0.692,1.936 -0.062,0.515 -0.027,1.009 0.101,1.477 0.128,0.472 0.322,0.895 0.578,1.274 0.255,0.379 0.568,0.71 0.943,0.997 0.371,0.286 0.772,0.494 1.204,0.621 l -0.026,0.199 c -0.525,0.053 -1.045,0.194 -1.557,0.414 -0.511,0.221 -0.966,0.525 -1.371,0.913 -0.406,0.388 -0.75,0.864 -1.041,1.429 -0.287,0.569 -0.476,1.23 -0.569,1.997 -0.11,0.935 -0.04,1.773 0.212,2.523 0.251,0.745 0.644,1.384 1.182,1.922 0.538,0.538 1.199,0.961 1.988,1.266 0.785,0.304 1.654,0.511 2.611,0.626 0.974,0.114 1.891,0.106 2.76,-0.022 0.869,-0.132 1.632,-0.415 2.293,-0.851 0.661,-0.432 1.208,-1.01 1.64,-1.72 0.433,-0.714 0.706,-1.57 0.825,-2.562 0.084,-0.723 0.04,-1.384 -0.132,-1.975 -0.172,-0.591 -0.419,-1.107 -0.746,-1.552 -0.326,-0.446 -0.709,-0.816 -1.146,-1.112 -0.441,-0.291 -0.877,-0.502 -1.305,-0.63 l 0.022,-0.203 c 0.45,-0.04 0.891,-0.154 1.318,-0.335 0.428,-0.185 0.812,-0.432 1.147,-0.754 0.339,-0.318 0.622,-0.706 0.851,-1.16 0.225,-0.458 0.379,-0.992 0.45,-1.605 0.07,-0.591 0.013,-1.168 -0.172,-1.733 -0.185,-0.564 -0.512,-1.076 -0.966,-1.534"
         id="path4" />
      <path
         d="m 207.227,98.103 c 0.595,0.921 1.261,1.561 1.997,1.918 0.737,0.361 1.5,0.569 2.293,0.626 0.794,0.062 1.601,0.026 2.412,-0.101 0.812,-0.124 1.579,-0.212 2.306,-0.256 0.728,-0.049 1.394,0.009 1.998,0.163 0.604,0.159 1.107,0.542 1.504,1.155 0.441,0.679 0.586,1.411 0.441,2.192 -0.146,0.78 -0.706,1.486 -1.672,2.112 -0.485,0.317 -0.965,0.529 -1.442,0.644 -0.476,0.114 -0.93,0.136 -1.358,0.075 -0.432,-0.066 -0.837,-0.199 -1.221,-0.397 -0.379,-0.199 -0.719,-0.454 -1.014,-0.772 l -0.459,0.3 c 0.274,0.6 0.507,1.173 0.701,1.711 0.19,0.542 0.384,1.151 0.591,1.817 0.529,0.044 1.2,-0.062 2.006,-0.322 0.807,-0.256 1.645,-0.67 2.514,-1.235 0.97,-0.626 1.764,-1.318 2.385,-2.077 0.622,-0.758 1.059,-1.556 1.314,-2.399 0.256,-0.842 0.318,-1.697 0.195,-2.566 -0.128,-0.864 -0.455,-1.702 -0.975,-2.509 -0.6,-0.921 -1.27,-1.556 -2.011,-1.909 -0.745,-0.357 -1.525,-0.56 -2.341,-0.618 -0.816,-0.052 -1.632,-0.017 -2.439,0.106 -0.815,0.124 -1.596,0.212 -2.341,0.26 -0.745,0.049 -1.424,0.005 -2.033,-0.141 -0.608,-0.145 -1.107,-0.516 -1.495,-1.111 -0.375,-0.582 -0.472,-1.239 -0.286,-1.98 0.185,-0.736 0.648,-1.349 1.393,-1.83 1.433,-0.93 2.862,-0.868 4.277,0.185 l 0.362,-0.238 c -0.185,-0.635 -0.335,-1.159 -0.454,-1.574 -0.119,-0.414 -0.23,-0.855 -0.322,-1.323 -0.71,-0.066 -1.46,0.005 -2.249,0.221 -0.789,0.216 -1.618,0.604 -2.491,1.168 -0.724,0.472 -1.341,1.028 -1.848,1.68 -0.507,0.649 -0.869,1.354 -1.089,2.113 -0.216,0.758 -0.265,1.56 -0.146,2.398 0.119,0.838 0.45,1.676 0.997,2.514 m -19.988,17.585 c 1.014,1.054 2.054,2.165 3.122,3.338 1.067,1.173 2.046,2.271 2.941,3.294 0.89,1.023 1.644,1.892 2.257,2.606 0.613,0.719 0.962,1.146 1.041,1.283 0.291,-0.335 0.595,-0.653 0.913,-0.961 0.15,-0.146 0.313,-0.3 0.476,-0.463 0.168,-0.159 0.344,-0.304 0.538,-0.437 -0.159,-0.141 -0.37,-0.33 -0.631,-0.573 -0.26,-0.242 -0.595,-0.556 -0.996,-0.944 -0.397,-0.388 -0.882,-0.868 -1.451,-1.442 -0.569,-0.577 -1.252,-1.278 -2.055,-2.107 l -2.324,-2.408 c -0.401,-0.414 -0.793,-0.824 -1.172,-1.23 -0.38,-0.41 -0.759,-0.82 -1.134,-1.235 6.442,0.274 12.691,0.697 18.745,1.261 0.208,-0.255 0.463,-0.529 0.768,-0.82 0.291,-0.282 0.586,-0.542 0.89,-0.78 l -2.403,-2.492 c -0.961,-0.992 -1.865,-1.931 -2.707,-2.817 -0.838,-0.887 -1.68,-1.791 -2.523,-2.717 -0.837,-0.926 -1.728,-1.918 -2.672,-2.972 -0.939,-1.058 -1.98,-2.249 -3.126,-3.571 -0.322,0.441 -0.6,0.776 -0.833,1.005 -0.239,0.225 -0.583,0.494 -1.037,0.798 0.163,0.11 0.45,0.357 0.856,0.736 0.41,0.384 0.882,0.847 1.424,1.394 0.542,0.547 1.133,1.142 1.773,1.795 0.639,0.648 1.292,1.314 1.944,1.988 l 1.945,2.015 1.742,1.804 c -3.166,-0.176 -6.266,-0.362 -9.3,-0.56 -3.034,-0.194 -6.116,-0.401 -9.238,-0.617 -0.322,0.445 -0.6,0.78 -0.833,1.005 -0.234,0.229 -0.583,0.494 -1.032,0.798 0.494,0.485 1.067,1.036 1.724,1.662 0.657,0.622 1.442,1.411 2.368,2.364 m 71.843,-45.157 c -0.185,0.07 -0.356,0.135 -0.523,0.193 -0.163,0.057 -0.346,0.1 -0.531,0.131 -0.194,0.035 -0.375,0.055 -0.551,0.055 -0.172,0 -0.364,-0.003 -0.558,-0.007 -0.234,1.151 -0.488,2.394 -0.779,3.734 -0.286,1.336 -0.579,2.689 -0.875,4.065 -0.304,1.38 -0.605,2.743 -0.909,4.093 -0.309,1.349 -0.592,2.616 -0.861,3.789 -0.265,1.177 -0.508,2.235 -0.737,3.169 -0.23,0.94 -0.42,1.672 -0.565,2.205 0.26,-0.084 0.507,-0.146 0.737,-0.186 0.225,-0.04 0.45,-0.075 0.675,-0.11 0.229,-0.04 0.448,-0.082 0.668,-0.117 0.216,-0.04 0.442,-0.058 0.675,-0.062 0.106,-0.97 0.241,-1.972 0.4,-2.99 0.154,-1.023 0.34,-2.048 0.551,-3.08 0.49,-0.102 0.981,-0.2 1.475,-0.297 0.489,-0.092 0.978,-0.178 1.467,-0.261 0.609,-0.106 1.218,-0.211 1.826,-0.304 0.609,-0.097 1.217,-0.184 1.826,-0.268 0.525,0.904 1.033,1.813 1.523,2.721 0.485,0.913 0.963,1.81 1.426,2.687 0.392,-0.11 0.789,-0.198 1.199,-0.268 0.405,-0.067 0.809,-0.143 1.205,-0.214 0.402,-0.066 0.803,-0.134 1.213,-0.2 0.406,-0.07 0.839,-0.125 1.302,-0.165 -0.736,-1.006 -1.58,-2.246 -2.515,-3.727 -0.934,-1.478 -1.909,-3.039 -2.914,-4.693 -1.005,-1.649 -2.006,-3.33 -3.011,-5.05 -1.009,-1.719 -1.958,-3.335 -2.84,-4.843 z m -1.219,5.856 c 0.653,1.059 1.272,2.108 1.867,3.149 0.6,1.036 1.206,2.098 1.819,3.183 l -5.195,0.889 c 0.216,-1.226 0.449,-2.431 0.696,-3.617 0.242,-1.182 0.517,-2.382 0.813,-3.604 z m -15.075,-1.708 c -0.794,0.048 -1.839,0.284 -3.135,0.716 -0.657,0.216 -1.321,0.464 -1.991,0.737 -0.67,0.274 -1.324,0.512 -1.964,0.724 -0.458,0.15 -0.87,0.272 -1.24,0.365 -0.379,0.093 -0.725,0.175 -1.047,0.241 0.463,1.164 0.909,2.329 1.336,3.493 0.428,1.164 0.887,2.5 1.385,4.017 l 1.241,3.727 c 0.502,1.513 0.928,2.861 1.281,4.052 0.353,1.186 0.685,2.358 0.985,3.513 0.3,-0.136 0.626,-0.266 0.992,-0.385 0.362,-0.124 0.78,-0.253 1.234,-0.407 0.454,-0.15 0.867,-0.287 1.233,-0.406 0.362,-0.124 0.705,-0.217 1.027,-0.283 -0.534,-1.301 -1.033,-2.626 -1.509,-3.976 -0.481,-1.349 -0.945,-2.711 -1.399,-4.078 l 1.392,-0.469 c 1.023,-0.339 1.93,-0.758 2.714,-1.261 0.785,-0.507 1.412,-1.089 1.888,-1.763 0.477,-0.675 0.765,-1.444 0.862,-2.308 0.101,-0.86 -0.022,-1.812 -0.366,-2.853 -0.273,-0.82 -0.641,-1.477 -1.109,-1.97 -0.467,-0.494 -1.076,-0.883 -1.812,-1.165 -0.542,-0.225 -1.204,-0.315 -1.998,-0.262 z m -2.219,2.356 c 0.402,0.009 0.776,0.116 1.137,0.31 0.357,0.194 0.693,0.5 1.006,0.923 0.309,0.424 0.584,0.982 0.813,1.675 0.291,0.877 0.396,1.626 0.317,2.239 -0.079,0.613 -0.277,1.129 -0.586,1.543 -0.308,0.419 -0.689,0.748 -1.143,0.999 -0.45,0.251 -0.903,0.456 -1.358,0.606 -0.423,-1.278 -0.839,-2.549 -1.254,-3.824 -0.41,-1.269 -0.825,-2.567 -1.24,-3.886 0.066,-0.044 0.149,-0.079 0.241,-0.11 0.089,-0.031 0.177,-0.065 0.269,-0.096 l 0.634,-0.207 c 0.379,-0.128 0.768,-0.181 1.164,-0.172 z m -63.998,56.583 3.219,2.245 c 1.31,0.912 2.461,1.737 3.457,2.473 0.997,0.737 1.967,1.478 2.906,2.214 0.071,-0.137 0.168,-0.3 0.287,-0.485 0.119,-0.19 0.3,-0.459 0.546,-0.816 0.252,-0.353 0.578,-0.82 0.984,-1.407 0.419,-0.595 0.961,-1.375 1.636,-2.337 0.758,-1.089 1.358,-1.944 1.803,-2.562 0.441,-0.617 0.816,-1.128 1.134,-1.547 -0.12,-0.031 -0.256,-0.093 -0.406,-0.177 -0.155,-0.079 -0.357,-0.211 -0.609,-0.388 -0.251,-0.176 -0.445,-0.322 -0.573,-0.436 -0.132,-0.115 -0.273,-0.247 -0.423,-0.402 -0.529,0.993 -1.085,1.954 -1.663,2.889 -0.582,0.93 -1.186,1.843 -1.812,2.742 -0.979,-0.612 -1.98,-1.278 -3.003,-1.993 -0.507,-0.352 -1.01,-0.705 -1.508,-1.067 -0.498,-0.361 -1.001,-0.714 -1.504,-1.067 1.244,-1.781 2.562,-3.523 3.96,-5.221 -0.273,-0.145 -0.489,-0.251 -0.639,-0.322 -0.15,-0.07 -0.287,-0.15 -0.415,-0.238 -0.154,-0.106 -0.3,-0.22 -0.432,-0.335 -0.132,-0.115 -0.313,-0.291 -0.547,-0.525 -0.582,0.931 -1.146,1.826 -1.688,2.673 -0.547,0.851 -1.169,1.794 -1.87,2.83 -0.869,-0.608 -1.724,-1.212 -2.571,-1.812 -0.846,-0.604 -1.68,-1.239 -2.5,-1.905 0.119,-0.176 0.331,-0.458 0.631,-0.86 0.304,-0.396 0.648,-0.842 1.04,-1.331 0.388,-0.49 0.785,-0.997 1.2,-1.522 0.41,-0.52 0.789,-1.001 1.142,-1.433 -0.199,-0.092 -0.371,-0.176 -0.525,-0.26 -0.15,-0.084 -0.353,-0.211 -0.609,-0.388 -0.405,-0.286 -0.714,-0.551 -0.926,-0.789 -0.185,0.339 -0.586,0.966 -1.195,1.892 -0.608,0.921 -1.322,1.966 -2.134,3.135 -0.494,0.705 -1.001,1.398 -1.517,2.068 -0.516,0.674 -1.032,1.358 -1.539,2.055 1.063,0.661 2.113,1.331 3.149,2.015 1.036,0.683 2.209,1.477 3.514,2.394 m 1.574,22.048 c 0.089,-0.203 0.225,-0.498 0.415,-0.891 0.185,-0.388 0.436,-0.904 0.745,-1.543 0.318,-0.657 0.732,-1.517 1.244,-2.571 0.573,-1.195 1.031,-2.13 1.371,-2.813 0.339,-0.679 0.63,-1.248 0.873,-1.707 -0.119,-0.013 -0.265,-0.053 -0.428,-0.11 -0.163,-0.057 -0.383,-0.154 -0.661,-0.287 -0.278,-0.132 -0.49,-0.247 -0.635,-0.339 -0.15,-0.093 -0.309,-0.203 -0.481,-0.331 -0.366,1.063 -0.758,2.103 -1.186,3.113 -0.423,1.01 -0.873,2.011 -1.349,2.999 -1.067,-0.45 -2.161,-0.948 -3.285,-1.491 -0.552,-0.269 -1.107,-0.538 -1.654,-0.815 -0.551,-0.278 -1.102,-0.547 -1.658,-0.816 0.944,-1.954 1.971,-3.885 3.082,-5.781 -0.295,-0.097 -0.52,-0.172 -0.683,-0.216 -0.159,-0.044 -0.309,-0.102 -0.445,-0.168 -0.172,-0.084 -0.336,-0.172 -0.481,-0.265 -0.15,-0.092 -0.357,-0.238 -0.626,-0.432 -0.424,1.015 -0.838,1.985 -1.244,2.906 -0.401,0.926 -0.868,1.958 -1.393,3.091 -0.953,-0.458 -1.896,-0.921 -2.827,-1.38 -0.93,-0.458 -1.852,-0.957 -2.773,-1.486 0.092,-0.189 0.255,-0.503 0.489,-0.948 0.238,-0.441 0.507,-0.935 0.812,-1.482 0.308,-0.542 0.621,-1.106 0.948,-1.688 0.321,-0.578 0.621,-1.112 0.899,-1.597 -0.207,-0.057 -0.392,-0.114 -0.56,-0.176 -0.163,-0.057 -0.384,-0.154 -0.661,-0.287 -0.45,-0.216 -0.794,-0.427 -1.041,-0.63 -0.132,0.366 -0.423,1.049 -0.877,2.059 -0.459,1.005 -0.993,2.152 -1.61,3.431 -0.379,0.78 -0.767,1.543 -1.173,2.288 -0.401,0.745 -0.798,1.499 -1.19,2.271 1.15,0.485 2.297,0.979 3.426,1.491 1.133,0.507 2.416,1.106 3.854,1.803 l 3.532,1.707 c 1.433,0.692 2.703,1.322 3.805,1.891 1.103,0.573 2.174,1.147 3.219,1.724 0.053,-0.145 0.119,-0.322 0.207,-0.524 m -18.126,27.908 c -1.729,-0.079 -3.25,0.143 -4.568,0.655 -1.323,0.507 -2.435,1.231 -3.321,2.17 -0.886,0.944 -1.572,2.071 -2.053,3.376 -0.485,1.306 -0.754,2.731 -0.82,4.265 -0.075,1.671 0.119,3.197 0.6,4.582 0.476,1.389 1.16,2.582 2.06,3.583 0.899,1.005 1.961,1.801 3.183,2.383 1.226,0.583 2.548,0.91 3.968,0.972 1.791,0.079 3.342,-0.134 4.665,-0.655 1.323,-0.52 2.423,-1.249 3.3,-2.184 0.882,-0.93 1.543,-2.03 1.984,-3.3 0.441,-1.27 0.69,-2.608 0.751,-4.01 0.547,-1.014 1.112,-2.178 1.509,-2.866 0.397,-0.688 0.763,-1.443 1.151,-2.074 0.304,-0.507 0.642,-1.072 0.951,-1.557 -0.353,-0.542 -0.605,-1.164 -0.896,-1.922 -0.326,-0.86 -0.642,-2.047 -0.717,-2.267 -0.092,0.273 -0.364,1.304 -0.509,1.736 -0.243,0.71 -0.49,1.576 -0.834,2.563 -0.273,0.785 -0.563,1.52 -0.903,2.336 -0.352,-1.169 -0.829,-2.221 -1.433,-3.156 -0.604,-0.93 -1.313,-1.727 -2.129,-2.397 -0.815,-0.671 -1.727,-1.199 -2.728,-1.578 -1.001,-0.384 -2.073,-0.606 -3.211,-0.655 z m -0.813,4.699 c 1.574,0.071 2.934,0.307 4.072,0.717 1.133,0.405 2.06,0.919 2.783,1.536 0.724,0.622 1.252,1.336 1.578,2.143 0.331,0.803 0.481,1.63 0.441,2.494 -0.035,0.807 -0.215,1.573 -0.537,2.288 -0.322,0.718 -0.811,1.338 -1.482,1.867 -0.665,0.529 -1.539,0.93 -2.611,1.212 -1.067,0.278 -2.367,0.388 -3.906,0.317 -1.231,-0.053 -2.381,-0.241 -3.452,-0.572 -1.072,-0.326 -2.003,-0.777 -2.784,-1.35 -0.785,-0.573 -1.396,-1.262 -1.832,-2.06 -0.433,-0.798 -0.63,-1.688 -0.586,-2.666 0.04,-0.922 0.269,-1.764 0.675,-2.522 0.41,-0.763 0.974,-1.406 1.688,-1.922 0.715,-0.516 1.572,-0.905 2.577,-1.165 1.001,-0.264 2.128,-0.37 3.376,-0.317 z m 7.364,-28.163 c -1.208,-0.322 -2.35,-0.648 -3.43,-0.966 -1.076,-0.321 -2.06,-0.621 -2.95,-0.904 -0.891,-0.277 -1.676,-0.529 -2.351,-0.754 -0.679,-0.22 -1.217,-0.405 -1.613,-0.551 -0.027,0.252 -0.058,0.49 -0.093,0.723 -0.031,0.23 -0.079,0.463 -0.146,0.706 -0.053,0.203 -0.127,0.423 -0.22,0.657 -0.093,0.234 -0.194,0.476 -0.3,0.728 1.301,0.268 2.593,0.56 3.872,0.864 1.283,0.304 2.566,0.63 3.845,0.974 1.301,0.353 2.54,0.728 3.717,1.12 1.173,0.402 2.183,0.887 3.025,1.46 0.842,0.578 1.455,1.252 1.839,2.037 0.388,0.781 0.432,1.729 0.132,2.84 -0.247,0.908 -0.555,1.684 -0.926,2.319 -0.37,0.64 -0.904,1.116 -1.596,1.438 -0.692,0.322 -1.592,0.463 -2.694,0.423 -1.107,-0.04 -2.505,-0.287 -4.194,-0.741 -1.596,-0.432 -3.166,-0.873 -4.705,-1.331 -1.539,-0.455 -3.184,-1.019 -4.935,-1.689 -0.066,0.383 -0.132,0.771 -0.211,1.168 -0.075,0.397 -0.163,0.781 -0.265,1.156 -0.101,0.37 -0.216,0.745 -0.348,1.128 -0.137,0.384 -0.269,0.754 -0.406,1.116 0.472,0.088 1.178,0.247 2.108,0.481 0.935,0.229 2.152,0.546 3.655,0.952 0.503,0.137 0.984,0.273 1.447,0.406 0.458,0.136 0.943,0.269 1.442,0.405 0.502,0.133 1.045,0.287 1.627,0.45 0.582,0.168 1.243,0.353 1.984,0.551 1.318,0.358 2.496,0.441 3.532,0.252 1.036,-0.19 1.949,-0.582 2.743,-1.186 0.789,-0.605 1.446,-1.389 1.975,-2.351 0.529,-0.961 0.952,-2.037 1.274,-3.227 0.724,-2.69 0.574,-4.922 -0.454,-6.69 -1.023,-1.772 -3.153,-3.091 -6.381,-3.964 m 223.377,-6.332 c -1.499,0.556 -2.831,1.032 -4.004,1.433 -1.177,0.401 -2.333,0.776 -3.475,1.129 0.071,0.137 0.15,0.309 0.234,0.511 0.088,0.203 0.207,0.508 0.357,0.913 0.15,0.406 0.348,0.944 0.595,1.61 0.256,0.683 0.587,1.574 0.997,2.676 0.459,1.244 0.816,2.223 1.071,2.937 0.256,0.719 0.468,1.323 0.627,1.817 0.097,-0.08 0.22,-0.155 0.379,-0.234 0.154,-0.079 0.375,-0.172 0.661,-0.278 0.291,-0.106 0.521,-0.181 0.688,-0.225 0.168,-0.039 0.362,-0.079 0.569,-0.119 -0.512,-1.001 -0.988,-2.002 -1.424,-3.007 -0.432,-1.01 -0.843,-2.024 -1.222,-3.051 1.059,-0.459 2.179,-0.9 3.347,-1.336 0.578,-0.217 1.155,-0.424 1.737,-0.631 0.578,-0.203 1.156,-0.415 1.733,-0.626 0.759,2.037 1.438,4.109 2.038,6.226 0.273,-0.141 0.48,-0.256 0.626,-0.339 0.141,-0.084 0.286,-0.155 0.432,-0.208 0.176,-0.066 0.353,-0.119 0.52,-0.163 0.172,-0.044 0.419,-0.092 0.745,-0.154 -0.436,-1.006 -0.846,-1.976 -1.234,-2.91 -0.388,-0.931 -0.807,-1.98 -1.261,-3.144 0.992,-0.366 1.98,-0.728 2.954,-1.081 0.975,-0.353 1.971,-0.674 2.99,-0.97 0.075,0.199 0.189,0.534 0.348,1.01 0.154,0.476 0.322,1.01 0.503,1.609 0.181,0.6 0.37,1.217 0.564,1.852 0.194,0.635 0.371,1.222 0.529,1.76 0.186,-0.11 0.357,-0.208 0.512,-0.282 0.154,-0.08 0.375,-0.172 0.666,-0.278 0.467,-0.177 0.86,-0.278 1.173,-0.313 -0.168,-0.349 -0.459,-1.037 -0.869,-2.064 -0.41,-1.023 -0.864,-2.205 -1.358,-3.536 -0.304,-0.812 -0.582,-1.623 -0.842,-2.43 -0.256,-0.807 -0.53,-1.618 -0.812,-2.434 -1.146,0.498 -2.297,0.974 -3.448,1.442 -1.151,0.458 -2.474,0.97 -3.973,1.525 z m -34.58,-36.123 c 0.331,0.3 0.644,0.609 0.948,0.935 0.141,0.154 0.291,0.313 0.45,0.485 0.159,0.168 0.3,0.348 0.428,0.547 0.141,-0.159 0.335,-0.366 0.586,-0.622 0.247,-0.256 0.569,-0.582 0.962,-0.975 0.396,-0.396 0.886,-0.873 1.472,-1.428 0.582,-0.556 1.297,-1.226 2.143,-2.011 l 2.452,-2.28 c 0.419,-0.392 0.838,-0.776 1.257,-1.146 0.41,-0.375 0.829,-0.741 1.252,-1.107 -0.397,6.429 -0.939,12.668 -1.618,18.71 0.251,0.216 0.52,0.476 0.807,0.785 0.273,0.295 0.529,0.599 0.763,0.908 l 2.535,-2.359 c 1.01,-0.944 1.967,-1.826 2.871,-2.65 0.899,-0.825 1.821,-1.649 2.76,-2.469 0.944,-0.825 1.949,-1.694 3.025,-2.615 1.071,-0.922 2.284,-1.94 3.629,-3.06 -0.436,-0.331 -0.763,-0.613 -0.988,-0.852 -0.22,-0.242 -0.48,-0.59 -0.78,-1.049 -0.11,0.159 -0.362,0.437 -0.754,0.838 -0.388,0.401 -0.86,0.868 -1.416,1.398 -0.555,0.529 -1.168,1.111 -1.829,1.741 -0.662,0.627 -1.337,1.262 -2.029,1.905 l -2.046,1.905 -1.839,1.707 c 0.238,-3.162 0.485,-6.258 0.737,-9.287 0.251,-3.034 0.516,-6.107 0.793,-9.225 -0.436,-0.33 -0.767,-0.612 -0.987,-0.855 -0.225,-0.238 -0.481,-0.586 -0.781,-1.045 -0.494,0.485 -1.058,1.049 -1.693,1.693 -0.635,0.64 -1.438,1.416 -2.408,2.32 -1.071,0.996 -2.204,2.015 -3.399,3.06 -1.195,1.045 -2.311,2.002 -3.347,2.875 -1.041,0.873 -1.923,1.609 -2.655,2.209 -0.727,0.6 -1.159,0.939 -1.301,1.014 m -5.798,-18.207 c 1.018,-0.652 2.063,-1.3 3.144,-1.94 -0.3,1.204 -0.613,2.381 -0.935,3.537 -0.322,1.155 -0.657,2.328 -1.001,3.527 l -4.282,-3.091 c 1.032,-0.701 2.055,-1.38 3.074,-2.033 m -11.941,4.908 c 0.238,0.128 0.454,0.26 0.639,0.393 0.189,0.136 0.375,0.273 0.564,0.405 0.186,0.137 0.366,0.269 0.547,0.397 0.176,0.132 0.348,0.278 0.516,0.445 0.772,-0.604 1.574,-1.212 2.412,-1.816 0.838,-0.6 1.702,-1.186 2.588,-1.76 0.415,0.278 0.829,0.56 1.244,0.847 0.406,0.282 0.816,0.573 1.221,0.864 0.499,0.362 0.997,0.723 1.491,1.094 0.489,0.366 0.979,0.741 1.468,1.115 -0.278,1.01 -0.573,2.007 -0.882,2.99 -0.308,0.988 -0.613,1.953 -0.917,2.897 0.348,0.207 0.692,0.428 1.027,0.67 0.336,0.243 0.671,0.481 0.997,0.719 0.322,0.238 0.653,0.476 0.992,0.719 0.335,0.242 0.679,0.511 1.028,0.816 0.202,-1.231 0.502,-2.699 0.904,-4.401 0.401,-1.702 0.837,-3.492 1.314,-5.366 0.471,-1.874 0.974,-3.771 1.494,-5.693 0.525,-1.927 1.019,-3.731 1.478,-5.415 -0.181,-0.079 -0.349,-0.159 -0.507,-0.238 -0.155,-0.075 -0.314,-0.172 -0.468,-0.287 -0.159,-0.11 -0.295,-0.229 -0.419,-0.353 -0.123,-0.127 -0.256,-0.26 -0.383,-0.401 -0.988,0.64 -2.055,1.323 -3.211,2.055 -1.159,0.728 -2.332,1.468 -3.527,2.218 -1.195,0.75 -2.377,1.49 -3.559,2.218 -1.177,0.723 -2.275,1.407 -3.307,2.037 -1.023,0.635 -1.953,1.2 -2.782,1.689 -0.829,0.494 -1.482,0.873 -1.963,1.142 m 37.534,27.882 c -0.718,1.098 -1.177,2.293 -1.375,3.589 -0.195,1.297 -0.12,2.65 0.229,4.07 0.348,1.416 0.948,2.831 1.799,4.251 0.653,1.085 1.407,2.134 2.258,3.135 0.846,1.006 1.759,1.954 2.725,2.853 0.128,-0.123 0.366,-0.295 0.714,-0.516 0.348,-0.22 0.732,-0.454 1.142,-0.701 l 0.816,-0.494 c 0.397,-0.238 0.816,-0.48 1.257,-0.736 0.441,-0.256 0.859,-0.49 1.256,-0.706 0.397,-0.216 0.754,-0.401 1.063,-0.555 0.313,-0.155 0.542,-0.256 0.697,-0.3 -0.133,-0.146 -0.3,-0.353 -0.499,-0.626 -0.198,-0.274 -0.471,-0.71 -0.829,-1.301 -0.308,-0.511 -0.533,-0.908 -0.67,-1.195 -0.137,-0.287 -0.242,-0.525 -0.309,-0.71 -0.22,0.159 -0.634,0.45 -1.239,0.882 -0.604,0.428 -1.574,1.045 -2.905,1.848 -0.362,0.22 -0.693,0.414 -0.997,0.582 -0.3,0.172 -0.56,0.3 -0.776,0.383 -0.128,-0.057 -0.287,-0.176 -0.472,-0.357 -0.185,-0.176 -0.37,-0.388 -0.56,-0.622 -0.185,-0.233 -0.375,-0.48 -0.56,-0.74 -0.19,-0.256 -0.348,-0.49 -0.476,-0.706 -0.573,-0.952 -0.913,-1.909 -1.01,-2.857 -0.101,-0.948 0.004,-1.866 0.313,-2.747 0.313,-0.882 0.807,-1.711 1.482,-2.487 0.674,-0.781 1.508,-1.464 2.5,-2.06 1.301,-0.785 2.54,-1.283 3.722,-1.499 1.181,-0.22 2.27,-0.229 3.267,-0.031 0.992,0.198 1.874,0.578 2.646,1.133 0.771,0.556 1.389,1.213 1.843,1.971 0.683,1.138 1.036,2.236 1.058,3.303 0.022,1.063 -0.176,2.081 -0.599,3.051 l 0.207,0.349 c 0.476,-0.177 0.961,-0.326 1.446,-0.45 0.485,-0.123 0.979,-0.251 1.491,-0.375 -0.058,-1.177 -0.234,-2.302 -0.53,-3.369 -0.295,-1.067 -0.815,-2.226 -1.569,-3.479 -0.873,-1.451 -1.883,-2.681 -3.034,-3.695 -1.147,-1.014 -2.386,-1.746 -3.718,-2.187 -1.331,-0.445 -2.747,-0.569 -4.237,-0.384 -1.49,0.19 -3.016,0.759 -4.582,1.698 -1.27,0.763 -2.262,1.693 -2.985,2.787 m 35.753,64.785 c -0.278,-0.776 -0.679,-1.46 -1.204,-2.046 -0.529,-0.591 -1.178,-1.063 -1.949,-1.407 -0.776,-0.348 -1.663,-0.516 -2.659,-0.503 -1.098,0.009 -1.993,0.23 -2.69,0.662 -0.697,0.432 -1.283,0.965 -1.755,1.605 -0.476,0.644 -0.877,1.34 -1.204,2.094 -0.326,0.75 -0.666,1.447 -1.014,2.086 -0.348,0.639 -0.75,1.173 -1.208,1.601 -0.459,0.427 -1.05,0.643 -1.782,0.652 -0.807,0.009 -1.503,-0.255 -2.085,-0.798 -0.582,-0.542 -0.878,-1.389 -0.891,-2.54 -0.009,-0.577 0.066,-1.098 0.225,-1.561 0.159,-0.463 0.379,-0.86 0.666,-1.19 0.282,-0.331 0.613,-0.604 0.983,-0.82 0.375,-0.217 0.772,-0.362 1.195,-0.446 l -0.004,-0.547 c -0.657,-0.088 -1.266,-0.198 -1.826,-0.326 -0.555,-0.128 -1.173,-0.282 -1.847,-0.467 -0.322,0.423 -0.591,1.049 -0.803,1.865 -0.212,0.82 -0.313,1.751 -0.3,2.787 0.013,1.155 0.172,2.196 0.481,3.126 0.309,0.926 0.749,1.724 1.327,2.394 0.573,0.666 1.261,1.178 2.064,1.531 0.802,0.357 1.684,0.529 2.646,0.52 1.093,-0.013 1.988,-0.238 2.689,-0.679 0.697,-0.441 1.283,-0.992 1.769,-1.649 0.48,-0.662 0.886,-1.367 1.217,-2.121 0.326,-0.754 0.67,-1.455 1.027,-2.117 0.357,-0.657 0.758,-1.204 1.208,-1.64 0.446,-0.441 1.028,-0.662 1.738,-0.67 0.692,-0.009 1.3,0.264 1.825,0.815 0.525,0.551 0.794,1.27 0.803,2.157 0.017,1.71 -0.794,2.879 -2.439,3.514 l 0.004,0.432 c 0.635,0.185 1.16,0.34 1.575,0.459 0.414,0.119 0.842,0.264 1.287,0.432 0.437,-0.56 0.776,-1.235 1.019,-2.015 0.238,-0.781 0.353,-1.689 0.344,-2.73 -0.013,-0.864 -0.155,-1.684 -0.432,-2.46 M 280.634,68.917 c -0.979,0 -1.801,0.027 -2.467,0.076 -0.661,0.048 -1.25,0.075 -1.77,0.075 -0.477,0 -0.912,-0.01 -1.296,-0.041 -0.383,-0.026 -0.741,-0.061 -1.068,-0.096 0.08,1.247 0.133,2.49 0.173,3.734 0.039,1.239 0.062,2.655 0.062,4.251 l 0.007,3.92 c 0,1.592 -0.02,3.012 -0.056,4.251 -0.039,1.244 -0.092,2.457 -0.172,3.652 0.327,-0.039 0.684,-0.062 1.068,-0.062 h 2.598 c 0.383,-0.004 0.741,0.02 1.068,0.055 -0.08,-1.19 -0.14,-2.405 -0.18,-3.644 -0.039,-1.239 -0.062,-2.66 -0.062,-4.252 v -1.185 h 0.255 l 5.182,9.075 c 0.441,-0.04 0.877,-0.056 1.309,-0.056 h 1.309 c 0.445,0 0.879,-0.007 1.302,-0.007 0.423,0 0.854,0.023 1.295,0.062 -1.062,-1.591 -2.122,-3.202 -3.176,-4.829 -1.063,-1.623 -2.05,-3.254 -2.976,-4.885 1.437,-0.366 2.546,-0.988 3.314,-1.874 0.771,-0.887 1.15,-2.032 1.15,-3.438 0,-0.865 -0.17,-1.611 -0.51,-2.233 -0.335,-0.626 -0.791,-1.147 -1.364,-1.571 -0.256,-0.172 -0.517,-0.32 -0.799,-0.448 -0.278,-0.123 -0.604,-0.221 -0.978,-0.296 -0.375,-0.079 -0.828,-0.132 -1.344,-0.172 -0.52,-0.04 -1.142,-0.062 -1.874,-0.062 z m -2.018,1.647 c 0.789,0 1.468,0.042 2.033,0.117 0.568,0.075 1.027,0.242 1.384,0.503 0.358,0.26 0.623,0.638 0.8,1.136 0.172,0.503 0.261,1.173 0.261,2.019 0,1.385 -0.335,2.417 -1.006,3.101 -0.674,0.683 -1.644,1.026 -2.914,1.026 -0.097,0 -0.197,-0.005 -0.303,-0.013 -0.106,-0.009 -0.212,-0.024 -0.331,-0.042 0,-2.615 0.023,-5.233 0.076,-7.847 z m 128.226,103.825 c 0.145,0.771 0.229,1.446 0.255,2.019 0.027,0.569 -0.052,1.054 -0.246,1.451 -0.19,0.397 -0.516,0.723 -0.975,0.983 -0.459,0.265 -1.107,0.468 -1.94,0.622 -1.358,0.251 -2.439,0.11 -3.232,-0.432 -0.794,-0.538 -1.301,-1.429 -1.53,-2.677 -0.018,-0.092 -0.031,-0.194 -0.045,-0.3 -0.008,-0.105 -0.013,-0.216 -0.017,-0.335 2.571,-0.471 5.15,-0.917 7.73,-1.331 m -11.778,9.67 c 1.406,-1.332 2.826,-2.602 4.268,-3.806 0.617,1.354 1.433,2.328 2.443,2.924 1.01,0.595 2.205,0.767 3.585,0.511 0.851,-0.154 1.552,-0.454 2.107,-0.9 0.552,-0.445 0.988,-0.987 1.297,-1.631 0.123,-0.278 0.22,-0.564 0.295,-0.86 0.075,-0.3 0.11,-0.639 0.119,-1.018 0.009,-0.384 -0.013,-0.834 -0.07,-1.354 -0.058,-0.516 -0.15,-1.133 -0.283,-1.852 -0.176,-0.966 -0.348,-1.768 -0.515,-2.412 -0.172,-0.644 -0.3,-1.222 -0.393,-1.733 -0.088,-0.472 -0.154,-0.9 -0.194,-1.283 -0.04,-0.384 -0.075,-0.737 -0.092,-1.067 -1.218,0.304 -2.43,0.582 -3.643,0.846 -1.212,0.265 -2.601,0.538 -4.171,0.829 l -3.859,0.71 c -1.57,0.287 -2.967,0.525 -4.198,0.714 -1.225,0.186 -2.429,0.349 -3.615,0.49 0.097,0.313 0.18,0.661 0.251,1.036 0.07,0.379 0.145,0.807 0.234,1.279 0.088,0.472 0.167,0.895 0.233,1.274 0.071,0.379 0.119,0.732 0.137,1.059 1.16,-0.287 2.342,-0.565 3.559,-0.829 1.212,-0.261 2.601,-0.538 4.171,-0.825 l 1.164,-0.216 0.044,0.256 -7.994,6.72 c 0.115,0.428 0.216,0.855 0.291,1.283 0.079,0.423 0.159,0.851 0.238,1.288 0.08,0.436 0.159,0.859 0.234,1.278 0.079,0.415 0.137,0.843 0.181,1.283 1.375,-1.327 2.769,-2.658 4.176,-3.995 M 334.29,82.459 c 0.705,0.344 1.301,0.67 1.781,0.984 0.476,0.317 0.82,0.665 1.032,1.053 0.203,0.388 0.278,0.847 0.22,1.372 -0.061,0.525 -0.277,1.168 -0.639,1.931 -0.6,1.248 -1.349,2.037 -2.253,2.359 -0.9,0.327 -1.923,0.212 -3.069,-0.335 -0.084,-0.044 -0.177,-0.092 -0.265,-0.145 -0.092,-0.053 -0.185,-0.115 -0.282,-0.181 1.129,-2.359 2.289,-4.705 3.475,-7.038 m -9.838,15.367 c 0.432,0.208 0.82,0.397 1.168,0.565 0.349,0.163 0.662,0.335 0.94,0.511 0.445,-1.107 0.921,-2.231 1.42,-3.364 0.502,-1.133 1.097,-2.421 1.79,-3.859 l 0.511,-1.067 0.234,0.115 0.723,10.42 c 0.415,0.158 0.816,0.33 1.208,0.516 0.388,0.189 0.785,0.379 1.182,0.568 0.397,0.19 0.789,0.38 1.173,0.56 0.379,0.186 0.763,0.388 1.142,0.613 -0.264,-1.896 -0.52,-3.805 -0.772,-5.723 -0.246,-1.923 -0.436,-3.823 -0.56,-5.693 1.456,0.295 2.726,0.207 3.801,-0.256 1.072,-0.463 1.919,-1.332 2.523,-2.597 0.375,-0.781 0.546,-1.521 0.511,-2.231 -0.03,-0.71 -0.216,-1.38 -0.555,-2.011 -0.15,-0.265 -0.322,-0.512 -0.521,-0.745 -0.198,-0.234 -0.445,-0.468 -0.754,-0.697 -0.304,-0.234 -0.683,-0.476 -1.133,-0.736 -0.45,-0.261 -1.005,-0.547 -1.667,-0.865 -0.882,-0.423 -1.636,-0.758 -2.253,-1.001 -0.617,-0.242 -1.16,-0.476 -1.627,-0.701 -0.437,-0.207 -0.82,-0.41 -1.151,-0.599 -0.335,-0.194 -0.644,-0.38 -0.922,-0.556 -0.471,1.16 -0.957,2.306 -1.455,3.444 -0.502,1.133 -1.102,2.421 -1.79,3.858 l -1.698,3.537 c -0.692,1.437 -1.318,2.707 -1.891,3.81 -0.569,1.102 -1.151,2.174 -1.733,3.214 0.313,0.106 0.639,0.243 0.983,0.41 0.348,0.168 0.736,0.353 1.173,0.56 m -27.784,-7.954 c 0.471,0.088 0.895,0.171 1.274,0.242 0.379,0.071 0.723,0.154 1.036,0.256 0.053,-0.891 0.212,-2.077 0.472,-3.55 0.256,-1.481 0.582,-3.245 0.97,-5.305 l 0.057,0.009 c 0.684,1.654 1.345,3.312 1.994,4.97 0.643,1.658 1.314,3.298 2.006,4.917 0.419,0.039 0.838,0.097 1.243,0.176 0.406,0.075 0.816,0.154 1.231,0.234 0.414,0.079 0.842,0.159 1.274,0.242 0.437,0.08 0.922,0.194 1.464,0.336 -0.291,-0.525 -0.666,-1.297 -1.116,-2.311 -0.458,-1.014 -0.943,-2.125 -1.468,-3.329 -0.529,-1.208 -1.05,-2.434 -1.579,-3.691 -0.524,-1.252 -1.001,-2.399 -1.433,-3.439 0.463,-0.384 1.111,-0.904 1.94,-1.557 0.829,-0.657 1.694,-1.327 2.598,-2.019 0.904,-0.688 1.75,-1.328 2.553,-1.923 0.793,-0.591 1.384,-1.019 1.764,-1.279 -0.327,-0.022 -0.631,-0.044 -0.909,-0.07 -0.278,-0.022 -0.551,-0.062 -0.816,-0.111 -0.264,-0.048 -0.529,-0.114 -0.784,-0.194 -0.261,-0.075 -0.516,-0.158 -0.772,-0.247 -0.318,0.314 -0.816,0.772 -1.495,1.376 -0.683,0.604 -1.446,1.266 -2.284,1.989 -0.842,0.719 -1.72,1.46 -2.624,2.218 -0.904,0.758 -1.755,1.455 -2.535,2.086 l 0.511,-2.721 c 0.265,-1.376 0.512,-2.628 0.759,-3.757 0.242,-1.129 0.463,-1.967 0.666,-2.518 -0.331,-0.022 -0.684,-0.053 -1.068,-0.097 -0.383,-0.044 -0.811,-0.11 -1.283,-0.198 -0.472,-0.093 -0.895,-0.185 -1.265,-0.287 -0.371,-0.097 -0.715,-0.198 -1.028,-0.295 -0.158,1.243 -0.335,2.473 -0.529,3.699 -0.189,1.226 -0.432,2.624 -0.732,4.19 l -0.732,3.853 c -0.295,1.57 -0.577,2.959 -0.846,4.172 -0.274,1.208 -0.552,2.394 -0.851,3.549 0.33,0.022 0.683,0.071 1.062,0.142 0.375,0.074 0.803,0.154 1.275,0.242"
         id="path5" />
    </g>
  </g>
</svg>
