<?xml version="1.0" encoding="UTF-8" standalone="no"?>
<svg
   xmlns:dc="http://purl.org/dc/elements/1.1/"
   xmlns:cc="http://creativecommons.org/ns#"
   xmlns:rdf="http://www.w3.org/1999/02/22-rdf-syntax-ns#"
   xmlns:svg="http://www.w3.org/2000/svg"
   xmlns="http://www.w3.org/2000/svg"
   xmlns:sodipodi="http://sodipodi.sourceforge.net/DTD/sodipodi-0.dtd"
   xmlns:inkscape="http://www.inkscape.org/namespaces/inkscape"
   version="1.1"
   id="Capa_1"
   x="0px"
   y="0px"
   width="97.52182"
   height="136.00545"
   viewBox="0 0 406.00921 566.92797"
   enable-background="new 0 0 612 792"
   xml:space="preserve"
   inkscape:version="0.48.2 r9819"
   sodipodi:docname="Racing Santander.svg"><metadata
   id="metadata257"><rdf:RDF><cc:Work
       rdf:about=""><dc:format>image/svg+xml</dc:format><dc:type
         rdf:resource="http://purl.org/dc/dcmitype/StillImage" /></cc:Work></rdf:RDF></metadata><defs
   id="defs255" /><sodipodi:namedview
   pagecolor="#ffffff"
   bordercolor="#666666"
   borderopacity="1"
   objecttolerance="10"
   gridtolerance="10"
   guidetolerance="10"
   inkscape:pageopacity="0"
   inkscape:pageshadow="2"
   inkscape:window-width="1280"
   inkscape:window-height="968"
   id="namedview253"
   showgrid="false"
   inkscape:zoom="5.5218377"
   inkscape:cx="48.791509"
   inkscape:cy="68.002731"
   inkscape:window-x="-4"
   inkscape:window-y="-4"
   inkscape:window-maximized="1"
   inkscape:current-layer="Capa_1"
   fit-margin-top="0"
   fit-margin-left="0"
   fit-margin-right="0"
   fit-margin-bottom="0" />
<path
   d="m 113.3646,154.08 c -0.648,0.864 -7.56,9.864 1.08,19.296 13.464,-6.264 27.792,-11.16 42.624,-14.544 30.24,-6.696 61.632,-6.696 91.8,0.072 14.904,3.312 29.232,8.208 42.696,14.472 8.64,-9.432 1.728,-18.432 1.08,-19.296 -0.648,0.288 -1.368,0.288 -2.088,0 -13.608,-5.76 -27.936,-10.152 -42.84,-13.104 -29.448,-5.904 -59.976,-5.904 -89.424,0 -14.904,2.952 -29.232,7.344 -42.84,13.104 -0.72,0.288 -1.44,0.288 -2.088,0 z"
   id="path3"
   inkscape:connector-curvature="0"
   style="fill:#d9b231" />
<path
   d="m 211.8606,74.304 c 16.92,-5.112 28.728,-0.36 36.216,5.616 5.76,11.736 6.984,23.688 7.2,25.776 -0.288,0.72 -0.504,1.44 -0.72,2.232 -5.472,-0.648 -13.392,1.152 -13.392,1.152 3.96,5.472 11.592,6.624 11.592,6.624 -1.296,6.84 -6.84,9.648 -12.168,9 -5.616,-0.648 -11.016,-5.184 -10.728,-12.672 -1.872,6.336 -7.416,9 -12.672,8.496 -5.832,-0.648 -11.448,-4.392 -11.088,-11.736 0,-0.576 0,-1.08 0.072,-1.584 7.272,0.288 13.824,-4.536 13.824,-4.536 0,0 -2.88,-3.168 -13.248,-3.744 0,0 -0.216,-6.768 -2.376,-11.016 h 0.36 c 3.384,-4.824 5.616,-9.36 7.128,-13.608 z"
   id="path5"
   inkscape:connector-curvature="0"
   style="fill:#e33820" />
<path
   d="m 260.1006,92.448 c 35.496,-3.024 50.976,21.024 53.208,24.912 -2.016,1.08 -4.104,2.88 -6.192,5.544 0,0 -3.456,-3.96 -13.392,-2.664 0,0 1.512,6.768 9.072,11.376 -1.512,5.112 -6.408,8.28 -11.88,7.92 -6.408,-0.432 -11.376,-6.408 -10.872,-12.816 -3.096,4.392 -8.856,6.12 -13.752,4.176 -4.608,-1.8 -7.704,-6.408 -7.344,-11.592 0.072,-0.648 0.144,-1.224 0.288,-1.8 10.584,1.872 15.336,-1.152 15.336,-1.152 0,0 -8.064,-5.256 -12.024,-6.12 0,0 1.44,-8.856 -0.792,-13.968 0,0 -0.216,0.216 -0.648,0.648 -0.144,-0.504 -0.432,-2.16 -1.008,-4.464 z"
   id="path7"
   inkscape:connector-curvature="0"
   style="fill:#e33820" />
<path
   d="m 145.9086,92.448 c -35.496,-3.024 -50.975999,21.024 -53.207999,24.912 2.016,1.08 4.104,2.88 6.192,5.544 0,0 3.455999,-3.96 13.391999,-2.664 0,0 -1.512,6.768 -9.072,11.376 1.512,5.112 6.408,8.28 11.88,7.92 6.408,-0.432 11.376,-6.408 10.872,-12.816 3.096,4.392 8.856,6.12 13.752,4.176 4.608,-1.8 7.704,-6.408 7.344,-11.592 -0.072,-0.648 -0.144,-1.224 -0.288,-1.8 -10.584,1.872 -15.336,-1.152 -15.336,-1.152 0,0 8.064,-5.256 12.024,-6.12 0,0 -1.44,-8.856 0.792,-13.968 0,0 0.216,0.216 0.648,0.648 0.144,-0.504 0.432,-2.16 1.008,-4.464 z"
   id="path9"
   inkscape:connector-curvature="0"
   style="fill:#e33820" />
<path
   d="m 194.2206,74.304 c -16.992,-5.112 -28.8,-0.36 -36.288,5.616 -5.76,11.736 -6.984,23.688 -7.2,25.776 0.288,0.72 0.504,1.44 0.72,2.232 5.472,-0.648 13.392,1.152 13.392,1.152 -3.96,5.472 -11.592,6.624 -11.592,6.624 1.296,6.84 6.84,9.648 12.168,9 5.616,-0.648 11.016,-5.184 10.728,-12.672 1.872,6.336 7.416,9 12.672,8.496 5.832,-0.648 11.448,-4.392 11.088,-11.736 0,-0.576 0,-1.08 -0.072,-1.584 -7.272,0.288 -13.824,-4.536 -13.824,-4.536 0,0 2.88,-3.168 13.248,-3.744 0,0 0.216,-6.768 2.376,-11.016 h -0.36 c -3.384,-4.824 -5.616,-9.36 -7.056,-13.608 z"
   id="path11"
   inkscape:connector-curvature="0"
   style="fill:#e33820" />
<path
   d="m 206.1726,0 h -6.336 v 9.288 h -6.048 V 16.2 h 6.048 v 8.568 c -5.112,1.368 -8.928,6.12 -8.928,11.736 0,3.816 1.8,7.272 4.608,9.504 -0.504,0.936 -1.08,2.232 -1.656,3.744 0,0 0,0 -0.072,0 -17.208,-0.648 -31.464,8.568 -37.944,18.432 -68.111999,-14.256 -74.663999,47.16 -74.951999,50.112 -4.464,2.88 -7.344,7.56 -7.344,7.56 0,0 11.16,-5.976 16.488,3.528 6.192,11.088 10.943999,21.456 25.775999,16.92 10.44,-3.24 13.464,-10.872 13.464,-10.872 3.312,2.376 7.776,3.168 11.664,2.304 5.76,-1.224 10.368,-6.48 11.376,-11.808 4.896,9.504 21.024,8.64 25.704,-2.16 5.976,10.008 21.672,6.696 24.984,-3.672 3.312,10.368 19.008,13.68 24.984,3.672 4.68,10.8 20.808,11.664 25.704,2.16 1.008,5.328 5.616,10.584 11.376,11.808 3.888,0.864 8.352,0.072 11.664,-2.304 0,0 3.024,7.632 13.464,10.872 14.832,4.536 19.584,-5.832 25.776,-16.92 5.328,-9.504 16.488,-3.528 16.488,-3.528 0,0 -2.88,-4.68 -7.344,-7.56 -0.288,-2.952 -6.84,-64.368 -74.952,-50.112 -6.48,-9.864 -20.736,-19.08 -37.944,-18.432 -0.072,0 -0.072,0 -0.072,0 -0.576,-1.512 -1.152,-2.808 -1.656,-3.744 2.808,-2.232 4.608,-5.688 4.608,-9.504 0,-5.616 -3.816,-10.368 -8.928,-11.736 V 16.2 h 6.048 V 9.288 h -6.048 V 0 l 0,0 z m -13.68,55.296 c -1.368,7.848 -0.576,19.296 8.784,32.616 h 0.36 c -2.16,4.248 -2.376,11.016 -2.376,11.016 -10.368,0.576 -13.248,3.744 -13.248,3.744 0,0 6.552,4.824 13.824,4.536 0.072,0.504 0.072,1.008 0.072,1.584 0.36,7.344 -5.256,11.088 -11.088,11.736 -5.256,0.504 -10.8,-2.16 -12.672,-8.496 0.288,7.488 -5.112,12.024 -10.728,12.672 -5.328,0.648 -10.872,-2.16 -12.168,-9 0,0 7.632,-1.152 11.592,-6.624 0,0 -7.92,-1.8 -13.392,-1.152 -0.216,-0.792 -0.432,-1.512 -0.72,-2.232 0.36,-4.176 4.968,-47.808 41.76,-50.4 l 0,0 z m 11.88,32.616 h 0.36 c 9.36,-13.32 10.152,-24.768 8.856,-32.616 36.72,2.592 41.328,46.224 41.688,50.4 -0.288,0.72 -0.504,1.44 -0.72,2.232 -5.472,-0.648 -13.392,1.152 -13.392,1.152 3.96,5.472 11.592,6.624 11.592,6.624 -1.296,6.84 -6.84,9.648 -12.168,9 -5.616,-0.648 -11.016,-5.184 -10.728,-12.672 -1.872,6.336 -7.416,9 -12.672,8.496 -5.832,-0.648 -11.448,-4.392 -11.088,-11.736 0,-0.576 0,-1.08 0.072,-1.584 7.272,0.288 13.824,-4.536 13.824,-4.536 0,0 -2.88,-3.168 -13.248,-3.744 0,0 -0.216,-6.768 -2.376,-11.016 l 0,0 z M 86.724601,116.064 c 0.432,-3.096 8.712,-53.856 66.455999,-43.272 -5.544,10.584 -7.92,22.464 -8.28,24.12 -0.432,-0.432 -0.648,-0.648 -0.648,-0.648 -2.232,5.112 -0.792,13.968 -0.792,13.968 -3.96,0.864 -12.024,6.12 -12.024,6.12 0,0 4.752,3.024 15.336,1.152 0.144,0.576 0.216,1.152 0.288,1.8 0.36,5.184 -2.736,9.792 -7.344,11.592 -4.896,1.944 -10.656,0.216 -13.752,-4.176 0.504,6.408 -4.464,12.384 -10.872,12.816 -5.472,0.36 -10.368,-2.808 -11.88,-7.92 7.56,-4.608 9.072,-11.376 9.072,-11.376 -9.936,-1.296 -13.391999,2.664 -13.391999,2.664 -4.32,-5.544 -8.496,-7.128 -12.168,-6.84 l 0,0 z m 232.559999,0 c -3.672,-0.288 -7.848,1.296 -12.168,6.84 0,0 -3.456,-3.96 -13.392,-2.664 0,0 1.512,6.768 9.072,11.376 -1.512,5.112 -6.408,8.28 -11.88,7.92 -6.408,-0.432 -11.376,-6.408 -10.872,-12.816 -3.096,4.392 -8.856,6.12 -13.752,4.176 -4.608,-1.8 -7.704,-6.408 -7.344,-11.592 0.072,-0.648 0.144,-1.224 0.288,-1.8 10.584,1.872 15.336,-1.152 15.336,-1.152 0,0 -8.064,-5.256 -12.024,-6.12 0,0 1.44,-8.856 -0.792,-13.968 0,0 -0.216,0.216 -0.648,0.648 -0.36,-1.656 -2.736,-13.536 -8.28,-24.12 57.744,-10.584 66.024,40.176 66.456,43.272 z"
   id="path13"
   inkscape:connector-curvature="0"
   style="fill:#d9b231" />
<path
   d="m 203.0046,566.928 c 111.96,0 203.256,-91.368 203.256,-203.328 0,-111.888 -91.296,-203.256 -203.256,-203.256 -111.959999,0 -203.25599887,91.368 -203.25599887,203.256 0,111.96 91.29599987,203.328 203.25599887,203.328 z"
   id="path15"
   inkscape:connector-curvature="0"
   style="fill:#d9b231" />
<path
   d="m 203.0046,561.672 c 109.08,0 198.072,-88.992 198.072,-198.072 0,-109.08 -88.992,-198 -198.072,-198 -109.079999,0 -198.0719989,88.92 -198.0719989,198 0,109.08 88.9919999,198.072 198.0719989,198.072 z"
   id="path17"
   inkscape:connector-curvature="0"
   style="fill:#ffffff" />
<path
   d="m 203.0046,498.96 c 74.52,0 135.36,-60.768 135.36,-135.36 0,-74.592 -60.84,-135.36 -135.36,-135.36 -74.52,0 -135.359999,60.768 -135.359999,135.36 0,74.592 60.839999,135.36 135.359999,135.36 z"
   id="path19"
   inkscape:connector-curvature="0"
   style="fill:#d9b231" />
<path
   d="m 203.0046,495.288 c 72.504,0 131.616,-59.184 131.616,-131.688 0,-72.504 -59.112,-131.616 -131.616,-131.616 -72.504,0 -131.615999,59.112 -131.615999,131.616 0,72.504 59.111999,131.688 131.615999,131.688 z"
   id="path21"
   inkscape:connector-curvature="0" />
<path
   d="m 100.6926,258.048 c -0.216,-3.312 4.032,-6.336 9.432,-6.696 5.472,-0.36 10.08,1.944 10.296,5.256 0.144,2.304 -1.8,4.392 -4.824,5.616 l 25.2,214.344 c -10.584,-6.048 -15.336,-9.792 -15.336,-9.792 l -17.712,-203.544 c -3.96,-0.576 -6.84,-2.592 -7.056,-5.184 z"
   id="path23"
   inkscape:connector-curvature="0"
   style="fill:#9c2e0f" />
<path
   d="m 279.2526,311.688 c 20.52,-7.776 26.64,-22.104 36.648,-35.856 0,0 -14.832,72.504 25.416,136.296 -20.736,-6.192 -30.744,-8.136 -47.592,2.088 -40.176,24.336 -46.512,2.088 -46.512,2.088 1.44,-6.264 2.808,-12.384 3.744,-18.792 6.048,-41.112 -4.032,-71.64 -8.424,-82.512 5.76,3.528 13.104,3.096 19.512,2.016 5.4,-1.008 11.376,-2.736 17.208,-5.328 z"
   id="path25"
   inkscape:connector-curvature="0"
   style="fill:#2d9a29" />
<path
   d="m 269.3886,273.672 c -2.088,10.224 -5.904,32.832 -1.8,40.104 -2.016,0.504 -3.96,0.936 -5.832,1.296 -6.912,1.224 -19.584,1.944 -22.32,-6.84 -1.152,-3.6 0.288,-7.92 3.312,-11.736 3.096,-4.032 7.92,-7.848 13.392,-10.656 5.4,-2.664 10.152,-6.912 13.248,-12.168 z"
   id="path27"
   inkscape:connector-curvature="0"
   style="fill:#2d9a29" />
<path
   d="m 187.1646,269.712 c 28.512,-10.512 35.928,-17.712 64.8,-17.28 6.336,0.072 14.184,2.232 17.28,8.28 1.44,2.808 1.008,6.552 -0.72,10.296 -2.664,5.688 -7.704,10.368 -13.32,13.104 -5.688,2.952 -10.728,6.912 -14.04,11.16 -3.672,4.824 -6.408,11.592 -2.016,16.92 2.304,4.824 17.568,39.312 9.36,88.344 -5.472,-15.552 -50.328,-12.024 -73.08,1.008 -37.512,21.384 -41.688,12.456 -41.688,12.456 6.912,-24.408 7.56,-47.736 5.256,-68.112 0.432,0.144 0.864,0.288 1.008,0.288 21.672,6.408 60.768,-12.816 60.768,-12.816 0,0 2.088,-13.968 -2.088,-32.256 -4.968,-21.384 -10.08,-29.376 -11.52,-31.392 z"
   id="path29"
   inkscape:connector-curvature="0"
   style="fill:#2d9a29" />
<path
   d="m 117.1086,274.176 c 0,0 29.304,5.76 57.168,-0.576 4.392,-0.936 8.64,-2.304 12.888,-3.888 1.44,2.016 6.552,10.008 11.52,31.392 4.176,18.288 2.088,32.256 2.088,32.256 0,0 -39.096,19.224 -60.768,12.816 -0.144,0 -0.576,-0.144 -1.008,-0.288 -4.68,-42.264 -21.888,-71.712 -21.888,-71.712 z"
   id="path31"
   inkscape:connector-curvature="0"
   style="fill:#ffffff" />
<path
   d="m 51.876601,372.888 -32.112,-0.864 0.288,-12.24 c 0,-1.8 0.144,-3.528 0.36,-5.256 0.288,-1.656 1.008,-3.168 2.088,-4.464 0.864,-0.936 1.944,-1.656 3.024,-2.016 1.08,-0.432 2.16,-0.648 3.24,-0.576 1.944,0.072 3.456,0.576 4.536,1.512 1.08,0.864 1.8,1.872 2.304,2.952 0.432,1.008 0.72,1.872 0.792,2.376 0.216,-1.512 0.648,-2.664 1.296,-3.456 0.648,-0.72 1.512,-1.224 2.52,-1.512 1.08,-0.216 2.304,-0.432 3.744,-0.576 1.8,-0.216 3.24,-0.36 4.176,-0.432 0.936,-0.216 1.584,-0.288 2.016,-0.36 0.72,-0.144 1.224,-0.288 1.512,-0.432 0.288,-0.144 0.576,-0.36 0.864,-0.504 l -0.216,7.632 c -0.504,0 -1.224,0.144 -2.304,0.216 -1.08,0.144 -2.232,0.288 -3.528,0.432 -1.224,0.144 -2.304,0.288 -3.312,0.432 -1.008,0.072 -1.656,0.216 -2.016,0.36 -0.936,0.288 -1.44,0.792 -1.656,1.44 -0.216,0.72 -0.288,1.368 -0.288,1.944 l -0.144,6.048 12.96,0.288 -0.144,7.056 0,0 z m -26.856,-7.488 8.928,0.216 0.144,-5.544 c 0.072,-0.432 0,-1.008 -0.072,-1.656 -0.072,-0.648 -0.288,-1.296 -0.72,-1.872 -0.144,-0.288 -0.504,-0.648 -1.08,-1.08 -0.648,-0.432 -1.512,-0.72 -2.592,-0.792 -1.08,0 -1.944,0.216 -2.52,0.576 -0.576,0.36 -0.936,0.648 -1.152,1.008 -0.36,0.504 -0.576,1.152 -0.648,1.872 -0.144,0.648 -0.144,1.584 -0.216,2.664 l -0.072,4.608 z"
   id="path33"
   inkscape:connector-curvature="0" />
<polygon
   points="154.08,443.032 157.896,428.488 163.008,429.784 157.536,451.024 126.504,443.032 131.832,422.224 136.872,423.52 133.272,437.704 140.616,439.576 144.072,426.328 149.112,427.696 145.728,440.872 "
   id="polygon35"
   transform="translate(-103.5714,-112.624)" />
<path
   d="m 37.476601,286.344 3.672,-7.272 33.696,4.32 -3.096,6.12 -7.272,-1.008 -5.616,11.376 5.112,5.256 -2.952,5.832 -23.544,-24.624 0,0 z m 17.496,9.648 4.104,-8.208 -14.184,-2.16 10.08,10.368 z"
   id="path37"
   inkscape:connector-curvature="0" />
<polygon
   points="183.96,379.816 192.744,369.16 196.92,372.616 183.744,388.672 158.976,368.296 163.44,362.896 "
   id="polygon39"
   transform="translate(-103.5714,-112.624)" />
<path
   d="M 111.1326,243.648 93.852601,216.576 104.2206,209.952 c 1.512,-1.008 3.024,-1.872 4.536,-2.592 1.584,-0.72 3.168,-1.008 4.824,-0.792 1.368,0.216 2.448,0.648 3.456,1.368 0.936,0.648 1.656,1.44 2.232,2.304 1.008,1.728 1.44,3.24 1.296,4.68 -0.144,1.368 -0.504,2.52 -1.152,3.528 -0.576,0.936 -1.152,1.584 -1.512,2.016 1.368,-0.72 2.592,-1.008 3.6,-0.864 0.936,0.144 1.872,0.504 2.664,1.296 0.792,0.72 1.656,1.584 2.52,2.664 1.224,1.44 2.16,2.52 2.736,3.24 0.648,0.72 1.152,1.224 1.44,1.512 0.504,0.504 0.936,0.792 1.224,1.008 0.288,0.144 0.576,0.288 0.864,0.432 l -6.408,4.032 c -0.36,-0.36 -0.864,-0.936 -1.584,-1.728 -0.648,-0.864 -1.44,-1.728 -2.232,-2.664 -0.792,-0.936 -1.512,-1.8 -2.232,-2.592 -0.648,-0.72 -1.152,-1.224 -1.44,-1.44 -0.72,-0.576 -1.44,-0.72 -2.088,-0.504 -0.72,0.144 -1.296,0.432 -1.8,0.792 l -5.112,3.312 6.984,10.872 -5.904,3.816 0,0 z m -8.784,-26.424 4.824,7.488 4.68,-2.952 c 0.36,-0.216 0.792,-0.504 1.296,-0.936 0.504,-0.504 0.936,-1.008 1.152,-1.728 0.144,-0.288 0.288,-0.792 0.288,-1.512 0.072,-0.72 -0.216,-1.584 -0.792,-2.52 -0.576,-0.936 -1.224,-1.512 -1.872,-1.8 -0.576,-0.288 -1.08,-0.36 -1.512,-0.36 -0.576,0 -1.224,0.144 -1.872,0.432 -0.648,0.288 -1.44,0.792 -2.304,1.368 l -3.888,2.52 z"
   id="path41"
   inkscape:connector-curvature="0" />
<path
   d="m 139.2846,192.672 7.704,-2.664 21.096,26.64 -6.552,2.304 -4.464,-5.832 -12.024,4.176 v 7.344 l -6.192,2.16 0.432,-34.128 0,0 z m 5.76,19.152 8.64,-3.024 -8.64,-11.448 v 14.472 z"
   id="path43"
   inkscape:connector-curvature="0" />
<path
   d="m 200.2686,192.384 -6.984,0.504 c -0.072,-0.36 -0.216,-1.008 -0.504,-1.872 -0.288,-0.864 -0.864,-1.656 -1.656,-2.376 -0.792,-0.72 -1.944,-1.008 -3.456,-0.936 -1.656,0.144 -3.024,0.792 -4.032,1.944 -0.936,1.152 -1.584,2.664 -1.944,4.464 -0.36,1.8 -0.504,3.888 -0.288,6.048 0,0.504 0.144,1.368 0.288,2.52 0.216,1.152 0.504,2.376 1.08,3.6 0.432,1.296 1.224,2.376 2.232,3.24 1.008,0.792 2.304,1.152 3.96,1.08 1.512,-0.072 2.736,-0.648 3.816,-1.728 1.008,-1.08 1.512,-2.664 1.44,-4.752 l 7.2,-0.576 c 0.072,0.936 0,2.16 -0.216,3.528 -0.216,1.368 -0.864,2.736 -2.016,4.248 -1.368,1.512 -2.808,2.592 -4.392,3.24 -1.656,0.576 -3.168,0.936 -4.68,1.08 -3.672,0.216 -6.624,-0.36 -8.856,-1.728 -2.304,-1.368 -3.96,-3.24 -5.112,-5.616 -1.08,-2.376 -1.728,-4.896 -1.872,-7.56 -0.288,-3.456 0.072,-6.408 1.08,-9.072 0.936,-2.592 2.521,-4.68 4.536,-6.264 2.088,-1.512 4.608,-2.448 7.632,-2.736 3.6,-0.216 6.48,0.504 8.856,2.232 2.304,1.728 3.6,4.248 3.888,7.488 z"
   id="path45"
   inkscape:connector-curvature="0" />
<polygon
   points="316.296,293.704 323.136,294.28 320.616,326.32 313.776,325.816 "
   id="polygon47"
   transform="translate(-103.5714,-112.624)" />
<polygon
   points="337.104,329.056 330.84,327.472 338.832,296.368 348.48,298.816 353.808,326.32 360.072,301.84 366.336,303.424 358.272,334.528 349.128,332.152 343.728,303.28 "
   id="polygon49"
   transform="translate(-103.5714,-112.624)" />
<path
   d="m 301.4286,220.896 -6.192,-3.528 c 0.144,-0.36 0.36,-0.792 0.576,-1.368 0.144,-0.504 0.216,-1.152 0.216,-1.872 -0.144,-1.224 -0.576,-2.304 -1.296,-3.096 -0.72,-0.792 -1.44,-1.368 -2.16,-1.728 -1.728,-0.936 -3.24,-1.368 -4.752,-1.296 -1.44,0.072 -2.736,0.504 -3.96,1.296 -1.224,0.72 -2.232,1.656 -3.168,2.736 -0.936,1.08 -1.656,2.232 -2.304,3.312 -0.36,0.648 -0.72,1.44 -1.152,2.376 -0.36,0.936 -0.648,1.944 -0.864,3.096 -0.144,1.08 -0.144,2.232 0.144,3.312 0.216,1.152 0.72,2.232 1.512,3.24 0.792,1.008 2.016,1.944 3.672,2.88 1.44,0.792 2.52,1.296 3.24,1.584 0.72,0.216 1.296,0.36 1.656,0.432 l 3.312,-5.832 -5.4,-3.096 2.592,-4.608 11.376,6.408 -7.848,13.968 c -1.008,-0.144 -2.448,-0.504 -4.176,-1.08 -1.872,-0.576 -4.104,-1.584 -6.912,-3.168 -3.096,-1.8 -5.4,-3.528 -6.912,-5.256 -1.44,-1.728 -2.376,-3.384 -2.88,-5.112 -0.432,-1.656 -0.576,-3.168 -0.432,-4.752 0.216,-1.512 0.504,-2.952 1.008,-4.32 0.504,-1.296 1.08,-2.448 1.656,-3.456 1.872,-3.312 4.104,-5.688 6.624,-7.272 2.52,-1.512 5.184,-2.232 8.064,-2.16 2.808,0.072 5.688,0.864 8.496,2.52 1.872,1.008 3.456,2.304 4.824,3.816 1.368,1.44 2.304,3.168 2.736,5.04 0.288,1.584 0.216,2.952 -0.072,4.104 -0.36,1.152 -0.792,2.088 -1.224,2.88 z"
   id="path51"
   inkscape:connector-curvature="0" />
<path
   d="m 342.9726,264.528 -4.464,-5.4 c 0.36,-0.288 0.792,-0.792 1.296,-1.512 0.576,-0.72 0.864,-1.656 1.008,-2.664 0.144,-1.08 -0.288,-2.16 -1.224,-3.384 -1.08,-1.296 -2.376,-2.016 -3.888,-2.16 -1.512,-0.144 -3.096,0.144 -4.824,0.864 -1.656,0.792 -3.384,1.872 -5.112,3.312 -0.432,0.288 -1.008,0.864 -1.872,1.656 -0.864,0.864 -1.656,1.8 -2.376,2.952 -0.72,1.152 -1.224,2.376 -1.296,3.672 -0.144,1.296 0.288,2.592 1.368,3.888 0.864,1.152 2.088,1.872 3.528,2.088 1.512,0.288 3.096,-0.216 4.824,-1.512 l 4.608,5.616 c -0.792,0.576 -1.8,1.152 -3.024,1.8 -1.296,0.576 -2.808,0.864 -4.68,0.72 -2.016,-0.144 -3.744,-0.792 -5.184,-1.728 -1.44,-0.936 -2.592,-2.016 -3.528,-3.168 -2.304,-2.88 -3.528,-5.616 -3.672,-8.28 -0.216,-2.664 0.36,-5.112 1.656,-7.344 1.296,-2.232 3.024,-4.248 5.112,-5.976 2.664,-2.088 5.328,-3.528 7.992,-4.248 2.736,-0.648 5.328,-0.648 7.776,0.144 2.448,0.792 4.68,2.376 6.624,4.68 2.232,2.808 3.312,5.616 3.24,8.496 -0.072,2.88 -1.368,5.4 -3.888,7.488 z"
   id="path53"
   inkscape:connector-curvature="0" />
<polygon
   points="443.52,401.344 450.072,413.44 445.32,416.104 435.384,397.816 463.536,382.552 466.848,388.744 "
   id="polygon55"
   transform="translate(-103.5714,-112.624)" />
<path
   d="m 376.3806,303.84 1.728,6.696 -18.864,4.896 c -1.224,0.288 -2.304,0.72 -3.456,1.224 -1.08,0.504 -1.872,1.368 -2.376,2.52 -0.576,1.224 -0.576,2.88 -0.072,4.968 0.072,0.432 0.288,0.936 0.504,1.656 0.288,0.648 0.72,1.368 1.296,2.088 0.648,0.648 1.44,1.224 2.448,1.584 0.504,0.216 1.224,0.288 2.016,0.288 0.864,-0.072 2.016,-0.288 3.528,-0.648 l 18.576,-4.824 1.656,6.48 -19.368,5.04 c -3.024,0.72 -5.688,0.648 -7.776,-0.288 -2.16,-0.864 -3.888,-2.304 -5.184,-4.176 -1.296,-1.872 -2.232,-3.816 -2.736,-5.976 -0.288,-1.08 -0.504,-2.376 -0.648,-3.888 -0.144,-1.512 0.072,-3.096 0.432,-4.68 0.432,-1.584 1.296,-3.096 2.52,-4.536 1.008,-1.008 2.088,-1.8 3.24,-2.304 1.224,-0.504 2.592,-0.936 4.032,-1.296 l 18.504,-4.824 z"
   id="path57"
   inkscape:connector-curvature="0" />
<path
   d="m 353.2686,350.208 32.04,-0.864 0.288,11.952 c 0.072,0.648 0.072,1.44 0,2.376 0,0.864 -0.072,1.872 -0.288,2.808 -0.216,1.008 -0.504,1.944 -1.008,2.736 -0.936,1.512 -2.016,2.52 -3.312,3.024 -1.296,0.504 -2.448,0.792 -3.384,0.792 -0.648,0 -1.368,-0.072 -2.304,-0.288 -0.936,-0.144 -1.728,-0.648 -2.592,-1.44 -0.144,-0.144 -0.504,-0.504 -1.008,-1.152 -0.504,-0.72 -0.936,-1.512 -1.224,-2.448 h -0.072 c -0.432,2.448 -1.44,4.248 -2.88,5.328 -1.44,1.08 -3.024,1.656 -4.752,1.656 -1.872,0.072 -3.528,-0.36 -4.752,-1.296 -1.296,-0.864 -2.304,-1.944 -2.952,-3.168 -0.432,-0.864 -0.792,-1.8 -1.008,-2.88 -0.144,-1.08 -0.288,-2.16 -0.36,-3.096 -0.072,-0.936 -0.144,-1.656 -0.144,-2.088 l -0.288,-11.952 0,0 z m 27.288,5.832 -8.136,0.216 0.144,4.824 c 0,0.648 0.072,1.368 0.216,2.232 0.144,0.864 0.504,1.584 1.08,2.16 0.648,0.648 1.584,0.936 2.952,0.936 1.296,0 2.232,-0.36 2.808,-1.008 0.504,-0.648 0.864,-1.368 0.936,-2.232 0.144,-0.864 0.144,-1.728 0.144,-2.52 l -0.144,-4.608 0,0 z m -13.104,0.36 -8.856,0.216 0.072,4.68 c 0.072,1.08 0.144,2.088 0.288,3.096 0.144,1.008 0.576,1.872 1.152,2.52 0.648,0.648 1.656,0.936 3.096,0.936 1.512,-0.072 2.52,-0.432 3.168,-1.296 0.648,-0.72 1.008,-1.656 1.08,-2.808 0.144,-1.152 0.144,-2.304 0.072,-3.384 l -0.072,-3.96 z"
   id="path59"
   inkscape:connector-curvature="0" />
<path
   d="m 61.164601,463.824 4.536,5.328 c -0.504,0.36 -1.008,0.864 -1.656,1.584 -0.576,0.72 -0.936,1.728 -1.008,2.808 -0.072,1.152 0.504,2.448 1.728,3.96 1.224,1.44 2.448,2.304 3.816,2.592 1.224,0.288 2.448,0.072 3.528,-0.792 1.008,-0.864 1.368,-1.872 1.152,-3.024 -0.216,-1.08 -0.792,-2.592 -1.8,-4.392 -1.152,-2.376 -2.016,-4.464 -2.52,-6.264 -0.504,-1.872 -0.576,-3.528 -0.216,-4.968 0.36,-1.512 1.224,-2.808 2.592,-4.032 1.368,-1.08 2.88,-1.8 4.608,-2.088 1.728,-0.288 3.456,0 5.4,0.792 1.872,0.864 3.744,2.448 5.688,4.68 1.152,1.296 2.016,2.736 2.736,4.464 0.72,1.656 0.936,3.456 0.576,5.328 -0.36,1.368 -0.864,2.52 -1.584,3.384 -0.72,0.864 -1.296,1.44 -1.8,1.8 l -4.176,-5.04 c 0.288,-0.288 0.648,-0.72 1.08,-1.368 0.432,-0.648 0.72,-1.512 0.72,-2.448 0,-0.936 -0.432,-2.088 -1.44,-3.24 -1.08,-1.224 -2.16,-1.944 -3.384,-2.232 -1.152,-0.216 -2.304,0.144 -3.312,0.936 -0.72,0.648 -1.152,1.296 -1.224,2.088 -0.072,0.72 0.072,1.584 0.504,2.592 0.36,1.008 0.936,2.232 1.656,3.672 0.864,1.656 1.584,3.312 2.16,5.04 0.576,1.656 0.792,3.24 0.576,4.752 -0.216,1.584 -1.08,3.024 -2.664,4.392 -1.44,1.224 -3.168,1.944 -5.04,2.16 -1.8,0.216 -3.744,-0.144 -5.76,-1.152 -2.016,-0.936 -3.96,-2.52 -5.904,-4.752 -1.872,-2.376 -3.096,-4.464 -3.528,-6.264 -0.504,-1.872 -0.504,-3.384 -0.072,-4.752 0.432,-1.368 1.08,-2.52 1.872,-3.384 0.792,-0.936 1.512,-1.656 2.16,-2.16 z"
   id="path61"
   inkscape:connector-curvature="0" />
<path
   d="m 107.9646,480.744 6.48,4.824 -10.368,32.184 -5.471999,-4.104 2.303999,-6.912 -10.151999,-7.56 -5.976,4.032 -5.256,-3.888 28.439999,-18.576 0,0 z m -12.671999,15.336 7.343999,5.544 4.68,-13.536 -12.023999,7.992 z"
   id="path63"
   inkscape:connector-curvature="0" />
<polygon
   points="225.576,640.312 219.672,637.648 232.704,608.488 241.704,612.52 242.424,640.312 252.648,617.416 258.48,619.936 245.52,649.168 236.88,645.352 236.376,616.048 "
   id="polygon65"
   transform="translate(-103.5714,-112.624)" />
<polygon
   points="273.024,628.504 263.736,626.632 264.744,621.448 290.16,626.416 289.08,631.6 279.792,629.8 274.752,655.936 267.912,654.64 "
   id="polygon67"
   transform="translate(-103.5714,-112.624)" />
<path
   d="m 197.2446,514.008 8.064,0.144 10.584,32.112 -6.912,-0.072 -2.16,-6.984 -12.6,-0.216 -2.52,6.84 -6.48,-0.072 12.024,-31.752 0,0 z m -1.152,19.872 9.072,0.144 -4.104,-13.68 -4.968,13.536 z"
   id="path69"
   inkscape:connector-curvature="0" />
<polygon
   points="337.176,656.008 330.84,657.376 324.216,626.128 333.936,624.04 350.856,646.144 345.6,621.592 351.792,620.224 358.488,651.472 349.272,653.488 331.632,630.088 "
   id="polygon71"
   transform="translate(-103.5714,-112.624)" />
<path
   d="m 269.8926,533.448 -13.968,-28.656 9.504,-4.536 c 0.576,-0.288 1.44,-0.648 2.592,-1.152 1.08,-0.432 2.448,-0.792 3.96,-1.08 1.512,-0.288 3.024,-0.288 4.608,0 2.448,0.504 4.536,1.584 6.264,3.24 1.728,1.656 3.096,3.528 4.104,5.616 1.44,2.952 2.16,5.688 2.232,8.136 0.072,2.448 -0.432,4.68 -1.368,6.552 -1.008,1.944 -2.304,3.456 -4.032,4.68 -0.432,0.36 -1.008,0.792 -1.728,1.152 -0.72,0.432 -1.8,1.008 -3.24,1.656 l -8.928,4.392 0,0 z m -5.472,-27 9.36,19.224 c 0.432,-0.144 0.792,-0.288 1.296,-0.504 0.432,-0.216 0.864,-0.432 1.224,-0.576 1.296,-0.648 2.448,-1.296 3.456,-2.088 1.008,-0.792 1.728,-1.872 2.232,-3.168 0.36,-1.224 0.504,-2.448 0.36,-3.744 -0.144,-1.224 -0.432,-2.376 -0.792,-3.384 -0.36,-1.008 -0.72,-1.728 -0.936,-2.232 -1.008,-2.088 -2.304,-3.744 -3.888,-4.968 -1.584,-1.224 -3.528,-1.656 -5.688,-1.296 -0.72,0.072 -1.512,0.36 -2.592,0.72 -0.936,0.432 -2.304,1.08 -4.032,2.016 z"
   id="path73"
   inkscape:connector-curvature="0" />
<polygon
   points="411.48,618.856 423.504,609.784 426.672,614.032 409.176,627.136 389.952,601.648 407.088,588.832 410.184,592.936 398.592,601.72 403.128,607.768 414,599.56 417.168,603.736 406.296,611.944 "
   id="polygon75"
   transform="translate(-103.5714,-112.624)" />
<path
   d="m 334.5486,490.752 -24.48,-20.52 7.848,-9.36 c 1.152,-1.44 2.304,-2.736 3.528,-3.888 1.296,-1.08 2.736,-1.8 4.392,-2.16 1.296,-0.144 2.52,-0.072 3.6,0.288 1.152,0.36 2.088,0.864 2.88,1.512 1.44,1.368 2.376,2.664 2.592,4.032 0.288,1.368 0.288,2.592 0,3.672 -0.36,1.152 -0.648,1.944 -0.864,2.448 1.08,-1.08 2.16,-1.728 3.096,-1.944 1.008,-0.144 1.944,0 2.952,0.432 1.008,0.432 2.088,1.08 3.24,1.8 1.584,1.08 2.736,1.8 3.6,2.304 0.792,0.432 1.368,0.792 1.728,1.008 0.648,0.288 1.152,0.432 1.512,0.576 0.288,0 0.648,0.072 0.864,0.072 l -4.824,5.832 c -0.432,-0.216 -1.08,-0.648 -2.016,-1.224 -0.864,-0.576 -1.8,-1.152 -2.88,-1.872 -1.08,-0.648 -2.016,-1.224 -2.88,-1.728 -0.864,-0.504 -1.512,-0.864 -1.8,-1.008 -0.936,-0.288 -1.656,-0.216 -2.232,0.144 -0.576,0.432 -1.008,0.864 -1.368,1.368 l -3.888,4.608 9.864,8.28 -4.464,5.328 0,0 z m -16.272,-22.464 6.84,5.76 3.528,-4.248 c 0.288,-0.36 0.648,-0.792 1.008,-1.296 0.36,-0.576 0.504,-1.224 0.576,-1.944 0.072,-0.288 0,-0.864 -0.216,-1.584 -0.144,-0.72 -0.648,-1.44 -1.512,-2.16 -0.792,-0.648 -1.584,-1.008 -2.232,-1.08 -0.72,-0.144 -1.224,-0.072 -1.584,0.072 -0.576,0.144 -1.152,0.504 -1.656,1.008 -0.504,0.432 -1.08,1.08 -1.8,1.944 l -2.952,3.528 z"
   id="path77"
   inkscape:connector-curvature="0" />
<path
   d="m 176.9406,309.96 6.12,10.296 c 3.384,-2.016 6.264,-4.608 7.776,-7.848 l 3.24,1.512 c -1.8,3.888 -5.184,7.056 -9.144,9.432 l 3.888,6.552 -3.816,1.656 -3.672,-6.264 c -3.456,1.656 -7.056,2.808 -10.296,3.456 -4.248,0.936 -7.992,1.44 -11.16,1.512 l 1.872,8.136 -4.536,1.008 -1.944,-9.288 c -3.024,-0.36 -5.472,-1.152 -7.488,-2.304 -4.896,-2.808 -7.2,-8.424 -7.56,-13.824 -0.36,-4.752 1.584,-8.784 5.4,-11.952 0.576,-0.432 1.08,-0.864 1.656,-1.224 l -1.224,-3.672 -4.176,-10.008 15.336,-1.368 9.36,-1.44 c 7.128,-0.864 13.176,4.968 14.832,11.52 3.24,0.504 6.408,1.368 9.288,2.736 l -1.584,3.24 c -2.232,-1.08 -4.68,-1.8 -7.2,-2.232 0.144,5.256 -2.232,9.144 -4.968,10.368 l 0,0 z m 2.592,12.168 -6.336,-11.016 c -5.76,1.224 -11.376,1.728 -17.136,2.304 l 3.024,13.248 c 3.096,0 6.768,-0.432 11.16,-1.44 2.88,-0.576 6.192,-1.584 9.288,-3.096 l 0,0 z m -24.984,4.248 -0.864,-4.032 -3.312,-12.312 -1.872,-5.616 c -0.216,0.144 -0.36,0.288 -0.576,0.432 -2.88,2.376 -4.392,5.4 -4.104,8.856 0.288,4.176 1.944,8.784 5.76,11.016 1.368,0.792 2.952,1.368 4.968,1.656 l 0,0 z m -3.24,-27.72 c 4.464,-1.944 9.504,-2.808 14.256,-3.168 3.672,-0.288 7.704,-0.432 11.664,-0.144 -1.44,-3.744 -5.184,-7.56 -9.216,-7.416 -6.696,0.936 -13.248,1.728 -20.016,2.088 l 3.312,8.64 0,0 z m 26.712,0.36 c -4.104,-0.36 -8.352,-0.216 -12.168,0.072 -4.392,0.36 -9.216,1.08 -13.32,2.952 l 2.448,7.488 c 5.904,-0.432 11.52,-1.08 17.352,-2.232 4.248,-0.576 6.192,-3.6 5.688,-8.28 z"
   id="path79"
   inkscape:connector-curvature="0" />
<path
   d="m 157.7166,443.592 c 0,-2.952 0.288,-5.832 0.864,-8.64 2.52,-2.376 14.256,-11.736 33.624,-4.896 1.872,2.52 9.936,15.192 -5.4,24.912 -14.4,-9.576 -22.392,-1.008 -25.992,5.184 -2.016,-5.112 -3.096,-10.656 -3.096,-16.56 l 0,0 z m 2.592,-15.12 c 6.048,-3.672 17.208,-7.776 32.472,-2.664 14.904,-18.432 -2.088,-24.048 -5.112,-24.84 -12.744,4.608 -22.824,14.76 -27.36,27.504 l 0,0 z m 34.128,-29.376 c 6.984,3.672 15.624,12.096 1.728,29.304 2.952,4.464 10.224,18.504 -6.336,29.592 0.36,2.376 3.168,15.84 20.52,10.08 3.24,-2.448 34.488,-27.72 4.176,-68.328 -3.672,-0.936 -7.56,-1.44 -11.52,-1.44 -2.88,0 -5.76,0.288 -8.568,0.792 l 0,0 z m 26.856,3.024 c 15.912,7.056 27,22.968 27,41.472 0,14.328 -6.624,27.072 -16.92,35.352 -10.944,2.592 -16.056,-4.608 -17.856,-8.064 5.544,-4.464 33.336,-29.664 7.776,-68.76 l 0,0 z m 3.096,81.432 c -8.568,-1.008 -12.96,-7.56 -14.688,-10.944 -18.576,5.256 -22.896,-8.496 -23.832,-13.176 -14.328,-10.512 -20.952,1.296 -22.752,5.616 7.632,14.184 22.68,23.904 39.888,23.904 7.704,0 14.976,-1.944 21.384,-5.4 z"
   id="path81"
   inkscape:connector-curvature="0"
   style="fill:#752009" />
<path
   d="m 158.4366,165.816 c -14.76,3.312 -28.872,8.208 -42.192,14.544 -1.728,0.792 -3.384,0 -4.176,-1.656 -0.864,-1.8 -0.288,-4.032 1.584,-4.968 13.752,-6.48 28.224,-11.448 43.416,-14.904 30.24,-6.696 61.632,-6.696 91.8,0.072 15.192,3.384 29.808,8.424 43.488,14.832 1.872,0.936 2.448,3.168 1.584,4.968 -0.792,1.656 -2.448,2.448 -4.176,1.656 -13.32,-6.336 -27.504,-11.232 -42.264,-14.544 -29.232,-6.552 -59.832,-6.552 -89.064,0 z"
   id="path83"
   inkscape:connector-curvature="0" />
<path
   d="m 158.2926,140.976 c -14.904,2.952 -29.232,7.344 -42.84,13.104 -1.728,0.72 -3.6,-0.432 -4.248,-2.016 -0.648,-1.728 0,-3.888 1.728,-4.608 14.04,-5.904 28.8,-10.44 44.064,-13.464 30.312,-6.048 61.704,-6.048 92.016,0 15.264,3.024 30.024,7.56 44.064,13.464 1.728,0.72 2.376,2.88 1.728,4.608 -0.648,1.584 -2.52,2.736 -4.248,2.016 -13.608,-5.76 -27.936,-10.152 -42.84,-13.104 -29.448,-5.904 -59.976,-5.904 -89.424,0 z"
   id="path85"
   inkscape:connector-curvature="0" />
<path
   d="m 247.7166,164.808 c 14.904,3.312 29.088,8.28 42.48,14.616 1.224,0.576 2.304,0 2.808,-1.152 0.648,-1.296 0.288,-2.952 -1.08,-3.6 -13.68,-6.408 -28.152,-11.448 -43.272,-14.76 -30.024,-6.768 -61.344,-6.768 -91.368,-0.072 -15.048,3.384 -29.52,8.424 -43.2,14.832 -1.368,0.648 -1.728,2.304 -1.08,3.6 0.504,1.152 1.584,1.728 2.808,1.152 13.392,-6.336 27.576,-11.304 42.408,-14.616 29.376,-6.624 60.12,-6.624 89.496,0 z"
   id="path87"
   inkscape:connector-curvature="0"
   style="fill:#d9b231" />
<path
   d="m 247.9326,139.968 c 14.904,2.952 29.304,7.416 43.056,13.176 1.152,0.432 2.448,-0.432 2.88,-1.512 0.432,-1.08 0,-2.736 -1.224,-3.24 -13.968,-5.832 -28.656,-10.368 -43.848,-13.392 -30.168,-5.976 -61.416,-5.976 -91.584,0 -15.192,3.024 -29.88,7.56 -43.848,13.392 -1.224,0.504 -1.656,2.16 -1.224,3.24 0.432,1.08 1.728,1.944 2.88,1.512 13.752,-5.76 28.152,-10.224 43.056,-13.176 29.592,-5.904 60.264,-5.904 89.856,0 z"
   id="path89"
   inkscape:connector-curvature="0"
   style="fill:#d9b231" />
<path
   d="m 194.2926,140.832 c 5.832,0 11.592,0 17.424,0 3.672,0 6.552,2.088 6.552,4.608 0,2.592 -2.88,4.68 -6.552,4.68 -5.832,0 -11.592,0 -17.424,0 -3.672,0 -6.552,-2.088 -6.552,-4.68 0,-2.52 2.88,-4.608 6.552,-4.608 z"
   id="path91"
   inkscape:connector-curvature="0"
   style="fill:#e33820" />
<path
   d="m 149.5086,146.88 c 5.76,-1.08 11.448,-2.232 17.208,-3.384 3.6,-0.648 6.84,0.792 7.344,3.312 0.504,2.52 -2.016,5.112 -5.544,5.76 -5.76,1.152 -11.52,2.304 -17.208,3.384 -3.6,0.72 -6.84,-0.792 -7.344,-3.24 -0.504,-2.52 2.016,-5.112 5.544,-5.832 z"
   id="path93"
   inkscape:connector-curvature="0"
   style="fill:#2d9a29" />
<path
   d="m 106.7406,161.424 c 5.4,-2.16 10.872,-4.392 16.272,-6.624 3.312,-1.368 6.84,-0.504 7.776,1.8 1.008,2.376 -0.936,5.4 -4.32,6.768 -5.4,2.232 -10.8,4.464 -16.2,6.624 -3.384,1.368 -6.912,0.576 -7.848,-1.8 -0.936,-2.376 1.008,-5.4 4.32,-6.768 z"
   id="path95"
   inkscape:connector-curvature="0"
   style="fill:#e33820" />
<path
   d="m 256.5006,146.88 c -5.76,-1.08 -11.448,-2.232 -17.208,-3.384 -3.6,-0.648 -6.84,0.792 -7.344,3.312 -0.504,2.52 2.016,5.112 5.544,5.76 5.76,1.152 11.52,2.304 17.208,3.384 3.6,0.72 6.84,-0.792 7.344,-3.24 0.504,-2.52 -2.016,-5.112 -5.544,-5.832 z"
   id="path97"
   inkscape:connector-curvature="0"
   style="fill:#2d9a29" />
<path
   d="m 299.2686,161.424 c -5.4,-2.16 -10.872,-4.392 -16.272,-6.624 -3.312,-1.368 -6.84,-0.504 -7.776,1.8 -1.008,2.376 0.936,5.4 4.32,6.768 5.4,2.232 10.8,4.464 16.2,6.624 3.384,1.368 6.912,0.576 7.848,-1.8 0.936,-2.376 -1.008,-5.4 -4.32,-6.768 z"
   id="path99"
   inkscape:connector-curvature="0"
   style="fill:#e33820" />
<path
   d="m 198.1806,102.96 c 0,-1.368 0.576,-2.52 1.44,-3.456 l 0,0 c 0.864,-0.864 2.088,-1.368 3.384,-1.368 1.296,0 2.52,0.504 3.384,1.368 0.864,0.936 1.44,2.088 1.44,3.456 0,1.368 -0.576,2.592 -1.44,3.456 -0.864,0.864 -2.088,1.368 -3.384,1.368 -1.296,0 -2.52,-0.504 -3.384,-1.368 l 0,0 c -0.864,-0.864 -1.44,-2.088 -1.44,-3.456 z"
   id="path101"
   inkscape:connector-curvature="0" />
<path
   d="m 199.1886,102.96 c 0,1.08 0.432,2.016 1.152,2.736 l 0,0 c 0.648,0.648 1.656,1.08 2.664,1.08 1.008,0 1.944,-0.432 2.664,-1.08 0.72,-0.72 1.152,-1.656 1.152,-2.736 0,-1.08 -0.432,-2.016 -1.152,-2.664 -0.72,-0.72 -1.656,-1.152 -2.664,-1.152 -1.008,0 -2.016,0.432 -2.664,1.152 l 0,0 c -0.72,0.648 -1.152,1.584 -1.152,2.664 z"
   id="path103"
   inkscape:connector-curvature="0"
   style="fill:#e33820" />
<path
   d="m 86.868601,132.768 c -0.36,-4.32 4.752,-6.768 7.992,-3.96 2.016,1.728 2.232,4.824 0.432,6.84 -1.728,2.016 -4.752,2.232 -6.768,0.432 -0.936,-0.792 -1.584,-1.944 -1.656,-3.312 z"
   id="path105"
   inkscape:connector-curvature="0" />
<path
   d="m 144.9006,109.368 c 1.728,-2.016 4.824,-2.232 6.84,-0.504 2.016,1.8 2.232,4.824 0.432,6.84 -1.728,2.016 -4.824,2.232 -6.84,0.504 -2.016,-1.8 -2.232,-4.824 -0.432,-6.84 z"
   id="path107"
   inkscape:connector-curvature="0" />
<path
   d="m 146.0526,115.416 c 1.584,1.368 3.96,1.224 5.4,-0.36 1.368,-1.584 1.152,-4.032 -0.432,-5.4 -1.584,-1.368 -3.96,-1.224 -5.328,0.36 -1.44,1.584 -1.224,4.032 0.36,5.4 z"
   id="path109"
   inkscape:connector-curvature="0"
   style="fill:#2d9a29" />
<path
   d="m 87.876601,132.696 c 0.072,1.08 0.576,2.016 1.296,2.664 1.584,1.368 4.032,1.152 5.4,-0.432 1.368,-1.584 1.152,-3.96 -0.432,-5.4 -2.52,-2.16 -6.48,-0.216 -6.264,3.168 z"
   id="path111"
   inkscape:connector-curvature="0"
   style="fill:#e33820" />
<path
   d="m 97.092601,83.016 c 2.736,0 4.895999,-2.232 4.895999,-4.896 0,-2.664 -2.159999,-4.824 -4.895999,-4.824 -2.664,0 -4.824,2.16 -4.824,4.824 0,2.664 2.16,4.896 4.824,4.896 z"
   id="path113"
   inkscape:connector-curvature="0" />
<path
   d="m 97.092601,81.936 c 2.16,0 3.815999,-1.728 3.815999,-3.816 0,-2.088 -1.655999,-3.816 -3.815999,-3.816 -2.088,0 -3.816,1.728 -3.816,3.816 0,2.088 1.728,3.816 3.816,3.816 z"
   id="path115"
   inkscape:connector-curvature="0"
   style="fill:#ffffff" />
<path
   d="m 75.564601,121.464 c 2.664,0 4.824,-2.16 4.824,-4.824 0,-2.664 -2.16,-4.896 -4.824,-4.896 -2.736,0 -4.896,2.232 -4.896,4.896 0,2.664 2.16,4.824 4.896,4.824 z"
   id="path117"
   inkscape:connector-curvature="0" />
<path
   d="m 75.564601,120.456 c 2.088,0 3.816,-1.728 3.816,-3.816 0,-2.088 -1.728,-3.816 -3.816,-3.816 -2.16,0 -3.816,1.728 -3.816,3.816 0,2.088 1.656,3.816 3.816,3.816 z"
   id="path119"
   inkscape:connector-curvature="0"
   style="fill:#ffffff" />
<path
   d="m 77.724601,111.672 c 2.664,0 4.824,-2.16 4.824,-4.824 0,-2.664 -2.16,-4.896 -4.824,-4.896 -2.664,0 -4.824,2.232 -4.824,4.896 0,2.664 2.16,4.824 4.824,4.824 z"
   id="path121"
   inkscape:connector-curvature="0" />
<path
   d="m 77.724601,110.664 c 2.088,0 3.816,-1.728 3.816,-3.816 0,-2.16 -1.728,-3.816 -3.816,-3.816 -2.088,0 -3.816,1.656 -3.816,3.816 0,2.088 1.728,3.816 3.816,3.816 z"
   id="path123"
   inkscape:connector-curvature="0"
   style="fill:#ffffff" />
<path
   d="m 82.260601,101.376 c 2.664,0 4.824,-2.232 4.824,-4.896 0,-2.664 -2.16,-4.824 -4.824,-4.824 -2.736,0 -4.896,2.16 -4.896,4.824 0,2.664 2.16,4.896 4.896,4.896 z"
   id="path125"
   inkscape:connector-curvature="0" />
<path
   d="m 82.260601,100.296 c 2.088,0 3.816,-1.656 3.816,-3.816 0,-2.088 -1.728,-3.816 -3.816,-3.816 -2.16,0 -3.816,1.728 -3.816,3.816 0,2.16 1.656,3.816 3.816,3.816 z"
   id="path127"
   inkscape:connector-curvature="0"
   style="fill:#ffffff" />
<path
   d="m 88.020601,90.936 c 2.664,0 4.824,-2.16 4.824,-4.824 0,-2.664 -2.16,-4.896 -4.824,-4.896 -2.664,0 -4.896,2.232 -4.896,4.896 0,2.664 2.232,4.824 4.896,4.824 z"
   id="path129"
   inkscape:connector-curvature="0" />
<path
   d="m 88.020601,89.928 c 2.088,0 3.816,-1.728 3.816,-3.816 0,-2.088 -1.728,-3.816 -3.816,-3.816 -2.16,0 -3.816,1.728 -3.816,3.816 0,2.088 1.656,3.816 3.816,3.816 z"
   id="path131"
   inkscape:connector-curvature="0"
   style="fill:#ffffff" />
<path
   d="m 106.8846,75.672 c 2.664,0 4.824,-2.16 4.824,-4.824 0,-2.736 -2.16,-4.896 -4.824,-4.896 -2.664,0 -4.896,2.16 -4.896,4.896 0,2.664 2.232,4.824 4.896,4.824 z"
   id="path133"
   inkscape:connector-curvature="0" />
<path
   d="m 106.8846,74.664 c 2.088,0 3.816,-1.728 3.816,-3.816 0,-2.16 -1.728,-3.816 -3.816,-3.816 -2.16,0 -3.816,1.656 -3.816,3.816 0,2.088 1.656,3.816 3.816,3.816 z"
   id="path135"
   inkscape:connector-curvature="0"
   style="fill:#ffffff" />
<path
   d="m 118.1166,70.56 c 2.664,0 4.896,-2.16 4.896,-4.896 0,-2.664 -2.232,-4.824 -4.896,-4.824 -2.664,0 -4.824,2.16 -4.824,4.824 0,2.736 2.16,4.896 4.824,4.896 z"
   id="path137"
   inkscape:connector-curvature="0" />
<path
   d="m 118.1166,69.48 c 2.16,0 3.816,-1.656 3.816,-3.816 0,-2.088 -1.656,-3.816 -3.816,-3.816 -2.088,0 -3.816,1.728 -3.816,3.816 0,2.16 1.728,3.816 3.816,3.816 z"
   id="path139"
   inkscape:connector-curvature="0"
   style="fill:#ffffff" />
<path
   d="m 130.1406,68.904 c 2.664,0 4.896,-2.16 4.896,-4.824 0,-2.664 -2.232,-4.896 -4.896,-4.896 -2.664,0 -4.824,2.232 -4.824,4.896 0,2.664 2.16,4.824 4.824,4.824 z"
   id="path141"
   inkscape:connector-curvature="0" />
<path
   d="m 130.1406,67.896 c 2.088,0 3.816,-1.728 3.816,-3.816 0,-2.088 -1.728,-3.816 -3.816,-3.816 -2.088,0 -3.816,1.728 -3.816,3.816 0,2.088 1.728,3.816 3.816,3.816 z"
   id="path143"
   inkscape:connector-curvature="0"
   style="fill:#ffffff" />
<path
   d="m 142.2366,68.832 c 2.664,0 4.896,-2.16 4.896,-4.824 0,-2.664 -2.232,-4.824 -4.896,-4.824 -2.664,0 -4.824,2.16 -4.824,4.824 0,2.664 2.16,4.824 4.824,4.824 z"
   id="path145"
   inkscape:connector-curvature="0" />
<path
   d="m 142.2366,67.824 c 2.088,0 3.816,-1.728 3.816,-3.816 0,-2.088 -1.728,-3.816 -3.816,-3.816 -2.088,0 -3.816,1.728 -3.816,3.816 0,2.088 1.728,3.816 3.816,3.816 z"
   id="path147"
   inkscape:connector-curvature="0"
   style="fill:#ffffff" />
<path
   d="m 153.1806,69.768 c 2.664,0 4.824,-2.232 4.824,-4.896 0,-2.664 -2.16,-4.824 -4.824,-4.824 -2.736,0 -4.896,2.16 -4.896,4.824 0,2.664 2.16,4.896 4.896,4.896 z"
   id="path149"
   inkscape:connector-curvature="0" />
<path
   d="m 153.1806,68.688 c 2.088,0 3.816,-1.728 3.816,-3.816 0,-2.088 -1.728,-3.816 -3.816,-3.816 -2.16,0 -3.816,1.728 -3.816,3.816 0,2.088 1.656,3.816 3.816,3.816 z"
   id="path151"
   inkscape:connector-curvature="0"
   style="fill:#ffffff" />
<path
   d="m 160.3086,63.216 c 2.664,0 4.824,-2.16 4.824,-4.824 0,-2.664 -2.16,-4.896 -4.824,-4.896 -2.664,0 -4.824,2.232 -4.824,4.896 0,2.664 2.16,4.824 4.824,4.824 z"
   id="path153"
   inkscape:connector-curvature="0" />
<path
   d="m 160.3086,62.208 c 2.088,0 3.816,-1.728 3.816,-3.816 0,-2.088 -1.728,-3.816 -3.816,-3.816 -2.088,0 -3.816,1.728 -3.816,3.816 0,2.088 1.728,3.816 3.816,3.816 z"
   id="path155"
   inkscape:connector-curvature="0"
   style="fill:#ffffff" />
<path
   d="m 144.7566,83.88 c 2.664,0 4.824,-2.16 4.824,-4.824 0,-2.664 -2.16,-4.896 -4.824,-4.896 -2.664,0 -4.896,2.232 -4.896,4.896 0,2.664 2.232,4.824 4.896,4.824 z"
   id="path157"
   inkscape:connector-curvature="0" />
<path
   d="m 144.7566,82.872 c 2.088,0 3.816,-1.728 3.816,-3.816 0,-2.088 -1.728,-3.816 -3.816,-3.816 -2.088,0 -3.816,1.728 -3.816,3.816 0,2.088 1.728,3.816 3.816,3.816 z"
   id="path159"
   inkscape:connector-curvature="0"
   style="fill:#ffffff" />
<path
   d="m 140.5806,94.104 c 2.664,0 4.896,-2.16 4.896,-4.824 0,-2.664 -2.232,-4.824 -4.896,-4.824 -2.664,0 -4.824,2.16 -4.824,4.824 0,2.664 2.16,4.824 4.824,4.824 z"
   id="path161"
   inkscape:connector-curvature="0" />
<path
   d="m 140.5806,93.096 c 2.16,0 3.816,-1.728 3.816,-3.816 0,-2.088 -1.656,-3.816 -3.816,-3.816 -2.088,0 -3.816,1.728 -3.816,3.816 0,2.088 1.728,3.816 3.816,3.816 z"
   id="path163"
   inkscape:connector-curvature="0"
   style="fill:#ffffff" />
<path
   d="m 170.2446,56.952 c 2.664,0 4.896,-2.232 4.896,-4.896 0,-2.664 -2.232,-4.824 -4.896,-4.824 -2.664,0 -4.824,2.16 -4.824,4.824 0,2.664 2.16,4.896 4.824,4.896 z"
   id="path165"
   inkscape:connector-curvature="0" />
<path
   d="m 170.2446,55.872 c 2.16,0 3.816,-1.656 3.816,-3.816 0,-2.088 -1.656,-3.816 -3.816,-3.816 -2.088,0 -3.816,1.728 -3.816,3.816 0,2.16 1.728,3.816 3.816,3.816 z"
   id="path167"
   inkscape:connector-curvature="0"
   style="fill:#ffffff" />
<circle
   cx="287.56799"
   cy="160.144"
   r="4.8239999"
   id="circle169"
   sodipodi:cx="287.56799"
   sodipodi:cy="160.144"
   sodipodi:rx="4.8239999"
   sodipodi:ry="4.8239999"
   transform="translate(-103.5714,-112.624)" />
<path
   d="m 183.9966,51.336 c 2.088,0 3.816,-1.728 3.816,-3.816 0,-2.088 -1.728,-3.816 -3.816,-3.816 -2.088,0 -3.816,1.728 -3.816,3.816 0,2.088 1.728,3.816 3.816,3.816 z"
   id="path171"
   inkscape:connector-curvature="0"
   style="fill:#ffffff" />
<path
   d="m 203.0046,53.856 c 2.664,0 4.824,-2.232 4.824,-4.896 0,-2.664 -2.16,-4.824 -4.824,-4.824 -2.664,0 -4.824,2.16 -4.824,4.824 0,2.664 2.16,4.896 4.824,4.896 z"
   id="path173"
   inkscape:connector-curvature="0" />
<path
   d="m 203.0046,52.776 c 2.088,0 3.816,-1.728 3.816,-3.816 0,-2.088 -1.728,-3.816 -3.816,-3.816 -2.088,0 -3.816,1.728 -3.816,3.816 0,2.088 1.728,3.816 3.816,3.816 z"
   id="path175"
   inkscape:connector-curvature="0"
   style="fill:#ffffff" />
<path
   d="m 203.0046,66.744 c 2.664,0 4.824,-2.232 4.824,-4.896 0,-2.664 -2.16,-4.824 -4.824,-4.824 -2.664,0 -4.824,2.16 -4.824,4.824 0,2.664 2.16,4.896 4.824,4.896 z"
   id="path177"
   inkscape:connector-curvature="0" />
<path
   d="m 203.0046,65.664 c 2.088,0 3.816,-1.728 3.816,-3.816 0,-2.088 -1.728,-3.816 -3.816,-3.816 -2.088,0 -3.816,1.728 -3.816,3.816 0,2.088 1.728,3.816 3.816,3.816 z"
   id="path179"
   inkscape:connector-curvature="0"
   style="fill:#ffffff" />
<path
   d="m 203.0046,79.992 c 2.664,0 4.824,-2.16 4.824,-4.824 0,-2.664 -2.16,-4.896 -4.824,-4.896 -2.664,0 -4.824,2.232 -4.824,4.896 0,2.664 2.16,4.824 4.824,4.824 z"
   id="path181"
   inkscape:connector-curvature="0" />
<path
   d="m 203.0046,78.984 c 2.088,0 3.816,-1.728 3.816,-3.816 0,-2.16 -1.728,-3.816 -3.816,-3.816 -2.088,0 -3.816,1.656 -3.816,3.816 0,2.088 1.728,3.816 3.816,3.816 z"
   id="path183"
   inkscape:connector-curvature="0"
   style="fill:#ffffff" />
<path
   d="m 319.1406,132.768 c 0.36,-4.32 -4.752,-6.768 -7.992,-3.96 -2.016,1.728 -2.232,4.824 -0.504,6.84 1.8,2.016 4.824,2.232 6.84,0.432 0.936,-0.792 1.584,-1.944 1.656,-3.312 z"
   id="path185"
   inkscape:connector-curvature="0" />
<path
   d="m 261.1086,109.368 c -1.728,-2.016 -4.824,-2.232 -6.84,-0.504 -2.016,1.8 -2.232,4.824 -0.432,6.84 1.728,2.016 4.824,2.232 6.84,0.504 2.016,-1.8 2.232,-4.824 0.432,-6.84 z"
   id="path187"
   inkscape:connector-curvature="0" />
<path
   d="m 259.9566,115.416 c -1.584,1.368 -3.96,1.224 -5.4,-0.36 -1.368,-1.584 -1.152,-4.032 0.432,-5.4 1.584,-1.368 3.96,-1.224 5.328,0.36 1.44,1.584 1.224,4.032 -0.36,5.4 z"
   id="path189"
   inkscape:connector-curvature="0"
   style="fill:#2d9a29" />
<path
   d="m 318.1326,132.696 c -0.072,1.08 -0.576,2.016 -1.296,2.664 -1.584,1.368 -4.032,1.152 -5.4,-0.432 -1.368,-1.584 -1.152,-3.96 0.432,-5.4 2.52,-2.16 6.48,-0.216 6.264,3.168 z"
   id="path191"
   inkscape:connector-curvature="0"
   style="fill:#e33820" />
<path
   d="m 308.9166,83.016 c 2.664,0 4.824,-2.232 4.824,-4.896 0,-2.664 -2.16,-4.824 -4.824,-4.824 -2.736,0 -4.896,2.16 -4.896,4.824 0,2.664 2.16,4.896 4.896,4.896 z"
   id="path193"
   inkscape:connector-curvature="0" />
<path
   d="m 308.9166,81.936 c 2.088,0 3.816,-1.728 3.816,-3.816 0,-2.088 -1.728,-3.816 -3.816,-3.816 -2.16,0 -3.816,1.728 -3.816,3.816 0,2.088 1.656,3.816 3.816,3.816 z"
   id="path195"
   inkscape:connector-curvature="0"
   style="fill:#ffffff" />
<path
   d="m 330.4446,121.464 c 2.736,0 4.896,-2.16 4.896,-4.824 0,-2.664 -2.16,-4.896 -4.896,-4.896 -2.664,0 -4.824,2.232 -4.824,4.896 0,2.664 2.16,4.824 4.824,4.824 z"
   id="path197"
   inkscape:connector-curvature="0" />
<path
   d="m 330.4446,120.456 c 2.16,0 3.816,-1.728 3.816,-3.816 0,-2.088 -1.656,-3.816 -3.816,-3.816 -2.088,0 -3.816,1.728 -3.816,3.816 0,2.088 1.728,3.816 3.816,3.816 z"
   id="path199"
   inkscape:connector-curvature="0"
   style="fill:#ffffff" />
<path
   d="m 328.2846,111.672 c 2.664,0 4.824,-2.16 4.824,-4.824 0,-2.664 -2.16,-4.896 -4.824,-4.896 -2.664,0 -4.824,2.232 -4.824,4.896 0,2.664 2.16,4.824 4.824,4.824 z"
   id="path201"
   inkscape:connector-curvature="0" />
<path
   d="m 328.2846,110.664 c 2.088,0 3.816,-1.728 3.816,-3.816 0,-2.16 -1.728,-3.816 -3.816,-3.816 -2.088,0 -3.816,1.656 -3.816,3.816 0,2.088 1.728,3.816 3.816,3.816 z"
   id="path203"
   inkscape:connector-curvature="0"
   style="fill:#ffffff" />
<path
   d="m 323.7486,101.376 c 2.736,0 4.896,-2.232 4.896,-4.896 0,-2.664 -2.16,-4.824 -4.896,-4.824 -2.664,0 -4.824,2.16 -4.824,4.824 0,2.664 2.16,4.896 4.824,4.896 z"
   id="path205"
   inkscape:connector-curvature="0" />
<path
   d="m 323.7486,100.296 c 2.16,0 3.816,-1.656 3.816,-3.816 0,-2.088 -1.656,-3.816 -3.816,-3.816 -2.088,0 -3.816,1.728 -3.816,3.816 0,2.16 1.728,3.816 3.816,3.816 z"
   id="path207"
   inkscape:connector-curvature="0"
   style="fill:#ffffff" />
<path
   d="m 317.9886,90.936 c 2.664,0 4.896,-2.16 4.896,-4.824 0,-2.664 -2.232,-4.896 -4.896,-4.896 -2.664,0 -4.824,2.232 -4.824,4.896 0,2.664 2.16,4.824 4.824,4.824 z"
   id="path209"
   inkscape:connector-curvature="0" />
<path
   d="m 317.9886,89.928 c 2.16,0 3.816,-1.728 3.816,-3.816 0,-2.088 -1.656,-3.816 -3.816,-3.816 -2.088,0 -3.816,1.728 -3.816,3.816 0,2.088 1.728,3.816 3.816,3.816 z"
   id="path211"
   inkscape:connector-curvature="0"
   style="fill:#ffffff" />
<path
   d="m 299.1246,75.672 c 2.664,0 4.896,-2.16 4.896,-4.824 0,-2.736 -2.232,-4.896 -4.896,-4.896 -2.664,0 -4.824,2.16 -4.824,4.896 0,2.664 2.16,4.824 4.824,4.824 z"
   id="path213"
   inkscape:connector-curvature="0" />
<path
   d="m 299.1246,74.664 c 2.16,0 3.816,-1.728 3.816,-3.816 0,-2.16 -1.656,-3.816 -3.816,-3.816 -2.088,0 -3.816,1.656 -3.816,3.816 0,2.088 1.728,3.816 3.816,3.816 z"
   id="path215"
   inkscape:connector-curvature="0"
   style="fill:#ffffff" />
<path
   d="m 287.8926,70.56 c 2.664,0 4.824,-2.16 4.824,-4.896 0,-2.664 -2.16,-4.824 -4.824,-4.824 -2.664,0 -4.896,2.16 -4.896,4.824 0,2.736 2.232,4.896 4.896,4.896 z"
   id="path217"
   inkscape:connector-curvature="0" />
<path
   d="m 287.8926,69.48 c 2.088,0 3.816,-1.656 3.816,-3.816 0,-2.088 -1.728,-3.816 -3.816,-3.816 -2.16,0 -3.816,1.728 -3.816,3.816 0,2.16 1.656,3.816 3.816,3.816 z"
   id="path219"
   inkscape:connector-curvature="0"
   style="fill:#ffffff" />
<path
   d="m 275.8686,68.904 c 2.664,0 4.824,-2.16 4.824,-4.824 0,-2.664 -2.16,-4.896 -4.824,-4.896 -2.664,0 -4.896,2.232 -4.896,4.896 0,2.664 2.232,4.824 4.896,4.824 z"
   id="path221"
   inkscape:connector-curvature="0" />
<path
   d="m 275.8686,67.896 c 2.088,0 3.816,-1.728 3.816,-3.816 0,-2.088 -1.728,-3.816 -3.816,-3.816 -2.088,0 -3.816,1.728 -3.816,3.816 0,2.088 1.728,3.816 3.816,3.816 z"
   id="path223"
   inkscape:connector-curvature="0"
   style="fill:#ffffff" />
<path
   d="m 263.7726,68.832 c 2.664,0 4.824,-2.16 4.824,-4.824 0,-2.664 -2.16,-4.824 -4.824,-4.824 -2.664,0 -4.896,2.16 -4.896,4.824 0,2.664 2.232,4.824 4.896,4.824 z"
   id="path225"
   inkscape:connector-curvature="0" />
<path
   d="m 263.7726,67.824 c 2.088,0 3.816,-1.728 3.816,-3.816 0,-2.088 -1.728,-3.816 -3.816,-3.816 -2.088,0 -3.816,1.728 -3.816,3.816 0,2.088 1.728,3.816 3.816,3.816 z"
   id="path227"
   inkscape:connector-curvature="0"
   style="fill:#ffffff" />
<path
   d="m 252.8286,69.768 c 2.736,0 4.896,-2.232 4.896,-4.896 0,-2.664 -2.16,-4.824 -4.896,-4.824 -2.664,0 -4.824,2.16 -4.824,4.824 0,2.664 2.16,4.896 4.824,4.896 z"
   id="path229"
   inkscape:connector-curvature="0" />
<path
   d="m 252.8286,68.688 c 2.16,0 3.816,-1.728 3.816,-3.816 0,-2.088 -1.656,-3.816 -3.816,-3.816 -2.088,0 -3.816,1.728 -3.816,3.816 0,2.088 1.728,3.816 3.816,3.816 z"
   id="path231"
   inkscape:connector-curvature="0"
   style="fill:#ffffff" />
<path
   d="m 245.7006,63.216 c 2.664,0 4.824,-2.16 4.824,-4.824 0,-2.664 -2.16,-4.896 -4.824,-4.896 -2.664,0 -4.824,2.232 -4.824,4.896 0,2.664 2.16,4.824 4.824,4.824 z"
   id="path233"
   inkscape:connector-curvature="0" />
<path
   d="m 245.7006,62.208 c 2.088,0 3.816,-1.728 3.816,-3.816 0,-2.088 -1.728,-3.816 -3.816,-3.816 -2.088,0 -3.816,1.728 -3.816,3.816 0,2.088 1.728,3.816 3.816,3.816 z"
   id="path235"
   inkscape:connector-curvature="0"
   style="fill:#ffffff" />
<path
   d="m 261.2526,83.88 c 2.664,0 4.896,-2.16 4.896,-4.824 0,-2.664 -2.232,-4.896 -4.896,-4.896 -2.664,0 -4.824,2.232 -4.824,4.896 0,2.664 2.16,4.824 4.824,4.824 z"
   id="path237"
   inkscape:connector-curvature="0" />
<path
   d="m 261.2526,82.872 c 2.088,0 3.816,-1.728 3.816,-3.816 0,-2.088 -1.728,-3.816 -3.816,-3.816 -2.088,0 -3.816,1.728 -3.816,3.816 0,2.088 1.728,3.816 3.816,3.816 z"
   id="path239"
   inkscape:connector-curvature="0"
   style="fill:#ffffff" />
<path
   d="m 265.4286,94.104 c 2.664,0 4.824,-2.16 4.824,-4.824 0,-2.664 -2.16,-4.824 -4.824,-4.824 -2.664,0 -4.896,2.16 -4.896,4.824 0,2.664 2.232,4.824 4.896,4.824 z"
   id="path241"
   inkscape:connector-curvature="0" />
<path
   d="m 265.4286,93.096 c 2.088,0 3.816,-1.728 3.816,-3.816 0,-2.088 -1.728,-3.816 -3.816,-3.816 -2.16,0 -3.816,1.728 -3.816,3.816 0,2.088 1.656,3.816 3.816,3.816 z"
   id="path243"
   inkscape:connector-curvature="0"
   style="fill:#ffffff" />
<path
   d="m 235.7646,56.952 c 2.664,0 4.824,-2.232 4.824,-4.896 0,-2.664 -2.16,-4.824 -4.824,-4.824 -2.664,0 -4.896,2.16 -4.896,4.824 0,2.664 2.232,4.896 4.896,4.896 z"
   id="path245"
   inkscape:connector-curvature="0" />
<path
   d="m 235.7646,55.872 c 2.088,0 3.816,-1.656 3.816,-3.816 0,-2.088 -1.728,-3.816 -3.816,-3.816 -2.16,0 -3.816,1.728 -3.816,3.816 0,2.16 1.656,3.816 3.816,3.816 z"
   id="path247"
   inkscape:connector-curvature="0"
   style="fill:#ffffff" />
<circle
   cx="325.58401"
   cy="160.144"
   r="4.8239999"
   id="circle249"
   sodipodi:cx="325.58401"
   sodipodi:cy="160.144"
   sodipodi:rx="4.8239999"
   sodipodi:ry="4.8239999"
   transform="translate(-103.5714,-112.624)" />
<path
   d="m 222.0126,51.336 c 2.088,0 3.816,-1.728 3.816,-3.816 0,-2.088 -1.728,-3.816 -3.816,-3.816 -2.088,0 -3.816,1.728 -3.816,3.816 0,2.088 1.728,3.816 3.816,3.816 z"
   id="path251"
   inkscape:connector-curvature="0"
   style="fill:#ffffff" />
</svg>