<?xml version="1.0" encoding="UTF-8"?>
<!DOCTYPE svg PUBLIC "-//W3C//DTD SVG 1.1//EN" "http://www.w3.org/Graphics/SVG/1.1/DTD/svg11.dtd">
<!-- Creator: CorelDRAW 2019 (64-Bit) -->
<svg xmlns="http://www.w3.org/2000/svg" xml:space="preserve" width="177.37mm" height="157.51mm" version="1.1" style="shape-rendering:geometricPrecision; text-rendering:geometricPrecision; image-rendering:optimizeQuality; fill-rule:evenodd; clip-rule:evenodd"
viewBox="0 0 177.3702 157.5095"
 xmlns:xlink="http://www.w3.org/1999/xlink"
 xmlns:xodm="http://www.corel.com/coreldraw/odm/2003">
 <defs>
  <style type="text/css">
   <![CDATA[
    .fil5 {fill:#008F41}
    .fil3 {fill:#171304}
    .fil4 {fill:#BEAE2F}
    .fil1 {fill:#E3341B}
    .fil2 {fill:black}
    .fil0 {fill:white}
   ]]>
  </style>
 </defs>
 <g id="Layer_x0020_1">
  <metadata id="CorelCorpID_0Corel-Layer"/>
  <g id="_929857696">
   <path class="fil0" d="M89.7138 15.5655l-1.0297 -0.7932 0 -0.2661 -0.2056 0.1183 -0.1469 -0.0887 0 0.2057 -1.0297 0.7945c-3.9431,3.4131 -31.5137,6.6797 -35.221,6.6797 -11.2993,0 -21.7451,-2.2073 -30.2781,-5.974 -7.0326,11.0943 -11.1222,24.3936 -11.1222,38.6939 0,33.1023 22.5687,61.3501 52.2285,68.7944 0,0 20.0378,8.6803 25.4225,17.0663l0.3828 0c5.3552,-8.3565 25.3932,-17.037 25.3932,-17.037 29.6299,-7.4443 52.2287,-35.6621 52.2287,-68.765 0,-14.3295 -4.0907,-27.63 -11.1521,-38.7218 -8.504,3.7655 -18.9491,5.9727 -30.2774,5.9727 -3.7077,0 -31.2491,-3.2665 -35.1922,-6.6797l-0.0008 0z"/>
   <path class="fil0" d="M88.2137 141.0027l-0.0606 -0.0881c-5.2375,-8.1506 -24.6282,-16.6838 -25.3051,-16.9777 -7.3265,-1.8538 -14.3001,-4.9727 -20.7443,-9.2689 -6.2967,-4.2076 -11.8873,-9.4748 -16.6246,-15.5656 -4.7373,-6.1789 -8.4743,-13.0646 -11.0342,-20.4203 -2.6482,-7.6208 -4.0017,-15.6247 -4.0017,-23.7456 0,-13.8883 3.8546,-27.3061 11.181,-38.8105l0.0886 -0.1774 0.2053 0.0887c8.7979,3.8837 19.2437,5.9443 30.1604,5.9443 3.7957,0 31.1899,-3.237 35.0738,-6.6206l0.9709 -0.7057 0 -0.5592 0.3535 0.2648 0.4118 -0.324 0 0.6467 0.9709 0.7353c3.884,3.3553 31.2787,6.6206 35.0745,6.6206 10.9156,0 21.3621,-2.0594 30.1591,-5.9726l0.1773 -0.0887 0.1171 0.1773c7.2967,11.5045 11.1521,24.9513 11.1521,38.8397 0,8.092 -1.324,16.0954 -3.9723,23.7162 -2.5595,7.3856 -6.2979,14.2414 -11.0634,20.4203 -4.7077,6.1203 -10.2986,11.358 -16.6249,15.5657 -6.4148,4.3255 -13.3888,7.415 -20.715,9.2689 -0.6772,0.2944 -20.0973,8.8569 -25.2464,16.9483l-0.0881 0.0881 -0.6157 0zm-66.3229 -124.4949l0 0c-7.1797,11.417 -11.0049,24.6871 -11.0049,38.4283 0,8.0919 1.3535,16.0073 3.9725,23.5983 2.5596,7.3268 6.2673,14.1534 10.9748,20.3029 9.5043,12.2702 22.6866,21.0388 37.1341,24.6578l0.0298 0.0303c0.0607,0 5.0906,2.2067 10.7108,5.3846 7.5031,4.2371 12.4757,8.1799 14.7416,11.652l0.147 0c2.2653,-3.4721 7.2087,-7.3857 14.7121,-11.6226 5.6199,-3.178 10.6515,-5.3552 10.6811,-5.3845l0.06 0c14.4476,-3.6485 27.6297,-12.4175 37.1041,-24.6872 4.7374,-6.1496 8.4448,-12.9762 10.9762,-20.3029 2.6482,-7.5916 3.9722,-15.5065 3.9722,-23.5691 0,-13.741 -3.7962,-27.0414 -11.0056,-38.4288 -8.8265,3.8554 -19.2434,5.9148 -30.1602,5.9148 -1.8532,0 -9.6212,-0.7944 -17.566,-2.0594 -6.9146,-1.0889 -15.6243,-2.7949 -17.802,-4.6782l-1.0883 -0.8252 -1.0301 0.7957c-2.1772,1.8525 -10.8869,3.5597 -17.8015,4.6781 -7.9446,1.2354 -15.7127,2.0595 -17.5667,2.0595 -10.9162,0 -21.3326,-2.0595 -30.1892,-5.9432l-0.0018 -0.0012z"/>
   <polygon class="fil1" points="114.4602,19.5982 125.5534,20.0971 110.8703,46.1382 124.4646,42.0778 88.1544,105.6639 84.212,92.8056 71.7944,114.6974 76.0614,117.4924 68.793,119.964 68.6462,120.2292 68.4996,120.053 60.3783,122.8192 59.643,106.6357 63.5268,109.2248 85.9483,69.9729 89.8913,82.9489 104.6918,56.6436 91.1274,60.8513 "/>
   <path class="fil2" d="M120.1686 106.5173l-2.1777 5.7377c-0.3827,0.971 -0.6766,1.648 -0.9119,1.9713l-0.7655 0.5005 -0.7059 -0.4119c-0.1466,-0.1765 -0.4411,-0.7949 -0.9411,-1.8832 -0.4711,-1.0889 -0.8534,-2.0599 -1.1774,-2.8835l-2.4125 -6.3561c-0.3242,-0.8829 -0.6763,-1.3241 -1.03,-1.3241 -0.3826,0 -0.5881,0.3826 -0.6471,1.1182 -0.0882,1.7067 -0.1174,3.2368 -0.1174,4.6787 0,1.4709 0.0601,2.4717 0.1764,3.001l0.3239 0.7058c0.1468,0.1472 0.5292,0.383 1.1477,0.7651 0.4116,0.2353 0.6171,0.6774 0.6171,1.2653 0,1.5888 -1.7358,2.3837 -5.2372,2.3837 -2.9428,0 -4.4136,-0.7655 -4.4136,-2.3249 0,-0.3826 0.0882,-0.6766 0.2347,-0.8531 0.1469,-0.1766 0.5298,-0.471 1.177,-0.8238 0.4122,-0.2064 0.6765,-0.5003 0.7949,-0.8535 0.1466,-0.3825 0.265,-1.1183 0.3824,-2.1772 0.0881,-1.1476 0.2055,-3.0013 0.2945,-5.6203 0.0881,-2.5896 0.1468,-4.8254 0.1468,-6.6793 0,-2.3542 -0.1468,-3.9136 -0.4413,-4.7374l-0.3824 -0.6472c-0.1473,-0.1467 -0.4124,-0.3237 -0.7949,-0.559 -0.853,-0.4706 -1.2943,-1.1177 -1.2943,-1.8828 0,-0.5003 0.1468,-0.9415 0.4705,-1.3832 0.3239,-0.4119 0.765,-0.7059 1.2948,-0.8531 0.5294,-0.206 1.2356,-0.3536 2.1479,-0.471 0.8829,-0.1468 1.6479,-0.2055 2.2657,-0.2348 1.5594,0 2.6482,0.1467 3.2953,0.4705l0.7361 0.5591c0.1763,0.2651 0.4414,0.7357 0.7945,1.5008l3.7958 8.2093c0.4123,0.9122 0.6764,1.4419 0.8535,1.6479l0.6467 0.2944 0.6471 -0.3237c0.1766,-0.2064 0.4123,-0.6179 0.6473,-1.2067l2.5894 -5.8851 0.6173 -1.4713c0.5884,-1.4122 1.1772,-2.3831 1.7659,-2.8243 0.4705,-0.4123 1.1763,-0.6765 2.1481,-0.8242 0.5593,0.6472 1.1763,1.2361 1.7652,2.0891 1.6184,2.2951 1.5888,5.7675 2.9131,7.5329 -0.0876,1.2948 -0.1172,2.707 -0.1172,4.2956 0,3.6198 0.1466,6.8266 0.441,9.5634 0.0603,0.677 0.1761,1.1182 0.324,1.3534 0.1465,0.2651 0.5592,0.6179 1.1763,1.1182 0.4421,0.3239 0.6478,0.7944 0.6478,1.3534 0,1.0005 -0.5591,1.7067 -1.6776,2.1186 -0.5874,0.2348 -1.2059,0.3825 -1.8537,0.4413 -0.6466,0.0884 -1.6184,0.1178 -2.971,0.1178 -2.0606,0 -3.561,-0.1766 -4.5908,-0.5004 -1.1182,-0.3825 -1.6772,-1.0594 -1.6772,-1.9713 0,-0.3537 0.0881,-0.6177 0.2347,-0.8535 0.1474,-0.2064 0.5006,-0.6178 1.1183,-1.2062 0.3242,-0.2945 0.5297,-0.8829 0.647,-1.736 0.1171,-0.8536 0.1762,-2.3249 0.1762,-4.355 0,-1.1474 -0.0603,-1.9125 -0.1467,-2.2656 -0.0881,-0.3532 -0.2642,-0.5298 -0.5586,-0.5298 -0.3538,0 -0.6766,0.2651 -0.9709,0.8243 -0.3244,0.5586 -0.7949,1.6474 -1.4421,3.2952l0.0011 0z"/>
   <g>
    <path class="fil0" d="M127.3776 116.7572c-2.1776,0 -3.7667,-0.206 -4.8847,-0.5884 -2.0011,-0.6775 -2.2951,-2.0599 -2.2951,-2.8249 0,-0.5297 0.1174,-1.0003 0.3531,-1.3535 0.1468,-0.2059 0.4124,-0.559 1.2655,-1.3828 0.0298,-0.0303 0.2651,-0.2353 0.3825,-1.1773 0.0881,-0.8238 0.1761,-2.2653 0.1761,-4.2664 0,-0.6177 -0.0298,-1.0296 -0.0601,-1.3534 -0.2056,0.4119 -0.6178,1.2648 -1.265,3.0307l-2.2069 5.7671c-0.4119,1.0594 -0.7362,1.7359 -1.0003,2.1478 -0.5298,0.7352 -1.1182,0.8829 -1.5301,0.8829 -0.3829,0 -0.971,-0.1174 -1.4421,-0.765 -0.1467,-0.176 -0.3825,-0.5591 -1.0595,-2.0598 -0.4705,-1.1182 -0.8824,-2.0891 -1.2062,-2.9422l-2.295 -6.1203c-0.0603,1.3829 -0.0881,2.707 -0.0881,3.9132 0,1.7066 0.0602,2.4717 0.1468,2.7955l0.0881 0.2642c0.0884,0.0606 0.2947,0.2063 0.9714,0.6177 0.4705,0.2945 1.0295,0.8829 1.0295,2.0598 0,0.8237 -0.3237,1.942 -1.8538,2.6483 -1.0003,0.4412 -2.413,0.6769 -4.2956,0.6769 -4.4142,0 -5.3258,-1.7653 -5.3258,-3.266 0,-0.6471 0.1466,-1.1182 0.4411,-1.4415 0.1468,-0.2063 0.4705,-0.5004 1.4122,-1.0301l0.0303 0 0.3825 -0.3825 0 -0.0304c0.0607,-0.1174 0.1767,-0.5879 0.2945,-1.9125 0.1179,-1.1182 0.2059,-2.9721 0.3244,-5.5611 0.0879,-2.5896 0.1173,-4.8254 0.1173,-6.65 0,-2.7362 -0.2055,-3.9136 -0.3826,-4.4136l-0.1764 -0.3242c-0.0299,-0.0299 -0.1175,-0.1175 -0.5882,-0.4119 -1.4419,-0.8237 -1.7363,-1.9126 -1.7363,-2.6775 0,-0.7059 0.2064,-1.3536 0.6471,-1.942 0.4417,-0.5591 1.0301,-0.971 1.736,-1.1769 0.5885,-0.2065 1.3539,-0.383 2.2955,-0.5003 0.9412,-0.1762 1.7355,-0.2349 2.4126,-0.2349 1.7067,0 2.9128,0.1761 3.6778,0.5293 0.4711,0.2064 0.8243,0.5004 1.0888,0.8535 0.1468,0.2065 0.4123,0.5879 0.9123,1.6773l3.7665 8.2094c0.3824,0.7944 0.5586,1.1768 0.6765,1.3241 0.0601,-0.0885 0.2348,-0.3536 0.4705,-0.8829l2.5596 -5.885 0.618 -1.4713c0.6471,-1.5887 1.3235,-2.6184 2.0306,-3.2073 0.6171,-0.5 1.4424,-0.8238 2.5891,-1.0003l0.5001 -0.0881 0.3534 0.4119 0.4705 0.5298c0.441,0.471 0.8833,0.9708 1.3538,1.6185 0.9127,1.3241 1.3537,2.9422 1.7354,4.3842 0.324,1.2356 0.6184,2.4125 1.1481,3.0895l0.2057 0.2945 -0.0296 0.3238c-0.0604,1.2947 -0.1183,2.7069 -0.1183,4.2667 0,3.5895 0.1467,6.7675 0.4423,9.4743 0.0873,0.6775 0.1761,0.9123 0.2057,0.9715 0.0308,0.0601 0.2352,0.2944 0.941,0.8531 0.6775,0.5004 1.0309,1.2361 1.0309,2.0892 0,0.7943 -0.2955,2.2656 -2.2959,3.0014 -0.6466,0.2347 -1.3538,0.4117 -2.0594,0.4998 -0.7058,0.0607 -1.7072,0.1179 -3.0893,0.1179l0.0012 0.0005zm-3.3565 -7.0921l0 0c-0.1465,1.0888 -0.441,1.8245 -0.9115,2.2951 -0.7649,0.7362 -0.9415,0.9714 -1.0008,1.03l0 0.0299 -0.06 0.3243c0,0.2348 0,0.7059 1.0596,1.0883 0.8819,0.2946 2.3243,0.471 4.2667,0.471 1.2947,0 2.2653,-0.06 2.8835,-0.1173 0.5593,-0.0606 1.089,-0.206 1.5891,-0.383l0.0296 -0.0298c0.9422,-0.3243 1.0887,-0.8243 1.0887,-1.236l-0.324 -0.6472c-0.7352,-0.5587 -1.1467,-0.971 -1.3832,-1.2948l0 -0.0298c-0.2353,-0.383 -0.3817,-0.9123 -0.4705,-1.7658 -0.2944,-2.7656 -0.4409,-6.0024 -0.4409,-9.6509 0,-1.4713 0.0296,-2.8248 0.1169,-4.0315 -0.6171,-0.971 -0.941,-2.1772 -1.2649,-3.4426 -0.3536,-1.3535 -0.7365,-2.7657 -1.4707,-3.8252 -0.383,-0.559 -0.765,-0.9709 -1.1775,-1.4122l-0.1761 -0.1766c-0.648,0.1179 -1.0298,0.3243 -1.2071,0.5005 -0.324,0.265 -0.8241,0.8829 -1.5003,2.4716l-0.6176 1.5008 -2.5597 5.8848c-0.3238,0.677 -0.5885,1.1476 -0.8536,1.4415 -0.4412,0.5298 -0.971,0.6472 -1.3242,0.6472 -0.5586,0 -1.0589,-0.2348 -1.3826,-0.677 -0.1469,-0.1765 -0.3827,-0.5591 -0.9711,-1.8244l-3.7959 -8.2094c-0.4116,-0.9416 -0.6177,-1.2361 -0.6763,-1.3242l-0.3825 -0.2944c-0.3831,-0.1468 -1.1476,-0.3532 -2.9135,-0.3532 -0.5586,0 -1.2947,0.0602 -2.1185,0.2064l-0.0297 0c-0.8242,0.1174 -1.4713,0.2642 -1.9718,0.4119l0 0.0303c-0.3532,0.0881 -0.6472,0.2945 -0.8531,0.5586l-0.2646 0.7943c0,0.295 0.0881,0.6767 0.7944,1.0889l0.0303 0c0.4706,0.2652 0.765,0.5005 0.9709,0.7059 0.2349,0.2353 0.4413,0.5591 0.5884,0.9416l0 0.0303c0.3532,0.9416 0.5294,2.5891 0.5294,5.0607 0,1.8539 -0.0602,4.1196 -0.1762,6.7384 -0.0879,2.6185 -0.1761,4.4724 -0.2943,5.6493 -0.1175,1.1773 -0.2353,1.9423 -0.4124,2.3835 -0.2349,0.5886 -0.6468,1.0591 -1.2356,1.3829 -0.5884,0.3238 -0.8237,0.5004 -0.8829,0.5884l-0.0299 0.2642c0,0.4417 0.1762,0.7058 0.5879,0.9415 0.4418,0.2065 1.2655,0.4711 2.884,0.4711 3.7367,0 4.2957,-0.9416 4.2957,-1.4713 0,-0.3825 -0.1174,-0.4412 -0.1466,-0.4706 -0.9124,-0.5297 -1.1769,-0.765 -1.3242,-0.9122l-0.0304 -0.0304c-0.2347,-0.2348 -0.4119,-0.5879 -0.5292,-1.0589l0 -0.0603c-0.1471,-0.5884 -0.2352,-1.6185 -0.2352,-3.2073 0,-1.442 0.06,-3.0307 0.1467,-4.7079 0.0885,-1.8246 1.1182,-2.0306 1.5599,-2.0306 1.1769,0 1.7066,1.4127 1.9125,1.942l2.3831 6.356c0.3238,0.8237 0.7059,1.7653 1.1769,2.8248 0.5005,1.1476 0.7058,1.53 0.795,1.6474 0.1172,-0.1467 0.353,-0.6174 0.8237,-1.7653l2.177 -5.767c0.6473,-1.7067 1.1184,-2.8249 1.4716,-3.4133 0.5003,-0.8536 1.0887,-1.2948 1.7951,-1.2948 0.8526,0 1.2948,0.6472 1.4708,1.2361 0.0605,0.2945 0.148,0.853 0.148,2.4717 0,2.1184 -0.0616,3.5893 -0.1775,4.5016l0.0012 0.0024z"/>
   </g>
   <g>
    <path class="fil2" d="M140.9416 50.905c-0.6171,0 -1.0298,0.2353 -1.2059,0.6471 -0.1761,0.4417 -0.2353,1.442 -0.2353,3.0308 0,2.3836 0.117,4.2663 0.383,5.5904 0.0888,0.3831 0.2059,0.6775 0.3536,0.8829 0.1761,0.2064 0.4705,0.4712 0.9411,0.765 0.5874,0.3826 1.0002,0.8243 1.2354,1.3536l-0.7057 -0.1468 0 3.266c-0.2945,0.2353 -0.6763,0.4711 -1.1186,0.6178 -1.0579,0.4119 -2.7356,0.6471 -5.0008,0.7352l0.0295 -0.3825c0,-4.3842 -5.6782,-4.914 -10.0633,-4.914l-0.3523 0c0.2046,-0.2352 0.5284,-0.5297 0.9708,-0.8534 0.7056,-0.5293 1.1763,-1.177 1.4411,-1.9127 0.2351,-0.765 0.4126,-2.0299 0.5296,-3.8838 0.0887,-1.3241 0.1183,-6.1206 0.1183,-14.3593 0,-2.619 -0.1183,-4.3843 -0.3536,-5.3258 -0.207,-0.9417 -0.7058,-1.648 -1.4424,-2.0601 -0.7354,-0.4114 -1.2059,-0.7649 -1.4411,-1.0877 -0.2648,-0.3251 -0.383,-0.7661 -0.383,-1.2957 0,-0.7058 0.2353,-1.2946 0.6774,-1.7947 0.4705,-0.5296 1.1467,-0.9127 1.9708,-1.1775 0.7058,-0.2057 1.6481,-0.2932 2.8835,-0.2932 0.5297,0 1.8833,0.0875 4.0314,0.2636 0.3831,0.0604 1.0299,0.0604 1.9129,0.0604 1.4708,0 3.4133,-0.0875 5.8558,-0.324 1.5593,-0.117 2.6482,-0.2057 3.2652,-0.2057 3.4724,0 6.3559,0.9706 8.6222,2.9131 2.0596,1.7355 3.0892,4.1777 3.0892,7.2964 0,1.7067 -0.3534,3.2959 -1.0592,4.7374 -0.7366,1.4127 -1.706,2.4717 -2.9723,3.178 -0.5296,0.2945 -0.7649,0.6472 -0.7649,1.0889 0,0.5293 0.3832,0.971 1.1776,1.3241 1.7059,0.7058 2.9709,1.7946 3.7655,3.2366 0.7943,1.4416 1.3536,3.678 1.7072,6.6501 0.1465,1.2649 0.3534,2.0597 0.6466,2.4423 0.2649,0.3531 0.9127,0.7053 1.9129,1.0296 0.324,0.1174 0.5876,0.3826 0.7945,0.7362 0.2057,0.3824 0.3239,0.765 0.3239,1.2355 0,0.5591 -0.2058,1.177 -0.5887,1.7654 -0.4114,0.5884 -0.9115,1.0594 -1.5299,1.3832 -1.0298,0.5587 -2.3834,0.9119 -4.0019,1.0298 0.2057,-0.5591 0.3239,-1.1477 0.3239,-1.8246 0,-2.8243 -3.6779,-3.3835 -6.5024,-3.3835 -1.2944,0 -2.3834,0.1468 -3.413,0.2349 -0.1467,-0.3532 -0.2944,-0.7352 -0.4128,-1.1182 -0.4409,-1.3241 -0.941,-3.3839 -1.5001,-6.1789 -0.3832,-1.7952 -0.882,-3.0308 -1.4719,-3.7665 -0.5581,-0.7351 -1.382,-1.1475 -2.4414,-1.2062l-0.0024 0.0005zm-1.4103 -14.3892l0 0 -0.2945 6.5908 0 0.2352c0,0.6765 0.0887,1.1475 0.2649,1.3535 0.176,0.2352 0.5296,0.3531 1.0297,0.3531 1.4424,0 2.472,-0.4412 3.1483,-1.2648 0.6479,-0.883 0.9719,-2.2364 0.9719,-4.1196 0,-3.6485 -1.1185,-5.4734 -3.3554,-5.4734 -0.6466,0 -1.0876,0.1769 -1.3537,0.5301 -0.234,0.3238 -0.3817,0.9415 -0.4112,1.7946l0 0.0005z"/>
   </g>
   <path class="fil0" d="M154.9477 69.2069l0.5297 -1.3828c0.2069,-0.4706 0.2942,-0.971 0.2942,-1.5007 0,-0.5293 -0.176,-1.3242 -1.6172,-1.8832 -0.9422,-0.3532 -2.3255,-0.5586 -3.9724,-0.5586 -1.1775,0 -2.1482,0.088 -3.0904,0.2064l-0.9115 0.0601 -0.2649 -0.6178c-0.1477,-0.3825 -0.2954,-0.7651 -0.4421,-1.2063 -0.4409,-1.3534 -0.941,-3.4426 -1.5297,-6.238 -0.4411,-2.0598 -0.9424,-2.972 -1.2651,-3.4133 -0.4127,-0.5004 -0.9718,-0.7943 -1.7651,-0.8237l-0.3252 0.0602c-0.0296,0.1467 -0.1762,0.7351 -0.1762,2.6775 0,2.3245 0.1184,4.149 0.3832,5.4144l0.1761 0.4705c0.0296,0.0603 0.2057,0.2353 0.7059,0.5591 0.7353,0.4706 1.2944,1.059 1.5888,1.7653l0.7058 1.5595 -1.3241 -0.2054 0 2.589 -0.3535 0.2647c-0.3535,0.3237 -0.824,0.5884 -1.382,0.7943 -1.1775,0.4412 -2.9131,0.7058 -5.2965,0.7944l-1.0014 0.0303 0.0616 -1.3833c0,-1.7062 -0.9719,-3.9718 -9.1223,-3.9718l-2.5601 0.0601 1.5304 -1.6186c0.2352,-0.2651 0.5876,-0.5586 1.0593,-0.9416 0.5875,-0.4412 0.9411,-0.9119 1.1479,-1.4709 0.1467,-0.4711 0.3524,-1.4714 0.4693,-3.6192 0.0888,-1.3242 0.1184,-6.1207 0.1184,-14.33 0,-3.1482 -0.1467,-4.5314 -0.2944,-5.1199 -0.1762,-0.677 -0.5001,-1.1475 -1.0298,-1.4709 -0.8536,-0.4712 -1.3832,-0.8826 -1.7072,-1.2953l-0.0296 -0.0295c-0.3534,-0.5001 -0.5295,-1.1184 -0.5295,-1.8538 0,-0.9127 0.2942,-1.7367 0.9127,-2.413 0.5874,-0.6466 1.3819,-1.1479 2.3822,-1.4423 0.7944,-0.2341 1.8253,-0.3523 3.1495,-0.3523 0.5579,0 1.9117,0.0874 4.0894,0.2944 0.383,0.0296 1.0002,0.0604 1.8537,0.0604 1.4423,0 3.3836,-0.1183 5.767,-0.3536 1.5889,-0.117 2.7074,-0.1761 3.3552,-0.1761 3.6768,0 6.7968,1.0297 9.2394,3.1188 2.265,1.9412 3.4118,4.6194 3.4118,8.0033 0,1.8539 -0.4114,3.5898 -1.1763,5.1493 -0.7944,1.5599 -1.9425,2.7661 -3.3245,3.5898l-0.3238 0.2647c0,0.0879 0.2057,0.265 0.6466,0.4705 1.8834,0.7943 3.2961,2.0011 4.2075,3.6485 0.8537,1.5599 1.4424,3.855 1.7948,7.0031 0.1761,1.4714 0.4125,1.8833 0.4705,1.9717 0.0604,0.0603 0.3251,0.3532 1.4719,0.7357l0.0296 0c0.5295,0.1762 0.9423,0.5591 1.2649,1.1475 0.2956,0.5005 0.4422,1.0596 0.4422,1.6774 0,0.7649 -0.2353,1.53 -0.7354,2.2657l0 0.0303c-0.4705,0.7054 -1.0888,1.265 -1.8537,1.6768 -1.148,0.6178 -2.6187,1.0007 -4.3838,1.1476l-1.4718 0.1106zm-4.7657 -7.1792l0 0c1.8834,0 3.4711,0.2347 4.6486,0.6764 1.2651,0.5 2.7948,1.5301 2.7948,3.6193l-0.0602 0.7357c0.9422,-0.1468 1.7366,-0.4119 2.3538,-0.7651 0.5001,-0.2642 0.8831,-0.6178 1.1775,-1.059 0.2944,-0.4417 0.4409,-0.8829 0.4409,-1.2654l-0.176 -0.765 -0.0297 0 -0.2661 -0.3238c-1.2354,-0.4124 -1.9707,-0.8243 -2.3537,-1.3534l-0.0296 0c-0.3832,-0.5298 -0.6171,-1.4127 -0.7946,-2.8841 -0.3238,-2.8541 -0.883,-4.9727 -1.6184,-6.3261 -0.6762,-1.2649 -1.7651,-2.1773 -3.2961,-2.8248 -1.4707,-0.6173 -1.7652,-1.5301 -1.7652,-2.1772 0,-0.5298 0.2057,-1.2948 1.2368,-1.8832 1.1171,-0.6472 1.9708,-1.5594 2.589,-2.8249 0.6468,-1.2654 0.9706,-2.7363 0.9706,-4.2962 0,-2.8542 -0.8818,-5.0022 -2.7368,-6.5911 -2.0891,-1.7947 -4.7953,-2.6766 -8.0322,-2.6766 -0.6183,0 -1.6776,0.0591 -3.178,0.1749 -2.4425,0.2353 -4.4427,0.3535 -5.943,0.3535 -0.9127,0 -1.5607,-0.0296 -2.0016,-0.0604 -2.1186,-0.2044 -3.4427,-0.2943 -3.9427,-0.2943 -1.148,0 -2.0301,0.0887 -2.6187,0.2943 -0.6762,0.1762 -1.1777,0.5014 -1.5299,0.8832 -0.2944,0.324 -0.4422,0.7058 -0.4422,1.1776l0.1773 0.7649c0.0876,0.0874 0.3524,0.3522 1.1468,0.7944l0 0.0296c1.0001,0.5592 1.6186,1.4419 1.9129,2.6187 0.234,1.0302 0.3819,2.8547 0.3819,5.5617 0,8.3565 -0.0591,13.064 -0.1467,14.4181 -0.0873,1.9418 -0.2943,3.2952 -0.5886,4.119 -0.1751,0.5884 -0.4693,1.0889 -0.8821,1.5892 1.5891,0.0602 3.3836,0.2945 4.9431,0.7943 1.7072,0.6179 3.7074,1.8539 3.9722,4.4136 1.6777,-0.1174 2.9427,-0.3237 3.7668,-0.6177l0.5297 -0.2642 0 -3.1193 -0.1171 -0.088c-0.5593,-0.3532 -0.9422,-0.677 -1.1479,-0.971 -0.2661,-0.3237 -0.4422,-0.7356 -0.5593,-1.2356l0 -0.0302c-0.2649,-1.4122 -0.4113,-3.2955 -0.4113,-5.7671 0,-2.2363 0.176,-2.972 0.3238,-3.3546l0 -0.0303c0.175,-0.4412 0.7059,-1.2062 2.0583,-1.2062l0.0308 0c1.3536,0.0602 2.413,0.5885 3.1483,1.53 0.6775,0.8536 1.2071,2.2365 1.6185,4.1783 0.5887,2.7363 1.0888,4.7667 1.5003,6.0615l0.1477 0.4119c0.8525,-0.088 1.7356,-0.1468 2.7948,-0.1468l0.0025 0.0015z"/>
   <g>
    <path class="fil0" d="M140.5302 45.9618c-0.7945,0 -1.4128,-0.235 -1.7651,-0.6771l-0.0309 -0.0303c-0.2943,-0.4118 -0.4113,-1.0003 -0.4113,-1.9126l0 -0.2945 0.2649 -6.5618c0.0295,-1.0884 0.2352,-1.8241 0.6465,-2.354 0.4126,-0.5592 1.1184,-0.8536 2.0595,-0.8536 1.9424,0 4.2668,1.0891 4.2668,6.3856 0,2.0892 -0.3832,3.6192 -1.1467,4.6786 -0.8537,1.0884 -2.1483,1.6182 -3.8849,1.6182l0.0012 0.0015zm-0.2956 -1.8847l0 0 0.2944 0.0303c1.148,0 1.9424,-0.2946 2.4129,-0.9123 0.5,-0.6769 0.7648,-1.8832 0.7648,-3.5306 0,-4.5316 -1.7649,-4.5316 -2.4129,-4.5316 -0.3522,0 -0.5579,0.0881 -0.6171,0.1468 -0.0296,0.0303 -0.2056,0.3239 -0.2352,1.2654l-0.2649 6.5615 0 0.2352c0,0.4119 0.0308,0.6472 0.0604,0.7357l-0.0024 -0.0004z"/>
   </g>
   <path class="fil3" d="M150.6525 70.5017l-11.5351 21.7448c-0.7059,1.3535 -1.3834,2.2658 -2.03,2.795 -0.6182,0.5005 -1.4127,0.7362 -2.3833,0.7362 -0.8242,0 -1.5299,-0.1467 -2.1778,-0.471 -0.5001,-0.2652 -0.8819,-0.5586 -1.1467,-0.8824 -0.2648,-0.3239 -0.6184,-0.9417 -1.031,-1.8246l-10.2687 -21.0679c-0.5885,-1.2063 -1.0887,-2.0006 -1.5593,-2.4125 -0.4706,-0.4417 -1.1182,-0.7351 -1.9714,-0.8829 -1.0006,-0.1761 -1.5006,-0.7356 -1.5006,-1.7359 0,-1.2063 0.8824,-2.1186 2.6482,-2.7661 1.736,-0.6472 4.2663,-0.971 7.5622,-0.971 3.4132,0 5.9137,0.2353 7.5322,0.7361 1.5888,0.4706 2.3834,1.2357 2.3834,2.2365 0,0.6466 -0.4114,1.2648 -1.2947,1.8239 -0.6762,0.4412 -1,0.8238 -1,1.2063 0,0.3243 0.1466,0.8242 0.4409,1.4713l3.1484 6.5912c0.4422,0.971 0.9718,1.4415 1.5309,1.4415 0.5581,0 1.0582,-0.2347 1.5003,-0.765 0.4114,-0.4998 1.0002,-1.5301 1.7356,-3.0307 1.324,-2.707 2.0902,-4.325 2.3254,-4.7961 0.2045,-0.4999 0.3228,-0.8825 0.3228,-1.1475 0,-0.5293 -0.3819,-1.0003 -1.1763,-1.3535 -0.8832,-0.4411 -1.3242,-0.9709 -1.3242,-1.6181 0,-1.8539 2.6779,-2.7954 8.0335,-2.7954 2.6482,0 4.5303,0.2063 5.6191,0.6177 1.0889,0.3826 1.648,1.0591 1.648,2.03 0,1.1475 -0.7057,1.8245 -2.1481,2.0011 -1.0297,0.0881 -1.6776,0.2651 -2.0003,0.4412 -0.5296,0.3825 -1.1479,1.2654 -1.8834,2.6483l0 -0.0005z"/>
   <g>
    <path class="fil0" d="M134.7041 96.7189c-0.9707,0 -1.8242,-0.2065 -2.5891,-0.5881 -0.6185,-0.3243 -1.089,-0.6764 -1.4424,-1.0888l-0.0296 -0.0303c-0.324,-0.4118 -0.6774,-1.0589 -1.1481,-2.0006l-10.2691 -21.0972c-0.6471,-1.3242 -1.0887,-1.8832 -1.324,-2.1185l-0.0299 -0.0303c-0.3243,-0.2945 -0.8241,-0.5005 -1.4713,-0.6178 -1.442,-0.2348 -2.2951,-1.2063 -2.2951,-2.6483 0,-1.1182 0.588,-2.6482 3.2661,-3.6192 1.8537,-0.7058 4.443,-1.0296 7.885,-1.0296 3.5313,0 6.0922,0.2348 7.7982,0.765 1.3832,0.4118 3.0608,1.2947 3.0608,3.1188 0,1.0008 -0.5888,1.8539 -1.7368,2.6189 -0.383,0.2348 -0.5297,0.4118 -0.5591,0.471 0,0.1174 0.0602,0.4119 0.3534,1.0003l3.1484 6.5908c0.3534,0.7655 0.6183,0.9415 0.6774,0.9415 0.1761,0 0.441,-0.0601 0.7945,-0.4412 0.2341,-0.3238 0.7354,-1.0594 1.6172,-2.8541 1.2947,-2.6776 2.089,-4.2961 2.2949,-4.7668 0.2377,-0.5581 0.2377,-0.764 0.2377,-0.764 0,-0.0881 -0.1763,-0.2945 -0.6468,-0.5298 -1.5014,-0.7356 -1.8253,-1.7358 -1.8253,-2.4423 0,-0.9415 0.4421,-2.2065 2.6186,-2.9715 1.4424,-0.5004 3.5314,-0.7361 6.3275,-0.7361 2.7947,0 4.7372,0.2058 5.9431,0.6471 0.8535,0.2944 2.2651,1.0888 2.2651,2.9129 0,0.8241 -0.2943,1.53 -0.8524,2.0304 -0.5013,0.4711 -1.2071,0.765 -2.1185,0.8829 -1.2651,0.1468 -1.5594,0.2945 -1.589,0.3238 -0.1761,0.1174 -0.707,0.5885 -1.6185,2.2951l-11.5057 21.7444c-0.7649,1.4714 -1.5002,2.4721 -2.2652,3.0606l0 0.0298c-0.7943,0.6178 -1.8241,0.9417 -2.972,0.9417l0 -0.0005zm-2.6187 -2.8831l0 0c0.2069,0.2348 0.5001,0.4411 0.8535,0.6471 0.5296,0.2349 1.089,0.3826 1.7652,0.3826 0.7365,0 1.3535,-0.1762 1.8241,-0.5591 0.3536,-0.2945 0.9718,-0.971 1.7663,-2.4718l11.5341 -21.7443c0.8239,-1.5887 1.5298,-2.5304 2.2073,-3.0014 0.4409,-0.2945 1.1763,-0.4705 2.4129,-0.6178 1.324,-0.1467 1.324,-0.7351 1.324,-1.059 0,-0.3826 -0.1477,-0.8536 -1.0591,-1.1769 -0.6776,-0.2353 -2.1482,-0.5591 -5.2965,-0.5591 -4.4442,0.0303 -7.0924,0.7058 -7.0924,1.8832 0,0.2646 0.266,0.5298 0.7649,0.7651 1.4128,0.6764 1.7072,1.5593 1.7072,2.207 0,0.4119 -0.1171,0.8824 -0.383,1.5006l0 0.0299c-0.2342,0.4711 -1.0002,2.0597 -2.3244,4.8259 -0.7945,1.5888 -1.4116,2.6482 -1.8833,3.2069 -0.765,0.9122 -1.6184,1.1181 -2.2061,1.1181 -0.9423,0 -1.7367,-0.6769 -2.355,-1.9712l-3.1484 -6.6206c-0.3817,-0.765 -0.5296,-1.3829 -0.5296,-1.8539 0,-1.0883 1.0606,-1.7653 1.4127,-2.0005 0.4128,-0.2353 0.8833,-0.6472 0.8833,-1.0298 0,-0.5591 -0.5889,-1.0008 -1.7368,-1.3539 -1.5299,-0.4705 -3.9723,-0.7058 -7.2673,-0.7058 -3.178,0 -5.5905,0.3243 -7.2384,0.9415 -2.0303,0.7353 -2.0303,1.6187 -2.0303,1.8832 0,0.4712 0.0879,0.7353 0.7058,0.8243 1.0595,0.1761 1.8538,0.5586 2.4422,1.1182 0.5591,0.4998 1.1476,1.3827 1.7653,2.6775l10.2691 21.0675c0.4717,1.0008 0.7648,1.442 0.9127,1.6479l0 -0.0014z"/>
   </g>
   <g>
    <path class="fil4" d="M89.7138 15.5655l-1.0297 -0.7932 0 -0.2661 -0.2056 0.1183 -0.1469 -0.0887 0 0.2057 -1.0297 0.7945c-3.9431,3.4131 -31.5137,6.6797 -35.221,6.6797 -11.2993,0 -21.7451,-2.2073 -30.2781,-5.974 -7.0326,11.0943 -11.1222,24.3936 -11.1222,38.6939 0,33.1023 22.5687,61.3501 52.2285,68.7944 0,0 20.0378,8.6803 25.4225,17.0663l0.3828 0c5.3552,-8.3565 25.3932,-17.037 25.3932,-17.037 29.6299,-7.4443 52.2287,-35.6621 52.2287,-68.765 0,-14.3295 -4.0907,-27.63 -11.1521,-38.7218 -8.504,3.7655 -18.9491,5.9727 -30.2774,5.9727 -3.7077,0 -31.2491,-3.2665 -35.1922,-6.6797l-0.0008 0zm-1.0292 -15.5359l0 0c7.2976,6.3558 20.097,10.6225 34.6628,10.6225 13.6821,0 25.805,-3.7666 33.22,-9.5337 12.9764,14.388 20.8028,32.9552 20.8028,53.2288 0,39.8701 -29.542,69.0883 -69.736,84.2127 -8.0035,3.0014 -17.0958,16.3013 -18.8025,18.6257l0 0.3239 -0.1466 -0.1469 -0.1175 0.1469 0 -0.3239c-1.7066,-2.3244 -10.7987,-15.6243 -18.8022,-18.6257 -40.1936,-15.1244 -69.7654,-44.3426 -69.7654,-84.2127 0,-20.2736 7.8269,-38.8408 20.8323,-53.2288 7.4154,5.7671 19.538,9.5337 33.2203,9.5337 14.5654,0 27.3648,-4.2667 34.6031,-10.6521l0.0289 0.0296z"/>
   </g>
   <polygon class="fil1" points="33.1603,39.4883 33.1603,77.9166 34.9846,79.9176 39.3983,80.5061 44.4296,79.7709 46.7545,80.624 49.1963,82.2127 51.7859,80.3887 56.6705,80.1533 59.9659,80.7419 63.9089,79.5356 64.9974,75.0043 64.9974,39.4889 "/>
   <g>
    <path class="fil4" d="M49.0198 40.8418l-14.7121 0 0 23.1278 0.0303 13.5058c0.3239,0.9122 0.5,1.4419 1.3242,1.8245 3.8544,1.7946 8.6798,-2.1776 12.4462,0.9117 0.4418,0.3536 0.6766,0.5884 1.0596,0.9715 0.3825,-0.3831 0.6173,-0.6179 1.0589,-0.9715 3.7665,-3.0893 8.5919,0.8829 12.4469,-0.9117 0.8238,-0.3831 1.0003,-0.9123 1.3241,-1.8245l0.0298 -13.5058 0 -23.1278 -15.0079 0zm0.1781 -15.8005l0 0 0 0.0603c0.3829,0.2944 0.6177,0.4706 1.0595,0.7354 0.7356,0.4705 1.5886,0.2057 2.0596,0.9423 0.4119,0.6466 0.6174,1.3241 0.1763,1.9116 -0.2349,0.324 -0.471,0.5593 -0.8829,0.5593 -0.5,0 -0.4413,-0.7945 -0.9417,-0.9411 -1.0003,-0.2648 -0.8824,1.6764 -0.4705,2.6187 0.4705,1.0297 2.3243,2.4413 2.6188,1.3241 0.1174,-0.4706 -0.2945,-0.7354 -0.2063,-1.2354 0.1466,-0.7945 0.6471,-1.5016 1.4708,-1.472 0.383,0.0308 0.6177,0.1466 0.8829,0.3819l0.4119 0.5013 0.1471 0.7649c0,0.5296 -0.1471,0.8832 -0.5297,1.2354 0.7362,0.324 1.3829,0.2944 2.0893,-0.0874 0.6176,-0.324 0.9707,-0.6775 1.1474,-1.3537l0.0881 -0.6479 -0.1469 -0.4114 -0.3531 -0.4422 -0.3532 -0.0604c-0.5297,-0.0591 -0.9709,0.2957 -1.3534,-0.0874 -0.3535,-0.3831 -0.3535,-0.9706 0,-1.3833 0.5879,-0.6762 1.5003,-0.4113 2.4419,-0.7649 0.6179,-0.2648 0.9416,-0.4114 1.53,-0.7353 0.3829,0.6171 0.3537,1.1468 1.0301,1.5298 0.7358,0.4126 1.53,0.8536 1.6182,1.7947 0.0302,0.3534 0.0605,0.6183 -0.1469,0.9127 -0.2347,0.3535 -0.559,0.5875 -0.9708,0.4705l-0.5005 -0.5001 -0.1762 -0.266 -0.3823 -0.3523 -0.4418 0.3523 -0.2945 0.5592 -0.1466 0.7353c0,0.4114 0.0879,0.6775 0.3237,1.0297 0.5003,0.7945 1.2361,1.148 2.1184,1.0298 -0.2054,-0.4706 -0.2054,-0.8524 0,-1.3241 0.1767,-0.3523 0.3532,-0.5592 0.706,-0.7058l0.7944 -0.0592 0.5003 0.2045 0.3239 0.4718c0.2053,0.4114 0.1761,0.7058 0.0879,1.1467 -0.1173,0.5297 -0.2639,0.8536 -0.6471,1.2068 0.7353,0.5297 1.5301,0.5884 2.3542,0.1467 0.8532,-0.4706 2.0301,-1.8535 1.1477,-2.2354l-0.383 -0.0887c-0.4413,-0.0887 -0.8238,0.3535 -1.177,0.0296 -0.3824,-0.324 -0.1173,-0.8228 0.0606,-1.2946 0.4707,-1.3241 2.1479,-0.3535 3.4721,-0.7945l0.8237 -0.2943 -4.0016 8.5333 0 39.1347c-0.2648,0.6769 -0.4708,1.0588 -0.8532,1.6771 -3.2073,5.1787 -11.152,-1.2947 -15.3303,3.1775 -0.3531,0.3537 -0.5297,0.5591 -0.8236,0.9416 -0.295,-0.3825 -0.5006,-0.5879 -0.8243,-0.9416 -4.1783,-4.4722 -12.123,2.0012 -15.33,-3.1775 -0.3828,-0.6178 -0.5884,-1.0006 -0.8534,-1.6771l0 -39.1347 -4.0017 -8.5333 0.8237 0.2943c1.3241,0.4422 3.0014,-0.5296 3.4724,0.7945 0.1762,0.4718 0.4412,0.9718 0.0601,1.2946 -0.3532,0.3239 -0.7352,-0.117 -1.1768,-0.0296l-0.3538 0.0887c-0.9116,0.3819 0.2658,1.7648 1.1183,2.2354 0.8242,0.4417 1.6186,0.383 2.3542,-0.1467 -0.3829,-0.3532 -0.5298,-0.6771 -0.6471,-1.2068 -0.0881,-0.4409 -0.1174,-0.7353 0.0881,-1.1467l0.3238 -0.4718 0.5004 -0.2045 0.7943 0.0592c0.3532,0.1466 0.5298,0.3535 0.7058,0.7058 0.2056,0.4717 0.2056,0.8535 0,1.3241 0.8829,0.1182 1.648,-0.234 2.1185,-1.0298 0.2353,-0.3535 0.3239,-0.6171 0.3239,-1.0297l-0.1468 -0.7353 -0.2945 -0.5592 -0.4416 -0.3523 -0.3825 0.3523 -0.1468 0.266 -0.5297 0.5001c-0.4118,0.117 -0.7357,-0.117 -0.971,-0.4705 -0.2053,-0.2956 -0.1761,-0.5593 -0.1468,-0.9127 0.0881,-0.9411 0.8829,-1.3821 1.6181,-1.7947 0.6775,-0.383 0.6472,-0.9115 1.0301,-1.5298 0.5882,0.3239 0.9124,0.4705 1.5301,0.7353 0.9418,0.3536 1.854,0.0887 2.4424,0.7649 0.3531,0.4127 0.3826,1.0002 0,1.3833 -0.383,0.3831 -0.8243,0.0308 -1.3534,0.0874l-0.3538 0.0604 -0.3531 0.4422 -0.1174 0.4114 0.0602 0.6479c0.176,0.6774 0.5298,1.0297 1.1475,1.3537 0.7361,0.3818 1.3534,0.4114 2.089,0.0874 -0.3824,-0.3535 -0.5296,-0.7058 -0.5296,-1.2354l0.1472 -0.7649 0.4119 -0.5013c0.2945,-0.2341 0.5003,-0.3523 0.8829,-0.3819 0.8237,-0.0308 1.324,0.6762 1.4708,1.472 0.0887,0.4988 -0.3237,0.7648 -0.2055,1.2354 0.2945,1.1172 2.1479,-0.2956 2.6191,-1.3241 0.4411,-0.9423 0.5291,-2.8835 -0.4712,-2.6187 -0.4999,0.1466 -0.4413,0.9411 -0.9415,0.9411 -0.4119,0 -0.6472,-0.2353 -0.8824,-0.5593 -0.4417,-0.5875 -0.2353,-1.265 0.176,-1.9116 0.4706,-0.7366 1.324,-0.4718 2.0598,-0.9423 0.4413,-0.2648 0.6764,-0.441 1.059,-0.7354l0 -0.0603 0.0554 0z"/>
   </g>
   <path class="fil3" d="M35.0727 39.0178c2.0011,-2.0012 7.5623,-3.4427 14.0944,-3.4427 6.5324,0 12.0936,1.4415 14.0942,3.4427l-28.1886 0z"/>
   <path class="fil3" d="M63.4673 39.1058l-28.6004 0 0.1467 -0.1467c2.0597,-2.0892 7.7388,-3.472 14.1535,-3.472 6.4142,0 12.0931,1.3828 14.1528,3.472l0.1474 0.1467zm-28.1593 -0.176l0 0 27.718 0c-2.1479,-1.9718 -7.6503,-3.2661 -13.8589,-3.2661 -6.2083,0 -11.7106,1.2943 -13.8591,3.2661z"/>
   <path class="fil3" d="M57.8768 44.5789l-0.3826 0.6471c-0.5003,1.0296 -0.7944,1.6773 -0.736,2.795l0.0303 0.5004c0.2945,1.0003 1.7066,-0.5297 2.4124,-1.236 0.4418,-0.4707 0.765,-0.677 1.1479,-1.177 -0.265,0.6472 -0.471,1.177 -0.6774,1.7066 -0.4411,1.1183 -0.4411,1.0003 -0.7058,1.8246 -0.2055,0.6765 0.5298,0.6765 1.7951,0.0601 0.3532,-0.1467 1.5595,-0.9122 1.7948,-1.8832 0.4118,2.1185 -0.6766,4.0604 -2.7069,4.8254 -0.3532,0.1179 -0.5885,0.1766 -0.9711,0.2065 -0.7059,0.1179 -1.118,0.0606 -1.8244,0 -0.4999,-0.0299 -0.7652,-0.0602 -1.2649,-0.1174l-5.5323 7.9447 11.7996 15.6537 -0.7059 0.647 -11.8877 -15.3004 -10.7396 15.6243 -0.8242 -0.5591 10.9167 -15.7418 -6.7091 -9.8572c-0.7356,0.588 -1.1769,0.8824 -1.9712,1.3534 -1.1182,0.6771 -1.7653,1.0003 -2.9422,1.5008 -0.7058,-0.6179 -1.0595,-1.1182 -1.354,-1.9718 -0.1468,-0.4705 -0.2055,-0.765 -0.2055,-1.2649 -0.0303,-0.3536 0,-0.5885 0.0882,-0.9416l0.5002 0.3238c0.4706,0.2348 0.765,0.4119 1.2948,0.3531l0.2055 -0.0601 0.1174 -0.7943c0.0302,-0.5591 0,-0.8536 -0.0601,-1.3834 0.353,0.1473 0.5298,0.2652 0.8829,0.4417l0.4411 0.2945 0.6472 0.1762 0.3239 -0.4707 0.06 -0.5003c0,-0.5293 -0.06,-0.8238 -0.2641,-1.3241 0.7058,0.5003 1.7066,1.4125 2.0598,0.6471l0.0881 -0.4706c0.06,-0.6178 0.0297,-0.9714 -0.1473,-1.5599 0.471,0.3243 0.795,0.471 1.354,0.5298 0.3531,0.0601 0.6173,0.1761 0.9415,0.0303 0.6761,-0.3244 0.5293,-1.442 -0.0605,-1.9424 0.7058,0.1472 1.0887,0.3242 1.7066,0.7058 0.7943,0.471 1.2067,0.8536 1.7067,1.648 -0.3826,0.559 -0.6472,0.8536 -1.1182,1.3828 -0.3826,0.4123 -0.6175,0.6178 -1.0297,1.0007 -0.8238,0.7352 -1.3241,1.1476 -2.207,1.7948l6.4147 9.2395 5.3846 -7.7975c-0.1175,-0.5005 -0.2055,-0.7944 -0.324,-1.2948 -0.1173,-0.5884 -0.2347,-0.9123 -0.2642,-1.5007 -0.0303,-0.5885 0,-0.9416 0.1762,-1.53 0.5297,-1.7067 1.5886,-2.7363 3.3247,-3.178l0.001 -0.0005z"/>
   <path class="fil3" d="M38.7508 77.4168l-0.9711 -0.6775 10.9169 -15.7417 -6.6207 -9.7105c-0.6766,0.5297 -1.1182,0.8241 -1.9127,1.2948 -1.0888,0.6774 -1.7358,1.0002 -2.9425,1.5006l-0.0603 0 -0.0303 -0.0303c-0.7355,-0.6174 -1.0589,-1.1177 -1.3827,-2.0006 -0.1468,-0.4705 -0.2054,-0.765 -0.235,-1.2948 0,-0.3825 0.0301,-0.5884 0.1175,-0.971l0.0304 -0.1467 0.1174 0.0881 0.4705 0.3238 0.1472 0.0601c0.3826,0.206 0.6466,0.3536 1.0884,0.295l0.1766 -0.0304 0.0601 -0.7649c0.0302,-0.5298 0.0302,-0.8238 -0.0303,-1.3536l-0.0298 -0.1765 0.1468 0.0884c0.3532,0.1469 0.559,0.2652 0.8828,0.4413l0.2054 0.1468 0.2653 0.1472 0.176 0.088 0.383 0.0881 0.2651 -0.3826 0 -0.0303 0.0602 -0.3531 0 -0.1174c0,-0.5004 -0.0602,-0.8241 -0.2642,-1.2654l-0.1471 -0.3238 0.2645 0.2063 0.2945 0.2055c0.4705,0.3533 1.0594,0.765 1.412,0.6766l0.2061 -0.2354 0.088 -0.2944 0.0303 -0.1174c0.0602,-0.6178 0.0298,-0.9709 -0.1472,-1.53l-0.0881 -0.2647 0.2353 0.1473c0.4412,0.3238 0.765,0.4412 1.3236,0.5293l0.206 0.0606 0.6764 -0.0303 0.3827 -0.5886c0.06,-0.4412 -0.1469,-0.9122 -0.4706,-1.1768l0.0879 -0.1761c0.7059,0.1467 1.1183,0.3238 1.7361,0.7058 0.7942,0.4999 1.2061,0.9118 1.7067,1.6769l0.06 0.0606 -0.06 0.0298c-0.3827,0.5884 -0.6179,0.8829 -1.089,1.4127 -0.3531,0.3531 -0.5885,0.5585 -0.9121,0.8531l-0.1469 0.1472c-0.8237,0.7357 -1.2948,1.1176 -2.1477,1.7653l6.2968 9.0629 5.2964 -7.6802c-0.1178,-0.4705 -0.206,-0.7356 -0.3243,-1.2355l-0.088 -0.4417c-0.0882,-0.3532 -0.1761,-0.6472 -0.1761,-1.0884 -0.0305,-0.6471 0.0302,-1.0008 0.1761,-1.5599 0.5297,-1.7359 1.6185,-2.7949 3.3838,-3.2366l0.2349 -0.0601 -0.1175 0.2059 -0.3825 0.6467c-0.5297,1.0594 -0.7944,1.6773 -0.736,2.7367l0 0.1468 0.0303 0.3238 0.2053 0.2651c0.4418,0.0881 1.4127,-0.9118 1.9423,-1.4415l0.0882 -0.1179 0.4706 -0.4412 0.7058 -0.7059 0.1467 0.088c-0.2651,0.6179 -0.4705,1.1182 -0.6759,1.7067 -0.1766,0.383 -0.2656,0.6178 -0.3538,0.7944 -0.1174,0.3536 -0.176,0.5003 -0.3531,1.0301l0.0303 0.3238c0.0602,0.0601 0.3825,0.2065 1.6474,-0.3824 0.295,-0.118 1.4713,-0.8536 1.7366,-1.8246l0.1761 0c0.4118,2.1479 -0.7058,4.1783 -2.7662,4.914 -0.3824,0.1467 -0.6173,0.2055 -1.0003,0.2641 -0.5884,0.0886 -0.971,0.0606 -1.53,0l-0.3238 0c-0.4711,-0.0298 -0.7362,-0.0601 -1.1768,-0.1467l-5.4732 7.8566 11.7992 15.6537 -0.8237 0.765 -11.8878 -15.2712 -10.7092 15.5951zm-0.7358 -0.7059l0 0 0.677 0.4412 10.7696 -15.6243 11.917 15.3004 0.5292 -0.5292 -11.7698 -15.6243 0.0303 -0.0606 5.5905 -8.0034 0.0607 0.0303c0.4705,0.0601 0.7355,0.088 1.2355,0.1174l0.3237 0.0303c0.5298,0.0602 0.9124,0.0602 1.5009,-0.0303 0.3535,-0.0601 0.5884,-0.0881 0.9415,-0.2055 1.8538,-0.7058 2.9134,-2.4423 2.7074,-4.3842 -0.4123,0.853 -1.442,1.4714 -1.7067,1.6181 -0.6774,0.3238 -1.5304,0.6178 -1.8538,0.3536l-0.0881 -0.5296c0.1762,-0.5298 0.2349,-0.6766 0.3826,-1.0303 0.0601,-0.176 0.1761,-0.4118 0.3238,-0.8236 0.1762,-0.4119 0.3239,-0.7944 0.471,-1.1769l-0.3242 0.3238 -0.4706 0.4417 -0.1173 0.088c-0.795,0.8237 -1.5894,1.6181 -2.0893,1.5007l-0.3535 -0.383 -0.0299 -0.3825 0 -0.1468c-0.0601,-1.1474 0.2349,-1.8244 0.7357,-2.8247l0.2651 -0.4707c-1.5888,0.4707 -2.5304,1.4416 -3.0309,3.0602 -0.1466,0.5293 -0.1761,0.8824 -0.1761,1.5007 0.0305,0.4118 0.0882,0.7053 0.1761,1.059l0.1179 0.4417c0.0881,0.4999 0.1763,0.765 0.2945,1.265l0.0299 0.0303 -5.5025 7.974 -6.5612 -9.4455 0.0878 -0.0601c0.8829,-0.6471 1.383,-1.0301 2.1777,-1.7653l0.1762 -0.1765c0.3239,-0.2945 0.5591,-0.4707 0.8829,-0.8531 0.4413,-0.4711 0.7058,-0.765 1.0589,-1.2948 -0.4705,-0.7353 -0.8824,-1.1182 -1.6475,-1.5887 -0.5002,-0.295 -0.8533,-0.4711 -1.3539,-0.6179 0.2061,0.3239 0.3537,0.7651 0.295,1.1475 -0.0605,0.3238 -0.2058,0.5886 -0.5003,0.706l-0.7651 0.06 -0.2054 -0.06c-0.5004,-0.0602 -0.8243,-0.1767 -1.2069,-0.4124 0.1177,0.471 0.1474,0.8535 0.0881,1.3539l-0.0297 0.1175 -0.0881 0.3824 -0.3537 0.3239c-0.4119,0.1179 -1.0295,-0.3239 -1.5593,-0.7059l-0.0298 -0.0299c0.1174,0.3532 0.176,0.6472 0.176,1.0591l0 0.1174 -0.0602 0.4124 0 0.0298 -0.3829 0.5003 -0.5292 -0.1179 -0.4711 -0.2347 -0.1761 -0.1174 -0.7057 -0.383c0.0303,0.4416 0.06,0.7361 0.0303,1.2066l-0.0887 0.8531 -0.0298 0.0603 -0.0603 0 -0.2351 0.0606c-0.4999,0.0601 -0.8237,-0.0881 -1.2063,-0.3239l-0.1471 -0.0605 -0.3826 -0.235 -0.0601 0.7945c0,0.4706 0.0601,0.7356 0.2348,1.2356 0.265,0.8535 0.5884,1.2948 1.2361,1.8832 1.1474,-0.4705 1.824,-0.7944 2.8835,-1.4415 0.7943,-0.5005 1.236,-0.7943 1.9717,-1.3829l0.0602 -0.0606 0.06 0.0881 6.7381 9.9165 -0.0299 0.0601 -10.8585 15.6522z"/>
   <path class="fil5" d="M21.7435 29.0136c0.4412,-0.0308 0.7352,0.0296 1.177,0.1171 1.53,0.4126 2.2363,1.3832 2.9719,2.7948 0.4413,0.8536 0.5293,1.4128 0.6472,2.3846 0.1468,1.3824 -0.0303,2.2355 -0.4124,3.5891 -0.2943,0.9415 -0.5879,1.442 -0.9709,2.3542 -0.3825,0.8829 -0.6765,1.3534 -1.0297,2.2363 -0.1766,0.4705 -0.3237,0.7352 -0.4124,1.2063 -0.0879,0.3824 -0.1174,0.6178 -0.1174,1.0296l0.6472 -0.3238c0.7944,-0.4118 1.1769,-0.7944 1.7947,-1.4416 0.5885,-0.6177 0.9124,-1.0007 1.3241,-1.7658 0.2945,-0.5879 0.4124,-0.9117 0.5886,-1.5594 0.2053,-0.7352 0.2943,-1.1767 0.3238,-1.9712l0.5002 0.2064c0.6472,0.3826 0.8238,0.8824 1.0003,1.6181 0.2653,1.0595 0.2945,1.7361 0,2.7955 -0.1466,0.5884 -0.3237,0.9122 -0.6471,1.4713 -0.3532,0.6173 -0.6176,0.971 -1.0887,1.5301 -0.3532,0.4412 -0.588,0.7058 -1.0004,1.1181 -0.5587,0.5881 -0.9123,0.8531 -1.4416,1.4122 -0.4416,0.4707 -0.7057,0.7059 -1.1181,1.1769 -0.3532,0.4124 -0.5298,0.6472 -0.8242,1.0889l0.0607 2.3537c0.4119,-0.176 0.6759,-0.2944 1.0591,-0.5586 1.0886,-0.6471 1.5592,-1.236 2.3242,-2.2363 0.9416,-1.2063 1.0303,-2.1479 1.7659,-3.472l0.4705 -0.8242c0.2945,0.3238 0.4418,0.5591 0.6472,0.971 0.1468,0.3243 0.1762,0.5296 0.2352,0.8829 0.2349,1.0889 0.1468,1.7946 -0.2352,2.8248 -0.4119,1.059 -0.9122,1.53 -1.6772,2.3243 -0.4707,0.4712 -0.7946,0.6775 -1.2651,1.1182 -0.7947,0.7651 -1.2066,1.2063 -1.9717,2.0007 -0.2642,0.3244 -0.4705,0.471 -0.7057,0.7949 -0.3827,0.4705 -0.5587,0.765 -0.7945,1.2649l-0.0303 2.8836c0.4418,-0.3238 0.7058,-0.5 1.1182,-0.8826l0.8242 -0.7361c0.4706,-0.4999 0.676,-0.853 1.059,-1.4415 0.2353,-0.4124 0.3532,-0.6471 0.5298,-1.0595 0.4413,-1.0003 0.5879,-1.6181 0.6173,-2.7069 0.6177,0.2348 0.9416,0.4999 1.2654,1.0297l0.3531 0.8241c0.1179,0.3238 0.1473,0.5293 0.2064,0.8531 0.0881,0.5591 0.0881,0.8829 -0.0298,1.442 -0.1472,0.7944 -0.3829,1.2355 -0.8535,1.9126 -0.3239,0.4706 -0.5881,0.677 -0.971,1.1475 -0.5,0.5884 -0.7943,0.9123 -1.2948,1.4714 -0.3824,0.4411 -0.5879,0.6764 -0.9709,1.0883 -0.3532,0.3536 -0.5586,0.5298 -0.8829,0.8829 -0.4118,0.471 -0.7352,0.7059 -0.9118,1.2948 -0.2059,0.5586 -0.2059,0.9415 -0.0601,1.5008 0.3532,-0.3538 0.5585,-0.5298 0.9411,-0.8536 0.3242,-0.3238 0.5297,-0.5 0.8829,-0.7944 0.3532,-0.2945 0.5297,-0.4412 0.8829,-0.7362 0.6174,-0.5293 0.9709,-0.7347 1.5594,-1.2943 0.2944,-0.3238 0.4999,-0.5003 0.765,-0.8241 0.2647,-0.3239 0.4118,-0.5293 0.6179,-0.8825 0.3237,-0.5297 0.4118,-0.8829 0.7058,-1.4714l0.2642 -0.5297c0.3829,0.5885 0.5589,0.9714 0.6774,1.6773 0.1468,0.6765 0.1468,1.0594 0.0297,1.736 -0.0297,0.5884 -0.1466,0.9122 -0.3823,1.442 -0.2649,0.5293 -0.5298,0.7944 -0.9124,1.2361 -0.8238,0.8824 -1.53,1.1177 -2.5009,1.7946 -0.5592,0.3826 -0.9417,0.5298 -1.4713,0.971 -0.3533,0.3238 -0.5588,0.5298 -0.8824,0.9415l-0.5298 0.7357c-0.2348,0.383 -0.3827,0.6179 -0.5592,1.0301 -0.1761,0.4707 -0.2651,0.7651 -0.3237,1.2655 -0.0298,0.5293 0.0302,0.8237 0.1173,1.3535 0.0885,0.3825 0.1472,0.588 0.2949,0.9416l0.3238 0.5292c0.1173,-0.4412 0.2064,-0.677 0.4413,-1.0887 0.3535,-0.5881 0.6764,-0.8238 1.1182,-1.3536 0.8237,-0.9709 1.2653,-1.5301 2.2069,-2.4125l0.8238 -0.7948c1.1474,-1.1768 1.6773,-2.0006 2.2071,-3.56 0.3824,0.5879 0.5293,0.971 0.7058,1.6475 0.2945,1.1769 0.2945,1.9717 -0.0886,3.1192 -0.3824,1.1476 -0.853,1.736 -1.7653,2.5304l-0.7059 0.5004c-0.8823,0.6172 -1.5005,0.7651 -2.3537,1.4121 -0.4124,0.3238 -0.6471,0.4999 -1.0003,0.8531l-0.6471 0.7059 0 0.471c0.2944,1.2063 0.8824,1.6479 1.7066,2.4715 0.5885,0.588 1.0296,0.8531 1.7067,1.3536 0.4997,0.3531 0.8236,0.5591 1.3534,0.8829 0.559,0.3531 0.9121,0.5291 1.5007,0.8237 0.9709,0.4705 1.5007,0.7357 2.5303,1.0595 0.6471,0.176 1.0003,0.2641 1.6479,0.3825 2.8542,0.5585 4.5017,0.3238 7.415,0.2945 2.501,0 3.8838,0.1467 6.3554,0.265 2.4424,-0.1174 3.8546,-0.265 6.3263,-0.265 2.9132,0.0302 4.5607,0.265 7.4155,-0.2945 0.6466,-0.1174 1.0295,-0.206 1.6474,-0.3825 1.0295,-0.3243 1.5593,-0.5885 2.5304,-1.0595 0.5884,-0.2946 0.9415,-0.4711 1.5005,-0.8237 0.5592,-0.3243 0.8537,-0.5298 1.3835,-0.8829 0.6763,-0.5005 1.0882,-0.7362 1.6766,-1.3536 0.8243,-0.8236 1.4127,-1.2652 1.7067,-2.4715l0.0303 -0.471 -0.6764 -0.7059c-0.3532,-0.3532 -0.5885,-0.5293 -0.971,-0.8531 -0.8828,-0.647 -1.5007,-0.7944 -2.3836,-1.4121l-0.6765 -0.5004c-0.9117,-0.7944 -1.3828,-1.3828 -1.7654,-2.5304 -0.3825,-1.1475 -0.3825,-1.9423 -0.088,-3.1192 0.1468,-0.6765 0.3238,-1.0591 0.6764,-1.6475 0.5298,1.5594 1.0596,2.3832 2.2072,3.56l0.8529 0.7948c0.9124,0.8824 1.383,1.4416 2.2072,2.4125 0.4411,0.5298 0.765,0.765 1.0882,1.3536 0.2353,0.4122 0.3245,0.6471 0.471,1.0887l0.2946 -0.5292c0.176,-0.3536 0.2065,-0.5591 0.2944,-0.9416 0.1175,-0.5298 0.1469,-0.8242 0.1175,-1.3535 -0.0299,-0.5004 -0.1469,-0.7948 -0.3238,-1.2655 -0.1761,-0.4117 -0.3239,-0.6471 -0.5587,-1.0301l-0.5297 -0.7357c-0.2945,-0.4117 -0.5004,-0.6177 -0.8829,-0.9415 -0.5293,-0.4412 -0.8825,-0.5884 -1.4415,-0.971 -1.0007,-0.6775 -1.7066,-0.9122 -2.5011,-1.7946 -0.4124,-0.4417 -0.6773,-0.7059 -0.9121,-1.2361 -0.2647,-0.5298 -0.3536,-0.8536 -0.4124,-1.442 -0.1174,-0.6769 -0.0882,-1.059 0.0303,-1.736 0.1468,-0.7059 0.2945,-1.0883 0.6764,-1.6773l0.2945 0.5297c0.2647,0.5885 0.3531,0.9417 0.6765,1.4714 0.2347,0.3532 0.3532,0.5586 0.6179,0.8825 0.2943,0.3243 0.4705,0.5003 0.7942,0.8241 0.5587,0.5586 0.9416,0.765 1.5301,1.2943 0.3532,0.295 0.5592,0.4417 0.8829,0.7362 0.3532,0.3239 0.5587,0.4711 0.9119,0.7944 0.3535,0.3238 0.5883,0.5297 0.9416,0.8536 0.1179,-0.5593 0.1179,-0.9417 -0.0603,-1.5008 -0.2055,-0.5884 -0.5292,-0.8238 -0.9416,-1.2948 -0.2945,-0.3531 -0.5292,-0.5298 -0.853,-0.8829 -0.383,-0.4119 -0.5884,-0.6467 -0.971,-1.0883 -0.5298,-0.5591 -0.7948,-0.883 -1.3242,-1.4714 -0.3829,-0.4705 -0.6471,-0.6769 -0.9709,-1.1475 -0.4711,-0.6766 -0.7058,-1.1182 -0.8534,-1.9126 -0.0882,-0.5591 -0.0882,-0.8829 -0.0303,-1.442 0.0606,-0.3238 0.0884,-0.5293 0.2063,-0.8531l0.3537 -0.8241c0.3532,-0.5293 0.6764,-0.7944 1.2648,-1.0297 0.0606,1.0888 0.1767,1.7066 0.618,2.7069 0.176,0.4124 0.3237,0.6471 0.559,1.0595 0.3531,0.5879 0.5586,0.9416 1.0589,1.4415l0.7945 0.7361c0.4417,0.3826 0.6774,0.5591 1.1479,0.8826l-0.0606 -2.8836c-0.2348,-0.4999 -0.4118,-0.7944 -0.765,-1.2649 -0.2642,-0.3243 -0.4411,-0.471 -0.7352,-0.7949 -0.7356,-0.7944 -1.177,-1.2356 -1.942,-2.0007 -0.4997,-0.4412 -0.8237,-0.647 -1.2652,-1.1182 -0.7945,-0.7943 -1.2943,-1.2653 -1.6769,-2.3243 -0.4124,-1.0302 -0.4712,-1.7359 -0.2651,-2.8248 0.0601,-0.3533 0.1174,-0.5591 0.2651,-0.8829 0.176,-0.4119 0.3239,-0.6174 0.6468,-0.971l0.4416 0.8242c0.7355,1.3241 0.8529,2.2657 1.7653,3.472 0.7651,1.0003 1.2653,1.5887 2.3245,2.2657 0.4122,0.2348 0.6471,0.3532 1.0888,0.5292l0.0303 -2.3537c-0.2945,-0.4412 -0.4711,-0.6765 -0.8243,-1.0889 -0.4118,-0.4705 -0.6466,-0.7057 -1.0884,-1.1769 -0.559,-0.5591 -0.9122,-0.8236 -1.442,-1.4122 -0.4118,-0.4123 -0.6471,-0.647 -1.0295,-1.1181 -0.471,-0.5591 -0.7363,-0.9123 -1.0889,-1.5301 -0.3238,-0.5591 -0.4711,-0.8829 -0.6471,-1.4713 -0.2945,-1.0594 -0.2651,-1.736 0,-2.7955 0.176,-0.7357 0.3531,-1.2355 1.0002,-1.6181l0.5004 -0.2064c0.0602,0.7945 0.1175,1.236 0.3239,1.9712 0.176,0.6472 0.2945,1.0008 0.6177,1.5594 0.3826,0.7656 0.706,1.1481 1.2948,1.7658 0.6173,0.6472 1.0003,1.0298 1.7947,1.4416l0.6766 0.3243c-0.0305,-0.4123 -0.0305,-0.6472 -0.1176,-1.0301 -0.1179,-0.4706 -0.2353,-0.7353 -0.4122,-1.2063 -0.3531,-0.8829 -0.6467,-1.3534 -1.0297,-2.2363 -0.4119,-0.9122 -0.7058,-1.4122 -0.9708,-2.3539 -0.3827,-1.3534 -0.5887,-2.207 -0.4119,-3.5894 0.0879,-0.9718 0.2053,-1.531 0.6466,-2.3846 0.7058,-1.4116 1.4127,-2.3822 2.9426,-2.7948 0.4412,-0.0875 0.7357,-0.1466 1.2062,-0.1171 -0.06,0.3831 -0.1174,0.5876 -0.2053,0.9706 -0.0603,0.3536 -0.1175,0.5593 -0.1766,0.9411 -0.1468,0.7366 -0.1762,1.148 -0.2349,1.8833 -0.0879,0.8832 -0.1761,1.4128 -0.0601,2.3248 0.088,0.4711 0.1467,0.7059 0.2945,1.1774 0.1174,0.5 0.264,0.7944 0.4119,1.2943 0.1174,0.6472 0.1765,1.0008 0.2059,1.648 0.0602,0.6471 0.0299,1.0003 -0.0607,1.6479 -0.06,0.5879 -0.1173,0.9118 -0.2347,1.5006l-0.1468 0.6174c-0.088,0.471 -0.088,0.7058 -0.0303,1.1773l0.4413 -0.3536 0.4709 -0.4118 0.6178 -0.6471c0.5292,-0.6765 0.8531,-1.0889 1.1475,-1.9127 0.1467,-0.3532 0.1763,-0.5591 0.2641,-0.9415 0.2066,-0.9123 0.118,-1.4713 0.2945,-2.413l0.0606 -0.3531c0.4119,0.1466 0.6473,0.2645 0.9418,0.559 0.8237,0.7944 1.0003,1.4714 1.1475,2.5597 0.06,0.4124 0.0881,0.6178 0.06,1.0595 -0.06,0.8237 -0.2353,1.3242 -0.6764,2.0597 -0.2347,0.4119 -0.3825,0.6174 -0.7058,0.971l-0.971 1.0889 -0.9417 1.0003 -1.1182 1.3534 -0.7058 1.1183 -0.3237 0.5292 -0.0304 2.0305 0.5884 -0.3238c0.8829,-0.5298 1.3242,-0.9417 1.9421,-1.7361 0.265,-0.3536 0.3829,-0.559 0.5884,-0.9415 0.4706,-0.9123 0.7059,-1.6186 0.7943,-2.4717l0.1174 -0.6472c0.4418,0.1468 0.7058,0.2945 1.0594,0.5886 1.1478,1.0295 1.0003,2.5303 0.4119,3.9723 -0.2054,0.5586 -0.4411,0.8237 -0.7942,1.3236 -0.4119,0.5884 -0.6766,0.8829 -1.1769,1.4126l-0.7651 0.765c-0.3239,0.2945 -0.5297,0.4707 -0.8829,0.7651l-0.5586 0.5004c-0.5004,0.4705 -0.765,0.7356 -1.2067,1.2649l-0.0602 3.9724c0.5298,-0.3239 0.8236,-0.5591 1.2655,-1.0003l0.588 -0.6178c0.5884,-0.7059 0.8533,-1.1769 1.1773,-2.0305 0.1761,-0.4705 0.2053,-0.765 0.3237,-1.2648 0.1761,-0.6765 0.2348,-1.0596 0.3238,-1.7361l0.706 0.4412c0.6176,0.7651 0.7058,1.1182 0.9416,1.9125 0.0879,0.3533 0.1466,0.5591 0.1761,0.9124 0.06,0.5591 0.0881,0.8824 0,1.4121 -0.1761,1.0302 -0.5001,1.6479 -1.2357,2.3543l-1.0003 1.0003 -0.9714 0.9415 -1.4122 1.5596 -0.7351 0.9122 -0.0602 1.7653 0.3239 -0.2064c0.3531,-0.2348 0.5884,-0.3532 0.9414,-0.6179 1.3829,-0.941 2.2364,-1.4708 3.1482,-2.8835 0.5298,-0.8531 0.5298,-1.5006 1.0301,-2.383l0.3826 -0.6766c0.383,0.5 0.5884,0.8238 0.765,1.4122 0.4416,1.2067 0.5005,2.1185 -0.0601,3.2367 -0.3239,0.6765 -0.6473,1.0595 -1.2948,1.5007l-2.1771 1.5893c-0.6765,0.4117 -1.0303,0.677 -1.6479,1.2061l-0.7945 0.6766c-0.2651,0.3238 -0.3824,0.5586 -0.5298,0.9415l-0.176 2.8542 0.4705 -0.2059 0.5593 -0.3825c0.5589,-0.3826 0.8528,-0.5591 1.3826,-0.9417 0.4417,-0.3238 0.6766,-0.4705 1.089,-0.7943 0.7942,-0.677 1.3534,-1.0296 1.8538,-1.9125 0.2347,-0.4417 0.3239,-0.7362 0.4705,-1.2068l0.4711 0.7058c0.2347,0.4124 0.3237,0.6775 0.3826,1.1182 0.2063,0.971 0.0601,1.5893 -0.3532,2.5011 -0.2653,0.5883 -0.5005,0.8535 -0.9124,1.3539 -0.7944,0.9118 -1.4127,1.3241 -2.5008,1.8534 -0.5006,0.265 -0.8238,0.3238 -1.3537,0.5298 -0.4122,0.1466 -0.6472,0.2347 -1.0301,0.3824l-0.6174 0.3238 -0.7057 0.6472c-0.4709,0.7943 -0.7656,1.236 -1.354,1.9717 -0.6466,0.853 -1.059,1.2942 -1.824,2.0593 -1.5301,1.4125 -2.5309,2.0891 -4.3842,3.0605 -0.9415,0.4999 -1.5007,0.765 -2.4716,1.1178 -0.8537,0.2949 -1.3242,0.4122 -2.1777,0.5884 -0.8825,0.2064 -1.4122,0.2945 -2.3245,0.3238 -3.0601,0.1765 -4.6787,0.3243 -7.6208,0l0.6178 0.5003c0.4117,0.3533 0.6764,0.5293 1.1182,0.8829 0.7649,0.5 1.1767,0.8238 1.9125,1.4416 0.3237,0.2945 0.5292,0.4119 0.8237,0.7362 0.2651,0.3531 0.4711,0.5586 0.5884,0.971 0.1468,0.4705 0.1468,0.7943 0.0298,1.2355 -0.2347,0.8536 -0.7356,1.4713 -1.5887,1.5594 -0.6763,0.1179 -1.2061,-0.0881 -1.618,-0.6172 -0.5592,-0.6472 -0.6766,-1.0596 -1.1476,-1.6774 -0.5298,-0.7361 -0.8535,-1.1475 -1.4715,-1.7952 -0.3237,-0.3531 -0.5002,-0.5586 -0.8533,-0.8824 -0.588,-0.5003 -0.912,-0.765 -1.5596,-1.1475l-0.6176 -0.2945 -0.4707 -0.0606 -0.1467 0 -0.4711 0.0606 -0.5885 0.2945c-0.676,0.3825 -1.0003,0.6472 -1.5593,1.1475 -0.3533,0.3238 -0.5586,0.5293 -0.8825,0.8824 -0.6177,0.6472 -0.9416,1.0596 -1.4712,1.7952 -0.471,0.6178 -0.5884,1.0297 -1.1182,1.6774 -0.4418,0.5291 -0.971,0.7351 -1.6479,0.6172 -0.8532,-0.0881 -1.3535,-0.7053 -1.5887,-1.5594 -0.1177,-0.4412 -0.0882,-0.765 0.0302,-1.2355 0.1467,-0.4124 0.3237,-0.6179 0.6172,-0.971 0.2653,-0.3243 0.5005,-0.4417 0.8243,-0.7362 0.7057,-0.6178 1.1181,-0.9416 1.8832,-1.4416 0.4413,-0.3536 0.7057,-0.5296 1.1476,-0.8829l0.6173 -0.5003c-2.9716,0.3243 -4.5903,0.1765 -7.6204,0 -0.9417,-0.0298 -1.4421,-0.1174 -2.3543,-0.3238 -0.8531,-0.1762 -1.3242,-0.2945 -2.1479,-0.5884 -1.0003,-0.3533 -1.5593,-0.6174 -2.4715,-1.1178 -1.854,-0.9714 -2.8838,-1.648 -4.3843,-3.09 -0.7948,-0.735 -1.2067,-1.1768 -1.854,-2.0298 -0.559,-0.7352 -0.8829,-1.1774 -1.3533,-1.9717l-0.706 -0.6472 -0.5884 -0.3238c-0.4119,-0.1467 -0.6472,-0.2348 -1.0591,-0.3824 -0.5002,-0.2065 -0.8241,-0.2651 -1.324,-0.5298 -1.089,-0.5293 -1.7065,-0.9416 -2.5308,-1.8534 -0.4118,-0.5004 -0.6472,-0.7651 -0.9124,-1.3539 -0.3823,-0.9118 -0.5292,-1.5301 -0.3531,-2.5011 0.0881,-0.4412 0.1766,-0.7058 0.3831,-1.1182l0.4706 -0.7058c0.1466,0.4711 0.2645,0.7656 0.5002,1.2068 0.5001,0.8829 1.0297,1.2355 1.8241,1.9125 0.4123,0.3238 0.6473,0.4705 1.089,0.7943 0.5291,0.3826 0.8236,0.5591 1.3826,0.9417l0.5592 0.3825 0.4706 0.2059 -0.1761 -2.8542c-0.1469,-0.3829 -0.2653,-0.6177 -0.5298,-0.9415l-0.765 -0.6766c-0.6174,-0.5296 -1.0003,-0.7944 -1.6774,-1.2061l-2.1772 -1.5893c-0.6471,-0.4412 -0.9708,-0.8237 -1.2948,-1.5007 -0.5586,-1.1182 -0.4705,-2.03 -0.06,-3.2367 0.2055,-0.5879 0.3825,-0.9117 0.7651,-1.4122l0.4123 0.6766c0.4706,0.8824 0.4706,1.5299 1.0295,2.383 0.883,1.4127 1.7654,1.9425 3.1488,2.8835 0.3532,0.2657 0.5585,0.3831 0.9416,0.6179l0.2945 0.2064 -0.0607 -1.7653 -0.7352 -0.9122 -1.4121 -1.5596 -0.971 -0.9415 -0.9711 -1.0003c-0.765,-0.7059 -1.0887,-1.3241 -1.2653,-2.3543 -0.0881,-0.5292 -0.0601,-0.853 0,-1.4121 0.0602,-0.3533 0.0881,-0.5591 0.1761,-0.9124 0.2352,-0.7943 0.3536,-1.1474 0.9415,-1.9125l0.7363 -0.4412c0.0601,0.677 0.1466,1.0591 0.2943,1.7361 0.1174,0.4998 0.1469,0.7943 0.3532,1.2648 0.3239,0.8536 0.5885,1.3241 1.1769,2.0305l0.5592 0.6178c0.4411,0.4412 0.7361,0.6769 1.2653,1.0003l-0.0601 -3.9724c-0.4418,-0.5293 -0.7058,-0.7944 -1.1774,-1.2649l-0.5879 -0.5004c-0.3242,-0.2944 -0.5297,-0.4706 -0.8536,-0.7651l-0.7943 -0.765c-0.5005,-0.5297 -0.765,-0.8237 -1.1768,-1.4126 -0.324,-0.4999 -0.5886,-0.7645 -0.7945,-1.3236 -0.559,-1.442 -0.7362,-2.9428 0.4413,-3.9723 0.3532,-0.2945 0.5884,-0.4418 1.0594,-0.5886l0.088 0.6472c0.0881,0.8531 0.3239,1.5594 0.7944,2.4423 0.2064,0.4119 0.3238,0.6173 0.5885,0.9709 0.6173,0.7944 1.0884,1.2063 1.9419,1.7361l0.5884 0.3238 -0.0303 -2.0305 -0.2944 -0.5292 -0.7362 -1.1183 -1.0884 -1.3534 -0.9713 -1.0003 -0.9711 -1.0889c-0.2945,-0.3531 -0.4706,-0.5591 -0.7058,-0.971 -0.4118,-0.735 -0.6173,-1.236 -0.677,-2.0597 -0.0304,-0.4417 0,-0.6471 0.0602,-1.0595 0.1473,-1.0883 0.3537,-1.7653 1.1476,-2.5597 0.3237,-0.2945 0.559,-0.4124 0.9415,-0.559l0.0602 0.3531c0.1765,0.9417 0.1179,1.5007 0.2949,2.413 0.088,0.3824 0.1467,0.5883 0.2651,0.9415 0.2945,0.8238 0.6173,1.2362 1.1768,1.9127l0.5885 0.6471 0.4706 0.4118 0.4413 0.3243c0.0605,-0.4417 0.0605,-0.6765 0,-1.1475l-0.1762 -0.6179c-0.1175,-0.5884 -0.176,-0.9122 -0.2348,-1.5006 -0.0885,-0.6471 -0.0885,-1.0003 -0.0606,-1.6479 0.0303,-0.6472 0.0886,-1.0003 0.2352,-1.6475 0.1174,-0.5004 0.2652,-0.7948 0.4119,-1.2948 0.1174,-0.471 0.2061,-0.7059 0.2647,-1.1769 0.1468,-0.9125 0.0297,-1.4421 -0.0303,-2.3253 -0.0602,-0.7353 -0.1174,-1.1467 -0.2349,-1.8833 -0.0606,-0.3818 -0.1177,-0.5875 -0.2064,-0.9411 -0.0881,-0.383 -0.1179,-0.5875 -0.1766,-0.9706l0.0058 0z"/>
  </g>
 </g>
</svg>
