<?xml version="1.0" encoding="UTF-8"?>
<!DOCTYPE svg PUBLIC "-//W3C//DTD SVG 1.1//EN" "http://www.w3.org/Graphics/SVG/1.1/DTD/svg11.dtd">
<!-- Creator: CorelDRAW 2019 (64-Bit) -->
<svg xmlns="http://www.w3.org/2000/svg" xml:space="preserve" width="191.862mm" height="123.313mm" version="1.1" style="shape-rendering:geometricPrecision; text-rendering:geometricPrecision; image-rendering:optimizeQuality; fill-rule:evenodd; clip-rule:evenodd"
viewBox="0 0 191.5752 123.1287"
 xmlns:xlink="http://www.w3.org/1999/xlink"
 xmlns:xodm="http://www.corel.com/coreldraw/odm/2003">
 <defs>
  <style type="text/css">
   <![CDATA[
    .fil3 {fill:#001F46}
    .fil2 {fill:#DD0740}
    .fil1 {fill:#DFDFDF}
    .fil0 {fill:white}
   ]]>
  </style>
 </defs>
 <g id="Layer_x0020_1">
  <metadata id="CorelCorpID_0Corel-Layer"/>
  <g id="_695768976">
   <path class="fil0" d="M189.1397 52.2925c-5.3297,-2.6087 -14.5984,-5.6145 -14.5984,-5.6145 -0.3977,-0.105 -1.1983,-0.3666 -1.1983,-0.3666 0,0 0.4058,-0.6005 0.5205,-1.0493 0.3211,-1.1518 0.2569,-2.4929 -0.4877,-2.9112 0,0 4.0454,0.223 4.9225,-0.118 2.4881,-0.969 3.4417,-4.3063 2.5674,-6.6684 -0.4565,-1.236 -2.4034,-2.0111 -2.8037,-3.0443 -0.3798,-0.9797 -0.6285,-1.7494 -1.6696,-2.2777 -1.679,-0.8491 -5.9349,-1.5932 -7.8081,-1.4288 -1.5794,0.1387 -1.8814,1.9625 -2.8596,2.3829 -3.906,1.6822 -5.648,0.8923 -5.6085,6.7224 0,0 0,0.2743 0.0438,0.5053 -1.4142,-0.6852 -4.9474,-2.4165 -6.584,-3.1444l0 -35.28 -115.5736 0 0 35.2772c-1.6361,0.7285 -5.1703,2.4598 -6.5835,3.1446 0.0431,-0.2312 0.0431,-0.5053 0.0431,-0.5053 0.0389,-5.8301 -1.7051,-5.0397 -5.6091,-6.7225 -0.9744,-0.4206 -1.2798,-2.2441 -2.8601,-2.3829 -1.8721,-0.1618 -6.1247,0.5795 -7.8073,1.4288 -1.0414,0.5283 -1.29,1.2979 -1.6695,2.2778 -0.3975,1.0332 -2.3472,1.8081 -2.8036,3.0441 -0.8746,2.3622 0.0796,5.6994 2.5678,6.6686 0.8769,0.3416 4.9217,0.1184 4.9217,0.1184 -0.744,0.418 -0.808,1.7617 -0.4874,2.9108 0.1153,0.446 0.5211,1.0491 0.5211,1.0491 0,0 -0.8033,0.2643 -1.1984,0.3668 0,0 -9.2692,3.0084 -14.6019,5.6145 0,0 -6.3914,3.0036 1.5341,2.4288 0.3847,0 6.3253,-0.4589 12.5219,-1.3796l-0.0383 0.3486c-0.0082,2.0035 0.4281,1.9928 2.0925,2.5651l-0.0538 0.3692c-2.0879,0.4232 -6.2377,0.8362 -7.6815,1.8033 -1.5828,1.0594 -5.9068,0.2385 -8.5027,3.7725 -0.6822,0.9287 -1.8185,3.7472 -1.1519,4.6657 1.0953,1.498 7.364,3.691 8.1822,3.7085 1.9597,0.0437 2.1598,-1.5621 3.5421,-2.5131 0.6643,-0.4595 1.459,-0.1517 2.1956,-0.3437 1.1079,-0.2952 1.7231,-1.3032 2.6983,-1.8109 0.5689,-0.2925 1.7899,-0.5747 2.5671,-0.1206 3.4423,2.1182 13.9941,-0.5694 17.6567,-2.734l0 19.1158c0,6.8046 0.8642,9.4079 2.9316,13.0061l0.1719 0.2823c11.7599,17.5874 31.6913,27.6721 54.6828,27.6748 22.9937,0 42.9052,-10.059 54.6291,-27.5952l0.1762 -0.2743c2.1039,-3.6628 2.981,-6.2917 2.981,-13.0937l0 -19.1138c3.6631,2.1653 14.2146,4.8529 17.6563,2.7347 0.7773,-0.4541 1.9988,-0.1718 2.5672,0.1201 0.9754,0.5054 1.5902,1.5161 2.7011,1.8109 0.7365,0.1952 1.5315,-0.1153 2.1956,0.3436 1.3827,0.949 1.5849,2.5548 3.5427,2.5138 0.8171,-0.0183 7.0869,-2.2112 8.1812,-3.7087 0.6695,-0.9184 -0.4674,-3.7396 -1.1518,-4.6655 -2.5933,-3.532 -6.9201,-2.7138 -8.5023,-3.7727 -1.4442,-0.9643 -5.5934,-1.38 -7.6811,-1.8033l-0.0547 -0.3692c1.6641,-0.5748 2.1014,-0.562 2.0931,-2.565l-0.0381 -0.3491c6.1973,0.9211 12.1364,1.3802 12.5216,1.3802 7.9326,0.5747 1.5385,-2.429 1.5385,-2.429z"/>
   <path class="fil1" d="M90.1515 69.0206c-6.1481,0 -11.8805,-1.7677 -16.7301,-4.8093 5.1885,6.6585 13.2755,10.944 22.3701,10.944 10.847,0 20.2677,-6.0937 25.0332,-15.0427l-0.0332 -0.0101c-0.5594,-0.1543 -1.393,-0.4825 -2.3573,-0.8618 -1.0824,-0.4261 -3.0544,-1.203 -3.727,-1.2825 -0.128,0.0741 -0.3666,0.2668 -0.5459,0.413 -0.3133,0.2541 -0.7028,0.5615 -1.1854,0.8667 -5.7473,6.0222 -13.8451,9.7826 -22.8244,9.7826z"/>
   <path class="fil2" d="M178.1932 38.8936c0.3403,-0.5053 0.3457,-1.4388 0.082,-1.9853 -0.3047,-0.6256 -1.2391,-0.8129 -1.8294,-1.0311 -0.7378,0.159 0.0834,0.8052 -0.5535,1.0849l-1.429 -0.1845c-0.8978,-0.9281 0.9796,-0.8001 1.0848,-1.298 0.1545,-0.7206 -0.5247,-1.385 -0.0792,-2.0928 -0.0767,-0.1718 -0.1817,-0.3538 -0.3717,-0.4231 -0.7363,-0.2642 -5.1343,-1.3156 -5.7423,-1.2724l-0.1859 0.213c0.1776,0.2438 0.9196,0.9184 0.9523,0.9798 0.2924,0.531 -1.6831,0.9105 -2.011,0.9798 -1.5795,0.3336 -5.8067,0.8411 -5.1864,3.334 0.2911,1.1746 4.4923,4.158 5.0018,5.4505 0.1108,0.2798 0.6586,0.862 0.2925,1.1134 -0.7719,0.5256 -4.6603,-0.1772 -4.8707,0.4253 0.2186,0.8134 2.5317,1.4288 3.2831,1.7185 0.8881,0.339 1.7105,0.5924 2.6437,0.1335 1.048,-0.5129 1.7269,-1.8979 1.5371,-3.0443 -0.0888,-0.5261 -0.6558,-1.8134 -0.9797,-2.2494 -0.3045,-0.4051 -2.8595,-2.4289 -2.145,-2.7011 0.8622,0.2749 2.0398,0.0283 2.6478,0.8464 1.6081,0.4568 3.3296,0.7365 4.9758,1.0339 1.0562,0.192 2.2599,-0.1025 2.8829,-1.0312zm-35.203 19.8497l0 0c0.1339,-0.2926 0.1871,-0.6618 0.0288,-0.9799 -0.134,-0.1307 -0.2638,-0.2898 -0.4769,-0.318 -0.7418,0.1618 -1.4838,0.5027 -2.3294,0.2925 -0.772,0 -2.0139,-0.6901 -2.3568,0.3437 -0.1339,0.6618 -0.5055,1.2184 -0.6641,1.8541 0,0.3436 0.3183,0.6617 0.6327,0.8207 0.4781,0.1052 1.0587,0.3694 1.4823,0.2899 0.7951,-0.5567 0.7419,-1.5616 1.5343,-2.1417 0.425,0.1051 0.4769,0.6902 0.9538,0.6361 0.4822,-0.056 0.9604,-0.3464 1.1954,-0.7973zm19.2985 -12.3065l0 0c0.1747,0.4157 0.638,0.3565 0.9945,0.4232 7.8001,1.3438 23.0762,5.6246 26.4645,6.8403 -9.9724,-1.918 -16.3923,-2.8568 -28.5261,-4.9575 -11.5053,-1.9933 -23.1705,-3.5449 -34.7517,-5.0302 -2.011,-0.2534 -4.0448,-0.5513 -6.0633,-0.7386 -1.2953,-0.1226 -1.5129,0.3181 -2.4059,1.1645 0.0026,0.5722 2.4007,0.418 2.9396,0.4745 0.0845,-0.0666 0.0796,-0.1792 0.0258,-0.264 -0.3821,-0.2077 -0.7771,-0.3694 -1.0595,-0.7158l0.1335 -0.2898c4.2167,0.362 8.4665,1.1417 12.6475,1.7825 6.4075,0.9825 12.8371,1.9394 19.2161,3.0859 4.2806,0.7716 8.5105,1.8593 12.7854,2.6749l0 0.1846c-7.7302,-0.8208 -15.3539,-2.6802 -23.0529,-3.7572l-0.0286 0.2103c1.8621,0.5768 3.7996,0.8747 5.6891,1.3234 8.725,2.0698 17.5305,3.8166 26.2594,5.8991 -1.5439,-0.2179 -3.089,-0.4131 -4.6329,-0.6106 -0.5875,0.3592 0.1462,0.9879 -0.1586,1.7212 -0.5232,1.2669 -1.537,0.0742 -1.6421,0.7156 -0.041,0.2488 0.2937,1.0615 0.5574,1.2158 3.5167,0.4153 6.9638,1.4159 10.4806,1.8566l0.0506 0.29 -2.1956 0.0512c0,0 -0.2132,0.2311 -0.2051,0.2311 0.0383,0.4798 0.7952,0.3127 1.1286,0.3768 1.2391,0.2311 1.5439,0.3335 2.7775,0.5647 2.7422,0.5202 1.8363,2.7083 3.756,3.1983 0.1994,0.0512 0.3141,0.2305 0.4837,0.4718 0.4727,0.785 1.3907,1.9598 0.8471,2.4058 -0.1955,0.1922 -1.6302,0.6876 -1.9635,0.7824 -1.6491,0.4638 -2.2954,-2.4855 -3.331,-3.0703 -0.8456,-0.4771 -1.8772,0.5848 -2.9648,-0.0284 -1.5957,-0.6106 -2.4906,-2.0797 -3.257,-2.2084 -0.5631,-0.0897 -1.6067,0.7926 -1.6109,0.7797 -0.1775,0.1543 -0.4385,0.2029 -0.7337,0.2257 -1.9607,0.1618 -4.0277,0.2259 -5.9815,-0.0538 -3.1928,-0.4563 -8.5828,-2.021 -10.9573,-4.2343 0.3073,-0.8978 2.9988,-0.0951 3.6533,0 -0.6108,-1.2825 0.2145,-1.8519 -0.4494,-2.1699l-2.7546 -0.2642c-0.8128,-0.0743 -1.6449,-0.31 -2.47,-0.3976 -0.8308,-0.0897 -1.716,-0.0411 -2.5317,-0.1591 -0.5055,-0.0715 -1.3295,-0.2257 -1.5876,-0.7156 0.0711,-0.3976 0.3594,-0.918 0.0792,-1.2954 -0.3511,-0.4718 -1.2924,-0.5715 -1.8267,-0.7669 -0.72,-0.2643 -1.3008,-0.7974 -2.0385,-1.0049 -0.8388,0.2561 -0.1078,1.5541 -1.0875,1.8257 -0.9058,0.2487 -3.1165,-0.9233 -3.7038,-0.1873 0.0026,0.3954 0.2719,0.9926 -0.1053,1.2953 -0.5943,0.4771 -1.3306,0.5674 -1.9332,1.1929 -0.7673,0.7925 -1.8416,2.2852 -1.5081,3.4652 0.3484,1.2286 3.2188,2.5932 4.2885,1.9078 0.7105,-0.4508 0.6462,-1.4691 1.6408,-1.164 1.1695,0.3567 2.3801,0.4382 3.5482,0.769 0.9661,0.2696 2.3227,0.4745 3.2026,0.8978 0.1338,0.0667 0.3649,0.2876 0.2103,0.4514 -0.4563,0.49 -4.8133,-0.0384 -5.663,-0.1334 -0.3977,-0.0432 -0.7488,-0.064 -1.0316,0.2641 -0.5301,0.6187 0.6735,0.7878 0.317,1.352 -0.4878,0.7695 -1.7679,1.0465 -2.5946,0.8463 -1.507,-0.3666 -3.1001,-1.0129 -4.5212,-1.6336 -0.4515,-0.2028 -0.9462,-0.5182 -1.4054,-0.6725 -1.1213,-0.3666 -2.3546,0.2385 -3.1241,-1.0306 -0.6975,-1.1442 -1.629,-2.4294 -1.6416,-3.809 -0.0103,-1.126 0.7028,-1.8338 1.1133,-2.8061 0.1462,-0.3539 0.8592,-2.1444 0.8462,-2.4086 -0.01,-0.1739 -0.7568,-1.9106 -0.9258,-1.9308l-4.8961 -0.608c-0.095,-0.0127 -0.3774,0.1948 -0.3976,0.2898 -0.2056,0.9901 1.2953,2.1519 1.8257,2.8314 0.2001,0.2567 0.6134,0.9339 0.5028,1.2696 -0.1821,0.5594 -0.9793,-0.2925 -1.0825,0.3438 -0.0742,0.4488 0.9542,1.157 0.8465,1.9853 -0.0898,0.6901 -0.1357,1.703 -0.8465,2.0392 -1.1819,0.5566 -1.2873,-0.4056 -1.8285,-0.4233 -0.2128,-0.0101 -0.5437,0.1206 -0.7898,0.1254 -0.7366,0.0129 -1.424,-0.2257 -2.1214,-0.418 -1.3902,-0.3847 -5.599,-2.3572 -6.7223,-2.1981 -1.3156,0.182 -2.0522,2.4523 -6.0863,2.5701l-0.213 -0.318c1.3695,-1.3289 2.3851,-0.4488 3.8111,-3.3372 0.38,-0.7691 1.0338,-1.6411 1.6391,-2.2468 0.0282,-0.1228 -0.023,-0.2663 -0.1565,-0.292 -2.4417,0.8614 -2.8111,4.6886 -6.4582,4.3907l-0.1847 -0.213c0.1618,-0.4051 0.8849,-0.5438 1.2441,-0.7924 1.2003,-0.8338 1.8951,-2.1291 2.852,-3.1985 0.3512,-0.3923 0.8382,-0.672 1.1691,-1.0359 0.2157,-0.2358 1.5723,-3.1445 1.8008,-3.65l0.2925 -0.159c2.4673,0.1361 4.9372,0.1666 7.4046,0.2312 1.072,0.0283 2.457,0.246 3.5009,0.1126 0.1592,-0.0182 0.1928,-0.1463 0.1592,-0.2899 -2.3339,-0.7872 -6.5991,0.4696 -8.2052,-1.6929 -0.2178,-0.2899 -0.1818,-0.7952 -0.5821,-0.8977 -0.4227,0.2077 -0.8666,0.4051 -1.3488,0.2898l-0.2128 -0.2898c0.3693,-1.5365 0.7691,-3.1547 1.7723,-4.4191 1.5873,-2.006 5.4474,-6.2277 7.6484,-7.333 0.9847,-0.4953 2.203,-2.2314 2.5925,-1.6133 -0.0148,0.2129 0.1005,0.4024 0.2388,0.5567 0.9643,0.1948 0.9337,-1.6343 2.2238,-2.4112 1.3028,-0.7846 3.0036,-1.1977 4.4986,-0.8721 1.8343,0.4002 3.7294,1.3747 5.399,2.2213 3.6713,1.8619 7.3465,3.7139 11.0285,5.5477 1.742,0.8694 3.4923,1.8263 5.2739,2.6034 0.418,0.182 1.026,0.2487 1.2186,0.744 0.2568,0.6565 -0.3073,1.6208 -0.8456,1.9827 -1.1395,0.7562 -2.8869,-0.1772 -3.9744,-0.6106l-0.1845 0.1077c0.8034,1.0104 1.7119,1.0334 2.8609,1.2719 0.91,0.1873 1.8226,0.6697 2.7284,0.9286 1.2365,0.3517 2.4525,0.7359 3.6754,1.1335 0.5109,0.1645 1.354,0.285 1.2187,1.0339zm-2.861 13.6038l0 0 0.5807 0.38 5.1603 1.3207c0.1052,0 0.2952,-0.0361 0.3743,-0.1695 -0.026,-0.2103 -0.2568,-0.5102 -0.4699,-0.5897 -1.3199,-0.372 -2.615,-0.4745 -3.913,-0.7413 -0.7952,-0.1618 -1.1244,-0.1484 -1.7324,-0.2002zm-28.4796 -2.1182l0 0c-0.3179,1.3236 0.4515,2.5132 1.2954,3.365 0.1334,-0.0256 0.2925,-0.1077 0.3209,-0.2668 -0.2927,-1.1106 -0.9032,-2.6444 -0.0541,-3.7573l1.2185 -2.6214c-0.1051,-0.3694 -0.5026,-0.4233 -0.8208,-0.5285 -0.2385,-0.0283 -0.4771,0.2103 -0.5311,0.4488l-1.4288 3.3602zm-10.875 -2.352l0 0c0.1926,-0.382 -0.1077,-0.7622 -0.2717,-1.116 -0.3819,-0.4615 -0.9542,-0.5998 -1.5262,-0.5998 -0.1357,0.1098 -0.1641,0.2486 -0.1641,0.3821 0.0567,0.546 0.1641,1.1154 0.6565,1.3876 0.4077,0.0538 0.9799,0.1895 1.3054,-0.0539zm17.3647 -13.7223l0 0 -15.1354 -2.462c-0.1591,-0.0284 -0.318,0.0257 -0.4489,0.1051 -0.1104,0.372 0.5461,0.436 0.7591,0.4617 5.0577,0.7413 15.5358,2.2239 15.5358,2.2239l-0.7105 -0.3287zm2.6984 -4.6758l0 0c-0.2801,-0.3485 -0.6599,-0.5843 -1.0342,-0.8181 -0.492,0.0512 -0.7828,0.167 -1.2719,0 -1.1026,-0.372 -5.4968,-1.5312 -6.4586,-1.3466 -0.0587,0.3 0.4077,0.3389 0.6106,0.395 2.6237,0.7284 5.3711,1.3593 8.0462,1.8775l0.1079 -0.1078zm-91.5764 20.591l0 0c-0.1591,0.3181 -0.1052,0.6902 0.0283,0.9799 0.2359,0.4488 0.713,0.7413 1.1901,0.7946 0.4772,0.0539 0.5284,-0.5304 0.9543,-0.6355 0.7924,0.5822 0.7413,1.5871 1.5338,2.1412 0.4233,0.0795 1.0054,-0.1848 1.4826,-0.2899 0.3155,-0.159 0.6335,-0.4765 0.6335,-0.8203 -0.159,-0.6336 -0.5309,-1.1901 -0.6644,-1.8545 -0.341,-1.0339 -1.5851,-0.3438 -2.3574,-0.3438 -0.8462,0.2103 -1.5851,-0.1307 -2.3285,-0.2924 -0.208,0.0283 -0.3388,0.1899 -0.4722,0.3206zm35.9956 -0.6106l0 0c-3.6472,0.2974 -4.0167,-3.5266 -6.4663,-4.3933 -0.1335,0.0257 -0.1848,0.1691 -0.1565,0.292 0.6054,0.6057 1.2595,1.4777 1.6389,2.2468 1.4288,2.8884 2.4417,2.011 3.8138,3.3372l-0.2128 0.318c-4.0343,-0.1178 -4.7707,-2.3881 -6.0863,-2.5701 -1.1235,-0.1565 -5.3322,1.8162 -6.7225,2.1981 -0.6975,0.1895 -1.3848,0.4282 -2.1214,0.418 -0.2459,-0.0048 -0.5796,-0.1355 -0.7898,-0.1254 -0.5412,0.0177 -0.6462,0.9821 -1.8285,0.4233 -0.7108,-0.3362 -0.7595,-1.3492 -0.8464,-2.0392 -0.1051,-0.8284 0.9232,-1.5339 0.8464,-1.9853 -0.1031,-0.6336 -0.9004,0.2156 -1.0822,-0.3438 -0.1105,-0.3357 0.3024,-1.0157 0.5025,-1.2696 0.5306,-0.6795 2.0313,-1.8412 1.826,-2.8314 -0.0205,-0.095 -0.3026,-0.3024 -0.3979,-0.2898l-4.8961 0.608c-0.169,0.0202 -0.9158,1.7569 -0.9258,1.9308 -0.013,0.2642 0.7001,2.0547 0.8463,2.4086 0.4104,0.9723 1.1261,1.6801 1.1133,2.8061 -0.0128,1.3796 -0.944,2.6648 -1.6417,3.809 -0.772,1.2691 -2.0056,0.664 -3.1235,1.0306 -0.4595,0.1543 -0.9544,0.4723 -1.4058,0.6725 -1.4213,0.6229 -3.0139,1.2691 -4.5221,1.6336 -0.8256,0.1975 -2.1054,-0.0795 -2.5931,-0.8463 -0.3567,-0.5642 0.8463,-0.7333 0.3159,-1.352 -0.2797,-0.3281 -0.6334,-0.3073 -1.0313,-0.2641 -0.8491,0.095 -5.2094,0.6261 -5.6635,0.1334 -0.1537,-0.1639 0.077,-0.3847 0.2102,-0.4514 0.8775,-0.4255 2.2367,-0.6282 3.2039,-0.8978 1.1673,-0.3308 2.3776,-0.4124 3.547,-0.769 0.9953,-0.3051 0.934,0.7131 1.6415,1.164 1.0695,0.6854 3.9425,-0.6793 4.289,-1.9078 0.3328,-1.1773 -0.7414,-2.6701 -1.5083,-3.4652 -0.6057,-0.6255 -1.3418,-0.7158 -1.9342,-1.1929 -0.3767,-0.3 -0.1077,-0.8999 -0.105,-1.2953 -0.5876,-0.736 -2.7983,0.436 -3.7039,0.1873 -0.9819,-0.2743 -0.2512,-1.5722 -1.0871,-1.8257 -0.7386,0.2102 -1.3188,0.7406 -2.0392,1.0049 -0.5338,0.1974 -1.4746,0.2979 -1.8263,0.7669 -0.2796,0.3747 0.0081,0.8978 0.0795,1.2954 -0.2587,0.49 -1.0823,0.6414 -1.5877,0.7156 -0.8128,0.1179 -1.7005,0.072 -2.5314,0.1591 -0.8255,0.0848 -1.657,0.3207 -2.4698,0.3976l-2.7549 0.2642c-0.6613,0.318 0.1615,0.8875 -0.4489,2.1699 0.6569,-0.0951 3.3446,-0.8978 3.6553,0 -2.3749,2.216 -7.7642,3.7779 -10.9574,4.2343 -1.9517,0.2823 -4.0215,0.2156 -5.9811,0.0538 -0.2952,-0.0228 -0.5567,-0.0714 -0.7338,-0.2257 -0.0048,0.0129 -1.0513,-0.8694 -1.6128,-0.7797 -0.767,0.1287 -1.6625,1.5978 -3.2577,2.2084 -1.0877,0.6132 -2.1186,-0.4487 -2.9647,0.0284 -1.0338,0.5848 -1.6802,3.5341 -3.3319,3.0703 -0.3335,-0.0949 -1.765,-0.5902 -1.9625,-0.7824 -0.5437,-0.446 0.3773,-1.6235 0.8465,-2.4058 0.1691,-0.2413 0.2871,-0.4206 0.4845,-0.4718 1.9187,-0.49 1.0136,-2.6781 3.7552,-3.1983 1.2366,-0.2312 1.5392,-0.3336 2.7778,-0.5647 0.3335,-0.0641 1.0899,0.1029 1.1289,-0.3768 0.0074,0 -0.2056,-0.2311 -0.2056,-0.2311l-2.1957 -0.0512 0.0513 -0.29c3.5166,-0.4434 6.9637,-1.4413 10.4801,-1.8566 0.2643,-0.1543 0.5977,-0.967 0.5568,-1.2158 -0.1051,-0.6414 -1.118,0.5513 -1.6416,-0.7156 -0.3052,-0.7333 0.4286,-1.3621 -0.1591,-1.7212 -1.5441,0.2001 -3.0881,0.3927 -4.6319,0.6106 8.7279,-2.0825 17.5335,-3.8267 26.2588,-5.8991 1.8903,-0.4487 3.8272,-0.7466 5.6892,-1.3234l-0.0282 -0.2103c-7.6998,1.0796 -15.3225,2.9364 -23.0531,3.7572l0 -0.1846c4.2754,-0.8156 8.5051,-1.9032 12.7858,-2.6749 6.3786,-1.1465 12.8065,-2.1033 19.2158,-3.0859 4.1807,-0.6408 8.4307,-1.4234 12.6473,-1.7825l0.1334 0.2898c-0.2824,0.3491 -0.6774,0.5108 -1.0592,0.7158 -0.0541,0.0848 -0.0589,0.1974 0.0255,0.264 0.5389,-0.0565 2.937,0.0978 2.9396,-0.4745 -0.8929,-0.8436 -1.108,-1.2851 -2.4059,-1.1645 -2.0185,0.1847 -4.0497,0.4825 -6.0633,0.7386 -11.5828,1.4853 -23.2456,3.0368 -34.7516,5.0302 -12.1341,2.1007 -18.5538,3.0394 -28.5259,4.9575 3.3879,-1.2158 18.6642,-5.4986 26.4637,-6.8403 0.3646,-0.064 0.8263,-0.0054 1.0028,-0.4206 -0.1382,-0.7488 0.7055,-0.8694 1.2186,-1.0338 1.2237,-0.395 2.4395,-0.7824 3.6755,-1.1336 0.9078,-0.2587 1.8184,-0.7386 2.7288,-0.9286 1.1495,-0.2385 2.0575,-0.2615 2.8601,-1.2717l-0.1848 -0.1078c-1.0876,0.4333 -2.8339,1.3667 -3.9727,0.6099 -0.539,-0.3587 -1.1031,-1.3256 -0.8464,-1.982 0.1921,-0.4953 0.8,-0.5621 1.2185,-0.7441 1.7825,-0.7769 3.5313,-1.7339 5.2728,-2.6032 3.6836,-1.8339 7.3587,-3.6858 11.0295,-5.5479 1.6667,-0.8438 3.5652,-1.821 5.3989,-2.2213 1.4954,-0.3256 3.1957,0.0871 4.4984,0.8721 1.288,0.7797 1.2596,2.606 2.224,2.4108 0.1388,-0.1537 0.2567,-0.3438 0.2385,-0.5563 0.3901,-0.6185 1.606,1.1182 2.5933,1.6129 2.1977,1.1084 6.0606,5.3274 7.6484,7.333 1.0001,1.2649 1.403,2.883 1.7723,4.4196l-0.213 0.2898c-0.4825,0.1152 -0.9261,-0.0822 -1.3492,-0.2898 -0.4003,0.0998 -0.364,0.6051 -0.5849,0.8977 -1.6053,2.162 -5.8707,0.9051 -8.2051,1.6928 -0.0357,0.1436 0,0.2718 0.1592,0.29 1.0465,0.1333 2.4315,-0.085 3.5011,-0.1132 2.4671,-0.0667 4.9398,-0.0945 7.4049,-0.2306l0.2926 0.1591c0.2304,0.5053 1.585,3.4114 1.8002,3.6499 0.3281,0.3641 0.8181,0.6436 1.1697,1.0359 0.9565,1.0695 1.6519,2.3675 2.852,3.1984 0.3618,0.2486 1.0851,0.3847 1.244,0.7925l-0.1845 0.2129zm-52.4056 2.8879l0 0c-0.608,0.0518 -0.9362,0.0384 -1.7313,0.2029 -1.2955,0.2641 -2.5928,0.3693 -3.9136,0.7412 -0.2129,0.0795 -0.4442,0.3768 -0.4696,0.5898 0.0794,0.1307 0.2694,0.169 0.3745,0.169l5.1603 -1.3208 0.5797 -0.3821zm28.4805 -2.1182l0 0 -1.4287 -3.3628c-0.0539,-0.2385 -0.2898,-0.4745 -0.531,-0.4488 -0.3155,0.105 -0.713,0.1591 -0.8208,0.5283l1.2183 2.6215c0.8491,1.1133 0.2385,2.6467 -0.0538,3.7572 0.0284,0.1592 0.1873,0.2413 0.3206,0.267 0.8438,-0.8491 1.6136,-2.0367 1.2954,-3.3624zm-0.4233 -22.9173l0 0c-0.9616,-0.1847 -5.3556,0.975 -6.4607,1.3444 -0.49,0.1666 -0.7797,0.0512 -1.2724,0 -0.3719,0.2357 -0.7516,0.4718 -1.0312,0.8209l0.1078 0.1072c2.6749,-0.5177 5.4223,-1.1491 8.0458,-1.8775 0.2029,-0.0535 0.6695,-0.0947 0.6106,-0.395zm8.759 4.9479l0 0c0.2131,-0.0257 0.8695,-0.0924 0.759,-0.4617 -0.1306,-0.0795 -0.2898,-0.1335 -0.4487,-0.1051l-15.135 2.462 -0.7105 0.3287c0,0 10.4777,-1.4826 15.5353,-2.2239zm4.5013 14.2838l0 0c0,-0.1361 -0.0282,-0.2743 -0.1644,-0.3821 -0.5743,0 -1.1463,0.1383 -1.5257,0.5998 -0.1646,0.3539 -0.4645,0.7366 -0.2719,1.116 0.3257,0.2434 0.8979,0.1077 1.3055,0.0539 0.4921,-0.2696 0.6,-0.8416 0.6564,-1.3876zm-44.8106 -17.0362l0 0c0.6182,-2.4955 -3.6062,-3.003 -5.1865,-3.3339 -0.3281,-0.0694 -2.3027,-0.4488 -2.0104,-0.9799 0.0333,-0.0618 0.7771,-0.7338 0.9517,-0.9798l-0.1846 -0.2129c-0.6081,-0.0459 -5.0072,1.0081 -5.7432,1.2723 -0.1893,0.0688 -0.2924,0.2514 -0.3719,0.4233 0.4466,0.7075 -0.2333,1.3721 -0.0795,2.0926 0.1049,0.498 1.9827,0.3692 1.0849,1.298l-1.4287 0.1847c-0.6383,-0.2797 0.1846,-0.9233 -0.5562,-1.0851 -0.5901,0.2183 -1.5236,0.4029 -1.8289,1.0311 -0.2642,0.5465 -0.2588,1.4774 0.0823,1.9853 0.6233,0.9286 1.8256,1.2234 2.8851,1.0339 1.6469,-0.2979 3.3656,-0.5775 4.9761,-1.0339 0.6079,-0.8181 1.7825,-0.572 2.6465,-0.8464 0.7185,0.2717 -1.8385,2.2955 -2.1437,2.7012 -0.3236,0.4334 -0.8903,1.7205 -0.9799,2.2489 -0.1901,1.1491 0.4926,2.5319 1.5365,3.0447 0.9334,0.459 1.7591,0.205 2.6439,-0.1335 0.7513,-0.287 3.065,-0.9056 3.2833,-1.7184 -0.2103,-0.6025 -4.0988,0.0999 -4.8706,-0.4259 -0.3671,-0.2487 0.1821,-0.8338 0.2898,-1.1133 0.513,-1.2947 4.7141,-4.2808 5.004,-5.4528zm-19.4697 23.9202l0 0c-0.1333,-0.4184 -2.7449,0.0459 -2.8883,0.5515 -0.2104,0.7411 1.9597,1.7156 2.8883,-0.5515zm-5.8428 4.5422l0 0c0.0538,0.0823 0.3593,0.2306 0.4947,0.3154 0.5539,0.2974 1.0803,0.8257 1.4496,0.3491 0.192,-0.2438 1.2158,-2.0062 1.405,-2.6728 0.0796,-0.2695 -0.1023,-0.6516 -0.7412,-0.6773l-0.128 0c-1.6619,0.1666 -2.1902,1.6006 -2.4801,2.6856zm181.9361 -3.9907l0 0c-0.1462,-0.5055 -2.7572,-0.9698 -2.8883,-0.5515 0.9291,2.2671 3.0988,1.2926 2.8883,0.5515zm-0.3949 1.9851l0 0c0.1927,0.6639 1.2161,2.4289 1.4046,2.6722 0.3702,0.4772 0.8964,-0.0512 1.4496,-0.3485 0.1366,-0.085 0.4413,-0.2337 0.4947,-0.3154 -0.2898,-1.0849 -0.8171,-2.5189 -2.4799,-2.6855l-0.1283 0c-0.6381,0.0229 -0.8185,0.4077 -0.7407,0.6772z"/>
   <path class="fil3" d="M150.5305 82.1681l0 -16.9923 -3.1696 0 0 16.9923c0,6.0351 -0.7009,7.4557 -2.1027,9.9081 -10.7367,16.0556 -28.8885,24.8329 -49.4691,24.8329 -20.5804,0 -38.7292,-8.7772 -49.4635,-24.8329 -1.4053,-2.4524 -2.1053,-3.8731 -2.1053,-9.9081l0 -17.0259 -3.1727 0 0 17.0259c0,6.4145 0.7694,8.4282 2.5291,11.4905l0.1153 0.1846c11.7289,17.5437 31.2067,26.2434 52.0996,26.2434 20.8964,0 40.3708,-8.6997 52.1023,-26.2434l0.1133 -0.1846c1.7544,-3.0602 2.5234,-5.0733 2.5234,-11.4905zm-78.6047 -47.891l0 0c1.5258,-3.3986 3.1878,-6.3071 4.0368,-7.7257 -2.3055,2.2569 -4.2295,4.9015 -5.6602,7.8309 0.2998,0.2561 0.6024,0.5229 0.9077,0.8054 0.2359,-0.3026 0.4717,-0.6079 0.7156,-0.9105zm49.045 66.7989l0 0 -1.1363 -1.821 -4.727 -14.8608 -3.2983 2.0698 -1.1873 -1.8954 5.2681 -3.3034 1.1361 1.8183 4.727 14.8633 3.2982 -2.0696 1.1882 1.8952 -5.2687 3.3036zm-2.5954 -63.9981l0 0c-2.7703,-1.9239 -6.8843,-3.9654 -6.8843,-3.9654 -2.9266,4.1217 -5.3604,9.2154 -5.3604,9.2154 1.4416,3.0111 3.5982,6.4097 4.7836,8.5103 1.5952,-2.3392 2.2489,-4.5451 3.2415,-7.7076 0.7232,-2.2982 1.6956,-3.5396 4.2195,-6.0527zm-24.369 5.3653l0 0c0,0 -3.5367,-5.6321 -7.238,-9.8333 0,0 -7.7973,3.4775 -10.6698,4.9728l-0.128 2.1289c0.0433,0.1437 1.0743,1.6262 1.5076,3.2369l0.8748 2.788c0.1024,0.3153 0.1976,0.6003 0.1976,0.6003 0.1946,0.5717 0.4643,1.2826 0.7898,2.0158 0.2952,0.6672 0.636,1.3568 1.0134,1.9855 0.3001,0.5026 0.6721,0.9617 1.1128,1.3464 0.0134,0.0102 0.0235,0.0203 0.0362,0.0311 0.3923,0.341 0.8567,0.5843 1.3594,0.723 1.3491,0.3742 2.8648,0.7718 4.5139,1.1693 0,0 4.9196,-7.8458 6.6302,-11.1649zm1.7825 -23.9863l0 0c11.1984,0 20.8781,6.4967 25.4845,15.9254 -0.4848,0.4104 -0.9773,0.8566 -1.4645,1.3256 -2.5752,-6.4506 -7.5177,-11.7007 -13.7658,-14.6579 -0.2151,0.7388 -0.651,1.9161 -1.4953,3.3137 -5.9144,-0.7594 -12.4986,-0.1361 -12.4986,-0.1361l-5.3936 -4.2577c2.8677,-0.9772 5.9375,-1.513 9.1332,-1.513zm36.5907 74.7119l0 0 -0.085 -0.0849 -13.6376 -13.7474 1.5851 -1.575 0.0849 0.0871 13.6377 13.7479 -1.5851 1.5723zm1.1131 -15.03l0 0 -0.4541 0.7258 -1.8929 -1.1928 1.6517 -2.6188 6.6896 4.2194c1.451,0.9152 1.8896,2.8419 0.9769,4.2909 -0.5724,0.9051 -1.5575,1.4463 -2.6395,1.4463 -0.5848,0 -1.156,-0.1639 -1.6513,-0.4766l-11.4911 -7.2433c-1.449,-0.9185 -1.885,-2.8419 -0.9718,-4.2909 0.5694,-0.9057 1.5542,-1.4469 2.6364,-1.4469 0.585,-0.0005 1.1575,0.165 1.6519,0.4772l1.1057 0.6976 -1.1928 1.8904 -1.7105 -1.0798 -0.9341 1.48 12.6969 8.0076 0.9304 -1.4799 -5.4014 -3.4061zm-22.8532 27.1128l0 0 -2.1418 0.6489 -0.0357 -0.1151 -5.6556 -18.5161 3.927 -1.2002c0.2028,-0.0614 0.4105,-0.0924 0.6207,-0.0924 0.9335,0 1.7442,0.6031 2.0185,1.5009l1.9368 6.3402c0.1671,0.5364 0.1124,1.1171 -0.1516,1.6133 -0.2627,0.4953 -0.7119,0.8657 -1.2488,1.0286l-1.788 0.546 2.5186 8.246zm-3.1749 -10.3872l0 0 -1.8647 -6.1071 1.672 -0.5108 1.8648 6.1072 -1.6721 0.5107zm-5.8636 12.1879l0 0 -2.2262 0.1949 -1.6877 -19.4132 2.2262 -0.1954 1.6877 19.4137zm-8.4201 -1.9005l0 0 -0.2643 2.2213 -4.0759 -0.4852c-1.1565,-0.1383 -1.9874,-1.1923 -1.8491,-2.3493l1.798 -15.148c0.1361,-1.1463 1.1698,-1.9927 2.3473,-1.8518l4.0752 0.4846 -0.2641 2.2212 -3.9553 -0.469 -0.7514 6.343 2.9678 0.3537 -0.2641 2.2213 -2.968 -0.3539 -0.7514 6.3425 3.9553 0.4697zm2.6081 -29.9964l0 0c-10.8468,0 -20.267,-6.0937 -25.0358,-15.0427l0.0337 -0.0101c0.5593,-0.1543 1.3925,-0.4825 2.3568,-0.8618 0.0156,-0.0054 0.0363,-0.0129 0.0518,-0.0204 2.034,3.652 5.3605,8.4407 5.3605,8.4407 -0.1153,0.1282 -0.2594,0.2589 -0.4051,0.3843 4.4601,3.2577 9.931,5.212 15.8663,5.2735 -3.6063,-1.2746 -5.6172,-2.7853 -5.6172,-2.7853l4.8063 -6.7428 12.2756 -0.3335 2.2596 6.3557c4.4291,-2.4907 8.0791,-6.1865 10.5516,-10.6263 0.0438,0.0182 0.0952,0.0358 0.1388,0.054 0.9645,0.3793 1.7975,0.7075 2.3568,0.8618l0.0337 0.0101c-4.7661,8.949 -14.1868,15.0427 -25.0335,15.0427zm-13.1678 28.3164l0 0 -0.7286 2.1134 -5.8786 -2.0264 6.3557 -18.4179 2.1108 0.7279 -5.6247 16.305 3.7654 1.298zm-13.2859 -14.517l0 0c0.2,0.5641 0.0074,1.1464 -0.595,1.8492l-3.8192 4.4319c-0.4029,0.467 -0.9873,0.7364 -1.6032,0.7364 -0.5054,0 -0.9948,-0.1825 -1.3796,-0.5128l-3.1088 -2.6808 12.7216 -14.763 3.1089 2.6802c0.4258,0.3646 0.6885,0.8848 0.7284,1.4441 0.0422,0.5599 -0.1414,1.1133 -0.5107,1.5359l-3.9754 4.6145c-0.4003,0.4669 -0.8157,0.6826 -1.3028,0.6826 -0.0848,0 -0.1691,-0.0053 -0.2641,-0.0182zm-1.7441 -0.1179l0 0 -0.054 0.0613 -4.2242 4.9016 -1.4468 -1.2489 4.2754 -4.9634 1.4496 1.2494zm1.3438 -1.6854l0 0 -1.3236 -1.1412 4.1709 -4.8373 1.3229 1.1411 -4.1702 4.8374zm-9.6257 -7.3304l0 0 -7.0688 4.9453 -1.2799 -1.8291 15.9606 -11.1749 2.3549 3.3628c0.3261,0.4644 0.4487,1.0258 0.3516,1.5797 -0.0961,0.5535 -0.4103,1.0449 -0.8721,1.3647l-4.9888 3.4932c-0.372,0.262 -0.7206,0.3873 -1.0616,0.3873 -0.231,0 -0.4359,-0.0566 -0.6185,-0.1281 0.0538,0.5951 -0.2717,1.1107 -1.0333,1.6438l-5.2558 3.6782c-0.4281,0.3 -0.6336,0.7232 -0.8512,1.1694l-0.0924 0.1845 -1.3337 -1.903 0.0332 -0.0663c0.1952,-0.3847 0.5207,-0.9056 0.9622,-1.2157l5.7966 -4.0576 -1.0029 -1.4342zm1.7157 -1.3001l0 0 0.0669 -0.0464 5.299 -3.7087 1.0952 1.567 -0.0668 0.0465 -5.299 3.7086 -1.0953 -1.567zm86.3358 -46.1112l0 0 0 -26.1873 -103.1407 0 0 26.1462 -3.1727 1.4875 0 -30.8113 109.486 0 0 30.8397 -3.1725 -1.4747z"/>
  </g>
 </g>
</svg>
