<?xml version="1.0" encoding="UTF-8" standalone="no"?>
<svg
   clip-rule="evenodd"
   fill-rule="evenodd"
   stroke-linejoin="round"
   stroke-miterlimit="2"
   viewBox="0 0 300 300.004"
   version="1.1"
   id="svg120"
   sodipodi:docname="Reading.svg"
   width="300"
   height="300.004"
   xmlns:inkscape="http://www.inkscape.org/namespaces/inkscape"
   xmlns:sodipodi="http://sodipodi.sourceforge.net/DTD/sodipodi-0.dtd"
   xmlns="http://www.w3.org/2000/svg"
   xmlns:svg="http://www.w3.org/2000/svg">
  <defs
     id="defs120" />
  <sodipodi:namedview
     id="namedview120"
     pagecolor="#ffffff"
     bordercolor="#000000"
     borderopacity="0.25"
     inkscape:showpageshadow="2"
     inkscape:pageopacity="0.0"
     inkscape:pagecheckerboard="0"
     inkscape:deskcolor="#d1d1d1" />
  <g
     fill-rule="nonzero"
     id="g120"
     transform="translate(-130,-49.998)">
    <path
       d="M 280.005,350.002 C 362.847,350.002 430,282.856 430,200 430,117.145 362.847,49.998 280.005,49.998 197.162,49.998 130,117.145 130,200 c 0,82.856 67.163,150.002 150.005,150.002"
       fill="#db2f36"
       id="path1" />
    <path
       d="m 280.005,345.694 c 80.482,0 145.745,-65.216 145.745,-145.694 0,-80.479 -65.263,-145.73 -145.745,-145.73 -80.5,0 -145.734,65.251 -145.734,145.73 0,80.478 65.234,145.694 145.734,145.694"
       id="path2" />
    <path
       d="m 280.005,341.455 c 78.135,0 141.46,-63.354 141.46,-141.455 0,-78.134 -63.324,-141.459 -141.46,-141.459 -78.126,0 -141.474,63.325 -141.474,141.459 0,78.101 63.348,141.455 141.474,141.455"
       fill="#ffffff"
       id="path3" />
    <path
       d="m 280.005,300.597 c 55.563,0 100.612,-45.028 100.612,-100.597 0,-55.568 -45.049,-100.632 -100.612,-100.632 -55.579,0 -100.603,45.063 -100.603,100.632 0,55.569 45.024,100.597 100.603,100.597"
       id="path4" />
    <path
       d="m 280.005,296.946 c 53.547,0 96.955,-43.41 96.955,-96.946 0,-53.54 -43.408,-96.946 -96.955,-96.946 -53.552,0 -96.952,43.406 -96.952,96.946 0,53.536 43.4,96.946 96.952,96.946"
       fill="#dd9300"
       id="path5" />
    <g
       fill="#dd1740"
       id="g13">
      <path
         d="m 256.76,200 v 89.159 c 7.432,1.895 15.21,2.93 22.807,2.93 V 200 Z"
         id="path6" />
      <path
         d="m 256.76,200 h -23.241 v 79.652 c 7.188,4.168 14.99,7.372 23.241,9.508 z"
         id="path7" />
      <path
         d="m 210.282,200 -0.001,60.601 c 6.644,7.542 14.498,13.986 23.238,19.051 V 200 h -23.238 z"
         id="path8" />
      <path
         d="m 210.282,200 h -23.236 c 0.104,22.978 8.852,44.304 23.235,60.601 V 200 Z"
         id="path9" />
      <path
         d="m 302.655,200 0.167,-90.023 c -7.438,-1.928 -15.215,-2.929 -23.255,-2.929 v 92.951 z"
         id="path10" />
      <path
         d="m 302.655,200 h 22.98 v -80.514 c -7.211,-4.166 -17.179,-8.441 -22.813,-9.508 z"
         id="path11" />
      <path
         d="m 348.865,200.035 v -61.531 c -6.644,-7.51 -14.487,-13.954 -23.229,-19.018 v 80.549 z"
         id="path12" />
      <path
         d="m 348.865,200 h 23.229 c -0.098,-23.841 -8.862,-45.201 -23.229,-61.497 z"
         id="path13" />
    </g>
    <path
       d="m 279.609,222.53 h 89.559 c 1.907,-7.405 2.926,-15.194 2.926,-22.531 h -92.486 v 22.531 z"
       fill="#004494"
       id="path14" />
    <path
       d="m 279.609,222.53 -0.016,23.325 h 80.066 c 4.166,-7.236 7.396,-15.059 9.509,-23.325 h -89.56 z"
       fill="#ffffff"
       id="path15" />
    <path
       d="m 279.609,269.04 v 23.116 c 23.357,-0.103 44.72,-8.749 61.008,-23.116 z"
       fill="#ffffff"
       id="path16" />
    <path
       d="m 279.567,176.745 h -89.608 c -1.913,7.442 -2.918,15.227 -2.918,23.255 h 92.526 z"
       fill="#004494"
       id="path17" />
    <path
       d="m 279.567,176.745 v -23.219 h -80.089 c -4.153,7.201 -7.402,14.983 -9.519,23.219 z"
       fill="#ffffff"
       id="path18" />
    <path
       d="m 279.567,130.272 h -61.048 c -7.537,6.647 -13.976,14.503 -19.041,23.254 h 80.089 z"
       fill="#004494"
       id="path19" />
    <path
       d="m 279.567,130.272 v -23.224 c -23.386,0.071 -44.761,8.856 -61.048,23.224 z"
       fill="#ffffff"
       id="path20" />
    <path
       d="m 279.609,269.04 h 61.008 c 7.526,-6.65 13.975,-14.503 19.041,-23.256 l -80.066,0.071 0.016,23.185 z"
       fill="#004494"
       id="path21" />
    <path
       d="m 279.567,236.552 c 20.206,0 36.594,-16.363 36.594,-36.552 0,-20.224 -16.388,-36.587 -36.594,-36.587 -20.208,0 -36.587,16.363 -36.587,36.587 0,20.189 16.379,36.552 36.587,36.552"
       fill="#ffffff"
       id="path22" />
    <path
       d="m 306.026,203.996 c -0.715,0.829 -7.925,3.307 -26.626,3.307"
       fill="#eab300"
       id="path23" />
    <path
       d="m 279.4,206.071 v 2.463 c 17.853,0 26.262,-2.232 27.559,-3.734 l -1.803,-1.677 c -0.755,0.588 -7.71,2.948 -25.756,2.948"
       id="path24" />
    <path
       d="m 252.774,203.996 c 0.708,0.829 7.913,3.307 26.626,3.307"
       fill="#eab300"
       id="path25" />
    <path
       d="m 251.837,204.797 c 1.287,1.502 9.69,3.737 27.563,3.737 v -2.463 c -18.054,0 -25.005,-2.361 -25.758,-2.946 z"
       id="path26" />
    <path
       d="m 306.026,195.968 c -0.715,-0.827 -7.925,-3.306 -26.626,-3.306"
       fill="#eab300"
       id="path27" />
    <path
       d="m 279.4,193.894 c 18.046,0 25.001,2.359 25.757,2.944 l 1.802,-1.674 c -1.296,-1.5 -9.705,-3.737 -27.558,-3.737 z"
       id="path28" />
    <path
       d="m 252.774,195.968 c 0.708,-0.827 7.913,-3.306 26.626,-3.306"
       fill="#eab300"
       id="path29" />
    <path
       d="m 251.837,195.167 1.805,1.671 c 0.754,-0.585 7.704,-2.944 25.758,-2.944 v -2.467 c -17.873,0 -26.276,2.24 -27.563,3.74"
       id="path30" />
    <path
       d="m 246.802,200 c 0,17.983 14.586,32.59 32.599,32.59 17.993,0 32.59,-14.607 32.59,-32.59"
       fill="#dd9300"
       id="path31" />
    <path
       d="m 310.76,200 c 0,17.289 -14.068,31.359 -31.36,31.359 -17.293,0 -31.366,-14.07 -31.366,-31.359 h -2.461 c 0,18.649 15.174,33.822 33.827,33.822 18.65,0 33.819,-15.172 33.819,-33.822 z"
       id="path32" />
    <path
       d="m 306.026,203.996 c 0.319,0.312 0.959,3.72 0.724,4.651 -0.216,0.964 -6.271,9.713 -7.097,9.887 -0.828,0.208 -8.047,-2.653 -9.873,-2.653 -1.841,0 -4.745,2.342 -5.571,2.412 -0.413,0.036 -2.804,0.175 -4.808,0.175 -2.023,0 -4.39,-0.139 -4.81,-0.175 -0.832,-0.07 -3.737,-2.412 -5.574,-2.412 -1.843,0 -9.052,2.861 -9.878,2.653 -0.835,-0.174 -6.865,-8.923 -7.091,-9.887 -0.231,-0.931 0.412,-4.339 0.727,-4.651"
       fill="#dd9300"
       id="path33" />
    <path
       d="m 304.991,204.653 c 0.23,0.488 0.581,2.54 0.581,3.416 0,0.119 -0.007,0.214 -0.021,0.283 -0.394,1.041 -5.035,7.709 -6.277,8.879 -0.48,-0.14 -3.455,-1.007 -3.455,-1.007 -2.951,-0.948 -4.961,-1.574 -6.039,-1.574 -1.47,0 -3.153,0.974 -4.505,1.757 0,0 -1.254,0.671 -1.258,0.671 -0.009,-0.01 -4.617,0.153 -4.617,0.153 0,0 -4.703,-0.166 -4.707,-0.166 h 0.004 c 0,-0.033 -1.184,-0.661 -1.184,-0.661 -1.35,-0.783 -3.031,-1.754 -4.497,-1.754 -1.091,0 -3.107,0.625 -6.06,1.577 0,0 -2.961,0.863 -3.439,1.004 -1.241,-1.164 -5.874,-7.841 -6.292,-8.934 -0.009,-0.052 -0.013,-0.125 -0.013,-0.216 0,-0.801 0.367,-2.933 0.599,-3.433 l -1.905,-1.527 c -0.776,0.77 -1.324,4.739 -1.056,5.823 0.152,0.642 6.24,10.423 8.038,10.795 0.615,0.153 1.47,-0.08 4.826,-1.164 1.798,-0.582 4.523,-1.461 5.303,-1.461 0.805,0 2.283,0.855 3.263,1.424 l 2.212,0.986 4.91,0.174 4.911,-0.174 2.198,-0.983 c 0.984,-0.567 2.465,-1.427 3.271,-1.427 0.769,0 3.481,0.879 5.28,1.456 3.369,1.09 4.225,1.328 4.89,1.162 1.703,-0.357 7.86,-10.184 8,-10.818 0.266,-1.055 -0.282,-5.039 -1.067,-5.803 l -1.893,1.542 z"
       id="path34" />
    <path
       d="m 284.208,218.293 c 0,0 1.876,9.162 2.594,13.333"
       fill="#dd9300"
       id="path35" />
    <path
       d="m 283.003,218.54 2.584,13.294 2.43,-0.417 -2.603,-13.372 z"
       id="path36" />
    <path
       d="m 299.653,218.533 c 0.315,1.139 -2.481,8.165 -2.306,8.616"
       fill="#dd9300"
       id="path37" />
    <path
       d="m 298.444,218.758 c 0.031,0.658 -0.912,3.506 -1.415,5.036 -0.916,2.752 -1.056,3.222 -0.829,3.804 l 2.368,-0.438 0.8,-2.594 c 1.321,-3.996 1.718,-5.477 1.471,-6.362 l -2.395,0.553 z"
       id="path38" />
    <path
       d="m 259.138,218.533 c -0.32,1.139 2.455,8.099 2.265,8.579"
       fill="#dd9300"
       id="path39" />
    <path
       d="m 259.365,224.425 0.815,2.678 2.368,0.465 c 0.235,-0.6 0.075,-1.135 -0.84,-3.91 -0.484,-1.488 -1.392,-4.258 -1.365,-4.896 l -2.393,-0.561 c -0.247,0.878 0.138,2.325 1.415,6.224"
       id="path40" />
    <path
       d="m 274.59,218.293 c 0,0 -1.967,9.162 -2.671,13.333"
       fill="#dd9300"
       id="path41" />
    <path
       d="m 270.704,231.42 2.426,0.41 2.666,-13.281 -2.411,-0.516 z"
       id="path42" />
    <path
       d="m 279.4,207.303 c 18.701,0 25.911,-2.478 26.626,-3.307"
       fill="#dd9300"
       id="path43" />
    <path
       d="m 279.4,206.071 v 2.463 c 17.853,0 26.262,-2.232 27.559,-3.734 l -1.803,-1.677 c -0.755,0.588 -7.71,2.948 -25.756,2.948"
       id="path44" />
    <path
       d="m 246.802,200 c 0,-17.986 14.586,-32.59 32.599,-32.59 17.993,0 32.59,14.603 32.59,32.59"
       fill="#dd9300"
       id="path45" />
    <path
       d="m 245.573,200 h 2.461 c 0,-17.292 14.072,-31.359 31.367,-31.359 17.291,0 31.359,14.067 31.359,31.359 h 2.46 c 0,-18.653 -15.169,-33.826 -33.819,-33.826 -18.653,0.001 -33.828,15.173 -33.828,33.826"
       id="path46" />
    <path
       d="m 306.026,195.968 c 0.319,-0.31 0.959,-3.72 0.724,-4.65 -0.216,-0.966 -6.271,-9.681 -7.097,-9.888 -0.828,-0.172 -8.047,2.652 -9.873,2.652 -1.841,0 -4.745,-2.343 -5.571,-2.41 -0.413,-0.035 -2.804,-0.138 -4.808,-0.138 -2.023,0 -4.39,0.102 -4.81,0.138 -0.832,0.067 -3.737,2.41 -5.574,2.41 -1.843,0 -9.052,-2.824 -9.878,-2.652 -0.835,0.207 -6.865,8.922 -7.091,9.888 -0.231,0.93 0.412,4.34 0.727,4.65"
       fill="#dd9300"
       id="path47" />
    <path
       d="m 258.887,180.224 c -1.759,0.437 -7.896,10.193 -8.039,10.812 -0.266,1.064 0.282,5.039 1.057,5.808 l 1.906,-1.527 c -0.23,-0.493 -0.589,-2.562 -0.589,-3.434 0,-0.116 0.009,-0.208 0.022,-0.273 0.368,-0.952 5.037,-7.677 6.273,-8.868 0.509,0.151 3.319,0.969 3.319,0.969 3.02,0.968 5.079,1.604 6.18,1.604 1.466,0 3.149,-0.972 4.497,-1.756 0,0 1.262,-0.672 1.266,-0.672 0.009,0.008 4.621,-0.123 4.621,-0.123 0,0 4.699,0.134 4.705,0.134 h -0.004 c 0,0.033 1.175,0.658 1.175,0.658 1.351,0.782 3.035,1.759 4.504,1.759 1.091,0 3.144,-0.636 6.152,-1.597 0,0 2.827,-0.826 3.342,-0.977 1.242,1.197 5.915,7.916 6.293,8.921 0.009,0.053 0.017,0.135 0.017,0.23 0,0.817 -0.361,2.925 -0.593,3.418 l 1.892,1.542 c 0.786,-0.762 1.334,-4.746 1.059,-5.836 -0.126,-0.584 -6.238,-10.344 -7.992,-10.782 -0.68,-0.142 -1.567,0.102 -4.773,1.136 -1.836,0.589 -4.612,1.481 -5.398,1.481 -0.804,0 -2.286,-0.859 -3.27,-1.428 l -2.199,-0.98 -4.91,-0.14 -4.91,0.14 -2.212,0.983 c -0.979,0.569 -2.457,1.425 -3.262,1.425 -0.797,0 -3.581,-0.895 -5.422,-1.484 -3.199,-1.03 -4.075,-1.274 -4.707,-1.143"
       id="path48" />
    <path
       d="m 284.208,181.672 c 0,0 1.876,-9.233 2.594,-13.403"
       fill="#dd9300"
       id="path49" />
    <path
       d="m 282.999,181.424 2.414,0.495 2.604,-13.441 -2.43,-0.418 z"
       id="path50" />
    <path
       d="m 299.653,181.43 c 0.315,-1.137 -2.463,-8.303 -2.274,-8.716"
       fill="#dd9300"
       id="path51" />
    <path
       d="m 297.04,176.089 c 0.504,1.558 1.437,4.456 1.405,5.114 l 2.394,0.559 c 0.244,-0.884 -0.148,-2.381 -1.452,-6.431 l -0.79,-2.623 -2.34,-0.505 c -0.263,0.582 -0.154,0.976 0.783,3.886"
       id="path52" />
    <path
       d="m 259.138,181.43 c -0.32,-1.137 2.455,-8.165 2.265,-8.612"
       fill="#dd9300"
       id="path53" />
    <path
       d="m 260.184,172.821 -0.802,2.638 c -1.29,3.958 -1.68,5.424 -1.432,6.306 l 2.393,-0.561 c -0.035,-0.648 0.887,-3.468 1.383,-4.977 0.918,-2.818 1.064,-3.301 0.811,-3.895 z"
       id="path54" />
    <path
       d="m 274.59,181.672 c 0,0 -1.967,-9.199 -2.671,-13.368"
       fill="#dd9300"
       id="path55" />
    <path
       d="m 270.704,168.509 2.681,13.419 2.411,-0.517 -2.666,-13.312 z"
       id="path56" />
    <path
       d="m 279.4,192.662 c 18.701,0 25.911,2.479 26.626,3.306"
       fill="#dd9300"
       id="path57" />
    <path
       d="m 279.4,193.894 c 18.046,0 25.001,2.359 25.757,2.944 l 1.802,-1.674 c -1.296,-1.5 -9.705,-3.737 -27.558,-3.737 z"
       id="path58" />
    <path
       d="m 279.4,192.662 c -18.713,0 -25.918,2.479 -26.626,3.306 0,0 0.273,1.826 0.282,4.032 0,2.171 -0.282,3.995 -0.282,3.995 0.708,0.829 7.913,3.308 26.626,3.308"
       fill="#dd9300"
       id="path59" />
    <path
       d="m 251.837,195.167 -0.328,0.384 0.315,4.452 c -0.002,0 -0.304,4.307 -0.304,4.307 l 0.317,0.487 c 1.287,1.502 9.69,3.737 27.563,3.737 v -2.463 c -16.469,0 -23.632,-1.95 -25.349,-2.739 0.074,-1.078 0.231,-3.332 0.231,-3.332 0,-0.004 -0.147,-2.146 -0.231,-3.367 1.71,-0.79 8.88,-2.739 25.349,-2.739 v -2.467 c -17.873,0 -26.276,2.24 -27.563,3.74"
       id="path60" />
    <path
       d="m 306.026,195.968 c 0,0 -0.286,1.826 -0.286,4.032 -0.016,2.171 0.286,3.995 0.286,3.995"
       fill="#dd9300"
       id="path61" />
    <path
       d="m 304.513,200 0.294,4.195 2.434,-0.398 -0.267,-3.786 c 0,-0.011 0.269,-3.853 0.269,-3.853 l -2.436,-0.379 z"
       id="path62" />
    <path
       d="m 338.529,138.78 c -0.233,-0.757 -0.618,-1.516 -0.618,-1.516 0,0 0.553,-0.207 1.056,-0.207 0.544,0 1.061,0.174 1.061,0.174 0,0 -0.227,0.618 -0.371,1.344 -0.153,0.894 -0.198,1.961 -0.198,1.961 0,0 -0.154,-0.034 -0.257,-0.034 h -0.272 c 0,0 -0.133,-0.86 -0.401,-1.722 m -0.618,1.963 c 0.506,-0.174 0.902,-0.207 0.902,-0.207 0,0 -0.016,-0.585 -0.344,-1.444 -0.292,-0.726 -0.94,-1.589 -0.94,-1.589 0,0 -0.398,0.208 -0.799,0.484 -0.445,0.345 -0.826,0.793 -0.826,0.793 0,0 0.764,0.067 1.208,0.481 0.523,0.485 0.799,1.482 0.799,1.482 m 2.09,-0.103 c 0,0 0.027,0 0.122,0.034 0.049,0.036 0.113,0.036 0.113,0.036 0,0 0.319,-0.551 0.877,-1.068 0.622,-0.621 1.293,-0.55 1.293,-0.55 0,0 -0.216,-0.346 -0.436,-0.588 -0.175,-0.172 -0.552,-0.414 -0.552,-0.414 0,0 -0.346,0.311 -0.657,0.828 -0.422,0.69 -0.76,1.722 -0.76,1.722 m -0.505,1.619 c -0.187,0 -0.29,0.104 -0.427,0.104 -0.139,0 -0.242,-0.104 -0.446,-0.068 -0.36,0.031 -0.517,0.169 -0.477,0.24 0.047,0.103 0.211,0.206 0.446,0.482 0.291,0.31 0.396,0.622 0.497,0.622 0.107,0 0.175,-0.346 0.422,-0.622 0.393,-0.446 0.387,-0.344 0.49,-0.517 0.066,-0.067 -0.169,-0.205 -0.505,-0.241 m 0.573,2.101 c -0.031,-0.067 -0.528,-0.241 -0.97,-0.205 -0.546,0 -0.855,0.138 -0.937,0.205 -0.092,0.102 0,0.587 0,0.587 0,0 -0.206,-0.209 -0.325,-0.516 -0.132,-0.312 -0.213,-0.45 -0.257,-0.484 -0.132,-0.103 -0.097,0.586 0.006,1.173 0.107,0.547 0.469,1.068 0.469,1.068 0,0 0.091,-0.382 0.086,-0.725 0,-0.173 0.078,-0.275 0.078,-0.275 0,0 0.044,0.174 0.103,0.311 0.095,0.169 0.21,0.378 0.21,0.378 0,0 0.06,-0.035 0.229,-0.071 0.258,-0.102 0.548,-0.067 0.75,0.036 0.143,0.035 0.245,-0.103 0.245,-0.103 0,0 0.076,-0.071 0.142,-0.208 0.049,-0.138 0.103,-0.307 0.103,-0.307 0,0 0.027,0.138 0.103,0.275 0.124,0.276 0.155,0.654 0.155,0.654 0,0 0.286,-0.378 0.389,-0.898 0.128,-0.548 0.158,-1.478 0.04,-1.307 -0.107,0.172 -0.062,0.31 -0.215,0.621 -0.134,0.24 -0.407,0.481 -0.407,0.481 0,0 0.044,-0.654 0.003,-0.69 m -0.523,-3.791 c 0,0 0.063,0 0.149,0.036 0.061,0 0.18,0.035 0.18,0.035 0,0 0.282,-0.965 0.655,-1.722 0.247,-0.517 0.677,-1.033 0.677,-1.033 0,0 -0.239,-0.174 -0.457,-0.312 -0.164,-0.07 -0.276,-0.101 -0.276,-0.101 0,0 -0.406,0.413 -0.611,1.17 -0.223,0.827 -0.317,1.927 -0.317,1.927 m 3.727,2.345 c 0,0 0.978,2.515 0.826,4.307 -0.246,2.995 -1.709,4.548 -1.709,4.548 0,0 0.335,-0.965 0.364,-1.415 0.074,-0.895 -0.22,-1.825 -0.22,-1.825 0,0 0.103,1.549 -0.282,2.724 -0.457,1.445 -1.61,2.135 -1.61,2.135 l -0.604,0.377 c 0,0 0.26,-0.759 0.286,-1.169 0.064,-1.001 -0.317,-1.379 -0.317,-1.379 0,0 0.164,0.69 0.062,1.481 -0.031,0.378 -0.222,0.998 -0.171,0.895 -0.289,0.726 -0.67,1.241 -0.67,1.241 0,0 -0.385,-0.586 -0.605,-1.138 -0.266,-0.757 -0.27,-1.789 -0.27,-1.789 0,0 -0.298,0.551 -0.185,1.344 0.095,0.515 0.646,1.548 0.646,1.548 0,0 -1.781,-0.378 -3.251,-2.238 -1.55,-1.93 -1.66,-4.619 -1.66,-4.619 0,0 -0.147,0.863 -0.023,1.83 0.154,1.067 0.805,2.166 0.805,2.166 0,0 -1.436,-0.547 -2.2,-2.273 -0.484,-1.031 -0.631,-2.892 -0.631,-2.892 0,0 -0.07,0.689 -0.04,1.343 0.058,0.726 0.153,1.172 0.153,1.172 0,0 -0.752,-0.033 -1.153,-0.758 -0.316,-0.552 -0.426,-1.686 -0.426,-1.686 0,0 -0.081,0.55 -0.081,0.721 0.006,0.172 0.047,0.863 0.047,0.863 0,0 -0.524,-0.106 -1.107,-0.45 -0.443,-0.274 -0.857,-0.688 -0.857,-0.688 0,0 0.655,-0.792 1.688,-1.412 0.931,-0.586 1.883,-0.654 1.883,-0.654 l -0.941,-0.174 c 0,0 0.533,-1.447 1.394,-2.55 0.595,-0.792 1.763,-1.308 1.763,-1.308 0,0 -0.297,0.036 -0.476,0.067 -0.123,0.036 -0.401,0.174 -0.401,0.174 0,0 0.665,-2.411 2.127,-2.515 1.821,-0.102 2.299,1.652 2.299,1.652 l 0.077,0.208 c -0.168,0.068 -0.334,0.138 -0.566,0.276 -0.435,0.241 -0.67,0.517 -0.793,0.792 0.204,-0.103 0.64,-0.312 1.075,-0.413 0.494,-0.103 0.949,-0.138 0.904,-0.036 -0.048,0.106 -0.262,0.174 -0.49,0.382 -0.186,0.171 -0.282,0.447 -0.377,0.481 -0.109,0 -0.34,-0.346 -0.76,-0.346 -0.148,0 -0.336,0.106 -0.449,0.138 -0.047,0.174 -0.062,0.312 -0.062,0.312 0,0 0,0.413 0.21,0.724 0.338,0.481 0.805,0.722 0.805,0.722 0,0 0,0.723 0.091,1.311 0.107,0.686 0.755,1.411 0.755,1.411 0,0 0.464,-0.379 1.035,-0.413 0.476,0 0.954,0.379 0.954,0.379 0,0 0.344,-0.276 0.595,-1.034 0.342,-1.068 0.148,-1.654 0.148,-1.654 0,0 0.529,-0.277 0.83,-0.722 0.218,-0.311 0.16,-0.724 0.16,-0.724 l -0.009,-0.205 c 0,0 0,-0.036 -0.038,-0.138 -0.101,-0.036 -0.241,-0.107 -0.364,-0.107 -0.399,0 -0.707,0.346 -0.768,0.346 -0.071,0 -0.171,-0.31 -0.35,-0.48 -0.229,-0.208 -0.435,-0.276 -0.492,-0.382 -0.055,-0.102 0.391,-0.068 0.902,0.036 0.354,0.07 0.708,0.208 0.939,0.346 -0.072,-0.138 -0.204,-0.276 -0.366,-0.414 -0.386,-0.312 -0.943,-0.588 -0.943,-0.588 0,0 1.149,-2.169 2.753,-1.169 1.908,1.135 1.237,5.993 1.237,5.993 0,0 -0.133,-1.069 -0.414,-1.757 -0.272,-0.69 -0.682,-0.931 -0.682,-0.931 m -4.137,3.892 c -1.344,0.069 -1.299,2.412 -1.299,2.412 0,0 0.118,-0.585 0.34,-1.031 0.239,-0.414 0.589,-0.689 0.589,-0.689 0,0 0.06,-0.036 0.117,0 0.049,0.031 0.047,0.067 0.047,0.067 0,0 -0.311,0.31 -0.442,0.689 -0.167,0.481 -0.167,1.103 -0.167,1.103 0,0 0.4,0.102 0.83,0.102 0.489,0 0.918,-0.137 0.918,-0.137 0,0 -0.002,-0.552 -0.165,-1.001 -0.144,-0.41 -0.42,-0.685 -0.42,-0.685 0,0 -0.025,-0.036 0,-0.107 0.012,-0.031 0.082,-0.031 0.082,-0.031 0,0 0.338,0.205 0.513,0.515 0.298,0.449 0.451,1.135 0.451,1.135 0,0 0.087,-2.376 -1.394,-2.342 m -26.295,9.025 c -0.996,-2.1 -0.893,-4.132 -0.893,-4.132 0,0 -1.573,1.998 -1.943,4.376 -0.322,2.274 -0.647,2.653 -0.647,2.653 0,0 0.451,-0.036 0.842,-0.106 0.398,-0.102 0.733,-0.309 0.733,-0.309 0,0 -0.207,0.207 -0.574,0.446 -0.461,0.276 -1.055,0.52 -1.104,0.553 -0.049,0.034 -0.604,1.138 -0.921,1.379 -0.502,0.413 -1.044,0.724 -1.244,0.966 -0.202,0.275 -0.202,0.342 -0.556,1.513 -0.327,1.036 -0.508,1.551 -0.508,1.551 0,0 0.304,0.138 0.364,0.415 0.078,0.276 -0.105,0.619 -0.105,0.619 0,0 1.291,0.276 2.358,0.241 0.831,-0.032 1.661,-0.206 1.661,-0.206 0,0 -0.144,-0.827 -0.791,-1.032 -0.869,-0.244 -1.783,-0.036 -1.783,-0.036 0,0 0.335,-0.621 1.148,-1.721 0.64,-0.863 1.42,-1.206 1.601,-1.276 0.239,-0.103 1.552,-0.621 2.478,-1.172 1.131,-0.654 2.114,-1.62 2.114,-1.62 0,0 -1.348,-1.272 -2.23,-3.102 m 18.128,4.446 c 0,0 -0.471,-0.724 -0.656,-1.446 -0.211,-0.895 -0.211,-1.825 -0.211,-1.825 0,0 -0.347,0.481 -0.885,0.792 -0.606,0.378 -1.44,0.552 -1.44,0.552 0,0 0.244,1.273 -0.171,2.96 -0.461,1.758 -1.476,2.928 -1.476,2.928 0,0 0.517,0.174 0.619,0.588 0.098,0.413 -0.157,1.102 -0.157,1.102 0,0 0.571,0.173 2.076,0.173 1.321,0 2.215,-0.346 2.215,-0.346 0,0 -0.063,-0.516 -0.598,-0.826 -0.501,-0.278 -1.46,-0.309 -1.46,-0.309 0,0 -0.037,-1.414 0.529,-2.757 0.477,-1.105 1.615,-1.586 1.615,-1.586 m 9.419,-4.891 c 0.194,-0.724 0.229,-1.587 0.229,-1.587 0,0 -0.237,0.382 -0.564,0.795 -0.309,0.378 -0.711,0.825 -0.711,0.825 0,0 -0.473,-0.068 -1.021,-0.24 -0.668,-0.207 -1.042,-0.483 -1.042,-0.483 0,0 0.022,0.723 0.251,1.689 0.226,0.964 0.742,2.205 0.742,2.205 0,0 0.494,-0.552 0.9,-1.205 0.311,-0.587 0.523,-1.345 0.523,-1.345 0,0 0.024,0 0.034,0.207 0.027,0.31 -0.072,0.689 -0.072,0.689 0,0 0.513,-0.757 0.731,-1.55 m -36.293,-1.174 c 0.982,-1.273 2.854,-2.274 2.854,-2.274 0,0 0.858,-0.446 2.201,-0.756 1.194,-0.275 2.88,-0.378 2.88,-0.378 l 0.645,-1.379 c 0,0 -2.49,0.034 -5.416,1.379 -2.523,1.103 -3.974,3.271 -3.974,3.271 0,0 -1.031,1.449 -0.996,3.653 0,0.931 0.821,2.963 0.977,3.514 -0.031,0.207 0.358,0.896 -0.555,1.518 -0.406,0.241 -1.076,0.241 -1.123,0.205 -0.204,-0.138 -0.461,-0.93 -1.266,-1.723 -0.733,-0.689 -1.759,-0.965 -1.759,-0.965 0,0 0.548,0.45 0.847,0.827 0.292,0.345 0.446,0.723 0.446,0.723 0,0 -1.128,-0.378 -2.227,-0.412 -1.413,0 -2.48,0.722 -2.48,0.722 0,0 0.727,-0.103 1.585,0.071 0.768,0.169 1.429,0.584 1.429,0.584 0,0 -0.302,0.173 -0.497,0.378 -0.221,0.244 -0.332,0.621 -0.332,0.621 0,0 0.58,-0.31 1.004,-0.31 0.774,-0.067 1.024,0.071 1.024,0.071 0,0 1.628,0.823 2.868,0.516 2.074,-0.516 1.921,-1.931 1.86,-2.344 -0.084,-0.415 -0.672,-1.55 -0.917,-2.996 -0.212,-1.344 -0.107,-1.584 -0.107,-1.584 0,0 0.059,-1.62 1.029,-2.932 m 39.742,10.578 c -0.76,-0.446 -2.183,-0.584 -2.183,-0.584 0,0 -2.057,-2.482 -3.391,-5.064 -1.297,-2.55 -1.363,-4.721 -1.363,-4.721 0,0 -0.498,-0.414 -0.968,-0.828 -0.416,-0.413 -0.771,-0.826 -0.771,-0.826 0,0 -1.195,-0.379 -2.004,-1.137 -1.046,-0.964 -1.116,-1.997 -1.116,-1.997 0,0 -0.387,0.032 -0.66,-0.07 -0.439,-0.241 -0.675,-0.584 -0.675,-0.584 0,0 -0.421,-0.036 -0.927,-0.244 -1.734,-0.758 -1.524,-1.206 -2.596,-1.341 -1.469,-0.209 -2.609,-0.173 -3.563,0.033 -1.369,0.24 -2.353,0.622 -4.025,0.724 -1.312,0.036 -1.528,-0.346 -2.891,-0.414 -0.748,-0.034 -3.266,-0.239 -4.065,3.24 -0.729,3.204 1.368,6.029 1.604,6.338 1.641,1.965 1.903,2.103 2.063,3.274 0.192,1.169 -0.873,1.344 -0.873,1.344 0,0 0.523,0.93 1.349,1.686 0.646,0.618 1.501,1.069 1.989,1.585 0.457,0.484 0.508,0.93 0.508,0.93 0,0 1.359,0.551 2.508,0.515 0.464,-0.031 0.912,-0.102 1.285,-0.169 0.006,-0.208 0,-0.379 -0.072,-0.587 -0.046,-0.067 -0.26,-0.551 -0.26,-0.551 0,0 0.539,0.346 0.62,1.032 0.451,-0.138 0.733,-0.273 0.733,-0.273 0,0 -0.107,-0.688 -0.927,-1.138 -0.683,-0.343 -1.845,-0.343 -1.845,-0.343 0,0 -0.93,-0.588 -1.56,-1.588 -0.639,-1.032 -1.128,-2.135 -0.984,-2.513 0.28,-0.655 1.41,-1.652 1.608,-4.202 0.144,-2.136 -0.84,-4.756 -0.84,-4.756 0,0 0.673,1 1.021,2.55 0.335,1.445 0.144,2.651 0.276,2.651 0.15,0 1.109,0.07 1.795,0.485 0.688,0.446 1.928,0.69 1.928,0.69 0,0 0.675,0.102 1.595,0.031 1.003,-0.031 1.851,0.071 3.04,-0.652 1.373,-0.861 0.38,-2.619 0.38,-2.619 0,0 0.87,0.69 0.835,1.484 -0.048,0.72 0.009,1.41 0.144,1.996 0.323,1.377 0.988,2.239 0.988,2.239 0,0 -0.295,-0.964 -0.313,-1.756 -0.041,-0.691 0.269,-1.482 0.269,-1.482 0,0 -0.178,0.79 0.132,1.757 0.342,1.068 1.246,1.793 1.246,1.793 0,0 -0.364,-0.691 -0.426,-1.585 -0.076,-0.966 0,-1.035 0,-1.035 0,0 0.32,0.998 0.762,1.689 0.453,0.793 1.136,1.482 1.136,1.482 0,0 -0.216,-0.551 -0.341,-1.037 -0.097,-0.377 -0.097,-0.619 -0.097,-0.619 0,0 1.929,1.38 3.153,3.102 1.093,1.584 0.43,2.376 0.43,2.376 0,0 0.879,-0.517 1.697,-0.205 0.702,0.273 0.559,1.172 0.559,1.172 0,0 1.212,0.48 2.421,0.444 0.369,0 0.757,-0.031 1.106,-0.101 v -0.036 c 0.035,-0.273 0.091,-0.619 -0.041,-0.894 -0.024,-0.068 -0.246,-0.585 -0.246,-0.585 0,0 0.686,0.447 0.63,1.341 0,0.036 -0.01,0.07 -0.01,0.07 0.541,-0.101 0.944,-0.239 0.944,-0.239 0,0 0.043,-0.83 -0.721,-1.278"
       id="path63" />
    <path
       d="m 218.31,253.365 c 0.877,0 1.569,-0.724 1.569,-1.587 0,-0.858 -0.692,-1.584 -1.569,-1.584 -0.868,0 -1.581,0.726 -1.581,1.584 0,0.863 0.713,1.587 1.581,1.587"
       id="path64" />
    <path
       d="m 225.579,250.849 c 0.865,0 1.569,-0.691 1.569,-1.586 0,-0.859 -0.704,-1.548 -1.57,-1.548 -0.867,0 -1.574,0.689 -1.574,1.548 0,0.895 0.708,1.586 1.575,1.586"
       id="path65" />
    <path
       d="m 227.718,235.105 c 0.756,0 1.358,-0.619 1.358,-1.379 0,-0.758 -0.602,-1.376 -1.359,-1.376 -0.757,0 -1.376,0.618 -1.376,1.376 0,0.76 0.618,1.379 1.376,1.379"
       id="path66" />
    <path
       d="m 221.636,232.763 c 0.758,0 1.379,-0.587 1.379,-1.344 0,-0.761 -0.621,-1.379 -1.379,-1.379 -0.752,0 -1.353,0.618 -1.353,1.379 0,0.757 0.601,1.344 1.353,1.344"
       id="path67" />
    <path
       d="m 218.319,232.351 c 0.768,0 1.381,-0.624 1.381,-1.381 0,-0.756 -0.613,-1.343 -1.381,-1.343 -0.754,0 -1.359,0.587 -1.359,1.343 0,0.757 0.605,1.381 1.359,1.381"
       id="path68" />
    <path
       d="m 215.16,233.347 c 0.74,0 1.361,-0.619 1.361,-1.376 0,-0.759 -0.62,-1.379 -1.361,-1.379 -0.768,0 -1.388,0.62 -1.388,1.379 0,0.757 0.62,1.376 1.388,1.376"
       id="path69" />
    <path
       d="m 212.454,235.518 c 0.759,0 1.37,-0.618 1.37,-1.379 0,-0.757 -0.611,-1.376 -1.37,-1.376 -0.749,0 -1.369,0.619 -1.369,1.376 0,0.761 0.62,1.379 1.369,1.379"
       id="path70" />
    <path
       d="m 211.808,238.928 c 0.745,0 1.369,-0.619 1.369,-1.377 0,-0.758 -0.624,-1.344 -1.369,-1.344 -0.764,0 -1.359,0.585 -1.359,1.344 0,0.758 0.595,1.377 1.359,1.377"
       id="path71" />
    <path
       d="m 224.529,234.139 c 0.766,0 1.388,-0.583 1.388,-1.376 0,-0.725 -0.622,-1.344 -1.388,-1.344 -0.739,0 -1.351,0.619 -1.351,1.344 0,0.794 0.612,1.376 1.351,1.376"
       id="path72" />
    <path
       d="m 212.592,242.375 c 0.766,0 1.38,-0.623 1.38,-1.379 0,-0.756 -0.614,-1.344 -1.38,-1.344 -0.739,0 -1.352,0.587 -1.352,1.344 0,0.756 0.613,1.379 1.352,1.379"
       id="path73" />
    <path
       d="m 213.947,245.579 c 0.748,0 1.368,-0.623 1.368,-1.379 0,-0.757 -0.62,-1.379 -1.368,-1.379 -0.751,0 -1.369,0.623 -1.369,1.379 0,0.756 0.618,1.379 1.369,1.379"
       id="path74" />
    <path
       d="m 232.522,246.577 c 6.528,0 12.483,1.827 17.095,4.511 l 2.198,-4.511 c 0,0 -3.824,1.551 -6.468,0.515 -2.627,-1.067 -3.671,-4.477 -3.671,-4.477 0,0 -2.056,2.688 -5.208,2.24 -3.169,-0.446 -3.947,-4.927 -3.947,-4.927 0,0 -0.791,4.48 -3.961,4.927 -3.161,0.448 -5.218,-2.24 -5.218,-2.24 0,0 -1.034,3.41 -3.67,4.477 -2.635,1.036 -6.459,-0.515 -6.459,-0.515 l 2.203,4.511 c 4.62,-2.684 10.557,-4.511 17.106,-4.511"
       id="path75" />
    <path
       d="m 232.522,252.711 c 5.889,0 10.52,1.446 14.229,4.1 l 1.077,-1.964 c -3.815,-2.62 -9.561,-4.376 -15.306,-4.376 -5.763,-0.036 -11.51,1.756 -15.296,4.376 l 1.052,1.964 c 3.712,-2.654 8.363,-4.1 14.244,-4.1"
       id="path76" />
    <path
       d="m 246.726,253.365 c -0.862,0 -1.574,-0.724 -1.574,-1.587 0,-0.858 0.713,-1.584 1.574,-1.584 0.877,0 1.566,0.726 1.566,1.584 -0.001,0.863 -0.689,1.587 -1.566,1.587"
       id="path77" />
    <path
       d="m 239.453,250.849 c -0.868,0 -1.575,-0.691 -1.575,-1.586 0,-0.859 0.708,-1.548 1.575,-1.548 0.881,0 1.588,0.689 1.588,1.548 0,0.895 -0.708,1.586 -1.588,1.586"
       id="path78" />
    <path
       d="m 232.522,250.158 c 0.87,0 1.57,-0.722 1.57,-1.616 0,-0.827 -0.7,-1.552 -1.57,-1.552 -0.869,0 -1.585,0.725 -1.585,1.552 0,0.894 0.716,1.616 1.585,1.616"
       id="path79" />
    <path
       d="m 232.522,237.828 c 0,0 0.63,6.096 4.049,6.58 3.179,0.41 5.321,-2.794 5.321,-2.794 0,0 1.424,4.998 4.787,5.309 0,0 5.283,-7.511 0.539,-10.679 -3.981,-2.656 -10.596,0.413 -14.696,0.413 -4.114,0 -10.73,-3.069 -14.719,-0.413 -4.744,3.167 0.563,10.679 0.563,10.679 3.358,-0.311 4.772,-5.309 4.772,-5.309 0,0 2.158,3.204 5.319,2.794 3.438,-0.484 4.065,-6.58 4.065,-6.58"
       id="path80" />
    <path
       d="m 237.312,235.105 c -0.748,0 -1.361,-0.619 -1.361,-1.379 0,-0.758 0.613,-1.376 1.361,-1.376 0.757,0 1.367,0.618 1.367,1.376 0,0.76 -0.611,1.379 -1.367,1.379"
       id="path81" />
    <path
       d="m 243.394,232.763 c -0.749,0 -1.364,-0.587 -1.364,-1.344 0,-0.761 0.615,-1.379 1.364,-1.379 0.754,0 1.368,0.618 1.368,1.379 0,0.757 -0.614,1.344 -1.368,1.344"
       id="path82" />
    <path
       d="m 246.711,232.351 c -0.753,0 -1.375,-0.624 -1.375,-1.381 0,-0.756 0.622,-1.343 1.374,-1.343 0.755,0 1.369,0.587 1.369,1.343 0,0.757 -0.614,1.381 -1.369,1.381"
       id="path83" />
    <path
       d="m 249.885,233.347 c -0.766,0 -1.376,-0.619 -1.376,-1.376 0,-0.759 0.61,-1.379 1.376,-1.379 0.742,0 1.363,0.62 1.363,1.379 0,0.757 -0.62,1.376 -1.363,1.376"
       id="path84" />
    <path
       d="m 252.582,235.518 c -0.766,0 -1.387,-0.618 -1.387,-1.379 0,-0.757 0.621,-1.376 1.387,-1.376 0.758,0 1.363,0.619 1.363,1.376 0,0.761 -0.605,1.379 -1.363,1.379"
       id="path85" />
    <path
       d="m 253.237,238.928 c -0.758,0 -1.379,-0.619 -1.379,-1.377 0,-0.758 0.62,-1.344 1.379,-1.344 0.739,0 1.359,0.585 1.359,1.344 0,0.758 -0.62,1.377 -1.359,1.377"
       id="path86" />
    <path
       d="m 240.491,234.139 c -0.772,0 -1.373,-0.583 -1.373,-1.376 0,-0.725 0.601,-1.344 1.373,-1.344 0.764,0 1.376,0.619 1.376,1.344 0,0.794 -0.612,1.376 -1.376,1.376"
       id="path87" />
    <path
       d="m 252.422,242.375 c -0.76,0 -1.355,-0.623 -1.355,-1.379 0,-0.756 0.595,-1.344 1.355,-1.344 0.77,0 1.384,0.587 1.384,1.344 10e-4,0.756 -0.614,1.379 -1.384,1.379"
       id="path88" />
    <path
       d="m 251.079,245.579 c -0.753,0 -1.355,-0.623 -1.355,-1.379 0,-0.757 0.602,-1.379 1.355,-1.379 0.768,0 1.38,0.623 1.38,1.379 0,0.756 -0.612,1.379 -1.38,1.379"
       id="path89" />
    <path
       d="m 229.695,233.177 c 0,-1.588 1.267,-2.825 2.827,-2.825 1.547,0 2.809,1.237 2.809,2.825 0,1.549 -1.262,2.79 -2.809,2.79 -1.56,0 -2.827,-1.24 -2.827,-2.79 m 2.827,2.029 c 0.433,0 0.781,-0.342 0.781,-0.79 0,-0.446 -0.348,-0.792 -0.781,-0.792 -0.447,0 -0.792,0.346 -0.792,0.792 0,0.448 0.345,0.79 0.792,0.79"
       id="path90" />
    <path
       d="m 235.992,225.527 -2.52,1.622 1.923,-2.896 h -5.756 l 1.916,2.896 -2.522,-1.622 v 5.377 l 2.522,-1.656 v 2.203 h 1.917 v -2.203 l 2.52,1.656 z"
       id="path91" />
    <g
       fill="#004494"
       id="g119">
      <path
         d="m 361.63,125.033 -11.333,-10.402 0.418,-0.483 c 1.248,1.172 2.411,0.964 4.179,-0.999 l 9.034,-9.82 c 1.655,-1.789 1.563,-2.756 0.294,-3.894 l 0.439,-0.481 5.6,5.167 -0.422,0.448 c -1.316,-1.205 -2.486,-0.826 -4.003,0.864 l -9.602,10.435 c -1.138,1.242 -0.928,1.967 0.385,3.136 l 3.121,2.862 c 1.881,1.754 2.769,1.789 5.507,0.205 l 0.466,0.413 z"
         id="path92" />
      <path
         d="m 407.218,213.574 c 2.677,0.413 3.451,-0.068 3.743,-1.827 l 0.61,0.104 -1.291,7.888 c -0.851,5.029 -3.657,6.856 -6.332,6.409 -2.312,-0.342 -3.584,-1.928 -4.068,-4.961 l -0.064,-0.033 c -1.196,3.133 -3.977,4.926 -6.789,4.442 -3.138,-0.516 -4.659,-3.619 -4.009,-7.579 l 1.601,-9.646 0.619,0.101 c -0.306,1.759 0.368,2.518 2.942,2.929 l 13.038,2.172 z m -6.55,3.963 c -0.494,3.098 0.937,5.234 3.586,5.683 2.631,0.413 4.762,-0.86 5.322,-4.272 l 0.357,-2.1 -8.902,-1.447 z m -6.589,-3.311 c -2.821,-0.445 -3.605,-0.031 -3.883,1.586 l -0.264,1.726 c -0.354,2.135 0.738,4.373 3.812,4.891 3.076,0.48 5.543,-1.482 6.151,-5.203 l 0.335,-1.961 z"
         id="path93" />
      <path
         d="m 166.699,218.775 c 2.572,-0.308 3.25,-1.101 3.034,-2.827 l 0.63,-0.067 0.978,7.579 -0.63,0.071 c -0.2,-1.621 -0.82,-2.31 -3.653,-1.967 l -13.193,1.689 c -2.773,0.38 -3.195,1.138 -2.973,2.828 l -0.636,0.067 -1.106,-8.611 c -0.601,-4.756 1.824,-7.373 4.614,-7.752 2.321,-0.312 4.428,0.723 5.741,3.685 2.026,-4.272 8.802,-6.478 8.628,-10.024 l 0.624,-0.069 0.539,4.304 c -4.26,4.55 -9.087,6.27 -8.591,10.164 l 0.229,1.69 z m -6.661,0.862 -0.327,-2.585 c -0.463,-3.546 -3.056,-4.65 -5.492,-4.307 -2.792,0.347 -4.522,2.688 -4.104,5.927 l 0.296,2.207 z"
         id="path94" />
      <path
         d="m 161.899,186.908 -0.035,0.655 c -1.841,0.311 -2.098,0.62 -2.25,2.826 l -0.35,5.236 7.585,0.517 c 1.028,0.068 1.458,-0.276 1.551,-1.447 l 0.253,-3.723 c 0.208,-3.098 0.105,-3.891 -2.576,-5.34 l 0.033,-0.619 3.886,1.242 -1.016,15.258 -0.636,-0.031 c 0.113,-1.656 -0.354,-2.448 -3.163,-2.622 l -13.238,-0.894 c -2.635,-0.204 -3.409,0.343 -3.537,2.171 l -0.63,-0.035 1.034,-15.295 3.549,0.241 -0.03,0.414 c -2.35,0.308 -2.589,1.032 -2.745,3.372 l -0.424,6.102 9.064,0.618 0.405,-5.89 c 0.097,-1.448 -0.113,-2.035 -1.914,-2.448 l 0.043,-0.655 z"
         id="path95" />
      <path
         d="m 164.838,168.892 -1.662,6.647 3.779,2.447 c 1.849,1.207 3.299,1.928 3.875,-0.208 l 0.611,0.138 -1.344,5.34 -0.609,-0.174 c 0.208,-1.999 -0.725,-2.72 -2.461,-3.857 l -15.536,-9.957 0.523,-2.099 19.232,-1.518 c 2.059,-0.138 2.772,-0.515 3.21,-2.344 l 0.614,0.174 -1.82,7.235 -0.62,-0.138 c 0.36,-1.411 -0.074,-2.238 -1.6,-2.135 l -6.192,0.448 z m -10.819,0.793 -0.031,0.067 8.029,5.098 1.46,-5.788 z"
         id="path96" />
      <path
         d="m 161.278,151.699 c -2.284,-1.102 -3.289,-0.895 -4.065,0.689 l -0.587,-0.276 4.341,-8.819 c 3.593,-7.304 10.176,-8.372 15.138,-5.924 4.794,2.377 7.738,7.578 4.036,15.053 l -4.45,9.061 -0.564,-0.276 c 0.758,-1.548 0.399,-2.479 -1.964,-3.653 z m 12.465,2.997 c 2.968,1.447 3.855,1.068 4.726,-0.689 l 0.959,-1.962 c 2.333,-4.755 0.472,-9.166 -4.731,-11.717 -4.555,-2.238 -10.281,-2.203 -13.238,3.827 l -1.788,3.618 z"
         id="path97" />
      <path
         d="m 186.514,133.889 c 2.121,1.478 3.126,1.411 4.141,-0.036 l 0.519,0.379 -4.419,6.236 -0.508,-0.379 c 1.016,-1.412 0.844,-2.342 -1.359,-3.893 l -10.819,-7.647 c -2.187,-1.518 -3.101,-1.451 -4.151,0.033 l -0.501,-0.345 4.395,-6.268 0.524,0.377 c -1.035,1.448 -0.731,2.448 1.345,3.893 z"
         id="path98" />
      <path
         d="m 206.118,117.524 -0.425,0.449 -23.727,-1.689 -0.048,0.034 10.866,10.199 c 1.563,1.482 2.732,1.375 4.038,0 l 0.467,0.413 -4.409,4.719 -0.461,-0.446 c 1.205,-1.277 1.39,-2.31 -0.861,-4.41 l -9.055,-8.476 c -1.732,-1.62 -3.146,-2.102 -5.018,-0.414 l -0.46,-0.446 3.721,-3.963 21.149,1.619 0.054,-0.036 -9.069,-8.508 c -2.019,-1.894 -3.039,-1.825 -4.317,-0.481 l -0.47,-0.413 4.394,-4.687 0.461,0.414 c -1.412,1.513 -1.247,2.581 0.568,4.304 l 12.601,11.818 z"
         id="path99" />
      <path
         d="m 223.283,104.775 c -0.776,0.966 -3.79,3.24 -4.591,3.791 -7.718,5.273 -13.461,2.378 -16.236,-1.654 -4.238,-6.2 -1.921,-12.919 2.394,-15.882 2.482,-1.687 4.005,-1.514 5.348,-2.444 0.533,-0.382 0.686,-0.689 0.584,-1.242 l 0.554,-0.377 3.529,5.167 -0.489,0.342 c -2.737,-3.03 -6.678,-2.408 -9.069,-0.756 -3.618,2.445 -4.169,7.476 -0.887,12.262 3.513,5.171 9.167,6.858 13.332,3.997 1.256,-0.86 2.729,-2.305 1.66,-3.857 l -1.289,-1.896 c -1.474,-2.137 -2.485,-2.583 -3.916,-1.617 l -0.682,0.481 -0.348,-0.517 7.106,-4.857 0.35,0.515 c -1.709,1.174 -1.606,2.309 -0.562,3.858 z"
         id="path100" />
      <path
         d="m 238.156,93.442 c 0.886,2.412 1.748,2.963 3.412,2.344 l 0.212,0.584 -7.18,2.584 -0.208,-0.588 c 1.672,-0.582 2.005,-1.512 1.106,-3.994 l -4.497,-12.438 c -0.906,-2.514 -1.732,-2.96 -3.396,-2.342 l -0.231,-0.618 13.704,-4.929 1.291,3.55 -0.445,0.174 c -1.384,-2.274 -2.011,-2.207 -4.18,-1.415 l -5.102,1.825 3.026,8.373 5.218,-1.859 c 1.483,-0.553 1.765,-1.518 1.361,-3.204 l 0.562,-0.208 2.031,5.65 -0.579,0.205 c -0.566,-1.411 -1.565,-1.998 -2.963,-1.513 l -5.261,1.928 z"
         id="path101" />
      <path
         d="m 257.957,69.671 c 6.251,-0.722 11.751,3.514 12.486,9.646 0.724,6.27 -3.666,11.748 -9.972,12.504 -6.289,0.725 -11.801,-3.581 -12.539,-9.851 -0.734,-6.27 3.572,-11.543 10.026,-12.299 m 2.385,21.327 c 5.302,-0.622 7.474,-5.998 6.864,-11.094 -0.774,-6.651 -4.756,-9.958 -9.087,-9.441 -4.97,0.586 -7.656,5.065 -6.939,11.164 0.723,6.167 4.409,9.918 9.162,9.371"
         id="path102" />
      <path
         d="m 286.285,67.708 c 6.304,0.241 11.093,5.268 10.862,11.471 -0.229,6.305 -5.399,11.023 -11.751,10.818 -6.32,-0.241 -11.109,-5.34 -10.894,-11.644 0.23,-6.307 5.297,-10.855 11.783,-10.645 m -0.889,21.462 c 5.337,0.208 8.305,-4.788 8.475,-9.924 0.258,-6.683 -3.164,-10.541 -7.545,-10.71 -5.003,-0.174 -8.327,3.822 -8.569,9.989 -0.21,6.168 2.85,10.472 7.639,10.645"
         id="path103" />
      <path
         d="m 307.443,89.102 c -0.59,2.479 -0.282,3.273 1.486,3.686 l -0.133,0.618 -7.343,-1.723 0.134,-0.618 c 1.491,0.343 2.456,0.138 3.129,-2.723 l 3.685,-15.779 -2.995,-0.686 c -2.792,-0.655 -4.235,-0.173 -4.927,1.963 l -0.602,-0.138 1.111,-4.72 0.6,0.105 c 0.235,0.343 0.513,0.584 0.977,0.86 0.463,0.241 1.093,0.449 1.95,0.655 l 10.833,2.513 c 1.819,0.415 2.687,0.415 3.465,0 l 0.648,0.174 -1.102,4.721 -0.395,-0.104 c 0.023,-1.827 -0.391,-3.207 -3.673,-3.963 l -3.148,-0.721 z"
         id="path104" />
      <path
         d="m 324.463,80.213 c 1.077,-2.515 0.737,-3.375 -0.897,-4.063 l 0.245,-0.588 7.368,3.1 c 4.725,1.999 5.852,5.168 4.79,7.682 -0.902,2.135 -2.729,3.035 -5.811,2.791 l -0.027,0.036 c 2.749,1.895 3.84,5.031 2.738,7.647 -1.235,2.93 -4.623,3.686 -8.31,2.136 l -9.001,-3.822 0.223,-0.588 c 1.653,0.69 2.536,0.242 3.558,-2.169 z m 2.362,7.305 c 2.867,1.205 5.298,0.309 6.353,-2.172 1.035,-2.445 0.261,-4.823 -2.928,-6.166 l -1.932,-0.827 -3.506,8.302 z m -4.756,5.616 c -1.119,2.617 -0.914,3.479 0.631,4.134 l 1.6,0.686 c 1.977,0.828 4.419,0.311 5.64,-2.582 1.202,-2.86 -0.159,-5.718 -3.616,-7.198 l -1.826,-0.762 z"
         id="path105" />
      <path
         d="m 347.338,101.883 -5.66,-3.893 -3.608,2.686 c -1.754,1.31 -2.963,2.412 -1.149,3.722 l -0.356,0.515 -4.523,-3.097 0.364,-0.52 c 1.813,0.862 2.819,0.244 4.473,-0.998 l 14.746,-11.094 1.808,1.242 -5.29,18.534 c -0.589,1.998 -0.488,2.79 1.062,3.858 l -0.354,0.516 -6.167,-4.237 0.345,-0.516 c 1.183,0.792 2.14,0.69 2.56,-0.791 z m 3.024,-10.439 -0.061,-0.036 -7.551,5.753 4.927,3.378 z"
         id="path106" />
      <path
         d="m 361.63,125.033 -11.333,-10.402 0.418,-0.483 c 1.248,1.172 2.411,0.964 4.179,-0.999 l 9.034,-9.82 c 1.655,-1.789 1.563,-2.756 0.294,-3.894 l 0.439,-0.481 5.6,5.167 -0.422,0.448 c -1.316,-1.205 -2.486,-0.826 -4.003,0.864 l -9.602,10.435 c -1.138,1.242 -0.928,1.967 0.385,3.136 l 3.121,2.862 c 1.881,1.754 2.769,1.789 5.507,0.205 l 0.466,0.413 z"
         id="path107" />
      <path
         d="m 372.281,139.021 -9.167,-12.367 0.506,-0.379 c 1.017,1.377 2.181,1.377 4.292,-0.174 l 10.712,-7.959 c 1.963,-1.446 2.049,-2.412 1.034,-3.787 l 0.517,-0.379 4.528,6.132 -0.504,0.377 c -1.069,-1.444 -2.274,-1.275 -4.101,0.068 l -11.402,8.477 c -1.343,0.997 -1.254,1.723 -0.2,3.133 l 2.527,3.412 c 1.509,2.034 2.39,2.274 5.38,1.206 l 0.36,0.516 z"
         id="path108" />
      <path
         d="m 399.093,159.899 c 3.371,-2.412 4.238,-5.065 2.947,-8.477 -1.8,-4.823 -6.614,-5.959 -11.713,-4.028 -5.969,2.24 -8.742,6.818 -7.046,11.299 1.164,3.133 3.501,4.89 6.972,5.305 l -0.296,0.689 c -3.645,-0.138 -6.808,-2.549 -8.239,-6.374 -1.801,-4.755 -0.414,-11.023 6.213,-13.504 6.307,-2.345 12.597,0.241 14.821,6.168 0.943,2.514 0.81,4.685 1.256,5.854 0.2,0.554 0.539,0.793 1.037,0.861 l 0.196,0.552 -5.932,2.241 z"
         id="path109" />
      <path
         d="m 389.701,183.532 -3.344,-14.986 0.632,-0.174 c 0.353,1.689 1.419,2.172 3.983,1.619 L 404,167.098 c 2.392,-0.551 2.854,-1.379 2.481,-3.066 l 0.62,-0.137 1.654,7.442 -0.626,0.137 c -0.379,-1.759 -1.547,-2.066 -3.766,-1.585 l -13.862,3.101 c -1.627,0.343 -1.852,1.034 -1.474,2.79 l 0.918,4.099 c 0.564,2.517 1.252,3.066 4.44,3.309 l 0.113,0.62 z"
         id="path110" />
      <path
         d="m 393.36,200.895 c -2.472,-1.927 -3.685,-4.099 -3.815,-6.924 -0.267,-5.136 3.282,-7.409 6.952,-7.578 l 10.45,-0.484 c 2.792,-0.138 3.333,-0.896 3.235,-2.583 h 0.64 l 0.363,7.646 -0.619,0.036 c -0.102,-1.758 -0.753,-2.412 -3.465,-2.274 l -10.742,0.516 c -3.256,0.138 -5.5,2.068 -5.327,5.65 0.107,2.448 1.447,4.547 3.811,5.928 l 12.779,-0.622 c 2.429,-0.138 3.257,-0.721 3.253,-2.444 h 0.643 l 0.338,7.476 -0.62,0.03 c -0.091,-1.789 -0.927,-2.375 -3.474,-2.237 l -13.228,0.619 c -2.778,0.137 -3.336,0.933 -3.249,2.585 h -0.635 l -0.251,-5.238 z"
         id="path111" />
      <path
         d="m 225.702,311.689 -0.555,-0.306 c 0.478,-1.793 0.284,-2.136 -1.625,-3.203 l -4.623,-2.52 -3.64,6.685 c -0.504,0.897 -0.381,1.413 0.667,1.997 l 3.26,1.794 c 2.735,1.481 3.484,1.72 5.922,-0.104 l 0.548,0.309 -2.737,2.999 -13.434,-7.339 0.293,-0.553 c 1.462,0.792 2.349,0.692 3.706,-1.791 l 6.369,-11.61 c 1.256,-2.341 1.102,-3.271 -0.494,-4.134 l 0.297,-0.552 13.437,7.339 -1.697,3.137 -0.371,-0.205 c 0.705,-2.276 0.141,-2.795 -1.904,-3.93 l -5.364,-2.928 -4.357,7.99 5.209,2.828 c 1.256,0.687 1.876,0.725 3.006,-0.726 l 0.561,0.312 -2.475,4.511 z"
         id="path112" />
      <path
         d="m 245.639,310.417 -0.608,-0.209 c 0.731,-3.097 -0.976,-4.994 -3,-5.682 -2.112,-0.726 -4.011,-0.104 -4.672,1.757 -1.279,3.72 3.492,6.475 5.362,10.334 0.914,1.894 0.817,3.274 0.362,4.617 -1.095,3.169 -4.538,4.823 -7.688,3.721 -2.131,-0.757 -3.568,-2.412 -4.228,-2.653 -0.342,-0.136 -0.682,0.037 -1.03,0.481 l -0.591,-0.169 1.883,-5.446 0.586,0.208 c -1.248,3.721 1.378,5.994 3.12,6.613 2.418,0.83 4.516,0 5.259,-2.17 1.217,-3.479 -3.624,-6.925 -5.07,-9.955 -0.819,-1.656 -0.819,-3.24 -0.271,-4.824 1.083,-3.065 4.009,-4.41 7.254,-3.27 2.154,0.72 2.891,1.859 3.661,2.136 0.319,0.102 0.414,0.065 0.733,-0.382 l 0.552,0.208 z"
         id="path113" />
      <path
         d="m 257.903,326.4 c -0.453,2.515 -0.109,3.274 1.664,3.617 l -0.104,0.621 -7.398,-1.341 0.112,-0.624 c 1.497,0.276 2.464,-0.033 2.989,-2.891 l 2.905,-15.953 -3.018,-0.552 c -2.825,-0.516 -4.237,0.071 -4.83,2.206 l -0.619,-0.101 0.896,-4.758 0.589,0.103 c 0.26,0.311 0.558,0.52 1.026,0.759 0.467,0.205 1.103,0.414 1.999,0.584 l 10.93,1.966 c 1.808,0.344 2.712,0.308 3.465,-0.137 l 0.645,0.137 -0.871,4.753 -0.404,-0.067 c -0.07,-1.828 -0.537,-3.203 -3.869,-3.791 l -3.159,-0.587 z"
         id="path114" />
      <path
         d="m 270.725,331.568 c 0,1.001 -0.78,1.827 -1.754,1.827 -0.954,0 -1.783,-0.826 -1.783,-1.827 0,-0.964 0.829,-1.723 1.783,-1.723 0.974,0 1.754,0.759 1.754,1.723"
         id="path115" />
      <path
         d="m 292.154,329.159 c 0.154,1.963 0.568,2.305 2.38,2.168 l 0.047,0.551 -6.85,0.517 -0.024,-0.551 c 1.728,-0.104 2.145,-0.481 1.985,-2.478 l -1.143,-14.609 c -0.056,-0.656 -0.169,-0.758 -0.364,-0.758 -0.257,0.068 -1.349,0.791 -2.84,0.998 l -0.056,-0.62 c 2.265,-1.411 4.132,-2.857 4.747,-3.996 l 0.631,-0.036 z"
         id="path116" />
      <path
         d="m 304.675,307.454 c 3.101,-0.621 5.819,0.964 6.346,3.719 0.317,1.62 -0.087,3.551 -2.619,5.686 3.208,1.376 4.894,3.204 5.352,5.58 0.636,3.204 -1.6,6.133 -5.047,6.822 -3.499,0.655 -6.393,-0.93 -6.97,-3.929 -0.437,-2.342 0.603,-4.306 3.438,-6.649 -2.861,-0.827 -4.649,-2.652 -5.104,-4.996 -0.581,-3.029 1.285,-5.58 4.604,-6.233 m 2.982,9.095 c 1.701,-1.344 1.883,-2.965 1.565,-4.584 -0.509,-2.617 -2.391,-4.099 -4.644,-3.685 -1.935,0.414 -3.125,2.065 -2.756,3.86 0.339,1.823 1.984,3.065 5.835,4.409 m 1.097,11.645 c 2.16,-0.451 3.466,-2.274 3.052,-4.343 -0.412,-2.101 -2.535,-3.685 -5.855,-4.686 -1.888,1.414 -2.666,3.205 -2.261,5.34 0.511,2.518 2.674,4.135 5.064,3.689"
         id="path117" />
      <path
         d="m 313.529,305.042 0.593,-0.241 c 0.196,0.205 0.324,0.379 0.534,0.379 0.209,0.034 0.475,0 0.815,-0.138 l 10.95,-4.204 0.266,0.723 0.607,22.014 -2.487,0.965 0.733,-21.118 -8.691,3.307 c -1.261,0.485 -1.512,1.068 -1.861,3.587 l -0.583,0.239 z"
         id="path118" />
      <path
         d="m 343.625,312.691 c 0.93,1.722 1.427,1.894 3.027,0.997 l 0.26,0.516 -6.004,3.204 -0.26,-0.446 c 1.536,-0.826 1.758,-1.344 0.809,-3.1 l -6.921,-12.816 c -0.296,-0.588 -0.449,-0.618 -0.615,-0.518 -0.22,0.104 -0.924,1.24 -2.183,1.999 l -0.298,-0.551 c 1.456,-2.172 2.594,-4.238 2.687,-5.548 l 0.558,-0.309 8.94,16.571 z"
         id="path119" />
    </g>
  </g>
</svg>
