<?xml version="1.0" encoding="UTF-8"?>
<!DOCTYPE svg PUBLIC "-//W3C//DTD SVG 1.1//EN" "http://www.w3.org/Graphics/SVG/1.1/DTD/svg11.dtd">
<!-- Creator: CorelDRAW 2019 (64-Bit) -->
<svg xmlns="http://www.w3.org/2000/svg" xml:space="preserve" width="195.774mm" height="160.719mm" version="1.1" style="shape-rendering:geometricPrecision; text-rendering:geometricPrecision; image-rendering:optimizeQuality; fill-rule:evenodd; clip-rule:evenodd"
viewBox="0 0 195.753 160.7018"
 xmlns:xlink="http://www.w3.org/1999/xlink"
 xmlns:xodm="http://www.corel.com/coreldraw/odm/2003">
 <defs>
  <style type="text/css">
   <![CDATA[
    .fil2 {fill:#00944B}
    .fil3 {fill:#D6003D}
    .fil0 {fill:#DE9400}
    .fil1 {fill:white}
   ]]>
  </style>
 </defs>
 <g id="Layer_x0020_1">
  <metadata id="CorelCorpID_0Corel-Layer"/>
  <g id="_731992992">
   <path class="fil0" d="M123.2523 63.5331c-6.5705,-6.373 -15.5237,-10.3033 -25.3787,-10.3033 -9.8534,0 -18.8057,3.9303 -25.3753,10.3033l-72.4983 0 97.8762 97.1687 97.8768 -97.1687 -72.5007 0z"/>
   <path class="fil1" d="M97.8736 56.632c18.2337,0 33.0736,14.8354 33.0736,33.0726 0,18.2366 -14.8399,33.0695 -33.0736,33.0695 -18.2338,0 -33.0684,-14.8333 -33.0684,-33.0695 0,-18.2376 14.8346,-33.0726 33.0684,-33.0726z"/>
   <path class="fil2" d="M82.599 83.2898l2.7336 0 0 -4.1472 -2.7336 0 0 -4.993 8.0118 0 0 13.661 -8.0118 0 0 -4.5209zm0 17.9971l0 0 2.7336 0 0 -4.1429 -2.7336 0 0 -4.4314 8.0118 0 0 13.2933 -8.0118 0 0 -4.719zm22.4309 4.7186l0 0 -9.7055 0 0 -13.2933 1.8891 0 0 1.4174 2.7314 0 0 -1.4174 3.8657 0c1.0686,0 1.2191,1.9061 1.2191,1.9061l0 11.3872 0.0002 0zm0 -20.9841l0 0 -0.0147 0.6234c0,0 -0.2394,2.1353 -1.6297,2.1663l-3.44 0 0 -1.7879 -2.7318 0 0 1.7879 -1.8888 0 0 -13.661 9.7056 0 0 10.8713 -0.0005 0zm11.9407 16.645l0 0c-0.246,0.7154 -1.5196,4.3013 -2.889,4.3013 -0.0703,0 -0.1132,0.0273 -0.1591,0.0381l-4.6531 0 0 -11.5935 -0.0266 0c-0.0633,-0.7698 -0.3919,-1.5968 -0.441,-1.6998l4.8231 0c0.3806,0.0374 3.5387,1.2721 3.5524,5.1854l-3.0954 0 0 3.7684 2.8886 0zm0.2143 -18.4696l0 0 0 0.0048c0,0 -1.6968,4.6046 -3.1826,4.6046l-0.101 0.0045 -5.2659 0c0.0769,-0.1507 0.634,-1.2093 0.634,-2.1663l0 -11.495 4.4962 0c0.0801,0.0266 3.4192,1.2045 3.4192,5.2741l-3.1033 0 0 3.7728 3.1033 0 0 0.0004zm7.2675 -3.7728l0 0 -2.809 0c0,-0.0304 -0.5832,-7.4522 -6.1528,-9.8922l-5.9933 0 0 -0.1483c0,-6.0091 -4.4047,-7.243 -7.6142,-7.243 -3.2065,0 -4.6986,1.3427 -4.6986,1.3427l0 4.333c0,0 0.0758,-1.5264 4.2264,-1.5264 4.6241,0 3.716,3.2392 3.716,3.2392l0 0.0024 -9.8025 0 0 -2.6441c0,-4.4825 -2.2681,-5.6584 -4.919,-5.6584l-1.8663 0.0059 0 4.8073 1.1278 0c0.7522,0 0.9102,0.5609 0.9439,0.949l0 2.5399 -15.0788 0 0 4.6179 3.3031 0 0 4.9928 -3.3031 0 0 4.1474 3.3031 0 0 4.5209 -3.3031 0 0 4.9018 3.3031 0 0 4.4313 -3.3031 0 0 4.143 3.3031 0 0 4.7188 -3.3031 0 0 4.1476 14.8447 0 0 1.1757c0,0.8019 -0.7098,0.7051 -0.7098,0.7051l-1.4984 0 0 4.8076 3.0072 0c1.2364,0 4.0553,-1.2793 4.0553,-4.4331l0 -1.6923 0.005 -0.5633 9.8266 0c0,2.1942 -1.149,3.2359 -4.1629,3.2359 -3.0128,0 -3.8601,-1.454 -3.8601,-1.454l0 4.3698c0.8945,0.9967 4.5762,1.28 4.5762,1.28 7.4818,0 7.702,-6.2557 7.6737,-7.4316l6.6698 0c0,0 4.7346,-1.9952 5.3611,-8.4868l3.1317 0 0 -3.7686 -2.9254 0c-0.0066,-0.2739 -0.1507,-6.3154 -3.3379,-8.0437 0,0 3.0632,-1.7326 3.0907,-6.6525l-0.0218 -0.0048 3.1949 0 0 -3.7714z"/>
   <polygon class="fil2" points="22.0437,66.9352 22.0437,80.6233 35.8313,94.3115 35.8313,66.9352 "/>
   <polygon class="fil1" points="22.0437,80.6233 22.0437,66.9352 8.2558,66.9352 "/>
   <path class="fil2" d="M61.403 89.7046c0,-4.17 0.7093,-8.1754 2.0039,-11.9101l0 -10.8592 -13.7876 0 0 41.0644 13.7876 13.6877 0 -20.0588c-1.2971,-3.738 -2.0039,-7.7498 -2.0039,-11.924z"/>
   <polygon class="fil1" points="49.6192,66.9352 35.8313,66.9352 35.8313,94.3115 49.6192,107.9996 "/>
   <path class="fil2" d="M77.1945 119.7292l0 15.6463 13.7877 13.6881 0 -23.5435c-5.039,-0.9681 -9.7126,-2.9751 -13.7877,-5.791z"/>
   <path class="fil1" d="M63.4069 101.6286l0 20.0588 13.7876 13.6881 0 -15.6463c-6.3329,-4.3754 -11.2203,-10.6998 -13.7876,-18.1006z"/>
   <path class="fil1" d="M69.4042 66.9352l-5.9974 0 0 10.8592c1.3775,-3.9736 3.4181,-7.64 5.9974,-10.8592z"/>
   <path class="fil2" d="M104.7699 125.5195l0 23.5442 13.788 -13.6881 0 -15.6477c-4.0755,2.816 -8.749,4.8232 -13.788,5.7917z"/>
   <path class="fil1" d="M97.8736 126.1761c-2.3556,0 -4.6589,-0.2272 -6.8914,-0.6557l0 23.5436 6.894 6.844 6.8937 -6.844 0 -23.5445c-2.2339,0.4288 -4.5389,0.6566 -6.8963,0.6566z"/>
   <path class="fil2" d="M132.3454 66.9352l0 10.8598c1.2941,3.7344 2.004,7.7401 2.004,11.9095 0,4.1739 -0.7071,8.1853 -2.004,11.9237l0 20.0595 13.7881 -13.6881 0 -41.0644 -13.7881 0z"/>
   <path class="fil1" d="M118.5579 119.7278l0 15.6477 13.7875 -13.6881 0 -20.0595c-2.5677,7.4002 -7.4549,13.724 -13.7875,18.0999z"/>
   <path class="fil1" d="M126.347 66.9352c2.5798,3.2197 4.6205,6.886 5.9985,10.8598l0 -10.8598 -5.9985 0z"/>
   <polygon class="fil2" points="159.9205,94.3111 173.7088,80.6233 173.7088,66.9352 159.9205,66.9352 "/>
   <polygon class="fil1" points="159.9205,66.9352 146.1336,66.9352 146.1336,107.9992 159.9205,94.3111 "/>
   <polygon class="fil1" points="187.4957,66.9352 173.7088,66.9352 173.7088,80.6233 "/>
   <path class="fil3" d="M93.5217 35.5636c0,-1.5728 0.8486,-2.9452 2.1084,-3.6956l0 -9.6664c-7.802,0.339 -14.8697,2.4659 -20.2919,5.783 0.5451,2.2074 1.9332,4.3197 4.0419,6.1541 0.5302,-0.2369 1.1166,-0.3712 1.7365,-0.3712 2.3777,0 4.3034,1.9272 4.3034,4.3056 0,1.7029 -0.9928,3.1712 -2.4282,3.8682l0.023 0.0552c0.4042,0.8129 1.1008,1.422 1.9629,1.7118 0.8604,0.289 1.783,0.2256 2.5983,-0.1781 0.8153,-0.4046 1.4216,-1.1025 1.7103,-1.9644 0.044,-0.1248 0.075,-0.2529 0.1018,-0.3831 -0.6723,-0.2963 -1.0235,-1.0581 -0.7859,-1.7696 0.2538,-0.7559 1.0744,-1.1606 1.8286,-0.9062 0.7539,0.2527 1.16,1.0711 0.907,1.8272 -0.0938,0.2747 -0.2613,0.5019 -0.4734,0.6689 0.3993,0.7554 1.0716,1.3548 1.9067,1.6334 0.8616,0.2892 1.7828,0.2272 2.5985,-0.1784 0.8151,-0.4044 1.4201,-1.0998 1.7101,-1.9628 0.077,-0.2214 0.1177,-0.4474 0.1453,-0.675 -2.0903,-0.2951 -3.7032,-2.0835 -3.7032,-4.2568z"/>
   <path class="fil3" d="M81.1161 42.3753c-2.3776,0 -4.3043,-1.9262 -4.3043,-4.302 0,-0.0733 0.0068,-0.1464 0.0134,-0.2189 -2.4973,-2.0735 -4.3056,-4.4917 -5.3143,-7.0937 -3.6726,3.1565 -6.1054,6.9882 -6.8011,11.1723 0.3818,-0.1121 0.782,-0.1743 1.2023,-0.1743 2.3744,0 4.3011,1.9261 4.3011,4.303 0,1.1113 -0.4256,2.1242 -1.1197,2.8882 0.6116,0.5873 1.4386,0.9481 2.3514,0.9481 1.8752,0 3.4021,-1.526 3.4021,-3.4011 0,-0.1343 -0.0114,-0.264 -0.0277,-0.3944 -0.7311,-0.0702 -1.306,-0.6778 -1.306,-1.4289 0,-0.7969 0.645,-1.4422 1.4412,-1.4422 0.7978,0 1.4423,0.6453 1.4423,1.4422 0,0.2894 -0.0863,0.5595 -0.2345,0.7854 0.6207,0.5896 1.4486,0.9413 2.3281,0.9413 1.8776,0 3.403,-1.5251 3.403,-3.4007 0,-0.2342 -0.03,-0.462 -0.0766,-0.6861 -0.2301,0.0372 -0.4604,0.0619 -0.7008,0.0619z"/>
   <path class="fil3" d="M102.2306 35.5636c0,-1.5728 -0.8485,-2.9452 -2.1086,-3.6956l0 -9.6664c7.8021,0.339 14.8699,2.4659 20.2922,5.783 -0.5452,2.2074 -1.9335,4.3197 -4.0422,6.1541 -0.5301,-0.2369 -1.1163,-0.3712 -1.7365,-0.3712 -2.3776,0 -4.3033,1.9272 -4.3033,4.3056 0,1.7029 0.993,3.1712 2.4283,3.8682l-0.0228 0.0552c-0.4045,0.8129 -1.101,1.422 -1.9633,1.7118 -0.8602,0.289 -1.7827,0.2256 -2.5983,-0.1781 -0.8152,-0.4046 -1.4213,-1.1025 -1.7101,-1.9644 -0.0441,-0.1248 -0.0751,-0.2529 -0.1018,-0.3831 0.6723,-0.2963 1.0234,-1.0581 0.7857,-1.7696 -0.2534,-0.7559 -1.074,-1.1606 -1.8285,-0.9062 -0.7539,0.2527 -1.16,1.0711 -0.9071,1.8272 0.094,0.2747 0.2615,0.5019 0.4738,0.6689 -0.3996,0.7554 -1.0717,1.3548 -1.907,1.6334 -0.8616,0.2892 -1.7829,0.2272 -2.5984,-0.1784 -0.8152,-0.4044 -1.42,-1.0998 -1.7102,-1.9628 -0.0768,-0.2214 -0.1177,-0.4474 -0.1452,-0.675 2.0903,-0.2951 3.7032,-2.0835 3.7032,-4.2568z"/>
   <path class="fil3" d="M114.636 42.3753c2.3777,0 4.3044,-1.9262 4.3044,-4.302 0,-0.0733 -0.0068,-0.1464 -0.0135,-0.2189 2.4975,-2.0735 4.306,-4.4917 5.3146,-7.0937 3.6724,3.1565 6.1052,6.9882 6.801,11.1723 -0.3819,-0.1121 -0.7819,-0.1743 -1.2022,-0.1743 -2.3745,0 -4.3012,1.9261 -4.3012,4.303 0,1.1113 0.4253,2.1242 1.1195,2.8882 -0.6114,0.5873 -1.4384,0.9481 -2.3511,0.9481 -1.8753,0 -3.4021,-1.526 -3.4021,-3.4011 0,-0.1343 0.0114,-0.264 0.0277,-0.3944 0.7308,-0.0702 1.3059,-0.6778 1.3059,-1.4289 0,-0.7969 -0.6449,-1.4422 -1.4411,-1.4422 -0.798,0 -1.4422,0.6453 -1.4422,1.4422 0,0.2894 0.086,0.5595 0.2342,0.7854 -0.6205,0.5896 -1.4485,0.9413 -2.3281,0.9413 -1.8777,0 -3.4027,-1.5251 -3.4027,-3.4007 0,-0.2342 0.0296,-0.462 0.0763,-0.6861 0.2301,0.0372 0.4603,0.0619 0.7007,0.0619z"/>
   <path class="fil0" d="M140.5397 33.8341c0,-4.0794 -1.772,-7.9949 -4.992,-11.0213 -3.4514,-3.2546 -8.1005,-5.064 -13.2385,-5.2027 -3.9618,-5.5151 -11.7573,-9.5023 -20.9796,-10.3202 -0.0101,-1.5732 -1.0522,-2.8997 -2.4858,-3.336l0 -0.6565 1.7175 -0.0026 -0.0018 -1.9656 -1.7212 0.0013 -0.0006 -1.3304 -0.9615 0.0013 -0.9614 -0.0013 -0.0007 1.3304 -1.7214 -0.0013 -0.0018 1.9656 1.7177 0.0026 0 0.6565c-1.4341,0.4364 -2.476,1.7628 -2.4861,3.336 -9.2222,0.8179 -17.0176,4.8051 -20.9794,10.3202 -5.1379,0.1388 -9.7873,1.9482 -13.2389,5.2027 -3.2194,3.0265 -4.9913,6.942 -4.9913,11.0213 0,4.4382 2.3162,8.646 6.464,11.9316 -0.0067,0.0974 -0.0153,0.1958 -0.0153,0.2957 0,2.3743 1.9277,4.3017 4.3056,4.3017 0.4726,0 0.9275,-0.0786 1.3543,-0.2197 0.3516,0.6941 1.5097,2.4558 4.231,2.5084 -0.1685,0.1207 -0.3419,0.2362 -0.5109,0.3604 -0.4497,0.3415 -1.1093,1.2848 -0.3813,2.4231 0.3386,0.5245 0.8342,0.8009 1.4359,0.8009 0.2109,0 0.4076,-0.0363 0.5734,-0.0799l2.2046 3.0148 0.4397 -0.3214c6.5896,-4.8281 14.3898,-7.3825 22.5615,-7.3825 8.1716,0 15.9721,2.5544 22.5616,7.3825l0.4396 0.3214 2.2047 -3.0148c0.1658,0.0436 0.3627,0.0799 0.5732,0.0799 0.6017,0 1.0976,-0.2766 1.436,-0.8009 0.7278,-1.1384 0.0685,-2.0817 -0.3811,-2.4231 -0.1691,-0.1245 -0.342,-0.24 -0.5108,-0.3604 2.7211,-0.0526 3.8793,-1.8143 4.2308,-2.5084 0.4268,0.1415 0.8815,0.2197 1.3545,0.2197 2.3775,0 4.3053,-1.9278 4.3053,-4.3017 0,-0.0999 -0.0079,-0.1983 -0.0145,-0.2957 4.1485,-3.2857 6.465,-7.4934 6.465,-11.9316zm-61.9931 12.5646l0 0c-0.881,0 -1.7084,-0.3519 -2.3291,-0.9419 0.148,-0.2251 0.2356,-0.4944 0.2356,-0.7846 0,-0.7962 -0.6457,-1.4415 -1.4437,-1.4415 -0.7954,0 -1.441,0.6453 -1.441,1.4415 0,0.7517 0.5747,1.3596 1.3066,1.4295 0.0157,0.1297 0.0271,0.2599 0.0271,0.3945 0,1.8754 -1.5261,3.4006 -3.4021,3.4006 -0.9127,0 -1.7397,-0.3608 -2.3504,-0.9479 0.6935,-0.7634 1.1195,-1.7771 1.1195,-2.8875 0,-2.377 -1.9271,-4.3031 -4.3016,-4.3031 -0.4204,0 -0.8204,0.0615 -1.2016,0.1744 -0.1802,0.0533 -0.356,0.1123 -0.5262,0.1874 -2.9444,-2.3991 -4.5835,-5.3098 -4.5835,-8.2862 0,-2.8416 1.2756,-5.6091 3.5918,-7.7864 2.1106,-1.987 4.835,-3.2694 7.9004,-3.767 -0.3325,1.1636 -0.5102,2.3645 -0.5102,3.5935 0,1.6731 0.3191,3.3125 0.9289,4.886 1.0079,2.6023 2.8166,5.02 5.3137,7.0929 -0.007,0.073 -0.0134,0.1456 -0.0134,0.2193 0,2.3766 1.9278,4.302 4.3044,4.302 0.2396,0 0.4706,-0.0249 0.701,-0.062 0.0446,0.2235 0.0754,0.4521 0.0754,0.6853 0.0005,1.876 -1.5249,3.4011 -3.4014,3.4011zm18.588 -5.9032l0 0c-0.29,0.8626 -0.895,1.5584 -1.7095,1.9628 -0.8147,0.4047 -1.7381,0.467 -2.5984,0.1778 -0.8358,-0.2791 -1.5077,-0.8778 -1.9069,-1.6334 0.2117,-0.1664 0.3797,-0.3937 0.473,-0.6689 0.2526,-0.7565 -0.1532,-1.5746 -0.9071,-1.8266 -0.7553,-0.2544 -1.5751,0.1506 -1.8297,0.9062 -0.2365,0.7115 0.1147,1.4722 0.7876,1.7696 -0.0268,0.1302 -0.0596,0.2583 -0.1022,0.3831 -0.2889,0.8611 -0.8964,1.5598 -1.7104,1.9644 -0.8152,0.4037 -1.7375,0.4671 -2.5983,0.1775 -0.8616,-0.2902 -1.5589,-0.8986 -1.963,-1.7108l-0.0229 -0.0565c1.4353,-0.6968 2.4283,-2.1651 2.4283,-3.868 0,-2.3777 -1.9259,-4.3055 -4.3035,-4.3055 -0.6202,0 -1.206,0.1352 -1.7373,0.3718 -2.1076,-1.8344 -3.4953,-3.9468 -4.041,-6.1541 -0.1714,-0.6962 -0.2614,-1.3995 -0.2614,-2.1094 0,-7.2524 9.1999,-13.4494 20.5526,-14.1833l0 20.1753c-1.2588,0.7512 -2.1076,2.1232 -2.1076,3.6964 0,2.1734 1.612,3.9618 3.7027,4.2568 -0.0281,0.2273 -0.0692,0.4531 -0.1451,0.675zm15.5476 1.5015l0 0c-0.4042,0.8122 -1.1015,1.4206 -1.9628,1.7108 -0.8606,0.2896 -1.7832,0.2262 -2.5985,-0.1775 -0.8142,-0.4046 -1.4214,-1.103 -1.7101,-1.9644 -0.043,-0.1248 -0.0759,-0.2529 -0.1025,-0.3831 0.6728,-0.297 1.0242,-1.0581 0.7875,-1.7696 -0.2545,-0.7559 -1.0743,-1.1606 -1.8296,-0.9062 -0.754,0.252 -1.1599,1.0701 -0.9071,1.8266 0.0937,0.2753 0.2614,0.5025 0.473,0.6689 -0.3986,0.756 -1.071,1.3547 -1.9071,1.6334 -0.8596,0.2892 -1.783,0.2271 -2.5982,-0.1778 -0.8145,-0.4044 -1.4194,-1.1005 -1.7096,-1.9628 -0.0758,-0.222 -0.1169,-0.4474 -0.1453,-0.675 2.0909,-0.2951 3.7027,-2.0835 3.7027,-4.2568 0,-1.5728 -0.8486,-2.9452 -2.1076,-3.6964l0 -20.1753c11.3526,0.7339 20.5525,6.9309 20.5525,14.1833 0,0.7099 -0.0897,1.4131 -0.2614,2.1094 -0.5451,2.2074 -1.9335,4.3197 -4.041,6.1541 -0.5311,-0.2369 -1.117,-0.3718 -1.7373,-0.3718 -2.3775,0 -4.3033,1.9278 -4.3033,4.3055 0,1.7029 0.9931,3.1712 2.4282,3.868l-0.0226 0.0565zm18.8301 0.1233l0 0c-0.1699,-0.0754 -0.3459,-0.1341 -0.526,-0.1874 -0.3814,-0.1128 -0.7812,-0.1743 -1.2015,-0.1743 -2.3746,0 -4.3017,1.9261 -4.3017,4.303 0,1.1105 0.4262,2.1242 1.1194,2.8875 -0.6107,0.5872 -1.4374,0.9481 -2.3504,0.9481 -1.8758,0 -3.4021,-1.5253 -3.4021,-3.4008 0,-0.1343 0.0114,-0.2646 0.027,-0.3944 0.7318,-0.07 1.3068,-0.6778 1.3068,-1.4296 0,-0.7961 -0.6458,-1.4414 -1.4412,-1.4414 -0.7978,0 -1.4436,0.6453 -1.4436,1.4414 0,0.2903 0.0876,0.5595 0.2355,0.7846 -0.6202,0.5901 -1.4484,0.9418 -2.3289,0.9418 -1.8765,0 -3.4018,-1.5253 -3.4018,-3.4006 0,-0.2336 0.0307,-0.4623 0.0754,-0.6851 0.2304,0.0366 0.4614,0.0618 0.7009,0.0618 2.3768,0 4.3046,-1.9254 4.3046,-4.3019 0,-0.0738 -0.0071,-0.1464 -0.0136,-0.2193 2.4973,-2.0731 4.3059,-4.4907 5.3137,-7.093 0.6101,-1.5734 0.9289,-3.2128 0.9289,-4.8854 0,-1.229 -0.1777,-2.4299 -0.5099,-3.5935 3.0648,0.4977 5.7895,1.7787 7.9002,3.7657 2.3167,2.1779 3.5923,4.9455 3.5923,7.7871 0,2.9761 -1.6399,5.8867 -4.5838,8.2858z"/>
  </g>
 </g>
</svg>
