<?xml version="1.0" encoding="UTF-8"?>
<!DOCTYPE svg PUBLIC "-//W3C//DTD SVG 1.1//EN" "http://www.w3.org/Graphics/SVG/1.1/DTD/svg11.dtd">
<!-- Creator: CorelDRAW 2019 (64-Bit) -->
<svg xmlns="http://www.w3.org/2000/svg" xml:space="preserve" width="160.022mm" height="184.107mm" version="1.1" style="shape-rendering:geometricPrecision; text-rendering:geometricPrecision; image-rendering:optimizeQuality; fill-rule:evenodd; clip-rule:evenodd"
viewBox="0 0 159.6877 183.7215"
 xmlns:xlink="http://www.w3.org/1999/xlink"
 xmlns:xodm="http://www.corel.com/coreldraw/odm/2003">
 <defs>
  <style type="text/css">
   <![CDATA[
    .fil1 {fill:#133C8B}
    .fil5 {fill:#E6A513}
    .fil4 {fill:#EC1C24}
    .fil2 {fill:#FFE24A}
    .fil0 {fill:black}
    .fil3 {fill:white}
   ]]>
  </style>
 </defs>
 <g id="Layer_x0020_1">
  <metadata id="CorelCorpID_0Corel-Layer"/>
  <g id="_816861888">
   <path class="fil0" d="M75.189 4.7011l3.5618 0 0 -4.7011 3.2056 0 0 4.7011 3.5617 0 0 3.2066 -3.5617 0 0 2.3299c1.1405,0.3996 2.0874,1.2103 2.6605,2.255 0.6882,-0.5858 1.5799,-0.9413 2.5547,-0.9413 2.1758,0 3.941,1.7662 3.941,3.9409 0,0.0905 -0.0036,0.1797 -0.0097,0.2689 0.6066,-0.3801 1.3229,-0.5999 2.0916,-0.5999 1.248,0 2.3606,0.5806 3.0828,1.4857 0.2813,-1.9007 1.9192,-3.3592 3.8979,-3.3592 2.1763,0 3.9412,1.7649 3.9412,3.9409 0,0.4564 -0.0774,0.8934 -0.2202,1.3021 0.7196,-0.7797 1.7499,-1.2684 2.895,-1.2684 2.0728,0 3.7722,1.6007 3.9289,3.6333 0.3166,-0.0815 0.6485,-0.1254 0.9903,-0.1254 2.1758,0 3.941,1.7649 3.941,3.9409 0,0.4009 -0.0605,0.7875 -0.1715,1.1533 1.6101,0.4953 2.7808,1.9938 2.7808,3.7665 0,0.6219 -0.144,1.2089 -0.4006,1.7326 1.0179,0.7124 1.6839,1.8928 1.6839,3.2298 0,0.9128 -0.3104,1.7532 -0.8318,2.4204 0.7995,0.7214 1.3026,1.7661 1.3026,2.9273 0,1.5256 -0.8687,2.8496 -2.1384,3.5052 0.1873,0.4487 0.2378,1.0137 0.1468,1.6537 -0.1715,1.2231 -0.948,2.3338 -2.4716,2.7022 -1.697,0.4125 -3.4466,0.6452 -5.1951,0.622 0.1885,2.3312 -1.596,4.868 -3.9087,4.9158l2.1209 3.609 -3.7088 0.8374c1.2663,1.0485 1.5091,3.0879 0.9561,4.5759 -0.2717,0.7318 -0.7369,1.3318 -1.3056,1.8249 16.1857,8.6457 27.2025,25.7032 27.2025,45.3308 0,3.2007 -0.2921,6.3321 -0.8533,9.3706 0.3724,0.2313 0.7397,0.4652 1.0977,0.7015 4.1971,2.754 7.9621,6.1051 11.333,9.8164l0 0.003c1.3434,1.4875 2.7294,2.9996 4.1866,4.5522 1.421,1.5152 2.8638,3.0163 4.3353,4.4976 2.5664,2.5825 5.1629,5.1128 7.8754,7.5442 -8.6952,2.2657 -16.303,5.9905 -23.6638,10.4265l20.0344 20.3183 -7.4565 4.9017 -20.1145 -20.4249c-1.3539,0.8986 -2.7096,1.8122 -4.0723,2.7375 -4.9011,3.3269 -9.8326,6.6754 -15.0746,9.6973 -8.3825,4.8324 -16.602,8.171 -24.2694,9.4685 -6.7329,1.1388 -13.5961,0.7556 -19.8509,-2.1834 -5.8512,-6.3345 -11.7933,-12.3306 -19.2359,-16.8303 -5.9775,-1.1328 -11.1378,-7.2001 -14.065,-12.0179l-0.0274 -0.0516c-0.9852,-1.9677 -2.3006,-3.9965 -3.9368,-6.0799 -3.872,-4.9285 -8.4924,-9.476 -13.7736,-12.8792 -3.4406,-2.2173 -5.2371,-3.9143 -6.6251,-7.8432 -1.0096,-2.8566 -2.3286,-5.5916 -3.3696,-8.4431 -0.7622,-2.0869 -1.4305,-4.136 -1.9086,-5.928 -1.6071,-6.0194 -0.8653,-12.165 0.4069,-18.1935 0.5061,-2.3985 1.0219,-4.842 1.2936,-7.4668 0.2812,-2.7213 0.0882,-5.4869 -0.7366,-8.1043 -4.2849,-13.8822 -0.8717,-29.6294 2.5491,-43.5858 -5.0827,0.9672 -7.6632,-5.5921 -4.2208,-9.2744l2.6208 -2.8032c4.831,-5.1667 11.9969,0.8133 8.4991,6.2412l37.4957 40.2679c1.9085,-1.3874 3.9151,-2.6481 6.0097,-3.7663 -0.5686,-0.4935 -1.0338,-1.0934 -1.3058,-1.8249 -0.5529,-1.4878 -0.3099,-3.5273 0.9557,-4.5763l-3.7082 -0.8369 2.121 -3.6085c-2.3133,-0.0478 -4.0972,-2.5846 -3.9088,-4.9158 -1.7484,0.0233 -3.4982,-0.2108 -5.1952,-0.6232 -1.5238,-0.3672 -2.3001,-1.4779 -2.4727,-2.701 -0.0899,-0.6414 -0.0404,-1.2051 0.1476,-1.655 -1.2697,-0.6542 -2.1385,-1.9783 -2.1385,-3.5053 0,-1.1611 0.5026,-2.2058 1.3021,-2.9259 -0.5207,-0.6685 -0.8319,-1.5089 -0.8319,-2.4204 0,-1.337 0.6661,-2.5187 1.6839,-3.2311 -0.2561,-0.5224 -0.4004,-1.1107 -0.4004,-1.7313 0,-1.7727 1.1706,-3.2725 2.7808,-3.7678 -0.1111,-0.3645 -0.1718,-0.7511 -0.1718,-1.152 0,-2.176 1.7653,-3.9409 3.941,-3.9409 0.342,0 0.6739,0.0426 0.9905,0.1254 0.1571,-2.0325 1.856,-3.6346 3.929,-3.6346 1.1443,0 2.1752,0.4888 2.8949,1.2684 -0.143,-0.4073 -0.2202,-0.8456 -0.2202,-1.3008 0,-2.1773 1.7646,-3.9409 3.941,-3.9409 1.9783,0 3.6167,1.4584 3.898,3.3592 0.7223,-0.9064 1.835,-1.4869 3.083,-1.4869 0.7687,0 1.4848,0.2197 2.091,0.5999 -0.0061,-0.088 -0.0092,-0.1772 -0.0092,-0.2677 0,-2.176 1.7653,-3.9409 3.941,-3.9409 0.9753,0 1.8678,0.3544 2.5554,0.9413 0.5733,-1.0447 1.5199,-1.8567 2.6599,-2.255l0 -2.3312 -3.5623 0 0 -3.2053 0.0024 0zm-39.5525 79.5406l0 0c2.196,-3.875 4.8821,-7.4361 7.9725,-10.5998l-36.0243 -38.6286c1.8073,7.0157 4.3284,13.4856 7.7716,20.0512 5.5087,10.5049 12.63,20.1345 20.2802,29.1772z"/>
   <path class="fil1" d="M18.3631 124.6595c-6.1369,-6.9266 -4.3955,-18.0384 -2.9794,-27.0685 0.2087,-1.3319 0.4107,-2.6183 0.5799,-3.8461 0.339,-4.0656 0.3895,-8.3808 0.0091,-12.5922 -0.3357,-3.712 -1.0066,-7.3445 -2.1092,-10.6548l-0.005 -0.0212c-0.3056,-2.1637 -0.4217,-4.4729 -0.391,-6.7897 0.0349,-2.5465 0.2475,-5.1001 0.5829,-7.4774l0.0338 -0.2383 -0.0999 -0.1894c-2.8991,-5.5295 -5.9488,-11.6737 -7.5362,-17.7546 -2.7627,12.3957 -5.3941,26.1761 -1.7228,38.6193 0.8885,2.8207 1.1001,5.79 0.7965,8.7235 -0.2808,2.7091 -0.8046,5.1894 -1.3181,7.6247 -0.9556,4.528 -1.6173,8.3841 -0.9729,12.2853 0.8865,5.3659 4.3158,10.1982 8.167,13.8888 2.1683,2.1202 4.4956,3.9632 6.9652,5.4906z"/>
   <path class="fil2" d="M105.0328 53.0581c-0.0338,-0.013 -0.0669,-0.0284 -0.1001,-0.0427 -3.7294,-1.6886 -7.6754,-2.9622 -11.7751,-3.8129 -8.3108,-1.7262 -17.2978,-1.7262 -25.6085,0 -4.0996,0.8507 -8.0452,2.1243 -11.7752,3.8129 -0.0333,0.0143 -0.066,0.0297 -0.0995,0.0427l3.9183 0.4849 0.2971 0.0374 -0.1879 0.2315 -2.7025 3.3421c3.5374,-1.5809 7.2567,-2.8133 11.1138,-3.6524 8.0326,-1.7481 16.4504,-1.7429 24.4824,0.0052 3.8042,0.8275 7.5316,2.0478 11.1135,3.6479l-2.7031 -3.3427 -0.1873 -0.2315 0.2965 -0.0374 3.9178 -0.4849z"/>
   <path class="fil3" d="M27.357 128.6081c-1.2222,-2.034 -2.2071,-4.3149 -3.0152,-6.6588 -0.8603,-2.495 -1.5219,-5.0663 -2.0562,-7.4896 -1.1647,-5.094 -0.7207,-10.2291 -0.2738,-15.3984 0.2656,-3.0754 0.5323,-6.1633 0.4616,-9.2512 -0.1363,-1.3141 -0.3056,-2.643 -0.4762,-3.9829 -0.705,-5.5386 -1.435,-11.2777 0.0429,-16.547 -2.805,-4.1925 -5.4128,-8.5108 -7.7648,-12.9458 -0.2996,2.2516 -0.5329,4.984 -0.5652,7.3558 -0.0308,2.2996 0.0844,4.593 0.3879,6.7431 1.1066,3.3259 1.7793,6.9725 2.1167,10.6974 0.3819,4.2294 0.3319,8.5588 -0.008,12.6339l-0.0011 0.0066c-0.1682,1.2208 -0.3712,2.5162 -0.5812,3.8572 -1.4517,9.2548 -3.2467,20.7097 3.5095,27.4948 2.0739,1.2131 4.2446,2.2066 6.5023,2.9582 0.5681,0.1914 1.1419,0.3666 1.7208,0.5268z"/>
   <path class="fil1" d="M33.0865 129.6388c-2.6355,-6.1795 -4.0941,-12.98 -4.0941,-20.1212 0,-8.4856 2.0611,-16.4908 5.7072,-23.5434 -4.4273,-5.223 -8.6377,-10.7075 -12.4807,-16.4278 -1.3908,5.1679 -0.6731,10.8059 0.0198,16.2499 0.1716,1.3481 0.3419,2.6845 0.4778,3.9916l0 0.0101c0.0721,3.1101 -0.1949,6.2036 -0.4616,9.2839 -0.445,5.1507 -0.8869,10.2676 0.2687,15.3227l0 0.001c0.5317,2.4122 1.1908,4.9734 2.0495,7.464 0.8329,2.4156 1.8521,4.7606 3.1243,6.8305 1.7507,0.4631 3.5481,0.7793 5.3892,0.9387z"/>
   <path class="fil1" d="M72.3421 174.4559c-0.4966,2.2439 -1.2167,4.4793 -2.1537,6.689 4.5122,1.2419 9.432,1.3324 14.6279,0.4531 7.4817,-1.2656 15.5283,-4.5386 23.7532,-9.2801 5.1917,-2.993 10.1,-6.3249 14.9773,-9.6361 10.293,-6.9876 20.3783,-13.8586 32.9123,-17.4166 -1.4443,-1.3349 -2.8369,-2.7536 -4.2216,-4.1659 -16.065,0.3314 -28.7635,9.2594 -41.3826,18.1328 -1.2863,0.9042 -2.5718,1.8082 -3.8754,2.7128l-0.0055 0.0045c-5.3033,3.1951 -10.7306,6.3199 -16.4566,8.6473 -5.7076,2.3196 -11.7097,3.8465 -18.1755,3.8592z"/>
   <path class="fil3" d="M73.1587 166.944c0.0121,2.4182 -0.2455,4.847 -0.7632,7.2674 6.4108,-0.0208 12.3655,-1.538 18.0308,-3.8406 5.7097,-2.3207 11.127,-5.4405 16.4212,-8.63 1.2802,-0.8889 2.5737,-1.7985 3.8678,-2.7082 12.5891,-8.8522 25.2582,-17.7585 41.2897,-18.1707 -0.4307,-0.4383 -0.8599,-0.8762 -1.2917,-1.3102 -1.3783,-1.3873 -2.7192,-2.7788 -4.0328,-4.1733 -4.5552,0.3384 -8.7713,1.3602 -12.8106,2.8198 -4.113,1.4869 -8.043,3.4273 -11.9619,5.5632 -7.6622,4.8512 -15.4448,9.7179 -23.5456,13.8424 -8.023,4.0848 -16.3595,7.4431 -25.2037,9.3401z"/>
   <path class="fil1" d="M71.1481 155.9244c1.1082,2.9849 1.7515,6.0446 1.947,9.1342 0.0342,0.5451 0.0546,1.0909 0.0617,1.6369 8.8005,-1.8935 17.1028,-5.2394 25.095,-9.3088 8.0956,-4.1224 15.8721,-8.9851 23.5278,-13.8326l0.0066 -0.0037c3.9305,-2.1424 7.8737,-4.0889 11.9996,-5.5809 4.0016,-1.4465 8.1768,-2.4646 12.6801,-2.8193l-0.1177 -0.1262c-1.3849,-1.4747 -2.7891,-3.0082 -4.2034,-4.5754l-0.0014 0.0015c-0.7124,-0.7839 -1.443,-1.5505 -2.1915,-2.2995 -17.7379,0.6531 -32.609,9.7447 -47.0886,18.598l-0.3288 0.201 -0.0078 0.004 -0.2674 0.1379c-6.8245,3.5096 -13.5973,6.992 -21.1112,8.833z"/>
   <path class="fil3" d="M68.6253 150.6036c0.9708,1.6662 1.7819,3.3662 2.4369,5.0915 7.4961,-1.8319 14.2655,-5.3128 21.0859,-8.8199l0.2639 -0.1359 0.3248 -0.1985c14.4444,-8.8321 29.2787,-17.8999 46.981,-18.6233 -1.3499,-1.3353 -2.7579,-2.6101 -4.228,-3.8097 -4.6495,-0.8101 -9.2969,-0.6581 -13.7661,0.1627 -5.165,0.948 -10.0944,2.7885 -14.5172,5.0684l-0.0062 0.0025c-5.6345,2.5086 -10.9061,5.9895 -16.1836,9.4745 -7.1406,4.7163 -14.2933,9.4391 -22.3915,11.7877z"/>
   <path class="fil1" d="M60.2873 140.9305c2.8671,2.2593 5.435,5.0654 7.5794,8.4296 0.2171,0.3405 0.4272,0.6829 0.6308,1.0262 8.0876,-2.3318 15.2423,-7.0562 22.3848,-11.7729 5.2835,-3.4897 10.561,-6.9746 16.2127,-9.4908l0.0005 -0.0005c4.4415,-2.2894 9.3936,-4.1383 14.5837,-5.091 4.3607,-0.8005 8.8896,-0.9687 13.4241,-0.2353 -1.2853,-1.0298 -2.617,-2.0015 -3.9952,-2.9071 -1.1728,-0.7694 -2.3408,-1.4652 -3.494,-2.1517 -1.2489,-0.7444 -2.4812,-1.4784 -3.6476,-2.2577 -0.6605,-0.4409 -1.3054,-0.8873 -1.9393,-1.3419 -17.6749,-1.6187 -31.6652,7.7421 -45.2608,16.8409 -1.8829,1.2601 -3.7587,2.5157 -5.6344,3.7355l-0.0072 0.0045c-3.49,1.9607 -7.0427,3.8991 -10.8376,5.2122z"/>
   <path class="fil3" d="M53.7309 136.9239c0.4925,0.2257 0.9807,0.4642 1.4631,0.7156 1.6937,0.8815 3.3213,1.9189 4.8642,3.1118 3.8381,-1.3077 7.424,-3.2663 10.9474,-5.2456 1.8738,-1.2186 3.7462,-2.4718 5.6259,-3.7294 13.5271,-9.0528 27.4431,-18.3651 45.0114,-16.9171 -0.9349,-0.6809 -1.8466,-1.3815 -2.7466,-2.1098 -0.8658,-0.7 -1.7283,-1.4318 -2.5985,-2.2036 -3.7386,-0.0918 -7.6023,0.1833 -11.3822,0.7475 -4.1452,0.6192 -8.1892,1.5874 -11.8571,2.8l-0.0075 0.0021c-6.9317,1.8137 -12.911,6.0174 -18.8984,10.2265 -3.2523,2.2865 -6.5073,4.5744 -9.9205,6.4851 -3.3865,2.2304 -7.141,3.8471 -10.5013,6.1168z"/>
   <path class="fil1" d="M10.3226 120.2857c-2.2218,-2.1289 -4.2223,-4.6007 -5.7826,-7.2315 0.3325,1.0423 0.7056,2.1257 1.1042,3.2173 1.0424,2.8556 2.3642,5.5946 3.3754,8.4552 1.2702,3.5962 2.8435,5.0198 6,7.0538 2.8021,1.8056 5.3119,3.8768 7.7246,6.1834 2.4565,-1.2222 4.9516,-2.1536 7.5154,-2.8607 2.6046,-0.7186 5.2401,-1.1454 7.8618,-1.2344 5.3036,-0.1807 10.5537,0.788 15.3494,2.937 3.3924,-2.3183 7.2046,-3.9456 10.635,-6.2068l0.0071 -0.005c3.4043,-1.9056 6.6532,-4.1895 9.8993,-6.4719 6.0027,-4.2193 11.9984,-8.434 18.9697,-10.2604 3.6806,-1.2167 7.7381,-2.1874 11.8978,-2.8092 3.6947,-0.5519 7.4714,-0.8283 11.1374,-0.7565 -0.6745,-0.6024 -1.3533,-1.2298 -2.042,-1.8835 -1.182,-1.1216 -2.3289,-2.2792 -3.4315,-3.4813 -1.0307,-1.1233 -2.0229,-2.2824 -2.9692,-3.484 -7.866,-0.0803 -15.562,2.0072 -22.6017,5.4391 -5.602,2.7314 -10.8476,6.1446 -15.7084,10.0391 -5.1451,4.1219 -9.9538,7.8256 -16.0883,10.5019 -3.6072,1.5733 -7.426,2.7485 -11.5059,3.4103 -5.8664,0.9514 -11.3953,0.4419 -16.5257,-1.2874 -5.5519,-1.7587 -10.5544,-4.9229 -14.8217,-9.2644z"/>
   <path class="fil3" d="M66.1581 179.6736c0.8294,0.3833 1.6753,0.7207 2.5379,1.0137 2.1949,-5.1199 3.1773,-10.3726 2.8507,-15.5313 -0.3264,-5.1491 -1.9562,-10.213 -4.9861,-14.9641 -3.1925,-5.0071 -7.37,-8.7204 -12.0832,-11.1739 -5.0102,-2.6081 -10.6262,-3.7941 -16.3081,-3.6007 -2.4925,0.0848 -5.0056,0.4929 -7.4976,1.1803 -2.2854,0.6304 -4.5183,1.443 -6.7391,2.5136 2.0212,1.9869 3.7465,3.9905 5.2426,5.8951 1.6818,2.1405 3.0453,4.2461 4.0824,6.3099 2.7711,4.3899 7.685,10.0881 13.2755,11.3129 7.5669,4.5011 13.8596,10.5608 19.6249,17.0444z"/>
   <polygon class="fil2" points="133.9785,157.6008 152.4147,176.365 148.9212,178.6614 130.4886,159.9443 "/>
   <path class="fil2" d="M9.5918 27.7703l38.7344 41.5993c-1.0532,0.8409 -2.0714,1.7238 -3.0546,2.6435l-38.5577 -41.3453c-1.1318,0.7576 -2.4956,0.918 -3.5621,-0.1474 -1.3593,-1.3602 -1.1906,-3.2842 0.1225,-4.6884l2.6204 -2.8031c1.3126,-1.4042 3.2926,-1.7791 4.6522,-0.4202 1.3597,1.3602 0.9016,3.1755 -0.4115,4.5797l-0.5436 0.5819z"/>
   <path class="fil2" d="M102.1483 63.0027c0.6314,-0.3338 1.2481,-0.7975 1.4914,-1.4515 0.1889,-0.5097 0.2532,-1.7601 -0.3736,-2.0476 -3.5728,-1.6395 -7.3189,-2.884 -11.1624,-3.7202 -7.7229,-1.6806 -15.7751,-1.6858 -23.4985,-0.0052 -3.8993,0.8486 -7.6366,2.1063 -11.1645,3.7254 -0.6264,0.2875 -0.5628,1.5379 -0.3733,2.0476 0.243,0.6539 0.8597,1.1173 1.4915,1.4515 6.6169,-3.1066 14.0025,-4.846 21.7945,-4.846 7.7926,0 15.1782,1.739 21.7949,4.846z"/>
   <path class="fil0" d="M72.5992 49.9783c0.3343,0.6128 0.0155,1.2981 -0.4946,1.6835 -0.3327,0.2521 -0.7288,0.3736 -1.1445,0.4654l-4.9581 1.0964c-0.5081,0.1125 -1.0425,0.1604 -1.5626,-0.0775 -0.8436,-0.3853 -1.0476,-1.2865 -0.4441,-1.9938 0.3601,-0.4214 0.8556,-0.6219 1.3789,-0.7227l5.0182 -1.1107c0.7638,-0.1681 1.7804,-0.1215 2.2068,0.6594z"/>
   <path class="fil4" d="M70.4056 49.4856l-5.0061 1.1029c-0.4737,0.1048 -0.9365,0.2638 -1.2818,0.6685 -0.5326,0.6245 -0.3561,1.4016 0.3888,1.7429 0.4682,0.2134 0.9868,0.1822 1.4592,0.0775l4.9668 -1.099c0.3662,-0.0776 0.7292,-0.1953 1.0327,-0.4137 0.4597,-0.3297 0.7899,-0.9271 0.5045,-1.4856 -0.3834,-0.7474 -1.3645,-0.7474 -2.0642,-0.5936z"/>
   <path class="fil1" d="M45.0979 138.3093c0.0423,-0.0414 0.0827,-0.0792 0.1251,-0.1192 1.1133,1.0616 2.2472,2.1309 3.3965,3.2233 1.1748,1.1121 2.3692,2.246 3.5862,3.398 -0.0577,0.0687 -0.1147,0.1384 -0.1728,0.2077 -1.9077,-1.6254 -3.6253,-2.7522 -4.9768,-3.3547 -1.3512,-0.598 -2.3633,-0.6919 -2.84,-0.2207 -0.7428,0.7228 0.1317,2.5101 1.5828,3.9869 0.488,0.4986 0.9153,0.8611 1.3794,1.195 0.6024,0.3976 1.2647,0.7116 1.9986,0.9591 0.5661,0.2188 1.5515,0.3738 3.0227,0.603 1.0561,0.1622 2.027,0.3844 2.8996,0.6501 0.8738,0.2692 1.6678,0.5994 2.3698,0.9854 1.3905,0.8258 2.9372,1.9847 4.6117,3.5914 2.1222,2.0314 3.9254,4.3012 5.1005,6.3734 1.2223,2.1506 1.7809,4.0951 1.2997,5.3017 -0.3122,0.7854 -0.8279,1.1536 -2.3162,1.1157 -0.4146,0.0758 -0.644,0.1733 -0.7198,0.348 -0.1535,0.3491 0.2057,1.3183 1.3283,2.8264 -0.0505,0.1257 -0.1006,0.2491 -0.1501,0.3753 -1.8767,-1.9506 -3.7152,-3.8673 -5.4992,-5.7239 -1.7399,-1.8148 -3.4403,-3.5901 -5.0984,-5.3083 0.0585,-0.1046 0.1195,-0.2005 0.1822,-0.3071 2.9775,2.6798 5.4986,4.4547 7.3754,5.3375 1.8824,0.8848 3.0715,0.8465 3.4427,-0.0288 0.5413,-1.2838 -1.0981,-4.0592 -3.1584,-6.0709 -1.3036,-1.2723 -2.5016,-2.0293 -3.8227,-2.5491 -0.7309,-0.3 -1.5703,-0.4171 -2.749,-0.5813 -1.6997,-0.2364 -2.9976,-0.5343 -4.1441,-0.9642 -1.1471,-0.4354 -2.1299,-0.9894 -3.2093,-1.7188 -0.9879,-0.7116 -2.1383,-1.6793 -3.1733,-2.759 -1.7683,-1.8379 -3.0858,-3.7487 -3.7658,-5.3371 -0.658,-1.542 -0.7283,-2.7916 -0.0449,-3.4309 0.2338,-0.2201 0.5585,-0.3465 0.9379,-0.354 0.6283,-0.0703 2.0819,0.2949 2.2686,0.1086 0.1864,-0.1809 0.0971,-0.4517 -1.0671,-1.7587z"/>
   <path class="fil2" d="M80.3537 17.1149c1.2602,0 2.2884,-1.0278 2.2884,-2.2885 0,-1.262 -1.0277,-2.2899 -2.2884,-2.2899 -1.2606,0 -2.2887,1.0279 -2.2887,2.2899 0,1.2607 1.0281,2.2885 2.2887,2.2885z"/>
   <path class="fil4" d="M48.1565 41.7059c0.3844,-0.2354 0.8374,-0.3659 1.2807,-0.3763 0.5835,-0.013 1.179,0.1771 1.6396,0.6025 0.0913,0.0853 0.1682,0.1655 0.2268,0.2379 0.0292,0.0362 0.0561,0.075 0.0808,0.1138 0.0969,0.1332 0.1732,0.2586 0.2327,0.3788 0.995,-0.1473 1.9305,-0.4615 2.7961,-0.9167 0.9025,-0.4758 1.7288,-1.1029 2.4637,-1.8554 -0.5214,-0.4279 -0.9168,-1.0176 -1.1016,-1.7183 -0.1945,-0.7396 -0.1231,-1.4882 0.1545,-2.1425 0.2701,-0.6374 0.74,-1.1856 1.3537,-1.5515 0.0561,-0.8456 0.41,-1.549 0.9318,-2.0701 0.4298,-0.4305 0.9676,-0.7305 1.5393,-0.8805 0.0263,-0.0078 0.0528,-0.0143 0.0783,-0.0207 -0.3399,-0.5418 -0.5373,-1.1844 -0.5373,-1.871 0,-1.5412 0.9893,-2.8509 2.3682,-3.3294 -0.2976,-0.5533 -0.4658,-1.1869 -0.4658,-1.8605 0,-1.7455 1.1369,-3.2272 2.7113,-3.7445 -0.1418,-0.3193 -0.2431,-0.6607 -0.2961,-1.0189 -0.7221,0.9064 -1.8343,1.487 -3.0822,1.487 -1.145,0 -2.1758,-0.4888 -2.8961,-1.2684 0.1424,0.4072 0.2208,0.8456 0.2208,1.302 0,2.1761 -1.7648,3.941 -3.9412,3.941 -0.3418,0 -0.6741,-0.044 -0.9904,-0.1254 -0.1267,1.6369 -1.253,2.9919 -2.7691,3.4587 0.1112,0.3646 0.1715,0.7525 0.1715,1.1534 0,1.3356 -0.6661,2.5173 -1.6844,3.2297 0.2563,0.5224 0.4013,1.1107 0.4013,1.7327 0,1.1611 -0.5032,2.2045 -1.3028,2.9259 0.5208,0.6685 0.832,1.5089 0.832,2.4204 0.0009,0.6349 -0.1495,1.2348 -0.4162,1.7663z"/>
   <path class="fil4" d="M75.7508 32.0487c-0.9865,-0.5431 -1.6547,-1.593 -1.6547,-2.798 0,-1.293 0.7688,-2.4075 1.8738,-2.9092 -1.105,-0.5029 -1.8738,-1.6161 -1.8738,-2.9091 0,-1.7287 1.3739,-3.1367 3.0896,-3.1923 0.0625,-0.4953 0.2384,-0.9543 0.5011,-1.3525 -0.3985,-0.2625 -0.7567,-0.5819 -1.0617,-0.9477 -0.7222,0.9102 -1.838,1.4946 -3.0896,1.4946 -0.7677,0 -1.4848,-0.221 -2.091,-0.6011 0.0061,0.0879 0.0093,0.1784 0.0093,0.2689 0,1.7467 -1.1369,3.2285 -2.7113,3.7444 0.2172,0.4888 0.3385,1.0305 0.3385,1.5994 0,1.8554 -1.2823,3.4122 -3.0091,3.8311 0.1751,0.4176 0.2721,0.8766 0.2721,1.3589 0,1.5309 -0.9774,2.8329 -2.3409,3.3203 0.4737,0.1048 0.9167,0.3129 1.2964,0.6038 0.5656,0.4332 0.9964,1.0499 1.1914,1.7907 0.2112,0.8016 0.1098,1.6136 -0.2296,2.3041 1.902,0.728 3.9773,1.0072 5.955,0.7525 1.4729,-0.1901 2.8906,-0.6801 4.135,-1.5076 -0.8399,-0.6037 -1.3874,-1.5891 -1.3874,-2.7035 0,-0.8172 0.2964,-1.5671 0.787,-2.1476z"/>
   <path class="fil4" d="M83.5226 20.2401c1.7151,0.0556 3.0884,1.4636 3.0884,3.1923 0,1.293 -0.7687,2.4062 -1.8738,2.9091 1.1051,0.5017 1.8738,1.6162 1.8738,2.9092 0,1.2051 -0.6683,2.255 -1.6541,2.798 0.4904,0.5805 0.7859,1.3291 0.7859,2.1476 0,1.1145 -0.5469,2.0998 -1.3868,2.7035 1.2444,0.8276 2.6616,1.3175 4.1339,1.5076 1.9783,0.2547 4.0537,-0.0245 5.9557,-0.7525 -0.3395,-0.6905 -0.4415,-1.5025 -0.2297,-2.3041 0.1943,-0.7408 0.6258,-1.3576 1.1914,-1.7907 0.3797,-0.2909 0.8227,-0.4991 1.2964,-0.6038 -1.364,-0.4861 -2.341,-1.7895 -2.341,-3.3203 0,-0.4823 0.097,-0.9412 0.2718,-1.3589 -1.7264,-0.4189 -3.0092,-1.9757 -3.0092,-3.8311 0,-0.5689 0.1211,-1.1107 0.3389,-1.5994 -1.5743,-0.5158 -2.7116,-1.9976 -2.7116,-3.7444 0,-0.0905 0.0034,-0.181 0.0096,-0.2689 -0.6065,0.3801 -1.3232,0.6011 -2.0915,0.6011 -1.2516,0 -2.3657,-0.5844 -3.0879,-1.4934 -0.3057,0.3646 -0.6632,0.6841 -1.0611,0.9465 0.2625,0.3982 0.4388,0.8572 0.501,1.3525z"/>
   <path class="fil4" d="M112.5502 41.7059c-0.3839,-0.2354 -0.8374,-0.3659 -1.2808,-0.3763 -0.5829,-0.013 -1.1789,0.1771 -1.6395,0.6025 -0.0913,0.0853 -0.1677,0.1655 -0.2268,0.2379 -0.0292,0.0362 -0.0561,0.075 -0.0808,0.1138 -0.0968,0.1332 -0.1732,0.2586 -0.2323,0.3788 -0.9954,-0.1473 -1.9309,-0.4615 -2.796,-0.9167 -0.9036,-0.4758 -1.7293,-1.1029 -2.4642,-1.8554 0.5213,-0.4279 0.9173,-1.0176 1.1016,-1.7183 0.1946,-0.7396 0.1238,-1.4882 -0.1547,-2.1425 -0.2699,-0.6374 -0.7393,-1.1856 -1.3535,-1.5515 -0.0556,-0.8456 -0.41,-1.549 -0.9318,-2.0701 -0.4293,-0.4305 -0.9677,-0.7305 -1.5395,-0.8805 -0.0262,-0.0078 -0.052,-0.0143 -0.0781,-0.0207 0.3404,-0.5418 0.5373,-1.1844 0.5373,-1.871 0,-1.5412 -0.9893,-2.8509 -2.3682,-3.3294 0.2975,-0.5533 0.4657,-1.1869 0.4657,-1.8605 0,-1.7455 -1.1369,-3.2272 -2.7112,-3.7445 0.1424,-0.3193 0.2429,-0.6607 0.2961,-1.0189 0.7223,0.9064 1.8342,1.487 3.0827,1.487 1.1445,0 2.1754,-0.4888 2.8956,-1.2684 -0.1424,0.4072 -0.2208,0.8456 -0.2208,1.302 0,2.1761 1.7652,3.941 3.9411,3.941 0.3419,0 0.6743,-0.044 0.9904,-0.1254 0.1268,1.6369 1.2536,2.9919 2.7692,3.4587 -0.1117,0.3646 -0.1716,0.7525 -0.1716,1.1534 0,1.3356 0.6662,2.5173 1.6839,3.2297 -0.2561,0.5224 -0.4007,1.1107 -0.4007,1.7327 0,1.1611 0.5031,2.2045 1.3022,2.9259 -0.5208,0.6685 -0.8318,1.5089 -0.8318,2.4204 0,0.6349 0.1499,1.2348 0.4166,1.7663z"/>
   <path class="fil2" d="M80.3537 21.727c0.5966,0 1.083,-0.4875 1.083,-1.0835 0,-0.5961 -0.4865,-1.0822 -1.083,-1.0822 -0.5964,0 -1.0821,0.4862 -1.0821,1.0822 0,0.5961 0.4858,1.0835 1.0821,1.0835z"/>
   <path class="fil2" d="M80.3537 26.7527c0.5966,0 1.083,-0.4875 1.083,-1.0822 0,-0.5973 -0.4865,-1.0835 -1.083,-1.0835 -0.5964,0 -1.0821,0.4862 -1.0821,1.0835 0,0.5948 0.4858,1.0822 1.0821,1.0822z"/>
   <path class="fil2" d="M77.2902 27.7509c0.8278,0 1.4991,0.6711 1.4991,1.4986 0,0.0156 -0.0005,0.031 -0.001,0.0466 -0.6082,0.3245 -1.1037,0.8327 -1.4126,1.4507 -0.0283,0.0013 -0.0567,0.0026 -0.0854,0.0026 -0.8284,0 -1.4996,-0.6724 -1.4996,-1.4999 0,-0.8275 0.6717,-1.4986 1.4996,-1.4986z"/>
   <path class="fil2" d="M77.2902 21.9325c0.0484,0 0.0961,0.0026 0.1434,0.0078 0.2131,0.4784 0.5414,0.896 0.9491,1.2167 -0.5587,0.4396 -0.9674,1.0603 -1.1369,1.774 -0.8076,-0.0234 -1.4552,-0.6853 -1.4552,-1.4986 0,-0.8288 0.6717,-1.4999 1.4996,-1.4999z"/>
   <path class="fil2" d="M73.5359 17.7808c1.2608,0 2.289,-1.0279 2.289,-2.2886 0,-1.2607 -1.0282,-2.2885 -2.289,-2.2885 -1.2607,0 -2.2889,1.0278 -2.2889,2.2885 0,1.2607 1.0282,2.2886 2.2889,2.2886z"/>
   <path class="fil2" d="M44.6327 42.2295c1.2607,0 2.2889,-1.0279 2.2889,-2.2899 0,-1.2593 -1.0277,-2.2885 -2.2889,-2.2885 -1.2608,0 -2.2885,1.0292 -2.2885,2.2885 0,1.262 1.0277,2.2899 2.2885,2.2899z"/>
   <path class="fil2" d="M45.1034 36.8818c1.2607,0 2.2884,-1.0279 2.2884,-2.2885 0,-1.2607 -1.0277,-2.2886 -2.2884,-2.2886 -1.2607,0 -2.289,1.0279 -2.289,2.2886 0,1.2606 1.0283,2.2885 2.289,2.2885z"/>
   <path class="fil2" d="M46.3863 31.9194c1.2607,0 2.2888,-1.0279 2.2888,-2.2885 0,-1.2607 -1.0281,-2.2899 -2.2888,-2.2899 -1.2607,0 -2.2884,1.0292 -2.2884,2.2899 0,1.2606 1.0282,2.2885 2.2884,2.2885z"/>
   <path class="fil2" d="M48.9964 26.9996c1.2602,0 2.2886,-1.0278 2.2886,-2.2885 0,-1.2607 -1.0279,-2.2885 -2.2886,-2.2885 -1.2613,0 -2.289,1.0278 -2.289,2.2885 0,1.2607 1.0277,2.2885 2.289,2.2885z"/>
   <path class="fil2" d="M53.9157 23.4919c1.2601,0 2.289,-1.0279 2.289,-2.2886 0,-1.2607 -1.0283,-2.2885 -2.289,-2.2885 -1.2607,0 -2.289,1.0278 -2.289,2.2885 0,1.2607 1.0283,2.2886 2.289,2.2886z"/>
   <path class="fil2" d="M60.5322 19.5173c1.2602,0 2.2883,-1.0279 2.2883,-2.2886 0,-1.2607 -1.0277,-2.2885 -2.2883,-2.2885 -1.2612,0 -2.2889,1.0278 -2.2889,2.2885 0,1.2607 1.0277,2.2886 2.2889,2.2886z"/>
   <path class="fil2" d="M67.5125 21.3908c1.2613,0 2.289,-1.0279 2.289,-2.2885 0,-1.2607 -1.0277,-2.2886 -2.289,-2.2886 -1.2602,0 -2.2884,1.0279 -2.2884,2.2886 0,1.2593 1.0282,2.2885 2.2884,2.2885z"/>
   <path class="fil2" d="M65.1399 26.7346c1.2607,0 2.2888,-1.0278 2.2888,-2.2885 0,-1.2607 -1.0277,-2.2886 -2.2888,-2.2886 -1.2607,0 -2.2884,1.0279 -2.2884,2.2886 0,1.262 1.0282,2.2885 2.2884,2.2885z"/>
   <path class="fil2" d="M62.8205 31.507c1.0304,0 1.8713,-0.8404 1.8713,-1.871 0,-1.0304 -0.8408,-1.8722 -1.8713,-1.8722 -1.0306,0 -1.8717,0.8417 -1.8717,1.8722 0,1.0305 0.841,1.871 1.8717,1.871z"/>
   <path class="fil2" d="M116.0745 42.2295c1.2602,0 2.2885,-1.0279 2.2885,-2.2899 0,-1.2593 -1.0283,-2.2885 -2.2885,-2.2885 -1.2607,0 -2.289,1.0292 -2.289,2.2885 0.0006,1.262 1.0283,2.2899 2.289,2.2899z"/>
   <path class="fil2" d="M115.6039 36.8818c1.2607,0 2.2889,-1.0279 2.2889,-2.2885 0,-1.2607 -1.0282,-2.2886 -2.2889,-2.2886 -1.2608,0 -2.2891,1.0279 -2.2891,2.2886 0,1.2606 1.0283,2.2885 2.2891,2.2885z"/>
   <path class="fil2" d="M114.3204 31.9194c1.2607,0 2.2889,-1.0279 2.2889,-2.2885 0,-1.2607 -1.0282,-2.2899 -2.2889,-2.2899 -1.2607,0 -2.2888,1.0292 -2.2888,2.2899 0.0004,1.2606 1.0281,2.2885 2.2888,2.2885z"/>
   <path class="fil2" d="M111.7106 26.9996c1.2613,0 2.289,-1.0278 2.289,-2.2885 0,-1.2607 -1.0277,-2.2885 -2.289,-2.2885 -1.2601,0 -2.2884,1.0278 -2.2884,2.2885 0,1.2607 1.0283,2.2885 2.2884,2.2885z"/>
   <path class="fil2" d="M106.7914 23.4919c1.2607,0 2.289,-1.0279 2.289,-2.2886 0,-1.2607 -1.0283,-2.2885 -2.289,-2.2885 -1.2607,0 -2.289,1.0278 -2.289,2.2885 0,1.2607 1.0283,2.2886 2.289,2.2886z"/>
   <path class="fil2" d="M100.1754 19.5173c1.2604,0 2.2886,-1.0279 2.2886,-2.2886 0,-1.2607 -1.0282,-2.2885 -2.2886,-2.2885 -1.2606,0 -2.2889,1.0278 -2.2889,2.2885 0,1.2607 1.0283,2.2886 2.2889,2.2886z"/>
   <path class="fil2" d="M87.1711 17.7808c1.2607,0 2.2888,-1.0279 2.2888,-2.2886 0,-1.2607 -1.0281,-2.2885 -2.2888,-2.2885 -1.2607,0 -2.2889,1.0278 -2.2889,2.2885 0,1.2607 1.0282,2.2886 2.2889,2.2886z"/>
   <path class="fil2" d="M93.1946 21.3908c1.2601,0 2.2884,-1.0279 2.2884,-2.2885 0,-1.2607 -1.0279,-2.2886 -2.2884,-2.2886 -1.2613,0 -2.289,1.0279 -2.289,2.2886 0,1.2593 1.0277,2.2885 2.289,2.2885z"/>
   <path class="fil2" d="M95.5673 26.7346c1.2602,0 2.2885,-1.0278 2.2885,-2.2885 0,-1.2607 -1.0278,-2.2886 -2.2885,-2.2886 -1.261,0 -2.2888,1.0279 -2.2888,2.2886 0,1.262 1.0278,2.2885 2.2888,2.2885z"/>
   <path class="fil2" d="M97.8865 31.507c1.0308,0 1.8719,-0.8404 1.8719,-1.871 0,-1.0304 -0.841,-1.8722 -1.8719,-1.8722 -1.0302,0 -1.8711,0.8417 -1.8711,1.8722 0,1.0305 0.8408,1.871 1.8711,1.871z"/>
   <path class="fil2" d="M83.4169 27.7509c-0.8278,0 -1.4996,0.6711 -1.4996,1.4986 0,0.0156 0.0005,0.031 0.0011,0.0466 0.6081,0.3245 1.1036,0.8327 1.4127,1.4507 0.0283,0.0013 0.0566,0.0026 0.0852,0.0026 0.8279,0 1.4991,-0.6724 1.4991,-1.4999 0,-0.8275 -0.6707,-1.4986 -1.4986,-1.4986z"/>
   <path class="fil2" d="M83.4169 21.9325c-0.0484,0 -0.0964,0.0026 -0.1438,0.0078 -0.2133,0.4784 -0.5416,0.896 -0.9491,1.2167 0.5586,0.4396 0.9678,1.0603 1.1369,1.774 0.8076,-0.0234 1.4551,-0.6853 1.4551,-1.4986 0,-0.8288 -0.6712,-1.4999 -1.4991,-1.4999z"/>
   <path class="fil2" d="M66.4883 43.2406c-4.3526,0.8947 -8.5548,2.2213 -12.5483,3.9655 -2.342,1.0228 -0.9434,4.5112 0.8773,3.6863 3.8791,-1.7558 7.9861,-3.0798 12.2581,-3.9668 8.6212,-1.7907 17.9346,-1.7907 26.556,0 4.2714,0.8869 8.3792,2.211 12.2575,3.9668 1.8213,0.825 3.2198,-2.6635 0.8779,-3.6863 -3.9936,-1.7441 -8.1958,-3.0708 -12.5478,-3.9655 -9.02,-1.8541 -18.7107,-1.8541 -27.7306,0z"/>
   <polygon class="fil0" points="80.3533,48.3711 84.6141,50.074 80.3533,51.7767 76.0932,50.074 "/>
   <polygon class="fil1" points="84.1786,50.074 80.3533,48.5457 76.528,50.074 80.3533,51.6035 "/>
   <path class="fil0" d="M88.108 49.9783c-0.3344,0.6128 -0.0157,1.2981 0.4941,1.6835 0.3332,0.2521 0.7287,0.3736 1.1449,0.4654l4.9583 1.0964c0.5081,0.1125 1.0423,0.1604 1.5626,-0.0775 0.8434,-0.3853 1.0475,-1.2865 0.444,-1.9938 -0.3601,-0.4214 -0.8557,-0.6219 -1.3794,-0.7227l-5.0183 -1.1107c-0.7632,-0.1681 -1.78,-0.1215 -2.2062,0.6594z"/>
   <path class="fil4" d="M90.301 49.4856l5.0062 1.1029c0.4742,0.1048 0.9364,0.2638 1.2823,0.6685 0.5324,0.6245 0.3556,1.4016 -0.3888,1.7429 -0.4676,0.2134 -0.987,0.1822 -1.4591,0.0775l-4.9668 -1.099c-0.3662,-0.0776 -0.7295,-0.1953 -1.0328,-0.4137 -0.4596,-0.3297 -0.7899,-0.9271 -0.5047,-1.4856 0.3835,-0.7474 1.3648,-0.7474 2.0638,-0.5936z"/>
   <path class="fil1" d="M55.6305 167.6839c-1.0537,-0.9749 -2.1457,-1.9971 -3.2743,-3.0461 -1.1668,-1.0849 -2.3769,-2.2102 -3.6275,-3.3763 0.1147,-0.0303 0.2314,-0.0577 0.3461,-0.09 2.4611,2.0587 4.3543,3.4199 5.8036,4.2507 1.4349,0.8234 2.4965,1.1557 3.2153,1.0833 1.4641,-0.1449 0.5196,-1.7969 -0.9395,-3.292 -0.8944,-0.9116 -1.7782,-1.6343 -2.685,-2.1197 -0.6205,-0.3233 -1.6227,-0.789 -2.7999,-1.2006 -0.6901,-0.2601 -1.3702,-0.5166 -2.0494,-0.7728 -0.987,-0.3868 -1.8859,-0.7727 -2.7158,-1.1772 -0.8289,-0.4027 -1.6015,-0.8309 -2.3445,-1.3036 -1.3922,-0.8576 -2.9603,-2.1219 -4.6776,-3.7249 -1.9717,-1.8399 -3.9077,-3.9557 -5.2343,-5.8754 -1.4273,-2.0642 -2.1713,-3.9163 -1.459,-4.8699 0.3691,-0.5001 1.2276,-0.6172 2.0074,-0.6318 0.8011,-0.0178 1.5218,0.0869 1.5774,0.0181 0.2661,-0.314 -0.2945,-1.0762 -1.3621,-2.3762 0.1237,-0.1697 0.251,-0.3359 0.3762,-0.5075 1.9637,2.0817 3.8441,4.0734 5.6382,5.9673 1.708,1.8111 3.3541,3.5501 4.9228,5.2092 -0.1435,0.0924 -0.2837,0.1823 -0.4284,0.2707 -2.3661,-2.1218 -4.8279,-4.0172 -6.8653,-5.2452 -2.0625,-1.2458 -3.609,-1.755 -4.1389,-1.1302 -0.6916,0.8162 0.8504,3.1961 3.1159,5.3749 1.4045,1.3475 2.4985,2.2262 3.3257,2.6702 0.8243,0.443 2.3167,1.0546 4.3117,1.7734 0.8702,0.3105 1.7541,0.6247 2.6431,0.9464 1.0798,0.3373 2.1915,0.848 3.2602,1.5238 2.0672,1.2207 3.9325,2.7622 5.6875,4.635 1.5329,1.6375 2.7289,3.34 3.1087,4.6258 0.3557,1.1936 0.0066,2.0219 -1.4342,2.136 -0.6087,0.0448 -1.4735,-0.1247 -2.476,-0.4369 -0.1404,-0.0414 -0.2788,-0.0834 -0.4157,-0.1248 -0.2085,-0.0591 -0.4124,-0.1202 -0.496,-0.1096 -0.2929,0.0272 -0.0677,0.3248 0.4552,0.8954 -0.1228,0.0107 -0.2486,0.0213 -0.3712,0.0304z"/>
   <path class="fil5" d="M63.6696 119.3275c1.5405,-1.1531 3.0648,-2.3622 4.6233,-3.6106 4.9471,-3.9644 10.2973,-7.4478 15.9999,-10.2272 0.3329,-0.1626 0.6673,-0.3216 1.0027,-0.4777 -6.0255,-5.7285 -11.8191,-12.2948 -14.7228,-20.1439 -0.8414,-2.2743 -1.2156,-4.1951 -0.9197,-6.4397 -5.2824,0.9269 -12.4271,2.6622 -17.1742,6.2876 -5.3361,4.0755 -5.271,10.075 -3.029,16.1484 2.8634,7.7548 8.2735,13.1756 14.2197,18.4631z"/>
   <path class="fil5" d="M32.4524 99.0325c-0.7363,3.3788 -1.1281,6.886 -1.1281,10.485 0,7.218 1.5611,14.0711 4.3628,20.2426 1.8722,0.0117 3.7859,-0.1354 5.7399,-0.4526 3.9412,-0.6394 7.6352,-1.7768 11.1303,-3.3011 3.386,-1.4778 6.3526,-3.2753 9.1992,-5.2855 -5.9776,-5.3936 -10.9236,-10.6988 -14.0888,-18.5819 -1.7611,-4.386 -2.6734,-9.0598 -1.3662,-12.9569 -5.3951,2.3592 -9.8734,5.6805 -13.849,9.8503z"/>
   <path class="fil5" d="M82.5831 60.541c-0.7394,-0.0329 -1.4824,-0.0525 -2.2297,-0.0525 -21.886,0 -40.4243,14.3489 -46.7266,34.1487 4.3228,-3.9278 9.2771,-7.1182 14.8394,-9.086 5.1017,-6.025 14.1863,-8.281 21.703,-9.527 0.5571,-1.6849 1.5722,-3.7274 2.8805,-5.5713 1.6516,-2.3273 3.4521,-4.5112 5.5138,-6.5129 1.2397,-1.203 2.5722,-2.3389 4.0196,-3.3991z"/>
   <path class="fil5" d="M104.8888 67.0641c-1.9243,-1.1149 -3.9325,-2.1011 -6.0109,-2.9497 -3.0332,1.1334 -5.6626,2.8239 -8.0279,4.8613 -2.1662,1.8656 -4.1254,4.0349 -5.9764,6.339 3.2536,2.0293 6.4052,4.2163 9.4779,6.5234l1.637 -2.2956c-1.1591,-1.053 -2.2698,-1.8227 -3.4415,-2.5722 -0.5263,-0.4162 -0.6849,-1.3521 -0.2688,-1.8788 0.4157,-0.5264 1.3522,-0.6506 1.8785,-0.235 1.049,1.1566 2.1551,1.9435 3.2794,2.6567l2.1722 -3.0461c-0.789,-0.6778 -1.646,-1.2353 -2.5356,-1.7324 -0.5129,-0.3545 -0.6422,-1.0581 -0.2878,-1.5717 0.3547,-0.5131 1.0581,-0.6425 1.5719,-0.2879 0.7529,0.7228 1.5705,1.3587 2.4516,1.9097l1.6935 -2.3749c-0.4768,-0.408 -0.9863,-0.7202 -1.5379,-0.9192 -0.5158,-0.349 -0.6505,-1.0505 -0.3011,-1.5661 0.3495,-0.5157 1.051,-0.6505 1.5667,-0.3016 0.4262,0.4798 0.9101,0.8561 1.4146,1.1848l1.2445 -1.7438z"/>
   <path class="fil5" d="M112.4391 72.4474c-1.7501,-1.515 -3.6082,-2.9086 -5.5618,-4.1672l-1.4242 1.9969c0.4949,0.4652 1.0489,0.85 1.6202,1.2187 0.4521,0.4298 0.4703,1.1455 0.0399,1.5975 -0.4298,0.4521 -1.145,0.4703 -1.5976,0.04 -0.3461,-0.505 -0.7464,-0.9243 -1.191,-1.2738l-1.6712 2.3435c0.6651,0.5884 1.3573,1.1531 2.1193,1.6561 0.4691,0.4136 0.515,1.1289 0.102,1.5986 -0.4131,0.4697 -1.1293,0.5152 -1.5985,0.102 -0.5703,-0.7167 -1.1824,-1.2445 -1.8073,-1.696l-2.2271 3.1225c1.0025,0.9438 2.0749,1.7773 3.2525,2.6369 0.5031,0.4451 0.5157,1.5232 0.0709,2.0258 -0.4452,0.5031 -1.3854,0.3778 -1.8886,-0.0671 -0.8922,-1.0198 -1.7948,-1.8511 -2.8468,-2.6158l-1.6275 2.2814c2.8139,2.1763 5.5836,4.4617 8.3236,6.8219 2.0662,-2.2642 3.7885,-4.5662 5.1027,-7.2042 1.4515,-2.9118 2.4155,-6.2492 2.8107,-10.4176z"/>
   <path class="fil5" d="M120.5222 81.4057c-1.7688,-2.5217 -3.7694,-4.8693 -5.97,-7.0123 -0.509,3.6996 -1.4742,6.774 -2.8373,9.5094 -1.779,3.5689 -4.3007,6.5194 -7.0247,9.385 -3.6638,-3.1827 -7.3814,-6.2951 -11.2528,-9.2244 -3.8666,-2.9264 -7.8642,-5.6168 -12.0067,-8.1347 2.4165,-3.1055 4.9036,-6.1329 7.8986,-8.7118 1.9368,-1.6676 4.0424,-3.1238 6.383,-4.2703 -3.0199,-0.9959 -6.1689,-1.7056 -9.4155,-2.0986 -2.3042,1.4172 -4.3139,3.0138 -6.1118,4.7592 -1.9526,1.896 -3.6652,3.9739 -5.2405,6.1936 -1.6368,2.3067 -2.5656,4.3738 -2.8883,6.3623 -0.3172,1.9516 -0.0495,3.8688 0.703,5.9033 2.8878,7.8071 8.8375,14.2962 14.8483,19.9281 6.0774,-2.5217 12.4836,-3.9819 19.0935,-4.0854 2.7212,-2.3016 5.3006,-4.8825 7.6375,-7.9088 2.3384,-3.0278 4.4336,-6.5036 6.1836,-10.5947z"/>
   <path class="fil5" d="M129.3833 109.5175c0,-9.47 -2.6889,-18.3124 -7.3414,-25.8086 -1.702,3.69 -3.6814,6.8866 -5.8634,9.7122 -2.1757,2.8178 -4.5531,5.2654 -7.0572,7.4664 5.3624,6.6336 11.969,12.1589 19.2894,16.5192l0.3107 0.1849c0.4347,-2.6269 0.6619,-5.3239 0.6619,-8.0741z"/>
   <path class="fil1" d="M104.3727 57.7118l-3.2376 -4.0033 4.9577 -0.6142 2.2238 3.7432 -3.9439 0.8744zm-48.0371 0l0 0 3.2368 -4.0033 -4.9577 -0.6142 -2.2236 3.7432 3.9445 0.8744z"/>
   <path class="fil2" d="M78.4827 31.6763c-0.1471,0.5728 -0.2721,0.5819 -0.8315,0.7254 -0.8329,0.2147 -1.4485,0.971 -1.4485,1.8709 0,1.3434 1.7642,2.339 3.0006,1.9511 -3.8446,4.2707 -10.5033,4.3935 -15.364,1.8218 0.9909,-0.2987 1.5742,-1.333 1.3086,-2.3416 -0.2287,-0.8702 -1.0173,-1.4455 -1.8774,-1.4404 -0.5777,0.0052 -0.7009,0.0272 -0.989,-0.4887 -0.9585,-1.7158 -3.6292,-1.0124 -3.6181,0.9542 0.004,0.5909 -0.1147,0.631 -0.6192,0.9128 -0.7511,0.4189 -1.1535,1.3073 -0.9247,2.1774 0.2469,0.936 1.1383,1.5308 2.0717,1.43 -0.3066,0.45 -0.64,0.8689 -0.9899,1.2568 -1.7274,2.1437 -4.0164,3.5207 -6.8113,3.5854 -1.4021,0.1461 -0.592,-0.3271 -1.1737,-1.0551 -0.3662,-0.4577 -1.1567,-0.397 -1.5389,0.0168 -0.6911,0.746 -1.2517,0.9155 -2.5198,0.6077 -1.2284,-0.2974 -1.684,1.5852 -0.4555,1.8826 5.1419,1.2491 10.463,0.7473 13.9342,-3.7393 0.7539,-0.8352 1.44,-1.7933 1.9915,-2.8678 5.5032,3.4225 13.7494,3.6164 18.7261,-1.0874 4.9769,4.7038 13.2237,4.51 18.7258,1.0874 0.5515,1.0744 1.2379,2.0325 1.9921,2.8678 3.4707,4.4879 8.7916,4.9883 13.9342,3.7393 1.2282,-0.2974 0.7728,-2.1799 -0.4556,-1.8826 -1.2681,0.3078 -1.8293,0.1383 -2.5197,-0.6077 -0.3828,-0.4137 -1.1732,-0.4745 -1.5389,-0.0168 -0.5818,0.7267 0.2276,1.2012 -1.1738,1.0551 -2.7951,-0.066 -5.0844,-1.4417 -6.8117,-3.5854 -0.3501,-0.3879 -0.6835,-0.8068 -0.9895,-1.2568 0.9333,0.1008 1.8249,-0.494 2.0713,-1.43 0.2288,-0.8702 -0.1733,-1.7585 -0.9247,-2.1774 -0.5041,-0.2818 -0.6229,-0.3219 -0.6187,-0.9128 0.011,-1.9666 -2.6597,-2.67 -3.6179,-0.9542 -0.2884,0.5159 -0.411,0.4939 -0.9893,0.4887 -0.8598,-0.0051 -1.6479,0.5702 -1.8774,1.4404 -0.2655,1.0086 0.3181,2.0429 1.3091,2.3416 -4.8611,2.573 -11.52,2.4489 -15.3645,-1.8218 1.2365,0.3879 3.0011,-0.6077 3.0011,-1.9511 0,-0.8999 -0.6158,-1.6562 -1.449,-1.8709 -0.5597,-0.1435 -0.6845,-0.1526 -0.8315,-0.7254 -0.4889,-1.8967 -3.2545,-1.8967 -3.7424,0z"/>
   <path class="fil0" d="M80.2986 34.9915c0.5709,0 1.0368,-0.4667 1.0368,-1.0369 0,-0.5715 -0.4659,-1.0383 -1.0368,-1.0383 -0.5715,0 -1.0377,0.4668 -1.0377,1.0383 0.0005,0.5715 0.4667,1.0369 1.0377,1.0369z"/>
   <path class="fil0" d="M62.0902 36.4538c0,0.5728 -0.4647,1.0369 -1.0375,1.0369 -0.5726,0 -1.0373,-0.4641 -1.0373,-1.0369 0,-0.5728 0.4647,-1.0369 1.0373,-1.0369 0.5728,0 1.0375,0.4641 1.0375,1.0369z"/>
   <path class="fil0" d="M100.6913 36.4538c0,0.5728 -0.4647,1.0369 -1.0375,1.0369 -0.5726,0 -1.0373,-0.4641 -1.0373,-1.0369 0,-0.5728 0.4647,-1.0369 1.0373,-1.0369 0.5728,0 1.0375,0.4641 1.0375,1.0369z"/>
  </g>
 </g>
</svg>
