<?xml version="1.0" encoding="UTF-8" standalone="no"?>
<svg
   viewBox="0 0 54.09808 79.900002"
   version="1.1"
   id="svg167"
   sodipodi:docname="Huelva.svg"
   width="54.09808"
   height="79.900002"
   inkscape:version="1.4.2 (f4327f4, 2025-05-13)"
   xmlns:inkscape="http://www.inkscape.org/namespaces/inkscape"
   xmlns:sodipodi="http://sodipodi.sourceforge.net/DTD/sodipodi-0.dtd"
   xmlns="http://www.w3.org/2000/svg"
   xmlns:svg="http://www.w3.org/2000/svg">
  <sodipodi:namedview
     id="namedview167"
     pagecolor="#ffffff"
     bordercolor="#000000"
     borderopacity="0.25"
     inkscape:showpageshadow="2"
     inkscape:pageopacity="0.0"
     inkscape:pagecheckerboard="0"
     inkscape:deskcolor="#d1d1d1"
     showgrid="false"
     showguides="true"
     inkscape:zoom="8"
     inkscape:cx="12.8125"
     inkscape:cy="47.6875"
     inkscape:window-width="1920"
     inkscape:window-height="991"
     inkscape:window-x="-9"
     inkscape:window-y="-9"
     inkscape:window-maximized="1"
     inkscape:current-layer="svg167">
    <sodipodi:guide
       position="0,38.611138"
       orientation="1,0"
       id="guide168"
       inkscape:locked="false" />
  </sodipodi:namedview>
  <defs
     id="defs1">
    <style
       id="style1">
      .cls-1 {
        fill: #ffad00;
      }

      .cls-2 {
        fill: #00109e;
      }

      .cls-3 {
        fill: none;
        stroke: #00109e;
        stroke-miterlimit: 10;
        stroke-width: 1px;
      }

      .cls-4 {
        fill: #fcdc00;
      }

      .cls-5 {
        fill: #d2001b;
      }

      .cls-6 {
        fill: #00823d;
      }
    </style>
    <clipPath
       clipPathUnits="userSpaceOnUse"
       id="clipPath168">
      <rect
         style="opacity:0.2257;fill:#e9b46c;stroke-width:4.1665"
         id="rect168"
         width="54.09808"
         height="80"
         x="0"
         y="6.2172489e-15" />
    </clipPath>
  </defs>
  <g
     id="g167"
     clip-path="url(#clipPath168)"
     transform="translate(0,-0.1)">
    <g
       id="Capa_1">
      <g
         data-sanitized-data-name="Capa_1"
         data-name="Capa_1"
         id="Capa_1-2">
        <g
           id="g166">
          <g
             id="g128">
            <polygon
               points="27.4,0.7 27.4,0.6 27.4,0.6 27.4,0.1 26.8,0.1 26.8,0.6 26.8,0.6 26.8,0.7 26.8,0.7 26.7,0.7 26.4,0.7 26.4,1.2 26.7,1.2 26.8,1.2 26.8,1.2 26.8,1.2 26.8,1.3 26.8,1.9 27.4,1.9 27.4,1.3 27.4,1.2 27.4,1.2 27.4,1.2 27.5,1.2 27.8,1.2 27.8,0.7 27.5,0.7 27.4,0.7 "
               class="cls-4"
               id="polygon1" />
            <g
               id="g118">
              <path
                 d="m 31.7,26.3 2.3,0.3 c 0,0 0.2,0 0.2,0 0,0 0.1,-0.1 0.1,-0.2 v -0.2 c 0,0 0,-0.2 0,-0.2 0,0 -0.1,-0.1 -0.2,-0.1 l -2.3,-0.3 c 0,0 -0.2,0 -0.2,0 0,0 -0.1,0.1 -0.1,0.2 V 26 c 0,0.2 0,0.3 0.2,0.4 z"
                 class="cls-6"
                 id="path1" />
              <polygon
                 points="25.2,25.5 27,26.3 29,25.5 27,24.7 "
                 class="cls-6"
                 id="polygon2" />
              <path
                 d="m 24.7,27.2 c -2.9,0.2 -5.8,0.7 -8.6,1.6 l 0.2,0.7 c 2.8,-0.9 5.7,-1.4 8.5,-1.6 2.3,-0.2 4.6,-0.1 6.8,0.2 3,0.4 5.2,1 6.1,1.4 l 0.2,-0.6 c -0.9,-0.3 -3.2,-1 -6.3,-1.4 -2.3,-0.3 -4.6,-0.3 -7,-0.2 v 0 z"
                 class="cls-4"
                 id="path2" />
              <path
                 d="m 17.5,26.6 -1.3,1.2 0.3,0.7 c 2.7,-0.8 5.5,-1.3 8.2,-1.5 2.3,-0.2 4.7,0 7,0.2 2.7,0.3 4.9,0.9 6,1.3 L 38,27.8 36.7,26.6 h 1.8 c 0,0 0.3,-0.8 0.3,-0.8 -0.9,-0.3 -3.5,-1.2 -7,-1.6 -2.6,-0.3 -5.2,-0.4 -7.7,-0.2 -3,0.2 -5.8,0.9 -8.5,1.8 l 0.3,0.7 h 1.8 c 0,0 0,0 0,0 z m 13.9,-0.7 v -0.2 c 0,-0.1 0.1,-0.2 0.2,-0.3 0.1,-0.1 0.2,0 0.3,0 l 2.3,0.3 c 0.1,0 0.2,0 0.3,0.2 0,0 0,0.2 0,0.3 v 0.2 c 0,0.1 -0.1,0.2 -0.2,0.3 0,0 -0.2,0 -0.2,0 v 0 l -2.3,-0.3 c -0.2,0 -0.4,-0.2 -0.3,-0.5 v 0 z M 27,24.6 29.2,25.5 27,26.4 24.9,25.5 Z m -7.3,1.2 c 0,0 0.2,-0.1 0.3,-0.2 l 2.3,-0.3 c 0.2,0 0.4,0.1 0.5,0.3 v 0.2 c 0,0.2 0,0.4 -0.3,0.5 l -2.3,0.3 v 0 c 0,0 -0.2,0 -0.2,0 0,0 -0.1,-0.2 -0.2,-0.3 v -0.2 c 0,-0.1 0,-0.2 0,-0.3 v 0 z"
                 class="cls-1"
                 id="path3" />
              <path
                 d="m 19.7,26.4 c 0,0 0,0.2 0.1,0.2 0.1,0 0.1,0 0.2,0 l 2.3,-0.3 c 0.2,0 0.3,-0.2 0.3,-0.4 v -0.2 c 0,0 0,-0.2 -0.2,-0.2 0,0 -0.1,0 -0.2,0 v 0 l -2.3,0.3 c 0,0 -0.2,0 -0.2,0.1 0,0.1 0,0.1 0,0.2 v 0.2 c 0,0 0,0 0,0 z"
                 class="cls-6"
                 id="path4" />
              <path
                 d="M 17.7,8.8 Z"
                 class="cls-4"
                 id="path5" />
              <path
                 d="M 17.8,8.8 Z"
                 class="cls-4"
                 id="path6" />
              <path
                 d="M 17.8,8.8 Z"
                 class="cls-4"
                 id="path7" />
              <path
                 d="M 17.7,8.8 Z"
                 class="cls-4"
                 id="path8" />
              <path
                 d="M 36.5,8.8 Z"
                 class="cls-4"
                 id="path9" />
              <path
                 d="M 36.4,8.8 Z"
                 class="cls-4"
                 id="path10" />
              <path
                 d="M 36.4,8.8 Z"
                 class="cls-4"
                 id="path11" />
              <path
                 d="M 36.4,8.8 Z"
                 class="cls-4"
                 id="path12" />
              <polygon
                 points="15.7,26.7 15.7,26.7 15.7,26.8 15.3,27.4 16,27.7 16.1,27.8 16.1,27.7 17.2,26.7 "
                 class="cls-6"
                 id="polygon12" />
              <path
                 d="m 9.6,12.2 c 0,0 0,0 0,0 0.1,0 0.3,0.1 0.4,0.1 0.4,0 0.8,-0.3 0.8,-0.8 0,-0.5 0,-0.3 -0.1,-0.4 0,0 0,0 0,0 -0.1,-0.2 -0.3,-0.3 -0.6,-0.3 -0.4,0 -0.8,0.3 -0.8,0.8 0,0.5 0.1,0.4 0.3,0.6 z"
                 class="cls-4"
                 id="path13" />
              <path
                 d="m 8.5,14.1 c 0,0 0,0 0,0 0,0 0.2,0 0.3,0 0.4,0 0.8,-0.4 0.8,-0.8 0,-0.4 -0.1,-0.5 -0.3,-0.7 0,0 0,0 0,0 -0.1,0 -0.2,0 -0.4,0 -0.4,0 -0.8,0.4 -0.8,0.8 0,0.4 0.2,0.6 0.4,0.7 z"
                 class="cls-4"
                 id="path14" />
              <path
                 d="m 9.4,19.1 c 0,-0.4 -0.3,-0.7 -0.7,-0.7 -0.4,0 -0.1,0 -0.2,0 0,0 0,0 -0.1,0 C 8.2,18.5 8,18.8 8,19 c 0,0.2 0.3,0.7 0.7,0.7 0.4,0 0.1,0 0.2,0 0,0 0,0 0,0 0.3,-0.1 0.4,-0.4 0.4,-0.7 z"
                 class="cls-4"
                 id="path15" />
              <path
                 d="m 14.2,20.4 c -0.2,-0.2 -0.4,-0.3 -0.8,-0.3 -0.9,0 -1.4,1 -1.6,1.4 0.2,-0.1 0.4,-0.2 0.6,-0.2 v 0 c 0.6,0 1,0.6 1.2,0.8 0.5,-0.3 0.6,-1 0.6,-1 0,0 0,-0.4 -0.1,-0.7 v 0 z"
                 class="cls-4"
                 id="path16" />
              <path
                 d="m 8.1,16.1 c 0,0 0,0 0.1,0 v 0 C 8.6,16.1 9,15.7 9,15.3 9,14.9 8.7,14.6 8.4,14.5 c 0,0 0,0 -0.1,0 -0.1,0 0,0 -0.1,0 -0.4,0 -0.8,0.4 -0.8,0.8 0,0.4 0.3,0.7 0.7,0.8 z"
                 class="cls-4"
                 id="path17" />
              <path
                 d="m 8.4,18.1 v 0 c 0.4,0 0.8,-0.3 0.8,-0.8 0,-0.5 -0.3,-0.8 -0.8,-0.8 -0.5,0 -0.1,0 -0.2,0 0,0 0,0 -0.1,0 -0.3,0.1 -0.5,0.4 -0.5,0.7 0,0.3 0.3,0.7 0.6,0.7 0,0 0,0 0.1,0 v 0 z"
                 class="cls-4"
                 id="path18" />
              <path
                 d="m 15.6,8.8 c 0,0.1 0.3,0.2 0.4,0.2 0.3,0 0.5,-0.2 0.5,-0.5 v 0 c 0,-0.4 -0.3,-0.6 -0.5,-0.6 -0.2,0 -0.5,0.2 -0.5,0.5 0,0.3 0,0.1 0,0.2 0,0 0,0 0,0 v 0 z"
                 class="cls-4"
                 id="path19" />
              <path
                 d="m 37,13.9 c 0,0 0,0 0,0 0,0 0,-0.1 0,-0.2 -0.2,-1.1 -0.6,-2.2 -1.4,-3.3 -1.4,-1.8 -3.8,-2.8 -7,-2.9 0,0 0,0.1 0,0.2 0,0.2 0,0.4 0.1,0.6 0,0 0,0 0,0.1 2.7,0.2 4.8,1.7 6.1,2.9 1.2,1.1 1.9,2.2 2.1,2.5 v 0 z"
                 class="cls-4"
                 id="path20" />
              <path
                 d="M 10.8,20.1 C 10.4,19.8 10,19.8 9.9,19.8 c 0,0 -0.7,0 -0.9,0.3 -0.1,0.1 -0.2,0.3 -0.1,0.5 0,0.2 0.1,0.4 0.3,0.4 0.3,0.2 0.8,-0.1 0.8,-0.1 v 0 c 0,0 0,0 0,0 0.4,0 0.8,0.3 1.1,0.8 0.2,0.2 0.3,0.4 0.3,0.6 0,-0.1 0.1,-0.2 0.2,-0.3 0,-0.8 -0.2,-1.5 -0.8,-1.8 v 0 z"
                 class="cls-4"
                 id="path21" />
              <path
                 d="m 14.1,9.3 c 0,0 0.2,0 0.3,0 0.2,0 0.5,-0.2 0.5,-0.4 0,0 0,0 0,-0.1 0,0 0,0 0,0 0,-0.3 -0.3,-0.6 -0.6,-0.6 -0.3,0 -0.6,0.3 -0.6,0.6 0,0.3 0,0.3 0.2,0.4 0,0 0,0 0,0 v 0 z"
                 class="cls-4"
                 id="path22" />
              <path
                 d="m 12.6,9.9 c 0,0 0,0 0,0 0,0 0.2,0 0.3,0 0.3,0 0.5,-0.2 0.6,-0.5 0,0 0,0 0,-0.1 v 0 c 0,-0.3 -0.3,-0.6 -0.6,-0.6 -0.3,0 -0.6,0.3 -0.6,0.6 0,0.3 0,0.3 0.2,0.4 v 0 z"
                 class="cls-4"
                 id="path23" />
              <path
                 d="m 11.2,10.8 c 0.1,0 0.3,0.1 0.4,0.1 0.4,0 0.7,-0.3 0.7,-0.7 0,-0.4 0,-0.1 0,-0.2 0,0 0,0 0,0 C 12.2,9.8 12,9.6 11.7,9.6 11.4,9.6 11,9.9 11,10.3 c 0,0.4 0,0.3 0.2,0.4 0,0 0,0 0,0 z"
                 class="cls-4"
                 id="path24" />
              <path
                 d="m 9.9,16.8 c 0,0.1 0,0.3 0,0.4 0,-0.4 0.4,-1.8 1.2,-3.2 0.5,-1 1.1,-1.7 1.9,-2.3 0.9,-0.7 1.8,-1 2.9,-1.1 0,0 0,0 0,-0.1 0.2,-0.2 0.4,-0.4 0.8,-0.4 0.4,0 0.2,0 0.3,0 0,0 0.1,-0.2 0.2,-0.2 0,-0.1 -0.1,-0.3 -0.1,-0.4 v 0 c -2.9,0.3 -5,1.5 -6.1,3.3 -0.8,1.3 -1,2.7 -1,4 v 0 z"
                 class="cls-4"
                 id="path25" />
              <path
                 d="m 38.3,24.8 c -0.2,0 -0.5,-0.2 -0.9,-0.3 0.3,0 0.6,0.2 0.9,0.3 z"
                 class="cls-4"
                 id="path26" />
              <path
                 d="m 27.1,18.9 c -0.5,0 -0.9,0.4 -0.9,0.9 0,0.5 0.4,0.9 0.9,0.9 0.5,0 0.9,-0.4 0.9,-0.9 0,-0.5 -0.4,-0.9 -0.9,-0.9 z"
                 class="cls-4"
                 id="path27" />
              <path
                 d="m 27.1,21.1 v 0 c 0.4,0 1,-0.4 1,-0.4 v 0 c 0.2,0 0.3,0 0.4,0 0.1,0 0.1,0.2 0.1,0.3 0.1,0 0.6,0.3 1,0.2 0.1,0 0.2,-0.2 0.3,-0.3 0,-0.2 0,-0.5 0,-0.6 0,-0.1 -0.1,-0.7 0,-1 0,-0.2 0,-0.7 -0.2,-0.9 -0.2,-0.1 -0.8,0 -1.1,0.2 0,0 0,0.2 -0.2,0.3 0,0 -0.1,0 -0.2,0 -0.1,0 -0.2,-0.1 -0.2,-0.3 0,-0.1 0.1,-0.2 0.3,-0.3 0,0 0.2,-0.1 0.2,-1.1 0,0 0,0 0,-0.2 0,0 -0.1,0 -0.2,0 -0.2,0 -0.4,0 -0.5,0 -0.2,0 -0.4,0 -0.5,0 -0.1,0 -0.3,0 -0.5,0 -0.2,0 -0.4,0 -0.5,0 -0.1,0 -0.2,0 -0.2,0 0,0 0,0.2 0,0.2 0,0.9 0.2,1.1 0.2,1.1 0.2,0 0.3,0.2 0.3,0.3 0,0.1 0,0.2 -0.2,0.3 0,0 -0.2,0 -0.2,0 -0.1,0 -0.1,-0.2 -0.2,-0.3 -0.2,0 -0.6,-0.2 -0.9,-0.2 -0.3,0 -0.2,0 -0.2,0 -0.2,0.2 -0.3,0.7 -0.2,0.9 0,0.3 0,0.9 0,1 0,0 0,0.3 0,0.6 0,0.2 0.2,0.3 0.3,0.3 0.4,0.1 0.9,-0.1 1,-0.2 0,0 0,-0.2 0.1,-0.3 0,0 0.2,0 0.4,0 v 0 c 0,0 0.6,0.4 1,0.4 v 0 z M 26,19.8 c 0,-0.6 0.5,-1 1,-1 0.5,0 1,0.5 1,1 0,0.5 -0.5,1 -1,1 -0.5,0 -1,-0.5 -1,-1 z"
                 class="cls-4"
                 id="path28" />
              <path
                 d="m 27.1,20.8 c 0.6,0 1,-0.5 1,-1 0,-0.5 -0.5,-1 -1,-1 -0.5,0 -1,0.5 -1,1 0,0.5 0.5,1 1,1 z m 0,-1.9 c 0.5,0 0.9,0.4 0.9,0.9 0,0.5 -0.4,0.9 -0.9,0.9 -0.5,0 -0.9,-0.4 -0.9,-0.9 0,-0.5 0.4,-0.9 0.9,-0.9 z"
                 class="cls-1"
                 id="path29" />
              <path
                 d="m 32.6,20.3 c 0,-0.3 -0.2,-0.6 -0.6,-0.6 -0.4,0 -0.6,0.2 -0.6,0.6 0,0.4 0.2,0.6 0.6,0.6 0.4,0 0.6,-0.2 0.6,-0.6 z"
                 class="cls-4"
                 id="path30" />
              <path
                 d="m 12.4,21.6 c -0.2,0 -0.4,0 -0.5,0.2 h -0.1 c 0,0.1 0,0.1 0,0.1 -0.2,0.2 -0.2,0.4 -0.2,0.6 0,0.5 0.4,0.9 0.9,0.9 0.5,0 0.9,-0.4 0.9,-0.9 0,-0.5 -0.4,-0.9 -0.9,-0.9 v 0 z"
                 class="cls-4"
                 id="path31" />
              <path
                 d="m 11.8,21.8 c 0,0 0,0 -0.1,0.1 v 0 z"
                 class="cls-4"
                 id="path32" />
              <path
                 d="m 15.5,24.9 v 0 c 1.5,-0.5 3.1,-0.9 4.7,-1.2 -0.1,0 -0.2,0 -0.3,0 -0.5,-0.2 -0.8,-0.7 -0.9,-0.9 0,0 -0.2,0 -0.2,0.1 -0.1,0 -0.2,0 -0.3,0 0,0.2 0,1 -0.9,1.3 -0.8,0.3 -1.8,0 -2.3,-0.4 -0.3,-0.3 -0.4,-0.6 -0.3,-1 -0.2,0 -0.7,0 -1,0.3 -0.2,0.2 -0.3,0.5 -0.3,0.9 0,0.3 0.1,0.5 0.3,0.7 0.5,0.4 1.5,0.3 1.5,0.3 v 0 z"
                 class="cls-4"
                 id="path33" />
              <path
                 d="m 14.7,22.5 c 0,-0.3 0,-0.5 0.1,-0.5 0,0 0,0 0.1,0 -0.3,-0.1 -0.7,0 -0.8,0 -0.1,0.1 -0.2,0.3 -0.4,0.4 v 0 c 0,0 0,0 0,0 0,0 -0.5,-0.7 -1.1,-0.8 -0.1,0 -0.3,0 -0.4,0 0,0 0.1,0 0.2,0 0.6,0 1,0.5 1,1 0,0.5 0,0.5 -0.2,0.7 0,0 0,0 0.1,0 0.1,0 0.2,0.2 0.3,0.4 0,-0.3 0.1,-0.5 0.3,-0.7 0.3,-0.2 0.6,-0.3 0.9,-0.4 v 0 z"
                 class="cls-4"
                 id="path34" />
              <path
                 d="m 38.5,24.9 v 0 c 0,0 0,0 -0.1,0 z"
                 class="cls-4"
                 id="path35" />
              <path
                 d="m 23.8,23.3 c -3.2,0.2 -6.2,0.9 -9,2 L 15,26 c 2.8,-1.1 5.8,-1.7 8.9,-2 2.5,-0.2 5.1,-0.1 7.7,0.2 4.1,0.5 7,1.6 7.4,1.7 l 0.2,-0.7 c -1.1,-0.4 -4,-1.3 -7.6,-1.7 -2.7,-0.3 -5.3,-0.4 -7.9,-0.2 v 0 z"
                 class="cls-4"
                 id="path36" />
              <path
                 d="m 24.1,19.7 c 0,0.2 0,0.3 0.2,0.5 0,-0.2 0,-0.7 0,-0.9 0,0 0,0 0,0 0,0 -0.2,0.2 -0.2,0.4 z"
                 class="cls-4"
                 id="path37" />
              <path
                 d="M 17.8,8.8 Z"
                 class="cls-4"
                 id="path38" />
              <path
                 d="m 17.2,9.9 c 0.1,0.2 0.4,0.3 0.6,0.3 0.4,0 0.7,-0.3 0.7,-0.7 0,-0.4 -0.2,-0.5 -0.4,-0.7 0,0 0,0 -0.1,0 0,0 -0.1,0 -0.2,0 h -0.1 c 0,0 0,0 0,0 -0.3,0 -0.6,0.4 -0.6,0.7 0,0.3 0,0.2 0,0.3 0,0 0,0 0,0 v 0 z"
                 class="cls-4"
                 id="path39" />
              <polygon
                 points=""
                 class="cls-4"
                 id="polygon39" />
              <path
                 d="M 17.8,8.8 Z"
                 class="cls-4"
                 id="path40" />
              <path
                 d="M 17.8,8.8 Z"
                 class="cls-4"
                 id="path41" />
              <path
                 d="M 17.8,8.8 Z"
                 class="cls-4"
                 id="path42" />
              <path
                 d="M 17.9,8.8 Z"
                 class="cls-4"
                 id="path43" />
              <path
                 d="m 27.1,7.7 c 0.4,0 0.8,-0.3 0.8,-0.8 0,-0.5 -0.3,-0.8 -0.8,-0.8 -0.5,0 -0.8,0.3 -0.8,0.8 0,0.5 0.3,0.8 0.8,0.8 z"
                 class="cls-4"
                 id="path44" />
              <path
                 d="m 27.1,14.2 c 0.5,0 1,-0.4 1,-1 0,-0.6 -0.4,-1 -1,-1 -0.6,0 -1,0.4 -1,1 0,0.6 0.4,1 1,1 z"
                 class="cls-4"
                 id="path45" />
              <path
                 d="m 22.7,7.5 c 0.4,0 0.8,-0.3 0.8,-0.8 0,-0.5 0,-0.2 0,-0.3 0,0 0,0 0,0 -0.1,-0.2 -0.4,-0.3 -0.6,-0.3 -0.4,0 -0.7,0.3 -0.8,0.7 v 0 c 0,0.5 0.3,0.8 0.8,0.8 z"
                 class="cls-4"
                 id="path46" />
              <path
                 d="m 27.1,12 c 0.5,0 1,-0.4 1,-1 0,-0.6 -0.4,-1 -1,-1 -0.6,0 -1,0.4 -1,1 0,0.6 0.4,1 1,1 z"
                 class="cls-4"
                 id="path47" />
              <path
                 d="m 24.8,7.3 c 0.4,0 0.7,-0.3 0.7,-0.7 0,-0.4 0,-0.2 0,-0.3 0,0 0,0 0,0 C 25.4,6.1 25.2,6 24.9,6 c -0.3,0 -0.5,0.2 -0.7,0.4 0,0 0,0 0,0.1 0,0 0,0.1 0,0.2 0,0.4 0.3,0.7 0.7,0.7 z"
                 class="cls-4"
                 id="path48" />
              <path
                 d="m 27.1,16.6 c 0.6,0 1.1,-0.5 1.1,-1.1 0,-0.6 -0.5,-1.1 -1.1,-1.1 -0.6,0 -1.1,0.5 -1.1,1.1 0,0.6 0.5,1.1 1.1,1.1 z"
                 class="cls-4"
                 id="path49" />
              <path
                 d="M 27.1,9.8 C 27.6,9.8 28,9.4 28,8.9 28,8.4 27.6,8 27.1,8 c -0.5,0 -0.9,0.4 -0.9,0.9 0,0.5 0.4,0.9 0.9,0.9 z"
                 class="cls-4"
                 id="path50" />
              <path
                 d="m 30.2,19.7 c 0,-0.2 -0.1,-0.3 -0.2,-0.4 0,0 0,0 0,0 0,0.2 0,0.7 0,0.9 0.1,-0.2 0.2,-0.3 0.2,-0.5 z"
                 class="cls-4"
                 id="path51" />
              <polygon
                 points="26.5,5.7 26.4,5.7 26.5,5.7 "
                 class="cls-4"
                 id="polygon51" />
              <path
                 d="m 28.8,6.1 c 0,0 0,0 0,0 0,0 0,0.2 0,0.3 0,0.4 0.3,0.7 0.7,0.7 0.4,0 0.7,-0.3 0.7,-0.7 0,-0.4 0,-0.1 0,-0.2 0,0 0,0 0,-0.1 C 30.1,5.8 29.8,5.7 29.5,5.7 29.2,5.7 29,5.8 28.9,6 Z"
                 class="cls-4"
                 id="path52" />
              <polygon
                 points="27.8,5.7 27.7,5.7 "
                 class="cls-4"
                 id="polygon52" />
              <circle
                 r="1.9"
                 cy="3.9000001"
                 cx="27.1"
                 class="cls-4"
                 id="circle52" />
              <path
                 d="m 15.7,21.8 c 0,0.1 0.2,0.3 0.3,0.3 0,-0.3 -0.2,-0.7 -0.3,-0.9 0,0.1 -0.1,0.4 0,0.6 z"
                 class="cls-4"
                 id="path53" />
              <path
                 d="m 17.5,11.1 c 0,-0.3 -0.2,-0.7 -0.5,-0.8 0,0 0,0 -0.1,0 0,0 -0.1,0 -0.2,0 -0.5,0 -0.8,0.4 -0.8,0.8 0,0.4 0.1,0.5 0.3,0.6 0,0 0,0 0,0 0.1,0 0.3,0.1 0.5,0.1 0.5,0 0.8,-0.4 0.8,-0.8 v 0 z"
                 class="cls-4"
                 id="path54" />
              <path
                 d="m 16,12.3 c 0,0 0,0 -0.1,0 v 0 c -0.4,0 -0.8,0.3 -0.8,0.8 0,0.5 0.2,0.6 0.5,0.7 0,0 0,0 0.1,0 0,0 0.1,0 0.2,0 0.4,0 0.8,-0.3 0.8,-0.8 0,-0.5 -0.3,-0.7 -0.6,-0.7 v 0 z"
                 class="cls-4"
                 id="path55" />
              <circle
                 r="0.60000002"
                 cy="16.9"
                 cx="15.9"
                 class="cls-4"
                 id="circle55" />
              <path
                 d="m 17.1,18 c 0.2,0 0.3,0 0.4,-0.1 -0.2,0 -0.3,0 -0.4,0.1 z"
                 class="cls-4"
                 id="path56" />
              <path
                 d="m 20.7,20.2 c 0,-0.2 -0.2,-0.3 -0.3,-0.3 0,0.4 0.2,0.8 0.3,1 0,-0.3 0,-0.5 0,-0.7 z"
                 class="cls-4"
                 id="path57" />
              <path
                 d="m 18.6,8.5 c 0.1,0.3 0.4,0.4 0.7,0.4 0.3,0 0.7,-0.3 0.7,-0.7 0,-0.4 0,-0.4 -0.2,-0.5 0,0 0,0 0,0 -0.1,-0.1 -0.3,-0.2 -0.5,-0.2 -0.4,0 -0.7,0.3 -0.7,0.7 0,0.4 0,0.1 0,0.2 z"
                 class="cls-4"
                 id="path58" />
              <path
                 d="m 27.1,17 c 0.1,0 0.2,0 0.3,0 -0.2,0 -0.5,0 -0.6,0 0,0 0.2,0 0.3,0 z"
                 class="cls-4"
                 id="path59" />
              <path
                 d="m 15.7,14.2 c 0,0 0,0 0,0 0,0 0,0 -0.1,0 -0.3,0 -0.6,0.4 -0.6,0.7 0,0.3 0.2,0.6 0.5,0.7 0,0 0,0 0.1,0 0,0 0.1,0 0.2,0 0.4,0 0.8,-0.3 0.8,-0.8 0,-0.5 -0.3,-0.8 -0.8,-0.8 v 0 z"
                 class="cls-4"
                 id="path60" />
              <path
                 d="m 19.3,11.4 c 1.3,-1.2 3.4,-2.7 6.1,-2.9 0,0 0,0 0,-0.1 0,-0.2 0,-0.4 0.1,-0.6 0,0 0,-0.1 0,-0.2 -3.2,0 -5.6,1.1 -7,2.9 -0.8,1 -1.2,2.2 -1.4,3.3 0,0 0,0.1 0,0.2 0,0 0,0 0,0 0.2,-0.3 0.9,-1.4 2.1,-2.5 v 0 z"
                 class="cls-4"
                 id="path61" />
              <path
                 d="m 22.1,19.8 c -0.3,0 -0.6,0.2 -0.6,0.6 0,0.4 0.2,0.6 0.6,0.6 0.4,0 0.6,-0.2 0.6,-0.6 0,-0.4 -0.2,-0.6 -0.6,-0.6 z"
                 class="cls-4"
                 id="path62" />
              <path
                 d="m 20.3,7.5 c 0,0.3 0.3,0.5 0.6,0.5 0.3,0 0.6,-0.3 0.6,-0.6 0,-0.3 0,-0.2 -0.1,-0.3 0,0 0,0 0,0 C 21.3,7 21.1,6.9 20.9,6.9 c -0.4,0 -0.6,0.3 -0.6,0.6 v 0 c 0,0 0,0.1 0,0.1 v 0 z"
                 class="cls-4"
                 id="path63" />
              <path
                 d="m 17.8,22.3 v 0 c 0,0 0.5,0.4 0.9,0.3 0.3,0 0.5,-0.3 0.6,-0.6 0,0 0.1,-0.3 0.3,-0.3 v 0 c 0.1,0 0.2,0 0.3,0.3 0.1,0 0.7,0.1 0.9,-0.1 0.1,-0.2 0.1,-0.4 0,-0.8 0,0 -0.5,-0.8 -0.4,-1.6 0,0 0,-0.6 -0.3,-0.7 -0.2,0 -0.5,0 -0.9,0.4 0,0 0,0.2 0,0.3 0,0 -0.1,0.1 -0.3,0.1 -0.2,0 -0.3,0 -0.3,-0.2 0,-0.1 0,-0.3 0.2,-0.4 0,-0.2 0,-1.1 -0.3,-1.3 -0.2,-0.1 -0.4,0 -0.7,0 0,0 -0.3,0.2 -0.8,0.2 v 0 c 0,0 -0.4,0 -0.6,0.2 0,0.1 -0.1,0.3 0,0.5 0.2,0.7 0.4,0.9 0.5,0.9 0,0 0.2,0 0.3,0 0,0 0,0.1 0,0.2 0,0.3 0,0.3 -0.1,0.3 0,0 -0.1,0 -0.2,0 0,0 -0.2,-0.1 -0.2,-0.3 -0.1,0 -0.6,-0.2 -0.8,0 -0.1,0.1 -0.2,0.3 -0.1,0.7 0,0 0.5,1.1 0.5,1.6 0,0.5 0.4,0.9 0.4,0.9 0,0 0,0 0.2,0 0.1,0 0.4,0 0.7,-0.4 0,0 0,-0.2 0,-0.4 0,0 0.2,-0.1 0.4,-0.1 v 0 z m -0.6,-1.4 c 0,-0.5 0.4,-0.8 0.8,-0.8 0.4,0 0.8,0.4 0.8,0.8 0,0.4 -0.4,0.8 -0.8,0.8 -0.4,0 -0.8,-0.4 -0.8,-0.8 z"
                 class="cls-4"
                 id="path64" />
              <path
                 d="m 18,21.6 c 0.4,0 0.7,-0.3 0.7,-0.7 0,-0.4 -0.3,-0.7 -0.7,-0.7 -0.4,0 -0.7,0.3 -0.7,0.7 0,0.4 0.3,0.7 0.7,0.7 z"
                 class="cls-4"
                 id="path65" />
              <path
                 d="m 17.7,8.7 c 0,0 0,0 0.1,0 v 0 c 0.3,0 0.5,-0.3 0.5,-0.6 0,-0.3 -0.3,-0.6 -0.6,-0.6 -0.3,0 -0.6,0.3 -0.6,0.6 0,0.3 0.2,0.6 0.6,0.6 z"
                 class="cls-4"
                 id="path66" />
              <path
                 d="m 17.7,8.7 v 0 c 0,0 0,0 0.1,0 v 0 z"
                 class="cls-4"
                 id="path67" />
              <path
                 d="m 42.6,11 c 0.2,0 0.3,0 0.4,-0.1 0,0 0,0 0,0 0.1,-0.1 0.2,-0.3 0.2,-0.4 0,-0.4 -0.3,-0.7 -0.7,-0.7 -0.4,0 -0.5,0.2 -0.6,0.4 0,0 0,0 0,0 0,0 0,0.1 0,0.2 0,0.4 0.3,0.7 0.7,0.7 z"
                 class="cls-4"
                 id="path68" />
              <path
                 d="m 39.3,9 c 0,0.2 0.3,0.4 0.5,0.4 0.2,0 0.2,0 0.3,0 0,0 0,0 0,0 0.1,-0.1 0.2,-0.3 0.2,-0.4 0,-0.3 -0.3,-0.6 -0.6,-0.6 -0.3,0 -0.6,0.3 -0.6,0.6 0,0.3 0,0 0,0 0,0 0,0 0,0.1 v 0 z"
                 class="cls-4"
                 id="path69" />
              <path
                 d="m 35.5,22.6 c 0.5,0.1 0.9,-0.3 0.9,-0.3 v 0 c 0,0 0,0 0,0 0.2,0 0.3,0 0.4,0.1 0,0.1 0,0.3 0,0.4 0.3,0.4 0.5,0.4 0.7,0.4 0.1,0 0.2,0 0.2,0 0,0 0.4,-0.4 0.4,-0.9 0,-0.5 0.4,-1.5 0.5,-1.6 0,-0.3 0,-0.5 -0.1,-0.7 -0.2,-0.2 -0.7,0 -0.8,0 0,0.2 -0.1,0.2 -0.2,0.3 -0.1,0 -0.2,0 -0.2,0 0,0 -0.1,0 -0.1,-0.3 0,-0.3 0,-0.2 0,-0.2 0,0 0.2,0 0.3,0 0,0 0.3,-0.3 0.5,-0.9 0,-0.2 0,-0.4 0,-0.5 -0.2,-0.2 -0.6,-0.2 -0.6,-0.2 v 0 c -0.5,0 -0.8,-0.2 -0.8,-0.2 -0.3,-0.2 -0.5,-0.2 -0.7,0 -0.4,0.2 -0.3,1.2 -0.3,1.3 0.1,0 0.2,0.2 0.2,0.4 0,0.2 -0.1,0.2 -0.3,0.2 -0.2,0 -0.2,0 -0.3,-0.1 -0.1,-0.1 0,-0.2 0,-0.3 C 34.8,19.1 34.5,19 34.3,19.1 34,19.2 34,19.8 34,19.8 c 0,0.8 -0.4,1.5 -0.4,1.6 -0.2,0.4 -0.2,0.7 0,0.8 0.2,0.2 0.8,0.1 0.9,0.1 0,-0.2 0.2,-0.3 0.3,-0.3 v 0 c 0.2,0 0.3,0.2 0.3,0.3 0.2,0.3 0.4,0.5 0.6,0.6 v 0 z m 0.7,-2.5 c 0.5,0 0.8,0.4 0.8,0.8 0,0.4 -0.4,0.8 -0.8,0.8 -0.4,0 -0.8,-0.4 -0.8,-0.8 0,-0.4 0.4,-0.8 0.8,-0.8 z"
                 class="cls-4"
                 id="path70" />
              <path
                 d="m 36.2,21.6 c 0.4,0 0.7,-0.3 0.7,-0.7 0,-0.4 -0.3,-0.7 -0.7,-0.7 -0.4,0 -0.7,0.3 -0.7,0.7 0,0.4 0.3,0.7 0.7,0.7 z"
                 class="cls-4"
                 id="path71" />
              <path
                 d="m 41.2,10 c 0.1,0 0.2,0 0.3,0 0,0 0,0 0,0 C 41.6,9.9 41.7,9.7 41.7,9.6 41.7,9.3 41.4,9 41.1,9 40.8,9 40.5,9.3 40.5,9.6 v 0 c 0,0 0,0 0,0.1 0,0.3 0.3,0.5 0.6,0.5 v 0 z"
                 class="cls-4"
                 id="path72" />
              <path
                 d="m 40.8,20.2 c -0.4,0 -0.6,0 -0.8,0.3 -0.2,0.3 -0.1,0.7 -0.1,0.7 0,0 0.1,0.7 0.6,1 0.1,-0.2 0.6,-0.7 1.2,-0.8 v 0 c 0.2,0 0.4,0 0.6,0.2 -0.2,-0.4 -0.6,-1.4 -1.6,-1.4 v 0 z"
                 class="cls-4"
                 id="path73" />
              <path
                 d="m 37.1,9.9 c 0,0 0.1,0.2 0.2,0.2 0,0 0.2,0 0.3,0 0.3,0 0.6,0.2 0.8,0.4 0,0 0,0 0,0.1 1.1,0 2.1,0.4 2.9,1.1 0.7,0.6 1.3,1.3 1.9,2.3 0.8,1.4 1.1,2.8 1.2,3.2 0,-0.1 0,-0.3 0,-0.4 0,-1.2 -0.2,-2.7 -1,-4 -1.1,-1.8 -3.2,-3 -6.1,-3.4 v 0 c 0,0.2 0,0.3 -0.1,0.5 v 0 z"
                 class="cls-4"
                 id="path74" />
              <path
                 d="m 38.1,9 c 0.2,0 0.3,0 0.4,-0.2 0,0 0,0 0,0 0,0 0,-0.1 0,-0.2 0,-0.3 -0.2,-0.5 -0.5,-0.5 -0.3,0 -0.5,0.2 -0.5,0.5 v 0 c 0,0.4 0.2,0.6 0.5,0.6 v 0 z"
                 class="cls-4"
                 id="path75" />
              <path
                 d="m 45.8,18.5 c 0,0 0,0 -0.1,0 0,0 -0.1,0 -0.2,0 -0.4,0 -0.7,0.3 -0.7,0.7 0,0.4 0.2,0.5 0.4,0.7 0,0 0,0 0,0 0,0 0.1,0 0.2,0 0.4,0 0.7,-0.3 0.7,-0.7 0,-0.4 -0.2,-0.5 -0.4,-0.6 z"
                 class="cls-4"
                 id="path76" />
              <path
                 d="m 44.3,19.8 c 0,0 -0.4,0 -0.9,0.3 -0.6,0.4 -0.8,1 -0.8,1.8 0,0 0.1,0.2 0.2,0.3 0,-0.1 0.2,-0.3 0.3,-0.6 0.3,-0.5 0.7,-0.7 1.1,-0.8 v 0 c 0,0 0.5,0.3 0.8,0.1 0.1,0 0.2,-0.2 0.3,-0.4 0,-0.2 0,-0.4 -0.1,-0.5 -0.3,-0.3 -0.9,-0.3 -0.9,-0.3 v 0 z"
                 class="cls-4"
                 id="path77" />
              <path
                 d="m 46.1,16.6 c 0,0 0,0 -0.1,0 0,0 -0.1,0 -0.2,0 -0.4,0 -0.8,0.3 -0.8,0.8 0,0.5 0.3,0.8 0.8,0.8 v 0 c 0,0 0,0 0.1,0 0.4,0 0.6,-0.4 0.6,-0.7 0,-0.3 -0.2,-0.6 -0.5,-0.7 v 0 z"
                 class="cls-4"
                 id="path78" />
              <path
                 d="m 42.5,22 h -0.1 c -0.1,-0.2 -0.3,-0.3 -0.5,-0.3 -0.5,0 -0.9,0.4 -0.9,0.9 0,0.5 0.4,0.9 0.9,0.9 0.5,0 0.9,-0.4 0.9,-0.9 0,-0.5 0,-0.5 -0.3,-0.6 z"
                 class="cls-4"
                 id="path79" />
              <path
                 d="m 42.5,21.9 c 0,0 0,0 -0.1,-0.1 h 0.1 z"
                 class="cls-4"
                 id="path80" />
              <path
                 d="m 41.9,21.5 c 0,0 0.1,0 0.2,0 -0.1,0 -0.3,0 -0.4,0 -0.6,0 -1.1,0.8 -1.1,0.8 v 0 c 0,0 0,0 0,0 -0.2,0 -0.3,-0.2 -0.4,-0.4 0,0 -0.6,-0.1 -0.8,0 0,0 0,0 0.1,0 0.1,0 0.2,0.3 0.1,0.5 0.3,0 0.6,0.1 0.9,0.4 0.2,0.2 0.3,0.4 0.3,0.7 0,-0.1 0.2,-0.3 0.3,-0.4 0,0 0,0 0.1,0 -0.1,-0.2 -0.2,-0.4 -0.2,-0.7 0,-0.6 0.5,-1 1,-1 v 0 z"
                 class="cls-4"
                 id="path81" />
              <path
                 d="m 44.1,12.4 c 0.2,0 0.3,0 0.4,-0.1 0,0 0,0 0,0 0.2,-0.1 0.3,-0.3 0.3,-0.6 0,-0.4 -0.3,-0.8 -0.8,-0.8 -0.5,0 -0.4,0.1 -0.6,0.3 0,0 0,0 0,0 0,0.1 -0.1,0.3 -0.1,0.4 0,0.4 0.3,0.8 0.8,0.8 z"
                 class="cls-4"
                 id="path82" />
              <path
                 d="m 44.5,13.4 c 0,0.4 0.4,0.8 0.8,0.8 0.4,0 0.2,0 0.3,0 0,0 0,0 0,0 0.3,-0.1 0.4,-0.4 0.4,-0.7 0,-0.4 -0.4,-0.8 -0.8,-0.8 -0.4,0 -0.3,0 -0.4,0 0,0 0,0 0,0 -0.2,0.1 -0.3,0.4 -0.3,0.7 z"
                 class="cls-4"
                 id="path83" />
              <path
                 d="m 45.8,14.5 c 0,0 0,0 -0.1,0 -0.3,0 -0.6,0.4 -0.6,0.8 0,0.4 0.4,0.8 0.8,0.8 v 0 c 0,0 0,0 0.1,0 0.4,0 0.7,-0.4 0.7,-0.8 0,-0.4 -0.4,-0.8 -0.8,-0.8 -0.4,0 0,0 -0.1,0 z"
                 class="cls-4"
                 id="path84" />
              <path
                 d="m 31.5,7.5 c 0.4,0 0.7,-0.3 0.8,-0.7 v 0 C 32.3,6.3 31.9,6 31.5,6 31.1,6 31,6.1 30.9,6.3 c 0,0 0,0 0,0 0,0 0,0.2 0,0.3 0,0.4 0.3,0.8 0.8,0.8 z"
                 class="cls-4"
                 id="path85" />
              <path
                 d="M 36.3,8.8 Z"
                 class="cls-4"
                 id="path86" />
              <path
                 d="m 36.4,10.3 c 0.3,0 0.5,-0.1 0.6,-0.3 0,0 0,0 0,0 0,0 0,-0.2 0,-0.3 C 37,9.3 36.7,9 36.4,9 c 0,0 0,0 0,0 h -0.1 c 0,0 -0.1,0 -0.2,0 0,0 0,0 -0.1,0 -0.2,0.1 -0.4,0.4 -0.4,0.7 0,0.4 0.3,0.7 0.7,0.7 v 0 z"
                 class="cls-4"
                 id="path87" />
              <path
                 d="M 36.3,8.8 Z"
                 class="cls-4"
                 id="path88" />
              <path
                 d="M 36.4,8.8 Z"
                 class="cls-4"
                 id="path89" />
              <path
                 d="M 36.4,8.8 Z"
                 class="cls-4"
                 id="path90" />
              <path
                 d="M 36.4,8.8 Z"
                 class="cls-4"
                 id="path91" />
              <polygon
                 points=""
                 class="cls-4"
                 id="polygon91" />
              <path
                 d="m 36.3,8.7 v 0 c 0,0 0.1,0 0.1,0 0.3,0 0.6,-0.3 0.6,-0.6 0,-0.3 -0.3,-0.6 -0.6,-0.6 -0.3,0 -0.6,0.3 -0.6,0.6 0,0.3 0.2,0.5 0.5,0.6 z"
                 class="cls-4"
                 id="path92" />
              <path
                 d="m 36.3,8.7 c 0,0 0,0 0.1,0 v 0 z"
                 class="cls-4"
                 id="path93" />
              <path
                 d="m 38.5,21.8 c 0,-0.2 0,-0.5 0,-0.6 -0.1,0.3 -0.3,0.7 -0.3,0.9 0.1,0 0.3,-0.2 0.3,-0.3 z"
                 class="cls-4"
                 id="path94" />
              <path
                 d="m 35,9 c 0.3,0 0.5,-0.2 0.7,-0.4 0,0 0,0 0,-0.1 0,0 0,-0.1 0,-0.2 0,-0.4 -0.3,-0.7 -0.7,-0.7 -0.4,0 -0.3,0 -0.5,0.2 0,0 0,0 0,0 -0.1,0.1 -0.2,0.3 -0.2,0.5 0,0.4 0.3,0.7 0.7,0.7 z"
                 class="cls-4"
                 id="path95" />
              <path
                 d="m 33.3,8 c 0.3,0 0.6,-0.2 0.6,-0.5 0,0 0,0 0,-0.1 v 0 c 0,-0.4 -0.3,-0.7 -0.6,-0.7 -0.3,0 -0.4,0 -0.5,0.2 0,0 0,0 0,0 0,0.1 -0.1,0.2 -0.1,0.3 0,0.4 0.3,0.6 0.6,0.6 v 0 z"
                 class="cls-4"
                 id="path96" />
              <path
                 d="m 36.7,17.8 c 0,0 0.2,0 0.4,0.1 0,0 -0.2,-0.1 -0.4,-0.1 z"
                 class="cls-4"
                 id="path97" />
              <path
                 d="m 39.3,14.9 c 0,-0.4 -0.2,-0.7 -0.6,-0.7 0,0 0,0 -0.1,0 0,0 0,0 0,0 -0.4,0 -0.8,0.3 -0.8,0.8 0,0.5 0.3,0.8 0.8,0.8 0.5,0 0.1,0 0.2,0 0,0 0,0 0.1,0 0.3,-0.1 0.5,-0.4 0.5,-0.7 v 0 z"
                 class="cls-4"
                 id="path98" />
              <path
                 d="m 33.5,20.9 c 0.1,-0.2 0.2,-0.6 0.3,-1 0,0 -0.2,0.1 -0.3,0.3 0,0.2 0,0.4 0,0.7 z"
                 class="cls-4"
                 id="path99" />
              <path
                 d="m 39.1,13 c 0,-0.4 -0.3,-0.8 -0.8,-0.8 v 0 c 0,0 0,0 -0.1,0 -0.3,0 -0.6,0.4 -0.6,0.7 0,0.3 0.3,0.8 0.8,0.8 0.5,0 0.1,0 0.2,0 0,0 0,0 0.1,0 0.3,-0.1 0.5,-0.4 0.5,-0.7 v 0 z"
                 class="cls-4"
                 id="path100" />
              <path
                 d="m 38.4,11.1 c 0,-0.5 -0.4,-0.8 -0.8,-0.8 -0.4,0 -0.1,0 -0.2,0 0,0 0,0 -0.1,0 -0.3,0.1 -0.5,0.4 -0.5,0.8 0,0.4 0.4,0.8 0.8,0.8 0.4,0 0.3,0 0.5,-0.1 0,0 0,0 0,0 0.2,-0.2 0.3,-0.4 0.3,-0.6 v 0 z"
                 class="cls-4"
                 id="path101" />
              <circle
                 r="0.60000002"
                 cy="16.9"
                 cx="38.299999"
                 class="cls-4"
                 id="circle101" />
              <path
                 d="m 39.2,22.6 c 0.1,0.4 0,0.8 -0.3,1 -0.5,0.5 -1.5,0.7 -2.3,0.4 -1,-0.3 -0.9,-1.1 -0.9,-1.3 -0.1,0 -0.2,0 -0.3,0 0,0 -0.2,0 -0.2,-0.1 0,0.2 -0.3,0.7 -0.9,0.9 -0.1,0 -0.3,0 -0.4,0 -0.3,0 -0.7,-0.1 -1.1,-0.4 0,0 -1,-0.5 -0.7,-2.2 v 0 c 0,0 -0.1,0 -0.2,0 0,0.2 -0.4,1.3 -1.3,1.8 -0.3,0.2 -0.7,0.3 -1.1,0.3 -0.4,0 -0.6,0 -0.9,-0.1 0,0 -1.2,-0.3 -1.1,-1.8 -0.1,0 -0.3,0 -0.4,0 v 0 c -0.1,0 -0.2,0 -0.4,0 0.1,1.5 -1.1,1.8 -1.1,1.8 -0.3,0 -0.6,0.1 -0.9,0.1 -0.4,0 -0.8,-0.1 -1.1,-0.3 -0.9,-0.5 -1.3,-1.6 -1.3,-1.8 0,0 -0.1,0 -0.2,0 v 0 c 0.3,1.7 -0.6,2.2 -0.7,2.2 -0.2,0.1 -0.3,0.2 -0.5,0.3 0.9,-0.2 1.9,-0.3 2.9,-0.3 2.6,-0.2 5.2,-0.1 7.9,0.2 0.1,0 0.2,0 0.3,0 0,0 0,0 0.1,0 0,0 0.1,0 0.2,0 0,0 0,0 0.1,0 0,0 0.1,0 0.2,0 0,0 0,0 0.1,0 0,0 0.1,0 0.2,0 0,0 0,0 0.1,0 0,0 0.1,0 0.2,0 0,0 0,0 0.1,0 h 0.2 c 0,0 0,0 0.1,0 0,0 0.1,0 0.2,0 0,0 0,0 0.1,0 0,0 0.1,0 0.1,0 0,0 0,0 0.1,0 0,0 0,0 0.1,0 0,0 0,0 0.1,0 0,0 0,0 0.1,0 0,0 0,0 0.1,0 0,0 0,0 0.1,0 0,0 0,0 0.1,0 0,0 0,0 0.1,0 0,0 0,0 0.1,0 0,0 0,0 0.1,0 0,0 0,0 0.1,0 0,0 0,0 0.1,0 0,0 0,0 0.1,0 0,0 0,0 0.1,0 0,0 0,0 0.1,0 0,0 0,0 0.1,0 0,0 0,0 0.1,0 0,0 0,0 0.1,0 0,0 0,0 0.1,0 0,0 0,0 0.1,0 0.1,0 0,0 0.1,0 0.1,0 0,0 0.1,0 0.1,0 0,0 0,0 0,0 0,0 0.1,0 0,0 0,0 0.1,0 0,0 0,0 0,0 h 0.1 c 0,0 0,0 0,0 0,0 0,0 0.1,0 0,0 0,0 0,0 0,0 0,0 0.1,0 0,0 0,0 0,0 0.3,0 0.6,0.2 0.9,0.3 v 0 c 0,0 0,0 0.1,0 v 0 c 0,0 0,0 0.1,0 v 0 c 0,0 1.1,0.1 1.7,-0.3 0.2,-0.2 0.3,-0.4 0.3,-0.7 0,-0.4 0,-0.7 -0.3,-0.9 -0.3,-0.3 -0.9,-0.3 -1,-0.3 v 0 z"
                 class="cls-4"
                 id="path102" />
              <polygon
                 points="36.8,26.7 37.9,27.7 37.9,27.8 38,27.7 38.7,27.4 38.4,26.8 38.3,26.7 "
                 class="cls-6"
                 id="polygon102" />
              <path
                 d="M 29.2,25.5 27,24.6 24.9,25.5 27,26.4 Z m -2.2,-0.8 2,0.8 -2,0.8 -1.9,-0.8 z"
                 class="cls-4"
                 id="path103" />
              <g
                 id="g105">
                <path
                   d="m 18,21.7 c 0.5,0 0.8,-0.4 0.8,-0.8 0,-0.4 -0.4,-0.8 -0.8,-0.8 -0.4,0 -0.8,0.4 -0.8,0.8 0,0.4 0.4,0.8 0.8,0.8 z m 0,-1.5 c 0.4,0 0.7,0.3 0.7,0.7 0,0.4 -0.3,0.7 -0.7,0.7 -0.4,0 -0.7,-0.3 -0.7,-0.7 0,-0.4 0.3,-0.7 0.7,-0.7 z"
                   class="cls-1"
                   id="path104" />
                <path
                   d="m 36.2,21.7 c 0.5,0 0.8,-0.4 0.8,-0.8 0,-0.4 -0.4,-0.8 -0.8,-0.8 -0.4,0 -0.8,0.4 -0.8,0.8 0,0.4 0.4,0.8 0.8,0.8 z m 0,-1.5 c 0.4,0 0.7,0.3 0.7,0.7 0,0.4 -0.3,0.7 -0.7,0.7 -0.4,0 -0.7,-0.3 -0.7,-0.7 0,-0.4 0.3,-0.7 0.7,-0.7 z"
                   class="cls-1"
                   id="path105" />
              </g>
              <path
                 d="m 19.6,26.4 c 0,0.1 0,0.2 0.2,0.3 0,0 0.2,0 0.2,0 v 0 l 2.3,-0.3 c 0.2,0 0.4,-0.2 0.3,-0.5 v -0.2 c 0,-0.2 -0.3,-0.4 -0.5,-0.3 l -2.3,0.3 c -0.1,0 -0.2,0 -0.3,0.2 -0.1,0.2 0,0.2 0,0.3 v 0.2 c 0,0 0,0 0,0 z m 0.2,-0.5 c 0,0 0.1,-0.1 0.2,-0.1 l 2.3,-0.3 v 0 c 0,0 0.1,0 0.2,0 0,0 0.1,0.1 0.1,0.2 v 0.2 c 0,0.2 0,0.3 -0.2,0.4 l -2.3,0.3 c 0,0 -0.2,0 -0.2,0 0,0 -0.1,-0.1 -0.1,-0.2 v -0.2 c 0,0 0,-0.2 0,-0.2 v 0 z"
                 class="cls-4"
                 id="path106" />
              <path
                 d="m 31.7,26.4 2.3,0.3 v 0 c 0,0 0.2,0 0.2,0 0,0 0.1,-0.2 0.2,-0.3 v -0.2 c 0,-0.1 0,-0.2 0,-0.3 0,0 -0.2,-0.1 -0.3,-0.2 l -2.3,-0.3 c -0.1,0 -0.2,0 -0.3,0 0,0 -0.1,0.2 -0.2,0.3 v 0.2 c 0,0.2 0,0.4 0.3,0.5 v 0 z m -0.2,-0.5 v -0.2 c 0,0 0,-0.2 0.2,-0.2 0.2,0 0.1,0 0.2,0 l 2.3,0.3 c 0,0 0.2,0 0.2,0.1 0,0 0,0.1 0,0.2 v 0.2 c 0,0 0,0.2 -0.2,0.2 -0.2,0 -0.1,0 -0.2,0 l -2.3,-0.3 c -0.2,0 -0.3,-0.2 -0.3,-0.4 z"
                 class="cls-4"
                 id="path107" />
              <path
                 d="m 15.1,14.5 v 0 c 0,0 0,0 0,0 0,0 0,0 0,0.1 0,0 0,0 0.1,0 v 0 z"
                 class="cls-4"
                 id="path108" />
              <path
                 d="m 10,18.8 v 0 c 0,0 0,0 0,-0.1 z"
                 class="cls-4"
                 id="path109" />
              <path
                 d="m 25.5,13.5 v 0 c 0,-0.1 0,-0.1 0,-0.1 0,0 0,0 0,0.1 z"
                 class="cls-4"
                 id="path110" />
              <path
                 d="m 17.1,14 c 0,0 0,0 0,0 v 0 c 0,0 0,0 0,0 0,0 0,0 0,0 z"
                 class="cls-4"
                 id="path111" />
              <path
                 d="m 17.2,13.9 c 0,0 0,0 0,0 0,0 0,0 0,0 0,0 0,0 0,-0.1 z"
                 class="cls-4"
                 id="path112" />
              <path
                 d="m 46.1,16.5 v -0.3 c 0.4,0 0.7,-0.4 0.7,-0.9 0,-0.5 -0.4,-0.9 -0.9,-0.9 -0.5,0 0,0 -0.1,0 0,0 0,-0.2 0,-0.2 0.3,-0.1 0.5,-0.5 0.5,-0.8 0,-0.3 -0.4,-0.9 -0.9,-0.9 -0.5,0 -0.3,0 -0.4,0.1 0,-0.1 -0.2,-0.2 -0.2,-0.3 0.2,-0.2 0.3,-0.4 0.3,-0.7 0,-0.5 -0.4,-0.9 -0.9,-0.9 -0.5,0 -0.5,0.1 -0.7,0.3 0,0 -0.2,-0.2 -0.3,-0.2 0.1,-0.1 0.2,-0.3 0.2,-0.5 0,-0.4 -0.3,-0.8 -0.8,-0.8 -0.5,0 -0.6,0.2 -0.7,0.4 0,0 -0.1,0 -0.2,-0.1 0.1,-0.1 0.2,-0.3 0.2,-0.5 0,-0.4 -0.3,-0.7 -0.7,-0.7 -0.4,0 -0.7,0.3 -0.7,0.6 0,0 -0.1,0 -0.2,0 C 40.4,9.1 40.5,8.9 40.5,8.7 40.5,8.3 40.2,8 39.8,8 39.4,8 39.1,8.3 39.1,8.7 v 0 c -0.2,0 -0.3,0 -0.5,-0.1 0,0 0,-0.2 0,-0.2 0,-0.3 -0.3,-0.6 -0.6,-0.6 -0.3,0 -0.6,0.2 -0.6,0.5 -0.1,0 -0.2,0 -0.3,0 0,0 0,-0.1 0,-0.2 C 37.1,7.7 36.8,7.4 36.4,7.4 36,7.4 35.8,7.6 35.7,8 35.6,7.7 35.3,7.4 34.9,7.4 c -0.4,0 -0.4,0 -0.6,0.2 -0.1,0 -0.2,-0.1 -0.4,-0.2 0,0 0,0 0,0 0,-0.4 -0.3,-0.7 -0.7,-0.7 -0.4,0 -0.4,0.1 -0.6,0.3 -0.1,0 -0.2,0 -0.4,-0.1 0,-0.4 -0.4,-0.8 -0.9,-0.8 -0.5,0 -0.6,0.2 -0.7,0.4 -0.2,0 -0.4,0 -0.6,0 C 29.9,6.2 29.6,6 29.2,6 28.8,6 28.6,6.2 28.5,6.4 28.3,6.4 28.2,6.4 28,6.4 27.9,6.2 27.8,6.1 27.7,6 28.4,5.7 28.9,5 28.9,4.2 28.9,3.4 28.2,2.4 27.3,2.3 V 1.6 h 0.4 V 0.9 H 27.3 V 0.3 h -0.7 v 0.6 h -0.4 v 0.7 h 0.4 v 0.7 c -0.9,0.2 -1.6,1 -1.6,1.9 0,0.9 0.5,1.5 1.2,1.8 0,0 -0.2,0.2 -0.3,0.4 -0.2,0 -0.3,0 -0.5,0 C 25.3,6.2 25,6 24.7,6 24.4,6 24,6.2 23.9,6.5 c -0.2,0 -0.4,0 -0.6,0 -0.1,-0.3 -0.4,-0.4 -0.7,-0.4 -0.5,0 -0.8,0.4 -0.9,0.8 -0.1,0 -0.3,0 -0.4,0.1 C 21.2,6.8 21,6.7 20.7,6.7 20.3,6.7 20,7 20,7.4 c 0,0.4 0,0 0,0 -0.1,0 -0.2,0.1 -0.4,0.2 C 19.5,7.5 19.3,7.4 19,7.4 c -0.4,0 -0.7,0.2 -0.8,0.6 0,-0.3 -0.4,-0.6 -0.7,-0.6 -0.3,0 -0.7,0.3 -0.7,0.7 0,0.4 0,0.1 0,0.2 -0.1,0 -0.2,0 -0.3,0 0,-0.3 -0.3,-0.5 -0.6,-0.5 -0.3,0 -0.6,0.3 -0.6,0.6 0,0.3 0,0.2 0,0.2 -0.2,0 -0.3,0 -0.5,0.1 v 0 C 14.8,8.3 14.5,8 14.1,8 c -0.4,0 -0.7,0.3 -0.7,0.7 0,0.4 0,0.3 0.2,0.5 0,0 -0.1,0 -0.2,0 0,-0.4 -0.3,-0.6 -0.7,-0.6 -0.4,0 -0.7,0.3 -0.7,0.7 0,0.4 0,0.4 0.2,0.5 0,0 -0.1,0 -0.2,0.1 -0.1,-0.3 -0.4,-0.4 -0.7,-0.4 -0.3,0 -0.8,0.3 -0.8,0.8 0,0.5 0,0.4 0.2,0.5 -0.1,0 -0.2,0.1 -0.3,0.2 -0.2,-0.2 -0.4,-0.3 -0.7,-0.3 -0.5,0 -0.9,0.4 -0.9,0.9 0,0.5 0.1,0.5 0.3,0.7 0,0.1 -0.2,0.2 -0.2,0.3 -0.1,0 -0.3,-0.1 -0.4,-0.1 -0.5,0 -0.9,0.4 -0.9,0.9 0,0.5 0.2,0.7 0.5,0.8 0,0 0,0.2 0,0.2 0,0 0,0 -0.1,0 -0.5,0 -0.9,0.4 -0.9,0.9 0,0.5 0.3,0.8 0.7,0.9 0,0.1 0,0.2 0,0.3 -0.3,0.1 -0.6,0.4 -0.6,0.8 0,0.4 0.3,0.8 0.8,0.8 0,0 0,0.1 0,0.2 -0.3,0.1 -0.5,0.4 -0.5,0.7 0,0.3 0.4,0.8 0.8,0.8 0.4,0 0.1,0 0.2,0 0,0 0,0 0,0.1 -0.1,0.2 -0.2,0.4 -0.2,0.6 0,0.3 0.1,0.4 0.3,0.5 0.3,0.2 0.8,0 0.9,-0.1 0.9,0.1 1.4,1.4 1.4,1.4 0,0 0,0.1 0,0.2 0,0.6 0.5,1 1,1 0.5,0 0.5,0 0.7,-0.2 0,0 0.1,0 0.2,0 0.2,0.1 0.4,0.6 0.4,0.6 v 0 c 0,0.3 0.2,0.5 0.4,0.7 0.4,0.3 0.9,0.3 1.2,0.3 v 0 c -0.2,0 -0.3,0.1 -0.5,0.2 v 0 c 0,0 0.3,0.9 0.3,0.9 v 0 c 0.1,0 0.2,-0.1 0.3,-0.1 l 0.3,0.8 -0.4,0.9 0.9,0.4 0.3,0.7 c -0.1,0 -0.2,0 -0.3,0 v 0 c 0,0 0.3,0.9 0.3,0.9 v 0 c 2.8,-0.9 5.7,-1.4 8.5,-1.6 2.3,-0.2 4.6,-0.1 6.8,0.2 3,0.4 5.3,1.1 6.1,1.4 v 0 c 0,0 0.3,-0.8 0.3,-0.8 v 0 c 0,0 -0.2,0 -0.3,-0.1 l 0.3,-0.7 0.9,-0.4 -0.4,-0.9 0.3,-0.8 c 0.2,0 0.3,0.1 0.3,0.1 v 0 c 0,0 0.3,-0.8 0.3,-0.8 v 0 c 0,0 -0.2,0 -0.5,-0.2 h 0.2 c 0.3,0 0.9,0 1.2,-0.3 0.2,-0.2 0.3,-0.4 0.4,-0.7 v 0 c 0,0 0.1,-0.5 0.4,-0.6 0.3,-0.1 0.1,0 0.2,0 0.2,0.1 0.4,0.2 0.7,0.2 0.6,0 1,-0.5 1,-1 0,-0.5 0,-0.1 0,-0.2 0,0 0.5,-1.3 1.4,-1.4 0,0 0.5,0.3 0.9,0.1 0.2,0 0.3,-0.3 0.3,-0.5 0,-0.2 0,-0.5 -0.2,-0.6 0,0 0,0 0,-0.1 0,0 0.1,0 0.2,0 0.4,0 0.8,-0.4 0.8,-0.8 0,-0.4 -0.2,-0.6 -0.5,-0.7 0,0 0,-0.1 0,-0.2 0.4,0 0.8,-0.4 0.8,-0.8 0,-0.4 -0.2,-0.7 -0.6,-0.8 v 0 z m -0.4,-2 c 0,0 0,0 0.1,0 0.1,0 0,0 0.1,0 0.4,0 0.8,0.4 0.8,0.8 0,0.4 -0.3,0.7 -0.7,0.8 0,0 0,0 -0.1,0 v 0 c -0.4,0 -0.8,-0.4 -0.8,-0.8 0,-0.4 0.3,-0.7 0.6,-0.8 z m -0.8,-1.8 c 0,0 0,0 0,0 0.1,0 0.2,0 0.4,0 0.4,0 0.8,0.4 0.8,0.8 0,0.4 -0.2,0.6 -0.4,0.7 0,0 0,0 0,0 0,0 -0.2,0 -0.3,0 -0.4,0 -0.8,-0.4 -0.8,-0.8 0,-0.4 0.1,-0.5 0.3,-0.7 z m -1.4,-1.5 c 0,0 0,0 0,0 0.1,-0.2 0.3,-0.3 0.6,-0.3 0.4,0 0.8,0.3 0.8,0.8 0,0.5 -0.1,0.4 -0.3,0.6 0,0 0,0 0,0 -0.1,0 -0.3,0.1 -0.4,0.1 -0.4,0 -0.8,-0.3 -0.8,-0.8 0,-0.5 0,-0.3 0.1,-0.4 z m -1.6,-1 c 0,0 0,0 0,0 0.1,-0.2 0.3,-0.4 0.6,-0.4 0.3,0 0.7,0.3 0.7,0.7 0,0.4 0,0.3 -0.2,0.4 0,0 0,0 0,0 -0.1,0 -0.3,0.1 -0.4,0.1 -0.4,0 -0.7,-0.3 -0.7,-0.7 0,-0.4 0,-0.1 0,-0.2 z M 40.6,9.4 c 0,-0.3 0.3,-0.6 0.6,-0.6 0.3,0 0.6,0.3 0.6,0.6 0,0.3 0,0.3 -0.2,0.4 0,0 0,0 0,0 0,0 -0.2,0 -0.3,0 -0.3,0 -0.5,-0.2 -0.6,-0.5 0,0 0,0 0,-0.1 v 0 c 0,0 0,0 0,0 z M 39.9,8.2 c 0.3,0 0.6,0.3 0.6,0.6 0,0.3 0,0.3 -0.2,0.4 0,0 0,0 0,0 0,0 -0.2,0 -0.3,0 -0.2,0 -0.5,-0.2 -0.5,-0.4 0,0 0,0 0,-0.1 0,0 0,0 0,0 0,-0.3 0.3,-0.6 0.6,-0.6 v 0 z m -2.3,0.2 c 0,-0.3 0.3,-0.5 0.5,-0.5 0.2,0 0.5,0.2 0.5,0.5 0,0.3 0,0.1 0,0.2 0,0 0,0 0,0 0,0.1 -0.3,0.2 -0.4,0.2 -0.3,0 -0.5,-0.2 -0.5,-0.5 v 0 c 0,-0.1 0,-0.1 0,-0.1 z m -0.4,1.1 c 2.9,0.4 5,1.5 6.1,3.4 0.8,1.3 1,2.7 1,4 0,0.1 0,0.3 0,0.4 0,0.6 -0.1,1.1 -0.2,1.5 0,0 0,0 0,0 v 0 c 0,0 0,0 0,0 -0.1,0.5 -0.2,0.8 -0.2,0.9 -0.5,0.2 -1.3,0.7 -1.3,2 0,0 0,0 0,0 0,-0.2 -0.5,-1.6 -1.7,-1.7 -0.4,0 -0.7,0 -0.9,0.3 -0.3,0.3 -0.2,0.8 -0.2,0.8 0,0 0,0.3 0.2,0.6 -0.2,0 -0.7,-0.1 -0.9,0.2 H 39 c 0,0.1 0.2,0 0.2,0 0,0 0,0 0.2,0 0,0 0.1,0.2 0,0.5 -0.1,0 -0.2,0 -0.2,0 v 0 0 c 0.1,0.4 0,0.8 -0.2,1.1 -0.5,0.5 -1.4,0.7 -2.2,0.4 -1,-0.3 -0.8,-1.1 -0.8,-1.3 0.3,0 0.5,-0.2 0.6,-0.3 0.1,0 0.2,0 0.3,0 0,0.1 0,0.3 0,0.3 v 0 c 0,0 0,0 0,0 0.3,0.3 0.5,0.5 0.8,0.5 v 0 c 0.2,0 0.2,0 0.2,0 0,0 0.5,-0.4 0.4,-1 v 0 c 0.2,-0.1 0.3,-0.3 0.4,-0.5 0.1,-0.3 0,-0.7 0,-0.8 0,-0.2 0.1,-0.3 0.1,-0.3 v 0 c 0,-0.4 0,-0.6 -0.1,-0.8 -0.3,-0.3 -0.9,0 -1,0 v 0 c 0,0 0,0 0,0 0,0.1 -0.1,0.2 -0.2,0.2 0,0 -0.1,0 -0.1,0 v 0 c 0,0 0,0 0,0 0,0 0,0 0,-0.2 0,-0.2 0,-0.1 0,-0.1 0,0 0.2,0 0.2,0 v 0 c 0,0 0,0 0,0 0,0 0.3,-0.2 0.5,-1 0,-0.2 0,-0.4 0,-0.6 -0.1,-0.1 -0.3,-0.2 -0.5,-0.2 0,-0.1 0.3,-0.4 0.8,-0.4 0,0 0,0 0,0 0.4,0 0.7,-0.3 0.7,-0.7 0,-0.4 -0.1,-0.5 -0.3,-0.6 0,0 0,-0.3 0,-0.5 0.4,-0.1 0.6,-0.4 0.6,-0.8 0,-0.4 0,-0.3 -0.1,-0.4 v 0 c 0,0 0,0 0,-0.1 v 0 C 39.2,14.2 39,14 38.8,14 c 0,0 0,0 0,0 0,0 0,-0.1 0,-0.2 0.3,-0.1 0.6,-0.4 0.6,-0.8 0,-0.4 -0.4,-0.9 -0.9,-0.9 -0.5,0 0,0 0,0 0,-0.1 0,-0.3 -0.1,-0.4 0.2,-0.2 0.3,-0.4 0.3,-0.7 0,-0.3 0,-0.3 -0.1,-0.4 0,0 0,0 0,-0.1 -0.2,-0.2 -0.4,-0.4 -0.8,-0.4 -0.4,0 -0.2,0 -0.3,0 0,0 -0.1,-0.2 -0.2,-0.2 0,-0.1 0.1,-0.3 0.1,-0.4 v 0 c 0,0 0,0 0,0 z m 5.1,12.1 c -0.2,-0.1 -0.4,-0.2 -0.6,-0.2 v 0 c -0.6,0 -1,0.6 -1.2,0.8 -0.5,-0.3 -0.6,-1 -0.6,-1 0,0 0,-0.4 0.1,-0.7 0.2,-0.2 0.4,-0.3 0.8,-0.3 0.9,0 1.4,1 1.6,1.4 v 0 z m -8.4,-2 c 0,0 0,-0.6 0.3,-0.7 0.2,0 0.5,0 0.9,0.4 0,0 0,0.2 0,0.3 0,0 0.1,0.1 0.3,0.1 0.2,0 0.3,0 0.3,-0.2 0,-0.1 0,-0.3 -0.2,-0.4 0,-0.2 0,-1.1 0.3,-1.3 0.2,-0.1 0.4,0 0.7,0 0,0 0.3,0.2 0.8,0.2 v 0 c 0,0 0.4,0 0.6,0.2 0,0.1 0.1,0.3 0,0.5 -0.2,0.7 -0.4,0.9 -0.5,0.9 0,0 -0.2,0 -0.3,0 0,0 0,0.1 0,0.2 0,0.3 0,0.3 0.1,0.3 0,0 0.1,0 0.2,0 0,0 0.2,-0.1 0.2,-0.3 0.1,0 0.6,-0.2 0.8,0 0.1,0.1 0.2,0.3 0.1,0.7 0,0 -0.5,1.1 -0.5,1.6 0,0.5 -0.4,0.9 -0.4,0.9 0,0 0,0 -0.2,0 -0.1,0 -0.4,0 -0.7,-0.4 0,0 0,-0.2 0,-0.4 0,0 -0.2,-0.1 -0.4,-0.1 v 0 c 0,0 -0.5,0.4 -0.9,0.3 -0.3,0 -0.5,-0.3 -0.6,-0.6 0,0 -0.1,-0.3 -0.3,-0.3 v 0 c -0.1,0 -0.2,0 -0.3,0.3 -0.1,0 -0.7,0.1 -0.9,-0.1 -0.1,-0.2 -0.1,-0.4 0,-0.8 0,0 0.5,-0.8 0.4,-1.6 v 0 z m -0.4,0.6 c 0,-0.2 0.2,-0.3 0.3,-0.3 0,0.4 -0.2,0.8 -0.3,1 0,-0.3 0,-0.5 0,-0.7 z m 3.2,-2.4 c 0.2,0 0.3,0 0.4,0.1 -0.2,0 -0.3,0 -0.4,-0.1 z m 1.8,-2.1 c -0.4,0 -0.8,-0.3 -0.8,-0.8 0,-0.5 0.3,-0.8 0.8,-0.8 0.5,0 0,0 0,0 0,0 0,0 0.1,0 0.3,0 0.6,0.4 0.6,0.7 0,0.3 -0.2,0.6 -0.5,0.7 0,0 0,0 -0.1,0 0,0 -0.1,0 -0.2,0 v 0 z m 0.5,1.2 c 0,0.3 -0.3,0.6 -0.6,0.6 -0.3,0 -0.6,-0.3 -0.6,-0.6 0,-0.3 0.3,-0.6 0.6,-0.6 0.3,0 0.6,0.3 0.6,0.6 z m -0.5,-3.1 c 0,0 -0.1,0 -0.2,0 -0.4,0 -0.8,-0.3 -0.8,-0.8 0,-0.5 0.3,-0.7 0.6,-0.7 0,0 0,0 0.1,0 v 0 c 0.4,0 0.8,0.3 0.8,0.8 0,0.5 -0.2,0.6 -0.5,0.7 0,0 0,0 -0.1,0 v 0 z m -0.5,-2 c -0.1,0 -0.3,0.1 -0.5,0.1 -0.5,0 -0.8,-0.4 -0.8,-0.8 0,-0.4 0.2,-0.7 0.5,-0.8 0,0 0,0 0.1,0 0,0 0.1,0 0.2,0 0.5,0 0.8,0.4 0.8,0.8 0,0.4 -0.1,0.5 -0.3,0.6 0,0 0,0 0,0 v 0 z m 0.5,9.4 c 0,0.1 0.1,0.4 0,0.6 0,0.1 -0.2,0.3 -0.3,0.3 0,-0.3 0.2,-0.7 0.3,-0.9 z m -2,-13.7 c 0.3,0 0.6,0.3 0.6,0.6 0,0.3 -0.2,0.6 -0.6,0.6 v 0 c 0,0 0,0 -0.1,0 -0.3,0 -0.5,-0.3 -0.5,-0.6 0,-0.3 0.3,-0.6 0.6,-0.6 z M 36,8.9 c 0,0 0,0 0.1,0 0,0 0.1,0 0.2,0 h 0.1 c 0,0 0,0 0,0 0.3,0 0.6,0.4 0.6,0.7 0,0.3 0,0.2 0,0.3 0,0 0,0 0,0 -0.1,0.2 -0.4,0.3 -0.6,0.3 -0.4,0 -0.7,-0.3 -0.7,-0.7 0,-0.4 0.2,-0.5 0.4,-0.7 v 0 z M 34.4,7.7 c 0,0 0,0 0,0 0.1,-0.1 0.3,-0.2 0.5,-0.2 0.4,0 0.7,0.3 0.7,0.7 0,0.4 0,0.1 0,0.2 0,0 0,0 0,0.1 -0.1,0.3 -0.4,0.4 -0.7,0.4 -0.3,0 -0.7,-0.3 -0.7,-0.7 0,-0.4 0,-0.4 0.2,-0.5 z M 32.8,7 c 0,0 0,0 0,0 0.1,-0.1 0.3,-0.2 0.5,-0.2 0.4,0 0.6,0.3 0.6,0.6 v 0 c 0,0 0,0.1 0,0.1 C 33.9,7.8 33.6,8 33.3,8 33,8 32.7,7.7 32.7,7.4 c 0,-0.3 0,-0.2 0.1,-0.3 v 0 z m -2,-0.5 c 0,0 0,0 0,0 0.1,-0.2 0.4,-0.3 0.6,-0.3 0.4,0 0.7,0.3 0.8,0.7 v 0 c 0,0.5 -0.3,0.8 -0.8,0.8 -0.5,0 -0.8,-0.3 -0.8,-0.8 0,-0.5 0,-0.2 0,-0.3 z m 4.9,4 c 0.8,1 1.2,2.2 1.4,3.3 v 0.3 c 0.1,0.5 0.1,0.9 0.2,1.3 0,1.3 -0.2,2.2 -0.2,2.5 -0.1,0 -0.3,0 -0.5,0 v 0 c -0.3,-0.2 -0.6,-0.2 -0.8,0 -0.5,0.3 -0.3,1.4 -0.3,1.5 v 0 c 0,0 0,0 0,0 0,0 0.1,0.2 0.1,0.3 0,0 0,0.2 -0.2,0.2 -0.2,0 -0.1,0 -0.2,0 0,0 0,-0.2 0,-0.2 v 0 c 0,0 0,0 0,0 -0.4,-0.4 -0.7,-0.6 -1,-0.5 -0.4,0.1 -0.4,0.7 -0.4,0.8 0,0 0,0.1 0,0.2 0,0 -0.3,0.1 -0.4,0.4 -0.1,0.2 -0.1,0.5 0,0.9 0,0 0,0.1 0,0.1 v 0 c -0.2,0.4 -0.2,0.7 0,0.9 0.3,0.3 1,0.1 1,0.1 v 0 c 0,-0.2 0.1,-0.3 0.2,-0.3 v 0 c 0,0 0.1,0.1 0.2,0.2 0.1,0.2 0.2,0.4 0.4,0.5 0,0.1 -0.3,0.7 -0.8,0.9 -0.4,0.2 -0.9,0 -1.5,-0.3 v 0 c 0,0 -0.9,-0.4 -0.6,-2.2 0.3,0 0.5,-0.3 0.5,-0.6 0,-0.3 -0.3,-0.7 -0.7,-0.7 -0.4,0 -0.7,0.3 -0.7,0.7 0,0.4 0.2,0.5 0.4,0.6 0,0.2 -0.4,1.2 -1.3,1.7 -0.5,0.3 -1.2,0.4 -2,0.2 0,0 -1.1,-0.3 -1,-1.7 0.3,-0.1 0.5,-0.3 0.6,-0.3 0.1,0 0.2,0 0.2,0 0,0 0,0.2 0,0.2 v 0 c 0,0 0,0 0,0 0,0 0.4,0.2 0.8,0.2 0.4,0 0.2,0 0.3,0 0.2,0 0.3,-0.2 0.4,-0.4 0,-0.2 0,-0.5 0,-0.6 0.2,-0.2 0.2,-0.4 0.2,-0.6 0,-0.3 -0.2,-0.5 -0.3,-0.5 0,-0.3 0,-0.7 -0.3,-0.9 -0.3,-0.2 -1.1,0.1 -1.2,0.2 v 0 c 0,0 0,0.2 -0.1,0.2 0,0 0,0 -0.1,0 0,0 -0.1,0 -0.1,-0.2 0,-0.2 0,-0.2 0.2,-0.2 0,0 0.3,-0.1 0.3,-1.2 0,0 0,-0.1 -0.1,-0.2 0,0 -0.1,0 -0.2,0 0.2,-1 0.4,-2.2 0.5,-3.4 0,0 0,0 0,0 0.2,-1.6 0.2,-3.4 0,-4.8 0,0 0,0 0,-0.1 0,-0.2 0,-0.4 -0.1,-0.6 0,0 0,-0.1 0,-0.2 3.2,0 5.6,1.1 7,2.9 v 0 z m -3.6,10.4 c -0.3,0 -0.6,-0.2 -0.6,-0.6 0,-0.4 0.2,-0.6 0.6,-0.6 0.4,0 0.6,0.2 0.6,0.6 0,0.4 -0.2,0.6 -0.6,0.6 z m -7.8,-0.6 c 0,-0.1 0.1,-0.7 0,-1 0,-0.2 0,-0.7 0.2,-0.9 0,0 0.1,0 0.2,0 0.3,0 0.7,0.1 0.9,0.2 0,0 0,0.2 0.2,0.3 0,0 0.1,0 0.2,0 0.1,0 0.2,-0.1 0.2,-0.3 0,-0.1 -0.1,-0.2 -0.3,-0.3 0,0 -0.2,-0.1 -0.2,-1.1 0,0 0,0 0,-0.2 0,0 0.1,0 0.2,0 0.2,0 0.4,0 0.5,0 0.2,0 0.4,0 0.5,0 0.1,0 0.3,0 0.5,0 0.2,0 0.4,0 0.5,0 0.1,0 0.2,0 0.2,0 0,0 0,0.2 0,0.2 0,0.9 -0.2,1.1 -0.2,1.1 -0.2,0 -0.3,0.2 -0.3,0.3 0,0.1 0,0.2 0.2,0.3 0,0 0.2,0 0.2,0 0.1,0 0.1,-0.2 0.2,-0.3 0.3,-0.1 0.9,-0.3 1.1,-0.2 0.2,0.2 0.3,0.7 0.2,0.9 0,0.3 0,0.9 0,1 0,0 0,0.3 0,0.6 0,0.2 -0.2,0.3 -0.3,0.3 -0.4,0.1 -0.9,-0.1 -1,-0.2 0,0 0,-0.2 -0.1,-0.3 0,0 -0.2,0 -0.4,0 v 0 c 0,0 -0.6,0.4 -1,0.4 v 0 c -0.4,0 -1,-0.4 -1,-0.4 v 0 c -0.1,0 -0.3,0 -0.4,0 -0.1,0 -0.1,0.2 -0.1,0.3 -0.1,0 -0.6,0.3 -1,0.2 -0.1,0 -0.2,-0.2 -0.3,-0.3 0,-0.2 0,-0.5 0,-0.6 v 0 z M 24.2,20.2 C 24.1,20 24,19.9 24,19.7 c 0,-0.2 0.1,-0.3 0.2,-0.4 0,0 0,0 0,0 0,0.2 0,0.7 0,0.9 z M 26.4,5.7 Z m 1.3,0 v 0 z m -0.6,0.5 c 0.4,0 0.8,0.3 0.8,0.8 0,0.5 -0.3,0.8 -0.8,0.8 -0.5,0 -0.8,-0.3 -0.8,-0.8 0,-0.5 0.3,-0.8 0.8,-0.8 z m 0,1.8 C 27.6,8 28,8.4 28,8.9 28,9.4 27.6,9.8 27.1,9.8 26.6,9.8 26.2,9.4 26.2,8.9 26.2,8.4 26.6,8 27.1,8 Z m 0,2.1 c 0.5,0 1,0.4 1,1 0,0.6 -0.4,1 -1,1 -0.6,0 -1,-0.4 -1,-1 0,-0.6 0.4,-1 1,-1 z m 0,2.2 c 0.5,0 1,0.4 1,1 0,0.6 -0.4,1 -1,1 -0.6,0 -1,-0.4 -1,-1 0,-0.6 0.4,-1 1,-1 z m 0,2.2 c 0.6,0 1.1,0.5 1.1,1.1 0,0.6 -0.5,1.1 -1.1,1.1 -0.6,0 -1.1,-0.5 -1.1,-1.1 0,-0.6 0.5,-1.1 1.1,-1.1 z m 0.3,2.4 c -0.1,0 -0.2,0 -0.3,0 -0.1,0 -0.2,0 -0.3,0 0.2,0 0.4,0 0.6,0 z m 2.6,2.4 c 0,0 0,0 0,0 0,0 0.2,0.2 0.2,0.4 0,0.2 0,0.3 -0.2,0.5 0,-0.2 0,-0.7 0,-0.9 z M 28.7,6.2 c 0,0 0,0 0,0 0.1,-0.2 0.3,-0.3 0.6,-0.3 0.3,0 0.5,0.2 0.7,0.4 0,0 0,0 0,0.1 0,0 0,0.1 0,0.2 0,0.4 -0.3,0.7 -0.7,0.7 -0.4,0 -0.7,-0.3 -0.7,-0.7 0,-0.4 0,-0.2 0,-0.3 z m -2.3,-5 V 0.7 h 0.4 V 0.1 h 0.5 v 0.6 h 0.4 V 1.2 H 27.3 V 1.9 H 26.8 V 1.2 Z M 25.2,3.9 C 25.2,2.9 26,2 27.1,2 28.2,2 29,2.8 29,3.9 29,5 28.2,5.8 27.1,5.8 26,5.8 25.2,5 25.2,3.9 Z m -1.1,2.4 c 0,0 0,0 0,-0.1 0.1,-0.3 0.4,-0.4 0.7,-0.4 0.3,0 0.5,0.1 0.6,0.3 0,0 0,0 0,0 0,0 0,0.2 0,0.3 0,0.4 -0.3,0.7 -0.7,0.7 C 24.3,7.1 24,6.8 24,6.4 24,6 24,6.3 24,6.2 Z m -2.2,0.4 c 0,-0.4 0.4,-0.7 0.8,-0.7 0.4,0 0.5,0.1 0.6,0.3 0,0 0,0 0,0 0,0 0,0.2 0,0.3 C 23.3,7 23,7.4 22.5,7.4 22,7.4 21.8,7.1 21.7,6.7 v 0 z m -1,0 c 0.2,0 0.4,0 0.5,0.2 0,0 0,0 0,0 0,0.1 0.1,0.2 0.1,0.3 0,0.4 -0.3,0.6 -0.6,0.6 -0.3,0 -0.6,-0.2 -0.6,-0.5 0,0 0,0 0,-0.1 v 0 c 0,-0.4 0.3,-0.7 0.6,-0.7 v 0 z m 4.6,0.9 c 0,0 0,0.1 0,0.2 0,0.2 0,0.4 -0.1,0.6 0,0 0,0 0,0.1 -0.3,2.6 0.1,5.9 0.6,8.3 -0.1,0 -0.2,0 -0.2,0 -0.1,0 -0.1,0.2 -0.1,0.2 0,1 0.2,1.1 0.3,1.2 0.1,0 0.2,0.1 0.2,0.2 0,0 0,0.1 -0.1,0.2 0,0 0,0 -0.1,0 0,0 -0.1,-0.2 -0.1,-0.2 v 0 c 0,0 0,0 0,0 0,0 -0.9,-0.4 -1.2,-0.2 -0.2,0.2 -0.3,0.6 -0.3,0.9 0,0 -0.2,0.3 -0.3,0.5 0,0.2 0,0.4 0.2,0.6 0,0.1 0,0.4 0,0.6 0,0.2 0.2,0.3 0.4,0.4 0.5,0.2 1.1,-0.2 1.1,-0.2 v 0 c 0,0 0,-0.2 0,-0.3 0,0 0.1,0 0.2,0 0,0 0.3,0.2 0.6,0.3 0.1,1.4 -1,1.7 -1,1.7 -0.8,0.2 -1.4,0.2 -2,-0.2 -0.9,-0.5 -1.2,-1.5 -1.3,-1.7 0.2,0 0.4,-0.3 0.4,-0.6 0,-0.3 -0.3,-0.7 -0.7,-0.7 -0.4,0 -0.7,0.3 -0.7,0.7 0,0.4 0.2,0.6 0.5,0.6 0.3,1.7 -0.6,2.2 -0.6,2.2 v 0 c -0.6,0.4 -1.1,0.5 -1.5,0.3 -0.5,-0.2 -0.8,-0.7 -0.8,-0.9 0.1,-0.1 0.3,-0.3 0.4,-0.5 0,0 0.1,-0.2 0.2,-0.2 v 0 c 0,0 0.1,0 0.2,0.3 v 0 c 0,0 0,0 0,0 0,0 0.7,0.2 1,-0.1 0.2,-0.2 0.2,-0.5 0,-0.9 v 0 c 0,0 0,0 0,-0.1 0.1,-0.3 0.1,-0.6 0,-0.9 -0.1,-0.2 -0.3,-0.3 -0.4,-0.4 0,0 0,-0.1 0,-0.2 0,-0.1 0,-0.6 -0.4,-0.8 -0.3,0 -0.6,0 -1,0.5 v 0 c 0,0 0,0 0,0 0,0 0,0.2 0,0.2 0,0 0,0 -0.2,0 -0.1,0 -0.2,0 -0.2,-0.2 0,-0.1 0,-0.3 0.1,-0.3 v 0 c 0,0 0.1,-1.2 -0.3,-1.5 -0.2,-0.1 -0.5,0 -0.8,0 v 0 c -0.2,0 -0.3,0 -0.5,0 0,-0.2 -0.2,-1.2 -0.2,-2.5 0,-0.4 0,-0.8 0.1,-1.3 0,0 0,-0.2 0,-0.3 0.2,-1.1 0.6,-2.2 1.4,-3.3 1.4,-1.8 3.8,-2.8 7,-2.9 v 0 z m -3.4,13.3 c -0.3,0 -0.6,-0.2 -0.6,-0.6 0,-0.4 0.2,-0.6 0.6,-0.6 0.4,0 0.6,0.2 0.6,0.6 0,0.4 -0.2,0.6 -0.6,0.6 z m -4.7,1.9 c -0.3,0.4 -0.5,0.4 -0.7,0.4 -0.1,0 -0.2,0 -0.2,0 0,0 -0.4,-0.4 -0.4,-0.9 0,-0.5 -0.4,-1.5 -0.5,-1.6 0,-0.3 0,-0.5 0.1,-0.7 0.2,-0.2 0.7,0 0.8,0 0,0.2 0.1,0.2 0.2,0.3 0.1,0 0.2,0 0.2,0 0,0 0.1,0 0.1,-0.3 0,-0.3 0,-0.2 0,-0.2 0,0 -0.2,0 -0.3,0 0,0 -0.3,-0.3 -0.5,-0.9 0,-0.2 0,-0.4 0,-0.5 0.2,-0.2 0.6,-0.2 0.6,-0.2 v 0 c 0.5,0 0.8,-0.2 0.8,-0.2 0.3,-0.2 0.5,-0.2 0.7,0 0.4,0.2 0.3,1.2 0.3,1.3 -0.1,0 -0.2,0.2 -0.2,0.4 0,0.2 0.1,0.2 0.3,0.2 0.2,0 0.2,0 0.3,-0.1 0.1,-0.1 0,-0.2 0,-0.3 0.4,-0.4 0.7,-0.5 0.9,-0.4 0.3,0.1 0.3,0.7 0.3,0.7 0,0.8 0.4,1.5 0.4,1.6 0.2,0.4 0.2,0.7 0,0.8 -0.2,0.2 -0.8,0.1 -0.9,0.1 0,-0.2 -0.2,-0.3 -0.3,-0.3 v 0 c -0.2,0 -0.3,0.2 -0.3,0.3 -0.2,0.3 -0.4,0.5 -0.6,0.6 C 18,23 17.6,22.6 17.6,22.6 v 0 c 0,0 0,0 0,0 -0.2,0 -0.3,0 -0.4,0.1 0,0.1 0,0.3 0,0.4 v 0 z M 16,22.2 c -0.1,0 -0.3,-0.2 -0.3,-0.3 0,-0.2 0,-0.5 0,-0.6 0.1,0.3 0.3,0.7 0.3,0.9 z m -0.3,-6.5 c 0,0 -0.1,0 -0.2,0 0,0 0,0 -0.1,0 -0.3,-0.1 -0.5,-0.4 -0.5,-0.7 0,-0.3 0.2,-0.7 0.6,-0.7 0,0 0,0 0.1,0 0,0 0,0 0,0 0.4,0 0.8,0.3 0.8,0.8 0,0.5 -0.3,0.8 -0.8,0.8 v 0 z m 0.8,1.2 c 0,0.3 -0.3,0.6 -0.6,0.6 -0.3,0 -0.6,-0.3 -0.6,-0.6 0,-0.3 0.3,-0.6 0.6,-0.6 0.3,0 0.6,0.3 0.6,0.6 z m -0.6,-3.1 c 0,0 -0.1,0 -0.2,0 0,0 0,0 -0.1,0 -0.3,-0.1 -0.5,-0.4 -0.5,-0.7 0,-0.3 0.3,-0.8 0.8,-0.8 v 0 c 0,0 0,0 0.1,0 0.3,0 0.6,0.4 0.6,0.7 0,0.3 -0.3,0.8 -0.8,0.8 v 0 z m 0.3,-2 c 0,0 0,0 0,0 -0.2,-0.2 -0.3,-0.4 -0.3,-0.6 0,-0.5 0.4,-0.8 0.8,-0.8 0.4,0 0.1,0 0.2,0 0,0 0,0 0.1,0 0.3,0.1 0.5,0.4 0.5,0.8 0,0.4 -0.4,0.8 -0.8,0.8 -0.4,0 -0.3,0 -0.5,-0.1 v 0 z m 0.9,6.2 c 0,0 0.2,-0.1 0.4,-0.1 0,0 -0.2,0 -0.4,0.1 z m 3.3,1.9 c 0,0 0.2,0.1 0.3,0.3 0,0.2 0,0.4 0,0.7 -0.1,-0.2 -0.2,-0.6 -0.3,-1 z M 19.2,7.5 c 0.2,0 0.3,0 0.5,0.2 0,0 0,0 0,0 0.1,0.1 0.2,0.3 0.2,0.5 0,0.4 -0.3,0.7 -0.7,0.7 -0.4,0 -0.5,-0.2 -0.7,-0.4 0,0 0,0 0,-0.1 0,0 0,-0.1 0,-0.2 0,-0.4 0.3,-0.7 0.7,-0.7 z m -1.5,0 c 0.3,0 0.6,0.3 0.6,0.6 0,0.3 -0.2,0.5 -0.5,0.6 0,0 0,0 -0.1,0 v 0 c -0.3,0 -0.6,-0.3 -0.6,-0.6 0,-0.3 0.3,-0.6 0.6,-0.6 z m 0,1.3 c 0,0 0,0 0,0 v 0 c 0,0 0,0 0,0 v 0 c 0,0 0.1,0 0.2,0 0,0 0,0 0.1,0 0.2,0.1 0.4,0.4 0.4,0.7 0,0.4 -0.3,0.7 -0.7,0.7 -0.4,0 -0.5,-0.1 -0.6,-0.3 0,0 0,0 0,0 0,0 0,-0.2 0,-0.3 0,-0.4 0.3,-0.7 0.6,-0.7 v 0 z M 16.1,7.9 c 0.3,0 0.5,0.2 0.5,0.5 v 0 c 0,0.4 -0.2,0.6 -0.5,0.6 -0.3,0 -0.3,0 -0.4,-0.2 0,0 0,0 0,0 0,0 0,-0.1 0,-0.2 0,-0.3 0.2,-0.5 0.5,-0.5 v 0 z m -2.3,0.9 c 0,-0.3 0.3,-0.6 0.6,-0.6 0.3,0 0.6,0.3 0.6,0.6 0,0.3 0,0 0,0 0,0 0,0 0,0.1 0,0.2 -0.3,0.4 -0.5,0.4 -0.2,0 -0.2,0 -0.3,0 0,0 0,0 0,0 C 14.1,9.2 14,9 14,8.9 v 0 z m -1.4,0.6 c 0,-0.3 0.3,-0.6 0.6,-0.6 0.3,0 0.6,0.3 0.6,0.6 v 0 c 0,0 0,0 0,0.1 0,0.3 -0.3,0.5 -0.6,0.5 -0.3,0 -0.2,0 -0.3,0 0,0 0,0 0,0 C 12.6,9.9 12.5,9.7 12.5,9.6 v 0 z M 11,10.3 c 0,-0.4 0.3,-0.7 0.7,-0.7 0.4,0 0.5,0.2 0.6,0.4 0,0 0,0 0,0 0,0 0,0.1 0,0.2 0,0.4 -0.3,0.7 -0.7,0.7 -0.4,0 -0.3,0 -0.4,-0.1 0,0 0,0 0,0 C 11.1,10.7 11,10.5 11,10.4 Z m 6,-0.8 v 0 c 0,0.2 0,0.3 0.1,0.5 0,0 -0.1,0.2 -0.2,0.2 0,0 -0.2,0 -0.3,0 -0.3,0 -0.6,0.2 -0.8,0.4 0,0 0,0 0,0.1 0,0.1 -0.1,0.3 -0.1,0.4 0,0.3 0.1,0.6 0.3,0.7 0,0.1 0,0.3 -0.1,0.4 0,0 0,0 0,0 -0.5,0 -0.9,0.4 -0.9,0.9 0,0.5 0.2,0.7 0.6,0.8 0,0 0,0.1 0,0.2 0,0 0,0 0,0 -0.4,0 -0.7,0.4 -0.7,0.8 0,0.4 0.3,0.7 0.6,0.8 0,0.3 0,0.5 0,0.5 -0.2,0.1 -0.3,0.3 -0.3,0.6 0,0.4 0.3,0.7 0.7,0.7 0.4,0 0,0 0,0 0.5,0 0.7,0.3 0.8,0.4 -0.1,0 -0.3,0 -0.5,0.2 -0.1,0.1 -0.1,0.3 0,0.6 0.3,0.8 0.5,1 0.5,1 v 0 c 0,0 0,0 0,0 0,0 0.1,0 0.2,0 0,0 0,0 0,0.1 0,0.2 0,0.2 0,0.2 v 0 c 0,0 0,0 -0.1,0 0,0 -0.1,-0.1 -0.2,-0.2 v 0 c 0,0 0,0 0,0 0,0 -0.6,-0.2 -1,0 -0.2,0.1 -0.2,0.4 -0.1,0.8 v 0 c 0,0 0,0.1 0.1,0.3 0,0 -0.2,0.4 0,0.8 0,0.2 0.2,0.3 0.4,0.4 v 0 c 0,0.6 0.4,1 0.4,1 0,0 0,0 0.2,0 v 0 c 0.2,0 0.5,-0.2 0.8,-0.5 v 0 c 0,0 0,0 0,0 0,0 0,-0.2 0,-0.3 0,0 0.1,0 0.3,0 0,0 0.3,0.2 0.6,0.3 0,0.2 0.2,0.9 -0.8,1.3 -0.7,0.2 -1.7,0 -2.2,-0.4 -0.3,-0.3 -0.4,-0.6 -0.2,-1 v 0 c 0,0 0,0 0,0 0,0 0,0 -0.2,0 0,-0.3 0,-0.4 0,-0.5 0,0 0.2,0 0.2,0 h 0.2 c 0,0 -0.1,0 -0.1,0 -0.2,-0.3 -0.7,-0.2 -0.9,-0.2 0.2,-0.3 0.2,-0.6 0.2,-0.6 0,0 0.1,-0.5 -0.2,-0.8 -0.2,-0.2 -0.5,-0.3 -0.9,-0.3 -1.2,0 -1.7,1.5 -1.7,1.7 0,0 0,0 0,0 0,-1.4 -0.8,-1.9 -1.3,-2 0,-0.2 -0.4,-1.2 -0.4,-2.6 0,-0.1 0,-0.3 0,-0.4 0,-1.2 0.2,-2.7 1,-4 1.1,-1.8 3.2,-3 6.1,-3.4 v 0 z M 13.8,22.2 C 13.7,22 13.2,21.5 12.6,21.4 v 0 c -0.2,0 -0.4,0 -0.6,0.2 0.2,-0.4 0.6,-1.4 1.6,-1.4 0.4,0 0.6,0 0.8,0.3 0.2,0.3 0.1,0.7 0.1,0.7 0,0 -0.1,0.7 -0.6,1 v 0 z M 9.4,11.6 c 0,-0.4 0.3,-0.8 0.8,-0.8 0.5,0 0.4,0.1 0.6,0.3 0,0 0,0 0,0 0,0.1 0.1,0.3 0.1,0.4 0,0.4 -0.3,0.8 -0.8,0.8 -0.5,0 -0.3,0 -0.4,-0.1 0,0 0,0 0,0 C 9.5,12.1 9.4,11.9 9.4,11.6 Z m -1.3,1.8 c 0,-0.4 0.4,-0.8 0.8,-0.8 0.4,0 0.3,0 0.4,0 0,0 0,0 0,0 0.2,0.1 0.3,0.4 0.3,0.7 0,0.4 -0.4,0.8 -0.8,0.8 -0.4,0 -0.2,0 -0.3,0 0,0 0,0 0,0 C 8.2,14 8.1,13.7 8.1,13.4 Z m -0.6,1.9 c 0,-0.4 0.4,-0.8 0.8,-0.8 0.4,0 0,0 0.1,0 0,0 0,0 0.1,0 0.3,0 0.6,0.4 0.6,0.8 0,0.4 -0.4,0.8 -0.8,0.8 v 0 c 0,0 0,0 -0.1,0 -0.4,0 -0.7,-0.4 -0.7,-0.8 z M 8.3,18 c -0.4,0 -0.6,-0.4 -0.6,-0.7 0,-0.3 0.2,-0.6 0.5,-0.7 0,0 0,0 0.1,0 0,0 0.1,0 0.2,0 0.4,0 0.8,0.3 0.8,0.8 0,0.5 -0.3,0.8 -0.8,0.8 v 0 c 0,0 0,0 -0.1,0 v 0 z m 0.6,1.7 c 0,0 0,0 0,0 0,0 -0.1,0 -0.2,0 C 8.3,19.7 8,19.4 8,19 c 0,-0.4 0.2,-0.5 0.4,-0.6 0,0 0,0 0.1,0 0,0 0.1,0 0.2,0 0.4,0 0.7,0.3 0.7,0.7 0,0.4 -0.2,0.5 -0.4,0.7 z m 2.2,2 C 10.8,21.2 10.4,21 10,20.9 v 0 c 0,0 -0.5,0.3 -0.8,0.1 -0.1,0 -0.2,-0.2 -0.3,-0.4 0,-0.2 0,-0.4 0.1,-0.5 0.3,-0.3 0.9,-0.3 0.9,-0.3 0,0 0.4,0 0.9,0.3 0.6,0.4 0.8,1 0.8,1.8 0,0 -0.1,0.2 -0.2,0.3 0,-0.1 -0.2,-0.3 -0.3,-0.6 v 0 z m 1.3,1.8 c -0.5,0 -0.9,-0.4 -0.9,-0.9 0,-0.5 0,-0.5 0.3,-0.6 0,0 0,0 0.1,-0.1 0.1,-0.1 0.3,-0.2 0.5,-0.2 0.5,0 0.9,0.4 0.9,0.9 0,0.5 -0.4,0.9 -0.9,0.9 z m 1.2,0.1 c 0,-0.1 -0.2,-0.3 -0.3,-0.4 0,0 0,0 -0.1,0 0.1,-0.2 0.2,-0.4 0.2,-0.7 0,-0.6 -0.5,-1 -1,-1 -0.5,0 -0.1,0 -0.2,0 0.1,0 0.3,0 0.4,0 0.6,0 1.1,0.8 1.1,0.8 v 0 c 0,0 0,0 0,0 0.2,0 0.3,-0.2 0.4,-0.4 0,0 0.6,-0.1 0.8,0 0,0 0,0 -0.1,0 -0.1,0 -0.2,0.3 -0.1,0.5 -0.3,0 -0.6,0.1 -0.9,0.4 -0.2,0.2 -0.3,0.4 -0.3,0.7 v 0 z m 0.4,1 c -0.2,-0.2 -0.3,-0.4 -0.3,-0.7 0,-0.4 0,-0.7 0.3,-0.9 0.3,-0.3 0.9,-0.3 1,-0.3 -0.1,0.4 0,0.8 0.3,1 0.5,0.5 1.5,0.7 2.3,0.4 1,-0.3 0.9,-1.1 0.9,-1.3 0.1,0 0.2,0 0.3,0 0,0 0.2,0 0.2,-0.1 0,0.2 0.3,0.7 0.9,0.9 0.1,0 0.2,0 0.3,0 -1.6,0.3 -3.2,0.7 -4.7,1.2 v 0 c 0,0 -1,0.1 -1.5,-0.3 v 0 z m 2.1,3.2 v 0 c 0,0 -0.7,-0.3 -0.7,-0.3 l 0.3,-0.7 v 0 c 0,0 0,0 0,0 h 1.5 c 0,0 -1.1,1.1 -1.1,1.1 v 0 c 0,0 0,0 0,0 z m 21.9,1 -0.2,0.6 C 37,29.1 34.7,28.4 31.7,28 29.5,27.7 27.2,27.7 24.9,27.8 22,28 19.2,28.5 16.4,29.4 l -0.2,-0.7 c 2.8,-0.8 5.7,-1.4 8.6,-1.6 2.3,-0.2 4.7,0 7,0.2 3.1,0.4 5.4,1.1 6.3,1.4 v 0 z m 0.7,-1.4 -0.7,0.3 v 0 c 0,0 0,0 0,0 l -1.1,-1 h 1.5 c 0,0 0,0 0,0 v 0 c 0,0 0.3,0.8 0.3,0.8 v 0 z m -0.4,-0.8 h -1.8 c 0,0 1.3,1.2 1.3,1.2 l -0.3,0.7 c -1.1,-0.4 -3.2,-0.9 -6,-1.3 -2.3,-0.3 -4.6,-0.3 -7,-0.2 -2.8,0.2 -5.6,0.7 -8.2,1.5 L 16,27.8 17.3,26.6 h -1.8 c 0,0 -0.3,-0.8 -0.3,-0.8 2.7,-1 5.5,-1.6 8.5,-1.8 2.5,-0.2 5.1,-0.1 7.7,0.2 3.5,0.5 6.1,1.3 7,1.6 l -0.3,0.8 v 0 z M 39.2,25.2 39,25.9 C 38.6,25.7 35.8,24.7 31.6,24.2 29,23.9 26.4,23.8 23.9,24 20.8,24.2 17.8,24.9 15,26 l -0.2,-0.7 c 2.8,-1.1 5.8,-1.7 9,-2 2.5,-0.2 5.2,-0.1 7.9,0.2 3.5,0.4 6.5,1.3 7.6,1.7 v 0 z m 1.3,-1.3 c 0,0.3 -0.1,0.5 -0.3,0.7 -0.5,0.4 -1.7,0.3 -1.7,0.3 v 0 c 0,0 0,0 -0.1,0 v 0 c 0,0 0,0 -0.1,0 v 0 c -0.2,0 -0.5,-0.2 -0.9,-0.3 0,0 0,0 0,0 0,0 0,0 -0.1,0 0,0 0,0 0,0 0,0 0,0 -0.1,0 0,0 0,0 0,0 h -0.1 c 0,0 0,0 0,0 0,0 0,0 -0.1,0 0,0 0,0 -0.1,0 0,0 0,0 0,0 0,0 0,0 -0.1,0 -0.1,0 0,0 -0.1,0 0,0 0,0 -0.1,0 0,0 0,0 -0.1,0 0,0 0,0 -0.1,0 0,0 0,0 -0.1,0 0,0 0,0 -0.1,0 0,0 0,0 -0.1,0 0,0 0,0 -0.1,0 0,0 0,0 -0.1,0 0,0 0,0 -0.1,0 0,0 0,0 -0.1,0 0,0 0,0 -0.1,0 0,0 0,0 -0.1,0 0,0 0,0 -0.1,0 0,0 0,0 -0.1,0 0,0 0,0 -0.1,0 0,0 0,0 -0.1,0 0,0 0,0 -0.1,0 0,0 0,0 -0.1,0 0,0 0,0 -0.1,0 0,0 0,0 -0.1,0 0,0 -0.1,0 -0.1,0 0,0 0,0 -0.1,0 0,0 -0.1,0 -0.2,0 0,0 0,0 -0.1,0 H 34 c 0,0 0,0 -0.1,0 0,0 -0.1,0 -0.2,0 0,0 0,0 -0.1,0 0,0 -0.1,0 -0.2,0 0,0 0,0 -0.1,0 0,0 -0.1,0 -0.2,0 0,0 0,0 -0.1,0 0,0 -0.1,0 -0.2,0 0,0 0,0 -0.1,0 -0.1,0 -0.2,0 -0.3,0 -2.7,-0.3 -5.3,-0.4 -7.9,-0.2 -1,0 -1.9,0.2 -2.9,0.3 0.2,0 0.3,-0.1 0.5,-0.3 0,0 1,-0.5 0.7,-2.2 v 0 c 0,0 0.1,0 0.2,0 0,0.2 0.4,1.3 1.3,1.8 0.3,0.2 0.7,0.3 1.1,0.3 0.4,0 0.6,0 0.9,-0.1 0,0 1.2,-0.3 1.1,-1.8 0.1,0 0.3,0 0.4,0 v 0 c 0.1,0 0.2,0 0.4,0 -0.1,1.5 1.1,1.8 1.1,1.8 0.3,0 0.6,0.1 0.9,0.1 0.4,0 0.8,-0.1 1.1,-0.3 0.9,-0.5 1.3,-1.6 1.3,-1.8 0,0 0.1,0 0.2,0 v 0 c -0.3,1.7 0.6,2.2 0.7,2.2 0.4,0.3 0.8,0.4 1.1,0.4 0.3,0 0.3,0 0.4,0 0.5,-0.2 0.8,-0.7 0.9,-0.9 0,0 0.2,0 0.2,0.1 0.1,0 0.2,0 0.3,0 0,0.2 0,1 0.9,1.3 0.8,0.3 1.8,0 2.3,-0.4 0.3,-0.3 0.4,-0.6 0.3,-1 0.2,0 0.7,0 1,0.3 0.2,0.2 0.3,0.5 0.3,0.9 v 0 z m 0.4,-0.7 c -0.1,0 -0.2,0.2 -0.3,0.4 0,-0.3 -0.1,-0.5 -0.3,-0.7 -0.3,-0.2 -0.6,-0.3 -0.9,-0.4 0,-0.3 0,-0.5 -0.1,-0.5 0,0 0,0 -0.1,0 0.3,-0.1 0.7,0 0.8,0 0.1,0.1 0.2,0.3 0.4,0.4 v 0 c 0,0 0,0 0,0 0,0 0.5,-0.7 1.1,-0.8 0.1,0 0.3,0 0.4,0 0,0 -0.1,0 -0.2,0 -0.6,0 -1,0.5 -1,1 0,0.5 0,0.5 0.2,0.7 0,0 0,0 -0.1,0 v 0 z m 1,0.3 c -0.5,0 -0.9,-0.4 -0.9,-0.9 0,-0.5 0.4,-0.9 0.9,-0.9 0.5,0 0.4,0 0.5,0.2 0,0 0,0 0.1,0.1 0.2,0.2 0.3,0.4 0.3,0.6 0,0.5 -0.4,0.9 -0.9,0.9 z m 3.4,-2.9 c 0,0.2 -0.1,0.4 -0.3,0.4 -0.3,0.2 -0.8,-0.1 -0.8,-0.1 v 0 c 0,0 0,0 0,0 -0.4,0 -0.8,0.3 -1.1,0.8 -0.2,0.2 -0.3,0.4 -0.3,0.6 0,-0.1 -0.1,-0.2 -0.2,-0.3 0,-0.8 0.2,-1.5 0.8,-1.8 0.4,-0.3 0.8,-0.3 0.9,-0.3 0,0 0.7,0 0.9,0.3 0.1,0.1 0.2,0.3 0.1,0.5 v 0 z m 0.9,-1.5 c 0,0.4 -0.3,0.7 -0.7,0.7 -0.4,0 -0.1,0 -0.2,0 0,0 0,0 0,0 -0.3,-0.1 -0.4,-0.4 -0.4,-0.7 0,-0.3 0.3,-0.7 0.7,-0.7 0.4,0 0.1,0 0.2,0 0,0 0,0 0.1,0 0.2,0.1 0.4,0.4 0.4,0.6 z M 45.9,18 c 0,0 0,0 -0.1,0 v 0 C 45.4,18 45,17.7 45,17.2 c 0,-0.5 0.3,-0.8 0.8,-0.8 0.5,0 0.1,0 0.2,0 0,0 0,0 0.1,0 0.3,0.1 0.5,0.4 0.5,0.7 0,0.3 -0.3,0.7 -0.6,0.7 v 0 z"
                 class="cls-1"
                 id="path113" />
              <g
                 id="g117">
                <path
                   d="m 36.5,17.8 v 0 c 0.2,0 0.3,0 0.5,0 0,-0.2 0.2,-1.2 0.2,-2.5 0,-0.4 0,-0.8 -0.1,-1.2 0,0 0,0 0,0 0,0 0,0 0,-0.1 -0.3,-0.2 -1.2,-0.7 -2.5,-1 -1.4,-0.4 -3.6,-0.6 -5.8,0.5 0,0 0,0 0,0.1 -0.1,1.2 -0.3,2.4 -0.5,3.4 0.1,0 0.2,0 0.2,0 0.1,0 0.1,0.2 0.1,0.2 0,1 -0.2,1.1 -0.3,1.2 -0.1,0 -0.2,0.1 -0.2,0.2 0,0 0,0.1 0.1,0.2 0,0 0,0 0.1,0 0,0 0.1,-0.2 0.1,-0.2 v 0 c 0,0 0,0 0,0 0,0 0.9,-0.4 1.2,-0.2 0.2,0.2 0.3,0.6 0.3,0.9 0,0 0.2,0.3 0.3,0.5 0,0.2 0,0.4 -0.2,0.6 0,0.1 0,0.4 0,0.6 0,0.2 -0.2,0.3 -0.4,0.4 0,0 -0.2,0 -0.3,0 -0.4,0 -0.8,-0.2 -0.8,-0.2 v 0 c 0,0 0,-0.2 0,-0.3 0,0 -0.1,0 -0.2,0 0,0 -0.3,0.2 -0.6,0.3 -0.1,1.4 1,1.7 1,1.7 0.8,0.2 1.4,0.2 2,-0.2 0.9,-0.5 1.2,-1.5 1.3,-1.7 -0.2,0 -0.4,-0.3 -0.4,-0.6 0,-0.3 0.3,-0.7 0.7,-0.7 0.4,0 0.7,0.3 0.7,0.7 0,0.4 -0.2,0.6 -0.5,0.6 -0.3,1.7 0.6,2.2 0.6,2.2 v 0 c 0.6,0.4 1.1,0.5 1.5,0.3 0.5,-0.2 0.8,-0.7 0.8,-0.9 -0.1,-0.1 -0.3,-0.3 -0.4,-0.5 0,0 -0.1,-0.2 -0.2,-0.2 v 0 c 0,0 -0.1,0 -0.2,0.3 v 0 c 0,0 0,0 0,0 0,0 -0.7,0.2 -1,-0.1 -0.2,-0.2 -0.2,-0.5 0,-0.9 v 0 c 0,0 0,0 0,-0.1 -0.1,-0.3 -0.1,-0.6 0,-0.9 0.1,-0.2 0.3,-0.3 0.4,-0.4 0,0 0,-0.1 0,-0.2 0,-0.1 0,-0.6 0.4,-0.8 0.3,0 0.6,0 1,0.5 v 0 c 0,0 0,0 0,0 0,0 0,0.2 0,0.2 0,0 0,0 0.2,0 0.1,0 0.2,0 0.2,-0.2 0,-0.1 0,-0.3 -0.1,-0.3 v 0 c 0,0 -0.1,-1.2 0.3,-1.5 0.2,-0.1 0.5,0 0.8,0 v 0 z"
                   class="cls-5"
                   id="path114" />
                <path
                   d="m 17.7,22.4 c -0.1,0 -0.2,0 -0.3,0 0,0.1 0,0.3 0,0.3 v 0 c 0,0 0,0 0,0 -0.3,0.3 -0.5,0.5 -0.8,0.5 v 0 c -0.2,0 -0.2,0 -0.2,0 0,0 -0.5,-0.4 -0.4,-1 v 0 c -0.2,-0.1 -0.3,-0.3 -0.4,-0.5 -0.1,-0.3 0,-0.7 0,-0.8 0,-0.2 -0.1,-0.3 -0.1,-0.3 v 0 c 0,-0.4 0,-0.6 0.1,-0.8 0.3,-0.3 0.9,0 1,0 v 0 c 0,0 0,0 0,0 0,0.1 0.1,0.2 0.2,0.2 0,0 0.1,0 0.1,0 v 0 c 0,0 0,0 0,0 0,0 0,0 0,-0.2 0,-0.2 0,-0.1 0,-0.1 0,0 -0.2,0 -0.2,0 v 0 c 0,0 0,0 0,0 0,0 -0.3,-0.2 -0.5,-1 0,-0.2 0,-0.4 0,-0.6 0.1,-0.1 0.3,-0.2 0.5,-0.2 0,-0.1 -0.3,-0.4 -0.8,-0.4 0,0 0,0 0,0 -0.4,0 -0.7,-0.3 -0.7,-0.7 0,-0.4 0.1,-0.5 0.3,-0.6 0,0 0,-0.3 0,-0.5 -0.4,-0.1 -0.6,-0.4 -0.6,-0.8 0,-0.4 0,-0.3 0.1,-0.4 0,0 0,0 0,-0.1 -1.8,0.5 -3.1,1.6 -3.8,2.6 -0.6,0.8 -1,1.5 -1.1,1.8 0,0 0,0.1 0,0.2 0.1,0.5 0.2,0.8 0.2,0.9 0.5,0.2 1.3,0.7 1.3,2 0,0 0,0 0,0 0,-0.2 0.5,-1.6 1.7,-1.7 0.4,0 0.7,0 0.9,0.3 0.3,0.3 0.2,0.8 0.2,0.8 0,0 0,0.3 -0.2,0.6 0.2,0 0.7,-0.1 0.9,0.2 h 0.1 c 0,0.1 -0.2,0 -0.2,0 0,0 0,0 -0.2,0 0,0 -0.1,0.2 0,0.5 0.1,0 0.2,0 0.2,0 v 0 0 c -0.1,0.4 0,0.8 0.2,1.1 0.5,0.5 1.4,0.7 2.2,0.4 1,-0.3 0.8,-1.1 0.8,-1.3 -0.3,0 -0.5,-0.2 -0.6,-0.3 v 0 z"
                   class="cls-5"
                   id="path115" />
                <path
                   d="m 26,20.8 c -0.1,0 -0.2,0 -0.2,0 0,0 0,0.2 0,0.2 v 0 c 0,0 0,0 0,0 0,0 -0.6,0.4 -1.1,0.2 -0.2,0 -0.3,-0.2 -0.4,-0.4 0,-0.2 0,-0.5 0,-0.6 -0.2,-0.2 -0.2,-0.4 -0.2,-0.6 0,-0.3 0.2,-0.5 0.3,-0.5 0,-0.3 0,-0.7 0.3,-0.9 0.3,-0.2 1.1,0.1 1.2,0.2 v 0 c 0,0 0,0.2 0.1,0.2 0,0 0,0 0.1,0 0,0 0.1,0 0.1,-0.2 0,-0.2 0,-0.2 -0.2,-0.2 0,0 -0.3,-0.1 -0.3,-1.2 0,0 0,-0.1 0.1,-0.2 0,0 0.1,0 0.2,0 -0.2,-1 -0.4,-2.2 -0.5,-3.4 0,0 0,0 0,-0.1 -2.2,-1.1 -4.4,-0.8 -5.8,-0.5 -1.2,0.3 -2.1,0.8 -2.5,1 0,0 0,0 0,0.1 0,0 0,0 0,0 0,0.4 0,0.9 -0.1,1.2 0,1.3 0.2,2.2 0.2,2.5 0.1,0 0.3,0 0.5,0 v 0 c 0.3,-0.2 0.6,-0.2 0.8,0 0.5,0.3 0.3,1.4 0.3,1.5 v 0 c 0,0 0,0 0,0 0,0 -0.1,0.2 -0.1,0.3 0,0 0,0.2 0.2,0.2 0.2,0 0.1,0 0.2,0 0,0 0,-0.2 0,-0.2 v 0 c 0,0 0,0 0,0 0.4,-0.4 0.7,-0.6 1,-0.5 0.4,0.1 0.4,0.7 0.4,0.8 0,0 0,0.1 0,0.2 0,0 0.3,0.1 0.4,0.4 0.1,0.2 0.1,0.5 0,0.9 0,0 0,0.1 0,0.1 v 0 c 0.2,0.4 0.2,0.7 0,0.9 -0.3,0.3 -1,0.1 -1,0.1 v 0 C 20,22.1 19.9,22 19.8,22 v 0 c 0,0 -0.1,0.1 -0.2,0.2 -0.1,0.2 -0.2,0.4 -0.4,0.5 0,0.1 0.3,0.7 0.8,0.9 0.4,0.2 0.9,0 1.5,-0.3 v 0 c 0,0 0.9,-0.4 0.6,-2.2 -0.3,0 -0.5,-0.3 -0.5,-0.6 0,-0.3 0.3,-0.7 0.7,-0.7 0.4,0 0.7,0.3 0.7,0.7 0,0.4 -0.2,0.5 -0.4,0.6 0,0.2 0.4,1.2 1.3,1.7 0.5,0.3 1.2,0.4 2,0.2 0,0 1.1,-0.3 1,-1.7 C 26.6,21.2 26.4,21 26.3,21 v 0 z"
                   class="cls-5"
                   id="path116" />
                <path
                   d="m 43,16.9 c -0.7,-0.9 -2,-2.1 -3.8,-2.6 0,0 0,0 0,0.1 0,0.1 0.1,0.3 0.1,0.4 0,0.4 -0.3,0.7 -0.6,0.8 0,0.3 0,0.5 0,0.5 0.2,0.1 0.3,0.3 0.3,0.6 0,0.4 -0.3,0.7 -0.7,0.7 -0.4,0 0,0 0,0 -0.5,0 -0.7,0.3 -0.8,0.4 0.1,0 0.3,0 0.5,0.2 0.1,0.1 0.1,0.3 0,0.6 -0.3,0.8 -0.5,1 -0.5,1 v 0 c 0,0 0,0 0,0 0,0 -0.1,0 -0.2,0 0,0 0,0 0,0.1 0,0.2 0,0.2 0,0.2 v 0 c 0,0 0,0 0.1,0 0,0 0.1,-0.1 0.2,-0.2 v 0 c 0,0 0,0 0,0 0,0 0.6,-0.2 1,0 0.2,0.1 0.2,0.4 0.1,0.8 v 0 c 0,0 0,0.1 -0.1,0.3 0,0 0.2,0.4 0,0.8 0,0.2 -0.2,0.3 -0.4,0.4 v 0 c 0,0.6 -0.4,1 -0.4,1 0,0 0,0 -0.2,0 v 0 c -0.2,0 -0.5,-0.2 -0.8,-0.5 v 0 c 0,0 0,0 0,0 0,0 0,-0.2 0,-0.3 0,0 -0.1,0 -0.3,0 0,0 -0.3,0.2 -0.6,0.3 0,0.2 -0.2,0.9 0.8,1.3 0.7,0.2 1.7,0 2.2,-0.4 0.3,-0.3 0.4,-0.6 0.2,-1 v 0 c 0,0 0,0 0,0 0,0 0,0 0.2,0 0,-0.3 0,-0.4 0,-0.5 0,0 -0.2,0 -0.2,0 h -0.2 c 0,0 0.1,0 0.1,0 0.2,-0.3 0.7,-0.2 0.9,-0.2 -0.2,-0.3 -0.2,-0.6 -0.2,-0.6 0,0 -0.1,-0.5 0.2,-0.8 0.2,-0.2 0.5,-0.3 0.9,-0.3 1.2,0 1.7,1.5 1.7,1.7 0,0 0,0 0,0 0,-1.4 0.8,-1.9 1.3,-2 0,0 0.1,-0.4 0.2,-0.9 0,0 0,-0.1 0,-0.2 -0.1,-0.3 -0.5,-1 -1.1,-1.8 v 0 z"
                   class="cls-5"
                   id="path117" />
              </g>
              <path
                 d="m 37.1,14 c 0,0 0,0 0,0 0,0 0,0 0,0 0,0 0,0 0,0.1 v 0 z"
                 class="cls-4"
                 id="path118" />
            </g>
            <path
               d="m 50.2,50.8 c 0.7,-5.1 3.9,-9.9 3.9,-9.9 L 43,27.9 c -5.5,2.7 -10.9,3.6 -15.7,3.6 -9.5,0 -16.4,-3.6 -16.4,-3.6 L 0,40.9 c 0,0 3.4,4.1 4.1,10 0.7,5.9 -3.3,12.2 -3.3,12.2 l 26.2,17 26.1,-17 c 0,0 -3.7,-7.1 -3,-12.2 v 0 z M 3.8,62.3 C 5.1,59.8 6.9,55.2 6.4,50.6 5.9,46.3 4.1,42.9 2.9,41 l 8.7,-10.4 c 2.7,1.1 8.5,3.1 15.8,3.1 7.3,0 10.3,-1 15.1,-3.1 l 8.9,10.5 c -1.1,1.9 -2.9,5.5 -3.4,9.3 -0.6,4.1 1.2,9 2.3,11.6 L 27,77.2 Z"
               class="cls-2"
               id="path119" />
            <path
               d="m 27.2,37.6 c 9.3,0 16.8,6.9 16.8,15.3 0,8.4 -7.6,15.3 -16.8,15.3 -9.2,0 -16.8,-6.9 -16.8,-15.3 0,-8.4 7.6,-15.3 16.8,-15.3 m 0,-2.4 c -10.6,0 -19.3,7.9 -19.3,17.7 0,9.8 8.6,17.7 19.3,17.7 10.7,0 19.3,-7.9 19.3,-17.7 0,-9.8 -8.6,-17.7 -19.3,-17.7 z"
               class="cls-4"
               id="path120" />
            <g
               id="g127">
              <path
                 d="m 24.7,42.4 c -1.5,0.1 -2.8,0.4 -3.9,0.8 v 2.7 c 1.1,-0.5 2.4,-0.8 3.9,-1 v -2.6 0 z"
                 class="cls-2"
                 id="path121" />
              <path
                 d="m 37.9,46.1 c 0,0.5 0,1 -0.2,1.5 1.2,0.6 1.8,1.1 1.8,1.1 l 1.5,-2 c -0.1,0 -1.3,-0.9 -3.3,-1.9 0,0.4 0.1,0.9 0.1,1.3 v 0 z"
                 class="cls-2"
                 id="path122" />
              <path
                 d="m 15.2,52.9 c 0,-1 0.4,-2.7 1.8,-4.3 v -3.5 c -3.4,2.5 -4.3,6.1 -4.3,7.8 0,2.6 2.3,9.7 12,10.5 v -2.6 c -7.7,-0.8 -9.5,-6 -9.5,-8 z"
                 class="cls-2"
                 id="path123" />
              <path
                 d="m 28.6,60.9 v 2.5 c 7.3,-0.5 12.3,-4.1 12.5,-4.3 l -1.5,-2 c 0,0 -4.5,3.2 -11,3.8 z"
                 class="cls-2"
                 id="path124" />
              <path
                 d="m 34.2,64.3 h 2.9 V 62 c -0.8,0.4 -1.8,0.7 -2.9,1 z"
                 class="cls-2"
                 id="path125" />
              <path
                 d="m 17.6,64.3 h 2.5 v -1.2 c -0.9,-0.3 -1.8,-0.8 -2.5,-1.2 z"
                 class="cls-2"
                 id="path126" />
              <path
                 d="m 34.2,56.4 v 2.7 c 1.1,-0.4 2.1,-0.8 2.9,-1.2 v -1.7 c 0,-3.5 -2.5,-4.4 -2.5,-4.4 0,0 2.8,-2.3 2.8,-5.7 0,-3.4 -2.1,-6.2 -7.2,-6.2 h -4.8 v 11 H 20.3 V 40.6 c -0.9,0.4 -1.7,0.9 -2.5,1.5 v 15 c 0.6,0.7 1.5,1.4 2.5,2 v -5.7 h 5.1 V 64 h 2.7 V 53.4 h 3.4 c 2,0 2.8,1.4 2.8,3.1 v 0 z M 28,44.9 c 0.3,0 0.6,0 0.9,0 0.1,0 0.3,0 0.4,0 0.3,0 0.6,0 0.9,0.1 0.1,0 0.2,0 0.3,0 0.2,0 0.5,0 0.7,0.1 1.1,0.2 2.2,0.5 3.1,0.8 v 0 c 0,-0.6 -0.2,-1.2 -0.5,-1.6 -0.5,-0.9 -1.4,-1.7 -2,-2.2 1.1,0.3 3.1,1.4 3.1,3.8 0,2.4 -1.7,4.8 -3.5,4.8 H 28 v -6 0 z"
                 class="cls-2"
                 id="path127" />
            </g>
          </g>
          <line
             y2="76.699997"
             x2="64.5"
             y1="28.200001"
             x1="64.5"
             class="cls-3"
             id="line128" />
          <g
             id="g165">
            <path
               d="m 80.2,42.8 v 0.8 h -2 v 5.6 h -0.9 v -5.6 h -2 v -0.8 z"
               class="cls-2"
               id="path128" />
            <path
               d="m 82.2,43.2 c 0,0 -0.2,0.1 -0.3,0.1 -0.1,0 -0.2,0 -0.3,-0.1 -0.1,-0.1 -0.1,-0.2 -0.1,-0.3 0,-0.1 0,-0.2 0.1,-0.3 0.1,-0.1 0.2,-0.1 0.3,-0.1 0.1,0 0.2,0 0.3,0.1 0.1,0.1 0.1,0.2 0.1,0.3 0,0.1 0,0.2 -0.1,0.3 z m 0,1 v 5 h -0.8 v -5 z"
               class="cls-2"
               id="path129" />
            <path
               d="m 88.5,46.7 c 0,0.1 0,0.3 0,0.4 h -4.1 c 0,0.4 0.2,0.8 0.5,1 0.3,0.3 0.7,0.4 1.1,0.4 0.7,0 1.2,-0.3 1.5,-0.9 l 0.8,0.2 c -0.2,0.4 -0.5,0.8 -0.9,1 -0.4,0.2 -0.9,0.4 -1.4,0.4 -0.5,0 -0.9,-0.1 -1.3,-0.3 -0.4,-0.2 -0.7,-0.5 -0.9,-0.9 -0.2,-0.4 -0.3,-0.8 -0.3,-1.3 0,-0.5 0.1,-0.9 0.3,-1.3 0.2,-0.4 0.5,-0.7 0.9,-0.9 0.4,-0.2 0.8,-0.3 1.3,-0.3 0.5,0 0.9,0.1 1.3,0.3 0.4,0.2 0.7,0.5 0.9,0.9 0.2,0.4 0.3,0.8 0.3,1.3 z M 86,44.9 c -0.4,0 -0.8,0.1 -1.1,0.4 -0.3,0.2 -0.5,0.6 -0.6,1 h 3.2 c 0,-0.4 -0.2,-0.8 -0.5,-1 -0.3,-0.2 -0.7,-0.4 -1.1,-0.4 v 0 z"
               class="cls-2"
               id="path130" />
            <path
               d="m 93.3,49.2 v -2.9 c 0,-0.5 -0.1,-0.8 -0.3,-1.1 -0.2,-0.3 -0.5,-0.4 -1,-0.4 -0.5,0 -0.8,0.2 -1,0.5 -0.3,0.3 -0.4,0.7 -0.4,1.2 v 2.7 h -0.8 v -5 h 0.8 v 1 c 0.1,-0.4 0.3,-0.6 0.6,-0.8 0.3,-0.2 0.6,-0.3 1.1,-0.3 0.6,0 1.1,0.2 1.4,0.6 0.3,0.4 0.5,0.9 0.5,1.5 v 3 h -0.8 v 0 z"
               class="cls-2"
               id="path131" />
            <path
               d="m 99.7,42.6 h 0.8 v 6.6 H 99.7 V 48 c -0.2,0.4 -0.4,0.7 -0.7,0.9 -0.3,0.2 -0.7,0.3 -1.2,0.3 -0.5,0 -0.9,-0.1 -1.3,-0.3 -0.4,-0.2 -0.7,-0.5 -0.9,-0.9 -0.2,-0.4 -0.3,-0.8 -0.3,-1.3 0,-0.8 0.2,-1.4 0.7,-1.9 0.5,-0.5 1.1,-0.7 1.8,-0.7 0.7,0 0.9,0.1 1.2,0.3 0.3,0.2 0.6,0.5 0.7,0.9 v -2.8 0 z m -1.8,5.9 c 0.5,0 0.9,-0.2 1.2,-0.5 0.3,-0.3 0.5,-0.7 0.5,-1.3 0,-0.6 -0.1,-1 -0.5,-1.3 -0.3,-0.3 -0.7,-0.5 -1.2,-0.5 -0.5,0 -0.9,0.2 -1.2,0.5 -0.3,0.3 -0.5,0.7 -0.5,1.3 0,0.6 0.2,1 0.5,1.3 0.3,0.3 0.7,0.5 1.2,0.5 z"
               class="cls-2"
               id="path132" />
            <path
               d="m 106.2,44.2 h 0.8 v 5 h -0.8 V 48 c -0.2,0.4 -0.4,0.7 -0.7,0.9 -0.3,0.2 -0.7,0.3 -1.2,0.3 -0.7,0 -1.3,-0.2 -1.8,-0.7 -0.5,-0.5 -0.7,-1.1 -0.7,-1.9 0,-0.8 0.1,-0.9 0.3,-1.3 0.2,-0.4 0.5,-0.7 0.9,-0.9 0.4,-0.2 0.8,-0.3 1.3,-0.3 0.5,0 0.9,0.1 1.2,0.3 0.3,0.2 0.6,0.5 0.7,0.9 v -1.2 0 z m -3.1,3.8 c 0.3,0.3 0.7,0.5 1.2,0.5 0.5,0 0.9,-0.2 1.2,-0.5 0.3,-0.3 0.5,-0.8 0.5,-1.3 0,-0.5 -0.2,-0.9 -0.5,-1.3 -0.3,-0.4 -0.7,-0.5 -1.2,-0.5 -0.5,0 -0.9,0.2 -1.2,0.5 -0.3,0.3 -0.5,0.8 -0.5,1.3 0,0.5 0.2,1 0.5,1.3 z"
               class="cls-2"
               id="path133" />
            <path
               d="m 113.9,49.2 c -0.4,0 -0.9,0 -1.2,-0.2 -0.3,-0.2 -0.7,-0.4 -1,-0.6 -0.3,-0.2 -0.5,-0.6 -0.7,-1 -0.2,-0.4 -0.2,-0.9 -0.2,-1.4 0,-0.5 0,-0.9 0.2,-1.4 0.2,-0.4 0.4,-0.8 0.7,-1 0.3,-0.2 0.6,-0.5 1,-0.6 0.4,-0.1 0.8,-0.2 1.2,-0.2 0.4,0 1.1,0.1 1.6,0.4 0.5,0.3 0.8,0.6 1.1,1.1 0.3,0.5 0.4,1.1 0.4,1.7 0,0.6 -0.1,1.2 -0.4,1.7 -0.3,0.5 -0.7,0.9 -1.1,1.1 -0.4,0.2 -1,0.4 -1.6,0.4 z m -1.6,-1.4 c 0.4,0.4 0.9,0.6 1.6,0.6 0.7,0 1.2,-0.2 1.6,-0.6 0.4,-0.4 0.6,-1 0.6,-1.8 0,-0.8 -0.2,-1.3 -0.6,-1.8 -0.4,-0.5 -0.9,-0.6 -1.6,-0.6 -0.7,0 -1.2,0.2 -1.6,0.6 -0.4,0.4 -0.6,1 -0.6,1.8 0,0.8 0.2,1.3 0.6,1.8 z"
               class="cls-2"
               id="path134" />
            <path
               d="m 120.5,43.4 c -0.3,0 -0.5,0 -0.6,0.2 -0.1,0.1 -0.2,0.4 -0.2,0.7 v 0.4 h 1.1 v 0.7 h -1.1 v 3.8 h -0.8 v -3.8 h -0.5 v -0.7 h 0.5 v -0.5 c 0,-0.5 0.1,-0.9 0.4,-1.1 0.3,-0.3 0.6,-0.4 1.1,-0.4 0.5,0 0.7,0 1,0.3 l -0.2,0.6 c -0.1,-0.1 -0.3,-0.2 -0.6,-0.2 v 0 z"
               class="cls-2"
               id="path135" />
            <path
               d="m 123.3,43.2 c 0,0 -0.2,0.1 -0.3,0.1 -0.1,0 -0.2,0 -0.3,-0.1 -0.1,-0.1 -0.1,-0.2 -0.1,-0.3 0,-0.1 0,-0.2 0.1,-0.3 0.1,-0.1 0.2,-0.1 0.3,-0.1 0.1,0 0.2,0 0.3,0.1 0.1,0.1 0.1,0.2 0.1,0.3 0,0.1 0,0.2 -0.1,0.3 z m 0,1 v 5 h -0.8 v -5 z"
               class="cls-2"
               id="path136" />
            <path
               d="m 127.1,48.5 c 0.4,0 0.7,0 0.9,-0.3 0.2,-0.3 0.5,-0.4 0.6,-0.7 h 0.8 c -0.2,0.6 -0.5,1 -0.9,1.3 -0.4,0.3 -0.9,0.4 -1.5,0.4 -0.6,0 -0.9,-0.1 -1.3,-0.3 -0.4,-0.2 -0.7,-0.5 -0.9,-0.9 -0.2,-0.4 -0.3,-0.8 -0.3,-1.4 0,-0.6 0.1,-1 0.3,-1.4 0.2,-0.4 0.5,-0.7 0.9,-0.9 0.4,-0.2 0.8,-0.3 1.3,-0.3 0.5,0 1.1,0.1 1.5,0.4 0.4,0.3 0.7,0.7 0.9,1.2 h -0.8 c -0.1,-0.2 -0.3,-0.4 -0.6,-0.6 -0.3,-0.2 -0.6,-0.3 -0.9,-0.3 -0.3,0 -0.9,0.2 -1.2,0.5 -0.3,0.3 -0.5,0.8 -0.5,1.3 0,0.5 0.2,0.9 0.5,1.3 0.3,0.4 0.7,0.5 1.2,0.5 v 0 z"
               class="cls-2"
               id="path137" />
            <path
               d="m 131.4,43.2 c 0,0 -0.2,0.1 -0.3,0.1 -0.1,0 -0.2,0 -0.3,-0.1 -0.1,-0.1 -0.1,-0.2 -0.1,-0.3 0,-0.1 0,-0.2 0.1,-0.3 0.1,-0.1 0.2,-0.1 0.3,-0.1 0.1,0 0.2,0 0.3,0.1 0.1,0.1 0.1,0.2 0.1,0.3 0,0.1 0,0.2 -0.1,0.3 z m 0.1,1 v 5 h -0.8 v -5 z"
               class="cls-2"
               id="path138" />
            <path
               d="m 137.1,44.2 h 0.8 v 5 h -0.8 V 48 c -0.2,0.4 -0.4,0.7 -0.7,0.9 -0.3,0.2 -0.7,0.3 -1.2,0.3 -0.7,0 -1.3,-0.2 -1.8,-0.7 -0.5,-0.5 -0.7,-1.1 -0.7,-1.9 0,-0.8 0.1,-0.9 0.3,-1.3 0.2,-0.4 0.5,-0.7 0.9,-0.9 0.4,-0.2 0.8,-0.3 1.3,-0.3 0.5,0 0.9,0.1 1.2,0.3 0.3,0.2 0.6,0.5 0.7,0.9 v -1.2 0 z M 134,48 c 0.3,0.3 0.7,0.5 1.2,0.5 0.5,0 0.9,-0.2 1.2,-0.5 0.3,-0.3 0.5,-0.8 0.5,-1.3 0,-0.5 -0.2,-0.9 -0.5,-1.3 -0.3,-0.4 -0.7,-0.5 -1.2,-0.5 -0.5,0 -0.9,0.2 -1.2,0.5 -0.3,0.3 -0.5,0.8 -0.5,1.3 0,0.5 0.2,1 0.5,1.3 z"
               class="cls-2"
               id="path139" />
            <path
               d="m 140.2,42.6 v 6.6 h -0.8 v -6.6 z"
               class="cls-2"
               id="path140" />
            <path
               d="m 148.4,42.6 h 0.8 v 6.6 h -0.8 V 48 c -0.2,0.4 -0.4,0.7 -0.7,0.9 -0.3,0.2 -0.7,0.3 -1.2,0.3 -0.5,0 -0.9,-0.1 -1.3,-0.3 -0.4,-0.2 -0.7,-0.5 -0.9,-0.9 -0.2,-0.4 -0.3,-0.8 -0.3,-1.3 0,-0.8 0.2,-1.4 0.7,-1.9 0.5,-0.5 1.1,-0.7 1.8,-0.7 0.7,0 0.9,0.1 1.2,0.3 0.3,0.2 0.6,0.5 0.7,0.9 v -2.8 0 z m -1.9,5.9 c 0.5,0 0.9,-0.2 1.2,-0.5 0.3,-0.3 0.5,-0.7 0.5,-1.3 0,-0.6 -0.1,-1 -0.5,-1.3 -0.3,-0.3 -0.7,-0.5 -1.2,-0.5 -0.5,0 -0.9,0.2 -1.2,0.5 -0.3,0.3 -0.5,0.7 -0.5,1.3 0,0.6 0.2,1 0.5,1.3 0.3,0.3 0.7,0.5 1.2,0.5 z"
               class="cls-2"
               id="path141" />
            <path
               d="m 155.5,46.7 c 0,0.1 0,0.3 0,0.4 h -4.1 c 0,0.4 0.2,0.8 0.5,1 0.3,0.3 0.7,0.4 1.1,0.4 0.7,0 1.2,-0.3 1.5,-0.9 l 0.8,0.2 c -0.2,0.4 -0.5,0.8 -0.9,1 -0.4,0.3 -0.9,0.4 -1.4,0.4 -0.5,0 -0.9,-0.1 -1.3,-0.3 -0.4,-0.2 -0.7,-0.5 -0.9,-0.9 -0.2,-0.4 -0.3,-0.8 -0.3,-1.3 0,-0.5 0.1,-0.9 0.3,-1.3 0.2,-0.4 0.5,-0.7 0.9,-0.9 0.4,-0.2 0.8,-0.3 1.3,-0.3 0.5,0 0.9,0.1 1.3,0.3 0.4,0.2 0.7,0.5 0.9,0.9 0.2,0.4 0.3,0.8 0.3,1.3 z M 153,44.9 c -0.4,0 -0.8,0.1 -1.1,0.4 -0.3,0.3 -0.5,0.6 -0.6,1 h 3.2 c 0,-0.4 -0.2,-0.8 -0.5,-1 -0.3,-0.2 -0.7,-0.4 -1.1,-0.4 v 0 z"
               class="cls-2"
               id="path142" />
            <path
               d="m 157.5,42.6 v 6.6 h -0.8 v -6.6 z"
               class="cls-2"
               id="path143" />
            <path
               d="m 77.8,55.2 c 0.4,0 0.9,0 1.3,0.2 0.4,0.2 0.7,0.4 1,0.6 0.3,0.3 0.5,0.6 0.7,1 0.2,0.4 0.3,0.8 0.3,1.3 0,0.5 0,0.9 -0.3,1.3 -0.3,0.4 -0.4,0.7 -0.7,1 -0.3,0.3 -0.6,0.5 -1,0.6 -0.4,0.1 -0.8,0.2 -1.3,0.2 H 75.2 V 55 h 2.6 z m 0,5.5 c 0.4,0 0.8,0 1.2,-0.3 0.4,-0.2 0.6,-0.5 0.9,-0.8 0.3,-0.3 0.3,-0.8 0.3,-1.3 0,-0.5 -0.1,-0.9 -0.3,-1.3 C 79.7,56.6 79.4,56.4 79,56.2 78.6,56 78.2,55.9 77.8,55.9 h -1.6 v 4.8 z"
               class="cls-2"
               id="path144" />
            <path
               d="m 87.2,59 c 0,0.1 0,0.3 0,0.4 h -4.1 c 0,0.4 0.2,0.8 0.5,1 0.3,0.3 0.7,0.4 1.1,0.4 0.7,0 1.2,-0.3 1.5,-0.9 l 0.8,0.2 c -0.2,0.4 -0.5,0.8 -0.9,1 -0.4,0.2 -0.9,0.4 -1.4,0.4 -0.5,0 -0.9,-0.1 -1.3,-0.3 C 83,61 82.7,60.7 82.5,60.3 82.3,59.9 82.2,59.5 82.2,59 c 0,-0.5 0.1,-0.9 0.3,-1.3 0.2,-0.4 0.5,-0.7 0.9,-0.9 0.4,-0.2 0.8,-0.3 1.3,-0.3 0.5,0 0.9,0.1 1.3,0.3 0.4,0.2 0.7,0.5 0.9,0.9 0.2,0.4 0.3,0.8 0.3,1.3 z m -2.5,-1.7 c -0.4,0 -0.8,0.1 -1.1,0.4 -0.3,0.2 -0.5,0.6 -0.6,1 h 3.2 c 0,-0.4 -0.2,-0.8 -0.5,-1 -0.3,-0.2 -0.7,-0.4 -1.1,-0.4 v 0 z"
               class="cls-2"
               id="path145" />
            <path
               d="m 90.8,60.8 c 0.3,0 0.7,0 0.9,-0.3 0.2,-0.3 0.5,-0.4 0.6,-0.7 h 0.8 c -0.2,0.6 -0.5,1 -0.9,1.3 -0.4,0.3 -0.9,0.4 -1.5,0.4 -0.6,0 -0.9,-0.1 -1.3,-0.3 -0.4,-0.2 -0.7,-0.5 -0.9,-0.9 -0.2,-0.4 -0.3,-0.8 -0.3,-1.4 0,-0.6 0.1,-1 0.3,-1.4 0.2,-0.4 0.5,-0.7 0.9,-0.9 0.4,-0.2 0.8,-0.3 1.3,-0.3 0.5,0 1.1,0.1 1.5,0.4 0.4,0.3 0.7,0.7 0.9,1.2 H 92.3 C 92.2,57.7 92,57.5 91.7,57.3 91.4,57.1 91.1,57 90.8,57 c -0.3,0 -0.9,0.2 -1.2,0.5 -0.3,0.3 -0.5,0.8 -0.5,1.3 0,0.5 0.2,0.9 0.5,1.3 0.3,0.4 0.7,0.5 1.2,0.5 v 0 z"
               class="cls-2"
               id="path146" />
            <path
               d="m 98.5,56.5 h 0.8 v 5 h -0.8 v -1.2 c -0.2,0.4 -0.4,0.7 -0.7,0.9 -0.3,0.2 -0.7,0.3 -1.2,0.3 -0.7,0 -1.3,-0.2 -1.8,-0.7 -0.5,-0.5 -0.7,-1.1 -0.7,-1.9 0,-0.8 0.1,-0.9 0.3,-1.3 0.2,-0.4 0.5,-0.7 0.9,-0.9 0.4,-0.2 0.8,-0.3 1.3,-0.3 0.5,0 0.9,0.1 1.2,0.3 0.3,0.2 0.6,0.5 0.7,0.9 v -1.2 0 z m -3.1,3.8 c 0.3,0.3 0.7,0.5 1.2,0.5 0.5,0 0.9,-0.2 1.2,-0.5 0.3,-0.3 0.5,-0.8 0.5,-1.3 0,-0.5 -0.2,-0.9 -0.5,-1.3 -0.3,-0.4 -0.7,-0.5 -1.2,-0.5 -0.5,0 -0.9,0.2 -1.2,0.5 -0.3,0.3 -0.5,0.8 -0.5,1.3 0,0.5 0.2,1 0.5,1.3 z"
               class="cls-2"
               id="path147" />
            <path
               d="m 104.5,61.5 v -2.9 c 0,-0.5 -0.1,-0.8 -0.3,-1.1 -0.2,-0.3 -0.5,-0.4 -1,-0.4 -0.5,0 -0.8,0.2 -1,0.5 -0.3,0.3 -0.4,0.7 -0.4,1.2 v 2.7 H 101 v -5 h 0.8 v 1 c 0.1,-0.4 0.3,-0.6 0.6,-0.8 0.3,-0.2 0.6,-0.3 1.1,-0.3 0.6,0 1.1,0.2 1.4,0.6 0.3,0.4 0.5,0.9 0.5,1.5 v 3 h -0.8 v 0 z"
               class="cls-2"
               id="path148" />
            <path
               d="m 109,61.6 c -0.5,0 -0.9,-0.1 -1.3,-0.3 -0.4,-0.2 -0.7,-0.5 -0.9,-0.9 -0.2,-0.4 -0.3,-0.8 -0.3,-1.4 0,-0.6 0.1,-1 0.3,-1.4 0.2,-0.4 0.5,-0.7 0.9,-0.9 0.4,-0.2 0.8,-0.3 1.3,-0.3 0.5,0 0.9,0.1 1.3,0.3 0.4,0.2 0.7,0.5 0.9,0.9 0.2,0.4 0.3,0.8 0.3,1.4 0,0.6 0,0.7 -0.2,1.1 -0.1,0.3 -0.3,0.6 -0.5,0.8 -0.2,0.2 -0.5,0.4 -0.8,0.5 -0.3,0.1 -0.6,0.2 -1,0.2 z m 0,-0.8 c 0.5,0 0.9,-0.2 1.2,-0.5 0.3,-0.3 0.5,-0.8 0.5,-1.3 0,-0.5 -0.2,-0.9 -0.5,-1.3 -0.3,-0.4 -0.7,-0.5 -1.2,-0.5 -0.5,0 -0.9,0.2 -1.2,0.5 -0.3,0.3 -0.5,0.8 -0.5,1.3 0,0.5 0.2,1 0.5,1.3 0.3,0.3 0.7,0.5 1.2,0.5 z"
               class="cls-2"
               id="path149" />
            <path
               d="m 119.6,54.9 h 0.8 v 6.6 h -0.8 v -1.2 c -0.2,0.4 -0.4,0.7 -0.7,0.9 -0.3,0.2 -0.7,0.3 -1.2,0.3 -0.5,0 -0.9,-0.1 -1.3,-0.3 -0.4,-0.2 -0.7,-0.5 -0.9,-0.9 -0.2,-0.4 -0.3,-0.8 -0.3,-1.3 0,-0.8 0.2,-1.4 0.7,-1.9 0.5,-0.5 1.1,-0.7 1.8,-0.7 0.7,0 0.9,0.1 1.2,0.3 0.3,0.2 0.6,0.5 0.7,0.9 v -2.8 0 z m -1.9,5.9 c 0.5,0 0.9,-0.2 1.2,-0.5 0.3,-0.3 0.5,-0.7 0.5,-1.3 0,-0.6 -0.1,-1 -0.5,-1.3 -0.3,-0.3 -0.7,-0.5 -1.2,-0.5 -0.5,0 -0.9,0.2 -1.2,0.5 -0.3,0.3 -0.5,0.7 -0.5,1.3 0,0.6 0.2,1 0.5,1.3 0.3,0.3 0.7,0.5 1.2,0.5 z"
               class="cls-2"
               id="path150" />
            <path
               d="m 126.7,59 c 0,0.1 0,0.3 0,0.4 h -4.1 c 0,0.4 0.2,0.8 0.5,1 0.3,0.3 0.7,0.4 1.1,0.4 0.7,0 1.2,-0.3 1.5,-0.9 l 0.8,0.2 c -0.2,0.4 -0.5,0.8 -0.9,1 -0.4,0.3 -0.9,0.4 -1.4,0.4 -0.5,0 -0.9,-0.1 -1.3,-0.3 -0.4,-0.2 -0.7,-0.5 -0.9,-0.9 -0.2,-0.4 -0.3,-0.8 -0.3,-1.3 0,-0.5 0.1,-0.9 0.3,-1.3 0.2,-0.4 0.5,-0.7 0.9,-0.9 0.4,-0.2 0.8,-0.3 1.3,-0.3 0.5,0 0.9,0.1 1.3,0.3 0.4,0.2 0.7,0.5 0.9,0.9 0.2,0.4 0.3,0.8 0.3,1.3 z m -2.6,-1.7 c -0.4,0 -0.8,0.1 -1.1,0.4 -0.3,0.3 -0.5,0.6 -0.6,1 h 3.2 c 0,-0.4 -0.2,-0.8 -0.5,-1 -0.3,-0.2 -0.7,-0.4 -1.1,-0.4 v 0 z"
               class="cls-2"
               id="path151" />
            <path
               d="m 128.7,54.9 v 6.6 h -0.8 v -6.6 z"
               class="cls-2"
               id="path152" />
            <path
               d="m 136.9,56 h -3.3 v 2 h 2.8 v 0.8 h -2.8 v 2.8 h -0.9 v -6.4 h 4.2 z"
               class="cls-2"
               id="path153" />
            <path
               d="m 139,56.5 v 2.9 c 0,0.5 0.1,0.8 0.3,1.1 0.2,0.3 0.5,0.4 1,0.4 0.5,0 0.8,-0.2 1,-0.5 0.3,-0.3 0.4,-0.7 0.4,-1.2 v -2.7 h 0.8 v 5 h -0.8 v -1 c -0.1,0.4 -0.3,0.6 -0.6,0.8 -0.3,0.2 -0.6,0.3 -1.1,0.3 -0.6,0 -1.1,-0.2 -1.4,-0.6 -0.3,-0.4 -0.5,-0.9 -0.5,-1.5 v -3 h 0.8 v 0 z m 3,-2 h -1 l -1,1.5 h 0.8 z"
               class="cls-2"
               id="path154" />
            <path
               d="m 147,60.5 0.2,0.7 c -0.3,0.3 -0.7,0.4 -1.1,0.4 -0.4,0 -0.8,-0.1 -1.1,-0.4 -0.3,-0.2 -0.4,-0.6 -0.4,-1.1 V 57.2 H 144 v -0.7 h 0.6 v -1.2 h 0.8 c 0,-0.1 0,1.2 0,1.2 h 1.5 v 0.7 h -1.5 v 2.6 c 0,0.3 0,0.5 0.2,0.7 0.1,0.1 0.3,0.2 0.6,0.2 0.3,0 0.6,0 0.8,-0.2 z"
               class="cls-2"
               id="path155" />
            <path
               d="m 149.3,54.9 v 2.8 c 0.1,-0.4 0.4,-0.7 0.7,-0.9 0.3,-0.2 0.7,-0.3 1.2,-0.3 0.7,0 1.3,0.2 1.8,0.7 0.5,0.5 0.7,1.1 0.7,1.9 0,0.8 -0.1,0.9 -0.3,1.3 -0.2,0.4 -0.5,0.7 -0.9,0.9 -0.4,0.2 -0.8,0.3 -1.3,0.3 -0.5,0 -0.9,-0.1 -1.2,-0.3 -0.3,-0.2 -0.6,-0.5 -0.7,-0.9 v 1.2 h -0.9 V 55 h 0.8 z m 1.9,5.9 c 0.5,0 0.9,-0.2 1.2,-0.5 0.3,-0.3 0.5,-0.8 0.5,-1.3 0,-0.5 -0.2,-1 -0.5,-1.3 -0.3,-0.3 -0.7,-0.5 -1.2,-0.5 -0.5,0 -0.9,0.2 -1.2,0.5 -0.3,0.3 -0.5,0.8 -0.5,1.3 0,0.5 0.2,0.9 0.5,1.3 0.3,0.4 0.7,0.5 1.2,0.5 z"
               class="cls-2"
               id="path156" />
            <path
               d="m 157.2,61.6 c -0.5,0 -0.9,-0.1 -1.3,-0.3 -0.4,-0.2 -0.7,-0.5 -0.9,-0.9 -0.2,-0.4 -0.3,-0.8 -0.3,-1.4 0,-0.6 0.1,-1 0.3,-1.4 0.2,-0.4 0.5,-0.7 0.9,-0.9 0.4,-0.2 0.8,-0.3 1.3,-0.3 0.5,0 0.9,0.1 1.3,0.3 0.4,0.2 0.7,0.5 0.9,0.9 0.2,0.4 0.3,0.8 0.3,1.4 0,0.6 0,0.7 -0.2,1.1 -0.1,0.3 -0.3,0.6 -0.5,0.8 -0.2,0.2 -0.5,0.4 -0.8,0.5 -0.3,0.1 -0.6,0.2 -1,0.2 z m 0,-0.8 c 0.5,0 0.9,-0.2 1.2,-0.5 0.3,-0.3 0.5,-0.8 0.5,-1.3 0,-0.5 -0.2,-0.9 -0.5,-1.3 -0.3,-0.3 -0.7,-0.5 -1.2,-0.5 -0.5,0 -0.9,0.2 -1.2,0.5 -0.3,0.3 -0.5,0.8 -0.5,1.3 0,0.5 0.2,1 0.5,1.3 0.3,0.3 0.7,0.5 1.2,0.5 z"
               class="cls-2"
               id="path157" />
            <path
               d="m 161.8,54.9 v 6.6 H 161 v -6.6 z"
               class="cls-2"
               id="path158" />
            <path
               d="m 169.9,56 h -3.3 v 2 h 2.8 v 0.8 h -2.8 v 2 h 3.3 v 0.8 h -4.2 v -6.4 h 4.2 z"
               class="cls-2"
               id="path159" />
            <path
               d="M 174.9,57.9 H 174 c 0,-0.2 -0.1,-0.4 -0.3,-0.5 -0.2,-0.1 -0.5,-0.2 -0.8,-0.2 -0.3,0 -0.6,0 -0.8,0.2 -0.2,0.1 -0.3,0.3 -0.3,0.5 0,0.2 0,0.2 0,0.3 0,0.1 0.1,0.1 0.2,0.2 0,0 0.2,0 0.3,0.1 0.1,0 0.2,0 0.4,0.1 0.1,0 0.3,0 0.5,0 0.1,0 0.3,0 0.4,0 0.1,0 0.2,0 0.3,0 0.1,0 0.2,0 0.3,0 0.1,0 0.2,0 0.2,0 0,0 0.2,0 0.2,0.1 0,0.1 0.1,0 0.2,0.1 0,0 0.1,0.1 0.1,0.2 0,0 0,0.1 0,0.2 0,0.1 0,0.1 0,0.2 0,0.1 0,0.2 0,0.3 0,0.5 -0.2,0.8 -0.6,1.1 -0.4,0.3 -0.9,0.4 -1.5,0.4 -0.3,0 -0.6,0 -0.8,0 -0.2,0 -0.5,-0.1 -0.7,-0.3 -0.2,-0.1 -0.3,-0.3 -0.5,-0.5 -0.1,-0.2 -0.2,-0.4 -0.2,-0.7 h 0.8 c 0,0.3 0.1,0.5 0.3,0.6 0.2,0.1 0.5,0.2 0.9,0.2 0.4,0 0.6,0 0.9,-0.2 0.2,-0.1 0.3,-0.3 0.3,-0.5 0,-0.1 0,-0.2 0,-0.3 0,-0.1 -0.1,-0.1 -0.2,-0.2 0,0 -0.2,-0.1 -0.3,-0.1 -0.1,0 -0.3,0 -0.4,-0.1 -0.1,0 -0.3,0 -0.5,-0.1 0,0 -0.1,0 -0.2,0 -0.2,0 -0.4,0 -0.5,-0.1 -0.1,0 -0.3,0 -0.4,-0.2 -0.1,0 -0.3,-0.1 -0.3,-0.2 0,0 -0.2,-0.2 -0.2,-0.3 0,-0.1 0,-0.3 0,-0.5 0,-0.4 0.2,-0.8 0.6,-1 0.4,-0.2 0.9,-0.4 1.4,-0.4 0.3,0 0.5,0 0.8,0 0.2,0 0.4,0.1 0.6,0.3 0.2,0.2 0.3,0.3 0.4,0.5 0.1,0.2 0.2,0.4 0.2,0.6 v 0 z"
               class="cls-2"
               id="path160" />
            <path
               d="m 177.1,56.5 v 1.2 c 0.2,-0.4 0.4,-0.7 0.7,-0.9 0.3,-0.2 0.7,-0.3 1.2,-0.3 0.5,0 0.9,0.1 1.3,0.3 0.4,0.2 0.7,0.5 0.9,0.9 0.2,0.4 0.3,0.8 0.3,1.3 0,0.8 -0.2,1.4 -0.7,1.9 -0.5,0.5 -1.1,0.7 -1.8,0.7 -0.7,0 -0.9,-0.1 -1.2,-0.3 -0.3,-0.2 -0.6,-0.5 -0.7,-0.9 v 3 h -0.8 v -6.8 h 0.8 z m 0.7,3.8 c 0.3,0.3 0.7,0.5 1.2,0.5 0.5,0 0.9,-0.2 1.2,-0.5 0.3,-0.3 0.5,-0.7 0.5,-1.3 0,-0.6 -0.2,-1 -0.5,-1.3 -0.3,-0.3 -0.7,-0.5 -1.2,-0.5 -0.5,0 -0.9,0.2 -1.2,0.5 -0.3,0.3 -0.5,0.7 -0.5,1.3 0,0.6 0.1,1 0.5,1.3 z"
               class="cls-2"
               id="path161" />
            <path
               d="m 186.9,56.5 h 0.8 v 5 h -0.8 v -1.2 c -0.2,0.4 -0.4,0.7 -0.7,0.9 -0.3,0.2 -0.7,0.3 -1.2,0.3 -0.7,0 -1.3,-0.2 -1.8,-0.7 -0.5,-0.5 -0.7,-1.1 -0.7,-1.9 0,-0.8 0.1,-0.9 0.3,-1.3 0.2,-0.4 0.5,-0.7 0.9,-0.9 0.4,-0.2 0.8,-0.3 1.3,-0.3 0.5,0 0.9,0.1 1.2,0.3 0.3,0.2 0.6,0.5 0.7,0.9 v -1.2 0 z m -3.1,3.8 c 0.3,0.3 0.7,0.5 1.2,0.5 0.5,0 0.9,-0.2 1.2,-0.5 0.3,-0.3 0.5,-0.8 0.5,-1.3 0,-0.5 -0.2,-0.9 -0.5,-1.3 -0.3,-0.4 -0.7,-0.5 -1.2,-0.5 -0.5,0 -0.9,0.2 -1.2,0.5 -0.3,0.3 -0.5,0.8 -0.5,1.3 0,0.5 0.2,1 0.5,1.3 z"
               class="cls-2"
               id="path162" />
            <path
               d="m 192.8,61.5 v -2.9 c 0,-0.5 -0.1,-0.8 -0.3,-1.1 -0.2,-0.3 -0.5,-0.4 -1,-0.4 -0.5,0 -0.8,0.2 -1,0.5 -0.3,0.3 -0.4,0.7 -0.4,1.2 v 2.7 h -0.8 v -5 h 0.8 v 1 c 0.1,-0.4 0.3,-0.6 0.6,-0.8 0.3,-0.2 0.6,-0.3 1.1,-0.3 0.6,0 1.1,0.2 1.4,0.6 0.3,0.4 0.5,0.9 0.5,1.5 v 3 h -0.8 v 0 z M 190.6,56 c 0,-0.3 0.1,-0.5 0.4,-0.5 0.3,0 0.2,0 0.2,0 0,0 0.1,0 0.2,0.1 0,0 0.1,0.1 0.2,0.2 0,0 0.1,0 0.2,0.1 0.1,0.1 0.2,0 0.3,0 0.3,0 0.5,0 0.6,-0.3 0.1,-0.3 0.2,-0.4 0.2,-0.8 h -0.4 c 0,0.4 -0.1,0.5 -0.4,0.5 -0.3,0 -0.2,0 -0.2,0 0,0 -0.1,0 -0.2,-0.1 -0.1,-0.1 -0.1,-0.1 -0.2,-0.2 0,0 -0.1,0 -0.2,-0.1 -0.1,-0.1 -0.2,0 -0.3,0 -0.3,0 -0.5,0 -0.6,0.3 -0.1,0.2 -0.2,0.4 -0.2,0.7 h 0.4 z"
               class="cls-2"
               id="path163" />
            <path
               d="m 197.4,61.6 c -0.5,0 -0.9,-0.1 -1.3,-0.3 -0.4,-0.2 -0.7,-0.5 -0.9,-0.9 -0.2,-0.4 -0.3,-0.8 -0.3,-1.4 0,-0.6 0.1,-1 0.3,-1.4 0.2,-0.4 0.5,-0.7 0.9,-0.9 0.4,-0.2 0.8,-0.3 1.3,-0.3 0.5,0 0.9,0.1 1.3,0.3 0.4,0.2 0.7,0.5 0.9,0.9 0.2,0.4 0.3,0.8 0.3,1.4 0,0.6 0,0.7 -0.2,1.1 -0.1,0.3 -0.3,0.6 -0.5,0.8 -0.2,0.2 -0.5,0.4 -0.8,0.5 -0.3,0.1 -0.6,0.2 -1,0.2 z m 0,-0.8 c 0.5,0 0.9,-0.2 1.2,-0.5 0.3,-0.3 0.5,-0.8 0.5,-1.3 0,-0.5 -0.2,-0.9 -0.5,-1.3 -0.3,-0.4 -0.7,-0.5 -1.2,-0.5 -0.5,0 -0.9,0.2 -1.2,0.5 -0.3,0.3 -0.5,0.8 -0.5,1.3 0,0.5 0.2,1 0.5,1.3 0.3,0.3 0.7,0.5 1.2,0.5 z"
               class="cls-2"
               id="path164" />
            <path
               d="m 202,54.9 v 6.6 h -0.8 v -6.6 z"
               class="cls-2"
               id="path165" />
          </g>
        </g>
      </g>
    </g>
  </g>
</svg>
