<svg xmlns:inkscape="http://www.inkscape.org/namespaces/inkscape" xmlns:sodipodi="http://sodipodi.sourceforge.net/DTD/sodipodi-0.dtd" xmlns="http://www.w3.org/2000/svg" xmlns:svg="http://www.w3.org/2000/svg" version="1.1" id="svg2" xml:space="preserve" width="310.23238298958904" height="322.33901256967056" viewBox="0 0 410.22 426.19525" sodipodi:docname="97eb872961bba5a0f8594d1cd77cbaf9.ai"><defs id="defs6"><clipPath clipPathUnits="userSpaceOnUse" id="clipPath16"><path d="M 0,0 H 321.565 V 325.322 H 0 Z" id="path14"/></clipPath><linearGradient x1="0" y1="0" x2="1" y2="0" gradientUnits="userSpaceOnUse" gradientTransform="matrix(358.78223,-404.1059,-404.1059,-358.78223,-29.754883,376.99414)" spreadMethod="pad" id="linearGradient56"><stop style="stop-opacity:1;stop-color:#deb361" offset="0" id="stop34"/><stop style="stop-opacity:1;stop-color:#deb361" offset="0.00561523" id="stop36"/><stop style="stop-opacity:1;stop-color:#deb361" offset="0.04259911" id="stop38"/><stop style="stop-opacity:1;stop-color:#e4cb6c" offset="0.185394" id="stop40"/><stop style="stop-opacity:1;stop-color:#e4cb6c" offset="0.18595215" id="stop42"/><stop style="stop-opacity:1;stop-color:#e6dfc9" offset="0.41011" id="stop44"/><stop style="stop-opacity:1;stop-color:#b16915" offset="0.69222564" id="stop46"/><stop style="stop-opacity:1;stop-color:#b16915" offset="0.730331" id="stop48"/><stop style="stop-opacity:1;stop-color:#b16915" offset="0.75800218" id="stop50"/><stop style="stop-opacity:1;stop-color:#deaf66" offset="0.949432" id="stop52"/><stop style="stop-opacity:1;stop-color:#deaf66" offset="1" id="stop54"/></linearGradient><radialGradient fx="0" fy="0" cx="0" cy="0" r="1" gradientUnits="userSpaceOnUse" gradientTransform="matrix(150.95079,0,0,150.95079,163.99463,155.08301)" spreadMethod="pad" id="radialGradient86"><stop style="stop-opacity:1;stop-color:#851815" offset="0" id="stop72"/><stop style="stop-opacity:1;stop-color:#300e14" offset="0.21103141" id="stop74"/><stop style="stop-opacity:1;stop-color:#300e14" offset="0.41011" id="stop76"/><stop style="stop-opacity:1;stop-color:#300e14" offset="0.62144851" id="stop78"/><stop style="stop-opacity:1;stop-color:#300e14" offset="0.649994" id="stop80"/><stop style="stop-opacity:1;stop-color:#851815" offset="0.929993" id="stop82"/><stop style="stop-opacity:1;stop-color:#851815" offset="1" id="stop84"/></radialGradient><clipPath clipPathUnits="userSpaceOnUse" id="clipPath96"><path d="M 0,0 H 321.565 V 325.322 H 0 Z" id="path94"/></clipPath><linearGradient x1="0" y1="0" x2="1" y2="0" gradientUnits="userSpaceOnUse" gradientTransform="matrix(-102.76932,0,0,102.76932,254.15332,187.59082)" spreadMethod="pad" id="linearGradient164"><stop style="stop-opacity:1;stop-color:#deb361" offset="0" id="stop142"/><stop style="stop-opacity:1;stop-color:#deb361" offset="0.00561523" id="stop144"/><stop style="stop-opacity:1;stop-color:#deb361" offset="0.04259911" id="stop146"/><stop style="stop-opacity:1;stop-color:#e4cb6c" offset="0.185394" id="stop148"/><stop style="stop-opacity:1;stop-color:#e4cb6c" offset="0.18595215" id="stop150"/><stop style="stop-opacity:1;stop-color:#e6dfc9" offset="0.41011" id="stop152"/><stop style="stop-opacity:1;stop-color:#b16915" offset="0.69222564" id="stop154"/><stop style="stop-opacity:1;stop-color:#b16915" offset="0.730331" id="stop156"/><stop style="stop-opacity:1;stop-color:#b16915" offset="0.75800218" id="stop158"/><stop style="stop-opacity:1;stop-color:#deaf66" offset="0.949432" id="stop160"/><stop style="stop-opacity:1;stop-color:#deaf66" offset="1" id="stop162"/></linearGradient></defs><sodipodi:namedview id="namedview4" pagecolor="#ffffff" bordercolor="#666666" borderopacity="1.0" inkscape:pageshadow="2" inkscape:pageopacity="0.0" inkscape:pagecheckerboard="0"/><g id="g8" inkscape:groupmode="layer" inkscape:label="97eb872961bba5a0f8594d1cd77cbaf9" transform="matrix(1.3333333,0,0,-1.3333333,-13.5488,426.19525)"><g id="g10"><g id="g12" clip-path="url(#clipPath16)"><g id="g18" transform="translate(294.2656,283.6978)"><path d="M 0,0 -0.094,0.209 -0.266,0.373 C -0.352,0.455 -8.303,7.808 -26.082,15.635 -46.523,25.382 -80.662,36.044 -130.271,35.948 -179.88,36.044 -214.019,25.382 -234.46,15.635 -252.241,7.808 -260.192,0.455 -260.277,0.373 L -260.45,0.209 -260.543,0 c -0.037,-0.084 -23.547,-50.091 -23.561,-103.026 0,-22.461 4.246,-45.481 16.413,-65.398 48.406,-79.175 136.86,-115.586 136.953,-115.641 l 0.467,-0.187 0.466,0.187 c 0.093,0.055 88.547,36.466 136.953,115.641 12.168,19.917 16.413,42.937 16.413,65.398 C 23.547,-50.091 0.037,-0.084 0,0" style="fill:#000000;fill-opacity:1;fill-rule:nonzero;stroke:none" id="path20"/></g></g></g><g id="g22"><g id="g24"><g id="g30"><g id="g32"><path d="m 36.621,281.953 -1.53,-1.414 -0.877,-1.894 C 32.322,274.599 -11.615,178.567 28.41,113.058 v 0 C 74.46,37.678 156.367,3.099 159.916,1.662 v 0 L 163.993,0 l 4.078,1.662 c 3.548,1.437 85.456,36.016 131.505,111.396 v 0 c 40.026,65.509 -3.91,161.541 -5.804,165.587 v 0 l -0.878,1.894 -1.529,1.414 c -1.48,1.395 -38.881,33.987 -127.372,33.987 v 0 c -88.491,0 -125.891,-32.592 -127.372,-33.987" style="fill:url(#linearGradient56);stroke:none" id="path58"/></g></g></g></g><g id="g60"><g id="g62"><g id="g68"><g id="g70"><path d="M 163.209,305.284 C 78.43,305.096 43.89,274.147 43.89,274.147 v 0 c 0,0 -43.89,-94.152 -6.383,-155.541 v 0 C 82.247,45.374 163.994,11.539 163.994,11.539 v 0 c 0,0 81.748,33.835 126.487,107.067 v 0 c 37.507,61.389 -6.383,155.541 -6.383,155.541 v 0 c 0,0 -34.539,30.949 -119.318,31.137 v 0 z" style="fill:url(#radialGradient86);stroke:none" id="path88"/></g></g></g></g><g id="g90"><g id="g92" clip-path="url(#clipPath96)"><g id="g98" transform="translate(280.2109,279.1914)"><path d="M 0,0 C 0,0 -33.631,30.131 -116.217,30.131 -198.802,30.131 -232.435,0 -232.435,0 c 0,0 -42.469,-91.106 -6.177,-150.51 43.292,-70.862 122.395,-103.601 122.395,-103.601 0,0 79.104,32.739 122.395,103.601 C 42.471,-91.106 0,0 0,0" style="fill:#6b1226;fill-opacity:1;fill-rule:nonzero;stroke:none" id="path100"/></g><g id="g102" transform="translate(151.4785,255.9521)"><path d="m 0,0 c -25.181,0 -45.579,-20.421 -45.579,-45.603 0,-12.978 5.425,-24.67 14.121,-32.965 l -5.708,-5.745 h 0.923 l -15.643,-15.738 h 0.928 l -15.648,-15.764 h 0.98 l -15.709,-15.761 c -0.248,-0.277 -0.248,-0.466 0,-0.466 0.219,0 -9.122,-9.537 -13.756,-14.229 l 30.403,30.456 h 0.928 l 15.695,15.764 h 0.942 l 15.672,15.738 h 0.929 l 2.644,2.665 c 0.655,-0.507 1.323,-0.999 2.007,-1.471 l -1.208,-1.194 h 0.971 l -15.677,-15.738 h 0.956 l -15.685,-15.764 h 0.956 l -15.667,-15.761 c -0.257,-0.277 -0.257,-0.466 0,-0.466 0.21,0 -17.366,-17.799 -23.119,-23.597 l 39.747,39.824 h 0.919 l 15.705,15.764 h 0.933 l 14.666,14.748 c 1.156,-0.652 2.343,-1.253 3.559,-1.804 l -12.883,-12.944 h 0.951 l -15.676,-15.762 h 0.938 l -15.667,-15.763 c -0.247,-0.257 -0.247,-0.471 0,-0.471 0.266,0 -25.185,-25.656 -24.9,-25.395 l 41.505,41.629 h 1.003 l 15.658,15.762 h 0.928 l 11.502,11.571 c 1.34,-0.483 2.709,-0.908 4.105,-1.265 l -10.265,-10.306 h 0.952 l -15.663,-15.762 h 0.966 l -15.667,-15.763 c -0.284,-0.257 -0.284,-0.471 0,-0.471 0.225,0 -26.989,-27.402 -32.566,-33.003 l 49.161,49.237 h 0.98 l 15.668,15.762 h 0.914 l 9.458,9.491 C -5,-90.955 -2.525,-91.168 0,-91.168 c 25.154,0 45.59,20.379 45.59,45.565 C 45.59,-20.421 25.154,0 0,0" style="fill:#ffffff;fill-opacity:1;fill-rule:nonzero;stroke:none" id="path104"/></g><g id="g106" transform="translate(184.5176,186.1392)"><path d="m 0,0 c -3.378,-0.644 -7.744,0 -12.01,2.244 -4.199,-6.293 -7.949,-10.432 -14.735,-12.312 0.643,-3.107 2.297,-8.431 2.783,-9.084 0.168,-0.24 0.702,-0.639 1.527,-0.951 8.181,1.951 15.509,6.098 21.32,11.796 0.161,0.355 0.319,0.715 0.463,1.095 C 0.309,-4.745 0.662,-1.105 0,0" style="fill:#000000;fill-opacity:1;fill-rule:nonzero;stroke:none" id="path108"/></g><g id="g110" transform="translate(137.6025,198.6523)"><path d="m 0,0 c -6.247,0.779 -11.557,3.5 -17.599,7.068 -1.403,-1.493 -4.418,-6.681 -4.721,-8.84 -0.322,-2.109 0.555,-7.214 3.07,-11.095 2.542,-3.91 6.728,-8.329 9.597,-9.108 2.841,-0.784 8.202,1.53 9.555,2.086 1.353,0.546 3.266,1.264 2.618,2.547 C 1.904,-16.073 -0.975,-5.51 0,0" style="fill:#000000;fill-opacity:1;fill-rule:nonzero;stroke:none" id="path112"/></g><g id="g114" transform="translate(193.085,228.9771)"><path d="m 0,0 c -0.348,0.38 -0.694,0.635 -1.028,0.697 1.736,-4.586 0,-9.312 -2.014,-11.193 4.991,-6.462 5.131,-14.239 4.143,-17.757 0.681,-0.287 1.306,-0.428 1.828,-0.119 0.684,3.141 1.054,6.398 1.054,9.744 C 3.983,-11.99 2.552,-5.689 0,0" style="fill:#000000;fill-opacity:1;fill-rule:nonzero;stroke:none" id="path116"/></g><g id="g118" transform="translate(167.0586,249.8994)"><path d="M 0,0 C 0.383,-1.297 -1.483,-1.236 -2.564,0.542 -2.994,1.331 -4.385,1.601 -3.9,1.036 -3.405,0.467 -1.072,-1.315 -0.681,-2.389 -0.494,-2.808 0,-2.86 0.383,-2.524 0.775,-2.225 6.029,-0.023 11.059,-3.387 11.287,-3.57 11.223,-3.103 10.99,-2.513 3.705,2.727 -5.179,5.868 -14.786,6.033 -14.94,5.427 -14.983,4.698 -14.983,4.549 -9.104,4.778 -1.072,3.365 0,0" style="fill:#000000;fill-opacity:1;fill-rule:nonzero;stroke:none" id="path120"/></g><g id="g122" transform="translate(126.6714,238.8472)"><path d="m 0,0 c 0.863,1.6 4.03,5.496 4.964,5.972 0,0 0.35,0.223 0.83,0 C 6.261,5.729 5.944,3.167 6.154,0.48 6.42,-2.207 6.331,-2.781 5.067,-3.514 3.802,-4.218 -0.868,-5.422 -1.199,-4.782 -1.512,-4.12 -0.868,-1.601 0,0 m -13.866,-11.16 c 0.331,-0.308 3.265,-2.604 6.112,-4.625 2.524,3.99 7.101,9.411 14.859,11.954 C 6.82,-0.491 6.658,4.049 7.367,8.444 4.5,10.028 1.247,9.818 -1.527,8.714 -3.269,7.477 -4.919,6.123 -6.468,4.66 c -1.662,-1.847 -3.63,-4.204 -5.014,-6.321 -2.511,-3.92 -2.707,-9.14 -2.384,-9.499" style="fill:#000000;fill-opacity:1;fill-rule:nonzero;stroke:none" id="path124"/></g><g id="g126" transform="translate(159.4072,230.9155)"><path d="M 0,0 C -3.506,0 -4.649,-3.224 -7.192,-3.248 -9.735,-3.266 -8.134,-0.733 -6.744,0 -5.381,0.747 0.905,4.591 4.825,2.827 4.825,2.827 3.107,0 0,0 m 6.774,4.451 c -7.579,1.283 -16.929,-5.571 -16.929,-5.571 0,0 1.727,-9.649 2.128,-19.642 2.548,-0.971 16.928,-5.357 18.628,-5.674 4.293,5.571 7.138,9.439 8.707,15.747 -2.867,6.051 -5.749,10.255 -12.534,15.14" style="fill:#000000;fill-opacity:1;fill-rule:nonzero;stroke:none" id="path128"/></g></g></g><g id="g130"><g id="g132"><g id="g138"><g id="g140"><path d="m 166.042,255.923 -0.321,-2.274 c 18.2,-5.978 31.348,-23.098 31.348,-43.3 v 0 c 0,-25.175 -20.409,-45.584 -45.585,-45.584 v 0 c -0.029,0 -0.058,0.003 -0.087,0.003 v 0 l 2.577,-2.593 c 0.047,0.002 0.093,10e-4 0.14,0.005 v 0 l 42.553,-42.935 h 57.49 c 0,0 -40.797,41.013 -45.294,45.525 v 0 c 21.525,4.037 37.316,22.848 37.316,45.187 v 0 c 0,25.343 -20.52,45.966 -45.761,45.966 v 0 z m -7.314,-93.272 c 23.178,3.505 40.998,23.559 40.998,47.698 v 0 c 0,17.933 -9.841,33.601 -24.402,41.916 v 0 h 25.094 c 23.206,0 42.112,-18.965 42.112,-42.308 v 0 c 0,-21.732 -16.2,-39.82 -37.698,-42.097 v 0 l -3.788,-0.393 44.332,-44.556 h -47.197 z" style="fill:url(#linearGradient164);stroke:none" id="path166"/></g></g></g></g><text transform="matrix(1,0,0,-1,79.5684,263.9844)" style="font-variant:normal;font-weight:normal;font-stretch:normal;font-size:39px;font-family:'Myriad Pro';-inkscape-font-specification:MyriadPro-Regular;writing-mode:lr-tb;fill:#ffffff;fill-opacity:1;fill-rule:nonzero;stroke:none" id="text170"><tspan x="0 23.750999 45.708 73.670998 101.634 113.724 142.155" y="0" sodipodi:role="line" id="tspan168">REGGINA</tspan></text><text transform="matrix(1,0,0,-1,131.8691,53.9883)" style="font-variant:normal;font-weight:normal;font-stretch:normal;font-size:32.7846px;font-family:'Myriad Pro';-inkscape-font-specification:MyriadPro-Regular;writing-mode:lr-tb;fill:#ffffff;fill-opacity:1;fill-rule:nonzero;stroke:none" id="text174"><tspan x="0 19.146206 38.292412 57.438618" y="0" sodipodi:role="line" id="tspan172">1914</tspan></text></g></svg>