<?xml version="1.0" encoding="UTF-8"?>
<svg id="Calque_2" data-name="Calque 2" xmlns="http://www.w3.org/2000/svg" viewBox="0 0 6393.39 7792.06">
  <defs>
    <style>
      .cls-1 {
        fill: #de101d;
      }

      .cls-2 {
        fill: #fcbc17;
      }

      .cls-3 {
        fill: #fff;
      }
    </style>
  </defs>
  <g id="Layer_1" data-name="Layer 1">
    <g>
      <g id="g936">
        <path id="path9808" class="cls-2" d="M6031.32,2481.22c-86.27-357.46-160.72-666.17-180.4-840.85-50.79-451.39,148.54-759.18,150.63-762.1l56.92-86.3L5425.26,0l-87.57,21.44c-580.3,142.75-1334.31,221.18-2123.14,221.18l-17.85-.07-17.85.07c-788.83,0-1542.84-78.43-2123.14-221.18L968.16,0,334.92,791.96l56.92,86.3c2.08,2.92,201.41,310.71,150.62,762.1-19.67,174.67-94.13,483.4-180.39,840.85C200.73,3149.78,0,3981.91,0,4570.19c0,1070.83,437.35,1603.66,1733.14,2111.49l133.38,51.82c499.82,193.66,1039.74,362.02,1217.43,772.67,58.04,111.44,72.96,141.21,112.75,285.89,39.79-144.68,54.71-174.45,112.75-285.89,177.69-410.67,717.59-579.03,1217.43-772.67l133.38-51.82c1295.78-507.84,1733.14-1040.68,1733.14-2111.49,0-588.26-200.76-1420.42-362.07-2088.97h0Z"/>
        <path id="path9810" class="cls-1" d="M6134.34,3582.49c-69.49-360.77-159.48-733.99-240.15-1068.18-86.32-358.75-161.26-665.4-183.45-858.16-6.35-56.4-9.19-110.83-9.19-163.01.23-302.91,94.24-527.28,146.68-629.9,17.85-34.7,30.06-54.27,35.32-62.33.08-.12.15-.22.23-.3l.32-.5c.03-.05.06-.11.1-.18l-512.9-641.5c-595.87,146.39-1358.4,225.1-2156.79,225.26h-.59l-17.27-.08v7030.32c52.83-107.8,126.67-199.95,212.27-278.41,95.2-87.28,204.89-158.74,321.8-221.38,233.86-124.93,498.21-216.22,745.03-312.1l132.98-51.67c478.21-187.21,830.03-376.05,1078.44-585.48,248.43-210.19,396.97-436.66,482.25-724.18,56.4-191.84,82.88-412.3,82.86-670.51.23-278.43-48.33-627.26-117.94-987.71h0Z"/>
        <path id="path9812" d="M3196.63,383.59l-17.79.08c-798.39-.17-1560.96-78.87-2156.68-225.24l-.1-.03L509.15,799.91c.29.44.41.63.73,1.12.45.69.81,1.25,1.21,1.86.77,1.19,1.58,2.51,2.55,4.02,1.9,3.06,4.29,6.97,7.14,11.81,5.68,9.65,13.16,22.95,21.86,39.72,17.41,33.52,39.64,80.95,61.69,140.75,44.05,119.52,87.45,288.93,87.47,493.92,0,52.18-2.84,106.59-9.16,163-22.17,192.77-97.15,499.42-183.45,858.18-80.66,334.21-170.65,707.42-240.15,1068.18-69.6,360.43-118.18,709.28-117.99,987.68-.03,258.2,26.45,478.68,82.86,670.5,56.57,191.98,142.12,355.98,265.75,506.87,246.16,301.01,656.55,553.05,1294.55,802.64l133.26,51.78c185.14,71.79,380.25,141.44,564.78,224.15,184.37,82.94,359.21,178.56,502.18,309.4,85.61,78.46,159.46,170.6,212.27,278.41V383.59h-.06Z"/>
      </g>
      <path id="path9828" class="cls-3" d="M3760.2,4947.08c0,41.65-.79,71.2,38.56,94.24v2.18h-131.34v-2.18c39.33-23.04,39.33-52.58,39.33-94.24v-295.99c0-41.48,0-71.18-38.64-93.47v-2.22h108.35v.68c3,8.94,6.04,12.65,11.15,18.66l10.42,14.82,271.5,342.81v-281.26c0-41.5.74-71.18-38.6-93.47v-2.23h130.62v2.23c-38.53,22.28-38.53,51.97-38.53,93.47v416.22c-52.74-17.82-75.72-42.27-108.34-84.54l-254.47-322.74v287.03"/>
      <path id="path9830" class="cls-3" d="M4275.74,4947.08c0,41.65-.73,71.2,38.62,94.24v2.18h-131.41v-2.18c39.39-23.04,39.39-52.58,39.39-94.24v-295.99c0-41.48,0-71.18-38.6-93.47v-2.22h108.35v.68c2.89,8.94,5.9,12.65,11.03,18.66l10.53,14.82,271.5,342.81v-281.26c0-41.5.7-71.18-38.63-93.47v-2.23h130.57v2.23c-38.56,22.28-38.56,51.97-38.56,93.47v416.22c-52.67-17.82-75.66-42.27-108.26-84.54l-254.52-322.74v287.03"/>
      <g id="g911">
        <path id="path9814" class="cls-3" d="M964.15,4643.69c-28.93-29.69-74.89-46.73-116.5-46.73s-95.63,16.36-95.63,67.48c0,101.64,255.16,100.25,255.16,237.38,0,79.37-83.09,153.63-198.77,153.63-45.23,0-90.49-6.71-132.84-22.29l-21.49-92.71c43.77,37.87,104.58,61.55,162.46,61.55,42.27,0,106.04-25.22,106.04-77.21,0-115.7-255.16-94.78-255.16-252.19,0-93.45,95.74-129.09,186.25-129.09,37.02,0,74.92,5.22,110.47,16.28v83.92"/>
        <path id="path9816" class="cls-3" d="M1217.72,4947.08c0,42.34-.73,71.2,38.6,94.24v2.18h-146.96v-2.18c37.21-14.1,32.7-68.15,32.7-101.64v-330.85h-65.33c-31.89,0-65.2,8.16-88.27,29.6h-2.23l25.99-88.3h2.21c8.94,3.78,18.59,3.78,28.18,5.24h295.3c12.65,0,24.49-.69,34.12-5.24h2.21l-23.68,88.3h-2.32c-9.65-25.84-39.26-29.6-63.82-29.6h-66.7v338.25"/>
        <path id="path9818" class="cls-3" d="M1548.6,4618.46l-73.46,186.94h146.18l-72.73-186.94M1455.91,4860.32l-38.63,104.66c-15.53,41.5-20.74,63.09,14.84,76.36v2.15h-136.55v-2.15c43.04-21.53,55.69-63.01,71.95-105.28l123.9-309.41c10.45-26.68,24.56-57.9-11.03-69.02v-2.23h117.19l154.31,380.67c17.05,42.25,30.39,83.75,72.73,105.28v2.15h-152.12v-2.15c36.33-16.29,30.43-24.52,10.36-76.36l-40.06-104.66h-186.89Z"/>
        <path id="path9820" class="cls-3" d="M1957.34,4985.03c17.78,3.71,35.63,5.17,54.18,5.17,110.52,0,209.22-57.84,209.22-186.26s-72.75-195.11-196.65-195.11c-22.17,0-44.46,2.91-66.75,8.16v368.04M1881.69,4657.1c0-34.16,5.17-88.37-32.66-99.49v-2.23h181.77c169.09,0,274.51,92.01,274.51,239.71s-112.06,248.39-278.21,248.39h-178.07v-2.15c37.09-25.3,32.66-60.86,32.66-104.58v-279.65h.01Z"/>
        <path id="path9822" class="cls-3" d="M2448.41,4981.16l94.2,9.03c48.98,4.47,100.14-11.19,137.28-43.81h2.19l-33.31,97.11h-309.41v-2.18c37.9-13.24,33.39-68.15,33.39-101.64v-279.65c0-34.1,4.51-88.31-33.39-102.43v-2.23h237.38c12.65,0,25.26,1.54,34.9-3.71h2.2v86.76h-2.2c-22.97-26.7-53.36-29.62-87.57-29.62-25.99,0-51.97.79-75.66,5.17v138.07h88.3c11.84,0,23.76,0,32.58-4.55h2.32v78.67h-2.32c-11.84-21.44-42.96-20.74-66.01-20.74h-54.87v175.76"/>
        <path id="path9824" class="cls-3" d="M3069.78,4555.4c99.41,0,153.6,51.97,153.6,119.46s-57.11,116.53-117.92,130.55l106.78,134.29c31.12,38.63,77.96,77.12,120.19,103.79h-68.32c-39.25,0-63.74-9.63-86.03-37.02l-90.49-112.06-68.29-104.58c59.39-8.88,128.4-36.4,128.4-106.11,0-53.38-46.04-84.52-95.7-82.29-17.09.77-33.43,2.91-50.48,5.94v332.31c0,34.1-4.44,88.4,33.39,101.64v2.18h-141.66v-2.18c37.83-13.24,32.62-68.15,32.62-101.64v-279.65c0-34.1,5.21-88.3-32.62-102.43v-2.23h176.52"/>
        <path id="path9826" class="cls-3" d="M3416.05,4981.16l94.29,9.03c48.97,4.47,100.14-11.19,137.2-43.81h2.26l-33.3,97.11h-309.41v-2.18c37.82-13.24,33.3-68.15,33.3-101.64v-279.65c0-34.1,4.52-88.31-33.3-102.43v-2.23h237.38c12.57,0,25.18,1.54,34.81-3.71h2.23v86.76h-2.23c-22.99-26.7-53.38-29.62-87.51-29.62-25.99,0-51.86.79-75.73,5.17v138.07h88.38c11.84,0,23.69,0,32.62-4.55h2.19v78.67h-2.19c-11.87-21.44-43.07-20.74-66.06-20.74h-54.95v175.76"/>
        <path id="path9832" class="cls-3" d="M4930.75,4618.46l-73.37,186.94h146.11l-72.74-186.94M4838.09,4860.32l-38.52,104.66c-15.67,41.5-20.88,63.09,14.76,76.36v2.15h-136.45v-2.15c42.94-21.53,55.61-63.01,71.95-105.28l123.9-309.41c10.34-26.68,24.41-57.9-11.16-69.02v-2.23h117.19l154.31,380.67c17.09,42.25,30.43,83.75,72.64,105.28v2.15h-152v-2.15c36.4-16.29,30.43-24.52,10.34-76.36l-40.02-104.66h-186.94Z"/>
        <path id="path9834" class="cls-3" d="M5264.72,4660.03c0-34.1,5.04-88.31-32.7-102.43v-2.23h140.95v2.23c-37.1,14.1-32.66,69.02-32.66,102.43v279.65c0,33.49-4.44,87.54,32.66,101.64v2.18h-140.95v-2.18c37.02-13.24,32.7-68.15,32.7-101.64v-279.65"/>
        <path id="path9836" class="cls-3" d="M5696.21,4643.69c-28.93-29.69-74.96-46.73-116.41-46.73s-95.69,16.36-95.69,67.48c0,101.64,255.24,100.25,255.24,237.38,0,79.37-83.13,153.63-198.94,153.63-45.23,0-90.44-6.71-132.72-22.29l-21.5-92.71c43.73,37.87,104.53,61.55,162.42,61.55,42.25,0,106.16-25.22,106.16-77.21,0-115.7-255.25-94.78-255.25-252.19,0-93.45,95.63-129.09,186.12-129.09,37.1,0,74.95,5.22,110.56,16.28v83.92"/>
      </g>
      <g id="g925">
        <path id="path9838" class="cls-3" d="M1467.37,5534.75c0,18.59-3.31,48.97,17.39,56.77v1.23h-78.36v-1.23c21.17-7.41,18.63-38.19,18.63-56.77v-156.33c0-19.14,2.55-49.37-18.63-57.22v-1.31h132.68c7.1,0,14.11.92,19.51-2.01h1.23v47.97h-1.23c-12.8-14.43-29.88-16.12-48.97-16.12-14.46,0-29,.54-42.27,2.94v77.21h49.74c6.17,0,12.89,0,17.85-2.55h1.27v43.88h-1.27c-6.63-12.33-24.06-11.48-36.94-11.48h-30.66v75.03"/>
        <path id="path9840" class="cls-3" d="M1651.84,5451.75c0,58.08,41.06,117.77,106.23,117.77s103.23-45.96,103.23-107.9-38.56-118.91-104.12-118.91-105.33,46.43-105.33,109.04M1908.58,5453.46c0,84.62-70.09,145.91-152.62,145.91s-151.31-58.85-151.31-143.84c0-78.82,68.36-144.68,155.47-142.68,87.1-.44,148.46,65.96,148.46,140.62Z"/>
        <path id="path9842" class="cls-3" d="M2004.28,5451.75c0,58.08,40.99,117.77,106.16,117.77s103.23-45.96,103.23-107.9-38.56-118.91-104.04-118.91-105.35,46.43-105.35,109.04M2260.94,5453.46c0,84.62-70.03,145.91-152.54,145.91s-151.39-58.85-151.39-143.84c0-78.82,68.37-144.68,155.47-142.68,87.11-.44,148.46,65.96,148.46,140.62Z"/>
        <path id="path9844" class="cls-3" d="M2413.92,5538.91c0,23.59-.47,39.79,21.6,52.59v1.23h-82.13v-1.23c20.74-7.79,18.23-38.19,18.23-56.77v-185.01h-36.48c-17.85,0-36.51,4.63-49.35,16.73h-1.28l14.54-49.44h1.23c4.98,2.07,10.45,2.07,15.74,2.85h165.04c7.14,0,13.77-.39,19.13-2.85h1.27l-13.26,49.44h-1.27c-5.36-14.65-21.98-16.73-35.71-16.73h-37.29v189.18"/>
        <path id="path9846" class="cls-3" d="M2639.31,5429.85c26.96,0,65.48-9.18,65.48-43.19,0-28.61-26.53-43.5-51.41-41.03l-27.8,2.91v81.29l13.73.03M2661.66,5562.89c33.97,3.32,68.48-12.5,68.48-51.75s-39.03-57.7-75.51-55.61l-29.07,1.63v102.41l36.09,3.32ZM2583.31,5377.95c0-18.66,2.85-48.9-18.25-56.77v-1.3h98.25c54.71,0,86.71,23.28,86.71,60.24,0,27.69-17.85,43.48-41.46,53.74,37.25,7.94,67.52,32.86,67.52,73.42,0,31.92-21.98,59.3-49.78,72.64-28.97,14.11-61.73,12.82-92.86,12.82h-68.4v-1.23c20.7-7.79,18.25-38.19,18.25-57.15v-156.41s.01,0,.01,0Z"/>
        <path id="path9848" class="cls-3" d="M2966.18,5355.2l-40.99,104.51h81.67l-40.68-104.51M2914.39,5490.31l-21.55,58.46c-8.71,23.22-11.65,35.32,8.3,42.74v1.23h-76.31v-1.23c24.02-12.03,31.12-35.32,40.22-58.86l69.25-172.91c5.82-14.95,13.64-32.33-6.26-38.56v-1.3h65.56l86.22,212.76c9.56,23.53,17.09,46.82,40.6,58.86v1.23h-84.99v-1.23c20.33-9.11,17.01-13.66,5.86-42.74l-22.44-58.46h-104.45Z"/>
        <path id="path9850" class="cls-3" d="M3285.46,5562.89c28.18,1.7,52.67-7.87,73.46-25.22h1.27l-21.67,55.07h-170.32v-1.23c21.09-7.41,18.62-38.19,18.62-56.77v-156.33c0-19.14,2.47-49.37-18.62-57.22v-1.31h79.12v1.32c-21.09,7.86-18.23,38.56-18.23,57.22v180.76l56.37,3.69"/>
        <path id="path9852" class="cls-3" d="M3530.12,5562.89c28.11,1.7,52.67-7.87,73.35-25.22h1.27l-21.55,55.07h-170.38v-1.23c21.04-7.41,18.55-38.19,18.55-56.77v-156.33c0-19.14,2.51-49.37-18.55-57.22v-1.31h79.19v1.32c-21.24,7.86-18.3,38.56-18.3,57.22v180.76l56.44,3.69"/>
        <path id="path9854" class="cls-3" d="M4126.43,5371.32c-22.82-14.5-49.37-23.68-76.72-23.68-57.18,0-96.98,41.95-96.98,102.11s41.46,115.2,105.27,115.2c31.12,0,62.13-11.25,88.42-26.06h1.19l-21.17,48.13c-19.58,9.03-41.06,12.35-62.62,12.35-97.84,0-158.41-54.69-158.41-143.36s60.58-142.75,145.6-142.75c25.29,0,50.85,4.62,75.43,10.41v47.66"/>
        <path id="path9856" class="cls-3" d="M4339.36,5562.89c28.18,1.7,52.59-7.87,73.33-25.22h1.2l-21.5,55.07h-170.43v-1.23c21.17-7.41,18.66-38.19,18.66-56.77v-156.33c0-19.14,2.52-49.37-18.66-57.22v-1.31h79.11v1.32c-21.03,7.86-18.15,38.56-18.15,57.22v180.76l56.44,3.69"/>
        <path id="path9858" class="cls-3" d="M4654.35,5565.36c-18.23,24.06-52.21,34.01-81.26,34.01-27.33,0-56.38-8.64-75.11-28.93-21.94-24.06-21.09-51.9-21.09-81.67v-110.82c0-18.66,2.85-48.9-18.32-56.77v-1.3h78.9v1.31c-20.74,7.87-18.23,38.11-18.23,56.77v110.82c0,55.07,23.22,80.73,65.93,80.73,23.24,0,46.86-9.55,60.52-29,9.12-12.42,8.67-22.75,8.67-37.71v-124.86c0-18.66,2.6-48.9-18.23-56.77v-1.3h78.82l.39,1.31c-21.1,7.87-18.65,38.11-18.65,57.22v156.33c0,18.59-2.47,48.97,18.65,56.77v1.23h-60.97v-27.38"/>
        <path id="path9860" class="cls-3" d="M4850.04,5429.85c27.04,0,65.64-9.18,65.64-43.19,0-28.61-26.53-43.5-51.48-41.03l-27.8,2.91v81.29l13.63.03M4872.49,5562.89c34.01,3.32,68.44-12.5,68.44-51.75s-38.91-57.7-75.4-55.61l-29.13,1.63v102.41l36.09,3.32ZM4794.14,5377.95c0-18.66,2.85-48.9-18.23-56.77v-1.3h98.25c54.81,0,86.69,23.28,86.69,60.24,0,27.69-17.82,43.48-41.46,53.74,37.29,7.94,67.6,32.86,67.6,73.42,0,31.92-21.94,59.3-49.82,72.64-29,14.11-61.73,12.82-92.85,12.82h-68.4v-1.23c20.8-7.79,18.23-38.19,18.23-57.15v-156.41s-.01,0-.01,0Z"/>
      </g>
      <g id="g931">
        <path id="path9862" class="cls-2" d="M2662.46,5992.99c33.39-11.66,63.08-35.63,80.32-65.73h1.08v211.7c0,21.44-1.43,38.71,18.89,51.9v1.01h-78.9v-1.01c23.29-11.41,22.17-29,22.17-51.9v-144.92h-43.58v-1.06"/>
        <path id="path9864" class="cls-2" d="M2958.6,6176.23c60.01-12.42,114.84-67.24,114.84-130.33,0-38.33-21.4-80.28-64.62-80.28-32.28,0-54.8,25.06-54.8,56.68,0,34.1,22.52,61.08,57.18,61.08,13.81,0,27.73-4.78,39.72-11.96l-25.52,31.17c-9.76,3.76-19.9,5.62-30.39,5.62-44.01,0-78.82-32.7-78.82-78.03,0-54.77,44.61-91.24,97.52-91.24,59,0,97.63,46.2,97.63,102.88,0,43.18-22.82,84.83-56.33,111.51-34.25,26.92-72.42,40.49-115.3,46.11l18.88-23.22"/>
        <path id="path9866" class="cls-2" d="M3313.96,6065.48c0,37.79,12.38,103.1,60.81,103.1,37.17,0,58.28-45.73,58.28-98.72s-22.56-100.87-60.52-101.74c-47.34.04-58.57,60.87-58.57,97.35M3273.83,6069.19c0-69.39,34.14-130.25,100.15-130.25,69.52,0,99.21,67.17,99.21,128.03s-30.11,130.94-100.63,130.94c-58.9-.7-98.73-59.32-98.73-128.72Z"/>
        <path id="path9868" class="cls-2" d="M3630.79,5992.99c33.35-11.66,63.04-35.63,80.24-65.73h1.2v211.7c0,21.44-1.49,38.71,18.69,51.9v1.01h-78.74v-1.01c23.33-11.41,22.13-29,22.13-51.9v-144.92h-43.54v-1.06"/>
      </g>
      <g id="g899">
        <polygon id="polygon9870" class="cls-3" points="1613.71 3189.56 2495.41 4088.79 3898.08 4088.79 3908.24 4078.44 4779.68 3189.56 4779.68 1757.42 3920.8 886.82 2472.64 886.82 1613.71 1757.44 1613.71 3189.56"/>
        <path id="path9872" class="cls-1" d="M2871.85,1982.78c0-172.99,135.28-314.31,305.78-324.16v-737.26h-690.51l-838.84,850.25v1403.84l861.68,878.79h667.67v-1747.24c-170.49-9.85-305.78-151.24-305.78-324.23h0Z"/>
        <path id="path9874" d="M3906.36,921.35h-690.51v737.27c170.51,9.95,305.69,151.23,305.69,324.15s-135.2,314.27-305.69,324.22v1747.25h667.71l861.55-878.79v-1403.83l-838.76-850.27Z"/>
        <g id="g889">
          <path id="path9876" class="cls-3" d="M3287.12,1604.96l8.52-112.9s168.4-8.56,316.84,114.14c0,0,119.74-351.06,288.16-425.17,0,0,11.37,45.58,22.68,48.51,11.52,2.77,51.39-42.88,62.91-39.95,11.3,2.85-14.31,156.95,342.34,291.06l-19.96,94.17s-436.55-34.32-436.55,225.35c0,116.99,168.37,319.59,196.78,356.69,28.69,37.09,211.19,185.48,236.85,582.1,0,0,65.71-48.58,65.71-174.06s-74.15-376.66-74.15-467.97-14.39-336.63,233.9-336.63v125.47s-84.11-2.4-94.2,108.44c-8.45,94.17,114.18,507.91,57.13,664.86-46.86,128.94-71.35,179.7-162.62,251.04-91.3,71.33-382.4,302.47-102.77,507.84l-259.62,470.83s-151.24,54.22-162.61,54.22-42.86,5.79-20.05-19.97c22.86-25.61,222.62-211.08,222.62-413.67s-293.87-265.45-293.87-570.7c0-202.59,176.92-325.3,176.92-325.3,0,0-31.41-74.19-62.78-99.79-31.46-25.76-205.49-128.49-231.09-191.26,0,0-171.29,139.83-308.22,148.46,0,0-34.21-59.92-37.06-102.73,0,0,342.19-43.73,335.57-401.79-5.62-300.3-301.39-361.23-301.39-361.23"/>
          <path id="path9878" class="cls-3" d="M3106.19,1604.96l-8.52-112.9s-168.28-8.56-316.77,114.14c0,0-119.76-351.06-288.08-425.17,0,0-11.45,45.58-22.91,48.51-11.38,2.77-51.32-42.88-62.71-39.95-11.45,2.85,14.24,156.95-342.42,291.06l19.98,94.17s436.58-34.32,436.58,225.35c0,116.99-168.4,319.59-196.9,356.69-28.57,37.09-211.15,185.48-236.84,582.1,0,0-65.63-48.58-65.63-174.06s74.15-376.66,74.15-467.97,14.31-336.63-233.9-336.63v125.47s84.03-2.4,94.13,108.44c8.53,94.17-114.1,507.91-57.07,664.86,46.89,128.94,71.31,179.7,162.65,251.04,91.3,71.33,382.33,302.47,102.77,507.84l259.59,470.83s151.23,54.22,162.65,54.22,42.83,5.79,20.01-19.97c-22.84-25.61-222.64-211.08-222.64-413.67s293.95-265.45,293.95-570.7c0-202.59-176.92-325.3-176.92-325.3,0,0,31.38-74.19,62.82-99.79,31.35-25.76,205.38-128.49,231.05-191.26,0,0,171.21,139.83,308.13,148.46,0,0,34.28-59.92,37.13-102.73,0,0-342.19-43.73-335.56-401.79,5.6-300.3,301.27-361.23,301.27-361.23"/>
          <path id="path9880" class="cls-3" d="M2600.68,3426.56l262.47,380.43,157.87,26.61s26.61,0,11.38-22.75c-15.23-22.91-192.08-228.35-209.19-279.71-17.13-51.36-57.11-95.09,13.26-192.19,70.37-96.94,205.4-188.26,205.4-382.29s-165.46-350.36-382.28-346.2c-96.98,2.01-18.74,60.54-9.56,72.34,21.02,26.61,79.89,108.44,93.25,232.14,14.62,136.11-53.29,218.63-53.29,230.05,0,32.39,49.5,38.11,49.5,119.85,0,95.18-138.81,161.73-138.81,161.73"/>
          <path id="path9882" class="cls-3" d="M3788.25,3426.56l-262.45,380.43-157.95,26.61s-26.61,0-11.36-22.75c15.16-22.91,192.13-228.35,209.28-279.71,17.08-51.36,57.03-95.09-13.34-192.19-70.34-96.94-205.49-188.26-205.49-382.29s165.53-350.36,382.4-346.2c96.97,2.01,18.69,60.54,9.56,72.34-21.02,26.61-79.95,108.44-93.29,232.14-14.68,136.11,53.29,218.63,53.29,230.05,0,32.39-49.52,38.11-49.52,119.85-.01,95.18,138.85,161.73,138.85,161.73"/>
        </g>
      </g>
    </g>
  </g>
</svg>