<?xml version="1.0" encoding="UTF-8"?>
<!DOCTYPE svg PUBLIC "-//W3C//DTD SVG 1.1//EN" "http://www.w3.org/Graphics/SVG/1.1/DTD/svg11.dtd">
<!-- Creator: CorelDRAW 2019 (64-Bit) -->
<svg xmlns="http://www.w3.org/2000/svg" xml:space="preserve" width="187.819mm" height="243.336mm" version="1.1" style="shape-rendering:geometricPrecision; text-rendering:geometricPrecision; image-rendering:optimizeQuality; fill-rule:evenodd; clip-rule:evenodd"
viewBox="0 0 189.0342 244.9111"
 xmlns:xlink="http://www.w3.org/1999/xlink"
 xmlns:xodm="http://www.corel.com/coreldraw/odm/2003">
 <defs>
  <style type="text/css">
   <![CDATA[
    .fil1 {fill:#FBBB05}
    .fil0 {fill:#9A2233}
    .fil3 {fill:#BCB9B7}
    .fil5 {fill:#A4A2A1}
    .fil6 {fill:#2C2E32}
    .fil4 {fill:#1F1B20}
    .fil2 {fill:#1D1E21}
   ]]>
  </style>
 </defs>
 <g id="Layer_x0020_1">
  <metadata id="CorelCorpID_0Corel-Layer"/>
  <g id="_661006304">
   <path class="fil0" d="M96.0126 193.6442c-0.5643,0.357 -0.4512,-0.301 -0.4792,-1.0059 -0.026,-0.6409 -0.0846,-1.2754 -0.0151,-1.9043 0.4781,-0.9227 9.8053,-3.2383 8.7697,4.858 0.0349,2.4306 -3.3836,6.0307 -5.0648,7.3497 -0.3285,0.2577 -0.7274,0.6192 -1.0555,0.8372 1.8764,-0.021 4.6983,0.2538 5.8714,-0.9029 0.5985,-0.5901 0.4047,-1.1175 0.9227,-1.3808 0.2753,1.0064 -0.3094,2.0643 -0.3469,3.0363 0.0488,1.1786 -0.0925,1.5626 -1.2031,1.6425 -1.2087,0.0867 -8.2649,0.1708 -8.8509,-0.1498 -0.0007,-0.8095 0.0048,-0.2565 0.2302,-0.5156 -0.2281,-0.1897 -0.1243,-0.109 -0.2631,-0.4302l2.4576 -2.3224c0.9911,-0.8352 1.4878,-1.4299 2.329,-2.4022 0.9081,-1.0494 3.2516,-4.5725 2.35,-6.6795l-0.3524 -0.6806c-0.4314,-0.9172 -1.1538,-1.498 -2.3161,-1.5285 -2.1327,-0.0558 -2.1947,1.0621 -2.9835,2.179zm-11.3394 0.1755l0 0c0.0466,1.6262 0.6273,2.7555 1.5801,3.3534 1.7777,1.1152 3.689,-0.9169 2.7758,0.6429l0.3459 0.2731c-1.3585,2.0522 -6.444,1.2417 -6.855,-1.9219l0.058 -0.6327c-0.601,-1.5949 0.419,-3.706 1.1842,-4.4251 0.9652,-0.9074 2.7878,-1.5431 4.6561,-1.3067 3.8252,0.4839 4.6026,3.8493 4.0681,7.7585 0.0964,1.1025 -0.5426,2.4254 -0.9631,3.2004 -1.0916,2.0126 -5.1193,5.9931 -6.8229,5.8408 0.0037,-0.4944 0.0844,-0.4156 0.4047,-0.7043 -0.7858,0.0246 -0.2591,0.0137 -0.4568,-0.1892 0.3106,-0.7402 2.1978,-1.0993 4.1745,-4.6485 0.8633,-1.5502 1.834,-5.2181 1.0847,-7.1221 -0.7259,-0.6745 -0.6993,-2.3278 -2.6318,-2.4893 -1.725,-0.1441 -2.1973,1.0235 -2.6024,2.3707zm-6.8951 11.6703l0 0c0.5695,0.4948 1.1343,0.0018 1.6896,0.5342 -0.5266,0.4392 -2.7619,0.1711 -3.8044,0.1732 -0.8787,0.0017 -3.1627,0.3338 -3.7234,-0.1732 0.553,-0.5595 1.3053,-0.0381 1.8928,-0.5296 -0.7593,0.0032 -1.5926,0.2092 -1.8836,-0.2586 0.7996,-0.5996 2.1914,0.2015 2.5187,-1.0195 0.2968,-1.1076 0.1048,-9.1268 0.1331,-10.7497 -1.2016,-0.0958 -1.9174,0.7809 -3.0684,0.9497 0.0664,-0.4146 0.0882,-0.4481 0.2401,-0.7277 -0.2777,-0.2201 -0.1636,0.1374 -0.2471,-0.5114 1.5304,-0.8517 4.6273,-3.3526 5.5957,-3.4285l-0.0205 13.4463c0.056,1.6362 0.2507,1.6662 1.4625,1.7956 0.8078,0.0863 0.6843,-0.1032 0.8637,0.4029 -0.4479,0.1991 -1.112,0.0992 -1.6486,0.0962zm34.3978 -0.7427l0 0c0.0398,1.0153 -0.2506,1.2455 -1.767,1.6616 -1.1305,0.3102 -0.9801,-0.0125 -1.0707,-0.0694 0.1049,-0.8766 -0.293,-0.4084 0.6267,-0.5985l-0.6265 0.0354c0.0727,-3.2637 5.1085,-11.616 5.5747,-13.0436 -1.5662,0.0584 -5.789,-0.2623 -6.6832,0.4596 -0.5266,0.4252 -0.4489,1.3766 -0.8959,1.3599 -0.2134,-0.4467 -0.1312,-0.1486 -0.0788,-0.7616l0.2905 -3.7766c0.3981,-0.0726 9.0627,0.0512 9.8614,0.1342 0.0306,0.4876 -1.1909,2.6154 -1.5426,3.2824 -0.5588,1.06 -1.0537,2.3607 -1.5193,3.5236 -1.0179,2.5425 -1.8925,4.847 -2.1694,7.7931zm-22.6067 -44.7686l0 0c0.3919,1.022 -1.0737,4.5391 -1.5776,5.411 -5.7278,9.9104 -20.2178,9.9218 -26.1142,2.0855 -1.3974,-1.8571 -3.0591,-5.4536 -2.8342,-7.8057 -1.0897,-10.4256 5.6316,-17.251 15.6743,-17.2025 5.3279,0.0258 9.3021,1.9069 11.9107,4.6682 2.5273,2.6752 3.9047,7.9616 2.9411,12.8435zm7.1798 -6.0338l0 0c0.4802,-0.0953 0.5515,0.4259 0.7607,0.9112l7.6909 15.4767c0.423,0.7976 0.7547,1.8152 1.5159,2.1608 1.0234,-0.589 2.0016,-3.4221 2.5608,-4.5852 0.7862,-1.6353 1.5688,-3.1648 2.3328,-4.7559 0.8378,-1.744 4.2927,-8.489 4.6475,-9.7209 0.0379,0.0426 0.0953,0.0449 0.1151,0.1264 0.0183,0.0765 0.0822,0.091 0.1056,0.1207 0.0186,0.0239 0.2103,0.2889 0.2265,0.3116 0.5664,2.5039 0.8606,6.0509 1.2244,8.684l0.9107 6.645c0.1432,1.6759 -0.2531,0.9773 -0.6415,1.8683 0.166,0.1667 -0.0001,0.0843 0.3696,0.2699l-0.3325 0.6758c0.995,0.5657 18.3439,0.4975 18.8811,0.1925 -0.288,-1.066 -1.1473,-0.1005 -1.9186,-0.6998 0.3292,0.0122 0.8572,0.0681 1.1649,0.0495 0.7026,-0.0425 0.6069,0.0271 0.7465,-0.5114 -1.059,-0.5593 -2.2137,0.4141 -2.6263,-1.1468 0.4466,-1.0317 0.8909,-2.515 1.3291,-3.6294 0.4633,-1.1779 0.9617,-2.5115 1.4129,-3.5481l8.8988 -0.0067c0.8235,1.4848 2.4237,6.951 3.142,7.7931 -0.5418,0.6956 -0.4352,0.0136 -0.792,0.7189l0.6008 0.2394 -0.38 0.2836c-0.1896,0.2264 -0.1615,0.028 -0.2408,0.4602 1.467,0.2249 3.4945,0.1557 5.0794,0.1752 1.0368,0.0129 4.382,0.3141 4.9695,-0.3703 -0.5159,-0.6301 -1.1182,-0.148 -1.8906,-0.4764 0.3696,-0.0067 1.2678,0.0658 1.5662,-0.1009 0.4131,-0.2308 0.1426,0.0508 0.287,-0.3685 -1.6384,-0.9918 -2.9322,1.5291 -5.7493,-5.3294l-8.8163 -21.6082c-1.4247,-3.45 -1.8654,-1.3066 -2.9673,1.4122l-7.2567 17.9637c-1.9739,4.8762 -2.3138,8.2319 -7.6329,7.3171 -1.7271,-0.2972 -2.2003,-0.7768 -2.5901,-2.4666 -0.7689,-3.3316 -2.5805,-17.0433 -3.3202,-21.8968 -0.1722,-1.1295 -0.4699,-6.454 -2.0902,-3.0065l-9.4331 19.5767c-0.1924,0.4101 -0.439,1.0988 -0.7895,1.4091 -1.0048,-1.608 -1.931,-3.8288 -2.7754,-5.5736l-6.9016 -14.0574c-0.55,-1.1408 -0.926,-2.3798 -1.8299,-2.4571 -0.7551,0.636 -1.2954,6.1828 -1.4999,7.52l-2.391 15.7052c-1.1428,7.3594 -1.439,4.2418 -3.6389,5.4753 0.2882,0.7369 0.7817,0.4823 1.6869,0.478 -0.8398,0.4592 -1.4379,-0.1876 -1.6873,0.65 0.7659,0.5667 3.5118,0.1083 4.6928,0.1288l3.6382 0.1303c0.7145,-0.0284 0.688,0.0607 1.0129,-0.4249 -0.2186,-0.2062 0.064,-0.0675 -0.3147,-0.2018 -0.57,-0.202 -0.9093,-0.0027 -1.4936,-0.2698 1.8081,-0.0225 1.5824,0.1371 1.765,-0.4741 -1.4074,-0.7982 -3.3793,0.5311 -3.2618,-2.3614l1.9276 -14.8814zm-45.4948 -2.3509l0 0c0.5301,-2.2597 -0.1357,-4.5193 -1.2127,-5.8565 -2.7088,-3.3628 -8.0788,-2.7647 -12.2098,-2.6868 -1.2771,0.0241 -6.6777,-0.4494 -7.324,0.2363 0.5276,0.8239 1.014,0.072 1.7548,0.5232 -0.8639,0.1174 -1.1822,-0.1509 -1.7556,0.265 0.1021,0.2132 -0.1125,0.3849 0.8535,0.4383 0.7297,0.0404 1.6003,-0.0195 2.2186,0.5041l0.6782 0.8376c0.1711,1.8986 0.1029,18.759 -0.008,21.2299 -0.2399,5.3367 -1.4051,3.2361 -3.1701,4.0765 0.2601,0.726 0.6648,0.4942 1.5588,0.4959 -0.8467,0.3987 -1.3111,-0.2116 -1.5568,0.6427 0.6315,0.3497 6.8991,0.1563 8.7998,0.1841 0.851,0.0124 2.4019,0.3316 2.9233,-0.351 -0.5328,-0.6033 -1.0386,-0.1711 -1.7908,-0.4747 0.8522,-0.0193 1.3377,0.1721 1.7746,-0.3135 -0.2955,-0.4684 0.1171,-0.2892 -1.5351,-0.4219 -2.1367,-0.1716 -2.2039,-0.8361 -2.354,-3.4548 -0.0634,-1.1105 -0.2466,-6.9434 0.0052,-7.6104l-0.0835 0.7995c5.7116,-0.0953 3.5065,-0.2947 9.4014,7.3902 0.9904,1.2912 2.6043,3.3129 4.3469,4.0077 1.2189,0.486 7.0637,0.8953 7.891,0.1823 -0.287,-0.7498 -0.823,-0.231 -1.5904,-0.5795 0.8129,-0.0014 1.303,0.2148 1.592,-0.4235 -0.8497,-0.6873 -2.047,0.2032 -4.5789,-1.8596 -1.3718,-1.1178 -8.438,-9.4475 -9.0516,-10.6525 0.963,-0.3727 5.2623,-4.9877 4.4233,-7.1287zm5.3172 -18.2132l0 0c0.1778,-0.9241 0.4413,-0.682 0.7426,-1.5071 0.2134,-0.584 0.2013,-0.9379 0.4994,-1.5456 2.8163,-5.7393 4.9322,-3.6232 6.1508,-6.1345l-54.1982 0.0006c0.4062,2.9134 1.7654,7.195 2.5952,10.0463 4.2399,14.5704 11.1886,30.4834 19.1938,43.0667 7.561,11.8853 12.8218,18.6327 21.5643,28.25 2.3991,2.6391 5.2981,5.3457 7.8176,7.7878l8.1973 7.4023c3.6444,3.0627 6.6813,5.2696 10.4284,8.1745 1.2837,0.9953 14.1855,9.8589 14.9857,9.7891 0.4095,-0.0357 6.811,-4.2013 7.6422,-4.7427 8.4688,-5.5163 13.7568,-9.9799 21.153,-16.2073 0.3171,-0.2669 0.4837,-0.5009 0.7953,-0.7733 3.2875,-2.8751 7.4982,-6.8865 10.3293,-10.0103 0.4851,-0.5351 1.013,-0.9624 1.4895,-1.5011l5.8318 -6.6259c1.771,-1.9739 3.9123,-4.7553 5.5643,-6.8854 12.4108,-16.0003 23.6305,-37.4726 29.3309,-57.844 0.8182,-2.9234 2.1159,-6.9384 2.5509,-9.9286l-16.2263 0.0275c-0.2962,1.4997 -0.7783,3.6978 -1.2611,5.0538 -2.1831,6.1324 -8.8969,2.8146 -13.4964,2.108 -0.0312,-1.2334 1.3047,-4.1756 1.8946,-4.8814 1.8471,-2.2096 3.8391,-0.7019 4.6734,-2.303l-7.9378 0.0008c-0.4186,1.5902 -1.3181,3.3773 -2.3552,4.0955 -3.0751,2.1299 -9.8242,0.7424 -10.2503,-0.1256 -0.5153,-1.049 1.0729,-2.0417 2.1127,-3.9737l-2.5956 -0.0013c0.1847,1.664 -0.3466,2.4666 -1.5889,2.9703l-3.5074 0.8758c-2.209,0.3153 -3.436,-0.1671 -4.2722,-2.3041 -0.6519,-1.6666 0.1279,-1.65 -2.8706,-1.52 0.3429,4.9383 -2.9691,3.0697 -5.7723,3.2321 -0.7297,2.4913 0.2295,3.4351 -0.8267,4.3764 -1.2063,1.0752 -2.7967,0.4515 -3.8641,-0.3205 -1.1068,-0.8005 -2.276,-1.2267 -3.6171,-1.8946 -1.3217,-0.6581 -1.6072,-0.7772 -2.344,-1.7559 -1.1307,-1.5026 -0.9823,0.2319 -4.2629,-0.6261 -1.1932,-0.3123 -1.6232,-0.7286 -2.9263,-0.0176 0.1392,1.7162 -0.1097,2.352 -1.7717,2.7116 -0.9881,0.2137 -1.0164,-0.0196 -1.8818,0.4662 -0.4469,0.2509 -0.9958,0.5578 -1.5137,0.6978 -1.0849,0.2935 -3.1688,-0.7587 -3.4565,-1.1342 -0.8693,-1.1338 0.0766,-2.7398 0.3935,-3.7619 -1.5604,-1.346 -1.4303,-1.9899 -2.843,-2.0063 -2.1929,-0.0257 -13.4517,-0.1033 -14.0969,0.131 -0.6041,3.7496 -0.4736,8.9212 -4.6801,8.8678l-0.4657 -1.0623c-1.1066,-0.0987 -1.9535,1.0537 -5.3131,1.3097 -2.9246,0.2231 -2.2083,-0.0724 -2.8268,-0.3017 -0.614,-0.2275 -2.0562,0.2856 -2.9139,0.2542z"/>
   <path class="fil1" d="M8.3451 52.7703c-0.3107,2.4368 -0.8638,4.9921 -1.2158,7.4849 -2.4858,17.5935 -2.4395,35.5094 0.4826,53.0453 0.3695,2.2181 0.9102,6.3516 1.6223,8.2995l55.8229 0.0187c1.2476,-2.0272 1.9551,-20.5564 1.9582,-24.2025 0.0052,-6.1522 -1.4331,-5.9928 -6.3469,-8.4868 -3.2288,-1.6386 -6.9089,-3.2332 -10.5439,-4.4364 -4.7183,-1.5618 -7.3461,-1.7641 -12.583,-2.2461 -2.1213,-0.1954 -4.6208,-0.761 -6.6451,-0.7299 -9.13,0.1395 -5.1487,-1.9865 -6.0537,-5.6282 -0.4333,-1.743 -5.2743,-7.7754 0.1218,-9.8007 -0.0521,-2.0851 -0.9619,-3.1229 0.2748,-5.0673 0.5317,-0.8365 1.1342,-0.8916 1.2942,-1.6866 0.2031,-1.0086 0.0439,-1.7365 0.4266,-2.7371 0.5546,-1.4519 3.3017,-4.904 4.5891,-7.5708 0.5007,0.7751 0.6304,2.5017 1.0912,3.4513 1.5768,3.2485 0.5314,1.1524 1.2506,3.4573l7.2068 -0.1521c0.504,-1.8325 -0.3211,-3.0433 1.0383,-4.8168 0.4079,-0.5326 2.4781,-2.3126 3.2619,-2.6013 1.112,0.3207 2.8643,2.813 3.5766,3.8585 1.4485,2.1255 -0.7523,5.4768 0.9582,6.3006 2.5673,1.2363 15.0408,-1.0663 20.3704,-1.1431 2.6552,-0.0381 4.4702,0.3165 7.0087,0.5736 8.9018,0.9012 24.8613,0.4805 33.8142,0.2166 5.4819,-0.1615 11.4498,-0.7587 16.871,-0.3203 4.4624,0.361 10.3751,1.7617 14.0649,3.4298 9.636,4.3565 11.7237,12.2698 12.6884,22.2634 0.2629,2.7239 0.3957,5.4513 0.4603,8.1969 0.115,4.8829 -0.7717,3.0733 2.0571,6.8255 2.569,3.4084 5.0005,6.6269 7.6897,9.8061 3.6726,4.3413 -0.432,8.9824 -1.0804,13.2212l15.8877 0.0246c0.9545,-2.6746 2.4384,-13.777 2.8085,-17.0921 0.6835,-6.1201 1.0779,-12.5366 1.0626,-18.7744 -0.0152,-6.1875 -0.2251,-11.5619 -0.8437,-17.7508 -0.2623,-2.623 -0.5774,-5.1619 -0.9346,-7.7475 -0.3454,-2.5015 -0.8787,-5.0283 -1.2002,-7.4837 -6.6236,-1.1177 -18.5917,-5.2136 -25.0343,-7.5689 -15.6991,-5.7392 -34.0619,-16.7637 -47.4967,-26.2735 -2.7285,-1.9313 -11.4046,-8.4013 -13.5225,-11.0379l-4.3651 3.85c-7.3637,6.7169 -27.0015,18.8589 -34.4219,22.954 -12.129,6.6937 -21.1685,10.4707 -34.5346,14.6451 -3.8665,1.2074 -8.8799,2.7417 -12.937,3.4319z"/>
   <path class="fil2" d="M59.6801 131.5268c-0.0239,-0.2559 1.014,-4.1956 2.2697,-2.9157 0.1792,0.1829 0.1818,-0.2069 0.0791,0.3907l-0.7391 1.4917c-0.4222,0.7682 -0.5015,1.3821 -1.6098,1.0332zm94.9778 -4.4494l0 0c-0.4648,1.0427 -1.148,0.2314 -1.2864,2.0178 -0.0494,0.6344 0.2379,3.1086 -1.0035,1.9852 -0.4275,-0.387 -0.3756,-2.3197 -0.029,-2.859 0.3946,-0.6147 1.6905,-0.8703 2.3188,-1.144zm-15.8364 0.1925l0 0c-0.2035,-0.6367 0.0787,-1.5313 0.3832,-2.0771 0.7626,-0.0733 1.7476,0.2083 2.1507,0.7548 -0.2632,0.6961 -1.5406,1.8114 -2.5339,1.3223zm-8.2824 -1.1794l0 0c0.2813,-1.9237 0.4302,-0.2821 0.5816,-3.9419 0.4656,0.3855 0.5094,0.6165 0.8608,1.235 1.6112,2.8332 -0.4172,3.2035 -1.4425,2.7068zm6.9155 0.8595l0 0c0.6123,-0.3377 1.3328,-1.6894 1.1822,-2.5 -1.1444,-0.0008 -2.3973,1.647 -1.1822,2.5zm-80.8833 6.4307l0 0c0.1778,-0.9241 0.4413,-0.682 0.7426,-1.5071 0.2134,-0.584 0.2013,-0.9379 0.4994,-1.5456 2.8163,-5.7393 4.9322,-3.6232 6.1508,-6.1345l-54.1982 0.0006c0.4062,2.9134 1.7654,7.195 2.5952,10.0463 4.2399,14.5704 11.1886,30.4834 19.1938,43.0667 7.561,11.8853 12.8218,18.6327 21.5643,28.25 2.3991,2.6391 5.2981,5.3457 7.8176,7.7878l8.1973 7.4023c3.6444,3.0627 6.6813,5.2696 10.4284,8.1745 1.2837,0.9953 14.1855,9.8589 14.9857,9.7891 0.4095,-0.0357 6.811,-4.2013 7.6422,-4.7427 8.4688,-5.5163 13.7568,-9.9799 21.153,-16.2073 0.3171,-0.2669 0.4837,-0.5009 0.7953,-0.7733 3.2875,-2.8751 7.4982,-6.8865 10.3293,-10.0103 0.4851,-0.5351 1.013,-0.9624 1.4895,-1.5011l5.8318 -6.6259c1.771,-1.9739 3.9123,-4.7553 5.5643,-6.8854 12.4108,-16.0003 23.6305,-37.4726 29.3309,-57.844 0.8182,-2.9234 2.1159,-6.9384 2.5509,-9.9286l-16.2263 0.0275c-0.2962,1.4997 -0.7783,3.6978 -1.2611,5.0538 -2.1831,6.1324 -8.8969,2.8146 -13.4964,2.108 -0.0312,-1.2334 1.3047,-4.1756 1.8946,-4.8814 1.8471,-2.2096 3.8391,-0.7019 4.6734,-2.303l-7.9378 0.0008c-0.4186,1.5902 -1.3181,3.3773 -2.3552,4.0955 -3.0751,2.1299 -9.8242,0.7424 -10.2503,-0.1256 -0.5153,-1.049 1.0729,-2.0417 2.1127,-3.9737l-2.5956 -0.0013c0.1847,1.664 -0.3466,2.4666 -1.5889,2.9703l-3.5074 0.8758c-2.209,0.3153 -3.436,-0.1671 -4.2722,-2.3041 -0.6519,-1.6666 0.1279,-1.65 -2.8706,-1.52 0.3429,4.9383 -2.9691,3.0697 -5.7723,3.2321 -0.7297,2.4913 0.2295,3.4351 -0.8267,4.3764 -1.2063,1.0752 -2.7967,0.4515 -3.8641,-0.3205 -1.1068,-0.8005 -2.276,-1.2267 -3.6171,-1.8946 -1.3217,-0.6581 -1.6072,-0.7772 -2.344,-1.7559 -1.1307,-1.5026 -0.9823,0.2319 -4.2629,-0.6261 -1.1932,-0.3123 -1.6232,-0.7286 -2.9263,-0.0176 0.1392,1.7162 -0.1097,2.352 -1.7717,2.7116 -0.9881,0.2137 -1.0164,-0.0196 -1.8818,0.4662 -0.4469,0.2509 -0.9958,0.5578 -1.5137,0.6978 -1.0849,0.2935 -3.1688,-0.7587 -3.4565,-1.1342 -0.8693,-1.1338 0.0766,-2.7398 0.3935,-3.7619 -1.5604,-1.346 -1.4303,-1.9899 -2.843,-2.0063 -2.1929,-0.0257 -13.4517,-0.1033 -14.0969,0.131 -0.6041,3.7496 -0.4736,8.9212 -4.6801,8.8678l-0.4657 -1.0623c-1.1066,-0.0987 -1.9535,1.0537 -5.3131,1.3097 -2.9246,0.2231 -2.2083,-0.0724 -2.8268,-0.3017 -0.614,-0.2275 -2.0562,0.2856 -2.9139,0.2542zm34.1081 -6.2802l0 0c1.7262,-0.009 0.7862,0.4411 1.8424,-0.6856 0.4122,-0.4397 1.2598,-0.6991 1.8376,-1.0068 -1.36,-0.1115 -2.0959,0.4527 -2.6644,1.0979 -0.3924,-0.5225 -1.224,-1.238 -1.7505,-1.7559 -0.67,-0.659 -1.2002,-1.2885 -1.9039,-1.8796 -3.5369,-2.9708 2.6478,-5.1326 4.366,-4.216 1.6503,0.8805 4.4753,6.577 4.0251,6.9773 -0.4448,0.395 -0.5947,-0.4801 -1.2993,-1.6589 -0.9818,-1.642 -2.9838,-4.6802 -5.2287,-4.5627 1.3021,0.3002 2.8293,2.2202 3.5173,3.1229l2.7974 3.9831c0.4801,0.7027 0.5732,1.8216 -0.3056,2.1922 -0.741,0.3124 -0.8376,-0.0164 -1.5249,0.21 -0.8992,0.2959 -1.4772,1.5822 -3.516,0.4222 -0.3497,-0.199 -0.5859,-0.603 -0.4206,-1.0846 0.5693,-1.6588 -0.0465,0.1073 0.2281,-1.1554zm25.6572 -3.6417l0 0c-0.3443,-1.8118 -5.4304,-7.3532 -1.5399,-8.8204 1.0938,-0.4125 2.3014,-0.7793 3.4623,-0.9681 1.4032,3.2741 1.6069,3.2972 3.3539,5.9731 -0.9073,-0.0661 -0.9842,-0.172 -1.5144,-0.6153 -0.3753,-0.3136 -0.7615,-0.6085 -1.1358,-0.9132l-2.1174 -1.8617c0.1392,1.2382 2.7322,3.0651 3.0389,3.7787 0.0773,0.1795 0.5751,5.2131 0.1389,6.1099 -0.9836,0.2781 -3.0197,-0.0198 -4.2041,-0.1279l-0.4998 -2.0087 1.0175 -0.5464zm-27.6797 -8.5137l0 0c0.7891,0.3259 0.8822,0.7923 1.869,0.3407 1.0603,-0.485 0.6168,-0.4395 1.2809,-1.4106 0.1983,0.6567 0.3309,1.4271 0.2465,2.1417 -0.4602,1.0344 -2.6553,1.5048 -3.3964,-1.0718zm56.5208 10.3294l0 0c-0.4522,-0.6589 1.3471,-7.0193 1.6664,-8.2287 0.344,-1.3036 1.4976,-7.8754 3.1199,-6.7897 1.0881,0.7281 -4.4775,14.614 -4.7863,15.0184zm-50.5998 -21.5579l0 0c0.132,-0.8038 0.9142,-1.4132 1.7312,-1.4464 -0.1438,0.205 -0.0729,0.1902 -0.3868,0.4319l-1.3444 1.0145zm36.3768 4.9219l0 0c-0.2367,-0.6094 -0.6502,-1.1204 -1.0134,-1.6609 -0.3068,-0.4563 -0.905,-1.1044 -1.1259,-1.5522 -0.2917,-0.5901 0.2112,-1.5468 -0.2592,-2.1005 -0.6139,-0.7234 -0.6991,0.0194 -1.3119,-1.3413 3.2325,0.5663 2.9838,1.0718 3.8099,4.0446 0.837,3.0113 1.0632,3.8749 -0.711,5.8506 -0.0289,0.0161 -1.4082,0.3031 -1.9632,-0.6574 -0.6976,-1.2079 -1.948,-4.0291 -2.6795,-4.7434l2.6115 -0.4852c0.9932,0.6943 1.4508,1.7691 2.6428,2.6457zm-5.6536 -6.0852l0 0 0.7793 1.9532c-0.6665,-0.2377 -0.4338,-0.3068 -1.0819,-0.4431 0.0136,0.5593 0.2571,0.8518 0.4586,1.2346l-0.6025 0.1576c0.3718,0.8501 0.8526,0.5878 1.8378,0.2746 2.5705,-0.8168 1.7655,-2.0767 1.564,-2.1839 -0.6441,-0.3432 0.2265,0.9719 -0.6327,-0.2154 -0.5085,-0.7027 -0.5667,-1.4472 -1.4012,-1.6831l0.7142 2.1876c-1.0391,-0.4054 -0.5285,-1.0281 -1.6357,-1.2819zm-28.0426 -0.3507l0 0 -0.4988 -0.5399c0.3643,-0.3294 0.9916,0.1073 1.2572,0.3249 -0.5059,0.1781 -0.0183,-0.1182 -0.3523,-0.0842 -0.4061,0.0415 0.0102,-0.0156 -0.139,0.0983 -0.0372,0.0283 -0.0246,0.0794 -0.2671,0.2009zm34.5789 14.5423l0 0c1.2099,3.0039 -1.105,4.9167 1.8245,4.8798 1.7576,-0.0221 5.7757,0.1018 6.9913,-0.0448 0.6497,-1.8147 0.7379,-5.1648 0.4756,-7.1444 -0.627,-4.7332 -3.8749,-7.9731 -7.0732,-10.9445l-2.1281 -1.965c-0.38,-0.3919 -0.6633,-0.6852 -1.093,-0.9485l-0.4489 0.9215c0.8091,0.9625 1.2028,1.1411 1.5747,2.6861 0.8952,3.7196 2.4675,6.7249 -1.4574,9.1521 0.1085,1.8493 0.7584,1.9779 1.3345,3.4078zm16.0807 4.8735l0 0 7.4093 -0.0026c0.3456,-1.7471 0.4659,-5.6069 0.5081,-7.4844 0.0792,-3.5231 -0.3054,-3.927 -2.0348,-5.9465 -1.0335,-1.2067 -2.857,-2.6281 -4.3434,-3.6972 -0.9525,-0.685 -4.0834,-2.8142 -4.5206,-3.3599l4.7911 6.397c0.544,0.6748 1.2012,1.4107 1.4613,2.4766 0.4861,1.9909 -0.68,4.3269 -1.3591,5.9369 -0.4512,1.07 -1.8551,4.6039 -1.9118,5.6801zm-46.4009 -16.9388l0 0c-0.1206,-0.8081 -0.3755,-0.8026 -0.1877,-1.6133 0.6447,0.1435 0.1866,-0.0286 0.5305,0.3125l0.4425 0.5163c0.5918,-0.6724 -0.1188,-0.2048 0.1337,-1.5704 0.1541,-0.8349 -0.4709,-0.3918 -0.5792,-1.4494 0.8632,-0.1015 1.0231,0.1782 1.4038,0.6241 0.2207,0.2585 0.819,0.8854 0.9256,1.1213 0.2804,0.621 -0.0148,1.1807 0.0335,1.7557 0.0489,0.5853 1.9686,2.2432 2.8973,3.3617 0.7821,0.9415 1.2386,1.4065 1.1292,3.066 -1.3053,1.3376 -3.2247,0.9253 -5.2692,0.5971 -0.1412,-0.9089 -0.1069,-2.084 -0.5168,-2.7732 -0.3161,0.5854 -0.2007,1.4575 -0.5892,2.1978 -0.855,0.1923 -1.3168,-0.0161 -2.1952,-0.1616 0.5403,0.6184 1.7464,1.1292 2.4463,1.5726 0.1078,1.2548 -0.2373,3.2316 -0.0457,4.173 0.3197,1.572 0.4704,2.3288 0.5276,4.0255 1.0832,0.0731 2.1879,0.4583 3.0775,0.8732 1.125,0.5248 1.2439,1.0887 2.264,1.6755 4.4159,2.5399 2.3687,2.8672 2.7834,4.7888 0.4382,-0.6901 0.6807,-0.6033 0.577,-1.6628 -0.087,-0.8893 -0.3609,-1.2445 -0.224,-2.1282 0.5089,-0.1998 1.7178,-0.2377 2.3418,-0.0229 0.7669,0.2643 1.0568,0.8352 1.0823,1.822 0.0231,0.8882 -0.4402,4.4353 -0.6474,5.1161 -1.6112,0.6306 -1.1991,-0.2453 -4.7444,-1.8341 -1.5195,-0.6811 -3.2236,-1.3641 -3.8095,-3.2968 -1.4132,0.2101 -3.4948,0.7853 -4.9769,-0.0688 -0.2221,-0.128 -0.207,-0.1299 -0.3236,-0.2226 0.0853,-2.0471 0.9945,-3.7329 1.9202,-4.7086 -2.6981,0.6466 -1.857,4.8841 -3.4303,5.1578 -0.3527,0.0614 -0.5592,0.0082 -0.9054,-0.0284 -0.2898,-0.4089 -1.2111,-2.8937 -2.0688,-4.3584 -0.7374,-1.2589 -1.8692,-2.9337 -3.2095,-3.4183 0.3787,-1.3345 0.7847,-1.2244 0.7804,-2.8877 -0.0031,-1.1502 -0.1318,-2.3437 -0.0701,-3.4704 0.9889,-0.4722 1.7638,-0.1454 2.4888,-1.1465 -3.4927,0.2395 -2.0056,-0.1932 -2.7832,-1.717 -0.1312,-0.2573 -0.091,-0.1601 -0.1969,-0.257 -0.5925,1.6077 0.4743,4.7627 -0.2139,6.4047 -0.4072,-1.4659 -0.1069,-2.8391 -1.3698,-3.3036 0.2926,0.4522 0.7414,0.6422 0.6988,1.4313 -0.0341,0.6298 -0.3768,1.1527 -0.82,1.4562 -0.449,0.307 -0.9135,0.5506 -1.4857,0.1762 -0.8875,-0.5804 -0.265,-0.7532 -0.5794,-1.2665 -0.5142,0.7404 -1.3184,1.2035 -0.8632,-0.075l0.2928 -0.6984c0.0195,-0.035 0.0578,-0.0854 0.0744,-0.1136 0.4358,-0.7241 0.8779,0.6084 1.9103,-0.8489 -0.6371,0.2737 -2.3865,0.6694 -2.949,0.1158 0.3914,-0.7194 1.957,-0.7738 2.9401,-0.5782 0.963,-1.4691 0.4941,-2.7961 2.4304,-3.2941 0.6409,-0.1649 1.7612,-0.3742 2.4539,-0.3692 0.8536,0.0063 1.4768,0.3687 2.2841,0.3756 -1.4373,-0.7928 -1.744,-0.606 -3.4989,-0.593 -0.8607,-1.2119 -0.3928,-3.1485 0.5644,-3.7475 0.1149,2.1427 0.1508,2.3311 1.7132,3.1582 -0.3956,-0.5909 -1.4832,-1.3783 -1.3634,-2.3294 0.2083,-1.6523 2.6412,-2.8714 4.5991,-1.4906 1.1218,0.7913 0.8559,1.3729 0.7157,2.92 0.03,-0.0298 0.0722,-0.1206 0.0846,-0.0948 0.0213,0.0449 0.3953,-0.4829 0.4732,-0.9817 0.1143,-0.7302 -0.2339,-0.7866 0.1048,-1.2757 0.5019,0.4708 0.3835,0.62 0.7909,1.0615zm18.6585 -2.8496l0 0c0.5594,0.5178 1.281,0.5609 1.6409,1.2838 -1.8063,-0.6886 -2.9117,-1.9386 -4.0755,0.5983 -0.213,0.4645 -0.233,0.6547 -0.5036,1.0749 -0.9273,1.4379 0.3795,2.6243 -0.0861,4.2859 -0.295,-0.8175 -0.5325,-1.8415 -0.6801,-2.804 -0.2905,-1.8932 -1.3432,-1.8692 -2.2299,-3.1361 -0.2694,-0.3854 -0.4124,-0.8557 -0.7664,-1.1243 -0.4293,-0.3261 -2.1318,-0.9638 -2.5975,-0.6514 0.3555,0.7845 0.7851,0.3377 0.9881,1.0851 -1.3659,1.6545 -4.4641,-1.468 -4.016,0.4342l1.3294 1.3754c0.9575,0.5195 3.2358,0.0872 3.3075,0.4417 0.0115,0.0563 0.0608,0.0741 0.0761,0.0957l0.1381 0.1959c0.8201,1.2699 1.7871,4.1832 3.5201,5.0038 0.8251,0.3906 1.5937,-0.2825 2.1388,-0.6186 0.1262,-2.304 -1.3269,-5.9254 0.9898,-6.8946 -0.6641,1.5056 -0.254,1.4199 -0.4609,2.4155 -0.1479,0.7133 -0.3413,0.3099 -0.0018,1.1736 0.1066,0.2712 0.1807,0.0552 0.1426,0.4655l-0.1693 0.5143c-0.1,0.5754 0.2464,5.0015 0.3158,5.9811 0.1043,1.4732 1.1096,3.3788 1.7023,4.5915 0.5347,1.0941 1.7748,3.3271 3.1812,3.0299 0.9638,-0.3848 0.9947,-4.6618 2.7573,-5.0083 0.7966,-0.1566 1.488,0.1758 1.9634,0.486 -2.6306,-0.0347 -2.7391,0.7696 -3.4707,2.8782 -0.571,1.6463 -0.4522,3.9461 0.0346,5.6618 0.5825,2.0525 1.5793,2.6146 3.9261,1.771 0.9972,-0.3584 1.0418,-0.7822 1.2442,-1.9184 0.3156,-1.769 0.2835,-2.8258 0.0967,-4.516 -0.1413,-1.2767 0.9288,-1.1445 -0.4862,-3.5862 -0.6232,-1.0756 -0.5758,-0.705 -0.9273,-2.2345 -0.3315,-1.4404 -2.3587,-4.7255 -3.1567,-6.2955 -0.5282,-1.0386 -0.4448,-0.3614 -2.0127,-1.1357 -0.7497,-0.3701 -1.4376,-0.8066 -1.5794,-1.7336 0.7966,0.3382 1.4273,1.1025 2.5016,1.3331 -0.2123,-0.5062 -0.6105,-0.5989 -0.4704,-1.1287 0.1978,-0.7471 0.1861,0.1274 0.2107,-0.4693 0.0051,-0.1176 -0.1202,-0.5163 -0.1248,-0.888l0.4125 -0.3192c0.0239,-0.022 0.0683,-0.0698 0.0884,-0.0889 0.0202,-0.0194 0.0621,-0.0597 0.0896,-0.0928 -0.4047,-0.4906 -0.1641,-0.4242 -0.312,-0.8533l-2.3877 0.7495c0.8285,-1.3466 2.1042,-1.0443 3.2706,-1.5228 0.034,-0.014 0.0893,-0.0371 0.1295,-0.0633 0.1307,-0.6722 -0.9588,-1.2233 0.7256,-2.5156 0.4264,-0.3273 0.5046,-0.1143 0.7807,-0.6369l-0.1717 -0.0315c-0.6041,-0.0803 -0.3152,0.0653 -0.7379,-0.1341 0.0309,-0.025 0.0928,-0.0827 0.107,-0.0518 0.0046,0.01 0.3534,-0.0987 0.4442,-0.4781 0.4231,-1.7695 -0.7163,-1.173 -1.1272,-2.7307 -0.3261,-1.2345 -2.0878,-1.4935 -3.3651,0.1484 -0.9667,1.2431 -2.6054,1.2969 -2.22,3.0814 0.1893,0.8766 1.5408,1.5698 0.6141,2.8804 -0.1974,0.279 -0.3881,0.3151 -0.7304,0.6261zm-39.472 -6.3439l0 0c0.0187,4.079 -2.347,8.6458 -3.4323,12.3605 -1.0171,3.4811 -2.4464,9.9063 -1.828,13.7494l10.2437 0.0235c0.1903,-2.8064 1.0802,-2.7578 3.3156,-4.0433 -0.2939,-0.4035 -0.5316,-0.5372 -0.8037,-0.8558 -0.3689,-0.4321 -0.3399,-0.6527 -0.6657,-1.0686 -0.3346,-0.4273 -0.5538,-0.3968 -0.853,-0.8874 -0.6015,-0.9867 0.2342,-0.9833 -0.3457,-1.9983 -1.4322,-2.5067 2.2173,-2.2662 3.0258,-2.8764 1.126,-1.3454 0.518,-2.565 2.7849,-2.9785 -0.3723,-3.7925 3.6138,-6.8998 5.5185,-6.5764 1.0827,0.1839 2.5849,1.2187 2.9787,1.3419 0.0262,-1.2899 0.2398,-2.2107 1.6608,-2.1313 1.1891,0.0665 1.7652,1.0139 2.2876,1.5759 1.3515,1.4534 0.7874,0.6378 1.0399,2.7518 0.1409,1.1777 5.2633,4.2119 3.7897,7.4453 -0.3703,0.8129 -1.3848,1.206 -2.2893,1.4839 -1.3831,0.4251 -2.2326,0.1224 -3.6207,-0.0382 0.0052,1.019 -0.2395,2.595 -0.1824,3.3965 0.0117,0.1627 0.4826,2.9548 0.5509,3.1652 0.5431,0.2832 1.5855,0.5213 2.224,0.7757 1.0767,0.4294 1.1967,0.7159 1.892,1.2587 0.656,0.5122 4.7213,0.3582 5.8602,0.2192 -0.6598,-1.1962 -2.6165,-4.9497 -1.4413,-6.8049 0.6377,-1.0065 3.4238,-1.8812 4.7164,-2.2155 0.92,-0.238 0.9839,-0.2738 0.8741,-1.3675 -3.4256,1.0753 -5.1633,-2.6128 -6.3455,-5.2756 -0.9621,-0.0476 -2.3056,0.0033 -3.0808,-0.4271 -0.4666,-0.2591 -1.7056,-1.208 -1.9354,-1.537 -1.0893,-1.5584 0.7964,-3.4184 2.9095,-2.7661 0.4756,-2.0222 2.1647,-1.2089 3.7125,-0.7013 2.072,0.6794 1.4504,1.8404 3.0671,2.8528 0.2269,-0.2553 0.3404,-0.5667 0.5885,-0.9187 1.0617,-1.5072 1.974,-1.2645 2.8417,-2.0072 -0.1741,-1.0406 -1.1932,-1.3145 -0.8069,-3.2267 0.2276,-1.1269 1.2193,-1.6365 1.8943,-2.2904 -0.6775,-0.5813 -0.5435,-0.7375 -1.0625,-1.2818 -1.9824,6.0465 -3.5815,-1.8686 -5.5393,-2.4771 -3.583,4.2392 -2.0991,9.03 -7.6931,4.0825l-2.1616 -1.9413c-0.6117,-0.4982 -1.598,-1.7652 -2.3909,-0.7369 -0.8906,1.155 -2.4,4.2448 -3.2732,4.9287 -2.1448,1.6788 -3.4748,-1.4693 -4.7708,-2.5864 -5.3415,-4.605 -5.1785,6.6827 -9.0874,4.6839 -1.8021,-0.9214 -1.5604,-3.6605 -4.1669,-4.0796zm43.9804 -2.0105l0 0c0.5062,-0.2738 1.1289,-0.2057 1.7414,-0.146 1.5142,0.1475 0.6259,0.4923 1.6605,1.1622 0.5187,0.3358 0.2161,-0.138 0.4809,0.4611 0.1764,0.3991 -0.0411,0.2553 0.2375,0.7179 0.2335,0.3874 1.3335,0.8034 0.9772,3.4912 -0.1385,1.043 -0.687,1.8748 -1.2487,2.5072 -0.8499,-0.0212 -1.8013,-0.3024 -2.1557,-0.9425 0.036,-0.6364 0.3756,-0.9218 0.7391,-1.3567 0.2618,0.6359 -0.0267,0.5127 0.4163,0.9976 0.1696,-0.2907 0.3196,-0.9997 0.4111,-1.445 0.2634,-1.2784 -0.2151,-0.8241 -0.257,-1.3297 -0.0287,-0.3475 0.42,-0.4667 -0.1582,-1.2745 -0.2806,-0.3919 -0.5218,-0.5527 -0.969,-0.7402 -0.0769,-2.2625 -1.6029,-1.6025 -1.7688,-2.0508 -0.0173,-0.0468 -0.0737,-0.0303 -0.1066,-0.0518zm-39.477 0.7091l0 0c-0.1007,-0.667 -0.3732,-1.5025 0.0746,-1.7948 0.9111,-0.5948 4.4438,-0.4115 2.6622,2.8016 -0.4463,0.8046 -1.115,2.4266 -1.9418,2.7027 -0.4662,-0.9228 -0.6092,-2.4758 -0.795,-3.7095zm12.7145 1.4411l0 0c-0.4806,-0.6552 -1.1143,-3.4134 -1.3178,-4.4794 -0.1999,-1.0472 -0.4428,-1.7992 0.6308,-2.111 1.2089,-0.3513 3.8468,-0.5989 4.0684,1.4938 0.0775,0.7327 -0.5393,1.3697 -0.8791,1.8568 -0.3888,0.5567 -1.9849,3.0553 -2.5023,3.2397zm11.887 0.0551l0 0c-0.451,-0.9859 -1.0626,-3.1846 -1.3643,-4.4155 -0.62,-2.5293 -0.4558,-2.8895 2.3783,-2.862 2.3903,0.0232 1.9177,2.0456 1.2582,3.6594 -0.502,1.2289 -1.0958,3.3017 -2.2722,3.6181zm11.8826 -2.559l0 0c-0.5532,-0.2375 -0.8333,-1.0087 -1.2009,-1.5992 -1.9301,-3.1009 -2.6096,-4.4786 0.2591,-4.6427 0.8838,-0.0504 1.8864,-0.1129 2.3701,0.4376 1.4701,1.6738 -0.9095,5.5183 -1.4283,5.8042zm-66.7478 -16.8028l0 0c0.2423,3.4386 0.4404,3.1354 2.0916,5.482 -2.0204,-0.6189 -3.3637,-3.2932 -3.5988,-6.0286 0.5132,0.6161 0.1894,0.4699 1.0845,1.418l0.4228 -0.8714zm2.7322 0.5347l0 0 -0.4573 1.1483c-1.0967,-0.4687 -1.5468,-1.1251 -1.9847,-2.4567 -0.3872,2.1014 2.8409,4.8579 3.6549,5.5654 -0.5258,-1.4987 -0.9457,-2.3941 -1.2129,-4.257zm35.6045 7.4136l0 0c-2.4061,-1.279 -5.0644,-6.3998 -4.4931,-10.6699 0.2987,0.4323 1.4824,4.621 1.992,5.7127l2.5011 4.9572zm-65.2812 -8.854l0 0c0.2837,0.7442 -0.3606,1.2908 -0.8862,1.4182 -0.6648,-0.4179 -0.8986,-1.3016 -0.7007,-2.0073l0.2271 -0.0355c0.3313,-0.0002 1.1974,0.1982 1.3598,0.6246zm-2.8173 -6.734l0 0c0.8715,-0.6276 2.1718,0.1605 1.7814,1.607 -1.2683,0.1703 -2.037,-0.423 -1.7814,-1.607zm35.8539 4.164l0 0c-1.2222,-0.2008 -1.5251,-0.7423 -2.1573,-1.363 -1.1984,-1.1767 -0.505,-0.7794 -0.2465,-2.3403 -0.4222,0.5633 -0.5581,1.1073 -1.254,1.3807 -0.4507,-0.2613 -1.0795,-1.0485 -1.2841,-1.617 -0.1918,-0.5338 0.2297,-1.4625 0.4189,-2.0679l0.972 0.0035c0.007,-0.024 0.0493,-0.0139 0.0705,-0.0035 0.1162,0.4202 0.2614,1.0738 0.5041,1.391 0.5254,0.687 0.5081,-0.0839 0.941,0.0277 0.3128,0.8721 0.4145,1.5433 0.8122,2.4486 0.3934,0.8954 0.8628,1.4234 1.2232,2.1401zm-23.352 -10.0679l0 0c0.602,0.0624 0.598,0.0754 0.8052,0.5925 -0.2055,0.5326 -0.1782,0.5264 -0.8002,0.5888 -0.4168,-0.5222 -0.4151,-0.6538 -0.0049,-1.1813zm44.106 -2.6923l0 0c0.5406,0.9208 1.0708,1.0742 1.5041,3.052 0.299,1.3663 0.2952,2.6237 0.0231,3.9485 -0.4828,-2.3993 -1.143,-4.3928 -2.7009,-5.5119 -3.8679,-2.7784 -11.0775,4.1684 -12.9853,10.1581 -1.1705,3.675 -1.8134,10.7259 -0.6941,14.5548 0.837,2.8627 4.7705,9.2487 4.0951,12.327 -1.0292,-1.1229 -1.1873,-3.5561 -2.1756,-4.6525 -0.1414,1.5999 0.0064,3.7237 -0.0329,5.4047 -0.1213,5.1716 -0.9166,22.3721 -2.4414,25.9765 -0.8127,1.9213 -1.1085,-0.139 -2.7742,2.8932 -0.6541,1.1909 -1.3259,2.4206 -1.9132,3.647 4.7373,0.4402 3.935,-3.6332 5.7135,-3.8462l-0.8784 2.7933c0.9385,-0.0618 1.51,-0.4322 2.1996,-0.1489 0.7038,0.2894 -0.3658,0.0847 0.6289,0.3433 1.3787,-0.9071 1.9247,-7.3176 2.9604,-9.6336l1.7096 0.0489c0.8021,-2.4384 -0.5087,-5.9197 1.9312,-13.6372 0.8794,-2.7808 3.4943,-9.8066 2.8608,-12.5914 -0.4321,0.2033 -2.1405,2.3312 -2.667,3.0102 -0.3377,0.435 -0.6055,0.6685 -0.9181,1.0376 0.1667,-1 2.5382,-5.3421 3.1515,-6.6873 2.159,-4.7372 4.2317,-9.4657 5.3606,-14.6418 0.8183,-3.7531 0.7384,-5.3181 0.1516,-9.0122 0.8776,0.1425 5.0627,1.488 5.7648,1.894 1.9916,1.1519 1.7883,2.8266 2.4569,5.4262 0.9479,3.6856 3.0546,8.4903 6.683,8.8394 -1.541,-2.5859 -1.9818,-3.4386 -2.8852,-6.651 -0.5331,-1.8957 -1.6202,-6.237 -1.2553,-8.2288 0.3906,2.5192 1.7995,6.4806 2.7783,8.6 0.9594,2.0781 2.7257,6.0166 5.3839,6.2276 -0.7842,-2.2749 -3.4132,-7.0158 -3.1702,-10.1316 0.5302,0.8486 1.1371,2.7097 1.6634,3.8023 0.635,1.3189 1.2209,2.465 1.9442,3.573 0.8566,1.312 1.3719,2.106 3.6164,1.9406 5.238,-0.3863 6.0316,-3.1952 12.9316,-3.7671 5.6858,-0.4713 6.4614,1.2202 8.8016,2.3715l-2.992 -4.9282c-0.9536,-1.7085 -1.8744,-3.4357 -2.8209,-5.2193 -2.4319,-4.5821 -2.3522,-6.1005 0.943,-9.6116 0.5514,-0.5875 0.5796,-0.4887 1.0678,-0.8741 -0.6282,1.4335 -1.2412,2.1249 -1.271,4.1829 -0.0238,1.6338 0.51,3.3365 1.171,4.5504 1.2817,2.3539 2.8875,4.6951 4.3715,6.9752 2.1602,3.3189 6.9973,11.3369 8.9918,13.7075 5.1307,6.0983 11.5681,11.0743 17.7564,16.1345 1.8065,1.4771 5.0773,3.8141 5.3945,5.9322 -1.2263,-0.3002 -2.2626,-1.3454 -3.5475,-1.6968 -0.035,3.0573 0.2149,6.0745 0.1063,9.2553 -0.0299,0.8753 -0.0985,5.9592 -0.5417,6.5473 -0.8176,1.0848 -2.0371,-0.5359 -2.5791,1.5247 -0.488,1.8556 0.66,2.3288 2.5887,1.9519 1.6221,-0.317 2.3249,-2.2247 2.8059,-3.9791 0.952,-3.4719 1.947,-6.9286 3.0178,-10.3725 2.4129,-7.7609 2.432,-5.2987 -3.9604,-12.9216l-4.6268 -5.4559c-0.4977,-0.5654 -1.0152,-1.2609 -1.5113,-1.8027 -1.3244,-1.4457 -1.0992,-2.2974 -1.5928,-5.1682 -1.1275,-6.557 -2.6884,-15.4688 -5.9003,-20.9121 -1.5388,-2.6079 -3.1746,-4.5619 -5.4419,-6.3823 -0.6177,-0.4958 -0.6702,-0.3651 -0.8166,-0.8127 2.1808,0.3428 7.044,5.1662 8.2947,7.6802 3.1628,6.3576 3.9388,14.7175 5.0266,21.9411 -0.0267,-0.0995 0.175,-5.2491 0.1418,-6.1653 -0.0749,-2.0527 -0.2212,-4.0869 -0.5039,-6.1074 -0.9344,-6.6813 -3.237,-13.9184 -9.2366,-17.2302 -2.2955,-1.2671 -7.1441,-2.8167 -10.003,-3.3898 -8.3425,-1.6727 -16.456,0.0601 -24.809,0.2478 -8.7945,0.1976 -17.5681,-0.3804 -26.3455,-0.3289zm-51.9857 7.5409l0 0c2.4629,0.8988 2.9837,0.6292 6.1252,2.2244 1.2901,0.6551 4.4765,2.5171 5.0981,3.2928 0.0644,1.0411 -0.4625,1.798 -0.754,2.4373 -0.3549,-0.4185 -0.0869,0.1556 -0.1822,-0.3845 -0.2938,-1.6674 2.3099,-1.639 -6.0216,-4.2791 -2.5069,-0.7944 -1.3649,-0.0508 -3.2325,0.0951 -0.6896,0.0538 -0.7733,-0.3608 -1.3033,-0.7598 -0.3724,-0.2804 -0.9987,-0.6442 -1.4636,-0.8001 0.2871,1.5768 0.079,1.6026 -1.3405,1.9005 0.0836,0.9691 0.9457,1.66 1.4628,2.1319 0.9582,0.874 0.8411,0.9373 2.5162,0.9626l0.59 1.6224c0.3483,-0.276 0.2975,-0.8969 0.4526,-1.2864 0.4097,-1.0295 2.7683,-0.499 4.6627,-0.419 1.707,0.0721 3.0751,0.237 1.8733,1.8997 -0.8791,0.1713 -1.237,-0.0804 -2.0386,-0.0045 -0.7844,0.0742 -2.8534,1.7818 -4.4545,1.5309l-0.9477 -1.5757 -0.262 2.1267c-0.6485,-0.3375 -0.1294,-0.347 -0.8333,-0.601 -0.2692,0.2102 -0.254,0.2496 -0.589,0.5233 -0.475,-0.2961 -0.1794,-0.174 -0.6305,-0.4443l-0.5019 0.4762 -0.6026 -0.4867c-0.4608,0.5235 -0.8703,0.5975 -1.0754,1.3538 1.8018,1.2369 4.6186,0.1759 6.6753,-0.4219 4.0299,-1.1716 3.3001,-0.9623 7.0111,-1.05 2.865,-0.0676 3.2414,-4.2789 2.7918,-5.1309 -0.5956,-1.1287 -1.7458,-1.7623 -2.5254,-3.6254 -0.3507,-0.838 -0.5082,-1.3164 -0.0556,-1.7459 1.1424,-1.085 2.91,2.4202 2.4531,-1.7639 -0.0763,-0.6978 -0.1709,-1.1836 -0.3511,-1.8566 -1.1714,0.6722 -0.8939,0.7111 -2.6444,0.8374 -1.0497,0.0757 -2.5227,0.1733 -3.5392,-0.0095 0.0227,-0.1203 0.4964,-1.1324 0.6893,-1.5231 0.3561,-0.7207 0.916,-0.6653 1.7202,-0.4651 -1.4746,-1.572 -1.865,-1.5227 -3.9465,-0.5802 2.3382,-4.2444 5.5517,1.5063 7.5803,1.4222 -0.9195,-3.9489 -5.6722,-5.3776 -7.9292,-3.9059 -0.3286,0.2142 -1.2489,1.1448 -1.4065,1.7433 -0.1847,0.7021 0.1504,0.4705 -0.0141,1.2498 -0.3255,1.5405 -2.9222,4.985 -3.0568,5.2892zm26.3107 2.6817l0 0 -0.2363 -1.3765c-0.2478,0.3373 -0.2541,0.5216 -0.7071,0.74 -0.685,-0.6758 -0.8553,-1.821 -0.9715,-2.9316 0.0305,0.035 0.0715,0.0438 0.0854,0.1096 0.0377,0.1774 0.6172,1.0086 1.0437,1.1889 1.727,-0.9013 0.9002,-2.6802 0.9193,-3.4477 0.0266,0.0339 0.0607,0.0464 0.0716,0.1075l0.5825 1.0206c0.541,-0.0988 0.9053,-0.441 1.0063,-0.8357 0.036,1.3965 -0.6388,1.2063 0.3393,2.4407 0.6746,-0.1219 0.733,-0.3189 1.1298,-0.7347 -0.0363,1.3887 -0.4781,0.8275 0.5431,2.1187 0.3897,0.493 1.2217,1.045 2.1329,1.1127 -0.6859,-1.2176 -0.8803,-1.6888 -1.1085,-3.4107 -0.9075,0.7253 -1.143,-1.187 -1.0396,-2.1116 0.2191,0.3513 0.3916,0.888 0.6087,1.2704 0.6102,-0.0802 0.7679,-0.4029 1.0852,-0.7755l-0.2039 1.1381c0.8739,0.4319 2.0889,1.3778 3.462,1.2947 -0.5607,-0.3553 -0.9929,-1.8649 -1.2743,-2.7523l-0.7737 0.0953c-0.3324,-0.7853 -0.5983,-1.1389 -0.5089,-2.1148 0.2555,0.559 0.281,0.7808 0.5827,1.2049 0.5622,-0.1169 0.9172,-0.4579 1.005,-0.809l-0.1165 1.018c1.3912,0.3028 1.9541,0.7454 3.7166,0.6665 -0.3714,-0.8543 -0.8546,-1.6766 -0.8278,-2.9109 1.1879,0.1612 2.5013,0.1435 3.6584,0.0024l-1.2754 -1.0865c0.6754,-0.4825 4.6759,-1.0219 5.3861,-1.1026 -1.3329,-0.7542 -5.9492,-0.5719 -7.7088,-0.3897 -5.9099,0.612 -7.7238,1.6521 -15.0215,1.3265 -3.111,-0.1389 -4.8524,-0.3567 -4.4002,-3.6377 -0.535,0.2794 -3.1068,2.6873 -3.9672,0.9307 1.5184,-0.2184 1.9451,-0.4729 2.279,-1.9488 0.1521,-0.6713 0.2191,-1.4389 0.1209,-2.1223 -0.0841,-0.5843 -0.9873,-2.0493 0.3621,-1.5117 0.1711,0.068 0.6238,0.3441 0.7146,0.4171 0.2636,0.2123 0.7651,0.8535 0.8548,1.1555 0.1123,-1.0738 -0.4245,-1.8398 -1.0084,-2.4208 -0.7983,-0.7943 -1.2829,-1.2522 -2.3061,-0.4291 -2.4689,1.9857 -1.2191,3.7994 -1.5198,5.7518 -0.4198,2.7298 0.6094,0.4084 2.8207,4.513 0.732,1.3584 1.8525,4.056 1.5679,5.8839 -0.563,-1.9158 -0.6655,-2.8334 -1.5906,-4.4442 -0.8825,-1.5366 -1.6128,-2.2423 -2.923,-3.2238 -3.0509,-2.2855 -6.0758,-2.1546 -10.2549,-1.6223 0.2021,-1.3791 -0.3418,-3.3912 -0.919,-4.4091 -0.4277,1.7618 -1.1532,4.5963 -2.4731,5.9261 -0.0261,0.0262 -0.0627,0.064 -0.0864,0.0882l-0.1713 0.1874c1.7922,-0.6431 3.0549,-1.7151 5.4012,-1.82 3.6349,-0.1624 8.0862,1.1949 9.5262,5.0406 0.5566,1.486 0.7568,4.9732 0.5758,6.6818l-0.8042 0.4043c0.1882,2.6193 1.979,1.1283 1.0074,5.8038 -0.4094,1.9702 -1.3237,3.788 -2.8696,4.2844 1.4167,0.0452 2.8299,-1.2133 3.427,-1.9982 0.4038,-0.5308 1.7502,-2.9113 1.8123,-3.6772 0.3504,2.8883 -0.4941,4.4366 -1.7525,5.8789 2.5133,0.2438 4.2463,-1.5526 5.2481,-2.8988 0.6572,0.8291 1.529,3.1406 3.3629,3.734 -0.4524,-1.4931 -0.4891,-1.6599 -0.7103,-3.4184 -0.0434,0.6528 -0.4955,0.7677 -0.5324,0.7923 -1.2006,-0.5462 -1.6833,-1.8748 -1.8596,-3.402 0.4641,0.6675 0.9712,1.7297 1.8144,1.8387 0.7813,-0.612 0.7084,-1.6144 0.689,-2.8123 0.4344,0.6475 0.4311,1.3058 1.0903,1.6445 0.4716,-0.2346 0.7027,-0.78 0.995,-1.4079 0.4618,-0.9907 -0.0054,-0.939 0.0933,-2.0572 0.4506,0.3408 0.5932,0.9888 1.2255,1.7059 0.8179,-0.123 1.1457,-0.6611 1.5825,-1.233 -0.3194,0.938 -0.8133,1.8208 -1.3743,2.5098 -0.5967,-0.3229 -0.8091,-0.6472 -1.2,-1.2346 -0.1442,0.7722 -0.34,1.1509 0.0402,1.7391 0.2581,0.3996 0.7937,0.9553 1.3177,1.0318 0.5546,-0.532 0.4663,-1.0094 0.7477,-1.7055 0.2116,1.9202 -0.1313,1.6059 0.9024,3.0753 0.5301,0.7533 1.0754,1.4685 2.0713,1.7415 -0.9946,-1.2465 -2.5688,-3.4955 -2.7677,-5.7949 0.8232,0.6999 1.444,1.8191 3.0191,2.1406 -0.2187,-0.4714 -0.1033,-0.2323 -0.4106,-0.6361 -0.9908,-1.3011 -2.0988,-2.5657 -2.4335,-4.3869 -0.0331,0.0288 -0.0745,0.0368 -0.0896,0.0965 -0.0075,0.031 -0.3227,0.4478 -0.7241,0.6424 -0.4058,-0.2229 -0.3857,-0.1965 -0.6505,-0.6463l-0.327 -0.6178c-0.0153,-0.0252 -0.0508,-0.0749 -0.0633,-0.095 -0.0127,-0.02 -0.0402,-0.0649 -0.0649,-0.094zm-47.7694 -17.5354l0 0c-0.3107,2.4368 -0.8638,4.9921 -1.2158,7.4849 -2.4858,17.5935 -2.4395,35.5094 0.4826,53.0453 0.3695,2.2181 0.9102,6.3516 1.6223,8.2995l55.8229 0.0187c1.2476,-2.0272 1.9551,-20.5564 1.9582,-24.2025 0.0052,-6.1522 -1.4331,-5.9928 -6.3469,-8.4868 -3.2288,-1.6386 -6.9089,-3.2332 -10.5439,-4.4364 -4.7183,-1.5618 -7.3461,-1.7641 -12.583,-2.2461 -2.1213,-0.1954 -4.6208,-0.761 -6.6451,-0.7299 -9.13,0.1395 -5.1487,-1.9865 -6.0537,-5.6282 -0.4333,-1.743 -5.2743,-7.7754 0.1218,-9.8007 -0.0521,-2.0851 -0.9619,-3.1229 0.2748,-5.0673 0.5317,-0.8365 1.1342,-0.8916 1.2942,-1.6866 0.2031,-1.0086 0.0439,-1.7365 0.4266,-2.7371 0.5546,-1.4519 3.3017,-4.904 4.5891,-7.5708 0.5007,0.7751 0.6304,2.5017 1.0912,3.4513 1.5768,3.2485 0.5314,1.1524 1.2506,3.4573l7.2068 -0.1521c0.504,-1.8325 -0.3211,-3.0433 1.0383,-4.8168 0.4079,-0.5326 2.4781,-2.3126 3.2619,-2.6013 1.112,0.3207 2.8643,2.813 3.5766,3.8585 1.4485,2.1255 -0.7523,5.4768 0.9582,6.3006 2.5673,1.2363 15.0408,-1.0663 20.3704,-1.1431 2.6552,-0.0381 4.4702,0.3165 7.0087,0.5736 8.9018,0.9012 24.8613,0.4805 33.8142,0.2166 5.4819,-0.1615 11.4498,-0.7587 16.871,-0.3203 4.4624,0.361 10.3751,1.7617 14.0649,3.4298 9.636,4.3565 11.7237,12.2698 12.6884,22.2634 0.2629,2.7239 0.3957,5.4513 0.4603,8.1969 0.115,4.8829 -0.7717,3.0733 2.0571,6.8255 2.569,3.4084 5.0005,6.6269 7.6897,9.8061 3.6726,4.3413 -0.432,8.9824 -1.0804,13.2212l15.8877 0.0246c0.9545,-2.6746 2.4384,-13.777 2.8085,-17.0921 0.6835,-6.1201 1.0779,-12.5366 1.0626,-18.7744 -0.0152,-6.1875 -0.2251,-11.5619 -0.8437,-17.7508 -0.2623,-2.623 -0.5774,-5.1619 -0.9346,-7.7475 -0.3454,-2.5015 -0.8787,-5.0283 -1.2002,-7.4837 -6.6236,-1.1177 -18.5917,-5.2136 -25.0343,-7.5689 -15.6991,-5.7392 -34.0619,-16.7637 -47.4967,-26.2735 -2.7285,-1.9313 -11.4046,-8.4013 -13.5225,-11.0379l-4.3651 3.85c-7.3637,6.7169 -27.0015,18.8589 -34.4219,22.954 -12.129,6.6937 -21.1685,10.4707 -34.5346,14.6451 -3.8665,1.2074 -8.8799,2.7417 -12.937,3.4319zm-8.3451 29.6711l0 0c0,12.4684 0.5503,22.0807 2.7463,34.2972 0.784,4.3623 1.6696,8.7154 2.7372,12.8683 3.0496,11.8628 7.1721,23.547 12.6441,34.4874 0.8179,1.6353 1.7132,3.6948 2.6494,5.2322 1.8597,3.0541 3.4734,6.4426 5.7357,10.0274 3.0082,4.767 6.0989,9.5235 9.4722,14.0149l10.6337 13.011c0.4381,0.4312 0.4972,0.5646 0.8749,1.0166 1.5031,1.7983 3.3326,3.2973 4.8782,5.0524 0.3658,0.4151 0.4436,0.6055 0.8661,1.0258l5.0478 4.8831c4.156,3.6598 8.2095,7.4934 12.6704,10.8165 0.782,0.5826 1.4298,1.1102 2.2299,1.7109 3.3673,2.5273 6.7174,5.1435 10.3075,7.3475 1.7649,1.0835 9.9676,6.7484 11.0627,6.6778 1.2283,-0.0791 12.4114,-7.6298 14.4314,-9.0295 0.82,-0.5682 1.5189,-1.0915 2.2991,-1.6419 4.5984,-3.2436 8.8774,-6.8642 13.2655,-10.379l14.9933 -14.3261c1.701,-1.6927 6.85,-7.7424 8.2905,-9.5217 0.6012,-0.7426 1.1768,-1.4102 1.7778,-2.1631 8.6269,-10.8021 15.7871,-22.6198 21.8915,-35.0135l3.0601 -6.8706c4.4614,-10.6537 7.9991,-21.5009 10.3474,-32.8432 1.3888,-6.7086 1.9732,-10.1036 2.8741,-16.83 1.1534,-8.6114 1.3287,-17.6758 1.2195,-26.5363 -0.0474,-3.8228 -0.9536,-14.0677 -1.4916,-17.8973l-1.916 -11.7979c-0.4926,-2.7607 -0.0487,-1.5307 -5.4583,-2.8962 -8.5677,-2.1627 -16.9835,-4.693 -25.1437,-7.959 -3.924,-1.5705 -7.8439,-3.2065 -11.606,-5.1029l-21.0024 -12.1001c-5.0417,-3.0741 -11.8379,-7.6726 -16.3244,-11.2612 -1.7621,-1.4097 -3.6452,-2.7758 -5.3002,-4.3155l-2.1269 -1.9715c-0.5579,-0.5524 -0.7994,-0.9661 -1.3366,-1.5006l-2.7218 -2.9533c-1.382,0.9257 -2.7732,2.905 -3.9777,4.219 -1.1651,1.2709 -4.4302,3.9015 -5.9164,5.1176l-4.7193 3.6352c-4.222,3.1773 -8.6793,6.1052 -13.1601,8.9081l-10.306 6.2457c-0.6201,0.3669 -1.0818,0.6191 -1.6932,0.9866 -0.6474,0.3892 -1.1815,0.6452 -1.8116,1.0256 -0.5624,0.3396 -1.1121,0.665 -1.711,0.9686l-5.465 2.8895c-1.3068,0.6535 -2.5124,1.2069 -3.8337,1.841 -4.9436,2.3733 -10.5819,4.5389 -15.7976,6.2708l-12.6629 3.8883 -9.0833 2.1085c-1.2241,0.2614 -0.8896,1.3624 -1.4321,4.0853 -0.9204,4.6196 -1.6501,9.6823 -2.0672,14.484 -0.459,5.2846 -0.9415,10.3999 -0.9415,15.7675z"/>
   <path class="fil3" d="M81.7895 60.083c0.5406,0.9208 1.0708,1.0742 1.5041,3.052 0.299,1.3663 0.2952,2.6237 0.0231,3.9485 -0.4828,-2.3993 -1.143,-4.3928 -2.7009,-5.5119 -3.8679,-2.7784 -11.0775,4.1684 -12.9853,10.1581 -1.1705,3.675 -1.8134,10.7259 -0.6941,14.5548 0.837,2.8627 4.7705,9.2487 4.0951,12.327 -1.0292,-1.1229 -1.1873,-3.5561 -2.1756,-4.6525 -0.1414,1.5999 0.0064,3.7237 -0.0329,5.4047 -0.1213,5.1716 -0.9166,22.3721 -2.4414,25.9765 -0.8127,1.9213 -1.1085,-0.139 -2.7742,2.8932 -0.6541,1.1909 -1.3259,2.4206 -1.9132,3.647 4.7373,0.4402 3.935,-3.6332 5.7135,-3.8462l-0.8784 2.7933c0.9385,-0.0618 1.51,-0.4322 2.1996,-0.1489 0.7038,0.2894 -0.3658,0.0847 0.6289,0.3433 1.3787,-0.9071 1.9247,-7.3176 2.9604,-9.6336l1.7096 0.0489c0.8021,-2.4384 -0.5087,-5.9197 1.9312,-13.6372 0.8794,-2.7808 3.4943,-9.8066 2.8608,-12.5914 -0.4321,0.2033 -2.1405,2.3312 -2.667,3.0102 -0.3377,0.435 -0.6055,0.6685 -0.9181,1.0376 0.1667,-1 2.5382,-5.3421 3.1515,-6.6873 2.159,-4.7372 4.2317,-9.4657 5.3606,-14.6418 0.8183,-3.7531 0.7384,-5.3181 0.1516,-9.0122 0.8776,0.1425 5.0627,1.488 5.7648,1.894 1.9916,1.1519 1.7883,2.8266 2.4569,5.4262 0.9479,3.6856 3.0546,8.4903 6.683,8.8394 -1.541,-2.5859 -1.9818,-3.4386 -2.8852,-6.651 -0.5331,-1.8957 -1.6202,-6.237 -1.2553,-8.2288 0.3906,2.5192 1.7995,6.4806 2.7783,8.6 0.9594,2.0781 2.7257,6.0166 5.3839,6.2276 -0.7842,-2.2749 -3.4132,-7.0158 -3.1702,-10.1316 0.5302,0.8486 1.1371,2.7097 1.6634,3.8023 0.635,1.3189 1.2209,2.465 1.9442,3.573 0.8566,1.312 1.3719,2.106 3.6164,1.9406 5.238,-0.3863 6.0316,-3.1952 12.9316,-3.7671 5.6858,-0.4713 6.4614,1.2202 8.8016,2.3715l-2.992 -4.9282c-0.9536,-1.7085 -1.8744,-3.4357 -2.8209,-5.2193 -2.4319,-4.5821 -2.3522,-6.1005 0.943,-9.6116 0.5514,-0.5875 0.5796,-0.4887 1.0678,-0.8741 -0.6282,1.4335 -1.2412,2.1249 -1.271,4.1829 -0.0238,1.6338 0.51,3.3365 1.171,4.5504 1.2817,2.3539 2.8875,4.6951 4.3715,6.9752 2.1602,3.3189 6.9973,11.3369 8.9918,13.7075 5.1307,6.0983 11.5681,11.0743 17.7564,16.1345 1.8065,1.4771 5.0773,3.8141 5.3945,5.9322 -1.2263,-0.3002 -2.2626,-1.3454 -3.5475,-1.6968 -0.035,3.0573 0.2149,6.0745 0.1063,9.2553 -0.0299,0.8753 -0.0985,5.9592 -0.5417,6.5473 -0.8176,1.0848 -2.0371,-0.5359 -2.5791,1.5247 -0.488,1.8556 0.66,2.3288 2.5887,1.9519 1.6221,-0.317 2.3249,-2.2247 2.8059,-3.9791 0.952,-3.4719 1.947,-6.9286 3.0178,-10.3725 2.4129,-7.7609 2.432,-5.2987 -3.9604,-12.9216l-4.6268 -5.4559c-0.4977,-0.5654 -1.0152,-1.2609 -1.5113,-1.8027 -1.3244,-1.4457 -1.0992,-2.2974 -1.5928,-5.1682 -1.1275,-6.557 -2.6884,-15.4688 -5.9003,-20.9121 -1.5388,-2.6079 -3.1746,-4.5619 -5.4419,-6.3823 -0.6177,-0.4958 -0.6702,-0.3651 -0.8166,-0.8127 2.1808,0.3428 7.044,5.1662 8.2947,7.6802 3.1628,6.3576 3.9388,14.7175 5.0266,21.9411 -0.0267,-0.0995 0.175,-5.2491 0.1418,-6.1653 -0.0749,-2.0527 -0.2212,-4.0869 -0.5039,-6.1074 -0.9344,-6.6813 -3.237,-13.9184 -9.2366,-17.2302 -2.2955,-1.2671 -7.1441,-2.8167 -10.003,-3.3898 -8.3425,-1.6727 -16.456,0.0601 -24.809,0.2478 -8.7945,0.1976 -17.5681,-0.3804 -26.3455,-0.3289z"/>
   <path class="fil1" d="M80.7037 95.4861c0.0187,4.079 -2.347,8.6458 -3.4323,12.3605 -1.0171,3.4811 -2.4464,9.9063 -1.828,13.7494l10.2437 0.0235c0.1903,-2.8064 1.0802,-2.7578 3.3156,-4.0433 -0.2939,-0.4035 -0.5316,-0.5372 -0.8037,-0.8558 -0.3689,-0.4321 -0.3399,-0.6527 -0.6657,-1.0686 -0.3346,-0.4273 -0.5538,-0.3968 -0.853,-0.8874 -0.6015,-0.9867 0.2342,-0.9833 -0.3457,-1.9983 -1.4322,-2.5067 2.2173,-2.2662 3.0258,-2.8764 1.126,-1.3454 0.518,-2.565 2.7849,-2.9785 -0.3723,-3.7925 3.6138,-6.8998 5.5185,-6.5764 1.0827,0.1839 2.5849,1.2187 2.9787,1.3419 0.0262,-1.2899 0.2398,-2.2107 1.6608,-2.1313 1.1891,0.0665 1.7652,1.0139 2.2876,1.5759 1.3515,1.4534 0.7874,0.6378 1.0399,2.7518 0.1409,1.1777 5.2633,4.2119 3.7897,7.4453 -0.3703,0.8129 -1.3848,1.206 -2.2893,1.4839 -1.3831,0.4251 -2.2326,0.1224 -3.6207,-0.0382 0.0052,1.019 -0.2395,2.595 -0.1824,3.3965 0.0117,0.1627 0.4826,2.9548 0.5509,3.1652 0.5431,0.2832 1.5855,0.5213 2.224,0.7757 1.0767,0.4294 1.1967,0.7159 1.892,1.2587 0.656,0.5122 4.7213,0.3582 5.8602,0.2192 -0.6598,-1.1962 -2.6165,-4.9497 -1.4413,-6.8049 0.6377,-1.0065 3.4238,-1.8812 4.7164,-2.2155 0.92,-0.238 0.9839,-0.2738 0.8741,-1.3675 -3.4256,1.0753 -5.1633,-2.6128 -6.3455,-5.2756 -0.9621,-0.0476 -2.3056,0.0033 -3.0808,-0.4271 -0.4666,-0.2591 -1.7056,-1.208 -1.9354,-1.537 -1.0893,-1.5584 0.7964,-3.4184 2.9095,-2.7661 0.4756,-2.0222 2.1647,-1.2089 3.7125,-0.7013 2.072,0.6794 1.4504,1.8404 3.0671,2.8528 0.2269,-0.2553 0.3404,-0.5667 0.5885,-0.9187 1.0617,-1.5072 1.974,-1.2645 2.8417,-2.0072 -0.1741,-1.0406 -1.1932,-1.3145 -0.8069,-3.2267 0.2276,-1.1269 1.2193,-1.6365 1.8943,-2.2904 -0.6775,-0.5813 -0.5435,-0.7375 -1.0625,-1.2818 -1.9824,6.0465 -3.5815,-1.8686 -5.5393,-2.4771 -3.583,4.2392 -2.0991,9.03 -7.6931,4.0825l-2.1616 -1.9413c-0.6117,-0.4982 -1.598,-1.7652 -2.3909,-0.7369 -0.8906,1.155 -2.4,4.2448 -3.2732,4.9287 -2.1448,1.6788 -3.4748,-1.4693 -4.7708,-2.5864 -5.3415,-4.605 -5.1785,6.6827 -9.0874,4.6839 -1.8021,-0.9214 -1.5604,-3.6605 -4.1669,-4.0796z"/>
   <path class="fil1" d="M145.3449 160.0474l-7.2417 -0.0033c0.079,-0.8716 1.3792,-3.991 1.7776,-5.0276 0.5455,-1.4194 1.4181,-3.4604 1.7536,-4.8238 0.2417,0.1646 0.2069,-0.0251 0.4576,0.6036 0.0704,0.1768 0.1331,0.3999 0.1998,0.5832 0.6363,1.7432 2.968,7.7712 3.053,8.668zm-54.8751 11.6018l0 0 5.8483 0.0126c1.8081,-0.0225 1.5824,0.1371 1.765,-0.4741 -1.4074,-0.7982 -3.3793,0.5311 -3.2618,-2.3614l1.9276 -14.8814 0.1109 -0.85c0.5691,0.1023 1.0232,1.6257 1.2489,2.1103l3.4952 7.23c0.7624,1.5589 4.274,8.6537 4.937,9.1856 0.8875,-0.2185 2.216,-3.4798 2.6604,-4.4043l4.7389 -9.7739c0.7008,-1.4658 1.8725,-3.4369 2.3437,-4.882 0.4553,0.4542 0.2264,0.3175 0.4208,1.4297 0.5664,2.5039 0.8606,6.0509 1.2244,8.684l0.9107 6.645c0.1432,1.6759 -0.2531,0.9773 -0.6415,1.8683 0.166,0.1667 -0.0001,0.0843 0.3696,0.2699 2.0378,0.3432 5.9896,0.3127 8.1676,0.3011 2.8396,-0.0151 5.5822,-0.1547 8.4623,-0.1326 0.3292,0.0122 0.8572,0.0681 1.1649,0.0495 0.7026,-0.0425 0.6069,0.0271 0.7465,-0.5114 -1.059,-0.5593 -2.2137,0.4141 -2.6263,-1.1468 -0.0387,-1.2253 2.1801,-7.2711 2.8142,-8.0398l8.8939 0.0362c0.4495,1.0628 3.2603,7.873 3.0748,8.6124 -0.5418,0.6956 -0.4352,0.0136 -0.792,0.7189l0.6008 0.2394 7.5374 0.0724c0.3696,-0.0067 1.2678,0.0658 1.5662,-0.1009 0.4131,-0.2308 0.1426,0.0508 0.287,-0.3685 -1.6384,-0.9918 -2.9322,1.5291 -5.7493,-5.3294l-8.8163 -21.6082c-1.4247,-3.45 -1.8654,-1.3066 -2.9673,1.4122l-7.2567 17.9637c-1.9739,4.8762 -2.3138,8.2319 -7.6329,7.3171 -1.7271,-0.2972 -2.2003,-0.7768 -2.5901,-2.4666 -0.7689,-3.3316 -2.5805,-17.0433 -3.3202,-21.8968 -0.1722,-1.1295 -0.4699,-6.454 -2.0902,-3.0065l-9.4331 19.5767c-0.1924,0.4101 -0.439,1.0988 -0.7895,1.4091 -1.0048,-1.608 -1.931,-3.8288 -2.7754,-5.5736l-6.9016 -14.0574c-0.55,-1.1408 -0.926,-2.3798 -1.8299,-2.4571 -0.7551,0.636 -1.2954,6.1828 -1.4999,7.52l-2.391 15.7052c-1.1428,7.3594 -1.439,4.2418 -3.6389,5.4753 0.2882,0.7369 0.7817,0.4823 1.6869,0.478z"/>
   <path class="fil0" d="M64.4777 152.3477c-0.5782,1.0315 -0.3903,4.8423 -0.2386,6.1609 0.5849,5.0775 3.3064,10.1651 8.6955,11.4653 4.6411,1.1198 7.8607,-0.6324 9.5891,-3.2767 1.6836,-2.5759 2.6207,-7.7725 1.8578,-11.3866 -0.0245,-0.0377 -0.0488,-0.09 -0.0624,-0.1196 -0.4168,-0.914 -0.0313,-0.1686 -0.5347,-1.74 -1.26,-3.9349 -3.8323,-7.2005 -8.2509,-8.1377 -5.3323,-1.1309 -9.7642,1.6615 -11.0193,7.365l-0.0365 -0.3306z"/>
   <path class="fil3" d="M55.3136 72.0668c-0.2439,0.4091 -0.6198,0.8433 -0.9309,1.1034l-0.9692 -1.1665c-0.2196,0.7308 -0.3808,1.5679 -1.0799,1.9693 -0.5621,-0.504 -1.088,-1.3068 -1.1831,-2.3501 0.2985,0.6528 0.7266,1.2576 1.4088,1.3741 1.157,-1.3559 0.7374,-1.5575 0.7238,-2.7267 0.3261,0.4979 0.5887,1.1867 0.8915,1.609 0.865,-0.1503 1.4424,-0.9406 1.94,-1.5736l-0.2363 -1.3765c-0.2478,0.3373 -0.2541,0.5216 -0.7071,0.74 -0.685,-0.6758 -0.8553,-1.821 -0.9715,-2.9316 0.0305,0.035 0.0715,0.0438 0.0854,0.1096 0.0377,0.1774 0.6172,1.0086 1.0437,1.1889 1.727,-0.9013 0.9002,-2.6802 0.9193,-3.4477 0.0266,0.0339 0.0607,0.0464 0.0716,0.1075l0.5825 1.0206c0.541,-0.0988 0.9053,-0.441 1.0063,-0.8357 0.036,1.3965 -0.6388,1.2063 0.3393,2.4407 0.6746,-0.1219 0.733,-0.3189 1.1298,-0.7347 -0.0363,1.3887 -0.4781,0.8275 0.5431,2.1187 0.3897,0.493 1.2217,1.045 2.1329,1.1127 -0.6859,-1.2176 -0.8803,-1.6888 -1.1085,-3.4107 -0.9075,0.7253 -1.143,-1.187 -1.0396,-2.1116 0.2191,0.3513 0.3916,0.888 0.6087,1.2704 0.6102,-0.0802 0.7679,-0.4029 1.0852,-0.7755l-0.2039 1.1381c0.8739,0.4319 2.0889,1.3778 3.462,1.2947 -0.5607,-0.3553 -0.9929,-1.8649 -1.2743,-2.7523l-0.7737 0.0953c-0.3324,-0.7853 -0.5983,-1.1389 -0.5089,-2.1148 0.2555,0.559 0.281,0.7808 0.5827,1.2049 0.5622,-0.1169 0.9172,-0.4579 1.005,-0.809l-0.1165 1.018c1.3912,0.3028 1.9541,0.7454 3.7166,0.6665 -0.3714,-0.8543 -0.8546,-1.6766 -0.8278,-2.9109 1.1879,0.1612 2.5013,0.1435 3.6584,0.0024l-1.2754 -1.0865c0.6754,-0.4825 4.6759,-1.0219 5.3861,-1.1026 -1.3329,-0.7542 -5.9492,-0.5719 -7.7088,-0.3897 -5.9099,0.612 -7.7238,1.6521 -15.0215,1.3265 -3.111,-0.1389 -4.8524,-0.3567 -4.4002,-3.6377 -0.535,0.2794 -3.1068,2.6873 -3.9672,0.9307 1.5184,-0.2184 1.9451,-0.4729 2.279,-1.9488 0.1521,-0.6713 0.2191,-1.4389 0.1209,-2.1223 -0.0841,-0.5843 -0.9873,-2.0493 0.3621,-1.5117 0.1711,0.068 0.6238,0.3441 0.7146,0.4171 0.2636,0.2123 0.7651,0.8535 0.8548,1.1555 0.1123,-1.0738 -0.4245,-1.8398 -1.0084,-2.4208 -0.7983,-0.7943 -1.2829,-1.2522 -2.3061,-0.4291 -2.4689,1.9857 -1.2191,3.7994 -1.5198,5.7518 -0.4198,2.7298 0.6094,0.4084 2.8207,4.513 0.732,1.3584 1.8525,4.056 1.5679,5.8839 -0.563,-1.9158 -0.6655,-2.8334 -1.5906,-4.4442 -0.8825,-1.5366 -1.6128,-2.2423 -2.923,-3.2238 -3.0509,-2.2855 -6.0758,-2.1546 -10.2549,-1.6223 0.2021,-1.3791 -0.3418,-3.3912 -0.919,-4.4091 -0.4277,1.7618 -1.1532,4.5963 -2.4731,5.9261 -0.0261,0.0262 -0.0627,0.064 -0.0864,0.0882l-0.1713 0.1874c1.7922,-0.6431 3.0549,-1.7151 5.4012,-1.82 3.6349,-0.1624 8.0862,1.1949 9.5262,5.0406 0.5566,1.486 0.7568,4.9732 0.5758,6.6818l-0.8042 0.4043c0.1882,2.6193 1.979,1.1283 1.0074,5.8038 -0.4094,1.9702 -1.3237,3.788 -2.8696,4.2844 1.4167,0.0452 2.8299,-1.2133 3.427,-1.9982 0.4038,-0.5308 1.7502,-2.9113 1.8123,-3.6772 0.3504,2.8883 -0.4941,4.4366 -1.7525,5.8789 2.5133,0.2438 4.2463,-1.5526 5.2481,-2.8988 0.6572,0.8291 1.529,3.1406 3.3629,3.734 -0.4524,-1.4931 -0.4891,-1.6599 -0.7103,-3.4184 -0.0434,0.6528 -0.4955,0.7677 -0.5324,0.7923 -1.2006,-0.5462 -1.6833,-1.8748 -1.8596,-3.402 0.4641,0.6675 0.9712,1.7297 1.8144,1.8387 0.7813,-0.612 0.7084,-1.6144 0.689,-2.8123 0.4344,0.6475 0.4311,1.3058 1.0903,1.6445 0.4716,-0.2346 0.7027,-0.78 0.995,-1.4079 0.4618,-0.9907 -0.0054,-0.939 0.0933,-2.0572z"/>
   <path class="fil1" d="M64.4777 152.3477c0.2079,-2.924 1.9861,-5.2043 3.4602,-6.3837 1.7945,-1.4363 4.9699,-2.108 7.7632,-1.4673 4.995,1.1457 7.8192,5.2725 8.6804,10.8139 0.7628,3.6141 -0.1742,8.8108 -1.8578,11.3866 -1.7284,2.6443 -4.9479,4.3965 -9.5891,3.2767 -5.3892,-1.3003 -8.1107,-6.3879 -8.6955,-11.4653 -0.1517,-1.3186 -0.3396,-5.1294 0.2386,-6.1609zm-5.4347 7.3218l0 0c0.5257,4.0223 2.6749,7.2401 4.7706,9.0247 2.5437,2.1665 5.8274,3.4963 10.2733,3.5151 7.9212,0.0333 14.3844,-5.0263 15.4823,-12.2307 0.9636,-4.8819 -0.4139,-10.1683 -2.9411,-12.8435 -2.6086,-2.7614 -6.5828,-4.6425 -11.9107,-4.6682 -10.0427,-0.0485 -16.764,6.7769 -15.6743,17.2025z"/>
   <path class="fil3" d="M101.5172 104.6796c0.9815,1.2016 1.3536,1.9151 2.2353,3.4273 0.5649,0.9681 1.8911,2.1463 2.4364,3.11 -0.6658,-0.2711 -1.2264,-0.8966 -1.6411,-1.3863 -0.2289,-0.2701 -0.4933,-0.5345 -0.7296,-0.8445 -0.1429,-0.1872 -0.3953,-0.6424 -0.6037,-0.8182 -0.5035,-0.425 -1.713,-0.5152 -2.483,-0.5689 -1.2237,-0.0851 -1.6526,0.2494 -2.7222,0.4108 0.2153,-0.1996 0.0106,-0.0726 0.4104,-0.2868 1.1602,-0.6225 2.2403,-0.2454 2.8383,-0.4911 0.3233,-0.1327 0.6726,-0.5859 0.6231,-1.0492 -0.0565,-0.5263 -0.3036,-0.9158 -0.3639,-1.5032zm0 0c-0.4074,-0.4415 -0.289,-0.5907 -0.7909,-1.0615 -0.3387,0.4891 0.0096,0.5455 -0.1048,1.2757 -0.0779,0.4988 -0.4519,1.0266 -0.4732,0.9817 -0.0125,-0.0258 -0.0547,0.065 -0.0846,0.0948 0.1402,-1.547 0.4061,-2.1287 -0.7157,-2.92 -1.9579,-1.3808 -4.3907,-0.1617 -4.5991,1.4906 -0.1199,0.9511 0.9677,1.7385 1.3634,2.3294 -1.5624,-0.8271 -1.5983,-1.0155 -1.7132,-3.1582 -0.9573,0.599 -1.4252,2.5356 -0.5644,3.7475 1.7549,-0.013 2.0616,-0.1998 3.4989,0.593 -0.8073,-0.0069 -1.4305,-0.3693 -2.2841,-0.3756 -0.6927,-0.005 -1.813,0.2043 -2.4539,0.3692 -1.9364,0.498 -1.4674,1.8249 -2.4304,3.2941 -0.9831,-0.1956 -2.5487,-0.1412 -2.9401,0.5782 0.5624,0.5536 2.3119,0.1578 2.949,-0.1158 -1.0323,1.4573 -1.4745,0.1248 -1.9103,0.8489 -0.0166,0.0282 -0.0549,0.0786 -0.0744,0.1136l-0.2928 0.6984c-0.4552,1.2785 0.3489,0.8153 0.8632,0.075 0.3144,0.5133 -0.3081,0.6861 0.5794,1.2665 0.5722,0.3744 1.0367,0.1307 1.4857,-0.1762 0.4431,-0.3035 0.7859,-0.8264 0.82,-1.4562 0.0426,-0.7891 -0.4062,-0.9791 -0.6988,-1.4313 1.2629,0.4646 0.9626,1.8377 1.3698,3.3036 0.6881,-1.642 -0.3786,-4.797 0.2139,-6.4047 0.1059,0.0968 0.0656,-0.0003 0.1969,0.257 0.7776,1.5238 -0.7095,1.9566 2.7832,1.717 -0.725,1.001 -1.4999,0.6742 -2.4888,1.1465 -0.0618,1.1267 0.0669,2.3202 0.0701,3.4704 0.0043,1.6633 -0.4017,1.5532 -0.7804,2.8877 1.3403,0.4846 2.4721,2.1594 3.2095,3.4183 0.8577,1.4647 1.779,3.9495 2.0688,4.3584 0.3462,0.0365 0.5528,0.0898 0.9054,0.0284 1.5732,-0.2737 0.7322,-4.5112 3.4303,-5.1578 -0.9258,0.9757 -1.8349,2.6615 -1.9202,4.7086 0.1165,0.0927 0.1015,0.0946 0.3236,0.2226 1.4821,0.8541 3.5637,0.2789 4.9769,0.0688 0.5859,1.9327 2.29,2.6157 3.8095,3.2968 3.5453,1.5888 3.1333,2.4647 4.7444,1.8341 0.2071,-0.6808 0.6705,-4.2279 0.6474,-5.1161 -0.0255,-0.9868 -0.3153,-1.5577 -1.0823,-1.822 -0.6239,-0.2148 -1.8329,-0.1768 -2.3418,0.0229 -0.1369,0.8837 0.1371,1.2389 0.224,2.1282 0.1037,1.0595 -0.1388,0.9727 -0.577,1.6628 -0.4147,-1.9216 1.6325,-2.2489 -2.7834,-4.7888 -1.0201,-0.5868 -1.1389,-1.1507 -2.264,-1.6755 -0.8896,-0.4149 -1.9943,-0.8001 -3.0775,-0.8732 -0.0572,-1.6967 -0.2079,-2.4535 -0.5276,-4.0255 -0.1916,-0.9415 0.1535,-2.9183 0.0457,-4.173 -0.6999,-0.4435 -1.9061,-0.9542 -2.4463,-1.5726 0.8784,0.1455 1.3402,0.354 2.1952,0.1616 0.3885,-0.7404 0.2731,-1.6125 0.5892,-2.1978 0.4099,0.6892 0.3756,1.8643 0.5168,2.7732 2.0444,0.3281 3.9639,0.7405 5.2692,-0.5971 0.1094,-1.6595 -0.347,-2.1246 -1.1292,-3.066 -0.9288,-1.1185 -2.8484,-2.7765 -2.8973,-3.3617 -0.0483,-0.575 0.2469,-1.1347 -0.0335,-1.7557 -0.1066,-0.2359 -0.7048,-0.8628 -0.9256,-1.1213 -0.3807,-0.4459 -0.5407,-0.7256 -1.4038,-0.6241 0.1083,1.0576 0.7333,0.6146 0.5792,1.4494 -0.2524,1.3656 0.4581,0.898 -0.1337,1.5704l-0.4425 -0.5163c-0.3439,-0.3411 0.1142,-0.169 -0.5305,-0.3125 -0.1878,0.8107 0.0671,0.8052 0.1877,1.6133z"/>
   <path class="fil1" d="M38.7929 145.9302c-0.0048,-1.4223 0.811,-1.1952 2.1965,-1.183 1.0924,0.0097 1.8717,0.2209 2.7538,0.6632 1.3465,0.675 2.6331,2.1429 2.9416,4.069 1,2.0144 -0.1727,5.8279 -1.1915,7.1396 -1.7692,2.2777 -5.8791,1.4098 -6.7007,0.8045l0.0002 -11.4932zm-6.5305 -2.12l0 0c1.4716,-0.0559 1.8398,0.6649 1.9946,2.0451 0.1711,1.8986 0.1029,18.759 -0.008,21.2299 -0.2399,5.3367 -1.4051,3.2361 -3.1701,4.0765 0.2601,0.726 0.6648,0.4942 1.5588,0.4959l8.3755 0.0012c0.8522,-0.0193 1.3377,0.1721 1.7746,-0.3135 -0.2955,-0.4684 0.1171,-0.2892 -1.5351,-0.4219 -2.1367,-0.1716 -2.2039,-0.8361 -2.354,-3.4548 -0.0634,-1.1105 -0.2466,-6.9434 0.0052,-7.6104 0.7205,-0.0955 3.4599,-0.1547 3.9827,0.1325 0.3958,0.2173 4.5724,6.1637 5.032,6.7864 3.6605,4.96 4.8004,4.9908 10.9506,4.8813 0.8129,-0.0014 1.303,0.2148 1.592,-0.4235 -0.8497,-0.6873 -2.047,0.2032 -4.5789,-1.8596 -1.3718,-1.1178 -8.438,-9.4475 -9.0516,-10.6525 -0.5433,-0.4465 -0.1726,-0.0387 -0.3517,-0.5162 0.8067,-0.5031 2.2525,-1.9475 2.8826,-2.7593 0.7914,-1.0193 1.6563,-2.2588 1.8924,-3.8532 0.5301,-2.2597 -0.1357,-4.5193 -1.2127,-5.8565 -2.7088,-3.3628 -8.0788,-2.7647 -12.2098,-2.6868 -1.2771,0.0241 -6.6777,-0.4494 -7.324,0.2363 0.5276,0.8239 1.014,0.072 1.7548,0.5232z"/>
   <path class="fil3" d="M122.397 97.0186c-0.285,-0.0783 -0.7423,-0.2663 -1.0064,-0.3709l0.616 -0.2925c0.3995,0.3433 0.3833,0.1798 0.3904,0.6634zm-2.2213 4.8113l0 0c0.5594,0.5178 1.281,0.5609 1.6409,1.2838 -1.8063,-0.6886 -2.9117,-1.9386 -4.0755,0.5983 -0.213,0.4645 -0.233,0.6547 -0.5036,1.0749 -0.9273,1.4379 0.3795,2.6243 -0.0861,4.2859 -0.295,-0.8175 -0.5325,-1.8415 -0.6801,-2.804 -0.2905,-1.8932 -1.3432,-1.8692 -2.2299,-3.1361 -0.2694,-0.3854 -0.4124,-0.8557 -0.7664,-1.1243 -0.4293,-0.3261 -2.1318,-0.9638 -2.5975,-0.6514 0.3555,0.7845 0.7851,0.3377 0.9881,1.0851 -1.3659,1.6545 -4.4641,-1.468 -4.016,0.4342l1.3294 1.3754c0.9575,0.5195 3.2358,0.0872 3.3075,0.4417 0.0115,0.0563 0.0608,0.0741 0.0761,0.0957l0.1381 0.1959c0.8201,1.2699 1.7871,4.1832 3.5201,5.0038 0.8251,0.3906 1.5937,-0.2825 2.1388,-0.6186 0.1262,-2.304 -1.3269,-5.9254 0.9898,-6.8946 -0.6641,1.5056 -0.254,1.4199 -0.4609,2.4155 -0.1479,0.7133 -0.3413,0.3099 -0.0018,1.1736 0.1066,0.2712 0.1807,0.0552 0.1426,0.4655l-0.1693 0.5143c-0.1,0.5754 0.2464,5.0015 0.3158,5.9811 0.1043,1.4732 1.1096,3.3788 1.7023,4.5915 0.5347,1.0941 1.7748,3.3271 3.1812,3.0299 0.9638,-0.3848 0.9947,-4.6618 2.7573,-5.0083 0.7966,-0.1566 1.488,0.1758 1.9634,0.486 -2.6306,-0.0347 -2.7391,0.7696 -3.4707,2.8782 -0.571,1.6463 -0.4522,3.9461 0.0346,5.6618 0.5825,2.0525 1.5793,2.6146 3.9261,1.771 0.9972,-0.3584 1.0418,-0.7822 1.2442,-1.9184 0.3156,-1.769 0.2835,-2.8258 0.0967,-4.516 -0.1413,-1.2767 0.9288,-1.1445 -0.4862,-3.5862 -0.6232,-1.0756 -0.5758,-0.705 -0.9273,-2.2345 -0.3315,-1.4404 -2.3587,-4.7255 -3.1567,-6.2955 -0.5282,-1.0386 -0.4448,-0.3614 -2.0127,-1.1357 -0.7497,-0.3701 -1.4376,-0.8066 -1.5794,-1.7336 0.7966,0.3382 1.4273,1.1025 2.5016,1.3331 -0.2123,-0.5062 -0.6105,-0.5989 -0.4704,-1.1287 0.1978,-0.7471 0.1861,0.1274 0.2107,-0.4693 0.0051,-0.1176 -0.1202,-0.5163 -0.1248,-0.888l0.4125 -0.3192c0.0239,-0.022 0.0683,-0.0698 0.0884,-0.0889 0.0202,-0.0194 0.0621,-0.0597 0.0896,-0.0928 -0.4047,-0.4906 -0.1641,-0.4242 -0.312,-0.8533l-2.3877 0.7495c0.8285,-1.3466 2.1042,-1.0443 3.2706,-1.5228 0.034,-0.014 0.0893,-0.0371 0.1295,-0.0633 0.1307,-0.6722 -0.9588,-1.2233 0.7256,-2.5156 0.4264,-0.3273 0.5046,-0.1143 0.7807,-0.6369l-0.1717 -0.0315c-0.6041,-0.0803 -0.3152,0.0653 -0.7379,-0.1341 0.0309,-0.025 0.0928,-0.0827 0.107,-0.0518 0.0046,0.01 0.3534,-0.0987 0.4442,-0.4781 0.4231,-1.7695 -0.7163,-1.173 -1.1272,-2.7307 -0.3261,-1.2345 -2.0878,-1.4935 -3.3651,0.1484 -0.9667,1.2431 -2.6054,1.2969 -2.22,3.0814 0.1893,0.8766 1.5408,1.5698 0.6141,2.8804 -0.1974,0.279 -0.3881,0.3151 -0.7304,0.6261z"/>
   <path class="fil3" d="M29.8038 67.6239c2.4629,0.8988 2.9837,0.6292 6.1252,2.2244 1.2901,0.6551 4.4765,2.5171 5.0981,3.2928 0.0644,1.0411 -0.4625,1.798 -0.754,2.4373 -0.3549,-0.4185 -0.0869,0.1556 -0.1822,-0.3845 -0.2938,-1.6674 2.3099,-1.639 -6.0216,-4.2791 -2.5069,-0.7944 -1.3649,-0.0508 -3.2325,0.0951 -0.6896,0.0538 -0.7733,-0.3608 -1.3033,-0.7598 -0.3724,-0.2804 -0.9987,-0.6442 -1.4636,-0.8001 0.2871,1.5768 0.079,1.6026 -1.3405,1.9005 0.0836,0.9691 0.9457,1.66 1.4628,2.1319 0.9582,0.874 0.8411,0.9373 2.5162,0.9626l0.59 1.6224c0.3483,-0.276 0.2975,-0.8969 0.4526,-1.2864 0.4097,-1.0295 2.7683,-0.499 4.6627,-0.419 1.707,0.0721 3.0751,0.237 1.8733,1.8997 -0.8791,0.1713 -1.237,-0.0804 -2.0386,-0.0045 -0.7844,0.0742 -2.8534,1.7818 -4.4545,1.5309l-0.9477 -1.5757 -0.262 2.1267c-0.6485,-0.3375 -0.1294,-0.347 -0.8333,-0.601 -0.2692,0.2102 -0.254,0.2496 -0.589,0.5233 -0.475,-0.2961 -0.1794,-0.174 -0.6305,-0.4443l-0.5019 0.4762 -0.6026 -0.4867c-0.4608,0.5235 -0.8703,0.5975 -1.0754,1.3538 1.8018,1.2369 4.6186,0.1759 6.6753,-0.4219 4.0299,-1.1716 3.3001,-0.9623 7.0111,-1.05 2.865,-0.0676 3.2414,-4.2789 2.7918,-5.1309 -0.5956,-1.1287 -1.7458,-1.7623 -2.5254,-3.6254 -0.3507,-0.838 -0.5082,-1.3164 -0.0556,-1.7459 1.1424,-1.085 2.91,2.4202 2.4531,-1.7639 -0.0763,-0.6978 -0.1709,-1.1836 -0.3511,-1.8566 -1.1714,0.6722 -0.8939,0.7111 -2.6444,0.8374 -1.0497,0.0757 -2.5227,0.1733 -3.5392,-0.0095 0.0227,-0.1203 0.4964,-1.1324 0.6893,-1.5231 0.3561,-0.7207 0.916,-0.6653 1.7202,-0.4651 -1.4746,-1.572 -1.865,-1.5227 -3.9465,-0.5802 2.3382,-4.2444 5.5517,1.5063 7.5803,1.4222 -0.9195,-3.9489 -5.6722,-5.3776 -7.9292,-3.9059 -0.3286,0.2142 -1.2489,1.1448 -1.4065,1.7433 -0.1847,0.7021 0.1504,0.4705 -0.0141,1.2498 -0.3255,1.5405 -2.9222,4.985 -3.0568,5.2892z"/>
   <path class="fil1" d="M130.3855 101.499c0.8091,0.9625 1.2028,1.1411 1.5747,2.6861 0.8952,3.7196 2.4675,6.7249 -1.4574,9.1521 0.1085,1.8493 0.7584,1.9779 1.3345,3.4078 1.2099,3.0039 -1.105,4.9167 1.8245,4.8798 1.7576,-0.0221 5.7757,0.1018 6.9913,-0.0448 0.6497,-1.8147 0.7379,-5.1648 0.4756,-7.1444 -0.627,-4.7332 -3.8749,-7.9731 -7.0732,-10.9445l-2.1281 -1.965c-0.38,-0.3919 -0.6633,-0.6852 -1.093,-0.9485l-0.4489 0.9215z"/>
   <path class="fil1" d="M147.9181 121.6185l7.4093 -0.0026c0.3456,-1.7471 0.4659,-5.6069 0.5081,-7.4844 0.0792,-3.5231 -0.3054,-3.927 -2.0348,-5.9465 -1.0335,-1.2067 -2.857,-2.6281 -4.3434,-3.6972 -0.9525,-0.685 -4.0834,-2.8142 -4.5206,-3.3599l4.7911 6.397c0.544,0.6748 1.2012,1.4107 1.4613,2.4766 0.4861,1.9909 -0.68,4.3269 -1.3591,5.9369 -0.4512,1.07 -1.8551,4.6039 -1.9118,5.6801z"/>
   <path class="fil0" d="M38.7929 145.9302l-0.0002 11.4932c0.8216,0.6053 4.9315,1.4733 6.7007,-0.8045 1.0188,-1.3117 2.1915,-5.1253 1.1915,-7.1396 -0.0738,0.2992 0.0084,0.1436 -0.1534,0.3094 -0.4594,-1.7616 -1.4536,-2.8285 -2.718,-3.4969 -1.2636,-0.6681 -3.7253,-1.0908 -5.0206,-0.3616z"/>
   <path class="fil3" d="M116.3366 123.4588l-1.0175 0.5464 0.4998 2.0087c1.1844,0.1081 3.2205,0.406 4.2041,0.1279 0.4362,-0.8968 -0.0616,-5.9304 -0.1389,-6.1099 -0.3068,-0.7136 -2.8997,-2.5405 -3.0389,-3.7787l2.1174 1.8617c0.3743,0.3047 0.7605,0.5996 1.1358,0.9132 0.5302,0.4433 0.6071,0.5491 1.5144,0.6153 -1.7469,-2.6759 -1.9506,-2.6991 -3.3539,-5.9731 -1.1609,0.1888 -2.3684,0.5557 -3.4623,0.9681 -3.8905,1.4672 1.1956,7.0087 1.5399,8.8204z"/>
   <path class="fil3" d="M90.6794 127.1005c-0.2746,1.2627 0.3412,-0.5033 -0.2281,1.1554 -0.1653,0.4816 0.0709,0.8856 0.4206,1.0846 2.0388,1.16 2.6168,-0.1263 3.516,-0.4222 0.6873,-0.2264 0.7839,0.1025 1.5249,-0.21 0.8788,-0.3706 0.7857,-1.4895 0.3056,-2.1922l-2.7974 -3.9831c-0.688,-0.9027 -2.2152,-2.8227 -3.5173,-3.1229 2.2449,-0.1175 4.2469,2.9208 5.2287,4.5627 0.7045,1.1788 0.8545,2.0539 1.2993,1.6589 0.4502,-0.4003 -2.3748,-6.0968 -4.0251,-6.9773 -1.7181,-0.9166 -7.9029,1.2452 -4.366,4.216 0.7037,0.5911 1.2339,1.2205 1.9039,1.8796 0.5265,0.5179 1.358,1.2334 1.7505,1.7559 0.5686,-0.6451 1.3044,-1.2094 2.6644,-1.0979 -0.5778,0.3077 -1.4255,0.567 -1.8376,1.0068 -1.0563,1.1267 -0.1162,0.6767 -1.8424,0.6856z"/>
   <path class="fil3" d="M82.5779 195.5345c0.6965,2.9007 3.5865,3.5495 6.4511,2.2815 0.9133,-1.5598 -0.998,0.4722 -2.7758,-0.6429 -0.9527,-0.5978 -1.5335,-1.7272 -1.5801,-3.3534 0.0885,-4.1362 4.4363,-4.2604 5.2343,0.1186 0.7493,1.904 -0.2214,5.5719 -1.0847,7.1221 -1.9767,3.5492 -3.8639,3.9083 -4.1745,4.6485 0.1978,0.2029 -0.3289,0.2138 0.4568,0.1892 2.3303,-1.0039 3.1074,-1.9891 4.5914,-3.3333 0.4843,-0.4388 1.2252,-1.5486 1.6701,-2.2717 0.5982,-0.9714 0.7256,-1.6488 1.1197,-2.7318 0.5345,-3.9092 -0.2429,-7.2746 -4.0681,-7.7585 -1.8683,-0.2364 -3.6909,0.3993 -4.6561,1.3067 -0.7652,0.719 -1.7852,2.8302 -1.1842,4.4251z"/>
   <path class="fil3" d="M96.0126 193.6442c0.4473,-3.9829 5.3526,-3.9012 5.6519,0.0301 0.9016,2.107 -1.4419,5.63 -2.35,6.6795 -0.8412,0.9724 -1.3379,1.5671 -2.329,2.4022l-2.4576 2.3224c0.1388,0.3212 0.035,0.2404 0.2631,0.4302 1.4108,-0.1837 3.7843,-0.0458 5.3046,-0.0458 0.895,0 1.7938,0.0085 2.6879,-0.0021 1.3097,-0.0154 1.3758,0.0359 1.8314,-0.9292 0.0375,-0.9721 0.6222,-2.03 0.3469,-3.0363 -0.518,0.2633 -0.3242,0.7907 -0.9227,1.3808 -1.173,1.1567 -3.995,0.8819 -5.8714,0.9029l-0.6805 -0.0327c0.5965,-0.6059 1.2851,-1.1794 1.961,-1.6838l2.8275 -2.8399c1.0032,-1.2441 1.4198,-2.0901 2.0122,-3.6304 1.0356,-8.0964 -8.2916,-5.7808 -8.7697,-4.858 -0.0695,0.6289 -0.0109,1.2634 0.0151,1.9043 0.028,0.7048 -0.0851,1.3629 0.4792,1.0059z"/>
   <path class="fil3" d="M107.2552 193.7906l0.3233 0.0071c0.5839,-1.7155 1.0469,-1.7978 3.0768,-1.8146 1.5077,-0.0125 3.2305,-0.063 4.7527,0.05l-0.4949 0.6995c-0.4662,1.4276 -5.502,9.7799 -5.5747,13.0436l0.6265 -0.0354c1.1433,-0.2262 1.4681,-0.5279 2.2109,-0.9936 0.2769,-2.9461 1.1514,-5.2507 2.1694,-7.7931 0.4656,-1.1629 0.9605,-2.4635 1.5193,-3.5236 0.3518,-0.667 1.5732,-2.7948 1.5426,-3.2824 -0.7987,-0.0829 -9.4634,-0.2067 -9.8614,-0.1342l-0.2905 3.7766z"/>
   <path class="fil3" d="M71.7724 193.6889c0.8035,-0.2609 1.8114,-1.1167 2.7517,-0.9935l0.0766 0.7715c-0.0283,1.6229 0.1638,9.6421 -0.1331,10.7497 -0.3273,1.221 -1.7191,0.4199 -2.5187,1.0195 0.291,0.4678 1.1243,0.2618 1.8836,0.2586l3.9455 -0.0046c0.5367,0.003 1.2007,0.1029 1.6486,-0.0962 -0.1794,-0.5061 -0.0559,-0.3166 -0.8637,-0.4029 -1.2118,-0.1294 -1.4065,-0.1594 -1.4625,-1.7956l0.0205 -13.4463c-0.9684,0.076 -4.0652,2.5769 -5.5957,3.4285 0.0835,0.6488 -0.0306,0.2913 0.2471,0.5114z"/>
   <path class="fil0" d="M138.1033 160.0441l7.2417 0.0033c-0.9592,-0.7471 -2.8527,-8.3718 -3.645,-9.0039 -0.5881,1.3832 -1.154,3.0663 -1.7153,4.5433l-1.2789 3.4478c-0.1875,0.5124 -0.1779,0.7415 -0.6024,1.0095z"/>
   <path class="fil3" d="M130.9547 108.6385c-1.192,-0.8766 -1.6496,-1.9515 -2.6428,-2.6457l-2.6115 0.4852c0.7315,0.7143 1.9819,3.5355 2.6795,4.7434 0.5551,0.9606 1.9343,0.6735 1.9632,0.6574 1.7742,-1.9757 1.548,-2.8394 0.711,-5.8506 -0.8261,-2.9728 -0.5774,-3.4783 -3.8099,-4.0446 0.6128,1.3608 0.698,0.618 1.3119,1.3413 0.4703,0.5537 -0.0325,1.5104 0.2592,2.1005 0.2209,0.4478 0.8192,1.0958 1.1259,1.5522 0.3632,0.5405 0.7767,1.0515 1.0134,1.6609z"/>
   <path class="fil2" d="M89.5691 159.9787c-1.0979,7.2043 -7.561,12.264 -15.4823,12.2307 -4.4459,-0.0188 -7.7296,-1.3486 -10.2733,-3.5151 -2.0957,-1.7847 -4.2449,-5.0025 -4.7706,-9.0247 -0.2248,2.3521 1.4368,5.9486 2.8342,7.8057 5.8964,7.8363 20.3864,7.8249 26.1142,-2.0855 0.5039,-0.8719 1.9696,-4.389 1.5776,-5.411z"/>
   <path class="fil4" d="M114.5979 243.2252c0,0.535 0.2768,0.4729 0.7881,0.4729 0.6868,0 0.4856,-0.8448 0.476,-1.5735 -0.0093,-0.6828 -0.003,-1.3689 -0.003,-2.052 0.1182,0.1863 0.024,-0.0214 0.1475,0.3253l0.7983 3.3002 1.1035 0 1.0292 -3.9595 0.074 3.9595c1.5133,0 1.1035,0.5663 1.1035,-5.6747 -2.1275,0 -1.767,-0.2272 -2.2382,1.7025l-0.5991 1.9229c-0.0292,-1.3048 -0.7601,-2.3649 -0.7882,-3.6254l-1.8917 0 0 5.2018z"/>
   <path class="fil3" d="M109.8087 95.6807c1.1764,-0.3163 1.7702,-2.3892 2.2722,-3.6181 0.6595,-1.6139 1.1321,-3.6362 -1.2582,-3.6594 -2.8341,-0.0275 -2.9983,0.3327 -2.3783,2.862 0.3016,1.2309 0.9133,3.4296 1.3643,4.4155z"/>
   <path class="fil3" d="M97.9217 95.6257c0.5174,-0.1844 2.1135,-2.6831 2.5023,-3.2397 0.3398,-0.4871 0.9566,-1.1241 0.8791,-1.8568 -0.2215,-2.0927 -2.8595,-1.8451 -4.0684,-1.4938 -1.0736,0.3118 -0.8306,1.0637 -0.6308,2.111 0.2035,1.0661 0.8372,3.8242 1.3178,4.4794z"/>
   <path class="fil3" d="M121.6913 93.1218c0.5187,-0.2859 2.8983,-4.1305 1.4283,-5.8042 -0.4837,-0.5505 -1.4864,-0.488 -2.3701,-0.4376 -2.8686,0.1641 -2.1892,1.5417 -0.2591,4.6427 0.3677,0.5905 0.6478,1.3617 1.2009,1.5992z"/>
   <path class="fil3" d="M145.1777 125.2746c0.3088,-0.4044 5.8744,-14.2903 4.7863,-15.0184 -1.6222,-1.0858 -2.7759,5.4861 -3.1199,6.7897 -0.3194,1.2094 -2.1186,7.5698 -1.6664,8.2287z"/>
   <path class="fil2" d="M58.8693 171.6583c-6.1503,0.1095 -7.2901,0.0787 -10.9506,-4.8813 -0.4596,-0.6227 -4.6361,-6.5691 -5.032,-6.7864 -0.5229,-0.2871 -3.2622,-0.228 -3.9827,-0.1325l-0.0835 0.7995c5.7116,-0.0953 3.5065,-0.2947 9.4014,7.3902 0.9904,1.2912 2.6043,3.3129 4.3469,4.0077 1.2189,0.486 7.0637,0.8953 7.891,0.1823 -0.287,-0.7498 -0.823,-0.231 -1.5904,-0.5795z"/>
   <path class="fil3" d="M124.6842 93.4756c0.0329,0.0215 0.0893,0.005 0.1066,0.0518 0.1659,0.4483 1.6919,-0.2117 1.7688,2.0508 0.4473,0.1875 0.6884,0.3482 0.969,0.7402 0.5782,0.8078 0.1295,0.927 0.1582,1.2745 0.0419,0.5056 0.5203,0.0512 0.257,1.3297 -0.0916,0.4453 -0.2416,1.1543 -0.4111,1.445 -0.4429,-0.4849 -0.1545,-0.3617 -0.4163,-0.9976 -0.3634,0.4349 -0.703,0.7203 -0.7391,1.3567 0.3544,0.64 1.3058,0.9212 2.1557,0.9425 0.5617,-0.6325 1.1102,-1.4642 1.2487,-2.5072 0.3563,-2.6878 -0.7437,-3.1038 -0.9772,-3.4912 -0.2786,-0.4626 -0.0611,-0.3189 -0.2375,-0.7179 -0.2648,-0.5991 0.0378,-0.1253 -0.4809,-0.4611 -1.0346,-0.6699 -0.1462,-1.0146 -1.6605,-1.1622 -0.6125,-0.0597 -1.2352,-0.1277 -1.7414,0.146z"/>
   <path class="fil2" d="M96.7489 153.9449c0.4802,-0.0953 0.5515,0.4259 0.7607,0.9112l7.6909 15.4767c0.423,0.7976 0.7547,1.8152 1.5159,2.1608 1.0234,-0.589 2.0016,-3.4221 2.5608,-4.5852 0.7862,-1.6353 1.5688,-3.1648 2.3328,-4.7559 0.8378,-1.744 4.2927,-8.489 4.6475,-9.7209 0.0379,0.0426 0.0953,0.0449 0.1151,0.1264 0.0183,0.0765 0.0822,0.091 0.1056,0.1207 0.0186,0.0239 0.2103,0.2889 0.2265,0.3116 -0.1945,-1.1122 0.0345,-0.9755 -0.4208,-1.4297 -0.4711,1.4451 -1.6429,3.4162 -2.3437,4.882l-4.7389 9.7739c-0.4445,0.9245 -1.7729,4.1858 -2.6604,4.4043 -0.663,-0.5319 -4.1745,-7.6266 -4.937,-9.1856l-3.4952 -7.23c-0.2258,-0.4846 -0.6799,-2.008 -1.2489,-2.1103l-0.1109 0.85z"/>
   <path class="fil2" d="M64.4777 152.3477l0.0365 0.3306c1.2551,-5.7035 5.687,-8.4958 11.0193,-7.365 4.4185,0.9372 6.9909,4.2028 8.2509,8.1377 0.5034,1.5714 0.118,0.826 0.5347,1.74 0.0136,0.0296 0.0379,0.0818 0.0624,0.1196 -0.8612,-5.5414 -3.6854,-9.6683 -8.6804,-10.8139 -2.7934,-0.6406 -5.9687,0.031 -7.7632,1.4673 -1.4741,1.1794 -3.2522,3.4596 -3.4602,6.3837z"/>
   <path class="fil3" d="M55.3136 72.0668c0.4506,0.3408 0.5932,0.9888 1.2255,1.7059 0.8179,-0.123 1.1457,-0.6611 1.5825,-1.233 -0.3194,0.938 -0.8133,1.8208 -1.3743,2.5098 -0.5967,-0.3229 -0.8091,-0.6472 -1.2,-1.2346 -0.1442,0.7722 -0.34,1.1509 0.0402,1.7391 0.2581,0.3996 0.7937,0.9553 1.3177,1.0318 0.5546,-0.532 0.4663,-1.0094 0.7477,-1.7055 0.2116,1.9202 -0.1313,1.6059 0.9024,3.0753 0.5301,0.7533 1.0754,1.4685 2.0713,1.7415 -0.9946,-1.2465 -2.5688,-3.4955 -2.7677,-5.7949 0.8232,0.6999 1.444,1.8191 3.0191,2.1406 -0.2187,-0.4714 -0.1033,-0.2323 -0.4106,-0.6361 -0.9908,-1.3011 -2.0988,-2.5657 -2.4335,-4.3869 -0.0331,0.0288 -0.0745,0.0368 -0.0896,0.0965 -0.0075,0.031 -0.3227,0.4478 -0.7241,0.6424 -0.4058,-0.2229 -0.3857,-0.1965 -0.6505,-0.6463l-0.327 -0.6178c-0.0153,-0.0252 -0.0508,-0.0749 -0.0633,-0.095 -0.0127,-0.02 -0.0402,-0.0649 -0.0649,-0.094l-0.8009 1.7611z"/>
   <path class="fil2" d="M135.1977 171.6262c-2.8801,-0.0221 -5.6228,0.1175 -8.4623,0.1326 -2.178,0.0116 -6.1298,0.0421 -8.1676,-0.3011l-0.3325 0.6758c0.995,0.5657 18.3439,0.4975 18.8811,0.1925 -0.288,-1.066 -1.1473,-0.1005 -1.9186,-0.6998z"/>
   <path class="fil3" d="M86.0022 97.8941c0.8268,-0.2761 1.4955,-1.8981 1.9418,-2.7027 1.7816,-3.2132 -1.7512,-3.3964 -2.6622,-2.8016 -0.4478,0.2924 -0.1753,1.1279 -0.0746,1.7948 0.1858,1.2336 0.3288,2.7866 0.795,3.7095z"/>
   <path class="fil2" d="M134.4828 170.0175c0.4466,-1.0317 0.8909,-2.515 1.3291,-3.6294 0.4633,-1.1779 0.9617,-2.5115 1.4129,-3.5481l8.8988 -0.0067c0.8235,1.4848 2.4237,6.951 3.142,7.7931 0.1855,-0.7394 -2.6253,-7.5496 -3.0748,-8.6124l-8.8939 -0.0362c-0.6341,0.7687 -2.8529,6.8145 -2.8142,8.0398z"/>
   <path class="fil3" d="M56.5126 66.8358c-0.1892,0.6054 -0.6107,1.5341 -0.4189,2.0679 0.2045,0.5685 0.8334,1.3557 1.2841,1.617 0.6959,-0.2734 0.8317,-0.8174 1.254,-1.3807 -0.2586,1.5608 -0.9519,1.1636 0.2465,2.3403 0.6322,0.6207 0.9351,1.1622 2.1573,1.363 -0.3603,-0.7167 -0.8297,-1.2447 -1.2232,-2.1401 -0.3978,-0.9053 -0.4994,-1.5765 -0.8122,-2.4486 -0.4329,-0.1116 -0.4156,0.6593 -0.941,-0.0277 -0.2428,-0.3172 -0.3879,-0.9708 -0.5041,-1.391 -0.0211,-0.0104 -0.0634,-0.0204 -0.0705,0.0035l-0.972 -0.0035z"/>
   <path class="fil3" d="M93.2802 84.2673l-2.5011 -4.9572c-0.5096,-1.0917 -1.6933,-5.2805 -1.992,-5.7127 -0.5713,4.2702 2.087,9.3909 4.4931,10.6699z"/>
   <path class="fil4" d="M109.5537 238.9692c2.2551,0 1.7341,-0.7509 1.7341,4.729l1.1034 0 0 -4.729 1.7339 0 0 -0.9457 -4.5713 0 0 0.9457z"/>
   <path class="fil2" d="M41.0133 171.6588l-8.3755 -0.0012c-0.8467,0.3987 -1.3111,-0.2116 -1.5568,0.6427 0.6315,0.3497 6.8991,0.1563 8.7998,0.1841 0.851,0.0124 2.4019,0.3316 2.9233,-0.351 -0.5328,-0.6033 -1.0386,-0.1711 -1.7908,-0.4747z"/>
   <path class="fil2" d="M156.6118 171.6571l-7.5374 -0.0724 -0.38 0.2836c-0.1896,0.2264 -0.1615,0.028 -0.2408,0.4602 1.467,0.2249 3.4945,0.1557 5.0794,0.1752 1.0368,0.0129 4.382,0.3141 4.9695,-0.3703 -0.5159,-0.6301 -1.1182,-0.148 -1.8906,-0.4764z"/>
   <path class="fil3" d="M126.9369 103.8352c-1.0391,-0.4054 -0.5285,-1.0281 -1.6357,-1.2819l0.7793 1.9532c-0.6665,-0.2377 -0.4338,-0.3068 -1.0819,-0.4431 0.0136,0.5593 0.2571,0.8518 0.4586,1.2346l-0.6025 0.1576c0.3718,0.8501 0.8526,0.5878 1.8378,0.2746 2.5705,-0.8168 1.7655,-2.0767 1.564,-2.1839 -0.6441,-0.3432 0.2265,0.9719 -0.6327,-0.2154 -0.5085,-0.7027 -0.5667,-1.4472 -1.4012,-1.6831l0.7142 2.1876z"/>
   <path class="fil2" d="M94.791 205.5086c-0.2253,0.2591 -0.2309,-0.2939 -0.2302,0.5156 0.5861,0.3206 7.6422,0.2364 8.8509,0.1498 1.1106,-0.0798 1.252,-0.4639 1.2031,-1.6425 -0.4555,0.9651 -0.5217,0.9138 -1.8314,0.9292 -0.894,0.0106 -1.7929,0.0021 -2.6879,0.0021 -1.5203,0 -3.8938,-0.1379 -5.3046,0.0458z"/>
   <path class="fil2" d="M96.3181 171.6618l-5.8483 -0.0126c-0.8398,0.4592 -1.4379,-0.1876 -1.6873,0.65 0.7659,0.5667 3.5118,0.1083 4.6928,0.1288l3.6382 0.1303c0.7145,-0.0284 0.688,0.0607 1.0129,-0.4249 -0.2186,-0.2062 0.064,-0.0675 -0.3147,-0.2018 -0.57,-0.202 -0.9093,-0.0027 -1.4936,-0.2698z"/>
   <path class="fil2" d="M38.7929 145.9302c1.2953,-0.7292 3.757,-0.3065 5.0206,0.3616 1.2643,0.6684 2.2586,1.7353 2.718,3.4969 0.1617,-0.1658 0.0796,-0.0102 0.1534,-0.3094 -0.3085,-1.9261 -1.5952,-3.3939 -2.9416,-4.069 -0.8821,-0.4422 -1.6614,-0.6535 -2.7538,-0.6632 -1.3855,-0.0122 -2.2014,-0.2393 -2.1965,1.183z"/>
   <path class="fil2" d="M138.1033 160.0441c0.4244,-0.268 0.4149,-0.4971 0.6024,-1.0095l1.2789 -3.4478c0.5613,-1.477 1.1272,-3.1601 1.7153,-4.5433 0.7923,0.6321 2.6859,8.2568 3.645,9.0039 -0.085,-0.8969 -2.4167,-6.9248 -3.053,-8.668 -0.0667,-0.1833 -0.1294,-0.4063 -0.1998,-0.5832 -0.2507,-0.6286 -0.216,-0.439 -0.4576,-0.6036 -0.3355,1.3635 -1.2081,3.4044 -1.7536,4.8238 -0.3985,1.0367 -1.6986,4.156 -1.7776,5.0276z"/>
   <path class="fil2" d="M107.2552 193.7906c-0.0524,0.613 -0.1346,0.3149 0.0788,0.7616 0.447,0.0166 0.3693,-0.9347 0.8959,-1.3599 0.8942,-0.7218 5.117,-0.4012 6.6832,-0.4596l0.4949 -0.6995c-1.5222,-0.113 -3.245,-0.0625 -4.7527,-0.05 -2.0299,0.0168 -2.4929,0.099 -3.0768,1.8146l-0.3233 -0.0071z"/>
   <path class="fil2" d="M101.5172 104.6796c0.0604,0.5874 0.3075,0.9769 0.3639,1.5032 0.0495,0.4634 -0.2998,0.9166 -0.6231,1.0492 -0.5979,0.2457 -1.6781,-0.1314 -2.8383,0.4911 -0.3999,0.2143 -0.1952,0.0873 -0.4104,0.2868 1.0696,-0.1614 1.4985,-0.496 2.7222,-0.4108 0.77,0.0536 1.9794,0.1438 2.483,0.5689 0.2083,0.1757 0.4608,0.631 0.6037,0.8182 0.2363,0.31 0.5007,0.5744 0.7296,0.8445 0.4147,0.4897 0.9753,1.1152 1.6411,1.3863 -0.5453,-0.9637 -1.8714,-2.1419 -2.4364,-3.11 -0.8817,-1.5122 -1.2538,-2.2257 -2.2353,-3.4273z"/>
   <path class="fil2" d="M85.105 205.8981c-0.3203,0.2888 -0.401,0.21 -0.4047,0.7043 1.7036,0.1524 5.7313,-3.8281 6.8229,-5.8408 0.4205,-0.775 1.0595,-2.0979 0.9631,-3.2004 -0.3941,1.083 -0.5215,1.7603 -1.1197,2.7318 -0.445,0.7232 -1.1858,1.8329 -1.6701,2.2717 -1.484,1.3442 -2.2611,2.3295 -4.5914,3.3333z"/>
   <path class="fil3" d="M57.0351 81.801c-1.6511,-2.3466 -1.8493,-2.0433 -2.0916,-5.482l-0.4228 0.8714c-0.8951,-0.9481 -0.5713,-0.802 -1.0845,-1.418 0.2351,2.7354 1.5785,5.4097 3.5988,6.0286z"/>
   <path class="fil3" d="M130.5391 126.0905c1.0253,0.4967 3.0536,0.1264 1.4425,-2.7068 -0.3515,-0.6186 -0.3952,-0.8496 -0.8608,-1.235 -0.1515,3.6597 -0.3003,2.0182 -0.5816,3.9419z"/>
   <path class="fil2" d="M89.029 197.816c-2.8646,1.2681 -5.7546,0.6192 -6.4511,-2.2815l-0.058 0.6327c0.4109,3.1635 5.4964,3.9741 6.855,1.9219l-0.3459 -0.2731z"/>
   <path class="fil3" d="M88.6569 114.9451c0.7412,2.5766 2.9363,2.1061 3.3964,1.0718 0.0844,-0.7146 -0.0482,-1.485 -0.2465,-2.1417 -0.6642,0.971 -0.2206,0.9256 -1.2809,1.4106 -0.9868,0.4516 -1.0799,-0.0148 -1.869,-0.3407z"/>
   <path class="fil3" d="M58.8886 81.1107c-0.5258,-1.4987 -0.9457,-2.3941 -1.2129,-4.257l-0.4573 1.1483c-1.0967,-0.4687 -1.5468,-1.1251 -1.9847,-2.4567 -0.3872,2.1014 2.8409,4.8579 3.6549,5.5654z"/>
   <path class="fil2" d="M73.8325 205.4946c-0.5875,0.4915 -1.3398,-0.0299 -1.8928,0.5296 0.5607,0.5071 2.8448,0.1749 3.7234,0.1732 1.0425,-0.0021 3.2778,0.266 3.8044,-0.1732 -0.5553,-0.5324 -1.1201,-0.0395 -1.6896,-0.5342l-3.9455 0.0046z"/>
   <path class="fil3" d="M154.6579 127.0774c-0.6283,0.2737 -1.9242,0.5293 -2.3188,1.144 -0.3466,0.5393 -0.3986,2.472 0.029,2.859 1.2414,1.1234 0.954,-1.3508 1.0035,-1.9852 0.1384,-1.7864 0.8216,-0.9751 1.2864,-2.0178z"/>
   <path class="fil2" d="M98.1677 203.7788c0.3281,-0.218 0.727,-0.5795 1.0555,-0.8372 1.6812,-1.319 5.0997,-4.919 5.0648,-7.3497 -0.5924,1.5403 -1.0091,2.3863 -2.0122,3.6304l-2.8275 2.8399c-0.6759,0.5044 -1.3645,1.0779 -1.961,1.6838l0.6805 0.0327z"/>
   <path class="fil2" d="M55.3136 72.0668l0.8009 -1.7611c-0.4976,0.633 -1.075,1.4234 -1.94,1.5736 -0.3028,-0.4223 -0.5654,-1.1111 -0.8915,-1.609 0.0137,1.1692 0.4333,1.3708 -0.7238,2.7267 -0.6822,-0.1165 -1.1102,-0.7213 -1.4088,-1.3741 0.0951,1.0433 0.621,1.8461 1.1831,2.3501 0.6991,-0.4014 0.8603,-1.2385 1.0799,-1.9693l0.9692 1.1665c0.3111,-0.2601 0.687,-0.6943 0.9309,-1.1034z"/>
   <path class="fil2" d="M46.8308 158.7227c0.963,-0.3727 5.2623,-4.9877 4.4233,-7.1287 -0.2361,1.5944 -1.101,2.8339 -1.8924,3.8532 -0.6302,0.8118 -2.076,2.2562 -2.8826,2.7593 0.1791,0.4775 -0.1916,0.0697 0.3517,0.5162z"/>
   <path class="fil3" d="M138.8215 127.2699c0.9933,0.4891 2.2707,-0.6262 2.5339,-1.3223 -0.4031,-0.5464 -1.3881,-0.828 -2.1507,-0.7548 -0.3045,0.5457 -0.5867,1.4404 -0.3832,2.0771z"/>
   <path class="fil3" d="M59.6801 131.5268c1.1082,0.3488 1.1875,-0.265 1.6098,-1.0332l0.7391 -1.4917c0.1027,-0.5976 0.1,-0.2078 -0.0791,-0.3907 -1.2557,-1.2799 -2.2936,2.6597 -2.2697,2.9157z"/>
   <path class="fil2" d="M96.0126 193.6442c0.7888,-1.1169 0.8508,-2.2348 2.9835,-2.179 1.1623,0.0305 1.8847,0.6113 2.3161,1.5285l0.3524 0.6806c-0.2993,-3.9313 -5.2047,-4.013 -5.6519,-0.0301z"/>
   <path class="fil2" d="M84.6732 193.8197c0.4051,-1.3473 0.8774,-2.5149 2.6024,-2.3707 1.9325,0.1615 1.906,1.8148 2.6318,2.4893 -0.7979,-4.379 -5.1458,-4.2548 -5.2343,-0.1186z"/>
   <path class="fil3" d="M25.1816 68.6793c-0.2556,1.184 0.5131,1.7773 1.7814,1.607 0.3904,-1.4465 -0.9099,-2.2347 -1.7814,-1.607z"/>
   <path class="fil2" d="M34.257 145.8552c-0.1548,-1.3802 -0.5231,-2.1009 -1.9946,-2.0451 -0.8639,0.1174 -1.1822,-0.1509 -1.7556,0.265 0.1021,0.2132 -0.1125,0.3849 0.8535,0.4383 0.7297,0.0404 1.6003,-0.0195 2.2186,0.5041l0.6782 0.8376z"/>
   <path class="fil1" d="M26.4121 74.8242c-0.1979,0.7057 0.0359,1.5894 0.7007,2.0073 0.5256,-0.1274 1.1699,-0.674 0.8862,-1.4182 -0.1624,-0.4264 -1.0285,-0.6248 -1.3598,-0.6246l-0.2271 0.0355z"/>
   <path class="fil3" d="M137.4546 126.95c0.6123,-0.3377 1.3328,-1.6894 1.1822,-2.5 -1.1444,-0.0008 -2.3973,1.647 -1.1822,2.5z"/>
   <path class="fil2" d="M109.9649 205.7409c-0.9197,0.1901 -0.5219,-0.2781 -0.6267,0.5985 0.0906,0.057 -0.0598,0.3796 1.0707,0.0694 1.5164,-0.4161 1.8067,-0.6463 1.767,-1.6616 -0.7428,0.4657 -1.0677,0.7674 -2.2109,0.9936z"/>
   <path class="fil2" d="M71.7724 193.6889c-0.152,0.2796 -0.1737,0.3131 -0.2401,0.7277 1.151,-0.1688 1.8668,-1.0455 3.0684,-0.9497l-0.0766 -0.7715c-0.9402,-0.1232 -1.9482,0.7326 -2.7517,0.9935z"/>
   <path class="fil3" d="M37.6885 63.9566c0.622,-0.0624 0.5947,-0.0562 0.8002,-0.5888 -0.2071,-0.5171 -0.2032,-0.5301 -0.8052,-0.5925 -0.4101,0.5275 -0.4118,0.6591 0.0049,1.1813z"/>
   <path class="fil3" d="M94.5778 103.7166l1.3444 -1.0145c0.3139,-0.2417 0.243,-0.2269 0.3868,-0.4319 -0.8171,0.0332 -1.5992,0.6426 -1.7312,1.4464z"/>
   <path class="fil5" d="M96.7597 101.6627l0.4988 0.5399c0.2426,-0.1215 0.2299,-0.1726 0.2671,-0.2009 0.1492,-0.1139 -0.2671,-0.0569 0.139,-0.0983 0.3339,-0.0339 -0.1536,0.2624 0.3523,0.0842 -0.2656,-0.2176 -0.8928,-0.6543 -1.2572,-0.3249z"/>
   <path class="fil6" d="M121.3906 96.6478c0.2641,0.1046 0.7213,0.2926 1.0064,0.3709 -0.0071,-0.4836 0.0091,-0.3201 -0.3904,-0.6634l-0.616 0.2925z"/>
  </g>
 </g>
</svg>
