<?xml version="1.0" encoding="UTF-8"?>
<!DOCTYPE svg PUBLIC "-//W3C//DTD SVG 1.1//EN" "http://www.w3.org/Graphics/SVG/1.1/DTD/svg11.dtd">
<!-- Creator: CorelDRAW 2019 (64-Bit) -->
<svg xmlns="http://www.w3.org/2000/svg" xml:space="preserve" width="176.756mm" height="174.068mm" version="1.1" style="shape-rendering:geometricPrecision; text-rendering:geometricPrecision; image-rendering:optimizeQuality; fill-rule:evenodd; clip-rule:evenodd"
viewBox="0 0 176.5445 173.8594"
 xmlns:xlink="http://www.w3.org/1999/xlink"
 xmlns:xodm="http://www.corel.com/coreldraw/odm/2003">
 <defs>
  <style type="text/css">
   <![CDATA[
    .fil1 {fill:#671A12}
    .fil0 {fill:#C2992D}
    .fil2 {fill:white}
   ]]>
  </style>
 </defs>
 <g id="Layer_x0020_1">
  <metadata id="CorelCorpID_0Corel-Layer"/>
  <g id="_699637872">
   <path class="fil0" d="M88.2726 173.8594c-14.5454,-5.2441 -28.092,-12.6104 -40.0778,-22.4742 -17.9165,-14.7948 -31.3383,-34.2721 -39.2668,-56.5586 -5.9927,-16.7928 -8.9897,-35.271 -8.927,-54.6239 0,-10.2379 0.9363,-20.6635 2.4348,-30.4016 4.2451,-1.2491 8.4901,-2.3105 12.7974,-3.246 10.1756,-2.2476 21.0379,-3.7459 31.6503,-4.7444 14.8581,-1.3738 29.2783,-1.8106 41.3892,-1.8106 12.1109,0 26.5938,0.4369 41.3897,1.8106 10.6118,0.9985 21.4743,2.4968 31.6493,4.6814 4.3087,0.9368 8.6162,2.0599 12.799,3.246 1.5602,9.7393 2.4339,20.1649 2.4339,30.4029 0,19.3519 -2.9967,37.8303 -8.9889,54.6857 -7.9286,22.2865 -21.3509,41.7639 -39.267,56.5586 -11.8614,9.8638 -25.4701,17.2301 -40.0159,22.4742z"/>
   <path class="fil1" d="M88.2726 169.6764c31.4632,-11.6114 54.1862,-32.5244 68.1082,-58.9934 14.6073,-27.8424 19.4145,-61.9271 14.2333,-97.7606 -12.798,-3.6213 -27.1557,-5.8058 -41.2642,-7.1166 -14.6084,-1.3738 -28.9665,-1.7489 -41.0774,-1.7489 -12.1109,0 -26.4689,0.4381 -41.0766,1.7489 -14.0462,1.249 -28.467,3.4953 -41.2023,7.1166 -5.1812,35.8335 -0.3741,69.9181 14.2338,97.7606 13.8586,26.469 36.6446,47.382 68.0451,58.9934z"/>
   <polygon class="fil2" points="145.1433,26.8433 149.0768,28.5922 145.2061,30.2152 146.7046,34.1475 142.834,32.5875 141.1481,36.458 139.525,32.6492 135.5928,34.1475 137.1529,30.2769 133.2823,28.5922 137.091,26.968 135.5928,23.0357 139.4633,24.597 141.1481,20.6635 142.7723,24.534 146.7046,23.0357 "/>
   <polygon class="fil2" points="61.1174,106.6877 55.6862,127.7255 48.8815,127.7255 52.6893,112.868 47.8202,115.5524 45.5104,111.4323 54.2498,106.6877 "/>
   <path class="fil2" d="M60.8675 114.6158c0,3.8082 3.1834,5.5558 6.4922,5.5558 1.4985,0 3.0592,-0.4368 4.3073,-1.061 -0.624,3.246 -3.1213,4.3077 -5.8679,4.37 -2.1224,0.0626 -4.4949,-0.5617 -6.2425,-1.1862l-1.1239 4.4323c2.2472,0.8119 4.8695,1.3736 7.3664,1.3736 5.2439,0 9.0518,-2.2476 11.2367,-5.9306 1.1862,-1.998 2.1229,-5.1192 2.1851,-7.9906 0.0625,-5.681 -3.4338,-7.741 -8.927,-7.741 -4.9943,-0.125 -9.3644,3.059 -9.4265,8.1778zm8.4275 1.7481l0 0c-1.4984,-0.0626 -2.4347,-1.0611 -2.4347,-2.4347 -0.0622,-2.185 1.6233,-3.7457 3.4337,-3.7457 1.5607,0 2.4348,0.6867 2.4348,2.497 -0.0627,2.1228 -1.6857,3.6834 -3.4338,3.6834z"/>
   <path class="fil2" d="M94.8898 114.6158c0,3.8082 3.1839,5.5558 6.4927,5.5558 1.498,0 3.059,-0.4368 4.3073,-1.061 -0.6245,3.246 -3.1214,4.3077 -5.8681,4.37 -2.1849,0.0626 -4.4947,-0.5617 -6.2429,-1.1862l-1.1861 4.4323c2.2477,0.8119 4.8696,1.3736 7.429,1.3736 5.2436,0 9.052,-2.2476 11.1741,-5.9306 1.1867,-1.998 2.123,-5.1192 2.1852,-7.9906 0.0625,-5.681 -3.3711,-7.741 -8.8645,-7.741 -4.9943,-0.125 -9.3642,3.059 -9.4268,8.1778zm8.4281 1.7481l0 0c-1.4986,-0.0626 -2.4349,-1.0611 -2.4976,-2.4347 -0.0622,-2.185 1.686,-3.7457 3.4963,-3.7457 1.498,0 2.4343,0.6867 2.4343,2.497 -0.0622,2.1228 -1.6855,3.6834 -3.433,3.6834z"/>
   <polygon class="fil2" points="95.2021,106.6877 88.3354,106.6877 79.6577,111.4323 81.9676,115.5524 86.8369,112.868 82.9666,127.7255 89.8334,127.7255 "/>
   <path class="fil2" d="M68.983 93.8276l0 -2.5595 53.4996 0 14.2331 42.0762 -2.6844 0.187c-1.9969,-6.5548 -3.9323,-12.6103 -7.6781,-18.3534 -6.118,-9.3642 -15.1697,-15.7942 -27.031,-18.9777 -10.0507,-2.7471 -20.1013,-2.3726 -30.3392,-2.3726z"/>
   <path class="fil2" d="M18.5419 25.9078l66.9841 0c-0.9362,1.9353 -3.8082,4.4321 -6.1181,5.3059l-12.8596 0 -1.6855 2.0599 -39.3292 0c0.8115,0.9368 1.5606,1.8106 2.3098,2.8091l51.5022 0 18.7907 20.5386c3.0584,-7.8037 8.4896,-1.998 11.6114,1.8726 0.8113,-6.4923 3.9953,-8.4273 8.1155,-8.4902 6.0548,-0.1247 12.2358,4.9322 15.6065,8.1157 2.2476,-4.8691 7.3043,-10.1127 9.4888,-11.9233 -5.9921,0.4999 -26.219,0.4999 -22.2238,-11.2364 -7.0544,1.4354 -8.7399,-5.3072 -8.3653,-7.1795 -4.8694,4.1199 -11.3616,1.8105 -11.2994,-7.9287 -5.4934,4.3074 -10.3628,1.8106 -13.1721,-2.1846l-0.4367 3.3707 -11.8613 0 -1.6855 2.0599 -58.6188 0c1.0611,0.8121 2.1846,1.7489 3.246,2.8103zm89.4578 8.4273l0 0c1.5605,0 2.8716,1.2491 2.8716,2.8709 0,1.6243 -1.311,2.8721 -2.8716,2.8721 -1.6229,0 -2.8715,-1.2478 -2.8715,-2.8721 -0.0628,-1.6218 1.2486,-2.8709 2.8715,-2.8709z"/>
   <path class="fil2" d="M35.7093 47.5069l39.5789 0 14.7325 8.4901c0.437,-0.7492 2.6846,-0.9363 4.9939,0.312l-15.8559 -17.2925c-0.3125,1.623 -0.8742,3.3089 -1.2488,3.7459l-16.6679 0 -1.6854 2.0599 -25.4705 0c0.4995,0.8739 1.0612,1.7476 1.6232,2.6845z"/>
   <path class="fil2" d="M40.8907 57.6204l47.6318 0 -15.2323 -8.8028c-0.0619,1.8732 -0.2496,3.5586 -0.6864,4.0581l-15.482 0 -1.7481 2.0601 -15.7315 0c0.4373,0.8742 0.8119,1.7477 1.2486,2.6845z"/>
   <path class="fil2" d="M44.6363 68.295l53.0628 0c-4.1203,-2.8088 -6.929,-5.6809 -8.1157,-8.5524l-21.5371 0c-0.0622,1.8103 -0.2498,3.184 -0.6867,3.6835l-13.1719 0 -1.6856 2.06 -8.6772 0c0.3118,0.9363 0.5617,1.8726 0.8113,2.8088z"/>
   <path class="fil2" d="M46.322 78.5333l70.2299 0c-4.6193,-2.6223 -9.6761,-5.8056 -12.485,-8.1156l-37.7683 0c0,1.1239 0,2.497 -0.2497,3.2461l-12.9849 0 -1.6855 2.0601 -5.3686 0c0.1251,0.8741 0.2499,1.8726 0.3121,2.8093z"/>
   <path class="fil2" d="M46.3844 89.1456l78.4075 0c-2.6214,-2.247 -5.9302,-5.7433 -8.1774,-8.49l-47.819 0c0.4373,1.1861 0.6244,2.3726 0.4994,3.6208l-12.7974 0 -1.6856 2.0602 -8.4276 0 0 2.809z"/>
  </g>
 </g>
</svg>
