<?xml version="1.0" encoding="UTF-8"?>
<!DOCTYPE svg PUBLIC "-//W3C//DTD SVG 1.1//EN" "http://www.w3.org/Graphics/SVG/1.1/DTD/svg11.dtd">
<!-- Creator: CorelDRAW 2019 (64-Bit) -->
<svg xmlns="http://www.w3.org/2000/svg" xml:space="preserve" width="174.674mm" height="220.817mm" version="1.1" style="shape-rendering:geometricPrecision; text-rendering:geometricPrecision; image-rendering:optimizeQuality; fill-rule:evenodd; clip-rule:evenodd"
viewBox="0 0 174.35 220.4074"
 xmlns:xlink="http://www.w3.org/1999/xlink"
 xmlns:xodm="http://www.corel.com/coreldraw/odm/2003">
 <defs>
  <style type="text/css">
   <![CDATA[
    .fil1 {fill:#0078BA}
    .fil3 {fill:#1F1A17}
    .fil2 {fill:#DB341B}
    .fil0 {fill:white}
   ]]>
  </style>
 </defs>
 <g id="Layer_x0020_1">
  <metadata id="CorelCorpID_0Corel-Layer"/>
  <g id="_854798736">
   <path class="fil0" d="M87.1658 217.9155c22.0806,-8.5393 42.4365,-23.5503 57.5082,-41.1801 17.0815,-19.9808 27.4633,-45.8126 27.4633,-73.6154l0 -101.178 -169.9427 0 0 101.178c0,27.8023 10.382,53.6347 27.4632,73.6154 15.0722,17.6297 35.428,32.6408 57.5081,41.1801z"/>
   <path class="fil1" d="M172.1388 6.438l0 -4.4961 -46.2049 0 -123.7382 72.2374 0 28.94c0,0.8283 0.0083,1.656 0.0265,2.4812l23.8606 -13.9248c-3.5099,-0.7477 -6.6093,-1.7046 -8.733,-2.6338 8.4744,-1.7257 30.406,-19.0827 32.6409,-28.8715 4.4442,0.8385 6.6074,0.7047 9.7607,0.2077 -0.0589,-4.4423 2.4564,-8.6215 6.9663,-9.9401 -0.1532,-5.5287 4.6035,-10.0326 10.2319,-12.2914 5.9915,-2.4066 13.5168,-2.0496 16.6069,2.1019 2.8873,-1.7711 8.8386,-0.7602 11.7177,4.7423 -2.4826,0.5909 -3.1586,0.8955 -4.8026,1.6311 0.5313,0.2431 1.0964,0.4601 1.6897,0.654l69.9746 -40.8378 0.003 0z"/>
   <path class="fil2" d="M172.1388 51.0012l0 -11.9436 -46.6889 27.2632 1.1077 1.2061c3.1449,0.0265 9.7197,0.5396 14.9017,1.3865l30.6778 -17.9121 0.0016 0zm-141.3259 70.5816l0 0 -23.8088 13.9033c1.0183,3.3588 2.1902,6.6556 3.5072,9.8832l25.8026 -15.0656c0.3156,-1.1228 0.5061,-2.1879 0.5061,-3.0708 -2.4842,0.2951 -6.5551,1.3116 -8.5862,1.7424 0.7832,-1.309 1.9349,-4.4184 2.5792,-7.3925z"/>
   <path class="fil3" d="M172.1388 62.877l0 -11.8758 -30.6794 17.9115c0.0311,0.0043 0.0667,0.0091 0.0992,0.0176 3.5384,-0.2699 10.6821,-2.0684 14.0249,-2.9235 -2.4089,6.8971 -9.0439,12.3721 -14.7686,14.947 0.05,0.044 0.1003,0.0841 0.1496,0.1258l31.1726 -18.201 0.0016 -0.0016zm-135.8243 67.4266l0 0 -25.8026 15.0656c0.9959,3.1888 2.6422,6.3095 4.3205,9.3532l21.5399 -12.576c1.7827,-1.8038 3.4133,-3.75 4.336,-5.4534 -2.7391,0.0263 -4.7454,0.5638 -7.8639,0.8666 1.2736,-1.6192 2.7223,-4.597 3.4701,-7.256z"/>
   <path class="fil1" d="M169.3229 127.9877c1.8404,-8.0308 2.8143,-16.3579 2.8143,-24.8684l0.0016 -8.151 -27.7709 16.2052c-0.2843,6.9393 -0.8047,15.6812 -0.8457,18.6552 -7.4893,-1.6416 -11.4611,-5.9506 -14.3751,-9.7728l-11.4088 6.6574c1.8965,4.1732 9.1013,9.1189 12.9487,10.9641 -9.3669,0.0949 -17.212,2.3645 -29.0091,10.4182 -10.7513,7.3396 -18.865,16.3256 -23.6477,24.0114 0.4575,-4.1269 0.3077,-13.9826 -0.8625,-21.7184l-46.7177 27.2631c6.0789,6.9892 12.9877,13.551 20.5004,19.4433l118.3725 -69.1074z"/>
   <path class="fil3" d="M51.147 62.5877c-3.0016,9.3232 -21.7103,24.7567 -29.264,26.4006 7.5405,1.4788 15.9192,2.477 24.1665,1.5309 0.3882,1.4974 0.6875,3.2753 -0.2332,4.7118 -2.1243,-0.22 -8.9963,0.7225 -11.1205,1.9162 0.3403,3.5486 0.0542,9.0659 -0.6539,12.4414l-13.2138 -0.0312c-0.0578,-2.0569 -0.5566,-4.0662 -1.1684,-5.8286l-8.7047 -0.0024c-1.4316,4.4029 -1.5814,10.1201 0.0398,15.4726l8.5946 0.0132c0.6906,-1.6884 0.987,-4.5862 1.1947,-6.1909l10.1153 -0.0037c-1.0108,1.2262 -2.6903,2.6789 -4.2445,3.5763l6.9982 0.2718c0.0265,3.3883 -1.2107,7.3288 -2.304,9.1554 1.9344,-0.4105 5.7576,-1.3433 8.1241,-1.3433 0,2.8322 -1.397,9.1609 -3.122,10.4795 3.9257,-0.8842 6.1953,-0.6972 8.2611,0.0312 -1.9721,3.5224 -6.688,8.0603 -9.5828,10.1328 6.667,-0.512 26.9548,0.609 34.6779,4.065 0.5741,-3.8613 2.1104,-9.7721 5.0988,-13.3275 4.0946,2.9465 6.3197,22.3909 5.6085,28.8127 5.0768,-8.5999 30.3345,-29.6805 43.6139,-28.8005 -3.1845,-1.9391 -7.1064,-5.2155 -8.7106,-9.2462 -1.2485,-3.1339 -1.0952,-6.7247 1.8964,-10.4952 2.2336,-2.8142 6.2127,-4.0019 9.6555,-2.2661 3.8618,1.9475 5.9072,9.5647 14.5042,12.9092 0.044,-3.217 0.6632,-12.0893 0.8874,-18.9156 0.128,-3.8931 2.6033,-7.1496 7.8191,-5.5081 -2.2448,-4.2616 -4.6221,-13.3322 -5.1437,-17.1719 -2.8359,-0.9359 -4.8188,-2.7726 -7.4056,-4.9751 5.4522,-2.4522 11.2633,-6.3779 14.7494,-11.7537 -3.1833,0.8138 -9.1542,2.525 -12.4703,2.0142 -4.8969,-0.7544 -11.3588,-1.1691 -14.3733,-1.1944l-3.6634 -3.6921c4.9732,-2.8836 16.4362,-8.9924 24.9887,-21.2637 -11.2977,3.4867 -39.7894,7.6305 -50.665,2.6697 0.2104,-0.911 1.4799,-2.7652 5.8249,-3.119 -2.7245,-3.4068 -7.0024,-1.9543 -9.492,-1.2849 -5.7076,-7.6675 -23.7793,-1.8942 -23.4764,8.9754 -3.6135,1.3771 -5.7281,3.099 -6.9469,7.1736 2.6055,-1.4833 5.0399,-2.1112 7.3035,-1.885 0.6906,6.4227 -15.5136,6.3965 -18.1636,5.5425l0.0004 0.0031z"/>
   <polygon class="fil3" points="171.7986,104.3978 174.3327,104.3978 174.3327,1.267 171.7986,1.267 "/>
   <path class="fil3" d="M174.3314 104.3979c0,13.9103 -2.5757,27.1241 -7.2258,39.3991 -4.924,12.998 -12.1729,24.9345 -21.1473,35.5199 -7.6299,8.9992 -16.5089,17.0246 -26.2666,23.8972 -9.9068,6.9777 -20.7235,12.7714 -32.0648,17.1934l-0.9209 0c-11.3414,-4.422 -22.1582,-10.215 -32.065,-17.1928 -9.7583,-6.8726 -18.6367,-14.898 -26.2666,-23.8972 -8.975,-10.5853 -16.224,-22.5213 -21.1479,-35.5205 -4.6498,-12.275 -7.2265,-25.4888 -7.2265,-39.3991l2.5348 0c0,13.6044 2.5166,26.5194 7.0577,38.5083 4.8174,12.718 11.9178,24.4045 20.712,34.7777 7.488,8.8309 16.2054,16.7097 25.7912,23.4614 9.6067,6.766 20.0851,12.4 31.0701,16.7258 10.985,-4.3259 21.4641,-9.9598 31.0702,-16.7258 9.587,-6.7518 18.3042,-14.6305 25.7919,-23.4614 8.7947,-10.3738 15.8951,-22.0603 20.7128,-34.7782 4.5408,-11.9883 7.0566,-24.9027 7.0566,-38.5078l2.5342 0z"/>
   <polygon class="fil3" points="-0,104.3979 -0,0 174.35,0 174.35,2.5358 2.5534,2.5358 2.5534,104.3979 "/>
  </g>
 </g>
</svg>
