<?xml version="1.0" encoding="UTF-8"?>
<!DOCTYPE svg PUBLIC "-//W3C//DTD SVG 1.1//EN" "http://www.w3.org/Graphics/SVG/1.1/DTD/svg11.dtd">
<!-- Creator: CorelDRAW 2019 (64-Bit) -->
<svg xmlns="http://www.w3.org/2000/svg" xml:space="preserve" width="188.429mm" height="206.497mm" version="1.1" style="shape-rendering:geometricPrecision; text-rendering:geometricPrecision; image-rendering:optimizeQuality; fill-rule:evenodd; clip-rule:evenodd"
viewBox="0 0 188.141 206.1812"
 xmlns:xlink="http://www.w3.org/1999/xlink"
 xmlns:xodm="http://www.corel.com/coreldraw/odm/2003">
 <defs>
  <style type="text/css">
   <![CDATA[
    .fil1 {fill:#231F20}
    .fil3 {fill:#33B55B}
    .fil0 {fill:#A6A5A6}
    .fil2 {fill:white}
   ]]>
  </style>
 </defs>
 <g id="Layer_x0020_1">
  <metadata id="CorelCorpID_0Corel-Layer"/>
  <g id="_736463456">
   <path class="fil0" d="M126.5836 1.9753l1.7014 -1.9753c2.7942,4.0369 6.122,10.6052 10.3439,13.0886 3.8494,2.26 11.4259,4.52 27.5422,4.5587l2.5088 0.0126 9.9111 13.2228c-6.0616,10.4439 -11.7232,24.0172 -11.7232,36.4083 0,3.2773 0.5713,7.7865 2.2598,13.4859l10.3439 2.8791 -2.3329 4.7461 7.6234 3.4395 -3.8632 5.1534 7.2423 5.4868 -7.3278 5.5381c2.7807,7.3134 6.3329,18.7772 6.3329,28.1641 0,32.7814 -26.6114,44.5183 -77.2762,53.0978l3.5882 12.4424 -13.4976 -5.8365 -9.4345 10.2933 -4.1226 -10.5295 -16.019 4.8173 4.2956 -11.8072c-48.2786,-8.52 -73.6872,-20.4524 -73.6872,-52.4777 0,-9.3868 3.5657,-20.8507 6.3348,-28.1641l-7.3277 -5.5381 7.2386 -5.4868 -3.8496 -5.1534 7.6135 -3.4395 -2.323 -4.7461 10.3312 -2.8791c1.6913,-5.6995 2.2599,-10.2087 2.2599,-13.4859 0,-12.3911 -5.6753,-25.9644 -11.7207,-36.4083l9.9086 -13.2228 2.5212 -0.0126c8.6911,-0.0262 25.5924,-0.2613 31.3531,-7.9351 2.323,-3.1196 4.3101,-6.5204 6.533,-9.7121 9.6481,11.2386 17.732,18.762 33.5274,19.0007l1.3282 -0.0513c14.2294,-0.1487 22.7358,-6.3699 31.8622,-16.9741z"/>
   <path class="fil1" d="M94.7828 24.5254c13.548,-0.1496 24.5631,-5.8734 33.0705,-15.7702 3.699,5.3525 5.4509,14.378 38.2952,14.4547l6.4311 8.592c0,0 -10.7412,18.5141 -10.7412,36.0614 0,4.3712 0.8706,10.2546 3.3152,17.5698l7.1396 1.987 -1.9483 3.9738 6.6575 2.9917 -3.1061 4.1613 5.9347 4.4947 -5.103 3.862c2.7691,6.5799 7.3891,19.8046 7.3891,29.8402 0,29.2175 -23.3693,40.2578 -78.627,49.0859l2.1959 7.6477 -7.0151 -3.0286 -6.4096 6.9772 -2.8672 -7.3368 -10.8647 3.2782 2.9304 -8.0595c-52.9618,-8.7416 -75.4362,-19.919 -75.4362,-48.5642 0,-10.0356 4.62,-23.2603 7.3891,-29.8402l-5.1066 -3.862 5.9356 -4.4947 -3.1025 -4.1613 6.6564 -2.9917 -1.9517 -3.9738 7.1404 -1.987c2.4474,-7.3152 3.3151,-13.1986 3.3151,-17.5698 0,-17.5472 -10.7386,-36.0614 -10.7386,-36.0614l6.4313 -8.592c32.8444,-0.0767 34.5825,-9.1022 38.2952,-14.4547 8.5072,9.8968 19.5197,15.6207 33.0679,15.809l1.4273 -0.0387z"/>
   <polygon class="fil2" points="100.0371,164.0987 106.1087,161.3295 105.9087,145.8837 100.1606,142.6288 87.0225,150.7884 87.4586,156.4752 "/>
   <path class="fil2" d="M75.337 144.6915l0.4965 -15.3603 -3.2404 -1.8283c-3.9983,4.7813 -6.4088,10.9286 -6.4088,17.6328 0,0.5848 0.0127,1.1669 0.0514,1.74l6.5456 0.7687 2.5557 -2.953z"/>
   <polygon class="fil2" points="86.6503,126.1521 79.883,128.8095 79.4,143.5849 84.8265,147.4471 97.6023,139.5128 97.1059,131.8741 "/>
   <path class="fil2" d="M75.5243 165.7864l1.5896 -6.1446 -5.1912 -8.0712 -5.1147 -0.5975c1.2535,5.8365 4.3839,10.9882 8.7163,14.8133z"/>
   <path class="fil2" d="M121.6186 145.1357c0,-1.0173 -0.0505,-2.0212 -0.1623,-3.0034l-5.9859 -0.7344 -5.5373 4.2001 0.2 15.6928 4.5299 2.1113c4.3362,-4.8659 6.9556,-11.2628 6.9556,-18.2663z"/>
   <path class="fil2" d="M108.4805 121.679c-4.2342,-2.6069 -9.2255,-4.1099 -14.5781,-4.1099 -0.7442,0 -1.4912,0.0261 -2.2095,0.0892l-1.7905 5.7122 10.2337 5.6102 7.089 0 1.2553 -7.3016z"/>
   <path class="fil2" d="M120.7003 138.0477c-1.4525,-5.4012 -4.4946,-10.16 -8.6055,-13.7113l-1.0679 6.26 4.5425 6.8061 5.1308 0.6452z"/>
   <path class="fil2" d="M97.9393 172.4176l0.2479 -4.7425 -12.9633 -7.872 -4.2125 0.8173 -1.9861 7.7892c4.2972,2.7303 9.3994,4.3072 14.8771,4.3072 1.3795,0 2.7204,-0.0981 4.0369,-0.2991z"/>
   <path class="fil2" d="M51.7082 48.4155c0.9318,0 1.6878,-0.7443 1.6878,-1.6751 0,-0.9191 -0.756,-1.6751 -1.6878,-1.6751 -0.9309,0 -1.6788,0.756 -1.6788,1.6751 0,0.9309 0.748,1.6751 1.6788,1.6751z"/>
   <path class="fil2" d="M48.0306 37.687c-0.9317,0 -1.6877,0.7462 -1.6877,1.6769 0,0.8822 0.6832,1.5896 1.5382,1.6635 0.2857,-0.9182 0.9318,-1.676 1.777,-2.0978 -0.1875,-0.7091 -0.8452,-1.2426 -1.6275,-1.2426z"/>
   <path class="fil2" d="M80.4165 49.076c0,0.9192 0.7443,1.6626 1.6751,1.6626 0.9326,0 1.6887,-0.7434 1.6887,-1.6626 0,-0.9317 -0.7561,-1.6778 -1.6887,-1.6778 -0.9309,0 -1.6751,0.7462 -1.6751,1.6778z"/>
   <path class="fil2" d="M44.53 73.3375l10.5671 0c-0.073,-3.6999 -0.919,-12.4424 -5.4651,-12.4424 -4.4056,0 -5.029,7.6008 -5.102,12.4424z"/>
   <path class="fil2" d="M81.25 41.3383c-0.9318,0 -1.6913,0.7578 -1.6913,1.6751 0,0.9318 0.7595,1.6787 1.6913,1.6787 0.9318,0 1.6878,-0.747 1.6878,-1.6787 0,-0.9173 -0.756,-1.6751 -1.6878,-1.6751z"/>
   <path class="fil2" d="M44.8904 42.1331c0,-0.9192 -0.7578,-1.6751 -1.6896,-1.6751 -0.931,0 -1.6869,0.7559 -1.6869,1.6751 0,0.9318 0.7559,1.6751 1.6869,1.6751 0.9318,0 1.6896,-0.7434 1.6896,-1.6751z"/>
   <path class="fil2" d="M55.1098 74.3323l-10.5925 0c0,0.7065 0,1.3166 0,1.7986 0,2.3132 0.0857,3.7396 0.1757,4.5849l10.4167 0 0 -6.3835z"/>
   <path class="fil2" d="M40.6678 48.193c0,0.9173 0.7568,1.6778 1.6878,1.6778 0.9327,0 1.6786,-0.7605 1.6786,-1.6778 0,-0.9309 -0.746,-1.6887 -1.6786,-1.6887 -0.931,0 -1.6878,0.7578 -1.6878,1.6887z"/>
   <path class="fil2" d="M47.3378 51.682c0.9191,0 1.6878,-0.756 1.6878,-1.6769 0,-0.9291 -0.7687,-1.6896 -1.6878,-1.6896 -0.9317,0 -1.6913,0.7605 -1.6913,1.6896 0,0.9209 0.7596,1.6769 1.6913,1.6769z"/>
   <path class="fil2" d="M45.6113 47.0261c0.4954,-0.2991 1.0902,-0.4614 1.7265,-0.4614 0.3073,0 0.619,0.0387 0.9191,0.1271 0.0117,-0.7723 0.2849,-1.4905 0.7308,-2.0626 -0.5721,-0.4578 -0.9795,-1.1165 -1.1542,-1.85 -0.4227,-0.0262 -0.8326,-0.1244 -1.2049,-0.2857 -0.1369,1.3408 -1.056,2.46 -2.286,2.879 0.572,0.4101 1.0208,0.9822 1.2688,1.6536z"/>
   <path class="fil2" d="M51.1972 43.6721c0.9309,0 1.6905,-0.7443 1.6905,-1.6751 0,-0.9318 -0.7596,-1.6751 -1.6905,-1.6751 -0.9318,0 -1.6896,0.7434 -1.6896,1.6751 0,0.9309 0.7578,1.6751 1.6896,1.6751z"/>
   <path class="fil2" d="M77.8205 43.3766c-0.3731,0.1586 -0.7823,0.2604 -1.2147,0.283 -0.1623,0.7471 -0.5849,1.3796 -1.1444,1.85 0.4478,0.5722 0.7208,1.2813 0.7345,2.0626 0.2857,-0.0856 0.6073,-0.1225 0.9181,-0.1225 0.6326,0 1.23,0.1613 1.7275,0.4568 0.2469,-0.6704 0.6948,-1.239 1.2769,-1.649 -1.2426,-0.4236 -2.1618,-1.5427 -2.2978,-2.8809z"/>
   <path class="fil2" d="M69.5637 80.7158l11.4006 0 0.0351 -4.4948c0,-0.4991 0.0119,-1.1434 0,-1.8887l-11.2853 0 -0.1505 6.3835z"/>
   <path class="fil2" d="M62.2241 53.9177c-4.2821,0 -5.413,7.9982 -5.5374,11.399l-0.0729 2.5816c0.3461,1.9995 0.4831,3.9513 0.4947,5.4391l10.606 0c0.0252,-0.9191 0.0856,-1.9482 0.2352,-3.0287 -0.2487,-4.9308 -1.3895,-16.3911 -5.7256,-16.3911z"/>
   <polygon class="fil2" points="67.701,74.3323 57.1219,74.3323 57.1219,80.7158 67.5523,80.7158 "/>
   <path class="fil2" d="M61.5409 22.0555c-7.7342,8.4685 -23.2565,9.5238 -34.5194,9.9311 0,0 8.3315,19.3468 8.3315,34.7953 0,4.8804 -0.6965,9.4878 -1.8111,13.9339l9.139 0c-0.0893,-0.957 -0.1749,-2.4222 -0.1749,-4.5849 0,-5.0146 -0.2487,-17.2346 7.126,-17.2346 0.2875,0 0.548,0.0262 0.8084,0.0505l-0.5821 -1.2553 -5.1435 -0.8804 0.137 -1.9014 4.8316 -0.346 -0.3974 -1.7391c-0.5586,0.3838 -1.229,0.6101 -1.9481,0.6101 -1.504,0 -2.7692,-0.9444 -3.2547,-2.2726 -0.5093,0.2857 -1.094,0.4569 -1.7275,0.4569 -1.8968,0 -3.4522,-1.5382 -3.4522,-3.4261 0,-1.5012 0.9696,-2.7817 2.3104,-3.2394 -0.8794,-0.6362 -1.4651,-1.6527 -1.4651,-2.8205 0,-1.8869 1.5525,-3.4261 3.4521,-3.4261 0.4974,0 0.9705,0.0982 1.3904,0.2857 0.1865,-1.7256 1.6526,-3.0664 3.4394,-3.0664 1.6402,0 3.007,1.1273 3.3666,2.6429 1.8111,0.1 3.252,1.6031 3.252,3.4278 0,0.7948 -0.2738,1.5256 -0.7316,2.1104 0.756,0.6326 1.2434,1.577 1.2434,2.6331 0,1.6138 -1.1074,2.9692 -2.6104,3.3404l2.3238 2.9313 1.4147 -3.3918 1.8626 0.2605 -0.546 5.2795c1.0677,-1.4652 2.5591,-3.2421 4.6181,-3.2421 2.0248,0 3.5043,1.9995 4.5966,3.9225l-0.5235 -5.0759 1.8625 -0.2604 1.43 3.3881 2.3212 -2.9439c-1.504,-0.3712 -2.6205,-1.7139 -2.6205,-3.3278 0,-1.0561 0.483,-2.0094 1.2426,-2.6321 -0.4603,-0.5821 -0.7335,-1.3166 -0.7335,-2.1114 0,-1.8238 1.441,-3.3278 3.2647,-3.426 0.3497,-1.5139 1.7131,-2.6456 3.354,-2.6456 1.7896,0 3.2521,1.3417 3.4396,3.0673 0.4225,-0.1874 0.8928,-0.2856 1.3921,-0.2856 1.9113,0 3.4521,1.5408 3.4521,3.426 0,1.1669 -0.5847,2.2005 -1.4651,2.8079 1.3382,0.4704 2.3087,1.7508 2.3087,3.2547 0,1.8851 -1.5392,3.427 -3.454,3.427 -0.6316,0 -1.2165,-0.1748 -1.7257,-0.4605 -0.4712,1.3166 -1.7508,2.2726 -3.2521,2.2726 -0.7218,0 -1.3921,-0.2226 -1.949,-0.6074l-0.3975 1.7355 4.83 0.3506 0.1361 1.8977 -5.1408 0.884 -0.5334 1.166c0.6073,-0.21 1.2777,-0.3244 2.0129,-0.3244 7.1396,0 6.9386,11.9333 6.9386,16.8038l-0.0127 4.4948 5.5762 0c0,0 0,-36.8174 0,-47.7344 -10.106,-0.8804 -19.1846,-3.9738 -27.0333,-10.9259z"/>
   <path class="fil2" d="M80.9897 73.3375c-0.0901,-4.6912 -0.7471,-11.9082 -4.9175,-11.9082 -5.0416,0 -6.2599,7.973 -6.3455,11.9082l11.2629 0z"/>
   <path class="fil2" d="M75.4362 50.8756c0,0.9309 0.7596,1.6751 1.6777,1.6751 0.9327,0 1.6887,-0.7443 1.6887,-1.6751 0,-0.9191 -0.756,-1.6751 -1.6887,-1.6751 -0.9181,0 -1.6777,0.756 -1.6777,1.6751z"/>
   <path class="fil2" d="M76.4183 38.5574c-0.7822,0 -1.4409,0.5335 -1.6274,1.2426 0.8452,0.42 1.503,1.1796 1.7636,2.0987 0.8686,-0.063 1.5515,-0.7821 1.5515,-1.6661 0,-0.9317 -0.7568,-1.6751 -1.6877,-1.6751z"/>
   <path class="fil2" d="M71.0549 47.6208c0,0.9309 0.756,1.6779 1.6877,1.6779 0.9328,0 1.6761,-0.7471 1.6761,-1.6779 0,-0.929 -0.7434,-1.6751 -1.6761,-1.6751 -0.9317,0 -1.6877,0.7462 -1.6877,1.6751z"/>
   <path class="fil2" d="M73.2517 41.2022c-0.9317,0 -1.6877,0.7435 -1.6877,1.6751 0,0.5479 0.273,1.0426 0.6832,1.3426l0.4954 -0.0261c0.4237,0 0.8336,0.0766 1.2058,0.2127 0.5813,-0.2605 0.9913,-0.8453 0.9913,-1.5293 0,-0.9317 -0.757,-1.6751 -1.6879,-1.6751z"/>
   <path class="fil3" d="M156.1516 81.0626c-1.1794,-4.546 -1.9013,-9.276 -1.9013,-14.2924 0,-15.4369 8.3344,-34.7836 8.3344,-34.7836 -5.0065,-0.1847 -10.8549,-0.4965 -16.4795,-1.5256l0 50.6016 10.0463 0z"/>
   <path class="fil3" d="M174.6524 136.4076c0,-7.8107 -2.1105,-15.0485 -4.9779,-22.1645l-17.9798 0 0 51.5433c13.3743,-5.5508 22.9576,-13.9933 22.9576,-29.3788z"/>
   <path class="fil3" d="M157.9882 87.0739l-126.3738 0c-2.543,7.3233 -6.0076,14.2537 -9.1273,21.1723l144.6276 0c-3.1151,-6.9186 -6.5799,-13.849 -9.1264,-21.1723z"/>
   <path class="fil3" d="M19.9199 114.2656c-2.8711,7.1052 -4.9688,14.3438 -4.9688,22.142 0,14.3565 8.3306,22.6502 20.3028,28.2128l0 -50.3548 -15.334 0z"/>
   <path class="fil3" d="M133.1556 81.0626l0 -54.9855c-1.9131,-1.1066 -3.6397,-2.4448 -5.0922,-4.0216 -1.5652,1.3769 -3.1791,2.5933 -4.8418,3.6999l0 55.3072 9.934 0z"/>
   <path class="fil3" d="M110.7405 81.0626l0 -49.7438c-3.1791,0.8552 -6.4943,1.3896 -9.9221,1.6878l0 48.056 9.9221 0z"/>
   <path class="fil3" d="M60.5237 114.2431l0 58.3493c6.743,1.5769 13.621,3.0034 20.2145,4.6073l1.1922 -5.0678c-10.4167,-4.5812 -17.6942,-14.9385 -17.6942,-26.9963 0,-16.2919 13.2886,-29.5031 29.6662,-29.5031 16.3775,0 29.6654,13.2112 29.6654,29.5031 0,12.8904 -8.3326,23.856 -19.9191,27.8667l1.5409 5.1147c6.7809,-1.7607 13.9807,-3.2647 21.0994,-4.8912l0 -58.9828 -65.7653 0z"/>
   <path class="fil2" d="M48.739 90.9234l-3.1276 0 0 9.1877 -1.1697 0c-0.6073,0 -2.3087,0 -2.3087,-2.2474 0,-2.4961 1.5653,-5.4148 2.2474,-6.9404l-3.3656 0c-1.1029,2.1843 -2.0725,4.4947 -2.0725,6.9908 0,2.7313 1.2426,4.8668 4.7299,4.8668l5.0669 0 0 -11.8576zm1.7896 9.1877l0 0 2.6332 0 0 2.6699 -2.6332 0 0 -2.6699zm10.4556 -9.1877l0 0 -3.3665 0c-2.606,0 -3.2033,1.6751 -3.2033,2.743 0,1.1669 0.7217,2.0121 1.4516,2.842l2.1248 2.3843c0.2126,0.2262 0.5081,0.4992 0.5081,0.8209 0,0.4731 -0.8425,0.3974 -1.1542,0.3974l-2.8322 0 0.7218 2.6699 3.6395 0c2.6195,0 3.2134,-1.6877 3.2134,-2.7438 0,-1.1796 -0.73,-2.0122 -1.4777,-2.8322l-2.1718 -2.3979c-0.2245,-0.2342 -0.5209,-0.4946 -0.5209,-0.8317 0,-0.4577 0.8553,-0.3847 1.166,-0.3847l2.6205 0 -0.7191 -2.6673zm2.0988 9.1877l0 0 2.6195 0 0 2.6699 -2.6195 0 0 -2.6699zm15.545 -9.1877l0 0 -3.3505 0c-2.6231,0 -3.2178,1.6751 -3.2178,2.743 0,1.1669 0.7318,2.0121 1.4653,2.842l2.1112 2.3843c0.2227,0.2262 0.5091,0.4992 0.5091,0.8209 0,0.4731 -0.8434,0.3974 -1.1552,0.3974l-2.8186 0 0.7219 2.6699 3.6359 0c2.6096,0 3.217,-1.6877 3.217,-2.7438 0,-1.1796 -0.7336,-2.0122 -1.4779,-2.8322l-2.1716 -2.3979c-0.2245,-0.2342 -0.5119,-0.4946 -0.5119,-0.8317 0,-0.4577 0.8461,-0.3847 1.1453,-0.3847l2.6312 0 -0.7334 -2.6673zm11.3259 3.5252l0 0 -3.1187 0 0 1.9013 -3.1151 0c0.3975,-1.0209 0.9696,-2.7592 4.3074,-2.7592l2.4475 0 -0.721 -2.6673 -1.5391 0c-2.2474,0 -4.1828,0.2731 -5.8481,1.9482 -1.4913,1.4787 -2.1499,3.6242 -2.1499,5.6869 0,2.087 0.7091,4.1712 1.8509,5.8977l2.5465 -1.6751c-0.6841,-1.1291 -1.1797,-2.423 -1.1922,-3.7638l3.4133 0 0 3.7638 3.1187 0 0 -8.3324zm7.9342 -3.5252l0 0 -3.3539 0c-2.6059,0 -3.2134,1.6751 -3.2134,2.743 0,1.1669 0.7308,2.0121 1.4654,2.842l2.121 2.3843c0.2118,0.2262 0.511,0.4992 0.511,0.8209 0,0.4731 -0.8579,0.3974 -1.1571,0.3974l-2.8285 0 0.7173 2.6699 3.6394 0c2.6078,0 3.2179,-1.6877 3.2179,-2.7438 0,-1.1796 -0.7334,-2.0122 -1.4777,-2.8322l-2.1745 -2.3979c-0.2226,-0.2342 -0.509,-0.4946 -0.509,-0.8317 0,-0.4577 0.8461,-0.3847 1.1533,-0.3847l2.6206 0 -0.7318 -2.6673zm8.1838 0l0 0 -3.3646 0c-2.6097,0 -3.217,1.6751 -3.217,2.743 0,1.1669 0.7317,2.0121 1.4653,2.842l2.1112 2.3843c0.2235,0.2262 0.521,0.4992 0.521,0.8209 0,0.4731 -0.858,0.3974 -1.1534,0.3974l-2.8323 0 0.7219 2.6699 3.6368 0c2.6059,0 3.2161,-1.6877 3.2161,-2.7438 0,-1.1796 -0.7336,-2.0122 -1.4779,-2.8322l-2.1744 -2.3979c-0.2217,-0.2342 -0.5091,-0.4946 -0.5091,-0.8317 0,-0.4577 0.8461,-0.3847 1.1453,-0.3847l2.6322 0 -0.721 -2.6673zm11.3855 0l0 0 -3.1151 0 0 9.1877 -1.1795 0c-0.61,0 -2.2978,0 -2.2978,-2.2474 0,-2.4961 1.5643,-5.4148 2.2473,-6.9404l-3.3664 0c-1.1165,2.1843 -2.0851,4.4947 -2.0851,6.9908 0,2.7313 1.2416,4.8668 4.7299,4.8668l5.0668 0 0 -11.8576zm6.7549 12.1181l0 0c3.6756,0 5.4408,-4.52 5.4408,-7.6613 0,-2.5718 -1.2408,-4.7182 -5.4408,-4.7182 -4.1831,0 -5.4247,2.1464 -5.4247,4.7182 0,3.1413 1.7507,7.6613 5.4247,7.6613zm0 -2.7934l0 0c-1.1787,0 -2.1708,-2.57 -2.1708,-4.7318 0,-1.5752 0.6461,-2.0852 2.1708,-2.0852 1.5425,0 2.1744,0.51 2.1744,2.0852 0,2.1618 -0.9949,4.7318 -2.1744,4.7318zm9.9851 -9.3247l0 0 -3.1179 0 0 11.8576 6.4944 0 0.7218 -2.6699 -4.0982 0 0 -9.1877zm9.5751 12.1181l0 0c3.6748,0 5.4265,-4.52 5.4265,-7.6613 0,-2.5718 -1.2426,-4.7182 -5.4265,-4.7182 -4.1991,0 -5.4265,2.1464 -5.4265,4.7182 0,3.1413 1.7364,7.6613 5.4265,7.6613zm0 -2.7934l0 0c-1.1823,0 -2.1744,-2.57 -2.1744,-4.7318 0,-1.5752 0.6461,-2.0852 2.1744,-2.0852 1.5266,0 2.1716,0.51 2.1716,2.0852 0,2.1618 -0.9921,4.7318 -2.1716,4.7318z"/>
  </g>
 </g>
</svg>
