<?xml version="1.0" encoding="UTF-8" standalone="no"?>
<svg
   clip-rule="evenodd"
   fill-rule="evenodd"
   stroke-linejoin="round"
   stroke-miterlimit="2"
   viewBox="0 0 300 299.996"
   version="1.1"
   id="svg63"
   sodipodi:docname="Sheffield-United.svg"
   width="300"
   height="299.996"
   xmlns:inkscape="http://www.inkscape.org/namespaces/inkscape"
   xmlns:sodipodi="http://sodipodi.sourceforge.net/DTD/sodipodi-0.dtd"
   xmlns="http://www.w3.org/2000/svg"
   xmlns:svg="http://www.w3.org/2000/svg">
  <defs
     id="defs63" />
  <sodipodi:namedview
     id="namedview63"
     pagecolor="#ffffff"
     bordercolor="#000000"
     borderopacity="0.25"
     inkscape:showpageshadow="2"
     inkscape:pageopacity="0.0"
     inkscape:pagecheckerboard="0"
     inkscape:deskcolor="#d1d1d1" />
  <path
     d="M 300,149.998 C 300,232.839 232.84,299.996 150,299.996 67.157,299.996 0,232.838 0,149.998 0,67.157 67.157,0 150,0 232.84,0 300,67.157 300,149.998 Z"
     fill="#ffffff"
     fill-rule="nonzero"
     id="path1" />
  <path
     d="M 292.488,149.998 C 292.488,228.687 228.695,292.487 150,292.487 71.306,292.487 7.51,228.687 7.51,149.998 7.51,71.306 71.305,7.509 150,7.509 c 78.694,0 142.488,63.796 142.488,142.489 z"
     fill="#ec2227"
     fill-rule="nonzero"
     id="path2" />
  <path
     d="M 251.876,149.998 C 251.876,206.265 206.264,251.873 150,251.873 93.735,251.873 48.123,206.265 48.123,149.998 48.123,93.732 93.735,48.121 150,48.121 206.264,48.12 251.876,93.732 251.876,149.998 Z"
     fill="#ffffff"
     fill-rule="nonzero"
     id="path3" />
  <circle
     cx="150"
     cy="149.998"
     fill="#010101"
     r="94.586998"
     id="circle3" />
  <g
     fill-rule="nonzero"
     id="g26"
     transform="translate(-130,-50.002)">
    <path
       d="m 275.714,159.177 c -1.524,2.186 -5.758,9.122 -8.526,12.858 1.513,5.903 6.077,1.685 12.45,1.413 6.045,-0.26 8.759,4.737 12.588,-1.629 -2.505,-4.168 -6.95,-10.912 -8.445,-12.872 -1.165,0.829 -2.589,1.328 -4.128,1.343 -1.445,0.02 -2.79,-0.402 -3.939,-1.113"
       fill="#ffffff"
       id="path4" />
    <path
       d="m 279.055,145.689 0.003,-0.004 c 0,0 -0.378,-11.058 -0.396,-16.62 -4.749,-3.811 -6.384,2.664 -11.32,6.699 -4.686,3.822 -10.35,1.823 -9.604,9.207 4.648,1.9 13.131,4.361 15.203,4.949 1.08,-2.363 3.377,-4.034 6.114,-4.231"
       fill="#ffffff"
       id="path5" />
    <path
       d="m 272.515,151.115 c -1.632,-0.514 -10.49,-3.249 -15.595,-4.241 -4.672,5.77 1.171,7.192 2.986,12.97 1.923,6.077 -0.257,12.395 5.798,11.794 2.633,-3.979 7.703,-11.201 9.083,-13.161 -1.519,-1.324 -2.514,-3.246 -2.541,-5.425 -0.005,-0.674 0.105,-1.315 0.269,-1.937"
       fill="#ffffff"
       id="path6" />
    <path
       d="m 280.127,145.689 c 2.738,0.197 5.034,1.868 6.114,4.232 2.07,-0.589 10.552,-3.05 15.204,-4.95 0.745,-7.383 -4.92,-5.385 -9.605,-9.206 -4.938,-4.036 -6.574,-10.51 -11.32,-6.699 -0.016,5.562 -0.398,16.619 -0.398,16.619 z"
       fill="#ffffff"
       id="path7" />
    <path
       d="m 286.663,151.115 c 0.165,0.622 0.277,1.263 0.273,1.937 -0.031,2.179 -0.884,4.001 -2.405,5.327 1.38,1.958 6.314,8.656 8.947,12.636 6.054,0.599 3.873,-5.095 5.799,-11.172 1.812,-5.778 7.657,-7.2 2.985,-12.969 -5.11,0.992 -13.963,3.727 -15.599,4.241"
       fill="#ffffff"
       id="path8" />
    <path
       d="m 254.092,146.909 c -0.07,0.058 -1.096,3.135 -0.487,6.224 0.342,1.758 3.431,2.967 4.598,6.159 1.757,4.816 -0.723,13.761 5.821,13.501 -12.682,8.896 -23.281,-22.135 -9.932,-25.884"
       fill="#ffffff"
       id="path9" />
    <path
       d="m 304.413,146.296 c 13.684,2.007 4.372,26.796 -1.302,28.036 -2.238,0.727 -5.14,-0.063 -6.855,-0.798 5.448,-1.794 3.355,-6.558 4.922,-13.633 0.91,-4.09 4.89,-5.063 4.982,-8.54 0.19,-2.48 -1.646,-2.892 -1.747,-5.065"
       fill="#ffffff"
       id="path10" />
    <path
       d="m 265.738,174.469 c 3.046,5.807 7.11,1.257 15.287,1.511 5.473,0.17 10.677,2.906 12.983,-1.293 4.037,13.444 -31.204,15.639 -28.27,-0.218"
       fill="#ffffff"
       id="path11" />
    <path
       d="m 277.926,126.96 c -5.943,-2.783 -6.419,3.295 -13.088,8.042 -4.457,3.173 -10.265,4.141 -9.563,8.879 -11.344,-8.268 15.397,-31.328 22.651,-16.921"
       fill="#ffffff"
       id="path12" />
    <path
       d="m 281.141,126.96 c 5.943,-2.783 6.419,3.295 13.087,8.042 4.458,3.173 10.263,4.141 9.562,8.879 11.344,-8.268 -15.394,-31.328 -22.649,-16.921"
       fill="#ffffff"
       id="path13" />
    <path
       d="m 282.643,121.467 c 0,0 -3.165,2.235 -3.082,4.713 -0.127,-2.609 -3.208,-4.638 -3.208,-4.638 0,0 3.209,-2.248 3.091,-4.708 0.237,3.341 3.199,4.633 3.199,4.633"
       fill="#ffffff"
       id="path14" />
    <path
       d="m 310.683,146.534 c 0,0 -3.23,-1.985 -5.505,-1.781 2.768,-0.808 4.061,-4.126 4.061,-4.126 0,0 2.077,2.173 5.514,1.779 -2.155,0.496 -4.07,4.128 -4.07,4.128"
       fill="#ffffff"
       id="path15" />
    <path
       d="m 296.216,180.952 c 0,0 0.978,-3.315 -0.278,-5.823 1.59,2.084 5.562,1.758 5.562,1.758 0,0 -1.309,3.799 0.28,5.831 -1.586,-1.987 -5.564,-1.766 -5.564,-1.766"
       fill="#ffffff"
       id="path16" />
    <path
       d="m 258.695,176.241 c 0,0 3.322,1.171 5.576,-1.438 -1.467,2.391 -0.219,5.753 -0.219,5.753 0,0 -3.417,-0.451 -5.583,1.44 1.701,-2.83 0.226,-5.755 0.226,-5.755"
       fill="#ffffff"
       id="path17" />
    <path
       d="m 250.142,141.105 c -0.028,2.36 3.308,4.183 3.308,4.183 0,0 -2.609,-0.594 -4.879,2.153 -0.652,-2.877 -3.326,-4.192 -3.326,-4.192 0,0 3.926,-0.028 4.897,-2.144"
       fill="#ffffff"
       id="path18" />
    <path
       d="m 285.866,152.916 c 0.041,3.45 -2.73,6.286 -6.195,6.324 -3.465,0.045 -6.308,-2.718 -6.346,-6.171 -0.041,-3.446 2.729,-6.277 6.188,-6.324 3.467,-0.039 6.31,2.725 6.353,6.171"
       fill="#ffffff"
       id="path19" />
    <path
       d="m 279.602,156.568 c -0.347,0.501 -0.882,0.799 -1.478,0.799 -1.42,-0.02 -2.817,-1.381 -2.866,-2.804 -0.012,-0.597 0.274,-1.134 0.763,-1.497 -0.499,-0.343 -0.797,-0.875 -0.797,-1.47 0.014,-1.424 1.374,-2.822 2.796,-2.873 0.597,-0.008 1.138,0.269 1.497,0.758 0.348,-0.498 0.876,-0.791 1.476,-0.796 1.424,0.021 2.819,1.382 2.868,2.803 0.017,0.601 -0.267,1.137 -0.76,1.492 0.501,0.352 0.794,0.883 0.798,1.484 -0.016,1.415 -1.377,2.811 -2.801,2.866 h -0.012 c -0.596,0.006 -1.129,-0.272 -1.484,-0.762"
       fill="#010101"
       id="path20" />
    <path
       d="m 278.043,149.968 c -0.734,0.026 -1.569,0.884 -1.576,1.638 0,0.211 0.142,0.354 0.259,0.436 l 1.435,0.988 -1.401,1.037 c -0.12,0.088 -0.262,0.242 -0.257,0.47 0.026,0.735 0.878,1.57 1.629,1.585 0.221,-0.003 0.364,-0.142 0.443,-0.257 l 0.996,-1.454 1.036,1.424 c 0.12,0.167 0.275,0.25 0.455,0.25 0.745,-0.028 1.584,-0.884 1.59,-1.633 0,-0.172 -0.089,-0.33 -0.263,-0.451 l -1.435,-1 1.415,-1.028 c 0.169,-0.122 0.254,-0.274 0.249,-0.451 -0.026,-0.744 -0.885,-1.581 -1.64,-1.59 -0.162,0 -0.318,0.089 -0.44,0.263 l -0.998,1.422 -1.025,-1.398 c -0.086,-0.115 -0.237,-0.251 -0.472,-0.251 z"
       fill="#ffffff"
       id="path21" />
    <path
       d="m 281.816,151.297 c -0.135,-0.058 -0.293,-0.097 -0.479,-0.096 -0.014,-0.444 -0.248,-0.753 -0.4,-0.907 -0.374,-0.358 -0.903,-0.499 -1.417,-0.501 -0.513,0.01 -1.039,0.166 -1.404,0.539 -0.154,0.15 -0.37,0.466 -0.379,0.912 -0.18,0.007 -0.343,0.046 -0.479,0.106 -0.619,0.278 -0.939,0.964 -0.928,1.713 0.007,0.75 0.348,1.432 0.974,1.693 0.134,0.058 0.289,0.091 0.473,0.092 0.021,0.451 0.248,0.752 0.407,0.913 0.374,0.355 0.906,0.501 1.415,0.494 0.513,-0.007 1.035,-0.161 1.405,-0.531 0.152,-0.163 0.375,-0.471 0.382,-0.918 0.182,-0.005 0.339,-0.05 0.475,-0.104 0.619,-0.279 0.942,-0.97 0.932,-1.719 -0.01,-0.751 -0.344,-1.433 -0.977,-1.686"
       fill="#010101"
       id="path22" />
    <path
       d="m 281.383,153.586 -0.045,0.005 c -0.088,0.01 -0.292,-0.069 -0.535,-0.248 0.029,-0.115 0.048,-0.226 0.048,-0.348 -0.004,-0.112 -0.026,-0.221 -0.048,-0.321 0.237,-0.182 0.432,-0.268 0.515,-0.253 l 0.051,0.001 c 0.038,0 0.218,0.221 0.21,0.578 0.015,0.355 -0.163,0.581 -0.196,0.586"
       fill="#ffffff"
       id="path23" />
    <path
       d="m 280.131,154.877 c -0.065,0.074 -0.301,0.168 -0.549,0.168 -0.244,0.007 -0.486,-0.082 -0.549,-0.156 l -0.038,-0.095 c -0.021,-0.108 0.116,-0.346 0.27,-0.555 0.109,0.027 0.212,0.048 0.33,0.044 0.104,-10e-4 0.198,-0.02 0.298,-0.043 0.151,0.207 0.296,0.433 0.277,0.54 z"
       fill="#ffffff"
       id="path24" />
    <path
       d="m 277.794,153.637 -0.039,-0.008 c -0.043,0 -0.215,-0.223 -0.209,-0.582 -0.016,-0.349 0.154,-0.581 0.189,-0.581 l 0.046,-0.004 0.022,-0.007 c 0.088,0.004 0.29,0.09 0.54,0.266 -0.026,0.098 -0.042,0.197 -0.042,0.304 0,0.114 0.023,0.223 0.054,0.325 -0.254,0.207 -0.468,0.292 -0.561,0.287"
       fill="#ffffff"
       id="path25" />
    <path
       d="m 278.98,151.179 c 0.077,-0.082 0.31,-0.171 0.556,-0.171 0.248,-0.002 0.481,0.078 0.552,0.158 l 0.04,0.09 c 0.018,0.1 -0.104,0.316 -0.247,0.515 -0.104,-0.018 -0.213,-0.039 -0.32,-0.037 -0.126,0.001 -0.238,0.027 -0.342,0.055 -0.156,-0.194 -0.283,-0.415 -0.268,-0.518 z"
       fill="#ffffff"
       id="path26" />
  </g>
  <circle
     cx="149.556"
     cy="103.026"
     fill="#ffffff"
     r="0.41100001"
     id="circle26" />
  <g
     fill-rule="nonzero"
     id="g63"
     transform="translate(-130,-50.002)">
    <path
       d="m 258.805,265.343 c 1.24,2.295 1.039,4.741 -1.118,5.639 -2.155,0.903 -5.707,-0.085 -7.199,-2.38 -6.063,-9.167 -2.696,-20.106 -7.838,-29.269 -1.233,-2.293 -1.033,-4.733 1.13,-5.633 2.146,-0.897 5.708,0.088 7.193,2.383 6.06,9.161 2.697,20.101 7.832,29.26"
       fill="#ffffff"
       id="path27" />
    <path
       d="m 317.111,239.338 c 1.23,-2.298 1.029,-4.738 -1.128,-5.643 -2.147,-0.897 -5.698,0.093 -7.198,2.384 -6.054,9.176 -2.69,20.109 -7.831,29.272 -1.225,2.287 -1.041,4.733 1.124,5.631 2.148,0.903 5.713,-0.092 7.199,-2.381 6.063,-9.161 2.697,-20.097 7.834,-29.263"
       fill="#ffffff"
       id="path28" />
    <path
       d="m 224.099,251.207 c 1.245,0.376 1.948,1.694 1.573,2.939 l -1.981,6.58 c -0.365,1.246 -1.686,1.95 -2.926,1.577 -1.247,-0.373 -1.953,-1.685 -1.581,-2.933 l 1.976,-6.582 c 0.377,-1.243 1.686,-1.955 2.939,-1.581"
       fill="#fcee23"
       id="path29" />
    <path
       d="m 230.373,251.014 c 1.256,0.376 1.959,1.689 1.583,2.927 l -1.981,6.587 c -0.376,1.249 -1.683,1.954 -2.928,1.582 -1.247,-0.376 -1.955,-1.689 -1.586,-2.941 l 1.983,-6.578 c 0.372,-1.244 1.685,-1.951 2.929,-1.577"
       fill="#fcee23"
       id="path30" />
    <path
       d="m 236.954,250.328 c 1.239,0.376 1.948,1.689 1.573,2.937 l -1.971,6.576 c -0.381,1.245 -1.691,1.954 -2.937,1.574 -1.245,-0.368 -1.954,-1.685 -1.575,-2.93 l 1.972,-6.581 c 0.381,-1.246 1.69,-1.954 2.938,-1.576"
       fill="#fcee23"
       id="path31" />
    <path
       d="m 243.333,249.836 c 1.25,0.376 1.953,1.693 1.579,2.936 l -1.977,6.582 c -0.378,1.241 -1.684,1.95 -2.933,1.577 -1.249,-0.376 -1.954,-1.69 -1.583,-2.932 l 1.979,-6.583 c 0.374,-1.252 1.686,-1.956 2.935,-1.58"
       fill="#fcee23"
       id="path32" />
    <path
       d="m 335.861,251.207 c -1.243,0.376 -1.949,1.694 -1.579,2.939 l 1.979,6.58 c 0.372,1.246 1.691,1.95 2.933,1.577 1.245,-0.373 1.957,-1.69 1.578,-2.933 l -1.98,-6.582 c -0.376,-1.243 -1.682,-1.955 -2.931,-1.581"
       fill="#fcee23"
       id="path33" />
    <path
       d="m 329.573,251.014 c -1.236,0.376 -1.949,1.689 -1.577,2.933 l 1.984,6.581 c 0.371,1.252 1.693,1.954 2.936,1.587 1.243,-0.381 1.942,-1.692 1.573,-2.946 l -1.973,-6.572 c -0.376,-1.25 -1.689,-1.957 -2.943,-1.583"
       fill="#fcee23"
       id="path34" />
    <path
       d="m 323.006,250.328 c -1.245,0.372 -1.956,1.689 -1.579,2.932 l 1.974,6.581 c 0.383,1.245 1.687,1.955 2.942,1.575 1.243,-0.369 1.946,-1.685 1.574,-2.93 l -1.981,-6.585 c -0.372,-1.248 -1.686,-1.951 -2.93,-1.573"
       fill="#fcee23"
       id="path35" />
    <path
       d="m 316.626,249.836 c -1.244,0.376 -1.956,1.693 -1.581,2.936 l 1.981,6.582 c 0.37,1.241 1.685,1.95 2.933,1.573 1.246,-0.372 1.948,-1.686 1.578,-2.928 l -1.981,-6.583 c -0.374,-1.249 -1.681,-1.956 -2.93,-1.58"
       fill="#fcee23"
       id="path36" />
    <g
       fill="#ffffff"
       id="g62">
      <path
         d="m 320.983,167.497 c -3.674,31.691 -20.065,50.231 -39.497,66.168 3.207,2.203 6.469,4.219 9.728,6.089 29.86,-16.971 53.923,-39.725 55.778,-84.695 -8.905,3.91 -17.219,8.421 -26.009,12.438 z"
         id="path37" />
      <path
         d="m 256.148,247.909 c 0.564,2.119 0.447,4.288 1.012,5.647 6.913,-2.689 15.147,-4.686 21.404,-8.03 -3.358,-1.412 -6.714,-2.946 -10.043,-4.627 -3.492,2.679 -7.739,4.837 -12.471,6.281 0.035,0.243 0.065,0.484 0.098,0.729 z"
         id="path38" />
      <path
         d="m 303.205,251.333 c 0.137,-1.224 0.275,-2.463 0.446,-3.703 -32.755,-15.643 -58.866,-37.517 -64.642,-80.131 -8.792,-4.018 -17.096,-8.528 -26.001,-12.438 3.217,59.061 43.197,84.093 90.043,97.656 0.052,-0.459 0.103,-0.92 0.154,-1.384 z"
         id="path39" />
      <path
         d="m 161.615,193.231 c 2.908,0.274 4.254,-1.883 4.497,-4.454 0.159,-1.683 -0.088,-4.3 -2.322,-4.512 -2.356,-0.223 -3.064,3.014 -4.224,6.146 -1.164,3.163 -2.729,6.319 -6.829,5.931 -4.469,-0.422 -6.212,-4.849 -5.839,-8.796 0.432,-4.56 2.818,-8.565 7.867,-8.087 l -0.44,4.652 c -2.646,-0.096 -3.496,1.707 -3.713,4.002 -0.145,1.531 0.33,3.366 2.166,3.54 1.684,0.159 1.996,-0.861 3.922,-6.207 0.548,-1.553 2.021,-6.355 6.979,-5.885 4.009,0.379 6.711,3.815 6.149,9.752 -0.458,4.835 -3.273,9.139 -8.653,8.568 z"
         id="path40" />
      <path
         d="m 149.456,172.076 1.332,-4.639 8.096,2.324 2.451,-8.538 -8.096,-2.325 1.331,-4.638 21.096,6.056 -1.332,4.639 -9.1,-2.612 -2.451,8.539 9.101,2.612 -1.333,4.638 z"
         id="path41" />
      <path
         d="m 157.376,147.459 7.349,-14.675 3.627,1.816 -5.188,10.361 4.205,2.106 4.761,-9.509 3.352,1.679 -4.761,9.508 4.81,2.408 5.297,-10.58 3.628,1.816 -7.459,14.895 z"
         id="path42" />
      <path
         d="m 168.675,126.614 9.161,-12.41 3.263,2.409 -6.296,8.528 4.079,3.011 5.457,-7.392 3.016,2.227 -5.456,7.392 7.292,5.384 -2.864,3.881 z"
         id="path43" />
      <path
         d="m 181.008,110.682 10.924,-10.897 2.864,2.872 -7.506,7.489 3.582,3.591 6.506,-6.491 2.648,2.655 -6.506,6.491 6.404,6.419 -3.417,3.407 z"
         id="path44" />
      <path
         d="m 195.575,97.007 3.785,-2.993 13.614,17.211 -3.785,2.994 z"
         id="path45" />
      <path
         d="m 204.489,90.042 14.045,-8.493 2.1,3.472 -9.916,5.996 2.433,4.025 9.101,-5.504 1.941,3.21 -9.101,5.503 2.783,4.603 10.127,-6.123 2.099,3.472 -14.256,8.619 z"
         id="path46" />
      <path
         d="m 225.338,78.353 4.5,-1.747 6.472,16.681 9.974,-3.87 1.468,3.783 -14.473,5.617 z"
         id="path47" />
      <path
         d="m 246.798,70.7 9.31,-1.704 c 5.592,-1.024 10.436,1.713 11.747,8.878 1.146,6.257 -1.207,11.499 -7.795,12.705 l -9.311,1.705 z m 7.967,16.725 4.232,-0.775 c 2.751,-0.503 5.071,-2.677 4.196,-7.453 -0.796,-4.353 -2.817,-6.858 -7.533,-5.994 l -3.385,0.62 z"
         id="path48" />
      <path
         d="m 302.794,82.299 c -0.663,5.894 -4.466,8.373 -10.298,7.718 -5.864,-0.658 -8.965,-3.883 -8.3,-9.807 l 1.523,-13.559 4.795,0.539 -1.523,13.559 c -0.268,2.381 0.079,4.802 3.958,5.237 3.419,0.384 4.687,-0.988 5.051,-4.225 l 1.523,-13.559 4.794,0.539 z"
         id="path49" />
      <path
         d="m 310.783,70.104 4.579,1.426 4.366,16.779 0.059,0.018 4.378,-14.056 4.313,1.343 -6.525,20.952 -4.606,-1.435 -4.348,-16.741 -0.059,-0.018 -4.368,14.027 -4.314,-1.343 z"
         id="path50" />
      <path
         d="m 334.573,78.504 4.363,2.059 -9.366,19.842 -4.363,-2.06 z"
         id="path51" />
      <path
         d="m 346.062,89.048 -5.586,-3.475 2.144,-3.446 15.27,9.501 -2.144,3.445 -5.585,-3.475 -9.452,15.191 -4.098,-2.55 z"
         id="path52" />
      <path
         d="m 361.248,94.229 12.401,10.747 -2.657,3.065 -8.754,-7.588 -3.08,3.553 8.035,6.964 -2.456,2.833 -8.034,-6.964 -3.524,4.064 8.942,7.748 -2.656,3.065 -12.586,-10.908 z"
         id="path53" />
      <path
         d="m 379.107,110.614 5.84,7.45 c 3.507,4.474 3.338,10.035 -2.394,14.529 -5.006,3.924 -10.741,4.28 -14.875,-0.992 l -5.839,-7.449 z m -11.098,14.832 2.653,3.387 c 1.726,2.201 4.73,3.243 8.551,0.247 3.482,-2.73 4.76,-5.684 1.801,-9.457 l -2.123,-2.709 z"
         id="path54" />
      <path
         d="m 400.579,143.054 5.852,14.274 -3.752,1.538 -4.023,-9.809 -4.691,1.923 3.485,8.502 -3.468,1.422 -3.486,-8.502 -8.389,3.439 -1.83,-4.464 z"
         id="path55" />
      <path
         d="m 390.259,164.011 1.4,4.618 -4.529,1.373 -1.399,-4.618 z"
         id="path56" />
      <path
         d="m 404.944,184.596 c 2.103,-0.66 3.399,-2.994 3.006,-5.358 -0.709,-4.275 -4.613,-5.28 -8.403,-4.652 -3.609,0.598 -6.98,2.808 -6.272,7.084 0.483,2.911 2.756,4.217 5.667,4.108 l 0.762,4.609 c -5.477,0.41 -9.552,-2.747 -10.432,-8.054 -1.11,-6.701 3.24,-11.472 9.487,-12.508 6.427,-1.065 12.084,2.048 13.195,8.749 0.789,4.761 -1.338,9.226 -6.244,10.631 z"
         id="path57" />
      <path
         d="m 395.792,193.814 0.153,4.824 -4.731,0.15 -0.154,-4.824 z"
         id="path58" />
      <path
         d="m 255.405,330.785 -4.267,-0.915 2.926,-13.645 -5.29,-1.135 0.69,-3.216 c 2.963,0.699 5.916,0.263 7.057,-2.856 l 3.396,0.728 z"
         id="path59" />
      <path
         d="m 270.083,310.632 c 5.327,0.473 6.838,4.31 6.653,6.391 -0.187,2.113 -1.441,3.729 -3.528,4.285 l 0.005,-0.061 -0.002,0.031 -0.003,0.03 c 2.49,0.808 3.785,2.898 3.546,5.592 -0.4,4.5 -4.64,6.376 -8.62,6.022 -4.133,-0.367 -7.959,-2.805 -7.548,-7.429 0.242,-2.723 1.944,-4.517 4.509,-4.906 l 0.006,-0.061 c -2.03,-0.767 -2.949,-2.577 -2.762,-4.689 0.342,-3.858 4.254,-5.516 7.744,-5.205 z m -1.658,19.015 c 2.081,0.185 3.804,-1.142 3.994,-3.286 0.182,-2.051 -1.348,-3.577 -3.369,-3.756 -2.113,-0.188 -3.903,0.857 -4.099,3.061 -0.195,2.204 1.392,3.796 3.474,3.981 z m 0.853,-9.953 c 1.776,0.158 3.302,-0.694 3.465,-2.532 0.098,-1.102 -0.256,-3.016 -2.951,-3.255 -1.745,-0.155 -3.371,0.78 -3.54,2.679 -0.166,1.867 1.281,2.952 3.026,3.108 z"
         id="path60" />
      <path
         d="m 286.893,310.853 c 5.34,-0.326 7.405,3.244 7.533,5.329 0.129,2.118 -0.87,3.904 -2.85,4.764 l -0.004,-0.061 0.004,0.061 c 2.582,0.428 4.176,2.302 4.341,5.001 0.275,4.511 -3.638,6.999 -7.627,7.243 -4.143,0.253 -8.29,-1.588 -8.574,-6.222 -0.166,-2.73 1.25,-4.758 3.728,-5.525 l -0.003,-0.061 c -2.123,-0.456 -3.302,-2.109 -3.431,-4.226 -0.237,-3.866 3.384,-6.09 6.883,-6.303 z m 0.555,9.083 c 1.779,-0.109 3.162,-1.18 3.05,-3.019 -0.068,-1.107 -0.705,-2.946 -3.405,-2.782 -1.749,0.108 -3.218,1.275 -3.1,3.178 0.113,1.872 1.706,2.729 3.455,2.623 z m 0.64,9.97 c 2.086,-0.128 3.591,-1.697 3.461,-3.845 -0.126,-2.057 -1.867,-3.337 -3.893,-3.212 -2.116,0.129 -3.731,1.429 -3.596,3.638 0.135,2.209 1.941,3.548 4.028,3.419 z"
         id="path61" />
      <path
         d="m 303.505,325.359 c 0.573,1.356 1.913,2.325 3.386,2.01 3.096,-0.665 3.037,-4.896 2.655,-7.267 l -0.074,-0.047 c -0.817,1.905 -2.201,2.926 -4.245,3.364 -1.803,0.386 -3.817,-0.062 -5.302,-1.127 -1.389,-1.054 -2.274,-2.688 -2.63,-4.341 -0.921,-4.297 1.327,-8.331 5.714,-9.273 6.371,-1.366 9.277,3.826 10.418,9.147 1.102,5.139 0.074,11.489 -5.906,12.772 -3.637,0.781 -6.799,-0.775 -8.073,-4.368 z m 4.613,-10.011 c -0.42,-1.953 -2.101,-3.636 -4.234,-3.178 -2.044,0.438 -2.797,2.643 -2.391,4.536 0.425,1.984 1.873,3.749 4.066,3.277 2.284,-0.489 3.003,-2.561 2.559,-4.635 z"
         id="path62" />
    </g>
  </g>
</svg>
