<svg xmlns="http://www.w3.org/2000/svg" viewBox="0.0 0.0 534.3 805.89" width="257.5291119918602" height="388.3056141752267">
  <defs>
    <style>
      .cls-1 {
        fill: #fbce00;
      }

      .cls-2 {
        fill: #fff;
      }
    </style>
  </defs>
  <g>
    <g>
      <g>
        <ellipse cx="267.15" cy="402.95" rx="267.15" ry="402.95"/>
        <ellipse class="cls-1" cx="267.15" cy="402.95" rx="245.26" ry="361.62"/>
        <g>
          <path class="cls-2" d="M431.38,647.1c44.04-61.87,71.41-148.38,71.41-244.15,0-75.3-16.92-144.87-45.56-201.24-6.79-13.38-14.25-26.01-22.29-37.8,2.51,15.65,4.78,31.71,6.78,48.13-13.56,7.03-32.14,13.15-54.35,17.96-2.4-32.41-5.48-63.51-9.17-92.97-1.65-13.15-3.42-25.97-5.31-38.43-23-16.72-48.16-28.16-74.72-33.21,1.09,19.9,2.09,40.88,2.98,62.8,1.43,35.21,2.58,72.85,3.42,112.37-12.12.65-24.63,1-37.42,1s-25.3-.35-37.42-1c.84-39.52,1.99-77.16,3.42-112.37.89-21.92,1.89-42.9,2.98-62.8-26.56,5.05-51.72,16.49-74.72,33.21-1.89,12.46-3.66,25.28-5.31,38.43-3.69,29.46-6.77,60.56-9.17,92.97-22.21-4.81-40.79-10.93-54.35-17.96,2-16.42,4.27-32.48,6.78-48.13-8.04,11.79-15.5,24.42-22.29,37.8-28.64,56.37-45.56,125.94-45.56,201.24,0,95.77,27.37,182.28,71.41,244.15-11.1-62.06-18.24-131.17-20.4-204.46-.42-14.06-.66-28.27-.7-42.62,12.62-9.11,33.19-17.07,59.25-23.17-.05,6.02-.07,12.07-.07,18.14,0,23.9.36,47.45,1.05,70.54,2.71,90.05,10.55,173.19,22.19,243.81,22.5,15.81,47,26.6,72.8,31.36-1.05-17.73-2.02-36.39-2.91-55.9,12.75,8.9,26.9,17.7,33.02,17.7s20.27-8.8,33.02-17.7c-.89,19.51-1.86,38.17-2.91,55.9,25.8-4.76,50.3-15.55,72.8-31.36,11.64-70.62,19.48-153.76,22.19-243.81.69-23.09,1.05-46.64,1.05-70.54,0-6.07-.02-12.12-.07-18.14,26.06,6.1,46.63,14.06,59.25,23.17-.04,14.35-.28,28.56-.7,42.62-2.16,73.29-9.3,142.4-20.4,204.46ZM230.54,583.32c-.91-33.94-1.57-69.47-1.96-106.21-.3-26.78-.45-54.21-.45-82.12,0-10.04.02-20.01.06-29.92,12.6-.71,25.63-1.09,38.96-1.09s26.36.38,38.96,1.09c.04,9.91.06,19.88.06,29.92,0,27.91-.15,55.34-.45,82.12-.39,36.74-1.05,72.27-1.96,106.21h-73.22Z"/>
          <path d="M161.41,98.6c-1.89,12.46-3.66,25.28-5.31,38.43-3.69,29.46-6.77,60.56-9.17,92.97-22.21-4.81-40.79-10.93-54.35-17.96,2-16.42,4.27-32.48,6.78-48.13,3.42-5.01,6.94-9.86,10.56-14.56,15.46-20.02,32.76-37.14,51.49-50.75Z"/>
          <path d="M164.24,709.34c-22.72-15.97-43.4-37.06-61.32-62.24-11.1-62.06-18.24-131.17-20.4-204.46-.42-14.06-.66-28.27-.7-42.62,12.62-9.11,33.19-17.07,59.25-23.17-.05,6.02-.07,12.07-.07,18.14,0,23.9.36,47.45,1.05,70.54,2.71,90.05,10.55,173.19,22.19,243.81Z"/>
          <path d="M441.72,212.04c-13.56,7.03-32.14,13.15-54.35,17.96-2.4-32.41-5.48-63.51-9.17-92.97-1.65-13.15-3.42-25.97-5.31-38.43,18.73,13.61,36.03,30.73,51.49,50.75,3.62,4.7,7.14,9.55,10.56,14.56,2.51,15.65,4.78,31.71,6.78,48.13Z"/>
          <path d="M452.48,400.02c-.04,14.35-.28,28.56-.7,42.62-2.16,73.29-9.3,142.4-20.4,204.46-17.92,25.18-38.6,46.27-61.32,62.24,11.64-70.62,19.48-153.76,22.19-243.81.69-23.09,1.05-46.64,1.05-70.54,0-6.07-.02-12.12-.07-18.14,26.06,6.1,46.63,14.06,59.25,23.17Z"/>
          <path d="M304.57,240.56c-12.12.65-24.63,1-37.42,1s-25.3-.35-37.42-1c.84-39.52,1.99-77.16,3.42-112.37.89-21.92,1.89-42.9,2.98-62.8,10.15-1.93,20.5-2.94,31.02-2.94s20.87,1.01,31.02,2.94c1.09,19.9,2.09,40.88,2.98,62.8,1.43,35.21,2.58,72.85,3.42,112.37Z"/>
          <path d="M267.15,702.5c6.12,0,20.27-8.8,33.02-17.7-.89,19.51-1.86,38.17-2.91,55.9-9.86,1.81-19.91,2.75-30.11,2.75s-20.25-.94-30.11-2.75c-1.05-17.73-2.02-36.39-2.91-55.9,12.75,8.9,26.9,17.7,33.02,17.7Z"/>
          <path d="M306.17,394.99c0,27.91-.15,55.34-.45,82.12-.39,36.74-1.05,72.27-1.96,106.21h-73.22c-.91-33.94-1.57-69.47-1.96-106.21-.3-26.78-.45-54.21-.45-82.12,0-10.04.02-20.01.06-29.92,12.6-.71,25.63-1.09,38.96-1.09s26.36.38,38.96,1.09c.04,9.91.06,19.88.06,29.92Z"/>
        </g>
        <g>
          <path d="M215.65,629.43v-12.3c0-2.25-1.1-3.4-3.15-3.4h-1.85v15.7h-8.55v-29.2c0-5.65,4.8-7.45,11.05-7.45s10.45,1.8,10.45,7.5v5.8c0,3.4-1.75,5.25-6.05,5.55,4.3.4,6.3,2,6.3,4.8v13h-8.2ZM215.65,599.53c0-1.5-.85-2.25-2.5-2.25s-2.5.75-2.5,2.25v10.2h1.85c2,0,3.15-.85,3.15-3.2v-7Z"/>
          <path d="M229.2,600.23c0-5.65,4.8-7.45,11.05-7.45s10.95,1.8,10.95,7.5v22.75c0,5.7-4.85,7.5-10.95,7.5s-11.05-1.8-11.05-7.45v-22.85ZM242.75,599.53c0-1.5-.85-2.25-2.5-2.25s-2.5.75-2.5,2.25v24.25c0,1.5.85,2.25,2.5,2.25s2.5-.75,2.5-2.25v-24.25Z"/>
          <path d="M278.1,623.03c0,5.7-4.6,7.5-10.7,7.5s-11.05-1.8-11.05-7.45v-22.85c0-5.65,4.8-7.45,11.05-7.45s10.45,1.8,10.45,7.5v4.65c0,3.4-1.75,5.25-6.05,5.55,4.3.4,6.3,2,6.3,4.8v7.75ZM269.9,599.53c0-1.5-.85-2.25-2.5-2.25s-2.5.75-2.5,2.25v9.05h1.85c2,0,3.15-.85,3.15-3.2v-5.85ZM269.9,615.98c0-2.25-1.1-3.4-3.15-3.4h-1.85v11.2c0,1.5.85,2.25,2.5,2.25s2.5-.75,2.5-2.25v-7.8Z"/>
          <path d="M296.55,593.83h8.35v29.2c0,5.65-4.45,7.45-10.7,7.45s-10.75-1.8-10.75-7.5v-29.15h8.45v29.9c0,1.5.65,2.25,2.3,2.25s2.35-.75,2.35-2.25v-29.9Z"/>
          <path d="M324,629.43v-12.3c0-2.25-1.1-3.4-3.15-3.4h-1.85v15.7h-8.55v-29.2c0-5.65,4.8-7.45,11.05-7.45s10.45,1.8,10.45,7.5v5.8c0,3.4-1.75,5.25-6.05,5.55,4.3.4,6.3,2,6.3,4.8v13h-8.2ZM324,599.53c0-1.5-.85-2.25-2.5-2.25s-2.5.75-2.5,2.25v10.2h1.85c2,0,3.15-.85,3.15-3.2v-7Z"/>
        </g>
        <g>
          <path d="M219.1,676.38v-28.55c0-2.05-.95-3.1-2.8-3.1h-1.85v-3.95h6.85c4.25,0,6.4,2.6,6.4,7.8v27.8h-8.6Z"/>
          <path d="M249.35,663.93c-1.2.2-2.3.3-3.3.3-6.4,0-9.9-4.8-9.9-9.6v-6.65c0-5.7,4.6-7.5,10.7-7.5s11.05,1.8,11.05,7.45v28.96h-8.55v-12.95ZM249.35,647.63c0-1.5-.85-2.25-2.5-2.25s-2.5.75-2.5,2.25v9.07c0,2.1,1.5,3.15,3.2,3.15h1.8v-12.22Z"/>
          <path d="M266.35,647.78c0-5.54,4.8-7.3,11.05-7.3s10.95,1.76,10.95,7.35v22.3c0,5.59-4.85,7.35-10.95,7.35s-11.05-1.76-11.05-7.3v-22.4ZM279.9,647.58c0-1.47-.85-2.21-2.5-2.21s-2.5.74-2.5,2.21v22.79c0,1.47.85,2.21,2.5,2.21s2.5-.74,2.5-2.21v-22.79Z"/>
          <path d="M310.15,676.38v-8.93h-13.85v-3.98l10.75-22.99h11.65v35.9h-8.55ZM310.55,645.11l-6.9,17.95h6.9v-17.95Z"/>
        </g>
        <g>
          <path d="M124.62,341.36c.41,15.07-10.28,23.84-23.46,27.7-15.61,4.57-24.05-7.4-22.86-22.26,0-9.01,0-13.51,0-22.52,6.91-.63,10.38-.92,17.32-1.49v23.63c0,5.37,1.88,7.65,5.54,6.9,3.66-.75,5.55-3.68,5.55-10.53v-10.61c0-4.45-1.11-9.79-4.22-13.59-6.3-7.68-9.44-11.75-15.71-20.5-5.52-7.54-7.71-14.36-7.71-25.87v-13.43c-1.2-15.44,6.97-26.39,22.98-21.59,13.69,4.1,23.42,14.36,23.02,29.59v14.8c-7-.57-10.5-.87-17.47-1.52v-18.41c0-5.11-1.89-8.04-5.55-8.78-3.66-.75-5.54,1.52-5.54,7.59v8.74c0,7.31.66,9.93,3.99,14.41,6.69,9.02,10.05,13.21,16.77,21.11,4.9,5.71,7.35,12.39,7.35,22.6v14.03Z"/>
          <path d="M130.76,358.4c0-36.98,0-73.96,0-110.94,7.59,1.57,11.4,2.3,19.03,3.65,0,34.55,0,69.1,0,103.65-7.63,1.35-11.43,2.08-19.03,3.64Z"/>
          <path d="M156.3,353.64c0-33.8,0-67.61,0-101.41,14.06,2.23,28.11,4.12,42.25,5.69v12.27c-9.27-.69-13.89-1.1-23.13-2.02v24.03c8.97.28,13.46.4,22.45.61v11.91c-8.99.04-13.49.06-22.45.1v32.76c9.28-.92,13.93-1.33,23.25-2.01,0,4.96,0,7.43,0,12.39-14.19,1.57-28.27,3.46-42.37,5.68Z"/>
          <path d="M233.64,345.3c0-23.72,0-47.44,0-71.15,0-3.57-1.93-5.43-5.67-5.6s-5.66,1.53-5.66,5.15c0,24.09,0,48.17,0,72.26-7.75.52-11.62.83-19.35,1.57,0-24.38,0-48.76,0-73.15.09-13.78,13.55-17.68,25.02-16.62,11.13,1.03,24.72,4.93,24.83,18.61,0,22.75,0,45.5,0,68.25-7.67.16-11.5.3-19.16.68Z"/>
          <path d="M288.99,344.82v-33.17c-4.54-.03-6.8-.04-11.34-.06,0,10.99,0,21.97,0,32.96-7.76-.12-11.64-.13-19.4-.02,0-23.13,0-46.26,0-69.38.61-12.31,15.23-16.12,25.07-16.38,9.83-.26,24.34,3.2,24.83,15.58,0,23.79,0,47.58,0,71.37-7.66-.47-11.49-.64-19.16-.89ZM288.99,274.48c0-3.53-1.93-5.24-5.67-5.16-3.74.07-5.67,1.84-5.67,5.35v26.06c4.54,0,6.81,0,11.34-.01,0-10.49,0-15.74,0-26.23Z"/>
          <path d="M337.33,348.13c0-30.13,0-60.25,0-90.38,13.84-1.57,27.59-3.44,41.35-5.64v13.85c-8.85,1.08-13.28,1.57-22.16,2.44v24.94c8.61-.23,12.91-.37,21.49-.66v13.39c-8.58-.09-12.88-.13-21.49-.19v44.54c-7.66-1.02-11.5-1.48-19.18-2.28Z"/>
          <path d="M366.88,351.88c0-6.32,0-9.49,0-15.81,7.25.73,10.86,1.13,18.08,2,0,6.71,0,10.06,0,16.77-7.22-1.28-10.84-1.87-18.08-2.95Z"/>
          <path d="M418.37,315.95c6.99.35,10.47.54,17.43.94,0,10.54,0,15.81,0,26.35,1.78,15.35-8.8,24.08-23,20.68-13.57-3.25-24.67-12.33-24.7-27.25,0-22.45,0-44.9,0-67.35.03-14.91,11.13-24,24.7-27.25,14.19-3.39,24.77,5.33,23,20.68v23.7c-6.95.47-10.44.7-17.43,1.12v-24.57c0-4.95-1.89-7.06-5.57-6.41-3.68.66-5.58,3.35-5.58,8.09,0,25.54,0,51.08,0,76.62,0,4.74,1.9,7.43,5.58,8.09,3.68.66,5.57-1.46,5.57-6.41v-27.05Z"/>
          <path d="M438.23,366.52c0-8.22,0-12.33,0-20.55,7.13,1.26,10.68,1.93,17.77,3.33,0,8.85,0,13.28,0,22.14-7.09-2.07-10.64-3.05-17.77-4.92Z"/>
        </g>
      </g>
      <g>
        <path d="M222.07,528.67c-.55-.37-1.09-.79-1.59-1.28.49-.02.96-.06,1.14-.15.24.33.38.84.45,1.43Z"/>
        <polygon points="234.06 511.53 234.06 511.73 233.96 511.73 233.86 511.63 233.86 511.53 234.06 511.53"/>
        <path d="M246.98,555.7c-.78-.26-1.27-.44-1.48-.52-5.57-2.05-9.06-3.1-10.47-3.13-.59-.02-2.72.33-6.38,1.03-4.73.91-6.98.78-6.75-.41.53-.42.96-.67,1.28-.74l1.53-.37c1.17-.28,2.59-1.68,4.28-4.18,1.02-1.51,2.19-2.44,3.52-2.79,1.36-.35,3.06-.23,3.12-.18l1.19,1.15c.22.22,5.02,3.23,6.09,2.28.11-.11.28-.16.5-.15,1.15.02,2.18.51,3.1,1.46l1.21,1.28c.26.26.74.51,1.45.73.22-.34.39-.69.53-1.07.22.13.42.1.58-.1.44-.5-.14-1-.4-.91l.09-1.92s-.04-.04-.06-.06c-.03-.02-.05-.05-.07-.07l-.07-.07h-1.01c-.24.24-.43.51-.55.82-.48-.22-.95-.46-1.41-.72-2.51-1.45-4.39-2.37-5.62-2.79-1.92-.64-3.27-1.39-4.05-2.24-2.75-2.97-4.03-5.8-3.85-8.48,2.03.66,3.54.66,4.54.01,3.38-2.24,5.73-9.24-.11-9.4-.47-.02-.83.1-1.09.35-.35.34-1.44.33-3.26-.04v-1.82c0-.07.04-.17.13-.31h.17c-.07-.26-.17-.5-.3-.71-.25-.41-.14-1.16.34-2.24l.26-.58-.13-.44c-.65-2.25-.03-4.02,1.84-5.33.35.46,3.89.57,5.04.1,1.8-.72,3.88-2.9,2.73-4.05-.64.26-1.1.49-1.38.68l-1.32.9c-1.66,1.13-3.99.8-7.01-.97.23-.68.1-1.28-.39-1.8-.73-.78-1.82.34-1.82.81v1.53c0,.17-.29,1.13-.86,2.88-.75,2.25-1.4,3.61-1.96,4.09-.1.08-.56.24-1.38.49-2.17.64-3.56,1.18-4.17,1.63-.04.22.23.59.81,1.11.4.03,1.03-.13,1.9-.47.59-.23.93-.32,1.03-.29,1.12.39,1.95,1.17,2.49,2.34l.73,1.58c.49,1.05,1.17,1.98,2.05,2.79.35.19.55.06.6-.41.06,0,.12.02.2.05.78.37,2.3.38,4.55.04,1.09-.17,1.74.14,1.92.91.03.12-.01,1.63-.04,1.66l-.56.56-.71,1.63c-.24.53-2.28,1.64-3.12,1.61-.44-.01-2.11-.73-2.78-1.35l-1.12-1.04c-.33-.31-1.79-.78-4.38-1.43-6.95-1.73-8.94-5.99-5.98-12.79.35-.79.78-1.71,1.29-2.76,1.63-3.34,2.59-6.76,2.89-10.26.18-2.06.4-4.66,3.71-6.1,3.98-1.73,6.48-4.06,7.51-7.01.39-1.11.48-1.98.29-2.62-.04-.17-.48-.6-1.31-1.31l-1.46-1.25c-.31-.27-.66-.76-1.07-1.47,1.1-2.96,1.61-5.04,1.54-6.24l-.08-1.07-.16-.98.03-.15c.02-.08.02-.18.02-.31.75.5,2.01.8,3.78.91,1.5.09,2.5.39,3,.88l1.12,1.11,1.23.94,1.13,1.05c.14.12.72-.03.71-.31.22-.16.44.08.4.2.28.01.45,0,.51-.05l1.29-1.04c.6-.49,1.68-.73,3.25-.73.48,2.52.68,4,.61,4.44-.3,1.89-2.75,3.66-3.02,3.78-.23.1-5.22.83-7.88.37l-.93-.16c-.2-.04-.49-.1-.89-.18-.03.16-.08.3-.18.43l-.22.03.05.4c.12.98,1.63,1.64,4.53,1.98l1.71.2c.37.04.83.31,1.39.79-.61,1.26-.98,2.38-1.1,3.38.47.59.91.72,1.31.41.08-.06.15-.11.24-.15l.06-.26c.18-.09.42.19.41.3,1.94-.1,3.95.12,6.01.64,3.33.85,4.75,5.05,4.71,5.41l-1.1,8.48c-1.07,0-1.86.09-2.39.25l-1.14.37h-3.84c-.09.01-.12.11-.1.31-.79-.28-1.26-.45-1.42-.5l-.61-.2v.4c.01.09-.13.21-.4.35.68.89,1.65,1.35,2.93,1.38l1.72.03.77.72c.87.81,1.46,1.19,1.76,1.14l.71-.1v7.28s-.06.4-.06.4c-.03.21-.04.48-.03.81-.65.61-1.06.91-1.21.91h-1.53c-3.19.01-4.77.85-4.73,2.54.28.63.55.82.81.55l1.04-1.08c.33-.34,2.73-.79,3-.59l1.36.98,1.42.88c.42.26,2.05,6.03,2.08,6.41.12,1.51-.34,3.07-1.41,4.65-.58.11-1.15.07-1.72-.09-.23-.06-1.73-.86-4.48-2.39-1.35-.76-2.04-1-2.08-.74l.1.31c-.07-.03-.18.01-.34.12-.05.03-.11.06-.17.08.53.79,1.78,1.74,3.76,2.84,3.28,1.81,5.51,3.84,6.71,6.07.17.31,1.19,3.23,3.06,8.78,1.61,4.76-2.41,8.76-12.66,5.28Z"/>
        <path d="M272.74,506.6c-2.21.11-3.69.84-4.44,2.18-.5.87-.8,1.98-.91,3.33-.5-.03-1.28-.2-2.33-.51-.83-.24-1.66-.29-2.48-.14-.6.1-1.19.09-1.79-.05-.39-.09-.92-.02-1.58.21-.32-.46-.56-1.16-.68-2.09-.11-.73-.15-1.1-.13-1.14.06-.12,1.07-.32,3.04-.61.61-.09,1.65-.18,3.12-.24l1.57-.07,1.39-.64c2.73-1.27,4.47-1.34,5.22-.23Z"/>
        <path d="M280.27,552.57c.03,1.26-1.95,1.83-2.32,1.67-.14-.52-.41-.74-.81-.64-1.13.28-2.07.34-2.83.19l-1.82-.37c-1.7-.34-3.33-.24-4.9.31-1.5.52-2.63.75-3.38.69-.46-.49-.81-.86-1.05-1.09l-1.13-1.09-.51-1.52c-.11-.34-.28-.86-.51-1.54l-.55-1.53.1-.4.54-.67.39-.77c.07-.14.23-.34.48-.58-.91-5.75-1.2-7.59,4.43-9.76.78,1.32,1.52.59,1.52.35v-.71l-.65-.71c-.59-.66-.61-1.43-.07-2.31.4-.65.46-1.09.18-1.34-.57-.52-2.49.45-2.99,1.3l-.8,1.39c-1.01,1.72-4.01,3.09-5.27,3.16-.21-.33-.41-.48-.61-.46.9-1.66.9-2.57,0-2.73l.6-3.74c.23-1.45-.11-2.78-1.02-3.98,0-.04,3.15-.37,9.44-.99,3.64-.36,6.26-.08,7.87.83,1.89,1.08,2.79,2.51,2.67,4.28-.19,2.8-.42,3.63-1.28,5.31-1.21,2.33-2.86,5.03-4.96,8.09-2.77,4.06-2.81,4.51-2.03,5.49.51.64,1.07.96,1.67.96h1.72s1.67.34,1.67.34l1.69.3c.65.11,2.15.86,4.52,2.27Z"/>
        <path d="M307.76,488.89c-.24,2-1.22,4.33-2.94,7-1.39,2.16-2.29,3.98-2.69,5.45-1.2,4.35-1.57,5.38-5.27,6.57-.17.06-3.15.79-8.94,2.19-1.32.32-2.74.86-4.26,1.63-1.89.95-3.32,1.45-4.29,1.49l-1.54.06-1.54.06c-.4.02-.81.33-1.26.93l-1.18,1.05c-.53.47-2.71.87-3.76.17-.12-.09-.51-.08-1.17.04-.29.04-.45.01-.51-.11-.02-.04.07-.58.25-1.62.49-2.75.94-4.33,1.33-4.72.91-.9,2.51-1.01,4.79-.32l1.6.49c.11.03.28.03.51,0,.1-.02.93-.58,2.48-1.71,3.13-2.27,6.27-3.8,9.4-4.61.95-.25,1.44-.38,1.47-.4.71-.49,1.64-2.25,2.78-5.31.76-2.02,2.06-4.17,3.9-6.46.82-1.01,1.27-1.87,1.35-2.56-.14-.39-.86-.79-1.38-.25-.13.16-.28.24-.44.25-.21.59-.81,1.5-1.79,2.71-.72.89-1.32,1.82-1.81,2.79l-.78,1.51c-1.09,2.15-4.75.59-4.87.42l-.95-1.45-.09-.1s-.07-.07-.11-.1c-.03-.04-.07-.07-.1-.1l-.81.05c-.28.68-.71,1.18-1.31,1.51.52,1.09,1.24,1.8,2.14,2.15l1.48.57c.53.21.97.47,1.31.8.56.54.84.96.84,1.27v.3c-.56.37-1.01.59-1.32.68l-1.51.39c-1.8.47-4.07,1.62-6.82,3.45-1.19.8-2.04,1.32-2.56,1.57-.33-.35-.36-1.62-.1-3.81.07-.58.39-1.7.94-3.37.47-1.41.94-2.45,1.41-3.13.21.54,1.13.91,1.57.61.18-.74.11-1.25-.21-1.52l-1.11-.94c-.25-.21-.58-.57-1-1.06l-.37-1.51-.35-1.34.17-1.85.18-1.85.65-1.65c.07-.19.01-.4-.21-.61l-.1-.1h-.9c-.94,1.97-1.62,3.86-2.02,5.67-.63.16-1.03.38-1.19.66l-.74,1.28-.79,1.29-.51,1.43c-.52,1.46-2.17,2.39-4.96,2.77-.98.13-1.48.21-1.52.23l-1.28.64-1.53.36-1.37.78-1.52.47-1.34.72c-.26.15-.4-.22-.4-1.08,0-.69-.04-1.21-.11-1.55.6-.21,1.05-.39,1.33-.51l1.38-.62,1.49-.35c2.17-.51,3.65-1.78,4.45-3.81l.56-1.43c.11-.28,1.92-2.02,5.42-5.22,1.12-1.02,2.34-2.63,3.66-4.84,1.87-3.12,2.7-3.73,5.76-4.52.91-.23,2.44-.36,4.58-.4.51,0,1.16.04,1.95.13.2.03.57-.07,1.11-.3-.04-.72,0-1.43.1-2.13.51-.27.81-.4.91-.4h5.14c.7-.01,1.74-.68,3.13-2.04v-.61c0-.48-.57-.56-1.72-.24-.18.05-10.14,1.08-9.5-3.68.05-.35.92-2.04,2.62-5.05h.2c.55,1.96,3.25,2.77,4.38.97l.89-1.41c1.68-2.67,6.34-4.38,7.05-3.93l1.39.9,1.43.81c.91.51,1.49,1.77,1,2.98-.13.33-.52.75-1.18,1.26l-1.37,1.08c-.31.24-.59.73-.85,1.46.73,1.35,1.67,1.75,2.79,1.23.62-.29,1.07-.43,1.35-.43,1.08.7-.86,2.96-2.09,3.43l-1.63.62c-1.35.51-2.19,1.21-2.53,2.13.02.05.03.11.04.17.05.34.29.68.73,1,.13.1.24.21.34.34.1.75-.1,1.79-.6,3.13-.53.04-.93,0-1.18-.11l-1.06-.49c-.26-.12-.66-.15-1.2-.09l-.06.17c-.04.13-.09.24-.14.33,1.13,1.65,2.73,2.95,4.8,3.9l1.37.63c2.09.96,3.15,4.14,2.84,6.67Z"/>
        <path d="M309.26,540c.02.1.02.2,0,.3-3.09,2.63-7.71,1.58-9.2.42l-1.4-1.1c-1.96-1.54-4.01-2.22-9.74,3.02-.74.67-7.9,6.2-8.84,6.1l-.91-.1-.91-.1-.8-.2c-.21-.05-.36.05-.46.31-1.67-.56-3.2-.83-4.6-.8-.15-.16-.29-.34-.41-.52-.4-.57-.7-.91-.9-1,.22-.51,1.34-2.27,3.36-5.29.71-1.07,1.45-2.37,2.23-3.91.4-.8.63-1.25.68-1.34,2.96-5.33,2.23-9.29-2.17-11.89-.1-1.56,5.92-5.01,6.6-5.31l1.55-.69c.35-.16.65-.59.93-1.29-.1-.1-.2-.2-.31-.3-1.9.07-4.17,1.16-6.81,3.29-.21-.22-.4-.46-.58-.71-.64-.89-1-1.38-1.09-1.46-.6-.13-.9-.03-.91.31l-.05,1.96c-.03,1.35-.58,2.48-1.66,3.39-2.13,0-3.69,0-4.68-.02-1.1-.03-2.57.05-4.41.24l.1-.3,1.25-1.4c.91-1.02,1.64-2.07,2.18-3.15.36.05.6,0,.72-.14l.48-.57c.11-.12.27-.29.51-.51l1.74-.04c2.43-.06,4.05-.47,4.87-1.22l1.27-1.18h1.52c2.08,0,4.02-.46,5.8-1.37,2.1-1.07,3.96-1.78,5.59-2.13,4.36-.92,6.83-1.45,7.39-1.58,1.46,3.86,2.15,6.31,2.1,7.33-.16,3.07-1.94,6.57-5.35,10.5-2.34,2.7-4.13,4.6-5.37,5.69-1.98,1.74-3.74,3.66-5.27,5.74.46.73,1.01,1.12,1.62,1.17.51.03,1.69-1.28,1.71-1.42l.1-1.01c.02-.2,2.28-2.17,6.79-5.9,2.12-1.77,3.3-2.7,3.54-2.82,1.42-.71,2.69-1.01,3.8-.9.51.5,1.3,1.93,2.35,4.28,1.53,3.41,3.54,5.95,6.05,7.62Z"/>
        <polygon points="368.16 479.79 368.16 479.99 368.06 479.99 367.26 479.79 367.26 479.69 367.86 479.69 368.16 479.79"/>
        <path d="M368.48,480.05l-.13.02-.07.03v-.1c.07-.01.14.01.2.05Z"/>
        <path d="M436.07,486.9l-.14.02-.06.03v-.1c.07,0,.14.01.2.05Z"/>
        <path d="M456.1,477.05c-.75,3.12-2.24,4.77-4.46,4.93l-1.49.11-1.44.31-1.46-.27c-.87-.17-2.75.07-2.79.16-.1.25.13.62.73,1.12.34.29,2.19.87,5.54,1.74-5.11,2.34-14.26.67-18.43-5.26l-.83-1.18c-.55-.79-1.35-1.25-2.39-1.39-.78.96-.72,2.31.18,4,1.17,2.18,2.26,3.74,3.28,4.72-4.68-.35-7.84-2.24-9.5-5.67-.42-.85-1.15-2.66-2.2-5.42-1.21-3.24-2.83-4.75-4.81-4.56-.26.93.34,2.12,1.77,3.59l1,1.02c.16.16.69,1.53,1.61,4.12-.39.41-.58.75-.6,1l-.1,1.49c-.01.21-.23.44-.67.7-2.53-.88-4.57-3.51-6.11-7.88-.03-.1-.6-1.44-1.69-4.02-.27-.66-.45-1.12-.54-1.38-1.06-3.06-2.71-5.42-4.98-7.08-1.7-1.26-2.92-1.95-3.63-2.1-.48.38-.61.78-.39,1.22,1.3.65,2.66,2,4.08,4.07,1.98,2.85.86,9.39.68,9.56-1-.57-7.14-7.76-6.87-15.51.16-4.44.04-6.94-.12-7.51-.34-.34-.77-.39-1.25-.16-.27.61-.41,1.06-.42,1.38l-.04,1.51-.82,1.1c-.19.27-.47.67-.8,1.2-.26-.24-.4-.42-.41-.53l-.15-1.52c-.18-1.81-.61-3.22-1.33-4.25-.63-.91-1.32-1.23-2.07-.95-1.4-2.24-2.73-3.55-3.99-3.94-.44.5-.6.9-.46,1.21l.57,1.37.62,1.34c.37.82.55,1.27.54,1.35-.02.4-.17.74-.43,1.03-1.05-2.05-1.66-3.91-1.82-5.57-.29-3.07-.94-5.43-1.92-7.07-1.66-2.75-3.02-5.29-4.11-7.6-.98-2.05-1.69-3.3-2.11-3.77-.18-.18-.53-.5-1.08-.96-.49-.4-1.19-1.05-2.14-1.94-1.13-1.05-2.28-1.86-3.48-2.39-1.95-.88-3.31-1.04-4.08-.49.14.64.37,1,.69,1.09l1.42.41c3.41.99,7.27,5.69,11.6,14.11,1.35,2.67,2.39,6.47,3.09,11.42.74,5.32,3.04,11.2,6.87,17.66,3.35,5.63,6.3,9.39,8.89,11.27,3.33,2.43,6.22,4.12,8.67,5.08,2.38.92,3.9,2.07,4.54,3.44l.63,1.32c.32.66.86,1.43,1.61,2.34l.74-.66c.43.58.77,1.5.99,2.75l.28,1.47.52,1.4c.21.55.27,2.56.21,6.04-.01.69-.29,3.2-.8,7.51-.63,5.26-.55,9.79.23,13.56.61,2.88,1.05,4.8,1.36,5.8l.47,1.37c.08.19.1,1.2.08,3.03-.01,1.49-.24,2.42-.67,2.79l-1.09.95-.97,1.14-1.38.59c-1.17.5-2.22,2.55-2.07,3.53l.22,1.48c.12.81.15,1.29.1,1.45-.06.2-1.61,2.06-1.85,2.21-.76.48-2.21.54-4.38.18-2.67-.47-5.09-.33-7.22.4l-1.4.48c-2.15.74-3.58,1-4.31.81-.27-1.33.63-6.56,4.07-6.57h1.52c.6,0,1.54-.27,2.84-.81,1.08-.45,1.8-1.05,2.17-1.81.09-.52-.11-.94-.63-1.25-.64-.09-1.1-.02-1.35.21l-1,.93c-.18.16-1.63.44-4.36.81-1.91.27-3.2.83-3.85,1.68-.4.52-.77,1.4-1.07,2.62-.44,1.73-.66,2.66-.7,2.78-.63-.34-1.12-.43-1.46-.29l-1.31.55c-1.03.42-1.85.41-2.47-.04.14-.62.24-1.08.27-1.39l.16-1.51c.02-.1,3-4.58,5.23-4.59h1.51c.48,0,1.44-.25,2.86-.76,1.79-.63,3.71-1.06,5.77-1.27,1.9-.2,2.87-.3,2.91-.31.42-.56.63-1,.61-1.36l-.08-1.51c-.08-1.44.31-2.82,1.13-4.15,1.79-2.94,2.63-5.18,2.49-6.71,0-.07-.09-.55-.27-1.48-.15-.79-.33-1.8-.49-2.98-.09-.61-.29-1.58-.55-2.95-.51-2.64-.76-6.16-.71-10.54.06-5.41-.34-8.86-1.23-10.33-.94-1.55-4.88-3.3-6.06-3.55l-1.45-.3-1.37-.6c-.36-.17-2.74-.81-7.12-1.95-1.75-.45-3.56-1.25-5.44-2.39-7.17-4.37-10.87-6.67-11.09-6.85-.21-2.58-.39-4.07-.53-4.5-.46-1.41-1.41-2.47-2.85-3.18-.4-.12-.82.02-1.26.41-.01,1.81-.02,2.79-.03,2.93-.12,1.19-.48,2.04-1.1,2.54-4.27-.27-7.05-1.12-8.33-2.54l-.96-1.07c-2.26-2.53-4.8-5.07-8.16-5.88-6.91-1.67-23.21-12.74-25.25-17.94l-.77-1.18-.95-1.07c-.2-.21-.35-.62-.47-1.2l-.14-1.47c-.03-.32-1.46-1.78-2.07-1.97l-1.4-.44-1.02-1.02c-.47-.49-1.85-.99-4.15-1.53-13.8-3.23-30.66,3.59-32.17,6.04.68.33,1.56.34,2.62.02l1.42-.41c4.17-1.23,8.03-1.95,11.57-2.15-1.71,1.86-2.55,3.47-2.5,4.82.52.29.91.35,1.15.18l1.13-.79c.78-.53,2.18-.53,4.2.02l1.44.4c.34.1.82-.03,1.42-.4l.87-1.15c.17-.22.54-.41,1.1-.57l1.48.2c.44.06,1.94,0,4.48-.19,5.02-.35,6.84.06,9.7,2.1-.28,1.71-2.79,2.19-7.51,1.41l-1.44-.3c-1.07-.22-3.89.49-4.21,1.11l-.66,1.26c-.58,1.1-2.32,1.85-5.24,2.27-5.34.74-6.22,1.55-8.46,4.94-.6.92-1.27,1.6-2.02,2.03-.9-.67-1.48-1.4-1.74-2.18l-.45-1.41c-.18-.56-.45-.96-.8-1.23-.1-.06-.56-.2-1.38-.39l-1.44-.32c-.38-.08-1.44-1.35-1.48-2.39l-.05-1.52c-.03-1.02-.34-1.93-.91-2.73-1.01-.39-2.14.3-3.38,2.09-1.42,2.05-2.27,3.21-2.54,3.49-.04.03-.38.34-1.05.96-.98.89-1.68,1.57-2.09,2.05-.14.38-.12.78.06,1.16.41.5.77.8,1.1.87l1.38.3c.29.06.64.33,1.05.78-.01.51-.15.97-.43,1.39-.07.12-1.25,1-3.51,2.69-1.87,1.39-3.11,2.79-3.73,4.19l-.58,1.34c-.48,1.12-1.13,1.66-1.95,1.64-2.35-1.38-3.57-2.76-3.64-4.13l-.08-1.52-1.03-1.01-1-.97c-.71-.7-.62-3.21.62-4.09l1.19-.86c.26-.18.65-.47,1.15-.86-1.27-1.49-5.98.78-6.9,2.84l-.58,1.31c-.13.29-.39.71-.75,1.24l-1.12.95c-.92.79-1.93,2.41-3.03,4.89-1.19,2.72-3.32,4.53-6.4,5.41-.9.28-1.37.41-1.41.43l-1.4.53c-.26.1-.67.05-1.24-.15-.27-.57-.43-1.01-.49-1.31l-.26-1.48c-.23-1.33-1.03-2.5-2.38-3.52-1.69-1.29-2.66-2.91-2.92-4.86-.28-2.1-.16-4.1.32-6-.1-.38-.38-.66-.85-.82-1.45.67-2.6,1.49-3.4,2.43l-.92,1.08c-2.28,2.67-5.19,3.73-6.51-.23-.74-2.16-1.03-3.62-.91-4.35l.25-1.47c.06-.32-.15-.72-.63-1.17-.67.08-1.06.31-1.14.68-.77,5.33-.02,9.63,2.29,12.94,2.24,3.25,3.5,5.29,3.78,6.15,1.45,4.62-.37,8.78-5.44,12.46-1.31.96-2.09,1.51-2.34,1.63l-1.39.55c-.12.05-5.57,3.8-11.34,11.05-1.82,2.3-4.56,6.28-8.2,11.9-.38.61-1.54,2.14-3.46,4.58-.02.01-.28.42-.79,1.2l-.77,1.2-.86,1.13-.68,1.24-.86,1.17c-8.47,11.48-12.53,17.94-12.19,19.34l.34,1.42c.06.24-.41,1.62-1.8,1.9l-.08,1.52c-.35.59-.7.89-1.04.92l-1.49.14c-1.68.15-3.29,1.8-4.83,4.96-.89,1.86-2,2.61-3.31,2.23l-1.43-.4c-2.18-.61-4.63-.63-7.36-.06l-1.43.38-1.46.21c-1.75.24-2.72.41-2.91.5l-1.3.66c-.3.15-.77.27-1.42.36-1.56-2.99,1.1-6.02,1.72-6.38.4-.23,2.27-.64,2.9-.6l1.48.1c.22.02,1.13-.46,1.18-1.46-2.97-.59-5.37-.42-7.2.51-1.29.66-2.03,1.23-2.21,1.72l-.51,1.36c-.41,1.13-.82,1.98-1.21,2.54-1.04.4-1.92.18-2.64-.68-.21-2.31,1.08-4.21,3.86-5.71,1.88-1.01,3.73-1.58,5.53-1.72l1.49-.09,1.47-.21c.79-.11,1.29-.11,1.51,0l1.23.62c1.2.62,2.25-.11,3.16-2.18l.51-1.39c.22-.6,1.81-2.4,4.78-5.37,1.39-1.41,3.58-4.55,6.54-9.43,3.79-6.26,6.12-9.92,6.93-10.97,9.65-12.42,13.86-20.62,16.62-28.6l.49-1.39.84-1.17c.18-.27,2.95-11.01-.1-16.12-4.22-7.09-7.68-10.98-10.37-11.7-.48-.02-.91.19-1.3.66-.41,1.08.08,2.34,1.46,3.76,2.66,2.78,4.03,4.71,4.08,5.8.05,1.08-.29,1.94-1.03,2.57-1.05.31-2.14.02-6.06-3.48-2.57-2.29-3.96-3.6-4.21-3.92-.15-.21-1.76-3.85-1.72-4.06l.2-1.35-.07-1.52c-.01-.32.09-.77.3-1.38l.5-1.37c.13-.32,0-.76-.37-1.32-.56-.25-1-.22-1.33.08-.38.48-.62.87-.72,1.15l-.49,1.38c-.25.66-1.62.78-4.12.36-1.89-.34-3.35-.57-4.38-.7.2-.41.36-.69.49-.83l.97-1.08c.86-.96,1.26-2.36,1.18-4.2-.07-1.38-.75-2.6-2.03-3.67-.47-.11-.87.03-1.21.43.01.5.04,1,.09,1.5.12,1.09.1,2.59-.05,4.51l-.12,1.51c-.04.46-.81.99-2.3,1.63l-1.28.53-1.05,1.01c-.24.24-.69.44-1.34.59-.46,0-.87-.17-1.2-.51.06-.98-.67-1.82-1.65-1.92-.57.27-.96.51-1.18.74l-1.01,1.01c-.25.25-.7.34-1.37.29l-1.35-.67-1.42-.41-1.26-.81c-.28-.17-.74-.21-1.37-.09.03.68-.06,1.17-.26,1.47l-.77,1.15c-.21.32-.23.83-.04,1.52-.56-.55-1.37-.93-2.45-1.16l-1.44-.28-1.4-.5c-.71-.26-1.69-.19-2.93.2-4.26,1.36-7,2.1-8.25,2.24-2.55.3-5.95-.03-10.18-.99-3.85-.88-7.76-1.37-11.73-1.49-2.29-.08-3.79-.04-4.48.1l-1.44.31c-.38.09-1.37.15-2.98.2-1.48.05-2.47.19-2.95.38l-1.38.55c-.62.24-2.5.26-2.92.1-1.06-.42-1.7-1.62-1.93-3.62,2.41-1.2,19.19-3.92,21.69-2.84l1.3.56c.57.25,1.99.63,4.27,1.17,1.98.46,3.41.39,4.3-.19l.45-1.1.65.82c.57.05.95-.07,1.16-.36,1.61-1.91-.69-7.59-8.17-6.91-1.14.11-4.56.26-10.24.47-2.16.06-5.09.5-8.78,1.29-2.26.47-11.52,1.57-14.83.99-.3-.05-1.26-.28-2.86-.66-.48-.12-.96-.22-1.45-.3-.37-.27-.49-.7-.36-1.26.44-.19.88-.4,1.29-.64,2.01-1.18,3.16-1.94,3.47-2.29-.45-1.28-1.8-1.54-2.23-1.4l-1.4.44c-3,.93-4.46.28-4.32-1.96.61-.66,2.27-1.66,4.96-3,2.58-1.3,8.35-5.62,17.3-12.96,2.1-1.73,4.58-3.99,7.41-6.8,1.58-1.56,3.09-2.71,4.5-3.42,2.84-1.46,3.67-1.34,5.09.12l1,1.03c.24.24.68.42,1.33.55.39.1.82-.08,1.26-.52.11-.45.09-.88-.07-1.32-.03-.08-.63-.85-1.77-2.3-2.16-2.74-3.7-5.78-4.59-9.1l-.39-1.44c-.39-1.47-1.5-4.15-3.32-8.07.43.18.86.38,1.3.59,2.77,1.31,5.1,2.1,7.02,2.36,9.41,1.31,15.73,3.68,18.99,7.1,2.97,3.12,3.95,7.47,3.33,9.31.28.44.66.62,1.14.55,1.36-1.05,2.07-1.63,2.13-1.71.29-.46.55-2.15.31-2.94l-.43-1.41c-.08-.26-.03-.67.13-1.22,1.89-.89,4.31-1.07,7.26-.52,3.27.61,5.73.59,7.39-.06l1.39-.55c.15-.06.46-.12.89-.18-.51.89-1.29,1.35-2.32,1.37-.37.91.05,1.94.95,2.33,1.46-.72,2.89-1.02,4.27-.93.95.05,2.33.55,4.15,1.46-.35.75-.82,1.41-1.42,1.98.06.55.31.88.77,1,.46-.13.92-.27,1.38-.41,1.84-.55,3.08-1.24,3.71-2.12l-.39-1.22c.24-.19,1.53-.64,3.86-1.38l1.41-.45,1.3-.61c.46-.21,1.38-.36,2.76-.44,0,.56-.12,1.54-.38,2.93-1.42,7.6,3.35,10.42,6.19,12.08,1.62.94,2.69,1.86,3.21,2.73.38.16.74.07,1.11-.26-.09-.99-.27-1.96-.54-2.91l.64-1.04c-.44-.39-.79-.65-1.05-.78l-1.3-.67c-1.33-.68-7.25-7.43-3.98-11.25.92-1.08,2.08-1.81,3.5-2.22,2.8-.82,5.21-1.23,7.22-1.23h1.51l1.29-.3c.56-.14,3.03.06,7.4.59,2.46.3,7.3,1.2,14.52,2.7,1.75.35,5.69.67,11.82.9.69.03,1.68.11,2.96.28,1.3.18,3.27.22,5.91.16,2.11-.04,5.59.1,10.44.42.98.07,7.5.09,19.59.07,3.37-.01,6.34.26,8.92.79,8.37,1.74,17.21,1.64,26.54-.34.28-.07,4.06-1.09,11.33-3.05,5.25-1.43,9.13-2.15,11.64-2.15h1.51l1.47-.18c.12-.02.61.07,1.45.27,1.61.39,3.56.76,5.8,1.11,2.09.33,5.63,2.02,10.62,5.1,1.72,1.07,3.05,1.78,3.97,2.14l1.42.39,1.39.55c1.35.53,2.77.94,4.26,1.2,5.7,1.04,9.92,3.2,12.7,6.47,1.42,1.69,2.4,2.75,2.92,3.18,2.14,1.73,4.47,4.7,7.03,8.89,6.64,10.89,8.7,13.84,13.15,18.92.42.48,1.91,2.32,4.5,5.51,3.47,4.3,7.8,7.89,13.01,10.78l1.36.68,1.18.74c8.15,5.14,10.34,5.96,17.48,7.18,2.96.51,5.88.78,8.75.82.58,0,1.57.12,2.97.3,1.46.2,2.94.3,4.42.3,1.33,0,2.31.04,2.95.11Z"/>
        <path d="M194.83,527.89c-.25.38-.51.77-.78,1.17.22-.7.43-.71.78-1.17Z"/>
        <path d="M212.51,501.44s-.01-.01-.01-.02c.07-.12.08-.13.01.02Z"/>
        <path class="cls-2" d="M456.1,477.05c-.75,3.12-2.24,4.77-4.46,4.93l-1.49.11-1.44.31-1.46-.27c-.87-.17-2.75.07-2.79.16-.1.25.13.62.73,1.12.34.29,2.19.87,5.54,1.74-5.11,2.34-14.26.67-18.43-5.26l-.83-1.18c-.55-.79-1.35-1.25-2.39-1.39-.78.96-.72,2.31.18,4,1.17,2.18,2.26,3.74,3.28,4.72-4.68-.35-7.84-2.24-9.5-5.67-.42-.85-1.15-2.66-2.2-5.42-1.21-3.24-2.83-4.75-4.81-4.56-.26.93.34,2.12,1.77,3.59l1,1.02c.16.16.69,1.53,1.61,4.12-.39.41-.58.75-.6,1l-.1,1.49c-.01.21-.23.44-.67.7-2.53-.88-4.57-3.51-6.11-7.88-.03-.1-.6-1.44-1.69-4.02-.27-.66-.45-1.12-.54-1.38-1.06-3.06-2.71-5.42-4.98-7.08-1.7-1.26-2.92-1.95-3.63-2.1-.48.38-.61.78-.39,1.22,1.3.65,2.66,2,4.08,4.07,1.98,2.85.86,9.39.68,9.56-1-.57-6.97-9.87-6.87-15.51.09-4.44.04-6.94-.12-7.51-.34-.34-.77-.39-1.25-.16-.27.61-.41,1.06-.42,1.38l-.04,1.51-.82,1.1c-.19.27-.47.67-.8,1.2-.26-.24-.4-.42-.41-.53l-.15-1.52c-.18-1.81-.61-3.22-1.33-4.25-.63-.91-1.32-1.23-2.07-.95-1.4-2.24-2.73-3.55-3.99-3.94-.44.5-.6.9-.46,1.21l.57,1.37.62,1.34c.37.82.55,1.27.54,1.35-.02.4-.17.74-.43,1.03-1.05-2.05-1.66-3.91-1.82-5.57-.29-3.07-.94-5.43-1.92-7.07-1.66-2.75-3.02-5.29-4.11-7.6-.98-2.05-1.69-3.3-2.11-3.77-.18-.18-.53-.5-1.08-.96-.49-.4-1.19-1.05-2.14-1.94-1.13-1.05-2.28-1.86-3.48-2.39-1.95-.88-3.31-1.04-4.08-.49.14.64.37,1,.69,1.09l1.42.41c3.41.99,7.27,5.69,11.6,14.11,1.35,2.67,2.39,6.47,3.09,11.42.74,5.32,3.04,11.2,6.87,17.66,3.35,5.63,6.3,9.39,8.89,11.27,3.33,2.43,6.22,4.12,8.67,5.08,2.38.92,3.9,2.07,4.54,3.44l.63,1.32c.32.66.86,1.43,1.61,2.34l.74-.66c.43.58.77,1.5.99,2.75l.28,1.47.52,1.4c.21.55.27,2.56.21,6.04-.01.69-.29,3.2-.8,7.51-.63,5.26-.55,9.79.23,13.56.61,2.88,1.05,4.8,1.36,5.8l.47,1.37c.08.19.1,1.2.08,3.03-.01,1.49-.24,2.42-.67,2.79l-1.09.95-.97,1.14-1.38.59c-1.17.5-2.22,2.55-2.07,3.53l.22,1.48c.12.81.15,1.29.1,1.45-.06.2-1.61,2.06-1.85,2.21-.76.48-2.21.54-4.38.18-2.67-.47-5.09-.33-7.22.4l-1.4.48c-2.15.74-3.58,1-4.31.81-.27-1.33.63-6.56,4.07-6.57h1.52c.6,0,1.54-.27,2.84-.81,1.08-.45,1.8-1.05,2.17-1.81.09-.52-.11-.94-.63-1.25-.64-.09-1.1-.02-1.35.21l-1,.93c-.18.16-1.63.44-4.36.81-1.91.27-3.2.83-3.85,1.68-.4.52-.77,1.4-1.07,2.62-.44,1.73-.66,2.66-.7,2.78-.63-.34-1.12-.43-1.46-.29l-1.31.55c-1.03.42-1.85.41-2.47-.04.14-.62.24-1.08.27-1.39l.16-1.51c.02-.1,3-4.58,5.23-4.59h1.51c.48,0,1.44-.25,2.86-.76,1.79-.63,3.71-1.06,5.77-1.27,1.9-.2,2.87-.3,2.91-.31.42-.56.63-1,.61-1.36l-.08-1.51c-.08-1.44.31-2.82,1.13-4.15,1.79-2.94,2.63-5.18,2.49-6.71,0-.07-.09-.55-.27-1.48-.15-.79-.33-1.8-.49-2.98-.09-.61-.29-1.58-.55-2.95-.51-2.64-.76-6.16-.71-10.54.06-5.41-.34-8.86-1.23-10.33-.94-1.55-4.88-3.3-6.06-3.55l-1.45-.3-1.37-.6c-.36-.17-2.74-.81-7.12-1.95-1.75-.45-3.56-1.25-5.44-2.39-7.17-4.37-10.87-6.67-11.09-6.85-.21-2.58-.39-4.07-.53-4.5-.46-1.41-1.41-2.47-2.85-3.18-.4-.12-.82.02-1.26.41-.01,1.81-.02,2.79-.03,2.93-.12,1.19-.48,2.04-1.1,2.54-4.27-.27-7.05-1.12-8.33-2.54l-.96-1.07c-2.26-2.53-4.77-5.2-8.16-5.88-6.48-1.3-22.79-12.52-25.25-17.94l-.77-1.18-.95-1.07c-.2-.21-.35-.62-.47-1.2l-.14-1.47c-.03-.32-1.46-1.78-2.07-1.97l-1.4-.44-1.02-1.02c-.47-.49-1.85-.99-4.15-1.53-13.8-3.23-30.66,3.59-32.17,6.04.68.33,1.56.34,2.62.02l1.42-.41c4.17-1.23,8.03-1.95,11.57-2.15-1.71,1.86-2.55,3.47-2.5,4.82.52.29.91.35,1.15.18l1.13-.79c.78-.53,2.18-.53,4.2.02l1.44.4c.34.1.82-.03,1.42-.4l.87-1.15c.17-.22.54-.41,1.1-.57l1.48.2c.44.06,1.94,0,4.48-.19,5.02-.35,6.84.06,9.7,2.1-.28,1.71-2.79,2.19-7.51,1.41l-1.44-.3c-1.07-.22-3.89.49-4.21,1.11l-.66,1.26c-.58,1.1-2.32,1.85-5.24,2.27-5.34.74-6.22,1.55-8.46,4.94-.6.92-1.27,1.6-2.02,2.03-.9-.67-1.48-1.4-1.74-2.18l-.45-1.41c-.18-.56-.45-.96-.8-1.23-.1-.06-.56-.2-1.38-.39l-1.44-.32c-.38-.08-1.44-1.35-1.48-2.39l-.05-1.52c-.03-1.02-.34-1.93-.91-2.73-1.01-.39-2.14.3-3.38,2.09-1.42,2.05-2.27,3.21-2.54,3.49-.04.03-.38.34-1.05.96-.98.89-1.68,1.57-2.09,2.05-.14.38-.12.78.06,1.16.41.5.77.8,1.1.87l1.38.3c.29.06.64.33,1.05.78-.01.51-.15.97-.43,1.39-.07.12-1.25,1-3.51,2.69-1.87,1.39-3.11,2.79-3.73,4.19l-.58,1.34c-.48,1.12-1.13,1.66-1.95,1.64-2.35-1.38-3.57-2.76-3.64-4.13l-.08-1.52-1.03-1.01-1-.97c-.71-.7-.62-3.21.62-4.09l1.19-.86c.26-.18.65-.47,1.15-.86-1.27-1.49-5.98.78-6.9,2.84l-.58,1.31c-.13.29-.39.71-.75,1.24l-1.12.95c-.92.79-1.93,2.41-3.03,4.89-1.19,2.72-3.32,4.53-6.4,5.41-.9.28-1.37.41-1.41.43l-1.4.53c-.26.1-.67.05-1.24-.15-.27-.57-.43-1.01-.49-1.31l-.26-1.48c-.23-1.33-1.03-2.5-2.38-3.52-1.69-1.29-2.66-2.91-2.92-4.86-.28-2.1-.16-4.1.32-6-.1-.38-.38-.66-.85-.82-1.45.67-2.6,1.49-3.4,2.43l-.92,1.08c-2.28,2.67-5.19,3.73-6.51-.23-.74-2.16-1.03-3.62-.91-4.35l.25-1.47c.06-.32-.15-.72-.63-1.17-.67.08-1.06.31-1.14.68-.77,5.33-.02,9.63,2.29,12.94,2.24,3.25,3.5,5.29,3.78,6.15,1.45,4.62-.37,8.78-5.44,12.46-1.31.96-2.09,1.51-2.34,1.63l-1.39.55c-.12.05-5.57,3.8-11.34,11.05-1.82,2.3-4.56,6.28-8.2,11.9-.38.61-1.54,2.14-3.46,4.58-.02.01-.28.42-.79,1.2l-.77,1.2-.86,1.13-.68,1.24-.86,1.17c-8.47,11.48-12.53,17.94-12.19,19.34l.34,1.42c.06.24-.41,1.62-1.8,1.9l-.08,1.52c-.35.59-.7.89-1.04.92l-1.49.14c-1.68.15-3.29,1.8-4.83,4.96-.89,1.86-2,2.61-3.31,2.23l-1.43-.4c-2.18-.61-4.63-.63-7.36-.06l-1.43.38-1.46.21c-1.75.24-2.72.41-2.91.5l-1.3.66c-.3.15-.77.27-1.42.36-1.56-2.99,1.1-6.02,1.72-6.38.4-.23,2.27-.64,2.9-.6l1.48.1c.22.02,1.13-.46,1.18-1.46-2.97-.59-5.37-.42-7.2.51-1.29.66-2.03,1.23-2.21,1.72l-.51,1.36c-.41,1.13-.82,1.98-1.21,2.54-1.04.4-1.92.18-2.64-.68-.21-2.31,1.08-4.21,3.86-5.71,1.88-1.01,3.73-1.58,5.53-1.72l1.49-.09,1.47-.21c.79-.11,1.29-.11,1.51,0l1.23.62c1.2.62,2.25-.11,3.16-2.18l.51-1.39c.22-.6,1.81-2.4,4.78-5.37,1.39-1.41,3.58-4.55,6.54-9.43,3.79-6.26,6.12-9.92,6.93-10.97,9.65-12.42,13.86-20.62,16.62-28.6l.49-1.39.84-1.17c.18-.27,2.95-11.01-.1-16.12-4.22-7.09-7.68-10.98-10.37-11.7-.48-.02-.91.19-1.3.66-.41,1.08.08,2.34,1.46,3.76,2.66,2.78,4.03,4.71,4.08,5.8.05,1.08-.29,1.94-1.03,2.57-1.05.31-2.14.02-6.06-3.48-2.57-2.29-3.96-3.6-4.21-3.92-.15-.21-1.76-3.85-1.72-4.06l.2-1.35-.07-1.52c-.01-.32.09-.77.3-1.38l.5-1.37c.13-.32,0-.76-.37-1.32-.56-.25-1-.22-1.33.08-.38.48-.62.87-.72,1.15l-.49,1.38c-.25.66-1.62.78-4.12.36-1.89-.34-3.35-.57-4.38-.7.2-.41.36-.69.49-.83l.97-1.08c.86-.96,1.26-2.36,1.18-4.2-.07-1.38-.75-2.6-2.03-3.67-.47-.11-.87.03-1.21.43.01.5.04,1,.09,1.5.12,1.09.1,2.59-.05,4.51l-.12,1.51c-.04.46-.81.99-2.3,1.63l-1.28.53-1.05,1.01c-.24.24-.69.44-1.34.59-.46,0-.87-.17-1.2-.51.06-.98-.67-1.82-1.65-1.92-.57.27-.96.51-1.18.74l-1.01,1.01c-.25.25-.7.34-1.37.29l-1.35-.67-1.42-.41-1.26-.81c-.28-.17-.74-.21-1.37-.09.03.68-.06,1.17-.26,1.47l-.77,1.15c-.21.32-.23.83-.04,1.52-.56-.55-1.37-.93-2.45-1.16l-1.44-.28-1.4-.5c-.71-.26-1.69-.19-2.93.2-4.26,1.36-7,2.1-8.25,2.24-2.55.3-5.95-.03-10.18-.99-3.85-.88-7.76-1.37-11.73-1.49-2.29-.08-3.79-.04-4.48.1l-1.44.31c-.38.09-1.37.15-2.98.2-1.48.05-2.47.19-2.95.38l-1.38.55c-.62.24-2.5.26-2.92.1-1.06-.42-1.7-1.62-1.93-3.62,2.41-1.2,19.19-3.92,21.69-2.84l1.3.56c.57.25,1.99.63,4.27,1.17,1.98.46,3.41.39,4.3-.19l.45-1.1.65.82c.57.05.95-.07,1.16-.36,1.61-1.91-.69-7.59-8.17-6.91-1.14.11-4.56.26-10.24.47-2.16.06-5.09.5-8.78,1.29-2.26.47-11.52,1.57-14.83.99-.3-.05-1.26-.28-2.86-.66-.48-.12-.96-.22-1.45-.3-.37-.27-.49-.7-.36-1.26.44-.19.88-.4,1.29-.64,2.01-1.18,3.16-1.94,3.47-2.29-.45-1.28-1.8-1.54-2.23-1.4l-1.4.44c-3,.93-4.46.28-4.32-1.96.61-.66,2.27-1.66,4.96-3,2.58-1.3,8.35-5.62,17.3-12.96,2.1-1.73,4.58-3.99,7.41-6.8,1.58-1.56,3.09-2.71,4.5-3.42,2.84-1.46,3.67-1.34,5.09.12l1,1.03c.24.24.68.42,1.33.55.39.1.82-.08,1.26-.52.11-.45.09-.88-.07-1.32-.03-.08-.63-.85-1.77-2.3-2.16-2.74-3.7-5.78-4.59-9.1l-.39-1.44c-.39-1.47-1.5-4.15-3.32-8.07.43.18.86.38,1.3.59,2.77,1.31,5.1,2.1,7.02,2.36,9.41,1.31,15.73,3.68,18.99,7.1,2.97,3.12,3.95,7.47,3.33,9.31.28.44.66.62,1.14.55,1.36-1.05,2.07-1.63,2.13-1.71.29-.46.55-2.15.31-2.94l-.43-1.41c-.08-.26-.03-.67.13-1.22,1.89-.89,4.31-1.07,7.26-.52,3.27.61,5.73.59,7.39-.06l1.39-.55c.15-.06.46-.12.89-.18-.51.89-1.29,1.35-2.32,1.37-.37.91.05,1.94.95,2.33,1.46-.72,2.89-1.02,4.27-.93.95.05,2.33.55,4.15,1.46-.35.75-.82,1.41-1.42,1.98.06.55.31.88.77,1,.46-.13.92-.27,1.38-.41,1.84-.55,3.08-1.24,3.71-2.12l-.39-1.22c.24-.19,1.53-.64,3.86-1.38l1.41-.45,1.3-.61c.46-.21,1.38-.36,2.76-.44,0,.56-.12,1.54-.38,2.93-1.42,7.6,3.35,10.42,6.19,12.08,1.62.94,2.69,1.86,3.21,2.73.38.16.74.07,1.11-.26-.09-.99-.27-1.96-.54-2.91l.64-1.04c-.44-.39-.79-.65-1.05-.78l-1.3-.67c-1.33-.68-7.25-7.43-3.98-11.25.92-1.08,2.08-1.81,3.5-2.22,2.8-.82,5.21-1.23,7.22-1.23h1.51l1.29-.3c.56-.14,3.03.06,7.4.59,2.46.3,7.3,1.2,14.52,2.7,1.75.35,5.69.67,11.82.9.69.03,1.68.11,2.96.28,1.3.18,3.27.22,5.91.16,2.11-.04,5.59.1,10.44.42.98.07,7.5.09,19.59.07,3.37-.01,6.34.26,8.92.79,8.37,1.74,17.21,1.64,26.54-.34.28-.07,4.06-1.09,11.33-3.05,5.25-1.43,9.13-2.15,11.64-2.15h1.51l1.47-.18c.12-.02.61.07,1.45.27,1.61.39,3.56.76,5.8,1.11,2.09.33,5.63,2.02,10.62,5.1,1.72,1.07,3.05,1.78,3.97,2.14l1.42.39,1.39.55c1.35.53,2.77.94,4.26,1.2,5.7,1.04,9.92,3.2,12.7,6.47,1.42,1.69,2.4,2.75,2.92,3.18,2.14,1.73,4.47,4.7,7.03,8.89,6.64,10.89,8.7,13.84,13.15,18.92.42.48,1.91,2.32,4.5,5.51,3.47,4.3,7.8,7.89,13.01,10.78l1.36.68,1.18.74c8.15,5.14,10.34,5.96,17.48,7.18,2.96.51,5.88.78,8.75.82.58,0,1.57.12,2.97.3,1.46.2,2.94.3,4.42.3,1.33,0,2.31.04,2.95.11Z"/>
        <path class="cls-2" d="M307.76,488.89c-.24,2-1.22,4.33-2.94,7-1.39,2.16-2.29,3.98-2.69,5.45-1.2,4.35-1.57,5.38-5.27,6.57-.17.06-3.15.79-8.94,2.19-1.32.32-2.74.86-4.26,1.63-1.89.95-3.32,1.45-4.29,1.49l-1.54.06-1.54.06c-.4.02-.81.33-1.26.93l-1.18,1.05c-.53.47-2.71.87-3.76.17-.12-.09-.51-.08-1.17.04-.29.04-.45.01-.51-.11-.02-.04.07-.58.25-1.62.49-2.75.94-4.33,1.33-4.72.91-.9,2.51-1.01,4.79-.32l1.6.49c.11.03.28.03.51,0,.1-.02.93-.58,2.48-1.71,3.13-2.27,6.27-3.8,9.4-4.61.95-.25,1.44-.38,1.47-.4.71-.49,1.64-2.25,2.78-5.31.76-2.02,2.06-4.17,3.9-6.46.82-1.01,1.27-1.87,1.35-2.56-.14-.39-.86-.79-1.38-.25-.13.16-.28.24-.44.25-.21.59-.81,1.5-1.79,2.71-.72.89-1.32,1.82-1.81,2.79l-.78,1.51c-1.09,2.15-4.75.59-4.87.42l-.95-1.45-.09-.1s-.07-.07-.11-.1c-.03-.04-.07-.07-.1-.1l-.81.05c-.28.68-.71,1.18-1.31,1.51.52,1.09,1.24,1.8,2.14,2.15l1.48.57c.53.21.97.47,1.31.8.56.54.84.96.84,1.27v.3c-.56.37-1.01.59-1.32.68l-1.51.39c-1.8.47-4.07,1.62-6.82,3.45-1.19.8-2.04,1.32-2.56,1.57-.33-.35-.36-1.62-.1-3.81.07-.58.39-1.7.94-3.37.47-1.41.94-2.45,1.41-3.13.21.54,1.13.91,1.57.61.18-.74.11-1.25-.21-1.52l-1.11-.94c-.25-.21-.58-.57-1-1.06l-.37-1.51-.35-1.34.17-1.85.18-1.85.65-1.65c.07-.19.01-.4-.21-.61l-.1-.1h-.9c-.94,1.97-1.62,3.86-2.02,5.67-.63.16-1.03.38-1.19.66l-.74,1.28-.79,1.29-.51,1.43c-.52,1.46-2.17,2.39-4.96,2.77-.98.13-1.48.21-1.52.23l-1.28.64-1.53.36-1.37.78-1.52.47-1.34.72c-.26.15-.4-.22-.4-1.08,0-.69-.04-1.21-.11-1.55.6-.21,1.05-.39,1.33-.51l1.38-.62,1.49-.35c2.17-.51,3.65-1.78,4.45-3.81l.56-1.43c.11-.28,1.92-2.02,5.42-5.22,1.12-1.02,2.34-2.63,3.66-4.84,1.87-3.12,2.7-3.73,5.76-4.52.91-.23,2.44-.36,4.58-.4.51,0,1.16.04,1.95.13.2.03.57-.07,1.11-.3-.04-.72,0-1.43.1-2.13.51-.27.81-.4.91-.4h5.14c.7-.01,1.74-.68,3.13-2.04v-.61c0-.48-.57-.56-1.72-.24-.18.05-10.14,1.08-9.5-3.68.05-.35.92-2.04,2.62-5.05h.2c.55,1.96,3.25,2.77,4.38.97l.89-1.41c1.68-2.67,6.34-4.38,7.05-3.93l1.39.9,1.43.81c.91.51,1.49,1.77,1,2.98-.13.33-.52.75-1.18,1.26l-1.37,1.08c-.31.24-.59.73-.85,1.46.73,1.35,1.67,1.75,2.79,1.23.62-.29,1.07-.43,1.35-.43,1.08.7-.86,2.96-2.09,3.43l-1.63.62c-1.35.51-2.19,1.21-2.53,2.13.02.05.03.11.04.17.05.34.29.68.73,1,.13.1.24.21.34.34.1.75-.1,1.79-.6,3.13-.53.04-.93,0-1.18-.11l-1.06-.49c-.26-.12-.66-.15-1.2-.09l-.06.17c-.04.13-.09.24-.14.33,1.13,1.65,2.73,2.95,4.8,3.9l1.37.63c2.09.96,3.15,4.14,2.84,6.67Z"/>
        <path class="cls-2" d="M309.26,540c.02.1.02.2,0,.3-3.09,2.63-7.71,1.58-9.2.42l-1.4-1.1c-1.96-1.54-4.01-2.22-9.74,3.02-.74.67-7.9,6.2-8.84,6.1l-.91-.1-.91-.1-.8-.2c-.21-.05-.36.05-.46.31-1.67-.56-3.2-.83-4.6-.8-.15-.16-.29-.34-.41-.52-.4-.57-.7-.91-.9-1,.22-.51,1.34-2.27,3.36-5.29.71-1.07,1.45-2.37,2.23-3.91.4-.8.63-1.25.68-1.34,2.96-5.33,2.23-9.29-2.17-11.89-.1-1.56,5.92-5.01,6.6-5.31l1.55-.69c.35-.16.65-.59.93-1.29-.1-.1-.2-.2-.31-.3-1.9.07-4.17,1.16-6.81,3.29-.21-.22-.4-.46-.58-.71-.64-.89-1-1.38-1.09-1.46-.6-.13-.9-.03-.91.31l-.05,1.96c-.03,1.35-.58,2.48-1.66,3.39-2.13,0-3.69,0-4.68-.02-1.1-.03-2.57.05-4.41.24l.1-.3,1.25-1.4c.91-1.02,1.64-2.07,2.18-3.15.36.05.6,0,.72-.14l.48-.57c.11-.12.27-.29.51-.51l1.74-.04c2.43-.06,4.05-.47,4.87-1.22l1.27-1.18h1.52c2.08,0,4.02-.46,5.8-1.37,2.1-1.07,3.96-1.78,5.59-2.13,4.36-.92,6.83-1.45,7.39-1.58,1.46,3.86,2.15,6.31,2.1,7.33-.16,3.07-1.94,6.57-5.35,10.5-2.34,2.7-4.13,4.6-5.37,5.69-1.98,1.74-3.74,3.66-5.27,5.74.46.73,1.01,1.12,1.62,1.17.51.03,1.69-1.28,1.71-1.42l.1-1.01c.02-.2,2.28-2.17,6.79-5.9,2.12-1.77,3.3-2.7,3.54-2.82,1.42-.71,2.69-1.01,3.8-.9.51.5,1.3,1.93,2.35,4.28,1.53,3.41,3.54,5.95,6.05,7.62Z"/>
        <path class="cls-2" d="M246.98,555.7c-.78-.26-1.27-.44-1.48-.52-5.57-2.05-9.06-3.1-10.47-3.13-.59-.02-2.72.33-6.38,1.03-4.73.91-6.98.78-6.75-.41.53-.42.96-.67,1.28-.74l1.53-.37c1.17-.28,2.59-1.68,4.28-4.18,1.02-1.51,2.19-2.44,3.52-2.79,1.36-.35,3.06-.23,3.12-.18l1.19,1.15c.22.22,5.02,3.23,6.09,2.28.11-.11.28-.16.5-.15,1.15.02,2.18.51,3.1,1.46l1.21,1.28c.26.26.74.51,1.45.73.22-.34.39-.69.53-1.07.22.13.42.1.58-.1.44-.5-.14-1-.4-.91l.09-1.92s-.04-.04-.06-.06c-.03-.02-.05-.05-.07-.07l-.07-.07h-1.01c-.24.24-.43.51-.55.82-.48-.22-.95-.46-1.41-.72-2.51-1.45-4.39-2.37-5.62-2.79-1.92-.64-3.27-1.39-4.05-2.24-2.75-2.97-4.03-5.8-3.85-8.48,2.03.66,3.54.66,4.54.01,3.38-2.24,5.73-9.24-.11-9.4-.47-.02-.83.1-1.09.35-.35.34-1.44.33-3.26-.04v-1.82c0-.07.04-.17.13-.31h.17c-.07-.26-.17-.5-.3-.71-.25-.41-.14-1.16.34-2.24l.26-.58-.13-.44c-.65-2.25-.03-4.02,1.84-5.33.35.46,3.89.57,5.04.1,1.8-.72,3.88-2.9,2.73-4.05-.64.26-1.1.49-1.38.68l-1.32.9c-1.66,1.13-3.99.8-7.01-.97.23-.68.1-1.28-.39-1.8-.73-.78-1.82.34-1.82.81v1.53c0,.17-.29,1.13-.86,2.88-.75,2.25-1.4,3.61-1.96,4.09-.1.08-.56.24-1.38.49-2.17.64-3.56,1.18-4.17,1.63-.04.22.23.59.81,1.11.4.03,1.03-.13,1.9-.47.59-.23.93-.32,1.03-.29,1.12.39,1.95,1.17,2.49,2.34l.73,1.58c.49,1.05,1.17,1.98,2.05,2.79.35.19.55.06.6-.41.06,0,.12.02.2.05.78.37,2.3.38,4.55.04,1.09-.17,1.74.14,1.92.91.03.12-.01,1.63-.04,1.66l-.56.56-.71,1.63c-.24.53-2.28,1.64-3.12,1.61-.44-.01-2.11-.73-2.78-1.35l-1.12-1.04c-.33-.31-1.79-.78-4.38-1.43-6.95-1.73-8.94-5.99-5.98-12.79.35-.79.78-1.71,1.29-2.76,1.63-3.34,2.59-6.76,2.89-10.26.18-2.06.4-4.66,3.71-6.1,3.98-1.73,6.48-4.06,7.51-7.01.39-1.11.48-1.98.29-2.62-.04-.17-.48-.6-1.31-1.31l-1.46-1.25c-.31-.27-.66-.76-1.07-1.47,1.1-2.96,1.61-5.04,1.54-6.24l-.08-1.07-.16-.98.03-.15c.02-.08.02-.18.02-.31.75.5,2.01.8,3.78.91,1.5.09,2.5.39,3,.88l1.12,1.11,1.23.94,1.13,1.05c.14.12.72-.03.71-.31.22-.16.44.08.4.2.28.01.45,0,.51-.05l1.29-1.04c.6-.49,1.68-.73,3.25-.73.48,2.52.68,4,.61,4.44-.3,1.89-2.75,3.66-3.02,3.78-.23.1-5.22.83-7.88.37l-.93-.16c-.2-.04-.49-.1-.89-.18-.03.16-.08.3-.18.43l-.22.03.05.4c.12.98,1.63,1.64,4.53,1.98l1.71.2c.37.04.83.31,1.39.79-.61,1.26-.98,2.38-1.1,3.38.47.59.91.72,1.31.41.08-.06.15-.11.24-.15l.06-.26c.18-.09.42.19.41.3,1.94-.1,3.95.12,6.01.64,3.33.85,4.75,5.05,4.71,5.41l-1.1,8.48c-1.07,0-1.86.09-2.39.25l-1.14.37h-3.84c-.09.01-.12.11-.1.31-.79-.28-1.26-.45-1.42-.5l-.61-.2v.4c.01.09-.13.21-.4.35.68.89,1.65,1.35,2.93,1.38l1.72.03.77.72c.87.81,1.46,1.19,1.76,1.14l.71-.1v7.28s-.06.4-.06.4c-.03.21-.04.48-.03.81-.65.61-1.06.91-1.21.91h-1.53c-3.19.01-4.77.85-4.73,2.54.28.63.55.82.81.55l1.04-1.08c.33-.34,2.73-.79,3-.59l1.36.98,1.42.88c.42.26,2.05,6.03,2.08,6.41.12,1.51-.34,3.07-1.41,4.65-.58.11-1.15.07-1.72-.09-.23-.06-1.73-.86-4.48-2.39-1.35-.76-2.04-1-2.08-.74l.1.31c-.07-.03-.18.01-.34.12-.05.03-.11.06-.17.08.53.79,1.78,1.74,3.76,2.84,3.28,1.81,5.51,3.84,6.71,6.07.17.31,1.19,3.23,3.06,8.78,1.61,4.76-2.41,8.76-12.66,5.28Z"/>
        <path d="M126.6,431.52c.19-.16-.06-.41-.72-.74l-.49-.26-1.77-.15c-.73-.06-1.78-.53-3.14-1.39-3.2-2.01-5.67-1.5-7.41,1.54l-.78,1.37c-.47.82-3.14,2.33-8.02,4.53-5.11,2.3-8.37,3.89-9.78,4.76v.2c.67,1.25,2.93.75,7.81-1.39l1.39-.6,1.37-.64c1.67-.78,3.08-1.35,4.22-1.71l1.49-.39,1.39-.56c.84-.34,1.27-.5,1.3-.51.37-.05.86.02,1.47.19l1.41.41c.64.19,1.13.2,1.47.04.09-.04.49-.12,1.21-.25.49-.09,2.12-1.23,2.12-1.52v-.71c-.36-.22-.57-.53-.64-.94-.45-.24-.94-.13-1.48.33l-.65.56c-.48.41-1.02.29-1.63-.35l-.48-.8-.57-.7v-.2c0-1.05,2.1-1.95,3.2-1.15.19.13.38.25.59.34.05-.03.1-.07.15-.11v-.09c.19-.02.32,0,.4.05l1.72.91,1.95.39,1.88.56c.19.06.33.03.4-.1-.06-.04-.12-.16-.2-.35.25-.34.41-.52.47-.52l.34-.04h0Z"/>
        <path d="M457.7,475.77c-.47-.44-.86-.66-1.17-.65l-1.49.05-1.34-.35-1.5.06c-7.73.32-21.81-4.18-24.2-5.51l-1.19-.74-1.38-.53c-1.12-.45-8.59-4.78-11.13-6.87-3.53-2.91-7.78-7.43-12.76-13.56-2.64-3.24-6.46-8.79-11.47-16.63-3.62-5.65-7.76-10.3-12.44-13.94-2.34-1.83-3.94-2.92-4.79-3.29-.18-.08-2.57-.67-7.17-1.76l-1.42-.41-1.44-.32c-1.23-.27-2.55-.91-3.94-1.9-.63-.45-1.02-.72-1.17-.82-1.27-.78-2.44-1.61-3.52-2.46-5.32-4.27-15.75-5.99-16.57-5.88l-1.46.2c-.14.02-2.11-.03-5.91-.14-4.6-.13-9.45.44-14.54,1.7-.35.09-.84.19-1.44.3-.71.13-2.61.62-5.72,1.46-4.2,1.14-8.07,1.77-11.61,1.9-1.01.03-2,.1-2.98.2-2.18.24-5.67.1-10.46-.38l-1.5-.1-1.44-.29c-1.94-.41-4.92-.6-8.96-.6-10.9.02-17.33-.07-19.29-.26-.6-.06-3.06-.06-7.39.01-7.52.11-14.4-.5-20.64-1.84-4.96-1.07-11.86-1.85-20.67-2.33-5.19-.3-9.11-.25-11.77.11l-1.47.2-1.44-.29c-1.56-.32-4.28.49-8.14,2.47-.84.42-1.3.64-1.37.67l-1.31.51-1.19.76c-1.36.86-4.38,1.65-5.71,1.28l-1.43-.41-1.44.13c-.23.02-2.8-.45-2.91-.52-.31-.2-.53-.46-.67-.78-.09-.18-.09-1.17,0-2.97-.09-.42-.41-.75-1-1-.05.02-.88.39-2.47,1.11-2.78,1.26-6.13,1.6-10.04,1.03-3.2-.46-5.65-.39-7.33.21-.55-.29-.93-.55-1.13-.78l-.99-1.07c-3.1-3.42-8.42-5.72-15.92-6.9-3.65-.58-7.83-1.9-12.55-3.96-2.12-.94-3.42-1.45-3.9-1.54-1.11.28-1.65,1.01-1.59,2.16.6.93,1.23,2.22,1.88,3.89-.3.45-.57.69-.82.69h-1.51s-3.03,0-3.03,0c-.39.12-.67.43-.86.93.2.45.38.92.55,1.38.4,1.19.93,2.57,1.62,4.12.18.42.5,1.34.95,2.8.7,2.23,1.2,3.63,1.49,4.18.42.79,1.03,1.54,1.81,2.22l1.09.96c.18.15.33.46.48.95-2.93,1.36-5.92,3.64-8.96,6.84-1.86,1.97-3.6,3.61-5.2,4.93-1.54,1.28-3.02,2.46-4.46,3.58-5.15,4.03-8.7,6.53-10.63,7.48l-1.21.61c-4.59,2.28-4.97,3.14-4.19,6.43.54,2.35,1.06,3.63,1.53,3.85l1.3.6c.24.11.59.32,1.08.64l1.03,1.01c1.61,1.57,4.35,2.42,8.26,2.59,1.14.04,3.59-.27,7.32-.92,1.97-.35,3.95-.49,5.92-.43-1.33,1.08-3.54,1.72-6.65,1.93-2.27.17-3.63.53-4.06,1.08-.41.55-.57.95-.46,1.24l.55,1.35.26,1.47c.02.11,1.22,2.03,1.53,2.36,1.37,1.59,4.14,2.65,6.61,1.6l1.23-.54c1.76-.75,5.16-1.15,10.23-1.23,3.05-.05,5.47.23,7.25.82,2.53.86,4.44,1.32,5.72,1.4l1.5.1,1.34.42c1.13.34,6.47.98,8.84.47l1.4-.51,1.35-.38c.39-.11,1.21-.57,2.46-1.39,1.6-1.06,2.97-1.54,4.11-1.42,1.84.19,3.15.78,3.91,1.79l.84,1.11c.2.26.57.39,1.13.38.82-.02,1.46-.65,1.93-1.9l.5-1.4c.1-.24.37-.52.82-.85,1.84,1.93,3.84,1.85,6-.27.16.97.59,1.82,1.27,2.54,2.13.08,3.55-.24,4.27-.9l1.05-.99c.47-.43.84-.71,1.1-.81.46-.17,1.47-.21,3.01-.11,1.81.12,6.71,2.05,8.35,5.37l.54,1.35c1.43,3.51,3.4,6.17,5.93,8.04.68.49,1.88,1.32,3.63,2.49,1.25.82,2.32,1.78,3.22,2.88.65.77,1.34,2.05,2.09,3.82l.57,1.36c.25.59-.29,3.52-1.62,8.8-1.68,6.71-6.1,14.08-13.27,22.12-2.09,2.34-3.5,4.24-4.23,5.72l-.65,1.34c-.86,1.77-1.55,3.04-2.09,3.82-1.32,1.88-2.09,3.12-2.35,3.74l-.54,1.37c-.22.57-1.41,2.07-3.53,4.5-.59.69-.91,1.05-.93,1.08l-.87,1.13-1.1.85c-1.8,1.38-3.01,2.86-3.63,4.44l-.56,1.38c-.09.24-.35.54-.78.9-1.72.07-5.12.54-10.17,1.47-4.4.79-7.02,3.26-7.87,7.39-.6,2.88.75,4.31,4.07,4.31h1.51c.32,0,.74.16,1.3.51l.98.99c.51.52,2.94.3,7.27-.68,4.02-.9,7.45-1.25,10.27-1.06,2.34.16,3.79.1,4.33-.16,1.38-.64,2.3-1.69,2.81-3.17l.47-1.41c.46-1.37,1.6-2.19,3.41-2.46l1.41-.2c.69-.1,1.31-.83,1.86-2.18l.54-1.34.94-1.04c.24-.27.39-.74.46-1.4l-.32-1.47c-.02-.09.28-.55.89-1.38.21.22.4.48.33.74l1.15.79c.13.33,1.06-.44,1.06.23,1.17,0,.1-3.14.79-2.96.28-.55,1.11-3.43,1.14-3.71,0,0,.98,1.87,1.36,1.44-.31,1.16,1.34-1.33,2.46-.9.69-.74.31-3.11.84-5.88.1-.49.19-.85.27-1.1t.01-.02c.22-.7.43-.71.78-1.17.03-.03.05-.05.06-.08.01-.01.03-.03.04-.05.33.17,1.05.71,1.08.85l.02,2.62c.07.29.91-1.08,1.26-.57.59.02.67.42.83.04-.04-3.2-1.4-6.58,2.13-10.3.6.76,1.08,1.57,1.15,2.54.26.35,1.12.07,1.68-.11.3-4.22-.31-7.68,3.24-10.03.37.31.57.56.58.77l.09,1.5c.02.35.32.71.9,1.09.34-.28.59-.63.75-1.05.01-.04.04-.55.07-1.51.12-3.59.52-5.92,1.32-7.21,0,0,2.1-4.29,2.47-4.97-.15-.21-.22-.41-.2-.58,1.38-1.73,2.61-3.19,3.69-4.4-1.71,35.78-11.97,39.66-20.3,42.29-2.22.69-4.26,1.61-4.76,3.48-.88,3.3-.99,5.27-.99,5.27,0,0,13.77-1.84,25.73-.71,1.31.12.27-6.1,3.78-6.1.23-.47.05-1.38-.52-2.75-.19-.46-.31-.95-.35-1.49,1.97-1.23,3.06-2.41,3.28-3.55,0-.05.42-2.46.21-4.21-.55-.37-1.09-.79-1.59-1.28.49-.02.96-.06,1.14-.15.24.33.38.84.45,1.43,1.04.67,2.19,1.14,3.43,1.39l1.45.31c2.16.45,3.4,1.11,3.71,1.98.06.17.04.67-.05,1.48l-.29,1.48c-.36,1.8.45,4.96,1.24,5.69l1.05.99c.12.13.28.39.45.79-2.13.14-3.99,1.55-5.59,4.2-1.04,1.71-2.03,2.72-2.97,2.99l-1.42.42c-1.82.53-2.76,1.41-2.84,2.65.28,1.47,1.41,2.2,3.38,2.19,2.03-.02,4.95-.43,8.76-1.23,2.02-.43,3.95-.34,5.8.29.06.02.53.17,1.4.45,1.75.56,3.6,1.22,5.53,1.96,3.35,1.29,6.22,1.92,8.65,1.92,3.49-.02,5.92-1.22,7.27-3.59,1.65.96,3.6,1.26,5.81.98.45,1.14,1.13,2.19,1.29,3.03.83.86.09,4.35,2.85,4.8.81,0,1.01-.71,1.02-1.12,0-.22-.03-.44-.03-.61-1.43-1.7-1.36-4.3-2.29-6.49,2.03-.29,3.95-.41,5.67-.17,2.75.37,4.62.1,5.61-.81,1.39-1.29,1.54-2.5.43-3.64.51-.38.9-.63,1.18-.76l1.35-.68c.54-.27,2.14-1.6,4.7-3.87,1.84,1.49,3.85,2.73,5.59,3.84l.76.5-.23-.88c-.11-.44-.16-.86-.16-1.26-.02-2.29,1.62-4.17,2.6-6.49.06-.26.15-.55.23-.82.21.09.41.18.59.34l1.11.96c2.31,2.02,7.85,2.49,10.96-.04.96-.79,1.29-1.59.96-2.42-.04-.07-.73-.72-2.11-1.99-1.48-1.34-2.64-2.87-3.48-4.55l-.66-1.31c-1.04-2.1-1.78-3.39-2.18-3.84-1.19-1.35-2.51-1.62-3.94-.84.08-.17.8-1.41,2.2-3.73,1.17-1.96,1.78-3.79,1.8-5.47.01-1.02-.08-1.9-.21-2.7l2.83-2.81.1-6.09-2.76-1.22c.44-1.06.92-2.39,1.45-4.07.39-1.24,1.04-2.54,1.96-3.88,2.17-3.12,3.35-5.77,3.57-7.97.2-2.14-.99-6.7-3.26-7.83l-1.36-.67c-.24-.11-.59-.36-1.06-.74.19-.46.5-.81.93-1.08.03-.02.5-.13,1.44-.34,2.86-.63,4.7-1.29,5.52-1.95,1.73-1.39,2.66-3.04,2.77-4.93l.08-1.49c.01-.23.43-1.12,1.24-2.66,1.39-2.62,1.09-4.89-.87-6.78-.18-.18-1-.72-2.44-1.62-.56-.34-1.64-1.3-3.24-2.87-.06-.57.2-.94.76-1.12,2.82,1.02,5.08,2.63,6.8,4.81,2.46,3.17,3.59,4.63-.8,13.58-1.85,3.77-1.47,5.12,6.16,9.35,6.7,3.74,10.71,6.44,12,8.1l.87,1.12c.63.81,2.06.95,4.29.42,2.07-.49,3.43-.61,4.09-.36.24.62.14,1.04-.32,1.3-.89-.08-2.36.1-4.41.51-2.82.56-3.41,1.45-4.2,3.42-1.64,4.06-2.06,6.73-4.62,10.17-.53.73-.81,1.1-.83,1.13l-.7,1.21c.39,1.64-14.61,17.06-19.99,17.06-3.31,0-3.85-.48-4.03.77.22.6-1.24-.99-.97-.84l.48,1.61c-4.47-1.64.08,3.54.36,4.13l1.69,2.85c.36,1.29,1.56,2.01,3.09,2.85.74.41,3.9-.39,4.05-.35.2.04,1.03-.02,2.47-.2.52-.07,3.72.41,4.6.51,2.12.22,2.65-4.65,2.7-6.66l.04-1.5c0-.2.88-1.95,1.38-2.55.18-.22,1.35-1.04,3.48-2.44.75-.5,1.51-1.12,2.29-1.88.14-.04.3-.09.48-.16.35-.14.59-.18.74-.12.29,1.65.86,2.3,1.72,1.97.2-.08.3-.22.3-.41v-1.83c0-.31.28-.83.85-1.55.37-.46.79-.85,1.27-1.17v.31c0,.11.85,1.11,1.73,1.51.35.16.72.26,1.1.3.04-.09.09-.17.14-.24.17-.24.18-.98.05-2.22-.16-1.37.01-2.77.51-4.21h.3c.57,1.42,1.21,2.05,1.92,1.86.05-.14.12-.28.19-.42l.21-.03c-.21-2.97-.24-4.78-.08-5.42.2-.85.44-1.54.73-2.06.09,0,.15.04.15.1l.1,1.58c.02.35.21.82.58,1.42-.07.38.38.54,1.35.48.03-.13.1-.25.2-.34h.2c-.16-.89-.26-1.42-.31-1.62-.29-1.2.23-5.28,2.06-7.38l.05.3.14,1.49c.1,1.08.6,1.89,1.48,2.44.09.02.19.02.31,0,.3-.58.6-1.69.9-3.3.26-1.43.58-2.55.96-3.37l.04.41c.05.4.85,2.17,1.01,2.31.32.28.7.42,1.12.41.21-.48.48-1.55.8-3.2.24-1.27.65-2.6,1.23-4.02.74-.52,1.33-1.01,1.78-1.47,1.31-1.34,2.16-2.47,2.57-3.38,1.2-2.72.92-4.96-.81-6.74-.33-.34-1.11-.89-2.37-1.67-2.64-1.64-4.45-3.8-5.46-6.47-.76-1.98-1.28-3.33-1.58-4.07.07-.18.22-.33.42-.43.39.28.78.56,1.18.85.39.28.79.55,1.18.84l1.18.85c4.6,3.28,8.48,5.26,11.65,5.92,4.49.93,8.19,2.31,11.09,4.11,4.51,2.81,8.97,4.83,13.41,6.08l1.42.4c5.66,1.6,8.9,2.61,9.7,3.06,5.13,2.86,5.81,3.42,6.14,8.87.04.68.12,4.72.2,12.12.03,2.3.26,4.79.7,7.47.3,1.89-.08,3.8-1.1,5.74-1.3,2.45-1.97,3.72-1.99,3.83l-.39,1.45c-.25.93-3.46,1.26-3.89,1.16l-1.43-.34c-2.96-.67-4,.17-6.34,2.46l-1.03,1.02c-.22.22-.65.41-1.26.57l-1.41.4c-.94.26-2.5,2.25-3.14,4.6-.94,3.47,0,8.11,4.54,6.06l1.3-.59c.49-.22.95-.3,1.39-.23.13.02.56.26,1.28.71l1.18.73,1.45.28,1.44.29,1.47-.24c.25-.04.74-.14,1.45-.28,2.18-.42,4.12-.59,5.8-.48,3.9.24,6.69-.39,8.36-1.9,1.45-1.33,2.06-2.62,1.79-3.84l-.32-1.47c-.25-1.19-.19-2.15.16-2.9.43,0,.86-.05,1.26-.19.69-.21,1.05-.4,1.12-.57l.58-1.38,1.05-1,1.06-.99c.55-.52,1.12-4.38.55-7.31-.06-.33-.34-1.29-.82-2.89-2.03-6.8-1.81-10.76-.92-17.89.76-6.04.81-10.55.14-13.53-.17-.75-.32-1.74-.44-2.96-.2-2-.64-3.39-1.3-4.15-.03-.19.05-.41.24-.65,1.58,1.1,2.84,1.6,3.82,1.51l.09-1.43c.21-.14.42-.2.64-.18,2.05,1.83,4.66,3.13,7.86,3.92,1.98.47,3.43.52,4.35.14l1.24-.53c.3-.12.77-.14,1.41-.08.38-.36.49-.79.32-1.25-.78-.56-1.57-1.11-2.37-1.63.11.02.97.3,2.59.83,4.48,1.52,5.37,1.37,8.65.52,2.4-.63,4.48-1.76,6.27-3.39l-.19-1.22c.3-.43.56-.72.76-.85l1.19-.75c1.31-.81,2.12-2,2.41-3.53.12-.64.06-1.64-.18-2.97ZM246.98,555.7c-.78-.26-1.27-.44-1.48-.52-5.57-2.05-9.06-3.1-10.47-3.13-.59-.02-2.72.33-6.38,1.03-4.73.91-6.98.78-6.75-.41.53-.42.96-.67,1.28-.74l1.53-.37c1.17-.28,2.59-1.68,4.28-4.18,1.02-1.51,2.19-2.44,3.52-2.79,1.36-.35,3.06-.23,3.12-.18l1.19,1.15c.22.22,5.02,3.23,6.09,2.28.11-.11.28-.16.5-.15,1.15.02,2.18.51,3.1,1.46l1.21,1.28c.26.26.74.51,1.45.73.22-.34.39-.69.53-1.07.22.13.42.1.58-.1.44-.5-.14-1-.4-.91l.09-1.92s-.04-.04-.06-.06c-.03-.02-.05-.05-.07-.07l-.07-.07h-1.01c-.24.24-.43.51-.55.82-.48-.22-.95-.46-1.41-.72-2.51-1.45-4.39-2.37-5.62-2.79-1.92-.64-3.27-1.39-4.05-2.24-2.75-2.97-4.03-5.8-3.85-8.48,2.03.66,3.54.66,4.54.01,3.38-2.24,5.73-9.24-.11-9.4-.47-.02-.83.1-1.09.35-.35.34-1.44.33-3.26-.04v-1.82c0-.07.04-.17.13-.31h.17c-.07-.26-.17-.5-.3-.71-.25-.41-.14-1.16.34-2.24l.26-.58-.13-.44c-.65-2.25-.03-4.02,1.84-5.33.35.46,3.89.57,5.04.1,1.8-.72,3.88-2.9,2.73-4.05-.64.26-1.1.49-1.38.68l-1.32.9c-1.66,1.13-3.99.8-7.01-.97.23-.68.1-1.28-.39-1.8-.73-.78-1.82.34-1.82.81v1.53c0,.17-.29,1.13-.86,2.88-.75,2.25-1.4,3.61-1.96,4.09-.1.08-.56.24-1.38.49-2.17.64-3.56,1.18-4.17,1.63-.04.22.23.59.81,1.11.4.03,1.03-.13,1.9-.47.59-.23.93-.32,1.03-.29,1.12.39,1.95,1.17,2.49,2.34l.73,1.58c.49,1.05,1.17,1.98,2.05,2.79.35.19.55.06.6-.41.06,0,.12.02.2.05.78.37,2.3.38,4.55.04,1.09-.17,1.74.14,1.92.91.03.12-.01,1.63-.04,1.66l-.56.56-.71,1.63c-.24.53-2.28,1.64-3.12,1.61-.44-.01-2.11-.73-2.78-1.35l-1.12-1.04c-.33-.31-1.79-.78-4.38-1.43-6.95-1.73-8.94-5.99-5.98-12.79.35-.79.78-1.71,1.29-2.76,1.63-3.34,2.59-6.76,2.89-10.26.18-2.06.4-4.66,3.71-6.1,3.98-1.73,6.48-4.06,7.51-7.01.39-1.11.48-1.98.29-2.62-.04-.17-.48-.6-1.31-1.31l-1.46-1.25c-.31-.27-.66-.76-1.07-1.47,1.1-2.96,1.61-5.04,1.54-6.24l-.08-1.07-.16-.98.03-.15c.02-.08.02-.18.02-.31.75.5,2.01.8,3.78.91,1.5.09,2.5.39,3,.88l1.12,1.11,1.23.94,1.13,1.05c.14.12.72-.03.71-.31.22-.16.44.08.4.2.28.01.45,0,.51-.05l1.29-1.04c.6-.49,1.68-.73,3.25-.73.48,2.52.68,4,.61,4.44-.3,1.89-2.75,3.66-3.02,3.78-.23.1-5.22.83-7.88.37l-.93-.16c-.2-.04-.49-.1-.89-.18-.03.16-.08.3-.18.43l-.22.03.05.4c.12.98,1.63,1.64,4.53,1.98l1.71.2c.37.04.83.31,1.39.79-.61,1.26-.98,2.38-1.1,3.38.47.59.91.72,1.31.41.08-.06.15-.11.24-.15l.06-.26c.18-.09.42.19.41.3,1.94-.1,3.95.12,6.01.64,3.33.85,4.75,5.05,4.71,5.41l-1.1,8.48c-1.07,0-1.86.09-2.39.25l-1.14.37h-3.84c-.09.01-.12.11-.1.31-.79-.28-1.26-.45-1.42-.5l-.61-.2v.4c.01.09-.13.21-.4.35.68.89,1.65,1.35,2.93,1.38l1.72.03.77.72c.87.81,1.46,1.19,1.76,1.14l.71-.1v7.28s-.06.4-.06.4c-.03.21-.04.48-.03.81-.65.61-1.06.91-1.21.91h-1.53c-3.19.01-4.77.85-4.73,2.54.28.63.55.82.81.55l1.04-1.08c.33-.34,2.73-.79,3-.59l1.36.98,1.42.88c.42.26,2.05,6.03,2.08,6.41.12,1.51-.34,3.07-1.41,4.65-.58.11-1.15.07-1.72-.09-.23-.06-1.73-.86-4.48-2.39-1.35-.76-2.04-1-2.08-.74l.1.31c-.07-.03-.18.01-.34.12-.05.03-.11.06-.17.08.53.79,1.78,1.74,3.76,2.84,3.28,1.81,5.51,3.84,6.71,6.07.17.31,1.19,3.23,3.06,8.78,1.61,4.76-2.41,8.76-12.66,5.28ZM233.86,511.63v-.1h.2v.2h-.1l-.1-.1ZM277.95,554.24c-.14-.52-.41-.74-.81-.64-1.13.28-2.07.34-2.83.19l-1.82-.37c-1.7-.34-3.33-.24-4.9.31-1.5.52-2.63.75-3.38.69-.46-.49-.81-.86-1.05-1.09l-1.13-1.09-.51-1.52c-.11-.34-.28-.86-.51-1.54l-.55-1.53.1-.4.54-.67.39-.77c.07-.14.23-.34.48-.58-.91-5.75-1.2-7.59,4.43-9.76.78,1.32,1.52.59,1.52.35v-.71l-.65-.71c-.59-.66-.61-1.43-.07-2.31.4-.65.46-1.09.18-1.34-.57-.52-2.49.45-2.99,1.3l-.8,1.39c-1.01,1.72-4.01,3.09-5.27,3.16-.21-.33-.41-.48-.61-.46.9-1.66.9-2.57,0-2.73l.6-3.74c.23-1.45-.11-2.78-1.02-3.98,0-.04,3.15-.37,9.44-.99,3.64-.36,6.26-.08,7.87.83,1.89,1.08,2.79,2.51,2.67,4.28-.19,2.8-.42,3.63-1.28,5.31-1.21,2.33-2.86,5.03-4.96,8.09-2.77,4.06-2.81,4.51-2.03,5.49.51.64,1.07.96,1.67.96h1.72s1.67.34,1.67.34l1.69.3c.65.11,2.15.86,4.52,2.27.03,1.26-1.95,1.83-2.32,1.67ZM258.4,508.39c.06-.12,1.07-.32,3.04-.61.61-.09,1.65-.18,3.12-.24l1.57-.07,1.39-.64c2.73-1.27,4.47-1.34,5.22-.23-2.21.11-3.69.84-4.44,2.18-.5.87-.8,1.98-.91,3.33-.5-.03-1.28-.2-2.33-.51-.83-.24-1.66-.29-2.48-.14-.6.1-1.19.09-1.79-.05-.39-.09-.92-.02-1.58.21-.32-.46-.56-1.16-.68-2.09-.11-.73-.15-1.1-.13-1.14ZM293.94,527.55c-2.34,2.7-4.13,4.6-5.37,5.69-1.98,1.74-3.74,3.66-5.27,5.74.46.73,1.01,1.12,1.62,1.17.51.03,1.69-1.28,1.71-1.42l.1-1.01c.02-.2,2.28-2.17,6.79-5.9,2.12-1.77,3.3-2.7,3.54-2.82,1.42-.71,2.69-1.01,3.8-.9.51.5,1.3,1.93,2.35,4.28,1.53,3.41,3.54,5.95,6.05,7.62.02.1.02.2,0,.3-3.09,2.63-7.71,1.58-9.2.42l-1.4-1.1c-1.96-1.54-4.01-2.22-9.74,3.02-.74.67-7.9,6.2-8.84,6.1l-.91-.1-.91-.1-.8-.2c-.21-.05-.36.05-.46.31-1.67-.56-3.2-.83-4.6-.8-.15-.16-.29-.34-.41-.52-.4-.57-.7-.91-.9-1,.22-.51,1.34-2.27,3.36-5.29.71-1.07,1.45-2.37,2.23-3.91.4-.8.63-1.25.68-1.34,2.96-5.33,2.23-9.29-2.17-11.89-.1-1.56,5.92-5.01,6.6-5.31l1.55-.69c.35-.16.65-.59.93-1.29-.1-.1-.2-.2-.31-.3-1.9.07-4.17,1.16-6.81,3.29-.21-.22-.4-.46-.58-.71-.64-.89-1-1.38-1.09-1.46-.6-.13-.9-.03-.91.31l-.05,1.96c-.03,1.35-.58,2.48-1.66,3.39-2.13,0-3.69,0-4.68-.02-1.1-.03-2.57.05-4.41.24l.1-.3,1.25-1.4c.91-1.02,1.64-2.07,2.18-3.15.36.05.6,0,.72-.14l.48-.57c.11-.12.27-.29.51-.51l1.74-.04c2.43-.06,4.05-.47,4.87-1.22l1.27-1.18h1.52c2.08,0,4.02-.46,5.8-1.37,2.1-1.07,3.96-1.78,5.59-2.13,4.36-.92,6.83-1.45,7.39-1.58,1.46,3.86,2.15,6.31,2.1,7.33-.16,3.07-1.94,6.57-5.35,10.5ZM306.04,470.49l-1.63.62c-1.35.51-2.19,1.21-2.53,2.13.02.05.03.11.04.17.05.34.29.68.73,1,.13.1.24.21.34.34.1.75-.1,1.79-.6,3.13-.53.04-.93,0-1.18-.11l-1.06-.49c-.26-.12-.66-.15-1.2-.09l-.06.17c-.04.13-.09.24-.14.33,1.13,1.65,2.73,2.95,4.8,3.9l1.37.63c2.09.96,3.15,4.14,2.84,6.67-.24,2-1.22,4.33-2.94,7-1.39,2.16-2.29,3.98-2.69,5.45-1.2,4.35-1.57,5.38-5.27,6.57-.17.06-3.15.79-8.94,2.19-1.32.32-2.74.86-4.26,1.63-1.89.95-3.32,1.45-4.29,1.49l-1.54.06-1.54.06c-.4.02-.81.33-1.26.93l-1.18,1.05c-.53.47-2.71.87-3.76.17-.12-.09-.51-.08-1.17.04-.29.04-.45.01-.51-.11-.02-.04.07-.58.25-1.62.49-2.75.94-4.33,1.33-4.72.91-.9,2.51-1.01,4.79-.32l1.6.49c.11.03.28.03.51,0,.1-.02.93-.58,2.48-1.71,3.13-2.27,6.27-3.8,9.4-4.61.95-.25,1.44-.38,1.47-.4.71-.49,1.64-2.25,2.78-5.31.76-2.02,2.06-4.17,3.9-6.46.82-1.01,1.27-1.87,1.35-2.56-.14-.39-.86-.79-1.38-.25-.13.16-.28.24-.44.25-.21.59-.81,1.5-1.79,2.71-.72.89-1.32,1.82-1.81,2.79l-.78,1.51c-1.09,2.15-4.75.59-4.87.42l-.95-1.45-.09-.1s-.07-.07-.11-.1c-.03-.04-.07-.07-.1-.1l-.81.05c-.28.68-.71,1.18-1.31,1.51.52,1.09,1.24,1.8,2.14,2.15l1.48.57c.53.21.97.47,1.31.8.56.54.84.96.84,1.27v.3c-.56.37-1.01.59-1.32.68l-1.51.39c-1.8.47-4.07,1.62-6.82,3.45-1.19.8-2.04,1.32-2.56,1.57-.33-.35-.36-1.62-.1-3.81.07-.58.39-1.7.94-3.37.47-1.41.94-2.45,1.41-3.13.21.54,1.13.91,1.57.61.18-.74.11-1.25-.21-1.52l-1.11-.94c-.25-.21-.58-.57-1-1.06l-.37-1.51-.35-1.34.17-1.85.18-1.85.65-1.65c.07-.19.01-.4-.21-.61l-.1-.1h-.9c-.94,1.97-1.62,3.86-2.02,5.67-.63.16-1.03.38-1.19.66l-.74,1.28-.79,1.29-.51,1.43c-.52,1.46-2.17,2.39-4.96,2.77-.98.13-1.48.21-1.52.23l-1.28.64-1.53.36-1.37.78-1.52.47-1.34.72c-.26.15-.4-.22-.4-1.08,0-.69-.04-1.21-.11-1.55.6-.21,1.05-.39,1.33-.51l1.38-.62,1.49-.35c2.17-.51,3.65-1.78,4.45-3.81l.56-1.43c.11-.28,1.92-2.02,5.42-5.22,1.12-1.02,2.34-2.63,3.66-4.84,1.87-3.12,2.7-3.73,5.76-4.52.91-.23,2.44-.36,4.58-.4.51,0,1.16.04,1.95.13.2.03.57-.07,1.11-.3-.04-.72,0-1.43.1-2.13.51-.27.81-.4.91-.4h5.14c.7-.01,1.74-.68,3.13-2.04v-.61c0-.48-.57-.56-1.72-.24-.18.05-10.14,1.08-9.5-3.68.05-.35.92-2.04,2.62-5.05h.2c.55,1.96,3.25,2.77,4.38.97l.89-1.41c1.68-2.67,6.34-4.38,7.05-3.93l1.39.9,1.43.81c.91.51,1.49,1.77,1,2.98-.13.33-.52.75-1.18,1.26l-1.37,1.08c-.31.24-.59.73-.85,1.46.73,1.35,1.67,1.75,2.79,1.23.62-.29,1.07-.43,1.35-.43,1.08.7-.86,2.96-2.09,3.43ZM368.16,479.99h-.1l-.8-.2v-.1h.6l.3.1v.2ZM368.35,480.07l-.07.03v-.1c.07-.01.14.01.2.05l-.13.02ZM435.93,486.92l-.06.03v-.1c.07,0,.14.01.2.05l-.14.02ZM451.64,481.98l-1.49.11-1.44.31-1.46-.27c-.87-.17-2.75.07-2.79.16-.1.25.13.62.73,1.12.34.29,2.19.87,5.54,1.74-5.11,2.34-14.26.67-18.43-5.26l-.83-1.18c-.55-.79-1.35-1.25-2.39-1.39-.78.96-.72,2.31.18,4,1.17,2.18,2.26,3.74,3.28,4.72-4.68-.35-7.84-2.24-9.5-5.67-.42-.85-1.15-2.66-2.2-5.42-1.21-3.24-2.83-4.75-4.81-4.56-.26.93.34,2.12,1.77,3.59l1,1.02c.16.16.69,1.53,1.61,4.12-.39.41-.58.75-.6,1l-.1,1.49c-.01.21-.23.44-.67.7-2.53-.88-4.57-3.51-6.11-7.88-.03-.1-.6-1.44-1.69-4.02-.27-.66-.45-1.12-.54-1.38-1.06-3.06-2.71-5.42-4.98-7.08-1.7-1.26-2.92-1.95-3.63-2.1-.48.38-.61.78-.39,1.22,1.3.65,2.66,2,4.08,4.07,1.98,2.85.86,9.39.68,9.56-1-.57-7.32-8.3-6.87-15.51.28-4.43.04-6.94-.12-7.51-.34-.34-.77-.39-1.25-.16-.27.61-.41,1.06-.42,1.38l-.36,5.62-.82,1.1c-.19.27-.47.67-.8,1.2-.26-.24-.4-.42-.41-.53l-.15-1.52c-.18-1.81-.29-7.33-1.01-8.36-.63-.91-1.32-1.23-2.07-.95-1.4-2.24-2.73-3.55-3.99-3.94-.44.5-.6.9-.46,1.21l.57,1.37.62,1.34c.37.82.55,1.27.54,1.35-.02.4-.17.74-.43,1.03-1.05-2.05-1.66-3.91-1.82-5.57-.29-3.07-.94-5.43-1.92-7.07-1.66-2.75-3.02-5.29-4.11-7.6-.98-2.05-1.69-3.3-2.11-3.77-.18-.18-.53-.5-1.08-.96-.49-.4-1.19-1.05-2.14-1.94-1.13-1.05-2.28-1.86-3.48-2.39-1.95-.88-3.31-1.04-4.08-.49.14.64.37,1,.69,1.09l1.42.41c3.41.99,7.27,5.69,11.6,14.11,1.35,2.67,2.39,6.47,3.09,11.42.74,5.32,3.04,11.2,6.87,17.66,3.35,5.63,6.3,9.39,8.89,11.27,3.33,2.43,6.22,4.12,8.67,5.08,2.38.92,3.9,2.07,4.54,3.44l.63,1.32c.32.66.86,1.43,1.61,2.34l.74-.66c.43.58.77,1.5.99,2.75l.28,1.47.52,1.4c.21.55.27,2.56.21,6.04-.01.69-.29,3.2-.8,7.51-.63,5.26-.55,9.79.23,13.56.61,2.88,1.05,4.8,1.36,5.8l.47,1.37c.08.19.1,1.2.08,3.03-.01,1.49-.24,2.42-.67,2.79l-1.09.95-.97,1.14-1.38.59c-1.17.5-2.22,2.55-2.07,3.53l.22,1.48c.12.81.15,1.29.1,1.45-.06.2-1.61,2.06-1.85,2.21-.76.48-2.21.54-4.38.18-2.67-.47-5.09-.33-7.22.4l-1.4.48c-2.15.74-3.58,1-4.31.81-.27-1.33.63-6.56,4.07-6.57h1.52c.6,0,1.54-.27,2.84-.81,1.08-.45,1.8-1.05,2.17-1.81.09-.52-.11-.94-.63-1.25-.64-.09-1.1-.02-1.35.21l-1,.93c-.18.16-1.63.44-4.36.81-1.91.27-3.2.83-3.85,1.68-.4.52-.77,1.4-1.07,2.62-.44,1.73-.66,2.66-.7,2.78-.63-.34-1.12-.43-1.46-.29l-1.31.55c-1.03.42-1.85.41-2.47-.04.14-.62.24-1.08.27-1.39l.16-1.51c.02-.1,3-4.58,5.23-4.59h1.51c.48,0,1.44-.25,2.86-.76,1.79-.63,3.71-1.06,5.77-1.27,1.9-.2,2.87-.3,2.91-.31.42-.56.63-1,.61-1.36l-.08-1.51c-.08-1.44.31-2.82,1.13-4.15,1.79-2.94,2.63-5.18,2.49-6.71,0-.07-.09-.55-.27-1.48-.15-.79-.33-1.8-.49-2.98-.09-.61-.29-1.58-.55-2.95-.51-2.64-.76-6.16-.71-10.54.06-5.41-.34-8.86-1.23-10.33-.94-1.55-4.88-3.3-6.06-3.55l-1.45-.3-1.37-.6c-.36-.17-2.74-.81-7.12-1.95-1.75-.45-3.56-1.25-5.44-2.39-7.17-4.37-10.87-6.67-11.09-6.85-.21-2.58-.39-4.07-.53-4.5-.46-1.41-1.41-2.47-2.85-3.18-.4-.12-.82.02-1.26.41-.01,1.81-.02,2.79-.03,2.93-.12,1.19-.48,2.04-1.1,2.54-4.27-.27-7.05-1.12-8.33-2.54l-.96-1.07c-2.26-2.53-4.77-5.18-8.16-5.88-6.77-1.4-22.92-12.74-25.25-17.94l-.77-1.18-.95-1.07c-.2-.21-.35-.62-.47-1.2l-.14-1.47c-.03-.32-1.46-1.78-2.07-1.97l-1.4-.44-1.02-1.02c-.47-.49-1.85-.99-4.15-1.53-13.8-3.23-30.66,3.59-32.17,6.04.68.33,1.56.34,2.62.02l1.42-.41c4.17-1.23,8.03-1.95,11.57-2.15-1.71,1.86-2.55,3.47-2.5,4.82.52.29.91.35,1.15.18l1.13-.79c.78-.53,2.18-.53,4.2.02l1.44.4c.34.1.82-.03,1.42-.4l.87-1.15c.17-.22.54-.41,1.1-.57l1.48.2c.44.06,1.94,0,4.48-.19,5.02-.35,6.84.06,9.7,2.1-.28,1.71-2.79,2.19-7.51,1.41l-1.44-.3c-1.07-.22-3.89.49-4.21,1.11l-.66,1.26c-.58,1.1-2.32,1.85-5.24,2.27-5.34.74-6.22,1.55-8.46,4.94-.6.92-1.27,1.6-2.02,2.03-.9-.67-1.48-1.4-1.74-2.18l-.45-1.41c-.18-.56-.45-.96-.8-1.23-.1-.06-.56-.2-1.38-.39l-1.44-.32c-.38-.08-1.44-1.35-1.48-2.39l-.05-1.52c-.03-1.02-.34-1.93-.91-2.73-1.01-.39-2.14.3-3.38,2.09-1.42,2.05-2.27,3.21-2.54,3.49-.04.03-.38.34-1.05.96-.98.89-1.68,1.57-2.09,2.05-.14.38-.12.78.06,1.16.41.5.77.8,1.1.87l1.38.3c.29.06.64.33,1.05.78-.01.51-.15.97-.43,1.39-.07.12-1.25,1-3.51,2.69-1.87,1.39-3.11,2.79-3.73,4.19l-.58,1.34c-.48,1.12-1.13,1.66-1.95,1.64-2.35-1.38-3.57-2.76-3.64-4.13l-.08-1.52-1.03-1.01-1-.97c-.71-.7-.62-3.21.62-4.09l1.19-.86c.26-.18.65-.47,1.15-.86-1.27-1.49-5.98.78-6.9,2.84l-.58,1.31c-.13.29-.39.71-.75,1.24l-1.12.95c-.92.79-1.93,2.41-3.03,4.89-1.19,2.72-3.32,4.53-6.4,5.41-.9.28-1.37.41-1.41.43l-1.4.53c-.26.1-.67.05-1.24-.15-.27-.57-.43-1.01-.49-1.31l-.26-1.48c-.23-1.33-1.03-2.5-2.38-3.52-1.69-1.29-2.66-2.91-2.92-4.86-.28-2.1-.16-4.1.32-6-.1-.38-.38-.66-.85-.82-1.45.67-2.6,1.49-3.4,2.43l-.92,1.08c-2.28,2.67-5.19,3.73-6.51-.23-.74-2.16-1.03-3.62-.91-4.35l.25-1.47c.06-.32-.15-.72-.63-1.17-.67.08-1.06.31-1.14.68-.77,5.33-.02,9.63,2.29,12.94,2.24,3.25,3.5,5.29,3.78,6.15,1.45,4.62-.37,8.78-5.44,12.46-1.31.96-2.09,1.51-2.34,1.63l-1.39.55c-.12.05-5.57,3.8-11.34,11.05-1.82,2.3-4.56,6.28-8.2,11.9-.38.61-1.54,2.14-3.46,4.58-.02.01-.28.42-.79,1.2l-.77,1.2-.86,1.13-.68,1.24-.86,1.17c-8.47,11.48-12.53,17.94-12.19,19.34l.34,1.42c.06.24-.41,1.62-1.8,1.9l-.08,1.52c-.35.59-.7.89-1.04.92l-1.49.14c-1.68.15-3.29,1.8-4.83,4.96-.89,1.86-2,2.61-3.31,2.23l-1.43-.4c-2.18-.61-4.63-.63-7.36-.06l-1.43.38-1.46.21c-1.75.24-2.72.41-2.91.5l-1.3.66c-.3.15-.77.27-1.42.36-1.56-2.99,1.1-6.02,1.72-6.38.4-.23,2.27-.64,2.9-.6l1.48.1c.22.02,1.13-.46,1.18-1.46-2.97-.59-5.37-.42-7.2.51-1.29.66-2.03,1.23-2.21,1.72l-.51,1.36c-.41,1.13-.82,1.98-1.21,2.54-1.04.4-1.92.18-2.64-.68-.21-2.31,1.08-4.21,3.86-5.71,1.88-1.01,3.73-1.58,5.53-1.72l1.49-.09,1.47-.21c.79-.11,1.29-.11,1.51,0l1.23.62c1.2.62,2.25-.11,3.16-2.18l.51-1.39c.22-.6,1.81-2.4,4.78-5.37,1.39-1.41,3.58-4.55,6.54-9.43,3.79-6.26,6.12-9.92,6.93-10.97,9.65-12.42,13.86-20.62,16.62-28.6l.49-1.39.84-1.17c.18-.27,2.95-11.01-.1-16.12-4.22-7.09-7.68-10.98-10.37-11.7-.48-.02-.91.19-1.3.66-.41,1.08.08,2.34,1.46,3.76,2.66,2.78,4.03,4.71,4.08,5.8.05,1.08-.29,1.94-1.03,2.57-1.05.31-2.14.02-6.06-3.48-2.57-2.29-3.96-3.6-4.21-3.92-.15-.21-1.76-3.85-1.72-4.06l.2-1.35-.07-1.52c-.01-.32.09-.77.3-1.38l.5-1.37c.13-.32,0-.76-.37-1.32-.56-.25-1-.22-1.33.08-.38.48-.62.87-.72,1.15l-.49,1.38c-.25.66-1.62.78-4.12.36-1.89-.34-3.35-.57-4.38-.7.2-.41.36-.69.49-.83l.97-1.08c.86-.96,1.26-2.36,1.18-4.2-.07-1.38-.75-2.6-2.03-3.67-.47-.11-.87.03-1.21.43.01.5.04,1,.09,1.5.12,1.09.1,2.59-.05,4.51l-.12,1.51c-.04.46-.81.99-2.3,1.63l-1.28.53-1.05,1.01c-.24.24-.69.44-1.34.59-.46,0-.87-.17-1.2-.51.06-.98-.67-1.82-1.65-1.92-.57.27-.96.51-1.18.74l-1.01,1.01c-.25.25-.7.34-1.37.29l-1.35-.67-1.42-.41-1.26-.81c-.28-.17-.74-.21-1.37-.09.03.68-.06,1.17-.26,1.47l-.77,1.15c-.21.32-.23.83-.04,1.52-.56-.55-1.37-.93-2.45-1.16l-1.44-.28-1.4-.5c-.71-.26-1.69-.19-2.93.2-4.26,1.36-7,2.1-8.25,2.24-2.55.3-5.95-.03-10.18-.99-3.85-.88-7.76-1.37-11.73-1.49-2.29-.08-3.79-.04-4.48.1l-1.44.31c-.38.09-1.37.15-2.98.2-1.48.05-2.47.19-2.95.38l-1.38.55c-.62.24-2.5.26-2.92.1-1.06-.42-1.7-1.62-1.93-3.62,2.41-1.2,19.19-3.92,21.69-2.84l1.3.56c.57.25,1.99.63,4.27,1.17,1.98.46,3.41.39,4.3-.19l.45-1.1.65.82c.57.05.95-.07,1.16-.36,1.61-1.91-.69-7.59-8.17-6.91-1.14.11-4.56.26-10.24.47-2.16.06-5.09.5-8.78,1.29-2.26.47-11.52,1.57-14.83.99-.3-.05-1.26-.28-2.86-.66-.48-.12-.96-.22-1.45-.3-.37-.27-.49-.7-.36-1.26.44-.19.88-.4,1.29-.64,2.01-1.18,3.16-1.94,3.47-2.29-.45-1.28-1.8-1.54-2.23-1.4l-1.4.44c-3,.93-4.46.28-4.32-1.96.61-.66,2.27-1.66,4.96-3,2.58-1.3,8.35-5.62,17.3-12.96,2.1-1.73,4.58-3.99,7.41-6.8,1.58-1.56,3.09-2.71,4.5-3.42,2.84-1.46,3.67-1.34,5.09.12l1,1.03c.24.24.68.42,1.33.55.39.1.82-.08,1.26-.52.11-.45.09-.88-.07-1.32-.03-.08-.63-.85-1.77-2.3-2.16-2.74-3.7-5.78-4.59-9.1l-.39-1.44c-.39-1.47-1.5-4.15-3.32-8.07.43.18.86.38,1.3.59,2.77,1.31,5.1,2.1,7.02,2.36,9.41,1.31,15.73,3.68,18.99,7.1,2.97,3.12,3.95,7.47,3.33,9.31.28.44.66.62,1.14.55,1.36-1.05,2.07-1.63,2.13-1.71.29-.46.55-2.15.31-2.94l-.43-1.41c-.08-.26-.03-.67.13-1.22,1.89-.89,4.31-1.07,7.26-.52,3.27.61,5.73.59,7.39-.06l1.39-.55c.15-.06.46-.12.89-.18-.51.89-1.29,1.35-2.32,1.37-.37.91.05,1.94.95,2.33,1.46-.72,2.89-1.02,4.27-.93.95.05,2.33.55,4.15,1.46-.35.75-.82,1.41-1.42,1.98.06.55.31.88.77,1,.46-.13.92-.27,1.38-.41,1.84-.55,3.08-1.24,3.71-2.12l-.39-1.22c.24-.19,1.53-.64,3.86-1.38l1.41-.45,1.3-.61c.46-.21,1.38-.36,2.76-.44,0,.56-.12,1.54-.38,2.93-1.42,7.6,3.35,10.42,6.19,12.08,1.62.94,2.69,1.86,3.21,2.73.38.16.74.07,1.11-.26-.09-.99-.27-1.96-.54-2.91l.64-1.04c-.44-.39-.79-.65-1.05-.78l-1.3-.67c-1.33-.68-7.25-7.43-3.98-11.25.92-1.08,2.08-1.81,3.5-2.22,2.8-.82,5.21-1.23,7.22-1.23h1.51l1.29-.3c.56-.14,3.03.06,7.4.59,2.46.3,7.3,1.2,14.52,2.7,1.75.35,5.69.67,11.82.9.69.03,1.68.11,2.96.28,1.3.18,3.27.22,5.91.16,2.11-.04,5.59.1,10.44.42.98.07,7.5.09,19.59.07,3.37-.01,6.34.26,8.92.79,8.37,1.74,17.21,1.64,26.54-.34.28-.07,4.06-1.09,11.33-3.05,5.25-1.43,9.13-2.15,11.64-2.15h1.51l1.47-.18c.12-.02.61.07,1.45.27,1.61.39,3.56.76,5.8,1.11,2.09.33,5.63,2.02,10.62,5.1,1.72,1.07,3.05,1.78,3.97,2.14l1.42.39,1.39.55c1.35.53,2.77.94,4.26,1.2,5.7,1.04,9.92,3.2,12.7,6.47,1.42,1.69,2.4,2.75,2.92,3.18,2.14,1.73,4.47,4.7,7.03,8.89,6.64,10.89,8.7,13.84,13.15,18.92.42.48,1.91,2.32,4.5,5.51,3.47,4.3,7.8,7.89,13.01,10.78l1.36.68,1.18.74c8.15,5.14,10.34,5.96,17.48,7.18,2.96.51,5.88.78,8.75.82.58,0,1.57.12,2.97.3,1.46.2,2.94.3,4.42.3,1.33,0,2.31.04,2.95.11-.75,3.12-2.24,4.77-4.46,4.93Z"/>
        <path d="M222.07,528.67c-.55-.37-1.09-.79-1.59-1.28.49-.02.96-.06,1.14-.15.24.33.38.84.45,1.43Z"/>
        <path d="M317.53,419.24c.12-.56-.08-2.45-1.72-2.22-1.24.17-5.2,3.27-7.11,5.62-4.1,5.03-7.31,8.28-9.61,9.75l-1.28.82-1.21.95c-.06.05-.51.31-1.33.77-1.26.71-2.12,1.25-2.56,1.64-.05.22.17.57.66,1.06.25.25.5.37.76.35.22-.02,1.64-.56,4.26-1.63,3.08-1.26,6.56-4.18,10.42-8.75,1.11-1.31,2.2-2.37,3.27-3.18,3.47-2.61,5.29-4.34,5.46-5.18h0Z"/>
        <path d="M335.26,436.19c-.19-.71-.54-1.33-1.06-1.86l-1.32-1.36c-1.03-1.06-.84-3.12.59-6.16.68-1.45.93-2.47.76-3.04-.12-.39-.99-1.82-2.83-1.81h-1.82c-.31,0-1.81-.68-4.5-2.03-1.12-.57-2.19-.86-3.19-.88-.54.36-1.28,1.14-2.23,2.36-.89,1.13-2.53,2.54-4.93,4.23-2.42,1.7-3.56,2.94-3.42,3.74.02.12,1.21,1.71,1.42,1.71h.71c-.02-.16.02-.26.1-.3.08,0,.23.04.44.15.95.48,3.95-2.25,4.21-2.69l.78-1.35c2.54-4.38,7.86-3.93,10.02-1.8-.07.27-.34.95-.83,2.05-3.55,8.01,2.89,11.71,4.9,11.28.52-.11,2.43-1.39,2.21-2.23h0Z"/>
        <path class="cls-2" d="M280.27,552.57c.03,1.26-1.95,1.83-2.32,1.67-.14-.52-.41-.74-.81-.64-1.13.28-2.07.34-2.83.19l-1.82-.37c-1.7-.34-3.33-.24-4.9.31-1.5.52-2.63.75-3.38.69-.46-.49-.81-.86-1.05-1.09l-1.13-1.09-.51-1.52c-.11-.34-.28-.86-.51-1.54l-.55-1.53.1-.4.54-.67.39-.77c.07-.14.23-.34.48-.58-.91-5.75-1.2-7.59,4.43-9.76.78,1.32,1.52.59,1.52.35v-.71l-.65-.71c-.59-.66-.61-1.43-.07-2.31.4-.65.46-1.09.18-1.34-.57-.52-2.49.45-2.99,1.3l-.8,1.39c-1.01,1.72-4.01,3.09-5.27,3.16-.21-.33-.41-.48-.61-.46.9-1.66.9-2.57,0-2.73l.6-3.74c.23-1.45-.11-2.78-1.02-3.98,0-.04,3.15-.37,9.44-.99,3.64-.36,6.26-.08,7.87.83,1.89,1.08,2.79,2.51,2.67,4.28-.19,2.8-.42,3.63-1.28,5.31-1.21,2.33-2.86,5.03-4.96,8.09-2.77,4.06-2.81,4.51-2.03,5.49.51.64,1.07.96,1.67.96h1.72s1.67.34,1.67.34l1.69.3c.65.11,2.15.86,4.52,2.27Z"/>
        <path d="M114.21,442.67c-.56,1.27.5,1.66,3.16,1.15l1.42-.21,1.38-.35c.26-.06.88.06,1.84.37l1.49.49c.63.2,1.67.38,3.12.53,1.73.18,2.77.34,3.14.49,1.14.47,1.88,1.18,2.23,2.11l.55,1.47c.12.33.45.72.98,1.17.11.03.25.03.4,0,3.65-3.24-.22-7.37-3.25-7.37h-1.67c-2.4,0-3.41-.63-3.03-1.91.02-.06.18-.31.49-.75.85-1.2-1.02-1.27-1.25-1.12l-1.4.88c-.45.28-1.48.69-3.11,1.24-.77.26-1.29.45-1.58.57l-1.54.68c-.36.16-.92.25-1.68.29l-1.69.24h0Z"/>
        <path d="M373.16,460.97c.06-1.46-.98-2.7-3.1-3.72-1.92-.92-3.72-1.9-5.39-2.92-1.62-1-3.15-2.31-4.57-3.95.03-.24.19-1.05.5-2.43.11-.47.1-.87,0-1.21-.23-.74-.67-1.2-1.32-1.37l-1.92-.49-1.81-.76c-.2-.08-1.42.07-1.82,1.11h-.81c-.07,0-.17.12-.3.36.33,1.5,2.07,6.69,6.79,10.04.79.57,2.1,1.35,3.93,2.35,1.42.78,3.04,1.99,4.86,3.64,1.62,1.47,2.97,2.06,4.05,1.76.56-.39.86-1.2.9-2.43h0Z"/>
        <path d="M136.38,409.99c.14-.57-1.32-4.41-2.6-5.71-1.86-1.91-5.14-3.17-9.87-3.79-2.1-.28-3.55-.69-4.37-1.23l-1.27-.85c-.29-.19-.64-.12-1.04.23-.11.66.19,1.42.93,2.27,1.58,1.85,2.72,3.02,3.4,3.52.86.62,1.86.99,3.02,1.12l1.65.18c1.98.21,2.87.9,2.68,2.06-.07.41-.17.61-.3.61h-.56c-.3,0-.58.21-.86.61.17,3.84,5.84,2.6,6.52-1.17.28.98.74,1.87,1.37,2.67h.81c.26,0,.42-.17.5-.51h0Z"/>
        <path d="M415.5,496.5c.08-.54,0-4.65-.28-5.65-.69-2.48-3.11-4.13-7.27-4.96-2.8-.56-4.33-.9-4.58-1.01-.18-.09-3.88-2.73-4.77-3.9-.51-.11-1.21.4-1.21.61v.3c0,.11,1.74,2.52,3.05,3.69,2.28,2.04,4.66,3.06,7.16,3.06.54,0,1.08,0,1.62,0,.26.18.1.69-.45,1.53-1.2,1.81,2.1,4.34,3.38,3.34.47-.37.78-.55.92-.53.34.94.51,1.58.51,1.92v1.51l-.9,2.43c-.09.24-.06.54.1.91.22-.09.35.01.41.3h1.01c.72-1.31,1.15-2.49,1.3-3.54h0Z"/>
        <path d="M273.13,450.98c.11-.77-.43-1.31-1.62-1.61-1.69-.43-3.99.39-6.9,2.47-3.02,2.16-5.19,3.37-6.51,3.65l-1.49.32c-.34.07-.72.38-1.16.91.09,1.78,5.75.99,8.76-.36.66-.29,1.96-1.06,3.9-2.3,1.47-.94,2.33-1.45,2.6-1.52l1.46-.41c.56-.16.87-.54.96-1.14h0Z"/>
        <path d="M115.4,419.41l-.1-.3c-.32-.96-4.47,1.01-7.6,5.13-3.16,4.17-4.46,5.17-9.35,8.33-.04.19.33,1.03,1.08.89.22-.04,1.73-.87,4.54-2.48,1.19-.68,2.25-1.02,3.17-1,.72,1.45,1.56,2.14,2.53,2.07.74-.69.9-1.77.46-3.27-.37-1.26-.37-2.43,0-3.49.63-1.78,1.59-3.08,2.88-3.88l1.37-.85c.29-.18.64-.57,1.03-1.15h0Z"/>
        <path d="M179.05,423.55l-.05-.4c-.14-.04-.19-.14-.15-.3-1.53.03-2.62-.07-3.26-.31-.1-.04-.56-.32-1.37-.84-2.87-1.84-5.35-2.83-7.44-3-2.27-.18-3.54-.12-3.81.18-.24.26-.25.54-.02.83.23.29.38.44.45.44h1.52c-.09.26-.02.4.2.4h1.52c.76,0,2.04.73,3.82,2.2.89.73,1.74,1.24,2.54,1.53v.2c-.29.34-.59.51-.91.51h-3.13c-.01.71.12,1.21.41,1.52,2.14.04,3.31.01,3.51-.08l1.56-.7c2.82-1.27,4.36-1.99,4.62-2.17h0Z"/>
        <path d="M140.47,426.52l-.1-.4c-.23-.92-.43-1.39-.61-1.41l-1.6-.26c-1.04-.17-2.27-1.93-3.67-5.29-.2.13-.3.23-.3.3-.22.03-.35-.04-.41-.2-.05,0-.12.01-.2.05-.62.3-1.26.42-1.92.36-.33-.03-2.93-1.04-3.23-1.26l-1.32-.96h-.91c-.34,0-.5.2-.5.61v.2l1.09,1.29,1.05,1.35c.94,1.21,2.24,1.67,3.89,1.4l.14-.21h.2c1.52,2.97,3.58,4.02,8.09,4.84.22-.2.32-.33.3-.4h0Z"/>
        <path d="M175.38,417.19l-.1-.4c-.06-.24-.45-.57-1.19-1l-1.45-.55-1.34-.8c-2.14-1.28-3.57-1.91-4.28-1.87l-1.59.07c-.18.01-.71.02-1.59.03-2.65.03-3.71.54-3.19,1.57.38.73.91.78,1.59.15.22-.2.89-.23,2.02-.1.79.09,1.7.46,2.74,1.12,1.97,1.24,3.31,1.87,4.03,1.9l1.52.07c.94.04,1.58.13,1.92.25.2.07.39.04.58-.1.24-.18.35-.29.34-.33h0Z"/>
        <path class="cls-2" d="M272.74,506.6c-2.21.11-3.69.84-4.44,2.18-.5.87-.8,1.98-.91,3.33-.5-.03-1.28-.2-2.33-.51-.83-.24-1.66-.29-2.48-.14-.6.1-1.19.09-1.79-.05-.39-.09-.92-.02-1.58.21-.32-.46-.56-1.16-.68-2.09-.11-.73-.15-1.1-.13-1.14.06-.12,1.07-.32,3.04-.61.61-.09,1.65-.18,3.12-.24l1.57-.07,1.39-.64c2.73-1.27,4.47-1.34,5.22-.23Z"/>
        <path d="M171.66,430.44c-.16.31-.23.65-.2,1.01.05.03.09.04.14.07.04.02.09.04.14.06l.14.07h1.31l.07.03.03.07.48,1.4,1.39.74c2.44,1.3,4.05,2.64,4.82,4.02l.77,1.37c.57,1.02,2.82,2.43,3.77,1.44.26-1.56-1.22-5.06-3.05-6.88-2.19-2.16-4.41-3.3-6.68-3.41-2.03-.1-3.07-.1-3.12,0h0Z"/>
        <path d="M209.27,495.83c-.57-.79-1.43-.63-2.59.48-.56.53-1.18,1.39-1.84,2.55l-.78,1.37c-.12.21-.7,1.08-1.75,2.6-3.21,4.69-4.79,7.51-4.72,8.48.3.34.64.48,1.01.4.3-.59.58-1,.82-1.23l1.03-1.02.75-1.3c.96-1.68,2.49-3.67,4.58-5.97,3-3.31,4.17-5.43,3.51-6.35h0Z"/>
        <path d="M156.27,449.23c.03-.59-.05-1.15-.25-1.7l-.36-.72v-1.62c0-2.13-1.16-4.47-3.47-7-1.56-1.71-2.5-2.99-2.84-3.84-.61-1.55-.87-4.75-.19-6.32-.19-.1-.47-.2-.86-.3-2.65,1.77-2.5,8.98-.31,12.15.51.73,1.2,1.52,2.09,2.37,2.16,2.08,3.41,3.78,3.74,5.1.08.32,0,1.39-.22,3.2-.07.54-.12,1.07-.16,1.61.12.06.29.13.5.2,1.49-.95,2.26-1.99,2.32-3.14h0Z"/>
        <path d="M391.37,475.01c.07-1.03-2.13-4.28-2.44-4.55l-1.2-1.05c-.85-.74-1.5-1.59-1.95-2.54-1.16-2.44-2.07-3.73-2.71-3.87-.54-.11-1.07.03-1.61.41-.02.3.29,1.49.95,3.57.98,3.08,2.75,5.67,5.31,7.77,2.32,1.89,3.54,1.98,3.66.26h0Z"/>
        <path d="M263.84,441.28c.17-1.72-.19-3.99-1.1-6.82-.23-.73-1.02-3.79-2.36-9.2-2.73-11.05-6-6.41-5.85-5.79.24.95.97,2.44,2.21,4.46,1.99,3.25,2.59,5.33,2.79,12.41.08,2.91.07,4.71-.04,5.41-.1.68-.37,1.61-.81,2.78.14.08.27.18.39.29.49.45.96.66,1.43.62,1.96-.17,3.07-1.55,3.33-4.15h0Z"/>
        <path d="M133.06,428.05v.3c0,2.82-1.52,5.48-3.06,5.83l-1.7.39c-.39.09-.83.46-1.29,1.11.23.99,1.68.28,1.82-.05,5.14.23,7.46-1.19,6.96-4.26-.07-.44-.5-1.42-1.28-2.95.15-.48-.96-.46-1.46-.38h0Z"/>
        <path d="M252.56,459.68c.11-.78-.06-1.18-.51-1.21l-.85-.05-.83-.18c-1.14-.24-2.51-.07-4.13.51-1.1.39-1.96,1-2.58,1.8,1.05,1.23,2.08,1.43,3.12.59l.42-.34,1.38.12,1.37.18c1.57.2,2.43-.27,2.59-1.42h0Z"/>
        <path class="cls-2" d="M425.48,505.93c.16,0,0-.75,1.26-.12,1.14.58,1.79.6,1.94.07.08-.29-.78-1.45-1.17-1.86-1.34-1.43-1.91-1.83-2.18-3.27-.18-.98-.14-1.59.12-1.82h.24c.42.38.7.68.84.91h.39c.79,1.34,2.23,1.04,2-.54-.15-.99-1.22-2.37-3.23-4.15-1.56-1.39-3.08-4.56-3.82-5.8-.27-.08-.55-.04-.84.1-.24.12-.03,2.05-.11,2.06v.26c-.14.11-.3.19-.47.25.15.2,2.11,3.94,1.91,4.45-.07.19-.19.25-.35.21l.02,10.93-.16,1.63c-.05.56-.1,1.65-.14,3.28-.05,2.13-.09,3.22-.11,3.29l-.4,1.41c-.05.16.04,1.24.26,3.22l.18,1.6.13,1.62c0,.12.19.63.53,1.53.75,1.93,2.2,4.48,2.62,6.72.1.53.23,1.05.4,1.57.12.03.24.07.36.1.64.2,1.11.17,1.43-.1l-.44-4.15h.24c.92,2.11,2.02,4.06,2.9,3.4,1.28-.95-.25-6.79-1.9-9.08,0,0,2.21.66,2.62-.73.08-.27-.52-1.8-1.89-4.46-1.39-2.7-2.99-4.86-2.98-6.15,2.13,1.51,3.22,2.27,3.28,2.28.81.09,1.17-.28,1.07-1.12-.01-.08-.38-.5-1.11-1.27-1.38-1.45-2.41-2.79-3.1-4.03-.49-.98-.67-2.21-.31-2.22Z"/>
        <path d="M278.68,436.91v-2.32c0-1.15-1.4-5.62-4.19-13.4-1.04-2.89-2.21-4.42-3.52-4.57-.95.65-.45,2.82,1.5,6.51,1.75,3.31,3.19,10.8,2.56,13.19-.23.86-.36,1.47-.38,1.81.66,1.02,1.67,1.43,3.03,1.21.67-.54,1.01-1.34,1.01-2.42h0Z"/>
        <path d="M227.12,478.82c.22-1.72-.15-3.12-1.09-4.22l-.99-1.14-.7-1.3-.54-.3c-.13-.07-.3-.44-.52-1.11-.79-.03-1.19.04-1.21.2.37.85.42,1.54.16,2.05-.32.62-.12,1.75.59,3.39l.75,1.74c.83,1.91-.82,4.66-4.2,5.25l.05.81c.26.06.41.19.46.4,1.25.24,2.42.08,3.5-.49,2.21-1.15,3.46-2.91,3.76-5.28h0Z"/>
        <path d="M167.66,447.69c.38-3.12-.94-6.25-3.96-9.39-1.76-1.83-3.01-2.4-3.74-1.71.08.72.24,1.21.47,1.48l1.1,1.25c1.1,1.25,3.2,5.21,3.29,5.64.08.39-.2,2.59-.85,6.62-.15.96-.2,1.52-.15,1.66.37.95.85,1.35,1.42,1.21,1.49-3.58,2.3-5.83,2.41-6.77h0Z"/>
        <path d="M247.69,446.16v-2.52c0-1.55-3.44-9.55-4.01-10.4-2.37-3.53-4.41-1.2-2.79,2.5,1.16,2.63,1.88,4.62,2.16,5.96.56,2.62.86,4.18.91,4.69.13,1.3.22,1.98.26,2.04.33.37.75.48,1.25.32.52-.17,1.03-.26,1.52-.26.47-.82.7-1.6.7-2.33h0Z"/>
        <path d="M174.01,546.2c.08-1.03-.36-1.23-1.32-.6-.2.13-.63.17-1.31.11-1.52-.14-2.53-1.08-3.03-2.82-.48-.17-.88-.09-1.2.25-.12.54-.23.94-.32,1.21l-.4,1.18c-.61,1.82,5.91,4.09,6.07,2.25.04-.43.14-.64.3-.64h.59c.37,0,.58-.31.63-.91h0Z"/>
        <path d="M237.3,451.7v-.71s-.24-1.05-.24-1.05c-.35-1.53-.52-2.75-.51-3.67.03-2.07-.24-4.16-.79-6.28-.29-1.12-.52-2.15-.69-3.1-.39-2.19-1.1-3.52-2.13-3.97-1.99-.88-3.7,1.17-2.07,3.98,1.35,2.33,2.08,3.65,2.18,3.97.14.45,2.18,10.02.91,9.42.1.64.18,1.24.23,1.81.28,2.91,3.1,2.59,3.1-.4h0Z"/>
        <path d="M150.63,421.04c-.16-.56-.43-1-.81-1.31l-1.17-.96c-.26-.22-.62-.57-1.08-1.07l-.66-1.39c-.96-2.05-2.81-2.37-3.17-.3-.06.39-.06.73,0,1.01.21.87,1.26,2.07,3.17,3.6l1.26,1.02.93,1.33c.27.39.72.31,1.34-.23.35-.3.41-.87.17-1.69h0Z"/>
        <path d="M281.18,417.51c-.43.39.02,2.57,1.36,6.56.7,2.09,1.18,5.31,1.43,9.68.06,1.01.08,1.56.07,1.63-.17,1.07-.27,1.88-.3,2.43.49.49,3.2,1.34,3.96-.66.58-1.55.15-4.41-1.29-8.56-.41-1.2-.93-3.23-1.54-6.12-.64-3.03-1.64-4.79-2.98-5.27-.05.21-.19.31-.42.31h-.29Z"/>
        <path d="M123.79,427.16v-.3c0-1.74-4.96-3.08-6.61-1.67-.43.36-.53.62-.32.77l.25.16c.22.15.32.3.31.44.05,0,.41-.11,1.11-.3,1.21-.34,2.29-.04,3.23.9l.91.91h.5v-.61c0-.33.2-.43.61-.3h0Z"/>
        <path d="M442.03,483.21v-.51c-1.98-.83-3.3-1.57-3.97-2.24l-1.08-1.08s-.13-.03-.3,0c-.73.1-1.07.54-1.01,1.32.01.15.9,1.42,1.9,2.06.92.58,3.75,1.4,4.06,1.16.27-.2.41-.44.41-.71h0Z"/>
        <path d="M364.81,420.69v-.81c0-.14-1.26-1.82-1.65-2.13-1.19-.95-3.85-.72-4.32-.48-.12.93,2.43,4.86,4.96,4.03.67-.22,1.01-.42,1.01-.61h0Z"/>
        <path d="M174.02,439.52v-.2c0-.37-3.77-3.02-3.91-3.08-.6-.31-1.19-.32-1.76-.04v.41c0,.11.07.14.2.1v.1h-.2c.21.5.32.77.3.81l-.1.41c.46.23.8.42,1.01.57l.96.68,1.11.41.96.64c.82.56,1.23.5,1.23-.17v-.39l.2-.24h0Z"/>
        <path d="M161.91,447.23c.51-3.44-2.57-8.16-4.47-7.56-.75.23-.98.64-.7,1.21l.73,1.47c1.66,3.34,2.03,5.94,1.12,7.79l-.69,1.39c-.15.31-.3.8-.43,1.47,1.83,2.27,4.41-5.55,4.43-5.76h0Z"/>
        <path d="M295.31,465.17v.2c0,.1-.19.2-.52.31-.18.06-.51,0-.97-.19-3-1.11-.46,3.86,3.09.8,1.09-.95,1.18-1.5.3-1.62-.3-.06-1.91.22-1.91.5h0Z"/>
        <path d="M272.19,438.73c.11-.59-.95-7.62-1.9-9.15-.99-1.59-1.99-2.07-3-1.41-.14.09-.02.79.35,2.12l.37,1.6.54,1.39-.28,1.74c-.53,3.36-.34,5.33.55,5.92,1.32.86,3.02-.23,3.36-2.21h0Z"/>
        <path d="M427.87,482.69v-.61l-.89-1.06c-.71-.85-1.2-1.63-1.48-2.33l-.5-1.29c-.23-.6-.96-.85-1.52-.5-.37.23-.61.82-.57.9l.67,1.37c1.2,2.47,2.52,3.85,3.99,4.12.03-.07.06-.14.11-.21.13-.23.19-.36.19-.41h0Z"/>
        <path d="M417.35,524.34c.04-.32-.14-1.14-.55-2.47-.9-2.96-1.33-4.69-1.29-5.21l.69-9.8c.05-.72-.05-1.12-.31-1.21-.42-.16-1.91.26-1.92.51l-.06,1.4c-.01.32-.19.75-.52,1.28l-.52,1.15.83,13.33c.03.48,1.01,2.23,1.41,2.52.39.28.83.41,1.32.41.54-.74.85-1.38.91-1.92h0Z"/>
        <path d="M189.5,453.94c.02-.23,0-.39-.05-.51-.1-.21-.15-.34-.15-.4l.1-2.63c.19-5.14-6.28-5.19-3.98,1.1,1.14,3.13,2.23,4.41,3.28,3.85.18-.1.28-.28.32-.56.03-.23.1-.39.21-.49.17-.14.26-.27.27-.37h0Z"/>
        <path d="M224.13,447.31v-1.31c0-.88-1.4-5.8-3.65-6.05-.72-.08-.96.15-.7.71l.46,1.02c.58,1.28.7,2.26.35,2.92-.58,1.1.53,3.15,2.13,3.43.95.16,1.42-.08,1.41-.71h0Z"/>
        <path d="M200.56,426.92v-.81c0-1.83-2.29-4.03-3.56-3.27l-.34.29-.36.26c-.27.2.09,1.92.46,2.07l.96.4.5.6c.09.1,1.12.9,1.52.86.54-.05.81-.19.81-.41h0Z"/>
        <path d="M247.83,479.4c-.02-.12-1.05-.15-1.11-.1l-.47.34c-.1.07-.24.18-.43.34l-.41.34h-1.31c-.21,0-.31.1-.3.3h-.2l.05.61.18.16c.13.12.18.26.17.45h1.82s.82-.33.82-.33c.98-.39,1.45-.72,1.4-.99l-.2-1.11h0Z"/>
        <path d="M250.16,526.04v.3h-.2l-.08.08c-.22.22-.1.51.35.87l.34.27,1.51.2c.5.07-.24-1.91-1.92-1.71h0Z"/>
        <path d="M155.8,432.87l-1.42.05-.07.11c-.04.06-.11.07-.23.04-.07,1.11.12,1.94.56,2.49.37.46.79.57,1.26.34-.09-.22.01-.35.3-.41l-.41-2.63h0Z"/>
        <path d="M301.25,462.35c.04-.08.09-.16.14-.24.79-1.3-.73-1.65-1.73-1.02l-.23.15v.4l.26.26c.3.3.49.45.56.45h1.01Z"/>
        <path d="M237.83,476.87v-.2h-.5c-.24,0-.42,0-.54-.03-1.23-.23-1.24,1.2.14,1.55.56.14,1.21-.51,1.21-.61v-.61s-.3-.1-.3-.1h0Z"/>
        <path class="cls-2" d="M119.17,394.11c.04-.06.11-.08.2-.05l1.52.5h-.61l-.81-.1-.11-.11-.11-.11-.09-.13h0Z"/>
        <path class="cls-2" d="M105.35,396.61c-.07-.06-.07-.13,0-.2.06,0,.09-.04.1-.1l.1.3h-.2Z"/>
        <polygon class="cls-2" points="234.06 511.53 234.06 511.73 233.96 511.73 233.86 511.63 233.86 511.53 234.06 511.53"/>
        <path class="cls-2" d="M179.52,457.31h.3v.2h-.2c-.07,0-.1-.03-.1-.1v-.1h0Z"/>
        <path class="cls-2" d="M436.07,486.9l-.14.02-.06.03v-.1c.07,0,.14.01.2.05Z"/>
        <path class="cls-2" d="M321,422.36v-.1c.07,0,.14,0,.2.05l-.13.02-.07.04h0Z"/>
        <path class="cls-2" d="M368.48,480.05l-.13.02-.07.03v-.1c.07-.01.14.01.2.05Z"/>
        <path class="cls-2" d="M395.18,453.96c-.11,3.37-.09,6.74.04,10.11.05,1.28,2.05,1.29,2,0-.13-3.37-.15-6.74-.04-10.11.04-1.29-1.96-1.29-2,0h0Z"/>
        <path class="cls-2" d="M387.08,445.01c-.53,1.92.45,3.54,1.07,5.29.56,1.59.68,3.29,1.55,4.77.65,1.11,2.38.1,1.73-1.01-.74-1.26-.84-2.77-1.3-4.14s-1.53-2.88-1.12-4.38c.34-1.24-1.59-1.77-1.93-.53h0Z"/>
        <path class="cls-2" d="M392.16,449.21c.15.75.74,1.21,1.3,1.66.24.19.45.38.65.6.05.06.03.03-.07-.09.02.03.04.06.06.09.08.11.17.23.26.33.13.16.3.3.48.4.31.18.7.18,1.01,0,.33-.19.46-.5.5-.86.05-.48-.28-.86-.61-1.16-.25-.23-.51-.52-.81-.67-.48-.24-1.04-.22-1.5.06-.34.21-.58.52-.79.85h1.73c.04.08.07.19.02.04-.02-.05-.03-.1-.04-.15-.03-.1-.04-.2-.06-.3l.04.27c-.05-.41-.04-.83-.08-1.24-.05-.52-.16-1.03-.28-1.54s-.73-.86-1.23-.7c-.53.17-.83.68-.7,1.23.08.35.17.71.22,1.07l-.04-.27c.05.38.05.76.07,1.14.03.52.13.98.35,1.45.14.31.54.5.86.5.37,0,.67-.2.86-.5.03-.05.06-.1.1-.14.1-.16-.16.17,0,0,.15-.16-.11.06-.03.01.07-.04.03-.03-.11.04.04-.01.07-.02.11-.03l-.27.04s.08,0,.11,0l-.27-.04c.18.03-.14-.09-.05-.04.1.06-.17-.16-.05-.04.08.08.17.15.25.23.08.07.16.14.23.22.04.04.08.08.12.11.18.15-.17-.45-.13-.22l-.04-.27v.05c.5-.29,1-.58,1.5-.86-.09-.05-.06-.03.07.07-.03-.02-.05-.05-.08-.07-.06-.06-.12-.19.02.03-.1-.17-.24-.32-.36-.47-.17-.2-.38-.38-.59-.54s-.42-.32-.62-.5c-.04-.04-.08-.08-.12-.12-.03-.03-.05-.06-.08-.09.1.13.11.15.05.07-.03-.04-.05-.1-.08-.14.06.16.07.18.04.08-.01-.04-.02-.07-.03-.11-.1-.51-.74-.86-1.23-.7-.55.18-.81.68-.7,1.23h0Z"/>
        <path class="cls-2" d="M417.94,492.05c.09-1.18.16-2.44-.26-3.57-.23-.63-.57-1.2-1.07-1.66s-1.03-.8-1.53-1.21c-1.06-.87-2.14-1.49-3.46-1.88-1.19-.35-2.45-.54-3.56-1.12l-.77,1.83c3.16,1.06,5.96,2.96,8.15,5.46.36.41,1.05.36,1.41,0,.4-.4.36-1.01,0-1.41-2.42-2.76-5.56-4.81-9.03-5.97-1.07-.36-1.78,1.31-.77,1.83,2.03,1.05,4.53,1.01,6.36,2.48.49.4.99.79,1.49,1.18.34.27.65.56.83.96.42.94.29,2.1.21,3.1-.04.54.49,1,1,1,.58,0,.96-.46,1-1h0Z"/>
      </g>
    </g>
  </g>
</svg>