<?xml version="1.0"?>
<svg
   xmlns="http://www.w3.org/2000/svg"
   xmlns:xlink="http://www.w3.org/1999/xlink"
   viewBox="0 0 451 599.99997"
   height="363"
   width="273"><defs
     id="defs6"><linearGradient
       id="linearGradient34691"><stop
         id="stop34693"
         offset="0"
         style="stop-color:#004f9e;stop-opacity:1" /><stop
         id="stop34695"
         offset="1"
         style="stop-color:#11367a;stop-opacity:1" /></linearGradient><clipPath
       id="clipPath296"
       clipPathUnits="userSpaceOnUse"><path
         id="path298"
         d="m 43.121,523.253 24.821,0 0,33.023 -24.821,0 0,-33.023 z" /></clipPath><radialGradient
       gradientUnits="userSpaceOnUse"
       gradientTransform="matrix(-9.4452061e-7,40.414177,24.836426,6.3901425e-7,-13403.279,-1438.3925)"
       r="10.779658"
       fy="547.12134"
       fx="37.823673"
       cy="547.12134"
       cx="37.823673"
       id="radialGradient34697"
       xlink:href="#linearGradient34691" /></defs><g
     id="g4511"
     transform="translate(41.499816,59.009314)"><g
       transform="matrix(1.25,0,0,-1.25,-112.15685,608.60339)"
       id="g12" /><g
       transform="matrix(1.25,0,0,-1.25,-112.15685,608.60339)"
       id="g410" /><g
       id="g4504"><g
         transform="matrix(18.16954,0,0,-18.16954,-824.98855,10048.257)"
         clip-path="url(#clipPath296)"
         id="g34203"
         style="fill:#133578;fill-opacity:1"><path
           d="m 66.898,552.6723 -0.118,0.426 -0.103,0.371 -0.348,0.165 -0.359,0.171 c -1.597,0.759 -3.299,1.361 -5.059,1.789 -1.858,0.452 -3.668,0.681 -5.38,0.681 -1.674,0 -3.502,-0.246 -5.434,-0.732 -1.674,-0.422 -3.345,-1 -4.967,-1.721 l -0.374,-0.166 -0.363,-0.161 -0.107,-0.383 -0.122,-0.44 c -0.526,-1.898 -0.856,-3.882 -0.979,-5.897 -0.227,-3.697 0.147,-7.13 1.111,-10.203 0.743,-2.368 1.8,-4.527 3.142,-6.418 1.896,-2.67 4.361,-4.85 7.325,-6.478 l 0.362,-0.2 0.406,-0.224 0.407,0.224 0.363,0.2 c 2.963,1.629 5.427,3.808 7.323,6.478 1.343,1.891 2.4,4.05 3.142,6.418 0.964,3.073 1.338,6.506 1.112,10.203 -0.124,2.015 -0.453,3.999 -0.98,5.897"
           style="fill:#133578;fill-opacity:1;fill-rule:nonzero;stroke:none"
           id="path34205" /></g><g
         style="fill:#ffffff;fill-opacity:1"
         id="g34611"
         clip-path="url(#clipPath296)"
         transform="matrix(17.489355,0,0,-17.591994,-787.21689,9736.5179)"><path
           id="path34613"
           style="fill:#ffffff;fill-opacity:1;fill-rule:nonzero;stroke:none"
           d="m 66.898,552.6723 -0.118,0.426 -0.103,0.371 -0.348,0.165 -0.359,0.171 c -1.597,0.759 -3.299,1.361 -5.059,1.789 -1.858,0.452 -3.668,0.681 -5.38,0.681 -1.674,0 -3.502,-0.246 -5.434,-0.732 -1.674,-0.422 -3.345,-1 -4.967,-1.721 l -0.374,-0.166 -0.363,-0.161 -0.107,-0.383 -0.122,-0.44 c -0.526,-1.898 -0.856,-3.882 -0.979,-5.897 -0.227,-3.697 0.147,-7.13 1.111,-10.203 0.743,-2.368 1.8,-4.527 3.142,-6.418 1.896,-2.67 4.361,-4.85 7.325,-6.478 l 0.362,-0.2 0.406,-0.224 0.407,0.224 0.363,0.2 c 2.963,1.629 5.427,3.808 7.323,6.478 1.343,1.891 2.4,4.05 3.142,6.418 0.964,3.073 1.338,6.506 1.112,10.203 -0.124,2.015 -0.453,3.999 -0.98,5.897" /></g><path

         id="path34689"
         style="fill:url(#radialGradient34697);fill-opacity:1;fill-rule:nonzero;stroke:none"
         d="m 8.0722313,289.76373 c 12.5369807,39.97298 30.3249557,76.34841 52.8733567,108.10876 31.7967,44.76975 73.186912,81.3632 123.044122,108.78104 49.85723,-27.436 91.24744,-64.02947 123.04413,-108.78104 22.5484,-31.76035 40.33638,-68.13578 52.87336,-108.10876 C 376.27796,237.5263 382.61912,178.8932 378.74901,115.4815 376.64135,81.01389 370.99063,47.109527 361.9967,14.71324 l -0.32705,-1.1992 -0.54509,-0.254375 C 304.908,-13.467723 240.35162,-28.80281 183.98971,-28.80281 c -52.38277,0 -116.957322,15.335087 -177.1348387,42.062475 L 6.309785,13.495877 5.9645638,14.71324 C -3.0293588,47.109528 -8.661915,81.01389 -10.769582,115.4815 c -3.870112,63.4117 2.4528883,122.0448 18.8418133,174.28223"
         clip-path="none" /></g><g
       id="g4455"><g
         id="g32907"
         transform="matrix(1.25,0,0,-1.25,-95.400936,512.25762)"><path
  
           id="path674"
           style="fill:#ffffff;fill-opacity:1;fill-rule:nonzero;stroke:none"
           d="m 92.488364,301.80964 9.709806,0 0,-2.07859 -7.427711,0 0,-3.60484 6.584641,0 0,-2.06406 -6.584641,0 0,-5.32004 -2.282095,0 0,13.06753 z" /><path
  
           id="path676"
           style="fill:#ffffff;fill-opacity:1;fill-rule:nonzero;stroke:none"
           d="m 119.28916,290.62156 c 0.63957,0 1.23553,0.11629 1.77335,0.3634 0.53782,0.2471 1.00296,0.56689 1.39542,0.98842 0.37793,0.42153 0.68318,0.91574 0.90121,1.4681 0.2035,0.56689 0.31978,1.16285 0.31978,1.78788 l 0,0.0436 c 0,0.63956 -0.11628,1.23553 -0.31978,1.80242 -0.21803,0.56689 -0.52328,1.0611 -0.91575,1.46809 -0.39246,0.42154 -0.8576,0.75586 -1.40995,1.00296 -0.53782,0.24711 -1.13378,0.37793 -1.78788,0.37793 -0.63957,0 -1.23553,-0.11629 -1.77335,-0.36339 -0.53782,-0.24711 -1.00296,-0.58143 -1.38089,-0.98842 -0.39246,-0.42154 -0.68317,-0.91575 -0.90121,-1.4681 -0.21803,-0.56689 -0.31978,-1.16285 -0.31978,-1.80242 l 0,-0.0291 c 0,-0.63957 0.10175,-1.23553 0.31978,-1.80242 0.21804,-0.56689 0.52329,-1.0611 0.91575,-1.48264 0.37793,-0.40699 0.8576,-0.74131 1.39542,-0.98842 0.55235,-0.2471 1.14831,-0.37793 1.78788,-0.37793 m -0.0436,-2.10766 c -1.00296,0 -1.91871,0.17443 -2.76177,0.52328 -0.82854,0.36339 -1.54078,0.84307 -2.13674,1.45356 -0.6105,0.6105 -1.07564,1.32275 -1.40996,2.13674 -0.33432,0.814 -0.50875,1.68614 -0.50875,2.60188 l 0,0.0436 c 0,0.91574 0.17443,1.78788 0.50875,2.60188 0.33432,0.81399 0.814,1.52624 1.42449,2.15127 0.6105,0.6105 1.32275,1.10471 2.16581,1.4681 0.82853,0.36339 1.75881,0.53782 2.76177,0.53782 1.0175,0 1.93324,-0.17443 2.76177,-0.53782 0.84307,-0.34886 1.55532,-0.82853 2.15128,-1.43903 0.59596,-0.6105 1.0611,-1.32274 1.39542,-2.13674 0.34885,-0.81399 0.50874,-1.68613 0.50874,-2.61641 l 0,-0.0291 c 0,-0.91575 -0.15989,-1.78789 -0.50874,-2.60188 -0.33432,-0.814 -0.79946,-1.54078 -1.40996,-2.15127 -0.6105,-0.62504 -1.33728,-1.10471 -2.16581,-1.4681 -0.84307,-0.36339 -1.75881,-0.53782 -2.7763,-0.53782" /><path
  
           id="path678"
           style="fill:#ffffff;fill-opacity:1;fill-rule:nonzero;stroke:none"
           d="m 143.44012,290.62156 c 0.63956,0 1.23552,0.11629 1.77334,0.3634 0.53782,0.2471 1.00296,0.56689 1.38089,0.98842 0.39246,0.42153 0.69771,0.91574 0.91574,1.4681 0.2035,0.56689 0.31979,1.16285 0.31979,1.78788 l 0,0.0436 c 0,0.63956 -0.11629,1.23553 -0.31979,1.80242 -0.21803,0.56689 -0.52328,1.0611 -0.91574,1.46809 -0.39246,0.42154 -0.8576,0.75586 -1.40996,1.00296 -0.53782,0.24711 -1.13378,0.37793 -1.77335,0.37793 -0.6541,0 -1.25006,-0.11629 -1.78788,-0.36339 -0.53782,-0.24711 -1.00296,-0.58143 -1.38088,-0.98842 -0.39247,-0.42154 -0.68318,-0.91575 -0.90121,-1.4681 -0.21804,-0.56689 -0.31979,-1.16285 -0.31979,-1.80242 l 0,-0.0291 c 0,-0.63957 0.10175,-1.23553 0.31979,-1.80242 0.21803,-0.56689 0.52328,-1.0611 0.91574,-1.48264 0.37793,-0.40699 0.8576,-0.74131 1.39542,-0.98842 0.55236,-0.2471 1.14832,-0.37793 1.78789,-0.37793 m -0.0291,-2.10766 c -1.01749,0 -1.93324,0.17443 -2.7763,0.52328 -0.82853,0.36339 -1.54078,0.84307 -2.13674,1.45356 -0.6105,0.6105 -1.07564,1.32275 -1.40996,2.13674 -0.33432,0.814 -0.50874,1.68614 -0.50874,2.60188 l 0,0.0436 c 0,0.91574 0.17442,1.78788 0.50874,2.60188 0.33432,0.81399 0.814,1.52624 1.4245,2.15127 0.61049,0.6105 1.32274,1.10471 2.16581,1.4681 0.82853,0.36339 1.75881,0.53782 2.76177,0.53782 1.00295,0 1.93323,-0.17443 2.76177,-0.53782 0.84306,-0.34886 1.55531,-0.82853 2.15127,-1.43903 0.59596,-0.6105 1.0611,-1.32274 1.39542,-2.13674 0.33432,-0.81399 0.50875,-1.68613 0.50875,-2.61641 l 0,-0.0291 c 0,-0.91575 -0.17443,-1.78789 -0.50875,-2.60188 -0.33432,-0.814 -0.79946,-1.54078 -1.40996,-2.15127 -0.61049,-0.62504 -1.33727,-1.10471 -2.16581,-1.4681 -0.84306,-0.36339 -1.75881,-0.53782 -2.76177,-0.53782" /><path
  
           id="path680"
           style="fill:#ffffff;fill-opacity:1;fill-rule:nonzero;stroke:none"
           d="m 164.5255,299.67872 -4.14265,0 0,2.1222 10.59647,0 0,-2.1222 -4.14265,0 0,-10.94533 -2.31117,0 0,10.94533 z" /><path
  
           id="path682"
           style="fill:#ffffff;fill-opacity:1;fill-rule:nonzero;stroke:none"
           d="m 187.76798,290.77128 c 0.78492,0 1.39542,0.14536 1.84602,0.45061 0.45061,0.29071 0.66864,0.74131 0.66864,1.33727 l 0,0.0436 c 0,0.55236 -0.21803,0.98842 -0.66864,1.29367 -0.43607,0.30525 -1.1047,0.46514 -2.02045,0.46514 l -3.61937,0 0,-3.5903 3.7938,0 z m -0.66864,5.52354 c 0.74132,0 1.33728,0.14536 1.78788,0.43607 0.43607,0.30525 0.66864,0.74132 0.66864,1.33728 l 0,0.0436 c 0,0.52328 -0.2035,0.93028 -0.58142,1.22099 -0.407,0.29071 -0.95936,0.43607 -1.71521,0.43607 l -3.28505,0 0,-3.47402 3.12516,0 z m -5.40726,5.50901 5.85786,0 c 1.49717,0 2.63095,-0.37793 3.40134,-1.14832 0.59596,-0.59596 0.88668,-1.30821 0.88668,-2.16581 l 0,-0.0436 c 0,-0.39247 -0.0582,-0.74132 -0.1599,-1.06111 -0.10175,-0.30524 -0.2471,-0.56689 -0.40699,-0.79946 -0.17443,-0.23257 -0.36339,-0.43606 -0.59596,-0.61049 -0.23258,-0.17443 -0.46515,-0.31979 -0.69772,-0.43607 0.37793,-0.14536 0.74132,-0.30525 1.04657,-0.47968 0.31978,-0.18896 0.59596,-0.39246 0.82853,-0.6541 0.21804,-0.24711 0.39246,-0.53782 0.52328,-0.87214 0.11629,-0.33432 0.18897,-0.72678 0.18897,-1.17738 l 0,-0.0291 c 0,-0.59596 -0.11629,-1.1047 -0.34886,-1.55531 -0.23257,-0.4506 -0.55235,-0.82853 -0.97389,-1.11924 -0.42153,-0.30525 -0.93028,-0.52328 -1.54077,-0.68318 -0.59596,-0.15989 -1.25007,-0.23257 -1.97685,-0.23257 l -6.03229,0 0,13.06754 z" /><path
  
           id="path684"
           style="fill:#ffffff;fill-opacity:1;fill-rule:nonzero;stroke:none"
           d="m 211.36803,293.92697 -2.26756,5.23283 -2.23849,-5.23283 4.50605,0 z m -3.28505,7.98006 2.1222,0 5.75611,-13.16928 -2.42745,0 -1.32274,3.15423 -6.19218,0 -1.33728,-3.15423 -2.35477,0 5.75611,13.16928 z" /><path
  
           id="path686"
           style="fill:#ffffff;fill-opacity:1;fill-rule:nonzero;stroke:none"
           d="m 226.47637,301.80964 2.28209,0 0,-11.00347 6.87535,0 0,-2.06406 -9.15744,0 0,13.06753 z" /><path
  
           id="path688"
           style="fill:#ffffff;fill-opacity:1;fill-rule:nonzero;stroke:none"
           d="m 246.31024,301.80964 2.28209,0 0,-11.00347 6.87535,0 0,-2.06406 -9.15744,0 0,13.06753 z" /><path
  
           id="path690"
           style="fill:#ffffff;fill-opacity:1;fill-rule:nonzero;stroke:none"
           d="m 286.1117,288.51099 c -0.95935,0 -1.84602,0.17443 -2.64548,0.52328 -0.814,0.34886 -1.51171,0.82853 -2.10767,1.4245 -0.59596,0.61049 -1.0611,1.32274 -1.40995,2.13673 -0.33432,0.82853 -0.50875,1.70067 -0.50875,2.64549 l 0,0.0291 c 0,0.93028 0.17443,1.81695 0.50875,2.63095 0.31978,0.81399 0.79946,1.52624 1.39542,2.13674 0.59596,0.62503 1.3082,1.10471 2.13673,1.4681 0.814,0.34885 1.72974,0.52328 2.71817,0.52328 0.61049,0 1.14831,-0.0436 1.64252,-0.14536 0.49422,-0.10175 0.94482,-0.23257 1.35182,-0.42153 0.407,-0.17443 0.78492,-0.39246 1.13378,-0.63957 0.34885,-0.2471 0.68317,-0.52328 1.00296,-0.82853 l -1.48264,-1.70067 c -0.52328,0.49421 -1.07564,0.88667 -1.65706,1.17739 -0.59596,0.30525 -1.25006,0.4506 -2.00592,0.4506 -0.62503,0 -1.19192,-0.11628 -1.72974,-0.36339 -0.52328,-0.2471 -0.98842,-0.56689 -1.36635,-0.98842 -0.39246,-0.42153 -0.68317,-0.90121 -0.90121,-1.4681 -0.2035,-0.56689 -0.31978,-1.16285 -0.31978,-1.78788 l 0,-0.0436 c 0,-0.62503 0.11628,-1.23553 0.31978,-1.80242 0.21804,-0.56689 0.50875,-1.0611 0.90121,-1.48263 0.37793,-0.42154 0.84307,-0.75586 1.36635,-1.00296 0.53782,-0.23257 1.10471,-0.36339 1.72974,-0.36339 0.79946,0 1.48264,0.15989 2.04953,0.46514 0.58142,0.30525 1.14831,0.71224 1.70067,1.23553 l 1.48263,-1.49717 c -0.33432,-0.36339 -0.68317,-0.68318 -1.0611,-0.95936 -0.36339,-0.27617 -0.75585,-0.52328 -1.17739,-0.72678 -0.42153,-0.2035 -0.88667,-0.36339 -1.39542,-0.46514 -0.50875,-0.10175 -1.0611,-0.15989 -1.6716,-0.15989" /><path
  
           id="path692"
           style="fill:#ffffff;fill-opacity:1;fill-rule:nonzero;stroke:none"
           d="m 302.0791,301.80964 2.28209,0 0,-11.00347 6.87535,0 0,-2.06406 -9.15744,0 0,13.06753 z" /><path
  
           id="path694"
           style="fill:#ffffff;fill-opacity:1;fill-rule:nonzero;stroke:none"
           d="m 327.27516,288.52989 c -0.84307,0 -1.61345,0.11628 -2.29663,0.36339 -0.68317,0.2471 -1.2646,0.61049 -1.75881,1.09017 -0.47968,0.49421 -0.8576,1.09017 -1.11924,1.80242 -0.26165,0.71224 -0.39247,1.55531 -0.39247,2.50013 l 0,7.52946 2.2821,0 0,-7.44225 c 0,-1.22099 0.29071,-2.15127 0.88667,-2.7763 0.58143,-0.63957 1.39542,-0.95936 2.44199,-0.95936 1.01749,0 1.83149,0.30525 2.41291,0.91575 0.59596,0.6105 0.88668,1.52624 0.88668,2.7327 l 0,7.52946 2.28209,0 0,-7.42771 c 0,-0.95935 -0.13082,-1.81696 -0.407,-2.55827 -0.26164,-0.72679 -0.63957,-1.33728 -1.13378,-1.83149 -0.47967,-0.49422 -1.0611,-0.85761 -1.75881,-1.10471 -0.69771,-0.24711 -1.4681,-0.36339 -2.3257,-0.36339" /><path
  
           id="path696"
           style="fill:#ffffff;fill-opacity:1;fill-rule:nonzero;stroke:none"
           d="m 350.40426,290.77128 c 0.78492,0 1.39542,0.14536 1.84602,0.45061 0.45061,0.29071 0.66864,0.74131 0.66864,1.33727 l 0,0.0436 c 0,0.55236 -0.21803,0.98842 -0.66864,1.29367 -0.43607,0.30525 -1.1047,0.46514 -2.02045,0.46514 l -3.61937,0 0,-3.5903 3.7938,0 z m -0.66864,5.52354 c 0.74132,0 1.33728,0.14536 1.78788,0.43607 0.43607,0.30525 0.66864,0.74132 0.66864,1.33728 l 0,0.0436 c 0,0.52328 -0.2035,0.93028 -0.58142,1.22099 -0.407,0.29071 -0.95936,0.43607 -1.71521,0.43607 l -3.28505,0 0,-3.47402 3.12516,0 z m -5.40726,5.50901 5.85786,0 c 1.49717,0 2.63095,-0.37793 3.40134,-1.14832 0.59596,-0.59596 0.88667,-1.30821 0.88667,-2.16581 l 0,-0.0436 c 0,-0.39247 -0.0581,-0.74132 -0.15989,-1.06111 -0.10175,-0.30524 -0.2471,-0.56689 -0.40699,-0.79946 -0.17443,-0.23257 -0.3634,-0.43606 -0.59597,-0.61049 -0.23257,-0.17443 -0.46514,-0.31979 -0.69771,-0.43607 0.37793,-0.14536 0.74132,-0.30525 1.04657,-0.47968 0.31978,-0.18896 0.59596,-0.39246 0.82853,-0.6541 0.21804,-0.24711 0.39246,-0.53782 0.52328,-0.87214 0.11629,-0.33432 0.18897,-0.72678 0.18897,-1.17738 l 0,-0.0291 c 0,-0.59596 -0.11629,-1.1047 -0.34886,-1.55531 -0.23257,-0.4506 -0.55235,-0.82853 -0.97389,-1.11924 -0.42153,-0.30525 -0.94481,-0.52328 -1.54077,-0.68318 -0.59596,-0.15989 -1.25007,-0.23257 -1.97685,-0.23257 l -6.03229,0 0,13.06754 z" /><path
  
           id="path698"
           style="fill:#ffffff;fill-opacity:1;fill-rule:nonzero;stroke:none"
           d="m 97.084531,267.11599 c -1.017494,0 -1.976846,0.17443 -2.89259,0.50875 -0.930281,0.34886 -1.773348,0.87214 -2.558272,1.58439 l 1.380885,1.64252 c 0.639568,-0.55235 1.279136,-0.97389 1.918704,-1.2646 0.654103,-0.29071 1.380885,-0.43607 2.209416,-0.43607 0.712246,0 1.2646,0.14536 1.686133,0.45061 0.421533,0.30525 0.625032,0.69771 0.625032,1.19192 l 0,0.0436 c 0,0.23257 -0.04361,0.43607 -0.116285,0.62503 -0.08721,0.17443 -0.23257,0.34885 -0.450604,0.50875 -0.218035,0.15989 -0.523283,0.30524 -0.90121,0.4506 -0.377926,0.13082 -0.872137,0.27618 -1.482634,0.407 -0.712246,0.15989 -1.322743,0.34885 -1.875097,0.55235 -0.537818,0.2035 -0.988423,0.45061 -1.366349,0.74132 -0.363391,0.30525 -0.639568,0.6541 -0.843067,1.07564 -0.188963,0.42153 -0.290712,0.94481 -0.290712,1.54077 l 0,0.0291 c 0,0.56689 0.116285,1.07564 0.334319,1.54078 0.23257,0.46514 0.537819,0.87214 0.915745,1.19192 0.392462,0.33432 0.857602,0.59596 1.409956,0.78493 0.552354,0.18896 1.148315,0.27617 1.787883,0.27617 0.959352,0 1.816954,-0.14535 2.587343,-0.42153 0.770388,-0.27618 1.482633,-0.68317 2.165813,-1.22099 l -1.23553,-1.72974 c -0.595964,0.43607 -1.191925,0.75585 -1.77335,0.98842 -0.581425,0.23257 -1.177386,0.34886 -1.773347,0.34886 -0.683175,0 -1.206458,-0.14536 -1.569848,-0.45061 -0.377927,-0.29071 -0.56689,-0.66864 -0.56689,-1.10471 l 0,-0.0291 c 0,-0.2471 0.04361,-0.46514 0.130821,-0.66864 0.08721,-0.18896 0.247105,-0.36339 0.479676,-0.52328 0.23257,-0.15989 0.552354,-0.30525 0.959351,-0.43607 0.406998,-0.13082 0.915745,-0.27618 1.540777,-0.43607 0.683175,-0.17443 1.293671,-0.36339 1.83149,-0.56689 0.523283,-0.21803 0.95935,-0.47967 1.30821,-0.78492 0.34885,-0.30525 0.62503,-0.65411 0.79946,-1.0611 0.18896,-0.407 0.27617,-0.87214 0.27617,-1.40996 l 0,-0.0436 c 0,-0.59596 -0.11628,-1.14831 -0.34885,-1.62799 -0.21804,-0.49421 -0.53782,-0.90121 -0.94482,-1.23553 -0.407,-0.33432 -0.901207,-0.59596 -1.468097,-0.77038 -0.581425,-0.17443 -1.206457,-0.26165 -1.889632,-0.26165" /><path
  
           id="path700"
           style="fill:#ffffff;fill-opacity:1;fill-rule:nonzero;stroke:none"
           d="m 111.51987,269.18878 c 0.63957,0 1.23553,0.11628 1.77334,0.36339 0.53782,0.2471 1.00296,0.56689 1.38089,0.98842 0.39246,0.42153 0.69771,0.90121 0.91574,1.4681 0.21804,0.55235 0.31979,1.16285 0.31979,1.78788 l 0,0.0436 c 0,0.63957 -0.10175,1.23553 -0.31979,1.80242 -0.21803,0.56689 -0.52328,1.0611 -0.91574,1.46809 -0.39246,0.42154 -0.8576,0.75586 -1.40996,1.00296 -0.53782,0.24711 -1.13378,0.37793 -1.78788,0.37793 -0.63957,0 -1.23553,-0.11629 -1.77335,-0.36339 -0.53781,-0.24711 -1.00296,-0.58143 -1.38088,-0.98842 -0.37793,-0.42154 -0.68318,-0.91575 -0.90121,-1.4681 -0.21804,-0.56689 -0.31978,-1.16285 -0.31978,-1.80242 l 0,-0.0291 c 0,-0.63957 0.10174,-1.23553 0.31978,-1.80242 0.21803,-0.56689 0.52328,-1.0611 0.91574,-1.48264 0.37793,-0.40699 0.85761,-0.74131 1.39542,-0.98842 0.55236,-0.2471 1.14832,-0.37792 1.78789,-0.37792 m -0.0436,-2.10767 c -1.00296,0 -1.9187,0.17443 -2.76177,0.52328 -0.82853,0.36339 -1.54078,0.84307 -2.13674,1.45356 -0.61049,0.6105 -1.07563,1.32275 -1.40995,2.13674 -0.33432,0.814 -0.49422,1.68614 -0.49422,2.60188 l 0,0.0436 c 0,0.91574 0.1599,1.78788 0.49422,2.60188 0.33432,0.81399 0.81399,1.52624 1.42449,2.15127 0.61049,0.6105 1.33728,1.10471 2.16581,1.4681 0.82853,0.36339 1.75881,0.53782 2.76177,0.53782 1.00296,0 1.93324,-0.17443 2.76177,-0.53782 0.84306,-0.34886 1.55531,-0.82853 2.15127,-1.43903 0.59596,-0.6105 1.0611,-1.32274 1.39542,-2.13674 0.34886,-0.81399 0.50875,-1.68613 0.50875,-2.61641 l 0,-0.0291 c 0,-0.93028 -0.15989,-1.78789 -0.50875,-2.60188 -0.33432,-0.814 -0.79946,-1.54078 -1.40995,-2.15127 -0.6105,-0.62504 -1.33728,-1.10471 -2.16581,-1.4681 -0.84307,-0.36339 -1.75882,-0.53782 -2.77631,-0.53782" /><path
  
           id="path702"
           style="fill:#ffffff;fill-opacity:1;fill-rule:nonzero;stroke:none"
           d="m 128.01345,267.0782 c -0.95935,0 -1.84603,0.17443 -2.64549,0.52328 -0.81399,0.34886 -1.5117,0.82854 -2.10766,1.4245 -0.59596,0.61049 -1.07564,1.32274 -1.40996,2.13673 -0.33432,0.82854 -0.50875,1.70067 -0.50875,2.64549 l 0,0.0291 c 0,0.93028 0.17443,1.81695 0.49422,2.63095 0.33431,0.814 0.79946,1.52624 1.40995,2.15127 0.59596,0.6105 1.30821,1.09018 2.13674,1.45357 0.814,0.34885 1.72974,0.52328 2.71816,0.52328 0.6105,0 1.14832,-0.0436 1.64253,-0.14536 0.49421,-0.10175 0.94482,-0.23257 1.35181,-0.42153 0.407,-0.17443 0.78493,-0.39246 1.13378,-0.63957 0.34886,-0.2471 0.68318,-0.52328 0.98843,-0.82853 l -1.4681,-1.70067 c -0.52329,0.49421 -1.07564,0.88668 -1.6716,1.17739 -0.58143,0.30525 -1.25007,0.4506 -1.99138,0.4506 -0.62503,0 -1.19192,-0.11628 -1.72974,-0.36339 -0.52329,-0.2471 -0.98843,-0.56689 -1.36635,-0.98842 -0.39246,-0.42153 -0.68318,-0.90121 -0.90121,-1.4681 -0.2035,-0.56689 -0.31979,-1.16285 -0.31979,-1.78788 l 0,-0.0436 c 0,-0.62503 0.11629,-1.23553 0.31979,-1.80242 0.21803,-0.56689 0.50875,-1.0611 0.90121,-1.48263 0.37792,-0.42154 0.84306,-0.75586 1.36635,-1.00296 0.53782,-0.23257 1.10471,-0.36339 1.72974,-0.36339 0.79946,0 1.48263,0.15989 2.04952,0.46514 0.58143,0.30525 1.14832,0.71224 1.70067,1.23553 l 1.48263,-1.49717 c -0.33431,-0.34886 -0.68317,-0.68318 -1.0611,-0.95935 -0.36339,-0.27618 -0.75585,-0.52329 -1.17738,-0.72679 -0.42154,-0.20349 -0.88668,-0.36339 -1.39542,-0.46514 -0.50875,-0.10175 -1.0611,-0.15989 -1.6716,-0.15989" /><path
  
           id="path704"
           style="fill:#ffffff;fill-opacity:1;fill-rule:nonzero;stroke:none"
           d="m 136.51098,280.37685 2.28209,0 0,-5.43632 6.26486,0 0,5.43632 2.2821,0 0,-13.06753 -2.2821,0 0,5.509 -6.26486,0 0,-5.509 -2.28209,0 0,13.06753 z" /><path
  
           id="path706"
           style="fill:#ffffff;fill-opacity:1;fill-rule:nonzero;stroke:none"
           d="m 159.4264,272.49563 -2.26756,5.23283 -2.23848,-5.23283 4.50604,0 z m -3.28505,7.98006 2.1222,0 5.75611,-13.16928 -2.42745,0 -1.32274,3.15423 -6.19218,0 -1.33728,-3.15423 -2.35477,0 5.75611,13.16928 z" /><path
  
           id="path708"
           style="fill:#ffffff;fill-opacity:1;fill-rule:nonzero;stroke:none"
           d="m 172.42562,267.0971 c -0.84307,0 -1.61346,0.11628 -2.29663,0.36339 -0.68318,0.2471 -1.2646,0.6105 -1.75881,1.09017 -0.47968,0.49421 -0.8576,1.09017 -1.11925,1.80242 -0.26164,0.71225 -0.39246,1.55531 -0.39246,2.50013 l 0,7.52946 2.2821,0 0,-7.44225 c 0,-1.22099 0.29071,-2.15127 0.88667,-2.7763 0.58143,-0.63957 1.39542,-0.95936 2.44199,-0.95936 1.01749,0 1.83149,0.30525 2.41291,0.91575 0.59596,0.6105 0.88667,1.52624 0.88667,2.7327 l 0,7.52946 2.2821,0 0,-7.42771 c 0,-0.95935 -0.13082,-1.81696 -0.407,-2.54374 -0.26164,-0.74132 -0.63957,-1.35181 -1.13378,-1.84602 -0.47967,-0.49421 -1.0611,-0.85761 -1.75881,-1.10471 -0.69771,-0.24711 -1.4681,-0.36339 -2.3257,-0.36339" /><path
  
           id="path710"
           style="fill:#ffffff;fill-opacity:1;fill-rule:nonzero;stroke:none"
           d="m 185.7795,273.9521 -4.57872,6.42475 2.71816,0 3.24145,-4.69501 3.27052,4.69501 2.63095,0 -4.54966,-6.38114 4.73862,-6.68639 -2.70363,0 -3.44494,4.94211 -3.44495,-4.94211 -2.64548,0 4.76768,6.64278 z" /><path
  
           id="path712"
           style="fill:#ffffff;fill-opacity:1;fill-rule:nonzero;stroke:none"
           d="m 195.78874,271.91275 5.52354,0 0,2.22395 -5.52354,0 0,-2.22395 z" /><path
  
           id="path714"
           style="fill:#ffffff;fill-opacity:1;fill-rule:nonzero;stroke:none"
           d="m 204.8488,280.37685 2.44199,0 3.98276,-6.17764 3.98276,6.17764 2.44199,0 0,-13.06753 -2.2821,0 0,9.37548 -4.12812,-6.16311 -0.0727,0 -4.08452,6.1195 0,-9.33187 -2.28209,0 0,13.06753 z" /><path
  
           id="path716"
           style="fill:#ffffff;fill-opacity:1;fill-rule:nonzero;stroke:none"
           d="m 228.13924,269.18878 c 0.63957,0 1.23553,0.11628 1.77335,0.36339 0.53782,0.2471 1.00296,0.56689 1.38089,0.98842 0.39246,0.42153 0.69771,0.90121 0.91574,1.4681 0.2035,0.55235 0.31978,1.16285 0.31978,1.78788 l 0,0.0436 c 0,0.63957 -0.11628,1.23553 -0.31978,1.80242 -0.21803,0.56689 -0.52328,1.0611 -0.91574,1.46809 -0.39247,0.42154 -0.85761,0.75586 -1.40996,1.00296 -0.53782,0.24711 -1.13378,0.37793 -1.78788,0.37793 -0.63957,0 -1.23553,-0.11629 -1.77335,-0.36339 -0.53782,-0.24711 -1.00296,-0.58143 -1.38089,-0.98842 -0.39246,-0.42154 -0.68317,-0.91575 -0.90121,-1.4681 -0.21803,-0.56689 -0.31978,-1.16285 -0.31978,-1.80242 l 0,-0.0291 c 0,-0.63957 0.10175,-1.23553 0.31978,-1.80242 0.21804,-0.56689 0.52329,-1.0611 0.91575,-1.48264 0.37793,-0.40699 0.8576,-0.74131 1.39542,-0.98842 0.55235,-0.2471 1.14832,-0.37792 1.78788,-0.37792 m -0.0436,-2.10767 c -1.00296,0 -1.91871,0.17443 -2.76177,0.52328 -0.82854,0.36339 -1.54078,0.84307 -2.13674,1.45356 -0.6105,0.6105 -1.07564,1.32275 -1.40996,2.13674 -0.33432,0.814 -0.50875,1.68614 -0.50875,2.60188 l 0,0.0436 c 0,0.91574 0.17443,1.78788 0.50875,2.60188 0.33432,0.81399 0.814,1.52624 1.42449,2.15127 0.6105,0.6105 1.32275,1.10471 2.16581,1.4681 0.82853,0.36339 1.75881,0.53782 2.76177,0.53782 1.00296,0 1.93324,-0.17443 2.76177,-0.53782 0.82853,-0.34886 1.55532,-0.82853 2.15128,-1.43903 0.59596,-0.6105 1.0611,-1.32274 1.39542,-2.13674 0.33432,-0.81399 0.50874,-1.68613 0.50874,-2.61641 l 0,-0.0291 c 0,-0.93028 -0.17442,-1.78789 -0.50874,-2.60188 -0.33432,-0.814 -0.79946,-1.54078 -1.40996,-2.15127 -0.6105,-0.62504 -1.33728,-1.10471 -2.16581,-1.4681 -0.84306,-0.36339 -1.75881,-0.53782 -2.7763,-0.53782" /><path
  
           id="path718"
           style="fill:#ffffff;fill-opacity:1;fill-rule:nonzero;stroke:none"
           d="m 238.54094,280.37685 2.1222,0 6.99164,-9.04116 0,9.04116 2.2821,0 0,-13.06753 -1.91871,0 -7.19513,9.28827 0,-9.28827 -2.2821,0 0,13.06753 z" /><path
  
           id="path720"
           style="fill:#ffffff;fill-opacity:1;fill-rule:nonzero;stroke:none"
           d="m 257.3108,278.24738 -4.14265,0 0,2.1222 10.61101,0 0,-2.1222 -4.15719,0 0,-10.94533 -2.31117,0 0,10.94533 z" /><path
  
           id="path722"
           style="fill:#ffffff;fill-opacity:1;fill-rule:nonzero;stroke:none"
           d="m 273.08196,269.33849 c 0.78493,0 1.39542,0.14536 1.84603,0.45061 0.4506,0.29071 0.66864,0.74131 0.66864,1.33728 l 0,0.0436 c 0,0.55236 -0.21804,0.98843 -0.66864,1.29367 -0.43607,0.30525 -1.10471,0.46514 -2.02045,0.46514 l -3.61938,0 0,-3.5903 3.7938,0 z m -0.66864,5.52354 c 0.74132,0 1.33728,0.14536 1.78789,0.45061 0.43607,0.29071 0.66864,0.72678 0.66864,1.32274 l 0,0.0436 c 0,0.52328 -0.2035,0.93028 -0.58143,1.22099 -0.39246,0.29071 -0.95935,0.43607 -1.7152,0.43607 l -3.28506,0 0,-3.47402 3.12516,0 z m -5.40725,5.50901 5.85786,0 c 1.49717,0 2.63095,-0.37793 3.40134,-1.14832 0.59596,-0.58142 0.88667,-1.3082 0.88667,-2.16581 l 0,-0.0436 c 0,-0.39247 -0.0581,-0.74132 -0.15989,-1.04657 -0.10175,-0.31978 -0.24711,-0.58142 -0.407,-0.81399 -0.17443,-0.23257 -0.36339,-0.42154 -0.59596,-0.59597 -0.23257,-0.18896 -0.46514,-0.33432 -0.69771,-0.4506 0.37793,-0.14536 0.74132,-0.30525 1.04657,-0.47968 0.31978,-0.18896 0.59596,-0.39246 0.82853,-0.6541 0.21803,-0.24711 0.39246,-0.53782 0.52328,-0.87214 0.11628,-0.33432 0.18896,-0.72678 0.18896,-1.17738 l 0,-0.0291 c 0,-0.59597 -0.11628,-1.10471 -0.34885,-1.55532 -0.23257,-0.4506 -0.55236,-0.82853 -0.97389,-1.11924 -0.42153,-0.30525 -0.93028,-0.52328 -1.52624,-0.68318 -0.6105,-0.15989 -1.2646,-0.23257 -1.97685,-0.23257 l -6.04682,0 0,13.06754 z" /><path
  
           id="path724"
           style="fill:#ffffff;fill-opacity:1;fill-rule:nonzero;stroke:none"
           d="m 286.76435,284.52241 2.04953,-0.91574 -2.26756,-2.15127 -1.75881,0 1.97684,3.06701 z m -5.46539,-4.14265 9.66619,0 0,-2.0786 -7.39864,0.0436 0,-3.40134 6.55557,0 0,-2.07859 -6.55557,0.0291 0,-3.51762 7.50039,0 0,-2.0786 -9.76794,0 0,13.08207 z" /><path
  
           id="path726"
           style="fill:#ffffff;fill-opacity:1;fill-rule:nonzero;stroke:none"
           d="m 294.60923,280.37685 2.2821,0 0,-11.00347 6.87535,0 0,-2.06406 -9.15745,0 0,13.06753 z" /><path
  
           id="path728"
           style="fill:#ffffff;fill-opacity:1;fill-rule:nonzero;stroke:none"
           d="m 307.10261,267.30496 2.28209,0 0,13.06753 -2.28209,0 0,-13.06753 z" /><path
  
           id="path730"
           style="fill:#ffffff;fill-opacity:1;fill-rule:nonzero;stroke:none"
           d="m 321.61499,272.49563 -2.26756,5.23283 -2.23849,-5.23283 4.50605,0 z m -3.28506,7.98006 2.1222,0 5.75611,-13.16928 -2.42745,0 -1.32274,3.15423 -6.19218,0 -1.33728,-3.15423 -2.35477,0 5.75611,13.16928 z" /><path
  
           id="path732"
           style="fill:#ffffff;fill-opacity:1;fill-rule:nonzero;stroke:none"
           d="m 334.90491,273.89541 c 0.82853,0 1.48264,0.18897 1.96231,0.59596 0.49422,0.39247 0.74132,0.91575 0.74132,1.59892 l 0,0.0436 c 0,0.71225 -0.2471,1.25006 -0.71224,1.61346 -0.47968,0.37792 -1.14832,0.55235 -2.00592,0.55235 l -3.35773,0 0,-4.4043 3.37226,0 z m -5.65436,6.48289 5.82879,0 c 0.82853,0 1.55531,-0.11628 2.18035,-0.34885 0.63956,-0.23257 1.17738,-0.55235 1.59892,-0.95935 0.34885,-0.36339 0.61049,-0.78493 0.79946,-1.25007 0.18896,-0.47967 0.27617,-1.00295 0.27617,-1.56984 l 0,-0.0436 c 0,-0.53782 -0.0727,-1.0175 -0.23257,-1.43903 -0.14535,-0.43607 -0.36339,-0.81399 -0.63957,-1.14831 -0.27617,-0.31979 -0.59596,-0.6105 -0.98842,-0.82853 -0.37793,-0.23258 -0.79946,-0.42154 -1.25006,-0.53782 l 3.51762,-4.95665 -2.70363,0 -3.22691,4.56418 -0.0291,0 -2.84898,0 0,-4.56418 -2.2821,0 0,13.08206 z" /><path
  
           id="path734"
           style="fill:#ffffff;fill-opacity:1;fill-rule:nonzero;stroke:none"
           d="m 348.41724,269.37629 c 0.68317,0 1.3082,0.10174 1.87509,0.31978 0.55236,0.23257 1.03203,0.53782 1.4245,0.93028 0.39246,0.39246 0.69771,0.8576 0.91574,1.40996 0.21803,0.53781 0.31978,1.11924 0.31978,1.75881 l 0,0.0436 c 0,0.63957 -0.10175,1.23553 -0.31978,1.78789 -0.21803,0.53782 -0.52328,1.01749 -0.91574,1.40995 -0.39247,0.39247 -0.87214,0.69771 -1.4245,0.93028 -0.56689,0.21804 -1.19192,0.33432 -1.87509,0.33432 l -2.57281,0 0,-8.92487 2.57281,0 z m -4.8549,11.00347 4.86943,0 c 1.03203,0 1.96231,-0.17443 2.81992,-0.49421 0.84306,-0.33432 1.58438,-0.78493 2.19488,-1.38089 0.62503,-0.58142 1.1047,-1.2646 1.43902,-2.06406 0.33432,-0.78492 0.49421,-1.64252 0.49421,-2.55827 l 0,-0.0436 c 0,-0.91574 -0.15989,-1.78788 -0.49421,-2.5728 -0.33432,-0.79946 -0.81399,-1.49717 -1.43902,-2.0786 -0.6105,-0.58142 -1.35182,-1.04656 -2.19488,-1.38088 -0.85761,-0.33432 -1.78789,-0.50875 -2.81992,-0.50875 l -4.86943,0 0,13.08207 z" /></g><g
         id="g32990"
         transform="matrix(1.25,0,0,-1.25,-95.400936,512.25762)"><path
  
           id="path816"
           style="fill:#ffffff;fill-opacity:1;fill-rule:nonzero;stroke:none"
           d="m 195.4457,62.620002 -4.41883,-1.409956 0.59596,-2.354773 2.96527,0.813996 0,-13.648959 2.87805,0 0,16.599692 -2.02045,0 z" /><path
  
           id="path822"
           style="fill:#ffffff;fill-opacity:1;fill-rule:nonzero;stroke:none"
           d="m 211.6006,54.237303 c 0.52328,0 0.98842,0.07268 1.40996,0.23257 0.40699,0.159892 0.77039,0.377927 1.0611,0.654104 0.29071,0.276177 0.50875,0.581425 0.6541,0.93028 0.15989,0.363391 0.23257,0.741317 0.23257,1.148315 l 0,0.04361 c 0,0.872138 -0.31978,1.584384 -0.94481,2.165809 -0.6105,0.581425 -1.45357,0.872138 -2.50013,0.872138 -0.52329,0 -0.98843,-0.07268 -1.39542,-0.23257 -0.39247,-0.159892 -0.74132,-0.377927 -1.0175,-0.654104 -0.29071,-0.290712 -0.50874,-0.610496 -0.6541,-0.988423 -0.14536,-0.36339 -0.21804,-0.755852 -0.21804,-1.177386 l 0,-0.05814 c 0,-0.857603 0.29072,-1.569849 0.90121,-2.107667 0.6105,-0.552354 1.43903,-0.828531 2.47106,-0.828531 m -0.59596,-8.488809 c -1.14831,0 -2.13674,0.174428 -2.96527,0.537818 -0.82853,0.363391 -1.59892,0.843067 -2.31116,1.409957 l 1.56984,2.209416 c 0.63957,-0.537819 1.25007,-0.930281 1.83149,-1.177387 0.59596,-0.247105 1.23553,-0.377926 1.94778,-0.377926 0.61049,0 1.14831,0.130821 1.62799,0.377926 0.47967,0.261642 0.88667,0.610497 1.22099,1.075637 0.33432,0.46514 0.6105,1.017495 0.78493,1.657062 0.20349,0.639568 0.30524,1.337278 0.33432,2.093131 -0.407,-0.508747 -0.93028,-0.915744 -1.55532,-1.250064 -0.63956,-0.33432 -1.40995,-0.494212 -2.29663,-0.494212 -0.88667,0 -1.68613,0.116286 -2.39838,0.363391 -0.71224,0.247106 -1.32274,0.595961 -1.83149,1.046566 -0.50874,0.46514 -0.9012,1.002958 -1.19192,1.657062 -0.27617,0.639568 -0.42153,1.366349 -0.42153,2.165809 l 0,0.04361 c 0,0.79946 0.14536,1.540777 0.4506,2.253023 0.29072,0.69771 0.71225,1.293671 1.2646,1.802418 0.53782,0.508747 1.17739,0.915745 1.93324,1.206458 0.75586,0.290712 1.58439,0.436069 2.50013,0.436069 1.03203,0 1.90417,-0.145357 2.61642,-0.436069 0.71224,-0.290713 1.36634,-0.726782 1.94777,-1.308207 0.6105,-0.610497 1.09017,-1.409957 1.45356,-2.383844 0.36339,-0.988423 0.53782,-2.282094 0.53782,-3.895549 l 0,-0.05814 c 0,-1.308207 -0.15989,-2.5292 -0.47967,-3.633908 -0.31979,-1.104708 -0.78493,-2.049524 -1.38089,-2.834448 -0.6105,-0.784924 -1.35181,-1.395421 -2.22395,-1.83149 -0.88667,-0.436069 -1.8751,-0.654103 -2.96527,-0.654103" /><path
  
           id="path824"
           style="fill:#ffffff;fill-opacity:1;fill-rule:nonzero;stroke:none"
           d="m 224.79314,48.302404 5.6689,4.811295 c 0.56689,0.479676 1.04656,0.901209 1.43902,1.279135 0.39247,0.392462 0.71225,0.755853 0.94482,1.104708 0.24711,0.33432 0.42153,0.683175 0.53782,1.002959 0.11628,0.334319 0.15989,0.683175 0.15989,1.061101 0,0.813995 -0.2471,1.439028 -0.75585,1.889632 -0.52328,0.450605 -1.14832,0.668639 -1.90417,0.668639 -0.74132,0 -1.40996,-0.203499 -1.97685,-0.610496 -0.58142,-0.406998 -1.19192,-1.03203 -1.83149,-1.860561 l -2.04952,1.598919 c 0.39246,0.552354 0.79946,1.046566 1.20646,1.482635 0.407,0.436069 0.84306,0.79946 1.32274,1.090172 0.47968,0.290713 1.00296,0.523283 1.58438,0.683175 0.56689,0.145356 1.221,0.23257 1.96231,0.23257 0.79946,0 1.52625,-0.116285 2.19489,-0.348855 0.66863,-0.247106 1.25006,-0.581425 1.72974,-1.002959 0.46514,-0.436069 0.84306,-0.959351 1.11924,-1.555312 0.26164,-0.610497 0.39246,-1.279136 0.39246,-2.005918 l 0,-0.05814 c 0,-0.639568 -0.0872,-1.220993 -0.26164,-1.744276 -0.17443,-0.537818 -0.43607,-1.03203 -0.78492,-1.526241 -0.3634,-0.479676 -0.79946,-0.973888 -1.33728,-1.468099 -0.55236,-0.494212 -1.17739,-1.046566 -1.90417,-1.642527 l -3.3868,-2.819912 7.8347,0 0,-2.543736 -11.90468,0 0,2.282094 z" /><path
  
           id="path826"
           style="fill:#ffffff;fill-opacity:1;fill-rule:nonzero;stroke:none"
           d="m 249.71594,55.509171 c 0.84306,0 1.55531,0.23257 2.10766,0.683175 0.55236,0.46514 0.82853,1.046565 0.82853,1.758811 l 0,0.04361 c 0,0.639568 -0.26164,1.191922 -0.79946,1.642526 -0.52328,0.450605 -1.23553,0.668639 -2.13673,0.668639 -0.88668,0 -1.61346,-0.218034 -2.13674,-0.668639 -0.53782,-0.450604 -0.79946,-0.988423 -0.79946,-1.613455 l 0,-0.05814 c 0,-0.726782 0.27617,-1.308207 0.82853,-1.773347 0.55235,-0.450605 1.2646,-0.683175 2.10767,-0.683175 m 0,-7.296887 c 1.07563,0 1.93323,0.247105 2.54373,0.712246 0.6105,0.479675 0.91575,1.075636 0.91575,1.758811 l 0,0.04361 c 0,0.377926 -0.0872,0.726781 -0.27618,1.03203 -0.17443,0.305248 -0.42153,0.566889 -0.72678,0.784924 -0.30525,0.218034 -0.66864,0.392462 -1.09018,0.508747 -0.42153,0.116285 -0.88667,0.174428 -1.36634,0.174428 -0.47968,0 -0.94482,-0.05814 -1.36635,-0.174428 -0.42154,-0.116285 -0.78493,-0.290713 -1.09018,-0.508747 -0.30524,-0.218035 -0.55235,-0.479676 -0.72678,-0.784924 -0.18896,-0.305249 -0.27618,-0.654104 -0.27618,-1.03203 l 0,-0.04361 c 0,-0.668639 0.30525,-1.250064 0.91575,-1.744276 0.6105,-0.479676 1.4681,-0.726781 2.54374,-0.726781 m 0,-2.427451 c -0.88668,0 -1.72975,0.116285 -2.50013,0.348855 -0.77039,0.218035 -1.4245,0.537819 -1.99139,0.944816 -0.56688,0.406998 -1.00295,0.901209 -1.32274,1.482635 -0.31978,0.581425 -0.46514,1.220993 -0.46514,1.933239 l 0,0.04361 c 0,1.002958 0.26164,1.816954 0.77039,2.456521 0.52328,0.654104 1.25006,1.162851 2.19488,1.555313 -0.71224,0.363391 -1.29367,0.843067 -1.72974,1.424492 -0.4506,0.581425 -0.66864,1.322743 -0.66864,2.253023 l 0,0.05814 c 0,0.625032 0.13082,1.206457 0.43607,1.744275 0.27618,0.552354 0.68318,1.017495 1.17739,1.424492 0.50874,0.392462 1.1047,0.712246 1.80242,0.944816 0.69771,0.218035 1.46809,0.33432 2.29663,0.33432 0.81399,0 1.56984,-0.116285 2.28209,-0.33432 0.71225,-0.23257 1.30821,-0.537818 1.81695,-0.944816 0.49421,-0.392462 0.90121,-0.857602 1.17739,-1.409956 0.29071,-0.552354 0.43607,-1.133779 0.43607,-1.758811 l 0,-0.05814 c 0,-0.93028 -0.21804,-1.671598 -0.66864,-2.253023 -0.43607,-0.581425 -1.01749,-1.061101 -1.72974,-1.424492 0.90121,-0.406998 1.61345,-0.915745 2.15127,-1.540777 0.55236,-0.610496 0.814,-1.409956 0.814,-2.398379 l 0,-0.05814 c 0,-0.726781 -0.14536,-1.39542 -0.46514,-1.976846 -0.31979,-0.581425 -0.75585,-1.090172 -1.32274,-1.511705 -0.56689,-0.406998 -1.221,-0.726782 -1.99139,-0.944816 -0.77038,-0.218035 -1.59892,-0.33432 -2.50012,-0.33432" /></g><g
         id="g33924"
         transform="matrix(1.25,0,0,-1.25,-95.400936,512.25762)"><path
  
           id="path760"
           style="fill:#ffcf21;fill-opacity:1;fill-rule:nonzero;stroke:none"
           d="m 92.092999,313.67257 15.887441,0 0,27.96652 34.46398,0 0,14.33214 -34.46398,0 0,15.58219 39.10085,0 0,14.34673 -54.988291,0 0,-72.22758 z" /><path
  
           id="path33033"
           d="m 186.14062,312.25391 c -5.26725,0 -10.18284,0.96412 -14.6289,2.91015 -0.001,5.9e-4 -0.003,10e-4 -0.004,0.002 -0.002,8.1e-4 -0.004,10e-4 -0.006,0.002 -4.48711,1.9321 -8.35586,4.60068 -11.64453,7.90234 l -0.006,0.008 -0.008,0.006 c -3.29684,3.39054 -5.86797,7.35137 -7.7832,11.8379 l -0.008,0.0156 -0.006,0.0156 c -1.84207,4.58309 -2.80665,9.43514 -2.80665,14.6504 l 0,0.15429 c 0,5.13739 0.95996,10.0546 2.80665,14.57227 1.77337,4.52599 4.43305,8.48674 7.71484,11.86328 3.30852,3.48127 7.26808,6.15241 11.81445,8.1543 l 0.006,0.002 0.006,0.004 c 4.5291,1.94865 9.59637,2.91015 15.01563,2.91015 3.30718,0 6.26223,-0.23786 9.01367,-0.80664 2.68323,-0.5546 5.18056,-1.2768 7.48047,-2.3457 2.26046,-0.97433 4.35235,-2.18522 6.27539,-3.55274 1.91136,-1.3592 3.73999,-2.87728 5.48633,-4.55078 l 1.09179,-1.04687 -9.92578,-11.43164 -1.20508,1.14258 c -2.66938,2.53103 -5.46495,4.52157 -8.39062,5.99023 l -0.006,0.002 -0.008,0.004 c -2.91644,1.49968 -6.09432,2.21875 -9.89063,2.21875 -3.10824,0 -5.85282,-0.57034 -8.48437,-1.7832 -0.002,-8.8e-4 -0.004,-10e-4 -0.006,-0.002 -2.61279,-1.24072 -4.88171,-2.81672 -6.71289,-4.86718 l -0.01,-0.0117 -0.01,-0.0117 c -1.93139,-2.08265 -3.35362,-4.43051 -4.44531,-7.27539 -1.01858,-2.85478 -1.59375,-5.82726 -1.59375,-8.94532 l 0,-0.23242 c 0,-3.11811 0.578,-6.17629 1.59375,-9.02343 1.09495,-2.85365 2.52624,-5.2822 4.44531,-7.35157 l 0.01,-0.0117 0.01,-0.0117 c 1.84111,-2.06164 4.11758,-3.70719 6.70507,-4.9375 2.66516,-1.15384 5.42113,-1.79102 8.49805,-1.79102 4.01891,0 7.35871,0.80078 10.09375,2.2793 l 0.008,0.004 0.006,0.004 c 2.939,1.54909 5.82006,3.62242 8.64844,6.3125 l 1.12891,1.07422 10.0039,-10.14063 -1.01953,-1.11328 c -1.82071,-1.98682 -3.73764,-3.75353 -5.82422,-5.28711 l -0.006,-0.004 c -1.99661,-1.52287 -4.16171,-2.89389 -6.49609,-4.02539 l -0.002,0 c -2.34953,-1.13859 -4.94185,-2.03262 -7.76563,-2.59961 -2.79581,-0.56136 -5.8276,-0.88086 -9.16016,-0.88086 z"
           style="color:#000000;fill:#ffcf21;fill-opacity:1;fill-rule:nonzero;stroke:none;stroke-width:3.17626667;stroke-linecap:butt;stroke-linejoin:miter;stroke-miterlimit:4;stroke-dasharray:none;stroke-dashoffset:0;stroke-opacity:1;color-rendering:auto;image-rendering:auto;shape-rendering:auto;text-rendering:auto;enable-background:accumulate" /><path
  
           id="path33041"
           d="m 250.03906,311.9668 c -5.63009,0 -10.96884,0.96313 -16.04297,2.80468 l -0.01,0.004 -0.008,0.002 c -5.18365,1.93246 -9.89181,4.84365 -14.22657,8.75391 l -1.48633,1.33984 9.95704,11.77344 1.57812,-1.35547 c 3.26406,-2.80233 6.48926,-4.90711 9.66406,-6.34375 l 0.004,-0.002 c 3.18315,-1.4057 6.72712,-2.12109 10.87891,-2.12109 3.49766,0 5.94085,0.69521 7.73437,1.98632 1.81007,1.30301 2.45508,2.57225 2.45508,4.60743 l 0,0.23046 c 0,0.92132 -0.17562,1.67785 -0.45508,2.43164 -0.30226,0.57576 -0.80046,1.22029 -1.70117,1.87696 -0.89143,0.64983 -2.37106,1.37288 -4.27734,2.10351 -1.92144,0.65972 -4.44133,1.39821 -7.57813,2.06641 l -0.01,0.002 -0.01,0.002 c -3.86955,0.86355 -7.20038,1.88849 -10.20313,2.98828 l -0.01,0.004 -0.008,0.002 c -3.01175,1.13285 -5.58883,2.53062 -7.77344,4.20117 l -0.0352,0.0273 -0.0332,0.0274 c -2.12595,1.77526 -3.79968,3.87369 -5.00391,6.35351 l -0.0137,0.0254 -0.0117,0.0274 c -1.15101,2.55255 -1.72461,5.59272 -1.72461,8.9707 l 0,0.1543 c 0,3.27236 0.68767,6.28085 1.97071,9.00195 l 0.0117,0.0234 0.0117,0.0234 c 1.34188,2.66792 3.1258,5.04687 5.3711,6.93555 2.28856,1.93675 4.99861,3.44507 8.14062,4.51367 3.17423,1.07952 6.56648,1.56446 10.14453,1.56446 5.2945,0 10.08828,-0.80016 14.41407,-2.3418 4.31031,-1.53611 8.29135,-3.80309 12.06445,-6.75586 l 1.56055,-1.2207 -8.91993,-12.41407 -1.67968,1.22266 c -3.0191,2.19605 -6.02174,3.79605 -8.95118,4.96094 -2.8527,1.13432 -5.74931,1.69336 -8.64257,1.69336 -3.33165,0 -5.57396,-0.70565 -7,-1.89649 l -0.0352,-0.0273 -0.0352,-0.0273 c -1.58198,-1.20974 -2.19531,-2.48481 -2.19531,-4.1836 l 0,-0.1543 c 0,-1.04448 0.1773,-1.87157 0.51758,-2.67187 0.26372,-0.55877 0.8096,-1.2155 1.82031,-1.90625 0.98666,-0.67432 2.51627,-1.38701 4.55078,-2.03711 2.10546,-0.67276 4.76669,-1.42855 8.05079,-2.26367 3.68302,-0.93483 6.99007,-1.95089 9.92968,-3.05664 l 0.0332,-0.0117 0.0312,-0.0137 c 2.93967,-1.21764 5.45001,-2.70341 7.50195,-4.48828 2.02245,-1.75924 3.69427,-3.84043 4.76367,-6.30664 1.14495,-2.46426 1.64844,-5.22915 1.64844,-8.27735 l 0,-0.22851 c 0,-3.39767 -0.66842,-6.6136 -2.04492,-9.45118 -1.28922,-2.89026 -3.19779,-5.30515 -5.57227,-7.24414 -2.38367,-1.94644 -5.2509,-3.44536 -8.48828,-4.43554 l -0.006,-0.002 -0.008,-0.002 c -3.29087,-0.98146 -6.81202,-1.46484 -10.60938,-1.46484 z"
           style="color:#000000;fill:#ffcf21;fill-opacity:1;fill-rule:nonzero;stroke:none;stroke-width:4.1288147;stroke-linecap:butt;stroke-linejoin:miter;stroke-miterlimit:4;stroke-dasharray:none;stroke-dashoffset:0;stroke-opacity:1;color-rendering:auto;image-rendering:auto;shape-rendering:auto;text-rendering:auto;enable-background:accumulate" /><path
           d="m 282.34446,386.03383 17.49753,0 19.61352,-30.94522 19.13409,30.94522 16.6104,0 0,-72.2272 -15.24693,0 0,47.0204 -20.41725,-30.8649 -0.40183,0 -20.17598,30.62386 0,-46.77936 -16.61372,0 0,72.2272 z"
           style="fill:#ffcf21;fill-opacity:1;fill-rule:nonzero;stroke:none"
           id="path33057"
   /></g><g
         id="g34171"
         style="fill:#ffcf21;fill-opacity:1"
         transform="matrix(1.25,0,0,-1.25,-112.15672,608.60339)"><path
           style="fill:#ffcf21;fill-opacity:1"
           d="m 316.62623,283.44819 c 22.23951,-32.08014 -6.80268,-79.96051 -30.87369,-95.44096 l 0,0 c -9.52083,-6.09043 -27.05081,-15.49499 -37.54553,-21.00399 l 0,0 c 3.86647,-0.59596 7.84924,-0.90121 11.90468,-0.90121 l 0,0 c 40.43813,0 73.20144,30.3504 73.20144,67.76512 l 0,0 c 0,17.44276 -4.15719,37.61821 -15.84384,49.62465 l 0,0 c -0.29071,-0.0145 -0.55235,-0.0436 -0.84306,-0.0436"
           id="path242"
   /><path
           style="fill:#ffcf21;fill-opacity:1"
           d="m 322.00441,306.19645 c 0.39246,-1.61345 0.52328,-3.24144 0.33432,-4.81129 l 0,0 c 16.55608,-18.06779 26.54206,-41.33934 26.54206,-66.7767 l 0,0 c 0,-10.84358 -2.16581,-22.83547 -5.72704,-33.57731 l 0,0 c 9.4627,16.8468 17.39916,35.00181 23.73669,54.29059 l 0,0 c -8.40159,21.12027 -24.34718,38.97003 -44.88603,50.87471 z"
           id="path270"
   /><path
           style="fill:#ffcf21;fill-opacity:1"
  
           id="path34091"
           d="m 225.92388,327.91269 c -9.34641,-2.55827 -37.15307,-15.32056 -56.81978,-34.90006 l 0,0 C 158.05702,282.00916 124.75588,270.93301 119.29049,268.9707 l 0,0 c -5.45087,-1.96231 -9.39002,-5.6689 -10.91626,-10.69823 l 0,0 c -0.79946,-2.61641 0.2471,-7.47131 1.42449,-11.54129 l 0,0 c 0.78492,-2.16581 1.58438,-4.31708 2.39838,-6.45382 l 0,0 c 0.33432,0.97389 1.3082,3.88101 2.71816,7.06432 l 0,0 c 1.42449,3.21237 7.80564,8.45974 10.10227,10.27669 l 0,0 c -0.814,-0.78492 -2.15128,-2.44199 -3.7502,-5.90147 l 0,0 c -2.63095,-5.68343 -4.37522,-12.67507 -4.81129,-20.10278 l 0,0 c -0.0436,-0.75585 0.0145,-1.49717 0.15989,-2.23848 l 0,0 c 0.74132,-1.70067 1.48263,-3.40134 2.23849,-5.07294 l 0,0 c 0.15989,-0.2471 0.31978,-0.47967 0.49421,-0.71224 l 0,0 c 0,-0.0145 0,-0.0291 0,-0.0436 l 0,0 c 1.74427,-3.00888 5.17468,-5.916 6.80267,-6.36661 l 0,0 c 2.42746,-0.68317 6.6864,1.61346 6.6864,1.61346 l 0,0 c 0,0 0.39246,-0.31979 3.77926,-3.03795 l 0,0 c 3.3868,-2.71816 6.96257,-5.20376 6.96257,-5.20376 l 0,0 c 0,0 0.13082,0.84307 -0.407,2.50013 l 0,0 c -0.52328,1.64253 -2.84898,9.08477 -2.86352,9.14291 l 0,0 c -0.63957,2.03499 10.9744,8.54696 12.36982,9.18652 l 0,0 c 0.0145,0 0.0291,0 0.0291,0.0145 l 0,0 c 3.31413,1.70067 6.6864,2.99434 9.40456,3.1833 l 0,0 c 13.40185,0.91575 24.89954,-11.65757 25.80075,-23.32969 l 0,0 c 0.91574,-11.65757 -9.11385,-17.98057 -22.53023,-18.89632 l 0,0 c -0.0727,0 -0.11629,0 -0.17443,0 l 0,0 c -1.27914,-0.11628 -3.02341,-0.2035 -3.7502,0.6105 l 0,0 c -1.09017,1.19192 -9.63712,9.27373 -9.63712,9.27373 l 0,0 c 0,0 0.14536,-0.6541 0.69771,-2.51466 l 0,0 c 0.53782,-1.84603 1.49717,-7.68935 1.49717,-7.68935 l 0,0 c -2.23849,-0.14536 -6.65732,-0.13082 -6.80267,-3.31413 l 0,0 c -0.0291,-0.59596 3.8374,-6.94803 3.92462,-7.10792 l 0,0 c 3.43041,-5.33458 9.66619,-14.55017 14.60831,-21.81798 l 0,0 c 2.81991,3.72112 5.07293,6.70092 6.51196,8.66323 l 0,0 c 1.25006,1.65707 7.7911,9.37549 9.78248,11.25058 l 0,0 c 3.41587,3.19784 6.7736,6.49743 9.72434,10.1168 l 0,0 c 0.8576,1.04657 1.65706,2.10767 2.44198,3.18331 l 0,0 0.0145,0.0145 0,0.0145 c 9.20105,12.67507 13.38732,27.71945 3.54669,41.5719 l 0,0 c 0.33432,-0.0581 0.62504,-0.11628 0.94482,-0.17442 l 0,0 c 3.00888,-0.59596 6.23579,-0.91575 9.47723,-0.91575 l 0,0 c 7.35503,0 14.25946,1.6716 20.2336,4.59326 l 0,0 c 6.03229,3.08156 11.68665,7.07885 16.16362,11.74479 l 0,0 c 3.21238,3.3432 6.10497,7.10793 8.16903,11.26512 l 0,0 c 2.13674,4.31708 3.16877,9.01209 2.70363,13.83792 l 0,0 c -0.24711,2.66002 -0.88668,5.27643 -1.71521,7.82017 l 0,0 c -0.8576,2.68909 -1.74427,5.65436 -3.05248,8.13995 l 0,0 c 11.22151,-4.8985 17.34101,-13.76524 17.7044,-26.57113 l 0,0 c 0.15989,-5.36365 -1.07564,-11.29419 -3.11063,-16.22177 l 0,0 c -1.86056,-4.50604 -4.33161,-8.75045 -7.19513,-12.6896 l 0,0 c -5.75611,-7.92192 -13.9106,-13.48907 -21.94881,-19.1289 l 0,0 c -2.92166,-1.7152 -5.78518,-3.54669 -8.56149,-5.55261 l 0,0 c -5.79971,-4.15719 -11.23604,-8.95395 -15.46591,-14.73913 l 0,0 c -2.74723,-3.7938 -5.17468,-7.74749 -8.2417,-11.32326 l 0,0 c 0.10175,0.0872 0.18896,0.1599 0.27618,0.23257 l 0,0 0,-0.0291 c 7.23874,4.95665 15.10252,9.73888 23.47504,14.20132 l 0,0 c 2.63095,1.39542 5.24736,2.73269 7.86378,3.99729 l 0,0 c 0.66864,0.29072 3.9973,1.84603 8.11088,3.77927 l 0,0 c 5.85786,2.58734 11.64304,4.88397 17.2974,6.84628 l 0,0 -8.08181,-15.24788 -0.0581,-0.0581 0.0145,-0.0436 0.0291,-0.0581 c 25.36467,10.9744 44.13018,29.31837 51.63056,49.34847 l 0,0 c 2.34024,6.0759 3.69205,12.4425 3.57577,18.7655 l 0,0 c 0.0291,4.22987 -0.46514,8.47428 -1.56985,12.646 l 0,0 c -0.87214,3.37227 -2.10767,6.58464 -3.64845,9.62259 l 0,0 c 0.27618,0.11629 0.55236,0.24711 0.82854,0.37793 l 0,0 c 11.39593,5.14561 13.99781,14.72459 8.56148,23.1698 l 0,0 -0.0581,0 c -6.01775,8.09634 -24.94314,13.59081 -47.16813,12.87857 l 0,0 c -0.88667,-0.0291 -1.75881,-0.0727 -2.61641,-0.11629 l 0,0 c 57.82275,-7.3841 47.67687,-32.92321 25.26293,-31.12079 l 0,0 c 12.22447,-6.90442 14.91356,-39.4497 1.48263,-47.25534 l 0,0 c 0.6105,0.34886 1.11925,3.5903 1.35182,4.31709 l 0,0 c 0.42153,1.42449 0.81399,2.86351 1.13378,4.30254 l 0,0 c 0.62503,2.77631 1.03203,5.58168 1.01749,8.4452 l 0,0 c -0.0436,9.79702 -5.21829,18.969 -11.39593,26.28043 l 0,0 c -7.00618,8.25624 -16.62877,14.24492 -26.38218,18.73643 l 0,0 c -5.49447,2.55827 -11.30872,4.15719 -17.32647,4.86943 l 0,0 c -0.63957,0.0872 -1.2646,0.10175 -1.88963,0.10175 l 0,0 c -0.37793,0.0145 -0.77039,0.0291 -1.16285,0.0291 l 0,0 c -3.1397,0 -6.09043,-0.47967 -8.63417,-1.32274 l 0,0 c 6.09043,5.49447 26.3531,18.08233 26.49846,18.18408 l 0,0 c -1.29367,-0.2035 -14.37574,0.4506 -26.36764,-2.66002 M 189.77377,292.1405 c 5.77064,3.1833 16.16362,1.72974 16.16362,1.72974 l 0,0 c 0,0 -11.00347,-12.98032 -16.27991,-12.98032 l 0,0 c -0.0436,0 -0.11628,0 -0.17443,0 l 0,0 c -5.18922,0.29071 -5.47993,8.08181 0.29072,11.25058 m 62.98289,-93.7839 c 0,0 0.0145,0 0.0145,0.0145 l 0,0 -0.0145,-0.0145 z" /><path
           style="fill:#ffcf21;fill-opacity:1"
  
           id="path34094"
           d="M 202.88491,171.52382 C 191.2564,163.77633 181.25589,155.11309 173.3485,146.34811 l 0,0 c 10.78544,9.23012 25.66993,16.09094 42.69115,19.2161 l 0,0 c 2.79084,3.1397 5.69797,6.25032 8.75045,9.30281 l 0,0 c 5.74158,5.75611 11.62851,11.00347 17.55905,15.74209 l 0,0 c -12.52972,-3.80834 -26.14961,-10.23309 -39.46424,-19.08529" /></g></g></g></svg>