<?xml version="1.0" encoding="UTF-8" standalone="no"?>
<svg
   id="Layer_1"
   viewBox="0 0 336.52164 383.656"
   width="2193.4893"
   height="2500.365"
   version="1.1"
   sodipodi:docname="Southampton.svg"
   xmlns:inkscape="http://www.inkscape.org/namespaces/inkscape"
   xmlns:sodipodi="http://sodipodi.sourceforge.net/DTD/sodipodi-0.dtd"
   xmlns="http://www.w3.org/2000/svg"
   xmlns:svg="http://www.w3.org/2000/svg">
  <defs
     id="defs48" />
  <sodipodi:namedview
     id="namedview48"
     pagecolor="#ffffff"
     bordercolor="#000000"
     borderopacity="0.25"
     inkscape:showpageshadow="2"
     inkscape:pageopacity="0.0"
     inkscape:pagecheckerboard="0"
     inkscape:deskcolor="#d1d1d1" />
  <style
     id="style1">.st0{fill:#211e1f}.st1{fill:none;stroke:#fff;stroke-width:2.356}.st2{fill:#fff}.st3{fill:#ed1a3b}.st4{fill:#00aeef}.st5{fill:none;stroke:#211e1f;stroke-width:1.441}.st6{fill:#ffc40d}.st7{fill:none;stroke:#ffc40d;stroke-width:.571}.st8{fill:#22b24c}.st9{fill:none;stroke:#211e1f;stroke-width:5.901}.st10{fill:#ffc20e}.st11,.st12,.st13{fill:none;stroke:#211e1f;stroke-width:4.704}.st12,.st13{stroke-width:2e-3}.st13{stroke-width:9.436}</style>
  <title
     id="title1">southampton</title>
  <path
     class="st0"
     d="m 288.85734,274.178 c -28.6,34 -71.4,55.6 -119.4,55.6 -47.5,0 -89.900005,-21.2 -118.500005,-54.6 l -33.8,40.8 c 38.1,40.9 92.400005,66.5 152.600005,66.5 60.6,0 115.2,-25.9 153.2,-67.2 l -34.1,-41.1"
     id="path1" />
  <path
     class="st1"
     d="m 288.85734,274.178 c -28.6,34 -71.4,55.6 -119.4,55.6 -47.5,0 -89.900005,-21.2 -118.500005,-54.6 l -33.8,40.8 c 38.1,40.9 92.400005,66.5 152.600005,66.5 60.6,0 115.2,-25.9 153.2,-67.2 z"
     id="path2" />
  <path
     class="st0"
     d="m 262.05734,118.078 v 181 c 0,5.2 -3.3,9.8 -8,11.5 l -84,32.6 -84.100005,-32.6 c -4.6,-1.7 -8,-6.3 -8,-11.5 v -181 H 262.05734"
     id="path3" />
  <path
     class="st1"
     d="m 262.05734,118.078 v 181 c 0,5.2 -3.3,9.8 -8,11.5 l -84,32.6 -84.100005,-32.6 c -4.6,-1.7 -8,-6.3 -8,-11.5 v -181 z"
     id="path4" />
  <path
     class="st2"
     d="m 82.457335,257.778 v -111.5 H 257.65734 v 111.5 H 82.457335"
     id="path5" />
  <path
     class="st3"
     d="m 257.65734,247.378 c -1.5,2.5 -5.3,4.2 -9.7,4.2 -4.4,0 -8.3,-1.7 -9.8,-4.2 -1.5,2.5 -5.3,4.2 -9.8,4.2 -4.4,0 -8.2,-1.7 -9.7,-4.2 -1.6,2.5 -5.3,4.2 -9.7,4.2 -4.5,0 -8.2,-1.7 -9.7,-4.2 -1.5,2.5 -5.3,4.2 -9.7,4.2 -4.4,0 -8.2,-1.7 -9.7,-4.2 -1.6,2.5 -5.4,4.2 -9.8,4.2 -4.4,0 -8.2,-1.7 -9.8,-4.2 -1.6,2.5 -5.3,4.2 -9.7,4.2 -4.4,0 -8.2,-1.7 -9.8,-4.2 -1.5,2.5 -5.3,4.2 -9.8,4.2 -4.4,0 -8.2,-1.7 -9.7,-4.2 -1.5,2.5 -5.3,4.2 -9.7,4.2 -4.5,0 -8.2,-1.7 -9.8,-4.2 v 0.1 c -1.5,2.5 -5.300005,4.1 -9.700005,4.1 -4.5,0 -8.2,-1.7 -9.8,-4.2 v -0.2 l 0.1,49.3 c 0,5 3.2,9.3 7.6,10.9 l 80.100005,31.1 80,-31.1 c 4.4,-1.7 7.6,-5.9 7.6,-10.9 v -49.3 0.2"
     id="path6" />
  <path
     class="st4"
     d="m 257.65734,242.178 c -1.5,2.5 -5.3,4.2 -9.7,4.2 -4.4,0 -8.3,-1.8 -9.8,-4.2 -1.5,2.4 -5.3,4.2 -9.8,4.2 -4.4,0 -8.2,-1.8 -9.7,-4.2 -1.6,2.5 -5.3,4.2 -9.7,4.2 -4.5,0 -8.2,-1.8 -9.7,-4.2 -1.5,2.4 -5.3,4.2 -9.7,4.2 -4.4,0 -8.2,-1.8 -9.7,-4.2 -1.6,2.5 -5.4,4.2 -9.8,4.2 -4.4,0 -8.2,-1.8 -9.8,-4.2 -1.6,2.4 -5.3,4.2 -9.7,4.2 -4.4,0 -8.2,-1.8 -9.8,-4.2 -1.5,2.5 -5.3,4.2 -9.8,4.2 -4.4,0 -8.2,-1.8 -9.7,-4.2 -1.5,2.4 -5.3,4.2 -9.7,4.2 -4.5,0 -8.2,-1.8 -9.8,-4.2 v 0.1 c -1.5,2.5 -5.300005,4.1 -9.700005,4.1 -4.5,0 -8.2,-1.8 -9.8,-4.2 v -6.1 c 1.5,2.5 5.3,4.2 9.8,4.2 4.4,0 8.100005,-1.7 9.700005,-4.2 1.6,2.5 5.3,4.2 9.8,4.2 4.4,0 8.2,-1.8 9.7,-4.2 1.5,2.5 5.3,4.2 9.7,4.2 4.4,0 8.2,-1.7 9.8,-4.2 1.5,2.5 5.3,4.2 9.8,4.2 4.4,0 8.2,-1.8 9.7,-4.2 1.5,2.5 5.3,4.2 9.8,4.2 4.4,0 8.2,-1.7 9.8,-4.2 1.5,2.5 5.3,4.2 9.7,4.2 4.4,0 8.2,-1.8 9.7,-4.2 1.5,2.5 5.3,4.2 9.7,4.2 4.4,0 8.2,-1.7 9.7,-4.2 1.6,2.5 5.3,4.2 9.7,4.2 4.4,0 8.2,-1.8 9.8,-4.2 1.5,2.5 5.3,4.2 9.8,4.2 4.4,0 8.2,-1.7 9.7,-4.2 v 6.1 m 0,-11 c -1.5,2.5 -5.3,4.2 -9.7,4.2 -4.4,0 -8.3,-1.7 -9.8,-4.2 -1.5,2.4 -5.3,4.2 -9.8,4.2 -4.4,0 -8.2,-1.7 -9.7,-4.2 -1.6,2.5 -5.3,4.2 -9.7,4.2 -4.5,0 -8.2,-1.7 -9.7,-4.2 -1.5,2.4 -5.3,4.2 -9.7,4.2 -4.4,0 -8.2,-1.7 -9.7,-4.2 -1.6,2.5 -5.4,4.2 -9.8,4.2 -4.4,0 -8.2,-1.7 -9.8,-4.2 -1.6,2.4 -5.3,4.2 -9.7,4.2 -4.4,0 -8.2,-1.7 -9.8,-4.2 -1.5,2.5 -5.3,4.2 -9.8,4.2 -4.4,0 -8.2,-1.7 -9.7,-4.2 -1.5,2.4 -5.3,4.2 -9.7,4.2 -4.5,0 -8.2,-1.7 -9.8,-4.2 v 0.1 c -1.5,2.5 -5.300005,4.1 -9.700005,4.1 -4.5,0 -8.2,-1.7 -9.8,-4.2 v -6.1 c 1.5,2.5 5.3,4.2 9.8,4.2 4.4,0 8.100005,-1.7 9.700005,-4.2 1.6,2.5 5.3,4.2 9.8,4.2 4.4,0 8.2,-1.8 9.7,-4.2 1.5,2.5 5.3,4.2 9.7,4.2 4.4,0 8.2,-1.7 9.8,-4.2 1.5,2.5 5.3,4.2 9.8,4.2 4.4,0 8.2,-1.8 9.7,-4.2 1.5,2.5 5.3,4.2 9.7,4.2 4.4,0 8.2,-1.7 9.8,-4.2 1.5,2.5 5.3,4.2 9.7,4.2 4.4,0 8.2,-1.8 9.7,-4.2 1.5,2.5 5.3,4.2 9.7,4.2 4.4,0 8.2,-1.7 9.7,-4.2 1.6,2.5 5.3,4.2 9.7,4.2 4.4,0 8.2,-1.8 9.8,-4.2 1.5,2.5 5.3,4.2 9.8,4.2 4.4,0 8.2,-1.7 9.7,-4.2 v 6.1"
     id="path7" />
  <path
     class="st0"
     d="m 182.95734,303.478 c 0,0 8.6,13.4 4.1,9.6 -3.3,-2.8 -7.8,-9.4 -11.1,-14.8 l -17.6,6.9 c 0,0 -10.1,12.3 -7.9,6.9 1.6,-3.9 6.6,-10.3 10.7,-15.1 l -12.1,-14.6 c 0,0 -14.9,-5.8 -9,-5.3 3.9,0.3 11.9,3.2 17.7,5.5 l 10.1,-16 c 0,0 0.9,-15.9 2.4,-10.2 1,3.9 0.7,12.4 0.2,18.7 l 18.4,4.5 c 0,0 15.4,-4 10.4,-0.9 -3.5,2.2 -11.2,4.5 -17.4,6 l 1.1,18.8"
     id="path8" />
  <path
     class="st5"
     d="m 182.95734,303.478 c 0,0 8.6,13.4 4.1,9.6 -3.3,-2.8 -7.8,-9.4 -11.1,-14.8 l -17.6,6.9 c 0,0 -10.1,12.3 -7.9,6.9 1.6,-3.9 6.6,-10.3 10.7,-15.1 l -12.1,-14.6 c 0,0 -14.9,-5.8 -9,-5.3 3.9,0.3 11.9,3.2 17.7,5.5 l 10.1,-16 c 0,0 0.9,-15.9 2.4,-10.2 1,3.9 0.7,12.4 0.2,18.7 l 18.4,4.5 c 0,0 15.4,-4 10.4,-0.9 -3.5,2.2 -11.2,4.5 -17.4,6 z"
     id="path9" />
  <path
     class="st2"
     d="m 168.85734,299.978 c 0.1,0.3 0.3,0.4 0.5,0.4 0.2,0 0.4,-0.2 0.5,-0.4 0.2,-0.5 0.4,-1.5 0.3,-3.8 0,0 0.1,-7.5 5.7,0.6 15.7,22.7 -6.7,22.8 -6.7,22.8 h 0.2 c 0,0 -22.4,-0.1 -6.7,-22.8 5.6,-8.1 5.7,-0.6 5.7,-0.6 0.1,2.2 0.3,3.3 0.5,3.8"
     id="path10" />
  <path
     class="st5"
     d="m 168.85734,299.978 0.5,0.4 0.5,-0.4 c 0.2,-0.5 0.3,-1.5 0.3,-3.8 0,0 0.1,-7.5 5.7,0.6 15.7,22.7 -6.7,22.8 -6.7,22.8 h 0.2 c 0,0 -22.4,-0.1 -6.7,-22.8 5.6,-8.1 5.7,-0.6 5.7,-0.6 0.2,2.2 0.3,3.3 0.5,3.8 z"
     id="path11" />
  <path
     class="st2"
     d="m 157.35734,290.878 c -0.2,0.2 -0.3,0.4 -0.2,0.6 0.1,0.2 0.2,0.4 0.5,0.4 0.5,0 1.6,-0.1 3.7,-0.8 0,0 7.2,-2.2 1.3,5.6 -16.7,22 -23.7,0.8 -23.7,0.8 v 0.1 c 0,0 -6.8,-21.4 19.7,-13.4 9.4,2.8 2.3,5.3 2.3,5.3 -2.3,0.5 -3.2,1 -3.6,1.4"
     id="path12" />
  <path
     class="st5"
     d="m 157.35734,290.878 c -0.2,0.2 -0.2,0.6 -0.2,0.6 l 0.5,0.4 c 0,0 1.6,-0.1 3.7,-0.8 0,0 7.2,-2.2 1.3,5.6 -16.7,22 -23.7,0.8 -23.7,0.8 v 0.1 c 0,0 -6.8,-21.4 19.7,-13.4 9.4,2.8 2.3,5.3 2.3,5.3 -2.3,0.5 -3.2,1 -3.6,1.4 z"
     id="path13" />
  <path
     class="st2"
     d="m 162.35734,276.978 c -0.2,-0.1 -0.5,-0.1 -0.6,0 -0.2,0.1 -0.2,0.3 -0.2,0.6 0.1,0.5 0.5,1.5 2,3.3 0,0 4.3,6.1 -5,2.9 -26.1,-9.1 -8,-22.3 -8,-22.3 l -0.1,0.1 c 0,0 18.2,-13 18.8,14.6 0.2,9.8 -4.3,3.8 -4.3,3.8 -1.3,-2 -2.1,-2.7 -2.6,-3"
     id="path14" />
  <path
     class="st5"
     d="m 162.35734,276.978 h -0.6 l -0.2,0.6 c 0,0 0.5,1.5 2,3.3 0,0 4.3,6.1 -5,2.9 -26.1,-9.1 -8,-22.3 -8,-22.3 l -0.1,0.1 c 0,0 18.2,-13 18.8,14.6 0.2,9.8 -4.3,3.8 -4.3,3.8 -1.3,-2 -2.1,-2.7 -2.6,-3 z"
     id="path15" />
  <path
     class="st2"
     d="m 177.15734,277.578 c 0,-0.2 0,-0.5 -0.2,-0.6 -0.2,-0.1 -0.4,-0.1 -0.7,0.1 -0.4,0.2 -1.2,0.9 -2.5,2.8 0,0 -4.5,6 -4.3,-3.8 0.6,-27.6 18.8,-14.6 18.8,-14.6 l -0.1,-0.1 c 0,0 18,13.3 -8.1,22.4 -9.2,3.2 -4.9,-2.9 -4.9,-2.9 1.4,-1.8 1.9,-2.8 2,-3.3"
     id="path16" />
  <path
     class="st5"
     d="m 177.15734,277.578 -0.2,-0.6 -0.7,0.1 c -0.4,0.2 -1.2,0.9 -2.5,2.8 0,0 -4.5,6 -4.3,-3.8 0.6,-27.6 18.8,-14.6 18.8,-14.6 l -0.1,-0.1 c 0,0 18,13.3 -8.1,22.4 -9.2,3.2 -4.9,-2.9 -4.9,-2.9 1.4,-1.8 2,-3.3 2,-3.3 z"
     id="path17" />
  <path
     class="st2"
     d="m 181.15734,291.778 c 0.3,0 0.5,-0.2 0.5,-0.4 0.1,-0.2 0,-0.4 -0.2,-0.6 -0.4,-0.4 -1.3,-0.9 -3.5,-1.5 0,0 -7.1,-2.5 2.3,-5.3 26.5,-8 19.7,13.4 19.7,13.4 v -0.1 c 0,0 -7,21.2 -23.7,-0.8 -6,-7.8 1.2,-5.6 1.2,-5.6 2.2,0.9 3.2,1 3.7,0.9"
     id="path18" />
  <path
     class="st5"
     d="m 181.15734,291.778 0.5,-0.4 c 0,0 0,-0.4 -0.2,-0.6 -0.4,-0.4 -1.3,-0.9 -3.5,-1.5 0,0 -7.1,-2.5 2.3,-5.3 26.5,-8 19.7,13.4 19.7,13.4 v -0.1 c 0,0 -7,21.2 -23.7,-0.8 -6,-7.8 1.2,-5.6 1.2,-5.6 2.2,0.9 3.7,0.9 3.7,0.9 z"
     id="path19" />
  <path
     class="st0"
     d="m 154.05734,266.378 c 0,0 -1.7,1.2 -3.1,1.6 -1.5,0.4 -2.1,1.5 -2.3,1.8 0,0 -0.8,1.9 -1.4,1.1 -0.6,-0.8 0.6,-2.2 0.6,-2.2 0.2,-0.3 0.8,-1.4 2.3,-1.9 1.5,-0.4 3.1,-1.6 3.1,-1.6 0,0 1.6,-1.3 2.5,-2.5 0.9,-1.2 2.1,-1.5 2.4,-1.6 0,0 1.7,-0.6 2.3,0.1 0.6,0.8 -1.5,0.9 -1.5,0.9 -0.3,0.1 -1.6,0.4 -2.5,1.6 -0.8,1.4 -2.4,2.7 -2.4,2.7 m 30.6,0 c 0,0 -1.6,-1.2 -2.5,-2.5 -0.9,-1.2 -2.1,-1.5 -2.4,-1.6 0,0 -2.1,-0.1 -1.5,-0.9 0.6,-0.8 2.3,-0.1 2.3,-0.1 0.3,0 1.6,0.3 2.4,1.6 0.9,1.2 2.5,2.5 2.5,2.5 0,0 1.7,1.1 3.2,1.6 1.4,0.5 2.1,1.5 2.2,1.8 0,0 1.1,1.5 0.6,2.3 -0.6,0.8 -1.3,-1.1 -1.3,-1.1 -0.2,-0.3 -0.8,-1.4 -2.3,-1.8 -1.5,-0.7 -3.2,-1.8 -3.2,-1.8 m 9.5,29.1 c 0,0 0.7,-1.9 1.6,-3.1 1,-1.2 0.8,-2.5 0.8,-2.8 0,0 -0.5,-2 0.4,-1.7 0.9,0.3 0.9,2.1 0.9,2.1 0,0.3 0.1,1.6 -0.7,2.8 -0.9,1.2 -1.6,3.1 -1.6,3.1 0,0 -0.5,2 -0.5,3.5 0,1.5 -0.9,2.5 -1,2.7 0,0 -1.1,1.5 -1.9,1.2 -0.9,-0.3 0.7,-1.7 0.7,-1.7 0.2,-0.3 1,-1.2 1,-2.7 -0.2,-1.4 0.3,-3.4 0.3,-3.4 m -24.8,18 c 0,0 2.1,0.1 3.5,0.6 1.4,0.5 2.6,0 2.9,-0.1 0,0 1.8,-1.1 1.7,-0.1 0,0.9 -1.7,1.5 -1.7,1.5 -0.3,0.1 -1.5,0.6 -2.9,0.1 -1.4,-0.5 -3.5,-0.6 -3.5,-0.6 0,0 -2.1,0.1 -3.5,0.6 -1.4,0.5 -2.6,0 -2.9,-0.1 0,0 -1.8,-0.6 -1.8,-1.5 0,-1 1.8,0.1 1.8,0.1 0.4,0.1 1.5,0.6 2.9,0.1 1.4,-0.5 3.5,-0.6 3.5,-0.6 m -24.7,-18 c 0,0 0.6,2 0.6,3.5 0,1.5 0.8,2.4 1,2.7 0,0 1.6,1.4 0.7,1.7 -0.9,0.3 -2,-1.2 -2,-1.2 -0.2,-0.3 -1,-1.2 -1,-2.7 0,-1.5 -0.5,-3.5 -0.5,-3.5 0,0 -0.7,-1.9 -1.6,-3.1 -0.9,-1.2 -0.8,-2.5 -0.8,-2.8 0,0 0,-1.8 0.9,-2.1 0.9,-0.3 0.4,1.7 0.4,1.7 0,0.3 -0.1,1.6 0.8,2.8 0.8,1.1 1.5,3 1.5,3"
     id="path20" />
  <path
     class="st6"
     d="m 169.25734,282.378 c -2.8,0 -5,2.3 -5,5.1 0,2.8 2.3,5.1 5,5.1 2.8,0 5.1,-2.2 5.1,-5.1 0,-2.9 -2.3,-5.1 -5.1,-5.1"
     id="path21" />
  <path
     class="st7"
     d="m 169.25734,282.378 c -2.8,0 -5,2.3 -5,5.1 0,2.8 2.3,5.1 5,5.1 2.8,0 5.1,-2.2 5.1,-5.1 0,-2.9 -2.3,-5.1 -5.1,-5.1 z"
     id="path22" />
  <path
     class="st0"
     d="m 178.85734,190.778 0.7,13.6 11.5,-7.5 3.6,5.9 -13.6,7.9 v 2.8 c 0,0 15.8,8.9 -3.5,8.5 v 0.1 c -6.7,5.6 -13.1,0.1 -13.1,0.1 -19.3,0.3 -3.5,-8.5 -3.5,-8.5 v -2.9 l -12,-9.3 2.9,-6.2 10.8,9.2 0.6,-13.6 15.6,-0.1"
     id="path23" />
  <path
     class="st8"
     d="m 193.15734,202.478 c 11.2,12.8 19.4,-0.7 19.4,-0.7 14.1,-3.4 5.7,-13.4 5.7,-13.4 14.7,-9.6 -2.6,-17.2 -2.6,-17.2 -0.1,-12.8 -11,-11.9 -11,-11.9 -11.4,-10 -22.3,1.1 -22.3,1.1 -17.1,-14.2 -30.1,2.2 -30.1,2.2 0,0 -10.9,-7.6 -15.8,4.3 0,0 -17.4,-0.5 -10.9,17.1 0,0 -13.4,13.4 4.1,20.1 0,0 9.3,17.3 22.1,0.8 0,0 7.9,0.5 6.6,-10.6 0,0 10,4.2 19.4,-0.5 0,0 3,6.8 9.5,3 0,0 -1,4.4 5.3,5.3 l 0.6,0.4"
     id="path24" />
  <path
     class="st9"
     d="m 193.15734,202.478 c 11.2,12.8 19.4,-0.7 19.4,-0.7 14.1,-3.4 5.7,-13.4 5.7,-13.4 14.7,-9.6 -2.6,-17.2 -2.6,-17.2 0,-12.8 -11,-11.9 -11,-11.9 -11.4,-10 -22.3,1.1 -22.3,1.1 -17.1,-14.2 -30.1,2.2 -30.1,2.2 0,0 -10.9,-7.6 -15.8,4.3 0,0 -17.4,-0.5 -10.9,17.1 0,0 -13.4,13.4 4.1,20.1 0,0 9.3,17.3 22.1,0.8 0,0 7.9,0.5 6.6,-10.6 0,0 10,4.2 19.4,-0.5 0,0 3,6.8 9.5,3 0,0 -1,4.4 5.3,5.3 z"
     id="path25" />
  <path
     class="st10"
     d="m 43.657335,312.578 0.8,0.7 c -2.9,5.2 -3.3,8.9 -1.3,10.6 1.4,1.3 3.3,0.7 5.1,-1.2 0.7,-0.8 1.2,-1.8 1.2,-2.6 0,-1.1 -0.8,-2.3 -1.7,-4.1 -1.7,-3.5 -1.6,-6.3 1.4,-9.9 3.1,-3.5 7.1,-4.7 9.6,-2.5 1.1,1 1.7,2.4 1.8,4.2 l 2,-0.6 0.7,0.6 -6.1,7.4 -0.7,-0.7 c 2.4,-5 2.9,-7.9 1.1,-9.5 -1.4,-1.2 -3.2,-0.8 -4.8,1 -2,2.3 -0.8,3.6 0.7,6.5 0.8,1.6 1.4,2.8 1.1,4.7 -0.3,1.7 -1.3,3.6 -2.9,5.5 -3.3,3.8 -7.1,4.9 -9.8,2.6 -1.3,-1.2 -1.9,-2.6 -1.9,-4.8 l -2.4,0.8 -0.7,-0.6 6.8,-8.1 m 22.9,2.5 c 2.8,-1.3 5.1,-1.3 7.2,0.1 2.1,1.5 3,3.6 2.7,6.8 -0.2,2.8 -1.6,6 -3.8,9.2 -2.2,3.2 -4.4,5.2 -7.1,6.5 -2.9,1.4 -5.5,1.4 -7.4,0 -2,-1.4 -2.9,-3.6 -2.6,-6.9 0.3,-3.1 1.4,-5.9 3.7,-9.1 2.2,-3 4.7,-5.4 7.3,-6.6 z m -7.4,21.1 c 2.2,1.5 5.4,-1 9.9,-7.4 4.5,-6.5 5.7,-10.3 3.5,-11.9 -2.1,-1.5 -5.3,1 -9.9,7.4 -4.4,6.5 -5.6,10.4 -3.5,11.9 z m 30,-8.5 -1,-0.5 c -0.8,-0.4 -1.2,-0.1 -1.9,1.2 l -6.2,11.6 c -2.2,4.2 -2.3,6.7 0.1,7.9 1.1,0.5 2.2,0.5 3.2,0 1.6,-0.9 2.7,-2.7 4.2,-5.6 l 4.5,-8.4 c 1.3,-2.5 1.6,-3.8 -0.1,-4.7 l -0.1,-0.1 0.9,-1.7 5.3,2.8 -0.9,1.6 c -1.7,-0.6 -2.5,0.3 -3.8,2.7 l -4.6,8.7 c -1.3,2.5 -2.4,4.4 -3.9,5.7 -2.3,2 -4.6,2.2 -7,0.8 -3.8,-2 -4.3,-5.6 -1.6,-10.8 l 6.7,-12.6 c 0.7,-1.3 0.7,-1.8 -0.1,-2.2 l -1,-0.5 0.9,-1.7 7.3,3.9 -0.9,1.9 m 20.300005,9.1 c -0.7,-0.3 -1.1,0 -1.6,1.3 l -6.9,17.5 c -0.6,1.3 -0.6,1.8 0.3,2.2 l 1,0.4 -0.7,1.8 -7.700005,-3.1 0.7,-1.8 1,0.4 c 0.9,0.3 1.2,0 1.7,-1.4 l 7.000005,-17.5 c 0.5,-1.3 0.5,-1.8 -0.2,-2.1 -1.6,-0.7 -4,1.5 -6.300005,6.3 l -1.1,-0.4 4.000005,-9.1 13.3,5.3 -3.3,9.3 -1,-0.4 c 1.6,-4.8 1.4,-8.1 -0.2,-8.7 m 11.5,27.3 c 0.9,0.3 1.2,-0.1 1.5,-1.5 l 2.2,-8.3 -5.6,-1.5 -2.1,8.2 c -0.4,1.4 -0.3,1.9 0.5,2.1 l 1.1,0.3 -0.5,1.8 -8,-2.1 0.5,-1.9 1.1,0.2 c 0.9,0.3 1.2,-0.1 1.5,-1.5 l 4.8,-17.9 c 0.4,-1.4 0.4,-1.9 -0.5,-2.2 l -1.1,-0.3 0.5,-1.8 8,2.2 -0.5,1.8 -1.1,-0.3 c -0.9,-0.3 -1.2,0.2 -1.6,1.6 l -2,7.5 5.6,1.5 2,-7.5 c 0.4,-1.4 0.4,-1.9 -0.5,-2.2 l -1,-0.3 0.5,-1.8 8,2.2 -0.5,1.8 -1.1,-0.3 c -0.9,-0.2 -1.1,0.2 -1.5,1.6 l -4.8,17.9 c -0.4,1.4 -0.3,1.9 0.6,2.1 l 1,0.3 -0.5,1.8 -8.1,-2.1 0.5,-1.9 1.1,0.5 m 21.2,4.2 1.1,0.1 c 0.5,0 0.6,-0.2 0.7,-0.7 v -1 l -0.4,-4.2 -5.5,-0.8 -0.8,1.8 c -0.2,0.6 -0.4,1.3 -0.5,1.8 -0.3,1.6 0.3,2.2 1.9,2.6 l -0.3,1.9 -6.1,-0.9 0.3,-1.9 c 1.4,-0.2 2.3,-1.6 3.5,-4.4 l 8,-18.9 1.6,0.2 2.6,23.8 c 0.1,1.1 0.4,1.6 1.2,1.7 l -0.3,1.9 -7.2,-1.1 z m -3.2,-8.8 4.4,0.7 -0.9,-9.1 z m 19.3,5.9 c -0.1,3.4 0.3,4.6 2.4,4.7 v 1.9 l -6.3,-0.2 v -1.9 c 2,-0.1 2.3,-1.3 2.4,-4.6 l 0.4,-15.7 c 0,-1.4 -0.1,-1.9 -1,-2 h -1.1 l 0.1,-1.9 7,0.2 3,15.7 3.6,-15.6 6.9,0.2 -0.1,1.9 -1.1,-0.1 c -0.9,0 -1.1,0.5 -1.1,1.9 l -0.4,18.6 c 0,1.5 0.1,1.9 1,1.9 h 1.1 l -0.1,1.9 -8.1,-0.2 0.1,-1.9 h 0.9 c 0.9,0 1.1,-0.4 1.2,-1.9 l 0.5,-19.6 -5.3,23.3 h -1.1 l -4.5,-23.4 -0.4,16.8 m 29.5,4 1.4,-0.1 0.2,1.9 -8.6,0.9 -0.2,-1.9 1.2,-0.1 c 0.9,-0.1 1,-0.5 0.9,-2 l -1.8,-18.5 c -0.1,-1.4 -0.3,-1.9 -1.3,-1.8 l -1.2,0.1 -0.2,-1.9 9.5,-0.9 c 4,-0.4 6.2,2 6.7,6.8 0.5,5.2 -1.6,7.7 -6.5,8.2 -0.6,0.1 -1.4,0.1 -2.2,0.2 l 0.7,7.4 c 0.3,1.4 0.5,1.7 1.4,1.7 z m -2.1,-11.2 c 0.2,0.1 0.6,0.1 1.1,0 2.9,-0.3 4,-1.6 3.6,-5.9 -0.4,-4.2 -1.5,-5.5 -4.1,-5.2 -1.4,0.1 -1.6,0.4 -1.5,2.4 z m 21.5,-14.6 c -0.8,0.1 -0.9,0.6 -0.6,2 l 3.8,18.5 c 0.3,1.4 0.6,1.8 1.5,1.6 l 1.1,-0.2 0.4,1.9 -8.1,1.7 -0.4,-1.9 1.1,-0.2 c 0.9,-0.2 1,-0.7 0.7,-2.1 l -3.8,-18.4 c -0.3,-1.4 -0.5,-1.8 -1.3,-1.6 -1.7,0.4 -2.5,3.5 -1.8,8.7 l -1.1,0.2 -1.7,-9.7 14,-2.9 2.4,9.6 -1.1,0.2 c -1.5,-5.2 -3.4,-7.8 -5.1,-7.4 m 10.2,-1 c 0.7,-3 2.1,-4.8 4.5,-5.6 2.4,-0.8 4.6,-0.2 7,1.9 2.1,1.9 3.8,4.9 5.1,8.6 1.2,3.7 1.5,6.7 0.9,9.7 -0.7,3.2 -2.2,5.2 -4.5,5.9 -2.3,0.8 -4.5,0.1 -7,-2.1 -2.3,-2.1 -3.8,-4.6 -5,-8.4 -1.3,-3.6 -1.6,-7.1 -1,-10 z m 12.4,18.7 c 2.5,-0.8 2.5,-4.9 0,-12.3 -2.4,-7.5 -4.8,-10.8 -7.3,-10 -2.5,0.8 -2.5,4.9 0,12.3 2.4,7.5 4.8,10.8 7.3,10 z m 13.1,-5.2 c 1.7,-1.1 1.5,-2.3 0.1,-5.2 l -6.6,-14.3 -0.7,-0.5 c -0.7,-0.5 -1.2,-0.9 -2,-0.5 l -0.2,0.1 -0.8,-1.7 5,-2.3 14.4,11.3 -4.1,-8.9 c -1.5,-3.2 -2.3,-4 -4.3,-3.1 l -0.8,-1.8 5.8,-2.7 0.8,1.7 c -1.6,0.9 -1.5,2.1 -0.1,5.2 l 8.5,18.2 -1.3,0.6 -17.8,-14 5.6,12.1 c 1.4,3 2.4,3.9 4.3,3.1 l 0.8,1.7 -5.7,2.6 -0.9,-1.6 m 32.9,-35.6 -0.9,0.6 c -3.8,-4.1 -6.2,-4.9 -8.9,-3 -1.1,0.7 -1.2,1 -0.2,2.5 l 4.4,6.4 c 0.1,0 0.2,-0.1 0.3,-0.2 1.6,-1.1 1.4,-2.7 -0.3,-5.9 l 0.9,-0.6 6.8,9.9 -0.9,0.6 c -2.3,-2.8 -3.8,-3.5 -5.4,-2.4 l -0.2,0.2 4.9,7.2 c 0.8,1.2 1.2,1.5 2,0.9 l 1.3,-0.9 1.1,1.6 -7.2,4.9 -1.1,-1.6 0.9,-0.6 c 0.8,-0.5 0.7,-1 -0.1,-2.2 l -10.5,-15.3 c -0.8,-1.2 -1.2,-1.5 -2,-1 l -0.9,0.6 -1.1,-1.5 11.7,-8 5.4,7.8 m 21.1,5.4 c -1.4,1.2 -3.2,1.6 -5.4,1.2 -3.2,-0.7 -6.6,-2.9 -9.7,-6.5 -2.4,-2.8 -3.9,-5.7 -4.6,-8.6 -0.7,-3.2 -0.1,-5.5 1.9,-7.1 1.2,-1 2.6,-1.4 4.4,-1.1 l -0.3,-2.2 0.7,-0.6 7.1,7.8 -0.8,0.9 c -4.6,-3.9 -7.9,-5.1 -9.7,-3.6 -2.2,1.9 -0.7,5.5 4.5,11.5 5.2,6.1 8.4,8.1 10.8,6 1.8,-1.6 1.4,-4.7 -1.3,-9.2 l 1.3,-0.3 c 3.6,5.2 3.9,9.4 1.1,11.8"
     id="path26" />
  <path
     class="st2"
     d="m 17.157335,105.378 4.1,8.6 -11.6999996,3.2 3.5999996,7.3 11.7,-3.2 3.6,7.3 -11.5,3.1 3.6,7.2 11.7,-3.2 3.7,7.3 -11.8,3.1 3.7,7.2 11.8,-3.1 5.2,10.1 c 2.2,-0.6 4.4,-1.4 6.5,-2.2 l -27.4,-54.6 c -2,0.9 -4.3,1.5 -6.8,1.9 m 32.1,3.1 c -0.8,-3.9 8,-8.5 15,-14.2 l -9.3,-18.7 c -3.7,2 -7.8,5.2 -11.9,9.8 -1.1,1.1 -2.1,2.3 -3,3.5 l 9.2,19.6"
     id="path27" />
  <path
     class="st3"
     d="m 70.157335,75.178 c -2.3,-3.1 -8.1,-3.5 -15.3,0.4 l 9.3,18.7 c 6.6,-5.3 11.6,-11.6 6,-19.1 m -46.2,28.3 27.3,54.5 c 7.7,-3.2 14,-7.7 16.1,-11 l -11.8,-25 -5.8,-12.4 c -0.3,-0.4 -0.5,-0.8 -0.5,-1.2 l -9.2,-19.6 c -4.6,5.8 -8.6,11.5 -16.1,14.7 m -6.8,1.9 c -3.7,0.6 -7.9999996,0.8 -13.1999996,0.4 l 5.7,11.4 11.6999996,-3.2 -4.2,-8.6 m 7.8,15.9 -11.7,3.2 3.6,7.2 11.7,-3.2 -3.6,-7.2 m 7.3,14.5 -11.7,3.2 3.6,7.2 11.8,-3.2 -3.7,-7.2 m -4.5,17.6 4.3,8.6 c 4.1,0.2 8.5,-0.5 12.7,-1.7 l -5.2,-10.1 -11.8,3.2"
     id="path28" />
  <path
     class="st2"
     d="m 64.057335,94.378 5.2,10.4 c 3.7,-3.1 7.7,-6.8 11.9,-10.3 l -9.7,-17.4 c 3.4,6.8 -1.3,12.5 -7.4,17.3"
     id="path29" />
  <path
     class="st3"
     d="m 49.757335,109.578 c 0.3,0.4 0.7,0.7 1.2,1.1 5.2,3.7 11.4,-0.1 18.3,-5.9 l -5.2,-10.4 c -7.7,6.3 -17.5,11.1 -14.3,15.2"
     id="path30" />
  <path
     class="st11"
     d="m 49.757335,109.578 c -5.9,-7.5 32.6,-17.8 20.4,-34.4 -3.4,-4.7 -15.1,-3.3 -27.1,10.2 -9.4,10.3 -13.5,22.6 -39.0999996,20.4 l 28.0999996,56.2 c 14.2,0.7 31.5,-9 35.3,-14.9 z m 31.4,-15.1 c -12,10.1 -22.2,21.9 -30.2,16.2 -0.5,-0.4 -0.9,-0.7 -1.2,-1.1 -5.6,-7.2 29.7,-17 21.6,-32.5 z"
     id="path31" />
  <path
     class="st2"
     d="m 319.35734,105.378 -4.2,8.6 11.6,3.2 -3.6,7.3 -11.7,-3.2 -3.6,7.3 11.7,3.2 -3.6,7.2 -11.7,-3.2 -3.7,7.3 11.7,3.1 -3.6,7.2 -11.8,-3.1 -5.2,10.1 c -2.2,-0.6 -4.4,-1.4 -6.5,-2.2 l 27.3,-54.5 c 2.1,0.7 4.3,1.3 6.9,1.7 m -32.1,3.1 c 0.8,-3.9 -8,-8.5 -15,-14.2 l 9.4,-18.7 c 3.7,2 7.8,5.2 11.9,9.8 1,1.1 2,2.3 3,3.5 l -9.3,19.6"
     id="path32" />
  <path
     class="st3"
     d="m 266.25734,75.178 c 2.3,-3.1 8.1,-3.5 15.3,0.4 l -9.4,18.7 c -6.4,-5.3 -11.4,-11.6 -5.9,-19.1 m 46.3,28.3 -27.3,54.5 c -7.6,-3.2 -14,-7.7 -16.1,-11 l 17.6,-37.5 c 0.3,-0.4 0.5,-0.8 0.5,-1.2 l 9.2,-19.6 c 4.6,5.9 8.6,11.6 16.1,14.8 m 6.8,1.9 c 3.7,0.6 8,0.8 13.2,0.4 l -5.7,11.4 -11.6,-3.2 4.1,-8.6 m -7.8,15.9 11.7,3.2 -3.6,7.2 -11.7,-3.2 3.6,-7.2 m -7.3,14.5 11.7,3.2 -3.6,7.2 -11.7,-3.1 3.6,-7.3 m 4.4,17.6 -4.3,8.6 c -4.1,0.2 -8.5,-0.5 -12.7,-1.7 l 5.2,-10.1 11.8,3.2"
     id="path33" />
  <path
     class="st2"
     d="m 272.35734,94.378 -5.2,10.4 c -3.7,-3.1 -7.6,-6.8 -11.8,-10.3 l 9.7,-17.4 c -3.5,6.8 1.3,12.5 7.3,17.3"
     id="path34" />
  <path
     class="st3"
     d="m 286.75734,109.578 c -0.3,0.4 -0.7,0.7 -1.2,1.1 -5.3,3.7 -11.4,-0.1 -18.4,-5.9 l 5.2,-10.4 c 7.7,6.3 17.5,11.1 14.4,15.2"
     id="path35" />
  <path
     class="st11"
     d="m 286.75734,109.578 c 5.8,-7.5 -32.6,-17.8 -20.4,-34.4 3.5,-4.7 15.1,-3.3 27.2,10.2 9.3,10.3 13.4,22.6 39,20.4 l -28.2,56.2 c -14.2,0.7 -31.5,-9 -35.3,-14.9 z m -31.4,-15.1 c 12,10.1 22.1,21.9 30.1,16.2 0.5,-0.4 0.9,-0.7 1.2,-1.1 5.6,-7.2 -29.7,-17 -21.6,-32.5 z"
     id="path36" />
  <path
     class="st2"
     d="m 203.35734,92.578 c -2.5,2 -6.9,5 -11.8,7.9 v 38.9 c 5.5,-3.3 11.1,-6.9 16.4,-9.8 v -40.2 c -1.8,1.2 -3.4,2.3 -4.6,3.2 m 26.2,-10.5 -0.7,0.1 -5.6,42 0.7,-0.1 c 4.5,0 8.8,1.5 12.7,3.8 l 12.4,-38.1 c -5.9,-4.5 -12.5,-7.7 -19.5,-7.7 m 56,28.6 c -5.2,3.6 -11.3,0 -18.2,-5.8 l -16.2,33.8 c 6.6,5.7 12.4,10.4 17.9,8.3 l 17.6,-37.4 c -0.2,0.4 -0.6,0.8 -1.1,1.1 m -234.600005,0 c -0.5,-0.4 -0.9,-0.7 -1.2,-1.1 l 17.6,37.4 c 5.5,2.1 11.4,-2.6 17.9,-8.3 l -16.2,-33.8 c -6.9,5.8 -12.9,9.5 -18.1,5.8 m 117.300005,-0.1 c -1.6,0 -3.8,-0.6 -6.2,-1.4 v 39.1 c 2.3,0.8 4.3,1.3 6.2,1.3 1.9,0 4,-0.5 6.2,-1.3 v -39.1 c -2.4,0.9 -4.6,1.4 -6.2,1.4 m -61.4,-28.5 c -7.000005,0 -13.500005,3.2 -19.600005,7.6 l 12.4,38.1 c 3.900005,-2.2 8.200005,-3.8 12.700005,-3.8 l 0.7,0.1 -5.5,-42 h -0.7 m 26.2,10.5 c -1.2,-0.9 -2.7,-2.1 -4.6,-3.3 v 40.3 c 5.3,2.8 10.9,6.4 16.3,9.8 v -38.9 c -4.8,-2.9 -9.2,-5.9 -11.7,-7.9"
     id="path37" />
  <path
     class="st3"
     d="m 144.85734,100.478 v 38.9 c 6.1,3.7 12.1,7.2 17.2,8.9 v -39.1 c -5.1,-1.8 -11.5,-5.2 -17.2,-8.7 m -37.3,-18.4 5.5,42 c 4.3,0.2 9.7,2.4 15.4,5.5 v -40.2 c -5.2,-3.4 -12.8,-7.1 -20.9,-7.3 m -38.500005,22.8 16.2,33.8 c 4.4,-3.8 9.1,-8 14.4,-10.9 l -12.4,-38.1 c -6.6,4.7 -12.6,10.6 -18.2,15.2 m 105.400005,4.3 v 39.1 c 5.1,-1.7 11.1,-5.2 17.2,-8.9 v -38.9 c -5.7,3.5 -12.1,6.9 -17.2,8.7 m 33.5,-19.8 v 40.3 c 5.7,-3.1 11,-5.3 15.4,-5.5 l 5.6,-42 c -8.1,0.1 -15.7,3.8 -21,7.2 m 41.3,0.3 -12.4,38.1 c 5.2,2.9 10,7.1 14.4,10.9 l 16.2,-33.8 c -5.6,-4.6 -11.6,-10.5 -18.2,-15.2"
     id="path38" />
  <path
     class="st11"
     d="m 168.25734,149.478 c 14.1,0 41,-25.5 55.8,-25.5 19.7,0 33.1,27.5 45.1,23 l 17.6,-37.4 c -0.3,0.4 -0.7,0.7 -1.2,1.1 -13.2,9.3 -32,-28.7 -56,-28.7 -11.2,0 -21.6,7 -26.2,10.5 -6.9,5.5 -27.2,18 -35.1,18 -7.9,0 -28.2,-12.5 -35.2,-18 -4.6,-3.6 -15,-10.5 -26.2,-10.5 -23.900005,0 -42.700005,38 -55.900005,28.7 -0.5,-0.4 -0.9,-0.7 -1.2,-1.1 l 17.6,37.4 c 12,4.5 25.4,-23 45.100005,-23 14.8,0 41.8,25.5 55.8,25.5 z"
     id="path39" />
  <path
     class="st0"
     d="m 168.85734,72.378 c 36.3,0 65.8,-16 65.8,-35.6 0,-19.7 -29.4,-35.6 -65.8,-35.6 -36.3,0 -65.8,16 -65.8,35.6 0,19.7 29.5,35.6 65.8,35.6"
     id="path40" />
  <path
     class="st1"
     d="m 168.85734,72.378 c 36.3,0 65.8,-16 65.8,-35.6 0,-19.7 -29.4,-35.6 -65.8,-35.6 -36.3,0 -65.8,16 -65.8,35.6 0,19.7 29.5,35.6 65.8,35.6 z"
     id="path41" />
  <path
     class="st10"
     d="m 168.95734,66.578 c 32.3,0 58.5,-13.4 58.5,-29.8 -0.1,-16.5 -26.3,-29.8 -58.5,-29.8 -32.3,0 -58.5,13.3 -58.5,29.8 0,16.5 26.1,29.8 58.5,29.8"
     id="path42" />
  <path
     class="st12"
     d="m 168.95734,66.578 c 32.3,0 58.5,-13.4 58.5,-29.8 -0.1,-16.5 -26.3,-29.8 -58.5,-29.8 -32.3,0 -58.5,13.3 -58.5,29.8 0,16.5 26.1,29.8 58.5,29.8 z"
     id="path43" />
  <path
     class="st2"
     d="m 168.95734,59.478 c 26.3,0 47.6,-8.5 47.6,-19.1 0,-10.5 -21.4,-19 -47.6,-19 -26.3,0 -47.6,8.5 -47.6,19 0,10.6 21.3,19.1 47.6,19.1"
     id="path44" />
  <path
     class="st13"
     d="m 168.95734,59.478 c 26.3,0 47.6,-8.5 47.6,-19.1 0,-10.5 -21.4,-19 -47.6,-19 -26.3,0 -47.6,8.5 -47.6,19 0,10.6 21.3,19.1 47.6,19.1 z"
     id="path45" />
  <path
     class="st2"
     d="m 168.85734,26.878 c -25.3,0 -45.8,20.5 -45.8,45.8 0,25.3 20.5,45.8 45.8,45.8 h -0.6 c 25.3,0 45.8,-20.5 45.8,-45.8 0,-25.3 -20.5,-45.8 -45.8,-45.8 h 0.6"
     id="path46" />
  <path
     class="st11"
     d="m 168.85734,26.878 c -25.3,0 -45.8,20.5 -45.8,45.8 0,25.3 20.5,45.8 45.8,45.8 h -0.6 c 25.3,0 45.8,-20.5 45.8,-45.8 0,-25.3 -20.5,-45.8 -45.8,-45.8 z"
     id="path47" />
  <path
     class="st0"
     d="m 161.15734,110.578 -9.4,-16 -17.3,-2.8 -4.3,5.5 c 0.2,0.3 0.3,0.6 0.5,0.8 l 0.7,1.1 c 5.8,8.2 14.1,14.4 23.9,17.4 l 1.8,0.3 4.1,-6.3 m -11.8,-44.2 7.4,22.9 h 23.4 l 7.4,-22.9 -19.1,-13.9 -19.1,13.9 m 19.1,-23.1 14.3,-9.3 v -4.6 c -4.5,-1.5 -9.2,-2.4 -14.2,-2.4 -4.9,0 -9.7,0.9 -14.2,2.4 v 4.6 l 14.1,9.3 m -26.4,15.8 0.5,-18.2 -3.7,-2.9 c -2,1.7 -3.8,3.5 -5.4,5.4 l -0.2,0.2 c -5.2,6.4 -8.7,14.2 -9.9,22.7 l 4.1,1.8 14.6,-9 m 43.3,35.5 -9.4,16 4.1,6.3 1.7,-0.3 c 9.9,-3 18.5,-9.4 24.2,-17.8 l 0.4,-0.6 c 0.2,-0.3 0.4,-0.7 0.6,-1 l -4.4,-5.5 -17.2,2.9 m 9.6,-35.5 14.5,9.1 4.1,-1.8 c -1.2,-8.6 -4.7,-16.4 -10,-22.8 -1.6,-2 -3.5,-3.8 -5.4,-5.5 l -3.7,2.9 0.5,18.1"
     id="path48" />
</svg>
