<?xml version="1.0" encoding="UTF-8" standalone="no"?><svg width="265.598" height="385.107" viewBox="0 0 212.479 308.086" xml:space="preserve" xmlns="http://www.w3.org/2000/svg"><defs><clipPath id="a"><path d="M0 0h192.756v192.756H0V0z" transform="translate(.26 .677)"/></clipPath></defs><g clip-path="url(#a)" transform="matrix(1.60338 0 0 1.64675 -48.707 -5.783)"><path style="fill:#fefefe;fill-rule:evenodd;stroke:none;fill-opacity:1" d="m0 38.582.019-.16c.07-.602.145-1.202.224-1.8l.03-.216C2.07 22.988 5.955 10.613 11.419 0c14.491 6.778 31.93 10.745 50.666 10.745 18.736 0 36.18-3.965 50.672-10.743 5.757 11.184 9.762 24.325 11.419 38.581-16.349 10.363-38.173 16.71-62.087 16.71-23.915 0-45.74-6.348-62.089-16.71z" transform="translate(34.549 43.636)"/><path style="fill:#0095e9;fill-rule:evenodd;stroke:none;fill-opacity:1" d="M125.399 0a118.741 118.741 0 0 1 .307 4.324l.005.106c.039.735.073 1.472.099 2.212l.002.057a137.74 137.74 0 0 1 .082 4.6c0 49.7-28.277 90.231-62.947 90.231S0 60.998 0 11.3c0-.762.007-1.523.02-2.282l.002-.08C.035 8.19.055 7.444.082 6.7l.001-.06c.027-.753.06-1.504.1-2.253l.002-.025C.224 3.63.27 2.9.32 2.172l.011-.151C.381 1.346.435.67.494 0c16.483 10.272 38.422 16.556 62.453 16.556 24.03 0 45.969-6.285 62.452-16.557z" transform="translate(33.69 85.755)"/><path style="fill:#0095e9;fill-rule:evenodd;stroke:none;fill-opacity:1" d="M49.173 0a43.715 43.715 0 0 1 1.701.035 44.17 44.17 0 0 1 4.7.43l.024.004c.473.07.944.148 1.414.232l.254.046c.446.083.89.173 1.332.269.095.02.191.04.286.062.443.099.883.204 1.324.317.081.02.16.042.24.063.427.111.852.228 1.275.352l.151.043c.434.128.865.265 1.297.407.098.032.2.063.298.096.415.14.83.286 1.24.436l.342.127c.408.153.815.31 1.221.476.1.04.2.083.298.124.37.153.736.31 1.102.471.1.045.201.09.301.133.374.17.747.345 1.12.522l.377.184a45.596 45.596 0 0 1 1.53.783c.366.196.732.395 1.097.6.125.07.25.143.374.215.3.173.598.348.895.526.157.095.315.189.47.285.315.194.63.392.942.593l.442.284a59.154 59.154 0 0 1 2.32 1.606c.2.145.398.293.598.441l.621.47a61.293 61.293 0 0 1 1.374 1.088c.183.15.368.3.55.453a56.489 56.489 0 0 1 1.405 1.208c.174.152.345.308.517.463a65.843 65.843 0 0 1 2.578 2.458c.673.676 1.336 1.369 1.99 2.08l.172.19c.401.442.8.89 1.193 1.344l.083.095c3.584 4.148 6.846 8.847 9.723 14.006-14.143 6.513-31.043 10.311-49.171 10.311-18.129 0-35.03-3.798-49.173-10.311 2.522-4.522 5.34-8.69 8.411-12.445l.068-.085c.395-.48.793-.953 1.195-1.42l.184-.21c.36-.417.724-.826 1.092-1.23.08-.088.158-.176.24-.263.326-.356.656-.707.987-1.053.116-.122.232-.246.35-.366.198-.205.397-.407.597-.607a60.584 60.584 0 0 1 1.755-1.703 63.37 63.37 0 0 1 1.39-1.267c.184-.162.369-.324.553-.483.279-.241.558-.479.84-.712a46.072 46.072 0 0 1 1.185-.963 62.876 62.876 0 0 1 2.81-2.099 51.804 51.804 0 0 1 1.49-1.011l.405-.261c.317-.203.635-.404.956-.6.151-.094.303-.185.455-.277.307-.185.615-.365.925-.543.12-.07.238-.139.36-.206.373-.212.75-.416 1.128-.618l.358-.189c.38-.198.76-.391 1.142-.579.12-.06.241-.116.362-.175.395-.19.791-.376 1.19-.554.07-.033.142-.063.214-.095a57.17 57.17 0 0 1 1.131-.484l.3-.124c.406-.166.812-.323 1.22-.476l.342-.127c.412-.151.827-.297 1.243-.436.094-.032.188-.062.281-.092.44-.146.881-.285 1.324-.416l.127-.035a42.447 42.447 0 0 1 1.526-.418 44.19 44.19 0 0 1 2.942-.648l.254-.046a45.366 45.366 0 0 1 1.44-.235A44.45 44.45 0 0 1 46.069.11a41.41 41.41 0 0 1 1.4-.076c.076-.004.151-.006.225-.008A43.73 43.73 0 0 1 49.173 0z" transform="translate(47.465 6.824)"/><path style="fill:#b38b3e;fill-rule:evenodd;stroke:none;fill-opacity:1" d="M66.26 0c36.494 0 66.259 42.022 66.259 93.543 0 51.522-29.765 93.544-66.26 93.544C29.767 187.087 0 145.065 0 93.543S29.766 0 66.26 0zM17.087 37.33C31.23 43.842 48.13 47.64 66.26 47.64c18.128 0 35.028-3.797 49.171-10.31C103.882 16.62 86.121 3.312 66.26 3.312c-19.864 0-37.624 13.306-49.173 34.016zm99.841 2.796c-14.492 6.778-31.936 10.743-50.672 10.743-18.736 0-36.175-3.967-50.666-10.745C9.833 51.308 5.828 64.449 4.17 78.706 20.52 89.07 42.345 95.417 66.26 95.417c23.914 0 45.738-6.347 62.087-16.71-1.657-14.256-5.662-27.397-11.419-38.581zm11.783 42.117C112.228 92.516 90.291 98.8 66.26 98.8c-24.032 0-45.97-6.283-62.454-16.556a128.763 128.763 0 0 0-.494 11.299c0 49.698 28.277 90.23 62.948 90.23 34.669 0 62.946-40.532 62.946-90.23 0-3.825-.168-7.598-.495-11.3z" transform="translate(30.378 3.512)"/><path style="fill:#575453;fill-rule:evenodd;stroke:none" d="M2.251 16.565A81.175 81.175 0 0 1 0 0h56.294a81.029 81.029 0 0 1-2.253 16.565H2.25z" transform="translate(68.49 126.704)"/><path style="fill:#fff;fill-rule:evenodd;stroke:none" d="M25.896 36.839C13.795 30.794 4.198 17.15 0 0h51.79c-4.197 17.15-13.794 30.794-25.893 36.839z" transform="translate(70.741 143.269)"/><path style="fill:#b38b3e;fill-rule:evenodd;stroke:none;fill-opacity:1" d="M0 22.782c.974-1.248 1.941-2.491 2.9-3.725a15.27 15.27 0 0 0 2.812 2.568c.99.69 2.017 1.214 3.044 1.55 3.22 1.055 4.94.506 5.272-1.596.147-.924.02-1.845-.683-2.983-.698-1.13-1.968-2.485-4.104-4.28-2.062-1.704-3.314-2.88-4.102-3.874-.78-.986-1.105-1.801-1.302-2.762a6 6 0 0 1-.155-3.053C4.067 2.723 5.29 1.37 7.045.693 8.793.02 11.09 0 13.66.781c1.617.492 3.007 1.055 4.176 1.675 1.17.623 2.116 1.316 2.833 2.075l-2.161 3.374a12.272 12.272 0 0 0-2.532-2.116c-.9-.561-1.852-.994-2.82-1.294-2.42-.743-3.954-.02-4.261 1.644-.135.732.187 1.615.968 2.658.786 1.05 2.044 2.268 3.772 3.669 1.858 1.51 3.096 2.686 3.954 3.775.867 1.099 1.353 2.115 1.72 3.302a9.516 9.516 0 0 1 .178 3.56c-.311 2.238-1.673 3.859-3.795 4.638-2.134.784-5.025.715-8.35-.39a18.344 18.344 0 0 1-3.986-1.87A18.74 18.74 0 0 1 0 22.782z" transform="translate(46.38 56.629)"/><path style="fill:#b38b3e;fill-rule:evenodd;stroke:none;fill-opacity:1" d="m5.76 18.096-.415 5.186-.417 5.192L0 27.98l1.138-14.024L2.27 0c1.658.107 2.944.178 3.887.23.943.052 1.545.079 1.83.107 4.273.431 7.3 1.419 9.198 3.01 1.9 1.592 2.681 3.796 2.458 6.666-.248 3.172-1.348 5.462-3.3 6.863-1.953 1.404-4.761 1.922-8.42 1.554a16.242 16.242 0 0 1-2.163-.334zM6.826 4.822c-.119 1.487-.24 2.976-.357 4.46l-.359 4.46c.79.198 1.362.256 1.933.314 2.172.218 3.772.025 4.86-.649 1.09-.674 1.67-1.83 1.804-3.535.115-1.465-.372-2.606-1.441-3.436-1.069-.83-2.725-1.356-4.948-1.58-.57-.057-1.026-.103-1.492-.034z" transform="translate(75.098 61.427)"/><path style="fill:#b38b3e;fill-rule:evenodd;stroke:none;fill-opacity:1" d="M0 2.97C0 1.287 1.287 0 2.97 0c1.584 0 2.87 1.287 2.87 2.97a2.873 2.873 0 0 1-2.87 2.87C1.287 5.84 0 4.555 0 2.97z" transform="translate(66.114 82.293)"/><path style="fill:#b38b3e;fill-rule:evenodd;stroke:none;fill-opacity:1" d="M0 2.97C0 1.287 1.287 0 2.97 0c1.584 0 2.87 1.287 2.87 2.97a2.873 2.873 0 0 1-2.87 2.87C1.287 5.84 0 4.555 0 2.97z" transform="translate(89.9 85.208)"/><path style="fill:#b38b3e;fill-rule:evenodd;stroke:none;fill-opacity:1" d="M0 2.97C0 1.288 1.287 0 2.971 0c1.584 0 2.87 1.287 2.87 2.97a2.872 2.872 0 0 1-2.87 2.872C1.287 5.842 0 4.555 0 2.97z" transform="translate(123.828 81.855)"/><path style="fill:#b38b3e;fill-rule:evenodd;stroke:none;fill-opacity:1" d="m20.239 22.188-6.898 2.682-7.14 2.776C5.11 23.011 4.044 18.47 3 14.027L0 1.256 3.925 0c.846 3.456 1.71 6.97 2.588 10.543L9.246 21.66l4.98-1.878 4.859-1.835c.382 1.405.767 2.822 1.154 4.24z" transform="translate(127.705 58.148)"/><path style="fill:#b38b3e;fill-rule:evenodd;stroke:none;fill-opacity:1" d="M0 2.97C0 1.287 1.286 0 2.97 0c1.584 0 2.871 1.287 2.871 2.97A2.873 2.873 0 0 1 2.97 5.84C1.286 5.84 0 4.556 0 2.97z" transform="translate(149.825 71.79)"/><path style="fill:#b38b3e;fill-rule:evenodd;stroke:none;fill-opacity:1" d="M21.665 26.592c-1.315.254-2.64.49-3.977.703l-.94-7.366c-1.956.226-3.916.46-5.882.683-1.973.225-3.948.462-5.93.69.201 2.404.403 4.854.61 7.347-1.36.087-2.727.157-4.103.204l-.292-4.28C.835 19.926.526 15.43.231 11.081 0 7.661.934 5.01 3.1 2.934A10.36 10.36 0 0 1 5.79 1.06 9.877 9.877 0 0 1 8.751.146C9.827 0 10.886.116 11.894.379c1.014.263 1.974.744 2.92 1.33 2.38 1.477 3.838 3.822 4.336 7.306.608 4.257 1.24 8.66 1.89 13.212l.625 4.365zM4.485 15.874c1.94-.213 3.877-.438 5.808-.65 1.925-.212 3.847-.437 5.766-.657l-.658-5.14c-.207-1.632-1.09-2.706-2.685-3.528-1.22-.63-2.444-.948-3.445-.841-1.206.129-2.366.548-3.42 1.436-1.319 1.113-1.949 2.392-1.8 4.17.141 1.718.287 3.452.433 5.21z" transform="translate(99.717 62.34)"/><path style="fill:#fefefe;fill-rule:evenodd;stroke:none;fill-opacity:1" d="M25.896 36.839C13.795 30.794 4.198 17.15 0 0h51.79c-4.197 17.15-13.794 30.794-25.893 36.839z" transform="translate(70.741 143.269)"/><path style="fill:#b38b3e;fill-rule:nonzero;stroke:none;fill-opacity:1" d="m27.134 38.902-.435-.217c-6.197-3.095-11.746-8.127-16.275-14.571C5.92 17.709 2.422 9.899.294 1.203L0 0h54.266l-.294 1.203c-2.129 8.696-5.628 16.506-10.13 22.911-4.53 6.444-10.077 11.476-16.275 14.571l-.433.217zm0-2.18c5.73-2.967 10.88-7.698 15.117-13.727 4.16-5.918 7.437-13.079 9.527-21.046H2.488c2.088 7.967 5.368 15.128 9.527 21.046 4.238 6.029 9.387 10.76 15.119 13.727z" transform="translate(69.504 142.294)"/><path style="display:inline;fill:#080808;fill-rule:evenodd;stroke:none;fill-opacity:1" d="M2.251 16.565A81.175 81.175 0 0 1 0 0h56.294a81.029 81.029 0 0 1-2.253 16.565z" transform="translate(68.49 126.704)"/><path style="fill:#b38b3e;fill-rule:nonzero;stroke:none;fill-opacity:1" d="m2.5 18.514-.183-.746a80.264 80.264 0 0 1-1.565-8.26 84.085 84.085 0 0 1-.718-8.503L0 0h58.31l-.033 1.005a84.063 84.063 0 0 1-.718 8.499 80.425 80.425 0 0 1-1.564 8.264l-.183.746H2.499zm1.526-1.949h50.259a79.006 79.006 0 0 0 1.348-7.318 81.7 81.7 0 0 0 .656-7.297H2.022c.114 2.493.335 4.929.656 7.3.34 2.499.793 4.941 1.348 7.315z" transform="translate(67.481 125.729)"/></g></svg>