<svg height="351.091592" preserveAspectRatio="xMidYMid meet" viewBox="0 0 588 725" width="284.825961" xmlns="http://www.w3.org/2000/svg"><g transform="matrix(.1 0 0 -.1 0 725)"><path d="m2660 7107c0-74 3-175 6-225l7-92h193 194v50 49l-142 3-143 3-3 43-3 42h135 136v50 50h-135-135v40 40h140 140v40 40h-195-195z"/><path d="m3160 7197v-45l68-7c37-4 94-10 127-14l60-6-147-113-146-114-4-49c-2-33 1-49 9-49 6 0 96-9 199-20 150-16 189-18 196-8 13 21 9 75-5 81-8 3-64 8-125 12-62 4-112 10-112 14 1 3 65 56 143 117l142 110 3 50 3 51-128 11c-70 7-163 15-205 18l-78 7z"/><path d="m2260 7188c-80-11-147-22-149-24-3-3 68-436 73-441 1-2 28 2 60 8 39 8 55 16 52 25-3 7-8 39-12 72l-6 59 64 6c86 8 171 41 203 78 45 55 27 166-35 211-38 27-92 29-250 6zm168-84c27-19 29-67 3-93-12-12-46-22-96-30-43-6-79-10-81-9-1 2-4 30-6 63l-3 60 70 11c39 7 75 12 80 13 6 0 21-6 33-15z"/><path d="m3632 6972c-23-114-42-212-42-219 0-16 92-35 101-21 4 6 23 94 44 197 20 102 39 196 41 207 5 18 0 22-33 28-21 4-45 9-53 11-12 4-23-35-58-203z"/><path d="m1801 7084c-78-21-152-64-178-103-32-47-31-110 1-148 21-25 32-28 98-31 48-3 97 2 137 12 76 19 102 20 125 3 42-31-37-90-139-104-37-5-52-2-73 14-24 17-32 18-71 8-25-6-46-16-48-22-7-20 58-82 97-94 78-24 257 27 310 88 30 34 32 40 28 100-3 53-9 68-31 90-32 33-62 34-220 13-84-11-110-11-119-2-20 20 3 44 63 69 63 26 125 29 149 8 15-13 22-13 63 1 51 17 52 27 5 72-46 42-107 50-197 26z"/><path d="m3925 6901c-88-98-161-183-162-187-2-5 22-16 51-25l55-16 36 37 37 38 111-37 112-38 3-49 3-49 60-24c33-13 62-21 65-19 6 7-36 482-44 489-4 4-38 17-77 29-38 13-75 25-80 27-6 2-82-77-170-176zm225-32c5-45 8-84 6-86-2-3-75 20-135 42-10 4 4 25 49 70 35 36 65 63 67 61s8-41 13-87z"/><path d="m3100 6311c-85-27-223-125-332-237-51-54-66-80-163-299-59-132-110-243-114-248-10-10-267 34-422 73-343 86-701 226-963 376l-80 47-81-84c-225-237-423-528-581-854-169-350-275-707-329-1110-29-209-32-777-5-748 4 4 28 58 53 119 202 495 548 988 952 1354 221 200 474 387 706 523 109 64 397 207 416 207 40 0 391-192 645-352l158-100 37 30c59 45 238 163 345 225 139 82 369 197 392 197 25 0 307-146 461-239 753-455 1369-1161 1631-1871l39-104 8 84c11 111 1 441-18 605-86 766-390 1461-881 2016-48 55-92 99-97 99s-54-25-108-56c-374-209-852-369-1272-424-49-7-91-10-94-7-2 3-34 68-69 143l-65 138 68 100c91 134 132 176 169 176 17 0 35-5 41-11 31-31 27 159-4 193-19 21-116 25-204 7-52-10-57-10-93 15-40 27-93 33-146 17z"/><path d="m1985 5167c-398-207-701-431-1010-748-394-403-686-881-850-1391-25-77-45-151-45-164 0-14 28-105 63-204l62-180h788 787l42-92c138-305 315-601 496-827 57-72 71-96 61-102-8-4-61-37-118-72l-105-65-40 26c-276 172-558 418-735 640l-73 92h-449c-289 0-449-4-449-10 0-19 128-225 216-349 354-495 858-932 1385-1197 73-37 139-67 145-67 7 0 41 12 76 28 163 73 404 222 606 377l103 78 92-68c152-114 459-303 643-395l50-25 136 68c227 113 433 241 618 384 486 374 896 888 1146 1436 57 124 124 298 124 321 0 5-164 9-403 9h-403l-33-67c-168-342-440-707-708-949-170-153-425-334-472-334-22 0-152 84-189 123l-33 34 81 104c253 322 481 751 631 1187l28 83-68 192-68 192-742 5-742 5 55 93c62 104 247 372 258 372 4 0 19-18 35-40l28-40h458 459l-23 38c-148 243-206 330-319 482-31 41-60 80-64 87-4 8 30 37 98 83 58 38 110 70 117 70 38 0 347-230 505-376 260-238 530-599 659-877l36-77h409c226 0 410 4 410 8 0 22-98 262-159 389-279 577-707 1072-1261 1460-186 130-543 333-586 333-23 0-208-90-329-160-139-80-255-157-376-252l-95-75-70 59c-88 74-241 179-368 252-123 71-331 176-348 176-7 0-85-38-173-83zm295-851c57-39 109-74 114-78 5-3-23-41-63-84-148-158-286-367-419-634-49-96-98-199-110-227l-21-53h-366-366l27 48c56 97 174 271 260 382 107 138 361 396 498 505 130 103 316 226 330 218 6-4 58-38 116-77zm969-1875c-13-21-85-133-159-249-104-162-138-208-147-199-8 9-260 398-307 475-6 9 60 12 314 12h322z"/><path d="m2899 716c-90-68-293-190-497-298l-101-54 316-174c173-96 321-176 329-178 12-3 594 327 622 353 11 10-10 25-112 78-140 74-302 172-418 253-43 30-81 54-86 54s-29-15-53-34z"/></g></svg>