<svg height="353.18568" viewBox="0 0 481.15645 599.99999" width="283.137187" xmlns="http://www.w3.org/2000/svg"><g transform="matrix(1.0626993 0 0 1.0626993 -.070042 -.63762)"><g><path d="m226.4 67.2c-82.3 0-159.4 23.4-226 64.2-.7 19.5-.3 39.3 1.2 59.4 12.7 170.6 103.5 312.2 224.8 374.4 121.3-62.2 212.1-203.8 224.9-374.4 1.5-20.1 1.9-39.9 1.2-59.4-66.7-40.8-143.9-64.2-226.1-64.2z" fill="#cdb789"/><path d="m226.4 76.2c39.5 0 78.6 5.5 116.4 16.4 35.1 10.1 69 24.9 100.8 43.9.5 17.7 0 35.7-1.3 53.5-6.1 81-30.4 158.4-70.4 223.8-37.9 62-88.1 110.7-145.5 141.1-57.4-30.3-107.6-79-145.5-140.9-40-65.4-64.4-142.8-70.4-223.8-1.3-17.8-1.8-35.8-1.3-53.5 31.8-19 65.7-33.8 100.8-43.9 37.7-11 76.9-16.6 116.4-16.6" fill="#fff"/><path d="m226.4 541.3c-53.1-29.6-99.7-75.7-135.2-133.6-39-63.8-62.8-139.3-68.7-218.4-1.1-15.2-1.6-30.5-1.4-45.6 62.8-36.2 133.6-55.3 205.3-55.3 71.6 0 142.5 19.1 205.3 55.3.2 15.2-.3 30.5-1.4 45.6-5.9 79.1-29.7 154.6-68.7 218.4-35.5 58-82.2 104-135.2 133.6z" fill="#1d995b"/></g><g fill="#fff"><path d="m90.4 332.1v56.4c2.8 4.9 5.6 9.8 8.5 14.6 13.6 22.3 29 42.8 45.7 61.2v-69.8c-20.3-18.3-38.6-39.3-54.2-62.4z"/><path d="m308.2 394.4v69.8c16.8-18.4 32.1-38.9 45.7-61.2 2.9-4.8 5.8-9.6 8.5-14.6v-56.4c-15.7 23.2-33.9 44.2-54.2 62.4z"/><path d="m226.4 447.9c-12.1-5.4-23.7-11.6-35-18.6v78c11.3 8.7 23 16.6 35 23.5 12-7 23.7-14.8 35-23.5v-78c-11.3 7-23 13.2-35 18.6z"/></g><g fill="#1d995b"><path d="m207.5 470.2v24.9h-3.8v-18.5c-.8 1.2-2.2 1.8-3.3 1.8v-3.4c1.8-.2 3.3-1.8 3.3-4.8z"/><path d="m222.6 474.4v16.9c0 2.6-1.1 3.7-3.5 3.7h-8v-3.6h7.8v-6.3h-5c-2.6 0-3.6-1.3-3.6-4.1v-6.7c0-2.6 1.1-4.2 3.4-4.2h5.3c2.4.1 3.6 1.5 3.6 4.3zm-8.6 7.3h4.9v-8h-4.9z"/><path d="m225.1 490.9v-3.3h3.8v4h4.9v-7.8h-4.7v-3.4h4.6v-6.9h-4.8v3.3h-3.7v-2.8c0-2.7.7-3.9 3.6-3.9h5.2c2.7 0 3.4 1.3 3.4 3.8v5.5c0 1.3-.4 2.1-1.2 2.6.9.5 1.3 1.4 1.3 3v5.9c0 2.5-1.1 4-3.5 4h-5.3c-2.6.2-3.6-1.5-3.6-4z"/><path d="m239.9 490.9v-3.3h3.8v4h4.9v-7.8h-4.7v-3.4h4.6v-6.9h-4.8v3.3h-3.7v-2.8c0-2.7.7-3.9 3.6-3.9h5.2c2.7 0 3.4 1.3 3.4 3.8v5.5c0 1.3-.4 2.1-1.2 2.6.9.5 1.3 1.4 1.3 3v5.9c0 2.5-1.1 4-3.5 4h-5.3c-2.6.2-3.6-1.5-3.6-4z"/></g><g fill="#fff"><g><path d="m237.2 338c.5-.2 1-.3 1.5-.5 7.6-2.1 21.5-9.2 5-8.7l-2.9.3s29.9-11 30.7-18.9c0 0 .6-1.9-8.9-.5 0 0 20.8-17.1 20.5-23.1 0 0 .8-4.5-5.8.3 0 0 3.2-20-1.1-22.3 0 0-5 35.5-41.8 60.7 0 0-3.2 1.9-8 5.1-4.9-3.3-8.3-5.3-8.3-5.3-36.8-25.2-41.8-60.7-41.8-60.7-4.2 2.4-1.1 22.3-1.1 22.3-6.6-4.7-5.8-.3-5.8-.3-.3 6 20.5 23.1 20.5 23.1-9.8-2.2-8.9.5-8.9.5.8 7.9 30.7 18.9 30.7 18.9l-2.9-.3c-17.2-1-2.6 6.6 5 8.7.6.2 1.2.4 1.9.6-14.4 11.1-32 27.7-31.8 43.2 0 0 12.6-18.4 19.2-23.4s16-6 16-7.6-6-2.1-6-2.1 6.5-3.1 13.4-6c6.7 2.8 12.9 5.8 12.9 5.8s-6 .5-6 2.1 9.5 2.6 16 7.6c6.6 5 19.2 23.4 19.2 23.4.2-15.3-17-31.8-31.4-42.9z"/><path d="m203.8 289c-.3.4-.4.9-.4 1.5 0 1.6 1.3 2.9 2.9 2.9.3 0 .7-.1 1-.2l.3.8 1.6 5.7c4.8-1.1 11.2-1.4 17.7-1.4 6.2 0 12.4.3 17 1.4l1.6-5.7.3-.8c.3.1.6.2 1 .2 1.6 0 2.9-1.3 2.9-2.9 0-.5-.2-1.1-.4-1.5 1.3-.9 2.5-3 2.8-4.1 1.8-6.5-2.9-8.9-7.2-8.1.1.8.2 1.6.2 2.3 0 1-.1 1.9-.2 2.8.3 0 .6-.1 1 0 2.8.3 3.6 3.9 2.9 6.4-.5-.4-1.1-.7-1.8-.7-1.6 0-2.9 1.3-2.9 2.9 0 .8.3 1.4.8 2l-4.6 3-1.4-4.6c1.4-.2 2.4-1.4 2.4-2.8 0-.5-.1-.9-.3-1.3 1.1-1.3 2.1-3.1 2.4-4.1 3.5-12.8-13.1-13-16.6-4.5-3.5-8.5-20.1-8.4-16.6 4.5.3 1.1 1.3 2.8 2.4 4.1-.2.4-.3.8-.3 1.3 0 1.4 1.1 2.6 2.4 2.8l-1.4 4.6-4.6-3c.5-.5.8-1.2.8-2 0-1.6-1.3-2.9-2.9-2.9-.7 0-1.3.2-1.8.7-.7-2.5.1-6.1 2.9-6.4h1c-.2-.9-.2-1.9-.2-2.8 0-.8.1-1.6.2-2.3-4.4-.8-9 1.6-7.2 8.1-.2 1.1 1 3.2 2.3 4.1zm25.5-6.5c1.1-2.6 3.5-3.8 5.7-3.6 3 .3 4.2 3.6 3.9 6.4-.3-.1-.6-.2-1-.2-1.6 0-2.9 1.3-2.9 2.9 0 1 .5 1.8 1.2 2.3l-4.8 2.7-2.4-3.8c1-.8 1.7-2.1 1.7-3.5.1-1.2-.5-2.4-1.4-3.2zm-15.5 2.8c-.2-2.9 1-6.2 3.9-6.4 2.2-.2 4.6 1 5.7 3.6-.9.8-1.5 2-1.5 3.3 0 1.4.7 2.7 1.7 3.5l-2.4 3.8-4.8-2.7c.7-.5 1.2-1.4 1.2-2.3 0-1.6-1.3-2.9-2.9-2.9-.3 0-.6 0-.9.1z"/><path d="m242.7 301.6c-4.3-1.1-10.1-1.4-16-1.4-6.1 0-12.2.3-16.6 1.4l.6 3.2c10-1.2 21.4-1.2 31.4 0z"/><path d="m210.9 306.7c0 1.9 31.1 1.9 31.1 0-.1-1.9-31.1-1.9-31.1 0z"/><path d="m223.2 270.9c-.9-1.5 1.3-2.1 2.2-.5.1.1.1.2.2.4-.2.1-.4.3-.4.6s.2.5.5.6c-.2.6-1 .9-1.5.5.1.7.8.9 1.4.7 0 .5.2 1.1.9 1.5.7-.5.9-1 .9-1.5.6.2 1.2 0 1.4-.7-.5.3-1.3.1-1.5-.5.3-.1.5-.3.5-.6s-.2-.5-.4-.6c0-.1.1-.2.2-.4.9-1.6 3.1-1 2.2.5 4.5-.6.7-6.8-2.7-1 .2-1.1.8-2 .8-3.9 0-1.7-.7-2.4-1.3-3.2-.7.8-1.3 1.5-1.3 3.2 0 1.9.6 2.8.8 3.9-3.6-5.8-7.4.4-2.9 1z"/><path d="m218.2 374.8v2 2.1h6.1v6.2h2.1 2v-6.2h6.2v-2.1-2h-6.2v-6.2h-2-2.1v6.2z"/><circle cx="226.39999" cy="366.60001" r="2.1"/><circle cx="236.7" cy="376.79999" r="2.1"/><circle cx="216.10001" cy="376.79999" r="2.1"/><circle cx="226.39999" cy="387.10001" r="2.1"/><path d="m268.7 336.6v2 2.1h6.1v6.1h2.1 2v-6.1h6.2v-2.1-2h-6.2v-6.2h-2-2.1v6.2z"/><circle cx="276.89999" cy="328.29999" r="2.1"/><circle cx="287.20001" cy="338.60001" r="2.1"/><circle cx="266.60001" cy="338.60001" r="2.1"/><circle cx="276.89999" cy="348.89999" r="2.1"/><path d="m167.7 336.5v2 2.1h6.1v6.1h2.1 2v-6.1h6.2v-2.1-2h-6.2v-6.2h-2-2.1v6.2z"/><circle cx="175.89999" cy="328.20001" r="2.1"/><circle cx="186.2" cy="338.5" r="2.1"/><circle cx="165.60001" cy="338.5" r="2.1"/><circle cx="175.89999" cy="348.79999" r="2.1"/></g><g><path d="m110.5 210.9-20.7 6.5 1.6 15.4-15.9 5-6.9-80 25.4-8 40 69.6-16 5zm-22.2-7.5 15.4-4.9-17.3-31.2-1.7.5z"/><path d="m211.9 194.4c.9 9-3.2 15.1-12.2 16l-26.9 2.7c-7.7.8-14-3.1-15-12.9l-1.2-12.5 16.1-1.6 1.3 12.6 22-2.2-1.3-13.2-31.7-8.9c-5.9-2-8.1-4.8-8.8-11.6l-1.4-13.9c-.9-9 3.6-13 11.7-13.8l27.7-2.8c10.3-1 14 3.8 15 13.9l1 10.3-16.1 1.6-1.1-11.4-22 2.2 1.2 11.6 31.8 8.6c6.1 1.9 8 4.7 8.7 12z"/><path d="m298.3 200.8c-1 9-6.3 14.1-15.3 13.1l-26.8-3c-7.7-.9-13-6-11.9-15.8l1.4-12.5 16.1 1.8-1.4 12.6 21.9 2.5 1.5-13.2-29.2-15.3c-5.4-3.2-6.9-6.4-6.2-13.2l1.6-13.9c1-9 6.2-11.9 14.3-11l27.7 3.1c10.3 1.2 12.8 6.7 11.7 16.7l-1.2 10.3-16.1-1.8 1.3-11.4-21.9-2.5-1.3 11.6 29.3 15.1c5.6 3.2 6.8 6.2 6 13.5z"/><path d="m349.4 147 45.8 14.1-4.2 13.6-30.1-9.3-5.2 17.1 21.6 6.6-4.1 13.5-21.6-6.6-5.3 17.2 30.1 9.3-4.2 13.6-45.8-14.1z"/></g><g><path d="m191.3 405.2h2.5v12.9h6.1v2.3h-8.6z"/><path d="m207.6 417.9v-10.5c0-1.5.8-2.2 2.2-2.2h5.5c1.7 0 2.2.9 2.2 2.6v9.9c0 1.5-.8 2.6-2.4 2.6h-5.2c-1.3.1-2.3-.6-2.3-2.4zm7.4.2v-10.6h-4.9v10.6z"/><path d="m225.1 405.2h2.5v15.2h-2.5z"/><path d="m235.4 420.4v-15.2h7.5c1.5 0 2.1.8 2.1 2.5v5.7c0 1.3-.5 2-1.5 2.1l1.7 4.9h-2.5l-1.6-4.9h-3.1v4.9zm7.2-7.1v-5.8h-4.6v5.8z"/><path d="m253 405.2h8.5v2.3h-6v4.2h4.2v2.2h-4.2v4.2h6v2.3h-8.5z"/></g><g><path d="m126.3 257.6c.7 2.5.1 4.2-2.2 4.9l-5.9 1.7c-1.9.6-3.6-.2-4.4-2.7l-1.1-3.7 3.5-1 1.2 4.1 5.6-1.6-1.4-4.9-8.5-1.7c-1.4-.3-2-.9-2.5-2.5l-1.2-4.2c-.7-2.3.1-3.6 2.2-4.2l6-1.8c2.5-.7 3.6.2 4.4 2.8l.9 3.2-3.5 1-1.1-3.8-5.6 1.6 1.2 4.3 8.6 1.7c1.4.3 2 .9 2.4 2.5z"/><path d="m141.6 253-5.6 1.3.3 4.9-3.6.9-1-23.8 6-1.4 9.6 21.8-3.7.9zm-5.7-2.1 4.5-1-4.6-10.9-.5.1z"/><path d="m148.9 232.5 3.6-.7 4.4 23-3.6.7z"/><path d="m173.3 252.1-5.4-9.9c-1-1.8-2.4-5-3.7-7.9.5 2.9 1.1 6.1 1.3 7.6l1.6 11-3.2.5-3.4-23.1 4.5-.7 5.6 10.4c1 1.9 2.6 5.3 3.9 8.1-.6-3-1.2-6.4-1.4-8l-1.7-11.4 3.2-.5 3.4 23.1z"/><path d="m186.9 230.4-5 .5-.3-3.4 13.7-1.3.3 3.4-5 .5 1.9 19.9-3.7.3z"/><path d="m200.1 236.5 7.8-.4.2 3.4-7.8.4z"/><path d="m214.8 225.1 11.3-.2.1 3.4-7.7.1.1 6.7 5.4-.1.1 3.3-5.4.1.1 6.6 7.7-.1.1 3.4-11.3.2zm3.6-1.3 1.5-4.3 4.2-.1-2.7 4.3z"/><path d="m237.4 228.6-5-.2.1-3.5 13.7.4-.1 3.5-5-.2-.6 19.9-3.7-.1z"/><path d="m253 225.8 3.7.3-1.6 23.3-3.7-.3z"/><path d="m264.8 226.8 11.2 1.2-.4 3.4-7.6-.8-.7 6.7 5.4.6-.4 3.3-5.4-.6-.7 6.5 7.6.8-.4 3.4-11.3-1.2z"/><path d="m289.2 253.6-2.2-11c-.4-2-.8-5.5-1.2-8.7-.4 3-.8 6.2-1 7.7l-1.8 11-3.2-.5 3.7-23.1 4.5.7 2.2 11.6c.4 2.1.9 5.8 1.3 8.9.4-3 .8-6.5 1.1-8.1l1.8-11.4 3.2.5-3.7 23.1z"/><path d="m309.9 257.7-1.5-11.1c-.3-2-.5-5.5-.7-8.7-.5 2.9-1.1 6.1-1.5 7.6l-2.4 10.9-3.2-.7 5-22.9 4.4 1 1.5 11.7c.3 2.1.6 5.8.8 8.9.6-3 1.2-6.5 1.5-8l2.5-11.2 3.2.7-5 22.9z"/><path d="m327.6 237.9 10.9 3-.9 3.3-7.4-2-1.8 6.5 5.2 1.4-.9 3.2-5.2-1.4-1.8 6.3 7.4 2-.9 3.3-10.9-3z"/></g></g><g><path d="m226.4.6-15.4 47.3h-49.8l40.3 29.3-15.4 47.4 40.3-29.3 40.3 29.3-15.4-47.3 40.3-29.3h-49.8z" fill="#254d98"/><path d="m226.4 15.2 11.1 34.1 1 3.1h3.3 35.8l-29 21.1-2.7 1.9 1 3.1 11.1 34.1-29-21.1-2.7-1.9-2.7 1.9-29 21.1 11.1-34.1 1-3.1-2.7-1.9-29-21.1h36 3.3l1-3.1z" fill="#fff"/><path d="m226.4 35.5-7.5 23.2h-24.5l19.8 14.4-7.6 23.2 19.8-14.4 19.8 14.4-7.6-23.2 19.8-14.4h-24.4z" fill="#d2353b"/><path d="m226.4 46.4 4.3 13.4.8 2.3h2.5 14l-11.4 8.3-2 1.4.8 2.3 4.3 13.4-11.4-8.3-2-1.4-2 1.4-11.3 8.3 4.3-13.4.8-2.3-2-1.4-11.4-8.3h14.1 2.5l.8-2.3z" fill="#fff"/></g></g></svg>