<?xml version="1.0" encoding="UTF-8"?>
<!DOCTYPE svg PUBLIC "-//W3C//DTD SVG 1.1//EN" "http://www.w3.org/Graphics/SVG/1.1/DTD/svg11.dtd">
<!-- Creator: CorelDRAW 2019 (64-Bit) -->
<svg xmlns="http://www.w3.org/2000/svg" xml:space="preserve" width="193.695mm" height="193.833mm" version="1.1" style="shape-rendering:geometricPrecision; text-rendering:geometricPrecision; image-rendering:optimizeQuality; fill-rule:evenodd; clip-rule:evenodd"
viewBox="0 0 193.4569 193.594"
 xmlns:xlink="http://www.w3.org/1999/xlink"
 xmlns:xodm="http://www.corel.com/coreldraw/odm/2003">
 <defs>
  <style type="text/css">
   <![CDATA[
    .fil0 {fill:#614838}
    .fil2 {fill:#E30512}
    .fil1 {fill:white}
   ]]>
  </style>
 </defs>
 <g id="Layer_x0020_1">
  <metadata id="CorelCorpID_0Corel-Layer"/>
  <g id="_882647232">
   <path class="fil0" d="M-0 96.6596c0,-53.4084 43.2518,-96.6596 96.6601,-96.6596 53.4084,0 96.7968,43.2512 96.7968,96.7968 0,53.4083 -43.2512,96.7972 -96.7968,96.7972 -53.5455,0 -96.6601,-43.5262 -96.6601,-96.9344z"/>
   <path class="fil1" d="M4.3094 96.6596c0,-51.0382 41.3125,-92.3503 92.3507,-92.3503 51.0382,0 92.3504,41.3121 92.3504,92.3503 0,51.0381 -41.3122,92.3508 -92.3504,92.3508 -51.0382,0.1366 -92.3507,-41.3127 -92.3507,-92.3508z"/>
   <path class="fil2" d="M39.6379 96.6596c0,-31.567 25.5925,-57.0222 57.0222,-57.0222 31.5671,0 57.0222,25.593 57.0222,57.0222 0,31.5675 -25.5924,57.0222 -57.0222,57.0222 -31.4298,0.1371 -57.0222,-25.4547 -57.0222,-57.0222z"/>
   <polygon class="fil0" points="36.9928,128.3732 32.8208,128.3732 30.7345,124.7499 28.6482,128.3732 24.6137,128.3732 26.6996,131.8503 24.6137,135.4648 28.7859,135.4648 30.8723,138.942 32.9585,135.4648 36.9928,135.4648 34.9071,131.8503 "/>
   <polygon class="fil0" points="169.1181,128.3732 164.9455,128.3732 162.8592,124.7499 160.7735,128.3732 156.7385,128.3732 158.8249,131.8503 156.7385,135.4648 160.7735,135.4648 162.8592,138.942 164.9455,135.4648 169.1181,135.4648 167.0319,131.8503 "/>
   <path class="fil0" d="M107.5117 10.8515l-6.1207 -0.5577 -1.9491 22.5263 6.6794 0.5587 0.6954 -7.3749c5.8374,0.6954 9.8728,-0.8331 10.4305,-6.67 0.4115,-5.8474 -3.8977,-8.0709 -9.7356,-8.4824zm2.9194 7.787l0 0c-0.1377,1.6647 -1.3908,2.4974 -3.2033,2.223l0.4216 -5.1419 0.5576 0c1.5287,0.1377 2.3607,1.528 2.2241,2.9189z"/>
   <path class="fil0" d="M133.653 43.8099l5.4262 -22.674 -7.3748 -3.6144 -15.5731 17.6688 6.2585 3.0561 1.8115 -2.3607 4.0259 2.0862 -0.8328 2.7818 6.2586 3.0561zm-6.5323 -11.8219l0 0 3.1929 -4.3093c0.842,-1.117 1.6747,-2.3702 2.5072,-3.4766 -0.421,1.3903 -0.9698,2.6434 -1.3909,4.0343l-1.6652 5.0053 -2.6439 -1.2538z"/>
   <polygon class="fil0" points="34.0744,84.1427 25.5931,82.7519 26.425,77.8838 21.1366,77.0517 20.3034,81.782 17.1105,81.2243 17.9438,76.0725 12.654,75.2393 10.5683,86.924 32.9585,90.8222 "/>
   <path class="fil0" d="M21.6943 53.6822c-0.8322,0.8326 -1.5275,1.8125 -2.0857,2.7812 -1.5281,2.9195 -3.4772,10.5688 5.5629,15.162 6.9538,3.4771 12.3801,1.1164 14.8875,-3.8978 0.695,-1.3909 0.9699,-2.4973 1.1065,-4.0259l-5.4258 -3.2023c0.2843,1.3903 0.4211,2.5068 -0.2744,3.8977 -1.5275,3.0561 -4.8676,2.2235 -7.2283,0.9698 -2.2324,-1.1164 -5.0141,-3.4772 -3.3395,-6.6795 0.6955,-1.2442 1.391,-1.6652 2.6441,-2.2241l-5.8474 -2.7812z"/>
   <polygon class="fil0" points="157.4339,76.914 162.3016,74.6816 160.2153,70.0978 176.072,63.0063 173.2903,56.8856 152.7126,66.0624 "/>
   <path class="fil0" d="M161.0573 38.9419l-10.4311 9.7356c-0.4205,0.421 -0.9793,0.9698 -1.5369,1.2537 -0.5488,0.2739 -1.2442,0.2739 -1.8025,-0.4216 -0.6949,-0.6954 -0.5583,-1.2532 -0.2839,-1.9486 0.2839,-0.5487 0.8422,-1.1064 1.3908,-1.528l10.4311 -9.7356 -4.5838 -4.8681 -10.8525 10.1572c-1.9486,1.8025 -5.5635,6.1213 -0.274,11.8219 5.2791,5.7002 9.7357,2.4973 11.822,0.5577l10.8421 -10.1562 -4.7215 -4.868z"/>
   <path class="fil0" d="M82.6154 34.9065c1.9486,-0.6954 3.0554,-2.644 2.4972,-4.446 -0.6948,-1.9496 -2.7811,-2.7818 -4.8674,-1.9496 -1.8021,0.6954 -2.9191,2.645 -2.3608,4.447 0.6955,1.6747 2.7818,2.644 4.731,1.9486z"/>
   <polygon class="fil0" points="73.438,37.2766 66.1996,21.6942 69.8141,20.0294 67.4535,15.0242 54.5154,21.136 56.7485,26.1507 60.2252,24.6131 67.4535,40.0583 "/>
   <path class="fil0" d="M51.0388 50.7638c1.6748,-0.5588 3.2024,-1.3909 4.4559,-2.5074 3.6138,-3.0561 3.8889,-7.6493 1.2538,-10.8421 -1.1164,-1.2542 -2.233,-1.9491 -3.4772,-2.224 -1.2531,-0.2839 -2.6439,-0.2839 -4.3188,0 -0.4115,0 -0.9697,0.1377 -1.5286,0.1377 -0.5577,0 -0.9687,-0.1377 -1.2531,-0.5583 -0.5489,-0.6954 -0.1377,-1.6652 0.4211,-2.223 1.2536,-0.9798 2.3606,-1.3909 3.8977,-1.6752l-3.7612 -4.3099c-1.5275,0.4216 -3.1928,1.117 -4.4458,2.2241 -4.4566,3.7611 -2.7819,8.6286 -0.9794,10.5772 1.116,1.2443 2.2324,1.9397 3.6233,2.2236 1.3908,0.2739 2.7817,0.1372 4.4469,0 0.5584,0 0.97,-0.1372 1.3904,0 0.4211,0 0.8328,0.2739 1.2544,0.6954 0.6954,0.6954 0.1366,1.8025 -0.5589,2.3602 -1.2536,1.117 -2.223,1.3909 -4.1721,1.528l3.7516 4.5937z"/>
   <polygon class="fil0" points="160.078,90.8222 182.6143,87.7567 181.6351,81.0866 159.2454,84.1427 "/>
   <path class="fil0" d="M119.608 156.4635c-6.5327,2.2231 -6.1218,9.1769 -4.5931,13.9078 1.6747,4.7309 5.563,10.431 12.1058,8.2081 6.5323,-2.2241 6.1207,-9.1779 4.5838,-13.9078 -1.5286,-4.7309 -5.563,-10.431 -12.0964,-8.2081zm1.8119 4.8681l0 0c1.9397,-0.6954 3.3306,3.0556 4.1722,5.4258 0.8332,2.3602 1.9397,6.1212 0,6.8166 -1.9486,0.6954 -3.3394,-3.0655 -4.1722,-5.4257 -0.842,-2.3702 -1.9485,-6.1218 0,-6.8167z"/>
   <polygon class="fil0" points="66.063,178.2955 74.966,157.4334 67.5906,154.2405 64.251,158.5498 66.6212,159.6663 59.8041,175.6603 "/>
   <polygon class="fil0" points="109.3142,182.7514 106.9539,160.2151 99.0208,161.0566 98.1876,166.3358 100.8321,166.1991 102.6441,183.4468 "/>
   <path class="fil0" d="M85.8082 164.3872c2.2328,0.4211 1.9486,2.3702 1.6751,3.3395 -0.2843,0.9793 -0.8331,2.6445 -2.9193,2.2241 -1.9486,-0.4116 -2.0863,-2.0863 -1.8115,-3.0562 0.2744,-1.1164 0.9697,-2.9184 3.0556,-2.5073zm-8.6192 16.9739l0 0 6.5332 1.2532 3.339 -3.3395c2.3707,-2.6445 5.7013,-6.5428 6.5429,-10.0195 0.9697,-4.447 -1.1166,-8.6192 -6.2586,-9.7357 -5.2886,-1.1069 -9.324,1.537 -10.2932,6.2585 -0.6955,3.0656 0.5577,7.5115 4.4459,8.3447 0.9794,0.1466 1.6747,0.1466 2.3702,-0.1377l-6.6795 7.376z"/>
   <polygon class="fil1" points="127.2573,59.6668 123.0852,59.6668 120.9989,56.0524 118.9127,59.6668 114.8771,59.6668 116.8268,63.2806 114.8771,66.7578 118.9127,66.7578 120.9989,70.3717 123.0852,66.7578 127.1206,66.7578 125.1714,63.2806 "/>
   <path class="fil1" d="M98.0511 62.3108c4.4463,0.2744 7.6493,3.6149 8.0703,8.0609l-18.5013 0c0.2745,-4.4459 3.6138,-7.7865 8.0705,-8.0609l0 -8.6286 -5.563 0 0 -2.4974 5.563 0 0 -7.3749 2.4971 0 0 7.3749 5.5629 0 0 2.4974 -5.5629 0 0 8.6286 -0.1365 0z"/>
   <polygon class="fil1" points="62.1647,76.4934 83.1714,76.4934 83.1714,72.8796 62.1647,72.8796 "/>
   <polygon class="fil1" points="86.3664,76.4934 107.3656,76.4934 107.3656,72.8796 86.3664,72.8796 "/>
   <polygon class="fil1" points="110.4311,76.4934 131.5667,76.4934 131.5667,72.8796 110.4311,72.8796 "/>
   <polygon class="fil1" points="62.1647,100.1367 131.5667,100.1367 131.5667,96.3852 62.1647,96.3852 "/>
   <polygon class="fil1" points="62.1647,120.5777 80.8028,120.5777 80.8028,116.8261 62.1647,116.8261 "/>
   <polygon class="fil1" points="112.9286,120.5777 131.5667,120.5777 131.5667,116.8261 112.9286,116.8261 "/>
   <path class="fil1" d="M64.6721 79.4118c1.8114,-0.5577 4.731,-1.3909 6.9539,-0.1371 1.1164,0.6954 0.421,1.6652 0,2.645 -1.2542,0.8322 -2.0863,1.2532 -3.6138,1.2532 -1.391,0 -2.2241,-0.2843 -3.3401,-1.1164 -0.4211,-0.9699 -1.1164,-2.2231 0,-2.6446z"/>
   <path class="fil1" d="M74.5444 82.4775c0,0 -0.6955,-2.0863 0,-2.9284 0.8332,-0.9698 2.0863,-0.1372 3.2033,-0.1372 0.8323,0 1.2533,0.1372 2.0863,0 0,0 0.5577,2.0858 0,3.2034 -0.9797,1.6642 -5.2896,-0.1377 -5.2896,-0.1377z"/>
   <path class="fil1" d="M65.7881 84.701c-0.6949,0.8326 -0.9793,0.9693 -1.116,2.3602 0,1.3909 0.4211,2.2235 1.3909,2.2235 0.2744,0 0.5582,0 0.8322,0 0,-0.9698 0,-1.6652 0,-2.6351 0,-0.9793 -0.274,-1.8115 -1.107,-1.9486z"/>
   <path class="fil1" d="M89.0109 84.701c-0.1371,0.8326 -0.1371,1.5275 -0.1371,2.3602 0,0.8326 0,1.9491 0.8327,1.9491 1.5274,0.1371 1.3907,-2.223 1.3907,-3.34 0,-0.8322 -1.1163,-0.8322 -2.0862,-0.9693z"/>
   <path class="fil1" d="M88.041 80.1073c0,0.5583 0.8328,1.3904 1.2443,1.8125 0.8422,0.6954 1.537,0.5577 2.5073,0.5577 0.5584,0 1.2538,-0.1466 1.9493,-0.1466 1.2531,0 2.0861,-0.9698 2.0861,-2.2236 0,-1.107 -1.6751,-1.528 -2.7817,-1.528 -0.9792,0 -1.6747,0 -2.6445,0 -1.1165,0.1371 -2.3608,0.1371 -2.3608,1.528z"/>
   <path class="fil1" d="M97.9138 82.3308c0.4115,0.4211 0.8326,0.2843 1.3908,0.2843 0.6955,0 1.107,0 1.8026,0 0.9793,0 1.6746,0.1367 2.5068,-0.5587 0.6953,-0.5588 0.2743,-1.1165 0.2743,-2.0863 0,-0.8322 -1.8018,-1.2538 -3.0561,-1.2538 -1.1158,0 -1.9491,-0.1371 -2.6445,0.8327 -0.6953,0.8421 -0.2738,2.7818 -0.2738,2.7818z"/>
   <path class="fil1" d="M68.7075 85.8081c0,0.6954 -0.2842,1.537 -0.2842,2.2324 0,0.8331 1.8118,1.1069 2.644,1.1069 1.3909,0.1372 2.224,0.1372 3.6148,0.1372 1.1159,0 2.0858,-0.8326 2.0858,-1.9396 0,-0.8416 0.1466,-1.537 -0.2744,-2.0863 -0.6955,-0.8416 -1.5276,-0.8416 -2.6447,-0.8416 -1.8019,-0.2745 -4.5836,-0.4116 -5.1414,1.3909z"/>
   <path class="fil1" d="M92.9086 85.8081c-0.2839,0.8416 -0.1461,1.537 0.4117,2.3702 0.8326,1.1064 1.6746,1.1064 3.4764,1.1064 1.8125,0 4.4565,-0.8326 4.1728,-3.3305 -0.1373,-0.6954 -1.6648,-0.9793 -2.4974,-1.2532 -0.1467,0 -5.0146,-0.9793 -5.5634,1.107z"/>
   <path class="fil1" d="M102.3603 87.0612c0,0.9793 -0.2738,2.2235 0.9794,2.2235 1.1063,0 1.2441,-0.5487 1.2441,-1.528 0,-0.8327 0.9794,-3.0556 -0.4109,-3.1929 -0.5588,-0.1466 -0.9799,0.1372 -1.391,0.5488 -0.5588,0.5577 -0.4216,1.2532 -0.4216,1.9486z"/>
   <path class="fil1" d="M112.2332 80.8027c0,1.8125 1.5374,2.6445 4.4564,2.5074 1.6647,-0.1372 3.4771,0.1371 3.1929,-3.0656 0,-0.2744 0.2842,-0.6954 0,-0.8327 -2.0859,-1.528 -2.2237,0 -3.7512,0 -1.5281,-0.1371 -3.8981,-0.1371 -3.8981,1.3909z"/>
   <path class="fil1" d="M122.8109 80.2445c0,0.5582 0,0.8421 0,1.2532 0,1.1175 0.6953,2.5079 1.8019,2.5079 0.4216,0 1.1169,-0.1372 1.6748,-0.1372 1.6652,0 2.635,-1.3909 2.635,-3.0656 0,-0.8326 -1.1065,-1.3909 -1.9396,-1.6647l-2.5068 0.2739 -1.3909 0.1372c-0.2744,0.1466 -0.2744,0.4211 -0.2744,0.6954z"/>
   <path class="fil1" d="M114.045 84.5638c-1.1163,0.9698 -1.2541,1.2443 -1.2541,2.7813 0,0.2744 0.1377,1.5285 0.1377,1.6652 0.2843,0 0.6952,0.1371 0.9792,0.1371 0.9693,0 1.2538,-1.2537 1.2538,-2.2235 0,-0.9698 -0.2844,-1.8114 -1.1166,-2.3602z"/>
   <path class="fil1" d="M116.6896 86.924c0,0.275 0.4116,0.9698 0.9692,1.5281 0.9794,0.8326 2.0863,0.6953 3.2035,0.6953 1.2531,0 3.0551,-0.5582 3.0551,-2.3601 0.1377,-1.3909 -2.6441,-2.0863 -3.8884,-2.0863 -1.2531,-0.1372 -3.6232,0.4116 -3.3394,2.223z"/>
   <path class="fil1" d="M122.6642 92.0664c0,1.537 1.6747,2.2324 3.3394,2.2324 0.6954,0 0.9793,-0.5577 1.6746,-0.8416 0.5489,-0.2744 1.1065,-0.6954 1.1065,-1.2443 0,-1.1164 -1.1065,-1.6752 -2.2229,-1.6752 -1.6652,-0.1366 -3.8977,-0.1366 -3.8977,1.5286z"/>
   <path class="fil1" d="M118.7759 94.2989c0.9692,-0.6954 1.9486,-2.2324 1.1065,-2.9279 -0.5488,-0.4111 -1.5281,0 -1.9398,0 -0.6953,0 -1.1158,-0.4111 -1.9486,-0.4111 -1.1169,0 -2.3702,-0.4221 -2.9188,0.5577 -0.2843,0.4111 -0.2843,0.8327 -0.2843,0.9699 0,0.8321 0,1.2537 0.4221,1.9491 0.832,0.9693 2.0857,0 3.3388,0 0.8333,0.1366 1.5286,0.4116 2.2242,-0.1377z"/>
   <path class="fil1" d="M103.3396 94.2989c-0.8423,0.1377 -1.3909,0.2744 -2.0864,0.2744 -1.2531,0 -1.9486,-0.2744 -2.9279,-0.8321 -0.2743,-0.1377 -0.2743,-0.4216 -0.2743,-0.9793 0,-1.3909 2.5067,-1.802 3.751,-1.802 1.2538,0 2.233,0.4111 2.233,1.6642 0,0.6954 -0.2845,1.117 -0.6954,1.6747z"/>
   <path class="fil1" d="M93.0463 91.2333c-0.6953,0 -1.2538,0 -2.0863,0 -0.9792,0 -2.7813,0 -2.7813,1.117 0,1.3909 1.2532,1.3909 2.6435,1.3909 0.5493,0 2.0863,0 2.6352,0 1.2537,0 2.3706,-0.2839 2.3706,-1.5281 0,-0.5582 -0.6953,-0.9798 -1.2542,-0.9798 -0.832,0.1377 -0.9697,0 -1.5275,0z"/>
   <path class="fil1" d="M77.6101 94.5733c-1.1164,0 -1.812,0 -2.9279,0 0,-0.4205 -0.8333,-0.6948 -0.8333,-1.1159 0,-0.4116 0.4216,-0.8332 0.6955,-1.2443 1.3908,-1.5375 3.34,0.1372 5.2896,0.1372 0,0.2739 0,0.8327 0,1.107 0,0.4211 -0.5587,0.6954 -0.8331,0.8416 -0.6955,0.2744 -0.5578,0.2744 -1.3909,0.2744z"/>
   <path class="fil1" d="M70.3719 94.2989c-2.3597,0 -2.6435,0.2744 -4.8676,0 0,-0.1461 -0.6954,-1.1159 -0.6954,-1.537 0,-1.3909 0.8332,-1.3909 2.2241,-1.3909 1.6746,0 4.5931,-0.9698 4.5931,0.8421 -0.1366,0.8327 -0.5587,2.0858 -1.2542,2.0858z"/>
   <path class="fil1" d="M64.5349 104.1721c0.1372,1.6647 2.3603,0.9693 4.0349,0.9693 1.2443,0 2.0863,0.4216 3.3306,0 0.9792,-0.2739 1.1165,-1.2532 1.1165,-2.2236 0,-0.4205 -0.8327,-0.6948 -1.2543,-0.8321 -1.3908,-0.1377 -1.6642,0.1372 -2.9185,-0.5582 -1.2536,-0.8327 -4.4464,0.5582 -4.3093,2.6445z"/>
   <path class="fil1" d="M76.073 102.0858c-1.1069,0.8321 0,2.9184 1.5371,2.9184 0.6953,0 2.224,0 2.919,0 0.4115,0 0.8325,0 1.2536,0 0.8328,0 1.5281,0 2.3603,0 1.2541,0 2.645,-0.5582 2.5073,-2.223 -0.1466,-0.9793 -1.5376,-0.8332 -2.5073,-0.8332 -1.6652,0 -2.6446,0.1377 -4.3089,0.1377 -0.5587,0 -1.1174,0 -1.6751,0 -0.9699,0 -1.5281,-0.5582 -2.0859,0z"/>
   <path class="fil1" d="M64.5349 107.5116c-0.9792,0.5487 0.1372,1.8019 0.1372,2.7812 0,1.107 0.8322,0.9699 1.3909,0.9699 0.8322,0 1.6653,-0.4206 1.6653,-1.2538 0,-1.3909 -0.5493,-2.7817 -2.0863,-2.7817 -0.2744,0 -0.6954,0 -1.1071,0.2843z"/>
   <path class="fil1" d="M79.834 109.0396c0,0.8327 0.695,1.3909 1.5275,1.3909 1.2539,0 2.0863,-1.3909 2.2231,-2.9189 -0.6954,-0.6954 -1.802,-0.1467 -2.9184,-0.1467 -0.6955,0.1467 -0.8322,0.9793 -0.8322,1.6747z"/>
   <path class="fil1" d="M74.5444 113.77c0,0.8332 0.6954,1.2443 1.5285,1.2443 1.116,0 2.507,0.421 3.4767,-0.4111 0.5578,-0.4216 0.5578,-1.117 0.5578,-1.9496 0,-0.2745 0,-0.4206 -0.4112,-0.5583 -0.1466,0 -1.1163,-0.1371 -1.2532,-0.1371 -1.9495,-0.1367 -3.8987,-0.2745 -3.8987,1.8119z"/>
   <path class="fil1" d="M73.438 106.8162c-0.8422,0 -1.1166,0.5487 -1.9486,0.5487 -0.9798,0 -2.5079,-0.2744 -2.3707,1.3909 0.1466,1.6747 1.1163,2.5069 3.8982,2.5069 2.3607,0 4.1721,-0.8322 4.1721,-2.7813 0,-1.5275 -2.223,-1.812 -3.751,-1.6652z"/>
   <path class="fil1" d="M106.2585 102.0858c1.9486,-1.9491 7.2278,0 11.9588,0 0.8326,0 1.9495,0.9693 1.9495,1.8025 0,1.1159 -1.8124,1.2532 -2.9194,1.2532 -3.0655,0 -5.4252,0 -8.4908,0 -1.6652,0 -2.9196,-0.4116 -2.498,-2.644 0.1372,-0.1377 -0.1371,-0.2744 0,-0.4116z"/>
   <path class="fil1" d="M122.8109 102.0858c0,0.6954 0,1.107 0,1.8025 0,0.6949 -0.4211,1.2532 1.2443,1.1159 0.9792,0 1.5369,0 2.3701,0 0.5577,0 0.8321,0 1.3908,0 0.9688,0 1.1065,-1.3909 1.1065,-2.3607 0,-0.4205 -0.5487,-0.5577 -0.9697,-0.5577 -0.8322,-0.1377 -1.2538,-0.2839 -2.2232,-0.2839 -1.1169,0 -1.8123,0.2839 -2.9188,0.2839z"/>
   <path class="fil1" d="M110.7051 108.2071c0.2839,1.6652 1.5281,2.9189 3.2028,2.9189 1.3909,0 1.8024,-1.6747 2.2235,-2.9189 0,0 -1.5281,-1.1165 -2.645,-1.1165 -1.1065,0 -2.7812,1.1165 -2.7812,1.1165z"/>
   <path class="fil1" d="M118.2172 107.3649c-0.5584,0.4211 -0.6955,0.8422 -0.6955,1.5376 0,0.6954 0,1.528 0.5587,2.2235 1.1065,1.3909 2.6441,0 4.4461,0 1.2541,0 1.8125,-1.117 1.6747,-2.9189 -0.1461,-0.9798 -1.537,-0.8422 -2.507,-0.8422 -0.5587,0 -0.9697,0 -1.5275,0 0.1367,0 -1.2541,-0.411 -1.9495,0z"/>
   <path class="fil1" d="M126.6991 108.3442c0,0.6954 0,0.9693 0,1.6647 0,0.6954 0.9792,1.117 1.8125,1.117 0.2733,0 0.411,0 0.6953,0 0,0 0.9689,-1.528 0.5577,-2.5079 -0.2842,-0.6954 -1.1164,-1.2532 -1.3908,-1.2532 -0.8421,0 -1.2532,0.5577 -1.6747,0.9793z"/>
   <path class="fil1" d="M128.7848 112.6536c-1.1065,0 -2.0857,0 -3.1928,0 -1.3908,0 -3.3394,-0.1367 -3.3394,1.1164 0,0.5488 0.5582,1.1065 1.1069,1.3909 0.5578,0.2744 0.5578,0.4111 1.2532,0.4111 0.8331,0 1.8125,0.1377 2.5079,-0.1367 0.5576,-0.1366 1.2532,-0.2744 1.6641,-0.6954 0.4221,-0.421 0.1377,-1.3909 0,-2.0862z"/>
   <path class="fil1" d="M122.8109 122.5263c-0.6955,0.6949 0,1.9491 0.5487,2.6445 0.5578,0.6954 1.3909,0.2745 2.2324,0.2745 0.5493,0 0.9699,0.1466 1.5286,0.1466 1.8019,0 1.6641,-1.6752 1.6641,-2.9284 0,-0.2744 -4.4458,-1.5281 -5.9739,-0.1372z"/>
   <path class="fil1" d="M116.1313 125.4453c-0.9697,0 -1.5281,-0.1377 -2.0863,-0.8332 -0.2744,-0.4111 -0.6953,-1.2532 -0.6953,-1.6642 0,-0.1377 0,-0.2843 0,-0.5587 0.1366,0 0.2743,-0.1367 0.421,-0.1367 1.2443,0 1.8019,-0.1377 3.0562,-0.1377 0.832,0 1.6647,0.4116 2.5068,0.4116 0.4115,0 1.1065,0.6949 1.1065,1.117 0,2.0858 -1.9486,1.9486 -4.3089,1.802z"/>
   <path class="fil1" d="M114.045 126.9823c-0.5587,0.8332 -0.9697,1.5286 -0.9697,2.4979 0,0.6954 -0.2843,1.3908 1.9396,1.1169 0.5576,-0.1376 1.3909,0.2739 1.3909,-0.9798 0,-1.1064 -0.9698,-2.7812 -2.3608,-2.6351z"/>
   <path class="fil1" d="M117.6588 128.9225c0,0.9792 0.2839,1.9485 1.9492,1.8114 0.6954,0 2.3608,0 2.3608,0 0,0 1.2531,0 1.9486,-0.2744 0.5587,-0.2839 1.2541,-0.6954 1.2541,-1.3909 0,-0.6954 -0.6953,-0.9793 -1.1163,-1.537 -0.4117,-0.6954 -2.3609,-0.8332 -3.6149,-0.8332 -1.3904,0.1377 -2.7814,0.9793 -2.7814,2.2241z"/>
   <path class="fil1" d="M126.9829 127.12c0,0 -1.1164,1.6647 -0.6953,2.644 0.2744,0.5487 1.2442,0.9698 1.5284,0.9698 0.6955,0 1.3909,-0.4211 1.3909,-0.9698 0.1367,-2.3702 -0.8331,-2.9279 -2.224,-2.644z"/>
   <path class="fil1" d="M113.213 133.79c0,0.1466 0,0.2839 0,0.4211 0,0.6954 -0.1377,1.1159 0.1366,1.6652 0.6953,1.2532 2.2229,0.8416 3.6138,0.8416 1.2538,0 3.0655,0.4116 3.0655,-0.8416 0,-0.8332 0.1377,-1.5286 -0.2839,-2.2241 -0.5582,-0.8321 -1.6647,-0.4111 -2.6439,-0.5577 -2.3607,-0.2744 -2.498,0.1466 -3.8882,0.6954z"/>
   <path class="fil1" d="M122.8109 133.0946c-0.1466,0.9793 -0.6955,1.3909 -0.6955,2.3702 0,0.9693 0.9699,1.5275 2.3608,1.2532 0.9697,-0.1461 1.6652,0.2744 2.5068,-0.2839 0.9699,-0.8321 1.107,-1.802 1.3909,-3.0556 -0.421,-0.1372 -0.9794,-0.4216 -1.3909,-0.4216 -0.421,0 -0.6953,0.1377 -1.1164,0.1377 -1.2538,0 -1.8114,-0.1377 -3.0556,0z"/>
   <path class="fil1" d="M119.8825 138.5204c-1.2443,0.5582 -2.2237,0.8326 -2.2237,2.0857 0,0.9799 1.2539,0.8332 2.2237,0.8332 1.5374,0 3.4771,-0.8332 3.0656,-2.4973 -0.1372,-0.5588 -0.6954,-0.6954 -1.2539,-0.6954 -0.832,0 -1.1163,0.1366 -1.8118,0.2739z"/>
   <path class="fil1" d="M113.0753 140.3329c0,1.2532 0,2.7812 1.5279,2.7812 0.9693,0.1372 1.5281,-1.2537 1.5281,-2.3702 0,-0.5487 -0.275,-0.8332 -0.275,-1.3909 -0.4204,-0.5487 -0.9792,-1.3909 -1.6745,-0.9698 -0.6955,0.4211 -1.1065,1.1165 -1.1065,1.9497z"/>
   <path class="fil1" d="M71.626 138.3832c-1.1164,0 -2.5073,0.1372 -2.5073,1.2543 0,1.5275 1.6751,2.0857 4.0348,1.8019 0.8331,0 2.0863,0.4211 2.0863,-0.6954 0.1377,-1.6652 -2.0863,-2.3607 -3.6138,-2.3607z"/>
   <path class="fil1" d="M77.4633 132.2614c-0.5487,0.4221 -2.0857,0.6954 -2.7812,0.8332 -0.6955,0.1466 -0.9699,0.6954 -0.9699,1.5375 0,0.6949 0,1.3904 0,1.9397 0.5582,0.5577 1.2538,0.2839 1.9492,0.2839 0.6953,0 1.2532,0.1366 2.0862,0.1366 0.8323,0 1.5276,-0.4205 1.6642,-1.2537 0.5587,-1.6647 0,-2.7818 -1.9486,-3.4772z"/>
   <path class="fil1" d="M66.8952 136.7179c-0.6955,0 -1.5275,0.2744 -1.802,-0.4211 -0.4211,-0.8321 -0.2843,-1.5275 -0.2843,-2.5068 0,-0.2744 0,-0.4116 0,-0.6954 2.2241,0 3.4771,0 5.8473,0 0.6955,0 1.5281,0.5577 1.5281,1.2532 0,1.2543 -0.8326,2.5079 -2.2235,2.5079 -1.1166,0 -1.9486,-0.1377 -3.0656,-0.1377z"/>
   <path class="fil1" d="M71.3517 127.12c-0.8421,0 -1.3909,1.107 -1.3909,1.9486 0,0.6954 -0.4211,1.3909 0.1376,1.8024 2.3598,1.8125 9.0403,0.1372 9.0403,0.1372 0.2733,-0.6954 0.5576,-1.3909 0.5576,-2.2235 0,-1.5276 -1.9486,-1.6647 -3.4772,-1.6647 -0.5576,0 -3.8977,0 -4.8674,0z"/>
   <path class="fil1" d="M64.5349 130.871c0,-0.8326 -0.6953,-1.6646 -0.6953,-2.4978 0,-0.6954 0.9693,-1.116 1.6647,-1.2532 2.0863,-0.2839 2.7817,2.7817 1.5286,3.751 -0.8333,0.5583 -2.498,0 -2.498,0z"/>
   <path class="fil1" d="M67.5906 125.5919c-1.9486,0 -2.9185,-0.8421 -2.9185,-2.3707 0,-0.8321 0.5582,-1.5275 1.9491,-1.3904 1.391,0.1372 2.223,0 3.6138,0 0.97,0 1.391,1.2538 1.391,2.2236 -0.1366,1.3909 -1.391,1.5375 -4.0354,1.5375z"/>
   <path class="fil1" d="M78.0216 121.6937c-0.5582,0 -0.8326,0 -1.3908,0 -1.8025,0 -2.7819,0 -2.7819,1.1164 0,0.5488 0,1.2443 0.4216,1.802 1.1071,0 1.5276,0.9798 2.6441,0.9798 0.9698,0 2.3607,-0.5582 2.2241,-2.2329 0,-0.8327 -0.4221,-1.6652 -1.1171,-1.6652z"/>
   <path class="fil1" d="M78.1589 138.2465c-0.8328,0.1366 -0.6955,1.5275 -0.8328,2.3596 0,1.8125 -0.1371,2.3707 0.8328,2.3707 0.4211,0 1.2531,-0.2843 1.2531,-1.1164 0,-0.8322 0.4221,-1.1165 0.4221,-1.9497 0.1366,-0.6948 -0.5587,-1.5275 -1.6751,-1.6641z"/>
   <path class="fil1" d="M128.0899 88.4521c-0.5582,0 -0.9693,0 -1.528,0 -0.6954,0 -0.8323,-0.9693 -0.8323,-1.6647 0,-0.5588 -0.2839,-0.9793 0,-1.3909 0.5579,-1.117 3.3395,0 3.3395,0 0,0.5577 0,0.8321 0,1.3909 -0.1466,0.5577 -0.6953,1.2532 -0.9792,1.6647z"/>
   <polygon class="fil1" points="78.8543,59.6668 74.6822,59.6668 72.5958,56.0524 70.6561,59.6668 66.4835,59.6668 68.5698,63.2806 66.4835,66.7578 70.6561,66.7578 72.7425,70.3717 74.8283,66.7578 78.8543,66.7578 76.768,63.2806 "/>
   <path class="fil1" d="M89.4319 116.4051l0 30.3227c1.802,0.9698 3.6144,1.2543 6.2586,1.2543 0,-12.5174 0,-38.3842 0,-38.3842 -3.4772,0 -6.2586,3.0556 -6.2586,6.8072z"/>
   <path class="fil1" d="M104.3094 116.4051c0,-3.8883 -2.6444,-6.9539 -6.1218,-6.9539 0,0 0,26.0135 0,38.3932 2.2241,0 4.3098,-0.1467 6.1218,-1.2532l0 -30.1861z"/>
   <path class="fil1" d="M86.9246 145.612l0 -29.2068c0,-5.2792 4.3093,-9.4513 9.8721,-9.4513 5.5635,0 9.8733,4.1721 9.8733,9.4513l0 29.2068c1.1166,-0.275 2.0864,-0.6954 3.0657,-1.3909l0 -28.0904c0,-6.9538 -5.5629,-12.3801 -12.9391,-12.3801 -7.2276,0 -12.9283,5.4263 -12.9283,12.3801l0 28.0904c1.1069,0.6954 2.0862,1.1159 3.0561,1.3909z"/>
   <path class="fil1" d="M78.0216 87.6194c0,0.2744 0.4216,0.9698 0.4216,1.2542 0,0.1367 0.5578,0 0.6955,0 0.411,0 0.832,-0.4215 0.832,-0.8331 0,-0.9793 0.8322,-1.9486 0.2746,-3.3395 -0.2746,-0.6954 -1.3909,-0.4216 -2.0863,0 -0.2745,0.9693 -0.1373,1.9486 -0.1373,2.9184z"/>
   <path class="fil1" d="M63.8395 114.6032c0,0.8321 2.2235,0.6954 3.1934,0.6954 1.6746,0.1366 1.3904,-0.4221 3.2022,-0.4221 0.4211,0 2.0863,0.1377 2.0863,-0.4111 0,-1.2532 -0.832,-1.8119 -2.7817,-1.9486 -4.0354,0 -4.8676,0.5577 -5.7002,2.0863z"/>
   <path class="fil1" d="M120.5779 113.6234c-0.6954,-1.2443 -1.9397,-0.9698 -3.1929,-0.9698 -0.6954,0 -1.5287,0.1371 -2.2235,0.1371 -0.6955,0 -1.391,0.4216 -1.391,0.9793 0,0.5488 0.4112,0.8332 0.9699,1.1065 0.5582,0.4221 5.6997,0.1377 5.8374,-1.2532z"/>
  </g>
 </g>
</svg>
