<?xml version="1.0" encoding="UTF-8" standalone="no"?>
<svg
   clip-rule="evenodd"
   fill-rule="evenodd"
   viewBox="0 0 200.00026 234.40601"
   version="1.1"
   id="svg35"
   sodipodi:docname="Stoke.svg"
   width="200.00026"
   height="234.40601"
   xmlns:inkscape="http://www.inkscape.org/namespaces/inkscape"
   xmlns:sodipodi="http://sodipodi.sourceforge.net/DTD/sodipodi-0.dtd"
   xmlns="http://www.w3.org/2000/svg"
   xmlns:svg="http://www.w3.org/2000/svg">
  <defs
     id="defs35" />
  <sodipodi:namedview
     id="namedview35"
     pagecolor="#ffffff"
     bordercolor="#000000"
     borderopacity="0.25"
     inkscape:showpageshadow="2"
     inkscape:pageopacity="0.0"
     inkscape:pagecheckerboard="0"
     inkscape:deskcolor="#d1d1d1" />
  <path
     d="m 196.55222,160.176 -0.07,-0.07 -9.661,-8.455 -2.059,-1.879 c -1.954,-1.953 -4.955,-4.34 -10.121,-4.172 -0.852,-0.014 -1.7,0.073 -2.54,0.228 0.887,-4.101 1.549,-8.433 1.951,-13.002 0.28,-3.164 0.428,-6.301 0.442,-9.323 10e-4,-0.062 0.006,-1.204 0.006,-1.204 l -0.066,-2.474 0.008,0.206 V 0 H 25.441216 v 120.031 l 0.007,-0.209 -0.065,2.476 0.005,1.205 c 0.014,3.025 0.163,6.161 0.442,9.323 0.401,4.559 1.061,8.884 1.945,12.981 -0.801,-0.142 -1.607,-0.22 -2.42,-0.207 -5.165,-0.168 -8.165,2.22 -10.118,4.172 l -2.059,1.879 -9.6609996,8.455 -0.07,0.07 c -3.33600001,3.328 -3.66700001,6.57 -3.35500001,8.705 0.885,6.07 8.60100001,10.559 9.37700001,10.978 l 4.5259996,-3.55 c 3.195,-1.243 5.044,0.506 5.044,0.506 0.315,0.185 1.393,1.064 2.064,4.608 l 0.388,2.049 c -2.512,2.175 -4.297,3.717 -4.297,3.717 l 1.525,2.225 c 4.447,6.487 6.164,8.488 9.058,11.746 19.317,21.75 44.194,33.246 71.94,33.246 h 0.446004 c 27.749,0 52.626,-11.495 71.942,-33.247 2.893,-3.251 4.61,-5.252 9.059,-11.745 l 1.525,-2.225 c 0,0 -1.736,-1.503 -4.197,-3.63 l 0.405,-2.136 c 0.67,-3.544 1.749,-4.423 2.062,-4.608 0,0 1.85,-1.749 5.045,-0.506 l 4.528,3.55 c 0.776,-0.419 8.492,-4.908 9.376,-10.978 0.312,-2.135 -0.021,-5.377 -3.356,-8.705 z"
     fill="#ffffff"
     id="path1" />
  <path
     d="m 184.93422,153.318 c 0,0 4.895,10.471 -9.939,11.572 l 15.285,11.974 c 0,0 12.256,-7.161 4.545,-14.854 z"
     fill="#1b449c"
     id="path2" />
  <path
     d="m 181.86922,160.12 c 2.708,-2.849 0.111,-7.648 0.111,-7.648 0,0 -2.351,-4.41 -7.089,-4.193 -1.16,-0.026 -2.334,0.183 -3.498,0.565 -0.978,3.857 -2.166,7.493 -3.585,10.862 l 0.008,0.002 c -0.199,0.497 -1.865,4.559 -5.199,10.109 0.397,0.345 1.013,0.878 1.782,1.545 l 11.487,9.918 c 1.42,-9.733 6.879,-7.355 6.879,-7.355 l -12.888,-10.264 c 9.809,-0.374 11.992,-3.541 11.992,-3.541 z"
     fill="#e03a3e"
     id="path3" />
  <path
     d="m 14.947216,153.436 c 0,0 -4.897,10.472 9.937,11.572 L 9.5992164,176.982 c 0,0 -12.253,-7.161 -4.541,-14.854 z"
     fill="#1b449c"
     id="path4" />
  <path
     d="m 18.011216,160.237 c -2.711,-2.848 -0.109,-7.648 -0.109,-7.648 0,0 2.35,-4.407 7.087,-4.192 1.161,-0.026 2.334,0.183 3.499,0.565 0.978,3.855 2.166,7.494 3.586,10.862 l -0.009,0.004 c 0.197,0.496 1.864,4.558 5.199,10.107 -0.397,0.347 -1.014,0.878 -1.784,1.545 l -11.485,9.92 c -1.421,-9.734 -6.88,-7.356 -6.88,-7.356 l 12.888,-10.264 c -9.808,-0.375 -11.992,-3.543 -11.992,-3.543 z"
     fill="#e03a3e"
     id="path5" />
  <path
     d="m 158.69522,170.416 c 4.196,-6.562 6.192,-11.514 6.317,-11.829 l -0.062,0.147 c 3.172,-7.457 5.222,-16.262 6.094,-26.173 0.27,-3.06 0.415,-6.113 0.43,-9.072 0.004,-0.42 0.006,-0.817 0.006,-1.19 0,-0.861 -0.016,-1.606 -0.058,-2.268 V 3.02 H 28.460216 v 117.011 c -0.045,0.662 -0.058,1.407 -0.058,2.268 0,0.373 0.002,0.771 0.005,1.19 0.012,2.958 0.16,6.012 0.429,9.072 0.869,9.86 2.904,18.625 6.046,26.058 0.249,0.626 2.234,5.479 6.269,11.83 l -19.942,17.257 c 4.433,6.469 6.088,8.371 8.825,11.449 18.728,21.089 42.826,32.233 69.682,32.233 h 0.446004 c 26.862,0 50.957,-11.145 69.683,-32.233 2.739,-3.078 4.395,-4.98 8.827,-11.449 z"
     fill="#1b449c"
     id="path6" />
  <path
     d="M 164.86322,9.578 H 35.017216 v 110.561 c 0,0 -1.048,19.577 5.946,36.029 0,0 16.631,42.438 58.753,42.438 h 0.224 c 42.122004,0 58.977004,-42.438 58.977004,-42.438 6.993,-16.452 5.946,-36.029 5.946,-36.029 z"
     fill="#ffffff"
     id="path7" />
  <g
     fill="#e03a3e"
     id="g16"
     transform="translate(-179.99978,-82.797)">
    <path
       d="m 267.899,155.224 h 23.959 v 93.687 h -23.959 z"
       id="path8" />
    <path
       d="m 248.218,119.811 v -15.787 c -3.25,0.171 -6.249,0.933 -9.168,2.25 l 1.878,-5.853 h 23.248 l -2.502,5.195 c -1.999,-1.005 -4.207,-1.525 -6.874,-1.592 v 15.787 c 0,2.494 0.333,4.708 1.333,6.823 h -9.249 c 0.999,-2.115 1.334,-4.329 1.334,-6.823 z"
       id="path9" />
    <path
       d="m 293.023,119.811 v -12.567 c 0,-2.494 -0.333,-4.71 -1.331,-6.823 h 9.247 c -0.999,2.113 -1.334,4.328 -1.334,6.823 v 5.053 l 8,-9.07 c 0.793,-0.901 1.209,-1.698 1.209,-2.495 0,-0.102 -0.041,-0.209 -0.041,-0.311 h 10.333 c -2.457,1.524 -4.373,2.908 -5.625,4.26 l -6.874,7.444 9.331,11.009 c 0.876,1.039 2.085,2.183 3.624,3.5 h -10.329 c 0.04,-0.314 0.083,-0.625 0.083,-0.901 0,-1.041 -0.462,-1.874 -1.293,-2.874 l -8.418,-10.111 v 7.063 c 0,2.494 0.336,4.707 1.334,6.823 h -9.247 c 0.998,-2.115 1.331,-4.329 1.331,-6.823 z"
       id="path10" />
    <path
       d="m 322.103,119.811 v -12.567 c 0,-2.494 -0.331,-4.71 -1.332,-6.823 h 17.875 l -2.957,5.125 c -1.877,-0.728 -4.168,-1.108 -7.001,-1.177 v 7.237 h 9.043 l -3.377,4.742 c -1.29,-0.796 -3,-1.14 -5.083,-1.14 -0.208,-0.001 -0.375,0 -0.583,0 v 7.513 c 0.874,0.035 1.751,0.07 2.585,0.07 3.749,0 6.876,-0.417 9.497,-1.387 l -2.497,5.23 h -17.501 c 1,-2.115 1.331,-4.329 1.331,-6.823 z"
       id="path11" />
    <g
       stroke="#e03a3e"
       stroke-width="0.36"
       id="g15">
      <path
         d="m 260.311,135.129 c -3.587,0 -6.131,2.372 -6.131,6.101 0,3.773 2.65,6.191 6.612,6.191 2.223,0 3.884,-0.736 5.381,-2.349 l -0.587,3.985 c -1.901,0.712 -3.91,1.08 -6.077,1.08 -2.411,0 -4.472,-0.552 -6.185,-1.682 -2.489,-1.633 -3.723,-3.842 -3.723,-6.603 0,-2.901 1.368,-5.435 3.83,-7.182 2.167,-1.52 4.792,-2.327 7.71,-2.327 1.446,0 3.025,0.231 4.685,0.691 v 4.351 c -1.739,-1.494 -3.56,-2.256 -5.515,-2.256 z"
         id="path12" />
      <path
         d="m 269.502,145.397 v -8.357 c 0,-1.659 -0.213,-3.13 -0.855,-4.536 h 5.942 c -0.641,1.406 -0.856,2.878 -0.856,4.536 v 8.357 c 0,1.655 0.215,3.13 0.856,4.534 h -5.941 c 0.641,-1.404 0.854,-2.878 0.854,-4.534 z"
         id="path13" />
      <path
         d="m 282.034,145.397 v -10.499 c -2.09,0.117 -4.018,0.621 -5.893,1.498 l 1.207,-3.892 h 14.94 l -1.607,3.453 c -1.284,-0.668 -2.705,-1.011 -4.418,-1.059 v 10.499 c 0,1.655 0.214,3.13 0.854,4.534 h -5.941 c 0.643,-1.404 0.858,-2.878 0.858,-4.534 z"
         id="path14" />
      <path
         d="m 305.357,149.931 h -5.943 c 0.641,-1.404 0.856,-2.878 0.856,-4.534 v -3.616 l -4.473,-6.376 c -0.723,-1.011 -1.526,-1.979 -2.408,-2.901 h 5.917 c -0.029,0.14 -0.029,0.277 -0.029,0.393 0,0.437 0.108,0.828 0.295,1.106 l 3.027,4.487 2.518,-4.166 c 0.24,-0.414 0.374,-0.851 0.374,-1.29 0,-0.183 -0.028,-0.344 -0.053,-0.53 h 5.407 c -1.019,0.898 -1.874,1.89 -2.597,2.969 l -3.75,5.597 v 4.327 c 0,1.655 0.215,3.13 0.859,4.534 z"
         id="path15" />
    </g>
    <path
       d="m 276.267,103.379 c -4.237,0 -6.198,4.909 -6.198,10.058 0,5.148 1.961,10.057 6.198,10.057 4.235,0 6.197,-4.909 6.197,-10.057 0,-5.149 -1.962,-10.058 -6.197,-10.058 z m 13.677,10.186 c 0,8.65 -6.113,13.326 -13.655,13.326 -7.542,0 -13.657,-4.426 -13.657,-13.326 0,-7.362 6.115,-13.329 13.657,-13.329 7.542,0 13.655,5.967 13.655,13.329 z"
       id="path16" />
  </g>
  <path
     d="m 89.622216,185.189 c 0,-2.999 0.67,-4.495 2.118,-4.495 1.424,0 2.122,1.496 2.122,4.495 0,2.967 -0.75,4.467 -2.122,4.467 -1.521,0 -2.118,-1.44 -2.118,-4.467 z m 4.665,-5.505 c 1.919,-0.612 2.919,-2.17 2.919,-4.314 0,-3.085 -1.873,-4.798 -5.291,-4.798 -3.569,0 -5.664,1.927 -5.664,4.798 0,2.173 1.047,3.732 2.944,4.285 v 0.213 c -2.396,0.642 -3.618,2.539 -3.618,5.503 0,3.67 2.219,5.261 6.163,6.025 3.96,0.769 6.164,-1.128 6.164,-4.857 0,-2.692 -1.299,-6.09 -3.617,-6.671 z m -4.543,-4.036 c 0,-2.295 0.674,-3.488 1.997,-3.488 1.424,0 1.971,1.101 1.971,3.489 0,2.321 -0.649,3.453 -1.971,3.453 -1.348,0 -1.997,-1.132 -1.997,-3.454 z"
     fill="#1b449c"
     id="path17" />
  <path
     d="m 89.622216,185.189 c 0,-2.999 0.67,-4.495 2.118,-4.495 1.424,0 2.122,1.496 2.122,4.495 0,2.967 -0.75,4.467 -2.122,4.467 -1.521,0 -2.118,-1.44 -2.118,-4.467 z m 4.665,-5.505 c 1.919,-0.612 2.919,-2.17 2.919,-4.314 0,-3.085 -1.873,-4.798 -5.291,-4.798 -3.569,0 -5.664,1.927 -5.664,4.798 0,2.173 1.047,3.732 2.944,4.285 v 0.213 c -2.396,0.642 -3.618,2.539 -3.618,5.503 0,3.67 2.219,5.261 6.163,6.025 3.96,0.769 6.164,-1.128 6.164,-4.857 0,-2.692 -1.299,-6.09 -3.617,-6.671 z m -4.543,-4.036 c 0,-2.295 0.674,-3.488 1.997,-3.488 1.424,0 1.971,1.101 1.971,3.489 0,2.321 -0.649,3.453 -1.971,3.453 -1.348,0 -1.997,-1.132 -1.997,-3.454 z"
     fill="none"
     stroke="#1b449c"
     stroke-width="0.41"
     id="path18" />
  <path
     d="m 103.94822,180.496 v -0.093 c 0,-5.004 1.039,-7.911 3.307,-7.911 1.074,0 1.897,0.591 2.646,1.812 l 0.15,-0.062 c 0.051,-0.938 0.176,-1.907 0.348,-2.971 -1.021,-0.47 -3.131,-0.719 -4.179,-0.719 -4.94,0 -6.615004,5.633 -6.615004,13.296 0,5.848 2.214004,8.683 6.339004,8.032 3.747,-0.589 6.04,-2.688 6.04,-7.16 0,-3.658 -1.796,-5.818 -4.617,-5.818 -1.523,-10e-4 -2.77,0.626 -3.419,1.594 z m 3.866,5.036 c 0,3.159 -0.621,4.722 -1.87,4.722 -1.296,0 -1.946,-1.595 -1.946,-4.847 0,-2.877 0.625,-4.285 1.897,-4.285 1.396,0 1.919,1.407 1.919,4.41 z"
     fill="#1b449c"
     id="path19" />
  <path
     d="m 103.94822,180.496 v -0.093 c 0,-5.004 1.039,-7.911 3.307,-7.911 1.074,0 1.897,0.591 2.646,1.812 l 0.15,-0.062 c 0.051,-0.938 0.176,-1.907 0.348,-2.971 -1.021,-0.47 -3.131,-0.719 -4.179,-0.719 -4.94,0 -6.615004,5.633 -6.615004,13.296 0,5.848 2.214004,8.683 6.339004,8.032 3.747,-0.589 6.04,-2.688 6.04,-7.16 0,-3.658 -1.796,-5.818 -4.617,-5.818 -1.523,-10e-4 -2.77,0.626 -3.419,1.594 z m 3.866,5.036 c 0,3.159 -0.621,4.722 -1.87,4.722 -1.296,0 -1.946,-1.595 -1.946,-4.847 0,-2.877 0.625,-4.285 1.897,-4.285 1.396,0 1.919,1.407 1.919,4.41 z"
     fill="none"
     stroke="#1b449c"
     stroke-width="0.41"
     id="path20" />
  <path
     d="m 114.50422,186.328 c 0.671,1.268 2.414,1.378 2.414,1.378 3.634,-0.15 3.212,-5.875 3.212,-5.875 -0.395,-2.948 -2.612,-2.589 -4.395,-2.428 -0.298,0.026 -0.73,0.063 -1.003,0.112 l 0.066,-2.146 c 0.186,0.005 0.393,0.013 0.599,-0.007 1.92,-0.177 3.227,-0.75 3.592,-2.653 0.221,-1.153 -0.009,-2.96 -1.971,-2.908 -2.206,0.059 -2.555,1.691 -3.183,2.544 l -0.26,-0.141 -0.238,-2.54 c 1.143,-1.369 4.035,-1.56 4.035,-1.56 2.97,-0.272 5.266,1.379 5.481,3.725 0.159,1.717 -0.468,2.418 -2.568,3.404 l 0.014,0.166 c 2.468,-0.141 3.434,0.676 4.005,2.404 0.924,2.786 0.632,9.949 -11.544,10.502 0,0 0.98,-1.097 1.328,-3.831 z"
     fill="#1b449c"
     stroke="#1b449c"
     stroke-width="0.34"
     id="path21" />
  <path
     d="m 83.555216,189.234 c -2.03,-0.764 -5.101,-2.411 -5.101,-2.411 0.173,-1.639 0.539,-5.145 0.539,-10.98 0,-0.644 -0.052,-1.095 -0.101,-2.015 -0.974,0.399 -0.575,0.06 -1.548,0.632 l -1.072,-1.639 c 2.595,-0.869 3.677,-0.974 6.223,-2.341 l 0.499,0.274 c -0.075,5.24 -0.031,8.167 -0.031,9.856 0,2.16 0.277,5.633 0.473,7.765 0.042,0.447 0.119,0.859 0.119,0.859 z"
     fill="#1b449c"
     stroke="#1b449c"
     stroke-width="0.37"
     id="path22" />
  <path
     d="m 65.159216,178.745 c -1.869,-1.652 -3.681,-3.449 -5.436,-5.407 -8.65,-9.62 -12.62,-19.479 -12.657,-19.577 l -0.035,-0.087 -0.033,-0.073 c -4.932,-11.604 -5.474,-25.272 -5.474,-30.713 0,-1.494 0.039,-2.368 0.043,-2.407 l 0.006,-0.176 V 49.362 h 23.524 z"
     fill="#e03a3e"
     id="path23" />
  <path
     d="m 134.72422,178.745 c 1.865,-1.652 3.681,-3.449 5.434,-5.407 8.647,-9.62 12.621,-19.479 12.66,-19.577 l 0.034,-0.087 0.031,-0.073 c 4.936,-11.604 5.477,-25.272 5.477,-30.713 0,-1.494 -0.04,-2.368 -0.041,-2.407 l -0.011,-0.176 V 49.362 h -23.521 z"
     fill="#e03a3e"
     id="path24" />
  <g
     fill="#ffffff"
     id="g31"
     transform="translate(-179.99978,-82.797)">
    <path
       d="m 260.022,297.579 c 0.241,0.084 0.468,0.145 0.697,0.202 3.506,0.91 5.67,-0.17 6.475,-3.271 0.715,-2.759 -0.425,-4.287 -3.384,-5.057 -1.231,-0.319 -2.421,-0.488 -3.52,-0.776 -0.399,-0.103 -0.881,-0.272 -1.452,-0.49 -0.51,2.742 -1.111,5.211 -1.671,7.372 -0.506,1.944 -1.133,4.36 -2.122,7.23 0.756,0.129 1.373,0.245 1.83,0.363 0.493,0.128 1.068,0.324 1.771,0.575 0.309,-1.815 0.53,-2.899 0.62,-3.241 z m 0.376,-1.525 0.85,-3.273 c 0.142,-0.554 0.249,-0.96 0.316,-1.217 0.026,-0.105 0.112,-0.427 0.273,-0.979 0.353,0.046 0.584,0.083 0.698,0.114 1.404,0.364 1.897,1.429 1.453,3.139 -0.556,2.139 -1.581,2.74 -3.59,2.216 z"
       id="path25" />
    <path
       d="m 269.781,299.022 c 0.004,4.919 2.639,7.618 7.373,7.615 4.893,-0.006 7.699,-3 7.693,-8.182 -0.005,-4.808 -2.715,-7.509 -7.354,-7.5 -4.793,0.002 -7.717,2.926 -7.712,8.067 z m 3.556,-0.203 c -0.006,-4.097 1.564,-6.425 3.98,-6.428 2.397,-0.001 3.971,2.278 3.976,6.42 0.004,4.1 -1.606,6.383 -3.963,6.386 -2.418,10e-4 -3.99,-2.256 -3.993,-6.378 z"
       id="path26" />
    <path
       d="m 293.409,291.974 c 0.132,1.229 0.31,2.276 0.451,3.08 0.057,0.326 0.11,0.634 0.152,0.892 0.55,3.179 1.066,6.183 1.797,9.042 -0.862,0.079 -1.488,0.143 -1.854,0.207 -0.481,0.082 -1.072,0.227 -1.816,0.422 -0.251,-2.734 -0.618,-5.205 -1.007,-7.47 -0.205,-1.197 -0.591,-3.081 -1.085,-5.596 -1.178,0.201 -2.338,0.494 -3.448,0.863 -0.032,-0.419 -0.061,-0.819 -0.117,-1.144 -0.033,-0.195 -0.126,-0.492 -0.243,-0.944 2.12,-0.276 3.866,-0.511 5.201,-0.739 1.273,-0.221 2.98,-0.582 5.126,-1.04 0.041,0.463 0.073,0.772 0.108,0.967 0.056,0.325 0.143,0.715 0.252,1.121 -1.168,0.023 -2.343,0.135 -3.517,0.339 z"
       id="path27" />
    <path
       d="m 305.954,288.295 c 0.332,1.195 0.68,2.195 0.951,2.967 0.111,0.313 0.21,0.605 0.301,0.854 1.062,3.047 2.068,5.924 3.258,8.619 -0.833,0.223 -1.44,0.387 -1.793,0.509 -0.46,0.163 -1.022,0.403 -1.721,0.719 -0.698,-2.657 -1.465,-5.033 -2.225,-7.201 -0.4,-1.146 -1.089,-2.943 -1.991,-5.342 -1.129,0.394 -2.226,0.871 -3.261,1.42 -0.099,-0.409 -0.192,-0.797 -0.303,-1.109 -0.064,-0.191 -0.207,-0.468 -0.395,-0.895 2.045,-0.621 3.73,-1.139 5.005,-1.583 1.22,-0.426 2.845,-1.064 4.886,-1.873 0.117,0.451 0.201,0.75 0.266,0.937 0.109,0.313 0.258,0.682 0.434,1.065 -1.147,0.215 -2.286,0.519 -3.412,0.913 z"
       id="path28" />
    <path
       d="m 315.679,291.498 c -0.244,-0.444 -0.488,-0.891 -0.735,-1.336 -0.148,-0.272 -0.295,-0.543 -0.444,-0.814 -1.06,-1.937 -2.13,-3.846 -3.408,-5.691 1.662,-0.835 2.801,-1.406 3.401,-1.737 0.926,-0.509 2.128,-1.215 3.572,-2.086 0.167,0.39 0.293,0.698 0.409,0.913 0.118,0.213 0.302,0.465 0.537,0.815 -0.997,0.419 -1.912,0.873 -2.787,1.349 -0.38,0.21 -0.757,0.416 -1.107,0.632 0.496,0.988 0.999,1.947 1.506,2.877 l 0.564,1.027 c 0.924,-0.556 2.146,-1.299 3.668,-2.236 0.17,0.437 0.323,0.755 0.429,0.949 0.096,0.174 0.288,0.444 0.556,0.855 -1.34,0.607 -2.625,1.236 -3.856,1.884 l 1.154,2.114 c 0.534,0.968 1.019,1.81 1.499,2.529 1.187,-0.65 2.375,-1.375 3.613,-2.259 0.166,0.389 0.312,0.689 0.448,0.939 0.096,0.175 0.298,0.466 0.566,0.874 -2.007,1.025 -3.469,1.776 -4.365,2.266 -0.67,0.369 -1.535,0.864 -2.556,1.53 -0.803,-1.956 -1.74,-3.708 -2.664,-5.394 z"
       id="path29" />
    <path
       d="m 329.819,289.587 c 0.531,-0.497 0.966,-0.893 1.325,-1.168 0.336,-0.266 0.828,-0.593 1.439,-0.986 -0.947,-1.026 -1.836,-2.099 -2.706,-3.212 l -1.777,-2.283 c 3.48,1.375 5.893,2.492 7.264,3.326 0.547,-0.512 1.028,-0.942 1.46,-1.28 0.37,-0.287 0.969,-0.701 1.752,-1.224 -2.228,-0.786 -4.908,-1.833 -8.047,-3.278 1.373,-1.297 1.433,-3.135 0.127,-4.806 -1.699,-2.175 -3.534,-2.204 -5.867,-0.385 -1.124,0.881 -2.064,1.807 -3.021,2.556 -0.355,0.277 -0.77,0.543 -1.229,0.847 1.922,2.084 3.5,4.075 4.847,5.799 0.148,0.192 0.313,0.401 0.476,0.611 1.156,1.479 2.511,3.25 3.957,5.483 z m -2.415,-8.539 -1.873,-2.403 c -0.382,-0.487 -0.897,-1.149 -1.491,-2.004 0.22,-0.167 0.355,-0.248 0.401,-0.284 1.42,-1.107 2.531,-1.022 3.672,0.439 1.264,1.624 1.037,2.893 -0.646,4.205 -0.017,0.012 -0.047,0.036 -0.063,0.047 z"
       id="path30" />
    <path
       d="m 338.597,276.301 0.22,-0.25 c 1.647,1.005 2.966,0.912 4.064,-0.338 0.997,-1.135 0.96,-2.364 -0.053,-3.255 -0.977,-0.862 -1.939,-0.504 -3.673,0.162 -2.493,0.963 -4.085,1.335 -5.91,-0.268 -2.123,-1.868 -2.301,-4.475 -0.166,-6.902 0.868,-0.985 1.846,-1.665 3.012,-2.022 0.511,0.893 1.056,1.711 1.658,2.501 l -0.158,0.175 c -1.571,-0.652 -2.693,-0.516 -3.583,0.498 -0.92,1.046 -0.804,2.22 0.01,2.933 0.979,0.858 1.961,0.313 3.947,-0.442 2.315,-0.86 3.826,-1.305 5.75,0.386 2.324,2.045 2.405,4.858 0.054,7.535 -0.881,0.998 -1.867,1.722 -2.849,2.136 -0.827,-1.037 -1.61,-1.985 -2.323,-2.849 z"
       id="path31" />
  </g>
  <path
     d="m 56.204216,30.438 c -0.913,-0.647 -3.111,-1.7 -5.684,-3.17 -2.044,-1.179 -3.592,-2.168 -3.539,-3.585 0.053,-1.523 1.435,-2.856 3.808,-2.776 2.416,0.082 4.902,1.684 6.738,3.929 l -0.094,-6.553 c -1.653,-0.506 -3.311,-0.768 -5.057,-0.828 -7.122,-0.24 -11.523,2.73 -11.693,7.401 -0.107,3.01 1.824,4.947 5.54,7.012 3.344,1.881 6.182,2.716 6.272,5.06 h -0.002 c -0.063,1.714 -1.653,3.187 -4.132,3.103 -2.522,-0.083 -5.096,-1.825 -7.008,-4.346 l 0.08,7.371 c 1.721,0.565 3.914,0.873 5.739,0.937 7.437,0.249 11.949,-3.077 12.141,-8.337 -0.012,-2.076 -0.999,-3.724 -3.109,-5.218 z"
     fill="#e03a3e"
     id="path32" />
  <path
     d="m 45.583216,184.968 c -0.939,0.805 -1.697,1.545 -2.283,2.115 -0.238,0.231 -0.459,0.444 -0.649,0.632 -2.311,2.249 -4.497,4.376 -6.436,6.594 -0.556,-0.662 -0.96,-1.143 -1.22,-1.411 -0.341,-0.352 -0.797,-0.757 -1.376,-1.255 2.113,-1.755 3.941,-3.455 5.586,-5.058 0.872,-0.848 2.209,-2.233 4.004,-4.059 -0.834,-0.856 -1.731,-1.65 -2.662,-2.358 0.328,-0.263 0.639,-0.512 0.876,-0.743 0.144,-0.139 0.336,-0.383 0.644,-0.735 1.425,1.593 2.607,2.904 3.551,3.869 0.9,0.928 2.164,2.13 3.758,3.64 -0.361,0.295 -0.596,0.497 -0.736,0.636 -0.24,0.233 -0.509,0.521 -0.785,0.846 -0.68,-0.954 -1.435,-1.859 -2.272,-2.713 z"
     fill="#ffffff"
     id="path33" />
  <path
     d="m 46.252216,195.221 c 0.194,-0.242 0.38,-0.463 0.547,-0.667 1.39,-1.688 2.973,-3.646 4.632,-5.972 0.566,0.58 0.992,1.018 1.293,1.264 0.396,0.323 0.905,0.658 1.536,1.063 -0.831,0.857 -1.608,1.737 -2.35,2.644 l -1.53,1.858 c 0.956,0.842 1.591,1.425 1.939,1.711 0.622,0.512 1.374,1.072 2.219,1.71 l 1.531,-1.858 c 0.743,-0.908 1.441,-1.847 2.125,-2.832 0.594,0.604 1.037,1.053 1.341,1.302 0.316,0.263 0.81,0.584 1.488,1.026 -1.934,2.044 -3.55,3.973 -4.967,5.701 -0.168,0.202 -0.35,0.423 -0.546,0.664 -1.135,1.382 -2.525,3.099 -4.071,5.289 -0.533,-0.525 -0.959,-0.933 -1.322,-1.232 -0.379,-0.312 -0.875,-0.661 -1.507,-1.095 0.778,-0.793 1.509,-1.592 2.21,-2.443 l 2.498,-3.037 c -0.818,-0.734 -1.531,-1.346 -2.121,-1.831 -0.407,-0.337 -1.087,-0.868 -2.04,-1.591 l -2.497,3.036 c -0.701,0.855 -1.358,1.716 -1.984,2.631 -0.549,-0.537 -0.988,-0.959 -1.367,-1.27 -0.362,-0.297 -0.861,-0.649 -1.46,-1.058 1.847,-1.94 3.265,-3.634 4.403,-5.013 z"
     fill="#ffffff"
     id="path34" />
  <path
     d="m 59.950216,206.509 c 0.24,-0.445 0.484,-0.891 0.726,-1.339 0.147,-0.273 0.294,-0.544 0.441,-0.817 1.05,-1.943 2.074,-3.876 2.928,-5.951 1.604,0.942 2.703,1.588 3.308,1.915 0.93,0.501 2.176,1.126 3.687,1.868 -0.234,0.348 -0.427,0.621 -0.543,0.838 -0.115,0.211 -0.227,0.502 -0.391,0.891 -0.898,-0.607 -1.773,-1.133 -2.65,-1.608 -0.38,-0.206 -0.759,-0.411 -1.13,-0.585 -0.559,0.951 -1.094,1.895 -1.597,2.827 l -0.555,1.031 c 0.967,0.474 2.257,1.095 3.866,1.864 -0.272,0.381 -0.459,0.683 -0.562,0.878 -0.097,0.173 -0.218,0.483 -0.413,0.928 -1.242,-0.795 -2.468,-1.533 -3.682,-2.215 l -1.143,2.119 c -0.527,0.972 -0.971,1.837 -1.311,2.633 1.189,0.639 2.443,1.244 3.852,1.806 -0.232,0.352 -0.406,0.63 -0.544,0.885 -0.094,0.174 -0.226,0.503 -0.425,0.948 -1.951,-1.128 -3.376,-1.949 -4.272,-2.432 -0.671,-0.363 -1.561,-0.819 -2.67,-1.32 1.205,-1.733 2.167,-3.473 3.08,-5.164 z"
     fill="#ffffff"
     id="path35" />
</svg>
