<?xml version="1.0" encoding="UTF-8" standalone="no"?>
<svg
   clip-rule="evenodd"
   fill-rule="evenodd"
   stroke-linejoin="round"
   stroke-miterlimit="2"
   viewBox="0 0 270 247.17227"
   version="1.1"
   id="svg18"
   sodipodi:docname="Swansea.svg"
   width="270"
   height="247.17227"
   xmlns:inkscape="http://www.inkscape.org/namespaces/inkscape"
   xmlns:sodipodi="http://sodipodi.sourceforge.net/DTD/sodipodi-0.dtd"
   xmlns="http://www.w3.org/2000/svg"
   xmlns:svg="http://www.w3.org/2000/svg">
  <defs
     id="defs18" />
  <sodipodi:namedview
     id="namedview18"
     pagecolor="#ffffff"
     bordercolor="#000000"
     borderopacity="0.25"
     inkscape:showpageshadow="2"
     inkscape:pageopacity="0.0"
     inkscape:pagecheckerboard="0"
     inkscape:deskcolor="#d1d1d1" />
  <g
     fill-rule="nonzero"
     id="g18"
     transform="translate(-145,-76.413731)">
    <path
       d="m 245.372,204.587 c -14.425,23.575 -45.05,25.186 -76.002,13.211 0,0 12.348,-0.35 23.225,-6.279 9.571,-5.228 10.504,-8.146 19.958,-19.654 27.077,-33.029 51.633,-47.898 76.75,-24.112 0,0 -22.596,1.96 -43.931,36.834"
       id="path1" />
    <path
       d="m 278.215,224.941 c -14.426,23.599 -45.051,25.186 -76.002,13.212 0,0 12.324,-0.351 23.225,-6.302 9.547,-5.206 10.504,-8.124 19.934,-19.655 27.077,-33.006 51.634,-47.875 76.75,-24.089 0,0 -22.595,1.937 -43.907,36.834"
       id="path2" />
    <path
       d="m 385.099,191.235 c 1.308,13.328 -7.002,25.326 -34.126,41.269 0,0 41.666,-35.153 -9.431,-59.873 -31.862,-15.429 -55.927,-28.734 -64.471,-48.528 -5.905,-13.656 -0.234,-36.671 17.11,-44.421 0,0 19.141,-9.267 53.757,3.408 0,0 19.211,6.746 8.824,19.818 0,0 2.684,4.482 5.369,9.99 2.054,4.249 0.015,5.883 -3.012,3.665 -3.011,-2.218 -50.512,-43.02 -63.631,-17.904 0,0 -4.832,9.151 1.425,20.355 5.159,6.816 9.22,8.707 17.296,13.305 12.395,6.513 20.798,10.948 36.274,19.444 0,0 32.353,15.733 34.617,39.472"
       id="path3" />
    <path
       d="m 313.859,243.662 c -14.426,23.599 -45.051,25.186 -76.003,13.212 0,0 12.325,-0.351 23.202,-6.303 9.571,-5.205 10.528,-8.123 19.958,-19.654 27.054,-33.006 51.61,-47.875 76.726,-24.089 0,0 -22.572,1.96 -43.883,36.834"
       id="path4" />
    <path
       d="m 165.845,236.916 c -0.135,-1.681 -0.279,-2.568 -0.981,-4.015 -0.747,-1.564 -2.194,-3.105 -4.248,-2.124 -3.758,1.797 1.191,9.71 -5.229,12.815 -4.155,2.007 -7.352,-0.397 -9.266,-4.272 -0.654,-1.353 -0.911,-2.894 -1.121,-4.342 l 2.731,-1.004 c 0.069,1.143 0.304,3.081 1.027,4.482 0.77,1.587 2.755,3.384 5.019,2.264 4.365,-2.101 -0.911,-9.827 5.158,-12.768 3.455,-1.681 6.63,0.169 8.357,3.641 0.606,1.284 1.121,2.918 1.308,4.459 z"
       id="path5" />
    <path
       d="m 169.977,239.367 2.031,2.707 -11.742,15.173 0.068,0.051 17.6,-7.376 2.661,3.501 -12.068,14.776 0.051,0.051 17.974,-6.933 1.984,2.614 -21.358,7.61 -2.405,-3.198 12.325,-15.033 -0.051,-0.015 -17.997,7.493 -2.497,-3.291 z"
       id="path6" />
    <path
       d="m 195.84,273.493 -10.294,5.276 6.559,5.602 z m 0.747,-3.174 2.474,2.1 -7.212,22.246 -2.568,-2.195 1.891,-5.532 -8.03,-6.886 -5.252,2.685 -2.474,-2.124 z"
       id="path7" />
    <path
       d="m 209.402,280.496 3.641,2.101 -0.467,19.724 0.051,0.051 8.753,-14.986 2.685,1.54 -10.878,18.603 -3.431,-1.96 0.467,-20.191 -0.051,-0.016 -8.963,15.289 -2.684,-1.541 z"
       id="path8" />
    <path
       d="m 237.809,297.909 c -1.236,-1.143 -1.937,-1.704 -3.431,-2.287 -1.634,-0.63 -3.781,-0.771 -4.598,1.331 -1.494,3.828 7.539,6.279 4.948,12.885 -1.656,4.295 -5.648,4.715 -9.71,3.151 -1.425,-0.537 -2.661,-1.494 -3.805,-2.428 l 1.33,-2.544 c 0.816,0.771 2.334,2.008 3.805,2.568 1.656,0.63 4.341,0.606 5.252,-1.751 1.75,-4.481 -7.423,-6.582 -4.996,-12.815 1.401,-3.571 4.972,-4.365 8.637,-2.964 1.331,0.513 2.824,1.353 4.015,2.381 z"
       id="path9" />
    <path
       d="m 245.162,296.859 11.811,2.824 -0.653,2.638 -8.777,-2.101 -1.494,6.116 8.006,1.914 -0.63,2.638 -8.006,-1.938 -1.657,6.909 8.777,2.101 -0.63,2.638 -11.811,-2.824 z"
       id="path10" />
    <path
       d="m 270.769,304.235 -5.089,10.317 8.59,0.607 z m -1.308,-3.011 3.245,0.234 7.539,22.128 -3.361,-0.257 -1.797,-5.556 -10.598,-0.794 -2.591,5.275 -3.244,-0.257 z"
       id="path11" />
    <path
       d="m 310.147,301.971 c -1.494,-0.561 -3.058,-0.678 -4.622,-0.42 -4.925,0.84 -7.609,4.925 -6.769,9.687 0.864,4.972 5.042,7.679 9.477,6.932 1.542,-0.279 3.525,-1.004 4.458,-1.844 l 0.724,2.918 c -1.518,0.957 -3.501,1.377 -4.762,1.587 -6.746,1.144 -11.998,-2.381 -13.165,-9.127 -1.12,-6.535 2.894,-11.694 9.43,-12.791 1.635,-0.28 3.315,-0.327 4.949,0.085 z"
       id="path12" />
    <path
       d="m 313.882,297.115 2.964,-0.863 6.069,20.634 -2.964,0.888 z"
       id="path13" />
    <path
       d="m 327.677,295.365 -6.255,2.544 -1.027,-2.521 15.336,-6.256 1.05,2.498 -6.256,2.568 7.213,17.366 -2.894,1.168 z"
       id="path14" />
    <path
       d="m 350.856,294.945 -13.795,-6.326 3.128,-1.891 10.55,4.925 0.351,-11.484 3.105,-1.867 -0.678,15.032 4.715,7.703 -2.661,1.587 z"
       id="path15" />
    <path
       d="m 372.214,266.28 4.622,10.528 6.069,-6.116 z m -3.151,-0.957 2.288,-2.311 21.895,8.614 -2.381,2.404 -5.439,-2.241 -7.47,7.493 2.358,5.369 -2.287,2.287 z"
       id="path16" />
    <path
       d="m 379.824,253.419 6.699,-9.29 2.218,1.587 -4.879,6.792 5.135,3.642 4.692,-6.489 2.241,1.563 -4.692,6.513 8.03,5.695 -1.797,2.498 z"
       id="path17" />
    <path
       d="m 399.151,228.442 c -1.353,0.841 -2.404,1.985 -3.128,3.385 -2.31,4.412 -0.63,8.964 3.712,11.205 4.528,2.334 9.197,0.63 11.274,-3.338 0.7,-1.354 1.308,-3.385 1.237,-4.646 l 2.754,1.215 c -0.136,1.774 -1.004,3.595 -1.587,4.715 -3.151,6.046 -9.15,8.053 -15.266,4.902 -5.929,-3.035 -7.656,-9.337 -4.645,-15.149 0.793,-1.494 1.774,-2.825 3.081,-3.875 z"
       id="path18" />
  </g>
</svg>
