<?xml version="1.0" encoding="UTF-8"?>
<!DOCTYPE svg PUBLIC "-//W3C//DTD SVG 1.1//EN" "http://www.w3.org/Graphics/SVG/1.1/DTD/svg11.dtd">
<!-- Creator: CorelDRAW 2019 (64-Bit) -->
<svg xmlns="http://www.w3.org/2000/svg" xml:space="preserve" width="176.453mm" height="235.329mm" version="1.1" style="shape-rendering:geometricPrecision; text-rendering:geometricPrecision; image-rendering:optimizeQuality; fill-rule:evenodd; clip-rule:evenodd"
viewBox="0 0 176.1571 234.9347"
 xmlns:xlink="http://www.w3.org/1999/xlink"
 xmlns:xodm="http://www.corel.com/coreldraw/odm/2003">
 <defs>
  <style type="text/css">
   <![CDATA[
    .fil2 {fill:#17369D}
    .fil4 {fill:#3499F7}
    .fil6 {fill:#C7D400}
    .fil5 {fill:#E4231B}
    .fil1 {fill:#E7BA5B}
    .fil0 {fill:black}
    .fil3 {fill:white}
   ]]>
  </style>
 </defs>
 <g id="Layer_x0020_1">
  <metadata id="CorelCorpID_0Corel-Layer"/>
  <g id="_2857485840">
   <path class="fil0" d="M170.9241 123.5045c-4.3382,-12.5164 -5.8989,-24.932 -5.8989,-36.3212 0,-14.6293 2.5769,-27.5653 5.1523,-36.8422 1.2876,-4.6392 2.5769,-8.3626 3.5422,-10.9247 0.9654,-2.5638 1.6067,-3.9584 1.6067,-3.9616l0.1019 -0.2237 -0.2367 -0.0641c-11.5298,-3.0539 -22.5619,-11.8079 -30.6986,-19.8052 -4.0695,-3.9963 -7.4159,-7.8034 -9.7445,-10.6107 -2.3281,-2.8072 -3.6322,-4.6064 -3.6365,-4.6097l-0.1036 -0.1414 -0.1547 0.0756c-14.2864,6.9861 -29.3114,8.8148 -42.7754,8.8148 -13.4628,0 -28.4883,-1.8287 -42.7742,-8.8148l-0.1561 -0.0756 -0.1013 0.1414c-0.0039,0.005 -1.3093,1.8025 -3.6373,4.6097 -6.9817,8.4218 -23.1451,25.8391 -40.4437,30.4159l-0.2383 0.0641 0.1028 0.2237c0.0012,0.0033 0.6417,1.3979 1.6066,3.9616 2.8979,7.6883 8.6954,25.8227 8.695,47.767 0,11.3892 -1.5618,23.8048 -5.8986,36.3212 -0.0025,0.0115 -5.2324,15.0944 -5.2331,32.0545 0,13.3093 3.223,27.8025 14.7817,37.0319 0.015,0.0102 15.4852,12.3584 41.4291,18.9675 0.0024,0.0006 1.0619,0.2696 2.8966,0.9726 5.504,2.1083 17.894,8.0923 28.8084,22.1929l0.1624 0.2107 0.1643 -0.2107c7.2766,-9.4002 15.2077,-15.1935 21.3188,-18.6353 3.0545,-1.721 5.6551,-2.8549 7.489,-3.5576 1.8347,-0.7029 2.8942,-0.9713 2.8966,-0.9726 25.944,-6.6098 41.4141,-18.9574 41.429,-18.9675 11.5577,-9.228 14.7811,-23.7226 14.7811,-37.0319 -0.0034,-16.9613 -5.2297,-32.043 -5.233,-32.0545z"/>
   <path class="fil1" d="M161.1172 192.267c-0.0026,0.002 -0.9571,0.7646 -2.8055,2.0197 -5.5443,3.7677 -19.0714,11.9294 -38.4681,16.8708 -0.0258,0.0064 -17.1687,4.3779 -31.7653,23.1027 -14.598,-18.7247 -31.7403,-23.0963 -31.766,-23.1027 -12.9316,-3.2949 -23.2534,-8.0203 -30.3404,-11.9204 -3.5442,-1.9497 -6.2796,-3.6945 -8.127,-4.9504 -1.8481,-1.2551 -2.8029,-2.0183 -2.8054,-2.0197 -11.4141,-9.1086 -14.6247,-23.456 -14.6254,-36.708 0,-8.4385 1.302,-16.4209 2.6054,-22.2926 1.3035,-5.8722 2.6035,-9.616 2.6049,-9.6264 4.3544,-12.5671 5.9211,-25.0297 5.9218,-36.4567 -0.002,-27.6673 -9.18,-49.2717 -10.24,-51.6793 22.2624,-6.0634 42.3624,-32.812 43.9709,-34.9811 14.3173,6.9614 29.3494,8.7818 42.8013,8.7835 13.4525,-0.0017 28.4834,-1.8205 42.8019,-8.7835 1.6079,2.1692 21.7097,28.9177 43.9711,34.9811 -1.0608,2.4076 -10.239,24.012 -10.239,51.68 0,11.4269 1.5656,23.8889 5.9204,36.456 0.0034,0.0098 1.3009,3.7542 2.605,9.6258 1.3024,5.8709 2.6048,13.8553 2.6048,22.2939 0,13.2507 -3.2116,27.5994 -14.6253,36.7073z"/>
   <path class="fil0" d="M32.9205 21.6208l0.1388 -0.1299c6.0766,-5.6737 10.8515,-11.2339 13.6382,-14.6923l0.0983 -0.1218 0.1445 0.0609c11.9185,5.0636 25.4236,7.5352 41.138,7.5352 15.7131,0 29.2201,-2.4701 41.1381,-7.5352l0.1438 -0.0609 0.0983 0.1218c2.7868,3.4584 7.5624,9.0187 13.6381,14.6923l0.1376 0.1299 -37.4835 48.2164 -0.154 -0.0839c-0.0284,-0.0148 -0.0527,-0.028 -0.0726,-0.0394 -5.5113,-2.9701 -11.377,-4.4748 -17.4407,-4.4748 -6.0641,0 -11.93,1.5047 -17.4416,4.4748 -0.0219,0.0115 -0.0481,0.0263 -0.0798,0.0443l-0.154 0.0823 -37.4873 -48.2197z"/>
   <path class="fil2" d="M70.5196 69.3093c5.5471,-2.9749 11.4584,-4.4847 17.5636,-4.4847 6.1029,0 12.0123,1.5098 17.5556,4.4815l37.0375 -47.6409c-5.9595,-5.5799 -10.6542,-11.0349 -13.442,-14.4852 -11.9423,5.0471 -25.4629,7.5074 -41.1561,7.5074 -15.6938,0 -29.2142,-2.4603 -41.1561,-7.5074 -2.788,3.4503 -7.4819,8.9035 -13.4421,14.4836l37.0396 47.6457z"/>
   <path class="fil0" d="M102.071 170.8732l-0.1466 0.0604c-4.4407,1.8359 -9.0797,2.7676 -13.8412,2.7676 -4.7644,0 -9.4059,-0.9321 -13.8493,-2.77l-0.1458 -0.0604 -25.5457 32.819 0.2773 0.0925c2.7503,0.9174 5.6585,1.782 8.7175,2.5612 0.683,0.1735 15.9599,4.2161 30.3877,20.0351l0.1526 0.1664 0.1522 -0.1664c14.4277,-15.819 29.7047,-19.8616 30.3874,-20.0351 3.0592,-0.7792 5.9679,-1.6438 8.7181,-2.5612l0.2782 -0.0925 -25.5424 -32.8165z"/>
   <path class="fil2" d="M118.515 205.9407c-0.7283,0.1868 -15.9777,4.2282 -30.4368,19.99 -14.4591,-15.7618 -29.7084,-19.8032 -30.4383,-19.99 -2.9454,-0.7491 -5.7526,-1.5797 -8.4101,-2.4587l24.9918 -32.1084c4.4478,1.8193 9.095,2.7424 13.8615,2.7424 4.7628,0 9.4086,-0.9236 13.8534,-2.7391l24.9893 32.1051c-2.6581,0.8789 -5.4648,1.7095 -8.411,2.4587z"/>
   <path class="fil0" d="M15.3052 185.7943c-7.6541,-7.9747 -9.9186,-19.3998 -9.9192,-30.1645 0.0006,-15.7376 4.8423,-30.0985 4.933,-30.3631 4.6003,-13.2796 6.1683,-26.4154 6.1683,-38.1496 0,-9.6352 -1.0567,-18.3258 -2.3589,-25.3727 -0.2755,-1.4883 -0.5671,-2.9289 -0.8684,-4.3251l0.366 -0.171 33.5527 43.105 -0.0302 0.1021c-1.8,6.0032 -2.7423,12.4214 -2.7423,19.013 0,8.2941 1.4908,16.3151 4.3066,23.576l0.0423 0.1094 -33.2828 42.8127 -0.167 -0.1721z"/>
   <path class="fil2" d="M14.5351 61.6688c1.3059,7.0682 2.3664,15.7828 2.3664,25.4483 0,11.7708 -1.5725,24.9536 -6.1927,38.2844 -0.0816,0.2359 -4.9111,14.5748 -4.9092,30.2283 -0.0006,10.6342 2.2278,21.8602 9.6399,29.7039l32.8446 -42.2487c-2.8074,-7.2824 -4.2918,-15.3142 -4.2918,-23.6173l-0.0008 0c0.0008,-6.5928 0.9379,-13.0154 2.729,-19.0283l-32.8685 -42.2258c0.2351,1.1233 0.4645,2.2745 0.683,3.4553z"/>
   <path class="fil0" d="M127.4027 143.1549l0.043 -0.1086c2.8145,-7.2616 4.3048,-15.2826 4.3048,-23.578 0,-6.5928 -0.9418,-13.0116 -2.7411,-19.0137l-0.0309 -0.1034 33.5527 -43.103 0.3654 0.171c-0.3013,1.3963 -0.5936,2.8352 -0.8677,4.3251 -1.3029,7.0469 -2.3604,15.7375 -2.3604,25.3734 0,11.7341 1.5684,24.8693 6.169,38.1502 0.0445,0.1247 3.9355,11.4873 4.7792,25.2316 0.1051,1.7292 0.1577,3.42 0.1577,5.0672 0,5.8657 -0.6709,11.1951 -2.0063,15.8937 -1.6346,5.7487 -4.2922,10.5571 -7.9167,14.3338l-0.1664 0.1727 -33.2822 -42.8121z"/>
   <path class="fil2" d="M160.7175 185.3337c3.4883,-3.6965 6.0591,-8.3808 7.6525,-13.9871 1.324,-4.6542 1.9899,-9.9455 1.9899,-15.7798 0,-1.6388 -0.0525,-3.3205 -0.1577,-5.0422 -0.8372,-13.6813 -4.7199,-25.0216 -4.7544,-25.1224 -4.6204,-13.3309 -6.1936,-26.5137 -6.1936,-38.2844 0,-9.6662 1.0606,-18.3807 2.3671,-25.449 0.2186,-1.1808 0.4473,-2.3337 0.6831,-3.4569l-32.8678 42.2249c1.791,6.0128 2.7275,12.4368 2.7283,19.0308 -0.0008,8.3032 -1.4852,16.3364 -4.2907,23.6178l32.8433 42.2482z"/>
   <path class="fil0" d="M106.7547 168.804l-0.1445 -0.1863 0.203 -0.1195c4.6934,-2.7559 8.9146,-6.4953 12.5621,-11.1444 2.1204,-2.7025 3.9867,-5.6414 5.5863,-8.7643l0.1479 -0.2891 31.8001 40.9023 -0.1774 0.126c-3.0656,2.1757 -11.5002,7.7132 -24.0571,12.5363l-0.1447 0.0553 -25.7757 -33.1164z"/>
   <path class="fil3" d="M132.6698 201.4233c12.2017,-4.7044 20.4746,-10.0742 23.6462,-12.3078l-31.1341 -40.0484c-1.5788,3.0371 -3.4079,5.901 -5.4817,8.5432 -3.6231,4.6188 -7.8146,8.3532 -12.474,11.125l25.4437 32.688z"/>
   <path class="fil0" d="M69.3465 168.4944c-4.6919,-2.7547 -8.9126,-6.4933 -12.5588,-11.1392 -2.1232,-2.7051 -3.99,-5.6447 -5.591,-8.7681l-0.149 -0.2897 -31.8 40.9061 0.1766 0.1259c3.0586,2.1701 11.4953,7.7108 24.058,12.5357l0.1427 0.0546 25.9246 -33.3052 -0.203 -0.1202z"/>
   <path class="fil3" d="M43.4868 201.4233c-12.2083,-4.7062 -20.4822,-10.0793 -23.646,-12.3078l31.1365 -40.051c1.5795,3.0391 3.4103,5.9036 5.4853,8.5465 3.6224,4.6168 7.8136,8.3492 12.471,11.1199l-25.4468 32.6924z"/>
   <path class="fil0" d="M9.7831 44.2218l-0.0115 -0.0362c-0.6605,-2.0968 -1.2919,-3.9321 -1.8521,-5.4681l-0.0688 -0.1874 0.1858 -0.0757c7.6408,-3.1017 14.8311,-8.1027 21.0066,-13.3734l0.1643 -0.1415 36.8449 47.3935 -0.1638 0.1271 0.1638 -0.1271 0.131 0.1689 -0.1733 0.126c-3.3726,2.4449 -6.4612,5.4431 -9.2223,8.96 -3.0336,3.8641 -5.5479,8.2048 -7.5021,12.8815l-0.1363 0.3288 -39.3663 -50.5764z"/>
   <path class="fil3" d="M49.0416 93.9831c1.9471,-4.586 4.4339,-8.8465 7.4196,-12.652 2.736,-3.485 5.794,-6.467 9.133,-8.9132l-36.4472 -46.883c-6.1111,5.1968 -13.2077,10.1239 -20.77,13.2271 0.5409,1.4949 1.1473,3.2595 1.7774,5.2626l38.8872 49.9587z"/>
   <path class="fil0" d="M126.8721 94.4676c-1.9534,-4.6774 -4.466,-9.0163 -7.4968,-12.8797 -2.761,-3.519 -5.8522,-6.5178 -9.2261,-8.9645l-0.1736 -0.126 36.9723 -47.5579 0.165 0.1398c6.1755,5.2724 13.3656,10.2734 21.0072,13.3734l-0.079 0.1925 0.079 -0.1925 0.1842 0.0757 -0.0673 0.1891c-0.5609,1.536 -1.1924,3.3713 -1.8534,5.4681l-0.01 0.0345 -39.3659 50.5743 -0.1357 -0.3269z"/>
   <path class="fil3" d="M119.6996 81.3318c2.986,3.8043 5.4702,8.0647 7.4165,12.6495l38.8859 -49.9552c0.6297,-2.0046 1.2365,-3.7693 1.7776,-5.2642 -7.5638,-3.1032 -14.6585,-8.0303 -20.7702,-13.2271l-36.4447 46.8798c3.3405,2.4463 6.3997,5.4303 9.1349,8.9172z"/>
   <path class="fil0" d="M126.7828 119.4703c0,27.2075 -17.3288,49.2636 -38.7046,49.2636 -21.3757,0 -38.7045,-22.0562 -38.7045,-49.2636 0,-27.2069 17.3288,-49.263 38.7045,-49.263 21.3758,0 38.7046,22.0562 38.7046,49.263z"/>
   <path class="fil4" d="M126.3685 119.4703c0,26.9789 -17.1431,48.8493 -38.2903,48.8493 -21.1473,0 -38.2909,-21.8705 -38.2909,-48.8493 0,-26.9782 17.1436,-48.8486 38.2909,-48.8486 21.1472,0 38.2903,21.8705 38.2903,48.8486z"/>
   <path class="fil0" d="M28.9267 141.6454c-3.7273,0.0051 -6.4594,-1.8868 -8.2151,-4.9363 -1.7594,-3.0495 -2.5811,-7.2532 -2.5817,-11.9557 0.0006,-4.7061 0.8222,-8.908 2.5817,-11.9575 1.7557,-3.0495 4.4886,-4.9394 8.2151,-4.9342 5.8748,-0.0258 10.5738,3.1367 10.7963,11.2546l-0.2071 0.0071 0 -0.2074 0 0.2074 0.2071 -0.0071 0.0071 0.2133 -6.1883 0 0 -0.2063c0,-0.0429 0.0006,-0.0823 0,-0.12 -0.0169,-3.2658 -1.5451,-5.7525 -4.615,-5.7572 -1.7659,-0.0108 -2.9338,1.6787 -3.6552,4.0292 -0.7158,2.3356 -0.9611,5.2509 -0.9605,7.478 -0.0006,2.2266 0.2447,5.1413 0.9605,7.475 0.7208,2.3493 1.8892,4.0388 3.6552,4.0271 3.0699,-0.0044 4.5982,-2.4816 4.6156,-5.7461 0,-0.0405 -0.0006,-0.0792 -0.0006,-0.1177l-0.0019 -0.2092 6.1889 0 -0.0058 0.2137c-0.221,8.0852 -4.8842,11.2498 -10.725,11.2498 -0.0237,-0.0006 -0.0476,-0.0006 -0.0713,-0.0006z"/>
   <path class="fil1" d="M21.0701 113.0041c-1.7074,2.9517 -2.5272,7.0913 -2.5259,11.7493 -0.0013,4.655 0.8184,8.7951 2.5259,11.7482 1.7134,2.9538 4.2765,4.7257 7.8566,4.7301 5.6763,-0.025 10.0389,-2.8516 10.3748,-10.6349l-5.3467 0c-0.0134,1.6574 -0.4227,3.1549 -1.2474,4.2572 -0.8378,1.1222 -2.1186,1.8185 -3.7806,1.816 -2.0794,-0.0117 -3.3225,-1.9356 -4.051,-4.3208 -0.7337,-2.3993 -0.9771,-5.339 -0.9777,-7.5957 0.0006,-2.2574 0.244,-5.1989 0.9777,-7.5994 0.7285,-2.3859 1.9716,-4.3112 4.051,-4.3226 1.6626,-0.0034 2.9435,0.6955 3.7806,1.8204 0.8247,1.1049 1.234,2.6049 1.2474,4.2635l5.3467 0c-0.3358,-7.7838 -4.6978,-10.6156 -10.3748,-10.6399 -3.5814,0.0051 -6.1439,1.7761 -7.8566,4.7288z"/>
   <polygon class="fil0" points="158.0267,113.2346 150.4926,113.2346 150.4926,140.498 144.6493,140.498 144.6493,113.2346 137.1152,113.2346 137.1152,108.4938 158.0267,108.4938 "/>
   <polygon class="fil1" points="145.0636,112.8208 145.0636,140.0842 150.0782,140.0842 150.0782,112.8208 157.6124,112.8208 157.6124,108.908 137.5301,108.908 137.5301,112.8208 "/>
   <path class="fil0" d="M95.3886 183.774c-2.1648,-2.6892 -5.31,-3.9657 -9.1397,-3.963 -0.0675,0.0007 -0.1376,0 -0.207,0.002l-8.6203 -0.0007 0 32.5698 8.6256 0c0.0206,0 0.0416,0.0006 0.0622,0.0006 0.0423,0 0.0847,-0.0006 0.1265,-0.0006 3.8319,0.0031 6.9822,-1.2708 9.149,-3.9599 2.1675,-2.6877 3.3501,-6.7567 3.3501,-12.327 0,-5.5657 -1.1801,-9.6334 -3.3464,-12.3211zm-3.9145 19.5051l0 0c-0.9804,1.9914 -2.6461,3.3353 -5.6634,3.3443 -0.0483,0 -0.0964,0 -0.1452,0l-2.53 -0.0013 0 -21.0501 2.53 0c0.0532,-0.002 0.1003,-0.0025 0.1452,-0.0025 3.0166,0.0083 4.6824,1.3541 5.6634,3.3455 0.9737,1.9946 1.2063,4.6523 1.2045,7.1796 0.0025,2.5302 -0.2308,5.1905 -1.2045,7.1845z"/>
   <path class="fil1" d="M86.2488 180.2252c-0.0675,0 -0.1337,0 -0.2017,0.002l-8.212 0 0 31.7411 8.2125 0c0.063,0 0.1265,0.0006 0.1882,0 7.4655,-0.0206 12.0571,-4.838 12.0848,-15.8731 -0.0277,-11.0256 -4.6137,-15.8498 -12.0718,-15.8699zm5.597 23.2359l0 0c-1.0123,2.0986 -2.8759,3.5762 -6.0075,3.5762 -0.0084,0 -0.0181,0 -0.0271,0 -0.0501,0 -0.0983,-0.0007 -0.1458,0l-2.9429 0 0 -21.8801 2.9396 0c0.0476,0 0.0971,-0.0014 0.149,-0.0014 3.1465,-0.009 5.0189,1.4737 6.0352,3.5783 1.0221,2.1025 1.2449,4.8096 1.247,7.3611 -0.0025,2.5556 -0.2241,5.2639 -1.2476,7.3659z"/>
   <path class="fil0" d="M112.3949 119.4703c0,19.2617 -10.8867,34.8758 -24.3167,34.8758 -13.4299,0 -24.3175,-15.6141 -24.3175,-34.8758 0,-19.2609 10.8875,-34.8753 24.3175,-34.8753 13.4299,0 24.3167,15.6144 24.3167,34.8753z"/>
   <path class="fil1" d="M111.9813 119.4703c0,19.0329 -10.7016,34.4622 -23.903,34.4622 -13.2011,0 -23.903,-15.4293 -23.903,-34.4622 0,-19.0324 10.7019,-34.4615 23.903,-34.4615 13.2014,0 23.903,15.4291 23.903,34.4615z"/>
   <path class="fil0" d="M107.8551 129.0293c-0.3893,-0.3059 -0.6231,-0.6694 -0.7586,-0.9554 -0.135,-0.2857 -0.1638,-0.4785 -0.167,-0.4785l-0.0065 -0.036 -0.0168 -0.03c-0.1201,-0.2127 -0.1579,-0.3586 -0.1559,-0.4273 0.0031,-0.0887 0.014,-0.0977 0.2601,-0.1201 0.1871,-0.002 0.4266,0.0513 0.618,0.1039 0.1901,0.0535 0.3327,0.1061 0.3341,0.1061l0.2519 0.095 0.0271 -0.2679c0.0146,-0.142 0.0224,-0.2756 0.0224,-0.4021 0.0026,-1.1211 -0.5679,-1.6112 -0.5994,-1.6318l-0.0231 -0.0199 -0.0265 -0.0104c-1.0535,-0.4547 -1.1319,-1.1987 -1.1409,-1.5135 0,-0.0854 0.0096,-0.1247 0.0083,-0.1247l0.0072 -0.0428 -0.0102 -0.0438c-0.2185,-0.8364 -1.0266,-1.0323 -1.6627,-1.0246 -0.3816,0.0007 -0.7368,0.0611 -0.9623,0.111 -0.133,-0.6372 -0.7117,-1.8154 -0.7144,-1.8377l-0.3109 -0.656 -0.0823 0.7208c-0.0526,0.5209 -0.5215,1.049 -1.0027,1.4275 -0.4768,0.3802 -0.9366,0.6096 -0.9366,0.6109l-0.0167 0.0084 -0.0141 0.0115c-0.5814,0.4465 -1.7976,0.5518 -2.5408,0.5454 -0.3829,0.0006 -0.6391,-0.0213 -0.6391,-0.0213 -0.0759,-0.0064 -0.1446,-0.0082 -0.2086,-0.0082 -0.527,-0.002 -0.8687,0.1598 -1.0595,0.3847 -0.1901,0.2237 -0.2176,0.4728 -0.2176,0.6072 0,0.0411 0.0031,0.0732 0.0057,0.0937 0,0.0219 0,0.0444 0,0.0681 -0.0284,1.1916 -0.573,1.2573 -0.9919,1.2886 -0.203,0 -0.3468,-0.0455 -0.3486,-0.0417 -0.1434,-0.0347 -0.2643,-0.0495 -0.3766,-0.0495 -0.32,-0.0051 -0.582,0.1402 -0.7183,0.3592 -0.1376,0.2152 -0.1734,0.4701 -0.1746,0.7233 0.0019,0.6425 0.2544,1.3189 0.2568,1.3298l0.0354 0.0963 0.1002 0.0309c0.0213,-0.0007 0.09,0.0648 0.1323,0.2345 0.0438,0.1618 0.0598,0.3847 0.0598,0.5915 0,0.273 -0.0259,0.5172 -0.0345,0.5955 -0.1093,0.2596 -0.3296,0.4491 -0.5544,0.5782 -0.1942,0.061 -0.4042,0.1407 -0.6315,0.2429l0.1251 0.3923c0.0085,-0.007 0.3278,-0.0616 0.6773,-0.2544 0.3539,-0.1065 0.634,-0.1406 0.8479,-0.1406 0.2178,0 0.3682,0.0359 0.4593,0.0681 0.0308,0.0102 0.0552,0.0212 0.0738,0.0296 0.4864,1.0612 0.967,1.4468 1.4468,1.4557 0.6103,-0.022 0.8941,-0.5885 0.9103,-0.5975 0.3078,-0.7246 0.6558,-0.7657 0.8422,-0.7759 0.0828,0 0.117,0.0173 0.1183,0.0128l0.0256 0.0089 0.0252 0.0014c0.8563,0.0751 0.9996,0.3032 1.0112,0.6078 0.0128,0.4399 -0.4839,1.1961 -1.0074,1.7871 -0.5176,0.5986 -1.0369,1.0592 -1.0375,1.0612l-0.5306 0.4728 0.7015 -0.1136 9.5011 -1.5605 -0.0227 -0.1973c-0.0212,-0.1734 -0.0276,-0.3281 -0.029,-0.4683 0.0021,-0.6461 0.1801,-0.9154 0.3194,-1.0394 0.0714,-0.0623 0.1394,-0.0919 0.1888,-0.1059 0.0495,-0.0148 0.0638,-0.0097 0.0638,-0.0141l0.061 0 0.0526 -0.0341c0.4548,-0.2961 0.6514,-0.6367 0.649,-0.9566 -0.0156,-0.5486 -0.4781,-0.8441 -0.4884,-0.8614z"/>
   <path class="fil0" d="M95.3252 145.6307c-0.3894,-0.3032 -0.6214,-0.6662 -0.7554,-0.9526 -0.1324,-0.2858 -0.1606,-0.4799 -0.1638,-0.4799l-0.0058 -0.0367 -0.0188 -0.0326c-0.1214,-0.2133 -0.1605,-0.359 -0.1587,-0.4271 0.0047,-0.0862 0.0118,-0.0939 0.2552,-0.1163 0.1877,-0.002 0.4272,0.052 0.6194,0.1059 0.1934,0.0539 0.339,0.1078 0.3396,0.1072l0.2525 0.0963 0.0265 -0.269c0.014,-0.1381 0.0211,-0.2666 0.0211,-0.3905 0.002,-1.1326 -0.5716,-1.6215 -0.6044,-1.6445l-0.0225 -0.0175 -0.0264 -0.0109c-1.0535,-0.4586 -1.1313,-1.2006 -1.1404,-1.5135 0,-0.0855 0.0085,-0.124 0.0078,-0.1246l0.0071 -0.0437 -0.0109 -0.0431c-0.2184,-0.8402 -1.0278,-1.0374 -1.6657,-1.029 -0.381,0.0006 -0.7349,0.061 -0.9598,0.1105 -0.1324,-0.6355 -0.7053,-1.8097 -0.7079,-1.8322l-0.3078 -0.6527 -0.086 0.7157c-0.0546,0.5216 -0.525,1.0464 -1.0055,1.4222 -0.4779,0.3771 -0.9378,0.6032 -0.9378,0.6052l-0.0174 0.0084 -0.0161 0.0115c-0.5767,0.4509 -1.7992,0.5577 -2.5425,0.5513 -0.1914,0 -0.3495,-0.0053 -0.4612,-0.0097 -0.1111,-0.0064 -0.174,-0.0115 -0.174,-0.0104 -0.0707,-0.0064 -0.1369,-0.0089 -0.1986,-0.0082 -0.5266,-0.002 -0.8691,0.1573 -1.0612,0.3809 -0.1921,0.2235 -0.2197,0.4728 -0.2197,0.6096 0,0.0463 0.0032,0.081 0.0059,0.1015 0.0006,0.0212 0.0006,0.0437 0.0006,0.0656 -0.0278,1.191 -0.5802,1.2565 -1.0016,1.288 -0.2017,0 -0.3442,-0.0437 -0.3456,-0.0411 -0.1419,-0.0333 -0.2654,-0.0495 -0.3802,-0.0495 -0.3194,-0.0057 -0.5795,0.1389 -0.7158,0.3559 -0.1374,0.2159 -0.1733,0.4701 -0.1747,0.7221 0.002,0.6444 0.2577,1.3234 0.259,1.335l0.036 0.0988 0.1021 0.0296c0.0231,0 0.0886,0.0604 0.1329,0.2274 0.043,0.158 0.0592,0.3771 0.0592,0.5827 0,0.2787 -0.0277,0.5287 -0.0373,0.6057 -0.1099,0.2641 -0.3326,0.4555 -0.559,0.5846 -0.1927,0.0604 -0.4015,0.1402 -0.6269,0.2416l0.1253 0.3918c0.0084,-0.0058 0.3252,-0.0603 0.6734,-0.2524 0.3558,-0.1081 0.6371,-0.1421 0.8516,-0.1421 0.2185,0 0.3676,0.0352 0.4594,0.0674 0.0301,0.0103 0.0548,0.0206 0.0734,0.029 0.4893,1.0618 0.9693,1.4487 1.4498,1.4571 0.6091,-0.0219 0.8911,-0.5891 0.9079,-0.5981 0.3076,-0.7228 0.6577,-0.7651 0.8473,-0.7755 0.0828,0 0.1175,0.0175 0.1188,0.0129l0.0263 0.0077 0.0237 0.002c0.8547,0.0759 0.9971,0.3031 1.0086,0.607 0.0135,0.4389 -0.483,1.1943 -1.0052,1.7847 -0.5173,0.5975 -1.0356,1.0573 -1.0362,1.0592l-0.536 0.4748 0.7074 -0.1156 9.4881 -1.5605 -0.0224 -0.1959c-0.0193,-0.1671 -0.0263,-0.3174 -0.0263,-0.4522 0.0025,-0.6514 0.1818,-0.9225 0.3257,-1.0484 0.0725,-0.063 0.1438,-0.093 0.1954,-0.1079 0.0507,-0.0154 0.066,-0.0103 0.0667,-0.0135l0.0623 0 0.0521 -0.0353c0.4465,-0.2948 0.6412,-0.6341 0.6398,-0.9533 -0.0161,-0.5531 -0.4819,-0.8531 -0.4921,-0.8705z"/>
   <path class="fil0" d="M81.9736 132.2419c-0.0186,-0.1682 -0.0251,-0.3199 -0.0264,-0.456 0.0024,-0.6508 0.1805,-0.9213 0.3212,-1.0459 0.0725,-0.063 0.1407,-0.093 0.1902,-0.1079 0.0501,-0.0141 0.0642,-0.0091 0.0642,-0.0128l0.0624 0 0.0526 -0.034c0.4541,-0.2955 0.6508,-0.6379 0.6487,-0.9585 -0.0159,-0.5499 -0.4791,-0.8488 -0.4893,-0.8659 -0.3933,-0.3013 -0.6246,-0.663 -0.7569,-0.9501 -0.1329,-0.286 -0.1587,-0.4805 -0.1618,-0.4805l-0.0057 -0.038 -0.0187 -0.0327c-0.1235,-0.2145 -0.1618,-0.3616 -0.1599,-0.429 0.005,-0.081 0.0057,-0.0869 0.2434,-0.1093 0.1877,-0.0032 0.4299,0.0527 0.6244,0.1086 0.1928,0.0546 0.3399,0.1105 0.3404,0.1092l0.2534 0.0983 0.0274 -0.2692c0.0156,-0.142 0.0226,-0.2749 0.0226,-0.4021 0.0014,-1.1274 -0.5729,-1.6215 -0.6045,-1.644l-0.0218 -0.0186 -0.0277 -0.0115c-1.0543,-0.4522 -1.1312,-1.2014 -1.1402,-1.5128 0,-0.083 0.0084,-0.1203 0.0076,-0.1203l0.0065 -0.0442 -0.0109 -0.0417c-0.2197,-0.8435 -1.0355,-1.0401 -1.6767,-1.0332 -0.3779,0.0007 -0.7277,0.0605 -0.9514,0.108 -0.1299,-0.634 -0.7028,-1.809 -0.7053,-1.8315l-0.3065 -0.6513 -0.0863 0.715c-0.0551,0.5209 -0.526,1.0484 -1.0078,1.4255 -0.4772,0.3783 -0.9372,0.6057 -0.9372,0.6076l-0.018 0.0085 -0.0162 0.0121c-0.5774,0.4503 -1.7949,0.5571 -2.5362,0.5507 -0.3795,0 -0.6339,-0.0213 -0.6346,-0.0213 -0.07,-0.0053 -0.1361,-0.0077 -0.1977,-0.0071 -0.5325,-0.0026 -0.8763,0.1594 -1.0684,0.386 -0.1927,0.2243 -0.219,0.4748 -0.2197,0.6097 0,0.0418 0.0025,0.074 0.0052,0.0932 0,0.0237 0.0007,0.0469 0.0007,0.0681 -0.0271,1.1903 -0.5833,1.2553 -1.0053,1.2873 -0.1999,0 -0.3412,-0.043 -0.3418,-0.0397 -0.1415,-0.034 -0.2629,-0.0482 -0.376,-0.0482 -0.3199,-0.0064 -0.5813,0.1388 -0.7168,0.3579 -0.1388,0.2157 -0.1747,0.4708 -0.176,0.7239 0.0018,0.6423 0.2545,1.3189 0.257,1.3298l0.0365 0.1001 0.1035 0.0284c0.0224,-0.0013 0.0893,0.061 0.1336,0.23 0.0423,0.1618 0.0597,0.3847 0.0591,0.5922 0,0.2711 -0.0265,0.5126 -0.0339,0.5891 -0.1126,0.2622 -0.3336,0.4515 -0.5584,0.5801 -0.1927,0.0604 -0.4014,0.1381 -0.6276,0.2396l0.1241 0.3918c0.0081,-0.0065 0.325,-0.0591 0.6732,-0.2512 0.3514,-0.1047 0.6294,-0.1382 0.8428,-0.1388 0.2189,0.0006 0.3701,0.036 0.462,0.0681 0.0313,0.0104 0.0557,0.0212 0.0744,0.0302 0.4901,1.0651 0.9713,1.4499 1.4525,1.4588 0.6076,-0.0219 0.8891,-0.5864 0.9051,-0.5962 0.3097,-0.7285 0.6651,-0.7682 0.8531,-0.7798 0.0798,0 0.1118,0.0173 0.1139,0.0116l0.0256 0.009 0.025 0.0013c0.8565,0.0739 0.9991,0.302 1.0099,0.6057 0.0143,0.4401 -0.483,1.1969 -1.0059,1.7885 -0.5184,0.5988 -1.0375,1.06 -1.0375,1.0612l-0.5352 0.4748 0.7067 -0.1156 9.4942 -1.5657 -0.0226 -0.1952z"/>
   <path class="fil0" d="M107.4177 107.1383c-1.1532,-1.6664 -4.4307,-2.0833 -5.3518,-2.181 0.0772,-0.3437 0.1117,-0.6694 0.1117,-0.9766 -0.0065,-2.107 -1.581,-3.2434 -1.5988,-3.2594 -0.7645,-0.5564 -1.4706,-0.7542 -2.0692,-0.7529 -1.238,0.0038 -1.9684,0.8159 -1.9856,0.832l-0.3295 0.3635 0.4901 -0.018c0.0225,-0.0007 0.048,-0.0007 0.0757,-0.0007 1.2309,0.0065 1.8275,0.5352 2.163,1.0697 0.1664,0.2685 0.2591,0.5402 0.3083,0.7438 0.0509,0.2038 0.0566,0.3277 0.0579,0.3277 0.0059,0.0988 0.0084,0.1959 0.0084,0.2878 -0.016,1.9997 -1.3536,2.1013 -1.9054,2.1282 -0.005,0 -0.0084,0 -0.0121,0l0 -0.5043 -7.245 0 0 -6.6661 -0.3751 0c0.8254,-1.1905 1.1401,-3.7074 1.1588,-3.7267 0.0314,-0.2202 0.0463,-0.4406 0.0457,-0.6585 -0.0143,-3.0859 -2.8581,-5.7866 -2.8653,-5.8045l-0.3513 -0.3373 0 0.4863c0.0097,0.6212 -0.609,2.0595 -1.2364,3.2834 -0.6251,1.2321 -1.2516,2.2836 -1.2528,2.2863 -0.1123,0.1921 -0.1521,0.4175 -0.1528,0.6604 0.0109,1.2065 0.9847,3.0778 1.3888,3.8108l-0.4715 0 0 6.6668 -7.245 0 0 0.5043c-0.0043,0 -0.0077,0 -0.0121,0 -0.5525,-0.0271 -1.892,-0.1292 -1.9067,-2.1289 -0.0006,-0.0919 0.0025,-0.187 0.0091,-0.2866 -0.0007,-0.0012 0.0339,-0.5363 0.3655,-1.0721 0.3367,-0.5338 0.932,-1.0632 2.1637,-1.0689 0.0276,0 0.0519,0 0.0757,0.0006l0.4914 0.018 -0.3302 -0.3637c-0.0178,-0.0172 -0.7481,-0.828 -1.9863,-0.8324 -0.5985,0 -1.3045,0.1972 -2.0691,0.7541 -0.0172,0.0154 -1.593,1.1519 -1.5988,3.2589 0,0.3064 0.0341,0.6321 0.1116,0.9765 -0.9224,0.0975 -4.1978,0.5146 -5.351,2.1808l-0.0773 0.1151 0.0773 0.1143c1.1532,1.6671 4.43,2.0833 5.351,2.181 -0.0775,0.3435 -0.1116,0.67 -0.1116,0.9764 0.0058,2.1065 1.5816,3.2436 1.5994,3.2589 0.7647,0.5563 1.4693,0.7547 2.0685,0.7536 1.2387,-0.004 1.9685,-0.8147 1.9863,-0.8314l0.3201 -0.3534 -0.476 0.0064c-0.0271,0.0007 -0.0539,0.0007 -0.0803,0.0007 -1.2328,-0.0057 -1.8275,-0.5345 -2.1637,-1.0689 -0.1656,-0.2684 -0.259,-0.5403 -0.3089,-0.7439 -0.0503,-0.203 -0.0547,-0.3276 -0.0572,-0.3276 -0.0059,-0.1007 -0.0091,-0.1967 -0.0091,-0.2871 0.0154,-1.9997 1.3542,-2.1014 1.9061,-2.129 0.0044,0 0.0084,0 0.0127,0l0 0.5058 7.2457 0 0 23.9967 0.6488 0c-0.0065,0.1072 -0.0128,0.2421 -0.0128,0.4072 0.0057,0.8711 0.1445,2.4496 1.3041,3.2397l0.1142 0.0771 0.1155 -0.0771c1.1596,-0.789 1.2984,-2.3692 1.3028,-3.2403 0,-0.1651 -0.0057,-0.3 -0.0122,-0.4066l0.6502 0 0 -23.9967 7.2449 0 0 -0.5063c0.0044,0 0.0071,0 0.0115,0 0.5519,0.0283 1.892,0.1299 1.9061,2.1296 0.0006,0.0904 -0.0019,0.1868 -0.0084,0.2871l0 0.0007c0,0.023 -0.0411,0.546 -0.366,1.0708 -0.3367,0.5338 -0.9322,1.0632 -2.1639,1.0689 -0.0256,0 -0.0525,0 -0.079,-0.0007l-0.476 -0.0064 0.3195 0.3528c0.0178,0.0173 0.7469,0.828 1.9862,0.832 0.0014,0 0.0025,0 0.0038,0 0.5968,0 1.3022,-0.1981 2.0648,-0.7531 0.0184,-0.0153 1.5929,-1.1523 1.5988,-3.2588 0,-0.3064 -0.0339,-0.6327 -0.1111,-0.9764 0.9212,-0.0976 4.1986,-0.5145 5.3511,-2.1809l0.0772 -0.115 -0.0765 -0.1162z"/>
   <path class="fil5" d="M78.7641 108.3896c-0.3128,0.0007 -0.8813,0.0508 -1.3921,0.4047 -0.5137,0.3532 -0.932,1.0239 -0.9275,2.1392 0,0.1001 0.0031,0.205 0.0101,0.3129 0.0027,0.0185 0.038,0.6307 0.4266,1.2623 0.3367,0.5557 0.9721,1.1145 2.0403,1.2405 -0.0122,0.0077 -0.0244,0.0154 -0.0371,0.023 -0.2929,0.1768 -0.7137,0.3521 -1.2367,0.3521 -0.508,-0.0006 -1.1183,-0.1618 -1.8248,-0.6733 -0.0021,-0.0013 -0.3515,-0.2544 -0.7113,-0.7528 -0.3603,-0.5005 -0.7176,-1.2295 -0.7176,-2.172 0,-0.3384 0.0463,-0.7053 0.1554,-1.1011l0.0683 -0.2436 -0.2527 -0.0186c-0.0018,0 -1.0406,-0.0758 -2.2297,-0.3745 -1.1339,-0.2795 -2.3872,-0.7798 -2.9686,-1.5353 0.5814,-0.7555 1.8347,-1.2553 2.9686,-1.5347 1.1891,-0.2988 2.2279,-0.3733 2.2297,-0.3746l0.2531 -0.0187 -0.0687 -0.2427c-0.1103,-0.3964 -0.1554,-0.7632 -0.1554,-1.1018 0,-0.9429 0.3573,-1.6728 0.7176,-2.172 0.3598,-0.4985 0.7124,-0.7477 0.7113,-0.7515 0.7065,-0.5125 1.3168,-0.6746 1.8248,-0.6751 0.523,0 0.9438,0.1746 1.2367,0.3526 0.0128,0.0084 0.0257,0.0155 0.0371,0.0232 -1.0682,0.1252 -1.7035,0.6842 -2.0403,1.2398 -0.3879,0.632 -0.4239,1.2443 -0.4266,1.2629 -0.007,0.1074 -0.0101,0.2121 -0.0101,0.313 -0.0052,1.1138 0.4138,1.7851 0.9275,2.1379 0.5107,0.3538 1.08,0.404 1.3928,0.4053 0.0038,0 0.0091,0 0.0122,0l0 2.2728c-0.0038,0 -0.0084,0 -0.0129,0z"/>
   <path class="fil5" d="M97.393 108.3896c0.3128,0.0007 0.8807,0.0508 1.3915,0.4047 0.5139,0.3532 0.9328,1.0239 0.9281,2.1392 0,0.1001 -0.0038,0.205 -0.0101,0.3129 -0.0027,0.0185 -0.0386,0.6307 -0.4266,1.2623 -0.3367,0.5557 -0.9721,1.1145 -2.0403,1.2405 0.0122,0.0077 0.0244,0.0154 0.0371,0.023 0.2935,0.1768 0.7145,0.3521 1.2374,0.3521 0.508,-0.0006 1.1183,-0.1618 1.8248,-0.6733 0.0014,-0.0013 0.3516,-0.2544 0.7108,-0.7528 0.3608,-0.5005 0.7174,-1.2295 0.7174,-2.172 0,-0.3384 -0.0456,-0.7053 -0.1546,-1.1011l-0.0688 -0.2436 0.2524 -0.0186c0.0019,0 1.0414,-0.0758 2.2304,-0.3745 1.1339,-0.2795 2.3872,-0.7798 2.9686,-1.5353 -0.5814,-0.7555 -1.8347,-1.2553 -2.9686,-1.5347 -1.189,-0.2988 -2.2285,-0.3733 -2.2304,-0.3746l-0.2531 -0.0187 0.0695 -0.2427c0.1102,-0.3964 0.1546,-0.7632 0.1546,-1.1018 0,-0.9429 -0.3566,-1.6728 -0.7174,-2.172 -0.3592,-0.4985 -0.7126,-0.7477 -0.7108,-0.7515 -0.7065,-0.5125 -1.3174,-0.6746 -1.8248,-0.6751 -0.5237,0 -0.9439,0.1746 -1.2374,0.3526 -0.0128,0.0084 -0.025,0.0155 -0.0371,0.0232 1.0682,0.1252 1.7035,0.6842 2.0403,1.2398 0.3879,0.632 0.4239,1.2443 0.4266,1.2629 0.007,0.1074 0.0101,0.2121 0.0101,0.313 0.0052,1.1138 -0.4142,1.7851 -0.9281,2.1379 -0.5107,0.3538 -1.08,0.404 -1.3928,0.4053 -0.0037,0 -0.0084,0 -0.0122,0l0 2.2728c0.0044,0 0.009,0 0.0135,0z"/>
   <path class="fil5" d="M86.2666 97.1683c-0.3795,-0.8152 -0.7522,-1.8161 -0.7475,-2.4483 -0.0013,-0.1966 0.0347,-0.3501 0.0943,-0.4484 0.0032,-0.0244 2.1141,-3.5183 2.4904,-5.3261 0.2636,0.2896 0.6707,0.7689 1.0799,1.3785 0.6893,1.0267 1.3683,2.4105 1.3657,3.8218 0,0.1992 -0.0128,0.3994 -0.0416,0.6012 0,0.0014 -0.1118,0.7863 -0.3405,1.6682 -0.2113,0.8385 -0.5588,1.7661 -0.9334,2.1156l-2.2688 0c-0.1208,-0.2133 -0.4093,-0.7363 -0.6984,-1.3625z"/>
   <path class="fil5" d="M89.083 133.7136c0.0052,0.7979 -0.16,2.1597 -1.0047,2.8144 -0.8466,-0.6547 -1.0104,-2.0165 -1.0052,-2.8138 0,-0.1689 0.0063,-0.3057 0.0134,-0.4072l1.9837 0c0.0063,0.1015 0.0129,0.2383 0.0129,0.4066z"/>
   <polygon class="fil6" points="79.1913,108.8952 86.4363,108.8952 86.4363,132.8913 89.7208,132.8913 89.7208,108.8952 96.9652,108.8952 96.9652,105.6112 89.7197,105.6112 89.7197,98.9457 86.4363,98.945 86.4363,105.6112 79.1913,105.6112 "/>
   <path class="fil0" d="M115.4766 43.7481c0.016,-0.3157 0.0263,-0.638 0.0263,-0.9735 0.0007,-0.4688 -0.016,-0.9556 -0.0501,-1.4604 -0.0013,-0.0214 -0.1503,-2.2086 -1.7346,-4.7346 -0.1785,-0.2845 -0.3781,-0.5739 -0.5953,-0.8649 0.235,-0.2632 0.3828,-0.6069 0.3828,-0.9917 -0.0012,-0.8305 -0.668,-1.4949 -1.4889,-1.4965 -0.3508,0 -0.6702,0.1266 -0.9265,0.3288 -1.2936,-1.1067 -2.9711,-2.1313 -5.1348,-2.9141 0.0078,-0.046 0.0143,-0.0904 0.0143,-0.1382 -0.0006,-0.4835 -0.395,-0.8699 -0.8761,-0.8715 -0.3431,0.0016 -0.6353,0.199 -0.7775,0.4868 -0.2966,-0.0807 -0.5985,-0.1595 -0.9117,-0.2319 -0.0095,-0.0017 -5.7101,-1.3189 -14.0324,-1.4472 0.7632,-0.4473 1.2801,-1.268 1.2816,-2.2186 -0.0008,-1.0886 -0.6779,-2.0178 -1.6325,-2.3928l0.0007 -2.1412 1.0292 0 0 -1.8862 -1.0299 0 0 -1.1249 -1.8846 0 0 1.1249 -1.0297 0 0 1.8862 1.0284 0 0.0013 2.1412c-0.9552,0.375 -1.6316,1.3042 -1.6331,2.3928 0.0022,0.9506 0.5184,1.7712 1.2809,2.2186 -8.3215,0.1283 -14.0223,1.4455 -14.0317,1.4472 -0.3131,0.0724 -0.6151,0.1512 -0.9116,0.2319 -0.1421,-0.2878 -0.4345,-0.4852 -0.7775,-0.4868 -0.4812,0.0016 -0.8762,0.388 -0.8768,0.8715 0,0.0477 0.0071,0.0921 0.0141,0.1382 -2.1635,0.7828 -3.84,1.8074 -5.1348,2.9141 -0.2569,-0.2023 -0.5761,-0.3288 -0.9268,-0.3288 -0.8198,0.0016 -1.4872,0.666 -1.489,1.4965 0,0.3832 0.1476,0.7286 0.3834,0.9917 -0.2169,0.291 -0.4176,0.5804 -0.5954,0.8649 -1.5841,2.5261 -1.7332,4.7133 -1.7351,4.7346 -0.0335,0.5049 -0.0502,0.9916 -0.0495,1.4604 0,0.3354 0.0109,0.6578 0.0265,0.9735 -0.6618,0.3454 -1.1217,1.0312 -1.1217,1.8337 0.0013,1.0411 0.7804,1.8928 1.7825,2.036 0.3694,1.1741 0.8571,2.151 1.3909,2.9618 -0.0173,0.0888 -0.0339,0.1792 -0.0404,0.2795l-0.0078 0.0872 0.0573 0.0658c0.0024,0.0033 0.6694,0.7647 1.493,1.5327 0.1188,0.1085 0.2409,0.217 0.3636,0.324 -0.02,0.0889 -0.0327,0.1809 -0.0327,0.2746 0,0.7022 0.567,1.2762 1.2705,1.2762 0.3181,0 0.6059,-0.1233 0.8294,-0.319 0.0339,0.0049 0.0701,0.0148 0.1034,0.0164 0.0058,0 0.0108,-0.0033 0.0174,-0.0033l1.4171 1.9176c-0.0791,0.1776 -0.1155,0.3453 -0.1155,0.5016 0.0206,0.6234 0.5234,0.8979 0.7419,0.9933l0.5255 1.4423c-0.8101,0.3321 -1.3883,0.9045 -1.4075,1.5689 0,0.0757 0.0098,0.1529 0.0276,0.2269 0.1742,0.6858 0.9457,1.0196 1.8212,1.023 0.1691,0 0.3449,-0.0182 0.5229,-0.0444l0.2552 1.184c-0.1081,0.1102 -0.2757,0.3175 -0.3194,0.602 -0.0065,0.0509 -0.0103,0.1002 -0.0103,0.1495 -0.0077,0.3717 0.2274,0.6119 0.4318,0.6957 0.2042,0.0937 0.3835,0.092 0.3996,0.092l0.0262 0 0.0239 -0.0066c5.9607,-1.4866 11.8355,-1.9569 16.9534,-1.9569 5.1186,0 10.9935,0.4703 16.9543,1.9569l0.0243 0.0066 0.0264 0c0.0161,0 0.1953,0.0017 0.399,-0.092 0.2049,-0.0839 0.44,-0.3241 0.4323,-0.6957 0,-0.0493 -0.0039,-0.0986 -0.0102,-0.1495 -0.0438,-0.2845 -0.2119,-0.4918 -0.3194,-0.602l0.255 -1.184c0.178,0.028 0.3533,0.0444 0.5223,0.0444 0.8757,-0.0034 1.647,-0.3371 1.8219,-1.023 0.0172,-0.074 0.027,-0.1512 0.027,-0.2269 -0.0186,-0.6644 -0.5969,-1.2367 -1.4076,-1.5689l0.5263 -1.4423c0.2176,-0.0954 0.7206,-0.37 0.7411,-0.9933 0,-0.1562 -0.037,-0.324 -0.1149,-0.5016l1.4171 -1.9176c0.0059,0 0.0112,0.0033 0.0175,0.0033 0.0326,-0.0016 0.0688,-0.0115 0.1027,-0.0164 0.2236,0.1957 0.5113,0.319 0.8294,0.319 0.7034,0 1.2699,-0.5739 1.2699,-1.2762 0,-0.0937 -0.0122,-0.1858 -0.032,-0.2746 0.1228,-0.1069 0.244,-0.2154 0.3637,-0.324 0.8242,-0.768 1.4903,-1.5294 1.4922,-1.5327l0.0585 -0.0658 -0.0084 -0.0872c-0.0063,-0.1003 -0.0225,-0.1908 -0.0404,-0.2795 0.5331,-0.8108 1.0221,-1.7877 1.3903,-2.9618 1.0028,-0.1432 1.7819,-0.9949 1.7833,-2.036 -0.0021,-0.8026 -0.4614,-1.4883 -1.1236,-1.8337zm-39.5441 -9.4478l0 0c-0.0566,0.0164 -0.1126,0.0311 -0.169,0.0476 -0.0122,0.0017 -0.0239,0.0066 -0.0355,0.0099 -0.1888,-0.0888 -0.3955,-0.1431 -0.6178,-0.1431 -0.5506,0 -1.0279,0.301 -1.288,0.745 -3.2004,1.1347 -6.153,2.8549 -7.8206,5.4697 0.255,-0.9341 0.5723,-1.7301 0.8936,-2.3731 0.3513,-0.7055 0.7027,-1.235 0.9655,-1.5869 0.2614,-0.352 0.4285,-0.518 0.4279,-0.5197 2.5561,-2.5901 6.2724,-4.1328 9.3508,-5.0175 1.0289,-0.296 1.9843,-0.5197 2.8009,-0.6842 -2.1264,0.9966 -3.5543,2.5507 -4.5077,4.0522zm9.9095 -1.5015l0 0c-1.4472,0.074 -3.4149,0.2351 -5.5752,0.5788 0.183,-0.2368 0.3804,-0.4802 0.5948,-0.7236 1.3477,-1.5376 3.288,-3.0785 5.7275,-3.2957 -0.1433,0.5196 -0.4522,1.7334 -0.747,3.4404zm4.4725 0l0 0c-0.295,-1.707 -0.6046,-2.9208 -0.7478,-3.4404 2.4412,0.2171 4.3805,1.758 5.7283,3.2957 0.2146,0.2434 0.4117,0.4868 0.5948,0.7236 -2.1598,-0.3437 -4.128,-0.5049 -5.5752,-0.5788zm12.0206 2.1626l0 0c-0.2597,-0.4457 -0.7377,-0.7466 -1.2879,-0.7466 -0.2231,0 -0.4306,0.0543 -0.6194,0.1431 -0.0116,-0.0033 -0.024,-0.0066 -0.0354,-0.0099 -0.0559,-0.0148 -0.1118,-0.0296 -0.1675,-0.046 -0.9534,-1.5015 -2.3809,-3.0572 -4.5086,-4.0538 0.8172,0.1644 1.7719,0.3881 2.801,0.6842 3.0789,0.8847 6.7946,2.4273 9.3507,5.0175 -0.0006,0.0017 0.1665,0.1677 0.4286,0.5197 0.2627,0.3519 0.6135,0.8814 0.9655,1.5869 0.3219,0.6463 0.6417,1.4472 0.8969,2.3863 -1.6665,-2.6231 -4.6208,-4.3466 -7.8238,-5.4813z"/>
   <path class="fil5" d="M68.2936 53.6269c0.5281,-0.2056 1.0419,-0.4193 1.281,-0.6446 0.0187,-0.0345 0.5376,-0.4983 0.5609,-1.0492 0.0057,-0.199 -0.1048,-0.4194 -0.32,-0.5394 -0.2126,-0.1233 -0.5043,-0.1809 -0.9231,-0.1825 -0.183,0.0016 -0.3912,0.0131 -0.6289,0.0377 0.0115,-0.1168 0.022,-0.2632 0.022,-0.4243 -0.0008,-0.2993 -0.0323,-0.643 -0.1708,-0.9423 -0.1306,-0.2993 -0.4267,-0.5575 -0.845,-0.5493 -0.287,0.0017 -0.6207,0.1052 -1.024,0.3273 -0.5473,-1.9669 -0.7618,-3.7232 -0.7618,-5.269 0,-0.9062 0.079,-1.7334 0.2023,-2.4948 1.3255,-3.1132 4.4289,-5.1261 7.9505,-6.4269 -0.0128,0.079 -0.0247,0.1562 -0.0247,0.2385 0.0007,0.6347 0.4048,1.1774 0.9683,1.3929 -0.3168,0.9095 -0.4226,1.5228 -0.4239,1.5278 -0.1177,0.6792 -0.1703,1.3633 -0.1703,2.0425 0,0.0708 0.0057,0.1399 0.007,0.2105 -0.9404,0.1941 -1.6477,1.0295 -1.6477,2.0244 0.0012,1.1496 0.9256,2.0738 2.0654,2.0738 0.064,0 0.1245,-0.0132 0.1867,-0.0181 0.1189,0.4391 0.2508,0.8618 0.3887,1.2696 -0.0244,0.028 -0.052,0.0509 -0.0738,0.0822 -0.0945,0.1333 -0.1317,0.2911 -0.131,0.4408 0.0127,0.3996 0.2355,0.8206 0.4695,1.1578 -0.1042,-0.0214 -0.2031,-0.0312 -0.2963,-0.0312 -0.7136,0.005 -1.0014,0.5559 -1.0117,0.5789 -0.1483,0.2877 -0.2139,0.5476 -0.2132,0.7812 0.0155,0.6183 0.4298,0.9439 0.7245,1.0969 -0.2759,0.3355 -0.3993,0.6315 -0.4007,0.9062 0.0481,0.8502 1.0357,0.9998 1.0357,1.0163 0.0558,0.0116 0.113,0.0165 0.1709,0.0165 0.3103,-0.0099 0.6783,-0.1595 1.0495,-0.3667 -0.0726,0.1216 -0.1445,0.245 -0.2158,0.3683 -0.2852,0.4984 -0.5325,0.9654 -0.6353,1.1595 -0.5545,0.0691 -3.1607,0.3783 -5.1931,0.3783 -0.2281,0 -0.4497,-0.005 -0.6592,-0.0115 -0.4974,-0.0198 -0.9412,-0.0921 -1.2906,-0.1678 -0.0083,-0.0033 -0.0154,-0.0066 -0.0219,-0.0099z"/>
   <path class="fil5" d="M97.4342 35.8084c0.3319,0.6906 0.4746,1.9454 0.472,3.4207 0.0008,1.8123 -0.2011,3.96 -0.4476,5.9072 -0.0386,-0.0066 -0.0773,-0.0165 -0.1158,-0.0198 -0.0616,0 -0.1263,0.0082 -0.1887,0.0247 -0.5455,0.1201 -0.8763,0.5 -0.8519,1.0263 0.0014,0.3157 0.0779,0.6923 0.2006,1.1807 -0.263,-0.1299 -0.6123,-0.2582 -0.9612,-0.2631 -0.1207,0 -0.2448,0.0164 -0.365,0.0608 -0.3006,0.1134 -0.8394,0.4375 -0.8544,1.0706 0.0007,0.3321 0.1633,0.6906 0.5384,1.0805 -0.2538,0.2648 -0.7414,0.8321 -0.7613,1.4225 -0.0058,0.5196 0.4613,0.9193 1.4184,0.9752l0.0522 0.0033 0.0468 -0.0214c0.0027,-0.0016 0.0739,-0.0328 0.1888,-0.0855l-0.7354 0.8519 -5.1566 -0.0149c-0.0052,-0.1891 -0.0103,-0.495 -0.0103,-0.8403 -0.0006,-0.3289 0.0057,-0.6989 0.0237,-1.0296 0.1756,0.0921 0.2917,0.1513 0.2931,0.1513l0.0598 0.0312 0.0654 -0.0132c1.1113,-0.1611 1.5842,-0.643 1.5796,-1.1972 -0.0141,-0.5131 -0.3534,-0.9654 -0.5703,-1.2071 0.4212,-0.3158 0.5948,-0.7088 0.5909,-1.0641 -0.0076,-0.4637 -0.2442,-0.8272 -0.4798,-0.9965 -0.187,-0.1283 -0.408,-0.1628 -0.6283,-0.1628 -0.0572,0 -0.1143,0.0049 -0.172,0.0099 0.2382,-1.8633 0.3363,-3.6657 0.3363,-5.3547 -0.0005,-2.9437 -0.2901,-5.5421 -0.616,-7.5385 1.5217,0.0806 3.602,0.2582 5.8601,0.6381 0.7798,1.0936 1.1877,1.952 1.1885,1.9537z"/>
   <path class="fil5" d="M85.4914 46.1097c-0.0579,-0.0033 -0.1155,-0.0099 -0.1722,-0.0099 -0.2197,0.0016 -0.4408,0.0361 -0.6283,0.1628 -0.2356,0.171 -0.4715,0.5328 -0.4799,0.9965 -0.0038,0.3553 0.1698,0.7483 0.5918,1.0641 -0.2177,0.2434 -0.5571,0.6939 -0.5705,1.2087 -0.0045,0.5526 0.4683,1.0345 1.5796,1.1973l0.0656 0.0115 0.0599 -0.0297c0.0005,-0.0016 0.1173,-0.0608 0.2928,-0.1529 0.018,0.3322 0.0243,0.7006 0.0237,1.0296 0,0.347 -0.0057,0.6528 -0.0109,0.8403l-5.1566 0.0165 -0.7354 -0.8519c0.1149,0.051 0.187,0.0823 0.1888,0.0839l0.0474 0.0214 0.0523 -0.0033c0.9564,-0.0559 1.4235,-0.4555 1.4177,-0.9752 -0.0194,-0.5904 -0.5076,-1.1578 -0.7613,-1.4225 0.3751,-0.3898 0.5377,-0.7483 0.5383,-1.0789 -0.0142,-0.6347 -0.5537,-0.9588 -0.8537,-1.0722 -0.1207,-0.0444 -0.2448,-0.0608 -0.3657,-0.0608 -0.3494,0.0049 -0.6981,0.1348 -0.9608,0.2631 0.1227,-0.4868 0.1989,-0.8633 0.2009,-1.1807 0.0246,-0.5263 -0.3057,-0.9062 -0.8516,-1.0246 -0.0631,-0.0182 -0.1274,-0.0248 -0.1897,-0.0248 -0.0384,0.0017 -0.0771,0.0133 -0.1157,0.0182 -0.2459,-1.9471 -0.4484,-4.0949 -0.447,-5.9072 -0.0026,-1.4752 0.1395,-2.73 0.4717,-3.4191 0.0003,-0.0033 0.4083,-0.8618 1.1889,-1.9537 2.2586,-0.3816 4.3387,-0.5575 5.86,-0.6397 -0.3257,1.9964 -0.6153,4.5965 -0.616,7.5385 0,1.689 0.0974,3.4914 0.3359,5.3547z"/>
   <path class="fil5" d="M106.5517 53.8046c-0.2094,0.0082 -0.4305,0.0131 -0.6592,0.0131 -2.0331,0 -4.6393,-0.3092 -5.1937,-0.3783 -0.1023,-0.1957 -0.3502,-0.6611 -0.6348,-1.161 -0.0713,-0.1217 -0.1439,-0.2467 -0.2158,-0.3667 0.3708,0.2072 0.7397,0.3552 1.0496,0.3667 0.0579,0 0.1145,-0.0049 0.1702,-0.0181 0,-0.0165 0.9875,-0.1644 1.0358,-1.0163 -0.0015,-0.2746 -0.1248,-0.5706 -0.4008,-0.9046 0.2948,-0.1545 0.709,-0.4785 0.7239,-1.0969 0.0013,-0.2352 -0.0641,-0.4934 -0.2132,-0.7828 -0.0102,-0.0214 -0.2981,-0.5723 -1.0118,-0.5772 -0.0933,0 -0.192,0.0099 -0.2956,0.0312 0.2333,-0.3371 0.4568,-0.7581 0.469,-1.1578 0.0007,-0.1513 -0.0365,-0.3076 -0.131,-0.4425 -0.0213,-0.0312 -0.0495,-0.0542 -0.0738,-0.0822 0.1372,-0.4078 0.2696,-0.8289 0.3886,-1.2696 0.0623,0.0065 0.1226,0.0197 0.1869,0.0197 1.1389,0 2.0633,-0.9258 2.0652,-2.0737 0,-0.9949 -0.708,-1.832 -1.6476,-2.0261 0.0012,-0.0707 0.0075,-0.1398 0.0075,-0.2088 0,-0.6792 -0.0526,-1.3633 -0.1702,-2.0442 -0.0013,-0.0033 -0.1078,-0.6168 -0.4247,-1.5261 0.5635,-0.2171 0.9677,-0.7581 0.9683,-1.393 0,-0.0823 -0.0115,-0.1611 -0.0245,-0.2384 3.5248,1.3024 6.6309,3.3186 7.953,6.445 0.1213,0.7564 0.1991,1.5771 0.1991,2.4766 0,1.5459 -0.214,3.3023 -0.7612,5.2691 -0.404,-0.2237 -0.7364,-0.3257 -1.0241,-0.3289 -0.4189,-0.0066 -0.7149,0.2517 -0.8453,0.5509 -0.1388,0.2977 -0.1695,0.643 -0.171,0.9424 0.0008,0.1594 0.0104,0.3075 0.0219,0.4243 -0.237,-0.0264 -0.4458,-0.0378 -0.6288,-0.0378 -0.419,0.0016 -0.7106,0.0592 -0.9231,0.1825 -0.2153,0.1184 -0.3256,0.3404 -0.32,0.5378 0.0238,0.551 0.5427,1.0147 0.5609,1.0492 0,0 0,0 0,0.0016 0,0 0,0 0.0006,0 0.2384,0.2237 0.7516,0.4375 1.2803,0.643 -0.0071,0.0049 -0.0142,0.0083 -0.0212,0.0116 -0.3494,0.074 -0.792,0.1464 -1.2893,0.1661z"/>
   <path class="fil1" d="M94.0795 30.0755c2.9492,0.8649 4.7738,2.7808 5.8927,4.6014 -0.2575,0.268 -0.4168,0.6298 -0.4168,1.0328 0,0.819 0.6654,1.4932 1.4911,1.4949 0.0421,0 0.0816,-0.0099 0.1233,-0.0132 0.3179,0.8996 0.4227,1.5065 0.4227,1.5081 0.1135,0.6546 0.1637,1.3156 0.1637,1.9735 0,0.0559 -0.0057,0.1118 -0.0065,0.1677 -0.0013,0 -0.0026,-0.0016 -0.0037,-0.0016 -1.1495,0 -2.0764,0.9307 -2.0764,2.0688 0.0013,0.9373 0.6238,1.7169 1.4763,1.9751 -0.0994,0.3668 -0.2049,0.7252 -0.3185,1.0689 -0.1627,-0.0773 -0.3452,-0.1151 -0.5372,-0.1118 -0.3816,0.0017 -0.8165,0.1217 -1.351,0.3076 -0.1837,-0.2073 -0.6005,-0.6562 -1.0804,-0.8864 0.2518,-1.9785 0.46,-4.1722 0.4606,-6.0322 -0.0027,-1.5032 -0.1299,-2.7843 -0.512,-3.5967 -0.0117,-0.0066 -1.5032,-3.1871 -4.2983,-5.1672 0.2395,-0.0476 0.4432,-0.1907 0.5703,-0.3896z"/>
   <path class="fil1" d="M87.3133 28.8469c-0.0676,0.1217 -0.108,0.2599 -0.108,0.4078 0.0012,0.4819 0.3899,0.8749 0.8709,0.8765 0,0 0.0013,0 0.002,0 0.0006,0 0.0012,0 0.0019,0 0.4818,-0.0016 0.8692,-0.3946 0.871,-0.8765 0,-0.148 -0.041,-0.2861 -0.108,-0.4078 1.3749,0.0115 2.6816,0.0592 3.9058,0.1266 -0.1696,0.1595 -0.2761,0.3849 -0.2767,0.6348 0,0.0806 0.0147,0.1578 0.0352,0.2319 -0.9507,-0.5081 -2.0222,-0.8552 -3.2114,-0.9144l-0.2923 -0.0132 0.0857 0.2812c0,0.0033 0.3725,1.217 0.7475,3.2759 0.3754,2.059 0.7497,4.9534 0.7497,8.2852 0,1.7087 -0.0983,3.5342 -0.3457,5.4205 -0.1115,0.0247 -0.2189,0.051 -0.3154,0.0806 0.2538,-0.5411 0.3642,-0.9555 0.3655,-1.2926 0.0059,-0.3552 -0.1432,-0.6364 -0.3719,-0.7894 -0.2261,-0.1513 -0.4946,-0.1925 -0.7529,-0.1925 -0.461,0 -0.916,0.1349 -1.0875,0.1909 -0.1714,-0.056 -0.6256,-0.1909 -1.0868,-0.1909 -0.2584,0 -0.5274,0.0411 -0.7528,0.1925 -0.2294,0.1529 -0.3779,0.4342 -0.372,0.7894 0.0013,0.3371 0.1116,0.7515 0.3654,1.2926 -0.0962,-0.0296 -0.2043,-0.0559 -0.3153,-0.0806 -0.2474,-1.8863 -0.3464,-3.7102 -0.3464,-5.4205 0,-3.3318 0.3753,-6.2261 0.7504,-8.2852 0.3751,-2.0589 0.7475,-3.2726 0.7475,-3.2759l0.0857 -0.2812 -0.2929 0.0132c-1.1893,0.0592 -2.2606,0.4062 -3.2108,0.9144 0.0206,-0.0741 0.0346,-0.1513 0.0346,-0.2319 0,-0.25 -0.1065,-0.4753 -0.2767,-0.6348 1.2237,-0.0674 2.5291,-0.1134 3.9045,-0.1266z"/>
   <path class="fil1" d="M82.6469 30.4651c-2.7958,1.9801 -4.2869,5.159 -4.2984,5.1655 -0.3829,0.814 -0.5101,2.0935 -0.5126,3.5984 0.0007,1.86 0.2087,4.0537 0.4613,6.0305 -0.4806,0.2319 -0.8969,0.6809 -1.0807,0.8881 -0.5345,-0.1859 -0.9699,-0.3076 -1.3515,-0.3076 -0.1915,-0.0033 -0.3746,0.0329 -0.5364,0.1118 -0.1137,-0.3453 -0.2189,-0.7038 -0.3188,-1.0706 0.8527,-0.2582 1.4751,-1.0361 1.4764,-1.9734 0,-1.1397 -0.9264,-2.0688 -2.0762,-2.0688 -0.0013,0 -0.0026,0 -0.0041,0 -0.0003,-0.056 -0.0062,-0.1118 -0.0062,-0.1678 -0.0007,-0.6562 0.0501,-1.3172 0.1631,-1.9718 0.0006,-0.0016 0.1054,-0.6085 0.4233,-1.5081 0.0411,0.0033 0.0803,0.0115 0.1227,0.0115 0.8255,0 1.4916,-0.6742 1.4916,-1.4948 0,-0.4013 -0.1599,-0.7631 -0.4168,-1.0329 1.1184,-1.8188 2.9429,-3.7347 5.8928,-4.6014 0.1276,0.2007 0.332,0.3437 0.5704,0.3913z"/>
   <path class="fil1" d="M65.692 50.0106c-0.2775,-0.1513 -0.9881,-0.5033 -1.6779,-0.5081 -0.4196,-0.0165 -0.8474,0.1694 -1.1006,0.5953 -0.4279,-0.6923 -0.8145,-1.513 -1.126,-2.4652 1.0668,-0.0823 1.9117,-0.9637 1.9117,-2.0508 0,-1.1496 -0.9269,-2.0754 -2.0679,-2.0754 -0.1875,0 -0.3654,0.0329 -0.5383,0.0806 -0.0115,-0.268 -0.0264,-0.5312 -0.0264,-0.8123 0,-0.4589 0.0162,-0.9358 0.0495,-1.4324 0,-0.0017 0.034,-0.5148 0.2602,-1.3485 0.2794,-1.018 0.8395,-2.4899 1.9708,-4.0112 0.2301,0.1448 0.5004,0.2319 0.7922,0.2319 0.8237,0 1.4994,-0.6611 1.5001,-1.4916 0,-0.3273 -0.108,-0.6282 -0.2866,-0.8732 1.2579,-1.0706 2.8922,-2.0639 5.0082,-2.8286 0.1592,0.2155 0.4136,0.3586 0.702,0.3586 0.4775,0 0.8571,-0.3849 0.8687,-0.8553 0.2966,-0.0822 0.5993,-0.1611 0.9135,-0.2335 0.0038,-0.0016 1.5591,-0.3601 4.2462,-0.7219 1.4004,-0.1892 3.1067,-0.3783 5.0538,-0.5164 -0.1163,0.1398 -0.1901,0.3142 -0.2019,0.5049 -2.7527,0.4276 -9.7663,1.8797 -13.9491,6.1014 -0.0219,0.0213 -2.9228,2.97 -2.9228,8.7325 0,1.6149 0.228,3.4469 0.8082,5.4927 -0.0617,0.0411 -0.1235,0.0823 -0.1877,0.1267z"/>
   <path class="fil1" d="M105.3073 63.9991c-0.0797,0.0378 -0.1629,0.0493 -0.2023,0.0526 -5.9935,-1.4916 -11.8914,-1.9636 -17.0268,-1.9636 -5.1348,0 -11.0325,0.4703 -17.0261,1.9636 -0.0392,-0.0033 -0.1227,-0.0148 -0.2024,-0.0526 -0.108,-0.0592 -0.1852,-0.1118 -0.1927,-0.3208 0,-0.0279 0.0025,-0.0592 0.0072,-0.0953 0.0108,-0.0953 0.0738,-0.2104 0.1425,-0.2943 0.0385,-0.0494 0.0706,-0.0823 0.0943,-0.1036 0.3085,-0.0757 2.1477,-0.5082 4.9903,-0.9407 3.1182,-0.4769 7.4274,-0.9555 12.1874,-0.9538 4.7601,-0.0017 9.0701,0.4769 12.1882,0.9538 2.8426,0.4342 4.6818,0.865 4.9901,0.9407 0.0234,0.0214 0.056,0.0542 0.0944,0.1036 0.0687,0.0839 0.1312,0.199 0.1427,0.2943 0.0045,0.0361 0.007,0.0675 0.007,0.0953 -0.0088,0.2089 -0.0867,0.2616 -0.194,0.3208z"/>
   <path class="fil1" d="M106.4111 58.832c-0.0655,-0.0198 -0.1291,-0.0411 -0.1968,-0.0576l-1.6341 -0.375c-0.2828,-0.0658 -0.5601,-0.097 -0.8229,-0.097 -0.8711,0.0017 -1.6375,0.3388 -1.8206,1.0279 -0.0187,0.0773 -0.0262,0.1545 -0.0262,0.2319 0.0224,0.8107 0.8812,1.4882 1.9943,1.7531l1.5272 0.3519 -0.2326 1.0788c-1.2874,-0.2993 -8.4547,-1.8698 -17.1212,-1.8715 -8.6666,0.0017 -15.8332,1.5722 -17.1211,1.8715l-0.2318 -1.0788 1.5262 -0.3519c1.1139,-0.2649 1.9727,-0.9423 1.9953,-1.7531 0,-0.0774 -0.0084,-0.1546 -0.0265,-0.2319 -0.1824,-0.689 -0.9495,-1.0262 -1.8206,-1.0279 -0.2633,0 -0.5408,0.0329 -0.8229,0.097l-1.6341 0.375c-0.0675,0.0165 -0.1311,0.0378 -0.1968,0.0576l-0.4804 -1.3174c0.6058,-0.1512 2.4444,-0.5821 5.1874,-1.0163 3.3912,-0.5361 8.1521,-1.0739 13.6252,-1.0739 5.4737,0 10.2346,0.5362 13.6259,1.0739 2.7436,0.4342 4.5815,0.865 5.1874,1.0163l-0.4805 1.3174z"/>
   <path class="fil1" d="M107.3874 57.0147c-0.0937,0.0724 -0.1831,0.1151 -0.2369,0.1381 -0.7626,-0.1957 -8.6179,-2.1428 -19.0723,-2.1428 -10.4544,0 -18.3097,1.9471 -19.0723,2.1428 -0.0539,-0.023 -0.1432,-0.0657 -0.2369,-0.1381 -0.1472,-0.1152 -0.2679,-0.2648 -0.2679,-0.4835 0,-0.0904 0.0308,-0.2073 0.0906,-0.3404 0.4727,-0.097 2.5233,-0.4967 5.6178,-0.8996 3.5428,-0.4604 8.443,-0.921 13.8687,-0.921 5.4263,0 10.3265,0.4605 13.8693,0.921 3.0952,0.4029 5.1457,0.8026 5.6179,0.8996 0.0603,0.1332 0.0905,0.25 0.0905,0.3404 -0.0013,0.2187 -0.122,0.3683 -0.2685,0.4835z"/>
   <path class="fil1" d="M107.6245 55.7796c-1.1107,-0.2236 -9.4054,-1.8221 -19.5463,-1.8237 -10.141,0.0016 -18.4354,1.6001 -19.5469,1.8237l-1.3078 -1.7678c0.0974,-0.0329 0.2253,-0.0773 0.3692,-0.1267 0.3307,0.1003 1.0833,0.2961 1.9958,0.3339 0.2153,0.0082 0.4415,0.0115 0.6754,0.0115 2.328,0 5.3492,-0.393 5.3542,-0.3947l0.1074 -0.0131 0.0495 -0.0971c0.0006,-0.0016 0.3084,-0.5953 0.677,-1.2399 0.2262,-0.4013 0.4895,-0.8305 0.7003,-1.1314 0.447,-0.3322 0.826,-0.6678 1.013,-0.8338 0.2929,0.1808 0.8048,0.4325 1.279,0.6561l1.4532 1.6824 5.7457 -0.0181 0.0076 -0.1974c0,-0.0033 0.0167,-0.4736 0.0167,-1.0557 -0.0006,-0.4029 -0.0076,-0.8536 -0.0359,-1.2466 0.1382,-0.0757 0.2864,-0.1595 0.4363,-0.2467 0.2825,-0.1677 0.5666,-0.347 0.7883,-0.518 0.0803,-0.0691 0.1566,-0.1266 0.2221,-0.1875 0,0 0,0 0.0006,0 0,0 0,0 0.0006,0 0.0654,0.0609 0.142,0.1184 0.2228,0.1875 0.2217,0.171 0.5052,0.3503 0.7884,0.518 0.1491,0.0872 0.2975,0.171 0.4355,0.2467 -0.0282,0.393 -0.0352,0.8437 -0.0358,1.2466 0,0.5821 0.016,1.0524 0.016,1.0557l0.0083 0.1974 5.7457 0.0181 1.4532 -1.6824c0.4741,-0.2236 0.9866,-0.4753 1.2789,-0.6561 0.1871,0.166 0.5661,0.5016 1.0131,0.8338 0.2107,0.3009 0.474,0.7301 0.7003,1.1314 0.3692,0.6446 0.6764,1.2383 0.677,1.2399l0.0494 0.0971 0.1074 0.0131c0.0057,0 3.0264,0.3947 5.3543,0.3947 0.2333,0 0.46,-0.0033 0.676,-0.0115 0.9121,-0.0378 1.6645,-0.2336 1.9952,-0.3339 0.1439,0.0494 0.2711,0.0937 0.3699,0.1267l-1.3104 1.7678z"/>
   <path class="fil1" d="M115.0634 43.587c-0.1728,-0.0476 -0.3514,-0.0806 -0.5388,-0.0806 -1.141,0 -2.0681,0.9275 -2.0681,2.077 0,1.0855 0.8456,1.9669 1.9119,2.0492 -0.3109,0.9522 -0.6983,1.7728 -1.126,2.4652 -0.2525,-0.4259 -0.681,-0.6118 -1.1006,-0.5937 -0.6891,0.005 -1.3996,0.3569 -1.6779,0.5081 -0.0642,-0.046 -0.1258,-0.0872 -0.1871,-0.1266 0.5802,-2.0475 0.8088,-3.8795 0.8088,-5.4928 0,-5.7641 -2.9009,-8.7129 -2.9242,-8.7341 -4.1825,-4.2216 -11.1963,-5.6738 -13.9491,-6.0997 -0.0115,-0.1924 -0.0848,-0.3651 -0.2005,-0.5049 1.9458,0.1365 3.6527,0.3256 5.0532,0.5147 2.6873,0.3618 4.2426,0.7219 4.2462,0.7219 0.3142,0.074 0.6161,0.1513 0.9136,0.2335 0.0109,0.472 0.3905,0.8553 0.8679,0.8553 0.2891,0 0.5435,-0.1415 0.7027,-0.3569 2.1161,0.763 3.7496,1.7563 5.0076,2.827 -0.1786,0.245 -0.2865,0.546 -0.2865,0.8749 0.0011,0.8288 0.6772,1.4899 1.5001,1.4916 0.2922,0 0.5621,-0.0872 0.7927,-0.2319 1.1305,1.5195 1.6907,2.9931 1.9702,4.0095 0.2274,0.8337 0.2602,1.3468 0.2602,1.3485 0.0333,0.4966 0.0501,0.9735 0.0501,1.4324 0,0.2811 -0.0156,0.5443 -0.0265,0.8123z"/>
   <path class="fil0" d="M86.5835 33.6885l0.0012 0c0,0.8321 0.6758,1.4932 1.4994,1.4932 0.819,0 1.4871,-0.6627 1.4884,-1.4932 0,-0.8256 -0.6681,-1.4933 -1.4884,-1.4933 -0.8254,-0.0016 -1.4994,0.6661 -1.5006,1.4933z"/>
   <path class="fil0" d="M88.0782 37.1766c-1.1422,0 -2.0704,0.9258 -2.0712,2.0705 0.0028,1.1495 0.9303,2.0688 2.0712,2.0704 1.1519,-0.0016 2.069,-0.9226 2.071,-2.0704 -0.0026,-1.143 -0.918,-2.0689 -2.071,-2.0705z"/>
   <path class="fil1" d="M87.5495 23.6797l0 -2.4059 -1.0303 0 0 -1.0591 1.0303 0 0 -1.1249 1.0567 0 0 1.1249 1.0304 0 0 1.0591 -1.0304 0 0 2.4059 -0.1593 0c-0.1228,-0.0181 -0.2468,-0.0296 -0.3746,-0.0296 -0.1276,0 -0.2523,0.0115 -0.375,0.0296l-0.1479 0z"/>
   <path class="fil1" d="M85.9186 26.2206c0,1.1989 0.9648,2.1627 2.1546,2.1643 1.2012,0 2.1655,-0.9654 2.1655,-2.1643 0,-1.1906 -0.9643,-2.156 -2.1655,-2.156 -1.1898,0.0017 -2.154,0.9654 -2.1546,2.156z"/>
   <path class="fil4" d="M86.9978 33.6885c0.0014,0.6019 0.4877,1.0804 1.0863,1.0804 0.5909,0 1.0747,-0.4785 1.0747,-1.0804 -0.0005,-0.597 -0.4851,-1.0788 -1.0747,-1.0805 -0.5974,0.0017 -1.0849,0.4851 -1.0863,1.0805z"/>
   <path class="fil4" d="M86.4216 39.2471c0,0.9209 0.7426,1.656 1.6566,1.656 0.9255,-0.0016 1.656,-0.7335 1.656,-1.656 -0.0006,-0.9177 -0.7318,-1.6577 -1.656,-1.6577 -0.9129,0.0016 -1.6554,0.7417 -1.6566,1.6577z"/>
   <path class="fil4" d="M87.6189 29.2565c0.0006,0.2499 0.2119,0.4604 0.4573,0.4621 0.2563,-0.0017 0.4606,-0.2105 0.4613,-0.4621 -0.0007,-0.2516 -0.2017,-0.4572 -0.4613,-0.4572 -0.2479,0 -0.4567,0.2073 -0.4573,0.4572z"/>
   <path class="fil1" d="M69.5104 52.4166c-0.1144,0.1595 -0.2281,0.2713 -0.2281,0.2729 -0.1105,0.125 -0.7459,0.4112 -1.3059,0.6168 -0.4093,0.1529 -0.793,0.2812 -0.9754,0.342 0.0668,-0.1545 0.1048,-0.3256 0.1054,-0.5032 -0.0019,-0.699 -0.5743,-1.2647 -1.2708,-1.2664 -0.4522,0 -0.8459,0.2385 -1.0709,0.5921 -0.0847,-0.0757 -0.1681,-0.1513 -0.249,-0.2286 -0.6605,-0.6151 -1.2194,-1.2285 -1.4012,-1.4324 0.1105,-0.7466 0.437,-0.8683 0.9001,-0.893 0.3488,-0.0033 0.745,0.1266 1.0548,0.2566 0.3071,0.1315 0.528,0.2615 0.53,0.2598l0.118 0.0724 0.1113 -0.0823c0.6904,-0.508 1.1659,-0.6792 1.4408,-0.6759 0.2584,0.0066 0.3662,0.1102 0.4709,0.3125 0.0964,0.2023 0.1317,0.5 0.1311,0.7664 0,0.342 -0.0526,0.6233 -0.052,0.6249l-0.0513 0.2812 0.2832 -0.0394c0.3373,-0.046 0.616,-0.0658 0.8409,-0.0658 0.3798,-0.0016 0.607,0.0592 0.7131,0.1234 0.1027,0.069 0.1098,0.1035 0.1155,0.1825 0.0058,0.1184 -0.0937,0.3256 -0.2105,0.4835z"/>
   <path class="fil1" d="M65.8351 54.0052c0.4665,0 0.855,-0.3881 0.8563,-0.8618 -0.0006,-0.4654 -0.3878,-0.8503 -0.8563,-0.8503 -0.4734,0 -0.855,0.3833 -0.8556,0.8503l-0.0013 0c0.0019,0.4736 0.3854,0.8618 0.8569,0.8618z"/>
   <path class="fil1" d="M75.1949 46.7561c0.0006,-0.0872 0.0188,-0.1496 0.056,-0.204 0.1593,-0.217 0.318,-0.2927 0.6141,-0.2993 0.3135,-0.0016 0.7612,0.12 1.3414,0.3305l0.1355 0.0493 0.0923 -0.1118c0.0013,-0.0016 0.2126,-0.2549 0.5025,-0.5098 0.2858,-0.2582 0.6624,-0.4901 0.8769,-0.4802 0.0309,0 0.0565,0.0033 0.081,0.0099 0.4585,0.1496 0.5216,0.2319 0.5467,0.6266 0.0012,0.3223 -0.1175,0.8288 -0.3117,1.5508l-0.1426 0.5344c-0.224,-0.199 -0.5159,-0.324 -0.8376,-0.324 -0.6753,0 -1.2168,0.5213 -1.2642,1.1824l-0.7922 -0.819c-0.0008,0 -0.2292,-0.2368 -0.4587,-0.5575 -0.2318,-0.3174 -0.4465,-0.7269 -0.4395,-0.9785z"/>
   <path class="fil1" d="M75.2585 51.864c-0.032,0 -0.0597,-0.0033 -0.0848,-0.0082 0.0013,0 -0.1882,-0.0428 -0.3751,-0.1496 -0.1916,-0.1135 -0.3341,-0.2582 -0.3316,-0.4621 -0.0025,-0.1694 0.1017,-0.449 0.4833,-0.8371l0.2434 -0.25 -0.3354 -0.0954c-0.0012,0 -0.1837,-0.0526 -0.3673,-0.1874 -0.1871,-0.1382 -0.3476,-0.3289 -0.3483,-0.6331 0,-0.1546 0.0424,-0.3487 0.167,-0.5921 0,0 0.0406,-0.0806 0.1458,-0.171 0.1061,-0.0921 0.2596,-0.1809 0.4986,-0.1809 0.2101,0 0.4974,0.0707 0.8774,0.3141l1.053 0.6743c0.0353,0.5065 0.3604,0.9259 0.814,1.097 -0.1955,0.1677 -0.4671,0.393 -0.769,0.6167 -0.5866,0.449 -1.3234,0.8782 -1.671,0.865z"/>
   <path class="fil1" d="M80.6572 51.2753c-0.1413,-0.0625 -0.5658,-0.2517 -1.0252,-0.4687 -0.3264,-0.1512 -0.6733,-0.3224 -0.9412,-0.4654 0.4254,-0.2023 0.7254,-0.6331 0.7254,-1.143 -0.0007,-0.3766 -0.1677,-0.7104 -0.4261,-0.9423l0.4569 -0.3158c0.0007,0 0.1605,-0.1102 0.3943,-0.2236 0.2318,-0.1135 0.5331,-0.2203 0.7734,-0.2187 0.0829,0 0.1574,0.0115 0.221,0.0361 0.2249,0.079 0.5982,0.3437 0.5847,0.6826 0.0007,0.2088 -0.1189,0.518 -0.5577,0.9242l-0.1631 0.1512 0.1618 0.1529c0.0013,0 0.1999,0.1859 0.4009,0.4489 0.2024,0.2599 0.3866,0.5986 0.3803,0.8256 -0.0052,0.2253 -0.1222,0.4621 -0.9855,0.5559z"/>
   <path class="fil1" d="M77.2893 49.1982c0.0007,0.4803 0.3803,0.8552 0.8602,0.8569 0.4669,0 0.8524,-0.3783 0.8532,-0.8569 -0.0008,-0.4719 -0.3887,-0.8552 -0.8532,-0.8568 -0.4779,0 -0.8602,0.3832 -0.8602,0.8568z"/>
   <path class="fil1" d="M106.6475 52.4166c0.1143,0.1595 0.2273,0.2713 0.2273,0.2729 0.1111,0.125 0.7465,0.4112 1.3066,0.6168 0.4093,0.1529 0.7922,0.2812 0.9754,0.342 -0.0669,-0.1545 -0.1055,-0.3256 -0.1055,-0.5032 0.0013,-0.699 0.5745,-1.2647 1.2702,-1.2664 0.4522,0 0.846,0.2385 1.0709,0.5921 0.0847,-0.0757 0.1681,-0.1513 0.2491,-0.2286 0.6604,-0.6151 1.2194,-1.2285 1.4012,-1.4324 -0.1099,-0.7466 -0.4368,-0.8683 -0.8995,-0.893 -0.3495,-0.0033 -0.7451,0.1266 -1.0555,0.2566 -0.3071,0.1315 -0.528,0.2615 -0.5299,0.2598l-0.1181 0.0724 -0.1111 -0.0823c-0.6912,-0.508 -1.1661,-0.6792 -1.441,-0.6759 -0.2583,0.0066 -0.3668,0.1102 -0.4708,0.3125 -0.0965,0.2023 -0.1318,0.5 -0.1311,0.7664 0,0.342 0.0525,0.6233 0.052,0.6249l0.0506 0.2812 -0.2832 -0.0394c-0.3372,-0.046 -0.6155,-0.0658 -0.8409,-0.0658 -0.379,-0.0016 -0.607,0.0592 -0.7131,0.1234 -0.102,0.069 -0.1098,0.1035 -0.1157,0.1825 -0.005,0.1184 0.0951,0.3256 0.2121,0.4835z"/>
   <path class="fil1" d="M110.322 54.0052c-0.4664,0 -0.855,-0.3881 -0.8563,-0.8618 0.0013,-0.4654 0.3884,-0.8503 0.8563,-0.8503 0.4741,0 0.855,0.3833 0.8556,0.8503l0.0014 0c-0.002,0.4736 -0.3848,0.8618 -0.857,0.8618z"/>
   <path class="fil1" d="M100.9622 46.7561c-0.0006,-0.0872 -0.0187,-0.1496 -0.056,-0.204 -0.1593,-0.217 -0.318,-0.2927 -0.6141,-0.2993 -0.3141,-0.0016 -0.7612,0.12 -1.3414,0.3305l-0.1355 0.0493 -0.0923 -0.1118c-0.0013,-0.0016 -0.2126,-0.2549 -0.5025,-0.5098 -0.2852,-0.2582 -0.6622,-0.4901 -0.8769,-0.4802 -0.0302,0 -0.0564,0.0033 -0.0803,0.0099 -0.4585,0.1496 -0.5223,0.2319 -0.5467,0.6266 -0.0018,0.3223 0.1168,0.8288 0.3116,1.5508l0.1426 0.5344c0.2241,-0.199 0.5159,-0.324 0.8372,-0.324 0.6751,0 1.2173,0.5213 1.2648,1.1824l0.7914 -0.819c0.0014,0 0.2299,-0.2368 0.4587,-0.5575 0.2318,-0.3174 0.4465,-0.7269 0.4395,-0.9785z"/>
   <path class="fil1" d="M100.8986 51.864c0.032,0 0.0597,-0.0033 0.0841,-0.0082 -0.0006,0 0.1889,-0.0428 0.3752,-0.1496 0.1916,-0.1135 0.3347,-0.2582 0.3316,-0.4621 0.0031,-0.1694 -0.1011,-0.449 -0.4826,-0.8371l-0.2434 -0.25 0.3354 -0.0954c0.0013,0 0.1836,-0.0526 0.3673,-0.1874 0.1871,-0.1382 0.3475,-0.3289 0.3482,-0.6331 0,-0.1546 -0.0424,-0.3487 -0.167,-0.5921 0,0 -0.0404,-0.0806 -0.1458,-0.171 -0.1061,-0.0921 -0.2596,-0.1809 -0.4986,-0.1809 -0.2101,0 -0.4974,0.0707 -0.8781,0.3141l-1.0523 0.6743c-0.0353,0.5065 -0.3603,0.9259 -0.814,1.097 0.1955,0.1677 0.4671,0.393 0.7684,0.6167 0.5872,0.449 1.324,0.8782 1.6716,0.865z"/>
   <path class="fil1" d="M95.5006 51.2753c0.1413,-0.0625 0.5652,-0.2517 1.0252,-0.4687 0.3257,-0.1512 0.6726,-0.3224 0.9412,-0.4654 -0.4261,-0.2023 -0.7261,-0.6331 -0.7261,-1.143 0.0007,-0.3766 0.1671,-0.7104 0.4261,-0.9423l-0.4569 -0.3158c-0.0012,0 -0.1612,-0.1102 -0.3943,-0.2236 -0.2318,-0.1135 -0.5338,-0.2203 -0.7734,-0.2187 -0.0829,0 -0.1574,0.0115 -0.2203,0.0361 -0.2256,0.079 -0.5982,0.3437 -0.5846,0.6826 -0.0014,0.2088 0.1174,0.518 0.5576,0.9242l0.1631 0.1512 -0.1625 0.1529c-0.0006,0 -0.1992,0.1859 -0.4002,0.4489 -0.203,0.2599 -0.3866,0.5986 -0.3808,0.8256 0.0057,0.2253 0.122,0.4621 0.986,0.5559z"/>
   <path class="fil1" d="M98.868 49.1982c-0.0007,0.4803 -0.3805,0.8552 -0.8602,0.8569 -0.4671,0 -0.8526,-0.3783 -0.8531,-0.8569 0.0005,-0.4719 0.3878,-0.8552 0.8531,-0.8568 0.4784,0 0.8602,0.3832 0.8602,0.8568z"/>
   <path class="fil1" d="M91.5099 49.532c-0.0052,0.2746 -0.1676,0.5904 -1.1664,0.7763 -0.1581,-0.0807 -0.6014,-0.3109 -1.0432,-0.5706 -0.2758,-0.1628 -0.55,-0.3371 -0.7479,-0.4902 -0.0436,-0.0328 -0.0823,-0.0641 -0.1176,-0.0953 0.5325,-0.1529 0.9225,-0.6315 0.9232,-1.2071 -0.002,-0.7088 -0.571,-1.2762 -1.2791,-1.2762 -0.6995,0 -1.261,0.5706 -1.263,1.2762 0,0.5706 0.3836,1.0508 0.9066,1.2054 -0.2087,0.1776 -0.6012,0.4408 -0.9688,0.648 -0.4067,0.2335 -0.794,0.4342 -0.9405,0.5098 -1.0001,-0.1859 -1.1628,-0.5017 -1.1665,-0.7763 -0.0037,-0.2252 0.1407,-0.5114 0.3019,-0.7302 0.1587,-0.217 0.3169,-0.3634 0.3154,-0.3634l0.2038 -0.1908 -0.2403 -0.1415c-0.4843,-0.2878 -0.5976,-0.5838 -0.6019,-0.847 -0.0078,-0.2976 0.1965,-0.5903 0.3013,-0.6561 0.0785,-0.0543 0.2159,-0.0889 0.3868,-0.0889 0.0017,0 0.0038,0 0.0064,0 0.2633,-0.0033 0.5763,0.0741 0.8222,0.1496 0.2468,0.0757 0.4272,0.1496 0.4279,0.1496l0.5532 0.2369 -0.2904 -0.5279c-0.4092,-0.7434 -0.555,-1.2516 -0.5524,-1.5607 0.0134,-0.477 0.2658,-0.5394 0.7117,-0.5674 0.2376,-0.0016 0.4921,0.0461 0.6865,0.0954 0.1948,0.0476 0.3288,0.0953 0.3301,0.0953l0.0695 0.0248 0.0713 -0.0248c0,-0.0033 0.5377,-0.194 1.0158,-0.1924 0.4452,0.028 0.6975,0.092 0.7124,0.569 0.001,0.3091 -0.1447,0.8189 -0.5527,1.5623l-0.2877 0.5263 0.5513 -0.2369c0,-0.0033 0.7212,-0.3042 1.2493,-0.2993 0.1728,-0.0016 0.3136,0.0329 0.3931,0.0889 0.1035,0.0641 0.3071,0.3568 0.2994,0.6561 -0.0038,0.2632 -0.1164,0.5592 -0.6,0.847l-0.2396 0.1398 0.2023 0.1908c0.0014,0 0.1573,0.1464 0.3155,0.3651 0.16,0.2171 0.3045,0.5033 0.3013,0.7302z"/>
   <path class="fil1" d="M87.2311 47.9451c0.0006,0.467 0.3795,0.8486 0.8472,0.8502 0.4811,0 0.8639,-0.3849 0.8645,-0.8502 -0.0006,-0.4802 -0.3835,-0.8618 -0.8645,-0.8618 -0.4671,0 -0.8466,0.3799 -0.8472,0.8618z"/>
   <path class="fil4" d="M82.3526 29.6084c0.0008,0.2533 0.2093,0.4588 0.4586,0.4588 0.2627,-0.0016 0.4575,-0.2007 0.4594,-0.4588 -0.0006,-0.2516 -0.1986,-0.4588 -0.4594,-0.4588 -0.2473,0 -0.4578,0.2121 -0.4586,0.4588z"/>
   <path class="fil4" d="M70.6005 30.5047c0.0013,0.2516 0.2094,0.4604 0.4624,0.4604 0.2521,0 0.4563,-0.2056 0.4563,-0.4604 -0.0007,-0.2549 -0.202,-0.4572 -0.4563,-0.4572 -0.255,0 -0.4611,0.204 -0.4624,0.4572z"/>
   <path class="fil4" d="M74.0266 35.708c0.0006,0.5904 0.4893,1.0788 1.0837,1.0821 0.5936,-0.0033 1.0761,-0.4917 1.0779,-1.0821 -0.0018,-0.5954 -0.483,-1.0789 -1.0779,-1.0789 -0.5956,0 -1.0831,0.4852 -1.0837,1.0789z"/>
   <path class="fil4" d="M63.0651 34.7229c0.0006,0.5987 0.4838,1.0772 1.075,1.0772 0.5979,0 1.0848,-0.4802 1.0856,-1.0772 -0.0008,-0.6019 -0.4888,-1.0821 -1.0856,-1.0821 -0.5912,0 -1.075,0.4786 -1.075,1.0821z"/>
   <path class="fil4" d="M72.759 42.9078c0,0.9193 0.7414,1.6577 1.6517,1.6593 0.9224,-0.0016 1.6617,-0.7401 1.6617,-1.6593 -0.002,-0.9095 -0.7407,-1.6528 -1.6617,-1.6561 -0.9097,0.0033 -1.6496,0.7466 -1.6517,1.6561z"/>
   <path class="fil4" d="M59.9721 45.5818c0.0019,0.9078 0.7484,1.6494 1.6599,1.6511 0.911,0 1.6516,-0.7418 1.6541,-1.6511 -0.0019,-0.921 -0.7432,-1.661 -1.6541,-1.6626 -0.9108,0.0016 -1.658,0.7417 -1.6599,1.6626z"/>
   <path class="fil6" d="M68.3612 60.5373c0,0.0444 0.0044,0.0889 0.0153,0.1332 0.0734,0.3799 0.629,0.7039 1.4191,0.7022 0.2319,0 0.4806,-0.028 0.7343,-0.0855l1.6291 -0.375c1.0177,-0.2253 1.6974,-0.8847 1.6748,-1.3501 0,-0.0461 -0.0057,-0.0904 -0.0167,-0.1349 -0.0824,-0.3914 -0.6326,-0.7121 -1.4172,-0.7105 -0.2304,0 -0.4772,0.0264 -0.7303,0.0856l-1.6344 0.375c-1.0111,0.2203 -1.6971,0.8864 -1.674,1.36z"/>
   <path class="fil4" d="M93.8045 29.6084c-0.0005,0.2533 -0.2093,0.4588 -0.4586,0.4588 -0.2627,-0.0016 -0.4568,-0.2007 -0.4588,-0.4588 0.0007,-0.2516 0.1986,-0.4588 0.4588,-0.4588 0.248,0 0.4581,0.2121 0.4586,0.4588z"/>
   <path class="fil4" d="M105.5566 30.5047c-0.0011,0.2516 -0.2099,0.4604 -0.4624,0.4604 -0.2518,0 -0.4568,-0.2056 -0.4568,-0.4604 0.0012,-0.2549 0.2017,-0.4572 0.4568,-0.4572 0.255,0 0.4613,0.204 0.4624,0.4572z"/>
   <path class="fil4" d="M102.1312 35.708c-0.0013,0.5904 -0.49,1.0788 -1.0838,1.0821 -0.5935,-0.0033 -1.0765,-0.4917 -1.0778,-1.0821 0.0013,-0.5954 0.483,-1.0789 1.0778,-1.0789 0.5951,0 1.0825,0.4852 1.0838,1.0789z"/>
   <path class="fil4" d="M113.092 34.7229c-0.0006,0.5987 -0.4838,1.0772 -1.0747,1.0772 -0.5975,0 -1.0851,-0.4802 -1.0857,-1.0772 0.0006,-0.6019 0.4888,-1.0821 1.0857,-1.0821 0.5909,0 1.0747,0.4786 1.0747,1.0821z"/>
   <path class="fil4" d="M103.3981 42.9078c0,0.9193 -0.7413,1.6577 -1.651,1.6593 -0.9225,-0.0016 -1.6624,-0.7401 -1.6624,-1.6593 0.002,-0.9095 0.7407,-1.6528 1.6624,-1.6561 0.9092,0.0033 1.6492,0.7466 1.651,1.6561z"/>
   <path class="fil4" d="M116.185 45.5818c-0.0018,0.9078 -0.7481,1.6494 -1.6597,1.6511 -0.9111,0 -1.6517,-0.7418 -1.6536,-1.6511 0.0019,-0.921 0.7426,-1.661 1.6536,-1.6626 0.9109,0.0016 1.6579,0.7417 1.6597,1.6626z"/>
   <path class="fil6" d="M107.796 60.5373c0,0.0444 -0.0053,0.0889 -0.0153,0.1332 -0.0733,0.3799 -0.6289,0.7039 -1.4192,0.7022 -0.2319,0 -0.4806,-0.028 -0.7336,-0.0855l-1.6297 -0.375c-1.0172,-0.2253 -1.6974,-0.8847 -1.6742,-1.3501 0,-0.0461 0.005,-0.0904 0.016,-0.1349 0.0824,-0.3914 0.6333,-0.7121 1.4172,-0.7105 0.2312,0 0.4772,0.0264 0.7309,0.0856l1.6345 0.375c1.0104,0.2203 1.6965,0.8864 1.6734,1.36z"/>
   <path class="fil0" d="M90.7679 56.6315l-5.3685 0c-1.2546,0.0066 -2.3462,0.5954 -2.3781,1.5212 0.0314,0.9325 1.1241,1.5212 2.3781,1.5294l5.3685 0c1.2386,-0.0082 2.3352,-0.5969 2.3672,-1.5294 -0.0326,-0.9258 -1.128,-1.5147 -2.3672,-1.5212z"/>
   <path class="fil6" d="M92.1851 58.9092c-0.3521,0.217 -0.8589,0.3585 -1.4171,0.3585l-5.3685 0c-0.5664,0 -1.0766,-0.1415 -1.4286,-0.3585 -0.3559,-0.2171 -0.5371,-0.4901 -0.5352,-0.7565 -0.0019,-0.2615 0.1793,-0.5345 0.5346,-0.7515 0.3526,-0.2138 0.862,-0.3569 1.4292,-0.3569l5.3685 0c0.5583,0 1.065,0.1431 1.4171,0.3569 0.356,0.217 0.5377,0.4901 0.5364,0.7515 0.0013,0.2648 -0.1804,0.5394 -0.5364,0.7565z"/>
   <path class="fil0" d="M65.715 88.3905c-1.175,-0.5243 -2.5522,0.0044 -3.0756,1.1787 -0.4228,0.9488 -0.1594,2.0281 0.5754,2.6853l-0.6559 1.4703 -1.6072 -0.7162 -0.5231 1.1742 1.6076 0.7164 -3.7159 8.3396c-0.7362,-0.5762 -1.8321,-1.7267 -1.7138,-3.3945l1.5077 0.0823 -2.0814 -3.7575 -2.6814 3.5467 1.4731 0.0837c-0.0213,0.9545 0.0379,4.9078 3.0133,6.2678 3.0013,1.3035 5.9803,-1.297 6.6752,-1.9509l1.0472 1.0394 0.8441 -4.3651 -4.1852 0.9649 1.0688 1.0658c-1.1608,1.2038 -2.7495,1.1583 -3.6693,0.9962l3.7157 -8.3403 1.608 0.7163 0.5228 -1.1743 -1.6079 -0.7162 0.6552 -1.4705c0.9797,0.1073 1.9587,-0.4188 2.3815,-1.3676 0.5235,-1.1737 -0.0047,-2.5517 -1.1789,-3.0744z"/>
   <path class="fil3" d="M63.0414 101.9907l0.8165 0.8139 -0.1274 0.1459c-1.4485,1.6547 -3.5189,1.4299 -4.4516,1.2212l-0.2475 -0.0553 4.0934 -9.1864 1.6072 0.7163 0.1858 -0.4163 -1.6072 -0.7163 0.7862 -1.7671c-0.0936,-0.0284 -0.187,-0.0604 -0.2787,-0.1015 -0.0919,-0.0411 -0.1779,-0.0887 -0.2622,-0.1395l-0.7028 1.5772 -0.0847 0.1895 -1.6085 -0.7169 -0.1857 0.4169 1.6078 0.7162 -4.0928 9.1864 -0.2061 -0.1472c-0.7787,-0.5537 -2.3308,-1.9431 -2.07,-4.1267l0.024 -0.1916 1.1511 0.063 -1.4099 -2.5457 -1.8302 2.4199 1.11 0.0623 -0.0154 0.2093c0.0039,0.0026 -0.0824,1.1821 0.2298,2.5382 0.3117,1.3605 1.0086,2.8547 2.5331,3.5325 1.5225,0.6804 3.1002,0.1992 4.3207,-0.4786 1.2168,-0.6758 2.0384,-1.5256 2.0403,-1.5269l0.1451 -0.1509 0.789 0.7825 0.5755 -2.9776 -2.8348 0.6533z"/>
   <path class="fil3" d="M65.546 88.7687c-0.9667,-0.4284 -2.0962,0.0053 -2.5285,0.9695 -0.4277,0.9662 0.0046,2.0968 0.9701,2.5292 0.9662,0.4285 2.0962,-0.0058 2.5286,-0.9708 0.4285,-0.9662 -0.0051,-2.0955 -0.9702,-2.5279z"/>
   <path class="fil0" d="M56.8429 135.7898c0.4226,0.9482 1.4017,1.475 2.3813,1.3671l0.6553 1.471 -1.6072 0.7162 0.5229 1.1744 1.6072 -0.7163 3.7163 8.3402c-0.9199,0.162 -2.5093,0.2076 -3.6701,-0.9962l1.0697 -1.0652 -4.1859 -0.9655 0.8448 4.3658 1.0463 -1.0394c0.6952,0.6539 3.674,3.2543 6.6753,1.9502 2.9762,-1.3587 3.0353,-5.3125 3.0135,-6.2672l1.473 -0.0836 -2.6809 -3.5466 -2.082 3.7567 1.5077 -0.0823c0.1189,1.6684 -0.977,2.819 -1.7131,3.3945l-3.7163 -8.3396 1.6072 -0.7163 -0.523 -1.1737 -1.6072 0.7163 -0.6551 -1.4711c0.7348,-0.6565 0.9975,-1.7365 0.5748,-2.6845 -0.5229,-1.1743 -1.9002,-1.7031 -3.0753,-1.1795 -1.174,0.523 -1.7021,1.9008 -1.1792,3.0745z"/>
   <path class="fil3" d="M60.1808 136.8305c-0.0842,0.0508 -0.1709,0.0983 -0.2627,0.1395 -0.092,0.041 -0.1845,0.0732 -0.2782,0.1014l0.7863 1.7672 -1.6073 0.7164 0.1851 0.4162 1.6078 -0.7162 4.0928 9.1863 -0.2467 0.0552c-0.9322,0.2087 -3.0032,0.4331 -4.4525,-1.2205l-0.1271 -0.1465 0.817 -0.8139 -2.8362 -0.6538 0.5756 2.978 0.7888 -0.7824 0.1454 0.1502c0.0018,0.0027 0.8241,0.8519 2.0402,1.5276 1.2206,0.6778 2.7989,1.159 4.3215,0.4781 1.5236,-0.6773 2.2206,-2.1722 2.5328,-3.5327 0.3115,-1.3554 0.2256,-2.5355 0.2293,-2.5382l-0.0153 -0.2093 1.1099 -0.0623 -1.8294 -2.4199 -1.4103 2.5459 1.1513 -0.063 0.024 0.1921c0.2607,2.1834 -1.2913,3.5729 -2.0699,4.1269l-0.2062 0.147 -4.0934 -9.1863 1.608 -0.7163 -0.1858 -0.4169 -1.6085 0.717 -0.0848 -0.1903 -0.7015 -1.5765z"/>
   <path class="fil3" d="M57.2213 135.6215c0.4317,0.9649 1.5622,1.3992 2.5285,0.9707 0.9655,-0.4324 1.3978,-1.5624 0.9702,-2.5299 -0.4325,-0.9642 -1.5617,-1.3972 -2.5292,-0.9686 -0.9642,0.4323 -1.3981,1.5617 -0.9695,2.5278z"/>
   <path class="fil0" d="M110.4421 88.3905c1.175,-0.5243 2.5522,0.0044 3.0751,1.1787 0.4227,0.9488 0.1599,2.0281 -0.5754,2.6853l0.6551 1.4703 1.6079 -0.7162 0.523 1.1742 -1.6073 0.7164 3.7155 8.3396c0.7364,-0.5762 1.8329,-1.7267 1.714,-3.3945l-1.5078 0.0823 2.0821 -3.7575 2.6808 3.5467 -1.4731 0.0837c0.0219,0.9545 -0.0378,4.9078 -3.0133,6.2678 -3.0014,1.3035 -5.9795,-1.297 -6.6754,-1.9509l-1.0463 1.0394 -0.8448 -4.3651 4.1858 0.9649 -1.0696 1.0658c1.1615,1.2038 2.7503,1.1583 3.6701,0.9962l-3.7163 -8.3403 -1.6078 0.7163 -0.523 -1.1743 1.6079 -0.7162 -0.656 -1.4705c-0.9789,0.1073 -1.9586,-0.4188 -2.3813,-1.3676 -0.5229,-1.1737 0.0059,-2.5517 1.1801,-3.0744z"/>
   <path class="fil3" d="M113.1157 101.9907l-0.8171 0.8139 0.1272 0.1459c1.4488,1.6547 3.5197,1.4299 4.4524,1.2212l0.2468 -0.0553 -4.0934 -9.1864 -1.6078 0.7163 -0.1858 -0.4163 1.608 -0.7163 -0.7863 -1.7671c0.0937,-0.0284 0.1862,-0.0604 0.2782,-0.1015 0.0917,-0.0411 0.1786,-0.0887 0.2627,-0.1395l0.7022 1.5772 0.0848 0.1895 1.6086 -0.7169 0.1856 0.4169 -1.6086 0.7162 4.0934 9.1864 0.2062 -0.1472c0.7786,-0.5537 2.3307,-1.9431 2.0699,-4.1267l-0.024 -0.1916 -1.1512 0.063 1.4101 -2.5457 1.8296 2.4199 -1.11 0.0623 0.0153 0.2093c-0.0037,0.0026 0.0822,1.1821 -0.2293,2.5382 -0.3123,1.3605 -1.0098,2.8547 -2.5328,3.5325 -1.5226,0.6804 -3.1003,0.1992 -4.3215,-0.4786 -1.2161,-0.6758 -2.0383,-1.5256 -2.0402,-1.5269l-0.1454 -0.1509 -0.7894 0.7825 -0.575 -2.9776 2.8368 0.6533z"/>
   <path class="fil3" d="M110.6105 88.7687c0.9668,-0.4284 2.096,0.0053 2.5285,0.9695 0.4277,0.9662 -0.0046,2.0968 -0.9702,2.5292 -0.9661,0.4285 -2.0961,-0.0058 -2.5285,-0.9708 -0.4285,-0.9662 0.0052,-2.0955 0.9702,-2.5279z"/>
   <path class="fil0" d="M119.3137 135.7898c-0.4228,0.9482 -1.4018,1.475 -2.3814,1.3671l-0.6553 1.471 1.6072 0.7162 -0.5228 1.1744 -1.608 -0.7163 -3.7155 8.3402c0.9198,0.162 2.5091,0.2076 3.67,-0.9962l-1.0703 -1.0652 4.1858 -0.9655 -0.8441 4.3658 -1.0464 -1.0394c-0.6957,0.6539 -3.6739,3.2543 -6.6753,1.9502 -2.976,-1.3587 -3.0352,-5.3125 -3.014,-6.2672l-1.473 -0.0836 2.6815 -3.5466 2.082 3.7567 -1.5084 -0.0823c-0.1183,1.6684 0.9777,2.819 1.7144,3.3945l3.7159 -8.3396 -1.6074 -0.7163 0.5229 -1.1737 1.6072 0.7163 0.6559 -1.4711c-0.7349,-0.6565 -0.9982,-1.7365 -0.5761,-2.6845 0.5235,-1.1743 1.9007,-1.7031 3.0757,-1.1795 1.1742,0.523 1.7023,1.9008 1.1795,3.0745z"/>
   <path class="fil3" d="M115.9757 136.8305c0.0843,0.0508 0.1709,0.0983 0.2627,0.1395 0.092,0.041 0.1846,0.0732 0.2789,0.1014l-0.7869 1.7672 1.6078 0.7164 -0.1857 0.4162 -1.6078 -0.7162 -4.0934 9.1863 0.2474 0.0552c0.9327,0.2087 3.0032,0.4331 4.4516,-1.2205l0.1274 -0.1465 -0.8165 -0.8139 2.8362 -0.6538 -0.5757 2.978 -0.7888 -0.7824 -0.1453 0.1502c-0.0018,0.0027 -0.8241,0.8519 -2.0402,1.5276 -1.2206,0.6778 -2.7989,1.159 -4.3214,0.4781 -1.5238,-0.6773 -2.2214,-2.1722 -2.5329,-3.5327 -0.3116,-1.3554 -0.2262,-2.5355 -0.2299,-2.5382l0.0155 -0.2093 -1.1101 -0.0623 1.8301 -2.4199 1.4101 2.5459 -1.1512 -0.063 -0.024 0.1921c-0.2609,2.1834 1.2913,3.5729 2.0699,4.1269l0.2055 0.147 4.0934 -9.1863 -1.6079 -0.7163 0.1856 -0.4169 1.6088 0.717 0.0846 -0.1903 0.7022 -1.5765z"/>
   <path class="fil3" d="M118.9352 135.6215c-0.4317,0.9649 -1.5616,1.3992 -2.5279,0.9707 -0.9655,-0.4324 -1.3984,-1.5624 -0.97,-2.5299 0.4323,-0.9642 1.5611,-1.3972 2.5284,-0.9686 0.9645,0.4323 1.398,1.5617 0.9695,2.5278z"/>
   <path class="fil0" d="M123.7616 120.9337l-1.9182 -3.2602c-0.0328,-0.1135 -0.0464,-0.2111 -0.0464,-0.2978 0.0013,-0.3913 0.2751,-0.5853 0.6555,-0.7195 0.3712,-0.1247 0.7882,-0.1331 0.8628,-0.1331l0.0013 0 0.2215 0.0168 0 -2.898 -8.3121 0 0 2.9224 0.2308 -0.0411c0.0937,0 0.4934,0.0128 0.8523,0.1324 0.3812,0.1349 0.6555,0.3295 0.6555,0.7206 0,0.0856 -0.0132,0.1839 -0.0439,0.2961l-1.9182 3.2608 0 4.3665 8.7597 0 0 -4.3658 -0.0005 0z"/>
   <polygon class="fil3" points="120.3242,114.8778 120.9626,114.8778 120.9626,114.0556 120.3242,114.0556 "/>
   <polygon class="fil3" points="117.8001,114.8778 118.4376,114.8778 118.4376,114.0556 117.8001,114.0556 "/>
   <polygon class="fil3" points="118.5614,124.885 120.2016,124.885 120.2016,122.9212 118.5614,122.9212 "/>
   <path class="fil3" d="M123.3466 124.8858l-2.7301 0 0 -2.3789 -2.4688 0 0 2.3789 -2.7322 0 0 -3.8391 1.8866 -3.2062 0.0078 -0.0259c0.0469,-0.156 0.0688,-0.3029 0.0688,-0.438 0.0006,-0.641 -0.5006,-0.9764 -0.9393,-1.1132 -0.3037,-0.1002 -0.6057,-0.1348 -0.8003,-0.1472l0 -2.0607 1.7474 0 0 1.2371 1.4659 0 0 -1.2371 1.0579 0 0 1.2371 1.4667 0 0 -1.2371 1.7461 0 0.0006 2.0614c-0.1948,0.0117 -0.4974,0.0462 -0.8011,0.1465 -0.4389,0.1369 -0.9405,0.4728 -0.9399,1.1121 -0.0006,0.1373 0.0224,0.2843 0.07,0.4398l0.0071 0.0252 1.8867 3.2062 0 3.8391z"/>
   <polygon class="fil0" points="119.9112,120.0496 121.3771,120.0496 121.3771,118.0685 119.9112,118.0685 "/>
   <polygon class="fil3" points="120.3242,119.6361 120.9626,119.6361 120.9626,118.4823 120.3242,118.4823 "/>
   <polygon class="fil0" points="117.5934,120.0503 118.8531,120.0503 118.8531,118.0685 117.3865,118.0685 117.3865,120.0503 "/>
   <polygon class="fil3" points="117.7995,119.6347 118.4382,119.6347 118.4382,118.4817 117.7995,118.4817 "/>
   <path class="fil0" d="M52.395 120.9337l1.9181 -3.2602c0.0334,-0.1135 0.0463,-0.2111 0.0463,-0.2978 -0.0014,-0.3913 -0.275,-0.5853 -0.6553,-0.7195 -0.3713,-0.1247 -0.7875,-0.1331 -0.8629,-0.1331l-0.0005 0 -0.2223 0.0168 0 -2.898 8.3127 0 0 2.9224 -0.2305 -0.0411c-0.0946,0 -0.4942,0.0128 -0.8532,0.1324 -0.381,0.1349 -0.6553,0.3295 -0.6553,0.7206 0,0.0856 0.0129,0.1839 0.0435,0.2961l1.9183 3.2608 0 4.3665 -8.759 0 0 -4.3658z"/>
   <polygon class="fil3" points="55.1945,114.8778 55.8323,114.8778 55.8323,114.0556 55.1945,114.0556 "/>
   <polygon class="fil3" points="57.7192,114.8778 58.3564,114.8778 58.3564,114.0556 57.7192,114.0556 "/>
   <polygon class="fil3" points="55.9551,124.885 57.5945,124.885 57.5945,122.9212 55.9551,122.9212 "/>
   <path class="fil3" d="M52.8105 124.8858l2.7296 0 0 -2.3789 2.4693 0 0 2.3789 2.7324 0 0 -3.8391 -1.8868 -3.2062 -0.0084 -0.0259c-0.047,-0.156 -0.0688,-0.3029 -0.0688,-0.438 -0.0006,-0.641 0.5012,-0.9764 0.9399,-1.1132 0.3033,-0.1002 0.6058,-0.1348 0.7997,-0.1472l0 -2.0607 -1.7468 0 0 1.2371 -1.4658 0 0 -1.2371 -1.0585 0 0 1.2371 -1.4666 0 0 -1.2371 -1.7456 0 -0.0011 2.0614c0.1946,0.0117 0.4972,0.0462 0.8017,0.1465 0.4388,0.1369 0.9397,0.4728 0.9391,1.1121 0.0006,0.1373 -0.0224,0.2843 -0.0694,0.4398l-0.0071 0.0252 -1.8867 3.2062 0 3.8391z"/>
   <polygon class="fil0" points="54.7803,120.0496 56.2462,120.0496 56.2462,118.0685 54.7803,118.0685 "/>
   <polygon class="fil3" points="55.1939,119.6361 55.8323,119.6361 55.8323,118.4823 55.1939,118.4823 "/>
   <polygon class="fil0" points="58.5627,120.0503 57.3034,120.0503 57.3034,118.0685 58.7694,118.0685 58.7694,120.0503 "/>
   <polygon class="fil3" points="57.7178,119.6347 58.3564,119.6347 58.3564,118.4817 57.7178,118.4817 "/>
   <polygon class="fil0" points="87.9606,72.2123 88.0724,72.1396 105.0961,83.0771 71.0521,83.0771 "/>
   <polygon class="fil3" points="88.0724,72.6323 72.4616,82.6621 103.6827,82.6621 "/>
   <path class="fil0" d="M95.2802 159.1622c-0.0174,-0.0765 -0.0258,-0.1413 -0.0258,-0.1953 0.0065,-0.248 0.1189,-0.3365 0.2975,-0.4208 0.174,-0.0752 0.3937,-0.0861 0.4585,-0.0854l0.2359 0.0398 0 -2.1258 -4.8912 0 0 1.6736 -6.5556 0 0 -1.6736 -4.8907 0 0 2.1406 0.2422 -0.0553c0.0738,0.0007 0.2833,0.0142 0.451,0.0861 0.1792,0.0843 0.291,0.1728 0.2981,0.4208 0,0.0546 -0.0071,0.1183 -0.024,0.1921l-1.0965 2.2156 0 3.0495 16.5938 0 0 -3.0495 -1.0935 -2.2124z"/>
   <polygon class="fil3" points="94.4278,157.2146 94.6078,157.2146 94.6078,156.7893 94.4278,156.7893 "/>
   <polygon class="fil3" points="92.9952,157.2146 93.1744,157.2146 93.1744,156.7893 92.9952,156.7893 "/>
   <polygon class="fil3" points="91.0016,158.8653 91.3548,158.8653 91.3548,158.4626 91.0016,158.4626 "/>
   <polygon class="fil3" points="88.987,158.8653 89.341,158.8653 89.341,158.4626 88.987,158.4626 "/>
   <polygon class="fil3" points="86.8159,158.8653 87.1687,158.8653 87.1687,158.4626 86.8159,158.4626 "/>
   <polygon class="fil3" points="84.8007,158.8653 85.1539,158.8653 85.1539,158.4626 84.8007,158.4626 "/>
   <polygon class="fil3" points="82.9821,157.2146 83.1614,157.2146 83.1614,156.7893 82.9821,156.7893 "/>
   <polygon class="fil3" points="81.5489,157.2146 81.7281,157.2146 81.7281,156.7893 81.5489,156.7893 "/>
   <polygon class="fil3" points="81.9827,164.0092 82.7271,164.0092 82.7271,162.7996 81.9827,162.7996 "/>
   <path class="fil3" d="M84.5162 164.0092l-1.3748 0 0 -1.6227 -1.5727 0 0 1.6227 -1.3747 0 0 -2.5362 0.9411 -1.9014 0 1.2918 1.0065 0 0 -1.4821 -0.912 0 0.0398 -0.0809 0.0057 -0.0213c0.0264,-0.1105 0.0392,-0.2151 0.0392,-0.3122 0.0071,-0.433 -0.2866,-0.7008 -0.5506,-0.8024 -0.1606,-0.0661 -0.3194,-0.095 -0.4401,-0.1078l0 -1.2675 0.8113 0 0 0.8382 1.0072 0 0 -0.8382 0.4261 0 0 0.8382 1.0065 0 0 -0.8382 0.8113 0 0 1.2681c-0.1207,0.0122 -0.2794,0.0411 -0.4401,0.1072 -0.2652,0.1015 -0.5581,0.3694 -0.5524,0.8024 0,0.0982 0.0142,0.2017 0.0425,0.3129l0.0051 0.0219 0.0391 0.0796 -0.9129 0 0 1.4821 1.0078 0 0 -1.2906 0.9406 1.9002 0 2.5362z"/>
   <polygon class="fil3" points="81.5489,160.4496 81.7281,160.4496 81.7281,159.7944 81.5489,159.7944 "/>
   <polygon class="fil3" points="82.9815,160.4496 83.162,160.4496 83.162,159.7944 82.9815,159.7944 "/>
   <polygon class="fil3" points="87.6139,164.0041 88.5433,164.0041 88.5433,162.8053 87.6139,162.8053 "/>
   <path class="fil3" d="M88.9565 164.0099l0 -1.6176 -1.757 0 0 1.6176 -2.2702 0 0 -2.6353 -1.0965 -2.2156c-0.0176,-0.0738 -0.0247,-0.1375 -0.0247,-0.1921 0.0071,-0.2473 0.1183,-0.3352 0.2975,-0.4202 0.0913,-0.0384 0.1928,-0.0603 0.2801,-0.0718l0 0.8041 1.182 0 0 -0.8165 0.8339 0 0 0.8165 1.182 0 0 -0.8165 0.9898 0 0 0.8165 1.1807 0 0 -0.8165 0.8351 0 0 0.8165 1.1801 0 0 -0.8041c0.0868,0.0115 0.1896,0.0333 0.2801,0.0718 0.179,0.085 0.291,0.1729 0.2973,0.4202 0,0.0553 -0.0063,0.1176 -0.0226,0.1915l-1.097 2.2162 0 2.6353 -2.2709 0z"/>
   <polygon class="fil3" points="93.4287,164.0092 94.1731,164.0092 94.1731,162.8001 93.4287,162.8001 "/>
   <path class="fil3" d="M95.9619 164.0092l-1.3742 0 0 -1.6221 -1.5727 0 0 1.6221 -1.3748 0 0 -2.5362 0.9405 -1.9014 0 1.2918 1.0072 0 0 -1.4821 -0.9129 0 0.0411 -0.0823 0.0052 -0.0217c0.0264,-0.1105 0.0393,-0.2133 0.0393,-0.3104 0.0063,-0.433 -0.2866,-0.7008 -0.5513,-0.8024 -0.1612,-0.0661 -0.3187,-0.0943 -0.4395,-0.1072l0 -1.2681 0.8114 0 0 0.8382 1.0065 0 0 -0.8382 0.4261 0 0 0.8382 1.0085 0 0 -0.8382 0.81 0 0 1.2675c-0.1207,0.0122 -0.2801,0.0411 -0.4407,0.1078 -0.2652,0.1015 -0.5563,0.3707 -0.5506,0.8024 0,0.0982 0.0134,0.2017 0.0417,0.3122l0.0052 0.0219 0.0104 0.0206 0.0293 0.0604 -0.9133 0 0 1.4814 1.0079 0 0 -1.2913 0.9399 1.9002 0 2.5369 -0.0006 0z"/>
   <polygon class="fil3" points="92.9945,160.4496 93.1744,160.4496 93.1744,159.7944 92.9945,159.7944 "/>
   <polygon class="fil3" points="94.4278,160.4502 94.6084,160.4502 94.6084,159.7944 94.4278,159.7944 "/>
   <polygon class="fil0" points="89.4523,160.8973 90.6326,160.8973 90.6326,159.3414 89.4523,159.3414 "/>
   <polygon class="fil3" points="89.8659,160.4838 90.2189,160.4838 90.2189,159.7552 89.8659,159.7552 "/>
   <polygon class="fil0" points="85.5234,160.8973 86.7043,160.8973 86.7043,159.3414 85.5234,159.3414 "/>
   <polygon class="fil3" points="85.9373,160.4838 86.2906,160.4838 86.2906,159.7552 85.9373,159.7552 "/>
  </g>
 </g>
</svg>
