<svg height="341.296816" viewBox="0 0 182.31808 211.66666" width="293.000097" xmlns="http://www.w3.org/2000/svg" xmlns:xlink="http://www.w3.org/1999/xlink"><linearGradient id="a" gradientUnits="userSpaceOnUse" x1="7.078125" x2="132.00919" y1="152.125" y2="291.83316"><stop offset="0" stop-color="#142e46"/><stop offset="1" stop-color="#192028"/></linearGradient><g transform="matrix(1.0854896 0 0 1.0854896 4.178131 -145.558774)"><g><path d="m78.782857 134.09568c-7.226808.0166-21.64961.56567-37.451461 2.97915-11.256539 1.71924-24.252536 5.69133-39.1407615 10.80606-1.0561744 5.97494-2.45395486 10.44259-3.2018721 15.72927-2.1938496 15.50726-2.908744 29.08687-2.8323852 42.86095.1064175 19.19623 3.91957764 43.65321 9.3611863 56.97327 3.1015595 7.59204 6.8522245 15.14231 11.1672765 22.11596 5.91679 9.56224 12.953389 17.20239 22.839431 24.80779 12.334393 9.47998 26.628524 15.44258 40.606307 18.7234 13.977784-3.28082 28.271922-9.24342 40.606312-18.7234 9.88604-7.6054 16.92264-15.24555 22.83943-24.80779 4.31505-6.97365 8.06571-14.52392 11.16727-22.11596 5.44161-13.32006 9.25477-37.77704 9.36119-56.97327.0764-13.77408-.63802-27.35369-2.83187-42.86095-.74792-5.28668-2.14622-9.75433-3.20239-15.72927-14.88823-5.11473-27.8837-9.08682-39.14024-10.80606-16.85531-2.57438-32.142139-3.02723-38.799702-2.97553-.416097-.003-.865933-.005-1.347721-.004z" fill="#192028"/><path d="m78.821613 136.63041c-7.019856.016-21.02916.54287-36.378657 2.85823-10.934303 1.64936-23.849846 4.8838-38.3118727 9.79061-1.0259377 5.73204-2.0924414 10.59395-2.8189475 15.66571-2.13104808 14.87685-2.8254272 27.90429-2.7512542 41.11842.1033712 18.41584 4.1321966 41.81449 9.4180291 54.59305 3.0127733 7.28342 6.3313473 14.59125 10.5228733 21.28139 5.747414 9.17351 12.582684 16.50286 22.185725 23.79907 11.981299 9.09458 25.865423 14.81477 39.443069 17.96221 13.577647-3.14744 27.462282-8.86763 39.443592-17.96221 9.60304-7.29621 16.43779-14.62556 22.1852-23.79907 4.19153-6.69014 7.51061-13.99797 10.52339-21.28139 5.28583-12.77856 9.31414-36.17721 9.41752-54.59305.0742-13.21413-.61969-26.24157-2.75074-41.11842-.72651-5.07176-1.79353-9.93367-2.81947-15.66571-14.46202-4.90681-27.37705-8.14125-38.31135-9.79061-16.3728-2.46971-31.221164-2.90473-37.688142-2.85513-.404185-.003-.840972-.004-1.308965-.003z" fill="url(#a)"/></g><g><path d="m85.233628 155.15921-4.136965-2.86724-3.948374 3.03445 1.448522-4.82052-4.10605-2.81743 5.0322-.11199 1.410696-4.77572 1.661549 4.7513 4.977908-.13413-4.005307 3.04846z" fill="#a78d58" transform="matrix(.81054653 .02024417 -.02024417 .81054653 17.437776 27.350573)"/><g fill="#fff"><path d="m80.123862 200.15728a26.240999 26.240999 0 0 0 -26.234056 26.24078 26.240999 26.240999 0 0 0 26.241292 26.24129 26.240999 26.240999 0 0 0 26.240772-26.24129 26.240999 26.240999 0 0 0 -26.240772-26.24078 26.240999 26.240999 0 0 0 -.0072 0zm1.169956 1.19063h1.904277l2.653583 1.78594c4.247701 2.85869 3.902687 2.48955 3.691766 3.95066-.360251 2.49551-.150339 2.31293-3.223059 2.80034-1.52994.24271-3.939495.83752-5.354195 1.32189l-2.571936.88056-1.443841-.85576c-.794078-.47077-2.495426-1.19045-3.780647-1.59938l-2.336808-.74363.129706-1.5291c.0713-.84093.408469-2.0911.749311-2.77813.542978-1.09449.811384-1.32486 2.169377-1.86242 2.055775-.81377 5.068107-1.37097 7.412466-1.37097zm5.619295.90847c.259506.011.876932.17502 1.735812.48679 1.83855.66736 4.768112 2.22504 5.798611 3.08302.813411.67722.540618.64421-1.758032-.21136-1.02697-.38225-2.515251-1.12452-3.307292-1.64951-.792038-.52499-1.718392-1.10045-2.05827-1.27847-.572043-.29963-.670335-.44146-.410829-.43047zm-16.054835 1.45676-.398425 1.13016c-.21925.62143-.470702 1.81807-.55862 2.65927-.150831 1.44304-.228553 1.57989-1.378212 2.42414-1.524558 1.11956-4.201435 3.8978-5.168675 5.36453-.651431.98783-.898763 1.14446-2.227773 1.4087-.822238.16348-1.911721.407-2.421041.54106-1.33831.35226-1.322917.36407-1.322917-1.02992 0-1.11412.198226-1.57678 1.559595-3.63802 2.8527-4.31926 7.705018-8.31761 10.536308-8.68215zm18.571993 6.87606 1.655715 1.31724c1.915398 1.52413 3.534476 3.22216 4.468976 4.68602.625452.97973.645716 1.13682.433565 3.37343-.320598 3.37984-1.644742 8.36952-2.221052 8.36952-.0627 0-2.015035.47624-4.338236 1.05833-2.323211.58208-4.263038 1.04766-4.310848 1.03457-.0478-.0131-1.900798-1.89867-4.117578-4.19045l-4.030244-4.16718.502811-2.62207c.276709-1.44228.699172-3.47656.938443-4.52014l.435115-1.89704 1.901693-.67334c2.539571-.89925 3.588131-1.14454 6.35-1.48311zm11.036019 1.47433.44028.52917c.50895.61171 2.58889 4.64271 2.46135 4.77025-.047.047-.45123-.35226-.89813-.88728-.44691-.53502-.99829-1.50833-1.22577-2.16318-.22748-.65484-.4958-1.42875-.59583-1.71979zm.65784 4.51807 1.28209 1.43144c2.0774 2.31941 2.38589 3.20066 2.53112 7.23573.12288 3.4142.10797 3.53012-.73019 5.82342-1.04849 2.86878-1.55748 3.47335-3.4923 4.14549-2.340974.81325-2.768829.73592-2.984309-.53951-.099-.58617-.750813-2.23256-1.447974-3.65817-1.185701-2.42464-1.245378-2.64457-.925007-3.40651.633899-1.5076 1.481791-5.35095 1.66398-7.54269l.180866-2.17506 1.961121-.65681zm-39.169184 1.00511c.369305.003.56578.36774 1.102259 1.8216.388811 1.05369 1.117873 2.6671 1.620573 3.58531l.914157 1.66914-.672828 2.20607c-.370059 1.21323-.961085 3.48241-1.313616 5.04259-.352539 1.56019-.676442 2.86483-.719852 2.89956-.19698.15758-3.526692 1.19735-3.834392 1.19735-.189759 0-.701151-.56555-1.13688-1.25678-1.073991-1.70374-2.354387-5.06474-2.779675-7.29671-.296662-1.55693-.292291-2.05949.02894-3.29282.419682-1.61125 1.626682-4.78407 2.000911-5.25963.20093-.25534 2.130595-.79695 4.619874-1.29656.06131-.0123.117774-.0195.170532-.0191zm14.345377 5.18935 4.015259 4.16874c2.975681 3.08948 3.987382 4.30572 3.909322 4.6979-.0579.29105-.544211 2.35748-1.081069 4.59197l-.97617 4.0628-1.213879.52038c-1.77931.76336-5.146119 1.51851-7.563879 1.69602l-2.116667.15503-1.386993-1.23197c-.762813-.67778-2.295139-2.30347-3.405479-3.61218l-2.018998-2.37918.177768-1.63711c.243261-2.23789 1.090168-5.75886 1.759064-7.31377l.553455-1.28622 2.954343-.81184c1.624859-.44646 3.728252-.99359 4.674132-1.21594zm-20.428725 10.50375c.0528-.006.218517.25679.558105.82889.37316.62868.92361 1.48718 1.223182 1.90789.299579.42072.777795 1.44221 1.062466 2.26963.284681.82742.807151 2.02224 1.161169 2.65565.91168 1.63118.623149 1.4275-.665592-.47025-1.208881-1.78015-3.01081-5.46235-3.285071-6.71225-.0678-.30899-.09533-.47526-.05426-.47956zm46.901012 2.29185c.0228.0003.0384.004.046.0119.25235.25236-.50158 2.19044-1.53996 3.95842-1.570973 2.67479-5.871476 6.89432-8.309567 8.15299-1.597199.82457-3.572594 1.50644-3.571875 1.233.000122-.0479.388816-1.17459.863513-2.50372.775541-2.17143.997252-2.52271 2.183331-3.46026 1.64552-1.30071 3.659706-3.52443 4.515485-4.98471.598321-1.02095.762841-1.12519 2.034503-1.29346.760899-.10068 1.90773-.41493 2.54868-.69814.56084-.24782 1.07044-.41809 1.2299-.416zm-20.321756 5.69216 1.422651.89813c1.76098 1.11222 3.179763 1.67766 4.832263 1.92547 1.242459.18632 1.269555.20996 1.115695.97927-.0867.43356-.545092 1.57783-1.018543 2.543l-.86093 1.75493-2.409672.84336c-3.180889 1.1133-3.863922 1.19396-6.05596.71468-1.91344-.41836-5.608362-1.75718-7.467761-2.70578l-1.062469-.54208.410829-1.96733.411345-1.96732 1.869136-.17621c2.368529-.22302 5.882571-1.0393 7.536492-1.7508zm-16.293579 5.98568c.427911.00065 3.880025 1.24654 4.794023 1.7477.550508.30186 1.681609.83155 2.513541 1.17719 2.10679.87528.908461.80171-1.69292-.10387-1.85487-.64571-5.658054-2.53045-5.658054-2.80397 0-.0116.01488-.0171.04341-.017z"/><g transform="matrix(.26458333 0 0 .26458333 -27.04608 116.41666)"><path d="m588.47266 174.53516-14.08985 32.33007h5.81641l3.24609-7.38671h15.54102l3.24609 7.38671h5.81446l-14.08985-32.33007zm2.74218 7.26562 5.78516 13.16211h-11.57031z"/><path d="m360.78906 173.46094a17.194773 17.194773 0 0 0 -17.03515 17.19336 17.194773 17.194773 0 0 0 17.19531 17.19531 17.194773 17.194773 0 0 0 17.19531-17.19531 17.194773 17.194773 0 0 0 -17.19531-17.19336 17.194773 17.194773 0 0 0 -.16016 0zm.16016 4.76172a12.432214 12.432214 0 0 1 12.43164 12.43164 12.432214 12.432214 0 0 1 -12.43164 12.43359 12.432214 12.432214 0 0 1 -12.43164-12.43359 12.432214 12.432214 0 0 1 12.43164-12.43164z"/><path d="m262.78906 173.46094a17.194773 17.194773 0 0 0 -17.03515 17.19336 17.194773 17.194773 0 0 0 17.19531 17.19531 17.194773 17.194773 0 0 0 17.19531-17.19531 17.194773 17.194773 0 0 0 -17.19531-17.19336 17.194773 17.194773 0 0 0 -.16016 0zm.16016 4.76172a12.432214 12.432214 0 0 1 12.43164 12.43164 12.432214 12.432214 0 0 1 -12.43164 12.43359 12.432214 12.432214 0 0 1 -12.43164-12.43359 12.432214 12.432214 0 0 1 12.43164-12.43164z"/><path d="m624.18164 174.53516v32.24023h5.02148v-23.39453l17.84571 23.39453h5.01953v-32.24023h-5.01953v23.39843l-17.84571-23.39843z"/><path d="m552.9375 174.53516v32.24023h5.01953v-32.24023z"/><path d="m505.25195 174.53516 13.5625 32.33007h5.27735l13.5625-32.33007h-5.59961l-10.60157 25.06445-10.60546-25.06445z"/><path d="m468.07227 174.53516v32.24023h5.02148 17.49805v-4.43164h-17.49805v-9.53516h15.85742v-4.30664h-15.85742v-9.53515h17.49805v-4.43164h-17.49805z"/><path d="m396.18164 174.53516v32.24023h5.02148v-23.39453l17.84571 23.39453h5.01953v-32.24023h-5.01953v23.39843l-17.84571-23.39843z"/><path d="m298.18164 174.53516v32.24023h5.02148v-23.39453l17.84571 23.39453h5.01953v-32.24023h-5.01953v23.39843l-17.84571-23.39843z"/><path d="m200.07227 174.53516v32.24023h5.02148v-13.9668h17.8457v13.9668h5.01953v-32.24023h-5.01953v13.96679h-17.8457v-13.96679z"/><path d="m158.08789 174.53516v4.30468h10.36328v27.93555h5.02149v-27.93555h10.36328v-4.30468z"/></g><g transform="translate(250.32332)"><path d="m-727.69531 226.11719c-10.2297.0464-18.49625 7.81714-18.4961 17.38672-.00002 9.60302 8.32233 17.38757 18.58789 17.38671 4.78317-.00057 9.37718-1.72844 12.83399-4.81835h.0566v-.0469-13.05078h-7.60938v8.49023c-1.48801.867-3.1994 1.3452-4.96679 1.34571-5.32009-.00005-9.63284-4.16677-9.63282-9.30664-.00002-5.13987 4.31273-9.30659 9.63282-9.30664 3.20303.00059 6.19627 1.5393 7.98633 4.10546l5.27734-6.66992c-3.51435-3.51803-8.43091-5.5152-13.57813-5.51562-.0306-.00007-.0612-.00007-.0918 0z" transform="matrix(.26458333 0 0 .26458333 -27.214289 116.41666)"/><path d="m-214.09539 176.50934v8.69921h2.22106v-2.40915h1.2206c.0816.00091.15406-.004.23254-.005l1.42885 2.41432h2.69854l-1.79988-2.89749c1.20272-.62061 1.49077-1.72304 1.49344-2.65669-.004-1.39929-.63772-3.18321-4.05349-3.14503h-1.2206zm2.22106 1.86346h.61081c2.27614-.0221 2.36233.44075 2.36627 1.28157-.004.84082-.0901 1.30316-2.36627 1.28106h-.61081z"/><path d="m-202.01706 176.47162-3.60029 8.73693h2.69854l.57878-1.5384h3.35173l.57929 1.5384h2.69855l-3.6003-8.73693zm1.3529 2.7466.95342 2.53215h-1.90634z"/><path d="m-194.36377 176.50934v8.69921h2.26807l.00053-4.98677 3.55275 4.98677h2.26807v-8.69921h-2.26807v4.90955l-3.55276-4.90955z"/><path d="m-584.03906 227.11914-8.57227.002v32.87886h8.57227v-.002h5.83594c14.63349.19956 17.49165-10.2614 17.36523-16.43946.12661-6.17809-2.73174-16.63706-17.36523-16.4375h-5.83594zm0 6.97656h3.22265c9.75118-.11565 11.12233 6.90189 10.9961 9.46289.12623 2.56097-1.24492 9.5805-10.9961 9.46485h-3.22265z" transform="matrix(.26458333 0 0 .26458333 -27.214289 116.41666)"/><path d="m-160.6263 176.50934v1.88981 1.51464 1.8898 3.40496h2.26808 4.58835v-1.8898h-4.58835v-1.51516h4.39973v-1.8898h-4.39973v-1.51464h4.58835v-1.88981h-4.58835z"/><path d="m-151.70129 176.50933v8.69922h2.26808l.00053-4.98678 3.55274 4.98678h2.26808v-8.69922h-2.26808v4.90955l-3.55275-4.90955z"/><path d="m-128.57859 182.46195-2.16912-5.99033h-2.59558l3.46292 8.73693h2.60305l3.46294-8.73693h-2.59559z"/><path d="m-122.59729 176.50933v1.88981 1.51464 1.88981 3.40496h2.26808 4.58835v-1.88981h-4.58835v-1.51515h4.39973v-1.88981h-4.39973v-1.51464h4.58835v-1.88981h-4.58835z"/><path d="m-166.20453 176.2435c-2.70661.0123-4.8938 2.06828-4.89376 4.60024-.00001 2.54079 2.20195 4.60046 4.91805 4.60023 1.26554-.00015 2.48104-.45732 3.39566-1.27486h.015v-.0124-3.45302h-2.01331v2.24637c-.39371.2294-.84651.35592-1.31413.35606-1.40761-.00002-2.54869-1.10246-2.54869-2.46238 0-1.35993 1.14108-2.46237 2.54869-2.46239.84746.00016 1.63943.40728 2.11305 1.08624l1.39629-1.76475c-.92984-.93081-2.23068-1.45923-3.59254-1.45934-.008-.00002-.0162-.00002-.0243 0z"/><g transform="translate(0 .000224)"><path d="m-141.24729 176.50911v1.88981 1.51464 1.88981 3.40496h2.26808 4.58835v-1.88981h-4.58835v-1.51515h4.39973v-1.88981h-4.39973v-1.51464h4.58835v-1.88981h-4.58835z"/><path d="m-138.41029 175.91666h1.74827l-1.44103-2.18934-1.96075.82682z"/></g></g></g><path d="m2.478711 179.11867h15.286166v4.7247h-15.586166z" fill="#e73138"/><path d="m157.78297 179.11867h-15.28617v4.7247h15.58617z" fill="#e73138"/><path d="m131.0267 290.79263c-2.10855-2.10542-17.22494-14.88727-19.35486-16.32103-.91593-.61656-.98288-.62397-2.1084-.22686-1.46347.51634-4.32072 2.29049-7.01301 4.35478-.56825.4357-1.11509.83066-1.54099 1.11827-.0109-.17706.14704-.48425.40721-.76119.24678-.26268.4224-.48646.45682-.57412.16346-.15535.31328-.30107.49145-.46613 1.34607-1.24701 2.44739-2.3899 2.44739-2.53989 0-.35322-1.46259-2.80592-3.75481-6.29523-1.822146-2.77375-1.830761-2.78162-5.312852-5.08599-1.798283-1.19007-3.362153-2.10184-3.63337-2.12442l-.000013.00001c-.01807-.002-.03041.001-.03669.008-.10042.10524-1.340326 2.30844-2.755386 4.89634-2.362782 4.32113-2.597595 4.65595-2.872695 4.10105-.85738-1.7294-5.470316.14756-6.797516 2.76572-.591789 1.16743-1.246812 2.14416-1.965257 2.93419-.0515.0381-.106473.0795-.18965.14469-.254662.19972-.463021.40812-.463021.46302 0 .0137.0035.0217.0052.0326-.246626.22198-.498189.42911-.75861.61133-2.11287 1.47838-2.943974 2.42506-4.172355 4.7532l-1.189591 2.25464-4.936651 3.22306c-2.715069 1.77246-4.98752 3.17167-5.049819 3.10937-.02991-.0299.28997-.41515.810803-.99529-.02029.0437-.02772.0754-.0041.0754.07276 0 .347427-.23813.610817-.52917.263401-.29105.419547-.52916.346747-.52916-.0182 0-.04875.015-.08888.0419.429659-.46062.898961-.95736 1.422135-1.49861 3.328678-3.44365 6.594269-7.45277 7.471378-9.17205 1.08439-2.12558.379183-4.38978-2.132687-6.84764-2.66228-2.60505-1.739717-3.27628-9.015986 6.56445-3.523052 4.76472-6.628265 8.89797-6.900355 9.18497-.49172.51861-.495059.5184-.495059-.0444 0-1.44576-.151799-1.4264-3.854029.49609-1.954681 1.01502-3.554304 1.74336-3.554304 1.61851s1.487278-1.33571 3.304706-2.69079c3.431151-2.55827 5.013561-4.18589 4.746482-4.88188-.16488-.42967-1.932654-1.23713-2.708362-1.23713-.25704 0-.889944.56623-1.406633 1.25832-.09045.12115-.178314.23184-.267166.33848-.0026-.005-.007-.009-.01497-.009-.07276 0-.347941.23813-.611331.52917-.103502.11436-.183009.215-.24598.30179-.599745.44686-1.443231.90084-2.951758 1.63762-2.535224 1.23823-7.552296 3.81179-11.166663 5.97366l-3.884678 2.32356-1.002716.73402-.906936-1.11156 1.204765-.94353 8.726154-6.10797c5.222388-3.69456 9.79171-6.9116 10.153901-7.14892.39466-.25859 1.628095-.52092 3.078366-.65474 2.31226-.21337 2.531478-.29058 4.930447-1.74202 3.14588-1.90332 6.113589-4.11112 8.33696-6.20168.945888-.88939 1.859587-1.56392 2.030367-1.49862.170778.0653 1.934893 1.13807 3.920173 2.38383 1.98528 1.24577 3.806372 2.26498 4.046781 2.26498.198852 0 1.359847-1.02292 2.741951-2.38435.07691.033.264051-.12845.523999-.45992.09014-.11493.15177-.19629.189653-.25115.05644-.0574.108114-.10572.164849-.16381 1.75088-1.79275 4.433422-4.28491 5.961393-5.53765 1.300451-1.0662 2.561286-2.16211 3.660757-3.16725-.151027.18921-.225031.32246-.170532.32246.07276 0 .347427-.23812.610817-.52916.256619-.28355.409898-.51528.350366-.5271 1.101717-1.03988 1.964108-1.92894 2.376599-2.47737l.568441-.75551 2.453595 2.12338c.372753.3226.691399.60627 1.024229.90021.03396.0528.100166.14016.204637.27337.320085.40813.527761.55444.557072.40152 3.307186 2.98479 4.589111 4.65897 6.532941 8.17986 1.13951 2.06404 2.33901 4.05834 2.66547 4.43178.7769.88868 1.69058.86301 2.77089-.078 1.95154-1.69995 3.77555-2.0725 5.1325-1.04799.4198.31695 2.48967 2.25847 4.59972 4.31446 2.89471 2.82055 12.03704 10.82123 14.64869 12.87478.39735.31243 1.34001 1.07666 1.39002 1.07459l-1.80649 1.26538z" fill="#fff" stroke-width=".264583"/><path d="m608.61719 658.20898c-4.26805.93803-9.18498 2.0077-10.5625 2.35547-4.46209 1.12649-9.81672 2.28609-15.89258 3.46094s-12.87262 2.36575-20.2168 3.55859c-14.68836 2.38569-31.56686 4.77734-49.25586 7.05274-17.68899 2.2754-36.18914 4.4353-54.11523 6.35742s-35.27809 3.6058-50.67774 4.93164c-12.692 1.09272-25.64062 2.46677-38.55664 4.18164-6.458.85744-12.90891 1.79992-19.31445 2.83594s-12.76612 2.16456-19.04687 3.39453c-6.28076 1.22997-12.48081 2.56072-18.56446 4s-12.051 2.98643-17.86523 4.65039c-5.81424 1.66396-11.47672 3.44561-16.94922 5.34961-5.16902 1.79841-10.13609 3.72606-14.9375 5.75195 43.52112 33.4323 93.82967 54.52755 143.05078 66.15235 49.53481-11.69889 100.18557-32.96153 143.89649-66.76563 23.67035-18.32285 42.66586-36.75586 59.00781-57.26758z" fill="#fff" transform="matrix(.26458333 0 0 .26458333 -27.214289 116.41666)"/><path d="m79.216797 139.0625-.349609.002c-6.792719.0157-20.327848.5338-35.167969 2.81446-10.581544 1.6262-23.067293 4.81152-37.042969 9.64257l-.1933594.0684-.037109.20313c-.9889945 5.62965-2.0191011 10.41397-2.7226562 15.41797-2.0594979 14.64801-2.72987531 27.47968-2.6582031 40.48828.100047 18.15934 3.980277 41.17083 9.1152337 53.81836 2.911148 7.17022 6.123214 14.37447 10.185547 20.98047 5.569079 9.0562 12.202373 16.30241 21.498047 23.49804 11.612498 8.9806 25.060563 14.62365 38.207031 17.72852l.08008.0195.08008-.0195c13.146468-3.10487 26.594529-8.74792 38.207029-17.72852 9.29567-7.19563 15.92896-14.44183 21.49805-23.49804 4.06234-6.60601 7.27245-13.81027 10.18359-20.98047 5.13496-12.64752 9.01712-35.65901 9.11719-53.81836.0717-13.0086-.5987-25.84027-2.65821-40.48828-.70355-5.00402-1.7356-9.78834-2.72461-15.41797l-.0351-.20313-.19531-.0684c-13.97568-4.83105-26.45947-8.01637-37.04102-9.64257-15.82629-2.43222-30.165162-2.86126-36.429685-2.8125h-.0059c-.281742-.002-.596567-.002-.910156-.002zm-.349609.70117c.450732-.001.870957.00092 1.259765.004h.0039.002c6.222208-.0486 20.543417.37781 36.322267 2.80273 10.47601 1.60998 22.86558 4.77427 36.72656 9.55469.97899 5.54408 1.99418 10.28016 2.68359 15.18359 2.05458 14.61298 2.72387 27.40472 2.65235 40.38672-.0995 18.06242-3.99685 41.07217-9.06641 53.5586-2.90512 7.15539-6.10129 14.32424-10.13086 20.87695-5.52651 8.98699-12.08866 16.15735-21.33203 23.3125-11.49433 8.88921-24.817234 14.48835-37.85742 17.57812-13.040186-3.08977-26.365043-8.68891-37.859375-17.57812-9.243363-7.15514-15.803559-14.32551-21.330078-23.3125-4.029571-6.55272-7.227688-13.72157-10.132812-20.87695-5.0695463-12.48642-8.9649404-35.49618-9.0644534-53.5586-.071526-12.982.5977719-25.77374 2.6523438-40.38672.6894191-4.90345 1.7026801-9.63953 2.6816406-15.18359 13.860982-4.78043 26.250554-7.94471 36.726563-9.55469 14.792672-2.27336 28.303296-2.79098 35.0625-2.80664z" fill="#fff"/></g></g></svg>