<?xml version="1.0" encoding="UTF-8" standalone="no"?>
<svg
   width="1209.0076"
   height="2499.9915"
   viewBox="0 0 320.54801 662.82973"
   version="1.1"
   id="svg3"
   sodipodi:docname="Tottenham.svg"
   xmlns:inkscape="http://www.inkscape.org/namespaces/inkscape"
   xmlns:sodipodi="http://sodipodi.sourceforge.net/DTD/sodipodi-0.dtd"
   xmlns="http://www.w3.org/2000/svg"
   xmlns:svg="http://www.w3.org/2000/svg">
  <defs
     id="defs3" />
  <sodipodi:namedview
     id="namedview3"
     pagecolor="#ffffff"
     bordercolor="#000000"
     borderopacity="0.25"
     inkscape:showpageshadow="2"
     inkscape:pageopacity="0.0"
     inkscape:pagecheckerboard="0"
     inkscape:deskcolor="#d1d1d1" />
  <path
     fill="#002156"
     d="m 88.813,447.33553 c -1.842,-0.461 -3.433,-1.604 -4.661,-3.318 -6.228,9.607 -8.854,18.197 -6.564,25.906 9.581,32.352 38.123,56.242 72.306,59.424 -32.67,-9.924 -56.848,-43.965 -61.081,-82.012 m -6.69,-19.119 c -2.058,-1.467 -3.821,-2.84 -5.075,-4.037 a 83.538,83.538 0 0 0 -2.835,25.334 c 0.07,1.773 0.197,3.529 0.373,5.268 1.264,-5.184 3.754,-10.6 7.322,-16.123 -0.69,-3.233 -0.58,-6.909 0.215,-10.442 z m 1.611,-4.937 c 0.863,-1.961 1.944,-3.77 3.231,-5.295 1.035,-1.221 2.138,-2.189 3.309,-2.91 3.109,-14.488 9.602,-27.395 19.093,-37.15 -14.171,10.075 -25.032,24.441 -30.742,41.111 0.758,1.039 2.773,2.605 5.109,4.244 z m 122.59,74.379 c -7.074,-0.785 -16.538,-2.654 -20.67,-4.086 -4.612,-1.596 -8.715,-5.447 -10.971,-10.316 a 20.849,20.849 0 0 1 -1.914,-7.932 c -0.076,-1.941 0.109,-4.08 0.678,-6.395 -25.936,-7.91 -53.408,-18.896 -72.533,-29.109 a 20.416,20.416 0 0 1 -2.306,3.398 c -1.438,1.703 -3.054,2.938 -4.717,3.643 1.796,15.912 7.322,31.506 16.121,45.092 11.672,18.021 27.569,30.371 44.741,34.26 6.088,1.371 14.045,3.084 21.165,1.506 26.396,-5.844 47.913,-24.102 58.43,-48.119 -1.232,0.219 -2.617,0.346 -4.104,0.396 -6.021,17.621 -18.687,18.24 -23.92,17.662 z m 34.928,-54.944 c -0.375,-9.279 -2.247,-18.141 -5.378,-26.363 -3.851,-10.084 -16.717,-17.234 -33.666,-21.074 -31.335,-7.084 -72.495,4.619 -98.686,26.652 1.006,4.02 0.708,8.812 -0.643,13.186 18.872,10.146 46.318,21.131 72.213,29.012 6.094,-13.994 17.762,-16.662 26.862,-14.389 a 282.625,282.625 0 0 0 13.769,3.096 l 3.366,0.711 c 4.325,1.012 8.12,3.885 10.396,7.889 1.613,2.83 3.095,7.305 2.084,13.467 3.182,-0.188 4.722,-0.721 5.078,-1.143 3.397,-9.688 5.051,-20.169 4.605,-31.044 z m -14.85,32.184 c 1.043,-5.162 -0.084,-8.756 -1.34,-10.953 -1.571,-2.773 -4.178,-4.762 -7.125,-5.451 l -3.225,-0.678 a 293.052,293.052 0 0 1 -13.99,-3.148 c -8.883,-2.217 -16.504,1.85 -20.711,10.92 a 381.649,381.649 0 0 0 12.74,3.473 c 0.669,-3.23 0.812,-5.473 0.812,-5.512 a 2.548,2.548 0 0 1 2.688,-2.387 2.535,2.535 0 0 1 2.386,2.686 c -0.008,0.182 -0.172,2.752 -0.943,6.418 0.822,0.193 1.646,0.389 2.455,0.568 0.832,0.191 1.652,0.373 2.457,0.543 0.724,-3.574 1.19,-6.611 1.203,-6.674 a 2.544,2.544 0 0 1 5.03,0.764 c -0.037,0.244 -0.509,3.287 -1.254,6.934 1.704,0.332 3.32,0.623 4.852,0.885 0.564,-3.084 0.703,-5.535 0.703,-5.58 a 2.541,2.541 0 0 1 2.664,-2.414 2.536,2.536 0 0 1 2.414,2.658 c -0.009,0.209 -0.146,2.783 -0.75,6.096 3.523,0.477 6.481,0.739 8.934,0.852 z m -47.105,6.215 c 1.985,4.289 5.445,6.768 8.021,7.654 3.348,1.16 12.205,3.021 19.562,3.828 8.07,0.893 14.379,-3.598 17.976,-12.67 -2.701,-0.154 -5.592,-0.471 -8.584,-0.887 -0.561,1.826 -1.274,3.646 -2.196,5.264 a 2.5414097,2.5414097 0 1 1 -4.413,-2.522 c 0.609,-1.072 1.113,-2.289 1.531,-3.543 -1.577,-0.27 -3.166,-0.568 -4.737,-0.871 -0.539,2.107 -1.157,4.111 -1.806,5.609 a 2.547,2.547 0 0 1 -3.35,1.312 2.538,2.538 0 0 1 -1.312,-3.344 c 0.525,-1.205 1.027,-2.838 1.488,-4.607 -0.824,-0.182 -1.641,-0.363 -2.449,-0.545 -0.854,-0.191 -1.729,-0.398 -2.601,-0.609 a 48.565,48.565 0 0 1 -1.653,4.559 c -0.541,1.291 -2.041,1.896 -3.332,1.352 -1.291,-0.544 -1.901,-2.037 -1.354,-3.328 a 41.135,41.135 0 0 0 1.39,-3.783 382.064,382.064 0 0 1 -13.148,-3.596 c -1.078,4.682 -0.144,8.34 0.967,10.727 z m -83.747,-63.346 c -1.127,-0.205 -3.363,-0.189 -5.597,2.24 -3.539,3.834 -5.2,9.031 -4.944,15.436 0.071,1.633 0.299,2.547 0.761,3.863 0.825,2.326 2.807,3.865 4.255,4.127 1.721,0.316 3.664,-0.689 5.478,-2.838 3.963,-4.701 5.672,-13.322 3.728,-18.824 -0.807,-2.295 -2.112,-3.717 -3.681,-4.004 z"
     id="path1" />
  <path
     fill="#ffffff"
     d="m 121.515,-4.6560449e-4 c -32.748,0 -40.511,16.79099960449 -40.511,16.79099960449 0,0 37.786,-2.731 37.786,34.588 0,16.795 -9.14,28.179 -18.814,40.226 -11.239,13.990996 -23.971,29.849996 -23.971,56.453996 0,44.039 28.292,64.699 53.253,82.925 21.746,15.882 42.284,30.88 42.284,59.121 0,28.398 -12.455,50.413 -18.14,56.095 -9.535,9.535 -18.127,11.27 -25.024,12.664 -7.085,1.43 -13.78,2.805 -15.185,12.982 -26.22,15.746 -42.104,43.793 -42.104,74.223 0,1.186 0.025,2.379 0.072,3.57 0.942,23.127 10.834,44.502 27.851,60.186 17.016,15.686 39.124,23.803 62.246,22.859 23.125,-0.941 44.496,-10.836 60.184,-27.848 15.687,-17.016 23.804,-39.125 22.856,-62.244 -1.432,-35.303 -23.834,-65.898 -57.067,-77.945 l 0.127,0.047 a 54.71,54.71 0 0 0 -0.453,-0.182 93.758,93.758 0 0 0 -0.783,-0.275 c -4.203,-1.451 -8.971,-3.1 -8.971,-13.908 0,-10.475 4.754,-11.344 14.219,-13.082 5.626,-1.033 12.509,-2.295 19.259,-6.419 12.015,-7.333 14.269,-16.18 12.081,-18.364 -2.977,-2.98 -6.258,3.28 -18.352,6.923 -4.358,1.316 -8.746,2.081 -11.711,2.081 -2.465,0 -4.305,-0.207 -5.654,-0.452 6.351,-11.898 13.466,-21.639 13.545,-21.74 l 1.55,-2.11 -1.853,-1.853 c -2.457,-2.456 -3.871,-7.566 -3.871,-14.418 0,-8.454 2.15,-19.556 7.14,-31.609 5.904,-14.243 29.334,-60.727 83.075,-60.727 h 3.051 v -3.05 c 0,-19.213 -1.756,-36.883 -5.214,-52.519 l -0.674,-3.038 c 0,0 -5.218,1.481 -9.563,2.451 -0.518,0.114 -4.583,1.113 -4.767,0.255 -0.164,-0.758 2.975,-2.335 4.06,-2.879 4.081,-2.03 9.168,-4.166 9.168,-4.166 l -0.701,-2.445 c -3.834,-13.378 -7.691,-19.772 -7.856,-20.039 l -1.245,-2.038 -2.271,0.719 c -44.752,14.098 -54.321,43.795 -60.039,61.535 -2.783,8.621 -4.504,13.498 -7.616,13.498 -9.237,0 -16.878,-7.639 -19.39,-10.15 -27.901,-27.904 -25.766,-48.021 -22.524,-78.475996 1.147,-10.747 2.444,-22.925 2.444,-36.834 -0.004,-35.056 -13.325,-51.38299960449 -41.927,-51.38299960449"
     id="path2" />
  <path
     fill="#002156"
     d="m 174.593,290.10353 c 0,28.282 -12.063,51.281 -19.033,58.25 -21.598,21.6 -39.413,5.871 -39.606,27.541 -9.801,8.877 -16.852,22.371 -20.312,37.783 0.215,0.021 0.429,0.053 0.64,0.092 2.028,0.369 3.77,1.529 5.1,3.359 27.432,-22.357 69.668,-34.113 101.95,-26.812 10.264,2.32 18.969,6.109 25.562,11.906 -9.914,-16.033 -25.068,-28.408 -42.982,-34.83 -4.253,-1.525 -11.811,-3.271 -11.811,-17.066 0,-25.75 28.17,-5.73 46.731,-33.776 0.908,-1.385 -0.399,-2.594 -1.489,-1.505 -5.613,5.61 -19.402,9.471 -26.695,9.471 -7.301,0 -10.047,-1.662 -10.047,-1.662 6.893,-13.716 15.477,-25.389 15.477,-25.389 -17.23,-17.23 11.77,-111.962 88.502,-111.962 0,-21.975 -2.322,-39.115 -5.143,-51.861 -1.826,0.445 -16.279,3.853 -16.94,0.814 -0.585,-2.693 10.646,-8.531 14.513,-10.452 -3.771,-13.135 -7.527,-19.291 -7.527,-19.291 -65.769,20.721 -52.551,75.173 -68.572,75.173 -10.428,0 -18.62,-8.117 -21.545,-11.043 -39.283,-39.277 -20.975,-65.272 -20.975,-117.466996 0,-35.161 -13.655,-48.3289996 -38.873,-48.3289996 -25.216,0 -34.226,10.9189996 -34.226,10.9189996 0,0 34.551,1.119 34.551,37.41 0,37.994 -42.786,48.481 -42.786,96.678996 -0.002,80.235 95.536,78.728 95.536,142.048 M 129.047,51.378534 c 0,-4.658 -0.501,-8.864 -1.41,-12.66 0,0 7.52,-0.393 7.52,-9.545 0,-7.544 -5.033,-12.688 -6.382,-12.688 -1.089,0 -1.359,1.156 -3.716,1.156 -5.743,0 -6.164,-7.339 -6.164,-7.339 0.85,-0.029 1.724,-0.042 2.62,-0.042 16.444,0 31.664,4.979 31.664,41.119 0,13.365 -1.266,25.257 -2.382,35.749 -1.106,10.362 -2.128,20.000996 -1.834,29.412996 0,0 -28.635,-3.375 -28.635,-24.917996 0,-13.989 8.719,-17.393 8.719,-40.245 z M 88.813,447.33553 c -1.842,-0.461 -3.433,-1.604 -4.661,-3.318 -6.228,9.607 -8.854,18.197 -6.564,25.906 9.581,32.352 38.123,56.242 72.306,59.424 -32.67,-9.924 -56.848,-43.965 -61.081,-82.012 z m -6.69,-19.119 c -2.058,-1.467 -3.821,-2.84 -5.075,-4.037 a 83.538,83.538 0 0 0 -2.835,25.334 c 0.07,1.773 0.197,3.529 0.373,5.268 1.264,-5.184 3.754,-10.6 7.322,-16.123 -0.69,-3.233 -0.58,-6.909 0.215,-10.442 z m 1.611,-4.937 c 0.863,-1.961 1.944,-3.77 3.231,-5.295 1.035,-1.221 2.138,-2.189 3.309,-2.91 3.109,-14.488 9.602,-27.395 19.093,-37.15 -14.171,10.075 -25.032,24.441 -30.742,41.111 0.758,1.039 2.773,2.605 5.109,4.244 z m 122.59,74.379 c -7.074,-0.785 -16.538,-2.654 -20.67,-4.086 -4.612,-1.596 -8.715,-5.447 -10.971,-10.316 a 20.849,20.849 0 0 1 -1.914,-7.932 c -0.076,-1.941 0.109,-4.08 0.678,-6.395 -25.936,-7.91 -53.408,-18.896 -72.533,-29.109 a 20.416,20.416 0 0 1 -2.306,3.398 c -1.438,1.703 -3.054,2.938 -4.717,3.643 1.796,15.912 7.322,31.506 16.121,45.092 11.672,18.021 27.569,30.371 44.741,34.26 6.088,1.371 14.045,3.084 21.165,1.506 26.396,-5.844 47.913,-24.102 58.43,-48.119 -1.232,0.219 -2.617,0.346 -4.104,0.396 -6.021,17.621 -18.687,18.24 -23.92,17.662 z m 29.55,-81.307 c -3.851,-10.084 -16.717,-17.234 -33.666,-21.074 -31.335,-7.084 -72.495,4.619 -98.686,26.652 1.006,4.02 0.708,8.812 -0.643,13.186 18.872,10.146 46.318,21.131 72.213,29.012 6.094,-13.994 17.762,-16.662 26.862,-14.389 a 282.625,282.625 0 0 0 13.769,3.096 l 3.366,0.711 c 4.325,1.012 8.12,3.885 10.396,7.889 1.613,2.83 3.095,7.305 2.084,13.467 3.182,-0.188 4.722,-0.721 5.078,-1.143 3.396,-9.688 5.051,-20.166 4.604,-31.041 a 83.398,83.398 0 0 0 -5.377,-26.366 z m -56.577,64.762 c 1.985,4.289 5.445,6.768 8.021,7.654 3.348,1.16 12.205,3.021 19.562,3.828 8.07,0.893 14.379,-3.598 17.976,-12.67 -2.701,-0.154 -5.592,-0.471 -8.584,-0.887 -0.561,1.826 -1.274,3.646 -2.196,5.264 a 2.5414097,2.5414097 0 1 1 -4.413,-2.522 c 0.609,-1.072 1.113,-2.289 1.531,-3.543 -1.577,-0.27 -3.166,-0.568 -4.737,-0.871 -0.539,2.107 -1.157,4.111 -1.806,5.609 a 2.547,2.547 0 0 1 -3.35,1.312 2.538,2.538 0 0 1 -1.312,-3.344 c 0.525,-1.205 1.027,-2.838 1.488,-4.607 -0.824,-0.182 -1.641,-0.363 -2.449,-0.545 -0.854,-0.191 -1.729,-0.398 -2.601,-0.609 a 48.565,48.565 0 0 1 -1.653,4.559 c -0.541,1.291 -2.041,1.896 -3.332,1.352 -1.291,-0.544 -1.901,-2.037 -1.354,-3.328 a 41.135,41.135 0 0 0 1.39,-3.783 382.064,382.064 0 0 1 -13.148,-3.596 c -1.078,4.682 -0.144,8.34 0.967,10.727 z m 47.105,-6.215 c 1.043,-5.162 -0.084,-8.756 -1.34,-10.953 -1.571,-2.773 -4.178,-4.762 -7.125,-5.451 l -3.225,-0.678 a 293.052,293.052 0 0 1 -13.99,-3.148 c -8.883,-2.217 -16.504,1.85 -20.711,10.92 a 381.649,381.649 0 0 0 12.74,3.473 c 0.669,-3.23 0.812,-5.473 0.812,-5.512 a 2.548,2.548 0 0 1 2.688,-2.387 2.535,2.535 0 0 1 2.386,2.686 c -0.008,0.182 -0.172,2.752 -0.943,6.418 0.822,0.193 1.646,0.389 2.455,0.568 0.832,0.191 1.652,0.373 2.457,0.543 0.724,-3.574 1.19,-6.611 1.203,-6.674 a 2.544,2.544 0 0 1 5.03,0.764 c -0.037,0.244 -0.509,3.287 -1.254,6.934 1.704,0.332 3.32,0.623 4.852,0.885 0.564,-3.084 0.703,-5.535 0.703,-5.58 a 2.541,2.541 0 0 1 2.664,-2.414 2.536,2.536 0 0 1 2.414,2.658 c -0.009,0.209 -0.146,2.783 -0.75,6.096 3.523,0.477 6.481,0.739 8.934,0.852 z M 95.55,417.76753 c -1.127,-0.205 -3.363,-0.189 -5.597,2.24 -3.539,3.834 -5.2,9.031 -4.944,15.436 0.071,1.633 0.299,2.547 0.761,3.863 0.825,2.326 2.807,3.865 4.255,4.127 1.721,0.316 3.664,-0.689 5.478,-2.838 3.963,-4.701 5.672,-13.322 3.728,-18.824 -0.807,-2.295 -2.112,-3.717 -3.681,-4.004 z m -65.75,101.484 c 6.412,4.229 13.203,8.033 13.203,8.033 l -2.377,6.16 c -0.888,-3.732 -4.59,-5.758 -9.367,-8.715 l -15.64,22.615 c -1.91,2.729 -5.634,8.699 -5.934,11.025 0,0 -2.567,-1.629 -4.909,-3.375 -2.449,-1.825 -4.776,-3.514 -4.776,-3.514 2.331,-0.568 6.357,-6.506 8.785,-9.797 l 15.216,-21.711 c -5.699,-4.406 -7.924,-5.27 -11.951,-5.479 l 5.416,-4.062 c 0,0 5.205,4.121 12.334,8.82 m 247.841,76.612 0.473,0.518 c -0.442,-0.023 -0.809,0.205 -1.284,0.473 l 1.373,2.639 c 0.268,0.488 0.647,1.229 0.896,1.283 0,0 -0.294,0.168 -0.645,0.346 -0.307,0.15 -0.598,0.27 -0.598,0.27 0.004,-0.328 -0.102,-0.59 -0.467,-1.34 l -1.437,-2.768 c -0.482,0.242 -1.009,0.482 -1.151,0.873 l -0.122,-0.766 c 0,0 0.71,-0.344 1.476,-0.738 a 80.63,80.63 0 0 0 1.486,-0.79 m -237.718,-20.514 c -10.864,-5.184 -12.308,-17.154 -6.959,-28.359 5.373,-11.252 15.614,-17.584 26.429,-12.416 10.81,5.162 12.333,17.104 6.956,28.357 -5.349,11.207 -15.562,17.608 -26.426,12.418 m 17.916,-37.527 c -6.947,-3.316 -12.409,4.531 -16.528,13.158 -4.119,8.625 -6.813,17.863 0.135,21.182 6.947,3.311 12.438,-4.588 16.558,-13.213 4.119,-8.627 6.783,-17.813 -0.165,-21.127 z m 30.701,8.322 a 327.84,327.84 0 0 0 13.326,3.463 l -0.636,6.576 c -1.969,-2.844 -2.873,-3.539 -9.144,-5.137 l -7.603,25.564 c -0.61,2.34 -3.644,11.193 -2.672,12.857 0,0 -2.112,-0.449 -5.521,-1.395 -3.833,-1.062 -5.634,-1.781 -5.634,-1.781 1.966,-1.293 4.439,-8.861 5.248,-11.938 l 7.641,-25.734 c -6.497,-2.168 -8.007,-2.318 -11.112,-0.875 l 3.766,-5.609 c -0.001,0.003 4.241,1.714 12.341,4.009 m 30.308,6.791 a 270.237,270.237 0 0 0 14.063,1.713 l 0.274,6.598 c -2.706,-2.406 -3.725,-3.186 -10.874,-4.086 l -4.14,26.254 c -0.291,2.406 -1.83,11.537 -0.64,13.051 0,0 -2.508,-0.277 -5.971,-0.762 -3.463,-0.492 -5.591,-0.98 -5.591,-0.98 1.691,-1.32 3.097,-9.967 3.391,-12.375 l 4.242,-26.58 c -6.195,-1.236 -7.468,-0.762 -10.443,0.965 l 2.697,-6.244 c -10e-4,-10e-4 5.784,1.356 12.992,2.446 m 26.849,24.961 -0.545,17.643 c 9.251,0.123 15.584,-0.463 18.405,-4.477 l -1.416,8.016 c 0,0 -5.124,0.104 -12.626,0 -8.246,-0.117 -14.718,-0.656 -14.718,-0.656 1.373,-1.357 1.713,-9.957 1.729,-12.373 l 0.754,-17.316 c 0.033,-4.611 0.454,-12.062 -1.094,-13.629 6.702,0.463 5.849,0.455 12.004,0.693 8.059,0.32 12.624,0.08 12.624,0.08 l 1.014,6.619 c -3.146,-2.625 -7.863,-2.934 -15.564,-2.979 l -0.424,14.809 11.827,0.066 c 1.065,0.012 1.132,0.605 1.129,1.791 -0.013,1.17 -0.029,1.793 -1.153,1.781 l -11.946,-0.068 m 51.658,5.311 c 0.683,6.42 1.359,11.033 2.824,11.875 -0.367,0.664 -1.527,1.535 -3.066,1.699 -1.855,0.197 -3.258,-0.715 -4.545,-2.205 l -20.973,-24.057 0.791,15.305 c 0.254,2.406 0.53,11.523 2.027,12.742 l -6.988,0.316 c 1.217,-1.502 0.893,-10.189 0.635,-12.602 l -0.988,-17.271 c -0.256,-2.406 -0.706,-11.959 -2.209,-13.166 l 6.408,-0.232 21.494,25.527 -1.789,-14.688 c -0.256,-2.414 -1.563,-11.166 -3.01,-12.383 0,0 0.771,-0.076 3.381,-0.43 2.604,-0.354 3.551,-0.543 3.551,-0.543 -1.207,1.506 0.193,10.484 0.453,12.893 l 2.004,17.22 m 39.403,-9.102 c 0.745,2.986 2.223,10.656 4.415,12.158 0,0 -3.317,0.961 -5.345,1.584 -1.805,0.555 -5.781,1.586 -5.781,1.586 0.938,-1.656 -1.152,-10.863 -1.73,-13.162 l -1.992,-8.012 -13.326,3.27 1.516,8.146 c 0.438,2.633 1.825,11.496 3.622,12.578 0,0 -1.864,0.385 -5.747,1.182 -3.253,0.67 -5.519,1.027 -5.519,1.027 0.998,-1.658 -0.341,-9.877 -0.753,-12.498 l -3.23,-17.223 c -0.589,-3.211 -2.07,-11.332 -3.854,-12.283 0,0 1.729,-0.328 5.533,-1.068 3.808,-0.74 5.672,-1.244 5.672,-1.244 -0.938,1.928 0.716,9.721 1.166,12.449 l 1.024,5.467 13.113,-3.197 -1.414,-5.584 c -0.771,-2.959 -2.399,-10.057 -4.222,-11.373 0,0 1.801,-0.521 5.449,-1.559 3.648,-1.029 5.222,-1.619 5.222,-1.619 -0.724,1.969 1.306,8.883 2.146,12.445 l 4.035,16.93 m 24.346,-10.209 -13.002,5.092 0.45,7.141 c 0.29,2.438 0.3,4.676 0.833,5.939 a 2.525,2.525 0 0 0 1.141,1.266 c 0,0 -1.355,0.492 -3.59,1.217 -2.234,0.723 -3.463,1.078 -3.463,1.078 0.779,-1.346 0.969,-3.195 0.9,-5.506 l -1.146,-33.852 c -0.107,-1.229 -0.256,-2.383 -0.664,-3.35 -0.36,-0.863 -0.971,-1.348 -1.396,-1.709 1.479,-0.959 3.333,-2.012 5.217,-2.801 2.987,-1.26 4.247,-1.209 6.427,1.332 l 19.076,23.66 c 3.469,4.516 6.535,7.555 8.53,8.158 0,0 -1.949,0.9 -5.617,2.533 -3.666,1.629 -6.093,2.555 -6.093,2.555 0.218,-0.766 0.243,-1.578 -0.234,-2.799 -0.511,-1.316 -2.388,-3.547 -3.599,-5.236 l -3.77,-4.718 m -2.36,-2.803 -11.555,-16.01 0.814,20.109 z m 56.842,-9.47 c -2.615,1.764 -4.574,3.113 -4.574,3.113 -0.191,-2.574 -5.162,-8.938 -6.621,-10.867 l -11.207,-14.619 9.015,28.818 c -0.351,0.572 -0.989,1.373 -1.583,1.822 -1.779,1.352 -3.51,1.086 -5.09,-0.158 l -21.34,-17.691 7.469,13.756 c 1.828,3.484 5.349,10.734 7.719,11.449 0,0 -1.473,0.787 -3.338,1.691 a 265.074,265.074 0 0 1 -2.983,1.424 c 0.413,-2.025 -3.054,-8.041 -5.073,-11.893 l -8.311,-15.633 c -2.521,-4.703 -5.302,-9.492 -7.691,-10.447 1.849,-0.895 2.406,-1.17 5.049,-2.475 2.205,-1.086 4.146,-2.15 4.146,-2.15 l 24.025,20.438 -9.45,-28.936 c 0,0 1.266,-0.859 3.668,-2.463 2.396,-1.604 4.558,-3.197 4.558,-3.197 0.182,2.588 5.186,9.186 7.008,11.547 l 10.347,13.312 c 2.194,2.74 6.298,8.838 9.219,9.535 -0.005,0 -2.344,1.852 -4.962,3.624 m -32.604,42.945 1.18,1.51 c 0.346,0.422 0.695,0.943 1.064,1.098 0,0 -0.308,0.221 -0.605,0.422 -0.298,0.197 -0.52,0.354 -0.52,0.354 -0.082,-0.406 -0.582,-1.039 -0.746,-1.258 l -1.254,-1.658 1.025,3.27 a 0.77,0.77 0 0 1 -0.182,0.205 c -0.27,0.207 -0.467,0.09 -0.647,-0.053 l -2.471,-1.975 0.965,1.564 c 0.229,0.404 0.644,1.15 0.972,1.303 l -0.404,0.238 a 9.302,9.302 0 0 1 -0.383,0.211 c 0.045,-0.396 -0.453,-1.174 -0.603,-1.443 l -1.06,-1.775 c -0.244,-0.404 -0.627,-0.994 -0.969,-1.094 0,0 0.331,-0.172 0.657,-0.354 0.205,-0.113 0.41,-0.246 0.534,-0.312 l 2.734,2.275 -1.053,-3.244 c 0.102,-0.047 0.26,-0.145 0.506,-0.295 0.314,-0.193 0.576,-0.369 0.576,-0.369 10e-4,0.394 0.459,1.075 0.684,1.38 m -213.273,9.672 c 2.227,0.816 5.1,1.814 5.1,1.814 -2.419,1.754 -4.641,8.73 -6.084,12.518 l -5.58,15.48 c -1.493,4.203 -4.039,10.293 -3.186,12.467 0,0 -3.07,-1.061 -5.554,-1.941 -2.125,-0.758 -3.332,-1.162 -5.583,-2.125 2.735,-0.725 5.313,-9.822 6.152,-12.111 l 2.554,-7.225 -13.373,-5.574 -3.867,8.264 c -1.259,2.869 -4.271,9.369 -3.555,11.406 0,0 -2.362,-0.963 -5.82,-2.555 -4.073,-1.875 -4.96,-2.371 -4.96,-2.371 2.87,-1.41 4.569,-6.043 6.754,-10.723 l 6.993,-15.488 c 2.363,-5.301 4.497,-9.896 4.337,-12.918 0,0 1.249,0.744 4.688,2.289 2.74,1.232 4.14,1.848 5.677,2.465 -2.176,0.867 -5.205,8.68 -6.804,12.186 l -2.049,4.377 13.064,5.383 2.004,-4.961 c 0.938,-2.533 4.178,-10.107 3.479,-12.699 0,-0.003 2.681,0.969 5.613,2.042 m 15.106,50.242 c -11.646,-3.064 -15.35,-14.342 -12.261,-26.09 3.105,-11.811 11.924,-19.725 23.513,-16.674 11.584,3.045 15.366,14.275 12.266,26.086 -3.093,11.754 -11.87,19.74 -23.518,16.678 m 10.357,-39.359 c -7.444,-1.957 -11.29,6.576 -13.671,15.623 -2.387,9.043 -3.245,18.43 4.194,20.391 7.444,1.953 11.311,-6.641 13.688,-15.684 2.386,-9.045 3.231,-18.371 -4.211,-20.33 z m 21.189,43.515 c 0,0 0.741,-0.801 1.246,-2.432 0.712,-2.293 1.17,-6.703 1.718,-10.141 l 3.261,-25.213 c -6.947,-0.871 -8.711,-0.371 -11.762,1.434 l 2.862,-6.455 c 2.163,0.48 6.956,0.998 12.787,1.734 3.902,0.486 15.523,1.537 15.523,1.537 l 0.395,6.455 c -2.563,-2.965 -5.222,-3.232 -11.012,-3.688 l -3.248,25.297 c -0.291,2.355 -1.583,10.527 -0.302,12.947 -1.397,-0.16 -3.711,-0.422 -5.652,-0.615 -2.011,-0.204 -4.659,-0.663 -5.816,-0.86 m 55.357,-8.756 c 0.081,7.59 -6.093,13.086 -15.589,12.945 -7.385,-0.107 -11.247,-3.146 -12.725,-4.383 l 1.537,-7.203 c 2.293,4.59 6.093,7.926 10.371,7.994 4.469,0.062 7.986,-2.568 8.059,-6.998 0.046,-3.219 -1.727,-5.164 -9.181,-9.043 -7.145,-3.689 -9.804,-7.371 -9.804,-12.859 0,-7.473 6.5,-11.268 14.138,-11.27 5.617,-0.006 9.535,1.715 11.996,3.031 l -1.586,6.6 c -3.408,-4.549 -6.492,-6.236 -10.212,-6.287 -3.665,-0.061 -6.26,1.939 -6.236,5.705 0.025,4.104 4.54,6.324 10.628,9.725 7.001,3.916 8.563,7.844 8.604,12.043 m 34.58,-23.252 c 0.271,0.891 0.435,1.973 0.519,2.822 0.072,0.783 0.109,1.822 0.017,2.803 -0.201,2.461 -1.368,5.318 -3.299,7.33 -2.949,3.08 -6.792,4.611 -11.888,4.848 -1.965,0.121 -2.436,-0.479 -2.566,-1.896 l -0.012,-0.309 c 0,0 -0.043,-0.549 0.387,-0.576 l 0.493,-0.051 c 1.506,-0.186 3.739,-0.656 5.532,-2.836 1.718,-2.242 2.306,-5.223 2.006,-8.43 -0.318,-3.33 -1.319,-5.73 -3.559,-7.455 -1.943,-1.494 -4.229,-1.979 -6.58,-1.793 0,0 -0.943,0.08 -1.99,0.246 0,0 -0.614,0.053 -0.562,0.654 l 2.524,26.15 c 0.219,2.303 0.847,10.406 2.734,12.078 0,0 -2.148,0.227 -6.197,0.559 -3.088,0.254 -5.494,0.314 -5.494,0.314 0.812,-2.006 0.677,-4.973 0.475,-8.428 l -1.957,-20.621 c -0.222,-2.361 -0.621,-10.449 -2.545,-12.447 0,0 5.176,-0.766 14.752,-1.67 5.008,-0.475 9.11,0.164 12.648,2.559 2.315,1.56 3.907,3.831 4.562,6.149 m 39.182,8.432 c 2.049,9.064 -2.205,16.781 -11.635,19.139 -6.628,1.656 -16.171,-0.775 -18.834,-12.4 l -3.244,-13.727 c -0.854,-3.842 -2.25,-10.646 -4.48,-12.418 0,0 2.49,-0.354 6.393,-1.08 3.9,-0.729 5.713,-1.162 5.713,-1.162 -1.025,1.615 0.051,7.975 1.069,12.645 l 4.142,17.449 c 0.738,3.197 1.783,5.387 3.576,6.678 1.328,0.959 3.104,1.223 4.951,0.885 1.684,-0.312 3.434,-1.264 4.352,-2.967 0.973,-1.787 0.968,-4.375 0.219,-7.57 l -4.648,-17.447 c -1.271,-4.803 -2.736,-10.814 -4.31,-11.82 0,0 1.894,-0.514 5.483,-1.541 2.717,-0.773 4.334,-1.244 5.506,-1.658 -1.072,2.627 1.481,10.682 2.023,12.986 l 3.724,14.008 m 42.347,-3.576 c 0.914,0.35 1.897,0.59 2.724,0.238 -0.094,0.57 -0.628,1.705 -1.523,2.623 -3.812,3.908 -7.393,3.236 -8.604,2.756 -6.575,-2.508 -17.571,-12.254 -18.024,-13.316 0,0 -0.113,-0.279 0.172,-0.396 l 0.398,-0.176 c 1.717,-0.715 3.666,-2.656 4.436,-4.494 1.229,-2.693 1.021,-5.111 -0.228,-8.074 -1.292,-3.08 -3.555,-5.02 -5.327,-5.541 -2.621,-0.775 -4.576,-0.16 -5.769,0.314 0,0 -1.573,0.619 -2.041,1.09 0,0 -0.315,0.262 0.051,1.334 l 8.308,23.727 c 1.262,3.49 3.453,10.299 5.439,11.445 0,0 -2.244,0.885 -5.646,2.113 -3.404,1.229 -5.475,1.801 -5.475,1.801 0.693,-2.65 -1.928,-9.854 -2.589,-11.875 l -5.372,-16.021 c -1.343,-3.863 -3.795,-10.785 -5.791,-11.893 0,0 3.922,-1.098 12.738,-4.801 4.688,-1.969 9.23,-2.811 13.328,-1.611 2.488,0.73 4.168,1.98 5.543,3.973 0.525,0.77 0.912,1.527 1.246,2.312 0.306,0.729 0.517,1.566 0.656,2.344 0.434,2.422 0.069,4.994 -1.33,7.424 0,0 -1.264,2.443 -3.959,4.361 0,-0.001 8.658,7.335 16.639,10.343"
     id="path3" />
</svg>
