<?xml version="1.0" encoding="UTF-8"?>
<!DOCTYPE svg PUBLIC "-//W3C//DTD SVG 1.1//EN" "http://www.w3.org/Graphics/SVG/1.1/DTD/svg11.dtd">
<!-- Creator: CorelDRAW 2019 (64-Bit) -->
<svg xmlns="http://www.w3.org/2000/svg" xml:space="preserve" width="198.624mm" height="72.2241mm" version="1.1" style="shape-rendering:geometricPrecision; text-rendering:geometricPrecision; image-rendering:optimizeQuality; fill-rule:evenodd; clip-rule:evenodd"
viewBox="0 0 198.2892 72.1022"
 xmlns:xlink="http://www.w3.org/1999/xlink"
 xmlns:xodm="http://www.corel.com/coreldraw/odm/2003">
 <defs>
  <style type="text/css">
   <![CDATA[
    .fil2 {fill:#201D1D}
    .fil3 {fill:#EB1823}
    .fil1 {fill:#FDDB01}
    .fil0 {fill:white}
   ]]>
  </style>
 </defs>
 <g id="Layer_x0020_1">
  <metadata id="CorelCorpID_0Corel-Layer"/>
  <g id="_729102480">
   <path class="fil0" d="M186.1927 21.4514c0,0 -0.0894,-0.3172 -0.4163,-0.3172l-81.2249 0c-3.2931,-3.257 -7.0243,-4.9513 -7.0315,-4.9529 0,0 0,-0.0022 0.328,-0.0022l50.6066 0c0,0 0.3283,0 0.2418,-0.315l-4.3191 -15.5486c0,0 -0.0881,-0.3156 -0.4136,-0.3156l-143.709 0c0,0 -0.3279,0 -0.2396,0.3156l4.317 15.5486c0,0 0.0886,0.315 0.4164,0.315l7.8263 0c0,0 0.328,0 0.4148,0.3155l13.4577 48.466c0,0 0.0884,0.3155 0.4163,0.3155l35.5281 0c0,0 0.3279,0 0.4518,0.108 0.1229,0.1064 7.8824,6.7181 19.9126,6.7181 12.1549,0 19.5955,-6.6111 19.7123,-6.7181 0,0 0.1191,-0.108 0.447,-0.108l95.1182 0c0,0 0.3284,0 0.2403,-0.3155l-12.0814 -43.5091z"/>
   <path class="fil1" d="M69.2938 64.0664c9.3011,5.431 20.417,3.9977 27.2197,-0.0021l3.7963 0.0021c-10.6608,7.805 -24.9866,6.9234 -34.7621,0.0016l3.7462 -0.0016z"/>
   <g>
    <path class="fil1" d="M65.5466 64.0664c-8.6416,-6.1178 -13.7261,-16.9563 -9.5821,-30.6917l-8.0052 0 7.9794 29.3937 -27.1584 0 -13.7319 -49.4674 -8.439 0 -3.0196 -10.806 139.0659 0 2.9653 11.1973 -102.9804 0 2.5829 9.5626 17.3893 0c14.0143,-13.2464 33.5519,-8.1238 41.1204,0.4132l80.555 0 10.9467 38.9562 -93.1102 0c-0.5935,0.5114 -1.1971,0.9927 -1.8155,1.4454l-3.7963 -0.0017c0.9231,-0.5447 1.7671,-1.1342 2.5164,-1.7613 -0.5891,-2.1217 -1.1518,-4.2684 -1.739,-6.4403 -3.7587,3.4894 -11.2263,7.4408 -21.7877,2.758 -9.2573,-4.7335 -15.5482,-18.5879 -3.3253,-29.8085 4.6035,-3.8542 11.253,-5.269 16.417,-3.7079 -0.6129,-2.3668 -1.1499,-4.7319 -1.763,-7.0986 -12.1993,-1.5612 -23.7066,4.1712 -28.6673,16.196 -3.1451,7.7814 -1.9448,20.4426 9.2308,28.6383 0.6238,0.4416 1.2565,0.8488 1.8984,1.2238l-3.7468 -0.0011zm10.2979 -9.7503l0 0 -0.2145 1.1107c0.0758,-0.3749 0.144,-0.7427 0.2145,-1.1107zm-8.6286 -12.9151l0 0c1.4061,2.3652 3.9639,4.0257 7.9021,4.8547 0.1533,-0.537 0.3067,-1.049 0.4595,-1.5861 -3.4012,-0.6834 -5.7782,-2.0245 -6.9037,-4.0972 -0.4865,0.2685 -0.9716,0.5607 -1.4579,0.8292l0 -0.0006zm22.7085 -12.9519l0 0c1.8923,-3.8057 4.6287,-5.9273 7.7744,-7.1958 -0.2036,-0.5119 -0.4347,-1.0257 -0.6655,-1.5126 -3.5545,1.3899 -6.5718,3.8052 -8.6429,8.0501l1.534 0.6584zm13.989 -2.196l0 0c-7.2121,3.245 -11.1758,7.1471 -13.2991,15.2947 0.5369,0.1464 1.0742,0.3171 1.5861,0.4634 0.1785,-0.5605 0.3843,-1.1469 0.5627,-1.7073 4.9857,3.7798 7.1864,9.0997 8.2338,14.0007 0.5896,-0.0977 1.0492,-0.2184 1.6365,-0.2921 -1.5087,-6.9993 -4.5762,-12.1471 -9.3583,-15.3435 1.0726,-2.878 2.6335,-5.0717 4.6542,-6.8295 6.5216,4.9512 9.7176,11.7573 10.1264,20.1233 0.562,0 1.1249,0.0252 1.687,0.0252 -0.5877,-9.4884 -4.27,-16.4154 -10.5356,-21.2209 1.739,-1.2691 3.4518,-2.2697 5.294,-3.0016 -0.1533,-0.072 -0.2811,-0.072 -0.4345,-0.1222 0.3318,-0.4634 0.6654,-0.9012 0.9715,-1.3647 -0.1783,-0.0484 -0.3585,-0.0992 -0.512,-0.0992 -0.1783,0 -0.3836,0.0257 -0.6129,0.0743l0 -0.0006zm-63.753 34.3691l0 0 3.5036 0c-0.2302,-0.804 -0.4611,-1.6583 -0.6899,-2.5109 -1.0238,0.584 -2.0712,1.0234 -3.2231,1.1211l0.4094 1.3898zm65.4931 -34.8091l0 0c8.2085,10.3195 8.0055,25.003 -1.2782,34.6627l87.9198 0 -9.7423 -34.6627 -76.8992 0zm-83.545 -21.1724l0 0 -15.5995 0 1.8154 6.5123 8.4391 0 13.7585 49.4669 7.3131 0c-0.1534,-0.5113 -0.3065,-1.072 -0.4597,-1.6075 -5.1915,-1.6119 -6.1378,-7.2464 -2.9415,-10.4658l-12.3255 -43.9059zm17.1076 44.1023l0 0c-2.428,0 -4.3984,1.8783 -4.3984,4.1707 0,2.3183 1.9704,4.1964 4.3984,4.1964 2.4042,0 4.3727,-1.8781 4.3727,-4.1964 0,-2.2924 -1.9685,-4.1707 -4.3727,-4.1707zm-8.9245 -44.1023l0 0 11.9937 42.7121c3.2739,1.8045 4.6544,5.2438 2.5059,8.9513 0.3839,1.4638 0.7933,2.9044 1.202,4.3175l7.0321 0 -7.9529 -29.4173 11.8151 0c1.0725,-2.2192 2.3002,-4.1461 3.733,-5.7809l-17.1601 0 -3.7329 -13.9046 103.0079 0 -1.8416 -6.8781 -110.6022 0zm53.6018 27.3206l0 0c-0.6131,-0.025 -1.1501,-0.0484 -1.5863,-0.025 -0.4595,0 -0.919,0 -1.406,-0.0972 -0.2036,-0.1227 -0.3311,-0.4148 -0.3311,-0.8548 0,-0.072 -0.1033,-0.1693 -0.2059,-0.0971 -0.4094,0.3171 -0.4094,0.7806 -0.2561,1.0491 0.1801,0.2936 0.4868,0.4885 0.8455,0.5856 0.1009,0.0235 0.2036,0.0486 0.3062,0.0486 0.1786,0 0.3822,0 0.7665,0.0256 0.3333,0 0.6648,0 0.973,-0.0256 0.3752,-0.0235 0.7015,-0.0252 0.9788,-0.0463l-0.0518 -0.3663c-0.0131,-0.065 -0.0235,-0.1317 -0.0327,-0.1967zm-44.214 14.6601l0 0 -11.7129 -41.9807 -3.5547 0 11.9671 42.5899c0.9463,-0.3908 2.0206,-0.6342 3.3005,-0.6092z"/>
   </g>
   <path class="fil2" d="M87.0362 29.3284c0.2059,-0.0738 0.4096,-0.1709 0.6132,-0.2686 0.0273,-0.0235 0.1548,-0.0486 0.5644,-0.0486l0 -0.1222c0,-0.1212 -0.0509,-0.1447 -0.1284,-0.1698 -0.0775,0 -0.1801,-0.0251 -0.2812,-0.0251 -0.2308,0 -0.4361,0.0251 -0.5119,0.1229 -0.1277,0.1458 -0.2561,0.2684 -0.3586,0.3891 0.0268,0.0485 0.0775,0.0988 0.1025,0.1223zm-2.4042 0.8061l0 0c-0.1786,-0.3428 -0.357,-0.6599 -0.588,-0.9284 -0.1025,-0.1207 -0.382,-0.1207 -0.4594,0 -0.1279,0.1479 -0.1803,0.4399 -0.2304,0.732 -0.0257,0.0486 -0.0257,0.0987 0,0.1474 0.0501,0.0235 0.0775,0.072 0.1278,0.0977 0.0507,0.0486 0.1026,0.0235 0.1533,0 0.1026,-0.0977 0.1276,-0.2451 0.1026,-0.4149l0.1533 -0.0737c0.0502,0.0485 0.0753,0.1708 0.1026,0.2921l0 0.1222c-0.0274,0.0743 0.0501,0.1229 0.1533,0.1229 0.1528,-0.0252 0.3062,-0.0744 0.4848,-0.0972zm-0.588 2.8782l0 0 -0.0682 -0.4864c0,-0.1157 -0.0273,-0.2401 -0.0524,-0.3679l-0.0321 -0.22c-0.1026,-0.1223 -0.256,-0.2434 -0.3319,-0.3657 -0.768,-0.1464 -1.4579,-0.3171 -2.1991,-0.4886 -0.1278,-0.0235 -0.2053,-0.0719 -0.2828,-0.1463 -0.3068,-0.2921 -0.5103,-0.6091 -0.6632,-0.9263 -0.1284,-0.3405 0.0502,-0.537 0.4596,-0.6091 0.5371,-0.0742 1.0993,-0.1479 1.6614,-0.1965 0.1535,-0.0235 0.2561,-0.0721 0.3337,-0.1464 0.7931,-0.7549 1.8929,-0.9011 3.043,-0.8034 0.3569,0.023 1.0218,0.1692 1.4061,0.0485 1.2019,-0.0742 1.5336,0.4395 1.3553,1.2435 -0.0507,0.1714 -0.0253,0.3663 0,0.5606 0.3586,0.9519 0.5873,1.9039 0.3062,2.9039 -0.3569,0.8292 -0.7156,1.6817 -0.4087,2.2444 0.3836,0.8526 0.6145,1.7067 0.3585,2.4873 -0.256,1.1463 -0.8958,2.4874 -0.5879,3.5131 0.2818,0.6833 0.7915,2.7793 1.1501,3.805 0.2036,0.7069 0.5879,1.2205 0.9967,1.7326 0.3334,0.4868 0.5644,0.9497 0.7178,1.4148 -0.2058,0 -0.3844,0.0235 -0.5896,0.0235 0.3839,2.1702 0.6398,5.2689 1.2277,5.7803 -0.0507,0.1464 -0.0759,0.3177 -0.1284,0.4634 0,0.1479 -0.2809,0.22 -0.3821,0.3914 -0.7423,1.6582 -1.8165,2.6096 -3.913,3.1706l0 -0.0725c-0.2288,-0.5802 -0.6076,-1.3773 -0.9624,-2.0562 0.7118,-0.4367 1.3732,-0.8979 1.806,-1.359 -3.0697,-2.6845 -3.1705,-3.5388 -3.7078,-6.3925 0,-0.1206 -0.0523,-0.169 -0.1282,-0.169 -0.1025,0 -0.2037,0.0233 -0.3061,0.0233 0.256,0.928 0.4845,1.8549 0.7404,2.756 -1.918,1.3913 -3.0424,2.5126 -3.4518,5.5375 -0.1532,0.5621 -0.5371,0.6828 -0.9717,0.5856 -0.6903,-0.2435 -1.3302,-0.3657 -1.8671,-0.3405 -0.9967,-0.1229 -1.9683,-0.5372 -2.94,-1.1233 0.1529,-0.7571 0.2813,-1.487 0.4346,-2.244 0.281,0.0972 0.5873,0.22 0.7932,0.1949 0.281,0.0485 0.3837,0.0971 0.5097,0.2199 0.1027,0.0737 0.18,0.1709 0.4869,0.1458 0.1532,0 0.768,0.3422 0.9717,0.1715 -0.5623,-4.1462 0.613,-5.7068 3.6052,-7.7329 0.1025,-0.0492 0.155,-0.0257 0.281,0.0485 0.1277,0.1222 0.2304,0.2451 0.3588,0.3658 0.256,0.0993 0.281,-0.0738 0.1276,-0.22 -1.049,-0.584 -1.483,-1.6582 -1.687,-2.9022 -0.027,-0.0486 0.0255,-0.1458 -0.2053,-0.0486 -4.4235,1.4891 -5.2417,0.9034 -8.1565,-1.5376l0.7462 -1.2144c0.1894,-0.2975 0.3804,-0.595 0.5747,-0.8963 0.9864,0.5573 1.493,1.1397 1.8225,1.7216 0.1026,0.1463 0.1801,0.1228 0.2827,0.0486 1.3559,-0.7806 2.7348,-1.4869 4.1171,-2.1704 -0.0272,-0.0971 -0.0522,-0.1942 -0.0522,-0.2684 -0.3062,0.1713 -0.6132,0.3406 -0.9193,0.4869 -3.4752,-2.0207 -5.4435,-1.781 -6.5701,-6.3987 0.0273,0.0071 0.0633,0.0016 0.0991,-0.0164 0.6132,-0.3264 1.1809,-0.6108 1.8118,-0.9334l0.0808 -0.0415c0.4344,0.5371 0.7156,1.3406 0.9213,2.244 -0.0524,0.0736 0.0502,0.1948 0.1027,0.2199 1.5843,0.4143 3.1435,0.8292 4.7044,1.1949 -0.4346,0.7083 -0.7407,1.3159 -0.8707,1.7073 -0.1008,0.5114 -0.2035,0.9513 -0.2035,1.1211l0.2811 0c0.4613,-2.5109 1.0742,-3.4142 3.6068,-4.5353 0,-0.1714 -0.0251,-0.3656 -0.0251,-0.5371 -0.3593,0.0721 -0.7178,0.0721 -1.0748,0 -0.1801,-0.0485 -0.3586,-0.0971 -0.6397,-0.0971 -0.6145,-0.1965 -0.4094,-0.757 -0.1026,-0.7084 0.5121,-0.0722 0.8689,0 1.1518,0.0971 0.1284,0.0736 0.5355,0.0993 1.0474,0.0993l-0.0006 0z"/>
   <path class="fil2" d="M67.217 41.3999c0.4869,-0.2685 0.9715,-0.5605 1.4585,-0.829 1.1249,2.0731 3.502,3.4135 6.9037,4.097 -0.1535,0.5371 -0.3063,1.0491 -0.4597,1.5862 -3.9388,-0.8291 -6.4964,-2.489 -7.9019,-4.8542l-0.0006 0z"/>
   <path class="fil2" d="M89.9249 28.4474l-1.534 -0.66c2.071,-4.2433 5.0883,-6.6586 8.643,-8.0483 0.2308,0.4869 0.4596,1.0005 0.6655,1.5125 -3.1459,1.2674 -5.8816,3.3908 -7.7745,7.1957z"/>
   <path class="fil2" d="M103.9161 26.2553c0.2288,-0.0486 0.4346,-0.0721 0.6132,-0.0721 0.1527,0 0.3327,0.047 0.5114,0.0971 -0.3065,0.4635 -0.6398,0.9012 -0.9717,1.3647 0.1533,0.0485 0.2816,0.0485 0.4344,0.1228 -1.8421,0.7314 -3.5543,1.7319 -5.294,3.0009 6.2656,4.8039 9.9485,11.731 10.5358,21.2209 -0.5622,0 -1.1249,-0.0251 -1.6873,-0.0251 -0.4087,-8.3655 -3.6045,-15.172 -10.1261,-20.1233 -2.0207,1.7555 -3.5818,3.9512 -4.6543,6.83 4.7821,3.1959 7.85,8.342 9.3588,15.343 -0.5878,0.0742 -1.0474,0.1948 -1.6369,0.292 -1.0468,-4.9026 -3.2481,-10.2202 -8.2339,-14.0002 -0.1785,0.5607 -0.3838,1.1463 -0.5622,1.7069 -0.5118,-0.1458 -1.049,-0.3171 -1.5862,-0.4634 2.1233,-8.147 6.0867,-12.0493 13.2986,-15.2942l0.0006 0z"/>
   <g>
    <path class="fil0" d="M110.9488 27.9119l6.9554 25.6374c0.6148,2.4158 1.8156,4.294 5.0638,4.2685l6.2132 0c1.7396,0 2.8138,-0.6579 2.1234,-3.1474 -2.4045,-8.9026 -4.8346,-17.8309 -7.2373,-26.7579l-3.6829 0 7.1866 26.1001c0.2041,0.6108 0,0.8777 -0.4613,0.9029l-2.019 0c-0.411,-0.0252 -0.665,-0.2199 -0.7674,-0.6343 -2.405,-8.782 -4.8328,-17.5623 -7.2379,-26.3692l-6.1367 0zm21.6838 0l0 0 9.3608 16.4175 -4.5515 -16.4175 3.4266 0 8.183 29.9058 -6.1623 0 -9.3085 -17.4899 4.8077 17.4899 -3.7601 0 -8.234 -29.9058 6.2384 0zm40.3036 0l0 0 -6.2656 0 8.261 29.9058 3.7323 0 -4.807 -17.4899 9.3344 17.4899 6.1356 0 -8.1563 -29.9058 -3.4263 0 4.5511 16.4175 -9.3593 -16.4175zm-29.7663 0l0 0 8.285 29.9058 4.7312 0 -8.2861 -29.9058 -4.7301 0zm8.412 3.2929l0 0 0 -0.7062c0.0784,-1.6605 1.1278,-2.5381 3.0953,-2.5867 2.4549,-0.0235 4.6544,-0.0235 6.7003,0 0.3842,0 0.7685,0.0252 1.1248,0.0737 1.3554,0.1463 2.3769,0.7321 2.8128,2.1703l6.3677 23.1984c0.0768,0.4143 0.1551,0.804 0.1802,1.1697l0 0.8543c-0.1536,1.7559 -1.3051,2.4879 -3.1734,2.4395 -2.0427,0.025 -4.0914,0.025 -6.1873,0.025 -0.179,-0.025 -0.3844,-0.025 -0.5631,-0.025 -1.6362,0.1473 -3.2727,-1.0726 -4.1165,-3.78 -2.2483,-7.3666 -4.7567,-15.4171 -6.2406,-22.8329zm-45.9279 -5.3912l0 0 76.8959 0 9.7422 34.6622 -87.9193 0c9.2832,-9.6597 9.4867,-24.3432 1.2779,-34.6622l0.0032 0zm56.8467 10.7339l0 0c1.6112,5.8781 3.1985,11.6841 4.8334,17.5874 0.077,0.4378 -0.1286,0.6577 -0.6384,0.7084l-1.6112 0c-0.9461,-0.0507 -1.5092,-1.2203 -1.8668,-2.4173 -0.2293,-0.8778 -0.4598,-1.779 -0.717,-2.6566 -1.7117,-6.1719 -3.6051,-12.4916 -4.8319,-18.4182 -0.0531,-0.4383 0.0502,-0.6583 0.5366,-0.6583 0.7686,0 1.5595,-0.0235 2.2999,-0.0235 0.207,0 0.4094,0.0235 0.4362,0.2435 0.538,1.9017 1.0478,3.7563 1.5593,5.6346z"/>
   </g>
   <path class="fil3" d="M22.1062 4.6413l12.3257 43.9076c-3.196,3.2194 -2.2495,8.854 2.9415,10.4653 0.1533,0.5355 0.3067,1.096 0.4595,1.6081l-7.3125 0 -13.759 -49.467 -8.4391 0 -1.8155 -6.5123 15.5995 -0.0017z"/>
   <path class="fil3" d="M39.2166 48.7414c2.4043,0 4.3726,1.8783 4.3726,4.1713 0,2.3182 -1.9683,4.1964 -4.3726,4.1964 -2.43,0 -4.3983,-1.8782 -4.3983,-4.1964 0,-2.293 1.9683,-4.1713 4.3983,-4.1713z"/>
   <path class="fil3" d="M30.2922 4.6413l110.6001 0 1.8404 6.8782 -103.0047 0 3.733 13.9051 17.1601 0c-1.433,1.6347 -2.6605,3.5617 -3.7347,5.7803l-11.814 0 7.9529 29.4174 -7.0315 0c-0.4093,-1.4131 -0.8187,-2.8537 -1.2026,-4.3171 2.1486,-3.7078 0.768,-7.1471 -2.5053,-8.9512l-11.9937 -42.7127z"/>
   <path class="fil3" d="M88.5962 25.1064c-5.1641,-1.5612 -11.8141,-0.1458 -16.4176,3.7078 -12.2228,11.2207 -5.9316,25.0767 3.3259,29.8085 10.5607,4.6828 18.0289,0.7321 21.787,-2.758 0.5879,2.1724 1.1501,4.3192 1.7397,6.4403 -6.6495,5.5631 -20.7654,8.245 -31.6346,0.5376 -11.1739,-8.1962 -12.3762,-20.8553 -9.2306,-28.6372 4.9606,-12.0264 16.468,-17.7583 28.6673,-16.1977 0.613,2.3669 1.1501,4.7319 1.7624,7.0987l0.0006 0z"/>
   <path class="fil3" d="M83.9954 32.522l-0.0704 -0.3646c0.0252,0.1266 0.0524,0.2506 0.0704,0.3646z"/>
   <path class="fil3" d="M83.894 31.9637c0.0092,0.0644 0.0196,0.1316 0.0321,0.1965l0.0524 0.3658c-0.2773,0.0218 -0.6037,0.0235 -0.9788,0.0468 -0.3083,0.0235 -0.6396,0.0235 -0.9716,0.0235 -0.3836,-0.0235 -0.5894,-0.0235 -0.768,-0.0235 -0.1025,0 -0.2053,-0.0251 -0.3061,-0.0484 -0.3587,-0.0977 -0.6654,-0.2921 -0.8455,-0.5864 -0.1534,-0.2684 -0.1534,-0.7314 0.256,-1.0489 0.1026,-0.0722 0.2059,0.0256 0.2059,0.0976 0,0.4399 0.1276,0.7319 0.3312,0.8542 0.4869,0.0971 0.9465,0.0971 1.4059,0.0971 0.4363,-0.0229 0.9733,0 1.5864,0.0258z"/>
   <path class="fil3" d="M73.1561 33.1956c0.6343,-0.3209 1.2725,-0.6254 1.9106,-0.9519 -0.6311,0.3248 -1.1988,0.6091 -1.8134,0.9355 -0.0344,0.018 -0.0705,0.0235 -0.0971,0.0164z"/>
   <path class="fil3" d="M75.1217 32.0323c0.0251,0.0744 0.0251,0.1229 0.0251,0.1715 -0.6648,0.3405 -1.3302,0.6577 -1.9932,0.9754 -0.231,-0.1212 -0.487,-0.2685 -0.6654,-0.3897 -0.1278,-0.1223 0,-0.2685 0.1533,-0.1942 0.1784,0.0484 0.357,0.097 0.5622,0.1457l0.1031 0c-0.1284,-0.22 -0.4363,-0.4629 -0.6905,-0.6828l0.076 -0.1464c0.2036,0.0971 0.4338,0.195 0.6648,0.2921l-0.3839 -0.5858c0.0253,-0.0235 0.0777,-0.0484 0.1279,-0.0971 0.2809,0.2921 0.5626,0.5858 0.8688,0.7801 -0.0758,-0.3892 -0.2036,-0.7549 -0.3569,-1.1211l0.1533 -0.0738c0.2036,0.3658 0.4346,0.7063 0.7156,1.0257 -0.1283,-0.2686 -0.3068,-0.5857 -0.5369,-0.8794 -0.1033,-0.2182 0.18,-0.2434 0.2559,-0.1948 0.3586,0.2434 0.6147,0.5856 0.9207,0.9748z"/>
   <path class="fil3" d="M74.4575 39.7663c-0.1769,0.3122 -0.368,0.6092 -0.5575,0.9067l0.5575 -0.9067z"/>
   <path class="fil3" d="M73.8991 40.6708c-0.2528,0.4 -0.4996,0.8 -0.7483,1.2187l0.7483 -1.2187zm0.5748 -0.8942l0 0 -0.5748 0.8942c0.1872,-0.2938 0.375,-0.5858 0.5748,-0.8942zm0.0072 -0.0109l0 0 -0.582 0.9051 -0.7483 1.2187c-0.101,-0.0742 -0.1784,-0.1479 -0.2812,-0.2222 -0.0501,-0.0463 -0.3819,-0.2177 -0.5621,-0.3405 -0.0507,-0.0721 -0.0251,-0.1458 0.0777,-0.1709 0.1783,-0.0235 0.3569,-0.0235 0.5369,-0.0469 -0.2056,-0.0993 -0.4093,-0.2199 -0.6146,-0.3193 0,-0.047 0,-0.1206 0.0268,-0.1692 0.2292,0 0.4596,-0.0236 0.6905,-0.0236 -0.1801,-0.1478 -0.4362,-0.2706 -0.5639,-0.4164 -0.1009,-0.1714 0.0776,-0.2434 0.1529,-0.1949 0.2559,0.0235 0.512,0.0744 0.7428,0.0486l-0.487 -0.4629c0.0275,-0.0485 0.0777,-0.0977 0.1028,-0.1229 0.2308,0.0744 0.4868,0.1715 0.7156,0.2686 -0.101,-0.1458 -0.2037,-0.3171 -0.3063,-0.4628 0.0251,-0.0492 0.0503,-0.0492 0.1026,-0.0977 0.4868,0.2686 0.8182,0.4634 0.9968,0.6092z"/>
   <path class="fil3" d="M87.4194 57.9661c-0.2003,-0.3821 -0.3875,-0.7828 -0.577,-1.1932l-0.3242 -0.7265c0.3422,0.6435 0.6867,1.375 0.9012,1.9197z"/>
   <path class="fil3" d="M86.8424 56.7707c-0.1298,-0.2827 -0.2592,-0.5693 -0.3945,-0.8565l0.0704 0.1299 0.3242 0.7266z"/>
   <path class="fil3" d="M86.4505 55.8892c0.3296,0.7265 0.6343,1.4295 0.964,2.1325 -0.2483,0.1371 -0.4793,0.2342 -0.6828,0.3319 0.1276,-0.22 0.256,-0.4383 0.3569,-0.6599 -0.2542,0.1713 -0.5101,0.3679 -0.7662,0.5621 0.1784,-0.2685 0.3319,-0.5371 0.4845,-0.8055 -0.3061,0.0484 -0.6378,0.1228 -0.944,0.1948 0.2543,-0.2434 0.5097,-0.4633 0.7657,-0.7068 -0.2812,0.0977 -0.5372,0.2199 -0.7933,0.3177 0.1534,-0.2434 0.3337,-0.4634 0.4871,-0.6834 -0.256,0 -0.5372,0.0235 -0.768,0.0486 0.2809,-0.2434 0.5879,-0.4886 0.8957,-0.732l0.0005 0z"/>
   <polygon class="fil3" points="75.6338,55.428 74.969,55.4766 75.5562,55.0131 74.6103,54.7702 75.5819,54.404 74.8156,53.964 75.6845,53.8417 74.9415,53.2326 75.9405,53.3063 75.3259,52.9892 76.0683,53.184 "/>
   <path class="fil3" d="M110.9488 27.9119l6.1372 0c2.4045,8.8069 4.8328,17.5873 7.2374,26.3692 0.103,0.4149 0.357,0.6092 0.768,0.6348l2.019 0c0.4613,-0.0257 0.6648,-0.292 0.4613,-0.9034l-7.1866 -26.1001 3.6827 0c2.4027,8.928 4.8345,17.8552 7.2374,26.7584 0.6903,2.489 -0.3844,3.1473 -2.1234,3.1473l-6.2137 0c-3.2479,0.0252 -4.4485,-1.8531 -5.0633,-4.2683l-6.9559 -25.638z"/>
   <polygon class="fil3" points="132.6322,27.9119 141.9921,44.3295 137.4409,27.9119 140.8672,27.9119 149.0515,57.8178 142.8878,57.8178 133.5802,40.3278 138.3873,57.8178 134.6271,57.8178 126.3931,27.9119 "/>
   <polygon class="fil3" points="172.9348,27.9119 182.2928,44.3295 177.7416,27.9119 181.168,27.9119 189.3255,57.8178 183.1884,57.8178 173.8542,40.3278 178.6611,57.8178 174.9288,57.8178 166.669,27.9119 "/>
   <polygon class="fil3" points="143.1714,27.9119 147.9015,27.9119 156.1877,57.8178 151.4575,57.8178 "/>
   <g>
    <path class="fil3" d="M162.5008 36.5453c-0.5114,-1.8781 -1.0213,-3.7329 -1.5579,-5.6346 -0.0266,-0.2199 -0.2306,-0.2451 -0.4361,-0.2451 -0.7419,0 -1.5328,0.0252 -2.3014,0.0252 -0.4864,0 -0.5883,0.2199 -0.5366,0.6583 1.2282,5.9281 3.1202,12.2462 4.8319,18.418 0.2572,0.8778 0.4877,1.779 0.717,2.6566 0.3591,1.197 0.9207,2.3667 1.8668,2.4176l1.6112 0c0.5127,-0.0509 0.7154,-0.2686 0.6384,-0.7086 -1.6362,-5.9032 -3.2209,-11.7092 -4.8334,-17.5869l0 -0.0005zm-10.9188 -5.342l0 0 0 -0.7069c0.0769,-1.6599 1.1264,-2.5381 3.0953,-2.5868 2.4549,-0.0234 4.6531,-0.0234 6.7003,0 0.3829,0 0.7657,0.0252 1.1248,0.0744 1.3554,0.1458 2.3783,0.7314 2.8128,2.1702l6.369 23.1979c0.0755,0.4149 0.1522,0.804 0.1789,1.1698l0 0.8548c-0.1536,1.7553 -1.3051,2.4874 -3.1734,2.4388 -2.0442,0.0252 -4.0914,0.0252 -6.1873,0.0252 -0.179,-0.0252 -0.3844,-0.0252 -0.5631,-0.0252 -1.6362,0.1479 -3.2741,-1.0726 -4.1165,-3.7799 -2.2498,-7.3672 -4.7567,-15.4171 -6.2406,-22.8322z"/>
   </g>
   <path class="fil0" d="M87.0362 29.3284c-0.0251,-0.0235 -0.0758,-0.0738 -0.1025,-0.1223 0.1025,-0.1207 0.2309,-0.2434 0.3586,-0.3891 0.0759,-0.0978 0.2811,-0.1229 0.5119,-0.1229 0.1011,0 0.2038,0.0251 0.2812,0.0251 0.0775,0.0252 0.1284,0.0486 0.1284,0.1698l0 0.1222c-0.4096,0 -0.5372,0.0252 -0.5644,0.0486 -0.2036,0.0977 -0.4073,0.1949 -0.6132,0.2686z"/>
   <path class="fil0" d="M84.6324 30.1313c-0.1806,0.0236 -0.3336,0.072 -0.4869,0.0977 -0.1027,0 -0.1785,-0.0486 -0.1534,-0.1229l0 -0.1205c-0.0251,-0.1229 -0.0502,-0.2452 -0.1026,-0.2937l-0.1533 0.0737c0.0258,0.1692 0,0.3171 -0.1026,0.4148 -0.0502,0.0229 -0.1026,0.0486 -0.1534,0 -0.0502,-0.0256 -0.0775,-0.0743 -0.1276,-0.0977 -0.0253,-0.0501 -0.0253,-0.097 0,-0.1479 0.0501,-0.292 0.1024,-0.584 0.2308,-0.7315 0.0754,-0.1211 0.3586,-0.1211 0.4595,0 0.2311,0.2685 0.409,0.5858 0.5896,0.9279z"/>
  </g>
 </g>
</svg>
