<?xml version="1.0" encoding="UTF-8"?>
<!DOCTYPE svg PUBLIC "-//W3C//DTD SVG 1.1//EN" "http://www.w3.org/Graphics/SVG/1.1/DTD/svg11.dtd">
<!-- Creator: CorelDRAW 2019 (64-Bit) -->
<svg xmlns="http://www.w3.org/2000/svg" xml:space="preserve" width="176.066mm" height="230.892mm" version="1.1" style="shape-rendering:geometricPrecision; text-rendering:geometricPrecision; image-rendering:optimizeQuality; fill-rule:evenodd; clip-rule:evenodd"
viewBox="0 0 175.861 230.6234"
 xmlns:xlink="http://www.w3.org/1999/xlink"
 xmlns:xodm="http://www.corel.com/coreldraw/odm/2003">
 <defs>
  <style type="text/css">
   <![CDATA[
    .fil6 {fill:#0097D6}
    .fil4 {fill:#B13328}
    .fil5 {fill:#D08716}
    .fil3 {fill:#ED3424}
    .fil1 {fill:#FFDE1B}
    .fil2 {fill:black}
    .fil0 {fill:white}
   ]]>
  </style>
 </defs>
 <g id="Layer_x0020_1">
  <metadata id="CorelCorpID_0Corel-Layer"/>
  <g id="_736990144">
   <path class="fil0" d="M163.3249 49.763c-12.4988,-21.5378 -26.6022,-33.1136 -36.2312,-39.0367 -3.8081,-2.3451 -6.6715,-3.693 -8.0475,-4.3423l-0.5239 -0.2509c-1.128,-0.5657 -2.2477,-0.8495 -3.3233,-0.8495 -2.0414,0 -3.5237,1.0085 -4.3006,2.0318 -2.9998,3.4109 -5.8967,5.2147 -8.3843,5.2147 -1.4319,0 -2.5798,-0.5936 -3.3542,-1.1741 0.4599,-1.2692 1.0113,-2.996 1.3542,-4.7622 0.3976,-2.3073 -0.3594,-3.7913 -1.0672,-4.6326 -1.6516,-1.9612 -4.2003,-1.9612 -5.2899,-1.9612 -1.5929,0 -3.1163,0.9445 -4.3468,2.0416l-1.3498 -0.2312c-0.3508,-0.0606 -0.7075,-0.0606 -1.0587,0l-1.3496 0.2312c-1.2299,-1.0971 -2.7524,-2.0416 -4.3456,-2.0416 -1.1126,0 -3.7171,0 -5.3648,2.0088 -0.7001,0.8544 -1.4385,2.3566 -0.9812,4.6474 0.3349,1.7284 0.8609,3.4338 1.2932,4.6867 -0.7674,0.5854 -1.9064,1.1872 -3.333,1.1872 -2.4744,0 -5.3705,-1.812 -8.3759,-5.2377 -0.7873,-1.0019 -2.2881,-2.0089 -4.3195,-2.0089 -1.0844,0 -2.2027,0.2903 -3.2925,0.8528l-0.5669 0.2657c-1.2837,0.5952 -3.9548,1.8349 -7.3914,3.9766 -9.8284,5.956 -24.1976,17.6252 -36.8295,39.3762 -10.2249,17.4876 -12.4655,34.5175 -12.545,45.7488l0.0013 2.4014c0.0866,5.7606 0.617,10.2336 1.0505,12.9972 4.5974,27.8132 16.4205,54.819 35.1308,80.2444 0.285,0.3959 30.7004,39.4769 51.7475,39.4769 22.7671,0 50.5746,-37.8582 51.736,-39.457 18.6546,-25.3485 30.4506,-52.3536 35.0504,-80.1977 0.6542,-3.4897 1.0724,-8.2504 1.1445,-13.1111l0 -2.3982c-0.1607,-11.2529 -2.4646,-28.3176 -12.5361,-45.6963z"/>
   <path class="fil1" d="M88.399 225.9428c15.9931,0.6271 46.4591,-33.045 62.7206,-63.9728 12.9345,-24.6016 17.2359,-41.2084 17.8755,-68.9929l-162.4471 -0.3163c1.2037,31.5497 6.9797,50.5696 23.5202,77.4612 16.496,26.8206 35.4349,53.6245 58.3307,55.8209z"/>
   <path class="fil2" d="M87.9327 227.5014c-17.5138,0 -45.0159,-32.38 -49.223,-38.1817 -26.5011,-36.014 -32.6427,-67.2276 -34.5792,-78.9249 -0.4196,-2.693 -0.927,-7.068 -1.0095,-12.5365l0 -2.356c0.0825,-11.6117 2.5245,-27.7649 12.117,-44.1716 12.7044,-21.8774 27.0063,-32.9823 35.7544,-38.2841 4.0415,-2.5254 6.9029,-3.7027 7.7414,-4.1225 2.6122,-1.3463 3.7876,0.3361 3.7876,0.3361 10.8538,12.4514 17.7532,2.8583 17.7532,2.8583 0,0 -1.2637,-3.0256 -1.8479,-6.0544 -0.5908,-2.9468 2.0991,-2.9468 3.2796,-2.9468 1.2612,0 3.2829,2.2762 3.2829,2.2762l2.9441 -0.5084 2.9435 0.5084c0,0 2.0196,-2.2762 3.2827,-2.2762 1.1788,0 3.7885,0 3.2805,2.9468 -0.5882,3.0288 -1.9364,6.0544 -1.9364,6.0544 0,0 6.9853,9.5931 17.8415,-2.8583 0,0 1.0924,-1.6824 3.782,-0.3361 0.8412,0.4198 3.9563,1.766 8.3318,4.4587 8.7509,5.3869 22.7161,16.492 35.1668,37.9479 9.5091,16.406 11.9492,32.4766 12.1164,44.1716l0 2.356c-0.082,5.4679 -0.587,9.8429 -1.0921,12.5358 -1.9333,11.6973 -7.9919,42.9109 -34.4961,78.9249 -4.0394,5.5512 -29.3399,38.1824 -49.2211,38.1824zm37.5257 -205.9553l0 0c-2.1876,-3.1141 -4.9632,-6.3938 -8.4146,-9.6767l-0.3368 0.6723c0,0 4.3756,4.3751 8.7514,10.9395 4.4583,6.648 8.8341,15.4802 8.6656,24.3157 0,0 1.4291,-11.7791 -8.6656,-26.2508zm-74.466 1.935l0 0c4.3784,-6.5644 8.7534,-10.9395 8.7534,-10.9395l-0.422 -0.6723c-3.449,3.283 -6.1413,6.5643 -8.332,9.6783 -10.1773,14.4701 -8.7482,26.2509 -8.7482,26.2509 -0.1679,-8.8372 4.2907,-17.6694 8.7488,-24.3174zm116.7039 70.6753l0 0 -16.66 0 0 64.8855c13.5934,-28.8998 18.5164,-56.4825 16.66,-64.8855zm-152.9665 -17.8385l0 0 146.4029 0c-1.4323,-2.6923 -3.0325,-5.3821 -4.7945,-8.1602 -12.6218,-19.0999 -23.475,-16.3219 -23.475,-16.3219 -2.4418,-1.7678 -4.8828,-2.86 -7.4049,-3.4503 -11.0215,-2.4401 -21.8775,5.8067 -22.9696,16.8282 0,0 1.5112,2.019 0.1654,3.197 -1.3439,1.0921 -1.8487,0.1684 -1.8487,0.1684l-3.6167 -3.6196c-6.312,0 -9.3413,7.8262 -9.3413,7.8262 0,0 -2.8582,-7.8262 -9.2561,-7.8262l-3.5314 3.6196c0,0 -0.5899,0.9237 -1.8504,-0.1684 -1.3499,-1.178 0.165,-3.197 0.165,-3.197 -1.0895,-10.8559 -11.6096,-19.0175 -22.3827,-16.9118 -2.693,0.5017 -5.3819,1.6791 -7.9899,3.5339 0,0 -10.9383,-2.778 -23.474,16.3219 -1.8513,2.7781 -3.3663,5.553 -4.798,8.1602zm11.11 84.2499l0 0 0 -66.4115 -17.5046 0c-2.5872,16.7489 5.628,42.5029 17.5046,66.4115zm35.7578 47.837l0 0 0 -114.2484 -17.9218 0 0 94.8725c5.5876,7.157 11.723,13.831 17.9218,19.3759zm35.7596 12.4995l0 0 0 -63.4969c8.6081,-3.6077 14.6895,-12.1453 14.6895,-22.1054 0,-10.0287 -6.0814,-18.5804 -14.6895,-22.1917l0 -18.9539 -17.9242 0 0 18.763c-8.897,3.4967 -15.1918,12.1738 -15.1918,22.3826 0,10.1402 6.2923,18.8025 15.1918,22.297l0 63.1682c2.9003,1.3407 5.6875,2.242 8.3229,2.6276 2.9292,-0.0008 6.1698,-0.8879 9.6012,-2.4905zm17.9188 -126.7479l0 0 0 113.8552c6.1609,-5.733 12.2938,-12.6193 17.8385,-19.8552l0 -94 -17.8385 0z"/>
   <path class="fil3" d="M151.0376 94.1564l0 64.8888c0,0 -1.4728,3.2004 -2.4541,5.0317 -5.1027,8.8455 -10.3169,17.2773 -15.4593,24.0628 -0.0027,0.0031 -0.0053,0.0058 -0.0078,0.0091l0 -93.9925 17.9213 0zm-53.6791 0l0 0 0 18.9539c8.6085,3.6113 14.6838,12.1598 14.6838,22.1884 0,9.9667 -6.0753,18.501 -14.6838,22.1093l0 63.4072c5.1527,-2.4464 11.2221,-6.6222 17.8462,-12.7371 0.0237,-0.0218 0.0487,-0.0479 0.0725,-0.0698l0 -113.8519 -17.9188 0zm-35.7621 0l0 0 0 114.1863c0.7257,0.6598 1.4534,1.3637 2.1778,1.9883 5.6116,4.8369 10.8039,8.2146 15.6607,10.3996l0 -63.1344c-8.9025,-3.4917 -15.1915,-12.1541 -15.1915,-22.2976 0,-10.2081 6.2948,-18.8819 15.1915,-22.3762l0 -18.7661 -17.8385 0zm-35.7603 0l0 0 0 66.3045c0.0404,0.0781 0.0755,0.155 0.116,0.2332 1.9362,3.7619 4.022,7.6502 6.4832,11.6576 3.4295,5.5787 7.1416,11.2741 11.2393,16.638l0 -94.8334 -17.8385 0z"/>
   <path class="fil4" d="M88.1823 109.5204c-14.1986,0 -25.6961,11.5006 -25.6961,25.7795 0,14.1995 11.4975,25.6996 25.6961,25.6996 14.1163,0 25.6144,-11.5032 25.6144,-25.6996 0,-14.2789 -11.4923,-25.7795 -25.6144,-25.7795z"/>
   <path class="fil5" d="M93.264 157.6937c-1.8512,-0.8533 -3.3597,-2.2595 -4.1841,-4.4065 0.8469,-0.2659 1.6689,-0.6368 2.433,-1.0903 5.0718,-2.9946 5.5825,-8.9134 3.072,-13.7537 -0.085,-0.1684 -0.1909,-0.3478 -0.2933,-0.5162 2.912,-9.0845 -2.114,-13.1067 -3.657,-14.0939 0.9557,-3.1688 3.4718,-4.8548 7.2338,-4.3327 5.5366,3.7255 7.0483,12.539 6.9854,18.4894 -0.0833,14.5184 -9.1677,18.6628 -11.5897,19.7039zm-24.4407 -8.2973l0 0c2.4815,3.4059 5.8413,6.1296 9.7436,7.8413 -0.9466,-1.3805 -1.7941,-3.0095 -2.0876,-4.4642 -2.051,-2.2535 -4.5498,-3.9024 -7.656,-3.3771zm-4.5731 -13.3712l0 0c0.1339,4.5404 1.5489,8.7567 3.8709,12.322 3.4508,-0.7981 6.6684,0.7847 9.0044,3.3655 1.2697,-1.0178 4.9945,-3.1086 11.3156,0.5452 6.432,-1.7911 7.8643,-7.9577 5.1087,-13.2777l-0.1629 -0.2852c-2.4732,0.7527 -14.6726,3.8788 -29.1367,-2.6698zm3.7884 -13.7382l0 0c-2.308,3.6 -3.6884,7.861 -3.791,12.4508 7.8951,3.685 15.1291,4.3866 20.4195,4.1528 4.0476,-0.1768 7.1991,-0.984 8.5258,-1.3831 1.4458,-4.5954 1.1351,-10.0146 -3.2489,-12.7274 -3.1631,1.4374 -6.877,1.9422 -9.8264,-0.1512 -4.4269,2.1106 -8.8199,1.5482 -11.9117,-2.1337l-0.1673 -0.2082zm19.2759 -10.9997l0 0c-7.5504,5.6393 -7.8643,10.7363 -7.7528,12.2995 -3.919,1.757 -7.6098,1.5513 -10.4591,-1.8431 -0.1487,-0.1768 -0.2742,-0.3388 -0.371,-0.4791 4.1842,-5.8412 10.9244,-9.7037 18.5829,-9.9773zm14.7925 4.4948l0 0c-3.6365,-2.6326 -8.0353,-4.2617 -12.7928,-4.4839 -3.6883,2.5162 -8.3572,6.7514 -8.5937,11.5518 -0.0171,0.3397 -0.0031,0.5991 0.0142,0.7648 0.1371,0.1026 0.2825,0.2077 0.4189,0.2877 2.5673,1.5292 5.6966,1.0642 8.3003,-0.1966 1.0582,-3.6967 4.0874,-6.0245 8.1832,-5.5191l0.3223 -0.3055c1.167,-1.0755 2.6019,-1.8596 4.1476,-2.0992zm-7.2133 42.4991l0 0c9.8948,-2.9094 17.1487,-12.0938 17.1487,-22.9817 0,-7.405 -3.3117,-14.0054 -8.5146,-18.4035 -1.7711,-0.1602 -3.4571,0.6362 -4.7407,1.8224 1.9114,1.3952 7.3729,6.512 7.2307,19.2791 -0.0775,13.5289 -7.6902,18.5374 -11.1959,20.2638l0.0718 0.0199zm-6.7114 0.9622l0 0c1.5945,0 3.1524,-0.157 4.6609,-0.4594 -2.156,-0.973 -3.9074,-2.6128 -4.7945,-4.9062 -0.0943,-0.251 -0.1602,-0.4593 -0.2026,-0.6072 -3.3206,-1.8801 -7.2422,-2.9779 -10.1401,-0.4593 0.0859,0.3107 0.2197,0.7328 0.428,1.2376 0.4363,1.0642 1.2037,2.4873 2.5129,3.985 2.3733,0.7873 4.9036,1.2095 7.5354,1.2095z"/>
   <path class="fil6" d="M14.7318 76.3179l146.3998 0c0,0 5.5989,10.896 6.5614,17.8385l-159.3334 0c0,0 2.0222,-11.1011 6.3722,-17.8385z"/>
   <path class="fil0" d="M155.695 89.1421l2.779 0 0 2.356 -2.779 0 0 -2.356zm-7.2359 -2.6085l0 0 5.9734 0 0 -2.0223 -5.9734 0 0 -2.6904 6.9002 0 0 -2.1049 -9.675 0 0 11.7807 2.7749 0 0 -4.9631zm-8.9166 4.9644l0 0 2.7782 0 0 -2.356 -2.7782 0 0 2.356zm-9.0877 0.3344l0 0c1.5151,0 2.7757,-0.4197 3.7852,-1.1781 1.0095,-0.8415 1.6001,-1.8512 1.851,-3.1118l-2.7754 0c-0.1685,0.5874 -0.4196,1.0095 -0.756,1.3465 -0.4194,0.5905 -1.1805,0.841 -2.1875,0.841 -0.9276,0 -1.6859,-0.3363 -2.2766,-1.0096 -0.67,-0.6731 -0.9243,-1.5968 -0.9243,-2.9465 0,-1.3465 0.2543,-2.3562 0.8449,-3.112 0.5872,-0.6758 1.4283,-1.0947 2.356,-1.0947 1.0063,0 1.768,0.2536 2.2671,0.7584 0.2568,0.3363 0.5079,0.7559 0.6764,1.3465l2.7754 0c0,-0.7559 -0.3367,-1.5149 -0.9242,-2.1877 -1.0096,-1.3464 -2.6072,-2.0197 -4.8798,-2.0197 -1.6828,0 -3.0293,0.5047 -4.1221,1.5142 -1.2637,1.0921 -1.9396,2.6931 -1.9396,4.7121 0,1.9363 0.5938,3.4488 1.6859,4.5442 1.0928,1.0921 2.6072,1.5969 4.5436,1.5969zm-31.5499 -0.3344l0 0 2.7757 0 0 -11.7801 -2.7757 0 0 11.7801zm-9.0903 0.3344l0 0c1.5144,0 2.7757,-0.4197 3.7878,-1.1781 1.0127,-0.8415 1.6002,-1.8512 1.8511,-3.1118l-2.7749 0c-0.1684,0.5874 -0.4227,1.0095 -0.6764,1.3465 -0.5048,0.5905 -1.2638,0.841 -2.2704,0.841 -0.924,0 -1.68,-0.3363 -2.2706,-1.0096 -0.6732,-0.6731 -0.9269,-1.5968 -0.9269,-2.9465 0,-1.3465 0.2537,-2.3562 0.8417,-3.112 0.5873,-0.6758 1.4317,-1.0947 2.3558,-1.0947 1.0065,0 1.7655,0.2536 2.2704,0.7584 0.2537,0.3363 0.5074,0.7559 0.6764,1.3465l2.7749 0c0,-0.7559 -0.3362,-1.5149 -0.9268,-2.1877 -1.0095,-1.3464 -2.6096,-2.0197 -4.8798,-2.0197 -1.6827,0 -3.0266,0.5047 -4.1219,1.5142 -1.2605,1.0921 -1.9334,2.6931 -1.9334,4.7121 0,1.9363 0.5901,3.4488 1.6828,4.5442 1.0915,1.0921 2.6057,1.5969 4.5401,1.5969zm-17.8384 -8.7514l0 0 5.5564 8.417 2.8606 0 0 -11.7801 -2.6097 0 0 8.2461 -5.4679 -8.2461 -2.9433 0 0 11.7801 2.6045 0 0 -8.417 -0.0006 0zm-5.8043 6.3128l0 0 -7.3189 0 0 -3.112 6.3949 0 0 -2.0222 -6.3949 0 0 -2.4387 6.9822 0 0 -2.1056 -9.7578 0 0 11.7807 10.0946 0 0 -2.1023zm-12.8715 0l0 0 -6.7317 0 0 -9.6784 -2.8608 0 0 11.7807 9.5924 0 0 -2.1023zm-31.132 2.1037l0 0 2.6096 0 4.6263 -11.7808 -2.9436 0 -2.9465 8.9193 -2.9467 -8.9193 -3.0261 0 4.6269 11.7808zm14.8111 -11.7795l0 0 4.7089 11.7808 -3.0293 0 -0.8412 -2.442 -5.0482 0 -0.9243 2.442 -2.8608 0 4.7945 -11.7808 3.2004 0zm0.0826 7.3192l0 0 -1.7654 -4.6294 -1.7712 4.6294 3.5367 0zm75.0488 -7.3192l0 0 4.7973 11.7808 -3.1144 0 -0.8386 -2.442 -4.9631 0 -0.9294 2.442 -2.9441 0 4.798 -11.7808 3.1943 0zm0.0853 7.3192l0 0 -1.6797 -4.6294 -1.7684 4.6294 3.4482 0z"/>
  </g>
 </g>
</svg>
