<svg xmlns:inkscape="http://www.inkscape.org/namespaces/inkscape" xmlns:sodipodi="http://sodipodi.sourceforge.net/DTD/sodipodi-0.dtd" xmlns="http://www.w3.org/2000/svg" xmlns:svg="http://www.w3.org/2000/svg" version="1.1" id="svg2" xml:space="preserve" width="361.10940170535576" height="276.92438781085565" viewBox="0 0 652 500.34934" sodipodi:docname="65ef49b4a3d005259b3176c839398346.ai"><defs id="defs6"><clipPath clipPathUnits="userSpaceOnUse" id="clipPath20"><path d="M 0,512 H 512 V 0 H 0 Z" id="path18"/></clipPath></defs><sodipodi:namedview id="namedview4" pagecolor="#ffffff" bordercolor="#666666" borderopacity="1.0" inkscape:pageshadow="2" inkscape:pageopacity="0.0" inkscape:pagecheckerboard="0"/><g id="g8" inkscape:groupmode="layer" inkscape:label="65ef49b4a3d005259b3176c839398346" transform="matrix(1.3333333,0,0,-1.3333333,-16,622.63532)"><g id="g10" transform="translate(307.045,466.9765)"><path d="M 0,0 H -0.007 L -50.428,-137.983 -100.776,0 H -295.045 L -158.081,-375.249 56.951,-375.262 193.955,0 Z" style="fill:#000000;fill-opacity:1;fill-rule:nonzero;stroke:none" id="path12"/></g><g id="g14"><g id="g16" clip-path="url(#clipPath20)"><g id="g22" transform="translate(202.122,278.8595)"><path d="m 0,0 -56.17,-46.971 34.585,-95.154 H 0.521 l -10.949,-29.998 H -42.623 L -135.748,83.055 H 26.473 L 41.909,40.765 C 30.446,34.186 0,16.667 0,16.667 V -0.007 Z" style="fill:#a08c55;fill-opacity:1;fill-rule:nonzero;stroke:none" id="path24"/></g><g id="g26" transform="translate(435.656,331.8695)"><path d="m 0,0 10.956,30.038 h -161.96 l -16.758,-45.872 c 0,0 -40.033,-23.026 -50.722,-29.179 h -0.014 v -15.002 l -53.479,-44.721 27.407,-75.397 h 33.043 l -16.432,-45 h 145.757 l 10.95,29.998 h -63.214 l 5.481,15.002 h 63.207 l 10.963,30.025 h -63.22 l 5.481,15.015 h 63.214 l 10.956,30.011 h -63.22 l 5.468,15.016 h 63.241 l 10.963,30.044 h -63.241 l 5.481,15.016 h 63.241 l 10.95,29.998 h -63.241 l 5.475,15.015 h 63.241 z m -201.953,-60.015 26.065,15.002 h 23.368 -0.013 l -5.468,-15.002 h -43.959 z" style="fill:#a08c55;fill-opacity:1;fill-rule:nonzero;stroke:none" id="path28"/></g><g id="g30" transform="translate(479.508,451.9676)"><path d="M 0,0 -27.387,-75.038 H -189.248 L -161.927,0 Z" style="fill:#006937;fill-opacity:1;fill-rule:nonzero;stroke:none" id="path32"/></g><g id="g34" transform="translate(259.768,286.8565)"><path d="m 0,0 -26.065,-15.002 h 43.772 0.187 L 23.362,-0.007 23.368,0 Z" style="fill:#1d1d1b;fill-opacity:1;fill-rule:nonzero;stroke:none" id="path36"/></g><g id="g38" transform="translate(223.12,376.9298)"><path d="m 0,0 h -162.234 l -27.394,75.038 h 162.234 z" style="fill:#ff6b00;fill-opacity:1;fill-rule:nonzero;stroke:none" id="path40"/></g></g></g></g></svg>