<?xml version="1.0" encoding="UTF-8"?>
<!DOCTYPE svg PUBLIC "-//W3C//DTD SVG 1.1//EN" "http://www.w3.org/Graphics/SVG/1.1/DTD/svg11.dtd">
<!-- Creator: CorelDRAW 2019 (64-Bit) -->
<svg xmlns="http://www.w3.org/2000/svg" xml:space="preserve" width="169.538mm" height="188.891mm" version="1.1" style="shape-rendering:geometricPrecision; text-rendering:geometricPrecision; image-rendering:optimizeQuality; fill-rule:evenodd; clip-rule:evenodd"
viewBox="0 0 169.3849 188.7201"
 xmlns:xlink="http://www.w3.org/1999/xlink"
 xmlns:xodm="http://www.corel.com/coreldraw/odm/2003">
 <defs>
  <style type="text/css">
   <![CDATA[
    .fil1 {fill:#D40723}
    .fil3 {fill:#FFDB00}
    .fil2 {fill:black}
    .fil0 {fill:white}
   ]]>
  </style>
 </defs>
 <g id="Layer_x0020_1">
  <metadata id="CorelCorpID_0Corel-Layer"/>
  <g id="_834080128">
   <path class="fil0" d="M0.0574 0l-0.0101 3.3791c0,1.845 -0.0099,3.76 -0.02,5.7032 -0.0388,7.4016 -0.0682,15.7815 0.1467,24.6486 0.3712,15.1666 1.338,32.7555 5.6154,48.183 5.3221,19.1505 13.1447,36.0354 23.9258,51.6201 12.969,18.7505 30.7727,36.7982 52.9406,53.633l2.0506 1.553 2.0412 -1.553c22.1586,-16.8358 39.97,-34.8725 52.9301,-53.633 10.7914,-15.5859 18.6142,-32.4702 23.9258,-51.6201 4.5218,-16.2697 5.3817,-34.3084 5.6253,-48.2032 0.0982,-5.9966 0.0875,-11.6407 0.0686,-17.1003 -0.0203,-4.6482 -0.0296,-9.0326 0.039,-13.164l0.0484 -3.4371 -3.4369 0 -162.512 -0.0094 -3.3786 0z"/>
   <path class="fil1" d="M84.6835 184.4794c-23.4963,-17.8514 -40.2555,-35.5954 -52.1978,-52.8629 -12.0802,-17.471 -18.975,-34.5302 -23.448,-50.6056 -4.1109,-14.8342 -5.1077,-31.6302 -5.4881,-47.3634 -0.2735,-11.1131 -0.1468,-21.2882 -0.1273,-30.2549l162.5123 0c-0.1467,8.9748 0.0874,19.1405 -0.1077,30.2549 -0.2733,15.7331 -1.378,32.5309 -5.4986,47.3634 -4.4626,16.0742 -11.3568,33.1351 -23.447,50.6056 -11.934,17.2655 -28.6931,35.0104 -52.1983,52.8629l0.0005 0z"/>
   <path class="fil0" d="M6.8077 6.7772c0.6935,42.9977 -9.18,107.4714 77.8803,173.6146 87.0708,-66.1332 77.1985,-130.6061 77.8915,-173.6038l-155.7719 -0.0108z"/>
   <g>
    <path class="fil1" d="M117.6587 94.5035l2.2264 -0.2733c0.0782,0.5661 0.264,1.0056 0.576,1.3084 0.3129,0.3027 0.6936,0.4493 1.1329,0.4493 0.469,0 0.879,-0.1854 1.2012,-0.5372 0.3223,-0.3616 0.4884,-0.8494 0.4884,-1.4649 0,-0.5763 -0.1561,-1.0352 -0.4685,-1.3769 -0.3126,-0.3322 -0.6932,-0.5077 -1.1427,-0.5077 -0.2929,0 -0.6445,0.0583 -1.0544,0.1755l0.2539 -1.875c0.625,0.0099 1.0933,-0.1173 1.4256,-0.4101 0.3322,-0.2833 0.4885,-0.6639 0.4885,-1.1423 0,-0.4006 -0.1172,-0.7228 -0.3519,-0.9673 -0.2438,-0.2339 -0.5662,-0.3612 -0.9665,-0.3612 -0.3907,0 -0.7229,0.1368 -1.0064,0.41 -0.2732,0.2735 -0.4489,0.674 -0.5076,1.2012l-2.119 -0.3611c0.1467,-0.7323 0.371,-1.3084 0.6639,-1.7479 0.3028,-0.43 0.7133,-0.7717 1.2501,-1.0257 0.5271,-0.2443 1.1234,-0.3711 1.7874,-0.3711 1.1329,0 2.0412,0.3612 2.7143,1.0839 0.5668,0.5957 0.8501,1.2601 0.8501,2.0019 0,1.0549 -0.5766,1.8945 -1.7289,2.5195 0.684,0.1468 1.2406,0.4789 1.6507,0.9962 0.4099,0.5077 0.615,1.1329 0.615,1.8556 0,1.0544 -0.3807,1.9528 -1.1523,2.695 -0.7713,0.7423 -1.7284,1.1135 -2.8708,1.1135 -1.0939,0 -1.9923,-0.3127 -2.7052,-0.9373 -0.7226,-0.6251 -1.1329,-1.4456 -1.2501,-2.4513zm-3.9845 -4.6196l0 0c0,-0.7422 -0.1756,-1.3184 -0.5079,-1.7284 -0.3516,-0.41 -0.7421,-0.615 -1.191,-0.615 -0.42,0 -0.7818,0.166 -1.055,0.4978 -0.283,0.3417 -0.4296,0.889 -0.4296,1.6507 0,0.7812 0.1562,1.3477 0.459,1.709 0.3122,0.3712 0.6934,0.5467 1.1522,0.5467 0.4397,0 0.8107,-0.1755 1.1135,-0.5172 0.3027,-0.3517 0.459,-0.8695 0.459,-1.5435zm-5.2148 5.0296l0 0 2.2363 -0.2444c0.0489,0.4493 0.1955,0.7912 0.4199,1.0056 0.2344,0.215 0.5372,0.3222 0.9085,0.3222 0.4783,0 0.8788,-0.2145 1.2105,-0.654 0.3422,-0.4394 0.5473,-1.3377 0.6446,-2.7149 -0.5857,0.6644 -1.3086,1.0061 -2.1678,1.0061 -0.9474,0 -1.7674,-0.3611 -2.4514,-1.0939 -0.6833,-0.7322 -1.0251,-1.6795 -1.0251,-2.8512 0,-1.2112 0.3611,-2.1973 1.0838,-2.9397 0.7229,-0.7522 1.6501,-1.1228 2.7636,-1.1228 1.2212,0 2.2169,0.4784 2.9986,1.4157 0.781,0.9472 1.1716,2.4901 1.1716,4.6486 0,2.1973 -0.4104,3.7795 -1.2206,4.7557 -0.8107,0.9667 -1.8657,1.4551 -3.1835,1.4551 -0.9279,0 -1.6895,-0.254 -2.2657,-0.7517 -0.5861,-0.4983 -0.9571,-1.2406 -1.1233,-2.2363zm-53.7603 -0.8788l0 0c0,0.6344 0.1563,1.1328 0.488,1.4839 0.3222,0.3517 0.7227,0.5372 1.211,0.5372 0.4785,0 0.869,-0.1755 1.1817,-0.5177 0.3124,-0.3417 0.469,-0.83 0.469,-1.4744 0,-0.5662 -0.1661,-1.0157 -0.4788,-1.3574 -0.3122,-0.3417 -0.7129,-0.5078 -1.2012,-0.5078 -0.5662,0 -0.9863,0.1855 -1.2596,0.5762 -0.2733,0.3905 -0.4101,0.8106 -0.4101,1.2601zm0.2052 -5.1469l0 0c0,0.4589 0.1366,0.8206 0.3904,1.0744 0.2634,0.254 0.6052,0.3905 1.0447,0.3905 0.43,0 0.7816,-0.1366 1.0449,-0.3905 0.264,-0.2639 0.3907,-0.6249 0.3907,-1.0744 0,-0.4395 -0.1268,-0.7812 -0.3907,-1.0446 -0.2538,-0.254 -0.6056,-0.391 -1.025,-0.391 -0.4393,0 -0.7911,0.1371 -1.055,0.4004 -0.2634,0.264 -0.3999,0.6057 -0.3999,1.0352zm-0.469 2.3245l0 0c-0.5956,-0.2539 -1.0257,-0.5962 -1.2989,-1.035 -0.2735,-0.4495 -0.4101,-0.928 -0.4101,-1.4456 0,-0.8984 0.3122,-1.6408 0.9373,-2.2268 0.6251,-0.5857 1.514,-0.8791 2.6759,-0.8791 1.1328,0 2.0217,0.2934 2.6561,0.8791 0.6252,0.586 0.9474,1.3284 0.9474,2.2268 0,0.5466 -0.1463,1.0545 -0.4397,1.4845 -0.2827,0.4294 -0.6933,0.7617 -1.2206,0.9961 0.6646,0.2634 1.1724,0.6541 1.5235,1.1717 0.3422,0.5079 0.5178,1.1034 0.5178,1.7773 0,1.1033 -0.3517,2.0117 -1.0644,2.7051 -0.7035,0.6834 -1.6406,1.0351 -2.8224,1.0351 -1.0839,0 -1.9922,-0.2833 -2.7247,-0.8595 -0.8593,-0.6739 -1.2889,-1.6012 -1.2889,-2.7828 0,-0.6546 0.1661,-1.2501 0.4884,-1.7974 0.3224,-0.5367 0.83,-0.9567 1.5235,-1.2501l0 0.0005zm-5.4203 6.4742l0 0 -2.2947 0 0 -8.672c-0.8399,0.7812 -1.836,1.3673 -2.9784,1.7478l0 -2.0895c0.6056,-0.205 1.2501,-0.5761 1.9628,-1.1229 0.703,-0.5472 1.1818,-1.1917 1.4452,-1.9241l1.8651 0 0 12.0607z"/>
   </g>
   <path class="fil1" d="M127.0838 13.9055c-6.3188,-2.6376 -12.9884,-2.4909 -17.8712,0.3216 -4.3069,2.491 -7.217,7.0612 -7.2558,13.6337 -0.0683,1.3471 -0.4004,2.7345 -0.9768,4.0722l-0.0389 -0.0498c-2.129,3.5258 -5.6935,7.0422 -9.6777,6.7489 -0.7129,-3.5555 -3.0567,-8.3988 -5.3125,-11.494 2.4318,0.1265 6.4064,2.6754 7.2753,4.5109 1.9925,-2.1585 4.8243,-7.5483 4.1798,-11.895 -3.9648,0 -7.8221,-0.9272 -11.7869,-2.6268 0,2.6767 -4.639,9.1026 -7.8614,10.5572 1.6113,2.3833 2.969,7.5779 2.9008,12.2355 -2.3829,1.954 -5.5277,2.3147 -8.0667,2.2662 -1.9433,-3.0172 -4.5608,-5.2443 -4.5896,-9.0326 -0.0394,-3.9268 3.8379,-9.5803 8.0172,-13.2435l-2.0802 -2.5879c-2.6073,0.899 -4.8435,2.4022 -6.8163,4.3858l-0.1074 -0.1575c-2.3829,-3.4464 -6.4748,-9.6382 -12.4222,-11.0634 -1.6991,0.5855 -4.033,4.1597 -5.7716,7.8121 -6.4064,1.308 -11.4845,5.9468 -13.594,9.8629 -2.207,-1.845 -3.7891,-3.7694 -3.9063,-6.2106 -0.3124,-6.6507 8.3496,-5.5566 12.5979,-3.6523l0.0394 -4.8245c-6.3186,-2.6363 -12.9985,-2.4909 -17.8716,0.3324 -4.3068,2.4803 -7.2166,7.0503 -7.2559,13.623 -0.0099,4.4826 -2.7734,8.096 -8.5837,9.9907 2.5289,1.1035 6.0153,0.2638 10.6543,-1.1237 -2.2656,3.184 -4.9903,4.815 -10.6644,6.0451 3.5451,1.2205 9.0433,0.732 14.0241,-0.8883 -1.2894,2.8019 -5.557,5.2243 -13.5746,6.1514 7.0022,2.3349 10.3811,1.5826 17.5882,-0.5558 10.0885,-2.9983 16.631,5.2054 4.8632,8.0567 -2.8513,0.6935 -6.3477,-0.5861 -9.8729,-2.06l-3.3398 4.1007c4.5992,2.3829 12.5003,4.2482 16.25,4.1797 11.5239,-0.2244 16.2796,-9.3355 13.4085,-18.4959 -1.8362,-5.8405 -7.0021,-9.2573 -11.3673,-12.4024 3.8479,-5.2443 17.6955,-11.28 22.6174,0.9474 -2.2069,5.2148 -3.203,10.7806 -2.9885,14.8825 0.3811,7.3343 7.9299,14.19 3.1252,17.8813 -1.1717,0.83 -4.1992,2.0507 -6.5037,2.7929 -10.0199,-0.586 -16.0842,-5.723 -23.7307,-6.0936 -5.7327,-0.2739 -10.2934,0.2339 -13.2331,4.5408 -4.1602,6.1132 -0.4006,16.3381 8.77,16.5236 0.0972,-3.6329 0.9957,-5.5763 1.6602,-6.9041 -2.8131,0 -9.0238,0.4783 -9.0238,-3.5842 0.0098,-2.0701 1.7678,-2.7346 3.7697,-2.7835 10.0387,-0.2245 18.8475,12.9497 30.7027,13.7408 0.0879,-5.8693 8.7695,-12.754 15.4981,-8.0666 3.2519,-4.7658 2.7052,-8.9161 0.6546,-12.2857 3.4957,-3.8674 5.0485,-8.2713 5.1169,-12.9397 0.02,-1.1721 -0.1172,-2.207 -0.3612,-3.1451 2.1679,-0.3216 4.912,-1.0241 6.3771,-2.0697l0 42.383c1.9729,-0.2733 2.539,-0.6056 4.3457,-2.0605l0 -6.9532c1.9924,-0.254 4.1897,-0.3417 6.2892,-2.0996l0 -32.618c3.7208,-0.1656 9.2971,-2.09 12.8029,-6.0357 0.029,-0.0094 0.0486,-0.0094 0.0679,-0.0188 -1.0639,3.838 -4.0624,7.3154 -9.7261,8.5347 4.2086,1.3484 9.2967,-0.3108 13.2129,-3.1141 -1.0157,2.8033 -5.1563,7.4513 -12.7735,8.3786 7.0021,2.3335 9.8439,-0.1265 17.051,-2.2662 10.0878,-2.9983 16.1036,4.6886 4.3359,7.5397 -2.8513,0.6933 -6.3575,-0.5862 -9.8735,-2.0611l-3.3491 4.0924c4.5991,2.3923 12.5003,4.2579 16.2599,4.1796 11.1423,-0.205 15.9573,-8.7403 13.6524,-17.598 9.9312,0.7133 17.9007,17.3636 9.6002,21.7287 -3.3605,1.7679 -6.2699,1.2407 -9.5907,0.5567 -7.3339,-1.4845 -12.8124,-4.8535 -19.1016,-5.1463 -5.7327,-0.2734 -10.2929,0.215 -13.2325,4.5214 -4.1702,6.1136 -0.4005,16.3381 8.76,16.5237 0.1072,-3.6426 1.0056,-5.5765 1.6695,-6.9138 -2.8222,0 -9.0333,0.4783 -9.0232,-3.5747 0,-2.0701 1.7578,-2.744 3.7596,-2.7829 10.049,-0.225 18.8578,12.9491 30.7126,13.7402 0.078,-5.8692 8.7607,-12.7539 15.4988,-8.0665 3.3294,-4.883 2.6755,-9.1311 0.4887,-12.539 3.6415,-4.7659 5.8876,-9.6581 5.2537,-13.7599 -0.4698,-6.9238 -6.5725,-9.0636 -6.6318,-14.8543 -0.0392,-3.9255 3.8488,-9.5789 8.0179,-13.2421l-2.0698 -2.5879c-2.5301,0.8694 -4.932,2.3053 -6.9831,4.1503 -2.3927,-3.4667 -6.4649,-9.5696 -12.3634,-10.9866 -1.709,0.5868 -4.0429,4.161 -5.7815,7.8134 -6.3965,1.308 -11.4645,5.8297 -13.5741,9.7458 -2.5685,-2.1492 -5.9375,-6.6116 -2.6857,-9.7458 2.5095,-2.4022 8.1738,-1.4265 11.3671,0l0.0302 -4.8232zm3.9847 24.5316l0 0c-2.4124,-3.8084 -6.7576,-6.4354 -10.1078,-8.497 2.2267,-3.036 8.1839,-6.7287 13.4474,-6.6009 7.5495,0.1749 13.6039,9.0623 6.3962,14.4142 -1.6593,1.23 -4.4034,1.2892 -9.7358,0.6837z"/>
   <path class="fil2" d="M84.6835 176.3046c-30.4878,-23.1547 -48.4955,-46.1031 -59.3083,-68.3311 28.0676,-0.8689 46.4653,-8.8965 59.3083,-18.672 15.332,10.5954 35.6752,19.2676 59.3087,18.6621 -10.8016,22.2268 -28.8182,45.1753 -59.3087,68.341z"/>
   <path class="fil3" d="M84.6835 172.2042c-27.6177,-20.9767 -43.1656,-40.9578 -53.3881,-60.8878 20.7618,-1.709 39.3955,-7.4515 53.3881,-17.7347 14.0136,10.2731 32.6378,16.0258 53.3982,17.7347 -10.2247,19.9316 -25.7733,39.9127 -53.3982,60.8878z"/>
   <g>
    <path class="fil2" d="M74.2083 148.279c0.9279,-0.1271 1.8846,-0.2445 2.8513,-0.3516 -2.8513,-5.5076 0.9673,-10.1662 6.0647,-10.2734 -3.8768,3.7013 -3.7697,7.7243 -0.9565,9.7754 1.8454,-0.1466 2.265,-0.2049 4.1498,-0.2927 -3.3105,-4.9614 0.3418,-9.2778 5.3711,-9.844 -2.4313,2.4218 -3.6815,6.9043 -0.6935,9.6678 1.6996,-0.0389 2.5685,-0.0583 4.2579,-0.0489 -1.9433,-5.1171 1.9242,-8.3105 6.1425,-8.4566 -2.3144,2.0601 -4.0723,6.1915 -1.3572,8.9061 1.3184,0.2638 2.6857,0.2444 4.902,0.8983 1.4455,0.7329 2.6273,1.8752 2.9691,2.793 -17.871,-2.1679 -20.5179,-1.6207 -33.7501,0.5667 -5.3421,2.8029 -7.8517,3.5452 -10.5274,1.0545 -0.4595,-0.664 -0.0683,-2.3923 1.7674,-2.7735 -0.02,-1.2207 0.8689,-1.8945 1.8455,-2.1873 2.5296,-0.7718 3.8379,1.3673 6.9632,0.5661zm-8.1737 -15.4197l0 0 0.0011 0c-1.8947,0.5177 -3.5648,0.83 -5.2541,-0.7418 -2.0802,0 -4.1993,0.1268 -4.1603,2.5974 -1.973,0.4495 -2.383,2.4318 -1.8946,3.1934 2.8513,2.8713 5.537,2.012 11.25,-1.201 10.7502,-2.2168 32.3725,-2.9102 52.2558,0.1466 -1.7091,-1.2306 -2.3441,-1.6116 -4.4732,-2.8418 -2.1583,-0.4788 -5.1758,-1.6312 -7.7147,-1.9339 -2.0119,-2.7735 -0.8594,-5.8786 1.1233,-8.0761 -4.6289,0.8885 -7.022,3.9547 -5.3225,7.6561 -1.826,-0.1462 -3.7207,-0.2634 -5.6542,-0.3317 -2.9006,-3.1157 -1.0938,-7.4609 1.3769,-9.8344 -4.5119,0.1761 -9.2874,4.4824 -6.5628,9.7172 -1.8067,0 -3.6329,0.0195 -5.4592,0.0677 -3.1834,-3.1834 -1.5328,-7.8516 1.0644,-10.6345 -5.3805,0.654 -10.0781,6.0937 -6.0639,10.8301 -2.022,0.1072 -4.0238,0.244 -5.9966,0.4199 -3.008,-2.3634 -3.4468,-6.1819 0.3812,-10.43 -5.4592,0.1172 -9.2189,5.4686 -5.8499,10.9961 -1.035,0.1172 -2.0506,0.254 -3.0466,0.4006zm-6.7767 -14.5798l0 0c1.2307,-0.1566 3.3008,-0.7817 4.5898,-0.9183 -3.7888,-6.9827 1.2794,-14.0919 8.2032,-13.418 -5.1463,4.6876 -5.4786,9.7073 -1.748,12.3051 2.4414,-0.1855 4.131,-0.4982 6.6404,-0.6249 -3.7013,-5.9375 0.9963,-13.643 7.2855,-12.8713 -3.5452,3.2229 -4.8825,9.3167 -0.9179,12.8124 2.2556,-0.0484 4.5213,-0.0683 6.7677,-0.0582 -2.5882,-6.4943 2.2261,-13.1742 9.1016,-11.1229 -3.5452,1.0056 -6.2697,7.8027 -2.6664,11.2401 2.393,0.0877 4.7364,0.205 7.0121,0.3712 -1.514,-4.9709 1.3474,-10.2734 7.7244,-8.2134 -2.9491,1.9535 -5.0098,5.6154 -2.5196,8.6722 3.1546,0.3417 6.8948,1.055 9.5703,1.5918 2.6465,1.2206 4.9903,3.1934 6.0255,3.7697 -24.6587,-3.3692 -48.3405,-3.008 -64.6481,0.3221 -7.0993,3.5453 -10.9082,4.3365 -14.4529,1.1623 -0.6056,-0.83 -0.088,-3.0274 2.3534,-3.5157 -0.0489,-2.7346 2.588,-2.8707 5.1564,-2.8707 2.0996,1.7282 4.1702,1.9527 6.5237,1.3667l-0.0011 0z"/>
   </g>
  </g>
 </g>
</svg>
