<?xml version="1.0" encoding="UTF-8"?>
<!DOCTYPE svg PUBLIC "-//W3C//DTD SVG 1.1//EN" "http://www.w3.org/Graphics/SVG/1.1/DTD/svg11.dtd">
<!-- Creator: CorelDRAW 2019 (64-Bit) -->
<svg xmlns="http://www.w3.org/2000/svg" xml:space="preserve" width="189.491mm" height="199.857mm" version="1.1" style="shape-rendering:geometricPrecision; text-rendering:geometricPrecision; image-rendering:optimizeQuality; fill-rule:evenodd; clip-rule:evenodd"
viewBox="0 0 189.8302 200.2154"
 xmlns:xlink="http://www.w3.org/1999/xlink"
 xmlns:xodm="http://www.corel.com/coreldraw/odm/2003">
 <defs>
  <style type="text/css">
   <![CDATA[
    .fil0 {fill:#005BA3}
    .fil1 {fill:white}
   ]]>
  </style>
 </defs>
 <g id="Layer_x0020_1">
  <metadata id="CorelCorpID_0Corel-Layer"/>
  <g id="_850194112">
   <path class="fil0" d="M94.9156 0c-32.428,0 -67.9531,9.4733 -94.9156,24.7763 2.7324,97.102 55.3828,148.4766 94.9156,175.4391 39.3506,-26.9625 92.0005,-78.3371 94.9147,-175.4391 -27.1443,-15.303 -62.6688,-24.7763 -94.9147,-24.7763z"/>
   <path class="fil1" d="M94.9156 11.2954c-9.4736,0 -19.1286,0.9109 -28.9666,2.5505 4.5543,55.0179 27.8733,100.0163 69.5926,133.9015 25.8698,-32.2457 40.0791,-71.2322 42.6297,-116.4118 -24.9587,-12.5713 -55.7465,-20.0402 -83.2557,-20.0402z"/>
   <path class="fil1" d="M94.9156 7.4704c29.1487,0 61.5773,8.0149 87.2646,21.6783 -3.0978,68.4995 -32.4292,122.9711 -87.2646,162.14 -54.8362,-39.3512 -84.1671,-93.8228 -87.2642,-162.14 25.6872,-13.6634 58.1153,-21.6783 87.2642,-21.6783zm0 -3.4629l0 0c-30.6061,0 -64.3093,8.5624 -90.9078,23.1368 2.733,71.4151 33.3392,128.0728 90.9078,168.5163 57.5684,-40.4435 88.1742,-97.1012 90.9072,-168.5163 -26.7794,-14.5744 -60.4831,-23.1368 -90.9072,-23.1368z"/>
   <path class="fil0" d="M85.0779 55.0184c0.5464,0 1.0929,-0.1824 1.2752,-0.1824 0.3642,-0.1825 0.7288,-0.7285 0.7288,-1.2746l0 -10.9318c0,-0.7285 -0.1823,-1.0921 -0.5465,-1.2745 -0.1823,-0.1825 -0.7287,-0.1825 -1.2752,-0.1825l0 -0.5474 6.9225 0c1.2755,0 2.3683,0.1824 3.2796,0.5474 1.6395,0.546 2.5501,1.6395 2.5501,3.0965 0,0.9109 -0.3642,1.6394 -1.0931,2.1869 -0.7288,0.5461 -1.457,0.911 -2.1859,1.0935l0 -0.1824c0.9106,0.1824 1.6394,0.3635 2.1859,0.7285 1.2754,0.7285 1.8219,1.822 1.8219,3.0965 0,1.2759 -0.5465,2.1869 -1.6393,3.0978 -1.0931,0.7285 -2.7326,1.0935 -4.5544,1.0935l-7.2871 0 0 -0.365 -0.1823 0zm8.3803 -8.5624l0 0c0.5465,-0.365 0.7288,-1.276 0.7288,-2.3694 0,-0.9095 -0.1823,-1.6395 -0.5465,-2.1855 -0.3647,-0.546 -0.9113,-0.911 -1.822,-0.911 -0.5465,0 -0.7288,0 -0.9112,0.1825 -0.1818,0.1825 -0.3642,0.365 -0.3642,0.911l0 5.1009c1.4573,0 2.3683,-0.1824 2.915,-0.7285zm-2.7327 7.8339l0 0c0.1818,0.3635 0.5466,0.5461 1.0931,0.5461 1.093,0 1.822,-0.365 2.1861,-0.911 0.3646,-0.546 0.7287,-1.457 0.7287,-2.5505 0,-1.6395 -0.5464,-2.733 -1.4575,-3.279 -0.5467,-0.365 -1.4573,-0.5461 -2.7327,-0.365l0 5.6484c0,0.546 0.1823,0.7285 0.1823,0.9109z"/>
   <path class="fil0" d="M101.6559 46.456c0.9111,-1.0935 2.1865,-1.6394 3.6436,-1.6394 1.4576,0 2.733,0.546 3.6435,1.6394 0.9112,1.0935 1.4577,2.368 1.4577,3.825 0,1.4584 -0.5465,2.7329 -1.4577,3.8264 -0.9105,1.0935 -2.1859,1.6394 -3.6435,1.6394 -1.4571,0 -2.7325,-0.546 -3.6436,-1.6394 -0.9106,-1.0936 -1.4571,-2.368 -1.4571,-4.009 0,-1.2745 0.3641,-2.5491 1.4571,-3.6425zm2.0042 7.2864l0 0c0.1823,0.911 0.7288,1.4585 1.4576,1.4585 0.7283,0 1.2748,-0.365 1.4571,-1.0935 0.1823,-0.7285 0.3648,-2.0045 0.3648,-3.644 0,-1.6394 -0.1824,-2.914 -0.3648,-3.6439 -0.1823,-0.7285 -0.7288,-1.0921 -1.4571,-1.0921 -0.7288,0 -1.2753,0.5461 -1.4576,1.457 -0.1823,0.7285 -0.1823,1.822 -0.1823,3.279 0,1.4571 0,2.5505 0.1823,3.279z"/>
   <path class="fil0" d="M119.6917 45.5451c0.7288,0.546 1.093,1.092 1.093,1.822 0,0.3635 -0.1817,0.7285 -0.3642,1.0921 -0.1823,0.365 -0.5464,0.365 -1.0929,0.365 -0.365,0 -0.5466,0 -0.7289,-0.1825 -0.3642,-0.1824 -0.5465,-0.7285 -0.5465,-1.2745l0 -0.73c0,-0.3634 -0.1823,-0.7285 -0.3642,-0.7285 -0.1823,-0.181 -0.3647,-0.181 -0.729,-0.181 -0.7288,0 -1.2753,0.3635 -1.4576,1.0921 -0.3642,0.7299 -0.3642,1.6395 -0.3642,2.5519 0,1.457 0.3642,2.5492 0.9106,3.4601 0.5465,0.9109 1.2755,1.4584 2.1866,1.4584 0.5465,0 1.0931,-0.1824 1.4571,-0.365 0.1824,-0.1825 0.5465,-0.3635 0.9112,-0.911l0.3641 0.3651c-0.7288,1.0921 -1.6393,1.6394 -2.5506,2.1855 -0.5465,0.1824 -1.093,0.365 -1.6396,0.365 -1.4569,0 -2.5507,-0.5461 -3.4612,-1.6395 -0.9113,-1.0935 -1.4577,-2.3693 -1.4577,-3.8264 0,-1.6394 0.5464,-2.914 1.4577,-4.0075 0.9105,-1.0935 2.1859,-1.6394 3.8258,-1.6394 1.0932,0 1.8213,0.3634 2.5503,0.7285z"/>
   <path class="fil0" d="M122.0601 55.0184c0.3647,0 0.7288,-0.1824 0.9111,-0.365 0.1819,-0.1824 0.3643,-0.546 0.3643,-1.0921l0 -11.4778c0,-0.3651 0,-0.7285 -0.1823,-0.911 -0.1819,-0.1825 -0.5466,-0.365 -0.9107,-0.365l0 -0.5461 4.3724 0 0 6.3755c0.5466,-0.546 0.9107,-0.9095 1.4572,-1.2745 0.5465,-0.3635 1.093,-0.546 1.64,-0.546 0.9105,0 1.6394,0.1824 2.1859,0.7285 0.5464,0.546 0.9105,1.2745 0.9105,2.5505l0 5.4659c0,0.5461 0,0.9096 0.1823,0.9096 0.1825,0.1824 0.5466,0.365 0.9112,0.365l0 0.5474 -5.2835 0 0 -0.5474c0.3647,0 0.7288,-0.1825 0.9111,-0.365 0.1824,-0.1811 0.1824,-0.3635 0.1824,-0.9096l0 -5.4659c0,-0.5461 0,-0.911 -0.1824,-1.0935 -0.1823,-0.5461 -0.5465,-0.7285 -1.093,-0.7285 -0.3647,0 -0.7288,0.1824 -1.2753,0.546 -0.3648,0.365 -0.5466,0.5475 -0.5466,0.7299l0 6.0119c0,0.5461 0,0.7285 0.1818,0.9096 0.1823,0.1824 0.3648,0.1824 0.9112,0.365l0 0.5474 -5.4655 0 0 -0.365 -0.1823 0z"/>
   <path class="fil0" d="M138.4563 45.1801l0 7.6515c0,0.365 0,0.7299 0.1823,0.9109 0.1818,0.3651 0.5468,0.5475 1.0931,0.5475 0.3642,0 0.7288,-0.1824 1.093,-0.365 0.1823,-0.1825 0.3644,-0.3635 0.729,-0.546l0 -6.3769c0,-0.5461 -0.1823,-0.7285 -0.3647,-0.911 -0.182,-0.1825 -0.5467,-0.3635 -1.0932,-0.3635l0 -0.5475 4.5543 0 0 8.199c0,0.546 0,0.7285 0.1825,0.9109 0.1823,0.1811 0.5459,0.3635 1.0934,0.3635l0 0.5475c-1.457,0.1824 -2.1869,0.1824 -2.5505,0.3635 -0.3651,0 -0.911,0.1824 -1.822,0.546l0 -1.457c-0.5467,0.5475 -0.9113,0.7299 -1.2755,0.911 -0.5465,0.365 -1.2754,0.546 -2.0042,0.546 -0.7288,0 -1.4571,-0.181 -2.0036,-0.7271 -0.5471,-0.5474 -0.9111,-1.2759 -0.9111,-2.5519l0 -5.647c0,-0.5475 0,-0.7285 -0.1823,-0.9109 -0.1819,-0.1825 -0.3643,-0.1825 -0.9107,-0.3651l0 -0.546 4.1901 0 0 -0.1825z"/>
   <path class="fil0" d="M147.383 55.0184c0.3636,0 0.7285,-0.1824 0.9109,-0.1824 0.1826,-0.1825 0.3651,-0.5461 0.3651,-1.0936l0 -6.5579c0,-0.5475 0,-0.7285 -0.1824,-0.9109 -0.1826,-0.1825 -0.5475,-0.3651 -0.911,-0.3651l0 -0.546 4.19 0 0 1.6395c0.3649,-0.5461 0.7284,-0.911 1.0935,-1.0936 0.7284,-0.546 1.4569,-0.7285 2.1855,-0.7285 0.911,0 1.6394,0.1825 2.1869,0.7285 0.3635,0.1825 0.5461,0.7285 0.7284,1.276l0.1825 0c0.3635,-0.5475 0.911,-0.9109 1.2746,-1.0935 0.546,-0.3635 1.2759,-0.7285 2.0045,-0.7285 0.7284,0 1.4569,0.1825 2.0031,0.7285 0.5473,0.546 0.9108,1.276 0.9108,2.368l0 5.6484c0,0.546 0,0.9109 0.1826,0.9109 0.1825,0.1825 0.5474,0.1825 0.9109,0.365l0 0.5461 -5.2833 0 0 -0.5461c0.365,0 0.7284,-0.1824 0.9108,-0.365 0.1825,-0.1824 0.1825,-0.5474 0.1825,-0.9109l0 -5.466c0,-0.546 0,-1.0921 -0.1825,-1.2745 -0.1824,-0.365 -0.5459,-0.5475 -0.9108,-0.5475 -0.3651,0 -0.7286,0.1825 -1.2746,0.5475 -0.3651,0.3635 -0.7286,0.546 -0.7286,0.7285l0 6.0119c0,0.546 0,0.7285 0.1811,0.9109 0.1824,0.1825 0.365,0.1825 0.911,0.365l0 0.5461 -5.2835 0 0 -0.5461c0.365,0 0.73,-0.1824 0.9111,-0.365 0.1824,-0.1824 0.1824,-0.5474 0.1824,-0.9109l0 -5.466c0,-0.546 0,-1.0921 -0.1824,-1.2745 -0.1811,-0.365 -0.5462,-0.5475 -0.9111,-0.5475 -0.5459,0 -0.9094,0.1825 -1.2745,0.5475 -0.365,0.3635 -0.5461,0.546 -0.5461,0.7285l0 6.0119c0,0.546 0,0.7285 0.1811,0.9109 0.1824,0.1825 0.365,0.1825 0.911,0.365l0 0.5461 -5.4659 0 0 -0.911 -0.3636 0z"/>
   <path class="fil0" d="M103.8424 82.5271c1.093,0 2.0036,-0.1817 2.1859,-0.5464 0.3642,-0.3642 0.5465,-0.9107 0.5465,-1.8219l0 -8.9267c0,-0.5466 0,-0.9107 -0.1823,-1.2754 -0.1818,-0.1818 -0.3642,-0.3642 -0.7283,-0.3642 -0.1823,0 -0.5465,0 -0.9111,0.1823 -0.1824,0 -0.5465,0.1818 -1.093,0.3642l0 -0.5465 5.8295 -2.5507 0.3647 0 0 13.1168c0,0.9111 0.1818,1.4577 0.3642,1.6395 0.1823,0.1823 0.9111,0.3647 2.0042,0.3647l0 0.5464 -8.3802 0 0 -0.1823z"/>
   <path class="fil0" d="M120.0565 72.1434c0.1817,-0.3648 0.1817,-0.9111 0.1817,-1.4577 0,-0.9106 -0.1817,-1.4576 -0.5465,-2.0042 -0.3641,-0.5465 -0.9106,-0.7282 -1.6394,-0.7282 -0.5465,0 -0.9108,0.1817 -1.2755,0.5464 -0.3642,0.3642 -0.5465,0.7284 -0.5465,1.2754 0,0.9106 0.3642,1.6395 1.2755,2.3683 0.5465,0.3641 1.093,0.9107 1.6395,1.0931 0.5464,-0.3649 0.7288,-0.729 0.9111,-1.0931zm-3.8261 9.1086l0 0c0.3642,0.9111 1.0932,1.4575 2.0043,1.4575 0.5465,0 0.9107,-0.1823 1.4571,-0.5464 0.3648,-0.3647 0.5465,-1.0931 0.5465,-2.0042 0,-0.9105 -0.3641,-1.6395 -0.9105,-2.3682 -0.365,-0.3642 -1.0931,-0.9107 -2.1862,-1.6395 -0.3647,0.7288 -0.7288,1.0931 -0.9111,1.4571 -0.1823,0.5471 -0.364,1.0935 -0.364,1.8219 0,0.7288 0.1816,1.2753 0.364,1.8219zm-1.8219 -4.5543l0 0c0.5465,-0.3642 1.0931,-0.7288 2.0042,-1.093l0 -0.1823c-0.1823,0 -0.5463,-0.3643 -1.0928,-0.7289 -0.5473,-0.3642 -0.9114,-0.9106 -1.2755,-1.2753 -0.3646,-0.3641 -0.5465,-0.9107 -0.5465,-1.2748 -0.1823,-0.3648 -0.1823,-0.7288 -0.1823,-1.0935 0,-1.0931 0.5465,-2.0038 1.457,-2.9149 0.9112,-0.7282 2.1865,-1.093 3.8261,-1.093 1.4577,0 2.5508,0.3648 3.2795,0.9112 0.7283,0.7282 1.093,1.4571 1.093,2.3682 0,0.9107 -0.3647,1.6395 -1.2753,2.3683 -0.3641,0.3643 -1.093,0.7283 -1.8218,0.9106l0 0.1823c1.0929,0.7288 1.8218,1.4572 2.1859,2.0042 0.7288,0.9106 1.0931,1.8213 1.0931,2.9147 0,1.4572 -0.5466,2.5503 -1.4572,3.4614 -1.093,0.9106 -2.3682,1.2754 -4.0078,1.2754 -1.0937,0 -2.3682,-0.3648 -3.2797,-0.9113 -1.0929,-0.7287 -1.4571,-1.6394 -1.4571,-2.9147 0.182,-1.2754 0.5466,-2.1859 1.4571,-2.9148z"/>
   <path class="fil0" d="M130.2585 77.2442l0 -6.5585 -0.1824 0 -4.3723 6.1943 0 0.1819 4.5547 0 0 0.1823zm-5.4655 -0.5466l0 0c0,-0.1824 0.3643,-0.3642 0.5466,-0.9106l2.3682 -3.4619 3.097 -4.1901 0.9106 -1.2754 1.8219 0 0 10.0203 1.4576 0 0 2.5502 -1.4576 0 0 3.2794 -3.2789 0 0 -3.2794 -5.8302 0 0 -2.5502c0.1824,0.1819 0.1824,0 0.3648,-0.1823z"/>
   <path class="fil0" d="M143.1931 72.1434c0.1824,-0.3648 0.1824,-0.9111 0.1824,-1.4577 0,-0.9106 -0.1824,-1.4576 -0.5475,-2.0042 -0.3635,-0.5465 -0.9109,-0.7282 -1.6391,-0.7282 -0.5467,0 -0.9108,0.1817 -1.2748,0.5464 -0.3649,0.3642 -0.5471,0.7284 -0.5471,1.2754 0,0.9106 0.3646,1.6395 1.2752,2.3683 0.5467,0.3641 1.0939,0.9107 1.6398,1.0931 0.546,-0.3649 0.7284,-0.729 0.911,-1.0931zm-3.826 9.1086l0 0c0.3646,0.9111 1.0934,1.4575 2.0042,1.4575 0.5459,0 0.9108,-0.1823 1.4568,-0.5464 0.3651,-0.3647 0.5475,-1.0931 0.5475,-2.0042 0,-0.9105 -0.3651,-1.6395 -0.911,-2.3682 -0.3649,-0.3642 -1.0933,-0.9107 -2.1864,-1.6395 -0.364,0.7288 -0.7288,1.0931 -0.911,1.4571 -0.1817,0.5471 -0.3644,1.0935 -0.3644,1.8219 0,0.7288 0.1826,1.2753 0.3644,1.8219zm-1.822 -4.5543l0 0c0.5471,-0.3642 1.0935,-0.7288 2.0042,-1.093l0 -0.1823c-0.1822,0 -0.5466,-0.3643 -1.0931,-0.7289 -0.5464,-0.3642 -0.9111,-0.9106 -1.2752,-1.2753 -0.3643,-0.3641 -0.5466,-0.9107 -0.5466,-1.2748 -0.1824,-0.3648 -0.1824,-0.7288 -0.1824,-1.0935 0,-1.0931 0.5465,-2.0038 1.4578,-2.9149 0.9105,-0.7282 2.1859,-1.093 3.8262,-1.093 1.457,0 2.5505,0.3648 3.2789,0.9112 0.7285,0.7282 1.0936,1.4571 1.0936,2.3682 0,0.9107 -0.3651,1.6395 -1.2759,2.3683 -0.3636,0.3643 -1.0936,0.7283 -1.8222,0.9106l0 0.1823c1.0935,0.7288 1.8222,1.4572 2.1869,2.0042 0.7286,0.9106 1.0923,1.8213 1.0923,2.9147 0,1.4572 -0.5462,2.5503 -1.457,3.4614 -1.0936,0.9106 -2.3681,1.2754 -4.0081,1.2754 -1.093,0 -2.3683,-0.3648 -3.2795,-0.9113 -1.0931,-0.7287 -1.4571,-1.6394 -1.4571,-2.9147 0.1823,-1.2754 0.5465,-2.1859 1.4571,-2.9148z"/>
   <path class="fil1" d="M37.8934 37.8936l-23.6837 0 0 0.9109c0,0 0,0.5461 0.7288,0.5461 0.7289,0 3.2796,0.5461 4.3727,3.0964 1.0928,2.552 19.4927,44.0884 19.4927,44.0884 0,0 0.3649,0.1818 0.9112,0.1818 0.5465,0 0.7288,-0.1818 0.7288,-0.1818l16.7607 -42.0839c0,0 1.2747,-2.5505 2.5501,-4.0075 0.9111,-1.0935 1.8218,-0.911 2.5506,-1.0935 0.7288,-0.1824 0.9112,-0.5461 0.9112,-0.7285l0 -0.7285 -14.7569 0 0 0.546c0,0.365 0.5466,0.7286 0.729,0.7286 1.2752,0 4.5541,0.1824 5.283,2.1869 0.5465,2.0044 -1.093,5.2819 -1.093,5.2819l-9.6558 23.6844 -11.4773 -26.0524c0,0 -1.093,-2.7316 -0.1824,-4.0076 0.9112,-1.2745 2.9154,-1.2745 4.0084,-1.2745 0.9106,0 1.6394,-0.365 1.8219,-0.5475l0 -0.546z"/>
   <path class="fil1" d="M97.4658 118.4164l-24.2294 0c0,0 0,1.2754 1.0929,1.4578 0.5465,0 4.3725,0.5464 4.7367,2.3682 0,0.3641 0.1823,34.4321 0.1823,34.4321 0,0 0,5.465 -0.9112,6.3761 -0.9105,0.7289 -3.8254,1.6395 -4.5541,1.8219 -0.1824,0 -0.1824,0.1823 -0.1824,0.1823l0 0.7283c0,0.1824 0.1824,0.1824 0.1824,0.1824l39.897 0 2.9146 -15.4853c0,-0.1823 -0.1818,-0.3647 -0.1818,-0.1823l-1.2753 0.1823c0,0 -0.1824,0 -0.1824,0.1824 -0.1823,0.9106 -2.0036,6.1937 -5.6471,9.2909 -3.4619,2.9147 -5.6478,3.6436 -7.8337,4.0078 -2.0042,0.3647 -5.2837,0.5465 -7.105,0.1823 -1.2754,-0.3642 -2.733,-1.4572 -3.2795,-2.0042 -0.1824,-0.3642 -0.1824,-3.8254 -0.1824,-3.8254l0 -33.1568c0,0 0,-3.0972 1.0932,-4.0079 1.0934,-0.9112 3.2795,-1.2753 4.5546,-1.4577 1.0931,0 1.0931,-1.2754 1.0931,-1.2754l-0.1823 0z"/>
   <path class="fil1" d="M67.7707 88.7215l0 -2.5507c0,-0.1823 -0.1823,-0.1823 -0.1823,-0.1823l-4.0078 0 0 -10.0197c0,-2.5507 1.4571,-3.8254 2.7324,-4.1902 0.7291,-0.1817 1.8219,0 2.3683,0.3648 0.5467,0.3641 0.3647,0.9107 0.1823,1.2748 -0.1823,0.3647 -1.093,0.9111 -1.2753,3.6437 -0.1816,2.7329 1.6396,3.4617 4.1903,3.4617 2.5506,0 3.6436,-1.8219 3.6436,-3.097 0,-0.7289 0,-2.5508 -0.9107,-4.1901 0,0 0,-0.1823 -0.1823,-0.1823 0,0 0,-0.1825 -0.1823,-0.1825 -1.6395,-2.5501 -5.2832,-3.0965 -7.6515,-3.2789l-1.822 0c-2.0041,0.1823 -4.0077,0.7288 -6.1942,2.1859 -4.3718,2.733 -4.3718,8.3803 -4.3718,8.3803l0 5.8296 -3.0972 0c-0.1823,0 -0.1823,0.1823 -0.1823,0.1823l0 2.5507c0,0.1823 0.1823,0.1823 0.1823,0.1823l3.4614 0 0 59.0259c2.9147,3.6436 6.0117,7.2873 9.2913,10.7485l0 -69.7744 4.0078 0c-0.1823,0 0,0 0,-0.1823z"/>
  </g>
 </g>
</svg>
