<svg id="Ebene_1" data-name="Ebene 1" xmlns="http://www.w3.org/2000/svg" viewBox="0 0 454.18 566.91"><defs><style>.cls-1{fill:#005188}.cls-2{fill:#ffe772}.cls-3{fill:#e30613}.cls-4{fill:#fff}</style></defs><title>FC Villareal [Konvertiert]</title><path class="cls-1" d="M5.58-184.34c125.06 0 227.09 102 227.09 227.09 0 120.31-94.46 219.24-213 226.58L5.58 288.55l-14.12-19.22c-118.51-7.34-213-106.27-213-226.58.03-125.07 102.05-227.09 227.12-227.09z" transform="translate(221.51 278.36)"/><path d="M-88-123.36a60.45 60.45 0 0 1-21.46-21.38 12.91 12.91 0 0 1-1.73-6.7c0-5.18 3-9.07 7.56-11.16a258.43 258.43 0 0 1 41.47-14.76 263.59 263.59 0 0 1 135.5 0 258.41 258.41 0 0 1 41.46 14.76c4.61 2.09 7.56 6 7.56 11.16a12.91 12.91 0 0 1-1.73 6.7 60.44 60.44 0 0 1-21.46 21.38 61.46 61.46 0 0 1-29.38 8.5l-30-39.6a273 273 0 0 0-68.54 0l-30 39.6a61.46 61.46 0 0 1-29.25-8.5z" transform="translate(221.51 278.36)"/><path class="cls-1" d="M15.87-274a14.81 14.81 0 0 1 4.32 10.44 14.69 14.69 0 0 1-1.19 5.78 14.47 14.47 0 0 1 10.3 4.32A14.81 14.81 0 0 1 33.66-243a14.81 14.81 0 0 1-14.83 14.83 14.36 14.36 0 0 1-7.06-1.87 28.59 28.59 0 0 0 8.35 18.94 28.18 28.18 0 0 0 37.37 2.23 28.09 28.09 0 0 0 9.79-14.47 16.5 16.5 0 0 1-6.77.07 14.85 14.85 0 0 1-9.22-6.62 14.81 14.81 0 0 1 4.82-20.52 15.45 15.45 0 0 1 10.51-1.87 14.85 14.85 0 0 1 6.77-15 14.65 14.65 0 0 1 11.16-1.87 14.45 14.45 0 0 1 9.29 6.55 14.92 14.92 0 0 1-.58 16.56 15.18 15.18 0 0 1 8.93 6.26 14.81 14.81 0 0 1 2 11.45 14.85 14.85 0 0 1-6.62 9.22 14.86 14.86 0 0 1-16.92-.86 28.34 28.34 0 0 0 3.67 20.88 27.76 27.76 0 0 0 17.68 12.3c8.42 1.87 18.36 1.58 25.27-4.39a15 15 0 0 1-10.67-10.52 15.15 15.15 0 0 1 13.18-18.58c6.41-.43 9.72 2.52 13.82 6.19 3.38-5.54 8.06-18.14 16.34-17.78 4.46.36 9.86 3.67 14.54 6.91 2.38 1.73 4.75 3.53 7.2 5.18L161-198.31c1.73 4.39.07 10-3.24 13.32-3.53 3.53-10 5-14.69 3a50.51 50.51 0 0 1-20.81 10.3 51.59 51.59 0 0 1-23.69.07 51.35 51.35 0 0 1-18.07-8 53.39 53.39 0 0 1-13.61-14 52.39 52.39 0 0 1-17.14 5.76A52.27 52.27 0 0 1 16.59-194a55.44 55.44 0 0 1-11-8.5 55.46 55.46 0 0 1-11 8.5 52.27 52.27 0 0 1-33.19 6.19 52.39 52.39 0 0 1-17.14-5.76 53.39 53.39 0 0 1-13.61 14 51.34 51.34 0 0 1-18.07 8 51.59 51.59 0 0 1-23.69-.07A50.51 50.51 0 0 1-131.94-182c-4.68 2-11.16.5-14.69-3-3.31-3.31-5-8.93-3.24-13.32l-20.66-21.46c2.45-1.66 4.82-3.46 7.2-5.18 4.68-3.24 10.08-6.55 14.54-6.91 8.28-.36 13 12.24 16.34 17.78 4.1-3.67 7.42-6.62 13.82-6.19a15.15 15.15 0 0 1 13.18 18.58 15 15 0 0 1-10.66 10.51c6.91 6 16.85 6.26 25.27 4.39a27.76 27.76 0 0 0 17.64-12.38 28.34 28.34 0 0 0 3.67-20.88 14.86 14.86 0 0 1-16.92.86 14.85 14.85 0 0 1-6.62-9.22 14.81 14.81 0 0 1 2-11.45 15.18 15.18 0 0 1 8.93-6.26 14.92 14.92 0 0 1-.58-16.56 14.45 14.45 0 0 1 9.29-6.55 14.65 14.65 0 0 1 11.16 1.87 14.85 14.85 0 0 1 6.77 15 15.45 15.45 0 0 1 10.5 1.93 14.81 14.81 0 0 1 4.82 20.52 14.85 14.85 0 0 1-9.22 6.62 16.51 16.51 0 0 1-6.77-.07 28.09 28.09 0 0 0 9.79 14.47A28.18 28.18 0 0 0-9-211.13a28.59 28.59 0 0 0 8.38-18.93 14.36 14.36 0 0 1-7.06 1.87A14.81 14.81 0 0 1-22.5-243a14.81 14.81 0 0 1 4.32-10.44 14.48 14.48 0 0 1 10.3-4.32A14.69 14.69 0 0 1-9-263.54 14.81 14.81 0 0 1-4.72-274a14.31 14.31 0 0 1 20.59 0z" transform="translate(221.51 278.36)"/><path class="cls-2" d="M5.58-204.5a48.68 48.68 0 0 0 11.66 9.36 50.74 50.74 0 0 0 32.4 6 49.5 49.5 0 0 0 17.78-6.26c3.53 5.11 7.13 10.22 13.82 14.69a49.58 49.58 0 0 0 17.64 7.85 50.79 50.79 0 0 0 23-.07 50 50 0 0 0 21-10.66 12.69 12.69 0 0 0 14-2.38 11.65 11.65 0 0 0 2.59-12.67l20.16-20.88c-1.66-1.15-3.74-2.74-6-4.32-4.46-3.1-9.58-6.34-13.75-6.62-7.42-.43-12.53 12.74-15.91 18.65-4.32-4-7.56-7.63-14-7.06A13.67 13.67 0 0 0 118-201.84c1.58 5.9 6.26 8.78 12 9.86-7.85 7.78-18 8.78-28.37 6.55a29.1 29.1 0 0 1-18.5-13 29.21 29.21 0 0 1-3.24-24c4.82 4.39 11.09 5.76 16.92 2.16a13.21 13.21 0 0 0 6-8.42 12.86 12.86 0 0 0-1.8-10.37c-2.52-3.67-6-5.33-10.22-6.12 4.1-4.9 5.4-11 1.87-16.7a13.66 13.66 0 0 0-8.42-6 13.07 13.07 0 0 0-10.15 1.73c-5.83 3.6-7.2 9.58-5.69 15.7-4.1-1-7.85-1-11.59 1.3a13.4 13.4 0 0 0-4.39 18.58 13.06 13.06 0 0 0 8.35 6 16.5 16.5 0 0 0 8.35-.65c-1.73 7.06-5 13-10.8 17.5a29.61 29.61 0 0 1-39.24-2.38c-6.12-6.19-8.71-13.75-8.71-22.32 2.66 1.73 5.18 3 8.42 3A13.49 13.49 0 0 0 32.29-243a13.7 13.7 0 0 0-3.89-9.5c-3.53-3.46-7.2-4-11.52-3.89a15.31 15.31 0 0 0 1.94-7.13 13.7 13.7 0 0 0-3.89-9.5 13.08 13.08 0 0 0-18.72 0 13.7 13.7 0 0 0-3.89 9.5 15.31 15.31 0 0 0 1.94 7.13c-4.32-.07-8 .43-11.52 3.89a13.7 13.7 0 0 0-3.89 9.5 13.49 13.49 0 0 0 13.48 13.44c3.24 0 5.76-1.22 8.42-3 0 8.57-2.59 16.13-8.71 22.32a29.61 29.61 0 0 1-39.24 2.38c-5.83-4.54-9.07-10.44-10.8-17.5a16.5 16.5 0 0 0 8.35.65 13.06 13.06 0 0 0 8.35-6 13.4 13.4 0 0 0-4.39-18.58c-3.74-2.3-7.49-2.3-11.59-1.3 1.51-6.12.14-12.1-5.69-15.7a13.07 13.07 0 0 0-10.15-1.73 13.66 13.66 0 0 0-8.42 6c-3.53 5.69-2.23 11.81 1.87 16.7-4.25.79-7.7 2.45-10.22 6.12a12.87 12.87 0 0 0-1.8 10.37 13.21 13.21 0 0 0 6 8.42c5.83 3.6 12.1 2.23 16.92-2.16a29.21 29.21 0 0 1-3.24 24 29.1 29.1 0 0 1-18.5 13c-10.37 2.23-20.52 1.22-28.37-6.55 5.76-1.08 10.44-4 12-9.86a13.67 13.67 0 0 0-11.88-17.06c-6.48-.58-9.72 3-14 7.06-3.38-5.9-8.5-19.08-15.91-18.65-4.18.29-9.29 3.53-13.75 6.62-2.23 1.58-4.32 3.17-6 4.32l20.16 20.88A11.65 11.65 0 0 0-145.7-186a12.69 12.69 0 0 0 14 2.38 50 50 0 0 0 21 10.66 50.79 50.79 0 0 0 23 .07 49.58 49.58 0 0 0 17.64-7.85c6.7-4.46 10.3-9.58 13.82-14.69a49.5 49.5 0 0 0 17.78 6.26 50.74 50.74 0 0 0 32.4-6 48.69 48.69 0 0 0 11.64-9.33zm33.48 51.33l147.16 194.4L5.58 286.25l-180.65-245L-27.9-153.17a272.27 272.27 0 0 1 33.48-2.09 272.29 272.29 0 0 1 33.48 2.09z" transform="translate(221.51 278.36)"/><path class="cls-2" d="M-61.89-176.06a262.09 262.09 0 0 0-41.18 14.69c-4.18 1.87-6.77 5.26-6.77 9.94a11.36 11.36 0 0 0 1.58 6 63 63 0 0 0 9.58 12.24 162.49 162.49 0 0 1 41.47-17.31c38-9.94 87.55-9.94 125.57 0a164.35 164.35 0 0 1 38.38 15.5l-15.12 3.89-10.62.91 2.55-7.8-3.1-4-4.39 5.18-3.1.43-2.45-7.27-3 6.26-6.78 3.4 11.81 15.7c7.85 0 18.29-1.58 25.92-6.19a63.2 63.2 0 0 0 11.38-8.64 63 63 0 0 0 9.58-12.24 11.36 11.36 0 0 0 1.58-6c0-4.68-2.59-8.06-6.77-9.94A262.11 262.11 0 0 0 73-176.06a263 263 0 0 0-134.89 0z" transform="translate(221.51 278.36)"/><path class="cls-3" d="M-14.8-154l-40.9 54v273.6l40.9 50.62V-154zM-96.52-46l-40.9 54v64.48l40.9 50.62V-46zM26 224.26l40.9-50.62V-100L26-154v378.26zm81.67-101.16l40.9-50.62V8l-40.9-54v169.1z" transform="translate(221.51 278.36)"/><path d="M-60.09-9.24a33.42 33.42 0 0 0-19.37-5.69c-26.78 0-46.37 23.33-46.37 55.37 0 30.24 19.94 54.07 45.14 54.07 7.42 0 13.1-1.58 20.59-5.69V57.94c-4.75 4.54-9.5 6.84-14.76 6.84-12.24 0-20.45-10.22-20.45-25.2 0-14.11 8.57-24.55 20-24.55 5.33 0 9.5 1.8 15.19 6.55V-9.24z" transform="translate(221.51 278.36)"/><path d="M354.53 287.77V264.8H292.9v107.78h27.93v-44.42h30.6v-22.97h-30.6v-17.42h33.7z"/><path class="cls-3" d="M5.58-237.34a8.76 8.76 0 0 0 8.71-8.78 8.7 8.7 0 0 0-8.71-8.71 8.74 8.74 0 0 0-8.71 8.71 8.8 8.8 0 0 0 8.71 8.78zm72.42 8.5a8.7 8.7 0 0 0 8.71-8.71 8.76 8.76 0 0 0-8.71-8.79 8.82 8.82 0 0 0-8.78 8.78 8.76 8.76 0 0 0 8.78 8.72zm72.87 46.37a8.82 8.82 0 0 0 8.78-8.78 8.82 8.82 0 0 0-8.78-8.78 8.76 8.76 0 0 0-8.71 8.78 8.76 8.76 0 0 0 8.71 8.78zm-217.65-46.37a8.7 8.7 0 0 0 8.71-8.71 8.76 8.76 0 0 0-8.71-8.78 8.82 8.82 0 0 0-8.78 8.78 8.76 8.76 0 0 0 8.78 8.71zm-72.94 46.37a8.76 8.76 0 0 0 8.71-8.78 8.76 8.76 0 0 0-8.71-8.78 8.82 8.82 0 0 0-8.78 8.78 8.82 8.82 0 0 0 8.78 8.78z" transform="translate(221.51 278.36)"/><path class="cls-3" d="M206.35 106.76l20.74-8.79 20.73 8.79-20.73 8.78-20.74-8.78z"/><path class="cls-1" d="M118.8 130.59l16.7-15.12 22.47 1.58-16.71 15.05-22.46-1.51zm216.58 0l-16.71-15.12-22.46 1.58 16.7 15.05 22.47-1.51z"/><path class="cls-2" d="M163.87 155.07l19.37-25.63-31.32 8.78 5.98 9.51-.51 7.7 6.48-.36z"/><path class="cls-1" d="M-21.93 258.38c-106.85-13.6-189.86-105.26-189.86-215.64 0-78.12 41.54-146.88 103.75-185.18a61.11 61.11 0 0 0 20 19.08 61.36 61.36 0 0 0 24.26 8.14L-76.94-97.8h-55v39.38h25.2l-75.38 99.58zm141.12-400.82c62.21 38.3 103.75 107.06 103.75 185.18 0 110.38-83 202-189.86 215.64l160.2-217.22-75.38-99.58h25.2V-97.8h-55l-13.19-17.42a61.36 61.36 0 0 0 24.26-8.14 61.11 61.11 0 0 0 20.02-19.08z" transform="translate(221.51 278.36)"/><path class="cls-4" d="M-58.65-114.86l-16.2 21.38h-52.78v30.74H-98l-78.8 103.9L-9.69 267.82C-126.83 259.9-220 161.83-220 42.74c0-81.58 43.63-153.22 108.86-192.89a12.41 12.41 0 0 0 1.66 5.4c.14.14 1.44 2.3 1.44 2.3-62.21 38.3-103.75 107.06-103.75 185.18 0 110.38 83 202 189.86 215.64l-160.2-217.21 75.38-99.58h-25.2V-97.8h55l13.18-17.42c1.77.14 3.47.28 5.12.36zm128.45 0L86-93.48h52.78v30.74h-29.6L188 41.16 20.84 267.82C138 259.9 231.15 161.83 231.15 42.74c0-81.58-43.63-153.22-108.86-192.89a12.4 12.4 0 0 1-1.66 5.4c-.14.14-1.44 2.3-1.44 2.3C181.4-104.14 222.94-35.38 222.94 42.74c0 110.38-83 202-189.86 215.64l160.2-217.22-75.38-99.58h25.2V-97.8h-55l-13.19-17.42c-1.73.14-3.45.28-5.11.36z" transform="translate(221.51 278.36)"/><path d="M93.89 184.88v30.74l60.98-.07 72.22 231.05 72.21-231.05 60.99.07v-30.74h-87.41l-45.79 147.74-45.79-147.74H93.89z"/></svg>