<?xml version="1.0" encoding="UTF-8" standalone="no"?>
<svg
   clip-rule="evenodd"
   fill-rule="evenodd"
   stroke-linejoin="round"
   stroke-miterlimit="2"
   viewBox="0 0 200 224.84801"
   version="1.1"
   id="svg18"
   sodipodi:docname="Watford.svg"
   width="200"
   height="224.84801"
   xmlns:inkscape="http://www.inkscape.org/namespaces/inkscape"
   xmlns:sodipodi="http://sodipodi.sourceforge.net/DTD/sodipodi-0.dtd"
   xmlns="http://www.w3.org/2000/svg"
   xmlns:svg="http://www.w3.org/2000/svg">
  <defs
     id="defs18" />
  <sodipodi:namedview
     id="namedview18"
     pagecolor="#ffffff"
     bordercolor="#000000"
     borderopacity="0.25"
     inkscape:showpageshadow="2"
     inkscape:pageopacity="0.0"
     inkscape:pagecheckerboard="0"
     inkscape:deskcolor="#d1d1d1" />
  <g
     fill-rule="nonzero"
     id="g18"
     transform="translate(-180,-87.576)">
    <path
       d="M 280.003,312.424 380,212.421 347.09,136.92 h 18.595 V 87.576 H 194.309 V 136.92 H 212.91 L 180,212.421 Z"
       fill="#ed2127"
       id="path1" />
    <path
       d="m 203.683,96.95 h 152.634 v 30.596 H 203.683 Z"
       fill="#fbee23"
       id="path2" />
    <path
       d="m 280.003,136.92 h -56.86 c -8.715,19.994 -28.618,65.65 -31.995,73.392 7.663,7.669 77.855,77.861 88.855,88.861 z"
       id="path3" />
    <path
       d="m 336.857,136.92 h -56.86 v 162.253 c 11,-11 81.186,-81.192 88.855,-88.861 -3.377,-7.742 -23.28,-53.398 -31.995,-73.392 z"
       fill="#fbee23"
       id="path4" />
    <path
       d="m 225.428,108.269 3.331,15.4 h 4.338 l 5.133,-21.767 h -3.962 l -3.303,16.736 -3.309,-16.736 h -4.172 l -3.354,16.736 -3.366,-16.736 h -4.025 l 5.134,21.767 h 4.508 z"
       id="path5" />
    <path
       d="m 245.621,115.938 2.393,-7.396 2.393,7.396 z m 7.282,7.731 h 4.167 l -6.992,-19.016 h -4.133 l -6.993,19.016 h 4.167 l 1.433,-4.429 h 6.924 z"
       id="path6" />
    <path
       d="m 257.138,104.659 v 3.303 h 5.208 v 15.707 h 3.99 v -15.707 h 5.1 l 0.79,-3.303 z"
       id="path7" />
    <path
       d="m 275.608,104.659 v 19.01 h 3.855 v -8.243 h 5.764 v -3.297 h -5.764 v -4.167 h 6.685 l 0.79,-3.303 z"
       id="path8" />
    <path
       d="m 298.24,121.139 c -3.792,0 -4.73,-3.087 -4.73,-6.89 0,-3.803 0.938,-6.89 4.73,-6.89 3.792,0 4.73,3.087 4.73,6.89 0,3.803 -0.944,6.89 -4.73,6.89 z m 0,-16.725 c -6.475,0 -9.187,4.4 -9.187,9.835 0,5.429 2.712,9.835 9.187,9.835 6.475,0 9.192,-4.406 9.192,-9.835 -0.005,-5.429 -2.717,-9.835 -9.192,-9.835 z"
       id="path9" />
    <path
       d="m 318.905,112.913 h -2.996 v -4.951 h 2.996 c 1.085,0 2.723,0.17 2.723,2.319 0,2.149 -1.638,2.632 -2.723,2.632 z m 2.444,2.723 v -0.204 c 1.273,0 4.474,-1.206 4.474,-5.27 0,-4.059 -3.098,-5.503 -6.646,-5.503 h -7.202 v 19.01 h 3.928 v -7.93 h 0.33 c 1.324,0 5.974,7.93 5.974,7.93 h 4.958 z"
       id="path10" />
    <path
       d="m 338.136,120.366 h -3.007 v -12.404 h 3.007 c 2.593,0 4.088,2.507 4.088,6.247 0.006,3.747 -1.49,6.157 -4.088,6.157 z m -0.13,-15.707 h -6.754 v 19.01 h 6.754 c 6.06,0 8.584,-4.059 8.584,-9.454 0,-5.395 -2.524,-9.556 -8.584,-9.556 z"
       id="path11" />
    <path
       d="m 247.826,151.894 c 0,0.58 0.063,0.944 0.114,1.274 0.057,0.352 0.119,0.711 0.119,1.631 0,2.9 -0.665,4.258 -1.125,4.258 -0.097,0 -0.142,-0.005 -0.176,-0.011 -0.052,-0.062 -0.148,-0.188 -0.222,-0.301 -0.785,-1.12 -1.859,-2.308 -4.747,-2.308 -2.683,0 -4.48,1.904 -4.48,4.735 0,4.156 1.052,7.516 1.893,10.216 0.495,1.569 0.916,2.922 0.916,3.826 0,0.722 -0.347,1.432 -0.557,1.586 -1.052,-0.017 -1.399,-0.358 -2.144,-1.086 -1,-0.989 -2.376,-2.348 -5.457,-2.348 -1.313,0 -4.355,0.449 -4.355,4.628 0,1.819 0.637,3.377 1.245,4.877 0.654,1.598 1.325,3.247 1.325,5.412 0,0.171 -0.017,1.706 -0.518,1.706 -1.972,0 -2.717,-1.222 -3.854,-3.377 -0.995,-1.882 -2.228,-4.212 -5.088,-4.212 -4.696,0 -4.696,7.015 -4.696,9.653 0,14.917 14.156,20.323 23.672,20.323 1.808,0 2.865,-0.153 3.889,-0.301 1.057,-0.154 2.052,-0.302 4.019,-0.302 5.776,0 10.148,1.154 12.78,3.337 -1.45,-0.551 -3.178,-0.915 -5.236,-0.915 -4.969,0 -6.805,1.183 -8.55,2.61 -0.654,0.54 -1.137,0.932 -2.024,1.188 l -7.061,2.018 7.163,1.603 c 2.991,0.671 4.645,3.019 6.401,5.503 1.871,2.649 3.986,5.656 7.874,5.656 0.364,0 0.705,-0.028 1.035,-0.079 -0.336,1.836 -0.614,4.161 -0.614,6.85 0,3.883 0.949,5.395 2.2,6.97 l 0.597,0.796 c 0.557,0.813 1.148,1.603 1.728,2.365 2.046,2.706 3.985,5.269 3.985,8.777 0,1.87 0.091,3.383 0.176,4.838 0.091,1.461 0.165,2.837 0.165,4.565 0,5.173 3.576,6.776 5.497,7.635 0.194,0.091 0.427,0.193 0.609,0.284 0.369,1.768 2.114,2.348 3.206,2.7 l 0.381,0.125 0.398,0.159 c 0.557,0.239 1.313,0.569 2.689,0.569 3.575,0 5.145,-2.655 5.469,-4.866 0.062,-0.029 0.125,-0.052 0.181,-0.08 1.575,-0.699 4.855,-2.143 4.855,-6.754 0,-2.416 -0.301,-4.241 -0.568,-5.849 -0.193,-1.188 -0.37,-2.217 -0.37,-3.235 0,-2.922 1.2,-4.406 2.843,-6.452 2.217,-2.763 4.985,-6.191 4.985,-13.917 0,-2.734 -0.153,-4.826 -0.358,-6.407 0.449,0.102 0.916,0.176 1.399,0.176 5.116,0 6.884,-3.069 8.169,-5.611 2.399,-4.758 7.038,-4.479 7.038,-4.479 0,0 -3.673,-6.356 -12.422,-6.356 -2.666,0 -4.712,0.534 -6.259,1.234 0.717,-2.058 1.939,-2.974 2.945,-3.514 2.416,-1.279 6.003,-1.392 9.181,-1.392 1.95,0 3.332,0.142 4.673,0.284 1.262,0.131 2.564,0.267 4.241,0.267 12.899,0 16.287,-4.087 19.869,-8.414 3.047,-3.672 5.065,-7.236 5.065,-12.751 0,-3.706 -1.069,-7.663 -4.082,-7.663 -2.603,0 -3.723,2.433 -4.622,4.389 -1.074,2.33 -1.705,3.308 -2.814,3.308 -1.449,0 -2.626,-1.427 -2.626,-3.178 0,-1.62 1.074,-3.666 2.115,-5.645 1.182,-2.262 2.416,-4.599 2.416,-6.918 0,-1.308 -0.54,-2.473 -1.524,-3.28 -0.818,-0.677 -1.87,-1.052 -2.967,-1.052 -2.291,0 -4.116,1.904 -5.884,3.746 -1.126,1.177 -2.661,2.775 -3.593,2.831 -0.188,-0.165 -0.477,-0.813 -0.477,-1.33 0,-1.609 0.716,-3.985 1.415,-6.276 0.75,-2.467 1.45,-4.804 1.45,-6.674 0,-4.042 -2.354,-5.844 -4.69,-5.844 -2.126,0 -3.508,0.995 -4.616,1.796 -0.83,0.597 -1.365,0.944 -2.019,0.995 -0.017,-0.028 -0.028,-0.051 -0.034,-0.079 0,-0.086 0.006,-1.933 0.006,-1.933 0,-0.586 0.006,-1.154 0.006,-1.7 0,-4.281 -0.177,-7.191 -1.837,-8.857 -0.807,-0.813 -1.864,-1.222 -3.138,-1.222 -5.861,0 -8.493,7.742 -8.493,15.411 0,3.559 0.148,6.703 0.29,9.739 0.137,2.899 0.262,5.628 0.262,8.595 0,7.118 -1.456,12.945 -2.701,15.992 -0.403,-3.394 -1.023,-8.505 -4.974,-8.505 -3.274,0 -4.042,4.184 -4.923,9.028 -0.796,4.349 -1.893,10.306 -4.593,10.306 -2.269,0 -2.922,-4.144 -3.554,-9.562 -0.613,-5.309 -1.313,-11.324 -6.037,-11.324 -5.139,0 -5.474,6.663 -5.69,11.069 -0.029,0.551 -0.063,1.205 -0.114,1.836 -1.256,-2.462 -2.769,-6.697 -2.769,-10.585 0,-4.935 0.307,-8.801 0.614,-12.541 0.29,-3.582 0.592,-7.288 0.592,-11.791 0,-9.926 -2.468,-12.609 -4.645,-14.974 l -0.154,-0.165 c -1.461,-1.586 -2.836,-3.087 -5.002,-3.087 -3.076,0.012 -4.702,2.94 -4.702,5.827 z"
       id="path12" />
    <g
       fill="#ed2127"
       id="g17">
      <path
         d="m 293.794,234.507 -0.318,0.523 c 0,0 -1.768,-0.574 -3.4,-0.574 -2.939,0 -4.019,2.018 -4.019,2.018 0,0 0.967,-0.574 2.871,-0.574 2.524,0 4.36,1.353 4.36,1.859 0,0.523 -0.778,0.802 -1.404,0.802 0,1.216 -1.654,2.893 -6.64,2.893 0,2.456 1.518,4.088 1.518,4.804 -1.268,0 -1.449,1.216 -1.449,3.377 0,0 -1.746,-6.913 -1.746,-9.693 0,-4.11 1.655,-7.214 5.168,-7.214 2.513,0.011 5.059,1.779 5.059,1.779 z m 10.625,-13.837 c 0.774,0 1.206,0.137 1.206,0.137 -4.634,0.847 -4.582,6.446 -8.289,6.446 -0.807,0 -1.342,-0.363 -1.342,-0.363 0.523,-1.018 2.257,-1.263 2.257,-2.633 -1.199,0 -2.08,0.103 -3.257,0.342 0.006,-0.45 3.712,-3.929 9.425,-3.929 z m -31.022,29.266 v -2.985 c 0,-0.83 -0.37,-1.188 -1.103,-1.188 l 1.933,-4.411 v -0.438 c -3.422,0 -6.39,-0.688 -6.39,-3.121 h -0.966 c -0.205,0 -0.648,-0.233 -0.648,-0.648 0,-0.301 1.148,-1.603 3.86,-1.603 2.069,0 3.308,0.87 3.308,0.87 0,0 -1.171,-2.757 -4.32,-2.757 -1.859,0 -2.342,0.25 -2.342,0.25 0,0 1.125,-1.45 2.637,-1.45 4.753,0 5.992,2.985 5.992,8.243 0.017,5.566 -1.961,9.238 -1.961,9.238 z m -13.2,-24.82 c 0,0.483 1.54,0.853 2.433,0.853 0,0.551 -1.08,1.353 -2.087,1.353 -3.882,0 -2.001,-6.021 -9.76,-7.533 0,0 0.415,-0.182 1.421,-0.182 6.128,0 7.902,4.753 11.233,4.753 -0.972,0.108 -3.24,0.182 -3.24,0.756 z m 77.689,-39.686 c -3.104,0 -2.893,7.691 -7.441,7.691 -2.513,0 -4.503,-2.251 -4.503,-5.054 0,-4.087 4.526,-8.777 4.526,-12.563 0,-1.62 -1.365,-2.456 -2.621,-2.456 -3.053,0 -6.157,6.594 -9.528,6.594 -1.586,0 -2.302,-2.069 -2.302,-3.217 0,-3.673 2.87,-9.665 2.87,-12.95 0,-2.638 -1.199,-3.974 -2.814,-3.974 -2.995,0 -3.996,2.814 -6.81,2.814 -1.074,0 -1.723,-1.177 -1.723,-1.933 0,-7.373 0.376,-11.887 -3.092,-11.887 -4.491,0 -6.612,6.788 -6.612,13.541 0,6.856 0.552,12.16 0.552,18.34 0,9.567 -2.308,17.589 -4.321,19.317 0,0 -0.5,5.571 1.7,5.571 4.446,0 11.665,-12.45 20.625,-12.45 4.042,0 4.32,2.485 4.32,3.491 0,3.257 -4.593,4.917 -4.593,6.981 0,1.057 1.603,1.148 3.581,1.148 5.879,0 10.199,-3.627 10.199,-3.627 0,0 -4.224,5.009 -10.835,5.009 -2.9,0 -5.145,-0.916 -5.145,-2.621 0,-2.706 5.469,-4.866 5.469,-7.578 0,-0.824 -0.916,-1.973 -2.985,-1.973 -7.305,0 -15.019,13.826 -21.034,13.826 -1.239,0 -2.962,-0.824 -2.962,-3.968 0,-2.683 -0.21,-13.769 -3.564,-13.769 -4.031,0 -2.098,19.334 -9.522,19.334 -7.84,0 -3.161,-20.886 -9.591,-20.886 -3.905,0 -3.291,5.657 -3.905,10.745 -0.506,4.167 -1.711,7.958 -4.27,7.958 -3.376,0 -5.764,-1.552 -8.641,-3.331 -1.83,-1.131 -3.774,-2.245 -5.389,-3.456 -2.621,-1.962 -4.059,-3.923 -6.646,-3.923 -1.375,0 -2.893,0.756 -2.893,2.166 0,2.757 2.893,3.826 2.893,6.202 0,1.342 -1.961,2.411 -4.206,2.411 -6.822,0 -10.921,-4.474 -10.921,-6.271 0,0 3.411,4.821 11.228,4.821 1.688,0 2.308,-0.375 2.308,-1.205 0,-1.547 -2.342,-2.928 -2.342,-5.924 0,-1.893 1.478,-3.445 3.615,-3.445 2.723,0 4.565,1.99 7.373,4.031 4.042,2.939 9.301,6.264 13.331,6.264 1.547,0 2.581,-0.687 2.581,-2.296 0,-1.53 -4.582,-5.725 -4.582,-14.309 0,-9.812 1.206,-15.292 1.206,-24.331 0,-9.426 -2.257,-11.643 -4.304,-13.872 -1.535,-1.677 -2.376,-2.484 -3.615,-2.484 -2.138,0 -2.86,2.342 -2.86,3.951 0,0.984 0.239,1.046 0.239,2.905 0,3.343 -0.79,6.128 -2.996,6.128 -2.581,0 -1.239,-2.62 -5.145,-2.62 -1.87,0 -2.604,1.341 -2.604,2.859 0,6.475 2.809,11.097 2.809,14.036 0,1.467 -0.847,3.462 -2.354,3.462 -3.894,0 -3.206,-3.445 -7.674,-3.445 -1.905,0 -2.485,1.103 -2.485,2.757 0,3.201 2.57,5.651 2.57,10.284 0,2.047 -0.688,3.582 -2.388,3.582 -5.81,0 -5.088,-7.595 -8.936,-7.595 -1.967,0 -2.82,2.575 -2.82,7.777 0,13.916 13.598,18.453 21.796,18.453 3.479,0 3.854,-0.597 7.907,-0.597 19.028,0 17.493,11.648 17.493,11.648 0,0 -2.433,-5.486 -9.949,-5.486 -7.328,0 -6.532,2.706 -10.062,3.724 7.316,1.643 7.964,11.114 13.871,11.114 2.638,0 3.945,-2.018 3.945,-2.018 0,0 -1.654,4.263 -1.654,10.67 0,4.378 1.291,4.975 2.473,6.714 2.518,3.701 6.037,6.97 6.037,12.2 0.842,0 1.478,-3.894 1.95,-3.894 0.307,0 0.569,0.602 0.569,1.461 0,1.995 -2.166,5.508 -2.166,11.836 0,3.792 2.376,5.02 4.15,5.821 0.432,0 2.916,-5.213 2.916,-5.213 -1.489,4.059 -1.035,6.339 -1.035,6.612 0,1.08 1.052,1.301 2.394,1.745 0.762,0.256 1.154,0.631 2.49,0.631 3.115,0 3.661,-2.774 3.661,-3.866 0,-1.103 -1.126,-3.172 -1.126,-4.411 0,0 -0.045,-0.756 0.137,-0.756 0.386,0 2.035,4.331 2.035,4.331 1.461,-0.648 3.922,-1.591 3.922,-5.122 0,-4.11 -2.49,-9.692 -2.49,-12.205 0,-0.58 0.205,-0.967 0.415,-0.967 0.484,0 1.297,2.274 1.297,2.274 1.074,-6.287 7.686,-6.884 7.686,-18.549 0,-7.385 -1.126,-9.761 -1.126,-9.761 0,0 1.961,1.654 4.036,1.654 7.118,0 5.435,-7.095 11.023,-9.46 0,-0.705 -3.007,-3.24 -8.243,-3.24 -6.611,0 -8.749,3.587 -8.749,3.587 0,-10.38 7.271,-11 14.605,-11 3.928,0 5.616,0.551 8.914,0.551 12.034,0 14.991,-3.587 18.441,-7.754 3.064,-3.701 4.616,-6.89 4.616,-11.54 0.006,-2.496 -0.614,-5.77 -2.2,-5.77 z"
         id="path13" />
      <path
         d="m 285.87,239.283 -0.273,0.596 c 0,0 0.574,0.415 1.808,0.415 2.484,0 3.575,-2.012 3.331,-2.251 -0.239,-0.239 -1.313,1.541 -3.24,1.541 -1.149,0 -1.626,-0.301 -1.626,-0.301 z"
         id="path14" />
      <path
         d="m 288.559,238.595 c 0,0.187 -0.245,0.346 -0.552,0.346 -0.301,0 -0.551,-0.153 -0.551,-0.346 0,-0.188 0.244,-0.347 0.551,-0.347 0.307,0 0.552,0.159 0.552,0.347 z"
         id="path15" />
      <path
         d="m 269.571,237.674 c 0.256,0.193 0.773,1.495 2.132,1.495 0.989,0 1.126,-0.37 1.432,-0.54 0.307,-0.171 0.632,0.153 0.438,0.438 -0.193,0.289 -0.563,0.653 -1.825,0.653 -1.631,0 -2.581,-1.33 -2.706,-1.654 -0.227,-0.563 0.006,-0.756 0.529,-0.392 z"
         id="path16" />
      <path
         d="m 271.947,238.06 c 0,0.177 -0.204,0.319 -0.454,0.319 -0.256,0 -0.461,-0.142 -0.461,-0.319 0,-0.17 0.205,-0.312 0.461,-0.312 0.25,0 0.454,0.142 0.454,0.312 z"
         id="path17" />
    </g>
  </g>
</svg>
