<?xml version="1.0" encoding="UTF-8" standalone="no"?>
<svg
   clip-rule="evenodd"
   fill-rule="evenodd"
   stroke-linejoin="round"
   stroke-miterlimit="2"
   viewBox="0 0 242.748 270.00037"
   version="1.1"
   id="svg57"
   sodipodi:docname="West-Ham.svg"
   width="242.748"
   height="270.00037"
   xmlns:inkscape="http://www.inkscape.org/namespaces/inkscape"
   xmlns:sodipodi="http://sodipodi.sourceforge.net/DTD/sodipodi-0.dtd"
   xmlns="http://www.w3.org/2000/svg"
   xmlns:svg="http://www.w3.org/2000/svg">
  <defs
     id="defs57" />
  <sodipodi:namedview
     id="namedview57"
     pagecolor="#ffffff"
     bordercolor="#000000"
     borderopacity="0.25"
     inkscape:showpageshadow="2"
     inkscape:pageopacity="0.0"
     inkscape:pagecheckerboard="0"
     inkscape:deskcolor="#d1d1d1" />
  <g
     fill-rule="nonzero"
     id="g57"
     transform="translate(-158.626,-64.999619)">
    <path
       d="M 401.359,73.757 V 73.74 c -40.181,-5.934 -80.75,-8.854 -121.367,-8.737 -40.616,-0.117 -81.185,2.803 -121.366,8.737 v 0.2 l 0.003,101.081 c 0.024,85.603 49.66,133.746 119.39,159.341 l 1.982,0.636 0.006,0.002 1.979,-0.638 C 351.718,308.767 401.348,260.624 401.374,175.021 V 73.757 Z m -121.227,121.689 -0.156,-0.157 z"
       fill="#2dafe5"
       id="path1" />
    <path
       d="M 392.977,82.138 V 82.122 C 355.571,76.598 317.804,73.88 279.993,73.989 242.182,73.88 204.415,76.598 167.009,82.122 v 0.186 l 0.003,95.792 c 0.022,79.691 46.23,124.51 111.143,148.337 l 1.846,0.591 0.005,0.003 1.843,-0.594 C 346.765,302.61 392.967,257.791 392.991,178.1 V 82.138 Z"
       fill="#7c2c3b"
       id="path2" />
    <path
       d="m 335.764,283.062 c 1.788,1.791 4.652,-0.105 7.587,-3.039 2.934,-2.935 4.83,-5.798 3.04,-7.59 L 234.349,163.21 c -1.79,-1.792 -4.989,-1.492 -7.146,0.664 -2.156,2.156 -2.454,5.355 -0.665,7.145 z"
       fill="#d6a93a"
       id="path3" />
    <path
       d="m 237.824,161.54 9.164,-10.778 c 0,0 0.865,-1.153 -0.481,-2.791 -3.325,-3.736 -6.872,-7.268 -10.622,-10.579 -1.023,-0.768 -1.719,-0.581 -2.854,0.509 -5.611,5.379 -19.887,19.176 -20.746,20.071 -1.133,0.889 -1.621,2.382 -1.23,3.768 0.347,1.922 1.371,5.118 -0.397,8.219 l -9.647,15.183 c -1.208,1.853 -1.561,3.491 -0.649,4.381 0.488,0.478 1.713,1.031 4.205,-0.698 1.192,-0.826 14.309,-9.657 18.489,-13.095 2.449,-2.015 4.318,-3.847 4.318,-3.847 l 7.916,-7.764 c 0,0 1.666,-1.636 2.534,-2.579"
       fill="#f8d742"
       id="path4" />
    <path
       d="m 204.63,187.852 c -2.74,1.856 -2.732,2.128 -2.35,2.076 0.827,-0.216 1.603,-0.591 2.287,-1.104 1.191,-0.826 14.309,-9.656 18.489,-13.095 1.727,-1.419 3.161,-2.747 3.859,-3.408 -2.378,0.473 -4.623,1.464 -6.575,2.901 -2.239,1.871 -11.79,9.972 -15.71,12.63"
       fill="#d6a93a"
       id="path5" />
    <path
       d="m 237.823,161.54 9.165,-10.778 c 0.333,-0.552 0.372,-1.235 0.104,-1.821 -0.269,-0.586 -0.755,-0.853 -3.397,2.23 -2.222,2.59 -3.272,3.601 -5.143,5.839 -1.48,2.016 -2.486,4.339 -2.946,6.797 0.525,-0.519 1.584,-1.577 2.217,-2.267"
       fill="#d6a93a"
       id="path6" />
    <path
       d="m 224.481,283.062 c -1.787,1.791 -4.651,-0.105 -7.588,-3.039 -2.933,-2.935 -4.829,-5.798 -3.039,-7.59 L 325.939,163.168 c 1.789,-1.792 4.988,-1.493 7.145,0.663 2.157,2.157 2.455,5.356 0.665,7.145 z"
       fill="#d6a93a"
       id="path7" />
    <path
       d="M 223.391,281.985 327.969,174.589 c 1.79,-1.789 1.492,-4.988 -0.664,-7.144 -1.03,-1.06 -2.413,-1.708 -3.887,-1.821 l -109.564,106.81 c -1.707,1.708 -0.06,4.392 2.642,7.184 2.688,2.538 5.249,4.017 6.895,2.367"
       fill="#f8d742"
       id="path8" />
    <path
       d="M 322.463,161.498 313.3,150.719 c 0,0 -0.865,-1.153 0.479,-2.79 3.326,-3.736 6.873,-7.269 10.622,-10.579 1.025,-0.768 1.722,-0.581 2.856,0.509 5.61,5.379 19.886,19.176 20.746,20.071 1.133,0.888 1.62,2.381 1.228,3.768 -0.346,1.922 -1.37,5.117 0.398,8.219 l 9.648,15.183 c 1.207,1.852 1.56,3.491 0.649,4.381 -0.489,0.477 -1.713,1.031 -4.205,-0.699 -1.192,-0.826 -14.309,-9.656 -18.49,-13.095 -2.449,-2.014 -4.317,-3.847 -4.317,-3.847 l -7.916,-7.763 c 0,0 -1.667,-1.636 -2.535,-2.579"
       fill="#f8d742"
       id="path9" />
    <path
       d="m 355.658,187.809 c 2.739,1.856 2.732,2.128 2.349,2.077 -0.827,-0.217 -1.603,-0.592 -2.286,-1.104 -1.191,-0.826 -14.309,-9.657 -18.489,-13.095 -1.727,-1.42 -3.162,-2.748 -3.859,-3.409 2.378,0.474 4.622,1.464 6.575,2.901 2.238,1.871 11.789,9.973 15.71,12.63"
       fill="#d6a93a"
       id="path10" />
    <path
       d="M 322.463,161.498 313.3,150.719 c -0.334,-0.551 -0.373,-1.234 -0.104,-1.82 0.269,-0.586 0.755,-0.853 3.397,2.229 2.221,2.591 3.272,3.602 5.142,5.84 1.48,2.016 2.487,4.339 2.947,6.797 -0.526,-0.52 -1.584,-1.577 -2.219,-2.267"
       fill="#d6a93a"
       id="path11" />
    <path
       d="m 340.115,164.622 c -0.858,0.857 -2.269,0.857 -3.127,0 l -4.694,-4.696 c -0.414,-0.415 -0.647,-0.977 -0.647,-1.563 0,-1.213 0.998,-2.211 2.21,-2.211 0.587,0 1.15,0.234 1.564,0.648 l 4.694,4.695 c 0.415,0.414 0.648,0.977 0.648,1.564 0,0.586 -0.233,1.149 -0.648,1.563"
       fill="#d6a93a"
       id="path12" />
    <path
       d="m 332.924,159.926 c -0.414,-0.414 -0.647,-0.976 -0.647,-1.562 0,-1.094 0.813,-2.031 1.896,-2.186 -0.105,-0.015 -0.211,-0.023 -0.317,-0.023 -1.212,0 -2.209,0.997 -2.209,2.209 0,0.586 0.233,1.148 0.647,1.562 l 4.694,4.696 c 0.492,0.493 1.19,0.724 1.879,0.623 -0.473,-0.067 -0.911,-0.286 -1.249,-0.623 z"
       fill="#cda938"
       id="path13" />
    <path
       d="m 334.989,161.649 c -0.044,0.045 -0.105,0.07 -0.168,0.07 -0.131,0 -0.239,-0.108 -0.239,-0.24 0,-0.063 0.025,-0.124 0.069,-0.168 l 2.153,-2.153 c 0.044,-0.045 0.105,-0.07 0.169,-0.07 0.131,0 0.238,0.108 0.238,0.239 0,0.063 -0.025,0.124 -0.069,0.168 z"
       fill="#d6a93a"
       id="path14" />
    <path
       d="m 335.7,162.364 c -0.044,0.045 -0.104,0.07 -0.166,0.07 -0.063,0 -0.123,-0.025 -0.167,-0.07 -0.044,-0.044 -0.069,-0.104 -0.069,-0.166 0,-0.13 0.106,-0.236 0.236,-0.236 0.129,0 0.235,0.106 0.235,0.236 0,0.062 -0.024,0.122 -0.069,0.166"
       fill="#d6a93a"
       id="path15" />
    <path
       d="m 334.222,160.887 c -0.044,0.045 -0.104,0.07 -0.167,0.07 -0.129,0 -0.235,-0.107 -0.235,-0.236 0,-0.129 0.106,-0.235 0.235,-0.235 0.063,0 0.123,0.025 0.167,0.069 0.091,0.091 0.091,0.241 0,0.332"
       fill="#d6a93a"
       id="path16" />
    <path
       d="m 335.958,157.973 -0.738,-0.739 c -0.044,-0.044 -0.105,-0.068 -0.168,-0.068 -0.131,0 -0.24,0.108 -0.24,0.24 0,0.063 0.025,0.123 0.07,0.168 l 0.117,0.118 c 0.042,0.044 0.044,0.113 0.005,0.159 l -1.907,1.905 c -0.044,0.045 -0.069,0.106 -0.069,0.169 0,0.131 0.108,0.24 0.24,0.24 0.063,0 0.123,-0.025 0.168,-0.069 l 1.913,-1.914 c 0.046,-0.032 0.109,-0.028 0.15,0.011 l 0.119,0.119 c 0.045,0.044 0.106,0.069 0.169,0.069 0.131,0 0.24,-0.108 0.24,-0.24 0,-0.063 -0.025,-0.123 -0.069,-0.168"
       fill="#d6a93a"
       id="path17" />
    <path
       d="m 339.898,161.945 c -0.045,-0.062 -0.117,-0.099 -0.193,-0.099 -0.051,0 -0.101,0.016 -0.142,0.046 l -1.248,0.904 c -0.051,0.041 -0.126,0.036 -0.171,-0.012 -0.04,-0.039 -0.05,-0.1 -0.024,-0.15 l 0.255,-0.512 c 0.041,-0.083 0.03,-0.183 -0.027,-0.255 l -0.013,-0.015 -0.007,-0.008 -0.007,-0.007 -0.015,-0.012 c -0.073,-0.056 -0.172,-0.066 -0.255,-0.026 l -0.511,0.254 c -0.05,0.026 -0.112,0.017 -0.152,-0.024 -0.045,-0.046 -0.051,-0.119 -0.012,-0.171 l 0.905,-1.249 c 0.077,-0.106 0.053,-0.257 -0.053,-0.335 -0.04,-0.03 -0.089,-0.046 -0.14,-0.046 -0.076,0 -0.148,0.038 -0.193,0.1 l -1.787,2.465 c -0.067,0.093 -0.059,0.221 0.02,0.304 l 0.01,0.012 0.005,0.002 c 0.072,0.067 0.179,0.082 0.267,0.037 l 0.877,-0.435 c 0.017,-0.008 0.035,-0.012 0.054,-0.012 0.071,0 0.13,0.059 0.13,0.13 0,0.022 -0.006,0.044 -0.017,0.064 l -0.43,0.868 c -0.044,0.088 -0.029,0.195 0.037,0.268 l 0.014,0.014 c 0.083,0.079 0.213,0.088 0.306,0.019 l 2.465,-1.786 c 0.061,-0.044 0.098,-0.116 0.098,-0.193 0,-0.05 -0.016,-0.099 -0.046,-0.14"
       fill="#d6a93a"
       id="path18" />
    <g
       fill="#f8d742"
       id="g25">
      <path
         d="m 237.503,166.285 c -1.502,0.006 -2.939,0.62 -3.982,1.701 -2.004,2.005 -2.281,4.979 -0.618,6.643 l 44.773,45.879 7.619,-7.618 z"
         id="path19" />
      <path
         d="M 346.391,272.433 289.91,217.387 c -2.938,1.312 -4.838,4.242 -4.838,7.459 0,1.805 0.598,3.561 1.701,4.99 l 50.519,51.798 c 1.662,1.666 4.323,-0.097 7.053,-2.824 0.461,-0.462 0.894,-0.921 1.287,-1.374 1.456,-1.965 2.013,-3.747 0.759,-5.003"
         id="path20" />
      <path
         d="m 334.886,161.546 c -0.045,0.044 -0.106,0.069 -0.169,0.069 -0.131,0 -0.239,-0.108 -0.239,-0.239 0,-0.064 0.025,-0.124 0.07,-0.169 l 2.152,-2.153 c 0.045,-0.047 0.108,-0.074 0.173,-0.074 0.131,0 0.239,0.108 0.239,0.239 0,0.065 -0.026,0.128 -0.073,0.173 z"
         id="path21" />
      <path
         d="m 335.597,162.261 c -0.044,0.044 -0.104,0.069 -0.167,0.069 -0.062,0 -0.122,-0.025 -0.166,-0.069 -0.044,-0.044 -0.07,-0.104 -0.07,-0.167 0,-0.129 0.107,-0.236 0.236,-0.236 0.13,0 0.236,0.107 0.236,0.236 0,0.063 -0.025,0.123 -0.069,0.167"
         id="path22" />
      <path
         d="m 334.118,160.784 c -0.044,0.044 -0.103,0.068 -0.166,0.068 -0.129,0 -0.235,-0.106 -0.235,-0.235 0,-0.129 0.106,-0.235 0.235,-0.235 0.063,0 0.122,0.024 0.166,0.068 0.092,0.092 0.092,0.242 0,0.334"
         id="path23" />
      <path
         d="m 335.854,157.869 -0.737,-0.739 c -0.094,-0.091 -0.246,-0.091 -0.339,0.002 -0.045,0.045 -0.071,0.105 -0.071,0.169 0,0.063 0.026,0.124 0.071,0.169 l 0.117,0.118 c 0.042,0.044 0.044,0.113 0.005,0.159 l -1.906,1.906 c -0.044,0.045 -0.069,0.105 -0.069,0.168 0,0.132 0.108,0.24 0.24,0.24 0.063,0 0.123,-0.025 0.168,-0.069 l 1.912,-1.914 c 0.046,-0.032 0.11,-0.028 0.151,0.011 l 0.119,0.119 c 0.045,0.044 0.106,0.07 0.17,0.07 0.131,0 0.239,-0.109 0.239,-0.24 0,-0.063 -0.025,-0.124 -0.07,-0.169"
         id="path24" />
      <path
         d="m 339.795,161.841 c -0.045,-0.062 -0.117,-0.098 -0.194,-0.098 -0.05,0 -0.1,0.016 -0.141,0.045 l -1.248,0.904 c -0.023,0.018 -0.05,0.027 -0.079,0.027 -0.071,0 -0.13,-0.059 -0.13,-0.131 0,-0.02 0.005,-0.04 0.014,-0.058 l 0.254,-0.512 c 0.041,-0.083 0.031,-0.181 -0.026,-0.254 l -0.003,-0.003 -0.011,-0.013 -0.006,-0.008 -0.007,-0.006 -0.016,-0.012 c -0.073,-0.057 -0.172,-0.067 -0.255,-0.026 l -0.51,0.254 c -0.051,0.026 -0.112,0.016 -0.152,-0.024 -0.045,-0.046 -0.051,-0.118 -0.013,-0.171 l 0.905,-1.25 c 0.077,-0.106 0.054,-0.257 -0.052,-0.335 -0.04,-0.029 -0.089,-0.045 -0.14,-0.045 -0.076,0 -0.148,0.037 -0.193,0.099 l -1.788,2.466 c -0.067,0.093 -0.058,0.221 0.02,0.303 l 0.011,0.012 0.004,0.003 c 0.072,0.067 0.18,0.082 0.267,0.037 l 0.878,-0.436 c 0.016,-0.008 0.035,-0.012 0.053,-0.012 0.072,0 0.131,0.06 0.131,0.131 0,0.022 -0.006,0.044 -0.016,0.064 l -0.432,0.868 c -0.043,0.088 -0.028,0.195 0.038,0.267 l 0.003,0.005 0.011,0.009 c 0.083,0.08 0.212,0.089 0.305,0.021 l 2.466,-1.787 c 0.061,-0.045 0.098,-0.116 0.098,-0.193 0,-0.05 -0.016,-0.1 -0.046,-0.141"
         id="path25" />
    </g>
    <path
       d="m 227.993,156.843 c 0.858,0.858 0.858,2.269 0,3.127 l -4.695,4.694 c -0.414,0.413 -0.975,0.644 -1.56,0.644 -1.213,0 -2.211,-0.998 -2.211,-2.211 0,-0.584 0.232,-1.146 0.645,-1.56 l 4.694,-4.694 c 0.415,-0.415 0.977,-0.648 1.564,-0.648 0.586,0 1.149,0.233 1.563,0.648"
       fill="#d6a93a"
       id="path26" />
    <path
       d="m 220.565,161.931 4.695,-4.694 c 0.784,-0.783 2.041,-0.862 2.917,-0.183 -0.057,-0.074 -0.118,-0.145 -0.183,-0.212 -0.858,-0.857 -2.27,-0.857 -3.128,0 l -4.695,4.695 c -0.414,0.414 -0.647,0.977 -0.647,1.563 0,0.586 0.234,1.15 0.649,1.564 0.066,0.065 0.136,0.126 0.209,0.182 -0.679,-0.875 -0.6,-2.132 0.183,-2.915"
       fill="#cda938"
       id="path27" />
    <path
       d="m 224.917,162.308 c 0.047,0.045 0.074,0.108 0.074,0.173 0,0.131 -0.108,0.239 -0.239,0.239 -0.066,0 -0.129,-0.027 -0.174,-0.074 l -2.152,-2.153 c -0.043,-0.044 -0.066,-0.103 -0.066,-0.165 0,-0.131 0.108,-0.239 0.239,-0.239 0.061,0 0.121,0.024 0.165,0.066 z"
       fill="#d6a93a"
       id="path28" />
    <path
       d="m 225.633,161.598 c 0.044,0.044 0.069,0.103 0.069,0.165 0,0.129 -0.107,0.236 -0.236,0.236 -0.129,0 -0.235,-0.107 -0.235,-0.236 0,-0.062 0.025,-0.121 0.069,-0.165 0.091,-0.092 0.241,-0.092 0.333,0"
       fill="#d6a93a"
       id="path29" />
    <path
       d="m 224.155,163.076 c 0.045,0.044 0.07,0.104 0.07,0.166 0,0.13 -0.107,0.236 -0.236,0.236 -0.062,0 -0.122,-0.025 -0.166,-0.069 -0.091,-0.092 -0.091,-0.241 -0.001,-0.333 0.044,-0.045 0.104,-0.07 0.167,-0.07 0.062,0 0.122,0.025 0.166,0.07"
       fill="#d6a93a"
       id="path30" />
    <path
       d="m 221.241,161.34 -0.738,0.737 c -0.044,0.044 -0.069,0.105 -0.069,0.168 0,0.132 0.108,0.24 0.24,0.24 0.063,0 0.123,-0.025 0.168,-0.069 l 0.118,-0.118 c 0.045,-0.042 0.114,-0.043 0.16,-0.004 l 1.905,1.906 c 0.045,0.044 0.106,0.07 0.169,0.07 0.132,0 0.24,-0.109 0.24,-0.24 0,-0.063 -0.025,-0.124 -0.07,-0.169 l -1.913,-1.912 c -0.033,-0.046 -0.029,-0.11 0.01,-0.151 l 0.119,-0.119 c 0.045,-0.045 0.07,-0.105 0.07,-0.169 0,-0.131 -0.108,-0.239 -0.24,-0.239 -0.063,0 -0.124,0.025 -0.169,0.069"
       fill="#d6a93a"
       id="path31" />
    <path
       d="m 225.214,157.399 c -0.062,0.045 -0.099,0.117 -0.099,0.194 0,0.051 0.016,0.1 0.045,0.141 l 0.906,1.247 c 0.038,0.053 0.033,0.126 -0.012,0.173 -0.04,0.039 -0.101,0.049 -0.151,0.023 l -0.513,-0.253 c -0.082,-0.042 -0.181,-0.032 -0.253,0.025 l -0.005,0.004 -0.018,0.016 -0.007,0.007 -0.011,0.013 -0.003,0.004 c -0.056,0.072 -0.066,0.171 -0.025,0.253 l 0.254,0.511 c 0.009,0.019 0.014,0.039 0.014,0.059 0,0.072 -0.06,0.132 -0.132,0.132 -0.028,0 -0.055,-0.009 -0.078,-0.026 l -1.249,-0.905 c -0.041,-0.031 -0.091,-0.047 -0.142,-0.047 -0.13,0 -0.238,0.108 -0.238,0.239 0,0.077 0.037,0.149 0.1,0.194 l 2.464,1.787 c 0.093,0.067 0.222,0.059 0.306,-0.02 l 0.009,-0.011 0.005,-0.005 c 0.066,-0.073 0.08,-0.179 0.036,-0.266 l -0.436,-0.878 c -0.007,-0.016 -0.011,-0.034 -0.011,-0.052 0,-0.072 0.059,-0.131 0.131,-0.131 0.022,0 0.043,0.005 0.063,0.016 l 0.868,0.429 c 0.088,0.045 0.195,0.031 0.268,-0.035 l 0.003,-0.004 0.01,-0.011 c 0.08,-0.083 0.089,-0.212 0.022,-0.305 l -1.789,-2.466 c -0.077,-0.105 -0.227,-0.128 -0.332,-0.052"
       fill="#d6a93a"
       id="path32" />
    <path
       d="m 224.917,162.072 c 0.047,0.045 0.074,0.108 0.074,0.173 0,0.131 -0.108,0.239 -0.239,0.239 -0.066,0 -0.129,-0.027 -0.174,-0.075 l -2.152,-2.151 c -0.045,-0.045 -0.07,-0.106 -0.07,-0.169 0,-0.131 0.108,-0.239 0.24,-0.239 0.063,0 0.123,0.025 0.168,0.069 z"
       fill="#f8d742"
       id="path33" />
    <path
       d="m 225.633,161.361 c 0.044,0.044 0.068,0.103 0.068,0.165 0,0.129 -0.106,0.236 -0.235,0.236 -0.129,0 -0.235,-0.107 -0.235,-0.236 0,-0.062 0.025,-0.122 0.069,-0.166 0.091,-0.091 0.242,-0.09 0.333,10e-4"
       fill="#f8d742"
       id="path34" />
    <path
       d="m 224.155,162.839 c 0.044,0.044 0.069,0.104 0.069,0.166 0,0.129 -0.106,0.235 -0.235,0.235 -0.129,0 -0.236,-0.106 -0.236,-0.235 0,-0.062 0.025,-0.122 0.069,-0.166 0.092,-0.092 0.242,-0.092 0.333,0"
       fill="#f8d742"
       id="path35" />
    <path
       d="m 221.241,161.103 -0.738,0.737 c -0.045,0.045 -0.07,0.106 -0.07,0.169 0,0.132 0.108,0.24 0.24,0.24 0.063,0 0.124,-0.025 0.169,-0.07 l 0.118,-0.117 c 0.045,-0.042 0.114,-0.044 0.16,-0.005 l 1.905,1.906 c 0.045,0.045 0.106,0.07 0.169,0.07 0.131,0 0.239,-0.108 0.239,-0.239 0,-0.063 -0.025,-0.124 -0.069,-0.169 l -1.913,-1.913 c -0.033,-0.046 -0.029,-0.11 0.01,-0.151 l 0.119,-0.118 c 0.093,-0.093 0.093,-0.246 0,-0.34 -0.045,-0.045 -0.106,-0.071 -0.17,-0.071 -0.063,0 -0.124,0.026 -0.169,0.071"
       fill="#f8d742"
       id="path36" />
    <path
       d="m 225.214,157.163 c -0.062,0.044 -0.099,0.117 -0.099,0.193 0,0.051 0.016,0.1 0.045,0.141 l 0.906,1.248 c 0.038,0.053 0.033,0.126 -0.012,0.173 -0.04,0.039 -0.101,0.048 -0.151,0.023 l -0.513,-0.254 c -0.082,-0.041 -0.181,-0.031 -0.253,0.026 l -0.005,0.003 -0.018,0.016 -0.018,0.02 -0.003,0.005 c -0.056,0.072 -0.066,0.17 -0.025,0.252 l 0.254,0.512 c 0.025,0.05 0.015,0.112 -0.025,0.152 -0.046,0.045 -0.118,0.051 -0.171,0.014 l -1.249,-0.907 c -0.041,-0.03 -0.09,-0.046 -0.14,-0.046 -0.131,0 -0.239,0.108 -0.239,0.239 0,0.076 0.037,0.148 0.099,0.193 l 2.464,1.787 c 0.093,0.068 0.222,0.059 0.306,-0.019 l 0.008,-0.011 0.006,-0.005 c 0.066,-0.073 0.08,-0.179 0.036,-0.266 l -0.436,-0.878 c -0.007,-0.016 -0.011,-0.035 -0.011,-0.053 0,-0.072 0.059,-0.131 0.131,-0.131 0.022,0 0.043,0.005 0.062,0.016 l 0.869,0.43 c 0.088,0.044 0.195,0.03 0.268,-0.036 l 0.003,-0.003 0.01,-0.012 c 0.08,-0.083 0.089,-0.212 0.022,-0.304 l -1.789,-2.466 c -0.044,-0.061 -0.116,-0.098 -0.192,-0.098 -0.051,0 -0.1,0.016 -0.14,0.046"
       fill="#f8d742"
       id="path37" />
    <g
       fill="#ffffff"
       id="g56">
      <path
         d="m 235.942,129.966 c -0.342,0.048 -0.687,0.072 -1.032,0.072 -3.888,0 -7.14,-3.08 -7.351,-6.962 -0.128,-4.098 -0.257,-8.196 -0.386,-12.293 1.922,-0.15 2.885,-0.222 4.808,-0.358 0.117,4.098 0.234,8.196 0.351,12.294 -0.001,0.033 -0.002,0.065 -0.002,0.097 0,1.571 1.293,2.864 2.864,2.864 0.203,0 0.406,-0.022 0.605,-0.065 0.284,-0.019 0.426,-0.028 0.709,-0.046 0.061,0.003 0.122,0.005 0.183,0.005 1.716,0 3.128,-1.412 3.128,-3.129 0,-0.071 -0.002,-0.143 -0.007,-0.215 -0.099,-4.098 -0.198,-8.197 -0.296,-12.295 1.925,-0.114 2.888,-0.168 4.814,-0.268 0.087,4.098 0.174,8.197 0.261,12.296 -0.039,4.344 -3.598,7.909 -7.942,7.956 -0.283,0.019 -0.424,0.028 -0.707,0.047"
         id="path38" />
      <path
         d="m 248.009,109.521 c 2.235,-0.107 3.353,-0.155 5.59,-0.242 2.512,4.043 5.007,8.097 7.485,12.161 l 0.055,-0.001 c -0.041,-4.136 -0.081,-8.271 -0.122,-12.408 1.928,-0.053 2.893,-0.077 4.821,-0.116 0.055,6.485 0.11,12.97 0.165,19.455 -2.201,0.045 -3.302,0.072 -5.502,0.136 -2.478,-4.052 -4.973,-8.094 -7.487,-12.126 l -0.054,0.003 c 0.059,4.126 0.12,8.253 0.181,12.379 -1.905,0.078 -2.858,0.119 -4.762,0.211 -0.124,-6.484 -0.247,-12.968 -0.37,-19.452"
         id="path39" />
      <path
         d="m 269.382,108.859 c 1.928,-0.03 2.893,-0.042 4.822,-0.059 0.023,6.486 0.045,12.971 0.068,19.456 -1.907,0.016 -2.86,0.028 -4.767,0.059 -0.041,-6.486 -0.082,-12.971 -0.123,-19.455"
         id="path40" />
      <path
         d="m 283.906,112.868 c -2.482,-0.013 -3.722,-0.014 -6.204,-0.005 -0.002,-1.632 -0.004,-2.448 -0.006,-4.081 5.755,-0.004 11.509,0.048 17.26,0.157 -0.014,1.632 -0.021,2.448 -0.036,4.081 -2.481,-0.055 -3.722,-0.076 -6.203,-0.109 -0.026,5.125 -0.053,10.25 -0.079,15.374 -1.907,-0.024 -2.86,-0.033 -4.767,-0.043 0.011,-5.125 0.023,-10.249 0.035,-15.374"
         id="path41" />
      <path
         d="m 298.448,109.012 c 4.352,0.13 8.704,0.29 13.054,0.477 -0.031,1.632 -0.046,2.449 -0.077,4.081 -3.284,-0.153 -4.927,-0.219 -8.213,-0.331 -0.02,1.415 -0.029,2.122 -0.049,3.537 2.676,0.091 4.014,0.144 6.689,0.263 -0.029,1.632 -0.043,2.448 -0.072,4.08 -2.669,-0.118 -4.003,-0.171 -6.673,-0.261 -0.021,1.469 -0.03,2.203 -0.051,3.672 3.418,0.117 5.126,0.187 8.541,0.349 -0.031,1.632 -0.046,2.448 -0.077,4.08 -4.428,-0.194 -8.856,-0.359 -13.284,-0.493 0.071,-6.484 0.141,-12.969 0.212,-19.454"
         id="path42" />
      <path
         d="m 315.163,109.631 c 3.083,0.157 4.624,0.245 7.704,0.438 5.546,0.161 9.982,4.849 9.837,10.396 -0.12,5.032 -4.292,9.107 -9.326,9.107 -0.336,0 -0.672,-0.018 -1.006,-0.054 -3.044,-0.192 -4.567,-0.279 -7.614,-0.435 0.135,-6.484 0.27,-12.968 0.405,-19.452 m 7.123,15.795 c 3.297,0.206 5.368,-1.604 5.473,-5.33 0.106,-3.699 -1.951,-5.756 -5.188,-5.959 -1.076,-0.067 -1.614,-0.099 -2.69,-0.162 l -0.267,11.289 c 1.069,0.063 1.603,0.095 2.672,0.162"
         id="path43" />
      <path
         d="m 186.843,86.873 c 2.506,-0.317 3.76,-0.47 6.269,-0.764 1.125,5.523 2.25,11.046 3.375,16.57 l 0.068,-0.008 c 1.288,-5.794 2.576,-11.588 3.865,-17.382 2.161,-0.232 3.242,-0.343 5.404,-0.558 1.256,5.531 2.512,11.063 3.766,16.594 l 0.069,-0.007 c 1.217,-5.764 2.435,-11.528 3.654,-17.292 2.474,-0.22 3.711,-0.325 6.186,-0.522 -2.065,8.322 -4.126,16.645 -6.186,24.97 -2.901,0.258 -4.351,0.394 -7.251,0.681 -0.986,-4.675 -1.971,-9.35 -2.957,-14.026 l -0.068,0.007 c -0.986,4.879 -1.971,9.758 -2.956,14.637 -2.925,0.315 -4.387,0.48 -7.31,0.824 -1.975,-7.908 -3.951,-15.817 -5.928,-23.724"
         id="path44" />
      <path
         d="m 344.31,83.849 c 2.692,0.232 4.038,0.354 6.729,0.611 1.778,5.247 3.553,10.496 5.327,15.745 l 0.069,0.006 c 1.773,-4.882 3.548,-9.764 5.324,-14.646 2.66,0.294 3.99,0.448 6.648,0.767 1.465,8.33 2.929,16.659 4.392,24.989 -2.466,-0.312 -3.699,-0.462 -6.167,-0.752 -0.723,-5.44 -1.445,-10.88 -2.168,-16.32 l -0.069,-0.008 c -1.748,5.163 -3.496,10.325 -5.242,15.488 -2.161,-0.231 -3.242,-0.342 -5.404,-0.557 -1.782,-5.527 -3.566,-11.053 -5.351,-16.579 -0.027,-0.003 -0.041,-0.003 -0.068,-0.007 -0.634,5.3 -1.267,10.599 -1.899,15.897 -2.514,-0.223 -3.771,-0.33 -6.287,-0.532 1.388,-8.034 2.776,-16.068 4.166,-24.102"
         id="path45" />
      <path
         d="m 221.887,83.363 c 5.501,-0.413 11.005,-0.776 16.512,-1.09 -0.119,2.057 -0.179,3.087 -0.298,5.144 -3.411,0.197 -6.821,0.408 -10.23,0.636 v 4.445 c 3.338,-0.231 5.008,-0.337 8.348,-0.529 v 5.129 c -3.34,0.192 -5.01,0.298 -8.348,0.529 v 4.616 c 3.568,-0.247 7.138,-0.468 10.709,-0.661 0,2.051 0,3.077 10e-4,5.128 -5.569,0.317 -11.133,0.684 -16.694,1.101 z"
         id="path46" />
      <path
         d="m 266.546,86.439 c -3.093,0.053 -4.639,0.087 -7.731,0.173 v -5.129 c 7.153,-0.181 14.306,-0.273 21.458,-0.275 v 5.13 c -3.092,-0.007 -4.639,-0.002 -7.732,0.025 v 19.319 c -2.398,0.02 -3.597,0.035 -5.995,0.076 z"
         id="path47" />
      <path
         d="m 290.23,81.26 c 2.398,0.029 3.597,0.049 5.995,0.097 v 9.779 c 3.465,0.081 6.928,0.177 10.391,0.289 v -9.779 c 2.398,0.083 3.596,0.13 5.993,0.234 v 24.448 c -2.396,-0.103 -3.595,-0.151 -5.993,-0.234 V 96.52 c -3.463,-0.113 -6.927,-0.209 -10.391,-0.289 v 9.574 c -2.398,-0.049 -3.597,-0.068 -5.995,-0.098 z"
         id="path48" />
      <path
         d="m 330.545,102.18 c -3.288,-0.224 -4.933,-0.325 -8.223,-0.511 -0.589,2.018 -0.883,3.027 -1.472,5.047 -2.464,-0.134 -3.696,-0.196 -6.161,-0.309 2.473,-8.024 4.949,-16.047 7.426,-24.069 3.232,0.181 4.847,0.281 8.077,0.499 2.675,8.343 5.345,16.688 8.012,25.034 -2.461,-0.194 -3.692,-0.285 -6.154,-0.458 -0.602,-2.094 -0.903,-3.141 -1.505,-5.233 m -4.128,-14.014 c -0.898,2.932 -1.795,5.864 -2.692,8.796 2.168,0.127 3.251,0.194 5.418,0.337 -0.886,-3.043 -1.772,-6.087 -2.658,-9.129 z"
         id="path49" />
      <path
         d="m 249.732,81.346 c -4.464,0.158 -9.524,2.907 -9.557,7.926 -0.051,7.661 11.454,5.605 12.164,9.792 0.197,1.158 -1.108,2.131 -2.76,2.128 -2.789,0.052 -5.547,-0.599 -8.018,-1.893 -0.122,2.112 -0.223,3.222 -0.305,5.139 2.446,1.527 5.292,2.29 8.174,2.189 4.303,0.111 9.478,-2.873 9.522,-7.905 0.065,-7.602 -11.34,-5.881 -12.167,-9.835 -0.212,-1.012 1.024,-2.009 2.871,-2.115 2.194,-0.121 4.386,0.282 6.394,1.174 0.123,-2.432 0.16,-2.779 0.297,-5.146 -2.023,-1.101 -4.317,-1.606 -6.615,-1.454"
         id="path50" />
      <path
         d="m 244.605,283.326 2.912,1.272 -4.106,9.402 4.859,2.123 -1.091,2.496 -7.771,-3.394 z"
         id="path51" />
      <path
         d="m 258.983,288.457 c 2.948,0.702 5.045,3.358 5.045,6.388 0,0.61 -0.084,1.216 -0.252,1.802 -0.807,2.94 -3.5,4.992 -6.548,4.992 -3.726,0 -6.792,-3.065 -6.792,-6.791 0,-0.608 0.082,-1.213 0.243,-1.799 0.759,-2.873 3.378,-4.89 6.349,-4.89 0.663,0 1.322,0.101 1.955,0.298 m -2.785,10.138 c 0.27,0.063 0.547,0.094 0.824,0.094 1.728,0 3.231,-1.222 3.585,-2.913 0.124,-0.364 0.187,-0.747 0.187,-1.132 0,-1.926 -1.585,-3.511 -3.511,-3.511 -1.653,0 -3.094,1.168 -3.435,2.786 -0.131,0.382 -0.198,0.783 -0.198,1.187 0,1.589 1.034,3.005 2.548,3.489"
         id="path52" />
      <path
         d="m 266.819,290.6 3.198,0.326 2.963,6.398 c 0.327,0.756 0.614,1.529 0.859,2.315 l 0.036,0.004 c 0,0 -0.003,-1.406 0.08,-2.219 l 0.615,-6.035 3.161,0.322 -1.315,12.918 -3.18,-0.324 -2.983,-6.382 c -0.327,-0.755 -0.614,-1.528 -0.859,-2.314 l -0.036,-0.004 c 0,0 0.002,1.406 -0.081,2.219 l -0.612,6.016 -3.162,-0.322 z"
         id="path53" />
      <path
         d="m 279.972,291.746 4.607,-0.248 c 4.08,-0.22 6.819,2.015 7.039,6.096 0.219,4.08 -2.261,6.651 -6.342,6.87 l -4.606,0.248 z m 5.031,10.005 c 1.894,-0.221 3.339,-1.843 3.339,-3.75 0,-2.06 -1.685,-3.759 -3.745,-3.776 l -1.305,0.071 0.405,7.525 z"
         id="path54" />
      <path
         d="m 298.402,289.455 c 0.533,-0.136 1.08,-0.205 1.629,-0.205 3.097,0 5.793,2.189 6.429,5.22 0.105,0.479 0.158,0.968 0.158,1.459 0,3.726 -3.066,6.792 -6.792,6.792 -3.177,0 -5.95,-2.23 -6.633,-5.333 -0.111,-0.484 -0.168,-0.978 -0.168,-1.474 0,-3.156 2.274,-5.887 5.377,-6.459 m 2.259,10.27 c 1.603,-0.423 2.729,-1.884 2.729,-3.542 0,-0.341 -0.047,-0.68 -0.141,-1.007 -0.268,-1.7 -1.748,-2.965 -3.468,-2.965 -1.927,0 -3.512,1.585 -3.512,3.511 0,0.325 0.045,0.648 0.134,0.96 0.277,1.776 1.822,3.099 3.62,3.099 0.214,0 0.427,-0.019 0.638,-0.056"
         id="path55" />
      <path
         d="m 306.325,287.711 2.981,-1.203 5.602,4.279 c 0.642,0.515 1.256,1.065 1.84,1.646 l 0.033,-0.013 c 0,0 -0.658,-1.242 -0.963,-2.001 l -2.269,-5.623 2.946,-1.189 4.858,12.039 -2.964,1.196 -5.613,-4.255 c -0.642,-0.516 -1.256,-1.065 -1.839,-1.647 l -0.034,0.014 c 0,0 0.658,1.242 0.964,2 l 2.263,5.607 -2.947,1.189 z"
         id="path56" />
    </g>
  </g>
</svg>
