<?xml version="1.0" encoding="UTF-8" standalone="no"?>
<svg
   clip-rule="evenodd"
   fill-rule="evenodd"
   viewBox="0 0 300 299.996"
   version="1.1"
   id="svg22"
   sodipodi:docname="Wigan.svg"
   width="300"
   height="299.996"
   xmlns:inkscape="http://www.inkscape.org/namespaces/inkscape"
   xmlns:sodipodi="http://sodipodi.sourceforge.net/DTD/sodipodi-0.dtd"
   xmlns="http://www.w3.org/2000/svg"
   xmlns:svg="http://www.w3.org/2000/svg">
  <defs
     id="defs22" />
  <sodipodi:namedview
     id="namedview22"
     pagecolor="#ffffff"
     bordercolor="#000000"
     borderopacity="0.25"
     inkscape:showpageshadow="2"
     inkscape:pageopacity="0.0"
     inkscape:pagecheckerboard="0"
     inkscape:deskcolor="#d1d1d1" />
  <g
     fill-rule="nonzero"
     id="g3"
     transform="translate(-130,-50.002)">
    <path
       d="M 430,200 C 430,282.844 362.844,349.998 279.998,349.998 197.157,349.998 130,282.844 130,200 130,117.161 197.157,50.002 279.998,50.002 362.844,50.002 430,117.161 430,200"
       fill="#ffffff"
       id="path1" />
    <path
       d="m 279.997,284.997 c -47.101,0 -85.281,-38.182 -85.281,-85.281 0,-47.101 38.18,-85.283 85.281,-85.283 47.108,0 85.286,38.182 85.286,85.283 0,47.099 -38.178,85.281 -85.286,85.281 z m 0,-177.512 c -50.936,0 -92.23,41.293 -92.23,92.231 0,50.939 41.294,92.232 92.23,92.232 50.939,0 92.232,-41.293 92.232,-92.232 0,-50.938 -41.293,-92.231 -92.232,-92.231"
       fill="#d3d3d3"
       id="path2" />
    <path
       d="m 279.988,54.136 c -80.42,0 -145.523,65.109 -145.523,145.523 0,80.416 65.103,145.688 145.523,145.688 80.41,0 145.688,-65.272 145.688,-145.688 0,-80.414 -65.278,-145.523 -145.688,-145.523 z m 0,5.457 c 77.374,0 140.065,62.686 140.065,140.066 0,77.379 -62.691,140.231 -140.065,140.231 -77.382,0 -140.066,-62.852 -140.066,-140.231 0,-77.38 62.684,-140.066 140.066,-140.066 z m -1.654,6.45 c -11.959,0.46 -20.829,7.263 -20.34,20.009 0.391,10.242 9.136,16.489 20.836,16.041 4.483,-0.168 9.016,-1.388 13.395,-2.812 -0.13,-0.75 -0.252,-3.352 -0.331,-5.457 -0.122,-3.213 -0.045,-7.37 0.165,-8.433 -0.655,0.127 -1.69,0.236 -4.134,0.33 -2.088,0.082 -3.14,0.078 -3.803,0 0.085,0.951 0.459,3.18 0.661,8.599 0.06,1.457 0.124,2.666 0,3.473 -0.791,0.584 -3.725,1.091 -5.457,1.158 -7.835,0.298 -12.593,-5.581 -12.898,-13.56 -0.404,-10.54 5.924,-15.969 12.237,-16.206 4.631,-0.181 7.84,1.704 10.087,4.63 h 0.827 c 0.24,-1.717 0.663,-3.4 1.158,-5.126 -3.737,-1.768 -7.263,-2.841 -12.403,-2.646 z m -34.892,5.622 c -1.041,0.429 -2.198,0.988 -3.804,1.488 -1.606,0.5 -3.035,0.757 -4.134,0.993 1.613,4.13 2.952,7.857 4.63,13.229 l 1.985,6.449 c 1.68,5.368 2.781,9.084 3.803,13.395 1.043,-0.431 2.199,-0.985 3.804,-1.488 1.609,-0.502 3.032,-0.751 4.134,-0.993 -1.61,-4.125 -2.787,-7.859 -4.465,-13.229 l -2.15,-6.449 c -1.678,-5.369 -2.779,-9.085 -3.803,-13.395 z m 76.234,0.662 c -7.661,9.574 -20.404,24.388 -24.475,28.939 0.945,0.197 1.871,0.247 2.646,0.496 0.774,0.25 1.404,0.646 2.15,0.992 1.977,-3.007 4.096,-5.928 6.449,-8.764 1.717,0.496 3.26,0.947 4.961,1.488 2.085,0.671 4.217,1.433 6.284,2.15 0.174,3.641 0.186,7.337 0.166,10.914 1.387,0.338 2.778,0.557 4.134,0.992 1.36,0.433 2.78,1.064 4.299,1.654 -1.193,-8.976 -2.178,-25.313 -2.811,-37.538 -0.668,-0.11 -1.352,-0.295 -1.984,-0.497 -0.633,-0.201 -1.218,-0.528 -1.819,-0.826 z m -98.89,5.457 c -0.568,0.601 -1.033,1.206 -1.653,1.653 -0.533,0.389 -1.321,0.696 -1.985,0.993 1.584,3.751 5.919,16.611 8.765,24.97 -5.38,-4.291 -18.13,-12.631 -21.498,-15.71 -0.608,0.627 -1.115,1.145 -1.819,1.654 -0.699,0.506 -1.521,0.937 -2.315,1.323 1.589,4.623 5.42,17.031 7.937,25.632 l -0.165,0.165 c -5.69,-4.559 -13.613,-10.974 -20.34,-16.702 -1.023,0.931 -2.027,1.837 -3.142,2.646 -1.112,0.807 -2.352,1.573 -3.638,2.315 1.888,1.301 21.674,16.158 28.608,21.994 0.643,-0.592 1.286,-1.142 1.985,-1.654 0.701,-0.506 1.552,-0.897 2.315,-1.323 -2.426,-6.988 -5.37,-18.202 -7.442,-25.136 h 0.166 c 7.309,4.882 14.4,9.823 21.001,15.214 0.645,-0.592 1.279,-1.308 1.985,-1.819 0.699,-0.51 1.388,-0.897 2.15,-1.323 -3.88,-10.898 -9.757,-30.954 -10.915,-34.892 z m 95.913,3.803 c 0.358,4.232 0.657,8.574 0.827,12.899 l -8.93,-2.977 c 2.645,-3.423 5.258,-6.717 8.103,-9.922 z m 34.396,4.3 c -1.441,1.932 -3.175,4.532 -5.953,8.103 -6.298,8.082 -14.775,17.858 -15.875,18.851 0.699,0.351 1.378,0.685 1.984,1.158 0.602,0.468 1.104,1.033 1.654,1.654 1.028,-1.562 2.671,-3.744 7.607,-10.088 2.321,-2.971 4.879,-6.349 7.276,-9.26 1.184,11.242 1.977,22.199 2.481,32.908 0.578,0.255 1.26,0.555 1.819,0.992 0.567,0.437 1.02,0.936 1.488,1.488 8.213,-10.542 12.373,-15.758 21.994,-26.789 -0.695,-0.353 -1.385,-0.689 -1.985,-1.158 -0.607,-0.472 -1.139,-1.064 -1.653,-1.653 -1.106,2.003 -9.482,12.718 -14.387,19.017 -1,-10.902 -1.935,-21.606 -2.812,-32.412 -0.694,-0.354 -1.383,-0.688 -1.984,-1.158 -0.608,-0.466 -1.143,-1.065 -1.654,-1.653 z m -71.107,20.34 c -51.604,0 -93.433,41.829 -93.433,93.432 0,51.596 41.829,93.432 93.433,93.432 51.595,0 93.432,-41.836 93.432,-93.432 0,-51.603 -41.837,-93.432 -93.432,-93.432 z m 0,4.134 c 24.129,0 46.089,9.436 62.178,24.97 l 0.165,128.49 c -16.105,15.668 -38.098,25.301 -62.343,25.301 -23.981,0 -45.795,-9.438 -61.848,-24.805 V 135.166 c 16.053,-15.358 37.867,-24.805 61.848,-24.805 z m 80.203,154.287 c -2.312,0.525 -5.734,2.649 -7.938,4.796 -6.625,6.449 -9.306,15.433 -0.827,24.143 5.797,5.956 14.511,6.459 21.829,-0.661 2.583,-2.522 4.313,-5.263 5.126,-7.772 -0.762,-0.97 -1.474,-2.08 -1.984,-3.308 l -0.662,0.166 c 0.028,2.739 -1.29,5.97 -3.307,7.937 -3.625,3.53 -10.05,4.675 -16.372,-1.819 -6.512,-6.684 -5.518,-13.248 -2.149,-16.536 2.242,-2.181 4.785,-2.898 8.268,-2.481 l 0.331,-0.496 c -0.949,-1.165 -1.718,-2.538 -2.315,-3.969 z m -152.965,3.142 c -9.934,4.031 -25.868,9.852 -30.923,11.576 0.632,0.563 1.177,0.972 1.653,1.488 0.481,0.517 0.91,1.072 1.323,1.654 2.794,-1.453 5.595,-2.641 8.599,-3.804 1.078,1.095 2.089,2.01 3.142,3.142 1.289,1.391 2.55,2.879 3.804,4.3 -1.454,2.833 -3.061,5.558 -4.63,8.268 0.9,0.847 1.974,1.738 2.811,2.646 0.834,0.9 1.419,1.88 2.315,2.977 2.994,-7.332 9.399,-20.199 14.221,-29.766 -0.45,-0.358 -0.932,-0.569 -1.323,-0.993 -0.384,-0.423 -0.665,-1.007 -0.992,-1.488 z m -6.118,5.788 c -1.559,3.366 -3.372,6.727 -5.127,10.087 l -5.457,-5.953 c 3.479,-1.486 7.048,-2.902 10.584,-4.134 z m 14.883,4.134 c -0.258,0.62 -0.459,1.112 -0.827,1.654 -0.37,0.548 -0.843,1.016 -1.323,1.488 2.365,1.224 5.686,3.014 7.111,3.969 -0.238,0.586 -1.211,1.925 -2.15,3.307 l -6.119,9.095 c -2.762,4.082 -4.723,6.859 -7.11,9.922 0.851,0.473 1.938,1.009 3.142,1.819 1.206,0.813 2.063,1.704 2.811,2.316 1.951,-3.356 3.855,-6.337 6.614,-10.419 l 6.119,-9.095 c 0.939,-1.386 1.737,-2.678 2.15,-3.142 1.462,0.991 4.482,3.373 6.284,4.961 0.259,-0.62 0.456,-1.27 0.827,-1.819 0.371,-0.55 0.843,-1.014 1.323,-1.488 -3.175,-1.986 -4.899,-3.066 -9.426,-6.119 -4.52,-3.057 -6.182,-4.101 -9.426,-6.449 z m 120.221,6.119 c -0.771,0.59 -1.752,1.372 -2.976,2.149 -1.235,0.767 -2.278,1.216 -3.142,1.654 2.282,3.144 4.16,5.917 6.78,10.088 l 3.142,5.126 c 2.616,4.175 4.283,7.164 6.118,10.583 0.775,-0.59 1.747,-1.372 2.977,-2.149 1.234,-0.775 2.28,-1.381 3.142,-1.819 -2.282,-3.147 -4.155,-5.913 -6.78,-10.088 l -3.142,-4.961 c -2.62,-4.167 -4.283,-7.164 -6.119,-10.583 z m -9.591,6.449 c -3.443,1.469 -5.158,2.176 -10.253,4.134 -5.09,1.959 -6.967,2.65 -10.748,3.969 0.355,0.565 0.586,1.04 0.826,1.654 0.234,0.616 0.387,1.317 0.496,1.984 2.358,-1.241 5.678,-2.861 7.277,-3.473 0.347,0.526 0.888,1.915 1.488,3.473 l 3.969,10.253 c 1.77,4.6 2.993,7.864 4.134,11.575 0.872,-0.431 1.953,-0.967 3.307,-1.488 1.36,-0.521 2.377,-0.891 3.308,-1.157 -1.636,-3.519 -2.867,-6.642 -4.631,-11.245 l -3.969,-10.253 c -0.599,-1.56 -1.186,-3.022 -1.322,-3.638 1.639,-0.629 5.285,-1.746 7.606,-2.315 -0.357,-0.568 -0.752,-1.034 -0.992,-1.654 -0.24,-0.616 -0.382,-1.165 -0.496,-1.819 z m -90.29,1.158 c -0.987,3.762 -2.069,6.907 -3.638,11.575 l -1.819,5.623 c -1.572,4.672 -2.815,7.991 -4.3,11.575 0.946,0.231 2.095,0.359 3.473,0.827 1.377,0.464 2.419,1.09 3.307,1.489 0.984,-3.752 2.065,-7.069 3.638,-11.741 l 0.827,-2.316 c 2.158,0.638 4.203,1.282 6.284,1.985 2.132,0.717 4.172,1.389 6.284,2.15 l -0.661,2.48 c -1.569,4.677 -2.81,7.822 -4.3,11.41 0.947,0.223 2.097,0.533 3.473,0.993 1.379,0.463 2.414,0.933 3.307,1.322 0.982,-3.747 2.065,-7.066 3.638,-11.741 l 1.819,-5.622 c 1.575,-4.673 2.814,-7.826 4.3,-11.41 -0.948,-0.231 -2.096,-0.529 -3.473,-0.993 -1.378,-0.463 -2.414,-0.931 -3.307,-1.322 -0.969,3.713 -2.078,6.949 -3.638,11.575 -1.597,-0.491 -3.325,-0.989 -6.284,-1.984 -2.961,-0.995 -4.88,-1.803 -6.284,-2.315 1.559,-4.633 2.663,-7.695 4.134,-11.245 -0.946,-0.227 -2.098,-0.533 -3.473,-0.992 -1.375,-0.464 -2.417,-0.934 -3.307,-1.323 z m 67.8,6.945 c -1.152,0.309 -4.827,1.025 -9.095,1.654 -2.572,0.366 -5.192,0.498 -7.772,0.826 0.823,3.801 1.444,7.194 2.15,12.072 l 0.826,5.953 c 0.714,4.879 1.193,8.198 1.489,12.072 0.947,-0.226 1.999,-0.448 9.095,-1.488 4.011,-0.578 6.199,-0.81 7.772,-0.992 -0.163,-0.513 -0.358,-0.9 -0.496,-1.819 -0.134,-0.913 -0.165,-1.36 -0.165,-1.985 -3.296,0.883 -6.488,1.504 -9.757,1.985 -0.337,-1.732 -0.725,-3.624 -0.992,-5.457 -0.273,-1.87 -0.562,-3.626 -0.827,-5.457 3.308,-0.485 6.57,-0.938 9.922,-1.158 -0.265,-0.896 -0.26,-1.184 -0.331,-1.654 -0.087,-0.571 -0.194,-0.953 -0.165,-1.984 -3.281,0.667 -5.983,1.016 -9.757,1.654 -0.469,-3.178 -0.907,-6.217 -1.157,-9.426 1.306,-0.195 6.585,-0.73 9.922,-0.993 -0.178,-0.637 -0.364,-0.904 -0.496,-1.819 -0.118,-0.781 -0.174,-1.446 -0.166,-1.984 z m -37.373,1.819 c 0.013,3.881 -0.176,7.153 -0.496,12.072 l -0.331,5.953 c -0.316,4.92 -0.649,8.388 -1.157,12.237 0.966,-0.025 2.103,-0.128 9.26,0.331 4.041,0.262 6.2,0.511 7.773,0.661 -0.05,-0.533 -0.225,-0.9 -0.166,-1.819 0.062,-0.921 0.204,-1.37 0.331,-1.984 -3.404,0.18 -6.795,0.207 -10.087,0 0.102,-2.287 0.289,-5.68 0.496,-8.93 l 0.331,-5.953 c 0.321,-4.923 0.639,-8.392 1.157,-12.237 -0.972,0.027 -2.192,0.089 -3.638,0 -1.451,-0.1 -2.515,-0.179 -3.473,-0.331 z"
       fill="#1d59af"
       id="path3" />
  </g>
  <path
     d="m 267.233,133.947 c -1.618,-0.07 -2.977,0.166 -2.977,0.166 -0.326,0.254 0.165,0.992 0.165,0.992 3.25,3.017 4.357,10.343 3.969,13.229 -0.173,1.285 -0.088,1.825 0.496,2.646 0.574,0.817 3.154,2.255 3.969,2.48 0.815,0.23 1.977,0.329 2.315,-0.496 0.352,-0.803 1.043,-2.685 0.827,-7.441 -0.231,-5.104 -2.669,-8.749 -4.299,-10.253 -1.022,-0.953 -2.847,-1.253 -4.465,-1.323 z m -5.953,1.158 c -0.451,0.008 -0.963,0.172 -1.82,0.661 -1.7,0.978 -9.257,6.038 -8.764,15.545 0,0 1.12,-6.7 11.08,-10.088 0,0 2.725,-0.465 1.984,-2.48 -0.684,-1.899 -1.006,-2.469 -1.488,-3.142 -0.233,-0.344 -0.542,-0.505 -0.992,-0.496 z m 12.898,0.661 c -0.045,0.135 0,0.331 0,0.331 0,0 3.208,3.843 3.638,9.095 0.358,4.577 -0.374,7.16 -0.827,8.103 -0.482,0.912 -0.27,1.829 0.662,2.15 1.253,0.463 4.205,0.976 4.795,-1.488 0.631,-2.548 1.62,-12.032 -7.937,-18.191 -0.225,-0.153 -0.286,-0.134 -0.331,0 z m -10.087,6.946 c -0.313,-0.028 -0.616,0.016 -0.992,0.165 -1.504,0.575 -6.543,2.289 -9.592,6.284 -2.75,3.582 -2.468,7.689 0.662,10.583 0,0 -0.765,-4.413 10.418,-9.756 0,0 1.902,-0.447 1.984,-2.15 0.079,-1.51 -0.411,-2.989 -0.661,-3.803 -0.178,-0.611 -0.88,-1.239 -1.819,-1.323 z m 1.984,9.26 c -0.261,0.011 -0.504,0.022 -0.827,0.166 -1.274,0.582 -2.994,1.31 -3.803,2.48 -0.807,1.166 -0.217,2.305 0.827,2.977 1.06,0.703 15.094,10.096 19.017,-0.496 0,0 -4.982,2.92 -13.891,-4.796 0,0 -0.54,-0.363 -1.323,-0.331 z m -7.276,5.457 c -0.234,-0.035 -0.568,0.035 -0.827,0.166 -1.226,0.653 -2.15,2.315 -2.15,2.315 0,0 -0.994,1.041 0.166,1.984 0.756,0.624 8.533,8.69 19.678,1.488 0,0 -6.372,2.361 -15.709,-5.291 0,0 -0.456,-0.555 -1.158,-0.662 z"
     fill="#9e8b4f"
     id="path4" />
  <path
     d="m 144.825,167.265 -2.63,-0.626 c 0,0 3.283,-1.326 4.967,0.274 0,0 -0.285,-2.795 1.463,-6.099 v 1.698 c -1.426,3.684 -0.551,6.831 -0.551,6.831 -6.736,-4.799 -9.316,2.491 -9.316,2.491 -2.274,8.833 6.356,9.646 6.356,9.646 -1.28,-2.504 0,-5.432 2.147,-5.432 2.103,0 3.382,2.099 3.382,5.849 0,3.803 0,8.38 -5.116,8.38 -5.082,0 -7.626,-4.147 -7.626,-4.147 0,0 -0.425,5.008 -7.23,5.008 -6.803,0 -8.052,-9.658 -5.5,-10.905 2.543,-1.257 3.386,3.784 3.386,3.784 4.257,-2.521 6.361,-10.899 1.705,-13.839 -4.678,-2.942 -9.322,2.521 -9.322,2.521 -0.878,-9.654 -12.786,-11.343 -12.786,-11.343 l 18.271,46.961 c 0,0 12.333,-3.748 27.595,-3.748 15.304,0 28.028,4.18 28.028,4.18 l 17.43,-46.545 c -11.039,-1.251 -11.475,10.495 -11.475,10.495 0,0 -4.673,-6.706 -10.177,-2.945 -5.531,3.786 -0.773,12.865 -0.773,12.865 2.663,-7.849 8,-1.983 7.555,2.216 -0.41,4.194 -5.589,7.682 -9.298,6.921 -4.15,-0.821 -5.411,-3.72 -5.411,-3.72 0,0 -1.667,2.632 -6.951,1.995 -3.337,-0.401 -4.665,-5.196 -4.665,-7.695 0,-2.521 0.414,-6.749 2.988,-6.72 3.68,0.054 2.351,5.703 2.351,5.703 0,0 8.369,-3.261 5.289,-10.014 -2.969,-6.486 -9.344,-1.551 -9.344,-1.551 0.238,-0.705 0.383,-1.406 0.439,-2.084 h 1.581 v -1.269 c 0.662,-0.306 1.65,-0.534 2.94,-0.149 l -3.002,-17.41 -0.355,-2.149 c 0,0 1.164,-2.866 9.947,-8.627 l 3.544,-2.036 c 2.58,0.749 6.01,-0.291 6.01,-0.291 10.057,2.231 11.128,-3.119 11.128,-3.119 2.132,1.363 6.856,-0.485 6.856,-0.485 6.408,-3.211 -1.978,-6.126 -1.978,-6.126 4.265,0.387 2.735,-2.144 2.735,-2.144 10.222,-3.503 -1.52,-8.169 -1.52,-8.169 11.587,-1.853 5.951,-7.687 5.951,-7.687 2.586,-3.891 -5.037,-4.279 -5.037,-4.279 0.606,-8.853 -14.018,-5.158 -14.018,-5.158 1.213,-1.169 -1.224,-2.138 -1.224,-2.138 -8.32,0.322 -3.962,-4.963 -3.962,-4.963 -0.765,-4.377 -6.86,-3.404 -6.86,-3.404 1.677,-2.436 -3.205,-2.531 -3.205,-2.531 1.983,-2.236 -5.845,-2.372 -5.845,-2.372 0,-2.529 -0.707,-3.272 -0.707,-3.272 -0.763,-3.115 -8.382,-3.306 -8.382,-3.306 -2.44,-0.973 -3.966,0.58 -3.966,0.58 -3.51,-0.192 -4.726,1.95 -4.726,1.95 -6.25,0.874 -6.402,3.792 -6.402,3.792 -3.655,0.587 -3.655,3.112 -3.655,3.112 -17.38,1.655 -11.432,11.383 -11.432,11.383 -1.682,-1.845 -3.049,0 -3.049,0 -12.194,-1.458 -7.168,9.34 -7.168,9.34 -8.38,-0.291 -10.059,5.059 -10.059,5.059 -1.984,4.573 3.66,6.811 3.66,6.811 -7.62,2.044 -2.136,6.033 -2.136,6.033 -7.927,4.861 1.985,7.586 1.985,7.586 2.176,7.022 12.973,4.307 18.192,2.531 l 8.74,1.947 2.31,1.356 8.14,4.331 -0.105,4.182 -2.732,18.296 c -0.101,-0.021 2.079,0.606 2.625,2.39"
     fill="#d3d3d3"
     fill-rule="nonzero"
     id="path5" />
  <path
     d="m 161.091,162.814 -3.01,-17.407 -0.352,-2.149 c 0,0 1.17,-2.868 9.956,-8.627 l 12.953,-7.456 -10.642,0.336 -7.861,5.081 -2.77,1.357 h -3.24 l 4.162,-10.163 -8.328,-1.012 -0.921,8.465 -2.775,2.71 -0.922,-1.357 -2.316,-10.838 -4.626,0.336 1.85,9.149 -3.235,1.353 -2.311,-1.016 2.311,1.016 c 0,0 -13.41,-5.417 -18.038,-5.753 -4.62,-0.34 -0.464,4.061 -0.464,4.061 l 10.637,2.373 2.316,1.358 8.137,4.328 1.432,4.659 -2.71,18.555 c 0,0 1.389,-0.12 2.415,0.758 0,0 -0.819,-7.699 7.33,-12.676 0,0 8.214,4.021 8.214,12.879 0,0 1.022,-0.945 2.808,-0.32"
     fill="#9b5c0e"
     fill-rule="nonzero"
     id="path6" />
  <path
     d="m 147.657,126.069 c 0,0 -4.727,2.333 -8.533,-0.58 0,0 -0.613,4.084 -9.147,3.01 0,0 0,2.826 -4.729,1.754 0,0 -18.136,7.879 -21.034,-1.46 0,0 -9.905,-2.724 -1.978,-7.585 0,0 -5.488,-3.99 2.131,-6.029 0,0 -5.64,-2.242 -3.657,-6.811 0,0 1.678,-5.357 10.059,-5.062 0,0 -5.029,-10.799 7.167,-9.341 0,0 1.369,-1.848 3.048,0 0,0 -5.947,-9.728 11.431,-11.379 0,0 0,-2.527 3.662,-3.113 0,0 0.148,-2.919 6.398,-3.794 0,0 1.22,-2.141 4.724,-1.949 0,0 1.529,-1.554 3.968,-0.586 0,0 7.619,0.197 8.38,3.311 0,0 4.422,0.099 4.422,2.629 0,0 4.117,0.777 2.134,3.013 0,0 4.88,0.097 3.201,2.529 0,0 6.097,-0.97 6.866,3.407 0,0 6.248,1.456 3.955,4.963 0,0 2.446,0.969 1.225,2.139 0,0 14.632,-3.698 14.022,5.156 0,0 7.621,0.39 5.034,4.28 0,0 5.639,5.837 -5.946,7.684 0,0 11.736,4.674 1.522,8.175 0,0 1.526,2.527 -2.744,2.134 0,0 8.388,2.925 1.981,6.134 0,0 -4.721,1.846 -6.856,0.488 0,0 -1.069,5.348 -11.128,3.119 0,0 -7.629,2.327 -8.692,-2.44 0,0 -6.555,2.531 -9.757,-2.038 0,0 -6.86,3.402 -11.129,-1.758"
     fill="#006838"
     fill-rule="nonzero"
     id="path7" />
  <path
     d="m 147.657,126.069 c 0,0 -4.727,2.333 -8.533,-0.58 0,0 -0.613,4.084 -9.147,3.01 0,0 0,2.826 -4.729,1.754 0,0 -18.136,7.879 -21.034,-1.46 0,0 -9.905,-2.724 -1.978,-7.585 0,0 -5.488,-3.99 2.131,-6.029 0,0 -5.64,-2.242 -3.657,-6.811 0,0 1.678,-5.357 10.059,-5.062 0,0 -5.029,-10.799 7.167,-9.341 0,0 1.369,-1.848 3.048,0 0,0 -5.947,-9.728 11.431,-11.379 0,0 0,-2.527 3.662,-3.113 0,0 0.148,-2.919 6.398,-3.794 0,0 1.22,-2.141 4.724,-1.949 0,0 1.529,-1.554 3.968,-0.586 0,0 7.619,0.197 8.38,3.311 0,0 4.422,0.099 4.422,2.629 0,0 4.117,0.777 2.134,3.013 0,0 4.88,0.097 3.201,2.529 0,0 6.097,-0.97 6.866,3.407 0,0 6.248,1.456 3.955,4.963 0,0 2.446,0.969 1.225,2.139 0,0 14.632,-3.698 14.022,5.156 0,0 7.621,0.39 5.034,4.28 0,0 5.639,5.837 -5.946,7.684 0,0 11.736,4.674 1.522,8.175 0,0 1.526,2.527 -2.744,2.134 0,0 8.388,2.925 1.981,6.134 0,0 -4.721,1.846 -6.856,0.488 0,0 -1.069,5.348 -11.128,3.119 0,0 -7.629,2.327 -8.692,-2.44 0,0 -6.555,2.531 -9.757,-2.038 0,0 -6.86,3.402 -11.129,-1.758 z"
     fill="none"
     stroke="#006838"
     stroke-width="0.53"
     id="path8" />
  <g
     fill-rule="nonzero"
     id="g20"
     transform="translate(-130,-50.002)">
    <g
       fill="#123d0f"
       id="g15">
      <path
         d="m 235.136,154.279 c 0,0 -7.931,4.17 -2.836,9.43 0,0 0.968,0.856 2.067,1.472 0,0 -4.158,1.113 -3.826,3.369 0,0 0.628,1.483 1.695,2.66 0,0 -7.787,4.229 1.978,7.585 0,0 2.511,9.451 21.034,1.272 0,0 3.785,1.631 4.729,-1.561 0,0 5.457,0.392 7.457,-1.027 0,0 -5.258,0.333 -8.597,-1.167 0,0 -1.168,2.336 -5.924,1.252 0,0 -15.102,0.751 -14.523,-4.509 0,0 -3.839,-1.504 -1.17,-6.174 0,0 -2.335,-3.676 -0.915,-4.423 0,0 -6.429,-2.589 -1.169,-8.179"
         id="path9" />
      <path
         d="m 261.587,148.95 c 0,0 -3.225,3.329 -1.771,6.243 0,0 0.414,3.428 3.119,4.156 0,0 5.306,-0.101 6.864,1.25 0,0 1.145,0 0.833,1.664 0,0 -1.336,5.056 0.198,5.938 0.065,0.038 0.133,0.069 0.214,0.09 1.871,0.516 2.913,2.911 6.553,2.393 0,0 -7.487,-3.848 -5.201,-7.281 0,0 -1.04,-3.638 -0.313,-3.952 0,0 -11.224,-1.974 -10.396,-4.052 0,0 -2.496,-2.394 -0.1,-6.449"
         id="path10" />
      <path
         d="m 295.499,142.417 c 0,0 1.789,4.683 -1.892,6.578 0,0 -3.229,0.666 -3.785,1.783 0,0 -0.561,2.67 -2.564,3.566 0,0 -2.006,1.114 -2.006,1.447 0,0 1.224,-0.891 2.452,-0.891 0,0 2.118,-2.786 3.118,-3.68 0,0 2.227,-0.778 3.23,-0.778 0,0 3.457,-2.561 1.447,-8.025"
         id="path11" />
      <path
         d="m 304.421,159.881 c 0,0 2.679,1.116 2.901,2.23 0,0 1.331,3.233 0.667,4.346 0,0 -2.559,2.564 -1.895,3.679 0,0 0.667,2.45 4.573,1.893 0,0 3.232,-1 3.341,0.337 l 0.219,1.894 c 0,0 0.894,-2.231 0.116,-3.347 0,0 -1.894,-0.664 -3.676,-0.223 0,0 -4.127,0 -1.898,-3.676 0,0 1.563,-3.676 1.224,-5.239 0,0 -1.001,-1.334 -2.56,-1.558 0,0 -7.803,-3.012 -7.243,-4.122 0,0 1.115,2.785 4.231,3.786"
         id="path12" />
      <path
         d="m 266.431,137.192 c 0,0 3.499,-1.073 4.847,-0.136 0,0 2.828,1.216 2.828,2.156 0,0 -0.537,1.752 0.135,2.96 l 0.542,2.291 -1.214,-1.749 c 0,0 -0.271,-2.828 -0.946,-3.502 0,0 -2.018,-1.347 -2.962,-1.347 -0.94,0 -0.134,-0.4 -0.134,-0.4 0,0 -3.096,0.266 -3.633,0.672 0,0 -4.042,-0.406 -4.445,-2.693 0,0 3.099,2.021 4.982,1.748"
         id="path13" />
      <path
         d="m 250.816,143.519 c 0,0 -4.042,-6.866 5.654,-9.691 0,0 4.894,-1.404 5.945,-1.24 0,0 0.076,-1.947 3.662,-3.113 0,0 0.052,-2.517 6.398,-3.794 0,0 5.269,-0.066 6.48,2.087 l 2.963,2.019 c 0,0 3.766,0.136 4.169,0 l -4.304,0.539 -3.366,-2.153 c 0,0 -4.176,-1.617 -6.869,-0.54 0,0 -3.234,0.945 -4.578,2.29 0,0 -2.692,2.02 -3.231,2.961 0,0 -6.732,1.886 -6.732,2.827 0,0 -5.654,0.674 -4.848,6.868 z"
         id="path14" />
      <path
         d="m 288.786,177.829 c 0,0 2.553,4.457 9.757,2.038 0,0 1.424,4.326 8.692,2.436 0,0 8.8,2.393 11.128,-3.118 0,0 8.299,0.851 9.196,-3.214 0,0 0.118,-1.476 -4.321,-3.405 0,0 2.57,0.31 2.971,-1.173 l -0.227,-0.961 c 0,0 5.078,-1.602 3.868,-4.294 0,0 -2.427,-3.496 -5.795,-3.902 0,0 5.254,3.501 3.771,5.389 0,0 -2.148,1.345 -4.174,1.477 0,0 0,0.943 -1.212,1.214 0,0 -1.88,3.234 -1.747,3.633 0,0 0.802,3.232 -4.578,3.1 0,0 -1.617,3.364 -7.948,3.497 0,0 -7.726,-0.54 -8.171,-3.033 0,0 -4.211,1.287 -7.443,0.477 0,0 -0.798,0.884 -3.767,-0.161"
         id="path15" />
    </g>
    <path
       d="m 253.236,181.224 7.913,2.054 10.613,5.61 1.368,4.781 -2.068,15.03 3.856,-14.525 -1.942,-6.316 -2.641,-2.06 h -0.808 l -7.542,-3.63 z"
       fill="#7a4d15"
       id="path16" />
    <path
       d="m 269.014,182.594 3.235,-1.353 -0.777,-4.339 1.275,0.068 0.21,2.207 0.288,1.844 -0.141,0.569 z"
       fill="#7a4d15"
       id="path17" />
    <path
       d="m 288.447,178.251 -3.838,6.392 3.337,0.073 1.921,0.07 1.278,-0.5 2.386,-1.923 1.712,-1.556 -0.325,0.024 -2.543,1.66 -2.961,1.479 -2.394,-0.036 -0.78,-0.142 -0.02,0.001 0.095,-0.285 z"
       fill="#7a4d15"
       id="path18" />
    <path
       d="m 284.917,184.082 -4.186,5.537 -0.809,5.269 2.162,-5.136 2.428,-3.24 2.028,-2.025"
       fill="#7a4d15"
       id="path19" />
    <path
       d="m 252.99,254.881 -18.271,-46.955 c 0,0 11.905,1.683 12.787,11.334 0,0 4.641,-5.458 9.317,-2.516 4.66,2.936 2.552,11.316 -1.7,13.836 0,0 -0.842,-5.041 -3.387,-3.783 -2.552,1.244 -1.303,10.902 5.499,10.902 6.803,0 7.226,-5.872 7.226,-5.872 0,0 2.553,5.014 7.633,5.014 5.109,0 5.109,-4.58 5.109,-8.376 0,-3.757 -1.277,-5.855 -3.372,-5.855 -2.155,0 -3.435,2.929 -2.155,5.431 0,0 -8.624,-0.808 -6.351,-9.639 0,0 2.576,-7.29 9.319,-2.498 0,0 -2.122,-7.567 5.537,-12.999 0,0 8.489,5.864 5.95,13.417 0,0 6.376,-4.935 9.345,1.549 3.075,6.757 -5.291,10.015 -5.291,10.015 0,0 1.33,-5.65 -2.35,-5.706 -2.579,-0.029 -2.988,4.201 -2.988,6.717 0,2.504 1.327,7.295 4.667,7.696 5.288,0.641 7.639,-4.332 7.639,-4.332 0,0 0.573,5.231 4.721,6.06 3.711,0.759 8.884,-2.727 9.3,-6.92 0.442,-4.201 -4.894,-10.073 -7.553,-2.216 0,0 -4.762,-9.085 0.769,-12.863 5.508,-3.763 10.175,2.938 10.175,2.938 0,0 0.44,-11.74 11.477,-10.491 l -17.426,46.542 c 0,0 -12.73,-4.181 -28.026,-4.181 -15.265,0 -27.6,3.751 -27.6,3.751"
       fill="#9e8b4f"
       id="path20" />
  </g>
  <path
     d="m 32.908,133.947 c -1.618,0.07 -3.608,0.37 -4.63,1.323 -1.632,1.504 -4.066,5.149 -4.3,10.253 -0.214,4.756 0.479,6.638 0.827,7.441 0.34,0.825 1.665,0.726 2.481,0.496 0.816,-0.225 3.234,-1.663 3.803,-2.48 0.584,-0.821 0.844,-1.361 0.661,-2.646 -0.384,-2.886 0.72,-10.212 3.969,-13.229 0,0 0.49,-0.738 0.166,-0.992 0,0 -1.359,-0.236 -2.977,-0.166 z m 5.126,1.158 c -0.159,0.092 -0.214,0.324 -0.33,0.496 -0.487,0.673 -0.809,1.243 -1.489,3.142 -0.742,2.015 1.985,2.48 1.985,2.48 9.959,3.388 11.079,10.088 11.079,10.088 0.489,-9.507 -7.06,-14.567 -8.764,-15.545 -1.28,-0.733 -2.003,-0.937 -2.481,-0.661 z m -12.568,0.661 c -9.55,6.159 -8.399,15.643 -7.772,18.191 0.588,2.464 3.374,1.951 4.631,1.488 0.927,-0.321 1.138,-1.238 0.661,-2.15 -0.454,-0.943 -1.186,-3.526 -0.827,-8.103 0.429,-5.252 3.638,-9.095 3.638,-9.095 0,0 0.123,-0.638 -0.331,-0.331 z m 10.419,6.946 c -0.94,0.084 -1.644,0.712 -1.819,1.323 -0.247,0.814 -0.744,2.293 -0.662,3.803 0.077,1.703 1.984,2.15 1.984,2.15 11.182,5.343 10.584,9.756 10.584,9.756 3.121,-2.894 3.409,-7.001 0.661,-10.583 -3.045,-3.995 -8.257,-5.709 -9.756,-6.284 -0.376,-0.149 -0.679,-0.193 -0.992,-0.165 z m -1.985,9.26 c -0.781,-0.032 -1.157,0.331 -1.157,0.331 -8.915,7.716 -14.057,4.796 -14.057,4.796 3.926,10.592 17.959,1.199 19.018,0.496 1.041,-0.672 1.64,-1.811 0.826,-2.977 -0.805,-1.17 -2.362,-1.898 -3.638,-2.48 -0.322,-0.144 -0.731,-0.155 -0.992,-0.166 z m 7.442,5.457 c -0.7,0.107 -1.323,0.662 -1.323,0.662 -9.345,7.652 -15.71,5.291 -15.71,5.291 11.139,7.202 18.918,-0.864 19.679,-1.488 1.157,-0.943 0.33,-1.984 0.33,-1.984 0,0 -1.084,-1.662 -2.315,-2.315 -0.259,-0.131 -0.428,-0.201 -0.661,-0.166 z"
     fill="#9e8b4f"
     id="path21" />
  <path
     d="m 132.459,210.677 c -2.858,0.532 -5.218,0.85 -7.938,0.993 0.224,0.295 0.632,0.925 0.827,1.488 0.986,-0.114 2.614,-0.445 3.142,-0.496 l -1.984,6.614 c -0.762,2.592 -1.727,5.279 -2.15,6.45 0.63,0.131 1.368,0.153 1.984,0.33 0.616,0.183 1.218,0.433 1.819,0.662 0.822,-3.237 1.252,-4.939 1.985,-7.442 l 0.33,-1.322 c 0.693,-2.366 1.624,-5.116 2.316,-6.946 z m 37.373,0 c -0.795,-0.046 -1.707,0.038 -2.812,0.331 -2.795,0.74 -4.01,2.451 -4.134,4.3 0.755,0.328 1.374,0.566 2.15,0.992 h 0.331 c -0.348,-1.215 -0.443,-3.666 1.323,-4.134 1.22,-0.322 2.625,0.245 3.307,2.811 0.823,3.106 -0.249,6.514 -3.969,12.237 l 0.166,0.992 c 1.705,-0.502 3.408,-1.035 5.126,-1.488 1.791,-0.474 3.652,-0.893 5.457,-1.323 -0.161,-0.51 -0.36,-0.97 -0.496,-1.488 -0.139,-0.519 -0.217,-0.966 -0.331,-1.489 -2.2,0.758 -4.543,1.367 -6.78,1.985 v -0.166 c 4.299,-6.131 5.015,-8.51 4.465,-10.583 -0.361,-1.361 -1.42,-2.838 -3.803,-2.977 z m -27.451,1.985 c -3.49,-0.36 -5.788,1.738 -6.119,4.961 -0.315,3.074 1.651,4.872 4.134,5.126 1.818,0.186 2.781,-0.444 3.473,-1.157 v 0.165 c -0.606,4.69 -2.879,6.485 -4.796,6.284 -1.128,-0.114 -1.794,-0.662 -2.315,-1.158 l -0.165,0.166 c 0.196,0.508 0.372,1.012 0.496,1.488 0.364,0.332 1.229,0.596 1.819,0.661 4.644,0.473 8.129,-2.889 8.765,-9.095 0.464,-4.531 -1.706,-7.077 -5.292,-7.441 z m 12.402,0.331 c -2.733,0.211 -3.883,1.098 -4.63,2.645 0.608,0.491 1.306,0.966 1.819,1.489 h 0.331 c 0.046,-1.616 0.483,-3.028 1.984,-3.142 1.156,-0.091 2.15,0.698 2.315,2.811 0.166,2.164 -0.557,3.488 -2.48,3.638 -0.221,0.015 -0.416,0.006 -0.662,0 l 0.166,1.158 c 0.37,-0.053 0.762,0.025 1.157,0 1.723,-0.138 2.813,1.192 2.977,3.307 0.159,2.062 -0.903,3.517 -2.481,3.638 -1.55,0.123 -2.474,-1.183 -2.811,-2.646 h -0.331 c -0.389,0.739 -0.975,1.57 -1.488,2.315 0.866,0.959 2.466,1.696 5.127,1.489 3.099,-0.24 6.025,-2.424 5.787,-5.458 -0.213,-2.792 -1.636,-3.479 -4.299,-3.638 l -0.166,-0.165 c 2.089,-0.894 3.293,-2.218 3.142,-4.134 -0.159,-2.088 -1.64,-3.604 -5.457,-3.307 z m -12.237,0.826 c 1.253,0.132 1.964,1.268 1.654,4.3 -0.263,2.543 -1.4,3.417 -2.481,3.307 -1.178,-0.12 -1.942,-1.157 -1.653,-3.969 0.247,-2.401 1.153,-3.773 2.48,-3.638 z"
     fill="#9e8b4f"
     fill-rule="nonzero"
     id="path22" />
</svg>
