<?xml version="1.0" encoding="UTF-8" standalone="no"?>
<svg
   clip-rule="evenodd"
   fill-rule="evenodd"
   stroke-linejoin="round"
   stroke-miterlimit="2"
   viewBox="0 0 270 233.92999"
   version="1.1"
   id="svg5"
   sodipodi:docname="Wolves.svg"
   width="270"
   height="233.92999"
   xmlns:inkscape="http://www.inkscape.org/namespaces/inkscape"
   xmlns:sodipodi="http://sodipodi.sourceforge.net/DTD/sodipodi-0.dtd"
   xmlns="http://www.w3.org/2000/svg"
   xmlns:svg="http://www.w3.org/2000/svg">
  <defs
     id="defs5" />
  <sodipodi:namedview
     id="namedview5"
     pagecolor="#ffffff"
     bordercolor="#000000"
     borderopacity="0.25"
     inkscape:showpageshadow="2"
     inkscape:pageopacity="0.0"
     inkscape:pagecheckerboard="0"
     inkscape:deskcolor="#d1d1d1" />
  <g
     fill-rule="nonzero"
     id="g5"
     transform="translate(-145,-83.035)">
    <path
       d="M 212.5,316.965 145,200 212.5,83.035 h 135 L 415,200 347.5,316.965 Z"
       fill="#231f20"
       id="path1" />
    <path
       d="M 225.473,294.447 170.945,200 225.473,105.553 H 334.527 L 389.055,200 334.527,294.447 Z"
       fill="#fdb913"
       id="path2" />
    <path
       d="M 226.633,292.496 H 333.42 L 386.787,200 333.367,107.504 H 226.633 L 173.213,200 Z m 109.002,3.955 H 224.365 L 168.678,200 l 0.58,-1.002 55.107,-95.449 h 111.322 l 0.581,1.002 55.107,95.449 z"
       fill="#ffffff"
       id="path3" />
    <path
       d="m 264.338,155.914 h 31.219 l 16.664,-41.818 45.088,91.652 -48.78,28.846 -15.662,51.31 h -25.734 l -15.61,-51.416 -48.832,-28.74 45.036,-91.652 z"
       fill="#231f20"
       id="path4" />
    <path
       d="m 270.771,212.34 -22.992,-24.68 v 24.68 z m 41.45,-24.68 v 24.68 h -23.045 z"
       fill="#ffffff"
       id="path5" />
  </g>
</svg>
