<?xml version="1.0" encoding="UTF-8" standalone="no"?>
<!-- Generator: Adobe Illustrator 15.0.2, SVG Export Plug-In . SVG Version: 6.00 Build 0)  -->

<svg
   xmlns:dc="http://purl.org/dc/elements/1.1/"
   xmlns:cc="http://creativecommons.org/ns#"
   xmlns:rdf="http://www.w3.org/1999/02/22-rdf-syntax-ns#"
   xmlns:svg="http://www.w3.org/2000/svg"
   xmlns="http://www.w3.org/2000/svg"
   xmlns:sodipodi="http://sodipodi.sourceforge.net/DTD/sodipodi-0.dtd"
   xmlns:inkscape="http://www.inkscape.org/namespaces/inkscape"
   version="1.1"
   id="Capa_1"
   x="0px"
   y="0px"
   width="174.39999"
   height="252.3"
   viewBox="0 0 174.39999 780.55313"
   xml:space="preserve"
   inkscape:version="0.48.4 r9939"
   sodipodi:docname="cd_xerez.svg"><metadata
   id="metadata229"><rdf:RDF><cc:Work
       rdf:about=""><dc:format>image/svg+xml</dc:format><dc:type
         rdf:resource="http://purl.org/dc/dcmitype/StillImage" /></cc:Work></rdf:RDF></metadata><defs
   id="defs227" /><sodipodi:namedview
   pagecolor="#ffffff"
   bordercolor="#666666"
   borderopacity="1"
   objecttolerance="10"
   gridtolerance="10"
   guidetolerance="10"
   inkscape:pageopacity="0"
   inkscape:pageshadow="2"
   inkscape:window-width="1920"
   inkscape:window-height="1018"
   id="namedview225"
   showgrid="false"
   fit-margin-top="0"
   fit-margin-left="0"
   fit-margin-right="0"
   fit-margin-bottom="0"
   inkscape:zoom="3.1747919"
   inkscape:cx="87.199997"
   inkscape:cy="126.15"
   inkscape:window-x="-8"
   inkscape:window-y="-8"
   inkscape:window-maximized="1"
   inkscape:current-layer="Capa_1" />
<path
   d="m 353.66708,92.080538 c -1.008,-3.312 -3.096,-6.408 -5.76,-8.712 -1.656,-1.368 -3.456,-2.52 -5.472,-3.24 -0.648,-0.216 -1.152,-0.432 -1.728,-0.576 -10.872,-3.096 -17.352,4.464 -20.664,14.4 -2.376,-2.376 -4.896,-4.248 -7.632,-5.616 -3.384,-1.656 -7.056,-2.52 -11.232,-2.592 h -0.648 l -0.432,0.648 c -3.384,5.832 -4.104,11.16 -2.664,16.200002 0.936,3.096 2.736,6.048 5.328,8.856 -2.376,-0.288 -4.824,0.072 -7.272,1.008 -4.464,1.656 -9,5.184 -13.536,9.432 l -1.44,1.368 1.872,0.72 c 7.488,2.664 10.944,6.984 11.664,11.016 0.216,1.512 0.072,3.024 -0.432,4.392 -0.432,1.296 -1.296,2.448 -2.448,3.384 -2.448,2.016 -6.408,2.592 -10.944,0.432 -3.024,-1.368 -5.04,-4.68 -6.192,-9.504 -1.944,-8.208 -0.648,-16.128 -0.72,-24.408 -6.192,6.48 -10.8,13.32 -18.576,18.216 -5.616,3.528 -11.592,5.256 -18.288,4.752 -7.272,-0.504 -11.448,-3.24 -13.464,-7.488 -1.584,-3.384 -1.872,-7.704 -1.368,-12.6 1.584,3.24 3.6,5.76 5.832,7.704 3.24,2.808 7.056,4.392 11.376,5.328 l 0.864,0.144 0.432,-0.72 c 2.016,-3.6 2.952,-6.696 3.096,-9.576 0.072,-1.872 -0.216,-3.672 -0.792,-5.4 1.8,0.648 3.672,1.08 5.544,1.224 2.952,0.288 6.048,-0.072 9.504,-1.368 l 0.72,-0.288 0.072,-0.792 c 0.36,-3.816 -0.288,-7.2 -1.656,-10.296002 -0.936,-2.16 -2.232,-4.104 -3.816,-5.976 2.52,0 4.896,-0.36 7.056,-1.08 3.024,-1.152 5.616,-3.168 7.632,-6.48 l 0.216,-0.432 -0.144,-0.504 c -0.936,-3.384 -2.88,-5.832 -5.472,-7.632 -1.872,-1.224 -4.032,-2.16 -6.408,-2.808 2.376,-1.512 4.248,-3.312 5.688,-5.256 1.944,-2.736 3.024,-5.832 3.24,-9.36 v -0.648 l -0.504,-0.36 c -3.24,-2.376 -6.48,-3.456 -9.864,-3.672 -2.52,-0.144 -5.112,0.216 -7.704,0.936 1.224,-4.176 1.512,-7.704 1.152,-10.584 -0.576,-3.528 -2.16,-6.192 -4.608,-8.064 l -0.72,-0.288 c -3.096,-0.072 -5.904,1.008 -8.568,3.168 -2.088,1.656 -4.032,4.104 -5.832,7.128 -1.44,-2.808 -3.168,-5.184 -5.184,-7.056 -2.52,-2.304 -5.544,-3.888 -9,-4.536 l -0.648,-0.144 -0.432,0.432 c -2.232,1.944 -3.96,4.392 -4.824,7.776 -0.72,2.592 -0.936,5.688 -0.576,9.36 -1.728,-1.224 -3.528,-2.16 -5.4,-2.592 -2.88,-0.792 -6.048,-0.576 -9.432,0.792 l -0.576,0.576 c -1.584,2.808 -1.872,5.904 -1.008,9.216 0.648,2.52 1.944,5.112 3.96,7.92 -2.592,-0.216 -4.896,0 -7.056,0.648 -2.952,1.008 -5.4,2.88 -7.2,5.832 l -0.288,0.432 0.144,0.504 c 0.792,3.024 2.376,5.472 4.464,7.488 1.44,1.368 3.168,2.52 5.112,3.384 -1.944,0.936 -3.672,2.16 -5.184,3.744 -2.16,2.304 -3.672,5.328 -4.32,9.359994 l -0.144,0.648008 0.576,0.504 c 3.96,3.168 7.992,4.536 12.168,4.608 3.6,0.144 7.272,-0.792 11.016,-2.376 0.936,4.104 0.36,7.632 -1.152,10.512 -1.08,2.016 -2.664,3.744 -4.608,5.184 -1.944,1.368 -4.248,2.448 -6.696,3.168 -5.976,1.8 -12.816,1.368 -17.928,-1.296 -5.112,-2.736 -8.64,-6.408 -10.8,-11.16 -3.24,-6.84 -2.664,-13.824002 -2.952,-21.168002 -5.256,7.56 -8.856,14.400002 -16.56,20.160002 -5.472,4.104 -11.664,6.768 -17.856,7.128 -5.616,0.36 -10.944,-1.44 -15.264,-4.608 -3.096,-2.304 -5.616,-5.256 -7.416,-8.712 3.888,3.312 7.704,5.4 11.448,6.552 5.184,1.44 10.152,1.008 15.048,-0.936 l 0.648,-0.288 0.144,-0.648 c 0.864,-4.536 0,-8.424008 -1.656,-12.024002 -1.224,-2.664 -2.952,-5.112 -4.752,-7.56 3.528,0.144 6.696,-0.36 9.504,-1.368 3.528,-1.368 6.552,-3.672 9,-6.84 l 0.432,-0.576 -0.288,-0.648 c -1.728,-4.032 -4.104,-7.056 -6.984,-9.288 -2.232,-1.728 -4.68,-3.024 -7.344,-4.032 3.384,-2.376 6.192,-4.896 8.28,-7.56 2.592,-3.312 4.104,-6.912 4.392,-10.8 v -0.648 l -0.504,-0.432 c -3.096,-2.304 -6.696,-3.816 -10.584,-4.464 -3.024,-0.432 -6.12,-0.432 -9.432,0.144 2.016,-3.456 3.456,-6.84 4.176,-10.08 0.936,-4.176 0.792,-8.208 -0.432,-12.096 l -0.216,-0.648 -0.576,-0.144 c -3.96,-1.224 -7.92,-0.936 -11.88,0.504 -3.384,1.296 -6.696,3.528 -10.008,6.552 -0.432,-5.904 -1.656,-10.656 -3.6,-14.255999 -2.304,-4.1760025 -5.76,-7.0560025 -10.44,-8.0640025 -4.68,1.008 -8.136,3.888 -10.44,8.0640025 -1.944,3.599999 -3.168,8.351999 -3.672,14.255999 -3.24,-3.024 -6.624,-5.256 -10.008,-6.552 -3.888,-1.44 -7.848,-1.728 -11.808,-0.504 l -0.576,0.144 -0.216,0.648 c -1.296,3.888 -1.368,7.92 -0.432,12.096 0.72,3.24 2.088,6.624 4.104,10.08 -3.24,-0.576 -6.408,-0.576 -9.36,-0.144 -3.888,0.648 -7.488,2.16 -10.584,4.464 l -0.576,0.432 0.072,0.648 c 0.288,3.888 1.8,7.488 4.392,10.8 2.088,2.664 4.896,5.184 8.28,7.56 -2.664,1.008 -5.184,2.304 -7.344,4.032 -2.88,2.232 -5.328,5.256 -6.984,9.288 l -0.288,0.648 0.432,0.576 c 2.448,3.168 5.4,5.472 9,6.84 2.808,1.008 5.976,1.512 9.432,1.368 -1.728,2.448 -3.456,4.896 -4.68,7.56 -1.656,3.599994 -2.52,7.488002 -1.656,12.024002 l 0.144,0.648 0.576,0.288 c 4.896,1.944 9.936,2.376 15.048,0.936 3.816,-1.152 7.632,-3.24 11.52,-6.552 -1.8,3.456 -4.392,6.408 -7.416,8.712 -4.32,3.168 -9.648,4.968 -15.336,4.608 -6.12,-0.36 -12.312,-3.024 -17.784,-7.128 -7.704,-5.76 -11.376,-12.600002 -16.56,-20.160002 -0.288,7.344 0.216,14.328002 -2.952,21.168002 -2.2320002,4.752 -5.7600002,8.424 -10.80000018,11.16 -5.11200002,2.664 -11.95199982,3.096 -17.92799982,1.296 -2.448,-0.72 -4.752,-1.8 -6.696,-3.168 -1.944,-1.44 -3.528,-3.168 -4.68,-5.184 -1.512,-2.88 -2.016,-6.408 -1.08,-10.512 3.672,1.584 7.344,2.448 11.016,2.376 4.176,-0.072 8.208,-1.44 12.1679998,-4.608 l 0.504,-0.504 -0.072,-0.648008 c -0.648,-4.031994 -2.16,-7.055994 -4.3919998,-9.359994 -1.44,-1.584 -3.168,-2.808 -5.184,-3.744 1.944,-0.864 3.672,-2.016 5.184,-3.384 2.0879998,-2.016 3.5999998,-4.464 4.4639998,-7.488 l 0.144,-0.504 -0.288,-0.432 c -1.8,-2.952 -4.2479998,-4.824 -7.2719998,-5.832 -2.088,-0.648 -4.464,-0.864 -7.056,-0.648 2.016,-2.808 3.384,-5.4 4.032,-7.92 0.864,-3.312 0.504,-6.408 -1.008,-9.216 l -0.648,-0.576 c -3.384,-1.368 -6.48,-1.584 -9.36,-0.792 -1.944,0.432 -3.744,1.368 -5.4,2.592 0.36,-3.672 0.144,-6.768 -0.576,-9.36 -0.936,-3.384 -2.664,-5.832 -4.824,-7.776 l -0.504,-0.432 -0.576,0.144 c -3.456,0.648 -6.48,2.16 -9,4.536 -2.016,1.872 -3.744,4.248 -5.184,7.056 -1.8,-3.024 -3.744,-5.472 -5.832,-7.128 -2.664,-2.16 -5.472,-3.24 -8.568,-3.168 l -0.72,0.288 c -2.448,1.872 -4.104,4.464 -4.608,8.064 -0.432,2.88 -0.072,6.408 1.152,10.584 -2.592,-0.72 -5.184,-1.08 -7.776,-0.936 -3.312,0.216 -6.624,1.296 -9.792,3.672 l -0.504,0.36 v 0.648 c 0.144,3.528 1.224,6.624 3.24,9.36 1.368,1.944 3.312,3.744 5.688,5.256 -2.448,0.648 -4.608,1.584 -6.408,2.808 -2.664,1.8 -4.608,4.248 -5.544,7.632 l -0.144,0.504 0.288,0.432 c 1.944,3.312 4.536,5.328 7.632,6.48 2.16,0.72 4.464,1.08 6.984,1.08 -1.512,1.872 -2.808,3.816 -3.744,5.976 -1.368,3.096002 -2.016,6.480002 -1.728,10.296002 l 0.072,0.792 0.72,0.288 c 3.528,1.296 6.624,1.656 9.576,1.368 1.872,-0.144 3.744,-0.576 5.472,-1.224 -0.576,1.728 -0.792,3.528 -0.72,5.4 0.072,2.88 1.08,5.976 3.096,9.576 l 0.432,0.72 0.864,-0.144 c 4.32,-0.936 8.136,-2.592 11.304,-5.328 2.304,-1.944 4.248,-4.464 5.904,-7.704 0.504,4.896 0.144,9.216 -1.44,12.6 -1.944,4.248 -6.12,6.984 -13.392,7.488 -6.696,0.504 -12.672,-1.224 -18.288,-4.752 -7.776,-4.896 -12.456,-11.736 -18.576,-18.216 -0.072,8.28 1.224,16.2 -0.719996,24.408 -1.152004,4.824 -3.168004,8.136 -6.192004,9.504 -4.608,2.16 -8.496,1.584 -11.016,-0.432 -1.08,-0.936 -1.944,-2.088 -2.448,-3.384 -0.504,-1.368 -0.648,-2.88 -0.36,-4.392 0.648,-4.032 4.176,-8.352 11.664,-11.016 l 1.872,-0.72 -1.44,-1.368 c -4.536,-4.248 -9.072,-7.776 -13.608,-9.432 -2.376,-0.936 -4.824,-1.296 -7.2,-1.008 2.592,-2.808 4.392,-5.76 5.328,-8.856 1.44,-5.040002 0.72,-10.368002 -2.736,-16.200002 l -0.36,-0.648 h -0.72 c -4.104,0.072 -7.848,0.936 -11.16,2.592 -2.808,1.368 -5.328,3.24 -7.632,5.616 -3.312,-9.936 -9.792,-17.496 -20.664,-14.4 -0.576,0.144 -1.152,0.36 -1.728,0.576 -2.016,0.72 -3.888,1.872 -5.472,3.24 -2.664,2.304 -4.752,5.4 -5.76,8.712 -1.08,3.384 -1.08,7.055994 0.216,10.584002 0.648,1.656 1.584,3.384 2.952,4.896 2.304,2.736 5.256,3.888 8.64,3.888 2.88,-0.072 6.12,-1.008 9.504,-2.592 0.648,1.512 1.296,3.024 2.016,4.536 -3.672,2.88 -5.976,7.344 -5.976,12.384 0,4.392 1.8,8.352 4.68,11.232 2.88,2.88 6.84,4.68 11.16,4.68 2.304,0 4.464,-0.504 6.408,-1.368 0.648,7.704 2.808,14.04 6.84,18.432 3.229,3.528 7.671,5.69 13.449,6.289 -3.499,1.053 -6.998,2.116 -10.498,3.215 l -0.216,0.072 c -4.608,2.16 -7.056,5.976 -7.704,9.936 -0.36,2.088 -0.216,4.248 0.36,6.192 0.576,2.016 1.656,3.888 3.024,5.328 2.448,2.592 6.048,4.032 10.44,3.312 l 0.216,-0.072 c 1.08,-0.36 2.16,-0.72 3.168,-1.08 l -16.2,23.256 -0.648,0.864 1.008,0.288 27.576,7.632 c -1.44,0.504 -2.88,1.008 -4.392,1.512 -6.552,2.232 -9.792,6.768 -10.44,11.52 -0.36,2.016 -0.144,4.032 0.36,5.976 0.576,1.944 1.512,3.744 2.808,5.256 2.088,2.52 5.04,4.248 8.568,4.536 v 326.88 c 0,109.512 89.568,199.08 199.08,199.08 109.44,0 199.08,-89.568 199.08,-199.08 v -326.88 c 3.528,-0.288 6.48,-2.016 8.568,-4.536 1.224,-1.512 2.232,-3.312 2.736,-5.256 0.576,-1.944 0.72,-3.96 0.432,-5.976 -0.72,-4.752 -3.888,-9.288 -10.44,-11.52 -1.512,-0.504 -2.952,-1.008 -4.464,-1.512 l 27.576,-7.632 1.08,-0.288 -0.648,-0.864 -16.272,-23.256 c 1.08,0.36 2.16,0.72 3.168,1.08 l 0.288,0.072 c 4.392,0.72 7.992,-0.72 10.44,-3.312 1.368,-1.44 2.376,-3.312 2.952,-5.328 0.576,-1.944 0.72,-4.104 0.432,-6.192 -0.72,-3.96 -3.168,-7.776 -7.704,-9.936 l -0.216,-0.072 c -3.506,-1.099 -7.008,-2.161 -10.51,-3.213 5.784,-0.597 10.23,-2.76 13.462,-6.291 4.032,-4.392 6.192,-10.728 6.84,-18.432 1.944,0.864 4.104,1.368 6.336,1.368 4.392,0 8.352,-1.8 11.232,-4.68 2.88,-2.88 4.68,-6.84 4.68,-11.232 0,-5.04 -2.376,-9.504 -5.976,-12.384 0.72,-1.512 1.368,-3.024 1.944,-4.536 3.456,1.584 6.696,2.52 9.576,2.592 3.384,0 6.336,-1.152 8.64,-3.888 1.368,-1.512 2.304,-3.24 2.952,-4.896 1.297,-3.528008 1.297,-7.200002 0.217,-10.584002 z m -202.104,29.664002 c 2.232,5.616 5.184,9.72 8.928,12.816 0.989,0.802 2.039,1.516 3.139,2.161 -9.601,-1.245 -19.181,-2.294 -28.738,-3.137 2.836,-0.764 5.359,-1.848 7.599,-3.199 3.816,-2.305 6.768,-5.257 9.072,-8.641 z m -137.52,12.816 c 3.744,-3.096 6.696,-7.2 8.856,-12.816 2.376,3.384 5.328,6.336 9.144,8.64 2.238,1.35 4.759,2.434 7.592,3.197 -9.57,0.844 -19.157,1.894 -28.762,3.141 1.104,-0.645 2.163,-1.36 3.17,-2.162 z m -108.072,22.68 c 4.176,-3.816 7.272,-8.856 8.352,-14.904 0.432,0.72 0.864,1.368 1.368,2.016 3.174,4.151 7.389,6.683 12.063,7.932 -7.602,1.839 -15.211,3.785 -22.827,5.849 0.354,-0.29 0.703,-0.586 1.044,-0.893 z m 51.13,-11.521 c 0.262,-0.19 0.525,-0.38 0.782,-0.575 2.808,-2.088 4.824,-5.04 6.264,-8.64 1.008,-2.52 1.728,-5.328 2.16,-8.424 3.384,5.328 7.56,8.784 12.456,10.872 1.807,0.768 3.716,1.309 5.703,1.688 -4.704,0.785 -9.412,1.611 -14.126,2.488 -4.41,0.823 -8.823,1.69 -13.239,2.591 z m 112.31,-14.111 c -1.706,0.075 -3.412,0.16 -5.119,0.248 2.624,-1.11 5.101,-2.501 7.422,-4.136 6.408,-4.536 11.664,-10.944 15.552,-18.144 3.888,7.2 9.072,13.608 15.552,18.144 2.322,1.636 4.8,3.027 7.424,4.137 -1.707,-0.088 -3.414,-0.174 -5.12,-0.249 -11.879,-0.576 -23.831,-0.576 -35.711,0 z m 120.655,9.032 c 1.987,-0.379 3.897,-0.92 5.705,-1.688 4.896,-2.088 9.072,-5.544 12.456,-10.872 0.432,3.096 1.152,5.904 2.16,8.424 1.44,3.6 3.456,6.552 6.264,8.64 0.257,0.196 0.521,0.386 0.783,0.576 -4.416,-0.901 -8.829,-1.77 -13.239,-2.592 -4.714,-0.877 -9.423,-1.703 -14.129,-2.488 z m 56.705,11.647 c 4.676,-1.248 8.885,-3.781 12,-7.935 0.504,-0.648 1.008,-1.296 1.44,-2.016 1.08,6.048 4.104,11.088 8.352,14.904 0.345,0.311 0.699,0.612 1.058,0.905 -7.626,-2.067 -15.242,-4.016 -22.85,-5.858 z"
   id="path3"
   inkscape:connector-curvature="0" />
<path
   d="m -74.22892,177.83254 c -14.04,3.888 -28.08,8.136 -41.976,12.744 l 34.416,5.112 1.368,0.216 -0.864,1.08 -20.592,24.768 c 11.448,-3.744 22.824,-7.2 34.128,-10.368 -0.72,-0.432 -1.368,-0.936 -1.944,-1.512 l 0,0 c -1.872,-1.872 -3.024,-4.464 -3.024,-7.344 0,-2.736 1.08,-5.184 2.808,-7.056 -1.944,-0.432 -3.672,-1.368 -4.968,-2.736 l 0,0 c -1.872,-1.8 -3.024,-4.392 -3.024,-7.128 0,-3.096 1.44,-5.904 3.672,-7.776 z"
   id="path5"
   inkscape:connector-curvature="0"
   style="fill:#ffca00" />
<path
   d="m 23.97908,157.74454 c -17.4240002,2.304 -34.704,5.256 -51.912,8.856 -12.744,2.664 -25.416,5.688 -38.016,9 2.088,0.36 3.96,1.368 5.4,2.808 l 0,0 c 1.8,1.872 2.952,4.392 2.952,7.2 0,2.592 -1.008,5.04 -2.664,6.84 2.016,0.432 3.744,1.368 5.184,2.808 l 0,0 c 1.872,1.872 3.024,4.464 3.024,7.272 0,1.8 -0.504,3.528 -1.296,5.04 13.968,-3.6 27.864,-6.768 41.688,-9.432 12.8879998,-2.448 25.488,-4.464 37.872,-6.048 -0.504,-0.288 -0.936,-0.648 -1.296,-1.08 l 0,0 c -1.8,-1.8 -2.952,-4.32 -2.952,-7.128 0,-3.744 2.088,-7.056 5.184,-8.784 -1.8,-0.432 -3.384,-1.368 -4.608,-2.592 l 0,0 c -1.728,-1.729 -2.808,-4.176 -2.808,-6.768 0,-3.312 1.656,-6.264 4.248,-7.992 z"
   id="path7"
   inkscape:connector-curvature="0"
   style="fill:#ffca00" />
<path
   d="m -37.14892,174.23254 34.9199998,-7.056 c 3.312,-0.648 6.624,0.072 9.216,1.872 2.664,1.728 4.6080002,4.464 5.3280002,7.848 0.648,3.312 -0.072,6.624 -1.872,9.216 -1.7280002,2.664 -4.4640002,4.608 -7.8480002,5.328 l -34.9199998,6.984 c -3.312,0.72 -6.624,-0.072 -9.216,-1.8 -2.664,-1.8 -4.608,-4.536 -5.328,-7.848 -0.648,-3.312 0.144,-6.624 1.872,-9.288 1.728,-2.664 4.536,-4.608 7.848,-5.256 z"
   id="path9"
   inkscape:connector-curvature="0" />
<path
   d="m 84.17108,152.70454 c -4.752,0.072 -9.576,0.216 -14.328,0.576 -12.528,0.792 -24.912,1.872 -37.296,3.384 1.368,0.504 2.52,1.296 3.528,2.232 l 0,0 c 1.8,1.8 2.88,4.176 2.88,6.84 0,3.528 -1.944,6.624 -4.824,8.28 1.944,0.432 3.672,1.368 5.04,2.736 l 0,0 c 1.872,1.872 2.952,4.392 2.952,7.128 0,2.592 -0.936,4.896 -2.52,6.696 14.4,-1.44 28.584,-2.232 42.768,-2.376 l -30.528,-15.912 -1.224,-0.648 1.224,-0.72 32.328,-18.216 z"
   id="path11"
   inkscape:connector-curvature="0"
   style="fill:#ffca00" />
<path
   d="m 141.98708,156.66454 c -12.384,-1.512 -24.84,-2.592 -37.296,-3.384 -4.824,-0.36 -9.576,-0.504 -14.328,-0.576 l 32.328,18.216 1.224,0.72 -1.224,0.648 -30.528,15.912 c 14.112,0.144 28.296,0.936 42.768,2.376 -1.584,-1.8 -2.592,-4.104 -2.592,-6.696 0,-2.736 1.152,-5.256 3.024,-7.128 h -0.072 c 1.368,-1.368 3.096,-2.304 5.04,-2.736 -2.808,-1.656 -4.752,-4.752 -4.752,-8.28 0,-2.664 1.08,-5.04 2.808,-6.84 l 0,0 c 1.008,-0.936 2.232,-1.728 3.6,-2.232 z"
   id="path13"
   inkscape:connector-curvature="0"
   style="fill:#ffca00" />
<path
   d="m 240.48308,175.60054 c -12.6,-3.312 -25.272,-6.336 -38.016,-9 -17.208,-3.6 -34.488,-6.552 -51.912,-8.856 2.592,1.728 4.248,4.68 4.248,7.992 0,2.592 -1.08,5.04 -2.808,6.768 l 0,0 c -1.224,1.224 -2.808,2.16 -4.608,2.592 3.096,1.728 5.184,5.04 5.184,8.784 0,2.808 -1.152,5.328 -2.952,7.128 l 0,0 c -0.432,0.432 -0.864,0.792 -1.296,1.08 12.384,1.584 24.912,3.6 37.872,6.048 13.824,2.664 27.72,5.832 41.688,9.432 -0.864,-1.512 -1.296,-3.24 -1.296,-5.04 0,-2.808 1.152,-5.4 3.024,-7.272 l 0,0 c 1.368,-1.44 3.168,-2.376 5.184,-2.808 -1.656,-1.8 -2.664,-4.248 -2.664,-6.84 0,-2.808 1.152,-5.328 2.952,-7.2 l 0,0 c 1.44,-1.44 3.312,-2.448 5.4,-2.808 z"
   id="path15"
   inkscape:connector-curvature="0"
   style="fill:#ffca00" />
<path
   d="m 211.68308,174.23254 c 3.312,0.648 6.048,2.592 7.848,5.256 1.728,2.664 2.52,5.976 1.8,9.288 -0.648,3.313 -2.592,6.048 -5.256,7.848 -2.664,1.728 -5.976,2.52 -9.288,1.8 l -34.92,-6.984 c -3.312,-0.72 -6.048,-2.664 -7.848,-5.328 -1.728,-2.592 -2.448,-5.904 -1.8,-9.216 0.648,-3.384 2.664,-6.12 5.256,-7.848 2.664,-1.8 5.976,-2.52 9.288,-1.872 l 34.92,7.056 z"
   id="path17"
   inkscape:connector-curvature="0" />
<path
   d="m 290.66708,190.57654 c -13.896,-4.608 -27.864,-8.856 -41.904,-12.744 2.232,1.872 3.6,4.68 3.6,7.776 0,2.736 -1.08,5.328 -2.952,7.128 l 0,0 c -1.368,1.368 -3.024,2.304 -4.968,2.736 1.728,1.872 2.808,4.32 2.808,7.056 0,2.88 -1.152,5.472 -3.024,7.344 l 0,0 c -0.576,0.576 -1.224,1.08 -1.944,1.512 11.304,3.168 22.68,6.624 34.056,10.368 l -20.52,-24.768 -0.864,-1.08 1.296,-0.216 34.416,-5.112 z"
   id="path19"
   inkscape:connector-curvature="0"
   style="fill:#ffca00" />
<path
   d="m 277.99508,250.98454 h -381.456 c 31.176,-11.016 62.352,-19.728 93.5279997,-26.063 68.6880003,-14.04 125.7120003,-14.04 194.4000003,0 31.104,6.335 62.28,15.047 93.528,26.063 z"
   id="path21"
   inkscape:connector-curvature="0"
   style="fill:#db2b36" />
<path
   d="m -108.71692,254.08054 v 325.584 c 0,107.784 88.2,195.984 195.984,195.984 107.784,0 195.984,-88.2 195.984,-195.984 v -325.584 h -391.968 z"
   id="path23"
   inkscape:connector-curvature="0"
   style="fill:#ffca00" />
<path
   d="m -89.49292,273.30454 h 353.52 v 306.144 c -0.864,16.416 -2.736,31.464 -6.552,46.08 -3.744,14.616 -9.504,28.656 -17.928,43.056 -9.72,16.56 -22.824,32.184 -38.016,45.36 -14.76,12.744 -31.536,23.112 -48.96,29.808 -21.744,8.28 -43.56,12.456 -65.304,12.456 -21.816,0 -43.56,-4.176 -65.304,-12.456 -17.4960002,-6.696 -34.2,-17.064 -48.96,-29.808 -15.192,-13.176 -28.296,-28.8 -38.016,-45.36 -8.496,-14.4 -14.184,-28.44 -17.928,-43.056 -3.816,-14.616 -5.688,-29.664 -6.552,-46.08 v -306.144 z"
   id="path25"
   inkscape:connector-curvature="0" />
<path
   d="m -34.70092,702.56854 c 3.168,3.168 6.408,6.12 9.72,9.072 14.472,12.456 30.8879998,22.68 48.024,29.232 21.384,8.136 42.84,12.24 64.224,12.24 21.384,0 42.84,-4.104 64.224,-12.24 17.136,-6.552 33.552,-16.776 48.024,-29.232 14.976,-12.96 27.864,-28.368 37.368,-44.568 8.352,-14.184 13.896,-28.008 17.64,-42.336 3.744,-14.328 5.616,-29.16 6.408,-45.432 v -167.4 l -295.632,290.664 z"
   id="path27"
   inkscape:connector-curvature="0"
   style="fill:#0088bc" />
<path
   d="m -41.90092,694.93654 c 1.656,1.872 3.312,3.672 5.04,5.472 l 297.792,-292.752 v -10.512 l -302.832,297.792 z"
   id="path29"
   inkscape:connector-curvature="0"
   style="fill:#ffca00" />
<path
   d="m -86.39692,575.84854 v 3.456 c 0.792,16.272 2.664,31.104 6.408,45.432 3.744,14.328 9.288,28.152 17.64,42.336 5.184,8.856 11.376,17.496 18.432,25.56 l 304.848,-299.736 v -116.496 h -42.696 l -304.632,299.448 z"
   id="path31"
   inkscape:connector-curvature="0"
   style="fill:#ffffff" />
<polygon
   points="132.912,577.168 433.152,281.968 422.568,281.968 132.912,566.728 "
   id="polygon33"
   style="fill:#ffca00"
   transform="translate(-219.30892,-5.5674635)" />
<path
   d="m 18.36308,602.05654 -21.8880002,21.456 c 0.792,-4.608 0.936,-8.784 -2.664,-12.024 l -8.2079998,-7.344 -3.888,23.256 c -0.648,3.816 1.224,5.4 5.256,5.4 l -18.432,18.072 c 4.104,-7.128 5.904,-13.32 7.272,-21.24 l 4.968,-29.736 -22.104,-19.872 c -3.384,-3.024 -8.712,-2.808 -12.816,-1.872 l 23.616,-23.04 c -1.08,4.752 -1.08,11.088 2.952,14.616 l 11.664,10.512 5.76,-34.2 c 0.5759997,-3.528 0.144,-5.976 -3.96,-7.056 l 16.3439998,-15.984 c -3.16799999,6.264 -4.968,11.88 -6.12,18.72 l -7.1999998,42.84 14.9759998,13.392 c 3.816,3.384 9.2880002,5.976 14.4720002,4.104 z"
   id="path35"
   inkscape:connector-curvature="0"
   style="fill:#0088bc" />
<path
   d="m 22.03508,598.24054 v -77.256 c 0,-6.984 -2.448,-8.784 -10.08,-7.488 l 47.952,-47.88 v 34.776 c -1.512,-4.248 -7.416,-19.368 -14.184,-12.24 l -6.984,7.344 v 33.048 l 3.888,-3.888 c 5.76,-5.76 6.84,-13.536 8.208,-21.168 v 40.32 c -1.368,-1.944 -1.728,-10.008 -5.472,-11.88 -1.656,-0.864 -5.472,3.528 -6.624,4.536 v 36.36 l 18.432,-18.432 c 7.92,-7.848 10.584,-23.976 12.528,-34.56 v 30.744 l -47.664,47.664 z"
   id="path37"
   inkscape:connector-curvature="0"
   style="fill:#0088bc" />
<path
   d="m 138.31508,481.81654 v -77.256 c 0,-6.984 -2.448,-8.784 -10.08,-7.488 l 47.952,-47.808 v 34.776 c -1.512,-4.248 -7.416,-19.368 -14.184,-12.24 l -6.984,7.344 v 32.976 l 3.888,-3.888 c 5.832,-5.76 6.84,-13.464 8.208,-21.096 v 40.248 c -1.296,-1.944 -1.728,-10.008 -5.4,-11.88 -1.728,-0.864 -5.472,3.528 -6.696,4.536 v 36.36 l 18.504,-18.432 c 7.848,-7.848 10.512,-23.904 12.528,-34.488 v 30.744 l -47.736,47.592 z"
   id="path39"
   inkscape:connector-curvature="0"
   style="fill:#0088bc" />
<path
   d="m 69.69908,455.75254 c 9.72,-9.648 19.08,-19.224 28.8,-28.8 11.88,-11.016 22.896,-5.832 26.424,4.608 5.112,15.192 -5.976,26.784 -15.912,36.864 l -6.912,6.984 c 1.296,0 6.552,-1.728 12.888,7.776 2.88,4.032 9.288,8.424 12.024,6.336 3.096,-2.376 1.512,-6.264 0.576,-7.992 -2.232,1.944 -7.56,-0.72 -5.472,-5.472 0.792,-1.656 3.672,-3.312 5.688,-2.448 9.072,3.384 4.392,17.208 -1.008,22.176 -6.48,5.832 -18.216,3.168 -25.272,-6.264 -0.936,-1.296 -5.688,-9.216 -8.352,-3.096 v 28.656 c 0,3.744 3.384,6.192 7.272,4.824 l -26.424,26.424 c 3.024,-4.608 3.96,-9.36 3.96,-14.76 v -69.912 c 0,-4.824 -3.528,-6.912 -8.28,-5.904 l 0,0 z m 23.4,-14.976 0.072,37.584 4.248,-4.248 c 8.856,-8.856 16.56,-18.792 13.608,-32.04 -1.728,-7.344 -5.112,-11.52 -13.464,-5.688 l -4.464,4.392 z"
   id="path41"
   inkscape:connector-curvature="0"
   style="fill:#0088bc" />
<path
   d="m 239.90708,344.51254 v 36.144 l -42.48,42.408 17.208,-103.824 -11.232,11.304 c -8.28,9.72 -9,25.848 -10.872,37.368 v -34.848 l 43.128,-43.128 -17.496,103.824 10.368,-10.44 c 7.128,-7.2 9.504,-28.728 11.376,-38.808 z"
   id="path43"
   inkscape:connector-curvature="0"
   style="fill:#0088bc" />
<path
   d="m 118.58708,602.99254 c 0,-7.848 -2.736,-12.168 -9.72,-16.272 h 32.328 c 20.88,0 34.776,8.424 42.264,21.672 4.248,6.984 9.936,8.568 17.64,2.448 v 27.792 h -0.216 c -0.936,-7.632 -5.544,-14.328 -13.104,-19.368 4.032,14.904 3.456,34.704 -3.528,48.528 5.688,-1.296 11.376,-3.6 17.352,-5.256 -5.832,5.904 -14.04,10.728 -23.76,13.968 -7.992,8.784 -20.16,14.04 -36.648,14.04 h -32.328 c 6.048,-3.6 8.856,-7.272 9.576,-13.32 -7.416,-2.16 -13.824,-5.256 -18.936,-9.36 -15.048,-11.952 -18.72,-34.848 -4.968,-49.68 6.192,-6.624 15.48,-10.656 24.048,-13.032 v -2.16 l 0,0 z m 48.528,8.208 c -9.288,-1.872 -19.296,-2.232 -28.728,-0.792 v 61.776 c 4.536,0.72 9.36,1.08 14.4,1.08 3.168,0 6.192,-0.216 9,-0.576 8.568,-15.624 11.952,-44.568 5.328,-61.488 l 0,0 z m -12.168,69.696 c -2.016,0.144 -4.104,0.216 -6.192,0.216 -3.528,0 -6.984,-0.144 -10.368,-0.36 v 3.456 c 6.984,1.368 11.304,1.224 16.56,-3.312 l 0,0 z m -36.36,-15.552 v -48.456 c -1.296,0.72 -2.52,1.512 -3.672,2.304 -12.672,9.216 -13.896,27.792 -4.104,39.528 2.16,2.592 4.752,4.752 7.776,6.624 l 0,0 z m 46.008,-62.136 c -5.4,-8.136 -13.968,-12.672 -26.208,-10.152 v 8.784 c 8.712,-0.504 17.64,-0.072 26.208,1.368 z"
   id="path45"
   inkscape:connector-curvature="0"
   style="fill:#ffffff" />
<path
   d="m 176.83508,298.00054 22.032,-21.6 h -285.264 v 22.536 c 8.424,-3.096 16.776,-5.976 25.344,-5.976 9.216,0 18.288,3.312 27.36,6.696 8.856,3.312 17.712,6.552 26.3519998,6.552 8.712,0 17.5680002,-3.24 26.3520002,-6.552 9.072,-3.384 18.216,-6.696 27.432,-6.696 9.216,0 18.288,3.312 27.36,6.696 8.856,3.312 17.712,6.552 26.352,6.552 8.712,0 17.496,-3.24 26.352,-6.552 9.072,-3.384 18.144,-6.696 27.432,-6.696 7.704,0 15.336,2.304 22.896,5.04 z"
   id="path47"
   inkscape:connector-curvature="0"
   style="fill:#ffffff" />
<path
   d="m 149.76308,324.64054 24.624,-24.192 c -6.84,-2.448 -13.68,-4.464 -20.448,-4.464 -8.712,0 -17.568,3.313 -26.352,6.552 -9.072,3.384 -18.216,6.768 -27.432,6.768 -9.216,0 -18.288,-3.384 -27.36,-6.768 -8.856,-3.24 -17.712,-6.552 -26.352,-6.552 -8.712,0 -17.568,3.313 -26.352,6.552 -9.072,3.384 -18.2160002,6.768 -27.4320002,6.768 -9.2159998,0 -18.2879998,-3.384 -27.3599998,-6.768 -8.856,-3.24 -17.712,-6.552 -26.352,-6.552 -8.352,0 -16.848,3.024 -25.344,6.192 v 28.224 c 8.424,-3.096 16.776,-5.976 25.344,-5.976 9.216,0 18.288,3.384 27.36,6.696 8.856,3.312 17.712,6.552 26.3519998,6.552 8.712,0 17.5680002,-3.24 26.3520002,-6.552 9.072,-3.312 18.216,-6.696 27.432,-6.696 9.216,0 18.288,3.384 27.36,6.696 8.856,3.312 17.712,6.552 26.352,6.552 8.712,0 17.568,-3.24 26.352,-6.552 7.704,-2.808 15.48,-5.688 23.256,-6.48 z"
   id="path49"
   inkscape:connector-curvature="0"
   style="fill:#0088bc" />
<path
   d="m 105.41108,368.27254 40.68,-39.96 c -6.12,1.152 -12.312,3.456 -18.504,5.76 -9.072,3.312 -18.216,6.696 -27.432,6.696 -9.216,0 -18.288,-3.384 -27.36,-6.696 -8.856,-3.312 -17.712,-6.552 -26.352,-6.552 -8.712,0 -17.568,3.24 -26.352,6.552 -9.072,3.312 -18.2160002,6.696 -27.4320002,6.696 -9.2159998,0 -18.2879998,-3.384 -27.3599998,-6.696 -8.856,-3.312 -17.712,-6.552 -26.352,-6.552 -8.352,0 -16.848,3.024 -25.344,6.12 v 27.72 c 8.424,-3.096 16.776,-5.976 25.344,-5.976 9.216,0 18.288,3.384 27.36,6.696 8.856,3.312 17.712,6.552 26.3519998,6.552 8.712,0 17.5680002,-3.24 26.3520002,-6.552 9.072,-3.312 18.216,-6.696 27.432,-6.696 9.216,0 18.288,3.384 27.36,6.696 8.856,3.312 17.712,6.552 26.352,6.552 1.728,0 3.528,-0.144 5.256,-0.36 z"
   id="path51"
   inkscape:connector-curvature="0"
   style="fill:#ffffff" />
<path
   d="m 78.84308,394.33654 23.112,-22.68 c -0.576,0.072 -1.224,0.072 -1.8,0.072 -9.216,0 -18.288,-3.384 -27.36,-6.768 -8.856,-3.24 -17.712,-6.48 -26.352,-6.48 -8.712,0 -17.568,3.24 -26.352,6.48 -9.072,3.384 -18.2160002,6.768 -27.4320002,6.768 -9.2159998,0 -18.2879998,-3.384 -27.3599998,-6.768 -8.856,-3.24 -17.712,-6.48 -26.352,-6.48 -8.352,0 -16.848,3.024 -25.344,6.12 v 27.144 c 8.424,-3.024 16.776,-5.904 25.344,-5.904 9.216,0 18.288,3.312 27.36,6.624 8.856,3.24 17.712,6.552 26.3519998,6.552 8.712,0 17.5680002,-3.312 26.3520002,-6.552 9.072,-3.312 18.216,-6.624 27.432,-6.624 9.216,0 18.288,3.312 27.36,6.624 1.728,0.648 3.384,1.224 5.04,1.872 z"
   id="path53"
   inkscape:connector-curvature="0"
   style="fill:#0088bc" />
<path
   d="m 56.01908,416.72854 20.448,-20.016 c -1.224,-0.432 -2.448,-0.936 -3.672,-1.368 -8.856,-3.24 -17.712,-6.48 -26.352,-6.48 -8.712,0 -17.568,3.24 -26.352,6.48 -9.072,3.384 -18.2160002,6.768 -27.4320002,6.768 -9.2159998,0 -18.2879998,-3.384 -27.3599998,-6.768 -8.856,-3.24 -17.712,-6.48 -26.352,-6.48 -8.352,0 -16.848,2.952 -25.344,6.12 v 26.64 c 8.424,-3.096 16.776,-5.976 25.344,-5.976 9.216,0 18.288,3.384 27.36,6.768 8.856,3.24 17.712,6.552 26.3519998,6.552 8.712,0 17.5680002,-3.312 26.3520002,-6.552 9.072,-3.384 18.216,-6.768 27.432,-6.768 3.168,0 6.408,0.432 9.576,1.08 z"
   id="path55"
   inkscape:connector-curvature="0"
   style="fill:#ffffff" />
<path
   d="m 21.17108,451.07254 32.184,-31.68 c -2.304,-0.432 -4.608,-0.648 -6.912,-0.648 -8.712,0 -17.568,3.24 -26.352,6.552 -9.072,3.384 -18.2160002,6.696 -27.4320002,6.696 -9.2159998,0 -18.2879998,-3.312 -27.3599998,-6.696 -8.856,-3.313 -17.712,-6.552 -26.352,-6.552 -8.352,0 -16.848,3.024 -25.344,6.192 v 26.136 c 8.424,-3.096 16.776,-5.976 25.344,-5.976 9.216,0 18.288,3.384 27.36,6.768 8.856,3.24 17.712,6.552 26.3519998,6.552 8.712,0 17.5680002,-3.312 26.3520002,-6.552 0.72,-0.288 1.44,-0.576 2.16,-0.792 z"
   id="path57"
   inkscape:connector-curvature="0"
   style="fill:#0088bc" />
<path
   d="m -14.97292,486.56854 30.816,-30.312 c -7.7040002,2.808 -15.33600018,5.184 -23.1840002,5.184 -9.2159998,0 -18.2879998,-3.384 -27.3599998,-6.696 -8.856,-3.312 -17.712,-6.552 -26.352,-6.552 -8.352,0 -16.848,3.024 -25.344,6.192 v 25.704 c 8.424,-3.096 16.776,-5.976 25.344,-5.976 9.216,0 18.288,3.312 27.36,6.696 6.264,2.304 12.528,4.608 18.72,5.76 z"
   id="path59"
   inkscape:connector-curvature="0"
   style="fill:#ffffff" />
<path
   d="m -36.86092,508.16854 19.224,-19.008 c -5.688,-1.224 -11.376,-3.384 -17.064,-5.472 -8.856,-3.24 -17.712,-6.552 -26.352,-6.552 -8.352,0 -16.848,3.024 -25.344,6.192 v 25.272 c 8.424,-3.096 16.776,-5.976 25.344,-5.976 8.136,0 16.128,2.592 24.192,5.544 z"
   id="path61"
   inkscape:connector-curvature="0"
   style="fill:#0088bc" />
<path
   d="m -59.82892,530.70454 20.52,-20.16 c -7.272,-2.664 -14.544,-4.896 -21.744,-4.896 -8.352,0 -16.848,3.024 -25.344,6.192 v 24.84 c 8.424,-3.096 16.776,-5.976 25.344,-5.976 0.432,0 0.792,0 1.224,0 z"
   id="path63"
   inkscape:connector-curvature="0"
   style="fill:#ffffff" />
<path
   d="m -86.39692,556.84054 23.4,-23.04 c -7.704,0.432 -15.552,3.24 -23.4,6.12 v 16.92 z"
   id="path65"
   inkscape:connector-curvature="0"
   style="fill:#0088bc" />
<path
   d="m 185.61908,201.16054 c 33.264,6.408 66.888,15.552 101.016,27.216 5.328,1.8 7.848,5.4 8.424,9.072 0.216,1.584 0.072,3.168 -0.36,4.68 -0.432,1.512 -1.152,2.952 -2.16,4.104 -2.16,2.664 -5.688,4.176 -9.792,3.168 -32.544,-11.664 -65.088,-20.808 -97.704,-27.504 -69.696,-14.256 -125.928,-14.256 -195.624,0 -32.544,6.696 -65.088,15.84 -97.632,27.504 -4.104,1.008 -7.632,-0.504 -9.792,-3.168 -1.008,-1.152 -1.8,-2.592 -2.232,-4.104 l 0,0 c -0.432,-1.512 -0.504,-3.096 -0.288,-4.68 0.504,-3.672 3.096,-7.272 8.424,-9.072 34.056,-11.664 67.752,-20.808 101.016,-27.216 68.904,-13.248 127.728,-13.248 196.704,0 z"
   id="path67"
   inkscape:connector-curvature="0"
   style="fill:#ffca00" />
<path
   d="m 87.26708,190.79254 0,0 0,0 z"
   id="path69"
   inkscape:connector-curvature="0"
   style="fill:none;stroke:#000000;stroke-width:0.3053" />
<path
   d="m 69.55508,134.63254 c -32.76,1.44 -65.5920002,5.328 -98.64,11.52 -33.048,6.12 -66.24,14.544 -99.648,25.056 -3.528,1.656 -5.4,4.536 -5.904,7.56 -0.288,1.656 -0.144,3.312 0.288,4.824 0.432,1.584 1.224,2.952 2.304,4.104 1.728,1.872 4.32,2.88 7.56,2.376 31.608,-10.728 63.576,-19.656 95.904,-26.424 32.3999998,-6.768 65.16,-11.376 98.208,-13.464 11.736,-0.72 23.472,-0.72 35.208,0 33.12,2.088 65.88,6.696 98.28,13.464 32.328,6.768 64.296,15.696 95.904,26.424 3.168,0.504 5.76,-0.504 7.56,-2.376 1.08,-1.152 1.8,-2.52 2.232,-4.104 0.504,-1.512 0.576,-3.168 0.288,-4.824 -0.504,-3.024 -2.304,-5.904 -5.832,-7.56 -33.408,-10.512 -66.6,-18.936 -99.648,-25.056 -33.048,-6.192 -65.952,-10.08 -98.64,-11.52 -11.808,-0.504 -23.616,-0.504 -35.424,0 z"
   id="path71"
   inkscape:connector-curvature="0"
   style="fill:#ffca00" />
<path
   d="m -62.42092,195.25654 c -3.96,0 -7.272,3.312 -7.272,7.272 0,2.016 0.864,3.816 2.16,5.184 l 0,0 c 1.296,1.296 3.096,2.088 5.112,2.088 4.032,0 7.272,-3.24 7.272,-7.272 0,-2.016 -0.792,-3.816 -2.088,-5.112 l 0,0 c -1.368,-1.296 -3.168,-2.16 -5.184,-2.16 z"
   id="path73"
   inkscape:connector-curvature="0"
   style="fill:#ffffff" />
<path
   d="m -67.74892,178.55254 c -3.888,0 -7.056,3.168 -7.056,7.056 0,1.944 0.792,3.672 2.088,4.968 l 0,0 c 1.296,1.296 3.024,2.088 4.968,2.088 3.888,0 7.056,-3.168 7.056,-7.056 0,-1.944 -0.792,-3.744 -2.016,-5.04 h -0.072 c -1.224,-1.224 -3.024,-2.016 -4.968,-2.016 z"
   id="path75"
   inkscape:connector-curvature="0"
   style="fill:#ffffff" />
<path
   d="m 32.04308,176.89654 c -3.888,0 -6.984,3.096 -6.984,6.984 0,1.944 0.792,3.672 2.016,4.968 l 0,0 c 1.296,1.296 3.024,2.088 4.968,2.088 3.888,0 7.056,-3.168 7.056,-7.056 0,-1.944 -0.792,-3.672 -2.088,-4.968 l 0,0 c -1.296,-1.224 -3.024,-2.016 -4.968,-2.016 z"
   id="path77"
   inkscape:connector-curvature="0"
   style="fill:#ffffff" />
<path
   d="m 29.30708,159.18454 c -3.6,0 -6.552,2.952 -6.552,6.552 0,1.8 0.792,3.456 1.944,4.608 l 0,0 c 1.152,1.152 2.808,1.872 4.608,1.872 3.6,0 6.552,-2.88 6.552,-6.48 0,-1.8 -0.72,-3.456 -1.944,-4.608 l 0,0 c -1.152,-1.224 -2.808,-1.944 -4.608,-1.944 z"
   id="path79"
   inkscape:connector-curvature="0"
   style="fill:#ffffff" />
<path
   d="m 236.88308,195.25654 c -1.944,0 -3.816,0.864 -5.112,2.16 l 0,0 c -1.296,1.296 -2.16,3.096 -2.16,5.112 0,4.032 3.312,7.272 7.272,7.272 2.016,0 3.816,-0.792 5.184,-2.088 l 0,0 c 1.296,-1.368 2.088,-3.168 2.088,-5.184 0,-3.96 -3.24,-7.272 -7.272,-7.272 z"
   id="path81"
   inkscape:connector-curvature="0"
   style="fill:#ffffff" />
<path
   d="m 242.28308,178.55254 c -1.944,0 -3.744,0.792 -5.04,2.016 l 0,0 c -1.296,1.296 -2.016,3.096 -2.016,5.04 0,3.888 3.168,7.056 7.056,7.056 1.944,0 3.672,-0.792 4.968,-2.088 l 0,0 c 1.296,-1.296 2.088,-3.024 2.088,-4.968 0,-3.888 -3.168,-7.056 -7.056,-7.056 z"
   id="path83"
   inkscape:connector-curvature="0"
   style="fill:#ffffff" />
<path
   d="m 142.49108,176.89654 c -1.944,0 -3.744,0.792 -4.968,2.016 l 0,0 c -1.296,1.296 -2.088,3.024 -2.088,4.968 0,3.888 3.168,7.056 7.056,7.056 1.872,0 3.672,-0.792 4.968,-2.088 l 0,0 c 1.224,-1.296 2.016,-3.024 2.016,-4.968 0,-3.888 -3.168,-6.984 -6.984,-6.984 z"
   id="path85"
   inkscape:connector-curvature="0"
   style="fill:#ffffff" />
<path
   d="m 145.22708,159.18454 c -1.8,0 -3.456,0.72 -4.68,1.944 h 0.072 c -1.224,1.152 -1.944,2.808 -1.944,4.608 0,3.6 2.952,6.48 6.552,6.48 1.8,0 3.384,-0.72 4.608,-1.872 l 0,0 c 1.152,-1.152 1.872,-2.808 1.872,-4.608 0,-3.6 -2.88,-6.552 -6.48,-6.552 z"
   id="path87"
   inkscape:connector-curvature="0"
   style="fill:#ffffff" />
<path
   d="m -36.86092,175.74454 c -2.952,0.576 -5.328,2.304 -6.84,4.608 -1.584,2.304 -2.232,5.184 -1.656,8.136 0.576,2.88 2.304,5.328 4.68,6.84 2.304,1.512 5.184,2.16 8.064,1.584 l 34.9199998,-6.984 c 2.952,-0.576 5.328,-2.304 6.84,-4.608 1.5840002,-2.376 2.2320002,-5.256 1.6560002,-8.136 -0.576,-2.952 -2.3040002,-5.328 -4.6080002,-6.912 -2.304,-1.512 -5.25599998,-2.16 -8.136,-1.584 l -34.9199998,7.056 z"
   id="path89"
   inkscape:connector-curvature="0"
   style="fill:#db2b36" />
<polygon
   points="135.936,202.624 100.872,197.368 84.528,220.768 114.12,228.904 "
   id="polygon91"
   style="fill:#038477"
   transform="translate(-219.30892,-5.5674635)" />
<path
   d="m 211.39508,175.74454 -34.92,-7.056 c -2.952,-0.576 -5.832,0.072 -8.136,1.584 -2.304,1.584 -4.032,3.96 -4.608,6.912 -0.576,2.88 0.072,5.76 1.584,8.136 1.584,2.304 3.96,4.032 6.912,4.608 l 34.848,6.984 c 2.952,0.576 5.832,-0.072 8.136,-1.584 2.304,-1.512 4.032,-3.96 4.608,-6.84 0.648,-2.952 -0.072,-5.832 -1.584,-8.136 -1.512,-2.304 -3.96,-4.032 -6.84,-4.608 z"
   id="path93"
   inkscape:connector-curvature="0"
   style="fill:#db2b36" />
<polygon
   points="528.624,220.768 512.208,197.368 477.144,202.624 499.032,228.904 "
   id="polygon95"
   style="fill:#038477"
   transform="translate(-219.30892,-5.5674635)" />
<polygon
   points="273.096,177.136 306.576,194.632 339.984,177.136 306.576,158.272 "
   id="polygon97"
   style="fill:#038477"
   transform="translate(-219.30892,-5.5674635)" />
<path
   d="m -145.94092,112.31254 c -7.344,0 -13.392,6.048 -13.392,13.464 0,3.672 1.512,7.056 3.96,9.504 2.448,2.376 5.76,3.888 9.432,3.888 7.416,0 13.464,-5.976 13.464,-13.392 0,-3.672 -1.512,-7.056 -3.96,-9.504 -2.448,-2.448 -5.76,-3.96 -9.504,-3.96 z"
   id="path99"
   inkscape:connector-curvature="0"
   style="fill:#db2b36" />
<path
   d="m -49.46092,67.744538 c 7.488,0 13.608,6.048 13.608,13.608 0,7.488 -6.12,13.536 -13.608,13.536 -7.488,0 -13.608,-6.048 -13.608,-13.536 0,-7.56 6.12,-13.608 13.608,-13.608 z"
   id="path101"
   inkscape:connector-curvature="0"
   style="fill:#038477" />
<path
   d="m -128.87692,88.336538 c -2.88,0.288 -5.544,1.08 -7.92,2.232 -3.096,1.512 -5.832,3.672 -8.352,6.552 l -1.512,1.655994 -0.576,-2.159994 c -2.736,-9.576 -8.424,-17.496 -18.288,-14.688 l 0,0 c -0.504,0.144 -1.008,0.288 -1.512,0.504 -1.728,0.648 -3.312,1.584 -4.752,2.808 -2.304,2.016 -4.104,4.68 -5.04,7.56 -0.864,2.88 -0.936,6.047994 0.216,9.000002 0.504,1.44 1.368,2.88 2.52,4.176 1.8,2.088 4.104,3.024 6.768,2.952 2.808,0 6.048,-1.08 9.648,-2.88 l 1.152,-0.576 0.504,1.224 c 0.72,1.8 1.44,3.528 2.232,5.256 2.376,-1.296 5.04,-2.088 7.848,-2.088 1.656,0 3.24,0.288 4.752,0.72 2.088,-8.424 6.552,-15.840002 12.312,-22.248002 z"
   id="path103"
   inkscape:connector-curvature="0"
   style="fill:#ffca00" />
<path
   d="m -134.27692,113.60854 c 4.608,-3.672 7.776,-7.56 9,-11.736 1.152,-3.744002 0.72,-7.848002 -1.44,-12.312002 -5.688,6.336 -10.224,13.608002 -12.168,21.960002 1.584,0.792 2.664,1.512 3.888,2.736 0.144,-0.288 0.432,-0.432 0.72,-0.648 z"
   id="path105"
   inkscape:connector-curvature="0"
   style="fill:#ffca00" />
<path
   d="m -111.88492,121.24054 c -3.384,-2.952 -6.696,-5.256 -10.008,-6.48 -3.888,-1.512 -7.704,-1.368 -11.52,1.224 1.44,1.8 2.448,3.888 2.952,6.12 6.048,-1.584 12.384,-1.728 18.576,-0.864 z"
   id="path107"
   inkscape:connector-curvature="0"
   style="fill:#ffca00" />
<path
   d="m -62.85292,122.32054 c 3.096,-0.864 5.904,-2.232 8.28,-4.32 4.608,-3.96 6.48,-9.072 7.776,-14.688 2.52,6.912 3.744,15.624 0.504,22.536 -2.376,5.04 -7.128,8.28 -15.48,8.928 -7.2,0.504 -13.68,-1.368 -19.728,-5.184 -5.112,-3.24 -9.864,-7.776 -14.544,-13.392 0.36,7.056 0.072,13.176 -1.08,18 -1.296,5.616 -3.744,9.504 -7.56,11.232 -5.544,2.592 -10.368,1.8 -13.536,-0.72 -1.44,-1.224 -2.592,-2.736 -3.24,-4.464 -0.648,-1.728 -0.792,-3.672 -0.504,-5.688 0.648,-3.888 3.456,-7.992 9,-11.016 -5.688,-0.72 -11.52,-0.504 -17.136,1.008 0.072,0.432 0.072,0.792 0.072,1.224 0,5.544 -2.88,10.44 -7.2,13.32 l 0.144,0.288 c 0.432,7.488 2.376,13.608 6.192,17.712 3.384,3.672 8.424,5.76 15.336,5.688 7.272,0 14.616,-2.592 19.872,-7.416 6.048,-5.4 7.776,-11.232 8.28,-19.008 1.872,1.872 2.592,4.176 5.04,6.552 3.312,4.248 7.92,6.696 13.032,7.488 5.256,0.864 11.016,0.072 16.416,-1.944 3.312,-1.296 6.48,-3.096 9.288,-5.256 2.448,-1.8 4.176,-4.392 5.472,-7.632 1.224,-3.096 2.016,-6.768 2.376,-10.872 l -8.424,-26.352008 h -0.072 c 0,-0.144 0,-0.215994 -0.072,-0.215994 l 0,0 c -0.576,-1.224 -2.52,-1.584 -4.608,-1.512 -1.728,0.072 -4.176,-0.072 -4.824,1.583994 l -9.072,24.120008 z"
   id="path109"
   inkscape:connector-curvature="0"
   style="fill:#ffca00" />
<path
   d="m -64.72492,108.28054 c -1.08,2.232 -1.656,4.392 -1.512,6.696 0.072,1.728 0.504,3.6 1.368,5.616 l 9.072,-23.904002 c 0.288,-1.152 1.008,-1.152 -0.504,-1.152 -0.504,1.512 -1.44,2.951994 -2.304,4.319997 -0.144,0.216005 -0.216,0.432005 -0.288,0.504005 -1.008,1.584 -2.016,3.096 -3.168,4.536 -0.864,1.152 -1.728,2.304 -2.664,3.384 z"
   id="path111"
   inkscape:connector-curvature="0"
   style="fill:#ffca00" />
<path
   d="m -79.77292,107.92054 c 2.16,0.576 4.176,0.72 6.048,0.504 2.592,-0.216 5.04,-1.008 7.416,-2.088 0.792,-0.936 1.584,-1.944 2.304,-2.88 1.08,-1.44 2.016,-2.88 3.024,-4.392008 0.144,-0.216 0.288,-0.432 0.36,-0.576 0.864,-1.367994 1.8,-2.879994 2.088,-4.103994 0.36,-2.016 -1.8,-3.024 -3.312,-1.656 l -17.928,15.192002 z"
   id="path113"
   inkscape:connector-curvature="0"
   style="fill:#ffca00" />
<path
   d="m -74.73292,91.864538 c -2.16,2.232 -3.96,4.608 -5.112,7.271994 -0.936,2.088008 -1.44,4.392008 -1.512,6.912008 l 18,-15.336002 c 0.936,-0.792 0.576,-1.872 -0.936,-1.872 -0.144,0.072 -0.288,0.072 -0.504,0.144 v -0.072 c -0.432,0 -0.936,0.216 -1.512,0.432 l -0.144,0.072 -8.28,2.448 z"
   id="path115"
   inkscape:connector-curvature="0"
   style="fill:#ffca00" />
<path
   d="m -89.42092,85.312538 c 1.44,1.656 3.096,2.736 4.968,3.456 2.52,0.936 5.544,1.08 8.784,0.792 l 8.424,-2.448 c 0.936,-0.432 1.728,-0.648 2.448,-0.792 0.072,0 0.072,-0.072 0.144,-0.144 0.144,-0.216 0.216,-0.576 0.216,-0.936 0.144,-1.656 -0.072,-1.224 -1.584,-1.152 l -23.4,1.224 z"
   id="path117"
   inkscape:connector-curvature="0"
   style="fill:#ffca00" />
<path
   d="m -77.75692,74.944538 c -3.312,0.648 -6.192,1.584 -8.424,3.096 -1.8,1.224 -3.168,2.808 -4.032,4.896 l 24.12,-1.296 c 1.152,-0.072 1.728,0.072 1.368,-1.512 l 0,0 c -0.216,-0.936 -0.936,-1.8 -1.584,-2.376 -1.368,-1.08 -4.32,-1.584 -7.128,-2.016 -1.584,-0.216 -3.096,-0.432 -4.32,-0.792 z"
   id="path119"
   inkscape:connector-curvature="0"
   style="fill:#ffca00" />
<path
   d="m -87.33292,60.832538 c 0.432,2.016 1.224,3.96 2.448,5.688 1.656,2.232 4.032,4.248 7.2,5.904 l 0,0 c 1.224,0.36 2.88,0.648 4.608,0.936 2.664,0.432 5.472,0.864 7.416,1.944 1.584,-0.432 2.016,-1.368 0.504,-2.16 l -22.176,-12.312 z"
   id="path121"
   inkscape:connector-curvature="0"
   style="fill:#ffca00" />
<path
   d="m -70.91692,57.808538 c -2.952,-1.08 -5.832,-1.584 -8.712,-1.44 -2.304,0.144 -4.608,0.792 -6.84,2.088 l 22.464,12.456 c 0.936,0.576 1.8,1.224 2.592,-0.144 h 0.072 c 0.216,-0.36 0.144,-0.936 -0.216,-1.8 l 0,0 c -1.728,-3.6 -4.32,-6.192 -6.624,-8.352 -1.008,-1.008 -1.944,-1.872 -2.736,-2.808 z"
   id="path123"
   inkscape:connector-curvature="0"
   style="fill:#ffca00" />
<path
   d="m -68.75692,39.808538 c -1.008,1.296 -1.656,2.88 -1.944,4.824 -0.432,2.952 0.072,6.768 1.656,11.52 0.72,0.864 1.584,1.728 2.592,2.664 2.16,2.088 4.608,4.536 6.48,7.92 1.296,2.448 3.384,0.936 2.448,-1.152 -1.152,-2.736 -2.448,-5.616 -3.744,-8.424 -2.808,-6.048 -5.4,-11.88 -7.488,-17.352 z"
   id="path125"
   inkscape:connector-curvature="0"
   style="fill:#ffca00" />
<path
   d="m -54.42892,49.456538 c -2.016,-3.816 -4.104,-6.624 -6.408,-8.496 -1.8,-1.512 -3.744,-2.304 -5.832,-2.52 2.088,5.472 4.752,11.448 7.632,17.712 1.224,2.664 2.448,5.328 3.744,8.28 0.576,1.368 2.736,2.808 2.736,0.432 -0.936,-4.32 -1.224,-7.848 -1.512,-11.16 -0.144,-1.44 -0.216,-2.952 -0.36,-4.248 z"
   id="path127"
   inkscape:connector-curvature="0"
   style="fill:#ffca00" />
<path
   d="m -40.38892,37.432538 c -2.304,0.72 -4.392,1.872 -6.192,3.528 -2.16,2.016 -4.032,4.68 -5.472,8.136 0.216,1.584 0.288,2.952 0.432,4.392 0.288,3.384 0.576,6.912 1.512,11.016 0.144,1.368 2.592,1.296 2.88,0.504 1.08,-5.256 2.232,-10.296 3.456,-15.12 1.08,-4.248 2.232,-8.352 3.384,-12.456 z"
   id="path129"
   inkscape:connector-curvature="0"
   style="fill:#ffca00" />
<path
   d="m -35.56492,54.568538 c 0.792,-4.68 0.648,-8.352 -0.144,-11.232 -0.504,-1.944 -1.368,-3.528 -2.448,-4.896 -1.08,3.96 -2.16,7.92 -3.24,12.024 -1.08,4.392 -2.16,8.856 -3.096,13.392 -0.144,0.576 -0.576,1.224 -0.504,1.872 0.144,1.008 0.936,1.8 2.592,0.216 1.008,-1.008 1.872,-3.024 2.88,-5.04 1.152,-2.448 2.304,-4.968 3.96,-6.336 z"
   id="path131"
   inkscape:connector-curvature="0"
   style="fill:#ffca00" />
<path
   d="m -20.30092,52.048538 c -2.304,-0.72 -4.464,-0.72 -6.48,-0.216 -2.376,0.576 -4.608,2.016 -6.696,4.032 v 0.144 c -1.368,0.72 -2.664,3.312 -3.888,5.976 -0.792,1.656 -1.584,3.384 -2.52,4.68 -0.504,2.52 0,2.232 1.872,1.656 l 17.712,-16.272 z"
   id="path133"
   inkscape:connector-curvature="0"
   style="fill:#ffca00" />
<path
   d="m -23.82892,68.464538 c 2.664,-3.24 4.392,-6.264 5.112,-9 0.504,-1.944 0.504,-3.816 0,-5.544 l -16.776,15.408 c -1.152,1.008 -1.08,3.744 0.288,3.744 0.936,0 2.448,-0.792 4.032,-1.656 0.576,-0.288 1.152,-0.576 1.872,-0.936 1.008,-0.504 2.088,-0.864 3.024,-1.224 0.936,-0.36 1.728,-0.576 2.448,-0.792 z"
   id="path135"
   inkscape:connector-curvature="0"
   style="fill:#ffca00" />
<path
   d="m -9.1409203,74.296538 c -1.2959997,-1.656 -2.9519997,-2.736 -4.8959997,-3.312 -2.52,-0.792 -5.544,-0.864 -8.928,-0.216 l 0,0 c -0.648,0.144 -1.512,0.432 -2.448,0.792 -0.936,0.288 -1.944,0.72 -2.808,1.152 -0.576,0.288 -1.152,0.576 -1.8,0.864 -1.512,0.792 -2.88,1.584 -4.176,1.8 -1.656,0.36 -1.44,2.448 0.648,2.448 v 0.072 c 4.248,-0.936 8.568,-1.728 12.96,-2.376 3.744,-0.576 7.56,-1.008 11.4479997,-1.224 z"
   id="path137"
   inkscape:connector-curvature="0"
   style="fill:#ffca00" />
<path
   d="m -19.07692,84.952538 c 2.736,-0.792 5.112,-2.16 6.984,-3.888 1.296,-1.224 2.3759997,-2.664 3.0959998,-4.32 -3.8159998,0.288 -7.5599998,0.648 -11.2319998,1.224 -4.392,0.648 -8.784,1.44 -13.032,2.376 -1.656,1.152 -1.296,3.888 0.72,4.248 2.52,0.504 5.832,0.432 8.784,0.36 1.728,0 3.384,-0.072 4.68,0 z"
   id="path139"
   inkscape:connector-curvature="0"
   style="fill:#ffca00" />
<path
   d="m -9.2129203,96.472538 c -0.72,-1.944 -1.6559997,-3.528 -2.8799997,-4.824 -1.872,-1.944 -4.248,-3.24 -6.984,-4.176 -1.224,-0.144 -2.88,-0.072 -4.608,-0.072 -2.16,0.072 -4.536,0.144 -6.624,0 0.072,0 0.216,0.072 0.288,0.144 l 20.8079997,8.928 z"
   id="path141"
   inkscape:connector-curvature="0"
   style="fill:#ffca00" />
<path
   d="m 47.88308,105.97654 c 3.816,1.152 7.632,1.296 11.592,0.144 7.272,-2.088 11.448,-7.488008 17.136,-11.736002 -1.512,7.416002 -4.608,13.536002 -10.944,18.216002 -4.752,3.528 -10.656,5.544 -16.92,5.112 -6.624,-0.36 -13.248,-3.24 -19.152,-7.632 -4.896,-3.672 -9.36,-8.496 -12.744,-13.752002 -0.216,5.256002 -1.152,9.864002 -3.024,13.896002 -2.448,5.184 -6.3360002,9.288 -11.8800002,12.24 -5.688,3.024 -13.2479998,3.456 -19.7999998,1.512 -2.664,-0.792 -5.256,-2.016 -7.416,-3.6 -2.232,-1.584 -4.104,-3.6 -5.4,-5.976 -1.944,-3.744 -2.52,-8.352 -0.936,-13.752 l 0.36,-1.368008 1.296,0.576003 c 3.888,1.800005 7.632,2.880005 11.304,2.808005 3.312,-0.072 6.552,-1.08 9.7919998,-3.384008 l -22.1759998,-9.503994 -0.072,-0.072 c -1.368,-0.648 -2.448,-0.72 -3.384,-0.288 -1.008,0.504 -1.944,1.512 -2.808,2.952 -0.792,1.152 -1.944,1.944 -3.024,2.664 -1.944,1.296 -1.944,1.152 -1.584,2.664 v -0.072 l 8.424,26.064002 0.072,-0.072 c 3.384,6.696 7.776,10.8 13.104,13.032 5.328,2.304 11.5919998,2.664 18.6479998,1.656 5.544,-0.792 10.296,-2.52 14.1840002,-5.688 3.816,-3.096 6.84,-7.704 8.928,-14.04 l 0.864,-2.52 1.368,2.304 c 2.304,3.96 5.4,7.416 9.576,9.936 4.176,2.448 9.432,4.032 16.128,4.032 7.992,0.072 14.976,-2.448 20.88,-6.624 6.696,-4.68 11.952,-11.52 15.768,-19.152 l 0.072,-13.104002 c -0.216,-7.848 -3.168,-8.568 -9.648,-11.376 -3.024,-1.368 -4.968,-0.864 -8.496,2.304 l -20.088,21.600002 z"
   id="path143"
   inkscape:connector-curvature="0"
   style="fill:#ffca00" />
<path
   d="m 54.36308,86.320538 -0.072,0.072 c -2.232,2.952 -4.536,5.976 -6.048,9.288 -1.152,2.519994 -1.872,5.184002 -1.728,8.208002 l 22.968,-24.768002 c 2.088,-2.232 1.296,-3.456 -0.072,-1.872 -1.584,1.944 -4.176,4.104 -6.984,5.76 -2.736,1.728 -5.76,3.024 -8.064,3.312 z"
   id="path145"
   inkscape:connector-curvature="0"
   style="fill:#ffca00" />
<path
   d="m 35.57108,78.976538 c 1.872,1.944 4.032,3.456 6.552,4.392 6.912,2.592 13.248,1.224 19.08,-2.376 2.952,-1.872 5.688,-4.248 6.912,-6.12 0,-0.216 0,-0.432 0.072,-0.648 l 0,0 0,0 0,0 c 0.36,-6.84 -6.552,-2.736 -10.224,-1.152 l 0,0 c -1.512,0.648 -2.952,1.296 -4.464,1.728 h 0.072 c -2.88,0.936 -6.12,2.016 -9.432,2.808 -2.88,0.72 -5.76,1.224 -8.568,1.368 z"
   id="path147"
   inkscape:connector-curvature="0"
   style="fill:#ffca00" />
<path
   d="m 50.33108,65.656538 -0.72,0.216 c -3.384,0.936 -6.408,2.304 -9,4.32 -2.088,1.656 -3.888,3.672 -5.256,6.336 2.664,-0.144 5.4,-0.648 8.208,-1.296 3.24,-0.792 6.408,-1.8 9.216,-2.736 l 0,0 c 1.368,-0.432 2.808,-1.08 4.248,-1.656 l 0,0 c 0.792,-0.36 11.448,-3.096 8.496,-4.608 -1.224,-0.576 -3.168,-0.864 -4.392,-0.936 -2.376,-0.144 -5.184,0 -7.56,0.216 -1.224,0.072 -2.304,0.144 -3.24,0.144 z"
   id="path149"
   inkscape:connector-curvature="0"
   style="fill:#ffca00" />
<path
   d="m 36.50708,47.656538 c 0.504,2.664 1.728,5.184 3.6,7.56 2.16,2.808 5.256,5.472 9.072,7.992 0.864,0 2.448,-0.072 4.248,-0.216 2.448,-0.144 5.328,-0.36 7.92,-0.144 2.304,0.144 4.32,1.152 4.32,-2.52 0,-0.936 -1.08,-1.296 -2.088,-1.584 l 0,0 c -0.288,-0.144 -0.576,-0.216 -0.792,-0.288 l 0,0 c -4.752,-1.8 -9.504,-3.816 -14.184,-5.832 -4.032,-1.656 -8.064,-3.384 -12.096,-4.968 z"
   id="path151"
   inkscape:connector-curvature="0"
   style="fill:#ffca00" />
<path
   d="m 56.30708,43.408538 c -3.888,-0.936 -7.632,-1.152 -11.088,-0.576 -2.664,0.432 -5.184,1.296 -7.488,2.664 3.888,1.512 7.848,3.24 11.808,4.896 4.608,1.944 9.288,3.96 14.112,5.76 l 0,0 c 0.288,0.072 0.504,0.144 0.72,0.216 l 0,0 c 1.656,0.576 2.808,0.432 4.176,-1.008 0.576,-0.648 0.576,-1.728 -1.152,-3.528 -1.584,-1.584 -3.744,-3.456 -5.832,-4.968 -2.088,-1.584 -4.032,-2.808 -5.328,-3.312 l 0.072,-0.144 z"
   id="path153"
   inkscape:connector-curvature="0"
   style="fill:#ffca00" />
<path
   d="m 52.34708,21.304538 c -0.576,2.808 -0.504,5.688 0.144,8.568 0.792,3.744 2.592,7.632 5.256,11.664 1.44,0.648 3.312,1.872 5.256,3.312 2.232,1.656 4.536,3.6 6.192,5.328 0.864,0.864 1.512,1.152 2.808,0.432 0.72,-0.36 -0.432,-2.16 -0.72,-2.664 -1.8,-3.096 -6.624,-10.08 -11.088,-16.272 -3.312,-4.608 -6.408,-8.712 -7.848,-10.368 z"
   id="path155"
   inkscape:connector-curvature="0"
   style="fill:#ffca00" />
<path
   d="m 86.04308,5.2485365 c -2.952,1.008 -5.328,3.1680021 -7.056,6.2640025 -2.088,3.815999 -3.24,9.071999 -3.528,15.911999 v 0.144 c 0.576,1.296 1.224,3.096 1.872,5.184 0.864,2.592 1.728,5.616 2.52,8.424 0.432,1.872 0.864,3.168 2.16,3.312 1.728,0.216 4.104,-0.288 4.032,-2.448 V 5.2485365 z"
   id="path157"
   inkscape:connector-curvature="0"
   style="fill:#ffca00" />
<path
   d="m 87.26708,46.000538 c 10.224,0 18.576,8.352 18.576,18.576 0,10.224 -8.352,18.576 -18.576,18.576 -10.224,0 -18.576,-8.352 -18.576,-18.576 0,-10.224 8.352,-18.576 18.576,-18.576 z"
   id="path159"
   inkscape:connector-curvature="0"
   style="fill:#db2b36" />
<path
   d="m 320.40308,112.31254 c 7.416,0 13.464,6.048 13.464,13.464 0,3.672 -1.512,7.056 -3.96,9.504 -2.448,2.376 -5.76,3.888 -9.504,3.888 -7.344,0 -13.392,-5.976 -13.392,-13.392 0,-3.672 1.512,-7.056 3.96,-9.504 2.376,-2.448 5.76,-3.96 9.432,-3.96 z"
   id="path161"
   inkscape:connector-curvature="0"
   style="fill:#db2b36" />
<path
   d="m 223.99508,67.744538 c -7.488,0 -13.608,6.048 -13.608,13.608 0,7.488 6.12,13.536 13.608,13.536 7.488,0 13.608,-6.048 13.608,-13.536 0,-7.56 -6.12,-13.608 -13.608,-13.608 z"
   id="path163"
   inkscape:connector-curvature="0"
   style="fill:#038477" />
<path
   d="m 303.41108,88.336538 c 2.88,0.288 5.472,1.08 7.92,2.232 3.024,1.512 5.832,3.672 8.352,6.552 l 1.44,1.655994 0.648,-2.159994 c 2.736,-9.576 8.424,-17.496 18.288,-14.688 l 0,0 c 0.504,0.144 1.008,0.288 1.512,0.504 1.728,0.648 3.312,1.584 4.68,2.808 2.376,2.016 4.176,4.68 5.04,7.56 0.936,2.88 0.936,6.047994 -0.144,9.000002 -0.576,1.44 -1.368,2.88 -2.52,4.176 -1.8,2.088 -4.104,3.024 -6.768,2.952 -2.808,0 -6.048,-1.08 -9.648,-2.88 l -1.224,-0.576 -0.504,1.224 c -0.648,1.8 -1.368,3.528 -2.232,5.256 -2.304,-1.296 -4.968,-2.088 -7.848,-2.088 -1.656,0 -3.24,0.288 -4.68,0.72 -2.088,-8.424 -6.624,-15.840002 -12.312,-22.248002 z"
   id="path165"
   inkscape:connector-curvature="0"
   style="fill:#ffca00" />
<path
   d="m 308.81108,113.60854 c -4.68,-3.672 -7.776,-7.56 -9,-11.736 -1.152,-3.744002 -0.792,-7.848002 1.368,-12.312002 5.76,6.336 10.224,13.608002 12.24,21.960002 -1.584,0.792 -2.664,1.512 -3.888,2.736 -0.144,-0.288 -0.504,-0.432 -0.72,-0.648 z"
   id="path167"
   inkscape:connector-curvature="0"
   style="fill:#ffca00" />
<path
   d="m 286.34708,121.24054 c 3.384,-2.952 6.768,-5.256 10.008,-6.48 3.96,-1.512 7.776,-1.368 11.52,1.224 -1.368,1.8 -2.376,3.888 -2.952,6.12 -6.048,-1.584 -12.384,-1.728 -18.576,-0.864 z"
   id="path169"
   inkscape:connector-curvature="0"
   style="fill:#ffca00" />
<path
   d="m 239.25908,108.28054 c 1.008,2.232 1.584,4.392 1.512,6.696 -0.072,1.728 -0.504,3.6 -1.44,5.616 l -9,-23.904002 c -0.288,-1.152 -1.008,-1.152 0.504,-1.152 0.432,1.512 1.44,2.951994 2.232,4.319997 0.216,0.216005 0.288,0.432005 0.36,0.504005 1.008,1.584 2.016,3.096 3.096,4.536 0.936,1.152 1.8,2.304 2.736,3.384 z"
   id="path171"
   inkscape:connector-curvature="0"
   style="fill:#ffca00" />
<path
   d="m 254.30708,107.92054 c -2.16,0.576 -4.176,0.72 -6.12,0.504 -2.52,-0.216 -4.968,-1.008 -7.344,-2.088 -0.864,-0.936 -1.584,-1.944 -2.304,-2.88 -1.08,-1.44 -2.088,-2.88 -3.024,-4.392008 -0.144,-0.216 -0.288,-0.432 -0.36,-0.576 -0.864,-1.367994 -1.872,-2.879994 -2.088,-4.103994 -0.432,-2.016 1.8,-3.024 3.312,-1.656 l 17.928,15.192002 z"
   id="path173"
   inkscape:connector-curvature="0"
   style="fill:#ffca00" />
<path
   d="m 249.26708,91.864538 c 2.16,2.232 3.888,4.608 5.112,7.271994 0.864,2.088008 1.44,4.392008 1.512,6.912008 l -18.072,-15.336002 c -0.936,-0.792 -0.504,-1.872 0.936,-1.872 0.216,0.072 0.36,0.072 0.576,0.144 v -0.072 c 0.432,0 0.864,0.216 1.512,0.432 l 0.144,0.072 8.28,2.448 z"
   id="path175"
   inkscape:connector-curvature="0"
   style="fill:#ffca00" />
<path
   d="m 263.88308,85.312538 c -1.368,1.656 -3.024,2.736 -4.896,3.456 -2.592,0.936 -5.544,1.08 -8.856,0.792 l -8.352,-2.448 c -0.936,-0.432 -1.8,-0.648 -2.52,-0.792 0,0 -0.072,-0.072 -0.072,-0.144 -0.144,-0.216 -0.216,-0.576 -0.288,-0.936 -0.072,-1.656 0.144,-1.224 1.584,-1.152 l 23.4,1.224 z"
   id="path177"
   inkscape:connector-curvature="0"
   style="fill:#ffca00" />
<path
   d="m 252.29108,74.944538 c 3.24,0.648 6.12,1.584 8.352,3.096 1.8,1.224 3.24,2.808 4.104,4.896 l -24.12,-1.296 c -1.224,-0.072 -1.728,0.072 -1.368,-1.512 l 0,0 c 0.216,-0.936 0.864,-1.8 1.584,-2.376 1.368,-1.08 4.32,-1.584 7.128,-2.016 1.512,-0.216 3.024,-0.432 4.32,-0.792 z"
   id="path179"
   inkscape:connector-curvature="0"
   style="fill:#ffca00" />
<path
   d="m 261.86708,60.832538 c -0.432,2.016 -1.224,3.96 -2.52,5.688 -1.584,2.232 -4.032,4.248 -7.128,5.904 l 0,0 c -1.224,0.36 -2.952,0.648 -4.608,0.936 -2.664,0.432 -5.472,0.864 -7.416,1.944 -1.584,-0.432 -2.016,-1.368 -0.576,-2.16 l 22.248,-12.312 z"
   id="path181"
   inkscape:connector-curvature="0"
   style="fill:#ffca00" />
<path
   d="m 245.37908,57.808538 c 2.952,-1.08 5.904,-1.584 8.712,-1.44 2.376,0.144 4.608,0.792 6.912,2.088 l -22.464,12.456 c -0.936,0.576 -1.872,1.224 -2.664,-0.144 l 0,0 c -0.216,-0.36 -0.144,-0.936 0.216,-1.8 l 0,0 c 1.656,-3.6 4.32,-6.192 6.624,-8.352 1.008,-1.008 1.944,-1.872 2.664,-2.808 z"
   id="path183"
   inkscape:connector-curvature="0"
   style="fill:#ffca00" />
<path
   d="m 243.29108,39.808538 c 1.008,1.296 1.656,2.88 1.944,4.824 0.432,2.952 -0.072,6.768 -1.656,11.52 -0.72,0.864 -1.656,1.728 -2.592,2.664 -2.16,2.088 -4.68,4.536 -6.48,7.92 -1.368,2.448 -3.456,0.936 -2.52,-1.152 1.224,-2.736 2.52,-5.616 3.816,-8.424 2.736,-6.048 5.4,-11.88 7.488,-17.352 z"
   id="path185"
   inkscape:connector-curvature="0"
   style="fill:#ffca00" />
<path
   d="m 228.96308,49.456538 c 2.016,-3.816 4.104,-6.624 6.336,-8.496 1.872,-1.512 3.816,-2.304 5.832,-2.52 -2.016,5.472 -4.752,11.448 -7.56,17.712 -1.224,2.664 -2.448,5.328 -3.744,8.28 -0.648,1.368 -2.736,2.808 -2.808,0.432 1.008,-4.32 1.296,-7.848 1.584,-11.16 0.072,-1.44 0.216,-2.952 0.36,-4.248 z"
   id="path187"
   inkscape:connector-curvature="0"
   style="fill:#ffca00" />
<path
   d="m 214.92308,37.432538 c 2.304,0.72 4.392,1.872 6.192,3.528 2.16,2.016 3.96,4.68 5.4,8.136 -0.144,1.584 -0.288,2.952 -0.432,4.392 -0.216,3.384 -0.576,6.912 -1.44,11.016 -0.216,1.368 -2.592,1.296 -2.88,0.504 -1.08,-5.256 -2.232,-10.296 -3.528,-15.12 -1.008,-4.248 -2.16,-8.352 -3.312,-12.456 z"
   id="path189"
   inkscape:connector-curvature="0"
   style="fill:#ffca00" />
<path
   d="m 210.09908,54.568538 c -0.792,-4.68 -0.648,-8.352 0.144,-11.232 0.504,-1.944 1.296,-3.528 2.376,-4.896 1.152,3.96 2.232,7.92 3.24,12.024 1.152,4.392 2.232,8.856 3.168,13.392 0.144,0.576 0.504,1.224 0.432,1.872 -0.072,1.008 -0.864,1.8 -2.52,0.216 -1.08,-1.008 -1.944,-3.024 -2.88,-5.04 -1.152,-2.448 -2.304,-4.968 -3.96,-6.336 z"
   id="path191"
   inkscape:connector-curvature="0"
   style="fill:#ffca00" />
<path
   d="m 194.76308,52.048538 c 2.376,-0.72 4.536,-0.72 6.552,-0.216 2.376,0.576 4.608,2.016 6.696,4.032 l -0.072,0.144 c 1.44,0.72 2.664,3.312 3.888,5.976 0.792,1.656 1.656,3.384 2.592,4.68 0.504,2.52 -0.072,2.232 -1.872,1.656 l -17.784,-16.272 z"
   id="path193"
   inkscape:connector-curvature="0"
   style="fill:#ffca00" />
<path
   d="m 198.36308,68.464538 c -2.736,-3.24 -4.392,-6.264 -5.112,-9 -0.504,-1.944 -0.504,-3.816 -0.072,-5.544 l 16.848,15.408 c 1.08,1.008 1.08,3.744 -0.288,3.744 -0.936,0 -2.448,-0.792 -4.104,-1.656 -0.576,-0.288 -1.152,-0.576 -1.8,-0.936 -1.008,-0.504 -2.088,-0.864 -3.096,-1.224 -0.864,-0.36 -1.728,-0.576 -2.376,-0.792 z"
   id="path195"
   inkscape:connector-curvature="0"
   style="fill:#ffca00" />
<path
   d="m 183.67508,74.296538 c 1.296,-1.656 2.952,-2.736 4.896,-3.312 2.52,-0.792 5.472,-0.864 8.928,-0.216 l 0,0 c 0.648,0.144 1.512,0.432 2.448,0.792 0.936,0.288 1.872,0.72 2.808,1.152 0.576,0.288 1.152,0.576 1.8,0.864 1.44,0.792 2.88,1.584 4.176,1.8 1.584,0.36 1.44,2.448 -0.648,2.448 l -0.072,0.072 c -4.176,-0.936 -8.496,-1.728 -12.888,-2.376 -3.816,-0.576 -7.632,-1.008 -11.448,-1.224 z"
   id="path197"
   inkscape:connector-curvature="0"
   style="fill:#ffca00" />
<path
   d="m 193.61108,84.952538 c -2.808,-0.792 -5.184,-2.16 -7.056,-3.888 -1.224,-1.224 -2.304,-2.664 -3.024,-4.32 3.816,0.288 7.56,0.648 11.232,1.224 4.392,0.648 8.712,1.44 13.032,2.376 1.584,1.152 1.296,3.888 -0.792,4.248 -2.448,0.504 -5.76,0.432 -8.712,0.36 -1.728,0 -3.384,-0.072 -4.68,0 z"
   id="path199"
   inkscape:connector-curvature="0"
   style="fill:#ffca00" />
<path
   d="m 183.74708,96.472538 c 0.648,-1.944 1.656,-3.528 2.88,-4.824 1.8,-1.944 4.176,-3.24 6.912,-4.176 1.296,-0.144 2.952,-0.072 4.68,-0.072 2.16,0.072 4.464,0.144 6.624,0 -0.072,0 -0.216,0.072 -0.288,0.144 l -20.808,8.928 z"
   id="path201"
   inkscape:connector-curvature="0"
   style="fill:#ffca00" />
<path
   d="m 126.65108,105.97654 c -3.816,1.152 -7.704,1.296 -11.592,0.144 -7.344,-2.088 -11.448,-7.488008 -17.208,-11.736002 1.584,7.416002 4.68,13.536002 10.944,18.216002 4.824,3.528 10.728,5.544 16.92,5.112 6.696,-0.36 13.32,-3.24 19.152,-7.632 4.968,-3.672 9.36,-8.496 12.744,-13.752002 0.216,5.256002 1.224,9.864002 3.096,13.896002 2.448,5.184 6.336,9.288 11.88,12.24 5.616,3.024 13.176,3.456 19.728,1.512 2.736,-0.792 5.328,-2.016 7.488,-3.6 2.232,-1.584 4.104,-3.6 5.328,-5.976 2.016,-3.744 2.592,-8.352 1.008,-13.752 l -0.432,-1.368008 -1.296,0.576003 c -3.816,1.800005 -7.56,2.880005 -11.304,2.808005 -3.24,-0.072 -6.552,-1.08 -9.72,-3.384008 l 22.176,-9.503994 0.072,-0.072 c 1.296,-0.648 2.448,-0.72 3.384,-0.288 1.008,0.504 1.944,1.512 2.808,2.952 0.72,1.152 1.872,1.944 3.024,2.664 1.944,1.296 1.944,1.152 1.512,2.664 l 0.072,-0.072 -8.424,26.064002 -0.144,-0.072 c -3.312,6.696 -7.776,10.8 -13.032,13.032 -5.328,2.304 -11.592,2.664 -18.648,1.656 -5.616,-0.792 -10.296,-2.52 -14.184,-5.688 -3.816,-3.096 -6.84,-7.704 -8.928,-14.04 l -0.864,-2.52 -1.368,2.304 c -2.304,3.96 -5.472,7.416 -9.576,9.936 -4.248,2.448 -9.504,4.032 -16.128,4.032 -7.992,0.072 -14.976,-2.448 -20.88,-6.624 -6.696,-4.68 -12.024,-11.52 -15.768,-19.152 l -0.072,-13.104002 c 0.216,-7.848 3.096,-8.568 9.648,-11.376 3.024,-1.368 4.968,-0.864 8.496,2.304 l 20.088,21.600002 z"
   id="path203"
   inkscape:connector-curvature="0"
   style="fill:#ffca00" />
<path
   d="m 120.17108,86.320538 0.072,0.072 c 2.232,2.952 4.536,5.976 6.048,9.288 1.152,2.519994 1.872,5.184002 1.728,8.208002 l -23.04,-24.768002 c -2.016,-2.232 -1.224,-3.456 0.144,-1.872 1.584,1.944 4.176,4.104 6.912,5.76 2.808,1.728 5.76,3.024 8.136,3.312 z"
   id="path205"
   inkscape:connector-curvature="0"
   style="fill:#ffca00" />
<path
   d="m 138.89108,78.976538 c -1.8,1.944 -4.032,3.456 -6.48,4.392 -6.984,2.592 -13.248,1.224 -19.08,-2.376 -2.952,-1.872 -5.76,-4.248 -6.984,-6.12 0,-0.216 0,-0.432 0,-0.648 l 0,0 0,0 0,0 c -0.36,-6.84 6.552,-2.736 10.224,-1.152 l 0,0 c 1.512,0.648 2.952,1.296 4.392,1.728 l 0,0 c 2.88,0.936 6.12,2.016 9.432,2.808 2.88,0.72 5.76,1.224 8.496,1.368 z"
   id="path207"
   inkscape:connector-curvature="0"
   style="fill:#ffca00" />
<path
   d="m 124.20308,65.656538 0.72,0.216 c 3.384,0.936 6.408,2.304 9,4.32 2.088,1.656 3.816,3.672 5.256,6.336 -2.664,-0.144 -5.472,-0.648 -8.208,-1.296 -3.24,-0.792 -6.408,-1.8 -9.216,-2.736 l 0,0 c -1.368,-0.432 -2.808,-1.08 -4.248,-1.656 l 0,0 c -0.792,-0.36 -11.448,-3.096 -8.496,-4.608 1.224,-0.576 3.168,-0.864 4.392,-0.936 2.376,-0.144 5.184,0 7.56,0.216 1.152,0.072 2.304,0.144 3.24,0.144 z"
   id="path209"
   inkscape:connector-curvature="0"
   style="fill:#ffca00" />
<path
   d="m 138.02708,47.656538 c -0.504,2.664 -1.728,5.184 -3.6,7.56 -2.232,2.808 -5.328,5.472 -9.144,7.992 -0.864,0 -2.376,-0.072 -4.176,-0.216 -2.448,-0.144 -5.328,-0.36 -7.92,-0.144 -2.304,0.144 -4.32,1.152 -4.32,-2.52 0,-0.936 1.08,-1.296 2.016,-1.584 l 0,0 c 0.36,-0.144 0.648,-0.216 0.792,-0.288 l 0,0 c 4.752,-1.8 9.504,-3.816 14.256,-5.832 4.032,-1.656 7.992,-3.384 12.096,-4.968 z"
   id="path211"
   inkscape:connector-curvature="0"
   style="fill:#ffca00" />
<path
   d="m 118.22708,43.408538 c 3.888,-0.936 7.56,-1.152 11.016,-0.576 2.736,0.432 5.256,1.296 7.56,2.664 -3.96,1.512 -7.848,3.24 -11.808,4.896 -4.68,1.944 -9.288,3.96 -14.184,5.76 l 0,0 c -0.216,0.072 -0.432,0.144 -0.648,0.216 l 0,0 c -1.656,0.576 -2.808,0.432 -4.176,-1.008 -0.576,-0.648 -0.648,-1.728 1.08,-3.528 1.584,-1.584 3.744,-3.456 5.904,-4.968 2.016,-1.584 4.032,-2.808 5.328,-3.312 l -0.072,-0.144 z"
   id="path213"
   inkscape:connector-curvature="0"
   style="fill:#ffca00" />
<path
   d="m 122.18708,21.304538 c 0.576,2.808 0.504,5.688 -0.144,8.568 -0.864,3.744 -2.664,7.632 -5.256,11.664 -1.44,0.648 -3.384,1.872 -5.328,3.312 -2.16,1.656 -4.464,3.6 -6.12,5.328 -0.864,0.864 -1.584,1.152 -2.88,0.432 -0.648,-0.36 0.432,-2.16 0.72,-2.664 1.872,-3.096 6.624,-10.08 11.16,-16.272 3.312,-4.608 6.408,-8.712 7.848,-10.368 z"
   id="path215"
   inkscape:connector-curvature="0"
   style="fill:#ffca00" />
<path
   d="m 88.49108,5.2485365 c 2.952,1.008 5.328,3.1680021 7.056,6.2640025 2.016,3.815999 3.24,9.071999 3.456,15.911999 v 0.144 c -0.504,1.296 -1.152,3.096 -1.872,5.184 -0.864,2.592 -1.728,5.616 -2.448,8.424 -0.504,1.872 -0.864,3.168 -2.16,3.312 -1.728,0.216 -4.104,-0.288 -4.032,-2.448 V 5.2485365 z"
   id="path217"
   inkscape:connector-curvature="0"
   style="fill:#ffca00" />
<path
   d="m 237.38708,122.32054 c -3.168,-0.864 -5.904,-2.232 -8.28,-4.32 -4.608,-3.96 -6.48,-9.072 -7.848,-14.688 -2.448,6.912 -3.744,15.624 -0.432,22.536 2.376,5.04 7.128,8.28 15.408,8.928 7.272,0.504 13.752,-1.368 19.8,-5.184 5.112,-3.24 9.864,-7.776 14.544,-13.392 -0.432,7.056 -0.072,13.176 1.08,18 1.296,5.616 3.744,9.504 7.56,11.232 5.472,2.592 10.368,1.8 13.536,-0.72 1.44,-1.224 2.52,-2.736 3.168,-4.464 0.648,-1.728 0.864,-3.672 0.504,-5.688 -0.648,-3.888 -3.384,-7.992 -8.928,-11.016 5.688,-0.72 11.52,-0.504 17.064,1.008 0,0.432 0,0.792 0,1.224 0,5.544 2.808,10.44 7.2,13.32 l -0.144,0.288 c -0.504,7.488 -2.448,13.608 -6.192,17.712 -3.456,3.672 -8.424,5.76 -15.336,5.688 -7.272,0 -14.616,-2.592 -19.944,-7.416 -5.976,-5.4 -7.704,-11.232 -8.28,-19.008 -1.8,1.872 -2.52,4.176 -5.04,6.552 -3.24,4.248 -7.92,6.696 -13.032,7.488 -5.184,0.864 -10.944,0.072 -16.344,-1.944 -3.312,-1.296 -6.48,-3.096 -9.36,-5.256 -2.376,-1.8 -4.176,-4.392 -5.4,-7.632 -1.224,-3.096 -2.016,-6.768 -2.448,-10.872 l 8.496,-26.352008 0,0 c 0.072,-0.144 0.072,-0.215994 0.072,-0.215994 l 0,0 c 0.648,-1.224 2.592,-1.584 4.68,-1.512 1.728,0.072 4.176,-0.072 4.752,1.583994 l 9.144,24.120008 z"
   id="path219"
   inkscape:connector-curvature="0"
   style="fill:#ffca00" />
<path
   d="m 77.47508,41.824538 c -0.72,-2.808 -1.584,-5.76 -2.448,-8.352 -0.792,-2.376 -1.512,-4.32 -2.088,-5.544 -0.081,-0.171 -0.203,-0.354 -0.343,-0.54 -3.379,-3.278 -6.878,-5.646 -10.313,-7.021 -2.808,-1.08 -5.688,-1.44 -8.496,-0.864 1.872,2.016 5.112,6.192 8.352,10.728 4.032,5.472 8.208,11.592 10.512,15.192 1.08,1.8 1.8,2.448 4.176,1.8 1.008,-0.215 1.656,-1.439 0.648,-5.399 z"
   id="path221"
   inkscape:connector-curvature="0"
   style="fill:#ffca00" />
<path
   d="m 97.05908,41.824538 c 0.72,-2.808 1.584,-5.76 2.448,-8.352 0.792,-2.376 1.512,-4.32 2.088,-5.544 0.081,-0.171 0.203,-0.354 0.343,-0.54 3.379,-3.278 6.878,-5.646 10.313,-7.021 2.808,-1.08 5.688,-1.44 8.496,-0.864 -1.872,2.016 -5.112,6.192 -8.352,10.728 -4.032,5.472 -8.208,11.592 -10.512,15.192 -1.08,1.8 -1.8,2.448 -4.176,1.8 -1.008,-0.215 -1.656,-1.439 -0.648,-5.399 z"
   id="path223"
   inkscape:connector-curvature="0"
   style="fill:#ffca00" />
</svg>