<?xml version="1.0" encoding="UTF-8"?>
<!DOCTYPE svg PUBLIC "-//W3C//DTD SVG 1.1//EN" "http://www.w3.org/Graphics/SVG/1.1/DTD/svg11.dtd">
<!-- Creator: CorelDRAW 2019 (64-Bit) -->
<svg xmlns="http://www.w3.org/2000/svg" xml:space="preserve" width="150.942mm" height="256.817mm" version="1.1" style="shape-rendering:geometricPrecision; text-rendering:geometricPrecision; image-rendering:optimizeQuality; fill-rule:evenodd; clip-rule:evenodd"
viewBox="0 0 150.7123 256.4266"
 xmlns:xlink="http://www.w3.org/1999/xlink"
 xmlns:xodm="http://www.corel.com/coreldraw/odm/2003">
 <defs>
  <style type="text/css">
   <![CDATA[
    .fil0 {fill:#002970}
    .fil2 {fill:#FF000F}
    .fil1 {fill:#FFD600}
    .fil3 {fill:black}
    .fil4 {fill:white}
   ]]>
  </style>
 </defs>
 <g id="Layer_x0020_1">
  <metadata id="CorelCorpID_0Corel-Layer"/>
  <g id="_703955456">
   <path class="fil0" d="M-0 65.0558l150.7123 0c-2.1718,125.7721 -75.3588,191.3708 -75.3588,191.3708 0,0 -73.1869,-65.5987 -75.3536,-191.3708z"/>
   <path class="fil1" d="M5.9632 70.4746l138.7856 0c-3.2546,115.4743 -69.3953,176.7345 -69.3953,176.7345 0,0 -66.137,-61.2602 -69.3904,-176.7345z"/>
   <path class="fil2" d="M11.9273 75.897l126.8583 0c-5.4215,106.2567 -63.432,162.0975 -63.432,162.0975 0,0 -58.0075,-55.8415 -63.4263,-162.0975z"/>
   <path class="fil3" d="M74.7771 100.4637c-0.4667,0.4576 -1.3975,1.4552 -1.3975,1.4552 0,0 0.0744,0.3248 -1.1539,0.087 -1.225,-0.2427 -2.5381,-0.2427 -2.1535,-1.0128 0,0 0.6134,-0.2984 1.1553,-0.6838 0.5418,-0.3868 1.9247,-1.4706 1.9247,-1.4706 0,0 0.9134,-0.6846 1.3857,-0.0723 0.4696,0.6135 0.7088,1.2381 0.2392,1.6972zm-4.0066 12.3239l0 0c-3.0704,0.0946 -4.8247,-0.9995 -4.3935,-1.3731 0,0 0.5544,-1.0122 1.0108,-0.8564 0.4229,0.35 2.5397,0.2902 3.7674,0.2179 1.4553,0.1558 3.455,0 3.455,0 0,0 -0.6142,1.8989 -3.8396,2.0116zm53.1995 -0.146l0 0c-0.7465,-4.2613 -3.2221,-4.5243 -4.9346,-4.5981 2.838,-4.5971 0.8436,-7.0734 0.7214,-6.8836 -0.8161,1.8789 -1.6125,2.7448 -2.5988,3.0105 2.9612,-6.0656 -0.7215,-7.173 -0.7108,-6.7515 -0.1079,3.8051 -2.6316,4.1153 -3.9073,3.7173 -8.2346,-2.6584 -12.4784,2.7685 -12.4784,2.7685 0,0 -4.0338,3.5991 -4.0812,12.1543 -0.0576,8.7235 2.6942,15.8937 4.0812,20.3135 1.3828,4.415 2.5514,8.9386 2.6565,11.874 0.0851,2.3101 -0.9758,3.5392 -1.8523,3.6004 -0.8759,0.0563 -1.5777,-0.674 -1.9595,-1.5567 -0.3868,-0.8758 -0.5566,-1.4413 -1.1581,-5.03 -0.6047,-3.5842 -3.3799,-5.1843 -5.4744,-5.7387 -2.0946,-0.551 -4.5854,-1.442 -5.4145,-1.7194 -0.8308,-0.2777 -0.4939,-1.0589 0.1098,-2.2017 0.3847,-0.7101 1.2138,-0.5544 1.9372,-0.4445 0.722,0.1072 1.7648,0.7214 2.5958,0.7784 0.8292,0.0634 0.6665,-0.8882 0.6665,-1.7647 0,-0.8772 0.1628,-1.4447 0.6719,-1.4447 0.5064,-0.0613 0.6616,1.4447 0.6616,1.4447 0,0 0.7589,-1.3279 0.8188,-2.2629 0.0598,-0.939 -0.7235,-1.1677 -1.218,-1.6158 -0.4897,-0.4444 -0.2156,-1.0914 -0.2156,-1.0914 0,0 1.0016,0.9371 2.4916,0.3861 1.4927,-0.5565 1.8079,-1.7708 1.5873,-1.9887 -3.1996,-1.0928 -2.5278,-3.1997 -2.5855,-7.0137 -0.0605,-3.8133 0.6594,-6.4622 0.8785,-10.4931 0.2144,-4.0304 -1.9399,-7.6788 -2.2641,-8.1719 -0.3242,-0.4939 -0.217,-0.9976 0.1078,-0.8284 0.878,0.5516 2.7102,1.2624 2.7102,1.2624 0,0 0.9862,0 1.8744,-0.9382 0.8911,-0.9379 2.2643,-3.1511 2.6483,-4.0312 0.3874,-0.8784 0.6142,-0.6003 1.1081,-0.2171 0.4925,0.3868 1.3237,0.4447 1.6027,0 0.2727,-0.4444 1.1889,-0.8562 0.3817,-2.8644 -0.4241,-1.1435 -1.0349,-2.4318 -2.1563,-2.3336 -0.756,0.0605 -1.707,0.1675 -2.5361,0.4437 -0.8311,0.2791 -2.541,1.3856 -3.0954,1.7098 -0.5496,0.3263 -0.5295,0.3861 -1.2881,-0.1196 -0.4634,-0.3248 -0.2026,-0.9739 0.1849,-1.252 0.3818,-0.277 1.9143,-0.926 2.6189,-1.6487 0.7138,-0.7213 0.1968,-1.7216 0.1968,-1.7216 0,0 -1.602,-1.4301 -1.7694,-1.5993 -0.2645,-0.2636 0.5544,-1.1685 0.7831,-1.3828 0.2277,-0.2178 0.7672,-0.7721 0.8292,-1.769 0,-0.9509 -0.8931,-1.5998 -1.5554,-1.7104 -0.6587,-0.1071 -0.9481,0 -1.4899,0.5419 -0.6038,0.6657 -1.2152,0.9515 -1.4928,0.5654 -0.2748,-0.3846 -1.3855,-1.058 -2.1515,-1.1066 -0.7691,-0.0466 -1.5552,0.327 -2.0972,1.0489 -0.6588,0.8884 -1.2757,1.5861 -1.2757,1.5861 0,0 -0.274,0.7964 -0.9357,0.0723 -0.6614,-0.722 -0.0443,-1.7697 -0.0443,-1.7697 0,0 1.9343,-3.0912 2.1486,-3.4279 0.2178,-0.3366 0.3268,-0.8785 0.2178,-1.2159 -0.5051,-1.5649 -1.9352,-2.5871 -2.3673,-3.091 -0.4367,-0.5057 -0.9432,-0.2653 -1.0615,-0.1691 -0.6728,0.5289 -1.1796,0.6464 -1.3001,1.1878 -0.5036,1.3886 0.1448,2.4585 -0.182,2.4585 -1.8796,0.0124 -4.6175,2.178 -4.7032,3.935 -0.0847,1.8649 0.8417,2.8018 0.999,3.1406 0.1544,0.3367 0.0598,0.7589 0.0598,0.7589 0,0 -3.912,-0.2664 -5.319,-0.0125 -1.4081,0.2518 -2.1767,1.4928 -2.1767,1.4928 0,0 -1.3606,0.4076 -2.7087,1.4656 -1.8293,1.4809 -2.8756,1.5171 -4.296,2.3248 -1.7098,0.9835 -2.0723,1.791 -2.1169,2.7294 -0.0847,1.636 1.1902,1.7918 2.2739,2.0833 0.7438,0.2046 0.6867,1.275 0.6867,1.7891 0,0.5182 -0.1252,0.5544 0.8387,1.5443 -4.3787,-0.3146 -5.0025,-3.0831 -5.4846,-3.8996 -0.3026,-0.544 -0.649,-1.1804 -1.1333,-1.1804 -0.6113,0 -1.2756,0.9604 -1.2756,0.9604 0,0 -1.081,1.0608 -0.5766,4.429 0.5195,3.478 3.5369,3.2999 3.8042,3.2999 0.2615,0 2.5736,-0.146 2.7656,-0.0973 0.1926,0.0472 0.3375,0.0709 0.7465,0.3854 0.7595,0.5653 0.3151,1.9705 0.1454,2.1188 -1.2784,1.2242 -1.5178,1.8989 -1.6353,2.4283 -0.1474,0.6364 0.2372,1.529 0.2372,1.529 0,0 -1.0812,0.1912 -1.7077,-0.7833 -0.5287,-0.8167 0.0131,-2.226 0.0131,-2.226 0,0 0.1442,-0.3853 -0.2302,-0.4215 -1.5998,-0.1913 -2.7656,1.1553 -3.3917,1.6388 -0.0249,-1.876 0.8313,-2.3329 1.2028,-2.696 0.242,-0.2415 0.1349,-0.3973 -0.2045,-0.4586 -3.0079,-0.178 -4.1987,2.0472 -4.6077,3.0225 -4.491,-2.0325 -6.4127,1.0093 -7.0876,1.7431 -0.6762,0.7332 0,0.6393 0.4445,0.6393 1.755,-0.0486 2.0471,1.1908 2.0471,2.1522 0,1.2527 -1.4705,1.7097 -1.4705,1.7097 0,0 -2.1522,0.8077 -2.7163,-2.7198 -0.4493,-2.5995 3.343,-7.8318 3.343,-7.8318 0,0 1.4794,-2.4562 1.4177,-4.5006 -0.0822,-3.119 -1.3709,-4.1881 -2.3817,-4.5486 0.5291,-2.1924 0.182,-4.851 -0.4668,-7.52 -0.6538,-2.6732 -4.5612,-3.4336 -4.5612,-3.4336 0,0 -0.651,-4.4976 -3.6714,-4.68 -2.5415,-0.1329 -3.2601,0.9404 -3.8493,1.5422 0.8889,0.9495 1.1882,2.0444 1.2506,3.4892 -3.7923,-1.8413 -4.753,-0.0493 -5.2224,0.722 -0.4716,0.77 -0.1698,0.8187 -0.1698,0.8187 0,0 1.3009,0.0718 1.8302,0.6005 0.5287,0.5292 0.4195,1.4188 0.1793,1.7104 -1.5998,1.5999 -1.3604,2.4875 -1.4182,3.8501 -1.602,0.8889 -2.3107,2.3817 -2.5409,3.3202 -0.2269,0.9383 0.0507,1.3625 0.0507,1.3625 0,0 1.0684,0.0689 2.548,0.1301 1.4809,0.0612 1.6633,0.6983 1.5427,1.6368 -0.1196,0.937 -0.9516,2.0798 -0.9516,2.0798 0,0 -1.433,1.7356 -2.0714,2.7227 -0.6838,1.0711 -0.8382,2.1416 -0.7185,3.5481 0.0946,1.3356 1.6123,3.1546 1.9594,3.5603 -2.7337,5.5014 0.482,9.111 1.7203,10.2434 0.0625,-0.9412 0.1196,-1.5415 0.8931,-2.4924 0.1203,2.0117 1.1783,2.3102 1.9468,2.1905 0.8892,-2.2496 1.5903,-3.1421 2.5514,-3.5511 -0.2273,1.9025 0.06,4.2 0.5324,5.3944 -1.3008,0.4765 -2.4945,0.2149 -3.2631,-0.0125 -0.4223,-0.0265 -0.4696,0.24 -0.4696,0.24 0,0 -0.2393,2.1293 1.8407,3.0773 1.8439,0.8465 4.5255,0.5934 6.7771,0.5934 -1.3479,0.8534 -2.6592,1.3688 -3.0704,1.4662 -0.3346,0.0599 -0.3346,0.3144 -0.2149,0.6142 3.0551,3.0928 8.6366,1.707 8.6366,1.707 0,0 0.6171,1.4219 3.1552,1.2299 3.2979,1.6944 5.0049,1.421 8.6025,1.4538 -1.1435,1.2048 -3.3228,1.3988 -5.1626,1.3605 -3.1774,-0.0723 -6.0408,-1.1073 -6.5951,-1.3926 -1.0338,2.0785 0.6517,4.0414 1.6625,5.0536 -2.3713,0.0584 -4.9699,-0.9537 -6.2805,-2.1905 -1.3128,-1.2403 -3.7917,-2.7825 -3.7917,-2.7825 0,0 -1.1207,-0.5412 -4.3211,-0.2393 -3.0772,-2.7198 -5.5593,-2.6 -6.3278,-2.6 -0.7715,0 -0.7117,0.3499 -0.5915,0.5265 1.8421,3.6123 1.4226,5.1565 1.4226,5.1565 0,0 -2.7832,-0.8214 -4.2606,-0.4244 -1.2882,0.3248 -2.6585,1.6611 -2.671,2.9007 3.213,0.4098 4.079,0.7074 4.97,1.5993 0.7213,0.7609 0.6017,0.8318 0.7213,1.5517 -0.2296,5.5732 3.6095,6.031 3.6095,6.031 0,0 -0.6962,1.2987 -1.9018,2.006 -1.4801,0.8896 -2.2843,0.7137 -2.8382,0.8896 3.9086,3.6124 9.4103,0.1378 9.9996,-0.3471 0.4069,0.2296 1.3104,0.7082 3.2003,0.2296 -0.7094,1.1199 -1.8294,1.3106 -1.8294,1.3106 0,0 0.9383,0.8214 4.1881,0.0514 3.248,-0.7714 5.1024,-2.1933 5.1024,-2.1933 0,0 0,1.3731 1.7194,1.4343 1.7232,0.0584 3.8396,-1.7223 3.8396,-1.7223 0,0 0.1574,0.8319 -0.1599,2.2518 2.2517,-0.3368 3.1301,-1.1319 3.1301,-1.1319l3.5999 -3.2951c0,0 0.0098,1.7195 -0.1816,3.4119 1.8295,-0.1759 3.2124,-0.9948 4.5749,-2.4255 1.129,1.1749 2.2468,1.4307 3.6673,2.2496 -11.1277,0.4062 -12.4061,5.5473 -12.6586,6.9525 -0.2518,1.4067 0,2.2525 0.2525,2.0584 1.2177,-1.2271 4.0588,-2.2984 4.5603,-1.6 -0.3845,2.7678 -1.478,4.7412 -3.8522,6.7995 -2.3789,1.8169 -3.4871,2.0081 -4.0983,2.349 -0.4967,0.2491 -0.7112,0.359 -0.3898,0.6101 1.2312,0.9633 1.8574,0.951 3.8398,1.1443 -1.3454,1.0824 -2.8757,0.9627 -3.5121,1.0941 0.9606,1.2862 3.1998,1.984 4.9353,2.3109 -0.7749,0.7721 -1.7355,1.2889 -2.1196,1.4064 4.5006,1.7329 7.3138,0.5156 9.109,-0.3853 -1.275,3.2027 -2.6335,4.2369 -4.0434,4.1172 -1.4087,-0.1195 -3.0809,-0.843 -4.0443,-1.4829 -0.9614,-0.6364 -1.8621,-0.9605 -2.3065,-1.0189 -0.4473,-0.0613 -2.5635,0.3269 -3.4699,-0.7714 -1.7924,-3.2505 -3.3422,-3.5387 -4.4261,-3.5971 -1.0858,-0.0611 -2.3212,0.7075 -2.8275,0.7687 -6.161,-0.8298 -7.1343,2.6384 -6.8573,3.2137 4.2334,0 4.1638,1.6611 4.353,2.1154 -2.6927,0.3866 -3.3916,1.6027 -3.7763,2.3143 -0.3874,0.7073 -0.3367,2.0442 0.107,1.8482 3.0078,-1.2125 4.7649,-0.3707 4.7649,-0.2512 -0.3839,2.7567 1.021,3.9142 1.021,3.9142 0,0 0.5919,0.4569 0.2673,1.1519 -0.7686,2.2398 0.507,4.0435 0.6962,3.793 1.9873,-2.9515 4.5031,-1.7954 5.0326,-1.4948 0.5288,0.3018 2.3087,2.3114 2.3087,2.3114 1.4454,1.0123 2.4541,0.567 2.6489,-0.251 0.192,-0.8201 -0.3846,-2.792 -0.3846,-2.792 0,0 0.2398,-0.1929 1.7801,0 1.54,0.192 2.5988,2.4261 3.3695,3.3701 0.9167,1.1033 1.5881,0.1566 1.5881,-0.1975 0.0117,-3.1977 0.3965,-2.4409 0.3965,-2.4409 0,0 1.2633,1.0962 2.1047,0.663 1.8296,-0.9134 3.2625,-2.8417 3.1776,-2.6489 0.2644,-0.6601 0.9634,-0.2888 0.9634,-0.2888 0,0 0.1921,1.5429 0.6692,2.7935 0.4843,1.2499 1.4475,0.3854 1.4475,0.3854 0,0 2.1417,-1.3614 2.4541,-5.1051 0.3368,-3.992 -2.2614,-4.9533 -2.7434,-4.9533 -0.482,0 -0.4918,-0.2421 -0.4444,-0.6296 0.2894,-0.6962 0.7338,-1.3926 0.9265,-1.6346 0.1942,-0.2407 0.3715,-0.5169 0.7582,-0.3242 0.3846,0.19 0.7367,0.7103 0.9265,1.9588 0.1948,1.2507 1.4928,2.1655 1.6875,2.0715 1.7321,-1.9713 1.5499,-3.8403 1.3453,-5.4402 1.3482,1.2999 1.4782,1.156 1.6821,0.9641 0.4116,-0.421 0.9167,-2.2642 1.1581,-3.3689 0.7193,1.4899 1.1539,4.4268 1.1539,4.4268 1.9267,-3.4196 1.3473,-8.1337 0.818,-9.7225 -0.5286,-1.5874 -3.1776,-3.4188 -3.4195,-3.6101 -0.2399,-0.1919 -0.6239,-0.6726 -0.2875,-1.1067 0.4244,-0.24 0.6019,-0.24 1.9271,0.0975 1.3355,0.3367 1.9726,1.5387 1.9275,3.1287 -0.0474,1.5866 1.3925,1.2006 1.7772,1.2006 0.3874,0 0.1447,-0.0458 0.6268,0.1921 1.924,4.2347 -1.1561,8.2791 -1.7775,8.8083 -0.6265,0.5294 -0.5814,0.6747 -0.098,0.7242 1.5901,-0.0974 3.4628,-0.0487 6.7849,-2.4562 1.1533,5.1522 -2.4562,7.7984 -2.3115,7.9896 5.6309,1.4441 9.6753,-2.7921 9.6753,-2.7426 -0.7215,5.4882 -3.3675,5.3415 -4.5701,5.1508 -1.001,-0.1461 -3.565,-0.6287 -6.0163,-0.6748 -2.4561,-0.0493 -3.7591,0.2429 -5.107,1.1068 -1.1409,0.7242 -2.9327,3.4662 -2.9327,3.4662 0,0 -1.8671,-0.457 -3.3257,1.2979 -1.1052,1.3849 -1.0079,3.899 -0.7651,3.8042 4.4728,-2.5507 5.4862,-1.4926 5.4862,-1.4926 0,0 -1.6847,3.0314 -0.5288,6.9315 1.1556,3.8983 3.367,2.8882 3.367,2.8882 0,0 0.0973,0.0752 0.0471,-0.1446 -0.7532,-3.4774 0,-4.5243 0.8242,-4.5243 1.0561,0.8202 1.4407,0.4348 2.1141,0.4348 0.6739,0 0.6739,0.2858 0.8688,0.5773 2.1167,4.3321 5.918,3.4174 6.6875,3.3695 0.7736,-0.0493 1.0609,-0.2922 0.8661,-0.4353 -0.19,-0.1434 -1.7772,-2.0215 -2.0214,-2.5966 -0.2399,-0.5782 -0.046,-1.0589 0.7233,-1.2508 4.1388,-1.2062 5.0028,-2.8909 5.6324,-4.0464 0.3859,2.2602 -0.3855,3.661 -0.2401,3.707 4.6682,-1.6876 4.7128,-7.2218 4.7128,-7.2218 0,0 -0.0452,0 0.5834,-0.24 0.62,-0.2398 2.3548,-0.2894 3.1261,-0.2894 0.7687,0 0.864,-0.4814 0.864,-0.4814 0,0 -1.8252,-1.78 -2.1647,-2.2578 -0.3346,-0.4835 -0.4821,-0.6296 -0.2421,-2.0729 0.2421,-1.442 -0.3372,-1.6848 -0.3372,-1.6848 0,0 -1.7745,-0.0478 -2.4039,0 -0.3264,0.0383 -0.7207,0.1941 -0.7207,-1.2498 0,-1.4469 2.5958,-1.9764 2.5958,-1.9764 0,0 1.4349,-0.3338 3.8013,-1.1504 2.5313,-0.8689 3.2276,-3.6617 2.9877,-3.8057 -0.5786,-0.0945 -1.2027,-0.0945 -1.974,-0.0945 -0.5544,-0.0134 -1.1082,-0.1489 -1.3008,-0.4349 5.295,-1.3486 3.8146,-5.5598 3.8146,-5.5598 0,0 -1.5023,1.4802 -2.9229,1.4328 -1.0238,-0.0235 -1.7683,-0.0479 -2.429,-0.7609 -0.5814,-0.6003 -0.3394,-3.5829 -0.3394,-4.4977 -1.9346,1.4713 -4.3789,1.6736 -5.0654,1.6486 -0.5663,-0.0264 -1.8739,-0.0723 -1.8295,-2.2628 0.0474,-2.2231 0.7918,-3.3298 2.1321,-4.8463 1.3356,-1.5177 1.5123,-1.2298 2.3114,-1.1707 0.791,0.0591 0.9364,0.7972 0.9364,0.7972 0,0 -1.0113,1.1172 -1.6626,2.1758 -0.6495,1.0608 -0.2023,1.9972 0.1698,2.8528 0.3714,0.8549 0.8438,0.7346 0.953,0.6037 0.8764,-1.0127 1.5984,-1.59 2.6939,-1.5295 1.0928,0.0591 1.7196,2.6953 1.7439,3.5029 0.0354,0.8305 0.2657,0.9121 0.6051,0.8043 2.6357,-1.9505 1.6676,-4.7872 1.4303,-5.8 1.2729,0.3486 2.4534,1.5999 2.4534,1.5999 0,0 0.9495,-0.697 1.3231,-2.6725 0.4451,-2.4179 -0.8411,-3.4766 -1.7071,-4.4399 3.0656,-3.1977 2.0345,-5.6414 1.1533,-6.9525 -0.8786,-1.3134 -0.7937,-0.7952 -1.0233,-0.6393 -0.9265,3.0801 -2.5013,4.1158 -3.5976,3.8626 1.0588,-12.4901 -5.1842,-25.7127 -5.1842,-25.7127 0,0 -1.0588,-2.1682 -1.2508,-8.364 -0.2073,-6.6924 3.4724,-9.5193 4.4755,-10.1197 0.9984,-0.6024 1.1038,-0.3017 2.0095,0.5036 1.2134,1.0706 0.7562,1.4921 0.6637,1.6124 -2.975,2.322 -4.3829,3.5259 -4.4301,6.0921 -0.05,2.5584 0.8388,4.2947 1.8044,5.0764 1.0557,0.9121 0.7686,-0.315 0.8091,-0.1453 0.0674,-3.2853 1.9093,-3.6221 2.7182,-3.8239 0.8064,-0.2079 0.6367,0.4536 0.6367,0.4536 0,0 -0.2526,0.9392 -0.3145,3.2757 -0.0578,2.1027 0.5286,2.1166 0.5286,2.1166 0,0 1.9527,1.5638 3.8766,4.2245 1.5632,2.1619 0.8543,5.3756 1.1658,5.569 3.7319,-2.5732 3.7173,-5.5822 3.8774,-7.8931 3.1747,-0.6609 2.4409,-5.0778 2.1264,-5.0431 -2.0672,0.2923 -3.3431,0.0238 -3.3703,-1.323 -0.0193,-1.3481 0.4119,-1.8287 1.1834,-3.0063 0.7686,-1.1811 0.3818,-2.9376 0.3818,-2.9376 0,0 0.5543,-0.2045 0.9655,0.1684 0.8895,0.8542 0.4076,0.8896 2.1146,0.8896 1.3008,0.0007 1.0393,-0.3598 0.9662,-0.8889z"/>
   <path class="fil1" d="M50.8908 124.7944c0,0 -2.3558,0.6259 -6.3653,0.7686 -4.0061,0.1434 -5.2344,-0.3596 -5.8737,-1.467 0.7588,0.0105 3.3826,-0.3368 4.0965,-0.6623 -0.4495,-0.708 -2,-4.4253 -0.7736,-8.0835 -0.829,0 -2.8165,0.4562 -4.4886,2.4395 -0.1919,0.2539 -0.5288,-0.1302 -0.3946,-1.3468 0.1302,-1.2138 0.9739,-3.1539 3.7995,-5.2705 -1.2751,0.0606 -2.621,0.2636 -3.8487,1.805 -1.2286,1.5416 -2.1292,2.9508 -2.3817,4.2975 -0.0397,0.4695 -1.5428,-0.1954 -1.3501,-2.8888 0.1946,-2.6941 1.8515,-6.5116 5.212,-9.7725 -0.4445,0.0604 -1.0363,-0.1079 -2.7095,1.1067 -1.8069,1.3265 -2.4281,2.4686 -2.4281,2.4686 0,0 -0.9885,-2.2127 0,-4.0441 0.9855,-1.8289 2.9102,-4.0436 2.9102,-4.0436 0,0 1.3259,-2.3338 -0.1196,-3.2951 -1.4454,-0.9633 -2.5514,-1.3493 -2.5514,-1.3493 0,0 -0.6489,-0.9371 0.4348,-1.5151 0.6489,-0.263 1.3202,-0.0486 1.3202,-0.0486 0,0 -0.3464,-1.5876 0.2915,-2.285 0.4577,-0.5295 0.937,-0.6977 1.7306,-0.7466 -0.0345,-0.7589 -0.1667,-2.8755 -0.8785,-4.4532 -0.0347,-0.0486 0.1441,-1.0101 1.7321,0.1823 1.0009,0.7456 1.3154,1.3243 1.3154,1.3243 0,0 1.2353,-1.4677 -0.1822,-5.5466 -0.0452,-0.1239 2.2621,-0.7699 2.6837,3.7868 1.5031,-0.4445 5.4269,0.0871 5.2447,6.5825 -0.1892,6.7272 -2.4561,8.0753 -2.4561,8.0753 0,0 1.6027,0.4931 2.8177,-0.0584 0.8188,-0.3728 2.2866,-1.7711 2.2866,-1.7711 0,0 0.7094,-0.6726 0.5167,1.6027 -0.1544,1.9124 -1.8871,4.6898 -2.6941,5.9426 -0.8084,1.2528 -2.1541,3.08 -2.3454,5.6802 -0.1955,2.5952 1.7076,4.1854 2.7657,4.234 1.1553,0.0584 2.4438,-0.0709 3.949,-1.707 0.1793,-0.1814 1.0204,0.3382 1.6346,1.7438 -0.0976,-1.9607 -0.7686,-4.4406 -1.1532,-5.4047 -0.1697,-0.5148 0.0223,-0.8271 1.021,-0.8271 1.0009,0 1.7452,0.1558 1.7696,0.3478 0.0258,0.1934 -0.7235,2.42 3.874,6.6179 0.0361,0.0732 -4.1285,-6.2583 -1.6002,-8.2805 0.0628,-0.0222 0.6371,-0.3116 0.8069,1.6001 0.1198,1.2068 1.4081,0.6392 1.4081,0.6392 0,0 0.5036,-1.1547 1.1284,-1.1547 0.5291,0 -0.165,1.1547 0.3866,2.4075 0.6734,1.5415 1.6492,2.0318 2.4937,2.4791 0.2025,-0.1002 0.215,-0.3623 0.215,-0.3623 0,0 -0.242,-1.383 0.0718,-2.2602 0.0729,-0.1934 0.1174,-0.4835 0.482,-0.025 0.3595,0.4563 2.1417,2.2851 5.2699,2.0929 2.7782,-0.1558 2.4789,-0.146 2.4789,-0.146 0,0 0.8904,-0.1196 -0.0256,0.6755 -0.6838,0.578 -1.707,1.3104 -3.44,1.4677 -0.7962,0.0737 -3.2844,-0.0848 -5.2969,1.6618 -0.6142,0.4925 -1.6625,1.8163 -2.5985,4.9813 -1.0083,3.3695 -4.4854,6.1824 -8.0378,7.0853 -0.1448,-0.633 -0.3241,-1.2882 0.1927,-2.5007 -1.1791,0.6726 -2.2391,1.3245 -5.1253,1.5755 -2.8882,0.2533 -3.3479,-0.6115 -3.3479,-0.6115 0,0 0.0153,-0.2546 0.2678,-0.3302 0.507,-0.19 4.2238,-1.4267 5.859,-3.4141z"/>
   <path class="fil1" d="M55.8736 131.0756c0,0 -0.7117,-0.3269 -0.1927,-0.566 0.5168,-0.2394 4.152,-2.7296 5.3296,-4.6682 1.1782,-1.9372 1.7919,-3.7661 1.7919,-3.7661 0,0 0.9072,-2.7448 2.4096,-3.6338 1.5051,-0.8925 2.6933,-1.1783 3.0676,-1.1783 0.3742,0 0.5168,0.178 0.4195,0.3728 0,0.468 -0.3723,0.6003 -0.4697,1.1296 -0.0946,0.5287 0,1.4212 0,1.8427 0,0.4194 0.2199,1.899 0.6644,2.0777 0.5661,0.2303 0.5161,0.6643 0.3721,0.9864 -0.1426,0.327 -1.3231,3.7319 -3.1177,5.8505 -1.7201,2.0194 -2.4513,2.2636 -3.4877,2.3123 -1.0358,0.046 -5.8014,-0.096 -6.7869,-0.7596z"/>
   <path class="fil1" d="M65.1395 133.1346c0,0 -0.0349,-0.8438 0.1668,-0.9997 0.327,-0.2398 1.5527,-0.8889 2.0722,-1.7076 0.4319,-0.6615 0.7215,-1.4691 0.8507,-2.7447 0.0375,-0.5413 0.0599,-0.6755 0.7484,-0.6385 0.373,0.758 1.0246,0.6872 1.4184,0.7365 0.8543,0.1043 0.951,-0.3873 1.2758,-0.4222 0.3743,0.0473 0.4717,-0.1559 0.4717,0.7465 0,0.9013 -0.5688,3.0181 -1.9497,4.1505 -1.5178,1.2395 -2.3938,1.2527 -2.9626,1.2986 -0.5641,0.0481 -2.0673,-0.1439 -2.0917,-0.4194z"/>
   <path class="fil1" d="M37.2959 146.406c0,0 -3.1774,-0.0863 -3.6616,-2.6218 -0.2622,-1.3466 -0.0098,-2.4797 -0.3691,-3.251 -0.6268,-1.2021 -1.4455,-1.9228 -3.8767,-2.6489 -0.1669,-0.1295 -0.3846,-0.334 0.0472,-0.5288 0.2198,-0.0926 2.4793,-0.5294 4.7907,0.6539 0.1447,-0.2678 0.0244,-2.5076 -0.6019,-3.7549 -0.6265,-1.2549 -0.5291,-1.1115 -0.5291,-1.1115 0,0 0.1425,-0.286 0.6265,-0.2378 0.4793,0.0485 2.9362,0.2894 4.429,1.8766 0.1419,0.2399 0.5266,0.288 0.7687,0.0946 0.2391,-0.1912 1.3452,-0.5751 2.5985,-0.2865 1.2535,0.2865 2.6483,1.0579 3.7543,2.1654 1.0587,1.0579 2.7935,2.3099 5.345,2.5041 2.5509,0.1926 3.9936,0.6274 3.9936,0.6274 0,0 1.73,0.142 2.1165,-0.0514 0.3848,-0.192 0.5324,-0.0948 -0.0946,-0.4808 -0.6265,-0.3866 -1.9719,-2.0701 -2.3587,-3.3674 0.1419,-0.1961 0.1949,-0.1447 0.7214,-0.0494 0.3964,0.0702 2.5036,0.866 4.6682,0.7229 2.1687,-0.1441 5.0069,-1.7837 5.0069,-1.7837 0,0 0.2873,-0.2386 0.6247,-0.0466 0.3394,0.1913 2.3241,1.9734 6.0184,-0.6259 0.4791,-0.3346 1.0203,-0.7206 2.4087,-0.0955 0.7158,0.3382 1.2979,0.3382 1.2979,0.3382 0,0 1.5999,1.298 4.1861,1.298 2.5981,0 3.5594,1.5393 3.5594,1.5393 0,0 1.5902,2.6469 2.4088,2.9856 0.8208,0.3346 2.7435,0.3854 2.7435,0.3854 0,0 3.0336,-0.3395 5.4389,1.442 2.4067,1.7822 2.9354,3.3708 3.2708,5.7798 0.3393,2.4046 1.4445,4.4267 2.0211,5.1933 0.5816,0.77 1.7482,1.2291 2.4069,1.2549 0.9161,0.0465 2.3171,-1.106 2.8909,-3.6088 0.5786,-2.5048 0.2151,-5.1536 -0.5293,-8.8599 -1.0115,-4.9541 -4.9101,-15.0631 -5.7764,-20.3602 -0.6142,-3.7903 -0.8185,-9.5284 1.8797,-13.9099 2.6941,-4.3788 6.3506,-5.4882 6.3506,-5.4882 0,0 1.829,-0.2882 3.6618,-0.0459 1.8252,0.2412 4.7483,0.8896 6.4476,-0.5773 0.3846,-0.3382 0.6718,-0.6268 0.6718,-0.6268 0,0 0.2316,1.4552 -0.8167,3.0328 -0.9034,1.4081 -1.8285,2.3588 -1.8285,2.3588 0,0 -0.0983,0.2888 0.5757,0.2888 0.672,0 2.9635,0.0257 4.2363,-1.2529 0.0974,-0.0973 0.5295,-0.5551 0.217,0.4835 -0.1919,0.72 -0.5767,1.442 -2.2391,2.6002 -0.1448,0.1661 0.1195,0.2621 0.699,0.2398 0.5787,-0.0228 3.1728,0.6484 3.6566,2.1656 -0.4839,0.0479 -1.4202,0.0479 -1.5872,0 -0.1725,-0.0487 -0.6238,-0.2887 -0.8188,-0.2178 -0.1926,0.0737 -0.2142,0.2178 -0.1425,1.4217 0.0695,1.2008 -0.0501,2.5007 -0.7937,3.5595 -0.7486,1.0608 -1.952,3.9725 -0.0723,4.8629 1.8773,0.8889 2.6208,0.8437 2.6208,0.8437 0,0 0.3868,-0.0264 -0.0249,0.528 -0.4092,0.5532 -1.0331,1.5874 -2.9099,2.1884 0.1219,0.5308 1.2781,4.1159 -0.3374,6.1379 -0.1202,0.1225 -0.3122,0.0995 -0.3122,-0.361 0,-0.4576 -0.1669,-2.3203 -2.7206,-5.2453 -2.214,-2.5273 -2.454,-2.7686 -2.5515,-4.4033 -0.0952,-1.6367 0.0501,-2.9382 0.0501,-2.9382 0,0 -0.1697,-1.4426 -1.4204,-1.4426 -1.2526,0 -2.0944,0.6741 -2.6209,1.1324 -0.5294,0.4564 -1.083,1.5637 -1.083,1.5637 0,0 -0.1226,0.4312 -0.2678,-0.1947 -0.1447,-0.6233 -0.6266,-2.9592 0.6719,-4.7378 1.3029,-1.7822 2.4081,-2.5063 2.4081,-2.5063 0,0 0.7249,-0.7692 0.8188,-1.25 0.098,-0.4828 0,-1.3014 -0.2894,-1.6353 -0.2893,-0.3396 -1.492,-1.4935 -1.492,-1.4935 0,0 -1.0581,-0.3853 -1.7329,-0.3367 -0.6733,0.0459 -1.6825,0.0459 -2.7404,1.3954 -0.9762,1.2146 -3.8517,4.719 -3.9992,9.532 -0.1419,4.8142 3.0355,12.7523 3.0355,12.7523 0,0 4.0415,10.1557 4.0415,16.9922 0,6.8363 -0.1919,6.6881 -0.1919,6.6881 0,0 0.3367,0.9662 1.2007,0.8242 0.8689,-0.1496 2.863,-1.3611 3.4196,-2.2175 0.1918,-0.2872 0.3874,-0.3387 0.3874,-0.3387 0,0 0.6259,1.3001 -0.1455,2.5048 -0.7714,1.2006 -1.1553,1.3976 -1.1553,1.3976 0,0 -0.0981,0.5294 0.1441,0.7192 0.2398,0.1934 2.6015,1.9268 1.8272,4.623 -0.2837,1.0101 -0.2837,0.8189 -0.2837,0.8189 0,0 -1.5089,-1.1333 -2.8445,-1.7844 -0.5758,-0.2887 -0.768,-0.1898 -0.6261,0.2935 0.1457,0.4773 0.6261,3.9442 0,4.9569 -0.0974,0.2371 -0.194,0.4293 -0.3837,-0.5314 -0.1928,-0.9641 -0.9141,-2.8875 -1.8776,-3.0809 -0.9611,-0.1919 -2.5032,0.1934 -3.32,1.3954 -0.3847,-0.4312 -0.4591,-0.685 -0.4312,-1.2491 0.0465,-0.8189 0.6462,-1.5653 0.9134,-2.0215 0.3866,-0.6295 1.2499,-1.4455 0.9133,-1.9749 -0.3367,-0.5314 -1.154,-1.06 -1.8267,-1.06 -0.8188,0 -1.207,-0.046 -1.9295,0.7206 -0.7194,0.7728 -2.1274,1.3981 -3.2257,4.9124 0,0.4319 -0.0924,1.4906 -0.0924,1.4906 0,0 0.3817,2.1654 1.2478,2.5062 0.866,0.3346 1.7348,0.3346 1.7348,0.3346 0,0 2.9376,-0.3853 3.565,-0.578 0.19,-0.0466 0.4765,-0.2887 0.3339,0.3853 -0.1439,0.6727 -0.242,2.6482 1.0144,3.2728 1.3918,0.6762 3.3637,0.5759 4.1832,0.2909 0.2419,-0.1002 0.5758,-0.1594 0.2895,0.2851 -0.3368,0.5294 -0.3714,2.0847 -4.4727,2.6489 -1.0644,0.1434 -0.917,0.1434 -0.917,0.1434 0,0 -0.1716,0.9976 0.4765,1.4935 0.6769,0.5285 1.9275,0.477 3.9038,0.4312 0.2255,0 0.6248,0.8172 -2.3609,1.8787 -3.2498,1.1429 -4.1831,1.3474 -5.2447,2.1655 -1.0579,0.8165 -1.3481,1.8294 -1.4002,2.2147 -0.0446,0.3846 0.3875,1.4428 0.918,1.5873 0.5295,0.1461 1.5437,0.2415 2.0228,0.192 0.4794,-0.0459 1.298,0 0.9134,0.432 -0.3869,0.4368 -0.9605,1.1581 -0.864,1.876 0.0925,0.7242 0.9112,1.6409 1.2959,1.8822 0.3846,0.2373 0.7214,0.526 0.0493,0.5782 -0.6705,0.0444 -2.059,0.2149 -2.5006,0.9605 -0.4118,1.4927 -0.6295,3.8982 -2.3115,5.5837 -0.1948,0.1438 -0.1453,-0.3854 -0.1453,-0.6735 0,-0.2895 -0.0495,-2.6022 -0.4843,-2.8409 -0.4319,-0.2393 -0.7185,-0.3366 -1.0108,-0.0974 -0.2872,0.2435 -2.02,2.6008 -2.2622,2.8874 -0.2371,0.2908 -1.0559,1.5415 -1.7793,1.7322 -0.7212,0.1946 -1.8781,0.0993 -1.8781,0.0993 0,0 -1.3473,0.286 -1.6339,1.78 -0.1475,1.5417 0.624,2.4055 0.624,2.4055 0,0 0.2411,0.434 -0.1483,0.3853 -0.3812,-0.0459 -1.7397,0.1098 -3.9434,-2.8373 -0.8661,-1.1575 -1.3006,-1.1096 -1.3006,-1.1096 0,0 -0.9607,0.1907 -1.5874,-0.0953 -0.6247,-0.2901 -1.1533,-0.6287 -1.7794,-0.1898 -0.2297,0.1544 -1.0211,0.3339 -1.3489,4.1366 -0.0375,0.361 -0.4318,-0.3367 -0.674,-1.012 -0.2413,-0.6714 -0.7706,-1.8266 -0.7706,-3.4635 0,-1.6388 1.6347,-3.6581 1.6347,-3.6581 0,0 -0.7186,-1.1109 -1.2953,-1.2521 -0.5795,-0.1453 -1.1581,-0.1948 -1.7328,-0.1948 -0.5793,0 -2.0714,0.6296 -2.5055,1.1074 -0.2398,0.1434 -0.672,0.2434 -0.1425,-0.7213 0.5291,-0.9634 0.6739,-1.6833 2.7404,-1.5401 0.1948,0 0.8216,-0.3353 1.3983,-0.9162 0.5744,-0.5773 1.4907,-2.0679 2.7927,-2.6941 1.2959,-0.6237 1.9722,-0.6237 2.9836,-0.578 1.0128,0.0459 4.8128,0.9148 5.969,1.1075 1.1526,0.1948 3.9829,-0.2275 5.2914,-2.2121 1.1582,-1.7348 2.4065,-4.6201 0.9141,-8.425 -0.1428,-0.2415 -0.1901,-0.1684 -0.3576,0.1202 -0.1718,0.2901 -3.1778,5.656 -7.2693,5.1287 -0.192,-0.0486 1.4456,-3.6811 1.0837,-8.7381 -0.0248,-2.5988 0.8884,-4.6182 0.8884,-4.6182 0,0 -0.4035,0.3096 -0.7465,0.9099 -0.3365,0.6025 -2.2362,4.9588 -5.5064,6.2568 -0.3867,0.124 -0.5544,0 -0.4095,-0.3595 0.1425,-0.3583 1.695,-3.1657 1.5628,-6.904 -0.075,-2.157 -0.1105,-3.0835 -0.1105,-3.0835 0,0 -0.4189,0.3507 -0.6116,0.578 -0.2664,0.3401 -1.4821,0.8305 -1.4821,0.8305 0,0 -0.8641,0.4711 -0.926,-1.0454 -0.0575,-1.5185 -0.996,-3.0091 -1.4683,-3.6367 -0.2297,-0.3123 -0.4091,-1.4065 -0.4215,-2.5 0,-0.8543 0.2447,-2.0117 1.2303,-2.6 0.9835,-0.5878 3.8141,-1.0484 4.4505,-2.3825 0.6615,-1.3858 0.3372,-4.0951 -0.2546,-4.9854 0,1.0023 0.7095,4.4685 -2.3337,5.5481 -2.5508,0.5314 -4.1485,1.7125 -4.3629,3.5655 -0.1481,1.2732 0.3687,2.8368 0.3687,2.8368 0,0 0.3017,0.6295 -0.5885,0.354 -0.8917,-0.2817 -1.3981,-0.4842 -1.3981,-0.4842 0,0 -0.9962,-0.1125 -1.2987,0.1566 -0.7235,0.6867 -1.986,1.4329 -1.1284,2.1648 0.8543,0.7339 4.4386,3.2511 5.1226,5.4263 0.6873,2.1807 0.3518,4.9339 0.3518,4.9339 0,0 -0.1222,0.3729 -0.2789,0 -0.4355,-1.1338 -1.613,-3.5378 -3.4885,-4.7412 -0.2663,-0.1927 -0.2288,0.1342 -0.0273,0.4437 0.3243,0.5196 1.0965,1.9172 0.8671,3.044 -0.2277,1.1326 -0.684,2.4083 -0.684,2.4083 0,0 0.0119,0.6142 -0.9168,-0.3729 -0.9258,-0.9837 -1.1783,-1.0129 -1.1783,-1.0129 0,0 0.6046,4.1291 -0.3116,5.4293 -0.1223,0.2537 -0.2052,0.4229 -0.7937,-0.4801 -0.5912,-0.9029 -1.0239,-2.011 -1.5157,-2.5154 -0.4959,-0.5036 -1.0011,-0.6164 -1.4225,0 -0.4222,0.6151 -1.2381,1.6493 -1.5024,1.9979 -0.0828,0.1091 -0.4794,1.0567 -0.1677,1.2979 0.5892,0.4703 1.1186,0.7339 1.4658,0.8334 0.3493,0.0939 1.5746,0.5419 1.6499,2.4514 0.0725,1.9143 -0.0224,4.225 -1.1553,5.4055 -0.1926,0.2171 -0.3248,0.0332 -0.4446,-0.1683 -0.1196,-0.2046 -0.5419,-0.8049 -0.7115,-1.1581 -0.1677,-0.3471 -0.7192,-1.0928 -0.9487,-1.2932 -0.2317,-0.2094 -1.0379,-0.8458 -1.7224,-0.6414 0.1196,0.4196 0.0124,1.1297 -0.3367,1.5144 -0.4091,0.4592 -2.0096,1.7927 -2.0096,1.7927 0,0 -0.1426,0.2302 -0.6616,0.0744 -0.5195,-0.1587 -1.1685,-0.8889 -1.4203,-1.0601 -0.2518,-0.1696 -0.4445,-0.3478 -0.6837,-0.3123 -0.2428,0.0347 -0.4349,0.0982 -0.4697,0.7233 -0.0369,0.624 -0.0619,1.5159 -0.0619,2.1391 0,0.6267 -0.073,1.227 -0.4069,0.5681 -0.1822,-0.3734 -1.3237,-2.1326 -2.0347,-2.6021 -0.7109,-0.4689 -1.9615,-0.8416 -2.7803,-0.8765 -0.8187,-0.0368 -1.8279,0.0584 -1.8279,0.0584 0,0 -0.302,0.1127 -0.0746,1.001 0.2546,0.987 0.5566,1.9846 0.3771,2.6238 -0.0627,0.1878 -0.734,-0.0132 -0.734,-0.0132 0,0 -0.8089,-0.9015 -1.6507,-2.0819 -0.9509,-1.3126 -1.9512,-1.8294 -3.1052,-1.8899 -1.1553,-0.057 -2.4783,0.8792 -2.8275,1.3947 -0.1073,0.0237 -0.3124,0.1948 -0.1574,-0.3854 0.1574,-0.578 0.3748,-1.9484 -0.0346,-2.4638 -0.4091,-0.5189 -1.5527,-0.763 -1.5053,-2.0812 0.0465,-1.3237 0.1446,-1.0719 0.1322,-2.0213 -0.0098,-0.9023 -0.7813,-1.1451 -1.3107,-1.17 -0.5292,-0.0217 -2.1166,-0.0466 -2.9131,0.1934 -0.297,0.1195 -1.0086,0.3143 0.3875,-0.8154 1.3954,-1.1317 3.5239,-1.1123 3.5239,-1.1123 0,0 -0.0245,-1.7041 -4.0186,-3.8363 -0.1676,-0.1077 -0.3721,-0.3219 0.3618,-0.4096 0.7364,-0.0808 1.6479,-0.0459 2.1638,0 0.5197,0.0479 1.6847,-0.1196 2.2142,-0.1684 0.5321,-0.0466 0.7241,-0.169 1.1561,-0.2171 0.5793,-0.0591 1.2633,-0.13 1.8169,-0.1106 0.6265,0.0411 2.5013,0.798 3.0828,1.4596 0.5162,0.578 0.841,1.3216 0.841,2.0575 0,0.3485 0.0953,0.3735 0.4319,0.3485 0.3373,-0.0257 2.9583,-0.3116 4.3906,0.2296 1.4337,0.5419 3.4802,1.9346 5.1397,1.8893 1.6356,-0.0619 3.5373,-0.9411 5.0175,-3.599 1.4782,-2.6586 1.2633,-5.3534 1.2633,-5.3534 0,0 -2.9604,3.0782 -6.1103,3.7403 0.9955,-1.1303 3.067,-3.0795 3.3918,-4.7745 -1.3355,0.5905 -2.7559,1.3702 -5.9703,1.3925 0.6386,-0.4069 3.4448,-0.8312 4.9019,-4.0052 -1.3731,0.363 -5.8882,0.9378 -6.5476,0.9378 -0.6637,0 -0.5788,0.0744 0.13,-0.4447 0.7114,-0.5167 3.3695,-3.1878 4.3336,-4.8851 0.1447,-0.2547 0.3366,-0.9857 0.3366,-0.9857 0,0 0.2903,-1.049 0.7848,-2.4214 0.2266,-0.4062 0.514,-0.7444 0.514,-0.7444 0,0 0.6762,-0.6023 -0.3472,-0.8172 -1.0266,-0.2164 -1.0837,-0.2297 -1.9895,-0.2659 -0.8986,-0.0347 -2.4867,0.4585 -2.4867,0.4585 0,0 -0.3269,-1.3223 1.8996,-2.8276 2.2275,-1.5067 7.8456,-2.1913 7.8456,-2.1913l5.6191 -0.386 3.9446 -0.13c0,0 -0.1876,-0.5455 -0.8415,-0.5455 -0.649,0 -8.8569,0.3291 -11.151,-4.5686 -0.821,0.6587 -1.687,1.8301 -2.8652,2.5472 0.0117,-0.6719 -0.0723,-3.693 -0.6721,-4.4524 -0.5194,0.6427 -2.3742,3.8521 -5.5515,5.2989 -0.0821,-1.3126 0.0976,-3.4688 -0.1196,-4.8252 -0.6838,1.6486 -1.7099,3.9781 -5.1002,5.1245 -0.3011,-0.2421 -0.3715,-0.0975 -0.2017,-0.5544 0.1648,-0.4579 0.9585,-2.1654 0.7534,-3.899 -0.0346,-0.3347 -0.4911,-0.3347 -1.1776,0.8563 -0.7596,1.3091 -3.4148,3.4675 -5.4648,3.9315 0.7966,-1.0579 1.6877,-3.2589 1.5206,-4.5707 -0.8937,1.2283 -2.5912,3.224 -5.4667,4.1158 -2.8756,0.8889 -2.0819,-2.4658 -2.0819,-2.4658 0,0 -0.3617,-0.3382 -0.6239,0.0479 -0.2651,0.3839 -0.756,2.034 -3.0933,2.8401 -2.3345,0.8057 -3.0078,0.3854 -3.0078,0.3854 0,0 2.5515,-2.5633 2.6962,-3.3612 0.094,-0.5043 -0.0363,-0.7317 -0.0363,-0.7317z"/>
   <path class="fil1" d="M86.774 94.1114c0,0 -0.4465,-0.4583 -0.4791,-0.9516 -0.0503,-0.7102 0.0576,-1.2033 0.1918,-1.3732 0.1294,-0.1653 0.5766,-0.153 1.1186,-0.2044 0.5738,0.0869 0.9258,0.663 0.9258,0.663 0,0 0.277,0.4576 0.5773,1.083 0.3388,0.6628 0.3388,0.7831 0.3388,0.7831 0,0 -0.2065,0.3018 -0.544,0.5064 -0.4116,0.2268 -1.4699,0.3102 -2.1293,-0.5064z"/>
   <path class="fil1" d="M82.2484 96.6372c0,0 -0.4067,0.8207 -0.5293,3.1539 -0.0452,1.0824 0.1233,1.96 0.1233,1.96 0,0 0.1696,1.0198 0.1166,2.3693 -0.045,1.3508 -0.5013,2.1654 -0.8882,2.6015 -0.3853,0.434 -0.8889,0.6608 -1.1562,0.359 -0.3963,-0.4438 -0.7211,-0.9383 -0.4095,-1.3731 0.3025,-0.3952 0.7094,-0.8396 0.722,-1.5374 0,-1.0134 0,-1.9608 -0.0947,-2.2501 -0.0952,-0.2888 -0.4549,-0.4084 -0.5522,-0.6977 -0.0975,-0.2908 -0.1949,-0.9864 -0.1949,-1.6249 0,-0.6366 0.1197,-1.2535 0.1197,-1.2535 0,0 0.1224,-0.7687 0.7963,-1.4176 0.6847,-0.6505 0.8418,-0.6144 0.8418,-0.6144l1.0609 -0.5773c-0.0008,0 0.6705,-0.0125 0.0443,0.9023zm-6.4627 -1.9609l0 0c0,0 -0.9111,-0.0613 -1.5352,-0.6616 -0.9035,-0.8924 -1.0484,-1.0342 -0.784,-1.5874 0.4688,-0.9279 0.8669,-1.1685 0.8669,-1.1685 0,0 0.3017,-0.0835 0.9959,-0.0739 0.7832,0.0251 1.1581,0 1.1581,0 0,0 0.5738,0.2297 1.0823,0.7367 0.5046,0.5057 0.6498,0.7325 1.3239,0.9739 0.5765,0.2143 0.9258,0.3018 1.3461,0.3018 1.0473,0.1426 1.2421,-0.0237 1.2179,0.6226 -0.028,0.6881 -0.2679,0.9148 -1.7956,0.9273l-3.8764 -0.0709zm19.6152 33.3422l0 0c0,0 -1.4426,-1.3447 -1.9497,-2.1161 -0.5043,-0.7726 -1.2258,-3.5871 -1.2258,-5.3192 0,-1.7342 0.5065,-4.5486 0.6019,-5.5466 0.0926,-0.9996 0.3373,-4.5381 -0.4098,-7.6434 -0.7435,-3.1031 -2.3358,-5.459 -2.5035,-5.8465 -0.1669,-0.3854 -0.4814,-1.1199 -0.2497,-1.949 0.2275,-0.8319 -0.0402,-1.4454 -0.2895,-1.7315 -0.2525,-0.2908 -0.6016,-0.9509 -0.8091,-1.6388 -0.2169,-0.6838 -0.6015,-0.6484 -1.887,-0.6003 -0.8534,0.0132 -1.3723,0.3387 -1.6966,0.3832 -0.3351,0.0488 -0.4317,-0.1203 -0.5774,-0.37 -0.1946,-0.3499 -0.0368,-0.5905 0.4446,-0.9502 0.699,-0.5071 0.0347,-0.9064 0.0347,-0.9064 0,0 -2.3434,-1.636 -2.6684,-1.9247 -0.3268,-0.2886 -1.3508,-1.6716 -1.7348,-2.2134 -0.3846,-0.5426 -0.7491,-0.7101 -1.0961,-0.8312 -0.3096,-0.0932 -3.7166,-0.263 -4.4158,-0.0932 -0.6968,0.1668 -1.9219,1.3465 -1.9219,1.3465 0,0 -1.291,1.0936 -2.157,1.5388 -0.8056,0.3965 -3.3347,1.444 -4.1382,1.7592 -0.8062,0.3109 -1.1938,0.9996 -1.1938,0.9996 0,0 -0.0575,0.6349 -0.3462,1.0933 -0.3401,0.5641 0.1566,0.8891 0.4409,0.9246 0.2929,0.0368 1.0386,0.2309 1.3634,0.6142 0.3241,0.3853 0.1794,1.7932 0.1794,1.7932 -0.1571,0.8167 1.8518,1.2898 2.2962,1.2285 0.4445,-0.0598 1.1582,-0.829 1.1582,-0.829 0,0 1.4183,-1.5417 1.9719,-1.9756 0.5553,-0.4313 1.4936,-0.2171 1.8175,-0.0613 0.3252,0.1587 0.8787,0.6003 1.6471,1.4803 0.7744,0.8813 -0.2739,2.3234 -0.2739,2.3234 0,0 -1.1582,1.814 -1.9247,2.31 -0.7713,0.4939 -2.0839,0.4327 -2.4714,0.2178 -0.3819,-0.2178 -1.707,-0.6874 -2.2941,-0.7589 -0.7832,-0.1551 -0.8091,-0.1453 -1.6869,1.7202 0,0.2664 0.0119,0.5907 0.2288,1.0837 0.2547,0.5878 0.3375,1.0942 0.2652,1.2884 -0.0725,0.1919 -0.4598,0.1919 -0.8064,0.1335 -0.2621,-0.0487 -0.4547,0.0584 -0.4916,1.0462 -0.0473,1.4176 1.2131,1.3229 1.2131,1.3229 0,0 1.5525,-0.0257 3.3946,-0.0132 0.8561,0.0132 0.4325,0.4098 1.3007,0.3971 0.9113,0 1.5255,0.1323 2.4987,-0.1668 1.4202,-0.4346 3.0356,-1.7592 3.0356,-1.7592 0,0 0.2169,0.8189 0.1047,1.1561 -0.7066,0.6623 -0.4917,2.3109 -0.7657,2.6342 -0.9536,0.0857 -0.5891,1.1465 -0.772,1.3253 -0.4445,0.338 -2.6934,1.6484 -3.8515,2.5256 -1.1554,0.8794 -2.1642,2.3131 -2.7561,3.6834 -0.324,0.7338 -0.2142,1.8175 0.0126,2.4178 1.0587,-2.5862 2.7086,-3.9822 4.5611,-5.0543 2.1541,-1.2611 2.7955,-2.5855 3.068,-3.0801 0.2764,-0.4923 0.6735,-0.6594 0.6735,-0.6594 0,0 -0.0577,1.154 -0.6115,2.8611 -1.0115,3.1174 -3.9015,4.4066 -3.9015,4.4066 0,0 -1.6453,0.8765 -2.6463,2.5249 -0.9381,1.5519 -0.491,3.5129 -0.491,3.5129 0,0 0.5036,-0.647 1.0581,-1.4782 0.5544,-0.8298 1.8649,-0.7226 1.8649,-0.7226 0,0 -0.2301,0.1786 -0.2301,4.1867 0.1571,4.6208 1.7132,4.7899 1.7132,4.7899 0,0 -0.2072,-3.6249 0.6112,-8.798 0.8161,-5.1711 2.2491,-6.001 3.5623,-7.2189 1.3125,-1.2139 1.7069,-3.4522 1.757,-5.4007 0.0223,-0.7588 -0.0848,-1.337 0.2276,-1.6742 0.3109,-0.3109 0.6011,-0.3478 0.8807,-0.012 0.2748,0.3368 0.8513,1.0575 1.0461,1.0345 0.192,-0.023 0.4099,-0.215 0.6588,-2.0804 0.4965,-3.6805 -0.1044,-5.8363 -0.4438,-6.7746 -0.3372,-0.9406 0.062,-1.4817 0.062,-1.4817 0,0 0.6517,-0.6003 1.5283,-0.8145 0.8758,-0.2179 1.3104,0.0194 1.6567,0.8145 0.3875,0.8662 1.1562,0.062 1.76,1.0962 0.4946,2.3602 1.4934,3.0344 1.8746,3.3564 0.384,0.3241 0.1126,0.7242 0.1126,0.7242 0,0 0.0445,-0.0613 -0.6044,0.8172 -0.6469,0.8773 -0.8437,0.1211 -0.7713,-0.5419 -0.0099,-0.4806 -0.215,-0.9021 -0.782,-1.3465 -0.5788,-0.4438 -0.6386,0.215 -0.7437,0.4097 0,0.3117 0.4167,0.6616 0.8669,3.2471 0.4438,2.5877 0.0472,5.7651 -0.2776,6.6924 -0.3269,0.9246 -0.5538,1.346 -1.5554,1.241 -0.4667,-0.2073 -0.9231,-0.3993 -1.3105,-0.1824 -0.3846,0.2145 -0.7686,0.0591 -2.9076,3.2466 -2.1472,3.19 -2.7811,7.1849 -2.7811,7.1849 0,0 -0.7965,-1.2625 -0.5787,-3.2972 0.359,-3.3458 3.14,-5.6316 3.14,-5.6316 0,0 1.5283,-1.0732 1.54,-1.9497 0.0127,-0.8772 0.6018,-1.5874 1.0935,-1.7558 0.4938,-0.1689 1.3725,-0.2754 1.3725,-0.2754 0,0 0.5793,-0.4457 0.6621,-3.2387 0.1092,-4.1151 -1.1186,-7.132 -1.2033,-6.1123 0.2796,2.0318 0.0967,4.0922 0,5.5591 -0.085,1.241 -3.031,3.9949 -3.682,4.7879 -0.6516,0.7944 -5.1301,6.2096 -5.1301,11.2758 0,5.0679 2.866,6.7165 3.8543,7.5331 0.2179,-1.3231 -0.1196,-3.1976 -0.1474,-3.9704 1.4484,1.4059 1.7953,2.7935 2.5313,4.0804 0.7339,1.2854 0.9612,0.5419 1.2507,0.1914 0.2901,-0.3485 0.0716,-0.7728 0.0716,-0.7728l-1.033 -2.3081c0,0 -1.2186,-3.1864 -1.0461,-5.0764 0.1629,-1.8892 0.2275,-2.8777 1.2374,-4.982 0.7692,-1.5761 2.0179,-3.1671 2.347,-3.2255 0.1891,0.288 -0.0973,1.0935 -0.0973,1.0935 0,0 -2.4069,6.4169 -1.6376,10.1681 0.7713,3.7557 2.9605,4.2726 3.8864,4.6558 0.9287,0.3875 0.674,-0.1656 0.5788,-0.3583 -1.5047,-1.6125 -1.6724,-3.9114 -1.577,-5.7415 0.0946,-1.8273 0.4466,-3.0564 0.8688,-4.3683 0.3359,6.6902 1.2731,7.3907 2.7185,8.3903 1.4175,0.9731 1.0926,-0.0731 1.0926,-0.0731 0,0 -0.0925,-0.7972 -0.2169,-1.7731 -0.1079,-0.9329 -0.1176,-1.7313 0.0723,-2.5228 1.133,1.6949 3.0328,1.6128 3.5497,1.5352 0.4731,-0.0558 0.3506,-0.1663 0.3506,-0.1663z"/>
   <path class="fil1" d="M98.134 97.563c-0.2518,0.2051 -0.6135,0.0862 -0.8306,-0.0828 -0.2157,-0.1676 -0.8069,-0.3263 -1.1311,0.0828 -0.3242,0.4084 -1.1901,1.4203 -1.1901,1.4203 0,0 -0.2574,0.4196 -0.7597,-0.1683 0,0 -0.4561,-0.2051 0.083,-0.8304 0.5439,-0.6261 1.3606,-1.3703 1.3606,-1.3703 0,0 0.4186,-0.4223 1.0954,-0.4223 0.7088,0 0.9989,0.0486 0.9989,0.0486 0,0 0.4111,0.3959 0.4967,0.6108 0.08,0.2177 0.1323,0.507 -0.1231,0.7116zm-5.8633 -5.6191l0 0c0,0 -0.4299,-0.3373 -0.7409,-0.6489 -0.3152,-0.3144 -0.1703,-1.1326 -0.1703,-1.1326 0,-0.4576 0.1947,-0.4576 0.5544,-0.4576 0.3575,0 0.2399,0.4576 0.2399,0.4576 0,0 -0.0975,0.2665 0.0493,0.7207 0.1427,0.4605 0.7917,0.3166 0.7917,0.3166 0,0 0.4938,-0.3396 0.841,-0.7242 0.2177,-0.2413 0.1703,-0.6003 0.1232,-0.7464 -0.0502,-0.1448 -0.0259,-0.576 -0.0259,-0.7221 -0.0445,-0.5294 0.29,-0.4813 0.6295,-0.4813 0.3346,0 0.1621,0.4098 0.2148,1.2034 0.0445,0.7964 -0.1222,1.1073 -0.1222,1.1073 0,0 -0.6491,0.5064 -1.1311,0.9384 -0.4794,0.4347 -1.2535,0.169 -1.2535,0.169zm-0.5265 1.4684l0 0c0.2663,-0.2635 -0.0246,-0.5042 -0.0246,-0.5042 0,0 -0.6495,-0.7226 -0.7693,-0.9864 -0.1196,-0.2657 -0.023,-1.1067 -0.5544,-1.6388 -0.5293,-0.5294 -0.8436,-0.6003 -1.323,-0.6977 -0.4814,-0.0946 -0.9391,-0.1433 -1.3231,-0.4097 -0.3866,-0.2629 -1.0086,-0.6239 -1.0086,-0.6239 0,0 -0.1697,-0.0731 -0.3866,0.1926 -0.2179,0.2637 0.1417,0.5065 0.1417,0.5065l1.2286 0.674c0,0 0.8186,0.1655 1.3731,0.3346 0.5514,0.1697 0.9112,0.6991 1.0086,0.9878 0.0994,0.2873 -0.0459,0.7199 0.3366,1.1776 0.3874,0.4585 0.9414,1.0588 0.9414,1.0588 0,0 0.1793,0.0993 0.3596,-0.0711zm-3.0905 -6.992l0 0c-0.4092,0.5412 -0.3744,1.2875 -0.3744,1.2875 0,0 -0.0751,0.5196 0.3375,0.7581 0.407,0.2421 0.3346,0.4952 0.9154,0.4952 0.5745,0 1.0441,0 1.0683,-0.3269 0.0501,-0.5043 -0.4062,-0.5043 -0.4062,-0.5043 0,0 -1.0732,0.4223 -1.1213,-0.4569 -0.0368,-0.6998 -0.0124,-0.9148 0.5301,-0.9996 0.5384,-0.0835 1.2994,-0.0363 1.2994,-0.0363 0,0 0.747,0.0363 0.8263,0.2902 0.0877,0.2532 -0.0319,0.5287 0.3776,0.5287 0.409,0 0.2991,-0.1336 0.3236,-0.4091 0.073,-0.7693 -0.2894,-1.0711 -0.7806,-1.1199 -0.365,-0.0361 -1.508,-0.0842 -1.508,-0.0842 0,0 -1.021,-0.0592 -1.4877,0.5774zm-4.7754 -2.4082l0 0c-0.3416,0.3736 -0.9635,1.0385 -0.9635,1.0385l-0.9034 0.7568c0,0 -0.5091,0.2046 -0.674,-0.2538 0,0 -0.3368,-0.4098 -0.1697,-0.5392 0.347,-0.2657 1.4524,-1.0364 1.4524,-1.0364 0,0 0.3874,-0.4196 0.2551,-0.7937 -0.1293,-0.37 -0.4562,-0.7089 -0.4562,-0.7089 0,0 -0.1204,-0.411 0.169,-0.5759 0.2872,-0.1703 0.6142,-0.2929 0.7797,0.0808 0.169,0.3735 0.5441,0.9509 0.5441,0.9509 0,0 0.2983,0.7102 -0.0334,1.081zm18.9113 11.314l0 0c0,0 -0.192,-0.8668 -0.576,-1.5408 -0.3846,-0.6754 -0.5049,-0.578 -1.0837,-0.7108 -0.5766,-0.1302 -2.3558,0.4576 -2.3558,0.4576 0,0 -2.3748,1.083 -2.9884,1.5045 -0.6092,0.4223 -1.151,0.1949 -1.151,0.1949 0,0 -0.8182,-0.6873 -1.2431,-1.0733 -0.2896,-0.7109 -0.1302,-1.5026 0.5669,-1.9117 0.4791,-0.2899 1.4426,-0.8667 2.0212,-1.2881 0.5795,-0.4223 0.6749,-0.5398 0.6749,-0.8682 0,-0.324 -0.3855,-0.6356 -0.3855,-0.6356 0,0 -1.2429,-1.0943 -1.4476,-1.4796 -0.1043,-0.2171 -0.0701,-0.5064 0,-0.8312 0.1602,-0.7102 1.0367,-1.3466 1.4476,-1.8656 0.4099,-0.5196 -0.0618,-0.9878 -0.5062,-1.3711 -0.4439,-0.3854 -1.0581,0.3485 -1.6132,0.7924 -0.5535,0.4444 -0.8882,0.3609 -1.6618,0.3609 -0.7687,0 -0.8639,-0.263 -1.0587,-0.4557 -0.1891,-0.1934 -0.514,-0.5794 -1.0337,-0.6391 -0.5166,-0.0585 -0.8303,0.4195 -0.8303,0.4195 0,0 -1.0587,1.3139 -1.189,1.5052 -0.1321,0.1919 -0.891,1.0581 -1.472,1.3111 -0.5744,0.254 -1.4404,-0.6022 -1.633,-0.8297 -0.1921,-0.2282 -0.5795,-1.033 -0.1323,-2.2015 0.7917,-2.0931 1.8295,-3.3806 2.274,-4.056 0.4444,-0.6728 -0.0253,-1.0581 -0.0253,-1.0581 0,0 -0.8032,-1.2143 -1.3479,-1.7931 -0.5413,-0.5769 -0.6483,-0.2262 -0.6483,-0.2262 0,0 -0.1578,0.155 -0.6989,0.7337 -0.542,0.5751 -0.167,0.9385 0,1.2855 0.1695,0.3499 0.1193,0.6747 0,0.9509 -0.1922,0.4682 -1.4908,0.8925 -2.3819,1.2144 -0.8909,0.327 -1.4303,1.0345 -2.0096,1.9512 -0.507,0.7812 -0.1447,1.7322 -0.1447,1.7322l0.7463 1.4315c0.2172,0.5056 1.0958,0.2635 2.3116,0.2887 1.1762,0.0266 0.9237,0.4215 1.3682,0.8083 0.4467,0.3853 0.1691,0.7331 -0.0827,0.7331 -0.2525,0 -0.2901,0.1941 -0.6518,-0.3471 -0.3562,-0.5426 -0.5015,-0.4701 -1.2153,-0.4478 -0.6969,0.0228 -0.9041,0.0228 -0.9041,0.0228 0,0 -0.2268,1.1451 0.1274,1.3008 0.4548,0.9028 1.0065,0.6268 1.4509,0.663 0.4436,0.0347 0.2894,0.1551 0.4436,0.9962 0.161,0.8463 1.7727,0.4117 3.3106,0.4117 1.5427,0 1.5427,0.3832 1.89,0.7464 0.3547,0.3604 0.5806,1.442 1.0955,2.3692 0.5161,0.9287 0.8312,1.1553 1.2179,1.1917 0.3853,0.0361 0.4195,-0.2283 1.2235,0.4807 0.8055,0.7101 0.8306,0.674 0.8306,0.674 0,0 0.2545,0.4098 0,0.4098 -0.2497,0 -0.2497,0.1696 -0.4793,0.0361 -0.2276,-0.1314 -0.6365,-0.5419 -0.8292,-0.8049 -0.1942,-0.2665 -0.2913,-0.4098 -0.8423,-0.4445 -0.555,-0.0382 -0.3729,-0.0256 -0.6052,0.1677 -0.2269,0.192 -0.2269,0.0236 -0.3241,0.889 -0.0975,0.868 -0.192,0.9995 0.2893,1.8285 0.4814,0.8299 1.4823,1.2884 2.1176,1.1199 0.6384,-0.1689 1.0983,0.0961 1.0983,0.0961 0,0 0.2865,0.6728 1.3098,1.1555 1.0239,0.4813 1.2486,0.2635 1.9601,-0.3853 0.7137,-0.6491 1.5644,-1.9505 2.0791,-2.9467 0.5198,-0.9997 1.0288,-1.2527 1.4128,-1.6027 0.3846,-0.3477 0.4195,-0.4549 0.8417,0.1579 0.4215,0.6144 0.6969,0.6144 0.6969,0.6144 0,0 0.0717,-0.0368 0.4813,-0.4223 0.407,-0.3861 0.2644,-0.7701 0.2644,-0.7701z"/>
   <path class="fil1" d="M59.9149 98.5501c0,0 0.2565,-0.9371 0.5912,-1.0469 0.3367,-0.1077 0.3472,0.3499 0.3973,0.5759 0.0465,0.2301 0.5536,2.3123 1.9845,3.0119 1.4802,0.7326 2.7214,0.8516 3.684,0.9739 0.2748,0.121 0.3219,0.6356 -0.1817,0.756 -0.5068,0.1232 -2.3594,0.4189 -3.43,0.4189 -1.0711,0.0007 -3.8494,-1.3926 -3.0453,-4.6898z"/>
   <path class="fil3" d="M109.6969 32.7407c-1.3454,-0.2868 -2.806,-0.4576 -3.0801,-0.5378 -0.8563,-0.317 -1.468,-1.4104 -2.4917,-2.3008 -1.0233,-0.8902 -2.6259,-2.0941 -4.6451,-2.1298 -0.567,0.0356 -0.5991,-0.1815 -0.5991,-0.1815 0,0 0.7813,-0.5182 0.9239,-1.478 0.0368,-0.146 0.916,-0.0855 0.916,-0.0855 0,0 3.1755,-0.2315 6.2201,0.5164 3.3104,1.0471 5.9093,3.768 6.1957,8.1006 -0.8166,-0.6037 -2.0916,-1.6151 -3.4397,-1.9036zm-23.4996 -7.9884l0 0c-1.7252,-1.7202 -3.6491,-2.1529 -4.5986,-2.2775 -0.0619,-2.956 -1.1423,-6.4819 -1.1423,-6.4819 9.193,0.828 11.1929,9.3008 11.4923,10.9587 -2.0821,-0.0588 -4.0318,-0.4791 -5.7514,-2.1992zm-16.3172 -2.1333l0 0c-1.2514,0 -2.6237,0.244 -4.104,1.5439 -1.4808,1.2982 -2.7686,2.8546 -6.9923,2.7887 0,0 0.8188,-5.2818 4.5606,-7.9528 3.7444,-2.6693 7.5331,-2.851 7.5331,-2.851 0,0 -0.8178,2.1439 -0.9973,6.4711zm-17.9911 5.1767l0 0c-0.0948,0.3115 -1.2028,0.2885 -1.2028,0.2885 0,0 -0.8444,-0.0232 -2.0915,0.8903 -1.2535,0.9153 -2.7339,2.794 -3.4802,3.1555 -0.7458,0.358 -2.1515,0.4326 -3.9112,1.104 -1.7552,0.6767 -2.8882,1.8056 -2.8882,1.8056 0,0 -0.2778,-3.5365 2.1919,-5.8711 2.2862,-2.1904 3.4043,-2.7192 5.5941,-3.0344 2.1918,-0.3116 4.8023,-0.0944 4.8023,-0.0944 0,0 0.3472,0.4185 0.5669,0.9259 0.2143,0.5057 0.514,0.5147 0.4188,0.8299zm67.2437 12.1055l0 0c0,-0.073 -0.0124,-0.1496 -0.0353,-0.2209 1.3479,-0.3703 2.3364,-1.5956 2.3364,-3.0575 0,-1.2554 -0.7283,-2.3363 -1.7844,-2.851 0.7638,-0.5769 1.2558,-1.4922 1.2558,-2.5234 0,-1.6507 -1.2558,-3.0022 -2.8661,-3.1554 0.245,-0.4505 0.3821,-0.9634 0.3821,-1.5101 0,-1.7558 -1.4177,-3.1733 -3.1728,-3.1733 -0.2526,0 -0.4993,0.0321 -0.734,0.0891 0.1372,-0.3562 0.22,-0.7462 0.22,-1.1521 0,-1.754 -1.4211,-3.1733 -3.1728,-3.1733 -0.6788,0 -1.3062,0.2119 -1.8175,0.5733 -0.4415,-1.2161 -1.6076,-2.0888 -2.9779,-2.0888 -1.0156,0 -1.917,0.4808 -2.4986,1.2216 -0.4917,-1.1094 -1.6027,-1.8822 -2.8985,-1.8822 -1.1389,0 -2.1321,0.6001 -2.6906,1.4993 -0.5072,-1.0756 -1.6001,-1.827 -2.8708,-1.827 -0.3241,0 -0.6392,0.0499 -0.9335,0.1407 0.0347,-0.1887 0.0576,-0.3829 0.0576,-0.5841 0,-1.7522 -1.4232,-3.1715 -3.1733,-3.1715 -0.5022,0 -0.9732,0.1211 -1.3955,0.3276 -0.0125,-1.7414 -1.4279,-3.1483 -3.1698,-3.1483 -0.7492,0 -1.44,0.2618 -1.9823,0.6962 -0.2318,-1.5225 -1.5423,-2.6888 -3.1297,-2.6888 -0.8916,0 -1.695,0.3667 -2.269,0.9562 -0.105,-0.066 -0.1674,-0.1105 -0.1745,-0.1247 -0.9614,-2.5268 -2.671,-2.6248 -2.671,-2.6248l0 -1.0328 2.2391 0 0 -3.2018 -2.1417 0 0 -2.2134 -3.1051 0 0 2.2865 -2.0693 -0.0232 0.025 3.1287 2.2866 0c0,0 0.0449,0.1175 0.0449,1.0079 -2.2369,0.2422 -2.6961,3.1075 -2.6961,3.1075 -0.5745,-0.5966 -1.3829,-0.9634 -2.2718,-0.9634 -1.5221,0 -2.7907,1.0703 -3.1002,2.5002 -0.5496,-0.4559 -1.2509,-0.7266 -2.0173,-0.7266 -1.7272,0 -3.1352,1.3837 -3.1678,3.1075 -0.4541,-0.2529 -0.9787,-0.3954 -1.5346,-0.3954 -1.7528,0 -3.1733,1.4193 -3.1733,3.168 0,0.2421 0.027,0.4701 0.0773,0.6962 -0.222,-0.0516 -0.4543,-0.0801 -0.6915,-0.0801 -1.2708,0 -2.3616,0.7497 -2.8679,1.8252 -0.5746,-0.8103 -1.5179,-1.3409 -2.5863,-1.3409 -1.3301,0 -2.4637,0.8192 -2.9382,1.9784 -0.5447,-0.9616 -1.5776,-1.6133 -2.7608,-1.6133 -1.5122,0 -2.7783,1.0613 -3.0955,2.4788 -0.562,-0.5182 -1.3126,-0.8405 -2.1446,-0.8405 -1.75,0 -3.1696,1.4228 -3.1696,3.1715 0,0.3508 0.0596,0.6874 0.1646,1.0044 -0.1821,-0.0321 -0.37,-0.0534 -0.5591,-0.0534 -1.7529,0 -3.1729,1.4228 -3.1729,3.1733 0,0.6197 0.1823,1.1949 0.4872,1.681 -1.6056,0.1585 -2.8611,1.5118 -2.8611,3.159 0,1.1914 0.6608,2.2295 1.6347,2.7726 -0.9739,0.5414 -1.6347,1.5778 -1.6347,2.7727 0,1.4709 1.0115,2.7103 2.374,3.0646 -0.3248,0.3241 -1.6428,1.6543 -1.9246,2.0586 -0.3277,0.4558 -0.7367,1.6934 0.0348,3.1163 0.6489,1.2003 2.0943,0.5521 2.0943,0.5521 0,0 1.4301,-0.7337 2.9731,-2.623 0.0278,0.6303 0.0897,1.2056 0.1717,1.7345 -0.6607,0.6535 -1.0761,1.5599 -1.0761,2.5678 0,1.9909 1.6158,3.606 3.6094,3.606 0.3374,0 0.6645,-0.0481 0.9768,-0.1353 2.8507,2.3487 6.5573,3.0806 6.5573,3.0806 0,0 -1.627,0.3009 -2.5411,0.951 -0.8507,0.6001 -1.0684,1.5404 -0.6237,2.5019 0.4444,0.9652 1.6847,1.3962 2.381,0.853 0.3874,0.52 0.3972,1.494 0.265,2.7103 1.9269,1.0239 1.7327,2.753 1.7327,2.753 0,0 -1.5629,0.5931 -0.8896,2.2509 0.6267,1.5422 1.6008,0.951 2.3123,0.771 13.9914,-5.0804 26.8792,-4.548 26.8792,-4.548 11.9596,-0.5769 25.6213,3.8393 26.57,4.2827 0.9161,0.4345 1.9268,0.4595 1.9268,0.4595 0,0 0.5864,0.0125 1.2875,-1.2162 0.5738,-1.4192 -0.329,-1.9874 -1.5554,-2.5038 0.5072,-1.1539 1.1061,-1.6579 1.6854,-1.9855 0.5795,-0.3241 0.7715,-0.2511 0.6991,-1.0346 -0.1452,-1.4192 -0.1202,-2.2491 -0.1202,-2.2491 0,0 0,-0.1211 0.5035,0.1318 0.8319,0.3864 1.613,-0.1318 2.1203,-0.9634 0.5035,-0.8316 0,-1.925 -0.3867,-2.1779 -0.3827,-0.2528 -1.6847,-0.8885 -2.6364,-1.2143 3.4271,-0.5806 4.4033,-1.3036 6.9894,-2.9222 0.1126,0.0143 0.2247,0.0196 0.3373,0.0196 1.9944,0 3.6116,-1.6169 3.6116,-3.6078 0,-0.9544 -0.3751,-1.8234 -0.9815,-2.468 0.0349,-0.2031 0.073,-0.358 0.1154,-0.4434 0.1099,-0.2404 0.2163,-1.2751 0.2163,-1.2751 0,0 1.6883,1.5902 2.3825,2.2847 0.6983,0.6998 2.2405,0.2921 2.7428,-0.5021 0.3151,-0.4968 0.2894,-1.8431 -0.0718,-2.5411 -0.3581,-0.6998 -1.3444,-2.0604 -1.7764,-2.42z"/>
   <path class="fil1" d="M112.6478 42.9942c0,0 0.0222,-1.795 0.5014,-2.778 0.4842,-0.9883 0.8661,-1.6168 1.5547,-1.6632 0.6825,-0.0481 2.0219,0.3739 3.1155,1.3213 1.0956,0.9527 2.3589,2.6604 2.3589,2.6604 0,0 0.7317,1.0595 0.2274,1.6383 -0.5043,0.5769 -0.9133,1.1806 -1.8176,0.4683 -0.9006,-0.7087 -2.3581,-2.3702 -2.3581,-2.3702 0,0 -0.5418,-0.8654 -0.7915,-0.4327 -0.2545,0.4327 -0.409,1.7078 -0.409,1.7078 0,0 0.1196,0.4576 -0.8195,0.203 -0.939,-0.2475 -1.6375,-0.178 -1.5622,-0.755z"/>
   <path class="fil1" d="M74.7771 2.9846l0 -2.1422 1.51 -0.0178 0.0223 2.1457 2.0771 0 0.0127 1.6151 -2.0694 0.0338 0 4.8739c0,0 1.1754,0.9633 1.6819,1.2786 0.5071,0.3116 0.7964,0.2921 0.7289,0.6215 -0.0695,0.317 -0.4889,0.894 -0.8861,0.8192 -0.3945,-0.0712 -1.298,-1.0097 -2.3812,-0.974 -1.2379,0.0356 -2.0568,1.0239 -2.0568,1.0239 0,0 -0.267,0.1798 -0.507,-0.0499 -0.237,-0.228 -0.5516,-0.6624 -0.5516,-0.974 -0.0494,-0.5021 1.6527,-0.6126 2.4311,-1.6472 0,-0.6393 0.0223,-4.8864 0.0223,-4.8864l-2.0571 0 0 -1.7202 2.0229 0z"/>
   <path class="fil1" d="M42.0094 44.6182c0,0 -1.2633,0.1193 -1.5749,-0.9633 -0.1551,-0.5057 -0.5077,-0.9242 -0.048,-1.7309 0.457,-0.8085 1.0712,-1.4335 1.8275,-1.576 0.7586,-0.146 1.0732,-0.3151 1.5775,-0.2048 0.5043,0.1104 1.8873,0.9242 1.783,2.299 -0.0502,0.8066 -0.6145,1.1183 -0.6145,1.1183 0,0 -0.6043,-0.0125 -0.5544,-0.3117 0.0475,-0.3026 -0.0153,-1.2161 -0.3616,-1.1716 -0.3499,0.0516 -0.3499,0.6642 -0.3499,1.072 0,0.4114 0,1.1556 -1.6847,1.4691z"/>
   <path class="fil1" d="M42.371 47.4228c0,0 -0.3616,-1.4921 -0.1069,-1.8893 0.2517,-0.3953 0.6142,-0.6517 1.0706,-0.7585 0.4568,-0.1068 0.6142,-0.2404 0.8659,0.0623 0.2496,0.3009 0.4549,0.6606 0.6615,0.5039 0.2053,-0.1567 0.0598,-0.6642 0,-0.869 -0.0598,-0.2012 0.3616,-0.7105 0.7088,-0.7105 0.3499,0 0.8213,0.7728 0.9161,1.1201 0.0954,0.3491 0.395,1.722 -0.3116,2.493 -0.7115,0.7693 -2.4812,1.3712 -3.8043,0.048z"/>
   <path class="fil1" d="M50.5167 41.5375c0,0 -0.5769,0.3134 -0.7918,0.3633 -0.2169,0.0462 -0.4821,-0.1229 -0.7464,-1.1076 -0.2649,-0.9171 -0.0974,-1.8538 0.1428,-2.1191 0.242,-0.2654 0.4338,-0.675 1.2526,-0.675 0.8161,0 1.3934,0 1.5151,0.1692 0.1195,0.1691 1.7098,1.9998 1.7098,1.9998 0,0 0.0479,0.5021 0,0.8174 -0.0473,0.3116 -0.0245,0.552 -0.3367,0.552 -0.3145,0 -1.6375,-0.0462 -1.8072,-0.0462 -0.1668,0 -0.3595,-0.9153 -0.5043,-1.1326 -0.1445,-0.2173 -0.1667,-0.4826 -0.4813,-0.3116 -0.3123,0.1691 -0.023,1.1076 0.0717,1.2751 0.0951,0.1708 0.0724,0.1708 -0.0243,0.2154z"/>
   <path class="fil1" d="M50.541 42.2605c0,0 -0.457,0.0962 -0.6266,0.3633 -0.1671,0.2635 -0.2395,0.8387 -0.2625,1.0809 -0.0244,0.2404 -0.3365,1.2269 0.6721,1.925 1.0107,0.6981 1.058,0.4345 1.6402,0.4577 0.5739,0.0249 1.657,-0.2422 2.139,-0.6037 0.4819,-0.3614 0.8216,-1.0098 0.8216,-1.0098 0,0 -1.1215,-1.4797 -1.2308,-1.948 -0.0722,-0.3152 -0.1196,-0.2885 -0.3123,-0.3152 -0.1919,-0.0214 -1.4175,0 -1.4175,0 0,0 -0.1968,0.3383 -0.1698,0.6767 0.0223,0.3366 -0.0974,0.7693 -0.3372,0.7693 -0.2394,0 -0.3868,-0.6482 -0.3868,-0.8904 0,-0.2403 0.0975,-0.6268 -0.5293,-0.5057z"/>
   <path class="fil1" d="M52.4183 37.6876c0,0 -0.2169,-0.7462 0.1948,-1.8056 0.3846,-0.9741 1.0336,-1.202 1.3933,-1.3462 0.3637,-0.1478 0.8189,-0.1478 1.1805,-0.048 0.3616,0.0944 0.6712,0.4309 0.6712,0.4309 0,0 0.0523,0.8672 0.0724,1.0363 0.0252,0.1692 -0.3346,0.2173 -0.5516,0.1905 -0.2171,-0.0213 -0.4224,0.1817 -0.3125,0.4595 0.1205,0.3116 0.8892,0.2653 0.8892,0.2653 0,0 0.0249,0.5022 0.0249,0.9153 0,0.4096 -0.0249,0.7693 -0.0249,0.7693 0,0 -1.1061,0.5039 -1.5403,1.1058 -0.1697,0.1691 -0.6489,-0.1905 -0.7936,-0.3597 -0.1447,-0.1692 -1.2035,-1.0382 -1.2035,-1.6134z"/>
   <path class="fil1" d="M56.5822 35.9781l0.0723 -0.9616c0,0 0.1697,-0.3365 0.6268,-0.5769 0.4563,-0.2422 0.839,-0.3614 1.033,-0.2689 0.1926,0.0997 1.782,1.0382 1.9747,1.7594 0.0474,0.3151 -0.0472,0.4576 -0.1927,0.7229 -0.1438,0.2636 -1.4697,1.9481 -1.4697,1.9481 0,0 -0.2399,0.4577 -0.4319,0.3633 -0.192,-0.098 -1.0589,-0.4845 -1.3705,-0.4845 -0.192,-0.2849 -0.192,-0.1673 -0.192,-0.5983 0,-0.4326 0.0223,-0.9403 0.0223,-0.9403 0,0 0.2296,-0.2385 0.4814,-0.2885 0.4321,-0.0962 0.5294,-0.1424 0.5294,-0.3846 0,-0.3383 -0.0472,-0.3383 -0.2893,-0.2903 -0.2401,0.0481 -0.6741,0.2885 -0.7938,0z"/>
   <path class="fil1" d="M40.1815 50.2614l1.0684 -0.8192c0,0 2.9507,2.1173 5.8041,2.1173 2.8484,0 6.158,-2.5393 7.5662,-4.5836 0.5668,-0.8174 0.8187,-1.2519 0.8187,-1.2519 0,0 0.1348,-0.6944 0.7344,-0.6944 0.8183,0 1.0455,-0.0374 1.4796,-0.0374 0.4321,0 0.951,0.8655 0.951,0.8655 0,0 2.8059,3.07 7.0873,2.8528 4.283,-0.2173 6.7522,-3.4992 6.7522,-3.4992l1.3482 -1.3854c0,0 0.2489,-0.4932 0.7338,-0.4452 0.4767,0.0463 0.8881,0.1906 1.5023,0.1461 0.6145,-0.0516 1.2662,-0.1817 1.5632,-0.0516 0.3018,0.1335 2.9007,3.6808 4.588,4.2844 1.684,0.602 4.5354,1.7221 7.5635,0.1674 3.0356,-1.551 3.9045,-2.8528 3.9045,-2.8528 0,0 0.3339,-0.2885 0.7658,-0.1673 0.4367,0.1228 1.3856,0.2172 1.3856,0.2172 0,0 0.299,0.1674 0.4319,0.5182 0.1348,0.3491 3.215,4.9683 6.6672,5.4509 3.9011,0.5644 6.5345,-1.1326 6.5345,-1.1326 0,0 0.6364,-0.7568 1.0366,-0.4203 0.3963,0.3384 1.0334,0.853 1.0334,0.853 0,0 0.3967,0.1691 -0.2551,0.5164 -0.6483,0.3508 -2.8625,2.1316 -7.0967,2.1316 -4.236,0 -7.7039,-4.1028 -8.5196,-5.2336 -0.3347,-0.3508 -0.3019,-0.5289 -1.081,-0.4826 -0.7867,0.048 -0.6985,0.048 -1.3029,0.65 -0.6009,0.6018 -2.9327,2.0816 -5.1023,1.9498 -3.2728,-0.1442 -6.483,-0.3026 -6.483,-0.3026 0,0 -3.1523,-2.0799 -4.3675,-3.7646 -0.3499,-0.4683 -0.6651,-0.4683 -1.3037,-0.4327 -0.9013,0.0356 -1.1781,0 -1.5621,0.4684 -0.4938,0.6162 -2.4541,2.7816 -4.5736,3.7289 -1.3356,0.1691 -6.113,0.3756 -7.3636,0.5538 -0.9139,-0.2048 -3.3355,-1.2982 -4.5005,-2.5483 -0.2176,-0.2546 -0.2874,-0.3026 -0.5544,-0.3026 -0.2623,0 -0.4939,-0.0463 -0.7445,0 -0.2517,0.048 -2.7802,3.3585 -4.4997,4.5356 -0.8318,0.2546 -3.537,1.1699 -4.4039,1.5189 -0.9154,-0.0373 -3.8042,-0.0249 -7.3511,-2.3701 -0.4338,-0.3989 -0.2551,-0.748 -0.2551,-0.748z"/>
   <path class="fil1" d="M59.0134 39.3972c0,0 0.601,0.5538 0.7436,1.0097 0.1474,0.4558 0.1203,0.4113 0.4619,0.3846 0.3346,-0.025 1.4656,-0.025 1.4656,-0.025 0,0 0.5042,-0.6233 0.5545,-1.0097 0.0464,-0.3828 -0.1196,-1.1308 0.3144,-1.1308 0.4319,0 0.5286,0.3846 0.5016,0.7942 -0.0223,0.4079 -0.3124,0.8886 0.0729,0.9385 0.3839,0.0481 0.5759,-0.1691 0.8423,-1.1574 0.2624,-0.983 0.1677,-1.8983 -0.866,-2.4752 -1.0349,-0.5787 -1.2276,-0.4577 -1.8293,-0.3384 -0.6018,0.1211 -1.3009,1.3961 -1.6125,1.8769 -0.3143,0.4826 -0.7936,1.0079 -0.6489,1.1326z"/>
   <path class="fil1" d="M59.5649 43.4144c0,0 0.5189,-1.3836 0.5795,-1.827 0.0472,-0.2903 0.192,-0.1691 0.4786,-0.1959 0.2921,-0.0214 1.3007,-0.1425 1.3007,-0.1425 0,0 0.3151,0.2654 0.3615,0.5289 0.046,0.2653 0.3369,0.4327 0.6491,0.3134 0.3152,-0.1211 0.1197,-0.7942 0.0976,-1.0115 -0.0216,-0.2173 0.3149,-0.4309 0.6043,-0.3116 0.284,0.1193 0.4571,1.0578 0.4321,1.7345 -0.0272,0.6695 -0.2895,1.5119 -1.1562,1.8288 -0.8659,0.3098 -2.0936,0.1923 -3.3472,-0.9171z"/>
   <path class="fil1" d="M56.6073 39.203c0.7811,-0.0231 2.5737,0.0606 2.6711,2.6017 0.0599,1.9713 -1.3259,2.6426 -2.4543,2.6426 -1.1331,0 -2.5513,-0.6713 -2.5513,-2.6925 0,-2.0193 1.4182,-2.5268 2.3344,-2.5518z"/>
   <path class="fil1" d="M75.8579 37.6627c0.7841,-0.0232 2.5766,0.0605 2.6711,2.5998 0.0628,1.9731 -1.3231,2.6444 -2.4541,2.6444 -1.131,0 -2.5514,-0.6713 -2.5514,-2.6907 0.0009,-2.0211 1.4204,-2.5286 2.3343,-2.5535z"/>
   <path class="fil1" d="M68.7366 39.7568c0,0 -0.6046,-0.8885 -0.4599,-1.9499 0.1447,-1.0578 0.5314,-1.3943 0.9892,-1.6133 0.4563,-0.2137 1.4678,-0.1655 1.7321,0 0.2644,0.1691 0.9632,1.3962 1.1074,1.519 0.1452,0.1211 0.8166,0.7693 0.8166,0.7693 0,0 0.2671,0.1442 0.0501,0.6749 -0.2172,0.5289 -0.2393,0.6714 -0.2393,0.6714 0,0 -0.0758,0.1228 -0.6273,-0.0233 -0.5566,-0.1442 -1.2057,-0.2172 -1.2057,-0.2172 0,0 -0.4791,-0.0962 -0.5291,-0.4791 -0.0474,-0.3882 -0.1671,-0.796 -0.3847,-0.9865 -0.2149,-0.1959 -0.699,-0.098 -0.649,0.1425 0.0472,0.2403 0.3616,0.8921 0.3846,1.0827 0.0244,0.1941 -0.1669,0.3384 -0.3151,0.3384 -0.1405,0 -0.5502,0.0712 -0.6698,0.0712z"/>
   <path class="fil1" d="M68.9535 40.4798c0,0 -0.3395,0.9615 -0.267,1.7558 0.075,0.7942 0.701,1.8911 1.8292,2.1191 1.6381,0.3473 1.6249,-0.1461 2.142,-0.4844 0.482,-0.3116 0.9382,-0.8885 0.9382,-0.8885 0,0 0.1426,-0.2156 -0.0974,-0.5058 -0.2366,-0.2885 -0.5515,-1.2768 -0.6483,-1.6133 -0.0955,-0.333 -0.2504,-0.3472 -0.649,-0.3828 -0.4569,-0.0481 -1.1312,-0.073 -1.1312,-0.073 0,0 -0.1939,0.3134 -0.2398,0.698 -0.0465,0.3881 -0.0967,0.771 -0.4341,0.796 -0.3339,0.0232 -0.4095,-0.3134 -0.3116,-0.5325 0.0948,-0.2137 0.1426,-0.8654 0.0948,-0.9598 -0.0466,-0.0996 -0.3598,-0.2421 -0.6721,-0.146 -0.3138,0.0962 -0.5537,0.2173 -0.5537,0.2173z"/>
   <path class="fil1" d="M73.6816 38.0491c-0.3598,0.2653 -1.3606,-0.9616 -1.4574,-1.4923 -0.0953,-0.5306 -0.2497,-1.5616 0.0715,-2.2009 0.3271,-0.6375 0.8314,-1.072 1.3509,-1.1931 0.5162,-0.1193 0.9857,-0.1799 1.3454,-0.025 0.3644,0.1585 0.7437,0.276 0.7437,0.698 0,0.4221 -0.0328,0.8672 -0.0328,0.8672 0,0 -0.1197,0.2922 -0.3464,0.0962 -0.2294,-0.1923 -0.7712,-0.3508 -0.7712,-0.1549 0,0.1923 0,0.7462 0.3463,0.8049 0.3499,0.0588 0.5417,-0.1691 0.5801,0.3134 0.0321,0.4809 -0.0983,1.3249 -0.0983,1.3249 0,0 -0.8436,0.1068 -1.7318,0.9616z"/>
   <path class="fil1" d="M76.1474 37.0145l0.0382 -1.348c0,0 0.2615,-0.2903 0.5181,-0.2528 0.2505,0.0355 0.6018,-0.0606 0.6018,-0.0606 0,0 0.1449,-0.7692 -0.2197,-0.7692 -0.3592,0 -0.5289,-0.1104 -0.5539,-0.5557 -0.0251,-0.4433 0.1196,-0.8529 0.5787,-0.9829 0.4571,-0.1354 1.2662,-0.1354 1.805,0.4416 0.542,0.5787 0.9412,1.12 0.9634,1.4086 0.0223,0.2885 -0.1696,0.3508 -0.4222,0.6749 -0.2518,0.3241 -1.5024,1.9018 -1.5024,1.9018 0,0 -0.1072,0.2173 -0.2046,0.1176 -0.2045,-0.1906 -1.3156,-0.5522 -1.6027,-0.5752z"/>
   <path class="fil1" d="M78.4568 38.1453c0,0 0.6518,0.8298 0.7116,1.1183 0.0598,0.2885 -0.0354,0.3739 0.3463,0.349 0.3868,-0.0231 1.5778,-0.0231 1.5778,-0.0231 0,0 0.2524,-0.2048 0.2524,-0.4577 0,-0.2528 -0.0702,-0.9385 0.3869,-1.1556 0.459,-0.2173 0.5759,-0.0731 0.6142,0.5769 0.0346,0.6499 -0.108,1.0346 0.2488,0.999 0.3675,-0.0338 0.8438,-0.6731 0.8438,-1.0578 0,-0.3864 0.0529,-1.9623 -0.6482,-2.5037 -0.6969,-0.5432 -1.3731,-0.4826 -1.7607,-0.4826 -0.381,0 -1.4523,0.9651 -1.7019,1.3479 -0.254,0.3864 -1.0359,0.9991 -0.871,1.2893z"/>
   <path class="fil1" d="M78.8086 42.1145c0,0 0.359,-0.8655 0.4196,-1.5386 0.0251,-0.3491 0.194,-0.2546 0.5188,-0.2546 0.3242,0 1.4776,-0.0356 1.4776,-0.0356 0,0 0.3122,0.2529 0.3122,0.5769 0,0.3277 0.2671,0.5557 0.6142,0.3633 0.3492,-0.1924 0.2296,-0.9652 0.2296,-0.9652 0,0 0.1196,-0.2991 0.4098,-0.2618 0.2894,0.0356 0.5188,0.6963 0.5188,1.3462 0,0.65 -0.649,2.0817 -1.8676,2.1174 -1.2133,0.0355 -2.3838,-0.8903 -2.633,-1.348z"/>
   <path class="fil1" d="M95.4956 39.203c0.7839,-0.0231 2.5793,0.0606 2.671,2.6017 0.0626,1.9713 -1.3204,2.6426 -2.4534,2.6426 -1.1311,0 -2.5487,-0.6713 -2.5487,-2.6925 0,-2.0193 1.4176,-2.5268 2.331,-2.5518z"/>
   <path class="fil1" d="M92.7423 43.4144c0,0 -0.9231,1.3729 -2.4165,1.2145 -1.4927,-0.1532 -2.0735,-1.7042 -2.0367,-2.0337 0.0375,-0.3241 0.0724,-1.1415 0.3346,-1.3818 0.2692,-0.2404 0.3994,-0.2636 0.5814,-0.1799 0.1823,0.082 0.2172,0.4434 0.1823,0.625 -0.0374,0.1781 -0.1002,0.4808 0.2023,0.5164 0.2964,0.0356 0.4788,-0.6108 0.4788,-0.8156 0,-0.203 0.3394,-0.0498 0.7965,0.0321 0.457,0.0873 1.5031,0.1603 1.5031,0.1603 0,0 0.0375,1.4656 0.3742,1.8627z"/>
   <path class="fil1" d="M92.563 40.7808l-1.8552 -0.2048c0,0 -0.407,-0.1104 -0.382,-0.6019 0.0203,-0.495 0.0203,-1.1575 -0.3986,-1.1575 -0.4222,0 -0.6149,0.4239 -0.5746,0.723 0.0328,0.3009 0.2721,0.9403 -0.185,0.878 -0.459,-0.0588 -0.6984,-0.7568 -0.756,-1.5386 -0.0626,-0.7836 0.4064,-1.9998 0.9132,-2.1779 0.5044,-0.1816 1.2862,-0.2084 1.7474,-0.0587 0.4541,0.1424 1.4058,1.2981 1.5476,1.5386 0.1456,0.2385 0.5197,0.6 0.5197,0.6 0,0 0.357,0.5201 -0.0354,1.0952 -0.3959,0.5769 -0.4564,0.625 -0.5411,0.9046z"/>
   <path class="fil1" d="M93.9456 38.879l-1.4829 -2.1779c0,0 -0.3187,-0.698 0.2199,-1.3338 0.5418,-0.6393 0.8666,-0.8815 1.1414,-1.0008 0.277,-0.1193 0.496,-0.1104 0.8557,-0.0837 0.3616,0.0231 0.8061,0.3508 0.9036,0.5644 0.0945,0.2173 0.1452,0.8921 0.0576,1.0382 -0.0828,0.1425 -0.4196,0.1175 -0.7811,0.1175 -0.3597,0 -0.3597,0.2796 -0.1801,0.4576 0.1801,0.1817 0.8061,0.4186 0.9612,0.4791 0.1599,0.0623 0.1599,1.3979 0.0975,1.7825 -0.4223,-0.0355 -1.513,0.2155 -1.7927,0.1568z"/>
   <path class="fil1" d="M96.4722 38.5049l0.0591 -1.1645c0,0 0.05,-0.4007 0.3867,-0.4007 0.3374,0 0.697,0.0267 0.697,-0.4559 0,-0.4808 -0.1544,-0.4434 -0.4571,-0.4808 -0.299,-0.0356 -0.7346,0.1905 -0.699,-0.3598 0.0403,-0.5556 0.1697,-0.9028 0.5573,-1.0008 0.3838,-0.0944 1.1782,-0.1424 1.5371,0 0.3598,0.1443 0.9615,0.8673 1.1812,1.2626 0.2172,0.3989 0.3339,1.1824 0.3021,1.697 -0.0404,0.52 -0.5218,1.1058 -0.8216,1.4335 -0.3019,0.3241 -0.5767,0.6482 -0.5767,0.6482 0,0 -0.409,0.3988 -0.6587,0.0391 -0.3423,-0.4844 -0.8215,-0.796 -1.1832,-0.9776 -0.2023,-0.1443 -0.3241,-0.2404 -0.3241,-0.2404z"/>
   <path class="fil1" d="M98.5415 40.4175l1.8891 -2.0551c0,0 0.3849,-0.3988 1.2605,-0.3401 0.8835,0.0623 1.6001,0.5432 1.7,0.999 0.0974,0.4595 0.2624,1.1201 0.0281,1.9161 -0.2449,0.7943 -0.3868,0.7212 -0.3868,0.7212 0,0 -0.2817,0.3099 -0.6991,0.0962 -0.4195,-0.2173 -0.4195,-0.4826 -0.4195,-0.4826 0,0 0.4918,-0.4326 0.514,-0.7336 0.0251,-0.2992 -0.1196,-0.4452 -0.2989,-0.504 -0.1803,-0.0605 -0.7096,0.3598 -0.8543,0.8405 -0.1448,0.4826 -0.0995,0.5787 -0.5767,0.5787 -0.4822,0 -1.6875,0.1104 -1.6875,0.1104 0,0 -0.1668,0.0445 -0.1918,-0.3526 -0.0252,-0.3953 -0.0704,-0.6357 -0.277,-0.7942z"/>
   <path class="fil1" d="M97.857 44.3903c0,0 0.7214,-0.9152 0.9962,-1.8555 0.1244,-0.2991 0.2796,-0.2636 0.4597,-0.2636 0.1796,0 1.1778,0.0624 1.1778,0.0624 0,0 0.2922,0.276 0.2651,0.6374 -0.0253,0.358 -0.0253,0.7586 0.2767,0.78 0.3025,0.0267 0.5419,-0.2635 0.5419,-0.78 0,-0.5164 -0.0975,-0.723 0.1823,-0.6998 0.2727,0.0268 0.8167,0.171 0.8766,0.3882 0.0598,0.2155 0.5042,1.0435 0,2.1636 -0.5037,1.1183 -0.9859,1.5279 -2.1078,1.4087 -1.1157,-0.1211 -1.4553,-0.1674 -2.6684,-1.8414z"/>
   <path class="fil1" d="M106.0624 42.9087c0,0 -0.3617,-1.5635 0.3617,-2.1885 0.7212,-0.6251 1.2263,-0.8441 1.997,-0.7462 0.7687,0.098 2.0695,0.8885 2.4312,1.5902 0.3597,0.6962 0.4099,1.202 0.4099,1.202 0,0 -0.0502,0.4826 -0.3369,0.7462 -0.29,0.2636 -0.8166,0.7212 -0.9385,0.9367 -0.1194,0.2191 -0.2899,0.3383 -0.4095,0.2404 -0.1203,-0.0945 -1.1562,-0.8174 -1.3731,-0.8868 -0.215,-0.0748 -0.6018,-0.098 -0.5049,-0.3882 0.096,-0.2885 0.3107,-1.1788 0.2175,-1.3231 -0.0972,-0.1424 -0.0716,-0.2635 -0.3588,-0.2173 -0.293,0.0499 -0.4849,0.5289 -0.5552,0.7943 -0.0745,0.2653 -0.1224,0.7247 -0.217,0.6749 -0.0967,-0.0499 -0.654,-0.2885 -0.7235,-0.4345z"/>
   <path class="fil1" d="M105.8224 43.7279c0,0 -0.7465,1.3249 -0.7242,2.2847 0.0253,0.9651 0.7242,1.7113 1.1834,1.8306 0.4513,0.1228 1.0086,0.1228 1.2487,0.0962 0.2441,-0.025 1.3221,-0.2653 1.5642,-0.7943 0.24,-0.5288 0.1697,-0.7229 0.1697,-0.9865 0,-0.2635 0.2427,-0.7924 -0.1697,-1.0363 -0.4089,-0.2404 -1.2749,-0.4791 -1.4174,-0.5272 -0.1468,-0.0498 -0.3869,0.1211 -0.485,0.3847 -0.0947,0.2635 -0.3116,0.2885 -0.5288,0.2172 -0.2168,-0.0747 -0.3595,-0.3864 -0.2397,-0.6267 0.1208,-0.2404 0.6251,-0.8209 -0.6012,-0.8423z"/>
   <path class="fil1" d="M44.9344 57.6034c0,0 -0.8207,0.4185 -1.2529,-0.3491 -0.4318,-0.771 -0.2871,-1.2768 0.1943,-1.6382 0.482,-0.3598 2.6244,-1.1539 2.6244,-1.1539 0,0 10.1911,-4.3201 29.0482,-4.2845 22.0415,0.048 31.8619,5.198 31.8619,5.198 0,0 1.0107,0.6268 0.6735,1.2999 -0.3117,0.625 -0.7562,1.1806 -1.7571,0.6962 -1.0957,-0.5021 -10.5017,-5.198 -30.8284,-5.0751 -22.4061,0.13 -30.5639,5.3066 -30.5639,5.3066z"/>
   <path class="fil1" d="M48.0624 66.3148c0,0 -0.7705,0.4932 -1.0829,-0.422 -0.2775,-0.8067 -0.1424,-1.0614 0.2895,-1.4193 0.4341,-0.3632 2.3086,-0.9865 2.3086,-0.9865 0,0 9.1341,-4.4893 25.9334,-4.2613 19.6426,0.2885 28.809,5.1018 28.809,5.1018 0,0 0.5398,0.6482 0.2394,1.3249 -0.2165,0.4576 -0.8084,0.6749 -1.3252,0.4915 -1.2383,-0.4078 -10.4687,-4.5337 -27.7357,-4.6068 -14.8253,-0.1567 -27.436,4.7777 -27.436,4.7777z"/>
   <path class="fil1" d="M94.9913 28.1428l0.1531 -0.1193 -0.1455 -0.1068c-0.8085,-0.5734 -1.3406,-1.5083 -1.3406,-2.575 0,-1.0381 0.5023,-1.9534 1.2682,-2.5321 -1.1999,-0.4541 -2.059,-1.608 -2.059,-2.9685 0,-0.1977 0.0223,-0.3936 0.0549,-0.5841 -0.2921,0.0908 -0.6065,0.1407 -0.9313,0.1407 -1.7445,0 -3.1581,-1.4069 -3.17,-3.1448 -0.4223,0.2048 -0.8958,0.3241 -1.3953,0.3241 -1.5874,0 -2.9001,-1.1664 -3.1331,-2.6907 -0.5439,0.438 -1.2305,0.6962 -1.9789,0.6962 -1.4707,0 -2.7058,-0.9972 -3.0627,-2.3559 -0.1573,0.1709 -0.8737,0.9385 -1.7869,1.6722 0.5564,0.4932 1.0954,1.1663 1.2645,1.4299 0.5545,0 5.4396,-0.0089 8.0885,1.9748 2.644,1.9856 5.7735,4.8846 6.2653,11.3844 0.0598,0.6108 0.112,3.5845 0.112,3.5845 0,0 -0.2163,0.9866 0.0585,1.2021 0.2761,0.2191 0.9381,0.1673 0.9381,0.1673l0.3716 -0.3667c-0.6839,-0.5842 -1.1206,-1.4478 -1.1206,-2.4165 -0.0007,-1.1575 0.626,-2.16 1.5491,-2.7157z"/>
   <path class="fil1" d="M115.451 37.4953c-0.0501,0.0107 -0.1001,0.0285 -0.1427,0.048 -0.4918,0.2779 -0.7685,0.1194 -1.1554,0.5058 0,-1.2162 0.5036,-4.897 -1.3708,-7.9777 -1.8767,-3.0807 -4.0187,-4.1402 -6.3308,-4.5729 -2.3089,-0.4345 -6.1603,-0.2173 -6.1603,-0.2173 0,0 -0.2044,-1.2144 -0.434,-1.706 -0.1078,-0.2314 -0.1475,-0.5822 -0.1649,-0.8885 0.0348,0.666 1.1908,0.6518 1.9123,0.6518 1.0135,0 1.9172,-0.4791 2.4958,-1.2216 0.4944,1.1112 1.6055,1.8875 2.8959,1.8875 0.6788,0 1.3084,-0.2154 1.8195,-0.5751 0.4419,1.218 1.6056,2.087 2.9758,2.087 0.2576,0 0.5016,-0.0338 0.739,-0.0891 -0.14,0.358 -0.2193,0.7462 -0.2193,1.1539 0,1.649 1.2578,3.0023 2.8672,3.1555 -0.2441,0.4505 -0.3838,0.9669 -0.3838,1.5137 0,1.2518 0.7309,2.3345 1.7889,2.8474 -0.7629,0.5805 -1.2597,1.4922 -1.2597,2.5251 0,0.3009 0.0473,0.5948 0.1274,0.8726z"/>
   <path class="fil1" d="M35.1493 34.1831c0.951,-0.5467 1.5952,-1.5724 1.5952,-2.7459 0,-0.6197 -0.1795,-1.1949 -0.4872,-1.6828 1.6056,-0.1603 2.8612,-1.5118 2.8612,-3.1572 0,-0.3509 -0.0627,-0.6891 -0.167,-1.0026 0.1823,0.0303 0.3665,0.0516 0.5592,0.0516 1.5144,0 2.7776,-1.0613 3.0947,-2.4805 0.5641,0.5199 1.3156,0.8422 2.1446,0.8422 1.3273,0 2.4657,-0.8208 2.9374,-1.9784 0.5441,0.9634 1.575,1.6133 2.761,1.6133 0.4174,0 0.8144,-0.0891 1.1789,-0.2368l0.5935 0.1104c-0.4711,0.5378 -0.7631,1.2323 -0.7835,1.9998l-2.3588 -0.1264c0,0 0.494,-0.0481 0.1697,-0.0481 -0.3241,0 -3.0346,0.1069 -3.9585,0.3242 -0.9287,0.219 -3.4204,1.3729 -4.6828,2.4805 -1.2633,1.1058 -2.0917,2.5268 -2.5265,4.5587 -0.432,2.0354 -0.2171,5.3423 -0.2171,5.3423 -0.4743,-0.1193 -0.9488,-0.0427 -1.3384,0.0819 0.1426,-0.3544 0.2199,-0.7408 0.2199,-1.1468 0,-1.1789 -0.6461,-2.2028 -1.5978,-2.7512l0.002 -0.0481z"/>
   <path class="fil1" d="M72.5832 12.4777c-0.3423,1.3818 -1.5874,2.4057 -3.076,2.4057 -0.7658,0 -1.4698,-0.2689 -2.0164,-0.723 -0.3096,1.4317 -1.5777,2.5002 -3.0977,2.5002 -0.5572,0 -1.0809,-0.1425 -1.5353,-0.3989 -0.0353,1.722 -1.4384,3.111 -3.1677,3.111 -0.2379,0 -0.4723,-0.0286 -0.6941,-0.0802 0.0501,0.2227 0.0772,0.4541 0.0772,0.6927 0,1.5351 -1.0857,2.8118 -2.5333,3.1092 0.7513,0.5788 1.2382,1.4869 1.2382,2.5073 0,1.0862 -0.546,2.0443 -1.3802,2.6177 0.9433,0.4844 1.602,1.4335 1.6973,2.5429l0.0549 -1.3551c0,0 -0.0953,-6.3876 3.4203,-9.5769 3.5142,-3.1874 6.4845,-3.898 6.4845,-3.898l4.8404 -0.6625c0,0 0.4912,-1.1415 0.9831,-1.5884 -0.4639,-0.317 -0.8863,-0.8244 -1.2952,-1.2038z"/>
   <path class="fil1" d="M57.9874 31.6153c-0.1816,0.9829 -0.8209,1.8091 -1.6876,2.2455 0,0 -0.3817,0.0516 0.1349,0.1691 0.5168,0.1157 0.9468,-0.057 1.2987,-0.3614 0.3515,-0.3027 0.2635,-0.6482 0.2635,-0.6482l0.0983 -2.2598 -0.1077 0.8548z"/>
   <path class="fil1" d="M36.9142 47.1914c0,0.9848 0.802,1.7879 1.7876,1.7879 0.9885,0 1.7899,-0.8031 1.7899,-1.7879 0,-0.9883 -0.8021,-1.7879 -1.7899,-1.7879 -0.9856,0 -1.7876,0.7996 -1.7876,1.7879z"/>
   <path class="fil1" d="M110.9294 46.9795c0,0.9847 0.7995,1.7896 1.7851,1.7896 0.9885,0 1.7898,-0.8049 1.7898,-1.7896 0,-0.9883 -0.8013,-1.7879 -1.7898,-1.7879 -0.9856,0 -1.7851,0.7996 -1.7851,1.7879z"/>
   <path class="fil1" d="M72.6681 28.1446c0,-1.1878 0.7137,-2.2063 1.7347,-2.6586 -1.2811,-0.4701 -2.1968,-1.6935 -2.1968,-3.1394 0,-1.4656 0.9442,-2.7068 2.2511,-3.1627 -1.0877,-0.438 -1.8584,-1.4975 -1.8584,-2.7458 0,-0.1407 0.0117,-0.2796 0.0318,-0.415 -0.4048,0.0321 -0.6962,0.0695 -0.8014,0.1264 -0.3116,0.155 -1.023,1.8022 -1.108,6.8826 -0.0848,5.0751 0.0523,7.05 1.7473,9.251 0.1303,0.0979 0.4063,-0.9136 1.1533,-1.5992 0.1293,-0.0391 0.2489,-0.0748 0.3672,-0.1068 -0.7945,-0.52 -1.3209,-1.4139 -1.3209,-2.4325z"/>
   <path class="fil1" d="M79.5773 15.9928c0,0 -0.4367,-0.0107 -1.1038,-0.0232 0.0256,0.1532 0.0402,0.3098 0.0402,0.4684 0,1.2483 -0.7715,2.3096 -1.8601,2.7477 1.3085,0.454 2.2516,1.6969 2.2516,3.159 0,1.4371 -0.9055,2.6586 -2.1743,3.134 1.0258,0.447 1.7479,1.4728 1.7479,2.6658 0,1.081 -0.5947,2.0229 -1.4704,2.5251 0.6142,0.2778 1.1782,0.739 1.4251,1.373 0.1697,0.4344 0.6046,0.6144 0.6046,0.6144 0,0 1.8024,-2.8634 1.755,-8.3606 -0.0474,-5.5025 -1.2159,-8.3036 -1.2159,-8.3036z"/>
   <path class="fil1" d="M73.2774 32.5537c0,0 0.4715,-1.4851 1.9915,-1.5581 1.9323,-0.0891 2.3741,0.958 2.3741,0.958l0.3395 0.5574c0,0 -1.5354,-0.1994 -2.4611,-0.2546 -0.8687,-0.0534 -1.8104,0.365 -2.2439,0.2973z"/>
   <path class="fil1" d="M90.3361 58.8517l4.3808 -1.9463 -3.9994 -2.3363 -4.3754 1.7843 3.994 2.4984zm-14.5825 -0.7337l0 0 4.2083 -2.2847 -4.1617 -2.0229 -4.2251 2.1209 4.1784 2.1868zm-14.5513 0.6749l0 0 4.0917 -2.5019 -4.2613 -1.804 -4.1138 2.3327 4.2835 1.9731zm-15.2093 -0.9153l0 0c0,0 10.9731,-5.1374 30.4414,-4.9201 20.1949,0.2297 28.762,4.6923 28.9072,4.8382 0.1442,0.1442 0.0969,0.3223 -0.0722,0.5039 -1.2159,0.0623 -4.3941,0.1905 -4.5263,0.2529 -0.1676,0.0712 2.8388,3.0326 2.8388,3.0326 0,0 0.3144,0.2173 0.0974,0.5538 -0.2149,0.3366 -0.3122,0.5557 -0.3847,0.6981 -0.0723,0.1424 -0.0973,0.2849 -0.3595,0.194 -0.3369,-0.1228 -8.9789,-4.3805 -27.3282,-4.3805 -18.3499,0 -27.6653,4.7385 -27.6653,4.7385 0,0 -0.2631,0.1193 -0.3353,-0.4558 -0.1942,-0.4327 -0.2644,-0.6998 -0.2644,-0.6998 0,0 -0.05,-0.1425 0.2399,-0.3598 0.2894,-0.2155 3.0356,-2.8171 3.0356,-2.8171 0,0 0.2269,-0.3829 -0.1474,-0.4309 -0.409,-0.0481 -4.4033,-0.1923 -4.4033,-0.1923 0,0 -0.4331,-0.3864 -0.0737,-0.5557z"/>
   <path class="fil2" d="M53.4666 51.6468l3.0809 -3.1412c0,0 0.2518,-0.5057 0.5766,-0.4451 0.3213,0.0587 1.6723,1.0844 2.116,1.4068 0.4474,0.3241 1.6749,0.901 1.6749,0.901 0,0 -6.1629,0.7016 -7.4485,1.2786z"/>
   <path class="fil2" d="M71.3722 49.6007c0,0 3.1273,-2.6853 3.5851,-3.143 0.456,-0.454 0.456,-0.3241 0.8429,-0.3241 0.3853,0 1.1414,-0.0694 1.2756,0.6393 0.1198,0.6233 3.0204,2.7548 3.0204,2.7548 0,0 -8.4117,0.0143 -8.724,0.073z"/>
   <path class="fil2" d="M91.0701 50.2382c0,0 2.5139,-1.5422 2.9584,-1.925 0.4458,-0.3864 0.2538,-0.3152 0.6406,-0.2528 0.3847,0.0623 1.4656,1.7326 1.9853,2.119 0.5162,0.3829 1.5496,1.4051 1.5496,1.4051 0,0 -5.7288,-1.0827 -7.1339,-1.3462z"/>
   <path class="fil2" d="M38.4243 35.8944c0,0 -0.0125,2.6462 0.0258,2.9596 0.0347,0.3134 1.0329,2.0354 1.2027,2.7441 0.1676,0.7105 0.0348,0.7355 0.0348,0.7355 0,0 0.265,-1.2519 0.9016,-1.7808 0.6384,-0.5307 1.1206,-0.8797 2.0094,-1.0613 0.8938,-0.1781 2.2294,0.0391 2.6135,0.4612 0.3846,0.4185 1.261,1.6097 0.9506,3.1982 0.6715,0.7692 1.0838,1.1663 1.191,2.3221 0.1078,1.1557 -0.1447,1.7683 -0.8416,2.502 -0.7012,0.7354 -2.4312,1.3854 -3.8418,0.4967 -0.4938,-0.146 -0.5259,-0.1816 -0.5259,-0.1816 0,0 -0.5551,0.5895 -0.1704,0.8031 0.3869,0.2191 2.5041,1.8057 5.1023,1.6989 2.6008,-0.1069 4.1514,-0.853 7.3163,-4.5142 -0.0723,-0.2368 -0.1696,-0.2653 -0.4215,-0.1318 -0.2496,0.1318 -1.6227,0.951 -2.6364,0.625 -0.7916,-0.2528 -2.8658,-0.2867 -2.1166,-4.2577 -0.9516,-1.1913 -1.049,-2.3345 -0.9141,-3.1769 0.1322,-0.8423 0.5043,-1.8538 1.5903,-1.9624 1.081,-0.1086 1.9942,0.2156 1.9942,0.2156 0,0 -0.5886,-2.5733 1.5881,-3.4511 -1.0588,-0.698 -1.8747,-1.1326 -2.0452,-2.7816 -0.1667,-1.6453 1.1311,-2.598 1.1311,-2.598 0,0 -0.0598,-0.4096 -0.3846,-0.3473 -0.3262,0.057 -2.6258,0.0107 -4.9326,2.9453 -1.6845,2.1529 -4.1409,2.1529 -4.1409,2.1529 0,0 -1.7077,0.171 -3.7415,1.649 -0.878,0.6393 -0.9385,0.7355 -0.9385,0.7355z"/>
   <path class="fil2" d="M58.7115 27.7724c0,0 -0.2275,1.4478 -0.2896,3.0665 -0.0575,1.6275 -0.1926,2.265 0.1949,2.6853 0.384,0.4221 1.6847,0.6126 2.2608,2.103 0.1926,0.1692 0.4473,0.0642 0.8068,-0.0355 0.3598,-0.0944 1.9372,0.1229 2.6455,1.4228 0.7095,1.2999 -0.0346,2.778 -0.227,3.1751 0.0976,0.2048 -0.0096,0.1941 0.1205,0.5556 0.194,0.5039 0.3965,0.3116 0.3965,1.8983 0.0125,0.8298 -0.6392,2.5037 -2.6837,2.4093 -1.5748,-0.0748 -1.9944,-0.6037 -1.9944,-0.6037l-0.676 -0.3828c0,0 -0.265,0.0355 -0.3625,0.2048 -0.0945,0.1673 -0.2767,0.3971 0.1698,0.7585 0.4472,0.3598 1.7926,2.9596 6.4628,2.9828 3.9114,0.0356 5.9782,-2.9721 5.9782,-2.9721 0,0 -1.1555,-0.0107 -1.8386,-0.2671 -0.6872,-0.2511 -1.7105,-1.5154 -1.6514,-2.5482 0.0606,-1.0346 0.1927,-1.373 0.3853,-2.0087 -0.4548,-0.5182 -0.7685,-1.3854 -0.7685,-2.42 0,-1.0364 0.3839,-1.5795 0.9628,-2.0336 0.5773,-0.4576 1.1914,-0.3241 1.5157,-0.3598 0.3241,-0.0355 0.9264,0.1781 1.4322,0.4791 -0.0273,-0.5146 -0.2894,-1.7808 0.804,-2.778 -0.9083,-0.7355 -2.0665,-2.6728 -2.2592,-5.1623 -0.1927,-2.493 -0.1322,-4.5249 -0.1322,-4.5249 0,0 -1.0957,-0.2653 -2.2266,0.4809 -1.1333,0.7461 -2.5633,2.1903 -3.275,2.5518 -0.7087,0.3632 -2.3566,1.2625 -4.3314,1.2981 -1.3475,-0.0356 -1.4197,0.0249 -1.4197,0.0249z"/>
   <path class="fil2" d="M81.5765 23.3437c0,0 0.2025,6.8701 -1.8921,9.47 -0.0591,0.2761 0.4725,1.2269 0.5554,1.3711 0.0869,0.1461 0.1912,0.7106 0.3491,0.7106 0.1571,0 1.6144,-0.0463 2.2759,0.3632 0.6594,0.4078 1.0935,1.2608 1.1561,2.55 0.0576,1.2856 -0.5288,1.8893 -0.5288,1.8893 0,0 0.4438,0.7568 0.4438,1.2234 0,0.4701 -0.2441,1.795 -0.7115,2.2277 -0.4696,0.4345 -0.9167,0.7585 -2.0346,0.8192 -1.1205,0.0605 -2.132,-0.7105 -2.132,-0.7105l-0.3814 -0.0712c0,0 2.5579,4.6441 7.4486,4.7046 4.8846,0.0588 7.0522,-3.346 7.0522,-3.346 0,0 -0.0851,-0.495 -0.3869,-0.3009 -0.2996,0.1923 -1.4453,0.9866 -2.0824,0.9866 -0.6387,0 -1.8747,0.0267 -2.8026,-1.5635 -0.4097,-0.6625 -0.1948,-2.2135 -0.1948,-2.2135 0,0 0.2544,-0.6233 0.5544,-0.8797 -0.2172,-0.2991 -0.4793,-1.4531 -0.4444,-2.2259 0.0346,-0.771 0.2043,-1.5297 1.1782,-2.1298 0.6888,-0.4309 1.6502,-0.3366 1.6502,-0.3366l1.1408 0.2654c0,0 -0.1302,-0.9634 1.2311,-1.9767 -0.3875,-0.3562 -0.724,-0.3473 -0.8061,-0.9242 -0.0829,-0.5769 0,-2.9239 0,-3.476 0,-0.5521 -0.0829,-1.9481 -0.4697,-2.0586 -0.4444,-0.048 -2.4194,0.0748 -3.5371,-0.6481 -1.1206,-0.723 -4.0212,-2.8403 -4.4561,-3.1787 -0.4305,-0.3384 -1.9873,-0.5057 -2.1751,-0.5414z"/>
   <path class="fil2" d="M98.9756 28.7697c0,0 1.7926,3.2997 -0.4822,4.6834 -0.3963,0.1068 -0.6015,0.4558 -0.6015,0.4558 0,0 1.2408,-0.2048 2.0192,0.999 0.7896,1.2039 0.6741,2.0212 0.642,2.5518 0.4195,-0.0355 1.9096,-0.1691 2.5486,0.2155 0.6366,0.3847 1.241,1.4069 1.241,2.299 0,0.8885 -0.9612,2.4182 -0.9612,2.4182 0,0 0.2149,1.1914 0.1424,1.9517 -0.0255,0.4433 -0.5521,1.6329 -1.5906,2.2384 -1.0337,0.6001 -2.7408,0.2048 -3.3821,-0.3277 -0.6364,-0.5307 -1.2354,-1.4174 -1.2354,-1.4174 0,0 -0.4222,-0.0268 -0.3519,0.2529 0.0745,0.276 0.0745,0.6713 1.3126,2.0567 1.236,1.3819 2.2891,3.3069 5.752,3.4405 3.4647,0.1318 5.5236,-1.4923 5.5236,-1.4923 0,0 0.242,-0.5662 0.0724,-0.7817 -0.1668,-0.2155 -0.3144,-0.3258 -0.4891,-0.2155 -0.1849,0.1068 -1.0037,0.6108 -2.0277,0.5414 -1.8044,-0.1318 -2.4059,-0.9046 -2.5978,-1.8431 -0.1671,-0.8423 -0.0253,-1.9107 0.1194,-2.4183 0.2422,-0.844 0.8438,-1.0345 0.8438,-1.0345 0,0 -0.6016,-2.2028 0.7088,-3.298 1.3113,-1.0933 2.6969,-0.4932 2.6969,-0.4932 0,0 1.1652,0.2191 1.5615,0.6375 0.3995,0.4238 0.9885,0.9153 1.2064,1.7345 0.2142,0.8174 0.1445,0.7835 0.1445,0.7835 0,0 0.3592,-0.3491 0.3973,-0.5681 0.0348,-0.2154 -0.1203,-1.745 0.1321,-2.3469 0.2518,-0.6001 0.6741,-0.4559 0.7813,-1.8751 0.1069,-1.4228 0.0877,-2.2277 -0.2401,-2.445 -0.3262,-0.2137 -3.0793,-1.8751 -4.7174,-2.2027 -1.6375,-0.3205 -2.0723,0.0125 -3.2027,-1.1272 -1.1282,-1.1433 -1.8169,-2.7709 -4.3285,-3.4084 -1.3475,-0.2386 -1.6376,0.0356 -1.6376,0.0356z"/>
   <polygon class="fil0" points="61.2176,58.086 58.0397,56.7166 60.9749,55.0319 64.1754,56.282 "/>
   <polygon class="fil0" points="90.0441,58.159 87.133,56.3907 90.2612,55.1032 93.2669,56.7611 "/>
   <path class="fil2" d="M46.1029 58.9318c0,0 0.1704,1.0097 0,1.4442 -0.0248,0.2155 0.1704,0.406 0.1704,0.406 0.1196,0.1443 0.8188,0.6019 0.8663,0.723 0.2887,-0.1673 2.573,-2.4805 2.573,-2.4805 0,0 -2.9829,-0.1425 -3.6097,-0.0927z"/>
   <polygon class="fil2" points="75.7905,57.4146 72.6979,55.8849 75.7182,54.3607 78.8456,55.7781 "/>
   <path class="fil2" d="M101.5619 58.8874l2.648 2.5037c0,0 0.4571,-0.4078 0.8437,-0.6714 0.3848,-0.2671 0.6971,-0.2885 0.5017,-0.9153 -0.192,-0.6268 -0.2422,-1.0364 -0.2422,-1.0364l-3.7512 0.1194z"/>
   <path class="fil4" d="M120.0141 35.8303c0,-0.7034 -0.5718,-1.2715 -1.2717,-1.2715 -0.7004,0 -1.2693,0.568 -1.2693,1.2715 0,0.6998 0.5682,1.2697 1.2693,1.2697 0.6998,0 1.2717,-0.5698 1.2717,-1.2697z"/>
   <path class="fil4" d="M119.4895 30.5201c0,-0.6998 -0.5717,-1.2715 -1.2701,-1.2715 -0.7017,0 -1.271,0.5716 -1.271,1.2715 0,0.6998 0.5692,1.2715 1.271,1.2715 0.6983,0 1.2701,-0.5716 1.2701,-1.2715z"/>
   <path class="fil4" d="M117.1259 25.7317c0,-0.7016 -0.5697,-1.2714 -1.2736,-1.2714 -0.6984,0 -1.2674,0.5697 -1.2674,1.2714 0,0.7016 0.5682,1.2697 1.2674,1.2697 0.7038,0 1.2736,-0.568 1.2736,-1.2697z"/>
   <path class="fil4" d="M112.974 21.579c0,-0.6998 -0.5711,-1.2697 -1.2703,-1.2697 -0.7038,0 -1.2709,0.568 -1.2709,1.2697 0,0.6998 0.567,1.2697 1.2709,1.2697 0.6991,0 1.2703,-0.5698 1.2703,-1.2697z"/>
   <path class="fil4" d="M108.0616 20.0779c0,-0.7017 -0.5683,-1.2715 -1.271,-1.2715 -0.7004,0 -1.2703,0.5697 -1.2703,1.2715 0,0.7015 0.5692,1.2714 1.2703,1.2714 0.7026,0 1.271,-0.5698 1.271,-1.2714z"/>
   <path class="fil4" d="M102.5899 19.5882c0,-0.7034 -0.5689,-1.2715 -1.2707,-1.2715 -0.7021,0 -1.2703,0.568 -1.2703,1.2715 0,0.7016 0.5681,1.2697 1.2703,1.2697 0.7017,0 1.2707,-0.568 1.2707,-1.2697z"/>
   <path class="fil4" d="M98.1395 24.8325c0,-0.6998 -0.5718,-1.2715 -1.271,-1.2715 -0.701,0 -1.2707,0.5716 -1.2707,1.2715 0,0.6998 0.5688,1.2715 1.2707,1.2715 0.6991,0 1.271,-0.5716 1.271,-1.2715z"/>
   <path class="fil4" d="M97.6552 30.5914c0,-0.6998 -0.5716,-1.2715 -1.2707,-1.2715 -0.702,0 -1.271,0.5716 -1.271,1.2715 0,0.6998 0.5689,1.2714 1.271,1.2714 0.699,-0.0017 1.2707,-0.5715 1.2707,-1.2714z"/>
   <path class="fil4" d="M97.3501 19.0735c0,-0.6998 -0.5684,-1.2715 -1.2703,-1.2715 -0.7018,0 -1.271,0.5716 -1.271,1.2715 0,0.7033 0.5691,1.2715 1.271,1.2715 0.7018,0 1.2703,-0.5681 1.2703,-1.2715z"/>
   <path class="fil4" d="M93.3872 15.6492c0,-0.7016 -0.5699,-1.2697 -1.2717,-1.2697 -0.701,0 -1.271,0.568 -1.271,1.2697 0,0.7016 0.5699,1.2715 1.271,1.2715 0.7012,0 1.2717,-0.5698 1.2717,-1.2715z"/>
   <path class="fil4" d="M88.9979 12.7804c0,-0.6999 -0.5682,-1.2697 -1.2703,-1.2697 -0.6989,0 -1.2707,0.5697 -1.2707,1.2697 0,0.7033 0.5717,1.2714 1.2707,1.2714 0.7013,0 1.2703,-0.568 1.2703,-1.2714z"/>
   <path class="fil4" d="M83.8783 10.939c0,-0.7015 -0.5711,-1.2714 -1.2709,-1.2714 -0.7011,0 -1.2701,0.5698 -1.2701,1.2714 0,0.6999 0.5689,1.2697 1.2701,1.2697 0.6997,0 1.2709,-0.5679 1.2709,-1.2697z"/>
   <path class="fil4" d="M70.5339 10.7646c0,-0.6998 -0.569,-1.2697 -1.2708,-1.2697 -0.6991,0 -1.2711,0.5698 -1.2711,1.2697 0,0.7016 0.5719,1.2714 1.2711,1.2714 0.7011,0 1.2708,-0.5697 1.2708,-1.2714z"/>
   <path class="fil4" d="M64.9469 12.6771c0,-0.6998 -0.5692,-1.2697 -1.271,-1.2697 -0.6983,0 -1.2674,0.5698 -1.2674,1.2697 0,0.7016 0.5682,1.2715 1.2674,1.2715 0.7017,0 1.271,-0.5698 1.271,-1.2715z"/>
   <path class="fil4" d="M60.4011 15.3535c0,-0.698 -0.5682,-1.2679 -1.2702,-1.2679 -0.7018,0 -1.2708,0.5698 -1.2708,1.2679 0,0.7016 0.5689,1.2715 1.2708,1.2715 0.7019,0 1.2702,-0.5698 1.2702,-1.2715z"/>
   <path class="fil4" d="M56.6421 19.1145c0,-0.7034 -0.569,-1.2715 -1.2681,-1.2715 -0.7019,0 -1.2709,0.568 -1.2709,1.2715 0,0.6998 0.5689,1.2697 1.2709,1.2697 0.699,0 1.2681,-0.5698 1.2681,-1.2697z"/>
   <path class="fil4" d="M51.4849 19.467c0,-0.6998 -0.5698,-1.2715 -1.2682,-1.2715 -0.7012,0 -1.271,0.5716 -1.271,1.2715 0,0.6998 0.5697,1.2697 1.271,1.2697 0.6983,0 1.2682,-0.5698 1.2682,-1.2697z"/>
   <path class="fil4" d="M45.7482 19.7965c0,-0.6998 -0.569,-1.2697 -1.2703,-1.2697 -0.7016,0 -1.2707,0.5698 -1.2707,1.2697 0,0.7033 0.569,1.2714 1.2707,1.2714 0.7012,0 1.2703,-0.568 1.2703,-1.2714z"/>
   <path class="fil4" d="M56.2998 25.331c0,-0.7015 -0.5711,-1.2714 -1.2703,-1.2714 -0.7017,0 -1.27,0.5698 -1.27,1.2714 0,0.7016 0.5682,1.2697 1.27,1.2697 0.6991,0 1.2703,-0.568 1.2703,-1.2697z"/>
   <path class="fil4" d="M56.2998 30.6128c0,-0.7034 -0.5711,-1.2715 -1.2703,-1.2715 -0.7017,0 -1.27,0.568 -1.27,1.2715 0,0.6997 0.5682,1.2697 1.27,1.2697 0.6991,0 1.2703,-0.5699 1.2703,-1.2697z"/>
   <path class="fil4" d="M73.836 12.8766c0,0 0.7964,-0.8816 1.6372,-0.8939 0.9044,-0.0089 1.7578,0.8208 1.7578,0.8208 0,0 -0.3142,0.6268 -1.6701,0.6607 -1.3596,0.0374 -1.725,-0.5876 -1.725,-0.5876z"/>
   <path class="fil4" d="M74.2013 7.1942l0 2.1316c0,0 -0.2807,0.4309 -1.9527,1.2144 0.0403,-0.7337 0,-2.9597 1.9527,-3.346z"/>
   <path class="fil4" d="M76.8944 7.1942l0 2.0727c0,0 0.279,0.4915 1.9462,1.2733 -0.0321,-0.7337 0,-2.9597 -1.9462,-3.346z"/>
   <path class="fil4" d="M77.8926 16.4077c0,-1.2963 -1.0538,-2.3523 -2.3546,-2.3523 -1.3005,0 -2.3538,1.056 -2.3538,2.3523 0,1.3036 1.0533,2.356 2.3538,2.356 1.3008,0 2.3546,-1.0524 2.3546,-2.356z"/>
   <path class="fil4" d="M77.8202 28.1571c0,-1.2608 -1.0211,-2.2829 -2.2815,-2.2829 -1.2604,0 -2.2842,1.0221 -2.2842,2.2829 0,1.259 1.0238,2.2829 2.2842,2.2829 1.2604,-0.0018 2.2815,-1.0239 2.2815,-2.2829z"/>
   <path class="fil4" d="M78.2119 22.3109c0,-1.4779 -1.1959,-2.6729 -2.6732,-2.6729 -1.478,0 -2.673,1.195 -2.673,2.6729 0,1.4763 1.195,2.6746 2.673,2.6746 1.4773,0 2.6732,-1.1984 2.6732,-2.6746z"/>
   <path class="fil1" d="M31.048 42.9087c0,0 1.7802,-2.2598 2.9961,-3.0806 1.2159,-0.8175 1.9365,-1.2376 2.6954,-1.0703 0.7588,0.1673 1.6729,1.3142 1.9247,2.1191 0.2547,0.8049 0.3152,2.1155 0.3152,2.1155 0,0 0.0947,0.2672 -0.375,0.4345 -0.4696,0.1692 -0.8188,0.1568 -1.3702,0.4452 -0.5518,0.2885 -0.6394,0.3989 -0.6394,0.3989 0,0 -0.1919,-2.096 -0.372,-2.2651 -0.1796,-0.1691 -0.242,-0.1068 -0.5321,0.1229 -0.2867,0.2297 -1.8268,2.1422 -2.3186,2.4662 -0.4938,0.3259 -1.3028,1.0578 -1.8322,0.5165 -0.5293,-0.5414 -0.6962,-1.7951 -0.4919,-2.2028z"/>
   <path class="fil4" d="M40.3519 21.3724c0,-0.6998 -0.5692,-1.2697 -1.2683,-1.2697 -0.701,0 -1.2709,0.5698 -1.2709,1.2697 0,0.7034 0.5691,1.2715 1.2709,1.2715 0.699,0 1.2683,-0.5698 1.2683,-1.2715z"/>
   <path class="fil4" d="M36.3076 25.8724c0,-0.6998 -0.5718,-1.2715 -1.2701,-1.2715 -0.7021,0 -1.2711,0.5716 -1.2711,1.2715 0,0.6998 0.5682,1.2697 1.2711,1.2697 0.699,0 1.2701,-0.5698 1.2701,-1.2697z"/>
   <path class="fil4" d="M34.0412 30.6162c0,-0.6997 -0.5689,-1.2715 -1.271,-1.2715 -0.701,0 -1.27,0.5717 -1.27,1.2715 0,0.6998 0.5689,1.2697 1.27,1.2697 0.702,0 1.271,-0.5698 1.271,-1.2697z"/>
   <path class="fil4" d="M33.5545 36.4909c0,-0.6998 -0.5718,-1.2697 -1.2711,-1.2697 -0.7011,0 -1.2701,0.5698 -1.2701,1.2697 0,0.7034 0.5683,1.2716 1.2701,1.2716 0.6992,0 1.2711,-0.5681 1.2711,-1.2716z"/>
  </g>
 </g>
</svg>
